<svg viewBox="0 0 388 80" xmlns="http://www.w3.org/2000/svg"><path d="M36.66 60.86h4.26L36.54 47.9H24.66l-4.62 12.96h4.5V62h-9.18v-1.14h2.82l15.3-41.22h4.92l15.12 41.22h2.76V62H36.66v-1.14zm-.6-14.28l-5.22-15.72-5.64 15.72h10.86zm43.08-.72q0-6.18-.6-8.31-.6-2.13-2.34-2.13-1.74 0-3.12 2.16-1.38 2.16-1.38 5.94v11.16q0 2.58 1.05 4.38 1.05 1.8 3 1.8t2.67-2.64q.72-2.64.72-9.24v-3.12zM57.24 17H71.7v21q2.28-5.16 7.8-5.16 11.22 0 11.22 14.94 0 7.62-3.09 11.22-3.09 3.6-9.27 3.6-3.12 0-4.77-.96-1.65-.96-2.25-3.18L70.92 62H57.24v-1.08h3.3V18.08h-3.3V17zm55.32 18.12q-2.22 0-3.9 2.88-1.68 2.88-1.68 6.84v16.08h4.26V62H92.52v-1.08h3.3v-26.4h-3.3v-1.08h14.46v5.76q.78-3.06 3-4.71 2.22-1.65 5.04-1.65t4.59 1.59q1.77 1.59 1.77 4.5t-1.32 4.47q-1.32 1.56-4.05 1.56-2.73 0-4.02-1.8-1.29-1.8-.33-4.98h2.16q1.5-3.06-1.26-3.06zm18.48-5.82q-3.18 0-4.53-1.62t-1.35-4.02q0-2.4 1.47-3.96t4.47-1.56q3 0 4.56 1.41 1.56 1.41 1.56 4.02 0 2.61-1.5 4.17t-4.68 1.56zm-9.06 5.22v-1.08h14.7v27.48h3.36V62h-17.82v-1.08h3.3v-26.4h-3.54zM141 18.08V17h14.7v43.92h3.36V62h-17.82v-1.08h3.3V18.08H141zm30.66 3.24V20h31.2l.6 12.48h-1.08q-2.22-6.48-5.13-8.82-2.91-2.34-8.67-2.34h-1.68v19.5h2.7q2.88 0 4.8-2.1t2.64-5.76h.9v17.76h-1.02q-.96-4.5-2.67-6.42t-4.65-1.92h-2.7v18.3h7.44V62h-22.68v-1.32h3.54V21.32h-3.54zm45.96 26.58h1.74v-4.62q0-5.7-.63-7.65-.63-1.95-2.43-1.95-1.08 0-1.95.57-.87.57-.87 1.56 0 .99.36 2.01h1.5q.48 1.26.48 3.03 0 1.77-1.5 3.06t-3.78 1.29q-5.16 0-5.16-4.98 0-7.38 12.54-7.38 7.14 0 9.87 2.43 2.73 2.43 2.73 8.91v12.18q0 3.12 1.74 3.12 2.04 0 2.4-6.18l.9.06q-.24 5.28-1.98 7.26-1.74 1.98-5.7 1.98-7.2 0-8.28-4.44-.78 2.28-2.34 3.36-1.56 1.08-4.56 1.08-8.88 0-8.88-7.26 0-4.26 3.39-5.85 3.39-1.59 10.41-1.59zm-2.4 7.38q0 3.12.33 4.02.33.9 1.26.9.93 0 1.74-1.53.81-1.53.81-4.23v-5.58h-.42q-3.72 0-3.72 5.46v.96zm23.04-1.86v-18.9h-3.3v-1.08h3.3V25.7l11.16-2.76v10.5h7.8v1.08h-7.8v20.22q0 2.82.57 4.14.57 1.32 2.37 1.32 1.8 0 3.15-1.8 1.35-1.8 1.77-4.92l1.02.12q-.48 4.14-2.64 6.57-2.16 2.43-7.14 2.43-4.98 0-7.62-1.98-2.64-1.98-2.64-7.2zm38.82-36.78q-2.28 0-3 1.71-.72 1.71-.72 5.49v9.6h7.92v1.08h-7.92v26.4h7.32V62H258.9v-1.08h3.3v-26.4h-3.48v-1.08h3.48v-.24q0-8.64 3.3-13.11 3.3-4.47 11.04-4.47 5.1 0 7.32 2.01 2.22 2.01 2.22 4.65 0 2.64-1.38 3.96-1.38 1.32-3.66 1.32-2.28 0-3.51-1.17t-1.23-2.7q0-1.53.36-2.97h2.28q1.2-4.08-1.86-4.08zm18.6 31.26h1.74v-4.62q0-5.7-.63-7.65-.63-1.95-2.43-1.95-1.08 0-1.95.57-.87.57-.87 1.56 0 .99.36 2.01h1.5q.48 1.26.48 3.03 0 1.77-1.5 3.06t-3.78 1.29q-5.16 0-5.16-4.98 0-7.38 12.54-7.38 7.14 0 9.87 2.43 2.73 2.43 2.73 8.91v12.18q0 3.12 1.74 3.12 2.04 0 2.4-6.18l.9.06q-.24 5.28-1.98 7.26-1.74 1.98-5.7 1.98-7.2 0-8.28-4.44-.78 2.28-2.34 3.36-1.56 1.08-4.56 1.08-8.88 0-8.88-7.26 0-4.26 3.39-5.85 3.39-1.59 10.41-1.59zm-2.4 7.38q0 3.12.33 4.02.33.9 1.26.9.93 0 1.74-1.53.81-1.53.81-4.23v-5.58H297q-3.72 0-3.72 5.46v.96zm37.74-21.36q-2.64 0-3.78 2.88-1.14 2.88-1.14 9.54v3.12q0 5.94 1.32 8.52 1.32 2.58 4.86 2.58t5.64-2.4q2.1-2.4 2.7-5.46l1.08.12q-1.14 5.16-4.2 7.44-3.12 2.34-8.58 2.34-6.96 0-10.68-3.75-3.72-3.75-3.72-10.98t4.23-11.13q4.23-3.9 11.79-3.9 5.34 0 8.16 2.07 2.82 2.07 2.82 5.19 0 3.12-1.35 4.56-1.35 1.44-3.72 1.44t-3.81-1.26q-1.44-1.26-1.44-3.72 0-1.08.3-2.16h1.98q.42-1.2.42-2.16 0-2.88-2.88-2.88zm27.96 28.68q-7.74 0-11.61-3.99-3.87-3.99-3.87-11.1 0-7.11 4.35-10.89 4.35-3.78 11.07-3.78 13.62 0 13.08 13.68h-16.92v2.34q0 5.88 1.5 8.88 1.5 3 5.22 3 6.96 0 9.12-7.44l1.08.18q-1.14 4.32-4.11 6.72-2.97 2.4-8.91 2.4zm-3.84-20.22v2.94h6.18v-2.94q0-4.86-.57-6.63-.57-1.77-2.28-1.77t-2.52 1.89q-.81 1.89-.81 6.51z"/></svg>