<svg viewBox="0 0 543 80" xmlns="http://www.w3.org/2000/svg"><path d="M17.78 37.12v-9.6h34.2v9.6zM17 60.82l-1.2-9.54c.18 0 21.3-2.34 39.78-3.9l.84 9.54c-18.3 1.56-39.24 3.84-39.42 3.9zm98.46-33.24c-3.36-4.38-9.54-5.22-15-5.7-.18 0-.36 0-.54-.06 1.98-1.92 3.18-4.62 3.18-7.62 0-5.94-4.8-10.8-10.8-10.8-5.94 0-10.8 4.86-10.8 10.8 0 3.36 1.56 6.36 3.96 8.34-2.46.3-4.74.66-6.66 1.02l.54-1.98-8.1-2.22-5.22 20.34 8.1 2.22 2.4-9.3c4.32-.96 15.06-3.06 23.16-2.34 2.1.18 7.68.66 9.12 2.52.54.72.72 2.82.42 4.62l8.28 1.26c.66-4.2-.06-8.52-2.04-11.1zM92.3 10.6c1.98 0 3.6 1.62 3.6 3.6s-1.62 3.6-3.6 3.6a3.61 3.61 0 0 1-3.6-3.6c0-1.98 1.62-3.6 3.6-3.6zm21.3 36.9l-8.1 1.2c1.38-2.58 1.98-5.1 1.32-7.38-.96-3.42-3.9-5.88-8.04-6.72-7.98-1.62-18.96 1.44-19.38 1.56l2.58 7.98c2.16-.66 10.38-2.7 15.12-1.38 1.32.36 1.8.66 1.62 1.38-.36 1.44-2.64 4.02-5.28 6.36L76.1 53.02l1.32 8.28 16.68-2.46.36 1.74c.9 4.92-2.16 5.88-5.58 6.54L90.5 76c9.6-1.8 14.4-8.1 12.78-17.04-.06-.48-.18-.96-.3-1.44l11.94-1.74zm51.84-17.52l-.78-9-35.7 3 .78 9zm3.24 26.46c-6.84 2.88-8.7 1.86-8.7 1.86s-.12-.12-.18-.54c-.36-1.74-.06-7.32.3-9.9l9.48-1.26-1.2-8.88L127.34 43l1.2 8.94 7.92-1.02-5.4 12.84 8.34 3.48 7.38-17.7 4.14-.54c-.3 3.36-.54 7.92.06 10.62.84 3.78 3.12 5.7 4.86 6.6 1.5.78 3.24 1.2 5.28 1.2 3.06 0 6.72-.9 11.04-2.7zm40.26-24.3l5.94-.18-7.62 9.72 5.58 4.56 8.82-11.28-3.84-3.12 16.26-.54-3.42 5.94 12.12 6.72 3.6-6.24-11.64-6.48 9.6-.3-.24-7.8-10.8.36c1.74-1.8 2.82-4.2 2.82-6.9 0-5.46-4.44-9.9-9.9-9.9s-9.9 4.44-9.9 9.9c0 2.94 1.26 5.58 3.3 7.38l-10.92.36zm17.28-18.84c1.8 0 3.3 1.5 3.3 3.3 0 1.8-1.5 3.3-3.3 3.3-1.8 0-3.3-1.5-3.3-3.3 0-1.86 1.5-3.3 3.3-3.3zM196.1 38.92c6.3 0 11.4-5.1 11.4-11.4 0-6.3-5.1-11.4-11.4-11.4-6.3 0-11.4 5.1-11.4 11.4 0 6.3 5.1 11.4 11.4 11.4zm0-15c1.98 0 3.6 1.62 3.6 3.6s-1.62 3.6-3.6 3.6a3.61 3.61 0 0 1-3.6-3.6c0-1.98 1.62-3.6 3.6-3.6zm26.82 39.72c-.06-.06-.18-.3-.3-.72-.36-1.14-.3-3.24-.24-4.74l3-2.4-1.68-2.04c2.52-.12 5.64-.9 9.42-2.28l1.26 1.98 5.52-3.54-5.94-9.54-5.64 3.6 1.14 1.8c-3.72 1.2-5.7 1.38-6.66 1.32.18-.42.42-.96.9-1.62 2.46-3.66 6-7.38 6.06-7.44l-4.74-4.56c-.12.18-3.96 4.2-6.78 8.34-3.48 5.16-2.1 8.22-1.02 9.6.3.36.6.66.9.9l-9.6 7.68 4.56 5.64 2.4-1.92.18 1.02c.84 3.36 2.76 4.86 4.26 5.52.96.42 1.98.66 3.12.66 1.74 0 3.78-.54 5.94-1.68l-3.24-6.42c-1.8.9-2.64.84-2.82.84zm-23.16-15.18c0-4.98-4.02-9-9-9s-9 4.02-9 9 4.02 9 9 9 9-4.02 9-9zm-9 3c-1.68 0-3-1.32-3-3s1.32-3 3-3 3 1.32 3 3-1.32 3-3 3zm53.7 3.66l-5.22-3.96-4.86 6.24c-3.66-2.04-6.24-3.66-6.3-3.72l-4.02 6c.36.24 9.36 5.88 18.06 9.66l2.88-6.6c-1.56-.66-3.18-1.44-4.74-2.22zm-51.66 9l6.66 5.1 8.46-11.1-6.72-5.1zm90.36-31.98l5.94-.18-7.62 9.72 5.58 4.56 8.82-11.28-3.84-3.12 16.26-.54-3.42 5.94L317 43.96l3.6-6.24-11.64-6.48 9.6-.3-.24-7.8-10.8.36c1.74-1.8 2.82-4.2 2.82-6.9 0-5.46-4.44-9.9-9.9-9.9s-9.9 4.44-9.9 9.9c0 2.94 1.26 5.58 3.3 7.38l-10.92.36zm17.28-18.84c1.8 0 3.3 1.5 3.3 3.3 0 1.8-1.5 3.3-3.3 3.3-1.8 0-3.3-1.5-3.3-3.3 0-1.86 1.5-3.3 3.3-3.3zm-30.12 25.62c6.3 0 11.4-5.1 11.4-11.4 0-6.3-5.1-11.4-11.4-11.4-6.3 0-11.4 5.1-11.4 11.4 0 6.3 5.1 11.4 11.4 11.4zm0-15c1.98 0 3.6 1.62 3.6 3.6s-1.62 3.6-3.6 3.6a3.61 3.61 0 0 1-3.6-3.6c0-1.98 1.62-3.6 3.6-3.6zm26.82 39.72c-.06-.06-.18-.3-.3-.72-.36-1.14-.3-3.24-.24-4.74l3-2.4-1.68-2.04c2.52-.12 5.64-.9 9.42-2.28l1.26 1.98 5.52-3.54-5.94-9.54-5.64 3.6 1.14 1.8c-3.72 1.2-5.7 1.38-6.66 1.32.18-.42.42-.96.9-1.62 2.46-3.66 6-7.38 6.06-7.44l-4.74-4.56c-.12.18-3.96 4.2-6.78 8.34-3.48 5.16-2.1 8.22-1.02 9.6.3.36.6.66.9.9l-9.6 7.68 4.56 5.64 2.4-1.92.18 1.02c.84 3.36 2.76 4.86 4.26 5.52.96.42 1.98.66 3.12.66 1.74 0 3.78-.54 5.94-1.68l-3.24-6.42c-1.8.9-2.64.84-2.82.84zm-23.16-15.18c0-4.98-4.02-9-9-9s-9 4.02-9 9 4.02 9 9 9 9-4.02 9-9zm-9 3c-1.68 0-3-1.32-3-3s1.32-3 3-3 3 1.32 3 3-1.32 3-3 3zm53.7 3.66l-5.22-3.96-4.86 6.24c-3.66-2.04-6.24-3.66-6.3-3.72l-4.02 6c.36.24 9.36 5.88 18.06 9.66l2.88-6.6c-1.56-.66-3.18-1.44-4.74-2.22zm-51.66 9l6.66 5.1 8.46-11.1-6.72-5.1zm83.34-31.32c1.2.84 2.7 1.38 4.32 1.38 3.6 0 6.6-2.52 7.32-5.94.6 2.76 1.86 4.92 3.78 6.42 3.66 2.88 10.2 2.1 15.72 1.2l-1.44-7.68c-5.64 1.08-8.82.9-9.42.42-.12-.06-.24-.18-.42-.48l11.7-3.36-2.1-6.9-10.14 2.94c.36-2.58 1.02-4.62 1.02-4.68l-7.56-1.86c-.06.18-1.44 4.8-1.5 9.54-1.14-2.7-3.84-4.62-6.96-4.62-3.72 0-6.84 2.7-7.38 6.3-4.56.9-6.54.6-7.26.36-.54-.18.6-1.68 1.68-3.18 3.54-4.86 8.88-8.22 8.94-8.28l-4.08-6.66c-.24.12-6.66 4.14-11.16 10.32-3.42 4.68-4.14 9-2.04 12.12 3.06 4.5 9.9 4.14 16.98 2.64zm4.32-8.4a2.279 2.279 0 1 1 0 4.56c-1.26 0-2.28-1.02-2.28-2.28-.06-1.26 1.02-2.28 2.28-2.28zm3.9 31.62c.36-1.08 3-10.56-.6-16.56-1.44-2.4-3.72-3.96-6.6-4.5-4.62-.84-9.9.24-12.06.78h-4.86v20.1h7.2V53.5l9.48-.42-.18-4.08-9.3.42v-1.74l9.42-.6-.3-4.08-9.12.54v-1.56c2.22-.54 5.76-1.14 8.4-.54.84.18 1.92.48 2.34 1.14 1.62 2.52.6 8.94-.12 11.34zm5.64-19.5c-.12.6-1.08 6.24-.78 9.9.12 1.38.48 5.58 4.14 8.04 3.78 2.58 8.88 1.86 14.28.18l-2.34-6.84c-5.82 1.86-8.04.9-8.22.78-.06-.06-.12-.06-.18-.18l10.08-3.78-2.46-6.06-7.92 3c.12-1.44.3-2.76.48-3.66zm12.18 20.46c-4.98 0-9.06 4.02-9.12 9.06l-3.42-6.42-6.12 3.3 3.9 7.2 5.7-3.12a9.078 9.078 0 0 0 9.06 8.28c5.04 0 9.12-4.08 9.12-9.12 0-5.1-4.08-9.18-9.12-9.18zm-28.14 6.96c-1.08-3.96-4.68-6.84-8.88-6.84-5.04 0-9.18 4.14-9.18 9.24 0 5.04 4.14 9.18 9.18 9.18s9.12-4.08 9.18-9.18c0-.36 0-.78-.06-1.14l3.54 6.48 6.06-3.42-4.14-7.5zm28.14 5.1c-1.56 0-2.88-1.32-2.88-2.88 0-1.62 1.32-2.94 2.88-2.94 1.62 0 2.88 1.32 2.88 2.94 0 1.56-1.32 2.88-2.88 2.88zm-37.02.18c-1.56 0-2.88-1.32-2.88-2.88 0-1.56 1.26-2.94 2.88-2.94 1.56 0 2.88 1.38 2.88 2.94s-1.32 2.88-2.88 2.88zm83.58-36.24l6.66-.24.54 4.5 7.74-.96-.48-3.78 7.08-.24-.6 3.66 7.68 1.32.9-5.28 6.84-.24-.3-8.4-5.1.18.78-4.68-7.68-1.32-1.08 6.3-9.54.3-.9-6.96-7.74.96.78 6.3-5.88.18zm-5.4-10.68l-6.3 4.44c-4.38-5.34-8.7-8.46-8.94-8.64l-4.92 6.78c.06.06 3.42 2.52 6.96 6.72l-9.12 6.36 4.5 6.36 9.06-6.36c.6 1.02 1.14 2.16 1.62 3.3.66 1.62 1.14 3.36 1.38 5.16-5.04 3.54-11.82 5.58-11.94 5.58l2.16 7.5c.24-.06 4.56-1.32 9.3-3.78-.54 2.7-1.5 5.52-2.82 8.4l7.62 3.48c4.86-10.68 5.58-20.94 2.1-29.52-.72-1.74-1.56-3.42-2.52-4.98l6.3-4.44zm43.38 28.62c-.42-4.8-2.52-8.1-5.7-10.14-6.36-4.08-16.98-3.42-27.42-.72l-3.66-.9c-.06.24-1.92 5.88-1.38 13.86.66 9.9 5.58 14.88 14.22 15.42 1.92.12 4.02.12 6.3-.18 11.64-1.56 18.42-8.28 17.64-17.34zm-15.66 9.54l-.12-4.68 6.3-.72-.78-6.6-5.76.66-.12-4.14c2.52.18 4.74.72 6.3 1.74 1.56 1.02 2.52 2.58 2.7 4.68.48 5.52-4.26 7.92-8.52 9.06zm-15.36-9.6c0-1.5.06-2.82.12-4.02 2.58-.6 5.1-1.14 7.56-1.44l.12 4.56zM431 57.4l6.96-.78.18 4.8c-3.72-.12-5.94-1.44-7.14-4.02zm58.44-14.28c0-4.8-3.9-8.7-8.7-8.7-.54 0-1.08.06-1.56.12.48-2.7 1.2-5.46 1.92-8.04l4.5-.12-2.16 5.04 9.36 4.02 2.58-6.06-7.2-3.06 10.02-.3-.24-7.8-14.46.42c1.14-3.36 2.04-5.58 2.04-5.64l-7.74-3.3c-.18.54-5.28 13.44-7.2 25.08l5.52.96c-2.46 1.56-4.08 4.26-4.08 7.38 0 4.8 3.9 8.7 8.7 8.7 4.8 0 8.7-3.9 8.7-8.7zm19.2-15.36h4.32l-2.46 5.64 8.4 3.66 2.64-6.06-7.44-3.24h8.64v-7.8H511.1c1.08-3.18 1.92-5.28 1.92-5.34l-7.8-3.24c-.18.48-4.62 12.12-6.72 22.5l8.22 1.74c.54-2.58 1.2-5.28 1.92-7.86zm13.5 22.74c-1.38-4.86-4.62-8.58-9.18-10.68-9.66-4.44-21.54-2.82-22.08-2.76l1.2 7.8c2.76-.36 11.4-1.02 17.58 2.1 2.46 1.08 4.38 3.36 5.16 5.88 1.32 4.38-.06 10.44-3.66 16.2l6.48 4.38c4.92-7.74 6.6-16.2 4.5-22.92zm-44.1-7.38c.06-1.5 1.26-2.7 2.7-2.7 1.5 0 2.7 1.2 2.7 2.7 0 1.5-1.2 2.7-2.7 2.7-1.5 0-2.7-1.2-2.7-2.7zm34.5 15c-.18-4.8-2.46-7.44-4.32-8.82-3.36-2.4-9.24-3.54-16.02-1.74l-2.52-1.02c-.12.18-1.92 4.62-2.46 9.72-.48 4.56.66 8.52 3.18 11.04 1.5 1.56 4.14 3.18 8.4 3.18.6 0 1.2 0 1.86-.18 8.4-.84 12.06-6.9 11.88-12.18zm-36.36-3.96c0 .48.66 11.58 4.08 19.74l7.2-3.3c-2.94-6.9-3.54-16.8-3.54-16.86zm23.76 9.12c-2.04.24-3.6-.12-4.5-.96-.18-.18-.36-.42-.48-.72l8.22-1.08-.78-4.5-8.1 1.14v-.18c.06-.84.18-1.74.3-2.52 4.14-.84 8.16-.42 9.48.6.3.24 1.32.96 1.38 3.36.06 2.04-1.38 4.44-5.52 4.86z"/></svg>