<svg viewBox="0 0 448 80" xmlns="http://www.w3.org/2000/svg"><path d="M17.98 33.92h-.48q-.24 0-.24-.42l-.36-9-.06-.12.18-.72.18-.03q.18-.03.18.09l.24-.12q4.44-.18 5.76-.42 1.08.18 2.22.18.72 0 1.44-.18l.24.18q.3-.18.42-.18t.12.18l.54-.18q4.86.18 4.98.3l4.5-.42q.12 0 .12.12l.6-.12q3.96 0 5.7-.12l.72.12q.84 0 3-2.22l.3-.18h.3q.36 0 .36.6 0 .12-.12.12l.12.6v3.06q0 .06-.12.06l.12.36q0 2.1.54 6.78l-.3.12q-.6 0-.78-.12l-5.64.24-1.32-.12q-1.5.24-12.3.42 0 .12-.78.12l-.3-.12q-2.1.48-3.6.48-.12 0-.12-.12l-.3.12q-1.62.12-3.06.12v-.12l-.24.12h-1.02q-1.2 0-1.74.54zm-1.8 24.24h-.42q-.12 0-.21-.33t-.15-.93q.12-1.56.12-1.98l-.12-.96h.12l-.12-.24q0-.66.12-.9-.24-.66-.24-3.3 0-.12.12-.12l-.12-.3.12-1.02-.24-.54q.12-.36.12-.42h.12l2.46.3q1.62 0 7.98-.42 1.56.12 3.84.12 1.8 0 1.8-.24l.66.12h2.1q.18 0 .54.12.24-.12.6-.12t1.92.12l.24-.12q.12 0 .12.12l3.78-.24q.12 0 .36.12l5.04-.36v.12l1.26-.36q.18 0 .18.12 1.74 0 3.9-2.76l.42-.24q.54.18.54.36 0 3.42-.42 4.74 0 .12.12.12l-.12.66q0 .6.12.6l-.12.72q0 .9.12 1.14-.12.36-.12.42l.12.3-.12.24.42 2.58q0 .48-1.56.78h-.84q-.12 0-.12-.12-.66.12-.66.24l-.9-.12q-1.92.24-2.58.24-.24 0-.24-.12l-.36.12h-1.62q-.24 0-.6.12l-.24-.12q-.18.12-.36.12-.24 0-.42-.12l-1.86.3q-.12 0-.12-.18l-8.4.6v-.12q-1.08.36-3.6.36l-.84.12v-.12q-.18.18-2.88.42l-.6-.12-2.4.24q-.12 0-.12-.12-1.44.06-1.44.24l-.9-.12h-2.22q-.3 0-1.08.24zm60.06-22.92q-1.92-.36-1.92-.42l-1.08.12q-1.08 0-2.4-.12H69.7l-.42-1.5q.42-6.24.42-10.32l-.24-3.42.42-.66.96.12 2.4-.12v.12l.24-.12h4.62l2.16.18 4.68-.06.48-.12q-.36-1.56-.99-2.55-.63-.99-1.89-2.49L81.4 12.5v-.3q0-.24 3.36-1.02.42-.06 1.26-.3 0-.42.42-.42h.36q1.56.72 4.5 5.4 0 .06.42.21t1.44 2.01l.24.42.54-.06q1.92 0 4.2.36l1.62.12 9.36.06 3.9.06q.42.3.42.72-2.76 3.72-6.48 9.48-.3.48-1.02 1.59t-1.08 1.47l-1.98 1.98h-.24q-.24-.42-.24-.6 0-4.56-.3-7.08v-1.2q-.12 0-.12.12l-.66-.12h-1.44q-.12 0-.12-.18l-.42.18h-5.4l-1.08.12-.24-.12-2.82.06q-4.32.18-6.96.18l-.3-.12q-.36.12-.72.12-3.48 0-3.48-.24-.78.18-.78 2.76l.12 2.64-.12 1.5.12 1.02q0 1.92-1.44 1.92zM93.1 69.02q-1.44 0-2.94-1.2-2.7-1.68-9.3-4.56-1.38-.96-1.38-1.02 0-.3.3-.3h.72q6.36-1.2 6.36-1.62 0-5.7-.12-8.31-.12-2.61-.42-2.61l-5.7.36-.36-.24-2.7.36q-.6-.12-.72-.12l-.96.12-.6-.36.12-1.38v-3.78l.24-.78 7.86-.72h3.06l-.12-.24v-1.5q0-.72.27-1.38.27-.66.75-1.44.48-.78.78-1.26 1.08-1.38 1.08-1.68l-.36-.12H86.2q-.18 0-.18-.12l-.24.12h-3.24l-.54.24q-.3 0-.51-1.41-.21-1.41-.21-4.05.24-.78.48-.78.6.3.84.3h.78q6.3-.24 10.98-.24 4.56 0 4.56.3v.54q-2.1 3.3-3.9 6.84-.3.54-.96 1.74-.66 1.2-.96 1.5h-.24l.36 1.44-.12.3q0 .9 1.92.9.18 0 .18-.12l1.98.12h2.16q.18 0 .18.18.24 0 .24-.18l1.02.18q.9 0 1.44-.18.6.3 5.64.3.54 0 1.2-.42h.24q.6 0 .84 5.64-.78.6-1.44.6l-1.62-.12q-2.94.06-3.72.3v-.18q-.12 0-.12.18l-3.06-.3-.3.12q-.78-.12-3.36-.12-.54 0-.66.12l-.3-.12-1.32.12-.18.54q-.42 0-.66-.12 0 .12-.18.12l.18.36q0 5.4-.3 9 .12.24.12.48h-.12q.12.54.48 1.14-.36.54-.36 1.14l.18.3q0 .12-.18.12l.36 2.34q0 .3-.18.3l.36 2.82q-.42 1.5-.66 1.5zm64.26-42.66l-.66-.18-2.28.18q-1.32-.3-1.8-.3-.9.3-1.02.3-1.32-.18-1.56-.3l-.78.12q-1.74-.36-3.06-.36l-.42.12q-1.32-.42-1.92-.42h-1.5q-1.38 0-1.92-.3-.12 0-.12.18l-.6-.18q-.24 0-1.74.42-.3-.12-.54-.12.24-1.98.24-7.56 0-.24.42-.24h.24q.24 0 .42.36 5.16-.12 7.86-.12 2.94 0 6.48.54l3.6-.3 3.36.3q.12 0 .12-.12 2.4.18 2.4.6v.24l-.42.54v2.82l-.12.96q0 .18.3 2.1-.24.54-.48.54-.42 0-.42-.54-1.62.24-1.8.3l-.3-.12-1.98.54zm-30.3 38.16q-.24 0-.6-.42v-2.16q5.16-3.36 9.36-9.66 0-.24 1.74-3.42 3.06-7.92 3.9-9.66v-.18q-.12 0-.12-.12l-2.28.42q-.78 0-4.2-.42l-1.62.12q-.48-.12-.6-.12 0 .3-.3.3-.48-.06-.84-.84.36-.9.36-1.5v-2.4q0-.36-.12-.48.18-.84.6-1.38-.12-.12-.12-.36l1.62-.3q.36.12.54.12l.3-.12v.12l.36-.12h1.32l1.62-.24 2.28.24 1.5-.12q.78 0 1.62.12l2.52-.12q1.5 0 2.64.12 1.92-.12 3.84-.12 8.28.54 10.26.54l1.02-.12v.12q.12 0 .12-.12l1.56.12h1.92q1.08 0 1.08-.3 1.38.18 1.38.42 0-.06.24 2.7l.18 1.5-.12 1.8.12.42q-.54.06-.54.3-1.56-.18-1.56-.3-.18 0-.18.12l-1.14-.12q-4.02 0-6 .3l-.24-.18q-1.14.18-1.14.42 0 2.16-.3 2.16.18.24.18.42 0 .24-.18.24.18 1.44.3 1.62l-.12.96q0 7.14 5.16 10.92 1.5.78 4.74 1.26l.48-.18v.18l.42-.18q.12 0 .12.18 4.68-.72 4.68-1.86l.36-.18q.6 0 .6.3-.24 1.38-.24 1.74l.9 5.7h-.18q-2.16.72-4.56.72-6.12 0-12.18-2.64-3.66-1.5-5.7-5.52-1.98-5.4-1.98-7.5.18-3.66.36-6t.42-2.34q-.9 0-1.26-.12-1.92 0-1.92 1.14-2.28 7.02-3.12 7.68-.84 2.76-5.16 8.16-3.54 3.66-5.34 4.5-1.86 1.98-7.38 3.3 0 .24-1.38.42zm90.6-29.46h-.54q-.3 0-1.02-3.36-1.14-3.36-3.24-7.68-.54-.54-1.14-.78v-.78q0-.12.63-.42t1.77-.66l1.56-1.02q1.02-.66 1.65-.99.63-.33.75-.15l.6.9q1.98 2.46 3.03 4.86 1.05 2.4 2.07 5.64.18.3.18.84 0 .24-2.64 1.5 0 .12-3.42 1.86 0 .24-.24.24zm7.56-6.66v-.72q.6-.3 1.68-.72l3.9-1.68h.3q1.26 1.38 3.42 5.7l1.68 4.56q1.56 4.38 1.56 4.5h-1.02q-1.38.3-2.88.78-1.5.48-2.1.78-.12.3-1.02.54l-1.38-6.84q-1.98-3.72-4.14-6.9zm-35.7 25.44q-1.38 0-1.56-.9-.54-.96-2.46-2.76l-1.74-1.74q-.6-.24-.6-.9 4.26-3.42 6.54-6.96 2.4-3.48 3.42-8.04.3-1.38.27-2.07-.03-.69-.03-.81l.18-.78.24-.12h.12q.78.24 1.98.87t1.62.87q1.62.96 2.46 1.32.6.24.6.48-.9 6.42-2.58 9.96-.3.72-1.62 2.22-1.86 2.22-2.52 3.48-1.08 1.62-3.9 4.98 0 .9-.42.9zm31.2 3.12h-1.98q-4.5 0-8.16-2.04-1.56-.42-2.64-1.2t-2.52-2.22q-.84-.84-1.41-3.3t-1.71-8.82q.42-1.86.48-4.56-.12-.24-.12-.78h.12l-.12-.3v-1.56q0-.36-.12-.6.18-1.26.24-2.82l1.02.3q.66.06 1.62.3.3.06.66.12.36.06.84.06.78 0 2.22-.24 1.32.12 2.13.24.81.12.81.3l.12.24q-.24.36-.48 3.84.18.24.18.42l-.18.72q.18.78.18 1.8 0 .6-.18.6l.18.6v1.5l.06.84-.06.18q0 .84.06 1.2t.36 1.02l.54 1.5q1.98 3.42 4.26 3.42 0 .54 2.64.78h1.5q.96 0 2.25-.45t3.33-1.47q1.02-.72 1.74-1.14.72-.36 1.08-.6l.54 1.38q0 1.14.54 2.82t1.5 2.82v.24q-.06 0-1.92 1.56-4.44 3-6.06 3 0 .12-.9.12-1.44 0-2.64.18zm78.06-13.86q.48.3.48.42l-.48 5.34-7.56.78v-.12l-.54.12q.06.36.06 1.02 0 .9-.18 1.83t-.18 1.35q-.12 1.08-.24 1.68-.24 2.16-.54 3.69-.3 1.53-.96 2.85-.36 1.44-.72 1.44-.24 0-.6-.12-.18.78-.9.84-.6.12-2.46-1.5-.18 0-1.02-.57-.84-.57-1.98-1.41-.48 0-1.32-.72 0-.6 1.26-.6h2.64q.72-5.46.6-9.06-.3 0-.72.3-.72 0-.96-.06t-.3-.18q-.18 0-.06.12l-1.8-.06q-1.2.12-2.1.42-.12-.36-.36-.3 0-.24.18-.66l-.06-1.5q0-2.7-.18-3.42-.06-.6.24-.6l.66.12q1.08-.06 4.02.24 1.32-.36 1.26-.6-.06-.72-.12-.78l.06-.06q-.12-.18-.42-1.86.36 0 1.17-1.11.81-1.11 1.47-2.85-.9.06-.9-.06l-.78.12q-2.1.12-3 .36-.84-.24-.84-.66.24-2.22.24-4.32-1.38 2.1-1.68 2.34l-.12.42h-.12q-.36-.12-.75-.18t-.69-.12q-3.24-.6-3.24-1.08 0-.24.72-1.53t2.1-3.27q1.2-4.26 1.44-6.84.78-3.48 1.08-7.5.24-.6.48-.6.42.24 3.24.24h1.86l.24.48q0 .48-.78 2.76l.12.3q-.18.48-.54 3.48l.42.18q1.14 0 2.82-.3 1.44.06 1.44.3.18 0 .18-.18l2.28.24q2.1-.12 2.91-.27.81-.15 1.77-.45h.84l-.06 1.56q-.12 1.8-.12 3 0 .36-.24.6-.24 0-1.11.18-.87.18-1.65.18-1.86-.24-2.4-.18l-3.48.12q-.36 0-.54.18-.12 0-.12-.12l-1.5.12-1.2.06-.96-.06q-.3.18-.42.6t-.18.9q-.12 1.26-.6 2.22l-1.14 1.74h2.7q1.08 0 1.38.18.48-.24 4.26-.42 2.1.06 2.28.24l.18-.12q1.38.18 1.38.54 0 .36-1.8 3.24l-1.98 4.98.18.72-.06-.06q.18.6.18 1.02h-.12l.12.3v.78l1.8.06q.12 0 .12.18 4.32-.78 5.82-.78.18 0 .84-.24v.18l.36-.18zM245.86 20q-.24.18-.42.18l-.42-.96q.3-.42 2.88-3.12 1.92.18 8.04 7.62v.24q-2.46 2.82-3 3.66h-.24q-.24 0-1.86-2.64-2.46-3.54-4.98-4.98zm19.5 5.76q-.48-2.04-4.2-6.48l-.12-.6q.24-.48 1.86-1.86h.48l6.96 4.68q.6.78.66 1.32-3.78 2.28-4.26 3.54h-.42l-.54-.66-.42.06zm10.32 16.44q0 2.88-.66 7.32.06 1.32-1.68 6.3h-.24q-.42 0-2.76-1.44-3.66-1.08-3.66-1.86v-.24q3.24-1.02 3.24-1.26l-.06-1.74q.12-4.98.36-6.78l-.18-.3v-1.02q-1.08-.24-2.64-.36l-.36 1.74q-.48 2.28-.87 3.72-.39 1.44-1.11 2.82-.54.78-1.5 2.76-2.22 3.48-4.2 5.16-4.32-1.5-5.04-1.5.24-.54.6-1.08t.6-.96q.18-.66 1.38-2.28 1.8-2.58 2.46-4.08l2.04-6.9 1.02-6.72q-.24 0-.96.18v-.18l-.24.18-.42.06-.3-.18-.24.36-.84-.12-1.68.24q-.12-.48-.24-.48.24-2.28.3-6.3.24 0 .42-.12l1.02.12 4.14-.24.42-.3.06.24.18-.24 3.48-.12q.54 0 .54.24l.66-.3 4.92-.18q.18 0 .36-.42l.9.12v.48q-.36.54-.36 2.4 0 .9.42 3-.18 1.14-.54 1.14l-.9-.06q-1.8.36-3.18.36-.12 0-.12-.18l-.36.18q-.12 0-.12-.06-.12 0-.12.12-.72-.12-1.74-.12l-.06 2.34q.18-.06 1.02-.06 1.32 0 2.28.06l.54-.12q3.42.18 3.42.84.36 1.8.36 2.34h-.18q.42.12.42 3.48zm-24.78-5.28q-.48-1.5-5.64-5.04-.36 0-1.8-1.08v-.72q.96-1.44 2.88-3 .6 0 6.06 5.1 1.68.96 2.64 2.58 0 .3-.99 1.2-.99.9-2.13 1.56h-.18q-.48 0-.84-.6zm8.28 5.46v.24q0 .96-.84 1.32l-2.82 3.18-1.68 1.98q-1.98 2.76-3 5.34l-.66 1.2.18.36q-.48.96-.84 2.7-.3.24-.54.24-2.4-.84-4.2-1.71-1.8-.87-1.8-1.05v-.3q.42-.48 1.38-3.78l2.64-4.38q2.82-3.6 5.34-5.46 1.5-1.32 4.62-3.06h.3q.12 0 1.38 2.34.18 0 .54.54v.3zm30.6-.48l-.06-.06.06.06zm-6.06 1.74q.06-.06.06-.18t.06-.06l-.12.24zm0 0zm28.38-3.48l.42-.12q1.68.3 3.06.3h3.12q.6 0 2.46-.18l3.3.18.3-.06.24.06q.12 0 .12-.06l.54.06q1.5 0 1.5-.3V38.6q0-.12.06-.12-.36-1.44-.36-3.6 0-.3-.24-.3-1.56 0-5.82.42-.6 0-2.52-.12-.96.12-1.92.12l-.42-.12q-.36.12-.48.12v-.12q-.3 0-.84.6l-.24-.3q-.12-.12-.18-.12t-.06-.06v-3.84l.12-.72q-.12-.36-.12-1.08 0-.6.6-.66l-.12-.24q0-.3.36-.3 2.46 0 5.58-.42.24.12.48.12l.6-.12v.12q.12 0 .12-.12 3.36.54 3.72.54l.72-.12v.12l.3-.12q.48 0 1.08.12 0-1.74.18-2.52l-.42-2.28q.12 0 .12-.18-1.62 0-2.88.18v-.18l-.24.18h-8.52q-.42.42-.84.42-.24-.48-.6-4.32-.12 0-.12-.66.24 0 .48-.12l1.62.12q3.36 0 7.5-.9 1.74.24 10.62-2.46 3.6-1.14 5.4-1.86 1.8-.72 2.1-1.26 1.32 1.14 3.66 6 .18 0 .48.72v.12q-.6.9-2.88 1.68-2.82.84-6.9 1.56-1.2.3-1.2.96-.36.9-.36 2.16l.3.84v.42l2.58-.3.3.18q1.68-.3 5.7-.42v.12q.18 0 .18-.12 1.08.12 1.68.12l1.2 5.1q0 1.5-.84 1.5 0 .18-2.88.36-.12 0-.12-.12l-.9.12q-.78 0-2.82-.12l-.36.12-.24-.12q-.18 0-.18.12l-.54.48q-.54 0-2.58-.12 0 .12-.12.12.06 3.24.54 4.74-.12.36-.12.96l1.2.12h2.76q.18 0 .42.12.84-.24 1.14-.24v.12q.42-.24 2.22-.24.48 0 1.44.12l.24-.12q.42.24.9.24l.96-.12q.3 0 .54.12 1.62 0 3.48-.66.9-.3 1.38-.3l1.08 2.28-.12 1.56q.12 1.2.12 2.52 0 .36-.3.36h-.24q-.78.36-2.1.72l-.84-.18q-2.4.54-2.82.54-2.28 0-8.94-.54-.84 0-1.2-.18-.18.18-.42.18l-.3-.18q-.42.3-1.08.36 0 2.76-.18 4.2.18 1.08.18 1.62 0 .72-.18 1.8.18 5.46.36 8.46h-.12l.12.24v1.62q-1.08 1.02-1.08 2.4h-.24q-1.44 0-3.96-2.4-.18 0-1.41-1.08t-3.03-2.7q-1.98-1.44-2.76-2.28v-.3q.42 0 .42-.18l.66.18h1.26q1.5-.3 2.64-.3l.12-.96q0-.96-.3-1.68 0-.18.18-.42-.3-3-.3-4.74l.12-2.76-5.16-.3q-1.08.12-1.62.12v-.12q-.12 0-.12.12l-1.98-.12-1.14.12q-.36-.12-.66-.12l-.42.12q-.12 0-.12-.12-1.32.06-1.74.3-.18 0-.18-.18-1.26.06-1.26.48h-.42q-.24 0-.24-.24 0-.6.24-1.38l-.12-1.08.12-.54q-.12-.24-.12-.54h.12l-.66-3.3zm58.62-2.4q0-.18-.57-.57-.57-.39-.69-.51-.3-.18-.66-.3l-.72-.24q-2.4-.84-4.62-1.86l-.78-.96q6.72-12.42 8.28-14.76l2.16-4.32.72-.72.3-.12q3.06 1.5 4.38 3.12l-.24 1.08-5.52 12.3q.18.12.87.6t1.71.9l2.16-2.76q.66-1.32 1.11-2.01.45-.69.57-.69h.36q1.38 1.5 3.48 3.54v.3q-1.14 1.5-4.56 7.26l-3.96 6.6h2.7q1.32 0 1.92-.06v.18l-.12 1.2.12.3-.12 1.62v1.5l-.3.12q-.96.12-1.38.12-3.96.42-7.47.72t-5.07.3l-.12-.36q.96-3.12 6.06-11.52zm46.92-6.66q.24.06.54 1.26l-1.38 2.82-1.62 3.3h-.6q-12.3-5.64-15.3-8.34-.24 0-1.29-.72t-2.67-2.1q-.12 0-.78 1.02-1.2 1.98-3.06 4.14-.24 0-4.86 4.92-1.38 1.38-2.64 2.28h-.66q-.06-.12-.45-.69t-.69-1.05q-1.2-1.56-1.62-2.34v-.12q1.02-1.44 2.4-2.91 1.38-1.47 1.62-1.77 1.98-2.22 3.09-3.51 1.11-1.29 2.01-2.85 2.28-3.06 3.48-5.37 1.2-2.31 2.16-4.77 0-.6.3-.6 2.94 2.58 4.62 3.18.24.3.24.72-1.2 3.66-1.2 5.04 5.64 4.44 9.78 5.7.42.18 2.34.72.66.24 1.71.54 1.05.3 2.67.84l1.86.66zm-28.68 9l-.24-.78h.24l-.24-.3V36.2q.06-.24.36-.24h4.38q4.62-.36 6.48-.36.3 0 .3.12l.36-.12h1.2q.24 0 .51 1.29t.51 3.63q.24.06.24.42 0 .3-.24.3-1.14 0-1.5-.12l-.72.12h-1.2q-.12 0-.12-.12l-.36.12h-3.42q-.3 0-.78-.12-1.68.36-5.52.6l-.24-.48V40.1zm13.26 11.22q0-.24.75-.51t2.49-.63q1.32.3 8.52 7.5-.06.18-.96 1.05-.9.87-2.22 2.07l-2.28 2.04-1.02-.84q-.54-.48-.9-.72t-.6-.3l-.24-.18q-.24 0-.6.18l-3.84.78q-7.08 1.14-7.98 1.14l-4.92.3.42-1.5q.18-.6 1.35-4.95 1.17-4.35 2.37-7.23v-.12l-7.26.12q0-.36-.42-.36v-4.68h.36v-.12q.06-.24.3-.24 2.4 0 5.28-.24 1.56.12 2.52.12 1.08 0 3.54-.3l.72.18.3-.18q.24 0 .24.18 1.74-.3 8.64-.72 0-.3 2.1-.36.18.12.3 2.4-.12 1.2-.12 2.88-.24.06-3.96.36-1.86.18-7.08.6-.06.3-.09.39-.03.09-.03.39-1.02 3.84-1.02 5.16v1.74h1.02q1.14 0 2.34-.27t3.3-.87q0-.3-.42-1.44-.78-2.16-.9-2.58v-.24zm-21.18 3.06q.24 0 .24 1.2l-.36.18-6.72 4.62-2.28 1.14q-2.7 1.38-4.26 2.1 0 .24-.42.24h-.3q-.36 0-1.32-3.48-1.02-1.56-1.02-2.94 10.2-4.26 14.16-6.66h.9q.18.48.66 1.44.72 1.44.72 2.16z"/></svg>