<svg viewBox="0 0 606 80" xmlns="http://www.w3.org/2000/svg"><path d="M54.24 56h-5.52l-2.04-12.42H28.2L21.12 56h-5.88l24.12-41.64h7.32L54.24 56zm-12.3-36.54L30.78 39.02H45.9l-3.24-19.56h-.72zm23.94 36.9q-3.54 0-4.92-1.53t-1.38-4.23q0-1.56.42-4.32.42-2.76 1.35-7.35.93-4.59 2.43-11.58T67.5 10.4h5.16q-2.22 9.96-3.75 16.98-1.53 7.02-2.43 11.58-.9 4.56-1.29 7.14t-.39 3.66q0 1.5.63 1.95.63.45 1.83.45 1.08 0 1.98-.3L68.4 56q-1.26.36-2.52.36zm18.24-38.64q-1.56 0-2.16-.36-.6-.36-.6-1.5 0-1.02.27-2.07.27-1.05.81-1.59.42-.42 1.08-.54.66-.12 1.5-.12 1.74 0 2.25.45t.51 1.53q0 1.02-.27 2.13-.27 1.11-.75 1.47-.42.36-1.11.48-.69.12-1.53.12zM79.5 56h-5.16l6.24-32.4h5.16L79.5 56zm21.96.6q-7.8 0-11.28-6.72.6-3.18 1.47-7.35t1.83-8.7q.96-4.53 1.92-8.94.96-4.41 1.77-8.19l1.35-6.3h5.16q-.42 1.74-.99 4.23-.57 2.49-1.23 5.34-.66 2.85-1.32 5.67t-1.2 5.16h.36q1.08-2.04 2.43-3.81t3.33-2.88q1.98-1.11 4.8-1.11 4.26 0 6.87 2.58 2.61 2.58 2.61 8.16 0 4.14-1.11 8.22-1.11 4.08-3.36 7.38t-5.61 5.28q-3.36 1.98-7.8 1.98zm.24-4.32q3 0 5.31-1.56 2.31-1.56 3.9-4.14 1.59-2.58 2.4-5.76.81-3.18.81-6.42 0-3.12-1.11-5.1-1.11-1.98-4.23-1.98-2.28 0-4.29 1.71-2.01 1.71-3.6 4.38-1.59 2.67-2.76 5.64-1.17 2.97-1.77 5.55-.6 2.58-.6 4.02.12.66.69 1.53t1.83 1.5q1.26.63 3.42.63zm33.06 4.32q-4.5 0-7.17-2.61t-2.67-8.25q0-4.14 1.11-8.19t3.36-7.32q2.25-3.27 5.67-5.25t7.98-1.98q4.26 0 6.9 1.74 2.64 1.74 3.48 3.72l.36.84q-1.86 8.28-2.79 13.11-.93 4.83-.93 6.93 0 1.62.57 2.25.57.63 1.71.63.66 0 1.2-.06.54-.06 1.14-.24l-.9 4.08q-1.26.36-2.7.36-3.18 0-4.44-1.44-1.26-1.44-1.26-3.84 0-.96.18-1.92t.36-1.8h-.36q-.84 2.22-2.34 4.35-1.5 2.13-3.6 3.51t-4.86 1.38zm.48-4.32q2.34 0 4.38-1.71t3.69-4.38q1.65-2.67 2.79-5.64 1.14-2.97 1.77-5.55.63-2.58.63-4.02-.12-.72-.69-1.59-.57-.87-1.86-1.5t-3.57-.63q-2.94 0-5.22 1.56t-3.84 4.14q-1.56 2.58-2.37 5.76-.81 3.18-.81 6.42 0 3.12 1.11 5.13t3.99 2.01zm36.24 4.32q-7.8 0-11.28-6.72.6-3.18 1.47-7.35t1.83-8.7q.96-4.53 1.92-8.94.96-4.41 1.77-8.19l1.35-6.3h5.16q-.42 1.74-.99 4.23-.57 2.49-1.23 5.34-.66 2.85-1.32 5.67t-1.2 5.16h.36q1.08-2.04 2.43-3.81t3.33-2.88q1.98-1.11 4.8-1.11 4.26 0 6.87 2.58 2.61 2.58 2.61 8.16 0 4.14-1.11 8.22-1.11 4.08-3.36 7.38t-5.61 5.28q-3.36 1.98-7.8 1.98zm.24-4.32q3 0 5.31-1.56 2.31-1.56 3.9-4.14 1.59-2.58 2.4-5.76.81-3.18.81-6.42 0-3.12-1.11-5.1-1.11-1.98-4.23-1.98-2.28 0-4.29 1.71-2.01 1.71-3.6 4.38-1.59 2.67-2.76 5.64-1.17 2.97-1.77 5.55-.6 2.58-.6 4.02.12.66.69 1.53t1.83 1.5q1.26.63 3.42.63zm33.06 4.32q-4.5 0-7.17-2.61t-2.67-8.25q0-4.14 1.11-8.19t3.36-7.32q2.25-3.27 5.67-5.25t7.98-1.98q4.26 0 6.9 1.74 2.64 1.74 3.48 3.72l.36.84q-1.86 8.28-2.79 13.11-.93 4.83-.93 6.93 0 1.62.57 2.25.57.63 1.71.63.66 0 1.2-.06.54-.06 1.14-.24l-.9 4.08q-1.26.36-2.7.36-3.18 0-4.44-1.44-1.26-1.44-1.26-3.84 0-.96.18-1.92t.36-1.8h-.36q-.84 2.22-2.34 4.35-1.5 2.13-3.6 3.51t-4.86 1.38zm.48-4.32q2.34 0 4.38-1.71t3.69-4.38q1.65-2.67 2.79-5.64 1.14-2.97 1.77-5.55.63-2.58.63-4.02-.12-.72-.69-1.59-.57-.87-1.86-1.5t-3.57-.63q-2.94 0-5.22 1.56t-3.84 4.14q-1.56 2.58-2.37 5.76-.81 3.18-.81 6.42 0 3.12 1.11 5.13t3.99 2.01zm51.12 4.32q-3.84 0-7.41-.51-3.57-.51-5.49-1.11l.96-4.92q2.1.72 5.34 1.29 3.24.57 6.96.57 3.06 0 5.43-.66 2.37-.66 3.69-2.46 1.32-1.8 1.32-5.16 0-1.98-.78-3.18-.78-1.2-2.61-2.16-1.83-.96-4.95-2.1-3.42-1.26-5.52-2.43-2.1-1.17-3.03-2.82-.93-1.65-.93-4.17 0-4.92 1.92-7.74 1.92-2.82 5.43-4.05t8.13-1.23q3.06 0 6 .45t4.44 1.05l-.96 4.8q-1.68-.66-4.35-1.17-2.67-.51-5.49-.51-3 0-5.22.6-2.22.6-3.42 2.19-1.2 1.59-1.2 4.65 0 1.62.66 2.61.66.99 2.28 1.8 1.62.81 4.56 1.89 3.72 1.38 6 2.7 2.28 1.32 3.33 3.21 1.05 1.89 1.05 5.01 0 7.02-3.99 10.29-3.99 3.27-12.15 3.27zm32.7 0q-4.5 0-7.17-2.61t-2.67-8.25q0-4.14 1.11-8.19t3.36-7.32q2.25-3.27 5.67-5.25t7.98-1.98q4.26 0 6.9 1.74 2.64 1.74 3.48 3.72l.36.84q-1.86 8.28-2.79 13.11-.93 4.83-.93 6.93 0 1.62.57 2.25.57.63 1.71.63.66 0 1.2-.06.54-.06 1.14-.24l-.9 4.08q-1.26.36-2.7.36-3.18 0-4.44-1.44-1.26-1.44-1.26-3.84 0-.96.18-1.92t.36-1.8h-.36q-.84 2.22-2.34 4.35-1.5 2.13-3.6 3.51t-4.86 1.38zm.48-4.32q2.34 0 4.38-1.71t3.69-4.38q1.65-2.67 2.79-5.64 1.14-2.97 1.77-5.55.63-2.58.63-4.02-.12-.72-.69-1.59-.57-.87-1.86-1.5t-3.57-.63q-2.94 0-5.22 1.56t-3.84 4.14q-1.56 2.58-2.37 5.76-.81 3.18-.81 6.42 0 3.12 1.11 5.13t3.99 2.01zM334.02 23q4.2 0 6.42 2.22 2.22 2.22 2.22 5.82 0 .72-.12 1.74t-.3 1.86L338.1 56h-5.16l3.84-19.74q.18-.84.39-2.16.21-1.32.21-2.04 0-2.22-1.14-3.51-1.14-1.29-3.78-1.29-2.94 0-5.46 1.65t-3.84 4.77L318.84 56h-5.16l6.24-32.4h5.16l-.9 4.68q1.38-2.64 3.93-3.96 2.55-1.32 5.91-1.32zm20.4 33.36q-2.04 0-4.65-.3-2.61-.3-4.17-.72l.54-4.5q1.86.54 4.02.9 2.16.36 4.14.36 3.18 0 4.89-1.23 1.71-1.23 1.71-4.11 0-1.2-.36-2.04-.36-.84-1.29-1.68t-2.79-1.98q-2.22-1.38-3.66-2.52-1.44-1.14-2.1-2.49-.66-1.35-.66-3.39 0-5.16 3.24-7.41t8.4-2.25q2.1 0 4.29.3t3.15.78l-.9 4.26q-1.14-.48-2.97-.84-1.83-.36-3.81-.36-3.36 0-4.98 1.14-1.62 1.14-1.62 3.84 0 1.02.33 1.77t1.29 1.5q.96.75 2.82 1.89 2.4 1.44 3.81 2.67 1.41 1.23 2.04 2.73.63 1.5.63 3.78 0 5.1-3.06 7.5-3.06 2.4-8.28 2.4zM419.1 27.5q-1.08 5.28-3.69 7.8-2.61 2.52-7.23 3.36L417.66 56h-6.18l-8.64-16.86h-7.08L392.52 56h-5.34l8.04-41.64h10.2q7.56 0 10.83 2.16 3.27 2.16 3.27 7.02 0 .84-.09 1.83-.09.99-.33 2.13zm-5.28-.54q.12-.66.18-1.32t.06-1.14q0-3.36-2.34-4.44-2.34-1.08-7.44-1.08h-4.56l-3.12 15.78h4.68q3.96 0 6.48-.54 2.52-.54 3.96-2.22 1.44-1.68 2.1-5.04zm36.36 3.36q0 6.12-5.58 9.09-5.58 2.97-16.2 4.23v.72q0 4.38 2.28 6.15 2.28 1.77 6.12 1.77 1.5 0 3.24-.33 1.74-.33 3.3-.9 1.56-.57 2.52-1.23l-.66 4.5q-1.38.9-3.99 1.59-2.61.69-5.19.69-3.54 0-6.42-1.17t-4.59-3.75q-1.71-2.58-1.71-6.96 0-4.44 1.41-8.37 1.41-3.93 3.87-6.93 2.46-3 5.73-4.71Q437.58 23 441.3 23t6.3 1.68q2.58 1.68 2.58 5.64zm-9.12-3.06q-4.32 0-7.65 3.24t-4.53 8.82q6.42-.6 10.02-1.89 3.6-1.29 5.07-3.03 1.47-1.74 1.47-3.72 0-1.8-1.29-2.61-1.29-.81-3.09-.81zM461.64 68q-2.16 0-4.41-.24t-3.69-.54l.78-4.5q1.74.42 3.51.66 1.77.24 3.87.24 4.2 0 6.51-1.29 2.31-1.29 3.51-3.84 1.2-2.55 2.04-6.33l1.08-4.8h-.36q-.84 2.22-2.37 4.32-1.53 2.1-3.63 3.48-2.1 1.38-4.86 1.38-4.5 0-7.17-2.61t-2.67-8.25q0-4.14 1.11-8.16 1.11-4.02 3.36-7.32 2.25-3.3 5.67-5.25Q467.34 23 471.9 23q2.82 0 4.89.84t3.45 2.1q1.38 1.26 2.04 2.52l.48.9-4.32 23.28q-.6 3.36-1.68 6.18t-2.91 4.86q-1.83 2.04-4.8 3.18-2.97 1.14-7.41 1.14zm2.46-15.72q2.34 0 4.38-1.71t3.69-4.38q1.65-2.67 2.79-5.64 1.14-2.97 1.77-5.55.63-2.58.63-4.02-.12-.72-.69-1.59-.57-.87-1.83-1.5-1.26-.63-3.6-.63-2.94 0-5.22 1.56t-3.84 4.14q-1.56 2.58-2.37 5.76-.81 3.18-.81 6.42 0 3.12 1.11 5.13t3.99 2.01zm43.5-6.3l4.32-22.38h5.16L510.84 56h-5.16l.9-4.74q-1.5 2.64-3.84 3.99t-5.76 1.35q-4.2 0-6.42-2.22-2.22-2.22-2.22-5.82 0-1.74.42-3.72l4.14-21.24h5.16l-3.84 19.62q-.18.9-.39 2.25-.21 1.35-.21 2.07 0 2.22 1.14 3.45t3.72 1.23q3 0 5.52-1.59 2.52-1.59 3.6-4.65zm20.52 10.38q-3.54 0-4.92-1.53t-1.38-4.23q0-1.56.42-4.32.42-2.76 1.35-7.35.93-4.59 2.43-11.58t3.72-16.95h5.16q-2.22 9.96-3.75 16.98-1.53 7.02-2.43 11.58-.9 4.56-1.29 7.14t-.39 3.66q0 1.5.63 1.95.63.45 1.83.45 1.08 0 1.98-.3l-.84 4.14q-1.26.36-2.52.36zm19.26.24q-4.5 0-7.17-2.61t-2.67-8.25q0-4.14 1.11-8.19t3.36-7.32q2.25-3.27 5.67-5.25t7.98-1.98q4.26 0 6.9 1.74 2.64 1.74 3.48 3.72l.36.84q-1.86 8.28-2.79 13.11-.93 4.83-.93 6.93 0 1.62.57 2.25.57.63 1.71.63.66 0 1.2-.06.54-.06 1.14-.24l-.9 4.08q-1.26.36-2.7.36-3.18 0-4.44-1.44-1.26-1.44-1.26-3.84 0-.96.18-1.92t.36-1.8h-.36q-.84 2.22-2.34 4.35-1.5 2.13-3.6 3.51t-4.86 1.38zm.48-4.32q2.34 0 4.38-1.71t3.69-4.38q1.65-2.67 2.79-5.64 1.14-2.97 1.77-5.55.63-2.58.63-4.02-.12-.72-.69-1.59-.57-.87-1.86-1.5t-3.57-.63q-2.94 0-5.22 1.56t-3.84 4.14q-1.56 2.58-2.37 5.76-.81 3.18-.81 6.42 0 3.12 1.11 5.13t3.99 2.01zM592.92 23h.6l-1.14 4.68h-.78q-3.12 0-6 1.71t-4.38 5.43L577.14 56h-5.16l6.24-32.4h5.16l-1.14 5.94q1.38-2.76 3.12-4.14 1.74-1.38 3.66-1.89 1.92-.51 3.9-.51z"/></svg>