<svg viewBox="0 0 624 80" xmlns="http://www.w3.org/2000/svg"><path d="M48.12 62h7.98l-6.78-41.64H39L15.12 62h8.34l6.12-11.1h16.98zM32.94 44.84l9.66-17.58h.72l2.4 17.58zm35.22 17.52c.96 0 2.1-.12 3-.36l1.2-5.58c-.54.18-1.14.24-1.74.24-1.5 0-2.28-.48-2.28-2.16 0-2.58 1.5-10.56 7.5-38.1h-7.2c-5.22 23.7-7.68 35.34-7.68 39.6 0 4.5 2.46 6.36 7.2 6.36zM87 24.8c1.5 0 2.88-.18 3.54-.72.84-.66 1.38-2.94 1.38-4.74 0-1.86-.66-2.52-3.66-2.52-1.5 0-2.76.18-3.42.84-.96.96-1.38 3.06-1.38 4.74 0 1.98.9 2.4 3.54 2.4zM76.44 62h7.2l6.24-32.4h-7.2zm28.8.6c13.08 0 18.9-11.76 18.9-23.04 0-7.02-3.42-10.56-9.6-10.56-4.92 0-8.1 3.06-10.14 6.72h-.36c1.5-6.48 3.48-14.52 4.74-19.32h-7.2c-2.4 10.5-6.18 28.02-8.4 39.66 2.28 4.08 6.48 6.54 12.06 6.54zm.36-5.82c-3.18 0-4.38-1.68-4.62-2.94 0-4.92 4.92-19.08 11.64-19.08 3.3 0 4.26 2.1 4.26 5.76 0 7.08-3.42 16.26-11.28 16.26zm32.88 5.82c5.88 0 8.88-4.08 10.62-8.28h.36c-.24 1.02-.42 2.04-.42 3 0 3.06 1.32 5.04 5.58 5.04 1.5 0 2.7-.18 3.78-.48l1.14-5.4c-.78.24-1.38.3-2.16.3-1.38 0-1.98-.54-1.98-2.28 0-2.76 1.68-10.38 3.78-19.5l-.42-.72c-1.8-2.7-5.82-5.28-11.52-5.28-12.6 0-18.54 11.64-18.54 22.68 0 7.56 3.66 10.92 9.78 10.92zm1.68-5.76c-3.12 0-4.2-2.46-4.2-6.18 0-7.74 4.02-15.96 10.74-15.96 3.36 0 4.86 1.74 5.16 2.94 0 4.86-5.04 19.2-11.7 19.2zm36.24 5.76c13.08 0 18.9-11.76 18.9-23.04 0-7.02-3.42-10.56-9.6-10.56-4.92 0-8.1 3.06-10.14 6.72h-.36c1.5-6.48 3.48-14.52 4.74-19.32h-7.2c-2.4 10.5-6.18 28.02-8.4 39.66 2.28 4.08 6.48 6.54 12.06 6.54zm.36-5.82c-3.18 0-4.38-1.68-4.62-2.94 0-4.92 4.92-19.08 11.64-19.08 3.3 0 4.26 2.1 4.26 5.76 0 7.08-3.42 16.26-11.28 16.26zm32.88 5.82c5.88 0 8.88-4.08 10.62-8.28h.36c-.24 1.02-.42 2.04-.42 3 0 3.06 1.32 5.04 5.58 5.04 1.5 0 2.7-.18 3.78-.48l1.14-5.4c-.78.24-1.38.3-2.16.3-1.38 0-1.98-.54-1.98-2.28 0-2.76 1.68-10.38 3.78-19.5l-.42-.72c-1.8-2.7-5.82-5.28-11.52-5.28-12.6 0-18.54 11.64-18.54 22.68 0 7.56 3.66 10.92 9.78 10.92zm1.68-5.76c-3.12 0-4.2-2.46-4.2-6.18 0-7.74 4.02-15.96 10.74-15.96 3.36 0 4.86 1.74 5.16 2.94 0 4.86-5.04 19.2-11.7 19.2zm50.04 5.76c11.64 0 17.16-3.84 17.16-13.92 0-5.64-2.4-7.86-9.84-10.98-5.52-2.28-6.6-3-6.6-5.7 0-4.8 3-6 8.16-6 3.72 0 7.98.84 9.96 1.62l1.26-6.36c-2.04-.78-6.36-1.5-10.86-1.5-10.14 0-16.02 3.3-16.02 13.62 0 5.1 2.58 6.96 9.18 9.66 5.52 2.28 7.2 3.42 7.2 6.6 0 5.28-3.54 6.54-9.18 6.54-4.38 0-8.94-.84-11.64-1.74l-1.26 6.66c2.58.72 7.8 1.5 12.48 1.5zm32.7 0c5.88 0 8.88-4.08 10.62-8.28h.36c-.24 1.02-.42 2.04-.42 3 0 3.06 1.32 5.04 5.58 5.04 1.5 0 2.7-.18 3.78-.48l1.14-5.4c-.78.24-1.38.3-2.16.3-1.38 0-1.98-.54-1.98-2.28 0-2.76 1.68-10.38 3.78-19.5l-.42-.72c-1.8-2.7-5.82-5.28-11.52-5.28-12.6 0-18.54 11.64-18.54 22.68 0 7.56 3.66 10.92 9.78 10.92zm1.68-5.76c-3.12 0-4.2-2.46-4.2-6.18 0-7.74 4.02-15.96 10.74-15.96 3.36 0 4.86 1.74 5.16 2.94 0 4.86-5.04 19.2-11.7 19.2zM341.16 29c-4.44 0-7.68 1.8-9.72 4.98l.84-4.38h-7.2L318.84 62h7.2l4.2-21.66c1.44-3.48 4.44-5.64 7.98-5.64 2.88 0 4.26 1.38 4.26 4.08 0 .84-.24 2.52-.48 3.6L338.16 62h7.2l4.08-21.06c.24-1.08.42-2.58.42-3.6 0-5.1-2.76-8.34-8.7-8.34zm19.74 33.36c7.32 0 12.54-2.64 12.54-10.74 0-4.56-2.04-6.36-6.12-8.64-3.84-2.1-4.5-2.88-4.5-4.5 0-2.82 1.56-3.9 5.4-3.9 2.7 0 5.34.6 6.84 1.2l1.2-5.7c-1.62-.6-4.8-1.08-7.5-1.08-7.44 0-12.72 2.64-12.72 10.5 0 4.2 2.1 5.76 6.24 8.1 3.48 1.98 4.32 2.88 4.32 4.86 0 2.94-1.8 4.08-5.4 4.08-2.58 0-5.58-.54-8.22-1.38l-.9 6.12c2.4.66 5.94 1.08 8.82 1.08zm33-.36h7.32l6.54-34.08h.36l4.38 25.38h7.8l14.04-25.38h.36L428.04 62h7.44l8.04-41.64h-11.7l-13.8 24.72h-.36l-4.08-24.72h-11.64zm80.16-25.32c0-5.28-3.96-7.68-9.66-7.68-11.04 0-18.54 10.08-18.54 21.6 0 8.7 5.4 12 13.02 12 3.66 0 7.98-1.2 9.84-2.28l1.08-6.24c-1.98 1.26-6.12 2.58-9.6 2.58-4.92 0-7.44-1.92-7.44-6.84 13.08-1.2 21.3-4.68 21.3-13.14zm-20.64 7.92c1.5-5.94 5.58-10.08 10.68-10.08 2.04 0 3.6.84 3.6 2.76 0 3.54-3.9 6.42-14.28 7.32zm33 18c5.76 0 8.88-3.9 10.68-8.28h.36c-.24 1.08-.42 2.04-.42 3 0 2.94 1.32 5.04 5.46 5.04 1.68 0 2.88-.18 3.9-.48l1.14-5.4c-.66.24-1.38.3-2.22.3-1.32 0-1.86-.54-1.86-2.28 0-2.64 1.44-9.24 3.48-18.24l4.44-19.86h-7.14l-3.12 14.52c-1.56-1.26-3.66-1.92-6.42-1.92-12.12 0-18 11.94-18 22.98 0 7.08 3.6 10.62 9.72 10.62zm1.68-5.76c-3 0-4.08-2.34-4.08-5.88 0-8.04 3.84-16.26 10.68-16.26 3.42 0 4.98 1.8 5.16 3 0 4.74-4.98 19.14-11.76 19.14zm33.84-32.04c1.5 0 2.88-.18 3.54-.72.84-.66 1.38-2.94 1.38-4.74 0-1.86-.66-2.52-3.66-2.52-1.5 0-2.76.18-3.42.84-.96.96-1.38 3.06-1.38 4.74 0 1.98.9 2.4 3.54 2.4zM511.38 62h7.2l6.24-32.4h-7.2zm40.56-32.4l-4.2 21.9c-1.32 3.24-4.32 5.34-7.8 5.34-2.88 0-4.2-1.32-4.2-4.02 0-.84.24-2.58.48-3.66l3.84-19.56h-7.2l-4.08 21c-.24 1.08-.42 2.64-.42 3.66 0 5.1 2.76 8.34 8.7 8.34 4.5 0 7.44-1.8 9.48-5.1l-.84 4.5h7.2l6.24-32.4zm50.16-.6c-4.5 0-8.22 2.1-10.26 5.52-.72-3.6-3.24-5.52-8.16-5.52-4.44 0-7.56 1.92-9.78 4.98l.84-4.38h-7.2L561.3 62h7.2l4.14-21.6c1.44-3.36 3.84-5.7 7.8-5.7 2.88 0 4.26 1.38 4.26 4.08 0 .84-.3 2.58-.54 3.6L580.32 62h7.2l4.14-21.06c0-.12.06-.24.06-.36 1.32-3.42 3.84-5.88 7.74-5.88 2.88 0 4.32 1.38 4.32 4.08 0 .84-.24 2.58-.48 3.6L599.46 62h7.2l4.08-21.06c.24-1.08.42-2.58.42-3.6 0-5.1-3.12-8.34-9.06-8.34z"/></svg>