<svg viewBox="0 0 574 80" xmlns="http://www.w3.org/2000/svg"><path d="M15.3 66.88v-51.3h16.08v4.26q-.96 4.2-1.95 7.59-.99 3.39-2.37 7.05.66 1.38 1.35 2.7.69 1.32 1.23 2.91t.87 3.6q.33 2.01.33 4.71 0 1.8-.21 3.18-.21 1.38-.75 2.37-.54.99-1.53 1.59-.99.6-2.61.84l-3.42.48-1.56-4.2 2.82-.36q1.8-.24 2.52-.99t.72-2.97q0-2.4-.36-4.32-.36-1.92-.93-3.48-.57-1.56-1.35-2.91-.78-1.35-1.62-2.61 1.5-3.6 2.76-7.53 1.26-3.93 2.1-7.65h-7.86v47.04H15.3zm50.1-50.22v4.26h-4.98v39.36q0 1.62-.33 2.67-.33 1.05-1.14 1.71-.81.66-2.16.99-1.35.33-3.33.51l-4.14.36-1.5-4.38 5.1-.36q.96-.06 1.53-.24.57-.18.9-.57.33-.39.45-1.05t.12-1.74V20.92h-22.5v-4.26H65.4zM49.92 29.08v23.04H34.14V29.08h15.78zM45.84 48.1v-15h-7.62v15h7.62zm53.94 12.54h24.48v4.08H70.98v-4.08h24.3v-7.5H76.14V49h19.14v-6.66H76.92V15.7h40.86v26.64h-18V49h19.26v4.14H99.78v7.5zm-4.5-40.92h-14.1v7.38h14.1v-7.38zm18 7.38v-7.38h-13.5v7.38h13.5zm-32.1 11.22h14.1v-7.38h-14.1v7.38zm18.6 0h13.5v-7.38h-13.5v7.38zm77.7 13.14l4.38 1.8q-.06.66-.18 1.44-.12.66-.21 1.62-.09.96-.27 2.04-.36 2.1-.9 3.36-.54 1.26-1.35 1.95t-1.98.93q-1.17.24-2.79.3-2.82.12-7.02.21-4.2.09-8.79.12-4.59.03-9-.03t-7.65-.24q-1.8-.06-3-.66-1.2-.6-1.92-1.47t-.99-1.89q-.27-1.02-.27-1.98V16.3h41.64v24.6h-37.02v17.4q0 1.74 2.22 1.92 1.92.12 4.53.21 2.61.09 5.58.12t6.09.03q3.12 0 5.97-.06 2.85-.06 5.25-.15t4.02-.21q1.74-.12 2.28-.99.54-.87.78-2.19.18-1.08.27-2.07.09-.99.21-1.77.06-.9.12-1.68zM140.16 20.5v16.08h14.16V20.5h-14.16zm32.34 16.08V20.5h-13.62v16.08h13.62zm64.02 14.88l4.38 1.8q-.06.66-.18 1.44-.12.66-.21 1.62-.09.96-.27 2.04-.36 2.1-.9 3.36-.54 1.26-1.35 1.95t-1.98.93q-1.17.24-2.79.3-2.82.12-7.02.21-4.2.09-8.79.12-4.59.03-9-.03t-7.65-.24q-1.8-.06-3-.66-1.2-.6-1.92-1.47t-.99-1.89q-.27-1.02-.27-1.98V16.3h41.64v24.6H199.2v17.4q0 1.74 2.22 1.92 1.92.12 4.53.21 2.61.09 5.58.12t6.09.03q3.12 0 5.97-.06 2.85-.06 5.25-.15t4.02-.21q1.74-.12 2.28-.99.54-.87.78-2.19.18-1.08.27-2.07.09-.99.21-1.77.06-.9.12-1.68zM199.2 20.5v16.08h14.16V20.5H199.2zm32.34 16.08V20.5h-13.62v16.08h13.62zm51.24-2.1h18.3v3.84h-52.74v-3.84h18.36V22.9h-15.6v-3.84h14.04q-.96-1.44-2.04-2.76-1.08-1.32-1.92-2.28l3.3-2.22q1.02 1.2 2.37 2.82 1.35 1.62 2.37 3.12l-1.74 1.32h12.24q.66-.78 1.41-1.74.75-.96 1.47-1.95t1.35-1.92q.63-.93 1.05-1.65l3.42 2.1q-.6 1.02-1.59 2.4-.99 1.38-2.01 2.76h13.56v3.84h-15.6v11.58zM270.9 22.9v11.58h7.68V22.9h-7.68zm-7.26 8.16l-2.88 3.36q-.6-.96-1.5-2.19t-1.92-2.46q-1.02-1.23-2.01-2.28-.99-1.05-1.77-1.71l2.76-2.7q.78.72 1.8 1.74t2.04 2.13q1.02 1.11 1.95 2.22.93 1.11 1.53 1.89zm24.78 2.82l-2.88-2.46q.78-.78 1.77-1.83t1.98-2.16q.99-1.11 1.89-2.19.9-1.08 1.5-1.92l3.06 2.4q-.66.84-1.62 1.95-.96 1.11-1.98 2.25t-2.01 2.19q-.99 1.05-1.71 1.77zM256.56 67V42.88h36.36v24.06h-4.2v-2.7h-27.96V67h-4.2zm32.16-20.16h-27.96v4.98h27.96v-4.98zM260.76 60.4h27.96v-4.86h-27.96v4.86zm70.98-35.94v-3.42h-22.68v-3.6h22.68v-4.68l4.02.18v4.5h22.68v3.6h-22.68v3.42h17.7v16.62h-3.06q.78.78 1.8 1.92t2.1 2.46q1.08 1.32 2.13 2.73 1.05 1.41 1.89 2.67l-2.88 2.7q-.66-1.14-1.56-2.43-.9-1.29-1.86-2.61-1.68.06-5.16.15-3.48.09-7.77.24-4.29.15-8.91.3t-8.64.27q-4.02.12-6.96.24-2.94.12-3.78.12l-.24-3.78q.78 0 2.88-.06 2.1-.06 4.98-.12 2.88-.06 6.33-.12t6.99-.18v-4.5H313.8V24.46h17.94zm0 3.36h-13.56v3.36h13.56v-3.36zm17.34 0h-13.32v3.36h13.32v-3.36zm-30.9 9.9h13.56v-3.54h-13.56v3.54zm17.58-3.54v3.54h13.32v-3.54h-13.32zm13.68 10.98q-.6-.66-1.11-1.23-.51-.57-.93-1.05l2.7-1.8h-14.34v4.44q4.08-.12 7.65-.18 3.57-.06 6.03-.18zm-18.54 6.12l2.76-2.16q.54.54 1.44 1.47.9.93 1.83 1.95t1.83 2.07q.9 1.05 1.5 1.83l-2.94 2.76q-.54-.9-1.44-2.1-.9-1.2-1.83-2.34t-1.8-2.07q-.87-.93-1.35-1.41zm-19.98 14.28l-3.72-2.22q.96-1.14 2.04-2.64 1.08-1.5 2.07-3.12.99-1.62 1.83-3.24.84-1.62 1.44-3.06l3.72 1.74q-.78 1.74-1.71 3.51-.93 1.77-1.89 3.42-.96 1.65-1.92 3.09t-1.86 2.52zm37.68-12.12l3.12-2.16q.84.96 1.86 2.25t2.07 2.73q1.05 1.44 2.1 3t1.95 3l-3.54 2.58q-1.74-3.18-3.69-6.18-1.95-3-3.87-5.22zm-5.1 5.34q.12-.84.18-1.71t.12-1.77l4.08 1.5q-.12.9-.24 1.83t-.24 1.83q-.3 1.62-.75 2.58t-1.23 1.5q-.78.54-1.98.75-1.2.21-2.94.33-2.88.18-5.88.18t-5.88-.18q-3.78-.24-5.34-1.41t-1.56-4.05v-8.04l4.56.24v6.24q0 1.92.78 2.49.78.57 3 .75 4.62.36 9.12 0 1.14-.06 1.92-.21t1.23-.45q.45-.3.69-.87.24-.57.36-1.53zm73.86-31.32h-13.5q1.68 4.14 3.57 7.74 1.89 3.6 4.05 6.72 2.16 3.12 4.65 5.85 2.49 2.73 5.43 5.19l-3.18 3.84q-3.36-3.12-5.94-6.33-2.58-3.21-4.62-6.54t-3.66-6.87q-1.62-3.54-3.06-7.44v22.74h10.44v4.14H401.1V67h-4.56V56.5h-10.08l.12-4.14h9.96V30.4q-2.34 7.38-6.36 13.71-4.02 6.33-9.42 12.15l-3.36-3.24v13.5h-4.38v-30.3q-1.14 1.92-2.43 3.9-1.29 1.98-2.79 3.9l-3.36-3q5.58-7.5 8.82-14.67t4.86-13.23l4.26 1.32q-.78 2.58-1.98 5.97-1.2 3.39-3 7.35V52.9q4.98-4.86 9.45-11.28 4.47-6.42 7.11-14.16h-11.88V23.2h14.46V13l4.56.18V23.2h16.26v4.26zm62.1-5.16h12v11.52h-4.44v-7.56h-39.48v7.5h-4.38V22.3h11.76q-.6-.9-1.35-1.83-.75-.93-1.53-1.83t-1.5-1.68q-.72-.78-1.32-1.32l3.42-2.64q.6.6 1.47 1.53t1.77 2.01q.9 1.08 1.77 2.16t1.53 1.92l-1.86 1.68h7.8v-9.66l4.38.12v9.54h7.86l-2.16-1.5q.9-.84 1.8-1.86t1.74-2.1q.84-1.08 1.59-2.1.75-1.02 1.35-1.92l3.48 2.22q-.48.72-1.2 1.68t-1.47 1.95q-.75.99-1.56 1.95t-1.47 1.68zm-9.96 20.28v4.74h18.24v10.5q0 1.74-.3 2.79t-1.11 1.71q-.81.66-2.31.99-1.5.33-3.9.63l-3 .36-1.5-4.26 3.36-.3q1.5-.12 2.34-.3.84-.18 1.26-.54.42-.36.54-.96.12-.6.12-1.56v-5.04H469.5V67.6l-4.38.06V51.34h-13.8V64h-4.26V47.32h18.06v-4.74h-14.04v-12h32.4v12H469.5zm-14.22-8.46v4.98h24v-4.98h-24zm65.94 22.26l-3.42 3.24q-1.08-2.1-2.82-4.95-1.74-2.85-3.48-5.37-.54 2.52-1.38 4.71-.84 2.19-1.95 4.26-1.11 2.07-2.52 4.14t-3.15 4.35l-3.66-2.82q2.4-2.88 4.08-5.4 1.68-2.52 2.82-5.19 1.14-2.67 1.8-5.67.66-3 .96-6.84h-8.22v-4.38h8.4q.06-1.02.06-2.1V27.1h-7.44v-4.38h7.44v-9.54l4.2.18v9.36h7.32v4.38h-7.32v7.26q0 1.08-.06 2.1h8.16v4.38h-8.34q-.12.84-.15 1.62-.03.78-.15 1.56.96 1.2 2.22 2.82 1.26 1.62 2.46 3.33t2.31 3.36q1.11 1.65 1.83 2.85zm5.82-36.24v29.22h-4.26V15.88h25.32V49.3h-4.32V20.14h-16.74zM549 52l3.9 1.5q-.12 2.1-.3 4.14-.18 2.04-.6 4.02-.42 2.04-1.74 2.97-1.32.93-4.62 1.05-2.46.12-4.92 0-2.88-.06-4.26-1.41-1.38-1.35-1.38-4.95V49.06q-1.92 5.58-5.76 9.99t-9.9 8.61l-3-3.6q4.68-3.12 7.8-6.03t5.01-6.21q1.89-3.3 2.73-7.26.84-3.96.96-9.24.06-.72.09-2.34.03-1.62.06-3.42.03-1.8.03-3.45v-2.37l4.32.12q0 .72-.03 2.4t-.06 3.57q-.03 1.89-.06 3.6-.03 1.71-.03 2.43-.06 2.46-.3 4.68-.24 2.22-.66 4.26l2.94.24V57.7q0 2.1.72 2.82.72.72 2.64.84 1.08.12 2.16 0 1.86-.12 2.64-.66t1.08-2.1q.3-1.56.42-3.3.12-1.74.12-3.3z"/></svg>