<svg viewBox="0 0 594 80" xmlns="http://www.w3.org/2000/svg"><path d="M47.4 56h10.8l-5.76-41.64H38.52L15 56h11.22l5.04-9.54h15.18zM35.34 38.66l8.1-15.3h.72l1.5 15.3zm35.4 17.7c1.26 0 2.64-.12 3.66-.3l1.56-7.32c-.36.06-.96.12-1.5.12-1.38 0-2.04-.48-2.04-1.86 0-2.16 1.02-7.98 7.14-36.6h-9.6c-4.44 20.34-7.5 34.44-7.5 38.94 0 5.52 3.6 7.02 8.28 7.02zm19.74-36.3c1.86 0 3.72-.18 4.56-.9 1.02-.84 1.68-3.72 1.68-6 0-2.4-.84-3.18-4.68-3.18-1.86 0-3.6.18-4.44 1.02-1.2 1.2-1.74 3.9-1.74 6.06 0 2.52 1.26 3 4.62 3zM78.96 56h9.6l6.24-32.4h-9.6zm30.72.6c14.52 0 20.16-11.76 20.16-23.28 0-6.48-3.06-10.32-9.84-10.32-3.9 0-7.68 2.22-9.66 5.4h-.36c1.62-6.6 3.3-12.96 4.74-18h-9.54c-3 12.9-6.12 27-8.52 39.9 2.28 3.6 7.14 6.3 13.02 6.3zm.54-7.62c-1.92 0-2.88-.96-3.06-2.04 0-5.04 4.44-16.5 10.02-16.5 2.28 0 3 1.14 3 4.2 0 5.28-2.34 14.34-9.96 14.34zm32.64 7.62c6.3 0 8.7-3.24 10.44-7.2h.36c-.24.96-.3 1.62-.3 2.22 0 2.82 1.2 4.74 5.46 4.74 2.28 0 3.72-.3 5.04-.66l1.44-6.84c-.78.24-1.2.3-1.98.3-1.14 0-1.56-.36-1.56-1.68 0-2.7 2.1-12 3.78-18.84l-.48-.54c-2.52-2.82-7.02-5.1-12.78-5.1-13.14 0-19.08 11.52-19.08 22.56 0 7.56 3.48 11.04 9.66 11.04zm3.12-7.44c-2.28 0-3.12-1.86-3.12-5.04 0-6.6 3.54-13.74 8.94-13.74 1.98 0 3.72 1.08 4.02 2.1 0 4.8-4.56 16.68-9.84 16.68zm36.3 7.44c14.52 0 20.16-11.76 20.16-23.28 0-6.48-3.06-10.32-9.84-10.32-3.9 0-7.68 2.22-9.66 5.4h-.36c1.62-6.6 3.3-12.96 4.74-18h-9.54c-3 12.9-6.12 27-8.52 39.9 2.28 3.6 7.14 6.3 13.02 6.3zm.54-7.62c-1.92 0-2.88-.96-3.06-2.04 0-5.04 4.44-16.5 10.02-16.5 2.28 0 3 1.14 3 4.2 0 5.28-2.34 14.34-9.96 14.34zm32.64 7.62c6.3 0 8.7-3.24 10.44-7.2h.36c-.24.96-.3 1.62-.3 2.22 0 2.82 1.2 4.74 5.46 4.74 2.28 0 3.72-.3 5.04-.66l1.44-6.84c-.78.24-1.2.3-1.98.3-1.14 0-1.56-.36-1.56-1.68 0-2.7 2.1-12 3.78-18.84l-.48-.54c-2.52-2.82-7.02-5.1-12.78-5.1-13.14 0-19.08 11.52-19.08 22.56 0 7.56 3.48 11.04 9.66 11.04zm3.12-7.44c-2.28 0-3.12-1.86-3.12-5.04 0-6.6 3.54-13.74 8.94-13.74 1.98 0 3.72 1.08 4.02 2.1 0 4.8-4.56 16.68-9.84 16.68zm48.84 7.44c12.6 0 18.36-3.42 18.36-14.34 0-4.92-1.8-7.5-9.24-11.1-5.04-2.46-5.58-2.88-5.58-4.98 0-3.36 2.1-4.32 6.36-4.32 3.54 0 8.34.96 10.02 1.62l1.68-8.22c-2.16-.78-6.48-1.5-11.4-1.5-11.16 0-16.68 3.42-16.68 14.34 0 5.16 2.52 6.96 8.82 9.96 4.68 2.22 5.88 3.3 5.88 5.58 0 3.6-2.64 4.5-7.68 4.5-3.72 0-8.34-.78-10.92-1.62l-1.56 8.7c2.58.72 7.74 1.38 11.94 1.38zm32.64 0c6.3 0 8.7-3.24 10.44-7.2h.36c-.24.96-.3 1.62-.3 2.22 0 2.82 1.2 4.74 5.46 4.74 2.28 0 3.72-.3 5.04-.66l1.44-6.84c-.78.24-1.2.3-1.98.3-1.14 0-1.56-.36-1.56-1.68 0-2.7 2.1-12 3.78-18.84l-.48-.54c-2.52-2.82-7.02-5.1-12.78-5.1-13.14 0-19.08 11.52-19.08 22.56 0 7.56 3.48 11.04 9.66 11.04zm3.12-7.44c-2.28 0-3.12-1.86-3.12-5.04 0-6.6 3.54-13.74 8.94-13.74 1.98 0 3.72 1.08 4.02 2.1 0 4.8-4.56 16.68-9.84 16.68zM349.86 23c-4.5 0-7.5 1.86-9.66 4.8l.78-4.2h-9.6L325.14 56h9.6l4.02-20.88c1.02-2.76 3.42-4.74 6.48-4.74 2.16 0 3.54.78 3.54 3.3 0 .66-.18 1.92-.36 2.82l-3.9 19.5h9.6l4.08-20.64c.18-1.02.42-2.58.42-3.66 0-5.52-2.52-8.7-8.76-8.7zm18.84 33.36c7.86 0 13.98-2.1 13.98-11.76 0-4.62-2.4-6.36-5.64-7.98-4.08-2.04-4.62-2.58-4.62-3.72 0-1.86.9-2.64 4.02-2.64 2.76 0 5.46.66 6.96 1.2l1.56-7.38c-2.04-.6-5.1-1.08-7.68-1.08-7.98 0-13.92 2.4-13.92 11.52 0 4.26 2.22 5.88 6 7.74 3.3 1.62 4.14 2.34 4.14 3.84 0 1.86-1.14 2.64-3.9 2.64-2.58 0-5.46-.54-8.28-1.56l-1.44 8.04c2.82.72 5.88 1.14 8.82 1.14zm65.94-42l-2.94 15.36h-14.64L420 14.36h-10.08L401.88 56h10.08l3.48-18h14.64l-3.48 18h10.08l8.04-41.64zm41.28 16.8c0-5.28-3.9-8.16-10.44-8.16-12.36 0-19.26 10.44-19.26 21.48 0 8.7 5.16 12.12 13.38 12.12 3.96 0 8.82-1.32 10.62-2.34l1.5-8.16c-1.92 1.2-6.12 2.64-10.2 2.64-4.2 0-5.94-1.44-6.18-4.68 11.76-.6 20.58-4.08 20.58-12.9zm-19.8 6.6c1.44-4.38 4.62-7.8 8.88-7.8 1.62 0 2.7.66 2.7 2.1 0 2.94-3.96 5.16-11.58 5.7zm30.42 18.84c6.3 0 8.7-3.24 10.44-7.2h.36c-.24.96-.3 1.62-.3 2.22 0 2.82 1.2 4.74 5.46 4.74 2.28 0 3.72-.3 5.04-.66l1.44-6.84c-.78.24-1.2.3-1.98.3-1.14 0-1.56-.36-1.56-1.68 0-2.7 2.1-12 3.78-18.84l-.48-.54c-2.52-2.82-7.02-5.1-12.78-5.1-13.14 0-19.08 11.52-19.08 22.56 0 7.56 3.48 11.04 9.66 11.04zm3.12-7.44c-2.28 0-3.12-1.86-3.12-5.04 0-6.6 3.54-13.74 8.94-13.74 1.98 0 3.72 1.08 4.02 2.1 0 4.8-4.56 16.68-9.84 16.68zm27 6.84h12.3l17.94-32.4h-10.62L525 46.46h-.36L523.5 23.6h-9.84zm24.96 12.24c12.54 0 16.44-2.82 23.52-15.66l15.9-28.98h-10.98l-10.38 21.84h-.36l-1.56-21.84h-10.2l4.38 32.52c-1.44 2.28-3 3.54-8.64 3.54z"/></svg>