<svg viewBox="0 0 300 80" xmlns="http://www.w3.org/2000/svg"><path d="M25.92 65H15.9l4.98-51.54h17.46L43.26 65h-9.78l-.72-8.34h-6.24l-.6 8.34zm3.3-42.78L27.3 48.44h4.68L29.7 22.22h-.48zM46.2 65V21.08h10.5v5.58q.66-2.7 2.28-4.38 1.62-1.68 4.32-1.68 4.44 0 6.57 2.73T72 31.1V65H61.68V32.18q0-1.44-.57-2.46t-1.77-1.02q-1.62 0-2.13 1.47-.51 1.47-.51 3.93V65H46.2zm39 .48q-4.14 0-5.7-1.74-1.56-1.74-1.56-5.58V30.74H75v-7.98h2.94v-9.3h10.2v9.3h3v7.98h-3V55.4q0 1.14.18 1.68t.96.54q.6 0 1.14-.06.54-.06.72-.06v7.2q-.9.24-2.61.51t-3.33.27zm22.02 0q-13.14 0-13.14-13.62V34.22q0-6.24 3.51-9.93 3.51-3.69 9.63-3.69 6.12 0 9.63 3.69 3.51 3.69 3.51 9.93v17.64q0 13.62-13.14 13.62zm0-8.1q1.26 0 1.86-.9.6-.9.6-2.46V32.54q0-3.84-2.46-3.84t-2.46 3.84v21.48q0 1.56.6 2.46.6.9 1.86.9zM124.26 65V21.08h10.5v5.58q.66-2.7 2.28-4.38 1.62-1.68 4.32-1.68 4.44 0 6.57 2.73t2.13 7.77V65h-10.32V32.18q0-1.44-.57-2.46t-1.77-1.02q-1.62 0-2.13 1.47-.51 1.47-.51 3.93V65h-10.5z"/></svg>