<svg viewBox="0 0 568 80" xmlns="http://www.w3.org/2000/svg"><path d="M32.42 16.64q.36-.36 1.02-.39.66-.03 1.38.27.72.3 1.47.87.75.57 1.29 1.35.84 1.08.72 3.54v2.52h1.59q.75 0 1.65.03.9.03 1.89.06.99.03 1.95.09 3.42.12 5.4.27 1.98.15 2.28.33.54.42.45 1.26-.09.84-.57 1.26-.42.42-9.54.42H33.32q-1.02 0-2.82.54-.96.24-1.89.45-.93.21-1.89.33-.78.12-1.77.33-.99.21-2.01.57-.84.3-1.62.51-.78.21-1.26.21-1.08 0-1.74-.66-1.38-1.14-.18-1.8.6-.3 2.16-.75t4.2-.93q2.28-.48 3.87-.78 1.59-.3 2.43-.54l1.32-.48q.66-.24 1.02-.48.42-.3.72-.69.3-.39.48-.75.18-.48.33-.93.15-.45.15-.75 0-.54-.39-1.11-.39-.57-1.23-1.47-.6-.66-.9-1.05-.3-.39-.39-.66-.09-.27.06-.48.15-.21.45-.51zm7.68 13.14q.54-.54.75-.57.21-.03.93.33.66.3 1.11 1.41.45 1.11.45 2.25 0 .66-.54 2.7-.54 1.92-1.08 3.12-1.32 3.06-1.32 4.02 0 .42 3.18 3.6l5.94 6.12q.78.9 1.41 1.5.63.6 1.17.99.54.39 1.05.66t1.17.51q1.98.78 3 .78.42 0 1.05-.21.63-.21 1.35-.57.72-.36 1.44-.81.72-.45 1.26-.99 1.32-1.02 1.8-1.02.42 0 .36.51t-.36 1.53q-.66 1.62-2.4 3.12Q59 60.92 56 60.92q-2.34 0-4.71-1.26t-4.65-3.78q-3-3.24-5.76-5.94-2.76-2.76-3.06-2.76-.42 0-.6.66-.3 1.02-2.76 3.48-1.14 1.08-2.13 1.86t-1.65 1.08q-1.44.66-2.97 1.2-1.53.54-3.15 1.02-3.12.84-5.1.96h-1.44q-.54 0-.9-.09t-.6-.3q-.24-.21-.6-.57-.48-.66-.78-2.04-.3-1.26.24-1.26.24 0 1.32 1.08.54.54 1.05.81t1.35.09q1.98-.24 5.94-1.92 1.86-.84 3.18-1.56 1.32-.72 2.16-1.38 1.68-1.32 3.24-3.54Q35.24 44.6 35 44q-.24-.72-2.88-2.28-2.7-1.68-4.8-2.28-2.7-1.08-3.84-1.77-1.14-.69-.36-1.23 1.2-.78 4.56.24 3.54 1.02 6.54 2.7 1.14.6 1.86.93.72.33 1.02.39.42-.3 1.08-2.1.72-1.98 1.2-2.7.42-.54.54-2.16.18-1.68-.12-2.58-.24-.9.3-1.38zm54.06-14.1q.48-.12 1.17-.15t1.41.09h.42q.66.06 1.65.12.99.06 2.43.18 3 .3 3.48.96.36.42.06 3.12-.24 1.8-.39 3.84-.15 2.04-.21 4.5-.06 4.8.36 5.7.36.72.3 1.2t-.6 1.08h.06q-.48.84-.93.96-.45.12-1.59 0-.12 0-.24-.03t-.24-.03q-1.98-.42-5.82-.36-3.84 0-5.88.42-3.78.54-3.78-1.56 0-1.26.54-1.74v.06q.36-.3.36-3.48v-1.2q0-.66-.12-1.38-.06-5.46-.66-7.08-.48-1.38-.48-2.04 0-1.26 1.92-1.08.48.06.96-.3.42-.3 2.58-.96 1.02-.36 1.8-.57.78-.21 1.44-.27zm5.1 3.54q-1.08-.12-2.04-.21t-1.92-.09q-2.34 0-4.86.48-1.32.24-1.56.45-.24.21.3 1.47.36 1.02.57 1.41.21.39.63.27.24-.06 1.77-.3t4.11-.54q3.48-.24 4.26-.48.48-.24.42-.96-.06-.9-.36-1.11-.3-.21-1.32-.39zm1.44 7.68v-.48q0-.72-.42-.96-.42-.18-3 0-5.04.12-5.46.18-1.38.12-1.59.27-.21.15-.15 1.05.06.78.33.96.27.18 1.17.12h.99q.57 0 1.29-.06 1.5 0 2.28-.03.78-.03 1.5-.09.3 0 .54-.03.24-.03.54-.03.24 0 .48-.03t.36-.03q.12 0 .24-.03t.18-.03q.72-.18.72-.78zm.42 5.4q0-1.62-.36-1.62-.48.06-1.95.15t-3.69.21l-4.92.18q-.06.42-.12.78l-.12.72q-.3 1.8-.12 1.8.12.06 3.66-.48 3.6-.48 5.58-.3.78.12 1.17.15.39.03.57-.12.18-.15.24-.45.06-.3.06-1.02zm9-12.78h.06q1.38-1.68 2.88-.12.84.84.6 1.86-.6 2.22-1.02 4.83-.42 2.61-.72 5.37-.12 2.7-.36 3.12 0 .18.06.57.06.39.24.87.36 1.44 0 2.1-.12.3-.12.57 0 .27.12.51h-.06q.42.48.3 1.38-.18 1.44-3.18 1.44-.54 0-1.32-.06t-1.62-.18q-3-.48-3.36-.18-.3.18-.3 2.28 0 1.74.15 2.01.15.27 1.29.15.6-.06 1.56-.09.96-.03 2.4-.03h2.22q2.22 0 3.36.09 1.14.09 1.74.39.66.3.69 1.17.03.87-.09 2.13-.3 2.4-.42 6.84 0 1.38-.06 2.22-.06.84-.18 1.38-.12.54-.33.84-.21.3-.51.6h.06q-.66.9-.96.87-.3-.03-.78-.63h.06q-.48-.54-.66-1.74-.12-.66-.15-1.86-.03-1.2-.09-3.06v-1.71q0-.69-.03-1.14-.03-.45-.06-.84-.03-.39-.09-.75-.18-.9-.36-1.02-.12-.12-.27-.24-.15-.12-.63-.24h.06q-.36-.06-.87-.09t-1.17-.03q-.48 0-1.05.03-.57.03-1.23.03-3 .06-3.3.42-.06.06-.36 3.72-.12 1.74-.15 3.57-.03 1.83-.03 3.33 0 1.38-.24 2.37-.24.99-.6 1.53-.6.72-.81.69-.21-.03-1.05-.87v.06q-.9-.78-.96-1.62-.06-.84.18-4.74.3-4.44.48-7.32t.18-4.44q.06-1.44-.06-2.52t-.42-1.56q-.3-.66-.36-1.17-.06-.51.24-.69.54-.42 2.4-.75 1.86-.33 4.38-.45 2.28 0 2.46-.18.24-.12.36-1.56 0-1.08.12-3.36t.36-5.82q.18-2.28.33-3.78.15-1.5.33-2.22.24-1.56.72-2.28zm-33.06.18q.42-1.02 1.68-.51t2.1 2.07q.66 1.08 1.32 4.14.66 2.82.66 4.74 0 1.92-.6 4.92-.54 3.06-1.2 4.56-.12.3-.24.54l-.18.36q-.18.18-.18.3.18 0 1.8-.42.42-.12.81-.21.39-.09.87-.21 2.88-.72 5.58-.72 1.74 0 3.09.3 1.35.3 2.01.9 1.08 1.08.66 1.68-.54 1.02-1.02 10.98-.24 5.82-.72 6.9-.54 1.08-.54 2.04 0 .84-.63 1.62-.63.78-1.23.78-1.14 0-1.14-2.46 0-.66.09-1.44.09-.78.21-1.74.24-2.04.42-3.9.18-1.86.24-3.12 0-.9.06-1.71.06-.81.06-1.65-.54 0-1.02.06t-.96.06q-1.14.12-2.1.21-.96.09-1.74.21-1.2.12-1.38.36-.18.24.06 1.56.36 3.3-1.74 7.08-2.22 3.84-4.26 3.54-1.8-.3-1.2-2.7.3-1.02 1.2-1.02.48 0 .81-.39.33-.39.69-1.41.3-.9.57-1.65.27-.75.45-1.65.42-1.68 0-2.04-.12-.18-2.04-.18-1.44 0-1.71-.15t-.27-.87q0-.78.66-1.14.54-.24 3.6-1.08h-.06q6-1.74 9.6-1.8.78-.06.78-.24v-1.68q0-1.08-.48-1.14-.24-.12-1.08-.12-.84 0-2.04.12-1.86.12-3.45.42t-2.67.78q-2.34.72-3.21.57-.87-.15-.57-1.41.18-.6.45-1.83t.63-3.21q.3-1.74.45-3.48.15-1.74.15-3.3v-1.14q0-.54-.06-1.14-.12-2.16-.51-3.87t-1.11-3.15q-.24-.6-.39-1.11-.15-.51-.03-.81zm67.86-2.22q0-.3.3-.51.3-.21.78-.24.48-.03.9.12.42.15.6.45.3.6.54 2.22.36 3.36-2.52 8.1-.84 1.32-.9 1.68-.06.36.42 1.14.36.72.69 1.14.33.42.57.66v-.06q.84.66 1.08 2.28.12.72.15 2.25t.09 3.75q0 1.86-.03 3.33t-.09 2.25q-.06.78-.24 1.71-.18.93-.42 1.95-.3 1.26-.84 2.58t-1.14 2.64q-1.26 2.7-1.92 2.7-.3 0-1.26.84h.06q-.66.84-.87.84-.21 0-.87-.72-.54-.6-.48-1.14.06-.54.24-1.02.24-.66.24-.96 0-.9.54-.9.18 0 1.08-1.98.48-.96.84-2.1.36-1.14.66-2.22.84-2.88.72-8.58 0-7.92-1.08-7.92-.36 0-2.1 1.62-3.06 3.12-5.73 4.59-2.67 1.47-4.17.93-1.08-.54-.96-1.17.12-.63 1.32-.99 2.46-.54 6.12-4.44 1.08-1.02 2.22-2.55 1.14-1.53 2.46-3.39 2.34-3.6 2.28-4.38-.06-.24.09-.75t.33-.93q.42-.96.3-1.56-.06-.66 0-1.26zm15.18-.06q1.08-.12 2.49-.18 1.41-.06 3.09-.12 3.66-.12 5.88.18 2.34.18 3.06 1.2.3.48.18 1.08-.12.6-1.14 2.22-1.62 2.58-1.38 3.18.36.42 3.06.24 3.42-.18 4.5.6t-.06 2.28q-.42.6-1.8.78-1.38.18-7.5.3-5.7.24-9.6.45-3.9.21-5.82.51-1.98.24-3.12.36-1.14.12-1.71.09-.57-.03-.81-.21-.24-.18-.3-.6 0-1.26 1.8-2.22 1.92-.9 2.76-.36.36.42 1.86.12h-.06q.78-.24 1.98-.45 1.2-.21 2.64-.39 2.76-.36 3.42-.36.84 0 2.7-.36.66-.12 1.14-.33.48-.21.78-.51.06-.06.96-1.68.48-1.14.66-1.77.18-.63 0-.87h-4.05q-.87 0-1.89.06-2.34.06-4.05.12t-2.85.06q-2.4 0-2.46-.24-.12-.12-.12-.78t.3-.93q.3-.27 1.38-.63 1.8-.42 4.08-.84zm-4.74 14.88q.54-.42.78-.42.18 0 .51.3t.63.78q.36.48.57.96.21.48.21.72 0 .6.72.6t3.3-.6q5.58-1.32 8.76-1.32 2.22 0 3.12.66.78.72.78.96t-.6 1.02q-.48.78-1.14.9-.54.12-2.94.18H167v4.5q.36-.06.84-.09t.84-.09q.9-.12 2.49-.03 1.59.09 3.69.33.84.18 1.77.21t1.59.03q.54 0 1.08-.03t.9-.15q1.44-.3 2.52-1.56.9-1.32 1.59-1.11.69.21.69 1.89 0 .96-.27 1.5t-1.11 1.44q-1.44 1.56-3.48 1.8-.42.06-.9.09-.48.03-1.08.03-.84 0-1.98-.09-1.14-.09-2.4-.21-2.82-.36-4.32-.24h-.9q-.42 0-.84.03t-.6.03q-.6.06-.99.51t-1.11 2.07q-.6 1.26-1.83 2.82-1.23 1.56-2.97 3.36-5.1 5.34-7.26 5.34-1.2 0-1.68-1.08-.48-1.02.09-1.56t1.71-.36q.6 0 1.32-.42.48-.54 1.11-1.17.63-.63 1.47-1.53h-.06q1.8-2.04 3.09-3.93 1.29-1.89 1.95-3.57-.12-.12-.69-.12t-1.53.12q-2.58.18-3.36.9-1.02.96-1.68.96-.54 0-2.88 1.26-1.92 1.2-2.67 1.29-.75.09-.93-.51-.18-.78 1.5-2.64h-.06q1.62-1.86 2.46-1.92.3 0 1.08-.27t1.92-.69q1.02-.54 2.37-.96 1.35-.42 2.73-.78 1.14-.3 1.92-.54.78-.24.96-.36v.06q.18-.18.36-2.22l.24-1.92h-1.8q-4.98.48-4.98.9 0 .42-1.38 1.98h.06q-1.08 1.2-2.64 1.89t-2.46.33q-.48-.24-.36-.96t.78-.72q.36 0 1.98-1.56.66-.84 1.17-1.44.51-.6.81-1.14.18-.3.24-1.05t.06-1.23q-.36-1.62.18-2.16zm14.04 18.24h-.06q.48-.6 1.08-.48.6.12 1.8.9 1.38 1.02 1.98 1.08.18.12 1.23 1.05t2.13 2.01q2.94 2.64 3.36 3.48.12.24.03.78t-.39 1.08q-.3.72-.57 1.23-.27.51-.57.63-.72.12-1.14-.21-.42-.33-1.38-1.83-1.26-1.92-3.24-4.14-1.02-1.14-1.8-1.83-.78-.69-1.5-1.05-2.28-1.26-.96-2.7zm52.98-35.52l.54-.18q.24 0 1.2.6 1.14.36 1.98 2.22.9 1.62.9 2.94 0 .66.18.99.18.33 1.26.45h.69q.33 0 .75.06.48.06 1.29.06t2.01.12q2.94 0 4.74-.06 1.8-.06 2.58-.12 1.26-.06 2.22-.84 1.2-.9 1.68-.36.66.48.45 1.68-.21 1.2-1.11 2.34h.12l-.42.36q-.36.24-.96.54-.6.12-.72.18-.06 0-.09.03t-.09.03h-.96q-.84.06-1.8.06h-6.06q-8.4.06-12.96.6-4.62.54-7.5 1.62-2.1.72-3.03.69-.93-.03-.99-1.05-.18-.54.18-.96.36-.42 1.38-.96.84-.42 1.86-.75t2.28-.45q1.86-.18 5.1-.96 1.74-.36 2.76-.66 1.02-.3 1.38-.42.42-.42.33-1.8-.09-1.38-.75-2.7-1.44-2.88-.42-3.3zm-19.32 2.22H203q.66-.84 1.14-.84.48 0 1.08.84.66.96.66 1.74 0 .84-.48 2.07t-1.38 2.97l-1.8 3.54q.3.3.72.66.42.36.72.66v-.06q.9.78 1.2 1.68.12.42.33 1.38.21.96.51 2.4.18 1.38.27 2.82.09 1.44.09 2.82 0 2.76-.45 5.49-.45 2.73-1.41 5.31-.54 1.5-.87 2.46-.33.96-.66 1.71t-.6 1.38q-.27.63-.51 1.29-.18.48-.42.81-.24.33-.36.51-.66.3-1.56.06-.96-.36-1.35-.96-.39-.6-.39-1.92 0-1.38.96-2.4.84-.72 1.77-3.06t1.53-5.34q.48-2.1.48-5.76V38q0-.78-.06-1.62-.12-2.58-.51-4.23-.39-1.65-.87-1.95-.42-.24-3.3 2.58-1.86 1.74-4.62 3.36-1.92 1.02-3.06 1.02-.72 0-1.2-.54-.48-.6-.12-1.23t1.2-.93q1.38-.18 2.76-1.14 1.44-1.14 3.78-4.2 1.08-1.38 1.89-2.55.81-1.17 1.35-2.01.3-.72.78-1.56.48-.84 1.02-1.68 1.14-1.62 1.08-2.52-.06-.48.72-1.56zm23.64 13.8q1.02-.12 1.92-.21.9-.09 1.62-.09 1.8 0 2.73.42.93.42 1.29 1.26.3.96-.78 1.35-1.08.39-4.56.51-2.34.12-4.29.36-1.95.24-3.51.72-1.2.42-2.25.63-1.05.21-1.53.21-1.44 0-1.8-1.2v.06q-.18-.84.54-1.35.72-.51 3-.93 1.44-.3 2.4-.51.96-.21 1.74-.39.54-.24 1.44-.42.9-.18 2.04-.42zm-.36 6.72h.06q.96-.42 3.72-.3 2.64.12 3.42.48.72.3.75.6.03.3-.21 1.02-.48 1.02-2.04 1.2-1.8.24-2.58-.18-.9-.3-3.78.06-1.56.12-2.91.39t-2.55.75q-1.98.66-3.06.66-1.44 0-2.22-.84h.06q-.48-.66-.03-1.2.45-.54 1.65-.6.78-.12 1.71-.36.93-.24 2.13-.6 1.14-.36 2.16-.6 1.02-.24 1.44-.3.78-.06 1.32-.09t.96-.09zm-11.46 6.96q.78-.78 2.4.6.3.3.51.48.21.18.6.21t1.02-.03q.63-.06 1.53-.24 1.02-.18 2.16-.42 1.14-.24 2.22-.42.36-.06.87-.06h2.43q.9 0 1.62.06 3.06.36 3.6-.06.66-.36 1.47-.18.81.18 1.35.72.3.66.33 1.35.03.69-.51 2.61-.6 3-.72 5.52 0 2.4-.57 3-.57.6-2.37.36-1.08-.24-3.3-.24-.9 0-2.1.03-1.2.03-2.4.15l-6.24.18-1.02 2.22q-1.02 2.04-1.98 2.76-.9.42-1.44.06-.3-.36-.21-.93.09-.57.81-2.19 1.14-2.7 1.26-6.66.24-3.72-.72-5.7-1.14-2.64-.6-3.18zm16.14 3.6q-1.02-.36-2.82-.36-1.08 0-2.49.15-1.41.15-3.03.45l-2.76.48-.12 3.06-.18 3.06h2.46q1.8 0 5.46-.36 3.72-.36 4.02-.72.24-.24.48-2.76.24-1.68.09-2.13-.15-.45-1.11-.87zm37.32-30.54q1.38-.18 5.4-.24 2.64-.06 3.63.09.99.15 1.53.6.54.45.6.75.06.3-.18 1.08-.24.48-.36.6t-.78.3q-.66.18-1.95.15t-3.63-.03q-4.86-.06-6.78-.27-1.92-.21-1.92-.78 0-.57.54-.96t1.2-.39q.78 0 1.2-.36.3-.36 1.5-.54zm.78 7.8q2.22-.3 2.52-.36.42 0 1.8.54 1.02.42 1.44.42.42 0 1.02-.42.78-.54 1.71-.33.93.21 1.65 1.05.24.42.15.9-.09.48-.75 1.74-.96 2.16-.96 2.94 0 .84-.3 1.44-.36.66-.54 2.46-.18 1.8 0 1.86.36 0 2.43-1.41 2.07-1.41 3.51-2.55 1.86-1.44 1.74-2.34-.24-1.74 1.38-1.74.84 0 1.5.78t.66 1.68q0 .84-1.62 2.34-1.32 1.2-3.72 2.61-2.4 1.41-3.3 1.41-.78 0-.54.6.12.48.72.72.84.24 4.14 2.7 3.48 2.46 6.78 4.26 3 1.5 4.98 2.76 2.64 1.8 3.33 2.07.69.27 1.65.15 1.38-.3 3.84-1.92 3.66-2.58 3.66-1.38 0 .78-1.2 2.67t-2.22 2.67q-1.56 1.26-4.08 1.98-1.68.54-2.25.54-.57 0-1.35-.42-1.2-.54-1.5-.54-.36 0-2.04-1.68-1.5-1.56-5.16-3.66-3.3-1.8-4.74-3.12-1.38-1.14-1.8-1.14-.42 0-2.1-1.74-.78-.84-1.2-1.26-.42-.42-.81-.48-.39-.06-.54.15-.15.21-.21 1.14-.06.93-.06 2.01 0 1.08.06 3.18.24 3.42.09 5.22-.15 1.8-.45 2.34-.3.54-1.14.54-.9 0-1.56-.48-.48-.36-.6-1.86t-.12-8.04q0-9.3.42-11.82.3-1.62.39-2.31.09-.69.24-1.59.15-.9.09-1.14-.06-.24 0-.57.06-.33-.09-.36-.15-.03-.3-.03h-.33q-.9.24-3.6.45-2.7.21-5.64 1.17-2.28.72-3.15.69-.87-.03-1.11-.81-.24-.54.39-1.53t1.35-1.23q3.96-1.44 7.44-1.92zm-4.38 11.82q.78-.6.93-.66.15-.06.75.12.6.3 1.14 1.44.54 1.14.54 2.16 0 1.98-.78 4.74-.78 2.76-2.04 4.8-.96 1.8-1.74 2.64-.78.84-2.58 2.1-1.74 1.14-2.64 1.5-.9.36-1.86.36-2.88 0-2.88-1.02 0-.48.96-.48 1.86 0 3.96-1.86 2.1-1.86 3.48-4.68 1.02-2.16 1.74-4.71t.42-2.91q-.24-.18-3.03.3t-4.23.96q-1.8.66-3.12.6-1.32-.06-1.56-.72-.42-1.38 1.32-2.04 1.14-.48 4.56-1.17t4.44-.69q1.26 0 2.22-.78zm63.36-19.56q.72.24.99.75t.09 1.83q-.3 2.04-.84 2.76-.18.06-.15.09t-.03.15q-.24.3-.24.6-.18.24 1.68.99 1.86.75 3.75 2.13t2.19 2.16q.06.84-.6 1.68-.6.42-1.08.48-.78 0-1.86-.96l-.42-.3q-.18-.06-.54-.42-1.14-.84-2.52-1.83-1.38-.99-1.68-1.14-.3-.15-.48.15-.72.42-3.3 3.06-2.34 2.22-2.94 2.7-.36.18-.6.42-.78.48-2.52 1.35-1.74.87-2.94 1.35-1.86.72-2.64-.48-.6-1.08.96-1.2.54.12 2.52-1.08 2.76-1.74 5.64-4.56 2.64-2.64 4.5-6.36.84-1.68 1.08-1.8.42-.3.39-1.23-.03-.93.27-1.17.42-.48 1.32-.12zm23.94 2.76q1.8.12 3.18.42 2.04.36 2.97.45.93.09 1.53-.09 1.14-.3 1.98.36.48.3.36 1.5-.12.6-.33 2.1-.21 1.5-.27 2.52-.42 2.64-.48 10.11-.06 7.47.24 13.71v5.7q-.12.3-.18.48t-.09.24q-.03.06-.27.3-1.5.66-2.64-.12-.3-.18-.24-.6-.18-1.32-.27-7.23-.09-5.91-.15-5.91-.06-.18-.39.18t-.33.42q-.12.24-.6.6-.24.06-.54.06-.66-.18-1.32-.63t-.66-.63l-1.44-2.13q-1.44-2.13-1.68-2.37-.6.3-2.04 1.74-1.26 1.14-2.4 1.92-1.38.9-2.46 1.26-.54.18-.96.12-.84-.06-1.08-.36-.78-.72 1.14-1.62 1.08-.54 2.94-2.34 2.64-2.64 2.58-3.3-.54-1.08-2.64-3.36-1.02-.96-1.2-1.26-.72-.9.24-1.8.36-.54.99-.18.63.36 1.71 1.17 1.08.81 1.98 1.59.66.54.84.72.18.18.78-.96 1.2-2.7 1.5-4.2.12-1.5 1.08-1.56 1.74-.06 2.1 2.34 0 .9-.36 2.1-1.02 1.98-1.77 3.18-.75 1.2-.81 1.5l.66.96q1.2 1.5 2.76 3.78.78 1.26.96 1.38.24-.18.42-2.82.12-1.98.3-7.08.06-5.94.36-6.24 0-.18.06-.66 0-1.08-.42-1.08-.6-.24-2.01-.45-1.41-.21-2.73-.21-3.48-.3-7.17-.27-3.69.03-5.19.33l-.24.06.3.24q.24.12.42 1.08.18.96.3 1.86.12.9.36 1.8l.18.9v2.1q0 1.92-.15 3.72-.15 1.8-.39 4.74-.6 4.5-1.44 7.26-2.16 6.06-5.82 8.7-1.5.96-3.42 1.14-1.14.18-1.08-.18-.18-.78.72-1.26 2.1-1.32 2.94-2.46 2.94-3.78 4.08-10.26.36-2.22.72-7.14.06-1.38.09-3.42t-.03-3.12q-.3-3.66-1.5-6.96-.3-.78-.12-1.23.18-.45.78-.69.6-.24 1.08 0 .18.06.39.45.21.39.69.39.18-.06.33-.09.15-.03 1.08-.27.93-.24 1.89-.42.96-.18 1.62-.3.72-.3 1.8-.36.84-.12 2.73-.15 1.89-.03 3.15.09zm-21.66 13.44q1.5.66 1.44 1.59-.06.93-1.44 1.29-.48.06-1.38.12-1.68 0-2.28.36-.6-.18-.48 1.92v1.5l.36-.06q3.42-.3 4.89-.21 1.47.09 1.35 1.41 0 1.02-.42 1.32-.18.42-3.3.48-1.92.06-2.22.12-.6-.18-.84 2.46-.84 6.42-.6 6.48.06 0 .6-.36 1.56-1.08 2.52-1.56 2.34-1.38 3.18-1.32.36 0 .45.24.09.24-.18 1.2t-.63 1.26q-.24.06-.36.18-.3.06-.87.54-.57.48-.6.48-.03 0-.51.48-2.82 2.64-4.8 3.96-.78.48-1.38.42-1.2-.12-1.5-.84-.54-.78.12-2.7.36-1.44.66-4.02.06-1.14.21-3.48t.15-2.58q-.3-.12-2.1.24t-2.76.66q-2.1.54-2.34.36-.66-.18-.9-.78-.12-.3 0-.54.12-.66 1.44-1.38 1.32-.72 4.8-1.32 1.8-.3 1.98-.36.3-.42.54-1.26.06-.42.06-1.26 0-1.32-.36-1.5-.06-.18-.36-.06-.66.12-1.83.21t-1.65.15q-1.44-.24-1.2-1.38.24-.9 1.92-1.26 1.02-.36 3.48-.72t4.62-.54q.9-.12 1.38-.18.3-.12.42-.09t.72.33zm70.44-18.42q.78-.54.99-.57.21-.03.99.51.66.54 1.56.54.96 0 2.82.48 2.64.66 3.36.78 2.76.42 1.26 2.7-.9 1.38-1.8 1.32-.9-.06-3.36-1.5-1.62-1.08-1.95-.78-.33.3-.33 2.88.06 2.4-.15 3.51-.21 1.11-.93 1.89-.36.48-1.11.39-.75-.09-1.11-.69-.24-.36-.06-3.42.06-2.16.03-2.49-.03-.33-.39.15-2.22 2.7-4.74 4.11-2.52 1.41-3.54.51-.54-.54-.24-1.23.3-.69 1.08-.69.72 0 2.22-1.38 1.26-1.14 2.94-3.33 1.68-2.19 1.68-2.73 0-.42.78-.96zm-17.28 1.86q.78-2.1 2.4-.84.66.54 3.54.54 2.82.06 4.14.42.78.3 1.02.6t.18.9q-.12 1.2-.66 1.47t-2.46-.15q-.48-.12-1.32-.3-2.16-.42-2.49-.18-.33.24-.15 2.28 0 .84.06 1.32.12 2.64.03 3.39t-.69 1.35q-.48.66-.72.69-.24.03-.9-.39-.78-.3-.93-.69-.15-.39-.15-1.59v-.48q0-.24-.06-.48 0-2.46-.21-2.73t-1.23.69q-.3.24-.48.36-3.36 2.94-4.95 3.72-1.59.78-2.37.18-.78-.72-.15-2.34.63-1.62 1.65-1.62.42 0 .42.54 0 .36.15.48t.39-.03q.24-.15.96-.63 1.14-.84 2.88-3.06t2.1-3.42zm20.58 11.1q.24-.3 1.08-.3 1.26 0 1.26 1.98 0 .54-1.23 1.14-1.23.6-3.39 1.02-.36.06-1.14.3-2.22.54-3 1.02l-.36 4.2h3.24q2.46 0 2.97.15.51.15.87.75.24.6.18.93-.06.33-.54.99-.48.66-.93.78-.45.12-1.65-.06h-2.76q-1.44.06-2.04.18-.36 3-.6 3.96.54.12 1.44.21.9.09 3.3.15 5.34.18 7.02.12 1.92-.06 2.46.6.48.48.48.72t-.54 1.2q-.48.84-.78 1.08-.3.24-1.02.18-.96-.06-7.14-.36l-5.46-.12-.12 3.54q-.06 2.94.27 3.57.33.63 1.77.93.54.06 7.44 1.62 5.7 1.38 8.46 1.59 2.76.21 4.44-.69 1.5-.66 3.84-2.28 2.34-1.62 2.88-2.34.36-.42.51-.48.15-.06.33.36.18.66-.96 2.34-2.7 3.96-5.82 5.58-2.88 1.44-6.87 1.08-3.99-.36-12.33-2.94-5.94-1.74-7.14-3.24-.84-4.02-.36-8.46-5.64-.12-9.36.48-3.72.6-4.62 1.08-.66.42-1.65.42-.99 0-1.47-.3-.66-.48-.3-1.14.36-.66 1.44-1.2 1.56-.72 6.48-1.71t7.32-1.05q2.28-.06 2.34-.36.18-.24.48-2.52l.24-1.86-1.56.24q-.54.12-2.52.33-1.98.21-2.34.27-3.18.42-4.56 0-1.14-.36-1.5-.96-.36-.6.15-1.08.51-.48 1.65-.48.72 0 5.79-.87t5.37-1.05l.36-3.18-4.5.06q-8.7 0-8.7-1.8 0-.48.36-.57.36-.09 2.04-.21 1.68 0 5.22.12 2.4.06 3.9-.27t4.92-1.47q3.24-1.08 4.98-1.32 1.86-.24 1.98-.6zm52.32-14.34q.42-.48 1.08-.48.84 0 1.53 1.08.69 1.08.69 2.4 0 1.02.42 1.23.42.21 3.12.57 3.36.36 4.8.36 1.62 0 2.88.51 1.26.51 1.56 1.17.3.72-.24 2.46-.54 1.68-.54 1.98 0 .24 5.1.24 5.04.06 6.45.66 1.41.6.57 2.34-.36.66-.72.78t-1.5-.12q-1.62-.18-5.07-.18t-4.89.18q-.96.12-1.29.57-.33.45-1.17 2.55-1.14 2.76-1.32 3.72-.36 1.08-1.26 1.44-.9.36-3.3.42-3.24.06-3.48.24-.18.24-.57 3.75-.39 3.51-.51 7.47-.12 3.84-.6 8.22-.48 4.38-.9 5.46-.42 1.02-1.95.6-1.53-.42-2.19-1.8-.42-.78-.39-1.05.03-.27.57-.57.78-.6.9-2.22.06-.36.15-.87t.15-1.05q.06-.54.12-.66.12-.72.36-5.76.18-7.14.84-10.02.06-.54-.27-.69-.33-.15-1.95-.15-2.4 0-5.16.96-2.52.84-3.72.9-1.2.06-1.74-.54-1.26-1.26 1.02-2.16 2.16-.9 10.44-2.46.96-.24 1.17-.54.21-.3.27-2.1l.06-2.34-2.7.18q-3.3.3-12.78 1.98-4.62.72-5.46.75-.84.03-1.08-.57-.36-.78.87-1.59t3.51-1.29q9.36-1.86 14.4-2.52 3.36-.36 3.66-.54.24-.18.18-2.4-.06-1.74-.18-2.01-.12-.27-1.02-.27-1.02 0-4.92.78-4.44.96-5.49 1.02-1.05.06-1.41-.72-.48-.78-.3-1.26.3-.66 1.89-1.26 1.59-.6 3.45-.9 2.28-.3 4.92-.84 1.98-.36 2.31-.66.33-.3.33-1.8 0-2.1.3-2.58zm10.98 8.64q-1.38.12-4.2-.24l-3.12-.24v4.14l3.72-.24q3.66-.18 4.14-.6.42-.36.42-1.56 0-.84-.18-1.05-.18-.21-.78-.21zm-.54 6.9q0-.24-2.16-.12t-3.12.42q-1.32.36-1.56.72t-.42 2.16l-.12 1.98 2.28-.24q2.52-.3 3.12-.66.6-.36 1.2-1.98l.78-2.28zm1.98 10.32q.6-.66.96-.66.42 0 1.17.66t.75 1.02q0 .96-3.93 4.11-3.93 3.15-5.19 3.27-.66 0-.57-.45.09-.45 1.17-1.59l3.06-3.42 2.58-2.94zm-26.58 4.44q.42-.36 2.1-.03 1.68.33 3.18.99 1.44.72 1.89 1.56.45.84-.45 1.2-.54.24-2.91-.27t-3.27-.99q-.6-.3-.81-1.14-.21-.84.27-1.32zm18.42 7.2q.66-1.62 4.32 1.14 5.1 3.66 8.91 5.07 3.81 1.41 7.41.81 1.92-.36 2.7-.03.78.33.42 1.35-.42 1.2-3.45 1.83-3.03.63-6.51.3t-5.1-1.53l-2.52-1.8q-1.62-1.02-3.99-3.81t-2.19-3.33zm-13.38 1.86q2.16-1.38 2.94-1.62.78-.24.78.42 0 .48-3.66 3.96t-4.56 3.84q-2.58 1.02-3.72-.6-.42-.66-.36-.99.06-.33.66-1.29 1.32-2.22 1.74-.54.18.72.42.66.24 0 1.56-1.02 1.44-1.2 4.2-2.82zm78.9-38.46q.48-.3.57-.3.09 0 .69.24 2.1.78 1.62 5.22-.3 2.64.06 2.64.48 0 2.37-2.04 1.89-2.04 2.31-3.06.66-1.2 1.5-1.35.84-.15 1.56.93.66 1.02.36 1.92-.3.9-2.76 3.21t-3.72 2.97q-1.14.6-1.56 1.62-.42 1.02.06 1.92.42.72 2.76 1.44 2.1.66 4.23.48 2.13-.18 5.55-1.38 2.64-.84 3.39-.66.75.18.21 1.62-.72 2.16-5.7 3.84-2.7.9-5.01.72-2.31-.18-5.07-1.5-.06-.06-.36-.12-1.2-.66-1.68-.87-.48-.21-1.11-.84-.63-.63-.75-.96-.12-.33-.27-1.56-.15-1.23-.12-2.19t.09-3.42V23q.18-7.5.78-7.86zm-13.32 1.98q.66-1.08 2.01.51 1.35 1.59 1.35 3.51 0 1.02.24 1.2.24.18 1.26.18 1.38 0 2.22-.42.84-.42 2.07.12t1.47 1.44q.24 1.08-.39 1.62t-2.13.54q-1.62 0-3.06.54-.9.36-1.23.78-.33.42-.57 1.5-.36 1.68-.18 1.86.24.24 2.22-.54 1.68-.66 3.96-1.02 2.28-.36 2.46.06.3.48-.36 1.02-.66.54-2.52 1.38-2.58 1.26-3.12 1.8-.66.72-2.94 1.38-1.68.6-2.07.6-.39 0-.87-.6-.54-.78-.24-1.44.42-.84.54-4.47.12-3.63-.06-6.93-.3-4.2-.06-4.62zm-11.34.48q.72-.36 1.17-.3.45.06 1.17.54.66.48.75 1.17.09.69.03 3.57-.12 3.06 0 3.57.12.51.72.27 2.76-.72 4.08-.24 1.86.72.48 2.76-.6.84-2.64 1.08-2.16.3-2.22.36-.18.06-.3 3.18-.12 2.28.09 2.7.21.42 1.35.6 2.82.48 3.6 1.32.78.84-.06 2.34-.9 1.56-3.54-.06-1.38-.84-1.56-.3-.12.42-.42 6.72-.24 5.28-.48 6.75-.24 1.47-1.2 2.61-.72.9-.93.93-.21.03-.93-.63-.6-.66-.75-1.35-.15-.69-.09-2.85.12-3.36.54-4.32.3-.9.33-3.57.03-2.67-.27-2.67-.24 0-2.58 1.8-3.72 2.94-6.12 3.6-2.4.66-3-1.08-.42-1.08.3-2.64.54-1.14.75-1.2.21-.06.75.66.54.66.87.72.33.06.99-.3 1.2-.6 3.24-3t2.94-4.08l1.86-3.6q.9-1.68.33-2.04-.57-.36-3.15.12-2.94.48-4.38.3-1.44-.12-2.04-.78-.6-.66 0-1.56.3-.54 1.62-.87 1.32-.33 4.98-.93.18 0 .6-.06 1.86-.24 2.19-.87.33-.63.33-4.17v-1.2q.06-2.58.6-3zm20.4 15.96q.42-.84 1.65-.84t1.71.84q.48.9.33 1.65-.15.75-.99 1.83-.9 1.2-.69 1.5.21.3 1.59 0 .96-.3 4.29-.21t5.91.45q.72.18 1.02 1.14.3.96-.12 2.04-.36 1.32-.78 4.14-.42 3.18-.78 4.62-.36 1.5-.42 4.62 0 2.7-.42 3.6-.42.6-1.32.72-.9.12-1.44-.42-.54-.48-4.65-.57-4.11-.09-6.81.39-1.98.36-2.7.36-.72 0-1.38-.42-1.2-.72-1.41-1.68-.21-.96.33-2.88.72-2.1.78-6 .06-3.9-.48-5.58-.6-1.5-1.38-1.74-.72-.24-.78-1.26-.06-1.02.6-1.2.66-.3 2.22.6 1.5.9 2.22.72.66-.24 2.1-2.22 1.44-1.98 1.44-2.7 0-.6.36-1.5zm.3 8.52q-2.4.48-2.79.81-.39.33-.09 1.83.24 1.74.42 1.92.18.3 8.22-.78 2.76-.42 3.27-.66.51-.24.69-1.38.18-1.44-.33-1.74-.51-.3-3.96-.27-3.45.03-5.43.27zm9.12 9.66q0-2.34-.15-2.7-.15-.36-1.17-.3-1.44.06-4.02.54-1.32.3-4.38.84-1.74.18-2.1.42-.36.24-.6 1.5 0 .18-.21 1.14t-.27 1.32q-.12.66.03.78t1.29.21q1.14.09 3.72-.09.54-.06 1.56-.06 1.44-.06 2.1-.09.66-.03 1.56-.15t1.17-.15q.27-.03.69-.24.42-.21.48-.3t.21-.48q.15-.39.12-.66t-.03-.87v-.66z"/></svg>