<svg viewBox="0 0 354 80" xmlns="http://www.w3.org/2000/svg"><path d="M30.46 13.46q.6-.24 1.56-.09.96.15 1.41.57.45.42 1.17 2.67t.72 3.21q0 .9-.78 1.74-1.32 1.32-2.76.48-1.44-.84-2.22-3.36-1.32-4.26.9-5.22zm19.02 11.1q2.04-.24 2.61-.21.57.03 1.23.33 2.1 1.14 1.08 3.36-.36.78-1.23 1.14-.87.36-2.73.48-.24 0-.66.06-2.04.18-2.49.54-.45.36-1.17 2.52-.18.48-.24.72-.96 2.7-3.21 7.47t-3.81 7.47q-1.32 2.16-1.32 2.34 0 .54 3.81 1.86t6.99 1.92q2.22.42 3.24.39 1.02-.03 2.34-.51 1.5-.54 2.16-.51.66.03 1.44.75.78.78.78 1.74 0 1.68-1.95 2.67t-5.13.93q-3.12 0-7.11-1.05t-7.59-2.79l-2.58-1.2-1.44 1.38q-2.22 2.04-5.4 3.66t-5.16 1.62q-.72 0-1.08-.18-.36-.18-.84-.72-1.08-1.26-.51-2.49.57-1.23 2.49-1.77 1.68-.48 3.54-1.47t3.06-2.07l1.38-1.2-1.32-1.38q-2.16-2.34-3.96-5.79-1.8-3.45-1.8-5.37 0-1.14.66-1.8.66-.66 1.86-.66 1.02 0 1.56.54T28 39.26q.6 1.86 1.89 4.05 1.29 2.19 2.73 3.75.42.42.51.42.09 0 .45-.42.9-1.2 3.09-5.49T40 34.4q.18-.48.48-1.26.9-2.16.69-2.52-.21-.36-2.49-.24-.78.06-1.26.06-4.62.24-9.36.66-5.1.42-8.4.3-2.28-.06-2.82-.18t-1.02-.66q-.72-.84-.66-1.89.06-1.05.84-1.71.6-.54 1.23-.63.63-.09 3.27-.09 3.18 0 8.34-.42 4.56-.36 11.76-.72 6.72-.3 8.88-.54zm28.2-11.52q.48-.36 1.77-.45 1.29-.09 6.99-.09 6.78 0 8.73.3 1.95.3 3.09 1.44.96.96 1.26 3.45.3 2.49.24 8.55-.06 4.44-.18 5.64-.12 1.2-.48 1.98-.36.66-.66.96-.3.3-.75.57-.45.27-1.68.36-1.23.09-2.58.12t-4.29.03q-3.6 0-5.28-.06-1.68-.06-2.94-.3t-1.65-.66q-.39-.42-.87-1.26-.84-1.68-1.44-12.24-.3-4.74-.15-6.24t.87-2.1zm16.86 4.32q-.24-.24-6.48-.39-6.24-.15-6.48.09-.24.18-.24 1.2v1.02l5.46-.06q5.28 0 6.9.24 1.14.18 1.29.09.15-.09.03-.87-.18-1.08-.48-1.32zm.6 7.02q-.24-.36-6.24-.48-4.74-.06-6 .03-1.26.09-1.26.51 0 .36 1.86.54 1.98.18 6.78.18 4.8 0 4.92-.24.12-.18-.06-.54zm-3.24 5.46q-2.94 0-6.3-.18-2.4-.12-2.97.03-.57.15-.33.99.12.36 1.05.45.93.09 5.49.09h3.93q.93 0 1.2-.06.27-.06.63-.09t.39-.12q.03-.09.09-.15t.06-.24q0-.54-.42-.63-.42-.09-2.82-.09zm14.04.36q1.14-.96 2.46-.36.9.42 1.05 1.41.15.99.03 4.59-.24 4.38-.78 5.34-1.2 1.92-3.9 2.28-1.56.18-3.06.54-1.44.36-2.28.54-.6.12-.69.39-.09.27-.03 1.65l.06 1.86 5.82-.12q3.84-.06 5.01 0t1.65.36l.48.24q.12.06.3.39t.21.54q.03.21.12 1.08.09.87.15 1.59.06.72.18 2.52.36 5.34.27 6.6-.09 1.26-.69 1.74-1.68 1.32-3-.12-.66-.66-.78-2.94-.12-.9-.42-4.86l-.18-2.64-3.84.06q-.36.06-.96.06h-1.86q-.54 0-1.2.12-.66.12-.81.18-.15.06-.36.36t-.21.51q0 .21-.06.81v.48q-.48 6.24-2.7 7.02-.72.24-1.53-.15t-1.17-1.11q-.18-.48-.15-.96t.45-1.68q.42-1.26.51-2.61.09-1.35.15-6.57v-4.08q0-1.08.03-1.44.03-.36.06-.96t.12-.78q.09-.18.15-.45t.24-.36q.18-.09.3-.21t.42-.24q.54-.36 4.74-1.2t4.44-1.08q.18-.18.36-3.96.06-2.7.21-3.3.15-.6.69-1.08zm-35.4 4.02q1.44-1.32 2.76-.36 1.2.84 1.2 5.28v2.82h4.02q4.14 0 6.24-.48 1.56-.3 1.95-.3.39 0 .93.42.78.54 1.08 1.56.3.96.66 9.54.18 5.88.18 7.29 0 1.41-.36 1.89-.72 1.14-1.86 1.2-1.14.06-1.8-.96-.48-.72-.6-4.32l-.12-3.6h-6.9l-.12 3.6q-.18 3.54-.78 4.68-.78 1.5-2.01 1.65-1.23.15-2.07-1.17-.36-.48-.36-.84t.3-1.56q.72-2.64.3-5.16-.12-.72-.27-.9-.15-.18-.69-.18-.78 0-2.1.36-.9.18-1.26.15t-.84-.33q-1.32-.84-1.05-2.28t1.83-1.98q.72-.24 5.61-.51 4.89-.27 9.09-.33.9 0 1.02-.18t.06-1.26l-.06-1.44h-6q-4.2 0-5.19-.09-.99-.09-1.53-.51-1.32-1.02-1.62-1.95-.3-.93-.36-4.47-.06-3.3.03-3.96.09-.66.69-1.32zm62.7-18.12q.6-.3 8.4-.3 5.82 0 6.9.09t1.74.63q.84.72.84 1.56 0 1.44-1.05 2.07-1.05.63-3.51.63h-2.1l.12 2.1q.06.36.12.96t.03.75q-.03.15.15.54t.15.42q-.03.03.42.24.45.21.57.18.12-.03.96.03t1.2 0q.36-.06 1.68-.09 1.32-.03 2.1-.03 5.16-.18 6.09-.09.93.09 1.47.57 1.02 1.02.66 2.34-.36 1.32-1.74 1.68-.78.3-4.38.3-4.14.12-4.14.48 0 .24 2.22 1.26 2.76 1.38 6.42 2.82t5.4 1.86q1.86.54 2.46 1.02.84.9.36 2.37-.48 1.47-1.68 1.65-1.2.18-5.7-1.38-4.5-1.56-9.66-3.96-3.48-1.62-3.84-1.62-.3 0-.3 2.58v2.58l3 .3q5.52.66 6.24 1.8.72 1.08 1.02 3.39.3 2.31.42 7.59.12 4.56.06 5.91-.06 1.35-.36 2.19-.9 2.4-3.54 2.94-1.02.18-6.75.42t-8.43.24q-3.6-.06-4.98-2.88-.78-1.62-1.05-3.84-.27-2.22-.27-7.14 0-4.68.24-5.94.24-1.26 1.32-2.22 1.98-1.62 5.76-2.1 1.8-.24 2.04-.48.3-.12.3-3.03 0-2.91-.24-2.91-.18 0-1.14.72-2.76 2.04-9.78 5.52-3.36 1.62-4.62 1.86-1.26.24-2.1-.72-.6-.72-.63-1.62-.03-.9.51-1.44.54-.48 4.92-2.64 3.36-1.68 5.88-3.09t2.52-1.65q0-.24-4.14-.24-4.08 0-4.92-.3-.9-.3-1.32-1.2-.42-.9-.12-1.8.3-.84.9-1.14.6-.3 2.07-.42 1.47-.12 5.13-.12 6.24 0 6.36-.24.12-.18-.18-2.7l-.3-2.52-3-.12q-2.34-.06-3.15-.39t-1.23-1.41q-.24-.66.15-1.62.39-.96 1.05-1.2zm16.92 29.76q-1.2-.36-5.25-.39-4.05-.03-5.73.33-2.46.48-2.85.87-.39.39-.39 2.31v2.16l7.5-.12q7.56-.18 7.74-.36.18-.18 0-2.4-.12-1.56-.27-1.89-.15-.33-.75-.51zm.06 9.96q-3.6-.12-8.88.18-4.98.18-5.28.42-.18.24.09 1.8t.57 1.86q.18.24 3.18 0 3.6-.24 7.08-.3 3.96-.06 4.2-.18.24-.18.24-1.92 0-1.32-.15-1.56t-1.05-.3zm35.4-41.58q1.14-1.02 2.31-.39 1.17.63 1.17 2.25v1.08l4.08.06h2.04q3.06.18 4.47.09 1.41-.09 1.65-.24t.24-.69v-.3q.12-1.2.81-1.89.69-.69 1.65-.51.9.18 1.29.69t.51 1.59l.18 1.32h5.1q5.04 0 5.64.24.66.24.96 1.08.3.84 0 1.56-.36.9-1.56 1.17-1.2.27-5.22.45l-4.38.18-.12 1.44q-.18 1.32-.63 1.86t-1.47.54q-.96 0-1.5-.6t-.54-1.68q0-.54.03-.72.03-.18-.3-.48-.33-.3-.48-.33-.15-.03-1.2-.12t-1.8-.09h-2.91l-6.12-.06v1.62q0 1.62-.24 2.25-.24.63-.96.93-1.32.48-2.22-.42-.9-.9-1.08-2.88l-.18-1.68h-3.48q-2.52 0-3.15-.09-.63-.09-1.11-.51-.72-.6-.78-1.5-.06-.9.6-1.56.42-.36 1.08-.48.66-.12 3.06-.18l3.54-.12.18-1.14q.12-1.14.84-1.74zm4.62 11.94q.66-.84 1.05-1.08.39-.24.99-.24 1.44 0 1.89 1.26.45 1.26-.57 2.64-.66.9-.66.99 0 .09 1.92.09h1.98l-.24-1.32q-.12-.96-.03-1.29.09-.33.57-.81 1.2-1.14 2.34-.51 1.14.63 1.56 2.61v.12q.06.36.09.48t.24.27q.21.15.36.15h.84q.69 0 1.23-.06t1.86-.18q.36 0 .54-.06 3-.24 4.02-.03 1.02.21 1.44 1.23.36.84-.06 1.56-.78 1.38-3.24 1.44-1.26 0-4.14.36l-2.64.3.12 1.26q.06 1.2.36 1.5.24.24 3.57-.06t4.29.06q1.14.48 1.14 1.8t-1.14 1.86q-.78.36-4.08.66-3.36.24-3.48.36-.06.06.12 1.62l.18 1.56 3.78-.18q2.82-.12 3.39-.06.57.06 1.11.6 1.32 1.38.06 2.82-.48.6-1.08.72-.6.12-3.42.24-.9.06-1.86.12-.96.06-1.47.09l-.51.03q-.12 0-.12 1.23t.36 1.29q.18 0 4.38.06 3.48.06 4.35.39.87.33.87 1.71 0 .66-.15.96-.15.3-.42.6t-1.17.39q-.9.09-1.98.15t-3.3.12q-4.68.18-12.42.24-4.5 0-5.67-.06t-1.59-.42q-.48-.36-.57-1.59-.09-1.23-.03-8.19.06-9.24-.18-9.24-.36 0-2.04.78-1.74.84-2.4.84-1.14 0-1.68-1.11t0-2.19q.36-.6 2.58-1.68 3.06-1.5 4.65-2.85 1.59-1.35 4.11-4.35zm7.14 11.04l-.12-1.44-.06-1.38-3.66-.12q-3.66-.06-3.78.3-.18.42-.24 1.38t0 1.26q.3.6 5.7.12l2.16-.12zm.66 7.62v-3l-2.52-.06q-2.76 0-4.14.06-1.32.12-1.53.33-.21.21-.21 1.35v1.5l4.2-.12 4.2-.06zm.18 5.58l-.12-1.02h-4.26q-4.2 0-4.26.18 0 .18-.06.78-.18.48 0 1.02.12.3.84.39.72.09 3.54.09 4.2 0 4.38-.24.18-.24-.06-1.2zm5.46 8.04q.54-.54 1.47-.54.93 0 1.35.54.48.48 1.02 2.25t.54 2.73q0 2.1-2.52 1.92-1.26-.06-1.98-2.76-.9-3.12.12-4.14zm-11.22 0q1.44-.6 2.52.66.48.6.3 1.68-.3 2.22-.36 2.46-.12 1.38-.72 1.98-.54.66-1.38.66-.84 0-1.44-.6-.42-.36-.54-.81-.12-.45-.12-1.59 0-1.56.51-2.85t1.23-1.59zm21.66.3q.48-.48 1.17-.54.69-.06 1.29.24.54.24 1.92 1.98 1.26 1.5 1.41 2.43.15.93-.75 1.65-1.02.78-2.01.36-.99-.42-2.49-2.34-1.92-2.46-.54-3.78zm-31.8.78q1.2-.48 2.28.72.6.66.57 1.23-.03.57-.69 1.77-.78 1.5-1.23 1.92-.45.42-1.35.42-1.38 0-1.83-.99-.45-.99.21-2.49.96-2.16 2.04-2.58zm64.02-40.44q.66-.66 1.62-.81.96-.15 1.8.33 1.44.72 1.32 4.23-.12 3.51-1.8 8.61-.96 3.06-.96 3.48 0 .84 4.53 4.86 4.53 4.02 8.97 7.26 4.08 2.88 6.18 4.53 2.1 1.65 3.18 2.94t1.02 2.04q-.06.75-.84 1.59-1.14 1.2-2.4.78-1.26-.42-4.2-2.88-1.26-1.08-5.88-4.44-6.6-4.68-10.8-8.76-2.28-2.28-2.4-2.16-.06.06-1.68 3.06-3.24 5.88-6.66 10.68t-4.74 5.22q-1.8.66-2.67-.09-.87-.75-.54-2.43.33-1.68 1.83-3.66 6.3-8.22 10.32-17.01 4.02-8.79 4.02-14.25 0-1.62.12-2.07.12-.45.66-1.05zm65.04-3.3q.48-.3 1.35-.39.87-.09 1.47.15 1.26.48 1.26 4.44 0 2.58.12 4.14l.24 1.44h5.34q3.18 0 4.47.12 1.29.12 1.86.45.57.33.87 1.17.48 1.62-.84 2.82-.36.36-1.29.45-.93.09-4.59.21l-5.22.18.06.96q.12.9.72 1.5.54.6 5.64 3.72 8.94 5.4 9.78 6.66.42.66.42 1.62 0 1.02-.84 1.74-.96.78-1.86.6-.9-.18-2.94-1.62-2.22-1.56-6.12-3.96t-4.08-2.28q-.12.12.12 4.05.24 3.93.36 4.05.18.18 3.72-.18 3.66-.36 4.62-.27.96.09 1.62.87 1.44 1.62-.06 3.36-.6.66-1.23.81-.63.15-3.93.39-4.38.3-4.5.36-.12 0 .54 6 .18 1.62.18 2.22 0 .6-.3 1.14-.6 1.14-1.77 1.35-1.17.21-2.07-.57-.54-.42-.72-1.08-.18-.66-.42-3-.12-1.32-.54-4.62l-.24-1.2-3.42.18q-2.52.12-3.06.06t-1.14-.72q-.78-.84-.81-1.8-.03-.96.75-1.74.54-.54 1.14-.69.6-.15 2.94-.27 3.3-.24 3.42-.36.12-.12-.18-4.83t-.42-4.83q-.18-.12-5.34 5.04-5.22 5.16-6 5.64-1.56.96-2.88-.18-1.44-1.2-.9-2.58.18-.54 7.26-7.74 7.14-7.14 7.02-7.5-.12-.36-4.98-.24-4.02.12-5.22-.12-1.2-.24-1.68-1.26-.42-.66-.42-1.11 0-.45.3-1.17.48-1.02 1.62-1.26 1.14-.24 5.1-.24h4.86l-.24-3.66q-.12-3.06.12-4.47.24-1.41.96-1.95zm-17.04 3.12q.78-.6 1.92-.42t1.74 1.02q.66.78.24 1.92-.42 1.14-2.22 3.9-1.68 2.52-1.98 3.18-.3.66-.12 1.26.3.96 1.02 12.18.66 10.62 1.5 15.9.24 1.44.03 2.16-.21.72-.99 1.32-1.14.9-2.58.18-.78-.42-1.11-1.35-.33-.93-.69-3.75-.66-5.04-1.26-14.16-.48-7.62-.6-7.74-.18-.18-2.46 2.16-2.28 2.34-3.06 2.52-1.38.36-2.31-.33-.93-.69-.93-2.01 0-.78.42-1.38.42-.6 2.28-2.52 5.1-5.22 8.52-10.38 2.16-3.3 2.64-3.66z"/></svg>