<svg viewBox="0 0 487 80" xmlns="http://www.w3.org/2000/svg"><path d="M46.84 18.14h20.94q1.68 0 1.98 1.26.06.3.06.84t-.06.72q-.18.84-.72 1.17-.54.33-1.26.33h-7.32v.36q-.96 8.7-4.92 15.42-3.36 5.58-7.8 9.9 1.92 1.38 3.93 2.58 2.01 1.2 4.11 2.16 5.64 2.52 12.54 4.14 1.14.3 1.53 1.08.39.78.21 1.62 0 .54-.33 1.26t-.63 1.14q-.54.84-1.41 1.02-.87.18-1.77-.06-6.78-1.8-13.02-4.86-4.98-2.46-9.66-6.3-2.46 1.8-5.04 3.36-2.58 1.56-5.46 2.88-3.6 1.62-7.2 2.88-3.6 1.26-7.26 2.22-1.14.3-1.86-.42-.48-.66-.66-1.62-.12-.54.18-1.14.3-.6 1.14-.9 6.72-2.4 13.02-5.58 4.86-2.58 8.88-5.7-3.78-4.02-7.02-9.18-4.38-6.9-7.5-16.14l-.06-.12h-6q-.66 0-1.23-.3t-.69-1.2q-.12-.84 0-1.56.12-.78.63-1.02t1.29-.24h22.26q-.06-.12-.12-.21t-.12-.21q-.78-1.62-1.62-3.3-.84-1.68-1.14-2.52-.36-.9.42-1.62.12-.12.57-.36.45-.24.75-.36.54-.12 1.02-.06t1.02.54q.54.48 1.38 1.41.84.93 1.68 1.98.84 1.05 1.53 2.01.69.96.87 1.44.18.66-.06 1.26zM36.46 35.96q3.24 4.8 6.66 8.22 3.84-3.9 6.48-8.52 3.18-5.58 4.56-13.2H29.38q1.68 3.96 3.45 7.32 1.77 3.36 3.63 6.18zm55.08-25.8h23.28q1.44 0 2.34.93.9.93.9 2.37V28.4q0 1.56-.9 2.46-.9.9-2.34.9H91.54q-1.44 0-2.4-.9t-.96-2.46V13.46q0-1.44.96-2.37.96-.93 2.4-.93zm-14.16 52.8q-.66-.48-.84-.72-.3-.36-.18-.81.12-.45.3-.69 1.98-2.7 3.18-5.22 1.2-2.52 1.56-5.7.12-.78.18-1.62.06-.84.12-1.8h-3.24q-.6 0-1.05-.21-.45-.21-.63-1.05-.06-.3-.09-.63t.09-.69q.12-.66.54-.87.42-.21 1.14-.21h16.92v-3.42q0-1.38-1.2-1.38H83.2q-2.58 0-3.75-1.17t-1.17-3.39V14.9q0-.84.51-1.2t1.17-.48q.54 0 1.02-.06t.96.06q1.5.24 1.5 1.68v17.76q0 .72.39 1.29.39.57 1.23.57h11.58q3.96 0 3.96 3.96v22.68q0 .66-.45 1.11-.45.45-1.05.57-1.38.3-2.22 0-1.5-.24-1.5-1.68V46.4H86.8q-.06 1.08-.15 2.16t-.27 2.1q-.66 3.42-2.4 6.63-1.74 3.21-4.8 5.61-.72.72-1.8.06zm50.64-48.06v18.48q0 2.22-1.17 3.39t-3.75 1.17h-11.04q-1.2 0-1.2 1.38v3.42h13.44q4.08 0 4.08 4.14V60.8q0 1.74-1.68 1.98-1.2.18-1.98 0-.84-.18-1.2-.6t-.36-1.38V47.54q0-1.14-1.08-1.14h-11.22v14.76q0 1.44-1.5 1.68-.84.3-2.22 0-.6-.12-1.05-.57-.45-.45-.45-1.11V38.48q0-3.96 3.96-3.96h11.64q.84 0 1.23-.57t.39-1.29V14.9q0-1.44 1.5-1.68.48-.12.96-.06t1.02.06q.66.12 1.17.48.51.36.51 1.2zM94.48 28.52h17.34q1.38 0 1.38-1.32v-1.86H93.22v1.86q0 1.32 1.26 1.32zm-1.26-9.18v2.88h19.98v-2.88H93.22zm19.98-3.18v-1.44q0-1.38-1.38-1.38H94.48q-1.26 0-1.26 1.38v1.44h19.98zm25.2 38.04V18.8q0-2.1 1.41-3.48t3.27-1.38h10.68q5.28 0 9.21 1.8 3.93 1.8 6.54 4.86 2.61 3.06 3.9 7.11 1.29 4.05 1.29 8.49 0 5.04-1.38 9.21-1.38 4.17-3.96 7.2-2.58 3.03-6.33 4.68t-8.49 1.65h-11.4q-1.02 0-1.89-.42-.87-.42-1.5-1.08-.63-.66-.99-1.5t-.36-1.74zm6.6-34.74V53.3q0 .3.21.57.21.27.45.27h6.72q4.14 0 7.02-1.5t4.68-4.02q1.8-2.52 2.61-5.76.81-3.24.81-6.66 0-3.48-.84-6.63t-2.7-5.55q-1.86-2.4-4.8-3.84-2.94-1.44-7.14-1.44h-6.24q-.24 0-.51.24t-.27.48zm56.76 34.98q2.28 0 3.9-.21t2.85-.6q1.23-.39 2.25-.93t2.1-1.2q.6-.3 1.2-.39.6-.09 1.02.21.54.42.96.78.42.36.6 1.08.12.48 0 .9-.12.42-.6.9-1.74 1.68-5.67 2.97-3.93 1.29-9.03 1.29-5.4 0-9.48-1.95t-6.81-5.13q-2.73-3.18-4.14-7.32-1.41-4.14-1.41-8.52t1.41-8.49q1.41-4.11 4.2-7.29 2.79-3.18 6.93-5.13 4.14-1.95 9.66-1.95 2.58 0 4.68.39 2.1.39 3.78.99 1.68.6 2.94 1.38 1.26.78 2.1 1.5.78.72.9 1.32.12.6-.06.9-.24.42-.57.84-.33.42-.81.9-.36.36-.99.36t-1.11-.36q-.9-.66-1.74-1.29t-1.95-1.11q-1.11-.48-2.7-.78-1.59-.3-4.05-.3-3.9 0-6.75 1.62t-4.74 4.23q-1.89 2.61-2.79 5.82-.9 3.21-.9 6.45t.96 6.48q.96 3.24 2.85 5.82 1.89 2.58 4.65 4.2 2.76 1.62 6.36 1.62zm41.76 7.8q-.54.54-1.14.6-.36.06-1.02.06t-1.14-.06q-.66-.12-1.2-.51-.54-.39-.54-1.23V38.24q0-2.52 1.2-3.63 1.2-1.11 3.72-1.11h23.82q2.4 0 3.6 1.11 1.2 1.11 1.2 3.63v19.5q0 2.52-1.53 3.99-1.53 1.47-4.29 1.41-1.14 0-2.76-.27-1.62-.27-2.64-.75-.6-.3-.78-.63-.18-.33-.18-.81 0-.18.06-.54.06-.36.18-.72.36-.72 1.26-.72 1.02 0 1.83.09t1.59.09q1.62 0 1.62-1.98v-3.72H244v7.92q0 .66-.48 1.14zm14.28-49.5h13.92q1.32 0 1.62 1.08.06.12.06.57 0 .45-.06.63-.18.66-.63.87-.45.21-.99.21H257.8v3.6h11.82q1.32 0 1.62 1.08.06.12.06.57 0 .45-.06.69-.18.66-.63.87-.45.21-.99.21H257.8v3.9h15.84q1.38 0 1.68 1.02.06.24.06.72t-.06.6q-.36 1.14-1.68 1.14h-37.38q-.48 0-.99-.18t-.63-.96q-.06-.36-.06-.75t.12-.69q.24-.9 1.56-.9h16.02v-3.9h-12.12q-.42 0-.93-.18t-.63-.9q-.12-.6 0-1.26.24-1.08 1.56-1.08h12.12v-3.6h-13.74q-.48 0-.99-.18t-.63-.9q-.06-.6 0-1.2.24-1.08 1.62-1.08h13.74v-1.68q0-.96.48-1.32.48-.36 1.26-.48.78-.06 2.04 0 1.74.12 1.74 1.8v1.68zm-25.02 25.38q.3.06.69.15.39.09.69.27 1.02.48.9 1.5-.12.78-.6 2.31t-1.14 3.51q-.66 1.98-1.53 4.17t-1.71 4.26q-.84 2.07-1.68 3.75-.84 1.68-1.5 2.64-.54.72-1.29.81-.75.09-1.35-.03-1.02-.24-1.98-.9-.66-.42-.78-1.11-.12-.69.3-1.35.84-1.44 2.04-3.78 1.2-2.34 2.52-5.01t2.52-5.34q1.2-2.67 2.04-4.77.3-.78.78-.96.48-.18 1.08-.12zM244 45.14v4.56h22.38v-4.56H244zm20.22-7.98H246.4q-1.5 0-1.95.48-.45.48-.45 1.56v2.34h22.38V39.2q0-1.02-.42-1.53t-1.74-.51zm-34.86-4.26q-.66-.42-1.71-1.29-1.05-.87-2.13-1.8-1.08-.93-1.98-1.74-.9-.81-1.14-1.11-.42-.36-.42-.75t.12-.81q.24-.66.66-.96.84-.66 1.68-.18.72.3 1.98.96 1.26.66 2.55 1.41 1.29.75 2.34 1.44 1.05.69 1.41 1.05.48.48.45 1.11-.03.63-.27 1.11-.48.9-1.08 1.44-.48.42-1.14.51-.66.09-1.32-.39zm1.8-13.8q-.54-.42-1.62-1.23t-2.22-1.71q-1.14-.9-2.04-1.68-.9-.78-1.14-1.08-.42-.42-.45-.75-.03-.33.15-.75t.36-.63q.18-.21.36-.39.3-.3.78-.33.48-.03.9.09.6.18 1.8.75 1.2.57 2.49 1.29 1.29.72 2.4 1.41 1.11.69 1.47 1.05.54.54.54 1.2 0 .66-.24 1.14-.3.48-.57.87-.27.39-.57.63-.36.3-1.05.45-.69.15-1.35-.33zm57.18-7.92h39.96q1.92 0 3.24 1.26 1.32 1.26 1.32 3.12v41.16q0 1.86-1.32 3.18t-3.24 1.32h-39.96q-.9 0-1.74-.39t-1.47-1.02q-.63-.63-.99-1.47t-.36-1.74V15.56q0-1.86 1.32-3.12t3.24-1.26zm22.44 36.12q.66-.66 1.62-.3.78.3 2.58 1.11t3.81 1.8q2.01.99 3.84 1.92 1.83.93 2.61 1.47.66.48.66 1.14 0 .66-.24 1.14-.48.9-1.2 1.44l-.48.24q-.24.12-.54.18h2.4q1.62 0 1.62-1.8V16.52q0-1.62-1.62-1.62h-35.1q-1.56 0-1.56 1.62v39.12q0 1.8 1.56 1.8h32.1q-.36-.06-.72-.36-3.3-2.04-6.33-3.93-3.03-1.89-5.19-3.57-.72-.6-.36-1.44.12-.42.54-.84zm-12.24-29.94h19.74q1.8 0 2.82 1.14 1.02 1.14 1.02 2.82v3.12q0 1.8-1.02 2.88-1.02 1.08-2.82 1.08h-19.74q-3.9 0-3.9-3.96v-3.12q0-1.68.96-2.82t2.94-1.14zm-1.38 13.08h22.26q4.26 0 4.26 3.96v14.04q0 .84-.48 1.26-.48.42-1.14.54-.3.06-.9.06-.6 0-1.02-.06-.66-.12-1.2-.54-.54-.42-.54-1.26V35.18q0-1.38-1.02-1.38h-17.94q-.96 0-.96 1.26v13.38q0 1.62-1.86 1.86-.84.12-1.62 0-.72-.06-1.23-.57t-.51-1.29V34.4q0-1.98 1.05-2.97 1.05-.99 2.85-.99zm13.74 6.84v2.22q0 3.12-.93 5.58t-2.4 4.32q-1.47 1.86-3.39 3.24-1.92 1.38-3.87 2.31-1.95.93-3.84 1.5t-3.33.87q-1.26.3-1.92-.54-.12-.24-.24-.51t-.18-.69q-.18-1.32 1.14-1.74 1.26-.36 3.57-1.17 2.31-.81 4.59-2.43t3.96-4.2q1.68-2.58 1.68-6.48v-2.4q0-.66.36-1.17.36-.51 1.14-.63 1.14-.06 1.92 0 1.74.18 1.74 1.92zm6-13.62V22.1q0-1.44-1.38-1.44h-14.34q-1.32 0-1.32 1.44v1.56q0 1.38 1.32 1.38h14.34q1.38 0 1.38-1.38zM375.04 9.5q1.02 0 1.47.48.45.48.45 1.26v5.52h14.88q.54 0 .96.27.42.27.54.87.06.12.06.66t-.06.84q-.12.66-.57.96-.45.3-.93.3h-13.38q.78 1.68 1.62 3.33.84 1.65 1.8 3.21 1.86 3.3 3.75 6.24 1.89 2.94 3.63 5.4 1.74 2.46 3.24 4.35 1.5 1.89 2.58 3.03.66.66.57 1.38-.09.72-.45 1.26-.18.3-.72.72t-1.2.78q-1.44.78-2.76-.36-.6-.48-2.19-2.73-1.59-2.25-3.6-5.52-2.01-3.27-4.11-7.23-2.1-3.96-3.66-7.92v21.48h8.46q.54 0 .96.27.42.27.54.87.06.12.06.66t-.06.84q-.12.66-.57.96-.45.3-.93.3h-8.46v9.24q0 1.02-.51 1.41-.51.39-1.05.51-1.14.18-2.4 0-.66-.12-1.08-.48-.42-.36-.42-1.44v-9.24h-8.58q-.48 0-.96-.24t-.6-1.02q-.06-.9 0-1.5.12-.66.57-.9.45-.24.99-.24h8.58V28.94q-.66 1.62-1.08 2.55-.42.93-.9 1.77-1.68 3.18-3.51 5.94-1.83 2.76-3.63 5.01-1.8 2.25-3.48 3.84-1.68 1.59-3 2.37-.48.3-.99.24t-.81-.3l-.48-.48q-.24-.24-.36-.42-.18-.36-.15-.84t.45-.96q5.4-6 9.33-12.84 3.93-6.84 6.09-14.16h-11.34q-.48 0-.96-.24t-.6-1.02q-.06-.9 0-1.5.12-.66.57-.9.45-.24.99-.24h13.86v-5.52q0-1.38 1.38-1.68.42-.12.96-.09t1.2.03zM344.2 36.32q-.66.66-1.68.36-.48-.18-.72-.36t-.3-.24q-.78-.78-.24-1.62 1.98-3.3 3.33-6.24 1.35-2.94 2.31-5.76t1.68-5.64q.72-2.82 1.44-5.88.24-.96.9-1.11.66-.15 1.14-.15.78.06 1.35.18.57.12.93.24 1.5.66 1.2 1.98-.48 2.52-1.47 5.43-.99 2.91-2.01 5.25l-1.02 2.34q.54.12.72.24.72.48.72 1.14V61.1q0 1.74-1.5 1.86-.3.06-1.14.06-.84 0-1.2-.06-.66-.06-.99-.42-.33-.36-.33-1.32V32.36L346 34.28q-.36.48-.81 1.02-.45.54-.99 1.02zm55.86 30.06h30.84q.48 0 .9.15.42.15.6.51.3.48.3 1.35 0 .87-.3 1.41-.24.42-.63.6t-.87.18h-30.84q-.48 0-.9-.18-.42-.18-.6-.6-.3-.6-.27-1.35.03-.75.27-1.29.18-.36.6-.57.42-.21.9-.21zm38.04-12.54V18.86q0-1.92 1.26-3.33 1.26-1.41 3.84-1.41h9.18q3.3 0 5.82.96 2.52.96 4.23 2.49 1.71 1.53 2.61 3.45.9 1.92.9 3.84 0 3.72-2.01 6.36t-5.07 3.48v.12q2.22.18 4.2 1.11 1.98.93 3.48 2.4 1.5 1.47 2.34 3.42.84 1.95.84 4.17 0 2.64-1.08 5.04t-3.18 4.2q-2.1 1.8-5.16 2.85t-6.96 1.05h-9.66q-2.46 0-4.02-1.38-1.56-1.38-1.56-3.84zm6.48-34.56v13.8h6.12q3.96 0 6.09-2.07t2.13-5.19q0-1.5-.48-2.82-.48-1.32-1.47-2.28-.99-.96-2.52-1.53-1.53-.57-3.57-.57h-5.58q-.3 0-.51.21-.21.21-.21.45zm0 18.36v16.08q0 .3.27.54.27.24.51.24h6.9q2.22 0 4.14-.63 1.92-.63 3.33-1.77 1.41-1.14 2.19-2.73t.78-3.45q0-1.74-.66-3.24-.66-1.5-1.95-2.64-1.29-1.14-3.18-1.77-1.89-.63-4.29-.63h-8.04z"/></svg>