<svg viewBox="0 0 332 80" xmlns="http://www.w3.org/2000/svg"><path d="M26.78 13.56q.3-.42 1.32-.54.36 0 .81.15.45.15.75.27.18.24.69 1.53t1.35 3.75q.78 2.4 1.2 3.96.42 1.56.42 2.04 0 1.26-.96 1.86-1.02.66-2.16.18-.6-.24-1.35-1.83-.75-1.59-1.65-4.41-.48-1.56-.75-2.85t-.27-2.13q0-1.26.6-1.98zM23 30.72q2.04-.12 5.67-.15t8.97-.09q1.8 0 3.24-.03 1.44-.03 2.58-.03 1.08 0 1.77.03t1.05.03q1.26.12 1.68.66 1.32 1.32.42 3.06-.3.66-1.44 1.05t-2.7.39q-1.62 0-2.04.42-1.02 3.96-2.4 7.35-1.38 3.39-3.06 5.91-1.08 1.92-1.08 2.4 0 .42 4.32 4.92 4.02 4.32 4.5 5.34.06.36.03.81-.03.45-.27.87-.42.9-1.32 1.14-.6.42-.96.3-.36 0-1.26-.36-1.26-.42-3.66-2.76-1.2-1.08-2.1-2.1-.9-1.02-1.56-1.98-.78-1.32-1.26-1.32-.24.12-1.62 2.04-.9 1.14-1.95 2.31-1.05 1.17-2.13 2.25-2.4 2.28-3.78 3-.96.48-1.68.48-1.14 0-1.92-1.08-.78-1.02 0-2.34.72-1.32 4.32-5.76 2.28-2.7 3.45-4.11 1.17-1.41 1.29-1.65.3-.54-1.44-3.36-1.38-1.92-2.76-5.04-.66-1.56-1.14-2.7-.48-1.14-.72-1.98-.24-.66-.36-1.5-.18-.54-.18-.6-.3-.54-1.92-.54-3 0-3.72-1.68-.84-1.74 1.38-2.88 1.2-.54 5.76-.72zm13.74 6.3v-.06q.06-.36-.06-.6T35.9 36h-4.14q-5.16 0-5.28.3h.06q-.18.18.12 1.08.3.9.96 2.4.66 1.56 1.29 2.73t1.23 1.95q.84 1.38 1.29 1.59.45.21.87-.27.3-.48.93-1.56.63-1.08 1.53-2.82.84-1.74 1.35-2.85.51-1.11.63-1.53zM70.4 11.58q.84-.24 7.02 0t6.72.54q.66.3.96.54.24.3.48 1.56.18 1.32.24 3.12v5.88q0 6.84-.12 8.16-.18 1.38-.84 2.52-1.14 1.74-2.16 2.1-1.02.36-5.04.18-3.84-.12-5.46-.54-1.62-.36-3.18-1.5Q68.3 33.48 68 33q-.3-.48-.42-1.44-.18-1.38 0-6.36.12-4.92.48-8.58.3-2.82.78-3.78.42-.9 1.56-1.26zm6.96 4.5q-3.3-.24-4.62-.42-.9-.18-1.02 0-.12.24-.12 1.74t.12 1.62q.06.18.9 0 .9-.3 4.62-.48 2.7-.12 3.18-.3.42-.18.42-.96 0-.72-.42-.9-.48-.18-3.06-.3zm1.14 6.78q-2.1 0-4.38-.18-2.1-.12-2.28 0-.12.12-.06 1.32.18.72.3.84.12.18.6.12.72-.24 4.44-.3 2.76 0 3.24-.12.48-.12.48-.78t-.3-.78q-.3-.12-2.04-.12zm-.48 6.12q-2.64 0-4.44-.24-1.32-.12-1.5.06-.24.18-.24 1.32 0 1.2.6 1.32.54.18 3.84.12 4.38-.12 4.56-.3.3-.24.06-1.26-.12-.78-.48-.9t-2.4-.12zm14.28 2.34q.48-.48 1.14-.36.66.18 1.26.96.6.9.78 4.08.18 5.04-1.08 6.66-1.32 1.68-5.76 1.86-2.28.18-2.7.3-.48.12-.48.6 0 .6.06 2.7.06 1.44.6 1.62.54.24 3.48.12 3.96-.3 4.74 0 1.14.3 1.5 1.74.3 1.5.36 7.14.12 5.28 0 6.24t-.78 1.5q-1.68 1.44-3.36 0-.6-.54-.72-1.32-.18-.78-.18-4.86-.06-5.46-.12-5.64-.12-.12-2.76-.24l-2.52-.12-.3 5.22q-.12 4.32-.36 5.52-.3 1.26-1.14 1.68-.72.24-1.68-.18-1.02-.42-1.44-1.08-.6-1.26-.42-17.58.06-4.62.24-5.52.12-.9.78-1.62.66-.66 1.2-.84.54-.12 2.76-.12 3 0 4.2-.18 1.08-.24 1.44-1.02.3-.78.54-3.96.24-2.88.72-3.3zm-33.18 1.2q.3-.72 1.26-.72t1.32.72q.36.78.48 4.86.18 3.12.42 3.6t1.38.3q7.08-.78 8.1-.24.66.42 1.02 1.32.3.96.24 11.34 0 6.72-.12 8.82-.12 2.1-.48 2.94-.66 1.5-2.16 1.5t-2.1-1.5q-.54-1.26-.36-5.64.18-3.36.06-3.9-.12-.48-.84-.36-1.08.24-2.52.24-1.14 0-1.32.36-.24.42-.24 2.76 0 4.92-1.32 7.5-1.38 2.64-3.3 1.38-1.56-1.02-.66-4.8.48-1.98.66-5.1.12-3.12-.24-3.78-.6-1.14.84-1.86 1.38-.66 5.04-.96 3.66-.18 4.08-.48.36-.12.36-2.76 0-1.92-.3-2.22-.36-.3-2.28-.18-2.58.18-4.2.9-1.68.6-2.4.54-.72 0-1.38-.78-.6-.54-.6-.96-.06-.42.24-1.92.42-2.22.6-6.18.3-4.02.72-4.74zM135.8 16.2q.66-.9 1.98-.12.3.3.42.75t0 1.35q-.06.12-.06.48 0 .12-.03.24t-.03.24q-.18 1.38.06 1.62.12.12.63.15t1.35.09q.42.06.69.06h.51q3.72.12 4.44.48.66.42.9 1.26.24.84-.18 1.5v-.06q-.54 1.02-1.56 1.2-.54.12-1.74.12t-2.7-.12q-.96-.06-1.98-.09t-1.98-.09l-.72 1.62q-.18.54-.96 2.19t-1.92 3.75q-.84 1.92-1.35 3-.51 1.08-.57 1.26.06-.12 2.28-.24l2.4-.12q.06-.36.06-.69 0-.33.06-.69v.06q.18-3.06 2.1-3.06 1.56 0 2.04 3.06 0 .24.06.36.06.54.24.75.18.21 1.02.21.84 0 2.94-.18.12 0 .24-.03t.24-.03q.36 0 .48-.06 2.34-.12 3.27.39.93.51.93 1.89 0 1.44-.84 1.8-1.08.36-4.44.54l-3.72.18q0 1.56-.06 3.18t-.06 3.18q-.12 5.46-.51 8.67t-.93 4.23q-.9 1.2-2.4 1.26-1.5.06-1.98-1.02-.18-.66.36-5.52v.06q.24-2.28.36-4.65.12-2.37.12-4.89l.12-4.38q-1.02-.06-2.1-.09t-2.1-.09q-2.82-.06-3.84-.21t-1.44-.51q-.36-.36-.51-.9-.15-.54.09-1.2.18-.48.72-1.68t1.56-3.12q4.44-8.4 4.38-8.46-.12-.12-2.22-.3-2.1-.12-2.97-.54-.87-.42-.87-1.38t.9-1.29q.9-.33 3.36-.45h.54q2.4-.06 2.82-.3.42-.18.78-1.5.12-.24.12-.42.78-2.16 1.2-2.7zm-26.52 3.66h.06q.66-.06 1.59-.09t2.01-.03h1.74q1.08 0 1.77.06t1.2.15q.51.09.93.27.42.18.96.42.9.48 1.5.87t.84.87v-.06q.42.48.6 1.2t.18 1.5q0 1.14-.3 2.16-.42.9-1.71 2.31-1.29 1.41-2.73 2.49-.18.12-.06.24 1.26.84 1.89 1.41.63.57 1.11 1.29.36.66.57 1.62.21.96.21 1.8 0 1.02-.18 2.01-.18.99-.66 1.71h.06q-.3.6-.81 1.29-.51.69-1.17 1.38-.66.69-1.35 1.26-.69.57-1.35.93h.06q-1.14.78-2.91 1.2-1.77.42-3.21.42h-1.08v7.5q0 2.94-.03 4.65-.03 1.71-.03 2.25-.12 1.26-.78 1.74-.78.6-1.74.63-.96.03-1.56-.63-.66-.6-.66-1.02l.18.18q-.18-.48-.21-2.55t-.03-5.91q0-1.74-.03-3.75t-.03-4.47V42.6q0-19.32.78-20.88.42-.6 1.5-1.11 1.08-.51 2.88-.75zm7.92 4.56q-.9-.42-4.62-.6-1.56-.12-2.64-.12t-1.44.06q-.12.18-.18.6-.12.48 0 2.22 0 .24.03.51t.03.57q.06.48.06 1.08 0 .6.06 1.02.06 1.74.12 1.74l1.62-.54q1.8-.6 4.32-2.28 2.4-1.62 3.12-2.52v.06q.48-.78.33-1.14-.15-.36-.81-.66zm-2.76 11.4q-.72-.12-1.62-.24-.9-.12-2.04-.18-.6 0-1.05-.06-.45-.06-.99-.06.06.48.12 1.05.06.57.12 1.05v.36q0 1.2.03 2.31t.03 2.13v2.16q.3-.06.66-.09.36-.03.66-.09 1.26-.18 2.58-.72t2.04-1.02q.96-.9 1.5-1.92t.54-2.04q0-1.2-.54-1.74t-2.04-.9zM127.64 48q1.62-2.52 2.1-2.7 1.14-.48 1.95.3t.63 2.04q-.24.9-.96 2.37-.72 1.47-2.04 3.51-1.26 1.98-2.16 3.12-.9 1.14-1.44 1.32-1.32.42-2.4-.36-1.14-.84-.66-2.28.3-.6 1.92-2.76.72-.96 1.47-2.07.75-1.11 1.59-2.49zm15.72 1.14v.06q.48-.66 1.68-.66.3 0 .6.09t.66.39q.36.3.93.87.57.57 1.41 1.47 2.46 2.94 2.46 3.78 0 2.28-2.34 2.28-1.14 0-2.1-.9-.96-.9-2.34-3.12-2.04-3.18-.96-4.26zM178.4 15q.78-.6 1.2-.6.36 0 1.08.69.72.69.96 1.89.06.12.06.21t.06.21q.18.6.39.99.21.39.99.39h1.26q3 0 4.11.66 1.11.66 1.11 2.04t-1.44 1.77q-1.44.39-3.42.39h-2.7v9.9q0 1.92-.84 2.67t-1.62.75q-.66 0-1.47-.66-.81-.66-.93-1.62-.06-.78-.09-3.75-.03-2.97-.09-7.47-.54-.06-1.17-.09-.63-.03-1.17-.09-2.34-.18-3.3-.66-.96-.48-.96-1.44 0-.54.21-.84.21-.3.9-.51.69-.21 2.01-.36 1.32-.15 3.6-.39.06-.12.12-.36.06-.18.09-.39.03-.21.15-.51.18-.84.39-1.71.21-.87.51-1.11zm-5.82 12.84q.36-.12.6-.12.66 0 1.29.66t.63 1.56q0 .36-.6 1.5-.6 1.14-1.44 2.37-.84 1.23-1.77 2.19t-1.65.96q-.12 0-.48-.15t-.72-.48q-.36-.33-.66-.78-.3-.45-.3-.99.06-.54.84-1.62t1.68-2.22q.9-1.14 1.68-1.98.78-.84.9-.9zm12.42.36v-.06q.24-.36.66-.81.42-.45 1.02-.45l.36.06q.12 0 .78.51t1.47 1.17q.81.66 1.59 1.32t1.14 1.02q.18.24.36.6t.18.84q0 1.32-.78 2.16-.78.84-1.68.84-.84 0-1.68-.66t-1.56-1.53q-.72-.87-1.2-1.74t-.6-1.35q0-.06-.12-.42-.12-.6-.12-.9 0-.18.06-.33.06-.15.12-.27zm10.26 11.46q.6-.78 1.38-.78.6.12.99.48t.6.87q.21.51.3 1.05t.15.96q.06.18.06.36t.12.3q.3.24.9.27.6.03 1.26.09.72.06 1.47.15t1.38.33q.63.24 1.05.69.42.45.42 1.23 0 1.38-.99 2.16-.99.78-3.27.78h-.54q-.06 0-.09.03t-.09.03q-.06.06-.12.06-.18.06-.33.15-.15.09-.27.36-.12.27-.21.87t-.09 1.62v9.12q0 1.86-.57 2.64t-2.13.78q-.9 0-1.38-.15-.48-.15-.69-.99-.21-.84-.27-2.64-.06-1.8-.06-5.16v-4.56q-.06-.48-.09-1.02t-.03-.72q-.06-.12-.09-.33-.03-.21-.09-.33-.48 0-1.02-.18-.42-.12-.81-.18-.39-.06-.69-.06-1.62 0-2.67-.66-1.05-.66-1.05-1.5 0-1.2 1.08-1.53 1.08-.33 3-.57.42-.06.9-.09.48-.03.96-.15.66-.12.81-.3.15-.18.15-1.08.18-1.74.66-2.4zm-25.44 1.5q.66-.66 1.26-.66 1.02 0 1.29 1.08t.39 2.1q.06.54.15.9t.21.42l.42.06q.42.06.99.12.57.06 1.2.12t1.17.12q.36.06.6.06h.36q.66.24 1.29 1.11.63.87.63 1.59 0 .66-.54 1.35-.54.69-1.26.93-.18.12-1.26.21t-3.36.27v10.8q0 1.92-.54 2.91-.54.99-1.86.99-.84 0-1.35-.21-.51-.21-.75-1.08-.24-.87-.3-2.55-.06-1.68-.06-4.56v-6.36q-.6-.06-1.26-.15t-1.26-.15q-2.82-.06-3.72-.63-.9-.57-.9-1.77 0-1.32.87-1.89.87-.57 3.27-.69h.66q.84 0 1.38-.06.54-.06.84-.27.3-.21.42-.63.12-.42.18-1.14.12-.84.36-1.44t.48-.9zm19.2 11.76q.78-.9 1.86-.9h.3q.84.12.96.36t.24 1.02v.36q0 .84-.42 1.86t-1.08 1.92q-.66.9-1.41 1.53-.75.63-1.47.63h-.24q-.9-.12-1.32-.69-.42-.57-.42-1.29 0-.72.66-1.92t2.34-2.88zm11.52.36q.42-.42 1.08-.42.3 0 1.2.36.9.36 1.92.87t1.95 1.08q.93.57 1.35 1.05.24.48.24 1.14 0 .84-.57 1.5t-1.47.66q-1.08-.06-2.16-.69-1.08-.63-1.98-1.44-.9-.81-1.44-1.65-.54-.84-.54-1.38 0-.66.42-1.08zm-37.32.66h-.06q.84-.66 1.44-.66.48 0 1.05.66.57.66.57 1.32 0 1.08-.72 2.16t-1.65 1.95q-.93.87-1.77 1.41-.84.54-1.08.54-.84 0-1.41-.66t-.57-1.68l-.06-.42q.06-.36.6-1.05.54-.69 1.23-1.41t1.38-1.35q.69-.63 1.05-.81zm13.44.18h-.06q.42-.3 1.26-.3 1.26 0 2.4.6t2.04 1.41q.9.81 1.44 1.59.54.78.54 1.2 0 .84-.75 1.5t-1.59.66q-.36 0-1.35-.6-.99-.6-2.04-1.5t-1.86-1.89q-.81-.99-.81-1.71 0-.54.78-.96zm48.3-31.14q3.24-.42 9.36-.18 6.06.24 10.14.9 2.34.36 3.12.42.72.12 2.34.54 1.62.42 1.98.42.36 0 1.38.6.96.6 1.02.66.06.06.6.96.48.9.48 1.14-.06.24.12 1.56.18 1.38.18 1.92-.06.6-.06 2.58.06 13.08-2.22 17.52-1.02 1.98-3.06 3.12-2.04 1.14-5.82 1.8-2.34.54-12.9.72-10.56.18-11.46-.18-.9-.36-1.62-1.38-.42-.72-.48-1.68-.12-.96-.12-4.2 0-4.92-.48-10.08-.48-4.44-.36-8.7.06-4.2.72-5.34.48-.9 2.76-1.92 2.22-.96 4.38-1.2zm7.74 6.78q.06-1.62-.48-1.92-.54-.24-3.84-.36-4.56 0-5.46.24-.78.12-.84.54-.12.42-.12 2.82.06 3.66.24 5.4.06.78.18 1.02.12.3.42.6.24.36.72.3.48 0 1.44.12.9.18 2.34 0l4.86-.12.18-3.18q.18-1.62.36-5.46zm11.76-.9q-7.32-1.2-7.62-.96-.06.06.06.48.18.84.42 5.34l.24 4.56h3.72q4.8 0 8.04.84.72.12.84-.42.06-.54.06-4.02 0-3.12-.06-3.9-.12-.78-.48-.9-.84-.3-5.22-1.02zM232.28 43.8l-2.88-.24q-5.88-.42-6.12.12-.24.24 0 4.5l.18 4.26 4.08-.24q4.08-.06 4.38-.36.36-.18.36-4.14v-3.9zm15.66.24q-1.5-.3-6.06-.3h-4.44v2.88q0 2.82.18 4.14.12.9.42.96.3.12 2.04.06 2.4-.18 4.68-.66 2.22-.48 2.88-.96 1.26-.96 1.74-4.32.24-1.02.06-1.26-.24-.24-1.5-.54zm28.2-23.94v-.06q1.74-1.74 2.55-2.07.81-.33 1.65.45h-.06q2.22 2.16-3.78 8.34-.48.48-.72.78-.24.3-.3.42t0 .54q.06.42.18 1.08.18.9.27 4.86.09 3.96.15 11.16v10.08q0 1.74-.06 2.4-.06.96-.21 1.68t-.45 1.08v-.06q-1.02 1.08-2.04 1.08-1.08 0-2.1-.96-.54-.54-.66-1.32-.12-.66-.18-3.96V52.8q0-1.62.06-3.72 0-.66.03-1.71.03-1.05.03-1.83.06-3.54.06-6.21v-6.45q0-.78.06-1.08-.24.24-2.28 1.44h.06q-2.16 1.26-2.94 1.08-2.1-.42-2.1-2.4 0-.96.66-1.62.18-.18 1.02-.81.84-.63 2.22-1.65 2.16-1.5 4.38-3.42 2.22-1.92 4.5-4.32zm18.3-.84v-.06q.66-.66 1.44-.63.78.03 1.26.75.24.42.42.99.18.57.24 1.29.06.12.06.42v.42q.12.66.24 1.14.12.48.24.6.24.18 2.28 0h.96q.6-.06 1.17-.06h1.05q1.74 0 2.52.3t1.08 1.08q.3.72-.09 1.41t-1.23 1.29q-.84.72-4.2 1.02-.84.12-1.41.15t-.93.09q-.42.06-.72.06-.06.06.12 1.98.18 1.62.42 2.04.24.24.87.75t1.77 1.29q1.5 1.14 3.06 2.1 1.56.96 3.18 1.8 3.12 1.56 4.05 2.67.93 1.11.15 2.49h.06q-.72 1.68-2.34 1.68-1.2 0-3.42-1.14-2.04-1.02-3.66-2.07-1.62-1.05-2.88-2.07-.3-.24-.57-.36-.27-.12-.33 0v3q0 2.88.18 3.42l-.06-.06q.18.36 1.32.36 2.04 0 3.12.81t1.08 1.83q0 .96-1.02 1.74t-3 .84q-1.2.06-1.38.15-.18.09-.24.93-.12 1.68-.21 2.85-.09 1.17-.21 1.71-.18 1.26-.72 1.8-.78.78-2.04.78-1.2 0-1.98-.9-.54-.84-.6-1.38-.06-.36-.03-1.17.03-.81.15-1.89v-.84q0-.54-.03-1.02t-.06-.87l-.03-.39q-.36-.18-2.04-.36-1.92-.18-2.82-.84-.9-.66-.72-1.62.18-.84 1.05-1.23.87-.39 2.97-.57 1.44-.12 1.62-.48.12-.3.18-1.26t.12-2.16q.06-1.62.09-2.82.03-1.2-.09-1.38-.12.42-1.68 2.34-1.26 1.62-2.7 3.27-1.44 1.65-2.64 2.91-1.2 1.38-2.19 2.22-.99.84-1.53 1.14-1.14.54-2.25-.3-1.11-.84-1.11-2.34 0-.36.09-.69.09-.33.36-.75t.75-.99q.48-.57 1.26-1.41 1.38-1.5 2.97-3.21 1.59-1.71 3.51-3.63 1.8-1.8 2.91-2.82 1.11-1.02 1.59-1.32.66-.36.81-1.02.15-.66.03-2.04-.12-.9-.36-1.11-.24-.21-1.26-.21-.9 0-2.16.12-1.26.12-2.82.36-.96.12-1.68.18t-1.32.06q-1.32 0-1.83-.39t-.81-1.23q-.3-.84.27-1.59.57-.75 1.41-.75.72 0 3-.48 1.38-.3 2.58-.54 1.2-.24 2.34-.36.66-.12 1.2-.24.54-.12.72-.3v.06q.3-.3.36-2.04.12-2.58.72-3.3z"/></svg>