<svg viewBox="0 0 328 80" xmlns="http://www.w3.org/2000/svg"><path d="M54.86 56.78q1.98 1.14 3.06 1.44 2.64.24 4.68 1.14 2.16.9 3 1.8.9 1.26.9 2.34-.06 1.26-1.32 2.16-.96.84-2.82.48-1.62-.18-4.14-1.14-2.94-.9-4.92-2.52-1.26-1.08-3.42-1.98-2.58-1.2-4.92-3.3-1.08-1.08-1.92-1.8-1.68-.3-2.88-.36-.42.36-.72.78-.72.78-1.44 1.14-.72.36-1.62 1.32-1.8 1.98-3.24 2.52-.72.36-1.68 1.2-.78.9-1.92.96-1.14.18-2.16.84-.78.72-1.8.6-.54 0-.96.24-.42.36-.72.06-.36 0-.84.24-.54.54-1.02.3-.72 0-1.44.12-.9.36-2.16-.18-1.8-.72-2.16-1.62-.72-.96-.48-2.16.36-1.08 1.32-1.86.66-.54 1.8-.6 1.26 0 2.28.3 1.02.36 2.04-.3.72-.36 2.58-.24 1.8 0 2.58-.6.84-.66 1.68-.72.72-.18 1.38-.72 1.08-.9 2.16-1.26t2.16-.96q.9-.54 1.98-1.44l.24-.06q-.18-1.02-.3-1.98-.06-.66-.18-1.26-2.04-1.92-3.6-3.9-2.16-2.7-2.58-4.92-.36-1.2-1.2-2.22-.54-.84-.84-1.62-.42-1.08-.42-1.68 0-.72.6-1.2.48-.36.96-.12.54.36 1.5 1.56.48.6.66 1.8.36 1.08 1.2 1.62 1.92 1.5 3.06 3.42 1.38 2.16 2.52 3.48.18 0 .42-.06.84-.12 2.82-.12 0-1.2.48-2.22.18-.36.3-.9.12-1.08.48-1.68.18-.36.24-.78 0-.72.36-1.38.36-.72.3-.9 0-.36.06-.66.36-.72.24-1.32-.18-.3 0-.72.18-.54.06-.96-.18-.54.06-1.02.18-.36.12-.78 0-1.02 1.02-1.62.72-.48 1.98-.36 1.2 0 1.26.42.18.6.72.96.36.36.42 1.14.12 1.14-.24 2.04-.36.42-.3.72-.06 1.32-.72 2.7-.54 1.08-.6 1.92 0 .6-.36.96-.42.42-.54.96-.36 1.14-.66 1.56-.9 1.26-1.2 2.34-.18 1.08-1.14 1.8-.18 0-.12.12.36.6.78 1.86.18.6.42 1.38 1.26.78 1.44.9 1.08.36 2.16 1.08 2.52 1.98 5.22 3.48zM37.58 27.26q-1.86 0-3.42.3-1.14.18-2.64-.24-1.26-.3-1.38-1.26-.18-.84.96-1.62 1.26-.72 3.06-1.2.36-.12 1.14-.18 1.62-.84 2.16-1.44.54-.54.96-1.08-.06-.18-.18-.42-.06-.48-.18-1.02-.06-1.02-.54-2.28-.36-1.26.12-2.34.48-1.08 2.1-1.74.9-.36 2.04.24 1.2.6 1.62 2.22.18.96-.12 2.4-.36.9-.3 1.98 0 .36-.18.84.66.42 1.44 1.08.66.54 1.2.84 2.1-.18 3.72-.12t3.84.54q1.62.54 2.52.3 2.16-.36 4.14.24 1.74.6 2.7 1.86.72.96.48 2.22-.36 1.26-2.04 1.74-2.22.72-4.5-.42-2.34-1.08-4.2-1.2-1.8 0-2.4-.24-.9-.36-1.74-.24-.96.18-2.16-.12-1.44-.3-3.66.06-2.7.36-4.56.3zm-16.62-2.94q1.44.54 2.4.3 1.44-.48 3.06.24 1.92.36 2.16 1.14.36 1.08-.24 1.68-.9.78-2.4 1.32-2.7.54-5.28.96-1.8.54-3.18-.12-1.26-.72-1.38-2.1-.06-1.44 1.08-2.4 1.92-1.62 3.78-1.02zm81-7.92q-2.22.06-4.08.9-.9.36-2.64.3-1.68-.12-2.76.66-.6.36-.84 1.08-.24.9-.06 1.68.12.96-.36 2.34-.24.72-.18 2.34 0 .96-.12 1.8-.18.78-.12 1.02 0 .54-.06.96-.06.6 0 1.08.18.42.12 1.26 0 .54.42.96 1.08 1.14 3.42 1.62 3.18.72 5.04.12 1.92-.54 3.42-.12 1.44.42 4.38-.12 1.92-.36 2.82-1.38.48-.18.54-.6.12-.36.3-.66.18-.36.18-.72t.18-.72q.18-.36.12-.66 0-.3.06-.66.18-.36.12-.78-.18-2.1 1.26-2.16 1.08 0 1.68.9.48.72.3 1.26.12.24.18.54.18.54.06.96-.06.6 0 1.92.12.54 0 1.38 0 .96-.3 1.68-.42 1.8-1.32 2.7-.72.72-2.04.66-.72-.18-1.68.18-.18 0-.18.06-.6.18-.78.36-.24.18-.54.42 0 .36-.12 1.02.66.24.9.54.12.18.36.36h.12q.18 0 .3.12 1.62.18 2.28.54.48.24.54.9-.06.78-1.02 1.26-.72.54-1.98.6h-.6q-.18.36-.48.72-.42.54-.78.78-.18.72-.24 1.86 0 .18-.12.42 1.02.24 1.44.66l.12.12.24-.06q1.26 0 3.78-.36 1.44 0 2.4-.36 1.08-.54 2.7-.3 1.62.36 3.3.72 1.2.24 1.62.72 1.26 1.44.12 2.82-.9 1.08-.48 2.58.66 1.86.36 4.38-.06.9.18 2.04.18 1.08 0 2.52-.24 1.44-1.08 2.1-.96.66-1.8.12-.9-.54-1.08-1.74-.18-1.08.18-3.78.18-1.62.06-2.58-.54-2.52-.6-3.66-.18-.9-.84-1.62-.78-.54-1.92-.6-1.32-.12-3 .18-1.44.06-3.36 1.08-.24.18-.6.24-.24.6-.72 1.26-.36.42-.66.78-.06.36-.06.78 0 .9.24 1.8.18.78.06 1.8-.06.36.12 1.32.3 1.44.12 2.58-.36 1.62-.96 2.16-.96.66-1.98.36-.9-.36-1.32-1.44-.42-1.26.12-3.84.36-1.62.06-2.46-.24-.72-.06-2.28.18-1.62.12-3.42-.18-1.38.3-3 .3-1.08.18-1.62-.24-.84-.18-1.44 0-.84-.24-1.74t-.18-2.28q0-1.08-.18-2.22-.18-.72-.18-1.32-.54-.48-1.02-.72-.42-.3-.84-.48-.36 0-.54.12-1.26.36-2.46.42-.78.36-1.08.72-.24.24-.54.6l.06.06q.18 2.04.3 3.42.12.78.18 1.26.12.54-.06 1.14-.18 1.98-.06 2.52.12.42 0 1.38-.18.72 0 1.38.18 1.32-.24 2.64-.42.9-.36 2.22.12 1.44-.66 3.78-1.14 3.72-2.28 5.1-.78.9-1.62.9-.6.18-1.2.12-.54.18-1.08-.6-.6-.36-.84-1.8-.18-.78.3-1.56.36-.36.6-.84.36-.48.78-.72 1.08-.9 1.8-2.88.84-2.28.9-4.38-.36-.3-.54-.48-.42-.48-.72-1.2l-.06-.12q-.6 0-.9.3-.9.36-1.86.24-.6-.12-1.14.18-.42.36-1.44.54-.36.06-.84.06-1.08.54-1.56 1.02-.06.36-.18.72-.24.72-.18 1.62 0 .24-.3 1.86-.18 1.14-.42 1.68-.06.18-.36 1.2 0 .42-.48 1.26-.36.72-.6 1.38-.24 1.38-1.44 2.04-1.26.72-2.22.24-.9-.72-1.08-1.74-.24-.96.48-2.1.54-.9 1.02-1.68.3-.66.66-1.38.54-.66.78-1.44.36-1.26.24-1.98 0-.66.06-1.2-.24-.36-.42-.6 0-.12-.12-.06h-.54q-.78 0-1.5-.66-.72-.84-.72-1.62 0-.84.84-1.74.9-.72 2.52-.6 1.98.36 2.94-.06.84-.36 1.92-.12 1.2.36 2.76-.24 1.2-.18 1.86-.12.66 0 1.26-.24.84-.54 1.62-.42.12 0 .3.06.12-.18.18-.3.12-.36.36-.6 0-.72-.06-1.68-.42-.3-.6-.54-.18-.18-.36-.42h-.66q-.18 0-.3-.06-.06 0-.18-.06-1.08 0-2.28-.6-.96-.48-1.08-1.02.12-.66.9-1.08 1.08-.66 1.86-.6.54 0 1.08-.24.3 0 .48.06l.12.06q.18-.54.66-.9v-.42q-.36-.3-.66-.54-.54-.36-.96-.6-.72 0-1.14.24-.72.24-1.44-.06-1.14-.36-1.86-1.74-.54-1.02-.48-1.98.12-1.08-.36-1.8-.24-1.44 0-3.06.18-1.08.06-1.44-.06-.36.12-1.2.18-.72 0-1.26-.18-.72.12-2.52t.24-3.06q-.06-1.92.36-3.48.36-1.56.78-2.04.72-1.08 1.2-1.2.84-.18 1.26.3.36.36 1.56 0v-.12q1.98-.54 4.5-.3 2.82.24 5.46-.24 1.08-.18 3.48.24 1.02.24 2.82 0 1.26-.12 3.54.9 1.44.42 1.98 1.08.48.54.6 1.32.18.72.24 1.08.18.9.06 1.44-.18.72.12 1.68.12 1.44-.36 2.4-.42.96-1.32.96-.9 0-1.62-1.26-.54-.84-.48-2.46-.06-1.26-.36-1.86-.96-1.2-3.54-1.62-3.24-.54-5.76-.48zm17.4 8.04q-.54-1.8.42-3.78.54-1.38 2.28-1.5.66 0 1.8.78.84.54.96 1.86.3 1.68-.9 3.9-.9 2.22-.48 5.28.18 1.68 1.32 3.96.66 1.32-.12 3.3-.54 1.08-.42 2.46 0 1.26-.6 1.8-1.14 1.08-2.64.42-.78 0-2.16.84-2.04.24-2.88-.48-1.26-.84-1.14-1.8 0-1.26.6-1.74 1.02-.54 2.28-.12 1.08 0 1.68-.3.54-.18.72-.6.72-.84.84-2.52 0-1.38-.48-3.18-.6-2.28-.54-4.38.12-2.46-.54-4.2zm-22.2 3.12q.48.18 1.08 0 .36-.18.96.06.54.18 1.08-.06.48-.18 1.2-.06.54.18 1.32-.06.36 0 .6.06.48 0 .9-.06.48-.18 1.02 0 1.44.06 1.92.9.3.72.06 1.5-.36.78-1.62 1.02-1.32.36-2.46-.12-.6-.12-1.2-.06-.72.18-1.14.12-.54-.12-.84.06-.36.18-1.02.06-.36 0-1.02.06-1.32.54-2.64-.12-.96-.48-.9-1.56 0-.9.9-1.44.84-.54 1.8-.3zm.18-6.84q.66.18 1.08 0 .48-.12.9.06.48.18 1.02-.06.54-.12 1.14-.06.54.18 1.26 0h1.38q.48-.18.96 0 1.44 0 1.92.9.36.72.06 1.5-.36.72-1.62 1.02-1.26.36-2.46-.12-.6-.18-1.08-.06-.54.18-1.02.12-.54-.12-.84.06-.36.18-.84.06-.42 0-.96.06-1.44.54-2.64-.12-1.08-.54-.9-1.56 0-.9.9-1.5.84-.54 1.74-.3zm-19.5 2.4q-.72-1.8.06-2.7.66-.9 1.8-.96.72 0 1.5.6.9.72 1.08 1.38.18 1.14-.06 2.7-.24 1.62.12 4.02.18 1.14-.54 3.6-.24 1.08 0 1.8.18.6-.06 2.64-.36 2.34 1.14 3.12.12.54 1.08 1.08 1.08.6 1.68.72 1.02-.3 1.26.24.18.54-.12 1.38-.36.72-1.02.96-.54.18-.96.6-.36.24-1.14.42-.72.18-1.38.78-.54.96-1.62 1.14-1.14.06-1.62-.66-1.26-1.56-1.08-3.36.36-1.98.06-3.12-.24-1.74.18-3.72.66-2.82.36-4.44-.54-3.54-.42-4.98.18-1.08-.3-3.24zm93.6 2.64q1.92.18 4.56.84 1.98.54 2.94.48 2.28-.36 4.26.3 1.98.54 2.94 1.86.84 1.08.48 2.34-.36 1.26-2.16 1.86-2.34.72-4.68-.42-2.76-1.56-4.98-1.62-2.16 0-2.82-.42-1.08-.48-2.04-.3-1.14.06-2.52-.12-.78-.3-1.92-.18-.42.18-.84.6-1.14.9-2.16 2.1-.18.6-.06 1.14.12 1.08-.3 2.34-.36.9-1.32.78-.72-.12-1.14-1.02-.36-.84-.42-1.92-.24-.72-.36-1.86-.72-.84-1.8-1.44l-.84-.42q-1.5 0-2.64.12-1.26.18-2.82-.18-1.14-.36-1.38-1.32-.18-1.02.96-1.68 1.38-.84 3.18-1.26 1.8-.36 3.6-.48.3-.3.54-.66.18-.36.48-.66v-3.48q0-1.26-.3-2.04-.36-1.38-.3-2.52.12-1.8 1.2-2.94 1.08-.84 1.98-.96 1.38-.12 1.86.36.72.42 1.14 1.86.18 1.5-.24 3.24-.18 1.08-.06 2.28.12 1.08 0 3.48 0 .24-.12.72.12.18.3.36.36.54 1.14.96.54-.12 1.2-.12 3.06-.18 5.46 0zm.06 17.1q1.2.54 2.28.48.9.18 2.46 1.56 1.26 1.32 1.44 2.88-.18.6.48 1.26 0 .54-.06 1.26-.06 1.5.18 2.94.18.9-.12 1.68-.36 1.14-.12 1.98.3.42 0 1.08-.18.72-.12 1.56.12.9-.54 1.74-.24.9-1.5 1.8-1.5 1.02-3.06.6-1.26-.36-2.16 0-1.32.54-3.3-.18-2.58-.36-4.32.18-1.32 1.08-3.18.48-1.86-.54-3.78.24-1.98 1.08-3.24.36-.54-.18-1.38.42-.78.54-1.74.12-.96-.18-2.22-1.08-1.32-1.08-1.5-1.92.12-1.26-.54-1.92-.36-1.08-.3-1.68.12-.72-.18-1.26-.24-.54 0-1.2.18-.36-.06-1.14-.18-.9 0-1.86.36-1.2.12-2.22-.18-.9.42-1.68.36-.18.42-1.5.18-.9 1.32-1.86 1.02-.66 1.92-.12.72.9.72 1.74.12 1.62-.18 2.82-.36.72-.12 1.74.18.9-.12 1.5-.18.72.18 1.56.3.54.12 1.02 0 .6.18 1.26.18.36.18.78.18.72 1.14 1.26.9.72 1.98.3 1.8-.54 3.24.18 1.56.72 3.18-.24 1.74-.54 3.36.06 1.44.72 3.06-.12 1.8-.9 3.42-.6 1.38.24 2.46-.36 1.02-.54 1.44-2.04.48-1.44.36-2.64-.06-1.08-.06-1.98.12-.9-.24-1.68-.18-.72-.18-1.32 0-.66-.54-.96-.54-.84-1.86-.9-.9.6-2.16 0-1.08-.84-2.4-.36-2.4.54-4.5-.24-2.58-.72-5.28.3-1.8.54-3.12.24-1.44-.36-1.62-1.14-.54-1.02.42-2.16.9-.9 1.38-.9 1.26 0 1.98-.36.54-.36 1.44-.18 1.2-.66 1.8-1.08.84-.72 1.32-1.74.48-1.08.9-1.08.66 0 1.38 1.02.72 1.08 1.86 1.86.3.24.66.54.54 0 1.26.06 2.28 0 5.34.84zM139.76 27.5q1.62.54 2.52.3 1.56-.48 3.18.24 2.1.36 2.28 1.2.36.96-.3 1.74-.72.9-2.46 1.38-2.76.54-5.52 1.02-1.98.42-3.3-.18-1.44-.66-1.44-2.16 0-1.56 1.08-2.52 2.1-1.62 3.96-1.02zm103.2 12.72q.36-1.26.96-1.38 1.02-.66 1.86.24.84 1.08.72 2.34-.18 1.44.48 2.16.54.9.54 2.28-.06 1.26-.48 2.16-.54.54-.84 1.92-.42 1.14-1.26 2.04-2.22 2.22-3.78 2.22-.9-.3-1.62-.12-.54.18-1.32-.06-1.26-.36-2.34-1.08-.42-.36-1.2-.36-1.08.06-2.16-.84-1.08-.9-1.2-1.56-.18-1.08.6-1.86.72-.66 1.56-.36.66.18.9.24 1.02.36 2.76.48 1.2.18 1.8-.24.72-.36 1.62-.42.9-.36 1.74-2.16.66-1.56.66-2.88v-2.76zm-19.8-16.68q.9-.72 1.62-.84 1.02 0 1.5.3.3-.18.72-.3 1.38-.36 2.34-.9.36-.18 1.08-.24 1.02-.12 1.92.18.9.18 2.04.12.72-.18 2.4.3.84.18 1.5.12.9-.12 1.62.24 1.38.6 2.1.54.66-.18 1.62.48 1.2.96 1.92 1.26.72.18 1.08 1.5 1.08 1.5.54 3.78-.36 1.44-.3 3 0 .18-.36.9-.42.9-.72.96-.9.54-1.62.3-.9-.48-1.2-1.98-.18-1.02-.36-2.82-.18-1.92-2.16-3.36-.42-.3-.84-.3t-1.26-.42q-.54-.3-.84-.18-.42.18-1.44 0-1.14-.18-1.56-.12-.36.18-1.02-.06-.54-.18-.84 0-.42.18-.9.12-.42 0-1.26.48-2.4 1.32-3.42 1.62 0 .36-.06 1.08-.18.9-.12 1.26-.06.42-.24 1.14-.18.42-.12.6 0 .24-.06.54-.18.36-.06.42.12.9-.24 2.04-.24.6-1.08.6-.42-.12-.96-.78-.24-.66-.36-1.56-.18-.36-.24-.96-.06-.54-.24-.96-.18-.72-.3-1.14-.06-.84-.18-1.74-.06-.48-.24-.66-.36-1.08-.3-2.1.12-1.44.9-2.46zm-13.62 11.58q.48.18 1.5-.3 1.02-.36 2.04-.24.84.06 1.44-.18 1.44-.54 2.64-.06 1.02.6 1.32 1.92-.18 1.26-.84 1.8-.96.54-1.98.18-.9 0-1.44.18-.78.42-1.44.24-.72 0-1.74.42-1.8.72-3.12.3-.96-.72-1.08-1.8-.06-1.08.66-1.86.72-.9 2.04-.6zm15.18 6.66q.12-1.26-.18-2.34-.24-1.02.18-1.38.36-.54 1.02-.24.66.24.84 1.38.18 1.68.48 3.42.36 1.14.24 2.4-.06.9.6 3.12.72 2.22.3 4.5-.24.9-.24 2.04.3 1.44-.18 2.94-.18.54-.18 1.14 0 .78-.24 2.52 0 .72-.18 1.2-.06.36-.18.96 0 .9-.78 1.68-.9.9-1.62.96-.96.36-1.8-.24-.78-.42-1.08-1.86-.18-1.08.06-2.04.3-1.44.66-2.52.84-1.62 1.08-3.06-.06-1.2.18-1.68.36-.72.42-1.62 0-1.56.48-3 .54-2.34.3-3.06-.18-1.02-.18-1.74.12-1.02.06-1.62-.24-.66-.06-1.86zm-25.2-7.14q.12-2.16-.18-2.88-.18-.36-.12-.84.18-.66-.3-1.32-.54-.9-.36-2.88.12-1.8 1.08-2.82.66-.72 2.4-.18.66.18.9.84.12.42.54 1.14.84.96.18 3.6-.18.72.06 1.2.18.42.06.96 0 .54.06.96.12.54-.18 1.62-.06 0-.06.18.18.24.24.54.48.96 1.38 1.92.48.36.54.72-.06.6-.54.9-.6.42-1.2 1.62-.36.54-.66 1.14 0 1.26-.12 1.68-.54 1.5-.48 2.16-.06.6-.18.84-.18.54 0 1.14.3.9.3 2.28 0 1.8.48 2.58.36.72 1.56.96 1.44 0 1.92-.48t2.04-.9q.66-.18.96-.6 1.08-1.2 2.4-1.74.66-.36 2.7-2.1 1.44-1.2 2.46-.54.66.36.36 1.26-.18.78-.24 1.56-.06.6-.54 1.26-1.62 2.16-3.3 3.48-.72.42-1.5 1.44-1.08.96-2.28 1.26-1.32.18-2.04.6-.96.72-2.64 1.08-1.44.24-1.92.06-.72-.18-1.5-.18-.9 0-2.34-1.32-.9-.72-.9-1.26 0-.9-.24-1.74-.18-.48-.12-1.2.12-1.56.36-1.92.18-.18.06-.78 0-.54.48-2.16.3-.54 0-1.5-.54-1.62-.24-3.84.18-1.2.06-1.62-.06-.36 0-.96.54-3 .6-5.22zm16.38-20.4q1.08-1.2 3.06-1.56 1.26-.18 2.58 1.32.54.72.42 1.68-.18 1.68-1.32 2.82-1.26 1.32-2.94 1.98-1.44.42-2.46.24-.72 0-1.5.24-1.44.54-2.16.48-.96 0-2.34.48-1.32.54-2.64.48-.78 0-1.62.3-.78.36-1.62.06-.6-.18-.9-.24-2.22.18-3.6-1.02-.96-.9-.9-1.62.18-.66.78-.9 1.02-.48 1.56-.18.66.18 1.92-.18.36-.18 1.14-.18.72 0 1.68.06.66.18 1.26-.3.54-.3 1.08-.18.54.18 2.16-.78.72-.48 1.74-.66 1.26-.18 2.46-.78 1.44-.72 2.16-1.56zm72.9 32.16q.12.18.36.42.36.42 1.14 1.08.54 0 1.2.12 1.2.18 2.1.06 1.08 0 1.92.6 1.08.72 1.08 2.04.12.96-1.26 1.68-1.44.54-3.36-.06-.9-.36-1.92-.24-.24.18-.36.42-.36.36-.72.66.18.9.12 1.74-.18.9.12 1.98-.18 1.62.24 3.42.12 1.92-.18 3.36-.36 1.44-1.14 2.04-.78.66-1.74.54-.9 0-1.74-.78-.78-1.08-1.08-2.58-.18-1.62.24-3.18.54-1.62.42-2.7-.06-1.26.18-2.22.12-.54.18-1.14-.54-.66-1.2-1.2-.18-.18-.36-.24-.36 0-.66.12-.72.36-1.26.42-.6.06-1.08.06-1.14.6-2.58.36-1.14-.54-1.32-1.8-.18-1.02.6-1.8.72-.9 2.04-1.26 1.08-.3 1.62-.18.66.06 1.44.06.54-.18 1.08 0 .72-.54 1.26-1.14.18-.3.42-.54 0-.66.18-1.02.18-1.08.24-2.04 0-.66.24-1.26.72-1.2 1.32-1.26.72 0 1.5 1.86.84 1.5.72 3.6zm8.7-21.12q1.38.18 2.46.06 1.2 0 2.28.78 1.08.72 1.14 2.28.12 1.26-1.38 2.04-1.8.6-3.96-.06-2.58-.9-5.46-.66-.36 0-.6.18 0 .54.06.96.12 1.08 0 1.68-.06.18-.06.72.36.72.72 1.2.72.96 1.2 1.92.18.72.78 1.14.48.42.66 1.02.3.9 1.26 1.86.54.42 1.44 1.5.72.72 1.5 1.32 1.02.72 1.62 1.68.72.78 1.62 1.2 1.02.42 1.44.9.84.9 2.04 1.5 1.62.78 1.92 2.16.36 1.14-.48 2.52-.6 1.14-1.56 1.26-1.08.24-2.76-.36-.72-.3-1.86-1.2-.96-.72-1.44-1.68-.18-.54-.6-.9-.36-.3-1.2-1.62-.6-.9-.96-1.2-.42-.54-.96-1.56-.24-.84-1.74-3.06-1.44-1.74-1.86-2.46-.6-1.02-1.74-2.94-.78-1.38-1.08-2.46-.78-.12-1.32-.18-.06.6-.06 1.2-.06 1.98-.78 3.18-.78 1.26-1.86.84-.6-.3-.72-1.38-.06-2.1-.54-4.08-.42 0-.6.06-.18 0-.24.12-.6.9-1.08 1.68-.54.6-.6 1.44-.54 1.26-1.14 1.98-.36.42-.54 1.08-.24.96-.84 1.68-.42.54-.6 1.26-.18.6-1.08 1.44-.54.54-.72 1.44-.36.54-1.38 1.68-1.32 1.62-1.92 1.86-.6.18-1.44 1.44-.96 1.32-2.34 1.92-1.5.78-2.58.6-1.32-.3-2.22-1.56-.6-.9.18-2.34.72-1.44 2.16-2.16 2.64-1.26 3.36-2.4.36-.3 1.26-.96 1.92-1.62 2.34-2.4.18-.66.72-1.2.54-.54.84-1.08.66-1.02 1.08-1.44.66-.84 1.68-2.28.84-1.2 1.14-1.62.12-.54.48-1.02.72-1.02 1.5-2.1-.06-.9-.06-1.44 0-.12-.06-.18-.6-.36-1.08-.6-.78 0-1.38.24-1.5.72-2.64.78-1.08.18-2.04.06-1.32.6-2.94.3-1.44-.48-1.56-1.98-.18-1.08.66-2.1.9-1.02 2.4-1.38 1.92-.66 3.12-.36 1.2.36 2.64.12 1.02-.3 2.34.06.36.06.6.06.48-.36.96-.84.72-.72 1.38-1.5-.18-2.46-.66-5.28-.54-1.98.24-3.3.84-1.8 2.64-1.8 1.44-.12 2.46 1.44.72 1.08.06 4.26-.18 2.76-.3 4.8.54.24 1.08.96.36.36.96.66 2.46-.12 6.6.6zM263.48 46.1q-.36 1.44-.48 3.12.36 2.16-.42 4.5-.36.78-.3 1.86 0 1.08-.54 3.84.12.96-.36 1.74-.18.36-.24 1.08 0 1.08-.84 1.68-.9.9-1.8 1.02-.96.18-1.74-.3-.96-.72-1.14-1.92-.18-1.08.12-2.16.36-2.16 1.08-3.72 1.08-2.28 1.5-4.44 0-1.8.24-2.46.36-.9.6-2.34.18-2.28.66-4.38.9-3.24.6-4.5-.36-1.38-.36-2.52v-.36q-.36-.36-.78-.66-.24-.18-.42-.3-.06.18-.18.24-.72.78-1.8.66-.96 0-1.5-.9-.42-.84-.36-1.86 0-.54-.06-1.14-.18-1.08.78-3.3.54-.84.6-1.68 0-.54.9-2.22.48-1.2 2.52-3.12 1.38-1.38 1.98-2.7.36-.72 1.26-1.26.72-.54 1.32-.6.54 0 1.14-.42 1.08-.54 1.86-.48.72.18 1.38 1.2.36.72.3 1.08-.36 1.08-1.2 2.04-1.14 1.44-3.06 2.94-1.08.72-1.56 1.92-.24 2.94-.54 5.28-.18.96-.36 1.98.18.9.12 1.74-.18 1.44.84 4.8 1.08 3.6.24 7.02z"/></svg>