<svg viewBox="0 0 457 80" xmlns="http://www.w3.org/2000/svg"><path d="M43.72 53.52q-4.26 3.06-9.84 5.73-5.58 2.67-12.66 5.07-.54.18-1.02.18-.78 0-1.47-.42t-1.05-1.2l-.48-.9q-.78-1.44-.3-2.61.48-1.17 1.98-1.71 12.3-4.14 19.68-9.12l-.06-.3q-8.46-8.64-13.44-22.86-.3-.6-.9-.6h-5.58q-1.38 0-2.19-.81t-.81-2.19v-.42q0-1.38.81-2.19t2.19-.81H38.8q1.08 0 .9-1.08-.3-1.2-.57-2.4-.27-1.2-.57-2.46-.36-1.38.27-2.31.63-.93 2.07-1.05l.72-.06q1.2 0 2.01.51.81.51 1.11 1.71.42 1.62.75 3.21.33 1.59.63 3.15.12.78.9.78h20.16q1.38 0 2.19.81t.81 2.19v.42q0 1.38-.81 2.19t-2.19.81H61.3q-.72 0-.9.72-1.56 7.14-4.11 12.66-2.55 5.52-6.03 9.6-.72.78.18 1.38 7.08 4.5 17.16 8.46 1.56.66 1.98 1.86.42 1.2-.48 2.58l-.72 1.08q-.42.66-1.08 1.02-.66.36-1.38.36-.66 0-1.14-.24-12.24-4.98-19.98-10.68-.24-.18-.54-.18-.18 0-.54.12zm6.96-28.74H34.9q-1.68 0-2.31.93-.63.93.03 2.43 4.32 9.78 11.1 15.9l.3.06q6.12-6.24 9-16.26.42-1.38-.27-2.22-.69-.84-2.07-.84zm66.36-11.04v19.38q0 1.38-.81 2.19t-2.19.81H92.08q-1.38 0-2.19-.81t-.81-2.19V13.74q0-1.38.81-2.19t2.19-.81h21.96q1.38 0 2.19.81t.81 2.19zm-7.32 15.24H96.46q-1.44 0-1.44 1.38 0 1.44 1.44 1.44h13.26q1.38 0 1.38-1.44 0-1.38-1.38-1.38zM96.4 24.9h13.38q1.32 0 1.32-1.38 0-1.32-1.32-1.32H96.4q-1.38 0-1.38 1.32 0 1.38 1.38 1.38zm.18-6.78h13.02q1.5 0 1.5-1.56 0-1.5-1.5-1.5H96.58q-1.56 0-1.56 1.5 0 1.56 1.56 1.56zm3.12 23.94v20.1q0 1.32-.81 2.13-.81.81-2.13.81-1.38 0-2.19-.81t-.81-2.13v-8.34q0-.9-.9-.9h-4.92q-.9 0-.9.9-.42 6.9-7.14 10.68-.72.3-1.32.3-1.38 0-2.22-1.2l-.36-.48q-.78-1.08-.51-2.01.27-.93 1.47-1.59 3.96-2.22 4.56-5.7.12-.9-.84-.9h-3.3q-1.14 0-1.83-.69-.69-.69-.69-1.83 0-1.14.69-1.83.69-.69 1.83-.69h15.48q.9 0 .9-.9v-2.22q0-.9-.9-.9H81.04q-1.38 0-2.19-.81t-.81-2.19v-23.4q0-1.38.81-2.19t2.19-.81q1.38 0 2.19.81t.81 2.19v20.7q0 .9.9.9H96.7q1.38 0 2.19.81t.81 2.19zm6.48 20.1v-20.1q0-1.38.81-2.19t2.19-.81h11.76q.9 0 .9-.9v-20.7q0-1.38.81-2.19t2.19-.81q1.38 0 2.19.81t.81 2.19v23.4q0 1.38-.81 2.19t-2.19.81h-11.82q-.9 0-.9.9v2.22q0 .9.9.9h12.42q1.38 0 2.19.81t.81 2.19V62.1q0 1.38-.81 2.19t-2.19.81h-.24q-1.38 0-2.19-.81t-.81-2.19v-8.28q0-.9-.9-.9h-8.28q-.9 0-.9.9v8.34q0 1.32-.81 2.13-.81.81-2.13.81-1.38 0-2.19-.81t-.81-2.13zm75.6-47.88v17.34q0 1.38-.81 2.19t-2.19.81h-31.86q-1.38 0-2.19-.81t-.81-2.19V14.28q0-1.38.81-2.19t2.19-.81h31.86q1.38 0 2.19.81t.81 2.19zm-8.46 11.34h-21q-.9 0-1.44.54-.54.54-.54 1.44 0 .9.54 1.44.54.54 1.44.54h21q.9 0 1.44-.54.54-.54.54-1.44 0-.9-.54-1.44-.54-.54-1.44-.54zm-20.7-4.8h20.46q1.02 0 1.62-.63.6-.63.6-1.65t-.6-1.62q-.6-.6-1.62-.6h-20.46q-1.02 0-1.65.6-.63.6-.63 1.62t.63 1.65q.63.63 1.65.63zm7.68 20.46v20.94q0 1.32-.78 2.1t-2.1.78h-2.04q-.84 0-.84-.84v-.84q0-.9-.9-.9h-9.78q-.9 0-.9.9v.84q0 .84-.84.84h-2.04q-1.32 0-2.1-.78t-.78-2.1V41.28q0-1.38.81-2.19t2.19-.81h17.1q1.38 0 2.19.81t.81 2.19zm-8.1 11.52h-6.9q-1.02 0-1.68.66-.66.66-.66 1.68t.66 1.68q.66.66 1.68.66h6.9q1.02 0 1.68-.66.66-.66.66-1.68t-.66-1.68q-.66-.66-1.68-.66zm-6.9-4.8h6.9q1.02 0 1.68-.66.66-.66.66-1.68t-.66-1.68q-.66-.66-1.68-.66h-6.9q-1.02 0-1.68.66-.66.66-.66 1.68t.66 1.68q.66.66 1.68.66zm43.62-6.72v20.94q0 1.32-.78 2.1t-2.1.78H184q-.84 0-.84-.84v-.84q0-.9-.9-.9h-10.02q-.9 0-.9.9v.84q0 .84-.84.84h-2.04q-1.32 0-2.1-.78t-.78-2.1V41.28q0-1.38.81-2.19t2.19-.81h17.34q1.38 0 2.19.81t.81 2.19zm-8.1 11.52h-7.14q-1.02 0-1.68.66-.66.66-.66 1.68t.66 1.68q.66.66 1.68.66h7.14q1.02 0 1.68-.66.66-.66.66-1.68t-.66-1.68q-.66-.66-1.68-.66zm-7.14-4.8h7.14q1.02 0 1.68-.66.66-.66.66-1.68t-.66-1.68q-.66-.66-1.68-.66h-7.14q-1.02 0-1.68.66-.66.66-.66 1.68t.66 1.68q.66.66 1.68.66zm27.36-36.6h20.52q1.2 0 1.92.72t.72 1.92q0 1.2-.72 1.92t-1.92.72h-2.94q-.9 0-.9.9v3.48q0 .9.9.9h2.22q.96 0 1.56.6.6.6.6 1.56v11.46q0 1.02-.6 1.62-.6.6-1.56.6h-2.22q-.9 0-.9.9v3.72q0 .9.9.9h3.42q1.2 0 1.89.69t.69 1.89q0 1.2-.69 1.92t-1.89.72h-21q-1.38 0-2.19-.81t-.81-2.19V14.4q0-1.38.81-2.19t2.19-.81zm3 7.8v21.6q0 1.14.69 1.83.69.69 1.83.69h2.88q1.14 0 1.83-.69.69-.69.69-1.83v-.48q0-1.14-.69-1.83-.69-.69-1.83-.69h-1.26q-1.26 0-1.26-1.26V23.22q0-1.26 1.26-1.26h1.26q1.14 0 1.83-.75.69-.75.69-1.89t-.69-1.89q-.69-.75-1.83-.75h-2.88q-1.14 0-1.83.69-.69.69-.69 1.83zm7.92 10.08v1.2q0 1.14.69 1.83.69.69 1.83.69h.96q1.14 0 1.83-.69.69-.69.69-1.83v-1.2q0-1.14-.69-1.83-.69-.69-1.83-.69h-.96q-1.14 0-1.83.69-.69.69-.69 1.83zM250.3 39.3v3.72q0 5.34-4.5 5.34h-13.5q-5.34 0-5.34-4.56V14.76q0-1.38.81-2.19t2.19-.81h15.24q1.38 0 2.19.81t.81 2.19v13.8q0 1.38-.81 2.19t-2.19.81h-11.58q-.9 0-.9.9v8.52q0 1.62 1.62 1.62h8.16q2.04 0 2.04-2.04V38.1q0-.96.48-1.47t1.32-.51q.36 0 .6.06l1.02.18q1.02.3 1.68 1.08.66.78.66 1.86zm-10.38-22.02h-4.68q-1.14 0-1.83.69-.69.69-.69 1.83v3.72q0 1.14.69 1.83.69.69 1.83.69h4.68q1.14 0 1.83-.69.69-.69.69-1.83V19.8q0-1.14-.69-1.83-.69-.69-1.83-.69zm-25.32 35.1l.36-.06q1.08 0 1.95.36.87.36 1.29 1.5.66 1.86 1.23 3.63.57 1.77 1.05 3.51.42 1.38-.27 2.37-.69.99-2.13 1.17l-.24.06q-1.38 0-2.25-.57-.87-.57-1.17-2.01-.3-1.62-.75-3.33t-.99-3.45q-.42-1.2.12-2.07.54-.87 1.8-1.11zm13.8-.66l.42-.06q.18-.06.6-.06 1.92 0 2.7 1.8 1.62 3.78 2.7 7.38.48 1.38-.18 2.37-.66.99-2.04 1.29h-.18q-.24.06-.66.06-2.28 0-2.94-2.4-.42-1.74-.99-3.51-.57-1.77-1.23-3.63-.48-1.2.03-2.07.51-.87 1.77-1.17zm13.56-.48l.54-.12q.48-.18.9-.18 1.68 0 2.58 1.56 1.08 2.04 2.04 4.02.96 1.98 1.8 3.96.6 1.38.03 2.43-.57 1.05-1.95 1.47l-.36.12q-.3.12-.51.12h-.45q-2.04 0-2.82-2.16-1.38-3.84-3.24-7.68-.66-1.2-.24-2.16.42-.96 1.68-1.38zm-45.12 8.7q.84-1.56 1.65-3.18.81-1.62 1.47-3.3.84-1.92 2.7-1.92.54 0 1.14.18 1.2.48 1.74 1.47t.06 2.19q-1.38 3.9-3.18 7.44-.84 1.56-2.46 1.56-.72 0-1.26-.24l-.54-.18q-1.38-.6-1.71-1.68-.33-1.08.39-2.34zm65.34-40.2q-.96-.9-2.01-1.83-1.05-.93-2.19-1.89-1.02-.84-1.11-1.98-.09-1.14.81-2.16l.12-.12q.9-1.02 2.16-1.02 1.02 0 1.98.72 1.38 1.2 2.49 2.16 1.11.96 2.07 1.8 1.02.9 1.02 2.04 0 1.14-.96 2.1l-.12.12q-.96.96-2.16.96-1.08 0-2.1-.9zm-5.82 40.62q2.28-7.02 4.56-15.84.6-2.1 2.52-2.1.3 0 .54.03.24.03.54.09l.18.06q1.2.42 1.71 1.41t.21 2.19q-1.38 5.34-2.49 9.39-1.11 4.05-2.07 6.87-.66 1.98-2.58 1.98-.6 0-1.14-.18l-.18-.06q-1.26-.48-1.77-1.53t-.03-2.31zm4.2-25.2l-1.95-1.83q-.99-.93-2.13-1.89-1.02-.84-1.08-1.95-.06-1.11.9-2.13l.12-.12q.9-1.02 2.1-1.02 1.02 0 1.98.78 2.7 2.22 4.44 3.9 1.02.9.99 2.04-.03 1.14-.93 2.04l-.12.12q-.96.96-2.16.96-1.14 0-2.16-.9zm48.9-20.52v44.28q0 6.18-6.12 6.18h-3.9q-1.08 0-1.89-.66-.81-.66-1.05-1.74l-.24-1.26q-.24-1.26.39-2.04t1.95-.78h2.88q2.04 0 2.04-2.04v-37.8q0-.9-.9-.9h-14.76q-1.38 0-2.19-.81t-.81-2.19v-.24q0-1.38.81-2.19t2.19-.81h18.6q1.38 0 2.19.81t.81 2.19zM297.7 54.9h-16.74q-1.32 0-2.1-.78t-.78-2.1q0-1.32.78-2.1t2.1-.78h4.68q.9 0 .9-.9v-5.22q0-.9-.9-.9h-3.42q-1.26 0-2.01-.75-.75-.75-.75-2.01 0-1.26.75-2.01.75-.75 2.01-.75h3.42q.9 0 .9-.9v-4.74q0-.9-.9-.9h-4.2q-1.32 0-2.1-.78t-.78-2.1q0-1.32.78-2.1t2.1-.78h15.78q1.32 0 2.1.78t.78 2.1q0 1.32-.78 2.1t-2.1.78h-4.08q-.9 0-.9.9v4.74q0 .9.9.9h3.3q1.26 0 2.01.75.75.75.75 2.01 0 1.26-.75 2.01-.75.75-2.01.75h-3.3q-.9 0-.9.9v5.22q0 .9.9.9h4.56q1.32 0 2.1.78t.78 2.1q0 1.32-.78 2.1t-2.1.78zm-28.38 7.26v-37.5q0-1.32.81-2.13.81-.81 2.19-.81 1.32 0 2.13.81.81.81.81 2.13v37.5q0 1.32-.81 2.13-.81.81-2.13.81-1.38 0-2.19-.81t-.81-2.13zm3.42-51.48l.36-.24q.84-.54 1.68-.54 1.2 0 2.1.9 1.08 1.14 2.07 2.28.99 1.14 1.95 2.28.84 1.08.63 2.19-.21 1.11-1.35 1.83l-.06.06q-.9.54-1.74.54-1.44 0-2.46-1.26-.84-1.08-1.71-2.13-.87-1.05-1.89-2.13-.9-.96-.81-1.98.09-1.02 1.23-1.8zm58.98 15.12q-.48-.72-.99-1.44t-1.05-1.56q-.66-.9-.51-1.83.15-.93 1.17-1.59.78-.48 1.56-.48 1.26 0 2.1 1.2 1.26 1.68 2.16 3.06.66.96.39 1.92t-1.23 1.56q-.66.42-1.44.42-1.32 0-2.16-1.26zm18.72-3.36q.54-.54 1.08-1.14.54-.6 1.14-1.26.84-.9 1.8-.9.9 0 1.68.72.84.78.87 1.8.03 1.02-.69 1.86-.66.78-1.2 1.41-.54.63-1.02 1.17-.84.84-1.8.84-1.02 0-1.8-.84-.84-.84-.87-1.83-.03-.99.81-1.83zM334.6 54.3l.42-.06q1.08 0 1.92.36.84.36 1.26 1.5.48 1.2.87 2.4t.69 2.4q.42 1.38-.27 2.34t-2.07 1.14l-.24.06q-1.38 0-2.28-.57-.9-.57-1.2-2.01-.18-1.02-.48-2.13-.3-1.11-.6-2.25-.36-1.2.18-2.07.54-.87 1.8-1.11zm14.04-.24l.48-.06q.48-.12.72-.12 1.8 0 2.64 1.68.54 1.2 1.02 2.31t.9 2.31q.54 1.38-.06 2.4-.6 1.02-1.98 1.32l-.18.06q-.3.06-.84.06-2.16 0-2.88-2.34-.3-1.02-.66-2.1-.36-1.08-.84-2.16-.48-1.2-.03-2.13.45-.93 1.71-1.23zm-31.14 5.52q.72-1.08 1.41-2.19.69-1.11 1.35-2.25.96-1.62 2.58-1.62.66 0 1.44.3v.06q1.2.54 1.59 1.59.39 1.05-.15 2.19-.66 1.38-1.38 2.73-.72 1.35-1.56 2.67-.96 1.32-2.34 1.32-.84 0-1.5-.42l-.54-.24q-1.32-.72-1.53-1.83-.21-1.11.63-2.31zm43.98-7.02h-42.3q-1.2 0-1.92-.72t-.72-1.92q0-1.2.72-1.92t1.92-.72h19.86q.9 0 .9-.9v-2.64q0-.9-.9-.9H321.4q-1.14 0-1.83-.69-.69-.69-.69-1.83 0-1.14.69-1.83.69-.69 1.83-.69h17.64q.9 0 .9-.9v-2.34q0-.9-.9-.9h-15.18q-1.38 0-2.19-.81t-.81-2.19V15.48q0-1.38.81-2.19t2.19-.81h38.64q1.38 0 2.19.81t.81 2.19v15.18q0 1.38-.81 2.19t-2.19.81h-15.42q-.9 0-.9.9v2.34q0 .9.9.9h17.52q1.14 0 1.83.69.69.69.69 1.83 0 1.14-.69 1.83-.69.69-1.83.69h-17.52q-.9 0-.9.9v2.64q0 .9.9.9h19.56q1.2 0 1.92.72t.72 1.92v1.26q0 1.38-1.38 1.38h-1.38q-1.62 0-.78 1.44 1.02 1.38 1.86 2.79.84 1.41 1.62 2.79.72 1.32.27 2.46-.45 1.14-1.83 1.62l-.3.12q-.54.24-1.2.24-1.92 0-2.76-1.92-.72-1.62-1.56-3.24-.84-1.62-1.86-3.36-.3-.48-.15-.9.15-.42.63-.66l1.2-.48q1.02-.42.96-.66-.06-.24-1.14-.24zM339.94 26.1v-6.06q0-1.14-.69-1.83-.69-.69-1.83-.69h-8.04q-1.14 0-1.83.69-.69.69-.69 1.83v6.06q0 1.14.69 1.83.69.69 1.83.69h8.04q1.14 0 1.83-.69.69-.69.69-1.83zm6.24-6.06v6.06q0 1.14.69 1.83.69.69 1.83.69h8.28q1.14 0 1.83-.69.69-.69.69-1.83v-6.06q0-1.14-.69-1.83-.69-.69-1.83-.69h-8.28q-1.14 0-1.83.69-.69.69-.69 1.83zM403 67.8q0 1.2-.75 1.95t-1.95.75h-24.72q-1.2 0-1.95-.75t-.75-1.95q0-1.2.75-1.95t1.95-.75h24.72q1.2 0 1.95.75t.75 1.95zm33.96-7.86H410.8q-1.38 0-2.19-.81t-.81-2.19V19.56q0-1.38.81-2.19t2.19-.81h25.98q1.32 0 2.13.81.81.81.81 2.13 0 1.38-.81 2.19t-2.13.81h-20.46q-.9 0-.9.9v10.44q0 .9.9.9h18.84q1.32 0 2.13.81.81.81.81 2.13 0 1.38-.81 2.19t-2.13.81h-18.84q-.9 0-.9.9V53.1q0 .9.9.9h20.64q1.32 0 2.13.81.81.81.81 2.13 0 1.38-.81 2.19t-2.13.81z"/></svg>