<svg viewBox="0 0 465 80" xmlns="http://www.w3.org/2000/svg"><path d="M43.72 50.78q-9.24 7.92-24.78 12.6-.6.12-.72.12-1.38 0-2.1-1.2-.96-1.62.9-2.22 7.5-2.22 13.44-5.1 5.94-2.88 10.38-6.42.72-.6.06-1.26l-.66-.6q-9.18-9.18-14.46-24.06-.3-.6-.9-.6h-7.32q-1.74 0-1.74-1.74 0-1.68 1.74-1.68h23.22q1.02 0 .84-1.02-.3-1.92-.72-3.84t-1.02-3.9q-.18-.72.12-1.2t1.14-.6q.78 0 1.35.33.57.33.81 1.17.6 2.16 1.02 4.2.42 2.04.72 4.08.12.78.9.78h22.32q1.68 0 1.68 1.68 0 1.74-1.68 1.74h-7.74q-.72 0-.9.66-4.14 15.72-12.18 24.66-.66.72.12 1.32 4.14 3.06 9.45 5.97 5.31 2.91 11.97 5.61.84.3.99.93.15.63-.33 1.35-.72 1.02-1.92 1.02-.54 0-1.02-.24-13.32-5.7-21.78-12.54-.24-.18-.6-.18-.3 0-.6.18zm11.16-28.74h-24.3q-.78 0-1.11.45-.33.45-.03 1.17 5.04 12.54 13.02 20.58l.78.72q.42.3.72.3.42 0 .78-.36 3.9-4.14 6.69-9.48 2.79-5.34 4.59-11.88.24-.66-.09-1.08-.33-.42-1.05-.42zm61.62-9v19.02q0 1.38-.81 2.19t-2.19.81H92.38q-1.38 0-2.19-.81t-.81-2.19V13.04q0-1.38.81-2.19t2.19-.81h21.12q1.38 0 2.19.81t.81 2.19zm-4.62 14.58H94q-1.2 0-1.2 1.2v1.86q0 1.2 1.2 1.2h17.88q1.2 0 1.2-1.2v-1.86q0-1.2-1.2-1.2zM94 24.74h17.88q1.2 0 1.2-1.2v-1.98q0-1.2-1.2-1.2H94q-1.2 0-1.2 1.2v1.98q0 1.2 1.2 1.2zm0-7.26h17.88q1.2 0 1.2-1.2v-1.86q0-1.2-1.2-1.2H94q-1.2 0-1.2 1.2v1.86q0 1.2 1.2 1.2zm4.44 24.42v20.28q0 1.68-1.68 1.68-1.74 0-1.74-1.68V51.86q0-.9-.9-.9h-7.86q-.48 0-.48.48v.48q0 7.38-7.32 11.16-.42.24-.96.24-1.02 0-1.68-.9-.48-.66-.33-1.23.15-.57.87-.93 6-2.94 6-8.34v-.48q0-.48-.48-.48h-4.92q-.72 0-1.17-.45-.45-.45-.45-1.17 0-.66.45-1.11.45-.45 1.17-.45h17.16q.9 0 .9-.9v-3.9q0-.9-.9-.9H81.88q-1.38 0-2.19-.81t-.81-2.19V15.62q0-1.68 1.68-1.68t1.68 1.68V38q0 .9.9.9h12.3q1.38 0 2.19.81t.81 2.19zM127 15.62v23.46q0 1.38-.81 2.19t-2.19.81h-12q-.9 0-.9.9v3.9q0 .9.9.9h12.96q1.38 0 2.19.81t.81 2.19v11.4q0 1.68-1.68 1.68-1.74 0-1.74-1.68V51.86q0-.9-.9-.9H112q-.9 0-.9.9v10.32q0 1.68-1.68 1.68-1.74 0-1.74-1.68V41.9q0-1.38.81-2.19t2.19-.81h12.06q.9 0 .9-.9V15.62q0-1.68 1.68-1.68t1.68 1.68zm53.7-1.38v15.42q0 1.38-.81 2.19t-2.19.81h-29.52q-1.38 0-2.19-.81t-.81-2.19V14.24q0-1.38.81-2.19t2.19-.81h29.52q1.38 0 2.19.81t.81 2.19zm-4.62 9.18H149.8q-1.2 0-1.2 1.2v3.72q0 1.2 1.2 1.2h26.28q1.2 0 1.2-1.2v-3.72q0-1.2-1.2-1.2zm-26.28-2.94h26.28q1.2 0 1.2-1.2v-3.66q0-1.2-1.2-1.2H149.8q-1.2 0-1.2 1.2v3.66q0 1.2 1.2 1.2zm9.66 20.46V62.3q0 .72-.45 1.14-.45.42-1.11.42-.66 0-1.11-.42-.45-.42-.45-1.08v-.78q0-.78-.78-.78h-13.32q-.78 0-.78.78v.78q0 .66-.45 1.08-.45.42-1.11.42-.72 0-1.17-.45-.45-.45-.45-1.11V40.94q0-1.38.81-2.19t2.19-.81h15.18q1.38 0 2.19.81t.81 2.19zm-4.32 10.14h-12.48q-1.2 0-1.2 1.2v4.14q0 1.2 1.2 1.2h12.48q1.2 0 1.2-1.2v-4.14q0-1.2-1.2-1.2zm-12.48-2.94h12.48q1.2 0 1.2-1.2v-4.62q0-1.2-1.2-1.2h-12.48q-1.2 0-1.2 1.2v4.62q0 1.2 1.2 1.2zm45.18-7.2V62.3q0 .66-.45 1.11-.45.45-1.17.45-.66 0-1.11-.42-.45-.42-.45-1.08v-.78q0-.78-.78-.78h-13.32q-.78 0-.78.78v.78q0 1.5-1.56 1.5-.66 0-1.11-.42-.45-.42-.45-1.14V40.94q0-1.38.81-2.19t2.19-.81h15.18q1.38 0 2.19.81t.81 2.19zm-4.38 10.14h-12.48q-1.2 0-1.2 1.2v4.14q0 1.2 1.2 1.2h12.48q1.2 0 1.2-1.2v-4.14q0-1.2-1.2-1.2zm-12.48-2.94h12.48q1.2 0 1.2-1.2v-4.62q0-1.2-1.2-1.2h-12.48q-1.2 0-1.2 1.2v4.62q0 1.2 1.2 1.2zm30.9-36.9h20.76q.66 0 1.11.45.45.45.45 1.11 0 .72-.45 1.17-.45.45-1.11.45h-5.52q-.9 0-.9.9v5.34q0 .9.9.9h2.4q1.38 0 2.19.81t.81 2.19v8.4q0 1.38-.81 2.19t-2.19.81h-2.64q-.9 0-.9.9v5.34q0 .9.9.9h6.66q.66 0 1.11.45.45.45.45 1.11 0 .72-.45 1.17-.45.45-1.11.45h-21.66q-1.38 0-2.19-.81t-.81-2.19V14.24q0-1.38.81-2.19t2.19-.81zm.36 4.38V41.9q0 1.2 1.2 1.2h8.16q1.2 0 1.2-1.2v-4.74q0-1.2-1.2-1.2h-2.34q-1.38 0-2.19-.81t-.81-2.19v-8.4q0-1.38.81-2.19t2.19-.81h2.58q1.2 0 1.2-1.2v-4.74q0-1.2-1.2-1.2h-8.4q-1.2 0-1.2 1.2zm15.9 9.12h-7.56q-1.2 0-1.2 1.2v5.64q0 1.2 1.2 1.2h7.56q1.2 0 1.2-1.2v-5.64q0-1.2-1.2-1.2zm28.2 15.72V36.2q0-1.26 1.08-1.26.84 0 1.44.66t.6 1.5v3.48q0 5.34-4.5 5.34h-12.3q-5.34 0-5.34-4.5V14.48q0-1.38.81-2.19t2.19-.81h14.04q1.38 0 2.19.81t.81 2.19v11.94q0 1.38-.81 2.19t-2.19.81H231.4q-.9 0-.9.9v10.56q0 1.68 1.62 1.68h12.18q2.04 0 2.04-2.1zm-3.3-25.8H231.7q-1.2 0-1.2 1.2v9.18q0 1.2 1.2 1.2h11.34q1.2 0 1.2-1.2v-9.18q0-1.2-1.2-1.2zm-28.68 35.82q.78 0 1.32.18t.84 1.02q.96 2.34 1.71 4.65.75 2.31 1.41 4.59.18.78-.18 1.32t-1.14.66q-.84 0-1.38-.24-.54-.24-.72-1.2-.96-4.32-2.88-9.18-.3-.66 0-1.17.3-.51 1.02-.63zm13.8-.48q.12 0 .24-.03t.24-.03q1.26 0 1.74 1.14 2.22 4.68 3.66 9.3.3.78-.06 1.35-.36.57-1.14.75-.84 0-1.41-.24t-.81-1.14q-.6-2.22-1.44-4.5t-1.92-4.74q-.3-.66-.06-1.17.24-.51.96-.69zm13.86-.48q.48-.12.72-.12 1.02 0 1.62.96 1.56 2.7 2.91 5.25t2.49 5.13q.36.72.09 1.32-.27.6-1.05.9-.24.06-.66.06-1.14 0-1.68-1.2-1.02-2.52-2.31-5.07-1.29-2.55-2.85-5.25-.78-1.38.72-1.98zm-45.3 11.34q2.88-4.86 4.92-10.08.48-1.08 1.5-1.08.18 0 .66.12.66.24.96.81.3.57 0 1.29-1.86 5.34-4.68 10.32-.54 1.08-1.74 1.08-.48 0-.84-.18-.84-.3-1.02-.93-.18-.63.24-1.35zm67.44-42.12q-1.38-1.32-2.94-2.7-1.56-1.38-3.36-2.82-1.26-1.08-.12-2.34.54-.6 1.26-.6t1.2.42q2.1 1.74 3.69 3.15 1.59 1.41 2.73 2.43 1.26 1.2.06 2.4-.6.6-1.26.6-.72 0-1.26-.54zm-7.62 42.12q1.68-3.96 3.3-8.52 1.62-4.56 3.24-9.72.3-1.2 1.38-1.2.24 0 .72.12.72.3 1.05.93.33.63.03 1.41-2.04 6.3-3.63 10.86-1.59 4.56-2.79 7.5-.42 1.08-1.56 1.08-.3 0-.78-.12-.72-.3-.99-.96-.27-.66.03-1.38zm6.48-26.64q-1.44-1.32-3.06-2.7-1.62-1.38-3.48-2.82-1.38-1.08-.18-2.34.54-.6 1.32-.6.66 0 1.14.42 4.44 3.48 6.66 5.58 1.26 1.2.06 2.4-.54.6-1.26.6-.66 0-1.2-.54zm45.54-19.14v44.16q0 4.5-4.14 4.5h-5.1q-.84 0-1.44-.45t-.78-1.23q-.24-.84.12-1.29.36-.45 1.2-.45h5.34q1.62 0 1.62-1.62V16.34q0-.9-.9-.9h-18.6q-1.68 0-1.68-1.68t1.68-1.68h19.68q1.38 0 2.19.81t.81 2.19zm-9.42 38.58h-19.56q-1.74 0-1.74-1.74 0-1.68 1.74-1.68h7.32q.9 0 .9-.9v-8.58q0-.9-.9-.9h-5.88q-1.74 0-1.74-1.74 0-1.68 1.74-1.68h5.88q.9 0 .9-.9v-7.2q0-.9-.9-.9h-6.84q-1.74 0-1.74-1.74 0-1.68 1.74-1.68h18.84q1.68 0 1.68 1.68 0 1.74-1.68 1.74h-7.02q-.9 0-.9.9v7.2q0 .9.9.9h5.82q1.68 0 1.68 1.68 0 1.74-1.68 1.74h-5.82q-.9 0-.9.9v8.58q0 .9.9.9h7.26q1.68 0 1.68 1.68 0 1.74-1.68 1.74zm-28.68 8.64V21.8q0-.66.45-1.11.45-.45 1.17-.45.66 0 1.11.45.45.45.45 1.11v40.5q0 .66-.45 1.11-.45.45-1.11.45-.72 0-1.17-.45-.45-.45-.45-1.11zm1.5-52.86q.66-.42 1.2-.42.66 0 1.26.48 3.48 3.06 6.48 6.42.48.54.42 1.17-.06.63-.66 1.05-.48.42-1.08.42-.66 0-1.32-.66-1.38-1.56-2.94-3.18t-3.42-3.24q-.54-.48-.54-1.02t.6-1.02zm61.5 15.12q-.78-1.2-1.71-2.49-.93-1.29-1.95-2.67-.9-1.08.36-1.98.3-.24.9-.24.78 0 1.2.6 1.2 1.62 2.16 2.88.96 1.26 1.62 2.28.42.54.27 1.11-.15.57-.69.93-.48.3-.9.3-.78 0-1.26-.72zm17.22-1.74q.9-1.14 1.89-2.4.99-1.26 2.01-2.7.42-.6 1.08-.6.48 0 .96.3 1.08.96.3 2.16-2.4 3.42-3.96 5.22-.42.6-1.14.6-.54 0-.96-.42-.54-.42-.6-1.02-.06-.6.42-1.14zm14.7-8.1V27.8q0 1.38-.81 2.19t-2.19.81h-16.26q-.9 0-.9.9v4.2q0 .9.9.9h19.92q.66 0 1.11.45.45.45.45 1.11 0 .72-.45 1.17-.45.45-1.11.45h-19.92q-.9 0-.9.9v5.1q0 .9.9.9h22.5q.66 0 1.11.45.45.45.45 1.11 0 .72-.45 1.17-.45.45-1.11.45h-51.18q-.72 0-1.17-.45-.45-.45-.45-1.17 0-.66.45-1.11.45-.45 1.17-.45h23.52q.9 0 .9-.9v-5.1q0-.9-.9-.9h-20.7q-.72 0-1.17-.45-.45-.45-.45-1.17 0-.66.45-1.11.45-.45 1.17-.45h20.7q.9 0 .9-.9v-4.2q0-.9-.9-.9h-16.5q-1.38 0-2.19-.81t-.81-2.19V14.72q0-1.38.81-2.19t2.19-.81h37.92q1.38 0 2.19.81t.81 2.19zm-23.52 11.7V16.1q0-1.2-1.2-1.2h-14.64q-1.2 0-1.2 1.2v10.32q0 1.2 1.2 1.2h14.64q1.2 0 1.2-1.2zm3.36-10.32v10.32q0 1.2 1.2 1.2h14.34q1.2 0 1.2-1.2V16.1q0-1.2-1.2-1.2h-14.34q-1.2 0-1.2 1.2zM334.6 53.06q.78 0 1.32.21t.9.99q.66 1.68 1.2 3.3.54 1.62 1.02 3.18.18.72-.15 1.26-.33.54-1.05.72-.78 0-1.29-.24t-.69-1.08q-.42-1.56-.99-3.18-.57-1.62-1.23-3.3-.6-1.5.96-1.86zm13.8-.24q.12 0 .3-.03t.3-.03q1.2 0 1.68 1.08.9 1.74 1.62 3.42.72 1.68 1.38 3.42.3.66-.03 1.23-.33.57-1.05.81-.12 0-.27.03-.15.03-.27.03-1.14 0-1.62-1.26-1.08-3.3-2.88-6.78-.66-1.44.84-1.92zm-31.26 8.04q2.52-3.54 4.68-7.5.48-.96 1.44-.96.36 0 .78.18.66.3.87.93.21.63-.09 1.29-1.02 2.04-2.1 3.96t-2.34 3.78q-.6.9-1.68.9-.54 0-1.02-.24-.72-.42-.87-1.05-.15-.63.33-1.29zm44.64-8.76q.48-.12.78-.12 1.02 0 1.56.84 1.38 1.98 2.58 3.96 1.2 1.98 2.22 3.9.36.66.12 1.32t-.96.96q-.48.12-.78.12-1.08 0-1.56-1.08-.96-1.92-2.07-3.87-1.11-1.95-2.49-4.05-.42-.6-.24-1.14.18-.54.84-.84zm41.1 16.14q0 .78-.48 1.26t-1.26.48h-26.46q-.84 0-1.32-.48-.48-.48-.48-1.26 0-.84.48-1.32.48-.48 1.32-.48h26.46q.78 0 1.26.48t.48 1.32zm8.58-42.18v30.96q0 .84-.51 1.38-.51.54-1.35.54-.84 0-1.38-.54-.54-.54-.54-1.38V19.64q0-1.38.81-2.19t2.19-.81h1.2q.96 0 1.74.54t1.08 1.44l12.36 33.3q.36 1.02.84 1.02t.84-1.02l11.58-33.3q.3-.9 1.08-1.44.78-.54 1.8-.54h1.44q1.38 0 2.19.81t.81 2.19v37.38q0 .84-.54 1.38-.54.54-1.38.54-.84 0-1.38-.54-.54-.54-.54-1.38v-31.2q0-2.46-.54-2.46-.48 0-1.2 2.16L430.9 56.96q-.3.9-1.08 1.44-.78.54-1.74.54h-.48q-.96 0-1.74-.54t-1.08-1.44L413.2 25.7q-.72-1.98-1.2-1.98-.54 0-.54 2.34z"/></svg>