<svg viewBox="0 0 508 80" xmlns="http://www.w3.org/2000/svg"><path d="M49.88 16.56q6.66.24 11.82 2.94 5.04 2.58 4.98 5.28-.06 2.7-1.92 4.02-1.86 1.26-4.14.36-.9-.36-1.86-.72l.18.3q.54 1.44.54 3.36 0 3.6-3.54 7.98-1.8 2.34-3.66 4.92 5.88 4.2 11.34 10.14 2.34 2.16 2.82 5.1.48 3-1.44 5.1-1.8 2.16-5.28 1.44-3.48-.54-6.78-3.96-4.14-3.9-7.98-7.26-2.04 2.4-4.32 4.5-4.56 4.08-8.34 5.64-2.94 1.26-6.54.66-3.48-.18-6-1.86-2.22-1.32-3.48-3.72-1.08-2.28-.84-3.66.3-1.38 2.4-.84 3.78.54 8.28-1.8 4.08-2.1 8.28-6.84-.18-.12-.36-.18-9.36-5.94-14.94-4.62-1.8.24-2.58-.9-.9-1.02.9-3t5.88-2.7q8.94-.84 17.76 2.7.54-.9 1.26-1.98 2.82-4.5 4.92-6.66 1.56-1.62 1.98-2.52-1.08.18-2.28.48-5.46 1.32-11.76 3.24-7.2 2.4-11.16 2.28-3.96-.12-6.42-1.74-2.4-1.44-2.4-3.3 0-1.8 1.68-1.86 1.56.06 5.4-2.04 3.9-1.92 7.62-3.36-1.44-1.26-2.16-2.82-.36-1.2-.18-2.22.18-1.02 1.5-2.28 1.2-1.02 3.66-1.8 2.46-.66 5.58-.12 3.06.54 5.22 2.58 1.02.96 1.68 2.1 2.82-.48 4.68-.36zm62.88 5.46q.18 6.3.72 13.26-.06 1.08-.06 1.86 1.02-.18 2.1-.42 0-.54.24-1.32.84-3.36.72-13.2-.06-3.18-1.32-4.08-1.08-.9-1.26-2.46-.06-1.62.84-2.28.84-.54 2.58-.78 1.62 0 3.18.9t2.58 2.64q.9 1.5 1.14 3 .18 2.22.42 5.04 0 2.76.54 8.04.36 5.4-.42 9.06-.72 2.52-3.48 2.7-1.44 0-2.4-.54-3.6.72-6.84 1.74.12.78.12 2.46.84-.36 2.16-.78 2.64-.72 4.98.06 2.52.78 4.5 3.06 1.8 2.52 2.04 5.4 0 3.24.18 6.72.36 3.54-1.68 4.62-1.98 1.02-4.08.6-1.98-.18-2.94-1.5-.9-1.08-.84-2.1-.06-.54-.06-1.98-.24-1.08-.06-4.14.12-2.7-.36-3.12-.36-.12-2.1.96-.78.42-1.5.78-.06.54.12 1.2.54 7.56-.78 9.36-1.44 1.74-4.2 1.68-2.76 0-4.14-1.62-1.5-1.32-1.08-5.28.12-2.7.18-5.7-.06-2.7.3-5.58.3-3.78-1.02-4.68-1.32-.72-1.44-2.52-.06-.72.12-1.26-.72.24-1.56.42-.06.18.12.36.54 1.32.42 6-.18 4.68.24 9.12.18 7.2-.96 8.7-1.32 1.56-3.9 1.56-2.52.18-3.84-1.5-1.26-1.44-1.02-4.98.12-3.24.3-6.6-2.04.6-3.78 1.32.54 1.8.54 4.2-.06 2.82-1.14 5.16-.78 1.92-2.46 2.34-1.68.54-3.48-.48-1.8-.9-2.82-2.28-1.08-1.08.48-4.14 1.08-1.74 1.5-3.3 0-.3.06-.54-.06 0-.18-.06-2.52-1.02-2.76-3.54-.36-2.34 1.38-2.64 1.74-.18 3.3-1.32 2.7-1.62 6.96-2.58 1.38-.36 2.76-.24 0-1.02-.18-1.62-.96.24-2.1.42-4.14.6-5.88.06-2.34-.66-4.38-3.3-1.98-2.46-2.16-5.28.3-4.86.3-7.62 0-2.64.24-5.46.18-1.62-1.08-2.46-1.26-.84-.72-2.28.36-1.26 2.88-1.68 2.46-.3 4.2 1.14 1.74 1.32 2.1 4.86.18 2.22-.3 6.96-.42 4.56-.36 6.42.12 1.86.36 2.04.12.24 1.38-.48.54-.3 1.44-.54-.18 0-.12-.24-.42-1.38-.6-5.4-.06-4.08.54-12.12-.06-1.02-.78-1.86-.9-.66-.84-1.68-.06-.9.78-1.68.84-.66 2.4-.48 1.44.18 2.88 1.56l.54.54q.36-.12.78-.48 2.7-1.98 6.78-3.42 3.9-1.38 7.2-.12 2.7.9 4.86 3.48 1.98 2.58 1.98 5.94zM93.2 27.18q-.24 3.12-.06 6.3.18 3.06.6 3.54-.06 0-.06.18 0-.12.06-.18.18.42 2.88-.6.12 0 .3-.18-.42-.36-.9-.72-1.26-1.02-1.92-2.4-.72-1.44-.12-2.46.36-1.38 1.92-2.76 1.56-1.44 1.5-1.8-.18-.66-1.74-1.38-1.26-.48-2.4-1.86.12 1.8-.06 4.32zm10.56 5.94q-.18-2.52.36-8.46.48-5.7-.42-6.24-.54-.36-3.12.66.36.24.96.66 1.56 1.26 2.16 2.76.36 1.5.24 2.52-.18 1.44-2.22 3.3-2.16 1.68-1.74 2.46 0 .42 1.5 1.38 1.44.9 2.1 2.22 0 .18.18.48v-1.74zm70.98 34.5q-5.64.18-9.72-1.74-3.96-1.8-5.82-4.98-2.04-3.18-2.52-6.6-.18-1.2.18-1.44-.06 0 .12-.06-.24 0-.42-.24-2.58-1.44-2.52-2.94 0-1.2.72-1.98.54-.66 1.68-.48.9.18 3.48-1.02 1.08-.48 2.34-1.02-.24-1.56-.42-3-.24-.36-.24-.66-2.76.18-4.38-.78-.36-.12-.66-.48 0 2.04-.66 4.08-1.5 3.3-3.72 5.52 0 4.2.36 8.4.36 6.84-.96 8.46-1.26 1.74-3.84 1.5-2.52 0-3.72-1.56-1.32-1.26-.96-4.86.12-2.46.3-4.92-1.32.78-2.7.78-1.98 0-3.9-1.98-1.86-1.98-1.98-4.2 0-2.28.72-3.12.66-.9 1.56-.78.66.18 1.56-.42 1.74-1.2 5.04-3 0-1.08.06-2.22v-2.04q-1.14.36-1.98.66-1.8.36-3.84-1.14-2.04-1.44-2.94-4.56-.24-1.8.3-6.24.48-4.44.48-4.98 0-.36-.96-1.14-.96-.72-1.08-1.92-.06-1.2.66-2.04.66-.84 1.92-.9 1.92-.18 3.9 1.38 1.98 1.32 2.1 4.02 0 .9-.72 3.3-.78 2.22-1.14 4.14-.42 1.8-.24 1.86.72.18 3.18-2.34l.6-.6q.18-3.54.54-6.84.3-3.18-.78-3.9-1.08-.66-1.2-2.04-.06-1.44 1.2-2.22 1.2-.66 2.82-.66 1.56 0 3.24.96 1.44 1.08 2.22 2.76.72 2.4.78 8.7.84.18 1.62.66 1.56 1.14 1.98 3.06.36 1.98 0 2.94t-1.92 1.56q-.96.24-2.04.78-.06 1.98-.18 3.84 1.02-.66 1.98-1.56l.36-.36q.18-.84.72-1.44.72-.54 1.8-.42.84.18 3.54-1.02 2.64-1.26 5.1-2.16 0-1.02.06-2.28v-.18q-.96.18-1.74.18-3.3.06-5.4-1.14-2.04-1.2-2.04-2.64 0-1.56 1.26-1.62 1.26-.12 4.44-1.92 1.62-1.08 3.18-1.98-.24-1.08-.9-1.98-1.08-1.56-1.2-2.46 0-.9 1.08-1.98.9-.9 3.06-1.08 3.78-.18 6.54 4.14 0 .06.24.42 4.44.18 8.04 1.86 3.9 1.8 3.96 3.84 0 2.04-1.38 3.12-1.32.9-3.06.36-1.8-.66-4.08-1.02-.72 0-1.92.54-.18 0-.36.12 0 1.62.24 3.12 1.8-.18 3.6-.18 3.9 0 6.36 1.62 2.28 1.62 2.4 3.72-.06 2.16-.9 3.3-.96 1.14-3.54.78-1.08-.12-2.28-.3 1.26 1.08 2.16 2.94 1.44.36 2.64 1.2 2.46 1.62 2.52 3.9 0 2.04-1.02 3.3-.72.9-2.52.84.12 1.86.12 3.3-.06 1.86-.06 3.78-.06 1.98-1.26 4.2-.6 2.34-3 3.66-2.22 1.62-6.24 2.16zm-1.86-28.56q-2.76.24-5.76 1.14.54 1.08 1.32 2.58 1.2-.3 2.4-.66 1.56-.36 3.3-.72-.24-.3-.6-.84-.72-.66-.66-1.5zm-1.68 12.72q.12 3.42-1.14 4.38-1.32.9-3.06.9-1.68.06-2.88-1.68-.78-1.02-1.14-2.46-3.6.78-5.64.06.12.24.66.6 2.1 2.52 5.28 4.26 3.24 1.8 6.6 1.5 3.42-.18 4.5-1.26.48-.48.96-4.38.12-1.44.12-3.24-2.04.24-4.38.6-.06.24.12.72zm47.52-1.08q.54-9.36.9-15.9-.78 1.44-2.88 2.04-2.76.6-4.98 1.32 1.56 1.32 3 3.06 2.88 4.32 2.64 6.18-.18 2.04-1.98 3.06-1.68 1.14-3.78.54-.24-.12-.42-.18.12 3.66.48 7.32.36 6.48-.84 7.86-1.32 1.38-3.6 1.38-2.22 0-3.42-1.38-1.14-1.26-.9-4.5 0-1.38.06-2.76-.78.36-1.62.48-2.22 0-3.96-1.56-1.8-1.56-2.64-3.42-.9-1.74 1.74-4.74 2.16-2.46 3.24-4.8.72-1.62.6-2.76-1.86.18-3.24-.36-2.7-1.26-2.94-3.78-.36-2.46 1.44-2.82 1.26-.12 2.52-.78-.78-.72-1.44-2.16-1.62-3.54-1.92-7.38-.06-3.78 1.26-6.24 1.08-1.74 1.92-1.74.84 0 1.38.36.48.42.6 1.68 1.74 3.78 2.28 3.72.18.06 1.5-1.14-.06-.66.12-1.2.3-2.88-.72-3.6-1.08-.48-1.02-1.92 0-1.26 1.02-2.04 1.08-.66 2.52-.66 1.44.06 3 .96 1.2.6 1.86 1.98 1.74-1.26 2.76-1.38 1.56 0 3.12 1.5.54.54 1.02 1.44.84-.72 2.94-.78 1.38 0 3.12 1.08 1.02.72 2.04 2.16.12-.18.48-.42 1.98-2.64 4.5-3.84 2.46-1.02 5.46-.54 3.54.6 6.72 4.56 3.36 3.6 3.36 10.02-.06 6.3-.42 15.6-.42 9.06-.24 12.54v.18q3.06 2.52 3.18 5.22 0 2.7-1.08 4.08-.96 1.38-2.88 1.38-1.86.18-3.42-1.14-1.98-1.26-4.86-1.56-2.88.18-6.84 1.32-3.84 1.38-7.08 1.32-2.88.18-5.82-1.98-3.06-1.98-3.06-4.56-.6-1.62-.24-3.42.36-1.62 1.92-3.42 1.02-1.2 3.48-2.76 0-.36.06-.72zm7.92.9v3.84q-.06.42-.06.96l2.34-.78q1.38-.54 2.88-.9-1.68-1.38-3.24-3-1.14-1.08-1.92-2.34v2.22zm-7.02 6q-.42-.9-.72-1.98-.36.06-.48.24-1.44.6-1.68 1.08-.24.36-.24.9-.06.6.78 1.32.66.42 3.12-.18-.54-.48-.78-1.38zm16.74-8.04q0-8.82.24-12.24-.78 1.5-2.52 3.06-2.76 2.52-2.4 3.42-.36.9 2.52 3.36 1.2 1.08 2.16 2.4zm-9.54-15.9q-.18 3.96-.18 7.62.72-.9 1.8-1.98 2.1-1.92 2.16-2.52-.18-.9-2.4-2.22-.72-.36-1.38-.9zm10.02-6.18q0-5.16-.66-5.58-.96-.54-2.7 1.5-1.44 1.5-3.66 2.94 2.28.72 4.38 2.46 1.8 1.62 2.58 3.36 0-1.98.06-4.68zm-18.9-2.58q-.9 1.86-2.46 3.96 1.26.18 2.28.78 1.38.9 1.98 2.58.18-5.94.24-9.36 0-1.08-1.14-1.62 0 1.68-.9 3.66zm-14.64 6.6q0-2.34.18-4.68-1.32 1.44-1.8 2.64-.72 1.62-.54 3.12.9-.54 2.16-1.08zm8.1-12.42q.18 1.5.24 3.6 2.28-2.88 2.28-3.66 0-.84-.66-1.02-.36-.18-1.86 1.08zm70.26 41.82q2.34-6.48 4.32-19.74h-.06q-1.8 0-3.42-1.68-1.44-1.56-1.62-3-.18-1.38.54-1.92.54-.36 2.7-2.88 1.56-2.28 3.36-4.08.3-3.24.66-6.96-.06-1.26-.78-1.98-.78-.66-.66-2.04.12-1.2 1.74-2.46 1.56-1.08 3.96-1.02 2.34.18 3.9 2.22 1.44 1.98.96 6.12-.18.6-.12 1.32 3.72.36 6.54 3.12 3.18 2.94 4.02 6.78.84 5.82.12 17.4-.72 11.58-2.1 14.7-1.32 3.18-3.84 3.6-2.52.72-6.18-.66-2.22-1.08-4.5-4.02-.18 0-.12-.18-1.26 3.18-2.4 4.02-1.62 1.26-3.3 1.08-1.62 0-2.7-.96-.6-.36-1.38-.96-.42.3-.96.36-1.26.36-3.36-.48-1.62-.54-3.9-.6-2.16.18-6.3.9-4.02.9-6.18.24-1.68-.36-3.48-1.74-1.86-1.08-2.22-2.76-.06-.36-.06-2.34.12-1.62.66-5.22.12-.72-.54-1.44-.54-.54-.54-1.26-.9-.9-1.2-2.1-.72-1.44.24-3.24.9-1.74 2.52-2.82-.18-1.92.06-3.72.36-3.72.42-5.64-.06-1.92.3-6.3v-1.14q-2.7-.9-2.94-2.16-.18-1.56 1.56-2.1.54-.18 1.5-.6-.06-1.74-.06-3.54 0-1.08-1.2-1.32-1.14-.12-1.08-1.32 0-1.08.72-1.8.84-.54 2.22-.54 1.44.06 3.06 1.26 1.92 1.62 2.4 4.02v.54q5.34-2.64 9.24-3.54-1.44-1.02-1.38-2.1 0-.72.9-1.68.84-.84 2.28-.84 2.16 0 4.56 2.34.72.78 1.26 2.22 3.6 1.26 3.9 3.36.36 2.4-.84 3.78-.78.9-2.52.78-.36 8.16.42 18.18.12 0 .3.12 2.7 1.26 3.3 3.18.3 1.8-.42 3.36-.96 1.32-3.42.66-1.8-.36-3.54-.36-.06 0 .12.12 2.34 2.16 3.96 5.28.9 1.62.6 3.12-.24 1.5-1.32 2.16.18.06.42.24.48.36.9.66zm-11.52-6.54q.48 2.58-.9 4.98-.18.18-.3.36 1.02-.18 2.04-.42 2.46-.3 4.62-.36-.72-.84-1.32-2.1-1.44-2.7-2.94-5.04-.42-.54-.9-1.02-.78.36-1.44.66.84.96 1.14 2.94zm-9.42 6.18q0 1.26.24 1.5.18.36 2.34-.42-.6-.18-1.08-.42-1.08-.54-1.56-1.14 0 .18.06.48zm1.86-4.5q1.02-1.26 1.38-1.98 0-.3.06-.48-1.08.42-1.92.6-.78.18-1.62.18v.06q.12.54.3 1.38 0 .6-.18 1.8.9-.36 1.98-1.56zm0-17.82q0 2.94.24 6.12 0 1.26.06 2.28 2.46-1.26 4.68-2.4-.24-.12-.24-.18-1.14-1.08-2.52-2.34-1.26-1.26-1.92-2.64-.18-.3-.3-.84zm-4.98 11.16q-.54-.48-.78-1.62-.06-.3-.18-.54-.18 0-.12.12-.96.96-.78 1.32-.06.54.66.84.36.06 1.2-.12zm14.7-7.44l-.12-9.96q-.42 1.14-2.04 2.64-1.98 1.68-1.62 2.28-.18.54 1.44 1.74 1.62 1.08 2.16 2.64 0 .36.18.66zm-9.42-11.82q-.36 3.3-.3 7.2.12-.36.36-.72.36-1.26 1.86-2.46 1.38-1.2 1.38-1.56-.18-.66-1.56-1.2-.9-.36-1.74-1.26zm9.36-.84q0-2.52.06-4.5-.42.24-.96.42-1.26.54-2.46.84.54.36 1.2.78 1.44 1.26 1.98 2.58-.06.18.12.54 0-.3.06-.66zm25.08 24.3q.54-4.26 1.5-13.38.84-9-.42-9.6-.9-.18-2.04 1.68-.36 4.74-.66 9.66-.72 8.7-2.76 15.9-.06.06.12.06 1.62.72 2.64.36.9-.3 1.62-4.68zm57.96-15.36q-12.84-.36-25.98 3.12-3.06.24-6.12-1.38-2.94-1.56-4.38-4.92-.54-2.52.6-5.58.36-.9.9-2.04h-.42q-2.58-.18-4.14-1.26-1.62-1.02-1.44-2.22 0-1.2 1.08-1.2t3.72-1.2q4.98-1.8 9.96-3-.18-.3-.12-.48-.24-1.38.18-2.58.36-1.08 1.98-2.34 1.56-1.08 4.38-1.5 2.82-.3 6.36.72 2.46.72 3.84 2.46.18.18.42.54 6.66-.72 10.2-.06 4.26.36 7.44 2.22 3.18 1.8 3.06 3.54-.18 1.8-1.38 2.52-1.14.78-2.64.06-1.32-.54-3.3-1.14-4.74-1.2-13.32.06-7.56.72-15.84 3-2.76 1.08-3.78 2.04-.54.54-1.02 1.2 1.38-.18 3.66-.9 5.16-1.62 12.24-3.06 7.02-1.38 10.92-1.38 4.44-.3 7.44 1.44 3 1.8 3.9 4.68.3 1.14.18 3 .12 3.12-1.44 4.74-1.14 1.08-3.24 1.44.48 0 1.14.18 5.7.78 7.26 3.3 1.56 2.58.3 4.98-.78 1.8-2.4 2.4.9 1.08.96 2.4-.06 2.7-1.32 3.48-1.26.9-6.36-.24-4.56-1.2-9.24-1.14.3.36.48 1.08.48 1.32.84 2.28.72 4.74-1.68 7.08-2.4 2.52-8.1 2.94-5.64.18-10.44-1.5-4.56-1.62-7.02-5.1-1.08-1.62-1.56-2.82-.6.9-1.8 1.14-1.32.42-2.82-.06-1.26-.36-1.98-1.68-.72-1.08-.96-2.7-.42-1.74-.18-3.9.3-2.16 1.14-3.78.72-1.62.24-3.06-.42-.84-.9-1.92-.42-.9.06-1.68.48-.54 1.92-.42 1.74 0 3.48 1.92.84.9 1.44 1.92 1.56.18 3.54-.18 3.06-.84 5.4-1.08 2.16-.3 13.44-2.4 7.86-1.62 12.96-1.5-.9-.12-1.74-.48zM339.2 55.68q-9.42 2.4-12.54 2.1-1.08-.12-1.92-.48.9.54 2.4 1.26 3.78 1.5 7.8 1.92 3.9.36 4.86-1.26V57.6q0-1.38-.42-1.74-.06-.12-.18-.18zm10.62-10.74q-5.94.72-13.62 2.58-7.74 1.86-11.76 2.1-1.26.06-2.1-.3-.06.36-.06.84-.18.6-.18 1.26.18.06.36.06 2.7.36 10.02-1.68 12.06-2.52 19.68-2.76.84 0 1.74-.06 1.92-1.44 1.98-2.1-.36-.66-6.06.06zm-15.6-10.8q6.48-1.98 18.48-2.46 0-.12.06-.18-.06-1.2-.36-1.56-.18-.36-2.64-.36-2.52 0-9 1.26-6.48 1.14-8.46 1.8-2.7.72-4.98.66-1.62-.12-2.82-.66-.06.6.12 1.14.18 1.14.72 1.68 1.26.96 8.88-1.32zm77.64-20.22q5.76-.36 10.68 2.04 4.32 2.16 4.56 4.62.12 2.34-1.14 3.24-1.5.72-3.06-.12-2.4-1.74-5.1-1.98.12 0 .3.18 3 1.8 5.34 4.26 3.42 4.5 3.48 6.54 0 2.22-1.98 3.6-1.8 1.32-4.02.78-1.68-.3-3.48-2.76-1.32 1.26-3.06 2.46 2.52.24 4.68 2.52 2.16 2.52 2.4 5.22-.06.18-.06.36 2.1 3.6 3.36 5.52 1.26 1.98 2.28 4.74.72 2.7.78 6 0 3.36-2.22 5.52-1.68 1.92-5.04 1.68-3.24.18-6-1.8-2.76-1.8-2.64-7.56.18-5.52 1.26-10.56 1.02-4.98.3-5.52-.9-.18-1.5 3.48-.6 3.06-1.5 4.62-.06.36-.06.84-.36 3.78-.3 7.62.3 5.7-.72 6.78-1.08 1.38-3.72 1.14-2.58 0-3.66-3.48-.72-2.28-.3-4.62.36-2.28.42-3.48 0-1.2.3-4.02.18-2.52.24-5.88-.06-1.44-1.44-1.74-1.32-.18-1.44-1.44-3.78 0-6.78-2.52-2.52-2.28-3.06-5.7-.24 5.1-.54 9.66-.78 7.08.3 12.84.12.9.12 1.56 0-.18.24-.36 1.08-1.92 2.82-7.86.54-2.7-.36-3.66-.72-.9-.54-2.34.18-1.38 1.08-1.74.9-.36 2.34-.18 1.26.24 2.46 1.32t1.74 2.7q.36 1.44.3 2.7-.06 1.62-.36 3.72-.42 2.04-.78 6-.54 4.02-1.68 6.42-1.26 2.16-3.66 1.74-2.4-.36-3.66-2.94-.06.48-.24.84-1.08 2.16-3.72 1.86-4.02.18-7.68-4.26-3.48-4.26-3.66-9.9.18-3.72.9-5.7.72-1.92 2.52-4.44 1.08-1.74-1.2-4.02-2.34-2.34-1.92-3.96.72-4.8 8.04-7.8 1.2-.84-.9-2.28-2.16-1.26-4.38-3.12-1.32-1.92-1.2-4.02.18-2.1 1.8-3.12 1.56-1.08 3.84-.36 3.96 1.26 7.32 5.16.84.96 1.62 2.22 0 .06.18.06 1.08.18 4.56-1.86 2.16-.9 4.08-1.86-.9-1.08-1.02-2.34-.06-1.02.36-1.86.36-.84 1.62-1.56 1.26-.66 3.36-.66 2.1 0 4.56 1.02 1.62.6 2.64 1.86.18 0 .6-.06zm-21.84 18.84q.84-3.18 4.62-5.88-1.44-.12-2.58-.48 0 2.4-1.98 3.42-.06 1.44-.06 2.94zM386 44.16q-3.42 2.4-3.72 5.52.12 1.5 1.26 2.46 1.08.96 1.74.78.48.06.84-5.04-.06-1.56.3-4.14l-.42.42zm-2.1-10.62q.18 1.14 3.06 3.48.12.06.3.24.18-3 .84-6.66-2.4.9-3.3 1.5-1.08.72-.9 1.44zm36.78 15.6q-.72 2.22-1.14 5.04-.42 2.76-.06 3.42.36.6 1.08.6.9.06 1.5-.72.3-.72-.24-3.72-.42-2.1-.9-5.46-.06.36-.24.84zm-10.26-9.6q-1.44.78-2.88 1.5-.06 0 .12.12.72.54 1.32 1.32.18-.48.42-.96.36-1.08 1.02-1.98zm-4.98-7.02q3.78-2.88 7.5-5.04-.24-.36-.6-.72-2.04-2.64-3.48-2.76-.72 0-1.08-.36-.72.18-1.5.54.66.96.48 2.04-.6 2.34-4.32 3.54-2.94 1.98-3.66 3.12-.72 1.26.06 1.92 1.62 1.44 6.6-2.28zm78.9 9.78q2.16 7.62 3.3 15 .9 4.38-.3 6.48-1.26 2.1-3.12 2.64-1.8.66-3.3-.24-1.44-.72-2.1-2.88-.96-3-1.92-12.36-1.14-.3-2.34-.66-.42 0-.78-.06.48 11.34-1.44 15-1.62 2.82-4.2 2.7-3.78 0-7.08-3.24-1.86-1.5-3.78-3.78-.42 3.54-1.32 4.14-1.32 1.26-3.9.78-2.7-.18-3.36-4.02-.54-3.42.36-6.96.84-3.36 1.14-5.34.3-1.8 1.26-5.94.84-4.08 1.32-8.88-1.62 0-2.7-.72-1.62-1.02-2.34-1.92-1.08 4.32-.36 5.88.54 2.7.36 7.38-.18 4.68-.36 10.2-.18 5.58-.12 7.38 0 2.46-1.44 3.36-1.5.84-3.96.72-2.34.18-3.18-2.22-.78-2.1-.6-4.44.12-5.94.36-9.84.18-2.64-2.4-3.9-2.58-1.08-2.22-5.82-.06-2.28 2.22-8.34 2.28-5.88 3.84-10.8.12-1.02-.9-2.46-1.14-1.44-.78-3.9.18-2.46 2.88-2.52 1.74 0 3 .3 1.26.42 2.82 1.8 1.38 1.5 1.98 3.42.48 1.86.48 3.66.12 2.76-.54 5.88.48-.12 1.02.06 1.02.24 4.02-1.14 4.5-2.34 8.52-3.72-.06-1.38-.06-2.1 0-1.38-.78-1.68-.72-.3-1.44-1.2-.6-.84-.6-1.92t1.26-2.52q1.38-1.44 4.02-1.5 2.34.06 4.68 1.68 2.16 1.5 2.76 4.68 0 .9.18 2.04 1.74-.18 3.3-.24 4.8-.18 7.62 1.74 2.88 1.98 3 4.56-.06 2.52-1.14 3.9-1.08 1.32-4.2.96-.54-.12-1.02-.18 2.46 4.74 4.38 11.1zm-8.52.42q-1.08-5.76-3-10.92 0 5.04.42 10.26 1.2.18 2.58.66zm-17.16 3.3q1.8-1.02 3.78-1.86 0-1.8.06-3.78-.06-4.08-.06-7.44-1.5.36-3.06.72.3.78.42 2.1 0 3.12-.96 9.42-.06.36-.18.84zm3.6 6.9q-1.86.18-3.06.18-.72 0-1.44-.24-.06 1.44-.18 2.94.72.24 1.5.54 2.28.72 2.82.36.18-.36.36-3.78z"/></svg>