<svg viewBox="0 0 328 80" xmlns="http://www.w3.org/2000/svg"><path d="M38.2 23.16q-1.68-1.62-3.36-2.88-1.86-1.44-2.22-2.28-.42-1.2 1.02-1.26.18.18.66.06 2.16.36 4.2 1.02 1.92.6 2.46 1.86 1.26 4.02-.78 4.32-.96.06-1.98-.84zm1.02 7.92q-6.72 1.08-13.62 2.76-1.44.42-2.46-.12-.96-.54-2.16-1.56-1.14-.84.78-1.14 4.08-.54 8.58-1.08 4.44-.54 9.84-1.68 5.34-1.26 10.14-2.52 1.44-.36 2.52.06 1.08.36 2.16.9 1.08.42.72 1.38-.36.9-1.14.78-4.2.54-12.48 1.8 1.2.6 1.98 1.5.9.9.54 1.86-.54 1.14-1.02 4.44-.54 3.12-2.22 7.5-.78 1.98-1.92 3.78 1.62 1.44 3.18 2.58 4.8 3.66 10.2 5.94 2.1.54 5.22 1.32 3 .78 5.4 1.5 2.34.6 2.52.96-.06.78-3.72 1.32-3.84.48-8.1.54-4.14-.06-5.46-1.44-5.64-4.86-10.32-10.38-.18-.18-.24-.3-.6.72-1.26 1.56-2.76 3.06-7.56 5.28-4.56 2.04-12 2.88-1.5 0-1.68-.48.12-.12.12-.18.36-.3 1.02-.36 8.64-2.46 11.94-4.5 3.18-2.1 5.46-4.32.9-1.02 1.8-2.28-3.06-3.42-4.98-5.28-2.76-2.7-5.04-4.14-.96-.72-.9-1.02.18-.36 1.86-.36 1.74 0 4.14 2.58 3.18 3.48 6.06 6.36.36-.84.78-1.62 1.38-3.42 1.74-7.62.36-4.08-.42-7.2zm51.72-.6q.18-4.62-.24-8.22-.36-3.6-1.62-6-.42-.72-.12-1.08.36-.3 1.5.12 1.02.24 2.16 1.32 2.16 0 4.98-.6 3.18-.72 5.76-1.86.48-.12.96-.18 3 .24 4.92 2.34 1.08.9.42 1.92-1.08 1.44-1.32 5.28-.24 3.84 0 7.8 0 1.08-.96 2.88-1.08 1.62-1.74 1.74-.72 0-1.44-1.56-.24-.36-.36-.9-6.3.42-9.24 1.14-.18 0-.42.06-.18 1.8-1.02 1.5-.78-.36-1.62-1.98-.6-1.62-.6-3.72zm13.02 1.02q.54-1.62.66-7.62.12-5.94-.36-7.08-.96-.66-5.58.42-2.16.36-4.92 1.02v.42q-.06 1.5-.06 3.42 1.02-.36 2.34-.84 4.5-1.38 5.82.42.54.72-.72 1.08-3.06.36-5.52.84-1.26.18-1.92.18 0 .54.06 1.2v2.22q1.26-.36 2.7-.84 2.52-.54 3.9-.36 1.44.24 1.98 1.02t-.84 1.08q-3.06.24-5.64.6-1.26.06-2.04.12 0 .78.12 1.62.18 1.14.24 2.28 3-.48 6.54-1.32 1.56-.48 2.94.3.12 0 .18.12 0-.18.12-.3zm-9.12 18q0 5.28.24 9.48.18 1.62-.3 3.54-.54 1.8-1.38 1.62-.78-.24-1.74-2.34-.72-1.92-.42-3.12.72-4.26.78-8.52-2.16.36-3.84.84-1.32.24-2.94.78.72.54 1.38 1.62.54 1.08.24 1.62l-1.26 1.92q-.9 1.44-2.34 3.18-1.44 1.8-2.52 2.7-1.08.9-2.76 1.98-.54.48-.84.42-.24 0-.36-.36.12-.24.36-.54 1.98-2.28 3.3-4.32 2.28-3.96 2.7-5.76.3-1.26.18-1.56l-.12-.24q-2.52.96-4.62-.66-.9-.54-.84-1.2.18-.54.96-.6 1.26-.12 2.82-.36 1.62-.18 9.12-1.86.72-.18 1.38-.12 0-1.2.06-2.22 0-2.64-.3-3.12-.54-.54-3.12.06-2.7.54-4.98 2.16-.9.96-1.74.66-.72-.36-1.26-1.14-.54-.84-.06-1.68.48-.84.6-1.74.48-3.06.36-4.26-.18-1.44-.84-2.16-.72-.72-.12-1.32.54-.48 1.74-.18 1.26.18 2.28 1.14 1.02.78.54 2.16-.6 1.44-.96 4.56 0 1.08 1.8.66 3.36-.72 5.34-1.86.66-.48 2.46.06 1.8.72 2.46 1.44.66.72-.42 2.16-.9 1.26-1.02 6.48zm11.1 1.2q0 10.26-.24 11.88 0 1.38-.72 2.34-.36.36-.78.48-.42-.06-.78-.48-.78-.96-1.38-2.64-.54-1.56 0-3.66.66-2.88.72-7.02 0-4.08-.12-6.9-.18-2.64-.6-3.42-.36-.72-.54-1.26-.24-.84.18-1.08.66-.3 1.44 0 .72.24 1.68.84.12 0 .3.18 2.64-.54 5.94-1.56.3-.18.6-.24l1.92-5.4q.48-2.16.24-3.24 0-2.16 2.04-.72.84.6 1.92 2.1 1.08 1.32.6 1.98l-.54.54q-.24.36-1.38 1.98l-2.1 3.06q.12 0 .24.12 1.62.9 1.68 1.38 0 .54-.78.72-5.64.6-8.34 1.32-.54.06-1.02.12 0 .24-.06.78 0 .72-.12 5.76 4.32-.54 7.74-1.86 1.38-.66 3.36-.06 1.92.72 2.34 1.2-.06.18.12.36-.06.54-.6 1.38-.54.9-.6 3.12v4.86q.3 3.6 0 4.62-.18 1.08-.9 1.2-.6.12-1.92-1.74-1.26-1.98-1.14-3.72.36-2.28.42-4.2 0-1.92-.3-3.6-.36-1.08-1.62-.72-2.22.42-4.62.84-1.32.36-2.28.36zm69.96-8.82q-8.28.24-14.58.9v.3q0 14.82-.3 18.3-.36 3.36-.72 4.26-.36.72-.84.78-.36-.06-.66-.36-.6-.96-.96-4.56-.18-3.54-.12-7.98V43.08q-5.94.54-9.9 1.26h-.96q0 3.48-1.74 1.2-1.14-1.44-1.74-6.24-.54-4.68-2.52-9.3l-.36-1.08q.18-.18.12-.36.36-.36 1.98 0 1.56.24 2.1.72 3.18-.18 8.22-.96 2.46-.48 4.8-.78 0-3.54-.12-5.52-.18-4.32-1.92-5.82-.78-.72-.12-1.5.48-.36 1.26-.42.66.06 1.44.18 1.92.54 3.42 1.68 1.44.96 1.02 2.1-1.08 1.5-1.32 5.82 0 .96-.06 3l3.54-.36q5.22-.48 7.74-1.38 1.56-.66 2.94.24t3.18 2.16q.84.72.96 1.5-.06.6-.66 1.32-1.8 1.68-2.64 4.38-.6 2.22-1.44 4.38.12.06.3.24 1.62 1.08 1.5 1.74-.06.54-.84.6zm-14.58-12.66v11.16q4.8-.66 10.14-1.56.12 0 .24-.06 1.08-4.26 1.5-6.36.36-2.46-.24-3.3-.36-.66-5.88-.3-2.94.18-5.76.42zm-3.54 8.46q0-4.62-.06-8.1-.42 0-.9.18-4.56.54-10.62 1.92-.36 0-.66.06.18 1.86.84 6.72.18 1.86.36 3.42 5.16-.3 10.98-1.02 0-1.56.06-3.18zm50.52 3l-.42-.42q-.36 16.2-.36 19.14 0 1.86-.54 3.18-1.08 2.52-1.92 1.86-.36-.24-.9-1.5t-.9-2.52q-.36-1.26.18-3.36 1.2-4.26 1.56-11.22.12-3.96.24-7.8-2.22 5.1-5.1 8.7-3.42 4.38-6.66 7.44-1.14 1.08-1.44.18.18-.18.12-.36 6.06-8.28 8.58-12.9 2.16-4.26 3.78-8.88l-4.14 1.2q-1.8.54-3.18.36-1.44-.18-2.7-.84-1.14-.66.84-1.14 3.54-.48 6.42-1.38 1.92-.54 3.66-1.2 0-4.8.06-7.56 0-3.72-1.98-6.6-.36-.9.36-1.5.18-.12.6-.18.84.06 2.46 1.02 2.34 1.5 2.64 2.28.3.6-.24 1.56-.72 2.22-1.08 9.9 1.02-.36 2.34-.12 1.62.24 2.04.84.36.54-.12 1.02-.24.36-3.84 1.32-.24 0-.6.12l-.18 7.2q.18 0 .42.12 1.56.54 2.94 1.26t1.56 1.74q.3 1.14 0 1.86-.18.54-.84.54-.54 0-1.02-.6-1.32-1.56-2.64-2.76zm16.2-13.38q-1.32.36-3.24.78-2.88 1.08-2.82.3 0 2.58-.42 7.08 0 .72.78.3 1.62-.72 3.18-1.32 2.7-1.44 2.22-.24-.18.42-1.26 1.14-6.54 5.28-7.32 6.6-.6.9-1.32.36-.72-.48-1.14-1.74-.42-1.26.9-3 1.38-1.62 1.56-4.26.9-8.64-.78-11.76-.9-1.74-.36-2.04.48-.36 1.56.12 1.02.42 1.98 1.38.9.78.66 1.56-.18 1.08-.18 3.96.48 0 1.02-.18 1.2-.3 2.16-.66 1.38-.66 2.76-.42 1.44.18 1.8.72.18.42-.12.84-.06.06-1.62.48zm3.06 6.78q-.72-2.34-.42-13.74.18-3-.54-4.56-.72-1.56.06-1.8.84-.36 2.82 1.14 1.98 1.62 1.26 3.3-.9 2.34-1.14 7.44 1.2-.9 2.28-1.68 1.56-1.02 2.88-2.4.9-.66.96-1.62 0-.9.66-.9.72 0 1.86 1.14 1.02 1.08 1.5 2.1.36 1.08-.9 1.32-1.26.18-2.52.78l-2.88 1.2q-1.44.54-3.9 1.32 0 4.86.72 6.78.18.42 1.08 1.02.9.42 3.18.6 4.44.18 5.52-.96.84-.84 1.86-6 .18-1.08.66-.84.36.24.54 1.2.48 4.14 1.38 6.72l.18.9q-.06 1.08-1.26 1.68-1.44.54-5.1.48-7.44-.36-9.48-2.22-.9-.9-1.26-2.4zm9.36 16.26q0 5.82.18 9 0 2.58-1.02 4.56-1.08 1.8-1.86 1.92-.6-.06-1.56-1.62-.78-1.74-2.1-3.54-6 .18-9 .78-.42.06-.84 0v1.02q-.24 1.74-1.02 1.38-.72-.36-1.44-1.92-.6-1.44-.54-3.42.18-3.9-.12-6.96-.24-3.18-1.32-5.22-.36-.66-.06-.96.3-.3 1.38.12.84.18 1.68 1.08.72 0 1.86-.24.72-1.62 1.44-2.88.72-1.26 1.14-2.64.48-1.08.06-1.8-.24-.72.3-1.02.54-.3 2.04.18 1.38.36 2.16 1.14.84.72-.24 1.5-.96.72-1.74 1.74-.78.72-1.8 1.74-.72.72-2.04 1.86.9-.18 2.16-.42 4.8-.9 7.5-2.16.9-.54 2.82.48 1.98.78 2.7 1.8.72.78 0 1.8-.72.9-.72 2.7zm-7.02-3.72l-7.14 1.44q-1.26.24-2.16.3v.3q-.18 2.04-.12 4.5 1.8-.54 3.96-1.2 2.46-.54 3.9-.36 1.38.18 1.98.96.54.78-.84 1.08-3.48.42-6.54.9-1.62.18-2.46.18 0 2.22.06 3.84 0 .42.12.96 3.18-.3 7.08-1.14 1.08-.3 2.1.06.72 0 2.16 1.08.72.54 1.14-.54l.36-3.72q.3-2.82.24-5.58 0-2.46-.36-3.06-.72-.54-3.48 0zm24.24-6.3q4.26-4.98 7.44-9.6 3.24-4.62 4.68-7.98 1.38-3.24.6-5.16-.42-1.26.66-1.32 1.08 0 2.76 1.14 1.56 1.26 1.92 2.04.18.78-.36 1.5-1.26 1.14-3.9 5.52-2.16 3.24-4.5 6.3.72.54 2.16 2.22.84.9.36 2.46-.42 3.3-.48 18.42 0 2.58-.72 4.5-.72 1.98-1.5 1.2-.78-.72-1.44-2.7-.54-1.92-.3-3 1.62-6.3 1.68-10.5 0-4.14-.06-6.18 0-1.98-.66-3.24-.36-.72-.66-1.26-3.06 3.6-5.58 5.7-1.44 1.26-2.28 1.44-.42.06-.6-.18.12-.12.06-.18.18-.54.72-1.14zm40.98 8.1q-5.58-7.5-9.84-14.52v6.18q0 4.5-.06 8.1 1.08-.3 2.28-.54 1.08-.3 1.92.06.84.24 1.68.66.66.36.48 1.02-.24.6-.84.6-1.8.18-5.16.72h-.36q0 7.74.06 9.84 0 1.8-.54 3.06-.54 1.2-.96 1.68-.24.18-.48.24-.6-.06-1.26-1.56-.54-1.2-.9-2.4-.36-1.26.12-3.24.72-3 1.14-7.2l-3.72.72q-1.08.36-1.92-.06-.72-.36-1.62-1.14-.9-.72.66-.9 1.56-.18 3.48-.42 1.44-.18 3.24-.54 0-1.02.12-1.98.18-5.94.18-11.64-.54.9-1.38 2.46-4.14 7.44-8.52 11.22-2.4 2.04-4.92 3.36-.54.36-1.14.24-.54 0 .06-.78 5.52-5.34 7.56-7.92 1.98-2.64 3.84-5.46 1.62-2.82 3.18-7.56-3.6.72-6.72 1.68-.9.24-1.92 0-1.08-.18-1.86-1.02-.9-.84.3-1.02 5.94-1.02 11.58-1.98v-6q-.06-3.6-2.1-6.6-.36-.9.36-1.5.18-.12.48-.12.9 0 2.46.96 2.34 1.44 2.58 2.1.3.6-.24 1.56-.6 2.22-.9 9.12 5.16-.9 8.58-1.68 2.1-.54 4.62 1.26 1.2.9.96 1.5-.18.42-1.32.54-.96 0-5.58.12-3.66 0-7.38.54 0 .36-.06.96 5.16 6.54 8.04 9.6 2.88 2.94 4.2 3.84 1.56.96 3.42 1.98 1.74.78 4.02 1.92 2.1.96 2.16 1.32-.06.24-1.44.42-1.26.06-5.46-.18-4.02-.3-5.16-1.62z"/></svg>