<svg viewBox="0 0 300 80" xmlns="http://www.w3.org/2000/svg"><path d="M49.82 30.82q-4.38-.84-11.58-1.08-10.92.6-16.08 2.4-2.7.9-3.54.48-.72-.42-.84-1.2-.06-1.2 1.26-2.28 1.14-1.2 2.94-1.26 16.08-.6 16.98-.24-.48-3.42-1.56-7.02-.3-1.5 1.5-1.86 1.98-.36 2.76.54.78.9.3 2.52-.36.78-.66 2.88-.3 1.8-.6 2.94 5.28 0 12.12.3 5.1.42 6.9.06 1.62 0 1.8.66.24.54-1.5 2.46-1.86 1.98-4.86 1.08-1.8-.78-5.34-1.38zm-9 15.48q-.06-.06-.06.06-7.98 7.92-19.2 12.6-3.72 1.8-4.92.6-1.2-1.2-1.38-2.34-.24-1.2 1.8-1.62 4.74-1.02 12.36-4.8 5.4-2.7 9-5.94.06-.12.24-.18-4.86-3.72-9.54-6.18-1.92-1.02-2.04-1.56-.12-.66.42-1.2.78-.72 1.92-.6 1.2.06 2.7 1.14 4.56 3.42 8.4 6.36 2.76-3.18 4.56-6.9.78-1.56 1.56-2.16.66-.42 1.68.12.84.36.9 1.02.24 2.58-6.48 9.66 15.18 10.98 22.2 13.26 1.62.42.42 1.26-1.26.84-4.74 1.5-2.04.36-3.72-.42-.48-.24-16.08-13.68zm64.02-9.36q-7.38 0-8.76.3-2.28.42-3 0-1.14-.66-1.08-2.64l-.24-11.28q-.3-3.54.54-4.26.54-.54 1.8-.54 2.22-.12 5.22-.12 7.68-.36 9.48.9.96.6.66 2.34-.6 5.28-.36 11.34.12 2.52-.96 3.36-1.14.96-3.3.6zm-10.08-5.76h-.3q.24 2.46.72 2.94.36.3 1.32.24 3.06-.24 4.8-.24 4.2-.36 4.38-.36.54-.66.78-2.64-1.44-.3-5.58-.18-4.86-.06-6.12.24zm6.12-2.28q4.2-.06 5.7-.12-.06-2.64-.06-2.82-1.14-.3-12.3.06 0 1.08.06 2.58.24-.06.48.06 1.5.3 6.12.24zm-.24-5.16q4.38-.06 5.82-.12-.24-2.16-.72-2.58-.54-.42-6.12-.24-4.38 0-4.86.48-.36.3-.48 2.22.06-.12.24 0 1.5.3 6.12.24zM83.18 49.3q-1.5 0-2.52.3-1.8.18-2.16-.66-.3-.78.48-1.86 1.26-1.44 2.94-1.14.96.18 2.58.12 9.9-.18 9.96-.18 0-3.06-.48-3.72-.66-1.02-8.76.18-1.2.3-1.74-.12t-.84-1.38q-.3-1.14.48-5.04.72-5.28-.48-9.84-.48-1.92.06-3 .42-.42 1.92-.24 2.16.12 1.62 2.94Q86 26.68 86 29.8q.06 8.64.84 9.54.42.36 1.74.24 5.34-.72 7.5-.6 1.68.12 1.92.72.42 1.02-.06 2.4-.42 1.98-.54 10.5-.12 6.24-1.5 7.92-.48.54-1.32.06-.72-.42-.84-.84-.24-.96 0-2.22.72-4.32.78-8.94-.36.06-.72.06-4.38.12-7.68.42 0 .3-.12.72-.18.54-.36 1.62-1.14 4.5-4.8 8.16-1.02.96-2.16.72-1.26-.36-1.5-1.08-.24-.9.42-1.5 3.36-2.58 4.68-4.68 1.26-2.16.9-3.72zm23.94.18q.48 5.94.3 8.76-.12 1.56-1.38 2.22-1.08.54-1.68-.18-.66-.66.06-9.36.36-8.46.24-9.36-.36-1.86 1.38-2.22 2.1-.24 5.16-.3 1.86 0 2.46-1.62.78-3.18.84-11.46 0-2.34.36-2.7.54-.3 1.5-.3.84 0 1.38 1.02.6.84.24 2.58-.66 4.74-1.5 10.14-.42 1.56-.54 2.64.06 1.62-.96 2.28-.9.48-2.28.42-2.64-.54-3.78-.06-1.56.48-1.86 1.5-.18.78-.12 2.82.72-.42 5.64-.06 3.54.12 5.88-.06 1.8-.48 2.4-.18 1.2.36 1.38 1.5.06.48-.42 1.14-1.92 2.16-.6 7.38.54 2.28 0 3.66-.24.9-1.26 1.02-.9 0-1.56-1.44-.54-1.26-.54-3.96.06-2.4-.42-4.68.06-1.5-1.08-1.74-4.02-.42-7.08.3-1.56.36-2.16.3zm35.52 8.46q-1.14 1.08-1.8.84-.72-.36-1.02-1.62-.18-1.56.18-2.46.42-.78 1.68-.78 5.7-1.86 13.08-6.78 1.74-1.14 2.1-.3.42.78-.42 1.5-2.28 2.16-6.66 5.1-3.12 1.92-7.14 4.5zm31.02-17.52q.54-1.2 1.14-1.26.48-.12 1.56.54 1.2.78 1.44 1.5.18.66-1.14 1.62-6.48 3.42-8.34 3.72-1.2.24-1.32-.36.06-.36.96-.96 5.52-4.38 5.7-4.8zm-4.56 8.94q5.94 4.08 14.04 6.54.9.3.6.78-.18.72-4.5 2.28-1.8.66-3.12-.42-3.12-2.28-14.16-12.12 0 6.84.18 9.48.3 3.06-.84 4.2-.84 1.02-2.04-.36-.66-.72-.42-3.06.3-9.42.3-19.14-4.02-.06-6.6.24-3.78.54-5.52.18-.9-.24-1.26-.72-.3-.72.48-1.5t2.58-.84q5.34-.12 10.26 0-.06-2.46-.06-4.38-12.9.24-19.92 2.28-2.7.96-3.54.54-.72-.48-.78-1.2-.06-1.2 1.2-2.34.3-.3.66-.48 1.62-1.26 22.38-.96-.06-2.1-.06-3.6-5.34-.06-8.52.24-2.16.36-3.18-.24-.84-.36-.84-1.08 0-.78.84-1.32.9-.42 2.88-.3 3.18.12 8.7.06 0-3.12.6-3.48 1.32-1.14 2.1-.06.96 1.08.78 3.24v.24q5.22-.06 9.36.06 3.84.12 3.9 2.7-.12 2.1-.24 3.96.84-.06 1.74.06 6.3.54 8.46.12 1.68 0 1.8.66.24.48-1.44 2.46-1.86 1.98-4.86 1.02-2.16-.78-6.06-1.32-.66 4.44-1.86 5.28-.84.54-3.12.48-4.44-.3-8.04-.12v5.82q2.58 3.12 7.14 6.12zm.72-24.66q-2.76-.12-7.62 0-.06 1.8-.18 3.72 4.62-.06 10.14.24v-2.4q-.48-1.74-2.34-1.56zm2.04 6.6q-4.26-.66-9.84-.72-.06 2.1-.06 4.38 3-.06 5.88.06 1.38.06 2.46-.48.96-.6 1.56-3.24zm-26.94 12.12q-2.16-.36-2.46-1.26-.18-1.26 1.56-2.22 1.98-.96 3.24.54 2.64 1.98 5.52 3.36 1.14.6 1.02 1.56 0 .66-.66.78-.78 0-1.62-.42-1.8-1.02-6.6-2.34zm73.98-2.34q-14.76-.06-20.16 1.14-2.04.54-2.4-.84-.24-1.56 1.68-2.64 2.46-1.38 4.56-.9 2.58.72 6 .66 4.98-.3 10.32-.18 0-4.8-.12-8.64-.06-.12-.18 0-6.3.42-9.54.72-3.24.3-4.08-.66-.54-.78 1.26-2.22 1.68-1.32 4.68-.66 3.54.36 7.8.42 0-4.14-.12-5.76-.18-2.1.6-2.64 1.32-1.14 2.1-.06 1.02 1.08.84 3.24-.12 2.52-.24 5.22 5.28-.06 7.56.12 3.24 1.38 3.42 1.74.54.72.06 1.74-.72 1.74-1.2 6.84-.06.42-.18.9 8.58.3 11.1 2.16 1.8 1.92 1.44 3.84-.06.36-.54.9-.18.42-1.02 2.52-2.7 7.2-5.22 8.1-1.56.48-1.92-.24-.3-.84.78-2.64 2.52-4.62 3.24-6.6.12-1.92-.9-3.06-1.2-1.5-5.28-2.28-2.46-.48-11.52-.3 0 11.16.18 14.64.36 3.06-.84 4.2-.84.96-2.04-.3-.66-.78-.42-3.12.24-7.56.3-15.36zm2.94-11.4q-.18 4.2-.12 8.7 3.12-.06 6.36.12.9-3.36 1.62-6.24-.12-1.2-.6-1.74-1.32-1.02-7.26-.84zm9.6-5.58q-1.74-1.44-1.62-2.34.42-1.2 2.46-1.2 2.22-.06 2.58 1.98.54 1.74 1.44 3.24.66 1.14.12 1.92-.36.54-.9.3-.72-.36-1.26-1.08-.6-1.02-2.82-2.82z"/></svg>