<svg viewBox="0 0 448 80" xmlns="http://www.w3.org/2000/svg"><path d="M45.96 55.04q-10.68 8.58-29.34 12.48l-.66-1.26q15-6.12 24.06-16.56-8.04-8.16-17.1-22.8l10.38-3.72q5.82 11.64 11.76 19.68 5.82-9.24 8.58-21.42H24.72q-2.16 0-7.2 1.98V19.1H39.6v-7.56h10.8v7.56h14.4q1.86-.06 7.56-1.98v4.32h-7.98Q59.64 40.16 51.18 50q8.34 8.52 22.74 16.38l-1.02 1.14q-16.8-4.68-26.94-12.48zm44.76-17.22V11.54h8.88v1.32q2.7-.84 5.16-.84h10.08q2.04 0 3.42 1.32 1.5 1.38 1.5 3.6v20.88H90.72zm20.16-2.4v-5.34H99.6v5.34h11.28zM99.6 22.22v5.46h11.28v-5.46H99.6zm0-7.02v4.62h11.28v-3.36q0-1.08-.66-1.62-.54-.42-1.38-.42h-4.08q-2.94 0-5.16.78zm16.62 52.14h-9.36V39.86h16.02V14.84h8.4v27.42h-15.06v3.72h9.9q1.62.06 7.2-1.8v4.2h-4.44v18.96H120V48.38h-3.78v18.96zm-37.14-52.5h8.4v25.02H97.5q2.64 0 3.78 1.32 1.14 1.26 1.14 3.6v22.56h-9.36V48.38h-3.18v5.82q0 4.98-3.18 8.64-3.54 4.02-9.42 4.92l-.84-1.2q2.64-2.46 3.84-5.82 1.2-3.24 1.2-6.54v-5.52q-1.86.48-4.92 1.74v-4.44h16.5V44.3q0-2.04-2.04-2.04H79.08V14.84zm111.36 7.26v17.4h-25.8v21.78q0 1.02.48 1.56.36.54 1.02.54 2.04 0 6-2.04l.72 1.32q-6.84 4.74-12.78 4.74-2.34 0-3.9-1.56-1.62-1.56-1.62-4.32v-45.6h10.08v2.1q1.38-.42 2.7-.6v-5.88h10.8v5.64h7.38q2.04 0 3.42 1.32 1.5 1.38 1.5 3.6zm-25.8-1.74v6.96h15.72v-5.7q0-1.08-.6-1.62-.6-.42-1.44-.42h-8.16q-3.18-.06-5.52.78zm15.72 16.74v-7.38h-15.72v7.38h15.72zm2.4 4.92h9.42q-1.02 5.94-3.9 9.12-2.22 2.4-5.94 4.26.12.24.3.48 3.66 5.34 10.92 10.8l-1.14 1.02q-9.78-3.18-15.3-8.16-5.34-4.8-11.4-15.6l10.2-2.64q2.1 6.36 4.5 10.92.48-.9.78-1.74 1.08-2.88 1.56-8.46zm-41.34-23.7q-1.92-3.54-4.2-5.46l1.08-1.14q3.66.78 7.32 2.46 4.14 1.92 7.26 4.98l-8.1 6.6q-1.26-3.84-3.36-7.44zm-1.38 15.3q-1.98-3.42-4.32-5.28l1.08-1.14q3.66.6 7.32 2.22 4.08 1.74 7.26 4.62l-7.98 6.78q-1.26-3.72-3.36-7.2zm1.5 34.02l-4.68-9.9q4.68-3.48 7.8-7.68 3.24-4.38 5.88-10.08l1.26.48q-.78 8.46-2.88 14.46-2.16 6.12-7.38 12.72zm86.34-36.66h19.38q2.04 0 3.42 1.32 1.5 1.38 1.5 3.6v8.94h-40.56V30.26h8.88v2.04q.36-.12.78-.24 3.48-1.08 6.6-1.08zm2.34 11.46h3.36v-9.06h-3.36v9.06zm11.04-9.06h-1.2v9.06h3.24v-7.02q0-1.08-.66-1.56-.54-.48-1.38-.48zm-20.76 9.06h3.24v-8.7q-1.2.18-2.22.6-.54.18-1.02.42v7.68zm7.44-28.92h17.22q2.04 0 3.42 1.32 1.5 1.38 1.5 3.6v9.78h-36.6V12.68h10.08v1.8q2.28-.78 4.38-.96zM240 25.82v-3.6h-16.44v3.6H240zm-16.44-9.06v3.06H240v-1.86q0-1.08-.6-1.62-.6-.42-1.44-.42h-10.02q-2.52.18-4.38.84zm30.48 49.26l-.48 1.56q-10.14-.66-19.98-3.54-11.76 3.54-25.14 3.48l-.24-1.8q10.02-1.62 17.58-4.68-5.76-2.76-12.06-7.14l10.02-3.6q4.8 4.14 9.36 7.08 4.14-2.52 5.64-4.86.72-1.2.42-1.98-.24-.6-1.62-.6H220.2q-3.12 0-7.56 1.56v-3.9h33.06q4.32.12 5.34 1.98 1.26 2.22-1.02 5.22-2.88 3.84-9.3 6.66 6.48 2.94 13.32 4.56zm-53.1-47.88q-1.92-3.54-4.26-5.52l1.14-1.14q3.72.84 7.38 2.58 4.14 2.04 7.26 5.1l-8.22 6.54q-1.2-3.9-3.3-7.56zm-1.32 15.54q-1.74-3.42-3.9-5.34l1.14-1.14q3.54.78 7.02 2.46 3.96 1.86 6.9 4.8l-8.22 6.42q-1.08-3.72-2.94-7.2zm2.04 33.78l-5.4-9.54q4.26-3.6 6.96-7.86 2.88-4.38 5.04-10.02l1.32.36q-.18 8.22-1.74 14.22-1.62 6.06-6.18 12.84zm82.32-4.92V13.4h9.6v2.1q2.22-.72 3.48-.72h8.88q2.82 0 4.62 1.86 1.92 1.92 1.92 4.68v40.62q0 2.88-1.74 4.2-1.92 1.44-5.34 1.44-4.32 0-8.46-2.4l.72-1.26q1.68.54 2.94.66 1.38.12 1.74-.18.54-.36.54-1.56V46.28h-9.3v15.78q0 2.46-1.62 4.02-1.56 1.44-4.5 1.44-3.9 0-6.78-2.88h-23.4V14.12h9.36v2.76q4.62-1.62 7.92-1.62t4.8 1.56q1.5 1.5 1.5 3.66v42.78l.24-.24q1.74.96 2.34.96.54 0 .54-1.44zm9.6-44.46v12.18h9.3v-9.78q0-1.38-.78-2.28-.9-1.02-2.52-1.02h-2.52q-.96 0-3.48.9zm9.3 14.58h-9.3v11.22h9.3V32.66zM271.5 62.24v-21h-4.86v21h4.86zm-4.86-42.78v19.38h4.86V20.18q-.06-1.02-.78-1.32-.72-.3-2.04-.06-1.02.3-2.04.66zm51.06 28.2V23.78h8.82v-5.04h-2.58q-2.1 0-7.14 2.04V16.4h9.72V11h9.36v5.4h1.74q1.86-.06 7.56-1.98v4.32h-9.3v5.94h3.84q2.04 0 3.42 1.32 1.5 1.38 1.5 3.6v18.06h-8.46v6.24h2.16q1.86-.06 7.56-1.98v4.32h-9.72v11.1h-9.6v-11.1h-3.18q-2.1 0-7.14 2.04V53.9h10.32v-6.24h-8.88zm18.06-2.4v-7.44h-9.18v7.44h9.18zm-9.18-17.52v7.68h9.18v-6.3q0-1.08-.66-1.62-.54-.42-1.38-.42h-3q-2.34.06-4.14.66zm20.28 34.56V13.16h9.6v2.34q.9-.36 1.74-.6 3.18-.9 7.2-.9 3.6 0 5.52 1.44 1.74 1.32 1.74 4.02v41.88q0 2.4-1.74 4.2-1.8 1.8-4.74 1.8-3.96 0-8.52-2.94l.9-1.26q2.16 1.02 3.42 1.02.96 0 .96-.78v-17.7h-6.48v16.14q0 2.46-1.62 4.02-1.56 1.44-4.5 1.44-4.08 0-6.96-3.18l.96-1.08q1.44.72 1.98.72t.54-1.44zm9.6-44.04V29.9h6.48V19.28q0-.66-.48-1.32t-1.68-.66q-1.8 0-4.32.96zm6.48 14.04h-6.48v10.98h6.48V32.3zm21.6-3.18H390v38.22h-9.84V31.88q-1.62.84-3.42 1.68l-1.2-.84q3.6-4.56 5.22-8.4 1.86-4.5 3-13.5h10.56q-.54 5.1-2.04 8.88h14.94v-8.64h10.08v8.64h7.56q1.86-.06 7.56-1.98v4.32H417.3v27.72q2.04-.48 5.52-1.62v4.32h-5.52v14.88h-10.08V52.52q-2.16.36-6.18 1.98v-4.38h6.18V22.04h-8.04q-2.1 0-7.14 2.04v-3.84q-1.08 2.46-2.64 4.38-1.92 2.4-4.86 4.5zm9.54 6.9V26.3h9.12v5.76q0 8.22-1.98 16.08-1.86 7.2-8.28 16.74l-1.08-1.14q2.22-10.08 2.22-27.72zm26.82-2.94V26.3h9.12v9.24q0 18.96 2.94 28.38l-1.08 1.26q-6.72-9.54-8.88-16.68-2.1-7.08-2.1-15.42z"/></svg>