<svg viewBox="0 0 387 80" xmlns="http://www.w3.org/2000/svg"><path d="M42.08 15.62q1.32 2.7 2.16 5.28 0 .12.06.3 9.6-.24 19.32.18 2.7.24 2.46 2.82-.24 2.58-2.82 2.34-21.48-1.14-44.34 1.62-2.88.36-3.06-2.34-.24-2.64 2.7-2.88 10.2-1.2 20.52-1.56-.72-1.86-1.74-3.66-1.32-2.52 1.02-3.66 2.34-1.14 3.72 1.56zm-.3 35.1q-7.56 7.44-15.18 13.92-2.4 1.98-4.08-.06-1.68-2.04.48-3.84 7.38-6.24 14.46-13.2-6.06-4.26-12.48-8.22-2.64-1.38-1.29-3.75t4.17-.87q6.9 4.38 13.32 9 5.34-5.46 10.56-11.4 1.74-2.4 3.84-.66 2.1 1.68.24 4.2-5.22 5.76-10.32 11.1 6.9 5.16 13.14 10.56 2.34 1.98.57 3.96t-3.87.12q-6.48-5.76-13.56-10.86zm52.08-1.2q-6.3.48-10.2.48-2.88 0-5.01-1.8t-2.37-5.4q-.54-3.48-.42-7.44.12-3.96.48-7.32.48-2.58 3.06-2.16 2.52.42 1.92 3.06-.36 2.22-.6 6.12-.24 3.78.24 6.96.36 3 3.36 3 3.06 0 9.36-.42.48-.18.9-.24.42-.3 1.32-.36 2.58-.3 2.94 2.7.54 8.4-.06 15.9-.3 2.94-2.82 2.67t-2.22-2.97q.18-2.7.24-5.34-3.42-.12-6.72.18-.6 3.42-1.56 6.36-.9 2.64-3.18 1.83-2.28-.81-1.38-3.21.66-2.16 1.08-4.5-.96.12-1.86.3-2.58.3-2.76-2.1-.18-2.46 2.4-2.58 6.9-.96 13.92-.96 0-1.44-.06-2.76zm31.62-22.56q0 8.88-1.08 16.56.3.54.24 1.56-.24 2.46-2.64 2.22-5.52-.12-11.28.72l.12 3.96q3.84-.66 6.48-.6 4.02.18 5.91 2.28 1.89 2.1 1.59 5.04 0 2.22-.48 4.92-.9 2.4-3.18 1.71-2.28-.69-1.44-2.97.3-2.22.24-4.26.12-2.04-2.76-1.98-2.58-.06-6.36.78 0 2.58-.12 5.16-.3 2.94-2.82 2.7-2.52-.24-2.22-2.94.54-7.68-.24-15.9-.48-2.76 2.1-3.06 1.08-.18 1.86.36 4.98-.78 10.14-.84.9-7.5.78-15.42-.24-2.82 2.34-2.94 2.58-.12 2.82 2.94zm-24.66 15.42q-9.36 0-12.69-4.29T85.7 27.14q.9-6.66.18-7.98-1.32-3.42 1.14-4.2 1.98-.78 3.06.36.06-.06.18-.06 5.94-2.52 12.12-2.46 6.54-.06 10.02 3.78 3.48 3.84 3.54 10.08-.06 6.72-3.15 11.22-3.09 4.5-11.97 4.5zM94.4 21.44q2.88-.72 5.94-.72 2.82 0 3.84 1.26t.18 2.88q-.3.48-1.98 1.92t-2.16 1.92q-.48.6-.48.72.06.3.66.3.84 0 2.61-.39t3.21-.99q1.98-.42 2.34 1.74.36 2.16-2.22 2.7-1.98.54-4.74.96-2.7.36-5.04.36-1.74 0-2.19-1.41-.45-1.41.69-3.33 1.38-1.56 2.52-2.7 1.2-1.14 1.56-1.44.3-.24.24-.36-.48.18-1.68.18-1.92 0-3.6.6-1.8.54-3.66 1.68-.18 4.32 1.38 6.9 1.86 3.24 9 3.24 6.3 0 8.1-2.94 1.74-2.94 1.8-7.2-.06-4.5-2.16-7.14-2.16-2.64-6.24-2.64-3.78 0-10.32 2.34-.54.18-.96.18 0 1.08-.12 2.4 1.44-.54 3.48-1.02zm48.48 39.72q.36-7.68.42-15.3-.48.3-.9.72-1.92 1.68-3.6 3.9-1.56 1.98-3.51.18-1.95-1.8-.27-3.72 2.82-3.18 5.88-5.1 1.26-.84 2.34-1.32-.06-1.32-.06-2.4-3.06.36-6.12 1.02-2.88.42-3.06-2.28-.24-2.7 2.7-2.94 3.06-.66 6.24-.9-.06-.78-.06-1.44-.42-.18-.72-.48-2.52-1.74-5.4-3.12-2.46-1.14-1.35-3.33 1.11-2.19 3.69-.99 1.8.96 3.42 2.04-.24-4.44-.66-8.76-.54-2.82 2.04-3.18 2.58-.36 3.06 2.64.3 4.38.6 8.7 1.44-1.02 2.88-2.1 2.04-1.8 3.57.15 1.53 1.95-.69 3.81-2.76 1.98-5.46 3.54.06.96.12 1.98 2.52-.24 5.16-.3 2.7.24 2.46 2.82-.24 2.58-2.82 2.34-2.34 0-4.62.24 0 1.38.06 2.94 1.02.36 2.22 1.14 2.76 1.8 5.04 4.32 1.56 1.8-.27 3.66t-3.75-.3q-1.38-1.62-3.12-3.06l-.06-.06q0 7.62-.36 15.06-.18 2.94-2.7 2.76-2.52-.18-2.34-2.88zm15.9-3.06q.36-18.36-2.34-37.56-.6-2.76 1.92-3.18 1.38-.3 2.16.48 3.6-1.32 7.98-1.98 5.34-.84 9.12-.18 2.46.3 4.14 2.1 1.56 1.74 2.28 4.14.48 1.92.63 6.93.15 5.01-.21 13.05-.36 7.2-1.92 15.24 1.68 0 3.42.12 2.7.24 2.46 2.82-.24 2.58-2.82 2.34-13.62-.72-28.2 1.08-2.82.42-3-2.28-.24-2.7 2.7-2.94.78-.06 1.68-.18zm5.04-.42q6.6-.54 13.5-.54 1.74-7.86 2.1-14.4.36-7.2.18-11.76-.12-4.56-.72-7.08-.72-2.58-2.88-3.3-3.06-.6-7.38.06-3.42.54-6.84 1.68.42 3.36.72 6.66 1.56-.78 4.02-1.44 2.4-.66 4.98-.66 3 0 4.08 1.32 1.08 1.38.18 3.06-.48 1.38-3.21 5.13t-3.63 5.22q-.9 1.47-.84 1.77.06.3.72.3 1.02 0 3.18-.48 2.1-.6 3.78-1.38 2.1-.54 2.52 1.74.42 2.28-2.28 2.88-2.28.84-5.43 1.35-3.15.51-5.79.51-.66 0-1.08-.12.18 4.8.12 9.48zm-.9-24.12q.3 4.56.54 9.06 2.04-3.72 3.96-6.54 2.1-3 2.58-3.72.54-.78.48-1.08-.54.12-1.74.12-1.44 0-2.64.54-1.32.6-2.64 1.56-.3.06-.54.06zm42 29.94q-4.74-.06-7.2-2.04t-2.64-5.28q-.24-2.88.72-5.58.9-2.82.9-4.32 0-1.5-.42-2.46-1.08-2.04.96-3.24 1.62-1.08 2.94.54 1.26-.54 2.52-1.02.3-3.06.36-6.06-3 .24-6 .66-2.88.42-3.06-2.28-.24-2.7 2.7-2.94 3.12-.42 6.42-.66 0-3.24-.18-6.54-1.92.24-3.78.36-3 .84-3.66-1.56-.66-2.4 2.22-3.3 6.48-.24 12.72-1.68 2.76-1.2 3.96.96 1.2 2.16-1.32 3.6-2.58.48-5.04.9.12 3.6.12 7.02 3.06-.06 6.18.06 2.7.24 2.46 2.82-.24 2.58-2.82 2.34-2.94-.18-5.88 0-.12 2.64-.3 5.34 3.18-.18 5.34 1.59 2.16 1.77 2.76 6.63.48 5.64-.21 9.42-.69 3.78-3.18 5.22t-7.59 1.5zm-4.62-13.08q-.66 2.64-.54 4.8.18 1.92 1.35 2.79 1.17.87 3.81.93 2.88-.06 4.29-.99 1.41-.93 1.86-3.33.45-2.4.09-7.26-.36-2.22-1.32-2.94-.96-.72-2.58-.72-2.4.24-6.12 2.04-.18 2.04-.84 4.68zm43.56-22.08q.9 17.4-.06 33.42-.18 2.94-2.7 2.76-2.04-.18-2.34-1.86-5.22 1.02-8.82.9-4.92-.24-7.32-2.76-2.46-2.52-2.64-7.5-.78-8.28-.12-17.7.24-3.54.6-6.72-.66.06-1.38.18-2.88.42-3.06-2.28-.24-2.7 2.7-2.94 1.08-.18 2.34-.24.42-2.82.84-5.4.42-2.58 3-2.16 2.52.42 1.98 3.06-.36 1.86-.72 4.14 6.12-.3 12.3-.18-.24-3.42-.54-6.84-.54-2.82 2.04-3.15 2.58-.33 3.06 2.61.3 3.72.48 7.5.84 0 1.74.06 2.7.24 2.46 2.82-.24 2.58-2.82 2.34-.54-.06-1.02-.06zm-4.92 29.04q.72-14.34-.12-29.22-6.6-.18-13.38.3-.36 3-.66 6.66-.24 2.28-.36 4.5.3-.06.6-.06 4.8-.54 9.72-.36 2.64.24 2.43 2.82-.21 2.58-2.79 2.34-4.38-.18-9 .42-.6.06-1.08 0 0 4.62.48 8.88.48 4.44 5.1 4.98 2.94.24 9.06-1.26zm65.88 6.54q-13.08-1.2-27.06-.06-2.7.42-2.88-2.16-.18-2.58 2.58-2.76 3.12-.24 6.36-.42 0-.18.06-.3.42-7.98.36-16.02-2.28.12-4.56.36-2.7.42-2.88-2.16-.24-2.58 2.58-2.76 2.34-.24 4.74-.3-.24-7.98-1.08-16.08-.06-.12 0-.18-1.62.3-3.24.78-2.34.72-2.79-1.56-.45-2.28 1.83-2.94 4.44-1.5 9.93-1.86 5.49-.36 9.21.54 2.34.36 3.96 2.04 1.5 1.68 2.16 3.96.54 1.98.81 7.17.27 5.19.09 13.47-.12 7.68-1.5 16.2.78 0 1.56.12 2.58.24 2.37 2.7-.21 2.46-2.61 2.22zM287.9 20.78q.72 8.34 1.02 16.38 5.64-.18 11.34.18 0-3.54-.12-6.12-.3-4.68-.96-7.32-.66-2.46-2.7-3.18-3.12-.78-7.5-.48-.6 0-1.2.06l.12.48zm1.08 21.18q.12 8.4-.3 16.32v.12q4.86-.06 9.84.18 1.62-8.22 1.74-15.12v-1.2q-5.58-.42-11.28-.3zM272.42 29.3q.42 8.52-.24 21.24.48-.06 1.08-.18 2.76-.84 3.36 1.56.6 2.4-2.04 3.12-1.56.3-2.82.54-.12 1.56-.24 3.3.18 3.48-2.28 3.57-2.46.09-2.52-2.79.12-1.86.3-3.6h-1.2q-4.68-.24-6.96-2.64-2.34-2.4-2.52-7.08-.18-6.84.96-14.52.18-1.5.42-2.94-.24 0-.48.06-2.46.6-3.12-1.65-.66-2.25 2.52-2.91.96-.24 1.98-.3.6-3.3 1.32-6.36.48-2.46 2.88-2.07 2.4.39 1.92 2.97-.66 2.1-1.26 5.16.78.06 1.5.12 3-.06 4.92 1.32 1.98 1.26 2.52 4.08zm-5.04 22.02q.96-12.54.36-20.16-.6-2.34-3-2.4-1.14-.12-2.34-.06-.12 1.38-.36 2.82-1.44 8.28-1.14 15.18.42 4.14 4.8 4.68.72 0 1.68-.06zm83.64-28.68q6.36-.06 12.9.3 2.58.24 2.34 2.7-.24 2.46-2.64 2.22-6.18-.48-12.36-.36l.12 5.88q2.7.66 6.18 2.7 5.16 3 9.3 7.32 1.62 1.56.03 3.48t-3.57.06q-3.42-3.36-7.74-6.18-2.4-1.56-4.14-2.22 0 5.46-.06 10.8 3.18.06 6.42.3 2.58.24 2.34 2.7-.24 2.46-2.64 2.22-3.12-.3-6.3-.36-.24 4.8-.54 9.48-.24 2.94-2.76 2.73-2.52-.21-2.22-2.91.3-4.62.48-9.24-3.6.12-7.2.48-2.7.42-2.88-2.16-.24-2.58 2.58-2.76 3.72-.42 7.68-.42.12-5.52.06-10.98-2.1.6-4.62 2.28-4.2 2.82-7.74 6.36-1.74 1.68-3.39-.18-1.65-1.86.15-3.48 4.86-4.62 9.96-7.44 3.18-1.8 5.58-2.46-.06-2.94-.18-5.94-6.3.24-12.6.9-2.7.42-2.88-2.16-.24-2.58 2.58-2.76 6.3-.6 12.66-.78l-.48-6.84q-.48-2.76 2.1-3.06 2.58-.36 3.06 2.64.24 3.54.42 7.14zm-35.16 3.24q4.38-2.52 8.58-5.88 2.1-1.92 3.72.06t-.6 3.96q-1.32 1.02-2.64 1.92.12.36.12.84-.36 15.06 1.74 30.96.54 2.76-1.98 3.18-2.52.42-3.12-2.58-1.92-15.3-1.68-29.1-.78.54-1.56 1.02-2.58 1.38-3.75-.87t1.17-3.51z"/></svg>