<svg viewBox="0 0 389 80" xmlns="http://www.w3.org/2000/svg"><path d="M34.74 23.36q-1.44-3.78-.48-6.12 1.56-3.66 3.42-1.74.48.36 1.14 2.1.54 1.62 1.62 2.88.9 1.2 1.68 2.34.36.48-.42 1.44-.9.96-2.58.54-1.92-.36-3-.54-1.2-.12-1.38-.9zM22.08 32.6q13.02-1.02 28.2-6 1.92-.9 4.02 2.94 1.92 3.72-.78 3-2.46-.9-7.2.48-.72 1.02-1.14 2.1-1.26 1.74-2.34 7.5-.84 3.48-2.1 6.12 3.18 2.16 7.86 5.76 3 2.1 8.52 3.9 5.46 1.8 7.38 2.94 1.56 1.26 1.68 1.56 0 .36-1.02.42-1.08.12-3 .24-4.38.48-7.02-.18-2.64-.48-5.28-.36-2.64.18-3-3.9-2.1-4.74-5.7-6.18l-2.4-1.08q-.18 0-.12.12-3 3.42-7.08 4.8-3.36 1.26-3.54 3.06-.18 1.86-6.3 2.16-6.18.36-6.3-.48-.18-.72.48-.9 9.36-3.48 10.68-4.26 1.2-.78 4.26-2.22Q33.3 53 35.52 50q-.84-.48-1.62-1.08-3.66-2.58-5.58-2.52-1.38.78-1.26-1.2 0-2.04.48-3.72.3-1.68 1.62-.12 2.1 2.1 5.64 3.66.84.42 2.82 1.5 1.38-2.94 1.86-6.36.36-4.2-.84-5.22-2.82.54-5.88.78-7.02.66-9.12 2.16-1.2 1.02-1.98-2.16-.9-3.12.42-3.12zm69.72 2.82q-2.1-6.18-1.5-17.16-.36-1.5 2.82-1.68 8.82-2.46 14.64-1.5 5.22 1.2 3.66 2.94-1.92 1.62-2.34 6.54-.54 4.92-.96 9.78-.3 1.74-2.28.54-7.56-.54-12.24 1.38-1.56.96-1.8-.84zm7.44-7.2q-5.1 1.26-5.34 1.56.18 2.82 1.14 2.64 3.66-.9 8.22-1.38 1.08.06 1.56-4.74.36-4.74.6-6.72 0-1.86-.72-2.22-5.28-1.08-9.54 1.62-.9.72-1.08 2.34-.18.18-.06.3 1.38-.36 4.44-.96 3.54-1.26 3.48 0-.18 1.2 0 1.92 0 .66-2.52.48-4.74.9-5.58 1.26-.18 1.14 0 2.7 1.26-.36 4.38-1.14 3.54-1.38 3.48-.18-.18 1.32.06 2.04.18.66-2.52.48zM78.18 51.14q.72.24 14.28-2.94h.12q0-.9.12-1.74 0-1.02.06-2.16-.72 0-1.62.12-2.46.42-4.56 2.4-.54.9-1.32-.18-4.92-6.78-3.9-10.68.18-1.02.12-1.86-.18-.84 2.4-.6 2.46.24 1.62 1.56-1.56 3.84 0 5.88.72 1.98 4.38 1.2 1.74-.36 2.82-1.08 0-1.02-.06-1.98-.36-1.74 2.16-1.2 2.46.48 1.68 1.56-.54 1.26-.6 5.34-.18 4.08-.24 8.1-.18 3.9-.06 7.98.36 2.16-2.04 1.08-2.46-.96-1.8-1.98.72-3.72.72-6.72v-2.16q-2.16.78-4.32 1.38-.48.54-.78 1.08-1.08 1.86-1.74 4.08-.36 1.2-.18 1.98 0 .78-.54 1.14-5.64 2.52-8.4 1.44-1.56-.36-.12-.96 2.28-.78 5.22-2.82 1.38-1.5 2.58-3.9.18-.66.36-1.2-3.72.96-4.5 1.98-.54.72-1.56-1.8-1.02-2.46-.3-2.34zm23.88 8.46q-.36-13.74-.06-21.06 0-1.38-.12-1.92-.36-.54 1.14-.3 1.8.36 3.18.72 1.26.18.42.96-.72.66-.9 1.92h.12q3.18-1.02 5.52-1.02.54-.18.84-1.68.18-2.1 1.5-6.84 0-2.4 1.5-2.16 1.56.12 3 1.2 1.08.78.66 1.14-.54.3-1.14 1.92-1.08 3.3-2.1 7.86-.66 2.46-1.14 2.1-.72-.36-1.74-.36-2.46-.3-7.14 1.08-.18 1.8-.12 3.72 1.44-.18 3.78-.84 4.56-1.2 8.4.12 3.66 1.26 2.34 2.04-1.44.72-1.56 2.88-.18 4.62-.3 8.28-.18 1.86 0 2.94.18 1.14-.48 1.08-2.34-.12-4.38-1.62-.48-.36.3-.84.72-.3.72-1.32.18-2.76.12-5.22-.18-2.46-.24-3.66-.18-1.74-.78-2.34-.66-.48-2.76.24-3.3.72-5.22 1.56-.12 4.44 0 10.02.36 4.38-.6 4.32-2.64-.6-4.14-1.56-1.38-.72.06-1.5 1.26-.72 1.32-1.86zm56.22-13.08q.36-14.76.54-19.38.54-.9 1.26-.72 1.56-.36 3.24-.9 1.8-.54 4.8-1.14 3-.66 6.3.3 2.1-.18 1.5 1.98-1.38 2.64-.84 9.66.3 6.6.66 14.4h1.44q3.84-.18 4.68-.54.54-.18.96.9.36 1.08 1.14 1.56.72.42.6 2.58-.18 2.1-1.38 1.32-6.12-1.68-14.58-.96-9.84.72-15.18 2.46-.84.36-2.22-2.04-1.38-2.46 1.62-1.62 2.46-.66 5.64-1.14V53q0-2.1-.18-6.48zm3.3 6.12q3.36-.54 7.26-1.2.36 0 .72-.12 0-.36.78-.9.66-1.62.6-7.92-.18-6.3-.36-10.5-.3-4.2-1.2-4.92-.54-.66-3 .06-2.64.78-3 2.1-1.02.96-1.38 4.2.84.78 1.8.36 1.44-.36 3-.84.72-.18 1.02 1.26.12 1.5-.3 1.62-1.44.36-2.82 1.02-2.1.72-3.12 2.34-.18 1.44-.06 3.06.9.54 1.8.12 2.1-.72 4.26-1.56.66-.24 1.14 1.32.36 1.56-.18 1.74-1.92.72-4.02 1.68-1.92.84-2.94 2.4 0 1.38.18 2.88 0 1.08-.18 1.8zm-24.96-22.98q1.08 0 1.38-.12 3-1.74 6.66-3.66.54-.3.72-.06.18.36-.24 1.2-1.44 2.1-3.12 5.1-.54.54-.6 1.14-.18.72-.96.42-1.02-.48-3.12-2.1-1.98-1.92-.72-1.92zm9.36 5.4q0-10.92.3-18.54 0-1.38-.12-1.92-.36-.54 1.2-.3 1.74.36 3.12.72 1.26.18.42.96-.84.78-.84 2.58-.36 4.74-.42 10.5 2.1-3.36 4.44-7.44.18-.72 1.2-.18.9.72 1.5 1.14.54.54-.24 1.02-1.56 1.68-3.06 4.14-1.56 2.46-3.18 3.9-.48.36-.72.66-.18.78-.06 1.5.84-.36 2.16-.66 2.64-1.26 2.82-.6 0 .66.3 1.8.18 1.14-1.2 1.62-1.92 1.08-4.14 1.98-.18 1.02-.06 2.22 1.2 1.26 3.66 2.52.9.54.48 2.28-.54 1.8-1.8 1.08-1.56-.84-2.4-1.2-.18 7.56.06 16.38.36 4.2-.6 4.2-2.46-.6-3.9-1.56-1.26-.6.06-1.32 1.2-.72 1.2-1.8-.18-7.44-.18-13.92-1.38 1.08-2.88 3.24-2.82 3.66-7.56 6.36-.84.36-1.8.3-1.02 0 .48-1.56 4.56-4.68 8.04-9.54 2.82-4.08 3.3-6.3-1.02.36-1.8.66-6 1.74-7.02 3.24-.54.9-1.92-1.86-1.44-2.82-.6-2.64.72.06 11.76-3.66zM216 19.1q.54.78-3.18 1.5-3.3.48-3.54 1.62.18 1.2-4.02 2.58-4.2 1.38-5.7 1.44-1.62.18-.24-.84 4.38-3.9 11.76-7.74 1.68-.72 2.4-1.38.72-.6 1.38.78.6 1.38 1.14 2.04zm-20.52 12.48q.72.06 11.64-3.18-.06-.18 0-.18 0-.84.12-1.8 0-.96-.12-1.14-.6-1.62 2.16-1.08 2.64.6 1.92 1.86-.18.24-.3 1.26.72-.3 1.5-.48 2.82-1.08 2.88-.42 0 .72.18 1.8.12 1.14-1.26 1.62-1.74.78-3.72 1.56-.06.24-.06.54.12.18.36.3 1.26 1.2 3.72 2.34.78.42.48 2.1-.42 1.74-1.68 1.14-2.34-1.38-3.18-1.44-.36 3.18-.24 3.3.48 1.38-1.8 1.32-2.34 0-1.14-1.14 0-.18.12-2.7-1.26.6-2.82 1.98-2.64 2.28-6.54 3.48-.78.18-1.44 0-.72-.18.54-1.14 4.2-3 7.38-6.42 1.14-1.38 1.98-2.34-.9.24-1.56.48-5.7 1.38-6.84 2.7-.54.9-1.8-1.8-1.2-2.76-.48-2.52zm40.86 30.96q-5.16.18-7.86-.3-1.2-.24-1.92-.3-.78 0-2.76-4.86-1.02-2.82.3-7.62 1.32-4.74 1.2-6.36 0-1.08 2.22-.42 2.22.66.9 1.98-1.74 3-2.34 6.72-.54 3.72.48 5.04 1.74 1.8 6.72 1.8 4.92 0 6.72-1.68 1.74-2.28 1.5-12.18.12-1.74.78-.3 2.28 8.64 2.58 14.4.18 3 .06 3.3-.18.36-1.26.36-2.28.3-7.32.42zm-7.08-13.86q3.3-5.7 3.3-6.24 0-1.26 1.86-.72t.78 1.5q-.36.3-3.36 6 .72-.18 1.56-.54 1.08-.48 1.92-.84-.24-.72-.36-1.14-.24-.72.6-.36 2.58 1.8 4.2 3.66.18.36-.78 1.86-1.08 1.56-1.62 1.5-.6 0-.66-.54-.06-.54-.24-1.62-.18-.18-.12-.48-.72.18-1.68.18-4.56 1.68-4.8 1.98-.96.9-2.04-.78-1.08-1.38-.06-1.62.12-.72 1.5-1.8zm-10.38-8.04q-3.06-6-2.94-12.12-.18-1.2.42-1.26.66 0 1.56-.36l.12-.06q2.58-4.92 4.26-6.9 1.86-2.28 2.16-3.12 0-.9 1.32-.42 1.26.54 3.06 1.26 1.74.66.78 1.32-2.52 1.74-5.82 5.04-1.02 1.08-1.92 1.8 1.14-.12 2.58-.48 5.82-1.62 7.32-1.38 4.74.72 6.18 2.88.3.78-1.02 1.86-1.44 1.14-4.26 10.74-.18.78-.54.96-.42.18-2.16-.3-1.32 0-4.86.54v.06q-1.26 5.46-4.74 9.78-1.56 1.98-1.68 3.72-.06.9-1.8 1.56-.72.36-1.26.42 0 .24.18.54.18.72-.12 1.62-.36.9-.6 2.22-.36 1.2-1.8-.12-1.98-3.12-5.1-5.22-2.28 1.38-2.52 2.16.18 1.02-1.14 1.62-1.44.54-3.72 1.14-2.28.54-4.26.12-1.62-.18-.66-.78 2.64-1.5 6.6-3.42 1.74-.84 3.3-2.46-2.28-1.2-3.78-1.68-2.16-.66-1.5-1.14 1.02-.78 2.28-2.82-7.38 2.46-7.8 3.12-1.44 1.32-2.88-1.2-1.5-2.46.78-2.4.9-.18 11.88-3.36l.06-.06q.6-1.74.72-1.86.3-.36 2.7.9l.12.06q.54-.18 1.14-.3 1.38-.66 2.34-.9 0-.18.18-.54.18-2.1 1.2-1.38 1.08.66 2.1 1.14 1.08.54-.36 2.04-.72.84-2.34 5.52-.78 1.98-1.62 3.42.48.18 1.02.3 1.5.72 2.34 1.2 2.22-2.1 4.8-5.58 1.86-2.58 2.94-6.9l-.48.12q-1.38.18-1.8.48-.42.36-.96-1.14zm.72-11.04q-.9 1.08-.3 4.56.54 3.54 1.26 4.26.18.18 2.22-.3.06-.54.18-1.14.18-1.32.3-2.52-.84.18-1.62.3-.9.42-1.2-1.32-.3-1.74.72-1.8 1.26-.3 2.46-.48.18-1.86.18-3-3 .54-4.2 1.44zm9.9 6.36q.96-1.2 1.68-4.68.72-3.48.3-4.02-1.14-.72-3-.24-.66.18-1.38.36.36.36.24.6-.42.54-.72 2.7.72-.12 1.44-.18 1.26-.18 1.32 1.56 0 1.8-.78 1.74-1.2.18-2.4.24-.18 1.5-.54 3.36 3.54-.9 3.84-1.44zm-21.6 15.18q1.44-2.28 2.76-5.58-1.56.36-2.82.78-.18.36-.36.66-1.26 1.56-2.76 2.7-.24.42 3.18 1.44zm48.78-25.44q.72.24 13.56-2.1 3.12-.84 3.24-.12v2.04q0 1.26-1.56 1.68-1.44.54-2.94.84-2.1 1.8-3.72 4.44-1.38 2.1-3.18 5.04.84-.18 2.22-.48 3-.72 3.84-.66 4.08.54 5.4 2.34.18.54-.66 1.44-.84.84-2.4 8.04 0 .9-.36 1.08-.54.18-2.34.06-.66 0-3.36.3-1.62.18-1.92.54-.54.42-1.14-1.26-1.92-3.18-2.52-6.54-1.92 2.64-3.6 3.6-4.92 1.62-3.78.3 1.08-1.32 4.02-4.56 4.92-6.78 5.82-9.24.54-1.62.54-3.06-2.64.54-3.3 1.26-.72.9-1.68-2.16-1.08-3.06-.18-2.82zm10.86 19.44q.3-.9.42-3.12 0-2.22-.24-2.46-.54-.36-1.32-.12-.9.18-1.74.36-1.44.24-1.98.6-.72.66-.18 3.12.3 2.46.9 2.88 0 .18 2.04-.42 1.98-.48 2.1-.84zm32.82-21.84q-.9 1.26-4.02 11.22-.9 2.1-1.74 1.5-3.18-.66-8.28.3-1.2 3.06-3.18 4.74-2.28 2.04-1.5 3.36 3.18-.66 6.78-1.2-.18-2.82-.36-4.68-.3-1.32.42-1.44 2.28-.12 3.84.96.84.54.48 1.32-.48.6-.54 3.18 2.64-.3 5.1-.42 3.66-.18 4.5-.54.54-.18.96.84.36 1.02 1.14 1.5.72.42.6 2.46-.18 2.1-1.32 1.38-4.92-1.38-11.22-1.08-.36 4.38-.3 8.4-.18 5.34.12 9.78.36 3.12-2.58 1.74-3.36-1.2-1.98-1.98.84-.54 1.26-3.12.18-4.14.06-11.76-.18-1.56-.06-2.82-8.94.9-13.98 2.52-.9.42-2.16-1.86-1.44-2.28 1.56-1.62 1.08-.24 2.52-.54.36-.36 1.32-1.08 1.74-1.56 3.72-4.32.9-1.26 1.56-3-1.02.24-2.04.6-.84.36-1.02-.12-.36-.54-.9-1.5-1.56-4.02-3.06-10.56-1.56-2.16 0-2.34.9-.36 2.52-.72 4.08-4.38 7.56-10.62.18-1.14 1.38-.12 1.02 1.08 1.98 1.68.84.6.24 1.02-.9.36-2.1 1.98-1.44 1.8-3.36 3.54-.9.78-1.26 1.5 2.28-.36 5.16-.9 5.64-1.08 8.22-.06 1.26.36 3 1.2 1.56.9.96 1.68zm-11.4-.18q-.36 1.26-.3 3.72 1.44-.18 2.64-.36 1.08-.18 1.14 1.38 0 1.56-.66 1.5-1.74.18-3.18.3-.18 1.74-.9 3.54 1.92-.24 4.02-.42 1.38-.12 2.1-4.32.72-4.2-.18-4.98-1.38-1.2-4.5-.84-.18.18-.18.48zm-6.9 4.8q1.74-.36 3.3-.54 0-1.86-.12-3.24-.36-.54-.3-.84-3.54.9-4.38 2.1-.3 1.38.18 5.64.54 4.26 1.08 3.18 1.02-.18 2.34-.42 0-.36.24-.66.36-1.62.66-3-1.44.24-2.64.48-.72.3-1.02-1.14-.36-1.5.66-1.56zm45.36 25.74q5.76-7.02 10.02-14.16 1.74-3.3 2.82-5.82-4.26 1.14-6.66 2.34-.84.6-2.94-2.1-2.1-2.76 1.74-2.16 4.2-1.38 9.96-3.06 0-10.5-.18-11.28-.9-2.4 2.52-1.92 3.3.36 1.86 1.92-.54.72-.3 7.92v2.4q2.1-.48 4.2-.78 2.82-.48 3.48-.72.54-.3 1.08.66.48.96 1.2 1.32.72.3.84 2.34.18 1.98-1.14 1.38-4.2-.54-9.3.3.54.9 1.2 1.8 1.2 2.1 3.78 5.34 2.46 3.24 4.86 5.1 2.46 2.1 6.3 3.78 3.66 1.86 4.8 3.42.3.9-.36.84-2.64.06-7.56-.54-4.92-.54-4.86-1.92 0-1.44-.48-2.34-.9-1.8-2.34-3.12-1.62-1.26-3.36-3.84-1.02-1.38-2.22-2.1 0 1.08.06 2.22 0 3.42-.06 6.72 1.92-.36 3.66-.6 1.56-.36 1.68 1.98 0 2.34-.9 2.28-2.46.36-4.56.66 0 2.52-.06 5.04-.36 7.56-.06 8.16 1.26 1.92-1.62 1.44-3-.36-2.34-.84.54-.54.6-4.02 0-4.32-.12-9.18-3 .54-5.82 1.08-1.08.6-1.56-1.62-.54-2.22.84-2.34 3.36-.72 6.36-1.38-.18-3.84-.06-9.9-1.8 1.8-3.9 5.58-3.3 5.82-9.72 10.74-.9.42-1.68.54-.9.06.3-1.56zm-7.68-16.62q4.02-6.96 7.08-16.68.18-1.08.72-2.16.3-1.08 3.54.24 3.18 1.32 1.62 2.22-2.34 2.4-4.8 7.14-2.64 4.74-3.48 6.54-.72 1.38-.84 2.88 1.44.72 2.94 1.44.9.72.54 1.8-.72 2.46-.66 8.16 0 5.82-.36 9.48-.18 1.02.24 1.98.72 1.56-3.48.6-1.08-.3-.66-1.08.54-4.38.48-11.52-.18-3.9-.42-6.54-.54.6-1.2 1.14-2.64 2.1-6.66 4.5-2.28 1.02-1.02-.9 2.28-3.66 6.42-9.24z"/></svg>