<svg viewBox="0 0 321 80" xmlns="http://www.w3.org/2000/svg"><path d="M37.56 48.62q-.54-.54-1.02-.96-3.78 7.02-8.82 9.78-.18 0-.24.12-6.72 2.88-11.04 1.56-.54-.12-.42-.3 0-.18.48-.12.66.06 2.28-.36 9.72-2.1 16.08-12.36-4.74-4.32-7.44-5.28-.96-.3-.9-.72.12-.36 1.2-.24 2.28.36 7.92 4.86 5.88-11.16 6.24-14.34 0-.18-.12-.3-9.18 1.32-16.8 5.1-3.3 1.62-6.3.72-2.4-.84-2.7-1.62-.24-1.02 1.44-.72 1.08.18 3.6-.54 10.2-3.06 15.72-4.26 9.12-1.8 12.36-2.94 1.74-.54 3.48-.06 1.56.36 2.22 1.38.54.78.12 1.2-.54.54-1.32.24-1.14-.36-5.76.36-1.98.18-3.66.66.3.54.48.96.54 2.04-1.8 5.34-.06.18-.24.42-2.04 2.52-5.16 9.78.18.18.36.3 9.36 8.28 17.82 10.86 3.72 1.26 6.96 4.32.66.9.54 1.14-.18.36-1.14.36-5.76.48-9.54-1.08-.18 0-.24-.06-3.96-1.92-14.64-13.2zm-3.6-32.04q2.1.72 2.94.84 3.72.18 5.34.96.9.72 1.14 1.56.18.72-.48 1.26-.78.78-2.58.54-2.7-.36-4.92 1.44-.42.36-.54.12-.18-.18.12-.48 1.2-.9 2.46-2.34-.06-.9-.78-1.14-2.04-1.08-3.12-2.1-.24-.36-.18-.54.18-.18.6-.12zM82.8 60.14q-.96.96-2.88 1.56-1.98.72-3.12.12-.96-.18-1.08-.96-.06-.54 1.08-.96 5.88-3 7.86-8.88-.54-.3-.96-.48-.9-.54-.84-1.02 0-.36 1.5-.3.54.06 1.32-.12 4.5-1.08 5.82-1.02.18-6.42.06-6.6-.36-.54-.84-.72h-.12q-4.2 5.22-7.02 5.1-1.08-.18-2.22-1.86-1.08-1.44-1.08-2.58-.18-1.08 1.08-2.34 2.34-2.34 1.86-5.04-.24-.66-.06-.72.3-.12.66.36 1.62 1.8 1.26 5.22-.9 2.52-.3 2.94 1.2 1.08 5.82-2.04.18-.18.36-.18.3-.18.36-.06.54-.3 1.74.42.66.42 1.08 1.2.12.18.12 2.1-.9 5.82-.3 12.84.12 1.86 0 2.46-.18 1.14-.66 1.14-.42 0-.84-.54-.36-.36-.54-.96-.54-1.2-.48-8.1-1.68.18-2.7.54l-2.16.54q-.42.24-.72.18-.18 0-.3-.06-.42 5.46-2.76 8.82zm29.52-14.52q3.42-1.2 5.22-.36 1.38.72 1.44 1.02.12.54-1.56 1.02-1.62.6-4.62 1.38 0 .06.12.24 3.72 6.9 2.7 10.8-.18.42-.3.78-2.88 4.14-7.92 5.22-.6.3-.9-.24-.18-.36 2.1-1.98 1.38-.78 2.64-2.94 3-5.58-.18-11.58-6.48 1.8-8.7 3.12 0 2.88.06 4.8.12.72 0 1.38-.18 1.08-.84 1.14-.72 0-1.26-.84-.96-1.02-1.44-2.88-.54-2.1-.3-3.18 1.98-4.08 2.88-9.6 0-.36.12-.42l.06.06q0-.18.72-.24 3.18-.48 8.1-6.3 4.26-6.6.96-8.52-.9-.54-.66-.9.18-.3 1.08 0 1.44.42 2.7 1.74.9 1.08.9 2.34-.06 4.32-3.9 8.7-3.66 3.6-9.54 3.6 0 .06.18.24.18.36.18 7.44 2.46-2.64 9.96-5.04zm-8.16-28.8q.18-1.92-1.86-1.26-6.54 2.04-7.62 1.32-.78-.54 0-.6.54 0 6.36-1.98 3-1.56 3.78-1.32 2.1.42 3.36 3.42.54 1.08-.12 2.22-.18.36-.24.66-1.5 3.66-1.08 12.78.36 5.94-.54 6.78-.42.24-.9.06-.24-.18-3.3-3.78-.24 0-.42.06-.72 0-1.32.18-4.2.6-5.82-.54-.36-.48.36-.36.72-.12 2.22-.66 3.18-1.2 4.2-.96.9.24 1.14.72.3.54.18 1.02h-.12q1.38.36 1.5.24.54-.54.42-2.82-.42-7.74-.18-15.18zm-8.88 11.4q.72 0 2.7-.96 1.44-.48 2.7-.18.66.18.72.42.3.54-.9.96-2.22 1.32-3.6 2.46-1.8 1.44-1.2.3 1.2-1.74 1.08-1.92l-.42-.24q-.78-.18-.9-.42-.96-.36-.18-.42zm.72-6.48q.72-.12 2.76-1.02 1.38-.36 2.46-.12.54.06.66.3.18.54-.84.96-2.22 1.44-3.78 2.64-1.68 1.26-1.08.24 1.62-1.92 1.5-2.1 0-.12-.48-.18-.9-.18-1.02-.36-.96-.3-.18-.36zm-5.1-2.4q-.36-1.44-.06-1.62.36-.18 1.86 2.16 1.08 1.8 1.02 5.82-.18 1.44-.06 2.76.12 1.8 0 4.02 0 2.58-.84 2.58-.36 0-1.02-1.08-1.44-2.28-1.26-3.78.12-1.26.12-2.88 0-.9.36-5.64.18-1.08-.12-2.34zM172.08 23q-5.58.96-10.02 3.06 0 6.18-.3 12.48 3.18-.84 3.42-1.56 0-.66-.84-2.22-.24-.54 0-.66.3-.18.72.12.12.06.18.18-.06 0 0-.06 5.16-4.86 8.34-9.42.9-1.26.48-1.74-.36-.48-1.98-.18zm-15.72 3.84q1.02-.66 1.92-1.08-.18-2.46-.18-4.08 0-7.74-2.64-8.64-.78-.48-.72-.9 0-.54.96-.42 2.52.18 3.84 1.38 1.2.78 1.62 2.04 1.26 2.58.96 8.04-.06.24-.06.78 11.1-4.86 15.36-2.04 1.08.72 1.56 1.56.36.72-.18 1.86-.6 1.26-2.64 2.82-.36.06-.48.3-.54.36-10.08 6.3 2.64 2.22 2.82 2.46.54.36.84.78.18.36-.06.84-.18.6-.96.54-2.22 0-6.54 1.5-.06 2.16-.18 4.38-.06 11.04-1.56 21.06-.36 1.8-.72 1.8t-.48-.9q-.78-11.7-.54-25.32-2.7.36-5.64 1.86-1.26.54-1.92.3-.78-.36-1.14-1.08-.54-1.62 0-2.46.48-.72.84.12.54.6 1.26.54.84 0 2.58-.48 2.1-.72 4.08-1.2 0-5.94.06-11.76l-.6.3q-10.62 5.22-14.1 13.08-.36.9-1.02.96-.9.18-1.68-.48-.96-.9-1.8-2.16-1.44-2.1.42-4.62 2.16-3.96 2.76-6 .18-1.02.9.54.54.9.6 3.66.18 1.26.6 1.62.3.18 1.86-1.14 3.72-3.06 10.08-6.66zm73.56 8.94q-.9-.84.54-.78.84 0 1.26.66.36.24.6 1.2 2.1 13.32.3 20.64-1.5 4.2-4.32 5.4-4.38 2.1-7.98 1.62-.6 0-.72-.54-.06-.36 2.46-1.08 5.16-1.62 7.5-8.58.48-1.62.78-3.18 1.62-12.78-.42-15.36zm-3.66-4.44q12.24-3 14.52-1.62 2.64 1.62 2.64 2.52 0 .96-.72 1.38-.78.54-2.16-.06-2.04-.84-3.66-.84-9-.54-15.6 3.78-1.08.9-2.04 1.08-2.22.6-3.96-1.2-.9-.9-1.14-2.28-.24-1.38.84-.18 1.44 1.26 3.06.54 4.44-1.92 8.22-3.12zm-4.98-9.78q1.8.06 6.6-1.86 5.4-2.46 7.38-1.26.54.36.84.9.18.36 0 .84-.06.42-1.02.66-9.72 3.3-13.98 1.98-1.32-.54-1.44-.9 0-.48 1.62-.36zM195.06 45.5q-.72.24-.78.06-.06-.18 2.04-1.8 6.84-5.94 9.54-10.8 1.38-2.16 1.44-3.12.12-.66-.42-1.86-.24-.54 0-.6.18-.12.84.36 2.7 2.34 2.4 4.92-.54 2.76-5.88 7.14.54 1.32.42 9 0 .6.06.96.18.36.24.3.48.18 1.2-.66.84-.9 1.68-1.68.3-.36.48-.18t-.42 1.32l-2.16 5.46q0 .72-.48 1.8-.42.96-1.14.96-.54 0-1.02-.48-.18-.18-.18-.24-2.58-3.78-.3-12.42.48-1.62.66-3.48-4.86 3.66-8.22 5.04zm12-25.2q1.74-3.06.96-4.98-.24-.54 0-.6.18-.12.84.36 2.7 2.34 2.4 4.92-.36 1.32-2.1 3.12-4.74 4.14-9.18 5.7-.72.24-.78.06-.18-.36 1.08-.9 4.8-4.14 6.78-7.68zm79.8-6.42q2.52.18 2.64.18 1.38-.18 2.58.48 1.62.9 2.64 2.46 1.02 1.8.6 2.22-.42.54-1.62 0-2.76-1.26-4.5-1.08-.42 0-.42-.24-.06-.18.36-.3.18 0 .48-.12.36 0 .42-.36 0-.54-3.54-2.76-.36-.18-.3-.36.12-.18.66-.12zm-1.68 11.94q-3.78.96-6.72 2.16-.06 2.4-.18 5.46-.18 1.32-.12 2.64 2.16-.72 4.02-1.32.18-.48.6-1.08 1.56-2.28 2.94-5.04 1.02-1.92.48-2.7-.24-.3-1.02-.12zm-3.12 10.5q-1.98.54-3.96 1.38-.36 12.6.12 19.62.36 5.94.06 7.62-.36 1.38-.72 1.38-.42 0-1.08-.66-2.04-3.06-1.32-6.36.18-2.82.3-6.78 0-7.02.24-13.98-8.1 2.88-12.48 5.94-.6.54-1.44.3-.78-.18-1.32-1.02-.42-.84-.18-1.44.3-.54 1.44 0 .9.54 3.78-1.14 6.24-3.24 10.26-4.2.12-4.14.18-8.1-1.8.72-3.3 1.38-1.62.6-3.06.42-1.44-.12-2.22-.72-2.16-1.44-.78-1.2 2.1.36 4.8-.54 2.28-.72 4.62-1.38.3-11.16-.24-12.3-.36-.72-.96-.96-.9-.18-.3-1.08.36-.54 1.5-.6 2.16.24 3.24 2.28.54 1.08.3 2.04-.54 2.16-1.02 9.9 8.94-3 9.12-2.94.72-.54 1.74-.48.66.06 1.56.84.9.72.96 1.26.3.72-.54 1.8-.9 1.44-1.92 2.4-4.2 4.2-4.86 5.04 7.74-2.7 11.76-.3 1.8 1.26 2.4 2.64 1.74 4.14-.54 9.54-.06 0-.06.12-2.7 4.02-6.3 4.32-1.32 0-4.2-1.86-3.48-2.1-3.3-2.76.18-.48.96 0 2.7.96 4.38.9 2.64-.3 3.72-1.5 2.46-2.82 2.64-6.9 0-2.82-.84-3.36-3.06-1.56-13.14 1.44z"/></svg>