<svg viewBox="0 0 326 80" xmlns="http://www.w3.org/2000/svg"><path d="M18.78 19.99q-2.11.47-2.93 2.35 1.17 11.71 1.64 23.55-.23 5.04-.47 10.43.82.7 1.76 1.76 1.29.94 2.46 0-.58-8.67 0-17.11 2.46 2.81 5.98 4.69 1.05.23 2.46.23 1.29-.35 2.58-1.05-.35 2.46-.47 5.27.23.82.7 1.64 1.64 1.99 3.87 3.16 4.1.82 8.32 0 1.99-.82 3.98-1.87 1.06-.94 2.23-1.99.7-1.29 1.29-2.46.35-1.88.35-4.11-1.4-5.62-4.1-10.66-2.23-2.69-5.16-3.87-3.04-.82-6.32-.93-1.29 4.68-3.17 9.96-.58-5.98-.12-11.96 9.5.36 19.22-.47 1.17 9.15 1.53 18.64-.24 1.87-.59 3.86-1.05 2.82-3.05 5.28.82.94 2 2.11.7.58 1.87.58.7-.35 1.29-1.05 1.29-3.05 2.11-6.33.94-11.37 0-22.5 1.17.12 1.99-.59.12-1.05-.7-1.64-2.35-.93-4.81-1.05-10.54.23-20.86 0-.23-1.41-.82-2.46-.82-.94-1.64-1.41-2.11-.47-4.1-.82-4.45-.23-8.32.82zm23.2 12.42q.94.24 1.88.59 1.29 1.41 2.11 3.4 1.05 3.05 2.11 6.33.12 2.46-.59 4.57-.82 1.29-1.87 2.46-1.53 1.05-3.05 1.99-2.69.82-5.74.82-.47-.35-.82-.7-.47-2.11 0-4.22 2.81-7.62 5.97-15.24zM28.74 22.22q1.29 8.67 1.06 17.93-.24.7-.59 1.4-1.05.94-2.23 1.41-1.4-1.05-2.34-2.46-.59-1.41-.7-2.58-.94-1.4-2.35-1.64-.35-5.86 0-11.95.94-.82 2.23-1.29 2.34-.7 4.92-.82zm65.98-2.46q-.24 4.33.12 8.67-5.04.12-9.73-.12.47-2.34 1.05-4.68-.23-.59-.7-.94-2.23-.94-4.69-.94-.82 3.28-1.52 6.68 1.52 2.11 3.87 3.28 5.74.12 11.72-.23.23 3.28 0 6.79-9.5 0-18.05 1.06 1.41 1.99 3.63 3.16 5.28-.58 10.08-.7-7.03 5.86-12.77 12.77 1.4 1.99 3.63 3.28.82 0 1.52-.23 3.17-4.34 6.45-8.56 2.22-2.57 5.04-4.33 0 4.92-.35 9.96 1.17 1.05 2.46 2.46.82.47 1.99.47.35-.35.82-.59-.35-6.79-.47-13.71 9.02 7.15 18.4 14.3 1.29.47 2.11-.59 0-.93-.35-1.64-9.14-6.91-17.7-14.06 6.56-.12 13.48 0 .47-.35.94-.82 0-1.05-.71-1.64-2.46-.82-4.92-.94-5.51.47-11.02.47 0-3.4.36-6.91 5.97-.71 12.18-.59.47-.23.71-.7.11-1.06-.59-1.64-2.11-.71-4.22-.94-3.98.12-7.61.59-.24-3.29.23-6.57-.35-.7-.82-1.05-2.34-.82-4.57-.82zm41.13 33.98q-.35.24-.23.82 1.4 1.76 3.4 3.05h1.17q4.1-3.87 8.55-7.5 0-1.41-1.17-1.99-1.76-.12-3.4-.35-4.33 2.57-8.32 5.97zm.59-17.46q-.59.24-.47.82 1.52 1.88 3.75 3.05 3.4-.82 6.91-1.29.82-.59.71-1.52-.59-1.06-1.64-1.29-1.65-.24-3.17-.47-3.16.23-6.09.7zm25.66-1.99q-3.51 1.05-6.68 1.99-.35.35-.7.82-1.29 8.44-2.23 16.88.24.82.59 1.75 1.87 2.23 4.45 3.4 1.99.24 4.22.24 1.76-.24 3.28-1.17v-.82q-.82-1.18-2.11-1.41-2.93-.35-5.62.35-.94-1.52-.59-3.52.35-2.22 1.17-4.1 3.28-.11 6.21-1.4l4.46-2.58q1.29-1.17 2.34-2.34.7-1.29 1.17-2.47V37.1q-.47-1.05-1.29-1.76-2.46-1.05-5.15-1.29-1.88 0-3.52.24zm4.92 3.16q.24 1.64-.93 3.05-1.64 1.88-3.64 3.16-1.64.94-3.28 1.41.35-2.81 1.29-5.51 3.17-1.17 6.56-2.11zm-30.35-11.01q-.82 0-.94.7 1.41 1.99 3.64 3.05 4.33-.71 9.26-.47.46-.35.82-.82 0-1.06-.71-1.64-5.97-1.41-12.07-.82zm17.93-7.74q-1.52 5.86-2.93 11.84-.94 2.23-1.87 4.45 1.05 1.17 2.46 2.46.58.35 1.52.35 1.52-2.69 2.46-5.97.94.23 2.23.35.94-.59.82-1.64 2.93-2.46 6.56-3.52 2.11-.47 4.45-.82 1.76-.11 3.4.24 1.53 2.34 2.23 5.27.7 3.87.35 7.97-.94 2.58-2.93 4.8-2.93 2.35-6.09 3.87-2.58.82-5.04 1.41 1.05 1.4 2.58 2.58.58.11 1.4.11 3.4-1.05 6.57-2.69 1.99-1.29 3.98-2.7 1.99-1.87 3.05-3.98.47-1.88.82-3.75-.12-2.81-.24-5.39-.58-2.81-1.4-5.28-.94-1.87-2.46-3.28-1.53-.93-3.17-1.4-1.99-.24-3.87-.59-2.81 0-5.74.35-2.46.47-4.69 1.29.47-2.11.94-4.8-.82-1.06-2.11-1.29-1.75-.35-3.28-.24zm41.25 35.04q-.35.24-.23.82 1.4 1.76 3.4 3.05h1.17q4.1-3.87 8.55-7.5 0-1.41-1.17-1.99-1.76-.12-3.4-.35-4.33 2.57-8.32 5.97zm.59-17.46q-.59.24-.47.82 1.52 1.88 3.75 3.05 3.4-.82 6.91-1.29.82-.59.71-1.52-.59-1.06-1.64-1.29-1.65-.24-3.17-.47-3.16.23-6.09.7zm25.66-1.99q-3.51 1.05-6.68 1.99-.35.35-.7.82-1.29 8.44-2.23 16.88.24.82.59 1.75 1.87 2.23 4.45 3.4 1.99.24 4.22.24 1.76-.24 3.28-1.17v-.82q-.82-1.18-2.11-1.41-2.93-.35-5.62.35-.94-1.52-.59-3.52.35-2.22 1.17-4.1 3.28-.11 6.21-1.4l4.46-2.58q1.29-1.17 2.34-2.34.7-1.29 1.17-2.47V37.1q-.47-1.05-1.29-1.76-2.46-1.05-5.15-1.29-1.88 0-3.52.24zm4.92 3.16q.24 1.64-.93 3.05-1.64 1.88-3.64 3.16-1.64.94-3.28 1.41.35-2.81 1.29-5.51 3.17-1.17 6.56-2.11zm-30.35-11.01q-.82 0-.94.7 1.41 1.99 3.64 3.05 4.33-.71 9.26-.47.46-.35.82-.82 0-1.06-.71-1.64-5.97-1.41-12.07-.82zm17.93-7.74q-1.52 5.86-2.93 11.84-.94 2.23-1.87 4.45 1.05 1.17 2.46 2.46.58.35 1.52.35 1.52-2.69 2.46-5.97.94.23 2.23.35.94-.59.82-1.64 2.93-2.46 6.56-3.52 2.11-.47 4.45-.82 1.76-.11 3.4.24 1.53 2.34 2.23 5.27.7 3.87.35 7.97-.94 2.58-2.93 4.8-2.93 2.35-6.09 3.87-2.58.82-5.04 1.41 1.05 1.4 2.58 2.58.58.11 1.4.11 3.4-1.05 6.57-2.69 1.99-1.29 3.98-2.7 1.99-1.87 3.05-3.98.47-1.88.82-3.75-.12-2.81-.24-5.39-.58-2.81-1.4-5.28-.94-1.87-2.46-3.28-1.53-.93-3.17-1.4-1.99-.24-3.87-.59-2.81 0-5.74.35-2.46.47-4.69 1.29.47-2.11.94-4.8-.82-1.06-2.11-1.29-1.75-.35-3.28-.24zm37.5 14.89q1.06 2.11 3.4 3.39 1.88-.11 3.63-.58 1.17 7.85 1.17 16.05 1.29 1.76 3.4 2.58.47-.23.94-.47V35.93q-.35-.59-.82-1.05 2.46-1.18 4.81-2.11.11-1.29-.83-1.88-1.99-.7-4.1-.7-5.74 1.99-11.6 3.4zm31.99-.82q-5.86.11-11.71.23-.59.12-.47.7 1.52 2 3.63 3.05l4.8-.47q-1.4.82-3.28 1.76-3.04 2.11-5.74 4.92-1.76 1.88-2.93 4.22-.35 1.05-.59 2.23 1.18 1.17 2.58 2.57.82.47 2 .47 1.28-2.34 2.69-4.68 4.57-.36 9.38-.47 0 3.51-.24 7.26.82.94 1.88 1.88 1.17.94 2.34 0-.12-4.81-.35-9.14 2.58-.24 5.39-.12 2.23.12 4.33 1.05.83 2.47 1.06 5.28.94.94 1.99 2.11.94.7 2.35.7.82-.94.58-2.34-1.64-5.63-4.33-10.78-1.76-2.47-3.64-4.69-3.16-2.35-6.33-2.93 6.68-.82 13.72-.47.82-.7.23-1.64-1.88-.94-3.98-1.17-5.75.35-10.79.35.12-5.27.71-10.31-.35-.59-.71-.94-2.22-.82-4.45-.94-.82 5.98-.12 12.31zm.36 6.56q.23 2.46-.12 4.92-3.28-.23-6.68-.12 1.64-2.46 4.33-3.98 1.18-.7 2.47-.82zm4.1-.82q2.34-.24 4.33.82 2.11 2.58 3.4 5.62-3.87-.47-7.97-.58-.47-3.05.24-5.86z"/></svg>