<svg viewBox="0 0 665 80" xmlns="http://www.w3.org/2000/svg"><path d="M40.48 48.3q0 5.64-3.54 8.67-3.54 3.03-9 3.03H15.82q-.3 0-.51-.21-.21-.21-.21-.51V18.72q0-.3.21-.51.21-.21.51-.21h10.56q6.24 0 9.81 2.91 3.57 2.91 3.57 8.73 0 5.76-3.78 8.46-.3.18-.06.36 4.56 3.36 4.56 9.84zM25.36 26.52q-.3 0-.3.3v7.68q0 .3.3.3h1.14q1.68 0 2.58-1.05.9-1.05.9-3.03 0-2.04-.9-3.12t-2.58-1.08h-1.14zm1.8 24.9q1.56 0 2.46-1.2.9-1.2.9-3.42 0-2.22-.9-3.54-.9-1.32-2.4-1.32h-1.86q-.3 0-.3.3v8.88q0 .3.3.3h1.8zM55.3 28.5q5.52 0 8.91 2.76 3.39 2.76 3.39 7.26v20.76q0 .3-.21.51-.21.21-.51.21h-8.52q-.3 0-.51-.21-.21-.21-.21-.51v-1.44q0-.18-.12-.21t-.24.15q-2.04 2.7-6.36 2.7-8.28 0-8.28-9.42 0-4.02 1.5-6.12 1.5-2.1 4.11-2.79 2.61-.69 6.69-.69h2.4q.3 0 .3-.3v-1.44q0-1.2-.66-1.95t-1.68-.75q-.78 0-1.29.45t-.69 1.29q-.06.72-.72.72l-8.76-.06q-.72 0-.72-.72.3-4.74 3.63-7.47 3.33-2.73 8.55-2.73zm-.36 24.6q1.02 0 1.86-.69.84-.69.84-1.77v-2.22q0-.3-.3-.3h-1.8q-1.2 0-1.95.72t-.75 1.92q0 1.14.6 1.74.6.6 1.5.6zM85.9 28.56q1.5 0 2.58.66.42.36.36.9l-1.38 8.46q-.06.66-.84.48-.84-.24-1.5-.24-1.02 0-1.92.36-1.08.36-1.77 1.5-.69 1.14-.69 2.52v16.02q0 .3-.21.51-.21.21-.51.21H71.5q-.3 0-.51-.21-.21-.21-.21-.51V29.7q0-.3.21-.51.21-.21.51-.21h8.52q.3 0 .51.21.21.21.21.51v1.92q0 .24.09.27.09.03.21-.15 1.62-3.18 4.86-3.18zM91.54 60q-.3 0-.51-.21-.21-.21-.21-.51V18.72q0-.3.21-.51.21-.21.51-.21h8.52q.3 0 .51.21.21.21.21.51v40.56q0 .3-.21.51-.21.21-.51.21h-8.52zm24.36.48q-5.76 0-8.94-2.76-3.18-2.76-3.18-7.62V38.88q0-4.68 3.21-7.53 3.21-2.85 8.91-2.85t8.91 2.82q3.21 2.82 3.21 7.56V50.1q0 4.86-3.18 7.62t-8.94 2.76zm0-8.58q.96 0 1.56-.72.6-.72.6-1.92v-9.6q0-1.14-.6-1.89t-1.56-.75q-.96 0-1.56.75-.6.75-.6 1.89v9.6q0 1.2.6 1.92t1.56.72zm20.7 8.1q-.66 0-.78-.66l-6.48-29.64v-.24q0-.54.66-.54h8.1q.66 0 .72.66l1.98 15q0 .18.18.18t.18-.18l2.04-15q.06-.66.78-.66h7.2q.72 0 .78.66l2.16 15q.06.24.21.21t.15-.21l1.98-15q.06-.66.72-.66l7.98.12q.78 0 .6.78l-6.42 29.52q-.12.66-.78.66h-8.28q-.72 0-.78-.66l-1.98-12.84q-.06-.24-.18-.24t-.18.24l-1.86 12.84q-.06.66-.78.66h-7.92zm56.16.48q-5.7 0-9.12-3.36-3.42-3.36-3.42-8.94V29.76q0-5.64 3.42-8.94t9.12-3.3q5.7 0 9.15 3.3t3.45 8.94v.54q0 .3-.21.51-.21.21-.51.21l-8.52.36q-.72 0-.72-.72v-1.62q0-1.38-.72-2.19t-1.92-.81q-1.14 0-1.86.81-.72.81-.72 2.19v19.98q0 1.32.72 2.13.72.81 1.86.81 1.2 0 1.92-.81t.72-2.13v-1.74q0-.3.21-.51.21-.21.51-.21l8.52.36q.3 0 .51.21.21.21.21.51v.54q0 5.58-3.45 8.94-3.45 3.36-9.15 3.36zm27.48 0q-5.76 0-8.94-2.76-3.18-2.76-3.18-7.62V38.88q0-4.68 3.21-7.53 3.21-2.85 8.91-2.85t8.91 2.82q3.21 2.82 3.21 7.56V50.1q0 4.86-3.18 7.62t-8.94 2.76zm0-8.58q.96 0 1.56-.72.6-.72.6-1.92v-9.6q0-1.14-.6-1.89t-1.56-.75q-.96 0-1.56.75-.6.75-.6 1.89v9.6q0 1.2.6 1.92t1.56.72zm30.9-23.4q4.26 0 6.3 2.76t2.04 7.8v20.22q0 .3-.21.51-.21.21-.51.21h-8.52q-.3 0-.51-.21-.21-.21-.21-.51V39.72q0-2.7-1.92-2.7-1.02 0-1.56.72t-.54 2.04v19.5q0 .3-.21.51-.21.21-.51.21h-8.52q-.3 0-.51-.21-.21-.21-.21-.51V29.7q0-.3.21-.51.21-.21.51-.21h8.52q.3 0 .51.21.21.21.21.51v1.2q0 .12.12.12.24 0 .48-.36 1.8-2.16 5.04-2.16zm25.44-9.78q0-.3.21-.51.21-.21.51-.21h8.52q.3 0 .51.21.21.21.21.51v40.56q0 .3-.21.51-.21.21-.51.21h-8.52q-.3 0-.51-.21-.21-.21-.21-.51v-1.2q0-.18-.12-.21t-.24.09q-1.98 2.52-5.46 2.52-8.22 0-8.22-10.38V38.88q0-10.38 8.22-10.38 3.48 0 5.46 2.64.12.18.24.15t.12-.21V18.72zm-2.1 33.24q.96 0 1.53-.72.57-.72.57-1.92v-9.66q0-1.2-.57-1.92t-1.53-.72q-.9 0-1.44.72-.54.72-.54 1.92v9.66q0 1.2.54 1.92t1.44.72zm39.3-5.46q0 .3-.21.51-.21.21-.51.21h-13.08q-.3 0-.3.3v1.8q0 1.2.57 1.92t1.53.72q.84 0 1.38-.6.54-.6.72-1.5.06-.66.78-.66l8.28.48q.3 0 .51.21.21.21.15.57-.54 10.02-11.82 10.02-5.7 0-8.88-2.73-3.18-2.73-3.18-7.65V38.88q0-4.68 3.21-7.53 3.21-2.85 8.85-2.85t8.82 2.82q3.18 2.82 3.18 7.56v7.62zm-12-9.48q-.96 0-1.53.72-.57.72-.57 1.92v1.86q0 .3.3.3h3.54q.3 0 .3-.3v-1.86q0-1.14-.57-1.89t-1.47-.75zm30.6-8.52q4.26 0 6.3 2.76t2.04 7.8v20.22q0 .3-.21.51-.21.21-.51.21h-8.52q-.3 0-.51-.21-.21-.21-.21-.51V39.72q0-2.7-1.92-2.7-1.02 0-1.56.72t-.54 2.04v19.5q0 .3-.21.51-.21.21-.51.21h-8.52q-.3 0-.51-.21-.21-.21-.21-.51V29.7q0-.3.21-.51.21-.21.51-.21h8.52q.3 0 .51.21.21.21.21.51v1.2q0 .12.12.12.24 0 .48-.36 1.8-2.16 5.04-2.16zm22.98 31.98q-5.46 0-8.7-2.61-3.24-2.61-3.24-6.87v-.36q0-.3.21-.51.21-.21.51-.21h8.04q.3 0 .51.21.21.21.21.51v.12q0 1.08.75 1.71.75.63 1.65.63.84 0 1.32-.51.48-.51.48-1.29 0-1.08-1.02-1.65-1.02-.57-3.24-1.29l-1.32-.42q-7.74-2.64-7.74-9.6 0-4.56 3.06-7.2 3.06-2.64 8.16-2.64 5.22 0 8.34 2.85t3.12 7.53q0 .66-.72.66h-7.8q-.3 0-.51-.21-.21-.21-.21-.51v-.48q0-.96-.54-1.53-.54-.57-1.44-.57-.9 0-1.41.63-.51.63-.51 1.47 0 1.32 1.2 2.04t3.36 1.44q2.64.9 4.56 1.89 1.92.99 3.3 2.82 1.38 1.83 1.38 4.65 0 4.32-3.21 6.81-3.21 2.49-8.55 2.49zM393.4 46.5q0 .3-.21.51-.21.21-.51.21H379.6q-.3 0-.3.3v1.8q0 1.2.57 1.92t1.53.72q.84 0 1.38-.6.54-.6.72-1.5.06-.66.78-.66l8.28.48q.3 0 .51.21.21.21.15.57-.54 10.02-11.82 10.02-5.7 0-8.88-2.73-3.18-2.73-3.18-7.65V38.88q0-4.68 3.21-7.53 3.21-2.85 8.85-2.85t8.82 2.82q3.18 2.82 3.18 7.56v7.62zm-12-9.48q-.96 0-1.53.72-.57.72-.57 1.92v1.86q0 .3.3.3h3.54q.3 0 .3-.3v-1.86q0-1.14-.57-1.89t-1.47-.75zm28.74-18.3q0-.3.21-.51.21-.21.51-.21h8.52q.3 0 .51.21.21.21.21.51v40.56q0 .3-.21.51-.21.21-.51.21h-8.52q-.3 0-.51-.21-.21-.21-.21-.51v-1.2q0-.18-.12-.21t-.24.09q-1.98 2.52-5.46 2.52-8.22 0-8.22-10.38V38.88q0-10.38 8.22-10.38 3.48 0 5.46 2.64.12.18.24.15t.12-.21V18.72zm-2.1 33.24q.96 0 1.53-.72.57-.72.57-1.92v-9.66q0-1.2-.57-1.92t-1.53-.72q-.9 0-1.44.72-.54.72-.54 1.92v9.66q0 1.2.54 1.92t1.44.72zm50.94-26.16q0 .3-.21.51-.21.21-.51.21H446.2q-.3 0-.3.3v7.56q0 .3.3.3h6.6q.3 0 .51.21.21.21.21.51v7.14q0 .3-.21.51-.21.21-.51.21h-6.6q-.3 0-.3.3v7.62q0 .3.3.3h12.06q.3 0 .51.21.21.21.21.51v7.08q0 .3-.21.51-.21.21-.51.21h-21.6q-.3 0-.51-.21-.21-.21-.21-.51V18.72q0-.3.21-.51.21-.21.51-.21h21.6q.3 0 .51.21.21.21.21.51v7.08zm2.76 34.2q-.42 0-.57-.21-.15-.21.03-.63l6.72-14.52q.06-.18 0-.36l-6.72-14.46q-.12-.24-.12-.36 0-.48.66-.48h9.24q.66 0 .84.54l2.16 5.52q.18.42.36 0l2.16-5.52q.18-.54.84-.54h9.24q.42 0 .57.21.15.21-.03.63l-6.72 14.46q-.06.18 0 .36l6.72 14.52q.12.24.12.36 0 .48-.66.48h-9.24q-.66 0-.84-.54l-2.16-5.7q-.06-.18-.18-.18t-.18.18l-2.16 5.7q-.18.54-.84.54h-9.24zm43.32-24.84q0 .3-.21.51-.21.21-.51.21h-3.06q-.3 0-.3.3v12.84q0 1.38.57 1.92t1.71.48h.3q.3 0 .51.21.21.21.21.51v7.14q0 .3-.21.51-.21.21-.51.21h-2.7q-4.68 0-7.05-1.44t-2.37-5.58v-16.8q0-.3-.3-.3h-1.92q-.3 0-.51-.21-.21-.21-.21-.51V29.7q0-.3.21-.51.21-.21.51-.21h1.92q.3 0 .3-.3v-6.66q0-.3.21-.51.21-.21.51-.21h8.1q.3 0 .51.21.21.21.21.51v6.66q0 .3.3.3h3.06q.3 0 .51.21.21.21.21.51v5.46zm17.76-6.6q1.5 0 2.58.66.42.36.36.9l-1.38 8.46q-.06.66-.84.48-.84-.24-1.5-.24-1.02 0-1.92.36-1.08.36-1.77 1.5-.69 1.14-.69 2.52v16.02q0 .3-.21.51-.21.21-.51.21h-8.52q-.3 0-.51-.21-.21-.21-.21-.51V29.7q0-.3.21-.51.21-.21.51-.21h8.52q.3 0 .51.21.21.21.21.51v1.92q0 .24.09.27.09.03.21-.15 1.62-3.18 4.86-3.18zm16.62-.06q5.52 0 8.91 2.76 3.39 2.76 3.39 7.26v20.76q0 .3-.21.51-.21.21-.51.21h-8.52q-.3 0-.51-.21-.21-.21-.21-.51v-1.44q0-.18-.12-.21t-.24.15q-2.04 2.7-6.36 2.7-8.28 0-8.28-9.42 0-4.02 1.5-6.12 1.5-2.1 4.11-2.79 2.61-.69 6.69-.69h2.4q.3 0 .3-.3v-1.44q0-1.2-.66-1.95t-1.68-.75q-.78 0-1.29.45t-.69 1.29q-.06.72-.72.72l-8.76-.06q-.72 0-.72-.72.3-4.74 3.63-7.47 3.33-2.73 8.55-2.73zm-.36 24.6q1.02 0 1.86-.69.84-.69.84-1.77v-2.22q0-.3-.3-.3h-1.8q-1.2 0-1.95.72t-.75 1.92q0 1.14.6 1.74.6.6 1.5.6zm41.58-4.8q0 5.64-3.54 8.67-3.54 3.03-9 3.03H556q-.3 0-.51-.21-.21-.21-.21-.51V18.72q0-.3.21-.51.21-.21.51-.21h10.56q6.24 0 9.81 2.91 3.57 2.91 3.57 8.73 0 5.76-3.78 8.46-.3.18-.06.36 4.56 3.36 4.56 9.84zm-15.12-21.78q-.3 0-.3.3v7.68q0 .3.3.3h1.14q1.68 0 2.58-1.05.9-1.05.9-3.03 0-2.04-.9-3.12t-2.58-1.08h-1.14zm1.8 24.9q1.56 0 2.46-1.2.9-1.2.9-3.42 0-2.22-.9-3.54-.9-1.32-2.4-1.32h-1.86q-.3 0-.3.3v8.88q0 .3.3.3h1.8zm28.02 9.06q-5.76 0-8.94-2.76-3.18-2.76-3.18-7.62V38.88q0-4.68 3.21-7.53 3.21-2.85 8.91-2.85t8.91 2.82q3.21 2.82 3.21 7.56V50.1q0 4.86-3.18 7.62t-8.94 2.76zm0-8.58q.96 0 1.56-.72.6-.72.6-1.92v-9.6q0-1.14-.6-1.89t-1.56-.75q-.96 0-1.56.75-.6.75-.6 1.89v9.6q0 1.2.6 1.92t1.56.72zm15.9 8.1q-.3 0-.51-.21-.21-.21-.21-.51V18.72q0-.3.21-.51.21-.21.51-.21h8.52q.3 0 .51.21.21.21.21.51v40.56q0 .3-.21.51-.21.21-.51.21h-8.52zm26.28-41.28q0-.3.21-.51.21-.21.51-.21h8.52q.3 0 .51.21.21.21.21.51v40.56q0 .3-.21.51-.21.21-.51.21h-8.52q-.3 0-.51-.21-.21-.21-.21-.51v-1.2q0-.18-.12-.21t-.24.09q-1.98 2.52-5.46 2.52-8.22 0-8.22-10.38V38.88q0-10.38 8.22-10.38 3.48 0 5.46 2.64.12.18.24.15t.12-.21V18.72zm-2.1 33.24q.96 0 1.53-.72.57-.72.57-1.92v-9.66q0-1.2-.57-1.92t-1.53-.72q-.9 0-1.44.72-.54.72-.54 1.92v9.66q0 1.2.54 1.92t1.44.72z"/></svg>