<svg viewBox="0 0 583 80" xmlns="http://www.w3.org/2000/svg"><path d="M37.56 49.54q0 5.46-3.09 8.46-3.09 3-8.13 3H16.32q-.6 0-.6-.6V19.6q0-.6.6-.6h9.18q5.46 0 8.55 2.85 3.09 2.85 3.09 8.31 0 6.48-4.62 8.94-.3.18-.06.3 2.4 1.44 3.75 4.02 1.35 2.58 1.35 6.12zM21.72 23.98q-.24 0-.24.24v12.72q0 .24.24.24h3.84q2.82 0 4.38-1.71t1.56-4.77q0-3.18-1.56-4.95t-4.38-1.77h-3.84zm4.14 31.98q2.76 0 4.35-1.86 1.59-1.86 1.59-5.28 0-3.48-1.56-5.43-1.56-1.95-4.32-1.95h-4.2q-.24 0-.24.24v14.04q0 .24.24.24h4.14zm26.46-25.98q4.38 0 7.17 2.76T62.28 40v20.4q0 .6-.6.6h-4.56q-.6 0-.6-.6v-1.32q0-.12-.09-.18t-.21.06q-2.1 2.52-6.18 2.52-3.42 0-6.03-1.95-2.61-1.95-2.61-6.93 0-5.22 3.15-7.65 3.15-2.43 8.25-2.43h3.48q.24 0 .24-.24v-1.74q0-2.52-1.2-4.05-1.2-1.53-3.12-1.53-1.5 0-2.52 1.02t-1.2 2.64q0 .6-.6.6h-4.86q-.6 0-.6-.6.3-3.84 3.06-6.24 2.76-2.4 6.84-2.4zM51.3 56.44q2.1 0 3.66-1.32t1.56-3.72v-4.08q0-.24-.24-.24h-3.66q-2.4 0-3.84 1.29t-1.44 3.75q0 2.16 1.08 3.24t2.88 1.08zm28.26-26.28q1.5 0 2.58.66.42.24.3.78l-.9 4.56q-.06.54-.72.36-.78-.3-1.68-.3-.36 0-1.08.12-1.86.18-3.09 2.04-1.23 1.86-1.23 4.5V60.4q0 .6-.6.6h-4.56q-.6 0-.6-.6V31.06q0-.6.6-.6h4.56q.6 0 .6.6v3.48q0 .18.09.21t.15-.15q1.74-4.44 5.58-4.44zM86.58 61q-.6 0-.6-.6V19.6q0-.6.6-.6h4.56q.6 0 .6.6v40.8q0 .6-.6.6h-4.56zm20.7.48q-4.68 0-7.41-2.61-2.73-2.61-2.73-6.93V39.52q0-4.26 2.76-6.9 2.76-2.64 7.38-2.64 4.68 0 7.44 2.64 2.76 2.64 2.76 6.9v12.42q0 4.32-2.76 6.93-2.76 2.61-7.44 2.61zm0-5.04q1.92 0 3.18-1.35 1.26-1.35 1.26-3.57V39.88q0-2.16-1.26-3.54t-3.18-1.38q-1.92 0-3.15 1.38t-1.23 3.54v11.64q0 2.22 1.23 3.57 1.23 1.35 3.15 1.35zM127.44 61q-.54 0-.66-.54l-6.42-29.34V31q0-.54.54-.54h4.38q.6 0 .66.54l3.72 20.7q.06.12.12.12t.12-.12l3.78-20.7q.12-.54.66-.54h3.96q.6 0 .66.54l3.9 20.7q.06.12.12.12t.12-.12l3.78-20.7q.12-.54.66-.54l4.32.06q.3 0 .45.18.15.18.09.48l-6.48 29.28q-.06.54-.66.54h-4.5q-.54 0-.66-.54l-3.78-19.68q-.06-.12-.12-.12t-.12.12l-3.66 19.68q-.06.54-.66.54h-4.32zm51.84.48q-4.86 0-7.83-2.97-2.97-2.97-2.97-7.89v-21.3q0-4.92 2.97-7.86 2.97-2.94 7.83-2.94 4.92 0 7.89 2.94 2.97 2.94 2.97 7.86v.96q0 .6-.6.6l-4.56.24q-.6 0-.6-.6v-1.56q0-2.46-1.41-3.96t-3.69-1.5q-2.28 0-3.66 1.5-1.38 1.5-1.38 3.96v22.08q0 2.46 1.38 3.96t3.66 1.5q2.28 0 3.69-1.5 1.41-1.5 1.41-3.96v-1.56q0-.6.6-.6l4.56.24q.6 0 .6.6v.9q0 4.92-2.97 7.89-2.97 2.97-7.89 2.97zm25.62 0q-4.68 0-7.41-2.61-2.73-2.61-2.73-6.93V39.52q0-4.26 2.76-6.9 2.76-2.64 7.38-2.64 4.68 0 7.44 2.64 2.76 2.64 2.76 6.9v12.42q0 4.32-2.76 6.93-2.76 2.61-7.44 2.61zm0-5.04q1.92 0 3.18-1.35 1.26-1.35 1.26-3.57V39.88q0-2.16-1.26-3.54t-3.18-1.38q-1.92 0-3.15 1.38t-1.23 3.54v11.64q0 2.22 1.23 3.57 1.23 1.35 3.15 1.35zm28.02-26.4q3.78 0 5.79 2.55 2.01 2.55 2.01 7.23V60.4q0 .6-.6.6h-4.56q-.6 0-.6-.6V40.3q0-2.52-1.08-3.9t-3-1.38q-1.98 0-3.09 1.35-1.11 1.35-1.23 3.81 0 .36-.06.36V60.4q0 .6-.6.6h-4.56q-.6 0-.6-.6V31.06q0-.6.6-.6h4.56q.6 0 .6.6v1.62q0 .12.12.15t.24-.15q2.16-2.64 6.06-2.64zm27.54-10.44q0-.6.6-.6h4.56q.6 0 .6.6v40.8q0 .6-.6.6h-4.56q-.6 0-.6-.6v-.96q0-.12-.09-.18t-.21.06q-1.14 1.08-2.58 1.62-1.44.54-2.88.54-3.96 0-6.27-2.61-2.31-2.61-2.31-6.87V39.52q0-4.44 2.31-6.99t6.27-2.55q1.44 0 2.88.54t2.58 1.62q.12.12.21.06t.09-.18V19.6zm-4.26 36.9q1.68 0 2.85-1.11 1.17-1.11 1.41-2.91v-13.5q-.24-1.8-1.41-2.91t-2.85-1.11q-1.92 0-3.15 1.38t-1.23 3.54v11.7q0 2.16 1.23 3.54t3.15 1.38zm35.94-9q0 .6-.6.6h-13.56q-.24 0-.24.24v3.24q0 2.16 1.2 3.54t3.12 1.38q1.68 0 2.82-1.02t1.44-2.64q.18-.48.66-.48l4.44.24q.3 0 .45.18.15.18.09.42-.42 3.9-2.97 6.09-2.55 2.19-6.93 2.19-4.62 0-7.35-2.58-2.73-2.58-2.73-6.9V39.52q0-4.26 2.73-6.9 2.73-2.64 7.35-2.64 4.68 0 7.38 2.64t2.7 6.9v7.98zm-10.08-12.54q-1.92 0-3.12 1.38-1.2 1.38-1.2 3.54v3.18q0 .24.24.24h8.22q.24 0 .24-.24v-3.18q0-2.16-1.2-3.54t-3.18-1.38zm27.66-4.92q3.78 0 5.79 2.55 2.01 2.55 2.01 7.23V60.4q0 .6-.6.6h-4.56q-.6 0-.6-.6V40.3q0-2.52-1.08-3.9t-3-1.38q-1.98 0-3.09 1.35-1.11 1.35-1.23 3.81 0 .36-.06.36V60.4q0 .6-.6.6h-4.56q-.6 0-.6-.6V31.06q0-.6.6-.6h4.56q.6 0 .6.6v1.62q0 .12.12.15t.24-.15q2.16-2.64 6.06-2.64zm22.44 31.32q-4.5 0-7.11-2.19-2.61-2.19-2.61-5.91v-.54q0-.6.6-.6h4.26q.6 0 .6.6v.42q0 1.62 1.26 2.73 1.26 1.11 3.12 1.11 1.8 0 2.91-1.08t1.11-2.76q0-1.32-.78-2.22-.78-.9-1.83-1.41-1.05-.51-3.21-1.41-2.34-1.02-3.87-1.98-1.53-.96-2.73-2.76-1.2-1.8-1.2-4.56 0-4.08 2.55-6.36 2.55-2.28 6.87-2.28 4.44 0 6.99 2.34t2.55 6.36v.18q0 .6-.6.6h-4.14q-.6 0-.6-.6v-.42q0-1.62-1.14-2.76-1.14-1.14-2.94-1.14-1.86 0-2.94 1.14-1.08 1.14-1.08 2.76 0 1.26.72 2.1.72.84 1.74 1.35 1.02.51 3.24 1.47 2.46 1.08 4.08 2.07 1.62.99 2.85 2.79t1.23 4.5q0 3.9-2.67 6.18t-7.23 2.28zM366.3 47.5q0 .6-.6.6h-13.56q-.24 0-.24.24v3.24q0 2.16 1.2 3.54t3.12 1.38q1.68 0 2.82-1.02t1.44-2.64q.18-.48.66-.48l4.44.24q.3 0 .45.18.15.18.09.42-.42 3.9-2.97 6.09-2.55 2.19-6.93 2.19-4.62 0-7.35-2.58-2.73-2.58-2.73-6.9V39.52q0-4.26 2.73-6.9 2.73-2.64 7.35-2.64 4.68 0 7.38 2.64t2.7 6.9v7.98zm-10.08-12.54q-1.92 0-3.12 1.38-1.2 1.38-1.2 3.54v3.18q0 .24.24.24h8.22q.24 0 .24-.24v-3.18q0-2.16-1.2-3.54t-3.18-1.38zM385.5 19.6q0-.6.6-.6h4.56q.6 0 .6.6v40.8q0 .6-.6.6h-4.56q-.6 0-.6-.6v-.96q0-.12-.09-.18t-.21.06q-1.14 1.08-2.58 1.62-1.44.54-2.88.54-3.96 0-6.27-2.61-2.31-2.61-2.31-6.87V39.52q0-4.44 2.31-6.99t6.27-2.55q1.44 0 2.88.54t2.58 1.62q.12.12.21.06t.09-.18V19.6zm-4.26 36.9q1.68 0 2.85-1.11 1.17-1.11 1.41-2.91v-13.5q-.24-1.8-1.41-2.91t-2.85-1.11q-1.92 0-3.15 1.38t-1.23 3.54v11.7q0 2.16 1.23 3.54t3.15 1.38zm47.58-37.08q.24-.42.72-.42h4.56q.6 0 .6.6v40.8q0 .6-.6.6h-4.56q-.6 0-.6-.6V30.64q0-.18-.09-.18t-.21.12l-5.76 10.74q-.18.42-.54.42-.36 0-.54-.42l-5.7-10.68q-.12-.12-.21-.12t-.09.18v29.7q0 .6-.6.6h-4.56q-.6 0-.6-.6V19.6q0-.6.6-.6h4.56q.42 0 .72.42l6.3 11.28q.06.06.18.06t.18-.06l6.24-11.28zm32.16 28.08q0 .6-.6.6h-13.56q-.24 0-.24.24v3.24q0 2.16 1.2 3.54t3.12 1.38q1.68 0 2.82-1.02t1.44-2.64q.18-.48.66-.48l4.44.24q.3 0 .45.18.15.18.09.42-.42 3.9-2.97 6.09-2.55 2.19-6.93 2.19-4.62 0-7.35-2.58-2.73-2.58-2.73-6.9V39.52q0-4.26 2.73-6.9 2.73-2.64 7.35-2.64 4.68 0 7.38 2.64t2.7 6.9v7.98zM450.9 34.96q-1.92 0-3.12 1.38-1.2 1.38-1.2 3.54v3.18q0 .24.24.24h8.22q.24 0 .24-.24v-3.18q0-2.16-1.2-3.54t-3.18-1.38zm29.28-15.36q0-.6.6-.6h4.56q.6 0 .6.6v40.8q0 .6-.6.6h-4.56q-.6 0-.6-.6v-.96q0-.12-.09-.18t-.21.06q-1.14 1.08-2.58 1.62-1.44.54-2.88.54-3.96 0-6.27-2.61-2.31-2.61-2.31-6.87V39.52q0-4.44 2.31-6.99t6.27-2.55q1.44 0 2.88.54t2.58 1.62q.12.12.21.06t.09-.18V19.6zm-4.26 36.9q1.68 0 2.85-1.11 1.17-1.11 1.41-2.91v-13.5q-.24-1.8-1.41-2.91t-2.85-1.11q-1.92 0-3.15 1.38t-1.23 3.54v11.7q0 2.16 1.23 3.54t3.15 1.38zm19.5-30.84q-1.68 0-2.76-1.08-1.08-1.08-1.08-2.76 0-1.68 1.08-2.76 1.08-1.08 2.76-1.08 1.74 0 2.79 1.05t1.05 2.79q0 1.68-1.08 2.76-1.08 1.08-2.76 1.08zM493.2 61q-.6 0-.6-.6V31.06q0-.6.6-.6h4.56q.6 0 .6.6V60.4q0 .6-.6.6h-4.56zm25.62-29.94q0-.6.6-.6h4.56q.6 0 .6.6V60.4q0 .6-.6.6h-4.56q-.6 0-.6-.6v-1.74q0-.18-.09-.18t-.21.12q-1.8 2.82-5.76 2.82-3.6 0-5.82-2.19t-2.22-6.69V31.06q0-.6.6-.6h4.56q.6 0 .6.6v20.22q0 5.16 4.08 5.16 2.04 0 3.15-1.47 1.11-1.47 1.11-4.05V31.06zm37.74-1.02q3.72 0 5.73 2.67 2.01 2.67 2.01 7.47V60.4q0 .6-.6.6h-4.5q-.6 0-.6-.6V40.6q0-2.64-1.08-4.11-1.08-1.47-2.88-1.47-1.92 0-3.06 1.47-1.14 1.47-1.14 4.05V60.4q0 .6-.6.6h-4.5q-.6 0-.6-.6V40.6q0-2.64-1.08-4.11-1.08-1.47-2.88-1.47-1.92 0-3.06 1.47-1.14 1.47-1.14 4.05V60.4q0 .6-.6.6h-4.5q-.6 0-.6-.6V31.06q0-.6.6-.6h4.5q.6 0 .6.6v1.5q0 .12.09.18t.21-.06q1.2-1.32 2.76-1.98 1.56-.66 3.12-.66 4.56 0 6.54 4.02.06.12.18.09t.18-.27q1.2-2.04 3.06-2.94 1.86-.9 3.84-.9z"/></svg>