<svg viewBox="0 0 671 80" xmlns="http://www.w3.org/2000/svg"><path d="M38.08 49.42q-.66 5.52-4.02 8.55Q30.7 61 25.72 61H16q-.24 0-.39-.18-.15-.18-.09-.42l4.98-40.8q.06-.24.24-.42t.42-.18h8.94q4.74 0 7.38 2.34 2.64 2.34 2.64 6.78 0 .6-.12 2.04-.84 6.54-5.58 8.94-.24.18-.12.3 3.9 2.64 3.9 8.16 0 .54-.12 1.86zm-12.3-25.44q-.06 0-.15.06t-.09.18l-1.56 12.72q0 .12.06.18t.12.06h3.78q3.06 0 4.86-2.13 1.8-2.13 1.8-5.79 0-2.52-1.32-3.9t-3.72-1.38h-3.78zm.12 31.98q2.7 0 4.47-1.86 1.77-1.86 2.19-5.28.12-1.08.12-1.56 0-2.76-1.29-4.29-1.29-1.53-3.63-1.53h-4.08q-.18 0-.3.24L21.7 55.72q-.06.06 0 .15t.18.09h4.02zm32.58-24.9q.06-.24.24-.42t.42-.18h4.44q.54 0 .54.6L60.46 60.4q0 .24-.18.42t-.42.18h-4.44q-.54 0-.54-.6l.3-2.1q0-.18-.09-.21t-.21.09q-1.14 1.68-2.76 2.49-1.62.81-3.42.81-3.3 0-5.04-2.01-1.74-2.01-1.74-5.55 0-.54.12-1.98l1.5-12.42q.54-4.44 2.91-6.99t6.15-2.55q1.74 0 3.15.81t2.19 2.49q.12.12.21.09t.09-.21l.24-2.1zM51.22 56.5q1.86 0 3.18-1.38t1.56-3.54l1.44-11.7q.06-.3.06-.84 0-1.86-.96-2.97t-2.58-1.11q-1.86 0-3.18 1.38t-1.62 3.54l-1.44 11.7q-.06.3-.06.84 0 1.8.99 2.94t2.61 1.14zm30.3-26.34q1.44 0 2.46.66.36.3.18.78l-1.44 4.56q-.18.54-.72.36-.72-.3-1.62-.3-.36 0-1.08.12-1.86.18-3.27 2.04t-1.71 4.5L72.16 60.4q0 .24-.18.42t-.48.18h-4.38q-.54 0-.54-.6l3.6-29.34q.12-.6.66-.6h4.44q.6 0 .48.6l-.42 3.48q0 .18.09.21t.15-.15q2.28-4.44 5.94-4.44zM84.58 61q-.54 0-.54-.6l5.04-40.8q.12-.6.66-.6h4.44q.24 0 .39.18.15.18.09.42l-4.98 40.8q-.06.24-.24.42t-.42.18h-4.44zm20.04.48q-4.14 0-6.45-2.16-2.31-2.16-2.31-5.88 0-.42.12-1.5l1.5-12.42q.54-4.26 3.54-6.9 3-2.64 7.5-2.64 4.14 0 6.48 2.19 2.34 2.19 2.34 5.85 0 .42-.12 1.5l-1.5 12.42q-.54 4.32-3.54 6.93-3 2.61-7.56 2.61zm.66-5.04q1.86 0 3.24-1.38 1.38-1.38 1.62-3.54l1.44-11.64q.06-.3.06-.78 0-1.86-1.02-3t-2.7-1.14q-1.86 0-3.21 1.38-1.35 1.38-1.65 3.54l-1.44 11.64q-.06.3-.06.84 0 1.86 1.02 2.97t2.7 1.11zM124.24 61q-.54 0-.54-.54l-2.64-29.34q0-.66.6-.66h4.26q.54 0 .6.54l1.02 20.7q.06.12.12.12t.12-.12l6.24-20.7q.12-.54.66-.54h3.84q.6 0 .6.54l1.26 20.7q0 .12.09.12t.15-.12L146.8 31q.18-.54.72-.54l4.2.06q.24 0 .39.18.15.18.03.48l-9.9 29.28q-.06.54-.66.54h-4.38q-.6 0-.6-.54l-1.26-19.68q0-.12-.09-.12t-.15.12l-5.94 19.68q-.18.54-.72.54h-4.2zm50.28.48q-4.32 0-6.81-2.46-2.49-2.46-2.49-6.66 0-.54.12-1.74l2.64-21.3q.6-4.92 3.84-7.86 3.24-2.94 7.98-2.94 4.26 0 6.78 2.4 2.52 2.4 2.52 6.6 0 .6-.12 1.8l-.12.96q-.12.6-.66.6l-4.44.24q-.6 0-.48-.6l.18-1.56q.06-.3.06-.96 0-2.04-1.17-3.27t-3.15-1.23q-2.22 0-3.75 1.5-1.53 1.5-1.83 3.96l-2.7 22.08q-.06.36-.06.96 0 2.04 1.14 3.27t3.12 1.23q2.22 0 3.78-1.5 1.56-1.5 1.86-3.96l.18-1.56q.12-.6.66-.6l4.38.24q.6 0 .48.6l-.06.9q-.6 4.92-3.84 7.89-3.24 2.97-8.04 2.97zm24.84 0q-4.14 0-6.45-2.16-2.31-2.16-2.31-5.88 0-.42.12-1.5l1.5-12.42q.54-4.26 3.54-6.9 3-2.64 7.5-2.64 4.14 0 6.48 2.19 2.34 2.19 2.34 5.85 0 .42-.12 1.5l-1.5 12.42q-.54 4.32-3.54 6.93-3 2.61-7.56 2.61zm.66-5.04q1.86 0 3.24-1.38 1.38-1.38 1.62-3.54l1.44-11.64q.06-.3.06-.78 0-1.86-1.02-3t-2.7-1.14q-1.86 0-3.21 1.38-1.35 1.38-1.65 3.54l-1.44 11.64q-.06.3-.06.84 0 1.86 1.02 2.97t2.7 1.11zm30.42-26.4q3.18 0 4.86 1.95 1.68 1.95 1.68 5.55 0 1.08-.18 2.28l-2.52 20.58q0 .24-.18.42t-.48.18h-4.38q-.3 0-.45-.18-.15-.18-.09-.42l2.46-20.1q.06-.42.06-1.26 0-1.92-.87-2.97-.87-1.05-2.49-1.05-1.92 0-3.18 1.35-1.26 1.35-1.62 3.81-.06.36-.12.36l-2.46 19.86q0 .24-.18.42t-.48.18h-4.38q-.54 0-.54-.6l3.6-29.34q.12-.6.66-.6h4.44q.6 0 .48.6l-.18 1.62q0 .12.12.15t.24-.15q2.4-2.64 6.18-2.64zm28.02-10.44q.12-.6.66-.6h4.44q.24 0 .39.18.15.18.09.42L259 60.4q0 .24-.18.42t-.42.18h-4.44q-.54 0-.54-.6l.12-.96q.06-.12-.03-.18t-.21.06q-1.26 1.08-2.73 1.62t-2.85.54q-3.42 0-5.34-2.1t-1.92-5.64q0-.54.12-1.74l1.5-12.48q.54-4.44 3.12-6.99t6.36-2.55q1.38 0 2.73.54t2.31 1.62q.12.12.21.06t.09-.18l1.56-12.42zm-8.7 36.9q1.68 0 2.94-1.11t1.74-2.91l1.62-13.5q0-1.8-.99-2.91t-2.61-1.11q-1.86 0-3.21 1.38-1.35 1.38-1.65 3.54l-1.44 11.7q-.06.3-.06.84 0 1.8.99 2.94t2.67 1.14zm36-9q-.12.6-.66.6h-13.14q-.18 0-.3.24l-.36 3.24q-.06.3-.06.84 0 1.8.99 2.94t2.61 1.14q1.62 0 2.85-1.02t1.77-2.64q.24-.48.66-.48l4.32.24q.3 0 .39.18.09.18.03.42-.84 3.9-3.6 6.09-2.76 2.19-7.02 2.19-4.08 0-6.39-2.13-2.31-2.13-2.31-5.85 0-.42.12-1.5l1.5-12.48q.54-4.26 3.54-6.9 3-2.64 7.44-2.64 4.08 0 6.39 2.16 2.31 2.16 2.31 5.82 0 .48-.12 1.56l-.96 7.98zm-8.22-12.54q-1.86 0-3.18 1.38t-1.62 3.54l-.42 3.18q0 .24.24.24h7.92q.12 0 .21-.06t.09-.18l.36-3.18q.06-.3.06-.84 0-1.86-.99-2.97t-2.67-1.11zm27.42-4.92q3.18 0 4.86 1.95 1.68 1.95 1.68 5.55 0 1.08-.18 2.28L308.8 60.4q0 .24-.18.42t-.48.18h-4.38q-.3 0-.45-.18-.15-.18-.09-.42l2.46-20.1q.06-.42.06-1.26 0-1.92-.87-2.97-.87-1.05-2.49-1.05-1.92 0-3.18 1.35-1.26 1.35-1.62 3.81-.06.36-.12.36L295 60.4q0 .24-.18.42t-.48.18h-4.38q-.54 0-.54-.6l3.6-29.34q.12-.6.66-.6h4.44q.6 0 .48.6l-.18 1.62q0 .12.12.15t.24-.15q2.4-2.64 6.18-2.64zm17.94 31.32q-3.96 0-6.24-1.86-2.28-1.86-2.28-5.1 0-.78.06-1.14l.06-.54q.06-.24.24-.42t.42-.18h4.14q.3 0 .45.18.15.18.09.42l-.06.42q-.24 1.62.84 2.73 1.08 1.11 2.94 1.11 1.92 0 3.15-1.23t1.23-3.03q0-1.68-1.2-2.55-1.2-.87-3.84-2.07-1.92-.9-3.21-1.74t-2.28-2.4q-.99-1.56-.99-3.84 0-.84.06-1.32.48-4.08 3.24-6.36 2.76-2.28 6.96-2.28 3.9 0 6.06 1.95 2.16 1.95 2.16 5.37 0 .9-.06 1.38v.18q-.12.6-.66.6h-4.02q-.6 0-.48-.6v-.42l.06-.54q0-1.44-.96-2.4t-2.58-.96q-1.74 0-2.94 1.14t-1.44 2.76q-.12 1.26.48 2.1.6.84 1.53 1.35.93.51 2.97 1.47 2.04 1.02 3.39 1.89 1.35.87 2.37 2.43t1.02 3.78q0 4.38-2.94 7.05t-7.74 2.67zm34.8-13.86q-.12.6-.66.6H343.9q-.18 0-.3.24l-.36 3.24q-.06.3-.06.84 0 1.8.99 2.94t2.61 1.14q1.62 0 2.85-1.02t1.77-2.64q.24-.48.66-.48l4.32.24q.3 0 .39.18.09.18.03.42-.84 3.9-3.6 6.09-2.76 2.19-7.02 2.19-4.08 0-6.39-2.13-2.31-2.13-2.31-5.85 0-.42.12-1.5l1.5-12.48q.54-4.26 3.54-6.9 3-2.64 7.44-2.64 4.08 0 6.39 2.16 2.31 2.16 2.31 5.82 0 .48-.12 1.56l-.96 7.98zm-8.22-12.54q-1.86 0-3.18 1.38t-1.62 3.54l-.42 3.18q0 .24.24.24h7.92q.12 0 .21-.06t.09-.18l.36-3.18q.06-.3.06-.84 0-1.86-.99-2.97t-2.67-1.11zm30.3-15.36q.12-.6.66-.6h4.44q.24 0 .39.18.15.18.09.42l-5.04 40.8q0 .24-.18.42t-.42.18h-4.44q-.54 0-.54-.6l.12-.96q.06-.12-.03-.18t-.21.06q-1.26 1.08-2.73 1.62t-2.85.54q-3.42 0-5.34-2.1t-1.92-5.64q0-.54.12-1.74l1.5-12.48q.54-4.44 3.12-6.99t6.36-2.55q1.38 0 2.73.54t2.31 1.62q.12.12.21.06t.09-.18l1.56-12.42zm-8.7 36.9q1.68 0 2.94-1.11t1.74-2.91l1.62-13.5q0-1.8-.99-2.91t-2.61-1.11q-1.86 0-3.21 1.38-1.35 1.38-1.65 3.54l-1.44 11.7q-.06.3-.06.84 0 1.8.99 2.94t2.67 1.14zm50.7-37.08q.3-.42.78-.42H427q.6 0 .48.6l-4.98 40.8q-.12.6-.66.6h-4.44q-.6 0-.48-.6l3.6-29.76q.06-.18-.03-.18t-.21.12l-6.9 10.74q-.24.42-.6.42-.3 0-.48-.42l-4.2-10.68q-.12-.12-.21-.12t-.09.18l-3.66 29.7q-.12.6-.66.6h-4.44q-.24 0-.39-.18-.15-.18-.09-.42l5.04-40.8q0-.24.18-.42t.42-.18h4.44q.48 0 .66.42l4.74 11.28q0 .06.12.06t.24-.06l7.38-11.28zm27.84 28.08q-.12.6-.66.6h-13.14q-.18 0-.3.24l-.36 3.24q-.06.3-.06.84 0 1.8.99 2.94t2.61 1.14q1.62 0 2.85-1.02t1.77-2.64q.24-.48.66-.48l4.32.24q.3 0 .39.18.09.18.03.42-.84 3.9-3.6 6.09-2.76 2.19-7.02 2.19-4.08 0-6.39-2.13-2.31-2.13-2.31-5.85 0-.42.12-1.5l1.5-12.48q.54-4.26 3.54-6.9 3-2.64 7.44-2.64 4.08 0 6.39 2.16 2.31 2.16 2.31 5.82 0 .48-.12 1.56l-.96 7.98zm-8.22-12.54q-1.86 0-3.18 1.38t-1.62 3.54l-.42 3.18q0 .24.24.24h7.92q.12 0 .21-.06t.09-.18l.36-3.18q.06-.3.06-.84 0-1.86-.99-2.97t-2.67-1.11zm30.3-15.36q.12-.6.66-.6h4.44q.24 0 .39.18.15.18.09.42l-5.04 40.8q0 .24-.18.42t-.42.18h-4.44q-.54 0-.54-.6l.12-.96q.06-.12-.03-.18t-.21.06q-1.26 1.08-2.73 1.62t-2.85.54q-3.42 0-5.34-2.1t-1.92-5.64q0-.54.12-1.74l1.5-12.48q.54-4.44 3.12-6.99t6.36-2.55q1.38 0 2.73.54t2.31 1.62q.12.12.21.06t.09-.18l1.56-12.42zM463 56.5q1.68 0 2.94-1.11t1.74-2.91l1.62-13.5q0-1.8-.99-2.91t-2.61-1.11q-1.86 0-3.21 1.38-1.35 1.38-1.65 3.54l-1.44 11.7q-.06.3-.06.84 0 1.8.99 2.94T463 56.5zm22.74-30.84q-1.5 0-2.4-.9-.9-.9-.9-2.34 0-1.92 1.23-3.18 1.23-1.26 2.97-1.26 1.5 0 2.4.9.9.9.9 2.4 0 1.86-1.23 3.12t-2.97 1.26zM479.26 61q-.3 0-.45-.18-.15-.18-.09-.42l3.6-29.34q.12-.6.66-.6h4.44q.6 0 .48.6l-3.6 29.34q-.12.6-.66.6h-4.38zm28.44-29.94q.12-.6.66-.6h4.44q.6 0 .48.6l-3.6 29.34q0 .24-.18.42t-.42.18h-4.44q-.54 0-.54-.6l.24-1.74q0-.18-.09-.18t-.15.12q-2.1 2.82-6 2.82-3.12 0-4.98-1.77-1.86-1.77-1.86-5.37 0-.54.12-1.74l2.64-21.48q.06-.24.24-.42t.42-.18h4.44q.54 0 .54.6l-2.52 20.22q-.06.48-.06 1.26 0 3.9 3.42 3.9 1.92 0 3.21-1.47t1.59-4.05l2.4-19.86zm36.78-1.02q3.12 0 4.77 2.04 1.65 2.04 1.65 5.7 0 1.14-.18 2.4l-2.46 20.22q-.06.24-.24.42t-.42.18h-4.38q-.54 0-.54-.6l2.46-19.8q.06-.42.06-1.26 0-2.04-.87-3.18-.87-1.14-2.37-1.14-1.86 0-3.15 1.47-1.29 1.47-1.59 4.05l-2.46 19.86q0 .24-.18.42t-.42.18h-4.38q-.54 0-.54-.6l2.46-19.8q.06-.42.06-1.26 0-2.04-.87-3.18-.87-1.14-2.37-1.14-1.86 0-3.15 1.47-1.29 1.47-1.59 4.05l-2.46 19.86q0 .24-.18.42t-.48.18h-4.32q-.54 0-.54-.6l3.6-29.34q.12-.6.66-.6h4.38q.6 0 .48.6l-.18 1.5q0 .12.09.18t.21-.06q1.38-1.38 2.94-2.01 1.56-.63 3.06-.63 4.5 0 5.88 4.02.06.12.18.09t.18-.27q1.38-2.04 3.33-2.94 1.95-.9 3.87-.9zM555.16 61q-.24 0-.39-.18-.15-.18-.09-.42l4.98-40.8q.06-.24.24-.42t.42-.18h4.44q.54 0 .54.6l-5.04 40.8q-.12.6-.66.6h-4.44zm26.52-26.94q-.12.6-.66.6h-4.08q-.24 0-.24.24l-2.1 16.86q-.06.42-.06 1.2 0 1.74.72 2.4.72.66 2.22.6h.54q.6 0 .48.6l-.42 3.84q-.06.24-.24.42t-.42.18h-1.8q-3.36 0-5.07-1.17-1.71-1.17-1.71-4.35 0-.48.12-1.68l2.34-18.9q0-.24-.24-.24h-2.22q-.3 0-.45-.18-.15-.18-.09-.42l.36-3q.12-.6.66-.6h2.28q.24 0 .24-.24l.84-6.78q.12-.6.66-.6h4.26q.6 0 .48.6l-.78 6.78q-.06.06 0 .15t.18.09h4.08q.6 0 .48.6l-.36 3zm18.18-3q.06-.24.24-.42t.42-.18h4.44q.54 0 .54.6l-3.66 29.34q0 .24-.18.42t-.42.18h-4.44q-.54 0-.54-.6l.3-2.1q0-.18-.09-.21t-.21.09q-1.14 1.68-2.76 2.49-1.62.81-3.42.81-3.3 0-5.04-2.01-1.74-2.01-1.74-5.55 0-.54.12-1.98l1.5-12.42q.54-4.44 2.91-6.99t6.15-2.55q1.74 0 3.15.81t2.19 2.49q.12.12.21.09t.09-.21l.24-2.1zM592.6 56.5q1.86 0 3.18-1.38t1.56-3.54l1.44-11.7q.06-.3.06-.84 0-1.86-.96-2.97t-2.58-1.11q-1.86 0-3.18 1.38t-1.62 3.54l-1.44 11.7q-.06.3-.06.84 0 1.8.99 2.94t2.61 1.14zm15.66 4.5q-.54 0-.54-.6l5.04-40.8q.12-.6.66-.6h4.44q.24 0 .39.18.15.18.09.42l-4.98 40.8q-.06.24-.24.42t-.42.18h-4.44zm18.24-35.34q-1.5 0-2.4-.9-.9-.9-.9-2.34 0-1.92 1.23-3.18 1.23-1.26 2.97-1.26 1.5 0 2.4.9.9.9.9 2.4 0 1.86-1.23 3.12t-2.97 1.26zM620.02 61q-.3 0-.45-.18-.15-.18-.09-.42l3.6-29.34q.12-.6.66-.6h4.44q.6 0 .48.6l-3.6 29.34q-.12.6-.66.6h-4.38zm20.52.48q-4.08 0-6.39-2.13-2.31-2.13-2.31-5.85 0-.48.12-1.56l1.5-12.42q.54-4.26 3.54-6.9 3-2.64 7.44-2.64 4.08 0 6.45 2.16t2.37 5.58q0 .78-.06 1.14l-.12.78q-.12.6-.66.6l-4.44.18q-.54 0-.54-.6l.12-.6q.18-1.74-.87-3t-2.85-1.26q-1.86 0-3.18 1.38t-1.62 3.54l-1.44 11.7q-.06.3-.06.84 0 1.86.96 2.97t2.64 1.11q1.86 0 3.21-1.26 1.35-1.26 1.59-3l.06-.6q.12-.6.66-.6l4.44.06q.6 0 .48.6l-.12.9q-.48 3.9-3.45 6.39-2.97 2.49-7.47 2.49z"/></svg>