<svg viewBox="0 0 756 80" xmlns="http://www.w3.org/2000/svg"><path d="M41.94 49.06q-.6 5.76-4.41 8.85T28.32 61H16.56q-.3 0-.48-.21t-.12-.51l4.98-40.56q.06-.3.27-.51.21-.21.51-.21h10.26q5.46 0 8.55 2.4 3.09 2.4 3.09 7.2 0 1.32-.12 2.04-.72 5.76-4.68 8.46-.3.18-.12.36 3.36 2.76 3.36 7.68 0 .6-.12 1.92zm-12-21.54q-.24 0-.36.3l-.9 7.68q-.12.3.24.3H30q1.86 0 2.91-1.35t1.05-3.75q0-1.56-.75-2.37t-2.19-.81h-1.08zm-1.32 24.9q1.68 0 2.79-1.5t1.11-4.2q0-1.74-.72-2.76-.72-1.02-1.98-1.02h-1.8q-.3 0-.3.3l-1.08 8.88q-.12.3.24.3h1.74zM60.36 30.7q.06-.3.27-.51.21-.21.51-.21h8.28q.3 0 .48.21t.12.51l-3.66 29.58q-.06.3-.27.51-.21.21-.51.21H57.3q-.3 0-.48-.21t-.12-.51l.24-1.56q0-.24-.12-.24t-.24.18q-2.04 2.82-5.64 2.82-6.9 0-6.9-7.74 0-1.32.18-2.64l1.38-11.22q1.32-10.38 9.24-10.38 3.6 0 4.98 2.88.06.24.18.21t.18-.27l.18-1.62zm-4.8 22.26q.96 0 1.62-.72.66-.72.78-1.92l1.14-9.66q.06-.18.06-.6 0-.9-.48-1.47t-1.26-.57q-.84 0-1.47.72t-.75 1.92L54 50.32q-.12 1.2.3 1.92t1.26.72zm32.64-23.4q1.38 0 2.4.66.36.36.24.9l-2.4 8.46q-.18.66-.84.48-.84-.24-1.44-.24-1.02 0-1.92.36-1.08.36-1.89 1.5-.81 1.14-.99 2.52l-1.98 16.02q-.06.3-.27.51-.21.21-.51.21h-8.28q-.3 0-.48-.21t-.12-.51l3.66-29.52q.06-.3.27-.51.21-.21.51-.21h8.28q.3 0 .48.21t.12.51l-.24 1.92q-.06.24.03.27.09.03.21-.15 1.92-3.18 5.16-3.18zM89.76 61q-.3 0-.48-.21t-.12-.51l4.98-40.56q.06-.3.27-.51.21-.21.51-.21h8.28q.3 0 .48.21t.12.51l-4.98 40.56q-.06.3-.27.51-.21.21-.51.21h-8.28zm23.64.48q-5.04 0-7.83-2.31t-2.79-6.45q0-.54.12-1.62l1.38-11.22q.6-4.74 4.05-7.56 3.45-2.82 8.97-2.82 5.04 0 7.83 2.37t2.79 6.45q0 .48-.12 1.56l-1.38 11.22q-.6 4.86-4.02 7.62-3.42 2.76-9 2.76zm1.02-8.58q.96 0 1.62-.72.66-.72.84-1.92l1.14-9.6.06-.54q0-.96-.48-1.53-.48-.57-1.32-.57-.96 0-1.62.72-.66.72-.78 1.92l-1.2 9.6q-.12 1.2.36 1.92t1.38.72zm19.14 8.1q-.72 0-.72-.66L130.2 30.7v-.12q0-.66.72-.66h7.86q.66 0 .66.66l.06 15q0 .18.15.18t.21-.18l3.84-15q.06-.66.78-.66h7.02q.66 0 .66.66l.24 15q.06.24.21.21t.15-.21l3.78-15q.18-.66.78-.66l7.74.12q.72 0 .48.78l-9.84 29.52q-.18.66-.84.66h-8.04q-.72 0-.72-.66l-.3-12.84q-.06-.24-.18-.24t-.18.24l-3.36 12.84q-.18.66-.84.66h-7.68zm54.36.48q-5.04 0-7.92-2.76t-2.88-7.56q0-.66.12-1.98l2.28-18.42q.66-5.64 4.38-8.94 3.72-3.3 9.24-3.3 5.04 0 7.95 2.73t2.91 7.47q0 .6-.12 2.04l-.06.54q-.06.3-.27.51-.21.21-.51.21l-8.34.36q-.66 0-.6-.72l.24-1.62q.12-1.38-.48-2.19t-1.74-.81q-1.14 0-1.92.81t-.96 2.19l-2.46 19.98q-.12 1.32.45 2.13.57.81 1.71.81 1.14 0 1.95-.81t.99-2.13l.18-1.74q.06-.3.27-.51.21-.21.51-.21l8.22.36q.66 0 .66.72l-.12.54q-.66 5.58-4.41 8.94-3.75 3.36-9.27 3.36zm26.64 0q-5.04 0-7.83-2.31t-2.79-6.45q0-.54.12-1.62l1.38-11.22q.6-4.74 4.05-7.56 3.45-2.82 8.97-2.82 5.04 0 7.83 2.37t2.79 6.45q0 .48-.12 1.56l-1.38 11.22q-.6 4.86-4.02 7.62-3.42 2.76-9 2.76zm1.02-8.58q.96 0 1.62-.72.66-.72.84-1.92l1.14-9.6.06-.54q0-.96-.48-1.53-.48-.57-1.32-.57-.96 0-1.62.72-.66.72-.78 1.92l-1.2 9.6q-.12 1.2.36 1.92t1.38.72zm32.88-23.4q3.54 0 5.28 2.07 1.74 2.07 1.74 5.91 0 1.2-.18 2.58l-2.52 20.22q-.06.3-.27.51-.21.21-.51.21h-8.28q-.3 0-.48-.21t-.12-.51l2.4-19.56q.06-.3.06-.78 0-1.92-1.56-1.92-.96 0-1.59.72-.63.72-.81 2.04l-2.4 19.5q-.06.3-.27.51-.21.21-.51.21h-8.28q-.3 0-.48-.21t-.12-.51l3.66-29.58q.06-.3.27-.51.21-.21.51-.21h8.28q.3 0 .48.21t.12.51l-.18 1.2q0 .12.12.12.18 0 .54-.36 2.04-2.16 5.1-2.16zm25.86-9.78q.06-.3.27-.51.21-.21.51-.21h8.28q.3 0 .48.21t.12.51L279 60.28q-.06.3-.27.51-.21.21-.51.21h-8.28q-.3 0-.48-.21t-.12-.51l.18-1.2q0-.18-.12-.21t-.24.09q-2.16 2.52-5.58 2.52-6.9 0-6.9-7.74 0-1.32.18-2.64l1.38-11.22q1.32-10.38 9.24-10.38 3.42 0 4.98 2.64.12.18.24.15t.12-.21l1.5-12.36zm-6.12 33.24q.96 0 1.62-.72.66-.72.78-1.92l1.14-9.66q.06-.18.06-.6 0-.9-.48-1.47t-1.26-.57q-.84 0-1.47.72t-.75 1.92l-1.2 9.66q-.12 1.2.3 1.92t1.26.72zm38.76-5.46q0 .3-.24.51-.24.21-.54.21h-12.66q-.24 0-.36.3l-.18 1.8q-.12 1.2.33 1.92t1.35.72q1.5 0 2.34-2.1.18-.66.84-.66l7.92.48q.3 0 .48.21t.12.57q-.9 5.04-4.05 7.53t-8.67 2.49q-5.04 0-7.8-2.31t-2.76-6.45q0-.54.12-1.62l1.38-11.22q.6-4.68 4.05-7.53 3.45-2.85 8.91-2.85 4.98 0 7.74 2.37t2.76 6.45q0 .48-.12 1.56l-.96 7.62zm-10.44-9.48q-.9 0-1.56.75t-.78 1.89l-.24 1.86q-.12.3.24.3h3.42q.24 0 .36-.3l.18-1.86q.06-.18.06-.6 0-.9-.45-1.47t-1.23-.57zm30.72-8.52q3.54 0 5.28 2.07 1.74 2.07 1.74 5.91 0 1.2-.18 2.58l-2.52 20.22q-.06.3-.27.51-.21.21-.51.21h-8.28q-.3 0-.48-.21t-.12-.51l2.4-19.56q.06-.3.06-.78 0-1.92-1.56-1.92-.96 0-1.59.72-.63.72-.81 2.04l-2.4 19.5q-.06.3-.27.51-.21.21-.51.21h-8.28q-.3 0-.48-.21t-.12-.51L312 30.7q.06-.3.27-.51.21-.21.51-.21h8.28q.3 0 .48.21t.12.51l-.18 1.2q0 .12.12.12.18 0 .54-.36 2.04-2.16 5.1-2.16zm18.36 31.98q-4.86 0-7.68-2.25-2.82-2.25-2.82-6.03 0-.78.06-1.2l.06-.36q.06-.3.27-.51.21-.21.51-.21h7.8q.3 0 .48.21t.12.51v.12q-.12 1.08.51 1.71.63.63 1.53.63t1.44-.57q.54-.57.54-1.47 0-.96-.96-1.53-.96-.57-2.88-1.23l-1.14-.36q-2.7-.96-4.56-2.91-1.86-1.95-1.86-5.31 0-.9.06-1.38.6-4.56 3.9-7.2 3.3-2.64 8.22-2.64 4.62 0 7.29 2.4t2.67 6.42q0 .48-.12 1.56-.12.66-.78.66h-7.56q-.3 0-.48-.21t-.12-.51v-.48q.12-.96-.33-1.53-.45-.57-1.29-.57-1.02 0-1.59.75-.57.75-.57 1.65 0 1.14 1.11 1.86 1.11.72 2.91 1.32 3.54 1.2 5.7 2.97 2.16 1.77 2.16 5.13 0 4.8-3.51 7.68t-9.09 2.88zm38.58-13.98q0 .3-.24.51-.24.21-.54.21h-12.66q-.24 0-.36.3l-.18 1.8q-.12 1.2.33 1.92t1.35.72q1.5 0 2.34-2.1.18-.66.84-.66l7.92.48q.3 0 .48.21t.12.57q-.9 5.04-4.05 7.53t-8.67 2.49q-5.04 0-7.8-2.31t-2.76-6.45q0-.54.12-1.62l1.38-11.22q.6-4.68 4.05-7.53 3.45-2.85 8.91-2.85 4.98 0 7.74 2.37t2.76 6.45q0 .48-.12 1.56l-.96 7.62zm-10.44-9.48q-.9 0-1.56.75t-.78 1.89l-.24 1.86q-.12.3.24.3h3.42q.24 0 .36-.3l.18-1.86q.06-.18.06-.6 0-.9-.45-1.47t-1.23-.57zm30.12-18.3q.06-.3.27-.51.21-.21.51-.21h8.28q.3 0 .48.21t.12.51l-4.98 40.56q-.06.3-.27.51-.21.21-.51.21h-8.28q-.3 0-.48-.21t-.12-.51l.18-1.2q0-.18-.12-.21t-.24.09q-2.16 2.52-5.58 2.52-6.9 0-6.9-7.74 0-1.32.18-2.64l1.38-11.22q1.32-10.38 9.24-10.38 3.42 0 4.98 2.64.12.18.24.15t.12-.21l1.5-12.36zm-6.12 33.24q.96 0 1.62-.72.66-.72.78-1.92l1.14-9.66q.06-.18.06-.6 0-.9-.48-1.47t-1.26-.57q-.84 0-1.47.72t-.75 1.92l-1.2 9.66q-.12 1.2.3 1.92t1.26.72zm52.62-26.16q-.06.3-.27.51-.21.21-.51.21h-11.7q-.24 0-.36.3l-.9 7.56q0 .3.24.3h6.42q.3 0 .48.21t.12.51l-.9 7.14q0 .3-.24.51-.24.21-.54.21h-6.36q-.24 0-.36.3l-.9 7.62q-.12.3.24.3h11.7q.3 0 .48.21t.12.51l-.84 7.08q-.06.3-.3.51-.24.21-.54.21H424.5q-.3 0-.48-.21t-.12-.51l4.98-40.56q.06-.3.27-.51.21-.21.51-.21h20.94q.66 0 .66.72l-.9 7.08zm-1.5 34.2q-.42 0-.54-.21-.12-.21.12-.63l8.28-14.52q.12-.18.06-.36l-4.74-14.46q-.06-.12-.06-.3 0-.54.66-.54h9q.66 0 .72.54l1.44 5.52q.12.42.36 0l2.76-5.52q.3-.54.9-.54h8.94q.42 0 .54.21.12.21-.12.63l-8.28 14.46q-.12.18-.06.36l4.74 14.52q.06.12.06.3 0 .54-.72.54h-8.94q-.6 0-.72-.54l-1.44-5.7q0-.18-.12-.18t-.18.18l-2.82 5.7q-.24.54-.9.54h-8.94zm45.06-24.84q-.06.3-.27.51-.21.21-.51.21h-3q-.3 0-.3.3l-1.56 12.84-.06.66q0 1.02.51 1.41.51.39 1.47.33h.24q.66 0 .66.72l-.9 7.14q-.06.3-.27.51-.21.21-.51.21h-2.64q-4.14 0-6.27-1.17t-2.13-4.41q0-.48.12-1.44l2.1-16.8q0-.3-.3-.3h-1.86q-.3 0-.48-.21t-.12-.51l.66-5.46q.06-.3.27-.51.21-.21.51-.21h1.92q.12 0 .21-.09t.09-.21l.84-6.66q0-.3.24-.51.24-.21.54-.21h7.86q.3 0 .48.21t.12.51l-.84 6.66q0 .3.24.3h3q.3 0 .48.21t.12.51l-.66 5.46zm18.06-6.6q1.38 0 2.4.66.36.36.24.9l-2.4 8.46q-.18.66-.84.48-.84-.24-1.44-.24-1.02 0-1.92.36-1.08.36-1.89 1.5-.81 1.14-.99 2.52l-1.98 16.02q-.06.3-.27.51-.21.21-.51.21h-8.28q-.3 0-.48-.21t-.12-.51l3.66-29.52q.06-.3.27-.51.21-.21.51-.21h8.28q.3 0 .48.21t.12.51l-.24 1.92q-.06.24.03.27.09.03.21-.15 1.92-3.18 5.16-3.18zm17.16 1.14q.06-.3.27-.51.21-.21.51-.21h8.28q.3 0 .48.21t.12.51l-3.66 29.58q-.06.3-.27.51-.21.21-.51.21h-8.28q-.3 0-.48-.21t-.12-.51l.24-1.56q0-.24-.12-.24t-.24.18q-2.04 2.82-5.64 2.82-6.9 0-6.9-7.74 0-1.32.18-2.64l1.38-11.22q1.32-10.38 9.24-10.38 3.6 0 4.98 2.88.06.24.18.21t.18-.27l.18-1.62zm-4.8 22.26q.96 0 1.62-.72.66-.72.78-1.92l1.14-9.66q.06-.18.06-.6 0-.9-.48-1.47t-1.26-.57q-.84 0-1.47.72t-.75 1.92l-1.2 9.66q-.12 1.2.3 1.92t1.26.72zm40.5-3.9q-.6 5.76-4.41 8.85T551.22 61h-11.76q-.3 0-.48-.21t-.12-.51l4.98-40.56q.06-.3.27-.51.21-.21.51-.21h10.26q5.46 0 8.55 2.4 3.09 2.4 3.09 7.2 0 1.32-.12 2.04-.72 5.76-4.68 8.46-.3.18-.12.36 3.36 2.76 3.36 7.68 0 .6-.12 1.92zm-12-21.54q-.24 0-.36.3l-.9 7.68q-.12.3.24.3h1.08q1.86 0 2.91-1.35t1.05-3.75q0-1.56-.75-2.37t-2.19-.81h-1.08zm-1.32 24.9q1.68 0 2.79-1.5t1.11-4.2q0-1.74-.72-2.76-.72-1.02-1.98-1.02h-1.8q-.3 0-.3.3l-1.08 8.88q-.12.3.24.3h1.74zm26.1 9.06q-5.04 0-7.83-2.31T567 52.72q0-.54.12-1.62l1.38-11.22q.6-4.74 4.05-7.56 3.45-2.82 8.97-2.82 5.04 0 7.83 2.37t2.79 6.45q0 .48-.12 1.56l-1.38 11.22q-.6 4.86-4.02 7.62-3.42 2.76-9 2.76zm1.02-8.58q.96 0 1.62-.72.66-.72.84-1.92l1.14-9.6.06-.54q0-.96-.48-1.53-.48-.57-1.32-.57-.96 0-1.62.72-.66.72-.78 1.92l-1.2 9.6q-.12 1.2.36 1.92t1.38.72zM593.1 61q-.3 0-.48-.21t-.12-.51l4.98-40.56q.06-.3.27-.51.21-.21.51-.21h8.28q.3 0 .48.21t.12.51l-4.98 40.56q-.06.3-.27.51-.21.21-.51.21h-8.28zm30.6-41.28q.06-.3.27-.51.21-.21.51-.21h8.28q.3 0 .48.21t.12.51l-4.98 40.56q-.06.3-.27.51-.21.21-.51.21h-8.28q-.3 0-.48-.21t-.12-.51l.18-1.2q0-.18-.12-.21t-.24.09q-2.16 2.52-5.58 2.52-6.9 0-6.9-7.74 0-1.32.18-2.64l1.38-11.22q1.32-10.38 9.24-10.38 3.42 0 4.98 2.64.12.18.24.15t.12-.21l1.5-12.36zm-6.12 33.24q.96 0 1.62-.72.66-.72.78-1.92l1.14-9.66q.06-.18.06-.6 0-.9-.48-1.47t-1.26-.57q-.84 0-1.47.72t-.75 1.92l-1.2 9.66q-.12 1.2.3 1.92t1.26.72zM632.7 61q-.3 0-.48-.21t-.12-.51l4.98-40.56q.06-.3.27-.51.21-.21.51-.21h8.28q.3 0 .48.21t.12.51l-4.98 40.56q-.06.3-.27.51-.21.21-.51.21h-8.28zm30.54-24.84q-.06.3-.27.51-.21.21-.51.21h-3q-.3 0-.3.3l-1.56 12.84-.06.66q0 1.02.51 1.41.51.39 1.47.33h.24q.66 0 .66.72l-.9 7.14q-.06.3-.27.51-.21.21-.51.21h-2.64q-4.14 0-6.27-1.17t-2.13-4.41q0-.48.12-1.44l2.1-16.8q0-.3-.3-.3h-1.86q-.3 0-.48-.21t-.12-.51l.66-5.46q.06-.3.27-.51.21-.21.51-.21h1.92q.12 0 .21-.09t.09-.21l.84-6.66q0-.3.24-.51.24-.21.54-.21h7.86q.3 0 .48.21t.12.51l-.84 6.66q0 .3.24.3h3q.3 0 .48.21t.12.51l-.66 5.46zm16.56-5.46q.06-.3.27-.51.21-.21.51-.21h8.28q.3 0 .48.21t.12.51l-3.66 29.58q-.06.3-.27.51-.21.21-.51.21h-8.28q-.3 0-.48-.21t-.12-.51l.24-1.56q0-.24-.12-.24t-.24.18q-2.04 2.82-5.64 2.82-6.9 0-6.9-7.74 0-1.32.18-2.64l1.38-11.22q1.32-10.38 9.24-10.38 3.6 0 4.98 2.88.06.24.18.21t.18-.27l.18-1.62zM675 52.96q.96 0 1.62-.72.66-.72.78-1.92l1.14-9.66q.06-.18.06-.6 0-.9-.48-1.47t-1.26-.57q-.84 0-1.47.72t-.75 1.92l-1.2 9.66q-.12 1.2.3 1.92t1.26.72zM689.64 61q-.3 0-.48-.21t-.12-.51l4.98-40.56q.06-.3.27-.51.21-.21.51-.21h8.28q.3 0 .48.21t.12.51l-4.98 40.56q-.06.3-.27.51-.21.21-.51.21h-8.28zm21.06-33.78q-1.98 0-3.18-1.26-1.2-1.26-1.2-3.24 0-2.58 1.65-4.26 1.65-1.68 4.05-1.68 1.98 0 3.21 1.2t1.23 3.18q0 2.58-1.65 4.32-1.65 1.74-4.11 1.74zM702.54 61q-.3 0-.48-.21t-.12-.51l3.66-29.58q.06-.3.27-.51.21-.21.51-.21h8.28q.3 0 .48.21t.12.51l-3.66 29.58q-.06.3-.27.51-.21.21-.51.21h-8.28zm23.64.48q-5.04 0-7.8-2.31t-2.76-6.45q0-.54.12-1.62l1.38-11.22q.6-4.68 4.05-7.53 3.45-2.85 8.91-2.85 4.98 0 7.74 2.37t2.76 6.33q0 .42-.12 1.5l-.12 1.32q-.06.3-.27.51-.21.21-.51.21l-8.34.36q-.66 0-.6-.72l.12-.9q.12-1.02-.36-1.74t-1.32-.72q-.9 0-1.56.75t-.78 1.89l-1.2 9.66q-.12 1.2.33 1.92t1.35.72q.9 0 1.53-.72t.75-1.8l.12-.9q.06-.3.27-.51.21-.21.51-.21l8.28.06q.3 0 .48.21t.12.51l-.18 1.62q-.6 4.8-3.99 7.53-3.39 2.73-8.91 2.73z"/></svg>