<svg viewBox="0 0 569 80" xmlns="http://www.w3.org/2000/svg"><path d="M35.84 43.6q.06 5.4-2.88 8.4t-7.86 3h-9.18q-.6 0-.6-.6V13.6q0-.6.6-.6h8.64q5.16 0 8.1 2.85 2.94 2.85 2.94 8.13 0 6.72-4.98 9.18-.12.06-.12.12t.06.12q5.28 3.06 5.28 10.2zM19.82 16.72q-.24 0-.24.24v14.46q0 .24.24.24h4.74q3.24 0 5.04-1.92 1.8-1.92 1.8-5.4 0-3.6-1.8-5.61-1.8-2.01-5.04-2.01h-4.74zm4.98 34.5q3.18 0 4.98-2.13 1.8-2.13 1.8-5.97 0-3.9-1.8-6.06-1.8-2.16-4.98-2.16h-4.98q-.24 0-.24.24v15.84q0 .24.24.24h4.98zm25.68-27.06q4.2 0 6.72 2.73 2.52 2.73 2.52 7.29V54.4q0 .6-.6.6h-3.06q-.6 0-.6-.6v-1.8q0-.12-.09-.15t-.21.09q-2.22 2.94-6.66 2.94-3.3 0-5.73-1.89-2.43-1.89-2.43-6.69 0-5.1 2.94-7.47t7.74-2.37h4.2q.24 0 .24-.24v-2.34q0-3-1.38-4.8-1.38-1.8-3.72-1.8-1.8 0-3.09 1.2-1.29 1.2-1.53 3.06 0 .6-.6.6l-3.36-.06q-.3 0-.45-.18-.15-.18-.09-.42.3-3.54 2.88-5.73 2.58-2.19 6.36-2.19zm-1.08 27.6q2.46 0 4.26-1.59 1.8-1.59 1.8-4.41v-5.04q0-.24-.24-.24h-4.26q-2.88 0-4.56 1.53-1.68 1.53-1.68 4.53 0 2.64 1.29 3.93t3.39 1.29zm27.24-27.42q1.5 0 2.58.66.42.24.3.78l-.72 3.12q-.06.54-.72.36-.72-.36-1.8-.36-.48 0-.72.06-2.16.12-3.54 2.25t-1.38 5.19v18q0 .6-.6.6h-3.06q-.6 0-.6-.6V25.24q0-.6.6-.6h3.06q.6 0 .6.6v3.6q0 .18.09.18t.21-.12q1.74-4.56 5.7-4.56zM84.14 55q-.6 0-.6-.6V13.6q0-.6.6-.6h3.06q.6 0 .6.6v40.8q0 .6-.6.6h-3.06zm19.38.48q-4.32 0-6.87-2.52T94.1 46.3V33.4q0-4.08 2.58-6.66t6.84-2.58q4.32 0 6.9 2.58T113 33.4v12.9q0 4.14-2.58 6.66-2.58 2.52-6.9 2.52zm0-3.78q2.28 0 3.75-1.56 1.47-1.56 1.47-4.14V33.64q0-2.58-1.47-4.17-1.47-1.59-3.75-1.59-2.28 0-3.72 1.59-1.44 1.59-1.44 4.17V46q0 2.58 1.44 4.14 1.44 1.56 3.72 1.56zm20.1 3.3q-.54 0-.66-.54L116.6 25.3v-.12q0-.54.54-.54h2.94q.6 0 .66.54l4.32 22.92q.06.12.12.12t.12-.12l4.44-22.92q.12-.54.66-.54h2.7q.6 0 .66.54l4.44 22.92q.06.12.12.12t.12-.12l4.44-22.92q.12-.54.66-.54l2.88.06q.66 0 .54.66l-6.36 29.1q-.06.54-.66.54h-3.06q-.54 0-.66-.54l-4.44-21.96q-.06-.18-.12-.18t-.12.18l-4.26 21.96q-.06.54-.66.54h-3zm50.28.48q-4.62 0-7.41-2.82t-2.79-7.56V22.84q0-4.68 2.79-7.5 2.79-2.82 7.41-2.82 4.68 0 7.47 2.79t2.79 7.53v1.02q0 .6-.6.6l-3.12.18q-.6 0-.6-.6v-1.5q0-2.82-1.62-4.56-1.62-1.74-4.32-1.74-2.64 0-4.29 1.74t-1.65 4.56v22.92q0 2.82 1.65 4.56 1.65 1.74 4.29 1.74 2.7 0 4.32-1.74t1.62-4.56v-1.5q0-.6.6-.6l3.12.18q.6 0 .6.6v.96q0 4.74-2.82 7.56-2.82 2.82-7.44 2.82zm24.96 0q-4.32 0-6.87-2.52t-2.55-6.66V33.4q0-4.08 2.58-6.66t6.84-2.58q4.32 0 6.9 2.58t2.58 6.66v12.9q0 4.14-2.58 6.66-2.58 2.52-6.9 2.52zm0-3.78q2.28 0 3.75-1.56 1.47-1.56 1.47-4.14V33.64q0-2.58-1.47-4.17-1.47-1.59-3.75-1.59-2.28 0-3.72 1.59-1.44 1.59-1.44 4.17V46q0 2.58 1.44 4.14 1.44 1.56 3.72 1.56zm26.94-27.48q3.66 0 5.67 2.52t2.01 7.02V54.4q0 .6-.6.6h-3.06q-.6 0-.6-.6V34.12q0-2.94-1.29-4.56-1.29-1.62-3.57-1.62-2.4 0-3.75 1.74t-1.35 4.74V54.4q0 .6-.6.6h-3.06q-.6 0-.6-.6V25.24q0-.6.6-.6h3.06q.6 0 .6.6v1.92q0 .12.12.18t.18-.12q1.08-1.5 2.73-2.25t3.51-.75zm28.44-10.62q0-.6.6-.6h3.06q.6 0 .6.6v40.8q0 .6-.6.6h-3.06q-.6 0-.6-.6v-1.32q0-.12-.09-.18t-.21.06q-2.28 2.52-5.76 2.52-3.84 0-6.12-2.55-2.28-2.55-2.28-6.63V33.34q0-4.2 2.28-6.69t6.12-2.49q3.54 0 5.76 2.58.12.12.21.06t.09-.18V13.6zm-5.04 38.16q2.22 0 3.63-1.59 1.41-1.59 1.41-4.11V33.64q0-2.58-1.41-4.17-1.41-1.59-3.63-1.59-2.28 0-3.75 1.59-1.47 1.59-1.47 4.17v12.42q0 2.52 1.47 4.11 1.47 1.59 3.75 1.59zm34.74-10.92q0 .6-.6.6h-13.68q-.24 0-.24.24v4.38q0 2.52 1.41 4.11 1.41 1.59 3.69 1.59 1.92 0 3.27-1.17t1.77-3.03q.18-.54.66-.54l3 .12q.24 0 .42.18t.12.48q-.48 3.54-2.91 5.61-2.43 2.07-6.33 2.07-4.26 0-6.81-2.52t-2.55-6.66V33.34q0-4.08 2.55-6.63t6.81-2.55q4.32 0 6.87 2.55t2.55 6.63v7.5zm-9.42-12.96q-2.28 0-3.69 1.59-1.41 1.59-1.41 4.17v4.02q0 .24.24.24h9.84q.24 0 .24-.24v-4.02q0-2.58-1.44-4.17-1.44-1.59-3.78-1.59zm26.52-3.66q3.66 0 5.67 2.52t2.01 7.02V54.4q0 .6-.6.6h-3.06q-.6 0-.6-.6V34.12q0-2.94-1.29-4.56-1.29-1.62-3.57-1.62-2.4 0-3.75 1.74t-1.35 4.74V54.4q0 .6-.6.6h-3.06q-.6 0-.6-.6V25.24q0-.6.6-.6h3.06q.6 0 .6.6v1.92q0 .12.12.18t.18-.12q1.08-1.5 2.73-2.25t3.51-.75zM323.6 55.3q-4.14 0-6.63-2.13t-2.49-5.67v-.42q0-.6.6-.6h2.88q.6 0 .6.6v.36q0 1.92 1.41 3.24 1.41 1.32 3.69 1.32 2.16 0 3.48-1.32 1.32-1.32 1.32-3.36 0-1.56-.84-2.61-.84-1.05-1.95-1.65-1.11-.6-3.33-1.56-2.34-.96-3.87-1.89-1.53-.93-2.64-2.64t-1.11-4.35q0-3.84 2.37-6.06 2.37-2.22 6.39-2.22 4.08 0 6.48 2.28 2.4 2.28 2.4 6.06v.18q0 .6-.6.6H329q-.6 0-.6-.6v-.36q0-2.04-1.35-3.36-1.35-1.32-3.51-1.32-2.16 0-3.45 1.35t-1.29 3.33q0 1.44.78 2.43.78.99 1.92 1.62 1.14.63 3.18 1.53 2.46 1.08 4.05 2.04 1.59.96 2.79 2.7 1.2 1.74 1.2 4.32 0 3.72-2.46 5.94t-6.66 2.22zm32.64-14.46q0 .6-.6.6h-13.68q-.24 0-.24.24v4.38q0 2.52 1.41 4.11 1.41 1.59 3.69 1.59 1.92 0 3.27-1.17t1.77-3.03q.18-.54.66-.54l3 .12q.24 0 .42.18t.12.48q-.48 3.54-2.91 5.61-2.43 2.07-6.33 2.07-4.26 0-6.81-2.52t-2.55-6.66V33.34q0-4.08 2.55-6.63t6.81-2.55q4.32 0 6.87 2.55t2.55 6.63v7.5zm-9.42-12.96q-2.28 0-3.69 1.59-1.41 1.59-1.41 4.17v4.02q0 .24.24.24h9.84q.24 0 .24-.24v-4.02q0-2.58-1.44-4.17-1.44-1.59-3.78-1.59zm29.52-14.28q0-.6.6-.6H380q.6 0 .6.6v40.8q0 .6-.6.6h-3.06q-.6 0-.6-.6v-1.32q0-.12-.09-.18t-.21.06q-2.28 2.52-5.76 2.52-3.84 0-6.12-2.55-2.28-2.55-2.28-6.63V33.34q0-4.2 2.28-6.69t6.12-2.49q3.54 0 5.76 2.58.12.12.21.06t.09-.18V13.6zm-5.04 38.16q2.22 0 3.63-1.59 1.41-1.59 1.41-4.11V33.64q0-2.58-1.41-4.17-1.41-1.59-3.63-1.59-2.28 0-3.75 1.59-1.47 1.59-1.47 4.17v12.42q0 2.52 1.47 4.11 1.47 1.59 3.75 1.59zM417.38 55q-.54 0-.72-.48l-6.12-18.54q-.06-.18-.24-.18h-5.22q-.24 0-.24.24V54.4q0 .6-.6.6h-3.06q-.6 0-.6-.6V13.6q0-.6.6-.6h9.9q4.38 0 7.08 3.21t2.7 8.37q0 3.9-1.68 6.72t-4.56 3.96q-.24.06-.18.3l6.54 18.78.06.24q0 .42-.54.42h-3.12zm-12.3-38.28q-.24 0-.24.24v15.18q0 .24.24.24h5.4q2.76 0 4.44-2.13 1.68-2.13 1.68-5.67t-1.68-5.7q-1.68-2.16-4.44-2.16h-5.4zm39.54 24.12q0 .6-.6.6h-13.68q-.24 0-.24.24v4.38q0 2.52 1.41 4.11 1.41 1.59 3.69 1.59 1.92 0 3.27-1.17t1.77-3.03q.18-.54.66-.54l3 .12q.24 0 .42.18t.12.48q-.48 3.54-2.91 5.61-2.43 2.07-6.33 2.07-4.26 0-6.81-2.52t-2.55-6.66V33.34q0-4.08 2.55-6.63t6.81-2.55q4.32 0 6.87 2.55t2.55 6.63v7.5zm-9.42-12.96q-2.28 0-3.69 1.59-1.41 1.59-1.41 4.17v4.02q0 .24.24.24h9.84q.24 0 .24-.24v-4.02q0-2.58-1.44-4.17-1.44-1.59-3.78-1.59zm29.52-2.64q0-.6.6-.6h3.06q.6 0 .6.6V54.4q0 6.42-2.97 9.75t-9.93 3.03q-.6-.06-.6-.66v-2.58q0-.6.6-.6 4.8.12 6.72-2.19t1.92-7.11v-1.8q0-.12-.09-.18t-.21.06q-1.02 1.5-2.61 2.28-1.59.78-3.39.78-3.78 0-5.97-2.52T450.26 46V33.34q0-4.2 2.19-6.69t5.97-2.49q1.8 0 3.39.75t2.61 2.25q.12.18.21.15t.09-.21v-1.86zm-5.04 26.22q2.22 0 3.63-1.59 1.41-1.59 1.41-4.11V33.64q0-2.58-1.41-4.17-1.41-1.59-3.63-1.59-2.28 0-3.72 1.59-1.44 1.59-1.44 4.17v12.12q0 2.52 1.44 4.11 1.44 1.59 3.72 1.59zm29.88-26.22q0-.6.6-.6h3.06q.6 0 .6.6V54.4q0 .6-.6.6h-3.06q-.6 0-.6-.6v-2.04q0-.18-.09-.18t-.21.12q-1.86 3.12-6 3.12-3.6 0-5.73-2.19-2.13-2.19-2.13-6.63V25.24q0-.6.6-.6h3.06q.6 0 .6.6v20.4q0 3 1.23 4.53 1.23 1.53 3.57 1.53 2.4 0 3.75-1.74t1.35-4.74V25.24zM501.38 55q-.6 0-.6-.6V13.6q0-.6.6-.6h3.06q.6 0 .6.6v40.8q0 .6-.6.6h-3.06zm19.5-30.84q4.2 0 6.72 2.73 2.52 2.73 2.52 7.29V54.4q0 .6-.6.6h-3.06q-.6 0-.6-.6v-1.8q0-.12-.09-.15t-.21.09q-2.22 2.94-6.66 2.94-3.3 0-5.73-1.89-2.43-1.89-2.43-6.69 0-5.1 2.94-7.47t7.74-2.37h4.2q.24 0 .24-.24v-2.34q0-3-1.38-4.8-1.38-1.8-3.72-1.8-1.8 0-3.09 1.2-1.29 1.2-1.53 3.06 0 .6-.6.6l-3.36-.06q-.3 0-.45-.18-.15-.18-.09-.42.3-3.54 2.88-5.73 2.58-2.19 6.36-2.19zm-1.08 27.6q2.46 0 4.26-1.59 1.8-1.59 1.8-4.41v-5.04q0-.24-.24-.24h-4.26q-2.88 0-4.56 1.53-1.68 1.53-1.68 4.53 0 2.64 1.29 3.93t3.39 1.29zm27.24-27.42q1.5 0 2.58.66.42.24.3.78l-.72 3.12q-.06.54-.72.36-.72-.36-1.8-.36-.48 0-.72.06-2.16.12-3.54 2.25t-1.38 5.19v18q0 .6-.6.6h-3.06q-.6 0-.6-.6V25.24q0-.6.6-.6h3.06q.6 0 .6.6v3.6q0 .18.09.18t.21-.12q1.74-4.56 5.7-4.56z"/></svg>