<svg viewBox="0 0 585 80" xmlns="http://www.w3.org/2000/svg"><path d="M42.08 48.18q0 5.7-3.66 8.76Q34.76 60 29.12 60H16.46q-.42 0-.66-.24-.24-.24-.24-.66V18.9q0-.42.24-.66.24-.24.66-.24h10.86q6.54 0 10.23 2.94 3.69 2.94 3.69 8.88 0 5.52-3.42 8.22-.3.24-.12.42 4.38 3.36 4.38 9.72zM27.2 27.66q-.36 0-.36.36v6q0 .36.36.36h.3q2.7 0 2.7-3.36t-2.7-3.36h-.3zm1.02 22.68q1.14 0 1.86-.99.72-.99.72-2.85t-.69-2.97q-.69-1.11-1.83-1.11H27.2q-.36 0-.36.36v7.2q0 .36.36.36h1.02zm28.74-22.02q3.84 0 6.81 1.26 2.97 1.26 4.59 3.54 1.62 2.28 1.62 5.28v20.7q0 .42-.24.66-.24.24-.66.24H59.6q-.42 0-.66-.24-.24-.24-.24-.66v-1.26q0-.24-.12-.27-.12-.03-.3.15-2.04 2.76-6.36 2.76-8.16 0-8.16-9.54 0-4.2 1.5-6.24t4.08-2.64q2.58-.6 6.96-.6h2.04q.36 0 .36-.36v-1.32q0-.78-.48-1.29t-1.26-.51q-1.02 0-1.44 1.08-.3.84-.96.84l-9.6-.12q-.9 0-.9-.84.3-4.98 3.81-7.8 3.51-2.82 9.09-2.82zm-.18 24.06q.72 0 1.32-.45.6-.45.6-1.17v-1.62q0-.36-.36-.36h-1.2q-.84 0-1.35.57-.51.57-.51 1.35 0 .78.45 1.23.45.45 1.05.45zm31.86-24q1.44 0 2.46.6.54.3.42 1.14l-1.5 9.42q-.06.48-.3.6t-.72 0q-.6-.18-1.38-.18-1.26 0-2.1.42-.84.42-1.35 1.35-.51.93-.51 1.89v15.42q0 .42-.24.66-.24.24-.66.24h-9.48q-.42 0-.66-.24-.24-.24-.24-.66V29.7q0-.42.24-.66.24-.24.66-.24h9.48q.42 0 .66.24.24.24.24.66v1.26q0 .24.12.3t.24-.18q1.5-2.7 4.62-2.7zM93.92 60q-.42 0-.66-.24-.24-.24-.24-.66V18.9q0-.42.24-.66.24-.24.66-.24h9.48q.42 0 .66.24.24.24.24.66v40.2q0 .42-.24.66-.24.24-.66.24h-9.48zm25.44.48q-6.12 0-9.45-2.79-3.33-2.79-3.33-7.89V39q0-4.86 3.39-7.77 3.39-2.91 9.39-2.91t9.36 2.91q3.36 2.91 3.36 7.77v10.8q0 5.1-3.3 7.89t-9.42 2.79zm0-9.66q.66 0 1.05-.54t.39-1.38v-9q0-.84-.39-1.38-.39-.54-1.05-.54t-1.08.54q-.42.54-.42 1.38v9q0 .84.42 1.38.42.54 1.08.54zM140.3 60q-.84 0-1.02-.78l-6.42-29.46v-.24q0-.72.78-.72h9q.9 0 .96.84l1.38 13.26q0 .18.18.18t.18-.18l1.5-13.26q.06-.84.96-.84h7.98q.9 0 .96.84l1.62 13.32q0 .12.18.12t.18-.12l1.38-13.32q.06-.84.9-.84l8.82.12q.96 0 .78.96l-6.3 29.34q-.18.78-1.02.78h-9.18q-.9 0-.96-.84l-1.44-10.32q-.06-.18-.18-.18t-.18.18l-1.32 10.32q-.06.84-.96.84h-8.76zm57.36.48q-5.94 0-9.54-3.48-3.6-3.48-3.6-9.3V30.18q0-5.82 3.57-9.24t9.57-3.42q5.94 0 9.54 3.42 3.6 3.42 3.6 9.24v.3q0 .42-.24.69-.24.27-.66.27l-9.48.3q-.9 0-.9-.84v-1.5q0-1.02-.51-1.62-.51-.6-1.35-.6-.84 0-1.35.6-.51.6-.51 1.62v19.26q0 1.02.51 1.59.51.57 1.35.57.84 0 1.35-.57.51-.57.51-1.59v-1.62q0-.84.9-.84l9.48.3q.42 0 .66.27.24.27.24.69v.24q0 3.84-1.65 6.75t-4.62 4.47q-2.97 1.56-6.87 1.56zm28.08 0q-6.12 0-9.45-2.79-3.33-2.79-3.33-7.89V39q0-4.86 3.39-7.77 3.39-2.91 9.39-2.91t9.36 2.91q3.36 2.91 3.36 7.77v10.8q0 5.1-3.3 7.89t-9.42 2.79zm0-9.66q.66 0 1.05-.54t.39-1.38v-9q0-.84-.39-1.38-.39-.54-1.05-.54t-1.08.54q-.42.54-.42 1.38v9q0 .84.42 1.38.42.54 1.08.54zm31.8-22.5q8.52 0 8.52 10.8V59.1q0 .42-.24.66-.24.24-.66.24h-9.48q-.42 0-.66-.24-.24-.24-.24-.66V39.9q0-1.92-1.26-1.92-1.38 0-1.38 1.92v19.2q0 .42-.24.66-.24.24-.66.24h-9.48q-.42 0-.66-.24-.24-.24-.24-.66V29.7q0-.42.24-.66.24-.24.66-.24h9.48q.42 0 .66.24.24.24.24.66v.9q0 .12.12.12.3 0 .72-.54 1.74-1.86 4.56-1.86zm24.72-9.42q0-.42.24-.66.24-.24.66-.24h9.48q.42 0 .66.24.24.24.24.66v40.2q0 .42-.24.66-.24.24-.66.24h-9.48q-.42 0-.66-.24-.24-.24-.24-.66v-1.2q0-.24-.15-.27-.15-.03-.27.21-1.8 2.64-5.28 2.64-4.32 0-6.27-2.76-1.95-2.76-1.95-7.92V39q0-5.34 1.98-8.01t6.24-2.67q3.54 0 5.28 2.7.12.24.27.18.15-.06.15-.3v-12zm-1.38 31.92q.6 0 .99-.54t.39-1.38v-9q0-.84-.39-1.38-.39-.54-.99-.54t-.93.54q-.33.54-.33 1.38v9q0 .84.33 1.38.33.54.93.54zm40.32-4.5q0 .42-.24.66-.24.24-.66.24h-12.72q-.36 0-.36.36v1.32q0 .84.39 1.38.39.54.99.54t.93-.42q.33-.42.45-1.08.3-.84 1.02-.78l9.18.6q.9.12.84.96-.3 5.28-3.33 7.83-3.03 2.55-9.09 2.55-6 0-9.33-2.79t-3.33-7.89V39q0-4.86 3.36-7.77 3.36-2.91 9.3-2.91 5.94 0 9.27 2.91 3.33 2.91 3.33 7.77v7.32zm-12.6-8.34q-.6 0-.99.54t-.39 1.38v1.44q0 .36.36.36h1.98q.36 0 .36-.36V39.9q0-.84-.36-1.38-.36-.54-.96-.54zm31.56-9.66q8.52 0 8.52 10.8V59.1q0 .42-.24.66-.24.24-.66.24h-9.48q-.42 0-.66-.24-.24-.24-.24-.66V39.9q0-1.92-1.26-1.92-1.38 0-1.38 1.92v19.2q0 .42-.24.66-.24.24-.66.24h-9.48q-.42 0-.66-.24-.24-.24-.24-.66V29.7q0-.42.24-.66.24-.24.66-.24h9.48q.42 0 .66.24.24.24.24.66v.9q0 .12.12.12.3 0 .72-.54 1.74-1.86 4.56-1.86zm23.1 32.16q-5.76 0-9.21-2.7-3.45-2.7-3.45-7.14v-.18q0-.42.24-.66.24-.24.66-.24h9q.42 0 .66.21.24.21.24.57 0 .9.54 1.38.54.48 1.2.48.54 0 .84-.33.3-.33.3-.81 0-.9-.9-1.35-.9-.45-3-1.05-.72-.18-1.68-.48-3.18-1.02-5.43-3.33-2.25-2.31-2.25-6.33 0-4.68 3.24-7.44 3.24-2.76 8.52-2.76 5.52 0 8.82 3 3.3 3 3.3 7.92 0 .24-.24.42t-.66.18h-8.7q-.42 0-.66-.24-.24-.24-.24-.66v-.36q0-.72-.39-1.14-.39-.42-.93-.42-.6 0-.93.48-.33.48-.33 1.08 0 1.2 1.17 1.86 1.17.66 3.03 1.2 4.32 1.26 6.96 3.24 2.64 1.98 2.64 6.06 0 4.44-3.39 6.99t-8.97 2.55zm39.24-14.16q0 .42-.24.66-.24.24-.66.24h-12.72q-.36 0-.36.36v1.32q0 .84.39 1.38.39.54.99.54t.93-.42q.33-.42.45-1.08.3-.84 1.02-.78l9.18.6q.9.12.84.96-.3 5.28-3.33 7.83-3.03 2.55-9.09 2.55-6 0-9.33-2.79t-3.33-7.89V39q0-4.86 3.36-7.77 3.36-2.91 9.3-2.91 5.94 0 9.27 2.91 3.33 2.91 3.33 7.77v7.32zm-12.6-8.34q-.6 0-.99.54t-.39 1.38v1.44q0 .36.36.36h1.98q.36 0 .36-.36V39.9q0-.84-.36-1.38-.36-.54-.96-.54zm28.56-19.08q0-.42.24-.66.24-.24.66-.24h9.48q.42 0 .66.24.24.24.24.66v40.2q0 .42-.24.66-.24.24-.66.24h-9.48q-.42 0-.66-.24-.24-.24-.24-.66v-1.2q0-.24-.15-.27-.15-.03-.27.21-1.8 2.64-5.28 2.64-4.32 0-6.27-2.76-1.95-2.76-1.95-7.92V39q0-5.34 1.98-8.01t6.24-2.67q3.54 0 5.28 2.7.12.24.27.18.15-.06.15-.3v-12zm-1.38 31.92q.6 0 .99-.54t.39-1.38v-9q0-.84-.39-1.38-.39-.54-.99-.54t-.93.54q-.33.54-.33 1.38v9q0 .84.33 1.38.33.54.93.54zm54.06-2.64q0 5.7-3.66 8.76-3.66 3.06-9.3 3.06h-12.66q-.42 0-.66-.24-.24-.24-.24-.66V18.9q0-.42.24-.66.24-.24.66-.24h10.86q6.54 0 10.23 2.94 3.69 2.94 3.69 8.88 0 5.52-3.42 8.22-.3.24-.12.42 4.38 3.36 4.38 9.72zm-14.88-20.52q-.36 0-.36.36v6q0 .36.36.36h.3q2.7 0 2.7-3.36t-2.7-3.36h-.3zm1.02 22.68q1.14 0 1.86-.99.72-.99.72-2.85t-.69-2.97q-.69-1.11-1.83-1.11h-1.08q-.36 0-.36.36v7.2q0 .36.36.36h1.02zM474.2 60q-.42 0-.66-.24-.24-.24-.24-.66V18.9q0-.42.24-.66.24-.24.66-.24h9.48q.42 0 .66.24.24.24.24.66v40.2q0 .42-.24.66-.24.24-.66.24h-9.48zm25.5-31.68q3.84 0 6.81 1.26 2.97 1.26 4.59 3.54 1.62 2.28 1.62 5.28v20.7q0 .42-.24.66-.24.24-.66.24h-9.48q-.42 0-.66-.24-.24-.24-.24-.66v-1.26q0-.24-.12-.27-.12-.03-.3.15-2.04 2.76-6.36 2.76-8.16 0-8.16-9.54 0-4.2 1.5-6.24t4.08-2.64q2.58-.6 6.96-.6h2.04q.36 0 .36-.36v-1.32q0-.78-.48-1.29t-1.26-.51q-1.02 0-1.44 1.08-.3.84-.96.84l-9.6-.12q-.9 0-.9-.84.3-4.98 3.81-7.8 3.51-2.82 9.09-2.82zm-.18 24.06q.72 0 1.32-.45.6-.45.6-1.17v-1.62q0-.36-.36-.36h-1.2q-.84 0-1.35.57-.51.57-.51 1.35 0 .78.45 1.23.45.45 1.05.45zm28.02 8.1q-6 0-9.33-2.79t-3.33-7.89V39q0-4.86 3.36-7.77 3.36-2.91 9.3-2.91 5.94 0 9.27 2.91 3.33 2.91 3.33 7.77v1.32q0 .42-.24.69-.24.27-.66.27l-9.48.3q-.9 0-.9-.84v-.84q0-.84-.36-1.38-.36-.54-.96-.54t-.99.54q-.39.54-.39 1.38v9q0 .84.39 1.38.39.54.99.54t.96-.54q.36-.54.36-1.38V48q0-.42.24-.66.24-.24.66-.24l9.48.12q.42 0 .66.24.24.24.24.66v1.68q0 5.1-3.3 7.89t-9.3 2.79zm15.78-.48q-.42 0-.66-.24-.24-.24-.24-.66V18.9q0-.42.24-.66.24-.24.66-.24h9.48q.42 0 .66.24.24.24.24.66v16.68q0 .3.18.3t.24-.24l2.76-6.18q.24-.66 1.02-.66h9.72q.36 0 .57.15.21.15.21.39 0 .24-.18.54l-6.72 10.98q-.12.18 0 .48l7.32 17.64q.06.12.06.36 0 .66-.78.66h-9.72q-.78 0-1.02-.72l-2.76-8.52q-.06-.3-.18-.3t-.24.3l-.36.84-.12.48v7.02q0 .42-.24.66-.24.24-.66.24h-9.48z"/></svg>