<svg viewBox="0 0 627 80" xmlns="http://www.w3.org/2000/svg"><path d="M40.22 49.18q-.6 5.7-4.23 8.76Q32.36 61 27.08 61H16.1q-.3 0-.48-.21t-.12-.51l4.98-40.56q.06-.3.27-.51.21-.21.51-.21h9.72q5.28 0 8.19 2.37 2.91 2.37 2.91 7.05 0 .6-.12 2.04-.72 5.88-5.04 8.64-.24.18-.06.36 3.48 2.76 3.48 7.86 0 .54-.12 1.86zM28.16 26.26q-.3 0-.3.3l-1.2 9.42q0 .3.24.3H29q2.28 0 3.57-1.62t1.29-4.5q0-1.92-.93-2.91-.93-.99-2.67-.99h-2.1zm-.78 27.42q1.92 0 3.18-1.44 1.26-1.44 1.62-4.08.06-.42.06-1.26 0-2.1-.9-3.3-.9-1.2-2.52-1.2h-2.64q-.24 0-.36.3l-1.26 10.68q-.12.3.24.3h2.58zm31.98-22.8q.06-.3.27-.51.21-.21.51-.21h6.84q.3 0 .48.21t.12.51l-3.6 29.4q-.06.3-.27.51-.21.21-.51.21h-6.84q-.3 0-.48-.21t-.12-.51L56 58.6q0-.24-.12-.24t-.24.18q-2.16 2.94-5.76 2.94-3.48 0-5.16-2.04-1.68-2.04-1.68-5.7 0-1.5.12-2.34l1.44-11.64q.6-4.92 2.91-7.5t6.27-2.58q3.6 0 5.04 2.94.12.18.21.18t.15-.24l.18-1.68zm-5.58 23.34q1.2 0 2.07-.96.87-.96 1.11-2.52l1.26-10.32q.18-1.56-.48-2.52-.66-.96-1.86-.96-1.2 0-2.07.96-.87.96-1.05 2.52l-1.32 10.32q-.18 1.56.48 2.52.66.96 1.86.96zM85.52 29.8q1.62 0 2.4.6.42.36.24.9l-1.98 7.02q-.12.66-.9.48-.54-.24-1.5-.24-.9 0-1.56.24-1.38.24-2.34 1.65t-1.2 3.27l-2.04 16.5q-.06.3-.27.51-.21.21-.51.21h-6.84q-.3 0-.48-.21t-.12-.51l3.6-29.34q.06-.3.27-.51.21-.21.51-.21h6.84q.3 0 .48.21t.12.51l-.3 2.34q-.06.24.06.27.12.03.24-.15 1.92-3.54 5.28-3.54zM87.68 61q-.3 0-.48-.21t-.12-.51l4.98-40.56q.06-.3.27-.51.21-.21.51-.21h6.84q.3 0 .48.21t.12.51L95.3 60.28q-.06.3-.27.51-.21.21-.51.21h-6.84zm22.32.48q-4.68 0-7.29-2.28-2.61-2.28-2.61-6.3 0-.96.06-1.5l1.44-11.64q.54-4.56 3.87-7.32 3.33-2.76 8.43-2.76 4.74 0 7.38 2.31 2.64 2.31 2.64 6.27 0 .54-.12 1.5l-1.44 11.64q-.6 4.68-3.87 7.38t-8.49 2.7zm.9-7.32q1.26 0 2.19-.96.93-.96 1.11-2.46l1.32-10.38q.18-1.5-.54-2.46t-1.98-.96q-1.26 0-2.16.96-.9.96-1.08 2.46l-1.32 10.38q-.18 1.5.51 2.46t1.95.96zM129.92 61q-.3 0-.48-.18t-.18-.48l-2.64-29.46v-.12q0-.66.72-.66h6.48q.66 0 .66.66l.48 16.44q0 .18.15.18t.21-.18l4.56-16.44q.18-.66.84-.66h5.76q.66 0 .66.66l.72 16.5q.06.18.18.15t.18-.21l4.5-16.44q.18-.66.84-.66l6.36.12q.72 0 .48.78l-9.84 29.34q-.18.66-.84.66h-6.6q-.72 0-.72-.66l-.6-15.24q-.06-.18-.15-.18t-.21.18l-4.26 15.24q-.18.66-.84.66h-6.42zm52.92.48q-4.74 0-7.5-2.67t-2.76-7.23q0-.6.12-1.92l2.4-19.44q.6-5.34 4.17-8.52 3.57-3.18 8.85-3.18 4.8 0 7.56 2.67t2.76 7.23q0 .6-.12 1.8l-.12.66q-.06.3-.27.51-.21.21-.51.21l-6.84.3q-.66 0-.6-.66l.18-1.56q.06-.24.06-.72 0-1.44-.81-2.31-.81-.87-2.19-.87-1.5 0-2.58 1.08t-1.32 2.82l-2.52 20.7q-.06.24-.06.66 0 1.44.81 2.31.81.87 2.13.87 1.56 0 2.64-1.05t1.32-2.79l.18-1.62q.06-.3.27-.51.21-.21.51-.21l6.78.3q.3 0 .48.21t.12.51l-.06.6q-.66 5.4-4.26 8.61-3.6 3.21-8.82 3.21zm25.98 0q-4.68 0-7.29-2.28-2.61-2.28-2.61-6.3 0-.96.06-1.5l1.44-11.64q.54-4.56 3.87-7.32 3.33-2.76 8.43-2.76 4.74 0 7.38 2.31 2.64 2.31 2.64 6.27 0 .54-.12 1.5l-1.44 11.64q-.6 4.68-3.87 7.38t-8.49 2.7zm.9-7.32q1.26 0 2.19-.96.93-.96 1.11-2.46l1.32-10.38q.18-1.5-.54-2.46t-1.98-.96q-1.26 0-2.16.96-.9.96-1.08 2.46l-1.32 10.38q-.18 1.5.51 2.46t1.95.96zm31.98-24.48q3.42 0 5.13 2.01t1.71 5.79q0 1.2-.18 2.46l-2.46 20.34q-.06.3-.27.51-.21.21-.51.21h-6.84q-.3 0-.48-.21t-.12-.51l2.4-19.68q.06-.3.06-.9 0-2.76-2.22-2.76-1.32 0-2.16.99-.84.99-1.08 2.79l-2.4 19.56q-.06.3-.27.51-.21.21-.51.21h-6.84q-.3 0-.48-.21t-.12-.51l3.6-29.4q.06-.3.27-.51.21-.21.51-.21h6.84q.3 0 .48.21t.12.51l-.12 1.14v.06q0 .12.15.09t.33-.21q2.22-2.28 5.46-2.28zm26.58-9.96q.06-.3.27-.51.21-.21.51-.21h6.84q.3 0 .48.21t.12.51l-4.98 40.56q-.06.3-.27.51-.21.21-.51.21h-6.84q-.3 0-.48-.21t-.12-.51l.12-.96q.06-.18-.06-.21t-.3.09q-2.22 2.28-5.46 2.28-3.54 0-5.28-2.07-1.74-2.07-1.74-5.79 0-1.44.12-2.22l1.44-11.64q.6-4.86 3-7.47 2.4-2.61 6.36-2.61 1.32 0 2.64.51t2.28 1.83q.12.12.24.09t.12-.21l1.5-12.18zm-6.96 34.5q1.02 0 1.89-.72.87-.72 1.17-1.92l1.44-12q0-1.2-.66-1.92t-1.74-.72q-1.2 0-2.07.96-.87.96-1.05 2.46l-1.32 10.44q-.18 1.5.48 2.46.66.96 1.86.96zm37.8-6.72q-.06.3-.27.51-.21.21-.51.21H285.5q-.12 0-.21.09t-.09.21l-.3 2.22q-.18 1.5.51 2.49.69.99 1.89.99 1.08 0 1.89-.75.81-.75 1.17-1.89.24-.6.84-.6l6.66.36q.3 0 .45.21.15.21.09.57-.96 4.62-3.96 6.99t-8.04 2.37q-4.74 0-7.32-2.22t-2.58-6.24q0-.54.12-1.62l1.44-11.64q.54-4.56 3.84-7.32 3.3-2.76 8.4-2.76 4.68 0 7.29 2.31 2.61 2.31 2.61 6.27 0 .42-.12 1.5l-.96 7.74zm-9.72-10.56q-1.2 0-2.1.96-.9.96-1.08 2.46l-.3 2.34q0 .3.24.3h5.04q.12 0 .21-.09t.09-.21l.3-2.34q.18-1.5-.51-2.46t-1.89-.96zm29.58-7.26q3.42 0 5.13 2.01t1.71 5.79q0 1.2-.18 2.46l-2.46 20.34q-.06.3-.27.51-.21.21-.51.21h-6.84q-.3 0-.48-.21t-.12-.51l2.4-19.68q.06-.3.06-.9 0-2.76-2.22-2.76-1.32 0-2.16.99-.84.99-1.08 2.79l-2.4 19.56q-.06.3-.27.51-.21.21-.51.21h-6.84q-.3 0-.48-.21t-.12-.51l3.6-29.4q.06-.3.27-.51.21-.21.51-.21h6.84q.3 0 .48.21t.12.51l-.12 1.14v.06q0 .12.15.09t.33-.21q2.22-2.28 5.46-2.28zm18.18 31.74q-4.56 0-7.17-2.07-2.61-2.07-2.61-5.67 0-.78.06-1.2l.06-.42q.06-.3.27-.51.21-.21.51-.21h6.42q.3 0 .48.21t.12.51v.18q-.18 1.26.6 2.07.78.81 2.04.81t2.04-.81q.78-.81.78-2.01 0-1.14-1.02-1.83-1.02-.69-2.28-1.17-1.26-.48-1.68-.66-2.76-1.08-4.62-2.94-1.86-1.86-1.86-5.22 0-.84.06-1.32.54-4.38 3.66-6.9 3.12-2.52 7.74-2.52 4.44 0 6.93 2.22 2.49 2.22 2.49 6.06 0 .54-.12 1.5-.06.3-.27.51-.21.21-.51.21h-6.24q-.3 0-.48-.21t-.12-.51l.06-.48q.12-1.2-.51-1.95t-1.77-.75q-1.38 0-2.16.93-.78.93-.78 2.13 0 1.32 1.05 2.04t3.27 1.62q3.36 1.32 5.43 3.06t2.07 5.1q0 4.68-3.33 7.44-3.33 2.76-8.61 2.76zm37.26-13.92q-.06.3-.27.51-.21.21-.51.21H360.8q-.12 0-.21.09t-.09.21l-.3 2.22q-.18 1.5.51 2.49.69.99 1.89.99 1.08 0 1.89-.75.81-.75 1.17-1.89.24-.6.84-.6l6.66.36q.3 0 .45.21.15.21.09.57-.96 4.62-3.96 6.99t-8.04 2.37q-4.74 0-7.32-2.22t-2.58-6.24q0-.54.12-1.62l1.44-11.64q.54-4.56 3.84-7.32 3.3-2.76 8.4-2.76 4.68 0 7.29 2.31 2.61 2.31 2.61 6.27 0 .42-.12 1.5l-.96 7.74zm-9.72-10.56q-1.2 0-2.1.96-.9.96-1.08 2.46l-.3 2.34q0 .3.24.3h5.04q.12 0 .21-.09t.09-.21l.3-2.34q.18-1.5-.51-2.46t-1.89-.96zm30.18-17.22q.06-.3.27-.51.21-.21.51-.21h6.84q.3 0 .48.21t.12.51l-4.98 40.56q-.06.3-.27.51-.21.21-.51.21h-6.84q-.3 0-.48-.21t-.12-.51l.12-.96q.06-.18-.06-.21t-.3.09q-2.22 2.28-5.46 2.28-3.54 0-5.28-2.07-1.74-2.07-1.74-5.79 0-1.44.12-2.22l1.44-11.64q.6-4.86 3-7.47 2.4-2.61 6.36-2.61 1.32 0 2.64.51t2.28 1.83q.12.12.24.09t.12-.21l1.5-12.18zm-6.96 34.5q1.02 0 1.89-.72.87-.72 1.17-1.92l1.44-12q0-1.2-.66-1.92t-1.74-.72q-1.2 0-2.07.96-.87.96-1.05 2.46l-1.32 10.44q-.18 1.5.48 2.46.66.96 1.86.96zm51.36-5.04q-.6 5.7-4.23 8.76-3.63 3.06-8.91 3.06h-10.98q-.3 0-.48-.21t-.12-.51l4.98-40.56q.06-.3.27-.51.21-.21.51-.21h9.72q5.28 0 8.19 2.37 2.91 2.37 2.91 7.05 0 .6-.12 2.04-.72 5.88-5.04 8.64-.24.18-.06.36 3.48 2.76 3.48 7.86 0 .54-.12 1.86zm-12.06-22.92q-.3 0-.3.3l-1.2 9.42q0 .3.24.3h2.1q2.28 0 3.57-1.62t1.29-4.5q0-1.92-.93-2.91-.93-.99-2.67-.99h-2.1zm-.78 27.42q1.92 0 3.18-1.44 1.26-1.44 1.62-4.08.06-.42.06-1.26 0-2.1-.9-3.3-.9-1.2-2.52-1.2h-2.64q-.24 0-.36.3l-1.26 10.68q-.12.3.24.3h2.58zm25.62 7.8q-4.68 0-7.29-2.28-2.61-2.28-2.61-6.3 0-.96.06-1.5l1.44-11.64q.54-4.56 3.87-7.32 3.33-2.76 8.43-2.76 4.74 0 7.38 2.31 2.64 2.31 2.64 6.27 0 .54-.12 1.5l-1.44 11.64q-.6 4.68-3.87 7.38t-8.49 2.7zm.9-7.32q1.26 0 2.19-.96.93-.96 1.11-2.46l1.32-10.38q.18-1.5-.54-2.46t-1.98-.96q-1.26 0-2.16.96-.9.96-1.08 2.46l-1.32 10.38q-.18 1.5.51 2.46t1.95.96zm14.7 6.84q-.3 0-.48-.21t-.12-.51l4.98-40.56q.06-.3.27-.51.21-.21.51-.21h6.84q.3 0 .48.21t.12.51l-4.98 40.56q-.06.3-.27.51-.21.21-.51.21h-6.84zm30.06-41.28q.06-.3.27-.51.21-.21.51-.21h6.84q.3 0 .48.21t.12.51l-4.98 40.56q-.06.3-.27.51-.21.21-.51.21h-6.84q-.3 0-.48-.21t-.12-.51l.12-.96q.06-.18-.06-.21t-.3.09q-2.22 2.28-5.46 2.28-3.54 0-5.28-2.07-1.74-2.07-1.74-5.79 0-1.44.12-2.22l1.44-11.64q.6-4.86 3-7.47 2.4-2.61 6.36-2.61 1.32 0 2.64.51t2.28 1.83q.12.12.24.09t.12-.21l1.5-12.18zm-6.96 34.5q1.02 0 1.89-.72.87-.72 1.17-1.92l1.44-12q0-1.2-.66-1.92t-1.74-.72q-1.2 0-2.07.96-.87.96-1.05 2.46l-1.32 10.44q-.18 1.5.48 2.46.66.96 1.86.96zm15.6 6.78q-.3 0-.48-.21t-.12-.51l4.98-40.56q.06-.3.27-.51.21-.21.51-.21h6.78q.66 0 .66.72l-4.98 40.56q-.06.3-.3.51-.24.21-.54.21h-6.78zm29.1-25.62q-.06.3-.27.51-.21.21-.51.21h-3.3q-.12 0-.21.09t-.09.21l-1.74 14.28q-.06.3-.06.84 0 1.26.57 1.74t1.65.42h.42q.3 0 .48.21t.12.51l-.72 5.88q-.06.3-.27.51-.21.21-.51.21h-2.34q-3.84 0-5.82-1.17-1.98-1.17-1.98-4.41 0-.42.12-1.5l2.16-17.52q0-.3-.24-.3H521q-.3 0-.48-.21t-.12-.51l.54-4.5q.06-.3.27-.51.21-.21.51-.21h1.92q.3 0 .3-.3l.84-6.66q.06-.3.27-.51.21-.21.51-.21h6.54q.3 0 .48.21t.12.51l-.84 6.66q0 .3.3.3h3.24q.3 0 .48.21t.12.51l-.54 4.5zm17.1-4.5q.06-.3.27-.51.21-.21.51-.21h6.84q.3 0 .48.21t.12.51l-3.6 29.4q-.06.3-.27.51-.21.21-.51.21h-6.84q-.3 0-.48-.21t-.12-.51l.24-1.68q0-.24-.12-.24t-.24.18q-2.16 2.94-5.76 2.94-3.48 0-5.16-2.04-1.68-2.04-1.68-5.7 0-1.5.12-2.34l1.44-11.64q.6-4.92 2.91-7.5t6.27-2.58q3.6 0 5.04 2.94.12.18.21.18t.15-.24l.18-1.68zm-5.58 23.34q1.2 0 2.07-.96.87-.96 1.11-2.52l1.26-10.32q.18-1.56-.48-2.52-.66-.96-1.86-.96-1.2 0-2.07.96-.87.96-1.05 2.52l-1.32 10.32q-.18 1.56.48 2.52.66.96 1.86.96zm15 6.78q-.3 0-.48-.21t-.12-.51l4.98-40.56q.06-.3.27-.51.21-.21.51-.21h6.84q.3 0 .48.21t.12.51l-4.98 40.56q-.06.3-.27.51-.21.21-.51.21h-6.84zm20.1-34.32q-1.8 0-2.94-1.14T578 22.66q0-2.4 1.5-3.93 1.5-1.53 3.72-1.53 1.86 0 2.94 1.08 1.08 1.08 1.08 2.88 0 2.28-1.53 3.9t-3.63 1.62zM574.52 61q-.3 0-.48-.21t-.12-.51l3.6-29.4q.06-.3.27-.51.21-.21.51-.21h6.84q.3 0 .48.21t.12.51l-3.6 29.4q-.06.3-.27.51-.21.21-.51.21h-6.84zm22.44.48q-4.68 0-7.26-2.28t-2.58-6.3q0-.96.06-1.5l1.44-11.64q.54-4.56 3.84-7.32 3.3-2.76 8.4-2.76 4.68 0 7.29 2.31 2.61 2.31 2.61 6.09 0 .9-.06 1.32l-.18 1.08q-.06.3-.27.51-.21.21-.51.21l-6.84.3q-.66 0-.6-.72l.06-.72q.18-1.32-.51-2.22-.69-.9-1.89-.9-1.26 0-2.13.96-.87.96-1.05 2.52l-1.32 10.32q-.18 1.56.48 2.52.66.96 1.92.96 1.2 0 2.1-.93.9-.93 1.08-2.19l.06-.78q.06-.3.3-.51.24-.21.54-.21l6.78.06q.3 0 .48.21t.12.51l-.18 1.38q-.54 4.44-3.81 7.08-3.27 2.64-8.37 2.64z"/></svg>