<svg viewBox="0 0 681 80" xmlns="http://www.w3.org/2000/svg"><path d="M42.54 49.94q-.66 5.82-4.59 8.94Q34.02 62 28.5 62H16.2q-.36 0-.57-.24-.21-.24-.15-.66l4.92-40.2q.06-.42.33-.66.27-.24.63-.24h10.56q5.76 0 8.97 2.43 3.21 2.43 3.21 7.35 0 .6-.12 2.04-.72 5.58-4.38 8.28-.36.18-.18.36 3.24 2.76 3.24 7.74 0 .54-.12 1.74zm-12-20.28q-.3 0-.3.3l-.78 6.12q0 .3.24.3h.36q2.58 0 3.06-3.36l.06-.78q0-2.58-2.28-2.58h-.36zM28.8 52.34q1.32 0 2.19-1.26.87-1.26.87-3.6 0-1.38-.54-2.22-.54-.84-1.5-.84h-1.08q-.3 0-.3.3l-.9 7.32q-.12.3.24.3h1.02zM60.24 31.7q.06-.42.33-.66.27-.24.63-.24h9.24q.36 0 .57.24.21.24.15.66l-3.6 29.4q-.06.42-.3.66-.24.24-.66.24h-9.18q-.42 0-.63-.24-.21-.24-.15-.66l.18-1.32q0-.24-.12-.24t-.24.18q-2.04 2.76-5.52 2.76-3.6 0-5.22-1.98-1.62-1.98-1.62-5.76 0-1.44.18-2.94L45.6 41q.66-5.34 2.91-8.01t6.39-2.67q3.48 0 4.8 2.82.12.18.24.15t.12-.27l.18-1.32zm-3.9 21.12q.6 0 1.02-.54.42-.54.54-1.38l1.08-9q.12-.84-.18-1.38-.3-.54-.9-.54-.6 0-.96.54t-.48 1.38l-1.14 9q-.12.9.15 1.41.27.51.87.51zM89.7 30.38q1.38 0 2.28.6.48.3.3 1.14l-2.64 9.42q-.12.48-.36.6t-.72 0q-.54-.18-1.32-.18-1.2 0-2.04.42-.9.42-1.5 1.35-.6.93-.72 1.89l-1.92 15.42q-.06.42-.3.66-.24.24-.66.24h-9.18q-.42 0-.63-.24-.21-.24-.15-.66l3.6-29.34q.06-.42.33-.66.27-.24.63-.24h9.24q.36 0 .57.24.21.24.15.66l-.18 1.38q0 .24.09.27.09.03.21-.15 1.8-2.82 4.92-2.82zM90.96 62q-.42 0-.63-.24-.21-.24-.15-.66l4.92-40.2q.06-.42.33-.66.27-.24.63-.24h9.24q.36 0 .57.24.21.24.15.66l-4.92 40.2q-.06.42-.3.66-.24.24-.66.24h-9.18zm24.6.48q-5.4 0-8.31-2.34t-2.91-6.66q0-.48.12-1.68l1.32-10.8q.6-4.86 4.26-7.77 3.66-2.91 9.48-2.91 5.34 0 8.22 2.46 2.88 2.46 2.88 6.66 0 .48-.12 1.56l-1.32 10.8q-.66 5.1-4.17 7.89t-9.45 2.79zm1.14-9.66q.6 0 1.08-.54.48-.54.6-1.38l1.08-9q.06-.84-.24-1.38-.3-.54-.9-.54-.66 0-1.11.54-.45.54-.57 1.38l-1.14 9q-.12.84.24 1.38.36.54.96.54zM135.9 62q-.78 0-.9-.78l-2.64-29.46q0-.96.9-.96h8.7q.84 0 .84.84l-.3 13.56q-.06.06.12.06t.18-.06l3.12-13.56q.24-.84 1.08-.84h7.74q.84 0 .78.84l-.06 13.56q0 .12.12.12t.18-.12l3.06-13.56q.18-.84.96-.84l8.52.12q.9 0 .66.96l-9.72 29.34q-.3.78-1.08.78h-8.88q-.84 0-.84-.84l-.12-10.56q.06-.18-.12-.18t-.24.18l-2.58 10.56q-.18.84-1.02.84h-8.46zm55.5.48q-5.22 0-8.25-2.88-3.03-2.88-3.03-7.86 0-.6.12-2.04l2.16-17.52q.72-5.82 4.62-9.24 3.9-3.42 9.66-3.42 5.22 0 8.28 2.85 3.06 2.85 3.06 7.83 0 .54-.12 1.98l-.06.3q-.06.42-.33.69-.27.27-.63.27l-9.24.3q-.9 0-.78-.84l.18-1.5q.12-1.02-.3-1.62-.42-.6-1.2-.6-.84 0-1.41.6t-.69 1.62l-2.34 19.26q-.12.96.27 1.56.39.6 1.23.6t1.41-.57q.57-.57.69-1.59l.18-1.62q.06-.42.33-.63.27-.21.63-.21l9.18.3q.42 0 .63.27.21.27.15.69l-.06.24q-.72 5.82-4.65 9.3-3.93 3.48-9.69 3.48zm27.3 0q-5.4 0-8.31-2.34t-2.91-6.66q0-.48.12-1.68l1.32-10.8q.6-4.86 4.26-7.77 3.66-2.91 9.48-2.91 5.34 0 8.22 2.46 2.88 2.46 2.88 6.66 0 .48-.12 1.56l-1.32 10.8q-.66 5.1-4.17 7.89t-9.45 2.79zm1.14-9.66q.6 0 1.08-.54.48-.54.6-1.38l1.08-9q.06-.84-.24-1.38-.3-.54-.9-.54-.66 0-1.11.54-.45.54-.57 1.38l-1.14 9q-.12.84.24 1.38.36.54.96.54zm33.6-22.5q7.14 0 7.14 8.04 0 1.32-.18 2.76l-2.46 19.98q-.06.42-.3.66-.24.24-.66.24h-9.18q-.42 0-.63-.24-.21-.24-.15-.66l2.34-19.2q.06-.24.06-.6 0-1.32-1.02-1.32-1.32 0-1.62 1.92l-2.34 19.2q-.06.42-.33.66-.27.24-.63.24h-9.24q-.36 0-.57-.24-.21-.24-.15-.66l3.6-29.4q.06-.42.33-.66.27-.24.63-.24h9.24q.36 0 .57.24.21.24.15.66l-.12.96q0 .12.12.12.24 0 .6-.42 1.98-2.04 4.8-2.04zm25.14-9.42q.06-.42.33-.66.27-.24.69-.24h9.18q.42 0 .63.24.21.24.15.66l-4.98 40.2q-.06.42-.3.66-.24.24-.66.24h-9.18q-.42 0-.63-.24-.21-.24-.15-.66l.18-1.32q0-.24-.12-.24t-.24.18q-2.04 2.76-5.52 2.76-3.6 0-5.22-1.98-1.62-1.98-1.62-5.76 0-1.44.18-2.94l1.32-10.8q.66-5.34 2.91-8.01t6.39-2.67q3.48 0 4.8 2.82.12.18.24.15t.12-.27l1.5-12.12zm-5.22 31.92q.6 0 1.02-.54.42-.54.54-1.38l1.08-9q.12-.84-.18-1.38-.3-.54-.9-.54-.6 0-.96.54t-.48 1.38l-1.14 9q-.12.9.15 1.41.27.51.87.51zm39.6-4.5q-.06.42-.3.66-.24.24-.66.24h-12.42q-.12 0-.21.09t-.09.21l-.18 1.38q-.12.84.21 1.38.33.54.93.54 1.02 0 1.5-1.5.36-.84 1.08-.78l8.82.6q.9.12.72.96-.96 5.28-4.2 7.83t-9.12 2.55q-5.34 0-8.22-2.34-2.88-2.34-2.88-6.66 0-.48.12-1.68l1.32-10.8q.6-4.86 4.23-7.77 3.63-2.91 9.39-2.91 5.28 0 8.13 2.46 2.85 2.46 2.85 6.66 0 .48-.12 1.56l-.9 7.32zm-11.16-8.34q-.6 0-1.02.54-.42.54-.54 1.38l-.24 1.5q0 .3.3.3h2.04q.3 0 .3-.3l.18-1.5.06-.48q0-.6-.3-1.02-.3-.42-.78-.42zm31.74-9.66q7.14 0 7.14 8.04 0 1.32-.18 2.76l-2.46 19.98q-.06.42-.3.66-.24.24-.66.24h-9.18q-.42 0-.63-.24-.21-.24-.15-.66l2.34-19.2q.06-.24.06-.6 0-1.32-1.02-1.32-1.32 0-1.62 1.92l-2.34 19.2q-.06.42-.33.66-.27.24-.63.24h-9.24q-.36 0-.57-.24-.21-.24-.15-.66l3.6-29.4q.06-.42.33-.66.27-.24.63-.24h9.24q.36 0 .57.24.21.24.15.66l-.12.96q0 .12.12.12.24 0 .6-.42 1.98-2.04 4.8-2.04zm18.48 32.16q-5.16 0-8.16-2.34t-3-6.24q0-.84.06-1.26l.06-.18q.06-.42.3-.66.24-.24.66-.24h8.76q.36 0 .6.21t.18.57q-.12.9.33 1.38.45.48 1.11.48.6 0 .93-.36.33-.36.33-.9 0-.78-.84-1.23-.84-.45-2.64-.99l-1.62-.54q-2.64-.96-4.47-2.91-1.83-1.95-1.83-5.31 0-.96.06-1.44.6-4.68 4.05-7.44 3.45-2.76 8.61-2.76 4.86 0 7.71 2.55 2.85 2.55 2.85 6.81 0 .48-.12 1.56-.12.6-.96.6h-8.46q-.42 0-.63-.24-.21-.24-.15-.66l.06-.36v-.3q0-1.26-1.08-1.26-.66 0-1.05.57t-.39 1.17q0 1.08 1.02 1.71 1.02.63 2.7 1.17 3.72 1.2 5.97 2.94 2.25 1.74 2.25 5.1 0 4.98-3.69 7.89-3.69 2.91-9.51 2.91zm39.78-14.16q-.06.42-.3.66-.24.24-.66.24h-12.42q-.12 0-.21.09t-.09.21l-.18 1.38q-.12.84.21 1.38.33.54.93.54 1.02 0 1.5-1.5.36-.84 1.08-.78l8.82.6q.9.12.72.96-.96 5.28-4.2 7.83t-9.12 2.55q-5.34 0-8.22-2.34-2.88-2.34-2.88-6.66 0-.48.12-1.68l1.32-10.8q.6-4.86 4.23-7.77 3.63-2.91 9.39-2.91 5.28 0 8.13 2.46 2.85 2.46 2.85 6.66 0 .48-.12 1.56l-.9 7.32zm-11.16-8.34q-.6 0-1.02.54-.42.54-.54 1.38l-.24 1.5q0 .3.3.3h2.04q.3 0 .3-.3l.18-1.5.06-.48q0-.6-.3-1.02-.3-.42-.78-.42zm30-19.08q.06-.42.33-.66.27-.24.69-.24h9.18q.42 0 .63.24.21.24.15.66l-4.98 40.2q-.06.42-.3.66-.24.24-.66.24h-9.18q-.42 0-.63-.24-.21-.24-.15-.66l.18-1.32q0-.24-.12-.24t-.24.18q-2.04 2.76-5.52 2.76-3.6 0-5.22-1.98-1.62-1.98-1.62-5.76 0-1.44.18-2.94l1.32-10.8q.66-5.34 2.91-8.01t6.39-2.67q3.48 0 4.8 2.82.12.18.24.15t.12-.27l1.5-12.12zm-5.22 31.92q.6 0 1.02-.54.42-.54.54-1.38l1.08-9q.12-.84-.18-1.38-.3-.54-.9-.54-.6 0-.96.54t-.48 1.38l-1.14 9q-.12.9.15 1.41.27.51.87.51zm52.74-2.88q-.66 5.82-4.59 8.94-3.93 3.12-9.45 3.12h-12.3q-.36 0-.57-.24-.21-.24-.15-.66l4.92-40.2q.06-.42.33-.66.27-.24.63-.24h10.56q5.76 0 8.97 2.43 3.21 2.43 3.21 7.35 0 .6-.12 2.04-.72 5.58-4.38 8.28-.36.18-.18.36 3.24 2.76 3.24 7.74 0 .54-.12 1.74zm-12-20.28q-.3 0-.3.3l-.78 6.12q0 .3.24.3h.36q2.58 0 3.06-3.36l.06-.78q0-2.58-2.28-2.58h-.36zm-1.74 22.68q1.32 0 2.19-1.26.87-1.26.87-3.6 0-1.38-.54-2.22-.54-.84-1.5-.84h-1.08q-.3 0-.3.3l-.9 7.32q-.12.3.24.3h1.02zM459.66 62q-.42 0-.63-.24-.21-.24-.15-.66l4.92-40.2q.06-.42.33-.66.27-.24.63-.24H474q.36 0 .57.24.21.24.15.66l-4.92 40.2q-.06.42-.3.66-.24.24-.66.24h-9.18zm29.46-30.3q.06-.42.33-.66.27-.24.63-.24h9.24q.36 0 .57.24.21.24.15.66l-3.6 29.4q-.06.42-.3.66-.24.24-.66.24h-9.18q-.42 0-.63-.24-.21-.24-.15-.66l.18-1.32q0-.24-.12-.24t-.24.18q-2.04 2.76-5.52 2.76-3.6 0-5.22-1.98-1.62-1.98-1.62-5.76 0-1.44.18-2.94l1.32-10.8q.66-5.34 2.91-8.01t6.39-2.67q3.48 0 4.8 2.82.12.18.24.15t.12-.27l.18-1.32zm-3.9 21.12q.6 0 1.02-.54.42-.54.54-1.38l1.08-9q.12-.84-.18-1.38-.3-.54-.9-.54-.6 0-.96.54t-.48 1.38l-1.14 9q-.12.9.15 1.41.27.51.87.51zm25.68 9.66q-5.34 0-8.22-2.34-2.88-2.34-2.88-6.66 0-.48.12-1.68l1.32-10.8q.6-4.86 4.23-7.77 3.63-2.91 9.39-2.91 5.28 0 8.13 2.46 2.85 2.46 2.85 6.66 0 .48-.12 1.56l-.12 1.32q-.06.42-.33.69-.27.27-.69.27l-9.24.3q-.36 0-.6-.21t-.18-.63l.12-.84.06-.48q0-.6-.3-1.02-.3-.42-.78-.42-.6 0-1.02.54-.42.54-.54 1.38l-1.14 9q-.12.84.21 1.38.33.54.93.54.54 0 .96-.54.42-.54.54-1.38l.12-.9q.06-.42.3-.66.24-.24.66-.24l9.18.12q.42 0 .63.24.21.24.15.66l-.24 1.68q-.66 5.1-4.17 7.89t-9.33 2.79zm15.3-.48q-.36 0-.57-.24-.21-.24-.15-.66l4.92-40.2q.06-.42.33-.66.27-.24.63-.24h9.24q.36 0 .57.24.21.24.15.66l-2.04 16.86q-.06.24.09.24t.27-.18l3.48-6.36q.36-.66 1.08-.66h9.42q.72 0 .72.48 0 .12-.24.6l-7.92 11.04q-.12.24-.06.42l4.98 17.64v.24q0 .78-.84.78h-9.42q-.72 0-.9-.72l-1.62-8.64q0-.18-.15-.21t-.27.21l-.54 1.02-.06.36-.9 7.08q-.06.42-.33.66-.27.24-.63.24h-9.24zm28.14 0q-.36 0-.57-.24-.21-.24-.15-.66l4.92-40.2q.06-.42.33-.66.27-.24.63-.24h9.24q.36 0 .57.24.21.24.15.66l-4.92 40.2q-.06.42-.33.66-.27.24-.63.24h-9.24zm31.74-24.3q-.06.42-.3.66-.24.24-.66.24h-2.52q-.3 0-.3.3l-1.44 11.58q-.12 1.08.3 1.47.42.39 1.32.33h.12q.36 0 .57.24.21.24.15.66l-.96 7.92q-.06.42-.33.66-.27.24-.63.24h-2.82q-4.38 0-6.6-1.14-2.22-1.14-2.22-4.44 0-.9.06-1.38l1.98-16.14q.12-.3-.24-.3h-1.62q-.42 0-.63-.24-.21-.24-.15-.66l.72-6q.18-.9 1.02-.9h1.62q.24 0 .36-.3l.78-6.48q.06-.42.3-.66.24-.24.66-.24h8.76q.36 0 .57.24.21.24.15.66l-.78 6.48q0 .3.24.3h2.52q.42 0 .63.24.21.24.15.66l-.78 6zm16.02-6q.06-.42.33-.66.27-.24.63-.24h9.24q.36 0 .57.24.21.24.15.66l-3.6 29.4q-.06.42-.3.66-.24.24-.66.24h-9.18q-.42 0-.63-.24-.21-.24-.15-.66l.18-1.32q0-.24-.12-.24t-.24.18q-2.04 2.76-5.52 2.76-3.6 0-5.22-1.98-1.62-1.98-1.62-5.76 0-1.44.18-2.94l1.32-10.8q.66-5.34 2.91-8.01t6.39-2.67q3.48 0 4.8 2.82.12.18.24.15t.12-.27l.18-1.32zm-3.9 21.12q.6 0 1.02-.54.42-.54.54-1.38l1.08-9q.12-.84-.18-1.38-.3-.54-.9-.54-.6 0-.96.54t-.48 1.38l-1.14 9q-.12.9.15 1.41.27.51.87.51zM612.66 62q-.42 0-.63-.24-.21-.24-.15-.66l4.92-40.2q.06-.42.33-.66.27-.24.63-.24H627q.36 0 .57.24.21.24.15.66l-4.92 40.2q-.06.42-.3.66-.24.24-.66.24h-9.18zm21.78-33.3q-2.16 0-3.48-1.35-1.32-1.35-1.32-3.45 0-2.82 1.8-4.65 1.8-1.83 4.38-1.83 2.22 0 3.54 1.32 1.32 1.32 1.32 3.42 0 2.76-1.8 4.65-1.8 1.89-4.44 1.89zM625.92 62q-.42 0-.63-.24-.21-.24-.15-.66l3.6-29.4q.06-.42.33-.66.27-.24.63-.24h9.24q.36 0 .57.24.21.24.15.66l-3.6 29.4q-.06.42-.3.66-.24.24-.66.24h-9.18zm24.36.48q-5.34 0-8.22-2.34-2.88-2.34-2.88-6.66 0-.48.12-1.68l1.32-10.8q.6-4.86 4.23-7.77 3.63-2.91 9.39-2.91 5.28 0 8.13 2.46 2.85 2.46 2.85 6.66 0 .48-.12 1.56l-.12 1.32q-.06.42-.33.69-.27.27-.69.27l-9.24.3q-.36 0-.6-.21t-.18-.63l.12-.84.06-.48q0-.6-.3-1.02-.3-.42-.78-.42-.6 0-1.02.54-.42.54-.54 1.38l-1.14 9q-.12.84.21 1.38.33.54.93.54.54 0 .96-.54.42-.54.54-1.38l.12-.9q.06-.42.3-.66.24-.24.66-.24l9.18.12q.42 0 .63.24.21.24.15.66l-.24 1.68q-.66 5.1-4.17 7.89t-9.33 2.79z"/></svg>