<svg viewBox="0 0 398 80" xmlns="http://www.w3.org/2000/svg"><path d="M30.82 17.14h17.94q.66 0 .66.66v38.88q0 2.22-.84 4.14-.84 1.92-2.28 3.36t-3.36 2.28q-1.92.84-4.14.84H25.84q-2.22 0-4.14-.84-1.92-.84-3.36-2.28t-2.28-3.36q-.84-1.92-.84-4.14V17.8q0-.66.66-.66h13.44l2.4-5.4 1.2.54-2.1 4.86zM48.1 56.68v-16.8H16.54v16.8q0 1.92.72 3.63t1.98 2.97q1.26 1.26 2.97 1.98 1.71.72 3.63.72H38.8q1.92 0 3.6-.72 1.68-.72 2.94-1.98t2.01-2.97q.75-1.71.75-3.63zm0-18.12v-20.1H16.54v20.1H48.1zm29.28-6.12h19.26v1.32H77.32q0 .06-.06.12l-19.2 33.48-1.14-.66 18.9-32.94H56.8v-1.32h19.26V15.7H58v-1.38h37.44v1.38H77.38v16.74zm2.76 5.34v20.88q0 1.5.57 2.85t1.56 2.34q.99.99 2.34 1.56 1.35.57 2.85.57h9.18v1.32h-9.18q-1.8 0-3.39-.69t-2.76-1.86q-1.17-1.17-1.83-2.73-.66-1.56-.66-3.36V37.78h1.32zm40.32 29.58V46.42H106.3v16.2h-1.32V45.76q0-.66.66-.66h14.82v-5.16h-5.76q-2.52 0-4.26-1.74-1.74-1.74-1.74-4.26v-6.96q0-.66.66-.66h23.52q.66 0 .66.66v6.96q0 2.52-1.74 4.26-1.74 1.74-4.26 1.74h-5.76v5.16h14.82q.72 0 .72.66v10.98q0 1.26-.48 2.34-.48 1.08-1.29 1.89-.81.81-1.92 1.29-1.11.48-2.37.48h-3.66v-1.32h3.66q1.92 0 3.3-1.38t1.38-3.3V46.42h-14.16v20.94h-1.32zm-10.44-39.72v6.3q0 1.92 1.38 3.3t3.3 1.38h12.84q1.92 0 3.3-1.38t1.38-3.3v-6.3h-22.2zm-7.2-6.18v7.14h-1.32v-7.86q0-.66.66-.66h7.14l-2.46-6.54 1.26-.48 2.64 7.02h9.72v-7.44h1.32v7.44h9.78l2.64-7.02 1.2.48-2.46 6.54h7.14q.72 0 .72.66v7.86h-1.38v-7.14h-36.6zM168.16 25v22.98q0 1.8-.69 3.42-.69 1.62-1.89 2.82-1.2 1.2-2.82 1.89-1.62.69-3.48.69-1.8 0-3.42-.69-1.62-.69-2.82-1.89-1.2-1.2-1.89-2.82-.69-1.62-.69-3.42V25q0-.66.66-.66h16.32q.72 0 .72.66zm-8.88 30.48q1.56 0 2.91-.6t2.37-1.62q1.02-1.02 1.62-2.37.6-1.35.6-2.91V25.66h-15v22.32q0 1.56.6 2.91t1.62 2.37q1.02 1.02 2.37 1.62 1.35.6 2.91.6zM146.2 15.34v-1.32h38.7v1.32h-5.04v43.2q0 1.8-.69 3.39t-1.86 2.76q-1.17 1.17-2.73 1.86-1.56.69-3.36.69h-7.74v-1.38h7.74q1.5 0 2.85-.57t2.34-1.56q.99-.99 1.56-2.31.57-1.32.57-2.88v-43.2H146.2zM212.62 25v22.98q0 1.8-.69 3.42-.69 1.62-1.89 2.82-1.2 1.2-2.82 1.89-1.62.69-3.48.69-1.8 0-3.42-.69-1.62-.69-2.82-1.89-1.2-1.2-1.89-2.82-.69-1.62-.69-3.42V25q0-.66.66-.66h16.32q.72 0 .72.66zm-8.88 30.48q1.56 0 2.91-.6t2.37-1.62q1.02-1.02 1.62-2.37.6-1.35.6-2.91V25.66h-15v22.32q0 1.56.6 2.91t1.62 2.37q1.02 1.02 2.37 1.62 1.35.6 2.91.6zm-13.08-40.14v-1.32h38.7v1.32h-5.04v43.2q0 1.8-.69 3.39t-1.86 2.76q-1.17 1.17-2.73 1.86-1.56.69-3.36.69h-7.74v-1.38h7.74q1.5 0 2.85-.57t2.34-1.56q.99-.99 1.56-2.31.57-1.32.57-2.88v-43.2h-32.34zm51.18 8.28v43.62h-1.32V26.98l-4.62 11.64-1.26-.48 10.14-25.62 1.26.48-4.2 10.62zm18.84 34.74v9h-1.32v-9h-7.5v-1.32h7.5V21.16H246.1v-1.32h13.26v-7.2h1.32v7.2h13.2v1.32h-13.2v35.88h7.44v1.32h-7.44zM252.88 25l1.32.18-7.08 42.18-1.32-.24L252.88 25zm14.1 0l7.2 42.12-1.32.24-7.2-42.12 1.32-.24zm40.38 5.82q.24.42.06.66l-11.58 22.26h10.98v1.38h-12.06q-.36 0-.54-.36-.24-.36-.06-.66l11.58-22.26h-10.98q-.36 0-.54-.3-.24-.36-.06-.66l9.54-18.3 1.14.66-9 17.28h10.98q.36 0 .54.3zm-.72 35.22v1.32h-12.66v-1.32h12.66zm19.44 1.32H315.4q-2.52 0-4.26-1.74-1.74-1.74-1.74-4.26v-45.9q0-.66.66-.66h21.36q.66 0 .66.66v45.9q0 2.52-1.74 4.26-1.74 1.74-4.26 1.74zm-4.68-51.24v21.12h9.36V16.12h-9.36zm0 22.44v27.48h4.68q1.92 0 3.3-1.38t1.38-3.3v-22.8h-9.36zm-10.68-22.44v21.12h9.36V16.12h-9.36zm0 22.44v22.8q0 1.92 1.38 3.3t3.3 1.38h4.68V38.56h-9.36zm34.92-14.94v43.62h-1.32V26.98l-4.62 11.64-1.26-.48 10.14-25.62 1.26.48-4.2 10.62zm18.84 34.74v9h-1.32v-9h-7.5v-1.32h7.5V21.16H349.9v-1.32h13.26v-7.2h1.32v7.2h13.2v1.32h-13.2v35.88h7.44v1.32h-7.44zM356.68 25l1.32.18-7.08 42.18-1.32-.24L356.68 25zm14.1 0l7.2 42.12-1.32.24-7.2-42.12 1.32-.24z"/></svg>