<svg viewBox="0 0 571 80" xmlns="http://www.w3.org/2000/svg"><path d="M45.8 47.82q.48 0 .78.33.3.33.3 1.11 0 1.74-.33 3.15t-.81 1.41l-1.08-.06q-3.18.54-5.43.84-2.25.3-4.59.3l-1.44-.06q-.18.3-.93.54-.75.24-1.29.24-4.2-.3-7.77-3.03-3.57-2.73-5.7-6.81-2.13-4.08-2.13-8.28 0-6.12 2.64-11.4t7.41-8.46q4.77-3.18 10.89-3.18 3.06 0 5.13.24t3.75 1.47q1.68 1.23 1.68 3.87 0 .42-.24.96t-.66.54q-.66 0-1.56-.27t-1.8-.57q-1.62-.54-2.55-.78-.93-.24-1.89-.24-2.04 0-4.02.48-1.98.48-4.32 1.38-4.56 1.68-6.18 6.06t-1.62 10.26l.06 1.5q.6.18.84 2.7.12 1.08.24 1.32 1.68 3.9 5.85 5.28 4.17 1.38 9.57 1.38 1.08 0 2.13-.33 1.05-.33 2.73-1.05 1.68-.84 2.34-.84zm-4.98-31.56q-.6.06-.99.48l-.39.42q.48 0 .93-.24.45-.24.45-.66zm1.8.06q-.18 0-.39.45-.21.45-.21.75h.72q-.36.6-.36 1.26.6 0 1.08-.36.48-.36.48-.9t-.39-.87q-.39-.33-.93-.33zm-7.2.06H33.5q0 .48.84 1.14l1.08-1.14zm1.5 0v.42q.48 0 .72-.42h-.72zm.72 1.5q.48 0 .78-.48.3-.48.3-1.02l-1.44 1.44.36.06zm4.08-1.14l-.18-.06q-.54 0-.99.69-.45.69-.45 1.17.66 0 1.08-.54.42-.54.54-1.26zm-9.6 0q-.48 0-1.56.63t-1.08.81l.36.78q2.94-2.1 2.94-2.22h-.66zm4.08.36l-.42-.06q-.42 0-.63.3-.21.3-.51.84l.42.06q.66 0 1.14-1.14zm-3 .72h-.18q-.84 0-2.4 1.86 1.32-.06 2.58-1.86zm11.88 0q-.36.24-.57.6-.21.36-.21.72 0 .6.78.6v-1.92zm-17.7 1.02q-.72 0-1.2.48t-.48 1.26q.6 0 1.14-.57.54-.57.54-1.17zm1.02.3l-.06-.18-1.02 1.5q1.08-1.08 1.08-1.32zm-7.44 4.98v.84q.9-.6 2.04-.96.72-.3 1.05-.54.33-.24.48-.9.15-.66.15-2.1l-3.72 3.66zm.96 1.02q-.66 0-1.38.45-.72.45-.72.99l.06.18q.18-.06.72-.33t.93-.6q.39-.33.39-.69zm-1.14 2.82q.6 0 .99-.39t.39-.99l-.06-.18q-.54.12-1.02.57-.48.45-.84.87.12.06.27.09.15.03.27.03zm-2.46 2.34v.48l2.34-1.44v-.36h-1.92q-.42 0-.42 1.32zm2.34-.24q-.36 0-1.08.57-.72.57-1.26 1.29 1.38 0 2.01-.21.63-.21.63-1.29 0-.06-.12-.18l-.18-.18zm.12 2.46q-1.68 0-2.43.45-.75.45-.75 1.95l.06.66q1.26-.78 2.19-1.53.93-.75.93-1.53zm-1.44 3.12q1.38 0 1.38-.96 0-.48-.06-.6-1.62.66-2.34 1.5l1.02.06zm-2.22 1.14q0 1.5.78 1.5.42 0 1.14-.63t1.2-1.23h-3.12v.36zm3.54 1.08q0-.12-.24-.24l-.36-.18q-.54 0-1.26.63t-.78 1.29q1.32 0 1.98-.24.66-.24.66-1.26zm-3 2.58q0 .42.15.96t.21.54h.72l1.92-1.86v-.42q-3 0-3 .78zm27 11.1V50.4q-4.98 1.56-7.38 1.56-.66 0-3.42-.42-1.2-.24-5.94-1.68-1.2-.36-2.88-.84t-1.86-.48l.72-.66q-.18-.42-.42-.42-.18 0-.36.06t-.36.06q0-1.02-.21-1.5t-1.23-.48q.54-.3.78-1.08-1.02 0-1.02-1.32h-1.2q.36-.24.9-.48t.54-.48q0-.24-.12-.69-.12-.45-.24-.75-.6.12-1.41.81-.81.69-.81 1.23.12.48.39 1.29t.45 1.17q.42 0 1.08-.48-.12.06-.27.33-.15.27-.15.45 0 2.52 1.86 3.75t3.78 1.83q1.92.6 2.46.78h.06q.24 0 .57-.18.33-.18.51-.24-.06.72 2.37 1.08 2.43.36 3.93.36 2.4 0 5.13-.39t3.75-1.05zm-24-6.72zm50.52 3.6q0 .36.36.54.36.18 1.26.42 1.26.36 1.86.75.6.39.6 1.17 0 2.58-1.5 3.42-1.86-.6-2.58-.72t-2.7-1.56q-1.02-.72-1.14-.72-.48 0-1.35.6-.87.6-1.11.6-1.44.66-2.58 1.02-1.14.36-2.4.36-2.34 0-4.74-.96-2.4-.96-4.02-2.91-1.62-1.95-1.62-4.83 0-.78.45-2.49.45-1.71.81-2.49 1.14-1.62 3.3-2.4 2.16-.78 5.64-1.38 2.76-.54 3.96-.99 1.2-.45 1.2-1.35 0-1.8-1.17-3.03-1.17-1.23-3.27-1.23-.84 0-1.62.24-.78.24-2.04.78-1.8.84-2.64.84-1.56 0-1.56-3.18 0-2.16 1.74-2.85t4.5-.69q.54 0 1.41.12.87.12 1.29.18 1.62.3 2.64.3l1.38-.06q1.5 0 1.5 1.14.72 0 1.08.21.36.21.36.87 1.68 0 2.4 2.76t.72 5.16q0 1.62-.48 4.62t-.48 4.44q0 .36.12 1.05.12.69.12 1.05l-.06.54.36.66zm-11.1-20.4q.72 0 1.56.24.78.3 1.74.3 0-1.38-.66-1.38-.24 0-.51.09t-.57.09l-1.56-.06q-1.98 0-3.06.15t-2.88.75q0 .24.15.72t.27.6q.66 0 2.13-.45 1.47-.45 1.89-1.05l.6.48q.06 0 .36-.24t.54-.24zm4.26 1.56q.6 0 1.5-.27t.9-.69q0-.6-1.62-.6-.54 0-.96.45-.42.45-.42 1.05l.6.06zm2.88-.36l-1.2 1.92q0 .18.24.42t.54.24q.84 0 1.17-.24.33-.24.33-.84 0-.42-.33-.96t-.75-.54zm1.74 2.88q-.18.06-.84.24-.66.18-1.05.57-.39.39-.39.93 1.14 0 2.28-1.74zm.72 2.16q0-.24-.21-.54-.21-.3-.33-.3-.36 0-1.05.45-.69.45-.99.87l2.22.36q0-.12.18-.42t.18-.42zm-4.02 1.86l2.1-.3-1.56-.36-.54.66zm.36 1.2q.12.36.45.48t1.05.27q.72.15 1.02.33-.36.6-.9.84-.3.18-.45.42-.15.24-.15.96 0 .84.3 1.74.24 1.08.24 1.74 0 .6-.18 1.44 1.32-.3 1.92-2.64.6-2.34.6-4.98 0-1.56-.18-2.16-.6 0-1.77.54t-1.95 1.02zm-1.62.42q-.36 0-.78.18-.42.18-.54.48.3.12.87.24.57.12.93.18l.54-.18q.36-.12.6-.24-.3-.18-.84-.39-.54-.21-.78-.27zm-2.46.66l-.54-.54-1.68.84 2.22-.3zm-7.8 4.44q.12 0 .48-.45t.36-.63h-1.62q.24-.36.93-.66.69-.3 1.47-.54 1.26-.42 2.04-.81.78-.39 1.14-.93h-.24q-1.14 0-1.89.18t-.81.9q-.48.18-1.29.45t-1.32.66q-.51.39-.75 1.05.12.18.72.48t.78.3zm4.44 6.72q.96 0 2.7-.48 1.74-.48 3.06-1.29t1.32-1.83v-.24q0-2.76-.57-4.32-.57-1.56-2.73-1.56-.3 0-.9.27-.6.27-.84.27-.66 0-1.71.72-1.05.72-1.41.96-.36.24-.63.75t-.51.99q-.36.84-.69 1.29-.33.45-.87.45 0 1.86.96 2.94.96 1.08 2.82 1.08zm-6.66-6.72q-.18 0-.3.48t-.12.72q.42 0 .84-.24t.72-.54q-.24-.12-.57-.24-.33-.12-.57-.18zm1.86 1.86q.18-.18.18-.6 0-.06-.3-.06-.54 0-1.23.18t-.87.48h2.22zm15.3.6q-.48 0-.93.45-.45.45-.45.93.78 0 1.08-.3.3-.3.3-1.08zm-17.16.12q-.18 0-.48.24t-.3.36l.06.18q.18 0 .48-.18t.3-.3l-.06-.3zm1.26.66q-.78 0-1.26.9 1.26 0 1.26-.9zM67.1 48q.06.12.24.27.18.15.36.15.24-.12.72-.51t.48-.57q0-.18-.24-.18-.36 0-.87.27t-.69.57zm-15 1.26q.42 0 .72-.72t.3-1.08q-.6 0-1.17.24t-.75.72q.06.24.39.51t.51.33zm16.32.24q0 .18.15.36t.27.18q1.02 0 1.02-1.56-.36 0-.9.3t-.54.72zm-15.36 0q.9-.12.9-.84-.78 0-.9.84zm11.46 1.62q.6 0 1.08-.57.48-.57.48-1.23l-.06-.54q-.18.06-.45.36t-.33.42q0 .12.06.21l.06.09h-.84v1.26zm-1.14.66q.12 0 .24-.63t.18-.93q-.96 0-1.98.63t-1.02 1.59l2.58-.66zm6.12-.3q.48-.3.48-.78h-.9q0 .54.42.78zm1.02.18q1.02 0 1.2-.42-.3-.48-.54-.48-.3 0-.48.3t-.18.6zm-15.3-.24q.24.12.87.45t.93.33q0-.3-.45-.78-.45-.48-.69-.48-.42 0-.66.48zm3.9 1.5q.24 0 .39-.39.15-.39.15-.75l-.3-.06q-.72 0-1.14.72.78.48.9.48zm12.06-.48q0 .6 2.28.6 0-.54-.09-.9t-.51-.36q-.48 0-.99.18t-.69.48zm10.32.66l-.42-4.8q0-3.18.06-5.88.06-2.7.12-4.86.24-8.64.24-13.8v-2.22q0-2.22.12-4.08.12-1.86.6-4.38.12-.72.63-.93.51-.21 1.35-.21 1.86 0 2.52.45.66.45.66 1.65 0 .36-.18.75t-.54.57l.42.3q-.06.24-.06 1.38 0 .24.6 9.06l.12 1.44.42.42q2.1-1.14 4.71-1.53 2.61-.39 5.67-.39.06.24.69.51.63.27 1.41.51 1.92.72 3 1.32 1.08.6 1.08 1.5 1.02 0 1.62 1.26.6 1.26 1.2 3.54.42 1.62.69 2.34.27.72.69.9-.06.18-.06 1.26 0 .48.09.99t.09.75q.18.9.18 1.8l-.3 1.5q.06.06.15.18t.15.18q0 .96-1.14 2.58-2.04 3.66-5.19 5.34-3.15 1.68-7.53 1.68-1.44 0-3.84-.96-2.22-.9-3.54-.9-.18 0-.48.57t-.6.93q-.3.36-.9.36-1.2 0-2.46-.27t-2.04-.81zm1.8-22.2h3.36q-.78-1.2-1.05-2.55-.27-1.35-.27-3.09l.06-3.3h-.24l.42-.72v-6.72q0-.36-.54-.69-.54-.33-.96-.33-.54 0-.69.3-.15.3-.15.96 0 1.32.21 1.44.21.12.21.24 0 .18-.33.9t-.33.96q0 .06.33.36t.33.36q0 .24-.21.69-.21.45-.21 1.41 0 1.62.84 1.62l-.78 1.5.78.3-.24-.06q-.6 0-.6 1.08 0 .78.21.99.21.21.21.33 0 .18-.12.51t-.24.57l1.2.48h-1.2v2.46zm19.62 18.3l-.06.06q0 .12.18.3t.36.18q.42-.54 1.02-.9.48-.36.69-.72.21-.36.21-1.08.78 0 1.26-.18t.48-.84l-.18-.36q-.12-.24-.24-.36h.78q.36 0 .36-2.58 0-9.84-4.38-12.6l.06-.12q0-.36-1.68-.81-1.68-.45-3.51-.81-1.83-.36-2.55-.42-2.52 0-4.29.78t-3.69 2.52l.42.36 2.22-1.86q.3 0 2.82-.36 3.48-.42 3.9-.42l2.1.06q1.32 1.56 2.04 1.56l.24-.06 1.44 3.3.72-.42v1.92q.54 0 .84.57.3.57.6 1.77.24.96.42 1.32-.12 0-.24.24t-.12.36q0 .12.36.48-.06.3-.15.66-.09.36-.15.54 0 .42.18.63.18.21.63.51.45.3.45.78h-.42q-.24 0-.39.12-.15.12-.15.54 0 .3.09.45.09.15.39.27-.48.24-.66.48-.18.24-.18.66 0 .54.36.72-.84 0-1.71.99t-.87 1.77zm-18.6-19.08h.18l-.84.42q.24-.42.66-.42zm6.9 18.78q.42 0 1.26.33.84.33.84.51v.36h3.78l.3.36.36-.72q.36-.18 1.44-.63t1.38-.45q1.74 0 2.43-2.34.69-2.34.69-4.68 0-1.92-.66-4.47t-2.1-4.41Q99.5 30.9 97.4 30.9q-.48 0-5.52.36-1.5.36-2.67 2.07t-1.86 3.84q-.69 2.13-.69 3.33 0 1.92.78 3.21t2.22 2.79q.78.84 1.17 1.38.39.54.39 1.02zm-7.14-17.34q-.6 0-.78.42l.36.06q.36 0 .54-.06.18-.06.3-.36l-.42-.06zm2.76.06q-.78 0-1.53.3t-1.23.84h.42q.18 0 1.23-.51t1.35-.63h-.24zm.24 1.14q-1.02.24-2.25.81-1.23.57-1.23 1.47 3.54 0 3.54-1.74l-.06-.54zm-3.78 3.3v2.22h.36l1.92-1.86v-.36H83.3zm1.44 1.86q-.36.36-.36.84.48 0 .78-.48l-.42-.36zm-1.44 3.84q1.56 0 1.56-.96-.54 0-1.2.48 0-.24.57-.9t.57-.78q0-.24-.54-.42T83.3 39v2.76zm1.32.54q-1.38 0-1.38.84l.06.3q.42-.12.87-.42t.45-.72zm-1.32 2.28h2.04v-.18q0-1.14-.6-1.26l-1.44 1.44zm1.32.72q-1.38 0-1.38.84.84 0 1.92-.84h-.54zm1.32.42q-.42 0-1.53.6t-1.11.84v.42q1.2 0 2.28-.48 1.08-.48 1.08-.66 0-.48-.18-.6t-.54-.12zm-.36 2.58q.12 0 1.62.57t2.04.57q-.3-.3-.63-.87-.33-.57-.6-.84-.27-.27-.75-.27-.6 0-.93.18-.33.18-.75.66zm-1.08-.42q-.9.36-1.08.84-.18.48-.18 1.11v.87q1.08 0 1.92-1.26h-.54q-.96 0-.96-.48l.84-1.08zm4.74 2.22q.78.9 1.2.9 0-.42-.21-.69-.21-.27-.57-.27l-.42.06zm13.14 0q-.54 0-1.5.39t-.96.93l.06.12q1.68-.18 2.64-1.44h-.24zm-17.22.36q-.6.54-.9.87-.3.33-.3.81h.24q.66 0 1.02-.15t.36-.69q0-.36-.06-.54-.06-.18-.36-.3zm11.46 1.86l.6.06q1.74 0 1.98-.84l-2.58.78zm-3.66-.3q.36.36 1.2.36l1.8-.06q-.54-.24-1.02-.3t-1.08-.06l-.9.06zm22.68-38.16q.06-.12 1.26-.27 1.2-.15 2.04-.15.48 0 1.17.27t.69.51v4.44q0 .78-1.08.78-1.44 0-3.15-.24t-1.71-.9v-3.78l.78-.66zm.54 1.44q0 .6.24 1.23t.78.63q1.08 0 1.53-.18.45-.18.45-.9 0-.3-.24-.78-.18.06-.45.24t-.63.18l.42-.42h-2.1zm.18 38.1q-.12-.42-.54-1.02-.42-.6-.54-1.14-.84-3.48-1.08-7.29-.24-3.81-.24-9.03V33q0-3.78.66-5.76t2.88-1.98q2.22 0 3.03 1.89.81 1.89.81 4.89 0 3.3-.48 7.26-.42 3.06-.42 5.4 0 1.5.24 4.38.06.72.12 1.74t.06 2.4q0 .96-.78.96-.72-.12-1.83-.36t-1.89-.42zm0-24.36h.6q2.4 0 2.4-.72t-.15-.96q-.15-.24-.57-.24-.12 0-.54.21-.42.21-.6.21-.12 0-.3-.21t-.48-.21q-.42 0-.63.15-.21.15-.45.63.48.48.9.48l.18-.06-.36.72zm-.72 1.68l-.06.06q0 .12.15.27.15.15.27.15.54 0 1.32-.81t.96-.99h-.24q-.48 0-1.44.3t-.96 1.02zm3.84-1.2q-1.56 0-3.12 2.76.84-.3 1.92-.3.54 0 .78-.12t.33-.63q.09-.51.09-1.71zm-3.84 4.98q0 .12.15.27.15.15.21.15 1.32-.72 2.58-2.16l-.54-.06q-.96 0-1.68.45t-.72 1.35zm3.72-1.38q-1.62.84-2.22 2.16l.54.06q.42 0 1.05-.09.63-.09.63-.33v-1.8zm-2.22 5.58q2.7 0 2.7-2.64h-.48l-2.22 2.22v.42zm0-2.34q-1.2 0-1.2 1.02l.06.6 1.5-1.56-.36-.06zm.78 2.94q-.78 0-1.5.48t-.72 1.2q.66 0 1.44-.51.78-.51.78-1.17zm1.02.42q-.24.12-1.29 1.08-1.05.96-1.65 1.56h2.94q.36 0 .45-.75.09-.75.09-1.89h-.54zM116 43.8q0 .78.36.78l1.92-1.5v-.36q-2.28.3-2.28 1.08zm.36 2.34q1.5 0 2.07-.6.57-.6.57-2.1h-.42l-2.22 2.22v.48zm0 1.38q0 .18.12.39.12.21.24.33l1.56-1.44-.6-.06q-1.14 0-1.32.78zm0 3.36q.24.66.99.81.75.15 1.77.15 0-.54-.33-.93t-.33-.45l.36-.18q.36-.18.36-2.76h-.9q-.12 0-.87.96t-.75 1.2v.06h1.62l-1.92 1.14zm33.24 3.06q0-1.02-.54-1.74l.06-2.04q.12-2.76.12-4.14 0-6.42-1.26-11.28-.84-.72-1.44-1.38-.84-.9-1.62-1.26-.78-.36-2.64-.36-1.32 0-2.58.39t-3.18 1.53q-.72.42-.96 1.29-.24.87-.24 2.19 0 3.24.12 5.13.12 1.89.72 3.57v7.74q0 .36-.54.36-1.8-.12-3.3-.24-1.5-.12-1.68-.12l-1.14-.72q-.06-.06-.21-3.36t-.15-5.88q0-2.46.18-4.62.24-3.48.24-6.66L129.5 27q.42-.3 1.11-.51.69-.21 1.11-.21.84 0 1.32.42.48.42.9 1.2.54.9.96.9.78 0 1.5-.33t1.98-.99q1.5-.84 2.43-1.23.93-.39 2.01-.39 1.86 0 5.76 1.68l1.32.54q3.54 1.38 4.77 6.33 1.23 4.95 1.23 10.47 0 1.56-.3 3.48-.24 2.28-.24 3.36 0 .78.06 1.14-.6 0-.66.6-.06.6-.48.99t-2.22.39q.12-.36.12-.66 0-.12-.06-.12-.12.06-.45.33t-.63.33q-.66 0-1.14-.3l-.3-.48zm-8.64-24.36q.9 0 2.46.21t2.34.51q.24.06 1.14.84.12.06.69.54.57.48.99.48.48 0 .48-.42l-.3-.3q.12-.24.63-.48t.51-.48q0-.6-1.32-.6-.42 0-.75.21t-.57.21q-.3-.42-.54-.42l-.12.06.3-.72q-.42-.42-1.2-.42-.36 0-.9.09t-.84.09v-1.2q-2.28 0-2.58 1.02v-.72q-.24.18-.72.27-.48.09-.6.15-1.02.18-1.53.45t-.51.93q0 .06.18.18t.18.24l.78-.72.36.36h.18q.18-.06.54-.3.36-.24.36-.42l.36.36zM131 47.82q.54 0 1.77-1.92t1.23-2.76q0-.78-.06-1.35-.06-.57-.12-.99-.24-1.44-.24-2.28 0-.48.06-.78l-.78.3q.42-.6.57-.99.15-.39.27-1.05l.24-1.26q.3-1.14.93-1.92.63-.78 1.53-1.44.96-.72.96-1.14 0-.18-.06-.3-.42.12-1.38.96-.12.06-.6.45t-.78.39q-.54 0-.78-.27t-.54-.93q-.24-.48-.45-.75-.21-.27-.63-.27-.24 0-.42.06.12-.12.24-.36t.12-.42q0-.18-.27-.27-.27-.09-.33-.15-.06 0-.27.48-.21.48-.21.72 0 1.08.24 2.88.18 1.08.18 1.74l-.06 1.26q.12 0 .24.15t.12.21q0 .48-.36 1.44-.36 1.08-.36 1.56h1.5l-1.14 1.08.36.42q-.72.54-.96 1.14-.24.6-.24 1.62 1.14 0 1.56-.96 0 .24.12.24 0 .06-.63.9-.63.84-.63 1.02h1.92l-1.86.84v2.7zm18.9-13.38q.78-.36.96-.75.18-.39.18-1.17v-.24q0-.78-.42-.84-1.56.6-1.56 1.86h1.2l-.78.72.42.42zm2.22 1.02q-.72.12-1.26.54-.54.42-.54 1.08.78 0 1.65-.78.87-.78.87-1.56 0-.24-.3-.66-.3-.42-.6-.42-.66 0-1.2.57-.54.57-.54 1.23h1.92zm.72.72q-.78.24-1.44.9-.66.66-.66 1.38 1.08 0 1.77-.21t.69-.93q0-.3-.06-.57-.06-.27-.3-.57zm-1.14 2.64q-.78 0-.78.72l.06.36q.24-.06.48-.39t.3-.51l-.06-.18zm-.36 1.62v.84q0 .9-.12 1.26 1.02 0 1.74-.9t.72-1.98l-.12-.84q-.9.36-1.56.75t-.66.87zm1.14 6.3q-.96.24-.96 1.44.96 0 1.89-.9.93-.9.93-1.8 0-.24-.06-.36-.36-3.48-.48-3.48t-1.14.75q-1.02.75-1.02 1.11 0 .12.18.3t.3.18q-.48 0-.72.36t-.24.78q.6 0 1.32-.6.6-.48 1.08-.48v.24q-1.74.96-2.16 2.46h1.08zm-18-1.92q-.6 0-1.53.96t-.93 1.56h1.92q.24 0 .39-.81.15-.81.15-1.71zm19.44 2.52q-1.62 1.2-1.98 2.22-.36 1.02-.36 3.3h2.22q0-1.92-.96-2.22.18-.06.63-.33t.45-.39v-2.58zm-21.06.72q-1.2 0-1.8.36-.6.36-.6 1.5h.9l1.86-1.86h-.36zm-.36 2.58q-.18.3-.57.48-.39.18-.57.39-.18.21-.18.69h3.18q.12-.06.24-.24t.12-.3q0-.24-.21-.69-.21-.45-.21-.57 0-.12.3-.3t.48-.18q-.24-.12-.33-.54-.09-.42-.18-.69-.09-.27-.39-.27-.72 0-1.71 1.05t-1.11 1.17h1.14zm48.3 3.66q-.12-.12-.24-.12-.18 0-.3.06t-.24.06q-1.56 0-2.73-1.11t-1.71-2.55q.9 0 1.29-.75t.75-2.07q.24-1.26.54-1.26l5.16 3q.12 0 .39-.06t.69-.06q.72 0 .78.36l1.44-.06q1.08 0 1.56.24t.72.24q3.6 0 6.99-1.29t3.39-4.41q0-1.32-.78-2.94-.78-1.62-1.86-2.04l-16.26-7.08q-2.28-.96-3.36-3.09t-1.08-4.89q0-1.26.51-2.37t1.14-2.04q.63-.93.87-1.29 1.86-2.46 5.25-3.48 3.39-1.02 7.29-1.02.48 0 1.47.21t2.73.21q1.5.24 3.51.63t2.07.45l1.08 1.14v4.44q0 .3-.54 1.11t-.78.81q-.66-.3-3.12-1.5-2.76-1.38-4.47-2.07t-3.51-.69q-3.3 0-5.97 1.41t-2.67 4.47q0 .9.93 2.07t2.19 2.04q1.26.87 1.98.87l.78-.06q1.56.48 3.42 1.74 1.44 1.02 2.67 1.5t3.15.48q2.04.42 4.11 1.74 2.07 1.32 3.45 3.21 1.38 1.89 1.38 3.93 0 .9-.24 1.71-.24.81-.3.99-.36.78-.54 1.8-.78 2.88-1.17 3.81-.39.93-1.41 1.53t-3.42.96l-.18.18-.18.18q-2.04.78-3.78 1.17-1.74.39-3.6.39-2.16 0-4.92-.27t-4.32-.57zm18.06-34.8q0 .48.24.72t.9.42l.78-2.94q0-.48-4.11-1.2t-5.91-.72q-.12.06-.27.27-.15.21-.15.33 0 .6.9.6h.3q.96 0 1.02-.48.12.54.54.9.42.36.9.36.42 0 .57-.09.15-.09.21-.39l1.14 1.08 1.14-1.08v1.2q.18-.06.69-.27.51-.21 1.11-.51l.42.06q0 .3-.21.9-.21.6-.21.84zm-11.1-3q.12.12.36.24l.36.18q.36 0 .84-.21t.48-.51q-.3 0-.9.09-.6.09-1.14.21zm-2.82.36q-.78 0-1.92.45t-1.14.99q0 .12.48.12.6 0 1.59-.51.99-.51.99-1.05zm13.38 1.5q-.18.06-.39.27-.21.21-.21.39l.06.12.72-.78h-.18zm-17.22.78q-.72.24-1.29.93-.57.69-.57 1.41.84 0 1.35-.66.51-.66.51-1.68zm-1.5 2.82q-1.32 0-1.44.54h1.44v-.54zm-1.86 1.26q0 .42.21.81.21.39.51.39.42 0 .66-.39.24-.39.24-.81h-1.62zm-.06 2.16q0 1.2.66 1.2t.66-1.2h-1.32zm.48 1.86l.3.06q.36 0 .63-.15t.27-.45l-.06-.12-1.14.66zm.3.78v.36h.84v-.36h-.84zm1.74.3q-.12 0-.33.27-.21.27-.27.57l.42.06q.6 0 .78-.42-.12-.24-.3-.36t-.3-.12zm.12 1.74l-.06.06q0 .12.36.27.36.15.48.27.9 0 .9-1.2-.54 0-1.11.18-.57.18-.57.42zm2.46.12q-.3 0-.39.3-.09.3-.15.42h1.62q0-.3-.36-.51-.36-.21-.72-.21zm1.26 1.56q.18.18.75.45.57.27.81.27.12 0 .42-.27t.3-.45l-.42-.36-1.86.36zm2.58.3q0 .72.51.84t1.53.12q0-.96-2.04-.96zm3.72 1.92q.78.78 1.56.78l.36-.06q-1.56-.72-1.92-.72zM194 35.4l.48.42.3-.42H194zm1.2.78q.48.6 1.2 1.11.72.51 1.38.51v-.54h-.36q.12-.12.24-.3t.12-.3q0-.9-1.32-.9h-.3q-.9 0-.96.42zm4.26 1.44q-1.08 0-1.08.72h2.58q0-.72-1.5-.72zm1.98 3.36q-.84.12-.84.96.54 0 1.08-.33t.9-.75q.36-.42.36-.54 0-.6-.48-.9-.48-.3-1.02-.3-.36.06-1.08.3-.72.24-.72.42v.42l1.8.72zm-.36 2.04q0 .6.84.6 1.14 0 1.35-.51.21-.51.21-1.89-.6 0-1.5.63t-.9 1.17zm.36 3.54q-.84.12-.84.9 1.08 0 1.59-.84t.51-2.04q-.42 0-1.02.33-.6.33-.6.69 0 .36.36.96zm-11.1 5.16q0 .66.6 1.11.6.45 1.26.45h.18q.84 0 .96-.48 3.36-.48 5.61-1.32 2.25-.84 2.49-3.12-.42-.36-1.14-.36-.24 0-.72 1.02-.42.96-.87 1.5t-1.11.54q-.12 0-.42-.21t-.54-.21q-.84 0-2.4.24-.42.06-.9.12-.48.06-.96.06-1.08 0-1.26-.06-.18.12-.45.33-.27.21-.33.39zm-11.52-.24q0 .6.3.81.3.21.9.21.42 0 .78-.33.36-.33.36-1.05l-.06-.12-1.5.72-.3-.12v-.24q.12-.06.87-.39t.93-.75q-.06-.12-.39-.27-.33-.15-.63-.15-.6 0-.93.6-.33.6-.33 1.08zm4.2-.84q-.84 0-1.23.51t-.39 1.29h.84l-.36-.3q.42-.3.78-.78.36-.48.36-.72zm0 1.8q.18.06.57.24.39.18.93.18.66 0 1.08-.6.42-.6.42-1.32-3 0-3 1.5zm5.46-1.08q-1.26 0-1.62.39-.36.39-.36 1.47h3.12l.18-.18q.12-.12.18-.24 0-.84-.36-1.14-.36-.3-1.14-.3zm3.78.78l.18-.06q.12 0 .48.36h-.66v-.3zM222.2 40.5q1.86 2.7 4.68 6.3 3.42 4.56 3.84 5.16.24.3.3.57.06.27.06.57 0 .78-.36.78h-4.86q-.12-.54-1.38-.54-2.22-2.28-3.57-3.96-1.35-1.68-2.07-4.02l-2.22-2.22h-.42l.06 4.44q0 2.1-.24 4.38t-.84 2.28h-4.08l-.18-.36q-.12-.24-.18-.42-.42-5.22-.42-16.08v-8.7q.06-.12.24-.42t.18-.54q0-.18-.57-.96t-.57-.84q0-.12.12-.45t.3-.51q0-2.46.27-7.14t.45-4.68h4.8l.36.36q-.06.6-.06 1.8 0 1.98.18 4.32.18 2.34.24 3.06.42 4.32.42 7.32l-.06 2.94q0 2.22.42 4.26 1.92-1.74 4.62-4.98 2.7-3.3 4.62-4.98.24-.12.99-.27.75-.15 1.23-.15 1.26 0 1.92.24.66.24.66 1.14 0 .54-.12.78t-.6.84q-4.56 5.04-8.16 10.68zM213.02 15q-.6 0-.75.72-.15.72-.15 1.29v.69q1.98 0 1.98-1.62 0-.66-.18-.87-.18-.21-.9-.21zm1.44 8.28q0-.9-.21-1.23-.21-.33-.21-.45.06-.06.18-.3t.18-.42q0-1.62-.36-3.3l-1.86.78v6.72q2.28 0 2.28-1.8zm13.32 5.34q-.84 0-.84.6 0 .18.21.39.21.21.39.21.42 0 .96-.78-.12-.3-.27-.36-.15-.06-.45-.06zm-15.6 1.5q.84-.48.84-1.08h-.84v1.08zm2.22.42l-.66.36.66.36v-.72zm11.88 0q-.06 0-1.14.36h1.56q-.06-.12-.18-.21t-.24-.15zm.36 21.84q.48 0 1.44-.42-.84 0-.84-.72 0-.12.12-.36-.12-.24-.75-1.44t-1.53-2.1q-.9-.9-1.8-.9.12-.06.27-.15.15-.09.15-.27 0-.72-.93-1.11-.93-.39-1.71-.51h1.56q-.18-.36-.42-.78-.24-.42-.42-.54-.12 0-.42.18t-.42.18q0-1.5-.33-2.07-.33-.57-1.65-1.11h.12q.78 0 2.22-1.74 1.44-1.74 2.82-3.9t1.74-2.94h-1.08q-1.62 2.16-2.7 3.33t-2.46 1.83l.36.36q-.48.24-1.02.78-.36.36-.72.54-.36.18-.96.18-.42-.12-1.26-.51-.84-.39-1.2-.63l-.42.42q0 .3 1.14 1.5t2.34 2.4q2.1 1.98 2.1 2.16 0 .48 1.05 1.8l1.29 1.62q1.62 1.98 1.74 2.34.24.9 1.02 1.74t1.56.84zm-14.46-18.54l.42-.36h-.42v.36zm2.76.36q-.9 0-.9.78.42-.06.66-.27.24-.21.24-.51zm-1.98 2.64q-.54 0-.78.36t-.24.84q.9 0 1.02-1.2zm6 3.42l-.12-.06.12.06zM213.98 42q0-.12-.06-.24t-.18-.12q-.3 0-.3.36t.3.36q.12 0 .18-.12t.06-.24zm-1.2 6.36q.18 0 .6-1.02t.42-1.32q-.6 0-1.11.3-.51.3-.51.84 0 1.2.6 1.2zm.48 4.62q.48 0 .81-.27.33-.27.33-.75 0-.06-.15-.36t-.21-.36q-.78.54-.78 1.74zm23.16-12.12q0-3 1.08-6.6 1.08-3.6 2.64-6.18l.12.06q.36 0 1.5-.78 1.08-.72 1.38-.72.42-.12 2.19-.54 1.77-.42 3.33-.42v.54q.84-.3 1.53-.36.69-.06 1.41-.06 1.86 0 3.63.36 1.77.36 1.77 1.26 1.5 0 2.37 1.05.87 1.05 1.71 2.85.3.66.63 1.2.33.54.63.72v5.16l-1.08.78.3.36q-1.62 1.26-7.08 1.26h-3.12q-3 0-3.93-.06-.93-.06-3.63-.48-.06-.36-.36-.36-.12 0-.3.06t-.36.06q0 1.74.45 3.84.45 2.1 1.35 3.06.48.54 2.64 1.32 1.08.36 1.44.54 1.08.78 1.86.78 1.38 0 3-.36t1.86-.42Q258.26 48 260 48q.78 0 1.05.69t.27 1.77q0 1.14-.18 1.44-.18.3-.66.39-.48.09-.78.51-.36.12-7.02 1.2-2.52 0-4.47-.12-1.95-.12-3.63-.66-1.86-.6-3.75-2.82-1.89-2.22-3.15-4.92-1.26-2.7-1.26-4.62zm18.96-11.46q0 .48 1.08 1.44t1.44.96q.36 0 .96-.24t.6-.54q0-.36-.24-1.05-.24-.69-.24-.81 0 .18-.27.27-.27.09-.45.09-.48-.06-1.11-.48-.63-.42-.63-.96-1.74 0-1.74-.84-.12 0-.48.42t-1.32.42q-.3 0-.6-.24t-.78-.24l-.78.06q.12.06.57.78.45.72.75.78.12 0 .45-.21t.57-.21q.24.06.9.33t1.32.27zm-16.74 12.36l.6.06q.54 0 1.11-.27.57-.27.57-.75 0-.12-.18-.39t-.18-.51q.12-.42.42-1.05.3-.63.3-1.29 0-.48-.21-.69-.21-.21-.6-.39-.39-.18-.39-.42t.39-1.11q.39-.87.39-1.17 0-.6 1.14-1.98.66-.9 1.02-1.44.36-.54.36-1.08.24 0 .66.12.42.12.84.12.18 0 .24-.33t.18-.39q.48-.18 1.92-.18 1.38-.06 2.1-.15.72-.09.78-.39-.66-.3-1.26-.39-.6-.09-1.56-.09-4.08 0-6.21 2.76t-2.13 6.96h1.92v.36l-2.22 2.22v1.14l.72-.42-.72 1.14zm4.08-6.96q.3.6 3.51.81 3.21.21 5.37.21 1.08 0 2.88-.24 1.68-.24 2.76-.24 0-.3-.42-1.23-.42-.93-.66-.93l-.12.06q-.42-1.26-2.67-2.1-2.25-.84-3.81-.84-2.4 0-4.2 1.14-1.8 1.14-2.64 3.36zm16.74 1.26q0 .9-.6 1.17-.6.27-1.74.27-.96.06-1.44.24t-.48.78q1.98 0 3.12-.12 1.14-.12 1.38-.72.3.48.84.48 0-.48-.21-1.05-.21-.57-.21-.87 0-.24.27-.42t.42-.42q.15-.24.15-.96 0-2.34-1.38-2.34-.6 0-.75.33-.15.33-.15 1.23.66 1.98.78 2.16v.24zm-16.26.72q-.54 0-.93.42t-.39.96q.78 0 1.05-.3t.27-1.08zm1.14.54q-.12 0-.69.54t-.93.96l1.26-.24q.12 0 .81-.15.69-.15 1.65-.75-.18-.06-1.86-.36h-.24zm2.1 1.08q1.2.42 2.1.42.54 0 .93-.36t.39-.9q-3 0-3.42.84zm6.06-.36h-.36q-.84 0-1.65.21-.81.21-.81.75l.06.18q.12 0 2.13-.15t2.31-.99h-1.68zm-11.88 4.32q-1.14 0-1.44.33-.3.33-.3 1.53.72 0 1.23-.57t.51-1.29zm.24.84q-.12.18-.63.93t-.51 1.47q1.74 0 2.28-.48-.18-.42-.6-.99-.42-.57-.54-.93zm-.72 3.36q.3.18.48.69t.24.81q1.38-.72 1.38-2.28-1.68 0-2.1.78zm3 3.36q.72-1.08.72-1.38l-.06-.18-2.16-.3-.42.3 1.92 1.56zm.66.36q.06.12.18.21t.24.15q.54-.12 1.2-.54.66-.42.66-.6 0-.3-.21-.51-.21-.21-.33-.21-.54 0-1.14.51-.6.51-.6.99zm1.5 1.08q1.32.3 1.5.42.3.3.36.3.9 0 1.59-.57.69-.57.69-1.41-2.28 0-2.28.54 0-.18-.21-.48t-.33-.3q-.12 0-.75.57t-.63.75l.06.18zm4.08.42q.3.3.36.3 1.02 0 2.4-.24t1.74-.3q2.52-.48 3.3-.48l.72.3q.72 0 1.32-.3.6-.3.6-.96-1.2 0-3.24.48-.3.06-1.02.24t-1.38.24q-1.2 0-2.55.09-1.35.09-1.89.21l-.36.42zm33.84-27.12q.18 0 .51.27t.33.45v4.44l-.42.36h-2.85q-2.43 0-4.53.36l.06.42q0 .78-.42 1.92-.36 1.2-.36 1.74 0 .12.15.27.15.15.21.15v6.24q.42.42.42 1.86l-.06 1.5q.3.06.36 1.41.06 1.35.93 2.43.87 1.08 3.51 1.32.18 0 .84.09.66.09 1.02.42.36.33.36.99 0 1.08-.18 1.62t-.66 1.32l-.6 1.08q-1.02-.06-2.28-.42-1.26-.36-2.4-.72-2.88-.96-4.14-1.02-1.2 0-1.59-2.61-.39-2.61-.39-5.01 0-1.68.3-3.18.06-.42.12-.96t.06-1.2q0-2.88-.78-9.66-.54-.06-1.05-.18t-.87-.18q-1.56-.42-2.22-.42-.3 0-.72-.87t-.42-1.41q0-1.2.78-1.56.78-.36 2.22-.42.78 0 1.14-.09.36-.09.42-.39 0-1.38.21-2.94t.51-1.86q.78.3.78 2.82l-.06 1.62.36.36q.12-.06 1.38-.66 1.26-.6 1.26-1.08l-.06-.48q0-.18.18-1.32.18-1.14.18-1.68h-.12q-.3 0-1.5.57t-1.32.57q.3-.3 1.5-1.14-1.2-.24-1.86-.72.54-.42 1.11-.57.57-.15 1.41-.21 1.08 0 1.92-.3 0 .24.36.57.36.33.36.51-.06.24-.18.69-.12.45-.18.81 0 2.04.42 3t1.29 1.2q.87.24 2.73.24.42 0 1.2-.18t1.32-.18zm-8.82-1.86v-.06.06zm-1.86 5.52l3.72-1.86q-.42-.18-1.14-1.02-.06-.06-.39-.45t-.63-.39q-.84 0-.84.78h.42q-.48.78-1.8 1.2-1.32.42-3.18.72-.66.12-1.17.24-.51.12-.51.24 0 .36 1.35.66 1.35.3 1.95.3l3.36-2.64h.78l-1.92 1.86v.36zm5.58-1.86q-.48 0-.81.27-.33.27-.69.87.3-.06.99-.45t.87-.69h-.36zm4.02 1.86l.42-1.44-1.8-.06-1.86.06q-.48.06-1.38.63-.9.57-.9.81v.48q.3 0 1.14-.48.84-.48 1.14-.72l-.78 1.14q.72 0 2.04-.24.36-.06.84-.12t1.14-.06zm-9.6 1.86l2.22-1.86v-.36q-.3.18-.57.33-.27.15-.51.33-1.92.96-1.92 1.56h.78zm1.56.78l-.06-.42q-.72 0-1.29.63-.57.63-.57 1.17v.3q0 .84.36.9.66-.48 1.11-1.17.45-.69.45-1.41zm1.86 18.3q0-.54-.42-.54l-.54.06.18-2.28q-.12-1.02-.36-2.13-.24-1.11-.36-1.59l-.42-.36.42-.36.06-1.38q0-1.38-.24-3.78-.3-2.1-.3-3.9-.72 0-1.08.87-.36.87-.36 1.71t.18.99q.18.15.18.27 0 .24-.21.54-.21.3-.21.84 0 1.26.6 1.26h.12q-.24.24-.45 1.08-.21.84-.21 1.5.42 0 .42.3 0 .24-.42.81-.42.57-.42.63 0 .72.3 1.32.3.6.3.84 0 .48-.54 1.26.06.18.3.63t.42.45q.36 0 .87-.12t.69-.24q-.24.36-.93.72-.69.36-.99.42 0 2.82 3.48 2.82 0 1.26.9 1.26.3 0 .66-.21.36-.21.54-.57.12 0 .18.09t.18.09v.66q1.44 0 2.58-1.56-.12-.72-2.58-.72-.24 0-.57.12-.33.12-.57.24.06-.06.06-.24 0-.36-.66-.63t-1.02-.27q-.36 0-.99.18t-1.05.18q.12-.24 1.02-.63t1.2-.51l.06-.12zm-2.76-9.78l.12-.06-.12.06zm8.4 14.04q0-.96-.54-1.14-.3.18-.57.51-.27.33-.27.63h1.38zm7.8-6.78q-.78-1.5-.99-2.52-.21-1.02-.21-2.64 0-4.62 1.8-8.07t5.04-5.31q3.24-1.86 7.5-1.86l1.32.06-.78.36q.18 0 1.44-.18.66-.18 1.26-.18 3.96 0 4.74 1.02l.06 1.56q0 .72-.24 2.04-.3 1.08-.3 2.1-2.58 0-5.82-1.98h-5.16q-.54 0-1.5.93t-1.83 2.25q-.87 1.32-1.11 2.4-.06.36-.21 1.41-.15 1.05-.57 1.59.6 3.54 1.71 5.52 1.11 1.98 3.87 3.72v.42q.6 0 1.56.12.84.18 1.56.18 2.16 0 3.93-.3t3.33-1.2q.12.48.63 1.98t.51 2.34q0 1.02-1.17 1.35-1.17.33-3.21.33-3.66 0-6.51-.27-2.85-.27-5.55-1.5-2.7-1.23-3.96-3.81-.12-.24-.21-.75t-.24-.78q-.15-.27-.69-.33zm.36-4.86q.42 1.62 1.29 3.78.87 2.16 1.29 2.16l1.5-1.08.06-.18q0-.96-.57-2.55-.57-1.59-1.29-2.13l.3-.3q-.06-.24-.06-.78 0-2.34.72-5.22t1.62-2.88q.6-1.32 1.41-1.98.81-.66 1.65-.87.84-.21 2.28-.39 2.46-.12 3.9-.9-.3-.06-.75-.18t-.75-.12q-1.56 0-3.93.66t-3.81 1.5q-1.44.84-3 4.44-.36.96-1.08 4.2-.66 2.82-.78 2.82zm16.86-13.2q-1.08.66-1.08 1.02l2.34.72v-1.56l-1.26-.18zm-13.56 19.74q0 .54.84.54.54 0 .78-.24t.6-.9q0-.12-.24-.36t-.42-.3l-.18-.06q-.36 0-.87.6t-.51.72zm1.86 1.8q0 .6 1.2.6.48 0 .75-.24t.69-.9q-.06-.3-.24-.36t-.54-.06q-.6 0-1.23.24t-.63.72zm2.64 1.14q0 .24.39.39.39.15.69.15.18 0 .45-.12t.33-.24q0-.48-.15-.63-.15-.15-.57-.15-1.14 0-1.14.6zm10.98-.48q-.9.06-1.5.36t-.96 1.02l.54.06q.9 0 1.41-.3.51-.3.51-1.14zm-7.14.36q-.36 0-.75.18t-.45.48l2.46.24q-.06-.3-.54-.6-.48-.3-.72-.3zm2.04.3q0 .3.15.51.15.21.39.21.36 0 .75-.21t.57-.51h-1.86zm35.58-1.86q-.12 0-.24.09t-.12.21q0 .18.36 1.56.36 1.38.36 2.16 0 .66-1.05.84-1.05.18-2.34.21-1.29.03-1.29.09-.12-.06-.48-.3t-.36-.42V42.24q0-2.76-.18-5.04-.18-2.28-.9-3.84h-.06q-.3 0-1.95-.99T329 31.14q0 .06-1.95.39t-3.72 1.2q-1.77.87-2.07 2.49-.12.66-.24 1.68t-.12 1.68q-.12 1.44-.12 2.28-.36 4.8-.36 7.26 0 1.5.06 2.22l-.36.36q.12.18.63.93t.51 1.41q0 .36-.18.72t-.6.36h-4.38q-.18-.36-.57-.42-.39-.06-.51-.36l-.06-4.92q0-4.02.6-12.06l.3-4.8q.24-3.84.24-7.14 0-1.32-.06-3.09-.06-1.77-.12-2.73-.24-3.96-.24-5.94h4.44l.78.36v3.12q0 10.14.36 10.14l.36.78q1.98-.66 4.59-1.26t4.11-.6q2.7 0 4.95 1.71t3.54 4.35q1.29 2.64 1.29 5.22 0 1.5-.24 3.36-.24 1.86-.3 2.4-.6 3.96-.6 6 0 .96.06 1.44zm-20.34-35.52q-.42 0-.96.24t-.54.42q0 .9.6 3.06.48 1.92.48 2.46 0 .18-.12.42t-.24.36v5.94l.36.36q-.24 0-.39.6-.15.6-.15 1.26h.96q-.9.66-.9 1.2.36 0 1.05-.33.69-.33.93-.51 0-.48-.24-1.32-.24-.84-.48-.9.06-.12.18-.48t.18-.66q0-.78-.24-2.22-.3-1.32-.3-2.52h-.18q.3-.54.36-.99.06-.45.06-1.29 0-1.02-.21-1.17-.21-.15-.21-.27 0-.3.21-.87.21-.57.21-1.35 0-.84-.09-1.14-.09-.3-.33-.3zM328.64 30q.54 0 4.14-2.22-.54-.36-1.53-.36h-1.11l-1.86 2.28.36.3zm-7.02 1.14l1.56-.66q5.04-1.8 5.46-2.7l-.36-.36q-4.56 1.14-4.38 1.14l-.78-.06q-.24.12-.9.9-.42.54-.75.81t-.75.27q-.24 0-.39-.21-.15-.21-.21-.27-1.26.42-1.92.87-.66.45-.66 1.35 0 .72.72.72 1.56-.3 2.1-.57.54-.27.75-.69.21-.42.51-.54zm10.74-.72l.42.06q.54 0 1.2-.36.66-.36.96-.84l-.78-.78-1.8 1.92zm-5.76-.66q.48 0 .72-.15t.24-.69l-1.5.78.54.06zm4.02.72q.18 0 .75-.54.57-.54.99-1.02-.06.06-.87.3t-1.71.78q.12.12.42.27l.42.21zm3.96 3.18q.18 0 .54-.15.36-.15.54-.15l-.42.78.84.3-.84.78q.6 0 1.65-.51 1.05-.51 1.05-1.35 0-.36-.24-.6t-.6-.24l-.3.06.36-.66q0-.6-.3-1.08-.3-.48-.78-.48-.6 0-1.23.48t-.99 1.08l.72.3q-.06.3-.21.66-.15.36-.21.48 0 .12.15.21t.27.09zm-15.54 8.16q-.12-1.8-.12-3.54 0-3.06.48-4.92-.12.06-.36.15t-.36.15q-1.02.48-1.29.81-.27.33-.27 1.23 0 .24.06.24l.72.42-.72.66v4.8l.72.42q-.48.12-.84.51t-.36.87q.42 0 1.11.27.69.27.87.57.42-.6.42-1.5h-.84q.3-.78.78-1.14zm15.9-3.84q1.56 0 2.58-.84t1.02-2.4q-1.44 0-2.52.9t-1.08 2.34zm.24 2.58q1.02 0 2.07-1.05 1.05-1.05 1.05-2.13-.66 0-1.68.6t-1.02 1.26h.84q-.18.3-.51.45-.33.15-.54.3-.21.15-.21.57zm2.52 3.9h-.66q0-.48.48-1.44.06-.12.39-.9t.33-1.86q0-.18-.09-.39-.09-.21-.27-.21l-2.22 1.44v.12q0 .6.42.6-.42.36-.78.81-.36.45-.36.69l.72-.36q-.06.06-.06.18 0 .18.15.36t.33.24q-.12.12-.27.24-.15.12-.15.48.06.12.18.21t.24.15l-.42.36v7.92h.48q.66 0 1.02-.18t.36-.72q0-.96-.06-1.65t-.12-1.17q-.24-1.92-.24-3.12h-.3q.9-.9.9-1.8zm-19.02.72q-.18 0-.6.18t-.54.18l.36-.72q-.42 0-.78.18-.36.18-.36.42 0 .36.27.45.27.09.69.09.48 0 .75-.06t.57-.36q0-.12-.15-.24t-.21-.12zm-.78 7.02q.6 0 .9-.45.3-.45.3-1.05 0-.36-.06-.75t-.36-.69q-.18.06-.54.24-.36.18-.6.18l1.5-1.5q-.24-1.2-.6-1.2l-.18.06.42-.78q-1.74.12-2.28 1.2 0 .06.15.18t.27.12q.18 0 .39-.12.21-.12.33-.18l-.72 1.08.36.36q-.3.12-.36.27-.06.15-.06.45.06.24.24.75t.18.75q-.06.06-.24.18t-.18.42q0 .12.42.3t.72.18zm65.7-3.48q0-.72-.81-1.95t-2.25-3.09q-.96-1.26-1.02-1.32l-2.22-3.3q-1.26-.24-2.07-.33-.81-.09-2.07-.09-1.92 0-2.61.54t-.69 2.4q0 1.56.24 4.56.24 3.12.24 4.8 0 1.2-.21 1.98t-.93 1.32q-.78.12-1.92.24t-1.86.12q-.72 0-.93-.27-.21-.27-.21-.99 0-2.46.42-5.7.06-.54.24-2.37t.18-3.45q0-.96-.09-1.59-.09-.63-.33-1.53V26.1q0-.42-.36-1.23t-.36-.99q0-.3.18-.93.18-.63.18-.99 0-.78-.78-3.24-.36-1.44-.36-1.5 0-1.8.75-2.4.75-.6 2.91-.6.78 0 2.1.24.3.06.87.12.57.06.99.06l1.74-.12q2.88-.3 4.08-.3 3.66 0 6.03.27t3.93 1.59q.72.66 1.5 1.47.78.81 1.08 1.11v.78h.36q.06.96.36 1.98.42 2.1.42 3.24 0 5.46-2.22 8.46-.48.6-1.47 1.62t-1.11 1.02l-.42-.06q-.54 0-.75.39-.21.39-.39.39-.24 0-.54-.18-.3-.18-.3-.3l.12-.24 1.8-1.86q-.12-.06-.33-.09-.21-.03-.39-.03-.54 0-.81.24t-.57.84q-.36.78-.84.9-.18 0-2.22.72.18.42.93.57.75.15.93.51l-.72.78h1.62q0-.12-.09-.42t-.09-.54q0-.42.42-.6.24.78.81 1.59.57.81.69.93.78.9 1.14 1.62.96 2.82 2.61 5.76t4.47 7.14q0 .66-1.32.9t-2.52.24q-.96 0-1.29-.36-.33-.36-.54-1.08-.21-.72-.75-.72l-2.58-4.08zm-16.74-32.28q.12.12.63.48t.99.54q.48.18.9.18l.48-.06-1.08-1.14.42-.36q-1.56-.36-2.46-.36-.36 0-.69.06-.33.06-.63.3.66.84.96.84.48 0 .48-.48zm7.86-.36q.18.12.72.99t.96.87q.3 0 .87-.21.57-.21.93-.21 0-1.74-.54-1.74l-2.94.3zm-4.44.78q.3.66 1.02.87.72.21 1.74.21h.6q1.08 0 1.08-.36l-.72-1.5h-3l-.72.78zm8.22-.78q0 1.26.63 1.92.63.66 1.89.66.18-.3.3-.87.12-.57.42-.93l.36.36q.24-.12.33-.3.09-.18.09-.24 0-.12-.12-.36t-.3-.24h-3.6zm10.26 7.08l.06-.24q0-.72-.6-2.16-.6-1.44-1.47-2.61t-1.71-1.29q-1.5-.3-1.8-.42-.54.54-.54 2.58v.48q.48 0 1.17-.18t1.11-.18l.06.24q0 .06-.42.51t-.66.63l.36.42 3.3.72.06.18q0 .24-.21.45-.21.21-.51.21v.24l1.8.42zM369.5 32.4q.54.84 2.76.84 1.86 0 2.73-.06.87-.06 1.89-.42.6-.12 1.98-.24 2.04-.18 3.12-.48t1.74-1.2q.66-.9.66-2.7 0-1.74-.36-3.24-.36-1.5-1.14-3.24-2.1-1.32-4.47-1.62-2.37-.3-6.21-.3-1.2 0-1.89.21t-1.11.99q.24 1.92.3 3.15t.06 4.29l-.06 4.02zm15.24-11.1q-.3 0-.3.36t.3.36q.12 0 .18-.12t.06-.24q0-.12-.06-.24t-.18-.12zm-17.46.36h-.12q-.48 0-.72.36t-.24.84q0 .9.51 2.34t.51 1.56q.66-.78.66-1.8 0-.36-.24-1.62-.24-1.26-.36-1.68zM386 27.12q0 1.02.27 1.65.27.63 1.17.63.9 0 1.14-1.62.24-1.62.24-3.12h-.96q0-.12-.12-.21t-.12-.21l.78-.36q-.9-.54-3.18-.54 0 .84.84 2.13t1.56 1.77q0 .12-.09.24t-.21.12q-.24 0-.63-.24t-.69-.24zm.96 3.66q-1.26 0-1.26 1.02.66 0 .96-.21.3-.21.3-.81zm-1.92 1.62q-.18.06-.39.18-.21.12-.33.18h1.2q-.06-.12-.21-.24t-.27-.12zm-18.54 1.68l.12 1.68.3-.54-.42-1.14zm13.74.78q-1.5 0-1.5 1.26.12-.06.63-.21t1.02-.42q.51-.27.63-.57l-.78-.06zm-7.68.24q0 .18.9.3t1.8.18q1.5.12 1.62.18.48-.24.48-.84l-4.8.18zm-2.7.24q.24.42.6.42.12 0 .33-.09.21-.09.21-.33h-1.14zm8.46 1.38q0 .72.27 1.02.27.3 1.05.3 0-.48-.42-.9-.42-.42-.9-.42zM366.2 38.7q0 .3.15.81t.27.69q1.08-1.08 1.08-1.68 0-.66-.84-.66-.66 0-.66.84zm13.32.36v.3h.72v-.3h-.72zm1.14 1.5q1.68.42 3.06.42 0-.78-.48-.99-.48-.21-1.56-.21t-1.08.54l.06.24zm-12.24-.72q-1.2.42-1.2 1.14.78 0 1.2-1.14zm-1.8 3.24q0 .12.09.27.09.15.15.15.66-.36.96-.69.3-.33.3-.81l-.06-.36q-1.44.66-1.44 1.44zm15.12-.96q1.26 0 1.5-.48h-1.5v.48zm3.42 3.78q0 1.2.3 2.1.3.9 1.14 2.22.42.72.99 1.5.57.78.81 1.08h1.14q-.54-1.68-1.8-3.6-.72-1.08-1.14-1.98-.12-.24-.9-1.98-1.14-3.12-1.74-3.24-.12.06-.6.27-.48.21-.48.51.3 0 .69.15.39.15.39.33 0 .24-.21.48t-.21.54q0 .72.78.72l.42-.06-.78.42q0 .78.3.78.18 0 .45-.12t.45-.12zm-16.74-2.82q-.6 0-1.11.54-.51.54-.51 1.2 1.02 0 1.38-.33.36-.33.6-1.41h-.36zm-.72 2.22q-.72 0-.93.18-.21.18-.21.84l.06.48q1.14-.6 1.8-1.44l-.72-.06zm-1.14 6.36q0 .72 1.26.72.48 0 .72-1.71t.24-2.91q0-1.32-.54-1.32-.66 0-1.17.6-.51.6-.51 1.26t.3.78q-.42.18-.66 1.44.36 0 1.14-.75.78-.75.9-.75l.18.06q-.12.54-.96 1.26-.9.66-.9 1.32zm29.28-10.8q0-3 1.08-6.6 1.08-3.6 2.64-6.18l.12.06q.36 0 1.5-.78 1.08-.72 1.38-.72.42-.12 2.19-.54 1.77-.42 3.33-.42v.54q.84-.3 1.53-.36.69-.06 1.41-.06 1.86 0 3.63.36 1.77.36 1.77 1.26 1.5 0 2.37 1.05.87 1.05 1.71 2.85.3.66.63 1.2.33.54.63.72v5.16l-1.08.78.3.36q-1.62 1.26-7.08 1.26h-3.12q-3 0-3.93-.06-.93-.06-3.63-.48-.06-.36-.36-.36-.12 0-.3.06t-.36.06q0 1.74.45 3.84.45 2.1 1.35 3.06.48.54 2.64 1.32 1.08.36 1.44.54 1.08.78 1.86.78 1.38 0 3-.36t1.86-.42q2.88-.78 4.62-.78.78 0 1.05.69t.27 1.77q0 1.14-.18 1.44-.18.3-.66.39-.48.09-.78.51-.36.12-7.02 1.2-2.52 0-4.47-.12-1.95-.12-3.63-.66-1.86-.6-3.75-2.82-1.89-2.22-3.15-4.92-1.26-2.7-1.26-4.62zM414.8 29.4q0 .48 1.08 1.44t1.44.96q.36 0 .96-.24t.6-.54q0-.36-.24-1.05-.24-.69-.24-.81 0 .18-.27.27-.27.09-.45.09-.48-.06-1.11-.48-.63-.42-.63-.96-1.74 0-1.74-.84-.12 0-.48.42t-1.32.42q-.3 0-.6-.24t-.78-.24l-.78.06q.12.06.57.78.45.72.75.78.12 0 .45-.21t.57-.21q.24.06.9.33t1.32.27zm-16.74 12.36l.6.06q.54 0 1.11-.27.57-.27.57-.75 0-.12-.18-.39t-.18-.51q.12-.42.42-1.05.3-.63.3-1.29 0-.48-.21-.69-.21-.21-.6-.39-.39-.18-.39-.42t.39-1.11q.39-.87.39-1.17 0-.6 1.14-1.98.66-.9 1.02-1.44.36-.54.36-1.08.24 0 .66.12.42.12.84.12.18 0 .24-.33t.18-.39q.48-.18 1.92-.18 1.38-.06 2.1-.15.72-.09.78-.39-.66-.3-1.26-.39-.6-.09-1.56-.09-4.08 0-6.21 2.76t-2.13 6.96h1.92v.36l-2.22 2.22v1.14l.72-.42-.72 1.14zm4.08-6.96q.3.6 3.51.81 3.21.21 5.37.21 1.08 0 2.88-.24 1.68-.24 2.76-.24 0-.3-.42-1.23-.42-.93-.66-.93l-.12.06q-.42-1.26-2.67-2.1-2.25-.84-3.81-.84-2.4 0-4.2 1.14-1.8 1.14-2.64 3.36zm16.74 1.26q0 .9-.6 1.17-.6.27-1.74.27-.96.06-1.44.24t-.48.78q1.98 0 3.12-.12 1.14-.12 1.38-.72.3.48.84.48 0-.48-.21-1.05-.21-.57-.21-.87 0-.24.27-.42t.42-.42q.15-.24.15-.96 0-2.34-1.38-2.34-.6 0-.75.33-.15.33-.15 1.23.66 1.98.78 2.16v.24zm-16.26.72q-.54 0-.93.42t-.39.96q.78 0 1.05-.3t.27-1.08zm1.14.54q-.12 0-.69.54t-.93.96l1.26-.24q.12 0 .81-.15.69-.15 1.65-.75-.18-.06-1.86-.36h-.24zm2.1 1.08q1.2.42 2.1.42.54 0 .93-.36t.39-.9q-3 0-3.42.84zm6.06-.36h-.36q-.84 0-1.65.21-.81.21-.81.75l.06.18q.12 0 2.13-.15t2.31-.99h-1.68zm-11.88 4.32q-1.14 0-1.44.33-.3.33-.3 1.53.72 0 1.23-.57t.51-1.29zm.24.84q-.12.18-.63.93t-.51 1.47q1.74 0 2.28-.48-.18-.42-.6-.99-.42-.57-.54-.93zm-.72 3.36q.3.18.48.69t.24.81q1.38-.72 1.38-2.28-1.68 0-2.1.78zm3 3.36q.72-1.08.72-1.38l-.06-.18-2.16-.3-.42.3 1.92 1.56zm.66.36q.06.12.18.21t.24.15q.54-.12 1.2-.54.66-.42.66-.6 0-.3-.21-.51-.21-.21-.33-.21-.54 0-1.14.51-.6.51-.6.99zm1.5 1.08q1.32.3 1.5.42.3.3.36.3.9 0 1.59-.57.69-.57.69-1.41-2.28 0-2.28.54 0-.18-.21-.48t-.33-.3q-.12 0-.75.57t-.63.75l.06.18zm4.08.42q.3.3.36.3 1.02 0 2.4-.24t1.74-.3q2.52-.48 3.3-.48l.72.3q.72 0 1.32-.3.6-.3.6-.96-1.2 0-3.24.48-.3.06-1.02.24t-1.38.24q-1.2 0-2.55.09-1.35.09-1.89.21l-.36.42zm38.22-.36q1.14.42 3.15 1.71t3.54 2.85q1.53 1.56 1.53 2.82 0 1.44-.87 2.88t-2.19 2.34v-.06q-.24 0-2.04 1.44-.42.3-1.44 1.05t-1.32.87q-1.38.48-2.88.63-1.5.15-3.48.15-3.42 0-6.45-.93-3.03-.93-6.45-2.79v-.54q-.9 0-1.74-1.47t-.84-2.61q0-1.92 1.11-4.5t2.61-3.48q-.18-.36-.69-1.17-.51-.81-.51-1.53 0-1.14.66-2.76.6-1.68.6-2.64 0-.9-.39-1.56t-1.23-1.56q-1.08-1.08-1.65-2.13-.57-1.05-.57-2.73 0-2.82 1.56-5.16 1.56-2.34 4.08-3.69t5.34-1.35l.96.06q.06-.48 1.05-.66.99-.18 1.83-.18 1.08 0 2.7.66.18.06.93.3t1.35.24q.6 0 1.17-.3t.69-.36q1.08-.6 1.68-.6l.78.06q-.18.24-.42.69-.24.45-.36.81 0 .54.33.69.33.15.93.15.78 0 1.14-.24.36-.24.6-.24.84.3.84 1.32 0 .72-.66.93-.66.21-1.8.21h-1.02q-1.44 0-1.44.48 0 1.08.96 3.12.9 1.92.9 2.88 0 .3-.18.45-.18.15-.18.27 0 .3.18.84t.18.6q0 .84-.36 1.8-.42.96-.42 1.98-.54 2.52-2.04 3.48t-3.72 1.44q-.96.24-1.41.42-.45.18-.57.54-3.48.42-4.86.42l-1.08-.06q.66 1.08 2.19 1.59 1.53.51 3.69.81 1.02.12 1.5.24.24.54.93.69.69.15 1.89.21 1.26 0 1.68.18zm-9.3-25.2q-.18.18-.3.39-.12.21-.18.27.06.12 1.11.3t1.59.18l2.28-.06v.84q.54.42 1.41 1.32.87.9 1.11 1.26.24.36.3.96t.18.87q.12.27.66.33l-.36.78h1.74q0-.72-.33-1.26t-.99-1.26q-.12-.18-.48-.6t-.36-.78q.18-.66 1.74-1.14.9-.36 1.29-.63t.39-.75q-.06-.06-.27-.63-.21-.57-.51-.69l-.36.66-3.42 1.56q-.18-.18-.48-.57-.3-.39-.69-.66-.39-.27-.93-.33l-1.98.06q-1.74 0-2.16-.42zm-9.3 5.22v.72q4.14-.42 4.14-1.8 0-.24-.06-.36l1.92-2.34q-1.2 0-2.07.57-.87.57-2.31 1.77-.72.78-1.62 1.44zm7.86-2.28q-1.8 1.14-2.79 3.27t-.99 4.35q0 2.04.39 3.09.39 1.05 1.44 1.5 1.05.45 3.09.45 2.94 0 4.98-1.65 2.04-1.65 2.04-4.77 0-2.58-1.86-4.44-1.86-1.86-4.44-1.86l-1.86.06zm-7.86 3.72q.48.18 1.26.3t1.08.12q0 .6-.42.81-.42.21-1.2.36t-1.02.27h2.94l.78-2.22h-1.32q-1.14 0-2.1.36zm-.3 1.14v-.36l-.72.36h.72zm20.04 3.42q0-2.82-.96-2.82-.36 0-.84.48t-.48.78l.18.54q.12.36.24.6.24 0 .45-.18.21-.18.51-.18 0 .12.06.18t.06.12q0 .06-.78.48t-.78.84q.48.72.75 1.02.27.3.81.3.78 0 .78-2.16zm-19.32-1.92h-.48q-.54 0-.78.15t-.24.69q1.56 0 2.64-.84h-1.14zm0 1.86l1.92.3v-1.44q-.3.18-.9.57-.6.39-1.02.57zm.42 1.8q.48 0 .87-.15t.39-.57h-2.4q.24.48.45.6.21.12.69.12zm18.12 1.86q.06-.3-.18-.51-.24-.21-.72-.51-.12-.12-.48-.39t-.48-.51q-1.08 1.08-1.08 1.56.48.54 1.14.96.66.42 1.02.54.18 0 .45-.48t.33-.66zm-2.22 2.58q0-1.08-.15-1.47-.15-.39-.99-.39-1.5 0-1.5 1.32 0 1.38.72 1.38.48 0 .99-.27t.93-.57zm-5.22.78q.42 0 1.11.21.69.21 1.23.21 0-.3-.27-.6t-.27-.54q0-.06.12-.42-.6.48-2.82.6-1.32.12-1.86.24t-.54.48q0 .72.27.84t1.29.12q1.98 0 1.98-.78h-.6l.36-.36zm-4.98 1.08q.72 0 .9-.33.18-.33.18-1.23-1.08 0-3.06.84.54.48.93.6t1.05.12zm-4.2.78v.42q.36 0 .66-.42h-.66zm1.8 3.06q0-.54-1.2-.69-1.2-.15-2.1-.15.18.66.66 1.08.48.42 1.14.42 1.5 0 1.5-.66zM428.12 57q.06.12.15.21l.15.15-.3.36h1.56q0-.24-.21-.54-.21-.3-.21-.66 0-.42 1.32-1.65t2.7-2.31q-.96 0-2.19.66t-2.1 1.71q-.87 1.05-.87 2.07zm16.62 4.8q1.26 0 2.88-.96 1.62-.96 1.62-2.04 0-.66-.33-.87-.33-.21-.93-.21-.96 0-1.23-.21t-.33-.81q-.06-.6-.54-.84-5.16-1.86-9.66-1.86-1.56 0-3.18.87t-1.62 2.31q0 1.62.72 2.31t2.22 1.35q1.14.42 1.92.96h8.46zm5.34-6.72q-.06.06-.27.18-.21.12-.21.18 0 .18.18.33.18.15.3.15.42 0 .66-.48-.36-.36-.66-.36zm-20.52 3.78q-.36-.3-.87-.36t-.93-.06v.78q.24 0 .75-.12t1.05-.24zm21.48 1.5l2.28-1.2-.9-.06q-.6 0-.84.33t-.54.93zm-21.6-.84q-1.2 0-1.68.84h2.64q0-.84-.96-.84zm-1.38 2.1q0 .48 1.2.48 1.14-.36 1.5-.66-.12-.12-.36-.27-.24-.15-.42-.15-.36.06-.93.18-.57.12-.93.24l-.06.18zm22.68 1.26q.18-.12.39-.36.21-.24.27-.42-1.2-.3-1.44-.3-.12 0-.24.12t-.12.18q0 .24.42.51t.72.27zm-3.06 1.86q.3-.12.93-.54.63-.42.63-.6l-.78-.3q.42-.42.42-.6l-.06-.12q-1.62 1.02-6 1.02-1.32 0-3.96-.12-1.98-.18-3.96-.18-.18 0-.75.15-.57.15-.87.15-.24-.06-.51-.51t-.51-.72q-.24-.27-.84-.27-.3 0-1.86.78.48.72 1.71 1.14 1.23.42 2.73.72.12-.12.36-.24t.42-.12q.06 0 .36.36t.42.42q.6 0 1.2.24t.72.3q.78.42 1.38.54.42-.06.42-1.08l.54.36q.06 0 .18-.09t.42-.09q0 .6.09.75.09.15.63.15 1.14 0 3.51-.6t2.37-1.26q0 .12.24.24t.42.12zM479.48 27q.3 0 .9 11.13.6 11.13.6 14.79-.3 1.08-1.44 1.38-1.14.3-3 .3-1.26 0-1.68-.42-.42-.42-.42-1.62l.06-1.74q-.24.18-1.2 1.29t-2.76 1.86q-1.8.75-4.92.75-4.38 0-6.72-3.69t-2.7-8.85l-.42-4.44v-.78q.72-3.6.72-4.02 0-.72-.18-2.16l-.12-1.92v-.6q0-.9.33-1.83t1.11-.93l3.72.42q.42 0 .63 1.23.21 1.23.21 2.37 0 1.32-.12 2.64l.36.36-.06 6.84q0 3.6.48 5.58t1.92 2.97q1.44.99 4.38.99 2.28 0 3.66-.42 1.38-.42 2.22-1.86l.06-2.16q0-2.16-.24-6.48-.3-3.6-.3-6.54 0-1.14.03-2.37.03-1.23.09-1.71l.66-.36h4.14zM458 32.7v.3q0 .6.36.66.18-.54.63-.99l.51-.51q.6-.6.87-.99t.27-.99q0-1.2-.3-1.23-.3-.03-.3-.15 0-.24.24-.9 0-.6-2.28-.6v2.28l.3 1.38q0 .24-.15.75t-.15.99zm18.18-1.44q1.02.24 1.02.48 0 .12-.51.66t-.51 1.08q0 .12.09.33.09.21.27.21 1.32-.78 1.59-1.47t.27-2.73q0-.66-.18-1.02t-.78-.36l-.9.06-.36 2.76zm-17.4 2.76q1.26 0 1.65-.18.39-.18.39-1.08 0-.24-.24-.96-1.62 1.38-1.8 2.22zm18.48 1.8q-.3 0-.72.24t-.42.36q0 .3.18.66.18.36.42.36.72 0 1.38-1.32.66-1.32.66-2.1 0-.18-.15-.42t-.27-.24l-1.8 1.8-.06.12q0 .24.24.39.24.15.54.15zm-16.98-1.38q-1.14 0-1.65.12t-.75.66q-.24.54-.24 1.74.96-.66 1.8-1.41.84-.75.84-1.11zm.72 1.02q0-.12-.06-.12-.3 0-1.92 1.26-.78.66-1.02.78v.36l2.1.3q.18-.06.45-.21t.45-.15v-2.22zM476.84 39q0 .12.21.51t.63.39q-.84 0-1.02.78-.18.78-.18 1.98.9 0 1.53-.72t.63-1.62h-.66q.48-.36.54-1.23.06-.87.06-2.07-.78 0-1.26.6t-.48 1.38zm-16.92-.18h-2.4q0 2.22.48 2.22l1.92-1.8v-.42zm1.08.42q-1.56 1.38-3.36 3.66H461q.06 0 .21-.39t.15-.69q0-.72-.18-1.32-.06-.24-.12-.54-.06-.3-.06-.72zm16.2 4.86q1.08 0 1.38-.27.3-.27.3-1.41-.6 0-1.14.51-.54.51-.54 1.17zm-19.2.6q0 1.02.15 1.5t.87.48q.96 0 1.83-.39.87-.39.87-1.17 0-.36-.12-.54-.12-.18-.6-.18-.18.06-.72.72-.54.66-.78 1.14l-.72-.36q1.26-1.44 1.44-2.22-.42.06-1.05.06-.63 0-.9.18t-.27.78zm19.26.06q-.42 0-.42.72v.42q0 .66.42.72 1.14-1.14 1.14-1.26 0-.18-.42-.39-.42-.21-.72-.21zm1.56 3.72q.3 0 .3-.78-.06-.3-.24-.72t-.24-.42q-.48 0-.9.42-.42.42-.48.42 0 .24.12.45.12.21.3.27-.54.84-1.29 1.38-.75.54-1.05.54 0 .36.18.48t.24.18l2.22-1.5v-.96q.24 0 .48.12t.36.12zm-18.24 2.58q1.44.42 1.86.72l2.22-1.08v-.36h-.72v-.78h-3.36v-.42l.78.06q1.44 0 1.44-.72 0-.18-.12-.42t-.24-.36l-1.08.78q0-.36.18-.9t.18-.96q-.18.12-1.08.33-.9.21-1.41.45-.51.24-.51.72l.06.36 1.8 2.58zm16.98.42q1.56 0 1.56-.9 0-.54-.09-.81t-.39-.27q-.66 0-1.35.66-.69.66-.75 1.26l1.02.06zm-4.68-.06l1.08-1.08-.78-.06q-.66 0-1.02.06t-.84.36h-5.52q-.24 0-1.17.57-.93.57-1.41.93.9.72 3.48.72.54 0 .9-.12t.78-.6v.84q1.74 0 2.55-.36.81-.36 1.53-1.62l.42.36zm3.9 1.74l1.98-.66v-.3l-2.52.42.54.54zm23.7-2.76q1.2.42 1.2.78 0 .36-.96 2.7-.54 1.08-.54 1.26l-.78.3v-.48q-.72 0-1.32.06-.6.06-1.14.06-.84 0-1.29-.33-.45-.33-.45-1.35-1.56 0-2.34-1.14-.78-1.14-1.62-3.42-.42-5.4-.57-11.07-.15-5.67-.15-13.35v-3.84q0-5.22.42-8.76 1.02-.54 2.58-.72.24-.06 1.08-.21.84-.15 1.5-.51l.18-.06q.54 0 .54.66 0 4.8-.36 14.52-.24 4.74-.36 9.66 0 1.32-.24 3.6-.06.48-.12 1.26t-.06 1.86q0 3.9.96 6.21t3.84 2.31zm-5.82-37.38q-1.56 0-2.04.75t-.48 2.49h.84q0 .12.06.18t.06.12q0 .12-.27.27-.27.15-.45.15v2.22q.18-.24.75-.99.57-.75.75-.81-.06.18-.24.75-.18.57-.54 1.05.06 0 .24.03t.42.03q.9 0 .9-.36v-5.88zm-.78 4.38zm-1.5 14.1q.18.3 1.14.3-.18.24-.48.39-.3.15-.48.33-.18.18-.18.54 0 .48.24.96t.24 1.14h1.38v-1.92h-.72q.72-.96.72-2.7 0-.36-.18-.96t-.18-.96l.36-1.5q.42-1.38.42-2.76-.06-.18-.18-.39-.12-.21-.24-.33 0 .84-.72.84l-.42-.12q.42-.18.54-.54.12-.36.12-.9h.9V20.7q-.36.42-.99.99-.63.57-.75.57l-.18-.06q1.14-1.26 1.5-2.22-.66 0-1.44.15-.78.15-.78.69 0 1.38.36 1.92t.36.6q0 .12-.36.93t-.36 1.23q.12-.06.33-.21.21-.15.39-.15.12 0 .24.15t.12.21q-.18.18-.42.6t-.3.66q0 .36.33.45.33.09.39.15-.66.18-.81.96-.15.78-.15 1.74.48 0 .78-.27.3-.27.42-.27l.18.06q-.18.48-.57 1.08-.39.6-.57.84zm1.92 4.32q-.84 0-1.2.48t-.36 1.44q.12-.12.63-.42t.72-.66q.21-.36.21-.84zm-.42 14.52q.3 0 .72-1.26t.42-1.74q0-.6-.15-.78-.15-.18-.63-.18v-6.06l-.36-.36q.48 0 .48-2.34-.6 0-1.14.63-.54.63-.54 1.29 0 .06.21.21t.21.21l-.36.36v2.58q.42.12.42.78 0 .42-.18 1.32-.24.6-.24 1.32 0 .66.6 1.26t.6 1.02q0 .18-.36.63t-.48.75q.06 0 .36.18t.42.18zm5.22 2.88l-.42-.3q.06-.06.27-.24.21-.18.21-.42 0-.12-.96-.6t-1.38-.66q-.18 0-.6.21t-.9.21q.18-.06.45-.36t.33-.36q0-.42-.21-.84t-.57-.6q-.18 0-.57.69-.39.69-.51 1.05 0 1.26 1.5 1.98t2.76.72q.36 0 .6-.48zm28.56-4.8q0 .36.36.54.36.18 1.26.42 1.26.36 1.86.75.6.39.6 1.17 0 2.58-1.5 3.42-1.86-.6-2.58-.72t-2.7-1.56q-1.02-.72-1.14-.72-.48 0-1.35.6-.87.6-1.11.6-1.44.66-2.58 1.02-1.14.36-2.4.36-2.34 0-4.74-.96-2.4-.96-4.02-2.91Q506 48.48 506 45.6q0-.78.45-2.49.45-1.71.81-2.49 1.14-1.62 3.3-2.4 2.16-.78 5.64-1.38 2.76-.54 3.96-.99 1.2-.45 1.2-1.35 0-1.8-1.17-3.03-1.17-1.23-3.27-1.23-.84 0-1.62.24-.78.24-2.04.78-1.8.84-2.64.84-1.56 0-1.56-3.18 0-2.16 1.74-2.85t4.5-.69q.54 0 1.41.12.87.12 1.29.18 1.62.3 2.64.3l1.38-.06q1.5 0 1.5 1.14.72 0 1.08.21.36.21.36.87 1.68 0 2.4 2.76t.72 5.16q0 1.62-.48 4.62t-.48 4.44q0 .36.12 1.05.12.69.12 1.05l-.06.54.36.66zm-11.1-20.4q.72 0 1.56.24.78.3 1.74.3 0-1.38-.66-1.38-.24 0-.51.09t-.57.09l-1.56-.06q-1.98 0-3.06.15t-2.88.75q0 .24.15.72t.27.6q.66 0 2.13-.45 1.47-.45 1.89-1.05l.6.48q.06 0 .36-.24t.54-.24zm4.26 1.56q.6 0 1.5-.27t.9-.69q0-.6-1.62-.6-.54 0-.96.45-.42.45-.42 1.05l.6.06zm2.88-.36l-1.2 1.92q0 .18.24.42t.54.24q.84 0 1.17-.24.33-.24.33-.84 0-.42-.33-.96t-.75-.54zm1.74 2.88q-.18.06-.84.24-.66.18-1.05.57-.39.39-.39.93 1.14 0 2.28-1.74zm.72 2.16q0-.24-.21-.54-.21-.3-.33-.3-.36 0-1.05.45-.69.45-.99.87l2.22.36q0-.12.18-.42t.18-.42zm-4.02 1.86l2.1-.3-1.56-.36-.54.66zm.36 1.2q.12.36.45.48t1.05.27q.72.15 1.02.33-.36.6-.9.84-.3.18-.45.42-.15.24-.15.96 0 .84.3 1.74.24 1.08.24 1.74 0 .6-.18 1.44 1.32-.3 1.92-2.64.6-2.34.6-4.98 0-1.56-.18-2.16-.6 0-1.77.54t-1.95 1.02zm-1.62.42q-.36 0-.78.18-.42.18-.54.48.3.12.87.24.57.12.93.18l.54-.18q.36-.12.6-.24-.3-.18-.84-.39-.54-.21-.78-.27zm-2.46.66l-.54-.54-1.68.84 2.22-.3zm-7.8 4.44q.12 0 .48-.45t.36-.63h-1.62q.24-.36.93-.66.69-.3 1.47-.54 1.26-.42 2.04-.81.78-.39 1.14-.93h-.24q-1.14 0-1.89.18t-.81.9q-.48.18-1.29.45t-1.32.66q-.51.39-.75 1.05.12.18.72.48t.78.3zm4.44 6.72q.96 0 2.7-.48 1.74-.48 3.06-1.29t1.32-1.83v-.24q0-2.76-.57-4.32-.57-1.56-2.73-1.56-.3 0-.9.27-.6.27-.84.27-.66 0-1.71.72-1.05.72-1.41.96-.36.24-.63.75t-.51.99q-.36.84-.69 1.29-.33.45-.87.45 0 1.86.96 2.94.96 1.08 2.82 1.08zm-6.66-6.72q-.18 0-.3.48t-.12.72q.42 0 .84-.24t.72-.54q-.24-.12-.57-.24-.33-.12-.57-.18zm1.86 1.86q.18-.18.18-.6 0-.06-.3-.06-.54 0-1.23.18t-.87.48h2.22zm15.3.6q-.48 0-.93.45-.45.45-.45.93.78 0 1.08-.3.3-.3.3-1.08zm-17.16.12q-.18 0-.48.24t-.3.36l.06.18q.18 0 .48-.18t.3-.3l-.06-.3zm1.26.66q-.78 0-1.26.9 1.26 0 1.26-.9zM523.58 48q.06.12.24.27.18.15.36.15.24-.12.72-.51t.48-.57q0-.18-.24-.18-.36 0-.87.27t-.69.57zm-15 1.26q.42 0 .72-.72t.3-1.08q-.6 0-1.17.24t-.75.72q.06.24.39.51t.51.33zm16.32.24q0 .18.15.36t.27.18q1.02 0 1.02-1.56-.36 0-.9.3t-.54.72zm-15.36 0q.9-.12.9-.84-.78 0-.9.84zM521 51.12q.6 0 1.08-.57.48-.57.48-1.23l-.06-.54q-.18.06-.45.36t-.33.42q0 .12.06.21l.06.09H521v1.26zm-1.14.66q.12 0 .24-.63t.18-.93q-.96 0-1.98.63t-1.02 1.59l2.58-.66zm6.12-.3q.48-.3.48-.78h-.9q0 .54.42.78zm1.02.18q1.02 0 1.2-.42-.3-.48-.54-.48-.3 0-.48.3t-.18.6zm-15.3-.24q.24.12.87.45t.93.33q0-.3-.45-.78-.45-.48-.69-.48-.42 0-.66.48zm3.9 1.5q.24 0 .39-.39.15-.39.15-.75l-.3-.06q-.72 0-1.14.72.78.48.9.48zm12.06-.48q0 .6 2.28.6 0-.54-.09-.9t-.51-.36q-.48 0-.99.18t-.69.48zm10.02-26.7h6.3q.72 0 .72.48 0 .18-.27 1.08-.27.9-.33 1.26l1.38-1.38q2.34-1.5 4.38-2.46t4.02-.96q.18.24.18 1.44 0 .6-.12 1.92-.12 1.44-.12 2.28 0 .36.12.96 0 .12-.48.27-.48.15-.72.21-2.88.84-4.92 1.98-2.04 1.14-2.34 3.24l-.24 1.32q-.6 3.3-.6 4.08 0 1.86.42 4.5.06.42.24 1.95t.18 2.85q0 .36-.12 1.14-.12.78-.24 1.5l.36.42q-.06.36-1.56.57-1.5.21-2.16.21h-.18q-.24 0-.36-.09t-.18-.33q-.18.42-.69.6t-.99.18q-.3-.06-.69-.15-.39-.09-.57-.21l-.42-3.78V25.74zm12.18 1.62q.96 0 .96 1.32 0 .42-.06.75t-.06.63q.84-.3 1.35-1.02.51-.72.51-1.68 0-.48-.84-1.11-.84-.63-.84-.87 0-.06.12-.18-.78.78-.78.84l.06.3q-.42.42-1.26.78-.84.36-1.26.78-.42.42-.42 1.38.36-.06.69-.39.33-.33.57-.63.66-.9 1.26-.9zm-7.5 1.5q0 1.5-2.1 3.9.84-.3 1.74-.81t.9-.75v-3.66q-.54-.12-1.68-.24t-1.68-.18v1.2h.24q0 .42-.15.84t-.15.78q1.02 0 1.92-.9l-1.86 1.86v.78q.12-.12 1.35-1.47t1.47-1.35zm-2.1 10.92q.72-.06 1.74-.45t1.26-.63q.24-1.14.3-1.5.72-3.12 1.2-4.74t1.5-3.42q-1.62 1.32-3.33 3.3-1.71 1.98-2.67 3.72h.24l2.76-.72v.3l-3 3.72v.42zm6.54-8.46l.36.06q.66 0 1.08-.39.42-.39.42-.99l-.06-.54-1.8 1.86zm-5.76 2.16q-.96 0-1.26.36-.3.36-.3 1.14l.06.66 1.5-2.16zm-.36 3.66q-1.38 0-1.38 1.56h.6l1.14-1.56h-.36zm1.26 3q-.9.12-1.65.36-.75.24-.75.36v2.28l2.58-3h-.18zm-2.04 4.08q.24.3.6.3 1.02 0 1.89-.66.87-.66.87-1.62v-.42q0-.9-.36-1.32-.24.36-1.29 1.56-1.05 1.2-1.71 2.16zm-.72 2.58q0 .06.36 1.14.3-.3 1.02-.99t1.14-1.2q.42-.51.42-.81l-.3-.06q-1.08 0-1.86.45t-.78 1.47zm4.08-1.86q-.06.12-1.2 1.56-.84.9-1.38 1.8 1.74 0 2.34-.39.6-.39.6-1.89 0-.72-.36-1.08zm-3.72 5.22q0 .3.12.75t.24.75q.84-.42 1.56-1.26.72-.84 1.02-1.74-.3.18-.6.27-.3.09-.54.21-1.8.72-1.8 1.02zm4.08-1.2q-1.38 1.32-2.22 2.7h.42q.3 0 1.23-.36.93-.36.93-.48l-.36-1.86zm.36 2.94q-.84 0-1.77.3t-1.17.9h.78q2.16 0 2.16-.72v-.48z"/></svg>