<svg viewBox="0 0 419 80" xmlns="http://www.w3.org/2000/svg"><path d="M29.18 45q.12.3.88 1.26.76.97 1.73 2.11.97 1.15 1.91 2.2.93 1.06 1.28 1.52 1.12 1.64 2.29 3.23 1.17 1.58 2.23 3.28.29.29.46.73.18.44.18.91 0 .53-.26.55-.27.03-.56.15-.59.41-1.05.47-.47.06-.77.06-.64 0-1.4-.03-.76-.03-1.29.09-.18.06-.41.2-.24.15-.35.15-.47 0-.68-.15-.2-.14-.55-.26-.47-.53-.85-1.11-.38-.59-.79-1.18-.36-.41-.77-.73-.41-.32-.76-.79-.94-1.35-1.9-2.58-.97-1.23-1.96-2.46-.47-.64-1.03-1.23t-1.03-1.17q-.46-.65-.87-1.35-.41-.7-.88-1.35-.35-.58-1-1.43-.64-.85-1.35-1.73-.7-.88-1.43-1.67-.74-.79-1.26-1.2 0-.41-.24-.59-.23-.17-.52-.41-.12-.29-.3-.55-.17-.27-.17-.62 0-.23.06-.41.05-.18.11-.35.12-.24.15-.44.03-.21.15-.44.29-.76.85-1.35.55-.58.85-1.35.05-.23.05-.44 0-.2.12-.43.18-.36.53-.71.35-.35.64-.76.3-.53.59-1.05l.58-1.06q.82-1.35 1.82-2.61 1-1.26 1.88-2.49.82-1.17 1.52-2.31.7-1.14 1.52-2.32.41-.58.94-1.31.53-.74 1.08-1.44.56-.7 1.15-1.32.58-.61 1.17-.91.99-.11 1.29.33.29.44.82.44.82.17 1.11.52.29.35.59.65.76 0 1.29.29.52.29 1.05.88-.23.64-.61 1.17-.38.53-.68 1.11-.47.18-.67.59-.21.41-.62.7-.64 1-1.29 1.97-.64.96-1.29 1.84-.29.35-.67.56-.38.2-.61.61-.12.18-.18.39-.06.2-.18.38-.7 1.11-1.58 2.16-.88 1.06-1.52 2.23-.29.41-.47.85t-.41.85q-.23.35-.67 1-.44.64-.88 1.31-.44.68-.76 1.29-.33.62-.33 1.03.06.29.76 1.17.71.88 1.56 1.88.85.99 1.64 1.87.79.88 1.02 1.11zm25.61-28.41l.12.05q.29 1.06.58 2.08.3 1.03.71 2.03.87.11 1.08.17.2.06.5.18.64 1.52.79 3.25.14 1.73.44 3.37 1.11 1.46 1.61 3.13t1.14 3.37q.18.59.24.74.05.14.05.26.36.99.71 2.05.35 1.05.76 2.05.18.53.38 1.03.21.49.38.96.18.59.32 1.2.15.62.33 1.2.41 1.18.87 2.35l.94 2.34q.18.41.68 1.82.49 1.41 1.02 2.96t.97 2.87q.44 1.32.44 1.61 0 .47.09.97.08.5.14 1.02-.23.59-.58.65-.36.06-.65-.06l-.56.23q-.26.12-.49.24-.18.06-.3.17-.11.12-.29.12-.7 0-.91.15-.2.14-.61.14-.53-.17-.68-.03-.14.15-.26.21-.23.12-.53.12-.29 0-.58.05-.12-.23-.21-.46-.09-.24-.26-.53-.65-.94-.91-1.82-.26-.88-.44-1.4-.29-.65-.5-1.29-.2-.65-.5-1.29-.35.11-.64.26-.29.15-.47.38-.7 0-.7.18 0 .17-.12.35-.35.12-.56.23-.2.12-.67.06-.29.3-.59.5-.29.21-.76.26-.47.47-.96.8-.5.32-1.15.14-.82.18-1.64.32-.82.15-1.64.15-.94-.29-1.17-.53-.23-.23-.7-.23.06-.82-.35-1.11 0-.18.02-.56.03-.38.15-.5.76-.35.88-.76.12-.41.64-.53.12-.23.27-.44.14-.2.26-.44.29-.11.5-.17.21-.06.32-.35.3 0 .88-.39.59-.38.76-.61.47-.18.59-.32.12-.15.29-.27.59.06.76-.11.47.23 1.06.23.23 0 .41-.03.17-.03.41-.03.47-.47 1.2-.61.73-.15 1.2-.62-.17-.47-.29-1.14-.12-.67-.41-1.08-.12-.77-.38-1.47-.27-.7-.44-1.35-.65-2.46-1.53-4.8-.87-2.35-1.46-4.81-.12-.29-.26-.61-.15-.32-.27-.62-.29.71-.29.79 0 .09-.12.21-.06.29-.12.5-.05.2-.17.49-.18.47-.32 1.03-.15.56-.27 1.03-.29.99-.52 2.08-.24 1.08-.53 2.13-.59 1.82-1.2 3.61-.62 1.79-1.2 3.6-.12.82-.27 1.26-.14.44-.29.88-.15.44-.24.85-.08.41-.08.64-.82 1.88-1.38 3.81-.56 1.94-1.38 3.75-.23.12-.41.3-.17.17-.41.17-.47 0-.5-.23-.02-.24-.26-.24-.23 0-.41.09-.18.09-.35.21-.29-.12-.67-.15-.39-.03-.56-.26-.41.29-.82.29-.47 0-.94-.29-.35.11-.7.11-.18 0-.41-.06-.24-.05-.35-.17-.06-.24-.06-.47v-.53q0-.58-.12-.88 1.05-2.98 2.05-6.06 1-3.08 1.99-6.24.53-1.47 1.03-2.87.5-1.41.97-2.87.23-.82.41-1.56.17-.73.46-1.43.47-1.53.97-3.08t.91-3.07q.23-.18.29-.41.06-.24.18-.53l-.06-.76q.41-.59.56-1.03.14-.44.2-.91.29-.7.53-1.52.23-.82.35-1.52.12-.94.15-2.14.03-1.2.32-2.02.12-.24.2-.33.09-.08.09-.38.12-.11.27-.26.14-.15.2-.32.29-.47.21-.82-.09-.35-.09-.76.53-.3.47-.53-.06-.24-.06-.47 0-.29.38-.56.38-.26.5-.55.35.05.7.08t.7-.03q.41.77 1 .77zm27.19 29.06q.11.29.85 1.23.73.94 1.67 2.05.93 1.11 1.78 2.14.85 1.02 1.2 1.49.65.82 1.26 1.61.62.79 1.15 1.67l1.05 1.76q.47.59.85 1 .38.41.62 1.11.11.47.11.65 0 .41-.29.58-.47 0-.5.15-.03.14-.26.26-.24.12-.73.15-.5.03-.79.03-.53 0-1.32-.03t-1.26.14q-.12.06-.35.18-.24.12-.36.12-.46 0-.67-.15-.2-.15-.56-.2-.47-.53-.79-1.09-.32-.55-.73-1.14-.41-.41-.82-.73-.41-.33-.7-.74-.88-1.28-1.82-2.51-.94-1.24-1.93-2.41-.47-.64-1-1.17-.53-.53-1-1.17-.46-.59-.87-1.26t-.82-1.32l-.94-1.38q-.59-.85-1.29-1.7-.7-.84-1.41-1.61-.7-.76-1.17-1.17-.06-.35-.29-.56-.24-.2-.53-.38-.12-.29-.26-.55-.15-.27-.15-.56 0-.41.18-.76.11-.24.14-.44.03-.21.15-.44.29-.64.79-1.26.5-.61.79-1.32.12-.17.12-.38 0-.2.12-.38.11-.47.49-.79.38-.32.62-.73.29-.47.56-.97.26-.5.55-1.08.88-1.47 1.85-2.85.96-1.37 1.96-2.78.76-1.17 1.49-2.25.74-1.09 1.5-2.2.41-.53.88-1.23.47-.71 1.02-1.41.56-.7 1.15-1.29.58-.58 1.17-.94.88-.05 1.17.39.29.43.88.43.76.18.99.47.24.3.53.59.82 0 1.32.29.5.3.97.88-.18.65-.53 1.14-.35.5-.64 1.03-.47.23-.68.64-.2.41-.61.65-.59.99-1.23 1.9-.65.91-1.29 1.79-.36.53-.74.94-.38.41-.67.88-.12.17-.2.38-.09.2-.21.38-.7 1.11-1.52 2.08-.82.96-1.53 2.14-.23.41-.38.85-.14.44-.38.85-.23.35-.67.93-.44.59-.85 1.26-.41.68-.73 1.29-.33.62-.33 1.03.06.29.74 1.14.67.85 1.52 1.82.85.96 1.61 1.81.76.85 1 1.03zm3.86-10.67q.41.88.88 1.53.18.23.41.41.24.17.35.47.12.11.24.49.12.39.23.56.18.47.71 1.06.52.58.52 1.05 0 .29-.11.65-.12.35-.18.64-.06.35-.06.73t-.23.68q-.3.29-.65.35-.35.06-.64.29-.12.12-.35.41-.24.29-.47.65-.24.35-.44.67-.21.32-.21.5-.7.06-.9.03-.21-.03-.44.03-.3-.3-.62-.5-.32-.21-.79-.38-.12-.47-.53-1.09-.41-.61-.7-1.02l-.41-.53q-.88-1.23-1.61-2.37-.73-1.15-1.09-2.55 1.12-.82 1.73-1.23.62-.41 1.32-.76.7-.36 1.38-.68.67-.32 1.26-.79.47 0 .64.06.18.06.24.12t.14.2q.09.15.38.32zm21.39-17.16q.12.23.26.32.15.09.21.38.41.29.64.44.24.15.3.5.52.41.61.52.09.12.15.3.29.23.56.41.26.17.38.52.46.42.58.65.12.23.18.53-.24.41-.94 1.11-.7.7-1.58 1.49-.88.8-1.7 1.53t-1.29 1.14q-.12.23-.29.41-.18.18-.3.41-.35.29-.64.62-.29.32-.7.49-.59.82-1.64 1.62-1.06.79-1.41 1.55.06.17.26.35.21.18.33.29.46.47 1.11.85.64.38 1.11.85.47.41.94.79.47.38.94.79.23.24.58.71.59.47 1.15.85.55.38 1.08.85 1.11.93 2.17 1.9 1.05.97 2.22 1.9l.47.53q0 .47.27 1.09.26.61.49 1.02-.11.59.03.73l.27.27q-.06 1.11.06 1.46-1 .88-1.85 1.61-.85.74-1.49 1.44-.53.64-1.09 1.14l-1.2 1.09q-.35.46-.58.64-.42.41-.83.64-.7.65-1.37 1.24-.68.58-1.32 1.17-.47.41-.88.79-.41.38-.82.85-.35.35-.79.82-.44.47-.91.76-.17.35-.47.61-.29.27-.53.56-.41.24-.76.47-.35.23-.82.47-.47-.35-.91-.65-.43-.29-.96-.41-.35-.29-.53-.58-.18-.29-.64-.41-.12-.18-.27-.38-.14-.21-.26-.44-.7-.06-1.11-.88.11-.35.32-.53.2-.17.09-.64.35-.59.85-1.03.49-.44.96-.91.53-.47.97-.96.44-.5.97-.97.29-.29.58-.56.29-.26.65-.55.64-.65 1.31-1.2.68-.56 1.38-1.21.94-.93 1.93-1.78 1-.85 1.82-1.91-.06-.23-.17-.32-.12-.09-.18-.26l-1.85-1.73q-.9-.85-1.96-1.5-.35-.35-.47-.58-1.05-.76-2.02-1.7t-2.14-1.58q-.23-.3-.55-.5-.33-.21-.62-.38-.18-.29-.38-.5-.21-.2-.5-.32-.47-.41-.61-.68-.15-.26-.5-.32-.12-.29-.38-.47-.27-.17-.56-.41-.12-.35-.35-.58-.06-.47.06-.68.11-.2.17-.32-.06-.35-.32-.53-.26-.17-.26-.58 0-.24.14-.32.15-.09.21-.27l.17-.88q.47-.35.8-.85.32-.49.85-.79.58-.88 1.46-1.46.29-.47.73-.76.44-.3.74-.77.46-.29.79-.64.32-.35.79-.65.11-.23.26-.38.15-.14.21-.32 1.58-1.52 2.78-2.63 1.2-1.12 2.49-2.23.35-.29.7-.65.35-.35.76-.64.12-.12.3-.12.17 0 .35-.11.7 0 .76-.06zm21.8-1.23l.11.05.59 2.08q.29 1.03.7 2.03.88.11 1.09.17.2.06.5.18.64 1.52.79 3.25.14 1.73.44 3.37 1.11 1.46 1.61 3.13t1.14 3.37q.18.59.23.74.06.14.06.26.35.99.71 2.05.35 1.05.76 2.05.17.53.38 1.03.2.49.38.96.18.59.32 1.2.15.62.32 1.2.41 1.18.88 2.35l.94 2.34q.18.41.67 1.82.5 1.41 1.03 2.96t.97 2.87q.44 1.32.44 1.61 0 .47.08.97.09.5.15 1.02-.23.59-.59.65-.35.06-.64-.06l-.56.23q-.26.12-.49.24-.18.06-.3.17-.11.12-.29.12-.7 0-.91.15-.2.14-.61.14-.53-.17-.68-.03-.14.15-.26.21-.24.12-.53.12-.29 0-.58.05-.12-.23-.21-.46-.09-.24-.26-.53-.65-.94-.91-1.82-.27-.88-.44-1.4-.29-.65-.5-1.29-.2-.65-.5-1.29-.35.11-.64.26-.29.15-.47.38-.7 0-.7.18 0 .17-.12.35-.35.12-.56.23-.2.12-.67.06-.29.3-.59.5-.29.21-.76.26-.47.47-.97.8-.49.32-1.14.14-.82.18-1.64.32-.82.15-1.64.15-.94-.29-1.17-.53-.24-.23-.7-.23.05-.82-.36-1.11 0-.18.03-.56.03-.38.15-.5.76-.35.88-.76.12-.41.64-.53.12-.23.27-.44.14-.2.26-.44.29-.11.5-.17.2-.06.32-.35.29 0 .88-.39.59-.38.76-.61.47-.18.59-.32.11-.15.29-.27.59.06.76-.11.47.23 1.06.23.23 0 .41-.03.17-.03.41-.03.47-.47 1.2-.61.73-.15 1.2-.62-.18-.47-.29-1.14-.12-.67-.41-1.08-.12-.77-.38-1.47-.27-.7-.44-1.35-.65-2.46-1.53-4.8-.88-2.35-1.46-4.81-.12-.29-.27-.61-.14-.32-.26-.62-.29.71-.29.79 0 .09-.12.21-.06.29-.12.5-.06.2-.17.49-.18.47-.33 1.03-.14.56-.26 1.03-.29.99-.53 2.08-.23 1.08-.52 2.13-.59 1.82-1.2 3.61-.62 1.79-1.21 3.6-.11.82-.26 1.26-.15.44-.29.88-.15.44-.24.85-.08.41-.08.64-.83 1.88-1.38 3.81-.56 1.94-1.38 3.75-.23.12-.41.3-.17.17-.41.17-.47 0-.5-.23-.03-.24-.26-.24-.24 0-.41.09-.18.09-.35.21-.3-.12-.68-.15-.38-.03-.55-.26-.41.29-.82.29-.47 0-.94-.29-.35.11-.7.11-.18 0-.41-.06-.24-.05-.36-.17-.05-.24-.05-.47v-.53q0-.58-.12-.88 1.05-2.98 2.05-6.06 1-3.08 1.99-6.24.53-1.47 1.03-2.87.49-1.41.96-2.87.24-.82.41-1.56.18-.73.47-1.43.47-1.53.97-3.08t.91-3.07q.23-.18.29-.41.06-.24.18-.53l-.06-.76q.41-.59.55-1.03.15-.44.21-.91.29-.7.53-1.52.23-.82.35-1.52.12-.94.14-2.14.03-1.2.33-2.02.11-.24.2-.33.09-.08.09-.38.12-.11.26-.26.15-.15.21-.32.29-.47.2-.82-.08-.35-.08-.76.52-.3.46-.53-.05-.24-.05-.47 0-.29.38-.56.38-.26.5-.55.35.05.7.08t.7-.03q.41.77 1 .77zm44.65 38.79q-.06.87.38 1.31.44.44.73 1.09-.12.82.17 1.29-.17.35-.35.79-.17.44-.52.73-.94.41-1.12.7-.17.3-.7.3-.29.29-.64.61-.36.32-.65.62-.29-.12-.41-.3-.12-.17-.35-.47-.59-.17-1.06-.61-.46-.44-.82-1-.35-.55-.67-1.17-.32-.61-.56-1.14-.82-1.52-1.67-3.08-.85-1.55-1.73-3.07-.46-.77-.9-1.56t-.91-1.61q-.12-.11-.24-.26-.11-.15-.23-.32-.41-.59-.62-1.32-.2-.73-.85-1.2-1.11-.12-2.02.32-.9.44-1.61 1.14.06.41.06.76v.71q0 1.34-.12 2.57-.11 1.24-.11 2.58 0 .59.05 1.2.06.62.18 1.21-.18.64-.18 1.4 0 .41.09.76.09.35.09.77 0 .58-.38.79-.38.2-.26.73-.71.29-1.35.58-.65.3-1.35.41-.29.06-.59.03-.29-.03-.52.09-.3.12-.47.44-.18.32-.47.32-.35 0-.41-.26t-.23-.44q-.3-.12-.47-.12-.18 0-.35-.17.05-.53-.24-.79-.29-.27-.29-1.09 0-.64.09-1.23.08-.58.08-1.23 0-.53-.14-.97-.15-.43-.27-.96-.06-.24 0-.47.06-.24.06-.47 0-1.05-.09-2.14-.08-1.08-.08-2.14v-.76q0-.35.05-.7.12-.35.21-.59.09-.23.09-.58 0-1.12-.24-2.2-.23-1.08-.23-2.14 0-.59.03-1.2.03-.62.03-1.2 0-1.7-.06-3.34t-.06-3.28q0-1.17.06-2.32.06-1.14.06-2.31 0-1.47-.12-2.9-.12-1.44-.12-2.96 0-.53-.06-.7-.05-.18-.17-.21-.12-.03-.26-.06-.15-.03-.27-.2 0-.35.29-.5.3-.15.3-.97 0-.47-.09-.94-.09-.46-.09-.93 0-.71.29-1.41.3-.7.53-1.35.71-.06.97 0t.56-.06q.17.65.76.68.58.03 1.05.14.53.06 1.03.27.5.2.96.2.12.36.5.5.38.15.79.27.47-.06.74-.41.26-.36.73-.36.35 0 .82.5t.7.79q.24.18.88.76.64.59 1.41 1.21.76.61 1.4 1.17.65.55.82.61 2.41 2.4 4.49 4.37 2.08 1.96 4.54 3.54.06.18.14.3.09.11.21.29 0 .47-.18.7-.17.24-.17.59 0 .17.08.35.09.18.09.35.06.24.03.44-.03.21-.03.44 0 .59.38 1.05.38.47.38 1.06-.11.53-.46.64-.36.12-.59.3-.12.11-.21.29-.08.18-.2.29-1.29.59-1.88 1.09-.58.49-1.23.96-.17.12-.58.38-.41.27-.82.53-.41.27-.73.56-.33.29-.33.47 0 .41.5 1.14t.73 1.14q.65 1.06 1.18 2.08.52 1.03 1.17 2.02 1.17 1.82 2.19 3.7 1.03 1.87 2.03 3.75zm-9.55-21.8q-1.35-1.7-2.91-3.08-1.55-1.37-2.95-2.9l-.65-.12q-.35-.58-.79-1.02l-.91-.91q.06.65.06 1.23v1.23q0 1.88-.09 3.66-.09 1.79-.09 3.61 0 1.81.18 3.45 1.23 0 2.23-.7.41-.29.76-.61.35-.33.76-.62.47-.29 1.08-.7.62-.41 1.23-.82.62-.41 1.18-.85.55-.44.91-.85zm35.33 28.12q-.24-.23-.24-.64 0-.29.03-.5.03-.2.09-.5.29-1.35.29-2.72 0-1.38.12-2.73.06-.82.09-1.64t.03-1.64q0-4.86-.3-9.7-.29-4.83-.29-9.75 0-3.4.12-6.83.12-3.42.17-6.88.53-.29 1.29-.24.77.06 1.23-.52.3-.06.59-.03t.59.03q.64 0 1.23-.41.58-.41 1.29-.71.35.12.49.09.15-.03.33-.03.17 0 .76.41.58.41 1.29.94.7.53 1.31 1 .62.46.8.58 1.46 1.11 2.6 2.43 1.15 1.32 2.26 2.67 1.05 1.35 2.28 2.72 1.23 1.38 2.41 2.55.41.47.85.82t.85.82q.17.24.32.5.14.26.32.56.35.41.82.7t.88.7q.29.24.88.94.58.7.58 1.06 0 .23-.11.41-.12.17-.24.41-.06.17-.06.52 0 .36-.05.47-.59.47-.65.59-.06.12-.17.23-.18.24-.44.38-.27.15-.39.44-.11.18-.08.35.03.18-.09.41-.29.65-.94 1.24-.64.58-1.11 1.28-.65 1.06-1.29 2.11-.65 1.06-1.47 2.05-.35.47-.73.91-.38.44-.73.91-.29.35-.53.73-.23.38-.53.85-.64.82-1.23 1.61-.58.8-1.23 1.62-.7.99-1.52 1.96-.82.97-1.46 1.96-.65 1.06-1.35 1.94-.71.87-1.53 1.69-.23.18-.58.53-.35.35-.7.35-.24 0-.39-.17-.14-.18-.43-.18-.06 0-.36.06-.29.06-.7.12l-1.05.11q-.94.47-1.35.44-.41-.03-.82.03-.24.06-.38.18-.15.12-.33.12-.41 0-.64-.38-.23-.39-.7-.33zm17.58-25.31q0-.29-.56-.82t-.85-.76q-.41-.35-.97-.68-.55-.32-.91-.73-.29-.35-.55-.73-.27-.38-.56-.73-1.05-1.17-2.14-2.35-1.08-1.17-1.9-2.57-.53-.36-1-.82-.47-.47-1.11-.77-.12.36-.09.74t.03.73q0 1.35-.12 2.64-.11 1.28-.11 2.57 0 3.17.14 6.24.15 3.08.15 6.19 0 1.17.03 2.34t.2 2.34q-.11.35-.11.65 0 .29.11.76.47-.29.79-.73.33-.44.62-.85 1-1.29 1.96-2.61l1.96-2.67q.65-.88 1.32-1.73.68-.84 1.32-1.78.18-.24.56-.82.38-.59.76-1.2.38-.62.7-1.15.33-.52.33-.7zm38.14 18.99q-.06.87.38 1.31.44.44.73 1.09-.11.82.18 1.29-.18.35-.35.79-.18.44-.53.73-.94.41-1.11.7-.18.3-.71.3-.29.29-.64.61-.35.32-.65.62-.29-.12-.41-.3-.11-.17-.35-.47-.58-.17-1.05-.61-.47-.44-.82-1-.35-.55-.68-1.17-.32-.61-.55-1.14-.82-1.52-1.67-3.08-.85-1.55-1.73-3.07-.47-.77-.91-1.56-.44-.79-.91-1.61-.11-.11-.23-.26-.12-.15-.24-.32-.41-.59-.61-1.32-.21-.73-.85-1.2-1.11-.12-2.02.32-.91.44-1.61 1.14.05.41.05.76v.71q0 1.34-.11 2.57-.12 1.24-.12 2.58 0 .59.06 1.2.06.62.17 1.21-.17.64-.17 1.4 0 .41.09.76.08.35.08.77 0 .58-.38.79-.38.2-.26.73-.7.29-1.35.58-.64.3-1.35.41-.29.06-.58.03t-.53.09q-.29.12-.47.44-.17.32-.47.32-.35 0-.41-.26-.05-.26-.23-.44-.29-.12-.47-.12t-.35-.17q.06-.53-.24-.79-.29-.27-.29-1.09 0-.64.09-1.23.09-.58.09-1.23 0-.53-.15-.97-.15-.43-.26-.96-.06-.24 0-.47.06-.24.06-.47 0-1.05-.09-2.14-.09-1.08-.09-2.14v-.76q0-.35.06-.7.12-.35.2-.59.09-.23.09-.58 0-1.12-.23-2.2-.24-1.08-.24-2.14 0-.59.03-1.2.03-.62.03-1.2 0-1.7-.06-3.34t-.06-3.28q0-1.17.06-2.32.06-1.14.06-2.31 0-1.47-.12-2.9-.11-1.44-.11-2.96 0-.53-.06-.7-.06-.18-.18-.21-.11-.03-.26-.06-.15-.03-.26-.2 0-.35.29-.5.29-.15.29-.97 0-.47-.09-.94-.08-.46-.08-.93 0-.71.29-1.41t.53-1.35q.7-.06.96 0 .27.06.56-.06.18.65.76.68.59.03 1.06.14.52.06 1.02.27.5.2.97.2.12.36.5.5.38.15.79.27.47-.06.73-.41.26-.36.73-.36.35 0 .82.5t.71.79q.23.18.87.76.65.59 1.41 1.21.76.61 1.41 1.17.64.55.82.61 2.4 2.4 4.48 4.37 2.08 1.96 4.54 3.54.06.18.15.3.08.11.2.29 0 .47-.17.7-.18.24-.18.59 0 .17.09.35.09.18.09.35.05.24.03.44-.03.21-.03.44 0 .59.38 1.05.38.47.38 1.06-.12.53-.47.64-.35.12-.59.3-.11.11-.2.29-.09.18-.21.29-1.29.59-1.87 1.09-.59.49-1.23.96-.18.12-.59.38-.41.27-.82.53-.41.27-.73.56-.32.29-.32.47 0 .41.49 1.14.5.73.74 1.14.64 1.06 1.17 2.08.53 1.03 1.17 2.02 1.17 1.82 2.2 3.7 1.02 1.87 2.02 3.75zm-9.55-21.8q-1.35-1.7-2.9-3.08-1.55-1.37-2.96-2.9l-.64-.12q-.36-.58-.8-1.02-.44-.44-.9-.91.05.65.05 1.23v1.23q0 1.88-.08 3.66-.09 1.79-.09 3.61 0 1.81.17 3.45 1.23 0 2.23-.7.41-.29.76-.61.35-.33.76-.62.47-.29 1.09-.7.61-.41 1.23-.82.61-.41 1.17-.85.56-.44.91-.85zm22.73 12.07q.12.29.85 1.23.74.94 1.67 2.05.94 1.11 1.79 2.14.85 1.02 1.2 1.49.65.82 1.26 1.61.62.79 1.14 1.67l1.06 1.76q.47.59.85 1 .38.41.61 1.11.12.47.12.65 0 .41-.29.58-.47 0-.5.15-.03.14-.26.26-.24.12-.74.15-.49.03-.79.03-.53 0-1.32-.03t-1.26.14q-.11.06-.35.18-.23.12-.35.12-.47 0-.67-.15-.21-.15-.56-.2-.47-.53-.79-1.09-.32-.55-.73-1.14-.41-.41-.82-.73-.41-.33-.71-.74-.88-1.28-1.81-2.51-.94-1.24-1.94-2.41-.47-.64-.99-1.17-.53-.53-1-1.17-.47-.59-.88-1.26-.41-.67-.82-1.32-.35-.53-.94-1.38-.58-.85-1.28-1.7-.71-.84-1.41-1.61-.7-.76-1.17-1.17-.06-.35-.3-.56-.23-.2-.52-.38-.12-.29-.27-.55-.14-.27-.14-.56 0-.41.17-.76.12-.24.15-.44.03-.21.15-.44.29-.64.79-1.26.49-.61.79-1.32.11-.17.11-.38 0-.2.12-.38.12-.47.5-.79.38-.32.62-.73.29-.47.55-.97.27-.5.56-1.08.88-1.47 1.84-2.85l1.97-2.78q.76-1.17 1.49-2.25.73-1.09 1.5-2.2.41-.53.87-1.23.47-.71 1.03-1.41t1.14-1.29q.59-.58 1.17-.94.88-.05 1.18.39.29.43.88.43.76.18.99.47.24.3.53.59.82 0 1.32.29.49.3.96.88-.17.65-.52 1.14-.36.5-.65 1.03-.47.23-.67.64-.21.41-.62.65-.58.99-1.23 1.9-.64.91-1.29 1.79-.35.53-.73.94-.38.41-.67.88-.12.17-.21.38-.09.2-.2.38-.71 1.11-1.53 2.08-.82.96-1.52 2.14-.23.41-.38.85t-.38.85q-.24.35-.68.93-.44.59-.85 1.26-.41.68-.73 1.29-.32.62-.32 1.03.06.29.73 1.14.68.85 1.53 1.82.85.96 1.61 1.81.76.85.99 1.03zm3.87-10.67q.41.88.88 1.53.18.23.41.41.23.17.35.47.12.11.24.49.11.39.23.56.18.47.7 1.06.53.58.53 1.05 0 .29-.12.65-.11.35-.17.64-.06.35-.06.73t-.24.68q-.29.29-.64.35-.35.06-.64.29-.12.12-.36.41-.23.29-.46.65-.24.35-.44.67-.21.32-.21.5-.7.06-.91.03-.2-.03-.44.03-.29-.3-.61-.5-.32-.21-.79-.38-.12-.47-.53-1.09-.41-.61-.7-1.02l-.41-.53q-.88-1.23-1.62-2.37-.73-1.15-1.08-2.55 1.11-.82 1.73-1.23.61-.41 1.32-.76.7-.36 1.37-.68.68-.32 1.26-.79.47 0 .65.06.17.06.23.12t.15.2q.09.15.38.32zm21.39-17.16q.11.23.26.32.15.09.21.38.41.29.64.44.23.15.29.5.53.41.62.52.09.12.15.3.29.23.55.41.27.17.38.52.47.42.59.65.12.23.17.53-.23.41-.93 1.11-.71.7-1.59 1.49-.87.8-1.69 1.53t-1.29 1.14q-.12.23-.3.41-.17.18-.29.41-.35.29-.64.62-.3.32-.71.49-.58.82-1.64 1.62-1.05.79-1.4 1.55.05.17.26.35l.32.29q.47.47 1.12.85.64.38 1.11.85.47.41.94.79.46.38.93.79.24.24.59.71.59.47 1.14.85.56.38 1.09.85 1.11.93 2.16 1.9 1.06.97 2.23 1.9l.47.53q0 .47.26 1.09.27.61.5 1.02-.12.59.03.73.15.15.26.27-.05 1.11.06 1.46-.99.88-1.84 1.61-.85.74-1.5 1.44-.52.64-1.08 1.14-.56.5-1.2 1.09-.35.46-.59.64-.41.41-.82.64-.7.65-1.38 1.24-.67.58-1.31 1.17-.47.41-.88.79-.41.38-.82.85-.35.35-.79.82-.44.47-.91.76-.18.35-.47.61-.29.27-.53.56-.41.24-.76.47-.35.23-.82.47-.47-.35-.91-.65-.44-.29-.97-.41-.35-.29-.52-.58-.18-.29-.65-.41-.11-.18-.26-.38-.15-.21-.26-.44-.71-.06-1.12-.88.12-.35.32-.53.21-.17.09-.64.35-.59.85-1.03.5-.44.97-.91.53-.47.97-.96.43-.5.96-.97.3-.29.59-.56.29-.26.64-.55.65-.65 1.32-1.2.67-.56 1.38-1.21.94-.93 1.93-1.78 1-.85 1.82-1.91-.06-.23-.18-.32-.11-.09-.17-.26l-1.85-1.73q-.91-.85-1.96-1.5-.35-.35-.47-.58-1.06-.76-2.02-1.7-.97-.94-2.14-1.58-.24-.3-.56-.5-.32-.21-.61-.38-.18-.29-.38-.5-.21-.2-.5-.32-.47-.41-.62-.68-.14-.26-.5-.32-.11-.29-.38-.47-.26-.17-.55-.41-.12-.35-.35-.58-.06-.47.05-.68.12-.2.18-.32-.06-.35-.32-.53-.27-.17-.27-.58 0-.24.15-.32.15-.09.21-.27l.17-.88q.47-.35.79-.85.32-.49.85-.79.59-.88 1.47-1.46.29-.47.73-.76.44-.3.73-.77.47-.29.79-.64.33-.35.79-.65.12-.23.27-.38.14-.14.2-.32 1.58-1.52 2.79-2.63 1.2-1.12 2.49-2.23.35-.29.7-.65.35-.35.76-.64.12-.12.29-.12.18 0 .36-.11.7 0 .76-.06zm21.21 0q.12.23.26.32.15.09.21.38.41.29.64.44.24.15.29.5.53.41.62.52.09.12.15.3.29.23.55.41.27.17.38.52.47.42.59.65.12.23.18.53-.24.41-.94 1.11-.71.7-1.58 1.49-.88.8-1.7 1.53t-1.29 1.14q-.12.23-.3.41-.17.18-.29.41-.35.29-.64.62-.3.32-.71.49-.58.82-1.64 1.62-1.05.79-1.4 1.55.06.17.26.35.21.18.32.29.47.47 1.12.85.64.38 1.11.85.47.41.94.79.47.38.93.79.24.24.59.71.59.47 1.14.85.56.38 1.09.85 1.11.93 2.17 1.9 1.05.97 2.22 1.9l.47.53q0 .47.26 1.09.27.61.5 1.02-.12.59.03.73l.27.27q-.06 1.11.05 1.46-.99.88-1.84 1.61-.85.74-1.5 1.44-.52.64-1.08 1.14-.56.5-1.2 1.09-.35.46-.59.64-.41.41-.82.64-.7.65-1.37 1.24-.68.58-1.32 1.17-.47.41-.88.79-.41.38-.82.85-.35.35-.79.82-.44.47-.91.76-.18.35-.47.61-.29.27-.53.56-.41.24-.76.47-.35.23-.82.47-.47-.35-.91-.65-.44-.29-.96-.41-.36-.29-.53-.58-.18-.29-.65-.41-.11-.18-.26-.38-.15-.21-.26-.44-.71-.06-1.12-.88.12-.35.33-.53.2-.17.08-.64.35-.59.85-1.03.5-.44.97-.91.53-.47.97-.96.44-.5.96-.97.3-.29.59-.56.29-.26.64-.55.65-.65 1.32-1.2.68-.56 1.38-1.21.94-.93 1.93-1.78 1-.85 1.82-1.91-.06-.23-.18-.32-.11-.09-.17-.26l-1.85-1.73q-.91-.85-1.96-1.5-.35-.35-.47-.58-1.05-.76-2.02-1.7t-2.14-1.58q-.23-.3-.56-.5-.32-.21-.61-.38-.18-.29-.38-.5-.21-.2-.5-.32-.47-.41-.62-.68-.14-.26-.49-.32-.12-.29-.39-.47-.26-.17-.55-.41-.12-.35-.35-.58-.06-.47.06-.68.11-.2.17-.32-.06-.35-.32-.53-.26-.17-.26-.58 0-.24.14-.32.15-.09.21-.27l.17-.88q.47-.35.79-.85.33-.49.85-.79.59-.88 1.47-1.46.29-.47.73-.76.44-.3.73-.77.47-.29.79-.64.33-.35.79-.65.12-.23.27-.38.15-.14.2-.32 1.59-1.52 2.79-2.63 1.2-1.12 2.49-2.23.35-.29.7-.65.35-.35.76-.64.12-.12.29-.12.18 0 .36-.11.7 0 .76-.06zm19.33 3.34q0 .52-.35.79-.35.26-.64.67-.59.53-1.03 1.09-.44.55-1.02 1.08-.24.23-.65.61-.41.39-.85.77t-.88.67q-.44.29-.73.29-.47 0-1.2-.32t-1.26-.44q-.41-.06-.73-.09t-.62-.32q-1.05-.23-1.34-.73-.3-.5-.65-1.03 0-.23.18-.29.17-.06.29-.23.59-.77 1-1.26.41-.5.93-1.03 1-.88 1.91-1.82.91-.93 1.9-1.75.47-.06.71-.36.23-.29.7-.29t.79.29q.32.3.59.68l.52.76q.27.38.62.56.41.29 1.11.76.7.47.7.94zm-8.02 10.89q.41.24.61.62.21.38.62.56.35.17.76.17.41 0 .7.12.24.12.35.29.12.18.24.35.35.3 1.08.53.73.24.97.53.41.53.61 1.35.21.82.33 1.72.11.91.17 1.82.06.91.18 1.55.12 1.35.29 2.67.18 1.32.18 2.67 0 1.34-.12 2.75t-.12 2.75q0 .71-.03 1.76-.03 1.06-.5 1.64-.05.24-.05.82v1.88q0 .35.05.7.06.35.06.76 0 .65-.35.94-.17-.06-.38-.06h-.38q-.64 0-.94.24-.64-.06-1.23-.12-.58-.06-1.23-.06-.99 0-2.17.29-.23-.58-.2-1.23.03-.64-.26-1.17-.06-.18-.09-.32-.03-.15-.03-.32.17-.71.17-.97v-.56q0-.82-.05-1.67-.06-.85.05-1.67 0-.29.09-.52.09-.24.09-.53 0-.29-.12-.41-.11-.12-.11-.29 0-.18.02-.59.03-.41.15-.53 0-.47.03-.91.03-.44.03-.85 0-.93-.06-1.87-.06-.94-.06-1.82 0-.41-.06-.52-.05-.12-.11-.18t-.18-.09q-.12-.03-.18-.2.24-2.58-.17-5.16-.41-2.58-.41-5.21 0-.41.12-.62.11-.2.29-.32.17-.12.32-.27.15-.14.21-.44.47.12.82 0zm33.22-14.76q.94-.12 1.43.15.5.26 1.03.32.29.06.62.03.32-.03.67-.03.76 0 1.2.17.44.18.91.77.12.11.32.32.21.2.21.38 0 .47-.24.82-.23.35-.23.99 0 1 .23 1.97.24.96.29 1.96.3 3.63.33 7.3.03 3.66.03 7.23 0 .47-.03.85t-.27.68v.76q-.06 1.52.06 3.07.12 1.56.12 3.08 0 1.35-.15 2.69-.14 1.35-.14 2.76 0 1.29.17 2.52.18 1.23.18 2.52-.3.53-.35.82-.06.29-.24.53-.17.11-.38.05-.2-.05-.32.12-.29.35-.41.82t-.59.76q-.11.82-.61 1.26-.5.44-.74 1.15-.7.05-.96-.06-.27-.12-.56-.24-.06-.99.03-1.43.09-.44.09-.91 0-.59-.29-.88-.3-.29-.41-.76-.65-.41-.88-.56-.24-.14-.41-.38-.36-.47-.59-1-.23-.52-.53-.99-.82-1.35-1.67-2.76-.85-1.4-1.84-2.75-.18-.29-.41-.53-.24-.23-.41-.52-1-1.59-1.88-3.23-.88-1.64-2.05-3.1-.47-.59-.7-1.32-.24-.73-.7-1.26-.06.29-.06.64v.65q0 1.99.08 3.95.09 1.97.09 3.96 0 .41-.09.73-.08.32-.08.73 0 .59.06 1.12.05.52.05 1.05 0 .65-.03 1.23-.02.59-.08 1.17-.12.77-.3 1.44-.17.67-.17 1.38 0 .41.09.76.08.35.08.64-.41.65-1.02.65-.62 0-1.03.47-.35-.06-.55.05-.21.12-.38.12-.24 0-.39-.06-.14-.06-.32-.06-.29 0-.58.3-.3.29-.59.29-.18 0-.61-.23-.44-.24-.94-.56-.5-.32-.91-.64-.41-.33-.41-.5-.06-.3-.06-.82 0-.71.09-1.38.09-.67.2-1.38.18-1.99.18-3.95v-3.96q0-.82.03-1.64t.03-1.64q0-1.93-.15-3.9-.14-1.96-.14-3.89 0-1.35.11-2.67.12-1.32.12-2.6 0-1-.06-1.94t-.06-1.93q-.06-.65 0-1.38.06-.73.06-1.38 0-.76-.2-1.43-.21-.68-.21-1.26 0-.35.15-.68.14-.32.14-.67 0-.47-.14-.94-.15-.47-.15-.93 0-.47.12-.88.12-.41.12-.88.82-.41 1.46-.41t.94.47q0 1.05.11 1.61.12.55.18 1.14 0 .35-.03.82t.03.91q.06.44.26.73.21.29.74.29.11.3.29.53.18.24.23.59.36-.24.41-.65.06-.41 0-.76.3.12.53.09.24-.03.47.09.12.82.29 1.43.18.62.12 1.44 1.17.88 2.02 2.49.85 1.61 1.61 2.9.41.64.97 1.2.56.56.85 1.32.47.29.76.76.29.47.53.94 1.17 2.05 2.58 3.98 1.4 1.94 2.93 3.81.05-.41.05-.79v-.79l-.05-5.27q0-.47-.03-.88-.03-.41-.09-.88-.12-1.53-.06-2.99.06-1.47 0-2.99-.12-1.58-.15-3.22-.03-1.64-.14-3.28l-.12-2q-.06-.99-.06-1.99 0-1.23.24-2.22.11-.12.26-.21.15-.09.38-.09.35 0 .47.59zm44.18 21.27h.23q.12.41.47.88.35.47.35.7-.46 1.11-.7 1.73-.23.61-.76 1.08 0 .18-.35.76-.35.59-.79 1.26-.44.68-.88 1.29-.44.62-.56.85-.29.47-.47.91-.17.44-.41.85-.53.94-1.08 1.76-.56.82-1.03 1.82-.29.29-.52.64-.24.35-.53.64-.71 1.29-1.61 2.41-.91 1.11-1.67 2.46.64.64.64 1.64 0 .53-.29.55-.29.03-.53.15-.59.41-1.05.47-.47.06-.77.06-.64 0-1.4-.03-.76-.03-1.29.09-.18.06-.41.2-.24.15-.35.15-.47 0-.68-.15-.2-.14-.55-.26-.47-.53-.85-1.11-.38-.59-.79-1.18-.36-.41-.77-.73-.41-.32-.76-.79-.93-1.35-1.9-2.58-.97-1.23-1.96-2.46-.47-.64-1.03-1.23t-1.03-1.17q-.46-.65-.87-1.35-.41-.7-.88-1.35-.35-.58-1-1.43-.64-.85-1.35-1.73-.7-.88-1.43-1.67-.73-.79-1.26-1.2 0-.41-.24-.59-.23-.17-.52-.41-.12-.29-.3-.55-.17-.27-.17-.62 0-.41.17-.76.12-.24.15-.44.03-.21.15-.44.29-.76.85-1.35.55-.58.85-1.35.05-.23.05-.44 0-.2.12-.43.18-.41.53-.74.35-.32.64-.73.3-.53.59-1.05.29-.53.59-1.06.82-1.35 1.81-2.61 1-1.26 1.88-2.49.82-1.17 1.52-2.31.7-1.14 1.52-2.32.41-.58.94-1.31.53-.74 1.08-1.44.56-.7 1.15-1.32.58-.61 1.17-.91 1-.11 1.29.33.29.44.82.44.82.17 1.11.52.29.35.59.65.76 0 1.29.29.52.29 1.05.88-.23.64-.61 1.17-.38.53-.68 1.11-.47.18-.67.59-.21.41-.62.7-.64 1-1.29 1.97-.64.96-1.28 1.84-.3.35-.65.56-.35.2-.64.61-.12.18-.18.39-.06.2-.18.38-.7 1.11-1.58 2.16-.88 1.06-1.52 2.23-.29.41-.47.85t-.41.85q-.23.41-.67 1.03-.44.61-.88 1.26-.44.64-.76 1.28-.33.65-.33 1.06.06.29.77 1.17.7.88 1.58 1.88.88.99 1.67 1.9.79.91.96 1.08.12.3.88 1.26.76.97 1.73 2.11.97 1.15 1.91 2.2.93 1.06 1.28 1.52l.47.77q.12-.06.62-.82.5-.77 1.02-1.7.53-.94.97-1.76.44-.82.56-1.06.17-.17.58-.93.41-.77.91-1.64.5-.88.88-1.65.38-.76.44-.99h-.7q-.94 0-1.85.09-.91.08-1.84.38-.41-.06-.71-.24-.29-.17-.7-.35-.18-.58-.15-.82.03-.23-.03-.35-.05-.23-.14-.35-.09-.12-.09-.35 0-.41-.12-.68-.12-.26-.23-.61 0-.24.03-.47.03-.24-.09-.41.12-1.06-.18-1.52 0-.83.24-1.06.23-.23.35-.7.53.17.91-.09t.79-.26q.94 0 1.52-.3.53-.06 1.09-.06.55 0 1.08-.11.29-.06.5-.12.2-.06.5-.12.35-.06.76-.06h.76q.94-.11 1.87-.14.94-.03 1.88-.09.29.12.56.18.26.05.49.17.18.12.3.26.11.15.41.21.29.29.41.59-.12.52.06.76-.3.29-.33.79-.03.5-.08.91.41.11.7.64t.41.53z"/></svg>