<svg viewBox="0 0 300 80" xmlns="http://www.w3.org/2000/svg"><path d="M22.1 61.96q-1.86-.66-3.57-1.92-1.71-1.26-2.49-3.18-.96-2.7-.96-6.36 0-3.54.42-6.03t1.44-5.07l.54-1.26q.96-2.46 1.38-3.24 1.02-2.34 3.6-6.06 2.4-3.6 3.81-5.37 1.41-1.77 2.91-3.06 1.5-1.29 4.38-3.27 1.74-1.26 4.26-1.26 1.98 0 3.63.96t2.49 3q.6 1.02.6 2.82 0 2.88-1.38 6.24-1.38 3.36-3.3 5.1-.42.42-1.14.42T37.16 34q-.84-.42-1.5-1.02-.54-1.02-.6-1.2-.06-.18.24-.24.54-.66 1.59-2.55 1.05-1.89 1.41-2.97l.36-1.68q.36-1.56.36-2.04 0-.54-.42-.96-.18-.18-.48-.18-.48 0-1.68.6-1.38.6-3.27 2.43-1.89 1.83-3.75 4.35-2.76 3.6-4.23 5.94-1.47 2.34-2.25 4.74l-.66 1.56q.06.24-.18 1.2t-.54 1.56q-.84 3.48-.84 6.3 0 2.22.45 3.84.45 1.62 1.29 2.4.48.42 1.38.42.96 0 2.19-.45T28.64 55q1.38-.6 1.92-.84 1.38-.54 2.61-1.26T35 51.58q1.56-1.14 2.52-1.14.78-.24 1.23.48.45.72.45 1.98 0 .84-1.14 2.01t-2.7 2.07q-.66.66-2.94 1.56-1.92 1.38-4.47 2.46t-4.65 1.08q-.48 0-1.2-.12zm22.8-5.22q-.18-.36-1.02-.96-.84-.6-.84-.72 0-.24-.27-.69-.27-.45-.51-.81-.48-.48.66-3.12 1.14-2.64 3.06-6.24.36-.36.93-1.26.57-.9.75-1.02 0-.24.18-.45.18-.21.42-.21l.48-.96q.24-.54 2.34-2.58 2.1-2.04 3.3-2.76 1.14-.78 2.46-.78 1.44 0 2.46.84l1.62 1.38q1.8 1.5 2.04 1.74l2.22 1.98-1.02 3q-.54 1.62-.54 3.06 0 2.28 1.26 4.26.3.66.81 1.02t1.35.48q1.32.24 1.32 1.32 0 1.32-.48 1.98-.48.66-1.14.84-.96.12-1.32.12-1.74 0-3.18-.9-1.44-.9-2.52-3.06-.24-.36-.63-1.32-.39-.96-.45-1.32-.42.6-1.38 1.56-6.18 6.24-10.02 6.24-1.32 0-2.34-.66zm3.3-4.98q.96.12 3.72-2.16.3-.24.66-.57.36-.33.78-.69 1.68-1.38 2.61-2.31.93-.93 1.89-2.25l1.32-2.16q-.6-1.32-1.08-1.77-.48-.45-.96-.45-1.2 0-3 2.13t-4.32 6.45q-.66 1.08-1.08 2.25-.42 1.17-.54 1.53zm25.56 3.06q-.66-.48-1.8-4.08-1.14-3.6-1.62-6.72-.24-1.26-.96-3.42-.12-.48-.12-.78 0-.9.48-1.83t1.08-1.29q.24-.18 1.05-.27.81-.09 1.11-.03 1.32.48 2.4 7.32.24 1.86.39 2.7.15.84.15 1.14.12.36.24.84t.24.66q.12.18.42-.12.66-.66 1.98-2.4.66-.84 1.98-2.76l1.74-2.34q.72-.96 1.92-2.1 1.2-1.14 1.86-1.32.84-.12 1.35.33.51.45.51 1.23 0 1.14-.96 2.46-.36.48-.75 1.29t-.51.93q-.66 1.32-2.43 3.72-1.77 2.4-2.37 3-.12.12-.99.84t-1.59 1.74q-1.86 1.8-3.48 1.8-.78 0-1.32-.54zM96.26 58q-3.42 0-5.52-1.92-2.1-1.92-2.1-5.46 0-1.38.18-3.06.12-1.44 1.17-3.96 1.05-2.52 2.88-4.92 1.83-2.4 4.29-3.54 1.14-.54 1.92-.75.78-.21 1.8-.21 2.46 0 3.99.9 1.53.9 2.16 2.04.63 1.14.63 1.98v.48q0 .72-.84 2.64-.84 1.92-2.67 3.6-1.83 1.68-4.71 1.86-1.44 0-2.79-.27t-1.71-.27q-.9 0-1.14.66-.24.66-.24 2.22.18 1.68.93 2.34.75.66 2.19.66.72 0 1.68-.42.96-.48 2.28-1.5.72-.6 1.14-.84.42-.24 1.02-.24.54 0 1.26.72t.78 1.38q-.12.72-1.32 2.16-1.2 1.44-3.12 2.58Q98.48 58 96.26 58zm2.1-14.46q1.14 0 1.56-.24.6-.3 1.83-1.53t1.29-1.71q0-.6-.51-.99t-1.41-.51h-.66q-.78 0-2.25 1.29t-2.55 2.97q.06.3.9.51.84.21 1.8.21zm12 13.2q-.18-.36-1.02-.96-.84-.6-.84-.72 0-.24-.27-.69-.27-.45-.51-.81-.48-.48.66-3.12 1.14-2.64 3.06-6.24.36-.36.93-1.26.57-.9.75-1.02 0-.24.18-.45.18-.21.42-.21l.48-.96q.24-.54 2.34-2.58 2.1-2.04 3.3-2.76 1.14-.78 2.46-.78 1.44 0 2.46.84l1.62 1.38q1.8 1.5 2.04 1.74l2.22 1.98-1.02 3q-.54 1.62-.54 3.06 0 2.28 1.26 4.26.3.66.81 1.02t1.35.48q1.32.24 1.32 1.32 0 1.32-.48 1.98-.48.66-1.14.84-.96.12-1.32.12-1.74 0-3.18-.9-1.44-.9-2.52-3.06-.24-.36-.63-1.32-.39-.96-.45-1.32-.42.6-1.38 1.56-6.18 6.24-10.02 6.24-1.32 0-2.34-.66zm3.3-4.98q.96.12 3.72-2.16.3-.24.66-.57.36-.33.78-.69 1.68-1.38 2.61-2.31.93-.93 1.89-2.25l1.32-2.16q-.6-1.32-1.08-1.77-.48-.45-.96-.45-1.2 0-3 2.13t-4.32 6.45q-.66 1.08-1.08 2.25-.42 1.17-.54 1.53zm26.28 6.3q-.96-.18-2.16-1.53-1.2-1.35-1.5-2.31 0-.12-.12-.27-.12-.15-.18-.21-.24-.18-.24-1.98 0-1.44.15-3t.39-2.52l1.08-3.18.84-2.4 1.62-3.48-2.4-.66q-.42-.06-.69-.42-.27-.36-.27-.66 0-.48.51-1.38.51-.9.81-.9.18.06.96.06 1.8 0 2.7-.18.6-.24.84-.96.3-.66.6-1.11.3-.45.6-.99.18-.36.57-1.11.39-.75.99-1.71.12-.18.54-.87.42-.69 1.02-1.17.36-.3.96-.51.6-.21 1.2-.21 1.08 0 1.74.6.54.84.54 1.26 0 .48-.48 1.26-.36.72-1.2 1.92-.72 1.08-1.08 1.74-.6.78-.6 1.2 0 .42.78.42.84 0 2.82-.36.3-.06.84-.06 1.44 0 2.04.84.6.84.6 2.1 0 .84-.57 1.02-.57.18-2.55.18-1.92.3-3.96.3-.36 0-.81.03-.45.03-.93.15-.48.12-.69.36-.21.24-.45.78-.18.18-.84 1.38-.84 1.74-1.08 2.1-1.56 4.56-2.4 9.42-.06.36-.06.9 0 .78.51 1.11.51.33 2.01.33 1.68 0 3.18-.42 1.8-.78 2.7-1.32.54-.3.99-.57.45-.27.63-.39.24-.48.81.12.57.6.87 1.38 0 1.08-.42 1.95-.42.87-2.1 1.83-1.92 1.2-3.96 1.74t-3.84.54q-1.02 0-1.86-.18zm36.18 4.26q-1.56-.96-2.34-2.01-.78-1.05-.78-2.01 0-1.26 1.26-2.04.24-.12.66-.12.6 0 1.29.21.69.21 1.05.57 1.56 1.44 3.72 1.44.96 0 2.76-.42 2.34-.72 3.69-1.8t3.21-3.36q1.14-1.5 1.71-3.03.57-1.53.57-2.79 0-1.38-.66-2.16-1.2-1.62-2.67-2.43t-3.45-.81q-1.74 0-3.42.48l-3.48.72q-.24.06-.63.09t-1.11 1.77q-.72 1.74-2.46 6.6-1.26 3.54-2.1 5.07-.84 1.53-1.5 1.53-.72 0-1.56-1.32-.18-.3-.75-1.2-.57-.9-.57-1.74 0-.42.3-1.02.3-.54.51-1.08.21-.54.45-1.5.78-2.34 4.53-11.64t5.85-14.04q1.5-3.42.9-3.6 0-.18-.18-.54-.18-.36-.12-.54 0-.36 2.13-1.08 2.13-.72 2.91-.6h.36q.78 0 .78-.3.12 0 1.11-.12.99-.12 2.13 0 4.26.36 6.72 2.43 2.46 2.07 2.4 6.09-.12 1.56-1.74 4.26-1.62 2.7-3.54 4.44-.96.84-2.19 1.77t-1.59 1.17l1.5.54q2.82 1.08 4.38 2.64t2.22 4.26q.12.6.12 1.08 0 1.32-.45 3t-.99 2.94q-.36.36-.6.78-.24.42-.3.54-.06.24-1.08 1.83t-1.8 2.55q-3.96 3.36-6.54 4.32-2.52 1.14-6 1.14-3.12 0-4.62-.96zm4.32-24.9q.6-.12 2.4-.51 1.8-.39 2.58-.69.12-.06.75-.39t1.29-.99q3.78-3.54 5.28-6.36 1.5-2.46 1.5-3.48 0-.72-.66-1.38-1.14-1.32-3.78-1.32-1.14 0-1.92.24-.84.24-1.23.57-.39.33-.39.99 0 .48-.3 1.05-.3.57-.66.93-.06.36-.33.72t-.39.48q0 .12-.81 1.62t-1.53 3.36q-1.8 4.26-1.8 5.16zm24.96 20.16q-.72 0-1.14-.24-.42-.24-1.2-.9-1.2-1.26-1.86-2.61-.66-1.35-.48-2.37.18-.42.15-.84t-.03-.54q-.24-.24-.24-.33 0-.09.12-.18t.18-.21q.36 0 .24-.66-.12-.48.42-2.1t1.38-3q.66-1.08 1.95-2.7t2.31-2.46q3-2.58 5.4-3.12 1.2-.3 2.34-.3 1.74 0 2.7.96 1.32.54 1.92 1.56.6 1.02.78 2.7.06.36.06 1.2 0 4.44-3.36 9.24-1.38 1.98-2.76 3.18-1.38 1.2-3.36 2.4-1.08.72-2.28.96-1.2.24-3.24.36zm6.12-7.32q1.14-1.02 1.65-2.07.51-1.05 1.47-3.69.36-.54.36-2.16 0-1.44-.42-1.62-.3-.24-.72-.24-.54 0-1.74.84-2.1 1.8-3.51 3.75-1.41 1.95-1.95 4.47-.06.24-.06.72 0 2.04 1.44 2.04 1.38 0 3.48-2.04zm14.04 8.4q-.18.06-.48.06-1.26 0-2.1-1.44-.84-1.44-.84-3.66 0-1.2.24-2.34.66-1.74.66-2.52.18-1.14 1.23-4.11 1.05-2.97 1.35-3.57.24 0 .42-.39t.18-.87q0-.54.21-1.11.21-.57.45-.81 0-.18.15-.66.15-.48.15-.66 0-.12.15-.45t.15-.51q.96-1.86 3.36-8.37 2.4-6.51 2.4-7.23 0-.48.36-.9.36-.42.84-.42.18-.18.78-.27.6-.09.96-.09l.96.96q.66.6 1.02 1.08.36.48.36 1.14 0 1.08-.39 2.13-.39 1.05-2.25 4.95-.12.3-.96 2.16-.6 1.2-.6 1.38 0 .18-.24.75-.24.57-.42 1.17-.48.96-1.53 3.39t-1.05 2.67q0 .66-.3.96-.18 0-.24.27t-.06.39q0 .6-.96 3.18l-.54 1.74q-1.14 3.9-1.59 5.7-.45 1.8-.45 3.06 0 1.32-.42 2.16-.42.84-.96 1.08zm24.6.48q-.78.18-1.5-.36t-1.08-1.26q-.3-.84-.42-1.65-.12-.81-.18-2.19l-.06-2.04-2.46 2.22q-3.78 3.54-7.02 3.54-.96-.18-2.43-1.62-1.47-1.44-1.89-2.46-.24-.48-.24-1.5 0-2.28 1.2-5.49 1.2-3.21 3-5.19 1.32-1.98 3.18-3t3.78-1.02q1.8 0 3.18.78.84.42 1.38.42.6 0 .78-.78.06-.3.72-2.4l.66-1.92q1.32-3.96 2.28-6.36.96-2.4 2.34-5.28.6-1.26 1.26-1.86.66-.6 1.2-.54.78 0 1.71.51.93.51 1.23 1.29.18.42.18 1.02 0 .66-.36 1.38-1.56 2.7-3.84 8.82t-3.54 10.62q-.48 1.62-.69 4.5-.21 2.88-.21 5.64 0 2.64.18 3.3.12.36.12.96 0 1.02-.69 1.41-.69.39-1.77.51zm-9.9-7.26q1.38-.54 3.06-1.8 1.8-1.32 2.61-2.34.81-1.02 1.29-2.58.12-.3.12-.84 0-1.08-1.02-1.98-.6-.48-1.38-.48-1.26 0-2.64 1.32-1.56 1.44-2.52 3.21t-1.62 4.83q-.12.42.12.69.24.27.78.27.42 0 1.2-.3z"/></svg>