<svg viewBox="0 0 964 80" xmlns="http://www.w3.org/2000/svg"><path d="M60.82 34.94q0 10.32-5.55 16.11-5.55 5.79-15.69 5.79-6.84 0-12.33-2.88t-8.52-7.86q-3.03-4.98-3.03-11.13t3-11.13q3-4.98 8.28-7.83 5.28-2.85 11.76-2.85 4.08 0 8.31 1.11t7.05 2.97l1.2 8.46h-.54q-1.26-5.04-5.82-7.89-4.56-2.85-10.14-2.85-7.98 0-13.29 5.67-5.31 5.67-5.31 14.25t5.49 14.37q5.49 5.79 14.37 5.79 8.88 0 14.49-5.76 5.61-5.76 5.61-15.78h.6q.06.72.06 1.44zm5.04 20.46h.78q1.56 0 2.67-1.11 1.11-1.11 1.17-2.67v-33.3q-.06-1.56-1.17-2.64-1.11-1.08-2.67-1.08h-.78V14H79v.6h-.78q-1.56 0-2.67 1.08-1.11 1.08-1.17 2.64v33.3q0 1.56 1.14 2.67 1.14 1.11 2.7 1.11H79v.6H65.86v-.6zm64.44-40.8h-1.08q-1.5 0-2.58 1.05t-1.14 2.55v30.96q0 3.48.42 6.6l.12 1.08h-.54L92.8 21.92V51.8q0 1.5 1.08 2.55 1.08 1.05 2.58 1.05h1.14v.6H85.24v-.6h1.14q1.5 0 2.58-1.05t1.08-2.61V20.6q0-3.66-.42-6.54l-.12-.96h.6l32.7 34.92V18.26q-.06-1.56-1.14-2.61-1.08-1.05-2.58-1.05h-1.14V14h12.36v.6zm7.74 4.74v1.08h-.6v-7.56q.9.36 3.18.72 2.28.36 3.15.36h17.67q2.94 0 4.5-.33t1.86-.45v.54l-25.68 40.5h19.08q3.18 0 5.25-2.04t2.97-5.4h.6L168.04 56H136.6v-.54l25.2-39.72h-20.22q-1.5.06-2.52 1.08t-1.02 2.52zm37.62 36.06h.78q1.56 0 2.67-1.11 1.11-1.11 1.17-2.67v-33.6q0-1.44-1.14-2.43-1.14-.99-2.7-.99h-.72l-.06-.6h17.58q1.86 0 4.05-.36 2.19-.36 3.09-.72v7.56h-.6V19.4q0-1.44-.99-2.46t-2.37-1.08h-12.24V34.4h10.14q1.2-.06 2.04-.9.84-.84.84-2.1v-.84h.6v9.48h-.6v-.9q0-1.2-.81-2.04-.81-.84-2.01-.9h-10.2v17.94h8.58q4.44 0 6.78-1.98t3.9-5.88h.6L200.56 56h-24.9v-.6zm34.02 0h.78q1.56 0 2.67-1.11 1.11-1.11 1.17-2.67V18.38q-.06-1.56-1.17-2.67-1.11-1.11-2.67-1.11h-.78V14h13.14v.6h-.78q-2.16 0-3.3 1.86-.54.9-.54 1.92v35.76h8.58q4.44 0 6.78-1.98t3.9-5.88h.6L234.58 56h-24.9v-.6zM249.46 23l-.66-.24q1.74-5.1 5.82-7.02t14.46-1.92q2.16 0 10.92.18 6.36.18 11.22 2.76 4.86 2.58 7.59 7.29 2.73 4.71 2.73 10.95 0 9.42-5.97 15.21Q289.6 56 280 56h-20.34l.06-.6h.72q1.5 0 2.58-.99t1.26-2.43V15.8q-7.5.18-10.62 2.34-1.62 1.14-2.46 2.19-.84 1.05-1.74 2.67zM280 15.8h-11.82v38.4H280q7.62 0 12.33-5.28T297.04 35q0-5.7-2.13-10.05-2.13-4.35-6-6.75-3.87-2.4-8.91-2.4zm27.48 39.6h.78q1.56 0 2.67-1.11 1.11-1.11 1.17-2.67v-33.6q0-1.44-1.14-2.43-1.14-.99-2.7-.99h-.72l-.06-.6h17.58q1.86 0 4.05-.36 2.19-.36 3.09-.72v7.56h-.6V19.4q0-1.44-.99-2.46t-2.37-1.08H316V34.4h10.14q1.2-.06 2.04-.9.84-.84.84-2.1v-.84h.6v9.48h-.6v-.9q0-1.2-.81-2.04-.81-.84-2.01-.9H316v17.94h8.58q4.44 0 6.78-1.98t3.9-5.88h.6L332.38 56h-24.9v-.6zm54.84 1.44q-9.48-.06-15.45-6.06-5.97-6-5.97-15.81t5.97-15.81q5.97-6 15.81-6 8.04 0 14.22 4.08l1.2 8.46h-.54q-1.32-5.16-5.34-7.95t-9.54-2.79q-7.86 0-12.57 5.46t-4.71 14.46q0 9 4.65 14.49t12.27 5.67q6.72 0 11.22-3.66 4.86-3.96 5.88-12.9h.48l-.72 9.42q-5.46 8.94-16.86 8.94zm29.4-37.65q6.42-6.03 16.65-6.03 10.23 0 16.65 6.03 6.42 6.03 6.42 15.81 0 9.78-6.42 15.81-6.42 6.03-16.65 6.03-10.23 0-16.65-6.03-6.42-6.03-6.42-15.81 0-9.78 6.42-15.81zm3.27 30.33q5.07 5.52 13.35 5.52t13.35-5.52Q426.76 44 426.76 35t-5.07-14.52q-5.07-5.52-13.35-5.52t-13.35 5.52Q389.92 26 389.92 35t5.07 14.52zm53.55-33.66h-3.84v35.76q0 1.56 1.11 2.67 1.11 1.11 2.73 1.11h.72l.06.6h-13.14v-.6h.78q1.56 0 2.67-1.08 1.11-1.08 1.17-2.64v-33.3q-.06-1.56-1.17-2.67-1.11-1.11-2.67-1.11h-.78V14h16.2q5.46 0 8.58 3.03t3.12 7.86q0 4.83-2.97 8.34t-7.23 3.51q.9.42 2.13 1.65t2.19 2.55q5.16 7.38 6.72 9.09 1.56 1.71 2.22 2.34.66.63 1.44 1.23.78.6 1.56.96 1.74.84 3.72.84v.6h-3.3q-2.58 0-4.8-.93-2.22-.93-3.33-1.92-1.11-.99-1.92-1.92-.81-.93-4.47-6.21-3.66-5.28-4.26-6.03-.6-.75-1.26-1.47-1.92-2.04-3.84-2.04v-.6q.48.06 1.26.06t1.92-.06q7.44-.18 9.36-6.24.36-1.2.36-2.25v-1.35q-.12-4.02-2.1-6.48-1.98-2.46-5.34-2.64-1.44-.06-3.6-.06zM514.3 55.4h.48v.6h-13.5v-.6h.54q1.26 0 1.89-.81.63-.81.63-1.53t-.24-1.44l-3.84-10.2h-16.2l-4.02 10.26q-.24.72-.24 1.41t.63 1.5q.63.81 1.89.81h.54v.6H470.8v-.6h.54q1.5 0 2.94-.96t2.34-2.82l13.56-32.28q2.22-4.86 2.22-6.18h.54l16.08 38.46q.84 1.86 2.28 2.82 1.44.96 3 .96zm-21.96-35.04l-7.56 19.26h14.76l-7.2-19.26zm52.92 0v-1.02q0-1.44-1.02-2.49-1.02-1.05-2.4-1.11h-11.4v35.94q.06 1.56 1.17 2.64 1.11 1.08 2.67 1.08h.78v.6h-13.14v-.6h.78q1.56 0 2.67-1.08 1.11-1.08 1.17-2.58v-36h-11.4q-1.44.06-2.43 1.11-.99 1.05-.99 2.49v1.02l-.6.06v-7.56q.9.36 3.12.72t4.08.36h20.28q2.94 0 4.89-.45 1.95-.45 2.37-.63v7.56l-.6-.06zm5.34 35.04h.78q1.56 0 2.67-1.11 1.11-1.11 1.17-2.67v-33.3q-.06-1.56-1.17-2.64-1.11-1.08-2.67-1.08h-.78V14h13.14v.6h-.78q-1.56 0-2.67 1.08-1.11 1.08-1.17 2.64v33.3q0 1.56 1.14 2.67 1.14 1.11 2.7 1.11h.78v.6H550.6v-.6zm49.62-40.8V14h12.06v.6h-.54q-1.5 0-2.94.93t-2.28 2.79l-14.46 32.34q-2.22 4.86-2.22 6.18h-.54l-16.86-38.46q-.84-1.92-2.31-2.85-1.47-.93-2.97-.93h-.48V14h13.5v.6h-.54q-1.26 0-1.89.81-.63.81-.63 1.5t.3 1.41l12.54 31.44 13.08-31.44q.24-.72.24-1.41t-.63-1.5q-.63-.81-1.89-.81h-.54zm15.06 40.8h.78q1.56 0 2.67-1.11 1.11-1.11 1.17-2.67v-33.6q0-1.44-1.14-2.43-1.14-.99-2.7-.99h-.72l-.06-.6h17.58q1.86 0 4.05-.36 2.19-.36 3.09-.72v7.56h-.6V19.4q0-1.44-.99-2.46t-2.37-1.08H623.8V34.4h10.14q1.2-.06 2.04-.9.84-.84.84-2.1v-.84h.6v9.48h-.6v-.9q0-1.2-.81-2.04-.81-.84-2.01-.9h-10.2v17.94h8.58q4.44 0 6.78-1.98t3.9-5.88h.6L640.18 56h-24.9v-.6zm102.9 10.2v.6q-2.52.66-4.47.66-1.95 0-3.45-.24-1.5-.24-3.21-.93-1.71-.69-3.21-1.59-1.5-.9-3-2.22-2.76-2.22-5.01-4.8-2.25-2.58-8.67-9.69-6.42-7.11-8.52-9.45-2.1-2.34-3.24-2.46v-.6q3.48 0 4.65-.15 1.17-.15 2.49-.54 1.32-.39 2.22-1.05 3.54-2.28 3.54-7.56 0-4.38-1.95-7.02-1.95-2.64-5.49-2.7h-7.44v35.76q0 1.5 1.11 2.64 1.11 1.14 2.73 1.14h.72l.06.6H664.9v-.6h.78q1.5 0 2.64-1.08 1.14-1.08 1.2-2.64v-33.3q-.06-1.56-1.17-2.67-1.11-1.11-2.67-1.11h-.78V14h16.2q5.28 0 8.49 2.97t3.21 7.86q0 4.89-2.94 8.4-2.94 3.51-7.2 3.51h-.06q2.04 2.16 4.62 5.04 10.38 11.46 13.32 14.4 2.94 2.94 5.19 4.83 2.25 1.89 3.99 2.79 3.54 1.92 7.02 1.92.72 0 1.44-.12zm-14.16-10.2h.78q1.56 0 2.67-1.11 1.11-1.11 1.17-2.67v-33.6q0-1.44-1.14-2.43-1.14-.99-2.7-.99h-.72l-.06-.6h17.58q1.86 0 4.05-.36 2.19-.36 3.09-.72v7.56h-.6V19.4q0-1.44-.99-2.46t-2.37-1.08h-12.24V34.4h10.14q1.2-.06 2.04-.9.84-.84.84-2.1v-.84h.6v9.48h-.6v-.9q0-1.2-.81-2.04-.81-.84-2.01-.9h-10.2v17.94h8.58q4.44 0 6.78-1.98t3.9-5.88h.6L728.92 56h-24.9v-.6zm54.96 1.44q-9.6-.06-15.57-6.06-5.97-6-5.97-15.78t5.97-15.81q5.97-6.03 15.57-6.03 8.28 0 14.58 4.08l1.2 8.46h-.54q-1.32-5.16-5.31-7.95-3.99-2.79-9.93-2.79-7.62 0-12.33 5.52T741.94 35q0 9 4.71 14.49t12.33 5.55q3.9 0 7.41-1.38 3.51-1.38 6.15-3.84V39.2q0-1.32-.81-2.01-.81-.69-2.25-.69h-.96v-.6h11.76v.6h-.9q-1.5 0-2.28.69-.78.69-.72 2.01v9.9q-1.56 2.04-3.72 3.66t-5.79 2.85q-3.63 1.23-7.89 1.23zM825.82 14v.6h-.96q-1.26 0-2.19.81-.93.81-.99 2.01v23.76q0 7.02-4.44 11.34t-11.82 4.32q-7.38 0-11.97-4.29-4.59-4.29-4.59-11.31V17.6q0-1.8-1.56-2.64-.72-.36-1.62-.36h-.96V14h12.18v.6h-.96q-1.32 0-2.22.81-.9.81-.96 2.07V40.4q0 6.54 3.51 10.56 3.51 4.02 9.39 4.02 5.88 0 9.54-3.81 3.66-3.81 3.66-9.99v-23.7q-.06-1.26-.96-2.07-.9-.81-2.22-.81h-.96V14h11.1zm6.6 41.4h.78q1.56 0 2.67-1.11 1.11-1.11 1.17-2.67V18.38q-.06-1.56-1.17-2.67-1.11-1.11-2.67-1.11h-.78V14h13.14v.6h-.78q-2.16 0-3.3 1.86-.54.9-.54 1.92v35.76h8.58q4.44 0 6.78-1.98t3.9-5.88h.6L857.32 56h-24.9v-.6zm73.02 0h.48v.6h-13.5v-.6h.54q1.26 0 1.89-.81.63-.81.63-1.53t-.24-1.44l-3.84-10.2h-16.2l-4.02 10.26q-.24.72-.24 1.41t.63 1.5q.63.81 1.89.81h.54v.6h-12.06v-.6h.54q1.5 0 2.94-.96t2.34-2.82l13.56-32.28q2.22-4.86 2.22-6.18h.54l16.08 38.46q.84 1.86 2.28 2.82 1.44.96 3 .96zm-21.96-35.04l-7.56 19.26h14.76l-7.2-19.26zm37.74-4.5h-3.84v35.76q0 1.56 1.11 2.67 1.11 1.11 2.73 1.11h.72l.06.6h-13.14v-.6h.78q1.56 0 2.67-1.08 1.11-1.08 1.17-2.64v-33.3q-.06-1.56-1.17-2.67-1.11-1.11-2.67-1.11h-.78V14h16.2q5.46 0 8.58 3.03t3.12 7.86q0 4.83-2.97 8.34t-7.23 3.51q.9.42 2.13 1.65t2.19 2.55q5.16 7.38 6.72 9.09 1.56 1.71 2.22 2.34.66.63 1.44 1.23.78.6 1.56.96 1.74.84 3.72.84v.6h-3.3q-2.58 0-4.8-.93-2.22-.93-3.33-1.92-1.11-.99-1.92-1.92-.81-.93-4.47-6.21-3.66-5.28-4.26-6.03-.6-.75-1.26-1.47-1.92-2.04-3.84-2.04v-.6q.48.06 1.26.06t1.92-.06q7.44-.18 9.36-6.24.36-1.2.36-2.25v-1.35q-.12-4.02-2.1-6.48-1.98-2.46-5.34-2.64-1.44-.06-3.6-.06z"/></svg>