<svg viewBox="0 0 612 80" xmlns="http://www.w3.org/2000/svg"><path d="M43.27 17.61l3.52.58 9.46-.44q1.32 0 2.2 1.29v.85q0 1.73-7.15 1.94l-3.55.2v.32l.27-.32-1.14-.2h-1.5q-3.46-.91-3.46-2.87v-.39q.56-.96 1.35-.96zm22.59 16.4h1.02l.62.65v.97q-.76.96-6.12 3.48l-4.95 3.46q-7.45 5.33-17.05 14.27l-.39.49v-.23h-.14q5.74-1.35 12.04-3.93l6.39-1.78v.2q-.74-.94-.74-1.96.35-1.96 1.91-1.96 2.14 0 4.07 4.65l.59 1.85.32 3.98q0 2.32-1.7 3.34h-.7q-2-.76-2-3.89l-.41-2.99-5.94 1.73q-7.18 2.43-12.48 3.48h-2.35q-.94 0-1.9-1.43v-.24q0-1.02 1.08-1.58.91-1.32 3.63-3.89 1.26-1.97 5.92-5.69l10.49-7.67h.67q-17.9 4.54-33.07 4.54-8.91-.59-8.91-3.17v-.55l.82-.88q2.76 1.43 5.45 1.43l2.2.18q17.49 0 41.63-6.86zm27.51-18.07q1.32.99 1.84 3.86.71 2.64 1.26 6.71l.15.15v.53h-.06v.09q3.55-.56 4.75-.56 0-.21 3.78-.59 3.25-.58 7.18-.82 1.17 0 1.69 1.64v.24q-.64 1.81-4.21 4.51-2.96 2.31-4.81 3.46 0 .2-3.31 2.52-1.02.64-1.02.85l-1.79 1.28-.32.15v1.11q.2.18.58 4.02l.09.17q5.77-2.4 10.72-3.51.44-.35 4.34-.97h.38q.35-.35 2.34-.35h.15l.35-.23h2.73q.96.32 1.49 1.23l.26.76v1.4q-.85 2.61-4.01 9.55-2.05 4.14-3.31 5.81-2.17 3.28-4.34 3.28-1.4 0-3.1-1.7l.03-.06q-.85-.44-3.14-3.87-2.25-2.22-2.43-2.58-.32 0-.32-.41-1.06-.26-1.06-.82 0-.52.65-.52.7 0 3.92 3.69l3.9 2.28h.26q2.7-2.31 3.49-4.3 2.99-4.75 5.27-9.5l1.23-2.11v-.03h-1.72l-.47.24q-3.08 0-8.59 1.93l.27.24q0-.24-3.55.91-.03.35-3.16 1.46-.41.35-2.32 1.11v.77l.24.35.23 4.48q.24 0 .24.64l.11 4.11-.14 1.58q-.32 0-.32.82l-1.03.58h-.62q-1.08-.38-1.52-1.99-.09-.97-.35-1.23l-.35-5.04-.12-.12-.2-3.34-11.55 4.05.27.23q0-.23-2.38.18-1.93 0-2.22-1.32l.03-.03-.12-.12v-.67q.94-1.73 3.72-3.63.56-.68 2.37-1.91l4.46-3.98 2.19-1.7q.24 0 1.15-.94.44 0 1.17-.82h-.06v-.41l-.12-.12v-.35l-.12-.12q-.14-4.39-.76-4.39l.53-.53v-.14l-.23-.36v-.76l-.18-1.17-.03.03h-4.34q-.2-.23-1.08-.23-2.75-.88-3.4-2.11v-.88l.73-.88h.68l2.93.94h3.22l.15-.15.35.12.09-.09h.29v.32l-1.05-7.73v-.06l-.24-.35v-.33l-.12-1.52q.24-1.93 1.44-1.93zm24.43.58h1q1.14.65 2.05 2.99 1.05 2.37 2.34 6.74h-.14l.17 1.08q0 2.14-.96 2.7-.3 1.26-.85 1.26h-.24l-.12-.12h-.55q.73-1.08.73-1.17-1.2 0-2.78-6.42-.85-1.84-1.56-5.33 0-1.17.91-1.73zM98.12 30.21l-.15.14h-.88v-.23q.2 0 .82 5.77l.09.91q3.34-2.55 9.52-6.74l2.34-1.79v.27l-11.74 1.67zm-3.34 12.33h.26l-3.11 2.52q-1.2.73-1.72 1.49l-1.09.85-1.76 1.64-1.17.85q0 .21-.41.5h-.76l.85-.26-.26-.27q0 .27 3.13-.61l6.59-2.52-.2-3.02q-.24 0-.35-1.17zm74.79-25.72l1.2-.79h.38q1.23.41 1.23 1.67 0 .11.21.11l.09 4.37v1.73l-.06.35.09.09-.12.52v5.19l-.21.26v.03h.15l.23-.17h.18q1.11 0 1.11-.41l.47.32q.12-.15 1.09-.24l.11-.08h.21q1.2 0 1.2-.41l.47.32h.14l.24-.15h1.79q.96.26 1.11.82v.82q-.38.44-1 .73h-.23q-1 0-3.43.5l-2.37.5.29.29q0-.26-1.38-.08l-.11.08h-.27l-.06 2.32v1.37l-.17.27v1.84l.06-.11h.26l-.47.47v1.37l-.06.06-.11.53v.7q0 1.94-1.23 2.37l-.09.09h-1.09l-.44-.41.41-.5h.36v.3q-.5-.35-.5-1.17l-.15-.18V41.4l-.09-.09v-.32l-.05.05-.03-.02v-5.78l.17-.23v-1.32h.09q-.18.15-2.49.5l.06.06q-.09.14-2.43.26l.11-.09v.24l-3.34.09h-1.52q-1.44 0-1.44-1.03v-.18q0-.67 1.53-.96l-.38-.56q0 .53 1.78.35l-.26-.2q0 .12 1.58-.03l4.57-.85-.03-.03q.09-.09 1.94-.32l.09-.12h.29q.06-6.03.47-6.03h-.24v-.5l-.11-.18.11-.17v-2.41h.18l.09-4.6-.18-.11zm-21.39-.15h.15l.97.26 1.17 1.18q1.11 1.96 2.78 4.45v.88q-.29.61-.94 1.05h-.7q-1.2 0-2.9-3.16l-1.08-1.79q-.35-.17-.35-.41-.33 0-.33-.53v-1.08q.38-.56 1.23-.85zm-11.13 17.26h.67q.82 0 2.76 1.78.2 0 .67.65l2.79 2.25q.58.33.87.65.36 0 .82.67.36 0 .88.88.5.91.94 1.29l-.29.44h-.24l-1.99.09q-1.08 0-3.05-1.03v-.03q-.14 0-1.05-.79l-2.84-2.43q-2.32-2.05-2.32-3.11.18-1.31 1.38-1.31zm44.59 7.53l.24-.15h2.31q1.14.41 1.14 1.17l.59-.38h-.56q-.12 1.58-1.02 1.58 0 .12-1.15.29 0 .18-3.25.94 0 .12-1.05.41 0 .15-.97.35l-1.03.53.33.5q0-.53-1.09-.32 0 .17-.76.35-1.23.76-1.7 1.4-.2 0-.64.44l-.12-.11v.5q-.35 0-.91.64-.17 0-.17.35-.36.09-1.29 1.23-.68 1-1.61 1.85 0 .29-2.35 2.31-3.6 2.99-3.6 2.96h-.53l.09-.09h.35v-.03q.24-.14 4.66-1.52 1.9-.64 4.63-1.23l-.38-.56q0 .5 1.64.35l.09-.08h1.05l.26-.18h1.73q1.14.44 1.14.94 0 .94-1.67 1.11-2.05.73-3.28.94-.14.15-2.9.67-.03.06-4.89 1.44l.29.29q0-.32-2.98.24h-.65l-.06.08h-.35l.32.33q0-.24-.55-.24l-1.5.06q-1.11-.35-1.11-1.26v-.61q1.82-1.91 4.01-3.84.35-.18.88-.71l3.96-3.13q2.81-2.29 3.04-2.75.24 0 .56-.39 1.96-1.93 2.7-2.1l.35-.3.06.06q.29-.35.52-.35v.5h.09l-5.3 1.37h.09v.18h-.38q-.65 0-1.15.23l.27.27q0-.27-.47-.27v.18h-.76q-.12.12-1.91.41l-2.75.44q0 .18-3.55.64h.03l-.03.03h-.88l-.23.18h-2.55q-1-.5-1-1.14l-.08.08-.18-.14q1.32-.76 6.09-1.38 0-.17 2.06-.41 0-.15 2.72-.61l2.31-.62.09-.09h.27q0-.14 1.64-.5l4.16-1.2-.35-.52q0 .47 2.16.08 0-.14.85-.38l-.35-.52q0 .58 2.2.03 1.64-.56 3.31-.74l.41-.06v-.49l.47.47h-.12zm-6.94 4.33h.35v-.5h-.35v.5zm-32.67 5.51h.15q.64 0 .94 1.7l.11.12v2.81l-.17.23v2.87l.2.21-.2.2v1.29l.2.21-.2.2v.24q-.18 0 1.99-2.11v1.17q-.82 2.02-1.29 2.67-.7 1.43-1.23 1.93-.06 0-.06.17h-1.08q-1.06-.32-1.06-1.05h-.7l.7-.53v.24l-.12-.06v-.41l-.08.06v-3.93l-.15.18h-.35l.7-.53v.2l-.32-.23.32-.23v-.33l-.38-.17.38-.29v.05l.09-2.78.15-.18.08-1.96h.15V53q.5-1.41 1.23-1.7zm6.3 2.61l1.11-1.82h.38q.44 0 .44.64l-1.11 1.73q-1.64 2.23-2.26 3.37-.38.3-1.31 1.79h-.62v-.53q.73-1.43.56-1.43l.14.23q.59-1.08 1.94-2.81l.73-1.17zm30.29-1.56h.59q1.02.41 1.9 1.56l.24-.24q-.09 0 .82 2.4l.12-.11q-.03-.03.26 1.81v.03l.03.03v3.34q-.53 1.7-1.41 1.99l-.12.09h-.87q-1.5-.64-1.5-1.84l.09-.09v.12l-.15-.24v-2.49l-.08-.09v-.35l-.09.03-.03-.03-.21.21q.15 0 .15-1.61l-1.06-2.35v-.73q0-1.03 1.32-1.44zm51.21-36.85h1.15q1.11.29 1.11 1.05 0 .82-3.98 1.53-10.49 2.28-13.86 2.28-2.67-.06-2.67-.97 0-.96 2.08-.96 5.63-.62 11.81-2.17 3.31-.76 4.36-.76zm-7.23 9.49q2.81.53 2.81 2.93l.09.82q3.78-.79 8.49-.79l.74.73q0 .85-2.32 1.17l-6.24 2.82-.38-.3v-.41q4.01-2.02 4.16-2.02v.41h-.09q-4.07.94-4.04.88l.94 5.83h-.15l4.66-1.14q1.35-.56 6.33-1.23h.73q1.11 0 1.26 1.02 0 1.17-4.92 2.14-1.5.59-5.04 1.32l-2.4.67.11 3.11v5.83l-.26 6.53.15 4.1q0 1.06-.77 4.02-1.02 1.49-3.57 1.49-1.23 0-2.26-1.52v-.44l-.17.15q-5.07-1.56-5.95-2.14v-.62l6.56 1.99q1.79-.38 1.79-1.05.5 0 1.52-15.79l.15-2.26-.26-2.66-9.08 2.49-4.49 1.26q-4.8 1.61-13.68 3.78h-.17q-.97 0-1.82-.85v-.77q.47-.79 1.29-.79.56-.49 5.3-3.04.38 0 6.8-3.2 3.78-1.7 6.91-2.43l.32.32v.44q-4.13 2.82-4.65 2.82-5.51 3.04-5.78 3.04v-.5h-.23q5.68-1.81 17.99-5.12 1.14-.27 1.14-.18l-.26-6.15q-.85.06-8.32 1.58-4.34.68-6.86.85-3.22-.15-3.22-.97v-.35q0-.88 5.13-1.26l4.89-.79q0-.23 4.28-.91l1.96-.38 2.14-.44v-1.55q0-1.2-1.41-1.44l-1.99.3-.38-.21v-.26q0-.59 2.52-.88zm46.17-9.05q1.32.99 1.85 3.86.7 2.64 1.26 6.71l.14.15v.53h-.06v.09q3.55-.56 4.75-.56 0-.21 3.78-.59 3.25-.58 7.18-.82 1.17 0 1.7 1.64v.24q-.65 1.81-4.22 4.51-2.96 2.31-4.81 3.46 0 .2-3.31 2.52-1.02.64-1.02.85l-1.79 1.28-.32.15v1.11q.2.18.58 4.02l.09.17q5.77-2.4 10.72-3.51.44-.35 4.34-.97h.38q.35-.35 2.34-.35h.15l.35-.23h2.73q.96.32 1.49 1.23l.26.76v1.4q-.85 2.61-4.01 9.55-2.05 4.14-3.31 5.81-2.17 3.28-4.34 3.28-1.4 0-3.1-1.7l.03-.06q-.85-.44-3.14-3.87-2.25-2.22-2.43-2.58-.32 0-.32-.41-1.06-.26-1.06-.82 0-.52.65-.52.7 0 3.92 3.69l3.9 2.28h.26q2.7-2.31 3.49-4.3 2.99-4.75 5.27-9.5l1.24-2.11v-.03h-1.73l-.47.24q-3.08 0-8.59 1.93l.27.24q0-.24-3.55.91-.03.35-3.16 1.46-.41.35-2.32 1.11v.77l.24.35.23 4.48q.24 0 .24.64l.11 4.11-.14 1.58q-.32 0-.32.82l-1.03.58h-.62q-1.08-.38-1.52-1.99-.09-.97-.35-1.23l-.35-5.04-.12-.12-.2-3.34-11.55 4.05.27.23q0-.23-2.38.18-1.93 0-2.22-1.32l.03-.03-.12-.12v-.67q.94-1.73 3.72-3.63.56-.68 2.37-1.91l4.46-3.98 2.19-1.7q.24 0 1.15-.94.44 0 1.17-.82h-.06v-.41l-.12-.12v-.35l-.12-.12q-.14-4.39-.76-4.39l.53-.53v-.14l-.23-.36v-.76l-.18-1.17-.03.03h-4.33q-.21-.23-1.09-.23-2.75-.88-3.4-2.11v-.88l.74-.88h.67l2.93.94h3.22l.15-.15.35.12.09-.09h.29v.32l-1.05-7.73v-.06l-.24-.35v-.33l-.12-1.52q.24-1.93 1.44-1.93zm24.43.58h1q1.14.65 2.05 2.99 1.05 2.37 2.34 6.74h-.14l.17 1.08q0 2.14-.96 2.7-.3 1.26-.85 1.26h-.24l-.11-.12h-.56q.73-1.08.73-1.17-1.2 0-2.78-6.42-.85-1.84-1.56-5.33 0-1.17.91-1.73zm-19.68 13.69l-.15.14h-.88v-.23q.21 0 .82 5.77l.09.91q3.34-2.55 9.52-6.74l2.34-1.79v.27l-11.74 1.67zm-3.34 12.33h.26l-3.11 2.52q-1.2.73-1.72 1.49l-1.09.85-1.76 1.64-1.17.85q0 .21-.41.5h-.76l.85-.26-.26-.27q0 .27 3.13-.61l6.59-2.52-.2-3.02q-.24 0-.35-1.17zm68.58-28.39l.53-.03q.91 0 1.43 2.55l-.17.18v.03l.44 2.22-.15.85.12.29 2.02-.35.03.09q4.6-.82 7.26-.91l1.12 1.2-1.23 5.75q1.2-.39 4.13-.47.93.35.93 1.17.09 1.17-5.18 2.11v-.21q-.94.06-1.03 1.73l-1.78 4.1q-.74.85-1.85 1.38l-.76.03q-1.49.03-1.52-.85-1.47.56-1.38 2.28l.03.8q2.25-.56 5.1-1.85l1.69-.06.91.7.03.71q.06 1.26-3.19 2.31l-4.54 2.58.06 1.61 8.99-3.57 1.26-.06q1.49-.03 1.55 1.58v.21q-.49 1.26-2.55 1.9-9.17 3.87-9.22 4.07l.03 5.83h.26l-.26-.26-.12 1.14.09 1.64-.12 1.23q5.71 1.2 16.82.85l.84.24 1.03-.18q4.72.85 5.07 1.55l-.59.44-.23-.2q-.97.03-3.37 1.43-2.46.24-4.01.85l-.74-.11-2.19.23q-7.39.23-16.06-2.28-8.67-3.37-15.53-5.1 0-.24-2.13-.44-3.2 7-7.3 7.12-1.76.06-2.58-1.17l-.03-.71-.88-.09v-1.02h.71l.64.41q3.93-1.88 5.66-5.51v.12q-6.27-1.47-6.3-2.26v-.11q-.03-1.06 2.14-1.38l5.09.76v.18q.94-2.29 1-3.81l-1.06.03q-3.04-.3-3.13-2.52v-.35l1.46-7.71-.49-.09-.68.03q-3.63.12-4.48-1.23v-.79l.82-.79h.47q7.35-.23 7.41 1.2.27-.03.76 2.32-.38 3.51-1.52 6.94l.18.06 1.64-.38q2.37-.06 2.49 2.9l-.91 4.83q1.52-.06 15.53 4.51v.27l.23-6.92h.18q-5.89 2.46-9.03 3.25l-.7.03q-1.08.03-1.7-.91l-.03-.49q-.06-1.79 7.32-5.98 4.22-2.2 4.19-2.67l-.02-.38-3.75.68q-3.11-.03-3.14-1.09l-.03-.61 2.26-1.23h.26l.67.11q3.81-1.02 3.78-1.31l-.03-.68-.2-.61.23-1.79h.03q-7.03 2.29-9.08 2.67-1.14-.24-1.14-.74l-.03-.67q.59-.97 10.17-4.42v.05l.05-1.61h.18q-7.91 1.76-14.77 2H323q-5.13.14-5.13-.74l-.03-.38q.7-.96 2.17-1.02l3.57-.12 3.08-.38v.06l1.85-.44.2.17 8.2-1.81v.23q.8-.06.74-1.08l.08-2.05-.08-2.79.14-.14v.26l-.73.03q-5.3 0-5.39-2.02-.03-1.2 1-1.23l3.42.5 1.59-.18v-.32l.08-2.17-.2-.59q.06-3.13 1.2-3.16zm9.14 7.91l-6.36.82h-.38q-.03 0-.03.15l.27 2.37-.12.88.23 1.73v-.15h.21q4.31-.88 4.31-1.05l1.58-4.75h.29zm-2.64 7.73l-3.66.83.06 1.08h.18l3.04-1.2.15-.71h.23zm-3.63 4.99v-.06l.24-.24.2.15h-.03l-.41.15zm0 6.62h.29l-.08-.44h-.21v.44zm-4.89 5.15v-.35q.94-.23.94-.41v.06q-.77.7-.94.7zm78.05-31.93h.14q1.91.03 1.88 2.23l.26.76h.15l-.27-.27-.03 1.32.18.68-.18.17.27 2.87h-.09l.23.94-.17.15v-.03l.14 1.43h-.05l.03.09.26 3.9h-.06l.18.76-.15.12.29 2.84h.33l-.36-.29-.03 1.08.18 1-.18.14v-.03l.3 1.15-.15.11.26 2.73h-.08l.2.91-.17.17.38 3.63-.15.15.38 3.75-.12.15.27 1.81-.18.15.29 2.52-.17.15.23 2.52-.14.14.26 2.35-.15.14.12 1.03-.12.41.12.38q-.09 5.21-1.84 5.18-.47.85-1.97.82-3.43-.03-3.95-2.54v-.3l-.03.03q-1.41-.97-6.3-2.08l-3.87-1.46h1.91q2.28.06 8.73 2.52 0-.18 2.11-.77l.47-3.54-.12-.15.2-2.9.03-1.37-.17-.94.17-.18-.11-.88.14-.55-.26-2.35.14-.14v-.03l-.14-1.56h-.24l.27.27.03-1.61-.18-.94.21-.21-.15-.79v-.44l.03-.03-.03-.02.03-1.65-.15-.96.15-.15-.29-2.37.2-.18v.03l-.18-1.55h-.32l.35.29.03-1.52-.17-1 .17-.14-.14-1.59h.08l-.23-.93.21-.15v.03l-.18-1.58h-.23l.26.26.03-1.05-.18-1 .18-.12-.27-2.72h.09l-.2-.82.17-.59-.2-1.23h.12l-.18-.82.15-.47-.18-1.05.18-.15-.12-.41q.26-3.69 1.41-3.66zm-21.45 10.6q2.67.03 2.64 2.96h-.06l.2.82-.17.18q.26 2.81.58 3.54l-.2.21.29 2.4-.15.12.3 2.52-.18.15.12.82.06 5.74.17.67-.2.21.32 1.05-.18.18v.03l.15 1.55h.38l-.41-.32-.03 1.78.18.68-.18.17v.03l.15 1.64.41.09-.44-.44v.44l-.18 1.35.15.41-.53 4.36.12.15v.32q-.61 1.64-1.41 1.91l-.93.23q-3.4-.03-5.13-3.22-.85-.67-1.47-2.61l-3.51-3.84.47-.41h.38q3.63 3.7 4.39 3.7.62 0 2.73 1.14l.47-3.96-.15-.44.32-2.25-.14-.56v-.2l.14-.41-.11-.12v-.29l.35-3.34-.18-.18.18-.79.06-1.35-.18-.91.2-.55-.17-.68.17-.58-.17-1.38h-.32l.35.29.03-1.78-.15-.59.18-.59-.15-.67.15-.59-.15-1.37h.06l-.03-.09.2-1.55-.17-.62.17-.85-.14-.12v-.38q.32-.47.47-1.84h.29l-.15.14h-.41l-.14-.11q-6.18.73-8 1.29l-.18-.18-1.17.29-.17-.17-.91.14q-1.94-.23-1.94-1.02 0-.73 2.46-1v.09l5.28-1 .17.21h-.11q.23-.29 4.86-.65zm-17.72 1.56q1.05 1.11 1.02 2.87-.67 4.8-1.11 11.69h.44l-.41-.32v.32l-.88 7.5.14.55-.52 4.75.14.44-.14.59.11 1.87q-.64 1.06-1.78 1.06-1.56-.03-2.02-3.84l.14-.88v-.09q2.4-25.84 3.25-25.84.47-.67 1.62-.67zm27.3 4.74v-.14q2.11.03 2.61 2.49l.32 2.25-.18.15.41 3.81-.14.12.26 2.37-.2.17v-.03l.17 1.59h-.09l.18.85-.15.52.15.44q-.59 2.38-1.99 2.35h-.82q-1.82-1.38-1.79-4.22l.15-.15-.12-1.02.15-.41-.27-2.46.15-.15-.12-.82v-.29l.12-.12-.29-1.14.17-.15-.12-1.29.03-1.52q.06-3.23 1.41-3.2zm-16.29 1.97l.53.03q.85.32.85 1.58-.38 0-1.2 2.78 5.83 3.72 5.8 5.51v.35q-.79 1.17-1.2 1.17h-.74q-.82 0-3.72-2.61l-.88-.58q-.58-.5-.55-.5v-.12q-3.28 7.77-5.66 7.74l-.35-.03q-.82-.38-.91-.82v-.5l.3-.97-.24-2.31.32-.32h.44l.53.9v.53l-.12.09-.03-.15q.47-.49 3.23-5.71v-.15q-.09-.23-3.49-2.02l-.17-1.05q.41-1.12 1.49-1.09 1.87.03 3.54 1.06 1.15-2.52 2.23-2.81zm58.13-18.34h.17q1.23.03 1.17 1.93.33 5.65.12 11.05h-.32q1.46-1.38 3.69-4.05 1.05-1.64 1.85-1.64.64.27.7.59l-.03.55q0 .56-1.85 2.67l-2.16 2.43q-2.2 2.14-2.2 2.05l.12.06-.24 1.14.09.09-.15.94q.03 0 4.46-2.32 1.11-.41 1.11-.29l-1.2-1.58v-.44h.55q1.12 1.11 1.59 1.96l-.18.12v-.35q.38 0 .32.73-.03 1.06-4.01 3.08l-2.9 1.64-.09.32q.24 0 .73.82l-.06 1.55q-.02 1.15-1.72 3.93l-.21 3.63-.06 1.88h-.52q0-.15.87-.44l3.9-2.46q2.55-2.11 4.98-4.34 2.84-1.82 2.84-2.08.24-1.99.03-1.99l.21.26v-.2q1.02-5.66 2.08-5.63l.38-.23h.41q1.38.03 1.32 2.05l-.59 4.01.12-.03q1.23.03 4.45 1.06l1.88.79q1.52.79 1.49 1.76-.03 1.05-.94 1.02-1.14.68-1.75.68l-.56-.56 1.96-.73v.41l-1.2-.03q-3.49-.68-5.62-1.47v-.32l-.41 3.72.9-.15q.76.24.88.68v.38l-.12.32 4.55.7 1.87-.03h.44l.85.71q-3.05.09-5.36 1.14-1.73.35-2.76.32l-1.64-.17-.08 1.78q-.18 5.72-.94 5.69 0 .17-.94.29h-.29q-1.11-.03-1.58-1.82l-.21-1.17.12-.06-.09-1.14.06-.09-.03-.82.09-2.31q.03-1.61.44-4.54l-.12-.15.09-.2.35-1.73-.09-.06.15-.85-2.11 1.49q-2.93 2.64-5.39 4.49l-4.43 4.21-.17 6.54-.21 6.59q-.08 2.43-1.81 2.4-1.38-.67-1.29-3.84l.12-3.42-.18-.71h-.24l.33.33v-.44l.11-.03v.26l-.08-.09v-.2l.08-.32-.08-.5.08-.06-.05-.38.11-3.52.15.15q-7.09 6.12-7.59 6.09l-.53.09-.32-.03q-1.7-.23-1.67-1.41l.03-.29q.03-1.14 5.27-8.55l4.05-5.98q.11 0 .26-.44.91-.58.97-2.11l.5-2.87.23.09q-3.81 1.49-6.5 3.07l-8.03 3.67q-.15.2-1.44.52l-.32-.03q-1.2-.23-1.17-1.17v-.08q.03-1.21 3.08-2.32 1.61-.97 4.27-2.02 2.23-1.41 8.53-6.21 2.23-1.67 2.25-1.91.62-2.6.77-7.2.08-3.02-.06-5.83l.09-.06v.17l-.09-.08q.09-2.55 1.32-2.52zm22.17 9.61l2.58-.24q1.53.06 1.5 1.7l-.12 2.9.12.41-.12.12 1.14 13.74.26 3.95h.33l-.35-.35v.21l.11 2.02-.09.09.18 3.45.67.24-.7-.71-.03.62-.09.26.06.27v.14l-.09.41.06.56-.08.18.08.35-.11.53.03.02 5.39-.26.08.09.33-.06h.14q2.46.53 2.41 1.82v.08q-.03 1.32-2.52 1.85-2.44-.09-6.07.35-.56 1.14-1.93 1.12h-.35q-.82 0-1.35-.91-2.87.26-6.74.14l-6.42-.14-1.02-.12-.09.09h-.23q-4.34-.56-4.34-1.2-.47 0-.41-.82v-.33q.09-1.31 2.93-1.37l.09.06h-.24v-.09l2.05.17 5.48.12.44-.03.09.06h-.03l.94-.03.06.03.32-.03.56.03q1.64.03 4.74-.18l-5.01-5.44.59-.59q2.99 3.02 5.51 5.92h.29v-.33l-.32.33.58.03.12-3.14q.09-2.61-.06-3.98l.09-.12-.47-11.13q-.41-4.28-.29-7.41l.03-1.32q.06-1.47.29-2.2h.32q-1.73-.06-5.51 1.52l-1.31.33q-.62-.3-.68-.62 0-.73 1.14-1.03 2.06-1.26 5.04-2.13zm-29.38-.68h.15q1.34.03 2.49 3.87.44 1.9.41 2.93v.17l-.12.91.41-.29.35.35v.32q-.97.97-1.61 1.35h-.26q-1.67-.06-2.44-5.42-.99-2.25-.99-2.99.47-1.23 1.61-1.2zm3.1 11.16h-.82l1.79-.67q.67-.2.67-.67v.06q-.43.41-1.64 1.28zm.12 11.61h.47q0 .05-2.14 3.34l-.41.58q1.88-1.32 1.96-1.32l.12-2.6zm77.52-31.7l.97-.33h.41q1.11.41 1.14 1.23-.7 2.73-1.58 4.4 4.66-1.85 7.88-2.2v.03q1.23-.29 2.72-.38l.88-.06q1.17-.03 2 .73.08 1.35-1.32 1.44l-.85.15-.56-.06-2.31.47-.12-.12q-5.13.94-5.16.79 5.74 1.32 7.77 2.67l.85.67.03.76q.08 1.2-1.47 1.26h-.26q-.44.03-4.69-1.67-5.39-1.38-5.48-2.34l.03.17q-2.84 1.09-2.78 1.97-3.43 3.78-3.81 3.78l-.27.03q-.7.02-1.34-.65l-.03-.53q-.06-.88 4.51-6.5 1.7-2.55 2.84-5.71zm-19.48 1.87l.58-.09q1.12-.08 1.21 1.03-.71 1.79-4.05 6.39v-.47q3.78-2.2 12.78-5.45l1.14-.27 1.11-.05q.65-.06 1.06 1.14l.03.47q-.77.99-1.76.99-3.4 1-5.25 2.08l3.58 2.43.41.62.03.94q-.44.61-1.17.91-1.09.02-4.02-2.11l-2.28-1.5q-3.67 1.32-9.47 5.57-1.11 1.35-2.08 1.38-1.64-.36-1.72-1.26-.09-1.59 6.24-8.18 2.93-4.36 3.63-4.57zm5.3 10.9l.62-.03q2.4-.12 3.78 4.19l.03.18q-.09 2.31-.33 2.34l-.17-.53q6-1.64 14.53-3.4l.03.12q4.51-1.17 6.38-1.26 1.15.24 1.15.73-.85 1.82-.62 5.31l-.58 5.86.14.08-.09 2.64.18.12-.12.67.53 5.95.26.53-.17.11.32 1.12-.12.11.41 1.44h-.08q.52 1.38.79 5.51l.06.35v-.03l-.03-.03v.26q-.59 3.28-1.73 3.34 0 .15-1.09.38-2.55.12-4.51-1.37-.32.03-4.6-3.14l-6.24-3.57.47-.47h.35l7.27 4.1q5.62 1.38 6 1.35l.15-.79-.15-2.29-.2-1.02.09-.12-.41-1.49h.11q-.58-1.67-.79-4.75l-.06-.7-.2-.56.15-.12-.18-.93-.06-.91-.03.03.03.03-.03-.8.06-.29-.12-.09v-.23q.18-5.57 1.53-14.71l.06.21-1.62.38-.05-.06-.27.26-.26-.17-1.99.55v.03q-.41.24-10.87 2.58-1.97.76-7.03 1.91l-.12-.12-.59.12h-.23l-.79-.5-.03-.59q-.06-.76 4.19-1.52 0-.32.2-.62-1.79-.73-3.31-3.22-1.05-.5-1.14-1.32.29-.64 1.14-1.14zm-5.74 4.57h.32q1.09.44 1.11 1.11-2.54 13.77-2.4 15.94l-.14 3.66.14.12v1.9l.18.77-.12.11.15.38.06.94.26.82-.21.15v-.12l.39 1.2-.12.12.41 1.46h-.12l.24.8q.05 1.11-1.26 1.69-2.73.12-3.67-8.17l.09-.06-.12-.35-.02-.85-.06.06.03.03q-.33-4.92 2.08-16.99l.14-.68q.27 0 .76-2.72.77-1.26 1.88-1.32zm19.1 6.12q1.23.35 1.32 1.2.23 5.45.06 6.6l.11.08v.24l-.02 1.17v.03l-.18 1.46.12.09v.21q-.44 5.65-1.53 5.68l-1.08.38q-1.29.06-1.76-1.08-.5 0-.5-.59l.36-.38.29.18h-.09l.03-.65-2.55.41-2.64-.14q.06.9-1.37.99h-.27q-1.96.09-2.25-3.95l.09-.24-.12-.06q-.15-10.34.97-10.43l.93-.46q1.73.03 1.79.73 1.46-.79 5.77-1 0-.12 2.52-.47zm-5.57 2.73l-2.11.38-.52-.09.06.56.03 2.05 2.43-.12.55-.12q2.55.03 2.93.27h-.08q-.03-2.05.2-3.08l-.41.06-3.08.09zm3.17 4.77l-2.61.71-3.1.14.08 1.44-.06.29.12.09-.06 1.41.06.76-.14.14v-.2l-.18-.12.03-.03 1.52-.09 4.13-.41.21-4.13zm71.86-30.41q1.53-.03 1.85 2.38v.32l-.09.06.12.47.06 1.55.17.53-.08.23.08.06v.47l-.14.11v-.05l.08.29 6.01-.62v-.23l-.26.26h.23q1.26-.03 1.88.91V23q.03 1.38-3.2 1.43l-1.58.03-.76.27v.08l.26-.2-1.61.03-.58.15-.21-.12h-.03l-.15.03v-.03l.21.88-.18.14v-.03l.18.74v.2l-.12.41.27.76h.23l-.35-.29v.26l-.15.71.27.47-.06.03-.24-.18 5.16-.7q1.7.17 1.7 1.46.06 1.5-3.81 1.55l-1.7.21v-.12l-2.93.5q-.76-.21-1.23-.91l-.09-2.49.09-.09-.09-.26.09-.38-.12-.09v-.38l.12-.12v.03l-.23-.94h-.53l.61.39v-.36l.09-.38-.06-.06-.06-.23.12-.5-.14-.44.14-.14v.14l-.17-.11.14-1-.03-.18-.11-.41.11-.64-.08-2.23-.18-.93h-.38l.41.32v-.62l-.03-1.46q.06-1.5 1.08-1.5zm-26.13.91h.35q1.41-.03 1.44 1.23v.47l.03.67-.03.03.03.03-.15 5.34h.29l-.26-.27v.32h-.03l.06.06-.24 1.41.12.09v.29l-.29 2.96h-.21q1.85-.35 2.35-1.06 3.04-.05 3.1 1.47V30q.03 1.55-4.33 2.14.03.17-1.26.38l.03.5-.09 1.17q1.23.15 1.26 1.2.03 1.96-1.93 6.15l-.59 4.08.06.11h-.03l6.44-5.01 4.13-3.22q.36-.03-.38-1.99l-.03-1.41q.71-.03 1.24-6.03l.05-1.29-.14-.12.23-1.46-.14-.12.14-1-.09-3.57.03.03-.06-.24q-.05-2.72 1.35-2.75 1.67-.03 1.76 3.4l-.15.52.03.15.21.65-.21.14v-.06l.27.91h.17l-.26-.26.03.58-.09.09.12.29-.12.36.12.08v.41l-.15.12v-.06l.15.35-.12.82v.06l7.7-2.02q.74 0 1.29 1.32.03 1.55-6.97 2.75-2.23.53-2.2 1.44l-.05 2.02 2.78-.94-.12-.49.76-.74q2.05.38 2.05.3l-.23.17h.5q1.55.15 1.58 1.32l.03.23q0 1-5.57 2.38l-1.76.7-.11-.12q.09 3.34-1.82 4.05-6.91 5.27-11.66 9.49-1.08.47-1.02 2.17.02 1.96-.18 2.81l.09.09-.15 4.39h.62l-.62-.35-.09 1.38.03 1.7.03-.03-.06-.06.06.29q-.2 2.11-1.08 2.14h-.71q-1.55.03-1.87-2.37l-.23-.76.17-.12-.12-.41-.03-.47.12-.35-.14-.12.14-.97-.03-1.58.06-.35-.09-.15.15-2.78q-4.63 3.84-5.1 3.84h-.14q-1.79.03-1.82-1.32-.03-1 6.27-9.84 1.82-2 1.73-5.92.23 0 .35-2.02l.15-1h-.56l.47.32.52-2.55-.2-.46-.35.26h.73q-8.61 2.49-12.68 2.55l-.47.03-.44-.09-.09.09q-2.73.06-3.37-1.09v-.58q.73-.91 1.38-.91 2.11-.06 6.24-.79v.09l9.64-2.61q1.11-8.2 1.05-10.34l-.23.03.2.17.24-1.35-.09-.05q-.03-1.26 1.11-1.91zm25.17 15.85l.85-.17h.32q.58.11.97 1.11-.71 2.96-4.75 6.5l-5.01 4.28q1.03.67 1.76 9.35l.2 1.02-.17.12q.29 1.67.41 1.76 1.17-.44 8.02-1.18h.24l.09.06.17-2.17-.2-.11q.29-1.35.23-3.4l-.06-2.2.06-.06-.12-.23.15-.41-.12-.09v-.29l.41-2.4q-3.28.38-7.47 1.43-1.43.03-1.43-1.11-.03-1.26 8.82-2.81v-.24l-.3.29 2.55-.03q.68.27 1.38 1.12v.26l-.35 1.88.17.14-.17 1.32.09 2.46.26.97h.67l-.76-.38v.67l.03-.03-.03-.03.06 1.97.03-.03-.03-.03v.32l-.06 3.02v.26l-.06.35.09.15q-.32 8.55-1.99 8.58 0 .15-1.09.38-1.31.03-1.93-1.14-1.29-.73-1.35-1.26.33-.82.82-.91h.47l.44.21.38-2.11-.14-.12.2-1.32q-1.14.56-9.43 1.35h-.44q-1.99-1.7-2.08-5.59l.09-.06v.03l-.18-.94h.03q-.15-6.07-.5-7.09l-.73.38h-.47q-1.26.03-1.29-1.11v-.24q.65-1.02 8.35-7.5 2.17-2.05 3.9-4.95zM556.61 48.6l-.99 1.32h-.53q1.43-.76 1.4-1.84l.12.52zm30.94.41q.97-.03 1.61 1.29.03 1.94-2.28 1.97.02.35-4.34.44h-.35l-.09-.06-.76.2q-1.85.03-1.91-1.67 1-1.4 2.38-1.43v.05l1.67-.29v-.35l-.33.41h.71q1.67-.06 3.69-.56z"/></svg>