<svg viewBox="0 0 801 80" xmlns="http://www.w3.org/2000/svg"><path d="M39.74 25.16c1.08 0 1.8-.06 2.22-.36.72-.12 2.88-.84 6.3-2.28 1.44-.12 2.16-.48 2.16-1.2v-.24c-.06 0-.42-.06-.78-.42-.42-.42-1.38-.84-3.18-1.08-.84.3-2.34.78-4.32 1.68-2.82 1.5-5.04 2.58-6.54 2.94l-2.1-.12v.18c2.16.54 3.6.9 4.08.9zM19.76 40.58c2.52-.18 3.72-.3 3.72-.72l12.36-3.72c2.76-.54 4.56-.96 5.28-1.26l.18.12c.3 0 .72-.12 1.44-.36l.18.18c.72-.24 2.64-.72 5.76-1.26v.06c5.58-.84 9.78-1.44 12.54-1.44l.72-.06c0 .06.06.06.12.06l.24-.06c.24 0 1.08.06 2.34.06v.18c-1.62.54-2.58.6-3.12.6 0 .3-.72.6-2.1.78v.18c1.92 0 3.36.12 4.44.18.9 0 2.7.36 5.58.9.06 0 .24 0 .36-.12l1.74.42.24-.18c0-.3-.72-1.2-2.16-2.28-.18-.42-.42-.6-.66-.66l-.24.18c-.24-.12-.36-.24-.36-.48-3.54-1.62-6.06-2.4-7.5-2.4h-.36c-.66.12-1.08.42-1.08.48v1.02l.3.3c-3.42 0-10.26.84-20.34 2.58v-.12c-10.5 2.16-16.38 3.6-17.52 4.08-3.24 1.44-5.4 2.04-6.84 2.04v.12c1.02.42 2.46.6 4.38.6l.36-.06zm41.1 18.18c.42-.06.48-.3.48-.72v-.66l-.06-.3h.06l-.12-1.38c.06-.36.06-.84.06-1.38l-.18-.78c-.66-.36-1.08-.96-1.38-1.68-1.02-1.56-2.7-3.66-5.34-6.36-1.98-1.2-4.92-2.88-8.7-4.86 0-.66.24-.96.66-.96 0-.24.06-.54.12-1.02l-.12-.24.36-.72c0-1.08-.66-2.16-1.62-3.06l.18.78c0 .36-1.08 1.86-3 4.26-3.42 6.12-5.88 10.14-7.08 12.06-.9.12-1.44.36-1.92.48v.54c.24.9.48 1.68.78 2.4h-.18v.36c.3.84.6 1.38 1.26 1.38h.12c.48 0 1.8-.96 3.78-2.94 2.28-1.8 3.78-2.88 4.32-2.88 1.98-1.32 3.66-2.34 5.16-3.06 0-.18.24-.48.54-.6.96-.42 1.68-.72 2.1-.96.06 0 .54.42 1.44 1.38 1.62 1.38 3 2.94 4.08 4.68v.24c-.66 0-1.44-.18-2.22-.48-3.48-1.2-5.46-1.56-5.76-1.56v.36c.18 0 .78.54 2.04 1.2 1.62.84 2.76 1.44 3.3 1.98 3.9 2.82 6.18 4.44 6.84 4.5zm-23.04-7.98h-.06c.18-.48.78-1.44 1.8-2.58 1.14-1.26 1.62-1.92 1.62-2.1 1.8-2.04 3.3-3.72 4.08-5.16h.06c1.74 1.8 3.18 2.94 4.08 3.54.42.66.9.96 1.08.96v.36c-4.56 1.62-8.76 3.3-12.66 4.98zm60.66 16.14c.9-2.88 1.38-6.6 1.38-11.16l.12-.72c-.12 0-.12-.42-.12-1.14l.12-.84c-.12 0-.12 0-.12-.12.12-.12.12-.6.12-1.56l-.12-.24h.12c0-.18 0-.3-.12-.48 0-.18.12-.96.24-2.04-.06 0-.12-.18-.12-.24.06-.18.18-2.28.36-6.3l-.12-.18.18-1.08c-.06-.18-.06-.66-.06-1.38l.06-.48c-.06 0-.06-.18-.06-.36 1.98-.6 3.06-.78 3.3-.78 1.02-.54 4.62-.84 10.92-.96 2.16.06 3.24.12 3.42.36.78 0 1.44.66 1.86 1.86 0 .84-.48 2.22-1.62 3.9-.42 1.32-2.22 3.6-5.04 6.42-1.62.84-2.64 1.32-2.94 1.74h-.48c-.42 0-1.08-.24-1.92-.66a53.709 53.709 0 0 1-3.54-3.24c-1.2-.72-2.34-2.7-3.6-5.94-.18 0-.3.12-.3.48.12.96.18 1.38.42 1.5 0 .6.6 2.58 1.86 5.82 1.14 4.02 3.48 5.94 6.96 5.94.42-.42.78-.66.78-.72l.72-.42c.78-.24 1.14-.42 1.14-.84 1.92-1.68 3-2.58 3-2.58.78-.6 1.2-.9 1.2-.96.9-.54 1.38-1.08 1.62-1.56 2.46-2.28 3.54-3.84 3.54-4.56.6-.3.96-.66 1.02-.96-.36-1.08-.84-1.86-1.14-2.4a8.222 8.222 0 0 0-2.16-3.06c-2.22-.96-4.5-1.32-6.9-1.32 0 .06-.06.12-.12.12 0-.06-.42-.12-1.38-.12-.3 0-.78 0-1.02-.12-.3.12-.9.12-1.56.12l-.66-.12c-.18.12-.48.12-.72.12-2.1 0-3.96.12-5.46.36h-.24v-.06c1.2-.3 1.8-.6 1.86-.6 0 .12.18.18.24.18.84 0 2.94-1.02 6.12-3.18 1.02-1.02 2.28-1.8 3.42-2.22.96 0 1.56-.42 1.56-1.08 0-.12-.18-.42-.42-.84-1.38-1.62-2.1-2.52-2.1-2.76-.54-.12-.84-.42-.84-.48-.06 0-.18.06-.36.18-.96-.24-1.68-.3-1.86-.3-1.86 0-4.74.54-8.58 1.68 0-.18 0-.42.06-.84-.06 0-.06-.06-.06-.12 0 0 .06-.18.06-.42l-.06-.66c.18-.48.24-1.38.24-3 0-2.1-.9-4.08-2.46-5.82 0 .12.06.54.18 1.02 0 .84-.12 3.24-.42 7.44.06 0 .06.06.06.12-.06 0-.06 1.02-.06 3 0 .06-.54.3-1.68.72-2.94 1.2-4.56 1.98-4.98 2.1h-.54v.12c.96.36 2.34.6 3.96.6l3.12-1.14v1.92l.12.54c-.06 0-.12 0-.12.06.06.66.12 2.16.12 4.68-2.7.6-4.38 1.02-4.5 1.08-1.26 0-4.44 1.2-9.36 3.48-1.86 1.14-3.18 1.74-4.02 1.74h-1.02v.24l2.7.48c2.16-.24 3.96-.66 5.28-1.14 4.68-1.68 8.34-2.88 10.8-3.3h.12c-.06 3-.12 5.16-.12 6.66 0 3.72.06 6.3.18 7.68-.06.48-.06.78-.06 1.2 0 .42.06 2.64.24 6.3 0 .72-.12 1.44-.18 2.22.06.42.18 1.2.18 2.52l-.18.84c.24.06.36.06.54.06zm20.04-38.22l.54-.12v-.6c-.18 0-.48-.54-1.2-1.56-1.98-1.68-3.96-2.64-5.4-3.24l-4.62-1.26v.12c1.14.84 1.68 1.38 1.92 1.38.72.9 2.1 1.92 3.96 2.82l-.18.6c.78.24 1.26.42 1.32.42 2.1.96 3.24 1.44 3.66 1.44zm-18.12 6.54l-.18-.12.18-2.94-.06-.72c0-1.98.18-2.88.6-2.88 2.22-.6 3.72-1.14 4.32-1.5 2.16-.54 3.66-.96 4.5-1.38l.24.18v.36c0 .18-1.8 2.04-5.22 5.46-2.46 1.92-3.9 3.18-4.38 3.54zM146.9 65c.3 0 .42-.18.66-.54.6-2.46.96-3.9 1.14-4.14l-.12-.42c.3-.18.42-.78.72-2.04-.06 0-.18 0-.18-.06h.18c0-.12-.06-.24-.18-.42.48-.54.66-1.02.66-1.5.9-1.92 1.8-4.14 2.76-6.84-.3-.12-.42-.18-.42-.36.42 0 .6-.06.6-.42l-.18-.36c.3 0 .6-1.26 1.14-3.96v-1.08c-.06 0-.18.06-.3.06h-.24c0-.12.12-.24.24-.42.06 0 .12.06.3.18.54-.24 1.8-.66 3.72-1.2 5.76-1.8 9.24-2.88 10.68-3.18l.24.12c-1.98 4.8-4.98 9.18-8.88 13.32-1.26.42-2.04.66-2.04.84v.48c.24.84.36 1.8.36 2.76h.42c3.66-1.08 6.48-2.22 8.28-3.24 3.96-1.44 6.54-2.4 7.68-3.12 2.28 2.4 3.42 3.9 3.42 4.02-.42 0-.72.06-.9.06 0 0-.24-.06-.84-.06l-.3.06c-1.44-.36-2.94-.48-4.32-.48v.42c.48 0 .84.3 1.08.78 1.62.36 2.76.72 3.18 1.08.42.3.72.54.72.66.24 0 2.46 1.26 6.36 3.66h.36c0-.42.18-.54.3-.54 0-.06-.06-.18-.12-.18 0-1.14-1.14-3.3-3.24-6.36-2.52-2.82-3.9-4.32-3.9-4.44.18 0 .3 0 .66-.24v-.24l-1.08.18c-2.28-2.04-4.44-3.3-6.3-3.9v-.36c.54-.36.9-.84.9-1.26 0-.96-.54-2.28-1.68-4.08.24 0 .36 0 .36-.3 3.24-.42 5.28-.9 5.82-1.32l.42.24.24-.24c0 .24.18.24.54.24l.78-.24c0 .24 0 .24.06.24l.36-.24c0 .24.18.24.54.24l.3-.24c0 .24.06.24.12.24.3 0 .42 0 .66-.24l.24.24c.12 0 .24 0 .42-.24 1.14 0 2.34.48 3.48 1.26v.06c-.12 0-.96.36-2.46.66l.12.3.84-.24c1.08.3 1.5.48 1.5.6 1.14-.06 1.92-.12 2.34-.12.36 0 1.68.54 3.72 1.5l.18-.18c0 .18.3.24.48.24l.42-.06-.42-1.02c-.18-.66-1.44-1.68-3.54-3.06l-.3.06c-.3 0-1.38-.42-3.42-1.62-1.68-.96-3-1.32-3.96-1.32 0 .36.06.72.12 1.32-.06.12-.12.42-.12.48h-2.1l-.42.18-.48-.18h-1.08v.18h-.06v-.18c-.3 0-.72.06-1.26.06l-.36-.06c-2.94.3-4.68.42-4.92.42v-.06c.12 0 .42-.06.6-.36.6 0 1.2-2.04 1.92-6.24.06-.18 1.38-.6 3.78-1.5 2.82-.36 4.32-.72 4.32-.84l-.24-.3c.06 0 .24 0 .24-.12 0-.24-.24-.3-.48-.3-.36-.9-1.14-1.32-2.28-1.32l-.42.06-1.32-.06c0 .36-1.2.6-3.36.96h-.12c.12-1.68.18-2.94.36-3.6-.12 0-.12 0-.12-.12.12 0 .36-1.44.54-4.44a19.214 19.214 0 0 0-4.74-4.32h-.12v.42c.66 1.56 1.08 2.52 1.08 2.76l-.36 3.54c.06 0 .06.18.06.18h-.06c0 .12 0 .24.06.42l-.18 1.56c.06 0 .12.12.12.18l-.12.3.12.3c-.06 0-.12.54-.12 1.44 0 .84-.12 1.5-.3 1.8.12.24.12.48.12.72 0 .36-.3.42-.66.42-4.56 2.28-7.32 3.3-8.4 3.3h-.54v.24c0 .54.96.9 3.3 1.2h.78c.84 0 2.46-.48 4.98-1.44h.12c0 1.56-.54 3.6-1.44 5.94-2.64.54-6 1.68-10.44 3.12h-.12l.12-.48v-.12h-.18c0 .12-.18.54-.42.84-1.92.78-3.96 1.38-6 1.8v.36c1.32.42 2.28.6 2.46.6l2.34-.06v.18c-.66 1.2-1.44 2.7-2.34 4.62-.42.72-.54 1.14-.54 1.38-.66 1.2-1.02 2.04-1.02 2.22-.36.06-.84.66-1.26 1.68-1.26 2.46-2.16 4.38-2.82 5.94-.06 0-.12 0-.12-.24 0-.36.12-2.34.42-6.18.66-4.56 1.14-7.44 1.56-8.7l.96-4.14c1.08-.36 1.62-.72 1.62-.84v-.36c0-.3-.24-.42-.78-.54 0-.36-.96-.72-2.82-1.32l-.54.18c-2.4 1.26-3.84 1.86-4.32 1.86h-1.08c-.24 0-.36-.48-.42-1.26 0-.18.18-1.14.6-2.64v-.18h-.24v.18c-.6.96-.96 2.04-1.26 3.72.6 1.74 1.5 2.58 2.7 2.58 1.56 0 3.12-.18 4.74-.84h.12v1.32c-.72 4.74-1.26 10.44-1.92 17.16v1.14c-.42 0-.66.12-.9.48 0 .24.06.24.24.24 0 .54-.24.96-.42 1.38.18.36.48.66.66.66 0 .12 0 .24-.06.42l.06.36c.12 0 .18 0 .18-.12.12.12.42.12.48.12 1.56 1.32 2.52 1.86 2.94 1.86zm-5.28-33.84c4.14-4.68 6.9-7.38 8.16-7.8 1.56-.54 2.34-.96 2.34-1.68-.06-.48-.84-1.38-2.52-2.58h-.48c-.6 0-1.44.18-2.4.54l-.36-.18c-1.86.48-3.3.6-4.32.6v.48c2.82.66 5.1.9 6.66.9v.48c-1.5 1.62-3.96 4.62-7.26 9v.24zm20.22 20.82h-.12c.96-.9 2.04-2.04 3-3.3.9-.78 2.34-2.22 4.08-4.5 2.88 2.64 4.26 3.96 4.26 4.08-4.2 1.26-7.92 2.46-11.22 3.72zm54.48 12.24c.18 0 .48-.06.78-.24 1.8-1.56 2.76-3.12 2.7-4.2.66-1.98 1.14-3.54 1.44-5.16.18-2.88.6-5.28 1.08-7.02-.06-3.12-.06-5.16.12-5.88l-.54-5.64.24-.48c1.56 1.02 3.78 4.26 6.9 10.32.72 2.04 2.34 3.6 4.8 4.98.96.96 3.78 1.68 8.28 2.16 0-.06 0-.18.06-.18 0 .12.6.18 1.68.18l.3-.06c2.7.3 5.04 1.14 7.44 1.92.18 0 .3-.06.3-.24v-.3c-.18-.42-1.08-1.08-2.4-1.56l-2.88-1.62c-5.76-2.1-9.18-2.94-10.74-2.88-1.86-.54-3.42-1.32-4.62-2.82-1.62-2.64-3.42-5.04-4.86-7.26-1.26-1.26-2.28-2.34-3.12-3.24 1.2-.72 2.7-1.8 4.56-3.18 3.18-2.34 4.92-3.84 5.28-3.84v-.72c-.3-.42-.36-.54-.36-.72-1.32-1.02-2.04-1.68-2.04-1.98h-.42c-.18.06-.48.3-.6.78.12.48.18.72.18.84-3.66 4.56-6.42 7.32-8.4 8.04h-.06c0-.3-.42-.78-1.14-1.68-.78 0-1.68-.36-2.58-1.38 2.28-3.42 4.32-5.22 6.24-5.28l-.06-.42-.66-.6c-1.98 0-2.82-.36-2.82-.84 6.54-1.44 11.16-2.52 13.74-2.94 1.14-.06 2.4 0 3.54.18l.12-.36c0-.42-.48-1.5-1.98-3-.84-.78-1.08-1.32-1.08-1.38-.06 0-.24 0-.42.06-.72-.06-1.02-.24-1.2-.24-2.58-.72-4.44-1.14-5.58-1.08-2.7.12-5.52.48-8.28 1.14-1.98-1.26-4.26-2.28-7.08-2.76V14c.66 0 2.04 1.14 3.72 3.18v.06c-.24 0-.9.12-2.34.66-5.28 2.46-8.1 3.54-8.58 3.54l.18-.18v-.18h-.36c-.84 0-1.62.96-2.34 2.88 0 .72.3 1.38.66 1.74.42 1.86 1.8 2.64 4.14 2.64 1.02 0 1.56-.24 1.74-1.02 0-.06-.48-.36-1.14-.78-1.32-.48-2.22-1.02-2.94-1.5h-.42v.42h-.18c0-.06 0-.06.06-.06l-.12-.42.3-2.76c0-.18 1.14-.54 3.36-.84 0 .12.06.12.48.12.12 0 .54-.06 1.32-.3 3.48-1.32 6.12-2.1 7.86-2.7.54.66 1.32.96 1.8.96l.66-.48h.66l-.06-1.08c.42 0 1.14-.3 1.98-.72l.42.12c2.64-.54 4.5-.9 4.92-.96 1.44.06 2.82.3 4.2.72v.06c-1.08.66-3.12 1.8-6.6 3.36-2.16.9-4.92 2.28-8.16 4.44v.36c.24 0 .66-.3 1.26-.48h.24c-.24.12-.18.24-.18.48 0 .18-.72.6-1.92 1.32-3.9 2.34-6.42 3.48-7.74 3.54l.06.36.78.06 2.52-.06c.3 0 1.38-.18 3.18-.66.06 0 .12 0 .12.12-1.2 1.92-2.58 3.96-4.14 5.88-.72.36-1.08.66-1.08.78l.78 2.58c.24 0 1.14-.6 2.52-1.86h.12c-1.8 5.1-3.12 7.62-4.14 7.62-.18.3-.48.78-.66 1.62.18 1.2.6 1.92 1.02 1.86l-.3 3.3c.06.12.18.36.18.42l-.12.3c.12 1.2.3 1.98.3 2.22-1.98 3.84-5.04 7.14-9.18 9.84v.3h.36c.72-.54 1.14-.84 1.14-.9 1.68-.6 4.44-2.7 8.28-6.54h.24c0 .54.12.78.24.78.3 1.86 1.68 3.96 4.32 6.12zm.48-4.14c-2.04.06-3.72-1.44-4.8-4.38l-.12-.3 3.84-5.88 4.74-11.16h.24c.06 1.32.18 2.46.18 3.6v.6s.06.18.06.3c-.12 2.34-.54 5.76-1.14 9.96-.78 3.48-1.8 5.82-3 7.26zm-5.52-6.78c0-.3-.12-1.2-.18-2.46-.06-.36 0-.72.24-1.08-.18-.66-.18-1.14-.24-1.68-.12-.96 1.5-3.6 4.8-7.62 1.14-1.08 1.74-1.68 1.74-1.86h.36c-.3.9-1.14 3.24-2.58 6.72-2.22 5.4-3.84 7.92-4.14 7.98zm62.82 11.94c.18 0 .3 0 .48-.06.24-.54.42-.66.54-.66 0-.12-.06-.3-.12-.42.06-.18.12-.3.12-.6-.24-.3-.36-.72-.36-.96.3-.6.42-.96.42-1.02l-.18-.42c0-.18.06-.24.18-.24v-.12c0-.18-.06-.24-.18-.24l.12-1.08-.78-.9c.42-8.7.96-15.24 1.5-20.16h.3c1.08 3.42 1.92 5.52 2.94 6.42h.6c.24-.72.48-1.14.72-1.14v-.36c0-.84-1.44-2.94-4.26-6.66.18-2.34.48-3.54.78-3.72 0-.66.78-1.68 2.34-3.12v-.06c-.12 0-.6.18-1.56.72-.36 0-.48-.36-.72-1.08.72-6.06 1.2-9.36 1.44-9.96 0-.54-.24-1.14-.72-1.8-.6-2.1-1.44-4.08-2.58-5.7v.24c.48 2.22.84 3.78 1.14 4.62-1.14 7.02-1.8 11.88-1.8 15-.06 0-.36.06-.84.3h-.06l.48-1.14-.12-.18c-.06 0-.3.3-.66.84 0 .66-.72 1.02-1.92 1.44-4.5 1.86-7.26 3-8.16 3.6h-1.38l-1.98-.3v.24c2.82 1.2 4.8 1.92 5.7 1.92.72-.3 2.82-1.32 6.12-3.18l-1.5 4.5c0 1.74-1.62 5.46-4.98 10.74-.42 1.32-2.58 3.72-6.24 7.32v.06c2.58-1.86 4.26-3.3 5.04-4.14 2.1-2.58 3.6-4.38 4.62-5.46l.24.18c-.06.72-.12 1.32-.12 1.68 0 6.06.72 10.26 2.04 12.6.72.72 1.08 1.14 1.08 1.32 1.56.54 2.28.84 2.28 1.14zm7.92-2.94c.72-.24 1.68-.78 3.12-1.74.96-.84 1.74-1.32 2.1-1.32.96 1.56 2.52 2.28 4.44 2.28 1.56-1.14 3.3-2.88 5.28-4.86 1.02-1.02 2.46-2.82 4.2-5.16.78-1.44 2.1-3.24 3.84-5.58 1.02-1.92 1.86-3.3 2.46-4.08.42.3.72.42.96.42h.42c0-.06.06-.24.12-.36-.06-.3-.12-.42-.12-.42 0-.06.06-.18.24-.18 0-.78-.3-1.74-.96-2.82-.36-.9-.84-1.44-1.56-1.86-.3-.36-1.56-.72-3.96-.96-1.86 0-4.92.42-9.42 1.44-.36-.3-.72-.54-1.08-1.14h-.42c-.54.48-.78.66-.9.66v.18c.12 0 .3.18.72.3 0 .06 0 .24-.06.36-.54.24-1.92.66-4.14 1.38-.06 0-.06-.06-.06-.18 0-.06.96-1.08 2.94-3.06l3.72-4.5c1.86-3.3 3.84-6.12 5.94-8.1v-.24c-.24-.36-.96-.84-2.16-1.62l-.36.12-1.38-.72h-.06c-.36 0-.54.54-.54 1.5-1.8.66-4.02 1.8-6.42 3.24-3.12 1.56-5.22 2.4-6.18 2.4 0-.12-.18-.18-.54-.18v.3c1.86.3 3.18.42 3.9.42 2.28-.3 4.92-1.44 8.16-3.36.06 0 .12 0 .12.06-1.8 3.72-3.48 6.96-5.46 9.6-1.98 2.88-3.24 4.56-4.26 5.04-.18 0-.42-.12-.66-.12l-.42.3c.12.6.3.84.54 1.02v.12c1.02 0 2.88-.36 5.88-1.14h.18c-1.44 2.94-2.58 4.74-3.18 5.22-.3 1.02-.78 1.8-1.44 2.4h-.3l-.3-.24c0-.66.18-1.86.54-3.78v-.24c-.54.42-.9 1.74-1.26 3.66v1.5l-.48.78c.24.54.36.78.36 1.02v1.86c.3 0 .48.36.54.9l-.18.24c.66 2.22 1.38 3.84 1.8 4.8l-1.14 1.5c-.66 1.14-1.8 2.04-3.12 2.7zm-10.56-23.04h-.06v-.18c0-.9.24-1.92.78-3.36 0-.78.66-1.44 1.74-1.98h.12c-.36.66-.48 1.08-.48 1.26zm19.98 18.18c-.78-.24-1.5-.54-2.1-1.02 1.26-1.56 2.88-4.86 5.04-9.66.96-1.8 2.34-4.02 4.2-6.96.84-.54 1.26-1.02 1.26-1.44v-.42c0-.12-.24-.24-.78-.48l-.3.12-.18-.18v-.18c1.74-.42 3.18-.66 4.26-1.14l.54.24c0-.06 0-.24.12-.24 1.68.3 2.46.54 2.46.9 0 1.32-1.44 4.62-4.02 10.08-1.32 2.7-3.06 5.28-5.34 7.8-1.26 1.74-2.94 2.58-5.16 2.58zm.42-16.26c.3-.66.66-1.2 1.14-1.62 0-.6 1.14-1.26 3.36-1.74l.18.24v.12c-.6 0-2.1 1.08-4.68 3zm-3.66 13.8c-1.32-1.92-2.04-3.42-2.28-4.56.06 0 .66-.84 1.74-2.34.48-1.02 1.2-2.04 2.34-3.18 3-3.48 5.04-5.46 6.24-5.88-.42 1.08-.66 1.68-.9 1.68-1.08 2.16-3.54 6.84-7.14 14.28zm-14.94 4.26c-.06 0-.24-.18-.42-.42-.72-1.44-1.44-3.6-1.92-6.48h.12c-.24-.72-.36-2.88-.54-6.36.12-.12.18-.36.18-.42-.06 0-.18 0-.18-.06 1.26-2.1 2.46-4.08 3.42-6.06h.18c0 .12-.06.24-.06.36-.42 9.24-.66 15.42-.66 18.54zM340.7 20.9c.3-.3.48-.42.48-.66.78-.24 1.44-.72 2.04-1.02 1.14-.54 1.74-.9 2.1-1.26.72 0 1.32-.54 1.68-1.5-.18-.54-1.26-.9-3.36-1.44-2.52.36-4.8.9-6.54 1.56v.36c2.16.36 4.44.48 6.24.48-.54 1.02-1.56 2.1-2.94 3.18 0 .12.06.3.3.3zm1.74 43.68c.48 0 .78-.18.78-.72 0-.3-.24-1.14-.6-2.1.3-.3.6-.66.72-1.2-.36-.78-.54-1.14-.78-1.14 0-.06 0-.06.06-.06l-.66-2.76.12-.24c-.06-.18-.12-1.68-.12-4.68l-.12-.12h.12l-.12-.72c0-.3 0-.54.12-.96l-.12-.3.12-.72c0-.06 0-.12-.12-.48.12-.06.12-.24.12-.48l-.12-.3h.12c0-.48 0-1.2-.12-2.16l.12-.24-.12-.18c.12-3.54.18-5.16.24-5.16 0-1.74.42-2.7.9-2.7 1.62 1.98 3.06 4.32 4.32 6.78 1.68 3.24 3.36 5.34 4.32 6.48 2.7 2.88 6.48 4.26 12 4.26 3.72.54 7.2 1.14 10.68 2.16v-.3c-.78-.9-1.92-1.68-3.48-2.46-6.6-2.76-11.1-4.2-13.74-4.44-2.76-.72-5.04-2.22-6.54-4.26-3.18-4.92-5.16-7.92-6-9l6.3-3.78c2.76-1.92 5.04-3.36 7.14-4.32v.18c1.8-.42 2.76-.78 2.76-1.2-.24-.18-.3-.48-.3-.66-.9-.72-1.32-1.14-1.32-1.38-.6-.54-1.2-.84-1.86-.84-.06 0-.12.12-.18.3-.18 0-.3-.12-.36-.3-.24 0-.42 0-.66.12-.36 1.08-.54 1.68-.66 1.68-.12.12-1.38 1.2-3.54 2.88-3.18 2.52-6.12 4.68-8.64 6.42l-.42-.24c0-.24.12-.72.18-1.5l-.06-.18c.42-2.76 1.14-4.92 1.98-6.48 1.14-1.2 1.74-1.68 1.74-1.86 0-.12-.12-.48-.54-.9-.18-.54-.96-.9-2.22-.9 0-.3-.24-.42-.66-.66h-.24l-.18.24c0-.06-.06-.24-.18-.24h-.18c-.3 0-.36.24-.36.66-1.68.9-2.94 1.5-3.48 1.98-3.96 2.64-6.18 4.08-6.72 4.08v.24c.9.24 1.62.3 2.34.3 2.1 0 4.5-.96 7.32-2.76l-.66 4.44c0 .06.12.3.24.6l-.42 2.22h-1.08c-.3 0-.36.06-.42.3.78.06 1.32.12 1.5.42v1.74c-.3.48-1.86 1.14-4.26 2.1v.3c.72 0 2.04-.36 3.96-1.14h.12c-.06 1.62-.12 4.2-.12 7.68l.12.24h-.12c0 1.5.06 3.84.12 6.66.06.18.18.36.18.48-.12 0-.18.06-.18.12l.18.78v3.48l-.18.24c-.06 0-.54-.18-1.2-.48-2.94-3.42-5.1-6.6-6.42-9.84 0-.3.6-1.62 1.68-3.78.9-2.34 1.32-3.48 1.32-3.9.78-1.68 1.2-2.7 1.2-2.94.9-.84 1.38-1.5 1.5-1.98v-.48l-1.02-.3h-.72l-.42.18c0-.06-.66-.18-2.16-.18v.6c-1.32.66-3.3 2.22-6.18 4.56-1.5 1.56-2.52 2.34-3.24 2.34v.18c.84.18 1.38.24 1.86.24 1.86 0 4.26-1.08 6.9-3.54h.18c-.3.72-.48 1.2-.6 1.26 0 1.5-1.68 5.64-5.28 12.54-1.74 2.64-3.72 4.62-5.82 6.18l.18.36c3.78-1.5 7.14-5.22 10.32-11.04h.18c1.02 2.94 1.86 5.46 2.82 7.38 2.4 4.14 3.54 6.18 3.54 6.48.54.9 1.02 1.44 1.56 1.44.48.66.9 1.14 1.44 1.38zm48.54-1.38c.36 0 .72-.06 1.08-.42 0-.12-.06-.24-.24-.54.18-.42.24-.84.24-1.14 0-.24-.06-.42-.24-.54l1.02-8.04-.24-1.38.24-1.44-.36-.12h-.12c0 .3-.3 1.14-.96 2.52-1.56 3.12-2.16 4.98-2.52 4.98 0-.66-.06-1.38-.12-2.04 0-.3.3-2.1 1.14-5.16 0-2.1 1.86-4.86 5.88-8.04 2.16-1.26 3.24-1.8 3.24-1.92 2.04-.72 3.36-1.26 3.6-1.56 1.98-.6 3.9-1.32 5.34-2.34l-1.14-.78c-1.26 0-1.74-.24-1.98-.66-.42.42-.96.48-2.04.48 0 .36-.48.72-1.8.96v-.66c.3-.36.42-.78.42-.9.84-1.92 1.02-3.66 1.02-4.98l-.06-.3c.06 0 .18-.36.3-1.08.84-.12 3.42-.66 7.98-1.44v.06c1.56-.36 3.48-.54 6.12-.54l.72.12v.12l-6.12 1.5v.42c1.02 0 1.92-.06 2.82-.3 2.34.24 4.38.3 6.3.3.3 0 .96.12 1.86.42.72 0 1.08-.06 1.2-.42v-.3c-1.14-1.14-1.74-1.86-1.74-2.04-2.7-1.02-5.16-1.86-7.62-2.58-1.2.18-1.8.72-1.8 1.26v.48c-3 .36-6.3.72-9.72 1.14 0 0 0-.12-.06-.12 0-.96.06-1.92.18-2.88-.06 0-.12 0-.12-.18l.36-3.96c-.96-1.44-2.46-3.24-4.56-5.22h-.18c.24.6.6 1.26.72 1.74-.12 4.5-.48 8.28-.84 11.46-5.34 1.5-9 2.4-11.1 3-1.92 1.26-4.32 1.8-6.9 1.8h-1.38c1.44 1.14 3.78 1.62 7.14 1.62 7.44-2.82 11.52-4.26 11.94-4.26.3 0 .48 2.4.66 7.62 0 .12-.24.36-.66.72-3.78 1.8-6.48 2.52-7.8 2.52v.36l2.76.66c.78 0 1.5 0 2.52-.06 0 .06-.12.06-.24.06-2.52 2.28-3.78 3.54-3.78 3.78-1.74 2.04-3 4.74-3.84 8.4 0 .78-.12 1.98-.18 3.54 0 .12.06.6.24 1.56-.48.54-.78.78-.78.9.3.54.72.84 1.14 1.02 1.26 1.86 2.28 2.82 3.06 2.82zm27.24-1.08l1.02-.12h2.34c2.34-.24 3.66-.6 3.66-1.26v-.18c-.12-.36-.78-1.08-2.04-2.1-1.8-1.02-2.94-1.68-3.42-2.22-.84-.18-3.24-2.28-7.38-6.18l-4.32-3.24v-.18c0-.3.18-.42.42-.42 2.34-2.04 4.86-3.12 7.86-3.12 2.22 0 4.8.72 7.74 1.86v.24c-.42.42-1.08.78-2.1 1.14-4.08.78-6.72 1.44-7.98 1.92 0 .12 0 .12.06.12l.84-.12c.72 0 2.22.18 4.44.78.06 0 .24 0 .54-.24 2.82.24 4.2.36 4.2.54l.72-.12c1.14.42 2.1.48 2.82.48.96 0 1.44-.18 1.44-.9-.54-.96-.84-1.5-.9-1.5-.6-1.02-.9-1.68-1.02-1.68-.3-.96-.48-1.38-.6-1.38-.3.12-.36.3-.48.3-.18 0-.3-.24-.3-.6h-.66c-.36.12-.48.3-.48.36-3.54-1.02-6.72-1.56-9.54-1.56-2.46 0-6.6 1.32-12.42 4.08-.24-.06-.6-.6-1.26-1.56 0-.72.36-1.2.84-1.2v-.18l-1.62.06c0 .3 0 .66-.06 1.26 0 .06 0 .3.06.42-.06.66-.06 1.08-.06 1.2.18.3.42.48.48.48 1.26 1.56 2.22 2.4 2.94 2.4h.9c1.56-1.86 2.28-2.82 2.58-2.82.66.36 1.38.96 2.16 1.92.42 0 2.1 2.34 4.86 6.84a36.99 36.99 0 0 1 3 4.5v.12c-5.28-.96-8.94-1.98-10.74-2.94-2.22-.54-4.86-2.28-8.28-5.04-.9-.66-2.7-2.64-5.16-5.94h-.24c1.14 2.4 2.16 4.38 3.12 5.58 1.62 1.38 2.28 2.1 2.28 2.22 4.2 3.6 9.54 6 15.78 7.08 2.7.36 3.96.72 3.96.9zm46.86-43.98c.12 0 .18-.24.36-.72 0-.54-1.02-1.08-2.88-1.86-.18 0-.36 0-.54.06-.72-.12-1.56-.3-2.76-.36l-.48.06-1.5-.18v.18c0 .6 2.46 1.56 7.68 2.82zm-28.2 49.32c1.08-.42 2.28-1.2 3.84-2.04 1.08-.96 1.74-1.38 1.92-1.38 1.68-1.74 3.18-3.96 4.62-6.36.24-.3.72-1.32 1.56-3.12 2.4-6.96 4.14-14.88 5.22-23.88l-.12-.3c.12 0 .24-1.26.36-3.66 0-.3-.12-.36-.42-.48v-.36h.06c3.54-1.8 6.42-3.18 8.52-4.02.24 0 .42.72.42 2.16l.18.24c-.18 0-.18.42-.18 1.02l.18.3c-.18 0-.18.48-.18 1.32l.18.36h-.18c0 .06 0 .18.18.42-.18.42-.18 1.14-.18 1.98h-.18c-3.48 2.16-5.64 3.36-6.36 3.66-.18-.12-.36-.3-.54-.72l.3-.18c2.04-1.62 3.3-3.24 3.6-4.68-.24-.54-.42-.96-.48-.96h-.36c0 .42-.36.96-.78 2.1-.24 0-.42.24-.66.78-.78.6-1.26 1.02-1.32 1.26-1.38.3-1.92.6-1.92.72v.42l.12.24c-.12 0-.12.06-.12.3 0 .12.36.3 1.2.72.78 1.5 1.38 2.88 1.56 3.96.48 1.2 1.14 1.8 1.86 2.1.18 0 .42-.18.42-.42.84 0 1.98-.42 3.48-1.26 0 .06 0 .12.18.12l-.54 3.72c-1.68 1.26-2.7 1.98-3.36 1.98-.12 0-.18-.24-.18-.42h-.24c-.3.42-.66.54-.78.54 0 .18.54.6 1.68 1.2.06 0 .6 0 1.5-.06 1.02 1.14 1.62 2.1 2.16 2.88-.18 1.02-1.14 2.7-3 4.98-2.7 2.76-4.98 4.56-6.9 5.16-1.74.3-2.58.66-2.58.9h.48c2.1 0 4.86-1.14 8.34-3.66 1.68-1.08 3.24-2.88 4.8-5.34h.12c.84 1.74 2.1 3.6 3.78 5.58.9 2.04 2.76 3.54 5.58 4.68 0 .54 2.88 1.44 8.7 2.34 6.84 1.74 10.44 2.58 11.1 2.58v-.18c-.66-.54-1.86-1.2-3.9-1.74-2.64-1.44-5.4-2.64-8.46-3.66-6.3-1.38-9.84-2.76-10.74-4.02-2.04-2.64-3.72-4.98-5.04-7.2 0-.18.54-1.44 1.44-3.6.72-1.2 1.14-2.28 1.38-3.18.54-.42.9-.84.9-1.26l-.18-.24c.9-.06 1.38-.12 1.38-.3.6 0 1.5-1.02 2.52-3.3.48-1.8.78-2.64.9-2.64a33.27 33.27 0 0 1 1.98-5.82c0-.18.36-.78 1.14-1.62l-.24-.72c-1.14-.72-1.68-1.2-1.68-1.38-.3 0-.54-.12-.72-.36h-.6c0 .36-.3.48-.78.48-4.5 1.98-7.02 3.06-7.62 3.06 0-.66-.06-1.56-.12-2.4 0-.96-.72-1.98-1.98-3 0-.06.42-.42 1.14-.66l.3.18c6.54-1.68 10.38-2.58 11.76-2.58.9.3 2.1.42 3.54.48 0-.06.06-.12.24-.12v-.36c-1.74-1.56-2.94-2.28-3.6-2.28h-3l.12.3c-.54 0-.9.36-1.14.96 0 .24-2.7.66-7.8 1.38-5.88.72-10.74 1.92-14.88 3.12-2.52.96-4.02 1.44-4.44 1.44v.24c.9.24 2.16.6 3.78.72 1.62-.48 3.24-.96 4.92-1.5 3-1.14 6.6-2.1 10.74-3h.3v.18c-1.5.48-3.36 1.14-5.04 2.16-3.42 1.98-5.34 2.4-5.34 2.52-2.22 1.02-3.6 1.74-4.26 2.4-.96 0-1.32.3-1.32.9v.36c0 .18.06.24.36.24 1.14-.6 2.04-1.2 2.76-1.62h.36c0 1.02-.24 2.28-.54 3.66h-1.26c-.12 0-.54.24-1.32.54-.36.48-1.98 2.04-4.62 4.44v.3c1.26-.24 2.4-.6 3.48-1.38-1.02 2.28-1.38 3.66-1.38 3.96h.06c.66-1.86 1.08-2.94 1.5-3.06 1.44-2.52 2.64-3.78 3.42-3.78 0 .36-.06.66-.06.84-3.06 4.86-5.28 8.52-6.48 11.04h-.06v-.3h-.3c0 .24-.06.3-.06.3 0 1.08-.66 1.86-1.86 2.7v.18c.6 1.56 1.14 2.34 1.5 2.34.24 0 .36-.06.6-.36.18-.78 1.14-2.34 2.58-4.62.96-2.82 1.68-5.1 2.4-6.78l-.3-.12c0 .24-.12.48-.18.48.18-1.14.78-2.52 1.92-3.9 0 1.74-1.14 6.96-3.3 15.84-2.22 5.76-4.26 10.14-6.06 12.72-.96.96-1.56 1.74-1.92 2.34-1.32 1.08-2.52 1.98-3.54 2.46v.36zm34.44-32.94c-.48-.24-1.32-.54-2.64-.96l-.3.18c-.18-.12-.36-.18-.42-.18s-.54-.36-1.38-.96c.24-.36 1.2-.9 2.64-1.56 1.86-1.02 2.88-1.56 3-1.56v-.3c0-.36-.72-.6-2.04-.72-1.14.12-1.68.18-1.68.42s-1.02 1.14-3.06 2.58h-.24v-1.92l.18-.78c-.18-.12-.18-.42-.18-.72v-.66c.6 0 1.38-.06 2.34-.12l5.94-1.86h.24v.18c-1.14 4.8-1.92 7.86-2.4 8.94zm-12.54 3.54c-.48-1.08-1.02-2.46-1.86-4.08 1.38 0 3.3-.78 5.64-2.16l.3.6c-.18.3-.18.42-.18.66 0 .54 0 1.32.18 2.28-.18.18-.18.36-.18.54-2.34 1.44-3.72 2.16-3.9 2.16zm6.3-3.12c0-.54 0-1.32.12-2.16.18 0 .48-.06 1.08-.36.12.18.42.66 1.14 1.56 0 .24-.84.54-2.34.96zm2.34 2.46c-.78 0-1.38-.3-1.8-1.08 2.22-.78 3.84-1.26 5.22-1.26 0 .3-.12.72-.24 1.14-.48.84-1.56 1.2-3.18 1.2zm-3.54 3.48c.12-.36.48-1.2 1.08-2.76h.12c.54.54 1.02.84 1.38.84-.12.54-.48.84-.84.84 0 .3-.54.66-1.74 1.08zm.06 5.28l-1.98-1.92c1.26-1.08 2.46-1.86 3.66-2.52.06 0 .18.06.18.18-1.02 2.88-1.74 4.26-1.86 4.26zm35.1 10.02c1.56-1.38 2.82-2.7 3.6-3.84 1.68-1.44 2.88-2.76 3.54-4.02.18-.36.3-.48.6-.48l2.58-3.9 2.82-4.56 4.62-9c2.46-4.92 4.08-7.5 4.02-7.74h.24c.06 0 .6.42 1.62 1.2 3.48 5.1 5.88 8.4 6.9 9.78a31.08 31.08 0 0 0 6.3 6.24c2.22 1.2 5.04 2.04 8.52 2.46 0-.12 0-.18.06-.18 1.08.18 2.1.3 2.94.24l.3-.06v.06c.72.06 1.5.3 2.46.66 1.92.36 3.78.66 5.46.9l.48-.3c-.06-.12-.48-.48-1.32-.9-2.16-1.38-5.64-2.7-10.44-3.96-5.88-1.02-8.88-1.92-8.88-2.4-3.6-3.66-6.06-6.36-7.2-8.1-2.64-3.9-5.04-5.94-6.54-6.42-.48 0-1.14-1.62-2.22-4.62h-.06c-.24 0-.36.48-.42 1.38-.3.84-2.04 4.62-5.34 11.22-.06.6-.3 1.08-.48 1.38-1.32 2.82-1.98 4.26-2.16 4.26-3 6.06-5.4 10.74-7.62 13.98-1.62 2.28-2.64 3.48-3 3.54 0 .12.18.24.24.36v.24l-.24-.24c0 .24-.06.3-.3.3 0 .06-.54.78-1.62 1.86v.24c.24 0 .42-.18.54-.24h.18l-.48.66zm35.34 3.78c0-.42 0-.78-.06-1.2-1.08-1.56-3.48-2.4-7.2-2.28l-4.5.42c0-.06-.12 0-.18 0l.48-1.86-.24-.66c.42-.54 1.38-1.08 2.82-1.68 1.86-1.08 3.18-1.98 3.9-2.4.42 0 .84-.48 1.38-1.38l.36.18c.3 0 .6-.12.84-.3v-.36c-.72-2.4-2.34-3.6-4.62-3.54 0 .06-.12.42-.3.84-.3.3-1.62.72-3.66 1.38-.06-.6 0-1.5 0-2.88l5.34-1.38c.66 0 1.26-.42 1.74-.96l-.24-.72c-.36 0-.66-.12-.66-.36-.36 0-1.14-.06-2.34-.06-.6 0-1.98.18-4.2.66-.12 0-.18-.36-.3-.9l.12-1.32-1.5-1.2c2.76-.72 4.62-1.26 5.46-1.5 1.56-.12 2.28-.54 2.16-1.08 0-.24-.06-.54-.3-.84 0-.18-1.2-.48-3.54-.84h-.3l.12.18c-3.06.78-5.28 1.5-6.66 2.1l-.54-.12c-.12 0-.12.06-.12.3-1.86 1.08-3.3 1.68-4.26 1.68 1.02 1.14 2.04 1.74 2.94 1.92.24 0 1.02-.24 2.16-.66h.3c.12 1.62.24 2.82.24 3.72-2.04.9-4.26 2.04-6.6 3.24-1.5.36-2.28.6-2.28.66l2.52.48c1.32-.06 3.42-.54 6.36-1.62l.06 1.62.12.24c-.06 0-.12.24-.12.72l-.06 1.5c.06 0 .12.12.12.18-1.68 1.56-3 2.46-4.02 2.52-.24-.72-.42-1.44-.48-2.1h-.24c-.42.84-.72 1.5-.72 2.1.12 1.68.48 2.58.72 2.58.48.84.96 1.14 1.44 1.14l.24-.06c.42-1.2.96-2.1 1.5-2.64.66-1.5 1.2-2.34 1.5-2.34 0 .84.12 2.1.18 3.48 0 .12-.18.3-.54.72v.18c.18-.18.3-.24.48-.24.24 0 .48.66.78 2.04v.18c-3.18 1.08-5.76 1.68-7.92 2.04v.24c.36 0 1.44.18 3.06.48 2.64-.06 5.58-.3 9.12-.78l2.76-.12c1.26-.06 3.3.18 6.12.72 0-.06.12-.12.18-.12.18.06.6.06 1.08.06zm-10.98-7.98h-.24c0-.06.06-.18.12-.18-.06-.54-.18-.9-.18-.96 0-.18.06-.24.24-.3l-.12-.66v-.78c-.06-.48 0-.84.06-1.2 0-.66 1.26-1.14 3.9-1.56h.36c0 .72-1.38 2.58-4.14 5.64zm43.86-24.42c1.32-.6 2.46-1.38 3.24-2.1v.18h.24c.6-.24.84-.48.84-.78.48-.06.9-.24 1.14-.78.84-.54 1.44-.9 1.62-1.26 1.74-1.62 2.64-2.7 2.64-3-.18-.42-.24-.54-.24-.84-.9-1.5-1.32-2.1-1.62-2.34-.84-.78-1.26-1.32-1.5-1.32h-.18c.48.78.72 1.32.72 1.92 0 .48-.78 2.04-2.52 4.56-.3 1.5-1.86 3.42-4.38 5.64zm19.38-2.1c.42 0 .54-.06.54-.24 3.42-2.88 6.42-4.86 8.94-5.88v-.12c0-.48-1.08-.9-2.82-1.14-.24 0-.3.24-.3.48l-1.2-.12c0 .78-.42 1.26-1.38 1.38-4.14 3-7.08 4.44-8.28 4.44v.12l2.34.36s.12-.06.24-.06v.06c.48 0 1.56-.24 3.12-.84.06 0 .06.06.06.06zm1.56 37.56c.66-.12 1.14-.36 1.14-.48 1.32-.06 2.04-.42 2.04-1.08.6 0 1.2-1.86 1.92-5.82-.12 0-.12 0-.12-.12.18-1.56.3-3.54.42-5.94-.12-.18-.18-.3-.18-.48 0-.12.06-.24.18-.42-.12-1.62-.18-3.36-.18-5.52l-.12-.24h.12c-.24-2.88-.42-4.68-.42-5.34-.24-2.58-1.08-4.08-2.58-4.62v-.3l4.62-1.56c5.46-.96 8.64-1.38 9.36-1.38v.18l-6.84 1.5v.12c.18 0 .6.12.9.12.06 0 .36 0 .72-.12.36 0 .96.12 2.04.12 2.82-.3 4.68-.54 5.64-.54 0 .36.18.42.54.42l1.74-.12c.24.36.96.42 2.16.42l.24-.18c0-.54-.54-1.32-1.56-2.1-.48 0-.66-.12-.66-.6h-.66c-.42-.42-.72-.72-.84-.72l-.42.12c-3.06-.84-4.8-1.32-5.4-1.32-.06 0-.12.12-.12.12-1.26.18-1.92.6-1.92 1.08.12.48.12.72.12.72-1.92.42-4.02.78-6.3 1.14-6.66 2.04-11.52 3.96-14.64 5.64-3 1.8-4.56 2.34-4.98 2.34-.24-.12-.54-.3-.72-.3 0-1.38.72-3.42 2.1-5.94.6-.9.96-1.5.96-1.62 0-.12 0-.42-.18-.48l.18-.24c-.18-1.14-.66-2.46-1.86-4.02l-.3.12.24.24v.84c-.42 1.38-.72 2.4-1.2 2.88 0 .54-.3.72-.84.72 0 .24.12.36.18.48 0 .18-.18.66-.66 1.44-2.1 4.38-3.48 7.74-4.5 9.3-1.92 4.62-3.36 7.2-4.2 7.92-.36.96-.78 1.56-1.08 1.74-.42 1.02-1.5 2.46-3.42 4.5v.12h.36c.36-.48.66-.66 1.02-.66 2.22-2.28 3.48-3.72 3.78-4.26 1.38-1.86 2.58-3.42 3.36-4.8.78-1.08 2.34-3.24 4.2-6.6.06 0 .06.12.06.18-.12 2.7-.36 6.96-.42 12.78l-.12.3c-.3 0-.42 0-.6-.24-.54.24-.78.42-.78 1.08-.18.54-.24.78-.48.78 0 .48.3 1.2 1.2 2.34 1.08 1.08 1.5 1.62 1.5 1.74 2.28 1.86 3.66 2.64 4.14 2.64h1.44c0-.18-.12-.72-.42-1.62-.96-1.02-1.38-2.7-1.38-5.1v-1.38c.54.72.96 1.44.96 2.34 1.14 1.26 1.62 1.86 1.62 2.1.66.72 1.14 1.14 1.32 1.56 0 .06.54.66 1.92 1.8 1.68 1.32 3.24 2.04 4.8 2.28zm-2.16-3.6c-1.26-.12-1.92-.24-1.98-.36-4.08-1.26-6.66-3.24-7.98-6-.54-.54-.84-1.32-.96-2.1 0-.96-.06-3.24-.3-6.42v-.24h-.18c-.6 5.52-.78 8.88-1.08 10.14.06 0 .06.12.06.12-.12.3-.24 1.08-.42 2.52-.54-.36-.96-.78-.96-1.32 0-.3.12-.72.3-.96-.18-.72-.3-1.62-.3-2.34v-1.98c0-.66.42-4.56 1.14-11.82 0 0 0-.24.06-.36.48.48.84.78 1.26.78l.78-.12c.24 0 .36.12.36.12 1.08-.18 2.04-.66 3-1.14 4.44-2.1 7.86-3.72 10.32-4.5h.72c.9 0 1.62 3.9 1.98 11.88 0 .12.06.24.12.48h-.12c.06.42.12.9.12 1.5 0 .3.12.78.18 1.26-.06.06-.18.24-.18.3 0 .12.12.24.18.42-.06.18-.18.78-.18 1.56 0 1.68-.18 3.6-.6 5.76-.66 1.92-2.34 2.82-5.34 2.82zm46.08 3.72c.12 0 .24-.54.36-1.5-.48-.72-.96-1.56-1.32-2.4 0-.12.24-.84.42-1.98-.54-.6-.78-1.38-.78-2.28 0-.42.06-1.68.24-3.9-.06 0-.06 0-.06-.12h.06c.18-3 .36-4.8.36-5.58l.06-.84c-.06 0-.06 0-.06-.12l.06-.3c.06-2.46.12-4.02.12-4.86l.24-1.32h.06c.12.6.36.9.6.9 1.26 1.74 2.28 2.64 2.76 2.64h.3c0-.06.06-.24.24-.54-.12-.9-.24-1.5-.54-1.5-1.14-2.1-1.8-3.72-1.86-4.8-.48 0-.66.54-.66 1.68l-.9-1.02c0-.06 0-.18.06-.36l-.06-.78.36-3.66c-.06 0-.06-.06-.06-.12h.06c.18-.72.42-1.32.72-1.5v-.24c0-.18-.06-.36-.36-.42.06-.12.18-.36.18-.48h-.18l-.24.06c0-.24-.06-.42-.12-.66l.3-1.2c-.12 0-.18 0-.18-.06.42-2.04.72-3.54 1.08-4.32v-.36c-1.14-1.98-1.92-3.36-2.22-4.02l-.78-1.44c-.36-1.02-.72-1.68-.84-1.68h-.06c.78 2.34 1.14 3.84 1.14 4.74-.3 3-.48 5.58-.48 7.86-.66 0-1.2.42-1.32 1.32-.78 2.34-1.5 3.54-1.92 3.54-4.38 2.76-6.72 4.14-6.96 4.14-.48-.06-1.2-.06-2.04-.06v.18h.12c2.4.9 4.44 1.32 5.7 1.32l2.28-1.44c-1.2 4.32-1.8 7.08-1.8 8.4v2.64c0 .48-.18 1.14-.78 2.22-.3 1.5-1.56 3.72-3.84 6.84h.18c1.32-1.26 2.4-2.7 3.18-4.26.66-1.26 1.08-1.92 1.26-2.16h.24c.84 4.68 2.22 8.46 4.14 11.16.9.84 1.38 1.44 1.38 1.8h.72c.18 0 .36.3.36.84zm8.58-21.24c.78-1.86 1.26-3 1.68-3.42.78-.96 2.34-4.32 5.1-10.26h.6c.06.48.06 1.02.06 1.5 0 1.38.24 2.58.78 3.54 1.38 1.98 2.52 3.06 3.36 3.06.78.48 3.72 1.02 9 1.62 0-.06 0-.12.12-.12l.42.12c.06 0 .06-.06.06-.12 2.58 0 4.5-.66 5.82-1.8.54 0 .9-.78 1.08-2.16-.36-.36-.54-.84-.54-1.08-1.26-2.22-1.86-3.36-1.86-3.84l-.84-.72c-.18-.72-.72-1.8-1.56-2.94-1.44-1.44-2.16-2.34-2.16-2.94h-.42c0 .42.12 1.08.6 1.74 1.44 2.64 2.46 6.48 2.94 11.58v.24c-1.08.54-2.4.84-4.08.84l-.18.18c0-.12-.18-.18-.6-.18-3.48 0-6.24-.78-8.52-2.34-.66 0-1.08-1.08-1.08-3.12l.42-1.86c0-1.2.3-1.68.9-1.68 3.72-1.62 5.4-2.52 5.4-3 0-.18-.18-.36-.66-.66-.84 0-1.56.06-2.22.12l-.54-.3c-.6.9-1.5 1.62-2.34 2.16 0-.42.06-1.5.18-3.3 0-.12 0-.18-.06-.18 0-.96-.36-1.92-1.08-2.88-.78-1.8-1.32-2.7-1.56-2.94 0 .24.06 1.02.24 2.58 0 .48-.24 2.28-.72 5.46 0 .9-.96 2.58-2.88 4.92-.96 1.74-2.82 4.02-5.52 6.72.24-.54.3-.84.36-.84.36-3.78.72-5.58 1.02-5.58 3.12-1.38 5.28-2.64 6.3-3.78v-.3c-.72-.42-1.44-.66-1.86-.66-1.02.12-1.8.24-2.52.24-.6.78-1.26 1.32-1.92 1.62 0-.06-.06-.18-.24-.18l.24-.24v-1.8l.06-.72c-.78-.78-1.8-1.74-3-2.7h-.06c.18.42.48.84.6 1.5l-.12.3c0 .72.06 2.1.12 4.08l.12.18c-.12 0-.12.42-.12 1.38-.54.78-1.2 1.14-1.74 1.14v.3c.24 0 .78-.06 1.74-.18l.24 3.48c0 2.34-.24 3.66-.66 3.66-.3.6-.6.84-.72.84 0 .3.42.84 1.14 1.8v.12l-.12.3.24.12c.18.66.54 1.02.9 1.38zm-15.48 2.76l-.36-.12c0-.12.24-.12.3-.12 0-1.98.42-4.56 1.38-7.68 0-1.44.54-2.28 1.86-2.88h.18c0 .72-1.14 4.32-3.36 10.8zM650.3 59.6c.84-.12 1.26-.24 1.26-.36.9-.72 2.22-2.46 3.72-5.16.24-.72.54-1.5.96-2.22 1.2-2.52 2.04-3.9 2.16-3.9 1.08-2.34 1.98-3.54 2.88-3.54 0-1.26-.96-2.52-3.06-4.02h-.48v.18h-1.5c-2.94 0-7.26 1.38-13.02 3.84 0-.18.24-.36.9-.9 1.5-1.08 2.64-2.34 3.54-3.78 1.02-.66 1.5-1.56 1.5-2.64-1.08-1.8-1.8-2.58-2.16-2.58 0 .12.06.48.36 1.08l-.06.66c-3.36 4.2-5.88 7.14-7.68 8.94-.66-.18-1.14-.24-1.38-.24-.36 0-.48.54-.54 1.5.06.54.06 1.02.06 1.38h.48l1.62-1.02c.96 1.74 1.56 3.42 1.56 4.8-.06.18-.24.3-.24.36.18 0 .36.42.78 1.08.72 1.5 1.32 2.22 1.86 2.22 1.38 1.56 2.16 2.52 2.34 2.52l-.18.18v.18c.06 0 .24.06.36.18 1.32.66 1.86 1.26 1.92 1.26h1.14l.72-.18c0 .06.12.18.18.18zm-20.28-3.12c-.36 0-.9-.54-1.86-1.5-1.8-2.52-2.76-5.04-2.94-7.86.42-.84.66-1.5.66-1.56.48-.9 1.14-2.4 2.16-4.44 1.2-3.3 1.92-5.1 2.1-5.22h.12c.06 3.3.12 5.52.12 6.72 0 .84-.06 2.04-.12 3.48l.12.72c-.06 2.4-.24 4.8-.36 7.26l.12.9-.12.6c.06 0 .12.06.12.12zm18.78.3c-1.44 0-2.64-.48-3.48-1.44 1.08 0 3.48-.36 6.9-1.32v-.24h-.3c0-.72-.42-1.14-1.5-1.14-1.44 0-3.42.54-5.94 1.62h-.3c-.78-2.64-1.14-4.02-1.14-4.14.54-.3 1.74-.54 3.66-1.02 3.42-1.14 5.1-1.92 5.1-2.28-.24-.48-.9-.72-1.8-.72-.42 0-1.08.06-1.74.18-.12-.12-.3-.18-.54-.18-.24 0-.36.18-.36.36-.42.42-2.04 1.26-4.62 2.58h-.36c-.18-.78-.6-1.62-1.38-2.58v-.06h1.68l.66.06 7.8-3.3c2.7-1.14 4.92-1.74 6.78-1.74l.3.06c-.36 1.2-.78 1.92-1.02 2.22-1.56 5.34-2.88 8.58-4.14 9.78-1.26 2.22-2.7 3.3-4.26 3.3zm49.92-25.86c2.4-.96 3.54-1.56 3.54-1.8 3.54-1.62 6.12-3 7.62-4.08.78-.12 1.38-.3 1.62-.6 0-.54-.12-.84-.42-.96v-.12c2.76-.9 5.4-1.74 7.98-2.76l.3.18c1.08-.42 2.1-.6 3-.6l1.62.18c.06-.3.24-.42.24-.66-.36-.66-1.56-1.32-3.42-1.86-.24 0-.48.06-.9.24-1.68-.06-2.58-.18-2.76-.3h-.24c-.6.84-1.08 1.26-1.44 1.26-4.38 1.56-8.22 3.06-11.1 4.56h-.12c1.32-1.56 3.24-3.6 5.82-6.18 1.8-1.98 3.24-3.42 4.26-4.32 0-.72-.36-1.44-1.26-1.98h-.18c0 .78-2.58 3.78-7.5 8.88-3.42 3.84-6.12 6.42-8.1 7.86.42-1.56.6-2.34.9-2.34.12-.66.36-1.32.78-2.04 0-.96.96-1.44 3.06-1.86v-.78c-.24-.24-.3-.42-.3-.48-.42 0-1.08-.12-1.8-.18-1.2 0-1.92.24-1.92.66-2.34 1.68-3.66 2.76-4.08 2.88v-.12c.24-.42.78-.9 1.5-1.5v-.48c-.3-.54-.6-.78-.78-.84-.3-.78-1.32-1.38-3-1.86h-.06c.36.54.54.78.66.78-.3 1.26-.6 1.92-.84 1.92-.24.84-.96 2.22-2.34 3.84 0 .42-1.38 1.8-4.32 4.38.42 0 1.8-.66 4.08-1.86 2.04-1.38 3.48-2.4 4.08-3.12 1.14 0 3.12-.66 5.82-1.92v.24c-1.62 2.28-2.76 3.48-3.48 3.66l-2.46-.9h-.12c1.62 1.92 2.58 2.88 3.24 2.88l-.24.3v.18c.96-.12 1.38-.24 1.38-.48 2.76-1.98 4.62-3.36 5.64-4.32 1.5-.18 3.42-.84 5.94-1.74.06 0 .12.06.12.18-.36.36-.6.6-.6.78-1.38 1.32-4.56 3.72-9.42 6.96zm11.94-8.16c-.06 0-.36-.06-.78-.24v-.18c2.4-1.08 5.04-1.98 7.92-2.88h.36c-.3.24-2.7 1.38-7.5 3.3zm.54 43.68c1.02 0 1.56-.36 1.68-1.2 1.08-1.5 2.04-3.06 2.58-4.68.84-2.7 1.44-6.84 1.68-12.42 0-.24 0-.42-.12-.54l.12-.84V43.1l-.12-.18h.12c-.12-1.14-.12-2.52-.12-3.9l.12-.9c-.12 0-.12-.12-.12-.18.12 0 .12-.6.12-1.68l.06-.84c-.06-.06-.06-.78-.06-1.98.24-.24.42-.72.42-1.32-1.86-2.7-3.36-3.96-4.5-3.96h-.42c-1.98 0-4.2.42-6.84 1.2-3.36 1.56-5.7 2.46-7.08 2.82v.42c.66.06 1.08.12 1.2.24l2.94-.66c5.58-2.22 9.06-3.36 10.56-3.36.66 0 .9 1.8.9 5.4v1.14l.24.66c-.12 0-.24.06-.24.12l.24.3c0 1.92.12 4.2.54 6.66 0 1.2 0 4.14.18 8.76-.48 4.14-.72 6.3-.96 6.3-.48 2.88-1.44 4.38-2.76 4.38h-.42c-2.04 0-4.38-1.56-7.14-4.74-2.46-2.7-4.08-4.98-4.62-6.54h-.3c2.64 5.94 4.08 9.06 4.32 9.18 2.4 4.02 4.98 6 7.68 6zM692.96 35.6c.54 0 1.02-.18 1.68-.66.36 0 1.02.24 1.98.48l.42-.24c0-.06 0-.3-.06-.42 0-.12 0-.24.06-.36 0-.3-.72-.66-2.04-1.14-2.16-.24-3.6-.6-4.26-.84v.42c.12.42.42.54.66.54l1.8 1.14v.06l-.54.84v.18zm10.44 18.84c1.02 0 1.86-.36 2.58-.96.78-.96 1.14-1.62 1.14-2.04.6-.84 1.2-4.2 1.5-10.02 0-.3 0-.72-.12-1.14.18 0 .3-.72.36-2.34-.72-1.8-1.92-2.58-3.72-2.58h-.18c-.18 0-1.56.6-3.9 1.8v.18c2.82-.54 4.5-.84 4.68-.84l.06 1.02v2.58c0 .24-.66.48-1.98.48-.48 0-1.32.48-2.7 1.44l-.9-3.66h-.3c-.42 1.32-.66 2.94-.78 4.74.3 2.76.6 4.5.78 5.04-.06 0-.12.06-.12.3h.12c.6.9 1.14 1.32 1.38 1.32 0 .96.48 1.92 1.38 3 0 .06-.06.3-.12.42.06.3.36.66.84 1.08zm-7.86 7.02c0-.84-.42-1.68-1.14-2.16l-.9-2.28v-1.2c0-.6-.18-1.44-.54-2.46l-.18.12c0 .24.06.42.12.54l-.42 2.16c-.18 0-.24-.18-.24-.36l.12-.78-.12-.3c.06-.18.12-.36.12-.66 0-1.32.12-2.46.3-3.48-.12 0-.18 0-.18-.12l.18-.36-.18-.18.18-.72c0-.12-.12-.24-.18-.48.3-1.74.42-3.9.48-6.54l-.06-.24h.06c0-.54 0-1.14-.06-1.62 0-.9-.42-1.68-1.32-2.4l-.36.18c0 .06.06.06.18.06 0 .12-.12.3-.18.48l.36 1.26c-.3 2.04-.48 6.24-.78 12.6l-.72-.06c-.54.06-.78.36-.78 1.02 0 .24.12.6.42 1.26 1.08 1.92 1.8 3.42 2.1 4.68 1.68 1.44 2.94 2.04 3.72 2.04zm9.06-11.1c-1.26-.42-1.74-.78-1.74-1.26 1.38-.24 2.04-.66 2.04-1.26-.18-.48-.54-.66-1.2-.66-.54 0-1.2.06-1.98.18-.18-1.56-.24-2.88-.24-3.9 0-.06 0-.3.06-.48.12 0 .24.06.48.12.6 0 1.8-.36 3.6-1.14 0 5.28-.36 8.1-1.02 8.4zm54.72-11.76c1.68-.78 2.52-2.1 2.52-4.08.06-1.08.48-1.56 1.14-1.56h3.66c0 .18-.54.42-1.5.6v.36c.24 0 .6-.12 1.14-.36 1.86-.84 3.06-1.5 3.6-1.98 1.02-.24 2.16-1.2 3.36-2.94h.3c1.92.78 3.78 1.74 5.52 3l3.54 2.28c.96 0 1.44-.3 1.44-.96 0-.18-.12-.24-.36-.24 0-.12.12-.24.3-.42-2.52-2.22-5.88-3.72-10.02-4.5v-.24c1.32-1.44 1.98-2.64 1.98-3.6-.3-.54-.66-.84-1.08-.84v-.24c2.82-.9 4.32-1.38 4.44-1.56 1.86-.18 2.88-.48 3.12-.84 0-.24-.18-.66-.42-1.26-.54 0-1.5-.06-2.88-.06-1.44.06-2.16.36-2.16.78-5.28 2.7-8.22 4.08-8.76 4.08l3.72-5.16c1.14-2.58 2.1-4.38 2.94-5.52-.36-.66-1.62-1.56-3.78-2.52h-.18v.12c.36.36.6.78.6 1.26 0 1.92-.9 4.56-2.7 7.98-1.32 3-2.82 4.98-4.56 6.06v.42c.96 0 2.1-.78 3.42-2.22 1.62 0 3.48-.3 5.64-.9h.24c0 .72-.36 1.98-1.14 3.84-.72 0-1.68-.12-2.82-.3h-.3v.06c1.44.6 2.22.9 2.46.9 0 .78-1.2 2.16-3.6 4.26 0-1.02-1.26-1.5-3.84-1.5 0 .06 0 .12-.06.12v-.12c-.18 0-.84.12-1.8.42v-.3c.36-1.26.54-2.1.54-2.46 2.22-.12 3.3-.36 3.3-.66 0-.42-.9-.78-2.82-1.08 0-.12.12-.9.36-2.34v-.42c0-.48-.9-.72-2.64-.9-1.86.84-3.18 1.2-3.96 1.2v.18l4.02-.06c.18.72.24 1.2.24 1.38 0 .96-.24 1.38-.72 1.38v-.42c0-.24-.9-.84-2.76-1.74 0 .12 0 .12-.06.12.42.54.66 1.14.66 1.8 0 .78-.9 1.2-2.7 1.2v-.6c0-1.14-.48-1.92-1.44-2.4h-.12c.36.48.66 1.32.78 2.4-.24 0-.42.24-.42.72-.18.18-2.88.9-8.04 2.04-5.64 1.92-9.3 3-10.86 3.3v.36l2.22.18c1.92-.06 2.88-.18 2.88-.36 5.4-1.68 9.78-2.88 13.26-3.72-.24.66-.78 1.62-1.62 2.94-.06 0-.12-.06-.12-.18l-.78.18c0 .18.06.54.12 1.08-.06 0-.12.06-.12.06l.12.36c.48-.3 3.3-.72 8.4-1.26 0 .54-.06.96-.24 1.26-.54 1.68-1.92 2.58-4.14 2.58h-.66c0 .12.24.3.78.48 1.08.72 1.62 1.08 1.74 1.08.3 0 .54-.06.72-.12zM747.2 25.52c1.5 0 4.08-2.22 7.74-6.66l1.92-1.08c-.18-.42-.54-.84-.96-1.26-1.74-1.08-3.24-1.56-4.44-1.56h-.06c.18.18.24.36.24.48.54 0 .96.36 1.2 1.02 0 .42-.24 1.08-.6 1.98-1.8 4.02-3.54 6.3-5.16 6.9v.18zm9.54-4.68c3 0 6.48-.78 10.5-2.28 0-.36.18-.54.42-.54v-.6c-.66-.36-1.26-.6-1.68-.6h-.36c-.84 0-1.8.06-2.88.18-1.56 1.44-3.12 2.52-4.62 3.18-1.38.18-2.1.42-2.1.66zm-3.3 12.48h-.3c.96-.78 1.56-1.62 1.98-2.52.42-.96 1.38-1.44 2.88-1.5 0 .6-.36 1.38-1.02 2.46h.24c1.02-.48 1.68-1.08 2.04-1.74.66-.96 1.32-1.5 1.92-1.5-.12 1.38-.24 2.4-.42 3.06-4.26 1.14-6.66 1.74-7.32 1.74zm13.86 33.24c.24 0 .36-.12.36-.36 1.26 0 2.04-3.18 2.34-9.6l-.12-1.8c-.78-4.86-1.86-7.32-3.24-7.32 2.04-1.38 5.46-2.88 10.32-4.56l1.38.48c0 .9-1.38 1.68-4.08 2.28v.12c1.44 0 2.76.18 3.9.54l2.28-.54c.36 0 .96.06 1.74.18.3 0 .42-.12.42-.3v-1.32c-.12 0-.42-.24-.84-.72-1.32-1.2-3.36-1.8-6-1.8 0 .12-.06.18-.18.18 0-.24-.66-.36-1.92-.48-.12 0-.12.06-.12.12 1.74.6 2.64.96 2.64 1.08l-5.64 1.5-10.68 4.68h-.18c.84-.9 1.44-1.32 1.8-1.32 4.74-3.3 8.58-6.18 11.52-8.64.9-.6 1.38-1.08 1.38-1.44-1.08-1.56-1.86-2.34-2.28-2.34 0 .72-.42 1.5-1.2 2.34-1.08 1.44-2.64 2.34-4.8 2.76-3.24 1.62-5.76 2.76-7.62 3.36H758v-.24c.9-.3 1.32-.54 1.32-.84.24 0 .42.06.6.06.6-.54 1.86-1.32 3.84-2.4 1.26-.72 2.16-1.38 2.52-2.04.96-.3 1.44-.54 1.44-.78v-.36c-1.38-1.56-2.16-2.34-2.28-2.34h-.12v.12l.12.36c-.78 2.16-3.24 4.8-7.44 7.8 0 0-.42 0-1.14-.06 0 .18-.24.3-.6.3.18 1.14.42 1.74.6 1.74.96 0 2.22-.24 3.9-.72 2.52-1.2 4.98-2.52 7.38-3.96 0 .48-.24.84-.72 1.02-2.64 2.46-5.52 4.98-8.7 7.5l-1.14-.18-.42.3c0 1.38 0 2.1.06 2.1 1.8-.18 4.74-1.32 8.76-3.42h.3c1.8 1.14 2.7 4.2 2.7 9.12v1.02c-.36 3.24-.84 4.92-1.56 4.92-1.14 0-3.54-1.5-7.26-4.44h-.24c1.62 2.28 2.46 3.42 2.46 3.48 1.56 2.28 3 3.9 4.26 4.86zm12.42-5.28c.54 0 1.14-.48 1.68-1.32 0-1.62-.3-3-.96-4.08 0-.78-1.56-2.34-4.68-4.62h-.18v.24c.84.96 1.56 2.34 2.16 4.2 0 1.86.66 3.72 1.98 5.58zm-24.36-.36c.18 0 .3-.12.3-.3.48-.3.72-.6.72-.96.78-1.26 1.62-2.88 2.46-4.86v-.18h-.12c-1.62 1.62-2.82 2.46-3.48 2.46-.48-1.56-.78-2.34-.9-2.34v.06c-.78 1.62-1.14 2.64-1.14 3 .36 1.02 1.08 2.1 2.16 3.12z"/></svg>