<svg viewBox="0 0 617 80" xmlns="http://www.w3.org/2000/svg"><path d="M47.62 17.9q-.24.12-1.08.42-1.2.48-3.06.66-1.56.24-2.28.42-.6.36-1.38.36-.66 0-1.08-.42-.24.18-.54.33-.3.15-.54.33.84.72 2.22 1.23 1.38.51 1.86.69.78.3 1.92.3.24 0 .63.06t.69.12q.3.12.96.12 1.32 0 3-.9 1.98-.24 3.96-1.62.12-.18.21-.48t.21-.48q-.24-.12-.54-.42-.3-.3-.48-.42-1.56-.48-2.94-.48-.84 0-1.74.18zm4.98 12.18q-1.14.06-3.54.66-.54.06-1.32.3-.9.12-1.92.42t-1.38.42q-1.5.48-2.52.72t-2.04.24q-.84 0-1.89.24-1.05.24-2.01.54-1.56.48-2.28.6l-3.24.54q-.54.12-1.29.27-.75.15-1.71.27-.54 0-1.38.3-.84.3-1.2.3l-1.32.24q-1.26.24-2.04.42l-2.04.3q-1.68-.06-4.32.48 1.44 1.38 3.36 1.86 1.92.48 4.56.6.3.06.96.06 2.04 0 4.32-1.08 1.32-.54 3-.93t2.16-.51q3.48-1.62 6.6-1.56-.24.06-.54.12-.3.06-.54.12l.36 1.02q-.06.24-.12.51t-.12.51l-.3-.24q.24 2.4-.96 5.46-.36.84-.48 1.26-.42 1.14-.93 2.28t-1.11 1.98q-.3 0-.84-.12t-.9-.18l-.42-.24-.9.54q.06.24.24.66.18.42.18.66 0 .36-.3.54.12.42.24 1.26.12 1.02.27 1.53.15.51.63.99 1.44-.6 2.34-.54.66.12 1.47-.24.81-.36 1.17-.48 1.26-.66 2.64-1.02 1.38-.36 3.48-.78l2.82-.66q.3-.12.96-.27.66-.15 1.14-.57 1.56-.72 3.24-.78.24.48 1.2 1.74.48.6.93 1.29.45.69.63 1.41.24.36.48.9t.48.84q.24.3.66.48.06-.12.24-.36t.24-.48q.6-.6 1.14-2.16.18-.3.33-.69.15-.39.33-.75.6-1.02.6-2.1 0-.3-.12-.9l-.78-1.92q-.3-.36-1.02-.96-.24-.18-.63-.57-.39-.39-.63-.69-.42-.6-.99-1.02-.57-.42-1.53-.96-1.08-.6-1.56-.96l-1.32-.9q-.36-.18-1.08-.66.06.06.06.36-.84-.24-1.56-.54-.12.24-.12.84.66.9 1.44 2.94.18.72.78 2.04.12.3.27.66.15.36.33.84-.42-.06-1.2-.06-.72 0-2.16.12-2.04.12-3 .06-.96.18-2.88.3-2.04.12-2.94.24.3-1.02.87-1.86.57-.84 1.65-2.34.18-.18.48-.72t.57-.87q.27-.33.75-.51v-.66q.54-.72 1.02-2.4l.42-.3q.42-1.14.42-1.86l-1.5-1.26q.72-.24 1.62-.33.9-.09 1.14-.15.36-.06.99-.15t1.05-.21q.48.06 1.2 0t1.2-.06q.78 0 1.2.12l.84-.06q.6 0 1.41.09.81.09 1.23.09 1.74.48 4.02.48 1.02 0 1.5-.06.3-.12 1.17-.24.87-.12 1.29-.3.96-.54 1.26-1.26-.54-.54-1.98-1.26l-1.14-.66q-.72-.42-2.22-.66-1.32-.3-1.5-.36l-2.28-.06q-.6 0-1.92.24-.3.06-.69.12-.39.06-.93.06zm60.48 13.62q.12 0 .12-.21t.18-.21q-.24-.12-.42-.12.06-.12.06-.3.06.06.24.06-.12 0-.12.12.24.12.36.12.42 0 .66-.6.24-.6.36-.72.12 0 .12.18l.66-.99q.42-.63.96-.99h-.18l.24-.18.06-.3-.06-.06-.18-.24q.18 0 .24.18l.12.12q.06-.18.18-.57.12-.39.42-.57-.06-.06-.06-.24 0-.24.33-.63t.27-.75q-.06 0-.09-.06t-.09-.06l.18-.12q-.24-.48-1.02-.84v-.03q0-.03.06-.03h-.24q-.18-.6-.57-.96-.39-.36-.93-.36-.36 0-.84.3-.48-.06-1.74.24-.24.06-.6.12t-.78.06q-.36 0-.84-.12-.12.06-.54.18-.42.12-.6.24v.12q-.36-.12-.78-.12-.42.54-1.17.78t-1.95.42q-1.74.3-2.58.78-.84.48-.66 1.86 0 .3-.06.63t-.06.63q0 .6.3.96.24.9.24 2.1 0 .18.06.96t.3 1.44q.36.6.36 1.86 0 1.26.12 1.86-.24 1.44-.24 2.34 0 .96.12 1.44v.18q0 .24-.15.69-.15.45-.03.69.06.24-.12 1.2-.24.84-.12 1.32-.36 1.8-.36 2.64 0 .78.24 1.5-.36.54-.57 1.29-.21.75-.27.99-.3 1.74-1.08 2.7-.06-1.62-.42-4.62-.06-.6-.24-2.31t-.18-3.15q0-.72.12-2.04-.3-2.7-.3-4.92 0-.78.12-2.46 0-.9.12-2.7.12-1.92.12-2.88 0-1.56-.24-2.76l-2.88 1.5q-1.56 1.32-2.46 1.98-.12.36-.3.6-.54.3-1.23.6t-1.05.48q-.3.12-.81.33-.51.21-1.17.57l-.12-.06q-.54.48-1.8.36-1.92-.36-3.12-.84-1.2-.48-1.86-1.62l.24-.12v.24q.18.06.48.06.42 0 1.17-.3t1.11-.3l3.54-1.08 3.18-1.32q.12-.06.12-.12t.06-.12l.12.18q1.38-.78 4.26-1.98 1.26-.48 2.82-1.2.06-.42.06-1.32 0-.54-.03-1.32t.03-1.86q.06-.3.06-.96 0-.84-.24-2.4-3.24-.18-6.3-1.26.6-.42 1.29-.63.69-.21 1.77-.39 1.08-.24 1.8-.48t1.38-.72q-.48-2.76-.72-6.96l-.18-2.04-.12.06-.24.12q.06-.12.12-.12t.12-.06l.18-.12q-.06-.54-.42-.78t-1.14-.48-1.14-.48q.78-.48 1.77-.63.99-.15 1.17-.21.18 0 .51-.03t.75-.15q.24-.18.54-.18.24 0 .81.24.57.24.87.18.48.24.48.72 0 .24-.24.93-.24.69-.12.99-.18.54-.24 1.08t-.06.72q-.3.66-.3 1.53v1.29q-.06.78.09 1.8t.21 1.5q.12 0 .18.06l2.52-.9q.78-.24 1.38-.3l1.14-.3q.12-.06.3-.06t.42-.12q.12.12.24.21t.24.21q.36.24.36.78 0 .48-.42.84.54.54 1.23.75.69.21 2.01.57 1.2.24 1.92.48t1.32.72q.12.18.12.66 0 .48-.24.84t-.66.36q-.66.3-1.17.78-.51.48-1.17 1.32-.66.78-1.65 1.05-.99.27-2.49.39-.54-.06-1.2.48-.6.48-1.08.48h-.06q-.24 0-.69.18-.45.18-.75 0 1.14-1.8 2.4-5.64.24-.54.6-1.62-.3.18-.72.66-.42.48-.72.72t-.72.24q-.24.12-1.08.3-.84.18-1.32.42-.48.24-.54.72-.06.78-.06 2.4 0 2.28-.24 4.02.9-.18 2.01-.54 1.11-.36 1.59-.48 3.12-1.08 4.8-1.26l1.92-.24q2.04-.36 3.18-.36 1.08 0 1.86.24v.18l1.68.54q.42.18.87.3t.87.3v-.24l.84.42q.6.3.87.69.27.39.09.99-.36.84-.6 1.2-.48.96-.66 1.44.06.42-.42 1.14-.18.3-.33.6-.15.3-.03.6 0 .78-.33 1.41-.33.63-1.05 1.59-.24.54-.75.99-.51.45-1.35.93-.72.48-1.08.78-.12-.06-.36-.06-.3 0-.66.24l-.54.36-2.1 1.08q-1.14.72-2.04 1.02l-.54-.12-1.08-.66-.84-.9q-.72-.78-2.28-1.86-1.86-1.44-2.58-2.28.3.12.66.27.36.15.84.33.36.12 2.22.9 1.86.78 3.6 1.14.66.18 1.08-.21.42-.39.78-.96.36-.57.6-.87 0 .12.03.15l.03.03q.06 0 .06-.09t.12-.15q.06 0 .18-.3-.06-.06-.15-.06t-.15-.06l.36-.36zm7.32-22.62q1.32.06 2.19.33.87.27 1.29 1.11.96.84.96 1.74 0 .24-.12.6.54.54.36.9l-2.4-.72q-3.84-1.02-6.18-1.98-.36-.18-1.14-.72-.78-.54-1.56-.78 1.32-.36 3.3-.36h1.38q1.08 0 1.92-.12zm65.1 15.54l.12.48q0 .36-.3.51-.3.15-.75.21t-.75.12q-.54-.54-1.44-.54-.3 0-1.02.12-.72 0-2.04-.12t-1.98-.12q-4.32-.18-9.3 1.2.24.12.72.39t.84.36q.36.09.66-.09.3.24.96.48.66.24.96.42.18.48-.03.69-.21.21-.9.39-.69.18-.87.54.3.42.09.66-.21.24-.81.66-.48.24-.75.45-.27.21-.27.57l.12.48q-.54.06-1.08.42t-.78.84q-.24.54-1.14 1.2-1.2.84-1.38 1.74 2.22-.84 4.38-1.44 3.24-.78 4.5-1.2.06-.78-.18-2.46-.24-1.56-.18-2.28 2.34.66 3.66 2.58 1.08.42 1.92 1.35.84.93 1.68 2.31.12.24.12.36 0 .3-.09.57-.09.27-.09.57 0 .3.12.48-.12.36-.39.99t-.33 1.11q.12.48-.06.78-.18.3-.66.72-.48.42-.6.78-.48-.06-.75-.36t-.57-.87q-.3-.57-.48-.75-.54-.54-1.32-2.1-.66-1.32-1.26-1.98-1.2.36-2.46.93-1.26.57-1.62.75-2.88 1.32-4.14 1.68-2.16 1.14-4.5 2.04-.18-.36-.48-1.17-.3-.81-.54-1.17l-.36.18h-.24l.06-.36-.06-.78q0-.54.48-.72 2.34-3.18 5.94-9.06v-.18l.54.06q.18-.3.18-.6 0-.48-.48-.66-.48.18-1.65.54-1.17.36-2.13.78-.72.18-1.26.39-.54.21-.9.33l-1.62.54q-.36 0-.69.09-.33.09-.69.09-.36.12-.66.27l-.54.27q-1.92.12-3.66-1.26.3.06.84.06.9 0 1.74-.27t2.4-.87q.3-.12 1.02-.42t1.26-.42q.54-.3 2.94-1.32 2.1-.54 3.18-.96 1.5-.3 1.5-1.98 0-.72-.42-2.28-3.48 1.08-6.06 1.08-1.26 0-1.86-.12-.18-.12-.99-.3t-1.05-.6q3.72 0 7.14-1.56 1.5-.3 2.43-.93.93-.63.75-1.89 0-.36-.12-1.2-.24-1.02-.12-1.5-.06-.66-.06-2.04-.06-2.52-.27-4.05-.21-1.53-.9-3.03-.69-1.5-2.13-2.4.48 0 2.19.03t3.15.21q1.44.18 2.64.54.3.24.3.6 0 .24-.15.72t-.15.66l-.06 2.34q0 .78.06 1.2.06 1.44-.18 3.15t-.3 2.07q-.18 1.08-.42 3.24.6.12 1.38-.3.78-.42 1.02-1.02.42.3.93.39.51.09 1.29.09.66 0 1.32.57t.66 1.17q0 .42-.42.78-.78.24-1.71.33-.93.09-1.23.15-2.28.24-3.24.6-.12.48-.12.6 0 .36.09.78.09.42.15.66.06.18-.06.51t-.12.63q0 .3.18.48 3-.78 5.04-.78 2.46-.48 5.64-.48 1.44 0 2.16.06.42.24.69.63.27.39.57 1.05.3.72.66 1.14zm-31.44-13.08q-.3.72-.96 1.08-.66.36-1.86.72-.36 0-1.14.24-.78.24-1.2.24-.18 0-.66-.12-.24.06-.75.18t-.84.33q-.33.21-.51.51.12-.24.66-1.38.66-1.26.96-2.1.3-.84.18-1.86h.42l.48.12.12-.36q.42.42.96.57.54.15 1.44.27 1.14.18 1.77.48.63.3.93 1.08zm-7.92 3.18l-.12.3.12-.3zm-1.2 6.3q.6.36.6 1.08 0 .66-.48 1.5-.42.72-.78 2.52-.12.72-.33 1.5-.21.78-.63 1.32-.9-.72-1.17-1.8-.27-1.08-.33-2.16t-.12-1.56q-.06-1.5.09-2.61.15-1.11.81-1.95.3.18.6.51t.48.51q.66.84 1.26 1.14zm2.1 15.3q.66-1.02 1.2-2.37.54-1.35.96-2.61.78-2.64 1.62-4.2-.48 1.92-.48 4.26l.06 2.1q.06.72.06 2.16 0 .3-.06 1.08t-.18 1.38q.12.3.12.96 0 .42-.12 1.17t-.12 1.11q0 .42.06.66-.48.42-1.14.42-.48 0-1.08-.27-.6-.27-1.14-.63-1.2-.84-1.86-.9-.18-.12-.18-.36v-.24q0-.18-.24-.3.6-.3.6-.84 0-.36-.3-.48.12-.12.12-.18l-.06-.3q-.24-.24-.24-.36h.42v-.3l.06-.9q0-.24-.12-.72.36.06.6.12t.42.12q.24.12.51.21t.51.21zM217.3 12.2q.42.42 1.08.42.3 0 1.05-.12t1.11-.12q.36 0 .54.06l2.76.6q1.38.42 1.77 1.53.39 1.11.45 3.09 0 .84.06 1.2.78-.18 1.86-.48.3-.06 1.47-.33t2.19-.39q1.02-.12 1.86-.06.48.12.84.69t.72.69q.54.18 2.4.96 1.56.72 2.4.96.48.06.78.33.3.27.3.69 0 .54-.66 1.02-1.08.72-2.34.54-.54.06-1.38.54-.72.36-1.14.48-.66-.06-1.32.15t-1.56.69q-.66.36-1.35.63-.69.27-1.29.27l-.12-.24q0-.18.09-.36t.09-.24q-.06 0-.12-.09t-.18-.15v-.18q.54-.54.9-1.38.36-.84.66-1.68.36-1.2.6-1.74-.12 0-.18-.12h-.24q-1.86.54-2.46.66-7.92 2.22-12.48 3.84-.78 0-1.38.18l-1.14.66q-.24.42-1.14.78-.9.36-.96.84l.06.72-.24.54q-.54.66-.87 1.47-.33.81-.69 2.01l-.48 1.38q-.48.24-.84.03t-.84-.75q-.36-.6-.9-.84.12-.48.12-.66 0-.6-.24-1.05-.24-.45-.78-1.29-.54-.72-.81-1.29-.27-.57-.21-1.17.18-.24.69-.81.51-.57.99-.87.12-.12.24-.54.12-.42.27-.6.15-.18.51.06.18-.3.36-.75t.39-.75q.21-.3.63-.36 1.08.24 1.32 1.44.3.96 1.08.96.42 0 1.05-.33.63-.33 1.23-.75t1.23-.75q.63-.33 1.05-.27 1.08-.42 3.36-1.02 3-.9 4.02-1.38-1.2-.66-2.22-1.5-1.02-.84-2.46-2.22-.3-.3-1.56-1.44t-2.52-1.92q1.02.3 1.5.3.6 0 1.02-.42zm8.16 11.94q.66 0 1.17.3.51.3 1.02.75t.87.69v.3q.24.18.66.42.42.24.6.48-.48.6-1.14.99-.66.39-1.74.87-1.56.9-2.91 2.04-1.35 1.14-3.27 2.94.48-.18 1.56-.18l1.38.06q.42.06 1.26.06.42 0 .81-.06.39-.06.81-.06 1.02 0 1.74.48.66-.54 1.98-1.5 2.52-1.92 3.72-3.06.18.06.24.24.12.06.15.15t.09.15q.06-.06.18-.09t.18-.09q.42.06 1.68.6 1.08.48 1.68.6.48.24.48.78 0 .36-.24.72t-.54.54q-.48.36-1.86 1.32-1.38.96-2.61 1.5t-2.43.54q-.66 0-1.68-.3.12 1.08.12 1.62 0 1.02-.18 1.92-.12.96-.12 1.44l.06 1.32q.06.48.06 1.38 0 1.08-.24 1.98.18.6.18 1.26 0 .36-.3 2.04-.42 1.5-.36 2.58-.66 2.94-.78 3.42h.48q-.12.24-.39.84t-.6.9q-.33.3-.87.24-.48 0-.69.42l-.27.54q-.48-.06-1.23.06t-1.35.12q-.48 0-.72-.06-.78-.24-1.38-.3-3.12-.72-5.04-1.41t-3.42-2.07q1.32.36 3.3.36.84 0 2.52-.12 1.5-.42 2.52-.42.6 0 .9.06 1.74-.42 2.4-2.82.9-3.66 1.29-5.64.39-1.98.39-4.2-.06-.48-.06-1.38 0-.36.03-.96t-.03-1.44q-.12-.18-.12-.54l.06-.78q0-.6-.42-.66 0 .3-.27.33-.27.03-.45-.21 0 .12-.03.36t.09.48q-.96 2.04-1.38 3.12-.96 2.4-1.74 3.87-.78 1.47-1.98 2.67-1.08 1.08-2.16 2.64-1.5 2.04-2.7 3.09-1.2 1.05-3 1.17-.66.36-1.47.51-.81.15-1.44.21-.63.06-1.05.12l.96-.9q1.5-1.26 2.46-2.4l2.4-2.94q3.06-3.72 5.13-6.48 2.07-2.76 3.75-5.7-.54.84-1.29 1.53-.75.69-2.19 1.89-.06.06-1.14 1.32-1.32 1.92-2.7 2.58-1.62 1.62-2.97 2.55-1.35.93-2.97 1.11-.12 0-.3-.15t-.36-.15q.12-.18.36-.57.24-.39.66-.51 1.68-1.74 5.28-4.98.36-.3 2.46-2.25t3.84-3.87q-.12 0-.3-.18-.06 0-.09-.06t-.15-.06l-1.14.9q-1.32.9-1.92 1.62 0 .12.06.12-1.62.78-2.76 1.74-1.32.42-2.43 1.05-1.11.63-3.33 2.01l-1.68 1.08q1.08-2.04 3.42-3.78.72-.3 1.56-1.14 1.02-.9 1.68-1.2l1.68-1.26q1.92-1.38 3.15-2.46t2.13-2.46q-.48-.06-.87.06t-.87.42q-.48.3-.9.48-.66-.12-2.04-.12h-1.23q-.99 0-1.77-.18.9-.54 1.98-.9t1.5-.48q3.06-.96 7.56-3.48.06-.06.24-.42l.21-.21.15-.15q-.12-.18-.03-.42t-.09-.42h.06q.12 0 .36-.18t.48-.24zm6.18 14.46q3.72 1.44 5.64 1.86 1.26.36 1.89.69.63.33.93 1.17.3.18 1.17.6.87.42.87.84 0 .24-.66.6-.06.6-.42 1.92-.36.96-.42 1.5-.24 0-.66.42-.42.42-.72.48l-.24.12q-.18 0-.51-.18t-.45-.18q-.54-.66-1.5-2.1-.3-.42-1.32-1.8-1.02-1.38-2.04-2.34-.12-.6-.51-1.14-.39-.54-.81-.96-.66-.66-1.08-1.32.36.12.48.24.12 0 .66.18-.06-.06-.09-.18t-.09-.18l-.12-.24zm61.02 1.68l3 1.5 3.18 1.32q1.56-4.5 1.44-7.44.12-.48.12-.66 0-.84-.72-.66-.6.12-1.32.42-.72.3-1.02.42-1.44.72-2.64.96-.48.18-1.23.39-.75.21-1.32.45-.57.24-.99.66-.12.6-.12.96 0 .78.36 1.44l.18 1.74q.12.96.12 1.56 0 .54-.12 1.74-.18 1.38-.12 2.4 0 .3-.24.99t-.24 1.05q0 .3.18.66-.18.54-.18 1.02 0 .6.18 1.26.06.24.12.57.06.33.06.81 0 .48-.06.72-.24.24-.3.6t.12.6q.24.18.24.42 0 .18-.24.66-.24.48 0 .72-.12.36-.12 1.14l.06 1.56-.36-.12q.12.18.12.48 0 .36-.24.66-.24.3-.3.42-.24.3-.45.63-.21.33-.15.63h-.6q.06-.3-.06-.66-.12-.36-.3-.72-.36-.84-.36-1.26 0-.18.12-.54.06-.6-.06-1.68-.12-.96-.12-1.5.06-.42.06-1.32l-.06-3.24q0-1.08.06-1.62.12-1.92.12-2.88 0-1.98-.18-3.96l.06-1.62q0-1.02.12-3.18-.18-.42-.54-.42-.3 0-.99.42t-.99.42q-.54.12-1.77.45t-2.25.21q.06-.06.06-.3-.6-.48-1.98-.48-.24.42-.57.54-.33.12-.84.12t-.87.06q-1.26-.12-2.4.21-1.14.33-2.76.99l.54.48.3.6q.12.48.66.48.18 0 .66-.15.48-.15.72-.09 1.8-.24 2.82-.24 1.26 0 2.28.24.12.3 0 .54-.12.24-.51.6t-.45.72q-.72.42-1.56.39-.84-.03-1.08-.03h-1.2q-.96 0-1.38.48.12 1.44.12 2.28 0 .84-.18 1.68 0 1.02-.3 1.8-.3.54-.54 1.98-.18 1.14-.42 1.83-.24.69-.78 1.23-.06-.18-.3-.18-.36 0-.48.3-.48-.3-.69-.78-.21-.48-.39-1.32-.06-.3-.39-.54-.33-.24-.51-.45-.18-.21-.12-.57.06-.18.06-.6 0-.36-.06-.69-.06-.33-.06-.69 0-.42.18-.84.06-.54.27-1.59.21-1.05.15-1.89-.78.3-2.22 1.02-.48.24-1.86.81-1.38.57-2.55.96t-2.19.57q-.42.06-1.44.06-2.58 0-2.88-1.5.54.24 1.32.24 1.02 0 2.07-.42 1.05-.42 2.49-1.26 1.56-.96 2.64-1.32.72-.6 2.64-1.08 1.68-.42 2.49-.99.81-.57.63-1.95-.72.18-1.38.18-1.62 0-2.91-.96t-1.59-2.58q-.06-1.02-.6-2.28-.06-.12-.36-.96t-.24-1.68q-.06-.24.06-.66.12-.42.12-.78 0-.42-.18-.66.36-.42.72-.42.48 0 1.02.63t.78.81q.24.42.51.9.27.48.51 1.08.12.3.9 2.1.54.78.81 1.68.27.9.57 2.28 1.08-.6 2.22-.96 1.14-.36 2.16-.63 1.02-.27 1.32-.33.9.12 1.65-.57.75-.69 1.05-1.65.42-1.32.57-2.85.15-1.53.21-1.83v-.24q0-.24.09-.51t.09-.57q0-.3-.36-.48-1.32.96-3.3 1.08l-1.14.54q-.18.06-.99.42t-1.71.42q-1.44.36-2.88.36l-.12.42h-.3v-.48q-.18-.06-.6-.12t-.66-.21q-.24-.15-.24-.45-.06-.06-.21-.12t-.21-.06l.06-.18q.24.06.66.06 1.8 0 2.73-1.77.93-1.77 1.11-3.99-2.1-.18-3.3-.45-1.2-.27-2.22-1.05l2.7-.84q2.64-.72 3.84-1.2.18-1.38.18-2.76 0-2.1-.54-3.54-.9-.6-.9-1.56.24 0 .75.21t.81-.03q.36.18 1.32.57.96.39 1.8.51.36.36.45.87.09.51.09 1.35 0 .48-.03 1.44t.03 1.62q.18.06.54.06.36 0 .72-.06t.66-.06q.24 0 .72.12.24-.06.78-.06.78 0 1.32.27t.54.87q0 .84-.6 1.32-.6.48-1.32.24l-.54.54q-.42.18-.66.36-2.1.54-3.39 1.41-1.29.87-1.29 2.67.84.06 2.4-.18 1.32-.24 2.04-.24.6 0 .9.06.36-.12.6-.12.54 0 1.02.3t1.14.84q.48.48 1.5.72.18.06.6.21t.72.39q.12.36.12.54 0 .6-.54 1.32-.54.72-.78 1.08-.06.24-.09.75t-.21.9q-.18.39-.54.57-.12.18-.78.72-.42.3-.66.78 0 .12.18.42l-.42.66-.15.45q-.09.27-.09.51 1.2-.18 2.31-.57 1.11-.39 2.73-1.11 1.5-.72 3.06-1.26 0-.42-.03-1.44t-.27-1.74q-.6.3-1.08.3-.54 0-1.29-.24t-1.05-.3q.24-.12 1.32-.6t1.8-1.11q.72-.63.96-1.41-.12-.24-.12-.78l.06-1.02q0-.42-.18-.84-1.5-.06-2.28-.27-.78-.21-1.2-1.11.48.12.66.12 1.44 0 3.18-1.62-.12-.6-.12-.96 0-.42.12-1.26.12-.96.12-1.44 0-.42-.06-.66.12-.6.12-.84 0-1.02-.45-1.92-.45-.9-1.47-2.34-.24-.3-.48-.63t-.42-.69q.48 0 1.2.24.24.06.6.12t.78.06q.48-.12.66-.12.36 0 .75.09t.81.09q.36 0 .54-.06.36.36.36.96 0 .24-.09.54-.09.3-.09.42.06.84-.03 1.89-.09 1.05-.09 1.47-.12 1.8-.12 2.76 0 .9.06 1.38 1.2-.84 3.36-.84.9 0 2.58.12.06.42-.15.69-.21.27-.66.57-.45.3-.57.42-.84.36-1.26.6-.18.12-1.11.51-.93.39-1.77.51-.84.18-.72 1.38-.06.36-.15.78-.09.42-.09.72 0 .24.12.6.78 0 2.34-.6 1.56-.66 2.64-.66.6 0 1.38.3-.06 1.14-.9 1.56-.84.42-2.52.72-1.74.36-2.52.78-.78.42-.66 1.56-.06.54-.03 1.14.03.6-.03 1.2 3.66-1.08 6.18-1.62 2.52-.54 4.98-.48 2.1.12 3.06.42.78.18 1.29.66.51.48.51 1.02t-.48 1.02q-.18.42-.66 1.26-.84 1.44-1.08 2.22-.12.3-.39.75t-.45.81q-.06.18-.54 1.74-.12.18-.36.78-.24.6-.48.9-.24.3-.78.3-.24.24-.84 1.14-.72 1.2-1.32 1.5-1.44 0-2.22.72-.42-.18-.63-.54-.21-.36-.39-.78-.54-1.02-1.02-1.38l-.54-1.08q-.12-.3-.75-1.56t-1.41-2.28zm-19.26-6.66q.24.12.42.12.24 0 .45-.06.21-.06.45-.06.54 0 .78.6-.3.6-.84.81-.54.21-1.5.33-.84 0-1.38.24l-.96.06q-.78 0-1.38-.54.3-.06 2.04-.66l1.92-.84zm74.58-21.84q.12.3.45.63t.51.63q.12.36.12 1.14L349 15.5q0 .3.12 1.02.18 1.32.18 3.96v1.98l-2.28.66q-1.26.48-2.28.72-.24-.84-.3-1.32-.18-1.02-.42-1.56t-.9-.84q-1.08-.42-2.31-.48t-1.41-.06l.96.84q.24.66.33 1.53.09.87.15 1.11 0 .84.18 1.74-2.46.84-4.5.9l1.86 1.92q.78.72 2.7.96 0 1.74.06 2.58 0 .6.03 1.56.03.96-.03 2.28-1.92.78-4.08 1.44l-1.26.42q-.78.24-2.46.24-.9 0-1.38.06.48.6 1.2 1.26.18.48.66.81.48.33 1.08.33.24 0 .84-.24.78-.18 2.64-.96 1.2-.54 2.4-.9.06 1.56-.36 3.06t-1.2 3.48q-.66 1.56-1.02 2.82-.72 1.2-1.26 3.3-.84.18-2.76.3t-2.82.24q-1.86.18-3.72.18-1.74 0-2.58-.06-.54-.06-1.08-.36t-.84-.42q-.54-.24-1.26-.24-.54 0-1.08.18l.72.18q.78 1.5 1.02 2.76.96.84 1.32 1.56 1.98-.96 3.84-.9.42 0 .93-.06t.99-.06q.42 0 .66.06l1.44.12q2.88.24 4.38.54 3.3.12 8.7 1.26 1.68.6 5.04 1.08 2.04.3 3.36.6.84.12 1.5.24t1.08.18q.9.06 2.22-.42.9-.24 1.2-.3.42-.18 1.26-.78.48-.42 1.02-.66.36-.18 1.35-.54.99-.36 1.71-.96.48-.42 1.62-.54.06-.12.06-.3.42-.18.57-.39.15-.21.15-.57-1.68-.84-2.76-.9-.42-.06-1.32-.06-.84 0-2.4.12-2.28.12-3.42.06-.72 0-1.92.12-1.26.18-2.22.12-.06-.12-.06-.3 0-.24.24-.6t.3-.54q-.06-.42-.06-1.26 0-.84.06-1.26 0-.36.03-.81.03-.45-.03-1.05-.06-.54-.3-1.2-.36-1.56-.24-2.22.06-1.14-.12-2.64-.06-.78-.06-2.34 0-1.56.06-2.34 1.32-.18 2.76-.18 1.62 0 3.24.18h.18q.66 0 1.44-.54.18-.12.72-.96v-.18q0-.18-.12-.45t-.18-.45q-1.2-.3-3.6-.54l-1.74-.18q-1.5.3-2.82.3l-.06-.96.06-1.38q.06-.48.06-1.38-.06-.42.18-1.5.24-.72.24-1.2.78-.36 1.32-.72.96-.36 1.98-.36.48 0 .72.06-.36-.42-.96-1.17T355 22.1q-.36-.06-.63-.03t-.45.03l-.9.24V20q0-2.64.48-4.2.06-.66.51-1.44.45-.78.63-1.26-.42-.36-.9-.45-.48-.09-1.44-.15-1.38.06-3.12-.36-.24-.12-.63-.21t-.57-.15zm-21.12 10.14q0 .12-.18 1.74-.06.24-.12.6t-.06.84q-.12.78-.12 2.46 0 1.32-.06 1.98.54.54.66.84.6-.96 1.26-1.56.36-.3.66-.81.3-.51.36-.69.36-.84.78-1.26.12-.24.45-.57.33-.33.54-.66.21-.33.15-.69-1.38-.48-2.22-1.32-.42-.48-1.17-.66-.75-.18-.93-.24zm17.82 5.82q3.3-1.32 4.62-1.62.72 2.58.72 6.6-.9.12-2.58.6-1.8.48-3.24.66-.12-.36-.12-.6 0-.42.09-.81.09-.39.09-.75 0-1.8.42-4.08zm3.3 7.98q.78-.24 1.98-.36l-.06 1.86q-.12 1.2-.12 1.92 0 .36.03 1.65t-.33 2.25q-.18.9-.18 1.74t.06 1.26q.12.66.6 1.86.36.84.54 1.56.36 1.08 1.02 2.34-.72 0-2.04-.12l-1.74-.06q-.84.12-1.32.12-.78 0-1.68-.3-.78-.24-2.28-.24-3.24-.9-5.34-.96.24-.42.78-.84t.84-.72q.18-.12.78-.12 2.28-1.56 3.18-3.66.18-.48.54-1.11.36-.63.48-1.05.06-.36.15-1.17.09-.81.27-1.47.18-.84.18-1.56 0-.18.06-.87t.3-1.23q.6-.42 1.98-.54.72 0 1.32-.18zm-25.2 3.12q.3.54.3.66.66.48 1.2 1.62.54.3.81.81t.42.99q.15.48.21.66 1.14 2.4 2.64 2.94.6.36 1.56 1.08 1.44 1.08 2.34 1.38.36.12.99.36t1.11.24q.48 0 .96-.3-.06-.18-.21-.54-.15-.36-.39-.6L333.64 47q-.84-1.14-1.74-1.74-.72-.3-1.23-.93-.51-.63-.57-1.35-.06-.54.21-1.2.27-.66.39-1.02-.6-.3-1.92-.54-.78-.12-1.5-.36-.84-.36-2.88-.72-.54-.06-1.62-.3zM400.9 14.9q.18.12.78.39.6.27.96.69.24.6.33 1.41.09.81.15 1.17-.66 4.92-.66 10.86 0 2.52.12 5.67t.18 4.41q.12 1.68.24 5.04 0 .96-.36 2.76l-.24 1.56q0 .54-.45.9t-.51.42q-.24-.06-1.32-.36t-1.92-.9q-.6-.48-1.74-.6 0 .54.06.72l.12-.12q.72.84 1.92 2.64.12.12.96 1.32.72.6 1.44 1.68 1.08 1.44 1.74 1.92.36 0 .72.33t.48.45h.42q.24-.06.45-.18.21-.12.45-.18-.06.12-.09.3t-.09.3q.06-.18.18-.33.12-.15.18-.33h-.36q.3-.84.3-2.04 0-.54-.06-1.41-.06-.87 0-1.47.12-2.76.12-4.14 0-2.16-.18-4.2-.12-1.56-.12-2.4-.12-2.04-.24-3.06 0-2.34.06-3.48 0-5.76.18-8.64.42.54.69 1.23.27.69.33.87.42 1.32.9 1.98l1.08 1.68q1.26 1.68 1.62 2.76.24.6.78 1.38.12.24.33.54.21.3.39.66.42.66 1.14 2.1.96 2.04 1.74 2.88.3.42.72 1.05.42.63.84 1.05 1.32 1.08 2.04 1.5.48-.18.84-.18.48 0 .9.18.48-.06 1.38-.06 1.26 0 1.86-.24 1.08-.12 1.56-.06.24-.24.6-.24.3 0 .9.24-1.26-1.92-2.46-3.3-.3-.36-.6-.6t-.54-.48q-.12-.06-.69-.51t-.87-1.05q-.42-.66-1.08-1.26-.66-.6-1.32-1.14l-1.44-1.26q-.48-.54-2.1-1.62l-1.14-.72q-.48-1.32-2.4-2.58-.18-.36-.72-.84t-.66-.78q.24-.12.63-.21t.63-.15q.66.06 1.23-.27t1.08-.72q.51-.39.75-.57.54-.48 1.74-1.2l1.44-1.02q.12-.48.6-.69.48-.21.6-.27 0-.72.06-1.14-.72-.84-1.62-1.02-.66.06-1.23-.24t-.75-.36q-.42-.06-.81-.12-.39-.06-.81-.12.24.24.48.45.24.21.42.39-.24.66-.87 1.26t-.93.9q-.96 1.32-3.12 3.6-.48.48-.9.36-1.74-1.02-3.24-3.24.3-.9.42-2.82.06-.24.15-1.2t.39-1.74q.12-.42.39-.93t.39-.87q.06-.24.18-.48t.18-.54q-.18-.12-.78-.51-.6-.39-1.2-.6-.6-.21-1.14-.21-.48 0-1.47.03t-1.71-.03zm-5.04 13.14q-.36.54-.9.78-.6.96-.96 1.38l-2.28 1.32q-3.36 1.8-4.8 3-.18.06-1.38.84-2.04 1.32-3.18 1.68-.18-.48-.3-1.32-.3.18-.66.78-1.02.72-1.74 1.08V38l.66.42q.06.48.09 1.65t.45 2.01q.12.18.36.48t.42.54q1.32-.78 2.76-2.22 1.44-1.32 2.22-1.86 1.86-1.44 2.22-1.62l.6-.42q.3-.42.72-.48.9-.54 1.98-1.5.3-.54.81-.87.51-.33 1.41-.69-.12.72-.72 2.04-.06 1.14-.96 2.7-.3.48-.6 1.14-.54 1.5-1.98 4.38-.6 1.08-.84 1.62-.3.36-.87 1.08-.57.72-.93 1.38-.36.66-.36 1.32.66-.06 1.23-.36t1.05-.63q.48-.33.6-.45 1.08-1.02 1.95-2.25.87-1.23 2.07-3.15.6-1.08.96-1.62 1.38-3.06 2.76-5.22.78-1.98 2.22-3.78.66-.9.66-2.28l-.06-.72q-.48 0-.84-.06t-.6-.12q-1.14-.3-1.98-.24-.24-.12-.45-.24-.21-.12-.33-.18-.06.06-.18.12t-.3.12zm69 2.4q.24-.06 1.2-.33t1.56-.75q.6-.48.6-1.14 0-.3-.06-.48v-.12q0-.24-.09-.54-.09-.3-.03-.54-.06-.6-.39-.99t-.87-.27q-.42.24-.96.24-.96 0-2.4-.96l-.12.42-.3.3q-.06-.84.24-1.8.3-.96.36-1.2.36-.9.48-1.62.06-.24.36-1.35t.3-2.13l-.06-.72q-.06-.06-.06-.24 0-.36.3-.48.42.42 1.02.72.6.3 1.2.54.18.06.81.33.63.27 1.11.69-.06.24-.06.6t-.12.57q-.12.21-.48.09-.06.48-.33.72t-.81.54q-.78.36-1.14.96-.3.78-1.14 1.5-.72.72-.96 1.14-.3 0-.42-.06.06.54.6.54.3 0 .96-.24.66-.24.9-.24 1.44-.42 1.86-.6 1.56-.48 3.24-.9 1.68-.42 3.12-.48.36 0 .51.12.15.12-.03.36.24.12 1.35.63t2.19.69q1.38.24 1.38 1.14-.54.78-.54 1.86l.06 1.02q.12 4.02-1.98 7.8l-.36-.12q-.24.06-.87.45t-1.17.33q-.6-.18-.75-.6-.15-.42-.18-1.11-.03-.69-.15-.93-.42.78-1.23 1.2-.81.42-2.07.78-1.56.36-2.04.72-.54-.06-1.5.3-.84.36-1.38.36-.48 0-.78-.18-1.08-.84-1.47-2.07-.39-1.23-.54-2.37-.15-1.14-.21-1.5-.18-.72-.18-1.5l.06-1.32q.06-.42.06-1.32 0-.9-.12-1.32.78.36 1.11 1.02.33.66.63 1.86.36 1.44.78 1.98zm-15.48-6.24q-.3 0-1.02.24t-1.14.24q-.36 0-.84-.18.6-.66 1.2-1.68.72-1.2 1.32-1.8l.18.12q.3-.54 1.02-1.14.84-.84 1.08-1.38l-.06-.18v-.12q.42.12 1.11.33.69.21 1.17.27.18.3.6.48t.9.24q.78.12 1.23.36.45.24.39.9-.48.78-1.8 1.38-.66.06-1.5.66-.84.66-1.5.72-.24.06-.87.36t-.99.3l-.48-.12zm22.2.6q-.6.12-1.32.36l-1.08.36q.42 0 1.02.36 0 .36.42 1.08.42.72.42 1.32.42.06 1.17-.12t1.05-.18q.48 0 .78.24l-.18.3q-.12.12-.18.42l.3.3q-.12.42-.42.57-.3.15-.96.33-.66.18-1.05.42t-.51.78q-.18.48-.24 1.17t-.12 1.05q.42 0 .69-.06.27-.06.51-.12t.6-.12q.36-.06.9-.06.36 0 .54.06l.54-1.98q.3-1.2.42-1.56 0-.42.06-.75t.12-.57q.24-1.32.24-1.98 0-1.8-1.44-2.4-.66.12-2.28.78zm-33.84 10.56q0-.66-1.02-.66l.3-.12.24-.18-.24-.18q.06-.24.36-.24.18 0 .54.12 2.52-1.2 3.78-1.86 3.12-1.56 5.07-2.43 1.95-.87 4.05-1.53.12-.18.12-.54 0-.3-.24-.9-.24-.6-.06-.9.48.3 1.32.45.84.15 1.26.27.78.54 1.74.54.72 0 1.14-.12.9 0 1.47.15t.75.81q-.06.06-.3.27-.24.21 0 .39-.72.42-1.74.6-.18.06-.84.27-.66.21-1.14.63.06.66.51.87.45.21 1.05.3.6.09.96.15l2.04.6q.78.06 1.14.57.36.51.66 1.47.24.84.48 1.2l.6 1.98q.06.12.06.36t-.33.3q-.33.06-.51.12-.06-.18-.21-.51t-.33-.51l-.12.24q-.9-.36-1.62-1.02-.72-.66-1.5-1.68-.84-1.02-1.47-1.62-.63-.6-1.41-.9.06.18.06.54 0 .6-.48 1.56-.42 1.14-.42 1.5 0 .24.12.6-.36 1.08-.42 1.8-.12.12-.42.12-.66 0-1.08-.78-.06-.24-.12-.57-.06-.33-.06-.75 0-.18.12-.66-.18-1.14-.24-1.44-.24-2.16-.54-3.06-6.48 3.12-11.4 4.02-.24 0-.54.21-.3.21-.6.27-.3.06-.54-.12zm30.96-1.74q-.12-.3-.18-.96-.06-.66-.3-1.02-.42-.24-.9-.24-.36 0-.72.06t-.66.06q-.66 0-1.02-.3.12.42.24 1.08.12.66.24 1.14l.66 1.98q.24-.12.9-.33.66-.21 1.11-.54.45-.33.63-.93zm-29.64 8.94q4.14-3.72 6.36-8.04 0-.06-.06-.06t-.12-.06l.36-.18q.3 0 .48-.12.18 0 .48.15t.48-.03l.42.06.72-.06q.42 0 .72.18l.12.48q0 .48-.39 1.11-.39.63-.45.87-.84 1.02-2.64 2.28-1.62 1.2-1.98 1.5-.36.18-1.14.84-.9.66-1.47 1.02t-1.17.36q-.6 0-.96-.3h.24zm47.28 1.26l1.08.96q2.34 2.22 3.66 3.84 1.32 1.62 1.86 3.54-.3.12-.78.45-.48.33-.9.33-.24.18-.57.6-.33.42-.75.48-1.5.42-4.62.78-.42 0-1.26.12-1.74.24-3.9.24l-1.98-.06q-1.92-.12-3.78-1.05-1.86-.93-2.97-2.52-1.11-1.59-.93-3.57-.12-.24-.12-.72t.12-1.11q.12-.63.06-.99l.06-2.4q.12-2.16.06-3.18-.06-.24-.15-.51t-.39-.27q-.6-.06-1.2-.54-.6-.48-.9-.6.48-.18.9-.18.48 0 1.14.12.66.12.96.06l.48-.12q.3 0 .69.12.39.12.63.06.54 0 .81.33t.21.75q-.12.84-.24 1.2-.24 1.44-.24 1.98 0 .3.12 1.02-.66.72-.66 1.74 0 .36.12.96.9-1.02 1.56-2.22.66-1.2 1.5-3.12l.72-1.5q.06-.12.3-.66t.24-1.02q0-.42-.18-.84.54.12 1.5.24l.06-.12q.24 0 .66.36.42.36.66.3.54.12 1.02.39t.48.69q0 .24-.18.54.24 0 .3-.06l.06.12-1.68 2.58q1.44.66 2.4 2.01.96 1.35.96 2.85 0 .96-.42 1.8-.54 0-.9-.33t-.18-.81q-.36-.06-.54-.6-.18-.54-.48-.66l.06.24.03.03.09.09q-.9.06-1.95.42-1.05.36-1.29.42-.84.3-1.71.57-.87.27-1.65.27-.84 0-1.5-.24-.12.6-.12.9 0 1.32.99 2.25.99.93 2.46 1.32t2.79.27l2.76-.36q1.98-.18 3.48-.45t2.82-.81q-.9-2.28-1.32-3.72-.42-1.44-.42-3zm-19.92-4.02q.36.12.87.12h.69q-.06 1.8-.87 3.6t-2.19 3.96q-.12.42-.42.66-.3.24-.78.39-.48.15-.84.39-.18.06-.3.36-.12 0-.24-.06t-.3-.06q-.12.12-.48.24t-.54.36q.36.3.96.81t.96 1.02q.36.51.48 1.05.18.18.18.48 0 .36-.27.69-.27.33-.57.27-.06 0-.06.24-.06 0-.06.12-1.38-.12-2.55-.72t-2.79-1.74q-1.32-.96-2.13-1.44-.81-.48-1.77-.78l-1.38 1.14q-1.68 1.44-2.34 2.16-.66.48-2.1.48-.18 0-.75.06-.57.06-1.05.24-.3.06-.9.06-1.98 0-4.2-1.2 3.48-.36 8.22-2.34 1.02-.36 1.62-1.8-.42-.06-1.26-.54-1.08-.6-1.62-.6t-.9.42q-.78-.06-.78-.96 0-.24.12-.6-1.2.18-3.18.78-2.7.9-4.44.9-.6 0-.9-.06-1.08 0-1.86-.21t-1.14-.93l.12-.24q.36.18.72.18.66 0 1.62-.54 1.02-.42 1.32-.48l2.76-1.08q.9-.36 2.7-.84 2.28-.54 3.66-1.2.18-.84.66-1.68.48-1.02.66-1.65.18-.63.06-1.29.18.06 1.32.36.78.12 1.32.33.54.21.84.69-.48.36-.69.81-.21.45-.51 1.29.48-.12 1.05-.21.57-.09 1.02-.24.45-.15.75-.51-.06-.12-.21-.63t-.57-.69q.9-.06 1.98.12l1.44.24q.36.9 1.38.9.36 0 1.08-.12.72-.12 1.02-.12.66 0 .96.3.6 0 1.38.9-.48 1.08-.96 1.71-.48.63-1.26.63-.42 0-.84-.24-.3-.06-.9-.06-2.1 0-2.64 1.44-.18.48-.42 1.08-.24.6-.48 1.38 1.14.18 2.19.57 1.05.39 2.01.81.96.42 1.38.6.12-.18.27-.6.15-.42.33-.48v.12q0 .24.42.42 2.46-3.54 2.94-6.54.18-.48.18-.84 0-.54-.24-1.08t-.3-.72q.36.12.81.03.45-.09.75-.09.48 0 .78.3zm11.82 3.9q-.6.9-.9 1.44.3.06.9.06 1.08 0 2.22-.42-.3-.36-.6-1.08-.36-1.02-.84-1.44-.12.24-.33.63-.21.39-.45.81zm-39.42-1.14q-.06 0-.06-.06l.06.06zm13.92 3q.12-.6.42-1.14h-.3l-1.2.3q-1.5.3-2.37.66-.87.36-1.41 1.26h1.44q.18-.06.48-.06.42 0 .81.06.39.06.81.06 1.08 0 1.32-1.14zm10.02 8.88h-.12.12zm61.38-40.02q.36.36.87.51.51.15 1.05.21.84.12 1.23.24t.81.54q-.66 1.02-1.77 1.95-1.11.93-1.35 1.11-1.5 1.2-1.8 1.5-2.34 1.26-4.2 1.8l.36-.36.36-.18h-.12q3.36-4.26 4.56-7.32zm13.08 4.14q2.58.48 3.42 1.8.3.18 1.11.51t1.29.63q.48.3.66.84-.42.54-.63 1.14-.21.6-.39 1.62-.24 1.14-.45 1.74-.21.6-.69 1.08-.24.36-.39.66l-.27.54q-.78 1.5-1.44 2.31-.66.81-1.74 1.23l-.36-.3q-.12.12-.24.12t-.3-.21q-.18-.21-.24-.27-.42-.18-.84-.18-.48 0-.9.09-.42.09-.9.09-1.62-.12-2.85.36t-1.29 1.92q-.24 1.14-1.02 2.4-.42.42-.66 1.38-.06.12-.15.51t-.33.69q1.26-.06 2.88-.48l1.74-.36q1.2 0 1.2-1.38l-.06-1.38q-.24-2.04-1.38-2.64 1.2.06 1.98.21t1.56.57q.54.48.54 1.14 0 .36-.12.81-.12.45-.18.63-.36 1.2-.24 1.62 1.74-.06 5.1-.06h2.1l4.68.96q.54.12.81.45t.57.93q.54.96.9 1.2-.54.84-1.56.84-.66 0-1.38-.3-.18-.06-.48-.06t-.6.06-.6.06q-.42 0-.84-.24-.84-.06-1.89-.24-1.05-.18-1.41-.24-2.4-.48-3.6-.54-.48-.12-.72-.12-.6 0-.96.36t-.18 1.14q.06.96.03 1.65t-.03 1.17q-.06.6-.06 1.86 0 1.14.06 1.68.06.24.06.66 0 .54-.09 1.05t-.09.99q0 .24.12.84-.06.24-.06.78l.06 1.26q0 .84-.3 1.5.12.18.12.6 0 .3-.06.78-.06.48 0 .78-.06.42-.18 1.59-.12 1.17-.48 1.95t-1.2.9q-.6-4.08-.6-7.38 0-2.46.24-4.38-.06-.84-.06-2.46 0-3.3.36-6.42.18-1.14-1.38-1.14-.84 0-1.2.18-2.46.12-4.08.48-1.56.72-2.34 1.14-1.74.96-2.91 1.44-1.17.48-2.55.6-1.26.12-2.28-.42-1.02-.54-2.34-1.62.48-.06 1.44-.06h.84q.66 0 1.23-.09t1.05-.33q.54-.12 1.89-.33 1.35-.21 2.31-.69t1.56-1.38q2.58-3 3-5.94-.24-.18-.54-.18-.24 0-.63.12t-.69.12h-.6q-1.02 0-1.5.24.12.42.12 1.32v.96q0 .6.06.9-.36.12-.48.12-.72 0-1.32-.72-.72-1.92-1.05-4.14-.33-2.22-.39-2.58.06-.66-.06-1.41-.12-.75-.18-.99-.24-1.44-.24-2.16 0-.36.12-1.08 1.5.84 2.01 2.25.51 1.41.81 3.75.06.36.21 1.38t.45 1.8l2.16-.6 1.92-.66q0-.48.24-1.32.24-1.08.24-1.5 0-.66-.24-1.14-.3.06-.96.06-1.32 0-2.16-.84 4.38-.12 4.2-2.82.12-.66.09-1.44-.03-.78-.03-1.08l.12-.06q.78.6 1.23 1.14.45.54.51 1.2.18.9.9.9.24 0 .99-.18t1.11-.12q.54.18.54.66 0 .3-.3.66-.3.36-.66.48-.36 0-.93.24-.57.24-.87.24-.54.24-.69.72-.15.48-.18 1.32-.03.84-.15 1.14-.06.66.36.66.3 0 1.08-.3t.96-.3q.48 0 1.44-.12.84-.18 1.56-.18.54 0 .84.06.06-1.02.42-2.7.36-1.5.42-2.1 0-.48.06-.87t.12-.69q.24-1.2.24-1.74 0-1.56-1.2-2.16-2.82 1.5-6.06 1.5-2.28 0-4.56-.72 3.12-.84 5.55-1.29 2.43-.45 4.77-.39l.3-.06.18-.18zm-23.82.54q1.2.12 2.4.75t1.98 1.59l-.18.24q-.9-.12-2.13.18t-1.83.42q-.54 0-1.62-.24t-1.62-.24q-.42 0-.66.06-.84.06-1.98-.72 1.32-.24 3.42-1.2 1.92-.78 2.22-.84zm-3.78 4.14q1.14.18 1.14 1.44 0 1.14-.9 2.82-.3.6-.78 1.92-.42 1.26-.84 2.04t-1.2 1.38q.18.42.75.93.57.51.69.87.18.42.51.72t.69.3q.42 0 .72-.3.96 0 1.62-.51.66-.51.84-1.35.06-.3.42-1.32.42-1.26.42-1.74 0-.18-.12-.66-.06-.12-.24-.12-.12 0-.36.06t-.36 0q-.24.06-.66.06-.9 0-2.7-.72 1.08-.06 2.88-.66 1.8-.6 2.64-.6 1.08.96 2.64 1.08.72.12 1.26.54.54.42.12.96-.24.84-.69 1.59-.45.75-.99 1.47t-.84 1.2q.36.24.36.6 0 .48-.66.84t-1.2.24q-.72.06-1.26.03t-.96-.03q-.48-.06-1.56-.06-1.14 0-1.74.12-.06.3.18.96.24.66.24.96 0 .54-.36.84-1.14-.12-1.8-.96-.66-.84-1.32-2.34-.06-.24-.6-1.26-1.14.78-3.18 2.58-1.44 1.32-2.46 2.13-1.02.81-2.22 1.35-.18.24-.48.24-.18 0-.66-.18-.48-.18-.84-.06 4.14-5.4 10.02-12 .9-.54 1.41-1.29.51-.75 1.29-2.19.72-1.32 1.14-1.92zm75.6-2.88q-.42.24-1.2 1.14-.6.66-1.08 1.05-.48.39-1.08.45-.06-1.08.3-2.1t1.2-2.58q.72-1.44 1.02-2.16 0-.3.48-1.02t.48-1.08q0-.3-.24-.54-.36-.36-.42-.48-.24-.54-.12-1.14.18 0 .24-.18.06 0 .09-.03t.09-.03q.66.06 1.5.48t1.2.54q.18.06.75.21.57.15.96.42t.51.69q-.42.36-.84 1.17-.42.81-.66 1.17 3.3-1.26 5.7-2.46.72-.24 1.32-.24 1.26 0 1.5.96-1.44 1.32-3.54 1.98-2.1.66-4.32.66l-1.14-.06q-.24.48-.63 1.08-.39.6-.57 1.02-.42.48-.78.81-.36.33-.72.27zm-8.94-2.04q-.12.42-.42.66-.3.24-.9.54-.96.36-1.32.9-.18.18-.51.45t-.51.57q-.48.42-1.02 1.02-.42.36-1.02.72-.6.36-1.08.36-.3 0-.48-.06-.42.54-1.02.9-.6.36-1.2.66-.84.3-1.32.66-.42.42-.9.42-.24 0-.75-.21t-.75-.21q.24-.78.78-1.38.54-.6 1.17-1.14.63-.54.99-.84.96-1.02 3.06-3h.03q.03 0 .03.06.36-.54 1.02-.9.3-.24.57-.51.27-.27.54-.48.27-.21.63-.21.12-.78 1.44-1.08 2.22.12 3.6 1.2.48-.24 1.44-.75t1.86-.57q.72 0 .72.66 0 .54-.6.9-1.2.78-2.76.78-.9 0-1.32-.12zm14.52 2.22q-.12-.06-.54-.15-.42-.09-.72-.39 0-.12.06-.33.06-.21-.18-.27v-.12q0-.24.24-.33.24-.09.36-.15 1.98.12 3.48.6.54-.06.87.48.33.54.33 1.2 0 .66-.3.96-.3.3-.84.06l-.12.24h-.24q-.12-.42-.42-.63-.3-.21-.84-.45-.84-.36-1.14-.72zm-15.24.42q.3.18.84.12t.78 0q.78.12 1.5.78t.72 1.38q0 .6-.54 1.08-1.14.18-2.31-.66-1.17-.84-1.17-1.98 0-.36.18-.72zm23.82 36.3q-.06.24-.06.66v.9q0 .84-.36 1.26 0 .24-.27.84t-.15.96q-.12.42-.57.75-.45.33-.63.57-.78-.18-1.17-.69-.39-.51-.87-1.47-.6-1.32-1.2-1.8-.48-.78-1.44-2.76-1.02-2.04-1.26-2.46 1.02.54 2.28 2.1.36.48 1.2 1.32-.06-1.44-.18-2.49-.12-1.05-.18-1.71-.48-5.28-.42-8.04-.06-.6.06-1.86.12-.96.12-1.44 0-1.02-.36-1.98-.06-1.38.06-4.02.12-1.92.12-2.76-.12-1.14-.18-2.55t-.06-1.95l-.12-.06v-.12q0-.48-.6-.6-.36 0-.96.09t-.9.15l-1.92.24q-.54-.06-1.65-.03-1.11.03-1.89-.24-.78-.27-1.14-.99l.12-.06q0-.12.09-.15l.09-.03q-.24-.06-.24-.18.06 0 .3-.06t.3-.3q3.06-.3 7.68-1.86l.6.18-.18.54q.42.36.99.51.57.15.69.21.96.24 1.5.54 1.02.9 1.02 1.86l-.12.48q-.12.24-.12.78 0 .3.06.63t.06.69q0 .18-.12.66 0 .84.18 1.56.12.96.12 1.44.06 1.2.06 3.42l-.06 1.32q0 .3.12 1.02 0 .48.24 1.32.24.84.24 1.32 0 .36-.06.54-.12.6-.12.9l.06.54q-.06.24-.06.66 0 .12.18 1.38.24 1.14.12 1.62.18.6.3 1.74.12.96.24 1.38v.12q0 .12.06.33.06.21-.12.33.36.78.36 2.4 0 1.62.12 2.4zm-22.5-26.46q-.36-.18-.78-.18h-.66q-.48 0-.72-.18-.06-.18-.3-.69t-.24-.93q0-.42.12-.6.18 0 .24-.06l.36.06q.18-.36.48-.36.36 0 .78.42.36.12.66.12.6 0 2.16-.6l1.26-.42q.12.24.36.36-.06.54-.48.93t-1.14.81l-1.02.72-.66.36q-.06.24-.42.24zm10.98 5.4q.36 1.5.36 4.62-.36.96-.36 1.98 0 .42.06.87t.06.93q0 1.02-.51 1.8t-1.41.6q-.12.18-.66.75-.54.57-1.08.93h-.24q-.72 0-.6-.66-.06-.48.09-1.29t.15-1.17q0-.42-.06-.6-.3.18-1.08.24t-1.2.42l-1.14.54q-.3.12-.72.3t-.6.3q-.18 0-.9.06t-1.14.3q-.9.18-1.08.18-.84 0-1.08-.66.06 0 .21.03t.21-.03h-.06q-.3 0-.42-.42t.18-.6l-.18-.18q.06.06.24.06.12 0 .18.06.24-.36.78-.36h.6q.54 0 .84-.3-1.62-2.94-1.44-5.34.06-.24.12-.63t.06-.57q.12-1.38.45-2.1.33-.72 1.29-.54 0-.12.12-.12-.12 1.2-.12 3.66.3 0 .75-.18t.63-.24q.18-.06.69-.24t.93-.18q.78 0 1.26.66-.42.12-1.38.51t-1.68.39q-.72 0-1.2-.42 0 .36.18.87t.24.75q.48 1.08.48 1.68 0 .54-.36 1.02.6.54 1.62.54.66 0 1.5-.18t1.26-.24l.24.06q.18 0 .48-.03t.54.09q-.06-.54-.06-1.74l.06-2.7q.12-1.92.12-2.82 0-1.26-.06-1.86 0-.18.03-.42t-.09-.36q0-.36-.3-.36t-1.02.36q-.36 0-.78.06-.42.06-.9.06-1.14 0-1.68-.84.18-.3.48-.45.3-.15.96-.24.66-.09.96-.27l2.52-.48q.36.06.63.42t.51.57q.24.21.66.21 1.32.48 1.68 1.44v.72q.18.54.18.78zm-17.22-2.7q.54.3.54 1.2 0 .12-.18 1.56.06.3.12.75t.06 1.11q0 .36-.12 1.08 0 .78-.06 1.2l-.06 1.2.06.84q-.12 1.02-.48 3.54-.36 2.04-.54 4.26-.18.72-.18 2.16 0 .3-.03.78-.03.48-.15 1.14-.06.48-.39.75t-.75.27q-.42 0-.72-.24-.48-.66-.69-1.44-.21-.78-.39-1.98-.18-.18-.39-.54-.21-.36-.51-.36-.06-.18-.06-.48 0-.48.24-1.23t.3-1.29q1.86-6.36 3.96-14.1v.06q0 .18.12.24l.06-.3q.12-.18.24-.18zm-.42.18v-.12.12z"/></svg>