<svg viewBox="0 0 603 80" xmlns="http://www.w3.org/2000/svg"><path d="M51.31 22.21h1.05l1.09.97v1.47q-16.44 3.92-21.92 3.92l-1.61-1.96 1.09-.97.52.5q9.5-1 19.78-3.93zM18.7 38.36l35.8-7.82h.53l2.14 1.96-1.58 1.93h-4.28q-9.08 0-9.08 3.93l-10.7 11.72h.53q14.97-3.9 14.97-7.83h2.14q10.96 9.44 13.89 14.18 0 2.7-2.14 3.93L49.7 47.64l-2.14-1.46q-10.69 7.44-21.36 8.79l-1.61-1.93v-.5q11.89-10.87 13.89-15.65h-.53q-15.62 4.4-19.78 4.4-2.4-.97-2.66-1.97v-.96l1.05-1h1.09l1.05 1zm77.29-19.4h1.11q5.62 0 6.56 3.67l-2.17 1.23q-1.67-2.03-4.95-2.03l-1.11-2.46.56-.41zm-9.88 3.28l2.2-.82q2.75 0 2.75 3.67v4.1l12.07-2.46 2.73 2.05v.41q-2.73 1.2-8.76 8.55l-2.75 2.05v.41l1.64-.41 18.66-.82.56.41v1.64q-6.04 3.78-6.04 13.48l-2.2 1.23q-5.77 0-11.54-6.12v-.41h1.11l7.12 3.66q2.35 0 3.31-8.17l.56-1.23.53-.42.55-1.2h-.55l-.53-.41-3.87.41-2.72-.41-9.35.82-1.08 6.54.55 1.2-.55 2.46.55.41v.41q-1.52 6.94-3.31 6.94l-1.08-1.23V47.97l.53-1.64-.53-1.23.53-2.44-18.66 2.85-1.65-1.23v-.41q0-.71 19.78-3.26l1.08-6.94L85 34.9q-4.39 0-4.39-3.69 0-.82 1.67-.82l3.28.82 1.64-1.23v-3.66l-1.09-4.08zm5.48 10.2v3.69l-.53 3.66v.41h.53l7.15-9.4-.56-.41q-6.59 1.23-6.59 2.05zm53.79-11.51l1.47-1.23h1.49q1.35 0 2.46 11.54 1.73 0 4.45-2.05l1.5 1.23v.82q0 1.26-6.45 2.49v5.36l9.91-2.49h.96l1.5 1.26v.41l-1.5 1.23-2.46-.41q-7.41 2.05-7.41 4.13-1 0-4.45 5.77l-4.43 4.13h.5l9.37-1.67h.5l1 .85q-13.24 4.51-17.81 4.51l-1.97-2.05 9.38-5.77 3.95-6.18h-.96q-17.17 3.49-17.82 5.77-3.69 7-7.41 7l-1.96-1.64v-.41l1.96-1.67 1.5.44 7.91-10.75h.49v2.49q2.23-1.23 12.34-2.9l3.95-1.23V36.6q0-2.05-.96-2.05l-8.41 1.23-1-.82v-.82q0-.62 9.88-2.08v-7.82q0-1.35-1.47-2.9v-.41zm-20.74 8.67l.97-.82q5.44.61 5.44 2.05v1.67h-.99q-1-.85-3.96-.85l-1.46-1.64v-.41zm-3.96 9.08l.97-1.23q4.95 0 7.91 2.05v.82h-5.42q-2.61 0-3.46-1.64zm36.07 10.72l.96-.82q6.3 3.81 8.91 8.23v.44q0 2.14-1.49 2.46h-.47q-.76 0-3.96-5.36-1.37 0-3.95-3.31V49.4zm44.29-30.14h.5l1.47 1.26q0 4.45-16.12 10.37h-.99l-.47-.41v-.44q8.41-3.4 15.61-10.78zm-4.86 8.29l1.47-.41q2.31 0 2.93 3.75l2.43-1.26h1.46l1.47 1.26v.41q0 1.14-4.4 1.67l-.5 1.23 1 2.9-.5 2.49 14.65-2.05 1.96 1.23v.82q0 1.26-1.96 1.26l-3.4-.41q-10.75.61-10.75 2.08l-.5 3.31v3.31q0 11.22-2.93 11.22h-.96q-6.86-3.84-6.86-4.57l1.47-.41q2.57 1.23 4.89 1.23l.97-13.68-.47-.41q-16.38 2.49-22.97 6.21h-.5l-1.47-1.23v-.85q7.59-4.13 22.97-6.21 2.44 0 2.44-2.9l-.47-2.93q-6.86 2.49-10.29 2.49l-1.46-1.23v-.41l9.29-2.49 1.96-1.67-.97-3.75zm53.29-8.59h1.12q5.62 0 6.56 3.67l-2.17 1.23q-1.67-2.03-4.95-2.03l-1.11-2.46.55-.41zm-9.87 3.28l2.2-.82q2.75 0 2.75 3.67v4.1l12.07-2.46 2.73 2.05v.41q-2.73 1.2-8.76 8.55l-2.76 2.05v.41l1.64-.41 18.66-.82.56.41v1.64q-6.03 3.78-6.03 13.48l-2.2 1.23q-5.77 0-11.54-6.12v-.41h1.11l7.12 3.66q2.34 0 3.31-8.17l.56-1.23.52-.42.56-1.2h-.56l-.52-.41-3.87.41-2.73-.41-9.34.82-1.09 6.54.56 1.2-.56 2.46.56.41v.41q-1.52 6.94-3.31 6.94l-1.08-1.23V47.97l.52-1.64-.52-1.23.52-2.44-18.66 2.85-1.64-1.23v-.41q0-.71 19.78-3.26l1.08-6.94-2.75 1.23q-4.4 0-4.4-3.69 0-.82 1.67-.82l3.28.82 1.64-1.23v-3.66l-1.08-4.08zm5.48 10.2v3.69l-.53 3.66v.41h.53l7.15-9.4-.56-.41q-6.59 1.23-6.59 2.05zm49.13-11.87l1.35-.79q1.02 0 3.16 6.42 3.52-.7 5.42-2.4h.91l.91.79v2.02l-.44 1.99h.91l1.34-.79.44.41.47-.41h.91l1.79 1.61v.38q0 .82-4.95 1.2l-.47-.38-.91 1.2v.41l.47 2.79q-1.03 0-1.38 2.81l.91.82v.38q0 .82-6.33 2.02l-.44 3.2.44.41q8.58-1.5 8.58-2.41v-.41h.91l2.29 1.62v.79q0 .7-11.34 2.43-.88 6.79-2.26 6.79-1.11 0-1.34-1.58l.44-.41-.44-4.01-6.8 1.61h-.44l-1.35-1.2q0-1.03 8.15-2.4l.44-2.82-.44-.41h-.47l-2.73.41-1.34-1.2v-.41q0-.82 4.07-.82l.91-1.2v-.79h-.44l-4.08.41-.9-2.02q5.42-.5 5.42-1.61l.44-.38-.44-1.2-9.06 1.58-1.34-.38-.91.79h-.47l-1.35-1.2q0-1.2 13.57-3.23v-1.2l-.44-.38v-.41l-3.64.79q-1.34-1.49-1.34-2.78l.46-.41h.44l1.35.79 2.73-.38-1.35-6.45zm4.07 8.03l.88 1.61 1.38-.41v.41q2.25-.5 2.25-1.2V27.4h-.91q-3.28 0-3.6 1.2zm.44 4.84v.38l.91.82h1.35l.9-1.61v-.41l-.43-.39v-.41q-2.73.91-2.73 1.62zm3.63 3.6l-.9-.79q0 .79-2.29.79v.79l-.44.41.44.41 3.19-.82v-.79zm-25.34 2.4l7.68-2.81h.47l.9.82v.38q-3.16 2.23-3.16 4.42.88 1.62.88 4.43v.79l-.44.41q0 1.2 6.8 3.19 9.49 5.01 21.71 6.83l9.96-.79.44.38v.41q-4.98 2.81-10.87 2.81-18.31-3.22-22.62-6.83l-5.42-2.4q-2.93 7.62-9.49 7.62h-.47v-1.2q4.75 0 7.24-6.42l-7.68-1.99-.91-1.23 1.35-.79h4.07l3.17.79.46-.38v-7.24l.44-.41v-.38h-.9l-3.61 1.99h-1.35l-.9-.79v-.82q0-.88 2.25-1.2v.41zm87.19-19.57l1.52-1.23h.53q5.04 2.49 5.04 5.39l.53 4.95-1.03 7.88 1.52 19.46q-.76 3.72-2.02 3.72h-1.52l-4.57-3.31v-.82h.53l3.01 1.23.53-.41v-8.7l-.53-2.9h.53l-.53-.42v-3.72q0-8.7 1.03-13.65-1.76-6.62-4.57-6.62v-.85zm-18.72 7.06H348v.41l1.52-.41q2.02.41 2.02 1.64-2.02 3.64-2.52 7.88l1.53 13.25-.5 1.23.5 4.13-.5.44H348q-3.17-4.78-6.56-6.21v-.44l.49-.41 5.07 2.08.5-1.23q0-4.16-7.09-5.4-1.14 3.2-7.09 7.86 0 2.49-1 2.49h-1.02l-1.03-.82 1.53-19.46-.5-1.67-2.52.41-1.03-.82v-.41q0-.93 17.73-4.54zm-11.66 4.95l.53 4.13v2.08l-.53.41v.41l.53.41.49-.41h.5l4.07.85 1.5-5.8-.5-1.26.5-.41h.53l1.52 1.26v.41l-1.03 7.03 4.05 2.08h.52v-.41l-.52-4.98 1.02-8.29-.5-.41q-5.33.41-12.68 2.9zm23.29.41l1.52-.82h.53q1.49 0 1.49 4.13l-.49 8.7.49 2.91-.49.41h-1l-2.55-2.08 1.03-10.35-.53-2.9zm-21.77 9.52l-1.52.41v5.81q4.07-2.9 4.07-5.81h-.53l-2.02-.41zm65.83-22.73l1.29-.03q1.7.5 1.79 3.93l-.76 3.54q6.68-2.02 8.02-3.28l.85-.03 1.32 1.29.03.91q.03 1.08-8.91 2.84-2.66.06-4.51 6.74h.41q6.21-3.25 8.91-3.31l3.4-.09 1.32 1.29-2.93 2.72-.36 3.11.44.41.03 1.32-.41.03 1.12 11.45-.74 3.99 6.42 1.17 5.13-.59.88 1.32v.44q.03 1-8.91 1.96l-25.37-6.44-2.55.06-1.7.49-1.29-.41v.44q-.79 2-1.64 2.23l-.44.03-1.29-1.29q.24-2.67.76-2.67l-.44-.44.39-2.22-.18-7.5.41-.44-.44-.44q.35-7.94 1.52-7.97h.41l1.35 1.73-.32 4.86.06 1.76 1.73.85 1.26-.03.73-4.89-1.35-3.49-.12-3.98.44-.44-.03-.44h-.41l-7.2 2.84-1.7.03q-2.17-1.06-2.23-3.49l.82-.91 1.76 1.73q2.67-.06 14.41-5.18l1.29 1.29q-5.01 4.3-4.95 6.74l1.82 4.8-.32 4.42h.44q3.92-.99 5.85-5.01l2.41-6.68-2.58-.82-.03-1.31.85-.03q4.25-.09 4.13-5.83l-.03-.44-.47-2.2.41-.44zm-11.19 13.51l1.26-.03 3.93 2.55-1.26 1.34q-4.28-.32-4.34-3.42l.41-.44zm17.99 2.22l-5.95 1.47.09 3.07 4.22-1.43 2.17.85-.12-3.99-.41.03zM393.7 45.3l.47 2.2-.41.44.03.44.47 1.75.03 1.32 4.71 1.2v-.44l.21-8.37-.47-2.2.32-3.55v-.88q-4.36 5.51-5.36 8.09zm14.8-6.09h-.41q.03 1.75-4.66 1.87-1.7 1.14-1.61 4.02l5.94-1.47.44.44v.88l-1.23 1.35-.44-.44-.44.03-4.21 1.84.11 5.31q1.23 2.16 6.04 2.05h.44l-3.93-3.43.41-.47h.44l3.87 1.23-.03-.44-.44-.44v-.44l.41-.44-.47-2.2-.23-9.25zm-20.78 6.24l-3.01-1.26-.41.44-.44.03.44.41-.33 4.42.06 1.76.41-.44 3.84-.09 2.99.38-.03-1.79-.53-4.39 1.23-1.35h-.41q-2.19 1.82-3.81 1.88zm77.49-19.16q6.83 2.43 6.83 3.42v.59q0 1.29-4.39 1.7l-4.37-1.14-3.4.58-.47-.58v-1.15q0-2.28 5.8-3.42zm-16.02 8.58h.5l3.4 1.73 2.43-1.14.96 1.7v.58l-2.9 2.29h-2.93q-1.2 0-1.93-4.57l.47-.59zm-18.46 1.73h1l.47 2.28-1.47 12.05 1 2.28q-1 2.58-1.96 2.84h-.47q-1.23 0-1.47-2.28 1.09-17.17 2.9-17.17zm6.33 2.28l1.47-1.72h.46q1.12 0 6.33 11.45 3.28 4.02 16.5 4.02h.99l2.4-.56v.56l.5-.56h3.4v-.59q-6.3-7.88-7.29-12.6l.49-.58h.5q4.1 7.88 11.16 12.04l.97 2.87q-2.55 2.84-4.36 2.84l-13.13.59q-15.41 0-18.92-14.88l-1.47-2.29v-.59zm72.16-20.56h1.79q1.26 0 1.81 4.04v6.04h1.35v-.79q1.23 0 4.98-6.07h.44l1.35 1.23v1.2q-2.26 3.34-7.21 6.86l-.47 3.22q2.26.82 6.77.82 4.98-1.2 4.98-2.02V28.4l.91-.79q1.23 1.2 2.69 6.85 0 1.41-7.2 2.84l-1.82.38h-2.26l-1.81-.38-1.79.38-2.72-.79-3.14 4.02h.44l13.1-1.62.88 1.24v1.61q-1.35 3.92-2.7 15.32l.44.41v.41l-1.35 1.61h-.91l-5.86-4.04q-6.09.5-8.11 2.43h-.44q-1.93 0-3.16-14.94l-.47-1.61.47-.41h1.78q.91 0 .91 1.23l.47.38h.44l6.33-9.26V27.2h-.47q-3.37 1.4-7.68 5.24v.82h.47l3.17-2.43h.43l.91.82-5.89 8.06h-.87l-1.82-1.62.91-8.87q0-1.32-1.82-3.23v-.82q0-.9 2.26-1.2l2.72 4.43 7.21-2.82v-4.45l-.91-2.4.47-.41zm-20.77 3.22l.91-.79h1.34q2.73.79 2.73 8.88l.44.41h.44l1.81-1.23 1.35 1.23v.79q-4.51 2.43-4.51 6.06 4.98 1.12 4.98 2.02 0 .91-2.26 1.21l-3.63-.41v.41l.47 6.85-.91 4.45.44.38v1.24q0 2.1-1.35 2.4h-.91l-1.78-1.61q1.35-3.52 1.35-8.06v-2.43q-6.77 6.06-7.68 6.06l-.44-.41v-.41q8.55-8.17 8.55-11.69v-2.43h-.43l-8.59 2.43q-2.69-.41-2.69-1.23.11-.58 10.37-3.22 0-.79 1.81-.79 0-8.18-1.81-9.7v-.41zm14.91 25.43v.82h.88l7.23-2.02h.91l.88.79v.82q0 .79-4.95 1.2l-4.51 2.02.91 4.05 8.55-1.61 1.82 1.2-.44 1.61.44.41h1.35l2.25-14.12-2.69-.82q-12.63 1.61-12.63 5.65zm59.09-26.92l1.79-1q2.4.67 2.4 1.99 0 3.17-1.79 6.3h.59l11.31-1.99 1.79 1q0 1.08-13.1 2.66l-.59.32v.36q2.82 0 6.54 1.64 2.99.08 2.99.99v.35q0 1-2.38 1-2.84 0-8.35-2.99h-.58q-2.99 2.64-5.95 2.64h-.62v-.65q2.38-1.49 2.38-2.34-1.17 0-1.17-1L547.57 31l4.19 2.67v.32l-1.79 1q-1.35 0-6.56-3.31h-.59l-7.73 3.31-1.2-.68q10.72-7.47 10.72-8.96l-1.79-2.64.59-.35h1.79l2.98 1.99v.68q0 1.67-2.98 4.3h.58l11.34-1.99.59 1.35q4.74 0 4.74-3.98 1.2 0 1.2-3.67l-1.2-.67v-.32zm16.09 14.94l3.57.67q-.88 4.05-2.37 4.63l.58.35-.58 2.32v1.99l1.17 10.63v2.99l-2.37 1.32q-.74-1.17-8.33-3.31l-.61-.35v-.65l7.15 1-1.2-12.63 1.2-5.3-.59-.35-.61.35-7.12-.67-7.15.67q-2.99-.44-2.99-1l5.95-1.34.61.35 3.58-.35 5.95.35q0-1.17 4.16-1.67zm-35.72.99l2.38-.67q8.93 1.35 8.93 1.99v.35q0 1-2.37 1-6.86 0-8.94-2.67zm24.41 4.31l1.78 1.67q-1.78 2.73-1.78 10.64l.58 2.31-1.78.67h-1.18q-1.2 0-2.98-4.65h-.59q-7.74.67-7.74 2.66h-.61l-2.37-1.35.58-3.98-.58-1 .58-1.99v-.99l-1.17-1v-.65l1.17-.67 2.99.32q0-.99 13.1-1.99zm-26.78 1l1.17-.65h.59q2.11 0 2.99 3.31l-2.38 10.29.59 2.34-.59.32h-1.78l-1.79-.99v-.33l2.37-12.3-1.17-1.99zm24.4.99l-7.14.35h-1.79l-1.79 1 .59.32v1l-.59.32v.35h.59l7.73-.99 1.79.32.61-2.67zm-10.13 5.34v1.64h1.2v.35l5.95-.68 1.2.68.58-1.67v-1.99q-1.93.99-8.93 1.67zm8.35 2.31h-.62v.67h.62v-.67z"/></svg>