<svg viewBox="0 0 655 80" xmlns="http://www.w3.org/2000/svg"><path d="M49.97 23.68q0 .87-.5 1.14-.5.26-1.26.26-.12-.41-.35-.53-.23-.11-.23-.58 0-.53.38-.91t.9-.38q.41 0 .74.29.32.3.32.71zm-3.34-2.7l-.06.82q-.35.24-.56.35-.2.12-.44.41-.58-.17-.93-.47-.12-.23-.27-.44-.14-.2-.14-.49 0-.12.11-.36.3-.29.65-.46.35-.18.82-.18h.47q0 .47.11.47.12 0 .24.35zm-3.75-2.69q-.18.46-.24.82-.05.35-.52.64h-1.06q-.17-.23-.26-.47-.09-.23-.26-.41.11-.58.23-.82l.18-.53q.29-.06.41-.06h.41q.41 0 .61.27.21.26.5.56zm-4.92-.88q0 .52-.33.88-.32.35-.84.35-.47 0-.8-.27-.32-.26-.32-.73 0-.53.53-.85.53-.32 1-.32h.41q.11.23.23.44.12.2.12.5zm-5.22.17q-.17.24-.14.27.03.03.03.32 0 .35-.21.55-.21.21-.32.5-.3-.11-.65-.06-.35.06-.64-.11-.18-.35-.35-.47-.18-.12-.18-.59 0-.76.7-.99.71-.24 1.29-.3 0 .47.09.53.09.06.38.35zm-5.62 2.64q-.12.29-.47.7t-.7.41q-.12 0-.5-.12-.38-.11-.5-.17-.12-.24-.26-.44-.15-.21-.15-.5.06-.12.17-.44.12-.32.24-.44.23-.17.35-.17.12 0 .12-.35.35.05.7.23t.7.18q.06.29.09.61t.21.5zm-4.28 3.75q-.23.47-.5.82-.26.35-.73.53-.29-.12-.56-.18-.26-.06-.5-.29-.23-.59-.23-.88 0-.47.32-.65.32-.17.56-.52 1 .35 1.64 1.17zm27.42 31.05q0 .36-.17.71-.3.17-.53.38-.24.2-.59.2-.47 0-.82-.41t-.35-.88q0-.58.26-.76.27-.17.68-.47.41.06.67.03.27-.03.73.15 0 .29.06.53.06.23.06.52zM20.2 28.77q0 .53-.38.85-.38.33-.91.33-1.05 0-1.05-1.06 0-.29.09-.64.09-.36.2-.65h.59q.58 0 1.02.27.44.26.44.9zM46.45 58.6q0 .29-.14.53-.15.23-.27.52-.29 0-.5.06-.2.06-.49.06-.47 0-.74-.29-.26-.3-.26-.77 0-.46.26-.82.27-.35.74-.35t.93.3q.47.29.47.76zM17.21 32.7l.59.94q0 .58-.47 1.17-.29.12-.64.17-.35.06-.71.24-.17-.47-.41-.79-.23-.32-.23-.79.18-.18.62-.59.43-.41.73-.41.11 0 .26.03.15.03.26.03zm24.56 28.18v.53q-.24.18-.5.35-.27.18-.56.18-.47 0-.76-.3-.29-.29-.53-.7 0-.47.15-.5.14-.03.03-.49.35-.12.44-.21l.38-.38q.29.12.58.29.3.18.65.18.06.29.09.53.03.23.03.52zM17.68 39.73q0 .29-.11.88-.36.29-.59.41-.23.12-.7.12-1 0-1-1 0-.53.29-.97.3-.44.88-.44.47 0 .85.27.38.26.38.73zm18.11 22.15l-.29.41h-.36q-.17 0-.32.03-.14.03-.32.03-.23-.24-.41-.47-.18-.24-.41-.53.12-.41.32-.76.21-.35.5-.64.29 0 .5.02.2.03.5.03.29.47.64.77-.12.35-.12.46 0 .47-.11.59-.06.06-.12.06zM18.74 45.3q0 .47-.15.7-.14.23-.32.64-.23.12-.41.18-.18.06-.41.06-.41 0-.73-.29-.33-.3-.56-.59.12-.29.12-.64 0-.24.11-.47.3-.12.65-.27.35-.14.59-.14.11 0 .55.35.44.35.56.47zm11.72 15q-.12.29-.21.44-.09.14-.03.44-.29.17-.64.35-.35.17-.7.17-.42 0-.77-.29-.35-.29-.35-.7 0-.35.35-.82t.71-.59q.11.12.23.09.12-.03.29-.03h.36q.17.35.32.5l.44.44zm-9.79-8.5q-.12.59-.41 1-.29.41-.94.41h-.46q-.12-.24-.3-.44-.17-.21-.23-.44-.12-.35-.12-.41 0-.18.06-.32.06-.15.12-.27.58-.41 1.17-.41.17 0 .53.12.11.23.23.41.12.18.35.35zm4.87 5.68q-.18.41-.39.68-.2.26-.67.44-.35-.12-.85-.32-.5-.21-.5-.68 0-.35.24-.7.29-.18.55-.32.27-.15.56-.15.47 0 .67.35.21.35.39.7zm69.02-31.75q-.29.47-.5.73-.2.26-.61.67h-.36q-.23 0-.41-.03-.17-.03-.35.03-.12-.35-.41-.55-.29-.21-.29-.62 0-.64.32-.76t.79-.24q.35-.11.59-.11.12 0 .55.38.44.38.68.5zm-4.57-3.93q0 .35-.27.67-.26.33-.38.68-.58-.12-1.23-.27-.64-.14-.64-.96 0-.24.09-.44.08-.21.08-.44.59-.41 1.18-.41.29 0 .55.15.27.14.56.32 0 .17.03.35.03.18.03.35zm-5.69-3.81l.65.12q-.06.29-.15.59-.09.29-.44.41 0 .82-.82.82-.35 0-.76-.18-.12-.29-.29-.56-.18-.26-.18-.55 0-.24.12-.47l.64-.53h.36q.41 0 .87.35zm13.01 14.47q-.35.65-1.11.65-.47 0-.73-.15-.27-.14-.62-.44v-.76q0-.29.06-.47.29-.17.56-.38.26-.2.61-.2.12 0 .47.11.47.59.47.82 0 .24.29.82zm-19.1-14.53q0 .53-.56.74-.55.2-.96.26-.35-.29-.56-.47-.2-.17-.67-.29.11-.18.2-.38.09-.21.09-.38 0-.3.56-.59.55-.29.73-.59.29.3.53.5.23.21.52.38 0 .24.06.41.06.18.06.41zm20.04 19.69l.18 1.17q-.47.88-1.47.88-.12 0-.29-.03-.18-.03-.29-.03l-.36-.58q-.17-.3-.17-.59 0-.35.23-.82.3-.23.65-.23.35 0 .64-.18.29.29.88.41zm-.41 8.26q0 .18-.12.53-.47.47-1.11.47-.23 0-.44-.06t-.44-.12q-.12-.23-.2-.44-.09-.2-.09-.49 0-.18.03-.33.03-.14.03-.32.17-.12.38-.17.2-.06.26-.36.24-.11.47-.11.29 0 .47.17.17.18.47.24.11.23.2.47.09.23.09.52zm-26.6-25.49q-.41.24-.68.47-.26.24-.73.24h-.35l-.35-.35q-.18-.18-.29-.41-.06-.24-.09-.38-.03-.15-.03-.27 0-.23.12-.38.11-.15.11-.38.47-.23.76-.23.42 0 .74.17.32.18.61.35v.35q0 .24.06.44.06.21.12.38zm23.44 32.17q-.18 1.29-1.35 1.29-.59 0-.76-.32l-.41-.73q.11-.47.44-.88.32-.41.85-.41.29 0 .76.23 0 .35.14.44.15.09.33.38zM65.32 23.62q0 .64-.47.99t-1.05.35q-.35 0-.71-.41-.35-.41-.35-.7 0-.41.21-.7.2-.29.5-.53l.46-.06q.47.12.94.32.47.21.47.74zm24.2 34.68v.59q-.29.12-.62.18-.32.06-.67.06-.41 0-.73-.24-.32-.23-.62-.47.24-.53.56-.99.32-.47.97-.47.47 0 .79.47.32.46.32.87zM61.16 29.89q0 .17-.03.35-.03.17-.03.35-.29.18-.64.32-.35.15-.71.15-.29 0-.64-.12-.12-.29-.23-.41-.12-.12-.3-.41.12-.7.41-1.17.3-.12.59-.18t.58-.06h.53q.18.3.32.56.15.27.15.62zm-1.76 6.68q0 .88-.32 1.46-.32.59-1.32.59-.23-.24-.55-.44-.33-.21-.33-.56 0-.23.06-.41.06-.17.06-.35.29-.18.59-.47.29-.29.58-.29t.47.23q.18.24.76.24zm22.91 24.72q0 .41-.11.59-.24.29-.56.38-.32.09-.62.2-.29-.23-.49-.32-.21-.09-.5-.2 0-.18-.03-.32-.03-.15-.03-.33 0-.17.12-.52.11-.18.41-.44.29-.27.52-.27.47 0 .56.12.09.12.44.18.29.46.29.93zM59.64 45v.24q-.3.41-.44.7-.15.29-.74.29-.7 0-1.23-.52-.11-.47-.11-.82t.2-.59q.21-.23.38-.53.24.12.44.06.21-.06.5 0 .29.35.65.38.35.03.35.79zm15.52 16.59q0 .46-.35.79-.35.32-.82.32-.53 0-.76-.21-.23-.2-.35-.49-.12-.3-.18-.65-.06-.35-.29-.64.35-.06.53-.12.17-.06.29-.12.12-.06.21-.14.08-.09.38-.21.52.12.93.5.41.38.41.97zM62.27 52.5q0 .3-.11.47-.12.18-.24.41-.12.06-.44.18t-.44.12q-.17 0-.32-.09t-.32-.09q-.12 0-.18.03t-.17.03q-.18-.41-.21-.56-.03-.14-.03-.61l-.11-.24.64-.94q.06.06.29.18.12 0 .24-.03.11-.03.23-.03.18 0 .56.24.38.23.5.35.11.47.11.58zm5.63 5.51q0 .35-.24.53-.23.17-.35.47-.23.12-.41.17-.17.06-.41.06-.35 0-.67-.35-.32-.35-.68-.47.12-.47.27-.88.14-.41.5-.76.52 0 1.26.29.73.3.73.94zm70.31-36.33q-.17.3-.17.47v.53q-.3.18-.62.41-.32.23-.62.35-.46 0-.99-.41-.12-.47-.12-.7 0-.59.27-.97.26-.38.9-.38.41 0 .71.26.29.27.64.44zm3.93 4.98q-.24.24-.35.41.05.06.05.24 0 .12-.05.23l-.36.12q-.17.06-.41.06-.88 0-1.34-.88.29-.53.52-1.05.24-.53.94-.53.41.23.7.58.3.36.3.82zm-9.44-6.79q0 .11-.11.58-.53.53-1.06.53t-.88-.35q-.23-.47-.23-.88 0-.23.12-.59.29-.11.35-.32.06-.2.52-.2.47 0 .88.38.41.38.41.85zM143.66 31l-.12 1.58q-.23.06-.44.12-.2.06-.44.06-.29 0-.67-.15-.38-.15-.5-.32-.11-.24-.11-.76 0-.24.05-.41.06-.18.12-.41.41-.24.62-.35.2-.12.67-.12.12.29.35.44.24.14.47.32zm-16.41-12.13q0 .12-.11.47-.18.18-.38.41-.21.23-.44.35-.65 0-1.06-.35-.41-.35-.41-1v-.29q.18-.17.38-.32.21-.15.32-.26.36-.12.53-.12.3 0 .5.12.21.11.5.17 0 .24.09.41.08.18.08.41zm17.64 18.11q0 .29-.09.52-.09.24-.09.53-.17.18-.43.32-.27.15-.56.15-.47 0-.73-.35-.27-.35-.27-.82 0-.59.47-1.06.47-.11.59-.11.52 0 .99.29.12.35.12.53zM121.63 18.4q-.29.47-.44.88-.15.41-.85.47-.47-.23-.79-.5-.32-.26-.32-.85 0-.17.11-.52.3-.12.62-.24t.67-.12q.47 0 .65.27.17.26.35.61zm22.97 24.03l.23.7q-.06.47-.58 1-.24.05-.41.08-.18.03-.41.03-.3 0-.36-.17-.17-.18-.38-.33-.2-.14-.32-.38 0-.82.24-1.05l1.28-.53q.12.24.27.38.14.15.44.27zm-28.3-23.79q0 .17-.03.32t-.03.26q-.29.18-.38.38-.09.21-.5.38-.18 0-.35.06-.18.06-.35.06-.41 0-.71-.5-.29-.49-.29-.85 0-.46.44-.73.44-.26.85-.26.35 0 .85.23.5.24.5.65zm27.65 29.41q0 .53-.35.97-.35.44-.94.44-.29 0-.64-.24-.06-.23-.26-.35-.21-.12-.38-.23.11-.3.14-.44.03-.15-.03-.44.41-.41.85-.53.44-.12.97-.35l-.18.23q.47.24.71.3.11.35.11.64zm-33.92-28.94q0 .41-.27.67-.26.26-.49.5-.36-.06-.68-.15-.32-.09-.55-.38-.53-.23-.53-.64 0-.47.47-.8.47-.32.93-.32.47 0 .8.32.32.33.32.8zm30.88 33.45l.93 1.06q-.17.47-.52.96-.36.5-.88.5-.47 0-.73-.35-.27-.35-.5-.7 0-.3.11-.65.06-.17.06-.29.06-.12.18-.18.23-.11.35-.11.47-.24.76-.24h.24zm-30.77-28.18v.29q0 .24-.02.41-.03.18.02.41-.35.12-.64.35-.29.24-.64.24-.47 0-.77-.38-.29-.38-.29-.85 0-.53.41-.79.41-.27.94-.27.29 0 .56.18.26.17.43.41zm26.78 33.16q-.12.41-.2.79-.09.38-.27.8-.06-.06-.23-.06-.24.06-.38.11-.15.06-.38.06-.18-.11-.41-.2-.24-.09-.41-.21-.18-.41-.18-.94.35-.29.44-.73.09-.44.73-.44.18 0 .53.12.23.12.41.32.18.21.35.38zm-27.01-27.07q-.12.24-.09.44.03.21-.09.44-.29.18-.58.35-.29.18-.59.35-.47 0-.82-.35t-.58-.82q.17-.23.23-.47.06-.23.24-.46.35-.06.55-.18.21-.12.62-.12.29.24.55.38.27.15.56.44zm.41 5.22v.47q0 .41-.12.58-.11.18-.17.53-.3.06-.65.18-.35.11-.52.11-.41 0-.65-.47-.23-.46-.23-.76 0-.47.29-.88.29-.41.82-.41.29 0 .64.27.36.26.59.38zm20.33 24.14l-.52 1.23q-.47.17-.94.17-.18 0-.38-.02-.21-.03-.38-.03l-.41-1.64q.52-.65 1.28-.65.53 0 .94.41.06.29.06.35t.35.18zm-21.21-18.46l.18.53q.11.35.11.47 0 .29-.23.58-.23.3-.41.53-.35.12-.59.12-.29 0-.87-.24-.3-.35-.3-.93 0-.53.18-.88.58-.41 1.11-.47.29.06.38.12.09.05.44.17zm13.36 18.87q-.06.41-.2.47-.15.06-.03.52-.3.06-.68.24-.38.17-.55.17-.36 0-.65-.49-.29-.5-.29-.85 0-.41.44-.76.44-.36.79-.36h.47q.35.24.44.5.09.27.26.56zm-12.48-11.43q-.12.47-.47.82t-.82.59q-.29-.29-.67-.5-.38-.2-.38-.67 0-.24.03-.41.03-.18.03-.41.23-.18.52-.38.3-.21.59-.21.47 0 .76.38.29.38.41.79zM117 60.06q0 .41-.18.73-.17.33-.23.68-.35 0-.5.12-.14.11-.38.11-.58 0-.91-.41-.32-.41-.32-.93 0-.47.29-.71.3-.23.53-.58.65.11.97.29.32.18.73.7zm-6.8-5.56q0 .46-.47.58-.17.24-.44.41-.26.18-.55.18-.24 0-.59-.24l-.58-1.17.7-.82q.41-.17.88-.17.64 0 .99.58 0 .12.03.29.03.18.03.36zm-.06 5.8q0 .29-.2.55-.21.27-.26.56h-.3q-.11.06-.29.12t-.29.06q-.12 0-.47-.12-.12-.29-.24-.35-.11-.06-.29-.24-.12-.29-.12-.44 0-.14-.17-.44.12-.23.32-.44.21-.2.5-.32.17-.17.58-.17h.3q.29.29.61.52.32.24.32.71zm70.43-42.66l.36.65q-.18.29-.3.58-.11.29-.41.53-.17 0-.32.03t-.26.03q-.47 0-.68-.18-.2-.17-.55-.29 0-.24-.06-.44-.06-.21-.06-.44 0-.35.5-.67.5-.33.85-.33.52 0 .58.21.06.2.35.32zm-2.93 6.04q-.17.46-.46.7-.3.23-.65.53-.41-.24-.99-.36-.18-.29-.39-.55-.2-.27-.2-.56 0-.29.2-.61.21-.33.44-.5h.47q.24 0 .44.06.21.06.5 0 .47.7.64 1.29zm-3.69 5.39q-.29.17-.38.35-.09.17-.26.41-.35.12-.59.12-.99 0-1.58-.88 0-.24.03-.47.03-.24.03-.47.41-.41.94-.56.52-.14 1.05-.2.18.17.29.41.12.23.36.41-.06.11-.06.17 0 .06-.06.18.12.17.23.53zm-3.86 4.8v.24q0 .29-.12.55-.12.27-.12.56-.17-.06-.47-.06-.11.06-.26.12-.15.06-.26.06-.41 0-.71-.3-.29-.29-.64-.47v-.35q0-.88.58-.96.59-.09 1.23-.33.18.47.33.53.14.06.44.41zm-18.75-14.88v.58q-.59.12-.94.12t-.7-.06q-.36-.06-.71-.17-.17-.3-.26-.71t-.32-.7q.29-.29.67-.47.38-.17.67-.47.41.12.77.38.35.27.76.44 0 .3.03.53.03.24.03.53zm3.8 4.51q0 .18-.05.35-.06.18-.06.35-.71.41-1.35.41-.47 0-.88-.17-.12-.3-.2-.59-.09-.29-.09-.58 0-.82.5-.91.49-.09 1.08-.15.35.24.7.53.35.29.35.76zm3.29 4.04q-.24.59-.24.94-.29.53-.53.85-.23.32-.87.32-.3 0-.53-.17-.24-.18-.53-.3v-.47q0-.76.38-1.23.38-.46 1.2-.46.41.41 1.12.52zm3.8 6.68q-.23.3-.41.76-.23.12-.44.24-.2.12-.49.12-.41 0-.74-.27-.32-.26-.61-.5.06-.05.17-.29-.05-.12-.05-.41 0-.64.67-.82.67-.17 1.14-.17.3.29.53.61.23.32.23.73zm4.11 5.22q-.12.35-.21.7t-.2.7l-.3-.05q-.11 0-.23.08-.12.09-.24.15-.41-.06-.64-.21-.23-.14-.59-.32 0-.29-.11-.47-.12-.17-.12-.47.23-.35.53-.7.29-.35.76-.35.17 0 .32.03t.32.03q.24.17.35.41.12.23.36.47zm.11 5.74q-.11.47-.23.85-.12.38-.12.85-.29.06-.56.2-.26.15-.55.15-.59 0-1.17-.41 0-.23-.03-.41-.03-.18-.27-.29.24-1.47 1.88-1.47.41.47 1.05.53zm.06 8.5q-.29.29-.58.67-.3.38-.77.38-.64 0-.9-.18-.27-.17-.38-.43-.12-.27-.18-.65t-.35-.73q.7-.18.94-.35.23-.18.76-.53.29.18.61.41.32.23.44.53.18.29.15.44-.03.14.26.44zm-.47 5.97l.47.24q-.12.11-.23.35 0 .12.03.26.03.15.03.32l-.53.77q-.24 0-.41.11-.18.12-.41.12-.29 0-.59-.15-.29-.14-.52-.32-.12-.23-.18-.44-.06-.2-.06-.5 0-.29.18-.76.29-.11.55-.32.27-.2.62-.2.76 0 1.05.52zm42.37-37.91q0 .3-.12.53-.12.23-.18.53-.58.23-.99.23-1.29 0-1.29-1.29 0-.35.2-.58.21-.24.33-.53l.87-.06 1.06.64q.12.36.12.53zm3.51 3.46v.18q0 .29-.12.32-.11.03 0 .32-.29.29-.41.32-.11.03-.46.09-.18.12-.59.12-.12.06-.15.08-.03.03-.14.09-.18-.23-.35-.41-.18-.17-.47-.17v-1.47q.47 0 .64-.23.18-.24.7-.24.47 0 .8.3.32.29.55.7zm-7.67-6.97v.47q0 .35-.18.67-.18.32-.41.56-.47.11-.59.11-.35 0-.67-.14-.32-.15-.61-.27 0-.23-.06-.41-.06-.17-.06-.41 0-.41.5-.79.49-.38.85-.38.35 0 .64.24.29.23.59.35zm-5.28-.12q-.29.23-.61.44-.32.2-.62.5l-1.4-.24-.36-1.46q.36-.3.71-.5.35-.21.82-.21.17 0 .53.12.29.29.43.68.15.38.5.67zm-6.03.94q0 .17-.12.41-.41.29-.56.35-.14.06-.61.12-.12 0-.27.08-.14.09-.32.09h-.35q0-.47-.09-.61-.08-.15-.32-.5.29-.47.65-.85.35-.38.93-.38.3 0 .41.06.24.23.44.52.21.3.21.71zm15.88 22.85v.41q0 .47-.38.7-.39.24-.68.53-.47-.18-.91-.29-.44-.12-.73-.59v-.53q0-.29.12-.64l.76-.59.76-.11.7.52q.12.47.36.59zm-20.69-18.87q-.58.24-.88.26-.29.03-.87.15-.36-.23-.65-.5-.29-.26-.29-.67 0-.47.35-.82t.76-.53l.47.47q.12-.06.35-.06.53 0 .56.41.03.41.03.71 0 .35.17.58zm24.2 25.02q0 .29-.06.41-.11.12-.26.29-.15.18-.32.3-.12 0-.27.03-.14.03-.26.03-.23 0-.47-.12-.12-.06-.47-.21-.35-.14-.35-.38-.17-.35-.17-.47 0-.35.2-.55.21-.21.21-.5.29-.12.55-.15.27-.03.56-.2.41.29.76.64.35.35.35.88zm-9.9-8.85q0 .24-.06.47-.06.24-.06.47-.29.12-.58.32-.3.21-.59.21t-.59-.15q-.29-.14-.58-.26l.17-.3q-.11-.11-.2-.26-.09-.15-.09-.32 0-.24.06-.44.06-.21.12-.44.58-.41 1.17-.41.35 0 .7.23.12.3.32.39.21.08.21.49zm-6.39-1.52q-.11.64-.47 1.11-.46.18-.87.18-.36 0-.94-.24-.24-.41-.24-.87 0-.71.3-1.06.17-.06.35-.12.17-.05.35-.05h.29q.53.35.71.38.17.03.52.67zm-9.31-9.32q-.06.24-.06.65 0 .47-.38.73t-.79.26q-.53 0-.91-.38t-.38-.91q0-.52.26-.64t.56-.47q.52.06.88.27.35.2.82.49zm24.43 26.43q-.06.29-.15.61-.08.33-.08.62-.3 0-.53.09-.24.09-.53.09-.12 0-.47-.24-.17 0-.41.12-.23-.82-.7-1.12l.64-1.23q.24.12.36.12.11 0 .23-.12.12-.11.23-.23.24.23.41.35.12-.06.36-.06.23.3.38.5.14.21.26.5zM189.6 34.34v.7q0 .53-.32.82-.33.3-.8.47-.76-.29-1.05-.58-.23-.47-.23-.77 0-.29.14-.58.15-.29.15-.59.12 0 .26.03.15.03.27.03.17 0 .35-.03.17-.03.29-.03.29.18.41.3.12.11.53.23zm16.64 25.02q0 .64-.38.94-.38.29-.85.47-.3-.06-.5-.18-.21-.12-.5-.18-.17-.29-.32-.49-.15-.21-.26-.5.11-.29.26-.53.15-.23.26-.53.3-.11.53-.2.23-.09.53-.09.17 0 .53.12.23.29.46.52.24.24.24.65zM199.15 61q0 .47-.35.85t-.82.38q-.3 0-.59-.09t-.59-.09q-.11-.29-.2-.58-.09-.29-.09-.59v-.52q.41-.24.79-.3.38-.06.74-.29l.99.76q.12.35.12.47zm-7.27-2.11l.65 1q-.47 1.29-1.58 1.29h-.3q-.35-.24-.47-.5-.11-.27-.41-.56.18-.53.18-.94.41-.41.82-.41.29 0 .56.06.26.06.55.06zm-5.27-1.29q-.29.24-.62.47-.32.23-.73.23-.17 0-.35-.05-.18-.06-.29-.06-.53-.47-.53-.68 0-.2-.29-.49.35-.41.61-.82.27-.41.91-.41.35 0 .64.2.3.21.59.32.06.3.06.62v.67zm66.85-39.08q0 .18-.11.53l-.65.58h-.35q-.23 0-.44-.03-.2-.03-.5-.03-.17-.29-.32-.58-.14-.29-.14-.65.58-.93 1.28-.93.18 0 .36.03.17.02.29.02.23.24.41.5.17.27.17.56zm-5.68-.29v.29q0 .35-.17.61-.18.27-.36.56-.29 0-.49.03-.21.03-.44.03-.24 0-.59-.12l-.7-.76q.23-.23.2-.29-.03-.06-.03-.35 0-.18.06-.3l.59-.58h.67q.32 0 .68.06.11.23.26.44.15.2.32.38zm-5.62.23q-.06.65-.47.97-.41.32-1.06.32-.11 0-.58-.12-.06-.06-.38-.44-.33-.38-.21-.49.06-.06.06-.24 0-.41.38-.79.38-.38.79-.38.29 0 .47.12.18.11.47.17.17.24.26.47.09.24.27.41zm-6.04.47q-.23.23-.41.29v.3q-.23.11-.5.17-.26.06-.55.24-.3-.18-.59-.39-.29-.2-.64-.38 0-.29-.03-.58t-.03-.59q.35-.17.67-.41.32-.23.67-.47l.94.41q.12.41.3.71.17.29.17.7zm-5.74-.29q0 .35-.18.41-.11.29-.23.38-.12.09-.24.38h-.58q-1 0-1.2-.35-.21-.35-.32-1.17.05-.3.2-.41.15-.12.21-.42.29-.11.49-.17.21-.06.5-.06.29 0 .5.09.2.09.44.14 0 .42.2.62.21.21.21.56zm5.92 6.62q-.3.47-.53.85-.23.38-.82.61-.29-.11-.38-.09-.09.03-.38.03l-.24-.11q-.23-.3-.35-.53-.12-.23-.35-.53.35-.35.35-.82.59-.41 1.17-.41.18 0 .33.03.14.03.32.09.17.17.2.32t.09.26q.06.12.18.18.11.06.41.12zm-11.9-6.21q-.47.47-.82.55-.35.09-.99.09-.59 0-.77-.56-.17-.55-.17-1.02.35-.29.67-.59.32-.29.79-.23l.3-.18q.23.35.41.53.17.18.29.35.12.18.18.41.05.24.11.65zm11.9 13.47q-.12.12-.24.41-.11.3-.17.41-.18.12-.38.24-.21.12-.38.29-.3-.17-.47-.17-.18 0-.47-.06-.24-.3-.32-.35-.09-.06-.44-.12.11-.59.29-1.32.17-.73.99-.73.71 0 .97.47.27.46.62.93zm-18.05-13.88q0 .41-.35.88-.24.11-.44.17-.21.06-.5.06-.53 0-.76-.32-.24-.32-.53-.73.12-.59.12-.88.29-.18.64-.33.36-.14.71-.14.17 0 .38.06.2.05.38.05.12.3.23.59.12.29.12.59zm17.93 20.8q-.23.47-.44.88-.2.41-.85.41-.29 0-.47-.09-.17-.09-.41-.09-.23-.23-.29-.47-.06-.23-.35-.35 0-.47.11-.7.12-.24.41-.59l1.06-.35q.29.29.38.35.09.06.56.18 0 .41.03.47.03.05.26.35zm-.06 6.74v.17q0 .41-.15.41-.14 0-.02.41-.3.18-.56.35-.26.18-.62.18-.17 0-.35-.06-.17-.06-.41-.12-.06-.11-.35-.49-.29-.39-.29-.5 0-.47.5-.88.49-.41.96-.41.24 0 .62.38t.67.56zm-.41 6.56l.18.99q-.12.3-.3.47-.17.18-.29.47l-1.41-.12q-.17-.41-.43-.55-.27-.15-.33-.62.3-.47.53-.85.23-.38.88-.38.7 0 1.17.59zm.41 7.73q0 .12-.12.47-.17.18-.49.44-.33.26-.62.26t-.38-.11q-.09-.12-.44-.06-.23-.29-.44-.56-.2-.26-.2-.67 0-.41.29-.62.29-.2.47-.49h.47q.29 0 .88.11.11.3.35.56.23.26.23.67zm40.84-42.36q0 .47-.17.76-.18.29-.3.76h-.94q-.35-.23-.64-.29-.29-.06-.29-.59 0-.23.06-.44.05-.2.05-.38.36-.52 1-.52.23 0 .7.11l.18.36q.06.11.35.23zm3.28 5.68q-.11.24-.41.56-.29.32-.35.5l-.29.11q-.47 0-.76-.17-.3-.18-.71-.47.12-.47.27-1.03.14-.55.79-.55.58 0 .96.2.39.21.5.85zm2.7 7.56l-.71.82q-.35.12-.46.12-.3 0-.56-.12-.26-.12-.56-.23-.06-.18-.11-.35-.06-.18-.06-.41 0-.06.11-.41.59-.59 1.53-.59.47.47.82 1.17zm-8.79-6.44q0 .47-.41.79-.41.32-.88.32-.23 0-.47-.12-.12.06-.23.09-.12.03-.24.09-.06-.35-.14-.73-.09-.39-.09-.74t.2-.49q.21-.15.44-.44.3 0 .65.03.35.02.64.02.12.3.32.56.21.26.21.62zm11.54 12.71q0 .24-.09.47-.08.23-.08.47-.3.06-.53.2-.24.15-.53.15-.29 0-.58-.2-.3-.21-.59-.27 0-.12.06-.2.06-.09.06-.21t-.06-.26q-.06-.15-.12-.27.29-.35.65-.67.35-.32.82-.32.41 0 .7.35t.29.76zm1.82 6.56q0 .77-.44.85-.44.09-.97.38-.23-.23-.47-.35-.23-.11-.41-.41-.06-.29-.11-.61-.06-.33-.18-.62.35-.17.73-.32t.85-.15q.59 0 .79.35.21.36.21.88zm2.52 4.69q0 .47-.18 1-.29.11-.58.2-.3.09-.59.09-1 0-1-1 0-.17.03-.32.03-.14.03-.26l.59-.7q.29.11.55.11.27 0 .56.06.41.41.59.82zm-18.99-17.46q-.35.35-.79.64-.44.3-.96.3-.3 0-.65-.35-.18-.41-.18-.88 0-.18.06-.35.06-.18.06-.36.24-.11.44-.26.21-.15.5-.15.23 0 .41.18.23 0 .41.06.18.06.35.06.12.35.15.58.03.24.2.53zm10.73 13.95q0 .58-.53.93-.47.06-1.11.35l-.94-.64q.11-.23.09-.44-.03-.2-.03-.5.29-.52.46-.7.18-.18.33-.21.14-.02.29-.05.15-.03.32-.21l.88.47v.29q0 .18.12.32.12.15.12.39zm9.78 9.55l.24.29q-.18.64-.56.97-.38.32-1.03.49-.29-.29-.55-.49-.27-.21-.5-.5.06-.24.12-.44.05-.21.05-.5.3-.12.41-.29.12-.18.36-.35.35.11.7.17.35.06.7.24 0 .29.06.41zm2.29 6.21q-.12.23-.33.41-.2.17-.38.29-.47-.12-.82-.12t-.64-.06q-.06-.29-.15-.58t-.09-.59q0-.35.41-.58.41-.24.77-.24.46 0 .99.18.12.29.15.61.03.33.09.68zM276.67 45q0 .3-.03.53-.03.24-.03.53l-.29.17q-.65.24-1.41.24-.47-.47-.47-.79 0-.32-.12-.91.65-.64 1.41-.64h.41l.24.46q.11.24.29.41zm-8.73-6.27q-.3.18-.62.39-.32.2-.67.2-.47-.29-.76-.53-.3-.23-.3-.76l-.11-.35q.64-.41.9-.41.27 0 .91-.06l.24.12q.29.29.29.67 0 .38.12.73zm3.63 6.8l-.64.82q-.24.12-.47.12-.24 0-.44-.06-.21-.06-.44-.12-.12-.23-.18-.44-.06-.2-.35-.32.12-.53.35-.79.24-.26.65-.61.29.11.58.11.3 0 .59.06.12.29.15.62.02.32.2.61zm-6.15-.99q-.24.35-.47.7-.24.35-.7.35-.41 0-.85-.35t-.44-.76q0-.35.29-.79.29-.44.7-.44.3 0 .5.11.21.12.5.18.23.23.26.47.03.23.21.53zm-2.64 5.62h.06q0 .53-.47.85-.47.32-.94.44-.41-.35-.99-.53 0-.23-.06-.38t-.06-.38q0-.29.23-.59.24-.29.41-.46.83 0 1.47.23.12.23.18.41.05.18.17.41zm-2.4 5.98q0 .35-.35.67-.35.32-.71.32-.23 0-.46-.23-.3-.12-.53-.35-.24-.24-.24-.53v-.41q.18-.18.33-.26.14-.09.2-.39h.53q.29 0 .53.09.23.09.46.21.24.58.24.88zm-1.7 4.57q0 .17-.12.52-.17.18-.35.18-.17 0-.17.29h-.65q-.47 0-.85-.29t-.38-.76q0-.7.7-1.29.12.06.3.12.17.06.29.06.12 0 .18-.03.05-.03.17-.03.29 0 .47.14.18.15.35.27 0 .23.03.44.03.2.03.38zm68.96-39.38l1.18 1.23q-.18.35-.18.47t-.06.47q-.41.12-.5.32-.08.21-.61.21-.29 0-.53-.15-.23-.15-.53-.2-.11-.3-.2-.56-.09-.26-.09-.56 0-.17.03-.32t.09-.32q.35-.12.73-.21.38-.08.67-.38zm-4.33-2.81q0 .23-.03.44-.03.2-.03.44-.29.17-.64.38-.36.2-.71.2-.47 0-.64-.23-.18-.23-.41-.53-.3-.47-.15-.55.15-.09.03-.62.23-.17.47-.32.23-.15.53-.15.47 0 .9.27.44.26.68.67zm6.85 10.14v.58q0 .24-.2.41-.21.18-.26.47l-1.24.29q-.29-.29-.43-.61-.15-.32-.44-.62.11-.41.32-.76.2-.35.44-.7.29 0 .5.06.2.06.49.06.24.23.44.38.21.14.38.44zm-13-10.78q0 .41-.15.64-.15.23-.44.53-.18 0-.38.03-.21.03-.44.03-.59 0-.79-.47-.21-.47-.5-.82.47-.47.53-1 .23 0 .44-.03.2-.03.44-.03.35 0 .58.18.24.17.59.23.12.47.12.71zm10.95 16.69v.53q0 .29-.03.56-.03.26-.03.55l-.87.18h-.74q-.32 0-.79-.29-.11-.41-.03-.5.09-.09-.03-.62.47-.76.77-.85.29-.08 1.11-.38l.64.82zm-17.57-16.64q0 .36-.3.53 0 .18.12.41-.29.06-.56.21-.26.14-.55.14-.3 0-.5-.06-.21-.05-.5-.11-.29-.24-.35-.5t-.29-.5q.41-.41.46-.88.36-.29 1.12-.29h.35q.12.12.26.29.15.18.27.18.23.11.29.26.06.15.18.32zm-6.8.18q-.18.53-.18 1-.29.11-.64.2-.35.09-.71.09-.52 0-.93-.41 0-.24-.09-.41-.09-.18-.09-.47.18-.29.27-.59.08-.29.32-.58l.17.23q.35-.12.47-.12.24 0 .5.15t.5.26q0 .3.09.39.08.08.32.26zm19.1 21.21q0 1.47-1.41 1.47-.64 0-1.11-.47.06-.59.09-.91.03-.32.32-.85.18-.06.35-.12.18-.06.41-.06.41 0 .73.33.33.32.62.61zm-19.22-15.35l.12 1.05q-.35.36-.79.59-.44.23-.97.23-.41-.41-.76-.93-.18-.53-.18-.68 0-.14.03-.2t.12-.09q.09-.03.09-.21.29-.11.55-.26.27-.15.56-.15.29 0 .65.21.35.2.58.44zm17.17 20.57q0 .41-.18.7-.17.29-.23.64-.24 0-.47-.03-.23-.03-.53-.03-.11 0-.32.09-.2.09-.32.15-.06-.35-.24-.7-.17-.36-.17-.77v-.7l1.29-.53q.29.12.55.27.27.14.56.26 0 .18.03.35.03.18.03.3zm-5.04-4.4q.06.41.09.5.03.09.03.56 0 .52-.44.76-.44.23-.91.23-.35 0-.7-.17-.12-.3-.27-.5-.14-.21-.26-.5 0-.35.17-.62.18-.26.3-.55.29 0 .5-.06.2-.06.49-.06.47 0 .53.09.06.09.47.32zm7.27 11.37q-.41 0-.68-.24-.26-.23-.55-.52.05-.41.11-.82t.35-.77q.3-.17.62-.17t.67-.06q.12.12.3.26.17.15.29.33.41.46.06 1.23-.35.76-1.17.76zm5.09 4.04q0 .47-.35.7l-.35.41q-.47-.05-.88-.08-.41-.03-.76-.33-.12-.29-.21-.55-.08-.27-.08-.56 0-.29.44-.61.44-.33.73-.33t.58.21q.3.2.59.32.29.41.29.82zm-24.37-24.08q0 .41-.24.73-.23.32-.46.68-.18 0-.36.02-.17.03-.35.03-.99 0-1.29-1.05.12-.35.06-.76.29-.12.38-.3.09-.17.27-.35.46 0 .93.15.47.15.94.26.12.35.12.59zm27.83 28.65q0 .35-.26 1.11-.27.77-.74.77-.29 0-.52-.09-.24-.09-.53-.09-.18-.23-.38-.35-.21-.12-.38-.29.06-.59.14-.91.09-.32.3-.5.2-.18.52-.26.33-.09.85-.21.53.35 1 .82zm-22.62-20.21l.59.82-.18.7q-.06.23-.35.59-.35.17-.76.17-.47 0-.82-.44t-.35-.91q0-.23.09-.44.08-.2.2-.38.41-.17.76-.17.24 0 .41.03.18.03.41.03zm-5.15-1.47q-.12.41-.35.88-.24.47-.94.47-.35 0-.62-.06-.26-.06-.55-.18-.12-.29-.12-.49 0-.21-.29-.5.35-.35.67-.68.32-.32.91-.32h.47q.29.18.41.44.11.27.41.44zm-.06 7.74q-.12.23-.68.67-.55.44-.85.44-.11-.18-.58-.41-.47-.24-.65-.29.18-.36.18-.41v-.88q.47-.12.7-.27.24-.14.71-.14.17 0 .35.03.17.03.35.03.41.7.47 1.23zm0 7.03q0 .29-.18.55-.17.27-.41.44-.47.18-.94.18-.64 0-.7-.24-.06-.23-.41-.58v-.24q0-.17.03-.35.03-.17.03-.35.29-.17.59-.38.29-.2.64-.2.24 0 .44.05.21.06.44.06.12.24.29.53.18.29.18.53zm0 7.5q0 .23-.12.58-.29.12-.41.33-.12.2-.41.32-.35-.12-.73-.18t-.73-.17q-.12-.3-.21-.53-.09-.24-.09-.53 0-.47.35-.64.12-.18.3-.35.17-.18.41-.18.64 0 1.14.32.5.32.5 1.03zm85.6-39.38l1.18 1.23q-.18.35-.18.47t-.06.47q-.41.12-.5.32-.08.21-.61.21-.29 0-.53-.15-.23-.15-.53-.2-.11-.3-.2-.56-.09-.26-.09-.56 0-.17.03-.32t.09-.32q.35-.12.73-.21.38-.08.67-.38zm-4.33-2.81q0 .23-.03.44-.03.2-.03.44l-.65.38q-.35.2-.7.2-.47 0-.64-.23-.18-.23-.41-.53-.3-.47-.15-.55.15-.09.03-.62.23-.17.47-.32.23-.15.53-.15.46 0 .9.27.44.26.68.67zm6.85 10.14v.58q0 .24-.2.41-.21.18-.27.47l-1.23.29q-.29-.29-.44-.61-.14-.32-.43-.62.11-.41.32-.76.2-.35.44-.7.29 0 .49.06.21.06.5.06.24.23.44.38.21.14.38.44zm-13-10.78q0 .41-.15.64-.15.23-.44.53-.18 0-.38.03-.21.03-.44.03-.59 0-.79-.47-.21-.47-.5-.82.47-.47.53-1 .23 0 .44-.03.2-.03.44-.03.35 0 .58.18.24.17.59.23.12.47.12.71zm10.95 16.69v.53q0 .29-.03.56-.03.26-.03.55l-.87.18h-.74q-.32 0-.79-.29-.12-.41-.03-.5.09-.09-.03-.62.47-.76.76-.85.3-.08 1.12-.38l.64.82zm-17.58-16.64q0 .36-.29.53 0 .18.12.41-.29.06-.56.21-.26.14-.55.14-.3 0-.5-.06-.21-.05-.5-.11-.29-.24-.35-.5t-.3-.5q.41-.41.47-.88.36-.29 1.12-.29h.35q.12.12.26.29.15.18.27.18.23.11.29.26.06.15.17.32zm-6.79.18q-.18.53-.18 1-.29.11-.64.2-.35.09-.71.09-.52 0-.93-.41 0-.24-.09-.41-.09-.18-.09-.47.18-.29.26-.59.09-.29.33-.58l.17.23q.35-.12.47-.12.24 0 .5.15t.5.26q0 .3.09.39.08.08.32.26zm19.1 21.21q0 1.47-1.41 1.47-.64 0-1.11-.47.06-.59.09-.91.03-.32.32-.85.18-.06.35-.12.18-.06.41-.06.41 0 .73.33.33.32.62.61zm-19.22-15.35l.12 1.05q-.35.36-.79.59-.44.23-.97.23-.41-.41-.76-.93-.18-.53-.18-.68 0-.14.03-.2t.12-.09q.09-.03.09-.21.29-.11.55-.26.27-.15.56-.15.29 0 .64.21.36.2.59.44zm17.17 20.57q0 .41-.18.7-.17.29-.23.64-.24 0-.47-.03-.23-.03-.53-.03-.12 0-.32.09-.21.09-.32.15-.06-.35-.24-.7-.17-.36-.17-.77v-.7l1.29-.53q.29.12.55.27.27.14.56.26 0 .18.03.35.03.18.03.3zm-5.04-4.4q.06.41.09.5.03.09.03.56 0 .52-.44.76-.44.23-.91.23-.35 0-.7-.17-.12-.3-.27-.5-.14-.21-.26-.5 0-.35.17-.62.18-.26.3-.55.29 0 .5-.06.2-.06.49-.06.47 0 .53.09.06.09.47.32zm7.26 11.37q-.41 0-.67-.24-.26-.23-.56-.52l.12-.82q.06-.41.35-.77.3-.17.62-.17t.67-.06q.12.12.3.26.17.15.29.33.41.46.06 1.23-.35.76-1.18.76zm5.1 4.04q0 .47-.35.7l-.35.41q-.47-.05-.88-.08-.41-.03-.76-.33-.12-.29-.21-.55-.08-.27-.08-.56 0-.29.44-.61.43-.33.73-.33.29 0 .58.21.3.2.59.32.29.41.29.82zm-24.37-24.08q0 .41-.24.73-.23.32-.47.68-.17 0-.35.02-.17.03-.35.03-.99 0-1.29-1.05.12-.35.06-.76.29-.12.38-.3.09-.17.27-.35.46 0 .93.15.47.15.94.26.12.35.12.59zm27.83 28.65q0 .35-.26 1.11-.27.77-.74.77-.29 0-.52-.09-.24-.09-.53-.09-.18-.23-.38-.35-.21-.12-.38-.29.06-.59.14-.91.09-.32.3-.5.2-.18.52-.26.33-.09.85-.21.53.35 1 .82zm-22.62-20.21l.59.82-.18.7q-.06.23-.35.59-.35.17-.76.17-.47 0-.82-.44t-.35-.91q0-.23.09-.44.08-.2.2-.38.41-.17.76-.17.24 0 .41.03.18.03.41.03zm-5.15-1.47q-.12.41-.36.88-.23.47-.93.47-.35 0-.62-.06-.26-.06-.55-.18-.12-.29-.12-.49 0-.21-.29-.5.35-.35.67-.68.32-.32.91-.32h.47q.29.18.41.44.11.27.41.44zm-.06 7.74q-.12.23-.68.67-.55.44-.85.44-.11-.18-.58-.41-.47-.24-.65-.29.18-.36.18-.41v-.88q.47-.12.7-.27.24-.14.71-.14.17 0 .35.03.17.03.35.03.41.7.47 1.23zm0 7.03q0 .29-.18.55-.17.27-.41.44-.47.18-.94.18-.64 0-.7-.24-.06-.23-.41-.58v-.24q0-.17.03-.35.03-.17.03-.35.29-.17.59-.38.29-.2.64-.2.23 0 .44.05.2.06.44.06.12.24.29.53.18.29.18.53zm0 7.5q0 .23-.12.58-.29.12-.41.33-.12.2-.41.32-.35-.12-.73-.18t-.73-.17q-.12-.3-.21-.53-.09-.24-.09-.53 0-.47.35-.64.12-.18.3-.35.17-.18.41-.18.64 0 1.14.32.5.32.5 1.03zm64.86-42.42q0 .46-.47.87t-.94.41h-.35q-.23-.29-.41-.55-.17-.27-.35-.56l.15-.44q.03-.09-.09-.44.88-.41 1.58-.47.47.47.76.59.12.47.12.59zm-5.1.05v.36q-.41.17-.47.58-.23.06-.44.12-.2.06-.49.06-.18 0-.35-.06-.18-.06-.41-.06 0-.29-.09-.5-.09-.2-.09-.44 0-.41.38-.73t.67-.5q.3.06.41.18.12.11.41 0 .12.23.3.47.17.23.17.52zm-5.27-.7l.41.76-.82 1.17q-.35-.05-.59-.05-.23 0-.41-.03-.17-.03-.35-.18-.17-.15-.47-.56v-.46q0-.24.06-.36.06-.11.18-.29.23-.23.5-.35.26-.12.55-.24.3.18.47.36.18.17.47.23zm-5.33.24q0 .64-.32 1.11-.33.47-1.03.47h-.53q-.41-.59-.41-1.12v-.46q.35-.3.44-.5.09-.21.62-.21.41 0 .67.21.26.2.56.5zm-5.22.41q0 .58-.17.93-.18.35-.82.35-.3 0-.53-.14-.23-.15-.53-.32-.06-.12-.12-.27-.05-.14-.05-.32 0-.53.44-.82.44-.29.9-.29.12 0 .27.03.14.02.32.02.06.24.18.42.11.17.11.41zm15.41 20.27q0 .17-.11.41-.47.47-.74.56-.26.08-.9.14-.3-.23-.36-.5-.05-.26-.35-.49l.53-1.06h.35q.12-.06.29-.15.18-.08.36-.08.11 0 .46.11.12.3.3.53.17.24.17.53zm-20.21-19.98q-.12.29-.24.5-.11.2-.11.55h-.35q-.12.12-.15.27-.03.14-.15.26-.47-.12-1.08-.38-.62-.26-.62-.91 0-.53.35-.85.36-.32.82-.32.24 0 .59.12.12.29.41.41.29.11.53.35zm15.12 20.04q0 .35-.21.61-.2.27-.5.44l-.23-.12q-.12 0-.15.03t-.15.03q-.46 0-.73-.35-.26-.35-.26-.82 0-.58.47-.94.29 0 .88-.11.35.17.61.47.27.29.27.76zm-16.12-15.53q0 .29-.06.53-.06.23-.11.47h-.53q-.18 0-.47.29-.94-.41-1.29-1.35.29-.23.62-.47.32-.23.55-.52.41.05.85.29.44.23.44.76zm.71 4.86q-.3.41-.47 1-.3-.06-.56 0-.26.06-.56.06-.41 0-.64-.18-.12-.29-.29-.53-.18-.23-.18-.52 0-.12.12-.47.23-.24.52-.35.3-.12.53-.35.41.05.65.2.23.15.52.32.12.24.18.44.06.21.18.38zm9.6 10.37q-.17.53-.43 1-.27.47-.97.47-.24-.12-.5-.18t-.44-.23q-.17-.35-.17-.76 0-.18.05-.3.06-.11.12-.29l.76-.58.59-.06q.23.23.5.44.26.2.49.49zm-10.01-5.39l.64.24q-.12.47-.35.82-.24.35-.18.88-.29 0-.53-.03-.23-.03-.46-.03-.06 0-.18.03t-.12.09q-.29-.24-.41-.33-.11-.08-.47-.2 0-.24.03-.38.03-.15.09-.38 0-.06-.12-.3.24-.29.56-.55.32-.27.79-.27.41 0 .71.41zm4.39 5.98q-.53.82-1.41.82-.23 0-.7-.12-.06-.23-.18-.41-.11-.17-.11-.47v-.29q.11-.29.26-.5.15-.2.15-.49.47 0 .88.14.41.15.88.27.11.29.11.52 0 .24.12.53zm21.44 22.03q-.41.41-.82.5-.41.09-.87.26-.82-.52-.82-1.34 0-.36.41-.8.41-.43.82-.43.46 0 .58.2.12.21.41.26.24.36.21.5-.03.15-.03.5 0 .23.11.35zm-26.48-23.32l1 .88q-.18.35-.38.73-.21.38-.56.62-.29 0-.59.03-.29.03-.58.03 0-.41-.24-.53-.23-.12-.23-.65 0-.29.17-.55.18-.27.41-.5h.24q.12 0 .2-.03.09-.03.21-.03h.35zm21.56 23.09q0 .23-.11.41-.12.17-.24.41-.58.29-1.4.29-.24-.23-.39-.47-.14-.23-.32-.47 0-.29.06-.55.06-.27.06-.56.35 0 .41-.18.06-.17.12-.46.58.23.85.32.26.09.61.61.12.18.24.3.11.11.11.35zm-20.91-17.23q0 .47-.12.85t-.12.79q-.29.12-.59.24-.29.11-.58.11h-.59q-.11-.47-.26-.61-.15-.15-.15-.79 0-.3.06-.41l1.29-.77q.29.24.5.36.2.11.56.23zm15.93 16.88q-.17.35-.2.64-.03.29-.27.59-.46.17-.82.17-.47 0-.79-.35-.32-.35-.32-.82 0-.18.12-.41.11-.12.29-.26.18-.15.29-.33l.18-.17q.88 0 .97.17.08.18.55.77zm-15.7-10.96q-.12.41-.23.53-.12.11-.06.52-.3.12-.59.24-.29.11-.59.11-.17 0-.35-.02-.17-.03-.35-.03-.12-.3-.29-.53-.18-.24-.18-.59v-.35q.41-.82 1.06-.82.29 0 .55.06.27.06.56.06.12.23.21.44.08.2.26.38zm10.31 11.25q0 .47-.29.88-.29.41-.82.41-.47 0-.85-.32-.38-.33-.38-.85 0-.47.23-.68.24-.2.53-.5.47.06.85.18t.67.47q.06.12.06.41zm-10.43-6.21q-.06.29-.14.55-.09.27-.33.44-.58.24-.93.24-.59 0-.8-.38-.2-.38-.26-.85.29-.59 1-1.29.29.29.52.26.24-.03.53.27 0 .17.12.41.18.05.29.35zm5.28 6.85q-.47.12-.68.3-.2.17-.67.17-.41 0-.65-.23-.11-.24-.26-.41-.15-.18-.15-.47 0-.24.09-.41.09-.18.15-.35.29-.18.55-.38.27-.21.68-.21.35 0 .53.06.05.41.23.5.18.09.18.38 0 .17-.09.32t-.09.26q0 .12.06.24t.12.23zm-5.75-1.34q-.06 1.05-.93 1.64-.36-.24-.82-.12-.18-.18-.33-.41-.14-.24-.38-.35v-.41q0-.24.06-.41.06-.18.06-.35.29-.18.61-.3.33-.11.62-.35.53.24.62.5.08.26.49.56zm70.32-35.86q0 .29-.33.73-.32.44-.67.44-.64 0-1-.18-.35-.17-.64-.76.06-.18.09-.38.03-.21.14-.32l.12-.59q.12 0 .24-.06.23-.11.41-.11.29 0 .52.08.24.09.53.09.23.24.41.5.18.26.18.56zm-4.11-3.17q0 .24-.23.59-.47.23-.88.23-.17 0-.32-.03t-.32-.08q-.24-.24-.41-.53-.18-.3-.47-.53.29-.41.64-.76.35-.35.82-.35.06 0 .41.11.3.3.53.59.23.29.23.76zm-4.57-3.69v.53q0 1.17-1.05 1.17-.47 0-.88-.29-.41-.3-.41-.82v-.36q.23-.29.56-.55.32-.27.73-.27.35 0 .56.21.2.2.49.38zm-6.44-.7v.58q0 .3-.06.59l-.12.59q-.47.11-.7.11-.82 0-1.52-.7v-.35q0-.24.03-.41.03-.18-.03-.35.41-.12.82-.53.47.06.79.2.32.15.79.27zm-5.57 2.58q-.64.52-1.11.52-.24 0-.41-.09-.18-.08-.35-.2-.12 0-.47.12v-.79q0-.38.06-.79.58-.42 1.11-.42.29 0 .53.12.23.12.53.24 0 .29.05.64.06.35.06.65zm20.33 23.49q-.05.29-.11.59-.06.29-.3.52-.29.12-.49.12-.21 0-.44.3-.41-.3-.76-.53-.36-.24-.36-.76.12-.3.21-.53.09-.24.26-.47.59-.12.88-.12.82 0 1.11.88zm-4.68-.41q0 .76-.47 1.23-.24 0-.44.03-.21.03-.44.03-.24 0-.56-.32-.32-.32-.44-.5.12-.94.47-1.2t1.23-.26q.12.17.18.32.06.14.17.32.3.12.3.35zm-21.33-20.68q-.18.47-.18.88-.23.35-.5.47-.26.11-.55.29-.29 0-.59-.12-.29-.12-.58-.12 0-.11.03-.17.03-.06.03-.18-.06-.17-.12-.35-.06-.17-.06-.35 0-.23.06-.35.06-.12-.06-.41.29-.12.61-.27.33-.14.68-.14.47 0 .7.26.24.26.53.56zm25.84 27.3q0 .47-.38.79-.38.33-.85.33-.24 0-.59-.12-.17-.29-.44-.56-.26-.26-.26-.61 0-.24.12-.47.29-.18.55-.35.27-.18.56-.3.35 0 .47.15t.64.03q0 .29.09.56.09.26.09.55zm-10.2-6.56q0 .23-.23.7-.24.47-.29.59h-1.23q-.24-.18-.39-.38-.14-.21-.38-.44.12-.29.12-.62v-.61q.47 0 .56-.06.09-.06.44-.35.29.17.44.14.14-.02.44.03.17.24.35.47.17.24.17.53zm10.02 12.42q-.29.29-.44.47-.14.18-.61.18h-.59q-.23-.24-.38-.41-.15-.18-.38-.3 0-.29.09-.52.09-.24.09-.53.29-.29.47-.44.17-.15.64-.15.29.12.5.24.2.11.5.17 0 .3.05.65.06.35.06.64zm-30.64-26.78q-.29.59-.59.71-.29.11-.94.11-.29-.29-.61-.55-.32-.27-.32-.73.29-.53.47-.8.17-.26.82-.26.41 0 .88.29.29.53.29 1.23zm14.76 14.48v.41q-.35.11-.38.26-.03.15-.14.44h-.3q-.11.06-.29.12t-.29.06q-.24 0-.62-.27-.38-.26-.55-.44 0-.17-.03-.35-.03-.17-.03-.35 0-.47.29-.7.29-.24.59-.47.05 0 .41.12.11.05.29.05l.94.36q0 .11.06.29 0 .12.02.23.03.12.03.24zm15.53 15.64l.7.7q0 .94-.58 1.59-.24 0-.44.03-.21.03-.44.03-.35 0-.7-.36-.18-.41-.18-.87 0-.24.03-.44.03-.21.03-.5.18-.06.38-.12.21-.06.38-.06h.82zm-4.16 1.47l.35.58-.11.82q-.41.65-1.12.65-.41 0-.64-.21-.24-.2-.59-.38v-.41q0-.53.29-.91.3-.38.88-.38.41 0 .44.18.03.17.5.06zm-28.89-24.96q0 .41-.11.58-.18.18-.35.32-.18.15-.47.15-.65 0-.91-.12-.26-.11-.73-.58.11-.24.11-.35-.11-.12-.11-.3v-.29q.41-.12.64-.35.24-.24.7-.24.3.12.53.15.24.03.38.12.15.09.24.29.08.21.08.62zm24.5 26.83v.24q-.24.29-.56.52-.32.24-.67.24h-.36q-.76-.35-.76-1.17 0-.24.12-.59.29-.12.59-.23.29-.12.64-.12.41 0 .7.29.12.24.18.41.06.18.12.41zm-24.55-19.28v.71q-.41.41-1.18.41h-.64q-.18-.18-.38-.41-.21-.24-.21-.53 0-.41.12-.64.12-.24.35-.53.24-.06.41-.12.18-.06.35-.06.3 0 .5.06.21.06.5.18.18.47.18.93zm18.45 18.17q-.06.12-.17.47.11.11.11.29-.35.29-.64.56-.29.26-.64.26-.41 0-.53-.23-.12-.24-.53-.3-.06-.23-.06-.64 0-.65.41-1.06.12 0 .3-.03.17-.02.35-.02.47 0 .79.2.32.21.61.5zm-16.17-10.49q-.29.29-.41.47-.12.17-.41.35-.47 0-.67-.03-.21-.03-.35-.12-.15-.08-.3-.23-.14-.15-.44-.38v-.41q0-.59.41-.85t.94-.26q.59 0 1.11.41 0 .11-.03.23-.02.12-.02.23 0 .36.17.59zm9.26 8.96q-.06.3-.03.5.03.21.03.44l-.7.71q-.53-.06-1.06-.3-.53-.23-.53-.88 0-.23.03-.41.03-.17-.03-.41.71-.29 1.23-.29.82 0 1.06.64zm-6.33-2.81q0 .3-.12.76l-1.4.12q-.3-.29-.56-.56-.26-.26-.26-.73t.38-.73q.38-.26.85-.26.35 0 .82.17.29.71.29 1.23zm74.41-37.67q0 .41-.26.67-.26.26-.56.44-.11 0-.23-.03-.12-.03-.23-.03-.06 0-.15.03t-.15.03q-.47 0-.76-.44-.29-.44-.29-.85 0-.53.14-.73.15-.21.39-.27.23-.05.49-.08.27-.03.5-.21.35.24.73.62t.38.85zm0 6.85q0 .82-.58.94-.59.12-1.17.23l-.82-.7q.06-.76.14-1.35.09-.58 1.09-.58.52 0 .93.47.41.46.41.99zm.18 8.09q-.29.12-.47.17-.17.06-.29.36-.47.11-.7.11-.41 0-.91-.29t-.5-.76q0-.3.09-.53.09-.23.2-.53.3-.11.53-.17.23-.06.53-.06h.52l.71.47q0 .11-.03.26-.03.15-.03.26 0 .18.12.39.11.2.23.32zm-.18 7.26q0 .36-.17.56-.18.21-.18.67h-1.64q-.11-.17-.2-.41-.09-.23-.27-.35-.11-.35-.11-.52 0-.47.29-.83.29-.35.76-.35.29 0 .53.09.23.09.53.09.11.29.29.53.17.23.17.52zm-.46 6.39q0 .35-.03.7-.03.36-.03.71-.41 0-.62.14-.2.15-.5.15-.41 0-.7-.21-.29-.2-.64-.38 0-.76.06-.99.05-.24.46-.88.18 0 .38-.03.21-.03.39-.03.23 0 .7.12.12.17.23.35.12.17.3.35zM485.2 18.64q-.47.82-1.46.82-.35 0-.59-.18-.23-.17-.52-.47 0-.11-.03-.26-.03-.15-.03-.26 0-.3.17-.59.18-.29.3-.59.23 0 .43-.06.21-.05.44-.05.3 0 .56.14.26.15.56.27.11.35.11.64 0 .29.06.59zm31.7 35.33v.35q-.29.29-.35.38-.06.09-.17.56h-.71q-.58 0-.7-.3-.12-.29-.41-.29-.18-.29-.12-.58.06-.3.18-.65.11-.12.47-.44.35-.32.58-.32.24 0 .47.12.18.17.47.52.29.36.29.65zm-31.58-29.12q0 .53-.35.91t-.88.38q-.53 0-.91-.3-.38-.29-.85-.46.24-.3.24-.36v-.58q.29-.3.58-.56.3-.26.76-.26.18 0 .36.03.17.03.35.03.17.29.38.58.2.29.32.59zm27.13 34.04q0 .35-.44.79-.44.44-.85.44-.23 0-.59-.17l-.58-.3q0-.58-.41-1.05.47-.3.64-.68.18-.38.82-.38.53 0 .97.41.44.41.44.94zm-27.13-26.84q0 .24-.12.59-.23.18-.44.35-.2.18-.49.3h-.56q-.26 0-.56-.12l-.64-.47q.06-.29.03-.65-.03-.35.03-.7l.82-.58q.47 0 .67.02.21.03.35.12.15.09.3.21.14.11.49.29.06.18.09.32.03.15.03.32zm0 7.68q-.47.35-.7.76-.3 0-.5.03-.21.03-.44.03h-.47q-.41-.53-.5-.73-.08-.21-.08-.29v-.24q0-.15-.18-.56.29-.29.56-.46.26-.18.49-.47.3.23.68.29.38.06.73.29.18.3.23.65.06.35.18.7zm20.22 21.74q0 .47-.33.73-.32.26-.67.44-.18 0-.38-.09-.21-.09-.32-.2-.18 0-.3.06-.11-.24-.32-.38-.2-.15-.32-.39.06-.46.14-.7.09-.23.33-.64.58-.18 1.29-.18.23.18.49.32.27.15.39.44-.06.24-.03.35.03.12.03.24zm-19.87-15.29q0 .46-.23.64-.24.18-.53.47-.29 0-.62.03-.32.03-.61.03l-.7-.88v-.88q.47-.47.85-.62.38-.14.96-.2.18.23.38.41.21.18.44.41 0 .12.03.26.03.15.03.33zm12.48 14.88q-.17.53-.52.99-.36.47-1 .47-.35 0-.82-.23-.18-.29-.32-.53-.15-.23-.15-.53 0-.41.23-.7.24-.29.53-.58l1.23.17q.18.41.35.53.18.12.47.41zm-11.19-8.03l-.53 1.06q-.23.11-.44.17-.2.06-.49.06-.82 0-.94-.5t-.24-1.14q.65-.76 1.59-1 .29.41.64.62.35.2.41.73zm4.34 5.22q-.18.76-.33.9-.14.15-.61.74-.29-.24-.53-.27-.23-.03-.58-.08-.18-.3-.41-.41-.24-.12-.47-.3.11-.35.17-.55.06-.21.06-.56.53-.53 1.17-.53h.41q.53.35.65.41t.47.65zm40.31-39.96q0 .46-.35.79-.35.32-.76.32-.3 0-.56-.15-.26-.14-.56-.32-.11-.23-.17-.41-.06-.18-.06-.41 0-.65.67-.94.68-.29 1.14-.41.12.18.27.44.15.26.26.32.06.24.09.41.03.18.03.36zm-.12 6.32q-.47.35-.67.62-.21.26-.85.26-.18 0-.53-.35-.35-.35-.35-.59-.06-.7.18-1.2.23-.49.87-.49.53 0 .74.26.2.26.5.56v.29q0 .12.05.32.06.21.06.32zm.12 5.51q-.12.65-.26.97-.15.32-.56.61-.35 0-.7-.03-.36-.03-.71-.08l-.2-.85q-.09-.38-.21-.85h.18q.12 0 .17-.06.18-.29.33-.44.14-.15.55-.15.59 0 .85.12.27.12.56.76zm26.72 30.41q-.12.35-.5.85t-.79.5q-.24 0-.44-.09-.21-.09-.44-.09-.18-.29-.35-.61-.18-.32-.18-.62 0-.29.24-.58.23-.3.41-.47.11 0 .26-.03.15-.03.32-.03.3 0 .5.12.21.11.5.11.06.47.47.94zM531.38 36.1q0 .64-.09.85-.09.2-.44.79-.71 0-1.53-.41l-.2-.44q-.09-.21-.09-.44v-.41q.29-.29.62-.5.32-.2.73-.2.23 0 .58.11.06.18.12.38.06.21.3.27zm22.14 25.13q-.47.12-.55.18l-.44.29q-1.06-.11-1.53-.88.06-.46.3-1.11.52-.53 1.11-.53.41 0 .62.33l.38.61v.65q0 .11.11.46zm-21.85-18.57q0 .29-.15.53-.14.23-.14.52-.36.12-.71.18t-.76.12q-.29-.3-.53-.68-.23-.38-.23-.85 0-.11.03-.26.03-.15.03-.26.29-.24.58-.35.3-.12.41-.47l1.12.58q.35.47.35.94zm16.93 17.81q0 .24-.06.41-.06.18-.06.41-.23.12-.44.27-.2.14-.49.14-.47 0-.85-.23-.38-.24-.38-.76 0-.41.14-.71.15-.29.27-.76.35.12.52.12.12 0 .33-.09.2-.09.32-.14.17.29.44.64.26.35.26.7zm-5.21-.17q0 .23-.06.41-.06.17-.12.41-.17.17-.41.26-.23.09-.23.38l-1.23-.29q-.18-.29-.33-.56-.14-.26-.08-.55v-.41q.29-.3.67-.53.38-.24.85-.24.23 0 .7.12.12.29.18.5.06.2.06.5zm-11.72-12.19q0 .35-.03.7t-.09.71q-.23.23-.5.44-.26.2-.61.2-.65 0-.85-.41-.21-.41-.56-.53v-.35q0-.29.15-.53.14-.23.2-.52.3-.06.59-.09t.53-.27q.29.12.58.39.3.26.59.26zm6.09 12.36q0 .12-.03.24-.03.11-.03.23-.29.24-.52.47-.24.23-.65.23-.47 0-.82-.43-.35-.44-.35-.91 0-.59.47-.94.17 0 .38-.06.2-.06.44-.06h.53q.17.3.38.56.2.26.2.67zm-6.09-5.04q-.29.3-.59.62-.29.32-.76.32-.35 0-.7-.23-.35-.24-.47-.59 0-.29.03-.7t.38-.53q.29-.23.53-.38.23-.15.64-.15.53.3.65.74.11.43.29.9zm-.29 6.16q-.3.11-.59.32-.29.2-.65.2-.46 0-.79-.41-.32-.41-.32-.88 0-.41.29-.7.3-.29.53-.58.47.11.79.2.32.09.68.38 0 .35.03.73t.03.74zm50.91-43.48q0 .47-.17.76-.18.29-.3.76h-.93q-.35-.23-.65-.29-.29-.06-.29-.59 0-.23.06-.44.06-.2.06-.38.35-.52.99-.52.24 0 .71.11.11.24.17.36.06.11.35.23zm3.28 5.68q-.11.24-.41.56-.29.32-.35.5l-.29.11q-.47 0-.76-.17-.3-.18-.71-.47.12-.47.27-1.03.14-.55.79-.55.59 0 .97.2.38.21.49.85zm2.7 7.56l-.7.82q-.36.12-.47.12-.3 0-.56-.12-.26-.12-.56-.23-.05-.18-.11-.35-.06-.18-.06-.41 0-.06.12-.41.58-.59 1.52-.59.47.47.82 1.17zm-8.79-6.44q0 .47-.41.79-.41.32-.88.32-.23 0-.47-.12-.11.06-.23.09-.12.03-.24.09-.05-.35-.14-.73-.09-.39-.09-.74t.2-.49q.21-.15.44-.44.3 0 .65.03.35.02.64.02.12.3.33.56.2.26.2.62zm11.54 12.71q0 .24-.08.47-.09.23-.09.47-.3.06-.53.2-.23.15-.53.15-.29 0-.58-.2-.3-.21-.59-.27 0-.12.06-.2.06-.09.06-.21t-.06-.26q-.06-.15-.12-.27.3-.35.65-.67.35-.32.82-.32.41 0 .7.35t.29.76zm1.82 6.56q0 .77-.44.85-.44.09-.97.38-.23-.23-.47-.35-.23-.11-.41-.41-.05-.29-.11-.61-.06-.33-.18-.62.35-.17.73-.32.39-.15.85-.15.59 0 .79.35.21.36.21.88zm2.52 4.69q0 .47-.18 1-.29.11-.58.2-.3.09-.59.09-.99 0-.99-1 0-.17.02-.32.03-.14.03-.26l.59-.7q.29.11.56.11.26 0 .55.06.41.41.59.82zm-18.98-17.46q-.36.35-.8.64-.44.3-.96.3-.3 0-.65-.35-.17-.41-.17-.88 0-.18.06-.35.05-.18.05-.36.24-.11.44-.26.21-.15.5-.15.24 0 .41.18.24 0 .41.06.18.06.35.06.12.35.15.58.03.24.21.53zm10.72 13.95q0 .58-.53.93-.47.06-1.11.35l-.94-.64q.12-.23.09-.44-.03-.2-.03-.5.29-.52.47-.7.17-.18.32-.21.15-.02.29-.05.15-.03.32-.21l.88.47v.29q0 .18.12.32.12.15.12.39zm9.78 9.55l.24.29q-.18.64-.56.97-.38.32-1.02.49-.3-.29-.56-.49-.27-.21-.5-.5.06-.24.12-.44.06-.21.06-.5.29-.12.41-.29.11-.18.35-.35.35.11.7.17.35.06.7.24 0 .29.06.41zm2.29 6.21q-.12.23-.32.41-.21.17-.39.29-.46-.12-.82-.12-.35 0-.64-.06-.06-.29-.15-.58-.08-.29-.08-.59 0-.35.41-.58.41-.24.76-.24.47 0 .99.18.12.29.15.61.03.33.09.68zM582 45q0 .3-.03.53-.03.24-.03.53l-.29.17q-.65.24-1.41.24-.47-.47-.47-.79 0-.32-.11-.91.64-.64 1.4-.64h.41l.24.46q.11.24.29.41zm-8.73-6.27q-.29.18-.62.39-.32.2-.67.2-.47-.29-.76-.53-.29-.23-.29-.76l-.12-.35q.64-.41.91-.41.26 0 .91-.06l.23.12q.29.29.29.67 0 .38.12.73zm3.63 6.8l-.64.82q-.24.12-.47.12-.24 0-.44-.06-.21-.06-.44-.12-.12-.23-.18-.44-.05-.2-.35-.32.12-.53.35-.79.24-.26.65-.61.29.11.58.11.3 0 .59.06.12.29.15.62.03.32.2.61zm-6.15-.99q-.23.35-.47.7-.23.35-.7.35-.41 0-.85-.35t-.44-.76q0-.35.29-.79.3-.44.71-.44.29 0 .49.11.21.12.5.18.24.23.26.47.03.23.21.53zm-2.64 5.62h.06q0 .53-.47.85-.47.32-.93.44-.41-.35-1-.53 0-.23-.06-.38t-.06-.38q0-.29.24-.59.23-.29.41-.46.82 0 1.46.23.12.23.18.41.06.18.17.41zm-2.4 5.98q0 .35-.35.67-.35.32-.7.32-.24 0-.47-.23-.3-.12-.53-.35-.23-.24-.23-.53v-.41q.17-.18.32-.26.14-.09.2-.39h.53q.29 0 .53.09.23.09.47.21.23.58.23.88zm-1.7 4.57q0 .17-.12.52-.17.18-.35.18-.17 0-.17.29h-.65q-.47 0-.85-.29t-.38-.76q0-.7.71-1.29.11.06.29.12.17.06.29.06.12 0 .18-.03t.17-.03q.3 0 .47.14.18.15.35.27 0 .23.03.44.03.2.03.38zm68.97-39.38l1.17 1.23q-.18.35-.18.47t-.06.47q-.41.12-.49.32-.09.21-.62.21-.29 0-.53-.15-.23-.15-.52-.2-.12-.3-.21-.56-.09-.26-.09-.56 0-.17.03-.32t.09-.32q.35-.12.73-.21.38-.08.68-.38zm-4.34-2.81q0 .23-.03.44-.03.2-.03.44-.29.17-.64.38-.35.2-.71.2-.46 0-.64-.23t-.41-.53q-.29-.47-.15-.55.15-.09.03-.62.24-.17.47-.32.24-.15.53-.15.47 0 .91.27.44.26.67.67zm6.86 10.14v.58q0 .24-.21.41-.2.18-.26.47l-1.23.29q-.3-.29-.44-.61-.15-.32-.44-.62.12-.41.32-.76.21-.35.44-.7.29 0 .5.06.2.06.5.06.23.23.44.38.2.14.38.44zm-13.01-10.78q0 .41-.15.64-.14.23-.44.53-.17 0-.38.03-.2.03-.44.03-.58 0-.79-.47-.2-.47-.5-.82.47-.47.53-1 .23 0 .44-.03.2-.03.44-.03.35 0 .59.18.23.17.58.23.12.47.12.71zm10.96 16.69v.53q0 .29-.03.56-.03.26-.03.55l-.88.18h-.73q-.33 0-.8-.29-.11-.41-.02-.5.08-.09-.03-.62.46-.76.76-.85.29-.08 1.11-.38l.65.82zm-17.58-16.64q0 .36-.3.53 0 .18.12.41-.29.06-.56.21-.26.14-.55.14-.29 0-.5-.06-.2-.05-.5-.11-.29-.24-.35-.5t-.29-.5q.41-.41.47-.88.35-.29 1.11-.29h.35q.12.12.26.29.15.18.27.18.23.11.29.26.06.15.18.32zm-6.8.18q-.18.53-.18 1-.29.11-.64.2-.35.09-.7.09-.53 0-.94-.41 0-.24-.09-.41-.09-.18-.09-.47.18-.29.27-.59.09-.29.32-.58l.18.23q.35-.12.46-.12.24 0 .5.15.27.15.5.26 0 .3.09.39.09.08.32.26zm19.1 21.21q0 1.47-1.4 1.47-.65 0-1.12-.47.06-.59.09-.91.03-.32.32-.85.18-.06.35-.12.18-.06.41-.06.41 0 .74.33l.61.61zm-19.22-15.35l.12 1.05q-.35.36-.79.59-.44.23-.97.23-.41-.41-.76-.93-.17-.53-.17-.68 0-.14.02-.2.03-.06.12-.09t.09-.21q.29-.11.56-.26.26-.15.55-.15.3 0 .65.21.35.2.58.44zm17.17 20.57q0 .41-.17.7-.18.29-.24.64-.23 0-.47-.03-.23-.03-.53-.03-.11 0-.32.09-.2.09-.32.15-.06-.35-.23-.7-.18-.36-.18-.77v-.7l1.29-.53q.29.12.56.27.26.14.55.26 0 .18.03.35.03.18.03.3zm-5.04-4.4q.06.41.09.5.03.09.03.56 0 .52-.44.76-.44.23-.91.23-.35 0-.7-.17-.12-.3-.27-.5-.14-.21-.26-.5 0-.35.18-.62.17-.26.29-.55.29 0 .5-.06.2-.06.5-.06.46 0 .52.09t.47.32zm7.27 11.37q-.41 0-.68-.24-.26-.23-.55-.52.06-.41.11-.82.06-.41.36-.77.29-.17.61-.17t.68-.06q.11.12.29.26.17.15.29.33.41.46.06 1.23-.35.76-1.17.76zm5.1 4.04q0 .47-.36.7l-.35.41q-.47-.05-.88-.08-.41-.03-.76-.33-.12-.29-.2-.55-.09-.27-.09-.56 0-.29.44-.61.44-.33.73-.33t.59.21q.29.2.58.32.3.41.3.82zm-24.38-24.08q0 .41-.23.73-.24.32-.47.68-.18 0-.35.02-.18.03-.36.03-.99 0-1.28-1.05.11-.35.05-.76.3-.12.38-.3.09-.17.27-.35.47 0 .94.15.46.15.93.26.12.35.12.59zm27.83 28.65q0 .35-.26 1.11-.26.77-.73.77-.3 0-.53-.09-.24-.09-.53-.09-.17-.23-.38-.35-.2-.12-.38-.29.06-.59.15-.91.08-.32.29-.5.2-.18.53-.26.32-.09.85-.21.52.35.99.82zm-22.61-20.21l.58.82q-.12.47-.17.7-.06.23-.36.59-.35.17-.76.17-.47 0-.82-.44t-.35-.91q0-.23.09-.44.09-.2.2-.38.41-.17.76-.17.24 0 .42.03.17.03.41.03zm-5.16-1.47q-.12.41-.35.88-.24.47-.94.47-.35 0-.62-.06-.26-.06-.55-.18-.12-.29-.12-.49 0-.21-.29-.5.35-.35.67-.68.32-.32.91-.32h.47q.29.18.41.44.12.27.41.44zm-.06 7.74q-.12.23-.67.67-.56.44-.85.44-.12-.18-.59-.41-.47-.24-.64-.29.17-.36.17-.41v-.88q.47-.12.71-.27.23-.14.7-.14.17 0 .35.03.18.03.35.03.41.7.47 1.23zm0 7.03q0 .29-.18.55-.17.27-.41.44-.46.18-.93.18-.65 0-.71-.24-.05-.23-.41-.58v-.24q0-.17.03-.35.03-.17.03-.35.3-.17.59-.38.29-.2.64-.2.24 0 .44.05.21.06.44.06.12.24.29.53.18.29.18.53zm0 7.5q0 .23-.12.58-.29.12-.41.33-.11.2-.41.32-.35-.12-.73-.18t-.73-.17q-.12-.3-.21-.53-.08-.24-.08-.53 0-.47.35-.64.11-.18.29-.35.18-.18.41-.18.64 0 1.14.32.5.32.5 1.03z"/></svg>