<svg viewBox="0 0 334 80" xmlns="http://www.w3.org/2000/svg"><path d="M54.66 38.94q-3.66 6.54-8.97 9.3Q40.38 51 32.94 51q-6.78 0-12-4.29t-5.22-11.55q0-4.8 2.49-8.82 2.49-4.02 6.39-6.6 3.18-2.22 7.26-3.42 4.08-1.2 8.46-1.2.72 0 1.41.03t1.41.09q2.46.18 4.83.87t4.23 2.37q.96.84 1.38 1.89.42 1.05.42 2.13 0 2.22-1.62 4.05-1.62 1.83-4.2 1.89-1.5.06-2.64-.51-1.14-.57-2.16-1.41-.24-.18-.48-.39-.24-.21-.48-.45.18-.06.33-.15.15-.09.33-.15 1.2-.66 2.1-1.41.9-.75 1.44-2.19.12-.24.15-.45.03-.21.03-.45 0-1.02-.84-1.56t-2.04-.54q-3.24 0-5.76 2.58-2.52 2.58-4.26 5.7-.72 1.32-1.29 2.64-.57 1.32-.99 2.4-.48 1.32-.9 3-.42 1.68-.48 3.36v.66q0 2.22.87 4.14.87 1.92 3.21 2.76.84.3 1.71.45.87.15 1.77.15h.45q.21 0 .39-.06 3.72-.24 7.08-2.61t4.98-5.49q.06-.12.12-.21t.12-.21q.06-.06.12-.18l.12-.24 2.28.84 1.2.48zm30.48-6.24q.12.36.12.72v.66q0 2.22-1.35 3.51-1.35 1.29-2.97 1.29h-.18q-1.26 0-2.4-.84t-1.62-2.7q-.18-.54-.45-.81t-.63-.21q-.6 0-1.35.69-.75.69-1.59 1.89-1.44 1.86-2.46 4.14-1.02 2.28-1.8 4.62-.36 1.02-.66 1.98-.3.96-.66 1.92l-.24.72-.24.72h-11.1l4.98-13.92q.12-.24.12-.42v-.3q0-.66-.51-.87-.51-.21-1.17-.15-1.56.18-2.76 1.44-1.2 1.26-1.98 2.7-.18.3-.36.66-.18.36-.3.66l-3-1.2q1.56-4.08 4.59-7.35 3.03-3.27 7.59-3.51.42-.06.87-.06t.93.06q1.98.12 3.81.99t2.91 2.61q1.32-.96 2.79-1.8 1.47-.84 3.03-1.32.72-.24 1.41-.33.69-.09 1.35-.09.9 0 1.77.24t1.65.72q.78.54 1.23 1.32.45.78.63 1.62zm31.92 7.8q-1.5 3-3.36 5.46-1.86 2.46-5.16 4.02-1.98.9-4.17 1.32-2.19.42-4.47.42h-.72q-.36 0-.66-.06-1.44-.06-2.82-.33t-2.7-.69q-3.48-1.2-5.73-3.66-2.25-2.46-2.25-5.82 0-.84.15-1.71t.45-1.77q1.2-3.6 4.86-5.61 3.66-2.01 7.8-2.55.9-.12 1.77-.18t1.71-.06q1.26 0 2.46.12t2.22.42q.18.06.33.09.15.03.33.09 1.74.48 3.27 1.68t1.59 3.24q.12 3.24-2.7 5.1-2.82 1.86-6.18 2.7-1.86.48-3.6.66-1.74.18-3 .12.3 2.16 1.65 3.33Q99.48 48 101.7 48q4.5 0 7.56-2.52 3.06-2.52 4.8-6.36l3 1.38zm-10.98-6.78q0-1.02-.54-1.44-.54-.42-1.56-.48-2.22-.06-3.84 1.68-1.62 1.74-2.46 3.84-.3.72-.48 1.44t-.3 1.32q.72-.06 1.5-.18t1.56-.36q2.28-.6 4.17-1.98 1.89-1.38 1.95-3.84zm46.02 6.78q-2.22 4.74-5.31 7.89-3.09 3.15-8.85 3.15h-.3q-1.92-.06-3.63-.87T131.46 48q-1.62 1.5-3.69 2.43-2.07.93-4.23 1.11-.24.06-.51.06h-.57q-2.1-.06-4.05-.84-1.95-.78-3.45-2.64-1.14-1.38-1.65-2.88t-.51-3.06q0-2.76 1.47-5.34t3.75-4.32q1.74-1.32 4.02-2.19 2.28-.87 4.68-.99.24-.06.51-.06h.51q1.92 0 3.72.57 1.8.57 3.24 1.77l.6-1.8H147q-.36 1.08-.75 2.19-.39 1.11-.75 2.19-.78 2.16-1.53 4.35-.75 2.19-1.47 4.41 0 .06-.06.15t-.06.27q-.06.12-.12.33-.06.21-.06.39-.06.12-.06.24v.24q0 .24.09.48t.33.3q.12.06.27.09.15.03.33-.03.36 0 .69-.15.33-.15.69-.33.66-.42 1.32-1.08.66-.66 1.2-1.38.54-.66.93-1.32t.57-1.08l.12-.24.12-.24q0-.12.06-.24l.12-.24 3.12 1.38zm-19.02-5.94q0-.72-.21-1.14-.21-.42-1.05-.42-.3 0-.6.06t-.6.18q-1.14.48-2.28 1.68t-2.04 2.58q-.66.96-1.17 1.89-.51.93-.75 1.59-.06.18-.21.6t-.27.96q-.12.42-.24.87t-.18.93q-.12.36-.15.78-.03.42-.03.78 0 .9.3 1.5t1.08.6q1.74 0 3.09-1.44 1.35-1.44 2.31-3.18.54-.9.9-1.74t.66-1.5q.72-1.86 1.08-3.24.36-1.38.36-2.34zm68.76 6q-2.22 4.56-5.34 7.77-3.12 3.21-8.76 3.21-.42 0-.87-.03t-.93-.09q-1.38-.18-2.67-.69t-2.13-1.65q-.6-.84-.84-1.71t-.24-1.83q0-.42.03-.81.03-.39.09-.81.18-1.02.51-2.01.33-.99.69-1.89.06-.18.24-.66.18-.48.42-1.08.06-.24.18-.54.12-.3.18-.6.12-.48.21-.93.09-.45.09-.81 0-.48-.21-.81-.21-.33-.69-.33-1.08 0-2.04.99t-1.68 2.13q-.36.66-.66 1.29-.3.63-.48 1.11-.48 1.38-.96 2.79-.48 1.41-.96 2.79-.54 1.44-1.02 2.85-.48 1.41-.96 2.79h-11.88q.66-1.8 1.29-3.6t1.29-3.66q.6-1.8 1.23-3.6t1.23-3.6q.12-.36.18-.69.06-.33.06-.57 0-.6-.27-.84t-.75-.24q-.3 0-.63.09t-.63.27q-.36.18-.69.45-.33.27-.63.63-.9 1.02-1.95 2.91-1.05 1.89-2.25 5.07l-.39 1.14q-.39 1.14-.87 2.52-.36 1.2-.72 2.28l-.48 1.44h-11.22l7.26-21.06h11.22l-.48 1.32q1.38-.84 3.09-1.41t3.45-.69h.72q.84 0 1.71.12t1.65.42q1.26.42 2.28 1.29 1.02.87 1.44 2.25 1.8-1.92 4.05-2.94t4.65-1.02q.9 0 1.8.15t1.8.45q2.34.78 3.54 2.52 1.2 1.74 1.2 3.9 0 .72-.12 1.44t-.42 1.5q-.12.36-.36 1.02t-.48 1.38l-.12.36-.12.36q-.24.84-.45 1.59-.21.75-.21 1.23v.15q0 .09.06.21.06.06.21.06h.39q.3 0 .6-.09t.6-.27q.84-.48 1.68-1.38.84-.9 1.5-1.86.6-.84 1.05-1.59.45-.75.69-1.29l3 1.44zm32.58.06q-2.22 4.56-5.34 7.74-3.12 3.18-8.64 3.18-.36 0-.75-.03t-.75-.03q-1.5-.18-2.88-.69t-2.28-1.71q-.6-.84-.84-1.74t-.24-1.86V45q0-.24.06-.54.12-1.08.45-2.19.33-1.11.69-2.13.06-.12.09-.21t.09-.21q.06-.18.24-.57.18-.39.36-.87.12-.3.21-.57.09-.27.21-.57.12-.42.18-.84t.06-.78q0-.48-.21-.78-.21-.3-.69-.3-1.2 0-2.34 1.38t-1.98 3.06q-.6 1.14-1.05 2.22-.45 1.08-.63 1.68-.96 2.76-1.95 5.49-.99 2.73-1.89 5.49-.24.54-.42 1.11-.18.57-.36 1.11-.78 2.22-1.53 4.41t-1.53 4.41l-11.22.06q1.26-3.48 2.43-6.9 1.17-3.42 2.31-6.84.6-1.62 1.17-3.33t1.17-3.45q1.8-5.1 3.57-10.23 1.77-5.13 3.57-10.23h11.16l-2.58 7.38q1.38-.72 3.15-1.26t3.57-.66h.66q1.74 0 3.36.57 1.62.57 2.76 1.89.78.84 1.11 1.83.33.99.33 2.01 0 .6-.09 1.17t-.33 1.17q-.18.6-.39 1.23-.21.63-.45 1.29-.06.18-.15.39-.09.21-.15.45-.12.42-.27.84-.15.42-.27.84l-.12.24q-.06.12-.12.3-.06.12-.09.27-.03.15-.09.33-.06.18-.09.36t-.03.36q0 .3.15.51.15.21.57.21.3 0 .57-.06.27-.06.57-.24.84-.36 1.65-1.17.81-.81 1.41-1.65.48-.66.84-1.26t.54-1.02l.12-.24.12-.24.12-.24q.06-.12.06-.24l3.06 1.38zm33.48-.3q-.06.12-.15.27-.09.15-.15.33-1.02 2.04-2.25 4.02-1.23 1.98-2.97 3.48-1.68 1.38-3.75 2.13-2.07.75-4.77.75-2.58 0-4.5-1.2t-2.34-3.9q-2.04 2.16-4.77 3.66-2.73 1.5-5.85 1.5-3.24 0-4.77-1.95-1.53-1.95-1.53-4.53 0-.9.18-1.8t.48-1.74q.54-1.5 1.05-2.97.51-1.47.99-2.91.48-1.5.99-2.97.51-1.47 1.05-2.91h11.4q-.6 1.68-1.17 3.36t-1.11 3.36q-.6 1.68-1.17 3.36t-1.17 3.36q-.06.24-.15.51t-.09.51q0 .36.21.6t.75.24q.6 0 1.47-.45t1.89-1.71q1.32-1.5 2.25-3.51.93-2.01 1.71-4.11.3-.96.63-1.95t.69-1.95q.06-.24.15-.45.09-.21.15-.45 0-.12.03-.21t.09-.15q0-.06.03-.09l.03-.03q0-.06.03-.12t.03-.12h11.34q-.6 1.62-1.17 3.27t-1.11 3.27q-.54 1.68-1.11 3.33-.57 1.65-1.17 3.27-.18.48-.24.87t-.06.69q0 .48.21.69.21.21.57.21t.78-.18q.42-.18.9-.42l.6-.48.6-.48q1.14-1.02 1.86-2.19.72-1.17 1.32-2.55l3.06 1.44zm25.74-21.9q.84.72 1.35 1.68.51.96.63 1.98v.54q0 1.56-.96 2.85t-2.88 1.65q-.12 0-.24.03t-.24.03h-.48q-2.1 0-3.42-1.38-1.32-1.38-1.32-3.06v-.42q.12-.9.69-1.74t1.71-1.38h-.36q-1.86 0-3.15 1.77-1.29 1.77-2.13 3.93-.54 1.38-.96 2.7-.42 1.32-.66 2.1h5.52l-1.02 2.94h-5.58l-11.04 32.1h-10.74l10.98-32.1h-3.54l1.08-2.94h3.54q.18-.6.36-1.17t.36-1.11q.9-2.64 2.04-4.89 1.14-2.25 3.72-3.93 1.62-1.02 3.99-1.68 2.37-.66 4.83-.72h.48q2.1 0 4.08.51t3.36 1.71zm22.92 0q.84.72 1.35 1.68.51.96.63 1.98v.54q0 1.56-.96 2.85t-2.88 1.65q-.12 0-.24.03t-.24.03h-.48q-2.1 0-3.42-1.38-1.32-1.38-1.32-3.06v-.42q.12-.9.69-1.74t1.71-1.38h-.36q-1.86 0-3.15 1.77-1.29 1.77-2.13 3.93-.54 1.38-.96 2.7-.42 1.32-.66 2.1h5.52l-1.02 2.94h-5.58l-11.04 32.1h-10.74l10.98-32.1h-3.54l1.08-2.94h3.54q.18-.6.36-1.17t.36-1.11q.9-2.64 2.04-4.89 1.14-2.25 3.72-3.93 1.62-1.02 3.99-1.68 2.37-.66 4.83-.72h.48q2.1 0 4.08.51t3.36 1.71z"/></svg>