<svg viewBox="0 0 300 80" xmlns="http://www.w3.org/2000/svg"><path d="M37.19 33.6q-.5.91-1.31 2.41-.8 1.49-1.84 3.34-1.04 1.84-2.26 3.97-1.21 2.12-2.52 4.26-1.3 2.14-2.66 4.2-1.37 2.07-2.65 3.83 3.16-.33 6.09-1.62 2.93-1.28 5.49-3.2 2.57-1.92 4.69-4.31 2.12-2.39 3.63-4.95 1.51-2.57 2.35-5.14.83-2.58.83-4.87 0-1.93-.48-3.57-.49-1.64-1.47-2.84t-2.5-1.88q-1.53-.67-3.58-.67-1.9 0-3.82.36-1.92.37-3.68.99-1.75.61-3.23 1.45-1.48.83-2.54 1.8-1.17 1.29-2.06 2.58-.9 1.29-1.76 2.31-.87 1.03-1.86 1.67-1 .65-2.34.65-2.52 0-2.52-2.23 0-1.41.9-3.03.91-1.63 2.54-3.23 1.62-1.59 3.87-3.07 2.24-1.48 4.93-2.61 2.7-1.13 5.74-1.8 3.05-.68 6.27-.68 3.75 0 6.54 1.12 2.78 1.11 4.61 3.06 1.83 1.95 2.73 4.58.89 2.64.89 5.69 0 3.04-1.04 6.38t-3.05 6.57q-2 3.22-4.95 6.12-2.94 2.9-6.77 5.1-3.82 2.2-8.46 3.48-4.65 1.29-10.04 1.29-1.17 0-1.84-.74-.68-.75-.68-1.83 0-.85.3-1.65.29-.79.76-1.46l12.04-23.94q.85-1.31 1.68-2.11.84-.79 1.56-1.23.71-.44 1.27-.57.56-.13.85-.13 1.32 0 1.87.76.56.76.56 1.82 0 .85-.29 1.79-.29.93-.79 1.78zM65.58 44q-1.38 0-2.67.71-1.29.7-2.28 1.84-1 1.15-1.59 2.57-.58 1.42-.58 2.85 0 .59.07 1.22t.34 1.16q.26.52.74.87.49.36 1.31.36.64 0 1.51-.58.86-.57 1.78-1.46.93-.89 1.81-1.96.87-1.07 1.58-2.1.7-1.02 1.14-1.84.44-.82.44-1.2 0-.56-.38-1.02-.38-.45-.94-.77-.56-.32-1.19-.48-.63-.17-1.09-.17zm20.3 7.56q-.53.5-1.41 1.38-.88.88-2 1.9-1.13 1.03-2.41 2.07-1.27 1.04-2.6 1.89-1.34.85-2.63 1.39-1.29.54-2.43.54-1.02 0-1.76-.44-.73-.44-1.21-1.14t-.72-1.6q-.23-.89-.23-1.83 0-.61.08-1.21.09-.6.3-1.13-.91 1.23-2.07 2.53-1.16 1.31-2.49 2.38-1.33 1.07-2.78 1.75-1.45.69-2.95.69-.76 0-1.77-.31-1.01-.3-1.92-1.01-.91-.7-1.52-1.81-.62-1.12-.62-2.73 0-1.2.37-2.87.37-1.67 1.11-3.47.75-1.8 1.91-3.56t2.74-3.15q1.58-1.39 3.6-2.25 2.02-.87 4.51-.87 1.29 0 2.26.32.97.33 1.64.71.76.47 1.35 1.02.49-.26 1.02-.5.44-.2.92-.36.49-.16.84-.16 1.11 0 1.82.61.7.62.7 1.35 0 .2-.03.32-.15.56-.45 1.41l-.69 1.89q-.38 1.04-.78 2.17-.39 1.12-.72 2.21-.32 1.08-.52 2.03-.21.96-.21 1.63 0 .88.29 1.45.3.57 1 .57.44 0 1.04-.28.6-.28 1.3-.74.71-.47 1.45-1.07.75-.6 1.45-1.22 1.64-1.46 3.49-3.34.47-.38.91-.38.58 0 .98.57t.4 1.28q0 .82-.56 1.37zM92.12 59q0-1.4.63-2.87.63-1.46 1.6-3.01.96-1.56 2.11-3.15 1.14-1.6 2.16-3.27.3-.47.47-.89.18-.43.18-.87 0-.47-.27-.77-.26-.31-.76-.31-1.2 0-2.31.51-1.12.51-2.14 1.35-1.03.83-1.95 1.92-.92 1.08-1.73 2.24-.8 1.16-1.51 2.3-.7 1.14-1.29 2.08-.52.96-.96 2.11-.44 1.14-.95 2.11-.52.96-1.16 1.62-.65.66-1.61.66-1.06 0-1.67-.67-.62-.68-.62-1.61 0-.53.38-1.64.38-1.12.98-2.6t1.37-3.15q.76-1.67 1.51-3.31.74-1.64 1.4-3.09.66-1.45 1.1-2.47.53-1.26 1.39-1.88.87-.61 1.72-.61.73 0 1.3.54.57.54.57 1.57 0 .76-.35 1.67l1.7-1.59q.91-.85 1.98-1.56 1.07-.72 2.38-1.19 1.32-.47 2.96-.47.82 0 1.56.21.73.2 1.3.64.57.44.94 1.14.36.71.42 1.7.68-.67 1.47-1.33.79-.66 1.71-1.19.92-.52 2.01-.85 1.08-.32 2.4-.32.97 0 1.84.21.88.2 1.57.68.69.49 1.09 1.25.39.76.39 1.87 0 1.76-.8 3.34-.81 1.59-1.89 2.91-.36.43-.94 1.11-.59.67-1.14 1.43-.56.77-.97 1.57-.41.81-.41 1.51 0 .64.39.82.4.18 1.04.18 1.24 0 2.67-.74 1.44-.73 2.8-1.77 1.36-1.04 2.55-2.17 1.18-1.12 1.89-1.89.17-.2.41-.29.23-.09.47-.09.52 0 .95.47.42.47.42 1.23 0 .59-.35 1.29-.35.7-1.2 1.38-1.58 1.52-3.24 2.91-1.65 1.39-3.34 2.46-1.68 1.07-3.37 1.72-1.68.64-3.35.64-2.17 0-3.5-1.02-1.33-1.03-1.33-3.25 0-1.47.55-2.76.56-1.29 1.38-2.47.82-1.19 1.73-2.3.91-1.12 1.58-2.23.29-.47.47-.89.17-.43.17-.87 0-.47-.26-.77-.26-.31-.76-.31-1.2 0-2.32.51-1.11.51-2.13 1.35-1.03.83-1.95 1.92-.93 1.08-1.73 2.24-.81 1.16-1.51 2.3t-1.29 2.08q-.53.96-.97 2.11-.44 1.14-.95 2.11-.51.96-1.16 1.62-.64.66-1.61.66-.35 0-.76-.13-.41-.13-.75-.37-.33-.23-.55-.55-.22-.33-.25-.71zm36.21-24.34q0-.68.25-1.39.25-.72.75-1.31.49-.58 1.24-.96t1.77-.38q1.7 0 2.38.65.67.66.67 1.66 0 .56-.22 1.23-.22.67-.66 1.25-.44.57-1.14.95t-1.67.38q-1.82 0-2.55-.57-.73-.57-.82-1.51zm-3.22 6.59q.5-.82 1.14-1.17.64-.35 1.32-.35 1.11 0 1.92.71.8.72.8 1.84-.03.26-.07.52-.04.27-.19.53-.41.76-.67 1.29-.27.53-.49.98-.22.45-.42.89-.21.44-.5 1.06-.35.73-.79 1.6-.44.86-.84 1.77-.39.91-.67 1.79-.28.87-.28 1.61 0 .79.4 1.04.39.25 1.12.25.82 0 1.72-.36.89-.35 1.8-.9.91-.56 1.79-1.28t1.65-1.45q.78-.73 1.44-1.41.66-.67 1.1-1.2.58-.55 1.17-.55.53 0 .86.47.34.46.34 1.2 0 .67-.34 1.43-.33.76-1.1 1.44-1.49 1.52-3.04 2.91-1.56 1.39-3.18 2.46-1.63 1.07-3.27 1.72-1.64.64-3.31.64-2.37 0-3.73-1.21-1.37-1.22-1.37-3.8 0-1.34.38-2.63.39-1.29.91-2.51.53-1.21 1.12-2.34.58-1.13.99-2.16.15-.38.51-1.17.37-.79.78-1.61.47-.97 1-2.05zm21.44 2.61q-1.37 0-2.65.69-1.27.68-2.25 1.81-.99 1.13-1.57 2.55-.59 1.42-.59 2.92 0 .55.09 1.21.09.66.37 1.23.27.57.8.95.53.39 1.41.39 1.35 0 2.62-.72t2.27-1.88q1-1.15 1.58-2.62.59-1.46.59-2.96 0-.58-.07-1.21-.08-.63-.36-1.16-.27-.53-.8-.87-.53-.33-1.44-.33zm1.53-5.16q1.11 0 2.38.29 1.28.3 2.36 1 1.09.7 1.8 1.86.72 1.16.72 2.86 0 .88-.23 2-.24 1.13-.71 2.36.3.35.68.5.38.15.82.15.61 0 1.36-.35.75-.36 1.54-.91.79-.56 1.58-1.26.79-.71 1.5-1.41.7-.7 1.27-1.33.57-.63.95-1.07.21-.21.5-.21.41 0 .73.43.32.42.32 1.18 0 .77-.45 1.76-.45 1-1.68 2.08-.71.76-1.62 1.76-.9 1-1.93 1.88-1.02.87-2.14 1.49-1.11.62-2.22.62-.77 0-1.48-.24-.72-.23-1.45-.76-1.06 1.64-2.41 2.99-1.34 1.34-3 2.31-1.65.97-3.57 1.51t-4.09.54q-.82 0-1.9-.32-1.09-.32-2.07-1.07-.98-.75-1.66-1.95-.67-1.2-.67-2.93 0-1.17.38-2.81.38-1.64 1.16-3.38.78-1.75 1.96-3.46 1.19-1.71 2.83-3.08 1.64-1.36 3.75-2.19 2.11-.84 4.69-.84zm16.78 3.52q.59-1.26 1.47-1.88.88-.61 1.73-.61.7 0 1.26.51.55.51.55 1.51 0 .38-.08.82-.09.44-.33.94.65-.82 1.85-1.69 1.2-.86 2.65-1.55 1.45-.69 2.99-1.13 1.54-.44 2.91-.44 1.56 0 2.6.75t1.04 2.53q0 1.06-.33 2.2-.32 1.14-.83 2.28-.51 1.15-1.14 2.25-.63 1.09-1.25 2.06-.61.97-1.13 1.77-.51.81-.8 1.34-.38.47-.38 1.08 0 .24.14.41.15.18.47.18.21 0 .47-.05.26-.04.65-.3 1.58-.59 3.23-1.47 1.66-.88 3.18-1.86 1.52-.98 2.8-1.96 1.27-.98 2.12-1.78.24-.2.47-.29.24-.09.44-.09.5 0 .78.38.28.39.28.97 0 .91-.58 2.02-.57 1.12-1.8 2.08l-3.06 2.2q-1.39 1-2.84 1.86-1.45.87-3.11 1.61-1.65.75-3.88 1.39-.76.24-1.39.36-.63.11-1.16.11-1.55 0-2.27-.86-.71-.87-.71-2.42 0-.2.01-.39t.04-.43q.06-.91.49-1.99.42-1.09 1.02-2.23.6-1.14 1.28-2.27.67-1.13 1.24-2.14.57-1.01.95-1.8.39-.79.39-1.29 0-.44-.25-.74-.25-.31-.75-.31-1.88 0-3.56 1.11-1.69 1.11-3.15 2.74-1.46 1.63-2.7 3.44-1.23 1.82-2.16 3.25-.59.97-1.07 2.07-.49 1.1-1.01 2.05-.53.95-1.19 1.58-.66.63-1.66.63-1.02 0-1.61-.64-.58-.65-.58-1.58 0-.5.41-1.62.41-1.11 1.05-2.57.65-1.47 1.45-3.15.81-1.69 1.61-3.34.81-1.66 1.54-3.12.73-1.47 1.2-2.49z"/></svg>