<svg viewBox="0 0 533 80" xmlns="http://www.w3.org/2000/svg"><path d="M21.78 58.22q-1.86 0-3.54-.51t-2.88-2.19q.6-2.88 1.47-6.21t1.89-6.84q1.02-3.51 2.07-6.9 1.05-3.39 2.01-6.33.96-2.94 1.74-5.16t1.2-3.36q.18-.48.6-1.41.42-.93 1.02-1.89.6-.96 1.38-1.65.78-.69 1.68-.69.84 0 1.68.6-1.86 4.32-3.75 9.54-1.89 5.22-3.63 10.77t-3.18 10.83q-1.44 5.28-2.4 9.6.84.12 1.41.18t1.17.06q3.84 0 7.41-1.77 3.57-1.77 6.66-4.86 3.09-3.09 5.43-7.08t3.63-8.46q1.29-4.47 1.29-8.91 0-4.86-1.56-8.01-1.56-3.15-4.32-4.65-2.76-1.5-6.42-1.5-3.9 0-7.02 1.56-3.12 1.56-4.92 4.2-1.8 2.64-1.8 5.94 0 .72.09 1.26t.21.96q-1.98 0-2.79-.99t-.81-2.37q0-2.1 1.47-4.23 1.47-2.13 4.08-3.93 2.61-1.8 6.03-2.91Q31.8 9.8 35.64 9.8q5.4 0 8.67 2.19 3.27 2.19 4.77 5.91 1.5 3.72 1.5 8.34 0 5.22-1.62 9.99-1.62 4.77-4.47 8.76-2.85 3.99-6.51 6.96-3.66 2.97-7.83 4.62t-8.37 1.65zm31.68-2.4q-1.86 0-3.15-1.23-1.29-1.23-1.29-3.75 0-2.16.96-4.65t2.64-4.92q1.68-2.43 3.81-4.44 2.13-2.01 4.5-3.21 2.37-1.2 4.71-1.2t3.9 1.23q1.56 1.23 1.56 3.27 0 1.5-.81 2.04t-2.13.54q.12-.48.21-1.05.09-.57.09-1.05 0-1.38-.66-2.37-.66-.99-2.28-.99-1.68 0-3.42 1.17t-3.36 3.12q-1.62 1.95-2.88 4.23-1.26 2.28-1.98 4.5t-.72 3.96q0 2.34 1.62 2.34 1.38 0 3-1.29t3.33-3.3q1.71-2.01 3.27-4.17t2.76-3.96q.24-.36.3-.36.36.06.93.24.57.18.99.48.42.3.42.78 0 .54-.54 1.47-.54.93-1.2 2.13-.66 1.2-1.2 2.43-.54 1.23-.54 2.31 0 .9.48 1.77t1.56.87q1.62 0 4.26-2.37 2.64-2.37 5.34-7.11l.6.6q-1.26 3.24-3.24 5.7-1.98 2.46-4.23 3.84-2.25 1.38-4.41 1.38-2.22 0-3.27-1.32-1.05-1.32-1.05-2.88 0-.36.06-.81.06-.45.12-.93-2.58 3.48-4.71 5.22-2.13 1.74-4.35 1.74zm42.66-1.62q-2.1 0-3.15-1.08-1.05-1.08-1.05-2.76 0-1.26.45-2.64.45-1.38.87-2.85.42-1.47.42-2.85 0-1.68-.69-2.31-.69-.63-1.71-.63-1.86 0-3.78 1.53-1.92 1.53-3.72 3.9-1.8 2.37-3.36 4.89-1.56 2.52-2.76 4.5-.96 0-1.83-.33-.87-.33-1.35-.99 0-.3.63-1.86t1.47-3.84q.84-2.28 1.5-4.68t.66-4.38q.36-.42 1.14-.84.78-.42 1.62-.42 1.62 0 1.62 1.56 0 .96-.54 3.21t-1.38 4.71q1.62-2.46 3.63-4.89 2.01-2.43 4.29-4.05 2.28-1.62 4.56-1.62 2.34 0 3.39 1.68 1.05 1.68 1.05 3.72 0 1.86-.6 3.45t-1.23 3.06q-.63 1.47-.63 2.97 0 1.26.51 1.77t1.29.51q1.5 0 3-1.41t2.91-3.57q1.41-2.16 2.49-4.38l.66.78q-1.26 2.94-2.82 5.22-1.56 2.28-3.42 3.6-1.86 1.32-4.14 1.32zm15 2.16q-2.88 0-4.8-1.92t-1.92-5.76q0-3 1.17-5.85 1.17-2.85 3.09-5.13t4.26-3.63q2.34-1.35 4.62-1.35 2.46 0 3.36 1.44.9 1.44.9 3 0 1.74-.81 3.06t-2.19 1.32q-1.02 0-1.74-.9.9-.48 1.56-1.95t.66-2.79q0-.72-.27-1.11-.27-.39-1.05-.39-1.62 0-3.33 1.44t-3.18 3.72q-1.47 2.28-2.4 4.8-.93 2.52-.93 4.74 0 1.86.9 3.42.9 1.56 3.48 1.56 2.4 0 4.83-1.32t4.53-3.78q2.1-2.46 3.36-5.76l.78.6q-1.38 3.6-3.78 6.45t-5.28 4.47q-2.88 1.62-5.82 1.62zm17.28-1.8q-2.34 0-3.48-1.47-1.14-1.47-1.14-3.57 0-1.38.51-3.48t1.35-4.41q.84-2.31 1.95-4.35 1.11-2.04 2.37-3.33t2.46-1.29q.54 0 .93.33t.39.99q0 .72-.93 2.34-.93 1.62-2.19 3.72-1.26 2.1-2.19 4.41-.93 2.31-.93 4.41 0 2.16.72 2.88.72.72 2.22.72 2.04 0 4.35-2.04 2.31-2.04 4.89-7.14l.54.6q-1.74 5.16-5.01 7.92-3.27 2.76-6.81 2.76zm7.2-27.48q-.96 0-1.71-.48t-.75-1.5q0-1.26 1.47-2.19 1.47-.93 2.91-.93.9 0 1.44.42.54.42.54 1.44 0 1.14-1.23 2.19t-2.67 1.05zm22.32 27.12q-2.1 0-3.15-1.08-1.05-1.08-1.05-2.76 0-1.26.45-2.64.45-1.38.87-2.85.42-1.47.42-2.85 0-1.68-.69-2.31-.69-.63-1.71-.63-1.86 0-3.78 1.53-1.92 1.53-3.72 3.9-1.8 2.37-3.36 4.89-1.56 2.52-2.76 4.5-.96 0-1.83-.33-.87-.33-1.35-.99 0-.3.63-1.86t1.47-3.84q.84-2.28 1.5-4.68t.66-4.38q.36-.42 1.14-.84.78-.42 1.62-.42 1.62 0 1.62 1.56 0 .96-.54 3.21t-1.38 4.71q1.62-2.46 3.63-4.89 2.01-2.43 4.29-4.05 2.28-1.62 4.56-1.62 2.34 0 3.39 1.68 1.05 1.68 1.05 3.72 0 1.86-.6 3.45t-1.23 3.06q-.63 1.47-.63 2.97 0 1.26.51 1.77t1.29.51q1.5 0 3-1.41t2.91-3.57q1.41-2.16 2.49-4.38l.66.78q-1.26 2.94-2.82 5.22-1.56 2.28-3.42 3.6-1.86 1.32-4.14 1.32zm10.86 15.6q-1.32 0-2.4-.81-1.08-.81-1.08-2.67 0-1.8 1.11-3.33t2.85-2.82q1.74-1.29 3.81-2.37 2.07-1.08 3.93-2.04.84-2.1 1.59-4.53.75-2.43 1.47-5.37-2.28 3.3-4.77 5.49-2.49 2.19-5.01 2.19-2.16 0-3.33-1.62t-1.17-4.2q0-3.12 1.53-5.94 1.53-2.82 3.99-4.98 2.46-2.16 5.22-3.39t5.16-1.23q1.74 0 2.49.57.75.57.75 1.35 0 .54-.3.84-.3.3-.42.36-.3-.48-.9-.69-.6-.21-1.5-.21-2.34 0-4.53 1.38-2.19 1.38-3.87 3.54-1.68 2.16-2.67 4.47-.99 2.31-.99 4.23 0 1.44.57 2.19t1.53.75q1.74 0 4.17-2.31 2.43-2.31 4.71-5.61.18-.84.33-1.5.15-.66.39-1.68.18-.84.87-1.95.69-1.11 2.19-1.11.3 0 .6.03t.66.15q0 .96-.57 3.51t-1.62 5.94q-1.05 3.39-2.43 6.99 1.98-.96 3.87-2.46 1.89-1.5 3.45-3.45 1.56-1.95 2.46-4.23l.78.6q-.9 2.7-2.88 4.92-1.98 2.22-4.23 3.84-2.25 1.62-4.11 2.52-1.68 4.02-3.54 7.35t-3.87 5.31q-2.01 1.98-4.29 1.98zm-.18-1.92q1.2 0 3.27-2.37 2.07-2.37 4.47-8.13-2.4 1.2-4.47 2.49-2.07 1.29-3.39 2.73-1.32 1.44-1.32 3.18 0 .96.42 1.53.42.57 1.02.57zm49.02-9.66q-3.24 0-6.12-1.17t-4.65-3.57q-1.77-2.4-1.77-6 0-3.12 1.23-4.86 1.23-1.74 3.03-2.46 1.8-.72 3.42-.72-1.62 1.74-2.46 3.84-.84 2.1-.84 4.2 0 2.22.99 4.14.99 1.92 3.03 3.09t5.16 1.17q2.7 0 5.28-.99t4.23-2.94q1.65-1.95 1.65-4.83 0-2.58-1.32-4.44-1.32-1.86-3.39-3.3-2.07-1.44-4.41-2.76-2.34-1.32-4.41-2.79-2.07-1.47-3.39-3.39-1.32-1.92-1.32-4.62 0-2.52 1.2-5.28 1.2-2.76 3.45-5.22t5.4-3.99q3.15-1.53 7.05-1.53 3.54 0 4.92 1.71t1.38 4.29q0 2.16-.75 4.65t-1.83 4.74q-1.08 2.25-2.04 3.81-1.08-.24-1.53-.93-.45-.69-.45-1.65 0-1.26.54-2.88.54-1.62 1.23-3.36.69-1.74 1.23-3.39.54-1.65.54-2.97 0-1.2-.72-1.89t-2.64-.69q-2.82 0-5.22 1.32t-4.2 3.39q-1.8 2.07-2.79 4.35t-.99 4.14q0 2.22 1.29 3.81 1.29 1.59 3.33 2.88 2.04 1.29 4.35 2.58 2.31 1.29 4.35 2.85 2.04 1.56 3.33 3.69t1.29 5.19q0 3.12-1.38 5.49t-3.69 3.99q-2.31 1.62-5.07 2.46-2.76.84-5.52.84zm26.4-1.86q-2.88 0-4.8-1.92t-1.92-5.76q0-3 1.17-5.85 1.17-2.85 3.09-5.13t4.26-3.63q2.34-1.35 4.62-1.35 2.46 0 3.36 1.44.9 1.44.9 3 0 1.74-.81 3.06t-2.19 1.32q-1.02 0-1.74-.9.9-.48 1.56-1.95t.66-2.79q0-.72-.27-1.11-.27-.39-1.05-.39-1.62 0-3.33 1.44t-3.18 3.72q-1.47 2.28-2.4 4.8-.93 2.52-.93 4.74 0 1.86.9 3.42.9 1.56 3.48 1.56 2.4 0 4.83-1.32t4.53-3.78q2.1-2.46 3.36-5.76l.78.6q-1.38 3.6-3.78 6.45t-5.28 4.47q-2.88 1.62-5.82 1.62zm23.34-1.8q-2.04 0-3.21-1.08t-1.17-2.82q0-1.8.84-3.78.84-1.98 1.65-3.93.81-1.95.81-3.51 0-1.92-1.11-2.85-1.11-.93-2.25-1.71-1.38 3.54-2.88 6.72-1.5 3.18-2.46 4.8l-.54-1.02q.84-1.56 2.19-4.56 1.35-3 2.67-6.84-.6-.6-.6-1.44 0-1.8 1.02-2.94t1.5-1.14q.66 0 .75.57.09.57.09.87 0 .3-.33 1.17-.33.87-.33 1.05 0 .84.93 1.53.93.69 2.13 1.56 1.2.87 2.13 2.1.93 1.23.93 3.15 0 1.8-.75 3.66t-1.5 3.54q-.75 1.68-.75 2.94 0 1.08.54 1.44.54.36 1.26.36 1.44 0 2.97-.9 1.53-.9 2.97-2.28 1.44-1.38 2.58-2.91 1.14-1.53 1.68-2.85l.78.6q-1.14 2.52-3.12 4.95-1.98 2.43-4.41 3.99t-5.01 1.56zm14.82 0q-2.34 0-3.48-1.47-1.14-1.47-1.14-3.57 0-1.38.51-3.48t1.35-4.41q.84-2.31 1.95-4.35 1.11-2.04 2.37-3.33t2.46-1.29q.54 0 .93.33t.39.99q0 .72-.93 2.34-.93 1.62-2.19 3.72-1.26 2.1-2.19 4.41-.93 2.31-.93 4.41 0 2.16.72 2.88.72.72 2.22.72 2.04 0 4.35-2.04 2.31-2.04 4.89-7.14l.54.6q-1.74 5.16-5.01 7.92-3.27 2.76-6.81 2.76zm7.2-27.48q-.96 0-1.71-.48t-.75-1.5q0-1.26 1.47-2.19 1.47-.93 2.91-.93.9 0 1.44.42.54.42.54 1.44 0 1.14-1.23 2.19t-2.67 1.05zm-.84 42.72q-.48 0-.93-.51-.45-.51-.69-1.08-.24-.57-.24-.69.84-2.94 1.65-5.25.81-2.31 1.62-4.74t1.59-5.7q.78-3.27 1.62-8.13.84-4.86 1.68-12.06.06-.54.24-.78t.9-.24q1.56 0 2.22.87.66.87.66 1.89 0 .84-.36 3t-1.02 5.1q1.02-1.98 2.55-4.02 1.53-2.04 3.51-3.42 1.98-1.38 4.32-1.38 2.64 0 4.35 1.89 1.71 1.89 1.71 4.95 0 2.34-1.05 4.95-1.05 2.61-2.94 4.92t-4.47 3.75q-2.58 1.44-5.7 1.44-1.56 0-2.52-.36t-.96-.72q0-.24.45-.27.45-.03 1.05-.03 2.4 0 4.59-1.17t3.93-3.09q1.74-1.92 2.73-4.26t.99-4.62q0-1.92-.81-3.27t-2.61-1.35q-1.56 0-3.09.99-1.53.99-2.88 2.52-1.35 1.53-2.4 3.18-1.05 1.65-1.59 2.97-1.08 4.5-2.16 8.67t-2.07 7.56q-.99 3.39-1.8 5.55-.81 2.16-1.35 2.64-.3.3-.72.3zm32.34-14.04q-2.58 0-3.96-1.5t-1.38-4.44q0-2.64.99-6.51.99-3.87 2.49-7.95-.6-.12-1.14-.21-.54-.09-1.02-.27V33.8q.48.06 1.14.12.66.06 1.5.12 1.26-3.24 2.7-6.27 1.44-3.03 2.85-5.4 1.41-2.37 2.7-3.78 1.29-1.41 2.19-1.41.48 0 .87.33t.39.99q0 1.02-1.26 3.33t-3.12 5.49q-1.86 3.18-3.6 6.9h2.22q1.98 0 4.17-.06t4.41-.3v1.08q-3.3.36-5.91.54-2.61.18-4.65.18h-.9q-1.38 3.18-2.34 6.54t-.96 6.54q0 2.58.78 3.69.78 1.11 2.58 1.11 3.12 0 6.12-2.76t5.28-7.5l.78.6q-1.44 3.36-3.63 6.06-2.19 2.7-4.83 4.26-2.64 1.56-5.46 1.56zm55.44 4.5q-1.32 0-3.09-1.65-1.77-1.65-3.69-4.32-1.92-2.67-3.81-5.85-1.89-3.18-3.48-6.36t-2.67-5.7q-1.68 5.88-3.24 11.55-1.56 5.67-2.94 10.29-1.5 0-2.73-.84t-1.23-2.16q0-.66.3-1.59t.54-1.71q1.5-4.74 2.94-8.94 1.44-4.2 2.82-8.1 1.38-3.9 2.85-7.74 1.47-3.84 3.09-7.74 1.62-3.9 3.48-8.1-2.52.42-4.38 1.23-1.86.81-3 1.5t-1.56.69q-.24 0-.69-.27-.45-.27-.81-.66-.36-.39-.36-.69 1.56-.66 3.66-1.44 2.1-.78 4.62-1.32t5.22-.54q2.58 0 5.25.63t4.92 1.98q2.25 1.35 3.63 3.48t1.38 5.13q0 2.94-1.35 5.07-1.35 2.13-3.54 3.57t-4.77 2.31q-2.58.87-5.1 1.32-2.52.45-4.56.6-2.04.15-3.06.15 1.86 3.18 3.54 6.18 1.68 3 3.66 5.97 1.98 2.97 4.68 5.97 2.7 3 6.54 6.12-.36.78-1.29 1.38-.93.6-1.77.6zm-15.78-27.18q3.24-.18 6.57-1.05 3.33-.87 6.09-2.46 2.76-1.59 4.44-4.02 1.68-2.43 1.68-5.79 0-3.3-1.56-5.19-1.56-1.89-4.02-2.7-2.46-.81-5.16-.81-2.04 4.14-4.08 9.93t-3.96 12.09zm27.24 22.56q-3.66 0-5.49-2.01t-1.83-4.95q0-2.7 1.35-5.7t3.6-5.64q2.25-2.64 4.95-4.29t5.34-1.65q1.38 0 2.55.72t1.17 2.94q0 2.28-1.35 4.29-1.35 2.01-3.54 3.57t-4.8 2.55q-2.61.99-5.19 1.23-.12.6-.18 1.14-.06.54-.06 1.02 0 .9.21 1.8t.75 1.65q.54.75 1.47 1.17.93.42 2.31.42 2.58 0 5.1-1.47 2.52-1.47 4.68-3.87 2.16-2.4 3.66-5.28l.72.54q-1.62 3.6-4.11 6.24t-5.4 4.11q-2.91 1.47-5.91 1.47zm-2.94-10.08q1.62-.54 3.66-1.59t3.93-2.49q1.89-1.44 3.12-3.18 1.23-1.74 1.23-3.66 0-.66-.24-1.02t-1.02-.36q-1.44 0-3.06 1.11t-3.12 2.91q-1.5 1.8-2.7 3.96-1.2 2.16-1.8 4.32zm18.72 24.24q-1.32 0-2.4-.81-1.08-.81-1.08-2.67 0-1.8 1.11-3.33t2.85-2.82q1.74-1.29 3.81-2.37 2.07-1.08 3.93-2.04.84-2.1 1.59-4.53.75-2.43 1.47-5.37-2.28 3.3-4.77 5.49-2.49 2.19-5.01 2.19-2.16 0-3.33-1.62t-1.17-4.2q0-3.12 1.53-5.94 1.53-2.82 3.99-4.98 2.46-2.16 5.22-3.39t5.16-1.23q1.74 0 2.49.57.75.57.75 1.35 0 .54-.3.84-.3.3-.42.36-.3-.48-.9-.69-.6-.21-1.5-.21-2.34 0-4.53 1.38-2.19 1.38-3.87 3.54-1.68 2.16-2.67 4.47-.99 2.31-.99 4.23 0 1.44.57 2.19t1.53.75q1.74 0 4.17-2.31 2.43-2.31 4.71-5.61.18-.84.33-1.5.15-.66.39-1.68.18-.84.87-1.95.69-1.11 2.19-1.11.3 0 .6.03t.66.15q0 .96-.57 3.51t-1.62 5.94q-1.05 3.39-2.43 6.99 1.98-.96 3.87-2.46 1.89-1.5 3.45-3.45 1.56-1.95 2.46-4.23l.78.6q-.9 2.7-2.88 4.92-1.98 2.22-4.23 3.84-2.25 1.62-4.11 2.52-1.68 4.02-3.54 7.35t-3.87 5.31q-2.01 1.98-4.29 1.98zm-.18-1.92q1.2 0 3.27-2.37 2.07-2.37 4.47-8.13-2.4 1.2-4.47 2.49-2.07 1.29-3.39 2.73-1.32 1.44-1.32 3.18 0 .96.42 1.53.42.57 1.02.57zm25.74-13.08q-2.04 0-3.27-1.83t-1.23-4.23q0-1.74.57-4.02.57-2.28 1.41-4.5t1.74-3.66q.9-1.44 1.56-1.44.3 0 1.02.33t1.2.87q-.66 1.02-1.62 3.12-.96 2.1-1.68 4.5t-.72 4.44q0 .48.12 1.47t.6 1.77q.48.78 1.44.78 1.14 0 2.34-1.17t2.43-3.03q1.23-1.86 2.37-4.02 1.14-2.16 2.13-4.14l1.65-3.3q.36.06 1.05.24.69.18 1.26.48.57.3.57.84 0 .24-.6 1.59t-1.41 3.3q-.81 1.95-1.41 3.93-.6 1.98-.6 3.48 0 1.08.45 1.74.45.66 1.53.66 1.26 0 3.06-1.14t3.66-3.33q1.86-2.19 3.3-5.25l.78.54q-1.26 3.24-3.3 5.73t-4.32 3.87q-2.28 1.38-4.44 1.38-1.56 0-2.49-.6-.93-.6-1.32-1.62t-.39-2.22q0-.72.12-1.47t.3-1.53q-1.08 1.98-2.34 3.69-1.26 1.71-2.64 2.73-1.38 1.02-2.88 1.02zm26.76 0q-2.58 0-3.69-1.77-1.11-1.77-1.11-4.41 0-2.88 1.08-6.84t2.85-8.34q1.77-4.38 3.87-8.55 2.1-4.17 4.2-7.59t3.87-5.46q1.77-2.04 2.79-2.04.66 0 1.08.75.42.75.66 1.8.24 1.05.24 1.89 0 1.62-.81 4.23-.81 2.61-2.28 5.82-1.47 3.21-3.48 6.48-2.01 3.27-4.38 6.27-2.37 3-5.01 5.16-.36 1.62-.57 3.15-.21 1.53-.21 2.91 0 2.34.66 3.48.66 1.14 1.98 1.14 1.62 0 3.21-1.44 1.59-1.44 3-3.63t2.43-4.53l.9.48q-2.4 5.1-5.22 8.07-2.82 2.97-6.06 2.97zm.42-14.64q2.1-2.1 4.08-4.83t3.69-5.67q1.71-2.94 3.03-5.7 1.32-2.76 2.04-4.95.72-2.19.72-3.39 0-.6-.15-.78-.15-.18-.27-.18-.48 0-1.65 1.53t-2.73 4.11q-1.56 2.58-3.18 5.88t-3.09 6.9q-1.47 3.6-2.49 7.08zm11.64 15.66q-1.86 0-3.15-1.23-1.29-1.23-1.29-3.75 0-2.16.96-4.65t2.64-4.92q1.68-2.43 3.81-4.44 2.13-2.01 4.5-3.21 2.37-1.2 4.71-1.2t3.9 1.23q1.56 1.23 1.56 3.27 0 1.5-.81 2.04t-2.13.54q.12-.48.21-1.05.09-.57.09-1.05 0-1.38-.66-2.37-.66-.99-2.28-.99-1.68 0-3.42 1.17t-3.36 3.12q-1.62 1.95-2.88 4.23-1.26 2.28-1.98 4.5t-.72 3.96q0 2.34 1.62 2.34 1.38 0 3-1.29t3.33-3.3q1.71-2.01 3.27-4.17t2.76-3.96q.24-.36.3-.36.36.06.93.24.57.18.99.48.42.3.42.78 0 .54-.54 1.47-.54.93-1.2 2.13-.66 1.2-1.2 2.43-.54 1.23-.54 2.31 0 .9.48 1.77t1.56.87q1.62 0 4.26-2.37 2.64-2.37 5.34-7.11l.6.6q-1.26 3.24-3.24 5.7-1.98 2.46-4.23 3.84-2.25 1.38-4.41 1.38-2.22 0-3.27-1.32-1.05-1.32-1.05-2.88 0-.36.06-.81.06-.45.12-.93-2.58 3.48-4.71 5.22-2.13 1.74-4.35 1.74zm33.66-1.26q-2.04 0-3.21-1.08t-1.17-2.82q0-1.8.84-3.78.84-1.98 1.65-3.93.81-1.95.81-3.51 0-1.92-1.11-2.85-1.11-.93-2.25-1.71-1.38 3.54-2.88 6.72-1.5 3.18-2.46 4.8l-.54-1.02q.84-1.56 2.19-4.56 1.35-3 2.67-6.84-.6-.6-.6-1.44 0-1.8 1.02-2.94t1.5-1.14q.66 0 .75.57.09.57.09.87 0 .3-.33 1.17-.33.87-.33 1.05 0 .84.93 1.53.93.69 2.13 1.56 1.2.87 2.13 2.1.93 1.23.93 3.15 0 1.8-.75 3.66t-1.5 3.54q-.75 1.68-.75 2.94 0 1.08.54 1.44.54.36 1.26.36 1.44 0 2.97-.9 1.53-.9 2.97-2.28 1.44-1.38 2.58-2.91 1.14-1.53 1.68-2.85l.78.6q-1.14 2.52-3.12 4.95-1.98 2.43-4.41 3.99t-5.01 1.56z"/></svg>