<svg viewBox="0 0 487 80" xmlns="http://www.w3.org/2000/svg"><path d="M22.46 58.22q-2.1 0-3.99-.57-1.89-.57-3.27-2.43.18-1.44.87-4.2.69-2.76 1.71-6.27t2.16-7.23q1.14-3.72 2.25-7.11t1.98-5.94q.87-2.55 1.29-3.69.18-.48.6-1.44t1.08-1.98q.66-1.02 1.53-1.71t1.89-.69q1.02 0 2.28.84-1.86 4.2-3.75 9.33t-3.6 10.56q-1.71 5.43-3.12 10.56-1.41 5.13-2.31 9.39.48.18 1.35.27.87.09 1.65.09 3.9 0 7.44-1.89 3.54-1.89 6.51-5.04 2.97-3.15 5.19-7.08t3.42-8.07q1.2-4.14 1.2-7.92 0-4.86-1.65-7.89-1.65-3.03-4.53-4.44-2.88-1.41-6.6-1.41-3.9 0-7.02 1.41-3.12 1.41-4.89 3.84-1.77 2.43-1.77 5.55 0 .66.12 1.41.12.75.42 1.47-2.58 0-3.69-1.11-1.11-1.11-1.11-2.73 0-2.1 1.53-4.26 1.53-2.16 4.26-3.99 2.73-1.83 6.33-2.94 3.6-1.11 7.8-1.11 5.88 0 9.42 2.25t5.13 6.06q1.59 3.81 1.59 8.49 0 5.16-1.65 9.87-1.65 4.71-4.56 8.67-2.91 3.96-6.72 6.9-3.81 2.94-8.1 4.56-4.29 1.62-8.67 1.62zm32.34-2.4q-1.98 0-3.45-1.32-1.47-1.32-1.47-3.96 0-2.1.96-4.56.96-2.46 2.64-4.86 1.68-2.4 3.84-4.35 2.16-1.95 4.62-3.15t4.92-1.2q2.58 0 4.38 1.32 1.8 1.32 1.8 3.48 0 1.62-1.14 2.34-1.14.72-2.7.42.12-.54.21-1.08t.09-1.14q0-1.2-.48-2.16-.48-.96-2.04-.96-1.68 0-3.42 1.14t-3.33 2.97q-1.59 1.83-2.85 4.02-1.26 2.19-1.98 4.29t-.72 3.78q0 1.92 1.38 1.92t3.06-1.35q1.68-1.35 3.39-3.39 1.71-2.04 3.27-4.17t2.7-3.63q.18-.3.48-.3.24.06.93.27.69.21 1.29.63.6.42.6 1.08 0 .6-.51 1.53t-1.2 2.04q-.69 1.11-1.2 2.22t-.51 2.13q0 .78.42 1.47t1.38.69q1.44 0 4.05-2.13t5.31-7.23l1.14 1.14q-1.44 3.24-3.45 5.73-2.01 2.49-4.23 3.9-2.22 1.41-4.5 1.41-2.46 0-3.66-1.56-1.2-1.56-1.32-3.36v-.3q-2.4 2.88-4.41 4.56-2.01 1.68-4.29 1.68zm43.5-1.62q-2.34 0-3.57-1.17t-1.23-2.97q0-1.2.42-2.55.42-1.35.84-2.73t.42-2.64q0-1.32-.63-1.83t-1.47-.51q-1.8 0-3.69 1.47t-3.66 3.69q-1.77 2.22-3.33 4.62t-2.7 4.32q-1.14 0-2.16-.39-1.02-.39-1.74-1.35.06-.3.69-1.83.63-1.53 1.41-3.66.78-2.13 1.38-4.47.6-2.34.6-4.26.42-.48 1.29-.96.87-.48 1.83-.48 2.1 0 2.1 1.8 0 .72-.27 2.13t-.75 3.21q1.56-2.1 3.42-3.96 1.86-1.86 3.87-3.03 2.01-1.17 4.05-1.17 2.58 0 3.81 1.74t1.23 3.84q0 1.8-.6 3.36-.6 1.56-1.17 2.94t-.57 2.7q0 .96.45 1.35.45.39.99.39 1.44 0 3-1.38t2.97-3.51q1.41-2.13 2.49-4.29l1.02.84q-1.26 2.94-2.85 5.37t-3.54 3.9q-1.95 1.47-4.35 1.47zm14.94 2.16q-3.12 0-5.13-1.95t-2.01-5.97q0-2.94 1.14-5.76t3.06-5.07q1.92-2.25 4.29-3.57 2.37-1.32 4.83-1.32 2.52 0 3.63 1.26 1.11 1.26 1.11 2.94t-.81 3.27q-.81 1.59-2.19 1.59-1.14 0-1.86-1.14.6-.42 1.26-1.56.66-1.14.66-2.94 0-.48-.24-.75t-.9-.27q-1.5 0-3.15 1.35t-3.06 3.48q-1.41 2.13-2.28 4.5-.87 2.37-.87 4.35 0 1.68.87 3.09t3.39 1.41q2.28 0 4.74-1.32 2.46-1.32 4.62-3.69t3.48-5.67l1.2 1.08q-1.44 3.66-3.99 6.51-2.55 2.85-5.64 4.5t-6.15 1.65zm18-1.56q-2.64 0-3.96-1.56-1.32-1.56-1.32-3.78 0-1.38.48-3.48t1.35-4.41q.87-2.31 2.01-4.35 1.14-2.04 2.46-3.33t2.64-1.29q.72 0 1.26.42t.54 1.32q0 .78-.93 2.34-.93 1.56-2.16 3.6t-2.16 4.23q-.93 2.19-.93 4.17 0 1.92.69 2.55.69.63 2.01.63 2.04 0 4.44-2.04 2.4-2.04 4.98-7.14l.9.96q-2.1 5.28-5.34 8.22-3.24 2.94-6.96 2.94zm7.08-27.06q-1.14 0-2.07-.57-.93-.57-.93-1.77 0-1.44 1.56-2.46t3.24-1.02q1.08 0 1.83.48t.75 1.74q0 1.26-1.38 2.43-1.38 1.17-3 1.17zM161.3 54.2q-2.34 0-3.57-1.17t-1.23-2.97q0-1.2.42-2.55.42-1.35.84-2.73t.42-2.64q0-1.32-.63-1.83t-1.47-.51q-1.8 0-3.69 1.47t-3.66 3.69q-1.77 2.22-3.33 4.62t-2.7 4.32q-1.14 0-2.16-.39-1.02-.39-1.74-1.35.06-.3.69-1.83.63-1.53 1.41-3.66.78-2.13 1.38-4.47.6-2.34.6-4.26.42-.48 1.29-.96.87-.48 1.83-.48 2.1 0 2.1 1.8 0 .72-.27 2.13t-.75 3.21q1.56-2.1 3.42-3.96 1.86-1.86 3.87-3.03 2.01-1.17 4.05-1.17 2.58 0 3.81 1.74t1.23 3.84q0 1.8-.6 3.36-.6 1.56-1.17 2.94t-.57 2.7q0 .96.45 1.35.45.39.99.39 1.44 0 3-1.38t2.97-3.51q1.41-2.13 2.49-4.29l1.02.84q-1.26 2.94-2.85 5.37t-3.54 3.9q-1.95 1.47-4.35 1.47zm11.16 15.6q-1.5 0-2.79-.9t-1.29-2.94q0-1.92 1.11-3.45 1.11-1.53 2.94-2.82 1.83-1.29 3.93-2.37t4.08-2.04q.66-1.62 1.26-3.48.6-1.86 1.14-4.02-2.1 2.64-4.41 4.38-2.31 1.74-4.71 1.74t-3.81-1.68q-1.41-1.68-1.41-4.44 0-3.18 1.59-5.97 1.59-2.79 4.11-4.98 2.52-2.19 5.4-3.42 2.88-1.23 5.52-1.23 1.92 0 2.88.69t.96 1.59q0 .72-.42 1.14-.42.42-.54.48-.6-.66-1.23-.87-.63-.21-1.47-.21-2.34 0-4.5 1.32t-3.81 3.39q-1.65 2.07-2.61 4.29t-.96 4.02q0 1.2.54 1.83.54.63 1.32.63 1.68 0 4.08-2.19 2.4-2.19 4.62-5.31.12-.48.21-.87t.15-.75q.6-2.4 1.44-3.54.84-1.14 2.34-1.14.3 0 .75.06t.99.18q0 1.08-.6 3.54t-1.62 5.73q-1.02 3.27-2.28 6.69 1.86-.78 3.78-2.19 1.92-1.41 3.54-3.42t2.46-4.47l1.08 1.08q-.96 2.76-2.97 5.04-2.01 2.28-4.35 3.93-2.34 1.65-4.32 2.55-1.62 3.96-3.51 7.23-1.89 3.27-4.02 5.22-2.13 1.95-4.59 1.95zm-.24-2.76q1.08 0 2.97-2.04 1.89-2.04 4.11-6.9-2.22 1.08-4.08 2.22-1.86 1.14-3 2.4t-1.14 2.64q0 .78.33 1.23.33.45.81.45zm51-8.82q-3.48 0-6.63-1.2t-5.13-3.66q-1.98-2.46-1.98-6.12 0-3.24 1.44-5.07t3.6-2.55q2.16-.72 4.2-.72-1.92 2.04-2.91 4.2-.99 2.16-.99 4.14 0 2.04 1.05 3.81t3.15 2.88q2.1 1.11 5.22 1.11 2.7 0 5.25-.9t4.2-2.7q1.65-1.8 1.65-4.5 0-2.46-1.41-4.23-1.41-1.77-3.63-3.18-2.22-1.41-4.68-2.7-2.46-1.29-4.68-2.79-2.22-1.5-3.63-3.48-1.41-1.98-1.41-4.74 0-2.46 1.23-5.25t3.51-5.25q2.28-2.46 5.52-3.99 3.24-1.53 7.2-1.53 4.14 0 5.82 1.74 1.68 1.74 1.68 4.56 0 2.22-.78 4.74t-1.89 4.8q-1.11 2.28-2.13 3.9-1.32-.3-1.98-1.05-.66-.75-.66-2.01 0-1.26.51-2.82.51-1.56 1.2-3.24.69-1.68 1.2-3.27t.51-2.79q0-1.08-.63-1.68-.63-.6-2.55-.6-2.88 0-5.28 1.26-2.4 1.26-4.17 3.18-1.77 1.92-2.73 4.05t-.96 3.87q0 2.16 1.38 3.69 1.38 1.53 3.57 2.79t4.62 2.52q2.43 1.26 4.62 2.82 2.19 1.56 3.57 3.72t1.38 5.28q0 3.12-1.41 5.52-1.41 2.4-3.81 4.05-2.4 1.65-5.31 2.52-2.91.87-5.91.87zm26.82-1.86q-3.12 0-5.13-1.95t-2.01-5.97q0-2.94 1.14-5.76t3.06-5.07q1.92-2.25 4.29-3.57 2.37-1.32 4.83-1.32 2.52 0 3.63 1.26 1.11 1.26 1.11 2.94t-.81 3.27q-.81 1.59-2.19 1.59-1.14 0-1.86-1.14.6-.42 1.26-1.56.66-1.14.66-2.94 0-.48-.24-.75t-.9-.27q-1.5 0-3.15 1.35t-3.06 3.48q-1.41 2.13-2.28 4.5-.87 2.37-.87 4.35 0 1.68.87 3.09t3.39 1.41q2.28 0 4.74-1.32 2.46-1.32 4.62-3.69t3.48-5.67l1.2 1.08q-1.44 3.66-3.99 6.51-2.55 2.85-5.64 4.5t-6.15 1.65zm24.3-1.8q-2.22 0-3.6-1.17t-1.38-3.15q0-1.68.84-3.6.84-1.92 1.71-3.78.87-1.86.87-3.3 0-1.38-.9-2.31-.9-.93-2.1-1.53-1.32 3.3-2.97 6.39-1.65 3.09-2.67 4.83l-.9-1.74q.84-1.56 2.22-4.44 1.38-2.88 2.64-6.42-.6-.6-.6-1.62 0-1.56.96-2.94t1.86-1.38q.72 0 1.05.81.33.81.33 1.11 0 .3-.27 1.08t-.39 1.14q.06.66 1.05 1.29t2.25 1.47q1.26.84 2.22 2.1.96 1.26.96 3.18 0 1.74-.78 3.54t-1.56 3.36q-.78 1.56-.78 2.7 0 .84.45 1.11.45.27 1.05.27 1.44 0 3-.87t3.06-2.25q1.5-1.38 2.64-2.91 1.14-1.53 1.74-2.79l1.44 1.08q-1.14 2.58-3.3 5.07t-4.8 4.08q-2.64 1.59-5.34 1.59zm15.48.24q-2.64 0-3.96-1.56-1.32-1.56-1.32-3.78 0-1.38.48-3.48t1.35-4.41q.87-2.31 2.01-4.35 1.14-2.04 2.46-3.33t2.64-1.29q.72 0 1.26.42t.54 1.32q0 .78-.93 2.34-.93 1.56-2.16 3.6t-2.16 4.23q-.93 2.19-.93 4.17 0 1.92.69 2.55.69.63 2.01.63 2.04 0 4.44-2.04 2.4-2.04 4.98-7.14l.9.96q-2.1 5.28-5.34 8.22-3.24 2.94-6.96 2.94zm7.08-27.06q-1.14 0-2.07-.57-.93-.57-.93-1.77 0-1.44 1.56-2.46t3.24-1.02q1.08 0 1.83.48t.75 1.74q0 1.26-1.38 2.43-1.38 1.17-3 1.17zm-.6 42.06q-.48 0-1.02-.27t-.93-.63q-.39-.36-.45-.6 1.5-4.38 2.55-7.59 1.05-3.21 1.77-6.06.72-2.85 1.29-5.94.57-3.09 1.14-7.08t1.29-9.63q.12-.72.3-1.05.18-.33 1.14-.33 1.86 0 2.7.99.84.99.84 2.19 0 .6-.21 2.1t-.63 3.54q1.14-1.74 2.61-3.3 1.47-1.56 3.27-2.55 1.8-.99 3.9-.99 2.94 0 4.86 1.98 1.92 1.98 1.92 5.22 0 2.34-1.05 4.95-1.05 2.61-2.97 4.92-1.92 2.31-4.62 3.78-2.7 1.47-5.94 1.47-1.92 0-3.06-.48-1.14-.48-1.14-1.08 0-.42.45-.51.45-.09.99-.09 2.82-.06 5.13-1.2t3.99-2.97q1.68-1.83 2.58-3.93.9-2.1.9-4.14 0-1.8-.81-3.12t-2.55-1.32q-1.5 0-3.03.96-1.53.96-2.85 2.43-1.32 1.47-2.34 3.06-1.02 1.59-1.56 2.79-1.14 3.96-2.07 7.89-.93 3.93-1.77 7.29t-1.71 5.7q-.87 2.34-1.89 3.18-.48.42-1.02.42zm33.6-14.04q-2.64 0-4.26-1.56-1.62-1.56-1.62-4.74 0-2.46.93-6.12t2.37-7.56q-.42-.12-.99-.21-.57-.09-1.11-.33v-1.86q.96.12 1.59.18.63.06 1.29.12 1.26-3.18 2.73-6.15t2.94-5.31q1.47-2.34 2.79-3.69t2.34-1.35q.6 0 1.14.45.54.45.54 1.29 0 1.2-1.23 3.42-1.23 2.22-3.03 5.19-1.8 2.97-3.48 6.33h1.86q2.64 0 4.77-.09 2.13-.09 4.35-.33v1.98q-3.3.3-6.06.48t-5.28.24h-.72q-1.26 2.94-2.19 6.03-.93 3.09-.93 6.03 0 2.46.78 3.48t2.46 1.02q3 0 6.15-2.73 3.15-2.73 5.49-7.41l.84.6q-1.56 3.54-3.87 6.42t-5.01 4.53q-2.7 1.65-5.58 1.65zm37.32 2.46q-3.66 0-5.52-1.2-1.86-1.2-1.92-3.96 0-.6.66-.6.54 0 1.65.27 1.11.27 4.23.27 5.28 0 9.72-1.11t7.71-3q3.27-1.89 5.07-4.26 1.8-2.37 1.8-4.95 0-2.34-1.41-3.75-1.41-1.41-3.72-2.16-2.31-.75-5.04-.99t-5.37-.24q-1.14 0-2.28.03t-2.16.03q-1.32 4.56-2.58 9.42t-2.64 9.54q-1.8 0-3.12-.96t-1.32-2.34q0-.54.21-1.41.21-.87.63-2.07.36-1.14 1.23-3.78.87-2.64 2.07-6.24 1.2-3.6 2.67-7.59 1.47-3.99 3.06-7.83t3.15-6.9q-2.4.54-3.96 1.26t-2.46 1.26q-.9.54-1.38.54-.36 0-.93-.42-.57-.42-1.02-.96-.45-.54-.45-.96 3.24-1.32 6.72-2.34 3.48-1.02 8.4-1.02 2.16 0 4.74.33t4.92 1.32q2.34.99 3.87 2.94 1.53 1.95 1.53 5.19 0 2.58-1.11 4.47-1.11 1.89-2.97 3.24-1.86 1.35-4.08 2.22-2.22.87-4.38 1.41 3.72.48 6.21 1.53 2.49 1.05 3.96 2.43 1.47 1.38 2.1 2.85.63 1.47.63 2.85 0 3.54-1.86 6.36-1.86 2.82-4.89 4.92-3.03 2.1-6.66 3.51-3.63 1.41-7.23 2.13-3.6.72-6.48.72zm4.02-27.9q3.36-.12 6.6-.78 3.24-.66 5.85-1.95 2.61-1.29 4.17-3.36t1.56-5.13q0-2.88-1.56-4.44-1.56-1.56-4.08-2.16-2.52-.6-5.4-.6h-.24q-2.04 4.02-3.72 8.73-1.68 4.71-3.18 9.69zm29.04 24.6q-2.7 0-3.69-1.77-.99-1.77-.99-3.87 0-1.92.6-3.93.6-2.01 1.65-3.75 1.05-1.74 2.34-2.79 1.29-1.05 2.61-1.05.42 0 .99.15.57.15.81.45-.72.9-1.47 2.22-.75 1.32-1.38 2.79-.63 1.47-.99 2.97-.36 1.5-.36 2.76 0 1.2.45 1.98t1.59.78q1.14 0 2.73-1.29t3.03-2.97q-1.92-1.74-2.76-3.81-.84-2.07-.84-5.01 0-1.26.63-2.88.63-1.62 2.04-2.82 1.41-1.2 3.81-1.2 2.58 0 3.63 1.44 1.05 1.44 1.05 3.42 0 2.22-1.17 4.98-1.17 2.76-2.79 5.22.72.36 1.68.36.9 0 2.16-.42 1.26-.42 2.46-1.41t1.92-2.67l1.08.78q-1.32 3.06-3.51 4.47-2.19 1.41-4.29 1.41-.78 0-1.56-.15t-1.44-.39q-2.04 2.4-4.68 4.2-2.64 1.8-5.34 1.8zm9.48-9.24q1.44-2.1 2.46-4.5t1.02-4.44q0-1.38-.42-2.01-.42-.63-1.26-.63-1.14 0-2.34 1.62t-1.2 4.08q0 1.26.45 3.06t1.29 2.82zm14.04 9.12q-2.82 0-3.93-1.89-1.11-1.89-1.11-4.47 0-2.94 1.08-6.9 1.08-3.96 2.85-8.31 1.77-4.35 3.9-8.52t4.29-7.53q2.16-3.36 3.99-5.37 1.83-2.01 2.97-2.01.78 0 1.32.81t.87 1.92q.33 1.11.33 2.07 0 1.62-.81 4.23-.81 2.61-2.28 5.73-1.47 3.12-3.48 6.39-2.01 3.27-4.44 6.21-2.43 2.94-5.19 5.1-.24 1.5-.45 2.97-.21 1.47-.21 2.67 0 2.16.72 3.15.72.99 1.86.99 1.5 0 3.09-1.41 1.59-1.41 3.06-3.6 1.47-2.19 2.55-4.53l1.44.78q-2.58 5.34-5.76 8.43-3.18 3.09-6.66 3.09zm1.44-16.26q2.04-2.22 3.87-4.83t3.36-5.31q1.53-2.7 2.67-5.22 1.14-2.52 1.77-4.53.63-2.01.69-3.21v-.18q-.48 0-1.53 1.35t-2.49 3.69q-1.44 2.34-2.97 5.34-1.53 3-2.94 6.33t-2.43 6.57zm12.24 16.26q-1.14 0-2.31-.57-1.17-.57-1.98-1.77-.81-1.2-.81-3.06 0-1.98.96-4.44.96-2.46 2.61-4.92t3.84-4.5q2.19-2.04 4.65-3.3 2.46-1.26 4.98-1.26 1.38 0 2.16.45.78.45.78 1.47 0 .3-.12.69-.12.39-.6.69-.24-.36-.84-.51-.6-.15-1.26-.15-1.98 0-3.78 1.11-1.8 1.11-3.3 2.85-1.5 1.74-2.61 3.78-1.11 2.04-1.71 3.93-.6 1.89-.6 3.27 0 1.14.48 1.83.48.69 1.44.69 1.62 0 3.87-1.89t4.62-5.46q2.37-3.57 4.29-8.55 1.32-3.42 2.76-6.99 1.44-3.57 2.88-6.87 1.44-3.3 2.85-5.88 1.41-2.58 2.7-4.11 1.29-1.53 2.37-1.53.66 0 1.17.51.51.51.51 1.29 0 1.02-.99 3.27t-2.52 5.37q-1.53 3.12-3.3 6.75-1.77 3.63-3.3 7.44-1.53 3.81-2.52 7.5t-.99 6.93q0 1.44.27 1.95t.93.51q1.32 0 2.94-1.02 1.62-1.02 3.3-3.03 1.68-2.01 3.06-4.83l1.14.96q-1.32 3.3-3.36 5.82-2.04 2.52-4.38 3.93-2.34 1.41-4.62 1.41-2.46 0-3.42-1.56t-.96-3.66q0-.96.15-1.95t.33-1.95q-1.86 2.7-3.93 4.83-2.07 2.13-4.05 3.33-1.98 1.2-3.78 1.2z"/></svg>