<svg viewBox="0 0 325 80" xmlns="http://www.w3.org/2000/svg"><path d="M38.58 15.94v-3.6h3.6v3.6h-3.6zm0 4.62v-3.6h3.6v3.6h-3.6zm4.62 0v-3.6h3.6v3.6h-3.6zm4.62 0v-3.6h3.6v3.6h-3.6zm4.62 0v-3.6h3.6v3.6h-3.6zm4.62 0v-3.6h3.6v3.6h-3.6zm-18.48 4.62v-3.6h3.6v3.6h-3.6zm0 4.62v-3.6h3.6v3.6h-3.6zm-13.86 4.62v-3.6h3.6v3.6h-3.6zm4.62 0v-3.6h3.6v3.6h-3.6zm4.62 0v-3.6h3.6v3.6h-3.6zm4.62 0v-3.6h3.6v3.6h-3.6zm4.62 0v-3.6h3.6v3.6h-3.6zm4.62 0v-3.6h3.6v3.6h-3.6zm4.62 0v-3.6h3.6v3.6h-3.6zm-27.72 4.62v-3.6h3.6v3.6h-3.6zm27.72 0v-3.6h3.6v3.6h-3.6zm-27.72 4.62v-3.6h3.6v3.6h-3.6zm27.72 0v-3.6h3.6v3.6h-3.6zm-27.72 4.62v-3.6h3.6v3.6h-3.6zm4.62 0v-3.6h3.6v3.6h-3.6zm4.62 0v-3.6h3.6v3.6h-3.6zm4.62 0v-3.6h3.6v3.6h-3.6zm4.62 0v-3.6h3.6v3.6h-3.6zm4.62 0v-3.6h3.6v3.6h-3.6zm4.62 0v-3.6h3.6v3.6h-3.6zM20.1 57.46v-3.54h3.6v3.54h-3.6zm9.24 0v-3.54h3.6v3.54h-3.6zm13.86 0v-3.54h3.6v3.54h-3.6zm13.86 0v-3.54h3.6v3.54h-3.6zM20.1 62.08v-3.54h3.6v3.54h-3.6zm13.86 0v-3.54h3.6v3.54h-3.6zm13.86 0v-3.54h3.6v3.54h-3.6zm13.86 0v-3.54h3.6v3.54h-3.6zM15.54 66.7v-3.6h3.54v3.6h-3.54zm18.42 0v-3.6h3.6v3.6h-3.6zm13.86 0v-3.6h3.6v3.6h-3.6zm13.86 0v-3.6h3.6v3.6h-3.6zm36.9-50.76v-3.6h3.6v3.6h-3.6zm0 4.62v-3.6h3.6v3.6h-3.6zm4.62 0v-3.6h3.6v3.6h-3.6zm4.62 0v-3.6h3.6v3.6h-3.6zm4.62 0v-3.6h3.6v3.6h-3.6zm4.62 0v-3.6h3.6v3.6h-3.6zm-18.48 4.62v-3.6h3.6v3.6h-3.6zm0 4.62v-3.6h3.6v3.6h-3.6zm-13.86 4.62v-3.6h3.6v3.6h-3.6zm4.62 0v-3.6h3.6v3.6h-3.6zm4.62 0v-3.6h3.6v3.6h-3.6zm4.62 0v-3.6h3.6v3.6h-3.6zm4.62 0v-3.6h3.6v3.6h-3.6zm4.62 0v-3.6h3.6v3.6h-3.6zm4.62 0v-3.6h3.6v3.6h-3.6zm-27.72 4.62v-3.6h3.6v3.6h-3.6zm27.72 0v-3.6h3.6v3.6h-3.6zm-27.72 4.62v-3.6h3.6v3.6h-3.6zm27.72 0v-3.6h3.6v3.6h-3.6zm-27.72 4.62v-3.6h3.6v3.6h-3.6zm4.62 0v-3.6h3.6v3.6h-3.6zm4.62 0v-3.6h3.6v3.6h-3.6zm4.62 0v-3.6h3.6v3.6h-3.6zm4.62 0v-3.6h3.6v3.6h-3.6zm4.62 0v-3.6h3.6v3.6h-3.6zm4.62 0v-3.6h3.6v3.6h-3.6zM80.1 57.46v-3.54h3.6v3.54h-3.6zm9.24 0v-3.54h3.6v3.54h-3.6zm13.86 0v-3.54h3.6v3.54h-3.6zm13.86 0v-3.54h3.6v3.54h-3.6zM80.1 62.08v-3.54h3.6v3.54h-3.6zm13.86 0v-3.54h3.6v3.54h-3.6zm13.86 0v-3.54h3.6v3.54h-3.6zm13.86 0v-3.54h3.6v3.54h-3.6zM75.54 66.7v-3.6h3.54v3.6h-3.54zm18.42 0v-3.6h3.6v3.6h-3.6zm13.86 0v-3.6h3.6v3.6h-3.6zm13.86 0v-3.6h3.6v3.6h-3.6zm27.66-50.76v-3.6h3.6v3.6h-3.6zm13.86 0v-3.6h3.6v3.6h-3.6zm4.62 0v-3.6h3.6v3.6h-3.6zm4.62 0v-3.6h3.6v3.6h-3.6zm4.62 0v-3.6h3.6v3.6h-3.6zm-27.72 4.62v-3.6h3.6v3.6h-3.6zm9.24 0v-3.6h3.6v3.6h-3.6zm13.86 0v-3.6h3.6v3.6h-3.6zm-27.72 4.62v-3.6h3.6v3.6h-3.6zm9.24 0v-3.6h3.6v3.6h-3.6zm4.62 0v-3.6h3.6v3.6h-3.6zm4.62 0v-3.6h3.6v3.6h-3.6zm4.62 0v-3.6h3.6v3.6h-3.6zm4.62 0v-3.6h3.6v3.6h-3.6zm4.62 0v-3.6h3.6v3.6h-3.6zm4.62 0v-3.6h3.6v3.6h-3.6zm4.62 0v-3.6h3.6v3.6h-3.6zm-41.58 4.62v-3.6h3.6v3.6h-3.6zm13.86 0v-3.6h3.6v3.6h-3.6zm13.86 0v-3.6h3.6v3.6h-3.6zm13.86 0v-3.6h3.6v3.6h-3.6zm-46.2 4.62v-3.6h3.6v3.6h-3.6zm4.62 0v-3.6h3.6v3.6h-3.6zm13.86 0v-3.6h3.6v3.6h-3.6zm4.62 0v-3.6h3.6v3.6h-3.6zm4.62 0v-3.6h3.6v3.6h-3.6zm4.62 0v-3.6h3.6v3.6h-3.6zm4.62 0v-3.6h3.6v3.6h-3.6zm4.62 0v-3.6h3.6v3.6h-3.6zm4.62 0v-3.6h3.6v3.6h-3.6zm-50.76 4.62v-3.6h3.54v3.6h-3.54zm9.18 0v-3.6h3.6v3.6h-3.6zm18.48 0v-3.6h3.6v3.6h-3.6zm23.1 0v-3.6h3.6v3.6h-3.6zm-41.58 4.62v-3.6h3.6v3.6h-3.6zm9.24 0v-3.6h3.6v3.6h-3.6zm4.62 0v-3.6h3.6v3.6h-3.6zm9.24 0v-3.6h3.6v3.6h-3.6zm13.86 0v-3.6h3.6v3.6h-3.6zm-36.96 4.62v-3.6h3.6v3.6h-3.6zm18.48 0v-3.6h3.6v3.6h-3.6zm9.24 0v-3.6h3.6v3.6h-3.6zm4.62 0v-3.6h3.6v3.6h-3.6zm-32.34 4.62v-3.6h3.6v3.6h-3.6zm9.24 0v-3.6h3.6v3.6h-3.6zm4.62 0v-3.6h3.6v3.6h-3.6zm9.24 0v-3.6h3.6v3.6h-3.6zm4.62 0v-3.6h3.6v3.6h-3.6zm4.62 0v-3.6h3.6v3.6h-3.6zm-32.34 4.56v-3.54h3.6v3.54h-3.6zm18.48 0v-3.54h3.6v3.54h-3.6zm9.24 0v-3.54h3.6v3.54h-3.6zm9.24 0v-3.54h3.6v3.54h-3.6zm-36.96 4.62v-3.54h3.6v3.54h-3.6zm9.24 0v-3.54h3.6v3.54h-3.6zm4.62 0v-3.54h3.6v3.54h-3.6zm13.86 0v-3.54h3.6v3.54h-3.6zm13.86 0v-3.54h3.6v3.54h-3.6zm-41.58 4.62v-3.6h3.6v3.6h-3.6zm23.1 0v-3.6h3.6v3.6h-3.6zm4.62 0v-3.6h3.6v3.6h-3.6zm46.14-50.76v-3.6h3.6v3.6h-3.6zm-18.48 4.62v-3.6h3.6v3.6h-3.6zm4.62 0v-3.6h3.6v3.6h-3.6zm4.62 0v-3.6h3.6v3.6h-3.6zm4.62 0v-3.6h3.6v3.6h-3.6zm4.62 0v-3.6h3.6v3.6h-3.6zm4.62 0v-3.6h3.6v3.6h-3.6zm4.62 0v-3.6h3.6v3.6h-3.6zm4.62 0v-3.6h3.6v3.6h-3.6zm4.62 0v-3.6h3.6v3.6h-3.6zm-18.48 4.62v-3.6h3.6v3.6h-3.6zm-13.86 4.62v-3.6h3.6v3.6h-3.6zm4.62 0v-3.6h3.6v3.6h-3.6zm4.62 0v-3.6h3.6v3.6h-3.6zm4.62 0v-3.6h3.6v3.6h-3.6zm4.62 0v-3.6h3.6v3.6h-3.6zm4.62 0v-3.6h3.6v3.6h-3.6zm4.62 0v-3.6h3.6v3.6h-3.6zm-13.86 4.62v-3.6h3.6v3.6h-3.6zm-23.04 4.62v-3.6h3.54v3.6h-3.54zm4.56 0v-3.6h3.6v3.6h-3.6zm4.62 0v-3.6h3.6v3.6h-3.6zm4.62 0v-3.6h3.6v3.6h-3.6zm4.62 0v-3.6h3.6v3.6h-3.6zm4.62 0v-3.6h3.6v3.6h-3.6zm4.62 0v-3.6h3.6v3.6h-3.6zm4.62 0v-3.6h3.6v3.6h-3.6zm4.62 0v-3.6h3.6v3.6h-3.6zm4.62 0v-3.6h3.6v3.6h-3.6zm4.62 0v-3.6h3.6v3.6h-3.6zm-27.72 4.62v-3.6h3.6v3.6h-3.6zm13.86 0v-3.6h3.6v3.6h-3.6zm-23.1 4.62v-3.6h3.6v3.6h-3.6zm4.62 0v-3.6h3.6v3.6h-3.6zm4.62 0v-3.6h3.6v3.6h-3.6zm4.62 0v-3.6h3.6v3.6h-3.6zm4.62 0v-3.6h3.6v3.6h-3.6zm4.62 0v-3.6h3.6v3.6h-3.6zm4.62 0v-3.6h3.6v3.6h-3.6zm-18.48 4.62v-3.6h3.6v3.6h-3.6zm23.1 0v-3.6h3.6v3.6h-3.6zm-36.96 4.56v-3.54h3.6v3.54h-3.6zm4.62 0v-3.54h3.6v3.54h-3.6zm4.62 0v-3.54h3.6v3.54h-3.6zm4.62 0v-3.54h3.6v3.54h-3.6zm4.62 0v-3.54h3.6v3.54h-3.6zm4.62 0v-3.54h3.6v3.54h-3.6zm4.62 0v-3.54h3.6v3.54h-3.6zm4.62 0v-3.54h3.6v3.54h-3.6zm4.62 0v-3.54h3.6v3.54h-3.6zm-32.34 4.62v-3.54h3.6v3.54h-3.6zm13.86 0v-3.54h3.6v3.54h-3.6zm13.86 0v-3.54h3.6v3.54h-3.6zM200.1 66.7v-3.6h3.6v3.6h-3.6zm13.86 0v-3.6h3.6v3.6h-3.6zm4.62 0v-3.6h3.6v3.6h-3.6zm18.48 0v-3.6h3.6v3.6h-3.6zm32.28-50.76v-3.6h3.6v3.6h-3.6zm18.48 0v-3.6h3.6v3.6h-3.6zm-18.48 4.62v-3.6h3.6v3.6h-3.6zm18.48 0v-3.6h3.6v3.6h-3.6zm-23.1 4.62v-3.6h3.6v3.6h-3.6zm9.24 0v-3.6h3.6v3.6h-3.6zm4.62 0v-3.6h3.6v3.6h-3.6zm4.62 0v-3.6h3.6v3.6h-3.6zm4.62 0v-3.6h3.6v3.6h-3.6zm4.62 0v-3.6h3.6v3.6h-3.6zm4.62 0v-3.6h3.6v3.6h-3.6zm4.62 0v-3.6h3.6v3.6h-3.6zm-36.96 4.62v-3.6h3.6v3.6h-3.6zm23.1 0v-3.6h3.6v3.6h-3.6zm-27.72 4.62v-3.6h3.6v3.6h-3.6zm4.62 0v-3.6h3.6v3.6h-3.6zm18.48 0v-3.6h3.6v3.6h-3.6zm4.62 0v-3.6h3.6v3.6h-3.6zm4.62 0v-3.6h3.6v3.6h-3.6zm-36.9 4.62v-3.6h3.54v3.6h-3.54zm9.18 0v-3.6h3.6v3.6h-3.6zm13.86 0v-3.6h3.6v3.6h-3.6zm9.24 0v-3.6h3.6v3.6h-3.6zm9.24 0v-3.6h3.6v3.6h-3.6zm-32.34 4.62v-3.6h3.6v3.6h-3.6zm9.24 0v-3.6h3.6v3.6h-3.6zm13.86 0v-3.6h3.6v3.6h-3.6zm13.86 0v-3.6h3.6v3.6h-3.6zm-36.96 4.62v-3.6h3.6v3.6h-3.6zm4.62 0v-3.6h3.6v3.6h-3.6zm18.48 0v-3.6h3.6v3.6h-3.6zm18.48 0v-3.6h3.6v3.6h-3.6zm-41.58 4.62v-3.6h3.6v3.6h-3.6zm13.86 0v-3.6h3.6v3.6h-3.6zm4.62 0v-3.6h3.6v3.6h-3.6zm4.62 0v-3.6h3.6v3.6h-3.6zm4.62 0v-3.6h3.6v3.6h-3.6zm4.62 0v-3.6h3.6v3.6h-3.6zm-32.34 4.56v-3.54h3.6v3.54h-3.6zm23.1 0v-3.54h3.6v3.54h-3.6zm-23.1 4.62v-3.54h3.6v3.54h-3.6zm23.1 0v-3.54h3.6v3.54h-3.6zm-23.1 4.62v-3.6h3.6v3.6h-3.6zm23.1 0v-3.6h3.6v3.6h-3.6z"/></svg>