<?xml version="1.0" encoding="utf-8"?>
<!-- Generator: Adobe Illustrator 24.0.0, SVG Export Plug-In . SVG Version: 6.00 Build 0)  -->
<svg version="1.1" id="图层_1" xmlns="http://www.w3.org/2000/svg" xmlns:xlink="http://www.w3.org/1999/xlink" x="0px" y="0px"
	 viewBox="0 0 382.7 80" style="enable-background:new 0 0 382.7 80;" xml:space="preserve">
<path d="M54.7,23.7H66v28.6c0,3.6-0.9,6.1-2.8,7.6s-4.9,2.2-9,2.2l0,0h-0.8v-2.8h0.8c1.1,0,2-0.4,2.8-1.3s1.1-2.4,1.1-4.5l0,0v-27
	h-3.4v5.6c0,5.8-0.6,10.7-1.7,14.9l0,0c-1.1,4.2-2.5,7.6-4.3,10.4c-1.8,2.8-3.7,4.9-5.9,6.3l0,0V61c1.2-3.4,2.1-7.5,2.8-12.3
	c0.9-4.8,1.3-9.7,1.3-14.9l0,0v-7.4h-2.5v-2.8h2.5v-7.5h7.9L54.7,23.7C54.8,23.7,54.7,23.7,54.7,23.7z M31.3,30.5v6.4h10.2v15.4
	c0,2.5-0.3,4.5-1,5.9l0,0c-0.7,1.4-1.8,2.4-3.3,3s-3.6,0.9-6.3,0.9l0,0h-0.8v-2.8h0.8c1.1,0,2-0.4,2.8-1.3c0.8-0.9,1.2-2.4,1.2-4.5
	l0,0V39.7h-3.5v3.2c0,5.3-0.9,9.7-2.7,13.3c-1.8,3.5-4.2,5.9-7.1,7.1l0,0v-2.5c0.9-2.2,1.7-4.6,2.3-7.3s0.9-5.4,0.9-8.2l0,0V30.5h-3
	V47c0,4.4-0.9,8-2.7,10.8c-1.8,2.8-4.1,4.6-6.9,5.5l0,0v-2.5c0.8-1.2,1.4-2.7,1.9-4.6s0.7-3.9,0.7-6.1l0,0V18.4h28.7v2.8H21.7v6.6
	h21.2v2.8L31.3,30.5L31.3,30.5z"/>
<path d="M117.2,23.2H82.4v5.9h-8.6v-8.7h22.3c-0.8-1.3-1.3-2.7-1.3-4.2l0,0h10c0,1.6,0.2,3,0.6,4.2l0,0h20.4v1.4h0.1v7.3h-8.6
	L117.2,23.2L117.2,23.2z M105.8,44.6h21.8v2.8h-21.8v5.3c0,3.6-1,6.2-3.2,7.9c-2.1,1.6-5.3,2.5-9.5,2.5l0,0L93,63.2h-4.7v-2.8H93
	c1.1,0,2-0.4,2.8-1.3c0.8-0.9,1.2-2.4,1.2-4.6l0,0v-7H72.3v-2.8h24.9v-4c2-0.6,3.9-1.6,5.7-2.8c1.8-1.3,3.3-2.7,4.4-4.3l0,0H81.4
	v-2.8h37.8c-0.4,2.9-1.7,5.3-4.1,7.1s-5.5,3.2-9.3,4.2l0,0V44.6z"/>
<path d="M167.9,19.6h19.5v2.8h-44v25.1c0,4.7-1.1,8.5-3.2,11.3c-2.1,2.8-4.9,4.5-8.3,5.1l0,0v-2.8c0.9-1,1.6-2.5,2.2-4.5
	c0.6-2,0.9-4.4,0.9-7.1l0,0V19.6h22.7c-0.4-1-0.7-2-0.7-3l0,0h10.6C167.6,17.6,167.7,18.6,167.9,19.6L167.9,19.6z M169,58
	c0,1,0.2,1.7,0.5,2s0.8,0.5,1.5,0.5l0,0h16.3v2.8H171c-2.8,0-4.7-0.1-5.9-0.4l0,0c-1.2-0.2-2.1-0.8-2.6-1.5c-0.5-0.8-0.7-2-0.7-3.8
	l0,0v-0.1c-2.4,1.8-5.3,3.2-8.7,4.3s-6.8,1.8-10.3,2l0,0v-2.5c3.4-0.9,6.6-2.1,9.6-3.8c2.9-1.6,5.2-3.5,6.8-5.7l0,0h-12.8V38.2h13.4
	c0.2-0.6,0.4-1.1,0.4-1.7l0,0h5.4v-2.3c1-0.5,1.9-1.2,2.7-2.1c0.8-0.9,1.5-1.9,1.9-3.1l0,0h-4.1v-2.8h6.7v-2.6h7v2.6h7V29h-4.3
	c0.4,1.2,1,2.2,1.8,3.1c0.9,0.9,1.8,1.6,2.8,2.1l0,0v3c-1.4-0.3-2.7-0.8-4-1.5s-2.4-1.5-3.3-2.5l0,0v4h-7v-3.9
	c-1.1,1.2-2.8,2.3-5,3.2l0,0h0.5c0,0.6-0.2,1.2-0.6,1.7l0,0H184v13.7h-17.1c-0.4,0.8-0.8,1.4-1.1,1.8l0,0h3.3L169,58L169,58z
	 M144.8,34.1c1-0.5,1.9-1.2,2.7-2.1s1.5-1.9,1.9-3.1l0,0H145v-2.8h7v-2.6h7v2.6h5.3V29h-3.2c0.4,0.8,0.9,1.6,1.5,2.3
	c0.6,0.7,1.3,1.2,2.1,1.6l0,0v3c-1-0.2-2-0.6-3-1.1s-1.9-1.2-2.7-1.9l0,0v4.3h-7v-4c-0.9,1-2,1.8-3.2,2.5s-2.6,1.2-4,1.4l0,0
	L144.8,34.1L144.8,34.1z M153.7,41v2.8h7.6V41H153.7z M176.5,41h-7.7v2.8h7.7V41z M153.7,46.4v2.8h6.9c0.3-1,0.5-1.9,0.7-2.8l0,0
	H153.7z M168.1,49.1h8.5v-2.8h-7.9C168.6,47,168.4,47.9,168.1,49.1L168.1,49.1z M177.4,52.6c-0.5,1.4-1.4,2.6-2.6,3.6l0,0
	c0.6,0,1.8-0.1,3.8-0.2l0,0c-0.4-0.6-0.7-1.4-0.9-2.3l0,0h4.9c0.3,1.5,1,2.8,1.9,3.9l0,0v1.9c-1.1-0.1-2.2-0.5-3.3-1l0,0
	c-3,0.4-5.8,0.5-8.2,0.5l0,0h-3.1v-2.8c0.9-1,1.5-2.2,1.9-3.6l0,0C171.8,52.6,177.4,52.6,177.4,52.6z"/>
<path d="M246.7,21.1v2.8h-36.5v8.6h31.3v19.9c0,3.6-1,6.1-3.1,7.6c-2,1.5-5.2,2.3-9.5,2.3l0,0h-7.6v-2.8h7.6c1,0,1.9-0.4,2.7-1.3
	s1.2-2.4,1.2-4.5l0,0V35.3h-22.6V36c0,5.3-0.8,9.8-2.4,13.4l0,0c-1.6,3.6-3.6,6.5-6.2,8.7c-2.6,2.2-5.4,3.7-8.6,4.5l0,0v-2.5
	c2.5-2,4.6-5,6.2-9c1.6-4,2.4-8.7,2.4-14.1l0,0V23.9h-8.5v-2.8h22.8c-1.3-1.5-1.9-3-1.9-4.6l0,0h10.7c0,1.7,0.3,3.3,0.9,4.6l0,0
	H246.7z"/>
<path d="M304.9,40.7v2.8h-20.4v6h23v2.8h-55.2v-2.8h23.5v-6h-20.9v-2.8h20.9v-4.1h-19.9V17.8h48.2v18.8h-19.7v4.1
	C284.4,40.7,304.9,40.7,304.9,40.7z M275.8,33.8V20.5h-12.1v13.3H275.8z M296.3,20.5h-11.9v13.3h11.9V20.5z M271.8,22.7
	c0,1.5,0.2,2.8,0.5,3.8c0.4,1.1,0.8,1.9,1.4,2.4l0,0v2.6c-2.6-0.1-4.6-0.9-6.2-2.4s-2.4-3.6-2.4-6.4l0,0H271.8z M294.7,22.7
	c0,2.8-0.8,4.9-2.4,6.4s-3.7,2.3-6.2,2.4l0,0v-2.6c0.6-0.5,1.1-1.3,1.4-2.4c0.4-1.1,0.5-2.3,0.5-3.8l0,0H294.7z M255.6,55.1v-0.8
	h8.1v0.2c0,3.1-1,5.4-2.9,6.9s-4.4,2.1-7.5,1.9l0,0v-2.9c0.7-0.5,1.2-1.3,1.7-2.2S255.6,56.3,255.6,55.1L255.6,55.1z M276.2,55.1
	c0,1.2,0.2,2.2,0.7,3.2s1,1.7,1.7,2.2l0,0v2.9l-1,0.1c-2.6,0-4.8-0.7-6.6-2c-1.8-1.4-2.7-3.6-2.7-6.8l0,0v-0.2h8v0.6H276.2z
	 M290.2,55.1c0,1.2,0.2,2.3,0.7,3.2s1,1.7,1.7,2.1l0,0v2.9l-1,0.1c-2.6,0-4.9-0.7-6.7-2c-1.8-1.4-2.7-3.6-2.7-6.8l0,0v-0.2h8V55.1z
	 M304.2,55.1c0,1.2,0.2,2.2,0.7,3.2s1,1.7,1.7,2.2l0,0v2.9l-1,0.1c-2.6,0-4.9-0.7-6.7-2c-1.8-1.4-2.7-3.6-2.7-6.8l0,0v-0.2h8.1v0.6
	H304.2z"/>
<path d="M325.8,21.7c-1.5,2-3.4,3.5-5.8,4.6s-5,1.8-7.7,2l0,0v-3.1c1.7-0.7,3.2-1.8,4.5-3.4s2.2-3.4,2.6-5.6l0,0h8.8
	c-0.2,1.1-0.5,2-0.8,2.6l0,0h13v2.8h-14.6V21.7z M353.5,18.9h14v2.8H352c-1.5,2.1-3.4,3.7-5.9,4.8c-2.4,1.1-5,1.7-7.7,1.8l0,0v-3.1
	c1.7-0.8,3.2-1.9,4.5-3.5s2.2-3.4,2.6-5.5l0,0h8.8C354,17.2,353.7,18.1,353.5,18.9L353.5,18.9z M333,23.2c0.2,0.6,0.6,1.1,1.2,1.7
	c0.5,0.6,1.1,1,1.8,1.4l0,0V29c-3.1-0.1-5.6-0.6-7.6-1.6s-3-2.4-3.1-4.2l0,0H333z M362.5,29c-2.9,0-5.4-0.5-7.4-1.5
	s-3.1-2.4-3.3-4.3l0,0h7.7c0.6,1.2,1.6,2.2,2.9,3.1l0,0L362.5,29L362.5,29z M324.4,27.7c0,1.2,0.3,2.4,0.8,3.5
	c0.5,1.1,1.2,2.1,2,2.9l0,0v1.7l-1.3,0.1c-2.6,0-4.7-0.6-6.4-1.9c-1.7-1.3-2.6-3.4-2.6-6.3l0,0H324.4z M328.7,29.9h27.8v-0.1h8.2
	v25.3c0,2.7-0.5,4.7-1.4,6l0,0c-0.9,1.2-2,1.9-3.4,2.2s-3.7,0.5-6.8,0.5l0,0h-2.8V61h2.8l0,0c2.3,0,3.4-1.6,3.4-4.9l0,0V32.6h-27.8
	V29.9L328.7,29.9z M315.5,36.5h8.3v27.4h-8.3V36.5z M352,37v1h0.1v20.6h-23.8V37H352z M335.6,46.4h8.9v-6.8h-8.9V46.4z M344.6,55.9
	v-6.7h-8.9v6.7H344.6z"/>
</svg>
