<svg viewBox="0 0 326 80" xmlns="http://www.w3.org/2000/svg"><path d="M63.78 28.46l8.22-.72-1.2 34.38-6.96 4.14-7.44-11.22q-4.62 8.7-11.28 11.64 3.24-7.44 5.01-14.7 1.77-7.26 2.55-15.06h-1.5l-1.26-7.32 3.3-.3q.24-4.02.48-12.3l.12-3.9 11.82 2.1q-.54 3.66-.84 5.76-.36 3.12-1.02 7.5zm-16.2 11.82l-1.32 19.56-6 4.38-4.14-10.26 3.6.24-.3-6.06-2.1-.24q-1.62 3.42-3.54 6.18-3.06 4.56-6.3 7.62-3.24 3.06-6.3 3.9 4.2-7.38 6.36-14.46 2.16-7.08 3.84-17.22H29.7q-1.74 8.94-5.22 16.74-3.48 7.8-8.94 13.14 1.98-4.56 3.12-16.5 1.14-11.94 1.14-22.38 0-5.76-.36-7.98l31.74-1.68.84 9.36-20.88-.72q-.24 2.4-.42 3.66l17.34-.78.96 7.56-6.72-.18q-.96 3.6-1.98 6.54l7.26-.42zm8.88 14.58l6.9.18-.84-18.3h-.18q-2.22 10.92-5.88 18.12zm66.06-27.06l-31.74-.36-10.74 8.94.72-16.02 21.54-1.26-5.04-4.08 2.94-4.26 12.36 3.06-3.36 4.92 20.22-1.2 2.34 10.38-9.3 7.2.06-7.32zm9.78 25.26L114.84 53l-.3 8.16-8.22 7.02-10.62-8.94 6.18-.36-.6-5.94-19.86-.06-2.22-6.66 21.24-1.38-.42-4.38 7.14.48 1.26-3.12-18.54-.06-1.68-6 27.54-1.92 6.06 8.04-9.42 3.42 2.94.18-.12 2.34 14.94-.96 2.16 10.2zm35.4-19.08q-.18.36-1.56 3.15-1.38 2.79-4.65 5.04-3.27 2.25-7.65 2.31l-1.68 18-9.24 2.28.06-25.92q-4.08 2.94-7.86 2.76 1.98-2.64 4.71-8.88t4.92-12.57q2.19-6.33 2.55-8.19l12.3 4.02q-1.62 3.48-3.96 7.53-2.34 4.05-4.98 7.47l4.32 1.2-1.02 10.86q2.22-3.54 5.76-10.44l.66-1.32-2.82.18-.72-7.74 3.24-.06q4.56-7.98 5.94-11.94l9.12 3.96q-1.32 4.74-4.38 7.74l8.1-.18-2.7-3.9 2.94-3 13.92 9-6.36 8.76 4.5 1.26-2.7 8.76-15.6-8.88 1.74-4.56 11.88 3.36-3.12-4.44-20.34 1.44 4.68 2.94zm18.66 15.96q-1.38 2.22-3.3 4.26l8.76 1.98-4.26 10.26-12.66-5.76q-8.64 5.04-18.36 5.04-2.04 0-3.12-.12 4.62-1.98 12.9-8.76l-4.5-2.1q-3.42 1.98-7.38 2.94 2.82-3.6 7.2-10.83 4.38-7.23 6.36-11.37l8.1 4.14q-.24.3-.72 1.14-1.08 1.68-1.5 2.28l6.84-.18 5.64 7.08zm-18.9.72l4.74 1.08 3.18-3-5.4-.66q-1.02 1.2-2.52 2.58zm54.42 1.26l-4.14-5.64-.6 16.5-8.76 2.4-.6-20.64q-3.78 7.32-9.84 10.14 2.28-5.16 3.66-10.32 1.38-5.16 2.52-11.04l-3.66.06-1.74-8.88 8.52-.84-.3-10.56 11.94 1.86-.3 7.56 4.68-.48 1.62 10.92-6.66.12-.06 2.4 6.54 5.46-2.82 10.98zm31.38-6.36l-5.4 10.86-4.44-7.98-.48 16.32-8.94 1.62-.66-17.82q-4.56 6.78-12.3 10.02 2.76-5.58 5.13-11.88 2.37-6.3 3.69-11.58l-3 .06-1.44-10.5 6.96-.72-.42-10.86 12.42 1.86-.24 7.8 5.64-.54 1.32 12.42-7.32.18-.06 1.92 9.54 8.82zm54.54-18.9l-6.06 3.36 7.68-.3-1.32 31.74-5.34 5.34-9.18-8.4-.12 2.04-16.8.18-1.32-20.82 19.26-.84-.9 17.4 4.14-.06-.84-18.42-15.84.06-1.02-7.08 19.26-.72-2.34-6.48-2.22-.06q-4.56 4.32-10.32 5.94 1.02-1.8 2.4-5.88l-9.66-.18 3.3 3.42-5.94 3.54 5.4 3.6-6.3 6.18-1.26-1.62-.66 25.26-8.76 1.38-1.8-30.06 8.64.24-2.34-2.94 3.12-3.3-1.44-4.38q-2.76 2.94-5.82 5.1-3.06 2.16-5.52 3 1.98-4.2 3.9-11.19 1.92-6.99 2.34-10.89l11.64 3.12q-.42 1.62-1.02 2.94l11.46-1.5 1.02 7.38q.96-3.06 1.74-6.27.78-3.21 1.08-5.13l10.86 2.58q-.36 1.2-.9 2.4l9.3-1.02 1.32 8.7-5.82-.12 3 2.76zm-21.24 20.76l-.06-2.46-2.88-.06-.12 2.76 3.06-.24zm-3.24 4.38l-.18 3.12 3.72-.54-.12-2.4-3.42-.18z"/></svg>