<svg viewBox="0 0 539 80" xmlns="http://www.w3.org/2000/svg"><path d="M62.46 18.5h10.08l-.6 41.94q-.06 2.76-1.86 4.53-1.8 1.77-4.56 1.77h-5.94v-9.06h1.86q.66 0 1.08-.45.42-.45.42-1.05l.48-27.96h-1.56l-4.44 38.52H48.3l4.44-38.52h-2.52V18.5h3.12l.06-4.98h9.06v4.98zm-13.32 5.52h-22.8v25.92l-2.52 16.8h-8.46l2.22-14.94V14.78h31.56v9.24zM39.12 37.1h9.6l-.6 22.68q-.06 2.76-1.86 4.47t-4.5 1.71h-6.3v-8.4h2.52q.66 0 1.11-.42.45-.42.45-1.08l.24-10.2h-1.62l-4.8 20.52h-8.7L30.54 41l.06-6.72h-3.06v-8.76h20.94v8.76h-9.36v2.82zm82.2-11.22h-32.4V29h-10.5V16.28h21.06l-.84-3.6h12.6l.84 3.6h19.74V29h-10.5v-3.12zm11.34 17.82v10.2h-18v5.88q0 3.06-1.98 5.04t-5.04 1.98H87.12v-9h13.98q.9 0 1.53-.63t.63-1.53V53.9h-24.9V43.7h24.9v-.06l4.56-3.84H83.16v-9.3h43.08v5.76l-9 7.44h15.42zm26.7 2.76h-9.18v3.42h-11.1V24.5h12.66l-.9-1.5h11.58l.84 1.5h3.54l3.3-2.7h-31.02v-7.2h51.36v3.78l-8.22 6.12h8.64v25.38h-11.1v-3.42h-9.12v2.04h-11.28v-2.04zm0-13.5V31.1h-9.18v1.86h9.18zm11.28 0h9.12V31.1h-9.12v1.86zm-20.46 5.82v1.86h9.18v-1.86h-9.18zm20.46 0v1.86h9.12v-1.86h-9.12zm-8.16 12.3h28.92l-.78 9.42q-.24 2.76-2.16 4.53-1.92 1.77-4.68 1.77h-13.2v-6.6h7.2q.48 0 .81-.33.33-.33.39-.81l.06-.78h-18.42l-7.5 8.52h-14.04l7.68-8.52H138v-7.2h13.38v-1.56h11.1v1.56zm92.76 15.66h-11.7l-3.66-5.94-.9 1.92q-.9 1.86-2.58 2.94-1.68 1.08-3.78 1.08h-6.6l2.04-4.2-3.42.42v3.78h-10.26v-2.58l-17.76 2.16v-9.18l2.4-.3v-22.5h-2.22V25.4h16.56l.36-2.1H198.3v-8.16h27.18L223.8 25.4h3.12v8.94h-2.28v19.44l3.72-.48v8.58l5.4-11.22-5.76-9.42h10.26l3.42-7.08q.48-1.08.48-2.16v-5.64h-4.08l-1.02 12.78h-9.96l1.98-25.02h9.96l-.18 2.04h15.24v10.2h-1.98v6.78q0 2.04-.9 4.02l-6.18 12.9 10.2 16.68zm-40.86-30.3v-2.1h-5.1v2.1h5.1zm0 7.32h-5.1v2.1h5.1v-2.1zm-5.1 9.36v2.46l5.1-.6v-1.86h-5.1zm103.08-3.6v7.92h-55.02v-7.92h21.48v-1.5h-19.86V40.4h19.86v-1.5h-20.04V14.78h52.14v17.1q0 3.06-1.98 5.04t-5.04 1.98h-13.02v1.5h19.92v7.62h-19.92v1.5h21.48zm-32.04-26.28H268.5v7.26h11.82v-7.26zm20.88 5.1v-5.1h-11.82v7.26h9.66q.9 0 1.53-.63t.63-1.53zm-31.5.9V24.2l9.42.42v5.04l-9.42-.42zM300 24.2v5.04l-9.42.42v-5.04l9.42-.42zm-32.28 42.6h-11.46l3.06-8.16h11.52l-3.12 8.16zm7.56 0l-3.6-8.16h11.76l3.6 8.16h-11.76zm13.38 0l-3.6-8.16h11.76l3.6 8.16h-11.76zm9.78-8.16h11.76l3.6 8.16h-11.76l-3.6-8.16zm32.28-34.98h-1.14l-1.74 3.36h-11.4l6.78-13.14h11.4l-1.2 2.28h11.7v7.5h-3.6l1.86 3.06h-10.8l-1.86-3.06zm30.18-9.78l-1.02 2.28h12.3v7.5h-3.84l1.92 2.88h-10.8l-1.92-2.88h-.9l-1.32 3.06h-11.4l5.58-12.84h11.4zm-25.2 22.74v-8.4h35.82v32.1q0 2.82-1.8 4.62-1.8 1.8-4.62 1.8h-7.74v-4.8q-1.62 1.74-4.26 1.74h-22.2V38.12h28.02v19.14h.3q.66 0 1.08-.45.42-.45.42-1.05V36.62H335.7zm-11.7-.66l-2.82-7.44h10.44l2.82 7.44H324zm5.1 30.78h-10.8V37.16h10.8v29.58zm20.7-18.84v-2.4h-9.78v2.4h9.78zm-1.56 8.4q.66 0 1.11-.45.45-.45.45-1.05v-.9h-9.78v2.4h8.22zm83.4 1.38h31.2v2.7q0 2.82-1.8 4.62-1.8 1.8-4.62 1.8h-27.66q-3 0-5.4-1.68l-7.14-4.86-.72 6.54h-9.6l1.8-16.8v-8.76h9.54v7.26l1.5 1.08V39.44h-11.7v-10.5h8.82v-1.8H408v-10.2h7.86v-3.06h10.92v3.06h7.26v10.2h-7.26v1.8H435v10.5h-6.42v3.42h6.12v10.2h-6.12v3.6l.12.06q1.32.96 2.94.96zm4.26-22.2l2.76-10.56h-2.88v-9.6h26.16l-.36 13.92q-.06 2.7-1.86 4.47-1.8 1.77-4.5 1.77h-6.78v-7.62h2.16q.66 0 1.11-.42.45-.42.45-1.08v-1.44h-3.54l-2.76 10.56h-9.96zm.6 20.7v-19.2h25.38v12.78q0 2.76-1.8 4.59t-4.62 1.83H436.5zm9.3-11.4v3.6h5.28q.66 0 1.08-.45.42-.45.42-1.05v-2.1h-6.78zm76.56 4.74v7.92h-55.02v-7.92h21.48v-1.5h-19.86V40.4h19.86v-1.5h-20.04V14.78h52.14v17.1q0 3.06-1.98 5.04t-5.04 1.98h-13.02v1.5h19.92v7.62h-19.92v1.5h21.48zm-32.04-26.28H478.5v7.26h11.82v-7.26zm20.88 5.1v-5.1h-11.82v7.26h9.66q.9 0 1.53-.63t.63-1.53zm-31.5.9V24.2l9.42.42v5.04l-9.42-.42zM510 24.2v5.04l-9.42.42v-5.04l9.42-.42zm-32.28 42.6h-11.46l3.06-8.16h11.52l-3.12 8.16zm7.56 0l-3.6-8.16h11.76l3.6 8.16h-11.76zm13.38 0l-3.6-8.16h11.76l3.6 8.16h-11.76zm9.78-8.16h11.76l3.6 8.16h-11.76l-3.6-8.16z"/></svg>