<svg viewBox="0 0 447 80" xmlns="http://www.w3.org/2000/svg"><path d="M63.32 23.06q1.74 0 2.67.93.93.93.93 2.67v35.1q0 1.74-.93 2.67-.93.93-2.67.93H59q-1.8 0-2.7-.42-.9-.42-.9-1.38 0-.84.63-1.32.63-.48 1.77-.48h2.34v-35.1h-4.32v19.92q0 2.04-.54 4.38l-2.82 11.52q-.72 2.88-3.12 2.88l-.96-.12q-1.26-.24-1.92-1.02-.66-.78-.66-1.98 0-.66.18-1.26l3.12-12.84V26.66q-1.32 0-1.98-.39-.66-.39-.66-1.41 0-1.14.63-1.47.63-.33 2.01-.33v-5.94q0-1.74.87-2.67.87-.93 2.49-.93t2.49.93q.87.93.87 2.67v5.94h7.5zm-46.08-4.38q0-1.74.93-2.67.93-.93 2.67-.93h20.58q1.74 0 2.67.48.93.48.93 1.32 0 .84-.93 1.32-.93.48-2.67.48H23.9v34.2q0 2.22-.42 4.32l-.9 4.86q-.24 1.5-1.05 2.28-.81.78-2.01.78l-.9-.12q-2.76-.54-2.76-3.18l.12-1.02 1.26-6.48V18.68zm8.34 8.04q0-1.14.66-1.47.66-.33 1.98-.33H41.3q1.74 0 2.67.48.93.48.93 1.32 0 .84-.93 1.32-.93.48-2.67.48h-7.74v8.7h7.32q1.74 0 2.67.93.93.93.93 2.67v20.94q0 1.74-.93 2.67-.93.93-2.67.93H37.1q-2.46 0-2.46-1.8 0-.84.48-1.32.48-.48 1.32-.48h1.8V40.82h-4.68v10.92q0 2.04-.54 4.38l-1.5 6.36q-.72 2.88-2.94 2.88-.6 0-.78-.06-2.22-.42-2.22-2.76 0-.66.18-1.44l1.86-7.74V28.52q-.84 0-1.44-.27t-.6-1.53zm58.32-.6q0 1.74-.93 2.67-.93.93-2.67.93h-.18q-1.74 0-2.67-.93-.93-.93-.93-2.67v-3.6q0-1.74.93-2.67.93-.93 2.67-.93H97.7v-1.8q0-3.6 3.72-3.6 1.8 0 2.7.84.9.84.9 2.76v1.8h17.58q1.74 0 2.67.93.93.93.93 2.67v3.6q0 1.74-.93 2.67-.93.93-2.67.93h-.18q-1.74 0-2.67-.93-.93-.93-.93-2.67v-3.6H83.9v3.6zm39.9 19.68q1.74 0 2.67.48.93.48.93 1.32 0 .84-.93 1.32-.93.48-2.67.48h-18.9V62q0 1.74-.93 2.67-.93.93-2.67.93h-9.66q-1.74 0-2.67-.48-.93-.48-.93-1.32 0-.84.93-1.32.93-.48 2.67-.48h6.06V49.4H78.92q-1.74 0-2.67-.48-.93-.48-.93-1.32 0-.84.93-1.32.93-.48 2.67-.48H97.7q0-1.2.45-2.13.45-.93 1.47-1.89l6.96-6.42h-21.6q-1.74 0-2.67-.48-.93-.48-.93-1.32 0-.84.93-1.32.93-.48 2.67-.48h28.26q1.44 0 2.28.54.84.54.84 1.44 0 1.08-1.38 2.46l-10.08 9.48v.12h18.9zm26.76-16.08q-2.52 0-3.12-2.64l-.78-3.18h-6.48q-1.5 0-2.34-.66-.84-.66-.84-1.86 0-.72.36-1.62l1.08-2.88q.42-1.26 1.26-1.89.84-.63 1.92-.63.6 0 1.38.3 1.08.42 1.65 1.17.57.75.57 1.65 0 .36-.24 1.08l-.72 1.74h13.08q1.74 0 2.67.48.93.48.93 1.32 0 .84-.9 1.32-.9.48-2.58.48h-3.9l.36 1.44q.18.6.18 1.26 0 1.44-.9 2.28-.9.84-2.64.84zm26.82 0q-2.52 0-3.12-2.64l-.78-3.18h-6.84q-1.5 0-2.34-.66-.84-.66-.84-1.86 0-.72.36-1.62l1.08-2.88q.42-1.2 1.26-1.83.84-.63 1.92-.63.72 0 1.38.24 1.08.36 1.71 1.02.63.66.63 1.5 0 .42-.18.9l-.9 2.22h13.08q1.74 0 2.67.48.93.48.93 1.32 0 .84-.9 1.32-.9.48-2.58.48h-3.54l.36 1.44q.18.6.18 1.26 0 1.44-.9 2.28-.9.84-2.64.84zm-36.36 34.44q-1.02.42-1.92.42-1.74 0-2.52-1.74-.18-.42-.18-1.02 0-.96.6-1.8.6-.84 1.74-1.32l19.02-8.22V48.5H139.1q-1.74 0-2.67-.48-.93-.48-.93-1.32 0-.84.93-1.32.93-.48 2.67-.48h18.66v-8.04l-15.96.84q-3.66.18-3.66-1.68 0-1.74 3.48-1.92l39.24-2.04q3.72-.18 3.72 1.62 0 1.74-3.48 1.92l-16.14.9v8.4h18.66q1.74 0 2.67.48.93.48.93 1.32 0 .84-.93 1.32-.93.48-2.67.48h-18.66v1.98l19.08 8.22q1.14.48 1.77 1.32.63.84.63 1.74 0 .66-.24 1.08-.42.84-1.11 1.29-.69.45-1.59.45-.72 0-1.8-.42l-20.34-8.76-20.34 8.76zm74.76-21.9q-1.74 0-2.67-.48-.93-.48-.93-1.32 0-.84.93-1.32.93-.48 2.67-.48h2.04l1.14-9.42h-1.98q-1.74 0-2.67-.51-.93-.51-.93-1.35 0-.84.93-1.32.93-.48 2.67-.48h2.46l.9-7.5h-4.08q-1.74 0-2.67-.51-.93-.51-.93-1.35 0-.84.93-1.32.93-.48 2.67-.48h27.06q1.74 0 2.67.48.93.48.93 1.32 0 .9-.93 1.38-.93.48-2.67.48H227.6l-.9 7.5h13.92q1.74 0 2.67.93.93.93.93 2.67v9.48q1.5 0 2.34.48.84.48.84 1.32 0 .84-.84 1.32-.84.48-2.34.48h-28.44zm-6.66-23.52q0 1.08-.75 1.65-.75.57-2.01.57l-1.32-.12-5.52-1.08q-1.44-.24-2.28-.9-.84-.66-.84-1.56 0-1.08.69-1.65.69-.57 2.01-.57.72 0 1.32.12l5.52 1.08q1.5.24 2.34.9.84.66.84 1.56zm-4.8 44.28q-1.14.66-2.1.66-1.02 0-1.62-.84-.6-.84-.6-2.28V30.74h-1.08q-1.74 0-2.67-.48-.93-.48-.93-1.32 0-.84.93-1.32.93-.48 2.67-.48h4.8q1.74 0 2.67.93.93.93.93 2.67v26.4l1.26-.78q1.5-.96 2.7-.96.84 0 1.32.66.18.36.18.72 0 1.2-2.34 2.64l-6.12 3.6zm32.64-24.36v-9.42h-10.74l-1.14 9.42h11.88zm-19.08 26.52q-1.74 0-2.67-.93-.93-.93-.93-2.67V49.46q0-1.74.93-2.67.93-.93 2.67-.93h23.88q1.74 0 2.67.93.93.93.93 2.67v12.12q0 1.74-.93 2.67-.93.93-2.67.93h-23.88zm20.1-3.66V49.46h-16.32v12.06h16.32zm24-30.54q-1.74 0-2.67-.51-.93-.51-.93-1.35 0-.84.93-1.32.93-.48 2.67-.48h15.96v-6.06H259.1q-1.74 0-2.67-.51-.93-.51-.93-1.35 0-.84.93-1.32.93-.48 2.67-.48h18.84v-1.02q0-1.26.87-2.16.87-.9 2.73-.9 1.92 0 2.76.87.84.87.84 2.19v1.02h18.78q1.74 0 2.67.48.93.48.93 1.32 0 .9-.93 1.38-.93.48-2.67.48h-18.78v6.06h15.9q1.74 0 2.67.48.93.48.93 1.32 0 .9-.93 1.38-.93.48-2.67.48h-39.06zm1.38 32.1q-.72 2.64-3.12 2.64-.6 0-1.32-.18l-.12-.06q-2.76-.72-2.76-3.06 0-.42.24-1.32l2.22-7.62V38.3q0-1.74.93-2.67.93-.93 2.67-.93h38.82q1.74 0 2.67.93.93.93.93 2.67v8.88q0 1.74-.93 2.67-.93.93-2.67.93h-35.1v1.38q0 2.22-.6 4.38l-1.86 6.54zm14.58-15.96V38.3h-12.12v8.82h12.12zm19.5 0V38.3h-12.3v8.82h12.3zm24.54-16.14q-1.74 0-2.67-.51-.93-.51-.93-1.35 0-.84.93-1.32.93-.48 2.67-.48h15.96v-6.06H319.1q-1.74 0-2.67-.51-.93-.51-.93-1.35 0-.84.93-1.32.93-.48 2.67-.48h18.84v-1.02q0-1.26.87-2.16.87-.9 2.73-.9 1.92 0 2.76.87.84.87.84 2.19v1.02h18.78q1.74 0 2.67.48.93.48.93 1.32 0 .9-.93 1.38-.93.48-2.67.48h-18.78v6.06h15.9q1.74 0 2.67.48.93.48.93 1.32 0 .9-.93 1.38-.93.48-2.67.48h-39.06zm1.38 32.1q-.72 2.64-3.12 2.64-.6 0-1.32-.18l-.12-.06q-2.76-.72-2.76-3.06 0-.42.24-1.32l2.22-7.62V38.3q0-1.74.93-2.67.93-.93 2.67-.93h38.82q1.74 0 2.67.93.93.93.93 2.67v8.88q0 1.74-.93 2.67-.93.93-2.67.93h-35.1v1.38q0 2.22-.6 4.38l-1.86 6.54zm14.58-15.96V38.3h-12.12v8.82h12.12zm19.5 0V38.3h-12.3v8.82h12.3zm59.46-21.96q-2.22 0-2.64-1.68l-.72-2.22h-7.02q-1.5 0-2.37-.72-.87-.72-.87-1.98 0-.72.6-2.58.42-1.32 1.29-2.04.87-.72 2.01-.72.6 0 1.14.18 2.4.66 2.4 2.46 0 .78-.48 1.86h13.56q3.6 0 3.6 1.74 0 .84-.9 1.32-.9.48-2.58.48h-3.48q.24.9.24 1.26 0 1.26-.96 1.95t-2.82.69zm-26.94.06q-2.1 0-2.58-1.74l-.66-2.22h-6.9q-1.5 0-2.37-.72-.87-.72-.87-1.98 0-.72.6-2.58.42-1.32 1.26-2.01.84-.69 1.98-.69.72 0 1.14.12 2.46.6 2.46 2.46 0 .9-.48 1.86h13.44q3.6 0 3.6 1.74 0 .84-.9 1.32-.9.48-2.58.48h-3.48q.24.72.24 1.26 0 1.26-1.02 1.98t-2.88.72zm25.2 40.38q-1.74 0-2.7-.48-.96-.48-.96-1.32 0-.84.96-1.32.96-.48 2.64-.48h3.42V31.58h-22.26q-1.74 0-2.67-.51-.93-.51-.93-1.35 0-.84.93-1.32.93-.48 2.67-.48h25.98q1.74 0 2.67.93.93.93.93 2.67V62q0 1.74-.93 2.67-.93.93-2.67.93h-7.08zM388.7 32.36q0 1.08-.69 1.65-.69.57-1.95.57-.6 0-1.44-.18l-4.8-.96q-3.12-.6-3.12-2.58 0-1.08.69-1.65.69-.57 1.89-.57.66 0 1.44.18l4.86 1.02q1.5.3 2.31.96.81.66.81 1.56zm4.44 26.88q-1.74 0-2.67-.93-.93-.93-.93-2.67V39.38q0-1.74.93-2.67.93-.93 2.67-.93h16.62q1.74 0 2.67.93.93.93.93 2.67v16.26q0 1.74-.93 2.67-.93.93-2.67.93h-16.62zm-12.42 6.36q-1.74 0-2.67-.99-.93-.99-.93-2.79V42.08q0-1.74.93-2.67.93-.93 2.67-.93h.12q1.74 0 2.67.93.93.93.93 2.67v19.74q0 1.8-.93 2.79t-2.67.99h-.12zm25.56-10.02v-16.2h-9.6v6.3h4.8q1.74 0 2.67.48.93.48.93 1.32 0 .84-.93 1.32-.93.48-2.67.48h-4.8v6.3h9.6z"/></svg>