<svg viewBox="0 0 386 80" xmlns="http://www.w3.org/2000/svg"><path d="M18.22 62.58h-.36q0-.18-.48-.42v-.18l-.48.12q0-.54-.54-.96-.84-1.68-.84-2.4.18 0 .18-.06l-.18-.36q.24-.48.24-.72t-.06-.24l.06-.54q0-3.72.6-4.44.78-2.1.96-2.1 0-.48.36-.66h.12q0 .48.06 1.68h.36q1.14-2.88 7.26-14.58 1.02-1.44 1.44-2.52-1.62-.72-2.64-3.18-.42-.24-.96-1.32-.36 0-.48-1.98-.12 0-.12-.42 0-.06.12-.06-.12-.18-.12-.36.12 0 .48-.18.12 0 .54.18.18-.12.42-.12l.48.3q1.08-.3 3.42-1.32Q29.92 24.6 32.2 24l.84-.6q1.38-.72 2.4-.72l.78-1.14q.42 0 .42-.78l.54-.48-.18-.24q0-.12.18-.12l.3.3q0-.84.66-.84h.3q0 .48.36.48.66-.6 1.08-.6 0 .12.06.6-.06 0-.06.06l.24.3q.42 0 .42-.36.18 0 .3.36l-.06.18q.3 0 .84.6 0 .24 2.34.54 0 .84 1.14 1.44l.96 1.26q-.24 1.86-.84 1.86 0 .18-.66.42-.12 0-.9-.24l-.18.06q-.12-.06-.24-.06-.06 0-.24.06-.6-.06-.9-.06-2.34 0-7.14 2.82-1.2 1.92-5.94 8.94 0 .24-.12.48h.06q2.16-1.32 5.7-2.82.78-.54 1.98-.72.9-.36.9-.96v-.42h.06l.24.12q0-.3.48-.6l.06-.48h.24q0 .18.18.48.18 0 .84-.84h.42q.54.54.9.72 0 .18.24.24l.12-.06h.3q.06.18 2.34.54l.72 1.56q.54 0 3.96-2.28l1.44-.66h.12l-.12-.24q.66 0 .66-2.64.18 0 .48-3.12.42-3.36.6-3.36-.54-.72-.54-1.2.6-.12.6-.6-.06-.18-.06-.24h.54q0-.36.6-.36.66 1.02 1.26 1.02.24.3 1.02.54 0 .18.24.24.12-.06.36-.06.24.6.66 1.14l-.12.24q.3 0 .36.36v.3l.48.24q.06 0 .06.12-.6 1.38-.6 1.56l.06.6q-.06.18-.06.3 0 .06.06.06 0 .18-.42 2.1 1.32 0 2.16-1.38 1.44-.72 1.8-.72 1.44 0 2.22 1.02 1.38.06 1.38.3-.12 0-.12.06 1.44.42 1.44 1.62.36 0 1.14 1.62l.18-.06q0 .78.78 2.22l.54 2.16-.06.66h.12q0 .42-.06.42.24 1.2.24 1.5h-.18q.18.18.18.6l.54-.3.06.3q-.06 0-.06.06h.06q-.06.18-.06.48h-.42v-.06l.3-.24q-.3-.18-.42-.18 0 .18-.18.36l.18.12q-.18.42-.24.42l.06.18-.06.66q0 .06.06.06l.18-.3h.12q0 .06-.06.48l-.24-.06q-.06 0-.06.06-.06 1.56-.24 1.56.06.18.06.3-.06.78-.12.78 0 .18.06.18-.96 6.84-3.36 12.6h.12q.66-1.26.78-1.26v.36q-.72 1.62-2.4 3.24 0 .54-1.02 1.14-.54 0-.96.78-.12 0-.12-.3h-.18l-.12.36q.12.18.12.42-.18.24-.9.36l-1.26-2.1q-1.02-.66-1.02-.96-.42-.54-.96-1.38l.06-.18q-.3-1.5-1.08-2.4v-.3q.24 0 .66.54l.12-.6q-.36-1.26-1.02-2.52 0-1.8-.84-3.18 0-.18-.3-.6 0-.3-.36-.6 0-.72-1.26-2.1-.06-.54-.3-.54-.18.18-.36.18l.18-.3q-.06-.24-.06-.3h-.12l-.6.54q0-.12-.06-.12-1.68 3.42-3.42 5.88-.9 0-.9 1.02-.24 0-.9.84h-.18v.06l.06.24q-.12 0-1.32 1.38h-.18q0-.12.36-.6v-.06h-.18q-1.2 1.56-1.92 1.56-.3.48-1.2.96h-.36q2.52-2.22 3.42-3.9 2.82-5.52 3.06-7.5.54-1.5.78-2.88h.18q-.18-.6-.72-.6v-.06l-.24.06h-.06q-1.2-.66-2.7-1.8-.9-.24-.9-1.02-.18 0-.42-1.08-.3-.24-.72-.24-.18.12-.24.12 0-.18-1.5-.54-.06 0-.06.06l-.66-.06q-1.38.54-1.44.54v.06q.54.78.54 1.26l-.78 1.2q.42-.12.84-.54.48 0 .48.24l.18-.18h.84q0 .36 1.32.48 0 .18 1.56 1.02.36.24.48 1.14-.12.18-.12.42.12.3.12.48-.12 0-.12.12.18-.12.36-.12v.12q-2.64 3.72-3.54 6.9-.18.06-2.16 4.44l-1.98 3.12q-.3.84-.96.84-2.52-.66-2.52-1.08.36 0 .36-.18t-.96-.9v-.12q.42 0 .6.12.24-.12.48-.54-.12 0-.12-.12h.12q-.48-.66-.72-2.46-.18 0-.48-.72 0-.24.12-.24 0 .36.36.36v-.54q-.12 0-.48-1.08-.6.84-1.02.9 0 .18-.3.66 0 .06-1.14 1.56-.9 1.26-2.04 2.28 0 .24-.48.54-.9.9-1.68 1.26-.06 0-.24-.06-.54.06-.96.06-.54-.3-.54-.48h.3l-.24-1.26q.18-.6.36-1.8l.18.06q.24 0 .84-.78-.06-.54-.06-.72.24-.3.24-.42l.12.06h.3q.36 0 .84-1.32.36 0 .6-.72.42-.48 1.98-3.3 1.26-2.28 3.72-7.56.18 0 .18-.18h-.18q-3.3 1.86-3.3 2.28 0 .54-.78 1.02-.12.42-1.44 1.62l-2.16-.18q-2.22 3.66-3.54 7.5-1.56 5.46-2.46 8.1-.36 0-.72 1.02-.36.24-.6 1.56zM55.84 23.4v-.3q-.12 0-.12.18v.12h.12zm.3.42v-.06q0-.24-.3-.24v.18q0 .12.3.12zm3.78 26.28q1.02-3.18 1.44-6.48 0-.06-.12-.06.54-2.4.54-5.1l.06-.18q0-1.92-1.08-4.5-.12 0-1.2.3 0-.06-.06-.06-.24.24-3.42 1.32l-.24-.06q-.6 0-1.08 2.16-.12.6-.3.84.06.18.06.24-.66 1.38-1.38 2.22-.24 1.08-.78 1.08l.6 1.32q1.26 1.2 2.76 3.24 3.18 3.24 4.02 3.72h.18zm-24-.12q2.94-6.06 2.94-6.9 0-.3-1.5-.78H37q0 .12-2.58 4.86v.06l-.24-.06q0 .18-.06.18.96 2.64 1.8 2.64zm17.22-5.52q-.36-1.14-.6-1.14h-.18q-.12 0-.36.72h.12q.18-.12.24-.12 0 .3.18.3v-.3h.06q.48.54.54.54zm-1.68-.42q0-.12.18-.24 0-.18-.18-.18 0 .18-.06.3 0 .12.06.12zm1.02.84q0-.66-.66-.66l-.06.18q.12.48.72.48zm-1.26-.3q.18 0 .18-.24-.18 0-.18.12v.12zM98.8 22.8h-.42l.24-.42h-.24l-.3.42q-.12 0-.12-.24 0-.42.12-.42-.06-.36-.06-.54l3.42-3.54q-1.26-2.52-1.2-3.66.36-.24.42-.48.12-.12.18-.12.18 0 1.8.48 0-.18.72-.18.06 0 .84.54.48 0 1.32.54l.6.18q.12 0 .66-.12 0 .24.9.48 1.44 1.38 1.62 1.44 0 .18-.24.48 0 .36.18.96-.12 1.92-1.38 2.76-.18-.24-.24-.24l-.72.18-1.14-.18-.12.06-.12-.06-.42.18-1.92-.9h-.48q-1.32.48-2.58 1.26-.96.54-1.32 1.14zm-8.82 5.58q-.84-.12-1.86-.96.06-.3-.06-.3V27q.12 0 .78-.3h.12l-.66-.84q.12-.24 2.94-.3 7.38-2.16 15.66-3.84.48.06 7.38-1.62l3.36-.9q0-.18.18-.36.42.12.54.12.48-1.44 1.38-1.38l2.52.78q.3.42 2.1 1.02 0 .42 1.14.96.06 0 .9 1.5l1.2 1.2-.3.42q.18.54.66 1.38v.3q-.6 2.16-.84 2.16-.72.66-1.56.96 0 .36-.78.3-1.98-.42-1.98-.66h-.18q-.36 0-1.32-.9-1.62-.06-5.04.66h-.9q-.18-.3-.18-.66 2.64-2.4 3.3-3.42v-.18l-.24-1.08q-2.28-.12-12.3 1.98-.24.12-8.64 2.52-4.86 1.74-7.32 1.56zm-2.58 9.36h-.42q-.6-.66-1.02-.84-1.14-1.32-1.44-1.32-.78 0-.9-.78-.72-1.32-.72-1.8 0-.78.3-1.62l.06-.36q.48-4.08 1.44-4.26.42-1.68 1.26-2.7h.18q0 .06-.6 2.58-.06.72.06 1.98h-.06q.24.54.24.78h.18l.48-.48q.48.06.42 1.38-.06.18-.06.24 0 .6 1.98 1.8.9 1.14 1.2 1.14l.42.3v.24q-.42-.06-.48.48t.3.54l-.06.3q-.72 2.16-1.62 2.1-.72-.06-1.14.3zm12 30q-1.32-.42-1.32-.48l-.6-.06q0-.18-.48-1.14l-.12.06h-.12v-.48q-.12-.9-2.76-2.64-.3-.72-2.46-2.1-1.56-.96-1.56-1.2l.12-.18q0-.18-.96-1.14 0-.12-.06-.24l.12-.12h.06q6.9 3.18 8.16 3.24 0 .06 1.08.12.06-.3.24-.3v.12h.12v-.12q.3 0 .36.06l.06-.06q.12 0 .12.06.66.06 1.5-3.48.18 0 .54-1.38 0-.06-.06-.06l.12-1.2q.48-7.08.06-9.06h-.12q-2.76.6-5.22 1.5-.48.18-1.2.48-3.06 1.14-4.68 1.92-.24-.06-.48.24-1.8.48-3.3 1.32l-1.56.42q-.78-.12-1.5-2.58h.06q-.78-1.08-.72-2.04-.12 0 0-.96.24.06.72-.72h.12l.12.36.48.06q.12-.6.12-.72.84.12 1.14.84.72.18 7.2-1.86 1.8-.6 6.06-1.44l.12-.24q.06-.36 0-.72.42.06.66-.66v-.36h.36q.18 0 .18.18.18-.06.24-.06v-.36q.66-1.08 1.26-1.26.78.06.9-.72.84-1.74 1.74-4.56-.24 0-1.2 1.26-1.56.84-1.86 1.62-1.56 1.26-1.62 1.5-1.02 1.08-1.86 1.02-.06.24-.78.18-.36-.36-.66-.36h-.78q-.36 0-.9-1.2l-1.56-1.74q-.48-.06-1.02-2.22.06-.6.78-.54 0-.24.42-.42V33q1.26.3 1.62.3 1.2-.3 2.94-1.2 3.42-1.38 7.62-2.46.72-.6.72-1.62.24 0 .36-.54l.72.18v-.06q-.3-.24-.3-.36 0-.24.84-.18.3-.54.66-.54 1.26 1.26 2.22 1.26.06-.12.12-.12.48 0 1.2 1.02l.54-.06q.48.06.6.54.6 0 .42.84-.06.9-1.32 3-1.2 2.16-2.58 3.96-.42.78-1.74 2.04-.48.9-1.2 1.44-.18 0-.72.84h.24l7.02-1.44q3.66-.24 3.78-.78.18-.84 1.02-.78.42.06.84.18.06-.6 1.2-.6 0-.06.6-.06.18 0 .72 1.44.36.06.36.18.06 0 .06-.12.3 0 2.1.9.36.18.36.42 0 .12.24.24.54-.06 1.26 0 .06 1.14.48 1.2v.54q.42.72.42 1.44 0 .36-1.56 1.8-.6.9-2.64.78-1.02-.84-1.98-.96-1.2-2.16-2.64-2.4l-.3-.06q0 .24-2.16.78 0 .12-1.32.36 0-.24-.24-.24 0-.12 1.26-1.2-.84-.06-1.56.06l-.3-.06q-2.28.3-5.04 1.08-.3.36-.66.36.9 4.8.72 7.44-.12.06-.12.36.12.96.12 1.14 0 .18-.06.12l-.06.72q-.06 1.32 0 2.16 0 .06-.06.06v.42q-.12 1.38-.18 1.86v.78q-.12.6-1.26 2.82-.06 1.02-1.38 3.24h-.18l-.18-.24q-1.26 1.26-1.62 1.2-.48-.12-1.68.72-.06-.36-.24-.36-.42.24-.84.78l-.18.06-.3-.18q-.54 0-.6.3zm15-42.36h-.24v-.24h.24v.24zm-29.88 2.1l.18-.42h-.06l-.24.42h.12zm98.58 37.14h-.18q-.36-.24-1.26-.6 0-.06-.42-.54-.18.12-.48.06v-.12q-.12.12-.3.12 0-.54-1.08-.84 0 .18-.24.24-.24-.36-.78-.6l-.06.18h-.18q.06-.54-1.38-1.08-1.8-1.38-3.84-2.76 0-.18-1.98-2.16 0-.12-.18-.6 0-.18-.18-.48.18.12.18 0h-.24q-.42-.06-.42-.72l.42.42v-.42l-.18.12q-.06-.36-.96-1.92-2.22-3.96-1.98-6.84.06-.96-.18-1.5.06 0 .06-.12-.96-.06-1.26.9h-.06q0-.06-.12-.06v.06q.12 0 .06.18-.24 0-1.62 2.64v.42q-.12 0-.9 1.26l-.18-.18q-.48.18-1.38 2.04l.06.3v.06l-.06.24q.06 0 .06.18-.06 0-.06.12l.12.12q0-.12.12-.12v.12q-.3.24-.3.3h-.18l.12-.42q-.3-.12-.3.18.06 0 .06.06-.06 0-.36.06l.24.24v.06h-.36q-.06.36.24.36l.36-.18v.6q-.48.66-.9 2.46-.78.78-1.26 1.5-.42 0-.42.12-.06.36 0 .6-.78.78-1.2.96l-.96 1.02h-.24q0 .18-.84.54h-.06q-1.26-.78-1.26-1.2 0-.12-.42-.12v-.18h1.32v-.3q-1.26-.36-1.86-.42v-.24q.72 0 .72-.24l-.72-.06v-.12l.06-.18q-.36-.06-.36-.18.06-.24.06-.3-.18 0-.18-.24l-.18.06h-.06q.06-.3-.66-.42v.12l.12.18-.36.06v-.06l.06-.18q-.42-.3-.42-.36l-.48.18q0-.18-.3-.42l-.18-.06-.06.3h-.06q.06-.42-.36-.72-.3-.36-.3-.84.24.12.3.12 0-.36-.3-1.62.3-.06.36-.48h.06q.42.3.9.3.24-.06.3-.06l.06-.3q-.18-1.26-.24-1.56 0-.18.06-.42 0-.06-1.5-1.62-1.08-.9-1.2-1.32 0-.06.18-.06l-.48-1.14.42-.9q-.24-.3-.18-.54.66-1.44.96-1.5.48-.06.48-.48h.06q.36 1.02.84 1.02 1.44 0 5.76-1.38.06-.24-.66-.9 0-.54-.18-.54 0-.12.12-.3l-.18-.18q0-.06.24-1.08-.66-2.82-.6-3.84.06-1.08.3-1.08l-.06-.54q0-.18.12-.66-.12 0-1.92-1.62-1.62-.84-1.74-1.32.12.06.12-.18-.18 0-.18-.36h-.12q.06-1.2.36-1.14.3 0 .96.18l2.4.18q.72 0 5.4-2.4 3.06-1.74 4.8-2.64.18.06.48-.48-.12-3.54-.66-3.54-.24 0-1.02-1.68-.18-.48-.24-2.1.12-.18.12-.54.12.18.24.18l.42-.06q.54.48 1.62 1.08v.06q.18-.06.3-.06l-.06-.66q.36.72 1.08 1.02.66.48.6.9.48.18.48.42H169q0 .18.12 1.08l-.06.6q.66 1.32.66 2.16 1.92-.66 3.78-1.68 1.2.06 1.2-.66h.3l1.5.84v-.24l-.3.06v-.3l.42.06.12 1.08.18.06.42-.42 1.56.84q-.06.3-.18 1.2.3 0 .18.18l-.06.48q-.24-.06-.36 1.08h-.36v-.36h-.06l-.42.54h-.06l-.18-.06-.24.48h.18v.24q-.18 0-1.02.3l-.18-.24q-2.34 1.26-3.36 1.5-.54.18-.54.42.54.42 2.4.42.48 0 .48-.24l.6.24q.24 0 .42-.18.42.24.42.42l.3-.12q1.98 1.5 2.46 2.04.06.3.36.3-.24.96-.48 1.26l.6.96v.24l-.42-.12q-.06.36-.12.42.54 0 1.08.72 0 .24-1.26.96-.42.3-.78.3v.18l1.08.06.3-.18q.18 0 .18.18.12-.06.54 0 0 .24.48.66.72 1.08 1.14 1.08v.36l.18-.12q.3 1.26 1.02 1.32-.06.06 1.5.96-.06.36.36.36v1.5q-.18 0-.24.12.24 1.38.24 1.44v.9q-.12-.06-1.38.42-.36-.3-.9-.3-.3.24-.36.24l-.36-.12q-.42-.42-1.8-1.02v-.18l-.24.06h-.06q.06-.54-1.56-1.38h-.18q-1.74.54-3.36.72-.12.24-.24.06-.06-.06-.06-.12-.6 0-.6.3-.78-.12-1.8.18l-.18-.18-.06.36q-.66-.06-.96.18h-.18l.06-.24h-.06q-.06.24-.72.18.24.54.84 1.02 2.4 4.02 4.68 4.92 2.34 1.32 8.28 2.58 2.82.54 4.14.84.06 0 .06-.06 1.92.54 2.34.72.06 0 .06-.06 1.62.36 3.24 1.02l-.06.12-.48.18-.18-.12q-.54.12-1.86.78v.36l.54.06q0 .06-1.62.3V57l.48.06q1.38.12 2.82.3-.48.72-1.56.72 0 .24-1.2.18l-.48.3-.12-.06v-.12h-.06q-.06.66-1.92 1.02 0 .3-.54.24l.06.66q-.42-.06-1.08.6h-.12l.06.24v.36q-.3 0-1.08.72-.18 0-.78.84-.06 0-.72.3l.12.24v.18q0 .24-.24.24l-.3-.36q-.24 0-.48.36.18.42.18.6zm-37.02-3.84q-.3-.06-.24-.18-.48.12-1.62.06l-.36-.48q-.3.12-.42.12.06-.48-.96-.96.06-.72-.96-1.08-.3-1.32-.54-1.32h-.24q-.36-.9-.36-1.14.18 0 .18-.18-.24 0-.36-.72l.18-.24-.12-.18q.12-.18.12-.24-.18-.72-.12-.96.24-.48.66-.9 0-.3-.18-.48.24-1.5.3-1.5l-.06-.12q.06-.18.42-.18.12-.84 1.14-4.92.78-3.48.9-6.3-.06-.3-.06-.42.12 0 .12-.06-.18 0-.18-.18-.6.12-2.28 2.1-.48.72-.6.72l.12.42q-.42-.06-.66.36-.12 0-.12.06h.3l-.12.18.12.48h-.48v.24l.48-.18-.06.12q-.48.24-.48.6-.66.18-1.26 1.5-.48-.06-1.02.72-.42.18-1.26 1.14l-1.62.9h-.12q.72-.48.72-.6-.36 0-.66-.18-.06.48-1.86.78l.06.18q0 .18-.3.18 0-.48-.48-.54 0-.06-.42-.54-.18-.06-.18.06.18.06.6.54l-.78.18q0-.6-.36-.78v-.06h-.48q0-.42.6-1.44.48-1.08.78-1.08v-.06l-.06-.18h.3q0-.06-.24-.06.48-.54.48-.66l.18.12q.18-.48.54-.48 0-.36 2.28-2.16l2.16-2.04q1.26-1.62 5.7-7.8 4.44-5.7 5.7-9.84v-.6q0-.12-1.38-1.62-.24-.24-.24-.72.54-.18 1.44-.18.12-.3.78-.36.6.3.6.42.6-.42 1.14-.36.6.06 1.02.78.3.18 1.56.96 1.26.3 1.26 1.14 0 .84-.12 1.02.12.18.48 1.08.06.18 0 .6-.96.96-1.62 2.28-2.58 3.9-4.2 5.52-1.02.9-1.08 1.14l-3 4.14q0 .18.12.18.06-.24.48-.42v-.06q1.14.66 1.14 1.02l-.12.24.12.18q-.24.42-.24 1.02 0 .06.06.06l-.12.66q-.06 1.56-.18 2.52.06.54.12.54-1.38 7.32-1.38 8.04.18.36.18.54h-.18q.18 1.26.54 2.28l.18-.06h.06q0 .96 1.02 1.8 0 .3.12 1.02-.18 1.38-.36 1.38.12.78.18 2.22 0 .54-.84 1.26zm22.5-23.88q2.1-1.2 3-2.52.42 0 1.44-1.2-.3 0-2.46-3.06-.18 0-.18-.48h.18v-.06q-.72-.48-.96-.48-.66 5.7-.96 5.7 0 .06.12.06-.12.78-.18 1.86l-.06.18h.06zm-7.08 4.92q2.88-.48 2.88-.96.42-3.06.78-3.9l-.18-.12q.06-.18.24-.18l-.18-.18.42-2.16-.06-.12.48-3.24q-.36 0-3.36 1.98-1.02.6-1.02.84l-.06.12q1.02.72.96 1.14-1.2 1.92-1.92 4.2l1.02 1.92-.12.54.12.12zm6.9-6.54q.18-.84.24-1.8-.18.12-.18.36 0 .3.06.48-.18.42-.18.72 0 .24.06.24zm7.74 1.32q.24.06 1.68-.3.42 0 .42-.3-.12-.12-.06-.48.12.12.12-.12l-.18.12q-.3 0-.54-.12-.06.12-.72.3l-.72-.24q-1.2.54-1.38.54v.3q1.38.24 1.38.3zm-16.86.24q1.26-1.02 1.38-1.68l-.12-.06q-1.14.3-1.92.36-.48-.3-.72-.36.36.78 1.38 1.74zm9.06-.24v-.48q0-.18-.18-.18v.42q0 .24.18.24zm5.94.24l-.24-.36q-.06.06-.3.06v.12l.54.18zm-6.06 3.66q0-.24.54-.24v.06q2.94-.72 4.86-.96v-.48q0-.36-.42-.84v-.36q.24 0 .24-.18 0-.54-.12-.6-.48 0-1.5 1.08h-.18v-.24l-.18-.06q-1.26.72-2.82 1.44 0-.24-.06-.24-.12.3-.12.42h-.06l-.18-.12-.66 1.26h.12l.3-.12q.18.18.24.18zM154.6 54.54q1.32 0 4.5-.96 1.32-1.62 3.6-6.9 0-.48.3-.78-1.26.06-3.48 1.2-1.68.9-1.74 1.5h-.12l-.12-.12q-.3.66-.84.84-.24.42-1.14.78-.06.3-1.14.96v.06l-1.32-.06-.36.18q-.24 0-.48-.06h-.36v.06q.9 3.3 2.34 3.3h.36zm7.8-2.94h-.12v-.42q.12.06.54-.6h.06v.24q-.48.54-.48.78zm7.32 2.4h-.42l.06-.6q.18 0 .36.6zm.36.66l-.3-.06-.06-.36h.24q0 .18.12.42zm-16.62 3.36l.3-.3-.24-.06q0 .06-.12.36h.06zm15.84-4.8h-.18l-.12-.48h.18l.12.48zm71.52 8.16l-.42-.24q-.3.24-.9.24-.24-.24-.84-.48-.12.06-.24.06-.24 0-3.24-1.26-1.14-.54-3.36-1.2 0-.18-.66-.36 0-.12-.24-.12v.12h-.06l-1.2-.48-1.98-.9q-1.2-.36-3.12-1.56-3.54-3.36-3.54-3.48-3.54-5.1-5.34-8.1-.24.18-.42.18v-.24l-.24.18-.06-.18q.06 0 .06-.18h-.06q0 .18-.18.18 0-.18-.06-.18v.24h.24q0 .18-.42.18v.24h.18q0 .3-.18.3-.18-.18-.18-.42h-.12q0 .12-.24.48v.12h.24q0 .42-.24.48h-.06l-.18-.06q.06.12.06.48h-.18V45h-.12q0 .24-.12.42h.24q0 .18-.84.42 0 .84-.24.84 0-.06-.12-.06l-.72.66q0 .06.12.06-.12.3-.12.36l-.18-.06q-.18.48-.42.72 0-.12-.12-.12-1.5 2.4-1.74 2.52 0 .6-.66 1.44h.06q-.54.9-.72 1.08 0 .18-.6.84 0 .24-.42.54-.72 1.56-.99 1.56t-.33.54q.06.18.06.36l-.24.12h-.18q0-.06-.18-.48-1.44 1.92-3.06 2.16-.06.24-.96.24-.84-.3-.84-1.08.12 0 1.14.42v-.24q-.78-.48-.78-.78h.3q0-.48-.12-.66l.42-.9v-.18q-.3 0-.42-.9 0-.54.18-.54v.24h.12q0-1.14.3-1.26l-.18-.72.06-.12q-.06-.24-.06-.54h.36q0 .78.36.96l-.12-.42q0-.36.12-.54-.12 0-.12-.06.18 0 .18-.24-.36-1.26-.36-2.28h.18q0 .18.42 1.08h.24q0-.18.36-.24-.24-.18-.24-.36h.24q-.24-.24-.24-.42.36 0 .36.24h.12q0-.12.06-.12h.3q.06-.18.24-.18l-.18-.18q0-.3.36-.3l-.6-1.32h.18q.06.36.48.36-.06-.24-.06-.36h.12v.18h.12v-.42q.06.06 1.26 2.22l.66.66h.36q4.2-4.5 7.32-9.36h.12q-1.86-3-3.66-4.68-4.62-.6-5.46-1.08-1.38-.36-1.44-.36 0-.66 1.08-1.8.84-.6 3.84-.6 1.98.18 3.6.72.54.06 4.14 3.78h.12q1.68-3.18 3.24-7.68h-.06q-1.2.66-1.26.66l-.36-.18q-.42 0-.48.96-.42-.06-.9-.06l-.18.72q-.96 0-1.2-.54h-.24v.3h-.18l-.24-.3H214l-.24.3q0-.6-.24-.6-.18 0-1.08.78h-.36v-.12q.66-1.56.66-2.16-1.02-1.38-1.44-1.38 0-.42-.48-.54v-.3h.3l-.3-1.74q.18 0 .48-.6-.06-.18-.06-.24.12-.3.3-.3l-.06-.18v-.06q.36 0 1.68.54.96-.66 1.2-.66.42 0 1.5.84 3.66.72 3.66 1.26.54 0 .84.96h.06q.36-1.38.6-3.12-.06-.6-.6-1.26-.66-.72-.72-2.04.12 0 .36-.9.54 0 1.56.48.48-.06.9-.06 4.32 1.44 4.32 2.64 0 .48.3 1.86-1.02 3.54-1.02 3.72-.3.18-.78 1.38.06.18.06.3-.42 0-1.62 2.22v.12l-.24-.06q-.12 0-.66 1.86l-.6.12v-.12h-.06q-.54 1.02-1.68 2.58-.3.78-1.14 1.38-.24 1.44-.72 1.44l-.24.3q0 .18 3.42 3.24 2.88 1.92 4.74 3.06 1.44.9 9.78 3 1.56.78 6 1.62.42-.12 5.82 1.2 1.02.24 1.32.6v-.18q.84 0 .9.24l.18-.06.48.06v.12q-.06 0-.3.24.24.24.24.42-.18 0-.18.06l.78.48q1.5.36 1.8.72v.18q-1.32 0-1.5.06-.18-.06-.3-.06 0 .24-.18.24v.3l1.44.18v.18q-2.16 0-4.32.96-.6 0-2.04.78l.12.24q-.18.06-1.68.84-.36.12-1.02 1.08 0-.06-.18-.06-.36.42-.42.96.18 0 .18.18t-.24.3l-.18-.12q-.48 0-2.28 1.02zm-20.76-34.56q.3 0 .3-.24h-.3v.24zm-16.44 20.1h-.24v-.3q.24 0 .24.3zm-2.1 2.28q-.3 0-.3-.18l.3-.06v.24zm-.78 5.16q-.18 0-.18-.24h.18v.24zm1.2 4.14q.06 0 .9-.24v-.18q-.06 0-.42-.06-.72.42-.9.42v.06h.42zm84.48-29.4h-.06q0-.3-.18-.3 0 .12-.06.12v-.12q2.1-2.1 5.4-4.98v-.06q-1.44-1.8-1.44-2.4l-.12-.3h.12l-.12-.18v-.72q0-.24.6-1.08-1.68 0-2.22 1.44-.3 0-.96 1.08-.18 0-1.98 2.22-3.06 3.06-4.5 3.06-.48.48-.96.48 0-1.62 1.02-2.22-.12-.3 1.56-2.1 2.16-2.28 3.72-5.1 2.64-3.84 2.64-4.92-.24 0-.54-.48 0-.18.06-.24-.06-.18-.06-.48.24-.72.96-.72.54-.54.84-.54h.78q.18 0 1.32.78h.48q.06.3 1.02.48 0 .36.3 1.26 0 1.2-.96 1.98l-.6.9h.06q2.16-1.2 3.18-1.2.66.3.72.3.06-.24.42-.24 0 .24.3.48-.18 0-.18.12.18 0 .18.18 0 .3-.66.6 0-.18-.06-.18-.24.72-.84 1.14-1.8.96-3.36 1.5.12.42 1.14.96.24 0 1.98-.6h.54q.24 0 1.32.9.6 0 1.2 1.38.96.48 1.5 1.5.24.24.36.24-.12 1.86-.48 1.86-.12.36-.96.72 0 .36-.06.54-.66-.12-.66-.18-.72.42-.9.42v-.18q-.18.06-.36.06l.12.66h-.12l-.6-.42h-.06v.18q-.18 0-.18-.06-.12.06-.42.06v-.18h-.18q0 .36-.18.36-1.2 0-1.2-.72h-.18l-.84-.78q-.42 0-1.02.24l.06-.18q-.3 0-.3-.06-.78.12-5.34 3.72zm10.74-14.16l-.12-.18h.18q0 .18-.06.18zM258.94 33.6h-.18v-.42q1.68-1.92 2.76-3.9 1.62-2.76 2.46-4.5 1.8-3.12 2.46-4.74l-.42-1.02v-.12q.66-.9 1.14-.9 0-.24 1.08-.36.42.06.42.3h.06v-.18q.54.12.54.24l.84-.12q0 .24.6.36.12.36.84.84.3.78.3.84 5.22-1.92 5.22-2.4 0-.84 1.26-1.08 0-.18 1.02-.48l.12.06q.18-.06.42-.06 0 .24.84.72v-.06q-.06 0-.06-.12l.18-.06q.06 0 .54.54.06 0 .06.18l.12-.18q.78 1.02.78 1.26l-.12.18.06.18q-.3.72-1.14 1.26-.18 0-.3.18-.24 0-.48-.12-.9.6-1.02.6-.3-.24-.48-.24-.96 0-2.04.84-1.44.6-2.58 1.02v.12q.24 0 1.26.72l.48.06q.42-.06 2.22-1.62h.06v.36q0 .24-.54 1.2l-.66 1.32q.48.54.84.72l.12.18q-.12.18-.12.3.12 0 .42 1.38.06 0 .06.06-.06.24-.06.3.12 0 .12.18-.54 1.92-1.5 1.92v-.06l-.18.06q-.84-.06-.84-.18l-.18.12-.18-.12-.84.18q0-.18-1.14-1.2l-1.08-.96q-.18-.24-.78-1.2-.3 0-.66-1.14l.06-.42q-.3-.6-.3-.96.36-1.08.36-1.14-.12 0-.12-.06-.72.12-.96.54-.24 0-.42.66-.18 0-1.62 1.68-.36 0-.36.12l.24.18q-.54.24-.96 1.2-.6 0-.6.42 0 .12-.24.12l.06.18q0 .12-.48.54 0 .24-.84.9 0 .3-1.5 1.74l-.12-.12q0 .36-.66.6 0 .06.12.06 0-.06.06-.06v.06q-.18.24-1.08.72-.48.72-.96.72-.24.24-1.44.96-.3.12-.36.12zm36.66 34.02q-1.08 0-2.58-.78-.42 0-1.8-1.74l-.18.06q0-.06-.06-.3.06-.18.06-.3h-.18v-.6l-.3-1.26q.12-.18.12-.42 0-.72-2.46-1.56-.84-.42-1.08-1.2v-.6l3.72.66h.48q.12 0 .24-.18l-.06-.48q.6 0 1.86-2.1l-.06-.24v-.36q.06-.18.18-.18l-.24-2.7.06-.12q-.24-.3-.24-1.02 0-.18.24-.48l-.36-.78q0-.36.06-.48-.24-6.06-.42-7.92h.12l-.12-.18q-.06-1.98-.06-3h.06l-.06-.12q0-.6.06-.6l-.06-.6.06-3.3h.12q0-.72-1.14-1.74-1.5 0-6.54 2.16-1.32.42-3 .54-.84 0-.9-.24.42 0 .42-.3-.6-.06-.6-.24v-.18q.48 0 1.38-.3v-.06q-.6 0-.9-.06v-.3q.66 0 1.26-.42.66 0 4.92-1.86 2.04-.54 3.42-1.14.18.06.3.06 0-.48 1.92-.78.36 0 .78.18l.48-.18q.72 0 1.86.78.96 0 2.04 1.68 2.16 1.44 2.4 1.44.18.72.18.96 0 .06-1.14 5.88.06.12.06.3-.06.3-.12.3l.06.12-.06.18q.12 0 .12.42-.36.36-.36.6.06 0 .06.06l.18-.06h.06q0 .3-.06.48l.06.54q-.18.3-.18.54v1.26h.12V45h.12q0 .6-.06.96.24 0 .24.42 0 .24-.42.24v.06l.18.24V48h.06l.24-.12v.24q-.3 0-.3.36h.06q0-.12.18-.12v.54l-.18.18h.18q0-.06.06-.06 0 .36.12.54 0 .36-.42.36 0 .12.06.12-.06.3-.06.54l.24-.12h.06v.36h-.06l-.24-.06v.48l.24.3q0 .18-.24.18l.06.18q0 .24-.12.54l.12.3q0 .06-.06.06.06.18.06.24l-.06.18q.06.12.06.18t-.06.48v.24h-.06q.3.24.36 1.8.18 0 .18.6-.06.12-.06.3.18.24.18.72.12.06.36.48l-.06.12q.12.24.24 1.38l-.48 2.28q-.48 1.32-2.4 3-.96 1.2-1.08 1.98-.78.6-1.44.84zm-28.2-6.72h-.36q-.78-.48-.78-.6-.3-.36-1.02-1.92-1.2-.72-1.2-.84 0-.42-.18-.54.18-.6.3-.6-.3-.48-.3-.72 1.02-1.5 1.14-2.88.72-7.62 1.38-9.24.78-2.22 1.02-3.54.54 0 .54-1.2.48-2.58 1.44-4.44v-.54q-.84-.9-.84-1.26l.3-.66q-.12-.18-.12-.36h.12v-.06q-.42-.48-.42-.96.06 0 .42.06 0-.24.96-.3.9.36 2.34.78v.24q.24 0 .24-.12 0-.18-.06-.42.54 0 1.74.72.72.18.9.78 1.44 0 1.44.96.12 0 .12 1.08 0 .6-.48.84-1.2 1.44-2.04 1.44-.6.12-.96.12 0-.12-.48-.48-.3 0-.3.18 0 .06.12.3v.12q-.3 0-1.56-1.62-.18 0-.36-.48h-.18l-1.5 2.1q-.24.66-.3 3.42-1.2 3.66-1.2 6.36 0 1.74.72 4.68.54-.78 1.8-3.24h.24l-.78 2.16.12.12-.6 1.92.06.24q-.18.54-.18.96 0 1.74 1.5 2.88.66.72.96.72v.24h-.3v.36l.24.36v.3q0 .24-.9 1.38-.24.96-2.76 1.2zm19.02-3.84q-.3-.06-.6-.54l-.12.06h-.18l-.72-.36q-.24-1.02-2.1-1.74-.18 0-.48-.3-1.86.18-2.76.18-.84-.12-1.26-.12v.18h.12v.24q-.12.3-.12.54h-.18l-.36-.3q0 .3-.72.3 0-.06-.12-.24l-.18.06q-.72 0-1.26-1.14 0-.42.12-.66-.12-.54-.12-1.32 0-.18.12-.18l-.12-.18q-.12-4.38-.12-4.86 0-1.32.48-4.5V42q.66-.24.66-.54h.06q.36.36.48.36h.3q0-.3.96-.54 1.44-.96 6.06-2.16.36.18.48.18l.06-.18q.6.12 1.2.12 0 .24.24.24l.66-.18q.78 1.2.9 1.2l.12.06q-.3-.54-.3-.78h.06q.36.36 1.14.6 1.32 1.14 1.32 1.92 0 .24.36.24 0 .18-.18.72.06.42.72 1.38 0 .36-1.08.6-.66.66-.66 1.38-.24 1.5-.36 1.5l.12.24q-.12 1.2-.24 1.2l.06.48q0 .24-.06.3l.06.24q-.18 1.38-.18 1.62l.12.24q-.18 1.2-.36 1.68-.96.54-.96.78l.12.36q0 .54-.36.54h-.12v.12l.12.3q0 .18-.06.6h-.6q0 .24-.18.24zm-6.72-11.64q1.74-.96 3.42-1.5.96.18 1.26.42l.24-1.86q-.6-1.2-.84-1.86-3.06.72-4.08 1.44v.12q.48.42.48.54-.72 1.5-.72 2.7h.24zm1.68 5.7q2.7-.3 2.7-.9 0-1.74.12-2.34 0-.06-.12-.06.12-.42.12-1.38h-.18q-.48.24-1.32 1.2-.24 0-.66.72l-.3.24h-.18v-.48h-.06V48q.36-.84.6-1.08h-.06L279.46 48q0 1.32-.06 1.32.42.96 1.02.96.3-.18.3-.42h.18q0 .18-.18.72.24.54.66.54zm18.54-3.3v-.3q.24 0 .24.12 0 .18-.24.18zm45.96 19.98q-.06-.12-.48-.12v.12h-.42q0-.48-1.56-1.08-.06 0-.06.06-1.14-.12-1.5-.12v-.12h.24q0-.24-1.44-.48v-.18q-.42 0-2.22-.48v.06l-.12-.06h-.48v-.18l-.48.06q-.12 0-.12-.06-.12 0-.12.06-.42-.06-1.14-.06v-.24q.3 0 .3.18.66-.18.66-.36 0-.24-1.26-.72l-.54-.06q-.3.3-.3.48-.54 0-1.14-.24-.6 0-2.34.78h-.12l-1.26-.78q-.36-.6-.9-2.7 0-.18.06-.42v-.84q-.24-.24-.24-.54.24-.9.96-1.5.3-1.14.72-1.14v.12q.3-.3.48-.3.84 1.08.96 1.26v.06q.36 0 1.62-.48 0 .3.54.54 0 1.08-.54 1.68v.54q.66.84.66 1.02l-.12.48.66 1.08q.54.48 1.32.48l.48-.18.6.12q2.52-.12 2.76-.42l.48.06q4.2-1.2 4.2-1.8.42-2.34.42-7.14l-2.22-2.34q-.78.36-1.26.96-2.94 1.98-4.32 3.42 0 .36-1.62.54-.18 0-1.5-1.62-1.14-1.38-1.14-1.92.24 0 .24-.36v-.3q.96.18 1.08.18 1.32 0 7.08-2.22 0-.18.84-.9.6-.42.6-.6 1.5-1.32 1.74-2.04h-.06q-2.34 1.44-4.86 2.76-.54-.12-.78-.42-.48 0-1.2.12-1.68-.9-2.82-3.6-.24-.48-.36-.48v-.18q.3-.36.3-.96.3-.24.48-.24.96.12 1.38.3.54-.18.66-.18 0 .18.18.18 2.94-.48 2.94-1.08.96-.72.96-.96-.48-.18-.96-1.26l-.48-.48q-.6-.06-1.74-.48v-.3l.18.12v-.24q-.48 0-.48-.48.24 0 .72-.6 0-.24-.48-.24l.06-.54h-.06l.36-.18q.78.06 1.14.06.36 0 .9-.42.06-.48.06-2.16h-.06q-3.24.72-3.96 1.32-2.4.84-4.62 2.28-3.18 1.44-3.54 1.8-.3.42-.72.42-1.92-.18-1.92-.66-.18-.12-1.26-1.38-.66 0-.66-1.68-.06 0-.06-.3-.18 0-3.78 1.92-1.68.54-2.28.54-1.38 0-1.86-1.8-.12 0-.12-.12.12-.3.18-.3-.06-.18-.06-.6.12 0 .12-.48l.78.48q1.44 0 5.04-1.8 2.82-1.44 7.2-3.12 1.08-1.68 2.58-5.04h-.12q0 .18-.42.3 0 .42-1.14 1.26-.72.24-.72.48-.18.42-.96.42v-.18q-.12 0-.42.3-.18-.06-.24-.06 0 .48-1.74.96h-.48q-.12-.3-.12-.36h-.06q0 .24-1.08.36 0 .18-.3.18v-.12q-.66.36-2.28.96h-.12l.12-.18q-.18 0-.18-.3h-.24q-.9-.18-.9-.24V30h.24l-.18-.42q.96 0 1.62-1.02 2.34-2.94 4.38-6.06 2.4-3.18 3.6-5.28-.06-.18-.06-.42.3-.06.36-.48-.24-.36-.3-1.14.6-1.32 1.2-1.32l.42.18.78-.12q1.32 0 2.04 1.14.24.84.78 1.08 1.5.6 1.5.9.9 1.32.9 1.56.42 0 4.5-2.46 0-.48 1.08-1.38.36 0 .48.06.18-.06.54-.06 3 .6 3 1.68 0 .84-.42 1.86 0 .3-.6.48-.6-.18-.66-.18l-.18.12-.18-.12q-1.02 0-4.62 2.16-4.98 2.52-6.12 3.24-.42 1.08-.42 1.32 2.1-.54 2.1-1.02.18 0 .66.18.24 0 .24-.3.42 0 .42.12 2.94-1.44 3.96-2.1.42-1.08 1.02-1.08.12-.12.78-.54 0-.24.96-.3.9.54 1.56 1.2 1.08.84 1.08 1.8 0 .36-.42.9-.42.6-.42 1.14.18.12.42.12 2.04-.36 2.04-1.14 1.2-.6 1.68-.6 1.44.3 1.44.84h.12q2.88-6.48 3-8.04v-.54l-.36-.6q0-.36.6-.36.9.72 1.14.72.96.84 1.62 2.46-.12 2.58-.3 2.58t-.18.36q.12.12.12.24l-.18.06.06.18q0 .12-.12.12 0-.06-.06-.06v.06q.06.24.06.3 1.44-.48 3.24-1.68 1.08-.66 1.32-.66.3-.24.6-.9.3 0 .78-.9.42 0 .42-.06l.42.06q.18 0 .72-.24.84 0 2.04 1.2 1.02.6 1.5.6v.42l-.18.12q.3 0 .42.78-.18 2.1-1.02 2.1 0 .42-1.02.6-1.56-.84-1.56-.96-.18-.54-.48-.54-3.12.78-3.12 1.08.96.84 1.08 1.26v.6q0 1.56-1.08 4.2.72 0 1.38 1.02 0 .24 1.5.78 0 .3 1.26.72 0 .12.78.84.42.48.78 1.5 0 .78-.54 1.14-.12.72-.96 1.44-1.62 0-2.76-.54-.3 0-.42-.18h-1.56q-.54-.48-1.5-.6l-.78.36q-.24.06-.72.06 0-.06-.06-.06v.24l-.42-.18q0 .18-.06.18v-.24q1.02-.42 1.02-.66l-.06-.18h-.6q0 .18-1.38.36-1.38.54-2.1.72 0 .24-.66.6-.24.3-.9.42 0 .06-.9.42 0 .3-.42.3-.18 0-.36-.42h-.3v-.18q.84-.18 2.94-1.98 1.14-.9 1.98-2.04v-.12q-.3 0-3.42-1.98l-.12-.24.06-.18q0-.18-.36-.66 0-.18.18-.18t.18.12l.12-.12q1.02.12 2.04.36.24-.18.42-.18.24 0 .42.18.06 0 .06-.18.9.24 2.4.24 2.28-4.38 2.28-5.7 0-.3-.24-.78-4.32 1.5-4.32 1.92-.18.36-.84.72-1.14 1.62-3.06 3.36-.12 0-.3.24-.3.3-2.04 1.56v.18q.06.12 1.62.54.6.9.6 1.32-.12.24-.3 1.02-.24 0-.9.36l-.18-.06-.24.06q-1.14-.54-2.58-.54h-1.32q-.6 0-.72 1.02-.24 2.04-.42 2.46 0 .12.06.12l-.24 1.14q0 .06.06.06 2.1-2.22 2.1-2.76l-.24-.6q0-.24.6-.24l-.06-.3q0-.24.42-.54 1.14 0 1.62 1.08.48 1.56 1.44 1.56l.36.78q-.24.78-.6 1.14v.78q-.6 0-1.86 1.14-.24 0-.78.78l-.6.36v.12l2.7-.36q.78-1.08.78-1.62v-.72q0-.36.78-.48.9.78 1.8 3.18l.12.66q-.36.24-.36.3 0 .24.06.24-.12.6-.12.9h.06q.36-.24 1.2-.24 1.62 0 2.04 1.26.3.24 1.44.9.48.48.96 1.68 0 1.2-1.02 1.92-.3.66-1.02.66 0-.36-1.86-.78 0-.06-.18-.06-.24 0-1.86.42-.3 0-.36-.36v-.12h.12v-.3q-1.38.78-2.28.78-.78.6-1.92 1.02l-.12.12q.3.36 1.8 1.5.18.36.42.54l-.18.84v.06q-.06.72-.06 2.04 0 .06-.18.06 0 .06.18.06l-.24 1.8q.06.12.06.18h-.06q0 .12.06.12-.24 0-.24 6.3 0 .42-.36.6-.3 1.26-.66 1.26l-.36.66q-.18 0-.18-.12-.66 0-1.26.12 0 .24-.36.48zm-7.32-39.66l2.58-.96.18-2.1q-.12-.18-.12-.24-3.12 1.68-3.12 1.74.36.72.48 1.56zm-7.38 2.52q4.02-1.14 4.02-1.62l.12-1.08q0-1.44-2.04-1.44-.48 1.2-2.16 4.08 0 .06.06.06zm13.8 1.26q1.02-.18 1.26-.3.72.06 1.2.06.36-.12.36-.18v-.36q.24 0 .24-.18v-.36q.72 0 1.98-3.06-1.08.18-4.26.72l-.3-.3q0 .3-.06.48 0 .06.06.06 0 .42-.3.66h.24q0 .42-.24.42l.12.12v.36h-.3v.36h.18l-.18.42h.18v.48q-.24.36-.24.48.06 0 .06.12zm-6.36 1.02l2.28-.3q0-1.02.06-3.3h-.06q-4.02 1.26-4.02 1.74 0 .06.06.06 1.26.48 1.26 1.14.24.66.42.66zm-10.08 2.28q1.38-.12 3.66-.78 0-.36-.66-1.08 0-.3.12-.48-3.06 1.38-3.06 2.22-.12 0-.12.12h.06zm18.66 15.96q.6 0 1.56-1.38 1.14-.54 3.12-2.58l-.06-.18q.3-.18.3-.42l-.06-.18q.12 0 .12-.12-.12-.18-.24-1.02l-.24-.3h-.12q-.78.9-1.02.9 0-.24-.18-.24-1.26 1.02-4.14 3-.6.42-.72.42v.06q.48 0 1.98-.54 0 .06.12.06v-.24h.06l.24.18q0-.18 1.32-.6v.12h-.18v.06h.24q0 .24-.12.24l-.24-.12q0 .18-1.32.9-.78 0-2.88 1.62h.12q.96-.06 1.44-.06.42 0 .9.42zm3.6 10.62h-.42v-.24q1.68-1.02 3.36-3.54 1.38-2.04 1.32-2.28-.24-1.56-1.2-2.04v-.42q.6 0 1.08-.24 1.02-.42 2.76-.78h.54q.78 0 1.98 1.44 1.74.06 1.86.54 0 .48 2.16.9.66 1.2 1.08 1.26v1.02q-.36 0-.78 1.56-.9 1.32-1.38 1.5h-.24l-.78.42q-.6 0-1.44-.42-.72 0-2.22-.66l-.36-.06-.42.12-.6-.12q0 .06-.06.06l-.06-.24q0-.24.12-.24-.06-.18-.06-.36-.42 0-2.64 1.5h-.18l.6-.66v-.06q-1.26.48-4.02 2.04zm9.9-.24q-.24 0-.24-.18h.24v.18zm-25.02 3.66q-.12 0-.36-.06-.18.06-.3.06l-.12-.18.66-.06.12.18v.06zM346.54 69v-.3q0-.06.48-.3l.24.3v.12l-.42-.12q-.12.3-.3.3z"/></svg>