<svg viewBox="0 0 448 80" xmlns="http://www.w3.org/2000/svg"><path d="M63.38 22.1q2.46 0 3.72 1.26 1.26 1.26 1.26 3.66v34.26q0 4.92-4.98 4.92h-2.64q-2.4 0-3.66-.57-1.26-.57-1.26-1.59t1.08-1.59q1.08-.57 2.7-.57V26.36h-2.16v20.46q0 2.82-.6 5.88l-1.8 9.3q-.84 4.2-4.02 4.2-.36 0-1.08-.12-1.74-.36-2.64-1.47-.9-1.11-.9-2.85 0-.42.12-1.38l2.1-11.46V26.36q-.96 0-1.77-.6t-.81-1.56q0-.96.81-1.53.81-.57 1.77-.57v-4.26q0-2.4 1.14-3.66 1.14-1.26 3.24-1.26 2.16 0 3.3 1.26 1.14 1.26 1.14 3.66v4.26h5.94zm-17.7-5.46q0 1.02-1.29 1.59-1.29.57-3.69.57H25.16v34.92q0 3.12-.54 5.88l-.42 2.1q-.36 2.04-1.41 3.12-1.05 1.08-2.67 1.08-.36 0-1.08-.12-1.74-.36-2.67-1.47-.93-1.11-.93-2.73 0-.42.12-1.26l.9-4.5V19.4q0-2.4 1.26-3.66 1.26-1.26 3.66-1.26H40.7q4.98 0 4.98 2.16zm0 44.64q0 2.4-1.29 3.66-1.29 1.26-3.69 1.26h-.42q-2.4 0-3.66-.57-1.26-.57-1.26-1.59t.66-1.59q.66-.57 1.62-.57V40.82h-2.52v13.26q0 3.18-.6 5.88l-.36 1.8q-.84 4.2-3.78 4.2-.54 0-.84-.06-3.06-.66-3.06-3.72 0-.72.18-1.5l.84-4.38V28.88q-.6 0-1.17-.63t-.57-1.53q0-2.16 4.62-2.16H40.7q2.4 0 3.69.57t1.29 1.59q0 1.02-1.29 1.59-1.29.57-3.69.57h-5.58v7.62h5.58q2.46 0 3.72 1.26 1.26 1.26 1.26 3.66v19.86zm38.94-36.72q0 2.4-1.26 3.66-1.26 1.26-3.6 1.26-2.28 0-3.54-1.26-1.26-1.26-1.26-3.66v-1.44q0-2.4 1.26-3.66 1.26-1.26 3.72-1.26h16.74v-.36q0-2.4 1.26-3.66 1.26-1.26 3.54-1.26 2.28 0 3.54 1.26 1.26 1.26 1.26 3.66v.36h16.8q2.46 0 3.72 1.26 1.26 1.26 1.26 3.66v1.44q0 2.4-1.26 3.66-1.26 1.26-3.54 1.26-2.34 0-3.6-1.26-1.26-1.26-1.26-3.66v-2.04H84.62v2.04zm38.76 21.18q2.4 0 3.66.57 1.26.57 1.26 1.59t-1.26 1.59q-1.26.57-3.66.57h-17.16v11.58q0 2.4-1.26 3.66-1.26 1.26-3.66 1.26h-8.76q-2.4 0-3.69-.57t-1.29-1.59q0-1.02 1.29-1.59 1.29-.57 3.69-.57h4.26V50.06H79.58q-2.4 0-3.66-.57-1.26-.57-1.26-1.59t1.26-1.59q1.26-.57 3.66-.57H96.8q0-2.22 2.52-4.68l4.98-5.04H85.22q-2.4 0-3.66-.57-1.26-.57-1.26-1.59t1.26-1.56q1.26-.54 3.66-.54h26.88q1.68 0 2.73.84t1.05 2.16q0 1.86-1.92 3.72l-7.2 7.26h16.62zm60.06-26.28q2.34 0 3.63.57t1.29 1.59q0 1.02-.72 1.59-.72.57-2.1.57h-2.94v.06q.12.54.12 1.56 0 4.14-4.44 4.14-1.8 0-2.91-.96t-1.35-2.88l-.3-1.92h-5.28q-2.1 0-3.27-.93T164 20.3q0-.96.36-1.92l.36-.84q.66-1.74 1.86-2.82 1.2-1.08 2.64-1.08.84 0 1.62.36 2.88 1.26 2.88 3.6 0 .72-.42 1.86h10.14zm-42.72 4.32q-1.8 0-2.82-.87-1.02-.87-1.02-2.43 0-1.02.42-2.1l.3-.84q.72-1.8 1.95-2.76 1.23-.96 2.85-.96.66 0 1.38.18 1.38.3 2.19 1.26t.81 2.28q0 .84-.48 1.92h10.02q2.4 0 3.69.57t1.29 1.59q0 1.02-.81 1.59-.81.57-2.31.57h-3.12v.06q.12.96.12 1.44 0 3.54-3.6 4.2-.72.12-1.08.12-1.62 0-2.64-.99t-1.38-2.91l-.36-1.92h-5.4zm42.66 21q2.34 0 3.63.6T188.3 47q0 1.02-1.29 1.59-1.29.57-3.63.57h-17.16v1.68L183.74 59q3.42 1.5 3.42 3.9 0 .78-.24 1.44-.42 1.14-1.29 1.77-.87.63-2.07.63-1.14 0-2.64-.66l-19.38-8.94-19.44 8.94q-1.5.66-2.7.66-2.4 0-3.3-2.4-.3-.78-.3-1.44 0-2.28 3.48-3.9l17.52-8.16v-1.68h-17.16q-2.34 0-3.63-.57T134.72 47q0-1.02 1.29-1.62 1.29-.6 3.63-.6h17.16v-7.14l-14.76.78q-2.46.12-3.78-.39-1.32-.51-1.32-1.59 0-1.02 1.23-1.62 1.23-.6 3.57-.72l39.24-2.04q2.46-.12 3.78.36 1.32.48 1.32 1.56 0 1.02-1.23 1.62-1.23.6-3.57.72l-15.06.84v7.62h17.16zm62.76-6.42q1.14 0 1.83.57.69.57.69 1.59 0 2.16-5.22 2.16h-25.62q-2.4 0-3.66-.57-1.26-.57-1.26-1.59 0-1.08 1.23-1.62t3.45-.54l.96-8.94h-.3q-2.4 0-3.66-.57-1.26-.57-1.26-1.59t1.26-1.59q1.26-.57 3.66-.57h.84l.78-7.32h-1.98q-2.4 0-3.66-.57-1.26-.57-1.26-1.59t1.29-1.59q1.29-.57 3.63-.57h25.5q2.34 0 3.63.57t1.29 1.59q0 1.02-1.26 1.59-1.26.57-3.66.57H229.4l-.84 7.32h12.6q2.4 0 3.69 1.26t1.29 3.66v8.34zm-41.28-23.22q2.34.42 3.48 1.41 1.14.99.84 2.37-.42 2.16-3.36 2.16-.48 0-2.04-.24l-3.84-.78q-2.34-.42-3.48-1.41-1.14-.99-.84-2.31.48-2.16 3.3-2.16 1.08 0 2.1.24l3.84.72zm3 40.86q1.56-.96 2.82-.96 1.2 0 1.62.9.18.36.18.72 0 1.56-3.36 3.6l-4.98 2.82q-1.56.9-2.76.9-1.44 0-2.28-1.11-.84-1.11-.84-3.15V30.98q-1.68 0-2.61-.57-.93-.57-.93-1.59t1.26-1.59q1.26-.57 3.66-.57h3.3q2.4 0 3.66 1.26 1.26 1.26 1.26 3.66V56zm19.26-17.64h9.48v-8.94h-8.52l-.96 8.94zm-8.1 27.84q-2.4 0-3.69-1.26t-1.29-3.72V50.48q0-2.4 1.29-3.66 1.29-1.26 3.69-1.26h23.22q2.4 0 3.66 1.26 1.26 1.26 1.26 3.66v10.74q0 2.46-1.26 3.72-1.26 1.26-3.66 1.26h-23.22zm4.68-4.32h13.86v-12H223.7v12zm46.26-4.8q-.12-.84-.12-1.26 0-1.8.93-2.91t2.73-1.41q.3-.06.9-.06 3.54 0 4.26 4.26l.9 5.52q.12.84.12 1.2 0 2.04-1.17 3.09-1.17 1.05-3.45 1.05h-15.42q-2.4 0-3.66-1.26-1.26-1.26-1.26-3.66V21.32q0-2.4 1.26-3.66 1.26-1.26 3.66-1.26h3.18q0-1.92 1.29-3.39 1.29-1.47 3.45-1.47t3.45 1.47q1.29 1.47 1.29 3.39h3.12q2.4 0 3.66 1.26 1.26 1.26 1.26 3.66v18.84q0 2.46-1.26 3.72-1.26 1.26-3.66 1.26H264.2v17.1h6.66l-.9-5.16zm33.48-43.62q2.4 0 3.66 1.29 1.26 1.29 1.26 3.69v43.2q0 2.4-1.26 3.66-1.26 1.26-3.66 1.26h-3.78q-2.4 0-3.69-.57t-1.29-1.59q0-1.02.99-1.59.99-.57 2.67-.57h1.26V17.78h-7.74v11.76h1.62q2.4 0 3.66.57 1.26.57 1.26 1.59t-1.26 1.59q-1.26.57-3.66.57h-1.62v10.26h1.62q2.34 0 3.63.57t1.29 1.59q0 1.02-1.26 1.59-1.26.57-3.66.57h-1.62v3.12l-1.32 9.78q-.3 2.34-1.71 3.48-1.41 1.14-3.63.84-3.6-.54-3.6-4.26 0-.84.06-1.26l1.44-10.74V18.44q0-2.4 1.26-3.69t3.66-1.29h15.42zm-32.7 27.42V20.72h-6.54v7.92h.42q2.4 0 3.66.57 1.26.57 1.26 1.59t-1.29 1.59q-1.29.57-3.63.57h-.42v7.92h6.54zm59.22 16.2q-.12-.84-.12-1.26 0-1.8.93-2.91t2.73-1.41q.3-.06.9-.06 3.54 0 4.26 4.26l.9 5.52q.12.84.12 1.2 0 2.04-1.17 3.09-1.17 1.05-3.45 1.05h-15.42q-2.4 0-3.66-1.26-1.26-1.26-1.26-3.66V21.32q0-2.4 1.26-3.66 1.26-1.26 3.66-1.26h3.18q0-1.92 1.29-3.39 1.29-1.47 3.45-1.47t3.45 1.47q1.29 1.47 1.29 3.39h3.12q2.4 0 3.66 1.26 1.26 1.26 1.26 3.66v18.84q0 2.46-1.26 3.72-1.26 1.26-3.66 1.26H324.2v17.1h6.66l-.9-5.16zm33.48-43.62q2.4 0 3.66 1.29 1.26 1.29 1.26 3.69v43.2q0 2.4-1.26 3.66-1.26 1.26-3.66 1.26h-3.78q-2.4 0-3.69-.57t-1.29-1.59q0-1.02.99-1.59.99-.57 2.67-.57h1.26V17.78h-7.74v11.76h1.62q2.4 0 3.66.57 1.26.57 1.26 1.59t-1.26 1.59q-1.26.57-3.66.57h-1.62v10.26h1.62q2.34 0 3.63.57t1.29 1.59q0 1.02-1.26 1.59-1.26.57-3.66.57h-1.62v3.12l-1.32 9.78q-.3 2.34-1.71 3.48-1.41 1.14-3.63.84-3.6-.54-3.6-4.26 0-.84.06-1.26l1.44-10.74V18.44q0-2.4 1.26-3.69t3.66-1.29h15.42zm-32.7 27.42V20.72h-6.54v7.92h.42q2.4 0 3.66.57 1.26.57 1.26 1.59t-1.29 1.59q-1.29.57-3.63.57h-.42v7.92h6.54zm93.66-23.22q1.74 0 2.82.54 1.08.54 1.08 1.56t-1.08 1.59q-1.08.57-2.82.57h-1.86q.06.18.06.54 0 1.38-1.29 2.25-1.29.87-3.63.87-1.62 0-2.61-.87-.99-.87-1.41-2.79h-5.76q-2.22 0-3.42-.87-1.2-.87-1.2-2.49 0-.72.12-1.14.42-1.92 1.5-3t2.7-1.08q.36 0 1.08.12 1.74.42 2.7 1.35.96.93.96 2.13 0 .48-.06.72h12.12zm-34.62 7.92q-1.62 0-2.55-.84-.93-.84-1.35-2.82h-5.64q-2.16 0-3.39-.93t-1.23-2.49q0-.36.12-1.08.9-4.02 4.5-4.02 2.16 0 3.36.99 1.2.99 1.2 2.43 0 .24-.12.84h11.94q1.68 0 2.79.54t1.11 1.56q0 1.02-1.11 1.59-1.11.57-2.79.57h-1.8q.06.18.06.54 0 1.38-1.32 2.25-1.32.87-3.78.87zm7.38 7.14q-2.4 0-3.69-.57t-1.29-1.59q0-1.02 1.29-1.59 1.29-.57 3.69-.57h25.38q2.4 0 3.66 1.26 1.26 1.26 1.26 3.72v28.2q0 2.46-1.26 3.72-1.26 1.26-3.66 1.26h-6.36q-1.92 0-3.09-.6t-1.17-1.56q0-1.02 1.17-1.59 1.17-.57 3.09-.57h1.68V32.72h-20.7zM380 35.3q-4.26-1.02-4.26-3.36 0-1.26.87-1.92.87-.66 2.43-.66 1.08 0 2.22.24l2.64.54q2.1.42 3.21 1.26 1.11.84 1.11 2.04 0 1.26-.87 1.95t-2.49.69q-1.08 0-2.1-.24L380 35.3zm29.46 1.02q2.4 0 3.66 1.29 1.26 1.29 1.26 3.69v13.74q0 2.4-1.26 3.69t-3.66 1.29h-15.6q-2.4 0-3.66-1.29-1.26-1.29-1.26-3.69V41.3q0-2.4 1.26-3.69t3.66-1.29h15.6zm-28.8 30.24q-2.34 0-3.6-1.29-1.26-1.29-1.26-3.69v-16.2q0-2.4 1.26-3.69t3.6-1.29q2.28 0 3.54 1.29 1.26 1.29 1.26 3.69v16.2q0 2.4-1.23 3.69t-3.57 1.29zm17.52-25.92v5.4h1.86q1.68 0 2.79.54t1.11 1.56q0 1.02-1.11 1.59-1.11.57-2.79.57h-1.86v5.4h6.96V40.64h-6.96z"/></svg>