<svg viewBox="0 0 538 80" xmlns="http://www.w3.org/2000/svg"><path d="M56.88 19.84h11.16l-.66 40.56q-.06 1.44-.99 2.34-.93.9-2.31.9h-6.6V59.8h3.72q.6 0 1.05-.42.45-.42.45-1.02l.72-34.5h-6.78L51.6 63.64h-4.68l5.16-39.78h-5.4v-4.02h5.64l.24-4.68h4.56l-.24 4.68zM15.3 63.64L16.92 52V16.36h26.94v3.72H21.48v32.16l-1.74 11.4H15.3zm8.52-34.02v-3.9H43.5v3.9H33v7.68h9.72l-.84 23.22q-.06 1.32-.99 2.22-.93.9-2.31.9h-5.46V59.8h3.06q.6 0 .99-.39t.45-.99l.66-17.22h-5.76L27.6 63.64h-4.44l5.34-24.42v-9.6h-4.68zm98.22-7.98H81.72v5.04h-4.68v-9.06h23.88l-.9-2.58h5.04l1.14 2.58h20.52v9.42h-4.68v-5.4zm5.4 22.38v3.96h-21.42l-.12 12.36q0 1.44-.96 2.37-.96.93-2.4.93H89.22v-3.9h10.44q.66 0 1.08-.45.42-.45.42-1.05V47.98H76.32v-3.96h24.84v-4.26l10.8-5.34H81.72V30.4h38.7v3.9l-14.34 7.38v2.34h21.36zm32.22.24h-17.34v3.48h-4.68V25.72h19.92l-2.22-3.42h5.16l1.86 2.7 11.7-5.34h-36.42v-3.78h47.94v2.22l-16.14 7.62h17.04v22.02h-4.68v-3.48h-17.46v2.94h-4.68v-2.94zm0-11.16v-3.6h-17.34v3.6h17.34zm4.68 0h17.46v-3.6h-17.46v3.6zm-22.02 3.78v3.6h17.34v-3.6h-17.34zm22.02 0v3.6h17.46v-3.6h-17.46zm-12.06 13.8h34.8l-.72 9.72q-.06 1.38-1.08 2.31-1.02.93-2.4.93h-11.52v-3.9h8.88q.66 0 1.14-.42.48-.42.54-1.14l.24-3.48h-29.88v1.98l-7.5 6.96h-6.36l9.18-8.4v-.54h-11.16v-4.02h11.16v-2.46h4.68v2.46zm93.96-21.18q0 1.98-.96 3.72l-7.68 13.62 10.32 16.8h-5.28l-7.56-12.3-6.18 10.86q-.36.66-.99 1.05t-1.41.39h-3.66l9.48-16.74-4.86-7.92h5.28l2.1 3.42 6-10.56q.72-1.26.72-2.82v-7.5H230.4l-1.98 14.64h-4.56l2.76-21h4.68l-.36 2.46h16.98v3.9h-1.68v7.98zm-23.28 25.38v3.9l-4.14.54v4.32h-4.68v-3.78l-19.38 2.46v-3.9l2.76-.36V29.68h-2.34v-3.84H213l1.26-6.3H196.8v-3.9h22.62l-1.62 10.2h4.44v3.84h-3.42v25.74l4.14-.54zm-8.82-18.36v-6.84H202.2v6.84h11.94zm0 3.84H202.2v6.42h11.94v-6.42zM202.2 50.62v6.84l11.94-1.5v-5.34H202.2zm105.24.3v3.96h-51v-3.96h23.22v-5.28h-21.42v-3.96h21.42v-4.92h-21.78V16.12h48.36v15.42q0 2.64-1.29 3.93t-3.93 1.29h-16.68v4.92h21.42v3.96h-21.42v5.28h23.1zm-27.78-30.84h-17.1v12.66h17.1V20.08zm21.9 10.5v-10.5h-17.22v12.66h15.06q1.26 0 1.71-.42.45-.42.45-1.74zm-35.82-3.9v-4.26l10.98 3.18v4.2l-10.98-3.12zm32.52-3.9v4.26l-10.74 2.88v-4.2l10.74-2.94zm-37.02 40.86h-4.8l3.06-5.7h4.8l-3.06 5.7zm12.18 0l-3-5.7h5.16l3 5.7h-5.16zm14.82 0l-3.3-5.7h5.04l3.48 5.7h-5.22zm11.58-5.7h4.92l3.06 5.7h-4.92l-3.06-5.7zm27.06-36.66h-3.78l-2.4 3.96h-4.86l5.88-10.08h5.16l-1.26 2.1h15.78v4.02h-9.36l2.58 3.72h-5.04l-2.7-3.72zm26.16-6.12l-1.26 2.1h16.26v4.02h-8.34l2.58 3.6h-5.04l-2.82-3.6h-5.04L347.16 25h-4.92l5.64-9.84h5.16zm-20.16 15.6V26.8h33.72v33.66q0 1.38-.9 2.28-.9.9-2.28.9h-6.24v-3.9h3.3q.66 0 1.05-.42t.39-1.02V30.76h-29.04zm-12-3.72h5.04l3.66 5.94h-4.92l-3.78-5.94zm.36 36.6h-4.68V34.66h4.68v28.98zm6.72-3.36V36.76h27.06V57.1q0 1.32-.9 2.25-.9.93-2.28.93h-23.88zm22.38-13.68v-5.88h-17.7v5.88h17.7zm-1.44 9.72q.66 0 1.05-.42t.39-1.02v-4.32h-17.7v5.76h16.26zM452.16 15.4l-3.36 4.56h9.36v7.86h-4.5v-3.96h-43.2v3.96h-4.5v-7.86h9.12l-3-4.56H417l3.18 4.56h9.36v-5.58h4.68v5.58h9.54l3.36-4.56h5.04zm-17.94 27.54v5.28h22.74V59.8q0 1.38-.93 2.31-.93.93-2.31.93h-9.66v-3.78h7.08q.6 0 .99-.39t.39-.99v-5.76h-18.3v11.52h-4.68V52.12H411.6v10.92h-4.44V48.22h22.38v-5.28h-20.16V29.38h45.36V39.7q0 1.38-.93 2.31-.93.93-2.31.93h-17.28zm-20.28-9.72v5.88h34.74q.6 0 .99-.39t.39-.99v-4.5h-36.12zm64.02-9.72v15.24h7.92v.54q0 1.44-.93 2.37-.93.93-2.37.93h-4.62v3.06q0 .96-.42 2.1l-.36.9 8.4 8.4v5.88L475.5 52.9l-3.54 8.88q-.36.9-1.08 1.38-.72.48-1.68.48h-2.64l6.54-16.74q.24-.54.24-1.38v-2.94h-7.8v-3.84h7.8V23.5h-7.02v-3.84h7.02v-4.5h4.62v4.5h7.14v3.84h-7.14zm33.6-3.54h-17.34v30.12h-4.68V16.12h26.7v33.96h-4.68V19.96zM505.14 46q0 1.44-.9 2.7L493.2 63.64h-5.04l11.88-16.62q.42-.66.42-1.2V23.74h4.68V46zm9.12 8.88h4.98l-1.56 6.42q-.3 1.02-1.11 1.68-.81.66-1.89.66h-10.62v-13.8h4.44v9.96h3.36q.48 0 .84-.27t.48-.69l1.08-3.96z"/></svg>