<svg viewBox="0 0 686 80" xmlns="http://www.w3.org/2000/svg"><path d="M16.3 60.3q-.42 0-.63-.21-.21-.21-.21-.51 0-.42.42-.84t1.14-.66q2.34-.66 3.3-1.35.96-.69 1.5-2.43l8.46-27.36q.3-.9.3-1.74 0-.9-.6-1.41-.6-.51-2.04-.87-.66-.18-.9-.54-.24-.36-.12-.72.3-.96 2.64-.96 1.26 0 3.06.18.78.06 1.92.12t2.58.06l9.96-.06q3.66 0 5.64-.39 1.98-.39 2.4-.39.48 0 .84.36t.36.96q0 .78-.66 3.12-.9 3.48-.9 4.8 0 .54-.3.87-.3.33-.66.33-.3 0-.6-.27t-.36-.75q-.48-3.66-1.32-5.07-.84-1.41-3.06-1.41h-4.08q-1.56 0-2.55 1.05-.99 1.05-1.83 3.87l-2.64 9.18q-.12.48-.12.6 0 .84 1.2.84h5.04q1.5 0 2.61-.93 1.11-.93 2.19-2.79.3-.48.75-.78.45-.3.87-.3.18 0 .33.18.15.18.15.48 0 .24-.18.72-1.38 3.3-1.86 4.98-.48 1.56-1.26 4.98-.42 1.68-1.14 1.68-.48 0-.78-.42-.3-.42-.24-1.02.3-4.14-1.8-4.14H37.3q-1.32 0-1.74 1.38l-3 10.38q-.3.9-.3 1.92 0 2.7 3.54 2.7h4.32q1.14 0 2.43-.42 1.29-.42 2.37-1.14.96-.6 1.74-1.62t2.16-3q.24-.48.84-1.32.3-.48.51-.6.21-.12.57-.12t.51.3q.15.3.15 1.08 0 1.08-1.14 4.02-1.14 2.94-2.34 4.62-.54.72-1.68.72l-2.58-.06Q30.52 60 25 60q-2.04 0-4.38.18-3.24.12-4.32.12zm35.1 0q-.42 0-.69-.21-.27-.21-.27-.51 0-.42.48-.84t1.2-.66q2.34-.66 3.27-1.35.93-.69 1.47-2.43l8.52-27.36q.36-1.02.36-1.62 0-.96-.66-1.47t-2.1-.93q-.9-.24-.9-.9 0-.54.45-.93t1.11-.39q2.16 0 4.68.24 2.28.24 3.72.24 1.74 0 3.48-.18 2.76-.24 5.4-.24 5.52 0 8.49 1.98 2.97 1.98 2.97 5.7 0 3.42-3.24 6.12t-7.8 3.66q-.24.06-.33.3-.09.24.15.3 7.92 2.7 7.92 9.3 0 6.48-5.55 9.3-5.55 2.82-14.67 2.82-1.56 0-4.32-.12Q61.66 60 60.1 60q-2.1 0-4.44.18-3.12.12-4.26.12zm23.04-22.02q1.2 0 2.22-.3 1.02-.3 2.34-.9 2.1-1.74 3.42-4.11 1.32-2.37 1.32-5.31 0-2.04-1.26-3.63-1.26-1.59-3-1.59-1.32 0-2.04.48t-1.14 1.74L72.64 36.6q-.12.48-.12.6 0 1.08 1.92 1.08zm-4.8 19.92q2.34-.36 4.5-2.25 2.16-1.89 3.48-4.56 1.32-2.67 1.32-5.19 0-2.52-1.29-4.2-1.29-1.68-3.57-1.68-1.44 0-2.13.3t-.93 1.14l-3.84 12.3q-.24.96-.24 1.56 0 .72.24 1.14.3.54.99.99.69.45 1.47.45zm56.4 2.64q-4.86 0-8.61-1.86-3.75-1.86-5.85-5.34-2.1-3.48-2.1-8.16 0-3.3 1.2-7.26 1.5-4.92 5.34-9.06 3.84-4.14 9.42-6.57 5.58-2.43 12.12-2.43 1.86 0 3.36.33 1.5.33 3.18.87.36.12 1.38.45t1.8.33q.9 0 1.56-.36 1.08-.66 1.8-.66.78 0 .78.66 0 .3-.3.78-1.08 1.44-2.4 4.41-1.32 2.97-2.04 5.43-.18.66-.51 1.02t-.93.36q-1.32 0-1.14-2.64.06-.48.06-1.38 0-2.88-1.2-4.68-.84-1.2-2.43-1.98-1.59-.78-3.33-.78-5.22 0-9.93 4.83t-7.71 14.49q-.96 3.06-.96 5.94 0 4.92 2.58 7.98 2.58 3.06 6.78 3.06 2.04 0 3.69-1.41t2.25-3.39l2.04-6.72q.12-.48.12-.72 0-.96-1.02-1.44-.84-.42-2.13-.72t-1.59-.36q-1.14-.36-1.14-1.08 0-.54.51-.87.51-.33 1.11-.33.96 0 2.58.12t2.46.18q2.82.3 4.56.3.9 0 3.18-.24 3.6-.3 5.28-.3.96 0 .66.9-.18.54-.54.84-.36.3-.96.42-1.86.42-2.7 1.05-.84.63-1.5 1.89-.78 1.5-1.59 3.57t-.81 2.67q0 .66.33 1.2.33.54.99 1.2-.66 1.32-3.84 2.58-3.18 1.26-7.17 2.07-3.99.81-6.69.81zm26.52 0q-1.26 0-2.55-1.05-1.29-1.05-1.29-2.07 0-1.74.99-3.81.99-2.07 3.39-5.19 2.4-3.12 6.9-8.22 2.46-2.82 4.77-4.62 2.31-1.8 3.51-1.8.78 0 1.86.45t2.1 1.29q.42.42.54.42h.06q.12 0 .18-.15t.12-.27q.66-1.32.9-1.92.12-.3.57-.51.45-.21 1.05-.21 1.5 0 3.21 1.02t1.71 1.86q0 .36-.06.42l-5.82 15.96q-.12.48-.12.66 0 .78.72.78.6 0 2.01-1.02 1.41-1.02 2.91-2.52.18-.18.24-.18.3 0 .54.3.24.3.24.72 0 .96-1.2 2.49-1.2 1.53-3.18 3.15-2.28 1.86-4.47 2.94-2.19 1.08-3.57 1.08-1.5 0-2.91-1.14-1.41-1.14-1.41-2.34 0-.36.3-1.38.48-1.38 1.92-4.74v-.12q0-.18-.18-.27-.18-.09-.3.03-4.44 5.1-7.77 7.53-3.33 2.43-5.91 2.43zm6.96-6.9q.96 0 3.09-1.83t4.23-4.47q1.86-2.28 2.94-4.05 1.08-1.77 1.08-2.49 0-.54-1.32-1.62-.66-.48-1.29-.81-.63-.33-1.05-.33-.9 0-2.46 1.05t-2.94 2.49q-1.62 1.68-2.85 4.59t-1.23 5.31q0 1.02.48 1.59.48.57 1.32.57zm28.86 6.9q-1.08 0-2.49-.9-1.41-.9-1.41-2.1 0-.72.24-1.38l6.18-15.96q.12-.48.12-.6 0-.66-.84-.66-1.02 0-1.65.33-.63.33-1.23.84t-.84.69q-.24.24-.72.24-.6 0-.6-.78 0-1.32 1.17-2.64t3.03-2.34q1.5-.84 3.15-1.32 1.65-.48 3.09-.48 1.62 0 2.46.93.84.93.84 2.49 0 1.8-.84 3.66l-2.22 5.16q-.06.06-.06.24 0 .24.24.24.36 0 .54-.36 3.42-6.18 6.24-9.27 2.82-3.09 6.12-3.09 1.92 0 3.03 1.14 1.11 1.14 1.11 2.88 0 1.62-.78 3.18t-1.92 2.55q-1.14.99-2.1.99-.72 0-1.11-.6-.39-.6-.69-1.98-.3-1.32-.66-2.07-.36-.75-1.08-.75-1.08 0-2.07 1.29-.99 1.29-2.61 4.17-2.4 4.38-6.66 11.82-1.08 1.86-2.46 3.15-1.38 1.29-2.52 1.29zm22.44 0q-1.26 0-2.55-1.05-1.29-1.05-1.29-2.07 0-1.74.99-3.81.99-2.07 3.39-5.19 2.4-3.12 6.9-8.22 2.46-2.82 4.77-4.62 2.31-1.8 3.51-1.8.78 0 1.86.45t2.1 1.29q.42.42.54.42h.06q.12 0 .18-.15t.12-.27q.66-1.32.9-1.92.12-.3.57-.51.45-.21 1.05-.21 1.5 0 3.21 1.02t1.71 1.86q0 .36-.06.42l-5.82 15.96q-.12.48-.12.66 0 .78.72.78.6 0 2.01-1.02 1.41-1.02 2.91-2.52.18-.18.24-.18.3 0 .54.3.24.3.24.72 0 .96-1.2 2.49-1.2 1.53-3.18 3.15-2.28 1.86-4.47 2.94-2.19 1.08-3.57 1.08-1.5 0-2.91-1.14-1.41-1.14-1.41-2.34 0-.36.3-1.38.48-1.38 1.92-4.74v-.12q0-.18-.18-.27-.18-.09-.3.03-4.44 5.1-7.77 7.53-3.33 2.43-5.91 2.43zm6.96-6.9q.96 0 3.09-1.83t4.23-4.47q1.86-2.28 2.94-4.05 1.08-1.77 1.08-2.49 0-.54-1.32-1.62-.66-.48-1.29-.81-.63-.33-1.05-.33-.9 0-2.46 1.05t-2.94 2.49q-1.62 1.68-2.85 4.59t-1.23 5.31q0 1.02.48 1.59.48.57 1.32.57zm29.1 6.9q-.72 0-1.65-.45-.93-.45-1.59-1.32-.66-.87-.66-1.95.12-.84.3-1.26l6.54-15.36q.12-.24.12-.6 0-.66-.78-.66-.9 0-2.19.45t-2.55 1.71q-.3.3-.66.3-.6 0-.6-.6-.06-.6.87-1.92.93-1.32 1.77-1.98 2.04-1.74 3.72-2.58 1.68-.84 4.38-.84 1.62 0 2.55 1.05.93 1.05.93 2.61 0 1.08-.54 2.28l-3.42 7.68q-.06.06-.06.24 0 .24.24.24.36 0 .54-.36 2.82-4.8 4.68-7.47 1.86-2.67 4.05-4.47 2.19-1.8 4.65-1.8 2.34 0 3.51 1.38t1.17 3.48q0 2.4-1.38 4.8l-.54 1.02-.06.24q0 .24.3.24.42 0 .66-.36 3.24-5.16 6.03-7.98 2.79-2.82 6.33-2.82 2.16 0 3.15 1.14.99 1.14.99 3.12 0 2.34-1.32 5.4l-3.9 8.94q-.36.78-.36 1.2 0 .54.54.54t2.01-1.02q1.47-1.02 2.31-1.8 1.08-1.08 1.38-1.08.18 0 .39.24.21.24.21.54-.12 1.38-1.02 2.4-2.94 3.36-6.45 5.4-3.51 2.04-6.99 2.04-.9 0-2.04-.72-1.14-.72-1.14-1.56 0-.18.12-.54l8.4-18.12q.3-.6.3-1.02 0-.48-.24-.75t-.6-.27q-.72 0-1.65 1.05-.93 1.05-2.37 3.21-1.26 1.92-4.38 7.08-4.38 7.26-5.04 8.28-.84 1.32-2.55 2.34-1.71 1.02-2.73 1.02-.96 0-2.16-1.02-1.2-1.02-1.14-1.92 0-1.02.54-2.34l6.66-15.84q.3-.72.3-1.14 0-.78-.78-.78-1.38 0-4.86 4.98-1.8 2.58-5.04 8.82-2.04 3.84-3 5.52-2.04 3.72-4.2 3.72zm54 0q-2.46 0-4.62-1.11t-3.48-3.12q-1.32-2.01-1.32-4.65 0-3.84 2.22-8.1t6.36-7.17q4.14-2.91 9.54-2.91 4.26 0 6.84 2.34t2.58 6.54q0 3.84-2.22 8.1t-6.36 7.17q-4.14 2.91-9.54 2.91zm1.2-2.46q1.74 0 3.72-3.42 1.98-3.42 3.3-8.19 1.32-4.77 1.32-8.37 0-2.34-1.92-2.34-1.5 0-3.51 3.45t-3.45 8.22q-1.44 4.77-1.44 8.25 0 1.2.54 1.8.54.6 1.44.6zm25.08 2.46q-.66 0-1.71-.57-1.05-.57-1.8-1.56-.75-.99-.75-2.13 0-.72.24-1.26l5.88-14.64q.12-.48.12-.6 0-.66-.96-.66-3.12 0-4.8 1.98-.3.3-.66.3-.24 0-.45-.15-.21-.15-.21-.51 0-.6.87-1.89t1.65-1.95q3.84-3.42 8.88-3.42 1.74 0 2.7 1.05.96 1.05.96 2.61 0 1.14-.42 2.04l-3 7.38-.06.18q0 .12.15.21t.33.09q.48 0 .78-.36 3.6-6.48 6.6-9.84 3-3.36 6.6-3.36 2.46 0 3.63 1.41t1.17 3.51q0 1.86-.78 3.6l-4.32 10.08q-.3.66-.3 1.2 0 .54.54.54t1.98-1.02q1.44-1.02 2.22-1.8 1.08-1.08 1.38-1.08.18 0 .39.24.21.24.21.54 0 1.32-.9 2.4-2.7 3.24-6.48 5.34-3.78 2.1-6.9 2.1-1.14 0-2.19-.87t-1.05-1.89q0-.24.12-.6 1.8-3.96 3.12-6.66 3.36-6.84 4.92-11.1.24-.54.24-1.08 0-.66-.72-.66-.84 0-1.83 1.17-.99 1.17-2.67 3.75l-1.2 1.8q-.9 1.32-3.18 5.1-2.28 3.78-3.96 6.72-1.2 2.04-2.25 3.18-1.05 1.14-2.13 1.14zm33.9 0q-2.16 0-3.57-1.47-1.41-1.47-1.41-3.75 0-3.24 1.86-7.32t5.1-7.98q5.46-6.54 10.02-6.54 1.2 0 2.25.48t1.95 1.02q.9.54 1.26.78.48.3.9.3.24 0 .42-.54l2.58-8.04q.6-1.98.84-2.7.24-.72.18-.78-.06-.06-.06-.24 0-1.2-2.58-2.16-.66-.3-.93-.51-.27-.21-.27-.45 0-.42.36-.69.36-.27 1.38-.63 1.44-.48 5.55-1.26 4.11-.78 5.19-.78 1.68 0 1.68.84 0 .54-.15 1.11-.15.57-.45 1.47L382 52.92l-.12.72q0 .42.3.42.54 0 2.16-1.17t3-2.55q.18-.18.24-.18.36 0 .6.27t.24.69q0 1.5-2.25 3.84t-5.22 4.11q-2.97 1.77-4.89 1.77-1.5 0-2.91-1.14-1.41-1.14-1.41-2.34 0-.36.3-1.38.42-1.02 1.02-2.19.6-1.17 1.11-2.04.51-.87.33-.33l.06-.24q0-.24-.18-.24-.24 0-.48.3-4.08 4.92-7.23 7.26-3.15 2.34-5.61 2.34zm5.76-6.54q1.86 0 4.41-2.46t4.44-5.82q1.89-3.36 1.89-5.82 0-1.5-.63-2.34-.63-.84-1.83-.84-1.68 0-4.08 2.73-2.4 2.73-4.2 6.42-1.8 3.69-1.8 6.21 0 .9.48 1.41.48.51 1.32.51zm35.88 6q-.42 0-.63-.21-.21-.21-.21-.51 0-.42.42-.84t1.14-.66q2.34-.66 3.3-1.35.96-.69 1.5-2.43l8.46-27.36q.3-.9.3-1.74 0-.9-.6-1.41-.6-.51-2.04-.87-.66-.18-.9-.54-.24-.36-.12-.72.3-.96 2.64-.96 1.26 0 3.06.18.78.06 1.92.12t2.58.06l9.96-.06q3.66 0 5.64-.39 1.98-.39 2.4-.39.48 0 .84.36t.36.96q0 .78-.66 3.12-.9 3.48-.9 4.8 0 .54-.3.87-.3.33-.66.33-.3 0-.6-.27t-.36-.75q-.48-3.66-1.32-5.07-.84-1.41-3.06-1.41h-4.08q-1.56 0-2.55 1.05-.99 1.05-1.83 3.87l-2.64 9.18q-.12.48-.12.6 0 .84 1.2.84h5.04q1.5 0 2.61-.93 1.11-.93 2.19-2.79.3-.48.75-.78.45-.3.87-.3.18 0 .33.18.15.18.15.48 0 .24-.18.72-1.38 3.3-1.86 4.98-.48 1.56-1.26 4.98-.42 1.68-1.14 1.68-.48 0-.78-.42-.3-.42-.24-1.02.3-4.14-1.8-4.14h-5.82q-1.32 0-1.74 1.38l-3 10.38q-.3.9-.3 1.92 0 2.7 3.54 2.7h4.32q1.14 0 2.43-.42 1.29-.42 2.37-1.14.96-.6 1.74-1.62t2.16-3q.24-.48.84-1.32.3-.48.51-.6.21-.12.57-.12t.51.3q.15.3.15 1.08 0 1.08-1.14 4.02-1.14 2.94-2.34 4.62-.54.72-1.68.72l-2.58-.06Q416.92 60 411.4 60q-2.04 0-4.38.18-3.24.12-4.32.12zm39.18.54q-1.5 0-2.28-.87-.78-.87-.78-2.13 0-1.44.96-2.79t2.04-1.35q.6 0 1.32.96.72.72 1.8.72 1.32 0 2.64-1.5.6-.72 1.32-1.44.3-.36 1.11-1.26t1.11-1.38q.42-.6.42-1.08 0-.18-.12-.66l-2.28-7.56q-.3-1.02-.84-1.02-1.38 0-3.9 2.94-.3.3-.66.3-.24 0-.45-.15-.21-.15-.21-.51 0-1.62 1.2-3.57 1.2-1.95 3.21-3.33 2.01-1.38 4.29-1.38 1.5 0 2.4 1.08.9 1.08 1.56 3.12l1.74 5.34q.12.36.3.36.24 0 .48-.42l3.42-4.74q1.86-2.58 3.36-3.66 1.5-1.08 2.94-1.08 1.5 0 2.64 1.14 1.14 1.14 1.14 2.22 0 1.08-.54 2.04t-1.29 1.53q-.75.57-1.29.57-.66 0-.96-.21-.3-.21-.66-.75-.3-.54-.6-.78t-.9-.24q-.6 0-1.29.3-.69.3-1.77 1.38-1.44 1.44-3.36 4.62-.54.96-.54 1.5 0 .18.12.78l1.56 5.88q.24.96.54 1.29.3.33.78.33.48 0 1.41-.75.93-.75 1.95-2.31.12-.18.33-.3.21-.12.39-.12.24 0 .39.21.15.21.15.57 0 1.32-1.2 3.27t-3.12 3.42q-1.92 1.47-3.96 1.47-1.56 0-2.79-1.2t-1.53-2.58l-.54-2.7-.6-2.64q-.24-.78-.66-.18-.36.48-1.68 2.52-.66 1.14-1.32 2.04-1.56 2.16-3.45 3.45-1.89 1.29-3.45 1.29zm34.44 0q-.96 0-1.89-.63-.93-.63-1.5-1.56t-.57-1.71q0-.66.6-2.28l5.64-14.94q.24-.84.24-1.02 0-.84-.9-.84l-3-.12q-1.56-.06-1.56-1.26 0-.18.48-.72t1.17-.99q.69-.45 1.41-.45h3.06q.9 0 1.2-.27.3-.27.9-1.35l1.74-3.42q.78-1.5 2.28-2.76 1.5-1.26 2.64-1.26.78 0 1.17.57.39.57.39 1.41 0 .36-.12.96l-1.38 4.74q-.12.36-.12.84 0 .36.24.51.24.15.78.15 1.08 0 3.6.3 1.32.18 1.65.48.33.3.33.84 0 .3-.45.69-.45.39-1.29.51-1.8.24-3.24.3-1.2.06-1.8.3-.6.24-.84.96l-4.26 11.88q-.48 1.38-.48 2.1 0 .54.21.66t.57.12q.9 0 2.79-1.5 1.89-1.5 3.51-3.12.18-.18.24-.18.36 0 .6.3t.24.66q0 1.5-2.46 4.2t-5.82 4.8q-3.36 2.1-6 2.1zm22.86 0q-1.08 0-2.49-.9-1.41-.9-1.41-2.1 0-.72.24-1.38l6.18-15.96q.12-.48.12-.6 0-.66-.84-.66-1.02 0-1.65.33-.63.33-1.23.84t-.84.69q-.24.24-.72.24-.6 0-.6-.78 0-1.32 1.17-2.64t3.03-2.34q1.5-.84 3.15-1.32 1.65-.48 3.09-.48 1.62 0 2.46.93.84.93.84 2.49 0 1.8-.84 3.66l-2.22 5.16q-.06.06-.06.24 0 .24.24.24.36 0 .54-.36 3.42-6.18 6.24-9.27 2.82-3.09 6.12-3.09 1.92 0 3.03 1.14 1.11 1.14 1.11 2.88 0 1.62-.78 3.18t-1.92 2.55q-1.14.99-2.1.99-.72 0-1.11-.6-.39-.6-.69-1.98-.3-1.32-.66-2.07-.36-.75-1.08-.75-1.08 0-2.07 1.29-.99 1.29-2.61 4.17-2.4 4.38-6.66 11.82-1.08 1.86-2.46 3.15-1.38 1.29-2.52 1.29zm22.44 0q-1.26 0-2.55-1.05-1.29-1.05-1.29-2.07 0-1.74.99-3.81.99-2.07 3.39-5.19 2.4-3.12 6.9-8.22 2.46-2.82 4.77-4.62 2.31-1.8 3.51-1.8.78 0 1.86.45t2.1 1.29q.42.42.54.42h.06q.12 0 .18-.15t.12-.27q.66-1.32.9-1.92.12-.3.57-.51.45-.21 1.05-.21 1.5 0 3.21 1.02t1.71 1.86q0 .36-.06.42l-5.82 15.96q-.12.48-.12.66 0 .78.72.78.6 0 2.01-1.02 1.41-1.02 2.91-2.52.18-.18.24-.18.3 0 .54.3.24.3.24.72 0 .96-1.2 2.49-1.2 1.53-3.18 3.15-2.28 1.86-4.47 2.94-2.19 1.08-3.57 1.08-1.5 0-2.91-1.14-1.41-1.14-1.41-2.34 0-.36.3-1.38.48-1.38 1.92-4.74v-.12q0-.18-.18-.27-.18-.09-.3.03-4.44 5.1-7.77 7.53-3.33 2.43-5.91 2.43zm6.96-6.9q.96 0 3.09-1.83t4.23-4.47q1.86-2.28 2.94-4.05 1.08-1.77 1.08-2.49 0-.54-1.32-1.62-.66-.48-1.29-.81-.63-.33-1.05-.33-.9 0-2.46 1.05t-2.94 2.49q-1.62 1.68-2.85 4.59t-1.23 5.31q0 1.02.48 1.59.48.57 1.32.57zm22.08 6.36q-.42 0-.69-.21-.27-.21-.27-.51 0-.42.48-.84t1.2-.66q2.34-.66 3.27-1.35.93-.69 1.47-2.43l8.52-27.36q.36-1.02.36-1.62 0-.96-.66-1.47t-2.1-.93q-.9-.24-.9-.9 0-.54.45-.93t1.11-.39q2.16 0 4.68.24 2.28.24 3.72.24 1.74 0 3.48-.18 2.76-.24 5.4-.24 5.52 0 8.49 1.98 2.97 1.98 2.97 5.7 0 3.42-3.24 6.12t-7.8 3.66q-.24.06-.33.3-.09.24.15.3 7.92 2.7 7.92 9.3 0 6.48-5.55 9.3-5.55 2.82-14.67 2.82-1.56 0-4.32-.12-2.88-.12-4.44-.12-2.1 0-4.44.18-3.12.12-4.26.12zm23.04-22.02q1.2 0 2.22-.3 1.02-.3 2.34-.9 2.1-1.74 3.42-4.11Q583 30.6 583 27.66q0-2.04-1.26-3.63-1.26-1.59-3-1.59-1.32 0-2.04.48t-1.14 1.74L571.9 36.6q-.12.48-.12.6 0 1.08 1.92 1.08zm-4.8 19.92q2.34-.36 4.5-2.25 2.16-1.89 3.48-4.56 1.32-2.67 1.32-5.19 0-2.52-1.29-4.2-1.29-1.68-3.57-1.68-1.44 0-2.13.3t-.93 1.14l-3.84 12.3q-.24.96-.24 1.56 0 .72.24 1.14.3.54.99.99.69.45 1.47.45zm31.92 2.64q-2.46 0-4.62-1.11t-3.48-3.12q-1.32-2.01-1.32-4.65 0-3.84 2.22-8.1t6.36-7.17q4.14-2.91 9.54-2.91 4.26 0 6.84 2.34t2.58 6.54q0 3.84-2.22 8.1t-6.36 7.17q-4.14 2.91-9.54 2.91zm1.2-2.46q1.74 0 3.72-3.42 1.98-3.42 3.3-8.19 1.32-4.77 1.32-8.37 0-2.34-1.92-2.34-1.5 0-3.51 3.45t-3.45 8.22q-1.44 4.77-1.44 8.25 0 1.2.54 1.8.54.6 1.44.6zm20.58 2.46q-1.44 0-2.49-1.14-1.05-1.14-1.05-2.34 0-.48.3-1.38l9.9-29.46q.54-1.62.54-2.46 0-.84-.39-1.23t-1.23-.51q-.9-.12-1.14-.36-.24-.24-.12-.72.12-.42.36-.66.24-.24.9-.42 2.28-.54 4.92-1.02 3.84-.66 5.1-1.14 1.08-.36 1.5-.36.36 0 .57.48.21.48.09.78-.6 2.04-.9 2.82l-10.68 30.66q-.12.48-.12.66 0 .78.72.78 1.2 0 4.68-3.48.18-.18.24-.18.42 0 .6.36t.18.66q0 1.44-2.25 3.78t-5.25 4.11q-3 1.77-4.98 1.77zm19.5 0q-2.16 0-3.57-1.47-1.41-1.47-1.41-3.75 0-3.24 1.86-7.32t5.1-7.98q5.46-6.54 10.02-6.54 1.2 0 2.25.48t1.95 1.02q.9.54 1.26.78.48.3.9.3.24 0 .42-.54l2.58-8.04q.6-1.98.84-2.7.24-.72.18-.78-.06-.06-.06-.24 0-1.2-2.58-2.16-.66-.3-.93-.51-.27-.21-.27-.45 0-.42.36-.69.36-.27 1.38-.63 1.44-.48 5.55-1.26 4.11-.78 5.19-.78 1.68 0 1.68.84 0 .54-.15 1.11-.15.57-.45 1.47l-11.16 31.92-.12.72q0 .42.3.42.54 0 2.16-1.17t3-2.55q.18-.18.24-.18.36 0 .6.27t.24.69q0 1.5-2.25 3.84t-5.22 4.11q-2.97 1.77-4.89 1.77-1.5 0-2.91-1.14-1.41-1.14-1.41-2.34 0-.36.3-1.38.42-1.02 1.02-2.19.6-1.17 1.11-2.04.51-.87.33-.33l.06-.24q0-.24-.18-.24-.24 0-.48.3-4.08 4.92-7.23 7.26-3.15 2.34-5.61 2.34zm5.76-6.54q1.86 0 4.41-2.46t4.44-5.82q1.89-3.36 1.89-5.82 0-1.5-.63-2.34-.63-.84-1.83-.84-1.68 0-4.08 2.73-2.4 2.73-4.2 6.42-1.8 3.69-1.8 6.21 0 .9.48 1.41.48.51 1.32.51z"/></svg>