<svg viewBox="0 0 669 80" xmlns="http://www.w3.org/2000/svg"><path d="M16.72 60.3q-.54 0-.81-.27t-.15-.63q.06-.36.51-.72t1.17-.54q2.46-.6 3.48-1.35 1.02-.75 1.56-2.55l8.4-27.3q.36-1.08.36-1.8 0-.96-.66-1.47t-2.22-.81q-1.32-.36-1.14-1.26.36-.9 2.52-.9l2.94.12q3 .24 4.56.24l9.9-.06q3.96 0 5.85-.36 1.89-.36 2.25-.36.42 0 .75.33t.33.87q0 .48-.6 2.88-.96 3.12-1.02 4.8 0 .54-.3.87-.3.33-.66.33-.3 0-.57-.27-.27-.27-.33-.81-.36-3.48-1.17-4.83-.81-1.35-3.03-1.35h-4.68q-1.56 0-2.49.93-.93.93-1.65 3.39l-2.88 9.84q-.12.48-.12.66 0 .84 1.2.84h5.46q1.5-.06 2.58-.93 1.08-.87 2.1-2.55.3-.54.78-.87.48-.33.9-.33.48 0 .48.66 0 .3-.18.78-1.38 3.3-1.8 4.74-.54 1.68-1.26 4.86-.42 1.62-1.08 1.62-.42 0-.72-.45t-.24-1.05q.18-4.02-1.92-4.02h-6q-1.56 0-1.92 1.44l-3.06 10.5q-.36 1.14-.36 2.04 0 1.38.84 2.01.84.63 2.58.63h5.22q2.46 0 4.8-1.56 1.08-.72 1.95-1.89.87-1.17 2.49-3.69.24-.36.48-.57.24-.21.6-.21t.48.3q.12.3.12 1.08 0 1.02-1.08 3.81t-2.16 4.35q-.6.78-1.74.78l-5.34-.06Q26.8 60 25.12 60q-1.92 0-4.2.18-3 .12-4.2.12zm35.1 0q-1.02 0-1.02-.72 0-.42.48-.81.48-.39 1.26-.63 2.4-.66 3.39-1.38.99-.72 1.59-2.52l8.46-27.3q.36-1.02.36-1.74 0-.96-.66-1.47t-2.1-.87q-1.08-.24-1.08-.9 0-.48.51-.84t1.17-.36q1.98 0 4.26.24.48 0 1.47.09t1.95.09q1.74 0 3.42-.18 2.64-.24 4.98-.24 5.52 0 8.46 2.01 2.94 2.01 2.94 5.67 0 3.48-3.24 6.18-3.24 2.7-7.74 3.54-.3.06-.36.3t.18.3q3.72 1.32 5.76 3.57 2.04 2.25 2.04 5.85 0 6.24-5.37 9.15t-14.07 2.91q-2.28 0-4.38-.18-2.76-.12-4.2-.12-1.32 0-2.37.06t-1.83.12q-2.28.18-4.26.18zm21.96-22.14q1.2 0 2.25-.27t2.49-.81q2.34-1.68 3.75-4.02 1.41-2.34 1.41-5.22 0-2.16-1.38-3.78-1.38-1.62-3.42-1.62-1.32 0-2.01.45-.69.45-1.05 1.53l-3.66 12.24q-.06.18-.06.54 0 .96 1.68.96zm-4.32 20.16q2.4-.3 4.65-2.13 2.25-1.83 3.63-4.47 1.38-2.64 1.38-5.28 0-2.76-1.53-4.53-1.53-1.77-4.23-1.77-1.26 0-1.89.3-.63.3-.87 1.08l-3.84 12.42q-.18.72-.18 1.56 0 .9.3 1.38 1.02 1.44 2.58 1.44zm56.1 2.52q-4.92 0-8.7-1.86-3.78-1.86-5.91-5.31-2.13-3.45-2.13-8.19 0-3.06.84-6.06 1.26-5.28 5.01-9.69 3.75-4.41 9.39-6.99 5.64-2.58 12.3-2.58 1.8 0 3.27.33t3.15.87q.24.06.99.33t1.23.36q.48.09.96.09.84 0 1.5-.36 1.02-.6 1.68-.6.78 0 .78.6 0 .3-.3.72-1.08 1.44-2.4 4.35-1.32 2.91-1.98 5.25-.3 1.38-1.38 1.38-1.26 0-1.08-2.46.06-.48.06-1.44 0-2.88-1.2-4.56-.84-1.2-2.4-1.98t-3.36-.78q-3.78 0-7.26 2.31t-6.27 6.87q-2.79 4.56-4.47 11.04-.66 2.64-.66 4.8 0 3.36 1.26 5.97t3.51 4.05q2.25 1.44 5.13 1.44 2.16 0 3.81-1.41t2.25-3.45l1.98-6.72q.12-.48.12-.72 0-1.02-1.08-1.5-1.2-.48-3.54-.96-.6-.18-.96-.51t-.24-.81q.12-.42.6-.66.48-.24 1.02-.24 2.04 0 4.74.3 3.24.24 4.38.24.96 0 1.74-.06t1.38-.12q2.22-.3 4.74-.3 1.08 0 .78.9-.12.48-.51.78-.39.3-1.05.48-1.8.42-2.61.99-.81.57-1.47 1.83-.78 1.56-1.56 3.69t-.78 2.73q0 .66.27 1.17.27.51.93 1.17-.6 1.26-3.57 2.49-2.97 1.23-6.66 2.01-3.69.78-6.27.78zm25.5 0q-1.26 0-2.49-1.02-1.23-1.02-1.23-2.04 0-2.64 2.46-6.42t8.82-10.74q2.64-2.82 4.89-4.56 2.25-1.74 3.39-1.74 1.56 0 3.54 1.56.48.54.54.54h.12q.12 0 .18-.15t.12-.27q.78-1.5.9-1.92.36-.66 1.5-.66 1.32 0 2.88.9 1.56.9 1.56 1.68 0 .24-.12.6l-6 16.32q-.18.42-.18.72 0 .84.84.84.66 0 2.07-1.02 1.41-1.02 2.91-2.58.18-.18.3-.18.3 0 .48.27t.18.69q0 .84-1.11 2.31-1.11 1.47-2.91 2.97-2.22 1.8-4.32 2.85t-3.48 1.05q-1.38 0-2.67-1.08t-1.29-2.22q0-.36.3-1.38.12-.48.6-1.59t.72-1.71l.72-1.68q.06-.06.06-.24 0-.24-.15-.3t-.27.06q-4.68 5.28-7.98 7.71-3.3 2.43-5.88 2.43zm6.3-6.36q1.02 0 3.24-1.92t4.5-4.74q1.92-2.34 3.06-4.17 1.14-1.83 1.14-2.61 0-.54-1.2-1.56-1.38-1.08-2.22-1.08-.9 0-2.52 1.08T160.3 42q-1.92 1.92-3.33 4.98-1.41 3.06-1.41 5.4 0 1.02.48 1.56t1.32.54zm29.52 6.42q-1.02 0-2.25-.84t-1.23-1.92q0-.78.42-1.98l6.06-15.66q.12-.24.12-.66 0-.72-.78-.72-1.08 0-1.74.36-.66.36-1.8 1.26-.24.24-.66.24-.6 0-.6-.78 0-1.14 1.02-2.31 1.02-1.17 2.7-2.13 1.38-.78 2.91-1.26 1.53-.48 2.91-.48 1.56 0 2.34.84.78.84.78 2.34 0 1.62-.9 3.78l-2.28 5.46-.06.24q0 .24.24.24.36 0 .54-.36 3.42-6.18 6.39-9.39 2.97-3.21 6.03-3.21 1.86 0 2.88 1.08 1.02 1.08 1.02 2.76 0 1.56-.72 3.06t-1.77 2.43q-1.05.93-2.01.93-.66 0-1.02-.6t-.6-1.92q-.48-2.64-1.62-2.64-1.02 0-2.01 1.23-.99 1.23-2.55 3.87-1.92 3.06-5.4 9.24l-1.62 2.82q-1.2 2.1-2.46 3.39t-2.28 1.29zm24.06-.06q-1.26 0-2.49-1.02-1.23-1.02-1.23-2.04 0-2.64 2.46-6.42t8.82-10.74q2.64-2.82 4.89-4.56 2.25-1.74 3.39-1.74 1.56 0 3.54 1.56.48.54.54.54h.12q.12 0 .18-.15t.12-.27q.78-1.5.9-1.92.36-.66 1.5-.66 1.32 0 2.88.9 1.56.9 1.56 1.68 0 .24-.12.6l-6 16.32q-.18.42-.18.72 0 .84.84.84.66 0 2.07-1.02 1.41-1.02 2.91-2.58.18-.18.3-.18.3 0 .48.27t.18.69q0 .84-1.11 2.31-1.11 1.47-2.91 2.97-2.22 1.8-4.32 2.85t-3.48 1.05q-1.38 0-2.67-1.08t-1.29-2.22q0-.36.3-1.38.12-.48.6-1.59t.72-1.71l.72-1.68q.06-.06.06-.24 0-.24-.15-.3t-.27.06q-4.68 5.28-7.98 7.71-3.3 2.43-5.88 2.43zm6.3-6.36q1.02 0 3.24-1.92t4.5-4.74q1.92-2.34 3.06-4.17 1.14-1.83 1.14-2.61 0-.54-1.2-1.56-1.38-1.08-2.22-1.08-.9 0-2.52 1.08T220.18 42q-1.92 1.92-3.33 4.98-1.41 3.06-1.41 5.4 0 1.02.48 1.56t1.32.54zm29.88 6.42q-.6 0-1.44-.45t-1.41-1.23q-.57-.78-.57-1.74.12-.9.48-1.8l6.36-15.18q.12-.48.12-.66 0-.72-.84-.72-.9 0-2.13.48t-2.55 1.8q-.18.3-.6.3-.18 0-.36-.15t-.18-.45q-.06-.6.78-1.83.84-1.23 1.56-1.89 1.8-1.68 3.45-2.52 1.65-.84 4.23-.84 1.56 0 2.49.96.93.96.93 2.46 0 .9-.48 2.04l-3.42 7.92-.06.24q0 .24.24.24.3 0 .48-.36 2.7-4.5 4.68-7.29 1.98-2.79 4.17-4.5t4.59-1.71q2.16 0 3.27 1.32 1.11 1.32 1.11 3.36 0 2.22-1.14 4.32l-.84 1.92-.06.24q0 .24.3.24.36 0 .6-.3 3.3-5.28 6.24-8.19 2.94-2.91 6.36-2.91 2.04 0 3.03 1.11.99 1.11.99 3.03 0 2.1-1.2 4.92l-4.14 9.72q-.36.78-.36 1.26 0 .6.6.6t2.07-1.05q1.47-1.05 2.67-2.13.78-.9 1.14-.9.18 0 .39.21.21.21.21.51-.12 1.38-1.08 2.34-2.76 3.24-6.09 5.22-3.33 1.98-6.63 1.98-.9 0-1.95-.69-1.05-.69-1.05-1.59 0-.18.12-.54l8.16-18.06q.24-.48.24-1.02 0-.48-.27-.78-.27-.3-.63-.36-1.44 0-4.38 4.32-1.2 1.8-3.39 5.34-2.19 3.54-3.27 5.28l-2.64 4.38q-.96 1.56-2.58 2.67-1.62 1.11-2.58 1.11-.9 0-1.92-.93t-1.02-1.83q0-.84.72-2.7l6.48-15.66q.24-.54.24-1.08 0-.42-.24-.69-.24-.27-.66-.27-1.5 0-5.04 4.92-1.2 1.62-2.85 4.53-1.65 2.91-3.27 5.85l-2.04 3.78q-1.14 2.04-2.13 3.06t-2.01 1.02zm53.16-.06q-2.28 0-4.29-1.08-2.01-1.08-3.21-3.03-1.2-1.95-1.2-4.41 0-3.84 2.19-8.13 2.19-4.29 6.15-7.23 3.96-2.94 9.06-2.94 4.08 0 6.48 2.28 2.4 2.28 2.4 6.3 0 3.84-2.19 8.13-2.19 4.29-6.21 7.2t-9.18 2.91zm1.14-2.34q1.86 0 3.9-3.36t3.42-8.07q1.38-4.71 1.38-8.31 0-2.52-2.04-2.52-1.62 0-3.72 3.36t-3.57 8.04q-1.47 4.68-1.47 8.22 0 1.32.57 1.98.57.66 1.53.66zm24 2.34q-.6 0-1.53-.51t-1.59-1.41q-.66-.9-.66-1.92 0-.66.24-1.14l6.06-15.06q.18-.54.18-.84 0-.66-.72-.66-3.06 0-4.86 2.1-.3.3-.6.3-.6 0-.66-.6-.06-.6.78-1.83.84-1.23 1.56-1.89 3.48-3.36 8.34-3.36 1.62 0 2.49.96.87.96.87 2.4 0 .9-.36 1.8l-3.18 7.86-.06.18q0 .12.15.21t.33.09q.48 0 .66-.3 3.54-6.36 6.72-9.78 3.18-3.42 6.66-3.42 2.28 0 3.39 1.35 1.11 1.35 1.11 3.39 0 1.8-.72 3.42l-4.5 10.62q-.36.78-.36 1.26 0 .6.6.6.66 0 2.22-1.11t2.46-1.95q.78-.9 1.14-.9.18 0 .39.24.21.24.21.48 0 1.08-.78 2.16-2.7 3.18-6.3 5.22-3.6 2.04-6.66 2.04-1.02 0-2.01-.81-.99-.81-.99-1.77 0-.48.12-.66.9-2.1 1.68-3.72.78-1.62 1.38-2.88.42-.9 2.04-4.32 1.62-3.42 2.76-6.54.3-.78.3-1.44 0-.78-.78-.78-.96 0-2.1 1.32-1.14 1.32-2.22 2.94-1.08 1.62-1.44 2.1-1.02 1.38-3.51 5.49-2.49 4.11-4.29 7.23-1.08 1.86-2.01 2.85-.93.99-1.95.99zm33.54 0q-2.04 0-3.39-1.44t-1.35-3.6q0-3.3 1.89-7.44 1.89-4.14 5.13-8.04 2.64-3.12 5.16-4.74t4.74-1.62q1.08 0 2.04.45t1.8.99q.84.54 1.2.72.24.12.51.27.27.15.51.15t.42-.54l2.82-9q.06-.3.18-.63t.18-.63q.54-1.68.51-1.77-.03-.09-.03-.27 0-1.14-2.4-2.1-1.32-.42-1.32-.9 0-.42.36-.69.36-.27 1.44-.63 1.5-.42 5.16-1.11 3.66-.69 4.62-.69 1.5 0 1.5.84 0 .78-.54 2.4l-10.86 32.22q-.18.54-.18.9 0 .6.42.6.6 0 2.25-1.17t3.03-2.61q.24-.24.3-.24.3 0 .51.27.21.27.21.63 0 1.44-2.16 3.72-2.16 2.28-4.98 3.99-2.82 1.71-4.62 1.71-1.38 0-2.7-1.11-1.32-1.11-1.32-2.25 0-.3.3-1.38.42-1.02.96-2.22.54-1.2.99-2.07.45-.87.27-.33.06-.12.06-.3 0-.24-.18-.24-.24 0-.42.3-4.08 4.92-7.23 7.26-3.15 2.34-5.79 2.34zm5.16-5.88q1.98 0 4.71-2.58t4.71-6.09q1.98-3.51 1.98-6.03 0-1.56-.69-2.43-.69-.87-1.89-.87-1.74 0-4.32 2.85t-4.47 6.69q-1.89 3.84-1.89 6.48 0 1.98 1.86 1.98zm36.66 5.34q-1.02 0-1.02-.72 0-.42.48-.81.48-.39 1.26-.63 2.4-.66 3.39-1.38.99-.72 1.59-2.52l8.46-27.3q.36-1.02.36-1.74 0-.96-.66-1.47t-2.1-.87q-1.08-.24-1.08-.9 0-.48.51-.84t1.17-.36q1.98 0 4.26.24.48 0 1.47.09t1.95.09q1.74 0 3.42-.18 2.64-.24 4.98-.24 5.52 0 8.46 2.01 2.94 2.01 2.94 5.67 0 3.48-3.24 6.18-3.24 2.7-7.74 3.54-.3.06-.36.3t.18.3q3.72 1.32 5.76 3.57 2.04 2.25 2.04 5.85 0 6.24-5.37 9.15t-14.07 2.91q-2.28 0-4.38-.18-2.76-.12-4.2-.12-1.32 0-2.37.06t-1.83.12q-2.28.18-4.26.18zm21.96-22.14q1.2 0 2.25-.27t2.49-.81q2.34-1.68 3.75-4.02 1.41-2.34 1.41-5.22 0-2.16-1.38-3.78-1.38-1.62-3.42-1.62-1.32 0-2.01.45-.69.45-1.05 1.53l-3.66 12.24q-.06.18-.06.54 0 .96 1.68.96zm-4.32 20.16q2.4-.3 4.65-2.13 2.25-1.83 3.63-4.47 1.38-2.64 1.38-5.28 0-2.76-1.53-4.53-1.53-1.77-4.23-1.77-1.26 0-1.89.3-.63.3-.87 1.08l-3.84 12.42q-.18.72-.18 1.56 0 .9.3 1.38 1.02 1.44 2.58 1.44zm30.84 2.52q-2.28 0-4.29-1.08-2.01-1.08-3.21-3.03-1.2-1.95-1.2-4.41 0-3.84 2.19-8.13 2.19-4.29 6.15-7.23 3.96-2.94 9.06-2.94 4.08 0 6.48 2.28 2.4 2.28 2.4 6.3 0 3.84-2.19 8.13-2.19 4.29-6.21 7.2t-9.18 2.91zm1.14-2.34q1.86 0 3.9-3.36t3.42-8.07q1.38-4.71 1.38-8.31 0-2.52-2.04-2.52-1.62 0-3.72 3.36t-3.57 8.04q-1.47 4.68-1.47 8.22 0 1.32.57 1.98.57.66 1.53.66zm21.24 2.34q-1.32 0-2.37-1.08t-1.05-2.22q0-.54.3-1.32l10.14-30q.54-1.56.54-2.34 0-.66-.33-1.05t-.99-.57q-.72-.18-.99-.45t-.39-.75v-.24q0-.3.18-.48t.66-.3q1.8-.48 4.44-1.02 2.7-.54 3.84-.9 1.98-.54 2.58-.54.36 0 .57.45.21.45.09.75-.18 1.02-.78 2.64L477.16 52.8q-.18.42-.18.84 0 .78.72.78t2.16-1.17q1.44-1.17 2.82-2.67.36-.36.48-.36.66 0 .66.96 0 1.5-2.22 3.81t-5.13 4.08q-2.91 1.77-4.83 1.77zm19.2 0q-2.04 0-3.39-1.44t-1.35-3.6q0-3.3 1.89-7.44 1.89-4.14 5.13-8.04 2.64-3.12 5.16-4.74t4.74-1.62q1.08 0 2.04.45t1.8.99q.84.54 1.2.72.24.12.51.27.27.15.51.15t.42-.54l2.82-9q.06-.3.18-.63t.18-.63q.54-1.68.51-1.77-.03-.09-.03-.27 0-1.14-2.4-2.1-1.32-.42-1.32-.9 0-.42.36-.69.36-.27 1.44-.63 1.5-.42 5.16-1.11 3.66-.69 4.62-.69 1.5 0 1.5.84 0 .78-.54 2.4l-10.86 32.22q-.18.54-.18.9 0 .6.42.6.6 0 2.25-1.17t3.03-2.61q.24-.24.3-.24.3 0 .51.27.21.27.21.63 0 1.44-2.16 3.72-2.16 2.28-4.98 3.99-2.82 1.71-4.62 1.71-1.38 0-2.7-1.11-1.32-1.11-1.32-2.25 0-.3.3-1.38.42-1.02.96-2.22.54-1.2.99-2.07.45-.87.27-.33.06-.12.06-.3 0-.24-.18-.24-.24 0-.42.3-4.08 4.92-7.23 7.26-3.15 2.34-5.79 2.34zm5.16-5.88q1.98 0 4.71-2.58t4.71-6.09q1.98-3.51 1.98-6.03 0-1.56-.69-2.43-.69-.87-1.89-.87-1.74 0-4.32 2.85t-4.47 6.69q-1.89 3.84-1.89 6.48 0 1.98 1.86 1.98zm22.44 5.22q-.48 0-.75-.24t-.15-.6q.24-.96 1.62-1.26 2.52-.54 3.6-1.32t1.62-2.58l8.46-27.24q.3-1.2.3-1.74 0-.9-.66-1.38-.66-.48-2.34-.96-1.2-.3-.84-1.26.06-.36.51-.63t.93-.27q2.22 0 4.44.18 2.88.12 4.02.12 1.14 0 4.14-.12 3.24-.12 4.68-.12 1.08 0 .78.84-.12.54-.51.81t-1.17.45q-2.64.72-3.63 1.5-.99.78-1.53 2.64l-7.68 24.96q-.78 2.4-.78 3.66 0 .96.54 1.41.54.45 1.92.81 1.32.3 1.68.6.36.3.18.84-.18.9-1.32.9-2.22 0-4.86-.18-3.36-.12-4.44-.12-1.2 0-4.2.12-2.34.18-4.56.18zm29.88.66q-1.32 0-2.52-1.26t-1.2-2.34q0-.78.66-2.46l5.64-15.12q.18-.54.18-.84 0-.84-.84-.84l-2.88-.12q-1.5-.06-1.5-1.2 0-.18.45-.69t1.11-.93q.66-.42 1.32-.42h2.94q.84 0 1.17-.24.33-.24.81-1.26l1.68-3.36q.72-1.32 2.16-2.55 1.44-1.23 2.46-1.23.66 0 1.02.54t.36 1.32q0 .3-.12.9l-1.44 4.62q-.12.6-.12.66 0 .42.24.57.24.15.78.15 1.38 0 3.78.3 1.2.18 1.53.45.33.27.33.81 0 .24-.42.63t-1.2.51q-2.22.24-3.6.3-1.14.06-1.68.3t-.78.84l-4.5 12.42q-.42 1.26-.42 1.92 0 .9.9.9t2.67-1.41q1.77-1.41 3.39-3.03.36-.3.48-.18.3.06.48.42t.06.72q-.3 1.56-2.67 4.02-2.37 2.46-5.4 4.32-3.03 1.86-5.31 1.86zm18.48 0q-1.26 0-2.49-1.02-1.23-1.02-1.23-2.04 0-2.64 2.46-6.42t8.82-10.74q2.64-2.82 4.89-4.56 2.25-1.74 3.39-1.74 1.56 0 3.54 1.56.48.54.54.54h.12q.12 0 .18-.15t.12-.27q.78-1.5.9-1.92.36-.66 1.5-.66 1.32 0 2.88.9 1.56.9 1.56 1.68 0 .24-.12.6l-6 16.32q-.18.42-.18.72 0 .84.84.84.66 0 2.07-1.02 1.41-1.02 2.91-2.58.18-.18.3-.18.3 0 .48.27t.18.69q0 .84-1.11 2.31-1.11 1.47-2.91 2.97-2.22 1.8-4.32 2.85t-3.48 1.05q-1.38 0-2.67-1.08t-1.29-2.22q0-.36.3-1.38.12-.48.6-1.59t.72-1.71l.72-1.68q.06-.06.06-.24 0-.24-.15-.3t-.27.06q-4.68 5.28-7.98 7.71-3.3 2.43-5.88 2.43zm6.3-6.36q1.02 0 3.24-1.92t4.5-4.74q1.92-2.34 3.06-4.17 1.14-1.83 1.14-2.61 0-.54-1.2-1.56-1.38-1.08-2.22-1.08-.9 0-2.52 1.08T576.04 42q-1.92 1.92-3.33 4.98-1.41 3.06-1.41 5.4 0 1.02.48 1.56t1.32.54zm28.08 6.36q-1.32 0-2.37-1.08t-1.05-2.22q0-.54.3-1.32l10.14-30q.54-1.56.54-2.34 0-.66-.33-1.05t-.99-.57q-.72-.18-.99-.45t-.39-.75v-.24q0-.3.18-.48t.66-.3q1.8-.48 4.44-1.02 2.7-.54 3.84-.9 1.98-.54 2.58-.54.36 0 .57.45.21.45.09.75-.18 1.02-.78 2.64L606.7 52.8q-.18.42-.18.84 0 .78.72.78t2.16-1.17q1.44-1.17 2.82-2.67.36-.36.48-.36.66 0 .66.96 0 1.5-2.22 3.81t-5.13 4.08q-2.91 1.77-4.83 1.77zm19.74 0q-1.38 0-2.52-1.05-1.14-1.05-1.14-2.19 0-.66.3-1.26 1.08-2.4 2.34-5.49 1.26-3.09 1.8-4.35l2.04-4.92q.12-.36-.3-.36-.6 0-1.44.42t-2.34 1.32q-.6.3-.84.3-.84 0-.84-.48 0-.78 2.04-2.61 2.04-1.83 4.71-3.6t4.35-2.37q.48-.12.72-.12 1.2 0 2.16.96.96.96.6 1.92l-6.72 16.56q-.18.42-.18.9 0 .18.15.33.15.15.27.15.72 0 2.76-1.44t3.36-2.76q.18-.18.24-.18.3 0 .54.27.24.27.24.57 0 1.38-2.19 3.69t-5.1 4.05q-2.91 1.74-5.01 1.74zm10.98-31.08q-1.32 0-2.22-1.05-.9-1.05-.9-2.37 0-2.04 1.47-3.6t3.57-1.56q1.38 0 2.19 1.11t.81 2.55q0 1.98-1.47 3.45-1.47 1.47-3.45 1.47zm12.48 31.08q-2.16 0-4.05-1.11-1.89-1.11-2.97-2.97-1.08-1.86-1.02-4.08.12-4.86 2.31-9.15t5.88-6.9q3.69-2.61 8.07-2.61 2.28 0 3.72 1.02 1.44 1.02 1.44 2.58 0 1.14-.81 2.25t-1.65 1.11q-.48 0-.81-.33-.33-.33-.99-1.47-.66-1.14-1.41-1.86-.75-.72-1.47-.72-1.62 0-3.24 1.98t-2.67 5.04q-1.05 3.06-1.05 6.12 0 2.1 1.14 3.3 1.14 1.2 3.06 1.2 3.18 0 5.46-2.76.48-.72 1.14-.72.24 0 .42.18t.18.48q0 1.92-1.65 4.17t-4.17 3.75q-2.52 1.5-4.86 1.5z"/></svg>