<svg viewBox="0 0 495 80" xmlns="http://www.w3.org/2000/svg"><path d="M16.52 60.3q-1.44 0-1.44-.66 0-.72 2.16-1.08 2.94-.48 4.23-1.47 1.29-.99 1.95-3.03l8.22-27q.42-1.26.42-2.16 0-1.14-.84-1.62-.84-.48-2.94-.78-.9-.12-1.23-.36-.33-.24-.33-.66 0-.66 1.86-.66 1.08 0 2.04.06 3.12.12 5.22.12h9.66q5.4 0 6.75-.3 1.35-.3 1.47-.3.24 0 .45.27.21.27.21.51t-.42 1.5q-1.08 3.12-1.38 5.22-.06.6-.39.87t-.63.27q-.3 0-.51-.42-.21-.42-.15-1.08.06-.48.06-1.26 0-2.04-.78-2.82-.78-.78-2.82-.78h-7.32q-1.38 0-2.01.39-.63.39-.93 1.41L33.08 37.2q-.24.66-.24 1.14 0 .78 1.2.72l7.44-.18q1.44-.06 2.37-.63.93-.57 1.77-1.59.18-.24.57-.75.39-.51.75-.81.36-.3.66-.3.54 0 .54.66 0 .42-.3 1.02-.9 1.8-1.62 3.66-.66 1.86-1.2 4.38-.3 1.26-.78 1.26-.42 0-.6-.54t-.18-1.08q0-3.36-2.28-3.36l-6.9-.12q-1.26 0-1.92.33-.66.33-.96 1.53l-3.06 10.92q-.54 1.86-.54 3t.6 1.56q.6.42 1.98.42h9.3q2.52 0 4.8-1.62 1.62-1.14 3.24-3.78.06-.06.36-.57t.72-.51q.42 0 .42 1.2 0 .78-.81 2.76-.81 1.98-1.53 3.12-.78 1.26-1.98 1.26-1.08 0-12.6-.18-4.74-.18-8.58-.18-1.98 0-3.54.18-.48 0-1.53.09t-2.13.09zm35.28 0q-.78 0-1.11-.15-.33-.15-.33-.51 0-.42.51-.66.51-.24 1.65-.42 2.34-.42 3.72-1.44 1.38-1.02 2.04-3.06l8.22-27q.42-1.5.42-2.04 0-1.02-.66-1.5t-2.16-.78q-.96-.18-1.29-.39-.33-.21-.33-.63 0-.36.57-.54.57-.18 1.41-.18 1.38 0 2.46.18 1.2.12 2.04.12.72 0 1.8-.12t1.5-.18q1.8-.3 2.82-.3 5.7 0 8.4 2.19t2.7 5.61q0 2.7-1.65 4.74t-4.14 3.27q-2.49 1.23-4.95 1.53-.42.06-.42.27 0 .21.24.33 3.78 1.44 5.64 3.66 1.86 2.22 1.86 6.18 0 3.42-2.1 6.09t-5.76 4.17q-3.66 1.5-8.22 1.5-2.04 0-4.56-.24-1.62-.18-3-.18t-3.42.24q-2.16.24-3.9.24zm16.86-22.56q2.22 0 5.52-.72 3.24-1.38 5.19-3.51 1.95-2.13 1.95-5.01 0-2.58-1.98-4.29t-5.4-1.71q-1.14 0-1.65.21t-.63.75l-3.72 13.38q-.06.12-.06.36 0 .54.78.54zm-2.16 21q2.7 0 5.37-1.47t4.35-3.99q1.68-2.52 1.68-5.58 0-4.14-2.49-6.3T68 39.24q-.96 0-1.26 1.14L62.9 53.52q-.24.72-.24 1.62 0 1.38.84 2.16.78.72 1.41 1.08.63.36 1.59.36zm54.72 2.1q-5.28 0-9.45-1.8-4.17-1.8-6.6-5.4-2.43-3.6-2.43-8.88 0-6.84 3.42-12.45 3.42-5.61 9.36-8.85 5.94-3.24 13.2-3.24 2.76 0 5.82 1.14.84.36 1.65.63.81.27 1.47.27.36 0 .81-.24.45-.24.57-.3.72-.42 1.2-.42.6 0 .6.48 0 .3-.18.48-1.14 1.56-2.4 4.11-1.26 2.55-1.62 4.41-.12.6-.45.99t-.63.39q-.96 0-.96-1.2 0-.36.06-.54.18-.84.18-1.68 0-2.34-1.2-3.84-.9-1.26-2.43-2.1-1.53-.84-3.63-.84-5.34 0-9.84 3.51t-7.11 9.15q-2.61 5.64-2.61 11.7 0 3.78 1.98 6.72t5.04 4.53q3.06 1.59 6.18 1.59 2.58 0 4.26-1.44 1.68-1.44 2.28-3.72l1.68-6.54q.12-.36.12-.96t-.27-.96q-.27-.36-.93-.54-.66-.18-2.7-.6-.96-.18-1.41-.36-.45-.18-.45-.54 0-.42.54-.66.54-.24 1.38-.24 1.92 0 3.54.18.42 0 1.44.09t2.04.09q.72 0 1.47-.09t1.11-.09q1.2-.18 2.52-.18.54 0 .9.24t.36.6q0 .36-.51.69-.51.33-1.41.51-1.38.24-2.13.81-.75.57-1.29 1.77-.78 1.62-1.47 4.08t-.69 3.18q0 .9.66 1.92-.42 1.08-2.37 2.1-1.95 1.02-4.41 1.68-2.46.66-4.26.66zm20.58 0q-1.14 0-2.1-.84-.96-.84-.96-1.8 0-3.18 3.15-7.92t8.25-9.18q6.42-5.64 8.28-5.64.96 0 1.68.84.72 1.02.78 1.02l.3-.48q1.2-2.04 1.02-1.8.36-.6.72-.6.84 0 1.56.42.72.42.72.84 0 .3-.42 1.5l-6.72 17.82q-.24.54-.24 1.02 0 1.02 1.02 1.02 1.08 0 2.61-1.05 1.53-1.05 2.67-2.55.18-.3.54-.3.42 0 .42.66 0 .42-.84 1.65t-1.74 2.13q-1.68 1.56-3.39 2.4-1.71.84-3.15.84-.96 0-1.77-.75t-.81-1.59q0-.66.36-1.38-.36.66.15-.51t1.26-2.76q.75-1.59 1.41-3.03.3-.66.27-.99-.03-.33-.39.09-5.46 6.12-8.7 8.52-3.24 2.4-5.94 2.4zm3.36-3.78q1.32 0 3.96-2.19 2.64-2.19 5.88-6.09 2.28-2.64 3.6-4.86 1.32-2.22 1.32-3.3 0-.48-.78-1.14-.9-.66-1.5-.66-1.08 0-2.97 1.08-1.89 1.08-3.45 2.58-3.06 3-5.43 6.75-2.37 3.75-2.37 5.79 0 .9.48 1.47t1.26.57zm25.8 3.96q-.48 0-.99-.45t-.51-.99q0-.66.39-1.86.39-1.2.99-2.76l5.52-14.4q.24-.54.24-1.26 0-.84-.6-.84-.78 0-1.59.21t-1.29.45q-.18.12-.48.12-.54 0-.54-.6 0-.48.45-1.08.45-.6 1.23-1.14 1.68-1.26 3.78-1.26 2.4 0 2.4 1.98 0 1.26-1.2 4.32l-2.7 6.78-.06.24q0 .3.33.36t.45-.24q3.6-6.12 7.17-9.93 3.57-3.81 5.67-3.81 1.44 0 2.13.84t.69 2.16q0 1.74-.9 3.3-.9 1.56-2.1 1.56-.96 0-.96-2.1 0-1.92-1.14-1.92-1.38 0-4.08 3.48-1.44 1.86-4.11 6-2.67 4.14-4.47 7.32-.12.18-1.32 2.4-.96 1.8-1.44 2.46-.48.66-.96.66zm19.44-.18q-1.14 0-2.1-.84-.96-.84-.96-1.8 0-3.18 3.15-7.92t8.25-9.18q6.42-5.64 8.28-5.64.96 0 1.68.84.72 1.02.78 1.02l.3-.48q1.2-2.04 1.02-1.8.36-.6.72-.6.84 0 1.56.42.72.42.72.84 0 .3-.42 1.5l-6.72 17.82q-.24.54-.24 1.02 0 1.02 1.02 1.02 1.08 0 2.61-1.05 1.53-1.05 2.67-2.55.18-.3.54-.3.42 0 .42.66 0 .42-.84 1.65t-1.74 2.13q-1.68 1.56-3.39 2.4-1.71.84-3.15.84-.96 0-1.77-.75t-.81-1.59q0-.66.36-1.38-.36.66.15-.51t1.26-2.76q.75-1.59 1.41-3.03.3-.66.27-.99-.03-.33-.39.09-5.46 6.12-8.7 8.52-3.24 2.4-5.94 2.4zm3.36-3.78q1.32 0 3.96-2.19 2.64-2.19 5.88-6.09 2.28-2.64 3.6-4.86 1.32-2.22 1.32-3.3 0-.48-.78-1.14-.9-.66-1.5-.66-1.08 0-2.97 1.08-1.89 1.08-3.45 2.58-3.06 3-5.43 6.75-2.37 3.75-2.37 5.79 0 .9.48 1.47t1.26.57zm26.7 3.96q-.42 0-.75-.6t-.33-1.2q0-.54 1.38-4.26l5.52-14.46q.12-.48.12-.72 0-.48-.3-.81-.3-.33-.84-.33-1.08 0-2.04.51t-2.28 2.25q-.18.24-.48.24-.36 0-.42-.48-.06-.54.27-1.53t.75-1.47q2.4-2.94 5.94-3 1.2 0 2.1.51.9.51.9 1.59 0 .6-.24 1.14l-3.42 8.88-.06.24q0 .24.24.24t.36-.24q8.04-12.36 13.62-12.36 1.44 0 2.43.93.99.93.99 2.61 0 1.08-.42 2.28l-2.16 6.3-.06.24q0 .24.24.24t.36-.24q3.72-6.06 7.29-9.21 3.57-3.15 6.57-3.15 1.38 0 2.31.93.93.93.93 2.67 0 1.2-.6 2.76l-5.16 13.32q-.36.96-.36 1.44 0 .72.66.72 1.8 0 6.66-4.86.06-.06.18-.06.18 0 .33.15.15.15.15.39 0 1.02-1.08 2.16-2.4 2.76-4.77 4.41-2.37 1.65-4.95 1.65-.66 0-1.29-.66t-.63-1.5q0-.24.12-.6l6.96-17.94q.18-.54.18-.96 0-.72-.42-1.11-.42-.39-1.02-.39-1.08 0-2.67 1.11-1.59 1.11-3.45 3.39-1.5 1.8-4.17 5.91t-4.41 7.23q-1.5 2.82-2.76 4.26-1.26 1.44-1.98 1.44-.42 0-.75-.51t-.33-1.11q0-.72 1.38-4.44l5.58-15q.18-.54.18-.96 0-.78-.57-1.14-.57-.36-.99-.36-1.02 0-2.61 1.17-1.59 1.17-3.39 3.39-1.44 1.74-4.14 5.91-2.7 4.17-4.44 7.35l-.6 1.14q-1.44 2.64-2.1 3.6-.66.96-1.26.96zm49.32-.18q-2.16 0-3.81-2.07t-1.65-4.71q0-3.84 1.98-8.31 1.98-4.47 5.31-7.53 3.33-3.06 7.11-3.06 2.94 0 4.62 2.01 1.68 2.01 1.68 5.07 0 3.78-1.95 8.16-1.95 4.38-5.46 7.41-3.51 3.03-7.83 3.03zm.96-1.8q2.28 0 4.74-3.15 2.46-3.15 4.08-7.56t1.62-7.77q0-1.74-.57-2.67-.57-.93-2.01-.93-2.22 0-4.68 2.91-2.46 2.91-4.11 7.26-1.65 4.35-1.65 8.19 0 3.72 2.58 3.72zm19.14 1.92q-.6 0-1.11-.69-.51-.69-.51-1.41 0-.18.12-.54l6.96-17.04q.6-1.38.6-2.1 0-.54-.48-.54-1.14 0-2.13.54t-2.31 2.22q-.18.24-.48.24-.36 0-.42-.48t.36-1.41q.42-.93.9-1.59.9-1.38 2.46-2.16 1.56-.78 3.54-.84.84 0 1.47.54t.63 1.38q0 .18-.12.66l-3.96 10.2-.06.24q0 .24.24.24t.36-.24q3.6-6.12 7.41-9.57t6.63-3.45q1.44 0 2.43 1.08.99 1.08.99 2.82 0 1.32-.6 2.7l-5.52 13.08q-.36.96-.36 1.44 0 .72.66.72 1.26 0 3.6-1.59t3.24-2.49q.06-.06.18-.06.18 0 .33.15.15.15.15.39 0 .48-.24.84-2.46 3-5.28 4.8-2.82 1.8-5.52 1.8-.72 0-1.35-.6-.63-.6-.63-1.38 0-.42.12-.66l1.2-2.7q.6-1.32 2.43-5.55 1.83-4.23 3.21-7.77.72-1.98.72-2.94 0-1.56-1.26-1.56-1.02 0-2.58 1.17t-3.42 3.51q-1.44 1.74-4.68 6.75-3.24 5.01-6.06 9.99-.54 1.02-.96 1.44-.42.42-.9.42zm58.8-41.04l-9.72 33.66q-.3 1.08-.3 1.86 0 1.32.84 1.32 1.14 0 2.91-1.23 1.77-1.23 2.97-2.91.24-.3.48-.3.48 0 .36.48 0 1.08-1.71 3.03-1.71 1.95-3.87 3.48t-3.42 1.53q-.96 0-1.8-.84-.84-.84-.84-1.86 0-.3.24-1.56l1.08-4.92q.06-.42-.06-.57-.12-.15-.3.09-4.14 5.22-7.26 7.44-3.12 2.22-6.36 2.22-1.74 0-2.82-1.2-1.08-1.2-1.08-3.12 0-3.36 2.13-7.89 2.13-4.53 5.43-8.25 2.34-2.64 4.74-4.11 2.4-1.47 4.32-1.47.78 0 1.29.21t2.13 1.29q1.44.9 1.5.96l.24-.42 4.02-13.5q.24-.96.24-1.2 0-.66-.36-1.05t-1.32-.75q-1.02-.36-1.41-.51-.39-.15-.39-.33 0-.42.48-.66.48-.24 1.56-.42 4.92-.72 5.58-.72.72 0 .72.84 0 .66-.24 1.38zm-24.54 38.1q2.58 0 6-3.03t5.88-7.2q2.46-4.17 2.46-7.35 0-1.74-.78-2.73t-2.22-.99q-2.22 0-5.4 3.39t-5.58 7.95q-2.4 4.56-2.4 7.68 0 1.32.45 1.8t1.59.48zm36.78 2.28q-1.44 0-1.44-.66 0-.72 2.16-1.08 2.34-.42 3.75-1.44 1.41-1.02 2.01-3L375.68 27q.36-1.2.36-1.92 0-1.02-.66-1.56t-2.16-.84q-.84-.18-1.14-.45-.3-.27-.3-.75 0-.66 1.8-.66 1.56 0 3.48.12l3 .06 2.7-.06q1.8-.12 3.42-.12 1.44 0 1.44.66 0 .84-2.22 1.2-2.28.42-3.48 1.35-1.2.93-1.8 2.97l-8.28 27.12q-.24.78-.24 1.56 0 1.2.81 1.86.81.66 2.49 1.02.84.18 1.17.42.33.24.33.66 0 .66-1.8.66-2.04 0-3.48-.18-1.8-.12-3-.12-1.38 0-3.42.12-1.68.18-3.78.18zm25.32.54q-.78 0-1.62-.78-.84-.78-.84-1.44 0-1.08.36-2.07.36-.99.48-1.29l5.7-16.02.06-.24q0-.48-.66-.48l-2.4-.12q-1.08-.06-1.08-.84 0-.24.66-.84t1.38-.6h2.16q.6 0 .87-.18t.57-.9l1.44-2.94q.36-.72 1.56-1.71 1.2-.99 1.68-.99.3 0 .48.3t.18.78q0 .48-.18.84l-1.56 4.02-.06.24q0 .24.21.33.21.09.63.09 1.62 0 4.5.48.9.18 1.14.36.24.18.24.54 0 .18-.27.42t-.87.3q-3.66.24-5.04.3-1.56.06-1.86.9l-5.34 14.76q-.24.66-.24 1.26 0 1.14 1.32 1.14 1.08 0 2.37-.96t2.79-2.4q.6-.6 1.14-.6.48 0 .48.42 0 .78-1.08 1.98-2.22 2.4-5.13 4.17-2.91 1.77-4.17 1.77zm16.38 0q-1.14 0-2.1-.84-.96-.84-.96-1.8 0-3.18 3.15-7.92t8.25-9.18q6.42-5.64 8.28-5.64.96 0 1.68.84.72 1.02.78 1.02l.3-.48q1.2-2.04 1.02-1.8.36-.6.72-.6.84 0 1.56.42.72.42.72.84 0 .3-.42 1.5l-6.72 17.82q-.24.54-.24 1.02 0 1.02 1.02 1.02 1.08 0 2.61-1.05 1.53-1.05 2.67-2.55.18-.3.54-.3.42 0 .42.66 0 .42-.84 1.65t-1.74 2.13q-1.68 1.56-3.39 2.4-1.71.84-3.15.84-.96 0-1.77-.75t-.81-1.59q0-.66.36-1.38-.36.66.15-.51t1.26-2.76q.75-1.59 1.41-3.03.3-.66.27-.99-.03-.33-.39.09-5.46 6.12-8.7 8.52-3.24 2.4-5.94 2.4zm3.36-3.78q1.32 0 3.96-2.19 2.64-2.19 5.88-6.09 2.28-2.64 3.6-4.86 1.32-2.22 1.32-3.3 0-.48-.78-1.14-.9-.66-1.5-.66-1.08 0-2.97 1.08-1.89 1.08-3.45 2.58-3.06 3-5.43 6.75-2.37 3.75-2.37 5.79 0 .9.48 1.47t1.26.57zm25.56 3.78q-.84 0-1.77-.84t-.93-1.8l.12-.72 11.4-32.46q.6-1.62.6-3.18 0-.54-.57-1.02t-1.41-.66q-1.32-.3-1.32-.78 0-.6.36-.66 1.68-.42 4.32-.84 2.64-.42 3.36-.42.3 0 .51.24.21.24.21.66 0 .6-.36 1.68L433.94 54.6q-.3.84-.3 1.74 0 .96.6.96 1.14 0 3.12-1.83 1.98-1.83 3.3-3.69.42-.54.87-.96.45-.42.69-.42.18 0 .24.24t.06.54q0 1.86-2.01 4.14-2.01 2.28-4.68 3.9t-4.29 1.62zm17.76 0q-.96 0-1.65-.63t-.69-1.41q0-.6.18-.96 2.58-5.22 5.88-13.8.54-1.62 1.26-3.3.06-.12.06-.36 0-.36-.36-.36-.54 0-2.1.75t-2.58 1.53q-.12.12-.42.12-.54 0-.54-.36 0-.6 1.23-1.8 1.23-1.2 3.33-2.58 2.1-1.38 4.5-2.46.48-.24 1.05.09.57.33.9.9.33.57.21.87l-7.32 17.34q-.42.9-.42 1.74 0 .72.96.72 1.08 0 2.55-1.26 1.47-1.26 4.05-3.84.12-.12.24-.12.36 0 .36.3 0 1.26-1.92 3.39t-4.47 3.81q-2.55 1.68-4.29 1.68zm12.12-31.62q-.9 0-1.5-.72t-.6-1.62q0-1.5.96-2.58t2.4-1.08q.9 0 1.47.78t.57 1.8q0 1.38-.99 2.4t-2.31 1.02zm6.3 31.68q-1.08 0-2.28-.81-1.2-.81-1.98-2.22-.78-1.41-.78-3.15 0-3.9 1.89-8.49T470 38.4q3.54-3.24 8.34-3.24 1.56 0 2.43.57.87.57.87 1.35 0 1.02-.6 1.98t-1.2.96q-.42 0-.72-.36t-.72-1.08q-.42-.84-.99-1.32-.57-.48-1.47-.48-1.86 0-3.96 2.91-2.1 2.91-3.54 7.05T467 54.12q0 1.86.75 2.64t2.13.78q1.74 0 2.79-.6t2.55-1.98l.33-.33q.27-.27.45-.36.18-.09.42-.09.48 0 .48.78 0 .72-1.38 2.19t-3.48 2.61q-2.1 1.14-4.32 1.14z"/></svg>