<svg viewBox="0 0 664 80" xmlns="http://www.w3.org/2000/svg"><path d="M17.1 60.3q-.54 0-.84-.3-.3-.3-.3-.66 0-.36.33-.72t.87-.54q2.1-.6 2.85-1.32.75-.72.75-2.46V26.94q0-1.92-.72-2.73t-2.88-1.29q-1.26-.3-1.26-1.26 0-.42.33-.69.33-.27.87-.27 2.16 0 4.5.18 3 .12 4.14.12 8.04 0 13.98-.18 1.86 0 3.15-.24 1.29-.24 1.47-.24.54 0 1.02.3t.54.96q.18 1.98.54 3.66.48 3.36.48 4.44 0 .54-.21.87-.21.33-.57.33t-.69-.27q-.33-.27-.57-.75-.9-2.22-1.32-3.06-.42-.84-1.02-1.44-.84-.84-1.86-1.38-1.02-.54-2.52-.54h-3.78q-1.5 0-2.46.75t-.96 2.01v11.04q0 1.44 1.56 1.44h5.1q1.38 0 2.07-.9t1.41-2.82q.48-1.08 1.26-1.08.3 0 .54.39.24.39.18.99-.3 2.88-.3 4.98 0 2.58.24 4.98v.48q0 1.2-.6 1.2-.42 0-.84-.42t-.6-1.02q-.54-2.04-1.26-3t-1.8-.96h-5.64q-1.32 0-1.32 1.38v11.34q0 1.62.69 2.34.69.72 2.25.72h5.34q2.76 0 4.38-1.38 1.74-1.44 3.42-4.8.36-.72 1.14-.72.6 0 .6 1.2 0 1.08-.3 2.34-.3 1.26-.96 3.3l-.66 2.28q-.24.72-1.44.72l-2.34-.06Q31.38 60 25.74 60q-2.04 0-4.38.18-3.12.12-4.26.12zm34.62 0q-.54 0-.84-.3-.3-.3-.3-.66 0-.36.33-.72t.87-.54q2.1-.6 2.85-1.32.75-.72.75-2.46V26.94q0-1.92-.72-2.73t-2.88-1.29q-1.26-.3-1.26-1.26 0-.42.33-.69.33-.27.87-.27 2.16 0 4.8.24 2.4.24 3.78.24 1.2 0 3.48-.24 2.88-.36 5.46-.36 7.38 0 11.01 2.07t3.63 6.87q0 1.8-.87 3.45-.87 1.65-2.37 2.91-1.98 1.68-4.44 2.22-.24.06-.24.3t.24.3q4.2.78 7.02 2.88 2.82 2.1 2.82 6.78 0 3.12-.99 5.1-.99 1.98-2.28 3-1.29 1.02-3.09 1.92-3.9 1.86-10.5 1.86-1.5 0-4.38-.12T60.36 60q-1.98 0-4.44.18-3 .12-4.2.12zm16.2-22.38q1.44 0 2.52-.36t2.1-1.26q.6-.6 1.17-1.95t.57-3.45q0-3.96-1.41-5.73-1.41-1.77-4.23-1.77-3.06 0-3.06 2.52v9.9q0 .96.75 1.53.75.57 1.59.57zM69 56.76q1.68 0 3.09-1.05t2.25-2.85q.84-1.8.84-4.02 0-4.5-2.7-6.72-.54-.48-1.68-.9-1.14-.42-2.58-.42-.96 0-1.8.48-.84.48-.84 1.44v10.32q0 1.8.9 2.76.9.96 2.52.96zm55.98 4.08q-5.82 0-10.65-2.49t-7.62-6.99q-2.79-4.5-2.79-10.26 0-5.46 2.79-10.29 2.79-4.83 7.98-7.74t12.03-2.91q2.46 0 6.21.66t5.85 1.5q1.14.48 1.32 1.62.72 4.92.72 7.26 0 .6-.27.9-.27.3-.75.3-.66 0-1.02-.3t-.66-.9q-1.56-3.36-3.12-4.92-1.32-1.32-3-2.07-1.68-.75-4.2-.75-4.08 0-7.02 2.19-2.94 2.19-4.41 5.82-1.47 3.63-1.47 7.89 0 8.46 2.73 13.26 2.73 4.8 8.37 4.8 1.56 0 3.42-1.32.6-.42.93-1.41.33-.99.39-2.31.12-2.04.12-5.28 0-1.56-1.56-2.16-1.8-.72-3.42-1.08-.6-.18-1.05-.54-.45-.36-.45-.84 0-.42.39-.66.39-.24.93-.24 2.28 0 4.98.18 3.48.12 4.56.12 1.14 0 3.78-.12 2.76-.12 4.08-.12.96 0 .96.9 0 .54-.27.84-.27.3-.87.42-1.74.48-2.4 1.08-.66.6-.9 1.86-.42 2.04-.42 4.5v2.04q0 .36.39.75l.45.45q.6.6.6 1.32 0 .48-.3.87t-.96.45q-.42.06-1.68.66-2.7 1.26-5.7 2.16-3 .9-7.02.9zm28.38 0q-2.64 0-4.47-1.65-1.83-1.65-1.83-3.99 0-2.04 1.29-3.48t3.99-2.64l5.16-2.28q1.2-.54 1.5-.96.3-.42.3-1.62l.06-3.3q.12-3.6-2.4-3.6-.72 0-1.5.33t-1.14.75q-.3.36-.3 1.14 0 .42.06.93t.06.93q0 .6-2.1 1.53t-3.54.93q-.48 0-.81-.39-.33-.39-.33-.99 0-.96.66-1.86.66-.9 2.22-2.16 2.4-1.92 5.43-3.27t5.07-1.35q3.42 0 5.43 2.19t1.95 5.85l-.3 11.64q-.06 1.38.45 2.37.51.99 1.29.99 1.08 0 1.92-.78.18-.18.36-.18.3 0 .51.21.21.21.21.51 0 .72-1.2 1.92-2.28 2.28-5.22 2.28-1.86 0-3.24-.84-1.38-.84-2.58-2.64h-.12q-1.98 1.92-3.54 2.7-1.56.78-3.3.78zm3.72-4.14q.96 0 1.56-.78.36-.48.36-1.38l.18-4.62q0-.84-.6-.84-.24 0-.6.18-1.68.9-2.31 1.74-.63.84-.63 2.76 0 1.56.6 2.25t1.44.69zm17.58 3.48q-.48 0-.84-.27t-.36-.63q0-.84 1.38-1.26 1.32-.42 1.77-.87.45-.45.45-1.41V41.76q0-1.26-.33-1.95t-1.29-.99q-.42-.12-.63-.36-.21-.24-.21-.78 0-.9.78-1.08 2.16-.48 4.56-1.26 2.4-.78 4.08-1.56 1.14-.66 1.5-.66.6 0 .6.72l-.06 1.8-.12 3q0 .6.24.6 1.62-2.22 3.66-3.84 2.04-1.62 4.14-1.62 4.02 0 4.02 3 0 1.56-1.2 3.27t-2.52 1.71q-.54 0-1.2-.27-.66-.27-1.32-.63-1.68-.84-2.28-.84-1.74 0-2.73 1.29t-.99 4.53v9.24q0 1.26.69 1.86.69.6 2.43 1.14 1.32.36 1.32 1.2 0 .36-.27.63t-.69.27q-1.98 0-4.08-.18-2.64-.12-3.6-.12t-3.24.12q-1.8.18-3.66.18zm31.44.66q-2.64 0-4.47-1.65-1.83-1.65-1.83-3.99 0-2.04 1.29-3.48t3.99-2.64l5.16-2.28q1.2-.54 1.5-.96.3-.42.3-1.62l.06-3.3q.12-3.6-2.4-3.6-.72 0-1.5.33t-1.14.75q-.3.36-.3 1.14 0 .42.06.93t.06.93q0 .6-2.1 1.53t-3.54.93q-.48 0-.81-.39-.33-.39-.33-.99 0-.96.66-1.86.66-.9 2.22-2.16 2.4-1.92 5.43-3.27t5.07-1.35q3.42 0 5.43 2.19t1.95 5.85l-.3 11.64q-.06 1.38.45 2.37.51.99 1.29.99 1.08 0 1.92-.78.18-.18.36-.18.3 0 .51.21.21.21.21.51 0 .72-1.2 1.92-2.28 2.28-5.22 2.28-1.86 0-3.24-.84-1.38-.84-2.58-2.64h-.12q-1.98 1.92-3.54 2.7-1.56.78-3.3.78zm3.72-4.14q.96 0 1.56-.78.36-.48.36-1.38l.18-4.62q0-.84-.6-.84-.24 0-.6.18-1.68.9-2.31 1.74-.63.84-.63 2.76 0 1.56.6 2.25t1.44.69zm17.58 3.48q-.42 0-.81-.27-.39-.27-.39-.63 0-.78 1.38-1.26 1.14-.36 1.68-.78.54-.42.54-1.5V41.82q0-2.82-1.74-3.12-.72-.12-.72-1.14 0-.9.66-1.08 7.02-1.74 9.6-3.18.6-.36.78-.36.6 0 .6.72l-.12 1.32q-.18 2.16-.18 2.22 0 .6.12.72h.12q2.04-1.98 4.17-3.03 2.13-1.05 4.65-1.05 1.74 0 3.36 1.35 1.62 1.35 2.34 3.39h.3q3.72-4.74 8.94-4.74 2.88 0 4.83 2.31 1.95 2.31 1.95 6.33V55.8q0 1.08.51 1.47.51.39 1.71.75 1.2.42 1.2 1.26 0 .36-.33.63t-.69.27q-1.86 0-3.6-.18-2.16-.12-3.12-.12-.9 0-2.82.12-1.44.18-3.18.18-.36 0-.66-.27-.3-.27-.3-.63 0-.84 1.14-1.26.78-.24 1.11-.6.33-.36.33-1.2V43.98q0-2.16-.81-3.42-.81-1.26-2.19-1.32-.66 0-1.5.36t-1.62 1.02q-.36.36-.51.81-.15.45-.15 1.29V55.8q0 1.14.33 1.53.33.39 1.29.69 1.2.42 1.2 1.26 0 .36-.33.63t-.69.27q-1.8 0-3.24-.18-1.92-.12-2.88-.12-.9 0-2.82.12-1.44.18-3.18.18-.36 0-.66-.27-.3-.27-.3-.63 0-.84 1.14-1.26.78-.24 1.11-.6.33-.36.33-1.2V43.98q0-2.16-.78-3.39t-2.16-1.29q-1.5 0-3.24 1.26-.6.42-.6 1.92V55.8q0 1.08.27 1.53.27.45 1.17.69 1.14.42 1.14 1.26 0 .36-.3.63t-.66.27q-1.8 0-3.24-.18-1.8-.12-2.82-.12-.96 0-3.12.12-1.68.18-3.54.18zm60.66.66q-3.6 0-6.6-1.62-3-1.62-4.71-4.53t-1.71-6.51q0-3.9 1.92-7.2 1.92-3.3 5.19-5.25 3.27-1.95 7.23-1.95 3.66 0 6.75 1.74t4.89 4.65q1.8 2.91 1.8 6.27 0 4.02-1.68 7.29-1.68 3.27-5.01 5.19-3.33 1.92-8.07 1.92zm1.14-2.82q2.1 0 3.18-1.74 1.32-2.22 1.32-8.4 0-4.98-1.44-8.13-1.44-3.15-3.78-3.15-1.56 0-2.58 1.02t-1.41 3.21q-.39 2.19-.39 5.85 0 2.88.66 5.49.66 2.61 1.83 4.23 1.17 1.62 2.61 1.62zm17.28 2.16q-.42 0-.81-.27-.39-.27-.39-.63 0-.78 1.38-1.26 1.14-.36 1.68-.78.54-.42.54-1.5V41.82q0-2.82-1.8-3.12-.24-.06-.45-.36-.21-.3-.21-.78 0-.9.6-1.08 2.28-.54 4.92-1.35t4.32-1.65q.12-.06.54-.3.42-.24.66-.24.6 0 .6.78l-.12 1.26q-.18 1.98-.18 2.1 0 .78.12.9 2.28-2.1 4.26-3.12t4.56-1.02q3.3 0 5.4 2.34 2.1 2.34 2.1 6.3V55.8q0 1.08.51 1.47.51.39 1.71.75 1.2.42 1.2 1.26 0 .36-.33.63t-.69.27q-1.86 0-3.6-.18-2.16-.12-3.12-.12-1.02 0-3.06.12-1.68.18-3.54.18-.36 0-.66-.27-.3-.27-.3-.63 0-.84 1.14-1.26 1.14-.36 1.59-.75.45-.39.45-1.47V43.98q0-2.22-.96-3.48-.96-1.26-2.52-1.26-1.08 0-1.98.33-.9.33-1.98 1.05-.48.3-.48 1.08v14.1q0 1.08.45 1.44.45.36 1.59.78 1.14.42 1.14 1.26 0 .36-.3.63t-.66.27q-1.8 0-3.42-.18-2.04-.12-3-.12t-3.24.12q-1.8.18-3.66.18zm64.44-3.9h.24q.3 0 .42.12t.12.54q0 .48-.39 1.05-.39.57-.69.57-5.16.6-9.54 2.22-.72.36-1.08.36-.18 0-.54-.42-.36-.42-.36-.66.24-1.32.36-3.12v-.36q-1.32 1.98-3.48 3.12-2.16 1.14-4.5 1.14-3.24 0-5.94-1.65t-4.23-4.53q-1.53-2.88-1.53-6.42 0-4.14 1.86-7.38t5.16-5.04q3.3-1.8 7.56-1.8 1.74 0 3.54.48l.78.18q.24 0 .24-.66v-6.78q0-2.16-.48-3.12t-1.74-1.2q-.72-.18-.72-.96t.66-.9q2.16-.42 4.71-1.23t4.23-1.53q1.32-.6 1.56-.6.3 0 .51.21.21.21.21.51-.06.24-.15 1.23t-.15 2.07l-.36 30.96q0 2.1.3 2.94.3.84 1.08.84l2.34-.18zm-3.06-37.86v.06-.06zm-13.08 38.1q.9 0 2.16-.42 1.26-.42 1.98-1.14l-.06-13.86q0-.84-.78-1.83-.78-.99-1.95-1.65-1.17-.66-2.13-.66-2.16 0-3.57 2.7-1.41 2.7-1.41 6.9 0 4.38 1.62 7.17t4.14 2.79zm34.32 3.78q-.54 0-.84-.3-.3-.3-.3-.66 0-.36.33-.72t.87-.54q2.1-.6 2.85-1.32.75-.72.75-2.46V26.94q0-1.92-.72-2.73t-2.88-1.29q-1.26-.3-1.26-1.26 0-.42.33-.69.33-.27.87-.27 2.16 0 4.5.18 3 .12 4.14.12 8.04 0 13.98-.18 1.86 0 3.15-.24 1.29-.24 1.47-.24.54 0 1.02.3t.54.96q.18 1.98.54 3.66.48 3.36.48 4.44 0 .54-.21.87-.21.33-.57.33t-.69-.27q-.33-.27-.57-.75-.9-2.22-1.32-3.06-.42-.84-1.02-1.44-.84-.84-1.86-1.38-1.02-.54-2.52-.54h-3.78q-1.5 0-2.46.75t-.96 2.01v11.04q0 1.44 1.56 1.44h5.1q1.38 0 2.07-.9t1.41-2.82q.48-1.08 1.26-1.08.3 0 .54.39.24.39.18.99-.3 2.88-.3 4.98 0 2.58.24 4.98v.48q0 1.2-.6 1.2-.42 0-.84-.42t-.6-1.02q-.54-2.04-1.26-3t-1.8-.96h-5.64q-1.32 0-1.32 1.38v11.34q0 1.62.69 2.34.69.72 2.25.72h5.34q2.76 0 4.38-1.38 1.74-1.44 3.42-4.8.36-.72 1.14-.72.6 0 .6 1.2 0 1.08-.3 2.34-.3 1.26-.96 3.3l-.66 2.28q-.24.72-1.44.72l-2.34-.06q-11.7-.18-17.34-.18-2.04 0-4.38.18-3.12.12-4.26.12zm34.32-.06q-1.5 0-1.5-.72 0-.54.24-.81t.84-.51q.66-.24 1.32-.84t1.74-2.1l5.76-7.8q.36-.48.36-.78 0-.3-.3-.78l-4.44-6.48q-1.02-1.56-1.56-2.19-.54-.63-1.44-.93-.6-.24-.84-.51t-.24-.81q0-.72 1.5-.72 1.08 0 2.01.09.93.09 1.29.09 1.26.18 2.94.18t3.12-.18q3.06-.18 3.6-.18t.99.21q.45.21.45.63 0 .36-.24.57-.24.21-.63.36t-.57.21q-.84.3-1.29.63-.45.33-.45.93 0 .6.78 1.8l2.76 4.02q.12.18.27.21.15.03.27-.21l1.56-2.88q.9-1.74.84-2.94 0-1.02-1.14-1.44-.12-.06-.48-.21t-.54-.36q-.18-.21-.18-.57 0-.42.45-.63.45-.21.99-.21l4.08.06q1.08 0 1.98-.06l1.86-.12q1.5 0 1.5.72 0 .54-.24.81t-.84.51q-.6.24-1.26.84t-1.8 2.1L442.5 45q-.42.6-.42.96 0 .3.36.84l4.86 7.56q.84 1.26 1.95 2.25 1.11.99 2.19 1.41.6.24.84.51t.24.81q0 .72-1.5.72-1.08 0-2.22-.09-1.14-.09-1.62-.09-1.68-.18-3.48-.18-1.74 0-3.36.18-.54 0-1.71.09t-2.19.09q-.72 0-1.08-.24-.36-.24-.36-.6 0-.48.3-.69.3-.21 1.02-.45.84-.24 1.29-.78.45-.54.45-1.68 0-.72-.15-1.2t-.63-1.2l-2.94-4.2q-.06-.06-.18-.06t-.18.06l-2.58 4.74q-.96 1.62-.96 2.64 0 1.38 1.14 1.86.18.06.57.21.39.15.57.36.18.21.18.57 0 .42-.45.63-.45.21-.99.21l-2.4-.06q-.54-.06-1.38-.06-1.92 0-4.26.12zm43.02.6q-4.14 0-6.21-2.01-2.07-2.01-2.07-5.79v-13.8q0-.54-.42-.78t-1.44-.3h-.9q-.36 0-.69-.72-.33-.72-.33-1.38 0-.42.36-.54 3.18-1.02 9.48-6.42.12-.06.45-.33t.6-.39q.27-.12.57-.12.6 0 .81.27.21.27.15 1.05l-.42 3.72q-.18 1.32 1.5 1.32h7.2q.12 0 .3.42t.18.72q0 .96-.24 1.77t-.54.81h-5.52q-1.26 0-1.83.36-.57.36-.57 1.14v11.22q0 2.76 1.02 4.14t2.82 1.38q1.2 0 1.92-.18t1.23-.42q.51-.24.75-.36t.42-.12q.3 0 .48.39t.18.93q0 .42-1.41 1.41t-3.54 1.8q-2.13.81-4.29.81zm12.12-.66q-.48 0-.84-.27t-.36-.63q0-.84 1.38-1.26 1.32-.42 1.77-.87.45-.45.45-1.41V41.76q0-1.26-.33-1.95t-1.29-.99q-.42-.12-.63-.36-.21-.24-.21-.78 0-.9.78-1.08 2.16-.48 4.56-1.26 2.4-.78 4.08-1.56 1.14-.66 1.5-.66.6 0 .6.72l-.06 1.8-.12 3q0 .6.24.6 1.62-2.22 3.66-3.84 2.04-1.62 4.14-1.62 4.02 0 4.02 3 0 1.56-1.2 3.27t-2.52 1.71q-.54 0-1.2-.27-.66-.27-1.32-.63-1.68-.84-2.28-.84-1.74 0-2.73 1.29t-.99 4.53v9.24q0 1.26.69 1.86.69.6 2.43 1.14 1.32.36 1.32 1.2 0 .36-.27.63t-.69.27q-1.98 0-4.08-.18-2.64-.12-3.6-.12t-3.24.12q-1.8.18-3.66.18zm31.44.66q-2.64 0-4.47-1.65-1.83-1.65-1.83-3.99 0-2.04 1.29-3.48t3.99-2.64l5.16-2.28q1.2-.54 1.5-.96.3-.42.3-1.62l.06-3.3q.12-3.6-2.4-3.6-.72 0-1.5.33t-1.14.75q-.3.36-.3 1.14 0 .42.06.93t.06.93q0 .6-2.1 1.53t-3.54.93q-.48 0-.81-.39-.33-.39-.33-.99 0-.96.66-1.86.66-.9 2.22-2.16 2.4-1.92 5.43-3.27t5.07-1.35q3.42 0 5.43 2.19t1.95 5.85l-.3 11.64q-.06 1.38.45 2.37.51.99 1.29.99 1.08 0 1.92-.78.18-.18.36-.18.3 0 .51.21.21.21.21.51 0 .72-1.2 1.92-2.28 2.28-5.22 2.28-1.86 0-3.24-.84-1.38-.84-2.58-2.64h-.12q-1.98 1.92-3.54 2.7-1.56.78-3.3.78zm3.72-4.14q.96 0 1.56-.78.36-.48.36-1.38l.18-4.62q0-.84-.6-.84-.24 0-.6.18-1.68.9-2.31 1.74-.63.84-.63 2.76 0 1.56.6 2.25t1.44.69zM531 60.3q-.54 0-.84-.3-.3-.3-.3-.66 0-.36.33-.72t.87-.54q2.1-.6 2.85-1.32.75-.72.75-2.46V26.94q0-1.92-.72-2.73t-2.88-1.29q-1.26-.3-1.26-1.26 0-.42.33-.69.33-.27.87-.27 2.16 0 4.8.24 2.4.24 3.78.24 1.2 0 3.48-.24 2.88-.36 5.46-.36 7.38 0 11.01 2.07t3.63 6.87q0 1.8-.87 3.45-.87 1.65-2.37 2.91-1.98 1.68-4.44 2.22-.24.06-.24.3t.24.3q4.2.78 7.02 2.88 2.82 2.1 2.82 6.78 0 3.12-.99 5.1-.99 1.98-2.28 3-1.29 1.02-3.09 1.92-3.9 1.86-10.5 1.86-1.5 0-4.38-.12t-4.44-.12q-1.98 0-4.44.18-3 .12-4.2.12zm16.2-22.38q1.44 0 2.52-.36t2.1-1.26q.6-.6 1.17-1.95t.57-3.45q0-3.96-1.41-5.73-1.41-1.77-4.23-1.77-3.06 0-3.06 2.52v9.9q0 .96.75 1.53.75.57 1.59.57zm1.08 18.84q1.68 0 3.09-1.05t2.25-2.85q.84-1.8.84-4.02 0-4.5-2.7-6.72-.54-.48-1.68-.9-1.14-.42-2.58-.42-.96 0-1.8.48-.84.48-.84 1.44v10.32q0 1.8.9 2.76.9.96 2.52.96zm33 4.08q-3.6 0-6.6-1.62-3-1.62-4.71-4.53t-1.71-6.51q0-3.9 1.92-7.2 1.92-3.3 5.19-5.25 3.27-1.95 7.23-1.95 3.66 0 6.75 1.74t4.89 4.65q1.8 2.91 1.8 6.27 0 4.02-1.68 7.29-1.68 3.27-5.01 5.19-3.33 1.92-8.07 1.92zm1.14-2.82q2.1 0 3.18-1.74 1.32-2.22 1.32-8.4 0-4.98-1.44-8.13-1.44-3.15-3.78-3.15-1.56 0-2.58 1.02t-1.41 3.21q-.39 2.19-.39 5.85 0 2.88.66 5.49.66 2.61 1.83 4.23 1.17 1.62 2.61 1.62zm16.98 2.16q-.6 0-.9-.24-.3-.24-.3-.66 0-.78 1.38-1.26.18-.06.87-.3t1.02-.69q.33-.45.33-1.29v-28.5q0-1.86-.45-2.94-.45-1.08-1.83-1.38-.66-.12-.66-.96 0-.78.6-.9 2.28-.42 5.31-1.53t3.39-1.23l1.14-.42q.54-.18.84-.18.66 0 .66.78l-.12 1.38-.18 1.86v33.9q0 1.02.42 1.44.42.42 1.02.6.6.18.78.24 1.38.48 1.38 1.26 0 .42-.3.66-.3.24-.9.24-1.32 0-3.72-.12l-3.24-.06q-1.02 0-3.06.12-1.62.18-3.48.18zm48-3.9h.24q.3 0 .42.12t.12.54q0 .48-.39 1.05-.39.57-.69.57-5.16.6-9.54 2.22-.72.36-1.08.36-.18 0-.54-.42-.36-.42-.36-.66.24-1.32.36-3.12v-.36q-1.32 1.98-3.48 3.12-2.16 1.14-4.5 1.14-3.24 0-5.94-1.65t-4.23-4.53q-1.53-2.88-1.53-6.42 0-4.14 1.86-7.38t5.16-5.04q3.3-1.8 7.56-1.8 1.74 0 3.54.48l.78.18q.24 0 .24-.66v-6.78q0-2.16-.48-3.12t-1.74-1.2q-.72-.18-.72-.96t.66-.9q2.16-.42 4.71-1.23t4.23-1.53q1.32-.6 1.56-.6.3 0 .51.21.21.21.21.51-.06.24-.15 1.23t-.15 2.07l-.36 30.96q0 2.1.3 2.94.3.84 1.08.84l2.34-.18zm-3.06-37.86v.06-.06zm-13.08 38.1q.9 0 2.16-.42 1.26-.42 1.98-1.14l-.06-13.86q0-.84-.78-1.83-.78-.99-1.95-1.65-1.17-.66-2.13-.66-2.16 0-3.57 2.7-1.41 2.7-1.41 6.9 0 4.38 1.62 7.17t4.14 2.79z"/></svg>