<svg viewBox="0 0 324 80" xmlns="http://www.w3.org/2000/svg"><path d="M34.83 22.6v-4.8l2.76-4.8h6.94l-2.82 4.8H63v10.33l-7.77 3.34L63 34.86v5.43l-14.09-6.06-14.08 6.06v-5.43l7.77-3.39-7.77-3.34v-5.48l14.08 6.11 8.09-3.5V22.6H34.83zM21.57 59.23v-43.2h4.8v43.2h1.83v-38.4H33v43.2H21.57v-.06q-2.76-.2-4.67-2.29-1.9-2.09-1.9-4.85v-36h4.8v38.4h1.77zm24.32-17.01v-4.8h6v4.8H63v4.8H51.89v1.82H63v4.8H51.89v1.78H63v4.8H51.89V67h-6v-6.78H34.83v-4.8h11.06v-1.78H34.83v-4.8h11.06v-1.82H34.83v-4.8h11.06zM77.03 22.6v-4.8h19.88L94.15 13h6.94l2.76 4.8H123v4.8H83.03v37.51q0 3.81-1.87 6.89H75q2.03-3.03 2.03-6.89V22.6zM177 13h6v47.11q0 1.57-.47 3.42-.47 1.85-1.46 3.47h-6.1q2.03-3.08 2.03-6.89V17.8h-14.4v11.43h14.24l-2.76 4.8H162.6v10.74h14.24l-2.76 4.8H162.6v10.54q0 1.57-.47 3.42-.47 1.85-1.46 3.47h-6.1q2.03-3.08 2.03-6.89V13H177zm-28.17 50.97h-6.63q-2.97 0-5.09-2.11-2.11-2.11-2.11-5.09v-40.8h19.77v48h-5.94zm-7.78-43.2H141v16.8h7.83l-2.77 4.8h-5.01v16.8h7.83v-38.4h-7.83zm53.9 1.83v-4.8l2.76-4.8h6.89l-2.77 4.8h11.8v4.8h-18.68zm6.36 17.37V32.2h-6.36v-4.8h18.73v4.8h-6.37v7.77h6.37v4.8h-6.37v15.34q0 3.81 2.04 6.89h-6.11q-1.93-3.03-1.93-6.89V44.77h-6.36v-4.8h6.36zM215.45 67l6.47-22.28h.05q-2.66-.21-4.56-2.27-1.91-2.06-1.91-4.88V17.8h2.77L215.5 13h6.94l2.72 4.8h8.14l2.76-4.8h6.89l-2.77 4.8H243v22.17h.05v4.8h-3.7V62.2H243V67h-2.45q-2.98 0-5.09-2.11-2.11-2.12-2.11-5.09V44.77h-5.06L221.82 67h-6.37zm21.5-27.03V22.6H221.4v17.37h15.55zm31.82-17.63v-4.8h14.14v-4.8h6v4.8H303v4.8h-14.09v30h4.65v4.8h-4.65v9.6h-6v-9.6h-4.64v-4.8h4.64v-30h-14.14zm-1.87-9.6l-5.22 19.2h2.29v34.8h-6v-34.8H255l5.17-19.2h6.73zm28.07 44.14V25.37h6v31.51q0 3.81 2.03 6.89h-6.16q-1.87-3.14-1.87-6.89zm-24.16-31.51h6v31.51q0 3.75-1.88 6.89h-6.16q2.04-3.08 2.04-6.89V25.37z"/></svg>