<svg viewBox="0 0 394 80" xmlns="http://www.w3.org/2000/svg"><path d="M20.86 18.02H44.5q1.38 0 2.07.09t1.56.57q.87.48 1.23 1.62.36 1.14.36 3.06 0 1.92-.36 3.06-.36 1.14-1.26 1.59-.9.45-1.59.54-.69.09-2.13.09H26.02v6.06h11.82q1.44 0 2.13.09t1.59.57q1.56.9 1.56 4.74 0 4.2-2.28 4.98-.96.3-3.06.3H26.02v11.34q0 1.44-.09 2.1-.09.66-.57 1.56Q24.52 62 20.68 62q-4.2 0-4.92-2.28-.36-.96-.36-3.06V23.3q0-3.06 1.14-4.17 1.14-1.11 4.32-1.11zM71.5 30.74q1.14.36 1.89 1.23t.75 2.79q0 1.92-1.14 4.2-1.14 2.28-3.3 2.28-1.08 0-2.07-.48-.99-.48-2.61-.48-1.62 0-3.03 1.14-1.41 1.14-1.41 2.76v12.6q0 1.38-.09 2.07t-.57 1.59Q59.02 62 55.24 62q-2.88 0-4.14-1.02-.96-.84-1.08-2.58V35.6q0-1.38.09-2.07t.51-1.53q.84-1.62 4.68-1.62 3.6 0 4.5 1.38.66.96.66 1.98.3-.42.87-1.02.57-.6 2.43-1.62 1.86-1.02 3.27-1.02t2.37.15q.96.15 2.1.51zm34.62 11.67q0 3.69-1.83 5.46t-4.05 1.77H86.02q0 1.68 1.98 2.82t3.96 1.14q3.48 0 5.46-.72l.66-.24q1.44-.66 2.4-.66 1.92 0 3.3 2.7.78 1.62.78 2.76 0 5.34-12.78 5.34-4.44 0-7.89-1.53-3.45-1.53-5.37-4.05-3.78-4.86-3.78-10.86 0-7.56 4.89-12.09t12.21-4.53q8.34 0 12.24 5.88 2.04 3.12 2.04 6.81zM85.9 44.18h7.56q2.28 0 2.28-1.92 0-1.38-1.05-2.22-1.05-.84-3-.84t-3.87 1.59q-1.92 1.59-1.92 3.39zm45.33-26.97q.45-.87 1.59-1.23 1.14-.36 3.03-.36t3.03.36q1.14.36 1.59 1.26.45.9.54 1.59.09.69.09 2.07v35.82q0 1.38-.09 2.07t-.57 1.53q-.9 1.62-5.07 1.62T130.72 59q-2.52 2.88-7.02 2.88-5.4 0-9.84-4.71-4.44-4.71-4.44-10.98 0-6.27 4.47-11.01t9.81-4.74q4.44 0 6.9 3v-12.6q0-1.38.09-2.07t.54-1.56zm-9.75 32.61q1.56 1.62 3.78 1.62 2.22 0 3.69-1.62 1.47-1.62 1.47-3.57 0-1.95-1.41-3.63t-3.81-1.68q-2.4 0-3.84 1.65t-1.44 3.63q0 1.98 1.56 3.6zm23.52-3.6q0-7.2 5.04-11.88 5.04-4.68 11.52-4.68 6.48 0 11.46 4.65T178 46.16q0 4.98-2.58 8.85-2.58 3.87-6.27 5.7-3.69 1.83-7.65 1.83-3.96 0-7.68-1.95-3.72-1.95-6.27-5.76-2.55-3.81-2.55-8.61zm12.54 4.29q1.92 1.47 3.9 1.47t3.96-1.5q1.98-1.5 1.98-4.44 0-2.94-1.86-4.38t-4.02-1.44q-2.16 0-4.02 1.5-1.86 1.5-1.86 4.41t1.92 4.38zm48.9-9.39l-5.94 5.04 7.98 6.6q1.5 1.26 1.89 1.92.39.66.39 1.26 0 1.44-1.86 3.9-2.04 2.52-3.6 2.52-1.32 0-3.66-1.74l-.6-.42q-1.38-1.14-4.26-3.99-2.88-2.85-4.38-4.05v4.62q0 1.38-.09 2.07t-.57 1.59q-.78 1.56-4.62 1.56-3.78 0-4.62-1.62-.42-.9-.51-1.59-.09-.69-.09-2.07V20.78q0-1.38.09-2.07t.51-1.59q.84-1.62 4.68-1.62 2.88 0 4.08 1.02 1.02.84 1.08 2.64.06.54.06 1.68v19.02q1.08-.9 3.27-3.06t3.27-3.06l.72-.48q2.1-1.62 3.6-1.62t3.45 2.43q1.95 2.43 1.95 3.81t-2.22 3.24zm26.34-7.38q.36-3.36 4.74-3.36 2.34 0 3.48.36 1.14.36 1.59 1.26.45.9.54 1.59.09.69.09 2.07v21q0 1.38-.09 2.07t-.51 1.59q-.84 1.56-4.11 1.56-3.27 0-4.38-.81-1.11-.81-1.29-2.37-2.22 3.18-7.41 3.18-5.19 0-9.63-4.74t-4.44-11.01q0-6.27 4.47-10.98 4.47-4.71 9.81-4.71 2.04 0 3.72.72 1.68.72 2.34 1.35.66.63 1.08 1.23zm-10.92 12.48q0 1.98 1.56 3.57 1.56 1.59 3.78 1.59 2.22 0 3.69-1.62 1.47-1.62 1.47-3.57 0-1.95-1.41-3.63t-3.78-1.68q-2.37 0-3.84 1.68-1.47 1.68-1.47 3.66zm61.98-28.74q8.88 0 15.42 6.42 6.54 6.42 6.54 15.93t-6.24 16.2q-6.24 6.69-15.36 6.69t-15.51-6.6q-6.39-6.6-6.39-15.72 0-4.98 1.8-9.33t4.8-7.29q3-2.94 6.9-4.62 3.9-1.68 8.04-1.68zM272.92 40.1q0 5.34 3.45 8.67t7.71 3.33q4.26 0 7.68-3.24t3.42-8.7q0-5.46-3.45-8.76t-7.71-3.3q-4.26 0-7.68 3.33t-3.42 8.67zm54.36-9.72q6 0 9.99 4.59t3.99 11.19v10.56q0 1.38-.09 2.07t-.51 1.53q-.84 1.62-4.68 1.62-4.26 0-4.92-2.22-.36-1.02-.36-3.06V46.1q0-2.46-1.41-3.84t-3.78-1.38q-2.37 0-3.84 1.44-1.47 1.44-1.47 3.78v10.62q0 1.38-.09 2.07t-.57 1.53q-.78 1.62-4.62 1.62-3.78 0-4.62-1.62-.42-.9-.51-1.59-.09-.69-.09-2.07V35.42q0-1.32.09-2.01.09-.69.57-1.53.84-1.5 4.62-1.5 3.66 0 4.5 1.38.6 1.02.6 2.46.24-.42 1.08-1.2.84-.78 1.62-1.26 2.04-1.38 4.5-1.38zm49.26 12.03q0 3.69-1.83 5.46t-4.05 1.77h-14.22q0 1.68 1.98 2.82t3.96 1.14q3.48 0 5.46-.72l.66-.24q1.44-.66 2.4-.66 1.92 0 3.3 2.7.78 1.62.78 2.76 0 5.34-12.78 5.34-4.44 0-7.89-1.53-3.45-1.53-5.37-4.05-3.78-4.86-3.78-10.86 0-7.56 4.89-12.09t12.21-4.53q8.34 0 12.24 5.88 2.04 3.12 2.04 6.81zm-20.22 1.77h7.56q2.28 0 2.28-1.92 0-1.38-1.05-2.22-1.05-.84-3-.84t-3.87 1.59q-1.92 1.59-1.92 3.39z"/></svg>