<svg viewBox="0 0 300 80" xmlns="http://www.w3.org/2000/svg"><path d="M17.04 53.08q-.36 0-.57-.09-.21-.09-.57-1.11 0-.42.15-.6t.51-.54q.36-.36.72-.42t1.08-.57q.72-.51 1.29-1.05.57-.54 2.01-1.47 1.44-.93 2.94-2.07.72-.42.72-.66 0-.12-.18-.12t-.36.06q-1.26.24-1.38.24-.18 0-1.02.21-.84.21-.9.21-.12 0-1.26.3-1.14.3-1.38.3t-.45-.09q-.21-.09-.57-.87v-.12q0-.18.06-.36.06-.12.48-.48t.84-.48q.18-.12.42-.12l.3.06q.18 0 .6-.12t1.98-.39q1.56-.27 4.77-.84 3.21-.57 4.47-.72 1.26-.15 3.36-.45 2.1-.3 2.52-.45.42-.15 1.68-.42t2.37-.39q1.11-.12 2.49-.42h.36q.42 0 .54.06.24.12.48.39t.24.69q-.06.36-.21.54-.15.18-1.41.6-.3 0-.72.09t-.54.09q-.12 0-.72.15t-2.34.39q-.18 0-2.91.45t-2.85.45q-.18 0-.72.15t-.66.15q-.12 0-1.23.48-1.11.48-1.17.48-.06 0-.36.18t-1.56.9q-.06 0-1.59 1.02t-3.27 2.16q-.06 0-.78.48l-.66.54q-.06 0-.39.36t-1.71 1.38q-.06 0-.84.6t-.84.6q-.06 0-.21.24t-.45.24l-.24.18h-.36zm19.74 2.22q-1.32-.12-1.53-.27-.21-.15-3.57-.93t-3.6-.9q-.24-.12-.54-1.02 0-.3.12-.51.12-.21.54-.27 0-.06.36-.06.84 0 3.24.42 3.36.48 3.51.57.15.09.93.33.78.24 1.11.57.33.33.27.87 0 .6-.15.78-.15.18-.45.3l-.24.12zM36 50.5q-.6 0-.75-.06-.15-.06-4.23-1.05t-4.32-1.23q-.24-.24-.3-.6v-.24q0-.18.06-.18.12-.18.36-.39.24-.21.54-.27h.06q.48 0 3.6.78 3.42.84 3.93.93l1.02.18q.51.09.75.21t.66.96q0 .42-.15.6t-.45.3l-.24.06H36zM19.08 37q-.6 0-.81-.09-.21-.09-.42-.63t-.3-.78q-.09-.24-1.32-3.66T15 28.06q.06-.3.18-.51.12-.21.48-.39.18-.06.48-.06h.24q.36.12.54.3.18.18 1.44 3.72t1.5 3.6q.24.06.66 1.08 0 .66-.18.84-.18.18-.48.24l-.24.12h-.54zm10.08 5.64q-.66 0-.87-.18-.21-.18-.45-.48-.12-.18-.06-2.94.06-1.08.18-2.52.42-5.16.42-5.37 0-.21.78-.51h.66q.24.12.42.36.12.24 0 2.7l-.06 2.7q-.12 2.82.18 2.82.24.12.42.36t.12.66q0 .36-.42 1.05-.42.69-1.08 1.23l-.24.12zM48.9 49.9q-.78-.06-.96-.15-.18-.09-1.02-.3-.84-.21-1.17-.42-.33-.21-.66-.45-.33-.24-1.29-.81-.96-.57-6.15-3.06t-5.37-2.73q-.18-.24-.18-.54v-.06q0-.18.06-.36.12-.3.39-.45.27-.15.69-.15.36.06 4.68 2.16 4.32 2.1 6.03 2.97 1.71.87 2.28 1.02.57.15 1.53.54.96.39 1.32.48.36.09.9.51.54.42.54.78-.06.42-.21.57-.15.15-.39.27l-.3.18h-.72zM28.86 39.22q-2.58-.24-2.82-.36-.24-.12-.54-.96 0-.3.12-.51.12-.21.42-.39.24-.06.72 0 .3 0 .78.06h.3q1.26.06 3.6-.42 2.7-.48 3.57-.72.87-.24 1.86-.48.99-.24 1.56-.33.57-.09 1.41-.39.36 0 .57.18.21.18.33.42.06.18.06.48v.12q-.06.36-.33.63t-1.47.51q-.12 0-.51.15t-1.53.39q-.18-.06-1.11.15-.93.21-3.99.87l-3 .6zM25.2 36.1q-.3-.06-.54-.15-.24-.09-.6-.87-.06-.12 0-.18 0-.12.12-.3.06-.12.3-.3t15.3-2.58q.54 0 .72.15.18.15.36.39.06.24.06.48v.12q-.06.42-.36.63-.3.21-.42.21t-.42.12q-.3.12-.72.12-.36-.06-6.9 1.08l-6.66 1.08h-.24zm9.96 7.02q-.36-.06-.57-.15-.21-.09-.57-1.05-.06-.12-.06-.18 0-.3.12-.42.06-.24.21-.36t.39-1.26q.24-1.14.36-1.56.06-.24.06-1.14.06-1.08.06-2.82 0-1.98.06-3 0-.66.06-.72.06-.12.33-.33.27-.21.57-.27h.24q.18 0 .42.06.18.18.36.42t.24 3.36q0 2.28-.06 3.42v.66l-.06.84q-.06 0-.12.72t-.24 1.26l-.18.54q-.06 0-.09.39t-.33.87q-.3.48-.6.54l-.24.18h-.36zm4.92-10.14q-.66-.06-.87-.18-.21-.12-.33-.42-.12-.18-.12-.42 0-.06.12-.24.06-.36.24-.51.18-.15 1.92-.57 1.74-.42 2.04-.57.3-.15 1.77-.87t2.01-1.08q0-.06-.24-.06-1.56-.06-13.5 1.02-14.28 1.44-14.52 1.5-.3 0-.54-.15-.24-.15-.54-.93-.06 0-.06-.06 0-.24.12-.3.06-.24.3-.45.24-.21 31.32-3.15h.36q.42 0 .66.06.24.12.45.39.21.27.27.75l-.06.18q0 .36-.12.66-.18.3-1.29 1.2-1.11.9-1.17.9-.06 0-.3.24t-1.41.81q-1.17.57-1.23.57l-.69.36q-.69.36-3.27 1.08l-1.32.24zm-6.72-7.68q-.24 0-.48-.06t-.42-.6q-.18-.54-1.2-1.68t-1.14-1.44q-.06-.12 0-.3 0-.18.06-.3 0-.3.24-.48t.6-.24h.18q.24 0 .42.06.3.12 1.59 1.62t1.29 2.16q0 .72-.21.9-.21.18-.45.3l-.3.06h-.18zm57.3 17.34l-.48-.06q-.48-.06-.63-.12-.15-.06-.75-.9-.12-.48-.12-.72.06-.18.06-.3.12-.36.33-.54.21-.18.72-.63t.72-.72q.21-.27.66-.93.45-.66.6-1.05.15-.39.75-1.29.06-.3-.18-.36-.3 0-.36.03t-5.64.87q-.06 0-3.54 1.05t-3.9.99q-.48-.06-.72-.21t-.36-.51q-.12-.3-.06-.54 0-.12.06-.24.06-.42.27-.57.21-.15 6.06-1.56 5.85-1.41 6.69-1.59.84-.18 2.34-.12 1.5.18 1.77.33.27.15.45 1.59l-.06.54q0 .42-.06.54l-.06.18q-.06 0-.12.33t-.36.69l-.3.48q-.06 0-.21.39t-.39.69l-.12.24q-.06 0-.48.66l-.48.6q-.06 0-.24.45t-.72 1.23q-.54.78-.84.9l-.3.18zm-32.22 9.48q-.72-.06-.96-.21t-.36-.45q-.18-.3-.18-.54 0-.12.06-.3.06-.36.24-.6t4.71-1.92q4.53-1.68 6.12-2.07l1.83-.45q.12-.06.36-.06h.24q.3.06.51.24.21.18.39.36.12.3.12.48v.24q-.06.42-.33.72t-1.23.6q-.3 0-1.74.39t-1.56.39q-.12 0-4.14 1.56l-4.08 1.62zm2.58-7.08q-.48 0-.78-.18-.3-.18-.63-.78-.33-.6-.39-.72t-.72-4.5q-.54-2.88-.54-3.36v-.12q.06-.36.21-.57.15-.21 1.05-.51.36 0 .63.15t.96 3.33q.69 3.18.78 3.81.09.63.57.99t.54.72v.12q0 .3-.18.6-.12.3-.27.48-.15.18-.45.36l-.3.18h-.48zm12 5.1q-.42 0-.66-.09-.24-.09-.57-.45-.33-.36-2.4-2.25-2.07-1.89-2.55-2.85v-.54q.06-.24.24-.42t.54-.3q.12-.06.36-.06.18 0 .42.06.36.06 2.22 1.8 1.86 1.74 2.43 1.95.57.21.93.75.36.54.36.96v.6q-.06.18-.21.36t-.45.36l-.3.12h-.36zm-10.2-5.7q-.48 0-.78-.15-.3-.15-.66-.99v-.24q0-.18.06-.3.06-.18.3-.42t.75-.39q.51-.15 1.02-.36l2.34-.96q1.83-.75 2.25-1.05.42-.3 1.11-.51.69-.21 1.02-.36.33-.15.87-.39.12-.06.36-.06h.24q.3.06.54.21.24.15.36.39.12.3.12.48v.24q-.06.42-.33.72t-.99.66q-.12 0-.36.18t-1.32.48q-.12 0-.24.09t-.96.57q-.12 0-.81.27-.69.27-.75.27-.12 0-1.02.45t-.96.45q-.06 0-.9.36l-.78.36h-.48zm2.52 2.76q-.42 0-.72-.15t-.6-.99v-.48q.06-.18.06-2.34 0-2.16-.06-6.54v-1.68q0-2.7.18-2.94.12-.24.39-.36t.69-.12q.3 0 .6.12t.51 2.43q.21 2.31.27 7.17.06 2.4.06 3.72 0 1.2-.06 1.32-.06.18-.21.36t-.45.36l-.3.12h-.36zm2.76-5.34q-.66-.06-.9-.15t-.6-1.11q0-.36.18-.6t.75-.51q.57-.27.81-.51.24-.24.87-.9t1.05-1.26q.3-.36.3-.48 0-.06-.06-.06-.24.12-.87.27-.63.15-.75.15t-4.17 1.5q-4.05 1.5-4.47 1.5-.48 0-.72-.18t-.42-.48q-.12-.24-.12-.54v-.24q.06-.36.27-.6.21-.24 4.98-1.86 4.77-1.62 4.98-1.71.21-.09 1.62-.45 1.41-.36 1.53-.45.12-.09.72-.09t.87.18q.27.18.63 1.08v.12q0 .36-.18.6l-.12.36q-.06 0-.21.27t-1.23 1.77l-1.02 1.62q-.06 0-.33.39t-.93.93q-.06 0-.54.48-.48.48-1.32.78-.18 0-.36.12l-.24.06zM83.76 58q-.3 0-.6-.15t-.18-5.67v-.06q.12-1.38.12-7.8 0-6.72.06-7.38.06-.6.27-.81.21-.21 1.11-.45.42 0 .6.15t.33 7.47q.15 7.32-.09 10.56l-.12 1.86q-.18 1.44-.24 1.56 0 .12-.18.3t-.48.3l-.3.12h-.3zm-9.42-9.48l-.3-.06q-.18-.06-.39-.27-.21-.21-.27-1.11v-.24q.36-.24.78-.24 17.46-1.26 19.65-1.14 2.19.12 2.67.54.48.42.6.6 0 .36-.06.54l-.06.18q-.18.48-.36.63-.18.15-1.56.09-1.26-.36-2.82-.39-1.56-.03-9.36.39l-8.52.48zm6.42-5.94l-.36-.06q-.42-.06-.72-.21t-.63-1.14q-.33-.99-1.74-3.12t-1.53-2.55q-.18-.3-.12-.6v-.12q.12-.36.33-.54.21-.18.57-.3.18-.12.48-.06h.12q.36.06.57.24.21.18 2.07 2.76 1.86 2.58 1.98 2.82.12.24.12 1.14v.48q-.06.36-.12.48t-.24.3q-.18.18-.48.3l-.3.18zm-.66 1.92q-.66-.12-.87-.27-.21-.15-.33-.63-.18-.24-.12-.48 0-.18.06-.24.12-.42.39-.63.27-.21 4.23-1.02 3.96-.81 4.14-.84.18-.03.66-.03.48 0 .75.18t.51 1.08v.12q-.06.24-.12.42-.06.12-.3.33-.24.21-.96.33-.72.12-.84.12t-3.6.78l-3.6.78zm0-3.6q-.72-.06-.96-.27-.24-.21-.36-.51-.12-.3-.06-.54v-.24q.12-.42.36-.6t4.71-1.29q4.47-1.11 4.62-1.17.15-.06.87 0 .66.06.9.24t.48 1.08v.12q0 .36-.18.66-.18.24-.48.39-.3.15-.72.09H88.2q-.36 0-4.2.96l-3.9 1.08zm-2.88-7.32q-.3 0-.57-.21-.27-.21-.48-.51-.21-.3-.36-.66-.15-.36-3.21-5.64v-.3q0-.18.12-.3.06-.18.24-.36t.54-.3q.24 0 1.8.96l-1.14-.96q.3.06.51.27.21.21 1.71 2.52t1.77 2.46q.27.15.51 1.41l-.06.42q0 .36-.06.48t-.24.3q-.18.18-.48.36l-.36.06h-.24zm.72-.36l-.48-.06q-.48-.06-.75-.21t-.57-.99l.06-.24v-.3q.12-.24.36-.42t.57-.51q.33-.33.75-.99.42-.66.72-1.05t.54-.66q.24-.27.54-.63v-.06q0-.12-.24-.18-.48-.06-2.04.36-2.58.48-3.06.48-.42 0-.69-.18-.27-.18-.33-.54-.18-.24-.12-.6 0-.12.06-.24.12-.36 1.08-.12.96.24 3.75-1.02t3.03-1.38q.24-.12.96-.06.66.12.93.27.27.15.51 1.29l-.06.42q0 .24-.06.36l-.06.18q-.06 0-.21.33t-.45.81l-.36.48q-.06 0-.42.66-.36.48-.36.66 0 .06.06.06.18 0 .51.03t.81.69q.12.3.12.54l-.06.18q-.12.42-.33.69-.21.27-1.41.75l-.39.18q-.39.18-1.59.6-.12 0-.66.18l-.66.24zm10.8-1.2l-.3-.06q-.42-.06-.57-.12-.15-.06-.57-.63-.42-.57-1.41-2.49-.99-1.92-1.17-2.4-.18-.36-.12-.66 0-.06.06-.24.06-.42.27-.57.21-.15.57-.33h.42l.3.06q.36.12.51.3.15.18 1.2 1.95t1.32 1.92q.27.15.69 1.65l-.06.42q0 .3-.06.36-.12.18-.27.36-.15.18-.45.3l-.36.18zm0-.24q-.48-.06-.63-.12-.15-.06-.63-.72-.12-.3-.06-.48v-.24q.12-.3.24-.42t.99-.93q.87-.81 1.35-1.44.48-.63 1.14-1.32.66-.69 1.02-.99.24-.18.24-.3h-.12q-.06 0-.24.06t-.54.06q-.36-.06-.6 0t-.48.06q-.18 0-1.53.96t-2.37 1.26q-.48 0-.69-.18-.21-.18-.45-1.2 0-.36.12-.51.12-.15 2.07-1.5 1.95-1.35 2.4-1.35.45 0 1.02-.03.57-.03.72-.09.15-.06.63-.12t1.8.06q1.26.12 1.53.27.27.15.51 1.23v.12q-.06.42-.18.66l-.18.24q-.06 0-.18.27t-.3.51l-.24.24q-.06 0-.21.21t-.51.51l-.36.3q-.06 0-.3.42-.18.18-.24.3 0 .06.12.06h.12q.12-.06.36 0h.36q.42.12.63.3.21.18.33.42.12.3.06.48v.24q-.12.42-.27.6-.15.18-.87.42-.12 0-.6.18t-.54.18q-.06 0-1.14.36l-1.08.36q-.12 0-.39.18t-.81.3l-.6.12h-.42zm30.78 25.56q-1.44-.12-2.37-.48-.93-.36-1.86-1.17-.93-.81-1.47-1.5-.54-.69-.54-1.17-.06 0-.06-.06 0-.42.24-.66.18-.3.54-.48.18-.06.48-.06h.24q.36.06.66.39.3.33 1.14 1.14.84.81 1.41 1.08t1.05.33h.24q.3 0 .6-.06.42-.12.6-.27.18-.15.72-.69.54-.54.75-.84.21-.3.45-.84.24-.54.3-2.4v-.42q0-1.5-.18-2.1-.24-.66-.27-1.41-.03-.75-.3-2.88t-.3-3.15q-.03-1.02-.33-2.82-.3-1.8-1.14-3.24-.78-1.26-.78-1.8v-.06q.06-.48.33-.75t.69-.33h.24q.3 0 .54.06.3.18 1.14 1.56.84 1.38 1.29 3.33.45 1.95.54 3.18.09 1.23.33 3.42.24 2.19.27 2.91.03.72.45 4.44 0 2.34-.12 2.7l-.18.42q-.06 0-.15.33t-.27.63l-.18.36q-.06 0-.33.51t-1.47 1.47q-1.2.96-2.04 1.14l-.9.24zm-15.24-11.58q-.36 0-.6-.12t-.42-.48q-.18-.24-.18-.6v-.24q.06-.48.36-.75t4.44-1.14q4.14-.87 4.83-1.08.69-.21 6.03-.78 5.34-.57 6.54-.75 1.2-.18 4.32-.39 3.12-.21 4.41-.3l2.13-.15h.24q.6 0 .84.12.24.18.42.45t.18.69q0 .48-.15.72t-1.05.54q-.36 0-.66.09-.3.09-1.2.09-.96 0-3.12.24t-3.3.24q-1.14 0-3.12.24-1.98.24-3.06.24t-4.17.45q-3.09.45-3.33.45-.24 0-.81.18-.57.18-2.79.54-.24 0-3.3.72l-3.12.78h-.36zm8.64-7.5q-.24 0-.57-.15-.33-.15-.69-1.17 0-.42.12-.63.12-.21 3.6-.96t4.92-1.08q1.44-.33 4.44-.81 3-.48 4.32-.54h.6q.78 0 .96.06.18.12.42.45t.24.75q0 .42-.15.66-.15.24-1.59.6-.9 0-2.07.18t-1.41.18q-.3 0-1.29.21t-1.17.21q-.24 0-1.2.24t-5.1 1.02l-4.14.78h-.24zm-.42-7.56q-1.68 0-1.95-.15t-.57-1.11q-.06-.06-.06-.18 0-.3.12-.48.06-.18.33-.42t.75-.24h1.44q.12.06.3.06 1.02 0 3.06-.18 2.4-.18 3.96-.39 1.56-.21 5.25-1.44t4.11-1.29h.12q.3 0 .54.12.3.18.48.48.12.24.12.54v.24q-.06.54-.3.78t-3.42 1.41q-3.18 1.17-5.07 1.47-1.89.3-4.71.54l-2.82.24h-1.68zm52.14 14.16q-.54-.06-.81-.21t-.57-1.23q-.06-.06-.06-.12 0-.54.24-1.02.18-.54.21-.93t.33-2.91q0-1.68-.54-3.09t-.54-1.89q0-.42.15-.66.15-.24.45-.42.24-.12.54-.12h.24q.48.06.72.27.24.21 1.62 5.73v.54q0 1.38-.12 1.8-.06.12-.06.24 0 .18.18.18.12 0 .36-.06.6-.24 1.53-.48t2.52-.75q1.59-.51 1.92-.72.33-.21 2.13-.9 1.8-.69 2.22-.93.3-.18.66-.18h.18q.48.06.72.3t.3.48q.06.18.06.42v.24q-.06.36-.36.69-.3.33-2.13 1.11-1.83.78-1.95.78-.12 0-.54.24-.42.24-2.46.78-.12 0-.51.21t-2.49.81q-.12 0-.63.24t-.57.24q-.12 0-.6.27t-.6.27q-.18 0-.3.12t-.78.36l-.66.3zm-19.56 3.72q-.36 0-.66-.18-.3-.18-.48-.6-.12-.24-.12-.48 0-.12.06-.3.06-.36.36-.63t5.19-1.74q4.89-1.47 5.85-1.77.96-.3 2.46-.78.48 0 .72.18t.42.48q.06.24.06.54v.18q-.06.42-.42.75t-2.16.99q-.12 0-1.65.6-1.53.6-1.59.6-.12 0-1.14.42t-3.78 1.08l-2.76.66h-.36zm8.94 6.72q-1.26-.06-1.65-.3-.39-.24-1.29-1.8-.3-.54-.3-1.02V52q.06-.48.36-.75t.78-.33h.3q.24 0 .3.06.12.06.39.33t.45.69q.06.24.12.24t.12-.12q.06-.24.18-.42t.36-1.32q.24-1.14.3-6.72t.15-8.49q.09-2.91.12-4.62t.69-2.43q.24-.12.54-.12h.24q.42.06.75.36t.33 2.22v1.92l-.06 2.52-.06 2.58q-.06 0-.09 5.67t-.21 6.63l-.18 1.02q-.06 0-.09.57t-.15.87l-.18.3q-.06 0-.3.63t-1.56 1.83l-.36.18zM145.2 40q-.72-.12-.99-.39t-.33-.57q-.06-.12-.06-.3 0-.12.06-.36.06-.36.3-.6t3.99-1.17q3.75-.93 4.44-1.14.69-.21 3.63-1.02t3.3-.99q.3-.12.6-.12h.18q.42.06.72.39t.3.93q0 .66-.18.9t-2.67.99q-2.49.75-2.61.75-.18 0-1.35.33-1.17.33-3.33.75-.18-.06-3.06.78l-2.94.84zm18.84 16.26q-.96-.06-1.2-.21t-.42-.51q-.12-.24-.12-.48v-.24q.06-.36.45-1.29t.45-2.13v-.3q0-1.02-.18-1.98-.12-.84-.12-1.32v-.3q.06-.42.39-.72t.81-.36h.24q.24 0 .3.06.12.06.39.33t.69 4.41q0 1.62.24 1.62v-.06q.24 0 .66-.18.42-.18 1.35-.36.93-.18 1.65-.33.72-.15 2.28-.51 1.56-.36 2.67-.66 1.11-.3 1.98-.6.87-.3 1.29-.3.42 0 .69.15.27.15.57 1.11 0 .42-.24.81-.24.39-1.23.69-.99.3-2.79.72t-1.98.42q-.18 0-1.08.27-.9.27-1.02.27-.18 0-1.08.27-.9.27-1.14.27-.3 0-.6.09t-1.74.45q-.12 0-.54.21-.42.21-.54.21-.12 0-.6.24l-.48.24zm20.52-.36q-.72-.06-.96-.21t-.51-.66q-.27-.51-.54-.9t-.9-1.17q-.63-.78-.93-1.26-.3-.48-2.28-2.43-1.98-1.95-2.16-2.25-.12-.24-.12-.54v-.3q.06-.48.36-.75t.78-.33h.24q.3 0 .42.06.18.12 1.56 1.32 1.38 1.2 2.61 2.91 1.23 1.71 1.47 1.95t.93 1.11q.69.87.9 1.2.21.33.27.75v.18q0 .36-.18.6-.18.36-.54.54l-.42.18zm-13.38-3.06q-.36 0-.6-.12t-.66-2.82q-.06-.3-.06-.6 0-1.62.18-2.94.12-1.5.27-2.1.15-.6.36-1.95t.21-4.23v-.72q0-2.34-.18-3.66-.18-1.5-1.02-3.42-.72-1.68-.72-2.16 0-.06.06-.12.06-.42.36-.69.3-.27.84-.27.48 0 .75.21t1.38 3.75q1.11 3.54 1.11 6.54v.96q0 2.28-.12 3l-.18.96q-.06 0-.12.84l-.06.9q-.06 0-.18.84l-.12.9q-.06 0-.06.84l-.06.9q-.06 0-.12 2.22t-.72 2.82l-.24.12h-.3zm10.14-11.64q-.78-.06-1.05-.27-.27-.21-.54-.66-.27-.45-.36-.75-.09-.3-.6-1.56t-1.59-3.18q-1.02-1.8-1.02-2.4v-.06q.06-.48.36-.75t.84-.27q.54 0 .78.18t1.59 2.94q1.35 2.76 1.59 3.18.24.42.57 1.05.33.63.39 1.11v.12q0 .42-.18.66-.18.3-.48.48l-.3.18zm26.16.24q-.36 0-.57-.12-.21-.12-.87-1.44v-.36q0-.3.06-.42.06-.24.39-.63t6.03-2.19q5.7-1.8 6.87-1.95 1.17-.15 3-.69 1.83-.54 2.67-.78.78-.24.78-.54v-.06q-.06-.12-.06-.36v-.36q.06-.48.24-.78.18-.3 1.32-.78h.18q.36 0 .54.12.12.12.51.15t1.35.54q.96.51 1.14.84.18.33.24 1.17v.3q0 .48-.06.66-.12.3-.33.54-.21.24-1.86.84-1.65.6-1.71.6-.18 0-1.14.3t-2.94.72q-.18 0-.96.36t-2.76.66q-.3 0-1.05.27t-5.73 1.83l-5.04 1.56h-.24zm-6.3 16.08q-.36 0-.69-.21-.33-.21-.69-1.95-.06-.3-.06-.54 0-.54.06-.6.06-.12.21-.96t.48-2.04q.33-1.2.51-1.68t.54-2.58q0-.9-.9-4.14-.84-3.18-.84-3.78v-.12q.06-.54.24-.84.18-.3.6-.48.18-.12.48-.12h.3q.42.12.72.45t2.22 8.55v.54q0 .78-.12 1.44-.12.9-.18 1.32l-.18.48q-.06 0-.42 1.32l-.3 1.32q-.06 0-.18.54l-.12.54q-.06 0-.06.72 0 .66-.18 1.29t-.84 1.35l-.3.18h-.3zm-7.8-9.3q-.78-.06-1.05-.27-.27-.21-.45-.75-.18-.3-.18-.78v-.18q.06-.48.24-.75t.6-.78q.42-.51 1.05-1.26.63-.75 2.22-2.85 1.59-2.1 2.1-2.94.51-.84 1.53-2.4t1.38-4.47q.36-2.91.69-3.87.33-.96.75-1.14.18-.06.36-.06.24 0 .48.06.42.12.69.45.27.33.33.93v.18q0 .78-.42 3.96-.42 3.6-.96 4.68-.54 1.08-1.14 1.74l-.54.72q-.06 0-.51.81t-2.1 3.12q-1.65 2.31-1.71 2.31-.06 0-.54.54l-.54.6q-.06 0-.42.63t-1.5 1.59l-.36.18zm12.3 4.92q-.6 0-.93-.18-.33-.18-.69-1.38v-.3q0-.3.06-.42.06-.3.33-.66.27-.36.75-.54.48-.18 1.08-.48.6-.3 1.71-1.26 1.11-.96 1.65-1.77.54-.81 1.71-2.04t3.06-4.83q1.89-3.6 2.91-4.02.42 0 .72.21t.66 1.53q0 .6-1.74 3.93t-3.12 5.01q-1.38 1.68-1.44 1.68-.06 0-.6.84t-1.98 1.98q-.06 0-.63.6-.57.6-1.89 1.32-.12 0-.3.21t-.48.39l-.36.18h-.48zm9.66-1.08q-.78-.06-1.05-.27-.27-.21-.45-.75-.18-.3-.18-.72 0-.18.06-.3.06-.54.39-.9t5.91-1.86q5.58-1.5 5.82-1.56.18-.06.42-.06h.24q.36.06.6.3t.42.54q.12.42.12.72v.3q-.06.6-.33 1.02-.27.42-1.35.84-.36 0-.66.15-.3.15-5.1 1.35l-4.86 1.2zm3.18 5.46q-1.02-.06-1.29-.27-.27-.21-.87-2.19-.06-.18-.06-.36 0-.42.06-.54.06-.18.27-.48.21-.3.6-.96.39-.66.42-1.68.03-1.02.15-2.37t.18-1.8q.06-.45.18-2.07.12-1.62.15-5.91t.21-7.71q.18-3.42.33-3.69.15-.27 1.17-.63.42 0 .75.21t.51.51q.06.24.06 2.04v3.24q-.06 0-.09 5.1t-.09 5.52l-.06.36q-.06 0-.09 1.23t-.09 1.71l-.06.36q-.06 0-.09 1.23t-.09 1.47l-.06.3q-.06 0-.09.96t-.15 1.86l-.18.96q-.06 0-.09.57t-.15.93l-.18.36q-.06 0-.15.42t-.81 1.14l-.3.18zm14.52-6q-.36 0-.84-.27t-2.31-2.28q-1.83-2.01-2.37-2.4-.54-.39-5.16-2.58t-5.1-2.46q-.48-.27-.9-1.65 0-.48.21-.81.21-.33 1.23-.81.42 0 4.92 1.86t5.52 2.73q1.02.87 2.04 1.77t2.04 2.01q1.02 1.11 1.41 1.59.39.48.51.78.12.36.12.66v.3q-.06.6-.21.9-.15.3-.51.48l-.3.18h-.3z"/></svg>