<svg viewBox="0 0 388 80" xmlns="http://www.w3.org/2000/svg"><path d="M44.56 12.23h.12q2.93 1.06 4.57 3.87.47.82.47 1.64 0 1.41-1.41 4.46h.12q2.93 0 5.86 4.21.7 1.82.94 3.99-.12.64-.12 1.05 0 .53.12.71-.65 7.26-1.18 7.26 0 .06-.46 1.41h1.52q3.34 0 5.86 3.98 1.05 2.11 1.05 5.63-.35 2.58-1.29 5.15-2.22 3.87-4.45 3.87h-.47q-2.75 0-6.44-3.28-5.04-2.93-6.33-2.93-2.99.53-7.62 2.11l-.7.12v-.12l-.24.12h-.82q-1.34-.59-2.81-2.35l-.12-.58v-.12q0-.29 1.88-.59.12 0 .12.12.41 0 10.19-2.69-3.4-2.52-3.4-3.75.71-5.69 1.88-10.79 1.23-7.38 1.99-7.38v-.12q-2.46-2.16-2.46-3.16v-.12q0-1.46 3.28-7.38v-1.29q0-.76-.12-1.52.12-1.53.47-1.53zm-20.15 2.23q4.1 1.93 6.91 8.09.35 1.23.35 1.87-.53 1.29-1.64 1.29l-5.51 3.99q-2.22 1.23-2.22 2.46l.58 5.62h-.11l.46 2.81q-.7 3.7-.7 4.57 0 .77.24 1.88-.36 4.04-.36 4.57v.12h.12q.82-1.82 4.69-15.94.7-3.69 2.46-5.27 2.46-1.76 4.69-1.76h.35q2.05 0 4.69 3.4.11.17.11.47v.23h-.35q-.76 0-1.52-.12-1.52 0-1.52 1.41v1.05q0 2.93-1.18 7.62v.12q.24.11.35.11 2.58-1.17 2.82-1.17.58.18.58.35-.93 1.53-2.34 3.29-1.35 2.46-5.63 5.62 0 .24-.58.24h-.24q-1.11 0-2.81-2.23-.23-.41-.23-.59h-.12q-.53.65-1.87 7.03-.77 3.23-1.88 4.11h-.35q-1.52 0-4.22-3.52l-.23-2.34q.35-2.35.93-3.05.3-1.17.82-2.11.35-1.23.35-1.52 0-.12-.11-.12l.11-.82v-1.06q0-1.87-2.81-6.68-1.64-2.98-1.64-6.68v-.23q.12-2.58 1.17-2.58 0-.29.94-.47l.82.12h1.17q.76 0 1.53.12 2.98 0 4.8-2.35.35-.99.35-1.4V23.6l-2.93-8.2v-.47q.24-.47.71-.47zm21.91 12.89q2.4 2.17 4.81 3.75h.11l.12-.82v-1.99q0-2.81-.35-2.81-1.41 0-4.57 1.87h-.12zm-.47.94q-.35.47-.35 1.29 0 .12.12.12-.35 3.22-.35 5.15.7-.29 2.22-1.76 1.58-1.29 2.23-2.11v-.11q-2.64-2.58-3.87-2.58zm-19.1 20.04h.23q4.34-4.4 4.34-9.38.82-3.69.82-4.22-1.64 1.47-3.28 6.1-2.11 6.56-2.11 7.5zm18.87-8.44q.47 1.88 1.52 1.88h.12q1.58 0 3.16-5.39v-.12h-.23q-3.75 2.46-4.1 2.81l-.47.82zm-1.17.59q-.3 2.93-.47 2.93l.11.23v.24l-.11.23.23.12h.24q.93-.71 2.69-1.29l-2.69-2.46zm.11 8.2v.23l6.92-1.17q2.05 0 3.63 2.7 0 .52-2.11.7 0 .12-.12.12-.11 0-.11-.12l-7.86 1.64q0 .18 4.22 2.46 2.23 1.88 3.52 1.88h.23q2.35-.65 4.1-3.4 2-3.4 2-6.56 0-3.99-1.29-3.99h-1.64q-4.4.65-7.85 2.7-3.4 1.52-3.4 2.58-.24.05-.24.23zm55.43-34.45h.47q2.4.76 4.34 3.57v.76l-.47.12v-.12l-.18.12-.47-.12q-3.45.65-6.09 1.64l-.7.12q-.35-.18-.53-.18-2.58.53-3.93.53h-.05q-2.58 0-4.81-3.46v-.11q.23 0 .23-.18l1.12.06h.41q1.23 0 3.05-.41v.12q6.62-1.64 7.61-2.46zm-4.74 8.02h.11q2.52.88 2.52 3.4.3 1.12.35 1.12 8.44-2.58 13.25-3.4 3.57 0 7.09 5.09.23.36.23.65v.35q0 1.93-9.02 2.99-1.17.47-5.98 1.23h-.35l-1.35 2.64q2.17 1.4 6.68 2.57 4.45 1.18 4.45 1.59v.11l-2.22 1.18q2.69 1.81 2.69 5.8v.23q0 .12-.11.12.11.17.11.29 0 1.88-2.34 8.91-1.41 2.28-3.98 3.1-2.35 0-4.58-2.4.12 0 .12-.12.94.53 1.99.53.71-.06 1.35-.76-6.03 0-15.35 1.11-.82 0-1.99-1.7v-.17q.23 0 .23-.24-2.17-1.4-3.45-6.03-.59-2.76-.59-3.87v-.12q0-1.23.35-1.23h.35q1.23 0 2.99 2.99.65 2.46.88 2.46.12-1.11.12-1.64v-.23q0-1-1-3.11v-.23q.65-.59 4.98-1.58 2.11-.88 11.25-3.23v-.06q-5.15-1.58-6.44-3.8h-.12v1.11q-.06 3.69-.65 3.69-1.81 0-3.22-2.58v-.23q0-.71.18-2.76-.24 0-4.46 4.63-1.46 1.47-1.64 1.47h-.23q-1.06 0-2.34-2.11v-.12q1.05-1.7 1.58-5.98v-.11l-3.46 2.34h-.88q-.12 0-.88-.23h-.23q-.47 1.05-.76 3.45l-.24.12h-.23q-1.64-.53-2.87-2.34-.24-.35-.24-.71 1.23-6.68 1.47-9.31.17-.12.29-.12l.82.47q1.82 0 5.98-1.99 3.51-2.05 5.8-2.58v.12q-1.35 1.23-6.04 3.57-1.58.76-4.86 1.76v.11q.47.65.88 2.64h-.12q.18.65.35 1 6.39-2.52 10.08-3.52Q94.37 28 94.6 28v-2q0-.64.06-1.75l-.06-.24q.35-1.76.65-1.76zm9.66 4.75l.12.76q0 1.7-1.23 5.16h.12q3.34-1.23 7.97-5.45.23-.35.47-.35v-.47l-.77-.06h-1.11q-2.4 0-5.57.41zm-6.79 1.76l.11.58v.24q0 .29-.11.29.11.53.35 4.92h-.12l.12.24v.52h.23q1.59-1.34 4.22-8.08h-.12q-1.87.41-4.68 1.29zm-8.97 9.02q.76-.23 5.51-2.99h.12v-.64q0-1.35-.12-4.16h-.06q-3.34 1.52-4.69 2.58-.76 4.51-.76 5.21zm10.43 6.92v.11q1 .94 1 1.88.64.76.76.76.23 0 3.11-.65 1.75.65 2.46 2.11v.24q-6.57 1.05-6.57 2.11-.11 1.64-.11 3.4.7 0 2.11-.18l.23.12q.53-.24 1.47-.24h.11q1.12 0 2.76 1.53l1.58-5.98q.29-2.46.64-6.91-.11-.3-.23-.3-2.05 0-9.32 2zm-8.9 4.86v.99l-.12.59q3.34-.76 7.03-2.46.23-.88.23-2.11v-1l.06-.23h-.06q-3.16.76-6.56 2.7-.58.76-.58 1.52zm2.22 3.69h-.52q-.71 0-1.82-1v.88q0 1.29.88 3.11l5.68-1 .12-.23q0-.24-.12-.41.24-1.7.24-2.58l-.24-.12q-3.46 1.35-4.22 1.35zm53.97-39.61q2.87.82 2.87 4.04.12 0 .12 2.29v4.45q0 .65 2.4 2.7.82.82.82 1.87-.24.3-2.7.71-1.46 0-1.46 4.04 0 1.4-.71 8.32l.71.12q1.11-.3 3.22-1.47h.29v.12q-.41.7-4.04 4.45-.41.65-.41 1.76v.94q0 .17-.12.17 0 .12.12.12-.18 8.32-1.35 8.32-2.99-1.23-2.99-4.8-.17-2.35-.64-2.35-7.27 4.75-9.02 4.75-1.23 0-3.11-2.58v-.41q2.4-4.16 6.86-10.49l2.46-4.16q2.28-3.69 2.93-4.16.58 0 1.34.35l.12-.64v-.53q0-.29-.35-.29-4.57.7-7.44.7h-.12q-1.29 0-2.69-1.76l-.3-.41v-.41q.59 0 7.97-2.81 3.75-.94 3.75-1.76.71-7.03.94-7.03.12-4.16.53-4.16zm22.26 2.58h.24q2.69 0 4.57 3.46v.41q0 .41-7.5 1.64-4.63 1.34-7.15 1.75-3.63-1.46-3.63-3.22.64-.7 7.79-2.28.64-.53 5.68-1.76zm-11.72 9.26q4.16 1.34 4.16 7.15-.11.29-.11.41 3.4-2.35 8.61-4.05.94-.35 3.11-1.64h.35q1.58 0 4.04 3.4v.41q0 1.41-2.93 8.2-1.87 5.28-4.45 9.14 3.81 1.12 11.01 2.46.18.18 2.58 1.06 7.97 3.28 8.09 3.63-5.22 1.23-5.39 1.23-9.73-1.23-15.24-3.92l-3.04-1.88q-5.81 6.51-10.38 8.09-1.23.53-4.74 1.35-.53-.18-.53-.41 3.46-1.47 8.2-5.51 3.58-3.64 4.57-5.51v-.18q-2.87-2.22-5.09-4.16h-.12q-.7 3.52-2.05 7.39-1 3.28-2.29 3.28 0 .12-.11.12h-.12q-1.64-.71-1.64-1.76v-.3q0-1.99 2.17-9.25.41-2.11.64-2.7-3.87-4.22-3.87-5.27v-.12l.24-.12q.82 0 4.04 3.05.29-2.28.53-2.52.29-3.69.29-4.98v-2.99q0-.29-.12-.53 0-.11.12-.11 0-.94-.82-1.76v-.29l.29-.41zm3.23 16.58q1.81 1.52 6.03 4.74 3.4-6.21 5.39-12.83.3-.93.3-1.58v-.18h-.53q-3.75 1.12-10.26 3.64-.23 0-.52 4.45-.24 0-.41 1.76zm-24.79 7.38h.12q6.5-3.75 7.56-4.8.11-.76.11-1.23v-1.06q0-.17.18-.17 0-.12-.18-.12l.18-.94v-1.76q0-.11.12-.11 0-.18-.12-.18.12-1.23.23-1.58-.11-.24-.11-.7h-.3q-1.81 2.57-3.86 6.32-2.52 3.64-3.81 5.69l-.12.64zm75.59-35.33q1.35 0 3.51 3.16l.71 3.05h-.12q0 .12.12.12.11 2.17.11 3.16v.35l.12.59h.12q.64 0 3.28-1.06.7 0 1.41-.93.41-.24.7-.24 2.11 0 5.51 4.22.29.41.47 1.64 0 2.11-2.11 5.51v.12q3.39-.71 4.21-1.06.06-.23.24-.23h.7q3.11 1.11 5.39 4.57v1.76q0 .11-.11.11 0 .12.11.12-.47 4.69-1.76 8.09-1.69 5.39-5.15 5.39h-.94q-3.57 0-7.38-3.75-2.46-2.76-4.45-6.8h-.12l-.71 11.54q-.17 9.2-2.57 12.31l-.35.23q-.24-.58-.24-2.69v-1.18q0-.29-.12-.46 0-.12.12-.12 0-.12-.12-.35-.11-5.04-.11-7.74l-.12-4.63q0-.29-.12-.46 0-.12.12-.12l-.12-.59v-4.45l-.12-.59h-.11q-1 0-5.16 1.76 0-.12-.12-.12-1.75 1.06-4.68 1.64-1 0-1.06.12-3.81-1.64-4.69-3.75-.11-.23-.11-.47.41-.35.82-.35 1.23 0 1.87.12 3.93 0 11.14-2.93 2.1-.29 2.1-1.99 0-.59.12-.59 0-.12-.12-.12 0-.23.12-.23l-.12-1.41v-.47q0-.93.12-2.22-.12-.18-.12-.71.12 0 .12-.11h-.12q-1.81.58-4.45 1.05-2.11 0-4.33-3.04v-.24l.23-.12q.59 0 1.17.12 1.58 0 7.15-2.23-.82-6.32-.82-7.96h.12q0-.12-.12-.12.23-4.22.94-4.22zm12.54 4.69q.29 0 3.51 1.05l.24-.12q1.64.24 4.68 1.18 4.81 1.11 4.81 1.4v.12q0 .18-2.58 1.76 0 .47-1.52.47-5.16 0-9.26-4.93l-.12-.58v-.12q.06-.23.24-.23zm-7.97 10.31q.12.59.12.7 0 .24-.12.47l.23 4.34q-.11.41-.11 1.29.41.35.58.35l1.88-.59v-.7q.93-4.69 2.22-7.15-.11 0-.11-.12-.53 0-4.69 1.41zm.7 11.84q2.17 5.03 4.92 7.38.76.47 2 .47l.46-.12q.24.12.36.12 1.69-.47 3.39-2.11 1.41-2.29 2.7-7.74 0-.11-.12-.11.24-.88.24-1.64l-.36-.24q-3.75.18-13.47 3.75l-.12.24zm69.43-27.78q2.76 1.17 2.76 2.7v.52q-.29 1.65-5.86 9.38v.18h.12q4.86-1.06 10.13-2 1.88 0 4.22 2.99v.41q0 1-9.08 1.88v-.12l.82-1.52h-.12q-1.46 0-7.44 1.29-1.64-.42-2.64-1.82v-.65q.41-.93 2.99-4.33 2.41-3.4 2.41-3.99h-.12q-4.22 3.7-5.98 6.16-.76.46-2.99 3.75-.29 0-1.17 1.64-1.23 1.64-1.23 2.57v.77q0 .17-.35.17-2.17-.64-3.22-2.63-.71-2.93-1.12-2.93-2.63.93-5.62 3.86-1.29 1.53-1.99 1.53-1.82-.82-1.82-1.76 5.62-9.02 5.62-9.43.94-1.41 1.47-4.75.23-.12.35-.12 2.4 1 2.4 3.99v.64q0 1.11-.88 3.34h.12l7.56-2.99q.29 0 .94-.11.82.29 1.7.93h.23q2.7-4.22 6.97-9.02.12 0 .82-.53zm-16.28 13.77v.12q1.17 1.17 2.4 3.1h.12q1.81-1.58 4.57-5.39v-.17h-.12q-.18 0-3.63.94l-3.34 1.4zm18.92 3.87h.24q2.57.47 5.62 3.87.65 0 1.58 5.03l.24 1.76q0 .12-.12.12.12 1.82.23 2.05l-.11.65v.05q0 .59.11 1.88h-.11l.23 1.17q-.12.88-.12 1.47v1.23q0 .23-.11.41 0 .11.11.11l-.11 1.06v2.28q0 .3.11.3l-.11.52v2.52q0 .82-.12 2.05.12.18.12.3-.53 3.86-.76 3.86l-.59.12q-2.34-.76-3.81-2.93-2.23-5.21-6.5-7.5v.24q0 2.34-.71 2.63h-.11q-1.12 0-2.41-1.35-.64-.11-.93-.11-.82 0-2.64.11-1.46-.11-2.17-.35l.12.77q-.06 1.05-.47 1.05-3.57-1.64-3.57-3.52v-.52q0-3.93 1.75-9.73l.77-.64q.41 0 1.28.64h.12q1.12-1.17 2.4-1.58.24 0 2.17-1h.12q2.46.82 3.81 3.05.47.88.47 1.58.11 5.27.11 6.39-.11 1.7-.11 1.99 1.7.29 6.74 5.27v-.17q0-.24-.12-.24l.12-.76v-.41q0-.64-.12-.76l.12-.76q0-4.4.23-8.26-.12-.36-.12-1.29 0-.12.12-.12l-.12-.53V43.7q0-.29-.11-.29l.11-.53v-.76q0-5.51-.82-7.97h-.41q-3.04 0-9.78 2.46-.65.12-1.12.12h-.11q-.77 0-1.64-1.06 0-.17 1.64-.64l5.04-2.4q.87-.71 4.33-1.82zm-19.86 2.46q1.4 0 3.57 3.22.71 1.29.71 1.94 0 .87-2.17.87h-.94q-.35-.29-.82-2.16-1.35-1.94-1.35-2.99.12-.88 1-.88zm-4.22 7.32q.94.06.94.88-.35 2.93-.35 6.33h-.12q0 .12.12.12-.94 6.74-.94 9.9-.3.23-.47.23-3.11-1.34-3.11-3.57v-.23q0-2.35.24-2.35 0-.11-.12-.11.7-6.33 1.52-8.62 1-2.58 2.29-2.58zm11.6 6.04q1.17-.53 3.22-1.17h.18q.41 0 1.29.52h.12q0-.52.11-.52l-.11-.24v-1.05q0-.41-.12-1 .12-.17.12-.41-.12-.23-.12-.35h-.12q-4.57.82-4.57 2.81v1.41zm.65 3.22h-.88v2.35q2.52-.41 3.22-.41.88.17 1.46.52l.24-.11q.12-2.11.12-3.23v-.76q-4.16 1.23-4.16 1.64zm66.91-35.21h.12q1.4 0 3.51 2.99.3 2.63.41 2.87 0 .11-.11.11l.11.65v.99q0 .77.24 2.88l-.12.29.23 1.99h.12l1.64-1.52.65-.24q2.4 0 5.86 4.87v.41q0 .52-4.87 1.34l-3.16 1.12v3.16q0 1.06.17 3.34 8.09 1.52 11.61 2.87 1.87.65 5.62 1.17v.12q-2.75 1.47-5.39 1.99-6.56-1.11-11.72-2.87l-.12.65v2.22l.12.88q1.23-.41 3.34-.41 1.47 0 3.63 2.4.41.47.41.88l-.29.35-1.46-.11h-.88q-4.75.82-4.75.99v.88q0 1.29-.12 3.05l.12.23q-.41 3.28-1.29 6.62h-.47q-2.4-1.17-3.39-3.51l-2.35-6.5h-.64q-2.46 0-3.64-2.23 2.64-.35 2.64-.88v-.12l.47.35h.12q5.39-1.17 5.39-1.52v-5.86q-.59-.17-1.99-1.35-.12 0-9.15 7.62-5.09 3.22-6.38 3.22l-.12-.23q2.46-1.7 9.79-9.14 2.75-2.99 3.98-5.22.18 0 1.11-1.17h-.23q-5.45 1.7-12.13 5.28-2.17 0-4.39 7.61-.36 4.05-.36 4.92 0 .12.12.36-.41 2.52-.76 2.75-1.52 0-3.4-2.87 0-.12-.35-1.64v-1.35q0-.35.12-.53-.12-.23-.12-.52v-.12q.06-.88.23-.88l-.11-.23q0-.12.11-.36l-.11-.88q.23-1.93.23-2.75 0-.23-.12-.23l.12-.65v-1.99q-.88 0-3.1 2.75-1.59 1.59-4.52 3.46-1.34-.47-1.99-1.58v-.12q1.53-3.87 4.51-7.38l7.85-11.54q1.12-1.82 1.76-3.23.71-.7 2.52-5.5l.12-.65q-.35-.7-.35-1.11.23 0 .23-.3 1.64 0 4.1 3.4.41.59.53 1.88-.17 2.11-2.23 6.03-.93 2.17-4.39 7.09 0 .53-3.28 3.75 0 .41 1.52 2.05.65.71 1.12 3.75.52-.52 2.4-4.27 13.71-9.09 16.76-10.49v-1.29q0-1.93-.24-3.63 0-.12.12-.12-.29-4.57-.53-5.51h-.12q-.23 1.29-.52 1.29-.47 0-1.12-3.4v-.23q.88-1.64 1-1.64zm1.41 23.9q0 .35-.41.35v.12q.23 0 .76.29v-.11l-.12-.65h-.23zm-2.99 13.25q2.28 3.92 2.87 4.51h.12q.35-3.93.35-4.75-3.05.24-3.34.24z"/></svg>