<svg viewBox="0 0 389 80" xmlns="http://www.w3.org/2000/svg"><path d="M37.02 36.4h7.56q-1.5 1.02-1.5 8.4v17.76l-10.2 1.2v-2.88h-3.66v1.56l-10.2 1.2V40.12q0-1.44-1.38-1.8l.6-1.92h6.78v-7.26h-7.5l-1.86.84 1.86-9.24h7.5v-4.5q0-1.38-1.5-1.5l.42-1.32h14.28q-1.2.48-1.2 1.8v5.52h8.46l-1.2 8.4h-7.26v7.26zm8.52-21h28.5q-1.08.72-1.62 2.34-.36 1.26-.42 3.3v40.74q-3.3 3.66-10.5 3.66l-5.46-8.4q3.18.42 4.98 0v-7.98h-3.9q-.36 7.14-4.2 11.4-1.68 1.8-4.08 3.18-2.1 1.14-4.8 1.98 2.22-6.06 2.22-16.38V19q0-1.56-1.14-2.28l.42-1.32zM61.02 28v-4.26h-3.84V28h3.84zm-3.84 12.66h3.84V36.4h-3.84v4.26zm-24.3 11.76V44.8h-3.66v7.62h3.66zm78.66-27.78l-10.92.78-2.1 1.08 1.98-8.52 7.32-.54-.72-1.32q-.48-1.02-1.8-1.02l.54-1.56H120q-1.38.78-.9 1.74l.72 1.32 13.74-.96-.18 7.5-4.14.3 4.92 7.86q-1.2.42-2.82.84l-3 .84.24.48q4.38.66 5.7.12l-4.02 6.6q-3.12.24-6.54-.48-4.08-.9-5.76-2.76l-.9-1.74q-4.5.6-9.24.84-5.16.3-10.56.18 3.78-1.02 8.46-2.64 4.38-1.44 8.82-3.18l-3-5.76zm-14.7 35.4l-8.64 1.14v-2.64h-2.4v3.66l-8.7 1.08V19.3q0-1.5-1.32-1.74l.54-1.98H98.4q-.84.66-1.2 3-.36 2.04-.36 5.4v36.06zm30.84-36.48l-4.14.24 1.32 2.46 1.44-.6q.3-.12.48-.24 1.14-.54.9-1.86zM88.2 32.8v-8.82h-2.4v8.82h2.4zm37.5 22.62h1.8q.24-3.24.06-5.58l6.66 6.06q0 5.4-3.9 7.92h-15.3V49h-2.28v2.7q0 3.06-.66 5.28-.72 2.52-2.4 4.26-3.78 3.96-12.96 4.14 2.4-2.04 3.78-5.1 1.62-3.48 1.62-7.62V49H99l-1.68.9L99 40.6h33.24l-1.32 8.4h-5.22v6.42zm-39.9-5.28h2.4V41.2h-2.4v8.94zm107.22 3l1.26.42v11.76q-4.32-.36-8.76-1.74-5.04-1.56-9.06-4.14-4.26 2.88-9 4.74-4.98 1.92-10.2 2.58 5.88-4.2 12.96-12.72-3.36-4.14-4.44-8.94 2.4 2.28 7.8 4.74 2.28-2.94 4.32-6.36h-12.66v4.62q0 7.74-3.84 12.36-3.36 4.14-9.48 5.52 2.52-5.52 2.52-15.78V21.4q0-1.56-1.14-2.28l.42-1.32 11.52 1.5h3.84v-2.94q0-1.38-1.5-1.5l.42-1.32h13.68q-1.2.48-1.2 1.8v3.96h13.86q0 5.34-3 9.42-3.24 4.32-9 5.76.72-2.94 1.2-6.78h-3.06v7.38h10.2v8.4q-2.4 5.1-7.08 9.96 5.04 1.5 7.38 1.5 1.5 0 2.04-1.8zM144 30.34l-1.14-1.14q1.14-1.14.72-2.28-2.22-5.28-7.32-11.7 4.92-.6 10.02 1.68 5.16 2.4 7.02 6.24l-9.3 7.2zm21.24-2.64v7.38h3.84V27.7h-3.84zm-21.3 17.52l-1.26-1.08q.3-.3.42-.48.24-.3.3-.54.24-.6-.06-1.26-2.58-5.34-7.74-11.34 4.98-.72 10.02 1.26 5.34 2.1 7.32 5.94l-9 7.5zm6.66-4.32q1.8 5.46.96 12.24-.84 7.08-4.14 12.3l-10.44-6.18.6-1.38q1.32.54 2.1-.42 5.58-6.84 10.92-16.56zm102.78-6v10.62q-3.84-.3-7.8-1.26-.24 1.38-.24 4.32v15.66l-12 1.2v-1.26h-17.1l-11.4 1.14V45.34q0-.54-.36-1.08-4.32.96-8.76 1.26 8.34-5.4 16.2-12.36h-12.66l-1.86.78 1.86-7.98h20.16v-2.28q-11.22.3-20.28-.18 4.38-.96 10.02-2.28 5.28-1.26 10.74-2.7 11.7-3 16.8-4.68 1.08-.36.84-1.56l1.26-.6 7.98 9.78q-4.86 1.08-15.36 1.74v2.76h21.12l-1.32 7.2h-17.58q2.04.78 4.5 1.38 2.16.48 4.62.78 2.04.3 4.14.42 1.68.12 3.18.12 1.62 0 1.98-1.2l1.32.24zm-41.16 7.08h27.06q-5.1-2.46-7.86-6.3v4.86l-12 1.2v-3.36q-3.12 1.98-7.2 3.6zm21.12 8.46v-1.86h-16.5v1.86h16.5zm-16.5 7.08h16.5v-1.8h-16.5v1.8zm63.84-31.62H258.9l-1.5.84 1.68-9.24h5.16v-.78q0-1.32-1.5-1.62l.6-1.56h14.1q-1.2.54-1.2 1.8v2.16h5.64l-1.2 8.4zm32.4 25.2l1.14.36v12.12q-4.98-1.02-7.98-5.1-2.7-3.6-3.24-8.64v14.4l-10.86 1.2v-8.1q-2.82 2.1-6.48 3.48-3.36 1.26-7.56 1.92 7.14-6.84 11.4-15.24l-6.48.84V31.48q0-1.44-1.38-1.74l.6-1.98h9.9V25.3h-9.06l-2.1.84 2.1-8.94h9.06v-.48q0-1.62-1.32-1.86l.54-1.26h12.78q-1.14.78-1.14 1.86v1.74h11.28l-1.08 8.1H303v2.46h10.56q-1.5 1.02-1.5 7.5v11.76l-7.38 1.02q2.46 2.88 6.36 4.26 1.5.42 2.04-1.2zm-32.28.66h-5.88q-.66 3.84-2.28 6.66-1.44 2.52-3.6 4.2-1.92 1.5-4.38 2.34-2.04.66-4.44.96 2.4-5.52 2.94-14.16h-4.68l-1.98.96 2.16-9.36h4.68v-2.4h-6.18l-1.32.84 1.92-9.24h2.76q.24-3.12-.84-5.4 7.86 0 9.72 5.4h.78q.3-1.44.18-3.06-.12-1.02-1.14-1.14l.42-1.2h10.02q0 3.24-2.82 5.4h5.58l-1.2 8.4h-5.82v2.4h6.6l-1.2 8.4zm10.44-12.3h3.24v-4.2h-3.24v4.2zm12.54 0v-4.2h-3.12v4.2h3.12zm68.94 6.12l1.26.42v15.72q-5.52-3.18-9-9.78l-.36 5.88h-6.18v6.42l-11.28 1.2v-7.62h-5.34l-1.68.96 1.26-6.9q-4.8 7.68-10.32 10.92v1.44l-11.52 1.2V35.08q-2.04.9-4.02 1.14 3.6-7.08 6.3-19.74.3-1.32-1.2-1.56l.54-1.38h12.84q-1.5 12.42-10.5 19.26h8.76q-1.2.66-1.2 2.16v27.36q.72-2.52 1.68-6.54l1.8-8.22q1.98-9.3 3-15.72h-3.6l-1.92.96 2.34-9.36h12.78v-7.32q0-1.02-1.26-1.02l.54-1.62h13.2q-1.2.36-1.2 1.8v8.16h14.82l-.9 8.4H360.9q2.52 4.56 5.46 8.76 2.7 3.84 4.38 5.4 1.32 1.32 1.98-.42zm-14.28 3.84h5.28q-3.42-7.92-3.54-17.58h-1.74v17.58zm-15.66 0h4.38V38.5q-1.56 5.76-4.38 10.92z"/></svg>