<svg viewBox="0 0 379 80" xmlns="http://www.w3.org/2000/svg"><path d="M34.96 59.4h-4.08v-2.94h-7.86v5.34h-4.08V38.34l4.08 1.2h1.68v-13.5h-8.64l-.3-1.2h8.94v-12.3l4.08 1.2v11.1h8.76v1.2h-8.76v13.5h2.1l4.08-1.2V59.4zM51.4 16.2l3.9-1.14v45.18q0 1.86-1.23 2.94-1.23 1.08-3.03 1.08l-7.08-3.24.06-.54 7.2.36v-16.2H43.3q-.48 6.48-2.52 11.37-2.04 4.89-6.36 9.87l-.54-.24q3.42-5.82 4.5-12.24t1.08-16.2V15.06l3.9 1.14h8.04zm-.18 1.2h-7.68v12.42h7.68V17.4zm-7.8 26.04h7.8V31.02h-7.68v7.56q0 1.86-.12 4.86zm-20.4 11.82h7.86V40.74h-7.86v14.52zM79.06 40.8q5.76-3.3 10.2-7.74-3.06-3.96-4.38-11.28l-5.52.9-.24-1.14 5.58-.9q-.48-2.76-.66-7.32l4.08 1.2q.06 2.82.48 5.52l16.32-2.58.24 1.14-16.38 2.58q.9 5.46 3.36 8.82 3.6-4.14 5.94-8.94l3.66 1.56q-3.6 5.52-7.92 9.42 1.62 1.68 3.93 2.58 2.31.9 4.53 1.14l1.26-5.04.48.12 1.74 4.98q0 1.62-.72 2.7t-2.34 1.14q-2.7.12-6-.96t-6.06-4.02q-4.92 3.66-11.28 6.54l-.3-.42zm-.96 15.12h-4.08V51.9h-4.86v5.82h-4.08V17.46l3.9 1.14h5.22l3.9-1.14v38.46zm-4.08-21.24V19.74h-4.86v14.94h4.86zm-4.86 16.08h4.86V35.82h-4.86v14.94zm35.58 3.6l1.44 8.28q-.36 1.02-1.44 1.44-1.08.42-3.18.42h-3.24q-2.16 0-3.12-.39t-1.29-1.56q-.33-1.17-.33-3.81V43.5h-3.96q-.12 5.22-1.32 9.12-1.2 3.9-3.93 7.14-2.73 3.24-7.47 6.18l-.3-.42q3.06-2.46 4.95-5.25 1.89-2.79 2.91-6.84 1.02-4.05 1.08-9.93H79.3l-.3-1.2h26.58v1.2h-7.92v15.72q0 1.02.24 1.29t1.08.27h3.54l1.62-6.6.6.18zm38.16-1.74q4.92 4.8 11.52 8.4l-2.04 3.24q-6.72-3.9-11.4-9.36-5.22 5.58-14.7 10.74l-.36-.42q8.4-6 13.26-12.54-5.46-7.32-6.78-16.26h-2.52l-.12 3.36q-.24 7.26-2.31 13.47-2.07 6.21-6.33 12.81l-.48-.36q2.82-5.82 3.99-12 1.17-6.18 1.29-14.04.12-3.24.12-12.42v-7.8l3.96 1.2h7.32V12.9l4.08 1.2v6.54h7.92q.18-.6.42-1.8l4.26 1.5q-1.08 2.22-3.06 4.83t-3.84 4.41l-.48-.24q1.2-2.94 2.46-7.5h-7.68v13.38h5.22l4.08-1.2q-1.8 11.04-7.8 18.6zM122.08 21l-2.7 3.48q-1.08-2.4-3.03-5.31-1.95-2.91-3.75-4.89l.3-.36q2.58 1.32 5.22 3.27 2.64 1.95 3.96 3.81zm7.92.84v3.66q0 3.6-.12 9.72h7.44V21.84H130zm-9.06 11.76l-3.18 3.36q-.84-2.4-2.76-5.58t-3.6-5.04l.3-.42q2.82 1.44 5.34 3.51t3.9 4.17zm.54 2.4l.6.18q-.72 7.26-2.52 15.09t-4.02 13.23L112 62.58q2.58-5.1 5.1-12.09 2.52-6.99 4.38-14.49zm11.58.42q1.98 7.56 7.68 13.98 4.08-6.3 5.64-13.98h-13.32zm50.1-3.36h18.96v1.2h-41.76l-.3-1.2h19.02v-6h-14.82l-.3-1.2h15.12V20.1h-16.86l-.3-1.2h17.16v-5.76l4.08 1.2v4.56h17.1v1.2h-17.1v5.76h15.06v1.2h-15.06v6zm8.1 5.52l3.96-1.2.06 24.12q0 1.8-1.2 2.91t-3 1.11l-6.66-3.24.06-.66 6.78.18v-7.98h-20.1v11.4h-4.08V37.38l4.08 1.2h20.1zm0 1.2h-20.1v5.82h20.1v-5.82zm-20.1 12.84h20.1V46.8h-20.1v5.82zm79.2-4.98v1.2H233.8v16.38h-4.08V48.84H208.3v-1.2h7.74V30.42l4.08 1.2h9.6V20.76H219.1q-3.6 9.6-10.02 16.44l-.42-.24q3.48-5.4 5.34-11.4 1.86-6 3-13.02l4.26 1.02q-.66 2.76-1.74 6h29.58v1.2h-15.3v10.86h13.56v1.2H233.8v14.82h16.56zm-30.24 0h9.6V32.82h-9.6v14.82zm43.5-24.78q-.12 5.58-4.26 9.24l-3.18-3.6q2.28-1.26 4.11-4.2 1.83-2.94 2.19-6.48l.54-.06q.48 1.92.6 3.9h13.74q-2.52-3.96-6.66-7.98l.24-.42q2.58.72 5.55 2.22 2.97 1.5 4.77 3.3l-2.7 2.88h14.34q.42-1.44.72-2.82l4.92 2.22q-1.38 2.58-4.08 5.94-2.7 3.36-4.98 5.22l-.48-.36q1.74-3.24 3.54-9h-28.92zm18.06 14.4Q285.52 48.84 298 59.1l-2.52 3.3q-5.16-5.04-8.88-10.83-3.72-5.79-5.52-14.31h-1.98V64.5h-4.08V43.44q-3.3 5.46-8.28 10.62-4.98 5.16-10.92 9.18l-.3-.42q6.06-5.82 10.47-12.09 4.41-6.27 7.47-13.47h-16.44l-.3-1.2h18.3v-9.54l4.08 1.2v8.34h18.6v1.2h-16.02zm41.04-1.14l-1.38-4.08 2.46-.36q3.18-7.26 5.46-18.54l4.68 1.74q-1.38 3.72-4.11 8.58-2.73 4.86-5.19 8.1l7.02-1.08q.78-2.1 1.86-5.4l4.26 2.16q-1.8 3.78-5.34 8.97-3.54 5.19-6.48 8.31 5.82-1.56 12-3.84l.24.54q-2.94 2.34-6.9 4.5-3.96 2.16-7.62 3.6l-1.26-3.96q1.86-.42 2.46-.6 3.3-5.4 6.12-12.54-4.2 2.4-8.28 3.9zm35.04-18.9l4.02-1.2v48h-4.02v-1.86h-14.1v3.06h-4.02v-49.2l4.02 1.2h14.1zm-9.06 1.2h-5.04v20.64h5.04V18.42zm9.06 0h-4.98v20.64h4.98V18.42zm-14.1 21.84v20.7h5.04v-20.7h-5.04zm9.12 20.7h4.98v-20.7h-4.98v20.7zm-31.02-2.82q3.96-1.56 8.4-3.78 4.44-2.22 8.34-4.56l.24.54q-2.76 2.94-7.29 6.36-4.53 3.42-8.13 5.34l-1.56-3.9z"/></svg>