<svg viewBox="0 0 300 80" xmlns="http://www.w3.org/2000/svg"><path d="M31.92 67.18H16.2V34.36h6.42V20.98h-7.44V18.1h7.44v-7.26h2.88v7.26h7.44v2.88H25.5v13.38h6.42v32.82zm15-19.98H37.8l-.6 20.7h-2.88l1.62-56.28H51.6v55.8h-7.68v-2.94h4.8V14.5h-9.96l-.42 13.98h8.58v2.94h-8.64l-.42 12.84h9.06v2.94zM29.04 64.24v-27h-9.96v27h9.96zM90 21.76l-6.24 5.7 6.18 10.98h-3.42l-5.04-8.94-10.32 9.42h-4.14L80.1 26.98l-4.86-8.76h-6.9v-2.88h5.28l-2.52-4.56h3.36l2.52 4.56h12.78v2.88H78.6l3.78 6.66 3.42-3.12H90zM66.24 67h-12.6V11.8h12.6V67zM62.1 40.9h-5.58v23.22h6.84V14.68h-6.84v23.34h5.58v2.88zm27.66 26.46h-8.34v-22.2H75.9l-5.04 22.68h-2.94l4.98-22.68h-4.56v-2.94h21.42v2.94H84.3v19.32h5.46v2.88zm36.72-39h-2.88V18.04h-6.84v15.72h9.06v2.94l-7.8 14.58 9.42 16.98h-3.42l-7.68-13.8-7.26 13.5h-3.36l8.88-16.62-6.36-11.52h3.42l4.62 8.4 6.24-11.58h-17.7l-.9 31.32h-2.94l1.62-52.8h11.28v-4.38h2.88v4.38h9.72v13.2zm-27.12-6.72h-3.18L90 10.96h3.18l6.18 10.68zm5.52 12.12h9V18.04h-8.52l-.48 15.72zm-5.52-.66h-3.18L90 22.36h3.18l6.18 10.74zm-.78 6.06l-5.64 28.56H90l5.58-28.56h3zm66.3 16.32h-37.32V52.6h3.54V20.5h13.74v-3.84h-17.1v-2.88h17.1v-2.82h2.94v2.82h16.86v2.88h-16.86v3.84h13.74v32.1h3.36v2.88zm-7.8-16.14h-23.04v5.16h23.04v2.94h-23.04v5.16h24.6V23.38h-24.6v4.98h23.04v2.88h-23.04v5.22h23.04v2.88zM137.76 57.1l-6.6 10.92h-3.54l6.6-10.92h3.54zm27.18 10.92h-3.6l-6.6-10.92h3.6l6.6 10.92zm12.54-56.94l-.06 39.72-3.72 17.16h-2.94l3.84-17.7V11.08h2.88zm15.3 56.58h-2.94V20.38h-5.22v40.5h-2.88V17.44h8.1v-6.36h2.94v6.36h8.1v43.14h-6.48v-2.94h3.6V20.38h-5.22v47.28zm-22.68-7.92h-2.88V16h2.88v43.74zm40.32 9.06h-2.88V25.9l-1.5 3.9h-3.3L210.3 10h3.3l-3.18 8.34V68.8zm23.94-11.04h-6.3v10.2h-2.88v-10.2h-6.78v-2.94h6.78V17.5h-11.7v-2.88h11.7v-4.56h2.88v4.56h11.7v2.88h-11.7v37.32h6.3v2.94zm-13.26-37.5l-4.62 47.82h-2.94l4.62-47.82h2.94zm18.12 47.82h-2.88l-4.98-47.82h2.88l4.98 47.82z"/></svg>