<svg viewBox="0 0 390 80" xmlns="http://www.w3.org/2000/svg"><path d="M35.34 20.34l-11.94 8.1h-8.1v-7.2h9.78V15.9h10.26v4.44zm29.46-3.66h9.66V57.9l-3.06 5.4H59.04l2.4-7.2h2.76l.6-1.02v-4.86h-7.86v8.16l-3 4.92h-9.42l1.56-7.2h1.26V21.9l3.42-5.22H63v7.2h-5.1l-.84 1.56v4.44h7.74v-13.2zM44.64 35.7v21.36l-3.48 6h-12l5.22-8.28V42.9H27l-.84 1.62v11.34h5.58l-4.68 7.2H15.84V41.28l4.02-5.58h5.22v-6.24l12.12-8.22h7.98v7.2h-9.84v7.26h9.3zm19.86 7.32v-5.94h-7.74v5.94h7.74zm46.8-15.48l-.78-3.3h-10.26v-6.72h8.64l-.36-1.56h10.44l.36 1.56h14.58v6.72h-12.9l.36 1.38-10.08 1.92zm-23.88-3.12l2.28-7.2h8.58V55.5l-2.22 6.72H86.4l2.22-8.28V43.38h-3v11.64h1.32l-2.04 7.2h-8.94V23.94l2.58-6.72h9.66l-2.58 7.8v11.16h3V24.42h-1.2zm27 16.5l-1.26-5.4-12.9 2.46v-6.72l33.42-6.36v6.72l-10.26 1.98.18.72h10.98l-2.4 6.6h-17.76zm15.84 15.18h4.44l-2.4 7.2H120V49.92h-5.88l-3 13.38H99.36l1.5-7.2h1.68l1.32-6.18h-4.38v-7.2h35.1v7.2h-4.32v6.18zm11.28-15.6l-6.24-12.54h5.94l-5.94-11.88h10.44l2.58 5.34h4.2l-3 7.2h-3.48l2.28 4.68h4.2l-3 7.2h-7.98zm46.14 15.6H195l-2.94 7.2h-9.72L179.1 60l-3.12 3.3h-12.66l2.94-7.2h4.2l2.34-2.52-8.22-8.4V57l-5.16 6.3h-9.6l3-7.2h1.2V25.44l4.98-6.66h9.48v7.2h-2.7l-1.2 1.5v7.56h5.7V16.08h10.62v2.7h13.62v7.2l-1.26 6.78h-9.36l1.08-6.78h-4.08v9.06h12.3v9.9l-7.14 7.62-6.42-6.36 2.94-2.88v-1.08h-18v2.4h10.86l12.24 11.46zm-45.54-13.68h10.26l-5.22 21H135l1.5-7.2h2.16l3.48-13.8zm78.72-22.74v7.2h-25.5v-7.2h11.22v-3.54h9.96v3.54h4.32zm5.88-2.82h11.82l-5.88 8.04V57l-4.2 6.12h-9.36l1.8-7.2h1.5V23.28l4.32-6.42zm23.4 38.7h4.44l-2.4 7.2h-12.3V24.84h-5.28l5.88-7.98h9.66v38.7zm-53.52.06l1.68-27.12h7.56l-2.1 34.32H195l.6-7.2h1.02zm24.24-12.66l-4.32-2.16v22.5h-9.96V28.5h9.96v3.6l4.32 2.16v8.7zm35.7 10.26V22.8l4.26-6.18h40.5v7.2H290.1v6.6l-11.76 8.1h-11.52v14.7h-10.26zm12.06 0v-7.2h11.22v-6.36l12.12-8.34h11.16v-14.7h10.26v30.24l-4.26 6.36H290.1v10.14h-10.26V53.22h-11.22zm-1.8-21.9h13.02v-7.5H267.9l-1.08 1.74v5.76zm23.28 14.7h11.82l1.2-1.74v-5.76H290.1v7.5zm44.58-29.88l-6.6 17.76h3.06v29.4h-10.26V37.8h-5.76l1.2-7.2h2.7l5.4-14.46h10.26zm12.78 11.94h-1.32l-3.78 34.26h-10.62l.78-7.2h1.02l3.06-27.06h-2.1v-7.2h14.1v-4.74h10.32v3.84l-11.46 8.1zm11.46 0v21.78h3.66v7.2h-3.66v6.12H348.6v-6.12H345v-7.2h3.6V29.28l11.88-8.4h12.6v7.2h-14.16zm15.06 27.06H375l-1.2 7.2h-8.52l-3.78-32.52h9.54l2.94 25.32z"/></svg>