<svg viewBox="0 0 318 80" xmlns="http://www.w3.org/2000/svg"><path d="M21.94 56.44V40.72h8.88v15.72h-8.88zm-3.36-18.3v24.78q2.22-.18 3-.96.36-.42.36-1.02v-4.08h8.88v3q1.14-.06 1.89-.3t1.11-.6q.42-.42.42-1.14V40.36l.06-.12q.42-.48.3-.9-.12-.24-.84-.6t-2.94-.6v2.16h-2.94V25.6h9.48q-.48-1.2-1.26-1.86-.78-.66-1.44-.78-.06 0-.12-.03t-.18-.03q-1.8 0-3.06 2.1l-.12.18h-3.3V14.74l.06-.06q.42-.54.3-.96-.12-.3-.87-.63t-2.91-.51v12.6H15.7q-.3 0-.36.06 0 .06-.03.12t-.03.24h9.18v14.7h-2.28l.18-.54q.06-.24-.06-.48-.18-.24-.93-.57-.75-.33-2.79-.57zm25.14-20.4v-.42h8.88v12.72h-8.82v-3.93q0-1.77-.06-3.45v-4.92zm.06 13.14v-.42h8.82V43h-8.88v-.42q.06-1.92.06-5.01v-6.69zM52 65.68q1.62 0 2.82-1.41 1.2-1.41 1.2-3.27V16.72l.06-.06q.42-.6.24-1.02-.12-.3-.81-.69-.69-.39-2.91-.57v2.52h-9l.36-.6q.18-.3.18-.48t-.06-.3q-.24-.36-1.14-.72-.9-.36-2.64-.48v27.54q-.06 4.2-.45 7.5t-1.2 6.03q-.81 2.73-2.13 5.13-1.32 2.4-3.24 4.8 5.04-4.62 7.56-9.87 2.52-5.25 2.88-11.67v-.36h8.88v15.96q0 1.44-.96 1.89-.96.45-2.58.45-.42 0-.87-.03t-.99-.09h-.12q1.92.36 2.61.72t.69 1.14q0 1.5.57 1.86.57.36 1.05.36zm29.58-25.44q2.7-1.32 5.01-2.67 2.31-1.35 4.35-2.85l.24-.18.24.24q1.56 1.62 3.24 2.61 1.68.99 3.27 1.47t2.88.63q1.29.15 2.07.15.3 0 .57-.03.27-.03.57-.03 1.68-.12 1.86-1.14.12-.48-.15-.9-.27-.42-.81-.66-.48-.24-.99-.63t-.33-1.41l.42-2.34-.24.6q-.42 1.44-.96 2.1-.54.66-1.56.66h-.42q-.54-.06-1.35-.27-.81-.21-1.71-.57-.9-.36-1.86-.93-.96-.57-1.74-1.41l-.3-.3.3-.3q1.92-1.68 3.57-3.54t3.15-3.96l.12-.18h.24q.12 0 .18.03t.18.03q.96 0 1.08-.42.06-.24-.66-.96t-3.3-1.68q-2.04 4.5-5.88 9l-.3.42-.3-.48q-2.58-3.42-3.54-9.06l-.06-.42 16.68-2.76q-.66-1.08-1.47-1.5-.81-.42-1.47-.42-1.02 0-1.83.66t-1.35 1.86l-.06.18L88.6 20.5l-.06-.42q-.18-1.08-.3-2.34-.12-1.26-.24-2.64v-.18l.12-.12q.66-.6.54-.84-.06-.12-.57-.36t-2.43-.24h-.96q.06 1.86.21 3.63.15 1.77.39 3.57l.06.42-5.46.84q-.12.06-.21.06t-.15.12q-.06.06-.06.3l5.94-.96.06.36q1.44 7.26 4.44 11.34l.24.3-.24.24q-1.86 1.8-3.96 3.48-2.1 1.68-4.38 3.18zm-13.02-4.92V19.18h5.82v16.14h-5.82zm0 16.56v-16.2h5.82v16.2h-5.82zm-3.42-35.22v41.52q2.28-.12 3-.9.42-.42.42-1.14v-3.9h5.82v4.74q2.28-.18 2.94-.96.42-.42.42-1.08V18.88l.06-.12q.48-.6.3-.96-.12-.24-.87-.6t-2.85-.54v2.16h-5.7l.18-.54q.12-.36-.06-.54-.12-.24-.87-.57-.75-.33-2.79-.51zM78.52 65.5q3.3-2.28 5.4-4.74 2.1-2.46 3.33-5.13t1.71-5.55q.48-2.88.6-6.06v-.42h4.92v16.08q0 1.92.15 3t.63 1.62q.48.54 1.35.69.87.15 2.31.15h3.06q2.1 0 3.12-.39t1.26-1.23q.12-.48.03-.87t-.75-1.23q-.6-.72-.54-1.65.06-.93.72-3.27l-.66 1.68q-.84 2.04-1.53 3-.69.96-2.25.96h-1.8q-1.14 0-1.44-.45-.3-.45-.3-1.53V43.6h7.74q-.54-1.5-1.86-1.8h-.24q-1.14 0-2.04 1.2l-.18.18H79.6q-.24 0-.3.12-.12 0-.12.3h7.02v.42q-.06 4.32-.6 7.62t-1.53 5.82q-.99 2.52-2.4 4.47-1.41 1.95-3.15 3.57zm33.78-38.82q2.88 1.5 4.77 3.06 1.89 1.56 2.73 3.06.12.24.21.57.09.33-.06.78t-.54 1.05q-.39.6-1.23 1.38-.48-1.14-1.14-2.49-.66-1.35-1.47-2.67-.81-1.32-1.65-2.55-.84-1.23-1.62-2.19zm2.88 38.58q-.54 0-1.23-.57t-1.35-1.23q.72-1.44 1.8-3.93t2.37-5.82q1.29-3.33 2.61-7.38 1.32-4.05 2.52-8.67-.42 3.6-1.05 7.44-.63 3.84-1.41 7.38-.78 3.54-1.65 6.63-.87 3.09-1.71 5.25-.24.6-.48.75-.24.15-.42.15zm23.34-29.34V21.34h-8.34v.42q.06 3.84 0 7.47t-.12 6.27v.42h8.46zm12.66-16.8q2.64.66 3.51 1.23.87.57.87.87 0 .48-1.26.6l-.24.06-.06.18q-.84 1.38-2.34 3.21t-3.36 3.75q.66-1.86 1.2-3.6.54-1.74 1.02-3.6l.12-.48h-8.76v14.58h5.94l.36-1.98q2.64.36 3.51.87.87.51.93.75 0 .36-.9.6l-.18.06-.06.24q-1.2 5.1-3.15 9.27t-4.83 7.71l-.18.3.24.24q2.46 2.46 5.4 4.59 2.94 2.13 6.12 3.75-.48 1.8-.96 2.28-.48.48-.9.48-.54 0-1.38-.48-2.7-1.62-5.31-3.78-2.61-2.16-4.71-4.74l-.3-.36-.3.36q-2.46 2.46-5.46 4.65-3 2.19-6.9 4.41 2.7-1.98 5.64-4.62 2.94-2.64 5.58-6.18l.18-.24-.18-.24q-2.64-3.6-4.29-7.59-1.65-3.99-2.19-8.31.96 3.6 2.88 7.05 1.92 3.45 4.8 6.69l.36.42.3-.48q1.92-3.24 3.39-6.96 1.47-3.72 2.31-7.86l.12-.48h-17.7v.36q-.06.48-.06.9v.84q0 .48-.03.87t-.03.87q-.12 3.42-.6 6.54t-1.44 6.15q-.96 3.03-2.4 6.12-1.44 3.09-3.48 6.45 1.38-3.18 2.28-6.27.9-3.09 1.44-6.21.54-3.12.75-6.3.21-3.18.33-6.6 0-1.68.03-3.96.03-2.28.06-4.74.03-2.46.03-4.98v-7.62q2.28.18 2.97.57.69.39.81.51 0 .12.03.21t-.09.27l-.3.6h8.16V13q2.16.18 2.88.51.72.33.84.63t-.24.96l-.12.12v5.7h8.88l.06-.3q.06-.3.12-.51.06-.21.12-.45.06-.12.06-.27 0-.15.06-.27zm-29.88.9q1.02 1.56-1.5 3.78-1.56-3.12-3.06-5.46t-3-3.9q2.28 1.2 4.41 2.7 2.13 1.5 3.15 2.88zm39.12 6.3q1.14.66 2.43 1.53 1.29.87 2.4 1.8 1.11.93 2.01 1.86.9.93 1.38 1.71 1.02 1.74-1.68 3.9-.48-1.2-1.29-2.7-.81-1.5-1.71-3-.9-1.5-1.83-2.85t-1.71-2.25zm3.72 38.46q-.48 0-1.2-.57t-1.38-1.29q1.08-2.1 2.34-4.92 1.26-2.82 2.55-6.15 1.29-3.33 2.58-7.11 1.29-3.78 2.43-7.86-.54 3.78-1.26 7.74-.72 3.96-1.59 7.56-.87 3.6-1.77 6.63t-1.8 5.01q-.3.66-.54.81-.24.15-.36.15zm26.34-13.8q2.46-1.98 4.23-3.81 1.77-1.83 3.15-3.81 2.28 1.26 2.97 2.01.69.75.63 1.05-.12.24-.78.24h-.39q-.21 0-.45-.12l-.18-.06-.18.12q-1.62 1.08-3.99 2.25t-5.01 2.13zm-11.52-20.4v8.28h15.42v-8.28h-15.42zm0-8.94v8.52h15.42v-8.52h-15.42zm11.34 30q2.34 2.76 5.61 5.13 3.27 2.37 7.83 4.59-.84 3-2.16 3-.78 0-1.56-.54-6.54-4.2-10.41-10.17t-5.31-14.01l-.06-.36h-5.28v20.64l.54-.12q2.34-.66 4.41-1.29 2.07-.63 4.59-1.47-1.74 1.2-3.27 2.19t-3.12 1.89q-1.59.9-3.3 1.74-1.71.84-3.75 1.8-.42.24-.78.24-.3 0-.48-.18-.36-.42-.45-1.41-.09-.99-.09-1.95.3-.06.57-.12.27-.06.57-.18l.9-.18.3-.06V19.06q2.1.18 2.82.51.72.33.9.57.12.24 0 .54l-.24.54h15.3v-2.16q2.16.18 2.91.51t.87.63q.12.42-.3.96l-.06.12v18.84q0 .72-.42 1.14-.72.78-3 .9v-2.88H184.3l.12.54q.84 3.36 2.16 6.06 1.32 2.7 3.24 5.1l.12.18.36.48zm-8.76-38.52q2.28.78 4.29 1.89 2.01 1.11 2.85 2.13.48.6.42 1.2-.06 1.08-1.38 2.16l-.48.42-.18-.3q-1.08-1.92-2.61-3.96-1.53-2.04-2.91-3.54zm-11.34 7.2q.48.6.36 1.53t-1.92 2.31q-.54-1.08-1.35-2.4-.81-1.32-1.77-2.64t-1.98-2.64q-1.02-1.32-1.98-2.4 3.24 1.56 5.52 3.21 2.28 1.65 3.12 3.03zm48.12 4.02q.9-.78 1.32-1.38.42-.6.54-1.08.12-.48-.03-.87t-.39-.69q-1.02-1.32-3.54-2.91t-6.06-3.21q.84.84 1.98 2.07 1.14 1.23 2.31 2.64 1.17 1.41 2.19 2.85 1.02 1.44 1.68 2.58zm11.34-2.58V16.6h14.52v5.16h-14.52zm0 5.28v-4.86h14.52v4.86h-14.52zm-3.42-13.08v15.66q1.2-.12 2.25-.45t1.17-1.35v-.36h14.52v1.68q2.34-.18 3-.96.42-.42.42-1.08V16.12l.06-.06q.42-.54.3-.96-.12-.3-.87-.66-.75-.36-2.91-.48v2.22h-14.46l.24-.54q.12-.36 0-.6t-.87-.57q-.75-.33-2.85-.51zm-9.78 22.92q2.58-2.34 1.32-4.14-.54-.78-1.59-1.71-1.05-.93-2.34-1.83-1.29-.9-2.67-1.71-1.38-.81-2.52-1.29.9.84 2.01 2.16 1.11 1.32 2.19 2.79 1.08 1.47 2.04 2.97.96 1.5 1.56 2.76zm10.02 5.94V32.8h4.8v10.02h-4.8zm8.16 0V32.8h4.56v10.02h-4.56zm7.92 0V32.8h4.5v10.02h-4.5zM223.12 30.1v15.6q2.1-.06 3-.96.36-.36.36-1.08v-.42h20.58v2.1q1.98-.12 2.64-.84.42-.42.42-1.2V32.68l.06-.12q.54-.6.3-1.02-.12-.24-.78-.57-.66-.33-2.64-.51v1.98h-20.58l.3-.6q.12-.3.09-.42t-.09-.24q-.12-.3-.9-.6t-2.76-.48zm-9.84 34.26q.12 0 .36-.09t.54-.75q.9-1.98 1.92-5.01t1.98-6.63q.96-3.6 1.83-7.59.87-3.99 1.53-7.89-1.08 3.54-2.4 7.11-1.32 3.57-2.7 6.99-1.38 3.42-2.82 6.48-1.44 3.06-2.76 5.58.66.72 1.35 1.26.69.54 1.17.54zm8.76 1.38q8.16-1.98 14.34-5.64l.24-.12.18.12q1.62 1.08 3.33 1.89 1.71.81 3.27 1.41 1.56.6 2.88.96 1.32.36 2.28.54.9.18 1.44.18.84 0 1.2-.48t.6-2.16q-2.52-.36-5.85-1.17-3.33-.81-6.75-2.37l-.66-.3.6-.42q2.76-2.1 4.83-4.44 2.07-2.34 3.33-4.98l.12-.12.18-.06q.84-.18 1.05-.36.21-.18.21-.24 0-.24-.9-.72t-3.18-.96q-.12.3-.27.66-.15.36-.27.72l-.12.24H225.7q-.24 0-.3.06-.12.12-.12.36h18.6l-.3.54q-2.4 4.8-6.66 8.52l-.24.18-.24-.12q-5.46-3.06-8.1-7.62 1.86 4.98 6.42 8.7l.36.3-.42.3q-5.04 3.78-12.66 6.6zm50.94-52.26q1.02.3 2.13.78 1.11.48 2.19 1.11 1.08.63 2.04 1.35.96.72 1.62 1.5.06.12.21.36t.12.6q-.03.36-.27.87-.24.51-.9 1.23l-.42.48-.24-.42q-1.2-2.04-2.88-4.05t-3.6-3.81zm27.48 8.4q0 .18-.36.36t-.9.24l-.18.06-.12.18q-1.2 1.92-3.12 4.41-1.92 2.49-4.02 4.47.84-1.68 1.71-3.99.87-2.31 1.59-4.71l.18-.54h-31.02l-.06.42q-.12 2.52-.81 4.53-.69 2.01-1.83 3.21-.84.9-1.86.9-.9 0-1.44-.72-.66-.84-.36-2.34.96-.48 1.95-1.38.99-.9 1.83-2.13.84-1.23 1.5-2.79t.96-3.42q.12.84.12 1.53v1.77h31.14l.12-.3q.12-.54.24-.99.12-.45.24-.93 1.68.42 2.61.81.93.39 1.35.69.42.3.48.48l.06.18zm-19.92 7.2l-.06.12v7.44h12.9l.12-.18q1.26-2.1 3.06-2.1.12 0 .18.03t.18.03q.66.12 1.41.78.75.66 1.23 1.86h-19.08v25.98q0 .72-.42 1.14-.72.78-2.94.9V42.34l-.78 1.26q-3.06 5.22-7.71 10.14-4.65 4.92-10.35 9.12 5.58-5.28 9.81-11.52 4.23-6.24 7.35-13.74l.24-.54h-17.4q0-.3.06-.36t.36-.06h18.42v-9.66q2.1.18 2.85.51t.87.63q.18.3-.3.96zM296.5 61.3q-.84-.6-2.46-2.22t-3.48-4.32q-1.86-2.7-3.72-6.54t-3.12-8.94q1.32 3.42 3.21 6.36 1.89 2.94 4.05 5.43 2.16 2.49 4.41 4.5t4.29 3.57q-.72 2.7-2.04 2.7-.54 0-1.14-.54z"/></svg>