<svg viewBox="0 0 504 80" xmlns="http://www.w3.org/2000/svg"><path d="M40.12 22.9q1.44 1.02 1.29 2.61-.15 1.59-1.77 2.31-.9.48-1.95.78-1.05.3-2.13.6-.3.18-.54.24-.24.06-.66.18-2.04.42-2.64 1.83-.6 1.41-1.02 3.03-.18.78-.48 1.02-.18.18-.45.27l-.63.21q-.12-.72-.06-1.08 0-.3.09-.48t.09-.42q.12-1.56-.15-1.77-.27-.21-1.65.39-1.86.72-3.72 1.29-1.86.57-3.96.21-1.08-.12-1.95-.45-.87-.33-1.53-1.23-.18-.24-.27-.48-.09-.24-.15-.3 0-1.02.45-1.62.45-.6 1.23-.54 1.8 0 3.33-.51t3.15-1.17q1.32-.42 2.49-.99 1.17-.57 2.49-1.05 1.26-.54.9-1.92-.36-1.44-.63-2.91-.27-1.47-.51-2.91-.18-.48-.06-1.02t.3-.96q.12-.3.57-.6.45-.3.81-.3.96.18 1.44 1.08.42.72.66 1.53.24.81.66 1.53.6 1.56 1.74 2.34 1.14.78 2.94.6.54-.06 1.17.12.63.18 1.11.54zm-1.14 13.2q.96-.12 1.32.51.36.63-.12 1.53-.78 1.2-1.59 2.37-.81 1.17-1.71 2.37-.18.24-.39.45-.21.21-.33.45.24.24.42.45.18.21.54.45-.36.3-.54.6-.18.3-.54.42-1.14.54-2.28.96-1.14.42-2.34.78-.24.12-.69-.12-.45-.24-.57-.54-.18-.18.06-.63t.48-.69q1.08-.84 2.16-1.74l2.16-1.8q.6-.66 1.14-1.47.54-.81 1.2-1.53-.12-.18-.15-.21t-.09-.21q-.84.24-1.56.48-.72.24-1.44.6-1.32.48-2.58.99t-2.52 1.11q-1.8.66-1.26 2.34.42.9.63 1.83.21.93.51 1.83 1.56 3.72-1.26 5.16-1.56.72-3.18.12t-2.4-2.22q-.42-.72-.66-1.5-.24-.78-.24-1.56 0-2.1.12-4.17t.3-4.17q.06-.6.33-1.11.27-.51.69-.99.66-.84 1.47-.84.81 0 1.47.9.3.42.54.93.24.51.42.99.42 1.02 1.44.6 2.04-.9 4.02-1.68 1.98-.78 4.02-1.56 1.44-.48 3-.48zm13.92-6.24q.48-.12 1.05.06.57.18.99.6.54.36.42.93-.12.57-.54.99l-.96.96q-.48.48-1.02.96l-.24-.24q.06-.54.15-1.11.09-.57.21-1.23-1.14.24-2.07.48-.93.24-1.95.6v7.02q1.2-.12 2.34-.66t2.52 0q-.42.78-.99 1.17-.57.39-1.2.63t-1.29.45q-.66.21-1.14.63-.18.54-.27 1.2-.09.66-.39 1.2-1.14 2.04-3.48 1.56-2.4-.42-2.82-2.76-.18-1.38-.3-2.76t.06-2.76q.36-3 .93-5.91.57-2.91 1.17-5.85.24-1.14.93-1.74.69-.6 1.59-.66 1.02-.06 1.68.48.66.54.66 1.68.06 1.26.06 2.46v2.4q.96-.24 1.95-.48t1.95-.3zm5.16-7.14q.12 1.68 0 3.3-.06 6.9-.09 13.8t-.21 13.74q-.06 2.22-.15 4.35-.09 2.13-.15 4.35-.12.24-.15.57-.03.33-.21.45-.18.24-.45.36t-.45.12q-.12 0-.36-.24l-.36-.36q-.06-.66-.06-1.32v-1.32q0-5.16.03-10.35.03-5.19.15-10.41 0-4.14.06-8.13.06-3.99.06-8.07v-1.98q0-.96-.12-1.92-.18-.96-.36-1.5t-.45-.81q-.27-.27-.81-.45t-1.5-.36q-.3-.06-.96-.36.18-.18.36-.42t.48-.3q2.16-.84 3.75.3 1.59 1.14 1.71 3.66.24 1.62.24 3.3zm47.88 24.72q-1.2-1.14-2.37-2.34-1.17-1.2-2.31-2.4-.18-.12-.48-.42l-1.68-2.7q-.18-.12-.3-.33-.12-.21-.3-.45-.36-.84-.57-.9-.21-.06-1.11.3-1.68.9-3.39 1.77-1.71.87-3.39 1.77-.42.24-.9.3-.48.06-1.02.24-1.08.24-1.44-.54-.3-.9.48-1.62 1.38-1.14 2.64-2.28 1.26-1.14 2.58-2.28.6-.6 1.11-1.2.51-.6 1.05-1.26.42-.36.21-1.26T94 30.7q-.24-.06-.66.06-.9.24-1.83.57-.93.33-1.83.69-1.56.36-2.04-.66-.54-1.14.78-1.86 1.44-.84 2.88-1.5.72-.36.81-.57.09-.21-.33-.87-.66-1.02-1.38-2.04-.72-1.02-1.38-2.1-.12-.12-.09-.42t.03-.54q.3-.06.69-.15.39-.09.51.09.6.48 1.08 1.05.48.57 1.14 1.05.6.54 1.29 1.08.69.54 1.47 1.08.36.36.78.24.42-.12.84-.3 1.38-.48 2.79-.93 1.41-.45 2.79-.87.78-.18 1.47.12t1.11.96q.48 1.14-.66 2.28-.66.54-1.26 1.11-.6.57-1.32 1.23.66.3 1.17.54.51.24.99.6.42.3.84.63t.66.75q.24.36.12.9t-.6.84q-.9.66-1.89 1.26-.99.6-1.95 1.26-.72.42-.75.54-.03.12.45.78 1.14 1.38 2.13 2.67t2.13 2.49q3.66 3.9 8.52 6.06.18.12.42.12t.42.06q.24.06.72.42-.18.12-.3.3t-.3.24q-1.44.84-3.3.42-1.56-.3-2.82-1.08-1.26-.78-2.4-1.86zM96.58 35.5l-.36-.84q-.48.42-.87.78-.39.36-.81.78.18.12.24.3.48-.3.93-.54.45-.24.87-.48zm0-4.5q.42-.36.78-.78.36-.42.78-.84v-.3q-.18 0-.27-.03-.09-.03-.27-.03-.36.12-.81.33-.45.21-.87.45-.06.06-.15.24t-.03.36q.12.12.24.33.12.21.24.39.18 0 .24-.06t.12-.06zm2.34 3.48q.48-.24 1.05-.48.57-.24 1.23-.66 1.38-.78 1.32-1.26-.06-.48-1.44-1.32-.12-.06-.33-.09-.21-.03-.27.03-1.32 1.2-2.52 2.52-.36.42-.03.9.33.48.99.36zM85.24 32.8q.06 2.58 0 5.13t-.06 5.13q-.12 1.02-.03 1.95.09.93.09 1.89 0 .96-.24 1.92-.24.66-.99.96-.75.3-1.35-.12-.42-.18-.78-.45-.36-.27-.78-.63-.42-.36-.9-.81-.48-.45-.9-.87-.54-.48-1.02 0-.66.54-1.26 1.05T75.82 49q-.48.3-.3.72.06.72.15 1.41t.15 1.41q0 2.4-2.16 2.76-1.08.18-2.04-.39-.96-.57-1.32-1.53-.12-.9-.3-1.83t-.18-1.83q-.06-2.4-.03-4.89.03-2.49.21-4.89.18-1.86.57-3.69.39-1.83.81-3.69.18-.48.51-.93.33-.45.69-.75.24-.18.66-.3.42-.12.66.06.78.3.78 1.02.12 1.68.12 3.36v3.36q1.14-.3 2.13-.63t2.07-.63q.24-.12.78-.12 1.08 0 1.53.66.45.66-.03 1.56-.6 1.14-1.23 2.19t-1.29 2.19q-.66.84.24 1.26 1.62 1.08 3.54 2.22.18-.66.39-1.26.21-.6.27-1.2.18-2.88.21-5.82.03-2.94.15-5.82 0-1.32-1.26-.72-1.14.6-2.13 1.29-.99.69-2.07 1.35-.3.36-.66.42h-.39q-.27 0-.39-.18-.18-.06-.15-.3t.21-.42l.96-1.08q.48-.54 1.14-.96.9-.48 1.74-.96t1.74-.78q1.38-.54 2.13-.03t.81 2.19zm-9.9 14.4q.66-.78 1.05-1.2.39-.42.45-.69.06-.27-.36-.57-.42-.3-1.38-.84h-.18q.12.78.18 1.59t.24 1.71zm2.82-3.78q.42-.84.75-1.59.33-.75.63-1.65.18-.36.18-.63t.06-.69l-.24-.24q-.84.42-1.8.69-.96.27-1.8.69-1.02.42-1.14 1.14-.12.72.72 1.44.42.36.78.6.36.24.78.54.78.48 1.08-.3zm45.96 10.98q.18.6-.15.93-.33.33-.81.45-2.1.54-4.14.78-1.8.24-3.51.39-1.71.15-3.45.33-.72.06-1.47.06t-1.47.06q-1.62.12-3.33.18t-3.33-.06q-1.5-.12-2.88-.51t-2.52-1.59q-.96-1.02-1.26-2.19-.3-1.17-.12-2.43.06-.9.24-1.68.18-.78.3-1.68.12-.12-.12-.6-.6.54-1.11 1.02-.51.48-1.11 1.08-1.14 1.14-2.19 2.31-1.05 1.17-2.19 2.37-.54.54-1.02 1.08l-.96 1.08-.48.54q-.42.24-.78.39-.36.15-.78-.27-.42-.42-.21-.72t.45-.66q1.38-1.74 2.85-3.48 1.47-1.74 2.91-3.66.06-.06.15-.21t.27-.39q-.66.12-1.2.21-.54.09-1.02.27-.42.06-.78.06h-.78q-1.08-.18-.36-.96.9-1.14 2.07-1.83 1.17-.69 2.55-1.23 1.14-.6 2.37-1.08 1.23-.48 2.49-.96 2.1-.96 3.54.48.18.9-.27 1.41-.45.51-1.29.93-.6.24-.78.84-.42 1.62-.81 3.18-.39 1.56-.33 3.3.06 1.14.57 1.77.51.63 1.59.87 2.22.48 4.41.54 2.19.06 4.47-.12 1.26-.18 2.52-.21t2.58-.21q1.38-.18 2.82-.3t2.94-.24q.78-.18 1.59-.3t1.71-.3q.54-.06.99.27.45.33.63.69zm58.62 2.52q.24.06.45.36.21.3.45.48-.24.12-.48.36t-.6.36q-1.86.12-3.72-.03t-3.78-.57q-3.66-.78-7.02-2.07-3.36-1.29-6.6-3.03-1.62-.9-3.06-2.01-1.44-1.11-3-2.25-.18-.18-.33-.3-.15-.12-.27-.18-.84.6-1.74 1.17t-1.8 1.05q-2.04 1.02-3.42-.84-.96 1.2-2.1.84-.66-.12-1.05-.78t-.45-1.44q-.24-4.74.84-9.6.54-2.34 1.2-4.65.66-2.31 1.68-4.59.12-.36.45-.78.33-.42.75-.84.18-.12.48-.18t.54.06q.42.24.42.9-.12.96-.33 1.89-.21.93-.39 1.89-.06.42-.15.81-.09.39-.27 1.05.72-.48 1.29-.9.57-.42 1.17-.78l.06-.12q1.8-.6 2.16-1.98.36-1.38.6-2.88l1.2-6.06q.12-.3.39-.63t.45-.33q.42.06.78.3.36.24.42.48.24.9.33 1.77.09.87.15 1.71.12.9.06 1.83t-.06 1.95q.66-.36 1.32-.63t1.26-.51q1.14-.48 2.31-.9 1.17-.42 2.43-.72.36-.18.99-.03t.93.51q.24.3.21.9-.03.6-.27 1.02-1.32 2.28-3.06 3.87-1.74 1.59-4.32 2.19-.42.12-.87.03t-.81-.15q0-.12-.06-.15t-.06-.21q5.28-1.44 8.1-6.3-.06-.18-.06-.21t-.12-.21q-.48.18-.99.21t-.99.21q-1.32.48-2.58 1.05-1.26.57-2.52 1.11-1.14.42-1.14 1.5 0 .9-.09 1.83t-.15 1.83q.54 0 .99-.06.45-.06.87-.06 1.02 0 1.59.78.57.78.33 1.74-.54 1.8-1.26 3.06-1.08 1.62-2.13 3.3-1.05 1.68-2.19 3.42.66.42 1.41.99.75.57 1.65 1.05 1.56.9 3.03 1.68 1.47.78 3.09 1.38 2.58 1.08 5.07 1.98 2.49.9 5.13 1.62 1.74.54 3.57.78 1.83.24 3.69.66zm-28.32-11.64q1.62-1.86 2.82-3.72 1.2-1.86 1.62-4.38-.66.24-1.2.66-1.26.78-2.46 1.56t-2.4 1.5q-.48.3-1.02.15t-.72-.57q-.12-.3 0-.75t.24-.87q.18-.42.54-.6.36-.18.72-.54.12-.18.36-.33.24-.15.24-.39.18-1.08.3-2.16t.3-2.22q-.42.36-.78.6-.36.24-.78.54-.66.42-1.2.87-.54.45-1.14.93-.66.54-.93 1.35t-.39 1.71q-.24 1.62-.42 3.15-.18 1.53-.36 3.09-.06.72.09 1.5t.21 1.5q.12.9.72 1.26t1.26-.06q.9-.66 1.65-1.23.75-.57 1.59-1.17-1.32-1.8-2.34-3.42-.18-.3-.48-.69-.3-.39.24-.75.48-.42.75-.03t.63.75q.54.66 1.11 1.38.57.72 1.23 1.38zm-14.46 1.68q.6-.54 1.08-1.08.48-.54 1.02-1.02h.18l-.96 3.66q-.3 1.14-.63 2.31-.33 1.17-.75 2.31-.3 1.02-1.08 2.16-.3.42-.78.57-.48.15-.96-.15-.96-.48-.84-1.86.18-.96.39-1.95.21-.99.33-1.95.12-.54.03-1.11-.09-.57-.15-1.17-.36-1.86.54-2.34 1.2-.48 2.22 1.14.24.24.36.48zm-.36-6.9q-.24 1.14-.69 2.04-.45.9-1.17 1.56-2.22 1.68-4.26 2.88-.36.24-.87.3t-.87.06q-.9 0-1.23-.63-.33-.63.15-1.23.96-1.62 2.52-2.76.9-.84 1.98-1.44t2.34-.78q.54-.06 1.02-.03t1.08.03zm.84-6.84q-1.44-.42-2.58-1.2-1.14-.78-2.16-1.8-.48-.6-.66-1.2-.18-.6.18-1.08.72-1.08 2.16-.6 1.74.48 3 2.04 1.32 1.56.06 3.84zm84.66 8.16q3.54 2.1 7.32 3.21 3.78 1.11 7.8 2.01-1.14.72-2.19.81-1.05.09-2.19-.03-2.94-.12-5.49-1.23-2.55-1.11-5.07-2.43-1.38-.6-2.58-1.41-1.2-.81-2.46-1.65-2.34-1.62-4.68-3.18l-4.68-3.12q-1.2 1.86-2.43 3.75-1.23 1.89-2.43 3.75 1.02.18 1.44.9.42.72.6 1.8.24 1.2 1.26.54 4.32-2.22 8.82-2.7 1.26-.3 2.4-.3 1.44.18 2.04 1.23.6 1.05-.18 2.19-1.32 1.8-2.76 3.18-.9.9-1.92 1.65-1.02.75-2.04 1.59-.42.24-.84.45-.42.21-.78.45-.36.12-.6.12-.66-.06-1.29-.06t-1.29-.18q-.6-.06-.72-.51t.36-.75q.9-.72 1.89-1.29.99-.57 1.95-1.23.42-.36.93-.54.51-.18.93-.54l1.92-1.68q.18-.18.3-.42t.3-.42q-.12-.06-.12-.09t-.06-.15q-1.62.54-3.12.96-1.5.42-3.12.9-.54.18-1.11.39-.57.21-1.17.39-.78.3-.96.66-.18.36.12 1.08.3 1.14.66 2.28.36 1.14.78 2.28.42 1.14.12 2.1-.3.96-1.2 1.56-.96.6-2.1.57-1.14-.03-2.04-.81-.84-.84-1.26-1.89-.42-1.05-.66-2.19-.42-2.52-.3-4.89.12-2.37.78-4.65-1.44.9-2.94 1.74t-3.12 1.68q-.66.3-1.32.39-.66.09-1.26.15-.24.06-.57-.09-.33-.15-.51-.33-.18-.12-.33-.45-.15-.33.03-.51.24-.3 1.02-.48.66-.24 1.38-.42.72-.18 1.38-.48 4.8-2.16 7.86-6.66.84-1.14 1.47-2.25t1.29-2.19q-.18-.3-.36-.51-.18-.21-.18-.39.06-.12.3-.24t.48-.3q.18-.18.42-.33.24-.15.3-.33.66-2.1 1.26-4.08t1.2-4.08q.12-.42.09-.87t-.03-.99q-.3.12-.54.24-.24.12-.48.3.06-.78.42-1.32t.9-.54q1.14-.06 1.38 1.56.42 1.62.09 3.18-.33 1.56-.69 3.18l-.84 2.28q-.42 1.14-.78 2.46 3.36 2.1 6.84 4.11 3.48 2.01 6.96 4.11zm-22.08-4.74q-1.38 0-2.1-1.05-.72-1.05-.12-2.37.18-.54.6-.96 1.32-1.56 1.68-3.6.42-1.5 1.8-1.5 1.56 0 1.86 1.5.06.9 0 1.74-.18.9-.36 1.83t-.36 1.77q-.36 1.14-1.17 1.89-.81.75-1.83.75zm14.82-4.38q-.84-.18-.99-.87-.15-.69.27-1.41.72-1.14 1.44-2.19t1.38-2.19q.66-1.02 1.62-.9.6.18 1.08.63.48.45.3 1.41-.24 1.62-.93 3-.69 1.38-2.25 2.28-.36.24-.9.27-.54.03-1.02-.03zm75.66-1.56q.24.96-.24 1.98t-1.62 1.56q-1.32.6-3 .78-1.38.12-2.79.24-1.41.12-2.79.3-1.14.18-2.07.81-.93.63-1.59 1.53-3.72 4.86-5.16 11.1v.9q.36-.18.66-.18.3 0 .54-.12l2.28-1.32q1.14-.66 2.22-1.32.66-.36 1.32-.66.66-.3 1.44.36.42.42.18 1.05-.24.63-1.2 1.29-2.04 1.2-4.05 2.34t-4.17 2.28q-1.08.66-1.86.18-.78-.48-.72-1.74.18-3.12 1.08-6.09.9-2.97 2.4-5.79.42-.72.78-1.44.36-.72.84-1.62-1.26.12-2.28.3-1.02.18-2.1.3-2.1.42-4.29.75t-4.29.57q-.72.18-1.53 0t-1.05-.96q-.24-.9.42-1.35.66-.45 1.26-.75 2.64-1.2 5.13-2.4 2.49-1.2 5.01-2.4.84-.42 1.56-.84l1.44-.84q0-.12-.03-.18t-.03-.18h-2.28q-.48 0-.96-.06-1.98-.3-2.46-1.62t.72-2.7q2.4-2.58 5.88-3.06 2.58-.48 5.25-.87t5.43-.75q1.38-.18 2.58.45 1.2.63 1.92 1.83.78 1.38.09 2.79-.69 1.41-2.43 2.01-1.14.36-2.34.45-1.2.09-2.4.27-1.86.3-3.24.84-1.38.54-2.52 1.68 1.74-.36 3.51-.69 1.77-.33 3.51-.69.6-.18 1.11-.39.51-.21 1.11-.45.78-.24 1.71-.24.93 0 1.8.33t1.47.93q.6.6.84 1.5zm-8.52 16.38q0-1.38-.36-2.79-.36-1.41.06-2.97.78.78 1.2 3.39.42 2.61.36 5.52-.06 2.91-.48 5.43-.42 2.52-1.32 3.12-.24-1.62.06-2.97t.42-2.73q.12-1.56.09-3.03-.03-1.47-.03-2.97zm42.84-5.82q-.48.18-1.02.24t-1.08.24q-.24-.72.12-1.11.36-.39.78-.69 1.98-1.32 4.14-2.22 2.16-.9 4.62-1.02.96-.06 1.92-.15t1.92.09q1.74.36 2.34 1.02.6.66.78 2.58 2.58-1.56 5.22-2.94 2.64-1.38 4.98-3.42-.72-.72-1.59-.87-.87-.15-1.65-.27-2.1-.12-4.17-.18t-4.17.12q-1.62.06-3.24.3t-3.24.66q-2.1.48-4.11 1.14-2.01.66-4.11 1.14-2.22.54-4.17 1.53-1.95.99-3.81 2.37-1.32.9-2.58.9t-2.28-.84q-1.14-.78-1.35-1.98-.21-1.2.69-2.16.66-.66 1.35-1.29.69-.63 1.41-1.11 2.58-1.62 4.35-3.81 1.77-2.19 3.15-4.77.24-.42.42-.84t.3-.66q-.12-.36-.3-.75t0-.51q.24-.24.57-.48.33-.24.75-.36.96-.06 1.65.66t.87 1.92q.12 1.14-.12 2.25t-.66 2.25q-.12.3-.18.63t-.18.81q.84-.18 1.53-.21.69-.03 1.35-.21 3.24-.72 6.48-1.05 3.24-.33 6.66-.39 5.82-.06 11.52 2.1.36.18.81.45.45.27.87.63 1.2 1.02 1.32 2.31.12 1.29-1.02 2.55-1.92 2.1-4.26 3.54t-5.22 2.16q-2.22.54-4.08-.48-1.14.84-2.25 1.56-1.11.72-2.13 1.44-.24.18-.42.51t-.3.57q-.18.18-.24.36t-.18.3q-1.62 1.26-3.57 1.95-1.95.69-3.99 1.29-.3.12-.63.06t-.63-.18q-.18.9.03 1.71.21.81.69 1.5t1.11 1.17q.63.48 1.29.66 1.26.42 2.55.57 1.29.15 2.55.33.36.06.63.03t.63-.03q4.02-.18 8.04-.3t8.16-.3l7.02-.24q.72 0 1.17.33.45.33.39.93-.18.6-.6.87t-1.02.33q-2.34.18-4.65.21-2.31.03-4.71.21-3.12.12-6.24.36t-6.3.42q-2.16.06-4.26-.18-2.1-.24-4.14-1.08-3.18-1.32-4.44-3.72-1.26-2.4-.3-5.7.42-1.44 1.11-2.88.69-1.44 1.35-2.88zm3.3 1.44q-.36-.24-.66-.39-.3-.15-.72-.33-.48 1.32-.93 2.58-.45 1.26-.93 2.7 1.14-.42 2.01-.75.87-.33 1.71-.63 1.8-.54 3.06-1.65 1.26-1.11 2.34-2.55.84-1.14-.6-1.14-.54 0-1.08.03t-1.08.15q-.9.12-1.8.18t-1.86.18q.18.42.3.78.12.36.24.84zm84.3 14.1q.66.18 1.38.33.72.15 1.38.39-.66.42-1.44.45-.78.03-1.5-.09-3.9-.48-7.2-1.95-3.3-1.47-6.42-3.63-.36-.36-.69-.63-.33-.27-.69-.69-.6-.66-1.38-.06-.78.6-1.56 1.23t-1.5 1.29q-.96.84-1.92 1.65-.96.81-2.04 1.65-.84.72-1.62.24-.72-.6-.48-1.56.54-2.16.9-4.44.36-2.28.24-4.68-.48.36-.93.78-.45.42-.93.84-2.04 1.62-4.14 3.15-2.1 1.53-4.56 2.67-.9.42-1.77.54-.87.12-1.83 0-.3 0-.48-.15t-.36-.33q1.2-.36 2.37-.69 1.17-.33 2.25-.81 1.14-.48 2.1-1.17.96-.69 1.92-1.35.6-.42 1.08-.81.48-.39.96-.81.84-.72 1.59-1.41.75-.69 1.59-1.41.18-.18.24-.36t.24-.3q0-.12-.06-.18-.9.24-1.71.48-.81.24-1.71.42-.9.24-2.04.06-1.02-.12-1.32-1.08-.3-.96.6-1.5.9-.54 1.83-.96.93-.42 1.89-.84 1.62-.6 3.21-1.29 1.59-.69 2.85-1.95.42-.36.45-.63.03-.27-.57-.57-.72-.42-.69-1.17.03-.75.81-1.17 1.5-.66 3.42-1.08.9-.12 1.14-.33.24-.21.42-.93.24-.84-.72-.72-.84.12-1.62.21-.78.09-1.56-.09-.42-.06-.75-.39t-.45-.75q-.12-.3.12-.69.24-.39.6-.57.78-.48 1.59-.84t1.71-.78q1.14-.48 1.38-.93.24-.45.06-1.53-.12-.6-.24-1.14-.12-.54-.3-1.2-.3-1.14.72-1.5.48-.18.81.06.33.24.57.66.36.48.54 1.05.18.57.6.93.66.84 1.56 1.08 1.98.66 2.1 1.92.06 1.5-1.56 2.28-.48.18-1.02.39-.54.21-1.02.33-.72.24-.99.75t-.27 2.01q.66-.12 1.29-.33.63-.21 1.29-.39.78-.18 1.32-.18.12 0 .33.09.21.09.21.27.18.42-.18.72t-1.02.54q-.96.36-1.98.63t-2.1.63q-.3.12-.63.09t-.75.03q.18.18.21.27.03.09.15.15.78.96.48 2.22-.42.96.54 1.2 1.32.42 1.26 1.38-.12.36-.48.87t-.78.63q-1.26.6-2.58 1.05-1.32.45-2.64.99-.6.24-1.05.6-.45.36-.99.78-.12 0-.12.3.36 1.74.27 3.45-.09 1.71-.33 3.45-.06.24-.03.48t.03.6h.24q1.38-.9 2.67-1.71 1.29-.81 2.61-1.71.66-.42.18-.78-.6-.6-1.08-1.17-.48-.57-1.08-1.05-.36-.42-.93-.66-.57-.24-.99-.6-.24-.18-.33-.42-.09-.24-.21-.48.24-.12.51-.27.27-.15.45-.09 1.5.24 3 .3t3-.12q.9-.18 1.77-.12t1.77.06q.48.06.9.3.42.24.54.66.18.78-.48 1.44-.72.66-1.47 1.17-.75.51-1.53 1.11-.78.54-.78.75 0 .21.72.81.9.6 1.71 1.23.81.63 1.71 1.17 2.34 1.44 4.89 2.34 2.55.9 5.31 1.62zm-16.44-8.88q.78.66 1.44.06.42-.3.87-.54.45-.24.81-.6.42-.3.78-.63.36-.33.78-.75-.42-.12-1.35-.21-.93-.09-2.01-.06-1.08.03-2.07.15-.99.12-1.47.3.66.66 1.14 1.17.48.51 1.08 1.11zm-12.72-14.46l-5.58 2.46q-.18-.18-.24-.3 1.2-1.02 2.64-1.59 1.44-.57 2.82-1.41-.24-.6-.42-1.11-.18-.51-.54-1.17-.48.72-.93 1.32-.45.6-.81 1.26-.12-.06-.15-.06t-.15-.12q.18-.66.3-1.26t.3-1.26q.18-.72.3-1.41t.24-1.29v-.36l.24-.84q.12-.42.66-.36.66 0 .66.39v.81q-.06 1.2.39 2.25t1.17 2.13q.06-.3.09-.63t.15-.69q.12-1.38.21-2.7.09-1.32.27-2.7.06-.24.24-.54.18-.3.3-.36.36 0 .72.09t.6.33q.96.72 1.32 1.65.36.93.54 2.07 0 .66.06.96.42-.18.75-.24t.63-.24q0 .06.12.18-.18.3-.24.42-.84.24-1.05.75-.21.51-.09 1.17.06 1.38.06 2.7v2.7q0 .78-.21 1.44-.21.66-.99 1.08-1.38.84-2.76-.06-.84-.42-1.08-1.11-.24-.69-.06-1.47.18-.84 0-1.53-.18-.69-.48-1.35zm66.06-7.38q1.2-.54 2.43-1.08 1.23-.54 2.37-1.2.54-.3 1.02-.72t.9-.96q.9-1.38 1.8-2.85.9-1.47 1.74-2.91 1.5-2.16 3.42-.78.66.36 1.17.81.51.45.93 1.11.72 1.2.3 2.31t-1.2 2.07q-.84 1.2-2.16 2.04-2.34 1.5-5.04 2.64-1.62.84-2.52 2.52-1.2 2.16-2.4 4.8-.66 1.38.72.96.84-.18 1.59-.45.75-.27 1.59-.63.9-.36 1.65-.87.75-.51 1.59-.87 1.92-1.08.9-2.94-.9-1.62-.6-2.19.3-.57 2.1-.39.96 0 1.95.15t1.89.39q1.02.24 1.26 1.11.24.87-.42 1.65-.36.48-.81.93-.45.45-1.05.75-.84.54-1.14 1.26-.3.72-.3 1.62 0 1.02.03 2.01.03.99.03 1.95-.12 2.34-.18 4.62-.06 2.28-.18 4.62-.12 1.62-.15 3.18t-.27 3.18q-.3 2.04-.75 3.99-.45 1.95-.87 3.87-.06.42-.12.78-.06.36-.18.78-.12.18-.33.3-.21.12-.33.24-.18-.12-.3-.33-.12-.21-.12-.39.18-1.38.21-2.61t.33-2.55q.84-3.3.87-6.6.03-3.3.03-6.6 0-2.34.06-4.59t.06-4.59q0-1.02-.24-1.14-.24-.12-1.26.24-1.44.66-2.91 1.23-1.47.57-2.97 1.17-1.2.36-2.31 0t-1.83-1.62l-.24-.24q-.6.72-.72 1.08-.9 1.74-1.74 3.45-.84 1.71-1.74 3.33-.84 1.32-2.13 1.62-1.29.3-2.37-.78-.72-.6-.87-1.47-.15-.87-.09-1.83.18-.66.21-1.29t.15-1.29q0-.42-.24-1.38-.66.48-1.23.87t-1.17.81q-.84.72-1.83 1.17-.99.45-2.19.15-1.86-.48-2.43-2.07-.57-1.59.63-3.15.9-1.08 2.34-2.16 1.14-.9 2.46-1.71 1.32-.81 2.4-1.77 1.26-.96 2.34-2.1 1.08-1.14 2.22-2.22.9-.84 1.83-1.62.93-.78 1.95-1.44 1.14-.72 2.13-.12t.81 1.98q0 .84-.15 1.53-.15.69-.33 1.23zm-.54 1.62q-.18-.06-.24-.12t-.18-.12q-.72.96-1.5 1.95t-1.5 1.95q-.12 0-.12.12.12.36.3.84.54-.18.72-.3.36-.66.66-1.23.3-.57.72-1.23.24-.48.51-.93.27-.45.63-.93zm11.16-6.9q.18.18.3.24.48-.54 1.02-1.02t1.02-1.14q.18-.18.06-.51t-.12-.63q-.24.18-.54.21-.3.03-.48.21-.3.36-.54.78l-.48.84q-.18.24-.18.48t-.06.54zm15.54 13.92q-2.7-.36-3.48-2.22-.3-.66-.57-1.35-.27-.69-.33-1.41-.06-.42.09-.9.15-.48.39-.72.18-.18.66-.15.48.03.72.21 1.98 1.2 3.72 2.76.6.48.78 1.17.18.69-.18 1.35-.36.48-.87.75t-.93.51z"/></svg>