<svg viewBox="0 0 389 80" xmlns="http://www.w3.org/2000/svg"><path d="M34.52 16.42v7.74h7.98v1.2h-7.98v13.26h7.2v23.76H15.98V38.62h7.5V25.36h-8.16v-1.2h8.16v-7.74h11.04zm11.64.72h25.32v45.54h-13.8v-1.2h4.08V45.94h-5.88q-.48 6.6-3.42 10.83t-9.54 6.75v-10.2q1.8-2.04 2.52-4.35.72-2.31.72-6.39V17.14zm15.6 13.8v-12.6h-5.82v12.6h5.82zm-5.82 13.8h5.82v-12.6h-5.82v12.6zm-28.86-4.92v21.36h3.72V39.82h-3.72zm99.78-7.2q2.64.36 5.82.36v7.92q-10.62 0-16.38-2.16-6.54 1.8-17.64 1.86v-7.32q5.94-.12 9.84-.84-2.4-3.96-2.64-10.68h-7.08v-1.2h7.02v-4.02h11.1v4.02h15.18v1.2H116.9q.18 4.02 1.8 6.48 1.92-1.62 3-4.02h9.96q-2.04 5.28-4.8 8.4zM76.28 62.98V17.62h19.86v45.36H76.28zm11.4-23.28V18.82H84.8V39.7h2.88zm-2.88 1.2v20.88h2.88V40.9H84.8zm13.38 3.06v-1.2h34.5v1.2h-5.22v17.82h.3q1.44 0 2.43-.21.99-.21 1.95-.75l.54 1.08q-1.02.6-2.13.84-1.11.24-2.61.24h-6.42q-2.34 0-3.57-1.23t-1.23-3.57V43.96h-2.82v3.42q0 4.74-1.44 8.07t-4.98 5.4q-3.54 2.07-9.66 2.67v-9q2.88-.72 4.11-2.4 1.23-1.68 1.23-4.74v-3.42h-4.98zm93.12-6.84q-.3 5.52-1.83 9.78T185 54.34q3.3 1.32 7.68 1.8v7.38q-9.78-.48-16.02-3.54-5.88 2.52-15.36 3.54v-7.26q-1.74 2.52-4.71 4.32-2.97 1.8-7.35 2.94v-8.88q-3.84 7.38-13.92 8.88v-9.66q3.06-1.44 4.5-3.75t1.8-6.33h9.9q0 4.98-1.38 8.82 2.16-1.8 3.09-4.2.93-2.4.93-5.94v-20.1H170v-5.82h9.9v5.82h12.78q-.24 4.86-1.44 9.84h-9.54q1.02-3.96 1.38-8.64h-3.18v13.56h11.4zM151.46 20.8v8.4q-7.98-3.06-16.14-4.2v-8.4q9.36 1.5 16.14 4.2zM170 37.12V23.56h-5.34v13.56H170zm-18.54-4.26v8.4q-7.86-2.94-16.14-4.2v-8.4q8.52 1.38 16.14 4.2zm13.2 9.18q0 4.68-.75 8.1t-2.49 6q4.56-.84 7.86-2.16-3.42-4.5-4.32-11.22h9.6q.96 3.48 2.64 5.76 3.36-4.02 3.9-10.2h-16.44v3.72zm88.02-16.68h-4.92v11.16h4.92v1.2h-4.92v11.1h4.92v1.2h-4.92v11.16h4.92v1.2H232.4v1.14h-9.9V38.98q-1.02.54-1.92.84V28.84q4.08-4.2 4.8-12.3h9.24q-.18 4.68-.9 7.62h3.96v-7.62h10.08v7.62h4.92v1.2zm-35.1-6.48v19.86h2.4v1.2h-2.4v22.74H203.9v-1.2h4.14V39.94h-1.62q-.06 6.42-.99 10.8-.93 4.38-3.33 7.56-2.4 3.18-6.78 5.22V54.4q1.74-2.16 2.58-5.46.84-3.3.9-9h-3.06l1.56-18.72h8.28l-1.5 17.52h3.96V18.88h-11.82v-1.2h23.22v1.2h-1.86zm20.1 17.64V25.36h-4.2q-.42 1.68-1.08 3.24v7.92h5.28zm0 12.3v-11.1h-5.28v11.1h5.28zm0 12.36V50.02h-5.28v11.16h5.28zm75-39.54q-.12 8.94-1.56 15.39-1.44 6.45-4.68 11.37 2.7 2.64 6.24 4.86v10.26q-7.74-3.54-12.6-7.98-4.92 4.2-12.54 7.98v-9.84q3.96-2.46 6.72-5.1-2.58-4.26-4.08-9.63-1.5-5.37-2.04-12.27h9.6q.84 7.92 2.64 12.6 2.34-6.18 2.7-16.44h-15.42l2.94-6.18h11.1l-2.34 4.98h13.32zM278 37.12v9.66h7.98v1.2H278v11.4q4.38-.84 7.98-1.86v1.2q-13.68 3.66-30.18 4.8v-1.2q5.58-.36 11.1-1.08V47.98h-11.1v-1.2h11.1v-9.66h-10.2l5.34-17.34h-6.24v-1.2h32.16v1.2h-14.82l-4.98 16.14h8.88l-3.42-11.82h10.32l3.78 13.02H278zm94.14 12.36v1.2H315.8v-1.2h22.56v-6.72h-21.24v-1.2h21.24v-6.12h-20.22v-18h51.72v18h-20.34v6.12h21.24v1.2h-21.24v6.72h22.62zm-33.72-15.24v-15.6h-9.78v15.6h9.78zm11.1-15.6v15.6h9.84v-15.6h-9.84zm-18.96 14.04q-.6-6.9-1.56-12.24h6.9q.96 4.68 1.8 12.24h-7.14zm21.06-12.24h7.02q-.54 7.32-1.62 12.24h-7.08q1.14-5.34 1.68-12.24zm-10.68 32.52q1.08 2.64 2.16 5.43 1.08 2.79 1.8 5.13h-11.1q-1.98-5.7-3.84-10.26-1.2 5.64-3.54 10.26h-11.1q2.52-5.34 3.6-10.56h22.02zm2.7 0h11.1q1.08 2.64 2.13 5.43 1.05 2.79 1.71 5.13H347.6q-2.34-6.6-3.96-10.56zm25.14 0l.72 1.92q2.28 5.76 3.18 8.64h-11.1q-1.98-5.82-3.9-10.56h11.1z"/></svg>