<svg viewBox="0 0 504 80" xmlns="http://www.w3.org/2000/svg"><path d="M59.44 46.78v1.5q0 1.98-.03 3.96t-.15 3.96q-.06.96-.03 2.1.03 1.14-.27 2.04-.24.72-.99 1.23t-1.41.81q-.36.24-.6.3-.72.24-1.44-.12t-1.38-.84q-.3-.36-.57-.66-.27-.3-.57-.6.06.12.18.09t.18-.15q.06-.12-.06-.48-.48-1.44-1.26-2.64.48.54 1.02 1.02-.84-1.74-1.62-3.48-.78-1.74-1.62-3.48-.24-.48-.42-.66-.3-.18-.6-.18-.66-.18-1.35-.18-.69 0-1.35-.18-.66-.18-1.23-.69t-.51-1.23q-.18-1.38.18-2.82-.3 1.08.42 1.86-.42-1.14-.12-2.34t1.14-2.04q-.9 1.02-.42 2.4-.3-.36-.42-.66-.12.54.21.99.33.45.81.69.48.18 1.02.18t1.08-.06q.06-1.02.03-1.95-.03-.93-.15-1.89.36 1.92 1.08 3.78.9.06 1.83.03t1.83-.15l-.18-.54q.78-.3 1.62-.18.84.12 1.5.66.24-.12.24-.72.12-2.52.18-4.98.06-2.46.18-4.98 0-.42-.12-.87t-.6-.45q.12-.12.15-.24t.15-.24q-.78.18-1.26.84.06.12.06.18t.06.18q-1.8 1.38-3.54 2.79-1.74 1.41-3.48 2.97 2.52-2.52 4.26-5.4-.96.06-1.92.06t-1.92-.12q-.54-.06-1.05-.18t-.93-.42q-.36-.36-.54-.81-.18-.45-.27-.96-.09-.51-.18-1.05t-.33-1.02q.6.54 1.2.6-.18-.24-.6-.66 1.38.36 2.73.18t2.73-.36q1.38-.18 2.79 0 1.41.18 2.43 1.08.66-4.68-.42-9.24-.12-.42-.3-.54-.12-.12-.3-.09t-.36.03q-3.54.66-7.08.9-.48.06-.9.06-.42 0-.9-.18-.42-.12-.75-.45t-.33-.81q-.24.24-.3.36-.06-.3-.09-.66-.03-.36-.09-.66.3.3.66.06-.36-.12-.51-.51-.15-.39.09-.69 2.34-.3 4.68-.66 2.34-.36 4.68-.66.3-.06.57-.12.27-.06.57-.18.18-.12.33-.21.15-.09.33-.15.18-.06.33 0 .15.06.33.12.9.3 1.77.57.87.27 1.77.57-.12.3-.09.63t.15.63q.3.96.33 1.92.03.96.03 1.92v23.22zm-11.4-.48q-.12-.3-.18-.57-.06-.27-.18-.57.12.3.18.6t.18.54zm1.86 7.56q.18 0 .18.24-.06-.06-.09-.12t-.09-.12zm1.26-1.92q.12-.24-.06-.42-.12-.18-.24-.33-.12-.15-.24-.33-.12-.3-.48-.12.06.12.06.15t.06.15q.12.18.21.33.09.15.21.33.06.3.36.54.06-.12.06-.15t.06-.15zM55 48.7v-.42l-1.08.72q-.36.24-.42.42l.24.12q-.12.42-.54.63-.42.21-.9.33-.36.06-.69.09-.33.03-.69.09.36.66.75 1.26t.93 1.08q.3.3.69.6.39.3.69.66.36-1.38.66-2.79.3-1.41.36-2.79zm-11.88-.12q-.12.72-.21 1.44t-.33 1.38q-.12.24 0 .36.12.06.18-.06t-.06-.12q-.3.36-.33.81-.03.45-.09.87-.06.48-.24.9-.18.42-.6.6-.12-.3-.51-.21t-.51.39q-.12.3-.18.66-.06.36-.24.66-.36-.18-.75-.39-.39-.21-.69-.51.12.9-.54 1.38.06-.06.18-.3-.42.06-.78-.48-.12-.24-.15-.45-.03-.21-.09-.51.06 0 .3-.24.06-.12.18-.06t0 .12q.12-2.82.27-5.55.15-2.73.33-5.55.12-1.56.3-3.06t.66-2.94q-.36 2.52-.48 5.04t.78 4.86q.78-3.84 1.05-7.74.27-3.9.09-7.86 0-.36-.15-.72t-.51-.42q.18-.06.15-.24t-.09-.3q0-.24.18-.39.18-.15.42-.27.24-.12.45-.24.21-.12.33-.36.3-.18.63-.03t.51.45q.12.3.24.63t.3.63q.24.36.21 1.2t.03 1.32q.06.66.09 1.35.03.69.03 1.41.12 1.32.12 2.64t-.06 2.64l-.12 2.64q-.06 1.32-.18 2.64-.06.48-.06.99t-.06.99zm-5.76-4.5q-.12.3-.21.54-.09.24-.21.48-.06.24-.51 1.26t-.99 2.16q-.54 1.14-1.05 2.04-.51.9-.63.84-.3-.12-.6-.06t-.42.3q.12-.3-.18-.54-.3-.24-.6-.06-.3.12-.39.45-.09.33-.33.57-.12-.54-.54-.6-.42.12-.66.48-.24.36-.54.66-.48.6-1.14.93-.66.33-1.32.57-1.02.36-1.98.69-.96.33-1.98.63 0 .78.03 1.53t.03 1.53q.12.36-.06.6-.24.3-.63.21t-.69.09q-.36.18-.51.66-.15.48-.57.48-.12 0-.24-.06l-.24-.12q-1.2-1.02-1.74-2.52t-.84-3.06q-.54-3.06-.66-6.09t.18-6.09l.24-1.2q.12-.6.6-1.02.12.06.21.09t.21.09q.12-.36.48-.24.06.54.06 1.08t.06 1.08q.12 1.92.3 3.84t.96 3.66q.24-1.44.06-3.06-.06-.3-.09-.6t-.03-.6q0-.3.06-.54.06-.24.18-.54.12-.3.21-.54.09-.24.21-.48.36-.6.99-.9.63-.3 1.32-.54l1.38-.48q.69-.24 1.23-.72-1.38-.3-2.64-.3 0-.6-.66-.6 1.08-.6 2.22-1.2.6-.36 1.11-.87.51-.51.33-1.17-1.14.12-2.31.18-1.17.06-2.31-.06-1.14-.12-2.19-.48t-1.95-1.08l1.26.54q-1.44-.84-2.25-2.34t-.69-3.18q.12 0 .48.12-.12-.24 0-.45.12-.21.36-.27.18-.12.42-.09t.48.09q.12.48.54.72.42.24.9.3.48.06.9-.09.42-.15.9-.27 1.44-.54 2.91-1.08 1.47-.54 2.91-1.02.24-.12.36-.24.18-.18.18-.54.12-1.2.12-2.34t-.48-2.22q-.12-.42-.12-.48.12-.3.42-.33.3-.03.42-.27.12-.12.12-.3t.06-.3q.12-.3.48-.33.36-.03.66.15.3.18.42.51t.24.63q.06-.24.24-.48-.24 1.44-.24 2.88t.12 2.88q.48.24.99.12t.87-.54q.3-.42.27-.96-.03-.54-.33-.96.78-.48 1.68 0 .78.48.78 1.5-.06.42-.33.78-.27.36-.51.66-.3.36-.39.81-.09.45.27.75-.36.06-.54.39-.18.33-.12.63t.15.63.15.63q.18.84-.24 1.74-.36 1.02-1.11 1.95-.75.93-1.83 1.05-.12 1.5-.9 2.76-.42.72-.96.96.84-.18 1.71-.36t1.71-.42q.42-.12.78-.27.36-.15.6-.45.12-.18.21-.36t.27-.3q.24-.18.66-.06.9.12 1.77.24t1.77.24q.48 0 .72.24.48.48.6 1.08.12.6 0 1.29-.12.69-.36 1.41t-.48 1.32zm-9.66-4.44q-.24.24-.24.48.54-.12.24-.48zm-9.84 1.32l.12-.24q-.18.12-.12.24zm13.56 2.64q0-.24-.12-.36-2.1.3-4.2.81t-4.14 1.17q-.36.18-.78.18-.24 0-.51-.06t-.51 0q-.3 2.7 1.02 5.04.18-.06.6-.06 0-.12.03-.18t.03-.18q.3.3.72.3t.84-.12q1.2-.3 2.43-.66 1.23-.36 2.37-1.02.24-.06.48-.3.24-.3.3-.66.06-.24.3-.75l.51-1.08q.27-.57.45-1.14t.18-.93zm59.22 6.6v-.06.06zm16.02-16.5h.06-.06zm.12.18h-.06.06zm13.74 22.44q-.12 1.38-.54 2.52-.18 1.02-.93 1.83t-1.77 1.11q-.24.06-.45.12-.21.06-.45.18-.24.12-.42.24t-.42.24q-.48.24-1.26.12-1.32-.12-2.61 0-1.29.12-2.55.06-1.32-.06-2.58-.45T104.38 61q-1.08-1.08-1.38-2.61-.3-1.53-.18-3.09.12-1.56.33-3.09.21-1.53.03-3.09-.9-.06-1.56.57-.66.63-1.14 1.35-2.52 3.84-3.9 8.16-.06.18-.24.3t-.24-.06q-.48 1.2-1.62 1.8l-.12.24-.12.24q-.48.06-.9.12-.42.06-.9.12-.18-1.26-.42-2.55-.24-1.29-.54-2.67.12.24.21.45.09.21.21.45.3-.12.48.06.3-1.86-.24-3.42-.36-1.02-.87-2.01-.51-.99-.63-2.07 1.2 2.16 3.12 3.6.3.24.6.36t.6-.06q.12-.06.18-.15t.18-.21l2.16-3.42q-.84.12-1.68.15t-1.68.09q-.66.12-1.14-.12-.48-.24-.6-.78t-.06-1.08q.12-.48.18-1.02t-.12-1.02q.48-.06.96-.48-.06-.12-.15 0t.03.18q.18.12.36-.06l1.44-1.08q-.78.96-1.08 1.92 3.54-.6 6.9-1.98.24-.12.45-.24.21-.12.33-.36.06-.12.09-.27.03-.15.15-.27.12-.12.3-.03t.36.09q.12.06.27-.06.15-.12.03-.24.12.3.51.33.39.03.51-.27 1.14-.3 2.16-.12-.72-1.2-1.38-2.43-.66-1.23-1.2-2.49-.66.48-.93 1.26t-.09 1.56q-.06.24-.36.15t-.18-.27q-1.14.96-1.44 2.46-.78.12-1.26.42-.12-.6-.12-.84-1.62.18-2.94.9.96-.78 1.53-1.86.57-1.08 1.08-2.25.51-1.17 1.05-2.31.54-1.14 1.44-1.98l.57-.57q.27-.27.39-.63.12-.24.09-.48t-.09-.54l-1.08-5.58q-1.92.12-3.84-.3t-3.66-1.38q-.72-.3-1.08-.84-.48-.72-.12-1.38 3.84-1.44 8.1-1.44-.12-.9-.39-1.77t-.15-1.77q.06-.42.27-.84.21-.42.54-.72.33-.3.75-.42t.84 0q.42.12.54.63.12.51-.24.63l.48 3.54q0 .54.24.84.42.48.84.06-.18-.48-.33-.93-.15-.45-.33-.93.42.12.72.36-.06-.48-.09-.96t-.09-.96q.48.72 1.29 1.14.81.42 1.65.54-.24.12-.06.36t.42.3l2.04.6 2.04.6q.96.24 1.44.72t1.02 1.26q.3.42.42.9.12.48-.06.96t-.75.63q-.57.15-.87-.27.18.18.09.42t-.27.36q-.3.24-.84.24l-3.48.12-3.48.12q0 1.44.36 2.76.6-.66 1.14-1.35.54-.69 1.08-1.35 0 .66.06.96.48.3.69.84.21.54.09 1.08t-.48.96q-.36.42-.84.72-.3.18-.36.36-.06.12.03.21t.21.03q-.6.24-.87.84t-.15 1.26q.12.66.39 1.2.27.54.63 1.08.6-1.74.6-3.72.96.48 1.26 1.56.3 1.08.42 2.16.12-.12.24-.18t.24-.18q.72 1.8 1.2 3.75t-.24 3.75q-.12.36-.36.42t-.6-.06q-1.5-.78-2.64-1.8.36.48.6.72-.36.18-.42.63t.24.69q-1.62 1.2-3.78 1.56.06.24.3.27.24.03.36-.21l.54.42q-.18-.3.09-.54.27-.24.57-.12.54.24.66 1.02.24 1.26-.03 2.52t-.33 2.52q-.06 1.26.51 2.49.57 1.23 1.83 1.53.66.12 1.38-.09.72-.21 1.44-.33.78-.12 1.56-.15t1.32-.57q.3-.3.42-.75t.24-.93l1.62-10.08.12 1.56q.18-.24.18-.66.12.42.21.84t.21.84q.06-.96.06-1.89V43.3q.06 2.16.54 4.32.06-.48.06-.93 0-.45.06-.93.12.66.18 1.32l.12 1.32q.12.42.24.48t.24-.06q.12-.12 0-.18.84 1.2 1.2 2.61t.6 2.85l.12-.6q.3.66.39 1.38.09.72.09 1.44zM98.08 41.86q.12-.12.12-.18-.06.06-.12.18zm5.64-3.12v.18-.18q-.12-.12-.12-.24 0-.18-.12-.06.06.06.06.18.06.12.18.12zm-12.36 12.6v.06-.06zm11.28-3.12q.24.12.48-.12h-.24q-.12 0-.24.12zm8.46 14.46l.06-.12q-.12.06-.18.03t-.12.03v.06h.24zm5.46-1.08q.12 0 .15-.03t.09-.03q-.12 0-.24.06zm.84-13.14v-.12h-.12v.12h.12zm1.2 1.74v-.24q0-.42-.12-.6l.06-.06q.06 0 .06.12.12.24.12.78v.06l-.12-.06zm.24.6l.06.06q0-.36-.12-.48-.12.18-.06.24t.06.09.06.09zm-28.08-2.58q-.12.36-.15.69-.03.33-.15.69-.18.78-.42 1.53t-.72 1.41q-.24.3-.45.54-.21.24-.33.54-.12.24-.15.45-.03.21-.15.39-.18.3-.57.33-.39.03-.69-.15-.3-.18-.51-.45-.21-.27-.39-.57-.48-.84-.99-1.68t-1.05-1.68q-.12-.3-.36-.36-.3-.06-.54 0-1.2.3-2.16.6.3 1.26-.72 2.28.18.3.03.57-.15.27-.45.39-.54.18-1.2-.3-.3-.12-.51-.33-.21-.21-.51-.33-.24-.12-.42-.15t-.36-.15q-.48-.24-.78-.72l-.6-.96q-.12-.24-.21-.45-.09-.21-.09-.51 0-.18.06-.39.06-.21.06-.39 0-.48-.3-.93-.3-.45-.18-.93 0-.24.12-.42t.24-.42q.3-.48.33-1.05.03-.57.03-1.11.12-4.14.72-8.25t1.74-8.13q.6.36 1.32.33.72-.03 1.2.39.3.3.36.72t.12.9q3.9-2.64 8.64-3 .48-.06.93-.03.45.03.87.15.42.18.72.54.3.36.24.84.12-.3.24-.36.3 1.56 0 3.45-.3 1.89-.42 3.51-.24 3.24-.51 6.48t-.93 6.48zm1.44-14.7q-.12 0-.12.06t.12.18q.06-.18 0-.24zm-8.28 16.26q.06.12.18.24 0-.24-.18-.24zm.54-.24l-.18.18q.42 1.02 1.02 1.62 0-.12-.12-.24-.18-.18-.18-.36 0-.12-.12-.48-.06-.06-.06-.12t-.12-.12q-.12-.12-.12-.3-.06-.06-.06-.09t-.06-.09zM88 40.9q0-.66-.48-.51-.48.15-1.26.63-.12.06-.21.12t-.21.06q-.12.06-.27.03-.15-.03-.27-.03-.66-.06-1.26.21t-1.14.57q1.74-1.26 2.82-2.76.12-.24.12-.3-.12-.18-.24-.18-2.76-1.26-5.82-1.44-.42 2.52-.54 5.04-.12 2.52 1.02 4.74.06.12.24.3.18.06.48.06.6-.12 1.17-.21t1.11-.27q-.84-1.32-1.44-2.58l.48.6q-.12-.36-.3-.75t-.36-.81l.78 1.08q.18-.96-.54-1.68-.36-.84-.72-1.59-.36-.75-.66-1.59.54.66.9 1.47.36.81.84 1.47.48.66 1.05 1.14.57.48 1.17.96t1.17.93q.57.45.99 1.11.36-1.2.63-2.46t.57-2.46q.18-.6.18-.9zm-5.52 3.66h.06-.06zm6.36-11.58v-.6q0-.96-.03-1.59-.03-.63-1.17-.51-1.68.12-3.24.9-1.56.78-3 1.62-.3.12-.57.3-.27.18-.51.48-.48.6-.3 1.26 1.38-.12 2.76-.21t2.76.21q1.62.36 3.12 1.38.18-1.62.18-3.24zm90.9 19.08l.18-.18q-.42.78-.54 1.68-.12.9-.15 1.8t-.15 1.77q-.12.87-.54 1.65-.54 1.02-1.47 1.68-.93.66-1.95 1.14-.84.42-1.71.72t-1.77.24q-1.26-.12-2.19-.93-.93-.81-1.77-1.8t-1.74-1.95q-.9-.96-2.04-1.44-1.2 1.44-2.88 2.25t-3.54.81l-1.2-1.44-1.2-1.44q.3.18.63.36t.69.36q-1.08-2.4-1.62-4.98-.12-.48-.09-.93.03-.45.33-.75.18-.24.45-.3t.57-.06q1.92-.24 3.87.09 1.95.33 3.69 1.17 1.5-3.12 1.86-6.3-.84 1.2-2.25 1.83-1.41.63-2.85.39.48-.48.39-1.2-.09-.72-.39-1.38-.36-.6-.75-1.17t-.45-1.23q-.06-.78.27-1.47t.51-1.41q.24-.72.24-1.74l.42-7.2q-.6.18-1.29.36-.69.18-1.32.18-.63 0-1.23-.21t-1.02-.69q.18 2.76.33 5.52.15 2.76.33 5.52v.42q.12.84.12 1.65 0 .81-.24 1.65-.18.84-.66 1.53-.48.69-1.26 1.05-.84.3-1.44.18l-.54-.18q-1.02-.48-1.5-1.5t-.78-2.04q-.3-1.2-.54-2.46l-.48-2.52q.42.42.66.6.54-.48.27-1.26t-.45-1.5q-.24-.9-.03-1.86.21-.96.15-1.92.3.66.6 1.41.3.75.72 1.41.06.12.42.48t.72.75q.36.39.63.72.27.33.27.39.6-3 .72-6t-.3-6q-.06-.3-.27-.48-.21-.18-.33.06-.12-.24.06-.42l.36-.36q.12-.12 0-.39t-.24-.09q.42-.18.87.06t.63.72q.18.48.18.93 0 .45-.06.93-.06-.36.09-.72t.45-.66q-.18.48.18.9.36.42.84.54.48.12.96-.03t.96-.39q.48-.18.99-.39.51-.21.99-.45.66-.24.96-.66.12-.18.15-.39.03-.21.09-.39.3-2.04.57-4.05.27-2.01.57-4.05.6.12.84.24-.18 3.78 1.38 7.26 1.74-.96 3.57-1.59 1.83-.63 3.75-.99 1.2-.24 2.52-.09t1.98 1.23q-2.88 5.22-4.8 10.98-.12.3-.21.57-.09.27-.33.39-.12.12-.27.15-.15.03-.27.15-.48.3-.63.84-.15.54-.21 1.08-1.2-.24-1.92-1.32t-1.2-2.22q.3.3.51.63.21.33.51.63.18-.12.33-.3.15-.18.33-.3-1.26-2.58-3.36-4.92-.78-.06-1.38.51-.6.57-.84 1.29-.18.78-.12 1.56t.18 1.56q.18 1.56.24 3.15.06 1.59 0 3.15.84-.36 1.5-1.02t1.38-1.2q.72-.54 1.65-.78.93-.24 1.71.24.48.36.69.96.21.6-.03 1.14-1.32 3.06-2.25 6.27-.93 3.21-1.41 6.57 2.4.66 4.83.24 2.43-.42 4.77-1.08 1.2-.36 2.43-.99 1.23-.63 1.59-1.83-.6 1.8-1.68 3.18.48-.48.9-.93.42-.45.9-.93-.66 1.26-.96 2.88.18-.24.36-.45.18-.21.3-.45zM168.4 33.64v-.06h-.06q0 .06.06.06zm-1.74-5.94q-.24.3-.18.6t.48.9q.48.66 1.14 1.11.66.45 1.38.75.24.12.42.06t.3-.3q.6-1.32 1.14-2.64.54-1.32 1.02-2.7.24-.6.39-1.2.15-.6.09-1.2-.06-.18-.84.3t-1.71 1.2q-.93.72-1.74 1.38-.81.66-.93.78-.3.3-.57.51-.27.21-.39.45zm-.9-4.14v.06h.06q-.06 0-.06-.06zm-2.88 1.08v.12q.24.12.48-.03t.36-.45q.18-.42.06-1.02-.12-.66-.15-1.44-.03-.78-.27-1.44-.48.84-.48 2.04v2.22zm-13.14 15.24v.06-.06zm13.56 7.14h.06-.06zm-3.54 11.88l.54-.18.12-.12q-.12.06-.3.09t-.3.09q-.06 0-.06.06v.06zm.72-.3q.06-.06.12-.06t.12-.12q-.12.06-.24.18zm.18-3.18q.36-.12.66-.54 0 .06-.6-.21t-1.32-.6q-.72-.33-1.38-.6-.66-.27-.84-.21-.54.12-.54.45t.3.66q.3.33.72.66t.78.45q1.2.48 2.22-.06zm17.58-3.36h-.06.06zm1.02.3v.06h-.06l.06-.06zm-38.28-7.2q-2.34.9-4.74.48-.48-.12-.87-.42t-.21-.78q-.24-.06-.42-.09t-.36-.03q.18-.12.18-.36t-.18-.36q.36 0 .42-.24-.06.18-.3-.21t-.24-.51q.6-.12.84-.3 1.86-1.2 3.42-2.79 1.56-1.59 3.48-2.61.54-.3 1.2-.36.66-.06 1.08.42-.12.12-.15.18t-.15.18q.48-.12.96.06t.78.6q-.42.24-.54.78.18-.12.42-.03t.3.33q.12.36-.06.9l-.24.6-.24.6q-.66 1.38-1.83 2.37-1.17.99-2.55 1.59zm6.24 7.8l.12.54q.18.84.3 1.74t-.12 1.74q-.24.84-.93 1.5-.69.66-1.59.54-.66-.06-1.26-.48-1.62-.96-3.06-2.46l-.21-.21q-.09-.09-.15-.27-.12-.24-.06-.48t.18-.48q.36-1.38.18-2.64-.18-1.26-.48-2.64.54.54 1.08 1.02t1.26.78q-.24.48.24.6 1.02-.84 1.44-2.16.42-1.32.72-2.7.24-1.44.45-2.88.21-1.44.39-2.82-.24 1.02-.06 2.07.18 1.05.72 1.89-.18 2.22.18 4.38.12.84.27 1.62.15.78.33 1.56 0 .12.03.15t.03.09zm1.5-26.82q.06.3.06.9-.12.84-.75 1.41t-1.47.63q-.24 0-.42-.03t-.36.09q-.3.12-.48.39t-.3.57q-.12.3-.39.51-.27.21-.57.15-.12-.18-.15-.33-.03-.15-.15-.33-.66.78-1.62.78.48-.48.78-.99.3-.51.54-1.05.06-.18.06-.54 0-.12-.06-.21t-.12-.21q-.42-.54-.99-.93-.57-.39-1.17-.78t-1.11-.81q-.51-.42-.81-1.02-.6.24-.57 0 .03-.24.36-.69.33-.45.75-.87t.66-.54q1.74-.96 3.6-.6 1.56.24 2.82 1.35 1.26 1.11 1.74 2.67.12.24.12.48zm-6.66 24.72l-.06.06q-.06 0-.06-.06t.12-.06v.06zm95.46-12.78q.36.12.75.21t.75.21q-2.52 1.2-3.96 3.54-.24.36-.18.6 0 .12.03.21t.03.21q0 .12-.12.36-.6 1.02-1.23 1.95-.63.93-1.29 1.89-.6.84-1.29 1.56-.69.72-1.59 1.08-.9.36-1.92.12t-1.5-1.14q-.18.42-.66.3-.36 1.02-.48 2.1t0 2.16q-.36 0-.36.36l.54-.36q.12.12.15.18t.15.18q-.84 1.14-1.38 2.46-1.02.84-2.37.93-1.35.09-2.73-.15l-2.64-.36q-1.32-.18-2.58.18l-.06.54q-.36 0-.54-.06.12.72-.12 1.41t-.54 1.35q-.12.42-.42.6h-.42q-.96-.18-1.89-.45-.93-.27-1.77-.87-1.2-.9-1.83-2.31-.63-1.41-.75-2.91-.12-1.5.12-3t.54-3l-3.6 2.34q-.18.12-.39.21-.21.09-.39.09-.3 0-.78-.24-.96-.42-1.83-1.02-.87-.6-1.35-1.62-.36-.72-.39-1.56l-.06-1.65q-.03-.81-.15-1.59t-.6-1.38q-.24-.24-.36-.57-.12-.33.12-.45l-.12-.15q-.12-.15-.18-.33-.06-.18.09-.36t.81-.18q.78 0 1.5.24t1.38.54q.96.54 2.07.66 1.11.12 2.13-.18 1.26-.3 2.34-1.05 1.08-.75 2.1-1.59 2.22-1.8 4.11-3.99 1.89-2.19 2.37-5.07.12-.66.18-1.38.06-.72.48-1.26t1.2-.66q.78-.12 1.08.54.12.18.12.42v.48q-.12 1.86-.48 3.66t-1.02 3.54q-.12.3-.18.54-.06.24.06.54.12.24.39.33.27.09.57.21 2.94.84 5.4 2.64.36.3.69.54.33.24.75.36t.81.15q.39.03.81.03 1.2 0 2.43-.09 1.23-.09 2.37-.51-.3-.18-.09-.42t.51-.36q.42-.12.81-.21.39-.09.75-.21 1.62-.48 3.3-.84 1.68-.36 3.24.24-.6.42-1.44.54zm-36.9 3.48l.06.06.06-.06q-.06 0-.06-.06l-.06.06zm10.74 3.48q2.16-.54 4.29-1.05t4.23-.99q-.84-1.02-1.68-2.1t-1.74-2.1q-.36-.48-.66-.48-.24 0-.48.18-.3.24-.51.6-.21.36-.15.84 0 .12.03.24t-.03.24q-.12.24-.24.36-.6.66-1.32 1.14-.72.48-1.38 1.08-.18.18-.54.6-.36.42-.54.78-.18.36-.09.6t.81.06zm10.14 2.4q.12-.24-.06-.36-.12-.18-.54-.06-.48.18-.99.36t-.99.3q1.2-.9 2.1-1.8-.6 0-1.11.3-.51.3-.99.66-1.02.78-2.1 1.35-1.08.57-2.28 1.05-.48.18-1.35.36-.87.18-1.17.48-.12 0-.12.12-.3.48-.21 1.08.09.6.21 1.08.12.48.3.66.12.06.54.06h3.9q.54 0 1.11-.03.57-.03 1.11-.21.54-.12 1.02-.42t.78-.78q.3-.42.39-.87.09-.45.21-.93.12-.6.15-1.17t.09-1.23zM202.12 36.1q-.48-.96-.6-2.01-.12-1.05-.42-2.07-.06-.24-.33-.66-.27-.42-.6-.84-.33-.42-.54-.81-.21-.39-.21-.57 0-.3.51-.42t1.14-.15q.63-.03 1.26.03t.87.06q.42.06.81.09.39.03.81-.09.36-.12.63-.36t.57-.54l3.06-3q.48-.48 1.05-.87.57-.39 1.23-.21l.24.12q.48.24.69.72.21.48.21.96-.06.54-.24 1.08t-.48 1.02q-1.92 4.08-3.84 8.04-.36.72-.81 1.44-.45.72-1.17 1.02-1.14.48-2.25-.18-1.11-.66-1.59-1.8zm20.04-4.86q-1.14-1.92-1.62-4.32-.06-.3-.21-.96-.15-.66.09-.96.3-.3.96-.12.66.18.96.36.42.24.72.57.3.33.72.57.78.42 1.68.3.9-.12 1.74-.24.84-.18 1.71-.3t1.71-.18q.6 0 .84.18l.06.12q.18.24.03.48t-.39.48q-.24.24-.42.48t-.12.54q.24 0 .48-.03t.48-.03q-.84.18-1.14 1.08-.18.48-.03.99t.51.81q.12.12.27.24.15.12.27.24.36.48.09 1.11-.27.63-.69 1.11-.48.54-.99 1.02t-1.05.96q-.18.18-.39.33-.21.15-.51.15-.42.06-.9-.12-1.56-.66-2.52-1.74-.3-.3-.57-.69-.27-.39-.57-.75-.3-.42-.6-.81-.3-.39-.6-.87zm7.56 7.5l-.06.06v-.06h.06zm-24.54 13.74v-.06h.06q0 .06-.06.06zM283.06 55q0 .54.36.78-.9 1.38-2.46 1.98-1.56.6-3.12.96l-4.32 1.08q-1.02.3-2.04.48t-2.04.3q-1.2.12-2.43 0-1.23-.12-2.25-.72-1.68-.9-2.52-2.73-.84-1.83-.6-3.75.12-1.38.75-2.61t1.65-2.07q.6-.54 1.29-.93.69-.39 1.23-.99.3-.36.57-.78.27-.42.57-.84 1.5-2.34 3.6-4.14-1.92.54-3.93.96-2.01.42-4.05.72.3.06.78.18-1.02.12-2.04.27-1.02.15-2.04.27.24.54.78.42-.84.12-1.65.12-.81 0-1.59-.3-.3-.12-.3-.24-.06-.12.06-.21t.18.03q-.24-.12-.42-.39t-.24-.57q0-.18.12-.33.12-.15.12-.33l.36-3.6q.06-.36.09-.69.03-.33.09-.69.12.42.57.39.45-.03.87-.15 2.58-1.02 4.92-2.43 2.34-1.41 4.68-2.85 1.92-1.2 3.81-2.43 1.89-1.23 3.75-2.55-2.1-1.44-4.05-3.06-1.95-1.62-2.97-3.9 1.38-1.14 3.3-1.11 1.92.03 3.72.39 2.7.48 5.37 1.29t4.71 2.61q.66.6 1.17 1.29.51.69.69 1.53.36 1.2-.15 2.49-.51 1.29-1.59 1.95-1.08.66-2.43.57-1.35-.09-2.37-.93-.42-.3-.75-.66-.33-.36-.81-.54-.66-.3-1.32-.09t-1.26.51q-1.14.54-2.25 1.08t-2.25 1.02q-.3.12-.6.27-.3.15-.6.21-.24.06-.45.03-.21-.03-.45.03-.48.12-.9.36-.42.24-.84.54L262 37.36q4.44-.06 8.79-.66 4.35-.6 8.61-1.74.66-.18 1.32-.42t1.26-.66q.12-.12.27-.21.15-.09.33-.15.3-.12.9-.12 1.02.06 2.07.15 1.05.09 1.95.63.84.54 1.38 1.41.54.87.6 1.89-.78.6-1.8.3.24.18.42.33.18.15.42.33-.6.24-1.2.45-.6.21-1.2.51-.78.3-1.56.54-.78.24-1.62.18-.66-.3-1.26-.36-1.08-.24-2.16.09-1.08.33-1.98.93-.9.66-1.68 1.44-.78.78-1.5 1.62-.72.84-1.47 1.74t-1.53 1.74q-.42.48-.78.96-.36.48-.6 1.02-.6 1.32 0 2.4.18.24.42.42.18.06.6-.06 2.76-.54 5.37-1.5 2.61-.96 5.25-1.98 1.14-.48 2.25-1.02t1.83-1.5q-1.26 1.2-1.56 3.12l.72-.12q-.72.48-1.08 1.38-.36.9-.18 1.74l-.48 2.1q-.06.24-.06.72zm-23.94-11.22v-.06h-.06v.06h.06zm.6 0l.06-.06-.06-.06q-.06 0-.12.06l.12.06zm38.7 9.36q.12 1.74-.51 3.36-.63 1.62-1.89 2.82-.48.36-.78.42-.24.06-.48 0t-.48-.06q-.42 0-.78.18-.6.12-1.14.33-.54.21-1.14.45-.48.24-.78.3-.66.06-1.26-.15t-1.2.03q.78-.12 1.32-.66-.48.12-.96.18t-.96.18q.12-.12.3-.18t.3-.18q-.3 0-.57.06-.27.06-.57.18.06-.12.12-.15t.18-.15q-.84 0-1.62.15-.78.15-1.62.21 2.1-.96 2.82-3.06.24-.6.33-1.2.09-.6.27-1.26.18-.48.42-1.02t.42-1.02q.9-2.04.99-4.32.09-2.28-1.11-4.08l-.24-.48q-.12-.24 0-.48.78.18 1.5.36t1.5.36l-.36-.54q.78.06 1.56.21t1.32.69q.24.24.42.51t.36.57q.84 1.32 1.92 2.46t1.74 2.52q.6 1.26.66 2.46zm-12.9 6.9h.06l.12-.12q-.06 0-.12-.06-.06.06-.06.12-.06 0 0 .06zm1.5-.42l.06-.12q-.18 0-.24.06l-.24.12q-.12.06-.24.06-.24.06-.3.24.12-.06.36-.06.12-.12.3-.15t.3-.15zm73.32-29.1q.3.12.3.48-.06.36-.39.57-.33.21-.57.51-.18.18-.21.45t-.15.51q-.36.96-1.32 1.35-.96.39-1.98.57-1.44.3-2.88.54l-2.88.48q-.36.12-.72.21t-.66.33q-.3.3-.39.75-.09.45-.15.87-.54 6.06 1.14 11.7 1.32-.36 2.22-1.26.06.3.3.09t.3-.51l.36-2.16q-.06.48-.06.99t-.06.99q.72-.66 1.32-1.62.3 1.08-.06 2.1 1.2 0 2.16.84.48-2.64-.36-5.1.54.12 1.02.3t.96.42q.42.24.54.48.18.24.3.84.36 2.22.69 4.38.33 2.16.69 4.38.18.84.12 1.56-.12.48-.3.87t-.42.81q-.24.36-.42.72t-.42.72q-.48.9-1.11 1.74-.63.84-1.53 1.38-.66-.3-1.32-.54-.66-.24-1.26-.72-.54-.42-.93-1.05-.39-.63-.33-1.35.06-.66.3-1.2.24-.54.42-1.14.12-.6-.06-1.26t-.72-.84l1.08 1.08q.18-.66-.06-1.29t-.72-1.08q-.48-.45-1.11-.66-.63-.21-1.29-.03.12.54-.21 1.08-.33.54-.87.78-.42.12-.84.12h-.84q-2.76-.06-5.4 1.32-.42.18-.66.54-.12.18-.12.36t-.12.36q-.24.84-1.02 1.38-.78.54-1.62.48-.9-.06-1.62-.69-.72-.63-.9-1.47-.12-.66 0-1.26t.12-1.26q-.06-.48-.27-1.02-.21-.54-.09-.96.06-.42.33-.87t.63-.9l.72-.9q.36-.45.6-.87 1.14-1.98 1.5-4.56 1.08.06 1.71 1.02.63.96.69 2.04.06 1.08-.15 2.16t-.09 2.1q1.56.18 3-.48-.3-.42-.51-.81-.21-.39-.45-.81-.18.18-.45.18t-.39-.18q.3-.12.45-.36.15-.24.27-.54.36-1.14.57-2.28.21-1.14.33-2.28.24-1.56.45-3.03.21-1.47.39-2.97-.78.24-1.53.48t-1.47.48q-.42.12-.54.3-.12.18-.12.39v.45q.12.96-.21 1.92-.33.96-1.23 1.26-1.02.36-1.89-.36-.87-.72-1.29-1.74-.42-.96-.6-2.01-.18-1.05-.84-1.95 1.02-1.74 1.5-3.75t1.14-3.93q.66-1.8 1.65-3.42.99-1.62 2.01-3.24.48-.12.96.18t.6.78q-.78 2.4-1.26 4.86-.48 2.46-.78 4.98l3.54-1.08q.6-.18.96-.42.42-.48.48-1.02.3-.96.33-2.01.03-1.05.03-2.07 0-1.02.03-2.04t.27-2.04q.42-1.56 1.26-2.85.84-1.29 1.8-2.49.24.36.54.12l-.18-1.08q1.02.3 1.68 1.14.66.84.72 1.86-.48.42-.6 1.02-.12.6-.24 1.26-.42 2.28-1.08 4.47-.66 2.19-1.62 4.29 1.08 0 2.19-.24 1.11-.24 1.65-1.14.24-.3.3-.66.06-.36.18-.72.3-1.2.57-2.43.27-1.23.57-2.43-.3.78-.06 1.59t.84 1.29q-.18 1.68 1.08 3.06.48-1.92.12-3.84t-1.5-3.48q.3.24.54.42.24.18.54.36-.3-1.02-1.14-1.62 1.14.36 1.74 1.44-.18-1.14-1.08-1.74 1.38.66 1.92 2.13.54 1.47.84 3.03.24 1.14.42 2.25t.42 2.31q.78-.24 1.32.06zm-4.2 31.62l-.12.12q.12 0 .18-.12h-.06zm-2.04-9.18q-.3.42-.24.69.06.27.9-.03.3-.18.45-.57.15-.39.03-.69-.12-.3-.48-.03t-.66.63zm-20.4-19.08q0 .72-.27 1.44t-.81 1.2q-.84.84-2.1 1.11-1.26.27-2.4-.21-.06.78-.06 1.53t-.06 1.53q1.08-.84 1.38-2.16-.36.66.03 1.32t1.05 1.02q.66.36 1.32.63t1.14.87q-.3.36-.15.84t.63.66l-.6 1.02q-.96.3-1.89.57-.93.27-1.89.57-.24 0-.42.18-.54.36-.39 1.05.15.69.57 1.17.42.48.78 1.05.36.57.12 1.23-.12.3-.36.54-.24.24-.48.54-.48.54-.66 1.2-.18.66-.33 1.35-.15.69-.39 1.29-.24.6-.78.96-.66.48-1.53.3t-1.53-.78q-.66-.54-1.05-1.26t-.75-1.56q-.3-.66-.6-1.35-.3-.69-.6-1.41.36.24.72.42l.72.36q-.66-.3-.96-.9-.3-.6-.12-1.26-.54-.48-1.05-.87t-1.05-.81q-.24-.12-.21-.45t.21-.21q-.78-.54-1.56-.72-.78-.18-1.44-1.08-.54-.72-.93-1.56-.39-.84.39-1.38.36-.24 1.08-.33.72-.09 1.53-.12t1.56-.03q.75 0 1.23-.06l2.52-.24 2.52-.24q.66-1.2.42-2.58-.24-1.38-1.08-2.46-.84-1.02-1.92-1.8t-2.22-1.44q-1.14-.72-2.25-1.47t-1.95-1.77q1.8-1.08 3.9-1.41 2.1-.33 4.14.15.54-3.12-.84-6 .6-.48 1.32-.24.72.24 1.14.78.42.6.54 1.29.12.69.24 1.41.06.66.15 1.38.09.72.45 1.32.48.84 1.32 1.26l1.68.84q.66.36 1.32.84t1.08 1.14q.3.42.39.87.09.45.09.93zm-8.94-10.08q0 .18.18.3 0-.12-.18-.3zm-5.88 23.22h.06l-.06-.06v.06zm2.88 6.18v-.3q.06.06.06.12 0 .12-.06.18zm.06-.72v.18q.12-.06.12-.18-.06 0-.06-.03t-.06-.03v.06zm0-1.2q.12.3.21.33.09.03.39-.09-.06-.12-.3-.24l-.12.12q-.06 0-.18-.12zm3.12-5.16v-.24q-.72.18-1.26.42-1.08.42-1.38.54.42.3.93.42t1.05.24q.12 0 .18.03t.18-.03q.12-.12.15-.21t.09-.21q.06-.3.06-.51v-.45zm93.72 4.32q-.24 1.2-.96 2.4-.42.72-.99 1.38-.57.66-1.41.96-.66.3-1.41.3-.75 0-1.47-.12-1.32-.12-2.58-.51t-2.16-1.29q-.84-.84-1.26-1.92-.42-1.08-.78-2.16-.48-1.38-.87-2.76t-.87-2.76q-.66 1.14-.18 2.46.06.18.12.39.06.21-.06.33-.06.12-.12.15t-.18.15q-.66.42-1.35.84-.69.42-1.41.84-3-.66-5.4-2.28-2.04 2.64-5.16 3.96-.3-.9-.06-1.68-.36.36-.54.48-.24-.54.18-.96 0-.24-.18-.45-.18-.21-.42-.15.3-1.2.03-2.46t-.99-2.28q.18.3.57.33.39.03.63-.27L388 40.18q-.42-.18-.81.03-.39.21-.51.57.12-.78.9-.9-.06-.36-.33-.75t-.57-.15q-.06-.66.54-1.14.6-.48 1.26-.54.66-.12 1.32.09t1.32.51l2.94 1.26q.9-1.2 1.44-2.58.54-1.38.66-2.82.06-.6.27-1.2.21-.6.81-.66.66 2.16.87 4.38.21 2.22-.09 4.5 1.38.66 2.79 1.26 1.41.6 2.85 1.26-.3 0-.57.03-.27.03-.57.03h1.5q-.54-5.64.36-11.34t2.1-11.28q-1.5-.12-2.88.48t-2.52 1.5q-1.14.96-2.1 2.07-.96 1.11-1.98 2.13-.42.42-.81.75-.39.33-.87.63-1.08.6-2.37.63-1.29.03-2.37-.63-.96-.54-1.71-1.59t-.63-2.25q.12-.06.39-.03t.33.15l-.24-.72q1.86 1.02 3.99.42 2.13-.6 4.05-1.56 1.8-.84 3.6-1.74l3.6-1.8q.9-.48 1.8-.87t1.92-.57q1.02-.18 2.01-.06.99.12 1.83.72.78.48.96 1.38.12.48-.03.99t-.39.99q-1.32 3-2.04 6.15-.72 3.15-.96 6.39-.06-.06-.18 0t-.12.18q.18.3.36.12-.48.36-.36.9-.24 2.88.33 5.76.57 2.88 1.83 5.46.3.66.72 1.2.42.54 1.08.72 1.92-5.58.9-11.4.54.9.78 1.89l.48 1.98q.24.99.54 1.98.3.99.84 1.83.54.84 1.23 1.53.69.69 1.05 1.59.42 1.08.12 2.4zm-9.96-15.06zm.18-2.64l-.06.06q.06 0 .12.06.06 0 .09-.03t.09-.03l.06-.12v-.06h-.12q0 .12-.18.12zM390.1 28h.12q-.06 0-.06-.03t-.06-.03V28zm2.1.3l.12-.06q-.06 0-.06-.06-.48 0-.72.12.24.12.66 0zm4.02-.54l-.06-.06h.12q-.06 0-.06.06zm-6.9 9.9q-.12-.12-.24-.12.06.12.24.12zm-1.2-.3l.12.12q.12.06.24.06t.24.06q0-.06.03-.09t.03-.09q-.36-.12-.48-.12-.06 0-.09.03t-.09.03zm1.44 10.38q.18.12.18-.12-.06.06-.09.06t-.09.06zm2.28-4.92v-.06q-.06-.12-.12-.15t-.12-.09q-.12-.12-.24-.18t-.24-.24l-.06-.06q-.24-.12-.42-.24t-.42-.24q-.12-.12-.24-.06 0 .12-.12 0l.12-.12q-.06 0-.12-.06-.06 0-.06.12l-.24-.24q-.12-.12-.24-.18-.06-.06-.12-.09t-.12-.09q-.24-.12-.42-.12-.24-.12-.12.18.12.18.15.36t.15.3q.12.36.3.48.12.12.21.24t.21.24q.06.06.12.06l.12.12.12.06v.06l.06.12q.06 0 .06-.03t.06-.03l.12.12q.12.06.21.15t.21.15q.06.12.3.24.06 0 .12.06.18.06.24-.06.18-.18.42-.54.12-.12.12-.18zM397 32.8l.06-.06q.06-.24-.24-.24.06.06.06.24 0 .06.12.06zm1.74 10.98v.06h.06v-.06h-.06zm0 .24v.06q.06 0 .12-.06-.06 0-.06-.06-.06 0-.06.06zm5.34-.36v-.18q-.06.06-.09.03t-.09.09q.06 0 .09.03t.09.03zm2.46-23.94q.06-.12.06-.18t.06-.12h-1.2q-.36.12-.48.12l-.9.36q-.06.06-.24.06-.12 0-.18.06t-.18.12q0 .06-.12.06-.12-.12-.12.06-.12.24-.3.12h-.06l.12.12q-.24.06-.36.06-.18-.06-.18.12v.06q-.06 0-.12-.06-.06 0-.18.06t-.12.12q-.06.18-.24.18-.12 0-.24.06 0 .18-.12.12-.12 0-.48.24.12.12.24.03t.24-.09q.06.12.18.06.06-.06.12-.06v-.18q.12.12.27.03.15-.09.27-.15l.06-.06q.36-.12.42-.18.18-.06.3-.15t.3-.09q.12 0 .24-.12.18-.06.42-.18.12 0 .15-.03t.15-.03q.24-.06.42-.15t.42-.09q.6-.12 1.02-.24.3 0 .36-.06zm.3-.24q.06.18.24.18-.12-.18-.24-.18zm1.74 19.2q-.06-.06-.06-.15t-.18-.15q.06.06.06.12v.12q0 .12.18.06zm.06 15.66q.06-.06 0-.18-.12-.12-.3-.12.18.3.3.3zm2.28-7.5h.06-.06zm-26.1.3q-.06 1.38-.09 2.7-.03 1.32-.15 2.64 0 .48-.06.99t-.24.99q-.12.3-.27.63-.15.33-.33.63-.48.78-.9 1.53-.42.75-.84 1.59-.42.72-.93 1.38-.51.66-1.29.9-.66.24-1.29.09t-1.2-.54q-.57-.39-1.02-.96-.45-.57-.69-1.17-.3-.6-.24-1.02 0-.24.09-.42t.21-.36q.78-1.68.3-3.54.18.12.36.21t.36.21q0-2.1-1.08-3.84.3.12.63.21t.63.21q-.3-.12-.78-.72-.48-.6-.78-.9.42.42.9.48-.18-.42-.33-.84-.15-.42-.33-.84.66 1.32 1.89 2.22 1.23.9 2.67 1.2 1.08-1.68 1.62-3.57t.72-3.9q.18-2.01.09-4.05t-.27-4.02q-.12-.9-.33-1.8-.21-.9-.93-1.38.48-.48 1.14-.81.66-.33 1.26.03.42.3.54.75.12.45.18.93.48 3.54.66 7.05.18 3.51.12 7.11zm95.88-5.76q0 .42-.06.6-.12.84-.69 1.47t-1.35.87q-.9.3-1.86.12-.96-.18-1.8-.66-.84-.42-1.56-.99-.72-.57-1.2-1.41-.18-.3-.3-.63t-.36-.63q-.3-.48-.96-.9l-4.14-3.3q-.12 2.58-.06 5.16t.3 5.22q2.34-.24 4.71-.42t4.71-.3q-.72.24-1.38.51-.66.27-1.32.69l1.56-.54q-.48.3-.99.57-.51.27-.99.57.72-.3 1.41-.63t1.41-.63q-1.08.42-1.71 1.44-.63 1.02-1.35 1.98-1.02 1.32-2.55 2.07-1.53.75-3.21.69 1.08 1.5 1.2 3.36-.24.54-.42 1.05t-.42 1.05q-.48 1.08-.93 2.13-.45 1.05-1.29 1.89-.3.36-.72.54-.3.06-.9-.18-.72-.3-1.26-.9-.54-.6-.72-1.38-.24-.84-.12-1.74l.24-1.8q.12-.9.09-1.77t-.51-1.59q.42-.12.39-.6-.03-.48-.27-.9.12.18.24.33.12.15.24.33-.54-1.5-.54-3.12l.48.48q-.12-.3-.27-.54-.15-.24-.33-.54-.3-.66-.9-1.23-.6-.57-1.26-.33-.42.12-.69.48-.27.36-.57.66-.36.36-.81.57-.45.21-.93.33-.36.12-.72.18t-.72 0q-.9-.18-1.32-1.05-.42-.87-.72-1.77-.12-.3-.24-.66-.12-.36-.42-.54-.3-.06-.42-.24-.12-.12-.09-.27.03-.15.03-.27.06-.48.06-.96t.06-.96q.18.06.39.12.21.06.39.12-.18-.54-.33-1.08-.15-.54-.27-1.08l.3.3q.18.18.36.3-.48-1.02-1.23-2.25t-.93-2.37q.06 0 .24.15t.18.21q.12-.18.15-.36t.15-.36q.06 1.32.81 2.43t1.95 1.59q1.38.6 2.52.06.36-.24.63-.54.27-.3.57-.6 2.46-3.12 4.68-6.78-1.74-.3-3.33-.93-1.59-.63-3.15-1.41-.48-.24-.87-.51t-.69-.69q-.3-.42-.27-.93.03-.51.45-.81.36-.3.81-.36.45-.06.63-.42 3.72.18 6.96-1.68.3-.18.54-.48.12-.18.12-.66 0-1.02-.06-2.07-.06-1.05-.54-2.01-.12-.3-.21-.69-.09-.39.21-.57-.12-.12-.3-.21t-.3-.21q.12-.18.3-.36t.3-.36q.36.24.42.54.18-.3.12-.66.54-.12.9.33t.54.93q.3.84.51 1.74.21.9.69 1.68.48.78 1.32 1.23.84.45 1.68.15-.12.12-.03.27.09.15.21.21.18.06.36 0t.3.06q.24.12.33.33.09.21.15.45.06.24.15.42t.33.24q.12 0 .27-.03.15-.03.27.03.3.12.33.45.03.33-.09.63-.3.84-.63 1.71t-.81 1.71q-.48.78-1.17 1.38-.69.6-1.59.9-.3.06-.63.21t-.27.45q.48.6 1.2.48-.06-.12-.15-.06t-.09.18q0 .12.18.3l4.32 3.24q.3-.24.66-.18.36.06.66.18 1.08.36 2.19.54 1.11.18 2.25.06-.12.54 0 .78l1.26.36q.06.3.3.51.24.21.48.39 1.14.96 1.14 2.4zm-26.82-13.56q.18 0 .18-.06 0-.12-.06-.12-.06.06-.06.09t-.06.09zm2.1-1.38h.42q.3.06.66-.12-.3 0-.63.03t-.63.03v.06h.18zm-5.04 10.08v.06l-.06-.06q-.06 0-.06-.12h.06q.06.06.06.12zm.48 6.54h.06l.06-.06-.06-.06q-.06.06-.06.12zm9.96 2.28h-.06q0 .24.12.18t.09-.12q-.03-.06-.15-.06zm2.22-12.96q0 .36.12.96-.06-.3-.03-.51.03-.21-.09-.45zm-.36 13.56q.06.06.12 0l-.06-.12-.12-.06q-.18-.12-.36-.15t-.36-.15h-.06q-.06 0-.06.06 0 .18.12.18.12-.06.24 0l.24.12v.06h.06q-.06 0-.06-.06.18 0 .3.12zm.6-11.1v-.24q.06-.24.03-.45-.03-.21-.03-.39 0-.06-.03-.09t-.03-.09q-.12.24-.12.36-.06.18-.06.36t-.06.3v.24q.06.12.03.18t-.03.18q-.18.84-.18 1.62 0 .3-.03.54-.03.24-.03.48-.06.3-.09.51-.03.21-.09.51-.12.72-.36 1.44-.06.12-.06.21t-.06.21l-.12.36q-.06.18-.06.42v.06q-.06.24-.09.42t-.09.42q0 .12-.09.27-.09.15-.09.27-.06.06-.18.48-.06.3-.12.54-.06.24-.18.48 0 .12-.03.15t-.03.15q-.06.18.12.3.06.06.18.06-.06-.06-.06-.09t-.12-.09h.24q.36.24.48.36l.24.12.24.12q.24.12.42.12.12-.06.12-.36t.03-.51.03-.51q0-.36.03-.69.03-.33.03-.69v-1.14q-.06-.12-.03-.27.03-.15-.03-.27v-2.7q0-.42.03-.84t.09-.84q0-.3.06-.42 0-.18.12-.66v-.54q.06-.12.06-.36zm.18-17.46q0 .24.18.3 0-.24-.06-.42-.12 0-.12.12zm2.34 15h-.06.06zm-16.5 10.26q.12.66.21 1.32t-.03 1.32q-.06.72-.21 1.47t-.39 1.47q-.42 1.56-.84 3.18t-.84 3.18q-.12.48-.45.93-.33.45-.81.33-.12 0-.18-.03t-.18-.03q-.3.12-.27.57.03.45-.27.39-.12-.12-.15-.21t-.15-.21l-.36.18q-.18-.48-.36-.93-.18-.45-.48-.93l.54.54v-1.44q.06.12.18.09t.24-.15q.06-.12.06-.48-.12-.66-.18-1.38-.06-.72-.18-1.38.12.06.3.09t.3.09q-.48-2.1.06-4.02-.3 1.56.84 2.7.54-1.2.99-2.43.45-1.23.63-2.55.18-1.32-.09-2.64t-1.17-2.34q.12.72-.15 1.41t-.75 1.29q-1.86 2.52-4.74 3.54-.54.18-1.08.27-.54.09-1.02-.15-.3-.12-.54-.33-.24-.21-.42-.39-.48-.48-.81-.93-.33-.45-.45-1.05-.12-.66.06-1.29t.3-1.29q.18-.66.12-1.35-.06-.69-.6-1.11.3.12.66.27.36.15.66.27-.24-.84-.57-1.62-.33-.78-.75-1.5-.36-.66-.87-1.29t-.87-1.29q.24.06.66-.24.24.78.81 1.38.57.6 1.29 1.02.72.42 1.47.66.75.24 1.59.48.42.12.66 0 .18-.06.36-.36 3.3-4.56 5.16-9.84.3-.72.54-1.47.24-.75.66-1.41.06.12.06.21t.06.21q.48 0 .84.3t.48.78q.12.24.09.48t-.03.48q-.3 2.58-.63 5.13t-1.17 5.07q-.12.3-.21.63t.03.69q.06.42.42.96.66 1.08 1.17 2.28.51 1.2.75 2.4zm-1.74 10.2h-.06.06zm1.8-7.56q.12-.54.09-1.11-.03-.57-.09-1.17-.06-.06-.06-.12t-.12-.06q-.12 0-.12.24 0 .84-.06 1.74t-.18 1.74q.06-.12.18-.24-.12.18-.27.84-.15.66-.03.84.6-1.32.66-2.7z"/></svg>