<svg viewBox="0 0 536 80" xmlns="http://www.w3.org/2000/svg"><path d="M35.04 55.6l-1.2 2.4H15.6v-1.86l5.64-4.44V15.34L15 13.24l1.2-2.4h18.24v1.86l-5.7 4.44v36.3l6.3 2.16zm44.64.06l-1.2 2.4h-11.4V37.84q0-3.3-1.02-4.62-1.02-1.32-3.66-1.32-1.98 0-3.93.72-1.95.72-4.59 2.76v18.18l5.4 2.1-1.2 2.4H41.34V56.2l5.34-4.2V35.02l-5.34-3.12v-1.86L51.6 25l1.98 7.8 8.52-6.78q1.26-.48 3.3-.48 4.08 0 6.48 2.49 2.4 2.49 2.4 6.75V53.5l5.4 2.16zm16.14-2.16l5.4 2.1-1.2 2.4H83.28v-1.86l5.34-4.2v-36.9l-5.34-3.72V9.46l10.26-3.84h2.28V53.5zm25.8 2.1l-1.2 2.4h-10.14L99 42.16l11.22-9.42-5.76-4.2 1.2-2.4H120V28l-13.92 11.7 10.14 13.8 5.4 2.1zm42.54.06l-1.2 2.4h-11.4V37.84q0-3.3-1.02-4.62-1.02-1.32-3.66-1.32-1.98 0-3.93.72-1.95.72-4.59 2.76v18.18l5.4 2.1-1.2 2.4h-16.74V56.2l5.34-4.2V35.02l-5.34-3.12v-1.86L136.08 25l1.98 7.8 8.52-6.78q1.26-.48 3.3-.48 4.08 0 6.48 2.49 2.4 2.49 2.4 6.75V53.5l5.4 2.16zm41.34-.06l-1.2 2.4h-11.4v-6.24l-7.62 6.36q-1.26.48-3.3.48-4.08 0-6.48-2.49-2.4-2.49-2.4-6.75V35.02l-5.34-3.12v-1.86L178.02 25h2.28v21.36q0 3.3 1.02 4.62 1.02 1.32 3.66 1.32 1.86 0 3.66-.69t4.26-2.73V35.02l-5.34-3.12v-1.86L197.82 25h2.28v28.5l5.4 2.1zm28.56-2.28l-6.06 4.8q-1.38.48-3.36.48-4.98 0-7.29-2.61-2.31-2.61-2.31-8.07V30.4h-6.48v-2.46l11.4-13.26h2.28v13.26h10.8v2.46h-10.8v18.24q0 4.86 4.68 4.86 1.26 0 2.43-.54 1.17-.54 2.91-1.92l1.8 2.28zm69.84 2.28l-1.2 2.4h-18.24v-1.86l5.64-4.38-4.62-11.1h-20.16L260.4 52l10.56 3.6-1.2 2.4h-18.24v-1.86l5.64-4.44 16.98-38.94 6.24-3.06 17.52 42.24 6 3.66zm-19.5-17.64l-8.76-21.06-9.12 21.06h17.88zm61.14 17.7l-1.2 2.4h-11.4V37.84q0-3.3-1.02-4.62-1.02-1.32-3.66-1.32-1.98 0-3.93.72-1.95.72-4.59 2.76v18.18l5.4 2.1-1.2 2.4H307.2V56.2l5.34-4.2V35.02l-5.34-3.12v-1.86L317.46 25l1.98 7.8 8.52-6.78q1.26-.48 3.3-.48 4.08 0 6.48 2.49 2.4 2.49 2.4 6.75V53.5l5.4 2.16zm27.96-2.34l-6.06 4.8q-1.38.48-3.36.48-4.98 0-7.29-2.61-2.31-2.61-2.31-8.07V30.4H348v-2.46l11.4-13.26h2.28v13.26h10.8v2.46h-10.8v18.24q0 4.86 4.68 4.86 1.26 0 2.43-.54 1.17-.54 2.91-1.92l1.8 2.28zm22.14 2.28l-1.2 2.4H377.7v-1.86l5.34-4.2V34.42l-5.34-3.72v-1.86L387.96 25h2.28v28.5l5.4 2.1zM386.4 7q1.8 0 2.97 1.32 1.17 1.32 1.17 3.3 0 1.38-.84 2.61t-2.1 1.95q-1.26.72-2.46.72-1.8 0-2.97-1.32-1.17-1.32-1.17-3.3 0-1.38.84-2.61t2.1-1.95Q385.2 7 386.4 7zm52.14 63.9l-1.2 2.4H417.6v-1.86l8.34-4.44V53.74l-5.58 4.44q-1.92.48-4.62.48-3.96 0-7.11-2.07-3.15-2.07-4.92-5.61-1.77-3.54-1.77-7.8 0-4.62 2.82-8.67t7.05-6.48q4.23-2.43 8.19-2.43 4.62 0 7.86 3.54l3-4.2h2.28v43.8l5.4 2.16zM418.8 53.56q1.8 0 3.45-.51 1.65-.51 3.69-1.95V37.42q-.36-3-2.79-4.89-2.43-1.89-6.63-1.89-6.78 0-6.78 9.66 0 5.64 2.34 9.45 2.34 3.81 6.72 3.81zm61.08 2.04l-1.2 2.4h-11.4v-6.24l-7.62 6.36q-1.26.48-3.3.48-4.08 0-6.48-2.49-2.4-2.49-2.4-6.75V35.02l-5.34-3.12v-1.86L452.4 25h2.28v21.36q0 3.3 1.02 4.62 1.02 1.32 3.66 1.32 1.86 0 3.66-.69t4.26-2.73V35.02l-5.34-3.12v-1.86L472.2 25h2.28v28.5l5.4 2.1zm37.86 0l-1.2 2.4h-11.4v-5.22l-6.78 5.34q-1.2.48-3 .48-5.16 0-7.47-2.58-2.31-2.58-2.31-6.18 0-2.16 1.56-4.26 1.56-2.1 4.44-3.96h13.56v-3.84q0-3.9-2.07-5.52-2.07-1.62-5.67-1.62-3.72 0-9.12 4.5l-1.8-2.28 8.64-6.84q2.4-.48 5.76-.48 5.46 0 8.46 2.67 3 2.67 3 7.77V53.5l5.4 2.1zm-20.46-2.1q3.66 0 7.86-3.36v-6.06h-10.62q-.78.96-1.11 1.92-.33.96-.33 2.1 0 2.22 1.14 3.81 1.14 1.59 3.06 1.59z"/></svg>