<svg viewBox="0 0 710 80" xmlns="http://www.w3.org/2000/svg"><path d="M30.2 56.06q3.24 0 5.13-1.86 1.89-1.86 1.89-4.98V25.64H21.8v-6.9h22.92v30.48q0 3.12-1.02 5.61t-2.91 4.23q-1.89 1.74-4.56 2.67-2.67.93-6.03.93-3.06 0-5.61-.87-2.55-.87-4.41-2.49-1.86-1.62-3-3.9t-1.38-5.16h7.56q.3 2.64 2.13 4.23 1.83 1.59 4.71 1.59zM68 62.6q-3.24 0-5.91-.93t-4.53-2.61q-1.86-1.68-2.88-4.08-1.02-2.4-1.02-5.34V41.3q0-2.94 1.02-5.34t2.88-4.08q1.86-1.68 4.53-2.58 2.67-.9 5.91-.9t5.88.93q2.64.93 4.5 2.61 1.86 1.68 2.88 4.08 1.02 2.4 1.02 5.34v6H61.1v2.16q0 3.3 1.83 5.16 1.83 1.86 5.07 1.86 2.46 0 4.17-.75t2.43-2.19h7.38q-.54 2.04-1.8 3.72-1.26 1.68-3.09 2.85-1.83 1.17-4.14 1.8-2.31.63-4.95.63zm-6.9-20.28h13.8v-.96q0-3.3-1.8-5.13T68 34.4q-3.24 0-5.07 1.83T61.1 41.3v1.02zm27.6-6.54V29h9.12V18.8h7.5V29h12.54v6.78h-12.54V51.8q0 1.56.93 2.49.93.93 2.61.93h8.4V62h-8.94q-4.86 0-7.68-2.76-2.82-2.76-2.82-7.44V35.78H88.7zM140.66 62h-14.22V18.8h13.74q6.48 0 10.2 3 3.72 3 3.72 8.16 0 3.96-2.22 6.42t-6 2.76v.54q4.2.3 6.6 2.94 2.4 2.64 2.4 6.96 0 2.88-.99 5.16-.99 2.28-2.82 3.9-1.83 1.62-4.47 2.49-2.64.87-5.94.87zm-.48-19.2h-6.42v12.96h6.42q3.36 0 5.22-1.71 1.86-1.71 1.86-4.77 0-3.06-1.86-4.77-1.86-1.71-5.22-1.71zm-.06-17.76h-6.36v11.58h6.3q2.94 0 4.68-1.56 1.74-1.56 1.74-4.26 0-2.7-1.71-4.23-1.71-1.53-4.65-1.53zM163.7 62V29h7.08v5.7h.54q.6-3 3-4.65 2.4-1.65 6.12-1.65 5.34 0 8.34 3.3t3 9.12v2.4h-7.86v-1.74q0-3.18-1.74-4.95t-4.8-1.77q-2.88 0-4.53 1.8-1.65 1.8-1.65 4.92V62h-7.5zm33.36-9.24q0-2.46.9-4.41.9-1.95 2.58-3.33 1.68-1.38 4.05-2.13t5.31-.75h8.28v-2.82q0-2.28-1.71-3.63t-4.71-1.35q-2.46 0-4.14.9-1.68.9-2.16 2.46h-7.38q.78-4.32 4.44-6.81 3.66-2.49 9.24-2.49 3.18 0 5.76.75 2.58.75 4.38 2.16 1.8 1.41 2.79 3.42t.99 4.47V62h-7.08v-6.48h-.48q-.6 3.24-3.39 5.16t-6.93 1.92q-4.92 0-7.83-2.67t-2.91-7.17zm13.32 3.96q3.42 0 5.61-1.65 2.19-1.65 2.19-4.17v-3.84h-8.22q-2.52 0-3.96 1.26t-1.44 3.54q0 2.28 1.53 3.57t4.29 1.29zm24.6 5.28v-6.84h11.82V35.78h-10.32V29H254v26.16h9.54V62h-28.56zm9.66-41.94q0-1.74 1.17-2.85t3.09-1.11h1.56q1.92 0 3.09 1.11t1.17 2.85q0 1.8-1.2 2.88-1.2 1.08-3.12 1.08h-1.5q-1.92 0-3.09-1.08t-1.17-2.88zM277.82 62h-7.5V29h7.14v5.7h.54q.54-3 2.82-4.65 2.28-1.65 5.88-1.65 4.98 0 7.92 3.24 2.94 3.24 2.94 8.76V62h-7.5V41.3q0-3-1.62-4.71T284 34.88q-2.88 0-4.53 1.77-1.65 1.77-1.65 4.83V62zm43.32.6h-2.4q-5.82 0-9.27-2.37-3.45-2.37-3.99-6.69h7.68q.36 1.56 1.86 2.43 1.5.87 3.72.87h2.4q2.82 0 4.35-1.11 1.53-1.11 1.53-3.03 0-3.3-5.1-4.02l-4.68-.54q-5.64-.72-8.34-3.12-2.7-2.4-2.7-6.9 0-4.68 3.27-7.2 3.27-2.52 9.39-2.52h2.46q5.46 0 8.79 2.31 3.33 2.31 3.93 6.45h-7.68q-.3-1.38-1.65-2.19-1.35-.81-3.39-.81h-2.46q-5.28 0-5.28 3.72 0 3.18 4.44 3.72l4.86.66q5.88.72 8.7 3.21 2.82 2.49 2.82 6.99 0 4.86-3.42 7.5-3.42 2.64-9.84 2.64zm62.82-.6h-6.66V18.8h8.88l4.74 13.74q.24.66.42 1.44.18.78.3 1.44.18.78.3 1.5h.42q.12-.72.3-1.5.18-.66.36-1.44.18-.78.42-1.44l4.32-13.74h9V62h-6.72V33.98q0-1.38.12-2.88t.24-2.76q.12-1.5.3-2.94h-.54q-.3 1.38-.66 2.7-.3 1.14-.6 2.37-.3 1.23-.6 2.25l-3.12 10.26h-6.24l-3.3-10.26q-.3-1.02-.6-2.25t-.6-2.37q-.3-1.32-.54-2.7h-.6q.18 1.44.36 2.94.12 1.26.21 2.76.09 1.5.09 2.88V62zm37.2-20.58v8.1q0 3 1.83 4.74Q424.82 56 428 56q3.18 0 5.01-1.74 1.83-1.74 1.83-4.74v-8.1q0-3-1.83-4.74-1.83-1.74-5.01-1.74-3.12 0-4.98 1.74-1.86 1.74-1.86 4.74zm-7.5 8.1v-8.1q0-2.94 1.02-5.34t2.91-4.11q1.89-1.71 4.53-2.64 2.64-.93 5.88-.93 3.24 0 5.88.93 2.64.93 4.53 2.64 1.89 1.71 2.91 4.11 1.02 2.4 1.02 5.34v8.1q0 2.94-1.02 5.37t-2.88 4.14q-1.86 1.71-4.53 2.64-2.67.93-5.91.93t-5.88-.96q-2.64-.96-4.53-2.67-1.89-1.71-2.91-4.11-1.02-2.4-1.02-5.34zM457.82 62h-7.5V29h7.14v5.7h.54q.54-3 2.82-4.65 2.28-1.65 5.88-1.65 4.98 0 7.92 3.24 2.94 3.24 2.94 8.76V62h-7.5V41.3q0-3-1.62-4.71T464 34.88q-2.88 0-4.53 1.77-1.65 1.77-1.65 4.83V62zm35.34-20.58v8.1q0 3 1.83 4.74Q496.82 56 500 56q3.18 0 5.01-1.74 1.83-1.74 1.83-4.74v-8.1q0-3-1.83-4.74-1.83-1.74-5.01-1.74-3.12 0-4.98 1.74-1.86 1.74-1.86 4.74zm-7.5 8.1v-8.1q0-2.94 1.02-5.34t2.91-4.11q1.89-1.71 4.53-2.64 2.64-.93 5.88-.93 3.24 0 5.88.93 2.64.93 4.53 2.64 1.89 1.71 2.91 4.11 1.02 2.4 1.02 5.34v8.1q0 2.94-1.02 5.37t-2.88 4.14q-1.86 1.71-4.53 2.64-2.67.93-5.91.93t-5.88-.96q-2.64-.96-4.53-2.67-1.89-1.71-2.91-4.11-1.02-2.4-1.02-5.34zm87 12.48h-14.22V18.8h13.74q6.48 0 10.2 3 3.72 3 3.72 8.16 0 3.96-2.22 6.42t-6 2.76v.54q4.2.3 6.6 2.94 2.4 2.64 2.4 6.96 0 2.88-.99 5.16-.99 2.28-2.82 3.9-1.83 1.62-4.47 2.49-2.64.87-5.94.87zm-.48-19.2h-6.42v12.96h6.42q3.36 0 5.22-1.71 1.86-1.71 1.86-4.77 0-3.06-1.86-4.77-1.86-1.71-5.22-1.71zm-.06-17.76h-6.36v11.58h6.3q2.94 0 4.68-1.56 1.74-1.56 1.74-4.26 0-2.7-1.71-4.23-1.71-1.53-4.65-1.53zm29.04 16.38v8.1q0 3 1.83 4.74Q604.82 56 608 56q3.18 0 5.01-1.74 1.83-1.74 1.83-4.74v-8.1q0-3-1.83-4.74-1.83-1.74-5.01-1.74-3.12 0-4.98 1.74-1.86 1.74-1.86 4.74zm-7.5 8.1v-8.1q0-2.94 1.02-5.34t2.91-4.11q1.89-1.71 4.53-2.64 2.64-.93 5.88-.93 3.24 0 5.88.93 2.64.93 4.53 2.64 1.89 1.71 2.91 4.11 1.02 2.4 1.02 5.34v8.1q0 2.94-1.02 5.37t-2.88 4.14q-1.86 1.71-4.53 2.64-2.67.93-5.91.93t-5.88-.96q-2.64-.96-4.53-2.67-1.89-1.71-2.91-4.11-1.02-2.4-1.02-5.34zm34.2-31.32h18v33.12q0 1.86 1.05 2.88 1.05 1.02 2.79 1.02h9.84V62h-10.38q-5.04 0-7.92-2.82t-2.88-7.86V24.98h-10.5V18.2zm37.8 31.32V41.3q0-3 .81-5.37t2.31-4.05q1.5-1.68 3.6-2.58 2.1-.9 4.62-.9 3.6 0 5.94 1.68 2.34 1.68 2.88 4.62h.6l-.12-2.04q-.12-.9-.15-1.89-.03-.99-.03-1.77V18.2h7.5V62h-7.2v-5.76h-.6q-.54 3-2.88 4.68-2.34 1.68-5.94 1.68-2.52 0-4.62-.9t-3.6-2.61q-1.5-1.71-2.31-4.14-.81-2.43-.81-5.43zm14.04 6.54q2.94 0 4.68-1.8 1.74-1.8 1.74-4.74v-8.04q0-3-1.77-4.8-1.77-1.8-4.65-1.8-3.06 0-4.8 1.77-1.74 1.77-1.74 4.83v7.86q0 3.06 1.74 4.89 1.74 1.83 4.8 1.83z"/></svg>