<svg viewBox="0 0 819 80" xmlns="http://www.w3.org/2000/svg"><path d="M29.2 52.8q3.84 0 6.12-2.19 2.28-2.19 2.28-5.91V18.6H20.8v-4.8H43v30.9q0 2.94-.96 5.34t-2.76 4.08q-1.8 1.68-4.35 2.58-2.55.9-5.73.9-2.64 0-4.92-.78t-4.05-2.25q-1.77-1.47-2.94-3.51T15.7 46.5h5.4q.54 2.88 2.76 4.59 2.22 1.71 5.34 1.71zM67 57.6q-6.18 0-9.69-3.36T53.8 45v-9q0-5.88 3.51-9.24Q60.82 23.4 67 23.4t9.69 3.36Q80.2 30.12 80.2 36v6.06h-21v2.64q0 3.78 2.07 5.94Q63.34 52.8 67 52.8q2.7 0 4.68-.84 1.98-.84 2.94-2.46h5.4q-1.02 3.78-4.53 5.94Q71.98 57.6 67 57.6zm-7.8-20.04h15.6V36q0-3.72-2.04-5.76Q70.72 28.2 67 28.2q-3.72 0-5.76 2.04Q59.2 32.28 59.2 36v1.56zm29.4-8.64V24h9.6V13.8h5.4V24h12.9v4.92h-12.9v19.56q0 1.68 1.05 2.64 1.05.96 2.85.96h8.4V57h-8.4q-4.26 0-6.78-2.34-2.52-2.34-2.52-6.18V28.92h-9.6zm37.8-15.12h12.66q6.12 0 9.6 3.06 3.48 3.06 3.48 8.34 0 3.84-2.19 6.27-2.19 2.43-5.79 2.73v.36q4.14.24 6.45 2.94 2.31 2.7 2.31 7.32 0 2.82-.9 5.07-.9 2.25-2.61 3.84-1.71 1.59-4.17 2.43-2.46.84-5.52.84H126.4V13.8zm5.34 23.4v14.88h7.38q3.84 0 5.97-1.98t2.13-5.46q0-3.48-2.16-5.46t-5.94-1.98h-7.38zm7.32-18.48h-7.32v13.8H139q3.42 0 5.43-1.83t2.01-5.07q0-3.24-1.98-5.07t-5.4-1.83zM163.72 57V24h5.1v5.7h.48q.78-2.94 3.24-4.62 2.46-1.68 6.06-1.68 5.22 0 8.19 3.27 2.97 3.27 2.97 8.97v1.86h-5.4v-1.2q0-3.9-1.95-6.03-1.95-2.13-5.55-2.13-3.54 0-5.64 2.19-2.1 2.19-2.1 5.97V57h-5.4zm33.06-9.6q0-2.34.81-4.23.81-1.89 2.34-3.21 1.53-1.32 3.69-2.04t4.86-.72h9.84v-2.7q0-3.06-2.01-4.77-2.01-1.71-5.79-1.71-2.76 0-4.71 1.02-1.95 1.02-2.61 2.82h-5.4q.84-3.9 4.29-6.18t8.55-2.28q6.12 0 9.6 2.85 3.48 2.85 3.48 7.95V57h-4.92v-6.3h-.48q-.78 3.18-3.66 5.04-2.88 1.86-7.02 1.86-4.98 0-7.92-2.76-2.94-2.76-2.94-7.44zm12.06 5.76q2.04 0 3.78-.54 1.74-.54 3-1.53t1.98-2.31q.72-1.32.72-2.88v-4.5h-9.72q-3 0-4.71 1.56t-1.71 4.32q0 2.76 1.74 4.32 1.74 1.56 4.92 1.56zM262 57h-27.3v-4.92h12V28.92h-10.5V24h15.9v28.08h9.9V57zm-14.1-45.9h1.2q1.74 0 2.82 1.02 1.08 1.02 1.08 2.64t-1.08 2.58q-1.08.96-2.82.96h-1.2q-1.74 0-2.82-.93-1.08-.93-1.08-2.61 0-1.62 1.08-2.64t2.82-1.02zM275.68 57h-5.4V24h5.1v5.7h.48q.78-3 3.15-4.65 2.37-1.65 5.91-1.65 2.46 0 4.47.84t3.42 2.37q1.41 1.53 2.19 3.66t.78 4.77V57h-5.4V35.94q0-3.78-1.92-5.88t-5.34-2.1q-3.42 0-5.43 2.25t-2.01 6.09V57zm44.1.6h-1.68q-5.22 0-8.61-2.37-3.39-2.37-3.87-6.33h5.7q.36 1.74 2.22 2.82 1.86 1.08 4.56 1.08h1.68q3.24 0 5.04-1.35 1.8-1.35 1.8-3.63 0-3.9-5.52-4.74l-4.98-.72q-4.86-.72-7.26-3.06-2.4-2.34-2.4-6.54 0-4.44 3.15-6.9t8.79-2.46h1.68q2.4 0 4.44.6 2.04.6 3.6 1.71 1.56 1.11 2.55 2.64.99 1.53 1.29 3.39h-5.7q-.36-1.56-2.04-2.55-1.68-.99-4.14-.99h-1.68q-3.06 0-4.77 1.2-1.71 1.2-1.71 3.6 0 1.92 1.17 2.91 1.17.99 3.81 1.35l4.98.72q5.34.78 7.77 3.12 2.43 2.34 2.43 6.66 0 4.62-3.21 7.23-3.21 2.61-9.09 2.61zm62.7-.6h-4.98V13.8h6.72l5.28 14.64q.3.66.54 1.53.24.87.42 1.59.24.9.48 1.74h.36q.24-.84.48-1.74.24-.72.51-1.59.27-.87.51-1.53l4.98-14.64h6.72V57h-4.98V26.7q0-.96.03-2.16.03-1.2.15-2.34l.12-2.64h-.36q-.36 1.26-.72 2.46-.3 1.08-.69 2.34-.39 1.26-.75 2.34l-3.72 11.1h-5.04l-3.72-11.1q-.36-1.14-.78-2.4-.42-1.26-.72-2.34-.36-1.26-.72-2.46h-.3l.12 2.64q0 1.08.03 2.31t.03 2.25V57zm36.72-20.7v8.4q0 3.78 2.07 5.94 2.07 2.16 5.73 2.16 3.6 0 5.7-2.16t2.1-5.94v-8.4q0-3.78-2.1-5.94-2.1-2.16-5.7-2.16t-5.7 2.16q-2.1 2.16-2.1 5.94zm-5.4 8.4v-8.4q0-3 .93-5.37t2.64-4.05q1.71-1.68 4.14-2.58 2.43-.9 5.49-.9 6.12 0 9.66 3.42t3.54 9.42v8.46q0 3-.9 5.4-.9 2.4-2.61 4.05t-4.17 2.55q-2.46.9-5.52.9-3.06 0-5.49-.9t-4.14-2.58q-1.71-1.68-2.64-4.08-.93-2.4-.93-5.34zM455.68 57h-5.4V24h5.1v5.7h.48q.78-3 3.15-4.65 2.37-1.65 5.91-1.65 2.46 0 4.47.84t3.42 2.37q1.41 1.53 2.19 3.66t.78 4.77V57h-5.4V35.94q0-3.78-1.92-5.88t-5.34-2.1q-3.42 0-5.43 2.25t-2.01 6.09V57zm35.52-20.7v8.4q0 3.78 2.07 5.94 2.07 2.16 5.73 2.16 3.6 0 5.7-2.16t2.1-5.94v-8.4q0-3.78-2.1-5.94-2.1-2.16-5.7-2.16t-5.7 2.16q-2.1 2.16-2.1 5.94zm-5.4 8.4v-8.4q0-3 .93-5.37t2.64-4.05q1.71-1.68 4.14-2.58 2.43-.9 5.49-.9 6.12 0 9.66 3.42t3.54 9.42v8.46q0 3-.9 5.4-.9 2.4-2.61 4.05t-4.17 2.55q-2.46.9-5.52.9-3.06 0-5.49-.9t-4.14-2.58q-1.71-1.68-2.64-4.08-.93-2.4-.93-5.34zM558.4 57V13.8h13.8q2.94 0 5.34.9t4.11 2.58q1.71 1.68 2.64 3.99.93 2.31.93 5.13 0 4.5-2.31 7.65-2.31 3.15-6.27 4.35l9.18 18.6h-6.36l-8.4-18h-7.26v18h-5.4zm5.4-38.4v15.6h8.4q3.42 0 5.43-2.13t2.01-5.67q0-3.54-2.04-5.67t-5.4-2.13h-8.4zm43.2 39q-6.18 0-9.69-3.36T593.8 45v-9q0-5.88 3.51-9.24 3.51-3.36 9.69-3.36t9.69 3.36q3.51 3.36 3.51 9.24v6.06h-21v2.64q0 3.78 2.07 5.94 2.07 2.16 5.73 2.16 2.7 0 4.68-.84 1.98-.84 2.94-2.46h5.4q-1.02 3.78-4.53 5.94-3.51 2.16-8.49 2.16zm-7.8-20.04h15.6V36q0-3.72-2.04-5.76-2.04-2.04-5.76-2.04-3.72 0-5.76 2.04-2.04 2.04-2.04 5.76v1.56zm30.18 3.84V36q0-2.88.78-5.22t2.25-3.96q1.47-1.62 3.57-2.52 2.1-.9 4.68-.9 3.6 0 6.12 1.71T650.2 30h.42v-6h5.1v30.6q0 5.82-3.42 9.06t-9.6 3.24h-8.1v-4.92h8.1q3.6 0 5.61-1.92 2.01-1.92 2.01-5.46v-1.2l.24-6h-.36q-.9 3.18-3.42 4.89-2.52 1.71-6.12 1.71-2.58 0-4.65-.9-2.07-.9-3.54-2.52-1.47-1.62-2.28-3.96-.81-2.34-.81-5.22zm5.52-5.4v5.4q0 3.72 2.07 5.82t5.67 2.1q3.6 0 5.64-2.1 2.04-2.1 2.04-5.82V36q0-3.72-2.04-5.82t-5.64-2.1q-3.6 0-5.67 2.1T634.9 36zm31.5 9.36V24h5.4v21.36q0 7.5 7.14 7.5 7.26 0 7.26-7.5V24h5.4v21.36q0 5.88-3.27 9.06-3.27 3.18-9.39 3.18-6 0-9.27-3.21-3.27-3.21-3.27-9.03zm33-32.16h16.32v34.2q0 2.22 1.2 3.45t3.3 1.23H730V57h-9.78q-4.62 0-7.26-2.55-2.64-2.55-2.64-7.05V18.12H699.4V13.2zm37.38 34.2q0-2.34.81-4.23.81-1.89 2.34-3.21 1.53-1.32 3.69-2.04t4.86-.72h9.84v-2.7q0-3.06-2.01-4.77-2.01-1.71-5.79-1.71-2.76 0-4.71 1.02-1.95 1.02-2.61 2.82h-5.4q.84-3.9 4.29-6.18t8.55-2.28q6.12 0 9.6 2.85 3.48 2.85 3.48 7.95V57h-4.92v-6.3h-.48q-.78 3.18-3.66 5.04-2.88 1.86-7.02 1.86-4.98 0-7.92-2.76-2.94-2.76-2.94-7.44zm12.06 5.76q2.04 0 3.78-.54 1.74-.54 3-1.53t1.98-2.31q.72-1.32.72-2.88v-4.5h-9.72q-3 0-4.71 1.56t-1.71 4.32q0 2.76 1.74 4.32 1.74 1.56 4.92 1.56zM775.72 57V24h5.1v5.7h.48q.78-2.94 3.24-4.62 2.46-1.68 6.06-1.68 5.22 0 8.19 3.27 2.97 3.27 2.97 8.97v1.86h-5.4v-1.2q0-3.9-1.95-6.03-1.95-2.13-5.55-2.13-3.54 0-5.64 2.19-2.1 2.19-2.1 5.97V57h-5.4z"/></svg>