<svg viewBox="0 0 300 80" xmlns="http://www.w3.org/2000/svg"><path d="M29.96 23.52q-1.5-.96-4.47-3.75-2.97-2.79-5.16-5.28t-1.77-2.91q5.88.18 9.18 1.77t4.56 3.57q-.12.06-.9 2.64-.12.3-.66 2.13-.54 1.83-.78 1.83zm39.9 33.12q.72.48 1.35 2.43.63 1.95.63 3.33 0 1.14-.54 1.14-1.44-.66-6.69-1.05t-11.19-.39q-9.06 0-11.94.84l-1.32.36q-3.66 1.14-5.76 1.26-1.2-.9-1.92-2.13T30.5 57.6q.54.06 1.62.06 2.34.12 3.54.36.48.12 1.68.12 2.16 0 4.89-.54 2.73-.54 3.75-.9.18-.24.42-3.6.24-4.44.54-5.34-.12-8.4-.12-10.68-.12-9-.24-11.46-.12-2.46-.36-2.79-.24-.33-1.44-.45-.42.12-2.94.24-3.9.24-4.8.48-.78-1.56-.9-1.74-.48-.84-.69-1.53-.21-.69-.57-3.15.6.42 4.02.42 4.56 0 10.68-.63t8.16-1.35q.3-.12.6-.27l.54-.27q.9-.54 1.5-.78t1.26-.24q.84 0 1.56.48.6.24 1.71 1.41 1.11 1.17 1.95 2.49.84 1.32.84 2.04 0 .42-.36.6-.24.24-1.14.24-1.2 0-3.6-.42l-1.89-.24q-1.41-.18-2.31-.18-.66 0-.9.06l-1.38.42-3.72 1.02q.12.54.42.78t.9.48q.78.36 1.26.87t.6 1.71q-.42 7.92-.9 14.4-.24 4.14-.24 6.78v10.02q.72 0 3.96-.24 4.92-.42 6.72-.42 3.48 0 4.74.78zm-7.68-39.96q-.12.3-.18.36t-.06.12q0 .06.12.09t.36.15q.06-.24.12-.42t.06-.3h-.42zM27.02 38.7q-1.62-.96-4.74-3.54t-5.37-4.83q-2.25-2.25-1.83-2.61 6.6.36 9.9 1.38 3.3 1.02 4.44 2.82-.06.06-.36.99-.3.93-.48 1.53-1.32 4.26-1.56 4.26zm5.64 0q.12.96-.12 2.37-.24 1.41-.9 4.05-1.44 6.18-1.8 9.78-.6 3.96-1.53 7.02-.93 3.06-2.79 3.84-.18.06-.66.06-1.44 0-3.39-.57-1.95-.57-3.57-1.77-1.62-1.2-2.04-3 1.38-.18 4.23-3.63 2.85-3.45 4.71-6.63l7.86-11.52zm17.46 15.84q-.12-.24-.12-.66l.06-1.26q.12-1.08.12-1.56 0-.6-.06-.84-.48.06-.66.18l-.24 1.5-.66 4.38h.36v-.24q.66-.24.84-.48.18-.24.36-1.02zm-25.2-4.56l-.12.24-.36.48.48-.72zm104.82-18.9q.06.18.06.6 0 .96-.78 2.4-.6 1.38-.72 1.92-.54 2.28-.87 6.06-.33 3.78-.39 4.44-.48 6.24-1.05 10.08-.57 3.84-1.71 5.94l-.48 1.14q-.66 1.5-1.26 2.19t-1.98.93l-1.14-1.08q-1.32-1.26-2.16-1.86-.84-.6-2.4-1.14-.84-.3-4.68-.3-5.46 0-19.86.9l-1.26.06q0 1.44-.9 2.4-.66-.12-1.11-.15-.45-.03-.75-.03-1.98-.18-3.09-.69-1.11-.51-2.37-2.37L80 40.92l-.78-6.96q-.12-.36-.78-1.26-.84-.96-.96-1.8.3-.24.51-.48.21-.24.51-.39.3-.15.96-.15.42.48 2.4 1.62 1.98 1.14 2.58 1.26.36.12.96.12 1.86 0 5.01-.48 3.15-.48 3.57-.84.24-.3.24-1.44 0-1.62-.51-4.26-.51-2.64-1.17-4.86-2.46.6-5.28 1.08-2.82.48-4.56.48-1.02 0-1.32-.12-1.08-.3-1.71-.81-.63-.51-1.11-1.2-.48-.69-.66-.93-.66-.96-1.2-3.54-.12-.72-.24-1.2 1.38 1.08 2.88 1.44 1.5.36 3.72.24 4.92-.42 7.26-.42 1.68 0 3.45-.12 1.77-.12 5.79-.6.84-.18 10.32-.96t9.3-.66q.42-.18 1.71-.78 1.29-.6 2.37-.6.72 0 1.32.36 1.38.48 3.03 2.43 1.65 1.95 1.71 3.63-.96.9-2.88.9-.72 0-1.71-.12t-1.41-.18h-5.28q-2.52-.48-5.82-.48-2.16 0-3.66.18v.36q1.26 0 3.27.81t2.31 1.71q.18.3.03.96-.15.66-.57 1.74-.9 2.34-.9 3.36 0 .48.06.72.84-.3 2.94-.3h2.28q1.86 0 2.58-.18.96-.24 1.86-.84.78-.42 1.29-.6t1.23-.24l1.2.96q1.26 1.02 2.1 1.8.84.78 1.5 1.8zM101.06 20.1q.18.24.18 1.62 0 1.44-.24 4.8-.24 3.72-.12 4.14l4.92-.42q.12-2.4.12-3.78 0-4.8-1.26-6.6-.48-.18-2.34-.18l-1.38.18.12.24zm-4.8 8.76q.24.3.3.33.06.03.12-.33h-.42zM120.5 47.7q-.12-1.02.6-3.9-.24-6.3-.3-9.3.24-.48-2.82-.48-2.76 0-5.4.24.24 1.2.24 3.06 0 2.1-.48 6.42-.24 2.34-.3 3.24l.72.36q.6.3 1.38.36 1.02.12 2.4.12.84 0 1.59-.09.75-.09 1.29-.09.66 0 1.08.06zM88.16 58.38q2.7.06 15.51-.63 12.81-.69 15.87-1.23l.48-3q-.18 0-3.57.27-3.39.27-4.41.15-.84.12-1.2.12-3.06 0-4.11-3.12-1.05-3.12-1.05-8.88 0-2.34.12-7.02-.06-.06-.54-.06l-3.24.18-1.26.12Q99.5 41.34 98 45.3q-1.5 3.96-3.87 6.51t-5.97 3.63v2.94zm-.78-21.9q-.12.36-.12 3.18 0 4.08.27 9.03.27 4.95.63 5.25 1.38-1.02 2.76-4.23 1.38-3.21 2.28-7.02.9-3.81.96-6.45-.48-.3-.54-.42-.06-.12-.24-.12h-.9q-2.22.36-5.1.78zm35.7 2.76q0 2.58.18 3.69.18 1.11.96 2.31 0-2.58-.18-3.69-.18-1.11-.96-2.31zm-12.9 6.12q0 .3-.03.42t.03.36q.12.3.24.78h.42v-1.26l-.66-.3zm81.84 1.62q-1.14 1.26-1.47 4.08-.33 2.82-.33 6.9v2.7l.06 1.8q0 1.62-.45 2.52-.45.9-1.71 1.08l-4.38-4.38q-1.5.06-9.54 1.74t-9.6 2.34l-.96.72q-.48.42-.9.57-.42.15-1.56.21-.6-.72-1.32-1.32-1.2-1.14-1.8-2.01-.6-.87-.66-2.43.18-.12.66-.39.48-.27.84-.33t.84-.06q.42-5.46.42-7.26 0-3.18-.9-8.1.18-.12 1.56-.12 1.38 0 1.56-.12.66-.06 1.62-.06 1.38 0 1.8.24.42.24.66.9.3.72.6 1.08v2.1q0 6.42-1.08 10.14h1.08q1.68-.36 2.94-.54.18-.06 1.56-.3 0-4.08-.09-11.1t-.15-7.38q-.24-.12-1.08 0-.84.12-1.14.18-1.38.3-1.92.24-.84.84-1.98 1.5-1.14.66-2.1.84-.48-.3-1.44-.78-1.38-.72-2.07-1.44t-.75-2.28q.48-.54.81-3 .33-2.46.33-4.86 0-1.74-.18-2.52-.24-.66-.9-1.74-.9-1.32-1.02-2.52.24-.12 2.04-.12 1.86 0 2.16-.06 1.32-.24 1.74-.24 1.74 0 2.43 1.11.69 1.11.69 3.15 0 1.08-.24 3.6-.36 3.36-.24 5.04 1.26-.3 2.13-.57.87-.27 3.09-.93-.24-1.02-.48-8.22-.24-10.74-.9-12.96-.78-.42-1.23-.87-.45-.45-.63-1.17 1.14-.66 3.84-.66 2.46 0 4.62.54t2.58 1.5q.3.48.3 1.02 0 .6-.24 1.29-.24.69-.3.87-.06.24-.18.54-.12.3-.18.66-.54 1.92-.54 5.04l.06 4.98q0 3.9-.72 6.06.96-.3 3.06-.84t3.06-.78q.24-.42.24-3 0-2.7-.24-3.66-.54-1.98-.54-2.7 0-.66.06-1.14 3.24-.36 2.82-.3 2.58-.3 3.54-.3 1.08 0 1.5.33.42.33.42 1.23 0 .78-.36 2.49-.36 1.71-.48 2.25-.24 1.62-.24 5.1 0 3.72-.33 5.94t-1.59 2.76q-1.62-.96-3.24-2.4t-1.56-2.1q-.78.06-3.48 1.02t-2.88 1.26q.12.48.27 5.1.15 4.62.15 8.4 0 4.44-.24 5.4.48 0 1.02-.06t1.02-.12q2.82-.36 4.02-.24v-7.8q-.12-1.44-.12-2.52 0-1.44.21-2.46t.69-1.08q1.86 0 4.53.6t3.03 3.18zm-34.8-20.58q-.78.48-2.52.9-1.74.42-2.52.48-.12 3.42-.24 4.56-.18 1.98-.18 3.18 0 .6.06.6.66-.48 2.79-1.11 2.13-.63 2.01-.15-.06.3-.66 1.08-.6.78-1.32 1.68-2.88 3.36-3.06 4.38-.12.48-.12 1.62l.06 1.86v2.76q0 9.84-.42 12.96-.42 1.8-1.23 3.96t-1.77 2.58q-.3.18-1.77-.57t-3.36-2.73q-1.89-1.98-3.51-5.34 1.8.06 4.2-.3 2.4-.36 2.76-.78 0-5.46.12-11.46h-.3q-.66.96-2.7 2.67t-2.88 1.95q-.3.12-.84.12-1.74 0-2.64-2.25-.9-2.25-.9-5.07 0-1.14.18-2.04h.54q.3.36.78.99.48.63.84.99 1.26-.78 3.99-2.04 2.73-1.26 3.93-1.8l-.12-10.38q-1.86.12-5.4 1.26l-2.1.66q-.18-.48-.78-.9-.78-.6-1.35-1.62-.57-1.02-1.05-3.72h.9q.72.36 2.34.36.72 0 4.02-.3 2.64-.36 3.24-.24.18-1.02.18-4.44 0-1.86-.09-3.6t-.21-2.04q-.24-.48-.84-1.08-.48-.54-.72-.93T144.2 12q.12.12 1.32 0 1.98-.18 2.46-.18 3.66 0 5.58 1.98 0 1.8-.78 4.26-.06.36-.27 1.02-.21.66-.27 1.2l.06 2.82q.06-.06.09-.63.03-.57.21.21.36-.12 1.26-.48t1.56-.36l.54 1.08q.48.9.78 1.65.3.75.48 1.83zm-8.34-12.42q.24.24.3.24t.12-.24h-.42zM162.8 26.7q-.48-.18-.6-.24 0 .24-.03.33-.03.09.03.27l.18.6h.42v-.96zm-14.58 35.04q-.06 0-.63.6l-.57.6q.18.48.24.54h.24l.72-1.74zm99.54-46.68q.06.06 1.5 1.32 1.5 1.2 2.22 2.34.72 1.14.72 3.54-2.04 1.02-7.32 2.4-2.64.66-4.02 1.14-1.38.48-1.5 1.02.18.3.18 1.5l-.06 2.28q0 .9.18 1.08 1.92.72 3.54.72 1.5 0 2.7-.51 1.2-.51 1.8-1.41.54-.54 1.32-2.64.84-1.98 1.08-2.4.18.3.66 1.92.48 1.38 1.08 3 .6 1.62 1.2 2.52.12.9-.51 2.13t-1.41 1.23l-1.86.3q-.36.06-2.73.39t-4.53.33q-4.62 0-6.06-2.04-1.68-2.46-1.68-8.04 0-1.68.12-3.81t.18-2.91q.36-4.74.3-6.6l-1.2-1.98q.72-.96 3.12-.96 1.32 0 2.4.33 1.08.33 1.44.99.12.24.12.84 0 .78-.18 2.52t-.24 2.64q-.48 4.32-.42 5.4.36-.3.99-.96.63-.66 1.23-1.2 2.04-2.28 3.54-3.54.24-.24.78-1.2.18-.24.66-.96.48-.72.66-.72zm-15.24 20.46q-.54.84-2.79 1.17-2.25.33-4.65.33-3.78 0-5.19-2.1-1.41-2.1-1.41-6.06 0-2.22.3-5.34.06-.78.18-2.7.12-1.92.12-3.42 0-1.92-.12-2.88-.18-.12-.66-.39-.48-.27-.81-.69-.33-.42-.39-.96 2.28-1.14 5.22-1.14 2.88 0 3.72 1.26.12.3-.48 2.76-.96 3.84-1.02 5.46 1.32-.18 3.81-.69t2.49-.69q.18-.06.48-.06 1.32 0 1.92 1.56.6 1.56.6 3.06-.06.06-2.94.3-.42.06-3.09.24t-3.51.6q-.3 1.08-.3 3.12 0 1.74.24 3.3 1.8.66 3.3.66 1.14 0 1.8-.39.66-.39.6-.93.12-.42.24-2.04.12-2.1.36-2.46 1.62 2.82 2.16 3.3.72.9 1.11 1.71.39.81.45 1.17.18.36.18.6 0 .42-.3.78-.3.36-.78.81-.48.45-.84.75zm-13.86 4.08q0 .9-.54 2.43-.54 1.53-1.26 2.58t-1.2.87q-.54-.18-.99-1.23-.45-1.05-1.05-2.97-.6-1.86-1.05-2.94-.45-1.08-.99-1.74.12 8.16.12 13.86 0 9.12-.24 11.46l-.18 1.56q-.24 2.28-.57 3.39-.33 1.11-1.11 1.11t-2.25-1.35q-1.47-1.35-3.09-3.27 1.08-1.26 1.77-2.7.69-1.44.63-2.76-.12-.66-.12-2.76 0-1.5.12-4.98.12-3.84.12-5.52 0-2.22-.18-3.48-.72 2.46-2.31 5.91t-3.9 6.21q-2.31 2.76-4.95 2.94 1.32-1.14 3.72-6.48 2.4-5.34 4.29-10.98 1.89-5.64 1.77-7.68.12 0-1.86.42-1.56.48-2.52.48-.66 0-1.32-.24l-.27-.54q-.15-.3-.39-.66-.66-1.32-.96-2.1-.3-.78-.42-1.86l2.58-.18q2.58-.12 4.08-.33 1.5-.21 2.16-.75v-4.38l-1.14-6.12-1.38-1.26q.06-.78 1.38-1.26 1.32-.48 3-.48 1.38 0 2.43.39 1.05.39 1.29 1.11.24.54.24.9t-.09.66q-.09.3-.15.66 0 .96-.06 1.77t-.12 1.41q-.24 3.66-.18 5.16.18-.06 1.62-.42l1.8-.42q1.14 1.32 1.65 2.28.51.96.99 2.76-3.06 0-6 .54l-.06 4.74q1.8 1.38 4.29 3.57t2.85 2.67zm-9.84-19.02q0 2.28.09 3.3t.51 2.1q0-2.34-.09-3.33-.09-.99-.51-2.07zm40.08 10.98q-.12.48-.12.78h.3q.12.24.24.24v-.54q-.12-.06-.42-.48zm-10.44 8.52q-1.02 1.14-2.7 2.19-1.68 1.05-3.18 1.47-.42.12-.9.18-.48.06-.66.06-1.02.06-1.62.3-.6.24-.78.9.48.12 1.74.12 2.22 0 6.48-.78 2.1-.42 2.4-.42.78-.3 1.56-1.08.72-.66 1.35-.99.63-.33 1.77-.39.36.54.99.99.63.45.81.57.96.66 1.53 1.23.57.57.75 1.35.24.48.24 1.32 0 .78-.24 2.46-.24 1.32-.24 1.74-.06 6.48-.96 11.49-.9 5.01-3.84 5.19l-1.2-.6-1.62-.78q-.18-.24-.39-.66-.21-.42-.63-.6-10.62.6-11.76.6-1.5 2.16-3.18 2.22-.06-.06-.84-1.02-.84-.9-1.38-1.68-.54-.78-.78-1.8-.18-.78-.18-2.58 0-1.74.15-3.78t.39-3.24q.06-.24.27-1.26.21-1.02.21-1.92 0-.78-.12-1.14-.12-.84-.48-2.52-.78-3.24-.78-5.34.9 0 2.58 1.2 1.26.9 1.8.9.42 0 .66-.42 1.14-.48 2.55-1.65t2.4-2.43q.99-1.26.99-1.86 0-.36-.3-.42 1.02-.36 1.92-.36 2.88 0 5.22 3.24zm2.16 8.28q-2.4.06-3.9.24-1.74.3-8.7.78v1.86q0 .48.03 1.26t-.03 1.86q1.62-.36 3.78-.51 2.16-.15 2.64-.21 4.2-.24 6.24-.6l-.06-4.68zm-17.28 2.88q0 1.38.24 1.92t.78 1.08q.72.6 1.08 1.26 0-1.38-.24-1.92t-.78-1.08q-.72-.6-1.08-1.26zm17.04 9.48q.06-.54.18-1.5t.12-1.68q-.66-.36-2.58-.36-1.02 0-2.61.12l-2.37.18q-2.82.3-4.62.3v4.68l11.88-1.74z"/></svg>