<svg viewBox="0 0 734 80" xmlns="http://www.w3.org/2000/svg"><path d="M57.4 50.38L56.44 64H15.1v-2.4q1.98-.06 3.24-.36 1.26-.3 1.92-1.02.66-.72.9-2.04t.24-3.42V27.04q0-2.1-.21-3.39t-.81-2.04q-.6-.75-1.71-1.02-1.11-.27-2.91-.39v-2.4h20.7v2.4q-2.04.06-3.27.36t-1.89 1.08q-.66.78-.87 2.16-.21 1.38-.21 3.66V52.6q0 2.52.51 4.11.51 1.59 1.77 2.46 1.26.87 3.36 1.2 2.1.33 5.22.33 3.48 0 5.82-.42 2.34-.42 3.93-1.59 1.59-1.17 2.55-3.15.96-1.98 1.62-5.16h2.4zM73.72 31.6v22.56q0 2.4.18 3.84t.72 2.22q.54.78 1.56 1.05t2.76.33V64h-18.9v-2.4q1.68-.06 2.73-.39t1.62-1.08q.57-.75.78-2.1.21-1.35.21-3.45V47.2q0-3.48-.12-5.73-.12-2.25-.3-3.09-.3-1.5-1.35-1.98t-3.81-.48v-2.04l13.92-2.28zM64.9 18.88q0-1.98 1.35-3.33t3.27-1.35q1.98 0 3.33 1.35t1.35 3.33q0 1.92-1.35 3.27t-3.33 1.35q-1.92 0-3.27-1.35t-1.35-3.27zm28.56 28.2v3.78q0 2.22.63 4.11.63 1.89 1.71 3.27 1.08 1.38 2.58 2.16 1.5.78 3.3.78 3.6 0 5.46-3.3 1.86-3.3 1.86-9.72 0-6.24-1.83-9.51-1.83-3.27-5.49-3.27-2.16 0-3.99 1.17t-2.85 3.27q-1.38 2.88-1.38 7.26zm-.12-32.88v22.14h.24q1.56-2.28 4.02-3.51 2.46-1.23 5.58-1.23 3.18 0 5.91 1.29t4.74 3.51q2.01 2.22 3.15 5.22 1.14 3 1.14 6.42 0 3.6-1.23 6.63t-3.36 5.25q-2.13 2.22-4.98 3.48-2.85 1.26-6.03 1.26-3.3 0-6.21-1.29t-4.65-3.39L87.1 64h-2.04V28.3q0-5.64-.78-7.74-.18-.42-.42-.72t-.69-.51q-.45-.21-1.23-.36t-2.04-.33V16.6l13.44-2.4zm42.54 37.62v2.88q0 2.34.21 3.69t.87 2.07q.66.72 1.92.93 1.26.21 3.36.21V64H122.2v-2.4q1.8-.12 2.88-.36 1.08-.24 1.62-.96t.69-2.07q.15-1.35.15-3.63v-7.32q0-3.72-.18-5.94t-.78-3.42q-.6-1.2-1.71-1.59-1.11-.39-2.91-.39v-2.1l12-2.22.96 6.9h.24q1.62-3.18 4.26-5.04 2.64-1.86 5.58-1.86 2.28 0 3.72 1.14 1.44 1.14 1.44 2.88 0 1.92-1.11 3.24-1.11 1.32-3.03 1.32-.9 0-1.62-.36-.72-.36-1.29-.81-.57-.45-1.14-.84-.57-.39-1.17-.39-1.14 0-2.16 1.5-1.02 1.5-1.68 4.02-.48 1.8-.78 4.05-.3 2.25-.3 4.47zm44.76 4.5l1.68 2.1q-5.46 6.18-13.62 6.18-3.72 0-6.75-1.17t-5.19-3.3q-2.16-2.13-3.36-5.07-1.2-2.94-1.2-6.54 0-3.72 1.26-6.81 1.26-3.09 3.57-5.34 2.31-2.25 5.46-3.51 3.15-1.26 6.93-1.26 6.36 0 9.9 3.42t3.54 9.6q0 .96-.3 1.17-.3.21-1.68.21h-19.32q-.24.54-.24 1.98 0 5.88 2.55 9.3 2.55 3.42 6.93 3.42 2.52 0 5.01-1.14 2.49-1.14 4.83-3.24zm-18.66-13.68h8.7q2.4 0 3.09-.27t.69-1.29q0-2.64-1.5-4.32-1.5-1.68-3.78-1.68-2.58 0-4.59 2.13t-2.61 5.43zM226.06 64h-23.1v-2.4q2.04-.06 3.27-.36t1.92-1.02q.69-.72.93-2.04.24-1.32.24-3.42V27.04q0-2.1-.18-3.39t-.75-2.04q-.57-.75-1.56-1.02-.99-.27-2.61-.39v-2.4h19.26q9.06 0 13.95 2.91 4.89 2.91 4.89 8.31 0 7.14-10.26 10.08v.24q3.3 0 5.97.93t4.53 2.61q1.86 1.68 2.88 3.96 1.02 2.28 1.02 4.98 0 3.06-1.47 5.34T240.76 61q-5.34 3-14.7 3zm.42-3.66q9.66 0 9.66-8.7 0-5.34-3.48-7.8-1.8-1.26-4.65-1.8-2.85-.54-6.99-.54h-2.88v12q0 3.72 1.92 5.28t6.42 1.56zm-8.34-22.44h3.54q2.7 0 4.68-.51 1.98-.51 3.36-1.47 2.88-1.98 2.88-6.18 0-4.38-2.16-6.33-2.16-1.95-6.96-1.95h-4.26q-1.08 0-1.08 1.02V37.9zm51.3 14.7v-5.7q-5.04 2.28-7.59 4.23-2.55 1.95-2.55 4.05 0 1.74.96 2.76.96 1.02 2.4 1.02t2.7-.51q1.26-.51 2.16-1.35.9-.84 1.41-2.01.51-1.17.51-2.49zm-8.46-5.22l8.46-3.66V41.2q0-3.48-1.23-5.07-1.23-1.59-3.81-1.59-1.74 0-2.64.93-.9.93-1.68 3.09-.54 1.5-1.53 2.34-.99.84-2.73.84-1.68 0-2.58-1.02-.9-1.02-.9-2.88 0-2.88 3.15-4.56 3.15-1.68 9.51-1.68 6.72 0 9.6 2.43t2.88 8.13V55.3q0 5.1 2.04 5.1 1.14 0 2.1-.78l.9 1.74q-.84 1.5-2.61 2.37-1.77.87-3.99.87-2.76 0-4.2-1.68-1.44-1.68-1.44-4.74h-.3q-1.74 3.12-4.5 4.74t-6.3 1.62q-3.78 0-6.06-2.13t-2.28-5.55q0-2.64 2.34-4.95t7.8-4.53zm28.68 14.52l-1.32 2.1h-1.86V53.08H289q1.02 4.32 2.94 6.3 1.92 1.98 4.98 1.98 2.22 0 3.45-.93t1.23-2.55q0-1.68-1.5-3.27t-4.86-3.39q-4.56-2.46-6.54-4.89-1.98-2.43-1.98-5.49 0-1.98.75-3.69t2.04-2.97q1.29-1.26 3.09-1.95 1.8-.69 3.9-.69 1.86 0 3.69.54 1.83.54 3.21 1.5l1.08-1.44h1.56v9.06h-2.34q-1.38-3.42-2.85-4.92-1.47-1.5-3.57-1.5-1.68 0-2.67.9t-.99 2.4q0 1.68 1.47 3.18 1.47 1.5 4.89 3.3 2.4 1.32 4.14 2.58 1.74 1.26 2.82 2.55 1.08 1.29 1.59 2.7.51 1.41.51 3.03 0 2.1-.78 3.78-.78 1.68-2.22 2.88-1.44 1.2-3.45 1.86-2.01.66-4.47.66-2.58 0-4.8-.69-2.22-.69-3.66-2.01zm43.02 2.1v-2.4q1.92 0 2.7-.15.78-.15.78-.63 0-.36-.81-1.77-.81-1.41-2.07-3.27l-4.56-6.84-3 2.88v2.34q0 2.34.18 3.78t.63 2.25q.45.81 1.26 1.11.81.3 2.07.3V64h-17.7v-2.4q1.68-.06 2.7-.36 1.02-.3 1.62-1.05.6-.75.81-2.1.21-1.35.21-3.51V29.14q0-3.66-.12-5.76-.12-2.1-.63-3.15-.51-1.05-1.56-1.29t-2.85-.24v-2.22l13.38-2.28v33.36l5.76-5.46q3.12-2.94 4.44-4.41 1.32-1.47 1.32-2.13 0-.54-1.11-.75-1.11-.21-4.11-.21v-2.4h16.38v2.4q-2.28 0-4.02.78-1.74.78-3.78 2.7l-5.82 5.46 10.38 14.7q1.38 1.92 2.7 2.64 1.32.72 3.48.72V64h-18.66zm47.46-7.68l1.68 2.1q-5.46 6.18-13.62 6.18-3.72 0-6.75-1.17t-5.19-3.3q-2.16-2.13-3.36-5.07-1.2-2.94-1.2-6.54 0-3.72 1.26-6.81 1.26-3.09 3.57-5.34 2.31-2.25 5.46-3.51 3.15-1.26 6.93-1.26 6.36 0 9.9 3.42t3.54 9.6q0 .96-.3 1.17-.3.21-1.68.21h-19.32q-.24.54-.24 1.98 0 5.88 2.55 9.3 2.55 3.42 6.93 3.42 2.52 0 5.01-1.14 2.49-1.14 4.83-3.24zm-18.66-13.68h8.7q2.4 0 3.09-.27t.69-1.29q0-2.64-1.5-4.32-1.5-1.68-3.78-1.68-2.58 0-4.59 2.13t-2.61 5.43zM400 51.82v2.88q0 2.34.21 3.69t.87 2.07q.66.72 1.92.93 1.26.21 3.36.21V64h-20.04v-2.4q1.8-.12 2.88-.36 1.08-.24 1.62-.96t.69-2.07q.15-1.35.15-3.63v-7.32q0-3.72-.18-5.94t-.78-3.42q-.6-1.2-1.71-1.59-1.11-.39-2.91-.39v-2.1l12-2.22.96 6.9h.24q1.62-3.18 4.26-5.04 2.64-1.86 5.58-1.86 2.28 0 3.72 1.14 1.44 1.14 1.44 2.88 0 1.92-1.11 3.24-1.11 1.32-3.03 1.32-.9 0-1.62-.36-.72-.36-1.29-.81-.57-.45-1.14-.84-.57-.39-1.17-.39-1.14 0-2.16 1.5-1.02 1.5-1.68 4.02-.48 1.8-.78 4.05-.3 2.25-.3 4.47zm29.94 12.78l-9.48-24.66q-.66-1.74-1.26-2.79t-1.23-1.62q-.63-.57-1.38-.75-.75-.18-1.77-.18v-2.4h17.94v2.4q-1.5 0-2.37.12-.87.12-1.32.36-.45.24-.57.63-.12.39-.12.87 0 .78.3 1.8t.72 2.04l5.7 15.72h.24l6.42-15.66q.42-1.02.66-1.83.24-.81.24-1.47 0-1.32-.9-1.92-.9-.6-3.18-.66v-2.4h13.26v2.4q-1.62 0-2.79.84t-2.43 3.72L435.4 64.6h-5.46zm37.32-33v22.56q0 2.4.18 3.84t.72 2.22q.54.78 1.56 1.05t2.76.33V64h-18.9v-2.4q1.68-.06 2.73-.39t1.62-1.08q.57-.75.78-2.1.21-1.35.21-3.45V47.2q0-3.48-.12-5.73-.12-2.25-.3-3.09-.3-1.5-1.35-1.98t-3.81-.48v-2.04l13.92-2.28zm-8.82-12.72q0-1.98 1.35-3.33t3.27-1.35q1.98 0 3.33 1.35t1.35 3.33q0 1.92-1.35 3.27t-3.33 1.35q-1.92 0-3.27-1.35t-1.35-3.27zm29.88-4.68v39.96q0 2.4.18 3.84t.72 2.22q.54.78 1.56 1.05t2.76.33V64h-18.9v-2.4q1.68-.06 2.73-.39t1.62-1.08q.57-.75.78-2.1.21-1.35.21-3.45V29.8q0-3.48-.12-5.73-.12-2.25-.3-3.09-.3-1.5-1.35-1.98t-3.81-.48v-2.04l13.92-2.28zm21.3 0v39.96q0 2.4.18 3.84t.72 2.22q.54.78 1.56 1.05t2.76.33V64h-18.9v-2.4q1.68-.06 2.73-.39t1.62-1.08q.57-.75.78-2.1.21-1.35.21-3.45V29.8q0-3.48-.12-5.73-.12-2.25-.3-3.09-.3-1.5-1.35-1.98t-3.81-.48v-2.04l13.92-2.28zm37.2 42.12l1.68 2.1q-5.46 6.18-13.62 6.18-3.72 0-6.75-1.17t-5.19-3.3q-2.16-2.13-3.36-5.07-1.2-2.94-1.2-6.54 0-3.72 1.26-6.81 1.26-3.09 3.57-5.34 2.31-2.25 5.46-3.51 3.15-1.26 6.93-1.26 6.36 0 9.9 3.42t3.54 9.6q0 .96-.3 1.17-.3.21-1.68.21h-19.32q-.24.54-.24 1.98 0 5.88 2.55 9.3 2.55 3.42 6.93 3.42 2.52 0 5.01-1.14 2.49-1.14 4.83-3.24zm-18.66-13.68h8.7q2.4 0 3.09-.27t.69-1.29q0-2.64-1.5-4.32-1.5-1.68-3.78-1.68-2.58 0-4.59 2.13t-2.61 5.43zM592.24 64h-23.1v-2.4q2.04-.06 3.27-.36t1.92-1.02q.69-.72.93-2.04.24-1.32.24-3.42V27.04q0-2.1-.18-3.39t-.75-2.04q-.57-.75-1.56-1.02-.99-.27-2.61-.39v-2.4h19.26q9.06 0 13.95 2.91 4.89 2.91 4.89 8.31 0 7.14-10.26 10.08v.24q3.3 0 5.97.93t4.53 2.61q1.86 1.68 2.88 3.96 1.02 2.28 1.02 4.98 0 3.06-1.47 5.34T606.94 61q-5.34 3-14.7 3zm.42-3.66q9.66 0 9.66-8.7 0-5.34-3.48-7.8-1.8-1.26-4.65-1.8-2.85-.54-6.99-.54h-2.88v12q0 3.72 1.92 5.28t6.42 1.56zm-8.34-22.44h3.54q2.7 0 4.68-.51 1.98-.51 3.36-1.47 2.88-1.98 2.88-6.18 0-4.38-2.16-6.33-2.16-1.95-6.96-1.95h-4.26q-1.08 0-1.08 1.02V37.9zm50.34-6.3q3.6 0 6.81 1.23 3.21 1.23 5.64 3.39 2.43 2.16 3.84 5.13 1.41 2.97 1.41 6.51 0 3.66-1.41 6.72-1.41 3.06-3.84 5.28-2.43 2.22-5.64 3.48-3.21 1.26-6.81 1.26-3.54 0-6.72-1.23-3.18-1.23-5.58-3.45t-3.78-5.31q-1.38-3.09-1.38-6.75 0-3.54 1.38-6.54t3.78-5.16q2.4-2.16 5.58-3.36 3.18-1.2 6.72-1.2zm0 3.48q-1.8 0-3.3.93-1.5.93-2.55 2.61-1.05 1.68-1.62 4.05-.57 2.37-.57 5.25 0 3 .57 5.4.57 2.4 1.62 4.08 1.05 1.68 2.52 2.61 1.47.93 3.33.93t3.39-.93q1.53-.93 2.61-2.64 1.08-1.71 1.68-4.11.6-2.4.6-5.34 0-2.88-.6-5.22t-1.68-4.05q-1.08-1.71-2.61-2.64-1.53-.93-3.39-.93zM669.4 14.2v39.96q0 2.4.18 3.84t.72 2.22q.54.78 1.56 1.05t2.76.33V64h-18.9v-2.4q1.68-.06 2.73-.39t1.62-1.08q.57-.75.78-2.1.21-1.35.21-3.45V29.8q0-3.48-.12-5.73-.12-2.25-.3-3.09-.3-1.5-1.35-1.98t-3.81-.48v-2.04l13.92-2.28zm35.34 50.4v-4.44h-.24q-4.14 4.44-10.74 4.44-3.42 0-6.27-1.2-2.85-1.2-4.92-3.36t-3.21-5.13q-1.14-2.97-1.14-6.57t1.17-6.66q1.17-3.06 3.18-5.31 2.01-2.25 4.8-3.51 2.79-1.26 6.03-1.26 3 0 5.31.9 2.31.9 4.05 3.06h.24v-5.1q0-3.54-.09-6.09t-.27-3.33q-.3-1.26-1.83-1.83-1.53-.57-4.71-.57V16.6l15.18-2.4v34.32q0 4.5.09 6.93.09 2.43.33 3.69.12.78.36 1.26t.72.75q.48.27 1.29.36.81.09 2.07.09v2.34l-11.4.66zm-1.86-15.48v-2.34q0-2.28-.48-4.23-.48-1.95-1.44-3.45-1.08-1.74-2.76-2.64-1.68-.9-3.6-.9-3.54 0-5.4 3.24-1.86 3.24-1.86 9.42 0 6.24 1.86 9.6 1.86 3.36 5.34 3.36 1.98 0 3.78-1.02 1.8-1.02 2.94-2.76.84-1.32 1.23-3.27t.39-5.01z"/></svg>