<svg viewBox="0 0 663 80" xmlns="http://www.w3.org/2000/svg"><path d="M15.5 64l.66-2.4q1.98 0 3.27-.3t2.16-1.11q.87-.81 1.47-2.16t1.14-3.51L30.98 28q.42-1.68.66-2.88.24-1.2.24-2.04 0-1.62-1.05-2.25-1.05-.63-3.57-.63h-1.32l.66-2.4h19.5l-.66 2.4q-1.98 0-3.3.39-1.32.39-2.28 1.47-.96 1.08-1.71 3t-1.53 4.98L30.38 53.8q-.54 1.98-.54 3.36 0 2.16 1.47 3.21 1.47 1.05 5.25 1.05 3.6 0 6.21-.6t4.59-1.95q1.98-1.35 3.45-3.48 1.47-2.13 2.73-5.25h2.82L51.08 64H15.5zm47.46-12.12l2.7-7.68q.84-2.34 1.2-3.78t.36-2.28q0-.84-.27-1.11-.27-.27-.57-.27-.66 0-1.44.63-.78.63-1.56 1.47T62 40.54q-.6.84-.84 1.32l-1.74-1.08q.72-1.32 2.01-2.94 1.29-1.62 2.91-3t3.36-2.31q1.74-.93 3.3-.93 1.5 0 2.25.87t.75 3.15q0 1.74-1.05 4.68-1.05 2.94-2.73 7.56L68 53.92q-.12.3-.33.93-.21.63-.42 1.32-.21.69-.36 1.35-.15.66-.15 1.08 0 .54.3.96.3.42.96.42.9 0 1.86-.75.96-.75 1.86-1.77.9-1.02 1.62-2.07.72-1.05 1.08-1.65l1.8 1.02q-.72 1.44-1.95 3.18-1.23 1.74-2.79 3.21t-3.42 2.46q-1.86.99-3.84.99-1.74 0-2.61-.9-.87-.9-.87-3 0-1.74.57-3.75t1.65-5.07zm11.52-30.12q-1.5 0-2.61-1.02-1.11-1.02-1.11-2.64t1.08-2.76q1.08-1.14 2.64-1.14 1.68 0 2.76 1.14 1.08 1.14 1.08 2.7 0 1.56-1.14 2.64t-2.7 1.08zm23.82-7.5l-7.62 23.1.18.12q1.74-2.76 4.35-4.29 2.61-1.53 5.55-1.53 3.66 0 5.64 2.28 1.98 2.28 1.98 6.24 0 2.82-.84 5.76t-2.31 5.64q-1.47 2.7-3.45 5.07-1.98 2.37-4.23 4.14-2.25 1.77-4.74 2.79t-4.89 1.02q-3.42 0-5.61-2.07-2.19-2.07-2.19-5.37 0-1.56.66-4.41t1.92-6.81l7.26-23.4q.3-1.08.6-2.19.3-1.11.3-1.65 0-2.1-4.62-2.1l.54-1.8 11.52-.54zm-9.42 47.28q1.38 0 2.94-.99t3.06-2.67q1.5-1.68 2.88-3.9 1.38-2.22 2.4-4.65t1.65-4.92q.63-2.49.63-4.71 0-2.1-.96-3.48t-2.34-1.38q-1.32 0-2.85.99t-3 2.7q-1.47 1.71-2.82 3.9-1.35 2.19-2.4 4.62-1.05 2.43-1.65 4.89-.6 2.46-.6 4.68 0 4.92 3.06 4.92zm24.42-20.22l-1.56-.78q.66-1.5 2.01-3.09 1.35-1.59 2.94-2.88 1.59-1.29 3.21-2.13 1.62-.84 2.82-.84 1.44 0 2.1 1.08.66 1.08.66 3.48 0 .96-.09 1.86-.09.9-.33 2.1l.18.18q.72-1.74 2.04-3.42t2.85-2.97q1.53-1.29 3.12-2.1t2.97-.81q1.74 0 2.91 1.11 1.17 1.11 1.17 2.73 0 1.56-.99 2.58t-2.55 1.02q-.96 0-1.53-.36-.57-.36-.99-.75-.42-.39-.78-.75-.36-.36-.9-.36-1.14 0-2.64 1.53-1.5 1.53-3.12 4.17-1.62 2.64-3.21 6.18-1.59 3.54-2.91 7.62l-2.7 8.28h-5.58l3.9-12.42 1.89-5.97q.75-2.37 1.17-3.96.42-1.59.57-2.49.15-.9.15-1.56 0-1.32-.9-1.32-.6 0-1.47.48t-1.71 1.2q-.84.72-1.59 1.62-.75.9-1.11 1.74zm44.4 13.44l1.92 1.26q-5.22 8.58-12.84 8.58-4.14 0-6.36-2.55-2.22-2.55-2.22-7.23 0-4.14 1.71-8.28t4.47-7.47q2.76-3.33 6.18-5.4 3.42-2.07 6.84-2.07 2.88 0 4.71 1.47t1.83 3.75q0 2.1-1.56 4.32t-4.23 4.2q-2.67 1.98-6.24 3.6-3.57 1.62-7.59 2.52-.12.84-.18 1.65-.06.81-.06 1.65 0 6.54 4.62 6.54 2.22 0 4.59-1.74 2.37-1.74 4.41-4.8zm-1.5-20.34q-1.56 0-3.24 1.2-1.68 1.2-3.21 3.21t-2.79 4.59q-1.26 2.58-2.04 5.34 2.88-.78 5.34-2.04t4.23-2.85q1.77-1.59 2.79-3.36 1.02-1.77 1.02-3.57 0-2.52-2.1-2.52zm41.82 6.48l-2.94 10.68q-.18.54-.39 1.38-.21.84-.39 1.68-.18.84-.33 1.68-.15.84-.15 1.38 0 1.2.54 1.92t1.35 1.08q.81.36 1.8.48t1.95.12q3.3 0 5.91-.87 2.61-.87 4.41-2.43 1.8-1.56 2.73-3.69.93-2.13.93-4.65 0-4.56-2.94-6.66-2.94-2.1-9.06-2.1h-3.42zM179.48 64l.66-2.4q1.8 0 3.06-.24t2.16-.99q.9-.75 1.56-2.16.66-1.41 1.32-3.75L195.32 28q.66-2.64.66-4.14 0-2.04-1.26-2.85t-4.26-.81l.66-2.4h16.08q2.58 0 5.28.45t4.89 1.62q2.19 1.17 3.6 3.18 1.41 2.01 1.41 5.13 0 2.94-1.2 4.92t-3.06 3.27q-1.86 1.29-4.11 1.98t-4.35.99v.24q5.28 1.08 8.04 3.93 2.76 2.85 2.76 7.23 0 3.06-1.44 5.52-1.44 2.46-3.96 4.17t-6 2.64q-3.48.93-7.62.93h-21.96zm22.68-38.7l-3.36 12.54h4.44q2.82 0 5.19-.72 2.37-.72 4.05-2.04 1.68-1.32 2.61-3.15.93-1.83.93-4.05 0-3.9-2.19-5.64-2.19-1.74-7.41-1.74-1.62 0-2.61 1.11-.99 1.11-1.65 3.69zM245 34.72q-2.28 0-4.71 2.1t-4.41 5.25q-1.98 3.15-3.24 6.78-1.26 3.63-1.26 6.75 0 2.16.9 3.45t2.46 1.29q1.38 0 2.88-1.11t2.91-2.94q1.41-1.83 2.67-4.17t2.22-4.83q.96-2.49 1.5-4.89.54-2.4.54-4.32 0-1.56-.66-2.46-.66-.9-1.8-.9zm4.92.84l1.26-3.36h4.98l-3.42 9.18q-.84 2.28-1.65 4.86-.81 2.58-1.44 4.98-.63 2.4-.99 4.38t-.36 2.94q0 1.74 1.14 1.74.84 0 2.43-1.74 1.59-1.74 3.57-4.5L257 55.3q-2.52 4.44-5.43 6.87-2.91 2.43-5.61 2.43-1.38 0-2.13-1.05t-.75-3.45q0-.54.03-1.26t.15-1.92l-.24-.06q-.9 1.68-2.13 3.09t-2.67 2.46q-1.44 1.05-3 1.62-1.56.57-3.06.57-3.06 0-4.77-2.31-1.71-2.31-1.71-6.39 0-4.14 1.74-8.46 1.74-4.32 4.5-7.83t6.12-5.76q3.36-2.25 6.6-2.25 1.98 0 3.24.93 1.26.93 2.04 3.03zm13.98 5.22q0-1.98.75-3.66.75-1.68 2.07-2.91 1.32-1.23 3.15-1.92 1.83-.69 3.99-.69 2.88 0 4.8 1.44t1.92 3.72q0 1.26-.69 1.98t-1.89.72q-1.38 0-1.98-.81-.6-.81-1.02-1.8-.42-.99-.9-1.83-.48-.84-1.62-.84-1.32 0-2.22 1.14-.9 1.14-.9 2.82 0 1.98 1.17 3.69t2.61 3.57q1.44 1.86 2.61 4.08 1.17 2.22 1.17 5.22 0 2.04-.87 3.84-.87 1.8-2.34 3.15-1.47 1.35-3.39 2.13-1.92.78-3.96.78-3.6 0-5.73-1.56-2.13-1.56-2.13-4.08 0-1.74.81-2.73t2.19-.99q2.58 0 2.94 3.54.18 1.92.63 2.55.45.63 1.83.63 2.16 0 3.42-1.29 1.26-1.29 1.26-3.57 0-2.4-1.2-4.26-1.2-1.86-2.64-3.63-1.44-1.77-2.64-3.75-1.2-1.98-1.2-4.68zm39.66 18.42q1.74 0 4.92-4.5l1.56.84q-4.32 9.06-8.94 9.06-1.44 0-2.37-1.02-.93-1.02-2.07-3.66l-4.02-9.6-1.32.6L287.54 64h-5.46l11.58-43.02q.42-1.62.42-2.22 0-1.26-1.14-1.71-1.14-.45-4.5-.45l.6-1.8 11.94-.6-6.24 23.1.24.06q3.48-5.82 8.82-5.82 2.82 0 4.44 1.35 1.62 1.35 1.62 3.63 0 2.82-2.79 5.64t-7.77 5.1l-1.56.72 3.06 7.92q1.2 3.3 2.76 3.3zm-11.7-11.28q2.58-.9 4.8-2.1 2.22-1.2 3.81-2.52 1.59-1.32 2.49-2.67.9-1.35.9-2.55 0-2.46-2.46-2.46-1.26 0-2.64.99-1.38.99-2.7 2.67-1.32 1.68-2.43 3.93t-1.77 4.71zm41.4 6.84l1.92 1.26q-5.22 8.58-12.84 8.58-4.14 0-6.36-2.55-2.22-2.55-2.22-7.23 0-4.14 1.71-8.28t4.47-7.47q2.76-3.33 6.18-5.4 3.42-2.07 6.84-2.07 2.88 0 4.71 1.47t1.83 3.75q0 2.1-1.56 4.32t-4.23 4.2q-2.67 1.98-6.24 3.6-3.57 1.62-7.59 2.52-.12.84-.18 1.65-.06.81-.06 1.65 0 6.54 4.62 6.54 2.22 0 4.59-1.74 2.37-1.74 4.41-4.8zm-1.5-20.34q-1.56 0-3.24 1.2-1.68 1.2-3.21 3.21t-2.79 4.59q-1.26 2.58-2.04 5.34 2.88-.78 5.34-2.04t4.23-2.85q1.77-1.59 2.79-3.36 1.02-1.77 1.02-3.57 0-2.52-2.1-2.52zm11.34 6.9l-1.56-.78q.66-1.5 2.01-3.09 1.35-1.59 2.94-2.88 1.59-1.29 3.21-2.13 1.62-.84 2.82-.84 1.44 0 2.1 1.08.66 1.08.66 3.48 0 .96-.09 1.86-.09.9-.33 2.1l.18.18q.72-1.74 2.04-3.42t2.85-2.97q1.53-1.29 3.12-2.1t2.97-.81q1.74 0 2.91 1.11 1.17 1.11 1.17 2.73 0 1.56-.99 2.58t-2.55 1.02q-.96 0-1.53-.36-.57-.36-.99-.75-.42-.39-.78-.75-.36-.36-.9-.36-1.14 0-2.64 1.53-1.5 1.53-3.12 4.17-1.62 2.64-3.21 6.18-1.59 3.54-2.91 7.62l-2.7 8.28h-5.58l3.9-12.42 1.89-5.97q.75-2.37 1.17-3.96.42-1.59.57-2.49.15-.9.15-1.56 0-1.32-.9-1.32-.6 0-1.47.48t-1.71 1.2q-.84.72-1.59 1.62-.75.9-1.11 1.74zm53.16 1.26q0-1.2-.21-2.19t-.48-1.89q-.27-.9-.48-1.74-.21-.84-.21-1.74 0-3.42 3.12-3.42 1.86 0 2.67 1.32.81 1.32.81 4.38 0 3.18-.78 6.45t-2.16 6.3q-1.38 3.03-3.24 5.67-1.86 2.64-3.96 4.62-2.1 1.98-4.35 3.12-2.25 1.14-4.47 1.14-1.62 0-3.03-.63-1.41-.63-2.43-1.77-1.02-1.14-1.59-2.7-.57-1.56-.57-3.36 0-3.42 1.86-8.04 1.86-4.62 5.28-9.54l-.12-.18q-1.62 0-2.7-.48t-1.83-1.08q-.75-.6-1.32-1.08-.57-.48-1.17-.48-1.02 0-1.02 1.02 0 .54.33.96.33.42.72.84.39.42.72.93.33.51.33 1.23 0 1.08-.84 1.77t-2.16.69q-1.56 0-2.4-.96-.84-.96-.84-2.7 0-1.5.6-2.85t1.62-2.37q1.02-1.02 2.37-1.62 1.35-.6 2.85-.6 1.2 0 2.04.39.84.39 1.56.9.72.51 1.41.9t1.65.39q1.14 0 2.04-.9 1.26-1.14 1.71-1.41.45-.27 1.17-.27 1.2 0 1.2 1.02 0 .24-.06.42t-.27.54q-.21.36-.72.96t-1.41 1.68q-1.38 1.68-2.52 3.78-1.14 2.1-1.98 4.38-.84 2.28-1.32 4.59-.48 2.31-.48 4.35 0 3.24 1.11 5.19 1.11 1.95 2.85 1.95 1.68 0 3.6-1.8 1.92-1.8 3.6-4.47 1.68-2.67 2.79-5.79t1.11-5.82zm12.18 9.3l2.7-7.68q.84-2.34 1.2-3.78t.36-2.28q0-.84-.27-1.11-.27-.27-.57-.27-.66 0-1.44.63-.78.63-1.56 1.47t-1.38 1.68q-.6.84-.84 1.32l-1.74-1.08q.72-1.32 2.01-2.94 1.29-1.62 2.91-3t3.36-2.31q1.74-.93 3.3-.93 1.5 0 2.25.87t.75 3.15q0 1.74-1.05 4.68-1.05 2.94-2.73 7.56l-2.22 6.06q-.12.3-.33.93-.21.63-.42 1.32-.21.69-.36 1.35-.15.66-.15 1.08 0 .54.3.96.3.42.96.42.9 0 1.86-.75.96-.75 1.86-1.77.9-1.02 1.62-2.07.72-1.05 1.08-1.65l1.8 1.02q-.72 1.44-1.95 3.18-1.23 1.74-2.79 3.21t-3.42 2.46q-1.86.99-3.84.99-1.74 0-2.61-.9-.87-.9-.87-3 0-1.74.57-3.75t1.65-5.07zm11.52-30.12q-1.5 0-2.61-1.02-1.11-1.02-1.11-2.64t1.08-2.76q1.08-1.14 2.64-1.14 1.68 0 2.76 1.14 1.08 1.14 1.08 2.7 0 1.56-1.14 2.64t-2.7 1.08zm6.96 30.12l7.98-29.34q.3-1.08.6-2.19.3-1.11.3-1.65 0-2.1-4.56-2.1l.48-1.8 10.98-.54-10.74 39.42q-.48 1.62-.72 2.85T431 58.6q0 .54.3.96.3.42.96.42.96 0 2.04-.81t2.07-1.92q.99-1.11 1.77-2.28.78-1.17 1.14-1.83l1.8 1.02q-.9 2.04-2.34 3.93-1.44 1.89-3.06 3.33-1.62 1.44-3.27 2.31-1.65.87-3.03.87-2.1 0-3.09-.9-.99-.9-.99-3 0-1.2.36-3.24t1.26-5.58zm18.78 0l7.98-29.34q.3-1.08.6-2.19.3-1.11.3-1.65 0-2.1-4.56-2.1l.48-1.8 10.98-.54-10.74 39.42q-.48 1.62-.72 2.85t-.24 2.07q0 .54.3.96.3.42.96.42.96 0 2.04-.81t2.07-1.92q.99-1.11 1.77-2.28.78-1.17 1.14-1.83l1.8 1.02q-.9 2.04-2.34 3.93-1.44 1.89-3.06 3.33-1.62 1.44-3.27 2.31-1.65.87-3.03.87-2.1 0-3.09-.9-.99-.9-.99-3 0-1.2.36-3.24t1.26-5.58zm36.12 2.88l1.92 1.26q-5.22 8.58-12.84 8.58-4.14 0-6.36-2.55-2.22-2.55-2.22-7.23 0-4.14 1.71-8.28t4.47-7.47q2.76-3.33 6.18-5.4 3.42-2.07 6.84-2.07 2.88 0 4.71 1.47t1.83 3.75q0 2.1-1.56 4.32t-4.23 4.2q-2.67 1.98-6.24 3.6-3.57 1.62-7.59 2.52-.12.84-.18 1.65-.06.81-.06 1.65 0 6.54 4.62 6.54 2.22 0 4.59-1.74 2.37-1.74 4.41-4.8zm-1.5-20.34q-1.56 0-3.24 1.2-1.68 1.2-3.21 3.21t-2.79 4.59q-1.26 2.58-2.04 5.34 2.88-.78 5.34-2.04t4.23-2.85q1.77-1.59 2.79-3.36 1.02-1.77 1.02-3.57 0-2.52-2.1-2.52zm44.76-4.38l-6.3 23.88q-.72 2.64-.72 4.2 0 2.04 1.29 2.76 1.29.72 4.17.72l-.72 2.4h-19.14l.66-2.4q1.8 0 3.06-.27t2.19-1.05q.93-.78 1.59-2.16.66-1.38 1.26-3.6L519.44 28q.9-3.3.9-4.92 0-1.86-1.35-2.37t-4.59-.51l.66-2.4h19.5l-.66 2.4q-1.98 0-3.3.39-1.32.39-2.28 1.47-.96 1.08-1.71 3t-1.53 4.98zm24.18 7.14h-6.54l-4.98 16.5q-1.02 3.24-1.08 4.92 0 .54.27.96.27.42.93.42 1.08 0 2.28-.81 1.2-.81 2.31-1.92 1.11-1.11 1.98-2.28.87-1.17 1.29-1.83l1.74 1.02q-1.02 2.04-2.58 3.93-1.56 1.89-3.3 3.33-1.74 1.44-3.51 2.31-1.77.87-3.21.87-2.1 0-3.03-.9-.93-.9-.93-3 0-1.2.42-3.24t1.44-5.58l4.44-14.7h-5.16l.78-2.76h5.22l3.12-10.32h5.52l-3.12 10.32h6.54l-.84 2.76zm21.18-2.46q-2.28 0-4.71 2.1t-4.41 5.25q-1.98 3.15-3.24 6.78-1.26 3.63-1.26 6.75 0 2.16.9 3.45t2.46 1.29q1.38 0 2.88-1.11t2.91-2.94q1.41-1.83 2.67-4.17t2.22-4.83q.96-2.49 1.5-4.89.54-2.4.54-4.32 0-1.56-.66-2.46-.66-.9-1.8-.9zm4.92.84l1.26-3.36h4.98l-3.42 9.18q-.84 2.28-1.65 4.86-.81 2.58-1.44 4.98-.63 2.4-.99 4.38t-.36 2.94q0 1.74 1.14 1.74.84 0 2.43-1.74 1.59-1.74 3.57-4.5l1.56 1.26q-2.52 4.44-5.43 6.87-2.91 2.43-5.61 2.43-1.38 0-2.13-1.05t-.75-3.45q0-.54.03-1.26t.15-1.92l-.24-.06q-.9 1.68-2.13 3.09t-2.67 2.46q-1.44 1.05-3 1.62-1.56.57-3.06.57-3.06 0-4.77-2.31-1.71-2.31-1.71-6.39 0-4.14 1.74-8.46 1.74-4.32 4.5-7.83t6.12-5.76q3.36-2.25 6.6-2.25 1.98 0 3.24.93 1.26.93 2.04 3.03zm12.36 16.32l7.98-29.34q.3-1.08.6-2.19.3-1.11.3-1.65 0-2.1-4.56-2.1l.48-1.8 10.98-.54-10.74 39.42q-.48 1.62-.72 2.85t-.24 2.07q0 .54.3.96.3.42.96.42.96 0 2.04-.81t2.07-1.92q.99-1.11 1.77-2.28.78-1.17 1.14-1.83l1.8 1.02q-.9 2.04-2.34 3.93-1.44 1.89-3.06 3.33-1.62 1.44-3.27 2.31-1.65.87-3.03.87-2.1 0-3.09-.9-.99-.9-.99-3 0-1.2.36-3.24t1.26-5.58zm20.94 0l2.7-7.68q.84-2.34 1.2-3.78t.36-2.28q0-.84-.27-1.11-.27-.27-.57-.27-.66 0-1.44.63-.78.63-1.56 1.47t-1.38 1.68q-.6.84-.84 1.32l-1.74-1.08q.72-1.32 2.01-2.94 1.29-1.62 2.91-3t3.36-2.31q1.74-.93 3.3-.93 1.5 0 2.25.87t.75 3.15q0 1.74-1.05 4.68-1.05 2.94-2.73 7.56l-2.22 6.06q-.12.3-.33.93-.21.63-.42 1.32-.21.69-.36 1.35-.15.66-.15 1.08 0 .54.3.96.3.42.96.42.9 0 1.86-.75.96-.75 1.86-1.77.9-1.02 1.62-2.07.72-1.05 1.08-1.65l1.8 1.02q-.72 1.44-1.95 3.18-1.23 1.74-2.79 3.21t-3.42 2.46q-1.86.99-3.84.99-1.74 0-2.61-.9-.87-.9-.87-3 0-1.74.57-3.75t1.65-5.07zm11.52-30.12q-1.5 0-2.61-1.02-1.11-1.02-1.11-2.64t1.08-2.76q1.08-1.14 2.64-1.14 1.68 0 2.76 1.14 1.08 1.14 1.08 2.7 0 1.56-1.14 2.64t-2.7 1.08zm24.24 31.38l2.1 1.2q-2.52 4.98-5.85 7.62-3.33 2.64-7.11 2.64-3.9 0-6.24-2.67-2.34-2.67-2.34-7.11 0-2.64.78-5.4.78-2.76 2.1-5.34t3.12-4.86q1.8-2.28 3.84-3.96 2.04-1.68 4.23-2.67 2.19-.99 4.29-.99 2.88 0 4.74 1.56 1.86 1.56 1.86 3.9 0 1.5-.87 2.43-.87.93-2.25.93t-2.25-.87q-.87-.87-.87-2.13 0-.78.24-1.26t.24-.9q0-.84-1.44-.84-1.98 0-4.02 1.86-2.04 1.86-3.69 4.8-1.65 2.94-2.7 6.57-1.05 3.63-1.05 7.23 0 2.88 1.11 4.53 1.11 1.65 3.09 1.65 1.08 0 2.25-.6t2.37-1.65q1.2-1.05 2.31-2.49 1.11-1.44 2.01-3.18z"/></svg>