<svg viewBox="0 0 339 80" xmlns="http://www.w3.org/2000/svg"><path d="M40.29 54.33q1.56 0 1.56 1.32 0 .53-.63.94-.63.41-2.25.41H15.19V15.54h14.94v39.53h5.48q1.84 0 3.17-.37 1.34-.37 1.51-.37zm13.19-33.75q-3.02 0-4.72-1.34-1.7-1.35-1.7-3.55 0-1.84 1.88-3.16 1.99-1.41 4.21-1.41 2.23 0 3.45.44 1.21.44 2.06 1.14 1.7 1.44 1.7 3.34 0 1.91-1.93 3.23-1.94 1.31-4.95 1.31zM47.32 57V25.71h12.6V57h-12.6zm56.11-23.2q.06.7.06 1.4V57H90.92V28.58q-.32-.14-.76-.14h-.94q-2.29 0-5.33 3.13-.94.97-1.79 2.14V57H69.5V25.71h12.6v4.72q4.95-5.25 11.07-5.25 7.91 0 9.76 5.86 2.52-2.9 5.55-4.38t6.11-1.48q5.24 0 7.76 2.49 2.52 2.49 2.52 7.53V57H112.3V28.55q-.26-.11-1.31-.11-1.06 0-1.95.39-.9.4-1.83 1.1-2.05 1.49-3.78 3.87zm58.21 16.08q1.14 0 1.14 1.06 0 .79-1.02 1.87-4.63 4.75-12.69 4.75-7.23 0-12.19-4.37-5.12-4.54-5.12-11.48 0-7.09 4.63-11.66 4.89-4.87 13-4.87 6.51 0 10.93 3.96 4.78 4.25 4.78 11.16 0 1-.06 2.11H145.7v12.57q2 .41 4.49.41 5.27 0 8.99-3.49.76-.76 1.08-1.2.68-.82 1.38-.82zm-7.82-9.61V27.88q-1.91-.56-4.31-.56-2.4 0-3.81.32v12.63h8.12zM172.54 57V15.54h12.6V57h-12.6zm28.33-36.42q-3.02 0-4.72-1.34-1.7-1.35-1.7-3.55 0-1.84 1.88-3.16 1.99-1.41 4.22-1.41 2.22 0 3.44.44 1.22.44 2.06 1.14 1.7 1.44 1.7 3.34 0 1.91-1.93 3.23-1.93 1.31-4.95 1.31zM194.72 57V25.71h12.59V57h-12.59zm28.56-9.55q-2.61.79-2.61 1.73 0 .91 1.53 1.26 2.96.7 8.14.83 5.19.13 7.81.79 2.62.66 4.17 1.66 2.82 1.84 2.82 4.89 0 3.81-3.78 6.18-4.19 2.61-11.81 2.61-7.88 0-13.01-2.34-1.84-.91-1.84-2.05 0-.5.36-.8.37-.29.78-.29.5 0 1.14.38 1.5.85 2.77 1.42 1.28.57 4 1.1 2.72.53 5.26.53 2.53 0 4.13-.22t2.65-.51q2.08-.62 2.08-1.38 0-.7-.41-1.03-.41-.32-1.07-.57-.66-.25-1.83-.45-2.4-.41-6.53-.62-4.13-.2-6.54-.8-2.4-.6-3.92-1.54-2.96-1.79-2.96-4.83 0-4.4 5.95-7.12-2.73-1.5-4.34-3.94-1.61-2.45-1.61-5.31 0-2.85 1.07-4.95 1.07-2.09 3-3.62 4.07-3.28 10.52-3.28 2.87 0 5.77.88 4.16-4.01 7.71-4.01 1.49 0 2.21.5.72.49.72 1.26 0 .76-.5 1.1-.5.33-.94.33-.79 0-1.35-.17-.82-.3-1.67-.3-1.58 0-3.98 2.2 4.77 2.34 6.24 6.74.47 1.46.47 3.59 0 2.12-1.23 4.23-1.23 2.11-3.28 3.63-4.28 3.17-10.05 3.17-3.05.06-6.04-.88zm6.15-20.19v18.93q4.75-.06 8.18-2.31 3.95-2.58 3.95-6.98 0-4.39-3.89-7.09-3.58-2.46-8.24-2.55zm46.38-2.08q10.31 0 10.31 10.02V57h-12.59V28.49q-.53-.35-1.4-.35-.86 0-1.8.41-.94.41-1.96 1.15-2.2 1.61-3.9 4.04V57h-12.59V15.54h12.59v15.12q5.01-5.48 11.34-5.48zm31.93 32.38q-11.48 0-11.48-10.49l-.03-19.22-3.37.15q-1.58 0-1.58-1.21 0-1.2 1.7-1.2l2.81.12h.44v-4.54l12.57-5.63v10.17h3.92l2.79-.12q1.73 0 1.73 1.23 0 .56-.49.87-.48.31-1.1.31l-3.63-.15h-3.22v27.54q3.43-.06 5.71-1.96 1.09-.82 1.54-2.11.45-1.29.82-1.66.37-.37.86-.37.5 0 .85.4.36.4.36.94 0 .54-.3 1.2-.29.66-.88 1.39-1.31 1.64-3.04 2.61-3.14 1.73-6.98 1.73z"/></svg>