<svg viewBox="0 0 389 80" xmlns="http://www.w3.org/2000/svg"><path d="M71.08 60.92q.06.12.18.24t.12.24q0 .24-.54.54-3.36 1.26-6.84 2.28-4.02 1.02-7.14 1.5-2.4.36-3.72.36-.66.06-1.92.06-.72 0-1.02-.06-.72 0-1.14-.06-1.8-.24-3.18-.78-.84-.3-1.38-.78l-.6-.54q-.12-.12-.24-.27-.12-.15-.24-.27-.06-.12-.18-.3t-.24-.42q-.06-.12-.18-.33-.12-.21-.18-.39-.3-.9-.48-1.56 0-.06-.18-.78v-.3l-.54.36q-.72.54-1.74 1.56-.36.36-.96.72-.12.06-.39.18t-.51.06l1.08-.84q-.9.3-1.68 1.02-.24.18-.72.6t-.84.6q-.18-.18-.3-.24t-.42 0q.3-.18 1.14-.72.84-.54 1.26-1.02l-.24-.36q-.6.3-1.14.84-.78.66-1.32.9-.06-.18-.15-.33-.09-.15-.15-.21t.06-.24q.24-.12.54-.36l-.3-.48-.12-.06q-.12 0-.72.36-.12-.12-.36-.27-.24-.15-.06-.33l1.02-.72q-.9.54-1.86.54-.78 0-.96-.3.24-.06.33-.3.09-.24.27-.3-.72.24-1.44.24-.42 0-.42-.18t.48-.6q5.76-4.02 10.8-9 .06-3.18.48-6.96.6-6.84 1.62-11.94l-2.58.24-1.02.12-.36 1.32-1.38 4.86q-.24.78-.42 1.38-.18.6-.3 1.02l-.6 2.28-.36 1.38-.36 1.32q-.18.48-.39 1.17-.21.69-.51 1.59-1.2 3.18-2.16 5.4-.96 2.1-2.58 5.16l-.6 1.08q-.3.48-.78 1.44-.24.36-.39.66-.15.3-.33.54-.42.54-.72 1.2-.18-.12-.33-.36-.15-.24-.27-.33-.12-.09-.36.15-1.32 1.32-2.1 1.32-.42 0-.84-.3-.06 0-.06-.12 0-.18.21-.51t.3-.51q.09-.18-.15-.06l1.44-2.52q.18-.48.18-.66 0-.06-.06-.06t-.42.36q-.3.24-.96 1.2-.84 1.5-1.38 1.62h-.12q-.3 0-.6-.51T21.7 62l-1.32 1.98-.18.06q-.18 0-.36-.45t-.36-.21q-.48.48-1.05 1.29-.57.81-.81 1.11l-.9 1.26q-.78 1.2-1.08 1.56-.12-.06-.36-.12t-.24-.3q0-.12.18-.6 4.8-7.02 7.92-13.08 3.72-7.38 5.88-13.98.9-2.58 2.34-7.86-.6 0-1.8.12l-5.7.48-2.58.24q-2.04.12-2.94.24h-.24q-.54 0-.54-.24 0-.18.42-.51t.96-.57q-.06.06-.18.06t-.3-.09q-.18-.09-.36-.03 0-.42.48-.9.78-.54 1.86-.78l-1.26.18q-.24-.06-.24-.24 0-.12.09-.24t.09-.3q.84-.12.84-.24 0-.3-.12-.66l-.78.12q.18 0 .06-.03t-.12-.15l-.12-.6q.48-.12 1.56-.24 1.14 0 1.56-.18l-.06-.42h-.42q-.78 0-1.14.06-1.08.24-1.56.24.3-.12.36-.27.06-.15 0-.39.6-.18 1.74-.18.18 0 .9-.06t1.32-.36l-1.32.12q.3-.42.93-.51.63-.09 1.71-.09 1.2 0 1.68-.12 2.52-.48 6.9-.72 1.44-7.2 2.52-14.7.24-1.08.48-1.08.36 0 .84 2.4v-.18q0-.18.21-.42t.15-.54q.48.12.87 1.11.39.99.27 2.61l.24-1.74q.06-.24.24-.24.12 0 .3.15t.36.21q-.06.42-.06.81 0 .39.06.39l.72.12q.06-.3.09-.48t.03-.36q.06-.06.12-.21t.12-.09l.72.06q0 .66-.24 2.1-.3 1.2-.3 2.04l.54.12q.24-.9.36-2.1.06-.54.24-2.1.06.42.21.51.15.09.45.15 0 .78-.18 1.59t-.24 1.11q-.24 1.2-.24 1.92 0 .54.06.78l.24-1.8q.24.42.24 1.2t-.18 1.62q-.6 2.4-.66 3.3l-.06.78q5.1-.9 14.7-1.62v.06q0 .12-.09.48t.21.42q.66.12.84.24-.12-.48-.24-1.32-.06-.48-.33-1.02t-.57-1.08q-.06-.18-.42-.87t-.48-1.41q0-.18-.24-.42t-.39-.51q-.15-.27.03-.51l.24.42.06-.24q0-.24-.27-.57-.27-.33-.27-.51.48-.18.54-.36.06.12.15.45t.33.51l.42-.24q0-.12-.21-.45t-.21-.51l.6-.24q.06-.06.12-.03t0-.03l.18.24q.3 0 .54-.24.18-.06.06-.36.18-.06.39-.21.21-.15.33-.09l.18.36v-.06q0-.42.3-.78.3-.36.66-.48-.06.06.06.03t.18.03q.66-1.08 1.08-.66 1.32 2.34 1.74 3.24.84 1.62 1.62 3.54l1.5 3.72q.12.36.33.84.21.48.39 1.14l.36 1.08.18.54.12.6q0 .3-.3.33-.3.03-.42.09-.06-.18-.21-.84-.15-.66-.51-.9l-.06-.06q-.12 0-.39.21t-.45.15L63.7 26q-.24 0-.63.27t-.63.27h-.06q-.24 0-.42-.3t-.3-.3l-.12-.06q-.18 0-.18.3t.18.6q-.18 0-.09.15t-.09.21q-.72.3-1.2.3-.36 0-.6-.12h-.06q-.18 0-.42.15t-.42.21l-.06-.12-.18.42 1.32-.12q.24.12.06.54-.18.42.06.42l1.08.06 1.2-.06q1.38-.24 2.58-.3.06.12.15.24t.09.24q0 .18-.54.36l-1.38.18q-3.12.36-4.5.48-.72.12-1.14.12-.24.54-.36 1.08l-.06.12q0 .06.18.06h.24q.36 0 .42.24l-.39.78q-.21.42-.33.72.12.3.6.3.54 0 .6.3.12.36-.33 1.32-.45.96-.45 1.14-.18.48-.06.48t.36-.36q.48-.72 1.08-1.74 0 .06.03.09l.03.03q.06 0 .27-.39.21-.39.33-.33.42.24.63.51.21.27.21.81 0 .6-.12 1.02v.12q0 .18.3.21t.48.09q-4.5 8.28-9.54 13.14-.36.36-2.46 2.58 0 3.12.24 4.44l.24.96.06.18v.06l.06.06.24.06q.12 0 .12-.06h1.74q2.34-.12 4.2-.42 2.16-.3 4.32-.72v.12q0 .12-.03.36t0 .36q.03.12.27.12 1.38.06 1.77.36.39.3.57 1.02.06.12-.33.21t-.6.15q-.21.06.03.18-2.82.6-2.82.9 0 .12.48.12.24.12 1.38-.12.24-.06.54-.12.3-.06.72-.06.24 0 .48.12.24.18.24.42 0 .18-.09.51t.21.57q.48-.18 1.05-.33.57-.15.99-.27.3.12.15.6t.09.42q.9-.06 2.13-.45t2.49-.87q-.18-.06-.54-.3.12.06-.03.15t-.09.15h-.18q-.96 0-1.32-.6.06.12.06.36-.12.12-.36.12h-.36q0-.06-.06-.15t-.12-.09q-.18 0-.36.06t-.3.06l.06.24h-.12l-.6.12q-.12-.12-.12-.3 0-.12.03-.36t-.09-.36l-.48.06-.06.18q0 .18.09.45t.15.39q-.18-.12-.6 0-.12-.24-.12-.42v-.24q0-.42-.24-.66.06.18.06.42-.3-.06-.36-.27-.06-.21-.03-.6t-.03-.51q-.42-.78-.54-2.34-.12-1.38-.48-2.22-.54-.96-.81-2.01-.27-1.05-.42-1.98-.15-.93-.21-1.23h.24q.54 0 .6-.12.3-.42.63-.57.33-.15.99-.27.12 0 .15.18t.15.06q.36 1.2.54.66.12-.06.12-.3v-.18q0-.36.24-.48t.72-.12q.48 0 .66-.06-.12-.24-.12-.6.18-.12.54-.09.36.03.36-.03.12-.36.12-.48 0-.36-.06-.63t-.12-.51q.12 0 .36-.09t.36.15l.72 3.24q.9 3.96 1.41 6.6.51 2.64.69 5.22.12 0 .36-.12zM40.36 13.46l.06-.24-.06.24zM57.4 25.7q-1.32.12-2.19.3-.87.18.03.36.24.12.6.12l1.26-.06q.48 0 .78.18.24.18.12.42l.24-.24q-.3-.66-.48-1.26-.12 0-.33.03-.21.03-.03.15zm-4.62 4.92l-6.36.6q.3.78.18 1.98l.24-1.5q.12-.18.24-.18t.27.12q.15.12.33.18 0 .12-.06.57-.06.45.06.51l.66.06q.12-.48.12-.78 0-.24.18-.24.18.06.36.06t.3.06q0 .48-.24 1.68-.06.24-.18.84t-.06 1.02l.48.12q.24-.72.36-1.95t.18-1.59q.06.36.18.45.12.09.42.15-.06.54-.3 1.62-.06.24-.18.87t-.12 1.11q0 .36.12.96l.24-1.56q.18.42.18.96 0 .48-.12 1.2t-.18 1.02q-.3 1.2-.3 2.04 3.72-5.22 6.6-10.74l-3.6.36zm-4.32 1.56V32v.18zm-14.1 30.06l.06-.06q0 .06-.03.06h-.03zm94.92-21.78q0 .06.03.18t-.03.3l-.18 1.02-.06.48-.12.54-.6 2.1-.54 1.62-.06.24-.06.12q-2.88 8.34-8.4 17.46-.48.66-.72.66-.12 0-.21-.18t-.21-.24q1.5-2.4 2.4-4.05.9-1.65 1.32-3.03.06-.06.06-.18 0-.06-.06-.06-.12 0-.36.06t-.36 0q-.12-.06-.12-.3l.6-1.26q.48-.96.6-1.32-.06-.36-.36-.36l-.66.06q-.36 0-.36-.54t.6-1.86q.12-.3.39-1.02t.21-1.02q.06-.24.06-.54 0-.12-.06-.12l-.42.72-1.38 3q0-.06-.03-.12l-.03-.06q-.06 0-.39.69t-.45.63q-.42-.18-.63-.45-.21-.27-.21-.93 0-.48.3-1.86v-.06q0-.24-.15-.3t-.42-.03q-.27.03-.39-.03 1.2-2.58 2.16-5.64l.12-.3v-.06q0-.06.03-.06h.03l-.06-.12h-1.92l-1.56.06q-.54.06-1.56.06l-3.12.18q-4.32.24-11.7 1.44 0 2.34.18 4.8.12 3.12.12 4.62l-.06 2.52q0 .48.12 1.56.18.9.18 1.68 0 1.02-.36 1.44l-.06-1.5q-.18.6-.18 1.26 0 .72.18 1.5 0 .18.09.69t.03.99q-.36 0-.51.09-.15.09-.27.45 0-.48-.03-1.62-.03-1.14-.21-1.8h-.6q-.06.36.03.9t.09.78q.24 1.26.12 1.74-.36.12-.78.12-.12 0-.18-.15t-.06.03q0-.36-.06-.84h-.78q-.18.12-.18.42l.06.6q-.18 0-.39.12-.21.12-.36.15t-.27-.15l-.18-1.5q-.06 1.38-.54 2.25-.48.87-1.02.87v-.12q0-.18-.18-.39-.18-.21-.12-.45-.6 2.1-1.08 2.1-.24 0-.42-.96-.66-5.4-1.08-13.32-.12-5.04-.12-7.5l-1.62.18q-.6.06-1.47.24t-1.35.24q-2.04.54-3.24.54-.66 0-.96-.12l2.16-.36q-1.08-.06-2.25.18t-1.41.3q-2.1.42-2.58.48-.06-.3-.18-.39-.12-.09-.66-.15l1.26-.18q2.34-.36 3.6-.72l-.12-.48q-.54 0-1.32.18t-1.08.24q-1.86.36-2.46.42l-.12-.66q0-.06.18-.15l.18-.09q1.14-.12 1.02-.12l-.12-.66q0-.12-.24-.12-.3 0-.6.06l-.6.12q0-.12-.21-.3t-.21-.27q0-.09.3-.21.54-.12 2.04-.42-1.2.12-1.68.12-1.26 0-1.98-.24t-.78-.6h.12q.3 0 .6-.21t.6-.21q-1.2-.06-2.04-.18-.84-.12-.84-.3 0-.24 1.26-.6 9.42-1.92 16.8-3.18.24-6.12.42-9.24L82.24 32q-.54.12-1.38.24h-.48q-.48 0-.48-.18 0-.3 1.68-1.14-.18.12-.45.03t-.51.03q-.06-.36.66-.93.72-.57 1.98-.93l-1.38.24q-.24 0-.24-.18 0-.06.09-.24t.03-.3q.96-.12.96-.36l-.18-.6q-.6.12-.84.18.18 0 .03-.03t-.15-.09l-.18-.6q.84-.24 1.74-.3 1.26-.12 1.74-.3v-.42q-.78.06-2.28.42l-1.2.24q.3-.18.36-.3t0-.36q.54-.18 1.74-.3.24-.06 1.11-.21.87-.15 1.59-.51l-1.5.3q.42-.42 1.14-.57.72-.15 1.98-.27 1.32-.12 1.8-.24 1.26-.36 2.64-.54.42-4.98.96-9l.06-.18.48-4.5q.06-.42.36-.42.06 0 .6.18-.06.42-.12 1.05-.06.63-.06 1.47 0 .72.12 1.02 0 .12.12.12t.48-.12q.36-.12.54.06l-.06 1.26q.3.24.9.12.6-.12.84.06.3.12.3.96 0 .78.18.96.18.66.39 0 .21-.66.27-1.56l.12.06q.06 0 .09-.36t.21-.36q.78.06 1.23.3.45.24.81 1.14.06.12.3.12.18 0 .45-.06t.39 0q-.24 4.44-.54 6.54 2.58-.24 4.08-.42 1.38-.24 2.28-.3l1.2-.12.36-.06h.54l1.08-.06h1.14l.96.06q-1.08-1.14-1.98-2.34.12-.06.42-.24t.3-.36q-.06-.6.18-.96t.72-.78q.12-.12.3.06t.24 0q.36.42.69.63.33.21.27-.27v-.06q0-.12-.27-.48t-.09-.6q.12-.24.54-.51.42-.27.54-.51l-.54-.6q.06-.18.42-.39.36-.21.3-.27l-.24-.48q-.06-.12-.36-.42-.24-.3-.51-.51-.27-.21-.45-.39.06-.06.21-.33t.51-.15l.54.54.6.48.96.96 1.8 1.98q1.62 1.68 3.42 3.9 3.3 3.84 6.18 7.92l.06.24q0 .36-.66.36-.42 0-.6-.06.06 0 0 .15t.06.21q-.48.36-1.02.36-.42 0-.84-.3l.36.42q0 .18-.27.3t-.39.18q-.06-.06-.15-.18t-.21 0q-.12.06-.48.42l.12.18q.06 0 .06.03v.03q0 .06-.24.24t-.36.3q-.18-.12-.42-.54-.24-.42-.42-.48l-.36.3q.06.3.39.57.33.27.45.45-.36 0-.66.24-.18-.12-.48-.63t-.72-.63l.36.48-.24.06q-.36 0-.69-.57-.33-.57-.51-.69-.72-.54-1.35-1.38-.63-.84-.75-1.02 0 .42-.24 1.26l-.72 2.1-.42 1.02-.42.9q-.96 2.22-2.04 4.26-.12-.06-.33-.36-.21-.3-.39-.06-.48.66-1.14 1.14.36-.06.9-.12t.84-.06l2.4-.24q.78 0 2.46-.12h1.68q.42-.06 1.14-.06t1.08.06l2.16.18 1.86.54.72.42.12.18.18.12.3.24q.18.12.3.3.24.24.24.3.18.18.3.66l.12.36.06.42.06.42zm-22.68-11.7q-1.56.12-5.28.48-.18 4.62-.54 9.06l5.22-.72 1.26-2.7 1.08-2.34q.3-.72.72-1.59.42-.87.9-1.95l.06-.12v-.3q-.06-.06-.09-.03l-.03.03h-.24l-1.5.12-1.56.06zm17.4 1.08l.06.06-.06-.06zm-13.68 6.06q-.06.06-.18.06-.18 0-.42-.39t-.6-.27l-.9 1.8q-.06.06-.18.06t-.3-.33q-.18-.33-.3-.09l-.48.72q3.12-.36 4.38-.48l-.18-.12-.06-.06q0-.18.24-.66.24-.48 0-.3.42-.9.78-1.83.36-.93.24-.93l-.3.36q-.24.12-.72 1.08-.78 1.26-1.02 1.38zm-32.4 11.16q-.06.06-.24.06l.24-.06zm40.32 15.42q.12.6.12.78 0 .72-.54.54-2.7-1.44-5.25-3.18-2.55-1.74-6.33-4.56l-2.88-2.16q-.06-.06-.06-.18t.15-.27q.15-.15.21-.27.24.12.72.48t.9.36q.06 0 .18-.36t.3-.48q.12.12.27.18.15.06.27.18.24-.18.42-.66.18-.48.36-.6.06-.06.24-.06.12 0 .42.15t.42.09q.24 0 .24-.12 0-.18-.21-.42t-.45-.36q.18-.12.03-.21t-.09-.21q.36-.54.66-.84.3-.3.84-.3.18-.06.3-.36t.24-.48q.42.3 1.47 1.02t1.89 1.41q.84.69 1.44 1.41.6.78 2.1 1.56 1.56.9 2.16 1.62.12.12.51.27.39.15.57.33.18.18.18.54l-.42-.3q.06.42.54.6.48.18.6.36-.24.42-.18.66-.18-.12-.45-.36t-.57-.3l-.24.42q.12.18.51.36t.45.3l-.3.54q-.06.06-.12.09t0 .03q-.18-.06-.3-.18l-.3.54q-.12.12.18.3-.12.18-.21.42t-.21.3l-.42-.3q.3.3.3.84 0 .42-.24.9-.06-.06-.21 0t-.21-.06zm1.62-2.76zm69.24-13.68q.06.12.15.18t.09.18v.06q0 .18-.72.42l-.3.06h-1.02l-.36-.06q-.18-.06-.72-.06l-.66-.12-.48-.24-.6-.18q-.36-.12-1.08-.48-2.1-.96-3.84-2.7-1.8-1.92-2.64-3.9-.12-.24-.42-1.08l-.24-.54-.12-.54v-.12q-.18.12-.9.24v.15q0 .15.18.15-.12.18-.39.36t-.63.18q-.12 0-.48-.12l.42.3v.06q0 .12-.12.27-.12.15-.18.21-.3-.18-.42-.12l-.24.48q.24.18.3.18-.06-.06-.03 0t-.03.12l-.24.48q-.18-.06-.51-.3t-.51-.36l-.24.36q.18.18.57.39.39.21.51.27-.24 0-.42.36-.24-.06-.66-.42-.42-.36-.78-.3l.42.3q-.12.06-.3.06-.3 0-.75-.36t-.63-.42l-1.02-.42q-1.08 2.34-2.34 4.5-.12-.06-.39-.36t-.45-.12q-.9.72-1.5.72-.42 0-.84-.3l.18.78q.06.3.48.27.42-.03.6.03l-.24 1.02 1.74-.18 1.86-.12q3.78-.36 7.56-.36h.78q.6 0 .9.06l1.74.12q.3 0 .42.06l.42.12.72.24.42.12.3.18.66.36q.12.12.27.21.15.09.27.27l.24.3q.12.06.15.15t.09.15q.36.66.54 1.32.18.6.18 1.32 0 .54-.24 1.86-.06.66-.3 1.68-.06.24-.12.45-.06.21-.12.39l-.12.48-.66 1.98q-.66 1.92-1.5 3.72-1.86 3.9-4.26 6.9-.42.42-.6.42-.12 0-.18-.18t-.18-.24q2.76-3.3 3.48-5.64l.06-.12q0-.06-.06-.06-.12 0-.45.06t-.33-.3q.6-1.2.96-2.1-.06-.3-.42-.3-.12 0-.42.06t-.42-.3v-.18q0-.48.36-1.44.42-1.2.36-1.62.12-.54 0-.54t-1.38 2.94q0-.12-.06-.12t-.3.51q-.24.51-.36.45-.48-.18-.69-.45-.21-.27-.21-1.05 0-.24.12-1.08V56q0-.24-.36-.21t-.48-.03q.6-1.44.78-2.16.06-.3.15-.57.09-.27.15-.57l.06-.12v-.06h-7.8q-2.28 0-6.18.54-1.44 2.82-2.82 4.38l-.96 1.2q-.48.48-.96 1.26l-.96 1.2-.48.66-.48.54-1.08 1.14q-.18.3-.54.6-.36.3-.54.48l-1.08.96q-.84.6-1.2.78-.36.18-.75.63t-.63.63q-.54.42-.9.6t-.72.06l.84-.66q-.48.06-.87.36t-.75.6q-.78.66-1.08.78-.12-.18-.3-.3t-.42-.06q.3-.24.99-.66.69-.42.99-.78l-.36-.42q-.42.18-.96.72-.18.12-.48.36t-.54.3q-.3-.3-.42-.6-.06-.06 0-.12t.06-.12q.12-.06.21-.12t.21-.12q-.3-.3-.42-.6l-.12-.06q-.18.06-.33.15-.15.09-.27.15-.12-.18-.36-.36t-.12-.42l.84-.54q-.72.36-1.26.36-.9 0-1.32-.54.18 0 .21-.24t.21-.3l-.78.06q-.9 0-.9-.36 0-.18.36-.54l1.68-1.26q.54-.36.93-.72t.69-.6q.06-.06.84-.66l.72-.66 1.56-1.32q2.4-2.28 3.96-4.44-.12.06-.48.06-.42 0-1.08.12-.66.12-1.02.18-1.68.36-2.46.36-.6 0-1.02-.18l1.62-.24q-.9-.12-1.86.06-.96.18-1.14.24-.96.24-1.98.36 0-.24-.09-.36t-.51-.18l1.26-.18q1.92-.24 2.58-.42l-.06-.48q-.42 0-.96.12t-.78.18q-.36.06-1.02.18t-1.14.12q0-.42-.06-.54 0-.12.15-.18t-.09 0q.78-.18 1.02-.18 0-.42-.06-.6 0-.06-.24-.06-.18 0-.9.12 0-.12-.15-.27-.15-.15-.18-.27-.03-.12.21-.24l1.62-.24q-1.5.12-2.46-.18t-1.02-.66q.24 0 .48-.21t.54-.15q-2.28-.24-2.28-.6 0-.24 1.02-.48 6.3-1.14 13.08-2.16l.42-.84.42-1.02q.3-.9.3-1.92 0-.12-.12-.12t-.45.06q-.33.06-.45-.18l.06-.3q-.36-.24-.6-.18l-.12.36q.06.06.36.12t.42.18l-.18.42-.12.12-.12-.12-.18.48q-.06.12.18.24-.06.12-.09.3t-.15.24q-.24-.12-.3-.12.24.18.3.57.06.39-.06.69-.06-.06-.12 0t-.12.06q.42.96-.12.96-3.24-.96-8.88-3.66l-2.34-1.08q-.06-.06-.06-.18 0-.06.18-.42.12.06.51.24t.75.06q.06 0 .06-.27t.18-.39q.12.06.24.09t.18.09q.12-.18.18-.54.06-.36.18-.48.06-.12.24-.12.12 0 .3.06t.24 0q.12-.06.12-.12 0-.24-.54-.48.12-.06-.03-.09t-.09-.15q.36-.9.9-1.08.06-.06.15-.33t.09-.33q1.86.66 3.06 1.44.06-.72.12-1.74t.06-1.56q-7.14 2.04-11.82 2.7h-.12q-.42 0-.42-.18 0-.36.9-1.02-.12.12-.3 0t-.24-.06q-.06-.36.3-.81.36-.45 1.08-.69l-.84.18q-.18-.06-.15-.3t.03-.42q.18 0 .33-.09.15-.09.15-.15l-.12-.54q-.24.06-.42.06.12 0 .03-.03t-.15-.09q-.06-.12-.06-.27 0-.15-.06-.27.24-.12.9-.18t.9-.18l-.06-.42q-.36 0-.93.18-.57.18-.87.24.3-.24.12-.6.3-.12 1.11-.21t1.23-.45l-.78.18q.18-.3.51-.42t1.02-.18q.69-.06.93-.18 1.14-.54 4.02-1.14 2.58-.54 4.02-1.14l.06-.48v-2.1q-2.58.54-6.96.9v-.12q0-.12.03-.36t-.15-.3q-.6-.24-.78-.57-.18-.33-.24-.87 0-.12.27-.15t.15-.15q.6-.06 1.05-.21.45-.15.03-.27-.12-.12-.36-.12h-.54q-.36 0-.48-.18t-.06-.6-.06-.6l-.96.06q-.12-.12-.06-.45t0-.33q-.48-.12-.72-.12l-.54.06q-.18.06-.66.06-.48.12-.78.12 0-.12-.09-.33-.09-.21.27-.39l3.12-.42q1.14-.18 3-.42l4.56-.54-.06-1.32q0-.3-.33-1.17-.33-.87-.33-1.23 0-.42.24-.66l.18.9q.06-.18.06-.54 0-.48-.27-1.2t-.27-1.02q.06 0 .27-.09.21-.09.33-.39.06.18.18.93t.36 1.17l.48-.12q0-.36-.27-1.08-.27-.72-.27-1.02l.66-.18.18.06.12.48.72-.18q.06 0 .06-.18 0-.3-.06-.48.18-.06.42-.24t.42 0l.24.96q-.12-.9.21-1.53.33-.63.75-.81v.06q0 .18.21.27.21.09.15.27.24-1.62.66-1.62.24 0 .48.54.72 2.16 1.26 4.32.36 1.38.96 4.26v.06l5.52-.42q.48 0 .48.24 0 .12-.33.45l-.45.45.12-.06.24-.06q4.44-1.02 6.12-1.38.06-4.02-.48-8.94 0-.78.3-.78.42 0 1.14 1.32l-.06-.12q0-.12.15-.3t.03-.3q.42-.12.99.42.57.54.81 1.56l-.06-1.26q.12-.18.24-.18t.3.06q.18.06.3 0 0 .72.24.72l.66-.06q-.06-.42-.06-.72 0 .18.03.06t.15-.12q.12-.06.66-.06.06.24.12.63t.06.63q0 .96.12 1.32h.48q.12-.66-.06-1.53t-.24-1.17q.18.24.33.3.15.06.39 0 .18.48.18 1.44 0 1.26.42 1.98l-.18-1.14q.6.42.6 1.8v2.1l.18 1.2 1.32-.12q.6-.12.96-.12l1.14-.12q2.22-.3 3.66-.24h.36q.6 0 1.26.18.06.06.12.06h.06l.18.06.3.12.6.24.54.3.3.12.06.36.06 1.32.12 1.32-.12.36-.12.42-.24.9-.3 1.08q.18.42-.18 1.17t-.36.99q0 .9-.18 2.07t-.24 1.59q-.12 1.32-.12 1.92 0 .6.06.9l.06.48.12.42q.54 1.68 1.38 3l.54.72v-.54q-.06-.42-.06-1.2 0-1.38.48-3.9.24 0 .48.12t.36.06q.36-.36.84-.36.3 0 .78.12.12 0 .06.21t.12.15q-.06.36 0 .66.06.3.24.06.12 0 .24-.33t.36-.39q.24 0 .66.15.42.15.6.15 0-.24.12-.6h.06q.18 0 .45.12t.27.06q.3-.24.36-.78t.06-.66q.12 0 .36.03t.3.27l-.48 3.42q-.9 7.08-2.1 11.04-.06.18-.24.18-.36 0-.72-.66 0 .06-.15.09t-.09.15q-.36-.12-.69-.42-.33-.3-.39-.66 0 .24-.06.42l-.12.06q-.18 0-.3-.06l-.24-.12q0-.24-.12-.3t-.27-.06-.27-.06l-.06.24h-.12q-.12-.06-.27-.06-.15 0-.27-.06v-.06q0-.12.15-.42t.09-.48l-.42-.06q-.18.18-.21.51t-.03.45q-.24-.24-.36-.24v.06q.42.24 1.14.54v.12q0 .12-.27.42t-.09.36q.24.18.72.42l.96.3q.36 0 .54.06l.6.06h.66l.84-.18zm-41.88-32.22q.06.06 0 .06v-.06zm10.62 11.64q-.18.24-.6.3t-.84.03q-.42-.03-.78.03-.3.12-.9.24v.18l.06.72v.24l1.74-.42v.3q0 .42.18.48.78.06 1.02.39t.36.87q.06.12-.24.18t-.18.18q-.72.18-1.23.42t.03.3q.18.12.81 0 .63-.12.81.06.18.18.18.42 0 .06-.03.33t.15.45q.72-.12 1.02-.3.18.12.12.48t.06.36q.78 0 1.26-.12-.12-.06-.39-.21t-.21-.39q0-.24.24-.57.24-.33.24-.51l-.66-.3q-.06-.18.18-.42t.18-.3q-.36-.42-1.05-.63-.69-.21-.81-.27 0-.06.03-.33t.39-.27q2.46.96 4.92 2.1.18-.42.42-1.38.18-.66.6-2.64-.6.12-.96.12-.48 0-.78-.24l.84-.18q-.54-.12-1.35.12t-1.17.24q0-.18-.09-.27-.09-.09-.27-.15.3-.06.93-.15.63-.09.99-.27l-.06-.36q-.3-.06-.99.15t-.99.21l-.06-.48q0-.06.06-.12t-.06 0l.54-.12-.06-.48q-.06-.12-.6 0-.06-.12-.18-.33-.12-.21.06-.33l.84-.18-.42.06q-.66 0-1.05-.27t-.51-.57h.06q.12 0 .21-.15t.21-.09l-.66-.24q-.36.66-1.08.84l.66-.06q.18.06.15.3t-.03.36q-.12 0-.3.06t-.12.12q0 .42.06.54h.42q-.06 0 0 .03t.06.09l.06.54q-.18.06-.78.06-.6 0-.84.12l.06.42h.24q.12 0 1.38-.18-.24.18-.18.54-.48.12-.66.12h-.42q-.66 0-.96.24l.72-.06zm24.42-3.6l-.06.12.06-.12zm-6.3 4.86q.24-1.14.66-2.82h-1.5q-1.08 0-2.28.18l-.12.96q-.06.42-.15.81-.09.39-.15.81l-.54 3.06q-.12.6-.12.96l-.18.9q-.24 1.2-.42 1.74 2.88 1.74 4.86 3.12-.12-.36-.12-.54l-.18-1.14-.06-.6-.06-.48-.06-.96v-1.98q.12-2.28.42-4.02zm-23.04 20.16l-.06.18.42-.06 1.86-.3q.24-.42.42-1.14.84-2.7 2.28-8.46.18-.3.36-.3t.33.06q.15.06.27.12l-.42 1.68q-.3 1.2-.18 1.98v.06q0 .06.39 0t.57.06q.24-.6.51-1.08.27-.48.51-.9.24-.42.48-.96t.54-1.14l.54-1.26-2.46-1.26q.06-.12.21-.33.15-.21.09-.39-.24-.42-.24-.78l-4.38 1.2q0 2.64-.12 3.96-.12 2.52-.6 4.68l-.6 2.46-.48 1.32q-.18.48-.24.6zm-2.46-5.4q-.18-.3-.06-.84l.06-.48q0-.24-.12-.48-.06-.36-.18-.33-.12.03-.24.39-.18.48-.3 1.32.6.24.84.42zm13.86-.48q.12-.42.06-.48t-.36.24q-.18.06-.72.84t-.9.84h-.06q-.24 0-.57-.42-.33-.42-.63-.36l-.54.9q.12.12.12.54 0 .3-.09.84t.03.72q.06.36.15.33.09-.03.27-.33.24-.48.48-1.56l.12.12q.06 0 .15-.39t.27-.33q.9.12 1.26.66.06-.18.24-.39.18-.21-.06-.15.54-.96.78-1.62zm19.62.24q-.54-.24-.24.24 0 .18.18.36.06-.12.06-.36v-.24zm-32.64.84q.12.24.36.27.24.03.36.09l.12-.54q-.24-.24-.78-.12.3.12.3.42l-.36-.12zm8.22.3h.12q0-.12-.12 0zm-7.74 1.56h-.06.06zm33.66.3v.06-.06zm-10.08 20.88q.3.3.3.78 0 .48-.24.84 0-.06-.15.03t-.21-.03q.12.6.12.84 0 .48-.42.42-3.18-1.5-6.72-4.02-2.1-1.44-6.18-4.8v-.12q0-.24.36-.6.24.12.63.45t.75.33q.06.06.21-.3t.33-.48l.48.36q.24-.18.45-.6.21-.42.39-.54.06-.06.24-.06t.39.12q.21.12.33.06.18 0 .18-.18t-.54-.6q.18-.12.03-.21t-.09-.21q.48-.6.72-.81.24-.21.72-.27.12-.06.3-.36t.24-.42q.36.3 1.68 1.29 1.32.99 2.28 2.13.48.54 1.8 1.26 1.44.78 1.86 1.32.12.12.45.24t.48.27q.15.15.03.57l-.36-.24q.06.36.48.51.42.15.54.27-.06.06-.15.24t-.03.36q-.12-.06-.36-.3t-.48-.24l-.24.36q.12.18.45.3t.39.24q-.12.36-.3.54 0 .06-.06.09t0 .03l-.18-.12-.3.54q-.12.12.12.24-.06.12-.12.39t-.24.33l-.36-.24zm1.08-1.14zm-31.86 3.42l.12-.06-.12.06zm80.34-7.02q.6.12.78.24l.9.24v.33q0 .21-.12.3t-.42.09l-.54-.18-.48-.12-.9-.3q-1.32-.42-1.68-.6-2.82-.9-3.36-1.14-.78-.3-1.5-.54-.72-.24-1.32-.48l-2.16-.72-1.32 2.28-.66 1.14q-.96 1.98-2.25 3.99-1.29 2.01-1.47 2.31-.12-.06-.36-.33t-.48-.21q-.42.3-.96.3-.48 0-1.14-.42-.06 0-.06-.12t.18-.33q.18-.21-.06-.15.48-.66.66-1.2.18-.54-.3-.24-.24 0-.63.57t-.69.57q-.3-.06-.66-.45-.36-.39-.6-.39l-.6.9q-.24.06-.48-.3t-.3-.24q-.54.36-1.08 1.2t-.72 1.14l-.12-.06-1.02 1.5q-.12-.06-.33-.09-.21-.03-.21-.21 0-.24.24-.72 3.42-5.1 6.42-10.2l1.68-3q-.18-.06-.84-.3l-3.18-1.26-1.5-.6-1.32-.48q0-.12-.12-.12v-.48q.06-.12.3-.36t.42-.3q-.12 0-.15-.15t-.15-.09q.06-.06.18-.36t.36-.42q.54-.42 1.26-.24l-.72-.24q-.06-.06-.06-.18t.12-.27q.12-.15.18-.33.48.12.54.06-.18-.06-.24-.24l.12-.6h-.06l-.06-.06v.06q-.36.72-.9 1.05-.54.33-.96.21.06-.06.06-.18t-.09-.27q-.09-.15.03-.33-.96 1.2-1.38 1.2-.3 0-.24-.78 1.38-6.6 3.54-14.7l-.24.06q-3.9.72-6.78 1.44-.96.18-1.14.12-.18 0 0-.3.54-.6 2.04-1.38-.12.06-.36.06-.12 0-.36-.06t-.6.12q-.12-.42.87-1.14t2.79-1.26l-2.04.48q-.36 0-.36-.18 0-.12.12-.33.12-.21.06-.33 1.32-.24 1.32-.42-.18-.54-.18-.66l-1.2.3q.24-.06.06-.03t-.24-.09l-.18-.66q.96-.3 2.58-.54 1.32-.18 2.28-.48l-.06-.48q-1.2.12-2.85.54-1.65.42-2.01.54.48-.18.57-.36.09-.18-.03-.42.66-.24 1.5-.39.84-.15 1.2-.21.24-.06 1.41-.27 1.17-.21 2.19-.69l-2.16.42q.78-.72 3.96-1.08 1.5-5.4 2.58-9.06l1.98-7.02q.12-.36.42-.36.12 0 .27.09.15.09.27.15l-.3 1.2q-.24.78-.42 1.56t-.12 1.32q0 .12.12.12t.48-.06q.36-.06.48.18-.24.6-.36 1.44.12.18.48.18h.48q.78 0 .78.72 0 .24-.15.9t-.03.9q.06.78.39.12t.63-1.8l.12.12q.06 0 .15-.42t.27-.36q.66.18 1.05.54.39.36.51 1.44.06.24.48.21t.54.03q-.84 3.36-1.62 6.18l.78-.12q.3 0 1.02-.12l.6-.06.84-.06q1.92-.18 3.36-.12 1.68.18 2.58.84.36.24.54.42.24.36.3.54l.24.6.18.72q.12.54.12 1.68 0 .96-.06 1.5l-.24 1.74-.18.84-.12.66q-.3 1.5-.6 2.4l-.36 1.5q-1.44 5.82-4.68 12.66 2.4.6 6.54 2.34-.06.18-.27.48-.21.3-.09.48.54.54.54 1.2 0 .36-.24.96-.06.18-.36.06t-.3.06q-.72-.3-1.26-.36t-.12.36q.06.18.66.45.6.27.6.63v.06q0 .24-.3.66-.3.42-.24.72l1.02.36v.12q0 .18-.27.48t-.09.36q.42.42 1.2.72zm24.54-38.04q.06.96-.03 2.31t-.09 1.89l-.24 2.58-.18 2.22q-.54 5.58-1.02 8.82-.72 6.06-1.92 13.74.12-.06.36-.06.18.48.3.54-.18.06-.39.03-.21-.03-.39.03l-.06.6q.18 0 .48-.12t.48-.06l.12.6-.06.12-.24.06.12.6q.06.18.3.06.06.06.18.36t0 .42l-.42.12q.42 0 .75.36t.39.78q-.06-.06-.12.09t-.18.09q.54.42.75.69.21.27-.15.45-3 .84-6.18 1.41-3.18.57-7.44 1.11-.96.18-2.88.42-.24-.06-.27-.33-.03-.27-.03-.39.18-.06.78-.15.6-.09.9-.39.06 0-.09-.33t-.09-.51l.6-.12v-.18q0-.42-.18-.66-.36.96-1.44.96-.18.06-.24-.54-.06-.6-.18-.36-.12-1.38-.33-2.37-.21-.99-.39-.03-.12.18-.12.72l.06 1.26q0 .72-.24.96-.3.24-.84.06t-.72.06q0 .36.18 1.98-.06.12-.24.12t-.54-.15q-.36-.15-.3.09-.06.36-.06 1.14 0 .84.06 1.5t.12 1.14l.18 1.62q-.12 0-.27.09-.15.09-.27.09-.24 0-.42-.6-1.38-11.64-2.28-25.74-.84-12.36-.96-25.62 0-.96.3-.96.36 0 1.08 1.8v-.12q0-.12.15-.33.15-.21.03-.45.48 0 .99.75t.69 2.07v-1.5q.06-.24.18-.24.18 0 .33.12.15.12.33.12 0 .96.24.96.48 0 .72-.06 0-.36-.06-.72.06-.06.09-.15t.09-.09q.54 0 .72-.06.12.6.12 1.08l-.06 1.62q0 .48.06.72h.54q.06-.6-.06-2.1l-.06-1.32q.12.3.27.39.15.09.45.09.06.24.06.84 0 .42-.06 1.14t0 1.2l.24-.06v-.18l.12.12 4.02-1.08q1.08-.3 2.34-.6l1.2-.3.42-.12.54-.12 1.08-.18 1.08-.12 1.08-.18 1.08-.06.96.06h.48l.42.12q.3.06.78.3.48.24.66.42l.18.12.12.06h.06l.3.3.72 1.38.06.18q.06 0 .06.18l.12.42.12.96zm-20.4-4.98v-.18.18zm2.4 4.38l.06.18v-.18h-.06zm3 33.12q1.56-.36 3.12-.36.84 0 1.26.06h.12-.06q0-.48.12-1.02t.18-.78q.24-1.32.24-1.98 0-.54-.06-.78l-.24 1.5q-.24-.3-.24-.96 0-.42.12-1.05.12-.63.18-.93.3-1.08.3-1.92.06-3 .84-7.8.78-5.16.84-8.22V26.6l-.18-.12-.18.06-.54.12-1.14.3q-.42.12-.99.21-.57.09-1.29.33v-.12q0-.12.03-.36t0-.39q-.03-.15-.27-.15-1.38-.06-1.83-.39-.45-.33-.57-.99 0-.12.39-.24t.57-.18q.18-.06-.06-.18 1.08-.18 2.28-.66.54-.18.54-.24 0-.12-.48-.12-.24-.12-1.32.12-.24.06-.54.12-.3.06-.66.06-.3 0-.54-.12-.24-.18-.24-.42 0-.18.09-.51t-.21-.51l-1.98.48H232l-.06 1.74q0 .54.06.78.36 2.4.48 7.74 0 .48.06 3.03t.42 4.65q.54 3.06.9 6.84t.6 7.38zM195.88 30.5zm0 0zm19.68 1.32q-1.26.12-4.74.66-.48 1.26-.87 2.91-.39 1.65-.51 2.19-.78 3.66-1.62 5.7-.12.3-.24 1.26-.24 1.68-.78 2.16l.3.06q1.2.18 3.3 1.02 2.34-4.68 3.96-9.12 1.14-3.18 1.62-5.04l.36-1.32.06-.3.06-.24v-.06h-.06l-.84.12zm1.56 13.38q.06 0 .06-.03v-.03q0 .06-.06.06zm-10.5 1.44l.3-.84q-.36.48-.42.78l.12.06zm-4.74 1.14h.06-.06zm-1.98 3.06q.06-.12.03.06t-.09.48v-.12l.06-.42zm40.14 3.66q.06-.42.27-1.32.21-.9.21-1.44l-.54-.12q-.18.54-.27 1.53-.09.99-.15 1.41.18-.06.48-.06zm.78.6v.12q0-.12.06-.12h-.06zm6.06.48q-.06.06-.06.03v-.03h.06zm-12.78 2.76l.06-.12q-.42-.12-.54.24 0 .12-.06.18.48-.12.54-.3zm78.06 2.46q.36.24.36.48t-.45.33q-.45.09-.99.15.18 0 .24.21t.18.21q-.12.24-.51.45-.39.21-.87.21-.42 0-.9-.18l.84.42.06.12q0 .12-.18.27-.18.15-.3.33-.54-.24-.6-.12-.12.18-.3.6l.48.24q-.12-.06-.03.03t.03.15l-.3.6q-.3-.06-.96-.51-.66-.45-.96-.51l-.24.42q.36.36 1.08.66.72.3.9.36-.3 0-.54.42-.42-.12-1.2-.66t-1.44-.54l.84.48q-.42.18-.84 0t-1.14-.66q-.6-.48-1.08-.66-.78-.3-2.22-1.14l-2.22-1.5q-1.74-1.26-1.92-1.38-2.04 3-4.26 5.88-.06-.06-.24-.39t-.42-.15q-1.14.96-1.74.96-.3 0-.78-.36l-.06-.06q0-.12.33-.57.33-.45.09-.33.54-.66 1.05-1.44.51-.78.51-1.02 0-.18-.42.24-.18.12-.96 1.08-.78.96-1.14 1.02h-.06q-.24 0-.45-.45-.21-.45-.51-.39l-1.2 1.56h-.12q-.24 0-.33-.36-.09-.36-.21-.18-.9.72-2.46 2.7-.3.42-1.02 1.26-.12-.06-.3-.12t-.18-.24l.18-.48q3.9-4.68 7.62-10.08l1.26-1.86-1.44-1.2q-1.68-1.44-3.6-3.36l-.36 2.28q0 .24-.36 1.92-.06.42-.54 1.8l-.3 1.38q-.12.96-.24 1.32-.36 1.68-.96 2.16l.36-1.44q-.54.9-.78 2.58-.12.96-.36 1.74l-.24-.06q-.3 0-.54.42.12-.42.45-1.53t.33-1.83l-.48-.12q-.18.48-.42 1.68-.06.18-.15.75-.09.57-.27.87-.12 0-.3-.06t-.36-.06q-.12-.06-.12-.21v.03l.24-.84-.72-.12q-.12-.06-.21.33t-.15.51h-.06q-.12 0-.42.06t-.36-.24l.36-1.38q-.42 1.32-1.05 1.95-.63.63-1.11.45.18-.24.09-.48t.03-.42q-1.02 1.5-1.44 1.5-.18 0-.18-.36t.06-.6q1.62-7.44 2.34-11.58-2.88 1.26-7.32 2.7l-1.74.6q.06.3.15.78.09.48.09.84 0 .48-.36.84l-.06-.72q-.12.24-.12.66 0 .36.06.84t0 .84q-.18 0-.33.06-.15.06-.21.24v-.72q0-.78-.12-1.08l-.42.06v.24q0 .24.09.75t-.03.81h-.54q-.12 0-.15-.09t-.03.03v-.48h-.54q-.18 0-.18.54-.12 0-.36.09t-.36-.09v-.78q-.06.72-.48 1.14-.42.42-.78.42v-.12q0-.06-.12-.18t-.06-.24q-.54 1.02-.84 1.02-.18 0-.3-.48l-.78-9.48-.24-2.58q-.42.54-.78.6l.48-.9q-.54.48-.96 1.38-.42 1.08-.72 1.44-.18-.12-.33-.15-.15-.03-.39.15.18-.36.63-1.08.45-.72.51-1.2l-.42-.24q-.24.24-.6 1.08-.36.84-.6 1.14-.12-.12-.3-.21l-.3-.15q-.12-.06-.09-.15t-.03.03l.3-.54-.6-.36q-.06-.06-.24.18t-.24.36q-.12-.06-.45-.09t-.33-.33l.6-1.02q-.54.84-1.23 1.11-.69.27-1.05.03.12-.12.06-.33-.06-.21 0-.27-.9.66-1.38.66-.24 0-.24-.24 0-.18.18-.54 1.98-4.02 3.78-8.1 2.28-5.22 3.18-8.28 1.26-3.96 2.04-8.46.3-1.74.36-3.48h-.12q-.18 0-.69.15t-.75.15q-.36 0-.54-.3l.6-.06q-.18-.12-.54-.12-.24 0-.69.15-.45.15-.69.09 0-.18-.06-.33-.06-.15-.24-.21.18 0 .66-.03.48-.03.78-.21l-.06-.42h-.18q-.24 0-.66.12-.42.12-.66.06 0-.42-.06-.6 0-.12.06-.12.12 0 .3-.06 0-.42-.06-.6t-.48-.06q-.06-.12-.15-.39t.03-.39l.66-.12q-.6 0-1.02-.36-.42-.36-.54-.78.12.06.21-.09t.21-.09q-1.02-.54-1.02-.78 0-.18.42-.36 1.86-.42 5.7-1.02 3-.48 5.7-.72.84-.12 2.52-.24 1.44-.18 4.11-.48 2.67-.3 4.65-.6.3.06.33.33.03.27.03.39-.36.06-1.14.18-.78.12-1.2.42h-.03q-.03 0-.03.06t.18.36q.18.3.06.48l-.84.12-.06.18q0 .18.18.54.18.36.12.6-.12.3-.66.42t-.6.3q-.18.06-.18.18t.54.12q.54 0 .78-.06l-.06.12q0 .06.24 0t.3.06l.06.66q0 .78-.66 1.2-.06.06-.06.18 0 .18.09.36t.15.36q-3.72.66-6.42.66-1.14 0-1.68-.06-.48-.06-.84-.03t-.6.03q.54.06.93.36t.63 1.2q.06.18.3.18.12 0 .33-.06.21-.06.39-.06-.24 3-.48 4.44l.48-.18q2.46-.72 4.2-.72 1.74 0 2.7.72.48.3.6.48.12.06.18.15t.06.15l.18.24.36.54.18.78q.12.18.12.66l-.06 1.14-.24 2.04-.36 2.82-.3 2.04-.18 1.26q-.48 2.64-.54 2.94-.48 2.88-1.08 5.46l.24-.06q.06.12.12.27.06.15.18.21-.06 0-.33.06t-.39.24l.24.42h.06q.12 0 .3-.15t.36-.15q0 .18.18.54l.06.12-.24.06.24.54q.06.06.12.06h.12q.06.12.18.3t.06.3q-.12.12-.24.12.36 0 .6.24.96-6.3 1.26-10.68.24-5.04.24-7.56 0-1.56-.12-4.92-.18-4.32-1.02-12.66 0-.48.12-.57.12-.09.3-.06t.3.03q.12.6.24 1.92.24 2.46.6 3.36 0 .12.06.12.12 0 .42-.24t.54 0q0 .48.09 1.02t.09.9q.12.12.3.12t.57-.24q.39-.24.69 0 .36.3.48 1.62.12 1.02.3 1.26.18.42.24.42.24 0 .12-1.26l-.15-.3q-.09-.18.15-.36l-.12-1.02.12.12q.06 0 .06-.18 0-.12-.03-.51t.15-.45q.6-.06 1.02.15.42.21.84 1.23 2.88-.84 4.32-1.2-.06-.54-.18-1.92t-.12-2.4l.06-1.32q0-.24-.15-.87t-.15-.93q0-.48.3-.72l.06.78q.18-.36.18-.66 0-.24-.18-.81-.18-.57-.12-.87.24 0 .42-.09t.24-.27q0 .24.03.84t.21.96h.54v-.24q0-.36-.15-.87t-.09-.75q.48 0 .66-.06.06 0 .12.09t0-.03l.12.42q.48 0 .6-.06.24 0 .12-.54.18-.06.42-.18t.36.06q.12.48.12.78 0-.78.39-1.29t.87-.57v.12q0 .12.15.21t.09.21q.48-1.26.9-1.26.18 0 .36.48.9 4.2 1.2 10.14l.66-.06.18-.06.3-.06h.66l1.26-.18h.6q.24-.06.39-.03.15.03.27.03h1.2q.36 0 1.2.12.12 0 .45.06t.51.18q1.02.36 1.62.9.12.12.24.3t.3.36l.3.42.24.3.06 1.68-.12.9-.24.96q-.48 1.32-1.86 4.08l-1.08 2.04q-.36.72-.72 1.68-.24.48-.6.18-.3-.42-.42-.9.06.12-.12.18t-.18.18q-.3-.12-.51-.45-.21-.33-.21-.81 0-.36.06-.6l-.3.78-.12.06q-.12 0-.27-.15-.15-.15-.27-.21 0-.06.09-.27.09-.21-.03-.27l-.54-.24q-.06.12-.09.21t-.03.21q-.06 0-.12.06t-.12 0q-.18 0-.54-.18.06-.36.42-.99t.42-.93l-.42-.18q-.24.36-.48 1.05-.24.69-.36.93 0-.24-.12-.36t-.3-.18q.12-.36.57-1.17.45-.81.45-1.35l-.36.78q-.12-.24-.12-.36 0-.42.42-1.02 0-.06.12-.18.06 0 .06-.06v-.06l.12-.06v-.18q-.12-.24.06-.66l.06-.12q-.12 0-.12-.06-.06-.06-.24-.06-.36 0-.54.24-.06 0-.06.12h-.18l-.24.12q-.54.06-1.2.3-.12 5.28-.48 8.94h.06l.48-.06h.12l.18-.06h.36l1.74-.18q2.28 0 3.18.36.72.24 1.26.66l.48.48.3.6q.3.72.3 1.92 0 .78-.06 1.2l-.18.84q-.12.6-.24.84-.06.42-.48 1.74l-.24.6-.18.48-.42 1.02-.66 1.5q-.18.42-.96 2.22-.48 1.2-1.68 3.6 5.46 3.9 11.34 7.02zm-53.4-39.84h.06-.06zm8.64 1.74l.12.06q.06 0 .06-.33t.06-.39l-1.26.18q0 .06.03.06h.03q.24.18.24 1.08 0 .9.12 1.08.18.66.36-.06.06-.3.24-1.68zm21.3 2.34q0-.12.03-.39t-.15-.45l-1.08.24q.48 5.28.48 8.1.06 4.68-.66 9.36v.12q.18-.12.48.06l1.08 1.32q.48-.48 1.02-.78l-.24.06q-.12 0-.3-.06t-.36.12q-.12-.42.48-1.02.6-.6 1.86-1.02l-1.44.36q-.24 0-.24-.18 0-.06.06-.24t0-.3q.9-.24.9-.42-.12-.24-.12-.54l-.9.24q.24-.06.06-.06t-.18-.06q-.18-.54-.18-.6.36-.18.96-.27.6-.09.84-.15t.78-.15q.54-.09.84-.21l-.06-.42q-1.2.06-3.48.78.3-.24.36-.36t-.06-.3q.66-.24 2.1-.48 1.68-.24 2.4-.6l-1.5.24q.48-.54 2.28-.78h.54q.06-.24.06-.6-.24-.18-.6-.06t-.54.12q-.42 0-.51-.24-.09-.24-.09-.72 0-.66-.18-.84-.06-.24-.18-.24-.18 0-.27.54-.09.54-.09 1.02l-.12-.06q-.06 0-.06.3t-.18.3q-.66-.06-1.08-.27-.42-.21-.72-.87-.06-.12-.3-.12l-.66.06q.12-4.5.3-6.66-.66-.12-.87-.42-.21-.3-.33-.78v-.06q0-.12.3-.18t.12-.18q.54-.12 1.02-.3l.06-.48q-.24 0-.78.09t-.72-.09q-.18-.18-.18-.42zm12 6.66q0-.06.06-.06 0-.06-.06.06zm-31.32.3l-.12.48q.48-.18.57-.33.09-.15-.33-.15h-.12zm1.98 18q.48 0 .99-.24t.63-.3q.12-.36-.06-.36-.24-.12-.54-.12 0 .24-.12.54.06-.12 0-.03t-.12.09l-.54-.18q0-.24.24-.99t.18-1.17l-.42-.06q-.18.42-.27 1.11-.09.69-.15.99-.12-.36-.48-.42 0-.36.24-1.08.24-.72.24-1.2 0-.3-.06-.48l-.36.9q-.18-.3-.18-.66 0-.36.24-1.23t.24-1.17q.06-1.26.36-2.88.3-1.62.36-2.04.36-1.68.48-2.52l.18-1.2.06-.6v-.24h-.06q-.18-.24-.3-.24l-.24.12v.06h-.06l-.3.06q-.12.06-.6.24-.6.12-1.26.48 0-.12-.03-.45t-.27-.33q-.54 0-.72-.06-.54 1.56-1.14 2.82l-.54 1.32-.3.78q.12.06.3.36.06.12.24.12.12 0 .66-.18.48 4.68.48 7.26 0 1.44-.06 2.16 0 1.14.06 1.74 1.74-.66 3-.72zm24-.42l1.14-2.1q.48-.9 1.32-2.7l.6-1.38.24-.66q0-.12.12-.36l.06-.06h-.36l-.36.06q-1.56.12-3 .36-3.42.54-5.7 1.2h-.06q1.44 1.62 3.72 3.66 1.56 1.38 2.28 1.98zm-7.62-2.16q.12-.3.6-.51.48-.21.54-.45-.24-.24-.45-.48-.21-.24-.39-.42.06-.24.45-.39.39-.15.33-.21-.12-.24-.78-1.32l-.84-1.02q-.18 1.2-.42 3.18l-.18 2.04v.24h.06q.12 0 .3.24t.24 0q.66.66 1.2 1.02.54.36.24-.24 0-.18-.48-.78-.48-.6-.42-.9zm-13.98 1.68v-.18.18zm-15.84 3.24zm10.8 1.26v.24q.06-.18 0-.24zm102.6-29.82q.24.06.3.33t.12.39l-.54.18-.54.12q-.12.06-.45.15t-.51.27q-.06 0-.06.12t.15.39q.15.27.09.51-.18 0-.39.09-.21.09-.45.09v.12q0 .18.18.57.18.39.18.63 0 .36-.54.57-.54.21-.6.33-.12.12-.12.24t.36.12l.96-.12V29q0 .06.21 0t.27.12q.18.72.18.78 0 .6-.6 1.14-.06.06-.06.18 0 .18.3.78-4.68 1.14-7.68 1.14-.78 0-2.46.24 2.1 7.62 2.1 17.16 0 8.46-1.68 17.82-.18.6-.42.6-.48 0-1.08-1.56l.06.12q0 .12-.21.27-.21.15-.15.33-.48-.12-.96-.75t-.48-1.59l-.12 1.02q-.06.12-.24.12t-.39-.09q-.21-.09-.39-.15.12-.72-.06-.72l-.78-.06-.12.66q.06-.12 0-.03t-.18.03l-.84-.06q0-.36.18-1.23t.12-1.23l-.6-.12q-.18.48-.21 1.26t-.09 1.2q-.12-.24-.3-.33-.18-.09-.42-.09-.06-.42.15-1.2t.21-1.14q0-.36-.18-.84l-.12 1.08q-.36-.3-.36-.9 0-.42.24-1.26.24-.96.18-1.32-.06-.36-.06-1.14 0-1.02.06-1.56 0-.42.12-1.38l.12-1.44q.24-2.28.24-3.36 0-1.14-.18-2.1-.36-1.5-.72-4.86 0-.42-.12-1.26l-.42-3q-.06-.24-.12-.69-.06-.45-.06-.81-.06-.3-.12-.72t-.18-.72h.6q.48 0 .54-.18.24-.96.66-1.26.42-.3 1.26-.48h.06q.12 0 .18.42t.24.18q.06.6.48 1.56.12.36.24.36t.24-.36q.18-.18.06-.72t-.12-.9q0-.36.18-.54.24-.24.66-.24h.54q.42 0 .54-.12 0-.36-.18-.72l-.06-.36q-1.56.24-2.28.18-.18 0-.72.18t-.78.18q-.42 0-.66-.42l.66-.12q-.36-.12-.48-.12-.24 0-.75.18t-.75.12q-.12-.36-.24-.48-.36 1.68-1.02 3.48-1.08 2.76-2.76 6.24-.18-.12-.48-.39t-.48-.15q-.72.72-1.38.72-.36 0-1.08-.36-.12-.12-.12-.18 0-.12.18-.42t-.06-.24q.42-.84.63-1.59.21-.75-.33-.21-.18.06-.63.81t-.81.81h-.06q-.3 0-.69-.39-.39-.39-.69-.33l-.66 1.2h-.06q-.24 0-.54-.3-.3-.3-.36-.18-.54.42-1.02 1.44l-.9 1.74q-.12-.06-.33-.09-.21-.03-.3-.18t-.03-.45q1.98-3.84 3.78-8.04.72-1.62 1.92-4.98-.24.06-.66.06-.54 0-.66.36l.42-.06q-.06.54-.6.54h-.42q-.3 0-.42.06-.9.48-2.58.6-1.62.12-2.34.48-1.2.6-2.43.87-1.23.27-3.15.51-.06-.18-.06-.54 0-.36-.06-.42-.42-.24-.6-.63t-.3-.99l-1.62 2.88q.18.3.27.57.09.27.21.51v-.12q0-.12.18-.21t.12-.27q.48.12.9.72.42.6.42 1.44 0-.24.12-.96.06-.06.18-.06.18 0 .33.09.15.09.33.15 0 .12-.03.36t.15.3l.72.12q.06-.3.06-.54 0 .12.06.06t.12-.06l.72.12q.06.3-.12.99t-.18.99l.54.06q.18-.36.21-.99t.09-.99q.06.24.24.33.18.09.48.09 0 .3-.15.9-.15.6-.15.96 0 .42.12.66 0-.54.06-.84.36.24.36.78l-.06.54q0 .42-.09.87t-.03.69q.12 1.08.12 1.68 0 .84-.12 2.64-.12 1.8-.12 2.7 0 1.2.18 2.28.48 2.34.66 4.5.18 2.16.42 6.36-.18 0-.6-.06t-.48.12q-.3.84-.75 1.05-.45.21-1.23.27-.18.06-.18-.33t-.18-.27q-.06-.9-.24-1.47t-.42-.03q-.12.12-.12.6v.36q0 .72-.3.9-.24.18-.81.06-.57-.12-.87 0l.06 1.26q-.18.18-.63.03t-.45.03q-.12.36-.12 1.08 0 .66.06 1.23t.12 1.05q-.36.12-.54.12-.3 0-.42-.36-1.08-10.68-1.26-16.2l-.06-3.42q0-1.62.12-4.86.18-3.18.72-6.54-.06.18-.3.54-.84 1.14-1.68 2.04-.3.3-.66 1.02-.06.12-.33.57-.27.45-.54.66-.27.21-.63.21l.54-.78q-.54.18-1.02 1.02-.54.96-.84 1.26-.18-.18-.36-.24t-.42.06q.24-.36.75-.9t.63-.9l-.42-.36q-.24.18-.69.87-.45.69-.69.93-.3-.12-.6-.42-.12-.06-.09-.18t-.03 0l.36-.42-.6-.42-.12-.06q-.18 0-.42.48-.18-.12-.48-.21t-.24-.39l.54-.72q-.84.78-1.74.78-.36 0-.72-.24.18-.12.12-.36t.06-.3q-.96.36-1.32.36-.54 0-.12-.66l1.74-2.58 2.88-4.2q2.88-4.56 4.14-6.9 1.8-3.18 3.36-7.2.84-2.22 2.46-7.8.3-.36.42-.36t.3.09l.3.15q-.12.48-.42 1.59t-.24 1.89v.06q0 .06.12.06.06 0 .42-.06t.48.18l-.3 1.2q.24.18.78.18t.78.24q.18.18.18.48 0 .24-.15.81-.15.57-.03.75.06.36.15.36t.27-.3q.36-.72.54-1.44l.12.06q.06 0 .15-.33t.27-.27q.66.18 1.05.51t.51 1.29q.06.3.48.3h.54q-.96 3.42-2.1 6l-.6 1.26 1.8-.36q2.64-.48 3.96-.66.66-.12 1.98-.24l.84-.18h.42l.18-.06h.06q.06 0 .06.03v.03l.06.06.18.48v.06q-.06-.06-.06-.18v.42q0 .3-.06.42 0-.06.09.06t.15 0q.06.24.06.66 0 .72-.48.96l.42-.06q.12.06.15.36t.03.42q-.3.12-.24.24 0 .24.12.6.12 0 .24-.06-.06 0 0 .03t.12.15l.18.6q-.12.12-.54.12-.42 0-.6.18l.06.42h.18q.24 0 .54-.09.3-.09.42-.15-.06.18-.06.42l.9-3q.24-.78.45-1.5.21-.72.39-1.32.18-.9.42-1.56.36-1.32.96-4.2.36-1.68.48-2.52l.36-1.8q.42-2.64.96-4.8.24-.66.48-.66t.45.54q.21.54.39 1.2v-.12q0-.12.18-.27.18-.15.12-.33.48.12.87.78t.33 1.68q.18-.84.24-1.02.12-.12.18-.12.12 0 .33.12.21.12.33.12-.12.72.06.72l.72.18.09-.27q.03-.09.03-.21l.06-.09q.06-.09.12-.09l.72.12q0 .3-.24 1.17-.24.87-.18 1.23l.54.06q.18-.42.27-1.2.09-.78.15-1.14.06.3.24.39.18.09.42.09 0 .36-.24 1.2-.24.72-.24 1.2 0 .18.12.66l.18-1.02q.3.3.3.84 0 .6-.3 1.38-.24.96-.24 1.32 0 2.28-.96 5.82l-.72 2.28 2.16-.48q1.86-.3 5.58-1.02l5.64-.9 2.7-.48 1.38-.24.66-.12.3-.12.24-.06zm-18.66-10.8v-.12.12zm-10.44 12.84l.06.12-.06-.12zm.06.12V26v-.06zm.36 3.72h.06-.06zM329.32 32q.42-.06.69-.21.27-.15-.03-.33-.12-.12-.18-.12l-.48.66zm-.12.18q.18 0 .12-.18 0 .06-.12.18zm22.02 1.44q.12 0 .6-.06t.72-.24l-.06-.42-.18-.06q-.18 0-.96.3l-.12.48z"/></svg>