<svg viewBox="0 0 300 80" xmlns="http://www.w3.org/2000/svg"><path d="M15.11 61v-.12q.32-.47.73-1.39.41-.92.65-2.33.32-2.05.71-4.61.4-2.57.82-5.38.43-2.81.85-5.75.43-2.95.82-5.81l.77-5.5.66-4.85q.29-2.2.48-3.83.19-1.62.28-2.44h3.72l18.43 34.45 18.28-34.45h2.78l4.8 34.8q.21 1.64.44 2.82.24 1.17.47 2 .24.84.46 1.38.22.54.42.89V61H64.3v-.12q.15-.32.28-1.05.13-.73.13-1.76 0-.38-.03-.78-.03-.39-.09-.86l-3.72-28.07-17.28 32.52-2.03-.23-17.4-32.58q-1.02 6.94-1.78 12.83-.33 2.52-.65 5.03-.32 2.5-.57 4.67-.25 2.17-.4 3.82-.14 1.66-.14 2.45 0 1 .06 1.76.05.76.11 1.29.09.61.18 1.08h-5.86zm61.14-8.64q0-2.32.95-4.02.96-1.7 2.54-2.9t3.6-1.94q2.02-.75 4.19-1.18 2.17-.42 4.28-.58 2.11-.16 3.87-.19v-1.5q0-1.93-.5-3.34-.5-1.4-1.41-2.33-.91-.92-2.18-1.37-1.28-.46-2.8-.46-1.05 0-2.08.18-1.02.17-2.12.58-1.1.41-2.32 1.12-1.21.7-2.62 1.78l-.29-.17 1.99-4.13q.97-.44 1.9-.72.94-.28 1.91-.45.97-.18 1.98-.25 1.01-.08 2.12-.08 3.08 0 5.26.75 2.18.75 3.57 2.05 1.39 1.31 2.04 3.05.64 1.74.64 3.73v9.55q0 2.5.08 4.36.07 1.86.17 3.2.11 1.35.27 2.26.16.91.33 1.52V61h-6.47v-.12q.14-.47.22-1.05.07-.59.13-1.41-.62.53-1.45 1.09-.84.55-1.9 1.01-1.07.45-2.38.73-1.3.28-2.85.28-5.1 0-7.88-2.39-2.79-2.39-2.79-6.78zm19.43-2.82v-5.71q-2.67.03-5.13.31T86.2 45.3q-1.89.88-3.02 2.5-1.13 1.63-1.13 4.32 0 3.46 1.73 5.28 1.73 1.81 4.78 1.81 1.4 0 2.56-.39 1.16-.4 2.05-1 .89-.6 1.51-1.32.61-.71.94-1.39.06-1.11.06-2.47v-3.1zm13.94 0v-7.08q0-2.5-.07-4.36-.08-1.86-.18-3.2-.1-1.35-.26-2.26-.16-.91-.34-1.52V31h6.77v.12q-.24.67-.4 1.64-.16.96-.25 2.49 1.09-.91 2.26-1.79 1.17-.88 2.4-1.55 1.23-.68 2.51-1.09 1.27-.41 2.56-.41.79 0 1.38.08.58.07 1.05.2.47.13.85.3.38.16.73.3l-1.43 5.6-.5-.12q-.35-1.29-1.32-2.06-.96-.78-2.63-.78-.91 0-1.91.32-.99.32-2.02.9-1.03.57-2.05 1.31-1.03.75-1.99 1.57-.06.85-.06 1.85v9.66q0 2.5.06 4.36.06 1.86.17 3.2.12 1.35.27 2.26.14.91.32 1.52V61h-6.77v-.12q.18-.61.34-1.52.16-.91.26-2.26.1-1.34.18-3.2.07-1.86.07-4.36zm47.52 5.04l.35.18-2.17 5.21q-.79.36-1.81.65-1.03.29-2.13.5-1.09.2-2.21.3-1.11.11-2.11.11-3.54 0-6.55-1.04-3-1.04-5.18-3.03-2.18-2-3.41-4.9-1.23-2.9-1.23-6.62 0-3.31 1.27-6.14 1.27-2.82 3.54-4.9 2.28-2.08 5.35-3.26 3.08-1.17 6.68-1.17 1.64 0 3.52.28 1.87.28 3.34.72l2.08 4.98-.35.2q-.74-.9-1.75-1.65-1.01-.75-2.22-1.28-1.22-.52-2.57-.82-1.35-.29-2.75-.29-2.29 0-4.16.81-1.88.8-3.22 2.33-1.35 1.52-2.1 3.73t-.75 5.03q0 3.16.72 5.88.72 2.73 2.14 4.74 1.42 2 3.57 3.13 2.16 1.13 5.06 1.13 1.35 0 2.68-.34t2.52-.97q1.18-.62 2.18-1.5 1-.88 1.67-2zm19.42 6.95q-3.25 0-6.09-1.03-2.84-1.02-4.95-3-2.11-1.98-3.33-4.89-1.21-2.92-1.21-6.67 0-3.31 1.11-6.14 1.12-2.82 3.08-4.9 1.96-2.08 4.58-3.26 2.63-1.17 5.67-1.17 3.02 0 5.6 1.04 2.58 1.04 4.47 3.02 1.89 1.98 2.98 4.89 1.1 2.92 1.19 6.64-3.31-.06-6.62-.09t-6.89-.03q-2.54 0-4.96.03t-4.35.09q.17 3.05.95 5.51.78 2.46 2.14 4.2 1.36 1.74 3.31 2.68 1.95.94 4.41.94 1.7 0 3.21-.4 1.51-.39 2.74-1.1 1.23-.7 2.19-1.65.97-.95 1.64-2.07l.36.18-2.17 5.21q-1.58.82-3.78 1.4-2.2.57-5.28.57zm-3.89-17.87q2.93 0 5.87-.02 2.95-.01 5.35-.1-.26-2.55-1-4.57-.73-2.02-1.87-3.43-1.14-1.41-2.7-2.17-1.55-.76-3.43-.76-1.69 0-3.12.75-1.42.75-2.47 2.15-1.06 1.41-1.7 3.44-.64 2.04-.76 4.65 1.32.06 2.78.06h3.05zm23.46 5.88V28.66q0-2.49-.07-4.35-.07-1.86-.17-3.21-.11-1.35-.27-2.26-.16-.91-.33-1.52v-.12h6.76v.12q-.17.61-.32 1.52t-.26 2.26q-.12 1.35-.18 3.21-.06 1.86-.06 4.35v20.88q0 2.5.06 4.36.06 1.86.18 3.2.11 1.35.26 2.26.15.91.32 1.52V61h-6.76v-.12q.17-.61.33-1.52t.27-2.26q.1-1.34.17-3.2t.07-4.36zm14.48 0V28.66q0-2.49-.08-4.35-.07-1.86-.17-3.21-.1-1.35-.27-2.26-.16-.91-.33-1.52v-.12h6.77v.12q-.18.61-.33 1.52-.14.91-.26 2.26-.12 1.35-.18 3.21-.05 1.86-.05 4.35v20.88q0 2.5.05 4.36.06 1.86.18 3.2.12 1.35.26 2.26.15.91.33 1.52V61h-6.77v-.12q.17-.61.33-1.52.17-.91.27-2.26.1-1.34.17-3.2.08-1.86.08-4.36zm19.22-7.08v8.29q0 3.86 1.53 5.68 1.54 1.82 4.15 1.82.94 0 2.11-.4 1.17-.39 2.42-1.05 1.24-.66 2.49-1.54 1.24-.88 2.3-1.88.05-.85.05-1.8v-9.12q0-2.5-.07-4.36-.07-1.86-.17-3.2-.11-1.35-.27-2.26-.16-.91-.33-1.52V31h6.76v.12q-.17.61-.32 1.52t-.26 2.26q-.12 1.34-.18 3.2t-.06 4.36v7.08q0 2.5.06 4.36.06 1.86.18 3.2.11 1.35.26 2.26.15.91.32 1.52V61h-6.76v-.12q.17-.73.36-1.87.19-1.14.28-2.99-1.2 1.02-2.59 2.02t-2.9 1.79q-1.51.79-3.05 1.27-1.54.49-3.03.49-2.29 0-3.88-.8-1.6-.79-2.61-2.08-1.01-1.28-1.47-2.92-.45-1.65-.45-3.37v-9.96q0-2.5-.06-4.36-.06-1.86-.18-3.2-.11-1.35-.26-2.26-.15-.91-.32-1.52V31h6.77v.12q-.18.61-.33 1.52-.14.91-.26 2.26-.12 1.34-.18 3.2-.05 1.86-.05 4.36zm42.1-10.43l.29 4.86-.41.06q-.21-.68-.66-1.44-.45-.76-1.17-1.4-.72-.65-1.73-1.07-1.01-.43-2.33-.43-.91 0-1.71.27-.81.26-1.41.77-.6.51-.95 1.28-.35.76-.35 1.78 0 1.44.89 2.74.89 1.31 2.24 2.58t2.92 2.56q1.56 1.29 2.91 2.7 1.35 1.41 2.24 3 .9 1.6.9 3.44 0 1.5-.53 2.92t-1.63 2.53q-1.1 1.12-2.81 1.81-1.71.68-4.09.68-1.4 0-2.62-.26-1.21-.26-2.23-.66-1.01-.39-1.81-.88-.81-.48-1.42-.92l.29-5.57h.47q.29 1.38.88 2.52.58 1.14 1.45 1.95.86.81 1.98 1.26 1.11.45 2.43.45 2.17 0 3.44-1.2t1.27-3.13q0-1.55-.86-2.86-.86-1.3-2.18-2.5-1.32-1.2-2.83-2.41-1.51-1.2-2.83-2.56t-2.18-2.99q-.86-1.62-.86-3.7 0-1.7.63-3.12.63-1.42 1.75-2.43 1.13-1.02 2.68-1.57 1.56-.56 3.4-.56 2.43 0 4.06.51 1.63.52 2.48.99z"/></svg>