<svg viewBox="0 0 710 80" xmlns="http://www.w3.org/2000/svg"><path d="M46.28 42.2q1.74-4.44 7.26-15.96 5.34-11.46 6.72-14.82h11.4l-.3 2.4-5.28.6-1.14 38.76 4.98.72-.18 2.1H54.5l.24-2.1 5.46-.66 1.2-27 .84-12.3-4.56 10.86-14.34 31.32-2.64.42-5.22-31.02-1.98-11.58-2.46 11.82-6.42 27.42 5.82.72-.18 2.1H15.5l.24-2.1 5.04-.72 9.72-38.76-5.52-.6.3-2.4H37.4l5.1 30.66.84 6.42 2.94-6.3zm52.38 8.28q-1.56 2.16-4.95 4.14-3.39 1.98-7.35 1.98-3.96 0-6.54-1.8t-3.81-4.71q-1.23-2.91-1.23-6.33 0-5.64 2.28-10.68t6.21-8.1q3.93-3.06 8.73-3.06 4.08 0 6.18 2.04 2.1 2.04 2.1 5.28 0 4.26-3.6 7.17t-8.46 4.38q-4.86 1.47-8.4 1.53-.06.42-.06 1.38 0 3.84 1.8 6.66 1.8 2.82 5.52 2.82 2.58 0 5.34-1.2t5.1-3.54l1.14 2.04zm-7.74-25.74q-3.06 0-5.46 2.34t-3.81 5.79q-1.41 3.45-1.71 6.75 3.42-.12 7.05-1.35t6.09-3.45q2.46-2.22 2.46-5.16-.06-2.4-1.26-3.66-1.2-1.26-3.36-1.26zm23.82 5.64q.78-1.8 2.46-3.75t3.99-3.3q2.31-1.35 4.89-1.35 1.44 0 1.92.36l-1.08 5.22q-.84-.48-2.76-.48-2.76 0-5.58 2.1-2.82 2.1-4.38 5.88L111.62 56h-4.68l3.78-29.16-3.06-1.38.42-2.16 6.3-1.26 1.14.54-.42 5.34-.36 2.46zm24.48 0q.78-1.8 2.46-3.75t3.99-3.3q2.31-1.35 4.89-1.35 1.44 0 1.92.36l-1.08 5.22q-.84-.48-2.76-.48-2.76 0-5.58 2.1-2.82 2.1-4.38 5.88L136.1 56h-4.68l3.78-29.16-3.06-1.38.42-2.16 6.3-1.26 1.14.54-.42 5.34-.36 2.46zm22.62 20.88q-.06.24-.06.72 0 .66.27 1.02t.63.36q1.2 0 3.12-1.98l.78 1.32q-.78 1.2-2.52 2.55-1.74 1.35-3.84 1.35-1.62 0-2.55-.84-.93-.84-.81-2.7.12-1.56.81-6.3.69-4.74 1.05-7.14l1.92-13.14-3.9-1.26.36-1.92 7.62-1.26 1.2.6-4.08 28.62zm2.4-36.18q-1.08 0-1.89-.81-.81-.81-.81-2.07 0-1.56 1.11-2.7 1.11-1.14 2.37-1.14t2.01.78q.75.78.75 2.04 0 1.62-1.05 2.76-1.05 1.14-2.49 1.14zm11.52 12.36q-.24-1.08-.54-1.53-.3-.45-.9-.45-.54-.06-.99.24-.45.3-1.23.9l-.66-1.56q.48-.84 2.04-1.95 1.56-1.11 3.36-1.11 1.92 0 2.7.96.78.96 1.08 3.06l2.28 20.64.6 5.64 2.28-5.16 10.62-24.9h4.2l2.22 24.48.48 5.58 3.84-5.52q2.1-2.94 4.38-8.13 2.28-5.19 2.46-9.45.06-1.02-.21-1.92-.27-.9-.33-1.08-.36-1.08-.36-1.56 0-1.26.6-1.95t1.68-.69q3.12 0 3.12 5.82 0 3.66-2.46 8.94-2.46 5.28-5.94 10.38l-5.88 9.12-4.38.3-1.08-10.02-1.38-13.8-.3-3.9-1.26 3.96-6.96 14.52-4.2 8.94-4.08.36-1.68-10.14-3.12-19.02zm71.1 23.04q-1.56 2.16-4.95 4.14-3.39 1.98-7.35 1.98-3.96 0-6.54-1.8t-3.81-4.71q-1.23-2.91-1.23-6.33 0-5.64 2.28-10.68t6.21-8.1q3.93-3.06 8.73-3.06 4.08 0 6.18 2.04 2.1 2.04 2.1 5.28 0 4.26-3.6 7.17t-8.46 4.38q-4.86 1.47-8.4 1.53-.06.42-.06 1.38 0 3.84 1.8 6.66 1.8 2.82 5.52 2.82 2.58 0 5.34-1.2t5.1-3.54l1.14 2.04zm-7.74-25.74q-3.06 0-5.46 2.34t-3.81 5.79q-1.41 3.45-1.71 6.75 3.42-.12 7.05-1.35t6.09-3.45q2.46-2.22 2.46-5.16-.06-2.4-1.26-3.66-1.2-1.26-3.36-1.26zm38.76 26.1q-.06.3-.06.72 0 .96.39 1.38.39.42.81.42.6 0 1.17-.39t1.47-1.29l.84 1.32q-.24.48-1.11 1.35-.87.87-2.13 1.56-1.26.69-2.64.69-3.72 0-3.48-3.96l.36-2.46q-2.04 2.64-4.77 4.53-2.73 1.89-5.67 1.89-4.74 0-7.05-3.42-2.31-3.42-2.31-9.24 0-4.86 2.28-9.99t6.57-8.58q4.29-3.45 9.99-3.45 1.26 0 2.94.3t3 .72l3.3-.96-3.9 28.86zm-1.32-24.66q-1.92-1.32-4.68-1.32-4.14 0-7.14 2.85t-4.56 7.17q-1.56 4.32-1.56 8.52 0 4.62 1.35 7.17t4.11 2.55q2.7 0 5.37-2.13t4.47-4.71l2.64-20.1zm18.96 19.68q-.42 3.54-.42 4.5 0 1.56.63 2.19.63.63 2.25.63 1.2 0 3.06-.84t2.88-1.68l.48 1.86q-1.14 1.38-3.84 2.73t-5.1 1.35q-5.16 0-5.16-4.92 0-1.56.3-3.78l2.82-21.9h-3.66l.54-2.1 3.66-1.14q1.26-1.62 3.36-8.22h2.34l-1.08 8.16h8.28l-.48 3.3h-8.16l-2.7 19.86zm23.04-15.42q2.58-3.66 6.09-6.09 3.51-2.43 7.05-2.43 3.3 0 5.01 2.01t1.71 6.69q0 2.64-1.26 8.94-.06.36-.12.78-.06.42-.18.84-.24 1.02-.3 1.8-1.14 5.58-1.32 8.34-.06 1.02.18 1.56t.72.54q.6 0 1.26-.39t1.86-1.41l.72 1.32q-.3.54-1.2 1.41-.9.87-2.28 1.56-1.38.69-2.88.69-3.3 0-3.3-3.24 0-1.56.48-4.23.48-2.67.54-3.15.06-.18.6-3.36.78-3.96 1.2-6.63.42-2.67.42-5.07 0-2.88-.93-4.02-.93-1.14-2.97-1.14-2.7 0-6 2.49t-5.58 6.03L315.14 56h-4.56l5.82-44.34-3.36-.96.36-2.04 6.9-1.02 1.2.72-2.94 22.08zm51.42 20.04q-1.56 2.16-4.95 4.14-3.39 1.98-7.35 1.98-3.96 0-6.54-1.8t-3.81-4.71q-1.23-2.91-1.23-6.33 0-5.64 2.28-10.68t6.21-8.1q3.93-3.06 8.73-3.06 4.08 0 6.18 2.04 2.1 2.04 2.1 5.28 0 4.26-3.6 7.17t-8.46 4.38q-4.86 1.47-8.4 1.53-.06.42-.06 1.38 0 3.84 1.8 6.66 1.8 2.82 5.52 2.82 2.58 0 5.34-1.2t5.1-3.54l1.14 2.04zm-7.74-25.74q-3.06 0-5.46 2.34t-3.81 5.79q-1.41 3.45-1.71 6.75 3.42-.12 7.05-1.35t6.09-3.45q2.46-2.22 2.46-5.16-.06-2.4-1.26-3.66-1.2-1.26-3.36-1.26zm23.82 5.64q.78-1.8 2.46-3.75t3.99-3.3q2.31-1.35 4.89-1.35 1.44 0 1.92.36l-1.08 5.22q-.84-.48-2.76-.48-2.76 0-5.58 2.1-2.82 2.1-4.38 5.88L382.94 56h-4.68l3.78-29.16-3.06-1.38.42-2.16 6.3-1.26 1.14.54-.42 5.34-.36 2.46zm33.36-18.96h13.92l-.18 2.4-5.22.6-4.92 38.76 15.66-.24 3.84-10.32 2.76.54L442.46 56h-28.68l.18-2.1 4.38-.72 4.86-38.76-4.02-.6.24-2.4zm37.86 39.84q-.06.24-.06.72 0 .66.27 1.02t.63.36q1.2 0 3.12-1.98l.78 1.32q-.78 1.2-2.52 2.55-1.74 1.35-3.84 1.35-1.62 0-2.55-.84-.93-.84-.81-2.7.12-1.56.81-6.3.69-4.74 1.05-7.14l1.92-13.14-3.9-1.26.36-1.92 7.62-1.26 1.2.6-4.08 28.62zm2.4-36.18q-1.08 0-1.89-.81-.81-.81-.81-2.07 0-1.56 1.11-2.7 1.11-1.14 2.37-1.14t2.01.78q.75.78.75 2.04 0 1.62-1.05 2.76-1.05 1.14-2.49 1.14zm31.8 43.2q-.6 4.38-3.15 7.2-2.55 2.82-5.91 4.11-3.36 1.29-6.6 1.29-1.8 0-3.66-.3t-2.82-.72l1.14-4.44q1.44.66 3.42 1.17 1.98.51 4.08.51 4.08 0 6.06-1.59 1.98-1.59 2.58-5.67l1.26-8.4q-1.74 2.16-4.26 3.66-2.52 1.5-5.46 1.5-4.8 0-7.29-3.45t-2.49-9.21q0-4.86 2.28-9.99t6.6-8.58q4.32-3.45 10.02-3.45 3.18 0 6.36 1.26l3.42-1.26-5.58 36.36zm.12-31.92q-1.86-1.5-5.04-1.5-4.2 0-7.2 2.97t-4.53 7.32q-1.53 4.35-1.53 8.43 0 4.5 1.5 7.02 1.5 2.52 4.26 2.52 2.88 0 5.43-1.77t3.99-3.99l3.12-21zm19.68 4.08q2.58-3.66 6.09-6.09 3.51-2.43 7.05-2.43 3.3 0 5.01 2.01t1.71 6.69q0 2.64-1.26 8.94-.06.36-.12.78-.06.42-.18.84-.24 1.02-.3 1.8-1.14 5.58-1.32 8.34-.06 1.02.18 1.56t.72.54q.6 0 1.26-.39t1.86-1.41l.72 1.32q-.3.54-1.2 1.41-.9.87-2.28 1.56-1.38.69-2.88.69-3.3 0-3.3-3.24 0-1.56.48-4.23.48-2.67.54-3.15.06-.18.6-3.36.78-3.96 1.2-6.63.42-2.67.42-5.07 0-2.88-.93-4.02-.93-1.14-2.97-1.14-2.7 0-6 2.49t-5.58 6.03L507.86 56h-4.56l5.82-44.34-3.36-.96.36-2.04 6.9-1.02 1.2.72-2.94 22.08zm34.8 15.42q-.42 3.54-.42 4.5 0 1.56.63 2.19.63.63 2.25.63 1.2 0 3.06-.84t2.88-1.68l.48 1.86q-1.14 1.38-3.84 2.73t-5.1 1.35q-5.16 0-5.16-4.92 0-1.56.3-3.78l2.82-21.9h-3.66l.54-2.1 3.66-1.14q1.26-1.62 3.36-8.22h2.34l-1.08 8.16h8.28l-.48 3.3h-8.16l-2.7 19.86zm18.54-34.44h13.2l-.24 2.4-4.5.6-4.86 38.76 4.62.72-.18 2.1h-13.8l.18-2.1 4.38-.72 4.92-38.76-4.02-.6.3-2.4zm23.22 34.44q-.42 3.54-.42 4.5 0 1.56.63 2.19.63.63 2.25.63 1.2 0 3.06-.84t2.88-1.68l.48 1.86q-1.14 1.38-3.84 2.73t-5.1 1.35q-5.16 0-5.16-4.92 0-1.56.3-3.78l2.82-21.9h-3.66l.54-2.1 3.66-1.14q1.26-1.62 3.36-8.22h2.34l-1.08 8.16h8.28l-.48 3.3h-8.16l-2.7 19.86zm38.22 4.98q-.06.3-.06.72 0 .96.39 1.38.39.42.81.42.6 0 1.17-.39t1.47-1.29l.84 1.32q-.24.48-1.11 1.35-.87.87-2.13 1.56-1.26.69-2.64.69-3.72 0-3.48-3.96l.36-2.46q-2.04 2.64-4.77 4.53-2.73 1.89-5.67 1.89-4.74 0-7.05-3.42-2.31-3.42-2.31-9.24 0-4.86 2.28-9.99t6.57-8.58q4.29-3.45 9.99-3.45 1.26 0 2.94.3t3 .72l3.3-.96-3.9 28.86zm-1.32-24.66q-1.92-1.32-4.68-1.32-4.14 0-7.14 2.85t-4.56 7.17q-1.56 4.32-1.56 8.52 0 4.62 1.35 7.17t4.11 2.55q2.7 0 5.37-2.13t4.47-4.71l2.64-20.1zm18.12 25.08l-.06.6q0 .72.24 1.11.24.39.6.39 1.26 0 3.18-1.98l.78 1.32q-.66 1.2-2.34 2.55-1.68 1.35-4.02 1.35-3.12 0-3.12-3.42l.18-2.22 5.58-39.3-3.6-.96.48-2.04 6.96-1.02 1.14.72-6 42.9zm18.66 0q-.06.24-.06.72 0 .66.27 1.02t.63.36q1.2 0 3.12-1.98l.78 1.32q-.78 1.2-2.52 2.55-1.74 1.35-3.84 1.35-1.62 0-2.55-.84-.93-.84-.81-2.7.12-1.56.81-6.3.69-4.74 1.05-7.14l1.92-13.14-3.9-1.26.36-1.92 7.62-1.26 1.2.6-4.08 28.62zm2.4-36.18q-1.08 0-1.89-.81-.81-.81-.81-2.07 0-1.56 1.11-2.7 1.11-1.14 2.37-1.14t2.01.78q.75.78.75 2.04 0 1.62-1.05 2.76-1.05 1.14-2.49 1.14zm30.18 12.6q-1.32-.96-2.79-1.59-1.47-.63-2.79-.63-3.36 0-5.88 2.19t-3.87 6.09q-1.35 3.9-1.35 9 0 5.16 1.83 7.8 1.83 2.64 5.13 2.64 2.46 0 4.29-.9t4.17-2.76l.96 1.98q-1.56 1.92-4.29 3.51-2.73 1.59-6.51 1.59-4.98 0-7.77-3.57-2.79-3.57-2.79-9.81 0-4.8 2.04-9.75t5.94-8.25q3.9-3.3 9.18-3.3 1.68 0 3.51.39 1.83.39 3.03 1.05l-1.38 4.8-.66-.48z"/></svg>