<svg viewBox="0 0 596 80" xmlns="http://www.w3.org/2000/svg"><path d="M20.22 59.8l4.38-35.88-6.48-.78v-3.72h18.72l7.14 25.8 1.68 7.02 1.44-7.02 7.08-25.8h18.54v3.72l-6.54.78 4.8 35.82 4.86.66V64H56.7v-3.6l5.28-.6-2.64-26.28-1.14-10.98-2.22 9.24-8.7 30.36h-6.36l-8.88-28.8-3.06-10.8-.9 10.98L25.8 59.8l6.06.6V64H15.18v-3.6l5.04-.6zm73.62 4.86q-7.92 0-11.79-4.65-3.87-4.65-3.87-12.69 0-5.4 2.01-9.36Q82.2 34 85.86 31.9q3.66-2.1 8.46-2.1 6 0 9.24 3.15t3.36 8.97q0 3.96-.48 5.88h-19.5q.24 5.46 2.58 8.49 2.34 3.03 6.66 3.03 2.34 0 4.83-.78t3.93-1.86l1.5 3.3q-1.62 1.74-5.25 3.21t-7.35 1.47zm-6.9-20.46h11.58q.12-1.68.12-2.58 0-7.98-5.34-7.98-2.94 0-4.56 2.34-1.62 2.34-1.8 8.22zM111.72 64v-3.54l3.96-.48V36.34l-3.84-1.08v-4.14l9.3-1.26h.18l1.5 1.2v1.32l-.18 4.86h.18q.42-1.2 1.98-2.97 1.56-1.77 3.93-3.12t5.13-1.35q1.32 0 2.28.36v9q-1.8-1.26-4.38-1.26-4.38 0-7.62 2.34v19.68l6.96.54V64h-19.38zm28.26 0v-3.54l3.96-.48V36.34l-3.84-1.08v-4.14l9.3-1.26h.18l1.5 1.2v1.32l-.18 4.86h.18q.42-1.2 1.98-2.97 1.56-1.77 3.93-3.12t5.13-1.35q1.32 0 2.28.36v9q-1.8-1.26-4.38-1.26-4.38 0-7.62 2.34v19.68l6.96.54V64h-19.38zm35.4-38.82q-2.16 0-3.42-1.26-1.26-1.26-1.26-3.24 0-2.28 1.44-3.78t3.84-1.5q2.4 0 3.66 1.29 1.26 1.29 1.26 3.21 0 2.4-1.44 3.84t-4.02 1.44h-.06zm-3.18 34.68V36.34l-4.26-1.14v-4.02l10.98-1.32h.12l1.68 1.2v28.86l4.02.48V64H168v-3.6l4.2-.54zm13.32-25.74V30.7H201v3.42l-4.2.72 4.44 15.96 1.44 6.54 1.32-6.6 5.4-20.04h7.26l5.94 20.04 1.44 6.6 1.44-6.54 4.2-15.9-4.38-.78V30.7h12.84v3.42l-3.06.66-9.12 29.7h-6.9L213 45.04l-1.38-7.14-1.08 7.14-5.58 19.44H198l-9.6-29.7-2.88-.66zm69.06 30.54q-7.92 0-11.79-4.65-3.87-4.65-3.87-12.69 0-5.4 2.01-9.36 2.01-3.96 5.67-6.06 3.66-2.1 8.46-2.1 6 0 9.24 3.15t3.36 8.97q0 3.96-.48 5.88h-19.5q.24 5.46 2.58 8.49 2.34 3.03 6.66 3.03 2.34 0 4.83-.78t3.93-1.86l1.5 3.3q-1.62 1.74-5.25 3.21t-7.35 1.47zm-6.9-20.46h11.58q.12-1.68.12-2.58 0-7.98-5.34-7.98-2.94 0-4.56 2.34-1.62 2.34-1.8 8.22zm24.12 10.44q0-5.46 5.49-8.22 5.49-2.76 14.19-2.82v-1.38q0-2.46-.51-3.84t-1.86-2.07q-1.35-.69-3.93-.69-2.94 0-5.28.75-2.34.75-4.86 1.95l-1.86-3.84q.9-.78 3.03-1.86t5.07-1.89q2.94-.81 6.06-.81 4.62 0 7.23 1.2 2.61 1.2 3.75 3.84 1.14 2.64 1.14 7.08V60.4h3.24v3.36q-1.2.3-3.42.6-2.22.3-3.9.3-2.04 0-2.73-.6t-.69-2.46v-1.62q-1.62 1.8-4.2 3.24-2.58 1.44-5.82 1.44-2.76 0-5.07-1.17-2.31-1.17-3.69-3.42t-1.38-5.43zm13.98 5.04q1.26 0 2.88-.75 1.62-.75 2.82-1.83v-9.84q-5.4 0-8.07 1.83t-2.67 4.71q0 2.88 1.35 4.38t3.69 1.5zm30.72 4.86q-3.78 0-5.58-1.74-1.8-1.74-1.8-5.52V35.26h-3.9v-3.12q.48-.18 1.74-.63t1.92-.75q1.02-.78 1.74-2.7.54-1.26 1.98-6.24h4.8l.24 8.82h9.18v4.62h-9.12v16.86q0 3.36.18 4.74.18 1.38.78 1.77.6.39 2.1.39t3.12-.33q1.62-.33 2.7-.81l1.14 3.36q-1.68 1.26-4.92 2.28-3.24 1.02-6.3 1.02zm17.22-4.62V20.14l-4.56-.78v-3.24l11.16-1.32h.18l1.56 1.14.06 13.38-.42 5.22q1.86-1.68 5.07-3.12 3.21-1.44 6.75-1.44 3.78 0 5.88 1.41t2.94 4.29q.84 2.88.84 7.68v16.5l3.84.54V64h-15.78v-3.6l3.48-.54v-16.5q0-3.12-.42-4.86-.42-1.74-1.53-2.58-1.11-.84-3.27-.84-1.86 0-3.81.87t-3.45 2.07v21.84l3.66.54V64h-15.54v-3.6l3.36-.48zm52.5 4.74q-7.92 0-11.79-4.65-3.87-4.65-3.87-12.69 0-5.4 2.01-9.36 2.01-3.96 5.67-6.06 3.66-2.1 8.46-2.1 6 0 9.24 3.15t3.36 8.97q0 3.96-.48 5.88h-19.5q.24 5.46 2.58 8.49 2.34 3.03 6.66 3.03 2.34 0 4.83-.78t3.93-1.86l1.5 3.3q-1.62 1.74-5.25 3.21t-7.35 1.47zm-6.9-20.46h11.58q.12-1.68.12-2.58 0-7.98-5.34-7.98-2.94 0-4.56 2.34-1.62 2.34-1.8 8.22zM404.1 64v-3.54l3.96-.48V36.34l-3.84-1.08v-4.14l9.3-1.26h.18l1.5 1.2v1.32l-.18 4.86h.18q.42-1.2 1.98-2.97 1.56-1.77 3.93-3.12t5.13-1.35q1.32 0 2.28.36v9q-1.8-1.26-4.38-1.26-4.38 0-7.62 2.34v19.68l6.96.54V64H404.1zm46.86-4.2V23.92l-4.68-.78v-3.72h8.94q2.04 0 5.28-.24.78-.06 1.86-.12t2.52-.06q9.06 0 12.69 2.55 3.63 2.55 3.63 7.59 0 4.44-2.67 7.41-2.67 2.97-6.99 3.63 5.94-.06 9.33 2.7 3.39 2.76 3.39 7.68 0 6.24-4.38 10.02-4.38 3.78-14.64 3.78-2.7 0-4.98-.18-.6 0-2.04-.09t-2.94-.09h-9.06v-3.6l4.74-.6zm8.7-20.94q.66.06 2.7.06h2.82q3.66 0 5.46-2.28 1.8-2.28 1.8-6.42 0-3.96-1.86-5.76-1.86-1.8-6.18-1.8-1.14 0-4.74.24v15.96zm0 21.18q1.38.54 5.28.54 5.1 0 7.38-2.4 2.28-2.4 2.28-6.96 0-4.38-2.07-6.27-2.07-1.89-6.57-1.89-5.04 0-6.3.12v16.86zm29.22-12.66q0-5.64 2.25-9.6t6.03-5.97q3.78-2.01 8.22-2.01 7.56 0 11.67 4.65t4.11 12.63q0 5.7-2.25 9.69-2.25 3.99-6 5.94-3.75 1.95-8.25 1.95-7.5 0-11.64-4.65-4.14-4.65-4.14-12.63zm16.26 13.38q6.78 0 6.78-13.08 0-6.84-1.62-10.41-1.62-3.57-5.28-3.57-6.96 0-6.96 13.08 0 6.84 1.71 10.41 1.71 3.57 5.37 3.57zm24.96-.9V20.14l-4.44-.78v-3.24l11.1-1.32h.12l1.62 1.14v43.98l4.38.48V64H525.9v-3.6l4.2-.54zm29.46 4.8q-3.72 0-6.66-1.77t-4.68-5.49q-1.74-3.72-1.74-9.3 0-5.04 2.07-9.21 2.07-4.17 6.09-6.63t9.66-2.46q2.28 0 4.32.48V20.14l-5.88-.84V16l12.36-1.2h.18l1.68 1.26v44.28h3.24v3.42q-4.32.9-7.14.9-1.92 0-2.73-.63t-.81-2.49v-1.68q-1.56 2.1-4.26 3.45-2.7 1.35-5.7 1.35zm3.12-4.98q1.98 0 3.51-.81 1.53-.81 2.43-1.95V35.08q-.42-.6-1.77-1.02-1.35-.42-2.91-.42-3.84 0-6.15 3.33-2.31 3.33-2.31 10.65 0 6.12 1.98 9.09 1.98 2.97 5.22 2.97z"/></svg>