<svg viewBox="0 0 603 80" xmlns="http://www.w3.org/2000/svg"><path d="M20.58 52.88l4.44-38.22-6.66-.66v-2.58h14.16l9.3 27.72 2.22 8.04 1.98-8.04 9.24-27.72H69.3V14l-6.6.66 4.74 38.16 5.46.6V56H56.76v-2.58l5.58-.54-2.76-27.36-1.32-12-2.64 8.28-10.86 32.04h-2.4l-10.2-28.68-3.9-11.64-1.2 12-2.46 27.36 5.88.54V56h-15v-2.58l5.1-.54zm70.08 3.78q-6.96 0-10.71-4.77-3.75-4.77-3.75-12.69 0-5.1 1.98-9.06 1.98-3.96 5.49-6.15 3.51-2.19 7.89-2.19 5.34 0 8.31 3.06 2.97 3.06 3.21 8.82 0 3.72-.36 5.28H81.36q0 6.3 2.85 10.29 2.85 3.99 8.01 3.99 2.52 0 5.16-.9t4.08-2.16l.96 2.22q-1.74 1.8-5.07 3.03-3.33 1.23-6.69 1.23zm-9.24-20.52h16.26q.18-1.26.18-2.64-.06-3.96-1.89-6.3-1.83-2.34-5.61-2.34-8.22 0-8.94 11.28zM108.72 56v-2.52l4.8-.36V26.66l-4.62-1.02v-2.7l7.62-.96h.12l1.14.96v.96l-.12 4.56h.12q.12-.12 1.59-1.83 1.47-1.71 4.38-3.27t5.85-1.56q.96 0 1.8.24v5.28q-.24-.18-1.05-.36t-1.71-.18q-3.42 0-5.82 1.02-2.4 1.02-4.44 2.52v22.74l7.98.48V56h-17.64zm27 0v-2.52l4.8-.36V26.66l-4.62-1.02v-2.7l7.62-.96h.12l1.14.96v.96l-.12 4.56h.12q.12-.12 1.59-1.83 1.47-1.71 4.38-3.27t5.85-1.56q.96 0 1.8.24v5.28q-.24-.18-1.05-.36t-1.71-.18q-3.42 0-5.82 1.02-2.4 1.02-4.44 2.52v22.74l7.98.48V56h-17.64zm33.78-39.6q-3.24 0-3.24-3.42 0-1.74 1.02-2.85t2.76-1.11q1.8 0 2.58.99t.78 2.43q0 1.86-.99 2.91t-2.85 1.05h-.06zm-1.92 36.54V26.66l-4.68-1.02v-2.7l8.22-.96h.12l1.2.96V53l5.22.42V56H162.3v-2.58l5.28-.48zm11.46-27.78V22.7h13.02v2.46l-4.8.72 5.34 18.66 1.98 8.34 1.98-8.4 6-21.78h4.98l6 21.78 1.92 8.46 2.16-8.4 5.28-18.6-4.62-.78V22.7h11.76v2.46l-3.3.78-9.36 30.54h-4.86l-6.54-22.32-1.68-7.56-1.44 7.56-6.3 22.32h-4.74l-9.6-30.6-3.18-.72zm67.74 31.5q-6.96 0-10.71-4.77-3.75-4.77-3.75-12.69 0-5.1 1.98-9.06 1.98-3.96 5.49-6.15 3.51-2.19 7.89-2.19 5.34 0 8.31 3.06 2.97 3.06 3.21 8.82 0 3.72-.36 5.28h-21.36q0 6.3 2.85 10.29 2.85 3.99 8.01 3.99 2.52 0 5.16-.9t4.08-2.16l.96 2.22q-1.74 1.8-5.07 3.03-3.33 1.23-6.69 1.23zm-9.24-20.52h16.26q.18-1.26.18-2.64-.06-3.96-1.89-6.3-1.83-2.34-5.61-2.34-8.22 0-8.94 11.28zm27.42 11.1q0-5.82 5.76-8.43 5.76-2.61 14.34-2.79v-1.86q0-3.06-.63-4.83t-2.19-2.58q-1.56-.81-4.38-.81-3.06 0-5.55.93-2.49.93-4.83 2.25l-1.32-2.64q.66-.6 2.76-1.68 2.1-1.08 4.8-1.92 2.7-.84 5.22-.84 4.08 0 6.45 1.14t3.42 3.66q1.05 2.52 1.05 6.78v19.8h3.72v2.22q-3.3.9-5.58.9-1.44 0-1.98-.45t-.54-2.07V51.8q-2.16 1.92-4.71 3.39-2.55 1.47-5.79 1.47-4.32 0-7.17-2.4-2.85-2.4-2.85-7.02zm11.82 5.88q1.68 0 4.02-1.08t4.26-2.58V38.84q-7.26.06-11.01 2.16t-3.75 5.64q0 3.42 1.74 4.95 1.74 1.53 4.74 1.53zm31.62 3.54q-3.18 0-4.8-1.47-1.62-1.47-1.62-5.25v-23.7h-4.56V23.9q3-.66 3.48-.96.9-.48 1.32-1.86.36-.9.96-3.24.6-2.34.9-3.66h2.76v8.52h10.62v3.54h-10.62v19.44q0 3.48.24 4.89.24 1.41.96 1.83.72.42 2.52.42 1.74 0 3.9-.48t3.24-1.02l.78 2.28q-1.38 1.08-4.56 2.07-3.18.99-5.52.99zM325.86 53V10.64l-5.34-.54V7.88l8.88-1.02h.12l1.14.78v14.28l-.12 4.98q1.92-1.74 5.4-3.36 3.48-1.62 6.84-1.62 3.78 0 5.88 1.44t2.94 4.47q.84 3.03.84 8.19v16.92l4.38.48V56h-13.44v-2.58l4.2-.48V35.96q0-3.84-.51-6t-2.01-3.24q-1.5-1.08-4.38-1.08-2.4 0-5.16 1.17-2.76 1.17-4.86 2.79v23.34l4.44.48V56h-13.02v-2.58l3.78-.42zm50.22 3.66q-6.96 0-10.71-4.77-3.75-4.77-3.75-12.69 0-5.1 1.98-9.06 1.98-3.96 5.49-6.15 3.51-2.19 7.89-2.19 5.34 0 8.31 3.06 2.97 3.06 3.21 8.82 0 3.72-.36 5.28h-21.36q0 6.3 2.85 10.29 2.85 3.99 8.01 3.99 2.52 0 5.16-.9t4.08-2.16l.96 2.22q-1.74 1.8-5.07 3.03-3.33 1.23-6.69 1.23zm-9.24-20.52h16.26q.18-1.26.18-2.64-.06-3.96-1.89-6.3-1.83-2.34-5.61-2.34-8.22 0-8.94 11.28zM394.14 56v-2.52l4.8-.36V26.66l-4.62-1.02v-2.7l7.62-.96h.12l1.14.96v.96l-.12 4.56h.12q.12-.12 1.59-1.83 1.47-1.71 4.38-3.27t5.85-1.56q.96 0 1.8.24v5.28q-.24-.18-1.05-.36t-1.71-.18q-3.42 0-5.82 1.02-2.4 1.02-4.44 2.52v22.74l7.98.48V56h-17.64zm46.62-3.12V14.66l-5.04-.66v-2.58h15.96V14l-6 .66v38.22l17.1-.48 3.36-9.36 2.88.48L466.8 56h-31.2v-2.58l5.16-.54zM480 16.4q-3.24 0-3.24-3.42 0-1.74 1.02-2.85t2.76-1.11q1.8 0 2.58.99t.78 2.43q0 1.86-.99 2.91t-2.85 1.05H480zm-1.92 36.54V26.66l-4.68-1.02v-2.7l8.22-.96h.12l1.2.96V53l5.22.42V56H472.8v-2.58l5.28-.48zm28.56 19.26q-14.16 0-14.16-9 0-2.7 1.65-4.92 1.65-2.22 3.93-3.48-2.82-1.5-2.82-4.98 0-2.22 1.26-4.17 1.26-1.95 3.24-2.97-2.82-1.32-4.41-3.75-1.59-2.43-1.59-5.67 0-3.48 1.92-6.09t5.01-3.99q3.09-1.38 6.45-1.38 5.58 0 8.94 2.46.9-.84 2.79-1.65 1.89-.81 4.05-.81h1.98v4.44h-6.84q1.74 2.4 1.74 5.82 0 3.54-1.8 6.27-1.8 2.73-4.83 4.23-3.03 1.5-6.69 1.5-2.46 0-4.5-.54-1.08.84-1.71 1.95-.63 1.11-.63 2.25 0 2.28 1.47 3.18 1.47.9 5.13.9h7.08q5.58 0 8.25 2.16t2.67 6.06q0 3.24-2.34 6.03t-6.39 4.47q-4.05 1.68-8.85 1.68zm.42-31.08q7.62 0 7.62-8.4 0-7.98-7.92-7.98t-7.92 7.86q0 3.78 2.04 6.15 2.04 2.37 6.18 2.37zm-.12 28.02q3.24 0 6.18-.93 2.94-.93 4.74-2.7 1.8-1.77 1.8-4.11 0-1.86-.57-3t-2.22-1.77q-1.65-.63-4.77-.63h-7.44q-2.88 0-4.38-.36-2.94 2.82-2.94 6.6 0 3.42 2.16 5.16 2.16 1.74 7.44 1.74zM531.72 53V10.64l-5.34-.54V7.88l8.88-1.02h.12l1.14.78v14.28l-.12 4.98q1.92-1.74 5.4-3.36 3.48-1.62 6.84-1.62 3.78 0 5.88 1.44t2.94 4.47q.84 3.03.84 8.19v16.92l4.38.48V56h-13.44v-2.58l4.2-.48V35.96q0-3.84-.51-6t-2.01-3.24q-1.5-1.08-4.38-1.08-2.4 0-5.16 1.17-2.76 1.17-4.86 2.79v23.34l4.44.48V56h-13.02v-2.58l3.78-.42zm46.02 3.66q-3.18 0-4.8-1.47-1.62-1.47-1.62-5.25v-23.7h-4.56V23.9q3-.66 3.48-.96.9-.48 1.32-1.86.36-.9.96-3.24.6-2.34.9-3.66h2.76v8.52h10.62v3.54h-10.62v19.44q0 3.48.24 4.89.24 1.41.96 1.83.72.42 2.52.42 1.74 0 3.9-.48t3.24-1.02l.78 2.28q-1.38 1.08-4.56 2.07-3.18.99-5.52.99z"/></svg>