<svg viewBox="0 0 742 80" xmlns="http://www.w3.org/2000/svg"><path d="M50.1 44.26q1.62-4.14 4.98-12.42l4.98-12.42H77.7l-.42 3.24-5.16.66-1.14 36.78 5.28.84-.24 3.06h-20.7l.24-3.12 5.52-.78 1.68-25.02.6-11.76-4.2 10.32-12.9 30.42-4.92.48-3.96-30.18-1.68-11.04-2.52 11.34-6.12 25.44 6.6.84-.3 3.06H15.48l.36-3.06 4.74-.84 9.54-36.78-5.7-.66.48-3.24h19.92l3.06 24.84.6 5.04 1.62-5.04zm55.32 13.5q-1.62 2.58-5.16 4.83t-8.52 2.25q-4.44 0-7.32-1.89T80.22 58q-1.32-3.06-1.32-6.6 0-6.12 2.49-11.04 2.49-4.92 6.84-7.71t9.63-2.79q4.92 0 7.26 2.16t2.34 5.58q0 4.38-2.88 7.29t-7.05 4.29q-4.17 1.38-8.25 1.5-.06 4.44 1.41 6.72 1.47 2.28 4.11 2.28 3.06 0 5.13-1.38t3.63-3.48l1.86 2.94zm-9.66-23.82q-3.12 0-4.65 4.02-1.53 4.02-1.83 9.18 1.86-.12 3.96-1.17 2.1-1.05 3.54-3.03 1.44-1.98 1.44-4.62 0-4.38-2.46-4.38zm27.42 4.68q1.08-3.66 3.66-6.18 2.58-2.52 5.94-2.52 1.32 0 2.04.6l-1.98 10.26q-.24-.3-1.14-.66-.9-.36-2.16-.36-1.86 0-3.45.39t-2.43 1.11L120.54 64h-9.24l3.78-28.26-3.12-1.68.48-2.58 9.6-1.56 1.56 1.02-.3 5.52-.12 2.16zm24.96 0q1.08-3.66 3.66-6.18 2.58-2.52 5.94-2.52 1.32 0 2.04.6l-1.98 10.26q-.24-.3-1.14-.66-.9-.36-2.16-.36-1.86 0-3.45.39t-2.43 1.11L145.5 64h-9.24l3.78-28.26-3.12-1.68.48-2.58 9.6-1.56 1.56 1.02-.3 5.52-.12 2.16zm23.58 18.78q-.06.3-.06.78 0 1.44 1.08 1.44.48 0 1.05-.3.57-.3 1.65-1.02l.78 2.04q-1.02 1.38-3.15 2.82t-5.37 1.44q-2.76 0-4.29-1.05-1.53-1.05-1.53-2.73 0-.36.06-.6l1.56-11.82 1.68-12.54-3.36-1.8.48-2.58 11.58-1.56 1.56.72-3.72 26.76zm-.06-32.64q-1.8 0-3.21-1.44t-1.41-3.24q0-2.46 1.68-4.17t4.44-1.71q2.1 0 3.36 1.38 1.26 1.38 1.26 3.18 0 2.64-1.56 4.32-1.56 1.68-4.56 1.68zm10.26 12q-.24-.9-.51-1.26t-.75-.36q-.48 0-.81.12-.33.12-.69.3l-.9-2.22q.36-.48 1.5-1.29 1.14-.81 2.76-1.47 1.62-.66 3.36-.66 2.58 0 3.9 1.02 1.32 1.02 1.62 3l2.34 17.34.72 6.18 2.58-8.22 5.7-19.08h8.58l3.06 22.14.48 4.92 1.44-2.4q2.58-4.02 3.81-7.44 1.23-3.42 1.23-7.02 0-.96-.48-3t-.48-3.18q0-1.8 1.29-3.03 1.29-1.23 3.45-1.23 2.7 0 3.93 1.83t1.23 4.59q0 2.76-2.19 7.26t-5.25 9q-3.06 4.5-5.46 7.26l-3.66 4.38-6.42.3-1.74-10.92-.9-8.04-.42-4.44-1.2 4.44-2.4 6.48-4.86 12.06-7.74.48-2.34-10.98-3.78-16.86zm76.32 21q-1.62 2.58-5.16 4.83t-8.52 2.25q-4.44 0-7.32-1.89t-4.2-4.95q-1.32-3.06-1.32-6.6 0-6.12 2.49-11.04 2.49-4.92 6.84-7.71t9.63-2.79q4.92 0 7.26 2.16t2.34 5.58q0 4.38-2.88 7.29t-7.05 4.29q-4.17 1.38-8.25 1.5-.06 4.44 1.41 6.72 1.47 2.28 4.11 2.28 3.06 0 5.13-1.38t3.63-3.48l1.86 2.94zm-9.66-23.82q-3.12 0-4.65 4.02-1.53 4.02-1.83 9.18 1.86-.12 3.96-1.17 2.1-1.05 3.54-3.03 1.44-1.98 1.44-4.62 0-4.38-2.46-4.38zM291 57.4q-.06.3-.06.78 0 1.44 1.2 1.44 1.02 0 2.64-1.32l.84 2.04q-.84 1.32-3 2.79t-5.1 1.47q-2.16 0-3.48-.9-1.32-.9-1.44-2.58v-.36q-3.72 3.84-8.94 3.84-5.22 0-7.8-3.48t-2.58-8.88q0-5.82 2.31-10.95 2.31-5.13 6.87-8.25 4.56-3.12 10.92-3.12 1.56 0 3.51.39 1.95.39 3.39.87l4.5-1.26L291 57.4zm-6.24-23.22q-1.32-.24-2.04-.24-3.36 0-5.49 2.7-2.13 2.7-3.03 6.78-.9 4.08-.9 8.46 0 3.6 1.17 5.64 1.17 2.04 3.21 2.04 1.92 0 3.84-1.8l3.24-23.58zm25.38 18.48q-.06.6-.12 1.02-.06.42-.12.72-.24 1.92-.24 2.28 0 2.4 2.22 2.4 1.26 0 2.61-.39 1.35-.39 2.37-1.29l.72 2.28q-1.74 1.92-4.71 3.42-2.97 1.5-7.11 1.5-2.46 0-4.05-1.23-1.59-1.23-1.59-4.05 0-1.14.78-6.84l2.34-17.1h-3.54l.72-3.18 3.6-1.38q1.92-1.62 4.68-8.28h5.46l-1.02 8.16h6.72l-.66 4.68h-6.72l-2.34 17.28zm23.16-15.42q2.04-3.36 4.95-5.34t6.33-1.98q7.8 0 7.8 8.88 0 2.28-1.5 10.38l-.42 2.46q-.84 4.68-.84 6.36 0 1.62 1.14 1.62.48 0 1.05-.27.57-.27 1.59-1.05l.84 2.04q-1.02 1.38-3.18 2.82t-5.46 1.44q-3.54 0-4.74-1.32-1.2-1.32-1.2-3.6 0-1.62 1.02-6.72l.36-1.92q1.32-7.5 1.32-10.86 0-2.58-.54-3.54t-1.8-.96q-1.8 0-3.9 2.22-2.1 2.22-3.6 5.4L330 64h-9.54l5.22-43.44-3.72-1.26.48-2.4 11.88-1.26 1.5.84-2.52 20.76zm51.24 20.52q-1.62 2.58-5.16 4.83t-8.52 2.25q-4.44 0-7.32-1.89t-4.2-4.95q-1.32-3.06-1.32-6.6 0-6.12 2.49-11.04 2.49-4.92 6.84-7.71t9.63-2.79q4.92 0 7.26 2.16t2.34 5.58q0 4.38-2.88 7.29t-7.05 4.29q-4.17 1.38-8.25 1.5-.06 4.44 1.41 6.72 1.47 2.28 4.11 2.28 3.06 0 5.13-1.38t3.63-3.48l1.86 2.94zm-9.66-23.82q-3.12 0-4.65 4.02-1.53 4.02-1.83 9.18 1.86-.12 3.96-1.17 2.1-1.05 3.54-3.03 1.44-1.98 1.44-4.62 0-4.38-2.46-4.38zm27.42 4.68q1.08-3.66 3.66-6.18 2.58-2.52 5.94-2.52 1.32 0 2.04.6l-1.98 10.26q-.24-.3-1.14-.66-.9-.36-2.16-.36-1.86 0-3.45.39t-2.43 1.11L399.66 64h-9.24l3.78-28.26-3.12-1.68.48-2.58 9.6-1.56 1.56 1.02-.3 5.52-.12 2.16zm39.54-19.2q1.56 0 4.56-.24 3.72-.24 5.88-.24 8.1 0 11.04 2.82 2.94 2.82 2.94 7.38 0 4.5-2.73 7.26t-8.19 4.08q3.24-.06 5.67 1.14 2.43 1.2 3.72 3.27 1.29 2.07 1.29 4.47 0 8.04-5.31 11.64-5.31 3.6-16.05 3.6-1.02 0-2.58-.12t-2.22-.18q-2.82-.3-4.56-.3h-8.58l.24-3.06 4.08-.84 4.92-36.78-4.26-.66.36-3.24h9.78zm1.68 19.5q.78.06 1.35.03.57-.03.99-.03h1.44q4.08 0 6.75-2.22t2.67-6.84q0-3.54-1.71-5.37T450 22.66q-2.76 0-4.32.36l-2.16 15.9zm-2.88 21.3q1.14.3 2.7.51 1.56.21 2.58.21 9.54 0 9.54-9.78 0-4.26-2.01-6.24-2.01-1.98-6.69-1.98-2.34 0-3.78.12l-2.34 17.16zm39.78-2.82q-.06.24-.06.72 0 1.5 1.14 1.5.48 0 1.05-.27.57-.27 1.65-1.05l.78 2.04q-3.12 4.26-8.16 4.26-2.58 0-4.35-.96-1.77-.96-1.83-3 0-.36.24-2.28l5.04-37.8-3.9-1.26.6-2.4 11.76-1.26 1.5.84-5.46 40.92zm35.7 0q-.06.3-.06.78 0 1.44 1.2 1.44 1.02 0 2.64-1.32l.84 2.04q-.84 1.32-3 2.79t-5.1 1.47q-2.16 0-3.48-.9-1.32-.9-1.44-2.58v-.36q-3.72 3.84-8.94 3.84-5.22 0-7.8-3.48t-2.58-8.88q0-5.82 2.31-10.95 2.31-5.13 6.87-8.25 4.56-3.12 10.92-3.12 1.56 0 3.51.39 1.95.39 3.39.87l4.5-1.26-3.78 27.48zm-6.24-23.22q-1.32-.24-2.04-.24-3.36 0-5.49 2.7-2.13 2.7-3.03 6.78-.9 4.08-.9 8.46 0 3.6 1.17 5.64 1.17 2.04 3.21 2.04 1.92 0 3.84-1.8l3.24-23.58zm35.88 6.12q-1.68-2.58-2.94-4.2t-2.1-1.62q-1.62 0-3.24 1.98t-2.67 5.46q-1.05 3.48-1.05 7.74 0 5.1 1.23 7.26t3.99 2.16q2.58 0 4.35-.99 1.77-.99 3.09-2.73l1.86 3q-1.5 2.34-4.92 4.29-3.42 1.95-8.1 1.95-5.34 0-8.34-3.66t-3-10.56q0-5.1 2.13-9.81 2.13-4.71 6.39-7.68 4.26-2.97 10.32-2.97 1.98 0 4.05.3t3.45.84l-2.4 9.3-2.1-.06zm20.64-24.66l1.62.84-6.3 47.52h-9.54l5.7-43.44-3.78-1.26.54-2.4 11.76-1.26zm-2.28 30.48q2.94-1.56 4.77-2.97 1.83-1.41 4.17-4.47 1.56-2.1 1.56-4.8 0-2.16 1.44-3.06 1.44-.9 3.3-.9 1.8 0 2.79 1.08t.99 2.7q0 2.52-1.68 4.68-2.7 3.54-9.06 6.54l5.52 11.1q.72 1.32 1.56 2.01.84.69 1.56.69.6 0 1.62-.36t1.8-.96l.96 2.04q-1.32 1.68-4.02 3.39-2.7 1.71-5.94 1.71-2.4 0-3.75-.9t-2.01-2.58l-5.58-14.94zm25.14-26.7h19.5l-.36 3.24-5.04.66-4.8 36.78 5.1.84-.18 3.06h-19.86l.42-3.06 4.38-.84 4.8-36.78-4.26-.66.3-3.24zm30.36 33.24q-.06.6-.12 1.02-.06.42-.12.72-.24 1.92-.24 2.28 0 2.4 2.22 2.4 1.26 0 2.61-.39 1.35-.39 2.37-1.29l.72 2.28q-1.74 1.92-4.71 3.42-2.97 1.5-7.11 1.5-2.46 0-4.05-1.23-1.59-1.23-1.59-4.05 0-1.14.78-6.84l2.34-17.1h-3.54l.72-3.18 3.6-1.38q1.92-1.62 4.68-8.28h5.46l-1.02 8.16h6.72l-.66 4.68h-6.72l-2.34 17.28zm37.62 4.74q-.06.3-.06.78 0 1.44 1.2 1.44 1.02 0 2.64-1.32l.84 2.04q-.84 1.32-3 2.79t-5.1 1.47q-2.16 0-3.48-.9-1.32-.9-1.44-2.58v-.36q-3.72 3.84-8.94 3.84-5.22 0-7.8-3.48t-2.58-8.88q0-5.82 2.31-10.95 2.31-5.13 6.87-8.25 4.56-3.12 10.92-3.12 1.56 0 3.51.39 1.95.39 3.39.87l4.5-1.26-3.78 27.48zM651 34.18q-1.32-.24-2.04-.24-3.36 0-5.49 2.7-2.13 2.7-3.03 6.78-.9 4.08-.9 8.46 0 3.6 1.17 5.64 1.17 2.04 3.21 2.04 1.92 0 3.84-1.8L651 34.18zm24.66 23.22q-.06.24-.06.72 0 1.5 1.14 1.5.48 0 1.05-.27.57-.27 1.65-1.05l.78 2.04q-3.12 4.26-8.16 4.26-2.58 0-4.35-.96-1.77-.96-1.83-3 0-.36.24-2.28l5.04-37.8-3.9-1.26.6-2.4 11.76-1.26 1.5.84-5.46 40.92zm19.32 0q-.06.3-.06.78 0 1.44 1.08 1.44.48 0 1.05-.3.57-.3 1.65-1.02l.78 2.04q-1.02 1.38-3.15 2.82t-5.37 1.44q-2.76 0-4.29-1.05-1.53-1.05-1.53-2.73 0-.36.06-.6l1.56-11.82 1.68-12.54-3.36-1.8.48-2.58 11.58-1.56 1.56.72-3.72 26.76zm-.06-32.64q-1.8 0-3.21-1.44t-1.41-3.24q0-2.46 1.68-4.17t4.44-1.71q2.1 0 3.36 1.38 1.26 1.38 1.26 3.18 0 2.64-1.56 4.32-1.56 1.68-4.56 1.68zM725.1 40.3q-1.68-2.58-2.94-4.2t-2.1-1.62q-1.62 0-3.24 1.98t-2.67 5.46q-1.05 3.48-1.05 7.74 0 5.1 1.23 7.26t3.99 2.16q2.58 0 4.35-.99 1.77-.99 3.09-2.73l1.86 3q-1.5 2.34-4.92 4.29-3.42 1.95-8.1 1.95-5.34 0-8.34-3.66t-3-10.56q0-5.1 2.13-9.81 2.13-4.71 6.39-7.68 4.26-2.97 10.32-2.97 1.98 0 4.05.3t3.45.84l-2.4 9.3-2.1-.06z"/></svg>