<svg viewBox="0 0 546 80" xmlns="http://www.w3.org/2000/svg"><path d="M31.94 48.32q4.92-.9 9.39-.9 4.47 0 8.19.78 1.26-2.4 1.26-4.2 0-3.78-4.98-3.78-4.26 0-7.95 2.31-3.69 2.31-5.91 5.79zm2.88 13.62q2.22.84 5.52.84 8.7 0 18.42-8.52-2.88-3.24-7.86-4.8-2.1 3.78-6.36 7.2-4.26 3.42-9.72 5.28zm-6-6.72q0-2.94 1.62-5.94-6 1.5-9.6 4.29-3.6 2.79-3.6 5.37 0 1.8 1.95 2.91t5.64 1.11q3.69 0 7.47-1.14-3.48-2.28-3.48-6.6zm20.28-6.3q-3.9-.9-8.37-.9-4.47 0-9.27 1.02-1.74 3-1.74 6 0 4.32 3.78 6.36 5.04-1.86 9.24-5.34 4.2-3.48 6.36-7.14zm43.26 14.82q4.68 0 8.79-2.85 4.11-2.85 6.21-6.39 2.1-3.54 2.1-6.24 0-3.42-3-3.42-3.18 0-6.66 2.97t-5.79 7.35q-2.31 4.38-2.31 8.22v.3q.18.06.66.06zM54.8 29.54l.06 1.02h.84q5.4 0 10.41-1.53t8.31-3.81q3.3-2.28 5.25-4.83 1.95-2.55 1.95-4.59t-1.71-3.21q-1.71-1.17-5.07-1.17-5.1 0-9.84 3t-7.47 7.2q-2.73 4.2-2.73 7.92zM64.58 2.3l.18.72q-9.36 1.32-15.63 7.11-6.27 5.79-6.27 11.67 0 3.48 2.52 5.79t7.56 2.85q-.12-1.08-.12-1.68 0-3 1.68-6.21t4.56-5.94q2.88-2.73 7.2-4.5t8.55-1.77q4.23 0 6.06 1.35 1.83 1.35 1.83 3.69t-1.98 5.07q-1.98 2.73-5.4 5.19-3.42 2.46-8.73 4.08-5.31 1.62-11.25 1.62h-.36q1.32 5.1 8.82 5.1 3.84 0 9.18-2.28t10.98-6.96l.36.48q-1.8 1.56-4.56 3.45-2.76 1.89-7.56 3.93t-8.7 2.04q-8.64 0-10.32-5.82-5.58-.42-8.43-2.94-2.85-2.52-2.85-6.3 0-6.06 6.39-12.06 6.39-6 16.29-7.68zm37.86 69.48q1.92 0 4.08-.72l.48.3q-1.86 1.02-5.4 1.02-5.34 0-7.95-2.25-2.61-2.25-2.79-6.03-2.46-.6-4.02-2.73-1.56-2.13-1.56-4.92t1.38-5.91q1.38-3.12 3.33-5.94 1.95-2.82 5.19-6.36 3.24-3.54 5.7-6t6.24-5.76q5.16-4.56 10.14-8.64l-.12-.12Q98.9 28.82 72.08 57.68l-3.36 4.38q-.3.18-.54.18-.24 0-.24-.36l.72-1.26 6-9.48q5.82-9.72 8.16-13.5Q91.04 24.26 98 17.96q-1.02 0-5.52 4.2l-1.5 1.44q-20.46 21.06-30.6 30.18 3.06 3.24 3.06 6.96 0 4.62-4.89 8.43-4.89 3.81-14.43 5.25v-.66q8.34-1.32 12.78-5.01 4.44-3.69 4.44-8.19 0-3-2.1-5.76-4.86 4.2-9.48 6.48-4.62 2.28-9.24 2.28t-7.14-1.2q-4.38 1.26-8.64 1.26-4.26 0-6.54-1.35-2.28-1.35-2.28-3.45 0-2.88 3.96-5.85Q23.84 50 30.86 48.5q2.34-3.9 6.51-6.51t9.15-2.61q3.06 0 4.56 1.29 1.5 1.29 1.5 3.45t-1.26 4.56q5.46 1.62 8.52 4.62.48-.48 3.3-3.06t10.05-9.78q7.23-7.2 12.21-12.3l4.92-5.04q7.68-7.5 13.14-8.7.66 0 .66.33t-.36.45q-2.76.84-5.16 3.69-2.4 2.85-5.82 7.83-3.42 4.98-5.22 7.92L77.24 51.02q0 .06.18.06l.78-.6q11.4-12 21.15-20.49 9.75-8.49 20.67-14.85 2.34-1.56 2.67-1.56.33 0 .33.36t-.12.48q-.12.12-2.55 2.04-2.43 1.92-4.47 3.78-2.04 1.86-3.6 3.3-1.56 1.44-5.16 4.98-3.6 3.54-5.85 5.97-2.25 2.43-5.31 6.06-3.06 3.63-4.8 6.39-4.32 6.84-4.32 11.22 0 2.7 2.04 4.44.84.72 1.98.96 0-4.14 2.4-8.73 2.4-4.59 6.21-7.77 3.81-3.18 7.53-3.18 2.1 0 3.39 1.29t1.29 3.63q0 2.34-1.47 5.01t-3.93 5.01q-2.46 2.34-6.09 3.93-3.63 1.59-7.53 1.59l-.9-.06q.66 7.5 10.68 7.5zm11.82-9.3q4.32 0 8.4-4.32v-.06q0-2.88 2.76-5.4-.18-.66-1.02-.66-4.44 0-7.86 3.33t-3.42 5.85q0 1.26 1.14 1.26zm9.3-11.34q3.18 0 3.18 2.1 0 1.8-2.22 4.32v.48q0 1.98 1.74 1.98 1.08 0 2.4-.9l2.94-1.92.12.9-2.76 1.74q-1.92 1.26-3.75 1.26t-2.43-1.86q-4.8 4.26-9.12 4.26-2.58 0-2.58-2.46 0-3.12 3.66-6.51 3.66-3.39 8.82-3.39zm18.36.06q1.26 0 1.26 1.35t-1.92 3.93q6.84-4.74 10.98-4.74 1.62 0 1.62 1.38t-1.2 2.85q-1.2 1.47-2.64 2.55-3.84 2.76-3.84 3.48 0 .42.69.42t2.31-.72q1.62-.72 2.88-1.47 1.26-.75 3.03-1.86 1.77-1.11 1.89-1.17l.12.9q-8.1 5.4-11.34 5.4-1.56 0-1.56-1.5 0-1.02 1.29-2.43 1.29-1.41 2.79-2.61 4.14-3.12 4.14-4.14 0-.3-.66-.3-2.22 0-6.6 2.4-4.38 2.4-9.72 7.8-.36.36-1.35.36-.99 0-.99-.54 0-.18 4.14-4.44 4.14-4.26 4.14-5.52 0-.3-.39-.3t-1.62.78q-1.23.78-3.78 2.49-2.55 1.71-4.35 2.85l-.18-.84q.9-.6 2.46-1.68t2.58-1.77q1.02-.69 2.22-1.47 2.34-1.44 3.6-1.44zm24.78-1.26q.24-.36.57-.36.33 0 .33.36t-.36.72q-.36.36-.51 2.19-.15 1.83-.93 4.44-.78 2.61-2.7 4.71 0 .12.24.12.42 0 3.06-1.44l.84-.42q2.28-1.26 4.86-3.06l.12.9q-9.36 6.06-14.34 6.06-1.98 0-2.91-.84-.93-.84-.93-1.86t.48-1.65q.48-.63 1.2-.63.9 0 .9.96 0 .6-.96 1.08-.3.18-.3.6t.69.99q.69.57 1.47.57 2.64 0 4.53-3.33 1.89-3.33 2.43-6.63v-.18q-5.82 3.96-7.86 5.16l-.18-.84q9.78-6.3 10.26-7.62zm17.64-3.78q0 .84-.96 1.62-.96.78-1.77.78t-.81-.66q0-.66.96-1.53t1.77-.87q.81 0 .81.66zm-5.1 6.48q-8.1 7.32-8.1 9.18 0 .6.81.6t2.43-.72q1.62-.72 2.88-1.47 1.26-.75 3.03-1.86 1.77-1.11 1.89-1.17l.12.9q-2.76 1.8-6.3 3.6t-5.37 1.8q-1.83 0-1.83-1.5 0-1.26 2.16-3.81t4.32-4.47l2.16-1.92q.3-.24 1.14-.18.84.06.84.6 0 .24-.18.42zm15.24-.72q0-.48-.96-.48t-3.9 1.83q-2.94 1.83-4.98 3.93 4.02-.66 6.93-2.43t2.91-2.85zm-11.76 8.46q0 1.74 2.4 1.74 4.56 0 11.34-4.92l.12.9q-7.08 4.98-12.12 4.98-3.6 0-3.6-3t4.47-6.24q4.47-3.24 9.21-3.24 1.5 0 1.5.9 0 1.44-3.33 3.45-3.33 2.01-8.73 2.97-1.26 1.44-1.26 2.46zm19.74-9q.3-.24 1.62-.12.66.12.66.27 0 .15-.3.51t-2.88 2.88q-5.34 5.22-5.34 6.54 0 .3.36.3 2.04 0 14.82-8.64l1.62-1.32q.3-.24 1.14-.18.84.06.84.6 0 .24-.18.42-8.4 7.56-8.4 9.12 0 .66.96.66t2.58-.72q1.62-.72 2.88-1.47 1.26-.75 3.03-1.86 1.77-1.11 1.89-1.17l.12.9q-2.76 1.8-6.3 3.6t-5.37 1.8q-1.83 0-1.83-1.5 0-2.1 3.24-5.46-9.42 6.12-11.64 6.12-1.32 0-1.32-1.56 0-3.3 7.8-9.72zm23.4 2.1l2.82-.36q.72 0 1.14.48.42.48.42 1.14 0 1.32-1.86 2.88-1.86 1.56-3.69 2.94-1.83 1.38-1.83 2.22 0 .48.78.48 2.58 0 7.86-3 2.28-1.26 4.86-3.06l.12.9q-2.04 1.32-4.56 2.7-1.44.9-4.2 2.07-2.76 1.17-4.56 1.17-1.8 0-1.8-1.62 0-1.86 1.92-3.51 1.92-1.65 3.81-2.76 1.89-1.11 1.89-1.71 0-.18-.42-.18l-3.36.3q-.96 0-1.74-.18-2.88 2.04-6.06 4.02l-.18-.84 5.7-3.96q.06-1.14 1.44-2.28t2.34-1.14q.96 0 .96.51t-1.14 1.29q-1.14.78-1.14 1.14 0 .36.48.36zm31.32 10.32q7.92 0 16.02-4.2-14.94-4.08-18.42-4.08-3.48 0-5.01.96-1.53.96-1.53 2.61t2.43 3.18q2.43 1.53 6.51 1.53zm31.38-2.1q8.7 1.86 13.53 1.86t8.25-1.59q3.42-1.59 3.42-3.57 0-1.44-2.1-2.43-2.1-.99-6.12-.99-6.36 0-10.68 1.86-4.32 1.86-6.3 4.86zm27.72-38.94q-4.08 3.78-10.05 10.23-5.97 6.45-8.73 9.27.6.06 1.86.06 4.92 0 10.65-2.52t10.14-6q4.41-3.48 7.38-7.23 2.97-3.75 2.97-6.21 0-2.94-4.26-2.94t-9.96 5.34zm-4.68-8.4q0-4.02-6.54-4.02-3.6 0-7.41 1.71t-6.51 4.47q-2.7 2.76-4.38 6.12-1.68 3.36-1.98 6.66 1.56.12 2.52.12 4.98 0 9.66-1.56t7.8-3.87q3.12-2.31 4.98-4.92 1.86-2.61 1.86-4.71zm-34.74 44.58q4.38 1.08 10.44 2.52 1.98-3.24 6.75-5.25t12.09-2.01q4.32 0 6.87 1.32t2.55 3.18q0 2.28-3.87 4.02-3.87 1.74-10.08 1.74t-13.83-1.44q-.6 1.44-.6 3.12 0 3.9 3.81 6.69 3.81 2.79 10.59 2.79l.24.48q-1.08.12-1.62.12-6.42 0-10.29-3.09-3.87-3.09-3.87-7.29 0-1.62.6-3-5.94-1.26-11.88-2.82-9.12 4.56-18.18 4.56-4.5 0-7.32-1.77-2.82-1.77-2.82-3.75t2.16-3.21q2.16-1.23 6.45-1.23t20.13 3.9q8.28-4.8 18.78-15.72-5.22-1.14-7.86-4.59-2.64-3.45-2.64-8.19v-.12q-4.92-.54-7.29-2.82t-2.37-5.64q0-5.7 5.88-11.67t13.98-7.59l.18.54q-8.1 1.68-13.62 7.23-5.52 5.55-5.52 10.95 0 3.18 2.16 5.37t6.6 2.91q.18-3.6 1.86-7.11 1.68-3.51 4.47-6.42t7.05-4.71q4.26-1.8 8.52-1.8 7.8 0 7.8 4.86 0 2.34-1.98 5.13t-5.31 5.22q-3.33 2.43-8.4 4.08t-10.65 1.65q-1.44 0-2.1-.06v.6q0 4.26 2.49 7.29 2.49 3.03 7.59 3.99 1.92-1.98 5.67-6.06t5.7-6.12q1.95-2.04 5.13-5.04 3.18-3 5.34-4.44 5.7-3.72 10.14-3.72 5.7 0 5.7 3.78 0 2.76-3.09 6.72t-7.77 7.56q-4.68 3.6-10.95 6.15-6.27 2.55-11.97 2.55-1.44 0-2.1-.06-10.74 10.74-19.74 15.72zm43.8 3.18q2.28 0 6.09-2.31t6.36-4.47q2.55-2.16 2.55-2.52 0-.36-.87-.6t-2.37-.24q-1.5 0-3.96 1.17t-4.26 2.79q-1.8 1.62-3 3.18T320 61.4q0 .72.66.72zm16.08-10.08q1.2-.96 1.32-.96 1.62.18 1.68.27.06.09.06.21t-.48.75q-.48.63-2.82 2.97-5.82 5.7-5.82 6.9 0 .48.42.48 2.88 0 10.8-5.46l.12.9q-7.98 5.22-11.28 5.22-1.62 0-1.62-1.53t1.86-3.99q-7.08 5.22-11.04 5.28-1.44 0-1.44-1.74 0-3.12 3.99-6.66t10.53-3.54q2.16 0 3.72.9zm20.31 7.02q-4.05 0-4.05 1.68t3.09 3.27q3.09 1.59 7.92 1.59t10.53-2.76q-1.5-.36-5.58-1.56-7.86-2.22-11.91-2.22zm24.03-24.24q0 3.48 5.4 3.48 2.76 0 6.24-1.56 3.48-1.56 6.6-4.08 3.12-2.52 5.25-6.3t2.13-7.74q0-1.26-.3-2.46-4.68.72-9.45 2.94-4.77 2.22-8.16 4.98-3.39 2.76-5.55 5.7-2.16 2.94-2.16 5.04zm-1.98 27.72q3.72.72 6.36.72 5.4 0 10.83-1.62t9.93-4.35q4.5-2.73 8.43-6.33 3.93-3.6 6.63-7.44 5.82-8.4 5.82-15.36 0-3.72-1.8-6.54-6.66 5.1-21.48 20.82-5.1 5.34-11.91 11.1-6.81 5.76-12.81 9zm17.4-52.92q-6.18 0-13.98 3.3-7.8 3.3-11.76 7.26l-.78-.48q5.46-4.68 13.14-7.86 7.68-3.18 13.92-3.18 8.52 0 10.32 6.18 1.92-.18 3.84-.18 9.36 0 14.1 5.22 7.5-4.62 13.8-4.62 3.78 0 5.94 1.68 2.16 1.68 2.16 4.17T445.25 26q-1.95 2.4-5.73 4.14l-.12-.66q3-1.2 4.83-3.54t1.83-4.65q0-2.31-1.95-3.78-1.95-1.47-5.85-1.47-5.4 0-12.06 4.92 2.64 3.72 2.64 8.52 0 4.8-1.89 9.54-1.89 4.74-5.73 9.24-3.84 4.5-9.06 8.07-5.22 3.57-12.51 5.76t-15.39 2.19q-3.3 0-7.02-.78-7.74 3.72-15.12 3.72-4.44 0-7.59-1.95-3.15-1.95-3.15-4.05 0-1.38 1.53-2.22 1.53-.84 4.47-.84 2.94 0 5.82.54 2.88.54 7.41 1.77t5.73 1.53q5.52-3 12.21-8.82 6.69-5.82 12-11.4t11.97-11.76q6.66-6.18 11.82-9.54-4.2-4.68-13.8-4.68-1.5 0-2.94.18.18.9.18 1.98 0 4.38-2.28 8.52t-5.64 6.96q-3.36 2.82-7.11 4.5-3.75 1.68-6.63 1.68t-4.32-1.41q-1.44-1.41-1.44-3.9t1.71-5.52q1.71-3.03 4.8-5.91 3.09-2.88 8.16-5.07 5.07-2.19 11.07-2.85-1.92-5.34-9.6-5.34zm25.44 52.86q4.32 0 8.4-4.32v-.06q0-2.88 2.76-5.4-.18-.66-1.02-.66-4.44 0-7.86 3.33t-3.42 5.85q0 1.26 1.14 1.26zm9.3-11.34q3.18 0 3.18 2.1 0 1.8-2.22 4.32v.48q0 1.98 1.74 1.98 1.08 0 2.4-.9l2.94-1.92.12.9-2.76 1.74q-1.92 1.26-3.75 1.26t-2.43-1.86q-4.8 4.26-9.12 4.26-2.58 0-2.58-2.46 0-3.12 3.66-6.51 3.66-3.39 8.82-3.39zm14.04.24q.3-.24 1.62-.12.66.12.66.27 0 .15-.3.51t-2.88 2.88q-5.34 5.22-5.34 6.54 0 .3.36.3 2.04 0 14.82-8.64l1.62-1.32q.3-.24 1.14-.18.84.06.84.6 0 .24-.18.42-8.4 7.56-8.4 9.12 0 .66.96.66t2.58-.72q1.62-.72 2.88-1.47 1.26-.75 3.03-1.86 1.77-1.11 1.89-1.17l.12.9q-2.76 1.8-6.3 3.6t-5.37 1.8q-1.83 0-1.83-1.5 0-2.1 3.24-5.46-9.42 6.12-11.64 6.12-1.32 0-1.32-1.56 0-3.3 7.8-9.72zm50.64-24q-3 0-14.04 9.66T464 54.8q7.98-5.46 20.1-15.39 12.12-9.93 12.12-11.85 0-.18-.3-.18zM462.2 57.02q-2.4 3.18-2.4 4.29 0 1.11 1.02 1.11 2.82 0 10.32-5.22l.12.9q-7.98 5.22-11.28 5.22-1.62 0-1.62-1.5 0-3.3 7.71-11.91t17.04-15.96q9.33-7.35 13.23-7.35.72 0 .72.54 0 1.44-2.91 4.53-2.91 3.09-7.83 7.05t-9.18 7.2q-4.26 3.24-9.24 6.87t-5.7 4.23zm9.24 5.1q2.28 0 6.09-2.31t6.36-4.47q2.55-2.16 2.55-2.52 0-.36-.87-.6t-2.37-.24q-1.5 0-3.96 1.17t-4.26 2.79q-1.8 1.62-3 3.18t-1.2 2.28q0 .72.66.72zm16.08-10.08q1.2-.96 1.32-.96 1.62.18 1.68.27.06.09.06.21t-.48.75q-.48.63-2.82 2.97-5.82 5.7-5.82 6.9 0 .48.42.48 2.88 0 10.8-5.46l.12.9q-7.98 5.22-11.28 5.22-1.62 0-1.62-1.53t1.86-3.99q-7.08 5.22-11.04 5.28-1.44 0-1.44-1.74 0-3.12 3.99-6.66t10.53-3.54q2.16 0 3.72.9zm17.4-5.88q0 .84-.96 1.62-.96.78-1.77.78t-.81-.66q0-.66.96-1.53t1.77-.87q.81 0 .81.66zm-5.1 6.48q-8.1 7.32-8.1 9.18 0 .6.81.6t2.43-.72q1.62-.72 2.88-1.47 1.26-.75 3.03-1.86 1.77-1.11 1.89-1.17l.12.9q-2.76 1.8-6.3 3.6t-5.37 1.8q-1.83 0-1.83-1.5 0-1.26 2.16-3.81t4.32-4.47l2.16-1.92q.3-.24 1.14-.18.84.06.84.6 0 .24-.18.42zm12.66-2.7q.24-.36.57-.36.33 0 .33.36t-.36.72q-.36.36-.51 2.19-.15 1.83-.93 4.44-.78 2.61-2.7 4.71 0 .12.24.12.42 0 3.06-1.44l.84-.42q2.28-1.26 4.86-3.06l.12.9q-9.36 6.06-14.34 6.06-1.98 0-2.91-.84-.93-.84-.93-1.86t.48-1.65q.48-.63 1.2-.63.9 0 .9.96 0 .6-.96 1.08-.3.18-.3.6t.69.99q.69.57 1.47.57 2.64 0 4.53-3.33 1.89-3.33 2.43-6.63v-.18q-5.82 3.96-7.86 5.16l-.18-.84q9.78-6.3 10.26-7.62zm17.7 1.98q0-.48-.96-.48t-3.9 1.83q-2.94 1.83-4.98 3.93 4.02-.66 6.93-2.43t2.91-2.85zm-11.76 8.46q0 1.74 2.4 1.74 4.56 0 11.34-4.92l.12.9q-7.08 4.98-12.12 4.98-3.6 0-3.6-3t4.47-6.24q4.47-3.24 9.21-3.24 1.5 0 1.5.9 0 1.44-3.33 3.45-3.33 2.01-8.73 2.97-1.26 1.44-1.26 2.46z"/></svg>