<?xml version="1.0" encoding="utf-8"?>
<!-- Generator: Adobe Illustrator 24.0.0, SVG Export Plug-In . SVG Version: 6.00 Build 0)  -->
<svg version="1.1" id="图层_1" xmlns="http://www.w3.org/2000/svg" xmlns:xlink="http://www.w3.org/1999/xlink" x="0px" y="0px"
	 viewBox="0 0 496.1 80" style="enable-background:new 0 0 496.1 80;" xml:space="preserve">
<path d="M40.7,13.6L40.7,13.6h0.6c4.8,1.8,7.3,3,7.3,3.6l0,0c0,0.4-0.9,1.8-2.7,4.1l0,0v0.5c1.3-0.2,2.3-0.3,3-0.2l0,0
	c3.4,0.2,5.1,0.5,5.1,1l0,0c0,2.4-1.4,3.5-4.2,3.4l0,0c-5.2,0.3-7.8,0.8-7.8,1.6l0,0c-0.7,1.6-1.5,2.8-2.5,3.7l0,0v0.5l-0.5,0
	c6.5-0.7,12.2-1.5,17-2.4l0,0c5.6,1.4,8.3,3.1,8.3,5.1l0,0c1.3,0.9,2,1.5,2,1.8l0,0C65.4,38,65,39.8,65,41.7l0,0v0.7
	c0,0.2-0.1,0.3-0.4,0.3l0,0c0,0.1,0.1,0.1,0.4,0.1l0,0L64.6,44l-0.1,1.1c0,0.5,0.1,0.8,0.3,0.8l0,0l-0.3,1l-0.1,5.6
	c-0.1,3.3-2.1,7.1-6.1,11.3l0,0l-2.2,1.4h-1.4c-3.3-3.8-5.6-6.8-7-9.1l0,0c0.2-0.2,0.2-0.5,0.2-0.7l0,0c-0.4,0-0.6-0.2-0.6-0.6l0,0
	V54c4,0.9,6.2,1.3,6.7,1.3l0,0c1.2,0,2-5.6,2.4-16.8l0,0V38c0-3.2-0.3-4.8-0.9-4.8l0,0l-3.4-0.3c-3.2,0.3-5,0.4-5.4,0.4l0,0
	c1.4,1.3,2.1,2,2.1,2.2l0,0c-0.1,0.5-1.3,1.6-3.7,3.4l0,0h-0.4c0.2,0,0.5-0.1,0.8-0.2l0,0c1.7,0,3,0.7,3.8,2l0,0v0.1
	c0,1-2.7,2-8.1,2.9l0,0c0.5,0.7,0.7,1.1,0.7,1.2l0,0L41.7,46c3.8-1,6.1-1.5,6.7-1.5l0,0l1.7,0.1c0.8,0,1.5,0.7,2.3,2.2l0,0l-0.1,0.8
	c0,1-3.5,1.6-10.6,1.9l0,0c0,0.2-0.2,0.3-0.5,0.3l0,0l-0.1,4.3C40.7,58,39.5,60,37.6,60l0,0l-1.1-0.1c-1.5-0.6-2.2-2.8-2.2-6.6l0,0
	l0.1-2.4c-0.7,0-2.9,0.8-6.7,2.5l0,0c-2.7-1.2-4.2-2.3-4.6-3.2l0,0h1.1L24.1,53c-0.3,4.2-1,6.2-1.9,6.2l0,0c-0.2,1.3-1,1.8-1.9,1.8
	l0,0h-0.7c-1-0.6-2.5-2.1-4.5-4.7l0,0v-0.2c1-2.5,1.9-5.8,2.5-10l0,0l0.1-2.2c0.1-4.1-0.7-7.4-2.4-9.9l0,0v0.2
	c0.8-0.6,1.6-0.8,2.3-0.7l0,0l0.4,0.1c0-0.5,0.6-0.8,1.8-0.8l0,0c0.5,0,1.2,0.3,2.1,1l0,0c8.2-0.8,12.4-1.4,12.4-1.7l0,0
	c0.6-1.7,1-2.7,1-3.2l0,0h0.8L32,29.6l-2.2-0.1c-1.9-0.8-3.2-2.1-3.9-3.7l0,0c0.6-0.6,4.1-1.2,10.7-1.9l0,0c0.8-3.5,1.3-5.9,1.3-7.3
	l0,0L37,14.2c0.8-0.3,1.4-0.4,1.9-0.4l0,0l0.4,0.1C39.4,13.7,39.8,13.6,40.7,13.6z M44.9,16.5L44.9,16.5c-0.4,0.6-0.7,1.1-0.7,1.5
	l0,0c-0.8,0-0.9-0.3-0.4-0.8l0,0C43.8,16.6,44.2,16.4,44.9,16.5z M29.4,26.6L29.4,26.6v-0.4c0,0.4,0.6,1.1,1.7,2l0,0
	c1.3,0,2.7-0.4,4.3-1.2l0,0h0.4L33,27.2C30.6,26.7,29.4,26.6,29.4,26.6z M35.4,35.3L35.4,35.3v0.5c0,0.2,0.3,1.3,0.8,3.2l0,0
	l-3.1,2.2L30.8,41l0,0c0.2-0.4,0.3-0.7,0.3-0.9l0,0c-0.4,0-1.3-1.2-2.6-3.7l0,0c-1.8,0.4-2.9,0.8-3.4,1.1l0,0
	c-0.4,7.1-0.6,11-0.6,11.8l0,0c0.2,0.3-0.6,3.9-2.3,10.8l0,0c0.6-7.3,4.2-11.4,11-12.2l0,0c0-0.2,0.5-0.3,1.4-0.5l0,0l-0.2-1.8V45
	H35l-6.2,1.1L27.5,46c-1.1,0-1.6-0.3-1.7-0.8l0,0l0.4-0.7l-0.4-0.7c0-1.2,3.1-2,9.2-2.4l0,0c1.8-0.4,2.8-0.7,2.8-0.9l0,0
	c1-2,1.5-4.1,1.6-6.4l0,0h0.7C37,34.5,35.4,34.9,35.4,35.3z M63,35.9L63,35.9c-0.2,0.6-0.4,0.8-0.4,0.7l0,0l-0.2,0.1l0,0l-0.1,0.1
	v-0.7C62.4,35.8,62.6,35.7,63,35.9z M44.9,37.6L44.9,37.6c-0.7,0-0.5-0.5,0.7-1.6l0,0c0-0.5,0.1-0.7,0.3-0.7l0,0
	C45.9,35.4,45.5,36.1,44.9,37.6z M24,35.7L24,35.7c0,0.2-0.1,0.4-0.4,0.4l0,0h0.9c-0.2,0-0.1-0.2,0.2-0.5l0,0
	C24,35.6,23.8,35.7,24,35.7z M20.7,36.1h1.6v0.4h-1.6V36.1z M21.6,38l0.7,0.1v0.4c0,1.2,0,3,0.2,5.4l0,0h-0.4l0.4,0.6l-0.1,2.3
	l0.2,1.3h-0.3c0,0.1,0.1,0.1,0.3,0.1l0,0c-0.2,0.9-0.3,1.5-0.3,1.9l0,0c0,0.2,0,0.3,0.2,0.3l0,0l-0.3,1.1v1.6H21l0.1-8
	c0-0.4,0.1-0.5,0.3-0.5l0,0c0,0-0.1,0-0.2-0.1l0,0l0.2-1L21.6,38z M29.3,44.1L29.3,44.1v0.5h0.9c-0.2,0-0.3-0.1-0.3-0.4l0,0
	C29.7,44.2,29.5,44.2,29.3,44.1z M61.1,44.7h1.5c0,0.9-0.2,1.5-0.4,1.7l0,0c0.2,0.6,0.3,1.9,0.3,3.9l0,0H61c0-0.6,0.2-1,0.4-1l0,0
	L61,48.7L61.1,44.7z M39.3,44.9h1.1c-0.2,0.8-0.2,1.2-0.2,1.4l0,0v0.6l-1.6-0.4C38.6,46.3,38.8,45.8,39.3,44.9L39.3,44.9z
	 M60.6,51.1h1.5c0.2,0.6,0.2,1.4,0.2,2.2l0,0h-1.5l0.1-1.6C60.7,51.3,60.6,51.1,60.6,51.1L60.6,51.1z M29.9,50.8l-1.8,0.1v0.4
	c-0.2,0-0.1,0.1,0.2,0.2l0,0c0.6-0.1,0.9-0.3,1-0.7l0,0H29.9z M17.2,55.6h1.4v0.8c0.1,0.3-0.3,0.4-1.2,0.2l0,0v-0.5
	C17.3,55.8,17.2,55.6,17.2,55.6L17.2,55.6z M56.9,60.8h1.3c0,0.8-0.8,1.4-2.3,1.8l0,0c0.3,0.5,0.5,0.7,0.5,0.7l0,0h-0.7
	c0.8-0.4,1.2-1.2,1.3-2.3l0,0L56.9,60.8L56.9,60.8z"/>
<path d="M84.7,14.1V14h1.4c0.8,0,1.9,0.2,3.2,0.7l0,0c-0.3,0,0-0.1,0.9-0.3l0,0C94.1,16,96,16.9,96,17l0,0l0,0
	c-1.8,1.4-2.6,3.7-2.6,6.7l0,0c-0.2,0-0.3,0.3-0.3,1l0,0v3.6c1.7-0.6,3.3-1,4.8-1l0,0c0,0.3,0.2,0.5,0.5,0.5l0,0
	c-1,3.8-2.4,5.8-4.1,5.8l0,0C93.2,33.2,92.7,33,93,33l0,0c-0.3,0.5-0.4,1.4-0.4,2.6l0,0V36c0.9,0.5,2.6,1,5,1.7l0,0v0.7
	c0,2.5-1.7,3.7-5.2,3.7l0,0c0-0.4-0.4-0.9-1.2-1.5l0,0h1.1c-0.5,1.6-0.7,4.5-0.7,8.6l0,0h-0.4l0.4,0.6c0,0.1-0.1,0.2-0.4,0.2l0,0
	l0.4,0.6c0.4,6.6,0.5,10.3,0.5,10.9l0,0c-0.3,1.2-0.9,1.8-2,1.8l0,0h-0.9c-1-0.9-2.5-1.8-4.5-2.7l0,0c0-0.2-0.3-0.9-1-2.2l0,0
	c1.6-7.1,2.3-12.5,2.3-16.3l0,0l0.8,0.4c-3.7,5.2-7.2,7.8-10.4,7.8l0,0c0,0.2-0.6,0.2-1.7,0.2l0,0h-0.2c-1,0-1.4-0.2-1.4-0.5l0,0
	v-0.1c7.4-8.5,11.2-13.4,11.2-14.8l0,0l-6.7,2.3c-2.1-2.3-3.1-3.5-3.1-3.5l0,0c0.6-0.9,3.5-1.7,8.5-2.4l0,0c2.2-0.7,3.3-1.1,3.4-1.1
	l0,0v-5.3C86.3,19.6,85.7,15.9,84.7,14.1L84.7,14.1z M105.1,14.4L105.1,14.4c2.3,0.3,4.4,1.1,6.5,2.4l0,0c1.1,0.6,1.7,1,1.7,1.1l0,0
	v0.2c-2.2,1.9-4.8,5.1-7.7,9.5l0,0h-0.3c2.7,0,7.2-0.8,13.5-2.5l0,0c1.8,0.4,4.6,1.5,8.5,3.5l0,0l1.4,0.4v0.4
	c-1.6,1.5-2.4,4.2-2.4,8l0,0l0.3,0.4c-1.2,8.5-2.4,15.2-3.4,20.1l0,0c-1.6,3.1-3.8,5.1-6.5,6.1l0,0l-3.1,1.1l-1-1.2v-1.6
	c0-2.5-1.1-4.6-3.2-6.2l0,0l-0.2-1c0.2,0,0.2-0.2,0.2-0.7l0,0c1.7,0.6,3.4,1,4.9,1.1l0,0c1.4,0,2.4-1.3,2.8-4l0,0
	c0.3-1.3,0.7-3.3,1.1-5.9l0,0c0-0.2-0.1-0.2-0.2-0.2l0,0l0.2-1.7V32.2c-0.1-2.4-0.4-3.7-0.8-3.7l0,0c-7.1,1.6-10.7,2.8-10.7,3.6l0,0
	l-3.4,0.5c0-0.7-0.4-1.1-1.1-1.4l0,0c-1.8,2.1-3.1,3.3-4.1,3.7l0,0c-2.2-0.3-3.2-0.5-3.2-0.6l0,0c2.9-2.6,5.7-7.7,8.5-15.4l0,0V15
	C103.2,14.6,103.9,14.4,105.1,14.4z M91,20.6L91,20.6v0.8c0,0.4-0.2,0.4-0.7,0.2l0,0c0-1.3,0.5-2.6,1.6-4l0,0c0-0.5-0.1-0.8-0.2-0.8
	l0,0h0.1C91.7,16.8,91.5,18,91,20.6z M108,21.7L108,21.7v0.4h-1.6c0-0.2,0.9-1.4,2.7-3.4l0,0V18h0.8C109.6,18.2,109,19.5,108,21.7z
	 M95,29.1h1.3v0.4C95.4,29.5,95,29.3,95,29.1L95,29.1z M124.7,29.6L124.7,29.6c-0.6,0.7-0.8,2.4-0.8,5l0,0c-0.5,0-0.2-1.6,0.9-4.8
	l0,0h0.1C124.6,29.7,124.6,29.6,124.7,29.6z M104.2,29.8L104.2,29.8c0.3,0.6,0.5,0.8,0.6,0.8l0,0c1.1-0.6,1.6-1,1.6-1l0,0v-0.1h0.8
	C106.1,29.8,105.1,29.8,104.2,29.8z M94.7,31.6L94.7,31.6c0,0.2-0.1,0.4-0.4,0.4l0,0c-0.3,0-0.4-0.1-0.4-0.4l0,0v-0.2H95
	C94.7,31.5,94.6,31.6,94.7,31.6z M100.8,33.4l1.1-0.5c2.6,0,4.9,0.9,6.7,2.6l0,0c-0.4,1.1-2.1,4.2-5.2,9.2l0,0h-0.7l6.2-0.9
	c-1.3-2-2-3.3-2-4l0,0c0-0.1,0.5-0.5,1.6-1l0,0c1.3,0,3.8,0.7,7.6,2.2l0,0c0.6,0,1,0.3,1.3,0.8l0,0c-1.8,4.4-3.3,6.7-4.6,6.7l0,0
	h-1.1c-1.2-1.1-1.9-1.8-1.9-2.2l0,0c-5.7,1.4-8.6,2.5-8.6,3.1l0,0l-2.1,1h-1.3C96.6,49,96,47.9,96,46.9l0,0c0-0.7,0.8-1.9,2.3-3.6
	l0,0c1.3-1.8,2.2-4.5,2.7-8l0,0C100.9,34.5,100.8,33.8,100.8,33.4L100.8,33.4z M77.7,34.3L77.7,34.3V34c0,0.4,0.4,0.9,1.2,1.4l0,0
	c1.2-0.4,1.7-0.8,1.7-1.1l0,0h-0.4C78.6,34.3,77.7,34.3,77.7,34.3z M85.5,40.3L85.5,40.3l0.4,0.7c-0.1,0.4-0.7,1.1-1.7,2.3l0,0h-1
	l2.8-4.4V38C86.9,37.9,86.7,38.7,85.5,40.3z M94.5,38.7h0.8c0.2,0.6-0.1,0.8-1,0.8l0,0c0,0,0.1-0.3,0.4-0.8l0,0H94.5z M112.4,41.4
	L112.4,41.4c1.1,1.4,1.6,2.1,1.4,2.1l0,0h-0.7l0.3-1.4C112.7,41.7,112.3,41.4,112.4,41.4z M87,59.4L87,59.4l0.8,0.4v-0.3
	c0.3,0.6,0.4,1,0.3,1l0,0c0-0.3,0.1-0.5,0.4-0.5l0,0l-0.4-0.6c0-0.1,0.1-0.1,0.3-0.1l0,0c-0.2-0.7-0.3-0.4-0.3,0.8l0,0
	C88.4,59.7,88,59.4,87,59.4z M115.6,62.3L115.6,62.3c-0.6-0.3-0.6-0.4-0.2-0.4l0,0l0.2,1.1c1.4,0,2.3-0.5,2.7-1.4l0,0
	c-0.2,0.2-0.8,0.3-2,0.3l0,0C116.4,61.9,116.2,62,115.6,62.3z"/>
<path d="M167.3,13.3L167.3,13.3c4,0.6,7.1,1.8,9.4,3.4l0,0l0,0c0,0.4-0.7,2.2-2,5.5l0,0h-0.5c3.2,0.4,4.7,1.1,4.7,2.1l0,0v0.4
	c-1.6,2-3,3.1-4,3.1l0,0c-0.5,0-1.1-0.1-2-0.4l0,0c-0.4,1.4-0.9,2.8-1.7,4.1l0,0l-0.1,0.5l-0.2-0.1c3.2,0.1,7.7-0.4,13.6-1.4l0,0
	c3.1,0.3,4.7,0.8,4.6,1.5l0,0l-0.1,1.5c-0.8,2.5-1.8,4-2.8,4.4l0,0l-1.7-0.1c-1.2-0.7-3.4-1.3-6.8-1.9l0,0c0.7,0.2,1,0.4,1,0.5l0,0
	l-2.4-0.5l-8-0.3c-0.8,0-2,0-3.5,0.1l0,0c1.1,1,1.8,1.9,2.2,2.7l0,0c1.5-0.3,2.9-0.5,4.1-0.4l0,0c2.8,0.1,5.6,1.3,8.2,3.8l0,0
	c0,0.6-2.7,4.9-8.1,12.8l0,0c5.2,1.8,8.2,3.4,8.9,4.7l0,0l-0.1,1.9c-0.7,2.9-1.6,4.4-2.9,4.4l0,0l-0.2-0.1c-0.1,0-0.4,0.1-1,0.1l0,0
	c-1.9-0.7-5-4.1-9.5-10.1l0,0v-0.1l0.4-0.8c1.3,0,1.9,0,1.9,0.1l0,0l-0.3,0.1v-0.4c0-0.9,0.2-1.4,0.4-1.3l0,0
	c-4.8,0.2-8.9,0.6-12.3,1.1l0,0c0,0.6,0.8,1.5,2.6,2.5l0,0c0.2,0.3,0.2,0.4,0.2,0.4l0,0c-0.9,1.7-4.7,3.8-11.3,6.2l0,0h-1.5
	l-3.4,0.2v-0.1c5.6-3.4,8.7-6.5,9.1-9.2l0,0v-0.3c-1.2,0-2.4-3.4-3.5-10l0,0l-1.6-2.6l0.1-0.3c0-0.5,0.6-0.7,1.7-0.7l0,0
	c3.2,0.1,6.6-0.2,10.2-0.8l0,0l0.1-0.5c0-0.5-0.1-1.3-0.3-2.3l0,0c-9.4,1.2-15.2,2.3-17.4,3.5l0,0c-0.6,0.7-1.7,1-3.4,0.9l0,0
	c-1.9-2.2-2.8-3.5-2.8-4.1l0,0l1.8-1c1.8,2.3,2.4,3.5,1.8,3.5l0,0c2-1,3.1-1.5,3.3-1.5l0,0v-0.1c-2.8-0.1-4.6-1-5.5-2.6l0,0
	c2-0.3,8.1-0.9,18.1-1.6l0,0c0.8-0.1,1.3-0.3,1.3-0.6l0,0c0-0.5-0.1-1.7-0.4-3.6l0,0c0.2,0,0.3,0,0.3,0l0,0
	c-2.3,0.3-4.1,0.9-5.5,1.9l0,0l-1.1-0.1c-1.2,0-1.9-1.2-1.9-3.7l0,0l0.1-0.3c0-0.9,2.5-1.5,7.6-1.8l0,0v-0.1c0.2,0,0.2-0.1,0.2-0.3
	l0,0c0.1-2-0.6-4.5-2-7.5l0,0l0,0c0-0.4,0.5-0.7,1.4-0.7l0,0l1.3,0.1c3.4,0.1,5.7,1,6.8,2.8l0,0c-0.6,1.3-1.1,2.9-1.3,4.7l0,0
	c0.3,0,0.5,0.1,0.5,0.1l0,0c3-0.4,4.5-1,4.5-1.7l0,0c0.2-1.8,0.3-3.3,0.4-4.3l0,0l0.1-1.1c0-0.6-0.2-1.7-0.7-3.2l0,0
	C167.1,14.1,167.3,13.8,167.3,13.3z M173.4,16.8l0.4,0.2c-0.5,0.8-1.4,2.6-2.5,5.3l0,0v0.6c-0.2,0,0.1-0.8,1-2.2l0,0
	C172.9,18.9,173.3,17.6,173.4,16.8L173.4,16.8z M160.5,19.5h0.6l-0.2,1.1l-0.1,1.9h-1.6c0-0.8,0.3-1.6,0.8-2.3l0,0
	C160.1,19.7,160.2,19.5,160.5,19.5L160.5,19.5z M159,22.9h1.6l-0.1,0.9h-1.6L159,22.9z M174.1,25.8L174.1,25.8L174.1,25.8l1.1,0.3
	c-0.4,0-0.5-0.2-0.3-0.7l0,0h0.5C174.1,25.5,173.7,25.6,174.1,25.8z M169.1,27h1.6v0.4H169L169.1,27z M161.6,28.2L161.6,28.2
	l-0.2,4.5l0.2,0.3c2.7,0.1,4.1-0.4,4.1-1.5l0,0l0.4-4.3C166.4,27.1,164.9,27.5,161.6,28.2z M150.8,27.7L150.8,27.7
	c0.2,0.9,0.3,1.4,0.3,1.3l0,0l1.7-0.5V28C152.2,28,151.6,27.9,150.8,27.7z M170,28.8L170,28.8h-1.3v-0.3
	C169.6,28.3,170.1,28.4,170,28.8z M184.5,34.2h-0.1c-3.6-0.1-6.4-0.1-8.3,0.1l0,0v0.2c3.9,0.1,6.9,0.6,9.2,1.4l0,0l0.5-1.1V34
	c0.6,0,0.7,0.1,0.3,0.4l0,0C185,34.2,184.5,34.1,184.5,34.2L184.5,34.2z M164.5,38.2L164.5,38.2l-0.1,0.8h-1v-1.2h0.8
	C164.4,37.8,164.5,37.9,164.5,38.2z M165.6,43.8L165.6,43.8h0.8c1.5,0.1,2.6,0.8,3.2,2l0,0c0.2,0,0.4,0.1,0.4,0.3l0,0v0.5
	c0,0.8-1.7,1.4-5.1,1.7l0,0l-0.3,1.5c0,0,0,0.1-0.1,0.1l0,0c1.2,0,2.4-0.2,3.7-0.6l0,0c0.4,0.3,0.7,0.5,0.8,0.5l0,0
	c-0.2,0,0.2-2.2,1.2-6.7l0,0l0.1-1.2c0-0.5-0.7-0.9-2-1.1l0,0C166.5,40.7,165.6,41.7,165.6,43.8z M175.7,42.7L175.7,42.7l0.3,1.7
	C175.2,44.4,175.1,43.8,175.7,42.7L175.7,42.7l0.1-0.5c0-0.3,0.1-0.5,0.4-0.5l0,0C176.5,41.7,176.3,42,175.7,42.7z M155,43L155,43
	l0.3,1.6l-0.1,0.7l3.9-0.8c0-0.8,0.2-1.2,0.5-1.2l0,0c-0.3-0.3-0.4-0.8-0.4-1.5l0,0C159.4,41.8,158,42.2,155,43z M155.9,49.3
	L155.9,49.3l-0.1,1.8c2.3-0.1,3.5-0.5,3.5-1.1l0,0l0.1-0.8c0-0.3,0.2-0.4,0.5-0.4l0,0C158.5,49.1,157.2,49.3,155.9,49.3z M168,51.4
	L168,51.4v0.2h-0.8c0.3-0.2,0.4-0.3,0.3-0.3l0,0v-0.1h1.1C168.2,51.4,168.1,51.4,168,51.4z M155.3,57.8L155.3,57.8l0.4-0.2v-0.4h1
	C155.8,57.6,155.4,57.8,155.3,57.8z M176,58.8L176,58.8c1.6,1.6,2.4,2.7,2.3,3.3l0,0h-1.6l0.2-1.1l0.1-0.6
	C177.1,59.6,176.7,59.1,176,58.8z"/>
<path d="M213.9,14.5l0.3-0.6c3.2,0,6.7,1.3,10.6,3.9l0,0c-0.2,0.9-0.4,3.2-0.8,6.9l0,0h-0.6c1,0,2.9-0.6,5.8-1.7l0,0
	c4.2,0.8,6.7,1.7,7.3,2.6l0,0l4.5,1.6V28c-6.5,7.9-10.1,12-10.8,12.1l0,0h-0.8c-1,0-1.5-0.2-1.5-0.7l0,0c-4.3,0.4-6.5,0.8-6.5,1.1
	l0,0c-0.2,1.2-0.5,2-1,2.6l0,0l0.4,0.8c0,0-0.6,0.4-1.8,1.1l0,0v0.6c4.4,0.7,7.3,1.7,8.6,3.1l0,0c0,1.1-1.2,2.7-3.7,4.8l0,0
	c-3.4,0-6.5-2.4-9.5-7.1l0,0v-0.1c0-0.3,0.6-0.6,1.9-1l0,0l-0.7-3.6h0.4l-0.2-0.4l0.4-0.7H216c-4.8,0.6-7.6,1-8.4,1l0,0
	c0-0.4,0.4-0.5,1.2-0.5l0,0c0,0.5-0.5,0.8-1.6,0.8l0,0c-1.2-0.2-3.2-3.9-5.9-11.1l0,0c-1.4-1.4-2-2.4-2-3.1l0,0v-0.4
	c0.4,0,0.6-0.1,0.6-0.4l0,0c4.3,0.4,6.5,0.7,6.8,0.8l0,0l9-1.6C215.6,20.7,215.1,16.8,213.9,14.5L213.9,14.5z M221.3,18h0.6v1
	c0,0.3-0.1,0.4-0.3,0.4l0,0H221v-1C221,18.2,221.1,18,221.3,18L221.3,18z M228.2,27.6l-2.7,0.7v-0.4c-1.8,0.2-2.7,0.8-2.7,1.7l0,0
	c0,0-0.2,1.3-0.6,3.8l0,0v2.5l-0.4,0.7h-0.7c4.3-0.5,6.4-1.2,6.4-2.3l0,0c0.6-3.3,0.8-5.5,0.8-6.6l0,0L228.2,27.6z M237,27.9h-0.1
	c-2.3,2-4,4.7-5.2,7.9l0,0h-1l6.3-7.3V27.9z M210.3,33.2v0.6c0.2,1.5,0.3,2.4,0.3,2.6l0,0h-0.3l0.5,1.6l4.9-0.8v-7.4h0.6
	C212.3,29.8,210.3,31,210.3,33.2L210.3,33.2z M207,32.2h1.2v0.7c-0.8,0-1.2-0.1-1.2-0.4l0,0V32.2z M233.6,42.1L233.6,42.1
	c9,0.9,14.1,2.4,15.1,4.4l0,0c0,1.2-1,2.8-2.9,4.9l0,0h-1.1c-2.6-0.3-7-2.9-13.3-7.9l0,0C231.4,42.5,232.1,42.1,233.6,42.1z
	 M244.7,46.2L244.7,46.2c0.8,1.1,1.3,1.8,1.3,2l0,0c-0.8,0-1.1-0.2-0.9-0.6l0,0v-0.7C245,46.4,244.9,46.2,244.7,46.2z M199.4,45.7
	L199.4,45.7c2.3,1.2,3.5,2.6,3.5,4.3l0,0c-0.4,6.8-1.7,10.7-3.8,11.5l0,0c-4-1.2-6-2.4-6-3.6l0,0c0-2,1.1-5,3.2-9l0,0
	C197,46.8,198,45.7,199.4,45.7z M223.2,48.3L223.2,48.3c1.1,1,1.7,1.6,1.7,1.7l0,0h-1.2c0,0,0.2-0.3,0.5-0.8l0,0
	C223.2,48.5,222.9,48.3,223.2,48.3z M206.4,48.6L206.4,48.6h0.6c1,0,1.8,1,2.5,3l0,0c3.4,4.2,6.4,6.2,8.9,6.2l0,0
	c0,0.6,4.1,1,12.2,1.3l0,0c0,0,0-0.3,0-1l0,0c0-0.6-0.2-2-0.6-4.3l0,0h1.8c1.6,0,4.6,2.2,9.2,6.6l0,0c0.7,0,1.3,0.4,1.8,1.3l0,0
	v-0.1c-1.6,2.3-7,3.4-16.4,3.4l0,0h-0.6c-8.8,0-14.7-2.7-17.9-8l0,0c-0.8-1-1.8-3.6-2.9-7.7l0,0v-0.1
	C205,48.8,205.5,48.6,206.4,48.6z M198.9,54h1.5c0,0.3-0.8,2.1-2.4,5.4l0,0h-0.2c0.8-3,1.1-4.7,1.1-5.2l0,0L198.9,54L198.9,54z"/>
<path d="M284.9,14.3L284.9,14.3c3.8,0.1,6.8,1.7,9.1,4.7l0,0v-0.1c-2.8,1.5-6.4,2.5-10.8,3.2l0,0c0.6,1.3,1.1,2.2,1.5,2.7l0,0
	c-0.1,0.2-0.2,0.4-0.2,0.8l0,0l-0.5-0.1c3.4-0.4,9.6-1.6,18.5-3.6l0,0v-0.2l-0.8,0.4l2.8,0.1c2.2,0,3.4,1.4,3.6,4l0,0l-0.1,1
	c0,1-1,2.4-3.1,4.1l0,0c-2.6-1.4-5.7-2.2-9.2-2.3l0,0l-2.8-0.1c-0.6,0-1,0-1.2-0.1l0,0c-1.6,0.4-4.4,0.7-8.3,1.1l0,0
	c-0.3,0.6-0.5,1.4-0.5,2.5l0,0c0.2,0,0.2,0,0.2,0.1l0,0c2.3-0.2,4.6-0.7,6.9-1.3l0,0c3.3,0.8,5.5,2,6.8,3.8l0,0
	c0,0.2,0.5,0.7,1.6,1.4l0,0c-1,1.2-3.2,4.4-6.7,9.7l0,0l-2.5,2H287c-0.1-1.2-0.1-1.9,0-1.9l0,0l-2.4-0.1l-1.7,0.1l-0.1,3.5l0.1,0.1
	l2.8-0.5c3.6,0.2,5.4,0.6,5.4,1.1l0,0v0.4c-0.8,2.4-1.8,3.5-3.1,3.4l0,0h-0.4c-2.6-0.9-4.1-1.4-4.5-1.4l0,0l-0.5,0.1l-0.1,4.6
	c0,0,1.7-0.2,5-0.5l0,0v0.1c0.6-0.1,4.3-0.3,11.2-0.7l0,0c1.8,0.6,2.7,1,2.6,1.3l0,0v0.8c0,2.1-1.4,3.8-4,5.3l0,0
	c-3-1.1-5.8-2-8.5-2.6l0,0c-0.2,0.1-0.6,0.2-1.1,0.2l0,0c-0.6-0.1-1-0.2-1.2-0.2l0,0c-1.3,0.1-2.1,0.2-2.6,0.4l0,0
	c-1.2-0.2-2-0.4-2.4-0.4l0,0c-11.4,1.4-17.2,2.5-17.2,3.3l0,0h-2.2c-1.6-1.1-2.8-2.3-3.7-3.6l0,0c0,0,0.4-0.3,1.3-0.7l0,0h1.2
	c1.4,1.7,1.9,2.6,1.4,2.6l0,0c0.6-0.4,2.1-0.7,4.6-1l0,0c0-0.4,0.1-0.5,0.3-0.5l0,0c0,0-0.8,0.1-2.4,0.4l0,0c-2.2,0-3.8-0.8-4.9-2.3
	l0,0c0.7-0.4,3-0.7,7-0.9l0,0v-0.2l-0.7,0.3h0.6c6.5-0.3,9.7-0.6,9.8-0.8l0,0c0-0.8,0.1-1.1,0.2-1.1l0,0c0-0.1-0.1-0.1-0.2-0.1l0,0
	l0.3-1.3V54c-4.3,0.5-6.4,1.2-6.5,1.9l0,0H269c-1-0.1-1.6-1-1.7-2.8l0,0c0.7-1.5,3.3-2.2,7.7-2l0,0c1.2,0,1.9-0.6,1.9-1.9l0,0v-0.6
	l-0.1-0.4c0.1-0.2,0.2-0.5,0.2-1l0,0c-0.3,0-0.5-0.1-0.5-0.4l0,0c-1.1,0.2-2.6,0.5-4.4,1.1l0,0c-2.9-1.4-4.4-3-4.3-4.9l0,0
	c-1.2-4.1-2.5-7.1-3.7-9.1l0,0l0,0c0.1-0.4,0.6-0.7,1.4-0.7l0,0h0.5c0.9,0,1.6,0.1,2.2,0.3l0,0c6-0.3,9-0.7,9-1.1l0,0l0.1-2
	l-3.2-0.1c-6.7-0.2-12.2,0.5-16.5,2l0,0H257c-0.6,0-1.8-1.1-3.7-3.4l0,0V29c0.1-0.4,0.6-0.7,1.6-0.7l0,0l1.1,0.1
	c1.3,1.5,1.8,2.3,1.5,2.2l0,0c0.9-0.5,1.5-0.7,1.7-0.7l0,0v-0.6c-1.6,0-2.8-0.7-3.5-1.9l0,0v-0.1c14.5-1,21.7-1.7,21.7-2.1l0,0
	c-0.1-0.4-0.2-1.3-0.4-2.8l0,0c0.2,0,0.2-0.1,0.2-0.4l0,0l-0.2-0.1c-0.9,0.2-3.6,0.4-8,0.7l0,0c-1.4-0.6-2.2-0.9-2.2-1.1l0,0v-0.3
	c0-0.3,3.6-1.5,10.8-3.5l0,0C280.8,16.9,283.2,15.6,284.9,14.3z M285.2,19.6L285.2,19.6c0.2,0,0.6,0.2,1,0.6l0,0
	c-0.2,0,1-0.4,3.5-1.3l0,0v-0.4C286.6,18.9,285.2,19.2,285.2,19.6z M301.1,24.3L301.1,24.3c2.4,0.6,3.9,1.5,4.6,2.8l0,0
	c0,0-0.5,0.2-1.4,0.5l0,0l-5.5-0.1v0.2c2,0,3.9,0.4,5.6,1.1l0,0c0-0.1,0.2-0.8,0.6-2.1l0,0c0.1-2-0.3-3.1-1.1-3.1l0,0
	C302,23.5,301.1,23.7,301.1,24.3z M281.2,24l1,0.7v0.7C281.5,25.5,281.2,25,281.2,24L281.2,24z M296.6,27.4l1,0.1v0.1h-1V27.4z
	 M272.9,34.9L272.9,34.9l-0.1,0.5c0.6-0.1,1.6-0.2,2.8-0.4l0,0l-0.2-0.4C273.7,34.8,272.9,34.9,272.9,34.9z M282.9,35.3L282.9,35.3
	l-0.1,2h0.1c2,0,3.3,0.6,4,1.7l0,0c-0.2,0.5-0.7,1.2-1.4,2.2l0,0l-1.7-0.4c-0.9,0-1.3,0.2-1.3,0.6l0,0l-0.1,1.9v0.1l-0.4,0.1h1.1
	c2.2,0.1,3.3-0.2,3.3-0.7l0,0c1.1-3.4,1.6-5.4,1.7-6.1l0,0l0.1-1.8h0.4C286.7,34.8,284.8,34.9,282.9,35.3z M269.4,35.1l0.9,0.2v-0.1
	c0.2,1,0.1,1.5-0.1,1.4l0,0h-0.5C269.5,35.7,269.4,35.1,269.4,35.1L269.4,35.1z M294.2,37.5L294.2,37.5l0.1,0.1
	c0.2-0.2,0.3-0.6,0.3-1.3l0,0c-0.2-0.4-0.2-0.5-0.2-0.5l0,0h1C295,36,294.6,36.6,294.2,37.5z M273,37.5l-0.3,1.2
	c0.2,0.4,0.3,0.1,0.4-0.8l0,0c-0.6,0.6,0.7,0.6,3.8,0l0,0l0.2-0.4l0.1-1.1C274.5,36.6,273.1,36.9,273,37.5L273,37.5z M273.3,41.1
	L273.3,41.1l-0.1,0.8c0,0.5,0.1,0.9,0.2,1.1l0,0l-0.2,0.5c0.2,0.4,0.2,0.7,0.2,0.9l0,0c2.4-0.1,3.6-0.3,3.7-0.7l0,0l0.1-2.3
	c-0.2,0-0.5-0.1-1.1-0.2l0,0c-0.4,0.2-1,0.2-1.9-0.1l0,0v0.6c0.2-0.1-0.6-0.2-2.2-0.3l0,0C271.9,41.1,272.4,40.9,273.3,41.1z
	 M289.7,43.5h1.3l-0.2,1.2c-0.9,0-1.2-0.2-1-0.5l0,0L289.7,43.5L289.7,43.5z M281.1,47.7L281.1,47.7V48l-1.3-0.1
	C279.8,47.6,280.2,47.6,281.1,47.7z M279.5,48.6h1.6L281,50h-1.6c0,0,0.1-0.2,0.4-0.7l0,0C279.6,48.8,279.5,48.6,279.5,48.6
	L279.5,48.6z M286.9,52L286.9,52c0.2,0.4,0.4,0.7,0.7,0.7l0,0c-0.3,0-0.4-0.2-0.4-0.5l0,0v-0.1C287.3,52.1,287.2,52,286.9,52z
	 M270.4,52.9L270.4,52.9l-0.1,0.8l0,0c0.6-0.2,0.9-0.4,0.8-0.4l0,0l0.1-0.2C271.3,53.1,271,53,270.4,52.9z M279.7,53.1h1.3l-0.1,0.4
	C280.1,53.5,279.7,53.4,279.7,53.1L279.7,53.1z M279.3,54.1h1.6c0,0.4-0.1,0.5-0.2,0.5l0,0c0,0.1,0.1,0.1,0.2,0.1l0,0l-0.3,1.7v1.4
	c-0.9-0.1-1.3-0.3-1.3-0.5l0,0L279.3,54.1z M298.2,58.5L298.2,58.5L298.2,58.5l-0.5-0.5v0.2C297.8,58.2,297.9,58.3,298.2,58.5z
	 M296,61.1L296,61.1v0.7c0.7,0.2,0.8,0.4,0.5,0.4l0,0c0.6-0.7,0.8-1.2,0.8-1.4l0,0l-1.6-0.1C295.9,60.6,296,60.8,296,61.1z"/>
<path d="M344.7,14.1L344.7,14.1h0.4c1.9,0.1,4.2,1.6,6.9,4.5l0,0c-0.1,1.5-1.8,4.5-4.9,9.2l0,0v0.4h-0.7c1.1,0,4.4-1,9.8-3.1l0,0
	l1.7,0.1c2.9,1.5,5.5,3.3,7.6,5.4l0,0V31c-2.6,2.6-4.1,7-4.3,13.4l0,0c-1.4,4.9-3.6,8.3-6.4,10.1l0,0c-0.6,0.3-1.3,0.4-1.9,0.4l0,0
	H352c-0.8-0.5-1.8-2.9-3-7.3l0,0c-1-0.7-1.5-1.1-1.5-1.2l0,0v-1c2.3,0.1,4.1,0.5,5.4,1.1l0,0c1.2,0,2-5.3,2.4-16l0,0
	c-1.7,0.9-5.7,2.1-12.2,3.8l0,0l-0.4-0.2c-1.8,1.7-3.9,2.6-6.4,2.5l0,0c-0.3-0.2-0.8-0.4-1.4-0.4l0,0c0-0.3,1.6-3,4.8-8.2l0,0
	c2.2-4,3.3-8.3,3.5-12.8l0,0v-0.5C343.4,14.3,343.8,14.1,344.7,14.1z M324.2,14.5l1.1-0.5c3.1,0.1,5,0.8,5.8,2.2l0,0
	c1.9,1.5,2.8,2.3,2.8,2.6l0,0c-0.8,2.5-1.7,6-2.6,10.6l0,0l-0.8-0.4c0.4-0.8,0.9-2.2,1.4-4.1l0,0c1.3-0.5,2.7-0.7,4.3-0.6l0,0
	c0,0.4,1.3,1.3,3.8,2.9l0,0c0.1,0.2,0.2,0.5,0.1,0.8l0,0c-0.1,2.8-1.1,4.1-3.2,4l0,0c-0.7,0.6-2.8,1.3-6.2,2.2l0,0l-2.1,14.2
	c4,0.9,5.9,2.3,5.8,4.1l0,0v0.1c-1.1,3.5-2.9,5.3-5.3,5.2l0,0l-0.3-0.5l0.5-0.7v-0.5c-0.8,0-1.6-1.5-2.5-4.4l0,0h1.3
	c-0.2,4.8-2.1,7.6-5.9,8.6l0,0c-2.2,0.6-5.3,2-9.3,4l0,0l-0.4-1c5.3-5,8.5-9.7,9.6-13.9l0,0c0.9-2.2,1.7-5.9,2.5-11.3l0,0
	c0-0.2-0.1-0.3-0.3-0.3l0,0l0.4-1.1c0.1-3.2,0.4-6.2,0.8-9.1l0,0c-0.2-0.4-0.2-0.7-0.2-0.8l0,0h0.3l-0.4-0.7V26
	c0-0.2,0.1-0.4,0.4-0.4l0,0l-0.3-0.7v-1l-0.1-3.5h0.2C325.2,18.9,324.8,16.8,324.2,14.5L324.2,14.5z M330.8,19.3L330.8,19.3
	l-0.9,3.1c0,0.2,0.1,0.4,0.3,0.4l0,0l-0.4,1.4l-0.2,6.1h-1.5c0.1-2.3,0.8-6,2.2-11.3l0,0C330.4,18.9,330.5,19,330.8,19.3z
	 M347.7,21.9L347.7,21.9c0.2,0.4,0.2,1,0.2,1.6l0,0l-1.5-0.3c0-0.1,0.6-1.1,1.7-3.2l0,0l0.1-1.1l0.4,0.1
	C349,18.9,348.7,19.9,347.7,21.9z M332.7,31.7L332.7,31.7h-0.6c3-0.7,4.5-1.8,4.5-3.1l0,0h0.8C336.3,28.8,334.8,29.9,332.7,31.7z
	 M361.3,30.5l0.4,0.3c-0.2,0.3-0.5,1.2-0.9,2.7l0,0v0.3h-1.5c0-0.1,0.6-0.7,1.9-1.6l0,0L361.3,30.5z M340.1,34L340.1,34l-0.1,0.2h-1
	c1.1-1.1,1.7-1.8,1.7-2.2l0,0v-0.2h1.3C340.9,33.3,340.3,34,340.1,34z M343.2,31.9l1.3,0.1v0.4C343.6,32.3,343.2,32.2,343.2,31.9
	L343.2,31.9z M314.9,31.3l1.3-0.6c3.8,1,6.7,2.2,8.6,3.5l0,0c-1.6,5.2-3.4,7.8-5.5,7.8l0,0c-1.8-0.1-3.4-2.9-4.9-8.4l0,0V33l0.7-1
	C315,31.5,314.9,31.3,314.9,31.3L314.9,31.3z M318.9,33.3L318.9,33.3c1.5,1.3,2.4,2.1,2.6,2.5l0,0c-0.2,0.3-0.2,0-0.2-1l0,0v-0.5
	C319.6,33.7,318.8,33.3,318.9,33.3z M345.1,35.6L345.1,35.6c2.1,0,4.2,1,6.1,2.8l0,0v-0.1l-0.3,0.8c0.3,0,0.5,0.4,0.7,1l0,0
	c-1.5,2.4-2.8,4.7-3.9,6.9l0,0c-0.6,1.9-1.3,2.8-2.3,2.8l0,0H345c-1-0.1-1.5-0.4-1.6-1l0,0c-1.7,0.4-2.6,0.8-2.6,1.3l0,0l-0.1,2.6
	c-0.1,3.2,0.8,5.2,2.7,5.9l0,0c0,0.2,0.7,0.4,2,0.7l0,0c-0.5,0-0.8-0.1-0.8-0.4l0,0l2.9,0.5l7.7,0.3c3.6,0.1,6.1-2.1,7.6-6.8l0,0
	l2.5-2.5c1.7,0.5,2.6,2.8,2.7,6.8l0,0c-0.2,1.6-0.3,2.8-0.4,3.8l0,0c0.2,0.4,0.2,0.6,0.2,0.5l0,0c-1.4,1.6-5.3,2.9-11.8,3.7l0,0
	c-2.2-0.1-4,0-5.5,0.4l0,0v-0.5c1,0,1.6,0.1,1.6,0.4l0,0c-11.8-0.4-17.6-3.9-17.4-10.4l0,0l0.5-12.4c-0.2-1.8-0.2-3.5-0.2-5l0,0
	l4.1,0.5C340.8,38.1,342.7,37.2,345.1,35.6z M341.4,42.1L341.4,42.1l0.5,1l-0.5,2.7h-0.7c2.1,0.1,3.2-1.7,3.3-5.2l0,0l0.1-0.6
	C342.6,40.5,341.7,41.2,341.4,42.1z M339.7,39.8l1,0.1v0.5l-0.4-0.1C339.9,40.3,339.7,40.1,339.7,39.8L339.7,39.8z M339.5,43.5
	L339.5,43.5l-0.1,2.5H338c0.4-1.4,0.5-2.3,0.5-2.8l0,0V43h0.7C339.4,42.9,339.5,43.1,339.5,43.5z M357.3,45.9h1.5v0.4h-1.5V45.9z
	 M356.7,50.3L356.7,50.3h-0.9c0.4-0.1,0.5-0.8,0.5-2l0,0C357.2,48.5,357.3,49.1,356.7,50.3z M354.7,51h1.3c-0.6,1-1.3,1.4-2,1.4l0,0
	v0.7h-1.1C353.5,52.7,354.1,52,354.7,51L354.7,51z M322.7,58.3L322.7,58.3h-0.6c0.8,0,1.5-1.7,2.2-5.2l0,0
	C325.3,52.6,324.8,54.4,322.7,58.3z M340.1,59.1L340.1,59.1l0.1-0.7c0.4,0.8,0.7,1.2,0.9,1.3l0,0V60C341.1,60,340.8,59.7,340.1,59.1
	z M360.8,59.5h0.9l-0.2,0.4h-0.9c0.4-0.2,0.4-0.2,0.2-0.2l0,0V59.5z M345.9,61.1l0.5,0.1v0.2l-0.5-0.1V61.1z M348.4,61.3l0.4,0.1
	v0.2l-0.4-0.1V61.3z M351.3,61.5L351.3,61.5l-0.1,0.1l0.1,0.1V61.5z"/>
<path d="M404.1,13.9L404.1,13.9h2.2c3.6,0,6.4,0.8,8.5,2.3l0,0c0,0.4-1.2,1.5-3.6,3.4l0,0c-3,0-5.8-1.5-8.5-4.6l0,0l0,0
	C402.6,14.9,403.1,14.6,404.1,13.9z M386.4,14.2L386.4,14.2h0.2c2.4,0,4.9,1.5,7.4,4.5l0,0c-0.5,1.8-1,4.5-1.3,8.2l0,0h-1.1
	c0.5-0.4,1.6-1,3.3-1.7l0,0c2.6,1.2,3.8,1.9,3.8,2l0,0v1.1c-0.4,1.6-2.4,2.5-5.8,2.5l0,0c-0.5,0-0.7,0.2-0.7,0.5l0,0v3l2,0.2h1.7
	c0.8,0.6,1.1,1,0.8,1l0,0h-0.6c0.2-1.5,0.9-2.3,2-2.3l0,0h0.8c0.7,0.5,1.1,0.8,1.3,0.8l0,0c5.8-0.4,8.7-1,8.7-2l0,0
	c0.6-1.3,1.1-3.1,1.3-5.4l0,0c-0.2-0.4-0.2-0.5-0.2-0.4l0,0l-5,0.5v0.5c1.3,0,2.7,0.7,4.1,2.1l0,0v1.3c-0.4,0.8-1.4,1.6-3.2,2.5l0,0
	h-1.2c-1,0-1.4-0.1-1.4-0.4l0,0c0.2-0.4,0.3-0.7,0.3-1.1l0,0c-1-0.5-1.8-1.9-2.6-4.1l0,0c-1.9,0-2.8-0.9-2.8-2.8l0,0V24l18.8-3.4
	c3.2,0.4,4.7,0.9,4.7,1.3l0,0c0,2.4-1.8,3.6-5.5,3.6l0,0c0,0.2,0.6,0.8,1.7,1.7l0,0c0,0.3-1.8,1.9-5.5,4.8l0,0v0.2l9.2-1.8h0.7
	c1.8,0,3.9,1.4,6.4,4.1l0,0c0,0.8-2.3,2-6.8,3.7l0,0v0.5c1.6,0.2,2.4,0.5,2.4,1l0,0v0.8c0,0.4-0.4,1.2-1.2,2.6l0,0
	c-0.8,0-1.9-0.1-3.5-0.2l0,0c-3.8,0.2-5.8,0.3-6,0.4l0,0l0.7,1l-0.2,1.1l0.9,0.1c0-0.1,0.6-0.2,1.7-0.2l0,0c3.2,2.6,4.7,4.2,4.7,4.6
	l0,0c-1.8,2-3.8,5.4-5.9,10.4l0,0c-2.5,3.3-4.9,4.9-7.3,4.9l0,0h-0.7c-0.7-0.4-1.5-2.4-2.4-6.1l0,0c-1.1-0.3-1.6-0.9-1.6-1.7l0,0
	l0.3-0.7c-0.2,0-0.3,0-0.3-0.1l0,0l1.3-0.6l4.4,1.4c0.9,0,2.1-2.5,3.5-7.4l0,0v-0.6c-0.9-0.6-1.3-1-1.2-1l0,0
	c-7.8,6.9-12.7,10.4-14.7,10.4l0,0c0,0.2-0.4,0.3-1.1,0.3l0,0c-1,0-1.4-0.2-1.4-0.6l0,0v-0.2c6.4-6.2,10.2-10.7,11.5-13.4l0,0h0.8
	c-4.9,1.2-7.7,1.7-8.6,1.7l0,0c-1.4-0.9-2.4-1.9-2.8-2.8l0,0c0.5,0,1.1-0.5,1.7-1.5l0,0c-1.4,0-2-0.5-2-1.4l0,0
	c0.5-0.2,0.5-0.3,0.1-0.3l0,0c-1.4,0-2.8-0.5-4.1-1.6l0,0h1.2l-0.3,1.7v13.5c0,0.5,0.1,0.9,0.3,1.2l0,0c0,0.1-0.1,0.1-0.3,0.1l0,0
	c0,0.3,0.1,0.6,0.3,0.9l0,0c-0.4,3.5-1.3,5.2-2.8,5.2l0,0h-0.8c-1.8,0-3-2.2-3.6-6.5l0,0c0-0.3,0.1-1.2,0.3-2.8l0,0
	c-0.2-0.4-0.3-0.6-0.3-0.7l0,0c0.7,0,1.2-2.8,1.4-8.3l0,0V43c-3.3,4.2-6,6.4-8.3,6.4l0,0c0,0.2-0.9,0.5-2.5,0.7l0,0l-2.3-0.4v0.1
	c6.2-6.9,10-12.8,11.4-17.7l0,0c-0.6,0-2.9,1.1-6.8,3.3l0,0h-1c-2-0.8-3-2.1-3-3.7l0,0c0.4,0,0.9-0.4,1.5-1.1l0,0
	c7.5-1.3,11.3-2.4,11.3-3.1l0,0c0-0.5-0.1-0.9-0.2-1.2l0,0c0-0.1,0.1-0.1,0.2-0.1l0,0l-0.2-1.3v-0.7c0-0.2,0.1-0.3,0.3-0.3l0,0
	l-0.3-0.7v-3.6c0-0.8-0.4-2.5-1.1-4.9l0,0C385,14.4,385.5,14.2,386.4,14.2z M390.4,18.6h1.3l-1.1,5.2c0,0.2,0.1,0.2,0.3,0.2l0,0
	l-0.3,1.8v1.3h-1.3L390.4,18.6z M416.4,23.6L416.4,23.6v0.2h-0.1c1.2-0.1,1.9-0.4,1.9-0.9l0,0h0.8C418.5,23.2,417.6,23.4,416.4,23.6
	z M401.4,25.4L401.4,25.4L401.4,25.4c0,0.3-0.1,0.5-0.3,0.5l0,0h0.5c-0.2,0-0.4-0.1-0.4-0.4l0,0C401.7,25.5,401.7,25.4,401.4,25.4z
	 M414.2,28.6L414.2,28.6h-0.5c-0.2,0,0-0.3,0.5-1l0,0v-0.4C414.9,27.3,414.9,27.7,414.2,28.6z M406,29.3l0.9,0.5v-0.3l0.2,1.1h-1.4
	L406,29.3z M376.4,32.1L376.4,32.1c0.6,1.1,0.7,1.6,0.5,1.6l0,0c0.5,0,1.2-0.5,1.9-1.4l0,0C378.3,32.3,377.5,32.2,376.4,32.1z
	 M411.2,35.5L411.2,35.5c1.5,1.1,2.3,1.6,2.3,1.7l0,0c-0.3,0.7-1.1,1.4-2.3,2.2l0,0h-1c-1.9,0-3.4-0.9-4.6-2.8l0,0h0.7
	c-3.5,0.9-5.3,1.3-5.3,1.3l0,0c-0.1,2.4-0.5,3.7-1,4.1l0,0h-0.4c3.1,0,8.8-1.1,17.1-3.4l0,0c0-0.1,0.6-1.4,1.9-4l0,0v-0.4h0.7
	C418,34.3,415.4,34.7,411.2,35.5z M401.9,35.6h-0.4v0.7h-0.7l1.1-0.1V35.6z M395.1,37.3L395.1,37.3c0.3,0.5,0.4,0.7,0.4,0.7l0,0
	c-0.8,0-1.1-0.6-1-1.9l0,0C395.4,36.1,395.6,36.5,395.1,37.3z M419.3,37.2h1.3v0.1L419.3,37.2L419.3,37.2z M421.2,39.9h1.3
	c0,0.3-0.4,0.4-1.3,0.4l0,0V39.9z M397.5,40.2h1.3c0,0-0.1,0.2-0.3,0.6l0,0h-0.6c-0.2,0-0.4-0.1-0.4-0.4l0,0V40.2z M398.7,44.3
	L398.7,44.3L398.7,44.3c0,0.3,0.1,0.5,0.3,0.6l0,0l0,0l0.6-0.1v-0.3C399.4,44.5,399.1,44.4,398.7,44.3z M417.3,51.9L417.3,51.9v0.7
	c-0.9,0-0.8-0.8,0.4-2.3l0,0v-0.8h0.6C418.4,49.3,418.1,50.2,417.3,51.9z M388.2,56.4h1.5v0.4h-1.5V56.4z M388.3,58h1.2
	c0,0.3-0.2,0.9-0.6,1.6l0,0h-1.2C387.7,59.4,387.9,58.9,388.3,58L388.3,58z M412.5,59.2h1.2c-0.4,1.2-1.1,1.7-2,1.7l0,0h-0.2
	c-0.8,0-1.2,0.2-1.2,0.6l0,0c-0.4,0.3-0.8,0.4-1.2,0.4l0,0c0,1-0.1,1.4-0.2,1.4l0,0C411.3,62,412.5,60.6,412.5,59.2L412.5,59.2z"/>
<path d="M452.3,13.6L452.3,13.6c3.7,1.3,6.9,3.3,9.5,6l0,0v-0.1l-1.6,7c0.2,0.4,0.3,0.6,0.3,0.4l0,0c3.3-1,5.3-1.4,6-1.4l0,0
	c3.3,1.4,5.4,2.6,6.4,3.5l0,0v0.3c-0.9,1.2-2.2,4.2-4,8.8l0,0h-0.6c0.7,0,2.7-0.4,5.9-1.3l0,0c3.1,0.6,6.1,2.9,9.1,6.7l0,0v-0.2
	c-1.1,0.8-3.2,4.4-6.2,10.8l0,0c-2.5,3.6-5.2,5.6-8.2,5.9l0,0c-1.9-1.3-3.5-3.2-4.8-5.8l0,0c-0.2,0-0.7-0.6-1.3-1.8l0,0l0.7-1.3
	c2,0.7,3.9,1.1,5.9,1.3l0,0c1.1,0,2.2-1.9,3.2-5.7l0,0c0.4-1.5,0.5-2.6,0.5-3.4l0,0v-1.1l-0.4-1.3l-1.5,0.4l-0.5-0.3
	c-0.6,0.2-4.3,0.9-11.1,2l0,0l-0.2,0.4v3.1c-0.4,11.8-1.5,17.7-3.2,17.7l0,0c0,0.3-0.5,0.7-1.6,1.2l0,0h-0.7c-1.3,0-2-1.8-2.2-5.5
	l0,0V44.4c-5.6,1.1-9.5,2.3-11.6,3.4l0,0c-2.2-1-3.2-1.3-3.2-0.9l0,0l0.7-0.3h-1.3c-1.6-1.8-2.3-3-2.3-3.8l0,0
	c0.4,0,0.9-0.4,1.6-1.2l0,0h2.3c2,0,6.7-0.5,14-1.4l0,0v-3.5c0-0.3,0.1-0.6,0.4-1l0,0c-0.3-0.4-0.4-0.8-0.4-1l0,0V33
	c0.3-0.2-1-0.1-3.9,0.4l0,0v0.2c-0.5,0.2-1.5,0.4-3,0.4l0,0c-0.5,0-2.1-1.1-4.9-3.2l0,0l0,0c0-0.1,0.4-0.4,1.3-0.8l0,0h1.1
	c1.8,1.4,2.7,2.2,2.6,2.2l0,0h1.1c0.5,0,0.9-0.3,1.3-0.8l0,0h0.6c-0.2,0-0.7,0.2-1.7,0.5l0,0c-2.5-0.5-4.1-1.2-4.9-2.3l0,0
	c0-0.3,0.6-0.4,1.7-0.4l0,0c1.6,0,4.6-0.2,8.8-0.7l0,0v-5.8l-0.2-1.2h0.2c-0.4-2-0.9-4-1.5-6l0,0V15C450.8,15,451.4,14.5,452.3,13.6
	z M458.1,18.4L458.1,18.4l-0.7,2c0,0.2,0.1,0.3,0.2,0.3l0,0c-0.1,1.4-0.3,2.1-0.5,2.1l0,0c0,0.1,0.1,0.1,0.2,0.1l0,0l-0.2,2.5V27h-1
	v-5.2h1.6c0.3-1.1,0.4-1.9,0.4-2.4l0,0C457.4,18.7,457.4,18.4,458.1,18.4z M472.6,19.3L472.6,19.3h0.7c2.2,0,5.3,1.6,9.3,4.7l0,0
	v0.1c-0.8,1.6-3,2.9-6.5,4l0,0c0-0.8-1.6-2.3-4.7-4.6l0,0c-1.6-1.6-2.4-2.5-2.4-2.5l0,0v-0.7c0-0.4,0.5-0.6,1.4-0.6l0,0h0.7l0.2,0.1
	C471.3,19.9,471.8,19.7,472.6,19.3z M478.9,23.5L478.9,23.5L478.9,23.5c0.5,0.7,0.8,1.3,0.8,1.5l0,0h-0.6c-0.3,0-0.5-0.2-0.5-0.7
	l0,0C478.6,23.6,478.7,23.4,478.9,23.5z M459.7,31L459.7,31c0,1.1-0.1,3-0.2,5.5l0,0l0.1,0.4c-0.1,0.2-0.1,0.5-0.1,1l0,0v1.4h-0.7
	c2.4,0,3.6-0.5,3.6-1.4l0,0c0.4-3.7,0.5-6.4,0.5-8.2l0,0c-0.2,0-0.3,0-0.3,0.1l0,0C461.8,30.2,460.8,30.6,459.7,31z M468.9,29.8h1.3
	c0,0.3-0.3,0.8-1,1.4l0,0v0.2C468.5,31.7,468.5,31.1,468.9,29.8L468.9,29.8z M466.8,34.5h1.4l-0.2,0.9c-0.8,0-1.3-0.2-1.3-0.7l0,0
	v-0.2H466.8z M479.9,42.6L479.9,42.6c-0.3,0.5-0.4,1.3-0.4,2.2l0,0l-0.9-0.4l0.6-1.1v-0.5C479.1,42.4,479.4,42.4,479.9,42.6z
	 M438.8,44.4L438.8,44.4c-1.2-0.5-1.5-0.8-1-0.8l0,0c1.1,1.4,1.8,2.1,1.9,2.1l0,0c1.1-0.6,3.3-1.3,6.6-2.3l0,0v-0.1
	C443.2,44.1,440.6,44.4,438.8,44.4z M447.2,43.2h1.3v0.1L447.2,43.2L447.2,43.2z M468.3,54.7L468.3,54.7v0.2c0,0.2,0.5,1.1,1.4,2.7
	l0,0h-1.4v-0.3C467.7,55.6,467.7,54.7,468.3,54.7z M455.3,56.5h1.5v1.6h-1.5V56.5z M455,58.5h1.6v0.4H455V58.5z"/>
</svg>
