<?xml version="1.0" encoding="utf-8"?>
<!-- Generator: Adobe Illustrator 24.0.0, SVG Export Plug-In . SVG Version: 6.00 Build 0)  -->
<svg version="1.1" id="图层_1" xmlns="http://www.w3.org/2000/svg" xmlns:xlink="http://www.w3.org/1999/xlink" x="0px" y="0px"
	 viewBox="0 0 444 80" style="enable-background:new 0 0 444 80;" xml:space="preserve">
<path d="M39.2,18.3L39.2,18.3c0.6,0.6,0.8,1.2,0.8,1.7l0,0l-0.3,1.7l0.6,0.2h2.8l1.7-0.2c0.2,0,0.3,0.1,0.3,0.2l0,0l1.4-0.2h0.6
	c0.2,0,0.2,0.1,0.2,0.2l0,0l0.6-0.2c2.6,0.2,4.9,0.2,6.8,0.2l0,0c0.5,0.3,2.4,0.7,5.6,1.3l0,0l0.8,1.2c-1.8,1-3.3,1.6-4.5,1.7l0,0
	c-5.2-0.7-8.6-1-10.2-1l0,0c-0.2,0-0.4,0.1-0.8,0.3l0,0c-1-0.2-1.9-0.3-2.5-0.3l0,0h-3.7c-1.6,2.2-2.5,3.2-2.8,3.2l0,0
	c-0.3,0-0.7-0.9-1.1-2.7l0,0c-0.4-0.2-0.6-0.2-0.8-0.2l0,0c-3.2,0-8.4,0.7-15.5,2.2l0,0c-0.8-0.2-1.3-0.7-1.7-1.3l0,0V26
	c0.6-1.5,0.9-2.2,1.1-2.2l0,0l1.4-0.2l0.6,0.2c6.3-0.8,9.6-1.3,9.9-1.3l0,0h4.8v-0.2l-0.6-0.7v-0.2C35.4,19.3,36.9,18.3,39.2,18.3z
	 M45.7,30.7L45.7,30.7c0.7,0.3,1.5,0.5,2.3,0.5l0,0h5.1c8.1,1.6,12.1,2.6,12.1,3.2l0,0l0.6,1c-0.4,1.7-0.8,2.8-1.1,3.5l0,0l0.3,0.5
	c-0.2,0.9-0.3,1.6-0.3,2l0,0c0.4,1.1,0.5,1.8,0.5,2.2l0,0c0,5.1-0.7,7.7-2.2,7.7l0,0h-0.3c-0.3,0-0.6-0.7-0.8-2.2l0,0
	c0.2-3,0.4-4.6,0.5-4.9l0,0c-0.4-0.9-0.5-2.6-0.5-5.2l0,0v-0.5c-0.8-1.6-1.1-2.6-1.1-3l0,0h-1.4c-0.4,0-3.4-0.6-9-1.7l0,0
	c-0.9,0-5-0.1-12.5-0.2l0,0C33,33.9,27,35,19.7,36.6l0,0c0.2,0.4,0.3,0.6,0.3,0.8l0,0c0,0.4-0.1,1.7-0.3,3.7l0,0
	c0.4,0.6,0.6,1.1,0.6,1.5l0,0v3.2c0,0.4-0.1,0.7-0.3,1l0,0c0.2,0.3,0.3,0.6,0.3,1l0,0v0.5c-0.7,0.5-1.5,1.5-2.6,2.9l0,0h-0.6
	c-1.3-1.4-2-3.9-2-7.4l0,0c0-0.9,0.6-3.9,1.7-8.9l0,0l-0.2-0.5c0.6-1.2,1.7-1.7,3.1-1.7l0,0l0.9,0.5c3.8-0.3,8.8-1.1,15.2-2.2l0,0
	c0.2,0,0.3,0.1,0.3,0.2l0,0C37.2,31,40.4,30.9,45.7,30.7z M44.6,34.9l2-0.2c0,0.3,0.9,0.5,2.6,0.7l0,0l0.2,0.5v0.5
	c0,0.5-2.2,1.2-6.5,2.2l0,0l-1.4-0.2v-0.5C42.6,37.7,43.7,36.7,44.6,34.9L44.6,34.9z M29,35.9L29,35.9c1.4,0,3.6,0.3,6.8,1l0,0h1.7
	c0.4,0,0.6,0.2,0.6,0.5l0,0c0,0.3-2.8,0.9-8.5,2l0,0H29c-0.3,0-0.9-0.6-1.7-1.7l0,0v-0.3C27.3,37.1,27.9,36.6,29,35.9z M50,39.1
	L50,39.1h0.3c0.3,0,0.6,0.3,0.8,0.8l0,0v0.2c-0.3,1-3,1.6-8.2,1.7l0,0h-0.5c-0.4,0-0.6,0.2-0.6,0.7l0,0l0.3,1.3h1.4
	c1.7,0,2.9,0.1,3.4,0.2l0,0c1.6-0.2,3.1-0.2,4.3-0.2l0,0h4c0.6,0.2,0.8,0.6,0.8,1.4l0,0c0,0.6-1,1.1-3.1,1.5l0,0H41.4L40.9,47
	c0,0.2,0.1,0.2,0.3,0.2l0,0c0,0.2-0.1,0.4-0.3,0.8l0,0c0.2,1.8,0.3,3.4,0.3,4.7l0,0c0,1-0.2,1.5-0.6,1.5l0,0l0.3,0.5
	c-0.6,4-1.3,5.9-2,5.9l0,0c-0.6-0.4-1-2.1-1.4-5.2l0,0h0.3c-0.4-0.7-0.5-1.8-0.5-3.2l0,0V47h-2c-3.4,0-7.6,0.7-12.5,2.2l0,0
	c-0.3,0-0.6-0.2-0.8-0.7l0,0l0.3-1.5L22,46.5c0.3,0,0.6-0.2,0.8-0.7l0,0c0.2,0,0.5,0.1,0.8,0.2l0,0c1.8-0.5,6.3-1.2,13.3-2l0,0
	c-0.4-0.6-0.5-1-0.5-1.3l0,0c0.4-0.2,0.6-0.2,0.8-0.2l0,0v-0.7c-4.9,1-9.2,1.4-12.7,1.4l0,0c-0.3,0-0.6-0.2-0.9-0.7l0,0
	c1-1.2,1.8-2.1,2.6-2.7l0,0h0.5c0.7,0.5,1.6,0.7,2.8,0.7l0,0c3-0.5,6.2-0.9,9.7-1.3l0,0h3.7c0.4,0,0.8,0.1,1.1,0.3l0,0
	C45,39.3,47,39.1,50,39.1z"/>
<path d="M88.2,21l2.3-2.2c0.3,0,0.6,0.5,0.8,1.6l0,0c-0.2,2.1-0.3,3.7-0.3,4.9l0,0v1.8h0.8c1.9,0.4,2.8,0.8,2.8,1.2l0,0v0.9
	c0,0.6-1.3,1.2-4,1.6l0,0c0,0.2-0.1,0.3-0.2,0.3l0,0c0.2,0.4,0.2,0.7,0.2,0.9l0,0c0,0.4-0.3,1.3-0.8,2.5l0,0c0,0.2,0.1,0.3,0.3,0.3
	l0,0c-0.4,5-0.7,7.6-0.8,7.6l0,0l0.5,1.5c-0.7,9.1-1.3,13.7-1.7,13.7l0,0h-0.2c-0.6,0-1.1-1.3-1.7-4l0,0l0.3-1.8
	c0-0.6,0.2-5.2,0.6-13.7l0,0l0.2-1.2C82,43.7,77.4,48,73.6,49.6l0,0c0,0.2-0.1,0.3-0.3,0.3l0,0l-0.5-0.3c0.7-3.6,1.7-5.5,2.8-5.5
	l0,0C82.8,39,86.9,34.4,88,30.4l0,0h-0.3C79.2,31.3,75,32.1,75,32.9l0,0h-0.5c-0.3,0-0.7-0.6-1.1-1.8l0,0c0.6,0,1-0.7,1.4-1.9l0,0
	c0-0.6,2.8-1.1,8.4-1.5l0,0c3.2-0.4,4.8-1,4.8-1.8l0,0l0.5-3.7C88.3,21.9,88.2,21.5,88.2,21L88.2,21z M105.6,18.9L105.6,18.9
	c0.6,0.2,0.8,0.8,0.8,1.9l0,0v0.6c0,0.7-0.6,2.3-1.9,4.9l0,0h0.2l1.4-0.3c0.2,0,0.2,0.1,0.2,0.3l0,0l1.4-0.3h2.2
	c3.2-0.4,5-0.6,5.3-0.6l0,0h3.4c2.4,0.9,4.5,1.8,6.2,2.7l0,0l1.7-0.3l0.5,0.9V29c-1.1,2.6-2,6.3-2.8,11.3l0,0
	c-1.2,5.4-2.6,8.9-4,10.6l0,0c-0.6,2.1-1.9,3.9-3.7,5.5l0,0c-3.1,2.6-5.1,4-5.9,4l0,0l-1.4-0.3l-1.7,0.6l-0.6-1.8c0-1,1.3-1.9,4-2.5
	l0,0c5-4.2,7.6-7,7.6-8.5l0,0c3-3.7,4.5-8.2,4.5-13.7l0,0c0.2,0,0.4-0.6,0.5-1.8l0,0c0-2-0.9-3.1-2.8-3.1l0,0c0-0.3-1.8-0.7-5.3-1.2
	l0,0c-9,0.7-13.5,1.5-13.5,2.5l0,0h-0.5c0-0.3-0.3-0.6-0.8-0.9l0,0c-2.4,1.6-3.8,2.4-4,2.4l0,0l-0.2-0.6v-0.6c0-1.3,1.8-3.3,5.3-6.1
	l0,0C102.9,20.8,104.1,18.9,105.6,18.9z M108.1,33.2L108.1,33.2h0.3l0.8,0.6c0,1.6-1.2,2.7-3.7,3.1l0,0c0,0.2-1.3,1.6-3.9,4.3l0,0
	l0.2,0.6v0.6l-0.2,1.5l3.9,0.7c0.2,0,1.9-0.7,5.3-2.2l0,0c-1.2-1.2-1.8-2-2-2.4l0,0v-0.6c0-0.3,0.3-0.6,0.8-1l0,0
	c4.1,1.6,6.2,2.9,6.2,4l0,0l0.6,0.9c-0.2,1-0.5,1.6-0.8,1.6l0,0h-0.3c-1.4,0-2.2-0.3-2.5-1l0,0c-4,2.6-6.7,4-7.9,4l0,0h-0.3
	c-1.2,0-3.8-0.4-7.9-1.2l0,0L96.2,47c-1.7,0-2.5-0.7-2.5-2.1l0,0v-0.6c0.5-0.8,2.1-1.6,4.7-2.5l0,0C104,36,107.1,33.2,108.1,33.2z
	 M90.7,36.8v-1.5h0.8c1,0.4,1.8,1.3,2.5,2.7l0,0v0.6c0,1.1-0.3,1.7-0.8,1.9l0,0C91.5,39.1,90.7,37.9,90.7,36.8L90.7,36.8z"/>
<path d="M159.9,19L159.9,19l1.6,2.9h9.7c3,0.1,4.4,0.6,4.4,1.3l0,0c0,1.2-0.7,1.9-2,1.9l0,0h-0.5c-1.3,0-2.3-0.1-3-0.2l0,0
	c-1.2,0.2-2.4,0.2-3.6,0.2l0,0H161c-0.5,0-0.9,3-1.4,9.1l0,0l-1.1,1.1H158c-0.3,0-0.6-0.7-0.8-2.2l0,0c0.4-2,0.5-4.6,0.5-8l0,0h-0.2
	c-6,0.4-11,1.1-14.9,2.1l0,0c-1.5-0.2-2.2-0.4-2.2-0.8l0,0c0.6-1.6,1.7-2.8,3.3-3.7l0,0h0.3l0.5,0.2c0.2,0,0.2-0.1,0.2-0.2l0,0
	l1.4,0.2h1.1l1.4-0.2V23c1.4-0.3,3.3-0.6,5.8-0.8l0,0c0.4,0.2,0.6,0.3,0.8,0.3l0,0c1.8,0,2.8-0.8,2.8-2.4l0,0
	C158,19.6,158.7,19.2,159.9,19z M165.5,27.8L165.5,27.8h0.2c5.6,2.8,9.7,4.3,12.4,4.3l0,0v1.4l-3.1,1.6c-2.5,0-5.3-1.1-8.2-3.4l0,0
	c-0.8-0.1-1.7-0.4-2.5-1.1l0,0C164.3,30,164.7,29.1,165.5,27.8z M142.8,32.3l4.4-2.7h0.2c0.4,0,0.7,0.5,0.8,1.4l0,0
	c0,1.6-2.9,3.4-8.8,5.3l0,0l-0.3-0.5v-0.3C139.9,33.4,141.1,32.3,142.8,32.3L142.8,32.3z M158.3,35.5L158.3,35.5h2.5
	c1.8,0.4,2.8,0.5,3,0.5l0,0h3.6c0.4,0,0.8-0.1,1.1-0.2l0,0c1.3,0.3,1.9,0.6,1.9,1l0,0v0.8c0,0.4-1.5,1.1-4.4,2.1l0,0l-4.1,3.2v0.3
	c0.2,0,0.3-0.1,0.3-0.3l0,0c3.2,0.4,5,0.8,5.2,1.1l0,0c6.4,0,11.1,0.4,14,1.3l0,0h2.2l3.8-0.8l0.3,0.5c-0.2,0.4-1.5,1.6-4.1,3.7l0,0
	c0,1.6-1.3,2.4-3.9,2.4l0,0c-3.8-1.2-7-2.4-9.4-3.5l0,0l-9.9-1.9c0,4-1.8,7-5.5,9.1l0,0c-1.3,2-4.9,3.6-10.7,4.8l0,0l-8.5,0.5
	l-0.5-0.8l1.1-0.5l-0.3-1.3v-0.3c2.1-0.5,6.1-1.2,11.9-2.1l0,0c6.6-3.2,9.9-6,9.9-8.3l0,0v-1.1c-7.5,0-14.2,1.3-20.1,4l0,0
	c0,0.4-1.2,0.8-3.6,1.1l0,0l-0.5-0.8v-0.2c1-2.8,2.3-4.3,3.8-4.3l0,0c0-0.2,0.1-0.3,0.3-0.3l0,0c0.3,0.2,0.7,0.3,1.1,0.3l0,0
	c5.4-1.6,11.4-2.4,17.9-2.4l0,0c1-1.2,1.9-1.9,2.8-1.9l0,0l0.5,0.2c2-1.8,3.1-2.6,3.3-2.6l0,0v-0.3c-0.1,0-1.5-0.2-4.1-0.5l0,0h-1.9
	c-2.4,0.4-6.5,1.3-12.1,2.9l0,0c-0.4,0-0.5-0.2-0.5-0.5l0,0c1.4-2.5,3.4-3.7,6.1-3.7l0,0C152.4,35.9,155,35.5,158.3,35.5z"/>
<path d="M214,18.6L214,18.6h2.3c0.4,0,0.6,0.2,0.6,0.5l0,0v2c0,0.2-0.1,0.2-0.3,0.2l0,0c0,0.2,0.1,0.3,0.3,0.3l0,0l-0.3,1.1l0.3,1.1
	l-0.6,1.4l0.3,3.9c0,1.4-0.4,2.6-1.1,3.4l0,0c0.2,0,0.3,0.1,0.3,0.3l0,0c6,0,11.3-0.5,15.9-1.4l0,0c3.8,0.8,5.7,1.6,5.7,2.3l0,0v0.2
	c-1.2,1.2-1.7,1.9-1.7,2l0,0c-3.7-0.2-6.2-0.3-7.4-0.3l0,0c-0.4,0-2.4,0.1-6.2,0.3l0,0v-0.3l-0.5,0.3h-2.9c-6.2,0-10.8,0.6-13.9,1.7
	l0,0h-1.1c-1.1,0-3.3,0.4-6.5,1.1l0,0h-2.5v-0.8c1.3-2.2,2.1-3.4,2.3-3.4l0,0c0.5,0,1.5,0.2,3.1,0.6l0,0c2.9-0.9,7.4-1.7,13.3-2.2
	l0,0l-0.2-1.4c0-1.6,0.1-3.9,0.2-7l0,0c-0.4-1.4-0.5-2.1-0.5-2.2l0,0c0.2,0,0.3-0.1,0.3-0.2l0,0c-0.3,0-0.6-0.3-0.9-0.8l0,0
	C213.1,19.5,213.7,18.6,214,18.6z M227.4,25.1L227.4,25.1h1.7c0.2,0,0.3,0.1,0.3,0.2l0,0l0.6-0.2h0.5c0.5,0,1.1,0.2,1.7,0.5l0,0
	c0,0.6-0.8,1.5-2.5,2.8l0,0c-0.2,0-0.7-0.1-1.7-0.2l0,0c-4.7,2-7.4,3.1-8.2,3.1l0,0l-0.3-0.5C222.9,28.7,225.6,26.9,227.4,25.1z
	 M202.1,25.9L202.1,25.9h1.4c3,1.9,5.1,3.5,6.5,4.7l0,0l-0.3,0.5l-1.4-0.3l-3.4,0.3c-1.6-0.4-3.3-1.6-5.1-3.7l0,0v-0.2
	C200.3,26.4,201.1,25.9,202.1,25.9z M218.3,37.3L218.3,37.3h1.4c0.5,0,0.8,0.7,0.8,2.2l0,0c-0.5,0-1.3,1.7-2.3,5l0,0H218l0.2,1.1
	c-0.3,0.7-0.6,1.6-0.8,2.8l0,0c3.3,0.4,6.1,1.4,8.5,2.8l0,0l12.2,2.8c0.2,0,0.3-0.1,0.3-0.2l0,0l3.4,0.5c3.2-1.8,5-2.8,5.4-2.8l0,0
	l0.3,0.5v0.5l-0.3,1.4c0.2,0,0.3,0.1,0.3,0.3l0,0c-1.6,2.2-2.5,3.4-2.6,3.4l0,0l0.3,0.5v0.3c0,0.2-0.7,0.9-2,1.9l0,0H241
	c-3.4,0-9.8-2.5-19-7.5l0,0c-2.8-0.9-4.3-1.4-4.6-1.4l0,0c-1.8,0.4-2.9,0.5-3.1,0.5l0,0l-0.3-1.4c1.9-6.2,2.9-9.7,2.9-10.6l0,0
	l-0.3-0.5C216.6,39.3,217.1,38.5,218.3,37.3z M210,38.4l0.6-0.2h0.2c0.4,0,0.6,0.2,0.6,0.5l0,0V39c-1.8,3.7-3.4,6.3-4.9,7.8l0,0
	c-2.2,3.2-4,4.8-5.4,5l0,0c-0.2,0.7-2.3,1.7-6.5,2.8l0,0c0,0.2-0.7,0.5-2,1.1l0,0l-0.5-0.8v-1.7c0.4-1.2,1.7-2.3,3.7-3.3l0,0
	c3.3-1.1,6.2-2.8,8.8-5l0,0C205.8,43.6,207.6,41.5,210,38.4L210,38.4z"/>
<path d="M266.4,18.6L266.4,18.6l0.8,1v2.7c0,0.6,0.1,1,0.2,1.3l0,0l-0.2,1.5c0,0.8,0.1,1.6,0.2,2.5l0,0c-0.2,1-0.2,2.2-0.2,3.5l0,0
	v0.8h2.8c0.4,0,0.7-0.1,1-0.2l0,0c2.5,0.2,3.8,0.5,3.8,1l0,0c0,0.8-0.7,1.4-2,1.7l0,0c-0.9-0.2-1.7-0.2-2.3-0.2l0,0H270
	c-0.4,0-0.7,0.1-1,0.2l0,0l-0.5-0.2c-1,0.2-2.2,0.2-3.5,0.2l0,0c0.2,0.4,0.2,0.6,0.2,0.8l0,0l0.5-0.2h0.7c0.2,0,0.5,0.2,0.8,0.7l0,0
	V37c0,1.4,0.1,2.9,0.2,4.4l0,0c-0.3,1.2-0.5,2.2-0.5,3l0,0v0.2l4.3-2c0.3,0.4,0.5,0.7,0.5,1l0,0c-3,3.5-5.6,5.5-7.8,5.9l0,0
	l-0.2-0.5v-0.5c0-0.4,0.4-1.4,1.3-2.8l0,0c0.3-5.2,0.5-8,0.5-8.5l0,0c-0.3,0-0.5-0.4-0.5-1.3l0,0h-0.2c-0.7,0.7-1.9,2.8-3.5,6.2l0,0
	c-3,3.6-5,5.5-6.1,5.5l0,0h-0.8c-1.2-0.8-1.7-1.8-1.7-3.2l0,0c0.3-0.2,0.6-0.2,0.8-0.2l0,0c0.8,0.3,1.2,0.7,1.3,1l0,0l0.5-0.2h0.2
	l0.5,0.2c2.8-2.4,5-5.6,6.8-9.7l0,0l0.2-1.3c-2,0.5-4.2,1.2-6.5,2l0,0c-0.8-0.4-1.3-1.1-1.3-2l0,0c0-0.8,2.4-1.6,7.3-2.5l0,0v-0.2
	c-1.8,0-3.3-1.7-4.3-5.2l0,0V26c0-0.3,0.3-0.5,0.8-0.5l0,0c1.4,0,2,0.8,2,2.5l0,0c1.5,1.1,2.3,2.3,2.3,3.7l0,0h1.7
	c0.3,0,0.5-0.8,0.8-2.5l0,0l-0.3-0.5v-1c0-0.2,0.1-0.2,0.3-0.2l0,0c0-0.2-0.3-1.9-1-5l0,0v-2C264.8,19.3,265.4,18.6,266.4,18.6z
	 M287.9,19.7L287.9,19.7h11.4c1.2,0,1.9,0.2,2,0.7l0,0l0.5-0.2h0.2c0.7,0,1.1,1.2,1.3,3.7l0,0l-0.2,0.5c0.2,0.3,0.2,0.7,0.2,1l0,0
	H303l0.2,0.5v0.2c-0.2,0.5-0.7,0.8-1.5,0.8l0,0c-0.4-0.7-0.7-2-1-4l0,0c0.2,0,0.2-0.1,0.2-0.2l0,0c-0.6-0.3-1.3-0.5-2-0.5l0,0h-4.5
	c-10.8,0-16.1,0.5-16.1,1.5l0,0c-0.8,3-1.5,4.5-2.3,4.5l0,0c0-0.2-0.1-0.3-0.2-0.3l0,0l0.2-0.5v-1.5c0.7-3.6,1.8-5.5,3.2-5.5l0,0
	C282.1,19.9,285,19.7,287.9,19.7z M288.9,23.1L288.9,23.1c0.7,0.2,1,0.8,1,1.7l0,0l-0.8,1.5h1.6c1,0,2.3-0.1,4-0.3l0,0
	c0.3,0.2,0.6,0.3,0.7,0.3l0,0c0.4-0.2,0.6-0.3,0.8-0.3l0,0c0,0.4,0.2,0.5,0.5,0.5l0,0h2.3c0.3,0,0.5,0.2,0.8,0.7l0,0v0.5
	c0,0.5-0.8,0.9-2.3,1.3l0,0h-4.8l-0.5,5l0.5,0.2c1.7-0.2,3.1-0.2,4-0.2l0,0c1,0,1.7,0.5,2.3,1.5l0,0v0.2c0,0.4-1.1,0.7-3.2,1l0,0
	h-3.1c-0.3,0-0.5,0.2-0.5,0.5l0,0v2.5l1.3,0.3c0.2,0,1-0.1,2.5-0.3l0,0c0.7,0,2.4,0.3,5.3,0.8l0,0l5-0.8h0.2c0.3,0,0.5,0.3,0.8,0.8
	l0,0V41c-2,2.2-3.2,3.2-3.5,3.2l0,0l0.2,0.5V45h-0.7c-2.7,0-4-0.3-4-0.8l0,0c-0.2,0-0.3,0.1-0.3,0.2l0,0c-2.8-1-5.1-1.5-6.8-1.5l0,0
	v2.5c0,0.4-0.1,0.7-0.2,1l0,0l0.2,0.5c0,0.1-0.1,0.4-0.2,1l0,0l0.2,1.5l-0.2,0.5c0,0.2,0.1,0.2,0.2,0.2l0,0l-0.2,1.2V53
	c0,1.9,0.1,4.3,0.2,7.3l0,0c-0.2,0.3-0.2,0.6-0.2,0.7l0,0h-0.5c-1-1.8-1.5-3.5-1.5-5.2l0,0V46c0-0.2,0.1-0.2,0.2-0.2l0,0
	c0-0.2-0.1-0.2-0.2-0.2l0,0l0.2-1.3v-0.5l-0.2-1.3h-2.8c-0.7,0-3.5,0.8-8.6,2.5l0,0c-1.8,0.3-2.9,0.6-3.3,1l0,0
	c-0.3-0.2-0.6-0.2-0.7-0.2l0,0v-1c2.1-2.6,4.6-4,7.6-4l0,0c0-0.2,1.8-0.6,5.5-1.3l0,0h2.5v-2.7H290c-0.7,0-3.7,0.6-9.1,1.7l0,0
	l-0.8-0.5c0.2-1.6,0.9-2.5,2.3-2.5l0,0c0-0.4,0.8-1.6,2.5-3.7l0,0c0.5-1.3,0.8-2.2,0.8-2.5l0,0c-1.9,0.4-3.3,0.5-4.1,0.5l0,0h-1.5
	v-1.5c0-0.9,2.4-1.6,7.3-2l0,0C288,24.2,288.5,23.1,288.9,23.1z M274.2,24.6L274.2,24.6c0.2,0.3,0.4,1.1,0.5,2.2l0,0
	c-0.5,0.8-1.9,1.6-4,2.2l0,0c-0.8,1.3-1.7,2-2.5,2l0,0l-0.3-0.5v-0.2C270.1,26.5,272.2,24.6,274.2,24.6z M285.3,34.3L285.3,34.3v0.2
	l1.8-0.2h2.8v-1.2c0-0.7-0.1-1.6-0.2-2.8l0,0c0.2-0.3,0.2-0.7,0.2-1.3l0,0h-1.7c-1,0.7-1.8,2.4-2.5,5l0,0
	C285.4,34.1,285.3,34.1,285.3,34.3z"/>
<path d="M340.5,18.6L340.5,18.6c0,0.4,0.2,0.5,0.5,0.5l0,0c-0.2,0.4-0.5,1.4-0.8,3.1l0,0c0.5,0.7,1.8,1.1,4,1.1l0,0h3.7l1.7,0.2
	c1-0.5,1.7-0.8,2.3-0.8l0,0h1.1c0.3,0,0.9,0.6,2,1.9l0,0c-0.3,0-0.8,0.3-1.7,1l0,0h-0.8c-0.5,1.2-1,2.1-1.4,2.6l0,0v0.2l8.2,1.9
	c3.2-0.4,5.8-0.5,7.7-0.5l0,0l0.3,0.5V31c-2.1,1.8-3.3,3-3.7,3.7l0,0c-0.4,0-1,0.4-1.7,1.3l0,0h-0.8c-1.8-1.3-3.5-2.1-4.9-2.3l0,0
	c0-0.4-2.1-1.3-6.2-2.6l0,0v0.2c0,0.4-0.6,1.8-1.7,4.2l0,0V36h0.6v0.8c-0.1,0.5-0.8,0.8-2.3,0.8l0,0h-5.9v2.6c0,0.9,0.1,2.2,0.2,4
	l0,0h-0.2c0,0.2,0.1,0.2,0.2,0.2l0,0c0.2,3.8,0.3,6.6,0.3,8.4l0,0v0.8c-0.2,4.2-0.9,6.7-2,7.4l0,0h-0.3c-0.3,0-0.6-0.3-0.8-0.8l0,0
	v-5.8c0-0.2,0.1-0.3,0.3-0.3l0,0c-0.2-0.4-0.3-0.6-0.3-0.8l0,0c0-0.6,0.1-1,0.3-1.3l0,0c0-1.1-0.3-5.3-0.9-12.6l0,0v-0.8l0.3-0.5
	h-0.3c-4.2,0.9-7.1,1.8-8.8,2.6l0,0c-1.4-0.3-2-0.6-2-1.1l0,0v-1c0-0.2,0.5-0.7,1.4-1.3l0,0l1.4,0.2c5.5-1,8.2-1.8,8.2-2.3l0,0v-3.4
	c-9.7,1.4-16.5,2.7-20.5,4l0,0h-0.6c-0.4,0-0.5-0.2-0.5-0.5l0,0v-0.8c1-1.7,3-2.9,6.2-3.4l0,0l7.7-0.8v0.2c5.3-0.9,8-1.5,8-1.9l0,0
	v-3.1c-5.9,0.4-9.4,0.9-10.5,1.6l0,0h-1.1c-0.8-0.4-1.1-0.8-1.1-1.3l0,0c0-0.2,0.7-0.7,2-1.6l0,0c0.8-0.9,1.7-1.3,2.8-1.3l0,0
	c0.2,0.4,0.3,0.6,0.3,0.8l0,0c4.6,0,6.8-0.3,6.8-1l0,0C337.6,20,338.8,18.6,340.5,18.6z M346.7,25.2h-6v0.3
	c-0.2,2.2-0.2,3.3-0.2,3.4l0,0c0.6,0,2.7-0.3,6.2-0.8l0,0h1.7c0-0.2,0.2-0.9,0.6-2.1l0,0C347.8,25.5,347.1,25.2,346.7,25.2
	L346.7,25.2z M340.5,31.5L340.5,31.5v3.1l-0.3,0.5l0.5,0.2l2.6-0.2h3.4l0.8-4.7l-0.5-0.2C343.9,31.1,341.8,31.5,340.5,31.5z
	 M354.9,41L354.9,41c1.2,0.7,1.7,1.3,1.7,1.9l0,0l-1.1,1.3c-0.8,0-1.5-0.1-2.3-0.3l0,0c-6.1,1.4-9.4,2.1-10,2.1l0,0l-0.3-0.5v-0.3
	c3.1-1.4,4.9-2.1,5.4-2.1l0,0c0.9,0,2.2-0.6,4-1.8l0,0C353.4,41.3,354.2,41.2,354.9,41z M327.4,44.1L327.4,44.1
	c0.4,0,0.5,0.3,0.5,0.8l0,0l4.9-0.8h1.4c0.4,0,0.6,0.2,0.6,0.5l0,0v0.5c0,0.8-1.9,1.7-5.7,2.6l0,0c-1.3,0.7-2.3,1.1-2.8,1.1l0,0
	h-0.9l-2.3-1.6v-0.5C323.7,45.8,325.1,44.9,327.4,44.1z M346.7,47.6L346.7,47.6h2.8c5.6,1.5,8.9,3.2,9.7,5l0,0
	c0.2,0,0.4,0.3,0.6,0.8l0,0l-1.1,1.3c-5.3-1.6-8-2.8-8-3.4l0,0c-3.2-1.3-4.8-2.2-4.8-2.6l0,0v-0.2C345.9,48.1,346.2,47.8,346.7,47.6
	z M332.5,48.9h0.3l0.2,0.5c0,1.9-4.1,4.3-12.2,7.1l0,0c-0.8-0.3-1.1-0.6-1.1-0.8l0,0c0.3,0,0.8-0.8,1.4-2.3l0,0
	C324.3,52.5,328.1,51,332.5,48.9L332.5,48.9z"/>
<path d="M397.1,21.8L400,19c1.2,0,1.7,0.7,1.7,2.2l0,0c0.2,2.2,0.6,3.3,1.2,3.3l0,0h7c5.1,1,7.6,1.8,7.6,2.5l0,0l-5.6,6.7h4.1
	c4,0.8,6.3,1.6,6.7,2.2l0,0l0.6-0.3c0.2,0,0.3,0.1,0.3,0.3l0,0l2-0.3h0.3c1.8,0.3,2.6,1,2.6,2l0,0c-1.6,2.7-3.1,5.9-4.4,9.7l0,0
	c-0.2,0-1,0.7-2.3,2l0,0c-3.7,2.4-7.2,3.8-10.6,4.4l0,0h-0.6c-0.4,0-0.5-0.2-0.5-0.5l0,0c0.2,0,0.3-0.1,0.3-0.3l0,0
	c-0.3,0-0.6-0.3-0.9-0.8l0,0c0-1.1,2.6-2.5,7.9-4.1l0,0c2.9-1.9,4.4-4.2,4.4-7l0,0v-1.4l-0.3-0.5c0.4-0.6,0.6-1.2,0.6-1.7l0,0V37
	h-1.2c-4.1-0.6-6.1-1-6.1-1.1l0,0l-1.8,0.5c-3.6-0.2-5.6-0.4-5.8-0.5l0,0l-1.7,0.3H402c-0.8,0-1.1,2.8-1.1,8.3l0,0v0.3
	c0,0.6,0.1,0.8,0.2,0.8l0,0l-0.2,1.4v2.2c0,6.1-0.9,10-2.6,11.6l0,0c-1.2-0.4-1.8-2.6-1.8-6.7l0,0h0.3l-0.3-0.5
	c0-0.2,0.1-0.3,0.3-0.3l0,0l-0.3-0.5v-1.7c0-0.2,0.1-0.2,0.3-0.2l0,0l-0.3-0.6v-0.8c0-0.2,0.1-0.2,0.3-0.2l0,0l-0.3-0.5v-0.6
	c0-0.2,0.1-0.2,0.3-0.2l0,0l-0.3-0.6v-4.1c0-0.2,0.1-0.2,0.3-0.2l0,0c0-0.2-0.1-0.3-0.3-0.3l0,0c0.2-1.8,0.3-3.2,0.3-4.1l0,0v-0.6
	l-0.3-1.4h-0.2c-8.2,1.2-13.9,2.5-17.3,3.9l0,0h-1c-1,0-1.7-0.4-2-1.1l0,0c1.2-1.3,1.7-2.1,1.7-2.5l0,0c0-0.6,0.6-1,1.8-1.1l0,0
	v-0.2c0.6,0.4,1.1,0.5,1.4,0.5l0,0c1.1-0.8,6.1-1.5,14.9-2.2l0,0h1.1v-0.3c0.2-1.9,0.3-3.9,0.3-6.1l0,0c-1.5,0-5.8,0.5-12.9,1.6l0,0
	h-0.8l-0.3-0.5c0.8-1,1.7-1.6,2.9-1.9l0,0c0-0.3,1.8-0.8,5.3-1.4l0,0l0.2-0.6l2.9,0.3c1.4,0,2.4-0.2,3.2-0.5l0,0
	c-0.2-1.1-0.5-1.8-0.9-2.2l0,0v-0.6H397.1z M417.1,19.5l1.7-0.5c1.8,0,3.4,1,4.7,3.1l0,0v0.2c0,1-0.4,1.7-1.1,2l0,0h-0.6
	C418.7,23.4,417.1,21.8,417.1,19.5L417.1,19.5z M401.3,33.4L401.3,33.4l0.6,0.3h4.1c3.1,0,4.7-0.7,4.7-2.2l0,0
	c0.7-0.6,1.3-2,1.7-4.1l0,0H403C402.3,27.3,401.7,29.4,401.3,33.4z"/>
</svg>
