<svg viewBox="0 0 569 80" xmlns="http://www.w3.org/2000/svg"><path d="M44.54 14.48h16.2v2.16l-5.52.78-.3 41.82h-4.14L24.26 21.92l.18 34.2 7.68.78V59h-16.2v-2.1l5.58-.72.3-37.74-.96-1.26-4.56-.54v-2.16h12.66l23.52 32.64-.18-29.64-7.74-.84v-2.16zM79.7 59.96q-4.68 0-8.34-2.04t-5.76-5.88q-2.1-3.84-2.1-9.18 0-5.4 2.22-9.18 2.22-3.78 5.91-5.76t8.07-1.98q4.38 0 8.04 1.98 3.66 1.98 5.91 5.76t2.25 9.18q0 5.4-2.13 9.21-2.13 3.81-5.79 5.85-3.66 2.04-8.28 2.04zm0-2.22q3.66 0 5.7-3.69t2.04-11.13q0-7.44-2.04-11.1-2.04-3.66-5.7-3.66-3.72 0-5.73 3.66-2.01 3.66-2.01 11.1 0 7.44 2.01 11.13 2.01 3.69 5.73 3.69zm40.44-3.18l1.08 1.14q-1.32 2.04-3.45 3.15-2.13 1.11-5.19 1.11-4.14 0-6.36-2.13Q104 55.7 104 51.14q0-1.44.03-2.82t.03-3.18V29.42H98.9v-1.98l5.58-.6 2.58-9.42h5.16l-.18 9.48h7.92v2.52h-7.98v22.2q0 2.52 1.05 3.63 1.05 1.11 2.85 1.11 1.2 0 2.13-.45.93-.45 2.13-1.35zm19.8 5.4q-4.68 0-8.34-2.04t-5.76-5.88q-2.1-3.84-2.1-9.18 0-5.4 2.22-9.18 2.22-3.78 5.91-5.76t8.07-1.98q4.38 0 8.04 1.98 3.66 1.98 5.91 5.76t2.25 9.18q0 5.4-2.13 9.21-2.13 3.81-5.79 5.85-3.66 2.04-8.28 2.04zm0-2.22q3.66 0 5.7-3.69t2.04-11.13q0-7.44-2.04-11.1-2.04-3.66-5.7-3.66-3.72 0-5.73 3.66-2.01 3.66-2.01 11.1 0 7.44 2.01 11.13 2.01 3.69 5.73 3.69zm51.6-25.86l3 1.26q4.44 1.92 7.11 3.9t3.84 4.38q1.17 2.4 1.17 5.64 0 3.9-1.98 6.87t-5.67 4.59q-3.69 1.62-8.91 1.62-3.72 0-7.35-.96-3.63-.96-6.15-2.58l.36-9.96h3.36l2.52 9.66q1.56.66 3.09.93 1.53.27 3.39.27 4.62 0 7.23-2.07 2.61-2.07 2.61-5.79 0-3.18-1.68-5.01-1.68-1.83-5.64-3.51l-2.76-1.2q-5.64-2.46-8.76-5.7t-3.12-8.4q0-3.96 2.01-6.75t5.52-4.23q3.51-1.44 8.01-1.44 3.54 0 6.42.9t5.22 2.46l-.42 9.42h-3.36l-2.52-9.24q-1.02-.48-2.1-.69-1.08-.21-2.4-.21-3.96 0-6.45 1.92t-2.49 5.46q0 3.12 1.8 5.07 1.8 1.95 5.1 3.39zm28.38 8.7h10.26q2.1 0 2.76-1.08.66-1.08.66-3.36 0-3.66-1.74-5.82t-4.5-2.16q-2.82 0-4.98 2.91-2.16 2.91-2.46 9.51zm20.76 2.22h-20.76q.12 4.56 1.56 7.5 1.44 2.94 3.81 4.32 2.37 1.38 5.25 1.38 3.24 0 5.34-1.26 2.1-1.26 3.66-3.36l1.2.84q-1.8 3.66-5.13 5.7t-7.77 2.04q-4.68 0-8.37-1.98-3.69-1.98-5.79-5.79t-2.1-9.27q0-5.4 2.34-9.18 2.34-3.78 6.06-5.79 3.72-2.01 7.92-2.01 4.14 0 7.08 1.71 2.94 1.71 4.53 4.68 1.59 2.97 1.59 6.75 0 2.28-.42 3.72zM256.76 26l.84.54.54 8.34q1.44-4.32 4.14-6.63 2.7-2.31 5.4-2.31 1.92 0 3.39.87 1.47.87 2.01 2.97-.12 2.04-1.08 3.3-.96 1.26-3.06 1.26-1.5 0-2.55-.78-1.05-.78-2.19-2.1l-.66-.72q-1.86 1.5-3.15 3.57-1.29 2.07-2.25 5.25v5.34q0 2.4.03 5.67t.09 5.85l5.52.72V59h-18.06v-1.86l4.38-.54q.06-1.74.06-3.81 0-2.07.03-4.17t.03-3.72v-4.32q0-2.94-.06-4.86-.06-1.92-.18-4.08l-4.74-.48v-1.5L256.76 26zm27.12-6.72q-1.92 0-3.33-1.26-1.41-1.26-1.41-3.18 0-2.04 1.41-3.27t3.33-1.23q1.92 0 3.33 1.23 1.41 1.23 1.41 3.27 0 1.92-1.41 3.18-1.41 1.26-3.33 1.26zm4.26 37.38l4.02.48V59h-16.5v-1.86l4.38-.54q.06-1.74.06-3.81 0-2.07.03-4.17t.03-3.72v-4.26q0-2.88-.03-4.89t-.15-4.23l-4.86-.48v-1.62L287.3 26l.84.54-.12 9.36v9q0 1.62.03 3.72l.06 4.2q.03 2.1.03 3.84zm7.74-27.24v-1.98l5.16-.6q.48-5.16 1.83-8.31 1.35-3.15 3.39-5.19 2.4-2.28 4.98-3.21 2.58-.93 5.16-.93 2.52 0 4.53.93 2.01.93 2.55 3.09-.06 1.5-1.08 2.52t-2.94 1.02q-1.5 0-2.79-.81t-2.49-2.79l-1.26-1.68q-1.26.66-1.86 1.74-1.38 2.04-1.92 5.28t-.36 8.4h8.28v2.52h-8.22V44.9q0 2.94.03 5.82.03 2.88.09 5.76l5.7.66V59h-18.48v-1.86l4.62-.54q.18-5.76.18-11.7V29.42h-5.1zm40.2-14.94h20.7v2.16l-5.76.54q-.06 4.38-.06 8.85v17.43q0 6-.48 9.75t-1.56 6.45q-1.44 4.98-5.13 7.68-3.69 2.7-8.25 2.7-2.34 0-4.14-.78-1.8-.78-2.64-2.64.18-1.92 1.44-2.94t3.06-1.02q1.38 0 2.55.66t2.55 2.22l1.74 1.98q1.32-1.38 2.04-4.14t.72-7.32q0-1.86-.03-4.65t-.12-7.17q-.09-4.38-.15-10.98-.06-6.6-.18-16.02l-6.3-.6v-2.16zm42.78 2.34h-3.18q-.12 4.56-.15 9.18t-.03 9.3v3.54h2.94q5.7 0 8.25-3.12t2.55-8.04q0-5.34-2.55-8.1t-7.83-2.76zm-.54 24.36h-2.82q0 3.48.03 7.32.03 3.84.15 7.8l6.42.6V59h-20.76v-2.1l5.7-.54q.12-4.44.12-9V26.27q0-4.53-.12-9.09l-5.7-.54v-2.16h17.88q9.48 0 13.74 3.54t4.26 9.66q0 3.72-1.83 6.78t-5.97 4.89q-4.14 1.83-11.1 1.83zm52.56 15.48h3.72q5.34 0 8.22-2.52 2.88-2.52 2.88-7.32 0-4.98-2.82-7.41-2.82-2.43-8.88-2.43h-3.3q0 5.28.03 10.14t.15 9.54zm3.54-39.84h-3.54q-.12 4.38-.15 8.82t-.03 9.06h2.82q5.16 0 7.68-2.4 2.52-2.4 2.52-6.96 0-4.14-2.22-6.33-2.22-2.19-7.08-2.19zm-17.76-.18v-2.16h20.04q7.98 0 11.55 2.97 3.57 2.97 3.57 7.59 0 2.28-1.08 4.35t-3.63 3.63q-2.55 1.56-6.87 2.4 7.5.9 10.77 3.87 3.27 2.97 3.27 7.47 0 2.22-.93 4.41t-3.12 3.96q-2.19 1.77-5.85 2.82Q440.72 59 435.2 59h-18.54v-2.1l5.7-.54q.12-4.62.12-9.27V26.12q0-4.5-.12-8.94l-5.7-.54zm58.74 43.32q-4.68 0-8.34-2.04t-5.76-5.88q-2.1-3.84-2.1-9.18 0-5.4 2.22-9.18 2.22-3.78 5.91-5.76t8.07-1.98q4.38 0 8.04 1.98 3.66 1.98 5.91 5.76t2.25 9.18q0 5.4-2.13 9.21-2.13 3.81-5.79 5.85-3.66 2.04-8.28 2.04zm0-2.22q3.66 0 5.7-3.69t2.04-11.13q0-7.44-2.04-11.1-2.04-3.66-5.7-3.66-3.72 0-5.73 3.66-2.01 3.66-2.01 11.1 0 7.44 2.01 11.13 2.01 3.69 5.73 3.69zm33.12-1.08l4.62.48V59h-17.4v-1.86l4.62-.54q.12-2.82.15-5.85t.03-5.85V14.48l-4.86-.36v-1.68l12.06-2.58.84.54-.24 9.54V44.9q0 2.82.06 5.85t.12 5.91zm31.68-2.94V32q-1.5-1.26-2.91-1.77-1.41-.51-2.79-.51-2.34 0-4.35 1.26t-3.21 4.14q-1.2 2.88-1.2 7.8 0 7.14 2.46 10.17 2.46 3.03 6.18 3.03 1.62 0 3.03-.54 1.41-.54 2.79-1.86zm7.92-33.84v36.9l4.5.36V59l-11.82.66-.42-4.02q-1.8 2.04-4.11 3.18-2.31 1.14-5.19 1.14-3.9 0-7.02-2.01-3.12-2.01-4.92-5.76-1.8-3.75-1.8-8.91 0-5.46 1.92-9.33t5.22-5.94q3.3-2.07 7.38-2.07 2.46 0 4.62.99t4.02 3.21v-15.6l-5.16-.42v-1.68l12.12-2.58.84.54-.18 9.48z"/></svg>