<svg viewBox="0 0 361 80" xmlns="http://www.w3.org/2000/svg"><path d="M19.22 61.48q-3.6 0-3.6-3.72v-35.7q0-1.86.93-2.85t2.43-.99q1.38 0 2.07.51t1.65 1.71l21.42 27.78V21.88q0-3.66 3.6-3.66 3.54 0 3.54 3.66v36q0 1.68-.84 2.64-.84.96-2.28.96-1.38 0-2.19-.54t-1.77-1.74L22.76 31.36v26.4q0 3.72-3.54 3.72zm51.18.12q-10.8 0-10.8-12.12V34.96q0-3.78 3.72-3.78 3.78 0 3.78 3.78V49.6q0 3.12 1.26 4.62t4.02 1.5q3 0 4.92-2.07t1.92-5.49v-13.2q0-3.78 3.72-3.78 3.78 0 3.78 3.78v22.68q0 3.84-3.66 3.84t-3.66-3.84v-1.02q-2.94 4.98-9 4.98zm27.84-.12q-3.72 0-3.72-3.84V34.96q0-3.78 3.66-3.78t3.66 3.78v1.26q1.5-2.52 4.05-3.84 2.55-1.32 5.73-1.32 10.38 0 10.38 12.06v14.52q0 3.84-3.72 3.84-3.78 0-3.78-3.84V43.48q0-3.42-1.29-4.98-1.29-1.56-3.99-1.56-3.3 0-5.25 2.07-1.95 2.07-1.95 5.49v13.14q0 3.84-3.78 3.84zm35.1-35.82q-2.1 0-3.27-1.05t-1.17-2.91q0-1.92 1.17-2.94t3.27-1.02q4.44 0 4.44 3.96t-4.44 3.96zm0 35.76q-1.8 0-2.76-1.08-.96-1.08-.96-3V35.32q0-4.08 3.72-4.08 3.78 0 3.78 4.08v22.02q0 1.92-.96 3t-2.82 1.08zm25.02.18q-11.64 0-11.64-11.52V37.3h-3.12q-3 0-3-2.82t3-2.82h3.12V26.2q0-3.78 3.78-3.78 3.72 0 3.72 3.78v5.46h6.36q3 0 3 2.82t-3 2.82h-6.36v12.36q0 2.88 1.26 4.32 1.26 1.44 4.08 1.44 1.02 0 1.8-.18t1.38-.24q.72-.06 1.2.45t.48 2.07q0 1.2-.39 2.13-.39.93-1.41 1.29-.78.24-2.04.45-1.26.21-2.22.21zm22.68 0q-4.56 0-7.92-1.86-3.36-1.86-5.22-5.31-1.86-3.45-1.86-8.13 0-4.68 1.86-8.1t5.22-5.28q3.36-1.86 7.92-1.86 4.56 0 7.92 1.86 3.36 1.86 5.22 5.28 1.86 3.42 1.86 8.1t-1.86 8.13q-1.86 3.45-5.22 5.31-3.36 1.86-7.92 1.86zm0-5.7q3.36 0 5.4-2.43 2.04-2.43 2.04-7.17 0-4.8-2.04-7.17t-5.4-2.37q-3.36 0-5.4 2.37-2.04 2.37-2.04 7.17 0 4.74 2.04 7.17 2.04 2.43 5.4 2.43zm57.3 5.1h-15.06q-4.08 0-4.08-4.08V22.78q0-4.08 4.08-4.08h14.4q6.66 0 10.32 2.91t3.66 8.07q0 3.42-1.74 5.88t-4.8 3.6q3.6 1.02 5.61 3.57 2.01 2.55 2.01 6.45 0 5.64-3.81 8.73Q245.12 61 238.34 61zm-11.76-36.48v12.12h9.78q7.86 0 7.86-6.06t-7.86-6.06h-9.78zm0 17.94v12.72h10.8q7.92 0 7.92-6.36t-7.92-6.36h-10.8zm46.56 19.14q-4.56 0-7.92-1.86-3.36-1.86-5.22-5.31-1.86-3.45-1.86-8.13 0-4.68 1.86-8.1t5.22-5.28q3.36-1.86 7.92-1.86 4.56 0 7.92 1.86 3.36 1.86 5.22 5.28 1.86 3.42 1.86 8.1t-1.86 8.13q-1.86 3.45-5.22 5.31-3.36 1.86-7.92 1.86zm0-5.7q3.36 0 5.4-2.43 2.04-2.43 2.04-7.17 0-4.8-2.04-7.17t-5.4-2.37q-3.36 0-5.4 2.37-2.04 2.37-2.04 7.17 0 4.74 2.04 7.17 2.04 2.43 5.4 2.43zm31.2 5.7q-10.02 0-10.02-11.22V22q0-3.78 3.72-3.78 3.78 0 3.78 3.78v28.02q0 5.4 4.5 5.4.48 0 .9-.03.42-.03.84-.09.84-.12 1.14.45.3.57.3 2.31 0 1.5-.6 2.34-.6.84-1.98 1.02-1.26.18-2.58.18zm20.1 0q-3.84 0-6.75-1.86t-4.53-5.31q-1.62-3.45-1.62-8.13 0-4.74 1.62-8.13 1.62-3.39 4.53-5.25 2.91-1.86 6.75-1.86 3.12 0 5.64 1.38 2.52 1.38 3.78 3.66V22q0-3.78 3.72-3.78 3.78 0 3.78 3.78v35.64q0 3.84-3.72 3.84t-3.72-3.84v-1.26q-1.26 2.4-3.78 3.81-2.52 1.41-5.7 1.41zm2.1-5.7q3.36 0 5.4-2.43 2.04-2.43 2.04-7.17 0-4.8-2.04-7.17t-5.4-2.37q-3.36 0-5.4 2.37-2.04 2.37-2.04 7.17 0 4.74 2.04 7.17 2.04 2.43 5.4 2.43z"/></svg>