<svg viewBox="0 0 430 80" xmlns="http://www.w3.org/2000/svg"><path d="M49.96 17.71q1.74 2.43 2.58 5.13.84 2.7.84 6.42 0 3.72-1.29 8.28-1.29 4.56-3.84 8.73-2.55 4.17-7.05 6.81-4.5 2.64-10.26 2.64-7.02 0-11.04-4.74t-4.02-11.94q0-7.2 2.73-13.17t7.8-9.72q5.07-3.75 11.31-3.75 4.2 0 7.35 1.44 3.15 1.44 4.89 3.87zm-20.1 32.61q1.08.84 3.15.84t3.9-2.43q1.83-2.43 2.85-6.27 1.92-7.56 1.92-15.66 0-9.84-4.8-9.84-2.28 0-4.11 2.13-1.83 2.13-2.91 5.55-2.22 6.96-2.22 14.94 0 8.94 2.22 10.74zm41.64 1.32q-1.92 1.68-5.04 2.88t-5.67 1.2q-2.55 0-4.17-1.47T55 50.02q0-2.76 3.03-15.39t3.03-18.75q0-1.32-.36-3.36 5.64-1.56 10.92-1.56.54.96.54 3.12 0 4.08-3.03 17.79-3.03 13.71-3.03 15.81 0 2.1.72 2.1.6 0 2.58-.78l.66-.3 1.44 2.94zm1.02-7.5q0-7.44 4.53-11.58t11.19-4.14q4.62 0 7.41 2.01t2.79 5.37q0 2.46-1.5 4.38t-3.66 2.94q-4.56 2.04-7.92 2.46l-1.5.18q.66 3.96 3.96 3.96 1.44 0 3.18-.63 1.74-.63 2.76-1.29l1.02-.6 1.92 2.58-.66.66q-.36.36-1.71 1.41-1.35 1.05-2.82 1.83-1.47.78-3.75 1.41-2.28.63-4.56.63-5.1 0-7.89-2.97t-2.79-8.61zm11.1-2.34q1.74-.24 3.48-2.85 1.74-2.61 1.74-4.38t-1.02-1.77q-1.5 0-2.76 2.34-1.26 2.34-1.44 6.66zm25.14 13.92q-4.68 0-7.38-2.97t-2.7-8.37q0-6.6 3.9-11.19t10.26-4.59l2.7.24q1.44-.42 2.7-.42 3 0 4.29 2.04t1.47 5.82q2.52-.12 4.8-.78l.84-.24q.42.42.6 2.52l.06.66q-2.7 1.38-6.6 2.16-1.32 6.36-5.22 10.74-3.9 4.38-9.72 4.38zm1.2-11.58q0 5.58 2.82 5.58 1.98 0 4.05-2.52t2.85-6.12q-6.12 0-6.12-5.88 0-1.02.18-2.1-.6 0-.9.18-1.02 1.08-1.95 4.35-.93 3.27-.93 6.51zm54.66-.12q0 4.98-4.77 8.34-4.77 3.36-11.07 3.36-4.92 0-8.31-2.1-3.39-2.1-3.39-4.02.96-2.34 3.66-5.04t4.98-2.82q1.5.66 2.79 3.27t2.07 6.03q3.24-.12 3.24-3.66 0-2.34-1.77-5.73-1.77-3.39-3.87-6.33t-3.87-6.54q-1.77-3.6-1.77-6.3 0-4.44 4.08-7.26 4.08-2.82 9.09-2.82t7.8 2.16q2.79 2.16 2.79 4.98 0 2.34-.96 3.75-.96 1.41-1.53 2.16-.57.75-1.53 1.59-1.8 1.56-2.76 2.28l-.9.66q3.54 4.38 5.34 10.2.66 2.1.66 3.84zm-3.12-24.06q0-2.82-3.6-2.82-2.1 0-3.39.9t-1.29 2.25q0 1.35 1.11 3.27t1.77 2.7q1.44-.72 3.42-2.64 1.98-1.92 1.98-3.66zm22.14 12.48q-1.86 0-3.18 3.3t-1.32 6.66q0 7.38 4.26 7.38 2.7 0 6.12-2.58l1.92 2.64q-2.52 2.76-6.03 4.32-3.51 1.56-6.99 1.56-4.68 0-7.59-2.85t-2.91-8.61q0-6.96 4.29-11.4t11.25-4.44q4.5 0 7.08 1.83t2.58 4.62q0 2.79-1.68 4.83-1.98 0-4.29-.75t-3.69-1.89l.9-4.5q-.36-.12-.72-.12zm11.46 22.92h-.48q-.18-.84-.18-2.61t1.47-9.18q1.47-7.41 1.47-8.4 0-.99-.54-2.04t-1.08-1.59l-.54-.54.12-.9q3.6-1.14 11.94-1.14.78 1.5.96 3.54 3.66-4.08 6.48-4.08 3.66 0 4.02 6.18-.12.12-.3.39t-.84.93q-.66.66-1.38 1.2-2.04 1.38-4.32 1.62-.06 0-.81-1.32t-1.26-1.32q-.51 0-1.89 1.08-.18 1.08-.69 3.66t-.81 4.26q-.9 4.44-.9 7.44l.06 1.8q-2.64 1.02-10.5 1.02zm36.72-22.89q0 2.67-1.5 8.22-1.5 5.55-1.5 7.23 0 1.68.66 1.68t2.4-.6l.54-.24 1.08 3q-2.04 1.56-5.07 2.76-3.03 1.2-5.49 1.2-2.46 0-3.87-1.38-1.41-1.38-1.41-3.99 0-2.61 1.47-7.98 1.47-5.37 1.47-6.81 0-2.22-1.56-4.2l-.48-.66.18-1.02q3.12-.96 12.12-.96.96 1.08.96 3.75zm-4.47-8.43q-2.73 0-4.26-1.44-1.53-1.44-1.53-3.69t1.89-3.78q1.89-1.53 4.59-1.53t4.2 1.26q1.5 1.26 1.5 3.54 0 2.28-1.83 3.96-1.83 1.68-4.56 1.68zm6.21 44.4q-.48-.78-.48-3.3 0-2.52 2.31-13.68t2.31-13.98q0-2.82-.54-4.29-.54-1.47-1.08-1.89l-.54-.42.12-.9q3.6-1.14 12.18-1.14.48.9.78 2.34 3.84-2.76 7.26-2.76t5.61 2.61q2.19 2.61 2.19 8.85t-3.27 11.04q-3.27 4.8-9.57 4.8-2.76 0-5.4-1.08-1.38 6.78-1.38 11.94-4.32 1.56-10.5 1.86zm14.52-17.76q1.62 0 2.76-2.4 2.04-4.2 2.04-10.2 0-3.54-1.74-3.54-.9 0-2.4.66-.36 5.04-2.4 15.18 1.02.3 1.74.3zm38.64-16.92l-5.16-.42q-2.4 10.74-2.61 12.48-.21 1.74-.21 2.85t.72 1.11q.84 0 3.18-1.08l1.44 2.88q-1.92 1.74-4.86 2.94-2.94 1.2-5.67 1.2t-4.35-1.41q-1.62-1.41-1.62-3.99t1.5-8.28q1.5-5.7 1.98-8.46-1.44.12-4.26.42-.24-1.26-.24-2.37t.3-2.49h4.8q.06-.78.06-5.22l-.12-2.46q5.82-1.92 11.1-1.92.42.96.42 3.33t-.78 6.27h5.4q0 2.46-1.02 4.62zm31.92 21.96q-4.8 0-9.6-1.68-3.48 1.32-8.04 1.32-1.02 0-1.86-.12 0-3.6 3.3-17.76 3.3-14.16 3.3-16.02 0-1.86-.69-3.3-.69-1.44-1.41-2.16l-.66-.66.24-1.5q1.5-.3 6.93-.87 5.43-.57 9.21-.57 14.64 0 14.64 9.42 0 4.38-2.97 7.14t-7.35 3.72q4.14.48 6.96 2.97 2.82 2.49 2.82 7.05 0 5.64-4.2 9.33-4.2 3.69-10.62 3.69zm-2.04-21q-1.08 0-2.4.18-2.34 10.26-3 14.88 1.32.78 3.6.78 3.48 0 5.22-2.88 1.74-2.88 1.74-6.51t-1.29-5.04q-1.29-1.41-3.87-1.41zm-1.32-4.38h.54q2.64 0 4.14-1.98 2.7-3.42 2.7-7.59t-2.88-4.17l-1.98.24q-.06 2.34-2.52 13.5zm30.54 25.38q-4.68 0-7.38-2.97t-2.7-8.37q0-6.6 3.9-11.19t10.26-4.59l2.7.24q1.44-.42 2.7-.42 3 0 4.29 2.04t1.47 5.82q2.52-.12 4.8-.78l.84-.24q.42.42.6 2.52l.06.66q-2.7 1.38-6.6 2.16-1.32 6.36-5.22 10.74-3.9 4.38-9.72 4.38zm1.2-11.58q0 5.58 2.82 5.58 1.98 0 4.05-2.52t2.85-6.12q-6.12 0-6.12-5.88 0-1.02.18-2.1-.6 0-.9.18-1.02 1.08-1.95 4.35-.93 3.27-.93 6.51zm32.28 7.5q-1.92 1.68-5.04 2.88t-5.67 1.2q-2.55 0-4.17-1.47t-1.62-4.23q0-2.76 3.03-15.39t3.03-18.75q0-1.32-.36-3.36 5.64-1.56 10.92-1.56.54.96.54 3.12 0 4.08-3.03 17.79-3.03 13.71-3.03 15.81 0 2.1.72 2.1.6 0 2.58-.78l.66-.3 1.44 2.94zm22.44 4.08q-3.72 0-4.8-2.88-4.56 2.88-8.13 2.88-3.57 0-5.76-2.43t-2.19-7.89q0-7.14 3.63-12.06 3.63-4.92 9.39-4.92 2.82 0 5.64 1.32 2.22-10.14 2.22-14.58 0-1.32-.18-2.64 5.58-1.56 10.74-1.56.48.78.48 3.69t-2.73 15.63q-2.73 12.72-2.73 17.04 0 2.28.78 2.28l2.58-.84 1.08 3.06q-5.28 3.9-10.02 3.9zm-7.86-6.06q1.08 0 2.4-.72v-.06q.24-4.86 2.34-15.3-1.2-.36-1.74-.36-1.26 0-2.22 1.26-.96 1.26-1.5 3.24-1.02 4.08-1.02 8.01 0 3.93 1.74 3.93z"/></svg>