<svg viewBox="0 0 417 80" xmlns="http://www.w3.org/2000/svg"><path d="M35.88 64.5q-6.06 0-10.74-3.15-4.68-3.15-7.29-8.79-2.61-5.64-2.61-12.78 0-7.2 2.61-12.84t7.29-8.79Q29.82 15 35.88 15q6.06 0 10.77 3.15t7.32 8.79q2.61 5.64 2.61 12.84 0 7.14-2.61 12.78t-7.32 8.79q-4.71 3.15-10.77 3.15zm0-5.22q4.26 0 7.56-2.46t5.13-6.87q1.83-4.41 1.83-10.17t-1.83-10.2q-1.83-4.44-5.13-6.9t-7.56-2.46q-4.26 0-7.53 2.46-3.27 2.46-5.1 6.9-1.83 4.44-1.83 10.2 0 5.76 1.83 10.17t5.1 6.87q3.27 2.46 7.53 2.46zm59.04-28.56q0 4.5-1.86 7.92t-5.28 5.28q-3.42 1.86-7.92 1.86h-9.18v18H64.5V15.72h15.36q4.5 0 7.92 1.86t5.28 5.25q1.86 3.39 1.86 7.89zm-6.18 0q0-4.74-2.64-7.35-2.64-2.61-7.32-2.61h-8.1v19.98h8.1q4.68 0 7.32-2.64 2.64-2.64 2.64-7.38zm43.92 0q0 4.5-1.86 7.92t-5.28 5.28q-3.42 1.86-7.92 1.86h-9.18v18h-6.18V15.72h15.36q4.5 0 7.92 1.86t5.28 5.25q1.86 3.39 1.86 7.89zm-6.18 0q0-4.74-2.64-7.35-2.64-2.61-7.32-2.61h-8.1v19.98h8.1q4.68 0 7.32-2.64 2.64-2.64 2.64-7.38zm32.7 33.78q-6.06 0-10.74-3.15-4.68-3.15-7.29-8.79-2.61-5.64-2.61-12.78 0-7.2 2.61-12.84t7.29-8.79Q153.12 15 159.18 15q6.06 0 10.77 3.15t7.32 8.79q2.61 5.64 2.61 12.84 0 7.14-2.61 12.78t-7.32 8.79q-4.71 3.15-10.77 3.15zm0-5.22q4.26 0 7.56-2.46t5.13-6.87q1.83-4.41 1.83-10.17t-1.83-10.2q-1.83-4.44-5.13-6.9t-7.56-2.46q-4.26 0-7.53 2.46-3.27 2.46-5.1 6.9-1.83 4.44-1.83 10.2 0 5.76 1.83 10.17t5.1 6.87q3.27 2.46 7.53 2.46zm28.14-31.2q0-3.9 1.86-6.87t5.31-4.59q3.45-1.62 8.19-1.62 5.76 0 9.69 2.43 3.93 2.43 5.37 6.93l-5.04 2.34q-2.22-6.36-9.9-6.36-4.56 0-6.9 1.92-2.34 1.92-2.34 5.58 0 2.28.96 3.75.96 1.47 3.15 2.52t6.09 1.89q7.98 1.68 11.46 5.07 3.48 3.39 3.48 9.39 0 4.08-2.07 7.29t-5.79 4.98q-3.72 1.77-8.52 1.77-6.36 0-10.71-2.76-4.35-2.76-5.97-7.8l5.04-2.4q1.26 3.72 4.23 5.67 2.97 1.95 7.41 1.95 4.8 0 7.5-2.28t2.7-6.3q0-2.52-1.05-4.2-1.05-1.68-3.48-2.88-2.43-1.2-6.63-2.1-7.32-1.56-10.68-4.77-3.36-3.21-3.36-8.55zm67.8 8.7V55.5q0 5.88.18 8.28h-5.1q-.18-1.08-.36-6.48-1.8 3.42-4.8 5.31-3 1.89-7.02 1.89-4.14 0-7.47-2.31t-5.22-6.48q-1.89-4.17-1.89-9.51 0-5.4 1.89-9.6 1.89-4.2 5.22-6.51 3.33-2.31 7.47-2.31 4.02 0 7.02 1.89t4.8 5.37q.24-5.52.36-6.54h5.1q-.18 2.52-.18 8.28zm-5.76 9.42q0-4.08-1.26-7.2t-3.54-4.8q-2.28-1.68-5.28-1.68-2.94 0-5.22 1.71t-3.54 4.8q-1.26 3.09-1.26 7.17 0 4.02 1.29 7.11 1.29 3.09 3.54 4.8t5.19 1.71q2.94 0 5.25-1.71t3.57-4.8q1.26-3.09 1.26-7.11zm44.22-5.82v23.4h-5.7v-22.5q0-4.32-2.01-6.42-2.01-2.1-6.09-2.1-4.56 0-7.32 3.15-2.76 3.15-2.76 8.37v19.5h-5.76v-27q0-4.92-.24-8.28h5.04q.3 1.92.36 6.36 3.78-7.08 12.6-7.08 5.58 0 8.73 3.33 3.15 3.33 3.15 9.27zm7.92-2.7q0-2.88 1.53-5.13t4.29-3.51q2.76-1.26 6.24-1.26 4.86 0 8.07 1.98t4.11 5.4l-4.5 2.04q-.72-2.34-2.49-3.57-1.77-1.23-5.01-1.23-3.06 0-4.8 1.32-1.74 1.32-1.74 3.78 0 2.28 1.71 3.48 1.71 1.2 6.09 1.92 6 .96 8.85 3.63 2.85 2.67 2.85 7.29 0 3.18-1.65 5.61t-4.56 3.75q-2.91 1.32-6.63 1.32-5.46 0-9-2.19t-4.74-6.33l4.5-2.04q.96 3 3.15 4.5t5.85 1.5q3.42 0 5.4-1.56 1.98-1.56 1.98-4.26 0-2.88-1.8-4.29-1.8-1.41-6.48-2.19-5.7-.96-8.46-3.42-2.76-2.46-2.76-6.54zm97.32-21.96v48.06h-6.12V24.6l-14.64 39.18h-6.3l-14.52-39v39h-5.64V15.72h8.28l15.24 41.16 15.24-41.16h8.46z"/></svg>