<svg viewBox="0 0 387 80" xmlns="http://www.w3.org/2000/svg"><path d="M34.8 63.9q-5.7 0-10.14-3.12t-6.9-8.64q-2.46-5.52-2.46-12.48 0-6.96 2.46-12.51t6.9-8.67q4.44-3.12 10.14-3.12t10.14 3.12q4.44 3.12 6.93 8.67 2.49 5.55 2.49 12.51t-2.49 12.48q-2.49 5.52-6.93 8.64Q40.5 63.9 34.8 63.9zm0-3.84q4.44 0 7.89-2.58 3.45-2.58 5.37-7.2t1.92-10.62q0-6-1.92-10.65t-5.37-7.2q-3.45-2.55-7.89-2.55-4.44 0-7.89 2.55-3.45 2.55-5.34 7.2-1.89 4.65-1.89 10.65t1.89 10.62q1.89 4.62 5.34 7.2t7.89 2.58zm55.8-29.64q0 4.32-1.77 7.59-1.77 3.27-5.04 5.07-3.27 1.8-7.59 1.8h-9.42v18.36H62.4V16.02h13.8q4.32 0 7.59 1.77 3.27 1.77 5.04 5.04t1.77 7.59zm-4.5 0q0-4.92-2.79-7.74-2.79-2.82-7.65-2.82h-8.88v21.18h8.88q4.86 0 7.65-2.82t2.79-7.8zm40.08 0q0 4.32-1.77 7.59-1.77 3.27-5.04 5.07-3.27 1.8-7.59 1.8h-9.42v18.36h-4.38V16.02h13.8q4.32 0 7.59 1.77 3.27 1.77 5.04 5.04t1.77 7.59zm-4.5 0q0-4.92-2.79-7.74-2.79-2.82-7.65-2.82h-8.88v21.18h8.88q4.86 0 7.65-2.82t2.79-7.8zm29.94 33.48q-5.7 0-10.14-3.12t-6.9-8.64q-2.46-5.52-2.46-12.48 0-6.96 2.46-12.51t6.9-8.67q4.44-3.12 10.14-3.12t10.14 3.12q4.44 3.12 6.93 8.67 2.49 5.55 2.49 12.51t-2.49 12.48q-2.49 5.52-6.93 8.64-4.44 3.12-10.14 3.12zm0-3.84q4.44 0 7.89-2.58 3.45-2.58 5.37-7.2t1.92-10.62q0-6-1.92-10.65t-5.37-7.2q-3.45-2.55-7.89-2.55-4.44 0-7.89 2.55-3.45 2.55-5.34 7.2-1.89 4.65-1.89 10.65t1.89 10.62q1.89 4.62 5.34 7.2t7.89 2.58zm27.12-32.34q0-5.64 3.84-9 3.84-3.36 10.5-3.36 5.22 0 8.94 2.34 3.72 2.34 5.1 6.48l-3.78 1.74q-2.22-6.6-10.2-6.6-4.86 0-7.38 2.1-2.52 2.1-2.52 6.18 0 2.46.99 4.05.99 1.59 3.24 2.73t6.33 2.1q7.74 1.8 11.04 5.01 3.3 3.21 3.3 8.85 0 4.02-1.92 7.08-1.92 3.06-5.4 4.77-3.48 1.71-8.04 1.71-5.82 0-9.9-2.64t-5.76-7.44l3.72-1.74q1.38 3.9 4.38 5.88t7.56 1.98q5.1 0 8.01-2.55t2.91-6.99q0-2.7-1.08-4.53t-3.54-3.09q-2.46-1.26-6.78-2.28-7.2-1.68-10.38-4.71-3.18-3.03-3.18-8.07zm63.84 9.24v18.12q0 5.46.18 8.16h-3.66q-.24-1.98-.36-7.14-1.62 3.72-4.62 5.76-3 2.04-7.02 2.04-4.08 0-7.26-2.25-3.18-2.25-4.95-6.3t-1.77-9.27q0-5.22 1.77-9.3 1.77-4.08 4.95-6.33t7.26-2.25q4.02 0 7.02 2.04t4.62 5.82q.12-5.34.36-7.2h3.66q-.18 2.7-.18 8.1zm-4.14 9.12q0-4.26-1.32-7.53-1.32-3.27-3.72-5.04-2.4-1.77-5.52-1.77-3.06 0-5.46 1.8t-3.75 5.04q-1.35 3.24-1.35 7.5 0 4.2 1.35 7.44t3.75 5.04q2.4 1.8 5.46 1.8 3.12 0 5.49-1.8t3.72-5.04q1.35-3.24 1.35-7.44zm40.74-5.82v22.98h-4.08V40.92q0-4.68-2.13-6.87-2.13-2.19-6.45-2.19-3.24 0-5.7 1.56t-3.81 4.38q-1.35 2.82-1.35 6.54v18.9h-4.14V36.96q0-4.5-.24-8.1h3.6q.24 1.56.42 6.9 1.74-3.78 4.89-5.67 3.15-1.89 7.47-1.89 5.46 0 8.49 3.15 3.03 3.15 3.03 8.91zm8.16-2.82q0-2.7 1.41-4.8 1.41-2.1 3.93-3.27 2.52-1.17 5.7-1.17 4.38 0 7.32 1.86 2.94 1.86 3.72 5.1l-3.36 1.5q-.66-2.52-2.49-3.75t-5.07-1.23q-3.3 0-5.16 1.5-1.86 1.5-1.86 4.2 0 2.46 1.77 3.78 1.77 1.32 6.21 2.1 5.7.96 8.34 3.48 2.64 2.52 2.64 7.02 0 3-1.5 5.31-1.5 2.31-4.2 3.57-2.7 1.26-6.12 1.26-5.1 0-8.37-2.13-3.27-2.13-4.35-6.15l3.36-1.44q1.02 3.24 3.24 4.74t6 1.5q3.54 0 5.7-1.77t2.16-4.71q0-3.12-1.86-4.68-1.86-1.56-6.48-2.4-5.52-.96-8.1-3.27t-2.58-6.15zm75.78 25.8l-14.64-20.4h-8.52v20.4h-4.38V16.02h16.92q5.94 0 9.39 3.66t3.45 9.78q0 5.82-3.15 9.42-3.15 3.6-8.67 3.96l15 20.4h-5.4zm-23.16-43.38v19.2h11.94q4.38 0 6.72-2.55t2.34-7.05q0-4.5-2.34-7.05t-6.72-2.55h-11.94z"/></svg>