<svg viewBox="0 0 594 80" xmlns="http://www.w3.org/2000/svg"><path d="M15.64 43.48q.06-.24.26-.21.21.03.38-.03-.47-.47-.58-1.26-.12-.79-.59-1.32.12-.29.2-.58.09-.29.5-.24-.17-1.29.06-2.4.24-1.11.73-2.11.5-.99 1.18-1.96.67-.97 1.31-1.96.53-.12.65.08.12.21.41-.08.94-.65 1.29-1.44.35-.79.35-1.73.53-1.52 1.2-3.02.67-1.49 1.55-2.78.88-1.29 1.88-2.25.99-.97 2.17-1.5.82-.7 2.08-1.29 1.26-.58 2.69-.91 1.44-.32 2.96-.35 1.52-.03 2.81.32.3.12.35-.14.06-.27.3-.27 2.93.36 5.24 1.18 2.32.82 3.96 2.28 1.11 1.76 2.11 3.78.99 2.02 1.55 4.22.56 2.2.5 4.54-.06 2.34-1 4.69-2.05 2.58-4.98 4.13-2.93 1.55-6.3 2.58-3.37 1.02-6.97 1.67-3.6.64-7 1.4.06 1.59 0 3.37-.06 1.79-.38 3.58-.33 1.78-.94 3.48-.62 1.7-1.67 3.17-1.17-.06-2.43.23-1.26.29-2.26.59-.47-.3-.91-.56-.44-.26-1.08-.32.17-.7-.32-1.47-.5-.76-1-1.49t-.64-1.47q-.15-.73.67-1.31-.47-.41-.47-1.29.24.23.59.23-.12-1.05.26-2.52.38-1.46.65-2.9.26-1.43.08-2.63-.17-1.21-1.4-1.73zm15.23-13.71q-.23.64-.38 1.14-.15.5-.32.91-.18.41-.38.82-.21.41-.44.93.11.36.47.53.35.18.47.53.82-.41 1.64-.62.82-.2 1.64-.32t1.64-.29q.82-.18 1.7-.59t1.84-.67q.97-.26 1.91-.56.93-.29 1.81-.67.88-.38 1.53-1.03-.82-.76-2.46-1.34-1.65-.59-3.55-.74-1.9-.14-3.81.27-1.9.41-3.31 1.7zm53.2-2.76q.06.41.03.62-.03.2-.06.38-.02.17-.02.38 0 .2.11.61-1.23 2-2.84 2.73-1.61.73-3.49 1.05-1.87.33-3.83.68-1.97.35-3.9 1.52-.76-.29-1.38 0-.61.29-1.78.18-.36.35-.88.49-.53.15-1.06.33.24.52.21 1.08t.14.91q2.06.17 4.55-.06 2.49-.23 4.89-.29.06.29-.06.38-.12.09-.06.32.41.29.82.73t.82.85q.41.41.85.68.44.26 1.03.2.23.47.32 1.03.09.55-.15 1.14-.94.64-1.87 1.32-.94.67-1.97 1.2-1.02.53-2.16.85-1.15.32-2.55.26h-.44q-.15 0-.38-.17-.47.29-1.32.17-.85-.12-1.32.18-.64-.3-1.55-.27-.91.03-1.61-.2-.94 1.23-1.7 2.64-.76 1.4-1.35 2.98 1.99.3 3.31.24t2.49-.21q1.17-.14 2.4-.29 1.23-.15 3.11-.09 1.17-.64 2.78-.85 1.61-.2 2.96-.67.47.17.82.61.35.44.67.82.33.39.68.68.35.29.88.23.23.24.32.56.09.32.15.61.05.3.2.5.15.21.5.15-.88 1.93-2.02 2.96-1.15 1.02-2.61 1.55t-3.25.82q-1.79.29-3.96.7-.52.12-.88-.02-.35-.15-.82-.15-1.34.29-3.22.53-1.87.23-3.81.17-1.93-.06-3.69-.5t-2.87-1.55q-.47-.41-.62-.97-.14-.55-.79-.85-.05-.76-.23-1.69-.18-.94-.35-1.97-.18-1.02-.27-2.02-.08-1 .09-1.82.18-.87.73-1.58.56-.7.39-1.52.29-.06.35-.32.06-.27.47-.21.35-1.05.76-1.99.41-.94.85-1.82.44-.88.88-1.78.44-.91.85-2.03-.82-.76-1.21-1.67-.38-.9-.55-1.81-.18-.91-.3-1.88-.11-.96-.41-1.96.59-.88 1.44-1.44.85-.55 1.85-.9.99-.35 2.16-.59 1.18-.23 2.46-.53 2.35-.76 4.19-1.17 1.85-.41 3.64-.67 1.78-.27 3.72-.5 1.93-.23 4.39-.7.53.52 1 .52.23-.52.55-.32.33.21.27-.32.58 1 1.49 1.67.91.67 2.02 1.14zm7.45 26.9q-.65 2.34-1.15 3.54-.49 1.2-1.49 2.49-.76-.12-1.06.18-.29.29-.64.52-.53.12-.76 0-.24-.11-.41-.26-.18-.15-.44-.29-.27-.15-.79-.15-.12-.47-.27-.88-.14-.41-.79-.29.12-.47.06-.79-.06-.32-.15-.59-.08-.26-.14-.52-.06-.27.06-.68-.3 0-.47-.41-.18-.41-.41-.82.17-1.05.35-1.99.18-.94.44-1.76.26-.82.44-1.64.17-.82-.18-1.7.24.18.35-.09.12-.26.18-.7.06-.44.06-.88t-.06-.73q.59-1.52.97-3.14.38-1.61.7-3.19.32-1.58.67-3.1.36-1.53.94-2.82.65-.11 1.44.15.79.26.96.67 1.53-1.17 2.7-2.84 1.17-1.67 2.4-3.25t2.73-2.81q1.49-1.23 3.78-1.47 1.17.88 2.6 1.79 1.44.91 2.38 2.37.46.24.79.5.32.26.79.56v.7q.7.64 1.14 1.49.44.85.79 1.82.35.97.7 1.93.36.97.82 1.85-.11.29-.11.5 0 .2.09.44.08.23.14.47.06.23 0 .64-.17 2.58-1.67 4.16-1.49 1.58-3.6 2.61-2.11 1.02-4.51 1.73-2.41.7-4.34 1.52 0 .23.21.23.2 0 .14.3 1.41.88 2.23 1.4.82.53 1.55.88.73.35 1.58.62.85.26 2.38.61 1.52.35 2.37.56.85.2 1.55.35.71.15 1.44.24.73.08 2.08.2.53.53.91 1.26t.49 1.47q.12.73.06 1.4-.06.68-.41 1.09.06.17.27.14.2-.03.44.03-.36.24-.59.59-.23.35-.47.7-.23.35-.53.62-.29.26-.82.32-1.81.7-4.57.09-2.75-.62-6.97-2.26-2.11-.82-3.43-1.44-1.32-.61-2.28-1.23-.97-.61-1.76-1.31-.79-.71-1.9-1.7zm8.37-20.1q-.64.94-1.43 1.7-.79.76-1.52 1.55-.74.79-1.32 1.76-.59.97-.82 2.25 2.05-.23 4.27-1.14 2.23-.91 4.22-1.73-.23-1.81-1.26-2.93-1.02-1.11-2.14-1.46zm55.2 25.14q-.59.29-1.08.52-.5.24-1.15.24-2.28-1.7-2.37-5.92-.09-4.22 1.79-10.72.29-.18.29-.71l-.53-.58q-.23 0-.44.06-.2.05-.32.41-1.52 1.11-3.34 2.31-1.81 1.2-3.78 2.23-1.96 1.02-3.98 1.67-2.02.64-3.96.64-4.92 0-7.38-4.98l-.47-.88-.47.76q-.17.24-.52.97-.36.73-.71 1.67t-.61 1.9q-.27.97-.21 1.67-.53.53-1.11 1.24-.59.7-.88 1.58-.12.47.12.88-.12.52-.53.82-.24.29-.5.55-.26.27-.44.56-.12.29-.14.59-.03.29-.09.58 0 .41-.12.76-1 2.05-1.58 2.67-.59.61-1.58.61-.47 0-1.53-.17-.76-.82-1.37-2.26-.62-1.43-.94-3.07-.32-1.64-.29-3.31.02-1.67.55-2.9 0-.06.47-1.18.47-1.11 1.2-2.87.73-1.75 1.67-3.89t1.88-4.16q.93-2.03 1.78-3.72.85-1.7 1.44-2.58.47-.71.85-1.32.38-.62.73-1.2 1.06-1.82 2.02-3.02.97-1.2 2.84-1.9 1.29.52 1.88 1.23l.12.64q.23.59.7.59.64.17 1.08.32.44.15.97.26.41.47.76 1.12.47.7.91 1.37.44.68.7 1.35.27.67.3 1.38.03.7-.27 1.46l.06.59q.29.53.12 1.46-.06.41-.06.85t.12.97q1.05.82 1.87.82.94 0 1.73-.44t1.5-.91q.46-.35.93-.61.47-.27.94-.32 1.05-1 1.9-1.76.85-.76 1.79-1.53 1.76-1.4 3.4-3.04 1.64-1.64 2.64-4.1.58-.36 1.23-.36.64 0 1.34.3.71.29 1.35.58.18.12.32.18.15.06.27.12 0 .58.47.99.23.18.29.24.06.05.18.11.87.47 1.11.94.41 1.35 1.46 2.05-.11.59.03 1.09.15.49.38 1.02.06.18.12.35.06.18.18.41l-1.12-.11.18 1.11q.12.82-.15 1.82-.26.99-.61 1.58.06 1.52.09 2.37.03.85-.09 1.58-.12.73-.32 1.38-.21.64-.56 1.41.23 3.75-.85 6.82-1.08 3.08-2.26 5.77-.11.3-.26.59-.15.29-.26.59-.53.17-.94.38-.41.2-.88.44zm39.43-4.11l-.11.24q-.36.99-1.03 2.02t-1.58 1.82q-.91.79-2.02 1.31-1.12.53-2.35.59-.76-.18-1.02-.38-.27-.21-.56-.38-.17-.12-.32-.21l-.26-.14-.71-.3.24-.76q.11-.47-.06-.73-.18-.26-.7-.73-.18-.18-.36-.35-.17-.18-.29-.36l-1-1.11 1.59-.41q1.46-.41 1.96-1.05.5-.65.38-2.17-1.17-.24-1.96-.06t-1.61.41q-1.06.29-2.14.5-1.09.2-2.38.2-.46 0-.87-.03t-.88-.08l-.59-.12q-.12-.65-.23-.73-.12-.09-.24-.21-.29-.29-.61-.79-.33-.5-.15-1.26-.29-.53-.35-1.05-.35.7-.53 1.46l-.23.59-.59.11q-.12.06-.17.27-.06.2-.06.32l-.3 1q-.11.11-.23.2-.12.09-.24.21-.11.52-.29 1.05-.17.53-.35 1-.29.76-.5 1.49-.2.73-.14 1.44l-.24.64q-.29.35-.64.56-.35.2-.71.38-.11.12-.32.2-.2.09-.32.15l-.18.64-.7.12q-.64.12-.91.18-.26.06-.61.06l-.59-.06q-.64-.53-1-.85-.35-.32-.82-.62-.52-.7-.58-1.05-.06-.35-.12-.65-.12-.35-.15-.58-.02-.24-.14-.35l-.76-.71.64-.52.06-1q1.17-2.99 2.49-5.74 1.32-2.76 2.72-5.63.47-.94.91-1.87.44-.94.91-1.88-.06-.17-.06-.41 0-.23.12-.53.64-.99 1.05-1.78.41-.79.82-1.61.47-1 .97-1.94.5-.93 1.26-1.93l.94-.41q.17-.06.41-.15.23-.09.53-.09l.88.12q1.64-.76 2.87-2.14 1.23-1.37 2.52-3.31l.58-.82.76.47q.3.18.82.32.53.15 1.12.33 1.05.23 1.99.52.94.3 1.52.88.35.94.41 1.41t.18.94q.17.99.32 1.99.15.99.21 2.22.29 1 .49 1.97.21.96.38 1.96.3 1.41.59 2.72.29 1.32.76 2.49.47 0 .59.06.29-.11.61-.17.33-.06.74-.12l.64-.06.24.59q.05.29.58.58.76.06 1.11.33.36.26.65.55.23.24.47.35l.88.36-.47.87q-.59 1.06-1.67 2.03-1.09.96-2.43 1.61.05.35.08.67.03.32.15.68.18.99.29 2.05.12 1.05 0 2.16zm-17.05-9.9q1.76-.12 3.2-.26 1.43-.15 3.19-.5-.41-1.76-.88-3.66-.47-1.91-1-3.78l-.35.58q-1.17 1.23-2.25 2.76-1.09 1.52-1.85 2.87-.35.53-.7 1.05-.35.53-.65 1.06.36-.06.68-.06.32 0 .61-.06zm32.82 4.4q-.53.11-.77.61-.23.5-.44 1.03-.2.52-.41.96-.2.44-.61.44-.06.47-.32.82-.27.35-.5.74-.24.38-.35.82-.12.44.11 1.02-.46.35-.58 1-.12.64-.27 1.23-.14.58-.49.99-.36.41-1.29.36-.18.23-.06.29.12.06.17.41-.64-.12-.96.09-.32.2-.79.26-1.12-.35-1.85-1.23t-1.29-1.96q-.55-1.09-.99-2.2-.44-1.11-.85-1.93.17-.65.05-1.26-.11-.62-.41-1.03 2.88-6.09 6.27-13.01 3.4-6.91 6.45-13.65 1.35.53 2.67 1.2 1.31.68 2.4 1.55 1.08.88 1.84 2.03.77 1.14 1 2.54-.12.36-.26.27-.15-.09-.27.09.24.29.27.41.03.11 0 .23-.03.12-.03.32 0 .21.17.56-.23-.06-.32.06t-.38 0q.23.64.15 1.05-.09.41-.27.74-.17.32-.29.7-.12.38.06.97-.18 0-.27.08-.08.09-.14.18-.06.09-.15.17-.09.09-.26.03.17 1.29.11 2.58-.05 1.29-.08 2.61-.03 1.32.03 2.75.05 1.44.41 2.96 2.11-1.23 3.37-3.16 1.26-1.93 2.05-4.34.79-2.4 1.2-5.15.41-2.76.88-5.63.52-.53.82-1.29.29-.76.52-1.61.24-.85.47-1.7.24-.85.59-1.55.88.12 1.49.56.62.44 1.15.93.52.5 1.11.94.58.44 1.46.56.71.99 1.29 1.93.59.94.76 1.99-.29.47-.44 1.06-.14.58-.32 1.17-.17.59-.47 1.08-.29.5-.82.85-.17 1.53-.44 2.79-.26 1.26-.52 2.49-.27 1.23-.44 2.55-.18 1.31-.12 2.9-.47 1.34-1 2.87-.52 1.52-.82 2.75-.93.76-1.46 1.82-.53 1.05-1.11 2.11-.24.23-.3.11-.06-.11-.41-.17.06.23 0 .35-.06.12-.14.2-.09.09-.12.27-.03.17.09.47-.82.35-1.47.99-.64.65-1.38 1.18-.73.52-1.75.7-1.03.17-2.67-.41-2.4-1.76-4.25-4.04-1.84-2.29-3.01-5.45zm54.55-22.33q.05.41.03.62-.03.2-.06.38-.03.17-.03.38 0 .2.11.61-1.23 2-2.84 2.73-1.61.73-3.48 1.05-1.88.33-3.84.68-1.96.35-3.9 1.52-.76-.29-1.37 0-.62.29-1.79.18-.35.35-.88.49-.53.15-1.06.33.24.52.21 1.08t.15.91q2.05.17 4.54-.06t4.89-.29q.06.29-.06.38-.12.09-.06.32.41.29.82.73t.82.85q.41.41.85.68.44.26 1.03.2.23.47.32 1.03.09.55-.15 1.14-.93.64-1.87 1.32-.94.67-1.96 1.2-1.03.53-2.17.85-1.14.32-2.55.26h-.44q-.15 0-.38-.17-.47.29-1.32.17-.85-.12-1.32.18-.64-.3-1.55-.27-.91.03-1.61-.2-.94 1.23-1.7 2.64-.76 1.4-1.35 2.98 1.99.3 3.31.24t2.49-.21q1.17-.14 2.4-.29 1.23-.15 3.11-.09 1.17-.64 2.78-.85 1.61-.2 2.96-.67.47.17.82.61.35.44.68.82.32.39.67.68.35.29.88.23.23.24.32.56.09.32.15.61.06.3.2.5.15.21.5.15-.88 1.93-2.02 2.96-1.14 1.02-2.61 1.55-1.46.53-3.25.82-1.79.29-3.96.7-.52.12-.87-.02-.36-.15-.82-.15-1.35.29-3.23.53-1.87.23-3.81.17-1.93-.06-3.69-.5-1.75-.44-2.87-1.55-.47-.41-.61-.97-.15-.55-.79-.85-.06-.76-.24-1.69-.17-.94-.35-1.97-.18-1.02-.26-2.02-.09-1 .08-1.82.18-.87.74-1.58.55-.7.38-1.52.29-.06.35-.32.06-.27.47-.21.35-1.05.76-1.99.41-.94.85-1.82.44-.88.88-1.78.44-.91.85-2.03-.82-.76-1.2-1.67-.38-.9-.56-1.81-.18-.91-.29-1.88-.12-.96-.41-1.96.58-.88 1.43-1.44.85-.55 1.85-.9.99-.35 2.17-.59 1.17-.23 2.46-.53 2.34-.76 4.19-1.17 1.84-.41 3.63-.67 1.79-.27 3.72-.5 1.93-.23 4.39-.7.53.52 1 .52.23-.52.56-.32.32.21.26-.32.59 1 1.49 1.67.91.67 2.03 1.14zm10.6 22.33q-.53.11-.76.61-.23.5-.44 1.03-.2.52-.41.96-.2.44-.62.44-.05.47-.32.82-.26.35-.5.74-.23.38-.35.82-.11.44.12 1.02-.47.35-.59 1-.11.64-.26 1.23-.15.58-.5.99-.35.41-1.29.36-.17.23-.06.29.12.06.18.41-.64-.12-.97.09-.32.2-.79.26-1.11-.35-1.84-1.23-.74-.88-1.29-1.96-.56-1.09-1-2.2-.44-1.11-.85-1.93.18-.65.06-1.26-.12-.62-.41-1.03 2.87-6.09 6.27-13.01 3.4-6.91 6.45-13.65 1.34.53 2.66 1.2 1.32.68 2.4 1.55 1.09.88 1.85 2.03.76 1.14 1 2.54-.12.36-.27.27-.14-.09-.26.09.23.29.26.41.03.11 0 .23-.03.12-.03.32 0 .21.18.56-.24-.06-.32.06-.09.12-.38 0 .23.64.14 1.05-.09.41-.26.74-.18.32-.29.7-.12.38.05.97-.17 0-.26.08-.09.09-.15.18-.05.09-.14.17-.09.09-.27.03.18 1.29.12 2.58t-.09 2.61q-.03 1.32.03 2.75.06 1.44.41 2.96 2.11-1.23 3.37-3.16 1.26-1.93 2.05-4.34.79-2.4 1.2-5.15.41-2.76.88-5.63.53-.53.82-1.29.3-.76.53-1.61.23-.85.47-1.7.23-.85.58-1.55.88.12 1.5.56.61.44 1.14.93.53.5 1.11.94.59.44 1.47.56.7.99 1.29 1.93.58.94.76 1.99-.29.47-.44 1.06-.15.58-.32 1.17-.18.59-.47 1.08-.29.5-.82.85-.18 1.53-.44 2.79t-.53 2.49q-.26 1.23-.44 2.55-.17 1.31-.11 2.9-.47 1.34-1 2.87-.53 1.52-.82 2.75-.94.76-1.47 1.82-.52 1.05-1.11 2.11-.23.23-.29.11-.06-.11-.41-.17.06.23 0 .35-.06.12-.15.2-.09.09-.12.27-.02.17.09.47-.82.35-1.46.99-.65.65-1.38 1.18-.73.52-1.76.7-1.02.17-2.66-.41-2.41-1.76-4.25-4.04-1.85-2.29-3.02-5.45zm55.2-17.52q-1.47 0-3.17.2-1.7.21-3.34.44-1.17.18-2.25.29-1.09.12-1.97.18-.41 1.29-.82 2.28-.41 1-.88 1.94-.46.99-.84 2.02-.39 1.03-.74 2.2-.58.93-.96 1.73-.38.79-.62 1.78-.7.88-1.05 1.85-.36.97-.53 1.67l-.24.7q-.35.35-.41.56-.05.2-.29.38-.06.64-.41 1.29-.12.29-.17.55-.06.27-.06.39 0 .58-.3.76.06.29 0 .61-.05.32-.11.62-.18.7-.12 1.11.18.24.32.41.15.18.21.47.35.23.52.29.24.18.71.41l.52.59q.3 1.7-.52 2.69-.88 1.12-2.99 1.12h-.7q-.3-.3-.36-.47-.46-.18-.76-.29-.29-.12-.52-.47-.77-.35-1.24-.59l-.52-.29v-.7q-.41-.53-.62-1.18-.2-.64-.32-1.29-.12-.52-.26-.99-.15-.47-.38-.82-.12-3.4.64-5.74.76-2.35 1.58-4.52.47-1.17.94-2.37.47-1.2.82-2.49l.53-.59q.41-.93.67-1.55.26-.61.56-1.26.17-.41.32-.79.15-.38.26-.67-.35 0-.64.03-.29.03-.59.08-.35.06-.64.09-.29.03-.59.03-.41 0-.58-.06-.65.3-1.41.3h-.59q-.17 0-.32-.03-.14-.03-.26-.03-.59 0-.94.17h-1.93q-.12 0-.3.03-.17.03-.29.03-.41 0-.88-.09-.47-.08-.99-.38-.71-.93-.94-.99l-.53-.71q-.06-.35-.17-.67-.12-.32-.24-.73-.23-.59-.44-1.26-.2-.68-.2-1.61.06-.47.23-.71.18-.23.29-.41l.18-.88.76.06h1.64q1.88 0 3.81-.14 1.93-.15 3.99-.33 1.17-.11 2.37-.23 1.2-.12 2.49-.23.23-.53.47-1l.58-.29q1.06-.06 1.5.26.44.32.73.62 1.29-.12 2.61-.27 1.32-.14 2.66-.38 2-.29 4.02-.53 2.02-.23 3.89-.23.82 0 1.59.06.76.06 1.4.17l.59.41q.17.36.5.65.32.29.67.58.7.65 1.41 1.53.7.88.52 2.58-.47.7-.7.82l-.53.7-.58-.06q-.35 0-.65.09-.29.09-.58.2-.24.12-.47.21-.24.09-.53.15-.53 0-.85-.03-.32-.03-.67-.03zm22.91 29q-.59 0-1.82-.18-.94-.99-1.67-2.72-.73-1.73-1.11-3.69-.38-1.96-.35-3.93.03-1.96.67-3.48 0-.06.56-1.41.55-1.35 1.43-3.43.88-2.08 1.99-4.63 1.12-2.55 2.23-5.01 1.11-2.46 2.14-4.48 1.02-2.02 1.79-3.13.52-.82.96-1.59.44-.76.85-1.4l1.2-1.96q.56-.91 1.23-1.65.68-.73 1.5-1.28.82-.56 1.99-.97.7.29 1.23.61.53.33.94.8l.17.82q.12.41.39.55.26.15.43.15.77.17 1.32.38.56.2 1.2.26.24.35.44.71.21.35.44.64 1.18 1.7 1.94 3.28.76 1.58 0 3.46l.06.64q.29.41.29.77 0 .35-.12.99-.06.47-.09 1.03-.03.55.15 1.2l.41.47q.94.47 1.82.47 1.17 0 2.11-.53.93-.53 1.75-1.06.65-.47 1.2-.76.56-.29 1.09-.41 1.23-1.17 2.25-2.08 1.03-.91 2.14-1.84 2.11-1.7 4.1-3.67 2-1.96 3.17-4.89.64-.41 1.46-.41t1.64.32q.82.33 1.64.74.18.11.33.17.14.06.32.18 0 .64.53 1.17.29.23.41.29.11.06.23.12.47.29.79.53.32.23.5.64.53 1.58 1.76 2.46-.12.65.06 1.26.17.62.41 1.2.11.24.17.44.06.21.18.5l-1.29-.12.18 1.29q.17 1-.15 2.23t-.73 1.93q.11 1.76.11 2.79 0 1.02-.11 1.9-.12.88-.38 1.67-.27.79-.68 1.67.24 4.45-1.02 8.14-1.26 3.7-2.73 6.92-.17.41-.35.76-.18.35-.29.7-.65.18-1.17.41-.53.24-1 .53-.65.41-1.29.67-.64.27-1.35.27-2.81-2.05-2.9-7.09-.09-5.04 2.14-12.83.41-.3.35-.88v-.65l-.58-.06q-.3 0-.53.06-.24.06-.35.53-1.88 1.35-4.07 2.78-2.2 1.44-4.55 2.64-2.34 1.2-4.77 1.99-2.43.79-4.72.79-5.86 0-8.85-5.97l-.52-1.06-.59.94q-.17.29-.61 1.14-.44.85-.88 1.97-.44 1.11-.76 2.28-.33 1.17-.21 2.05-.7.65-1.38 1.47-.67.82-.96 1.87-.12.29-.06.56.06.26.17.55-.06.41-.23.59-.18.18-.41.35-.29.29-.59.62-.29.32-.52.73-.12.35-.18.73t-.12.68q0 .64-.17.87-.59 1.24-1.03 2.03-.44.79-.85 1.2-.41.41-.85.55-.44.15-1.02.15zm84.25-5.98l-.11.24q-.35.99-1.03 2.02-.67 1.03-1.58 1.82t-2.02 1.31q-1.11.53-2.35.59-.76-.18-1.02-.38-.26-.21-.56-.38-.17-.12-.32-.21l-.26-.14-.71-.3.24-.76q.12-.47-.06-.73t-.7-.73q-.18-.18-.36-.35-.17-.18-.29-.36l-.99-1.11 1.58-.41q1.46-.41 1.96-1.05.5-.65.38-2.17-1.17-.24-1.96-.06t-1.61.41q-1.06.29-2.14.5-1.09.2-2.37.2-.47 0-.88-.03-.41-.03-.88-.08l-.59-.12q-.12-.65-.23-.73-.12-.09-.24-.21-.29-.29-.61-.79t-.15-1.26q-.29-.53-.35-1.05-.35.7-.53 1.46l-.23.59-.59.11q-.11.06-.17.27-.06.2-.06.32l-.3 1q-.11.11-.23.2-.12.09-.23.21-.12.52-.3 1.05-.17.53-.35 1-.29.76-.5 1.49-.2.73-.14 1.44l-.24.64q-.29.35-.64.56-.35.2-.7.38-.12.12-.33.2-.2.09-.32.15l-.18.64-.7.12q-.64.12-.91.18-.26.06-.61.06l-.59-.06q-.64-.53-.99-.85-.36-.32-.82-.62-.53-.7-.59-1.05-.06-.35-.12-.65-.11-.35-.14-.58-.03-.24-.15-.35l-.76-.71.64-.52.06-1q1.17-2.99 2.49-5.74 1.32-2.76 2.73-5.63.46-.94.9-1.87.44-.94.91-1.88-.06-.17-.06-.41 0-.23.12-.53.65-.99 1.06-1.78.41-.79.82-1.61.46-1 .96-1.94.5-.93 1.26-1.93l.94-.41q.18-.06.41-.15.23-.09.53-.09l.88.12q1.64-.76 2.87-2.14 1.23-1.37 2.52-3.31l.58-.82.76.47q.3.18.83.32.52.15 1.11.33 1.05.23 1.99.52.94.3 1.52.88.36.94.41 1.41.06.47.18.94.18.99.32 1.99.15.99.21 2.22.29 1 .5 1.97.2.96.38 1.96.29 1.41.58 2.72.3 1.32.76 2.49.47 0 .59.06.29-.11.61-.17.33-.06.74-.12l.64-.06.24.59q.05.29.58.58.76.06 1.12.33.35.26.64.55.23.24.47.35l.88.36-.47.87q-.59 1.06-1.67 2.03-1.08.96-2.43 1.61.06.35.09.67.02.32.14.68.18.99.29 2.05.12 1.05 0 2.16zm-17.05-9.9q1.76-.12 3.2-.26 1.43-.15 3.19-.5-.41-1.76-.88-3.66-.47-1.91-.99-3.78l-.36.58q-1.17 1.23-2.25 2.76-1.09 1.52-1.85 2.87-.35.53-.7 1.05-.35.53-.65 1.06.36-.06.68-.06.32 0 .61-.06zm30.24 8.97q-.65 2.34-1.14 3.54-.5 1.2-1.5 2.49-.76-.12-1.05.18-.3.29-.65.52-.52.12-.76 0-.23-.11-.41-.26-.18-.15-.44-.29-.26-.15-.79-.15-.12-.47-.26-.88-.15-.41-.79-.29.11-.47.05-.79-.05-.32-.14-.59-.09-.26-.15-.52-.06-.27.06-.68-.29 0-.47-.41-.17-.41-.41-.82.18-1.05.35-1.99.18-.94.44-1.76.27-.82.44-1.64.18-.82-.17-1.7.23.18.35-.09.11-.26.17-.7.06-.44.06-.88t-.06-.73q.59-1.52.97-3.14.38-1.61.7-3.19.32-1.58.68-3.1.35-1.53.93-2.82.65-.11 1.44.15.79.26.97.67 1.52-1.17 2.69-2.84t2.4-3.25q1.23-1.58 2.73-2.81 1.49-1.23 3.78-1.47 1.17.88 2.61 1.79 1.43.91 2.37 2.37.47.24.79.5.32.26.79.56v.7q.7.64 1.14 1.49.44.85.79 1.82.36.97.71 1.93.35.97.82 1.85-.12.29-.12.5 0 .2.09.44.09.23.14.47.06.23 0 .64-.17 2.58-1.67 4.16-1.49 1.58-3.6 2.61-2.11 1.02-4.51 1.73-2.4.7-4.34 1.52 0 .23.21.23.2 0 .15.3 1.4.88 2.22 1.4.82.53 1.55.88.74.35 1.59.62.85.26 2.37.61t2.37.56q.85.2 1.56.35.7.15 1.43.24.73.08 2.08.2.53.53.91 1.26t.5 1.47q.11.73.06 1.4-.06.68-.41 1.09.05.17.26.14.2-.03.44.03-.35.24-.59.59-.23.35-.47.7-.23.35-.52.62-.3.26-.82.32-1.82.7-4.57.09-2.76-.62-6.98-2.26-2.11-.82-3.42-1.44-1.32-.61-2.29-1.23-.97-.61-1.76-1.31-.79-.71-1.9-1.7zm8.38-20.1q-.65.94-1.44 1.7-.79.76-1.52 1.55t-1.32 1.76q-.59.97-.82 2.25 2.05-.23 4.28-1.14l4.22-1.73q-.24-1.81-1.26-2.93-1.03-1.11-2.14-1.46zm49.98 24.08q-2.81.12-4.95-.12-2.14-.23-4.19-1.11-.12-.06-.24-.29-.11-.24-.23-.35-.35-.18-.85-.15t-.85-.09q-.47-.23-1.47-.91-.99-.67-1.81-1.26-1.06-.82-1.99-1.64-.94-.82-1.64-1.76-.18-.23-.47-.26-.3-.03-.53-.15-1.7 1.06-2.87 2.64-1.17 1.58-2.23 3.22-1.05 1.64-2.23 3.11-1.17 1.46-2.98 2.23-.53 0-.94-.18-.41-.18-.76-.44-.35-.26-.71-.5-.35-.23-.76-.35 0-.7-.26-1.29-.26-.58-.53-1.11-.26-.53-.38-1.03-.12-.49.23-.96-.35-.35-1.05-.76.35-.36.32-.65-.03-.29-.14-.59-.12-.29-.21-.64-.09-.35.15-.7.29 0 .7-.12-.35-.47-.32-.56.03-.08-.15-.26-.12-.35.12-.44.23-.09.47-.21.23-2.87.99-5.33.77-2.46 1.7-4.74.94-2.29 1.85-4.63.91-2.35 1.49-5.04.65-.65 1.03-1.52.38-.88.82-1.76.44-.88.99-1.73.56-.85 1.56-1.38.82.06 1.46.44.65.38 1.58.32.18.3.33.59.14.29.38.59l.88-.18q.64.53 1.14 1.32.5.79.67 1.67.18.88-.06 1.67-.23.79-1.11 1.26.06.29.03.44-.03.14-.09.26t-.06.24q0 .11.18.35-1.17.88-1.76 2.46-.58 1.58-.64 2.81.7-.7 1.55-1.38.85-.67 1.76-1.31.91-.65 1.76-1.24.85-.58 1.55-1.17 1.93-1.76 3.72-2.84 1.79-1.08 3.78-2.43.47-.12.73-.03t.56.21q0-.36-.21-.42-.2-.05-.14-.46.87-.24 1.52-.56.64-.32 1.41-.62.52.53.99 1.09.47.55 1.29.67.29.65.7.97.41.32.82.61.41.3.74.71.32.41.38 1.29-.24.41-.5.88-.26.46-.5 1.11-1.17 1.05-2.37 1.87-1.2.82-2.43 1.59-1.23.76-2.52 1.52t-2.64 1.82q-.29.41-.73.73t-.91.64q-.47.32-.88.68-.41.35-.64.82-.18.06-.36.06-.17 0-.35.05-.17.41-.55.65-.38.23-.5.64.88 1.88 2.28 2.87 1.41 1 3.17 1.44 1.76.44 3.81.47 2.05.03 4.27.03.24-.06.21-.27-.03-.2.26-.14 1.41.47 2.17 1.32.76.85 1.82 1.67-.12 2.22-1.35 3.69-1.23 1.46-3.28 2.34zm36.09-30.88q.06.41.03.62-.03.2-.06.38-.03.17-.03.38 0 .2.12.61-1.23 2-2.84 2.73-1.61.73-3.49 1.05-1.87.33-3.84.68-1.96.35-3.89 1.52-.76-.29-1.38 0-.61.29-1.79.18-.35.35-.88.49-.52.15-1.05.33.23.52.2 1.08-.02.56.15.91 2.05.17 4.54-.06t4.9-.29q.05.29-.06.38-.12.09-.06.32.41.29.82.73t.82.85q.41.41.85.68.44.26 1.02.2.24.47.33 1.03.08.55-.15 1.14-.94.64-1.88 1.32-.93.67-1.96 1.2-1.02.53-2.17.85-1.14.32-2.55.26h-.43q-.15 0-.39-.17-.46.29-1.31.17-.85-.12-1.32.18-.65-.3-1.56-.27-.9.03-1.61-.2-.93 1.23-1.7 2.64-.76 1.4-1.34 2.98 1.99.3 3.31.24t2.49-.21q1.17-.14 2.4-.29 1.23-.15 3.11-.09 1.17-.64 2.78-.85 1.61-.2 2.96-.67.47.17.82.61.35.44.67.82.32.39.68.68.35.29.87.23.24.24.33.56.08.32.14.61.06.3.21.5.14.21.5.15-.88 1.93-2.03 2.96-1.14 1.02-2.6 1.55-1.47.53-3.25.82-1.79.29-3.96.7-.53.12-.88-.02-.35-.15-.82-.15-1.35.29-3.22.53-1.88.23-3.81.17-1.93-.06-3.69-.5t-2.87-1.55q-.47-.41-.62-.97-.14-.55-.79-.85-.06-.76-.23-1.69-.18-.94-.35-1.97-.18-1.02-.27-2.02-.09-1 .09-1.82.18-.87.73-1.58.56-.7.38-1.52.3-.06.35-.32.06-.27.47-.21.35-1.05.76-1.99.41-.94.85-1.82.44-.88.88-1.78.44-.91.85-2.03-.82-.76-1.2-1.67-.38-.9-.56-1.81-.17-.91-.29-1.88-.12-.96-.41-1.96.59-.88 1.44-1.44.85-.55 1.84-.9 1-.35 2.17-.59 1.17-.23 2.46-.53 2.35-.76 4.19-1.17 1.85-.41 3.63-.67 1.79-.27 3.72-.5 1.94-.23 4.4-.7.53.52 1 .52.23-.52.55-.32.32.21.27-.32.58 1 1.49 1.67.91.67 2.02 1.14zm7.44 26.9q-.64 2.34-1.14 3.54-.5 1.2-1.49 2.49-.77-.12-1.06.18-.29.29-.64.52-.53.12-.76 0-.24-.11-.41-.26-.18-.15-.44-.29-.27-.15-.8-.15-.11-.47-.26-.88-.15-.41-.79-.29.12-.47.06-.79-.06-.32-.15-.59-.09-.26-.14-.52-.06-.27.05-.68-.29 0-.46-.41-.18-.41-.41-.82.17-1.05.35-1.99.17-.94.44-1.76.26-.82.44-1.64.17-.82-.18-1.7.23.18.35-.09.12-.26.18-.7.06-.44.06-.88t-.06-.73q.58-1.52.96-3.14.38-1.61.71-3.19.32-1.58.67-3.1.35-1.53.94-2.82.64-.11 1.43.15.8.26.97.67 1.52-1.17 2.7-2.84 1.17-1.67 2.4-3.25t2.72-2.81q1.5-1.23 3.78-1.47 1.17.88 2.61 1.79t2.37 2.37q.47.24.79.5.33.26.79.56v.7q.71.64 1.15 1.49.44.85.79 1.82.35.97.7 1.93.35.97.82 1.85-.12.29-.12.5 0 .2.09.44.09.23.15.47.06.23 0 .64-.18 2.58-1.67 4.16t-3.6 2.61q-2.11 1.02-4.52 1.73-2.4.7-4.33 1.52 0 .23.2.23.21 0 .15.3 1.41.88 2.23 1.4.82.53 1.55.88.73.35 1.58.62.85.26 2.37.61 1.53.35 2.38.56.85.2 1.55.35.7.15 1.44.24.73.08 2.08.2.52.53.9 1.26t.5 1.47q.12.73.06 1.4-.06.68-.41 1.09.06.17.26.14.21-.03.44.03-.35.24-.58.59-.24.35-.47.7-.24.35-.53.62-.29.26-.82.32-1.82.7-4.57.09-2.75-.62-6.97-2.26-2.11-.82-3.43-1.44-1.32-.61-2.29-1.23-.96-.61-1.75-1.31-.79-.71-1.91-1.7zm8.38-20.1q-.64.94-1.43 1.7-.79.76-1.53 1.55-.73.79-1.32 1.76-.58.97-.82 2.25 2.05-.23 4.28-1.14 2.23-.91 4.22-1.73-.23-1.81-1.26-2.93-1.02-1.11-2.14-1.46z"/></svg>