<?xml version="1.0" encoding="utf-8"?>
<!-- Generator: Adobe Illustrator 24.0.0, SVG Export Plug-In . SVG Version: 6.00 Build 0)  -->
<svg version="1.1" id="图层_1" xmlns="http://www.w3.org/2000/svg" xmlns:xlink="http://www.w3.org/1999/xlink" x="0px" y="0px"
	 viewBox="0 0 440 80" style="enable-background:new 0 0 440 80;" xml:space="preserve">
<path d="M24.3,42.4c-0.1-0.2-0.2-0.3-0.2-0.4l0,0c0-0.2,0.1-0.3,0.4-0.5c0.3-0.1,0.4-0.3,0.6-0.4l0,0c0.1,0.4,0.4,0.7,0.8,0.7l0,0
	c0.2,0,0.5-0.1,1-0.3l0,0c4.2-1.4,7.9-2.3,11.2-2.9l0,0c0.3-0.2,0.8-0.4,1.4-0.6l0,0c0.7-0.1,1.2-0.3,1.6-0.6l0,0
	c0.2-2.1,0.6-4.6,1.3-7.6l0,0l-2.3,1c-0.4,0.4-1,0.8-1.6,1c-0.6,0.3-1.4,0.5-2.3,0.8l0,0c-0.9,0.2-1.5,0.4-1.9,0.6l0,0
	c-0.3,0.2-0.8,0.4-1.6,0.4l0,0c-0.7,0-1.2,0.1-1.6,0.4l0,0c-0.1,0.2-0.2,0.2-0.2,0.2l0,0c-0.1,0-0.1-0.2-0.1-0.6l0,0
	c-0.5-0.2-0.9-0.6-1.3-1.1s-0.6-1.1-1-1.9l0,0c-0.1-0.2-0.1-0.4-0.1-0.6c0.1-0.2,0.2-0.4,0.4-0.8c0.2-0.3,0.4-0.6,0.4-0.8l0,0
	c0.8-1.2,2-2.6,3.5-4.3l0,0c0.4-0.4,0.8-0.9,1.2-1.5s1-1.2,1.5-1.9l0,0c0.1-0.5,0-1-0.2-1.6s-0.5-1-0.9-1.3l0,0
	c-0.3,0-0.4-0.1-0.4-0.3l0,0c0-0.1,0.2-0.2,0.5-0.4l0,0c2,0,3.7,0.5,5.2,1.4l0,0c0.2,0.2,0.6,0.4,1.3,0.8c0.7,0.4,1.1,0.8,1.3,1.2
	l0,0c-0.1,0.4-0.4,0.7-1,1.1l0,0c-0.5,0.4-0.8,0.7-1,1l0,0c-0.3,0.4-0.9,0.9-1.6,1.6l0,0c-0.5,0.4-0.9,0.9-1.4,1.4s-0.8,1-1.1,1.4
	l0,0l3.1-1c0.2-0.1,0.8-0.4,1.7-0.7l0,0c0.7-0.2,1.2-0.4,1.5-0.6c0.3-0.1,0.6-0.4,0.9-0.7l0,0l2.2-11.2c-0.1-0.2-0.3-0.4-0.7-0.8
	s-0.7-0.6-0.8-0.8c-0.2-0.2-0.2-0.5,0-0.8l0,0c0.3-0.2,0.6-0.2,0.7-0.2l0,0c0.3,0,0.5,0,0.8,0.1c0.2,0.1,0.4,0.1,0.6,0.1l0,0h0.1
	c0.2,0.4,0.7,0.7,1.5,1l0,0c0.1,0,0.3,0.1,0.5,0.2c0.2,0.1,0.4,0.2,0.5,0.3l0,0c0.6,0.2,1,0.7,1,1.6l0,0c0,0.4-0.1,1-0.2,1.6l0,0
	c-0.1,1.6-0.3,3.3-0.7,5.2l0,0L48.5,22c0.7,0,1.5-0.3,2.6-0.9l0,0c0.6-0.3,1.2-0.6,1.8-0.7l0,0c0.9,0.2,1.8,0.5,2.5,1.1
	c0.8,0.6,1.4,1.2,2,2l0,0C57,23.6,56.5,23.8,56,24s-0.9,0.4-1.1,0.5l0,0c-1.6,0.7-3,1.2-4.2,1.6l0,0c-0.3,0.2-0.8,0.5-1.6,0.8l0,0
	c-0.7,0.2-1.3,0.6-1.8,1l0,0c-0.2,1-0.5,2.4-0.7,4.2l0,0c-0.1,1.5-0.3,2.8-0.6,3.8l0,0l7.4-2.2c0.3,0,1.1-0.3,2.2-0.7l0,0
	c1.3-0.5,2.2-0.7,2.9-0.7l0,0c0.2,0,0.4,0,0.5,0.1l0,0c0.3,0.3,0.8,0.6,1.4,0.8l0,0c0.7,0.3,1.2,0.6,1.5,0.8
	c0.3,0.3,0.5,0.7,0.6,1.3l0,0l-0.4,0.2c-0.8,0.4-1.5,0.6-2.3,0.8s-1.9,0.4-3.2,0.6l0,0c-0.5,0-1.1,0.2-1.7,0.3s-1.2,0.4-1.8,0.6l0,0
	c-0.8,0.3-1.6,0.6-2.1,0.8c-0.6,0.2-1.2,0.3-1.8,0.3l0,0c-0.2-0.1-0.3-0.1-0.3-0.1l0,0c-0.2,0-0.4,0.1-0.7,0.4
	c-0.3,0.2-0.5,0.4-0.6,0.4l0,0c-0.2,0-0.3,0-0.3-0.1l0,0c-0.1-0.2-0.2-0.3-0.2-0.3l0,0c-0.1,0-0.2,0.1-0.3,0.3s-0.2,0.3-0.4,0.4l0,0
	c-1,0-1.6,0.2-2,0.7l0,0c-0.3,0.1-0.7,0.2-1,0.4c-0.4,0.2-0.7,0.3-0.8,0.4l0,0c-1,0.4-1.7,0.7-2.2,0.8l0,0c-0.9,0.2-1.9,0.5-2.9,0.8
	s-1.7,0.6-2,0.7l0,0c-0.6,0.2-1.2,0.3-1.9,0.6c-0.7,0.2-1.5,0.4-2.3,0.7l0,0c-0.5,0-1,0.1-1.6,0.3l0,0c-1.2,0.2-1.9,0.3-2.2,0.3l0,0
	c-0.7,0-1.3-0.2-1.7-0.5l0,0c-0.1-0.3-0.3-0.7-0.7-1.2l0,0C24.7,43.3,24.4,42.9,24.3,42.4L24.3,42.4z M16.4,30.7
	c-0.7-0.3-1.1-0.7-1.1-1.2l0,0c0-0.2,0.1-0.5,0.2-0.7l0,0c0.9,0,1.7,0.1,2.5,0.4s1.4,0.7,1.9,1.3l0,0c0.2-0.1,0.4-0.1,0.6-0.1l0,0
	c0.5,0,1,0.2,1.3,0.6c0.4,0.4,0.5,0.9,0.5,1.4l0,0c-0.2,0.4-0.5,0.7-0.8,0.9s-0.8,0.4-1.4,0.5l0,0c-1,0.2-1.6,0.5-2,0.9l0,0
	c-0.3-0.2-0.5-0.4-0.6-0.7c-0.1-0.3-0.2-0.7-0.2-1.2l0,0c0-0.5-0.1-0.9-0.2-1.3C16.8,31.1,16.6,30.9,16.4,30.7L16.4,30.7z M11,59.3
	V59c0-0.6,0.4-1,1.3-1l0,0c0.1,0,0.5,0.1,1.3,0.2l0,0h0.2c0.2,0,0.4,0,0.6,0.1c0.2,0.1,0.4,0.1,0.6,0.1l0,0c0.3,0,0.4-0.1,0.5-0.4
	l0,0c0.1-0.8,0.3-1.9,0.6-3.4l0,0c0.5-2.2,0.7-3.8,0.7-4.9l0,0c0.4-1.5,0.7-3.2,0.8-5.1l0,0c0.1-0.4,0.1-0.7-0.1-1
	c-0.2-0.2-0.5-0.5-1-0.8l0,0c-0.7-0.4-1.1-0.8-1.1-1.3l0,0c0-0.5,0.2-0.8,0.7-0.8l0,0c0.3,0,0.6,0.1,1,0.2c0.4,0.1,0.6,0.2,0.8,0.3
	l0,0c0,0,0.1,0.1,0.2,0.1l0,0l0,0l0,0l0,0c0-0.1,0-0.2-0.1-0.4s-0.1-0.2-0.1-0.3l0,0c0.2,0.4,0.5,0.8,0.9,1c0.4,0.2,1,0.5,1.8,0.8
	l0,0c1.2,0.4,2.1,0.9,2.6,1.5l0,0c0.1,0.6,0,1.1-0.1,1.7c-0.2,0.6-0.3,1-0.3,1.1l0,0c-0.3,1.1-0.5,2-0.5,2.5l0,0
	c-0.2,0.6-0.2,1.6-0.2,2.9l0,0c0,1-0.1,1.8-0.2,2.3c-0.1,0.5-0.3,1.1-0.5,1.6l0,0c-0.1,0.3-0.1,0.6-0.1,0.9l0,0
	c0,0.3,0.1,0.6,0.2,0.9c0.1,0.3,0.3,0.4,0.4,0.4l0,0c0.1,0,0.2-0.1,0.4-0.2l0,0h4.3c2.3,0,4.6,0.1,7,0.4l0,0h0.1l0.8,0.1
	c0.4,0,0.5-0.1,0.4-0.3l0,0c-0.6-0.4-1.1-1-1.4-1.8c-0.4-0.7-0.5-1.5-0.5-2.3l0,0c0-0.4,0.1-0.9,0.2-1.4l0,0
	c0.2-0.6,0.3-1.3,0.3-2.2l0,0l-0.1-2c0-1.1,0.2-2,0.5-2.8l0,0c0.4,0.6,0.9,1,1.3,1.2s1,0.3,1.6,0.3l0,0l1.5-0.7
	c3.6-1.7,6.6-2.9,9.1-3.7l0,0c0.2,0,0.4-0.1,0.5-0.2c0.1-0.1,0.2-0.3,0.3-0.5s0.1-0.4,0.2-0.5l0,0c0.1,0,0.3-0.1,0.5-0.1l0,0
	c0.4,0,0.8,0.1,1.2,0.3s0.7,0.4,0.8,0.8l0,0c0,0.3,0.1,0.6,0.2,0.7c0.2,0.1,0.5,0.3,0.9,0.4c0.4,0.1,0.7,0.3,0.8,0.6l0,0
	c0.1,0.2,0.3,0.4,0.5,0.7c0.3,0.3,0.5,0.6,0.6,0.8s0.1,0.5,0,0.8l0,0c-0.1,0.6-0.5,1.2-1.1,1.8l0,0c0,0.1-0.2,0.3-0.4,0.6
	s-0.4,0.6-0.5,1l0,0v0.1c0,0.2-0.1,0.3-0.2,0.5c-0.1,0.2-0.2,0.3-0.2,0.4c0,0.1,0,0.2,0.1,0.3l0,0l1.7-0.5c1.2-0.3,2.2-0.6,2.9-0.9
	c0.7-0.3,1.4-0.6,2.1-1l0,0c0.2-0.1,0.4-0.2,0.5-0.2l0,0c0.3,0,0.5,0.2,0.8,0.5s0.4,0.6,0.6,0.8l0,0c-1,0.5-2.5,1.5-4.5,2.8l0,0
	c-0.4,0.4-0.8,0.7-1.3,1c-0.5,0.2-0.9,0.5-1.4,0.6c-0.4,0.2-0.7,0.3-0.8,0.3l0,0c-1,0.3-1.7,0.6-2.3,0.9c-0.6,0.3-1.1,0.8-1.5,1.4
	l0,0c-0.2,0.6-0.6,0.8-1.2,0.8l0,0c-0.7,0-1.3-0.2-1.9-0.7l0,0c-0.2,0.1-0.4,0.2-0.6,0.3c-0.2,0.1-0.4,0.1-0.6,0.2l0,0
	c-1.1,0.3-1.9,0.7-2.3,1.2l0,0L61,60.5h0.2c0.3,0,0.7,0,1.3,0.1l0,0c0.5,0.1,0.9,0.2,1.4,0.2l0,0c0.6,0,1.1-0.1,1.4-0.4l0,0
	c0-0.4,0.3-0.7,0.9-0.7l0,0c0.2,0,0.4,0,0.5,0.1l0,0c0.2,1.1,0.5,2.5,0.9,4.1l0,0l0.4,1.6c0.1,0.2,0.2,0.5,0.2,0.7l0,0
	c0,0.4-0.2,0.7-0.7,0.8l0,0h-0.3c-0.4,0-0.8,0-1.2-0.1C65.2,67,64.8,67,64.4,67l0,0c-0.6,0-1.2,0.1-1.6,0.4l0,0h-0.1
	c-0.1,0-0.2-0.1-0.2-0.2l0,0c0-0.1,0-0.2,0.1-0.4s0.1-0.3,0.1-0.4l0,0c-0.6,0.7-1.8,1-3.4,1l0,0h-0.1c-0.1,0-0.2-0.1-0.2-0.4
	s-0.1-0.3-0.3-0.3l0,0c-0.5,0.6-1.1,1-1.9,1l0,0c-0.4,0-0.8-0.1-1.1-0.2l0,0c-0.2,0-0.5,0.2-0.9,0.5s-0.8,0.4-1.1,0.4l0,0h-0.4h-0.1
	c0,0,0.2-0.1,0.5-0.2s0.5-0.2,0.4-0.3l0,0l-2.9,0.9l-0.1-0.2c0-0.1,0.1-0.2,0.3-0.3c0.2-0.1,0.3-0.1,0.4-0.1l0,0
	c0.9-0.4,2-0.9,3.1-1.2c1.2-0.4,1.9-0.6,2.3-0.8l0,0c0.5-0.1,1.2-0.3,2.2-0.7l0,0c0.1,0,0.3-0.2,0.5-0.4c0.2-0.2,0.3-0.4,0.2-0.4
	l0,0l-5.6-0.1c-3.3-0.6-6.7-1-10.1-1.2S37,63,32.7,62.9l0,0c-0.5-0.1-1.2-0.2-2.3-0.2l0,0h-2.9c-1,0-2.5-0.1-4.6-0.1l0,0
	c-2.1,0-3.8,0-5.2-0.1c-1.4-0.1-2.8-0.3-4.1-0.5l0,0c-0.7-0.1-1.3-0.4-1.7-0.9C11.5,60.6,11.1,60,11,59.3L11,59.3z M37.4,55.6
	l7.3-2.6c0.3-0.3,0.6-0.7,0.8-1.1c0.2-0.5,0.4-0.9,0.6-1.3l0,0c0.3-0.8,0.6-1.5,1-2l0,0c0-0.3,0.2-0.6,0.6-1s0.5-0.8,0.5-1l0,0
	c-0.1,0-0.2,0-0.2-0.1c-0.1,0-0.1-0.1-0.2-0.1l0,0c-0.5,0-1.1,0.3-1.9,0.8l0,0c-0.8,0.5-1.5,0.7-2,0.8l0,0c-0.7,0.1-1.6,0.5-2.6,1.1
	l0,0c-0.8,0.4-1.4,0.7-1.8,0.9c-0.4,0.2-0.9,0.3-1.4,0.3l0,0h-0.2L37.4,55.6z"/>
<path d="M95,18.2c-0.1-0.4-0.1-0.7,0.1-1c0.1-0.3,0.3-0.7,0.5-1.1l0,0c0.4-0.6,0.7-1.1,0.7-1.4l0,0c-0.2-0.1-0.3-0.2-0.3-0.2l0,0
	c0-0.1,0.1-0.2,0.3-0.2s0.4-0.2,0.5-0.3c0.2-0.1,0.2-0.3,0.2-0.5l0,0l0.1-0.2c0-0.2-0.1-0.3-0.3-0.4c-0.2-0.1-0.4-0.2-0.5-0.4l0,0
	c0,0-0.2-0.2-0.5-0.5s-0.4-0.5-0.2-0.5l0,0c0.3-0.2,0.7-0.2,1-0.2l0,0c0.4,0,1.1,0.2,1.9,0.6l0,0c0.7,0.3,1.3,0.5,1.6,0.5l0,0
	l0.5-0.1c0.9,0,1.6,0.4,2.1,1.2s0.8,1.8,1.1,2.8l0,0c0.1,0.2,0.1,0.4,0.1,0.5l0,0c0,0.2-0.1,0.6-0.4,1.1c-0.2,0.5-0.3,0.9-0.1,1.3
	l0,0l-0.1,0.2c0,0.1,0.1,0.3,0.2,0.7s0.1,0.5-0.1,0.6l0,0l-0.5-0.3c0.1,0.4,0.1,0.8-0.2,1.2c-0.2,0.4-0.6,0.6-1,0.6l0,0h-0.3
	c-0.1,0-0.2,0-0.1-0.3c0-0.2,0-0.4-0.1-0.4l0,0c-0.2,0.1-0.3,0.2-0.5,0.2l0,0c-0.3,0-0.5-0.2-0.8-0.5c-0.2-0.3-0.4-0.5-0.5-0.6l0,0
	c-0.4-0.1-0.7-0.3-0.9-0.5c-0.2-0.3-0.4-0.7-0.5-1.1s-0.3-0.8-0.4-1l0,0c0-0.3-0.2-0.4-0.4-0.4l0,0c-0.2,0-0.5,0.2-0.8,0.5l0,0
	c-0.1,0-0.3,0.1-0.5,0.4c-0.3,0.2-0.5,0.4-0.5,0.4l0,0C95,18.5,95,18.4,95,18.2L95,18.2z M77.8,39.8c0-0.2-0.1-0.4-0.4-0.6
	c-0.2-0.3-0.3-0.5-0.3-0.7l0,0c0.3-1.4,0.9-3.4,1.9-5.9l0,0c0.7-2,1.2-3.5,1.5-4.6l0,0c0.1-0.2,0.1-0.4,0.1-0.5l0,0
	c0-0.2-0.1-0.6-0.4-1s-0.5-0.7-0.5-0.9l0,0c0.3-0.2,0.6-0.4,0.8-0.4l0,0c0.4,0,0.8,0.2,1.3,0.6l0,0c0.4,0.3,0.8,0.5,1.3,0.6
	s0.8,0.2,0.8,0.3l0,0c0.6,0.2,1.1,0.3,1.6,0.5c0.4,0.2,0.8,0.5,1.1,0.9l0,0c0,0.2,0,0.3,0,0.4s0.1,0.1,0.2,0.1l0,0
	c0.3,0,0.8-0.2,1.5-0.5s1.2-0.7,1.6-1l0,0H90c0.3,0,0.6-0.1,1.1-0.4c0.4-0.3,0.8-0.4,1.1-0.4l0,0c0.2-0.2,0.3-0.3,0.5-0.4
	s0.5-0.1,0.8-0.2c0.4,0,0.6-0.1,0.8-0.1l0,0c0-0.3,0.2-0.5,0.4-0.6s0.6-0.2,1-0.2l0,0c1-0.6,2.3-1.1,4-1.6l0,0
	c0.9-0.2,1.8-0.5,2.8-0.9l0,0c0.3-0.1,0.6-0.2,0.9-0.3c0.3-0.1,0.6-0.1,0.9-0.1l0,0c1-0.5,2-0.9,3.1-1.2c1-0.3,2-0.5,3-0.6
	c0.9-0.1,1.6-0.2,1.9-0.3l0,0c0.1-0.1,0.2-0.2,0.2-0.4l0,0c0-0.2-0.1-0.4-0.2-0.6c-0.2-0.2-0.3-0.4-0.4-0.6s0-0.3,0.1-0.4l0,0
	c0.7,0.1,1.3,0.3,2,0.6c0.7,0.3,1.3,0.7,1.8,1c0.5,0.4,0.9,0.6,1.1,0.7l0,0c0.3,0.1,0.7,0.3,1.4,0.5c0.7,0.2,1.2,0.5,1.7,0.8
	s0.9,0.7,1.2,1.1l0,0c0,0.1,0.1,0.3,0.1,0.5l0,0c0,0.5-0.2,1-0.5,1.4s-0.7,0.8-1.3,1.3l0,0c-0.6,0.6-1.1,1-1.3,1.3l0,0
	c-0.4,0-0.9,0.3-1.6,0.8l0,0c-0.4,0.3-0.8,0.5-1,0.7s-0.6,0.2-0.9,0.2l0,0c0,0-0.1,0.1-0.2,0.1l0,0c-0.2,0-0.4-0.1-0.5-0.3l0,0
	c0,0.2-0.1,0.3-0.2,0.3l0,0c0,0-0.1-0.1-0.2-0.2s-0.1-0.3-0.2-0.3l0,0c0-0.1-0.1-0.1-0.3-0.2c-0.2-0.1-0.3-0.1-0.5-0.1l0,0
	c-0.4,0-0.4,0.1-0.2,0.3l0,0c-0.2,0.2-0.4,0.5-0.7,0.8c-0.3,0.3-0.5,0.5-0.6,0.5l0,0c0-0.1,0-0.2,0.1-0.4s0.2-0.3,0.2-0.3l0,0
	c0.2-0.1,0.2-0.2,0.2-0.2l0,0c0-0.1-0.3-0.2-0.8-0.3l0,0c0.3,0,0.7-0.1,1-0.4s0.6-0.5,0.8-0.6l0,0c0.1,0,0.2-0.1,0.2-0.2
	s0-0.1,0.1-0.1l0,0c0-0.2-0.1-0.3-0.3-0.3l0,0c-0.2,0-0.4,0.1-0.7,0.3l0,0l-3.5,3.2c-0.2,0.2-0.4,0.2-0.4,0.2l0,0c0,0,0,0,0-0.1
	s0.1-0.2,0.2-0.2l0,0l1-1.1c0.7-0.8,1.4-1.6,2.1-2.4s1.3-1.6,1.8-2.4l0,0c-0.1,0-0.3-0.1-0.5-0.1l0,0c-0.3,0-0.8,0.1-1.4,0.4l0,0
	c-0.6,0.3-1.2,0.4-1.6,0.4l0,0c-1.8,0.4-4,1-6.7,2l0,0c-0.4,0.1-0.9,0.3-1.3,0.5c-0.5,0.2-1,0.4-1.6,0.5l0,0c-1,0.4-1.9,0.8-2.9,1.1
	l0,0c-0.2,0.1-0.9,0.3-2,0.8C94,30.3,93,30.8,92,31.4l0,0c-0.4,0.2-0.9,0.4-1.4,0.8l0,0c-0.4,0.2-0.8,0.5-1.3,0.7s-0.9,0.3-1.3,0.3
	l0,0c-0.6,0.2-1.3,0.4-2.1,0.4l0,0c-0.2,0-0.4,0-0.7,0.1c-0.3,0-0.6,0.1-0.8,0.1l0,0c-0.2,0.2-0.4,0.6-0.5,0.9
	c-0.1,0.4-0.2,0.6-0.3,0.8l0,0c-0.2,0.7-0.5,1.2-0.7,1.5l0,0c0,0.5-0.1,1-0.5,1.6l0,0c-0.3,0.6-0.5,1.1-0.5,1.5l0,0
	c-0.1,0.1-0.2,0.4-0.2,0.7l0,0v0.4c0,0.3-0.1,0.6-0.4,0.7l0,0c-0.2,0.2-0.6,0.2-1.1,0.2l0,0c-0.8,0-1.2-0.3-1-0.8l0,0L79,41.4
	c-0.3,0-0.5-0.1-0.7-0.4c-0.2-0.2-0.3-0.5-0.2-0.8l0,0c0-0.1,0.1-0.1,0.1-0.2s0-0.1-0.1-0.1l0,0c0,0-0.1,0-0.2,0.1
	c-0.1,0-0.1,0.1-0.2,0.1l0,0C78,40,77.9,39.9,77.8,39.8L77.8,39.8z M113.1,25.6c0.2,0,0.2,0.1,0.2,0.2c-0.1,0.1,0,0.1,0.1,0.1l0,0
	c0.1,0.1,0.2,0.2,0.2,0.2c0,0.1,0,0.1-0.1,0.1l0,0c0,0,0.1,0.1,0.1,0.2s0,0.1,0.1,0.2l0,0h0.1c0.2,0,0.3-0.1,0.4-0.2s0-0.2-0.3-0.3
	l0,0c-0.2,0-0.4-0.1-0.4-0.3l0,0c0-0.1,0.1-0.3,0.3-0.6l0,0c0.1,0,0.2,0,0.2-0.1c0,0,0-0.1-0.1-0.1l0,0l-0.1,0.1c0,0,0,0.1-0.2,0.1
	l0,0C113.2,25.1,113.1,25.3,113.1,25.6L113.1,25.6z M79.8,55.2c0-0.1,0-0.2-0.1-0.4s-0.2-0.4-0.2-0.6c0-0.2,0.1-0.3,0.2-0.3l0,0h0.4
	c0.8,0,1.8-0.3,3.1-0.8l0,0c1.1-0.5,2-0.8,2.5-0.8l0,0c2.5-1.1,5.4-2.2,8.9-3.3l0,0c0-0.2-0.1-0.5-0.3-1c-0.2-0.5-0.3-0.9-0.2-1.2
	l0,0c0.9-0.9,1.9-2.2,3.1-3.9l0,0c0.8-1.1,1.4-2,1.9-2.5l0,0c0.1-0.2,0.4-0.5,0.8-1l0,0c0.3-0.2,0.5-0.5,0.6-0.7s0.2-0.4,0.2-0.7
	l0,0c-0.1,0.1-0.5,0.3-1.1,0.7s-1.2,0.9-1.6,1.4l0,0c-0.2,0.1-0.6,0.3-1.3,0.6c-0.6,0.3-1.1,0.6-1.4,1l0,0c-0.3,0.1-0.7,0.3-1,0.7
	s-0.6,0.6-0.8,0.7l0,0c-0.2,0.1-0.5,0.2-0.8,0.2l0,0c-0.4,0-0.8-0.2-1.4-0.6c-0.6-0.4-0.9-0.6-1.1-0.7l0,0c-0.7-0.9-1.3-1.6-1.6-2.1
	c-0.4-0.5-0.6-1.1-0.8-1.7l0,0c0.1-0.1,0.2-0.2,0.4-0.2l0,0c0.2,0,0.6,0.2,1,0.5s0.8,0.5,1,0.5l0,0h0.2c1.4-0.7,3.5-1.9,6.1-3.8l0,0
	c0.4-0.3,1.1-0.7,1.9-1.3s1.5-1,2.2-1.4l0,0c0.1-0.1,0.4-0.2,0.9-0.4s0.8-0.3,1-0.5s0.2-0.5,0.1-0.8l0,0c-0.1-0.1-0.1-0.1-0.1-0.2
	l0,0c0-0.1,0.1-0.2,0.2-0.3c0.2-0.1,0.3-0.1,0.5-0.1l0,0l0.3,0.1c0.4,0.3,1.1,0.6,2.2,1l0,0c0.6,0.1,1.1,0.3,1.5,0.5l0,0
	c0.4,0.1,0.7,0.2,0.9,0.5s0.4,0.5,0.6,0.8s0.3,0.6,0.5,0.8l0,0c0.3,0.2,0.4,0.3,0.4,0.5l0,0c0,0.2-0.1,0.4-0.3,0.6l0,0
	c0,0.3-0.1,0.6-0.3,0.7c-0.2,0.2-0.5,0.3-0.8,0.5l0,0c-0.9,1.8-1.8,3.2-2.5,4.1l0,0c0,0.2-0.2,0.3-0.4,0.4c-0.2,0.1-0.4,0.1-0.5,0.2
	c-0.1,0.1-0.2,0.2-0.1,0.4l0,0c-0.1,0.2-0.3,0.5-0.5,0.9s-0.5,0.7-0.6,1c-0.2,0.2-0.4,0.3-0.7,0.3l0,0c-0.2,0-0.3,0-0.4-0.1l0,0
	c-0.1,0.2-0.2,0.4-0.3,0.8c-0.1,0.3-0.2,0.6-0.4,0.9c-0.2,0.2-0.4,0.4-0.7,0.5l0,0c-0.2,0-0.4,0.1-0.4,0.4l0,0c0,0.1,0,0.2,0,0.4
	s-0.1,0.3-0.3,0.4l0,0c-0.1,0-0.3,0.1-0.6,0.3c-0.3,0.1-0.5,0.3-0.5,0.6l0,0c1.1,0,2-0.3,2.5-0.8l0,0c1.5-0.7,3.1-1.2,4.7-1.7
	c1.6-0.4,3.6-0.9,6.1-1.3l0,0l3.7-0.7h0.1c0.2,0,0.3-0.1,0.4-0.2c0.1-0.1,0.1-0.3,0-0.6c0-0.3,0-0.5,0-0.6l0,0
	c0.6,0.1,1.1,0.3,1.6,0.7c0.5,0.3,1,0.8,1.7,1.4l0,0c0.6,0.6,1.1,1,1.6,1.4l0,0l0.2,0.2l0.1-0.1c0-0.2-0.1-0.4-0.2-0.7l0,0l2.6,2.9
	c0.2,0.1,0.3,0.2,0.3,0.4l0,0c0,0.2,0,0.3-0.1,0.4c-0.1,0.1-0.2,0.2-0.4,0.2l0,0l-0.2-0.1l-0.2-0.1l-0.1,0.1c0,0.1,0,0.2,0.1,0.3
	s0.1,0.2,0.2,0.3l0,0c-1-0.1-1.9-0.1-2.5-0.1l0,0c-1.4,0-2.5,0.2-3.4,0.6l0,0l-0.2,0.4c-0.2-0.2-0.5-0.3-0.8-0.3l0,0
	c-0.2,0-0.5,0.1-0.9,0.3s-0.7,0.4-0.9,0.5l0,0h-0.2c-0.2,0-0.5,0.2-0.8,0.5s-0.5,0.5-0.7,0.6l0,0c-0.1,0-0.3,0.2-0.6,0.5
	c-0.3,0.3-0.5,0.4-0.8,0.4l0,0l5.5-5.1l-4.6,1c-0.5,0-1,0.1-1.5,0.2c-0.5,0.2-0.9,0.3-1,0.3l0,0c-0.9,0.3-1.6,0.5-2.1,0.5l0,0
	l-0.2-0.1c-0.1,0-0.3,0.1-0.5,0.3s-0.4,0.3-0.6,0.3l0,0l-0.2-0.1c-1.4,0.8-2.7,1.4-4.1,1.8l0,0l0.7,1.7c0.2,0.9,0.4,2.1,0.4,3.5l0,0
	c0,2.5-0.5,5.2-1.5,8l0,0v0.1c0,0.3-0.2,0.5-0.4,0.7c-0.3,0.2-0.5,0.4-0.6,0.5l0,0c0.1,0.2,0.1,0.4,0,0.6s-0.3,0.4-0.5,0.7
	c-0.2,0.3-0.4,0.5-0.4,0.8l0,0c0,0.4-0.1,0.8-0.4,1.1c-0.3,0.3-0.7,0.5-1.1,0.5l0,0c-0.2,0-0.4,0-0.5-0.1l0,0l-0.4,0.1
	c-0.2,0-0.4-0.2-0.7-0.5c-0.2-0.3-0.5-0.5-0.7-0.5l0,0c-0.4-0.7-1.1-1.6-2.2-2.6l0,0c-1-1.1-1.5-1.7-1.7-2l0,0
	c-0.2-0.4-0.7-0.9-1.4-1.5l0,0c-0.7-0.7-1.2-1.3-1.4-1.8l0,0c0.1,0,0.2-0.1,0.4-0.1l0,0c0.5,0,1,0.4,1.6,1.1l0,0
	c0.4,0.5,0.8,0.9,1.1,1l0,0c0,0,0.1,0.1,0.3,0.2c0.2,0.1,0.3,0.2,0.3,0.3c0.1,0.1,0,0.1-0.2,0.1l0,0c0.1,0.1,0.4,0.3,0.8,0.5
	c0.4,0.3,0.8,0.5,1.2,0.5l0,0c0.5-0.8,1-1.8,1.3-2.8c0.4-1,0.6-1.7,0.6-1.9l0,0c0.4-1.5,0.8-2.5,1-3.1l0,0c0.1-0.1,0.1-0.2,0.1-0.2
	l0,0c0-0.1,0-0.2-0.2-0.2c-0.1-0.1-0.2-0.2-0.2-0.2l0,0c0.2-0.4,0.2-0.8,0.2-1.4l0,0v-1c0-0.4,0-0.8,0.1-1l0,0
	c-0.3,0-0.7,0.2-1.2,0.5s-0.9,0.5-1.2,0.4l0,0c-0.4,0.2-1,0.4-2,0.7l0,0c-1.3,0.4-2.2,0.7-2.8,1.1l0,0c-1,0.2-2.4,0.7-4.1,1.5l0,0
	c-1,0.5-1.9,0.9-2.8,1.2l0,0h-0.2c-0.1,0-0.3,0-0.4,0.1s-0.3,0.1-0.4,0.1l0,0l-0.2-0.1c-0.1-0.2-0.1-0.3-0.2-0.3l0,0
	c0,0-0.1,0.1-0.1,0.2c0,0.1-0.1,0.2-0.1,0.3l0,0c0-0.4-0.1-0.7-0.3-0.9c-0.2-0.2-0.5-0.5-0.8-0.8l0,0c-0.2-0.2-0.5-0.5-0.7-0.8
	S79.9,55.5,79.8,55.2L79.8,55.2z M87.7,58.7c0-0.1,0-0.2,0.1-0.2l0,0c0.1,0,0.2,0,0.3,0.1s0.2,0.1,0.2,0.3l0,0
	c0,0.2,0.2,0.4,0.4,0.6s0.4,0.4,0.5,0.6s0.1,0.4,0,0.6l0,0c-0.2-0.2-0.4-0.5-0.8-0.9C88.1,59.4,87.8,59.1,87.7,58.7L87.7,58.7z
	 M96.9,62.6c0,0-0.1-0.1-0.2-0.1s-0.1,0,0-0.1l0,0c0-0.1,0-0.2,0.1-0.2l0,0c0,0,0.1,0,0.1,0.1s0.1,0.1,0.1,0l0,0
	c0-0.2,0-0.2-0.1-0.2l0,0c-0.1,0-0.2,0.1-0.3,0.4l0,0l0.1,0.1c0,0.1,0,0.1,0.1,0.1l0,0C96.7,62.8,96.8,62.7,96.9,62.6L96.9,62.6z"/>
<path d="M129.9,44.1c-0.1-0.4-0.1-0.5,0.2-0.5l0,0c0.1,0,0.3,0,0.4,0.1s0.3,0.1,0.3,0.2l0,0c0,0,0.1-0.1,0.2-0.1l0,0
	c0.1,0,0.2,0,0.3,0.1c0.1,0,0.2,0.1,0.3,0.1l0,0c0.2,0,0.3-0.1,0.3-0.4l0,0c5.9-9.8,8.8-14.7,8.8-14.7l0,0l5.9-10
	c0.2-0.1,0.3-0.4,0.4-0.7c0.1-0.3,0.1-0.6-0.2-0.7l0,0c-0.2,0-0.3-0.2-0.3-0.4c0-0.2-0.1-0.3-0.2-0.3l0,0l-0.3-0.2l-0.6-0.3
	c-0.1-0.1-0.2-0.1-0.3-0.2l0,0V16c0-0.2-0.1-0.4-0.3-0.6c-0.2-0.2-0.3-0.4-0.3-0.4l0,0c0-0.1,0.1-0.2,0.4-0.4l0,0
	c0.1,0,0.3,0.1,0.6,0.2c0.3,0.1,0.5,0.2,0.6,0.3s0.2,0.3,0,0.5l0,0c0.2-0.1,0.3-0.2,0.4-0.2l0,0c0.1,0,0.3,0,0.4,0.1
	c0.2,0.1,0.3,0.1,0.5,0.1l0,0c0.2,0,0.3,0,0.4-0.1l0,0c0.6,0.3,1.4,0.5,2.4,0.8l0,0c0.2,0,0.5,0.1,0.8,0.2c0.4,0.1,0.7,0.2,0.9,0.3
	l0,0c0.2,0.1,0.5,0.2,0.8,0.3c0.3,0.1,0.6,0.2,0.9,0.3l0,0c0.1,0.1,0.2,0.2,0.4,0.4c0.2,0.1,0.3,0.2,0.4,0.4c0.1,0.1,0.1,0.3,0,0.4
	l0,0c-0.1,0.1-0.1,0.2-0.1,0.3l0,0c0,0.1,0.1,0.1,0.2,0.1c0.1,0,0.3,0.1,0.3,0.1l0,0c-0.5,0.2-0.8,0.7-0.8,1.4l0,0
	c-0.2,0.1-0.5,0.3-0.8,0.7c-0.3,0.4-0.5,0.6-0.6,0.7l0,0c-0.2,0.4-0.6,1.1-1.3,2.1l0,0c-0.1,0.2-0.3,0.4-0.5,0.8
	c-0.2,0.3-0.4,0.6-0.6,1l0,0c-0.3,0.3-0.5,0.7-0.7,1.1l0,0c-0.1,0.1-0.2,0.3-0.3,0.5s-0.3,0.4-0.4,0.5l0,0c-0.5,1.2-1,2-1.6,2.6l0,0
	c-0.2,0.4-0.4,0.9-0.8,1.4l0,0c-0.4,0.6-0.7,1-0.8,1.3l0,0c0,0.2-0.1,0.2-0.1,0.2l0,0c0,0-0.1-0.1-0.1-0.2c0-0.1,0-0.1-0.1-0.1l0,0
	l0.1,0.2c0,0.1-0.1,0.3-0.2,0.5c-0.2,0.2-0.2,0.4-0.2,0.5l0,0c0.4,0.1,0.7,0.1,1,0.1l0,0l1-0.1c1.3,0,2.1,0.4,2.3,1.3l0,0
	c0.1-0.1,0.2-0.1,0.3,0s0.1,0.2,0,0.4l0,0c-0.2,0.1-0.4,0.2-0.4,0.2l0,0c0,0.1,0.1,0.2,0.2,0.4c0.1,0.2,0.2,0.3,0.2,0.5l0,0v0.1
	c0,0.2-0.1,0.4-0.2,0.6c-0.2,0.2-0.3,0.3-0.3,0.4l0,0c0.2,0,0.3,0.2,0.3,0.4l0,0c0,0.2-0.1,0.4-0.2,0.7c-0.1,0.3-0.1,0.5-0.1,0.7
	l0,0c0.1,0.1,0.1,0.2,0.1,0.4l0,0c0,0.1-0.1,0.3-0.2,0.6c-0.1,0.3-0.2,0.5-0.1,0.8l0,0c0,0,0.1,0.1,0.1,0.2l0,0c0,0.1,0,0.2-0.1,0.3
	s-0.1,0.2,0,0.4l0,0c-0.2,0.1-0.3,0.3-0.2,0.7s0.1,0.6,0.1,0.7l0,0c0,0.2-0.1,0.4-0.2,0.5l0,0c0,0.2-0.1,0.5-0.1,0.8
	s-0.1,0.7-0.2,0.9l0,0c0.1,0.1,0.2,0.2,0.2,0.3l0,0c0,0.1-0.1,0.2-0.1,0.4c-0.1,0.2-0.1,0.3,0,0.5l0,0c-0.1,0.3-0.2,0.8-0.2,1.6l0,0
	c0,0.2,0,0.6-0.1,1.2l0,0v0.1c0,0.1,0,0.3-0.1,0.5s-0.1,0.4,0,0.6l0,0c-0.1,0.1-0.1,0.2-0.1,0.5l0,0v0.3c0,0.3-0.1,0.4-0.2,0.5l0,0
	c0,0.1,0.1,0.2,0.1,0.5l0,0l-0.1,1.2c-0.1,0.3-0.2,0.6-0.1,1.1c0,0.4,0,0.8-0.1,1l0,0c-0.2,0.8-0.3,1.3-0.3,1.5l0,0
	c0,0.3,0.1,0.5,0.2,0.7l0,0c0,0.2-0.2,0.7-0.3,1.3c-0.2,0.6-0.2,1.2-0.2,1.7l0,0c0.4,0.4,1,0.6,1.7,0.6l0,0c0.4,0,0.8-0.1,1.2-0.2
	l0,0h0.2c0.2,0,0.5-0.1,0.8-0.2c0.4-0.2,0.6-0.2,0.8-0.2l0,0h0.2c0,0,0.1-0.1,0-0.2c0-0.1,0-0.1,0-0.1l0,0c0,0,0-0.1,0.1,0
	c0.1,0,0.1,0,0.2,0l0,0c0.1,0,0.3-0.1,0.6-0.4c0.3-0.3,0.5-0.4,0.7-0.5l0,0c0-0.2,0.1-0.5,0.4-0.6s0.5-0.4,0.5-0.6l0,0
	c0-0.1,0.1-0.2,0.3-0.2s0.3-0.2,0.3-0.2c0-0.1,0-0.2-0.2-0.2l0,0c-0.1-0.1-0.1-0.1-0.1-0.1l0,0c0,0,0.1-0.2,0.4-0.3
	c0.2-0.2,0.4-0.3,0.4-0.5l0,0c0-0.2,0.2-0.4,0.4-0.8c0.2-0.3,0.4-0.7,0.4-1l0,0c0.3-0.1,0.5-0.3,0.6-0.5s0.2-0.6,0.4-1l0,0
	c0.2-0.4,0.3-0.8,0.4-1s0.4-0.4,0.7-0.4l0,0c-0.2,0-0.3-0.2-0.3-0.4l0,0c0-0.2,0.1-0.4,0.4-0.7s0.4-0.5,0.5-0.5l0,0
	c0.1-0.2,0.2-0.4,0.1-0.5c-0.1-0.1-0.2-0.1-0.3-0.1l0,0c-0.1,0-0.3,0.1-0.6,0.2c-0.3,0.1-0.5,0.2-0.6,0.2l0,0
	c-0.3,0-0.7,0.2-1.1,0.4c-0.4,0.2-0.7,0.3-0.9,0.3l0,0c-0.1,0.2-0.4,0.3-0.8,0.3l0,0c-0.6,0-1-0.1-1.3-0.4l0,0
	c-0.7-0.2-1.4-0.7-2.2-1.6l0,0c0-0.3-0.2-0.7-0.6-1.1l0,0c-0.4-0.4-0.6-0.8-0.6-1.1l0,0v-0.1c0-0.2-0.1-0.5-0.2-0.8
	c-0.1-0.3-0.2-0.5-0.2-0.7l0,0c0.1-0.1,0.2-0.2,0.4-0.2l0,0c0.1,0,0.3,0.1,0.5,0.3s0.4,0.3,0.5,0.3l0,0c0.3,0.4,0.6,0.6,1,0.6l0,0
	c0.6,0,1.3-0.2,2-0.6l0,0c0.1,0,0.2,0.1,0.4,0.1l0,0c0.2,0,0.5-0.1,0.8-0.4c0.3-0.3,0.6-0.4,0.8-0.5l0,0c0.1-0.2,0.3-0.3,0.5-0.3
	l0,0h0.3c0.3,0,0.5-0.1,0.5-0.2l0,0c-0.6-0.1-1.4-0.5-2.4-1.1l0,0c-0.2-0.3-0.4-0.7-0.7-1.2s-0.6-0.9-0.8-1.2l0,0l0.1-0.5
	c0-0.4-0.2-0.8-0.6-1.1l0,0c0-0.3,0-0.5,0.2-0.5l0,0c0.1,0,0.3,0,0.5,0.2s0.4,0.2,0.6,0.2l0,0h0.2c-0.1-0.2-0.1-0.6,0-1
	s0.2-0.7,0.2-1l0,0c0-0.3-0.1-0.6-0.4-0.8l0,0c-0.2-0.2-0.3-0.4-0.3-0.5s0-0.3,0.1-0.5l0,0l2.2,1.3c0.2,0,0.5,0.2,1,0.5
	c0.4,0.3,0.8,0.5,1,0.5l0,0h0.2c0.2,0,0.3,0,0.3-0.1l0,0c0-0.1,0.2-0.2,0.4-0.3s0.4-0.2,0.5-0.3s0-0.1-0.2-0.1l0,0
	c0.8-1.3,1.6-1.9,2.4-1.9l0,0l-0.2-0.1h-0.1c-0.1,0-0.1,0-0.1-0.1s0.1-0.1,0.2-0.2l0,0c0.3-0.1,0.5-0.3,0.5-0.5s0.1-0.4,0.1-0.8
	s0.1-0.6,0.2-0.8l0,0c0.2-1,0.2-1.7,0.2-2.2l0,0c-0.2,0.1-0.6,0.2-1.1,0.4s-1,0.4-1.3,0.7l0,0c-0.1,0-0.3,0.1-0.6,0.3l0,0l-0.4,0.2
	c-0.2,0.2-0.4,0.3-0.6,0.3l0,0c-0.1,0-0.2,0.1-0.4,0.1l0,0c-0.2,0-0.4-0.1-0.6-0.3s-0.4-0.3-0.5-0.3l0,0c0,0.1-0.1,0.2-0.2,0.2l0,0
	c-0.1,0-0.2-0.1-0.3-0.3s-0.3-0.3-0.5-0.2l0,0H156c-0.1,0-0.2-0.1-0.2-0.2l0,0c0,0,0-0.1,0-0.3s-0.1-0.3-0.3-0.2l0,0
	c-0.1-0.3-0.3-0.6-0.7-0.9s-0.7-0.4-1.1-0.4l0,0c0.2-0.1,0.4-0.2,0.4-0.3l0,0c0-0.1-0.1-0.2-0.4-0.5c-0.3-0.2-0.4-0.4-0.4-0.6l0,0
	c-0.3-0.3-0.4-0.6-0.4-0.9l0,0c0-0.2,0.1-0.3,0.2-0.5l0,0l0.2-0.1c0.2,0,0.4,0.1,0.8,0.5s0.6,0.4,0.9,0.4l0,0h0.1
	c0.1-0.2,0.3-0.3,0.7-0.3s0.5-0.1,0.6-0.2l0,0c0.6-0.1,1.3-0.3,1.9-0.6c0.7-0.3,1.2-0.5,1.5-0.6l0,0c0.1,0,0.3-0.2,0.6-0.5
	s0.7-0.5,1-0.5l0,0c0.1-0.2,0.4-0.4,0.7-0.4c0.4-0.1,0.6-0.2,0.7-0.3l0,0c0-0.1,0.2-0.4,0.4-0.8s0.3-0.7,0.2-1.1l0,0
	c0.1-0.2,0.1-0.5,0-0.8s-0.1-0.5-0.1-0.7l0,0c0-0.2,0.1-0.4,0.2-0.5l0,0c0-0.3,0-0.7,0.1-1.2s0.2-0.8,0.2-1l0,0
	c0.2,0,0.3-0.1,0.3-0.2s0-0.2-0.2-0.2l0,0h-0.2c0-0.2-0.1-0.4-0.1-0.7l0,0l0.1-1.3c0.1-0.6,0.1-1.1,0.1-1.4l0,0
	c0-0.6-0.1-1.1-0.2-1.5l0,0c-0.2-0.2-0.6-0.5-1.1-0.7l0,0c-0.8-0.4-1.3-0.8-1.5-1.1l0,0c-0.1,0-0.2,0-0.3-0.1s-0.1-0.1-0.1-0.2l0,0
	c0-0.1,0.1-0.2,0.2-0.4c0.2-0.1,0.3-0.2,0.5-0.2l0,0l0.2,0.1c0.6,0.4,1.3,0.6,2.1,0.8s1.2,0.3,1.3,0.3l0,0c1.6,0.3,2.8,0.7,3.5,1.1
	l0,0c0.6,0,0.9,0.3,1,0.7s0.2,0.9,0.2,1.4c0,0.5,0,0.9,0,1.1l0,0c0.1,0.4,0.2,0.7,0.2,1l0,0c0,0.3,0,0.7-0.1,1.4l0,0
	c-0.1,0.6-0.1,1.1-0.1,1.4l0,0c0,0.2,0,0.4,0,0.5s0.1,0.2,0.2,0.2l0,0c0.2,0,0.3-0.2,0.4-0.5l0,0c0-0.2,0-0.3,0.1-0.4
	s0.2-0.2,0.2-0.2l0,0c0.2,0,0.3,0.1,0.5,0.2l0,0c0-0.3,0-0.5,0.2-0.5l0,0c0.1,0,0.2,0,0.3,0.1c0.1,0,0.2,0.1,0.3,0.1l0,0
	c0.2,0.3,0.5,0.5,0.8,0.6s0.7,0.2,1.1,0.2c0.4,0,0.8,0.1,1.1,0.2l0,0c0.1,0,0.4,0.1,0.8,0.1c0.4,0.1,0.7,0.2,1,0.4
	c0.3,0.2,0.4,0.5,0.4,0.9l0,0h0.1c0.2,0,0.3,0.2,0.3,0.5s0,0.6,0,0.7l0,0c-0.1,0.2-0.3,0.3-0.7,0.4s-0.7,0.3-0.8,0.5l0,0
	c-0.4,0-0.8,0.1-1.3,0.4s-0.9,0.4-1.1,0.5l0,0c-0.5,0.4-1.1,0.7-1.7,1.1s-1.1,0.7-1.4,0.8l0,0c-0.2,0-0.4,0.1-0.6,0.2
	c-0.2,0.1-0.4,0.2-0.5,0.3l0,0h-0.1c-0.2,0-0.2,0.1-0.2,0.2l0,0c0,0,0,0.1,0,0.2s-0.1,0.2-0.3,0.2l0,0c0.4,0.4,1.2,0.7,2.3,1l0,0
	c0,0.2,0.1,0.3,0.3,0.4s0.4,0.2,0.5,0.2l0,0c0.3,0,0.8,0.2,1.3,0.5l0,0c0.6,0.3,1.1,0.5,1.4,0.5l0,0c0.1,0.2,0.3,0.3,0.5,0.5
	c0.3,0.2,0.4,0.3,0.5,0.4l0,0c0,0.2,0.1,0.3,0.2,0.5c0.1,0.2,0.2,0.4,0.2,0.5l0,0c0,0.5-0.1,1-0.4,1.4c-0.3,0.4-0.5,0.8-0.6,1l0,0
	c0,0.2-0.1,0.4-0.3,0.6s-0.3,0.4-0.2,0.6l0,0c-0.1,0.1-0.4,0.3-0.7,0.7c-0.4,0.4-0.7,0.6-1,0.6l0,0c-0.2,0-0.3,0-0.4-0.1l0,0
	c-0.2,0.3-0.6,0.6-1.1,0.8s-0.9,0.4-1.2,0.5l0,0c-0.3,0.3-0.7,0.5-1.1,0.8l0,0c-0.6,0.3-1,0.6-1.3,0.9l0,0c0-0.1-0.1-0.1-0.2-0.1
	l0,0c-0.1,0-0.1,0.1-0.1,0.2l0,0c0,0.1,0,0.2,0.1,0.2c0.1,0.1,0.1,0.1,0.2,0.1l0,0c0.1,0,0.2,0,0.2-0.1l0,0c0.1-0.3,0.3-0.5,0.5-0.6
	s0.5-0.2,1-0.3l0,0c0.6,0,1-0.1,1.2-0.4l0,0c0,0.2,0,0.2,0.1,0.2l0,0c0.1,0,0.2-0.1,0.3-0.2c0.1-0.1,0.3-0.1,0.4-0.2l0,0
	c0,0,0.1,0.1,0.2,0.1l0,0c0.1,0,0.3,0,0.5-0.1s0.3-0.1,0.4-0.1l0,0h0.2c0.1-0.1,0.3-0.1,0.5-0.2c0.3-0.1,0.4-0.2,0.5-0.3l0,0h0.2
	c0.4,0,0.8-0.1,1.2-0.2c0.4-0.2,0.7-0.3,0.8-0.4l0,0h0.2c0.3,0,0.5-0.1,0.8-0.2s0.2-0.3-0.1-0.4l0,0c-0.2-0.1-0.3-0.2-0.3-0.3l0,0
	c0,0,0.1-0.1,0.3-0.2c0.2-0.1,0.3-0.1,0.4-0.2l0,0c0.2,0,0.4,0.2,0.8,0.4s0.6,0.3,0.8,0.4l0,0c0.6,0,1.3,0.2,1.9,0.6l0,0
	c0.2,0.1,0.6,0.2,1.1,0.4c0.5,0.1,0.9,0.3,1.1,0.6l0,0c0.7,0,1.1,0.5,1.1,1.4l0,0c0,0.3,0,0.5-0.1,0.7l0,0c0,0.2-0.2,0.4-0.4,0.4
	l0,0c-0.2,0-0.6,0.1-1.2,0.3s-0.9,0.3-1.1,0.5l0,0c0-0.1-0.2-0.2-0.4-0.2l0,0c-0.1,0-0.3,0-0.5,0.1s-0.4,0.1-0.5,0.2l0,0
	c-0.1,0.2-0.2,0.2-0.4,0.2l0,0l-0.3-0.1c-0.1,0-0.2,0.1-0.4,0.2l0,0c-0.3,0-0.7,0.1-1.1,0.2c-0.4,0.1-0.7,0.2-0.9,0.2l0,0
	c-0.9,0.3-1.6,0.5-2,0.5l0,0c-0.6,0.3-1.3,0.5-2.2,0.7l0,0c-0.1,0-0.5,0.1-1,0.3s-1.1,0.4-1.5,0.6l0,0c-0.1,0.1-0.3,0.2-0.7,0.3
	s-0.6,0.2-0.7,0.4l0,0c-0.3,0.1-0.7,0.2-1.3,0.4c-0.5,0.2-1,0.3-1.3,0.3l0,0c-0.1,0.3,0,0.5,0.1,0.7c0.2,0.1,0.5,0.3,0.9,0.4
	c0.4,0.1,0.7,0.3,0.8,0.5l0,0c0.1,0.2,0.3,0.4,0.7,0.5c0.3,0.1,0.6,0.3,0.6,0.5l0,0c0.7,0.4,2.4,1.2,5.1,2.5l0,0
	c0.7,0.3,1.7,0.7,2.9,1.4l0,0c0.1,0.2,0.4,0.3,0.8,0.5c0.4,0.2,0.7,0.4,0.8,0.6l0,0c0.1,0,0.2-0.1,0.4-0.1l0,0
	c0.2,0,0.5,0.1,0.8,0.3s0.6,0.4,0.7,0.4l0,0c0.6,0.2,1.5,0.6,2.7,1.3l0,0c1,0.6,1.8,1,2.6,1.2l0,0c0.1,0.2,0.3,0.3,0.5,0.3
	s0.4,0,0.6,0.1c0.1,0,0.2,0.2,0.2,0.4l0,0c0.4,0,0.9,0.1,1.4,0.4l0,0c0,0.2,0.2,0.5,0.5,0.8s0.4,0.5,0.4,0.7l0,0l0.1,0.2
	c0,0.1-0.1,0.3-0.2,0.5c-0.1,0.2-0.1,0.5-0.1,0.8l0,0c0,0,0.1,0.1,0.1,0.2l0,0c0,0.1-0.2,0.3-0.5,0.5l0,0c0,0.2-0.1,0.4-0.2,0.8
	c-0.1,0.4-0.2,0.7-0.2,0.9l0,0c0.2,0.3,0.2,0.5,0.1,0.8c-0.1,0.2-0.3,0.5-0.6,0.7s-0.5,0.5-0.5,0.6l0,0c-0.2,0-0.2,0.1-0.2,0.2l0,0
	c0,0,0,0.1,0,0.3c0,0.2,0,0.3-0.1,0.4l0,0c-0.2,0.1-0.4,0.2-0.5,0.3c-0.1,0.1-0.1,0.3-0.2,0.5s-0.1,0.4-0.2,0.5l0,0
	c-0.1,0.4-0.3,0.5-0.7,0.5l0,0c-0.2,0-0.5-0.1-0.7-0.3s-0.3-0.5-0.3-0.7l0,0c-0.2-0.4-0.6-0.8-1.1-1s-1.1-0.3-1.8-0.4l0,0h-0.2
	c-0.1,0-0.1-0.1,0-0.2c0.1-0.2,0-0.3-0.1-0.3l0,0c-0.1-0.2-0.2-0.2-0.2-0.2l0,0c-0.1,0-0.2,0-0.3,0.1c-0.1,0-0.2,0.1-0.2,0.1l0,0
	c-0.2,0-0.3,0-0.3-0.1l0,0c-0.6-0.7-1.1-1.1-1.7-1.3l0,0c-0.1-0.2-0.3-0.3-0.6-0.5s-0.4-0.4-0.5-0.5s-0.1-0.3-0.1-0.6l0,0
	c0.2,0,0.3-0.1,0.3-0.2l0,0c0-0.1-0.1-0.2-0.2-0.3c-0.1-0.1-0.2-0.2-0.4-0.2l0,0c-0.1,0-0.2,0.1-0.2,0.2l0,0h-0.1
	c-0.1,0-0.3-0.1-0.4-0.3c-0.2-0.2-0.3-0.3-0.5-0.2l0,0c0-0.2-0.1-0.2-0.2-0.2l0,0l-0.4,0.1c-0.1,0-0.2,0-0.2-0.1l0,0v0
	c0-0.2-0.2-0.3-0.7-0.4c-0.5-0.1-0.7-0.2-0.7-0.4l0,0c0.2,0.2,0.6,0.2,1.2,0.2l0,0h1c0.1,0,0.2,0,0.2,0.1l0,0
	c0.1,0.1,0.2,0.1,0.3,0.2s0.2,0.1,0.3,0.1l0,0c0.2,0,0.2-0.1,0.1-0.2l0,0c-0.2-0.2-0.2-0.3-0.2-0.3l0,0c0,0,0,0,0.1,0s0.2,0,0.2,0.1
	l0,0h0.2c0.2,0,0.3,0,0.5,0.1s0.3,0.1,0.5,0.1l0,0c0.1,0,0.1-0.1-0.1-0.2l0,0c-0.7-0.2-1.8-0.7-3.2-1.6l0,0
	c-0.3-0.1-0.7-0.3-1.3-0.7l0,0c-0.4-0.3-1-0.6-1.7-0.8l0,0c-0.9-0.3-1.6-0.7-2-1.1l0,0c0-0.1-0.2-0.2-0.5-0.2s-0.4-0.1-0.3-0.2l0,0
	v-0.1c0-0.1-0.2-0.2-0.5-0.3s-0.6-0.3-0.6-0.4l0,0c0.1-0.1,0.2-0.1,0.2-0.2s0-0.1-0.1-0.1l0,0c-0.1,0-0.2,0-0.2,0.1
	s-0.1,0.1-0.2,0.2l0,0l-2.5-0.9c-0.1-0.1-0.4-0.3-0.8-0.6c-0.4-0.3-0.7-0.5-0.8-0.8l0,0c0,0.1,0.1,0.2,0.1,0.4l0,0
	c0,0.4-0.1,0.8-0.4,1.1l0,0h-0.1c-0.1,0-0.2,0.1-0.2,0.2c0,0.2-0.1,0.3-0.3,0.4l0,0c0,0.2,0,0.5-0.1,0.7s-0.3,0.4-0.4,0.5l0,0
	c-0.4,0.4-0.6,0.8-0.6,1.1l0,0c-0.1,0.1-0.2,0.4-0.3,0.7c-0.1,0.4-0.3,0.6-0.7,0.7l0,0c0,0.1-0.1,0.2-0.2,0.4
	c-0.1,0.1-0.3,0.2-0.4,0.2l0,0l0.1,0.2c0,0.1-0.1,0.2-0.2,0.3c-0.2,0.1-0.3,0.2-0.3,0.2l0,0h-0.1c-0.3,0-0.5,0.1-0.7,0.4
	c-0.2,0.3-0.3,0.4-0.4,0.5l0,0c-0.2,0-0.4,0.1-0.7,0.3s-0.5,0.3-0.5,0.3l0,0c-0.2,0-0.3-0.1-0.3-0.2l0,0c0,0.4-0.4,0.7-1.1,1l0,0
	c-0.1-0.1-0.2-0.2-0.4-0.2l0,0c-0.1,0-0.3,0.1-0.5,0.3s-0.4,0.3-0.5,0.3l0,0c0,0-0.1,0-0.1-0.1s-0.1-0.1-0.2-0.1l0,0h-0.1
	c-0.2,0-0.4,0.1-0.7,0.2c-0.3,0.1-0.5,0.2-0.7,0.2l0,0c0-0.3,0-0.4-0.1-0.4l0,0c-0.1,0-0.3,0.1-0.4,0.2s-0.3,0.1-0.4,0.2l0,0
	l-2.1-0.4c-0.9-0.2-1.5-0.4-1.9-0.4l0,0c-0.1-0.1-0.2-0.1-0.3-0.1l0,0c-0.1,0-0.2,0-0.2,0.1c-0.1,0-0.1,0.1-0.1,0.1l0,0
	c-0.1,0-0.2-0.1-0.2-0.2l0,0c-0.4,0.4-0.5,0.8-0.4,1.1l0,0c-0.3,0.2-0.6,0.3-0.9,0.3l0,0c-0.3,0-0.6-0.1-0.9-0.3l0,0
	c-0.1-0.1-0.1-0.2-0.2-0.2l0,0v0.1c0,0.2,0,0.4-0.1,0.5l0,0c-0.2-0.1-0.5-0.2-1-0.3c-0.4-0.1-0.8-0.2-1.1-0.4l0,0
	c-0.2-0.1-0.5-0.4-0.9-0.8l0,0c-0.1-0.2-0.3-0.4-0.5-0.5s-0.4-0.2-0.6-0.3l0,0v-0.1c0,0,0-0.1,0.1-0.3c0.1-0.1,0-0.3-0.2-0.4l0,0
	c-0.2-0.1-0.3-0.3-0.3-0.4l0,0c0-0.1,0.1-0.3,0.2-0.5s0.2-0.4,0.2-0.5l0,0c0-0.2,0.1-0.4,0.2-0.6s0.2-0.4,0.3-0.6
	c0.1-0.2,0-0.3-0.1-0.5l0,0l-0.3,0.1c-0.1,0-0.1,0-0.1-0.1s0.1-0.2,0.2-0.3l0,0l0.2-0.1c0,0,0,0.1-0.1,0.2c-0.1,0.1,0,0.1,0.1,0l0,0
	c0.2,0,0.3-0.1,0.3-0.2l0,0c0,0-0.1-0.1-0.3-0.1s-0.2-0.1-0.3-0.2l0,0c0,0,0.1-0.1,0.2-0.2s0.1-0.2,0.1-0.2c0-0.1-0.1-0.2-0.2-0.3
	l0,0c0.1,0,0.1-0.2,0.1-0.4l0,0c0-0.1,0-0.2,0-0.3s0-0.2,0.1-0.2l0,0c0,0,0.1,0.1,0.2,0.2l0,0c0.2,0,0.2-0.1,0.2-0.1l0,0
	c0,0-0.1-0.1-0.4-0.2s-0.4-0.2-0.3-0.2l0,0c0-0.2,0.1-0.4,0.3-0.4s0.3-0.1,0.4-0.1l0,0c-0.1-0.1-0.2-0.2-0.2-0.4l0,0
	c0-0.2,0.1-0.4,0.2-0.7s0.1-0.5,0-0.7l0,0l0.3,0.2c0.2-0.1,0.3-0.2,0.3-0.2l0,0h-0.1c-0.5,0-0.6-0.1-0.5-0.4l0,0
	c0.2,0,0.4-0.1,0.4-0.3s0.1-0.4,0.1-0.7s0.1-0.5,0.1-0.6l0,0c-0.1-0.1-0.2-0.1-0.2-0.1l0,0c0-0.1,0-0.2,0.1-0.3s0.1-0.2,0-0.2l0,0
	c0-0.1,0-0.3,0-0.7c0-0.3-0.1-0.6-0.1-0.8l0,0c0-0.3,0.1-0.6,0.2-0.7l0,0c-0.1,0-0.2-0.2-0.2-0.4l0,0c0,0,0.1-0.4,0.2-1l0,0
	c0,0-0.1,0.1-0.2,0.1l0,0c-0.1,0-0.2,0-0.2-0.1s0.1-0.1,0.2-0.1l0,0l0.1,0.1c0.3-0.2,0.5-0.4,0.5-0.7l0,0c0-0.2,0-0.5-0.1-0.8
	c-0.1-0.4-0.1-0.6,0.1-0.8l0,0c0.1,0.1,0.1,0.2,0.1,0.2l0,0c0.1,0,0.2-0.2,0.2-0.6l0,0c0-0.3-0.1-0.5-0.3-0.5l0,0
	c0-1.1,0.2-1.6,0.7-1.6l0,0c-0.2,0-0.3-0.1-0.3-0.3s0-0.2-0.1-0.2l0,0c-0.2-0.2-0.2-0.5-0.2-0.8l0,0c0-0.2,0-0.4,0.1-0.7
	s0.1-0.5,0-0.6l0,0c0.2-0.1,0.3-0.3,0.3-0.6l0,0c0-0.3-0.1-0.4-0.3-0.4l0,0c-0.1,0-0.2,0-0.4,0.1l0,0c0,0.3-0.2,0.6-0.4,1
	s-0.4,0.7-0.4,0.8l0,0l-1.6,2.6c-0.3,0.8-0.8,1.4-1.4,2l0,0c-0.1,0.3-0.3,0.6-0.5,1c-0.3,0.4-0.4,0.7-0.4,0.9l0,0
	c-0.2,0.2-0.4,0.5-0.5,1c-0.1,0.4-0.3,0.8-0.4,1.1l0,0c-0.6,0.2-1.2,0.4-1.6,0.8l0,0c-0.1-0.2-0.2-0.4-0.4-0.5
	c-0.2-0.1-0.4-0.2-0.7-0.3c-0.3-0.1-0.5-0.2-0.7-0.3l0,0c-0.4-0.2-0.8-0.5-1.1-0.9s-0.6-0.7-0.7-0.8l0,0h-0.2c-0.1,0-0.1,0-0.1-0.1
	s0-0.1,0.1-0.2s0-0.1,0.1-0.2l0,0h-0.1c-0.2,0-0.4-0.1-0.6-0.2c-0.2-0.1-0.3-0.4-0.3-0.7c-0.1-0.3-0.2-0.5-0.3-0.7l0,0
	c0,0-0.1-0.1-0.2-0.2C130,44.3,129.9,44.2,129.9,44.1L129.9,44.1z M168.2,35.4c1.2-1.2,1.9-2.3,2.3-3.4l0,0
	c-0.1-0.2-0.3-0.4-0.6-0.7c-0.3-0.3-0.5-0.5-0.6-0.7l0,0l-0.2-0.1c-0.2,0-0.2,0.1-0.2,0.3l0,0c0,0.1,0,0.3,0.1,0.6
	c0,0.3,0,0.4-0.2,0.5l0,0c0.1,0,0.1,0.1,0.1,0.3l0,0c0,0.2,0,0.4-0.1,0.7s-0.1,0.5,0,0.7l0,0c-0.2,0.2-0.3,0.5-0.3,0.9
	C168.3,34.9,168.3,35.2,168.2,35.4L168.2,35.4z M160.4,42.2c-0.3,0.2-0.6,0.6-0.9,1.1c-0.3,0.6-0.5,0.9-0.7,1.1l0,0
	c0,0,0.1,0.1,0.2,0.1l0,0c0.2,0,0.5-0.1,0.8-0.3s0.5-0.4,0.5-0.6l0,0c0.4-0.4,0.6-0.8,0.8-1.2s0.3-0.8,0.4-1.2l0,0l0.1-0.5
	c0-0.1-0.1,0-0.3,0.4l0,0c-0.3,0-0.5,0.1-0.7,0.3S160.4,42,160.4,42.2L160.4,42.2z M160.4,44l0.2,0.1c0.2,0,0.2-0.1,0.2-0.4l0,0
	C160.7,43.8,160.5,43.9,160.4,44L160.4,44z M141.9,51.4c-0.1,0-0.1,0-0.2,0.1c0,0-0.1,0.1-0.2,0.1l0,0c-0.1,0-0.2-0.1-0.2-0.2l0,0
	c0.1,0,0.2-0.1,0.4-0.1l0,0C141.8,51.3,141.8,51.3,141.9,51.4L141.9,51.4z M173,60.7l-0.2-0.1c-0.8,0-1.1,0-1-0.1l0,0h0.6
	C172.9,60.4,173.1,60.5,173,60.7L173,60.7z M174.8,61c0,0-0.1-0.1-0.2-0.1l0,0L174,61c-0.2,0-0.3,0-0.4-0.1s-0.2-0.2-0.1-0.4l0,0
	h0.1c0.2,0,0.4,0.1,0.6,0.2C174.4,60.8,174.6,60.9,174.8,61L174.8,61c0.1-0.1,0.2-0.1,0.3-0.2l0,0c-0.1,0.2-0.1,0.3,0,0.3l0,0
	c0.1,0,0.3-0.1,0.5-0.3l0,0l0.1,0.1c0,0.2,0.1,0.3,0.1,0.3s0,0.1-0.1,0.1l0,0C175.3,61.2,175.1,61.1,174.8,61L174.8,61z M177.5,61.7
	l1,0.4c0.1-0.1,0.1-0.1,0.1-0.1l0,0c0-0.1-0.1-0.2-0.3-0.2c-0.2-0.1-0.4-0.1-0.5-0.1l0,0C177.7,61.6,177.6,61.6,177.5,61.7
	L177.5,61.7z"/>
<path d="M192.4,46.1c0.2,0,0.3-0.1,0.3-0.3l0,0c0,0-0.1-0.2-0.2-0.4c-0.1-0.2-0.1-0.4,0-0.5l0,0c0.4-0.3,0.9-0.7,1.3-1.2
	c0.4-0.5,0.6-0.8,0.7-0.8l0,0c0.3-0.4,0.6-0.9,1-1.3l0,0c0-0.2,0.1-0.3,0.3-0.4c0.2-0.1,0.4-0.1,0.5-0.1s0.1-0.1-0.1-0.3l0,0
	c0.4-0.2,0.6-0.6,0.7-1l0,0c0.2,0,0.2,0.1,0.2,0.2l0,0c0,0.1-0.1,0.3-0.3,0.5s-0.3,0.3-0.4,0.3l0,0c0.2,0.2,0.4,0.4,0.5,0.5
	s0.1,0.3-0.1,0.4l0,0l-0.1,0.2c0,0.1,0.1,0.2,0.3,0.3s0.3,0.2,0.1,0.3l0,0c-0.2,0.2-0.2,0.2-0.1,0.2l0,0l0.2,0.1
	c0.2,0,0.2,0.1,0.1,0.2l0,0c-0.2,0-0.3,0.1-0.3,0.3l0,0c0,0.1,0,0.2,0.1,0.3s0.2,0.1,0.2,0.1l0,0c0.1,0,0.2,0,0.4-0.1l0,0h0.1
	c0.2,0,0.3-0.2,0.4-0.5c0.1-0.4,0.3-0.6,0.5-0.7l0,0c0.2,0,0.2-0.2,0.3-0.5c0-0.3,0.1-0.4,0.3-0.5l0,0h0.1c0.2,0,0.3,0,0.3-0.2
	c0-0.1,0.1-0.3,0.1-0.5s0.1-0.4,0.3-0.5l0,0c0.3,0,0.6-0.2,0.7-0.4c0.1-0.2,0.3-0.4,0.3-0.5l0,0c0.2,0,0.3-0.1,0.3-0.2
	c0-0.2,0-0.2,0.2-0.2l0,0c0.1-0.1,0.3-0.4,0.5-0.8s0.5-0.7,0.6-0.9c0.2-0.2,0.4-0.2,0.8-0.2l0,0c0-0.1-0.1-0.2-0.1-0.4l0,0
	c0-0.4,0.1-0.5,0.3-0.5l0,0l0.2,0.1V36c0-0.3,0.1-0.6,0.3-0.8c0.2-0.3,0.4-0.5,0.7-0.6l0,0c0-0.3,0.3-0.5,0.8-0.8l0,0v-0.1
	c0-0.2,0.1-0.4,0.2-0.5c0.2-0.2,0.3-0.2,0.5-0.2l0,0c0-0.1,0.1-0.3,0.2-0.6c0.1-0.3,0.3-0.6,0.6-0.6l0,0c0-0.2,0.1-0.3,0.2-0.5
	c0.1-0.2,0.3-0.3,0.5-0.4l0,0c0,0.1,0,0.2,0.1,0.3c0.1,0.1,0.2,0,0.1-0.1l0,0c-0.1-0.1-0.2-0.3-0.2-0.4l0,0c0-0.1,0.1-0.3,0.2-0.5
	s0.3-0.3,0.4-0.5l0,0c0.4-0.2,0.8-0.5,1.1-0.7s0.4-0.5,0.4-0.9l0,0c0.2-0.1,0.3-0.3,0.5-0.5c0.2-0.3,0.4-0.4,0.7-0.5l0,0
	c0-0.4,0.2-0.8,0.5-1.2c0.3-0.3,0.5-0.6,0.6-0.8l0,0c0.1-0.1,0.2-0.3,0.5-0.5c0.2-0.2,0.3-0.3,0.2-0.5l0,0c0.4-0.3,0.8-0.7,1.1-1.3
	c0.3-0.5,0.6-0.9,0.7-1l0,0c0.2,0,0.4-0.2,0.6-0.5c0.2-0.3,0.4-0.5,0.5-0.5l0,0h0.1c0.1,0,0.1,0,0.1-0.1l0,0c0,0,0-0.1-0.1-0.3
	c0-0.1,0-0.2,0.2-0.3l0,0c-0.1-0.1-0.2-0.1-0.2-0.2l0,0c0-0.1,0.1-0.2,0.3-0.3c0.2-0.1,0.4-0.2,0.4-0.2l0,0c0.2,0,0.3-0.1,0.4-0.4
	c0-0.3,0.1-0.4,0.2-0.3l0,0c0.5,0,0.5-0.1,0.1-0.3l0,0c0-0.1,0.1-0.2,0.2-0.3c0.1-0.1,0.2-0.3,0.2-0.5l0,0c-0.6-0.6-1-1.1-1.1-1.4
	l0,0c0-0.2-0.2-0.4-0.4-0.5c-0.3-0.1-0.5-0.2-0.7-0.3s-0.2-0.3-0.2-0.5l0,0c0-0.2,0-0.2,0.1-0.2l0,0c0,0,0.1,0,0.1,0.1
	s0.1,0.1,0.2,0.1l0,0l0.1-0.1c0.1,0,0.3,0,0.6,0.1s0.5,0.1,0.7,0.3c0.2,0.1,0.3,0.3,0.4,0.5l0,0c0.2,0,0.3,0.1,0.5,0.3
	c0.2,0.2,0.4,0.2,0.5,0.3l0,0c0.1,0,0.2,0,0.3-0.1l0,0c0.2,0.1,0.4,0.2,0.7,0.4c0.3,0.2,0.6,0.3,0.9,0.4l0,0
	c1.4,0.3,2.5,0.8,3.1,1.5l0,0c0.3,0.1,0.5,0.3,0.5,0.5l0,0c0,0.1,0,0.2-0.1,0.4c0,0.1-0.1,0.3-0.1,0.5l0,0c-0.1,0.1-0.2,0.2-0.5,0.3
	c-0.2,0.1-0.3,0.3-0.3,0.6l0,0c-0.3,0.1-0.6,0.4-0.9,0.9c-0.3,0.5-0.5,0.9-0.7,1l0,0c-0.2,0.2-0.3,0.3-0.3,0.3l0,0l-0.4,0.5
	l-0.3,0.3c0.5,0.5,1.3,1.1,2.5,1.9l0,0l1.2,0.8c0.7,0.3,1.5,0.6,2.3,1.1c0.8,0.4,1.4,0.7,1.7,0.9l0,0c1.7,0.9,3,1.5,3.8,1.9l0,0
	c0.3,0.3,0.6,0.5,1.1,0.6l0,0c0.2,0.1,0.5,0.2,0.7,0.3s0.4,0.3,0.5,0.6l0,0c0.2,0.2,0.3,0.2,0.4,0.2l0,0l0.2-0.1
	c0.2,0,0.3,0.1,0.3,0.3l0,0c0.7,0.2,1.3,0.5,2,0.8s1.4,0.8,2.3,1.4l0,0h0.1c0.1,0.1,0.3,0.3,0.6,0.5s0.5,0.4,0.5,0.6l0,0
	c0.1-0.2,0.2-0.2,0.3-0.2l0,0c0.1,0,0.2,0.1,0.5,0.2s0.4,0.2,0.6,0.3l0,0h0.2c0.3,0,0.6,0.1,0.7,0.2l0,0c0.5,0.4,1.1,0.7,1.8,0.9
	l0,0c0.1,0.1,0.3,0.2,0.4,0.2l0,0c0.2,0,0.4,0,0.5-0.1s0.3-0.1,0.4-0.1l0,0l0.2,0.1c-0.1,0.2-0.1,0.3-0.1,0.4l0,0
	c0,0.2,0.1,0.3,0.2,0.6c0.1,0.2,0.2,0.4,0.3,0.6s0,0.4-0.1,0.5l0,0c-0.2,0-0.4,0.1-0.4,0.3l0,0c0,0.2,0,0.3,0.1,0.5s0.1,0.3,0.1,0.5
	s-0.1,0.2-0.3,0.3l0,0c-0.2,0-0.3,0.2-0.4,0.5c-0.1,0.3-0.2,0.5-0.3,0.6l0,0c-0.1,0.2-0.2,0.4-0.3,0.6c-0.1,0.2-0.2,0.4-0.2,0.6
	c0,0.2,0.1,0.3,0.3,0.3l0,0c-0.2,0.1-0.3,0.3-0.4,0.6c-0.1,0.3-0.2,0.5-0.3,0.6l0,0c0,0.2-0.2,0.4-0.6,0.6c-0.4,0.1-0.5,0.3-0.5,0.5
	l0,0c-0.2,0.2-0.5,0.3-0.8,0.3l0,0c-0.4,0-0.6-0.2-0.8-0.5l0,0c0-0.2,0-0.3-0.2-0.3l0,0l-0.5,0.1c-0.1,0-0.1,0-0.1-0.1l0,0V45
	c0-0.2-0.1-0.3-0.1-0.4c-0.1-0.1-0.2-0.2-0.3-0.2l0,0c-0.1,0-0.2,0-0.3,0.1l0,0c-0.2-0.1-0.6-0.3-1-0.5s-0.7-0.4-0.9-0.7l0,0
	c-0.8,0-1.4-0.1-1.9-0.4l0,0c-0.1,0-0.3-0.1-0.5-0.1l0,0h-0.1c-0.6,0-0.8-0.1-0.6-0.4l0,0h0.2c0.2,0,0.4,0,0.7-0.1
	c0.3,0,0.5,0,0.8,0l0,0h0.5c0.2,0,0.3,0,0.3-0.1s-0.2-0.1-0.4-0.1l0,0c-0.2-0.2-0.1-0.3,0.1-0.3l0,0l0.5,0.1
	c0.1,0.1,0.2,0.2,0.2,0.2l0,0c0,0,0.1,0,0.1-0.1l0,0c0-0.1-0.1-0.2-0.2-0.3c-0.2-0.1-0.3-0.2-0.5-0.2l0,0c-0.2-0.4-0.4-0.6-0.6-0.8
	c-0.2-0.2-0.6-0.4-1-0.7l0,0c-0.6-0.4-1-0.7-1.1-0.8l0,0l0.5-0.1c0.2,0,0.5,0.1,0.7,0.2s0.5,0.1,0.7,0.1l0,0c0.1,0,0.1,0,0.1-0.1
	l0,0c0-0.1-0.1-0.2-0.2-0.4c-0.1-0.1-0.3-0.2-0.4-0.1l0,0c-0.1-0.2-0.4-0.4-0.8-0.5c-0.4-0.1-0.6-0.3-0.8-0.5l0,0
	c-0.9,0-1.8-0.5-2.8-1.3l0,0c-0.3-0.1-0.6-0.3-1.1-0.6c-0.4-0.3-0.8-0.5-1-0.6l0,0c0-0.2,0-0.2-0.1-0.2l0,0c0,0-0.1,0-0.1,0.1
	c0,0-0.1,0.1-0.2,0.1l0,0c-0.4-0.2-0.8-0.4-1.4-0.7l0,0c-0.9-0.5-1.6-0.8-2.1-1l0,0c-0.1-0.2-0.3-0.3-0.6-0.4s-0.4-0.2-0.6-0.2l0,0
	c-2.2-1.1-4.3-2.5-6.4-4.2l0,0l-0.5-1.3c-0.4,0.4-1,1-1.6,1.9l0,0l-0.8,0.9c-0.2,0.2-0.5,0.5-0.8,1l0,0c-0.6,0.9-1.1,1.6-1.7,2l0,0
	c-0.4,0.6-1,1.3-1.7,2l0,0c0,0-0.3,0.4-0.8,1l0,0h-0.1c-0.1,0-0.2,0.1-0.2,0.2c0,0.1,0,0.2-0.1,0.4l0,0c-0.4,0.2-0.7,0.5-0.8,1l0,0
	c-0.2,0-0.4,0.2-0.5,0.4s-0.2,0.4-0.3,0.5l0,0c-0.2,0.4-0.6,0.9-1,1.4s-0.7,0.9-0.9,1.2l0,0c-0.3,0.1-0.5,0.3-0.7,0.7
	s-0.4,0.6-0.6,0.7l0,0c-0.2,0.3-0.5,0.8-1,1.3l0,0c-0.6,0.6-0.9,1.2-1.1,1.7l0,0c-0.7,0.6-1.4,1.5-1.9,2.5l0,0
	c-0.6,0.2-1,0.7-1.3,1.4l0,0c-0.2,0-0.4,0.1-0.5,0.2c-0.1,0.1-0.2,0.2-0.3,0.5l0,0c-0.2,0.2-0.3,0.4-0.4,0.6
	c-0.1,0.3-0.2,0.5-0.2,0.6l0,0c0.2,0,0.2,0.1-0.1,0.1c-0.2,0-0.3,0.1-0.2,0.2l0,0c-0.2,0-0.4,0.2-0.8,0.5c-0.3,0.3-0.6,0.4-0.9,0.4
	l0,0c-0.1,0-0.2-0.1-0.4-0.2l0,0c-0.1,0.1-0.2,0.2-0.3,0.2l0,0c-0.1,0-0.2-0.1-0.2-0.3s-0.1-0.3-0.1-0.3l0,0c0,0,0,0-0.1,0l-0.1,0.1
	l0,0c-0.7-0.5-1.2-1-1.3-1.6l0,0c0.1-0.3,0.1-0.5-0.1-0.8s-0.4-0.4-0.5-0.6c-0.1-0.2-0.1-0.4,0-0.7l0,0c-0.3-0.7-0.6-1.1-0.9-1l0,0
	C193.1,46.7,192.8,46.3,192.4,46.1L192.4,46.1z M208.1,53.2l-1.2-4c-0.2-0.4-0.1-0.6,0.2-0.6l0,0c0.3,0,0.6,0.1,0.8,0.4l0,0
	l-0.1,0.2c0,0.1,0.1,0.2,0.2,0.2c0.1,0.1,0.2,0.2,0.3,0.2l0,0c0.1,0.3,0.2,0.4,0.4,0.4l0,0l1.6-0.5l3.6-1.1l6.9-2.2
	c0.2,0,0.2-0.1,0.2-0.1l0,0c0-0.1-0.2-0.2-0.5-0.2l0,0c-0.2,0-0.3,0-0.4,0.1l0,0v-0.1c0-0.2-0.1-0.3-0.1-0.4
	c-0.1-0.1-0.3-0.1-0.5-0.1c-0.3,0-0.4-0.1-0.6-0.2l0,0c-0.2,0-0.4-0.2-0.7-0.4s-0.5-0.3-0.6-0.3l0,0c0,0-0.1,0-0.3,0.1l0,0
	c-0.5-0.4-1.2-1.2-2-2.4l0,0c-0.1-0.1-0.1-0.2-0.1-0.3l0,0c0-0.1,0.1-0.3,0.3-0.4c0.2-0.2,0.3-0.3,0.2-0.5l0,0h0.4
	c0.2,0,0.2-0.1,0.2-0.2l0,0c0.1-0.3,0.2-0.6,0.5-1.1c0.3-0.4,0.4-0.8,0.4-1l0,0c-0.1-0.1-0.2-0.2-0.2-0.2l0,0c0-0.1,0.1-0.2,0.2-0.3
	c0.2-0.1,0.2-0.2,0.1-0.4l0,0c-0.7-0.6-1-1-1-1.3l0,0c0-0.2,0.1-0.3,0.4-0.4l0,0c0.1-0.1,0.2-0.2,0.2-0.2l0,0c0,0,0.1,0.1,0.3,0.2
	c0.1,0.1,0.3,0.2,0.4,0.3l0,0c0.2,0.3,0.6,0.5,1.1,0.5c0.5,0.1,0.9,0.2,1.1,0.2l0,0c0.2,0,0.6,0.1,1.2,0.2s1,0.2,1.4,0.5l0,0
	c0.2,0.4,0.3,0.9,0.4,1.4s0.2,0.9,0.3,1.1l0,0c0.2,0.2,0.2,0.6,0.2,1.1l0,0c0,0.5,0,0.9,0.1,1.1l0,0c0.2,0.1,0.4,0.3,0.4,0.4l0,0
	c0,0.1-0.1,0.2-0.2,0.5l0,0c-0.1,0.9-0.7,1.6-1.9,2.2l0,0c0.6,0,1.2-0.2,1.8-0.4s1.2-0.4,1.7-0.6c0.5-0.2,0.9-0.4,1-0.5l0,0h0.1
	c0.3,0,0.5-0.1,0.7-0.2s0.2-0.3,0.2-0.6l0,0c0-0.3-0.1-0.5-0.2-0.7l0,0c-0.1-0.1-0.1-0.2-0.1-0.4l0,0c0-0.2,0.1-0.3,0.2-0.4
	c0.1-0.1,0.3-0.1,0.4-0.1l0,0l0.2,0.1c0.1,0,0.2,0.1,0.4,0.2c0.2,0.1,0.4,0.1,0.5,0.2c0.1,0.1,0.2,0.2,0.2,0.4l0,0
	c-0.2,0.1-0.2,0.2-0.2,0.3s0.1,0.1,0.3,0.2l0,0h0.4c0.2,0,0.2,0,0.2,0.1l0,0c0,0.1-0.1,0.2-0.2,0.3c-0.1,0.1-0.1,0.2-0.1,0.3l0,0
	c0.1,0.2,0.4,0.4,0.7,0.6c0.4,0.3,0.6,0.5,0.7,0.6l0,0c0.2,0.2,0.4,0.4,0.8,0.5l0,0h0.6c0.2,0,0.4,0.1,0.6,0.3l0,0
	c0.2,0.1,0.3,0.3,0.4,0.6s0,0.5-0.3,0.4l0,0h-0.1c-0.1,0-0.2,0-0.2,0.1l0,0c0,0,0.1,0.1,0.2,0.2c0.1,0.1,0.2,0.2,0.3,0.4l0,0
	c-0.1,0.2-0.1,0.3-0.1,0.3l0,0c0,0.2,0.1,0.3,0.3,0.5s0.4,0.4,0.5,0.5c0.1,0.2,0.1,0.3-0.1,0.5l0,0c-0.4,0.6-1.1,1-2.2,1.2l0,0
	l0.1,0.2c0,0.1,0,0.2-0.1,0.3s-0.2,0.1-0.3,0.1l0,0c0,0-0.1,0-0.2-0.1l0,0c-0.1,0.5-0.4,1.1-1,1.7l0,0c-0.1,0-0.2,0.1-0.3,0.4
	c-0.1,0.2-0.2,0.4-0.3,0.4l0,0c0,0-0.1-0.1-0.2-0.2l0,0v0.1c0,0.3-0.1,0.5-0.3,0.7s-0.5,0.4-0.8,0.7l0,0c-0.3,0.4-0.6,0.8-1,1.1l0,0
	c-0.5,0.6-0.8,1-1,1.3l0,0c-0.4,0.4-0.8,0.8-1.2,1.4s-0.8,1-1,1.2l0,0c0,0.2-0.1,0.3-0.4,0.4s-0.4,0.3-0.4,0.4l0,0
	c-0.4,0.3-0.7,0.8-1.1,1.4l0,0c-0.4,0.6-0.7,1.1-1,1.4l0,0c-0.2,0.1-0.4,0.3-0.7,0.8c-0.3,0.4-0.6,0.7-0.8,0.7l0,0
	c-0.5,0.1-0.8,0.2-1,0.2l0,0c-0.2,0-0.4-0.1-0.4-0.2l0,0c-0.4-0.1-0.8-0.3-1.1-0.7c-0.3-0.3-0.5-0.7-0.8-1.1
	c-0.2-0.4-0.4-0.7-0.5-0.9l0,0c0-0.2-0.2-0.5-0.5-0.9c-0.3-0.3-0.5-0.6-0.5-0.9l0,0c0-0.2,0.1-0.3,0.3-0.4c0.2-0.1,0.4-0.1,0.6-0.1
	l0,0c0.2,0,0.4,0.1,0.6,0.3l0,0c0-0.1,0.2-0.2,0.4-0.4s0.4-0.4,0.4-0.5l0,0c0,0.1,0.1,0.1,0.2,0.1l0,0c0.1,0,0.2-0.1,0.3-0.5
	c0.1-0.3,0.2-0.4,0.4-0.4l0,0c0.2-0.1,0.3-0.3,0.4-0.5c0.1-0.3,0.2-0.4,0.2-0.5l0,0c0.1-0.1,0.3-0.3,0.7-0.7
	c0.3-0.3,0.5-0.6,0.5-0.9l0,0c0.2,0,0.4-0.1,0.6-0.5c0.2-0.3,0.4-0.5,0.5-0.5l0,0c0.2-0.6,0.5-1.1,1-1.6s0.8-0.8,1-1l0,0
	c0.2-0.1,0.3-0.3,0.4-0.5c0.1-0.3,0.2-0.4,0.4-0.4l0,0c0.2,0,0.4-0.1,0.4-0.2c0-0.1-0.1-0.1-0.2-0.1l0,0c-0.2,0-0.3,0.1-0.4,0.2l0,0
	c-0.4,0-1,0.2-1.6,0.5l0,0c-0.9,0.4-1.6,0.6-2.1,0.5l0,0h-0.2c-0.1,0.2-0.2,0.2-0.3,0.2l0,0c-0.1,0-0.3-0.1-0.4-0.2
	s-0.3-0.1-0.4-0.1l0,0c0,0,0,0.1,0.1,0.2c0.1,0.1,0.1,0.2,0.1,0.3s-0.1,0.1-0.3,0.1l0,0c-1.9,0.7-3.6,1.2-5,1.6l0,0
	c-0.6,0.4-1.4,0.7-2.2,0.7l0,0c-0.5-0.1-1-0.3-1.4-0.5l0,0c0-0.1-0.1-0.2-0.3-0.4s-0.3-0.4-0.4-0.6l0,0c-0.1,0-0.2-0.2-0.4-0.4
	C208.4,53.4,208.2,53.3,208.1,53.2L208.1,53.2z M235.2,38.9c-0.2-0.1-0.4-0.2-0.6-0.4l0,0l0.2-0.1c0.1,0,0.2,0,0.2,0.1
	S235.2,38.8,235.2,38.9L235.2,38.9z M237.8,39.3h0.6c0.1,0,0.1-0.1,0.1-0.2l0,0c0-0.2-0.2-0.3-0.5-0.3l0,0
	C237.7,38.8,237.6,39,237.8,39.3L237.8,39.3z"/>
<path d="M253.5,63.5c0-0.2-0.1-0.4-0.1-0.7l0,0c0-0.4,0.1-1,0.2-1.9l0,0l0.2-1.3c0-0.2,0-0.3,0-0.3c0-0.1,0.1-0.1,0.1-0.1l0,0
	c0,0,0.1,0.1,0.3,0.2c0.2,0.1,0.3,0.2,0.4,0.3l0,0c0.2,0.1,0.4,0.2,0.5,0.4s0.1,0.4,0.2,0.8c0.1,0.3,0.2,0.6,0.3,0.6l0,0
	c3.1-1.6,6.3-3.4,9.6-5.4l0,0c0.3-0.1,0.5-0.3,0.6-0.5c0.1-0.3,0.2-0.7,0.2-1.2s0.1-0.9,0.2-1.1l0,0c0-0.2,0.1-0.5,0.2-1
	s0.1-0.8,0.1-0.9l0,0c-0.2,0-0.5-0.1-0.9-0.2c-0.4-0.1-0.7-0.1-0.9-0.1l0,0c-0.3,0-0.6,0.1-0.7,0.3l0,0c-0.3,0-0.5,0.2-0.7,0.6
	c-0.2,0.3-0.4,0.5-0.6,0.6l0,0c-0.2-0.1-0.4-0.1-0.7-0.1l0,0c-0.2,0-0.5,0-0.7,0.1s-0.4,0.1-0.6,0.1l0,0c-0.3,0-0.6-0.1-0.8-0.2l0,0
	c-0.3,0-0.4-0.1-0.4-0.3l0,0c0-0.1,0.1-0.3,0.1-0.4c0.1-0.2,0.2-0.3,0.2-0.4l0,0c-0.2-0.1-0.4-0.3-0.6-0.6c-0.1-0.3-0.2-0.5-0.3-0.6
	l0,0c-0.3-0.8-0.7-1.3-1.1-1.5l0,0c0.3-1.3,0.5-3,0.5-5.2l0,0c0.1-1.3,0.2-2.1,0.2-2.3l0,0c0-1.4-0.4-2.3-1.1-2.9l0,0
	c-0.1-0.2-0.2-0.3-0.2-0.4l0,0c0-0.2,0.2-0.3,0.5-0.3l0,0c0.3,0,0.6,0,0.8,0.1l0,0c0.6,0.2,1.3,0.3,2.2,0.3l0,0c0.4,0,0.6,0,0.9-0.1
	c0.2-0.1,0.4-0.3,0.4-0.6l0,0c-0.3-0.6-0.4-1.2-0.4-1.8l0,0c0-0.5,0.1-1,0.2-1.7c0.2-0.6,0.3-1.2,0.5-1.8l0,0
	c0.3-0.8,0.4-1.3,0.5-1.6l0,0c0-0.2,0.1-0.4,0.4-0.8s0.3-0.7,0.1-0.9l0,0c-0.7,0.4-1.3,0.8-1.7,1c-0.4,0.2-0.9,0.3-1.4,0.3l0,0
	c-0.8,0-1.8-0.3-2.7-1c-1-0.7-1.5-1.4-1.5-2.2l0,0c0.7,0,1.3-0.2,1.9-0.4c0.6-0.2,1.3-0.6,2.2-1.1l0,0c0.8-0.5,1.4-0.8,1.8-1l0,0
	c0.2-0.1,0.5-0.3,0.8-0.6c0.3-0.3,0.5-0.4,0.7-0.4l0,0c0.2,0,0.4,0.1,0.5,0.2l0,0c0-0.2,0.1-0.5,0.3-0.6c0.2-0.2,0.4-0.4,0.6-0.5
	l0,0c0.4-0.6,0.8-1.1,0.9-1.7c0.2-0.6,0.4-1.5,0.7-2.6l0,0c0.2-1.2,0.5-2.1,0.7-2.6l0,0c0.2-0.4,0.1-0.8-0.1-1s-0.5-0.4-1-0.6l0,0
	c-0.3-0.1-0.6-0.3-0.8-0.4c-0.3-0.2-0.4-0.3-0.6-0.5l0,0l3.2-1.1c0.2,0.1,0.7,0.4,1.6,0.7l0,0c0.7,0.2,1.2,0.5,1.7,0.7
	c0.4,0.2,0.8,0.6,1,1l0,0c0,0.2,0.1,0.4,0.3,0.8c0.2,0.3,0.3,0.6,0.3,0.8l0,0c0,0.1-0.1,0.3-0.2,0.5l0,0c0,0.2-0.1,0.4-0.3,0.8
	s-0.2,0.7,0,0.8l0,0c0.3,0,0.6-0.3,1.1-0.6c0.4-0.4,0.8-0.6,1.1-0.6l0,0c1.8,0.1,3.5,0.7,5.1,1.8l0,0c0.3,0,0.5,0.1,0.7,0.3
	c0.2,0.2,0.2,0.3,0.2,0.5l0,0c0,0.3-0.2,0.6-0.5,0.7l0,0h-0.4c-0.4,0-1,0.2-1.6,0.6l0,0c-0.6,0.4-1.1,0.5-1.5,0.5l0,0
	c-0.2,0.3-0.4,0.6-0.7,0.8c-0.3,0.2-0.6,0.4-0.9,0.5s-0.5,0.2-0.6,0.2l0,0c-0.8,0.2-1.4,0.5-1.8,0.9l0,0c-0.6,0.2-1.1,0.6-1.4,1.1
	c-0.4,0.5-0.7,1.3-1.1,2.2l0,0l-0.7,1.5c0,0.5,0,1-0.2,1.4c-0.2,0.5-0.3,0.8-0.4,0.8l0,0c-0.4,0.9-0.6,1.6-0.6,2.2l0,0l6.1-3.5
	c0.2-0.4,0.6-0.5,1-0.5l0,0c0.2,0,0.7,0.2,1.3,0.5l0,0c0.6,0.3,1,0.5,1.4,0.5l0,0l0.7,0.1c0.3,0.1,0.4,0.2,0.4,0.3l0,0
	c0,0.2,0.2,0.5,0.4,1c0.3,0.5,0.4,0.8,0.5,1.1l0,0c0,0.1,0.1,0.6,0.2,1.6l0,0c0,0.2,0.1,0.5,0.1,0.9s0.1,0.7,0.1,1.2l0,0
	c0,0.6-0.1,1.2-0.2,1.7l0,0c0,0.4,0,0.8-0.2,1.1s-0.3,0.5-0.4,0.5l0,0c-0.4,0.6-0.6,1-0.5,1.4l0,0c0.1,0.2,0.2,0.5,0.2,0.7l0,0
	c0,0.4-0.1,0.7-0.4,1c-0.2,0.3-0.5,0.6-0.9,0.7l0,0c0,0.2-0.1,0.5-0.1,0.9s0,0.7-0.1,1s-0.2,0.6-0.5,0.8l0,0
	c-0.2,0.1-0.3,0.2-0.4,0.3c0,0.1-0.1,0.3-0.1,0.5s0,0.4-0.1,0.5l0,0c0,0.2-0.2,0.4-0.4,0.5c-0.2,0.1-0.4,0.2-0.6,0.3
	c-0.1,0.1-0.2,0.2-0.1,0.4l0,0c0.1,0.4,0.1,0.7-0.1,0.9s-0.5,0.3-1,0.5s-0.8,0.3-0.9,0.5l0,0c-0.2,0.4-0.4,0.8-0.7,1
	c-0.3,0.2-0.7,0.4-1.2,0.5s-0.9,0.2-1.2,0.4l0,0c-0.3,0.1-0.5,0.3-0.5,0.4c-0.1,0.2-0.1,0.4-0.1,0.6c0,0.2,0,0.4,0,0.5l0,0l3.7-2.2
	c0.2-0.1,0.6-0.3,1.2-0.7l0,0c0.3-0.2,0.6-0.4,0.9-0.6c0.3-0.2,0.6-0.3,0.9-0.3l0,0h0.2c0.1,0.1,0.3,0.2,0.5,0.3s0.4,0.2,0.5,0.2
	l0,0c0.9,0.3,1.4,0.7,1.6,1.3l0,0l2.4-10.8c0.6-1.7,1.2-4.1,1.9-7.4l0,0c0.6-2.6,1.1-4.6,1.5-5.9l0,0c0-0.6,0.1-1,0.5-1.3
	s0.8-0.5,1.3-0.5l0,0c0.6,0,1.1,0.2,1.6,0.5l0,0c0.5,0.1,0.8,0.4,0.8,0.9l0,0c0,0-0.1,0.4-0.2,1.1l0,0l6.7-6.2
	c0.2-0.1,0.3-0.2,0.3-0.4l0,0c0-0.2-0.1-0.3-0.3-0.5c-0.2-0.2-0.4-0.3-0.5-0.5s-0.1-0.3,0-0.4l0,0c1.4,0,3,0.3,4.8,1l0,0
	c0.9,0.2,1.3,0.9,1.3,2.2l0,0c0,0.5,0,0.8-0.1,1l0,0c-0.1,0.3-0.1,0.6-0.1,0.7l0,0c0,0.3,0.1,0.6,0.2,1s0.2,0.6,0.2,0.7l0,0
	c0.3,0.8,0.5,1.4,0.4,1.9l0,0c0.3,1.2,0.4,2.5,0.4,3.9l0,0c0,1-0.1,2.8-0.4,5.6l0,0l1.9-1.1c0.2,0,0.4-0.2,0.8-0.5s0.6-0.4,0.8-0.4
	l0,0c0,0.2-0.1,0.4-0.4,0.7c-0.3,0.2-0.5,0.4-0.6,0.6l0,0c-0.2,0.1-0.4,0.2-0.6,0.5s-0.2,0.4-0.3,0.5l0,0c0,0-0.1,0.2-0.3,0.5
	c-0.2,0.3-0.4,0.4-0.7,0.5l0,0c-0.4,0.5-0.6,1-0.7,1.7s-0.1,1.4-0.1,2.2l0,0c-0.3,1.8-0.4,3.3-0.4,4.4l0,0c0,0.2,0,0.5,0,0.9
	s0.1,0.7,0.1,1l0,0c0,0.6-0.2,1.2-0.5,1.7l0,0c-0.3,0-0.5,0.2-0.6,0.3s-0.1,0.5-0.2,0.9c0,0.4-0.2,0.7-0.5,0.9l0,0
	c0.2,0.5,0.2,1,0.2,1.6l0,0c0,0.7-0.1,1.4-0.2,2c-0.2,0.7-0.3,1.1-0.3,1.2l0,0c-0.1,0.4-0.3,0.9-0.4,1.7l0,0c-0.3,1.8-0.8,3-1.3,3.7
	l0,0c0,0.6-0.1,1-0.3,1.4c-0.2,0.4-0.6,0.9-1.1,1.4l0,0v0.2c0,0.2-0.1,0.4-0.2,0.5s-0.3,0.3-0.5,0.4s-0.4,0.2-0.5,0.3l0,0l0.1,0.1
	c0,0-0.2,0-0.4-0.1c-0.2-0.1-0.3-0.1-0.4,0l0,0c-0.3,0.5-0.7,0.8-1.2,1s-1,0.3-1.6,0.3c-0.6,0.1-1,0.1-1.4,0.1l0,0
	c-1.6,0-3-0.3-4.3-1s-2.2-1.7-2.7-3.2l0,0c0-0.2,0-0.2,0.1-0.2l0,0c0,0,0.1,0.1,0.2,0.2s0.1,0.2,0.2,0.4l0,0
	c0.3,0.8,0.9,1.4,1.6,1.9s1.6,0.8,2.4,0.8l0,0c0.8,0,1.5-0.3,2.2-0.8l0,0c1.6-1,2.7-2.4,3.3-4.1c0.6-1.7,1.2-4,1.6-6.7l0,0
	c0.1-0.6,0.2-1.6,0.5-2.8l0,0c0-0.6,0.1-1.4,0.2-2.5l0,0c0.2-1.5,0.3-2.8,0.2-3.7l0,0c0-0.1-0.1-0.1-0.2-0.1l0,0
	c-0.1,0-0.2,0.2-0.4,0.5c-0.1,0.3-0.3,0.5-0.5,0.4l0,0c-1.3,1.2-3.4,2.8-6.2,4.6l0,0c-0.3,0.3-0.7,0.5-1.1,0.6s-0.9,0.2-1.5,0.4l0,0
	c-0.4,0.1-0.9,0.3-1.3,0.4c-0.4,0.1-0.8,0.3-1.1,0.6l0,0c-0.2,0.1-0.2,0.2-0.2,0.3l0,0c0,0.1,0.1,0.2,0.3,0.4
	c0.2,0.1,0.3,0.2,0.4,0.3l0,0c-0.2,0.1-0.4,0.3-0.5,0.6s-0.2,0.7-0.1,1l0,0c-0.4,0.4-0.5,0.9-0.5,1.7l0,0c0,0.1,0,0.4,0,0.9
	s-0.1,0.9-0.2,1.2s-0.4,0.6-0.8,0.8l0,0c-1-0.2-1.8-0.7-2.6-1.4s-1.2-1.6-1.2-2.5l0,0c0.3-0.8,0.5-1.7,0.6-2.8l0,0
	c0.1-0.3,0.2-0.8,0.3-1.4c0.1-0.7,0.3-1.2,0.4-1.7l0,0c-0.8,0.3-1.6,0.7-2.4,1.2s-1.6,1.1-2.5,1.9l0,0c-0.6,0.5-1.3,1-2,1.4
	c-0.7,0.5-1.3,0.9-1.9,1.1l0,0c-0.8,0.2-1.3,1-1.3,2.2l0,0v1c0,0.4,0,0.8-0.1,1l0,0c0,0.4,0,0.9,0.1,1.7l0,0
	c0.1,0.7,0.1,1.2,0.1,1.6l0,0c0,0.5-0.1,1-0.2,1.4l0,0c-1.2,0-2.4-0.7-3.5-2l0,0c-0.5-0.4-0.7-1-0.7-1.8l0,0c0-0.3,0-0.7,0.1-1
	c0.1-0.4,0.1-0.7,0.1-1.1l0,0c-0.5,0.7-1.2,1.2-1.9,1.6c-0.7,0.4-1.8,0.8-3,1.2l0,0c-1,0.9-2.2,1.3-3.7,1.3l0,0
	C255.4,64.6,254.3,64.2,253.5,63.5L253.5,63.5z M286.5,39.1h0.2c0.7-0.4,1.8-1,3.1-2l0,0c1.2-0.9,2.2-1.6,3.1-2l0,0
	c0.5-0.4,1-0.5,1.6-0.5l0,0c0.2,0,0.6,0,1.1,0.1s0.8,0.1,1,0.1l0,0h0.2l0.4-7.5c-0.1-0.2-0.1-0.4,0-0.8c0.1-0.3,0-0.5-0.1-0.6l0,0
	l-1.1,1c-0.9,0.8-1.6,1.3-2.1,1.6l0,0c-0.2,0.1-0.5,0.2-0.7,0.4c-0.2,0.2-0.3,0.3-0.4,0.4l0,0c0,0-0.1,0.2-0.3,0.4
	c-0.2,0.2-0.4,0.3-0.7,0.3l0,0h-0.2c-0.5,0.6-1.2,1.3-2,1.9l0,0c-1,0.8-1.4,1.3-1.4,1.3l0,0C287.3,35.3,286.8,37.3,286.5,39.1
	L286.5,39.1z M264.5,39.9c-0.4,0.1-0.5,0.4-0.5,0.8l0,0c0,0.2,0,0.4,0.1,0.6c0,0.2,0.1,0.4,0.1,0.6l0,0c0.7-0.6,2-1.3,3.8-2.2
	s3.1-1.3,3.8-1.3l0,0c0.8,0,1.5,0.3,2,0.8l0,0c0.8-2.4,1.3-4.6,1.5-6.7l0,0c-0.7,0.2-1.7,0.8-2.9,1.7l0,0c-0.7,0.6-1.3,1-1.7,1.2
	l0,0c-0.5,0.1-1,0.3-1.3,0.6c-0.4,0.3-0.7,0.8-1.1,1.3l0,0c-0.1,0.1-0.3,0.4-0.7,0.8s-0.8,0.7-1.3,0.9l0,0c-0.2-0.1-0.3-0.1-0.4-0.1
	l0,0c-0.2,0-0.5,0.1-0.7,0.4C264.9,39.6,264.7,39.8,264.5,39.9L264.5,39.9z M284.6,50.1c1.2-0.6,2.4-1.3,3.6-2.1s2.5-1.8,4-3l0,0
	c1.8-1.4,2.8-2.1,3.1-2.3l0,0c0.4-0.2,0.7-0.4,0.9-0.7s0.2-0.7,0.2-1.2l0,0c0-0.3,0-0.6-0.1-0.9c0-0.3-0.1-0.6-0.1-0.8l0,0
	c0.1-0.2,0.1-0.3,0.1-0.3l0,0c0-0.2-0.2-0.2-0.5-0.2l0,0h-0.3c-0.1,0.4-0.4,0.8-0.8,1.2s-0.7,0.7-0.8,0.8l0,0
	c-0.6,0.3-1.2,0.8-1.6,1.3s-0.7,0.9-0.8,1l0,0c-0.6,0.8-1.1,1.3-1.4,1.6l0,0c-0.3,0-0.6,0.2-0.7,0.4s-0.3,0.5-0.5,0.8
	c-0.2,0.4-0.3,0.6-0.4,0.7l0,0l-0.3-0.1l3.4-5.9c-0.4,0-0.9,0.2-1.4,0.5s-0.9,0.5-1.1,0.5l0,0c-0.4,0-0.8,0.3-1.4,0.7l0,0
	c-0.6,0.4-1,0.6-1.4,0.6l0,0c-0.3,0-0.5-0.1-0.6-0.2l0,0c-0.1,0.4-0.2,0.9-0.2,1.5s-0.1,0.9-0.1,1l0,0c0,0.7-0.1,1.4-0.2,2.1l0,0
	c-0.2,0.2-0.4,0.5-0.5,0.8s-0.1,0.7-0.2,1.2C284.8,49.5,284.7,49.9,284.6,50.1L284.6,50.1z M266.4,47.1l0.5,0.1c0.2,0,0.6-0.2,1-0.5
	c0.5-0.4,0.8-0.5,1-0.5l0,0c0.3-0.3,0.8-0.5,1.4-0.5l0,0c0,0,0.2,0,0.6-0.1c0.3-0.1,0.6-0.2,0.8-0.5l0,0c0-0.2,0.1-0.5,0.3-0.9
	c0.2-0.4,0.3-0.7,0.4-1s0.1-0.6,0-0.9l0,0c-0.9,0.6-2.2,1.7-3.9,3.2l0,0L266.4,47.1z M264.2,45.5c0,0.3,0,0.7-0.1,1.2
	c-0.1,0.5-0.2,0.9-0.2,1.2l0,0c0,0.4,0.1,0.8,0.4,1l0,0l4.1-6.1l-0.1-0.1c-0.4,0-1,0.3-1.7,0.9l0,0c-0.1,0.1-0.3,0.2-0.6,0.5
	c-0.3,0.2-0.6,0.4-0.9,0.4l0,0h-0.3c-0.2,0-0.3,0.1-0.4,0.2c-0.1,0.1-0.1,0.3-0.1,0.5S264.2,45.4,264.2,45.5L264.2,45.5z"/>
<path d="M350.8,17.3l0.3,1.1l0.1,0.2c0,0.2-0.1,0.4-0.4,0.4c-0.2,0-0.4,0.1-0.4,0.1l0,0c-0.4-0.1-0.7-0.1-0.8-0.1l0,0
	c-0.4,0-0.7,0.1-1.1,0.2c-0.3,0.2-0.7,0.4-1.2,0.7l0,0c-0.5,0.3-0.9,0.6-1.2,0.7c-0.3,0.2-0.7,0.2-1,0.2l0,0h-0.4
	c-0.1-0.6,0.1-1.4,0.6-2.4l0,0c0.4-0.9,0.6-1.5,0.6-2l0,0c0-0.2,0-0.4-0.1-0.6l0,0c-0.2-0.2-0.4-0.4-0.4-0.7l0,0
	c0-0.2,0.1-0.4,0.2-0.5s0.3-0.2,0.4-0.2l0,0c0.2,0,0.3,0,0.4,0.1l0,0c0.5,0.4,1.2,0.8,2,1.2l0,0c0.4,0.2,0.9,0.4,1.3,0.6
	C350.2,16.7,350.5,17,350.8,17.3L350.8,17.3z M364.8,38.6l0.1-0.7c0-0.3,0.1-0.4,0.2-0.4l0,0c0.1,0,0.3,0,0.4,0.1s0.3,0.1,0.5,0.2
	l0,0c1.2,0.4,2.2,1.3,3.1,2.6l0,0c0.1,0.7-0.1,1.2-0.5,1.5c-0.5,0.3-1.2,0.6-2.1,0.9l0,0c-0.4,0-0.8,0.1-1.2,0.3l0,0
	c-0.2,0-0.4,0.1-0.7,0.4c-0.3,0.3-0.5,0.4-0.7,0.4l0,0h-0.1c-0.8,0.2-2.8,0.7-6.1,1.6l0,0c-1.7,0.5-3.2,0.9-4.6,1.3l0,0l4.3-2.6
	c0-0.1-0.2-0.2-0.4-0.2l0,0c-0.2,0-0.4,0-0.6,0.1s-0.4,0.1-0.5,0.2l0,0c-0.5,0.3-1.3,0.5-2.3,0.7l0,0c-0.9,0.1-1.6,0.3-2.2,0.5l0,0
	c-0.3,0.3-0.5,0.8-0.5,1.5l0,0c0,0.4,0,0.8,0.1,1.3s0.1,0.9,0.1,1.2l0,0c0.1,1.1,0.1,2,0.1,2.5l0,0c0,2-0.2,3.9-0.5,5.9l0,0
	c-0.2,0.3-0.3,0.7-0.3,1.2l0,0c0,0.3,0,0.6,0.1,1s0.1,0.8,0,1.1l0,0c0.1,0.4,0.2,0.7,0.2,1.1l0,0c0,0.3,0,0.6-0.1,0.9
	s-0.1,0.6-0.1,0.9l0,0c0,0.6,0.2,1.2,0.5,1.6l0,0c0.2,0.1,0.2,0.3,0.2,0.4l0,0c0,0.2-0.1,0.3-0.2,0.5s-0.3,0.3-0.5,0.4l0,0
	c-0.2,0.1-0.5,0.1-0.9,0.1l0,0c-1,0-1.9-0.4-2.7-1.2c-0.8-0.8-1.4-1.7-1.7-2.8l0,0v-4.4c0-5,0.1-9,0.4-12.1l0,0l-5.2,1.2
	c-0.7,0.4-1.5,0.6-2.2,0.6l0,0c-0.8,0-1.6-0.3-2.3-0.8c-0.7-0.5-1.2-1.2-1.3-2l0,0c0-0.1-0.1-0.3-0.1-0.7s-0.1-0.6-0.3-0.6l0,0
	c-0.2,0.7-0.4,1.4-0.4,1.9l0,0c0,0.6,0.1,1,0.4,1.4l0,0c-0.1,0.5-0.3,1.1-0.8,1.9l0,0l-0.5,1.1c-0.1,0.5-0.2,1.3-0.2,2.5l0,0
	c-0.1,1.1-0.2,2-0.4,2.8s-0.4,1.6-0.8,2.3l0,0c-0.5,0.3-1.2,0.5-1.9,0.5l0,0c-0.8,0-2-0.3-3.5-0.8l0,0c-0.3-0.1-0.7-0.3-1.3-0.4l0,0
	c-0.4-0.3-0.9-0.4-1.4-0.4l0,0c-0.8,0-1.5,0.3-2.2,1l0,0c-0.6,0.4-1.3,0.7-2.1,1c-0.8,0.3-1.5,0.4-2.2,0.4l0,0
	c-1.3,0-2.2-0.6-2.8-1.7l0,0c0-0.4-0.2-0.6-0.4-0.8c-0.2-0.2-0.5-0.3-0.8-0.3s-0.4-0.1-0.5-0.1l0,0c-0.1-0.1-0.4-0.4-0.8-0.9
	s-0.7-1-0.9-1.5l0,0c-0.1-1.4,0-3,0.2-4.6s0.3-2.5,0.4-2.8l0,0c0.2-1.6,0.4-3.1,0.5-4.7l0,0c0-0.3,0-0.8,0.2-1.6l0,0
	c0.1-0.8,0.2-1.3,0.2-1.4l0,0c0-0.5-0.2-0.9-0.5-1.3l0,0c-0.3,0-0.4-0.1-0.4-0.2l0,0c0-0.2,0.3-0.4,1-0.6l0,0
	c0.1-0.1,0.2-0.2,0.4-0.2l0,0c0.1,0,0.3,0.1,0.5,0.3s0.4,0.3,0.5,0.3l0,0c0.8-0.4,1.6-0.9,2.6-1.5l0,0l1.9-1.1
	c0.4-0.8,0.9-2.1,1.3-3.9l0,0c0.3-1.5,0.6-2.6,1-3.4l0,0c0.6,0,1,0.2,1.4,0.7s0.7,1,0.9,1.7l0,0c0.1,0.2,0.1,0.4,0.1,0.5l0,0
	c0,0.2-0.1,0.5-0.4,1c-0.2,0.5-0.3,0.9-0.2,1.2l0,0h0.1c0.2,0,0.4-0.1,0.8-0.4c0.3-0.3,0.6-0.4,0.8-0.4l0,0c0.1,0,0.2,0,0.2,0.1l0,0
	c0.3-0.5,0.5-1,0.7-1.6c0.1-0.6,0.3-1.3,0.4-2.2l0,0c0.2-1.4,0.4-2.4,0.7-3l0,0c0.6,0,1.1,0.3,1.5,0.9c0.4,0.5,0.7,1.1,0.8,1.8l0,0
	c0.1,0.2,0.1,0.6-0.1,1s-0.2,0.7-0.2,0.8l0,0c0,0.2,0.1,0.4,0.2,0.5l0,0c0.2,0,0.4-0.1,0.4-0.3l0,0c0-0.2,0-0.3-0.1-0.5
	c-0.1-0.1-0.1-0.3-0.2-0.4l0,0c0.1,0,0.3-0.1,0.5-0.1l0,0h0.8c0.3,0,0.5,0,0.5-0.1l0,0c1.6,0.4,3.1,1.6,4.6,3.7l0,0
	c0.2,1,0.3,2.1,0.3,3.4l0,0c0,1.6-0.2,3.6-0.5,6l0,0l-0.2,2.2l2.6-0.8h0.1c0.1,0,0.3,0,0.5-0.1s0.4-0.2,0.5-0.2l0,0
	c0.2,0,0.3,0.1,0.3,0.2l0,0l-2.2,1c-0.2,0-0.3,0.1-0.3,0.2l0,0c0,0.1,0,0.2,0.1,0.3c0,0.1,0.1,0.2,0.1,0.3l0,0l9.8-2.8v-0.5
	c0-0.3,0-0.5-0.1-0.6s-0.4-0.2-0.7-0.3c-0.4-0.1-0.5-0.3-0.5-0.6l0,0c0-0.4-0.4-0.9-1-1.5s-1.2-0.8-1.6-0.8l0,0
	c-0.2,0-0.4,0.2-0.6,0.5s-0.3,0.6-0.4,1s-0.2,0.6-0.2,0.7l0,0c-0.1,0.6-0.4,1.2-0.8,1.8s-0.8,0.8-1.3,0.8l0,0
	c-0.3,0-0.6-0.1-0.8-0.3l0,0c-0.1-0.3-0.3-0.6-0.5-0.9c-0.2-0.3-0.4-0.6-0.5-0.9c-0.1-0.3-0.1-0.5,0-0.8l0,0
	c1.8-3.4,3.4-7.2,4.9-11.4l0,0c0-0.3,0-0.4-0.1-0.4l0,0c0,0-0.2,0.1-0.4,0.3s-0.4,0.3-0.5,0.2l0,0c-0.3,0.1-0.6,0.2-0.8,0.2l0,0
	c-0.6,0-1.1-0.3-1.6-0.8s-0.7-1.1-0.7-1.8l0,0c0-0.4,0.1-0.8,0.4-1.2l0,0c0.1,0,0.2,0,0.4,0.1c0.2,0.1,0.3,0.1,0.4,0.1l0,0
	c0.3,0,0.8-0.1,1.3-0.4l0,0c3-1.4,5.7-2.5,8-3.5c2.4-1,4.7-1.8,7.1-2.5l0,0c0.2,0,0.7-0.1,1.4-0.4l0,0c0.8-0.3,1.4-0.5,1.9-0.5l0,0
	c0.6,0,1.1,0.3,1.4,0.8l0,0h0.4c0.6,0,1,0.2,1.1,0.6l0,0c0,0.4,0.2,0.5,0.6,0.5l0,0h0.7c0.1,0.1,0.1,0.3,0.2,0.7
	c0.1,0.3,0.2,0.5,0.5,0.6l0,0c-2.5,0.3-4.8,0.8-7,1.4l0,0c-1.7,0.3-3.4,0.8-5,1.5s-3.4,1.6-5.3,2.7l0,0c-0.4,0.3-1.1,0.6-2,0.7l0,0
	c-0.4,0.1-0.7,0.2-1,0.3c-0.3,0.1-0.6,0.3-0.9,0.5l0,0c0,0.2,0.3,0.4,0.8,0.5s0.8,0.3,0.9,0.4l0,0c0.3,0.5,0.5,1,0.5,1.6l0,0
	c0,0.5-0.1,1-0.3,1.5c-0.2,0.5-0.5,1.1-0.8,1.9l0,0c-0.3,0.5-0.5,1-0.7,1.4l0,0l5.6,3.1l0.2,0.1c0,0,0-0.1,0-0.4
	c0-0.3,0-0.5,0.1-0.6l0,0c0.4-1,1-2.6,2-4.6l0,0c0.9-1.9,1.5-3.4,2-4.7c0.5-1.2,0.8-2.5,0.9-3.9l0,0c0.1-0.5,0.4-0.7,0.7-0.7l0,0
	c0.3,0,0.6,0.1,1,0.3c0.4,0.2,0.7,0.4,0.8,0.5l0,0c0.7,0.5,1,1.2,1,2.2l0,0c0,1.2-0.5,2.5-1.5,3.9l0,0c0.3-0.2,0.7-0.4,1.2-0.4l0,0
	c0.4,0,0.7,0.1,1.1,0.2s0.8,0.4,1.1,0.6s0.7,0.4,1,0.6l0,0c0,0,0.4,0.3,1.3,0.9l0,0c0.6,0.3,1.1,0.6,1.5,1c0.4,0.3,0.6,0.8,0.7,1.2
	l0,0c0.2,0.2,0.2,0.4,0.2,0.5l0,0c0,0.2-0.2,0.3-0.5,0.3l0,0c-0.3,0.1-0.5,0.2-0.7,0.2l0,0c-0.3,0-0.8-0.2-1.3-0.5l0,0
	c-0.6-0.4-1.1-0.5-1.4-0.5l0,0l-4.6-2c-0.2,0-0.3,0-0.4,0.2s-0.2,0.4-0.3,0.8s-0.2,0.6-0.3,0.7l0,0c-0.5,0.7-1.1,1.6-1.7,2.9l0,0
	c-0.1,0.2-0.3,0.6-0.7,1.3c-0.4,0.7-0.8,1.4-1.3,2l0,0c0.4,0.3,1,0.4,1.6,0.4l0,0c0.4,0,1.2-0.1,2.4-0.4l0,0c1.1-0.3,2-0.5,2.5-0.5
	l0,0c0.4,0,0.6,0,0.8,0.1l0,0c1-0.4,2.3-0.7,4-1l0,0C363.2,39.1,364.2,38.8,364.8,38.6L364.8,38.6z M333.2,20.5
	c-0.3,0.1-1,0.4-1.9,0.7s-1.8,0.7-2.5,1.1l0,0c-0.8,0.6-1.6,1.1-2.6,1.6s-1.6,0.8-1.9,1l0,0l-1.6,0.7c-0.4,0.2-1.2,0.6-2.5,1.4l0,0
	c-0.2,0.1-0.5,0.3-0.9,0.6c-0.4,0.3-0.8,0.5-1.1,0.6l0,0c-0.4,0.2-0.8,0.3-1.3,0.3l0,0c-1,0-1.9-0.5-2.6-1.4c-0.7-1-1-2-0.8-3l0,0
	c0.1-0.1,0.2-0.2,0.4-0.2l0,0c0.2,0,0.4,0.1,0.8,0.4c0.4,0.2,0.7,0.4,0.9,0.4l0,0c0.2,0,0.4,0,0.5-0.1l0,0l11.8-6
	c0.4-0.3,0.8-0.5,1.3-0.5l0,0c0.8,0,1.7,0.4,2.6,1.3l0,0c0.1,0.1,0.3,0.3,0.5,0.4c0.3,0.1,0.5,0.3,0.6,0.4
	C333.2,20.2,333.3,20.3,333.2,20.5L333.2,20.5z M330.9,37.7v-5.8c-0.3,0-0.6,0.1-0.9,0.2c-0.3,0.2-0.5,0.3-0.8,0.5
	c-0.2,0.2-0.4,0.3-0.5,0.4l0,0l0.1,0.2c0,0.2-0.1,0.4-0.5,0.6c-0.3,0.1-0.5,0.3-0.6,0.3l0,0c-0.5,0.2-0.8,0.4-0.9,0.8
	c-0.1,0.4-0.2,0.8-0.2,1.4c0,0.5,0,1-0.1,1.4l0,0c0.7-0.4,1.3-0.6,2-0.6l0,0C329,37.1,329.8,37.3,330.9,37.7L330.9,37.7z
	 M320.3,53.3c0,0-0.1-0.1-0.3-0.2c-0.1-0.1-0.3-0.2-0.4-0.2l0,0l-0.2,0.1h-0.1c-0.1,0-0.3,0.1-0.5,0.4c-0.2,0.3-0.4,0.4-0.5,0.2l0,0
	c0-0.3,0.2-0.7,0.4-1.2c0.2-0.5,0.3-0.9,0.4-1.2l0,0c-0.1,0.1-0.3,0.1-0.5,0.1l0,0c-0.4,0-0.8-0.2-1.1-0.6c-0.3-0.4-0.5-0.8-0.5-1.3
	l0,0c0-0.5,0.2-0.9,0.5-1.1l0,0c0.9-0.1,2-0.5,3.4-1.3l0,0c1.1-0.6,1.7-0.9,1.9-0.9l0,0c0.2,0,0.4-0.1,0.5-0.3s0.2-0.5,0.2-0.8
	c0-0.4,0.1-0.6,0.2-0.8l0,0c0.2-0.3,0.4-0.7,0.8-1.3l0,0c0-0.1,0.2-0.3,0.5-0.7s0.4-0.8,0.5-1.2l0,0c-0.6-0.3-1.1-0.7-1.5-1.4
	s-0.5-1.3-0.5-2.1l0,0v-0.2l0.1-0.9c0-0.3-0.1-0.5-0.3-0.5l0,0l-0.2,0.1l-2,1.6c-0.4,0.8-0.7,1.7-0.9,2.5c-0.2,0.8-0.5,2-0.8,3.7
	l0,0c-0.1,0.4-0.2,1.3-0.5,2.5l0,0c-0.2,0.2-0.5,0.2-0.8,0.2l0,0c-0.5,0-0.9-0.2-1.2-0.7c-0.3-0.4-0.6-1.1-1-1.9l0,0
	c-0.3,0.5-0.4,1.2-0.4,2l0,0l-0.2,1.3c0,0.1,0.1,0.3,0.1,0.6l0,0c0,0.5-0.1,1.2-0.4,2.1l0,0c-0.2,1.1-0.3,1.8-0.3,2l0,0
	c0,0.4,0.1,0.7,0.2,1.1l0,0c-0.3,0.6-0.5,1.2-0.5,1.8l0,0c0,0.3,0.1,0.7,0.2,1l0,0c0.2,0.1,0.3,0.1,0.4,0.1l0,0
	c0.2,0,0.6-0.2,1.1-0.5s0.9-0.5,1.1-0.5l0,0c0.1,0,0.3-0.1,0.6-0.3c0.3-0.2,0.5-0.3,0.7-0.3l0,0c0.2,0,0.3,0.1,0.3,0.4l0,0
	c0,0.2,0.1,0.4,0.2,0.4l0,0c0.1,0,0.2-0.1,0.2-0.3c0.1-0.2,0.2-0.4,0.2-0.5l0,0c0-0.3,0.1-0.5,0.4-0.6
	C320.2,53.8,320.4,53.6,320.3,53.3L320.3,53.3z M317,39.4c-0.1,0.2-0.4,0.4-0.8,0.6c-0.4,0.3-0.7,0.5-0.7,0.8l0,0c0,0.2,0,0.4,0,0.7
	s-0.1,0.6-0.1,0.8l0,0c0,0.6,0.2,0.9,0.5,1.1l0,0c0.2-0.3,0.4-0.6,0.5-1s0.2-0.9,0.2-1.3l0,0C316.7,40.3,316.9,39.7,317,39.4
	L317,39.4z M323.6,45.7c0.2-0.1,0.6-0.2,1.1-0.5c0.5-0.2,1-0.4,1.4-0.4l0,0c0.4,0,0.8,0.1,1.1,0.2l0,0h0.1c0.2,0,0.6,0.2,1,0.5
	s0.7,0.5,0.9,0.5l0,0c0.2,0,0.3-0.1,0.4-0.2l0,0c0.3-0.8,0.5-1.8,0.7-3.1l0,0l0.4-1.8c-0.9,0-1.7,0.3-2.5,0.9
	c-0.8,0.6-1.4,1.3-1.8,2.1l0,0c-0.1,0-0.1,0-0.2-0.1l-0.1-0.1l0,0c-0.5,0-0.9,0.2-1.4,0.6C324.2,44.8,323.9,45.2,323.6,45.7
	L323.6,45.7z M320.4,53.3c1-0.5,2-1.1,3-1.7l0,0c1-0.6,1.9-1.2,2.8-1.6l0,0c0.3-0.3,0.7-0.5,1.4-0.7l0,0c0.5-0.2,0.9-0.3,1.2-0.5
	s0.5-0.4,0.6-0.8l0,0c-1.5,0.4-2.9,0.8-4,1.3s-2.2,1-3.1,1.7l0,0c-0.1,0.1-0.4,0.3-0.7,0.5c-0.4,0.2-0.7,0.4-1,0.7
	c-0.3,0.2-0.4,0.5-0.4,0.7l0,0C320.1,52.9,320.2,53.1,320.4,53.3L320.4,53.3z M328.4,53.2c-0.4,0-1.1,0.3-2.2,1.2
	c-1.1,0.8-1.7,1.4-1.8,1.7l0,0c1.2-0.2,2.2-0.5,2.8-0.8C327.8,55,328.2,54.3,328.4,53.2L328.4,53.2z"/>
<path d="M383.4,31.3c-0.4,0.3-0.7,0.9-0.8,1.7l0,0c0,0.4-0.1,0.7-0.2,0.9s-0.2,0.5-0.5,0.7l0,0c-1.7,0-2.8-0.5-3.3-1.5l0,0
	c-0.4-0.4-0.7-0.9-0.7-1.4l0,0c0-0.4,0.1-0.8,0.3-1.2c0.2-0.4,0.5-0.8,0.8-1.3c0.3-0.4,0.5-0.8,0.8-1.1l0,0
	c1.4-2.9,3.2-6.3,5.5-10.3l0,0c0.2-0.3,0.3-0.7,0.3-1l0,0c0-0.6-0.3-1.1-1-1.4l0,0c0-0.4,0.1-0.7,0.4-0.9s0.7-0.3,1.2-0.3l0,0
	c0.9,0,1.7,0.1,2.2,0.2s1.3,0.4,2.1,0.8l0,0c0.6,0.1,1,0.6,1.4,1.6l0,0c0,0.2-0.1,0.4-0.2,0.5s-0.4,0.1-0.7,0.2
	c-0.3,0.1-0.6,0.1-0.7,0.3l0,0c0,0.9-0.4,1.9-1.1,3.2l0,0c-0.4,0.6-0.5,1-0.5,1.2l0,0c0,0.2,0.1,0.3,0.4,0.3l0,0
	c1.3-0.6,2.7-1.6,4.3-2.8l0,0l1.6-1.1c0.1-0.1,0.3-0.2,0.5-0.3c0.3-0.1,0.5-0.1,0.7-0.2s0.3-0.3,0.3-0.5l0,0
	c0.4-0.1,0.8-0.2,1.2-0.2l0,0c0.7,0,1.5,0.1,2.3,0.4l0,0c1,0.2,1.8,0.4,2.2,0.4l0,0c1-1.1,2-2.5,3-4.2l0,0c0.3-0.3,0.5-0.7,0.5-1.1
	l0,0c0-0.3-0.1-0.6-0.3-0.8s-0.5-0.3-0.9-0.3l0,0h-0.1v-1.5c1.4,0,2.9,0.4,4.5,1.1l0,0h0.2c0.5,0,0.9,0.2,1.2,0.5
	c0.3,0.3,0.5,0.7,0.5,1.2l0,0c0,0.5-0.1,0.9-0.4,1.3l0,0c-0.7,1.1-1.5,2-2.3,2.7l0,0c-0.3,0.3-0.5,0.6-0.7,0.8
	c-0.2,0.3-0.1,0.4,0.2,0.4l0,0h0.1c2.1-0.7,4.1-1.7,5.9-2.9l0,0c0.5-0.3,1.1-0.5,1.7-0.5l0,0c0.9,0,1.9,0.3,2.9,1l0,0
	c0.2,0,0.5,0.1,1,0.1s0.9,0.1,1.2,0.2s0.6,0.3,0.8,0.6l0,0c-4.6,1.9-8.9,4-12.8,6.3l0,0l1.8,0.7c1.8,0.6,3,1.1,3.6,1.4l0,0
	c0.2,0.2,0.3,0.4,0.3,0.6l0,0c0,0.2-0.1,0.4-0.2,0.6c-0.2,0.3-0.3,0.5-0.4,0.6l0,0c-0.6,0.1-1.2,0.3-1.9,0.7c-0.7,0.3-1.3,0.6-2,1
	l0,0c-1.2,0.6-2.1,1.1-2.8,1.3l0,0c-0.4,0.4-0.8,0.7-1.3,1c-0.5,0.2-1,0.4-1.5,0.6s-0.8,0.3-1,0.3l0,0c-0.7,0.1-1.3,0.3-2,0.7
	s-1.4,0.8-2.3,1.3l0,0c-0.1,0.1-0.5,0.3-1.2,0.8c-0.7,0.4-1.4,0.8-2,1l0,0c1-1,2.5-2.2,4.5-3.8l0,0c2.2-1.7,3.7-3,4.7-4l0,0
	c0.1-0.2,0.3-0.3,0.5-0.5s0.4-0.4,0.5-0.5l0,0c0.4-0.4,0.8-0.7,1.1-1c0.3-0.3,0.4-0.7,0.4-1l0,0c0-0.2-0.1-0.5-0.2-0.7l0,0
	c-0.7,0.2-1.2,0.3-1.4,0.4l0,0c-1,0.4-1.7,0.6-2.3,0.6l0,0h-0.2c-0.1,0-0.3-0.1-0.5-0.1l0,0c-0.4,0-0.8,0.1-1.1,0.4
	c-0.3,0.2-0.6,0.6-1,1.2l0,0c-0.4,0.7-0.7,1.1-1.1,1.4l0,0V28c0,0.2-0.1,0.4-0.4,0.6s-0.6,0.3-0.8,0.3l0,0c-0.4,0-0.7-0.1-0.8-0.4
	l0,0c-0.1,0-0.2-0.1-0.4-0.1l0,0c-0.2,0-0.3,0.1-0.4,0.2s-0.1,0.4-0.1,0.8s-0.1,0.6-0.2,0.8l0,0c-0.3,0.1-0.5,0.2-0.5,0.5
	c-0.1,0.2-0.1,0.5-0.1,0.7c0,0.3-0.1,0.5-0.1,0.6l0,0l0.2,0.1c0,0-0.1,0.1-0.3,0.2c-0.2,0.1-0.2,0.2-0.1,0.2l0,0
	c0,0.2,0,0.4-0.1,0.7s-0.2,0.5-0.2,0.8l0,0c-0.2,0.6-0.4,1-0.4,1.3l0,0c0,0.2,0.1,0.4,0.2,0.7l0,0c-0.9,0.6-1.5,0.8-2,0.8l0,0
	c-0.3,0-0.5,0-0.6-0.1l0,0c-0.2-0.1-0.4-0.2-0.8-0.4s-0.7-0.3-1-0.4l0,0c-0.1-0.2-0.4-0.5-0.7-1s-0.6-0.8-0.7-1l0,0
	c0.1-0.1,0.2-0.2,0.2-0.4l0,0c0-0.1-0.2-0.2-0.5-0.2l0,0l1.5-7.3l0,0l0,0l0,0c0,0-0.1,0.1-0.2,0.2s-0.2,0.2-0.2,0.1l0,0
	c0-0.2-0.1-0.2-0.1-0.2l0,0c0,0,0,0.2-0.1,0.4c0,0.2-0.2,0.4-0.4,0.4l0,0h-0.4c-0.2,0-0.3,0-0.3,0.1s0,0.2,0,0.4l0,0
	c-0.3,0.4-0.7,0.7-1.2,1s-1,0.6-1.6,0.8l0,0h-0.4c-0.4,0-0.8,0.2-1.1,0.5c-0.3,0.3-0.6,0.6-0.8,1C383.7,31,383.5,31.2,383.4,31.3
	L383.4,31.3z M396.3,22.6c-0.1,0.2-0.3,0.4-0.6,0.6c-0.3,0.1-0.5,0.3-0.8,0.3l0,0c-0.5,0.1-0.8,0.3-1.1,0.4
	c-0.2,0.1-0.4,0.4-0.5,0.8l0,0c0.2,0.1,0.4,0.2,0.8,0.4s0.7,0.5,0.8,0.8l0,0c0,0.3,0.2,0.4,0.4,0.4l0,0c0.1,0,0.3-0.1,0.6-0.3
	s0.4-0.3,0.6-0.2l0,0c0.1-0.1,0.2-0.3,0.4-0.7c0.2-0.3,0.4-0.6,0.6-0.8s0.5-0.3,0.8-0.3l0,0c0-0.3,0.2-0.6,0.4-0.9
	c0.2-0.3,0.5-0.6,0.7-0.9l0,0c0.4-0.4,0.6-0.8,0.8-1.1s0.3-0.7,0.4-1l0,0c-0.4,0.2-0.9,0.5-1.6,0.8l0,0
	C397.9,21.5,397,22,396.3,22.6L396.3,22.6z M414.4,34.9c0.1,0.1,0.5,0.3,1.1,0.6l0,0c1,0.5,1.6,1,1.8,1.6l0,0c0,1-0.2,2.5-0.4,4.4
	l0,0c0,0.4-0.1,1.1-0.2,2.3c-0.1,1.1-0.2,2.2-0.2,3.1l0,0c0,0.4,0,1.1,0.1,2.1l0,0c-0.1,0.6-0.2,1.3-0.2,1.9l0,0
	c0,0.4,0.1,1.5,0.3,3.3l0,0l0.2,1.3c-0.1,0.6-0.2,1.6-0.2,2.9l0,0c0,1.1-0.1,2-0.2,2.8c-0.1,0.7-0.3,1.4-0.6,2.1l0,0
	c0.1,0.3,0.1,0.5,0.1,0.7l0,0c0,0.4-0.1,0.8-0.3,1.2c-0.2,0.4-0.4,0.7-0.4,0.8l0,0c-0.3,0-0.6,0.1-0.8,0.3s-0.4,0.5-0.4,0.8l0,0
	c0.1,0.3,0,0.5-0.1,0.6s-0.5,0.2-0.9,0.2c-0.4,0.1-0.7,0.1-0.8,0.2l0,0c-1.7,1.3-3.4,2-5.3,2.2l0,0c-0.7-0.4-1.7-0.6-3.1-0.7l0,0
	c-0.7,0-1.3-0.1-1.7-0.2c-0.5-0.1-0.9-0.2-1.4-0.5l0,0c-0.1-0.1-0.4-0.2-0.8-0.4c-0.4-0.2-0.7-0.3-0.8-0.5s-0.3-0.4-0.2-0.6l0,0
	c1.3,0.7,2.4,1.1,3.5,1.1l0,0c0.5,0,1-0.1,1.5-0.2l0,0c1.8-0.1,3.3-0.9,4.5-2.3s1.9-3,2.3-4.7l0,0L411,59c0.2-1.8,0.4-3.2,0.4-4.1
	l0,0c0-0.8-0.1-1.5-0.2-2.3l0,0v-0.2c-0.1,0-0.2,0-0.2,0.1s-0.1,0.1-0.2,0.1l0,0l-0.1,0.1c-0.1,0.3-0.4,0.5-0.8,0.7
	c-0.5,0.2-0.7,0.4-0.7,0.6l0,0c-0.3,0.3-0.7,0.6-1.1,1l0,0c-0.7,0.5-1.3,1-1.7,1.4l0,0c-0.6,0.4-1,0.8-1.2,1.3s-0.3,1.2-0.4,2l0,0
	c0,0.1,0,0.4-0.1,0.9s-0.2,0.9-0.4,1.2l0,0v0.1c0,0.2-0.1,0.3-0.2,0.4s-0.3,0.1-0.4,0.1s-0.3,0-0.5,0.1l0,0
	c-0.4,0.1-0.6,0.1-0.6,0.1l0,0c-0.3,0-0.5-0.1-0.7-0.2c-0.2-0.1-0.4-0.4-0.7-0.7c-0.3-0.3-0.5-0.6-0.6-0.7l0,0
	c-0.9,0.2-1.9,0.5-2.9,0.8l0,0l-1.9,0.6c-0.2,0-0.4,0.1-0.6,0.1l0,0c-0.8,0-1.5-0.3-2.1-0.8s-1-1.1-1.4-1.8
	c-0.4-0.6-0.6-1.1-0.8-1.3l0,0c-0.1-0.3-0.1-0.7-0.1-1.3l0,0c0-0.7,0.2-1.8,0.5-3.2l0,0c0.4-1.4,0.5-2.5,0.5-3.5l0,0
	c0-0.3,0-0.8-0.1-1.3l0,0c0-0.1,0.1-0.2,0.1-0.3l0,0c0-0.2-0.2-0.4-0.5-0.6s-0.5-0.4-0.5-0.6l0,0c0.1-0.6,0.5-0.8,1.3-0.8l0,0
	c0.4,0,0.8,0,1.3,0.2s0.8,0.2,0.9,0.2l0,0c0.8-0.2,1.8-0.7,2.9-1.4l0,0c0.8-0.5,1.5-0.9,2.2-1.2c0.6-0.3,1.3-0.4,2-0.5l0,0l0.1,0.1
	c0.1,0,0.3-0.1,0.4-0.2c0.2-0.1,0.3-0.2,0.4-0.2l0,0c0.6,0,1.5,0.3,2.6,1l0,0c0.2,0.5,0.4,1.2,0.4,2l0,0c0,0.7-0.1,1.3-0.2,1.9l0,0
	c0,0.2,0,0.5-0.1,1s-0.1,0.9,0,1.2l0,0c0.2,0.2,0.3,0.5,0.3,0.8l0,0c0,0.2-0.1,0.5-0.2,1c-0.1,0.4-0.2,0.8-0.2,1l0,0
	c0,0.2,0,0.4,0.1,0.5l0,0c0.3-0.2,0.7-0.4,1.1-0.7c0.5-0.3,0.8-0.5,1.1-0.6l0,0c0.2-0.1,0.7-0.2,1.3-0.2l0,0c0.4,0,0.5,0.1,0.5,0.3
	l0,0c0,0.1,0,0.1,0.1,0.1s0.1,0,0.1,0l0,0l0.2,0.1c0,0,0-0.1,0-0.2s0-0.2,0.1-0.2l0,0c0-0.1-0.1-0.1-0.1,0c-0.1,0.1-0.2,0.1-0.3,0
	l0,0c0-0.2,0.1-0.4,0.2-0.5c0.2-0.1,0.4-0.2,0.8-0.3l0,0c0.6-0.1,1-0.3,1.1-0.7l0,0c0-1.8,0.1-3.8,0.3-6.1l0,0c0-0.5,0.1-1.5,0.2-3
	s0.1-2.9,0.1-4.3l0,0c-1.1,0.5-2,0.8-2.5,1l0,0c-1.6,0.6-2.9,1.1-4,1.6s-2.1,1.1-3.1,1.8l0,0c-1.6,0.6-2.9,0.8-3.9,0.8l0,0
	c-0.3,0-0.6,0-0.8-0.1l0,0c-1.1-0.8-1.7-1.5-1.7-2.1l0,0c0-0.3,0.1-0.6,0.3-0.8l0,0c0.2-0.1,0.6-0.2,1.2-0.4s1.1-0.4,1.5-0.6
	c0.4-0.2,0.8-0.5,1-0.8l0,0c4-1.8,7.3-3.2,10-4l0,0c0.4-0.2,0.8-0.4,1.2-0.4l0,0c0.4,0,1.1,0.2,2,0.5l0,0
	C413.6,34.7,414.1,34.8,414.4,34.9L414.4,34.9z M394.4,41.3c-0.6,0.7-1.2,1.1-1.9,1.2l0,0c-0.4,0-0.8,0.2-1.2,0.5
	c-0.4,0.3-0.8,0.5-1.2,0.8l0,0c-0.6,0.4-1.1,0.8-1.5,1s-0.8,0.3-1.2,0.3l0,0L387,45c0-0.1,0.3-0.5,0.8-1.2l0,0c1.2-1.7,2-3,2.3-3.9
	l0,0c-0.7-0.6-1.1-1-1.1-1.3l0,0c0-0.2,0.1-0.4,0.4-0.5l0,0l0.5-0.1c0.7,0,1.5,0.2,2.4,0.5c0.9,0.4,1.4,0.6,1.5,0.6l0,0
	c0.3,0.1,0.6,0.3,0.8,0.6c0.2,0.3,0.3,0.5,0.3,0.8l0,0C395,40.8,394.8,41.1,394.4,41.3L394.4,41.3z M383.1,41.3
	c1.2,0.3,2.1,0.7,2.9,1s1,0.9,0.8,1.7l0,0c0,0.4,0.1,1,0.1,1.7l0,0c0,1.7-0.2,4.3-0.6,7.8l0,0c0,0.4-0.1,1.3-0.3,2.9
	c-0.2,1.6-0.2,3-0.2,4.4l0,0c-0.1,0.2-0.1,0.6-0.1,1l0,0l0.1,1.5c0,0.5-0.1,0.9-0.2,1.3l0,0c-0.5,0.4-1,0.6-1.6,0.6l0,0
	c-1,0-1.9-0.4-2.8-1.2c-0.8-0.8-1.2-1.7-1-2.6l0,0l0.4-2.9c0-0.3,0.1-0.6,0.1-1s0.1-0.8,0.1-1l0,0c0-0.9,0.1-1.7,0.2-2.3
	s0.3-1.2,0.6-1.8l0,0c0-0.3-0.1-0.7-0.1-1.2l0,0c0-0.6,0-1.3,0.1-2s0.1-1.2,0.2-1.6l0,0c0.2-1.1,0.3-2,0.3-2.5l0,0
	c0.2-0.4,0.1-0.7,0-1s-0.5-0.5-1-0.8l0,0c-0.8-0.4-1.2-0.8-1.3-1.3l0,0c0.2-0.6,0.8-0.8,1.7-0.8l0,0c0.4,0,0.7,0,1,0.1
	C382.6,41.3,382.8,41.3,383.1,41.3L383.1,41.3z M401.4,50.2l0.2-2.9c0.2-0.4,0.1-0.5-0.1-0.5l0,0c-0.1,0-0.3,0.1-0.7,0.3
	c-0.4,0.2-0.7,0.3-0.8,0.4l0,0c-0.4,0.2-1.1,0.5-2.1,0.8l0,0c-0.8,0.3-1.5,0.5-2,0.8s-0.9,0.6-1.2,1.1l0,0c0.3,0,0.4,0.2,0.5,0.3
	c0.1,0.2,0.1,0.4,0,0.7c0,0.3,0,0.5,0,0.6l0,0c0.6-0.1,1.4-0.4,2.4-0.8l0,0c0.5-0.2,1-0.4,1.5-0.6c0.5-0.2,1-0.3,1.4-0.3l0,0
	C400.8,50.1,401.1,50.1,401.4,50.2L401.4,50.2z M409.7,53.1c0.1,0,0.1-0.1,0.1-0.3l0,0c-0.1,0-0.2,0-0.3-0.1c-0.1,0-0.1,0,0,0.1l0,0
	C409.6,53,409.6,53.1,409.7,53.1L409.7,53.1z M394.7,55l-0.1,0.4c0,0.3,0,0.5,0.1,0.8s0.2,0.3,0.4,0.3l0,0c0.2-0.2,0.6-0.5,1-0.8
	s0.8-0.6,1-1s0.4-0.7,0.5-1.1l0,0l-0.2-0.1c-0.2,0.1-0.7,0.3-1.4,0.6C395.4,54.3,394.9,54.6,394.7,55L394.7,55z M408.1,53.7
	c0.1,0,0.2-0.1,0.3-0.2l0,0l-0.2-0.1c-0.4,0-0.5,0.1-0.3,0.3l0,0C408,53.7,408,53.7,408.1,53.7L408.1,53.7z M394.5,59.2l4.2-2
	c0.9-0.3,1.6-0.7,2.1-1.3s0.7-1.2,0.5-2l0,0c-0.3,0.2-0.9,0.3-1.7,0.5l0,0c-0.8,0.2-1.4,0.3-1.9,0.5s-0.8,0.5-1,0.9l0,0
	c0,0.2-0.2,0.4-0.5,0.5s-0.5,0.2-0.6,0.2l0,0c-0.1,0.2-0.4,0.5-0.9,0.9s-0.7,0.8-0.7,1.1l0,0C394.2,58.7,394.3,59,394.5,59.2
	L394.5,59.2z"/>
</svg>
