<svg viewBox="0 0 615 80" xmlns="http://www.w3.org/2000/svg"><path d="M32.26 39.84h-3.18v10.44q0 2.4.51 3.51.51 1.11 1.8 1.47 1.29.36 4.11.42V57q-7.38-.18-10.98-.18-3 0-7.56.12l-1.92.06v-1.2q1.98-.12 2.91-.48.93-.36 1.26-1.38.33-1.02.33-3.3V20.88q0-2.28-.33-3.3t-1.26-1.38q-.93-.36-2.91-.48v-1.2q3.06.18 9.12.18l6.66-.06q1.2-.06 2.76-.06 8.1 0 12.36 3.21t4.26 8.61q0 3.3-1.68 6.33-1.68 3.03-5.67 5.07-3.99 2.04-10.59 2.04zm.54-24.12q-1.62 0-2.37.42t-1.05 1.5q-.3 1.08-.3 3.24v17.76h2.58q4.86 0 6.72-3.12 1.86-3.12 1.86-8.46 0-5.82-1.71-8.58t-5.73-2.76zm32.34-5.7v41.4q0 2.46.84 3.39.84.93 3 .93V57q-6.24-.24-8.04-.24-2.04 0-8.28.24v-1.26q2.1 0 2.97-.93.87-.93.87-3.39v-34.2q0-2.76-.87-4.02-.87-1.26-2.97-1.26v-1.26q1.92.18 3.72.18 5.22 0 8.76-.84zm14.34 47.4q-3.84 0-5.73-1.98-1.89-1.98-1.89-5.22 0-2.7 1.41-4.47 1.41-1.77 3.42-2.73t5.13-2.04q3.3-1.14 4.83-2.07 1.53-.93 1.53-2.55v-4.68q0-2.52-1.17-3.93-1.17-1.41-3.63-1.41-2.88 0-4.38 1.44 1.68.6 2.61 1.8.93 1.2.93 2.82 0 2.04-1.38 3.24-1.38 1.2-3.36 1.2-2.1 0-3.24-1.32-1.14-1.32-1.14-3.3 0-1.68.81-2.85.81-1.17 2.49-2.19 1.62-.96 3.99-1.5t5.19-.54q2.94 0 5.1.6 2.16.6 3.6 2.04 1.32 1.32 1.77 3.24.45 1.92.45 5.22v16.32q0 1.44.27 2.04.27.6 1.05.6.9 0 2.16-1.02l.6 1.02q-2.7 2.22-6.6 2.22-3.3 0-4.62-1.32-1.32-1.32-1.38-3.54-3 4.86-8.82 4.86zm4.62-3.84q2.34 0 4.08-2.46v-12.3q-.72 1.2-3.06 2.64-2.34 1.5-3.54 3-1.2 1.5-1.2 4.32 0 2.46 1.02 3.63t2.7 1.17zm43.26-27.42q3 0 4.62-.18v1.2q-1.26.36-2.25 1.53t-1.89 3.63L117.1 62.52q-1.2 3.12-2.64 4.26-1.74 1.5-5.22 1.5-2.52 0-4.53-1.23-2.01-1.23-2.01-3.57 0-1.86 1.32-2.97t3.48-1.11q2.04 0 3.27.99t1.23 2.79q0 1.26-.78 2.31T109 67.08q.42.06 1.38.06 3.72 0 5.46-4.74l.96-2.88-12.72-28.92q-.96-2.04-1.86-2.7-.9-.66-1.86-.66v-1.26q3.96.36 8.22.36 3.54 0 8.34-.36v1.26q-1.92 0-2.85.27-.93.27-.93 1.41 0 .66.42 1.68l7.32 17.7 4.14-11.52q.96-2.82.96-4.8 0-4.38-4.44-4.8v-1.2q2.82.18 5.82.18zm22.26-16.08q3.72 0 6.42 1.98.9.72 1.47 1.89t.57 2.61q0 1.68-1.2 2.91-1.2 1.23-3.06 1.23-2.04 0-3.3-1.14-1.26-1.14-1.26-3.12 0-1.56.9-2.76.9-1.2 2.64-1.68-.18-.36-.75-.6-.57-.24-1.41-.24-2.28 0-3.24 1.56-.66.9-.9 2.64-.24 1.74-.24 5.22v5.46h6.42v1.2h-6.42v23.58q0 2.76 1.41 3.84t4.23 1.08V57l-1.68-.06q-6.66-.18-8.64-.18-1.8 0-7.8.24v-1.26q2.16 0 3-.93.84-.93.84-3.39V27.24h-4.08v-1.2h4.08q0-5.22.84-8.07.84-2.85 2.94-4.89 1.32-1.32 3.54-2.16 2.22-.84 4.68-.84zm13.2 47.34q-3.84 0-5.73-1.98-1.89-1.98-1.89-5.22 0-2.7 1.41-4.47 1.41-1.77 3.42-2.73t5.13-2.04q3.3-1.14 4.83-2.07 1.53-.93 1.53-2.55v-4.68q0-2.52-1.17-3.93-1.17-1.41-3.63-1.41-2.88 0-4.38 1.44 1.68.6 2.61 1.8.93 1.2.93 2.82 0 2.04-1.38 3.24-1.38 1.2-3.36 1.2-2.1 0-3.24-1.32-1.14-1.32-1.14-3.3 0-1.68.81-2.85.81-1.17 2.49-2.19 1.62-.96 3.99-1.5t5.19-.54q2.94 0 5.1.6 2.16.6 3.6 2.04 1.32 1.32 1.77 3.24.45 1.92.45 5.22v16.32q0 1.44.27 2.04.27.6 1.05.6.9 0 2.16-1.02l.6 1.02q-2.7 2.22-6.6 2.22-3.3 0-4.62-1.32-1.32-1.32-1.38-3.54-3 4.86-8.82 4.86zm4.62-3.84q2.34 0 4.08-2.46v-12.3q-.72 1.2-3.06 2.64-2.34 1.5-3.54 3-1.2 1.5-1.2 4.32 0 2.46 1.02 3.63t2.7 1.17zm26.34-43.08q2.52 0 3.99 1.23 1.47 1.23 1.47 3.39t-1.47 3.39q-1.47 1.23-3.99 1.23-2.52 0-3.99-1.23-1.47-1.23-1.47-3.39t1.47-3.39q1.47-1.23 3.99-1.23zm4.68 14.82v26.1q0 2.46.87 3.39.87.93 2.97.93V57q-6-.24-7.98-.24-1.86 0-8.34.24v-1.26q2.16 0 3-.93.84-.93.84-3.39v-18.9q0-2.76-.84-4.02-.84-1.26-3-1.26v-1.26q1.92.18 3.72.18 5.34 0 8.76-.84zm27.06-.18q2.7 0 4.08 1.62t1.38 3.9q0 2.22-1.29 3.63-1.29 1.41-3.39 1.41-2.04 0-3.24-1.05-1.2-1.05-1.2-2.79 0-2.88 2.64-4.68-.24-.06-.72-.06-.6 0-.96.12-2.28.36-3.87 2.76-1.59 2.4-1.59 4.92v15.9q0 2.76 1.35 3.84t4.29 1.08V57q-.84 0-1.38-.06-6.12-.18-8.16-.18-1.62 0-7.38.18-.48.06-1.2.06v-1.26q2.16 0 3-.93.84-.93.84-3.39v-18.9q0-2.76-.84-4.02-.84-1.26-3-1.26v-1.26q1.92.18 3.72.18 5.34 0 8.76-.84v5.58q1.14-2.58 3.3-4.17 2.16-1.59 4.86-1.59zm40.5-10.62q11.7 0 17.52 5.31t5.82 15.45q0 6.54-2.85 11.43t-8.22 7.59q-5.37 2.7-12.81 2.7l-3.72-.06q-3.48-.12-5.04-.12-6.18 0-9.24.18v-1.2q1.98-.12 2.91-.48.93-.36 1.26-1.38.33-1.02.33-3.3V20.88q0-2.28-.33-3.3t-1.26-1.38q-.93-.36-2.91-.48v-1.2q2.52.18 7.26.18h1.86l2.4-.06q4.92-.12 7.02-.12zm-.06 1.08q-1.86 0-2.79.42-.93.42-1.29 1.5t-.36 3.24v30q0 2.16.36 3.24t1.29 1.5q.93.42 2.85.42 7.26 0 10.32-5.07 3.06-5.07 3.06-15.33t-3.15-15.09q-3.15-4.83-10.29-4.83zm35.28-5.1q2.52 0 3.99 1.23 1.47 1.23 1.47 3.39t-1.47 3.39q-1.47 1.23-3.99 1.23-2.52 0-3.99-1.23-1.47-1.23-1.47-3.39t1.47-3.39q1.47-1.23 3.99-1.23zm4.68 14.82v26.1q0 2.46.87 3.39.87.93 2.97.93V57q-6-.24-7.98-.24-1.86 0-8.34.24v-1.26q2.16 0 3-.93.84-.93.84-3.39v-18.9q0-2.76-.84-4.02-.84-1.26-3-1.26v-1.26q1.92.18 3.72.18 5.34 0 8.76-.84zm18.3-.18q2.28 0 4.2.57 1.92.57 2.94 1.29.6.42 1.08.42.54 0 .93-.57t.51-1.65h1.26q-.24 3.06-.24 10.56h-1.26q-.54-3.96-2.37-6.63t-5.31-2.67q-1.8 0-2.97 1.02-1.17 1.02-1.17 2.82 0 2.04 1.38 3.51 1.38 1.47 4.32 3.57l1.74 1.26q3.66 2.76 5.4 4.92 1.74 2.16 1.74 5.4 0 2.64-1.53 4.68-1.53 2.04-4.11 3.12t-5.7 1.08q-3.3 0-5.64-1.26-1.92-.96-2.76-1.26-.6-.18-1.05.39-.45.57-.69 1.71h-1.26q.24-3.42.24-12h1.26q1.2 11.04 8.1 11.04 1.74 0 2.97-1.05 1.23-1.05 1.23-3.21 0-1.68-.75-3t-1.89-2.34q-1.14-1.02-3.42-2.82-2.7-2.16-4.11-3.48-1.41-1.32-2.4-3.12t-.99-4.02q0-3.84 3-6.06 3-2.22 7.32-2.22zm37.38 0q3.12 0 5.55 1.68 2.43 1.68 3.81 5.04 1.38 3.36 1.38 8.22 0 8.58-3.75 13.17t-10.17 4.59q-1.8 0-3.39-.48t-2.73-1.44v6q0 2.64 1.32 3.66t4.08 1.02v1.26l-1.62-.06q-6.66-.18-8.46-.18-1.8 0-7.56.24V66.6q1.98 0 2.79-.87t.81-3.21v-30q0-2.76-.87-4.02-.87-1.26-2.97-1.26v-1.26q1.92.18 3.72.18 5.22 0 8.76-.84v5.52q1.26-2.76 3.66-4.23 2.4-1.47 5.64-1.47zm-5.52 31.08q3.84 0 5.52-3.81 1.68-3.81 1.68-11.13t-1.35-10.44q-1.35-3.12-3.87-3.12-2.04 0-3.63 1.38-1.59 1.38-2.13 3.84V54.6q1.44 1.62 3.78 1.62zm32.22-46.2v41.4q0 2.46.84 3.39.84.93 3 .93V57q-6.24-.24-8.04-.24-2.04 0-8.28.24v-1.26q2.1 0 2.97-.93.87-.93.87-3.39v-34.2q0-2.76-.87-4.02-.87-1.26-2.97-1.26v-1.26q1.92.18 3.72.18 5.22 0 8.76-.84zm14.34 47.4q-3.84 0-5.73-1.98-1.89-1.98-1.89-5.22 0-2.7 1.41-4.47 1.41-1.77 3.42-2.73t5.13-2.04q3.3-1.14 4.83-2.07 1.53-.93 1.53-2.55v-4.68q0-2.52-1.17-3.93-1.17-1.41-3.63-1.41-2.88 0-4.38 1.44 1.68.6 2.61 1.8.93 1.2.93 2.82 0 2.04-1.38 3.24-1.38 1.2-3.36 1.2-2.1 0-3.24-1.32-1.14-1.32-1.14-3.3 0-1.68.81-2.85.81-1.17 2.49-2.19 1.62-.96 3.99-1.5t5.19-.54q2.94 0 5.1.6 2.16.6 3.6 2.04 1.32 1.32 1.77 3.24.45 1.92.45 5.22v16.32q0 1.44.27 2.04.27.6 1.05.6.9 0 2.16-1.02l.6 1.02q-2.7 2.22-6.6 2.22-3.3 0-4.62-1.32-1.32-1.32-1.38-3.54-3 4.86-8.82 4.86zm4.62-3.84q2.34 0 4.08-2.46v-12.3q-.72 1.2-3.06 2.64-2.34 1.5-3.54 3-1.2 1.5-1.2 4.32 0 2.46 1.02 3.63t2.7 1.17zm43.26-27.42q3 0 4.62-.18v1.2q-1.26.36-2.25 1.53T451 32.34l-10.74 30.18q-1.2 3.12-2.64 4.26-1.74 1.5-5.22 1.5-2.52 0-4.53-1.23-2.01-1.23-2.01-3.57 0-1.86 1.32-2.97t3.48-1.11q2.04 0 3.27.99t1.23 2.79q0 1.26-.78 2.31t-2.22 1.59q.42.06 1.38.06 3.72 0 5.46-4.74l.96-2.88-12.72-28.92q-.96-2.04-1.86-2.7-.9-.66-1.86-.66v-1.26q3.96.36 8.22.36 3.54 0 8.34-.36v1.26q-1.92 0-2.85.27-.93.27-.93 1.41 0 .66.42 1.68l7.32 17.7 4.14-11.52q.96-2.82.96-4.8 0-4.38-4.44-4.8v-1.2q2.82.18 5.82.18zm42.36 8.52q7.8.6 11.46 3.6 3.66 3 3.66 7.08 0 5.58-4.38 8.61Q499.24 57 491.44 57q-1.74 0-2.94-.06-3.96-.12-7.74-.12-6.18 0-9.24.18v-1.2q1.98-.12 2.91-.48.93-.36 1.26-1.38.33-1.02.33-3.3V20.88q0-2.28-.33-3.3t-1.26-1.38q-.93-.36-2.91-.48v-1.2q3.06.18 9.12.18l6.66-.06q1.2-.06 2.76-.06 7.2 0 11.01 2.58 3.81 2.58 3.81 6.84 0 3.48-3.03 6.48-3.03 3-8.97 4.08v.12zm-3.6-18.96q-1.62 0-2.37.42t-1.05 1.5q-.3 1.08-.3 3.24v13.56h2.58q3.9 0 5.46-2.67t1.56-7.11q0-4.5-1.41-6.72-1.41-2.22-4.47-2.22zm.42 39.9q8.34 0 8.34-10.5 0-4.74-2.4-7.2t-7.56-2.46h-2.52v15.18q0 2.16.3 3.18t1.17 1.41q.87.39 2.67.39zm37.02-30.48q6.9 0 10.8 3.93 3.9 3.93 3.9 12.45t-3.9 12.42q-3.9 3.9-10.8 3.9-6.84 0-10.77-3.9-3.93-3.9-3.93-12.42t3.93-12.45q3.93-3.93 10.77-3.93zm0 1.2q-2.58 0-4.11 3.75-1.53 3.75-1.53 11.43t1.53 11.4q1.53 3.72 4.11 3.72 2.64 0 4.14-3.69 1.5-3.69 1.5-11.43t-1.53-11.46q-1.53-3.72-4.11-3.72zm30.66-16.32v41.4q0 2.46.84 3.39.84.93 3 .93V57q-6.24-.24-8.04-.24-2.04 0-8.28.24v-1.26q2.1 0 2.97-.93.87-.93.87-3.39v-34.2q0-2.76-.87-4.02-.87-1.26-2.97-1.26v-1.26q1.92.18 3.72.18 5.22 0 8.76-.84zm35.94 40.38q0 2.76.84 4.02.84 1.26 3 1.26v1.26q-1.86-.18-3.72-.18-5.34 0-8.76.84v-5.16q-2.04 5.4-7.8 5.4-5.64 0-8.97-4.11-3.33-4.11-3.27-12.39 0-5.28 1.71-8.91t4.74-5.46q3.03-1.83 6.93-1.83 4.38 0 6.66 2.28v-10.2q0-2.76-.87-4.02-.87-1.26-2.97-1.26v-1.26q1.92.18 3.72.18 5.22 0 8.76-.84V50.4zm-13.98 4.86q1.98 0 3.51-1.44 1.53-1.44 1.83-3.9v-21q-1.5-2.04-4.38-2.04-3.18 0-4.92 3.66-1.74 3.66-1.68 10.92-.06 7.32 1.41 10.56t4.23 3.24z"/></svg>