<?xml version="1.0" encoding="utf-8"?>
<!-- Generator: Adobe Illustrator 24.0.0, SVG Export Plug-In . SVG Version: 6.00 Build 0)  -->
<svg version="1.1" id="图层_1" xmlns="http://www.w3.org/2000/svg" xmlns:xlink="http://www.w3.org/1999/xlink" x="0px" y="0px"
	 viewBox="0 0 561.8 80" style="enable-background:new 0 0 561.8 80;" xml:space="preserve">
<path d="M46.1,12.5L46.1,12.5c0,0.1-0.1,0.3-0.1,0.4c0,0.2,0,0.3,0,0.4l0,0c0.1,0.2,0.2,0.3,0.2,0.5l0,0l0.1,0.2c0,0.2,0,0.8,0,1.6
	c0.1,0.8,0.1,1.4,0.2,1.7l0,0c0.2,1.6,0.2,2.7,0.2,3.3l0,0c-1.1,0.2-2.5,0.3-4.3,0.3l0,0c-1.5,0-2.7-0.1-3.5-0.4l0,0
	c-0.2,0-0.2-0.1-0.2-0.2l0,0c0-0.2,0.2-0.4,0.5-0.5l0,0c0.2,0,0.4-0.3,0.8-0.8c0.4-0.6,0.6-0.9,0.7-1l0,0c0.1-0.5,0.3-0.9,0.4-1l0,0
	c0.1-0.4,0-0.8-0.2-1.1c-0.3-0.3-0.7-0.6-1.3-0.9c-0.6-0.3-0.9-0.6-1.1-0.7l0,0L36.9,14l-0.1,0.1L36.7,14c0,0-0.2,0-0.4,0.3l0,0
	c-0.1,0.1-0.1,0.2-0.1,0.4l0,0c0,0.1,0,0.2,0.1,0.2s0.1,0.1,0.1,0.2l0,0c0,0.2-0.1,0.5-0.4,0.9l0,0c-1,1.5-1.8,2.7-2.2,3.5l0,0
	c-0.2,0.4-0.3,0.8-0.4,1.2c-0.1,0.5-0.2,0.8-0.2,0.9l0,0c0,0.2-0.1,0.5-0.2,0.9c-0.1,0.4-0.2,0.8-0.4,1.1l0,0
	c-0.1,0.2-0.3,0.5-0.5,0.8s-0.3,0.5-0.4,0.6l0,0c-0.3,0.8-0.5,1.3-0.7,1.6l0,0l-0.1,0.3c0,0.1,0.1,0.2,0.2,0.2
	c0.1,0.1,0.2,0.2,0.3,0.2l0,0l0.1-0.1c0.2-0.1,0.4-0.1,0.6-0.1l0,0c0.1,0,0.4,0.3,0.8,0.8c0.5,0.5,0.8,0.9,1,1.2l0,0
	c0,0.1,0,0.1,0.1,0.2c0.1,0,0.1,0.1,0.2,0.1l0,0c0,0,0.2-0.1,0.4-0.4l0,0c0.1-0.4,0.5-0.9,1-1.7l0,0c0.6-0.9,1-1.5,1.2-1.9l0,0
	c0.1-0.3,0.3-0.8,0.4-1.7c0.1-0.9,0.4-1.3,0.5-1.3l0,0c0.1,0,0.5-0.1,1-0.1l0,0l2.2,0.1c1.3,0.1,2.3,0.1,3,0.1l0,0
	c0.9,0,1.7-0.1,2.3-0.2l0,0l0.1,0.1c-0.3,0.9-0.4,1.8-0.4,2.8l0,0c0,0.5,0,1.2,0.1,2.2l0,0c0.1,1,0.1,1.7,0.1,2.2l0,0v1.2
	c0,0.7,0,1.3,0.1,1.7l0,0c-0.7,0-1.7,0.1-3,0.5l0,0c-0.4,0.1-0.9,0.3-1.6,0.4l0,0c-0.6,0.1-1.3,0.2-2,0.2l0,0
	c-0.2,0-1.1-0.1-2.9-0.2l0,0c-0.3,0-0.9-0.1-1.7-0.2c-0.8-0.1-1.5-0.1-2.1-0.1l0,0c-0.6,0-1,0-1.3,0.1l0,0c-0.2,0-0.5,0-0.8,0.1
	s-0.5,0.1-0.5,0.2l0,0c0,0.6,0,1,0.1,1.3l0,0c0.1,0.1,0.3,0.1,0.5,0.1l0,0c0.4,0,1.1-0.1,2.1-0.2l0,0c0.2,0,0.6-0.1,1-0.1l0,0
	c0.6,0,1.3,0.1,2.3,0.2l0,0l1.4,0.2h0.1c0.2,0,0.4,0,0.7-0.1c0.3-0.1,0.5-0.1,0.6-0.1l0,0c0.3,0,0.7,0,1.4,0c0.6,0,1.2-0.1,1.7-0.2
	c0.5-0.1,1.1-0.3,1.9-0.6l0,0c0.4-0.2,1.1-0.2,2.1-0.2s1.5,0,1.6,0l0,0l0.1-0.1c0.5,0,1.2,0.1,2.2,0.4l0,0c1,0.2,1.8,0.4,2.3,0.4
	l0,0c0.4,0,0.8-0.1,1.3-0.4l0,0c0.1,0,0.3-0.1,0.5-0.2c0.3-0.1,0.5-0.2,0.9-0.2l0,0c0.6,0,1.4,0.2,2.6,0.5l0,0
	c0.5,0.2,1.1,0.3,1.7,0.4l0,0c0.9,0.1,1.8,0.2,2.8,0.2l0,0h1.4c0.6,0,1,0,1.3,0.1l0,0l0.1-0.1l0.2-0.1c0.1,0,0.3,0.1,0.4,0.1l0,0
	c0.3,0,0.5-0.1,0.5-0.4l0,0c0-0.3,0-0.5-0.1-0.7l0,0c-0.3-0.1-0.8-0.1-1.6-0.1l0,0L62.2,33c-1.4,0-2.3-0.2-2.8-0.5l0,0l0.1-0.1h0.2
	c0,0-0.1-0.1-0.3-0.1l0,0c-0.4,0-0.7-0.1-1-0.2l0,0c-0.3-0.2-1.8-0.3-4.3-0.3l0,0l0.1,0.1l0.3,0.1c0,0,0.1,0,0.1,0.1l0,0
	c0,0-0.2,0.1-0.5,0.2c-0.3,0.1-0.5,0.2-0.5,0.2l0,0c-0.5,0.2-1,0.3-1.4,0.3l0,0c-0.2,0-0.7-0.1-1.4-0.2l0,0c0-0.1,0-0.4-0.2-0.9
	c-0.1-0.5-0.1-0.7,0.1-0.7l0,0v-0.1l-0.2-0.1l-0.1,0.1v-0.1c0,0-0.1-0.2-0.1-0.4l0,0c0-0.2,0.1-0.6,0.2-1.4l0,0l0.1-0.5
	c0-0.2-0.1-0.8-0.2-1.7l0,0c-0.1-0.8,0.1-1.9,0.7-3.1l0,0l0.4-1.2c0-0.1,0.1-0.3,0.1-0.8l0,0l-0.1-1.9c0.1,0,0.3-0.1,0.5-0.1l0,0
	c0.4,0,0.9,0.2,1.4,0.5l0,0c0.5,0.3,0.9,0.5,1.4,0.7s1,0.2,1.7,0.2l0,0c0.5,0,1-0.1,1.6-0.2l0,0c0.2,0,0.6,0.1,1.3,0.1l0,0
	c1.3,0,2.2-0.1,2.6-0.2l0,0c0-0.1,0-0.3,0-0.5c0-0.3,0-0.4,0-0.5l0,0c-0.5-0.2-1.2-0.2-2.2-0.2l0,0c-0.7,0-1.3,0-1.8,0.1
	c-0.5,0-1,0.1-1.3,0.1l0,0c-0.9,0-1.8-0.3-2.7-0.8s-1.4-0.8-1.5-0.8l0,0l-1.3,0.2c0-0.2-0.1-0.5-0.1-1l0,0v-2c0-1.3-0.1-2-0.4-2.3
	l0,0c0.1-0.1-0.1-0.1-0.3-0.1l0,0c-0.6-0.2-1.2-0.4-1.7-0.4l0,0c-0.2,0-0.5,0-1,0.1l0,0h-0.2c-0.2,0-0.4,0-0.5-0.2
	c-0.1-0.1-0.2-0.2-0.3-0.2C46.5,12.3,46.3,12.4,46.1,12.5z M19.9,13.4L19.9,13.4L19.5,13c-0.3-0.1-0.5-0.1-0.7-0.1l0,0
	c-0.4,0-0.8,0.1-1.2,0.4c-0.4,0.3-0.8,0.5-1,0.5l0,0L16.5,14l0,0c-0.1,0-0.3,0.1-0.5,0.3l0,0c-0.2,0-0.3,0.1-0.4,0.2
	c-0.1,0.1-0.2,0.2-0.4,0.3l0,0v0.1c-0.1,0.2-0.2,0.4-0.2,0.4l0,0l0.1,0.1c0,0.1,0.1,0.2,0.1,0.3l0,0c0.1,0.1,0.2,0.2,0.5,0.3
	c0.2,0.1,0.4,0.3,0.4,0.5l0,0c0.9,0.9,1.3,1.4,1.4,1.5l0,0c0.2,0.4,0.4,0.9,0.7,1.3c0.3,0.4,0.6,0.6,1,0.7l0,0
	c0.6,0.1,1,0.2,1.3,0.5c0.3,0.2,0.7,0.6,1.1,1.1l0,0c0.2,0.4,0.5,0.4,0.7,0.2l0,0c0-0.1,0.1-0.1,0.2-0.2c0.1-0.1,0.2-0.1,0.3-0.1
	l0,0c0.2-0.3,0.4-0.5,0.6-0.7c0.2-0.1,0.5-0.2,0.8-0.3l0,0c0,0,0.2-0.1,0.5-0.2s0.5-0.4,0.8-0.7l0,0c-0.1-0.2-0.2-0.4-0.1-0.5l0,0
	c-0.5-0.6-0.9-1.1-1.3-1.5c-0.4-0.3-0.8-0.6-1.4-0.8l0,0c-0.1,0-0.3-0.2-0.6-0.4c-0.3-0.2-0.4-0.4-0.3-0.5l0,0
	c-0.2-0.3-0.4-0.7-0.7-1.1c-0.3-0.5-0.4-0.6-0.4-0.3l0,0c-0.2-0.1-0.3-0.3-0.4-0.5C20.1,13.6,20,13.4,19.9,13.4z M26.2,29.1L21.5,29
	l-0.2-0.1c-0.2,0-0.6-0.2-1.1-0.5l0,0c-0.3-0.2-0.5-0.4-0.8-0.5s-0.6-0.2-1.2-0.1l0,0c-0.2,0-0.5,0.1-1,0.2s-0.9,0.3-1.2,0.3l0,0
	c-0.3,0.1-0.8,0.2-1.3,0.4c-0.5,0.2-0.8,0.2-0.9,0.2l0,0v-0.1l0,0l0,0c0,0.2-0.2,0.3-0.4,0.2l0,0h-0.1c0,0-0.1,0-0.2,0l0,0L13,29.4
	c0,0.3,0.1,0.7,0.2,1.1l0,0c1,0,1.6-0.1,1.9-0.4l0,0c0.1,0,0.5-0.1,1.2-0.4c0.7-0.3,1.3-0.4,1.8-0.4l0,0c0.4,0,0.8,0.1,1.4,0.4l0,0
	c0.7,0.3,1.3,0.4,1.6,0.4l0,0l0.1,1.4c0.1,0.1,0.1,0.3,0.1,0.7s-0.1,0.6-0.1,0.7l0,0c0,0.5-0.1,1.3-0.2,2.5l0,0
	c-0.1,0.4-0.1,1-0.1,1.7l0,0l0.1,1.7c0.1,0.8,0.1,1.4,0.1,1.8l0,0c0,1.3-0.2,2.6-0.6,4l0,0c-0.1,0.4-0.2,1-0.1,2c0,1,0,1.5,0,1.6
	l0,0c0,0.1,0.1,0.7,0.2,1.9l0,0v0.3l0.1,0.5c0,0.6,0,1.4,0.1,2.4l0,0c0.2,0.2,0.2,0.4,0.2,0.8l0,0c0,0.3-0.1,0.8-0.2,1.6l0,0
	c-0.2,0.7-0.2,1.2-0.2,1.4l0,0l0.1,3.2c0,0.1-0.1,0.5-0.2,1l0,0l-0.4,0.3C20,61.8,20,62,20.2,62.1l0,0L19.9,62l-0.2-0.1
	c-0.4,0-0.8,0.1-1.3,0.5c-0.4,0.3-1,0.9-1.7,1.6l0,0c-0.5,0.5-0.9,0.9-1.1,1l0,0c-0.1,0-0.1,0-0.2,0.1c-0.1,0,0,0.1,0.1,0.1l0,0
	c0.1,0,0,0.1-0.2,0.1S15,65.4,15,65.4l0,0l-0.2,0.2l0.1,0.4c0.1,0.1,0.2,0.3,0.3,0.5c0.1,0.3,0.3,0.5,0.5,0.5l0,0
	c0.5-0.2,1.1-0.8,1.9-1.6l0,0c0.6-0.6,1-1.1,1.5-1.4c0.4-0.3,0.9-0.5,1.5-0.5l0,0c0.2,0,0.5,0,0.9-0.1s0.6-0.2,0.7-0.2l0,0l0.3-0.1
	c0.3,0,0.7,0.1,1,0.2c0.4,0.1,0.6,0.2,0.7,0.2l0,0c0.1,0.1,0.1,0.1,0.1,0.2l0,0c0.1-0.1,0.1-0.2,0.2-0.2l0,0c0,0,0.1,0.1,0.2,0.2
	c0.1,0.1,0.2,0.2,0.3,0.3l0,0c0.6,0.6,1.3,1.1,2.2,1.5c0.8,0.4,1.7,0.6,2.6,0.6l0,0c0.5,0,1.1-0.1,1.6-0.4c0.6-0.3,0.9-0.4,1-0.5
	l0,0c0.9-0.4,1.5-0.7,1.9-0.8l0,0c0.4-0.1,0.9-0.2,1.3-0.2l0,0c0.8,0,1.4,0,2-0.1c0.6-0.1,1-0.2,1.3-0.2l0,0c0.4,0,0.8,0.1,1.2,0.2
	c0.4,0.2,1.1,0.5,2,1l0,0c0.1,0,0.3,0.1,0.6,0.2s0.5,0.2,0.6,0.3l0,0c0.5,0.1,1,0.2,1.6,0.2l0,0c0.8,0,1.5-0.1,2.1-0.2l0,0
	c4.6-0.6,7.8-0.9,9.7-0.9l0,0c0.8,0,2.1,0.1,3.7,0.4l0,0c1.9,0.2,3.1,0.3,3.5,0.3l0,0c0.3,0,0.5-0.1,0.6-0.3s0.1-0.5,0.1-0.8l0,0
	c0-0.2-1-0.3-2.9-0.5l0,0c-1.1-0.1-1.8-0.2-2.1-0.2l0,0c-0.8-0.2-1.7-0.2-2.8-0.2l0,0c-1.1,0-2.7,0.2-5,0.5l0,0
	c-0.7,0.1-1.8,0.3-3.4,0.4l0,0c-1.6,0.1-3.1,0.2-4.7,0.2l0,0c-0.3-0.2-1-0.5-2.2-1l0,0c-0.2-0.1-0.4-0.2-0.8-0.4s-0.8-0.3-1.2-0.3
	l0,0c-0.3,0-0.7-0.1-1.3-0.1l0,0c-2,0-3.6,0.3-4.9,1l0,0c-0.4,0.2-1,0.5-1.8,0.8c-0.8,0.3-1.2,0.4-1.4,0.4l0,0
	c-2.5-0.3-4.2-1.2-4.9-2.6l0,0c-0.1-0.8-0.2-2.2-0.2-4l0,0c0-1,0.1-1.6,0.2-1.7l0,0c0,0,0-0.1,0.1-0.3l0,0c0.1-0.8,0-1.7-0.1-2.6
	c-0.2-0.9-0.3-1.5-0.3-1.6l0,0c-0.4-1.6-0.5-2.8-0.4-3.7l0,0c0-0.3,0.1-0.7,0.1-1.3c0-0.5,0.1-1,0.2-1.3l0,0
	c0.1-0.2,0.3-0.7,0.5-1.6c0.3-0.9,0.4-1.4,0.4-1.6l0,0c0-0.9,0-2.2-0.1-4.1l0,0c0-0.2,0-0.6,0-1.2c0-0.6,0-1,0-1.3l0,0
	c0-0.2,0.1-0.6,0.3-1c0.2-0.4,0.3-0.8,0.3-1l0,0c0-0.1,0.1-0.4,0.1-0.9l0,0c0-1,0-1.8-0.1-2.4C26.2,29.8,26.2,29.3,26.2,29.1
	L26.2,29.1z M54.3,38.5L54.3,38.5c-0.5,0-1.2-0.2-2-0.5l0,0c-0.8-0.4-1.5-0.5-2.1-0.5l0,0c-0.8,0-1.5,0.1-2.3,0.3
	c-0.7,0.2-1.1,0.3-1.3,0.4l0,0c-0.2,0.1-0.5,0.2-0.7,0.3s-0.4,0.1-0.6,0.2l0,0c0,0-0.1,0-0.3,0s-0.4,0-0.7,0l0,0c-1,0-2,0-3-0.1
	c-1,0-1.7-0.1-2.2-0.1l0,0c0-0.1-0.1-0.2-0.1-0.4s-0.1-0.3-0.3-0.3l0,0c0,0-0.2,0-0.4,0c-0.2,0-0.7,0-1.3,0l0,0
	c-1.7,0-2.7,0-2.9,0.1l0,0c-0.2,0.2-0.2,0.4,0,0.7l0,0c0.1,0.5,0.2,1.3,0.2,2.4l0,0v1.2c0,0.3,0,0.8,0,1.6s0.1,1.5,0.2,2.2
	c0.1,0.6,0.3,1.2,0.5,1.8l0,0c0.2,0.6,0.4,1.2,0.4,1.9l0,0c0,0.8-0.2,2-0.7,3.5l0,0c0,0.2-0.1,0.7-0.3,1.3s-0.2,1.1-0.2,1.4l0,0
	c-0.2,0.2-0.3,0.6-0.3,1.1l0,0l0.1,1.3c0.1,0.2,0.4,0.3,0.7,0.3l0,0c0.3,0,0.6,0,0.9-0.1s0.6-0.1,0.7-0.1l0,0
	c0.2,0.1,0.3,0.2,0.5,0.2c0.1,0.1,0.2,0.1,0.3,0.1l0,0c0.1,0,0.2,0,0.3-0.1s0.2-0.1,0.4-0.2l0,0c0.4,0,0.6-0.1,0.7-0.4
	c0.1-0.3,0.2-0.5,0.2-0.8s0-0.5,0.1-0.6l0,0c0.4-0.1,1-0.2,1.7-0.2l0,0l1.9,0.1c0.4,0,0.9,0.1,1.6,0.1l0,0c0.5,0,0.8,0,1.1-0.1l0,0
	c0.2-0.1,0.6-0.2,1.2-0.5c0.6-0.2,1.1-0.4,1.7-0.5c0.5-0.1,1-0.2,1.5-0.2l0,0c0.5,0,0.9,0.1,1.2,0.2l0,0c0.9,0.4,1.5,0.6,1.9,0.6
	c0.4,0.1,1.2,0.1,2.3,0.1l0,0c0.1,0,0.3,0.4,0.4,1.2l0,0c0,0.2,0.1,0.4,0.2,0.7c0.1,0.3,0.2,0.5,0.2,0.5l0,0c0,0.1,0.1,0.2,0.1,0.2
	s0.1-0.1,0.1-0.2l0,0c0.2,0,0.4,0.1,0.4,0.2l0,0l0.2,0.1c0.1,0,0.3-0.1,0.5-0.2c0.2-0.1,0.3-0.2,0.4-0.2l0,0c0.1,0,0.3-0.1,0.7-0.1
	l0,0l1.5,0.1c0.3,0,0.6,0,0.7-0.1l0,0v-0.7c0-0.8-0.2-1.8-0.7-3l0,0c-0.2-0.7-0.4-1.2-0.5-1.7s-0.2-0.9-0.1-1.5l0,0
	c0-0.3,0.2-0.8,0.6-1.5c0.4-0.7,0.6-1.2,0.8-1.5l0,0c0-0.1,0.1-0.7,0.1-1.9l0,0v-2l0.1-4.8l0.1-0.7c0-0.6-0.2-0.8-0.5-0.7l0,0
	c-0.7-0.2-1.8-0.4-3.4-0.5l0,0l-1.7-0.2L55,37.8c0,0.1,0,0.2-0.1,0.4C54.3,38.2,54.3,38.3,54.3,38.5z M38.3,38.4l0.1-0.1l0.1,0.1
	l-0.1,0.1L38.3,38.4z M47.5,39.3L47.5,39.3c0.1-0.1,0.5-0.2,1-0.3s1-0.1,1.5-0.1l0,0c0.4,0,0.7,0,0.8,0.1l0,0c0.5,0.2,1,0.3,1.4,0.5
	l0,0c0.6,0.3,1.4,0.5,2.5,0.7l0,0c0,0.2,0.1,0.5,0.1,0.9l0,0c0,0.1,0.1,0.3,0.1,0.5s0.1,0.4,0.2,0.5l0,0c0.1,0.3,0.1,1,0.1,2l0,0
	c0,0.7-0.1,1.3-0.2,1.8c-0.1,0.5-0.3,1.1-0.5,1.8l0,0c-0.4,0.9-0.6,1.8-0.6,2.6l0,0c0,0.4-0.1,0.9-0.1,1.4l0,0c0,0.4,0,0.8,0.1,1.2
	c0.1,0.3,0.3,0.9,0.5,1.5l0,0c-1,0.1-1.8,0-2.4-0.2s-1-0.3-1-0.3l0,0c-0.7-0.2-1.2-0.4-1.5-0.4l0,0c-0.5,0-1.1,0.1-1.6,0.3
	s-0.9,0.3-1.1,0.4l0,0c-1,0.4-1.9,0.7-2.6,0.7l0,0c-0.3,0-0.6,0-0.9-0.1s-0.6-0.1-0.9-0.1l0,0c-0.8,0-1.5,0-2.1,0.1
	c-0.6,0.1-1,0.2-1.4,0.2l0,0c0-0.5,0.1-0.9,0.3-1.3c0.2-0.3,0.3-0.5,0.3-0.6l0,0c0.3-0.6,0.4-1.2,0.4-1.7l0,0c0-0.6-0.1-1.3-0.3-2
	c-0.2-0.7-0.3-1.2-0.3-1.5l0,0c-0.2-1.1-0.3-2.4-0.3-3.8c0-1.4,0-2.2,0-2.4l0,0c0-0.1,0-0.3,0-0.8s0-0.7,0-0.8l0,0
	c0.2,0,0.6-0.1,1.1-0.1l0,0c0.4,0,1,0,1.7,0.1l0,0l1.7,0.1c0.6,0,1,0,1.3-0.1l0,0l1.1-0.4C46.7,39.5,47.3,39.3,47.5,39.3z"/>
<path d="M100.2,13.5l-0.7-0.2l-0.1-0.1c-0.2,0-0.4,0.1-0.8,0.2c-0.4,0.1-0.6,0.3-0.7,0.3l0,0c-0.4,0.3-0.7,0.8-0.7,1.5l0,0
	c0,0.5,0.2,1,0.4,1.5c0.3,0.5,0.6,0.7,0.9,0.7l0,0h0.6c0.1,0,0.2,0,0.2-0.1l0,0c0.1,0,0.4-0.1,0.9-0.3c0.5-0.2,0.8-0.4,1.1-0.7
	c0.3-0.3,0.4-0.6,0.4-1l0,0c0-0.4-0.1-0.8-0.2-1c-0.2-0.2-0.4-0.4-0.7-0.5C100.6,13.8,100.4,13.7,100.2,13.5L100.2,13.5z
	 M124.8,23.9L124.8,23.9l0.4-1c0.2-0.5,0-0.9-0.6-1s-1.3-0.3-2.1-0.4l0,0c-0.4,0-1-0.1-1.7-0.3c-0.7-0.1-1.2-0.3-1.6-0.3l0,0
	c-0.6-0.1-1.1-0.3-1.7-0.5l0,0c-0.9-0.4-1.7-0.6-2.3-0.6l0,0c-0.7,0-1.8,0.2-3.4,0.5l0,0c-1.4,0.3-2.5,0.5-3.2,0.5l0,0
	c-1,0-2.6-0.2-4.7-0.6l0,0c-2-0.4-3.7-0.7-5-0.7l0,0c-0.4,0-0.9,0-1.5,0.1l0,0c-0.3,0-1.2,0.3-2.5,0.7c-1.4,0.4-2.2,0.7-2.4,0.9l0,0
	c-0.1,0-0.2,0.1-0.4,0.2c-0.2,0.1-0.3,0.2-0.4,0.2l0,0h-7c0,0,0.1-0.3,0.2-0.8s0-0.8-0.2-0.7l0,0C84.4,20,84,20,83.5,20l0,0
	c-0.7,0-1.4-0.1-2-0.2l0,0c-0.8-0.1-1.4-0.1-1.6-0.1l0,0c0,0.4,0,0.7-0.1,1s-0.2,0.6-0.3,1c-0.1,0.3-0.3,0.6-0.4,0.9l0,0
	c-0.2,0.4-0.3,0.9-0.3,1.4c-0.1,0.5-0.1,0.8-0.2,1l0,0c-0.2,1-0.3,1.8-0.5,2.4l0,0c-0.1,0.1-0.2,0.3-0.4,0.5s-0.4,0.4-0.5,0.4l0,0
	L77,28.5c-0.2,0.4-0.3,0.6-0.3,0.7l0,0c-0.1,0.1-0.1,0.1-0.2,0.2c0,0.1,0,0.1,0,0.1l0,0c-0.3,0.4-0.4,0.7-0.5,0.8s-0.1,0.4-0.1,0.8
	l0,0l0.1,0.2c0.2,0.1,0.3,0.2,0.4,0.2l0,0c0.3,0.1,0.6,0.3,1,0.5s1,0.5,1.8,1l0,0c0,0,0.1,0.1,0.2,0.2c0.1,0.1,0.2,0,0.3-0.1l0,0
	l0.1-0.1c0.1-0.4,0.3-0.7,0.7-1c0.3-0.3,0.5-0.5,0.6-0.5l0,0c0.8-0.6,1.3-1.2,1.5-1.8l0,0c0.3-0.8,0.5-1.6,0.6-2.5l0,0
	c0.2-0.9,0.4-1.6,0.5-2.1s0.3-0.9,0.7-1.4l0,0c0.2-0.3,0.7-0.5,1.7-0.5c0.9-0.1,1.7-0.1,2.3,0l0,0c0.1,0,0.5,0.1,1.2,0.1l0,0
	c0.6,0,1.2,0,1.8-0.1c0.6-0.1,1-0.1,1-0.2l0,0c0.4-0.3,0.7-0.5,0.9-0.7l0,0c0.6-0.4,1.7-0.7,3.2-1s2.8-0.5,3.7-0.5l0,0
	c1,0,2.4,0.2,4,0.7l0,0c0.2,0,0.7,0.2,1.6,0.4c0.8,0.2,1.7,0.3,2.5,0.3l0,0l2.2-0.1c0.1,0,0.3-0.1,0.6-0.2c0.3-0.1,0.5-0.2,0.6-0.2
	l0,0c1.2-0.4,2.2-0.5,3.1-0.5l0,0c1.1,0,2.2,0.3,3.4,0.8l0,0c0.2,0.1,0.6,0.2,1.2,0.4c0.6,0.2,0.9,0.3,0.9,0.4l0,0
	c-0.1,0.1-0.3,0.3-0.6,0.7c-0.3,0.3-0.5,0.6-0.5,0.8l0,0c-0.1,0.1-0.4,0.9-0.8,2.2c-0.4,1.4-0.7,2.4-0.8,3l0,0
	c0,0.2,0.1,0.4,0.2,0.4l0,0c0.1,0,0.3,0,0.6,0c0.3,0,0.5-0.1,0.7-0.1l0,0c0.2,0,0.3,0,0.5,0.1l0,0c0,0.1,0.1,0.1,0.2,0.1l0,0h0.1
	c0.1,0,0.3,0.1,0.6,0.3c0.3,0.2,0.5,0.3,0.7,0.3l0,0c0.2,0,0.3-0.1,0.5-0.2l0,0c0.3-0.4,0.6-1.2,1-2.3l0,0c0.2-0.7,0.3-1.1,0.5-1.3
	l0,0l1.5-1.3c0-0.1,0.1-0.3,0.3-0.4l0,0c0-0.1,0.1-0.3,0.2-0.6C124.8,24.3,124.8,24.1,124.8,23.9z M111.9,28.4L111.9,28.4
	c-0.5,1-1.7,1.4-3.8,1.3l0,0c-0.2,0-0.6,0-1.1,0s-1-0.1-1.3-0.3l0,0c-2-1-3.6-1.5-4.7-1.5l0,0c-0.6,0-1.2,0.1-1.8,0.3
	c-0.6,0.2-1.3,0.4-1.9,0.7c-0.6,0.3-1.1,0.5-1.5,0.6l0,0c-1.1,0.4-3.3,0.7-6.8,0.7l0,0c-0.4,0.2-0.9,0.2-1.4,0.2s-0.9,0-1.2,0l0,0
	l-0.1,0.1c-0.2,0-0.3,0.1-0.3,0.2l0,0h-0.1l-0.1,0.1l0.4,0.4v0.4c0.1,0,0.1,0.1,0.1,0.2s0,0.1-0.1,0.2l0,0c0,0.2,0.1,0.4,0.3,0.7
	l0,0l0.1,0.1h0.3c0,0,0.3,0,0.8-0.2s0.8-0.3,1-0.3l0,0c0.6-0.2,1.7-0.2,3.4-0.2l0,0c1.9,0,3.3-0.2,4.1-0.6l0,0
	c0.9-0.5,1.8-0.9,2.5-1.1c0.7-0.3,1.4-0.4,2.1-0.4l0,0c0.9,0,2.2,0.4,4.1,1.1l0,0c1.2,0.4,2.4,0.7,3.8,0.8l0,0c-0.3,0.3-1,0.7-2,1
	l0,0c-1,0.4-1.8,0.8-2.4,1.1c-0.6,0.4-1.2,0.9-1.8,1.6l0,0c0,0.2-0.3,0.6-0.6,1.1c-0.4,0.5-0.7,0.9-0.9,1l0,0c0,0-0.1,0.2-0.4,0.5
	l0,0c-0.1,0.2-0.3,0.3-0.6,0.3l0,0l-0.3-0.1c-0.6,0-1.1,0.1-1.3,0.2C98.1,38.5,98,38.7,98,39l0,0c0,0.2,0.1,0.5,0.2,0.9
	s0.2,0.8,0.2,1l0,0c0,0.3,0,0.5-0.1,0.7l0,0c0,0.1,0,0.3-0.1,0.5s-0.1,0.4,0,0.5l0,0c0,0.1,0.1,0.4,0.2,0.9s0.1,0.8-0.2,0.8l0,0
	l-1.6,0.1c-1,0.1-1.7,0.1-2.1,0.1l0,0c-0.6,0-1.2-0.1-1.6-0.2l0,0c-1-0.4-2.4-0.5-4.2-0.4l0,0c-0.6,0-1.5,0.1-2.5,0.3
	s-1.8,0.4-2.4,0.6l0,0c-0.3,0.1-1,0.2-2.3,0.2c-1.2,0-2.5,0-3.7,0l0,0c-1.1,0-1.9,0-2.3-0.1l0,0l-0.1-0.2c-0.2,0-0.5,0.1-0.7,0.3
	l0,0l0.1,0.1c0,0.2,0.1,0.5,0.1,0.9l0,0c0,0-0.1,0.1-0.1,0.2l0,0c0,0.1,0,0.2,0.1,0.3s0.2,0.2,0.4,0.2l0,0c0.2,0,0.4,0,0.7-0.1
	s0.5-0.1,0.6-0.2l0,0c0.4-0.1,1-0.1,1.7-0.1l0,0l2.8,0.1c0.4,0,1,0.1,1.6,0.1l0,0c1,0,2.6-0.4,4.9-1.1l0,0c0.3-0.1,0.8-0.1,1.4-0.1
	l0,0c1.6,0,3.9,0.2,7,0.5l0,0c0.3,0,0.8,0.1,1.4,0.1l0,0c0.6,0,1,0,1.3,0.1l0,0c0.1,0.3,0.1,0.6,0.1,0.7l0,0c0,0.2-0.1,0.6-0.2,1.2
	l0,0c-0.2,0.5-0.3,0.9-0.3,1.3l0,0l-0.1,1.4C98.1,51.2,98,51.7,98,52l0,0c0,1.1,0.2,2.6,0.5,4.5l0,0c0,0.2,0.1,0.6,0.2,1.1
	s0.2,0.9,0.2,1.2l0,0c0,0.4,0.1,0.8,0.2,1.2l0,0c0,0.5-0.1,1.1-0.3,1.7l0,0l-0.1,0.1c0,0.4,0,0.7-0.1,1.1c0,0.4-0.1,0.7-0.1,1.1l0,0
	c-0.1,0-0.3,0.1-0.5,0.2s-0.4,0.1-0.6,0.1l0,0c-0.2-0.1-0.3-0.3-0.5-0.4c-0.2-0.1-0.3-0.3-0.4-0.3l0,0c-0.8-0.3-1.4-0.4-1.7-0.4l0,0
	c-0.2,0-0.4,0-0.8,0.1c-0.3,0-0.7,0-1.2,0l0,0c0,0.4,0,1,0.1,1.9l0,0l-0.1,0.2l0.1,0.2H93c0,0,0.1-0.1,0.3-0.2
	c0.1-0.1,0.3-0.1,0.4-0.2l0,0c0.2-0.2,0.5-0.4,0.8-0.4l0,0c0.3,0,0.6,0.1,0.9,0.3c0.3,0.2,0.6,0.4,0.9,0.7l0,0
	c0.6,0.6,1.1,0.8,1.4,0.8l0,0c0.2,0,0.3,0,0.5,0.1s0.4,0,0.6-0.1l0,0c0.3,0,0.5-0.1,0.6-0.4s0.1-0.5,0.1-0.9c0-0.3,0-0.5,0-0.7l0,0
	c0-0.3,0-0.5,0.1-0.5l0,0c0.2-0.7,0.8-1,1.7-1l0,0c0.7,0,1.4,0.2,2.2,0.5l0,0l0.1-0.1c0-2-0.2-4-0.6-5.9l0,0
	c-0.3-1.3-0.4-2.5-0.4-3.5l0,0c0-1.4,0.2-3.1,0.7-5.2l0,0c0.1-0.3,0.1-0.8-0.1-1.4c-0.1-0.6-0.2-1-0.2-1.3l0,0
	c0-0.4,0.1-0.7,0.2-0.9l0,0c0.2-0.2,0.4-0.4,0.6-0.5s0.4-0.1,0.6-0.2l0,0h0.1l0.1,0.1c1.4-0.2,2.7-0.4,3.9-0.4l0,0
	c1.4,0,2.8,0.2,4.1,0.5l0,0c0.3,0.1,0.7,0.2,1.3,0.4c0.6,0.2,1.2,0.3,1.7,0.3l0,0c0.4,0,1,0.1,1.7,0.1l0,0l3.5-0.1
	c0.6,0,1.3,0.1,1.9,0.2l0,0c0.8,0.1,1.4,0.1,1.8,0.1l0,0c0.1-0.1,0.2-0.2,0.3-0.2c0.1,0,0.2,0,0.4,0.2l0,0c0.1-0.2,0.1-0.4,0.2-0.8
	c0-0.3,0-0.6-0.1-0.6l0,0c-0.1-0.1-0.5-0.1-1.1-0.1s-1,0-1.3,0l0,0c-0.2,0-0.6-0.1-1.1-0.1l0,0l-2,0.1c-0.9,0.1-1.5,0.1-2,0.1l0,0
	c-0.3,0-0.8,0-1.6-0.1l0,0c-1.2-0.2-2.2-0.4-2.9-0.6l0,0c-2.1-0.5-3.8-0.8-5-0.8l0,0c-1.4,0-3.1,0.2-4.9,0.6l0,0
	c-0.2,0-0.2-0.4-0.2-1.3l0,0l-0.1-1.5h0.2l0.2,0.3c1.2-0.9,2-1.9,2.5-3l0,0c0.1-0.2,0.4-0.5,1-0.7c0.5-0.2,1-0.4,1.3-0.6
	s0.6-0.2,0.7-0.3l0,0c0.2-0.1,0.4-0.2,0.8-0.3s0.7-0.2,0.8-0.4l0,0c0.4-0.2,0.8-0.5,1.2-0.8c0.4-0.4,0.7-0.6,0.9-0.8l0,0
	c0,0,0.4-0.3,1-0.8s1-0.9,1-1.2l0,0c0.1-0.2,0.3-0.5,0.5-0.9c0.2-0.3,0.3-0.6,0.3-0.8l0,0c0-0.4-0.3-0.6-0.8-0.8l0,0
	c-0.2,0-0.4-0.1-0.6-0.2s-0.5-0.2-0.8-0.2l0,0c-0.3-0.2-0.5-0.3-0.5-0.4l0,0c0-0.1-0.1-0.2-0.2-0.3s-0.3-0.1-0.4-0.1l0,0
	C111.9,28.4,111.9,28.4,111.9,28.4z"/>
<path d="M164.5,12.8l-0.2-0.2l-0.1,0.1c-0.1,0-0.3,0.1-0.5,0.2c-0.2,0.1-0.5,0.1-0.7,0.2l0,0c0-0.1-0.1-0.1-0.2-0.1
	c-0.1,0.1-0.2,0.1-0.2,0.2l0,0c0,0.1,0,0.2,0.1,0.4c0,0.2,0.1,0.4,0.2,0.6l0,0l-0.1,4.1c-0.1,1.8-0.1,3.2-0.1,4.1l0,0
	c-0.1,0-0.4,0.1-0.7,0.2s-0.6,0.2-0.8,0.1l0,0c-0.4,0-0.9-0.1-1.6-0.1l0,0c-0.7,0-1.7,0-3.1,0.1l0,0c-1.1,0.1-2.1,0.2-3.2,0.2l0,0
	c-0.3,0-0.5,0-0.7-0.1s-0.4-0.1-0.7-0.3l0,0h-0.2l-0.1,0.1c-0.1,0.2-0.2,0.3-0.4,0.3s-0.2,0.2-0.2,0.4l0,0c0,0.3,0,0.5,0.1,0.8l0,0
	c0,0.1,0.1,0.3,0,0.4s0,0.3,0,0.4l0,0h0.1c0.2,0,0.5-0.1,0.9-0.2s0.7-0.2,0.8-0.1l0,0c5.9-0.2,9-0.4,9.2-0.5l0,0l0.5-0.2
	c0,0.2,0.1,0.6,0.1,1l0,0c0,0.6-0.1,1.5-0.2,2.6l0,0l-0.2,1.6c-0.1,1-0.1,1.6-0.1,2l0,0c0,0.3-0.1,1.1-0.2,2.5
	c-0.1,1.4-0.3,2.8-0.6,4.1l0,0l-0.2,1.2c-0.2,0.7-0.3,1.3-0.3,1.6c0,0.4-0.1,1.1-0.1,2.2l0,0c0,0.1-0.1,0.2-0.2,0.2
	c-0.1,0-0.2,0.1-0.2,0.1l0,0c-0.5,0.1-0.8,0.1-1.1,0.1l0,0c-0.4,0-0.8,0-1.2-0.1c-0.4,0-0.8-0.1-1.1-0.1l0,0c-0.5,0-0.9,0-1.1,0.1
	l0,0c0,0-0.6,0-1.7,0.1l0,0c-3.4,0.1-5.2,0.3-5.3,0.6l0,0c0,0,0,0.1,0.1,0.2l0,0c0,0,0.1,0.2,0.1,0.6s0,0.7,0.1,0.8l0,0
	c0.1,0.1,0.2,0.1,0.5,0l0,0c0.2-0.1,0.4-0.1,0.6-0.1s0.3,0,0.5,0l0,0v-0.5c0.7,0,1.8,0,3.2-0.1l0,0c2.2-0.1,3.8-0.1,4.9-0.1l0,0
	c0.3,0,0.6,0,1.1-0.1s0.7-0.1,0.9-0.1l0,0c0,0.4,0,0.7,0.1,1.1c0,0.4,0.1,0.8,0.1,1.2l0,0c0,0.5-0.1,1-0.2,1.4l0,0
	c-0.3,1.2-0.8,2.3-1.6,3.2c-0.7,0.9-1.7,1.9-3.1,3.1l0,0c-1,1-1.8,1.7-2.3,2.2l0,0c-1.2,1.3-2,2.3-2.5,3.2l0,0
	c-0.1,0.2-0.3,0.6-0.6,1.1s-0.6,1-0.9,1.3c-0.3,0.4-0.7,0.7-1.1,1l0,0c0,0.2-0.3,0.5-0.7,0.8s-0.6,0.6-0.6,0.9l0,0l0.2,0.3
	c0,0.2,0.1,0.4,0.4,0.6l0,0c0.2,0,0.4,0.1,0.7,0.1s0.5,0.1,0.7,0.2l0,0l0.5,0.2c0.2,0.2,0.7,0,1.3-0.6c0.6-0.5,1.2-1.2,1.8-1.9
	c0.6-0.7,0.9-1.1,1-1.2l0,0c0-0.1,0.2-0.4,0.5-1c0.4-0.6,0.6-1,0.8-1.3l0,0c0.5-0.6,1.6-1.6,3.4-3l0,0c1.4-1.2,2.4-2.1,3.1-2.7
	c0.7-0.7,1.2-1.3,1.5-1.9l0,0l1.3-2.3v-0.2c0.4-0.4,0.6-1.9,0.6-4.4l0,0c0-1.4,0-2.2,0.1-2.5l0,0c0.7-0.1,1.3-0.1,1.6-0.1l0,0
	c0.8,0,2.1,0.1,3.8,0.4l0,0c0.3,0,0.9,0.1,1.7,0.2c0.8,0.1,1.5,0.1,2.1,0.1l0,0c0.5,0,1.2-0.1,2.1-0.4l0,0c1-0.2,1.7-0.4,2.2-0.4
	l0,0c0.6,0,1.5,0.2,2.6,0.5l0,0c0.9,0.2,1.6,0.4,2,0.4l0,0c0.8,0.1,1.3,0.2,1.6,0.3l0,0c0.1,0,0.2,0.1,0.3,0.1s0.2,0.1,0.4,0.1l0,0
	c0.1,0,0.3-0.1,0.4-0.2c0.1-0.1,0.3-0.2,0.4-0.1l0,0c0.1,0,0.2-0.1,0.2-0.3c0.1-0.2,0.1-0.4,0.1-0.7l0,0c0-0.5-0.3-0.7-0.8-0.7l0,0
	c-1.1,0-1.8,0-2.2-0.1s-0.7-0.2-1-0.3l0,0c-0.7-0.2-1.3-0.4-1.8-0.5l0,0l-1.1-0.2c-0.1,0-0.3-0.1-0.7-0.1l0,0
	c-0.7,0-1.5,0.1-2.5,0.4S175.2,42,175,42l0,0c-0.1,0-0.3,0.1-0.6,0.1l0,0c-0.4,0-1.1-0.1-2.1-0.2l0,0c-1-0.2-1.8-0.2-2.3-0.2l0,0
	c-1.9,0-3.5-0.1-4.8-0.2l0,0c0-0.1,0-0.5,0.1-1.1s0.2-1.1,0.4-1.5l0,0c0.3-1.2,0.5-2.1,0.5-2.7c0.1-0.7,0.1-1.5,0.1-2.5l0,0
	c0-1,0-1.8,0.1-2.5l0,0l0.2-3.1c0.2-2.6,0.3-4.5,0.3-5.9l0,0c0.5-0.1,1.2-0.1,2-0.1l0,0c2.3,0,4.6,0.6,6.7,1.7l0,0
	c0.6,0,1.5,0,2.8,0.2l0,0c0.2,0,0.6,0.1,1.2,0.2c0.6,0.1,1.1,0.1,1.6,0l0,0c0.6-0.1,1.2-0.1,1.7-0.1s0.9,0,1.2,0l0,0v-0.5
	c0-0.4,0-0.7,0.1-1l0,0c-0.3-0.3-0.8-0.4-1.6-0.3l0,0c-0.4,0-1.1,0.1-2,0.1l0,0l-4.1-0.1c-0.5,0-1.1-0.2-1.9-0.6l0,0
	c-0.8-0.3-1.5-0.6-2.2-0.8c-0.7-0.2-1.6-0.3-2.6-0.3l0,0c-0.9,0-1.9,0.1-2.8,0.2l0,0l-0.1-0.1c0-0.1,0-0.5,0.1-1.3
	c0.1-0.7,0.2-1.5,0.2-2.2l0,0c0-0.2,0-0.3,0.1-0.5c0-0.2,0.1-0.4,0.1-0.5l0,0l0.2-0.4c0,0,0.1,0,0,0h-0.1l0,0l-0.1-0.1
	c0-0.1-0.1-0.3-0.1-0.7l0,0c0-0.5,0.1-1,0.2-1.7l0,0l-0.1-0.2l-0.1-0.1c-0.5-0.1-0.7-0.2-0.8-0.2l0,0c-0.1,0-0.2-0.1-0.4-0.2
	s-0.4-0.1-0.6,0.1l0,0h-0.2C164.7,13.1,164.5,13,164.5,12.8L164.5,12.8z M147.3,13.7L147.3,13.7c-0.4,0.4-0.7,0.9-1,1.6
	c-0.3,0.7-0.5,1.6-0.9,2.8l0,0c-0.2,0.6-0.3,1.3-0.5,1.9s-0.4,1-0.6,1.3l0,0c-1.8,2.6-3.4,4.7-4.7,6.1l0,0c-0.7,0.7-1.3,1.6-2,2.5
	c-0.6,0.9-1.1,1.6-1.3,1.9l0,0c-0.2,0.3-0.6,0.8-1.3,1.3l0,0c-0.2,0.2-0.4,0.5-0.8,0.9s-0.6,0.8-0.7,1l0,0l0.4,0.4
	c0.1,0,0.3,0.1,0.5,0.2c0.2,0.1,0.4,0.2,0.6,0.1l0,0l0.1-0.2l0.2-0.2c0.3-0.2,0.5-0.4,0.7-0.8l0,0c0.1-0.2,0.3-0.4,0.7-0.8l0,0
	c0.5-0.6,1.2-1.5,2-2.8l0,0c0.6-1.1,1.2-1.9,1.6-2.2l0,0c0.1-0.1,0.2-0.3,0.3-0.4s0.3-0.2,0.4-0.3l0,0c0.2,0.1,0.3,1.4,0.3,4l0,0
	c0,1.2,0,2.1,0,2.5s0,0.6,0,0.7l0,0c0,0.2,0.1,0.6,0.2,1c0.1,0.5,0.1,0.8,0.1,1.1l0,0c0,0.7-0.1,1.7-0.2,2.9l0,0
	c-0.2,1.1-0.3,2.1-0.3,3.1l0,0c0,1.4,0.2,2.9,0.5,4.7l0,0c0.3,1.5,0.4,2.8,0.4,3.8l0,0c0,1-0.1,2.1-0.4,3.4l0,0c0,0.1,0,0.4-0.1,0.9
	s-0.2,0.9-0.3,0.9l0,0c0,0.2-0.1,0.5-0.2,0.9c-0.1,0.4-0.1,0.7-0.1,0.9l0,0c0,0.6-0.1,1.1,0,1.6c0,0.5,0,0.9,0,1.2l0,0v1.3l-0.1,2.4
	c0,0.3,0.1,0.6,0.3,0.7c0.2,0.2,0.4,0.2,0.7,0.2l0,0c0.2,0,0.5-0.1,0.7-0.2l0,0c0.1,0,0.3-0.1,0.6-0.3l0,0l0.2-0.1
	c0.1,0,0.2,0,0.4,0.1s0.3,0.1,0.4,0.1l0,0c0,0,0,0.1,0.1,0.1l0,0c0.1,0,0.3-0.1,0.5-0.3l0,0c0.1-0.1,0.2-0.2,0.4-0.3
	c0.1-0.1,0.2-0.2,0.2-0.3c0-0.1,0.1-0.3,0.1-0.5l0,0c0.1-0.7,0.1-1.2,0.1-1.6l0,0c0-0.5,0-1.1-0.1-1.9l0,0c0-0.2-0.1-0.6-0.1-1l0,0
	c0-0.9,0.2-2.3,0.6-4.1l0,0c0.4-1.8,0.6-3.2,0.6-4.2l0,0c0-1-0.1-2.1-0.3-3.2c-0.2-1.2-0.3-1.8-0.4-2l0,0c-0.1-0.6-0.3-1.4-0.4-2.4
	l0,0c0-0.2-0.1-0.5-0.1-0.9l0,0c0-0.5,0.1-1.2,0.2-2.2l0,0l0.2-1.4c0-0.3,0.1-0.7,0.1-1.3l0,0c0-0.6,0-1.5-0.1-2.8l0,0
	c-0.1-1.2-0.1-2.1-0.1-2.7l0,0c0-0.7,0-1.2,0.1-1.5l0,0c0-0.3,0.1-0.6,0.1-1c0-0.3,0.1-0.7,0.1-1l0,0c0-0.4,0-0.7-0.1-0.9l0,0v-0.1
	c0-0.1,0-0.2,0.1-0.3c0-0.1,0.1-0.2,0.1-0.3l0,0c0-0.2-0.1-0.4-0.3-0.6l0,0c-0.1-0.1-0.5-0.2-1.3-0.2l0,0H143c-0.6,0-1,0-1.2-0.1
	l0,0c0-0.2,0.5-0.8,1.5-1.9s1.7-2,2.2-2.6l0,0c0.2-0.6,0.7-1.8,1.3-3.7l0,0c0.2-0.2,0.3-0.6,0.5-1.2l0,0c0.1-0.4,0.3-0.7,0.4-1.1
	c0.1-0.3,0.3-0.5,0.4-0.6l0,0c0.3-0.7,0.4-1.2,0.4-1.3l0,0C148.5,14.1,148.1,13.8,147.3,13.7z M156.9,32.1L156.9,32.1
	c-0.3-0.4-0.7-0.7-1.1-0.9c-0.4-0.2-0.7-0.5-0.9-0.8l0,0c-0.3-0.4-0.6-0.8-0.8-1.2c-0.2-0.4-0.3-0.7-0.5-0.9
	c-0.1-0.2-0.3-0.3-0.4-0.3l0,0c-0.4,0-1.4,0.8-3.1,2.5l0,0c-0.2,0-0.3,0.2-0.3,0.5l0,0c0.1,0.4,0.4,0.9,0.9,1.4l0,0
	c0.4,0.6,0.7,1,0.7,1.1l0,0l0.2,0.2v0.1l0.1,0.1c0.5,0.8,0.8,1.3,0.9,1.7c0.1,0.4,0.3,0.8,0.4,1.3c0.1,0.5,0.2,0.9,0.2,1.1l0,0
	c0.1,0.4,0.3,0.7,0.5,1.1c0.3,0.4,0.6,0.7,1,1.1c0.4,0.4,0.7,0.7,0.9,0.9l0,0c0.2,0.2,0.3,0.3,0.4,0.5s0.2,0.3,0.3,0.3
	s0.3,0.1,0.7,0.1l0,0c0.1,0.1,0.2,0.1,0.3,0.1l0,0c0.2,0,0.5-0.3,0.7-0.8l0,0c0.6-0.5,1-0.8,1.2-0.9l0,0h0.1
	c0.3-0.2,0.5-0.4,0.5-0.7l0,0c0-0.3-0.2-0.6-0.5-0.9c-0.3-0.3-0.6-0.5-0.6-0.6l0,0c-0.6-0.6-0.9-1.1-1.1-1.3l0,0
	c0-0.1-0.1-0.2-0.2-0.4l0,0c-0.2-0.4-0.3-1-0.4-1.8l0,0c0-0.2-0.1-0.4-0.1-0.8c-0.1-0.4-0.2-0.7-0.3-1l0,0
	C157,32.6,157,32.3,156.9,32.1z M176.4,28.6L176.4,28.6c-0.3,0.2-0.5,0.3-0.5,0.4s-0.1,0.2-0.2,0.4c-0.1,0.2-0.2,0.4-0.3,0.6l0,0
	c-0.1,0.2-0.3,0.5-0.6,1s-0.4,0.9-0.6,1.3l0,0c-0.2,0.4-0.3,1-0.5,1.8l0,0c-0.2,1.1-0.5,2-0.8,2.6l0,0c-0.1,0.2-0.5,0.9-1.3,2l0,0
	c-0.3,0.4-0.7,1-1.1,1.8l0,0c0,0-0.1,0.1-0.1,0.2l0,0c0,0.2,0.1,0.3,0.3,0.4c0.2,0.1,0.4,0.1,0.5-0.1l0,0h0.1c0.1,0,0.3,0,0.4,0.1
	c0.2,0.1,0.3,0.1,0.4,0.1l0,0c0.2,0.1,0.4,0.2,0.6,0.4c0.3,0.1,0.5,0.2,0.6,0.3l0,0c0.7-0.1,1.1-0.2,1.2-0.3
	c0.1-0.1,0.3-0.3,0.4-0.7l0,0c0.1-0.2,0.3-0.6,0.7-1.4l0,0c0.2-0.3,0.5-0.6,0.8-1.1c0.3-0.4,0.6-0.8,0.8-1.2l0,0
	c0.1-0.2,0.2-0.4,0.2-0.7s0.1-0.5,0.1-0.6l0,0c0-0.4,0.2-0.9,0.4-1.3l0,0c0.1-0.2,0.2-0.5,0.3-0.6c0.1-0.2,0.2-0.3,0.3-0.5l0,0
	c0.1-0.3,0.3-0.5,0.4-0.7l0,0c0.2-0.4,0.5-0.8,0.7-1.1l0,0c0.4-0.5,0.5-0.9,0.5-1.1l0,0c0-0.4-0.3-0.8-1-1.1l0,0c0,0-0.4-0.2-1-0.6
	c-0.6-0.3-1-0.5-1.1-0.4l0,0C176.9,28.5,176.7,28.6,176.4,28.6L176.4,28.6C176.7,28.6,176.5,28.6,176.4,28.6z M169.1,46.5
	L169.1,46.5c-0.2-0.3-0.3-0.6-0.4-0.8c-0.1-0.2-0.2-0.4-0.2-0.4l0,0c-0.1,0-0.2,0.1-0.4,0.2c-0.2,0.1-0.5,0.2-0.9,0.4l0,0L167,46
	c0.1,0.1,0.1,0.2,0.2,0.3s0.1,0.2,0.2,0.3l0,0c0,0.1,0.2,0.4,0.6,1c0.4,0.6,0.7,0.9,0.8,1.1l0,0l0.7,1.3c0.8,1.6,1.5,2.7,2.2,3.4
	l0,0c0.3,0.3,1,0.7,2,1.1l0,0c0.2,0.1,0.4,0.2,0.9,0.4c0.4,0.2,0.8,0.4,1.1,0.6l0,0c1.5,1.2,2.5,2.2,3.1,2.9l0,0
	c0.4,0.4,0.7,0.9,1,1.4l0,0c0.8,1.2,1.6,2,2.2,2.5l0,0c0.4,0.3,0.9,0.6,1.5,1.1s1,0.8,1.2,1.1l0,0c0.2,0.2,0.4,0.3,0.7,0.5
	s0.5,0.2,0.7,0.2l0,0c0.2,0,0.3-0.1,0.4-0.3l0,0c0,0,0.1-0.1,0.2-0.3c0.1-0.1,0.2-0.3,0.2-0.4l0,0c-0.1-0.2-0.3-0.4-0.7-0.8
	c-0.4-0.4-0.6-0.6-0.8-0.6l0,0c-0.2,0-0.5-0.2-1.1-0.6c-0.6-0.4-1.1-0.7-1.4-1l0,0c-0.3,0-1.1-0.9-2.3-2.5l0,0
	c-0.5-0.7-0.8-1.1-1.1-1.4l0,0l-0.1-0.3c-0.1-0.1-0.4-0.4-0.8-0.9c-0.5-0.5-0.8-0.8-1-0.8l0,0l-1-0.7c-0.5-0.4-1.1-0.8-1.7-1l0,0
	c-0.1,0-0.3-0.1-0.5-0.2c-0.2-0.1-0.4-0.2-0.4-0.2l0,0c-1.1-0.5-1.7-1-1.9-1.4l0,0c-0.3-0.3-0.8-1.2-1.6-2.6l0,0
	C169.9,47.6,169.4,46.7,169.1,46.5z"/>
<path d="M244.7,20.2L244.7,20.2c-0.1,0-0.4,0-0.9-0.1s-1-0.1-1.2-0.1l0,0c-1,0.1-2,0.1-2.8,0.1l0,0c-0.8,0-1.4-0.1-2-0.2l0,0
	c-1-0.2-1.7-0.4-2.2-0.4l0,0c-0.4,0-1-0.1-1.8-0.2l0,0c-0.8-0.2-1.6-0.4-2.3-0.7l0,0c-0.6-0.2-1.6-0.4-2.9-0.4l0,0
	c-2,0-4,0.2-5.9,0.7l0,0c-0.3,0.1-0.4-0.2-0.4-0.8l0,0l0.1-1.1l0.1-1.5c0.1-0.9,0.1-1.5,0.1-2l0,0c0-0.2-0.2-0.3-0.6-0.3
	s-0.6,0-0.7,0l0,0c-0.2-0.1-0.7-0.1-1.5-0.1l0,0l-2.5,0.1c-0.3,0-0.5,0.1-0.5,0.4l0,0c0,0.2,0.1,0.4,0.1,0.7
	c0.1,0.3,0.2,0.5,0.2,0.7l0,0l0.1,0.1l0.1,2.6c0,0.4,0,1-0.1,1.9l0,0c-0.2,0-0.4,0.1-0.8,0.1l0,0c-0.7,0-1.5-0.1-2.5-0.3l0,0
	c-1.1-0.2-1.9-0.2-2.5-0.2l0,0c-0.8,0-1.4,0.1-1.9,0.2s-1.1,0.3-1.7,0.5l0,0c-0.2,0.1-0.5,0.2-0.8,0.3c-0.3,0.1-0.7,0.2-1.2,0.3l0,0
	c-0.4,0-1.1,0.1-2,0.1s-1.6,0-2.2,0l0,0c-0.2,0-0.7,0-1.5,0s-1.6,0.1-2.2,0.2l0,0c-0.1,0-0.3,0-0.5,0.1c-0.3,0.1-0.4,0.2-0.4,0.3
	l0,0c0,0.2,0.1,0.4,0.1,0.7c0.1,0.3,0.1,0.5,0.1,0.7l0,0c0,0.1,0,0.2,0,0.3c0,0.1,0,0.1,0,0.2s0.1,0.1,0.2,0.1l0,0
	c0.1,0,0.3-0.1,0.8-0.3c0.5-0.2,0.8-0.3,1.2-0.4l0,0c1.1-0.1,2-0.1,2.5-0.1l0,0c1.4,0,2.5-0.1,3.4-0.2s1.8-0.5,2.6-1l0,0
	c1.4-0.3,2.5-0.4,3.1-0.3l0,0l1.8,0.2c0.4,0,1,0.1,1.6,0.1s1.3,0.1,2.1,0.2l0,0c0.1,0,0.2,0,0.2,0.1l0,0c0,0.4-0.3,1.3-0.9,2.8l0,0
	c-0.3,0.7-0.4,1.8-0.4,3.2l0,0c0,1.8,0.2,3.1,0.6,3.9l0,0c0,0.4,0.1,1,0.4,1.7l0,0c0.3,1,0.4,1.7,0.4,2l0,0c0,0.2,0,0.3,0.1,0.5
	c0.1,0.1,0.1,0.3,0.1,0.4l0,0v0.1c0,0.2-0.1,0.3-0.4,0.4l0,0c-0.7,0.4-1.1,0.6-1.4,0.6l0,0c-0.6,0.2-3.2,0.4-7.6,0.5l0,0
	c-1.4,0-2.1,0-2.2,0.1l0,0c-0.2,0.2-0.2,0.4-0.2,0.7l0,0c0,0.2,0,0.5,0.1,0.7l0,0l0.3,0.1c0.1,0,0.2,0,0.3-0.1
	c0.1,0,0.2-0.1,0.3-0.1l0,0c0.1,0,0.5,0,1.3,0s1.2-0.1,1.3-0.1l0,0c0.3,0,0.5,0,0.8,0.1c0.2,0,0.5,0.1,0.7,0.1l0,0
	c0.9,0,2.1-0.1,3.7-0.2l0,0c0.4,0,1,0,1.8-0.1l0,0c0.1-0.1,0.3-0.2,0.5-0.3s0.4-0.2,0.5-0.4l0,0c1.4-0.6,2.7-0.8,4-0.8l0,0
	c1.2,0,2.3,0.2,3.3,0.7l0,0c0.6,0.2,1.2,0.4,1.9,0.5l0,0c0.6,0.1,1,0.2,1.3,0.3l0,0c-0.2,0.5-1.2,1.1-3.1,1.7l0,0
	c-0.3,0.1-0.8,0.2-1.4,0.3l0,0c-0.9,0.2-1.6,0.4-2.1,0.6l0,0c-0.5,0.3-1,0.7-1.4,1.3s-0.7,0.9-0.8,1l0,0c-0.1,0.2-0.3,0.2-0.5,0.1
	l0,0l-0.3-0.1c-0.1,0-0.2,0-0.4,0.1c-0.1,0.1-0.3,0.1-0.4,0.1l0,0c-0.2,0.2-0.3,0.3-0.4,0.4l0,0c0.3,1.9,0.5,3.5,0.5,4.6l0,0
	c-0.1,0.2-1,0.3-2.7,0.3s-2.6,0-2.6,0l0,0c-1.6-0.8-3.2-1.2-4.6-1.2l0,0c-0.6,0-1.3,0.1-2.1,0.2l0,0l-1.6,0.4
	c-0.4,0.1-0.9,0.2-1.3,0.2c-0.5,0.1-1,0.1-1.5,0.1l0,0c-0.1,0-0.9,0-2.4,0.1s-2.6,0.2-3.4,0.4l0,0c-0.1,0.1-0.3,0.2-0.4,0.2l0,0
	c0,0.3,0,0.5,0.1,0.5l0,0l0.1,0.1v0.1c0,0.2,0.1,0.4,0.2,0.6l0,0c0,0.1,0,0.2,0.1,0.2c0.1,0.1,0.2,0.1,0.3,0.1l0,0
	c0.4-0.4,1.3-0.6,2.6-0.6l0,0c0.2,0,0.4,0,0.8-0.1c0.3,0,0.6-0.1,0.8-0.1l0,0c0,0,0.1-0.1,0.3-0.1l0,0c0.4,0,0.7,0,0.9,0.1l0,0
	c0.4,0.1,1.7-0.1,4-0.5l0,0c1.6-0.2,2.5-0.4,2.8-0.4l0,0c0.8,0,1.7,0.2,2.6,0.6l0,0c0.8,0.3,1.5,0.5,2,0.5l0,0
	c1.6,0.2,2.8,0.2,3.6,0.2l0,0c0.6,0,1.1,0,1.4,0.1l0,0l0.1,0.2l-0.1,1.6c-0.2,0.2-0.4,0.7-0.5,1.4s-0.2,1.5-0.2,2.4l0,0
	c0,1.6,0.2,2.7,0.6,3.2l0,0v0.2c0.5,1.4,0.8,2.3,1,2.8l0,0l-0.1,0.2c0,0.1,0.1,0.3,0.1,0.5c0.1,0.2,0.2,0.4,0.2,0.6l0,0
	c-0.2,0-0.4,0.1-0.7,0.1l0,0c-0.4,0-0.7-0.1-0.9-0.2c-0.2-0.1-0.5-0.3-0.8-0.6l0,0c-0.6-0.4-0.9-0.7-1-0.8l0,0c-0.1,0-0.2,0-0.4-0.1
	l0,0c-0.4,0-1.1,0-1.9,0.1l0,0c-0.9,0.1-1.7,0.2-2.6,0.2l0,0c-0.1,0.1-0.3,0.1-0.5,0.2c-0.2,0-0.4,0.1-0.5,0.1l0,0h0.2
	c0,0.2,0,0.4,0,0.5l0,0c0.1,0.1,0.2,0.3,0.2,0.5l0,0c0.1,0,0.2,0.2,0.3,0.4c0.1,0.3,0.3,0.4,0.4,0.4l0,0c0.1,0,0.2-0.1,0.3-0.2
	s0.2-0.1,0.4-0.2l0,0c1.1-0.3,2.1-0.4,2.9-0.4l0,0c0.4,0,0.6,0,0.7,0.1l0,0c0.3,0.2,0.6,0.4,0.8,0.6s0.4,0.4,0.6,0.5l0,0
	c0.3,0.2,1,0.5,2,0.7s1.7,0.3,2.1,0.2l0,0c0.1-0.1,0.2-0.4,0.3-1l0,0c-0.2-0.5-0.3-0.9-0.3-1.3l0,0c0-0.3,0-0.5,0.1-0.7l0,0
	c0.1-0.2,0.4-0.3,0.8-0.5l0,0h2.6c0-0.1-0.1-0.7-0.4-1.9l0,0c0,0-0.1-0.3-0.1-0.8s-0.2-0.9-0.5-1.2l0,0c-0.2,0-0.3-0.2-0.3-0.6
	c-0.1-0.4-0.1-0.7-0.1-0.9l0,0c0-0.4,0.1-0.8,0.2-1.2c0.1-0.4,0.2-0.7,0.3-0.8l0,0c0.3-0.7,0.4-1.5,0.5-2.2s0.1-1.8,0.1-3.2l0,0
	c1.2-0.3,2.4-0.5,3.8-0.5l0,0c0.8,0,2.1,0.1,3.8,0.2l0,0l1.6,0.2c0.9,0.2,1.6,0.3,2.3,0.3l0,0c0.4,0,0.7,0,0.9-0.1l0,0
	c0.2,0,0.9-0.2,2.3-0.5c1.4-0.3,2.3-0.4,2.8-0.4l0,0c0.6,0,1.4,0.1,2.3,0.4l0,0c0.2,0,0.5,0.1,0.8,0.2c0.3,0.1,0.7,0.1,1.1,0.2l0,0
	c0.1,0,0.3,0,0.4-0.1c0.2,0,0.3,0,0.4,0l0,0l0.2-0.1l0.1-0.8c0-0.2,0-0.4-0.1-0.7l0,0l-0.2-0.1c-0.3,0-0.6,0-1.1-0.1
	c-0.4-0.1-0.7-0.1-0.9-0.2l0,0c-1-0.2-1.7-0.4-2.2-0.4l0,0c-0.6,0-1.3,0.1-2,0.3s-1.3,0.3-1.6,0.4l0,0c-1.5,0.3-2.6,0.5-3.2,0.5l0,0
	c-0.6,0-1.4-0.1-2.3-0.2l0,0c-0.2-0.1-0.9-0.2-2.2-0.4s-2.2-0.3-2.6-0.3l0,0c-0.6,0-1.2,0.1-1.9,0.2l0,0c-0.2,0-0.7,0-1.3,0.1
	s-1.1,0.1-1.4,0l0,0c-0.1-0.6-0.2-1.4-0.2-2.6l0,0c0.7-0.7,1.2-1.1,1.6-1.3c0.4-0.2,0.9-0.3,1.5-0.4l0,0c0.8-0.1,1.5-0.2,2-0.4l0,0
	c0.4-0.2,1.5-0.8,3.1-1.8s2.5-1.7,2.7-1.9l0,0c0.1-0.2,0.5-0.5,1-0.9l0,0c0.6-0.4,1-0.8,1.2-1c0.3-0.3,0.3-0.5,0.3-0.8l0,0
	c0-0.1-0.2-0.3-0.6-0.4s-0.6-0.3-0.8-0.3l0,0c-0.2-0.1-0.3-0.2-0.5-0.4c-0.2-0.1-0.4-0.2-0.5-0.4l0,0c-0.3,0-0.6,0-0.7-0.1
	c-0.1-0.1-0.3-0.1-0.5-0.2l0,0c-0.5,0-0.9,0-1,0.1c-0.2,0.1-0.3,0.2-0.5,0.5s-0.4,0.5-0.7,0.7l0,0c-0.7,0-1.3,0-1.7,0.1
	c-0.4,0-0.8,0.1-1.1,0.1l0,0c-0.4,0-0.9-0.1-1.4-0.2c-0.5-0.1-1.1-0.4-1.9-0.9l0,0c-0.2-0.1-0.5-0.2-0.9-0.2s-0.7-0.2-0.8-0.2l0,0
	c0.1-0.3,0.1-0.7-0.1-1.3c-0.1-0.6-0.3-1.2-0.5-1.9l0,0c-0.4-1.3-0.7-2.3-0.7-3l0,0c0-1.5,0-2.3,0.1-2.5l0,0c0-0.1,0.1-0.3,0.3-0.6
	c0.2-0.3,0.2-0.6,0.2-0.8l0,0c0-0.2,0.1-0.5,0.2-0.8c0.1-0.4,0.2-0.6,0.3-0.8l0,0c0.3-0.1,1.4,0.6,3.1,2.1s3,2.6,3.7,3.3l0,0
	c0.6,0.6,1.2,1.3,1.7,2l0,0c1,1.2,1.7,2,2,2.3l0,0c0.2,0.2,0.9,0.5,2,0.8s2.1,0.6,3.1,0.8l0,0l1.2,0.3c0.8,0.2,1.9,0.6,3.1,1
	c1.2,0.5,2,0.8,2.4,1.1l0,0l0.3,0.1c0.2,0,0.3-0.1,0.4-0.3c0.1-0.2,0.2-0.4,0.3-0.6l0,0c0.1-0.1,0.2-0.2,0.1-0.3l0,0
	c-0.2-0.5-1.1-0.9-2.5-1.2l0,0l-1.1-0.4l-0.3-0.2c-0.2-0.2-0.6-0.4-1.3-0.6s-1.2-0.4-1.7-0.5s-0.8-0.2-1-0.2l0,0
	c-2.3-0.5-3.7-0.9-4.1-1.3l0,0c-0.5-0.5-0.9-0.9-1.1-1.4l0,0c-0.7-0.8-1.1-1.2-1-1.2l0,0c0,0-1-1-2.9-2.8l0,0
	c-1.1-1-1.9-1.7-2.5-2.2l0,0c-0.5-0.5-1.2-1.1-2.2-1.7l0,0c-0.1-0.1-0.4-0.2-0.8-0.5c-0.4-0.2-0.6-0.5-0.6-0.9l0,0
	c0-0.2,0.1-0.4,0.3-0.6l0,0c1.7-0.6,3.3-0.8,5-0.8l0,0c1.3,0,2.3,0.2,3.2,0.5l0,0c0.5,0.2,1,0.4,1.6,0.5l0,0c1,0.2,2.2,0.4,3.7,0.5
	l0,0c0.4,0.1,1,0.2,1.9,0.2l0,0c0.6,0.1,1.4,0.1,2.5,0.1l0,0c1.5,0,2.6,0.1,3.5,0.2l0,0c0.1-0.2,0.2-0.3,0.4-0.3
	c0.1-0.1,0.3-0.1,0.4-0.1l0,0C244.6,21.3,244.7,20.9,244.7,20.2z M211.7,21.7L211.7,21.7l-0.2,0.1c-0.1,0.1-0.3,0.1-0.5,0.1l0,0v0.2
	c-0.1,0.1-0.2,0.3-0.2,0.4c-0.1,0.2-0.2,0.3-0.2,0.4l0,0c0,0-0.3,0.2-1,0.8l0,0c-1,0.7-1.7,1.4-2.1,2l0,0c-1,1.4-1.7,2.4-2.4,3
	s-1.3,1.2-1.9,1.6c-0.6,0.4-1.7,1-3.1,1.7l0,0l-1.1,0.6c-1.9,1-3.6,2.2-5.1,3.7l0,0c-0.2,0.2-0.3,0.4-0.5,0.6s-0.2,0.4-0.2,0.6l0,0
	c0,0.1,0.1,0.3,0.2,0.4c0.1,0.1,0.2,0.2,0.4,0.2l0,0c0.4,0.2,0.8,0.6,1.3,1.1l0,0c0.2,0.2,0.5,0.4,0.7,0.4l0,0
	c0.3,0,0.7-0.2,1.2-0.7s0.8-0.8,1-0.8l0,0c0.3-0.4,0.8-0.7,1.5-1s1.6-0.7,2.7-1.1l0,0c1.2-0.5,1.9-0.7,2-0.8l0,0c1-0.5,2-1.2,3-2
	l0,0c1.2-1.1,2.4-2.3,3.4-3.7l0,0c0.1-0.2,0.3-0.5,0.5-0.9s0.5-0.8,0.9-1l0,0c0.6-0.3,1.3-0.8,2.2-1.4c0.8-0.7,1.3-1.3,1.3-1.7l0,0
	c0-0.3-0.1-0.6-0.4-0.9c-0.2-0.3-0.4-0.4-0.4-0.5l0,0c-0.1,0-0.3-0.1-0.6-0.1c-0.3-0.1-0.5-0.1-0.7-0.2l0,0
	C212.5,22.2,212,21.9,211.7,21.7z"/>
<path d="M307.3,33.1L307.3,33.1c-0.5,0-1-0.1-1.3-0.4c-0.4-0.3-0.8-0.7-1.2-1.2l0,0c-0.8-0.9-1.6-1.5-2.2-1.7l0,0
	c-0.9-0.3-2.1-0.5-3.5-0.5l0,0c-1.4,0-3.1-0.4-5-1.1l0,0c-0.1,0-0.4-0.2-1.1-0.4c-0.6-0.2-1-0.4-1.1-0.5l0,0L292,27
	c0.5-0.3,1-0.6,1.4-1s0.9-1,1.4-1.7l0,0c0.6-0.8,1.1-1.5,1.6-2s1.2-0.8,2-1l0,0l0.2-0.2l0.7-0.2c0.2,0.1,0.9-0.5,2-1.6l0,0
	c0.5-0.6,0.8-0.8,0.9-0.8l0,0c0.1,0,0.7,0.1,1.9,0.2l0,0c0.1-0.3,0.2-0.5,0.3-0.8c0.1-0.3,0.1-0.5,0.1-0.8l0,0
	c0-0.2-0.2-0.4-0.4-0.4c-0.2,0-0.4-0.1-0.7,0s-0.4,0-0.5,0l0,0c-0.5,0-1.3,0-2.5-0.1l0,0c-0.7-0.1-1.3-0.1-1.6-0.1l0,0
	c-0.1,0-0.3,0-0.4-0.1c-0.2-0.1-0.3-0.1-0.5,0l0,0c0,0-0.1,0.1-0.2,0.1l0,0c-0.4,0-0.9-0.1-1.3-0.3l0,0c-0.6-0.6-1.4-0.9-2.6-0.9
	l0,0c-1.2,0-3,0.4-5.5,1.1l0,0c-1.7,0.5-2.9,0.8-3.4,0.8l0,0c-0.3,0-0.6-0.1-0.7-0.2l0,0c0.1-0.1,0.2-0.2,0.3-0.4
	c0.1-0.2,0.3-0.3,0.4-0.3l0,0c0-0.1,0.2-0.4,0.5-0.8l0,0c0.2-0.2,0.4-0.6,0.8-1s0.7-0.8,0.9-1.1c0.2-0.4,0.3-0.7,0.1-1l0,0
	c-0.2-0.3-0.5-0.5-0.8-0.6s-0.8-0.3-1.5-0.4l0,0c-0.7-0.1-1.2-0.3-1.4-0.5l0,0c-0.1-0.1-0.2-0.1-0.4-0.1l0,0c-0.3,0-0.5,0.1-0.6,0.2
	c-0.1,0.1-0.2,0.3-0.4,0.6c-0.1,0.3-0.2,0.5-0.4,0.6l0,0c-0.2,0.2-0.8,0.6-1.6,1.3c-0.8,0.7-1.5,1.4-2,2.1l0,0
	c-0.4,0.5-0.7,1.3-1,2.5l0,0c-0.2,0.6-0.3,1.2-0.5,1.6s-0.4,0.8-0.7,1.2l0,0c-0.8,1-1.4,1.5-1.7,1.6l0,0c-0.5,0.4-0.8,0.6-1,0.7l0,0
	c0-0.1,0-0.2,0-0.5s-0.1-0.4-0.3-0.4l0,0l-0.1-0.2c0-0.1,0-0.3,0.1-0.6c0-0.3,0.1-0.6,0.1-0.9l0,0c0-0.4-0.1-0.6-0.2-0.6l0,0
	c-0.3-0.2-1-0.3-1.9-0.3l0,0c-0.6,0-1.1,0.1-1.6,0.2c-0.4,0.1-0.7,0.4-0.7,0.7l0,0c0,0.3,0,0.7,0.1,1c0,0.4,0.1,0.7,0.1,1l0,0
	c0,0.3,0,0.6-0.1,0.7l0,0l-0.1,1l0.2,1.5c0.2,1.3,0.3,2.5,0.3,3.7l0,0c0,1.1,0,1.9-0.1,2.4l0,0l-0.1,2.5c0,0.9-0.2,2.2-0.5,3.8l0,0
	c-0.3,1.2-0.4,2.3-0.5,3.3l0,0c-0.1,1.6-0.2,2.5-0.2,2.7l0,0c0,0.6,0,1,0.1,1.2l0,0l0.4,1.2c0.4,1.4,0.7,2.2,0.7,2.6l0,0
	c-0.4-0.1-0.8-0.2-1.3-0.4s-0.8-0.4-1.1-0.7l0,0c0.1-0.7,0.1-1.6,0.1-2.8l0,0c0-1.7-0.1-2.9-0.2-3.5l0,0c-0.3-1.5-0.5-3-0.5-4.4l0,0
	c0-0.8,0.2-1.9,0.7-3.4l0,0c0.5-1.3,0.8-2.5,0.8-3.4l0,0c0-0.6-0.1-1.5-0.4-2.8l0,0c-0.2-1.1-0.4-2-0.4-2.5l0,0V23
	c0-0.2,0-0.5,0-0.9s0-0.8,0-1.3l0,0c0-0.4,0-0.7-0.1-1c0-0.3-0.1-0.5-0.1-0.7l0,0c-0.1-0.7-0.2-1.3-0.2-1.9l0,0c0-0.4,0-1,0.1-1.8
	l0,0l0.1-1.7c0-0.8,0-1.3-0.1-1.6l0,0c0-0.2-0.4-0.3-1-0.3l0,0l-1.4,0.1l-1.4-0.1c-0.6,0-0.9,0.1-1,0.2l0,0c-0.1,0-0.2,0.2-0.2,0.5
	l0,0c0.1,3.6,0.2,6.3,0.4,8.2l0,0c0,0.3,0.1,0.8,0.1,1.4l0,0l-0.1,2.7c0,0.7,0.1,1.4,0.2,2.2l0,0c0.1,0.3,0.2,0.8,0.4,1.4
	c0.2,0.7,0.2,1.2,0.2,1.7l0,0c0,0.7-0.2,1.8-0.6,3.2l0,0c-0.5,1.6-0.7,2.8-0.7,3.7l0,0c0,1.2,0.2,2.9,0.5,5.1l0,0
	c0.1,0.7,0.1,1.3,0.1,1.7l0,0l-0.1,1.7c0,0.4-0.1,1-0.1,1.7l0,0c0,0.2,0,0.5,0.1,0.8s0.1,0.6,0.1,0.8l0,0c-0.2,0.1-0.5,0.2-1,0.4
	s-0.9,0.3-1.3,0.3l0,0c-0.2,0.1-0.3,0.2-0.4,0.2c-0.1,0.1-0.2,0.1-0.2,0.2l0,0c-0.1-0.2-0.1-0.5-0.1-1l0,0c0-0.4,0.1-1,0.2-1.8l0,0
	c0.2-0.8,0.2-1.4,0.2-1.7l0,0c0-0.4-0.1-0.8-0.2-1.4c-0.1-0.6-0.3-1-0.3-1.4l0,0c0-0.5,0-0.8-0.1-0.9l0,0c-0.1-0.3-0.1-0.8-0.1-1.6
	l0,0c0-0.2,0-0.5-0.1-0.6c0-0.2-0.1-0.3-0.1-0.5l0,0c0-0.3-0.1-0.7-0.1-1.2l0,0c0-0.6,0-1.2,0.1-1.9s0.1-1.2,0.2-1.5l0,0
	c0-0.4,0-0.9-0.1-1.4c-0.1-0.6-0.2-1-0.2-1.4l0,0L258,28l-0.1-1.3c-0.2-1.6-0.2-2.8-0.1-3.8l0,0c0.2-1.6,0.3-2.5,0.2-2.8l0,0
	c-0.2-0.2-0.5-0.4-0.9-0.5s-0.8-0.1-1.2-0.1c-0.4,0-0.7,0-0.9,0l0,0c-0.4-0.2-0.7-0.2-1-0.2l0,0c-0.4,0-0.5,0.2-0.5,0.6l0,0
	c0,0.2,0.1,0.5,0.1,1c0.1,0.5,0.2,1,0.2,1.3l0,0c0,0.2,0,0.6-0.1,1s-0.1,0.7-0.1,0.7l0,0c-0.1,0.1-0.1,0.2-0.1,0.4l0,0
	c0,0.2,0.1,0.7,0.2,1.3c0.1,0.6,0.2,1.2,0.2,1.8l0,0c0,0.6,0.1,1.5,0.2,2.7l0,0c0,0.3,0.1,0.7,0.1,1.3c0,0.6,0.1,1.1,0.1,1.5l0,0
	c0,0.7-0.1,1.4-0.3,2.2l0,0c-0.2,1.4-0.3,2.4-0.2,3.1l0,0c0,0.3,0.1,0.6,0.2,1c0.1,0.3,0.1,0.7,0.1,1l0,0c0,0.2,0.2,0.7,0.5,1.5l0,0
	c0.4,1.2,0.7,2.2,0.7,3.1l0,0c0,0.2,0,0.8-0.1,1.6l0,0c-0.1,0.7-0.2,1.1-0.4,1.3l0,0c0,0.1-0.1,0.2-0.1,0.4l0,0
	c-0.1,0.2-0.2,0.6-0.3,1.4c-0.1,0.8-0.2,1.4-0.2,2l0,0c0,0.4,0,0.7,0.1,0.8l0,0c0,0.1,0,0.3-0.1,0.4c0,0.2-0.1,0.3-0.1,0.5l0,0
	c0,0.2,0.1,0.4,0.2,0.4l0,0c0.1,0,0.3,0.1,0.5,0.1l0,0c0.3,0,0.6,0,0.8-0.1s0.5-0.1,0.8-0.1l0,0h0.7c1.1,0,1.5-0.4,1.2-1.1l0,0v-1
	l1.4-0.2c0.2,0,1-0.3,2.2-0.8c1.2-0.5,1.9-0.8,2-0.9l0,0c0.2-0.1,0.5-0.1,0.7-0.1l0,0c0.3,0,0.5,0.1,0.6,0.2l0,0
	c0.5,0,1.1,0.2,1.8,0.5l0,0c0.2,0.1,0.6,0.3,1.2,0.4l0,0c0.1-0.1,0.2-0.1,0.4,0l0,0c0.1,0.2,0.1,0.6,0.2,1.1s0.1,0.9,0.1,1.1l0,0
	c0.2,0.2,0.8,0.3,1.7,0.3l0,0c0.5,0,1,0,1.5-0.1s0.8-0.2,0.9-0.3l0,0c0.1-0.2,0.1-0.3,0.1-0.4l0,0c0-0.1,0-0.3-0.1-0.4
	s-0.1-0.3-0.1-0.5l0,0l0.1-0.2l0.2-0.2c0.1-0.2,0.1-0.5,0.1-1l0,0c0-0.6-0.1-1.2-0.3-1.9s-0.3-1.1-0.4-1.3l0,0
	c-0.4-1.4-0.6-2.3-0.6-2.9l0,0c0-1.6,0.2-3.1,0.6-4.4l0,0c0-0.2,0.1-0.5,0.3-1s0.2-0.9,0.3-1.2l0,0l0.2-2.1c0.1,0,0.2,0.1,0.2,0.2
	l0,0c0.1,0.1,0.2,0.2,0.4,0.2l0,0c0.2,0,0.4,0.1,0.7,0.4s0.5,0.4,0.7,0.5l0,0c0.3,0,0.7-0.2,1.1-0.5l0,0c0.6-0.4,0.9-0.6,1-0.7l0,0
	c0.8-0.6,1.4-1,1.6-1.2l0,0c0.5-0.5,1.3-1.2,2.5-2.1l0,0c0.8-0.6,1.6-1,2.2-1.3s1.4-0.6,2.3-0.8l0,0c1.4-0.4,2.5-0.9,3.4-1.4l0,0
	c0.1,0,0.2-0.1,0.2-0.1c0.1,0,0.1,0,0.2,0s0.1,0.1,0.2,0.2l0,0c0.7,0.7,2.1,1.3,4.1,1.9l0,0c0.8,0.2,2.1,0.4,3.9,0.5l0,0
	c1.8,0.1,3.1,0.3,3.7,0.5l0,0c0.6,0.3,1.1,0.7,1.5,1.3s0.6,0.9,0.8,1l0,0c0.4,0.2,0.7,0.3,0.7,0.4l0,0c0,0.1,0.3,0.3,0.8,0.5
	s0.9,0.3,1.3,0.3l0,0c0.1,0.2,0.2,0.3,0.4,0.2c0.1-0.1,0.2-0.3,0.2-0.7l0,0C307.9,33.9,307.7,33.5,307.3,33.1z M282.2,19L282.2,19
	l0.1-0.2c0.7,0,1.3,0,1.7,0c0.5,0,0.9,0,1.2,0l0,0h1.5c0.2,0,0.4-0.1,0.7-0.2s0.4-0.2,0.5-0.3l0,0c0.1,0,0.3-0.1,0.6-0.3
	c0.3-0.1,0.5-0.2,0.8-0.3l0,0c0.2,0,0.8-0.2,1.8-0.4c1-0.2,1.8-0.3,2.6-0.3l0,0c0.9,0,1.6,0.2,2,0.6l0,0l-0.1,0.1
	c-1,0.4-1.9,1-2.5,1.6s-1.3,1.5-2.1,2.5l0,0c-0.5,0.7-1,1.3-1.4,1.7c-0.4,0.4-0.8,0.7-1.4,0.9l0,0h-0.1c-0.6-0.2-1.3-0.5-2-0.8
	s-1.3-0.7-1.8-1l0,0c-0.2-0.2-0.6-0.4-1.2-0.6l0,0c-0.8-0.2-1.3-0.6-1.7-1l0,0c0.1-0.4,0.2-0.7,0.4-1.1S282.1,19.4,282.2,19z
	 M280.6,22.6L280.6,22.6c0.1,0,1.1,0.5,3,1.5s3,1.5,3.2,1.6l0,0c-0.2,0.2-0.4,0.3-0.8,0.4s-0.6,0.3-0.7,0.4l0,0
	c-0.4,0.1-0.9,0.3-1.6,0.6c-0.7,0.3-1.4,0.6-2,0.8l0,0c-0.1,0.1-0.2,0.2-0.4,0.2l0,0c-1.5,0.9-2.7,1.7-3.5,2.6l0,0
	c-0.2,0.2-0.6,0.6-1.2,1.2c-0.6,0.6-1,1-1.4,1.2l0,0l-0.1,0.1c-0.6,0.4-1,0.6-1.2,0.7l0,0l-0.1,0.1c-0.1,0-0.2-0.3-0.2-0.8l0,0v-1.4
	c0.1-1,0.1-2,0-2.9l0,0c0-0.4-0.1-1-0.2-1.8s-0.1-1.6-0.1-2.3l0,0c0,0,0-0.1,0-0.2s0.1-0.2,0.2-0.2l0,0l0.2,0.1
	c0,0.2,0.3,0.3,0.7,0.3l0,0c0.2,0.1,0.4,0.3,0.6,0.5c0.3,0.2,0.5,0.4,0.8,0.5l0,0c0.4,0.2,1.2-0.1,2.2-0.9S279.8,23.3,280.6,22.6z
	 M288,31.4L288,31.4c-0.1,0.2-0.3,0.3-0.4,0.4l0,0c-0.1,0-0.3-0.1-0.4-0.1l0,0c-0.2,0-0.3,0.1-0.4,0.2s-0.1,0.2-0.2,0.4
	c0,0.1-0.1,0.2-0.1,0.4l0,0c0.1,0.1,0.1,0.4,0.1,1l0,0c0,0.1,0.1,0.3,0.2,0.7l0,0c0.2,0.4,0.3,0.9,0.3,1.3c0.1,0.4,0.1,0.8,0.1,1
	c0,0.3,0,0.6,0,0.8l0,0c-0.4,0-1.4,0-3,0.1l0,0c-1.1,0.1-1.9,0.1-2.3,0.1l0,0c-0.4,0-0.7,0-0.9,0.1l0,0c-0.1,0-0.4,0.1-0.8,0.1l0,0
	c-0.7,0-1.2,0-1.3-0.1l0,0l-0.7-0.1c-0.1,0-0.2,0-0.4-0.1c-0.2-0.1-0.2-0.1-0.2,0l0,0c-0.2,0.3-0.3,0.7-0.3,1.1c0,0.5,0,0.8,0,0.9
	l0,0c-0.2,0.1-0.2,0.2,0,0.3l0,0h0.1c0.2,0,0.4,0,0.7-0.1c0.3-0.1,0.5-0.1,0.7-0.1l0,0c0.2,0.1,0.6,0.1,1.1,0s0.9-0.1,1-0.2l0,0
	c0.3,0,0.6-0.1,0.8-0.1c0.3,0,0.6-0.1,0.8-0.1l0,0c0.4,0,0.9,0,1.3,0.1c0.4,0,0.8,0.1,1.2,0.1l0,0c0.3,0,0.7,0,1.3-0.1l0,0
	c0,0,0.1,0,0.3-0.1c0.2-0.1,0.3,0,0.4,0.1l0,0c0.1,0.1,0.1,0.4,0.2,0.9s0.1,1,0.1,1.3l0,0c0,0.2,0.1,0.7,0.2,1.4s0.1,1.2,0.1,1.4
	l0,0c-0.2,0.1-0.3,0.1-0.4,0.2c-0.1,0-0.2,0-0.3,0l0,0c-0.1,0-1.5,0-4.2,0.1s-4.2,0-4.4,0l0,0c-0.2,0-0.5-0.2-0.8-0.4l0,0
	c0,0.1-0.1,0.2-0.3,0.2l0,0c-0.1,0-0.2,0.1-0.2,0.4l0,0c0,0.3,0,0.6-0.1,1s-0.1,0.6-0.1,1l0,0c0.1,0,0.2-0.1,0.3-0.2
	c0.1-0.1,0.3-0.2,0.4-0.2l0,0h0.4c0.2,0,0.4,0,0.8,0.1c0.3,0.1,0.5,0.1,0.8,0l0,0c0.4,0,0.9-0.1,1.4-0.1c0.6,0,1.2-0.1,2-0.1l0,0
	c0.7,0,1.2,0,1.5,0.1l0,0c0.2,0,0.5,0,1,0.1s0.8,0.1,0.9,0.1l0,0l1.1-0.2c0,0.3-0.1,0.7-0.3,1.2s-0.3,1-0.4,1.6l0,0l-0.4,1.4
	c-0.1,0.7-0.2,1.1-0.4,1.3l0,0c-0.4,0.1-1,0.3-1.8,0.5s-1.3,0.3-1.5,0.3l0,0c-0.5-0.1-0.9-0.1-1.3-0.1l0,0c-1,0-2.2,0.1-3.5,0.3l0,0
	c-1.6,0.2-2.6,0.2-2.9,0.1l0,0l-0.2,0.1l-0.1,0.8c0,0.6,0.1,1,0.4,1l0,0c0,0,0.1-0.1,0.2-0.2s0.2-0.1,0.4-0.1l0,0
	c0.6,0,1.6,0,2.9-0.1l0,0c0.9-0.1,1.6-0.1,2.1-0.1l0,0c0.3,0,0.6,0,0.9,0.1s0.6,0.1,0.9,0.1l0,0c0.3,0,1.4-0.1,3.4-0.4l0,0
	c0.2,0.2,0.3,0.5,0.3,0.8s0.1,0.6,0.1,0.6l0,0c0.3,1.9,0.5,3.4,0.6,4.6s0.1,2.8,0.1,4.9l0,0c0,0.2,0,0.3,0.1,0.3l0,0
	c0.1,0.1,0.3,0.2,0.5,0.3c0.3,0.1,0.4,0.1,0.5,0.1l0,0c0.2-0.2,0.5-0.3,0.9-0.3s0.7-0.1,0.9-0.3l0,0c0.1-0.1,0.2-0.2,0.3-0.2l0,0
	c0.2,0,0.4,0.1,0.6,0.2s0.5,0.2,0.6,0.2l0,0l0.2-0.1c0.2-0.5,0.3-1.1,0.3-1.9l0,0c0-1.3-0.2-3.4-0.7-6.2l0,0
	c-0.3-2.2-0.5-3.4-0.5-3.8l0,0c0-0.2,0-0.4,0.1-0.6l0,0c1.3-0.4,2.3-0.5,3.2-0.5l0,0c1,0,1.8,0.2,2.3,0.6l0,0c0.5,0.4,1,0.6,1.5,0.8
	l0,0c0.4,0.1,1.2,0.1,2.5,0.1l0,0c0.4,0,0.9,0,1.5,0s0.9,0,1.1,0l0,0l3.2,0.3c0.2,0,0.2,0,0.2-0.1l0,0V53c0-0.6,0-1-0.1-1.2l0,0
	c-0.6-0.2-1.5-0.3-2.7-0.3l0,0l-2.4,0.1c-0.5,0-1.1,0.1-1.9,0.1l0,0c-0.7,0-1.2,0-1.4-0.1l0,0c-0.6-0.2-1.1-0.4-1.5-0.8l0,0
	c-0.3-0.2-0.7-0.4-1-0.5c-0.4-0.1-1-0.2-1.9-0.2l0,0H293c-1,0-1.6,0.1-1.7,0.2l0,0c-0.2,0-0.2,0-0.2-0.1l0,0c0-0.2,0.1-0.5,0.3-0.9
	s0.3-0.6,0.3-0.8l0,0c0.2-0.6,0.4-1.4,0.4-2.4l0,0c0-0.7,0.1-1.3,0.2-1.7l0,0l1.1-0.5c0,0,0.2-0.1,0.4-0.1l0,0c0.5,0,0.9,0,1.1,0.1
	l0,0c1.9,0.4,3.5,0.6,4.9,0.9c1.4,0.2,2.6,0.3,3.7,0.1l0,0c0.1-0.6,0.1-1.3,0-1.9l0,0c-0.1,0-0.4-0.1-1-0.1l0,0l-2.6,0.1
	c-0.8,0-1.8-0.1-3.2-0.5l0,0c-0.2,0-0.5-0.1-1.1-0.3s-1.2-0.2-1.7-0.2l0,0c-0.2,0-0.6,0.1-1,0.2c-0.4,0.1-0.7,0.2-0.9,0.2l0,0
	c0-0.2-0.1-0.6-0.2-1.1l0,0c-0.1-0.5-0.2-1.1-0.2-1.9s0-1.2,0-1.3l0,0c0.1-0.1,0.6-0.2,1.6-0.3s1.6-0.1,2.2-0.1l0,0
	c1,0.5,1.9,0.8,2.5,1s1.3,0.3,2.1,0.3l0,0c0.6,0,1.1,0,1.4-0.1l0,0c0.4,0,0.8,0,1.2,0s0.8,0,1,0l0,0c0-0.2,0.1-0.4,0.1-0.8l0,0
	c0-0.5,0-0.8-0.1-1l0,0c-0.3-0.1-0.7-0.1-1.2-0.1s-0.8,0-0.9,0l0,0c-0.2,0.1-0.5,0.1-0.8,0.2c-0.4,0-0.6,0.1-0.7,0.1l0,0
	c-0.8,0-1.4,0-1.8-0.2c-0.5-0.1-1-0.3-1.5-0.6l0,0c-0.6-0.4-1.3-0.7-1.9-0.7l0,0c-0.4,0-1.5,0.1-3.1,0.3l0,0c0-2.5-0.2-3.9-0.5-4
	l0,0c-0.2-0.1-0.3-0.2-0.5-0.3c-0.2-0.1-0.4-0.2-0.7-0.2l0,0h-1c-0.3,0-0.5,0-0.6-0.1l0,0C288.4,31.5,288.2,31.4,288,31.4z"/>
<path d="M366.5,64.2L366.5,64.2c0-0.1-0.1-0.3-0.2-0.5s-0.3-0.4-0.5-0.5l0,0c-0.4-0.3-0.9-0.9-1.8-1.6c-0.8-0.8-1.3-1.2-1.4-1.2l0,0
	c-0.2-0.1-0.7-0.3-1.4-0.5c-0.7-0.3-1.4-0.5-1.9-0.8s-1-0.6-1.3-1l0,0c-0.2-0.2-0.8-1-1.6-2.2l0,0c-0.1-0.2-0.3-0.5-0.6-0.9
	c-0.3-0.4-0.5-0.7-0.7-0.9l0,0c-0.1,0-0.2-0.2-0.3-0.4c-0.1-0.2-0.1-0.3-0.1-0.4l0,0l0.8-1.6c0.7-1.4,1.2-2.4,1.4-3l0,0
	c0.1-0.2,0.2-0.7,0.5-1.4c0.2-0.7,0.5-1.3,0.9-1.8l0,0c0.3-0.4,0.8-1,1.5-1.7l0,0c0.6-0.6,1-1.1,1.3-1.4l0,0c0.4-0.6,0.7-1,0.8-1.3
	l0,0c0.6-1,1.2-1.7,1.6-2.1l0,0c0.2-0.2,0.4-0.4,0.4-0.6l0,0l0.1-0.2c0-0.1-0.1-0.2-0.1-0.3c-0.1-0.1-0.2-0.2-0.2-0.2l0,0
	c-0.1-0.1-0.2-0.3-0.2-0.6s-0.1-0.4-0.3-0.5l0,0c-0.6-0.3-1.7-0.6-3.3-0.7l0,0l-1.3-0.2c-1-0.8-2-1.2-3.1-1.2l0,0
	c-0.5,0-1.1,0.1-1.6,0.3c-0.6,0.2-1.1,0.4-1.6,0.6l0,0c-1.4,0.6-2.4,0.8-3.2,0.8l0,0c-0.4,0-0.8-0.1-1.3-0.2l0,0
	c-0.1-0.7-0.2-1.4-0.2-2l0,0c0-2.1,0.6-4.3,1.7-6.5l0,0c0.2-0.3,0.2-0.8,0.2-1.6l0,0c0-0.6-0.1-1.2-0.2-1.9
	c-0.1-0.7-0.2-1.2-0.3-1.6l0,0c-0.1-0.3-0.1-0.6-0.1-1s0-0.7-0.1-1l0,0l1.1-0.5c0.6-0.2,1-0.4,1.4-0.5c0.3-0.1,0.9-0.1,1.8-0.1l0,0
	c0.3,0.1,0.8,0.3,1.6,0.7c0.8,0.3,1.5,0.6,2.2,0.8c0.7,0.2,1.3,0.3,2,0.4l0,0c0,0.1-0.2,0.3-0.6,0.7c-0.4,0.4-0.7,0.6-0.8,0.7l0,0
	c-1,1-1.8,2.2-2.5,3.5l0,0c-0.1,0.2-0.2,0.4-0.3,0.7s-0.3,0.6-0.4,0.8l0,0v0.1c-0.1,0.1-0.2,0.3-0.3,0.6c-0.1,0.3-0.1,0.5-0.1,0.7
	l0,0c0.1,0.2,0.4,0.3,0.7,0.4c0.4,0.1,0.6,0.2,0.7,0.2l0,0c0.5,0.7,1,1,1.3,1l0,0c0.3,0,0.6-0.2,0.8-0.5c0.2-0.4,0.4-0.9,0.7-1.5
	l0,0c0.4-1,0.7-1.5,1-1.7l0,0c0.3-0.2,0.9-0.5,1.6-1s1.1-0.7,1.1-0.8l0,0c0.2-0.3,0.5-0.8,0.9-1.3s0.7-1.1,0.9-1.6l0,0
	c0,0,0.1-0.1,0.2-0.2l0,0c0-0.1,0.1-0.2,0.2-0.3c0.1-0.1,0.1,0,0.1,0.1l0,0c0-0.1,0.1-0.2,0.1-0.3c0.1-0.1,0.1-0.1,0.1-0.1l0,0
	c-0.2-0.7-0.6-1.1-1.1-1.4c-0.5-0.2-1.3-0.4-2.2-0.5l0,0c-0.1,0-0.4-0.1-0.7-0.3c-0.4-0.2-0.6-0.3-0.8-0.4l0,0c-0.1,0-0.2,0-0.3,0.1
	s-0.3,0.2-0.4,0.2l0,0c-0.5,0-1.2-0.1-2.1-0.2l0,0c-0.4-0.1-1-0.3-1.7-0.6l0,0c-0.9-0.4-1.6-0.6-2.1-0.6l0,0c-0.6,0-1.1,0-1.4,0.1
	s-0.8,0.3-1.3,0.5l0,0c-0.5,0.3-0.9,0.4-1.3,0.5l0,0V18c0.1-0.3,0.2-0.6,0.2-0.9l0,0c0-0.3,0-0.7-0.1-1.2c-0.1-0.5-0.1-0.9,0-1.2
	l0,0c0-0.1,0.1-0.2,0.1-0.4l0,0c-0.1-0.6-0.5-1-1.4-1.3c-0.8-0.3-1.6-0.4-2.3-0.3l0,0c-0.2,0-0.4,0.1-0.5,0.4
	c-0.2,0.2-0.2,0.4-0.2,0.4l0,0c-0.2,0.3-0.2,0.5-0.2,0.7l0,0c0,0.1,0.1,0.3,0.2,0.7l0,0l0.1,1.6c0,0.3,0.1,0.7,0.1,1.1
	s0.1,0.9,0.1,1.5l0,0c0,0.6,0,0.9-0.1,1.1l0,0c-0.8-0.2-1.7-0.3-2.8-0.3l0,0c-0.6,0-1.4,0-2.5,0.1l0,0c-1.2,0.1-2.1,0.1-2.6,0.1l0,0
	c0-0.2,0-0.3-0.1-0.4s-0.2-0.2-0.4-0.1l0,0l-0.7,0.1c-0.7,0-1.4-0.1-2.2-0.3c-0.8-0.2-1.3-0.3-1.5-0.4l0,0c-0.2,0-0.2,0-0.2,0.1
	s0.1,0.2,0.2,0.2l0,0c0.1,0.2,0.2,0.3,0.2,0.4l0,0c0.1,0.6,0.2,2.2,0.3,4.9c0.1,2.7,0.1,4.7,0.1,6l0,0c0,0.4-0.1,0.9-0.2,1.4l0,0
	c0,0.2,0,0.4-0.1,0.8s-0.1,0.7,0,0.9l0,0c0,0.3-0.1,0.6-0.1,1.1s-0.1,0.8-0.1,1l0,0c-0.2,1.9-0.3,3.1-0.3,3.7l0,0
	c0,0.4,0,0.8,0.1,1.2c0,0.4,0.1,0.9,0.1,1.4l0,0c0.3,2.9,0.4,5,0.4,6.4l0,0c0,2.7-0.3,4.6-1,5.6l0,0v0.1c-0.2,0.4-0.6,1.2-1.3,2.2
	l0,0c-0.8,1.4-1.6,2.8-2.4,4.3s-1.2,2.4-1.2,2.8l0,0c-0.2,0.3-0.3,0.6-0.3,1l0,0c0,0.1,0.1,0.2,0.1,0.2c0.1,0.1,0.1,0.2,0.2,0.2l0,0
	c0.1,0,0.2,0.1,0.4,0.2c0.1,0.1,0.2,0.2,0.3,0.2l0,0c0.1,0.1,0.2,0.1,0.2,0.1c0.1,0,0.1,0,0.2,0l0,0c0.4,0,0.7,0,0.9,0.1
	c0.3,0.1,0.5,0.3,0.8,0.4c0.2,0.2,0.4,0.3,0.5,0.4l0,0c0.3-0.2,0.5-0.4,0.7-0.6l0,0c0.1-0.3,0.2-0.6,0.2-0.7l0,0l0.1-0.2
	c0.3-0.9,0.6-1.8,1.1-2.5c0.4-0.8,1-1.7,1.7-2.8l0,0c1-1.7,1.8-3.1,2.3-4.3s0.8-2.6,0.8-4.3l0,0c0-1.3,0-3.2-0.1-5.6l0,0
	c-0.1-1.9-0.2-3.8-0.2-5.8l0,0c0-1.3,0.1-2.9,0.4-4.7l0,0l0.2-2c0-0.5,0-1.2-0.1-2.3l0,0l-0.1-1.5l-0.1-6.1c0-0.6,0-0.9,0.1-1l0,0
	c0.1-0.2,0.8-0.4,2.2-0.4l0,0c1.2,0,2.6,0.1,4.3,0.2l0,0l1.4,0.1c0.2,0.2,0.3,0.5,0.4,1.1s0.1,0.9,0.1,1l0,0c0,0.6,0,1.2-0.1,1.6
	s-0.2,1-0.4,1.7l0,0c-0.2,0.4-0.4,1.1-0.6,1.9l0,0c-0.2,1.2-0.4,2.7-0.4,4.6l0,0V36c-0.4,0.2-1.1,0.3-1.9,0.3l0,0h-1.1
	c-0.7,0-1.2,0-1.6,0.1l0,0l0.1,0.1c0,0,0,0.1-0.1,0.2l0,0c0.1,0.3,0.1,0.6,0.1,1s0,0.6,0,0.8l0,0l0.2,0.4c0,0,0.1,0,0.4-0.2
	c0.2-0.1,0.5-0.2,0.7-0.3l0,0c0.7-0.1,1.1-0.2,1.1-0.2l0,0c0.4,0,0.9,0,1.6-0.1l0,0c0.2,0,0.5,0,1-0.1s1,0,1.4,0l0,0
	c0.4,0,1,0.1,1.8,0.3s1.5,0.2,2,0.2l0,0c0.4,0,0.6,0,0.7-0.1l0,0c0.6-0.2,1.3-0.4,2.2-0.8l0,0c1.4-0.6,2.5-1,3.3-1l0,0
	c0.7,0,1.3,0.2,2,0.6l0,0c0.2,0.1,0.5,0.3,0.8,0.4c0.3,0.2,0.5,0.3,0.7,0.5l0,0c-0.3,0.5-1,1.5-2.2,2.9l0,0
	c-1.1,1.2-1.8,2.2-2.3,2.9l0,0c-0.5,0.7-0.9,1.5-1.2,2.5c-0.3,0.9-0.5,1.5-0.6,1.8l0,0c-0.3,0.8-0.6,1.6-1,2.6l0,0
	c-1.3-0.3-2.1-0.7-2.6-1c-0.5-0.4-0.9-0.9-1.3-1.5s-0.7-1.1-0.9-1.5l0,0c-0.1-0.2-0.3-0.7-0.7-1.4l0,0c-0.4-0.9-0.7-1.4-0.8-1.6l0,0
	c-0.4-1-1-2.1-1.8-3.3l0,0c-0.2-0.1-0.4-0.1-0.7-0.1c-0.2,0-0.4,0-0.5,0l0,0c0,0,0,0.1,0,0.3s-0.1,0.2-0.3,0.2l0,0
	c-0.1,0.1-0.2,0.2-0.2,0.2l0,0c-0.2,0-0.1,0,0.1,0.2l0,0c0.3,0.3,0.6,0.9,1.1,1.7l0,0c0.1,0.2,0.6,1.1,1.4,2.5l0,0
	c0.4,0.6,0.6,1.1,0.8,1.6l0,0c0.6,1.2,1.1,2.1,1.6,2.8s1,1.2,1.6,1.6l0,0c0.2,0.2,0.6,0.3,1.1,0.4c0.5,0.1,0.9,0.3,1.1,0.4l0,0
	c-0.6,1.1-1.4,1.9-2.4,2.6s-2.2,1.4-3.9,2.3l0,0c-1.9,1-3.3,1.8-4.1,2.5l0,0c-0.4,0.4-1,0.9-1.8,1.7l0,0c0,0-0.3,0.3-1,1l0,0
	c-0.2,0.2-0.6,0.5-1.1,0.9s-0.8,0.8-1,1.2l0,0c0.2,0.5,0.6,0.8,1,0.9s0.7,0.4,0.9,0.8l0,0v0.1c0,0.1,0.1,0.1,0.1,0.2l0,0
	c0.1,0.1,0.2,0.1,0.4,0.1l0,0c0.3,0,0.7-0.3,1.4-1l0,0l3.2-3.4c0.4-0.4,0.9-0.7,1.4-1c0.6-0.3,1.3-0.6,2.2-1l0,0
	c1.7-0.7,3.1-1.4,4.3-2.1c1.2-0.7,2.3-1.8,3.3-3.2l0,0c0.5,0.4,0.9,0.9,1.3,1.4c0.4,0.6,0.6,0.9,0.7,1l0,0c0.5,0.7,0.9,1.3,1.3,1.7
	s0.8,0.8,1.3,1.1l0,0c0.6,0.4,1.5,0.8,2.8,1.3l0,0c0.5,0.2,1.1,0.6,1.9,1.3c0.7,0.6,1.2,1.2,1.5,1.6l0,0c0.1,0.1,0.2,0.2,0.5,0.3
	c0.2,0.1,0.4,0.2,0.5,0.3l0,0c0,0.1,0.1,0.2,0.2,0.2l0,0c0.1-0.1,0.3-0.3,0.5-0.6S366.3,64.2,366.5,64.2z M314.9,16.1L314.9,16.1
	c-0.2,0.2-0.3,0.4-0.3,0.6s0,0.4,0,0.6l0,0v0.2c0,0.4,0.2,0.6,0.5,0.8c0.3,0.2,0.5,0.4,0.6,0.6l0,0c0.1,0.3,0.2,0.8,0.4,1.7
	c0.2,0.9,0.5,1.6,0.8,2.3c0.3,0.7,0.7,1.2,1.1,1.6l0,0c1,0.8,1.6,1.2,1.7,1.4l0,0c0.1,0,0.3,0.2,0.7,0.5s0.6,0.6,0.6,0.7l0,0
	c0.2,0.2,0.6,0.5,1,1s0.8,0.7,1,0.8l0,0c0.2,0,0.4-0.1,0.6-0.3c0.2-0.2,0.4-0.4,0.5-0.6l0,0c0.1-0.1,0.2-0.3,0.2-0.4l0,0
	c0.1-0.3,0.2-0.6,0.4-0.9c0.2-0.3,0.3-0.6,0.3-0.8l0,0c0-0.3-0.3-0.7-0.8-1.2l0,0c-0.4-0.4-1.2-1.2-2.2-2.2s-1.5-1.7-1.5-2l0,0
	c-0.2-0.5-0.3-0.9-0.4-1.3s-0.1-0.9-0.1-1.6l0,0c-0.3-0.7-0.5-1.3-0.8-1.7c-0.2-0.4-0.6-0.8-1-1.1l0,0c-0.2,0-0.5-0.1-0.7-0.1
	s-0.4,0-0.5,0l0,0c-0.7,0.3-1.3,0.7-2,1.3l0,0C315.1,16,315,16,314.9,16.1z M314.7,31L314.7,31c-0.1,0.3-0.3,0.5-0.8,0.8
	c-0.4,0.2-0.6,0.5-0.6,0.7l0,0c0,0.1,0.1,0.2,0.2,0.2c0.1,0.1,0.2,0.1,0.3,0.1l0,0c1,0.6,1.6,1.1,1.9,1.6l0,0
	c0.2,0.4,0.6,1.3,1.3,2.7l0,0l0.7,1.5c0.3,0.6,0.7,1,1.2,1.3s1.2,0.7,2.1,1.1l0,0c0.4,0.2,0.8,0.3,1.1,0.5s0.6,0.4,0.7,0.6l0,0
	l0.3,0.2l1.1,1.1c0.3,0.3,0.5,0.4,0.8,0.4l0,0c0.2,0,0.5-0.2,0.7-0.5s0.4-0.5,0.5-0.6l0,0c0.2-0.4,0.3-0.7,0.3-0.9l0,0
	c0.2-0.3,0.3-0.5,0.4-0.6s0.1-0.1,0.1-0.1l0,0c0,0,0-0.1-0.1-0.2c-0.1-0.1-0.1-0.3-0.2-0.5l0,0c-0.1-0.1-0.3-0.3-0.6-0.6
	c-0.3-0.3-0.5-0.5-0.9-0.8l0,0c-0.2-0.1-0.3-0.2-0.5-0.4s-0.4-0.3-0.6-0.4l0,0c-1.3-0.8-2.2-1.5-2.8-2.2l0,0
	c-0.2-0.2-0.4-0.6-0.5-1.1l0,0c-0.2-0.7-0.7-1.7-1.4-2.9c-0.7-1.2-1.4-1.9-1.9-2.2l0,0c-0.2-0.1-0.3-0.1-0.5-0.1l0,0
	c-0.4,0-0.9,0.2-1.5,0.5l0,0c0,0.1-0.2,0.3-0.4,0.4S314.8,30.9,314.7,31z M326.3,47.4L326.3,47.4c0.2-0.5,0.3-0.8,0.3-1.1l0,0
	c0-0.1-0.2-0.2-0.5-0.4s-0.6-0.3-0.8-0.4l0,0l-0.2,0.2c-0.6,1.2-1.2,3.3-1.7,6.1l0,0l-0.6,2.6c-0.2,0.6-0.5,1.2-1,1.7
	s-1.1,0.9-1.7,1.3s-1.1,0.7-1.4,0.9l0,0c-0.6,0.5-1.2,1-1.7,1.7c-0.5,0.6-1,1.4-1.5,2.3l0,0c-0.1,0.2-0.3,0.5-0.5,0.8
	c-0.2,0.4-0.4,0.7-0.5,1l0,0c0,0.1-0.1,0.2-0.1,0.4l0,0c0,0.3,0.1,0.6,0.4,0.8c0.3,0.2,0.5,0.3,0.6,0.3l0,0h0.2
	c0-0.1,0.1-0.3,0.1-0.5s0.1-0.4,0.2-0.4l0,0c0.3-0.7,0.9-1.7,1.8-2.9s1.6-2,2.2-2.3l0,0c1-0.7,1.8-1.3,2.4-1.9
	c0.6-0.6,1.2-1.2,1.7-2l0,0c0.4-0.6,0.8-2,1.1-4l0,0c0.3-1.3,0.5-2.2,0.6-2.8C325.8,48.1,326,47.7,326.3,47.4z"/>
<path d="M396.7,14.1L396.7,14.1l-0.2,0.2c0,0.6,0,1.4,0.1,2.5c0,1.1,0.1,2,0.1,2.6l0,0h0.1c0,0.1,0.1,0.3,0.1,0.6l0,0
	c0,0.3-0.1,0.8-0.2,1.6l0,0c-0.2,0.6-0.2,1.1-0.2,1.4l0,0c0,0.1-0.1,0.2-0.1,0.3s-0.1,0.2-0.1,0.3l0,0c-0.1,0.1-0.3,0.5-0.5,1.2
	s-0.3,1.1-0.4,1.3l0,0c0,0.3,0.1,1,0.4,2.2l0,0c0.4,1.8,0.5,3,0.5,3.6l0,0c0,0.4-0.1,0.7-0.2,1l0,0l-0.2,0.1
	c-0.1,0.3-0.3,0.3-0.7,0.2l0,0l-0.1,0.1l-0.2,0.1c-1.9-0.2-3.7-0.3-5.3-0.3l0,0c-1.4,0-2.3,0.1-2.8,0.2l0,0
	c-0.4,0.1-0.9,0.2-1.6,0.5l0,0c-1,0.4-1.8,0.6-2.3,0.7l0,0c-0.3,0-0.7,0-1.1,0.1c-0.5,0.1-0.8,0.1-1.1,0.2l0,0c-0.8,0-2,0-3.6,0.1
	s-2.5,0.1-2.7,0.2l0,0c0,0.1-0.1,0.3-0.1,0.5s0,0.3-0.1,0.4l0,0v0.1c0.1,0.1,0.1,0.2,0.1,0.2l0,0l-0.1,0.5c0,0.2,0.1,0.3,0.4,0.2
	l0,0l1.1-0.1l0.1-0.2c0.2-0.1,0.5-0.1,0.9-0.1s0.7,0,1,0l0,0c0.8-0.1,2-0.1,3.7-0.1l0,0c0.6,0,1.2,0,1.6-0.2
	c0.4-0.1,0.9-0.2,1.4-0.4s0.9-0.3,1.1-0.4l0,0c0.5-0.2,1.4-0.3,2.6-0.4l0,0c0.3,0,0.8,0,1.3-0.1l0,0c0,0.2,0,0.5-0.1,0.8
	s-0.1,0.6-0.1,0.8l0,0l-0.4,2.6c-0.4,2.1-0.6,3.7-0.7,4.9l0,0c0,0.4-0.1,1.1-0.1,2.1l0,0c0,1.6,0,2.9-0.1,3.9s-0.2,1.9-0.5,2.5l0,0
	c-0.4,0.8-1,1.6-1.9,2.3s-2,1.4-3.3,2.1l0,0l-1.3,0.8c-0.6,0.4-1.5,1.1-2.6,2.2l0,0c-0.5,0.5-0.8,0.9-0.9,1.1l0,0
	c-0.2,0.2-0.4,0.4-0.7,0.8c-0.3,0.4-0.5,0.6-0.7,0.8l0,0c-0.1,0-0.4,0.3-0.8,0.8c-0.5,0.5-0.7,0.8-0.7,0.9l0,0l-0.1,0.2
	c0,0.4,0,0.7,0.1,0.8c0.1,0.1,0.2,0.3,0.2,0.5l0,0l0,0l0,0l0,0c0.1,0,0.2-0.1,0.4-0.2c0.2-0.1,0.3-0.2,0.4-0.2l0,0
	c0.2,0,0.3-0.1,0.4-0.1s0.1,0,0.2,0.1s0.1,0.1,0.2,0.2l0,0c0.2,0.1,0.4,0.3,0.6,0.6c0.3,0.3,0.5,0.4,0.8,0.4l0,0
	c0.2,0,0.3-0.1,0.5-0.3l0,0v-0.1c-0.1-0.1,0.1-0.4,0.7-1s0.9-0.9,1-1l0,0c1.2-1.3,2.1-2.3,2.8-2.8s1.7-1.1,3-1.6l0,0
	c0.4,0,0.8-0.2,1.2-0.5c0.4-0.3,1-0.7,1.7-1.3l0,0c0.8-0.6,1.3-1,1.4-1.1l0,0c0.2,0,0.6-0.5,1.4-1.5l0,0c0.8-1,1.3-2.2,1.5-3.6
	c0.2-1.4,0.4-3.2,0.5-5.4l0,0c0.1-2.4,0.2-4.1,0.4-5.1l0,0l0.7-3.5c0-0.3,0.1-0.7,0.1-1.1c0-0.4,0.1-0.8,0.1-1.1l0,0
	c0.1,0,0.4-0.1,0.7-0.1l0,0c0.6,0,1.3,0,2.2,0.1c0.9,0.1,1.5,0.1,1.8,0.2l0,0c0.2,0.4,0.3,1.2,0.2,2.2l0,0c-0.1,1.6-0.2,2.7-0.2,3.4
	l0,0c0,0.6,0,1.1,0.1,1.3l0,0c0,0.2,0.1,0.7,0.3,1.5c0.2,0.8,0.2,1.6,0.2,2.4l0,0c0,0.5,0,1.2-0.1,2l0,0c-0.1,0.6-0.2,1.3-0.2,2l0,0
	c0,0.3,0,0.7,0.1,1.3l0,0c0,0.3,0.1,0.6,0.1,0.9c0,0.3,0.1,0.6,0.1,0.9l0,0c0.1,0.4,0.2,0.9,0.4,1.4s0.3,0.7,0.4,0.9l0,0
	c0.4,1,0.7,1.8,0.8,2.5l0,0c-0.2,0.6-0.4,1.7-0.5,3.1l0,0c0,0.1,0,0.2,0.1,0.5c0.1,0.2,0,0.4-0.1,0.4l0,0c-0.1,0.2-0.1,0.6-0.1,1.1
	l0,0c0,0.6,0.1,1,0.3,1l0,0c0.2,0,0.4-0.2,0.9-0.4c0.4-0.2,0.8-0.3,1-0.3l0,0c0.2,0,0.4,0,0.5,0.1l0,0c0.2,0.1,0.3,0.3,0.3,0.5
	c0,0.3,0,0.5,0,0.5l0,0c0,0.1,0.1,0.3,0.1,0.6l0,0c0,0.4,0,0.6,0.1,0.7l0,0c0.2,0.1,0.4,0.1,0.8,0.1l0,0c0.1-0.1,0.4-0.2,0.9-0.2
	l0,0c0.5,0,1.2,0,2,0.2c0.8,0.1,1.4,0.2,1.6,0.2l0,0c0.7,0,1.3,0,1.9-0.3c0.5-0.2,1.1-0.6,1.8-1l0,0c0.7-0.5,1.3-0.8,1.9-1l0,0
	c0.1-0.1,0.5-0.2,1-0.2c0.6,0,1-0.1,1.4-0.1l0,0c0.6,0,1.1,0.1,1.8,0.3c0.6,0.2,1,0.3,1.1,0.3l0,0c0.7,0.2,1.2,0.4,1.4,0.4l0,0
	c0.2,0,0.6-0.1,1.1-0.2c0.5-0.2,0.9-0.2,1.2-0.2l0,0l0.6,0.1c0.3,0,0.5-0.1,0.5-0.2l0,0c0,0,0.1-0.1,0.2-0.2l0,0
	c0-1-0.4-1.5-1.3-1.5l0,0c-0.4,0-1.1,0.2-2.1,0.5l0,0c0,0,0,0.1-0.1,0.1l0,0c-0.2,0-0.6-0.1-1-0.3l0,0c-0.2-0.1-0.4-0.2-0.7-0.4
	s-0.5-0.3-0.6-0.3l0,0c0,0-0.1-0.1-0.3-0.1c-0.2,0-0.3,0-0.4-0.1l0,0c-0.4-0.1-0.7-0.1-1-0.1l0,0c-0.7,0-1.3,0.1-2,0.3
	c-0.6,0.2-1.4,0.6-2.4,1l0,0c-1.1,0.6-2,0.9-2.5,1.1l0,0c-0.4,0.1-0.9,0.2-1.7,0.2l0,0c-0.7,0-1.3,0-1.7-0.1l0,0
	c-1,0-1.8-0.2-2.5-0.5l0,0c0-0.5,0.1-0.9,0.2-1.1l0,0c0-0.2,0.1-0.8,0.4-1.7l0,0c0-0.2,0.1-0.4,0.1-0.7l0,0c0-0.4,0-0.7,0.1-1.1
	c0.1-0.4,0.1-0.8,0.1-1.1l0,0c0-0.7-0.1-1.4-0.4-2s-0.4-1.1-0.4-1.3l0,0c-0.6-1.4-0.8-2.4-0.8-3.2l0,0c0-0.5,0.1-1.2,0.2-2.2l0,0
	c0-0.2,0.1-0.5,0.1-0.9s0.1-0.8,0.1-1.2l0,0c0-1.1-0.1-2.1-0.2-3.1l0,0c0-0.3-0.1-0.7-0.1-1.3c0-0.5-0.1-1.1-0.1-1.9l0,0l0.1-2
	c0.1-1.2,0.1-2.1,0.1-2.6l0,0c0-0.2,0.1-0.4,0.2-0.7c0.1-0.2,0.2-0.4,0.2-0.5l0,0c0-0.2-0.1-0.4-0.2-0.5s-0.2-0.2-0.2-0.3l0,0
	c0-0.1,0.1-0.2,0.5-0.4c0.4-0.1,0.7-0.2,0.8-0.2l0,0c0.3-0.1,0.8-0.2,1.5-0.3s1.4-0.1,2.1-0.1l0,0c0.9,0,1.6,0.1,2,0.2l0,0
	c0.5,0.1,1.4,0.4,2.7,1l0,0c1.2,0.5,2.2,0.9,3,1.1l0,0c0.2,0,0.4,0.1,0.8,0.1l0,0c1.6,0,2.9,0,3.9,0.1s2.2,0.3,3.6,0.5l0,0
	c0.3,0.1,0.6,0.1,0.8,0.1l0,0c0.3-0.2,0.5-0.3,0.6-0.5s0.1-0.4,0-0.8c0-0.3,0-0.6,0-0.7l0,0l-0.1-0.2c-0.1-0.1-0.2-0.1-0.5-0.1l0,0
	c-0.4,0-0.9,0-1.5-0.1l0,0c-0.6-0.1-1.2-0.1-1.6-0.1l0,0c-0.4,0-1,0-1.9,0.1l0,0c-0.6,0.1-1.3,0.2-2,0.2l0,0c-0.4,0-0.7,0-0.9-0.1
	l0,0c-0.8-0.1-1.6-0.3-2.2-0.4l0,0c-0.2,0-0.4-0.1-0.7-0.3s-0.4-0.2-0.5-0.3l0,0c-0.7-0.4-1.6-0.7-2.6-1s-1.9-0.4-2.7-0.3l0,0
	l-2.2,0.2c-0.6,0.1-1.3,0.2-2.3,0.5l0,0c-2.2,0.6-3.4,0.8-3.7,0.7l0,0c-0.1-0.2-0.1-0.5-0.1-0.8l0,0h-0.1l-0.1-0.1h0.1l0.1-0.1v-0.1
	l-0.1-0.1c0-0.3,0-0.8-0.2-1.6l0,0c-0.4-1.3-0.6-2.5-0.6-3.5l0,0c0-0.3,0-0.8,0.1-1.4l0,0c0-0.4,0.2-0.8,0.5-1.3
	c0.3-0.4,0.5-0.8,0.7-1l0,0c0-0.4,0-1-0.1-1.8l0,0c-0.1-0.6-0.1-1-0.1-1.3l0,0c0-0.3,0-0.7,0.1-1.1l0,0l0.1-0.2V19
	c0-0.1-0.1-0.4-0.2-0.7l0,0c-0.2-0.7-0.3-1.3-0.3-1.6l0,0c0-0.5,0-0.9,0.1-1.3l0,0c0.1-0.2,0.1-0.4-0.1-0.5l0,0l-2-0.2
	c-0.2,0-0.6,0-1.1-0.1s-0.7-0.1-0.8-0.1l0,0h-0.2C396.9,14.2,396.8,14.1,396.7,14.1z M414.3,15.3L414.3,15.3
	c-0.3,0.2-0.5,0.5-0.5,0.7l0,0c-0.1,0.2-0.2,0.4-0.4,0.6c-0.2,0.2-0.4,0.4-0.6,0.6l0,0l-0.1-0.1c0-0.1-0.1-0.2-0.2-0.2
	s-0.2,0-0.2,0.1s0,0.2,0.2,0.3l0,0l0.2,0.1c-0.1,0.3-0.3,0.6-0.6,0.9c-0.3,0.3-0.8,0.6-1.4,1.1l0,0c-0.4,0.3-0.9,0.6-1.3,0.9
	s-0.7,0.6-0.9,0.9l0,0c-0.2,0.3-0.4,0.5-0.5,0.6l0,0c-0.5,0.6-0.9,1.4-1.3,2.2c-0.4,0.8-0.6,1.3-0.7,1.5l0,0
	c-0.1,0.2-0.2,0.4-0.4,0.7c-0.2,0.3-0.3,0.4-0.4,0.5l0,0l-0.1,0.2c0,0.2-0.1,0.3-0.2,0.5s-0.2,0.3-0.3,0.4l0,0
	c0,0.1-0.2,0.3-0.5,0.6s-0.4,0.5-0.4,0.7l0,0c0,0.1,0,0.3,0.1,0.5s0.1,0.4,0.1,0.5l0,0c0,0.1,0,0.2,0.1,0.1s0.1-0.1,0.2-0.1l0,0
	c0,0,0.1-0.1,0.2-0.1l0,0c0.3,0,0.7,0.3,1.4,1l0,0l0.2,0.1c0.1,0.2,0.3,0.2,0.6,0s0.6-0.5,0.8-0.8s0.4-0.5,0.5-0.6l0,0
	c0-0.1,0.2-0.3,0.4-0.6c0.3-0.3,0.4-0.5,0.5-0.6l0,0h0.1c0.1-0.3,0.2-0.5,0.3-0.6l0,0l0.1-0.1c0-0.1,0-0.2,0.1-0.3
	c0.1-0.1,0.1-0.1,0.1-0.1l0,0v0.1l0.1-0.2c0.1-0.1,0.1-0.3,0.1-0.5l0,0l0.2-0.4l0.1-0.1c0,0,0.2-0.2,0.4-0.7l0,0
	c0-0.1,0.1-0.3,0.3-0.7c0.2-0.4,0.4-0.6,0.5-0.7l0,0c0,0,0.1-0.1,0.3-0.2c0.2-0.1,0.2-0.3,0.2-0.4l0,0l0.1-0.1
	c0.5-0.1,1.3-0.5,2.5-1.2l0,0l1.2-0.6c0.1-0.1,0.2-0.2,0.3-0.3l0,0c0.3-0.4,0.9-0.8,1.7-1.4l0,0c0.6-0.4,1-0.7,1.2-1l0,0
	c0.1-0.4,0.2-0.6,0.2-0.6l0,0c0-0.5-0.3-1-0.9-1.4s-1.2-0.7-1.8-0.7l0,0c-0.3,0-0.5-0.2-0.7-0.5c-0.1-0.3-0.3-0.5-0.4-0.5l0,0
	c0,0-0.1,0-0.3,0S414.5,15.3,414.3,15.3z M390.2,28.8L390.2,28.8c0.2-0.7-1.1-2-3.7-3.8l0,0c-0.6-0.5-1-0.8-1.1-0.8l0,0
	c-0.1-0.1-0.3-0.5-0.5-1.2s-0.4-1.2-0.5-1.6l0,0c0-0.2-0.2-0.4-0.4-0.7c-0.2-0.3-0.4-0.5-0.6-0.5l0,0c-0.2-0.1-0.4-0.4-0.6-0.8
	s-0.5-0.7-0.7-1s-0.4-0.4-0.7-0.4l0,0c-0.6,0.1-1.1,0.3-1.5,0.7s-0.8,0.6-1,0.7l0,0c-0.3,0.1-0.5,0.2-0.6,0.2l0,0l-0.1,0.2
	c-0.2,0.2-0.4,0.4-0.4,0.5l0,0c0.1,0.2,0.2,0.3,0.3,0.4s0.2,0.3,0.3,0.4l0,0c-0.2,0-0.4,0.1-0.4,0.2l0,0c0,0,0.2,0.1,0.6,0.1l0,0
	c0.7,0.7,1.2,1.4,1.4,2c0.2,0.6,0.4,0.9,0.5,1.1l0,0l0.1,0.1c0,0,0.1,0.1,0.1,0.2l0,0c0.2,0.2,0.3,0.4,0.4,0.6s0.2,0.3,0.2,0.5l0,0
	c0.3,0.5,0.9,1.1,1.9,1.7l0,0c0.3,0.2,0.6,0.4,0.9,0.6s0.5,0.5,0.6,0.7l0,0c0.2,0.1,0.5,0.4,0.9,0.9c0.3,0.5,0.8,0.9,1.2,1.1l0,0
	c0.2,0.1,0.3,0.2,0.4,0.2c0.1,0.1,0.3,0.1,0.3,0.1l0,0c0.1,0,0.3-0.1,0.5-0.3l0,0c0.2-0.2,0.4-0.3,0.6-0.5s0.4-0.4,0.5-0.5l0,0
	c0,0-0.1-0.2-0.2-0.6l0,0C389.5,29.2,389.8,29,390.2,28.8z"/>
<path d="M446.8,12.8l-0.4-0.1l-0.2,0.1c-0.1,0.2-0.1,0.4-0.1,0.5l0,0c0,0.3-0.1,0.4-0.1,0.2l0,0l-0.1-0.1l-1.9,1.4
	c-1.6,1.2-2.7,2.1-3.4,2.9l0,0c-0.2,0.3-0.5,0.7-0.8,1.4l0,0c-0.3,0.7-0.6,1.1-0.7,1.3l0,0c-0.4,0.5-1,1.3-1.9,2.3l0,0
	c-0.3,0.4-0.5,0.6-0.8,0.7l0,0l-0.2,0.2c-0.1,0.2-0.3,0.5-0.5,0.9c-0.3,0.4-0.5,0.7-0.5,1l0,0v0.1c0,0,0.1,0.2,0.2,0.4l0,0l0.2,0.2
	c0.2,0,0.6,0.1,1.2,0.3s1.1,0.5,1.4,0.7l0,0l0.2,0.2c0,0.1,0,0.2-0.1,0.4l0,0c0.2,0.2,0.3,0.3,0.4,0.3l0,0c0.5-0.4,1.1-1,1.9-1.8
	s1.3-1.5,1.6-2l0,0c0.3-0.5,0.6-0.9,0.7-1.2l0,0c1-1.8,1.9-2.9,2.8-3.3l0,0c0-0.1,0.1-0.1,0.1-0.1s0.1,0,0.1-0.1l0,0
	c0.7-0.4,1.2-0.5,1.7-0.5l0,0c0.3,0,0.7,0.1,1.1,0.2s0.7,0.2,0.9,0.2l0,0c0.6-0.1,1.3-0.1,2.2-0.1s1.4,0,1.6,0l0,0
	c0.4-0.4,0.7-0.6,0.8-0.8c0.1-0.1,0.4-0.2,0.7-0.2c0.3-0.1,0.6-0.1,0.9-0.2l0,0c0.4-0.1,0.7-0.1,1-0.1l0,0c0.4,0,1,0.1,1.7,0.2l0,0
	c0.2,0,0.4,0.1,0.7,0.1c0.3,0,0.6,0.1,1,0.1l0,0l1.9-0.1c-0.3,1.2-0.7,2.2-1.2,3.2s-1.1,2-1.9,3.2l0,0c-0.2,0-0.3,0.4-0.4,1
	s-0.1,1.1,0,1.3l0,0c0.1-0.1,0.3-0.2,0.5-0.2l0,0c0.3,0,0.7,0.1,1,0.3c0.4,0.2,0.6,0.4,0.6,0.6l0,0c0,0,0,0.1,0,0.3
	c0,0.1,0,0.2,0.1,0.2l0,0c0.2,0,0.3,0,0.3,0.1l0,0c0.3-0.1,0.6-0.3,0.8-0.5l0,0c1.1-0.9,1.8-1.7,2.3-2.5c0.4-0.7,0.9-1.8,1.4-3.2
	l0,0c0,0,0.2-0.4,0.5-1.3l0,0c0.3-0.1,0.8-0.2,1.3-0.2l0,0c0.4,0,1.1,0,2,0.1l0,0c1,0.1,1.7,0.1,2.1,0.1l0,0c0.6,0,1.1-0.1,1.4-0.2
	l0,0c0.2-0.1,0.4-0.1,0.6-0.2c0.3-0.1,0.5-0.1,0.6-0.2l0,0c0.2-0.1,0.4-0.3,0.8-0.6c0.3-0.3,0.7-0.5,1-0.7s0.6-0.2,0.9-0.2l0,0
	c0.7,0,1.2,0,1.6,0.1c0.3,0.1,0.6,0.2,0.9,0.4s0.6,0.3,0.8,0.3l0,0c0.4,0.1,1,0.1,1.6,0.1s1,0,1.3,0l0,0c0.2-0.2,0.2-0.6,0.2-1.1
	l0,0c0-0.4-0.1-0.6-0.2-0.6l0,0h-0.1h-0.1l0,0c-0.2,0-0.5,0.1-0.8,0.1s-0.6,0.1-0.9,0.1l0,0c-0.8,0-1.4-0.3-2-0.8l0,0
	c-0.2,0-0.5,0-1.1,0s-1.2,0.1-1.9,0.2l0,0c-0.2,0.1-0.7,0.3-1.3,0.7l0,0c-0.6,0.4-1.1,0.7-1.4,0.7l0,0c-0.2,0-0.6,0-1.1,0.1
	s-0.9,0.1-1.3,0.1l0,0c-1,0-2-0.1-2.9-0.4l0,0l1.1-1.4c0.6-0.7,1-1.2,1.1-1.3l0,0l0.1-0.4c0-0.2,0-0.4-0.1-0.5l0,0
	c-0.2-0.2-0.5-0.3-0.8-0.6c-0.3-0.2-0.6-0.4-0.8-0.5l0,0c-0.1-0.1-0.3-0.2-0.7-0.2c-0.3-0.1-0.6-0.1-0.7-0.2l0,0
	c-0.1-0.2-0.2-0.3-0.3-0.4s-0.3-0.1-0.5,0c-0.2,0-0.3,0-0.3,0l0,0c0,0-0.1,0.1-0.2,0.1l0,0c0,0,0,0-0.1,0s-0.2,0.1-0.3,0.3l0,0
	c-0.1,0.2-0.2,0.4-0.4,0.7c-0.2,0.3-0.4,0.6-0.5,0.8l0,0c-0.1,0.1-0.3,0.4-0.6,0.7c-0.3,0.3-0.6,0.7-0.8,1l0,0c0,0.2-0.7,0.4-2,0.4
	l0,0c-0.8,0-1.2,0-1.3-0.1l0,0l-0.6-0.1c-0.8-0.1-1.4-0.2-1.9-0.2l0,0c-0.6,0-1.1,0.1-1.5,0.2c-0.5,0.1-1.3,0.4-2.4,0.9l0,0
	c-0.1,0-0.4,0-0.8,0.1s-0.9,0.1-1.6,0.1l0,0c-1.2,0-1.9-0.1-2.1-0.4l0,0l0.8-1.4c0.2-0.2,0.3-0.4,0.3-0.6l0,0c0-0.2-0.1-0.4-0.2-0.8
	l0,0l-0.5-0.6c0-0.2-0.3-0.3-0.8-0.5s-0.8-0.4-0.9-0.5l0,0l0.1-0.2c-0.4-0.1-0.6-0.2-0.7-0.2l0,0h-0.1
	C446.9,12.8,446.8,12.8,446.8,12.8L446.8,12.8z M452.8,23.4L452.8,23.4c-0.4,0-1-0.3-1.7-1l0,0c-0.1-0.1-0.3-0.2-0.5-0.4
	c-0.3-0.2-0.5-0.4-0.8-0.5c-0.2-0.1-0.4-0.2-0.7-0.2l0,0c-0.1,0-0.3,0-0.5,0.1l0,0c-0.5,0.2-0.9,0.4-1.1,0.4l0,0
	c-0.4,0.2-0.8,0.5-1.2,0.8c-0.4,0.3-0.7,0.6-0.8,0.9l0,0c0.2,0.1,0.5,0.3,1.1,0.6c0.6,0.3,0.8,0.4,0.8,0.5l0,0l-0.2,0.2V25
	c0.2,0.2,0.5,0.3,0.8,0.5c0.3,0.1,0.6,0.4,1,0.8l0,0l0.4,0.1c0,0.2,0.1,0.3,0.2,0.3s0.2,0,0.2,0l0,0c0.2,0.2,0.7,0.3,1.6,0.4l0,0
	c0.7,0,1.2,0.1,1.7,0.2c0.4,0.1,0.8,0.3,1.1,0.6l0,0c0.2,0,0.3,0,0.5,0l0,0L455,28c0.1,0.1,0.4,0.2,0.7,0.4c0.3,0.1,0.7,0.2,0.9,0.2
	l0,0c0.3,0,0.5-0.1,0.5-0.4l0,0l-0.1-0.7c0-0.2,0.1-0.4,0.2-0.6l0,0c0.2-0.2,0.3-0.4,0.3-0.5s0-0.3,0-0.5l0,0
	c-0.2-0.6-0.5-1-1.1-1.3s-1.3-0.5-2.2-0.6l0,0c-0.5-0.1-0.9-0.2-1.3-0.4l0,0l-0.1-0.1C452.9,23.4,452.8,23.4,452.8,23.4z M471.3,23
	L471.3,23l-0.2-0.1c-0.4-0.1-0.7-0.2-0.9-0.4c-0.2-0.2-0.4-0.3-0.6-0.3l0,0c-0.2,0-0.7,0.2-1.3,0.5l0,0c0,0-0.5,0.3-1.4,0.8
	s-1,0.7-0.4,0.8l0,0c0.5,0.1,1.2,0.6,2.1,1.7l0,0c0.6,0.7,1.1,1.2,1.4,1.3l0,0c0.9,0.4,1.5,0.6,1.8,0.7l0,0c0.6,0.2,1.2,0.4,1.8,0.8
	s1,0.6,1.3,0.7l0,0c0.1,0,0.2,0.1,0.4,0.2c0.2,0.1,0.3,0.1,0.5,0.1l0,0l0.1,0.1V30c-0.2,0.2-0.4,0.2-0.8,0.2l0,0
	c-0.4,0-0.9-0.1-1.6-0.2l0,0c-0.6-0.2-1-0.2-1.2-0.2l0,0c-0.6,0-1.3,0.1-1.9,0.4c-0.7,0.2-1.1,0.4-1.2,0.4l0,0
	c-1.2,0.5-2.1,0.7-2.7,0.7l0,0l-0.4-0.1c-0.6-0.2-2.2-0.3-4.6-0.4s-4-0.1-4.6-0.1l0,0c-0.2,0-0.5,0-0.7,0l0,0c-0.3,0-0.6,0-1,0
	s-0.8,0.1-1.1,0.1l0,0h-0.4c-0.3,0-0.4,0.1-0.4,0.4l0,0c0,0.5,0,0.8,0.1,1.1l0,0c0,0.1,0.2,0.3,0.5,0.5l0,0c0,0.1,0.1,0.2,0.2,0.1
	c0.1,0,0.2-0.1,0.3-0.2l0,0c0-0.2,0.7-0.3,1.9-0.4c1.2-0.1,2.3-0.1,3.1-0.1l0,0c0.6,0,1.8,0.1,3.6,0.4l0,0c2,0.3,3.3,0.4,3.7,0.4
	l0,0c0.6-0.1,1.5-0.3,2.5-0.7l0,0c1-0.4,1.8-0.7,2.5-0.8l0,0c0.2,0,0.7,0.1,1.5,0.3c0.8,0.2,1.6,0.3,2.4,0.4l0,0
	c0.1,0.6,0.1,1.4,0.1,2.6l0,0c0,1.2,0,2,0.1,2.6l0,0c0,0.3,0,0.8,0.1,1.4l0,0c0.1,1,0.1,1.7,0.1,2.2l0,0c0,0.7-0.2,1.8-0.5,3.1l0,0
	c-0.3,1.4-0.5,2.5-0.5,3.2l0,0c0,0.7,0.1,1.4,0.2,2.1s0.2,1.2,0.2,1.3l0,0c0.3,1.2,0.4,2.4,0.4,3.4l0,0c0,0.3,0,0.8-0.1,1.5l0,0
	c0,0.3-0.1,0.8-0.1,1.5l0,0c0,1.5,0.1,2.7,0.4,3.6l0,0c0,0.2,0.2,0.8,0.6,2.1c0.3,1.2,0.4,2,0.1,2.2l0,0c-0.1,0.2-0.3,0.3-0.4,0.3
	s-0.3,0-0.5,0l0,0c-0.2-0.1-0.4-0.3-0.6-0.5c-0.3-0.2-0.6-0.4-1-0.4l0,0c-0.5,0-1,0.1-1.7,0.2s-1.1,0.2-1.3,0.4l0,0v0l-0.1,0.1
	c0.1,0.1,0.1,0.4,0.2,0.8c0,0.4,0.2,0.7,0.4,0.8l0,0v0.1c0-0.1,0.3-0.3,0.8-0.4c0.6-0.2,1-0.2,1.3-0.2l0,0c0.3,0,0.6,0.2,1,0.5
	s0.7,0.5,1,0.5l0,0c0.6,0.2,1,0.3,1.3,0.3l0,0c0.4,0,0.7-0.2,0.8-0.7l0,0c0-0.2-0.1-0.3-0.2-0.4l0,0c0-0.5,0-0.8,0.1-1.1
	s0.2-0.5,0.5-0.8l0,0c0.4,0,0.8,0,1.4,0.1l0,0c0.6,0.1,1,0.1,1.3,0.1l0,0c0-0.8-0.2-2-0.6-3.6l0,0c-0.2-0.6-0.3-1.1-0.3-1.4l0,0
	c-0.1-0.3-0.1-0.8-0.1-1.4l0,0c0-0.4,0-1,0.1-1.9l0,0c0.1-0.8,0.1-1.4,0.1-1.9l0,0c0-1.1-0.1-2.5-0.4-4.3l0,0
	c-0.2-1.3-0.3-2.3-0.2-3.1l0,0c0.1-0.8,0.3-1.9,0.6-3.1l0,0c0-0.2,0.2-0.7,0.4-1.7c0.2-1,0.3-2,0.3-3l0,0l-0.1-2.2
	c-0.1-1-0.1-1.8-0.1-2.3l0,0c0-1.6,0.2-2.9,0.7-3.9l0,0c0-0.3-0.4-0.5-1-0.7c-0.6-0.1-1-0.2-1-0.3l0,0L478,30c-0.9,0-1.3-0.3-1-0.8
	l0,0c0-0.2,0.1-0.6,0.3-1.1c0.2-0.5,0.2-0.9,0.1-1.1l0,0c-0.2-0.4-0.5-0.6-0.9-0.8s-1-0.5-1.8-0.8l0,0c-0.9-0.3-1.5-0.6-1.9-0.9l0,0
	c-0.1-0.1-0.3-0.3-0.6-0.8C471.8,23.2,471.5,23,471.3,23z M448.8,30.1L448.8,30.1l-0.3,0.1c-0.1,0.1-0.2,0.2-0.2,0.2l0,0
	c-0.5,0-0.8,0.4-0.8,1.1l0,0c0,0.4,0.1,0.8,0.2,1.2s0.4,0.6,0.6,0.8l0,0c0.1,0.2,0.6,0.2,1.3,0.2l0,0c1.2,0,1.7-0.5,1.7-1.5l0,0
	c0-0.8-0.1-1.3-0.4-1.7c-0.3-0.4-0.7-0.6-1.5-0.6l0,0c0,0-0.2,0-0.4,0C449,30,448.9,30,448.8,30.1z M444.9,32L444.9,32
	c-0.2-0.1-0.7-0.2-1.3-0.3c-0.6-0.1-1.1-0.1-1.6-0.1l0,0c-0.9,0-1.3,0.2-1.3,0.6l0,0l0.1,1.9c0.1,1.7,0.1,2.9,0.1,3.8l0,0
	c0,0.9,0,1.6-0.1,2l0,0c-0.2,2.3-0.3,3.8-0.3,4.4l0,0c0,0.6,0,1,0.1,1.3l0,0V46c0,0.5,0.1,1.4,0.3,2.8l0,0c0.2,1,0.2,1.8,0.2,2.3
	l0,0c0,0.5-0.1,1-0.2,1.6l0,0c-0.1,0.6-0.5,1.7-1,3.5l0,0c-0.3,1.2-0.5,2.8-0.6,4.8l0,0l-0.2,2.2c0,0.2-0.1,0.6-0.2,1.1
	c-0.1,0.6-0.1,1.1,0,1.6l0,0c0,0.2,0,0.5,0.1,0.8l0,0c0.2,0.5,0.6,0.7,1.2,0.7l0,0l1.1-0.1c0.1-0.1,0.3-0.1,0.5-0.1l0,0l0.7,0.1
	c0.3,0,0.5-0.2,0.7-0.5l0,0c0.3-1.2,0.5-2.8,0.5-4.8l0,0l0.1-1.2c0-1,0.4-2.5,1-4.3l0,0c0.7-1.9,1-3.4,1-4.7l0,0
	c0-0.8-0.1-2.2-0.4-4l0,0c-0.3-1.6-0.4-3-0.4-4.1l0,0c0-1.3,0.2-2.4,0.5-3.4l0,0C445.6,35.2,445.4,32.5,444.9,32z M452,36.5
	L452,36.5c-0.2-0.2-0.3-0.3-0.5-0.3l0,0c-0.1,0-0.3,0.1-0.5,0.3c-0.3,0.2-0.5,0.2-0.8,0.2l0,0v0.4c0,0.3,0,0.5,0.1,0.7l0,0
	c0,0.9,0.2,2.3,0.5,4.1l0,0c0.4,1.6,0.5,3,0.5,4.2l0,0c0,0.9-0.2,2.2-0.6,3.8l0,0c-0.2,0.9-0.4,1.7-0.5,2.5l0,0
	c-0.1,0.6-0.1,1.1-0.1,1.6l0,0c-0.1,1.4-0.2,2.4-0.4,2.9l0,0v0.3c0.1,0.2,0.2,0.5,0.2,0.9c0.1,0.4,0.2,0.7,0.4,0.7l0,0l0.3,0.1
	c0.1,0,0.3-0.1,0.5-0.2c0.2-0.1,0.4-0.2,0.5-0.2l0,0c0.3,0,0.7,0.1,1.1,0.3s0.8,0.3,1,0.3l0,0h0.2c0.2,0,0.4-0.1,0.4-0.4l0,0
	c0-0.1,0-0.3,0-0.4c0-0.1,0-0.3,0-0.4c0-0.1,0.1-0.1,0.2-0.1l0,0c0.4,0,1-0.1,1.8-0.2c0.7-0.1,1.3-0.2,1.8-0.2l0,0
	c0.4,0.1,0.7,0.1,0.9,0c0.3-0.1,0.6-0.2,1.2-0.5l0,0c0.3-0.2,0.6-0.3,0.9-0.4c0.3-0.1,0.6-0.2,0.9-0.2l0,0c0.3,0,0.9,0.1,1.7,0.2
	l0,0c1.2,0.2,2,0.3,2.3,0.3l0,0c0.2,0,0.4,0,0.5,0.1s0.1,0.2,0.1,0.5l0,0c0,1.2,0.1,1.8,0.4,1.9l0,0c0.2,0.1,0.5,0.1,0.8-0.1
	s0.6-0.3,0.8-0.3l0,0c0.1,0,0.3,0,0.7,0.1l0,0c0.1,0,0.3-0.1,0.4-0.2l0,0h0.5c0.2,0,0.3-0.1,0.4-0.2s0.1-0.3,0.1-0.6l0,0
	c0-0.7-0.2-1.5-0.4-2.2s-0.5-1.7-1-2.8l0,0l-0.3-1c0-0.4,0.1-0.9,0.1-1.5s0.1-1.2,0.2-1.6l0,0c0.1-0.2,0.2-0.7,0.5-1.3
	c0.2-0.7,0.4-1.2,0.4-1.7l0,0l0.1-3l0.1-1.6c0-1.1,0-2,0.1-2.5l0,0c0-0.6,0.1-0.8,0.2-0.8l0,0l0.1-0.1c0-0.1-0.1-0.2-0.1-0.3
	s-0.1-0.3-0.3-0.4l0,0c-0.3-0.2-1-0.3-2.3-0.4c-1.3-0.1-2.1-0.1-2.6,0l0,0c0,0.1-0.2,0.2-0.4,0.2c-0.2,0-0.4,0-0.4,0l0,0
	c-0.7,0-1.5,0.2-2.5,0.6l0,0c-0.1,0-0.4,0.1-0.7,0.2c-0.4,0.1-0.7,0.2-1,0.2l0,0l-1.7-0.1c-1-0.1-1.8-0.1-2.4-0.1l0,0
	c-0.2,0-0.4,0-0.7-0.1l0,0v-0.1c0,0,0-0.1,0.1-0.3c0-0.2,0-0.3-0.2-0.3l0,0c-0.2-0.2-0.7-0.4-1.3-0.4l0,0c-0.3,0-0.6,0-1.1,0
	S452.2,36.6,452,36.5z M465.5,38.6L465.5,38.6c-0.1,0.2-0.1,0.3-0.1,0.3l0,0l0.1,0.2l0.2,1.9c0.1,0.9,0.2,1.7,0.2,2.6l0,0
	c0,1-0.1,1.9-0.3,2.7l0,0c0,0.1-0.1,0.1-0.2,0.1l0,0c-0.2,0-0.4,0-0.8-0.1c-0.3-0.1-0.6-0.2-0.8-0.2l0,0c-0.4,0-0.8,0-1.3,0.1
	s-0.8,0.2-1,0.2l0,0c-0.4,0-0.8,0.2-1.3,0.4l0,0c-0.7,0.2-1.3,0.4-1.6,0.4l0,0c-0.2,0-0.4,0-0.7-0.1c-0.2,0-0.5-0.1-0.7-0.1l0,0
	h-0.4c-0.4,0-0.7-0.2-0.7-0.6l0,0c0-0.8-0.1-1.9-0.4-3.3l0,0c0-0.4-0.1-1-0.1-1.7s0-1.2,0-1.6l0,0c0.3-0.1,0.8-0.1,1.4-0.1l0,0
	c0.7,0,1.2,0,1.5,0.1l0,0l1.4,0.1c0.6,0,1.2-0.2,1.7-0.5l0,0c0.5-0.2,0.9-0.4,1.2-0.5c0.3-0.1,0.7-0.1,1.3-0.1l0,0
	C464.7,38.6,465.1,38.6,465.5,38.6z M456,48.5L456,48.5c0.4,0,0.8,0,1.2,0.1c0.4,0,0.8,0.1,1.3,0.1l0,0c0.5,0,0.9,0,1.1-0.1l0,0
	c0.1,0,0.3-0.1,0.7-0.3l0,0c0.4-0.2,0.8-0.3,1.3-0.3s0.9,0,1.2-0.1l0,0l0.7-0.1c0.4,0,0.7,0,1,0.1s0.5,0.2,0.5,0.3l0,0
	c0,0.4,0,1-0.1,1.6l0,0c-0.1,1-0.1,1.9,0,2.6l0,0c0,0.4,0.2,0.9,0.5,1.5l0,0c0,0.2,0.1,0.4,0.2,0.6c0.1,0.3,0.2,0.5,0.2,0.7l0,0
	l-0.1,0.1c-0.4,0-1.1-0.1-2.2-0.3l0,0c-0.7-0.2-1.2-0.2-1.5-0.2l0,0c-0.5,0-1.2,0.2-2.2,0.6l0,0c-0.9,0.3-1.4,0.5-1.6,0.5l0,0
	c-0.3,0-0.6,0-1,0.1c-0.3,0-0.7,0.1-1,0.1l0,0c-0.2,0-0.5,0-0.9,0s-0.7,0-1,0l0,0c0-1,0.1-2.1,0.4-3.3C455.1,51.4,455.5,50,456,48.5
	z"/>
<path d="M528.3,13.5l-1.2-0.8h-0.5c-0.1,0-0.2,0.1-0.3,0.1l0,0c-0.2,0-0.3,0.1-0.3,0.2c0,0.1-0.1,0.2-0.1,0.3l0,0
	c0,0.2-0.1,0.5-0.3,0.9s-0.3,0.6-0.4,0.8l0,0c-0.3,0.4-0.5,0.8-0.6,1.2s-0.3,0.9-0.4,1.4c-0.1,0.5-0.2,1-0.3,1.3l0,0
	c0,0.2-0.2,0.4-0.4,0.8s-0.3,0.6-0.4,0.8l0,0l-0.1,0.1l-0.1,0.1c0,0.1-0.2,0.4-0.5,0.7s-0.5,0.5-0.6,0.6l0,0l-0.1,0.2
	c0,0.1-0.1,0.4-0.4,0.8c-0.2,0.4-0.4,0.7-0.5,0.9l0,0l0.1,0.2c0.1,0,0.3,0,0.6,0c0.3,0,0.5,0,0.5,0.1l0,0c0.3,0.1,0.5,0.3,0.7,0.5
	c0.2,0.3,0.4,0.5,0.5,0.7l0,0l0.2-0.1c0.3-0.4,0.5-0.6,0.8-0.7l0,0c0.1-0.1,0.3-0.4,0.7-0.7s0.6-0.6,0.9-0.8l0,0
	c0.4,0,0.9,0.4,1.7,1.2s1.4,1.5,1.8,2.1l0,0c0.3,0.4,0.7,0.8,1.1,1.2l0,0c0.7,0.7,1.1,1.1,1.2,1.3l0,0c-0.4,0.3-1.1,0.6-2.1,1.1l0,0
	c-1,0.4-1.9,0.8-2.6,1.2c-0.7,0.4-1.4,0.9-2,1.5l0,0c-0.4,0.4-0.8,0.7-1,0.7l0,0h-0.2c-0.1,0.2-0.2,0.4-0.3,0.5s-0.3,0.2-0.5,0.2
	s-0.4,0.1-0.5,0.2l0,0c-0.7,0.7-1,1.2-1,1.4l0,0c0,0.2,0.1,0.4,0.5,0.5c0.3,0.1,0.5,0.2,0.6,0.3l0,0c0.2,0.3,0.6,0.6,1.2,0.9l0,0
	c0.2,0,0.7-0.3,1.5-1s1.5-1.2,2-1.6l0,0c0.6-0.5,1.1-0.9,1.6-1.3c0.4-0.3,0.9-0.5,1.4-0.7l0,0c0.8-0.1,1.3-0.3,1.5-0.4l0,0
	c0.3,0,0.6-0.2,1-0.4s0.7-0.4,1-0.5l0,0c0.3-0.4,0.8-0.5,1.3-0.5l0,0c0.8,0,1.7,0.4,2.6,1.1c0.9,0.7,1.7,1.4,2.3,2.1
	c0.6,0.7,1,1.1,1.2,1.2l0,0c0.5,0.5,1.5,1,3.1,1.4l0,0c0.5,0.2,1,0.4,1.6,0.6l0,0c0.1,0,0.2,0,0.2-0.1c0.1-0.1,0.1-0.2,0.1-0.3l0,0
	c0-0.1,0.1-0.2,0.2-0.5c0.1-0.2,0.1-0.5,0.1-0.7l0,0c0-0.2-0.2-0.3-0.7-0.3l0,0c-0.6-0.1-1.6-0.5-3.1-1.2l0,0
	c-0.5-0.2-0.9-0.5-1.3-0.9c-0.4-0.4-0.8-0.8-1.2-1.2s-0.7-0.8-0.9-1l0,0c-0.3-0.3-0.7-0.6-1.3-1l0,0c-0.6-0.4-1.1-0.7-1.3-0.9l0,0
	c0.2-0.4,0.5-0.9,0.8-1.6s0.4-1.2,0.5-1.5l0,0c0.2-0.6,0.5-1.3,0.8-2.2l0,0c0.1-0.2,0.4-0.6,0.7-1c0.4-0.4,0.6-0.8,0.7-1.1l0,0
	c0.1-0.2,0.3-0.6,0.5-1.3l0,0c0-0.2,0.2-0.2,0.7-0.2l0,0c0.6,0,1.1,0,1.4,0.1l0,0l1.4,0.1c0.1,0,0.3,0,0.5-0.1s0.4-0.1,0.6-0.1l0,0
	l0.1,0.1c0.1,0,0.2-0.1,0.3-0.3s0.1-0.4,0.1-0.7l0,0c0-0.5-0.2-0.7-0.7-0.7l0,0c-0.4,0-0.9,0-1.5,0s-1.1-0.1-1.5-0.1l0,0
	c-0.7,0-1.4,0.1-2,0.2l0,0c-0.2,0-0.5,0.1-0.9,0.1l0,0c-0.6,0-1.4-0.2-2.2-0.6l0,0c-0.1,0-0.3-0.1-0.7-0.3c-0.4-0.2-0.9-0.2-1.4-0.2
	l0,0c-0.4,0-0.8,0.1-1.2,0.2c-0.4,0.2-0.8,0.3-1.1,0.4l0,0c-0.4,0.1-0.7,0.1-0.8,0.1l0,0l-1.6-0.1c-0.2,0-0.5,0-0.9,0s-0.8,0-1.3,0
	l0,0c-0.4,0-0.6,0-0.5-0.1l0,0c0.2-0.3,0.4-0.7,0.7-1.2s0.5-0.8,0.7-0.9l0,0c0-0.2,0.1-0.4,0.2-0.8c0.1-0.4,0.2-0.6,0.1-0.8l0,0
	l-0.1-0.1c-0.2-0.1-0.3-0.2-0.4-0.4c-0.1-0.2-0.2-0.3-0.3-0.4l0,0C528.6,13.6,528.5,13.5,528.3,13.5L528.3,13.5z M503.1,12.8h-0.5
	v0.1c0,0-0.2,0.1-0.4,0.2c-0.2,0.1-0.3,0.3-0.1,0.5l0,0c0,0.2-0.2,0.5-0.5,1s-0.6,0.8-0.6,0.9l0,0c-0.5,0.8-0.9,1.6-1.3,2.3
	s-0.7,1.6-1.2,3l0,0c0,0.1-0.4,0.6-1.2,1.5c-0.8,0.9-1.4,1.6-1.8,2l0,0c0,0.1-0.1,0.2-0.2,0.4c-0.1,0.1-0.2,0.2-0.3,0.2l0,0
	c-0.1,0.2-0.2,0.4-0.5,0.6c-0.2,0.2-0.4,0.4-0.5,0.6s-0.1,0.4,0,0.7l0,0c0.5,0.2,1.1,0.5,1.7,1l0,0c0,0.1,0.1,0.2,0.4,0.5
	c0.3,0.2,0.5,0.3,0.5,0.3l0,0c0.2-0.1,0.6-0.6,1.3-1.5l0,0c0.6-0.7,1-1.2,1.2-1.4l0,0c0.3-0.3,0.8-0.7,1.5-1.3
	c0.7-0.6,1.2-1.1,1.5-1.7l0,0c0.2-0.3,0.3-0.7,0.4-1.3l0,0c0.1-0.2,0.2-0.5,0.3-0.8s0.2-0.5,0.2-0.5l0,0c0.2-0.2,0.8-0.3,1.8-0.3
	l0,0l3.1,0.1c1,0,1.6-0.1,1.9-0.2l0,0l0.1-0.1l0.9-0.4c0.2,0,0.7-0.2,1.6-0.5l0,0c1.1-0.4,1.8-0.5,2.1-0.5l0,0
	c0.2,0,0.7,0.1,1.4,0.4l0,0c0.3,0.1,0.7,0.2,1.1,0.4s0.9,0.2,1.4,0.2l0,0c0.2,0,0.7,0,1.3-0.1l0,0L521,19c0.5,0.2,0.7,0,0.7-0.8l0,0
	l-0.1-1l-0.2-0.1c-0.4,0-0.9,0.1-1.6,0.1c-0.7,0.1-1.4,0.1-2.1,0.1l0,0c-0.5,0-0.8,0-0.8-0.1l0,0c-1-0.4-1.7-0.7-2-0.7l0,0
	c-0.8,0-1.9,0.3-3.3,0.8l0,0c-0.6,0.2-1.1,0.4-1.7,0.6s-1.1,0.3-1.6,0.3l0,0l-1.3-0.1c-0.8-0.1-1.4-0.1-1.8-0.1l0,0
	c-0.1,0-0.2,0-0.4,0.1s-0.4,0-0.5-0.1l0,0c0.2-0.3,0.3-0.5,0.5-0.6l0,0c0-0.2,0.2-0.4,0.4-0.7c0.2-0.3,0.4-0.6,0.5-0.7l0,0
	c0.2-0.4,0.3-0.7,0.3-1l0,0c0-0.5-0.2-0.9-0.6-1.1c-0.4-0.3-0.8-0.5-1.3-0.7C503.7,13.1,503.3,12.9,503.1,12.8L503.1,12.8
	L503.1,12.8z M533.8,20.2L533.8,20.2l1.3-0.4c0.2,0.1,0.5,0.1,0.8,0.2c0.3,0,0.6,0.1,0.9,0.3l0,0c0,0,0,0.1,0,0.3
	c0,0.2,0,0.3-0.1,0.5l0,0l-0.7,1.7c-0.1,0.2-0.2,0.6-0.5,1.1c-0.2,0.5-0.4,1-0.5,1.5l0,0c-0.1,0.2-0.2,0.6-0.3,1.1s-0.2,0.7-0.3,0.8
	l0,0l-0.8,0.8c-0.4-0.3-0.7-0.6-1-1l0,0c-0.2-0.1-0.5-0.3-0.8-0.7s-0.6-0.7-0.7-0.8l0,0l-1.3-1.4c-0.4-0.5-0.9-0.9-1.4-1.4l0,0
	c-0.6-0.5-1-0.9-1.2-1.1l0,0c0,0,0.1-0.2,0.2-0.4c0.1-0.2,0.2-0.4,0.4-0.4l0,0c0.3,0,0.6-0.1,1.1-0.1s1-0.1,1.7-0.1l0,0
	c0.3,0,0.5,0,0.8,0.1s0.5,0.1,0.8,0.1l0,0c0.3,0,0.6-0.1,0.9-0.2S533.6,20.3,533.8,20.2z M520.9,22.3L520.9,22.3
	c-1.8-0.5-3.3-0.8-4.5-0.8l0,0c-0.5,0-1.3,0.1-2.2,0.3l0,0c-0.7,0.2-1.4,0.3-2,0.3l0,0c-0.5,0-1.3,0-2.3-0.1l0,0
	c-1.1-0.1-1.9-0.1-2.4-0.1l0,0c-0.2,0-0.6-0.1-1.2-0.2s-1-0.2-1.3-0.2l0,0c-0.3,0-0.5,0.1-0.7,0.2l0,0c0,0.1-0.2,0.1-0.4,0l0,0
	c0,0.1,0,0.3-0.1,0.4s0,0.3,0,0.5l0,0c0,0,0.1,0.1,0.1,0.2l0,0c0,0.2,0,0.4-0.1,0.6s-0.1,0.4-0.2,0.5l0,0c-0.2,0.5-0.3,1.1-0.4,1.8
	s-0.1,1.1-0.2,1.3l0,0l0,1c-0.1,0.2-0.1,0.3-0.1,0.4l0,0c-0.1,0.4-0.7,0.6-1.9,0.6c-1.2-0.1-1.8-0.1-1.9-0.1l0,0
	c-1.2-0.1-2.5,0-3.9,0.4l0,0c-0.1,0-0.1,0.1-0.2,0.3c0,0.1-0.1,0.3-0.1,0.3l0,0l0.3,1.3l0.2,0.1c0.2,0,0.5-0.1,0.9-0.2
	c0.4-0.2,0.7-0.2,0.9-0.2l0,0c0.4,0,0.7,0,1.1-0.1c0.4,0,0.8-0.1,1.2-0.1l0,0c0.5,0,1,0.1,1.4,0.2l0,0c-0.1,0.2-0.3,0.5-0.5,0.9
	c-0.3,0.4-0.5,0.7-0.7,0.9l0,0c-0.8,1.2-1.5,2.2-2,3s-0.6,1.4-0.4,1.8l0,0c0.2,0.2,0.5,0.4,0.7,0.4l0,0c0.2,0,1,0.5,2.2,1.5l0,0
	c0.1,0,0.2-0.1,0.4-0.3c0.2-0.2,0.3-0.4,0.4-0.6l0,0l0.8-1.4L502,37c0.1,0,0,0.2-0.2,0.4l0,0c0.2,0,0.6,0.1,1.3,0.1l0,0
	c0.8,0,1.6,0,2.5-0.1c0.8-0.1,1.6-0.2,2.2-0.3l0,0c0.2,0,0.4,0.1,0.7,0.1l0,0c0.5,0,1.2-0.2,2.2-0.5l0,0c1-0.3,1.8-0.5,2.3-0.5l0,0
	c0.1,0,0.2,0,0.4,0.1c0.2,0.1,0.3,0.1,0.4,0.1l0,0c0.4,0,1,0,1.9-0.1l0,0l1.4-0.1c0.1,0,0.3-0.1,0.6-0.3c0.3-0.2,0.5-0.3,0.7-0.3
	l0,0c0.2,0,0.3,0.1,0.5,0.2l0,0c0.2,0,0.6,0,1.2,0c0.6,0,0.9,0,1,0l0,0l0.2-0.1c0-0.2,0.1-0.4,0.1-0.7s0-0.5-0.1-0.7l0,0
	c0-0.1-0.1-0.2-0.3-0.2l0,0c-0.2,0-0.5,0.1-0.9,0.1l0,0c-0.3,0-0.6,0-1,0s-0.7,0-1.1,0l0,0c0,0-0.1,0.1-0.3,0.1c-0.2,0-0.3,0-0.5,0
	l0,0c-0.1-0.5-0.2-0.9-0.1-1.3l0,0l1.6-2.4c0.2,0,0.5-0.1,0.9-0.1l0,0c0.6,0,1,0,1.2,0.1l0,0c0.7,0.1,1.4,0.1,2.1,0l0,0
	c0.1-0.4,0.2-0.8,0.2-1.4l0,0c-0.4-0.2-0.7-0.3-1-0.3l0,0c-0.1,0-0.2,0-0.4,0c-0.2,0-0.4,0-0.8,0l0,0h-0.7c-0.5,0-0.8-0.1-0.7-0.2
	l0,0c0.2-1,0.6-2.3,1.1-4l0,0c0.1-0.4,0.2-0.8,0.2-1.3C520.8,23,520.9,22.6,520.9,22.3z M507.2,28.3L507.2,28.3
	c0.1-0.2,0.1-0.6,0.2-1c0-0.4,0.1-0.7,0.1-1l0,0c0.1-0.2,0.2-0.6,0.4-0.9c0.2-0.4,0.3-0.7,0.4-1l0,0c0-0.2,0.4-0.2,1-0.2l0,0
	c0.6,0,1,0,1.3,0.1l0,0c0.2,0,0.4,0,0.6,0s0.4,0,0.6,0l0,0c0.2,0,0.7-0.2,1.6-0.4l0,0c0.9-0.3,1.8-0.5,2.8-0.4l0,0
	c0.1,0,0.1,0.1,0.1,0.2s-0.1,0.3-0.1,0.3l0,0c-0.1,0.1-0.1,0.3-0.1,0.5s-0.1,0.4-0.1,0.6l0,0l-0.2,0.8c0,0.2-0.1,0.5-0.2,0.9
	s-0.3,0.8-0.5,1.2c-0.2,0.4-0.4,0.7-0.6,0.9l0,0V29c-0.1,0.1-0.2,0.1-0.2,0.1l0,0c-0.2,0-0.4-0.1-0.7-0.2c-0.3-0.1-0.5-0.2-0.7-0.3
	l0,0l-0.9-0.4c-0.3-0.1-0.6-0.1-1-0.1l0,0c-0.2,0-1,0.1-2.4,0.2l0,0C507.6,28.3,507.2,28.4,507.2,28.3z M511.1,24.7L511.1,24.7
	c-0.4,0.2-0.7,0.3-0.8,0.4l0,0c-0.1,0.2-0.3,0.2-0.4,0.2l0,0c0,0.1,0,0.3,0.1,0.5l0,0c0.2,0.8,0.6,1.1,1.2,1.1l0,0
	c0.3,0,0.6-0.1,0.8-0.3c0.3-0.2,0.4-0.5,0.5-0.8l0,0c-0.2-0.4-0.3-0.7-0.4-0.8S511.6,24.9,511.1,24.7z M503.2,35.3L503.2,35.3
	l-0.1-0.1c0-0.1,0.4-0.4,1-1l0,0c1.1-1,1.8-1.8,2.1-2.3l0,0c0.1-0.2,0.3-0.5,0.4-0.9s0.3-0.6,0.5-0.8l0,0c0.4-0.2,0.7-0.3,1-0.4
	s0.7-0.1,1.1-0.2l0,0c0.6-0.1,1-0.2,1.1-0.1l0,0c1.4,0.2,2.4,0.4,3.1,0.8l0,0c0.2,0.1,0.2,0.2-0.1,0.3l0,0c0,0.2-0.1,0.4-0.3,0.8
	c-0.2,0.4-0.3,0.8-0.3,1.2l0,0c0,0.2,0,0.5,0.1,0.8s0.1,0.6,0,0.7l0,0c-0.8,0.1-1.5,0.3-2.2,0.5l0,0l-1.5,0.4c-0.2,0-0.4,0-0.7,0
	c-0.2,0-0.4,0-0.5,0l0,0c-0.3,0-0.8,0.1-1.3,0.2l0,0c-0.2,0-0.3,0.1-0.5,0.1s-0.4,0.1-0.7,0.1l0,0c-0.3,0-0.7,0-1.1-0.1
	C503.9,35.4,503.5,35.3,503.2,35.3z M509.3,31L509.3,31c0,0.1-0.1,0.2-0.3,0.2l0,0c-0.3,0-0.5,0.2-0.7,0.5s-0.2,0.6-0.2,1l0,0
	l0.1,0.1c0,0.2,0.1,0.4,0.3,0.6c0.2,0.1,0.5,0.2,0.8,0.2l0,0c0.4,0,0.8-0.1,1.1-0.3c0.3-0.2,0.5-0.5,0.5-0.9l0,0
	c0-0.3-0.1-0.7-0.4-1l0,0C510.3,31.1,509.9,31,509.3,31z M519.5,36.2L519.5,36.2l-0.2-0.2c-0.4,0.1-0.7,0.2-0.8,0.2l0,0
	c-0.2,0.3-0.6,0.7-1.4,1.2c-0.8,0.5-1.3,0.8-1.7,0.8l0,0c-0.4,0.1-0.8,0.3-1.2,0.6s-0.8,0.8-1.4,1.5l0,0c-0.5,0.7-1,1.2-1.3,1.6
	c-0.4,0.4-0.8,0.6-1.2,0.7l0,0c-0.1,0.1-0.3,0.4-0.8,0.9c-0.4,0.5-0.8,0.8-1.1,0.9l0,0c-0.9,0.1-1.6,0.2-2,0.3l0,0l-0.5-0.1
	c-0.3,0-0.4,0.2-0.4,0.7l0,0c0,0.1,0,0.2-0.1,0.3s-0.1,0.1-0.1,0.2l0,0c0.1,0,0.2,0.1,0.3,0.1c0.1,0.1,0.1,0.1,0.1,0.2s0,0.2,0,0.4
	l0,0c0.2,0,0.5,0,0.9,0s0.7,0,1,0l0,0c1-0.2,1.9-0.3,2.7-0.3l0,0c0.3,0,0.5,0,0.4,0.2c0,0.1,0,0.1,0.1,0.1l0,0
	c0.4-0.1,0.7-0.2,1.1-0.2l0,0c0.4,0,0.8,0,1.3,0.1s1,0.1,1.3,0.2l0,0c0.2-0.1,0.4-0.2,0.7-0.2c0.3-0.1,0.5-0.1,0.5-0.1l0,0
	c-0.3,0.4-0.7,0.8-1.3,1.1c-0.6,0.3-1.1,0.5-1.6,0.5l0,0c-0.2,0.1-0.5,0.3-1,0.4c-0.5,0.2-0.8,0.3-1,0.5l0,0l-2.4,1.9l-0.1,0.3
	c0,0-0.3,0.1-0.8,0.1s-0.9,0.1-1.1,0.1l0,0c-2.3,0.1-3.6,0.2-4,0.4l0,0c0,0.1,0,0.2,0,0.3s0,0.2-0.2,0.2l0,0l0.1,0.1
	c0.1,0.2,0.1,0.4,0.1,0.6c0,0.2,0.1,0.4,0.1,0.6l0,0c0.1,0,0.2,0.1,0.4,0.1l0,0c0.3,0,0.5,0,0.7-0.1c0.2,0,0.4-0.1,0.5-0.1l0,0
	c0.2-0.1,1.1-0.2,2.9-0.3s3.1-0.2,3.9-0.2l0,0c0.1,0,0.3,0.1,0.4,0.2c0.2,0.1,0.4,0.2,0.6,0.2l0,0c0.3-0.2,0.9-0.3,1.7-0.3
	c0.8-0.1,1.4-0.1,1.7,0l0,0c0.1,0,0.5-0.1,1.3-0.3c0.8-0.2,1.4-0.2,1.9-0.2l0,0c0.1,0.1,0.1,0.3,0.1,0.5l0,0c0,0.5,0,0.9,0.1,1.2
	l0,0l0.1,1.4c0,0.5-0.1,1.2-0.2,2.1l0,0c-0.2,0.8-0.3,1.5-0.3,2.2l0,0c0,0.8,0.2,1.6,0.5,2.6c0.3,1,0.6,1.7,0.7,2l0,0
	c0,0.1,0,0.3-0.2,0.5c-0.2,0.2-0.4,0.3-0.5,0.3l0,0c-0.2,0-0.6-0.1-1-0.3c-0.4-0.2-0.8-0.3-1-0.4l0,0c-0.5-0.1-1-0.1-1.6-0.1l0,0
	h-1.3c-0.2,0-0.4,0-0.7,0c-0.2,0-0.4,0-0.6,0l0,0c-0.2,0.2-0.4,0.6-0.4,1.2l0,0c0,0.7,0.1,1,0.4,1.1l0,0l0.5-0.2
	c0.1,0.1,0.2,0.1,0.3,0.2s0.2,0,0.3-0.2l0,0c0.2-0.2,0.6-0.3,1.1-0.3s0.8,0,0.9,0l0,0c0.1,0,0.6,0.3,1.6,0.7c1,0.4,1.9,0.6,2.8,0.6
	l0,0c0.4,0,0.8-0.1,1-0.4l0,0c0.1-0.2,0.2-0.4,0.2-0.6s0.1-0.4,0.2-0.5l0,0l0.1-1c0-0.3,0.3-0.5,0.9-0.5c0.6-0.1,1-0.1,1.4-0.1l0,0
	l0.2-0.1c0.1-0.2,0-0.8-0.4-2l0,0c0-0.2-0.1-0.4-0.2-0.7c-0.1-0.3-0.1-0.5-0.1-0.6l0,0c-0.2-0.2-0.2-0.7-0.2-1.5l0,0
	c0-1,0.1-1.5,0.2-1.7l0,0c0-0.4,0.1-0.8,0.2-1.2c0.1-0.5,0.1-0.8,0.1-1.2l0,0c0-0.8,0-1.6-0.1-2.2c0-0.6-0.1-1.1-0.1-1.5l0,0
	c0.1-0.1,0.4-0.3,0.8-0.5c0.5-0.2,0.8-0.4,0.9-0.5l0,0c1-0.6,1.8-0.9,2.3-0.9l0,0c0.2,0,0.6,0.1,1.1,0.2c0.5,0.1,1,0.2,1.6,0.2l0,0
	c0.7,0,1.5-0.1,2.5-0.2c1-0.1,1.9-0.2,2.6-0.3l0,0c0-0.1,0-0.1,0.1-0.1l0,0c0.2,0,0.3,0.1,0.5,0.2l0,0c0.1,0,0.7,0.4,1.6,1.1l0,0
	c0.9,0.6,1.4,1,1.6,1l0,0l0.4-0.1c0.7-0.5,1.2-1.1,1.7-1.8l0,0c-0.6-0.6-1.6-1.3-2.9-2.2l0,0c-0.2-0.1-0.6-0.4-1.3-0.9
	s-1.3-1-1.8-1.6l0,0c-0.4-1.2-0.7-1.9-0.8-1.9l0,0c-0.1,0-0.3-0.1-0.7-0.2c-0.4-0.1-0.6-0.3-0.7-0.5l0,0c-0.3-0.1-0.6-0.1-0.7-0.1
	l0,0c-0.6,0-1.2,0.2-1.7,0.5s-0.8,0.7-0.8,0.9l0,0c-0.2,0.3-0.2,0.5,0,0.5l0,0c0.3,0.3,0.5,0.5,0.5,0.7l0,0c0.4,0.2,0.7,0.5,1,0.9
	s0.5,0.7,0.6,0.8l0,0c0.5,0.7,0.8,1.1,0.9,1.2l0,0c-0.3,0-0.8,0.1-1.5,0.2c-0.7,0.1-1.2,0.2-1.7,0.2l0,0c-0.4,0-0.6,0-0.8-0.1l0,0
	c-0.2-0.2-0.5-0.3-1-0.3l0,0c-0.7,0-1.6,0.2-2.5,0.6c-1,0.4-2.1,0.9-3.4,1.5l0,0c-0.3,0.1-1.1,0.2-2.3,0.2l0,0c-0.8,0-1.3,0-1.5,0.1
	l0,0c-0.1,0-0.2,0-0.3,0s-0.2,0-0.3,0l0,0c1.7-1.2,3-2.3,4-3.5l0,0c0.2-0.2,0.5-0.5,0.8-0.9c0.4-0.3,0.6-0.5,0.8-0.6l0,0
	c0.2,0,1.4-0.7,3.5-2l0,0c0.3-0.2,0.6-0.4,0.8-0.5s0.3-0.2,0.4-0.2l0,0l0.1-0.1c0.3-0.2,0.6-0.4,0.8-0.6c0.2-0.2,0.4-0.4,0.6-0.5
	l0,0c0.1,0,0.3-0.2,0.6-0.6c0.3-0.4,0.4-0.7,0.5-0.8l0,0c0-0.1-0.1-0.3-0.4-0.5l0,0c0-0.1-0.1-0.3-0.2-0.4s-0.2-0.3-0.3-0.3l0,0
	c0-0.1-0.1-0.1-0.2-0.2s-0.2-0.1-0.3-0.2l0,0c-0.2,0-0.5-0.2-1-0.4s-0.9-0.4-1.2-0.4l0,0c-0.3,0-0.5,0.1-0.5,0.4l0,0
	c0,0.3,0,0.5-0.1,0.5l0,0c0.1,0.2-0.3,0.6-1.1,1.1s-1.6,0.9-2.2,1.3l0,0c-0.2,0.1-0.7,0.4-1.5,0.8c-0.8,0.4-1.4,0.8-1.9,1.3l0,0
	c-0.1,0-0.3,0.1-0.5,0.1c-0.3,0.1-0.5,0.1-0.5,0.2l0,0c-0.2,0-1,0.3-2.4,0.7s-2.2,0.5-2.4,0.3l0,0l1-1c0.6-0.8,1.2-1.3,1.7-1.7l0,0
	c0.2,0,0.7-0.3,1.5-0.7c0.7-0.4,1.3-0.7,1.8-1l0,0l0.7-0.9c0.1,0,0.2-0.2,0.4-0.5l0,0C519.9,37.1,519.5,36.3,519.5,36.2z
	 M509.9,53.6L509.9,53.6c0-0.2-0.1-0.2-0.2-0.2l0,0c-0.2,0-0.4,0.1-0.6,0.3l0,0c-0.2,0.1-0.3,0.2-0.3,0.5c0,0.2-0.1,0.3-0.1,0.4l0,0
	c-0.2,0.3-0.6,0.6-0.9,0.9c-0.4,0.3-0.6,0.5-0.7,0.6l0,0c-0.4,0.3-0.9,0.6-1.3,1.1l0,0c0,0-0.3,0.4-1,1.2l0,0
	c-0.4,0.5-0.8,0.9-1.2,1.4l0,0c-0.1,0.1-0.8,0.7-2.2,1.9s-2,2.1-2,2.7l0,0c0,0.2,0.1,0.4,0.4,0.6c0.2,0.2,0.6,0.4,1,0.6
	s0.7,0.3,0.7,0.4l0,0c0.2,0.1,0.2,0.2,0.2,0.3l0,0c0,0.2,0.1,0.2,0.2,0.2l0,0c0.1,0,0.3-0.1,0.5-0.4l0,0l1-1
	c0.8-0.9,1.4-1.5,1.7-1.7l0,0c0.9-0.7,1.8-1.6,2.8-2.9l0,0c0.4-0.5,1.1-1.2,2.2-2.2s2-1.7,2.7-2.2l0,0c0,0-0.1-0.2-0.4-0.5l0,0
	c-0.1-0.3-0.2-0.5-0.2-0.5l0,0c-0.2-0.1-0.5-0.3-0.9-0.6c-0.3-0.3-0.6-0.5-0.8-0.5l0,0c-0.1,0-0.2,0-0.4-0.1
	C510.1,53.7,509.9,53.7,509.9,53.6z M529.4,53.8L529.4,53.8l-0.2,0.1c-0.2,0.1-0.5,0.3-0.8,0.6s-0.5,0.5-0.6,0.6l0,0l-0.1,0.1
	c-0.2,0-0.2,0.1-0.2,0.2l0,0l0.1,0.1v0.1c-0.2,0.2-0.4,0.5-0.4,0.7l0,0c0.1,0.1,0.4,0.4,0.9,0.8l0,0c0.3,0,0.7,0.3,1.1,0.8
	c0.5,0.5,0.8,0.9,0.9,1l0,0c0.4,0.4,0.9,0.7,1.5,0.9c0.6,0.3,1.1,0.5,1.7,0.6c0.5,0.2,0.9,0.3,1.1,0.3l0,0c0.3,0.1,0.9,0.6,2,1.6
	l0,0c1.4,1.3,2.4,2,2.9,2.3l0,0c0.5-0.3,0.9-0.9,1.2-1.6l0,0c0.2-0.6,0.5-0.9,0.7-1.1l0,0l0.1-0.3c0-0.4-0.3-0.9-1-1.6l0,0v0.1
	c-0.4-0.2-0.7-0.5-0.9-0.7s-0.4-0.4-0.6-0.5l0,0c-0.8-0.7-1.6-1.2-2.2-1.6s-1.2-0.7-1.9-0.9l0,0c-0.2,0-0.5-0.1-0.9-0.3
	c-0.3-0.2-0.6-0.3-0.6-0.4l0,0c0-0.1-0.1-0.2-0.3-0.4c-0.1-0.2-0.2-0.3-0.2-0.4l0,0l-0.1-0.2c-0.3-0.2-0.7-0.4-1.2-0.7
	s-0.9-0.4-1.3-0.4l0,0C529.8,53.6,529.6,53.6,529.4,53.8z M527.1,55.6L527.1,55.6c0,0.1-0.1,0.2-0.2,0.3s-0.1,0.2-0.1,0.3l0,0
	l0.1,0.1l0.1-0.1C527.1,56,527.1,55.9,527.1,55.6C527.3,55.5,527.3,55.5,527.1,55.6z"/>
</svg>
