<svg viewBox="0 0 430 80" xmlns="http://www.w3.org/2000/svg"><path d="M39.4 19.9H23.5v28.2h15.9V19.9zM38.44 67l-6.6-11.7h-9.78l-6.96-4.02V16.72l6.96-4.02h18.78l6.96 4.02v34.56l-6.96 4.02L47.62 67h-9.18zm25.92-11.7l-6.96-4.02V25h8.22v23.28h10.26V25h8.22v30.3h-6.78l-1.44-2.46-4.26 2.46h-7.26zm44.22-12.12h-8.46v5.22h8.46v-5.22zm-4.26 12.12h-5.46l-6.96-4.02V40.9l6.96-4.02h9.72v-4.86H94.9V25h14.94l6.96 4.02V55.3h-3.96l-4.26-2.46-4.26 2.46zm41.22-30.6l6.96 4.02V55h-8.22V31.72h-10.26V55h-8.22V24.7h6.78l1.44 2.46 4.26-2.46h7.26zm19.08 7.32h-5.52V25h5.52v-5.04l8.22-4.74V25h6.6v7.02h-6.6v15.96h6.6V55h-7.86l-6.96-4.02V32.02zM187.24 25h8.22v30h-8.22V25zm8.52-5.58h-8.82V11.2h8.82v8.22zm31.8 12.6h-14.88v15.96h14.88V55h-16.14l-6.96-4.02V29.02l6.96-4.02h16.14v7.02zm34.5-3.3v22.56l-6.96 4.02h-12.78l-6.96-4.02V28.72l6.96-4.02h12.78l6.96 4.02zm-8.22 3h-10.26v16.56h10.26V31.72zm63.12-14.7v13.2l-5.22 3v.12l5.22 3v14.64L310 55h-22.74V13H310l6.96 4.02zm-8.4 19.86h-12.9V47.8h12.9V36.88zm0-16.68h-12.9v9.48h12.9V20.2zm44.7 8.52v22.56l-6.96 4.02h-12.78l-6.96-4.02V28.72l6.96-4.02h12.78l6.96 4.02zm-8.22 3h-10.26v16.56h10.26V31.72zM376.48 55h-7.26l-6.96-4.02V11.2h8.22v36.78h6V55zm5.4-26.28l6.96-4.02h7.86l4.26 2.46V11.2h8.22v44.1h-6.78l-1.44-2.46-4.26 2.46h-7.86l-6.96-4.02V28.72zm8.22 19.56h10.86V31.72H390.1v16.56z"/></svg>