<svg viewBox="0 0 449 80" xmlns="http://www.w3.org/2000/svg"><path d="M31.46 16.35q.29-.76 1.76-1.52.58-.35.47-.7-.35-.53-3.05-1.97-2.69-1.43-3.63-1.67h-.12q-.41 0-.47.59-1.35 6.8-4.16 13.53-2.81 6.74-6.74 11.9-.41.76.12.7 1.93-1.17 4.34-3.4h5.74v6.45h-2.23q-2.99-.12-6.33-.35l1.88 4.8q3.22-.41 6.68-.47v8.44q0 3.05-.21 4.1-.2 1.06-1.08 2.58l-1.52 1.93q-.3.59-.24.71.24.58 2.02 2.93 1.79 2.34 2.32 2.69.41.24 1.17-1.41 3.46-6.79 11.13-15.87.3-.77.3-.88 0-.47-.65-.3l-8.55 6.1V44.24h8.67q.06.06.12 0 .46 0 .35-.7-.18-.76-1.61-3.05-1.44-2.28-1.91-2.69h-.12q-.41 0-.7.47l-1.99 1.99h-2.81v-6.45h8.67q.06.06.12 0 .46 0 .35-.7-.18-.88-1.59-3.34-1.4-2.46-1.93-2.87h-.06q-.41 0-.99.58l-1.76 2h-9.26l1.23-1.94.94-1.4q.29-.47.58-.88.3-.41.53-.82H41.3q.06.06.12 0 .47 0 .35-.71-.17-.87-1.84-3.39-1.67-2.52-2.26-2.93l-.12-.06q-.35.06-.93.76l-2.23 2.34h-4.92q.41-.99 1.99-4.1zm31.41.82l1.76-2.34q.87-.65.7-.94-.29-.35-2.76-1.64-2.46-1.29-3.22-1.52h-.12q-.23 0-.35.35-.76 6.5-3.86 14.41h-7.27q-3.87-2.22-5.04-2.58-.06-.05-.17-.05-.24 0-.24.41 0 .52.06.7.47 1.7.47 4.45v12.42q-.06 1.35-.47 5.98.18.18.76.18 1.47 0 2.93-.68 1.47-.67 1.7-1.73V43.3h.82v3.64q-.18 6.79-4.22 12.01-4.04 5.21-11.25 8.67-.35.12-.35.29 0 .24.35.3 10.14-1.76 15.27-7.71 5.12-5.95 5.12-15.55V43.3h1.76v19.63q.06 1.88 1.41 3.34 1.34 1.47 3.28 1.59h7.73q1.82-.12 3.2-1.67 1.37-1.56 1.49-3.61v-.12q0-.41-.47-1.05-2.28-1.7-3.16-7.91-.53-.35-.82 0l-.65 4.34-.35 2.16q-.41 2.88-1.58 3.05h-3.17q-2.22-.29-2.46-2.4V43.3h2.11v3.52q.18.18.76.18 1.35 0 2.76-.68 1.4-.67 1.64-1.73l-.35-5.15v-7.85q.41-1.59 2.22-3.05.3-.29.24-.7-.29-.71-2.35-2.9-2.05-2.2-2.69-2.49h-.06q-.29 0-.7.41-.35.23-2.52 2.63h-2.7q3.05-5.04 4.81-8.32zm-17.23-5.51h-.12q-.29 0-.29.3 0 .35.41 1.11 1 1.23 1.64 3.46.65 2.22.7 4.16-.05.17-.05.7 0 2.23 2.63 2.58.88.06 1.73-1.06.85-1.11.97-2.93-.12-3.04-2.02-5.01-1.91-1.96-5.6-3.31zm2.11 19.81q-.06-1.7 1.52-1.99h12.54v9.84H47.75v-7.85zm35.98-15q-.3-.29-.53-.29-.29 0-.53.41-.58 6.56-3.87 9.37-.87.59-1.28 1.52 0 1.41.7 2.17t1.82.76q.99 0 2.08-.52 1.08-.53 1.9-1.47 1.7-1.99 1.82-4.45v-.59h34.21l-3.28 5.98q-1.81-1.82-2.34-1.88h-.12q-.35 0-.82.47l-2.34 2H91.46q-2.93-.06-6.21-.36l1.88 5.04q3.75-.35 7.5-.35h15l-3.99 4.92q-3.16-1.29-4.69-1.4-.52-.65 0 2.58v2.92h-18.4q-2.92-.05-6.21-.35l1.88 5.16q3.69-.35 7.38-.35h15.59v12.42q0 1.17-3.93 1.17-1.23 0-4.86-.29-.41.23-.41.47 0 .35.41.58 5.04 1.94 6.56 5.63v.12q0 .46.65.46 1.05 0 2.66-.85 1.61-.84 2.9-2.08 1.23-1.11 1.41-2.1V47.76h23.32q.12.06.17 0 .59 0 .41-.71-.17-.64-1.43-2.19-1.26-1.56-2.78-3.02-1.53-1.35-2.23-1.58l-.12-.06q-.12.06-1.05.76l-3.05 2.34H106.7q-.06-1.34.46-2.81l.24-.23q2.28-1.82 5.74-3.46 3.46-1.64 6.45-2.28 1.29-.18 1.05-.59-.29-.59-2.93-3.63 2.34-1.94 5.36-3.52 3.02-1.58 5.54-2.11 1-.17.82-.58-.35-1-3.05-4.11-2.69-3.1-3.51-3.51h-.12q-.29 0-1.05.47l-2.58 1.99h-16.53q2-.06 3.29-.97 1.28-.91 1.28-1.96-.05-4.1-8.9-5.04-.41.06-.41.47t.41.82q2.11 1.93 2.69 4.69.47 1.52 1.29 1.99H84.9q-.35-.94-1.17-2.46zm65.5 5.86q3.34-.41 5.04-.47h28.71q.71-.12.71-.59 0-.23-.12-.58-2.87-3.87-6.09-7.27-.3-.29-.65-.29-.17 0-.64.29l-2.58 3.52h-21.09l-5.75-.59v.59l2.46 5.39zm-5.27 10.9q-2.93-.06-6.21-.35l1.88 5.27q3.45-.41 7.5-.47h12.89q-3.05 8.03-6.89 13.8-3.84 5.77-8 7.53-.41.06-.35.47.06.99 1.14 3.6 1.09 2.61 1.67 2.9l.77-.12q2.22-.52 1.93-.47 13.3-3.92 27.19-4.86.47 1.76.58 3.11.35 1.4 1.23 2.22.88.82 1.94.82 1.4 0 2.34-1.2t.94-3.25Q182.57 50.98 168.45 46h-.11q-.3 0-.3.23 0 .3.41.71 4.75 3.75 7.97 10.78l-24.14.82q6.68-7.03 13.01-15.59.82-.99 2.34-1.75.65-.47.47-.82-.53-.88-3.75-2.7h27.54q.12.06.18 0 .58 0 .41-.7-.3-.77-2.82-3.69-2.52-2.93-3.28-3.46-.06-.06-.29-.06-.59 0-1 .76l-2.46 2.7h-38.67zm59.77-16.76q-.3-.29-.53-.29-.29 0-.53.41-.58 6.56-3.87 9.37-.87.59-1.28 1.52 0 1.41.7 2.17t1.82.76q.99 0 2.08-.52 1.08-.53 1.9-1.47 1.7-1.99 1.82-4.45v-.59h34.21l-3.28 5.98q-1.81-1.82-2.34-1.88h-.12q-.35 0-.82.47l-2.34 2h-19.69q-2.93-.06-6.21-.36l1.88 5.04q3.75-.35 7.5-.35h15l-3.99 4.92q-3.16-1.29-4.69-1.4-.52-.65 0 2.58v2.92h-18.4q-2.92-.05-6.21-.35l1.88 5.16q3.69-.35 7.38-.35h15.59v12.42q0 1.17-3.93 1.17-1.23 0-4.86-.29-.41.23-.41.47 0 .35.41.58 5.04 1.94 6.56 5.63v.12q0 .46.65.46 1.05 0 2.66-.85 1.61-.84 2.9-2.08 1.23-1.11 1.41-2.1V47.76h23.32q.12.06.17 0 .59 0 .41-.71-.17-.64-1.43-2.19-1.26-1.56-2.78-3.02-1.53-1.35-2.23-1.58l-.12-.06q-.12.06-1.05.76l-3.05 2.34H226.7q-.06-1.34.46-2.81l.24-.23q2.28-1.82 5.74-3.46 3.46-1.64 6.45-2.28 1.29-.18 1.05-.59-.29-.59-2.93-3.63 2.34-1.94 5.36-3.52 3.02-1.58 5.54-2.11 1-.17.82-.58-.35-1-3.05-4.11-2.69-3.1-3.51-3.51h-.12q-.29 0-1.05.47l-2.58 1.99h-16.53q2-.06 3.29-.97 1.28-.91 1.28-1.96-.05-4.1-8.9-5.04-.41.06-.41.47t.41.82q2.11 1.93 2.69 4.69.47 1.52 1.29 1.99H204.9q-.35-.94-1.17-2.46zm77.93-6.21q-.41 0-.41.35t.41.94q1.99 2.34 2.11 5.74-.3 2.05 2.46 2.34 1.87-.06 3.1-1.2t1.23-2.55q-.29-2.28-2.72-3.78-2.43-1.49-6.18-1.84zm-11.49 9.49q-5.39-3.52-6.56-3.52-.06-.05-.18-.05-.23 0-.23.52 0 .65.06.94.47 2.81.47 6.8v13.83q0 9.14-2.2 16.26-2.2 7.11-6.48 11.57-.05.06-.05.35t.41.47q5.86-2.7 9.43-9.9 3.57-7.21 3.81-17.82v-13q.17-2.11 1.29-2.47h12.42q-.76 3.52-2.46 7.39h-5.98l-4.69-.24.59 4.57q3.34-.35 7.27-.35h1.17q-2.99 7.97-5.98 10.2-.53.47-.35.93.12.77 1.41 2.38 1.29 1.61 2.11 1.96.23.23 1.64-.94 1.46-1.11 3.04-1.11.65 0 .82.06h6.33v6.33h-12.42q-2.75-.12-7.03-.36l1.87 4.81q5.34-.47 8.32-.47h9.26V61l-.35 7.68q.12.11.7.11 1.53 0 3.14-.67t1.9-1.67l-.35-7.56h19.45q.06.06.12 0 .47 0 .35-.7-.29-.76-2.55-3.23-2.25-2.46-2.96-2.87l-.17-.05q-.35 0-1 .52l-2.22 2.35h-11.02v-6.33h14.18q.06.06.12 0 .47 0 .35-.7-.29-.83-2.55-3.32-2.26-2.49-3.08-3.01l-.11-.06q-.35.06-.82.76l-2.46 2.34h-5.51q0-2.05.58-3.16.71-1.17.71-1.52 0-.41-.56-.68-.56-.26-2.2-.73-2.34-.64-3.81-.94-.52-.64 0 2.7v4.33h-8.67q.24-.11 1.76-2.98l3.4-6.51h24.26q.05.06.11 0 .47 0 .36-.7-.36-.88-2.67-3.4-2.32-2.52-3.08-2.93-.06-.06-.17-.06-.47 0-1.12.65l-2.11 2.46h-13.94q.47-1.17.59-1.29.46-1.76 2.69-2.7.64-.47.59-.82-.12-.47-1.53-1.23-1.4-.76-3.16-1.35h24.84q.12.06.18 0 .58 0 .41-.7-.29-.76-2.32-2.84-2.02-2.08-3.66-3.6l-.35-.12q-.47 0-1.17.7l-1.99 2.58h-30.24zm70.31-9.26q-.52.06-.52.47 0 .35.52 1.06 1.94 2.69 2 5.74 0 1.4.7 2.22h-15.35q-.18-1.87-.7-3.39-.36-.47-.65-.47-.23 0-.53.47-1.46 6.85-5.39 8.9-1.64 1.23-1.64 2.81 0 1.29 1.03 2.2 1.02.91 2.6.97 2.17-.12 3.84-2.26 1.67-2.14 1.79-4.89v-.35h34.69l-2.93 5.86v.12q0 .35.29.35t.88-.35q2.28-1.76 5.33-3.11 3.05-1.35 5.57-1.7 1.17 0 .94-.59-.36-.93-2.88-3.8-2.52-2.87-3.34-3.23h-.11q-.35 0-.82.47l-2.35 1.99h-16.29q2.52-1.05 2.47-4.8-.18-1.93-2.64-3.14-2.46-1.2-6.51-1.55zm-12.42 24.85l-7.26-.36 1.87 5.86q3.81-.7 7.5-1.05h7.74q-2.93 6.85-8.41 12.83t-12.34 10.2q-.7.64 0 .82 7.33-1.59 13.66-6.62 6.32-5.04 11.54-13.01V57.6q-.35 4.92-.47 10.72.12.12.82.12 1.64 0 3.31-.61 1.67-.62 1.96-1.62-.35-5.85-.46-13.06V39.79h1.64q1.11 7.73 5.53 13.83 4.43 6.09 11.11 9.08.7.29.88.29.35 0 .41-.41 1.7-2.81 4.92-4.04.35-.29.35-.47 0-.29-.35-.47-4.28-.64-8.23-3.13-3.96-2.49-7.01-6.36-3.04-3.75-4.57-8.32h17.23q.64-.18.59-.94-1.82-4.22-5.04-6.91-.35-.12-.41-.12-.3 0-.53.23l-3.05 3.29h-13.47q-.18-4.16 1.4-6.45 1.47-1.64 1.17-1.76-.35-.58-3.34-1.52-2.98-.94-4.62-1.17h-.06q-.24 0-.24.47l.18 2.11.12 1.17.17 3.86.06 3.29h-14.3zm61.17-20.86q-1.17-.82-2.66-1.73-1.5-.91-2.26-1.32-.06-.06-.23-.06-.29 0-.29.82t.05 1.11q.12.71.3 2.17.06.53.06 3.93v13.36q-.06 3.69-.36 7.03.36.17.94.17 1.17 0 2.26-.67 1.08-.67 1.26-1.73v-.47h13.94v4.57h-13.71q-2.99-.11-6.33-.35l1.88 4.81q3.81-.35 7.5-.35h10.66v4.33h-18.75q-2.93-.06-6.21-.35l1.88 4.92q3.63-.35 7.5-.35h45.11q.06.06.36.06.64 0 .82-.88-.36-.76-2.99-3.28-2.64-2.52-3.46-2.93-.7.17-1.41 1.05l-1.64 1.76H406.7v-4.33h20.27q.06.05.12 0 .46 0 .35-.71-.18-.7-1.85-2.93-1.67-2.22-2.96-3.63 1.94-.64 2.11-1.99-.29-2.93-.35-6.21v-9.96q.35-2.23 1.76-3.29.29-.29.23-.7-.23-.64-1.75-2.05-1.53-1.41-2.23-1.58-.53 0-.76.23-.18.06-1.82 1.53h-30.59zm-.58 7.15q-.18-1.59 1.29-3.05h12.3v14.18h-13.59V21.63zm18.4-3.05h12.77v14.18h-9.37q2.05-2.23 4.33-6.21.7-1.35 1.41-1.76 1.99-.7 1.87-1.41-.35-.41-2.6-1.75-2.26-1.35-2.79-1.53h-.23q-.47 0-.59.35-.58 6.45-3.4 12.31h-1.75V19.05l.35-.47zm-14.18 3.05q-.53 0-.53.29 0 .23.53.88 1.7 2.05 1.76 5.5-.18 2.52 2.1 2.58 1.41-.11 2.14-.85.74-.73.74-1.84 0-1.06-.59-2.23t-1.58-2.05q-2.05-1.76-4.57-2.28zm25.9 15.46v1.64q.23.41 1.23.41.64 0 1.58-.17l-1.99 2.69H406.7v-4.57h12.07zm-.12 18.29h-.12q-.29 0-.29.29 0 .41.41.99 4.57 3.75 5.27 8.73.06 2.99 3.28 3.4 1.53-.23 2.35-1.17.82-.94.82-2.34 0-1.47-1-3.11-.99-1.64-2.69-2.87-3.46-2.46-8.03-3.92zm-10.9.46q-.59.06-.59.47 0 .3.24.71 1.87 2.93 1.87 6.09l-.11 1.7q-.06.12-.06.58 0 1.88 2.75 2.23 1.58-.12 2.64-1.29 1.05-1.17 1.11-2.46-.12-2.58-2.22-4.63-2.11-2.05-5.63-3.4zm-19.22.59q-.23-.53-.58-.53-.36 0-.59.41-1.99 6.57-7.97 7.91-1.11.47-1.11 1.88 0 .99.67 1.61.68.61 1.91.61 2.75 0 4.86-1.78 2.11-1.79 2.46-4.19.41-2.7.35-5.92zm7.27-.47h-.12q-.29 0-.29.29 0 .47.41 1.23 1.17 2.47 1.17 5.4 0 1.11-.12 2.05l-.12.82q0 1.87 2.11 2.11 3.29-.65 3.29-3.81 0-1.23-.53-2.52t-1.41-2.29q-1.81-2.17-4.39-3.28z"/></svg>