<svg viewBox="0 0 446 80" xmlns="http://www.w3.org/2000/svg"><path d="M37.14 58.54q-.7.82-2.34 2.28-2.52 2.17-5.68 4.69-.24.24-1.03.47-.79.23-1.55.23-.94 0-1.26-.17-.32-.18-.97-1.06-.64-.82-.7-3.22V46.23h-5.39q-.24 0-.88-.23-.94-.35-1.23-1.87v-.06q0-.24.35-1 .35-.94 1.64-1.17h5.51v-8.09h-3.16l-.47.47v.47q-.12.35-.88.79-.76.44-1.29.44-.35 0-1.23-.29-.24 0-.68-.65-.44-.64-.44-1.11 0-.76.42-1.52.17-.24 2.51-5.57 2.41-5.39 4.16-12.95-.11-.12.53-1.11.53-1 2.17-1l1 .65q.88.58.88 2.28-.53 2.23-.71 3.99h8.32q.24 0 1 .41.82.46.99 1.81v.06l-.23 1q-.35.93-1.76 1.05h-9.72l-2.47 6.45h11.96q.23 0 .99.41.82.47 1 1.81v.06l-.23 1q-.36.94-1.76 1.05H28.3v8.09h7.03l.82.41q.76.41 1.05 1.82 0 .76-.38 1.37-.38.62-1.26.73H28.3v13.13q-.06.06-.06.23 0 .24.29.82-.12.06 1.06-.35 0 .18 3.51-3.75-.06.06-.06.18l.76-.88q0-.18.59-.47t.94-.29q.7 0 1.64.53l.53 1.05q.23.64.23.94 0 .58-.59 1.17zm34.81-3.28q.18.41.18 1.46 0 1.94-.71 4.92-.7 2.58-2.11 3.96-1.4 1.38-3.63 1.2h-5.92q-.35 0-1.52-.29-1.47-.41-2.46-1.41-1-.99-1.12-2.64V43.42h-4.1l-.29 2.87q-.23 2.76-1.41 6.68-1.34 4.51-3.95 8.03-2.61 3.52-6.53 5.57-.06.06-1.35.23-1.23.18-2.29-.94-.23-.06-.23-1.29 0-.99 1.29-1.87.58.18 4.86-4.1 4.28-4.28 5.1-15.18h-3.99q-.06.06-.23.06-.35 0-1.52-.35-1.53-.47-1.41-3.34V26.43q-.29-.29.35-2.58.53-2.28 3.99-2.46h2.51q-.58-.41-2.98-4.34l-.47-1.17q-.18 0-.47-.99-.35-.94.94-2.17.11-.12 1.23-.35.17-.06.64-.06.76 0 1.29.53 1.17 1.58 1.64 2.4 1.76 2.87 2.58 4.39.23.35.47 1.76h5.74q-.12-.12.47-1.76.7-1.11 1.79-3.01 1.08-1.91 1.61-3.2-.06-.17.64-.79.71-.61 1.35-.61.41 0 1.29.23 1.17 1.17 1.17 2.05 0 .47-.7 2.17l-.59 1.29q-.94 1.99-1.99 3.63h2.34q.24-.06 1.88.53 1.7.58 1.76 4.04V40.2q0 1-.82 2.02-.82 1.03-2.23 1.2h-5.27v17.05q0 .18.17.82.29.82 2.17.94h3.4q.06.06.17.06.47 0 1.41-.53 1.41-.82 1.46-6.15v-.06q0-.29.24-.7.35-.76 1.99-1l1.06.35q.82.41 1.11 1.06zM60.88 39.09l.17.05q.24 0 .76-.17.82-.24.94-1.76V27.6q0-.64-.32-1.2-.32-.56-1.09-.67H44.82q-.64 0-1.29.49-.64.5-.58 1.38v9.61q-.12.18 0 .65.11.46.49.85.38.38 1.15.38h16.29zm16.99-9.38v-7.15q-.18-.23.52-2.17.71-1.87 4.4-2.16h18.05l-1.53-3.05q-.17-.06-.35-1.29-.17-1.23 1.29-2.34.18-.18 1.41-.18 1.17 0 2.22 1.35l1 1.87q.7 1.29 1.7 3.64h19.57q.29-.12 2.34.7 2.05.88 2.23 4.34l-.12 2.05q-.17 1.64-.82 3.92 0 .18-.7 1.06-.59.93-2.23.82-.12.06-.56-.21-.43-.26-.82-.76-.38-.5-.38-1.08 0-.53.12-1 .18-.41.38-1.32.21-.91.21-1.67 0-2.11-1.53-2.28H84.08q-.7-.3-1.29 1.64v5.27q.06.06-.41 1-.47.88-2.17.99h-.17q-.36 0-1-.23-1.06-.24-1.17-1.76zm53.32 15.53q.88.47 1.17 2.17 0 .7-.53 1.4-.53.71-1.58.82h-18.52q.36.59.36 5.75 0 4.92-3.4 9.19.06.3-1.41.94-1.46.65-3.46 1.17-1.99.53-3.69.53-4.16 0-10.08-1.46-.17 0-1.05-.71-.76-.41-.76-1.64 0-.52.06-.7-.06-.18.58-1 .59-.76 2.35-.64.58.41 3.25.91 2.66.49 4.95.49 3.28 0 5.16-1.17.23.06.87-.99.65-1.06 1.18-2.58.52-1.52.52-2.99 0-1.93-.58-5.1H78.45q-.35 0-.99-.23-1.06-.35-1.12-1.99-.05-.06.41-1.18.41-1.05 2.05-1.4h24.38l-1.88-1.88q-.23 0-1.17-1.11-.99-1.11-1.29-3.22-.23.06.12-.35.47-.47 1.23-1 1.82-1.41 11.08-4.39.7-.18 1.96-.74 1.26-.55 1.2-.67H87.42q-.35 0-1-.24-1.11-.35-1.17-1.99-.06-.06.41-1.05.41-.94 2.17-1.29H119q.06-.06 1.46.47 1.29.58 1.82 2.58v.11q0 .3-.35 1.47-.41 1.46-2.23 2.28l-1.34.59q-1.82.76-4.69 1.76-5.8 2.22-7.79 3.16-.88.41-.88.59 0 .11.23.11-.29.12 1.11 1.88.12 0 3.05 2.93h20.86q.06-.06.94.41zm-25.96-5.22h.06-.06zm81.39-24.14q-.35-1.4-1.29-1.81-.82-.41-1.06-.41h-40.89q-1.65.23-2 1.17-.35.94-.23 1.05.29 1.53 1.29 1.88.88.35 1.17.23h40.66q1.47-.06 1.94-1.05.41-.76.41-1.06zm-46.64 43.01q-1.35 1.23-1.41 1.99-.06.82 0 .88.64.65 1.85 1.03 1.2.38 1.9.38 11.25-.06 16.64-.29l6.33-.18 1.82-.12 10.89-.7 5.57-.35 1 2.28q.35.94.17.76 1.17 1.7 2.4 1.64 1.24 0 1.35-.11 1-.71 1-2.35 0-1.23-.29-1.52-10.79-18.46-11.14-18.1-1.35-1.12-2.34-1.12-2.23 0-2.23 1.82l.12.64q.41 1.06.59 1.23 2.81 3.87 5.21 7.8l2.17 3.69q-3.28.41-8.56.79-5.27.38-6.79.38l-19.28.29q-1.11 0-1.29-.06h-.41q6.86-8.67 11.37-16.46 4.63-8.09 4.92-8.85h26.48q1.41-.12 1.82-1.05.41-.77.41-1.06-.29-1.4-1.17-1.81-.82-.41-1.06-.41h-48.75q-1.64.23-1.99 1.17-.35.93-.23 1.05.11 1.53 1.11 1.88.94.35 1.11.23h17.23q-5.33 9.9-10.61 16.99-5.62 7.39-5.91 7.62zm57.89-29.18v-7.15q-.18-.23.52-2.17.71-1.87 4.4-2.16h18.05l-1.53-3.05q-.17-.06-.35-1.29-.17-1.23 1.29-2.34.18-.18 1.41-.18 1.17 0 2.22 1.35l1 1.87q.7 1.29 1.7 3.64h19.57q.29-.12 2.34.7 2.05.88 2.23 4.34l-.12 2.05q-.17 1.64-.82 3.92 0 .18-.7 1.06-.59.93-2.23.82-.12.06-.56-.21-.43-.26-.82-.76-.38-.5-.38-1.08 0-.53.12-1 .18-.41.38-1.32.21-.91.21-1.67 0-2.11-1.53-2.28h-40.19q-.7-.3-1.29 1.64v5.27q.06.06-.41 1-.47.88-2.17.99h-.17q-.36 0-1-.23-1.06-.24-1.17-1.76zm53.32 15.53q.88.47 1.17 2.17 0 .7-.53 1.4-.53.71-1.58.82h-18.52q.36.59.36 5.75 0 4.92-3.4 9.19.06.3-1.41.94-1.46.65-3.46 1.17-1.99.53-3.69.53-4.16 0-10.08-1.46-.17 0-1.05-.71-.76-.41-.76-1.64 0-.52.06-.7-.06-.18.58-1 .59-.76 2.35-.64.58.41 3.25.91 2.66.49 4.95.49 3.28 0 5.16-1.17.23.06.87-.99.65-1.06 1.18-2.58.52-1.52.52-2.99 0-1.93-.58-5.1h-28.13q-.35 0-.99-.23-1.06-.35-1.12-1.99-.05-.06.41-1.18.41-1.05 2.05-1.4h24.38l-1.88-1.88q-.23 0-1.17-1.11-.99-1.11-1.29-3.22-.23.06.12-.35.47-.47 1.23-1 1.82-1.41 11.08-4.39.7-.18 1.96-.74 1.26-.55 1.2-.67h-27.01q-.35 0-1-.24-1.11-.35-1.17-1.99-.06-.06.41-1.05.41-.94 2.17-1.29H239q.06-.06 1.46.47 1.29.58 1.82 2.58v.11q0 .3-.35 1.47-.41 1.46-2.23 2.28l-1.34.59q-1.82.76-4.69 1.76-5.8 2.22-7.79 3.16-.88.41-.88.59 0 .11.23.11-.29.12 1.11 1.88.12 0 3.05 2.93h20.86q.06-.06.94.41zm-25.96-5.22h.06-.06zm34.98 23.38q3.22-5.92 4.1-15.82.3-4.8.3-6.38l-.06-2.58V22.09q.11-1.17.7-1.4.47-.24.7-.24h42.43q1.69-.11 2.16-.99.47-.94.41-1-.35-1.52-1.4-1.93-.88-.41-1.17-.41h-18.52l-1.88-3.87q-.87-1.35-2.05-1.35-1.17 0-1.34.18-1.41.88-1.41 1.93 0 1.17.23 1.23l.71 1.88h-18.17q-4.45.17-5.21 2.46-.76 2.34-.53 2.81v17.7q-.12 11.48-1.87 16.7-1.82 5.21-2.23 5.5-.41.82-.41 1.7t.53 1.44q.52.55 1.29.55 1.46 0 2.69-1.58zm50.04-33.69q-.12-1.52-.76-1.93-.59-.41-.76-.41h-26.49l1.17-3.17.12-.88q0-.99-.61-1.61-.62-.61-1.5-.61-1.23 0-2.11 1.23l-2.11 5.04h-8.43q-1.18.17-1.82.79-.65.61-.65 1.38 0 .76.62 1.31.62.56 1.61.62h7.03l-3.63 8.08q-.53 1.06-.53 2.17 0 1.29.88 2.05.88.77 2.7.82h13v6.45h-19.21q-1.23.17-1.94.82-.7.64-.7 1.46 0 .77.67 1.38.68.62 1.73.68h19.45v10.37q.06.82.62 1.29.56.46 1.44.46.87 0 1.49-.55.61-.56.79-1.56V55.38h18.16q1.35-.12 1.76-1 .35-.82.35-1-.23-1.46-1.05-1.93l-.82-.41h-18.4v-6.45h15.7q.94-.11 1.47-.79.53-.67.53-1.2-.3-1.35-1.12-1.76l-.88-.35h-15.7v-5.27q-.29-1.35-1.17-1.64-1-.29-1.06-.24-1.52.3-1.87 1.18-.35.82-.24.93v5.04h-9.84q-1.17-.17-1.17-.76 0-.41.23-.64l3.4-7.62h27.89q.76-.06 1.26-.68.5-.61.5-1.08zm33.4-17.46l-.88-.12q-.64 0-1.14.38-.5.38-.79.85-.3.47-.24.53-3.4 8.32-8.67 13.3-5.27 4.92-5.74 4.98-1.41 1.06-1.41 2.17 0 1.29.24 1.35.93 1.4 2.05 1.23 1.17-.12 1.23-.29 1.4-.77 3.34-2.44 1.93-1.67 2.63-2.49v32.87q.12 1.41 1 1.82.76.41 1 .41 1.69-.23 2.16-1.23.47-.94.41-1v-.23h31.18q1.34-.35 1.75-1.29l.36-1.05q-.24-1.29-1.18-1.64l-.93-.3H355.6v-8.08h13.36q.82-.12 1.29-.82.47-.71.47-1.29-.29-1.41-1.11-1.82-.77-.41-.88-.41H355.6v-8.09h12.89q.82-.11 1.29-.82.47-.7.47-1.28-.29-1.41-1-1.82-.58-.41-.76-.41H355.6v-7.38h13.95q.88-.12 1.37-.85.5-.74.5-1.38-.23-1.47-1.05-1.93l-.82-.41h-13.48q.59-.65.47-1.18-2.17-8.14-2.58-8.43-.94-1.29-2.17-1.29l-1.23.11q-1.35 1-1.29 1.94 0 .88.12.99 2.11 7.27 2.11 7.86h-10.2q4.28-7.21 3.99-7.86.17-1.58-.65-2.4-.76-.76-.99-.76zm-20.86 16.99q.47 1.53 1.41 1.53.93 0 1.05-.12 1.46-.94 1.7-2.05.23-1.17.18-1.23-1.53-5.28-2.58-8.03l-1.29-3.46q-1.17-1.17-2.29-1.23-1.17 0-1.23.06-1.46.94-1.29 2.11.18 1.11.35 1.17.88 2.23 2.03 5.66 1.14 3.42 1.49 4.65l.29.59q.12.41.18.35zm17.69-1.4h10.55v7.38h-12.19v-5.74q0-.71.36-1.09.35-.38.73-.5.38-.11.55-.05zm10.55 11.71v8.09h-12.19v-8.09h12.19zm-19.8 4.34q.17-1.41-.65-2.23-.88-.7-.99-.7l-.94-.12q-.59 0-1.09.33-.49.32-.76.7-.26.38-.14.5-2.35 8.32-5.8 13.59-3.34 5.22-3.81 5.57-.76.99-.76 1.76 0 .23.41 1.05.41.82.58.94.41.23 1.06.23 1.4 0 2.57-1.17 4.98-6.39 7.62-13.13 2.64-6.91 2.7-7.32zm7.61 8.09h12.19v8.08h-12.19v-8.08zm90.94 8.43V19.98q-.17-4.1-2.23-4.92-2.1-.82-2.34-.58h-40.66q-3.64.29-4.28 2.22-.7 2-.53 2.23v41.48q.12 1.76 1.14 2.82 1.03 1.05 2.5 1.4 1.23.24 1.64.18h39.96q3.57-.18 4.27-2.11.65-1.93.53-2.29zm-45.7-.82V20.45q-.06-.76.47-1.14.52-.38 1.17-.38h38.32q.76.12 1.08.67.33.56.33 1.09v39.14q-.12.35-.68.55-.56.21-.73.03h-38.32q-1.35 0-1.52-.41-.24-.29-.12-.41zm35.39-31.05V26.2q.06-3.4-1.76-3.99-1.87-.53-2.11-.35h-21.09q-3.52-.12-3.99 1.76-.47 1.87-.23 2.11v2.81q-.18 2.05.82 3.02 1 .96 2.58.96.47 0 .82-.11h21.09q2.93.11 3.46-1.76.53-1.82.41-2.11zm-24.73-1.41q.06-1.05.65-1.29.41-.23.64-.23h17.7q.64.12.9.59.27.46.27.93-.12 1.35-.59 1.53-.47.23-.58.11h-17.7q-.58 0-.94-.32-.35-.32-.41-.73-.05-.35.06-.59zm-1.4 22.27v-9.61q0-.53.35-.73.35-.21.82-.21h20.86q1.76.59 1.4 1.17v8.91q.12 1.87 1 2.4.76.47 1 .41 1.52-.29 1.93-1.35.41-.87.41-1.23v-9.61q0-3.34-1.88-3.98-1.93-.53-2.22-.35h-23.67q-3.7-.18-4.11 1.99-.46 2.34-.23 2.58v9.61q.12 1.7 1 2.17.93.47.99.41 1.53-.3 1.94-1.35.41-.88.41-1.23zm-6.21 8.79q.82 1.4 2.05 1.46h.58q.7 0 .76-.06 4.93-1.11 8.35-3.45 3.43-2.35 5.31-5.51 1.58-2.52 2.16-4.51.41-1.41.41-2.46 0-1.23-.93-2-.88-.7-1-.7-1.58.18-2.11 1.23-.53 1.17-.47 1.23-.47 3.11-2.28 5.45-1.82 2.34-4.63 3.87-2.58 1.35-4.16 1.87-1.76.59-1.82.53-1.81.7-2.05 1.82-.29 1.17-.17 1.23zm35.62.47l.12-.88q0-.82-.33-1.29-.32-.47-1.2-1.35-5.56-2.93-9.14-4.51l-2.99-1.23q-1.17-.41-1.69-.41-.47 0-1.09.58-.61.59-.44.77-.06.17-.06.58 0 .59.33 1.09.32.49.73.82.41.32.53.32 3.57 1.52 7.32 3.69l4.39 2.52q.88.35 1.59.35.52 0 1.23-.44.7-.44.7-.61z"/></svg>