<svg viewBox="0 0 449 80" xmlns="http://www.w3.org/2000/svg"><path d="M29.12 17.76h-.18q-.94 0-.99.94.29.76.29 1.46 0 1.11-.53 2.64-3.98 10.37-11.48 18.98-.35.53-.35.7 0 .18.17.18.06 0 .76-.29 6.21-4.63 9.96-11.02 1 .65 2.76.65.82 0 1.11-.06 4.04-.65 8.2-2.23.59-.35.59-.76 0-.41-.53-.82-.82-.65-1.87-.65l-.88.12q-3.69 1.41-8.56 2.35 1.82-2.7 2.93-4.75 1.23-2.4 2.46-3.81.18-.18.18-.47 0-.53-.82-1.35-1.23-1.17-3.22-1.81zm27.54 1.29q-1.06.17-1.18 1.17.3.7.3 1.11 0 2.64-5.1 7.91-.29.47-.29.71 0 .17.17.17.3 0 1.17-.41 3.58-2.34 5.45-3.87 2.11-1.64 3.7-2.69.35-.35.35-.7 0-.88-1.5-2-1.49-1.11-3.07-1.4zm-10.32 10.9q.3.17.53.17.53 0 .88-.67.35-.68.35-1.56l-.12-.87q-1.52-3.05-5.27-3.64-.17-.06-.58-.06-.88 0-.47.77 2.05 3.75 4.68 5.86zm10.55 12.18q1-.52 1-.99 0-.24-.3-.53-.35-.29-.35-.7 0-.59.65-1.59 1.05-1.58 2.99-2.75.35-.47.35-.88 0-1.17-1.73-2.28-1.73-1.12-3.37-1.12-.53 0-.65.06-2.16 1.06-5.59 2.08-3.43 1.03-6.71 1.55-1.88-.23-3.52-.35-.41.24-.41.71 0 .35.3.82 2.28 2.57 3.86 7.03.53 1.17 1.18 1.17.35 0 .7-.35.12 1.7-.59 3.28-3.92 7.97-13.24 14.47-.47.35-.47.53 0 .12.47.12.53 0 .7-.06 9.03-3.58 15-13.07 1.06-1.93 1.88-2.81.12-.24.12-.59 0-.99-1.64-2.11l3.04-.47q.24.71.35 2.93 0-.05-.11.88l-.18 1.64q-.23 1.64-.29 3.93-.06.29-.06 1.41 0 3.92 1.93 5.68 1.94 1.76 6.45 1.76 8.79-.06 11.95-2.52.82-.53.82-1.23l-.12-.53q-1.64-3.34-1.52-7.5-.17-.18-.47-.18-.17 0-.47.18-.41 3.11-1.46 4.83-1.06 1.73-2.93 2.49-1.7.71-5.1 1-.29.06-1.23.06-5.92 0-5.92-5.68 0-1.7.41-3.11l.41-1.88q.3-1.64.82-2.63.06-1.23-.93-1.99l3.98-.71zm-1.99-3.4q-.24 1.23-1.41 1.53-4.28 1.35-8.32 2.22-.82-2.69-1.52-6.09 4.16-.7 10.31-2.34h.24q.58 0 .87.17.3.18.41.65-.11 1.99-.58 3.86zM35.21 41.9l-4.33 1.29q.29-1.23.29-1.29.23-1.41.23-1.47 0-.35-.23-.64-.24-.29-.88-.82 3.46-.59 6.21-1.64.47-.29.47-.65 0-.41-.41-.82-.7-.7-2.05-.7-.71 0-.94.06-5.39 1.7-9.73 2.46-.58.18-.58.53 0 .17.58.58 1.06.59 3.75.53.71 1.76.59 4.34l-7.62 1.99q-.47.17-.47.35 0 .23.71.59 1.4.64 2.63.64 1.47 0 4.52-.64-.41 6.03-3.29 9.49-.17.41-.17.99 0 1.23.64 2.29.65 1.05 1.47 1.05.53 0 .99-.46 3.11-3.75 8.56-7.5.82-.65.82-.88 0-.24-.53-.24-.47 0-.64.06-3.58 1.58-5.04 1.58-.82 0-.94-.52.18-3.17.7-6.33 4.28-.88 7.27-2.11.94-.35.94-.88 0-.35-.41-.7-.82-.65-2.05-.65l-1.06.12zm69.49-22.27q.71.18 1.32-.52.62-.71.62-1.76 0-.47-.3-1.47-.88-1.29-2.55-1.9-1.66-.62-3.6-.62-1.23 0-1.93.3-.82.47-.35.93 1.23 1.41 3.31 2.96 2.08 1.56 3.48 2.08zm11.84 4.22q-1.29 2.29-3.63 5.04.29.41.7.47 5.39-3.16 10.19-3.87.65-.29.65-.82 0-.7-1.14-1.96-1.15-1.26-2.85-2.2-1.69-.94-3.45-.94-.82 0-1.06.06-4.04 1.12-11.42 2.43-7.39 1.32-14.48 2.26-.23-1.35-.93-2.93-.35-.41-.65-.41-.23 0-.52.53-1.12 4.57-2.93 7.03-.47.94-.47 1.99 0 1.06.41 1.7.41.65 1.11.65.41 0 .82-.24 2.52-1.99 3.28-6.91.06.06.53.06 1.29 0 2.75-.24 5.45-.64 14.36-1.99l2.28-.35 3.64-.65q.7-.11 1.4-.11 1.53 0 1.53.87l-.12.53zM96.85 57.6q-.58.24-.23.82 3.28 2.93 4.92 6.74.17.47.64.47.59 0 1.7-.76 1.88-1.23 3.28-4.1 1-2.52 1-8.97 0-2.23-.06-2.87 0-.53-.82-5.27 9.79-1 20.16-1.41.64 0 1.11-.23.47-.24.47-.65 0-.82-1.47-1.58-1.87-1-3.86-1-.76 0-2.23.3-3.69.76-7.91 1.37-4.22.62-6.85.85-.36-1.87-1.18-3.04 2.99-3.7 7.03-5.51.36-.3.36-.65 0-.64-.88-1.52t-2.11-1.52q-1.17-.59-2.23-.59-.41 0-.53.06-2.4.94-5.27 1.58-2.87.65-8.03 1.47l-2.05.35q-.52.17-.52.52 0 .36.82.88 1.05.71 2.52.71l1.28-.12q2.23-.82 5.39-1.64 3.17-.82 4.69-.94.76 0 .76.82 0 1.29-2.05 4.92-2.16-1.11-3.28-1.17h-.23q-.76 0-.76.35 0 .3.64.94 1.64 1.76 2.46 4.69-11.72 1.76-23.44 2.46-.82.18-.82.53 0 .41 1 1.11 1.52 1.11 3.52 1.11.7 0 .87-.06 8.73-1.64 19.46-3.16.58 4.16.58 7.27 0 5.91-1.87 7.61-.41.24-1.12.24-1.69 0-4.86-1.41zm61.53-32.81q3.8-.12 9.66-.85t8.15-1.38q.76-.23.76-.7 0-.35-.82-1-1.29-.93-3.46-.93-.82 0-1.05.05-4.4.94-9.29 1.65-4.89.7-8.29.82-1.29.17-1.29.58 0 .29.53.65 1.4 1.05 5.1 1.11zm-11.25 30.47q-.88.58-.88 1.87 0 1.12.64 2.02.65.91 1.52.91.12 0 .59-.11 4.69-2.47 10.58-3.96 5.88-1.49 15.2-2.84 2.81 4.57 5.51 7.62.59.41 1.05.41.71 0 1.09-.91.38-.91.38-2.14 0-1.11-.29-2.17-1-2.87-3.58-5.16-2.58-2.28-5.92-3.51-1.23-.47-1.46-.47-.35 0-.35.23 0 .36.64 1.18 1.47 2.16 1.99 3.28-10.6 1.58-19.1 2.11h-.17q-.77 0-.77-.41 0-.12.47-.76l.94-1.18q3.28-4.27 5.63-6.85 2.34-2.58 4.8-4.4.47-.35.47-.7 0-.23-.23-.53l-1.18-1.46q6.33-.41 13.42-.41 5.45 0 9.67.29 1.99.06 1.99-.82 0-.53-.56-1.17-.55-.65-1.31-1.17-2.99-1.41-5.8-1.41l-1.47.12q-21.21 3.63-39.02 3.75-1.17.12-1.17.58 0 .47.82 1.12 1.93 1.52 4.57 1.46l14.76-2.11q.12 1.41-1.35 3.99-1.46 2.58-4.16 5.86-2.46 2.98-4.68 5.18-2.23 2.2-3.28 2.67zm77.57-35.63q.71.18 1.32-.52.62-.71.62-1.76 0-.47-.3-1.47-.88-1.29-2.55-1.9-1.66-.62-3.6-.62-1.23 0-1.93.3-.82.47-.35.93 1.23 1.41 3.31 2.96 2.08 1.56 3.48 2.08zm11.84 4.22q-1.29 2.29-3.63 5.04.29.41.7.47 5.39-3.16 10.19-3.87.65-.29.65-.82 0-.7-1.14-1.96-1.15-1.26-2.85-2.2-1.69-.94-3.45-.94-.82 0-1.06.06-4.04 1.12-11.42 2.43-7.39 1.32-14.48 2.26-.23-1.35-.93-2.93-.35-.41-.65-.41-.23 0-.52.53-1.12 4.57-2.93 7.03-.47.94-.47 1.99 0 1.06.41 1.7.41.65 1.11.65.41 0 .82-.24 2.52-1.99 3.28-6.91.06.06.53.06 1.29 0 2.75-.24 5.45-.64 14.36-1.99l2.28-.35 3.64-.65q.7-.11 1.4-.11 1.53 0 1.53.87l-.12.53zM216.85 57.6q-.58.24-.23.82 3.28 2.93 4.92 6.74.17.47.64.47.59 0 1.7-.76 1.88-1.23 3.28-4.1 1-2.52 1-8.97 0-2.23-.06-2.87 0-.53-.82-5.27 9.79-1 20.16-1.41.64 0 1.11-.23.47-.24.47-.65 0-.82-1.47-1.58-1.87-1-3.86-1-.76 0-2.23.3-3.69.76-7.91 1.37-4.22.62-6.85.85-.36-1.87-1.18-3.04 2.99-3.7 7.03-5.51.36-.3.36-.65 0-.64-.88-1.52t-2.11-1.52q-1.17-.59-2.23-.59-.41 0-.53.06-2.4.94-5.27 1.58-2.87.65-8.03 1.47l-2.05.35q-.52.17-.52.52 0 .36.82.88 1.05.71 2.52.71l1.28-.12q2.23-.82 5.39-1.64 3.17-.82 4.69-.94.76 0 .76.82 0 1.29-2.05 4.92-2.16-1.11-3.28-1.17h-.23q-.76 0-.76.35 0 .3.64.94 1.64 1.76 2.46 4.69-11.72 1.76-23.44 2.46-.82.18-.82.53 0 .41 1 1.11 1.52 1.11 3.52 1.11.7 0 .87-.06 8.73-1.64 19.46-3.16.58 4.16.58 7.27 0 5.91-1.87 7.61-.41.24-1.12.24-1.69 0-4.86-1.41zm71.49-38.79q-1.64-.52-3.84-2.14-2.2-1.61-3.31-3.13-.12-.24-.12-.29 0-.41 1.7-.41h.41q3.93.35 5.98 1.87.52.53.82 1.23.29.7.29 1.35 0 .7-.35 1.17t-1 .47l-.58-.12zm20.27 28.36q1.05 1.06 1.05 1.58 0 .71-1.28.77-1.82-.24-4.99-.24-2.1 0-2.75.06l-8.2.41q.06.53.06 2.17 0 1.23-.06 1.52-.06.88-.18 4.22l-.06 2.4q-.17 3.23-.93 4.98-.36.82-.65.82-.41 0-.76-1.64-.7-4.39-.7-8.96 0-2.05.23-5.16-5.39.59-15.23 2.35-1.12 0-2.41-.77-1.29-.76-1.29-1.4 0-.71 1.7-.88 5.34 0 17.23-1.64v-5.63q-5.98.59-10.19 2.35-.88.23-1.53-.53-.64-.76-.64-1.82 0-.82.41-1.17 3.92-2.23 6.79-8.2-2.63.47-4.21.47-1.23 0-2.03-.27-.79-.26-.79-.67 0-.53 1.53-.94 3.22-.35 7.15-1.29 1.4-2.58 1.4-4.8l-.12-1.17q-4.45.82-8.2.93-2.75-.11-4.33-.58-.24.76-.36 1.99-1.64 12.25-5.09 20.36-3.46 8.12-10.02 13.16-2.35 1.46-2.35.99 0-.29.71-1.23 12.94-14.35 13.59-34.69-.29-1.52-1.06-2.93v-.17q0-.94 1.06-.94.41 0 .59.06l1.58.7q1.29.65 1.81.82 12.37-.35 22.62-3.51l1.11-.12q1.7 0 2.88.82.58.35.58.7 0 .59-1.76 1.06-4.04 1.23-11.48 2.22.12 0 .35.24 2.23.53 2.23 1.52l-.12.47q-.94 1.52-2.34 3.52l5.62-1.06 1.17-.12q1.64 0 2.64.77.47.35.47.64 0 .65-1.7 1.17-2.64.65-9.84 1.64l-4.93 7.27q-.17.23-.17.47 0 .35.47.35h.17q3.11-.53 6.57-.7.05-.24.05-1.06 0-2.22-1.23-4.8-.06-.18-.06-.41 0-.47.77-.53 4.63 1.05 3.98 2.81-.64 1.64-.59 3.63 1.94-.46 7.27-1.52.29-.06 1.11-.06 2.17 0 3.11 1.06.41.47.41.76 0 .76-1.82.94-4.1.17-10.08 1.17-.17 3.75-.11 5.74 5.68-.53 11.13-1.64l.88-.06q2.17 0 4.16 1.23zm27.19-18.63l-2.82.7q.06-6.5 1.88-12.42.12-1-1.35-1.87-1.46-.88-3.69-1.41-.94.06-.94.94 1.12 1.7 1.44 3.42.32 1.73.32 4.49 0 5.27-.23 7.67-7.33 2.05-10.32 2.35-.58.17-.58.41 0 .23.53.7.93.88 3.22.88 3.51-.24 6.79-1.17-6.09 10.95-12.89 16.87-.41.59-.41.82 0 .59 2.17-.7 6.21-4.1 11.25-10.9-.23 7.15-1.29 15.12l-.23 1.11-.41 1.64q-.18.59-.18 1.23 0 1.41.88 3.22.88 1.82 1.58 1.82.53 0 .77-.88.35-1.11.41-2.17.76-9.37.82-21.56 1.75 1.53 3.39 2.23l.53.12q.53 0 .85-.44.32-.44.32-1.15 0-.82-.44-1.55-.44-.73-1.26-1.08-1.17-.41-2.11-.41-.64 0-1.17.17l.12-4.33q1.7-.18 4.8-1.41 1.29-.59 1.29-1.41 0-.46-.58-.82-.59-.35-1.47-.35l-.99.12zm27.77-9.26q-.41-.23-.88-.23-.47 0-.64.47-.53 1.75-2.38 3.39-1.84 1.64-4.54 2.93.06-3.04 1.88-8.79.29-2.22-3.17-3.39h-.23q-1.06 0-1.06.7l.12.47q.82 1.93.82 5.1 0 2.46-.58 7.09l-.12 2.63q0 3.87 1.61 5.6 1.61 1.73 5.54 1.73 3.57 0 6.94-.71 3.37-.7 3.37-1.99 0-.47-.23-.7-1.06-1.7-1.88-6.56-.23-1.06-.59-1.06-.17 0-.46.47-.36 3.16-.8 4.6-.43 1.43-1.43 2.08-1.58.59-4.45.59-1.23 0-2.82-.24-2.46-.53-2.46-4.8 0-.36.12-1.76 4.57-2.05 10.55-3.87.35-.17.35-.53 0-.46-.53-1.17-.99-1.23-2.05-2.05zm-19.45 14.77q-.47-.06-.59-.71v-6.56q4.34.18 7.5-1.4 1.11-.59 1.11-1.24 0-.41-.67-.73t-1.61-.32l-.59.06-2.52.99q-1.75.77-3.1.88l-.18-3.98q0-.53.06-.47.35-1.05-1.08-1.96-1.44-.91-3.14-.97-.47.18-.47.65l.12.52q1.11 1.53 1.7 4.4.59 2.87.59 6.44 0 1.64-.06 2.05-.24 3.52-1.53 4.69-.29.47-.29 1.17 0 1.12.5 2.11.5 1 1.14 1 .18 0 .65-.29 3.28-3.99 8.43-8.79 1-1.18 1-1.29 0-.12-.18-.12-.11 0-1.17.47-3.4 2.4-5.62 3.4zm5.62 3.51h-.17q-1.23 0-1 1.29.12.47.12.65 0 1.7-1.99 4.98-.88.23-1.35.23-.76 0-1.47-.35-.7-.35-1.52-.35-1.35 0-1.35 1.11 0 .29.18.76 1.35 3.93 1.35 7.62 0 2.4-.65 5.27-.12 1 .5 2.17.61 1.17 1.32 1.17.47 0 .76-.47.53-1.81.7-3.57 2.52.47 4.69.47 2.58 0 5.86-.59 1.11.24 1.87 2.93.77 2.87 1.29 3.58.3.29.53.29.47 0 1-.88 1.93-2.69 1.93-6.39 0-1.58-.23-2.57-.24-1.12-.24-2.76 0-3.75 1.93-6.97v-.06q0-.53-.99-1.29-1.11-.88-2.58-1.46-1.46-.59-2.17-.35-4.16 1.69-9.72 2.34 2.98-2.99 5.04-4.1.23-.18.23-.47 0-.47-.94-1-1.29-.76-2.93-1.23zm8.79 19.57q-.17.47-.58.47-.36 0-1-.53-1.23-1.05-2.87-1.34-3.28.41-8.91.58l.12-4.45q1.05.47 3.16.47 1.18 0 3.99-.24 1.81-.29 2.93-.82.88-.47.88-.93 0-.47-.65-.8-.64-.32-1.52-.32-.53 0-.7.06-2.47.76-8.21.94l-.23-3.63q7.38-.47 12.65-1.64.59.23.94 2.46.29 2.46.29 5.04 0 3.22-.29 4.68zm46.41-41.36q2.34 3.75 2.22 13.47l-1.64.35q-5.45 1.06-10.43 1.76-.93.18-.93.47 0 .18.29.35.76.53 3.1.53 2 0 4.75-.29 2.75-.3 3.11-.36-2.05 5.1-5.72 10.55-3.66 5.45-7.06 8.79-.93 1.11-.93 1.35 0 .41 1.75-.65 3.69-2.22 7.68-7.35 3.98-5.13 6.03-10.34.06 1.81.06 7.38 0 4.75-.06 5.86l-3.16.53-2.7.41q-.7.17-.7.47 0 .23.35.52.88.71 2.58.77l3.63-.12q.12 2.58-.46 6.09-.36 1.76-.36 3.23 0 1.58.47 3.16.71 1.7 1.76 1.82 1.06.11 1.41-4.22 0-1.06.06-1.59 0-1.05.02-2.08.03-1.02-.02-1.84-.06-.94-.06-4.81 3.69-.11 6.68-1.17.64-.35.64-.7 0-.47-.59-.88-.93-.7-2.4-.7-.64 0-.82.06-2.34.58-3.51.7-.24-5.1-.24-15.24 6.39 11.96 10.78 17 1.82 1.81 6.57 1.81 1.87 0 4.1-.29.41 0 .76-.18.35-.17.35-.41 0-.23-.53-.46-5.91-1.82-10.63-5.89-4.72-4.08-10.11-12.16l6.62-1.17q3.58-.59 5.45-1.06.94-.35.94-.88 0-.35-.59-.88-.99-.82-2.46-.82l-1.17.12q-6.74 1.64-10.08 1.99l-.06-3.92.06-2.17q-.17-2.29.59-5.16.12-.7-.7-1.4-.83-.71-2.11-1.17-1-.36-2-.47-.76.17-.76.7 0 .23.18.59zm-16.53 21.68q.18 2.87.18 5.74 0 7.09-1.23 13.59-.18.7-.18 1.52 0 1.65.56 3.11.56 1.47 1.38 1.76 2.22.64 2.22-14.18 0-4.1-.29-12.6l-.06-1.64q-.17-2.52-2.81-3.63l4.98-8.03q2.05-3.16 2.64-3.69.17-.29.17-.59 0-.99-1.4-2.4-1.41-1.41-2.64-1.7h-.47q-.76 0-.76.7 0 .3.18.82.05.12.05.77 0 1.11-.52 3.22-.88 2.64-3.08 6.8t-5.01 8.32q-2.99 4.33-5.51 7.03-.41.58-.41.88 0 .11.18.11.23 0 .82-.29 2.75-1.93 5.48-4.8 2.72-2.88 4.48-5.75.82-.11 1.05 4.93z"/></svg>