<svg viewBox="0 0 300 80" xmlns="http://www.w3.org/2000/svg"><path d="M53.82 57.6l4.02.9-1.14.96-.36 1.74q-.06.36-.39 1.98T55.14 66q-.36 1.08-.78 1.44-.42.36-1.68.78H47.1q-1.5-.3-2.22-.75-.72-.45-1.02-1.89l.18-18.78-1.14.6q-1.38 7.02-2.49 10.65-1.11 3.63-3.9 6.63T28.44 69q2.34-5.22 4.14-11.16-1.5 2.82-3.84 4.62-2.34 1.8-6.06 3.06l-.6 1.26-4.2-8.88 3-.78v-9.3h-4.56v-8.34h4.74v-2.82h-2.04v-2.94q-1.56 1.02-3.12 1.32l5.64-24.36 7.08 2.76-1.08.54-1.02 3.06h3.66l.6-1.2 2.4 9v-3l4.8 1.68-4.8-11.1q3.72.72 6.15 2.28 2.43 1.56 3.75 4.5l1.26.42-5.46 4.2 1.92.66h5.94l.6-1.5q-1.62.6-4.08.72L48 11.34l6.66 3.84q-.48.18-1.32.66-1.56 4.62-4.5 6.42l6.96 1.92-1.32 2.58v18.18h-7.74l-.06-2.04h-5.46l-.12 2.22 2.94 1.02.18-1.56 7.86 1.38-1.14 1.14-.42 14.28.42-.18 2.04-8.76.84 5.16zm-20.16-3.78l1.26-5.4q.3-1.74.54-2.52h-2.28V25.26h-8.16l-1.2 2.94h5.82l.6-1.2 2.34 9.66h-4.26v2.82h2.22l.72-1.14 2.22 9.48h-5.16l-.06 7.38 5.4-1.38zm7.32-22.62v4.86h5.7V31.2h-5.7zm38.1 37.74l-.24-6.42-3.54-2.64H81v-8.64H66.06V42.9H81v-3l3.3.48.96-1.98h-12.6v-7.14L72 33.24l-.72 1.92-6.36-6.54 3.84-5.58 1.14-7.62 3.36 3.36h10.08l-6-7.8q2.88-.12 4.2-.12 2.94 0 5.13.69t4.05 2.61h1.44l-4.32 4.62h8.1l1.2-2.64 8.52 2.64-1.2 1.68q-.36 7.98-6.42 12.78l1.44 1.2-1.44.48q-2.88 2.82-4.8 4.29-1.92 1.47-4.44 2.13l2.4.48-1.2.42v.66h12.54l.66-.96 2.46 9.3H90.18v10.32q0 1.68-1.08 2.94t-2.64 2.04q-2.88 1.44-6.18 1.68l-1.2.72zM95.7 31.38v-4.62l-21.06.06q-.48 1.62-1.44 3.48h16.92l1.8-2.22 3.78 3.3zm47.34 20.82q-4.5 10.62-13.98 13.26l-.66 1.62-1.8-4.26-6.54 5.1-6-16.92q2.1.42 4.2 1.2l4.92-16.26-4.2 4.14-4.98-13.2q2.88.48 4.47.93 1.59.45 3.06 1.65t2.61 3.48l1.92-6.48v-.66h.18l.78-2.4h-.96v-3.18l-3.78 4.5-6-13.56q2.7.42 4.23.84 1.53.42 2.97 1.44 1.44 1.02 2.58 2.94v-.9h4.08V10.8l9.24 1.2-1.2 1.32v2.16h2.16l.72-.96 1.74 8.34 6.3-11.28 6.06 4.98-1.38.42q-2.4 4.14-5.37 7.41-2.97 3.27-6.27 3.93l.66 4.56h-4.86l4.68 1.62-1.02 2.4v3.24l7.8-13.26 6.18 4.8-1.38.42q-2.82 4.98-5.52 7.83-2.7 2.85-7.08 4.47v5.28h-3.96l3.54 1.26-1.02.78-1.02 2.16 3.9-1.68zM127.5 23.4l-.42 2.4h3.06v-2.4h-2.64zm10.68 0v2.4h2.58l1.8-2.4h-4.38zm-2.82 11.7l1.2-2.22h-10.5v-1.5l-4.14 22.98q1.86 1.62 3.48 4.38l2.46-1.02-3.54-7.44.84-.06q1.98 0 4.14.81 2.16.81 3.24 2.55l.9.24-3.42 3 3.72-1.26 1.2-6.42h-2.34v1.08h-6.24v-17.1l6.9 1.98h2.1zm-.18 8.1v-2.4h-2.58v2.4h2.58zm-2.16 25.32q8.04-9.3 16.08-23.88l6.48 4.5-1.02.66q-2.7 5.64-5.46 9.51t-6.69 6.33q-3.93 2.46-9.39 2.88zm69.54-24.9l2.22 9.18h-4.14v14.82h-7.08V52.8h-4.74v-2.22h-3.12q-.66 7.02-3.03 11.82-2.37 4.8-8.01 6.12l1.74-5.76-6.84 5.16-6.3-16.92q2.34.42 4.5 1.2l5.16-16.32-4.44 4.2-5.28-13.2q2.94.48 4.62.96 1.68.48 3.24 1.68 1.56 1.2 2.76 3.48l3.66-11.52q-.54-.18-1.98-.9l-1.8 2.1q-1.5 1.62-1.8 2.04l-6.3-13.56q3 .48 4.74.96 1.74.48 3.36 1.74 1.62 1.26 2.88 3.72l10.38-6.78q1.5 1.92 3.54 4.02v-2.16h11.04l.72-1.2 2.28 9.48h-3.9v2.4h1.14l.78-.96 1.98 9.18h-3.9v2.46h1.08l.66-1.32 2.16 9.54h-3.9v2.28h1.38l.54-.9zm-9-20.28v-2.4h-3.06v-3.06l-4.56 2.76v7.5l1.14-.06.6-1.14 2.1 9.36h-3.84v6h1.98l.42-1.08.66 3.3h4.56v-2.28h-3.54v-8.22h3.54v-2.46h-3.54v-8.22h3.54zm-14.58 4.8v-6.18l-1.26-.36-6.24 32.76q2.82 2.28 5.04 6.72l.3.18q.6-2.1 1.02-4.38.42-2.28.9-6.3h-2.82V42.3h3.06v-6h-2.4v-8.16h2.4zm67.38-.6l5.7 1.8-1.14 2.28.06 29.34q-.54 2.76-2.73 4.5-2.19 1.74-5.97 2.34l-.96.9-.18-6.54-3.3-2.58h4.92l-.06-23.28h-13.44v-7.2h.12l3.3-7.08-8.64-.06-.18.36q4.14.66 5.88 3.54l1.02.24-4.32 3.6q.84.84 1.44 1.86l1.02.24-4.98 3.84 1.56.18-1.38.9v31.02h-7.98v-33.3q3.36.48 6.48 1.02l-3.78-8.34q-2.28.96-5.88 1.32l8.1-18 7.44 3.96-1.2.24-.72 1.14h4.5l.6-.9 1.68 4.86 4.2-9.3 7.8 3.78-1.38.54-.54 1.02h6.9l.54-1.08 2.76 7.26h-12.6l-.36.48q2.1.12 3.66.81 1.56.69 2.7 2.19l1.14.12-1.8 1.98zm-21.24 1.08L222.78 24q-1.38 1.86-3.36 2.82 3.36.3 5.7 1.8zm13.98-4.32q-1.5 1.5-3.66 2.64-2.16 1.14-5.52 2.16h12.42l-3.24-4.8zm1.38 34.44h-5.82l.18-1.38h-2.34v1.92h-5.82V36.9l5.82 1.86h2.34l1.08-2.4 5.58 2.16-.9 2.34-.12 17.88zm-8.04-13.14h2.34v-2.34h-2.34v2.34zm.06 7.08h2.34v-2.34h-2.34v2.34z"/></svg>