<svg viewBox="0 0 446 80" xmlns="http://www.w3.org/2000/svg"><path d="M66.48 16.78l-1.08 3.78q-.54 2.1-2.22 3.33-1.68 1.23-3.78 1.23h-5.7l2.34-8.34h10.44zm-19.2 12.9v7.98q0 .9.63 1.56t1.53.66h6.54v-8.04q0-.9-.63-1.53t-1.53-.63h-6.54zm21.24 28.26v3.54h-10.8q-1.92 0-3.27-1.38t-1.35-3.3V43.06h-3.06L48.54 55q-.18 1.44-.84 2.61-.66 1.17-1.65 2.04-.99.87-2.25 1.35-1.26.48-2.7.48h-4.44l2.88-18.6q-1.32-.48-2.13-1.59-.81-1.11-.81-2.55V26.38h25.8q1.74 0 3 1.26t1.26 3.06v12.36h-2.94v12.48q0 1.02.69 1.71t1.71.69h2.4zM49.56 25.12H43.8q-2.16 0-3.81-1.26T37.8 20.5l-1.02-3.72h10.38l2.4 8.34zM17.22 45.46h3.36V37h-3.36v-3.24h17.1V37h-3.66v8.46h3.66v3.24h-3.66v12.84h-2.58q-1.56 0-2.91-.6t-2.37-1.59q-1.02-.99-1.62-2.34-.6-1.35-.6-2.91v-5.4h-3.36v-3.24zm8.16-19.62l-.3 1.08q-.48 2.1-2.16 3.45-1.68 1.35-3.9 1.35h-3.18l3.54-14.94h8.1l-1.38 5.88h8.22v3.18h-8.94zM99.24 61.6h-2.16V47.32H76.14v-3.18h21.3l7.98-6.9q.78-.66.54-1.35-.24-.69-1.08-.69H85.32v-3.18h29.7q1.08 0 1.8.54t1.05 1.29q.33.75.18 1.62-.15.87-.87 1.53l-8.1 7.14h18.12v3.18h-20.46v6.84q0 1.56-.6 2.91t-1.62 2.37q-1.02 1.02-2.4 1.59-1.38.57-2.88.57zm-2.88-44.94h10.62v4.86h15.42q1.74 0 3 1.26t1.26 3v5.04h-10.68v-3.96q0-.9-.6-1.53t-1.5-.63H87.36v6.12H76.74v-9.3h19.62v-4.86zm42.18 6.18v-3.18h46.32v3.18h-17.88V57.4h19.68v3.24h-49.98V57.4h19.68V22.84h-17.82zm95.58 10.68v4.14h13.14v3.12h-22.02l-.72 4.56h16.56q1.74 0 3 1.26t1.26 3v4.32q0 1.56-.6 2.91t-1.62 2.37q-1.02 1.02-2.37 1.59-1.35.57-2.91.57h-3V50.68q0-.9-.63-1.53t-1.47-.63h-8.76l-1.02 6.6q-.48 2.76-2.55 4.5-2.07 1.74-4.89 1.74h-3.78l3.6-20.58h-4.92v-3.12h13.14v-4.14h10.56zm-25.5-9.72v4.98h26.64V25.9q0-.84-.63-1.47t-1.53-.63h-24.48zM198 61.36V20.62h19.92v-3.84h10.62v3.84h13.08q1.74 0 3 1.26t1.26 3v7.08h-37.26v21.96q0 1.56-.6 2.91t-1.62 2.37q-1.02 1.02-2.37 1.59-1.35.57-2.91.57H198zm99.42.24h-10.74v-4.44h-10.2v-3.12h10.2v-3.36h-8.94V47.5h8.94v-3.3h-9.66v-3.18h9.66v-2.4h10.74v2.4h9.96v3.18h-9.96v3.3h9.24v3.18h-9.24v3.36h10.5v3.12h-10.5v4.44zm-6.96-38.28l2.22 1.44 1.5-.96q.72-.54.51-1.26-.21-.72-1.23-.72h-6.24l-.12.42q-.12.3-.3.57-.18.27-.3.51h3.96zm15.96-1.92v3.48l-6.84 4.5 8.28 5.46v2.7h-7.5q-3.12 0-5.7-1.8l-2.28-1.56-2.46 1.68q-2.58 1.68-5.52 1.68h-7.56v-2.7l8.58-5.46-3.12-2.16q-2.1.96-4.32.96h-3l5.1-11.46h9.36l-.72 1.68h14.7q1.74 0 2.37.9.63.9.63 2.1zm-35.28 40.2h-2.64q-1.56 0-2.91-.57t-2.37-1.59q-1.02-1.02-1.62-2.37-.6-1.35-.6-2.91v-7.32h-4.5v-3.18h4.5v-8.04h-3.96v-3.18h17.7v3.18h-3.6v8.04h4.14v3.18h-4.14V61.6zm-15.3-30.72l3.3-14.16h9l-1.08 4.92h7.68v3.12h-8.4l-.3 1.32q-.48 2.16-2.16 3.48-1.68 1.32-3.9 1.32h-4.14zm80.7-1.26h10.62v5.94h20.76v3.18h-36.48v17.1q0 .9.66 1.59.66.69 1.68.69h32.58v3.36H325.5q-1.92 0-3.3-1.32t-1.38-3.24V38.74h-5.04v-3.18h20.76v-5.94zm11.88-12.96h10.56v4.98h8.94v3.18h-8.94v5.28h-10.56v-5.28h-13.2v5.28h-10.56v-5.28h-8.88v-3.18h8.88v-4.98h10.56v4.98h13.2v-4.98zm46.92 5.76l.6 8.88h-4.98l-.6-8.88h4.98zm18.06 8.88h-4.98l.6-8.88H414l-.6 8.88zm2.4 20.82h10.62v9.48h-5.64q-2.1 0-3.54-1.44t-1.44-3.54v-4.5zM391.5 33.1h5.34V20.68h-7.44v10.26q0 .9.63 1.53t1.47.63zm23.46 0V22.78q0-.84-.63-1.47t-1.47-.63h-5.4V33.1h7.5zm12.3 13.32v3.24H377.1v-3.24h19.74v-3.54h-18.3v-3.12h18.3v-3.48h-13.86q-1.74 0-2.94-1.26t-1.2-3V17.5h42.48q1.74 0 2.97 1.23 1.23 1.23 1.23 2.97v14.58h-18.06v3.48h18.36v3.12h-18.36v3.54h19.8zM383.64 61.6H378v-9.48h10.62v4.5q0 2.1-1.44 3.54t-3.54 1.44zm17.28 0h-4.68q-2.1 0-3.54-1.44t-1.44-3.54v-4.5h9.66v9.48zm12.18 0h-4.62q-2.1 0-3.57-1.44-1.47-1.44-1.47-3.54v-4.5h9.66v9.48z"/></svg>