<svg viewBox="0 0 505 80" xmlns="http://www.w3.org/2000/svg"><path d="M29.1 21.74h-5.04Q26 18.4 27.7 14.01q1.69-.41 1.99-1.53-.18-.87-2.29-1.69-1.87-.71-4.74-1.35l-.24-.06q-.29 0-.23.53-1.41 12.71-6.8 24.14l-.12.52q0 .12.06.12.12 0 .41-.29 4.16-4.69 7.39-10.67h10.66l.41.06q.76 0 .76-.41 0-.29-.82-1.29l-2.46-2.11q-.29-.29-.59-.29-.35 0-.7.41l-1.29 1.64zm12.54 3.28q-1-.64-2.43-1.23-1.44-.58-2.14-.64h-.12q-.29 0-.29.29 0 .12.29.88.12 1.88.12 5.27v3.29l-.12 8.55q-.11.47-.11 1 0 1.11.93 1.11l.71-.12q2.57-.29 2.93-1.76v-.23h7.03q-.12 0-.12.35l.12.94q.17 1.82.23 5.27v14.94q-.06 5.16 4.22 5.28h5.86q3.4-.24 4.92-2.29 1.53-2.05 1.17-2.52-1.11-.82-1.43-2.11-.32-1.29-.32-3.86l.11-4.87q-.11-.29-.23-.29-.12 0-.24.29-1.46 7.91-2.69 9.9-1.11 1.82-2.93 1.53H55q-2.29.17-2.11-2.58V44.48q.88-.41 1.06-1.53-.18-.52-1.97-.99-1.78-.47-3.31-.53h6.1v.59q0 .99 1.17.7 3.45.12 3.45-2.29 0-.41-.05-.52-.18-2.64-.18-5.75l.06-1.99v-3.98l1.05-.94q.41-.41.41-.82 0-.47-.64-.94l-3.28-2.69q-.41-.3-.76-.3-.59 0-1 .77l-1.64 1.75h-3.4q3.58-5.09 6.68-10.54 1.58 0 1.76-.71-.18-.88-1.76-1.87-1.46-.88-4.22-1.99-.12-.06-.41-.06-.47 0-.53.41-1.05 6.97-3.98 14.76h-5.86zM37.07 11.2h-.29q-.59 0-.3.46 2.76 3.7 2.7 7.15.18 1.76.94 2.76.76.99 1.87.99 1.12 0 2.05-1.05.94-1.06 1.12-2.7-.3-2.69-2.64-4.74-2.34-2.05-5.45-2.87zm4.34 15.82h13.36v12.42H41.41V27.02zm-14.3 4.57h-7.97l1.64 2.57q1.11-.7 2.11-.58h.24v7.85h-6.57l1.64 2.58q1.12-.71 2.11-.59h2.82v14.42q0 1.4-.21 1.87-.21.47-1.2 1.29-.29.29-.24.53L25 67.39q.29.35.47 0 1.29-2.93 3.25-5.89 1.96-2.96 7.06-9.99.29-.47.29-.59t-.29 0l-8.2 6.92V43.42h5.74l.53.06q.7 0 .7-.47 0-.41-.88-1.35l-2.11-1.99q-.23-.41-.58-.41t-.71.53l-1.64 1.64h-1.05V34.4q.94-.29 1.29-.82h2.81l.47.06q.82 0 .82-.53 0-.41-.7-1.29l-2.11-1.99q-.59-.41-.88-.41-.35 0-.65.53l-1.52 1.64zm18.75 15q1.52-.47 1.64-1.18-.29-1.87-5.51-3.16-.76 0-.58.47-.12 8.85-3.14 15.53t-8.93 10.07q-.24.18-.24.24 0 .17.59.12 6.91-2.29 11.13-8 4.22-5.72 5.04-13.98v-.11zM94.84 9.67q-.46 0-.23.35 2.11 2.41 2.46 6.57.06 1.81.76 2.81.71.99 1.82.99 1.23 0 2.17-1.05.93-1.05 1.11-2.75-.23-2.11-2.34-3.87-2.11-1.76-5.75-3.05zM83.95 23.15h32.46l-2.23 6.21h.47q4.33-4.51 9.96-5.16.35 0 .35-.29 0-.53-.94-1.46l-4.92-3.4q-.82-.65-1.23-.65-.47 0-.76.65l-1.17 2.11H83.59q-.58-2.58-1.75-4.46-.3-.47-.36.24.18 4.33-3.16 8.67-1.17 1.52-1.17 3.16 0 1.29.76 2.11.76.82 2.11.82l.88-.11q1.64-.53 2.46-2.08.82-1.56.82-3.31 0-1.18-.23-3.05zm3.28 10.19q1.23-.99 1.99-.82h15.7l-1.87 5.04q-1.06-.35-2.67-.61-1.61-.27-2.61-.32h-.11q-.24 0-.24.35 0 .52.24 1.05.11 1.76.11 5.27v3.17H77.38l1.41 2.58q1.29-.71 2.11-.59h16.87v14q0 .77-.99.94-.88.24-4.98.24-.41.11 0 .35 4.39 2.93 4.22 4.69.11.29.7.23 2.75-.06 4.83-1.46 2.08-1.41 2.2-3.58-.23-3.69-.23-14.12v-1.29h19.21q.59 0 .77-.35.29-.35-1.23-1.76l-3.87-3.16q-.41-.76-.88-.76-.41 0-.76.76l-2.58 3.28h-10.66v-6.09q1.05-.53 1.28-1.65 0-.29-.82-.58 4.16-3.99 9.61-4.92.41-.18.41-.47 0-.47-1.11-1.17l-5.04-3.17q-.82-.58-1.29-.58-.52 0-.7.7l-1.29 2.11H85.7l1.53 2.69zm80.39-16.29h-25.78l1.64 2.58q1.11-.7 2.11-.58h30.82q.76 0 .76-.35 0-.53-1.35-1.88l-3.63-3.05q-.47-.64-.94-.64-.41 0-.94.64l-2.69 3.28zm6.33 18.4h-37.27l1.52 2.58q1.29-.88 2.11-.7h14.18q-1.05 3.69-3.4 8.2-2.34 4.51-4.98 7.97-2.75 3.46-4.86 4.22-.76.06-.76.41t.29.64l2.7 7.56q5.91-2.75 11.86-4.36 5.95-1.61 16.2-3.55l1.94-.35q.7 2.7 1.05 5.57.35 1.29 1.09 1.96.73.67 1.72.67 1.41 0 2.46-1.23 1.06-1.23 1.29-3.28-.35-4.16-3.72-8.11-3.37-3.96-8.46-7.18-.65-.18-.36.35 2.64 4.16 4.46 9.84l-24.26 1.06q7.38-9.02 12.66-16.99 1.93 0 1.99-1.41-.35-1-3.17-1.99h22.5q.71 0 .71-.35 0-.53-1.29-1.64l-3.75-3.17q-.29-.47-.76-.47-.53 0-1 .47l-2.69 3.28zm40.89-25.78q-.46 0-.23.35 2.11 2.41 2.46 6.57.06 1.81.76 2.81.71.99 1.82.99 1.23 0 2.17-1.05.93-1.05 1.11-2.75-.23-2.11-2.34-3.87-2.11-1.76-5.75-3.05zm-10.89 13.48h32.46l-2.23 6.21h.47q4.33-4.51 9.96-5.16.35 0 .35-.29 0-.53-.94-1.46l-4.92-3.4q-.82-.65-1.23-.65-.47 0-.76.65l-1.17 2.11h-32.35q-.58-2.58-1.75-4.46-.3-.47-.36.24.18 4.33-3.16 8.67-1.17 1.52-1.17 3.16 0 1.29.76 2.11.76.82 2.11.82l.88-.11q1.64-.53 2.46-2.08.82-1.56.82-3.31 0-1.18-.23-3.05zm3.28 10.19q1.23-.99 1.99-.82h15.7l-1.87 5.04q-1.06-.35-2.67-.61-1.61-.27-2.61-.32h-.11q-.24 0-.24.35 0 .52.24 1.05.11 1.76.11 5.27v3.17h-20.39l1.41 2.58q1.29-.71 2.11-.59h16.87v14q0 .77-.99.94-.88.24-4.98.24-.41.11 0 .35 4.39 2.93 4.22 4.69.11.29.7.23 2.75-.06 4.83-1.46 2.08-1.41 2.2-3.58-.23-3.69-.23-14.12v-1.29h19.21q.59 0 .77-.35.29-.35-1.23-1.76l-3.87-3.16q-.41-.76-.88-.76-.41 0-.76.76l-2.58 3.28h-10.66v-6.09q1.05-.53 1.28-1.65 0-.29-.82-.58 4.16-3.99 9.61-4.92.41-.18.41-.47 0-.47-1.11-1.17l-5.04-3.17q-.82-.58-1.29-.58-.52 0-.7.7l-1.29 2.11H205.7l1.53 2.69zM276.6 8.85q-.64 0-.35.35 2.87 2.87 3.16 6.21.18 1.88.94 2.88.76.99 1.88.99 1.11 0 2.02-1.08.91-1.09 1.14-2.79-.18-2.28-2.61-4.07-2.43-1.79-6.18-2.49zm17.93 11.49h-28.12q-1.12-.82-2.76-1.64-1.64-.82-2.52-.94h-.06q-.35 0-.35.64 0 .59.06.76.35.94.35 5.16v19.1q.06 7.27-.7 13.04t-2.7 11.86q-.35.77.24.36 8.79-9.91 8.44-25.26V22.8q.11-.24.82-.47h34.68q.12.06.47.06.41 0 .41-.24 0-.41-1.23-1.46l-3.16-2.93q-.35-.53-.76-.53-.3 0-.76.53l-2.35 2.58zm-17.34 3.51q-.76 1.58-.94 2.35l-1.76 4.8h-5.86l1.64 2.58q1.12-.7 2.11-.59h1.41l-3.28 8.56-1.41.82q-.58.41-.58.93 0 .36.58.94l2.58 3.52q.41.58.82.58.35 0 .7-.35l1.29-1.4h8.91v9.25h-16.17l1.4 2.58q1.29-.7 2.11-.58h12.66v.58q0 2.87-.12 8.5-.06.17-.06.7 0 1.35 1.29 1.35.47 0 .65-.06 3.69-.06 3.69-2.4 0-.47-.06-.65-.18-1.81-.24-3.95-.05-2.14 0-3.49v-.58h15.71q.58 0 .64-.24.12-.29-1.23-1.64l-2.34-2.46q-.47-.64-.82-.64t-.71.64l-2.1 2.34h-9.15v-9.25h11.25q.77.05.83-.12.11-.18-1.06-1.52l-2.46-2.47q-.59-.52-1.06-.52-.35 0-.58.41l-1.99 2.22h-4.93v-6.21q1.35-.47 1.41-1.52-.29-.65-2.49-1.17-2.2-.53-4.07-.59h-.06q-.35 0-.35.41 0 .12.29.88.12 1.99.12 5.27v2.93h-8.32l4.69-11.6h21.56q.12.06.47.06.47 0 .47-.29 0-.41-1.06-1.53l-2.81-2.46q-.41-.58-.88-.58-.29 0-.64.35L294.53 31h-14.06l1.76-4.22.47-.12q1.28-.52 1.28-.93 0-.47-1.17-.94l-4.33-1.52q-.41-.24-.65-.24-.53 0-.64.82zm48.28 20.16h12.54v15q0 2.52-.12 8.61l-.12.7q0 1.12 1.41 1.12.64 0 .82-.06 4.34-.12 3.98-3.05-.17-1.81-.23-3.92t0-3.4v-15h12.19v2.22q-.18 1.12 1.7 1.12.64 0 .88-.06 4.1 0 3.86-3.05-.17-2.63-.17-5.62l.06-1.88v-6.56l.93-1.41q.59-.35.59-.82 0-.58-.94-1.17l-3.98-2.69q-.41-.41-.94-.41-.47 0-.94.52l-1.64 2.11h-11.6V13.66q1.23-.53 1.29-1.64-.29-.65-2.75-1.35-2.47-.71-4.28-.76h-.12q-.18 0-.18.35t.18 1.05q.12 1.76.12 5.16v9.84h-12.07q-1.17-.82-3.23-1.7-2.05-.88-2.98-.99h-.12q-.35 0-.35.35 0 .41.23.82.3 1.82.24 5.27v9.85q0 5.97-.24 8.55l-.11.82q0 1.29 1.4 1.29l.82-.12q3.34-.29 3.87-2.34v-4.1zm12.54-1.99h-12.54V28.3h12.54v13.72zm17.93 0h-12.19V28.3h12.19v13.72zm58.83-3.87h-21.45v-2.7q5.74-3.86 11.07-8.38 5.45-4.62 10.02-8.26 2.17-.52 2.58-1.29-.23-.64-2.25-2.57-2.03-1.94-3.37-2.82l-.24-.11q-.17 0-.47.35-4.27 9.37-17.34 21.56V13.42q1.06-.64 1.29-1.64-.29-.64-2.81-1.35-2.52-.7-4.22-.76h-.12q-.17 0-.17.35 0 .36.17 1.06.12 1.76.12 5.15v21.92h-9.96l1.52 2.58q1.23-.88 2.11-.71h6.33v18.05q.06 2.29-1.88 3.22-.23.24-.23.47l3.05 7.62q.11.23.29.23.17 0 .29-.23 2.29-2.75 5.66-6.12t9.93-9.53q.35-.29.35-.41 0-.17-.35-.05l-11.37 4.8V40.02h8.79q1.17 7.74 5.39 15.15t9.73 11.87q.35.46.64.46.35 0 .65-.46 3.1-2 6.32-2.47.41-.05.44-.14.03-.09-.32-.32-3.69-2.06-7.88-5.66-4.19-3.6-7.88-8.23-3.81-4.75-6.04-10.2h20.92q.59 0 .59-.41 0-.29-.41-.88l-4.81-4.57q-.64-.46-.88-.46-.41 0-.64.58l-3.16 3.87zm39.02-28.83q-.59-.06-.24.35 2.35 2.7 2.93 6.56.36 2 1.23 3.05.88 1.06 2 1.06 1.29 0 2.25-1.21.97-1.2.97-2.9-.35-2.16-2.64-3.83-2.28-1.67-6.5-3.08zm-9.49 13.83h29.65l-2.58 6.8h.58q2.23-2.06 5.34-3.4 3.1-1.35 6.15-1.64.41 0 .41-.3 0-.41-1.12-1.46l-5.03-4.81q-.77-.76-1.41-.76-.53 0-.7.65l-1.76 2.93h-29.88q-.47-2.41-1.65-4.11-.52-.7-.7 0 .29 2.58-2.69 7.39-1.12 1.81-1.12 3.4 0 1.17.82 1.96t1.94.79q1.4 0 2.52-1.44 1.11-1.43 1.34-4.48 0-.23-.11-1.52zm29.88 14.3h-11.95v-9.38q1.05-.53 1.29-1.64-.3-.64-2.58-1.29-2.29-.64-3.99-.7h-.06q-.35 0-.35.52 0 .36.18.88.29 1.35.23 5.28v6.33h-19.33l1.52 2.57q1.11-.7 2.11-.58h9.96q-1.82 7.09-5.71 13.8-3.9 6.71-9.29 11.92-.53.59.24.35 6.56-3.75 11.95-9.78 5.39-6.04 8.55-13.25v16.65q0 5.74-.23 8.49-.06.18-.06.65 0 1.17 1.23 1.17.53 0 .7-.06 4.22 0 3.87-2.93-.17-1.82-.23-3.93-.06-2.11 0-3.39V39.44h1.75q1.59 6.79 4.72 13.53 3.14 6.74 6.3 10.32.29.35.64.35.53 0 1.24-.71 2.57-1.87 6.91-1.93.41-.06.41-.18 0-.11-.41-.29-11.49-6.39-18.63-21.09h17.57q.82 0 .82-.47 0-.41-1.28-1.64l-3.87-3.28q-.29-.47-.82-.47-.35 0-.82.47l-2.58 3.4z"/></svg>