<svg viewBox="0 0 448 80" xmlns="http://www.w3.org/2000/svg"><path d="M37.67 17.76q-1.29-.71-2.81-.71H32.4q-.76 0-.82-.58l.12-.59q.05-.17.05-.7 0-2.4-3.22-3.52-1.29-.29-1.99-.29-2.99 0-4.22 2.87-2.34 8.38-6.33 16.41-.82 2.34-.76 3.51 0 3.64 4.28 4.93l.29.05q.47 0 .47-.41 0-.35-.29-.93-1.12-1.29-1.18-3.99v-1.87q.59-4.75 4.34-4.92h4.1q.88 0 .94-.59l.59-.59q.29-.35.93-.46h6.21q.59 0 .71-.83v-1.87q0-1.99 1.4-3.63.24-.24.24-.59 0-.47-.59-.7zm5.63-5.98q-1.76.65-2.7 1.85-.94 1.2-.94 2.6 0 .94.47 1.76l.47.82q.06.12.06.47 0 .53-.53.47-1.7.18-1.7 2.7 0 .76.06 1.05v18.98q-.11 3.52 3.05 3.99h1.87q.65.29.59.94-1.41 4.92-4.57 8.43-2.87 2.52-4.1 4.19-1.23 1.67-1.23 3.49l.06.59q1.17 4.39 4.51 4.39.94 0 1.93-.29 4.57-2.46 7.77-6.21 3.19-3.75 3.36-7.09v-7.74q0-.64.94-.7h.47q.76.12.82.94v16.58q.12 3.81 3.75 3.87h8.91q3.98-.3 5.04-4.11l.7-2.34.7-3.34q.06-.18.06-.76 0-1.99-1.38-3.37-1.37-1.38-3.25-1.38-1.23 0-2.28.68-1.06.67-1.7 1.9l-.71 1.41q-.23.76-.82.82h-.58q-.59-.06-.47-.94.53-1.88 1.29-3.4v-5.86q.12-.64.7-.7h3.28q3.64-.29 3.52-4.45V23.03q-.18-1.58-1.17-2.58-.35-.17-.35-.58 0-.24.11-.47l.71-1.41q.35-.82.35-1.46 0-1.06-.74-2.11-.73-1.06-1.96-1.82-1.87-.99-3.22-.99-2.29 0-4.16 2.4l-.53 1.05q-.94 1.82-1.81 3.75-.3.76-1.06.82h-4.1q-.59 0-.94-.93-1.11-2.58-1.84-3.81-.74-1.23-1.91-2.29-1.29-1.11-3.05-1.11-.87 0-1.75.29zM32.4 37.91q.12-.64.7-.7h1.17q2.29.12 2.35-1.87v-4.69q-.12-2.05-2.11-1.99h-10.9q-3.16.23-3.16 3.04v2.11q0 2.7 1.64 3.4.35.24.23 1.06v1.4q-.12.76-.7.82h-1.41q-2.69.06-2.81 3.64v1.52q.47 3.51 2.58 3.4h1.64q.64.11.7 1.05v6.33q0 .7-.7 1.41l-1.17.7q-1.59 1.46-1.59 3.63 0 1.99 1.23 3.31t3.05 1.09l8.44-2.58q.29-.18.47-.7.99-4.16 5.04-7.8.93-.76.93-1.17 0-.47-.7-.7-.47-.3-1.11-.3-.53 0-1.12.3l-1.75.58-.36.06q-.35 0-.58-.41v-3.87q0-.87.58-.93h4.11q1.4.06 2.22-.47.24-.06.24-.29 0-.36-.59-.88-2.4-1.7-2.34-4.57V41.2q-.06-.59-.82-.71h-2.7q-.58-.06-.7-.82v-1.76zm25.78-8.08q1.11 0 1.17 1.29v4.27q0 1.12-1.17 1.12h-7.62q-.82 0-.93-1.06v-4.51q0-1.23 1.17-1.11h7.38zm73.48-7.85q-.41-5.98-6.45-5.63h-13.07q-.7 0-.99-.82v-1.4q-.12-1.7-1.7-2.5-1.58-.79-4.04-.79h-2.46q-6.1-.11-6.33 3.29v1.4q-.24.94-1.29.82H82.79q-5.68.06-6.21 5.86v10.2q.17 2.87 3.4 2.69h1.64q1.4 0 1.64-1.05v-2.82q-.06-4.98 4.1-5.62h31.17q5.04-.18 5.74 4.22v1.64l-.11 1.58q0 .76.32 1.11.32.36 1.2.36h1.52q1.88.05 3.11-.77 1.23-.82 1.35-2.52v-9.25zm-9.96 11.83q.76-1.29.76-2.46 0-1.52-1.17-2.55-1.18-1.02-3.11-1.08H87.71q-2.64.64-2.34 3.98v2.11q-.12 3.23 2.34 3.64h15.59q.58 0 1.29-.82 1.23-1.35 1.93-1.35.47 0 .47.64 0 .53-.06.71-.94 1.81-1.52 2.57-.24.47-.24 1.18 0 1.05.79 2.02.79.96 1.91 1.37 1.4.53 2.58.53 2.1 0 3.86-1.58 4.4-4.04 7.39-8.91zm-19.69 5.51q-1.88 1.88-3.99 2.34H79.74q-1.64.12-2.43 1.47-.79 1.35-.73 3.57v1.29q-.18 4.1 3.16 4.57h18.99q.7.06.58.94v1.88q0 1.28-1.05 1.28h-4.57q-1.82.12-2.76 1.44-.93 1.32-.88 3.19v1.53q-.17 4.51 5.28 4.68h10.19q5.69.06 5.98-5.5v-8.27q0-.99.94-1.17h17.11q1.34-.06 1.84-1.29t.5-3.51v-1.64q0-1.94-.59-3.14-.58-1.2-1.75-1.32h-10.43q-.41.06-.59.24-.29.17-1.82 1.64l-.99.88q-1.82 1.76-4.69 1.93h-1.4q-6.39.35-6.68-6.33-.24-.88-.94-.7zm39.02-19.45q-.06 4.27 3.75 4.57h37.62q3.98-.53 3.75-5.28v-1.64q-.06-4.04-3.75-4.45h-37.74q-3.69.29-3.63 4.69v2.11zm46.99 38.2q-2.87-6.8-7.14-13.12-1.76-1.94-4.11-1.94-1.58 0-3.51.88-3.75 1.47-3.75 4.51 0 .88.23 1.58.76 1.35 1.53 3.29v.23q0 .47-.47.59h-13.25q-.87-.12-.7-.94l4.69-11.49q.17-.41.59-.46h26.13q4.1-.36 3.87-4.93v-2.11q0-4.33-3.87-4.57h-49.57q-3.23.06-3.05 5.16v1.88q-.35 4.16 3.05 4.57h8.79q.47.11.35.58l-7.5 16.52q-.65 1.82-.65 2.99 0 3.64 5.1 3.87h37.85q5.86-.35 5.86-4.51 0-1-.47-2.58zm63.64-36.09q-.41-5.98-6.45-5.63h-13.07q-.7 0-.99-.82v-1.4q-.12-1.7-1.7-2.5-1.58-.79-4.04-.79h-2.46q-6.1-.11-6.33 3.29v1.4q-.24.94-1.29.82h-12.54q-5.68.06-6.21 5.86v10.2q.17 2.87 3.4 2.69h1.64q1.4 0 1.64-1.05v-2.82q-.06-4.98 4.1-5.62h31.17q5.04-.18 5.74 4.22v1.64l-.11 1.58q0 .76.32 1.11.32.36 1.2.36h1.52q1.88.05 3.11-.77 1.23-.82 1.35-2.52v-9.25zm-9.96 11.83q.76-1.29.76-2.46 0-1.52-1.17-2.55-1.18-1.02-3.11-1.08h-30.47q-2.64.64-2.34 3.98v2.11q-.12 3.23 2.34 3.64h15.59q.58 0 1.29-.82 1.23-1.35 1.93-1.35.47 0 .47.64 0 .53-.06.71-.94 1.81-1.52 2.57-.24.47-.24 1.18 0 1.05.79 2.02.79.96 1.91 1.37 1.4.53 2.58.53 2.1 0 3.86-1.58 4.4-4.04 7.39-8.91zm-19.69 5.51q-1.88 1.88-3.99 2.34h-18.28q-1.64.12-2.43 1.47-.79 1.35-.73 3.57v1.29q-.18 4.1 3.16 4.57h18.99q.7.06.58.94v1.88q0 1.28-1.05 1.28h-4.57q-1.82.12-2.76 1.44-.93 1.32-.88 3.19v1.53q-.17 4.51 5.28 4.68h10.19q5.69.06 5.98-5.5v-8.27q0-.99.94-1.17h17.11q1.34-.06 1.84-1.29t.5-3.51v-1.64q0-1.94-.59-3.14-.58-1.2-1.75-1.32h-10.43q-.41.06-.59.24-.29.17-1.82 1.64l-.99.88q-1.82 1.76-4.69 1.93h-1.4q-6.39.35-6.68-6.33-.24-.88-.94-.7zm65.04-20.04q6.85-.41 9.49 5.27h12.89q2.99-.41 2.81-3.98v-1.05q0-3.46-3.28-3.75H294.2q-.41 0-.59-.47v-.59q-.18-1.52-1.88-2.4-1.69-.88-3.86-.88h-3.99q-4.39 0-5.04 3.63v.24q-.17.52-.7.47h-12.77q-1.99 0-3.37 1.34-1.38 1.35-1.44 3.58v6.91q-.06 17.76-3.28 32.46-.06.18-.06.88 0 2.52 1.91 4.1 1.9 1.59 4.54 1.59 1.76 0 3.1-.85 1.35-.85 1.88-2.38l.23-1.64v-.35q0-.47-.23-.53-3.17-.88-3.28-4.92v-2.11q.11-4.86 4.68-5.15.47-.3.47-.65 0-.35-.47-1-.23-.52-.23-1.58 0-2.05 1.88-4.98v-2.11q-.12-.64-.59-.7-5.1-.53-4.92-5.27V30.3q-.18-5.04 5.27-5.51h7.38q3.64-5.74 8.21-5.51zm-5.39 5.04l-1.64 2.58h-8.56q-3.28.23-3.4 3.63v1.64q0 3.4 3.4 3.4h4.45q.53.23.36.82l-3.75 6.21q-.88 1.41-.88 2.7 0 1.23.82 1.93t2.4.76h9.26q.41.06.47.47v1.64q-.06.41-.47.47h-13.6q-3.39.18-3.28 3.63v1.41q-.06 3.57 3.52 3.63h13.47q.47.18.47.71v4.62q.65 3.34 4.69 3.05h2.93q3.87.24 4.45-2.81v-4.98q0-.41.59-.59h11.25q3.22-.23 3.16-3.63v-1.64q-.11-3.34-3.51-3.4h-11.25q-.41-.06-.47-.47v-1.4q.06-.41.47-.47h7.97q3.1-.18 3.04-3.52v-1.99q.06-3.4-3.39-3.52h-7.62q-.41-.06-.47-.47v-.7q-.47-3.46-4.45-3.28h-3.75q-3.46.06-3.75 3.28v2.58q-.06.41-.47.47h-1.29q-.41-.06-.47-.47v-2.7q.47-5.27 6.21-5.27h3.75q.23-.06 1.11-.06 3.34 0 5.1 2.87h7.5q2.76-.29 2.58-3.51v-1.41q.12-3.46-3.16-3.63h-10.67q-.58 0-.58-.7-.59-3.87-4.46-4.57-1.35-.36-2.46-.36-3.46 0-5.62 3.05zm57.89 36.74l1.05-2.64q2.29-5.8 3.75-10.02 1.23-3.63 1.29-5.45v-4.92q0-.76-.94-.82h-.7q-3.52-.29-3.63-3.98v-1.29q0-4.75 4.57-4.92h1.52q.59 0 .82.93v.24q-.23 1.11-1.17.94h-1.52q-2.23.11-2.35 2.34v1.76q.12 2.11 2.23 2.11h2.69q.82 0 .82.82v3.86q.3 3.52 3.99 3.52h12.19q1.58 0 3.04-.7 2.82-2 3.4-3.87l.12-1q0-1.52-1.14-2.63-1.15-1.12-2.61-1.12-1.06 0-1.88.65-1.7 1.4-2.11 1.64-.82.82-2.57.94h-2.64q-.88 0-.76-.82v-.65q0-.76.82-.64h3.16q2.11-1 3.4-2.11.41-.12.47-1.06v-.94q-.41-2.1-1.88-2.1h-5.68q-.88 0-.76-.83v-.58q0-.7 1.05-.7h5.16q3.75 0 4.22 3.28v1.52q.12.82.58.94h.83q3.8-.12 4.1-4.34v-2.69q-.18-3.28-2.11-5.16 0-.18-.24-.18l-.47.18q-1.7 1.93-4.92 1.88h-7.2q-.88 0-.77-.82v-.53q0-.88.82-.76h8.91q2.29-.12 2.34-2.58v-1.41q.12-2.75-2.93-2.81h-9.61v-1.06q-.46-2.28-4.21-2.1h-2.11q-4.1-.06-4.34 3.86v6.1q0 .82-1.05.82h-5.04q-3.99 0-4.1 4.33v6.45q.99 1.52 1.17 4.45v1.29q0 2.46-1.53 5.04-1.34 9.26-4.45 17.93-.29 1.05-.29 1.58 0 2.05 1.84 3.28 1.85 1.23 4.43 1.29h.7q.59.06 2.23-.23.35-.06.23-.59-.7-1.41-.7-2.75 0-.94.47-2.17zm-9.96-2.76l2.57-9.49q.06-.06.06-.29 0-.35-.52-.41l-1.41.23q-.35 0-.47-.7v-4.69q0-1.05.7-1.05h1.18q3.04-.18 2.81-3.75v-2.11q.12-3.87-3.4-4.1h-.82q-.41 0-.47-.59v-5.97q0-.77.7-.83h2.35q.64-.11.7-.58v-.35q.18-2.05 2.11-3.4v-1.29q.18-4.16-3.87-4.34h-13.36q-3.1.3-2.81 3.87v2.11q-.06.18-.06.88 0 2.81 2.64 3.1h1.52q.82.12.82.94v5.86q0 .59-.82.59h-1.17q-2.99 0-2.93 4.22v2.22q-.29 3.69 2.93 3.87h1.29q.7 0 .7 1.05v5.98q-.06.53-.58.7-1.41.18-2.7.59-2.46 1.47-2.46 4.39l.12 1.24q.23 2.34.99 3.54.77 1.2 2.23 1.2.47 0 .64-.06 5.28-.76 10.2-2.11.41-.06.59-.47zm32.81-.46q1.76-2.58 3.87-3.87v-4.45q0-3.99-4.34-4.11h-10.55q-3.4-.17-4.45 1.88-2.46 6.56-5.27 13.59-.65 1.41-.65 2.7 0 2.63 3.34 3.92 1.06.41 2.35.41 2.46 0 4.33-2.05 1.29-1.93 2.02-3.75.74-1.81 1.85-5.45.12-.35.23-.73.12-.38.24-.79.11-.41.58-.47h.47q.59 0 .59 1.17v7.21q-.18 4.4 4.1 4.34h6.33q2.05.11 3.16-1.06 1.88-3.1 1.88-6.74-.35-3.8-4.22-3.63-2.29-.12-3.4 1.64-.53.76-1.06 1.41-.41.29-.87.29-.82 0-.82-.7 0-.3.29-.76zm38.32-.24q-.06 3.46-1.88 4.98v.82q-.11 3.46 4.22 3.64h22.27q5.62-.53 5.86-4.93V24.55q-.12-2.75-1.67-4.24-1.56-1.5-3.96-1.5h-4.45q-.59-.06-.47-.58.59-1.41.82-3.05-.06-2.46-1.79-3.6-1.72-1.15-4.48-1.15-1.11 0-1.87.18-1.94.41-3.11 2.58l-2.46 5.39q-.53.76-1.41.7h-3.75q-4.27.29-3.98 4.81v8.67q2.05 1.17 2.23 4.45v2.58q-.06 2.23-.59 3.34-.53 1.11-1.64 1.82v6.09q1.93 1.64 2.11 4.69v1.87zm-4.45-5.15q-.94-.12-1.12-.12l-1.35.12q-.64-.12-.7-.82v-6.68q0-.88.7-.94h1.65q1.75-.06 2.63-1.14.88-1.09.88-2.73v-2.46q0-3.98-3.51-4.22h-1.65q-.64-.12-.7-.82v-6.33q0-1.05.94-1.05h2.23q.76 0 .82-.71v-2.81q.35-2.81 3.04-3.75v-.58q-.11-2.58-3.04-2.58h-16.88q-4.1.23-3.75 4.8v1.76q-.12 2.4.76 3.28.88.88 3.58.82h1.52q.64.06.7 1.06v6.09q0 .82-.93 1.06h-1.53q-3.63.23-3.51 3.75v2.46q-.3 4.16 2.93 4.1h2.46q.47.06.58.82v7.73q-.06.94-.58.94l-4.81.94q-.93.29-1.46 1.4-.53 1.12-.53 2.58l.12 1.29q.53 4.28 4.22 4.16 9.02-1.05 16.4-2.34 2.64-.65 2.64-3.93 0-.88-.06-1.17-.12-3.46-2.69-3.98zm13.12-21.33q.12-1.88 1.64-1.88h7.74q1.58-.06 1.87 1.88v4.33q.12 1.76-1.64 1.76h-7.85q-1.76.24-1.76-1.76v-4.33zm0 18.63q0-2.05 1.64-1.99h7.85q1.94.06 1.76 2.11v4.22q-.18 1.99-1.87 1.87h-7.62q-1.64.06-1.76-1.87v-4.34z"/></svg>