<svg viewBox="0 0 509 80" xmlns="http://www.w3.org/2000/svg"><path d="M26.42 11.96q-2.93 0-5.45 1.73t-3.98 4.54q-1.35 2.58-1.47 5.33.06 4.28 3.99 4.69 3.1 0 6.33-2.7.99-.52 2.34-.52.88 0 1.17.06h2.58q5.98-.12 5.98-6.1-.12-2.22-1.35-3.28-1.23-1.05-3.58-1.29-2.4-.7-4.1-1.99-1.11-.47-2.46-.47zm22.15.35h-1.29q-3.63-.06-5.33 1.12-1.7 1.17-1.7 4.04.06 2.46 2.08 4.1 2.02 1.64 4.89 1.64 3.11 0 5.04-1.41 1.94-1.4 2.05-4.1-.17-2.4-1.84-3.89-1.67-1.5-3.9-1.5zm15.12 0q-3.23.12-4.75 1.97-1.52 1.84-2.05 5.53-1.29 5.16-6.56 5.28h-2.81q-4.16.17-6.45 3.6-2.28 3.43-2.23 8.94-.05 2.57.44 4.33.5 1.76 2.02 3.87 1.94 1.93 2.23 4.69 0 1.28-.53 2.69-.52 1.41-1.34 1.88-3.58 1.4-3.28 5.62-.06 3.52 1.52 5.22 1.58 1.7 4.22 1.7 1.52 0 3.16-.56 1.64-.56 2.7-1.44 2.28-1.81 2.46-4.92v-7.38q-.06-.18-.06-.82 0-1.99 1.93-2.23 1.99.18 1.88 2.58v4.57q0 4.75 2.49 7.62t6.88 2.99q1.41-.06 2.82-1.12 1.4-1.05 2.34-2.81.82-1.58.94-3.63-.06-3.4-2.46-4.93-1.82-1.05-1.82-3.39 0-.71.06-.94-.3-4.57 2.58-7.62 2.16-3.22 2.16-6.85 0-.77-.05-1 0-3.57-.71-5.77-.7-2.2-2.46-4.54-.94-1.35-1.05-2.81.17-2 1.05-3.64.29-1.11.24-1.52-.41-5.1-5.51-5.16zM26.13 29.66q-4.69 0-7.35 1.43-2.67 1.44-2.79 4.43-.23 2.52 2.35 4.57 1.17.58 1.4 2.11-.11 1.69-1.99 3.04-2.29 1.7-2.29 4.81 0 2.63 1.59 5.04.99 1.7.82 3.75-.12 8.61 8.2 9.2 4.28-.06 7.27-1.97 2.98-1.9 3.16-4.89-.41-3.11-2.93-4.1-.88-.65-.82-1.76.59-2.28 2.58-3.05 2.34-1.81 2.58-4.68-.24-4.22-3.87-5.63-.88-.35-.82-1.05 0-1.7 1.64-2.11 2.17-.94 2.11-3.28-.24-2.88-3.25-4.37-3.02-1.49-7.59-1.49zM54.9 39.5q-2.05 0-3.46-1.08-1.4-1.09-1.46-2.9.52-3.93 4.8-3.99 1.99.06 3.52 1.26 1.52 1.2 1.64 2.96-.18 1.41-1.79 2.55t-3.25 1.2zm77.23-13.83q0-6.5-4.87-8.03-2.17-.7-5.8-.87-3.87-.06-5.42-.3-1.55-.23-3.02-1.23-4.8-3.75-10.54-3.75-4.22 0-7.39 2.46-4.27 3.17-9.14 2.82-3.57.11-6.06 1.58-2.49 1.46-3.66 3.86-1.18 2.47-1.18 4.93 0 3.22 1.62 5.56 1.61 2.35 4.13 2.58 2.46-.12 4.13-1.46 1.67-1.35 3.78-4.46.35-.35.76-.99 4.74-4.69 12.19-4.34.7-.06 3.16-.06 6.86 0 10.96 1.76 4.1 1.76 5.21 6.04.71 3.22 4.46 3.04 6.68-.64 6.68-9.14zM119 35.05q-.29-3.69-4.51-5.72-4.22-2.02-10.72-2.02-3.75.06-6.86 1-3.11.94-4.98 2.61-1.88 1.67-1.99 3.89.41 3.17 4.33 3.28 1.82-.11 3.52-.82.82-.11 1.52-.11 2.35-.06 2.82 2.34-.36 3.34-5.98 3.28l-10.43-.47q-4.92-.06-7.3 1.58-2.37 1.65-2.43 5.57.3 6.04 6.68 6.45 1.06.05 3.75-.24 2.29-.47 4.92-.35 1.88-.06 2.76.26.88.33.99 1.38-.46 1.93-2.69 2.46-1.88.65-1.99 2.87.52 5.69 6.91 5.75h6.8q5.97.05 9.28-2.2 3.31-2.26 4.31-7.47.24-1.7.82-2.55.59-.85 1.64-1.14.65-.18 1.94-.18h1.69q3.34 0 5.25-1.38 1.9-1.37 2.02-4.24-.12-2.35-1.87-3.73-1.76-1.37-4.46-1.43h-5.51q-.17.06-.87.06-2.7 0-2.76-2.17.18-1.17.94-1.76 2.28-1.17 2.46-4.8zm43.01-22.27q-4.92 0-9.55.94-4.63.94-7.74 2.75-3.22 1.82-3.57 4.63.17 3.05 3.28 4.6 3.11 1.55 8.2 1.5h11.14q4.45.11 8.76-.53 4.3-.65 7.29-2.11 3.05-1.47 3.4-3.93-.24-2.4-2.49-4.22-2.26-1.81-5.89-2.75-3.57-.88-7.32-.88h-5.51zm-1.41 17.35q-5.74 0-11.19 1.05-5.45 1.05-9.14 3.11-3.87 2.16-4.28 5.33-.11 1.99.62 3.19t3.02 2.55q2.1.88 2.34 3.52-.12 1.11-1.06 2.22-2.93 3.11-3.04 7.5.23 8.67 9.72 8.85 5.86-.12 11.14-1.35 5.33-1.23 10.9-2.28 1.28-.18 2.57-.12.3-.06 1.23-.06 2.41 0 4.98 1.35 2.76 1.7 6.45 1.52 2.93.06 4.39-1.32 1.47-1.37 1.47-3.89 0-1.76-.7-3.81-.71-2.05-1.82-3.93-2.46-3.86-6.39-4.22-2.58-.05-4.22.71-5.33 3.04-11.71 3.04-.42.06-2 .06-2.81 0-4.3-.85-1.5-.85-1.56-2.84.12-2.87 2.96-4.31 2.84-1.43 7.71-1.43l10.54.35q4.57 0 7.48-1.73 2.9-1.73 3.07-4.83-.35-2.4-3.22-4.13t-7.33-2.49q-4.16-.76-8.55-.76H160.6zm91.53-4.46q0-6.5-4.87-8.03-2.17-.7-5.8-.87-3.87-.06-5.42-.3-1.55-.23-3.02-1.23-4.8-3.75-10.54-3.75-4.22 0-7.39 2.46-4.27 3.17-9.14 2.82-3.57.11-6.06 1.58-2.49 1.46-3.66 3.86-1.18 2.47-1.18 4.93 0 3.22 1.62 5.56 1.61 2.35 4.13 2.58 2.46-.12 4.13-1.46 1.67-1.35 3.78-4.46.35-.35.76-.99 4.74-4.69 12.19-4.34.7-.06 3.16-.06 6.86 0 10.96 1.76 4.1 1.76 5.21 6.04.71 3.22 4.46 3.04 6.68-.64 6.68-9.14zM239 35.05q-.29-3.69-4.51-5.72-4.22-2.02-10.72-2.02-3.75.06-6.86 1-3.11.94-4.98 2.61-1.88 1.67-1.99 3.89.41 3.17 4.33 3.28 1.82-.11 3.52-.82.82-.11 1.52-.11 2.35-.06 2.82 2.34-.36 3.34-5.98 3.28l-10.43-.47q-4.92-.06-7.3 1.58-2.37 1.65-2.43 5.57.3 6.04 6.68 6.45 1.06.05 3.75-.24 2.29-.47 4.92-.35 1.88-.06 2.76.26.88.33.99 1.38-.46 1.93-2.69 2.46-1.88.65-1.99 2.87.52 5.69 6.91 5.75h6.8q5.97.05 9.28-2.2 3.31-2.26 4.31-7.47.24-1.7.82-2.55.59-.85 1.64-1.14.65-.18 1.94-.18h1.69q3.34 0 5.25-1.38 1.9-1.37 2.02-4.24-.12-2.35-1.87-3.73-1.76-1.37-4.46-1.43h-5.51q-.17.06-.87.06-2.7 0-2.76-2.17.18-1.17.94-1.76 2.28-1.17 2.46-4.8zm46.99-23.09q-3.75-.17-6.33 2.23-1.28 1.17-2.98 1.55-1.7.38-4.05.32h-2.34q-13.01-.35-12.42 15.82v4.57q-.18 9.2-2.23 18.4-.23 1.06-.12 3.75-.47 9.2 6.21 9.44 3.4-.18 5.54-2.73t2.2-6.24V35.16q.29-11.01 11.95-10.66l11.02 1.17q3.34.24 4.1.24h9.02q2.93.05 4.87-1.38 1.93-1.44 2.05-4.01-.12-5.39-5.86-5.39-1.88.11-3.52.35-1.46.23-3.75.23-3.87-.41-6.91-2.58-2.76-1.29-6.45-1.17zm5.86 15.35q-3.16-.17-5.27 1.41-2.17 1.46-4.81 1.41h-3.16q-7.15 0-7.27 5.62.24 1.99 1.53 3.52.76.82.82 2.11-.18 1.23-.82 2.22-.47 1.41-.59 2.93.59 3.81 4.92 4.45h.12q.64 0 1.06.94-.42 1.12-2.93 1.29-2.11.53-3.34 2.11-1.23 1.58-1.23 3.52 0 2.22 1.55 3.63 1.55 1.41 4.3 1.35h2.7q3.46-.18 6.33 2.46 3.1 2.28 7.73 2.11 4.05.11 7.27-2.35 3.1-3.16 7.26-3.51 3.4-.35 3.64-3.69-.18-2.17-1.62-3.23-1.43-1.05-3.54-.99-1.82-.3-1.87-1.76.05-1.23 1.05-1.82 1-.58 2.58-.64 3.34-.24 3.4-3.28-.3-4.34-4.81-4.34-.76.06-1.64.24-.76.23-1.64.23-2.17-.29-3.75-1.52-1.76-.88-3.81-.88-2.75 0-4.63 1.93-1.64 1.47-3.98 1.41-1.17.06-1.82-.38-.64-.44-.64-1.2 0-.77.7-1.59.7-.82 1.82-1.17 2.46-.82 4.63-.82 5.33.18 10.66 1.06 1.23.35 2.7.35 6.5 0 6.68-6.21-.42-4.1-5.28-4.1-.82 0-2.69.23-1.35.29-2.7.35-1.87-.06-3.4-1.05l-2.93-1.76q-2.11-.65-3.28-.59zm48.4 21.45q0-7.74-.7-15.21-.71-7.47-2.11-13.85-.35-1.76-1.56-3.49-1.2-1.73-2.9-2.96-1.93-1.23-3.98-1.29h-4.45q-2.46.12-4.31 2.29-1.85 2.16-2.9 5.97-1 3.87-1 8.5l.47 10.19v10.08q.12 4.22-.7 8.56-.23 1.23-.12 3.98-.17 3.17.88 4.95 1.06 1.79 3.69 1.91 2.46-.12 3.81-2.2t1.35-5.48v-4.92q-.18-1.23.44-1.99.61-.76 1.67-.76.88 0 1.49.58.62.59.62 1.47 0 1.11-.24 2.11-.47 2.28-.58 4.57.06 2.34 1.43 4.24 1.38 1.91 3.14 2.03h.7q2.7-.47 4.28-4.87 1.58-4.39 1.58-9.96v-4.45zm4.22-36.8q-2.29.12-3.93 1.99-1.64 1.88-1.7 4.22.06 1.99 1.5 3.66 1.43 1.67 3.31 1.73 2.28-.11 3.87-2.28 1.58-2.17 1.64-4.98-.12-1.76-1.5-3.02-1.37-1.26-3.19-1.32zm12.42 0h-1.76q-1.7.18-2.66 2.43-.97 2.26-1.32 6.36-.18 2.75-1.47 4.28-1.29 1.52-4.51 2.52-3.51 1.64-3.51 6.09-.41 4.57 4.92 5.63 1.35.41 1.64 1.87-.53 1.58-2.23 2.46-3.22 2.29-3.86 6.45.11 3.51 3.04 6.44 2.46 2.99 2.7 7.21 1.52 4.86 7.5 4.69h1.87q3.11-.12 5.07-2.2 1.96-2.08 3.25-6.18.24-1.99 1.99-3.28 1.59-.82 2.82-2.73 1.23-1.9 1.29-3.48-.36-6.04-5.28-7.86-1.75-.52-1.75-1.99.41-2.22 2.81-2.34 1.7-.35 2.93-1.88 1.23-1.52 1.29-3.28-.06-2.46-1.5-4.42-1.43-1.96-3.78-2.61-4.22-1.17-5.39-8.91-.64-5.21-4.1-5.27zm10.9 0q-4.81.47-4.69 5.74 0 2.41 1.09 4.08 1.08 1.67 2.9 1.78 2.22-.11 3.63-2.11 1.41-1.99 1.41-4.74 0-4.63-4.34-4.75zm-40.2 16.88q-2.93-.65-2.81-4.34-.29-3.11 2.58-3.16 2.81.11 2.58 3.75.23 3.39-2.35 3.75zm.24 14.41q-2.52-.23-2.52-2.81l.06-.71q-.06-.23-.06-.93 0-2.52 2.52-2.58 2.75.12 2.58 3.51.17 3.23-2.58 3.52zm63.34-31.29q-7.5 0-8.73 5.98 0 1.64 1.61 2.93 1.61 1.29 4.25 1.99 2.63.7 5.62.7 7.5.3 7.74-5.86-.24-2.52-3.37-4.13-3.14-1.61-7.12-1.61zm20.92 1.88q-2.93.05-4.87 1.55-1.93 1.49-2.87 3.84-.82 1.87-2.11 6.21-1.93 6.85-6.3 10.63-4.36 3.78-11.04 3.9h-3.99q-5.86.17-5.86 5.92 0 1.81.85 3.22.85 1.41 2.55 1.87 1.76.41 2.11 2.7.12 1.87-1.4 3.75-1.35 1.99-1.29 4.34.58 5.56 7.73 5.8h2.58q5.16-.12 8.82-1.88 3.66-1.76 6.24-4.98 2.46-3.1 4.86-7.97 1.17-2.05 4.1-2.05.47 0 3.4.29 1.82.24 5.51.24 10.66 0 11.02-7.97-.24-2.34-1.82-4.22-1.58-1.87-4.04-3.22-3.05-1.52-5.51-2.52-2.17-1.29-2.17-4.16 0-1.7 1-5.33.23-1.88.23-2.35-.12-3.28-2.26-5.36-2.13-2.08-5.47-2.25zM382.61 24.5q-3.34 0-5.15 1.08-1.82 1.09-1.94 3.61.12 3.16 3.05 4.89 2.93 1.73 7.62 1.67.35.06 1.64.06 3.4 0 5.27-1.09 1.88-1.08 1.99-3.66v-1.05q-.29-2.7-3.8-4.1-3.52-1.41-8.68-1.41zm34.75 28.59q-3.69 0-6.12 2-2.44 1.99-2.55 5.39.11 3.75 3.31 5.65 3.19 1.91 8.64 1.91 4.69 0 7.44-1.85 2.76-1.85 2.99-5.71-.18-3.28-3.25-5.31-3.08-2.02-7.77-2.08h-2.69zm68.67-33.51q-.64-5.57-7.26-5.74l-9.26.35q-4.1-.3-6.92-1.53-2.63-.7-5.39-.7-4.63.06-8.43 1-3.81.93-6.16 2.69-2.34 1.76-2.52 4.16l-.05.94q0 4.75 4.1 4.75l.76-.06q5.56-.47 11.01-1.76 2.7-.53 4.05-.53 3.04 0 3.57 2.05-.12 1.06-1.76 1.82-1.64.76-3.75.76h-4.45q-6.33-.06-10.08 1.11-3.75 1.18-5.51 3.75-.76 1.12-1.23 2.79-.46 1.67-.46 3.54 0 3.17 1.55 5.95 1.55 2.78 4.95 4.37 5.98 2.87 16.76 2.87h8.9q11.72.11 17.43-3.14 5.72-3.25 5.78-10.46 0-7.85-6.1-10.78-1.76-.7-1.87-2.11.11-1.17.82-1.87 1.52-2.41 1.52-4.22zm-9.61 15.7q-.29.06-1.4.06-3.7 0-3.99-1.7.53-2.4 4.22-2.11 4.45 0 4.69 2.11-.47 1.7-2.64 1.7-.7 0-.88-.06zm-21.68 0l-1.05.06q-1.94 0-2.87-.53-1-.47-1-1.17 0-.88 1.29-1.46 1.41-.65 3.4-.65 4.39 0 4.33 1.99-.23 1.94-4.1 1.76zm20.74 7.5q-3.63 0-3.98-2.34.47-2.11 4.34-2.11 1.52 0 2.75.55 1.23.56 1.35 1.56-.53 2.34-4.46 2.34zm-21.32.47q-3.75.23-4.22-2.23.23-1.99 4.33-1.99 1.82 0 3.17.5 1.35.5 1.52 1.61-.12 1.11-1.41 1.64-1.28.53-3.39.47zm19.92 11.25h-31.17q-6.45 0-6.57 5.98.47 7.38 9.26 7.56h37.27q9.02.05 9.26-7.09 0-4.05-4.46-5.34-4.28-1.23-13.59-1.11z"/></svg>