<svg viewBox="0 0 479 80" xmlns="http://www.w3.org/2000/svg"><path d="M53.66 35.36q-4.02-.3-6.6-2.76-1.32-1.38-2.04-3.12-.72-1.74-.72-3.48 0-1.8.72-3.57.72-1.77 2.04-3.09 2.94-2.64 6.6-2.64 1.8 0 3.54.69t3.12 1.95q1.2 1.32 1.92 3.09.72 1.77.72 3.57 0 3.66-2.64 6.6-2.52 2.46-6.66 2.76zm-9.18 19.62q.54 0 1.02.42t.54 1.02v.3q0 .72-.42 1.2t-1.02.54q-3.12.9-7.2 1.8 0 .72.06 1.08 0 1.2.51 3.18.51 1.98 1.65 1.98.78 0 1.38-.72.42-.24.96-.06.3.24.33.51.03.27-.21.51-1.62 1.8-3.48 1.8-2.64 0-4.74-2.82-1.14-1.68-1.92-4.26-4.62 1.02-6.9 1.8-.48.12-.66.12-.96 0-1.53-.81-.57-.81-.57-1.83-.06-.66.27-1.2.33-.54 1.05-.78l.78-.36q2.52-.66 6.54-1.5-.36-2.16-.42-3.36-.48.06-1.74.3-2.22.24-3.9-1.26-1.68-1.5-1.68-3.66t1.56-3.6q-.54 0-1.5-.24-3.18-.72-5.31-3.66-2.13-2.94-2.13-6.3 0-1.32.3-2.52 1.26-4.14 4.02-9.78 1.5-2.52 3.87-3.81t5.13-1.29q2.76.12 5.28 1.26 2.46 1.44 3.81 3.84t1.35 5.16q0 1.14-.3 2.52l2.88-.18q1.68-.24 2.73.84t1.05 2.52q0 1.2-.72 2.07-.72.87-2.04 1.05l-7.5.96-.06.18q-1.2 3.42-3.84 5.34 4.02-.54 9.18-.66 1.56.06 2.46 1.26.9 1.2.9 2.7 0 1.26-.63 2.37t-1.89 1.53q-1.02.36-4.14 1.32l-.24 4.02q2.34-.36 6.72-.84h.36zm-20.7-32.46q0 .48.33.78.33.3.75.3.48 0 .78-.3.3-.3.3-.78 0-.48-.3-.78-.3-.3-.78-.3-.42 0-.75.3t-.33.78zm25.74-1.08q-.72.06-1.23.63-.51.57-.51 1.29 0 .66.48 1.17.48.51 1.26.57.84-.06 1.29-.63.45-.57.33-1.35-.06-.72-.51-1.2t-1.11-.48zM78.5 64.22q.24 0 .39.18.15.18.15.42 0 .36-.24.54-2.94 2.1-5.82 2.1h-.48q-.9 0-1.38-.3-2.28-.78-3.45-2.82-1.17-2.04-1.41-4.74-.06-1.44.72-2.22-3.72 1.32-7.08 1.5-3.66 5.1-7.44 9-.24.3-.63.48t-.75.18q-.84 0-1.5-.63t-.66-1.41q0-.36.18-.75t.24-.51q2.4-2.7 6.18-6.48-3.12-.6-5.52-2.64-2.4-2.04-3.75-4.95t-1.35-6.03q0-2.46 1.08-5.28.78-1.92 2.31-2.97 1.53-1.05 3.39-1.05 1.38 0 2.82.66 2.88-.72 6.24-.72 2.4 0 4.62.36 4.38-7.74 7.26-12.48.72-1.14 2.1-1.14.96 0 1.74.69t.78 1.71q0 .42-.36 1.26-4.08 6-8.28 10.68 3.96 1.14 6.36 3.36 2.4 2.22 2.4 5.28-.12 2.16-1.14 4.32-1.92 3.96-7.08 6.6h.18q1.32.18 2.25 1.08.93.9.75 2.46-.06.36-.06 1.44-.12 1.92 1.08 2.76 1.68.42 2.22.42.78 0 1.65-.15.87-.15 1.17-.21h.12zM23.96 24.98q.06-.18.09-.21t.03-.09q-.12-.36-.48-.36-.3 0-.54.24-3.9 5.22-4.44 11.64 0 .3.27.3t.39-.24q1.26-5.52 4.68-11.28zm25.26 27.78q.24.24.48.24.36 0 .36-.42 0-.3-.12-.54-1.08-1.8-1.5-3.36-.42-1.56-.42-3.42 0-1.56.18-3.72v-.12q0-.36-.24-.36t-.48.42q-.42 1.62-.42 4.68 0 3.96 2.16 6.6zM63.56 56q1.92 0 3.93-.63 2.01-.63 3.39-1.53 1.92-1.32 3.18-2.94 1.26-1.62 1.26-3.18 0-.9-.33-1.56T73.7 44.9q-2.46-1.62-8.16-1.62-4.02 0-8.04.84-.12 3.84-.12 6.06 0 1.38.06 1.8Q57.8 56 63.56 56zm-35.64-4.26l.06-.18q0-.24-.36-.48-.9-.42-1.38-1.29-.48-.87-.48-1.89 0-.24-.18-.39-.18-.15-.36-.15-.48 0-.54.42-.06.18-.06.6 0 1.26.72 2.4t1.86 1.32h.12q.18 0 .36-.12t.24-.24zm41.22 12.78q.12.18.24.18t.24-.15q.12-.15.06-.33-.72-.84-.93-1.98-.21-1.14-.21-2.7 0-.42-.15-.69-.15-.27-.33-.27-.3 0-.48.96 0 2.88 1.56 4.98zm-45.06-2.58q.24.3.54.3.24 0 .45-.21.21-.21.21-.45 0-.24-.3-.42-.66-.42-.66-1.38 0-.36-.24-.36-.12 0-.21.12t-.15.24q-.06.24-.06.72 0 .72.42 1.44zm27.18 5.46h.06q.3 0 .48-.18t.18-.42q0-.42-.6-.42t-.9-.42q0-.24-.24-.24t-.24.42q.18.96 1.2 1.26h.06zm69.24-45.3q6.9 1.56 11.04 5.16 4.14 3.6 4.14 8.7 0 .36-.27.57-.27.21-.63.21-.48 0-.75-.21t-.27-.63q0-3.18-2.64-4.47-2.64-1.29-7.38-1.29-3.72 0-8.04.63-4.32.63-9.84 1.65-.12 0-3.42.6l-.78 3.36q-.66 2.16-2.43 3.54t-3.99 1.38q-3.06 0-4.83-1.71t-1.77-4.89q0-1.2.12-1.86 1.26-4.44 2.43-7.23 1.17-2.79 2.73-3.69 1.32-.78 3.12-.78 1.14 0 2.19.42t1.83 1.2q1.98-.66 4.8-1.14l-.78-1.38q-.6-1.26-.6-3.06 0-1.86.69-3.72t1.95-3.12q1.32-1.32 2.91-2.01 1.59-.69 3.27-.69.9 0 2.1.3 2.88.72 4.89 3.09t2.01 5.31q0 1.5-.36 2.76-.48 1.68-1.44 3zm-10.74-10.2q-1.08 0-1.86.78t-.78 1.98q0 1.08.78 1.83t1.86.81q1.2 0 1.98-.78t.78-1.86q0-1.2-.78-1.98t-1.98-.78zM94.94 25.58q.3 0 .51-.21.21-.21.21-.51 0-.3-.21-.51-.21-.21-.51-.21-.3 0-.51.21-.21.21-.21.51 0 .3.21.51.21.21.51.21zm-3.24 10.5l.96-2.82q1.56-4.26 1.56-5.52 0-.96-.66-1.02h-.06q-.3 0-.48.24t-.24.36q-1.38 4.8-1.8 8.7 0 .3.33.33.33.03.39-.27zm40.2 12.18q.66.06 1.02.57t.36 1.17q0 1.2-1.02 1.56-.78.24-7.08 1.68-.66.12-2.94.66.66 2.46.66 4.68 0 2.46-.72 4.38-1.08 2.76-3 4.5-1.92 1.74-3.9 2.52t-3.36.78q-.54 0-.9-.36-.42-.42-.42-1.02 0-.78.57-1.35.57-.57 1.41-.45l.42.06q.06 0 .3.12 2.46-.48 4.14-1.68 1.68-1.2 1.68-3 0-1.14-.48-2.34-.54-1.2-1.35-2.28-.81-1.08-2.37-2.88-4.98 1.14-8.55 1.95-3.57.81-4.71 1.05-1.44 0-2.25-1.11t-.81-2.55q0-1.32.81-2.4.81-1.08 2.31-1.38 6.48-1.26 12.36-1.98.6-.66 1.35-1.02.75-.36 1.53-.36 1.44 0 2.34.84l.24-.06q.72-.42 1.38-1.02 1.08-.9 1.71-1.83.63-.93.63-1.65 0-2.28-3.18-2.28-1.5 0-2.94.24t-3.36.72q-3.48.84-5.22.9-2.82 0-4.68-1.32-1.86-1.32-1.86-3.84 0-1.92 1.02-3.39 1.02-1.47 2.76-1.89 3.42-.78 6.36-.78 4.98 0 8.88 1.86 3.9 1.86 5.22 5.64.6 1.68.6 2.58 0 1.8-1.14 3.21t-3.24 2.67q2.7-.18 5.28-.18 2.82 0 4.14.06zm-22.5-5.88q.24-.18.24-.45t-.3-.27q-2.04.06-3.21-.96t-1.83-3.24q-.12-.42-.36-.42t-.3.42q.06 5.16 3.96 5.16.9 0 1.8-.24zm-7.38 15.24q.3 0 .36-.27t-.24-.51q-1.2-.66-1.2-2.1 0-.6.06-.9l.06-.12q0-.18-.15-.27-.15-.09-.27-.09-.24 0-.42.24-.54.72-.54 1.56 0 .9.63 1.62.63.72 1.53.84h.18zm16.8 1.74q.12.3.36.3t.39-.21q.15-.21.09-.51-.66-1.92-2.76-3.18-.18-.06-.36.06t-.06.24q1.5 1.5 2.34 3.3zm60.66-16.98q-4.68-1.02-7.23-4.98-2.55-3.96-2.55-9.3 0-2.94.9-6.66h-.06q.96-2.88 2.73-4.59t4.05-1.71q2.82 0 4.38 1.92 3.18-.54 6.06-.54 3.6 0 6.54 1.02t5.46 3.24q1.56 1.38 2.4 3.57.84 2.19.84 4.65 0 2.34-.84 4.56-.84 2.22-2.46 3.84-3.18 3.18-9.42 4.26l-1.56.3q-1.56.3-3.15.51-1.59.21-2.91.21-1.8 0-3.18-.3zm-21.3-3.48q-2.16 0-4.14-.78-1.98-.78-3.42-2.22-3.06-3.06-3.06-7.5 0-4.56 3.06-7.56 1.5-1.44 3.48-2.22 1.98-.78 4.08-.78 2.04 0 3.99.78 1.95.78 3.39 2.22 3.18 3.18 3.18 7.5 0 2.04-.81 3.99-.81 1.95-2.37 3.51-1.44 1.44-3.39 2.25-1.95.81-3.99.81zm35.58-16.38q-4.92 0-10.62 2.4l-.06 3.36q4.02-.9 9.72-1.74.36-.06.84-.06 1.8 0 2.97 1.32 1.17 1.32 1.17 3.06 0 1.26-.81 2.28-.81 1.02-2.31 1.26-1.08.18-3.96.78-.6.12-3.09.6-2.49.48-4.53.54.3 2.04 1.86 2.94 1.56.9 3.84.9 1.32 0 2.85-.33t2.73-.75q3.42-1.26 5.1-3.54 1.68-2.28 1.68-4.98 0-2.1-.93-3.93t-2.61-2.97q-1.68-1.14-3.84-1.14zm-39.6.36q-.9 0-1.59.66-.69.66-.69 1.56t.69 1.56q.69.66 1.65.66.84 0 1.53-.63.69-.63.69-1.47 0-.96-.66-1.65t-1.62-.69zm18.18 1.08q-.36 2.16-.36 4.86 0 4.14.66 6.24.24.78.9.78.24 0 .39-.24.15-.24-.03-.72-.96-2.88-.96-5.82 0-2.1.48-4.98v-.24q0-.6-.42-.6-.48 0-.66.72zm-12.36 23.88q0 2.04-1.02 3.75t-2.73 2.7q-1.71.99-3.69.99t-3.63-1.02q-1.65-1.02-2.64-2.73-.99-1.71-.99-3.69 0-3 2.13-5.13t5.13-2.13q1.98 0 3.69.99t2.73 2.64q1.02 1.65 1.02 3.63zm43.62-1.92q2.04.96 3.57 2.82 1.53 1.86 1.53 3.72 0 1.2-.84 2.22-.84 1.02-2.46 1.74-.18.06-.42.06-.48 0-.72-.36t-.24-.84q0-.12-.03-.3t.03-.3q.36-.54.36-1.08 0-3-7.05-4.26-7.05-1.26-15.75-1.26h-1.02l.06.12q.36 1.08.72 3.48.24 1.56.42 2.28.6 2.58.6 5.28 1.92-.42 3.18-.66-.54-1.32-.54-3.18 0-1.14.21-2.49.21-1.35.51-2.61.42-1.14 1.68-1.14.66 0 1.11.39.45.39.45 1.11l.24 1.74q.42 2.4.42 3.96 0 1.08-.12 1.62 2.04-.24 4.08-.36v-1.08q0-1.38.3-3.09t.36-2.07q0-.6.78-.96h.3q.48 0 .9.27.42.27.54.69 0 .72.06 1.26t.12.9q.24 1.8.24 2.64 0 1.02-.06 1.5 2.4.18 4.08.6.42.06.66.36.24.3.24.66 0 .84-.9 1.2-2.16.9-4.44 1.23-2.28.33-5.82.57-.6.06-2.52.21t-3.54.45l-3.12.54q-.78 1.92-2.46 3t-3.66 1.08q-2.58 0-4.8-1.92-.96.12-2.4.48h-.24q-.3 0-.6-.21t-.42-.57q-.06-.12-.06-.42 0-.78.78-.96.84-.36 1.26-.48-2.34-4.08-2.34-9.18 0-4.08 1.56-7.62v-.06q.72-1.56 2.37-2.4 1.65-.84 3.45-.84.66 0 .96.06 1.92.24 3.42 1.56 6.36-1.92 12.06-1.92 6.78 0 12.96 2.82zM149 48.2q.72 0 1.2-.45t.48-1.11q0-.66-.48-1.14-.48-.48-1.2-.48-.6 0-1.05.48-.45.48-.45 1.2 0 .6.45 1.05.45.45 1.05.45zm20.88 1.68q-.54 2.52-.54 4.32 0 2.1.72 4.02.12.36.36.54.24.18.42.18.24 0 .33-.18.09-.18-.03-.48-.66-1.8-.66-4.26 0-1.38.36-4.02v-.12q0-.24-.12-.39-.12-.15-.3-.15-.42 0-.54.54zm16.2 2.1q-.12.78-.12 2.4v2.76q0 .24.18.42t.36.18q.42 0 .36-.66-.36-2.1-.36-3.6 0-1.02.06-1.5v-.06q0-.3-.21-.27-.21.03-.27.33zm-22.44 3.3q.9 0 1.59.57.69.57.69 1.35 0 .66-.42 1.14-2.04 3.66-5.16 7.5-.66.72-1.68.72-.66 0-1.14-.3-1.02-.66-1.02-1.8 0-.72.36-1.14 1.32-1.68 2.88-4.08l2.16-3.06q.48-.9 1.74-.9zm-5.1 10.62l.42.06q.72 0 .72-.42 0-.3-.36-.57-.36-.27-.84-.27-.3 0-.51-.12-.21-.12-.39-.48-.12-.24-.33-.24-.21 0-.21.3 0 .54.48 1.08t1.02.66zM276.2 33.74q3 1.8 4.74 4.53 1.74 2.73 1.74 5.79 0 2.1-1.02 4.17t-3.12 3.81q-.24.12-.36.12-.36 0-.6-.33t0-.57q1.38-1.62 2.04-2.64.66-1.02.66-1.98 0-1.98-1.77-3.24-1.77-1.26-4.23-1.86-2.46-.6-4.44-.6h-.78l-.24 3.84-1.5 21.24q-.12.36-.42.63t-.66.27l-.24.06q-.36 0-.66-.3-.3-.3-.42-.66-.36-3.84-1.02-10.5-.96-8.22-1.32-14.04l-.9.12q-1.56.18-3.3.54.24 8.46.42 11.04.18 2.04-1.2 3.3-1.38 1.26-3.36 1.26-1.2 0-2.34-.54t-1.92-1.56q-2.34-3-3.33-7.74-.99-4.74-.99-9.18 0-1.86.06-2.52.06-2.46 1.83-4.23 1.77-1.77 4.29-1.77 2.22 0 3.84 1.26 3.12-.6 6.3-.72v-1.02q0-3.96.66-6.72t2.52-3.6q.72-.3 1.2-.3 1.08 0 1.89.84.81.84.81 1.92 0 .42-.06.6-.12.48-.12 1.8 0 1.56.3 3.66.3 2.7.3 3.36 3.78.72 6.72 2.46zm-11.04-13.02q-.72.6-1.14 1.56-.42.96-.42 2.1 0 .84.24 1.5.18.36.48.36.18 0 .3-.15t.06-.39q.12-2.64 1.2-4.38.06-.06.06-.18 0-.3-.27-.48t-.51.06zm-24.54 3.9q1.14 0 1.98.72.84.72 1.08 2.16.66 4.38.66 10.8 0 4.5-.36 9.24t-1.02 11.1q0 .78-.51 1.29t-1.29.51q-.78 0-1.29-.51t-.57-1.29l-.48-7.98q-1.02-14.52-1.02-23.16 0-1.44.81-2.16.81-.72 2.01-.72zm-.54 3.36q.24-.24.24-.6 0-.54-.3-.84-.24-.24-.6-.24t-.66.3q-.3.3-.3.72 0 .48.27.72t.63.24q.42 0 .72-.3zM234.32 38q.06.84.21 4.38t.27 5.52q.06 2.28.12 3.27.06.99.06 1.17.12 1.98-.9 3.48t-2.73 2.34q-1.71.84-3.57.84-3.12 0-5.28-2.61t-3.18-6.6q-1.02-3.99-1.02-8.07 0-5.46 1.95-8.55 1.95-3.09 6.03-3.09 3.24 0 5.49 2.28t2.55 5.64zm15.36 12.9q.12.36.6.36.3 0 .51-.24.21-.24.03-.66-1.32-4.62-1.89-6.96-.57-2.34-.81-5.04 0-.42-.24-.42-.12 0-.21.15t-.09.27q0 6.24 2.1 12.54zm-26.34 2.64q.12.12.18.12.18 0 .36-.12t.12-.3q-1.14-2.4-1.8-5.88-.66-3.48-.66-6.72 0-1.26.06-1.8v-.12q0-.3-.15-.48t-.33-.18q-.48 0-.6.66-.66 2.22-.66 4.68 0 5.4 3.48 10.14zm27.78-.36q.36 0 .36-.54 0-.36-.21-.63t-.69-.27q-.48 0-.48.54 0 .42.27.69.27.27.75.21zm71.46-28.5q2.4 6.18 2.4 13.2 0 10.8-5.58 21.96-.12.36-.54.57-.42.21-.9.21-.84.06-1.38-.48-.54-.54-.54-1.32l.06-1.26q.24-3 .24-4.5 0-4.44-.45-8.88t-1.35-11.1q-.3-2.04-.96-7.08v-.06l-.06-.66q0-1.74 1.2-2.7 1.2-.96 2.88-.96 1.62 0 3.03.81 1.41.81 1.95 2.25zm-6.24-.36q-1.14 0-1.14 1.38 0 .36.12 1.08.12.66.51 1.08.39.42.99.24.78-.36.66-1.68-.12-1.02-.33-1.56-.21-.54-.81-.54zm25.2 13.62q2.1.96 3.12 3.09t1.02 4.77q0 1.86-.51 3.63-.51 1.77-1.35 2.97-1.08 1.8-2.85 2.82-1.77 1.02-3.75 1.02-.9 0-2.1-.3-1.92-.54-3.3-1.92-1.08-1.08-1.71-2.52-.63-1.44-.63-2.88 0-.9.3-2.1.84-3.42 1.08-3.96.54-2.04 2.16-3.48 2.1-1.92 5.04-1.92 1.74 0 3.48.78zm-46.02.66q1.68-1.02 3.54-1.02 1.08 0 3.42 1.38t4.2 4.05q1.86 2.67 1.86 6.45 0 2.04-1.02 3.69t-2.64 2.58q-1.62.93-3.42.93-1.8 0-3.42-1.08-2.76-1.86-4.32-4.77-1.56-2.91-1.56-5.79 0-2.04.84-3.72.84-1.68 2.52-2.7zm38.88 4.08q-1.32 2.7-1.38 4.98 0 .18.12.27.12.09.24.09.24 0 .36-.12 1.14-2.34 1.14-5.04 0-.24-.21-.27-.21-.03-.27.09zm-40.38 3.54q0 2.1 1.17 3.75t3.15 2.31q.12.06.3-.18t.06-.42q-1.44-.9-2.37-2.34-.93-1.44-1.23-3.12 0-.48-.6-.48-.48 0-.48.42v.06zm107.4-16.44q0 2.46-1.47 4.32-1.47 1.86-4.17 2.22.24 2.1.24 4.68 0 9.42-3.78 20.46 0 .24-.18.39-.18.15-.48.09-.18-.06-.33-.24-.15-.18-.15-.3l.06-2.88q0-4.98-.63-10.17-.63-5.19-1.77-11.73-12.66.36-24.6.9-3.6.18-5.64-2.1-2.04-2.28-2.04-5.58 0-3.18 2.04-5.64 2.04-2.46 5.64-2.7 3.18-.18 9.36-.18 4.68 0 9.39.3 4.71.3 11.79.9 3.12.24 4.92 2.37 1.8 2.13 1.8 4.89zm-5.76-3.84q.3 0 .51-.15.21-.15.21-.33 0-.36-.54-.42l-1.5-.18q-2.94-.42-5.04-.63-2.1-.21-4.2-.09-.36.06-.48.33t.24.39q3.66.54 6.12.81t4.68.27zm-36.42-.06V26q0 .72.9.72.24 0 .48-.18t.24-.54q0-.18-.12-.39-.12-.21-.3-.33-.3-.18-.48-.18-.24 0-.45.24-.21.24-.27.54zm3.42 9.96q.24 0 .3-.21t-.18-.39q-1.44-.66-2.52-2.25-1.08-1.59-1.08-3.21 0-.3.18-.99t.18-.87q0-.24-.18-.24t-.54.3q-.36.3-.57.96-.21.66-.21 1.38 0 2.22 1.32 3.69 1.32 1.47 3.3 1.83zm13.8 3.66q2.82 0 5.31.93 2.49.93 3.99 2.73 1.08 1.32 1.65 2.88.57 1.56.57 3.12 0 3.6-2.64 6.18-2.28 2.22-5.7 3.63-3.42 1.41-6.84 1.41-2.34 0-4.08-.6-3.9-1.38-6.18-4.68t-2.28-7.26q0-3.12 1.44-5.7.78-1.44 2.01-2.19 1.23-.75 2.61-.75 2.4 0 4.26 1.68 2.46-1.38 5.88-1.38zm.48 17.04q2.1 0 4.02-1.14 1.92-1.14 3.12-3.03 1.2-1.89 1.2-3.99 0-2.04-1.11-3.42t-3.15-1.38q-2.16 0-4.5.96t-3.42 2.28q-.42.42-.9.72-.18 1.2-.42 3.9-.06.3-.06.78 0 1.02.6 2.1 1.2 2.22 4.62 2.22zm-13.8-12.24q-.3 0-.54.24-.24.24-.24.66 0 .3.24.54.24.24.54.24.42 0 .66-.24.24-.24.24-.54 0-.42-.24-.66-.24-.24-.66-.24zm3 11.7q.06.06.18.06.18 0 .15-.24t-.15-.36q-3-2.7-3-8.04 0-.18-.33-.18t-.33.12q-.24 1.02-.24 2.28 0 4.32 3.72 6.36zm58.02-34.56q-.54-.06-1.71-.51t-2.1-1.26q-.93-.81-.93-1.95 0-3.36 3.3-4.5 3.3-1.14 8.22-1.5l1.2-.12q6.48-.66 10.38-.66 6.48 0 9.42 1.74 1.14.66 1.83 1.86.69 1.2.69 2.58 0 2.16-1.5 3.75-1.5 1.59-3.66 1.59l-4.26.06q-8.46 0-20.88-1.08zm-1.8-6.36q-.24.06-.39.24-.15.18-.15.36 0 .24.27.36t.63-.06q1.68-.78 5.04-1.44.66-.12.66-.54 0-.18-.21-.3t-.51-.06q-2.88.42-5.34 1.44zm16.68 7.8q2.22 0 3.9 1.38 1.68 1.38 1.68 3.42 0 2.1-1.68 3.3-1.68 1.2-3.84 1.2-1.86 0-3.21-1.38-1.35-1.38-1.35-3.24 0-1.98 1.38-3.33t3.12-1.35zm-15.48 15q-3.12 0-5.31-2.19-2.19-2.19-2.19-5.31 0-3.12 2.19-5.28t5.31-2.16q3.12 0 5.31 2.16 2.19 2.16 2.19 5.28t-2.19 5.31q-2.19 2.19-5.31 2.19zm29.76-12.84q1.68 1.2 1.68 2.82 0 1.2-1.02 2.16-1.26 1.14-1.86 1.56-.6.42-1.26.42t-1.38-.54q-.78-.6-1.11-1.11-.33-.51-.33-1.17 0-.78.6-2.28.42-1.08 1.32-1.68.9-.6 1.92-.6.84 0 1.44.42zm-33.84 2.58q-1.02 1.44-1.02 3.42 0 1.5.6 2.34.3.36.66.36.18 0 .27-.15.09-.15-.03-.39-.54-1.02-.54-2.16 0-1.38.84-3.06.06-.06.06-.18 0-.42-.42-.42-.24 0-.42.24zm31.44 7.02q2.04.42 4.02 1.65 1.98 1.23 3.27 2.94t1.29 3.51q0 2.28-1.92 4.2-.36.36-.96.36-.54 0-.99-.42-.45-.42-.39-.96.18-.36.18-1.08 0-3.6-3.12-5.19-3.12-1.59-8.22-1.59-4.44 0-8.91.81t-9.81 2.01q-.6 0-.72-.36-.06-.12-.06-.36 0-.42.3-.66 4.5-2.58 9.66-4.02 5.16-1.44 10.26-1.44 2.94 0 6.12.6zm-34.2 2.34q1.92 0 3.66 1.68 1.74 1.68 2.76 4.23 1.02 2.55 1.02 4.89 0 3.96-1.86 6.63t-5.34 2.67q-3.48 0-5.31-2.64-1.83-2.64-1.83-6.48 0-2.28 1.05-4.86 1.05-2.58 2.67-4.35 1.62-1.77 3.18-1.77zm34.56 23.22q.18 1.5-.66 3.09-.84 1.59-2.22 2.97l.3.06q.6.12.93.69.33.57.15 1.17-.24.6-.78.96t-1.08.12l-2.28-.54q-1.8 1.44-3.72 2.58l-.42.12q-.3 0-.51-.24-.21-.24-.21-.54 0-.48.6-.78 1.02-.54 1.98-1.56-2.52-.48-4.11-.87-1.59-.39-3.09-1.05-.96-.54-.96-1.5 0-.66.51-1.17.51-.51 1.35-.45 1.8.18 3.57.66 1.77.48 3.33.96t1.98.6q1.38-1.62 1.38-2.7 0-.78-.57-.96-.57-.18-1.95-.18-1.5 0-3.57.21t-2.49.21q-1.62 0-2.7-1.38l-.24-.3-.12-.42q-.6 4.8-1.86 8.34-.18.48-.6.84t-.84.42q-.78 0-1.26-.48t-.54-1.2q.24-5.76 1.56-13.08-2.4-.48-3.66-1.08-1.02-.48-1.59-1.44-.57-.96-.57-2.1 0-1.26.57-2.34.57-1.08 1.59-1.62 2.88-1.56 5.52-2.04.36-1.62.75-2.58t1.11-1.44q.3-.18.54-.18.3 0 .54.24.54 1.32.66 3.24 2.64-.3 4.5-.78 2.1-.3 2.7-.3 2.7 0 4.41 1.17t1.71 3.81q0 2.94-2.61 4.41-2.61 1.47-6.57 2.31-1.14.18-4.02.6l-1.38.18-.3 2.4q.66-1.26 1.92-1.68 2.1-.78 4.68-.78 1.98 0 3.6.42 1.86.3 3.27 1.68t1.77 3.3zm-38.64-7.56q.3.36.66.36.36 0 .51-.27.15-.27-.03-.63-.78-1.74-.78-4.2 0-2.82 1.08-4.56.12-.24.12-.36 0-.24-.18-.42t-.42-.18q-.36 0-.6.3-.72 1.14-1.11 2.64-.39 1.5-.39 3 0 1.38.3 2.52.3 1.14.84 1.8zm17.04-5.22q.12-.12.12-.3t-.18-.24q-.18-.06-.42.12-.78.66-1.17 1.62-.39.96-.39 1.92 0 .66.18 1.2.18.6.66.6.18 0 .24-.21t-.12-.51q-.24-.72-.24-1.14 0-1.5 1.32-3.06zm-14.76 6.84q.18-.12.21-.36t-.15-.48q-.18-.24-.54-.24-.24 0-.39.15-.15.15-.15.39 0 .18.18.48.3.42.84.06zm21.96 11.64q.3 0 .51-.24.21-.24.21-.66 0-.36-.27-.6t-.51-.24q-.24 0-.39.24-.15.24-.15.6t.06.54q.12.36.54.36z"/></svg>