<svg viewBox="0 0 359 80" xmlns="http://www.w3.org/2000/svg"><path d="M40.04 62l-5.97-17.26h-9.85L21.24 62H15.7l7.41-42.66 12.83.03q6.71.03 10.23 3.4 3.51 3.37 2.96 9.17-.33 4.02-2.92 7.06-2.59 3.05-6.9 4.6l6.62 18.02-.03.38h-5.86zM27.83 23.97l-2.81 16.17 8.08.03q4.22 0 7.12-2.24 2.9-2.24 3.4-5.99.44-3.66-1.47-5.74-1.9-2.08-5.8-2.2l-8.52-.03zm40.81 5.74q3.98.06 6.82 2.17 2.85 2.11 4.21 5.82 1.36 3.7.92 8.1l-.06.64q-.55 4.63-2.75 8.37-2.2 3.73-5.68 5.81-3.49 2.08-7.65 1.97-3.96-.06-6.81-2.17-2.86-2.11-4.18-5.74-1.32-3.64-.93-8 .43-4.92 2.66-8.85 2.23-3.93 5.73-6.08 3.5-2.15 7.72-2.04zM57.92 46.03l-.06.68q-.21 1.84 0 3.83.29 3.46 2.06 5.51 1.78 2.05 4.73 2.14 2.64.09 4.87-1.3 2.22-1.39 3.75-4.21 1.52-2.81 1.96-6.24.23-2.69.09-4.54-.35-3.54-2.14-5.59t-4.75-2.17q-4.1-.09-6.97 3.22t-3.54 8.67zm55.43-.35l-.06.62q-.59 4.86-2.67 8.76-2.08 3.89-5.04 5.77-2.96 1.87-6.56 1.79-5.74-.12-8.53-4.31L89.41 62h-4.89l7.82-45h5.3l-3.19 16.82q3.81-4.22 9.26-4.11 4.57.12 7.12 3.37 2.55 3.26 2.69 8.97.03 1.87-.17 3.63zm-5.1-2.46q.09-4.28-1.44-6.55-1.52-2.27-4.66-2.38-4.95-.12-8.37 4.98L91.4 53.06q1.76 4.84 6.59 4.96 3.11.11 5.44-1.85 2.33-1.96 3.53-5.49 1.2-3.53 1.29-7.46zm26.83-13.51q3.99.06 6.83 2.17t4.2 5.82q1.37 3.7.93 8.1l-.06.64q-.56 4.63-2.76 8.37-2.19 3.73-5.68 5.81-3.49 2.08-7.65 1.97-3.95-.06-6.81-2.17-2.85-2.11-4.17-5.74-1.32-3.64-.94-8 .44-4.92 2.67-8.85 2.22-3.93 5.72-6.08 3.51-2.15 7.72-2.04zm-10.72 16.32l-.06.68q-.2 1.84 0 3.83.3 3.46 2.07 5.51 1.77 2.05 4.73 2.14 2.64.09 4.86-1.3 2.23-1.39 3.75-4.21 1.53-2.81 1.97-6.24.23-2.69.08-4.54-.35-3.54-2.13-5.59-1.79-2.05-4.75-2.17-4.1-.09-6.97 3.22t-3.55 8.67zm35.33-23.4h5.28l-1.35 7.67h5.77l-.73 4.19h-5.74l-3.31 19.72q-.09.76-.03 1.4.2 2.29 2.49 2.29.96 0 2.57-.29l-.41 4.42q-1.9.53-3.86.53-3.17-.06-4.75-2.33t-1.23-6.11l3.22-19.63h-5.59l.73-4.19h5.6l1.34-7.67zm27.6 7.08q3.99.06 6.83 2.17t4.2 5.82q1.36 3.7.92 8.1l-.05.64q-.56 4.63-2.76 8.37-2.2 3.73-5.68 5.81-3.49 2.08-7.65 1.97-3.95-.06-6.81-2.17-2.86-2.11-4.17-5.74-1.32-3.64-.94-8 .44-4.92 2.66-8.85 2.23-3.93 5.73-6.08 3.5-2.15 7.72-2.04zm-10.72 16.32l-.06.68q-.21 1.84 0 3.83.29 3.46 2.07 5.51 1.77 2.05 4.73 2.14 2.63.09 4.86-1.3 2.23-1.39 3.75-4.21 1.52-2.81 1.96-6.24.24-2.69.09-4.54-.35-3.54-2.14-5.59t-4.74-2.17q-4.11-.09-6.98 3.22t-3.54 8.67zM232 19.34L224.59 62h-5.48l7.41-42.66H232zm10.72 3.29h5.27l-1.34 7.67h5.77l-.73 4.19h-5.75l-3.31 19.72q-.09.76-.03 1.4.21 2.29 2.49 2.29.97 0 2.58-.29l-.41 4.42q-1.9.53-3.87.53-3.16-.06-4.74-2.33t-1.23-6.11l3.22-19.63h-5.6l.74-4.19h5.59l1.35-7.67zM278.08 62h-5.39q-.2-.85-.2-1.67l.08-1.67q-4.36 4.04-9.25 3.93-4.19-.06-6.82-2.66-2.62-2.59-2.38-6.48.29-5.04 4.41-7.87 4.11-2.83 10.82-2.83l5.54.03.35-2.52q.29-2.84-1.1-4.5-1.39-1.65-4.17-1.71-2.73-.06-4.82 1.33-2.1 1.4-2.57 3.68l-5.33.03q.27-2.78 2.17-4.94 1.9-2.15 4.89-3.34 2.99-1.18 6.18-1.12 4.96.11 7.71 3 2.75 2.88 2.31 7.66l-2.57 15.7-.15 2.26q-.06 1.61.35 3.19l-.06.5zm-13.71-4.1q2.55.06 4.82-1.22 2.27-1.27 3.91-3.53l1.14-6.53-4.01-.03q-5.01 0-7.68 1.58-2.66 1.58-3.01 4.48-.27 2.23 1.04 3.71 1.3 1.48 3.79 1.54zM298.82 17L291 62h-5.27l7.79-45h5.3zm12.1 13.3l-5.5 31.7h-5.28l5.51-31.7h5.27zm-1.14-11.57q1.35-.06 2.24.8.9.87.9 2.27-.03 1.38-.9 2.26-.86.88-2.24.94-1.38.06-2.25-.79-.88-.85-.85-2.23.03-1.38.87-2.28.85-.91 2.23-.97zm17.7 39.46q2.84.06 5.12-1.65 2.29-1.72 2.99-4.5l5.01-.03q-.44 2.99-2.39 5.45-1.94 2.46-4.9 3.84-2.96 1.37-6.07 1.29-3.95-.06-6.69-2.07t-4.03-5.6q-1.29-3.58-.88-8.07l.15-1.46q.55-4.57 2.66-8.18 2.11-3.6 5.51-5.61 3.4-2 7.5-1.89 4.98.12 7.97 3.34 2.99 3.23 2.99 8.18l-4.95-.03q-.06-3.11-1.73-5.03-1.67-1.91-4.51-2.03-4.13-.09-6.87 3.07-2.74 3.17-3.42 8.85l-.08.76q-.18 1.88-.06 3.87.2 3.43 1.93 5.42 1.73 1.99 4.75 2.08z"/></svg>