<svg viewBox="0 0 577 80" xmlns="http://www.w3.org/2000/svg"><path d="M38.84 62l-5.45-16.44h-8.14L22.38 62h-7.24l7.41-42.66 13.45.03q6.95 0 10.64 3.34 3.69 3.34 3.19 9.29-.32 4.13-2.75 7.16-2.44 3.04-6.83 4.76l6.3 17.64-.03.44h-7.68zm-10.1-36.68l-2.49 14.3 7 .06q3.78 0 6.31-1.98 2.54-1.98 2.98-5.38.43-3.31-1.18-5.08-1.61-1.77-4.89-1.89l-7.73-.03zm23.93 21.33l.09-.62q.5-4.65 2.74-8.46 2.24-3.81 5.76-5.89 3.51-2.08 7.79-1.97 4.07.06 7.03 2.17t4.32 5.77q1.36 3.67.95 8.15-.47 5.04-2.74 8.91-2.27 3.86-5.8 5.93-3.53 2.06-7.83 1.95-4.05-.06-6.99-2.16-2.95-2.09-4.32-5.74-1.38-3.65-1-8.04zm6.92 3.4q.14 3.07 1.62 4.93 1.48 1.86 4.12 1.95 3.57.09 5.99-2.75 2.42-2.84 3.03-7.77l.18-2.87q0-3.75-1.5-5.89-1.49-2.13-4.33-2.25-4.46-.12-7.03 4.36-1.56 2.73-1.97 6.27-.23 2.46-.11 4.02zm54.66-3.75q-.58 4.83-2.59 8.74t-4.98 5.79q-2.97 1.87-6.69 1.79-5.31-.12-8-4.08L90.88 62h-6.36l7.79-45h6.97l-3.16 16.38q3.54-3.78 8.41-3.67 4.6.12 7.19 3.37 2.59 3.26 2.74 8.91.03 1.76-.21 4.31zm-6.68-3.93q0-3.19-1.31-4.99-1.32-1.81-3.81-1.86-4.19-.12-7.09 4.04l-2.29 13.12q1.29 3.99 5.54 4.13 3.52.09 5.79-2.69t2.91-7.85q.23-2.49.26-3.9zm11.58 4.28l.08-.62q.5-4.65 2.74-8.46 2.24-3.81 5.76-5.89 3.52-2.08 7.79-1.97 4.08.06 7.03 2.17 2.96 2.11 4.33 5.77 1.36 3.67.95 8.15-.47 5.04-2.74 8.91-2.27 3.86-5.8 5.93-3.53 2.06-7.84 1.95-4.04-.06-6.99-2.16-2.94-2.09-4.32-5.74-1.37-3.65-.99-8.04zm6.91 3.4q.15 3.07 1.63 4.93 1.48 1.86 4.11 1.95 3.58.09 5.99-2.75 2.42-2.84 3.04-7.77l.17-2.87q0-3.75-1.49-5.89-1.5-2.13-4.34-2.25-4.45-.12-7.03 4.36-1.55 2.73-1.96 6.27-.24 2.46-.12 4.02zm33.52-27.45h6.97l-1.35 7.7h5.42l-.91 5.27h-5.45l-2.98 17.76q-.09.73-.03 1.32.17 1.9 2.34 1.99 1.08 0 2.46-.26l-.47 5.56q-2.17.62-4.36.62-3.64-.06-5.44-2.48-1.8-2.42-1.42-6.4l2.96-18.11h-5.07l.94-5.27h5.04l1.35-7.7zm11.77 24.05l.09-.62q.5-4.65 2.74-8.46 2.24-3.81 5.76-5.89 3.51-2.08 7.79-1.97 4.07.06 7.03 2.17t4.32 5.77q1.37 3.67.96 8.15-.47 5.04-2.74 8.91-2.27 3.86-5.8 5.93-3.54 2.06-7.84 1.95-4.04-.06-6.99-2.16-2.94-2.09-4.32-5.74-1.38-3.65-1-8.04zm6.92 3.4q.14 3.07 1.62 4.93 1.48 1.86 4.12 1.95 3.57.09 5.99-2.75 2.42-2.84 3.03-7.77l.18-2.87q0-3.75-1.5-5.89-1.49-2.13-4.33-2.25-4.45-.12-7.03 4.36-1.56 2.73-1.97 6.27-.23 2.46-.11 4.02zm47.81-30.71h9.2l6.24 32.64 17.55-32.64h9.49L261.18 62h-7.21l2.49-14.44 3.78-17.79L242.66 62h-5.21l-6.54-33.19-2.66 19.51L225.88 62h-7.21l7.41-42.66zm57.51 43.25q-4.13-.09-7.16-2.08-3.04-2-4.49-5.45-1.45-3.46-1.09-7.71l.08-1.2q.53-4.83 2.83-8.69 2.3-3.85 5.73-5.84 3.43-1.99 7.44-1.91 5.95.12 8.92 4.43 2.97 4.31 2.24 11.22l-.41 3.05h-19.95q-.26 3.78 1.52 6.09 1.79 2.31 4.93 2.37 4.48.15 8.26-3.89l3.51 3.69q-1.99 2.84-5.24 4.41-3.25 1.56-7.12 1.51zm2.96-27.19q-5.51-.18-8.26 7.79l13.15.03.12-.61q.2-1.35.03-2.64-.32-2.08-1.64-3.28-1.32-1.2-3.4-1.29zm15.64 11.34l.09-.62q.59-4.89 2.64-8.79 2.05-3.89 5.07-5.81 3.01-1.92 6.71-1.83 4.83.11 7.55 3.6L327.3 17h6.97l-7.82 45h-6.21l.47-3.28q-3.69 4.01-8.67 3.9-4.43-.06-7.08-3.42-2.65-3.35-2.85-8.92-.09-1.82.08-3.54zm6.83 2.11q-.21 3.63 1.13 5.77 1.33 2.14 3.97 2.19 4.01.12 6.94-3.89l2.37-13.63q-1.37-3.66-5.33-3.77-3.98-.12-6.41 3.51-2.44 3.63-2.67 9.82zm37.76-18.55l-5.5 31.7h-6.95l5.51-31.7h6.94zm-5.94-8.11q0-1.62 1.05-2.76 1.06-1.14 2.84-1.2 1.7-.06 2.83 1.04 1.13 1.1 1.13 2.68 0 1.67-1.1 2.76-1.1 1.08-2.8 1.14-1.67.06-2.81-1.01-1.14-1.07-1.14-2.65zM368.02 62l.62-3.13q-3.6 3.83-9.02 3.72-3.08-.06-5.12-1.53-2.03-1.46-2.9-4.08-.86-2.63-.51-6.17l3.43-20.51h6.94L358 50.9q-.11 1.08-.03 2.11.3 3.63 3.67 3.78 4.6.17 7.44-3.7l3.98-22.79h6.95L374.53 62h-6.51zm19.13-31.7l6.51-.03-.62 3.37q3.93-4.04 9.38-3.93 2.99.06 4.96 1.38 1.98 1.32 2.68 3.49 4.4-4.98 10.08-4.87 4.63.12 6.87 3.18 2.24 3.07 1.69 8.57L425.27 62h-6.94l3.45-20.6q.15-1.28.03-2.37-.47-3.43-4.33-3.51-4.31-.12-6.8 4.71l-.09.65L406.96 62h-6.97l3.45-20.51q.15-1.26.03-2.34-.47-3.55-4.33-3.63-3.9-.06-6.51 3.48l-4.01 23h-6.94l5.47-31.7zm61.18-10.96L440.91 62h-7.2l7.41-42.66h7.21zm9.61 3.26h6.97l-1.35 7.7h5.42l-.91 5.27h-5.45l-2.99 17.76q-.08.73-.02 1.32.17 1.9 2.34 1.99 1.08 0 2.46-.26l-.47 5.56q-2.17.62-4.36.62-3.64-.06-5.44-2.48-1.8-2.42-1.42-6.4l2.96-18.11h-5.07l.94-5.27h5.04l1.35-7.7zM494.73 62h-6.88q-.35-1.17-.3-2.96-3.92 3.66-8.46 3.55-4.13-.06-6.84-2.66-2.71-2.59-2.54-6.57.24-5.01 4.34-7.88t11.01-2.87l4.52.05.41-2.16q.17-1.15 0-2.14-.59-3.17-4.19-3.25-2.23-.06-3.91 1.12-1.69 1.19-2.07 3.18l-6.94.06q.2-2.93 2.08-5.14 1.87-2.21 4.98-3.44 3.1-1.23 6.56-1.18 5.19.12 8.09 3.12 2.9 3.01 2.4 7.78l-2.43 14.86-.24 2.63q-.09 1.73.44 3.37l-.03.53zm-14.03-5.1q2.2.06 4.07-1.01 1.88-1.07 3.19-2.77l1.09-6-3.31-.03q-3.93 0-6.27 1.48-2.34 1.48-2.67 4.06-.23 1.96.87 3.09 1.1 1.12 3.03 1.18zM516 17l-7.82 45h-6.94l7.82-45H516zm12.83 13.3l-5.5 31.7h-6.95l5.51-31.7h6.94zm-5.94-8.11q0-1.62 1.05-2.76 1.06-1.14 2.84-1.2 1.7-.06 2.83 1.04 1.13 1.1 1.13 2.68 0 1.67-1.1 2.76-1.1 1.08-2.8 1.14-1.67.06-2.81-1.01-1.14-1.07-1.14-2.65zm22.03 34.74q2.49.06 4.41-1.45t2.44-3.94l6.57-.03q-.33 3.14-2.27 5.71-1.95 2.58-5 4.02-3.05 1.43-6.36 1.35-4.07-.06-6.94-2.11t-4.19-5.67q-1.32-3.62-.88-8.07l.09-1.03q.5-4.6 2.68-8.33 2.18-3.74 5.64-5.76 3.46-2.02 7.68-1.91 5.15.12 8.23 3.42 3.07 3.29 3.07 8.57h-6.5q0-2.73-1.33-4.46-1.34-1.72-3.86-1.84-4.07-.12-6.41 3.46-2.35 3.57-2.52 10.07-.21 7.88 5.45 8z"/></svg>