<svg viewBox="0 0 440 80" xmlns="http://www.w3.org/2000/svg"><path d="M40.85 56L31.6 38.74H21.58V56h-5.66V13.34h14.12q7.21 0 11.09 3.29 3.88 3.28 3.88 9.55 0 3.98-2.15 6.94-2.15 2.96-5.99 4.42l10.02 18.11V56h-6.04zM21.58 17.97v16.17h8.64q4.19 0 6.66-2.16 2.48-2.17 2.48-5.8 0-3.96-2.36-6.07-2.36-2.11-6.81-2.14h-8.61zm29.03 22.27v-.38q0-4.66 1.83-8.38 1.83-3.72 5.1-5.74 3.26-2.03 7.45-2.03 6.48 0 10.48 4.49 4 4.48 4 11.92v.38q0 4.63-1.78 8.31-1.77 3.67-5.06 5.73-3.3 2.05-7.58 2.05-6.44 0-10.44-4.49-4-4.48-4-11.86zm5.45.26q0 5.28 2.44 8.47 2.45 3.19 6.55 3.19 4.13 0 6.57-3.24 2.43-3.23 2.43-9.06 0-5.22-2.48-8.45-2.47-3.24-6.58-3.24-4.01 0-6.47 3.19t-2.46 9.14zm57.04-.47v.47q0 7.27-3.34 11.68t-8.97 4.41q-6 0-9.28-4.25L91.24 56h-4.98V11h5.42v16.79q3.28-4.08 9.06-4.08 5.77 0 9.06 4.37 3.3 4.37 3.3 11.95zm-5.42-.14q0-5.54-2.14-8.56-2.14-3.02-6.15-3.02-5.36 0-7.71 4.98v13.72q2.49 4.98 7.77 4.98 3.89 0 6.06-3.02 2.17-3.02 2.17-9.08zm10.81.35v-.38q0-4.66 1.83-8.38 1.83-3.72 5.1-5.74 3.27-2.03 7.46-2.03 6.47 0 10.47 4.49 4 4.48 4 11.92v.38q0 4.63-1.77 8.31-1.78 3.67-5.07 5.73-3.3 2.05-7.58 2.05-6.44 0-10.44-4.49-4-4.48-4-11.86zm5.45.26q0 5.28 2.45 8.47 2.44 3.19 6.54 3.19 4.13 0 6.57-3.24 2.43-3.23 2.43-9.06 0-5.22-2.48-8.45-2.47-3.24-6.57-3.24-4.02 0-6.48 3.19-2.46 3.19-2.46 9.14zm32.14-23.87h5.42v7.67h5.92v4.19h-5.92v19.66q0 1.9.79 2.85.79.96 2.69.96.94 0 2.58-.35V56q-2.14.59-4.16.59-3.63 0-5.48-2.2-1.84-2.2-1.84-6.24V28.49h-5.77V24.3h5.77v-7.67zm15.64 23.61v-.38q0-4.66 1.83-8.38 1.83-3.72 5.1-5.74 3.27-2.03 7.46-2.03 6.47 0 10.47 4.49 4 4.48 4 11.92v.38q0 4.63-1.77 8.31-1.77 3.67-5.07 5.73-3.3 2.05-7.57 2.05-6.45 0-10.45-4.49-4-4.48-4-11.86zm5.45.26q0 5.28 2.45 8.47 2.44 3.19 6.55 3.19 4.13 0 6.56-3.24 2.43-3.23 2.43-9.06 0-5.22-2.48-8.45-2.47-3.24-6.57-3.24-4.02 0-6.48 3.19-2.46 3.19-2.46 9.14zM247.98 56l-9.26-17.26h-10.01V56h-5.66V13.34h14.12q7.21 0 11.09 3.29 3.88 3.28 3.88 9.55 0 3.98-2.15 6.94-2.15 2.96-5.99 4.42l10.02 18.11V56h-6.04zm-19.27-38.03v16.17h8.64q4.19 0 6.66-2.16 2.48-2.17 2.48-5.8 0-3.96-2.36-6.07-2.36-2.11-6.81-2.14h-8.61zm43.62 38.62q-6.45 0-10.49-4.24-4.04-4.23-4.04-11.32v-1q0-4.71 1.8-8.42t5.04-5.8q3.24-2.1 7.01-2.1 6.19 0 9.61 4.08 3.43 4.07 3.43 11.66v2.25h-21.47q.11 4.69 2.74 7.58 2.62 2.88 6.66 2.88 2.87 0 4.86-1.17 2-1.17 3.49-3.11l3.31 2.58q-3.98 6.13-11.95 6.13zm-.68-28.42q-3.28 0-5.5 2.39-2.23 2.38-2.76 6.69h15.88v-.41q-.23-4.13-2.23-6.4-1.99-2.27-5.39-2.27zm18.02 11.72q0-7.42 3.43-11.8 3.43-4.38 9.08-4.38 5.8 0 9.05 4.11l.27-3.52h4.95v30.94q0 6.15-3.65 9.7-3.65 3.54-9.8 3.54-3.43 0-6.71-1.46-3.28-1.47-5.01-4.02l2.82-3.25q3.48 4.31 8.52 4.31 3.96 0 6.17-2.23t2.21-6.27v-2.72q-3.25 3.75-8.88 3.75-5.56 0-9.01-4.49-3.44-4.48-3.44-12.21zm5.45.61q0 5.36 2.2 8.42 2.2 3.07 6.15 3.07 5.13 0 7.53-4.66V32.86q-2.49-4.55-7.47-4.55-3.96 0-6.18 3.08-2.23 3.08-2.23 9.11zM344.31 56l-.12-3.13q-3.16 3.72-9.28 3.72-5.07 0-7.72-2.95-2.65-2.94-2.68-8.71V24.3h5.42v20.48q0 7.21 5.86 7.21 6.21 0 8.26-4.63V24.3h5.42V56h-5.16zm19.28-45v45h-5.42V11h5.42zm33.92 45h-5.68q-.47-.94-.76-3.34-3.78 3.93-9.03 3.93-4.68 0-7.69-2.66-3-2.65-3-6.72 0-4.95 3.77-7.69 3.76-2.74 10.59-2.74h5.27v-2.49q0-2.84-1.7-4.53-1.7-1.68-5.01-1.68-2.9 0-4.86 1.46-1.96 1.47-1.96 3.55H372q0-2.37 1.68-4.59 1.69-2.21 4.57-3.5 2.89-1.29 6.34-1.29 5.48 0 8.59 2.74 3.1 2.74 3.22 7.55v14.59q0 4.36 1.11 6.94V56zm-14.67-4.13q2.54 0 4.83-1.32t3.31-3.43v-6.5h-4.25q-9.96 0-9.96 5.83 0 2.55 1.7 3.98 1.7 1.44 4.37 1.44zm37.38-27.74v5.03q-1.23-.2-2.67-.2-5.33 0-7.23 4.54V56h-5.42V24.3h5.27l.09 3.66q2.66-4.25 7.56-4.25 1.58 0 2.4.42z"/></svg>