<svg viewBox="0 0 364 80" xmlns="http://www.w3.org/2000/svg"><path d="M41.64 56L31.33 38.25H18.94V56H15.3V13.34h13.86q6.83 0 10.66 3.31 3.84 3.31 3.84 9.26 0 4.1-2.4 7.24-2.4 3.13-6.45 4.33l10.67 18.14V56h-3.84zm-22.7-39.58v18.75h11.04q4.54 0 7.3-2.58 2.75-2.58 2.75-6.68 0-4.51-2.87-7t-8.06-2.49H18.94zm31.78 23.96v-.7q0-4.57 1.78-8.23 1.77-3.66 5-5.7 3.24-2.04 7.34-2.04 6.33 0 10.26 4.44 3.92 4.44 3.92 11.77v.73q0 4.6-1.77 8.27-1.77 3.68-4.99 5.67-3.23 2-7.36 2-6.3 0-10.24-4.44-3.94-4.44-3.94-11.77zm3.52-.38v.65q0 5.68 2.94 9.33 2.95 3.65 7.72 3.65 4.75 0 7.69-3.65 2.95-3.65 2.95-9.62v-.68q0-3.63-1.35-6.65-1.35-3.02-3.78-4.67-2.43-1.66-5.57-1.66-4.68 0-7.64 3.68T54.24 40zm57.54-.05v.52q0 7.41-3.28 11.77-3.29 4.35-8.82 4.35-6.62 0-10.02-4.93L89.51 56h-3.28V11h3.49v17.9q3.34-5.19 9.9-5.19 5.62 0 8.89 4.3 3.27 4.29 3.27 11.94zm-3.52-.09q0-6.27-2.43-9.69-2.43-3.41-6.86-3.41-3.36 0-5.71 1.66-2.34 1.65-3.54 4.85v14.29q2.63 5.98 9.31 5.98 4.34 0 6.79-3.43 2.44-3.43 2.44-10.25zm9.32.52v-.7q0-4.57 1.77-8.23t5.01-5.7q3.24-2.04 7.34-2.04 6.33 0 10.25 4.44 3.93 4.44 3.93 11.77v.73q0 4.6-1.77 8.27-1.78 3.68-5 5.67-3.22 2-7.35 2-6.3 0-10.24-4.44-3.94-4.44-3.94-11.77zm3.51-.38v.65q0 5.68 2.95 9.33 2.94 3.65 7.72 3.65 4.74 0 7.69-3.65 2.94-3.65 2.94-9.62v-.68q0-3.63-1.35-6.65-1.34-3.02-3.77-4.67-2.44-1.66-5.57-1.66-4.69 0-7.65 3.68T121.09 40zm33.96-23.81h3.51v8.11h6.57v2.87h-6.57v21.12q0 2.64.96 3.93.95 1.29 3.18 1.29.87 0 2.84-.29l.14 2.87q-1.37.5-3.75.5-3.6 0-5.24-2.1-1.64-2.09-1.64-6.17V27.17h-5.83V24.3h5.83v-8.11zm14.82 24.19v-.7q0-4.57 1.78-8.23 1.77-3.66 5.01-5.7 3.23-2.04 7.33-2.04 6.33 0 10.26 4.44 3.92 4.44 3.92 11.77v.73q0 4.6-1.77 8.27-1.77 3.68-4.99 5.67-3.23 2-7.36 2-6.3 0-10.24-4.44-3.94-4.44-3.94-11.77zm3.52-.38v.65q0 5.68 2.94 9.33 2.95 3.65 7.72 3.65 4.75 0 7.69-3.65 2.95-3.65 2.95-9.62v-.68q0-3.63-1.35-6.65-1.35-3.02-3.78-4.67-2.43-1.66-5.57-1.66-4.68 0-7.64 3.68T173.39 40zm51.06-26.66v39.61h21.07V56h-24.7V13.34h3.63zm31.09 10.96V56h-3.52V24.3h3.52zm-4.13-9.17q0-1 .64-1.68.65-.69 1.76-.69 1.11 0 1.77.69.66.68.66 1.68 0 1-.66 1.67-.66.67-1.77.67-1.11 0-1.76-.67-.64-.67-.64-1.67zm12.24 25.2v-.47q0-7.44 3.3-11.79 3.29-4.36 8.95-4.36 6.47 0 9.84 5.16l.18-4.57h3.28v31.06q0 6.12-3.43 9.69-3.43 3.58-9.29 3.58-3.31 0-6.31-1.48-3-1.48-4.73-3.94l1.96-2.11q3.72 4.57 8.85 4.57 4.39 0 6.86-2.59 2.46-2.6 2.54-7.2V51.9q-3.36 4.69-9.81 4.69-5.51 0-8.85-4.4-3.34-4.39-3.34-11.86zm3.55.14q0 6.07 2.43 9.57t6.85 3.5q6.48 0 9.17-5.8V33q-1.23-3.04-3.54-4.64-2.32-1.6-5.57-1.6-4.42 0-6.88 3.47-2.46 3.48-2.46 10.24zM301.83 11v18.66q1.72-2.84 4.42-4.39 2.7-1.56 5.89-1.56 5.1 0 7.59 2.88 2.49 2.87 2.52 8.61V56h-3.49V35.17q-.03-4.25-1.8-6.33t-5.67-2.08q-3.25 0-5.76 2.04-2.5 2.03-3.7 5.49V56h-3.49V11h3.49zm31.37 5.19h3.52v8.11h6.56v2.87h-6.56v21.12q0 2.64.95 3.93t3.18 1.29q.88 0 2.84-.29l.15 2.87q-1.38.5-3.75.5-3.61 0-5.25-2.1-1.64-2.09-1.64-6.17V27.17h-5.83V24.3h5.83v-8.11z"/></svg>