<svg viewBox="0 0 483 80" xmlns="http://www.w3.org/2000/svg"><path d="M38.94 62L33.9 46.38h-6.98L24.2 62h-8.58l7.41-42.66 14.12.03q7.09 0 10.91 3.34 3.82 3.34 3.39 9.29-.62 8.79-9.38 12.22l6.01 17.31V62h-9.14zm-8.56-35.54l-2.23 12.81 6.39.05q3.4-.05 5.61-1.83 2.21-1.77 2.65-4.82.41-2.84-.91-4.45-1.31-1.61-4.18-1.73l-7.33-.03zm40.28 3.25q4.19.06 7.23 2.16 3.03 2.09 4.45 5.77 1.42 3.68 1.01 8.16-.67 7.56-5.26 12.23-4.58 4.67-11.32 4.56-4.13-.06-7.15-2.13-3.02-2.06-4.45-5.73-1.44-3.66-1.03-8.08.76-7.85 5.33-12.48 4.57-4.63 11.19-4.46zm-8.35 19.96q.06 2.81 1.32 4.43 1.26 1.63 3.55 1.69 3.81.12 5.97-3.5 2.17-3.62 2.03-9.51-.12-2.81-1.37-4.5-1.24-1.68-3.56-1.74-3.69-.12-5.9 3.47-2.21 3.59-2.04 9.66zm53.88-3.43q-.88 7.5-4.57 12.01-3.69 4.51-9.55 4.37-5.01-.12-7.62-4.05L93.25 62h-7.53l7.8-45h8.29l-3.2 16.2q3.34-3.6 7.74-3.49 4.6.06 7.22 3.3 2.62 3.24 2.8 8.95.06 1.82-.18 4.28zm-8.38.67l.18-1.29q.26-2.49.17-3.86-.32-5.1-4.21-5.19-3.67-.12-6.07 3.31l-2.28 12.6q1.11 3.16 4.74 3.28 6.1.18 7.47-8.85zm29.09-17.2q4.19.06 7.23 2.16 3.03 2.09 4.45 5.77 1.42 3.68 1.01 8.16-.67 7.56-5.26 12.23-4.58 4.67-11.32 4.56-4.13-.06-7.15-2.13-3.02-2.06-4.45-5.73-1.44-3.66-1.03-8.08.76-7.85 5.33-12.48 4.57-4.63 11.19-4.46zm-8.35 19.96q.06 2.81 1.32 4.43 1.26 1.63 3.55 1.69 3.81.12 5.97-3.5 2.17-3.62 2.03-9.51-.12-2.81-1.37-4.5-1.24-1.68-3.56-1.74-3.69-.12-5.9 3.47-2.21 3.59-2.04 9.66zm31.88-27.16h8.29l-1.38 7.79h5.28l-1.09 6.21h-5.27l-2.7 15.88q-.17 1.49.24 2.29.41.79 1.99.85.47.02 2.52-.15l-.59 6.47q-2.19.74-4.74.68-4.07-.06-6.07-2.55-1.99-2.49-1.64-6.74L158 36.51h-4.48l1.08-6.21h4.48l1.35-7.79zm28.74 7.2q4.19.06 7.22 2.16 3.03 2.09 4.45 5.77 1.43 3.68 1.02 8.16-.68 7.56-5.26 12.23-4.59 4.67-11.33 4.56-4.13-.06-7.14-2.13-3.02-2.06-4.46-5.73-1.43-3.66-1.02-8.08.76-7.85 5.33-12.48 4.57-4.63 11.19-4.46zm-8.35 19.96q.06 2.81 1.32 4.43 1.26 1.63 3.54 1.69 3.81.12 5.98-3.5 2.17-3.62 2.02-9.51-.12-2.81-1.36-4.5-1.25-1.68-3.56-1.74-3.69-.12-5.9 3.47-2.22 3.59-2.04 9.66zM235.93 62h-16.38l7.41-42.66 13.3.03q7.42.03 11.14 3.02 3.72 2.99 3.37 8.41-.41 6.47-7.48 9.46 2.55.88 3.96 3.3 1.41 2.41 1.2 5.7-.41 6.03-4.73 9.39Q243.4 62 235.93 62zm3.54-18.54l-8.08-.03-2.02 11.51 6.76.03q3.17 0 5.31-1.57 2.13-1.57 2.54-4.23.41-2.64-.71-4.12-1.13-1.48-3.8-1.59zm-5.15-17l-1.88 10.75 5.83.06q3.25-.06 5.32-1.52 2.06-1.46 2.47-4.07.74-5.16-5.42-5.19l-6.32-.03zm40.28 3.25q4.19.06 7.22 2.16 3.03 2.09 4.45 5.77 1.43 3.68 1.02 8.16-.68 7.56-5.26 12.23-4.59 4.67-11.33 4.56-4.13-.06-7.15-2.13-3.01-2.06-4.45-5.73-1.43-3.66-1.02-8.08.76-7.85 5.33-12.48 4.57-4.63 11.19-4.46zm-8.35 19.96q.06 2.81 1.32 4.43 1.26 1.63 3.54 1.69 3.81.12 5.98-3.5 2.17-3.62 2.02-9.51-.12-2.81-1.36-4.5-1.25-1.68-3.56-1.74-3.69-.12-5.9 3.47-2.22 3.59-2.04 9.66zM306.18 17l-7.79 45h-8.32l7.82-45h8.29zm14.94 12.69q4.43.11 7.15 3.54L331.38 17h8.29l-7.79 45h-7.39l.47-3.4q-3.54 4.13-8.26 4.02-2.96-.03-5.19-1.56-2.22-1.52-3.44-4.38-1.21-2.85-1.33-6.37-.09-1.85.09-3.57l.17-1.32q.71-4.87 2.71-8.56 2.01-3.69 4.92-5.48 2.92-1.78 6.49-1.69zm-6 17.05q-.24 2.22-.15 3.75.29 5.15 4.16 5.24 3.49.15 6.07-3.28l2.25-12.6q-1.14-3.13-4.57-3.28-3.02-.09-5.02 2.33-2.01 2.42-2.74 7.84zm40.4-27.4L348.13 62h-8.58l7.38-42.66h8.59zm8.67 3.17h8.29l-1.38 7.79h5.28l-1.09 6.21h-5.27l-2.7 15.88q-.17 1.49.24 2.29.41.79 1.99.85.47.02 2.52-.15l-.59 6.47q-2.19.74-4.74.68-4.07-.06-6.07-2.55-1.99-2.49-1.64-6.74l2.73-16.73h-4.48l1.08-6.21h4.48l1.35-7.79zM402.13 62h-8.12q-.38-1.2-.32-2.87-3.57 3.57-8.08 3.46-4.16-.06-6.9-2.71-2.74-2.66-2.57-6.55.21-5.19 4.35-7.96 4.15-2.76 11.12-2.76l3.87.05.41-1.9q.17-.97.09-1.85-.15-1.37-1.04-2.15-.9-.78-2.36-.8-1.94-.06-3.28.95-1.35 1.01-1.73 2.91l-8.29.03q.2-4.54 4.17-7.37 3.97-2.82 9.8-2.77 5.39.12 8.44 3.21t2.55 7.96l-2.43 15.17-.15 1.88q-.06 2.08.5 3.51l-.03.56zm-14.47-5.83q3.57.12 6.24-3.11l1.02-5.47-2.87-.03q-4.57.11-6.59 2.78-.73.97-.91 2.37-.23 1.58.66 2.51.89.92 2.45.95zM423.69 17l-7.79 45h-8.32l7.82-45h8.29zm13.45 13.3L431.63 62h-8.32l5.51-31.7h8.32zm-7.35-8.06q-.06-1.96 1.28-3.25 1.35-1.29 3.26-1.29 1.87-.06 3.25 1.15 1.38 1.2 1.43 3.1.06 1.82-1.21 3.17-1.28 1.34-3.33 1.4-1.84.06-3.23-1.11-1.4-1.17-1.45-3.17zm22.73 33.55q2.28.06 3.81-1.25 1.52-1.3 1.99-3.47l7.76-.03q-.2 3.34-2.09 6.01-1.89 2.66-5.04 4.16-3.15 1.49-6.64 1.41-5.77-.09-9.14-3.99-3.37-3.9-3.25-10.37l.09-1.61.03-.32q.79-7.74 5.21-12.26 4.43-4.53 10.93-4.36 5.36.12 8.51 3.51 3.15 3.38 3.09 8.92h-7.7q0-2.55-1.12-4.02-1.11-1.46-3.33-1.58-5.92-.17-7.18 8.64-.44 3.2-.32 5.39.29 5.13 4.39 5.22z"/></svg>