<svg viewBox="0 0 300 80" xmlns="http://www.w3.org/2000/svg"><path d="M29.55 54.65q-1.49.94-3.4.94-1.9 0-3.39-.94-1.5.94-2.77.94-1.28 0-2.1-.22-.82-.22-1.43-.6-1.26-.77-1.26-1.91 0-.58.32-1.02.64.49 1.64.49 2.61 0 3.6-2.22V35.78q0-1.35-.55-1.99-.88-1.08-3.02-2.14 1.99-.91 2.58-1.61.99-1.14.99-2.58V15.1q-.99-2.26-3.6-2.26-1 0-1.64.5-.32-.44-.32-1.01 0-.57.33-1.07.34-.5.93-.85 1.34-.82 3.09-.82 1.74 0 3.21.97 1.52-.97 3.39-.97 1.88 0 3.4.97 3.31-1.26 7.34-1.26 4.03 0 6.75.73 2.73.73 4.69 2.08 3.96 2.72 4.92 7.59.38 2.17 2.79 3.28-2.29 1.29-2.99 4.1-1.44 5.8-7.18 7.24 2.96.79 4.84 3.25 1.93 2.55 1.93 6v2.93q0 4.22 2.72 5.45.82.38 1.79.38.97 0 1.61-.49.32.44.32 1.01 0 .57-.29 1.07-.29.49-.79.85-1.05.82-2.46.82t-2.75-.77q-2.47 1.35-4.6.27-.82.5-1.73.5t-1.75-.41q-.83-.41-1.48-1.35-1.37-2.02-1.37-6.21v-2.17q0-6.77-3.87-8.79-1.29-.67-3.02-.67h-3.43v14.26q.8 2.08 3.02 2.08 1 0 1.64-.49.33.44.33 1.29 0 .84-.93 1.65-.92.81-2.77.81-1.84 0-3.28-.94zm7.62-41.46q-5.63 0-5.63 4.37v11.98q0 1.52 1.21 2.05 1.14.5 3.38.5t3.13-.25q.9-.25 1.54-.86 1.32-1.26 1.32-4.22V18.2q0-3.66-3.05-4.68-.9-.33-1.9-.33zm6.91 1.88q.91 2.05.91 6.56 0 7.76-.73 9.29 1.61-.32 2.31-4.31l.24-1.2q.32-1.9 1.87-2.43-1.14-.38-1.46-.91-.35-.61-.63-2.09t-.57-2.39q-.3-.91-.62-1.44-.55-.94-1.32-1.08zm-20.5 28.36v3.81q1.46-.56 1.61-3.84.17-3.28.17-9.08 0-5.8-.01-7.72-.02-1.92-.05-3.09-.08-3.46-.65-4.18-.58-.72-1.07-.95 0 10.19-.36 11.6-.41 1.17-1.99 1.67 1.76.62 1.99 1.49.36 1.41.36 10.29zm20.21-4.22q1.17 1.32 1.17 3.22v3.87q0 4.86 1.94 5.18.52.09 1.02-.02-1.05-1.65-1.05-3.46v-4.1q0-2.32-.65-3.28-1.11-1.65-2.43-1.41zM95.5 24.79q-.64-.41-2.05-.41-2.81 0-4.25 3.81l-.91 2.55q-.99 2.79-1.01 3.81-.01 1.03.35 1.66.37.63 1.66 1.3-3.16.88-4.31 2.96-.35.64-.61 1.35L79.5 55.03q-2.84 8.17-5.27 11.07-2.23 2.67-5.57 2.67-2.54 0-4.8-1.64-2.58-1.85-2.58-4.34 0-1.55.82-2.36.82-.8 1.51-.8.69 0 .95.01.27.02.53.11.53.23 1 1.05-.62 1.17.79 2.58 1.32 1.38 2.47 1.38 1.16 0 1.94-.44.77-.44 1.39-1.35 1.35-1.99 1.35-5.71 0-2.03-1.09-4.46-.29-.82-.7-1.73l-4.16-9.37q-.68-1.49-2.04-2.65-1.36-1.16-3.06-1.54Q65 36.48 65 34.81q0-1.2-.96-3.54l-1.73-4.16q-.77-1.7-1.26-2.14-.88-.7-2.04-.7-1.16 0-1.8.5-.35-.36-.37-1.03-.01-.67.16-1.13.18-.45.59-.8.88-.79 2.53-.79 1.66 0 3.12 1.05 1.21-1.05 2.93-1.05 1.73 0 3.05.96 1.32-.96 2.96-.96t2.59.77q.95.78.98 1.54.03 1.14-.38 1.55-.7-.52-1.46-.52t-1.25.43q-.48.44-.42 1.44l6.77 18.28 6.41-18.78q-.32-1.49-2.14-1.49-1.14 0-2.16.55-.3-.55-.28-1.43.01-.88.82-1.61.8-.73 2.19-.73 1.4 0 2.39.93 1.06-.93 2.38-.93 1.31 0 2.4.82.99-.82 2.21-.82t1.93.7q.72.7.69 1.46-.06 1.18-.35 1.61zM72.68 40.5l-5.39-12.78q-.68.44-.66 1.12.01.67.06 1.04.04.36.16.86.26.94 1.07 2.77.8 1.83.85 2.29.04.45-.31.99t-.85.72q1.87.35 2.31 1.32.21.41.59 1.29l1.99 4.45q.59 1.35 1.23 2.67 1.2-1.47-1.05-6.74zm49.54 5.65q.64-1.23 2.37-1.23 1.17 0 1.82.97.53.76.53 1.86t-.56 2.21q-.56 1.11-1.52 2.02-.97.91-2.22 1.61-1.24.71-2.65 1.18-2.9.96-6.03.96-3.14 0-5.88-1.04-2.74-1.04-4.7-2.91-3.84-3.69-4.69-10.14-.2-1.43-.67-2.05-.88-1.08-2.9-2.08 2.55-1.14 3.25-3.66.21-.71.32-1.41.74-5.15 5.22-8.79 4.33-3.51 9.7-3.51 5.56 0 9.63 3.92 4.22 4.05 4.22 9.93 0 .21-.01.41-.02.21.01.39.06.38.47.43.53.68.53 1.44 0 1.76-1.88 2.08-.46.09-1.46.23l-16.52 2.64v2.81q0 3.4 2.05 5.39 1.93 1.91 4.89 1.91 3.13 0 5.04-1.29 1.79-1.23 1.79-3.22 0-.47-.15-1.06zm-13.62-8.08l8.49-1.38v-8.2q0-1.94-.76-2.85-1.35-1.55-2.67-1.55-1.31 0-2.19.4-.88.39-1.53 1.24-1.34 1.79-1.34 5.57v6.77zm11.01-1.82l1.82-.29v-.91q0-5.45-.91-6.59-.41-.5-.91-.74v8.53zm-15.79 10.99q.41-.33.41-.74 0-.64-.26-1.64-1.2-4.6-1.2-6.4 0-1.8.11-2.81.12-1.01.33-2.04.35-1.99.76-3.51.26-1 .26-1.35 0-.7-.41-1.03-1.23 1.47-1.87 3.93-.65 2.46-1.06 4.34-.15.79-1.73 1.52 1.58.73 1.73 1.46 1.08 4.96 1.79 6.3.7 1.35 1.14 1.97z"/></svg>