<svg viewBox="0 0 300 80" xmlns="http://www.w3.org/2000/svg"><path d="M37.8 23.94l.21-.12q.21-.12.84-.12t.81-.12q.18-.12.36-.12t.54-.24q.36-.24.72-.24t.78-.27q.42-.27.45-.36.03-.09.18-.09t.63-.3q.48-.3.57-.3.09 0 1.32-.6t1.32-.6q.09 0 1.35-.36t1.53-.57q.27-.21.42-.21.15 0 .75-.18t1.05-.48q.45-.3.54-.42.09-.12.21-.12t.63-.18q.51-.18 1.02-.63t.57-.45q.06 0 .57-.33t.66-.57q.15-.24.15-.75t-.24-.84q-.24-.33-.57-.51-.33-.18-.87-.15t-1.2.48q-.66.45-.81.63-.15.18-.63.3t-.93.42q-.45.3-.6.45-.15.15-.78.27-.63.12-.96.36-.33.24-1.44.51-1.11.27-2.43.9t-1.71.78q-.39.15-.54.27-.15.12-.57.15-.42.03-.81.36-.39.33-.72.36-.33.03-.6.24-.27.21-.57.3-.3.09-.96.15-.66.06-.78.15t-.54.12q-.42.03-.75.27-.33.24-.51.57-.18.33-.15.75t.27.75q.24.33.57.51.33.18.99.18h.66zM24.96 44.1l.72-.18q.72-.18 1.2-.39.48-.21.63-.21.15 0 .96-.21.81-.21.99-.21.18 0 .36-.09t.42-.09q.24 0 .9-.12t1.38-.51q.72-.39.93-.39.21 0 1.2-.21t1.2-.33q.21-.12.42-.12t.87-.06q.66-.06 1.5-.39t1.95-.33q1.11 0 1.65-.24.54-.24 1.47-.24.93 0 2.13-.36 1.2-.36 1.53-.36.33 0 .54-.12.21-.12 8.25-.12t8.46-.27q.42-.27.57-.51.15-.24.15-.75t-.36-.96q-.36-.45-.72-.72-.36-.27-1.2-.27t-1.11.21q-.27.21-7.47.24-7.2.03-7.32.12-.12.09-.66.15t-1.5.36q-.96.3-2.01.33-1.05.03-1.5.24-.45.21-.81.18-.36-.03.21-.42t.63-.39q.06 0 .66-.39.6-.39.66-.39.06 0 .48-.27t.51-.27q.09 0 .57-.3t.75-.72q.27-.42.3-.42.03 0 .33-.3.3-.3.36-.3t.6-.36q.54-.36.66-.57.12-.21.18-.21t.93-.87q.87-.87 1.08-1.32.21-.45.24-.45t.18-.24q.15-.24.21-.24t.54-.48q.48-.48.6-.48t.54-.27q.42-.27.57-.51.15-.24.15-.75t-.24-.84q-.24-.33-.57-.51-.33-.18-1.47-.15t-1.41.24q-.27.21-1.35.57t-1.8.54q-.72.18-1.77.66-1.05.48-3.15.96-2.1.48-2.55.66-.45.18-1.86.21-1.41.03-1.74.27-.33.24-.51.57-.18.33-.15.75t.27.75q.24.33.57.51.33.18 1.38.18 1.05 0 1.8-.21t1.2-.48q.45-.27.51-.27t.54-.21q.48-.21.63-.21.15 0 .75-.21t1.26-.63q.66-.42.75-.42.09 0 .6-.21t.66-.21q.15 0 .48-.15.33-.15.48-.15.15 0 .51-.06t.03.45q-.33.51-.78.81-.45.3-.57.51-.12.21-.72.6t-1.2 1.02q-.6.63-1.5 1.14-.9.51-1.92 1.17-1.02.66-1.38.72-.36.06-1.2.6t-1.26.57q-.42.03-1.11.45-.69.42-1.74.75t-1.59.72q-.54.39-1.2.6-.66.21-.87.39-.21.18-.66.21-.45.03-.84.36-.39.33-.69.39-.3.06-.36.12t-.39.09q-.33.03-.6.24-.27.21-.63.24t-.48.12q-.12.09-.6.12t-.81.21q-.33.18-.87.27-.54.09-.87.39-.33.3-.45.54-.12.24-.09.66.03.42.27.75.24.33.57.51.33.18 1.68.18h1.35zm22.2 20.88l.42-.27q.42-.27.78-.69.36-.42.42-.6t.03-8.16q-.03-7.98-.24-8.52-.21-.54-.24-4.53t-.12-4.08q-.09-.09-.12-.96t-.12-.96q-.09-.09-.12-1.56t-.12-1.56q-.09-.09-.12-.84t-.12-.87q-.09-.12-.12-.72t-.12-.69q-.09-.09-.18-.45t-.24-.54q-.15-.18-.21-.57-.06-.39-.12-.42-.06-.03-.15-.39t-.18-.81q-.09-.45-.27-.72-.18-.27-.21-1.26t-.27-1.32q-.24-.33-.57-.51-.33-.18-.75-.15t-.75.27q-.33.24-.51.57-.18.33-.15 1.71t.24 1.74q.21.36.24.72t.12.48.12.48.12.48q.09.12.15.42t.36.84q.3.54.33 1.05.03.51.12.63t.12 1.05.12 1.05q.09.12.12 1.44.03 1.32.12 1.44.09.12.12.96t.12.96q.09.12.12 3.99t.24 4.41q.21.54.18 5.91t-.48 4.62q-.45-.75-1.29-1.62-.84-.87-1.56-1.98-.72-1.11-1.26-1.71-.54-.6-1.14-1.32-.6-.72-.81-1.08-.21-.36-.24-.51-.03-.15-.54-.99t-1.08-1.5q-.57-.66-1.35-1.71-.78-1.05-.96-1.32-.18-.27-.96-1.17-.78-.9-.99-1.14-.21-.24-.63-.33-.42-.09-.75.03t-.57.36q-.24.24-.33.66-.09.42.03.75t.36.57q.24.24.66.36.42.12 1.2.78t1.41 1.29q.63.63.99 1.14.36.51.84 1.14.48.63 1.5 2.4t1.65 2.79q.63 1.02.99 1.77t.66 1.26q.3.51.9 1.23.6.72.75 1.23.15.51.48 1.08.33.57.57.81.24.24.39.66.15.42.48.9.33.48.51.84t.51.69q.33.33.57.45.24.12.57.12h.33zM15 54zm94.2-15.48l.36-.21q.36-.21.66-.21.3 0 .72-.27t.69-.75q.27-.48.33-.72t.09-.24q.03 0 .48-.84.45-.84.48-.84.03 0 .3-.42t.3-.42q.03 0 .27-.33.24-.33.87-1.47t.66-1.14q.03 0 .39-.45t.66-1.32q.3-.87.27-1.89-.03-1.02-.27-1.35-.24-.33-.57-.51-.33-.18-1.23-.15-.9.03-1.26.24t-1.32.24q-.96.03-1.08.12-.12.09-.42.15t-.48.21q-.18.15-.78.21-.6.06-.96.24t-.81.33q-.45.15-.96.18t-.84.27q-.33.24-.78.33-.45.09-1.11.12-.66.03-1.11.27-.45.24-1.5.45-1.05.21-2.31.24t-2.31.36q-1.05.33-1.68.36-.63.03-.96.27-.33.24-.51.57-.18.33-.15.75t.27.75q.24.33.57.51.33.18 1.17.18.84 0 1.59-.27.75-.27.9-.27.15 0 .45-.09.3-.09 1.41-.09 1.11 0 2.43-.3t1.62-.48q.3-.18.84-.18t1.23-.18q.69-.18.93-.36.24-.18.6-.18t1.29-.36q.93-.36 1.32-.36t.9-.21q.51-.21.81-.36.3-.15.9-.12.6.03.15.72-.45.69-.69 1.17-.24.48-.51.9-.27.42-.48.63-.21.21-.39.51-.18.3-.42.57-.24.27-.54.9-.3.63-.51.93-.21.3-.87.72t-.84.75q-.18.33-.15.75t.27.75q.24.33.57.51.33.18.69.18h.36zm8.64 11.88l-.57-.48q-.57-.48-1.38-1.29-.81-.81-1.02-1.11-.21-.3-2.1-2.16-1.89-1.86-2.25-2.31-.36-.45-1.17-1.38-.81-.93-.75-.93.06 0 .57-.33t.6-.33q.09 0 .39-.15.3-.15 1.2-.15.9 0 1.35-.24.45-.24.81-.24.36 0 .72-.24t.84-.24q.48 0 .66-.12.18-.12.63-.12t.66-.12q.21-.12 1.53-.09t1.5.39q.18.36.27.45.09.09.06 1.41-.03 1.32-.12 1.47-.09.15-.12.78t-.21.87q-.18.24-.24 1.02t-.27 1.17q-.21.39-.24.6-.03.21-.12.36t-.12.66q-.03.51-.21.75t-.24.6q-.06.36-.33.78-.27.42-.3.57l-.03.15zm.6 4.02l.42-.27q.42-.27.87-.75t.57-.72q.12-.24.15-.24t.18-.24q.15-.24.21-.63t.12-.39q.06 0 .3-.33t.3-.84q.06-.51.09-.51t.21-.42q.18-.42.21-.87t.06-.45q.03 0 .12-.42t.12-.42q.03 0 .18-.24t.21-.96q.06-.72.09-.72t.18-.24q.15-.24.21-1.11.06-.87.09-.87t.09-.18q.06-.18.03-2.16-.03-1.98-.24-2.31-.21-.33-.27-.78-.06-.45-.6-1.02-.54-.57-1.02-.81-.48-.24-2.7-.21t-2.34.12q-.12.09-.72.12t-.69.12q-.09.09-.6.12t-.84.24q-.33.21-.72.24-.39.03-.75.24t-1.35.24q-.99.03-1.8.42t-1.05.54q-.24.15-.9.33-.66.18-1.41-.66-.75-.84-1.92-1.98-1.17-1.14-3.36-3.6t-2.37-2.43q-.18.03-.27.24-.09.21 2.37 2.94t3.21 3.63l1.35 1.62q.6.72-.21 1.02-.81.3-1.68.33-.87.03-2.04.42t-2.13.57q-.96.18-2.82.69-1.86.51-2.64.84-.78.33-1.38.36-.6.03-.72.12t-.72.12q-.6.03-.93.27-.33.24-.51.57-.18.33-.15.75t.27.75q.24.33.57.51.33.18 1.17.18.84 0 1.05-.12.21-.12.69-.12t1.11-.39q.63-.39.72-.39.09 0 .27-.12.18-.12.27-.12.09 0 .15-.09t.15-.09q.09 0 .3-.12t.33-.12q.12 0 1.2-.3t1.53-.48q.45-.18.57-.18.12 0 1.26-.15 1.14-.15 1.62-.24.48-.09 1.41-.09.93 0 1.56-.27t.78-.27q.15 0 .99-.24t1.77.9q.93 1.14 1.68 2.1.75.96 1.47 1.98t1.95 2.79q1.23 1.77 1.89 2.49.66.72 1.02 1.41t.57.9q.21.21.45.33.24.12.69.12h.45zm-15.12 11.52l.42-.27q.42-.27.57-.51.15-.24.21-1.98t.09-1.74q.03 0 .12-.33t.12-.33q.03 0 .15-.57t.03-.84q-.09-.27-.18-.36-.09-.09-.06-.87t.06-.78q.03 0 .09-.18t.09-1.41q.03-1.23.06-1.23t.09-.18q.06-.18.09-1.95t.06-1.77q.03 0 .09-.18t.09-2.64q.03-2.46.06-2.46t.09-.18q.06-.18.03-8.01t-.12-7.92q-.09-.09-.12-3.15t-.12-3.24q-.09-.18-.15-.63t-.12-.51q-.06-.06-.09-3.78-.03-3.72-.39-4.17-.36-.45-.69-.63-.33-.18-.87-.15t-.87.27q-.33.24-.51.57-.18.33-.15.75t.24.69q.21.27.24 3.75t.12 3.6q.09.12.12.48t.12.54q.09.18.12 3.33t.12 3.27q.09.12.06 6.99t-.12 7.02q-.09.15-.12 2.64t-.12 2.64q-.09.15-.12 2.16-.03 2.01-.12 2.16-.09.15-.12 1.2t-.12 1.2q-.09.15-.12.96-.03.81-.12.96-.09.15-.06 3.45.03 3.3.27 3.63.24.33.57.51.33.18.66.18h.33zm19.14-39.84l.42-.27q.42-.27.57-.51.15-.24.15-.75t-.24-.84q-.24-.33-.57-.54-.33-.21-.57-.45-.24-.24-.39-.3-.15-.06-.42-.36t-1.2-.87q-.93-.57-1.35-1.02-.42-.45-.69-.6-.27-.15-.75-.24t-.72-.51q-.24-.42-.45-.51-.21-.09-.57-.12t-.48-.12q-.12-.09-.36-.03t-.33.21q-.09.15-.06.48.03.33.21.48.18.15.39.24.21.09.3.6t.33.78q.24.27.63.51t.81.9q.42.66 1.11 1.29.69.63 1.5 1.17.81.54 1.11.84.3.3.54.42.24.12.66.12h.42zM75 54zm75.6 5.94l.42-.27q.42-.27.57-.51.15-.24.21-1.26t.09-1.02q.03 0 .09-.18t.03-4.77q-.03-4.59-.12-4.68-.09-.09-.12-5.64t-.24-5.82q-.21-.27-.27-.66-.06-.39-.39-.84-.33-.45-.45-.72-.12-.27-.33-.48-.21-.21-.45-.33-.24-.12-.42-.12t.18-.57q.36-.57.54-.78.18-.21.24-.21t.33-.36q.27-.36.39-.78.12-.42.15-.42t.27-.33q.24-.33.42-.69.18-.36.21-.36t.27-.33q.24-.33.51-.75t.36-.69q.09-.27.12-.27t.15-.27q.12-.27.18-.54t.09-.27q.03 0 .27-.33.24-.33.48-1.05t.27-.72q.03 0 .24-.36t.27-.63q.06-.27.09-.27t.24-.45.24-.45q.03 0 .18-.24t.15-1.11q0-.87-.24-1.2-.24-.33-.57-.51-.33-.18-.87-.15t-.87.27q-.33.24-.51.57-.18.33-.18.75t-.12.6q-.12.18-.15.33-.03.15-.21.39-.18.24-.24.6t-.27.66q-.21.3-.39.87-.18.57-.42.84t-.45.87q-.21.6-.54 1.08-.33.48-.48.78-.15.3-.42.72t-.39.63q-.12.21-.36.48t-.33.63q-.09.36-.36.54-.27.18-.66.9t-1.14 1.53q-.75.81-.93 1.17-.18.36-.42.51-.24.15-.66.84-.42.69-.81.93-.39.24-.63.51t-.72.51q-.48.24-.99.72t-1.2.93q-.69.45-1.41.93-.72.48-1.02.87-.3.39-.3.9t.24.84q.24.33.57.51.33.18.78.18t1.56-.72q1.11-.72 1.32-.96.21-.24.33-.24.12 0 .54-.27.42-.27.63-.51.21-.24.27-.24.06 0 .45-.33t.51-.33q.12 0 .54-.27.42-.27.57-.54.15-.27.21-.27t.27-.18q.21-.18.33-.18.12 0 .54-.27.42-.27.6-.48.18-.21.42-.21t.45-.09q.21-.09.42.48t.3.66q.09.09.12 5.61.03 5.52.12 5.64.09.12.06 2.97t-.24 3.39q-.21.54-.18 2.43.03 1.89.27 2.22.24.33.57.51.33.18.78.18h.45zm7.92-24l.42-.27q.42-.27.66-.63.24-.36.3-.36t.51-.27.51-.27q.06 0 .75-.48t.75-.48q.06 0 .78-.27t1.5-.57q.78-.3 1.86-.75t1.23-.57q.15-.12.48-.12.33 0 1.08-.48t1.11-.48q.36 0 1.23-.36t1.2-.36q.33 0 .99-.33.66-.33.75-.33.09 0 .54-.09.45-.09.66-.27.21-.18.45-.18.24 0 .66-.24.42-.24.72-.24t.72-.27q.42-.27.69-.63.27-.36.27-.87t-.24-.84q-.24-.33-.57-.51-.33-.18-1.08-.15t-1.05.27q-.3.24-.48.33-.18.09-.51.15t-.6.24q-.27.18-.66.24t-.99.36q-.6.3-.99.33-.39.03-1.17.36-.78.33-1.29.36-.51.03-1.17.48-.66.45-1.08.48-.42.03-.81.3-.39.27-.84.42-.45.15-1.38.54-.93.39-1.26.45-.33.06-.51.21t-.6.24q-.42.09-1.11.48-.69.39-.93.57-.24.18-.51.3t-.57.33q-.3.21-.69.42-.39.21-.87.72t-.6.75q-.12.24-.09.78t.27.87q.24.33.57.51.33.18.66.18h.33zm10.32 28.56l.42-.27q.42-.27.57-.51.15-.24.21-2.58t.09-2.34q.03 0 .09-.18t.09-3.48q.03-3.3.06-3.3t.09-.18q.06-.18.09-1.17t.06-.99q.03 0 .09-.18t.03-9.36q-.03-9.18-.12-9.27-.09-.09-.18-.57t-.18-1.17q-.09-.69-.15-.75-.06-.06-.09-3.42t-.12-3.45q-.09-.09-.12-.96t-.12-.99q-.09-.12-.12-.96t-.12-.96q-.09-.12-.12-.6t-.27-.81q-.24-.33-.57-.51-.33-.18-.87-.15t-.87.27q-.33.24-.51.57-.18.33-.15.75t.12.54q.09.12.15.45t.12.39q.06.06.09.9.03.84.12.96t.12 1.05.12 1.05q.09.12.12 3.39t.12 3.39q.09.12.12.72t.12.78q.09.18.12.57.03.39.12.51t.06 8.55q-.03 8.43-.12 8.58-.09.15-.12 1.08t-.12 1.08q-.09.15-.09.57 0 .42-.27.54-.27.12-.48.33-.21.21-.33.45-.12.24-.09 2.79t.27 4.11q.24 1.56.45 2.22.21.66.24 1.08.03.42.27.75.24.33.57.51.33.18.66.18h.33zm-16.56-9.12l.75-.39q.75-.39 1.26-.9t.57-.66q.06-.15.12-.15t.54-.3q.48-.3.69-.6.21-.3.27-.3.06 0 .36-.3t.48-.72q.18-.42.21-.42t.48-.33q.45-.33.69-.72.24-.39.27-.39.03 0 .45-.45.42-.45.6-.66.18-.21.24-.21t.42-.48.42-.48q.06 0 .48-.39t.66-.87q.24-.48.27-.48.03 0 .51-.63t.51-.63q.03 0 .6-.6t1.32-1.68q.75-1.08.78-1.08.03 0 .54-.63t.99-1.41q.48-.78.51-.78.03 0 .24-.3t.27-.3q.06 0 .6-.39t.69-.63q.15-.24.15-.75t-.24-.84q-.24-.33-.57-.51-.33-.18-.99-.15-.66.03-.99.27-.33.24-.42.42-.09.18-.36.36t-.51.57q-.24.39-.48.66t-.42.63q-.18.36-.57.9-.39.54-.66.81t-1.02 1.35q-.75 1.08-1.53 1.89-.78.81-.99 1.14-.21.33-.45.57-.24.24-.42.63t-.51.6q-.33.21-.6.6-.27.39-.6.6-.33.21-.6.63-.27.42-.69.84-.42.42-.54.57-.12.15-.72.72t-.75.9q-.15.33-.42.51t-.36.3q-.09.12-.42.27-.33.15-.66-.09t-.84-.24q-.51 0-.84.24-.33.24-.6.75-.27.51-.24 1.35.03.84.12 1.02.09.18.15.51t.36.66q.3.33.54.45.24.12.57.12h.33zm37.38-3.36l.42-.27q.42-.27.57-.51.15-.24.15-.75t-.33-.96q-.33-.45-.93-.84-.6-.39-.93-.48-.33-.09-.81-.51-.48-.42-.78-.57-.3-.15-.51-.39-.21-.24-.78-.54-.57-.3-.96-.6t-.99-.9q-.6-.6-.9-.78-.3-.18-.81-.57-.51-.39-.93-.96-.42-.57-1.11-1.23-.69-.66-.84-.78-.15-.12-.36-.36t-.51-.42q-.3-.18-.57-.6-.27-.42-.66-.66-.39-.24-.63-.63t-.66-.66q-.42-.27-.96-.81t-1.05-.81q-.51-.27-.96-.72-.45-.45-.87-.66-.42-.21-.99-.18-.57.03-.9.27-.33.24-.51.57-.18.33-.15.75t.27.75q.24.33.57.51.33.18.48.21.15.03.6.48.45.45.96.72.51.27 1.08.84.57.57.72.69.15.12.72.72t.72.72q.15.12.51.51t.6.6q.24.21.57.72.33.51.69.72.36.21.48.21t.24.24q.12.24.96 1.08.84.84 1.5 1.26.66.42 1.02.81.36.39.54.69.18.3.54.51.36.21.57.24.21.03.51.24.3.21.51.45.21.24.66.45.45.21.72.48.27.27.78.6.51.33.84.48.33.15.6.36.27.21.78.24l.51.03zm-27.96 1.2l.93-.48q.93-.48 1.53-.72t.75-.36q.15-.12.51-.12t.99-.27q.63-.27.75-.27t.72-.21q.6-.21.99-.42t.48-.21q.09 0 .57-.09t.75-.27q.27-.18 1.05-.18t1.44-.36q.66-.36.81-.36.15 0 .33-.12.18-.12.84-.12.66 0 .84-.12.18-.12.81-.12.63 0 1.05-.27.42-.27.57-.51.15-.24.15-.75t-.24-.84q-.24-.33-.57-.51-.33-.18-1.44-.15-1.11.03-1.2.12-.09.09-.84.12t-.84.12q-.09.09-.42.15-.33.06-.69.33-.36.27-1.38.33t-1.29.27q-.27.21-.63.24t-1.11.39q-.75.36-1.38.51-.63.15-1.02.33-.39.18-.87.21t-.81.27q-.33.24-.93.42-.6.18-.93.42-.33.24-.63.39-.3.15-.66.18-.36.03-.69.27-.33.24-.51.57-.18.33-.15.75t.27.75q.24.33.57.51.33.18.93.18h.6zM135 54z"/></svg>