<svg viewBox="0 0 389 80" xmlns="http://www.w3.org/2000/svg"><path d="M18.84 21.28v-1.74h46.44l-1.2 1.74H18.84zm2.52 18.96V38.5h40.92l-1.2 1.74H21.36zM15.24 62.8v-1.74h53.04l-1.2 1.74H15.24zm77.1-17.58q-.9-2.58-1.89-4.74-.99-2.16-3.03-5.76v32.16h-4.8V39.4q-3.42 7.14-8.1 11.04l-.6-.6q3.12-5.04 4.89-10.17 1.77-5.13 3.03-12.27H75.6v-1.74h7.02v-11.7h3.9q.36 0 .63.27t.27.63v10.8h7.86l-1.2 1.74h-6.66v5.04l1.2 1.08q3.42 3.18 6 6.24.72.78.72 1.62 0 .66-.45 1.26t-1.35 1.38l-1.2 1.2zm24.9 9.24q6.06 5.88 12.42 8.34-.6.54-1.14 1.14-1.08 1.08-1.83 1.59t-1.65.51q-.96 0-1.98-.6-1.86-1.08-4.11-3.21t-4.53-4.95q-3.84 3.48-8.19 5.79t-8.25 3.15l-.6-.6q9.48-4.02 15.24-10.74-5.76-7.98-8.82-16.74-.84 9.54-4.05 16.23-3.21 6.69-10.29 11.91l-.6-.6q4.62-5.58 6.75-10.92t2.94-13.14q.81-7.8 1.05-22.86h-5.7v-1.74h28.62q.48 0 .75.3t.27.78q0 .84-.66 1.74l-9.78 13.8h12.12q1.32 0 1.14 1.14l-.6 2.94q-1.92 9.36-8.52 16.74zm-13.2-19.26q4.02 9.3 10.8 16.74 2.52-3.84 3.72-7.92 1.2-4.08 1.2-7.74 0-.48-.21-.69-.21-.21-.81-.21h-7.5v-1.74l6.24-14.88H104.4q0 11.52-.36 16.44zm63.12-8.46v-4.56h-15.42v-1.74h15.42V14.5h3.9q.36 0 .63.27t.27.63v5.04h9.84q-1.56-1.86-3.06-3.3-1.5-1.44-3.84-3.48l.6-.6q1.08.48 2.58.96.48.18 1.98.75 1.5.57 2.64 1.17.9.48 1.32.9.42.42.42 1.02 0 .78-.9 2.58h4.92l-1.2 1.74h-15.3v4.56h11.34q.78 0 1.32.54t.54 1.32v19.02h-4.8V43.3h-8.4v4.38h-4.8V43.3h-9.36v4.32H153V28.6q0-.78.54-1.32t1.32-.54h12.3zm-16.98 4.5h-4.14v34.92h-4.8V31.24h-6.48V29.5h6.48V14.62h3.9q.36 0 .63.27t.27.63V29.5h5.34l-1.2 1.74zm9.48-2.76q-.78 0-1.32.54t-.54 1.32V34h9.36v-5.52h-7.5zm18.84 0h-6.54V34h8.4v-3.66q0-.78-.54-1.32t-1.32-.54zm-20.7 7.26v5.82h9.36v-5.82h-9.36zm14.16 0v5.82h8.4v-5.82h-8.4zM189 51.7l-1.2 1.74h-6.84v7.32q0 2.88-.66 4.32-.66 1.44-2.82 1.44-.36 0-1.44-.12l-6.54-1.14-.6-.66h4.5q1.38 0 1.98-.69.6-.69.69-1.38.09-.69.09-1.77v-7.32h-26.82V51.7h26.82v-3.54h3.9q.36 0 .63.27t.27.63v2.64H189zm-25.8 5.4q2.1.66 2.94 1.23.84.57.84 1.41 0 .54-.3 1.35t-.72 1.71l-.6 1.44q-2.28-2.52-5.01-4.92t-4.89-3.66l.42-.72q2.7.66 5.46 1.56.36.12.84.27.48.15 1.02.33zm39.48-33.12v6.24h-4.8v-7.98q0-.78.54-1.32t1.32-.54h22.62q-2.58-2.88-4.17-4.35-1.59-1.47-3.27-2.67l.54-.6q.6.12 2.07.51 1.47.39 2.97.9 1.5.51 3.06 1.29 1.62.78 1.62 1.86 0 .54-.3 1.2-.3.66-1.02 1.86h20.4q.78 0 1.32.54t.54 1.32v7.98h-4.8v-6.24q0-.78-.54-1.32t-1.32-.54h-34.92q-.78 0-1.32.54t-.54 1.32zm23.04 15.12q4.38 6.6 10.68 11.94t13.56 7.92q-.72.54-1.68 1.8-.84 1.02-1.47 1.56t-1.41.54q-.78 0-1.74-.6-3-1.74-6.66-5.43-3.66-3.69-6.99-8.4-3.33-4.71-5.37-9.33h-.6v26.7h-4.8V39.1h-.06q-2.1 6-6.51 11.1t-9.48 8.64q-5.07 3.54-9.33 5.22l-.6-.6q3.54-1.92 7.53-5.37t7.65-8.34q3.66-4.89 5.94-10.65h-17.52v-1.74h22.38V27.04h3.9q.42 0 .66.24.24.24.24.66v9.42h23.4l-1.2 1.74h-20.52zm39.3-17.52q-3.48 3.84-8.94 6.9l-.54-.66q4.38-3.6 6.42-7.71 2.04-4.11 2.1-7.29 2.58 1.14 3.63 1.86 1.05.72 1.05 1.56 0 .72-.9 1.98l-1.26 1.62h15.84l-1.2 1.74h-10.8q1.8.9 3 1.68 1.38.9 1.38 1.98 0 .78-.63 1.62-.63.84-1.95 2.22-.06-.12-1.38-2.16l-1.62-2.43q-1.26-1.89-2.22-2.91h-1.98zm25.44-2.4h17.7l-1.2 1.74h-12.42q2.76 1.26 4.44 2.34 1.38.9 1.38 1.98 0 .78-.63 1.62-.63.84-1.95 2.22l-.84-1.32q-2.1-3.18-3-4.47-.9-1.29-1.98-2.37h-2.94q-3.36 3.78-8.28 6.84l-.54-.66q3.54-3.42 5.28-7.23 1.74-3.81 1.68-6.81 2.64 1.08 3.72 1.8t1.08 1.56q0 .72-.84 1.92l-.66.84zM268.8 30.22q1.5.72 1.5 2.22 0 .84-.42 1.92t-1.32 2.7q-1.02-1.26-1.86-2.58-1.5-2.1-2.7-3.51-1.2-1.41-3.12-3.09l.6-.6q2.7.96 4.35 1.59 1.65.63 2.97 1.35zm34.8-.3q.78 0 1.32.54t.54 1.32v27.96q0 2.76-.66 4.68t-2.94 1.92q-.66 0-1.86-.3l-8.16-2.46-.6-.6h5.58q3.84 0 3.84-3.84V33.52q0-.78-.54-1.32t-1.32-.54h-24.18v-1.74h28.98zm-40.62 5.76q.42 0 .66.24.24.24.24.66V66.1h-4.8V35.68h3.9zm30.48 22.62q0 .78-.54 1.32t-1.32.54h-19.08q-.78 0-1.32-.54t-.54-1.32V39.76q0-.78.54-1.32t1.32-.54h19.08q.78 0 1.32.54t.54 1.32V58.3zm-16.14-18.66q-.78 0-1.32.54t-.54 1.32v6.54h13.2V41.5q0-.78-.54-1.32t-1.32-.54h-9.48zm11.34 16.92v-6.78h-13.2v6.78q0 .84.75 1.35.75.51 2.37.51h8.22q.78 0 1.32-.54t.54-1.32zm37.02-27.96q.36 0 .63.27t.27.63v36.66h-4.8V33.58q-4.98 7.98-7.5 9.9l-.54-.66q2.52-3.42 5.4-9.24 2.88-5.82 4.89-11.52 2.01-5.7 2.13-8.82 2.88 1.26 3.81 1.83.93.57.93 1.65 0 .84-.84 2.52-2.04 3.9-5.28 9.36h.9zm25.98-2.22q1.62 5.28 4.71 10.41t6.87 9.09q3.78 3.96 7.5 6 .06-.06-1.32 1.14-1.32 1.08-1.98 1.5-.66.42-1.38.42-1.02 0-2.16-1.14-2.28-2.28-5.04-6.72-2.76-4.44-5.07-9.96-2.31-5.52-3.15-10.74h-.12v27.3h9.84l-1.2 1.74h-8.64v10.74h-4.8V55.42h-9.78v-1.74h9.78V33.34q-2.88 7.68-7.56 14.13-4.68 6.45-8.94 9.33l-.6-.6q3.9-3.66 7.98-12.09t6.42-17.73h-12.6v-1.74h15.3V14.56h3.9q.42 0 .66.24.24.24.24.66v9.18h16.92l-1.2 1.74h-14.58z"/></svg>