<svg viewBox="0 0 384 80" xmlns="http://www.w3.org/2000/svg"><path d="M52.36 43.96q-12.19 3.87-24.38 8.67-2.46 0-4.45.82-3.63-.23-6.91-.23-.35.58-.71 1.17.12.7.71 1.29 2.93.59 6.21.23 3.51-.93 7.38-1.52 9.96-4.34 20.51-7.97 5.27.24 10.43 1.29l.94-.7q.11-1.99-.94-3.17-4.45-.35-8.79.12zm-19.81-6.8v.94q2 2.11 4.34 4.22.47.23 1.06.23 1.4-.58 2.34-1.64v-1.28q-1.41-1.29-3.4-.94-1.29-1.06-2.23-2.11-1.28-.47-2.11.58zm-2.92-13.59q-.83.59-.71 1.52.35.82 1.17 1.41 2.82 0 5.51.94.7 1.17 2.11 1.17.94-1.41 1.17-3.05-.23-.47-.58-.82-4.57-.7-8.67-1.17zm70.07 3.16q-2.11-.58-3.98.24-1.29 1.41-1.17 2.58 1.29-.71 2.58-1.41 1.52-.23 2.57.12-.35.35-.82 1.17.24 2.23.35 4.45-1.28 5.16-2.69 10.43-1.52 3.05-3.05 6.21-1.76 2-3.16 3.99l-.24 1.4q.47.47 1.41.47 2.11-1.17 3.52-3.4 2.34-5.27 4.45-10.54 1.17-4.34 2.11-8.67v-3.99q-.47-1.05-1.41-1.4 3.4-1.76 7.15-3.52 1.06-.12 2.11-.23.47.93.12 2.1-1.76 2.93-2.46 6.33-.24 1.29 0 2.58 1.75 1.99 2.69 4.45-.82 3.87-2.46 7.62-1.52-1.17-2.93-2.69-1.17-.71-2.58-.94-.93.58-.82 1.52 2.23 2.35 4.92 4.45-1.05 1.06-2.11 2.11-4.1 2.7-8.67 4.11.35.46.71 1.05.82.35 1.87.47 5.16-2.23 9.61-5.98 3.05 2.82 6.91 5.04 4.11 1.06 8.68 1.06.7-.36 1.4-.94.12-.7 0-1.29-.93-.47-1.76-.82-3.28 0-6.32-.12-2.58-.94-4.93-2.46-1.52-1.4-2.46-2.93 1.64-4.1 2.82-8.44 0-1.28-.12-2.34-1.52-1.87-2.58-3.75-.12-1.52.12-2.81 1.29-3.05 2.34-5.86v-1.88q-.94-1.05-2.11-1.52-5.15 1.41-9.61 3.98zm-16.17-8.9q-.35.7-.47 1.52.71 1.53 1.64 3.05-.11 4.33-.35 8.9-3.75 1.41-7.38 2.82-1.41-.35-2.58.11-.47.59-.82 1.29 0 .59.47 1.06 7.97-1.64 8.67-.82-1.52 5.27-3.51 10.43-2.47 3.98-5.28 7.97-.35.93.59 1.64.7-.12 1.4-.47 1.18-1.41 2.47-2.7 3.16-6.21 5.62-12.77-.23 10.78-1.29 21.21.35.59.82 1.17 1.29.35 2.23-.47.23-10.07.47-20.39 2.81.94 5.39 3.52.93-.12 1.64-.94-.12-.82-.24-1.52-1.87-1.76-3.75-3.05-1.52-.7-2.81-.82-.12-2.34.24-4.57 1.4-.94 2.93-1.05 1.17-.82 1.64-2.11-.47-.59-.94-.71-1.88.35-3.52.71.47-5.16.59-9.96-1.17-1.29-1.29-2.82-.7-.58-1.29-.82-.82 0-1.29.59zm64.22 39.49q-.23 2.11-.7 4.22-.82.82-1.29 1.64.35 1.64 1.87 2.58 1.29 0 2-.94-.71-5.04.7-9.14-1.53.23-2.58 1.64zm20.74-3.52q.24.94.94 1.76 2.93 1.53 5.27 4.22.94.59 2.35.59.58-.71 1.05-1.41-.35-1.29-1.17-2.11-2.81-1.99-5.27-3.75-1.18 0-2.11-.35-.82.35-1.06 1.05zm-18.63-2.81q-.7.59-.59 1.64.82.71 2.11.82 4.22-1.64 8.67-2.69-.11 2.11 1.06 4.45-.59 4.45-.23 9.02-1.06-.35-1.88-1.17-1.52-.47-2.34.47 2.22 1.76 5.15 2.35.94-1.41 1.29-2.93.35-5.51.24-10.9-.82-1.29-1.64-1.76 4.92-1.06 9.6-2.46.36-.82.59-1.53-.35-.7-.94-.93-10.54 2.58-21.09 5.62zm5.98-8.67q-1.29.35-1.88 1.52-.12.94.94 1.41 3.16-1.05 6.68-1.17 1.64-1.17 3.63-1.88.59-.93 1.17-1.64 0-.7-.47-.93-5.15 1.17-10.07 2.69zm-14.89-5.39q-.58 4.8-.93 9.37.46.36 1.17.36 1.64-1.41 2.11-3.4-.12-3.63.7-6.8-.82-1.17-1.99-.94-.82.47-1.06 1.41zm14.18-7.85q0 .7.47 1.4 2.46.59 4.81 2.47-7.74 2.46-14.65 5.15-.59.59-.59 1.29.82.24 2.11.12 9.14-2.81 18.17-6.1 3.75-.82 7.61-.7-1.64 2.23-3.98 3.17.35.11.58.58 1.88 0 3.64-.94l1.87-1.87v-1.52q-1.17-1.29-2.69-1.65-5.39.59-10.32 2-.11-1.06-.23-2-2.23-1.75-4.8-2.34-1.41-.23-2 .94zm.71-15q-.82.58-1.06 1.4.47 1.53 1.29 3.05-.23 3.05.35 5.98-3.16.94-6.09 2.34.94-2.58 1.05-5.27-.58-1.06-1.52-1.06-.94.59-1.41 1.53.12 3.16-.7 6.79.35.47.94.82.82 0 1.64-.11 2.22-1.76 4.92-2.82 2.7-.35 5.16-1.17 1.87.24 3.51 1.17 2.11-.35 3.87-.11 1.17-1.06 1.64-2.35-.12-5.15.23-9.61-1.28 1.76-2.46 3.75-2.69 2.35-5.27 4.34-1.76.35-3.16 1.05-.12-.93.58-1.87-.7-2.7-.94-5.51-.82-1.05-1.52-2.11-.82-.23-1.05-.23zm64.21 40.08q.24 2.57 1.53 5.04.94 1.17 2.22 2.34 1.65.94 3.52 1.29 3.52-.12 7.03 0 1.53-.47 2.93-1.53v-1.17q-2.11-2.34-4.22-3.86-.58-.12-.82.35.71 1.99 1.99 3.86-3.51.12-6.91 0-1.41-.7-2.58-1.64-.94-2.81-2.58-4.92-.58-.47-1.17-.58-.58.23-.94.82zm-8.32-.71q-.11 2.23-.46 4.81-.82 1.29-1.18 2.93 0 .94.59 1.64h1.05q1.18-1.17 2.11-2.81-.11-3.52 1.06-6.57-.47-.82-1.17-1.29-1.41 0-2 1.29zm12.19-2.81q.12 1.06.71 1.99 2.22 1.41 4.1 3.64.93 0 1.64-.59.23-1.41-.35-2.34-2.35-2.11-4.57-3.64-1.18-.11-1.53.94zm10.9-2.11q.23.47.59 1.17 2.11.94 4.33 2 1.29 1.05 2.35 2.34.46.23 1.29.23.58-.47.93-1.17-.11-1.05-.47-1.76-1.64-1.17-3.04-2.57-2.35-.94-4.69-1.64-1.06.23-1.29 1.4zm-32.34-2.46q.7 4.81.82 10.31-.59 3.64-1.17 7.39l.7 1.64q1.17.35 2.11-.47.82-9.03.58-18.28-.47-.71-.82-1.29-1.52-.35-2.22.7zm23.67-1.05q-3.28 1.75-6.92 2.69-.82.59-.82 1.64.24.59.94.82 6.56-1.87 13.13-3.87.47-.93 1.17-1.64 0-.7-.47-1.05-3.63.47-7.03 1.41zM204.7 34q-.47 1.29-.58 2.93-2.7 5.51-5.51 11.13-2.7 3.17-4.81 6.92.36.47.83.93.46-.11 1.05-.23 2.34-2.81 4.34-5.51 3.28-6.33 6.32-12.42.47-1.87.82-3.63-.23-.71-.7-1.06-1.17-.11-1.76.94zm11.37.82q-.47.35-.59.94 0 .94.82 1.4 1.18 0 2.23-.23 1.06 1.99.82 4.1-1.52-.23-2.69.7-1.41-4.33-3.52-7.96-.94.58-1.41 1.52 1.06 4.92 2.7 9.49 1.41 0 2.46-1.4.82.58 2.11.46 4.92-1.87 10.2-3.28 1.05.12 2.22 0 2.58-3.04 5.04-6.68v-1.64q-1.17-1.4-2.58-2.11-1.29-.23-2.46-.11-7.73 2.22-15.35 4.8zm9.26-.7q.82 2.34.12 5.04-1.29.47-2.58.82-.47-1.29-1.41-2.35.35-1.29.12-1.99 1.87-.82 3.75-1.52zm7.15-1.88q1.17 0 1.64 1.17-1.76 1.64-3.05 3.87-1.76 0-3.28.7.35-2.69.47-5.03 1.87-.71 4.22-.71zm-27.19-12.42q-.59 1.64-.35 3.75-2.23 4.34-5.51 8.32-.59.12-1.05.47-1.18.94-1.06 2.58.35.47 1.06.58 2.22-.82 3.98-2.93 2.69-3.98 5.04-8.32v-3.75q-.47-.7-1.06-.93-.7-.12-1.05.23zm16.17-5.27q-.47.7-.35 1.64.82 1.29 1.05 2.93-.58 2.93-.93 6.09-2.7.59-4.81 1.76-.35.94.24 1.87.7.12 1.52.36 1.17-.59 2.46-.94-.7 1.87-.59 4.22.24.23.59.47.7-.94 1.76-1.53.47-2.22.82-4.33 4.1-1.64 8.08-3.4.36-.82.47-1.76-.82-1.17-1.99-.7-3.16 1.4-6.09 2.93.35-3.17.58-6.57-.23-1.52-.7-2.69-.7-.35-1.17-.82-.59.12-.94.47zm63.75 21.44q-.35.59-.35 1.29 1.29.7 2.34 1.99 1.29 8.79 1.53 18.28-4.81 2.11-9.61 4.69-.47.94.23 1.88 3.17-1.41 6.56-2.58 2.23-.24 4.69-.12.94-.7 1.41-1.52-1.64-10.43-1.88-21.33-1.05-1.99-2.93-2.81-1.17-.12-1.99.23zm-20.74-16.64q-.59 3.28-1.17 6.56-3.4 6.1-6.45 12.43.47.7 1.76.58 2.23-2.22 4.45-4.57.47.35.71.94-.24 2.46-.94 4.8-1.64 2.46-3.4 5.28-.23.93.59 1.64.46-.12 1.17-.24 1.29-2.11 2.81-3.86h1.05q.47.47.83 1.4.23 4.34-.36 8.67.24.47.59.82.82-.35 1.52-.82.94-7.5 2.58-14.76 1.29-.82 3.05-.59 5.62-2.34 11.01-5.15 5.28-1.88 10.78-3.64.71 1.29 1.76 2.58 1.76.35 3.75.24.35-.36.59-.71 0-1.17-.47-1.99-1.05-.82-1.76-1.76-1.17-.58-2.22-.7-5.63 1.29-11.02 3.16-6.09 3.17-12.66 5.75-2.22-.12-4.22-.24-.46.35-.7.82.12 1.76-.12 3.64-.35.7-.93 1.4-.94-.7-1.64-1.64 0-2.34.82-4.34.11-1.99-1.18-3.16-1.52.24-2.1-.82 1.52-3.16 3.39-6.21.59-2.11.47-4.22-.23-.94-.93-1.41-.83-.11-1.41.12zm11.25-.47q-.59.35-.7.94.11.7.82 1.29 4.57-.94 8.9-2.34 1.06.35 1.99 1.4h1.41q1.64-1.05 3.16-2.34-.11-.7.12-1.17-.47-.59-1.29-.82-7.5.93-14.41 3.04zm70.08 20.39q-1.17 2.7-1.17 5.98-1.18 1.05-2.58 2.11-.47-.47-.94-.35-.7.47-1.17 1.17.82 3.87 1.52 7.97.12 3.16-.35 6.44.23.59.82 1.18.7.23 1.76.23.94-.47 1.4-1.41v-1.05q1.06-.7 2.35-1.17 2.81.11 5.15-.71.59.94 1.76 1.76h1.99q.59-.58 1.29-1.17.47-1.41.94-2.7-.23-5.85.35-11.25-.82-1.4-2.11-1.99h-2.46q-4.22 1.29-8.2 2.23.7-1.88 1.64-3.52 0-1.75-.12-3.39-.82-.83-1.87-.36zm2.69 17.82h1.06q.23.82-.94.7-.47-.35-.12-.7zm-3.16-1.53q.94 0 1.64.47-.7 1.29-1.76 1.64-.12-1.17.12-2.11zm10.08-9.37q.7.23 1.29.94-.36 5.97-.82 11.71-1.41-.23-1.41-1.4-2.23-.59-4.22-1.53 1.76-1.52 3.63-3.39.12-.82.12-1.53-.47-.94-1.17-1.29-3.75 1.29-7.38 2-.12-1.53.58-2.58 4.45-1.88 9.38-2.93zm-17.82-23.56q-.11.94 0 2.11.59.71.94 1.76-.12 6.91-1.64 13.24.59.94 1.64.82 3.75-2.58 7.15-6.09.59-.82 0-1.52-2.81 1.75-5.51 3.51l.24-5.86q2.22-1.05 4.68-1.87.94.11 2 0 .58-1.06.58-2.35-.58-.58-1.17-.93-2.93 1.28-5.98 1.99-.35-1.76-.23-3.05-.47-1.17-1.29-2.23-.82-.35-1.41.47zm-10.54-3.4q-.47.71-.59 1.65.47 1.4 1.06 2.92.35 3.99.11 8.21-2.58.7-4.8 1.99-2.81.59-5.63 1.05-.47.59-.82 1.06-.11.7.59 1.29 4.1-.59 8.32-1.41-.7 3.87-2.46 7.74-3.28 5.74-6.92 11.48 0 .82.47 1.52 1.41 0 2.58-1.28 4.81-8.79 8.56-16.65v10.9q-1.06 6.57-1.29 13.36.47.59.82 1.17 1.29.47 2.34-.58-.12-9.96.47-19.92 2.34 1.52 4.57 3.63 1.29 0 1.76-1.06-.12-.82-.35-1.52-1.88-1.4-3.17-2.81-1.4-.94-2.93-1.17 0-3.05.35-6.21 1.53-.82 3.05-1.29.59-.82.94-1.64-.47-.47-.82-.71-1.53.12-2.93.59.12-5.63-.35-10.9-.59-1.05-1.53-1.76-.82-.11-1.4.35zm20.86-3.75q-.59.59-.59 1.41 1.41 2.81 1.99 6.09v9.38q.35 1.05.71 2.23.7.93 1.75 1.87.94.35 2 .7 1.87 0 3.75-.11.82-.47 1.75-.82 1.76-1.53 2.7-3.4 0-2.35.12-4.69-.24-1.05-.59-1.17-.94 3.05-1.52 6.33-2 1.52-4.46 1.64-1.64-.35-3.04-1.41-1.06-2.34-.71-5.15 2.11-1.76 4.22-3.64.71-1.52 1.53-2.93.11-1.05-.71-1.76-1.17-.23-1.87.71-.59 1.29-1.41 2.81-.82.47-1.64 1.29-.23-2.23-.12-4.45-.93-2.35-1.4-4.34-.82-.47-1.41-.94-.7 0-1.05.35z"/></svg>