<svg viewBox="0 0 442 80" xmlns="http://www.w3.org/2000/svg"><path d="M27.28 26.2l-2.46-.48q-.78.24-.78 1.08 0 1.02 2.16 2.4 2.64 1.5 4.8 1.5l3.3-.3q-3.9 2.88-7.74 5.22 5.46-1.02 16.32-6.06l5.16-1.86q2.52-.9 2.52-3.12t-5.58-3.36q-1.26 0-5.94 2.1-5.76 1.86-11.76 2.88zm-.48 24.54q4.92-1.02 18-7.56 3.84-.9 3.84-2.82 0-2.82-5.76-4.14-1.92 0-5.22 2.04-3.96 1.14-9 1.8l-2.82-.42q-.84 0-.84 1.14 0 .9 2.22 2.88 1.44 1.08 3.48 1.08h4.92q-4.08 3.36-8.82 6zm-8.76 5.64Q16.9 54.76 16 54.76q-.96 0-.96 1.38 0 4.62 7.14 6.42 1.32 0 6.42-1.92 7.74-2.94 12.72-2.94 3.6 0 16.98 1.8 3.66 0 3.66-3.3 0-2.82-4.14-5.7-2.46-1.32-3.42-1.32-1.26 0-4.2 2.4-15.36 1.26-32.16 4.8zm63.9-9.18q0 2.82-.06 7.92-2.52-1.44-3.96-3.54l4.02-4.38zm-.66-12.18q-3.18 5.76-6.78 11.04-1.62.96-2.22 2.04-.72 1.44-.72 4.62 0 2.64 1.56 2.64.96 0 3.9-3 1.68 6.06 3.48 8.58.36 3.18 1.68 3.18.54 0 1.17-.57.63-.57 1.17-1.59.96-2.04.96-5.64-.12-7.56-.12-13.74 3.72-6.12 5.46-11.88-2.4 3.6-5.1 6.48l.3-4.14q4.8-2.52 4.8-4.86 0-2.1-3.3-3.78.78-3.06.78-3.9 0-1.26-2.28-4.02-2.1-2.46-3.42-2.46-1.74.6-1.74 1.56 0 1.02 1.5 3.12l-.24 8.88q-3.18 2.04-7.62 3.78-.54-.06-1.44-.06-.9 0-.9.84 0 .9 2.52 2.28 1.86.96 3.24.96 1.32 0 3.36-.36zm6.48 16.74q-1.44 2.88-1.44 5.64 0 2.58 2.1 2.58 1.02 0 1.92-1.26 1.86-2.28 6-11.46 3.78 1.86 6.12 4.02-1.8 2.82-5.58 5.58-1.14.72-4.68 2.58-.9.36-.9.72 0 .66.9.66 5.34 0 8.46-1.44 3.24-1.68 6.18-4.86l7.56 6.3q3.3 2.76 4.98 2.76 3.06 0 3.06-4.02 0-2.22-3.84-6.42-4.5-3.54-7.5-4.62 5.16-9.48 5.16-11.34 0-1.44-1.74-2.94-1.44-1.44-3.24-1.44-.78 0-1.38.06 2.04-2.76 4.38-6.48 1.5-.9 1.5-2.28 0-1.62-2.04-3.24-1.92-1.26-3.36-1.26-.84 0-2.82 1.26-5.76 1.62-13.68 5.34-2.34 1.5-2.34 2.52t.84 1.02q.42 0 .9-.24 1.44 0 4.62-.3l.6 1.44q-2.58 9.84-8.4 19.26-1.74.84-2.34 1.86zm9.96-7.38q4.86-11.34 4.86-13.26 0-1.08-1.32-3.3 2.4-1.08 6.66-2.52-1.08 4.38-3.06 8.34-1.08 1.68-1.08 2.4 0 .66.42 1.8.84 1.14 2.04 1.14.9 0 2.52-.9-1.44 4.98-3.36 8.64-2.88-1.02-7.68-2.34zM82 39.76v1.68l-1.8 1.68 1.8-3.36zm93.72 4.98q3.78 3.72 5.19 6.15 1.41 2.43 1.29 4.41-.36 3.42-3 3.42-1.86 0-5.16-4.44-1.62-2.1-4.5-4.86.18.6.18 1.26 0 1.38-.78 2.22l-.54 2.34q-.6 2.76-1.08 4.53-.48 1.77-1.26 3.51-1.26 3-3.48 2.94-1.02-.12-1.38-1.32-4.68.96-6.36.78-.96 0-2.82-.96-.06 1.02-.33 1.5t-.87.48q-.72-.12-1.47-1.23-.75-1.11-1.47-3.21-1.26-4.86-2.1-9.72-2.22 2.46-5.28 4.56-6.42 2.7-8.16 2.7-.78 0-.66-.66 0-.36 4.2-3.12 5.46-3.78 10.92-13.8-5.22 1.8-6.24 1.8-1.5-.12-4.14-1.8-2.04-1.62-1.98-2.22.06-1.02 1.08-1.02.66 0 2.1.36l12.06-3.24.66-1.86-7.2 1.56 5.4-2.76q-1.08-.12-3.42-2.16-.72-.54-.72-1.14.06-.6.9-.6.6 0 2.34.48 1.98-.3 4.74-1.02l.84-2.76q-2.52.3-2.76.3-1.32 0-3.78-1.26-2.22-1.26-2.1-2.4.12-.72.66-.72t2.16.6q3.12-.6 4.74-.96l2.04-.42.72-3.3q-2.1-1.32-2.1-2.34 0-1.38 3.96-1.92.78 0 3 1.02 1.32.9 1.2 2.46-.12.9-.84 2.64.9-.06 2.28-.6 1.08-1.2 2.04-1.2.6 0 2.82.96 1.44.9 1.38 2.4-.18 1.56-1.98 2.1-1.56.66-8.94 1.98l-.78 2.16q4.74-1.2 6.36-1.32 3.12.66 3.06 2.34-.06.6-.72 1.86 1.32.9 4.98 1.56 3.12 1.2 3.12 3.36 0 2.52-4.02 2.52-7.08 0-8.46.36 10.98 3.42 14.46 6.72zM155.2 32.62l-.84 2.46 12.36-2.22-2.22-2.52q-5.76 1.14-9.3 2.28zm7.32 12.42q.96-.36 1.5-.42-3.54-2.82-7.44-5.64l-3.9.9q-1.44 3.6-3.36 7.26l-.72 1.26q0 .06.12.18 1.26-1.38 3.6-2.04 4.5-1.38 10.2-1.5zm-1.02 15.72q.72-3.06 1.14-7.8.06-.72.18-1.86.12-1.14.36-2.64-10.92.24-13.56 2.34.48 1.08.96 3.72 1.14.12 1.74.3 1.26-.42 2.61-.9 1.35-.48 2.49-1.08 1.02-.66 1.74-.6 2.1.54 2.22 2.46 0 1.08-1.68 2.1-2.34 1.32-6.96 4.8l1.02-1.56q1.32-1.92 1.74-2.7-.72.12-1.14.12l-.96-.06q-1.32-.12-2.34-.42.48 3.3 1.08 6 1.32-.48 4.68-1.2l2.28-.54q.9-.72 1.32-.72l1.08.24zm70.02-41.88q-2.76 7.02-9.54 11.22 2.88-.24 5.76-1.38 4.98-2.58 8.76-6.36 1.32-1.2 1.32-2.04 0-1.26-1.74-3.66-1.26-1.38-3.54-1.38-2.52.18-2.52 1.38 0 1.02 1.5 2.22zm-38.64 2.58q-.78 0-.78 1.02 0 .96 2.04 2.4.9.72 1.98.72.54 0 2.58-.24-1.92 16.56-1.92 19.8 0 2.76.9 4.92l-2.58 1.86q-.12-1.68-.54-1.68-.36 0-1.38 1.26-1.08 1.26-1.08 2.58 0 .84 1.44 2.7.6.96 1.62.96 1.2 0 6.42-5.28.6 4.2 3.54 9.66.48 2.04 1.32 2.04 3.72 0 3.72-8.16 0-3.18-.42-12.06 2.28-4.26 3.12-7.2l-3.12 3.66q.06-5.46.54-10.14.3-3.72.3-4.56 0-.84-1.14-3.3 1.98-.6 2.94-1.14.96-.54.96-1.08 0-1.56-2.04-2.82-.78-.48-2.22-.48-.9 0-3.66 1.86-5.04 2.04-11.1 3-1.2-.3-1.44-.3zM218.74 19q-.72 1.14-.72 2.34 0 3.66 1.92 5.4 1.08.54 2.22.54 1.74 0 1.74-2.64 2.22-2.94 4.5-7.44-3.6 2.88-6.18 3.9-.54-.66-1.02-2.22-.24-1.2-.9-1.2T218.74 19zm-17.7 5.82L205 23.8q.3.3 1.02 1.26l.18 3.18q-.66-.24-1.08-.24-.48 0-2.28.9l-1.56.24q0-.72-.24-4.32zm12.12 33.78q-.9.36-.9 1.14 0 .84 1.74.84 3 0 6.78-1.74 3.54-1.8 5.16-6.66 1.74.78 3.87 2.46t5.79 5.64q2.16 2.64 3.3 2.64 2.76 0 2.76-4.02 0-1.74-.12-2.58-.12-.84-.6-1.74t-1.68-2.22q-4.38-2.94-12.24-4.56l.6-2.94q1.56-.42 4.02-.6 2.16.06 4.44.06 2.76-.18 2.76-2.22 0-3-3.54-3.36-3.06-1.2-5.7-1.68 1.62 1.26 2.7 2.76l-4.2.9.12-3.42q0-.6-.24-1.14 1.38-.96 4.74-2.7 2.04-.78 2.04-1.98 0-2.7-3.72-3.24-1.38 0-3.42 1.5-3.9 1.8-9.12 2.94-1.14-.36-1.74-.36-.66 0-.66.72 0 1.44 2.52 2.82 2.7.84 5.16 1.14-2.94 2.94-7.26 6.06-1.92.48-2.28.66-1.32.6-1.32 3.42 0 2.52 1.98 2.52.9 0 2.64-.9 3.12-1.8 5.88-2.58-1.92 6.6-7.26 10.92-2.22 1.38-3 1.5zM202 37.48l-1.5.3.12-1.5 5.58-4.5.06 4.62q-.96-.18-1.38-.18-.42.06-2.88 1.26zm-.9-4.92l1.62.18-1.92 2.16.3-2.34zm18.72 10.32q1.86-2.34 4.38-4.2l-.18 3-4.2 1.2zm-19.5 5.34q-.12-1.92-.12-3.42l6.06-5.4-.12 3.72q-3.18 3.06-5.82 5.1zm-.06-7.08l1.56.36-1.62 1.98.06-2.34zM202.12 52q2.16-2.1 3.96-4.14l-.12 8.7q-2.76-2.04-3.84-4.56zm65.76-30.42q2.7.36 4.2.36 2.64 0 5.1-.24.96.48 1.8.48 1.86 0 1.86-2.22t-1.68-4.62q-2.4-2.04-4.74-2.04-2.34.24-3.6.99-1.26.75-1.26 1.77 0 .48.36.9.36.42.96.66 1.2.42 2.58 1.56-1.8.96-5.58 2.4zm-5.1 6.84q-.48-3-1.17-4.53-.69-1.53-1.47-1.53-.72 0-.78 1.32-.3 2.1-1.5 4.26-2.46 3.42-2.46 6.54.48 4.98 3.18 4.98 2.52 0 4.02-8.88l3.72.12q2.58 0 7.08-1.86 6.72-2.94 15.48-3.42-3.66 3.36-9.48 5.4 4.32 1.2 7.8 1.2 2.7 0 7.92-2.7 2.64-.06 2.64-1.74 0-1.98-1.68-3.72-2.76-2.46-4.32-2.46-.84 0-2.28.42-13.44.72-26.7 6.6zm22.32 5.88q-1.8-1.62-3.3-1.62-.96 0-2.46.78-5.88 1.5-11.76 4.38-.24-1.14-.6-1.14-1.2 0-1.8 3 0 .66 1.44 2.4 1.02 1.02 1.56 1.02.42 0 1.08-.66 2.46-2.64 8.28-6 .78-.36 1.92-.48l-3.18 4.08-.96.18q-1.26.24-1.26 3 0 .72.36 1.14.36.42.96.42.54.9.6 1.2-6.84 1.26-11.88 4.02-1.38 1.02-1.38 1.68 0 .54.84.54.9 0 2.4-.48 3.54-.9 5.94-1.41 2.4-.51 4.38-.57 0 6.6-.72 8.28h-2.22q-5.22 0-10.92-5.16 2.46 8.04 10.56 12.36.42.54 1.44.9t1.68.36q1.56 0 4.02-3.36.9-1.92 1.11-3.84.21-1.92.21-4.86 0-.84-.21-2.4t-.45-2.52l10.92 1.02q.84 0 1.29-.6.45-.6.45-1.56 0-.72-.36-1.44-2.88-3.24-4.68-3.24-.78 0-2.82 1.14-2.4.12-5.94.48-1.14-2.1-1.62-2.76 2.46-1.92 5.22-3.48 2.58-.48 2.58-2.1 0-.9-.18-1.32l-.54-1.38zm62.88 12.96l-1.32.3V44.5q1.26.84 2.46 1.74l-1.14 1.02zm-11.82 2.22l-1.26-.54q2.58-3.48 5.34-7.86 1.14.48 2.16.96v6.36q-3.12.6-6.24 1.08zm-11.76-7.26q0-1.8-2.04-4.68 10.5-13.02 10.5-15.42 0-2.22-2.52-5.22-1.98-2.34-3.78-2.34-2.34.24-2.34 1.5 0 .66 1.62 3.18-5.82 12.78-11.34 21.06-1.92 1.56-1.92 2.52 0 1.32 1.38 1.32 2.28 0 6.24-4.08.36 1.74.36 3.06 0 1.08-.36 3.96-1.14 7.74-1.14 9.84 0 2.4 1.26 4.2 1.08 1.62 2.04 1.62 2.04 0 2.04-3.6.54-2.16 1.08-4.44 5.1-1.14 8.52-4.56 2.34 3.18 6.36 3.18.72 0 1.98-.12V58q-3.72-.24-7.44-4.38 2.1 5.34 6.12 10.74.54 2.7 2.34 2.7 1.2 0 2.4-2.94 1.26-2.94 1.26-5.16 0-2.58-.18-6.42 3-.6 5.4-1.2 1.32-.6 1.32-1.74 6.66 5.1 8.82 5.1 2.76 0 2.76-2.88 0-2.7-4.38-7.74-3.9-3.24-14.04-4.26 0-3.9.36-7.74 3.66-.48 7.2-.9 3.24-.54 3.24-2.88 0-2.52-4.14-3.96-2.88-.96-5.7-2.22l.18-.9q1.5-2.94 1.5-4.68 0-.9-2.22-2.52-3.3-2.22-4.38-2.22-1.2 0-2.4.66-1.02.6-1.02 1.26 0 .9 3.18 3.96v10.08q-6.96 2.22-11.88 4.32-2.04 1.02-2.04 1.92 0 .48.96.48 3.72.9 4.56.9 1.62-.06 5.4-1.26-4.56 8.34-10.98 16.08-1.38 1.32-2.28 1.74 1.56-6.06 2.22-11.94-1.44 4.32-4.08 8.94v-6.72zM349 25.78l-1.62.48.18-2.1 1.44 1.62zm-6.54 13.44l-1.26-.24 1.26-1.86v2.1zm75.12-23.34q.96.66.96 2.1 0 2.16-3.6 2.16l-4.2.3q.96 1.74.96 2.82 0 .48-.48.9-.48.42-1.5.96-4.68 2.58-11.34 3.3 5.1-2.88 7.68-6.18l-.18-.78q-1.26.3-3.78 1.26-1.38.78-2.16.78-1.62 0-1.62-1.26 0-2.22 1.08-2.88 1.8-2.28 3-4.44-1.14-.72-1.14-1.38 0-.54.81-.93t2.37-.51q1.14 0 2.52 1.2 1.5 1.5 1.5 2.58 0 .36-.84 1.68l3.6-1.14q1.86-1.86 2.82-1.86 1.62 0 3.54 1.32zM378.7 28.66q-1.8 0-1.98-2.34 0-2.58.72-3.66.3-.48 1.86-1.62 1.38-1.14 2.94-4.14-.96-.96-.96-1.56 0-.54 1.08-.9.96 0 2.46.9 1.5 1.14 1.5 2.94 0 .9-.3 2.4 2.76 0 4.68 1.5 2.82-2.16 5.16-5.16-1.8 4.92-3.36 8.1.24.72.24 1.5 0 1.38-2.52 1.68-3.12 0-4.5-3.66-2.1.6-4.14 2.28-1.8 1.74-2.88 1.74zm37.98 4.56q0 .84-.12 1.71t-.9 4.29q-.54 4.68-.54 8.58 0 2.88.06 3.93.06 1.05.24 2.37.3 2.28.48 4.2 0 3.6-1.98 6.72-1.38 2.28-2.58 2.28-.9 0-2.88-3-4.56-3.06-9-8.28-.48.12-.78.12-1.2 0-2.4-2.1-3 .66-3.96.66-.66 0-1.62-.48-.3 1.2-1.08 1.2-2.4 0-2.7-4.02 0-2.64.42-8.34-.3-1.5-.3-2.1 0-1.32.72-1.32.54 0 1.62 1.56 1.8-1.92 7.08-2.94.9-.84 1.92-.84 1.68 0 3.12 1.68 1.44 1.62 1.44 2.7 0 .72-.72 2.1-.12 5.94-.24 8.52l-.18 1.08q-.6 1.38-1.56 2.1 3.3 1.68 6.66 1.68.66 0 1.74.24.18.06.69.18t.87.06V33.28q-.12-.3-.78-.6-1.98.06-6.72 1.56-2.28.66-2.58.66-.78 0-1.8-1.08-.66-.9-.87-1.35-.21-.45-.33-.57-.48-.84-.48-1.26 0-.6 1.44-.6.84 0 4.41-.51 3.57-.51 7.11-1.47.78-.6 1.5-.6.3 0 .63.09t.51.09q.42 0 1.2.66t1.8 1.92q.9.96 1.17 1.62.27.66.27 1.38zm-27 .48q0 1.68-1.44 1.68-.18 0-2.58-.24l-2.46.06q-.48.06-1.56.06.72-.24 1.05-.45.33-.21.75-.63l.9-.84q-1.02-.72-1.98-.96-1.38-.18-1.38-.96 0-.66 1.38-1.5 1.14-.72 2.58-.72 1.38 0 2.52.66 2.22 1.68 2.22 3.84zm-10.86 1.38q.3 0 1.14.99.84.99 1.8 2.85 1.44 2.64 1.44 6.9 0 .84-.12 2.16-.48 3.54-.6 4.86-.12 1.32-.18 3.12 0 2.04-.06 3.96-.06 1.08-.9 1.74-.84.66-1.62.66-.9 0-2.22-2.4-.9-1.74-.9-4.74 0-2.04.66-4.26.06-.78.3-1.86.24-1.26.39-2.73.15-1.47.15-4.95-.36-1.8-.36-2.88 0-1.08.18-1.74.18-.66.18-.84 0-.84.72-.84zm17.34 8.7q.42 0 1.26.12l-.06-3.12q-3.9 1.08-7.2 1.8.6 1.62.72 2.88 4.08-1.68 5.28-1.68zm.84 7.2q.3-1.74.36-4.02l-.66.24q-2.4 2.28-5.4 4.44 1.92 0 3.54-.48 1.14-.42 1.5-.42.54.18.66.24zm-6.54-.18q1.74-1.38 3-3.3l-2.7-.12-.3 3.42z"/></svg>