<svg viewBox="0 0 389 80" xmlns="http://www.w3.org/2000/svg"><path d="M17.4 23.98l31.98-2.34 5.46-1.5 3.24 3.42-33.6 2.58-4.5 1.74-2.58-3.9zm4.5 15.72l21.72-1.62 9.3-1.62 3.24 3.42L29.7 41.8l-5.16 1.8-2.64-3.9zm-6.66 17.4l36.24-2.04 9.3-1.62 3.24 3.42-40.14 2.04L17.7 61l-2.46-3.9zm77.34-12.54q-2.94-3.78-6.12-6.54v27.9q-.84.12-1.71-.33t-1.74-1.08q-.87-.63-1.29-.93.24-.66.72-1.62.48-1.02.72-1.68.24-.66.3-1.5V37.36q-3.06 5.88-5.28 9.51t-5.52 6.81l-.96-.84q2.94-3.3 5.28-7.8 2.34-4.5 3.6-9.24l.78-3.18h-.54l-5.52 2.16-2.46-3.9 10.62-.66v-6.78q-.12-5.4-.48-8.58l4.92 1.92q-1.38 3.36-1.44 7.44v5.82h.42l5.52-1.44 3.24 3.42-9.18.36v3.24q4.2 1.74 8.52 4.98l-2.4 3.96zm24.84 12.96q1.74 2.28 4.59 3.36 2.85 1.08 6.03 1.32v1.2l-10.74.48q-3.24-4.62-7.02-10.5-7.98 9.42-19.5 12.72l-.42-1.2q10.5-3.36 18.36-13.92l-5.94-9.24-2.16-2.28 3.24-.06q.24.6.75 1.32.51.72 1.05 1.38l4.86 6.36q3.9-5.88 6.96-13.38l-5.1.66q-2.04.48-3.48 1.44l-2.1-2.82q1.92-.72 2.82-2.58l4.08-10.08-13.5 1.32-4.8 1.02-1.92-3.3 19.08-1.38q2.52-.18 3.48-2.1l2.82 2.34q-1.38.96-2.58 3.06l-4.32 10.74 4.14-.42q2.22-.54 3-2.4l3.06 2.16q-.66.84-1.17 2.07-.51 1.23-.69 1.65-3.36 8.1-7.98 14.34l5.1 6.72zm-15.24-25.98q-2.1 8.46-3.81 13.68-1.71 5.22-3.87 8.94-2.16 3.72-5.22 6l-1.02-1.02q4.2-4.26 6.6-11.13 2.4-6.87 4.38-17.43.54-2.76.54-5.1 0-1.2-.06-1.74l4.2 1.98q-1.02 2.4-1.74 5.82zm68.46-10.08l-3.18 3.42q-3.24-6.24-6.9-10.08l1.02-.78q4.8 2.7 9.06 7.44zm-27.6 9.84l3.12 1.2q-1.38 3.36-1.44 7.44v26.1q-.84.12-1.71-.33t-1.74-1.08q-.87-.63-1.29-.93.24-.66.72-1.62.48-1.02.72-1.68.24-.66.3-1.5V39.16q-.12-3.84-.24-5.76-4.5 6.18-9.18 9.18l-1.02-.78q3.36-2.76 7.68-9.36t5.94-11.22l1.8-5.82 4.02 3.42q-1.26 1.32-2.4 3.24-2.82 5.46-5.28 9.24zm31.56 6.84q2.58-.48 3.3-2.1l3.42 2.1q-.84.66-1.23 1.47-.39.81-.69 2.25l-.18 1.2q-.9 7.02-1.56 10.32-.66 3.3-2.1 7.38-.9 2.22-1.8 3.21-.9.99-2.28 1.47-3.84-4.92-9.36-7.98l.48-.6 9.36 3.66q1.86-4.74 2.52-8.28.66-3.54 1.56-11.52l-14.16.84q-1.8 9.36-5.31 15.42-3.51 6.06-10.17 9.12l-.72-1.14q6.06-3.66 9.48-10.65 3.42-6.99 4.68-18.57.18-1.68.42-6.42l-4.08.24-6.18 2.1-2.46-3.9 25.92-1.8 9.3-1.62 3.24 3.42-25.38 1.56.78.48 3.06 1.26-1.5 4.2q-.36 2.4-.6 3.84l12.24-.96zm47.52-16.56l-2.7 2.94q-2.28-5.52-5.58-9.42l.9-.9q4.32 2.76 7.38 7.38zm-18.72 6.66q-.12 1.92-.87 3.63t-1.95 3.51L198 32.56q2.82-3.78 4.26-9.36h1.14v2.58l31.32-1.92q2.22-.3 3.24-1.86l2.82 3.54q-1.5.54-2.82 2.1l-4.92 5.88-1.14-.72 3.06-6.66-31.56 2.1zm31.74 26.22q2.16 1.56 4.35 2.07 2.19.51 5.91.81v1.14l-11.82.54q-2.76-3.06-7.98-9.6-.48-.6-2.25-2.85t-2.97-3.45l-.78-.78v22.98q-.84.12-1.71-.33t-1.74-1.08q-.87-.63-1.29-.93.24-.66.72-1.62.48-1.02.72-1.68.24-.66.3-1.5V43.42l-2.52 1.92-.84.9q-4.8 5.1-9.03 8.79-4.23 3.69-9.27 5.97l-.78-1.08q4.44-2.4 9.45-7.14 5.01-4.74 8.01-9.6l1.68-2.94-5.34.36-5.52 2.16-2.46-3.9 16.62-1.26v-.48q-.12-5.4-.48-8.58l4.92 1.92q-1.26 3.24-1.44 6.9l9.9-.72 5.52-1.44 3.24 3.42-17.7 1.14q.3.66 1.05 1.44.75.78 1.17 1.08l12.36 12.18zm20.7-18l-1.02-.78q2.88-3.96 4.92-7.98 2.04-4.02 3.84-8.64l2.1-5.7 3.78 3.6q-1.32 1.5-2.46 3.12-2.22 4.38-5.07 8.64-2.85 4.26-6.09 7.74zm5.58-11.22l1.14-2.22 7.26-.42 7.38-1.8 3.3 3.36-19.08 1.08zm21.54-3.6l11.22-.96 5.76-1.56 3.78 3.3-12.6.84-4.74 1.74-3.42-3.36zm-5.28 10.5l-1.08-.66q2.16-2.82 3.6-5.97t2.64-6.87l1.62-5.82 4.08 3.3q-1.02 1.26-2.22 3.3-1.74 3.66-3.72 6.51-1.98 2.85-4.92 6.21zm9-10.2q5.28 3 8.04 5.88l-3.66 3.12-.72-1.5q-.96-2.22-1.98-3.78-1.02-1.56-2.88-3.06l1.2-.66zm-20.04 1.02q2.76 1.92 4.23 3.18 1.47 1.26 3.21 3.6l-3.66 3.12q-.42-.96-.48-1.2-1.2-2.82-2.07-4.5-.87-1.68-2.43-3.54l1.2-.66zm6.66 9.66l1.14-.06 11.52-.42 6-.48q1.2-.24 2.07-.9.87-.66 1.29-1.56l3.42 2.1q-.84.66-1.23 1.47-.39.81-.69 2.25 0 2.64.12 7.68l.06 7.02q0 7.74-.78 11.34-.36 1.8-1.5 3-1.14 1.2-2.64 1.68-3.96-4.92-9.54-7.98l.48-.6 9.54 3.66q.96-3.12.96-13.2l-.06-7.08q-.12-5.04-.06-6.66l-11.28.78-6.3 1.98-2.52-4.02zm-13.68 30.84q.24-.66.72-1.62.48-1.02.72-1.68.24-.66.3-1.5V43.72q-.12-5.4-.48-8.58l5.04 1.92q-1.44 3.3-1.5 7.44v21.3q-.9.12-1.8-.36t-1.74-1.08l-1.26-.9zm4.5-34.56q4.5 2.46 7.8 5.82l-2.58 2.7q-2.76-4.56-6.06-7.86l.84-.66zm9.42 30.06q-2.1-.66-3.84-1.86.9-3.24.96-6.12v-6.06q0-3.72-.48-6.3l3.84 1.86-.54 1.74v2.58l-.24 7.98q-.06 1.14.24 4.98l.06 1.2zm10.44-7.02l.72-10.26-11.82.9v-2.34l10.68-.96q1.92-.54 2.58-1.86l2.82 1.68q-1.2.9-1.68 3.48l-.42 9.18-2.88.18zm-12.12.54l7.92-.6 6.24-1.68 3.24 3.42-15.6 1.02-1.68.6-.12-2.76zm0-6.12l3.72-.24 4.74-1.5 3.18 3.24-9.84.66-1.68.6-.12-2.76zm49.98-14.94l2.82 1.08q-1.38 3.36-1.44 7.44v26.1q-.84.12-1.71-.33t-1.74-1.08q-.87-.63-1.29-.93.24-.66.72-1.62.48-1.02.72-1.68.24-.66.3-1.5V39.16l-.06-1.62q0-1.32-.12-3.36-3.84 5.58-8.04 8.64l-1.02-.72q3.18-2.94 7.17-9.75 3.99-6.81 5.37-11.55l1.44-5.88 4.2 3.18q-1.26 1.68-2.22 3.36-2.58 5.82-5.1 9.96zm36.12 17.16q3.48 4.86 9.18 4.8v1.14l-9.9.12q-1.62-3.12-2.67-5.19-1.05-2.07-1.71-3.39-4.44-8.76-7.32-13.56v18.06h1.02l5.52-1.44 3.24 3.42-9.78-.06v12.9q-.84.12-1.71-.33t-1.74-1.08q-.87-.63-1.29-.93.24-.66.72-1.62.48-1.02.72-1.68.24-.66.3-1.5v-5.76h-3l-5.52 2.16-2.46-3.9 10.98-.12V33.28l-1.14 1.62-.9 1.62q-3.54 6.24-5.52 9.33-1.98 3.09-4.35 5.7-2.37 2.61-5.79 5.07l-.42-1.32q3.72-3.18 6.72-7.56 3-4.38 7.08-13.2.9-2.16 1.62-4.38l-3.66.12-5.52 2.16-2.46-3.9 14.34-.54v-4.5q-.12-5.4-.48-8.58l4.92 1.92q-1.38 3.36-1.44 7.44v3.6l5.64-.24 5.52-1.44 3.24 3.42-12.78.36 10.8 18.6zM342.54 30.1h-.12l.12.06v-.06z"/></svg>