<svg viewBox="0 0 343 80" xmlns="http://www.w3.org/2000/svg"><path d="M18.94 20.5q0-.54.39-1.02t1.11-.48h37.62q.72 0 1.11.48.39.48.39 1.02t-.39 1.02q-.39.48-1.11.48H20.44q-.72 0-1.11-.48-.39-.48-.39-1.02zm2.4 18.84q0-.54.39-1.02t1.11-.48h32.88q.72 0 1.11.48.39.48.39 1.02t-.39 1.02q-.39.48-1.11.48H22.84q-.72 0-1.11-.48-.39-.48-.39-1.02zm-5.4 20.94q0-.54.39-1.02t1.11-.48h43.68q.72 0 1.11.48.39.48.39 1.02t-.39 1.02q-.39.48-1.11.48H17.44q-.72 0-1.11-.48-.39-.48-.39-1.02zM84.22 28h-5.76v35.64q0 .72-.48 1.11-.48.39-1.02.39t-1.02-.39q-.48-.39-.48-1.11v-25.5q-2.04 5.64-5.22 11.76-.48.9-1.38.9-.18 0-.54-.12-.36-.12-.66-.51-.3-.39-.3-.87 0-.36.12-.54 2.76-5.34 4.65-10.26 1.89-4.92 3.33-10.44V28h-5.4q-.72 0-1.11-.48-.39-.48-.39-1.02t.39-1.02q.39-.48 1.11-.48h5.4V14.62q0-.72.48-1.11.48-.39 1.02-.39t1.02.39q.48.39.48 1.11V25h5.76q.72 0 1.11.48.39.48.39 1.02t-.39 1.02q-.39.48-1.11.48zm30.66 34.92q.66.42.66 1.26 0 .36-.24.84-.18.3-.54.54-.36.24-.78.24-.3 0-.66-.18-6.84-4.44-11.52-10.02-5.22 6.12-12.48 10.32-.42.24-.84.24-.78 0-1.26-.6-.36-.48-.36-.96 0-.72.66-1.14 7.14-4.38 12.3-10.38-4.74-6.54-7.86-15.9-.78 7.32-2.85 13.59-2.07 6.27-5.97 12.93-.48.9-1.32.9-.36 0-.66-.18-.9-.54-.9-1.38 0-.3.18-.66 3.96-6.9 5.97-12.99t2.67-12.66q.66-6.57.66-16.53h-4.92q-.72 0-1.11-.48-.39-.48-.39-1.02t.39-1.02q.39-.48 1.11-.48h19.26q2.28 0 3.33 1.08 1.05 1.08 1.05 2.82 0 1.02-.42 2.4l-2.88 8.7h2.58q1.98 0 2.94 1.11t.96 2.85q0 1.08-.24 1.98-.66 2.64-2.52 6.72-1.86 4.08-5.22 8.46 4.26 4.92 11.22 9.6zm-22.26-34.8q1.5 7.38 3.75 12.9 2.25 5.52 5.31 9.78 2.88-3.84 4.47-7.26 1.59-3.42 2.13-5.76.3-1.2.3-1.68t-.33-.69q-.33-.21-1.11-.21h-4.08q-.72 0-1.11-.48-.39-.48-.39-1.02 0-.48.24-.78l3.24-9.78q.36-1.2.36-1.62 0-.66-.51-.99-.51-.33-1.71-.33H92.74q0 2.94-.12 7.86v.06zm-7.08 15.66q-.48.36-1.02.36-.72 0-1.14-.6L79 37.6q-.36-.54-.36-.96 0-.72.6-1.14.48-.36 1.02-.36.72 0 1.14.6l4.44 5.94q.3.36.3.9 0 .72-.6 1.2zm80.34-19.8q.72 0 1.11.48.39.48.39 1.02t-.39 1.02q-.39.48-1.11.48h-20.04v13.98h5.94q4.56 0 6.78 2.52 2.22 2.52 2.22 5.94v8.1q0 3.42-2.22 5.94-2.22 2.52-6.78 2.52h-15.06q-4.56 0-6.78-2.52-2.22-2.52-2.22-5.94v-8.1q0-3.42 2.22-5.94 2.22-2.52 6.78-2.52h6.12V26.98h-20.16q-.72 0-1.11-.48-.39-.48-.39-1.02t.39-1.02q.39-.48 1.11-.48h20.16v-9.12q0-.72.48-1.11.48-.39 1.02-.39t1.02.39q.48.39.48 1.11v9.12h20.04zm-8.1 25.74q0-2.34-1.44-4.05t-5.16-1.71h-13.86q-3.72 0-5.16 1.71t-1.44 4.05v7.5q0 2.34 1.47 4.05t5.13 1.71h13.86q3.66 0 5.13-1.71 1.47-1.71 1.47-4.05v-7.5zm50.28-33.78q9 0 9 9.9v27.9q0 9.9-9 9.9h-22.68q-4.86 0-6.93-2.4-2.07-2.4-2.07-7.5v-27.9q0-5.1 2.07-7.5 2.07-2.4 6.93-2.4h22.68zm6 37.2v-26.7q0-3.9-1.38-5.7-1.38-1.8-5.22-1.8h-21.48q-3.84 0-5.22 1.8t-1.38 5.7v26.7q0 3.9 1.38 5.7 1.38 1.8 5.22 1.8h21.48q3.84 0 5.22-1.8t1.38-5.7zM191.86 34q-2.64 0-4.17-1.41-1.53-1.41-1.53-3.75v-.72q0-2.34 1.53-3.75 1.53-1.41 4.17-1.41h9.54q2.64 0 4.17 1.41 1.53 1.41 1.53 3.75v.72q0 2.34-1.53 3.75Q204.04 34 201.4 34h-9.54zm-2.7-5.58v.12q0 .9.84 1.68.84.78 2.46.78h8.34q1.62 0 2.46-.78.84-.78.84-1.68v-.12q0-.9-.84-1.68-.84-.78-2.46-.78h-8.34q-1.62 0-2.46.78-.84.78-.84 1.68zm-2.58 21.12q-.54 0-1.02-.42t-.48-1.14v-4.2q0-1.68.87-3.33.87-1.65 2.82-2.76 1.95-1.11 5.01-1.11h5.82q3.06 0 5.01 1.11 1.95 1.11 2.82 2.76.87 1.65.87 3.33v4.2q0 .72-.48 1.14-.48.42-1.02.42t-1.02-.42q-.48-.42-.48-1.14v-3.6q0-1.74-1.53-3.27T199 39.58h-4.62q-3.24 0-4.77 1.5-1.53 1.5-1.53 3.3v3.6q0 .72-.48 1.14-.48.42-1.02.42zm23.58 5.16q.78.36.78 1.2 0 .42-.18.78-.3.84-1.32.84-.12 0-.6-.12l-12.48-6.72q-3 4.68-12.12 7.2-.18.06-.48.06-.54 0-.93-.24t-.51-.66q-.12-.36-.12-.54 0-.96.9-1.38 6.36-1.8 9.18-4.32 2.82-2.52 2.82-6.36v-1.62q0-.72.48-1.11.48-.39 1.02-.39t1.02.39q.48.39.48 1.11v1.62q0 1.8-.48 3.54l12.54 6.72zm23.88-33.42h-.06q-1.98 3.48-4.98 7.2-.48.66-1.26.66-.54 0-.84-.24-.72-.48-.72-1.26 0-.36.3-.78 4.86-6 8.34-13.5.36-.84 1.38-.84.3 0 .66.12.84.48.84 1.32 0 .3-.18.66l-1.8 3.66h12.48q.72 0 1.11.48.39.48.39 1.02t-.39 1.02q-.39.48-1.11.48h-14.16zm36.84-3q.72 0 1.11.48.39.48.39 1.02t-.39 1.02q-.39.48-1.11.48h-16.2q-.78 1.5-3.18 5.7-.48.84-1.38.84-.36 0-.66-.18-.36-.12-.6-.48t-.24-.78q0-.3.18-.66 2.16-3.72 3.39-6.18 1.23-2.46 2.73-6.06.36-.84 1.32-.84.36 0 .72.12.78.42.78 1.32 0 .42-.12.66l-1.5 3.54h14.76zm-6.72 9.18q-.48.36-1.02.36t-1.08-.6l-2.34-3.18q-.36-.54-.36-.96 0-.72.66-1.14.48-.36 1.02-.36.72 0 1.08.6l2.34 3.18q.36.42.36.9 0 .78-.66 1.2zM238.6 22q.48-.36 1.08-.36.66 0 1.02.6l2.16 3.18q.3.48.3.84 0 .78-.72 1.26-.42.3-.96.3-.72 0-1.14-.66l-2.04-3.06q-.3-.48-.3-.96 0-.72.6-1.14zm-4.32 6.12l4.32 4.86q.36.36.36.96 0 .78-.48 1.14-.36.36-.96.36t-1.14-.54l-4.32-4.86q-.36-.36-.36-.96 0-.78.48-1.14.36-.36.96-.36t1.14.54zm24.48 1.92q4.74 0 7.32 2.58t2.58 6.42v19.02q0 3.66-1.35 5.19-1.35 1.53-2.85 1.83-.24.06-.84.18t-1.08.12q-.6 0-.99-.45t-.39-.99q0-.54.39-.96.39-.42 1.11-.54 1.5-.24 2.25-1.62.75-1.38.75-4.74V39.64q0-2.82-2.01-4.71-2.01-1.89-5.49-1.89h-15.12q-.72 0-1.11-.48-.39-.48-.39-1.02t.39-1.02q.39-.48 1.11-.48h15.72zM231.4 35.5q.54 0 1.02.39t.48 1.11v27.9q0 .72-.48 1.14-.48.42-1.02.42t-1.02-.42q-.48-.42-.48-1.14V37q0-.72.48-1.11.48-.39 1.02-.39zm19.14 3.36q4.38 0 6.39 2.34t2.01 6.96v2.22q0 4.62-2.01 6.96t-6.39 2.34h-2.64q-4.38 0-6.39-2.34t-2.01-6.96v-2.22q0-4.62 2.01-6.96t6.39-2.34h2.64zm-2.04 3q-3.24 0-4.56 1.35-1.32 1.35-1.44 4.53h13.44q-.12-3.18-1.44-4.53-1.32-1.35-4.56-1.35h-1.44zm1.44 14.82q3.24 0 4.56-1.38 1.32-1.38 1.44-4.56H242.5q.12 3.18 1.44 4.56 1.32 1.38 4.56 1.38h1.44zm75.12-3.54q.48.6.48 1.08 0 .42-.48 1.02-.42.42-1.02.42-.66 0-1.08-.48Q317.62 49 314.2 43t-5.46-12.84v23.16h7.8q.72 0 1.11.48.39.48.39 1.02t-.39 1.02q-.39.48-1.11.48h-7.8v8.88q0 .72-.48 1.11-.48.39-1.02.39t-1.02-.39q-.48-.39-.48-1.11v-8.88h-7.92q-.72 0-1.11-.48-.39-.48-.39-1.02t.39-1.02q.39-.48 1.11-.48h7.92V29.44q-1.98 7.02-5.49 13.29-3.51 6.27-9.03 12.87-.42.48-1.08.48-.6 0-1.02-.42-.48-.6-.48-1.02 0-.48.48-1.08 5.88-7.02 9-12.99 3.12-5.97 5.22-13.65h-10.5q-.72 0-1.11-.48-.39-.48-.39-1.02t.39-1.02q.39-.48 1.11-.48h12.9v-9.3q0-.72.48-1.11.48-.39 1.02-.39t1.02.39q.48.39.48 1.11v9.3h14.16q.72 0 1.11.48.39.48.39 1.02t-.39 1.02q-.39.48-1.11.48h-12q2.16 7.86 5.25 13.71 3.09 5.85 8.91 12.51zm-37.8-24.84q.54.42.54 1.14V65.2q0 .72-.48 1.11-.48.39-1.02.39t-1.02-.39q-.48-.39-.48-1.11V34q-2.52 5.34-4.68 8.46-.42.6-1.08.6-.42 0-.9-.24-.3-.12-.51-.54-.21-.42-.21-.84t.24-.72q3.36-4.86 6.48-12.09 3.12-7.23 4.62-13.59.18-.72.66-.93.48-.21 1.02-.09t.9.63q.36.51.18 1.17-1.74 6.36-4.26 12.48z"/></svg>