<svg viewBox="0 0 387 80" xmlns="http://www.w3.org/2000/svg"><path d="M22.88 18.12q5.52-.24 8.58-.42l17.4-.78q.78-.06 1.35-.27.57-.21 1.11-.51.54-.3.84-.48 1.56-.84 2.52-.84.66 0 1.38.36l1.38.54q1.5.6 2.25 1.11.75.51.75 1.35 0 1.14-.87 1.5-.87.36-2.43.36h-1.86l-6.54.18q-7.98.18-13.26.51-5.28.33-10.5 1.29-.6.12-1.26 0-2.04-.36-3.51-1.05-1.47-.69-1.47-1.77 0-1.38 1.38-1.38.06 0 1.32.18 1.14.24 1.44.12zM46.46 37.5q2.64 0 4.26-1.14 1.38-.9 2.46-.9.48 0 1.02.18.36.18 1.2.42 1.74.6 2.64 1.17.9.57.9 1.59 0 1.08-.63 1.47-.63.39-1.71.39l-1.5-.06q-.42-.06-1.26-.06-4.8.12-7.32.12-6.9.12-10.95.33-4.05.21-8.25.87-.24.06-.78.06-.9 0-1.68-.3-.36-.12-1.53-.54-1.17-.42-1.77-.96-.6-.54-.48-1.2.18-1.08 1.5-1.08.42 0 1.17.12t1.29.12q2.1 0 5.22-.12 3.12-.12 6.24-.18 2.34-.06 5.04-.18t4.92-.12zm7.02 20.52q2.34-.12 3.54-.96 1.68-1.14 3.24-1.14 1.2 0 2.37.48 1.17.48 2.61 1.38 1.44.78 1.44 1.62 0 .42-.12.6-.3.72-.99.93-.69.21-1.77.21-5.1.18-10.14.36-5.04.18-10.14.3l-4.68.12q-5.34.12-8.85.33-3.51.21-7.05.87-.78.18-1.62.18-.66 0-1.32-.18-2.1-.48-3.39-1.11-1.29-.63-1.29-1.77 0-1.32 1.98-1.32.6 0 1.8.12l1.5.06q3.66 0 13.26-.36t12.12-.42l7.5-.3zm36.18-31.38q.18.06.54.06.48 0 .81-.21.33-.21.39-.27 1.2-.78 2.1-.78.48 0 .96.18 1.62.66 2.49 1.14.87.48 1.41 1.26.18.24.18.48 0 .66-1.44.9l-2.04.12q-1.44 0-3 .18-.3.06-.54.03-.24-.03-.42-.03-1.44 0-1.5.96l-.06 1.08q0 1.38 1.44 1.98 3.6 1.56 4.74 3.96.42.96.42 1.38 0 1.02-1.32 1.98-.66.48-1.08.48-.48 0-1.08-.78l-2.64-3.6q-.48.78-.48 1.5v19.68q0 1.62-.24 4.86-.12 1.62-1.08 2.94-.84 1.2-2.04 1.2-.78 0-1.02-.36t-.48-1.08q-.54-1.98-3.3-3.42-.3-.18-1.02-.54-.72-.36-1.17-.81-.45-.45-.51-1.05.66-.18 1.14-.18.72 0 1.53.24t1.17.36q1.38.3 1.92.3.84 0 1.14-.48.3-.48.36-1.74V36.84q-.6.42-.87.87t-.45.87q-.18.42-.3.66-1.68 3.12-3.09 5.43-1.41 2.31-3.09 4.47-.9 1.08-1.8 1.92-.72.72-1.26.72-.24 0-.6-.18-.42-.24-.42-.6 0-.18.21-.51t.27-.51q.36-.66.78-1.14 4.68-6.78 8.82-16.68.12-.24.21-.54.09-.3.21-.54.06-.12.06-.3 0-.54-.9-.36-2.16.48-3.3.48-2.52 0-4.26-1.08-1.2-.72-.84-1.44.18-.42.57-.48.39-.06 1.17-.06.78.06 2.4.06 2.16 0 4.38-.18 1.14-.12 1.5-.24.36-.12.45-.42.09-.3.15-1.26v-6.3q0-4.2-2.16-7.08-.54-.9-.6-1.2-.06-.12-.06-.42 0-.78 1.2-.6 3.24.72 5.58 2.52.6.42.6 1.14 0 .36-.24 1.08-.72 2.28-.72 5.7l.06 2.64q.12 2.16.06 3.36zm11.4-9.06q-1.08.36-1.92.36-1.08 0-2.04-.45t-1.98-1.29q-.54-.36-.54-.72 0-.48 1.14-.66 3.66-.42 7.5-.72 2.46-.24 3.54-.3l3.48-.3q.54-.06 1.77-.18t2.19-.42q.96-.3 1.68-.96.42-.42 1.2-.42.42 0 1.14.24.48.18 1.32.54.84.36 1.38.66.48.3.78.57.3.27.3.51 0 .42-.96 1.02-.9.54-1.32 1.26-.42.72-.54 1.74-.48 3.06-1.38 7.8-.18.84-.6 3.12 0 .24-.12.69-.12.45.06.81.36.12.93-.15.57-.27.87-.27.36 0 .54.12l1.02.6q2.28 1.2 3.12 2.04.18.24.18.42 0 .48-.78.9-.9.42-1.2 1.08-.3.66-.48 1.74-.6 4.56-1.71 8.34-1.11 3.78-3.15 7.2-.24.42-.24.84 0 .6.54 1.44 1.98 2.94 3.99 5.07 2.01 2.13 4.71 3.75l2.1 1.44q.6.3.6.78 0 .48-.33.6t-.99.12q-5.4 0-8.1-.42-2.04-.24-2.94-1.8-.54-1.08-2.58-4.62-.06-.12-.27-.6-.21-.48-.81-.78-4.32 3.6-6.78 5.22-3 1.98-5.58 2.88-1.08.36-1.62.48l-.75.15q-.45.09-.75.09-.72 0-1.02-.48-.24-.42.03-.69.27-.27.72-.45.45-.18.63-.3 7.14-3.96 12.24-9.9.36-.36.66-.81.3-.45.3-.87 0-.36-.12-.54-3-6.42-6.42-11.34l-.78 4.38q-.84 4.74-2.7 8.79-1.86 4.05-5.1 7.59-1.74 1.98-3.24 2.7-.72.3-1.08.3-.42 0-.72-.24-.36-.24-.36-.6 0-.3.36-.78l3.6-4.8q2.46-3.3 3.78-7.08 1.32-3.78 1.92-8.22.72-5.64 1.08-11.49.36-5.85.72-13.59 0-.06-.12-1.14zm12.3 31.44q.78-1.14 1.2-2.28.42-1.14.9-2.94 1.02-3.3 1.02-7.2 0-1.14-.21-1.59-.21-.45-.87-.45-.48 0-1.2.18-.66.18-1.56.48-.84.24-1.32.24-.78 0-1.62-.48-.24-.18-.69-.39-.45-.21-.72-.48-.27-.27-.27-.57 0-.66.54-.84.54-.18 1.17-.15.63.03.81.03 1.14 0 1.56-.45.42-.45.6-1.41.6-3.12.96-4.68.66-3.06 1.02-5.1.06-.36.3-1.38.3-1.26.42-2.1.12-.84 0-1.74-1.68.06-3.45.3-1.77.24-2.31.3l-2.46.3q-1.14.12-1.5.24-.36.12-.45.42-.09.3-.15 1.26-.36 11.16-.9 16.74l-.06.72q0 .6.36.96 1.32 1.38 2.37 2.85 1.05 1.47 2.49 3.75 1.68 2.52 2.58 3.78.18.24.51.78t.93.9zm46.14-9.36h-.06v6.54q0 .48-.18.72t-.78.3q-.78 0-1.32.06t-.9.12q-1.8.24-2.7.24-2.34 0-3.96-1.08-1.08-.66-3-1.14-.3-.06-.9-.3-.6-.24-1.02-.24-.54 0-.96.42-.42.36-.42.72 0 .48.45.93l.63.63q.24.24.78.9t.87 1.26q.33.6.39 1.2l.36 3.6q.54 4.32.54 7.14 0 1.8-.12 2.7-.18 1.44.84 2.46.96.96 1.8.96.84 0 1.44-.96.42-.78 1.08-.99.66-.21 1.8-.27l10.29-.48 10.23-.48q.24 0 .9-.03t1.14-.21q.48-.18.72-.54.18-.36.18-.6 0-.72-1.14-1.74-.6-.6-.96-.84-.84-.6-.66-1.56l.78-7.26q.06-1.26 1.5-2.28 1.44-1.08 1.44-1.62 0-.36-.36-.72t-1.2-.96q-1.08-.66-2.1-1.08-1.26-.48-1.98-.48-1.02 0-1.98.9-1.26 1.02-2.94 1.08-.84 0-1.47.06t-1.05.12l-1.08.06q-.66 0-.84-.27-.18-.27-.18-1.23V34.14q.06-1.02.18-1.38.12-.36.57-.48.45-.12 1.77-.18 2.16-.06 6.78-.3 7.2-.36 10.92-.36 1.32 0 1.92-.12 1.8-.36 1.8-1.32 0-.6-.84-1.26-.48-.42-1.2-.81-.72-.39-1.02-.51-1.5-.84-2.82-.84-1.44 0-2.76.96-.48.3-1.05.57-.57.27-1.17.33l-11.52.54h-.3q-.66 0-.96-.24-.3-.24-.3-.84l.12-8.16q.12-1.86 1.14-2.88.54-.54.54-1.14 0-.72-1.14-1.56-2.34-1.62-5.52-2.58-.24-.06-.72-.21t-.84-.15q-.6 0-1.02.42-.18.18-.18.42 0 .3.33.69.33.39.45.69l.6.72q2.1 2.34 2.28 5.58.06 1.38.06 4.08v4.08q0 .78-.39 1.14-.39.36-1.35.36-3.54.06-7.02.36-5.88.36-8.76.36-1.2 0-3.6-.12h-.6q-3.12 0-3.12.96 0 .42.72 1.14 2.28 1.98 5.28 1.98 1.32 0 2.64-.36 2.04-.54 4.2-.72 2.16-.18 5.04-.24 2.94 0 5.28-.24h.42q1.26 0 1.26 1.2v5.94zm12.24 9.78l-.42 3.12-.96 7.5q-.12.78-.51 1.11-.39.33-1.35.39l-4.86.3q-3.24.24-9.72.6l-1.02.06q-.78 0-.96-.27-.18-.27-.3-1.41-.12-1.8-.24-2.76-.12-1.98-.48-5.82-.12-.84.27-1.26.39-.42 1.47-.48l17.94-1.26q.24 0 1.14.18zm62.76-27.12q-.12.66-.42 1.17-.3.51-.63.96-.33.45-.45.57-1.08 1.56-1.38 2.4-.12.36-.12.54 0 .3.3.48.24.24.6.24.3 0 .66-.24 4.56-2.94 11.22-4.98 1.14-.36 1.14-.96t-.84-1.32q-1.14-.9-2.64-1.59-1.5-.69-1.74-.81-.84-.42-1.86-.42-1.08 0-1.86.48-1.14.66-3.42.78-1.44.12-2.1.12-2.88.24-4.2.24-.72 0-1.44.18-.24.06-.6.12t-.84.06q-1.02 0-1.38-.6-.36-.48-.36-1.44 0-.42.12-1.26l.06-1.2q0-.42.39-.87t.51-.69q.3-.42.3-.78 0-.48-.6-.84-3.36-1.92-6.48-1.98-1.32 0-1.32.66 0 .3.36.78.36.42 1.32 1.14 1.8 1.32 1.68 3.36-.06.42-.06 1.32l.06 1.5q0 .6-.42.87t-1.26.33l-12.06.72q-.78.06-1.23-.15-.45-.21-.75-.75-.66-1.44-1.8-1.92-.42-.24-.84-.24-.78 0-.9.9 0 .18.09.45t.15.39q.18 1.14.18 2.28 0 4.26-3.06 7.08-.96.96-.84 2.46.12 1.26.45 1.95t1.47.99q.18.06.48.06.78 0 1.5-.63t1.2-1.71q1.14-2.46 1.74-6 .24-1.38.72-1.77.48-.39 2.16-.69.66-.12 1.98-.12 4.02-.3 12.06-.78l15-.84zm-11.52 23.82q.72.24 1.08.57.36.33.57.63.21.3.33.42l3.18 3.9q1.44 1.8 4.44 5.4.72.84 1.08 1.32 1.32 1.62 2.04 2.16t1.89.66q1.17.12 4.89.18.48 0 1.02.09t1.08.09q1.44 0 1.44-1.02 0-.48-.48-.81-.48-.33-1.11-.6-.63-.27-.93-.45-4.92-2.76-8.4-6.18l-9.84-9.36q-.18-.18-.51-.45t-.48-.51q-.15-.24-.09-.6.96-.12 1.38-.12 8.88-.6 13.74-.84.36 0 1.44-.06t1.92-.24q1.26-.36 1.26-1.02 0-.42-.6-.96-1.8-1.44-3.84-2.28-.78-.3-1.44-.3-1.02 0-1.98.6-.3.18-1.02.72t-1.5.6q-4.74.42-9.54.72h-.18q-.9 0-.9-.72l-.06-3.12q0-2.7.66-4.56.42-1.08.42-1.74 0-.6-.45-1.05-.45-.45-1.59-1.11-2.04-1.08-4.02-1.56-.18-.06-.45-.12t-.63-.06q-.48 0-.78.3-.3.3-.3.48 0 .3.24.57.24.27.3.33 1.26 1.8 1.92 3.24.66 1.44.72 3v2.52l.06 2.7q0 .78-.45 1.08-.45.3-1.53.36-2.1.06-3.63.18-1.53.12-2.55.18-5.04.42-8.64.42-2.1 0-3.12-.06-.78 0-1.14.06-1.32.06-1.32.84 0 .42.42.84.54.66 1.92 1.2 2.34.84 4.14.84.96 0 2.16-.3 1.5-.42 2.97-.57 1.47-.15 3.69-.27 2.28-.12 3.36-.24l.78-.06q.66 0 1.02.36l-.54.96q-6.66 10.08-16.68 15.9-2.28 1.32-2.88 1.74-.96.6-.6 1.14.3.48.9.48.3 0 .78-.12 1.2-.3 3.24-1.38 9.24-4.92 15.6-11.7.12-.12.6-.69t1.62-1.11v5.52q0 3.42-.06 5.16-.06 1.56-.27 2.07-.21.51-1.05.51-.66 0-2.7-.48-.36-.12-1.05-.36-.69-.24-1.17-.24-.66 0-.96.48-.36.54.09.93.45.39 1.08.72.63.33.87.45 1.86.96 2.91 1.98t1.23 2.46q.12 1.26 1.5 1.26 1.02 0 1.68-.78 1.32-1.44 1.62-3.96.24-2.28.24-6.84-.06-3.36-.06-10.32zm33.3-20.04q0-.66.33-1.11.33-.45.75-.81.42-.36.66-.54 4.2-3.84 6.54-8.16.12-.18.45-.81.33-.63.51-1.2t.18-1.05q0-.66-.24-1.14-.18-.6.06-.9.24-.3.78-.3.18 0 .78.12.96.24 1.77.69.81.45 1.95 1.23.6.48.6.9 0 .36-.48.84l-.51.51q-.39.39-.45 1.05l1.56.06q2.58 0 4.26-.72 1.26-.54 2.28-.54 1.38 0 3.06 1.08.24.18.48.33.24.15.48.33 1.44-1.44 1.44-3.12 0-.3-.12-1.02-.24-1.32.78-1.32.48 0 1.14.24 2.22.72 3.42 1.92.36.36.36.72t-.6 1.05q-.6.69-.54 1.17 1.62.24 3.54.24 2.34 0 4.38-.42.78-.18 1.35-.39.57-.21.99-.33 1.44-.42 2.58-.42 1.14 0 2.07.48.93.48 1.89 1.5.54.54.54.96 0 .72-1.5.78h-6.78q-1.14 0-1.68.24 0 .36.48 1.2.36.48.48.81.12.33-.12.63-.24.42-.72.54-.48.12-1.26.18-.96.12-1.26.24-1.26.42-3 1.44l-1.26.72q-.12.06-.72.48t-1.2.42q-.36 0-.78-.3-.36-.3-.36-.6 0-.36.57-.75t.81-.57l1.02-.9q2.1-1.86 3-3.36l-5.34.3q-.42.06-.69.24-.27.18-.48.39l-.33.33q-2.1 1.86-3.36 2.58-.96.6-1.71.9-.75.3-1.77.3-.36 0-1.08-.12.6-.72 1.92-2.04 1.2-1.2 1.86-1.98.66-.78 1.08-1.74-.6-.06-1.74-.06-2.16 0-5.34.42-.66.06-1.86.18-1.2.12-2.16.18.54.6 1.86 1.2.84.36 1.14.6 1.44 1.14 1.44 2.16 0 .96-1.38 2.04-.9.6-1.32.6-.6 0-1.32-.9-1.92-2.52-2.82-3.78-.36-.48-.84-.54l-1.74 1.62q-2.28 2.16-4.14 3.33-1.86 1.17-4.62 1.47zm8.7-2.16q3.78 1.02 6.18 2.7.96.72.96 2.16 0 1.14-.54 2.13t-1.44 1.35q-.36.12-.54.12-.3 0-.54-.15-.24-.15-.24-.39-.06-1.38-.66-2.55-.6-1.17-1.86-2.79-1.26-1.74-1.44-2.04v-.06l.12-.48zm33.12 21.24V32.64q0-1.2-.06-1.8-.12-1.32-.84-1.8t-2.4-.42q-2.22.12-6.66.48l-4.26.3-4.5.3q-1.2.12-2.07-.3-.87-.42-1.65-1.32-.24-.3-.24-.6 0-.6 1.02-.6 3.66.06 9.3-.48.84-.06 2.16-.18 1.32-.12 3.12-.18 3.96-.12 6.06-.84.72-.18 1.26-.18.96 0 1.68.39t1.68 1.17q1.38 1.14 1.38 2.1 0 .72-.66 1.38-.48.54-.48 1.5 0 8.22.18 16.44.12 8.16.12 12.24 0 1.02-.12 2.31t-.18 1.83q-.06 1.26-1.02 2.28-.72.9-1.62.9-.9 0-1.44-1.02-.84-1.44-2.76-2.76l-1.5-1.02q-.6-.48-.81-.78-.21-.3.09-.72.24-.3.72-.3.36 0 .63.06t.45.12q.36.12.54.12 1.44.24 1.62.24.6 0 .84-.39t.36-1.35q.18-1.8.18-5.46l-.06-7.32v-1.8h-.06zm-33.48 18.24q0 1.62-.66 2.94-.48 1.02-1.44 1.02-.72 0-1.38-.6-2.1-1.86-2.1-3.6 0-.78.48-1.62.84-1.44 1.11-2.97.27-1.53.27-3.51l-.06-9.9.06-9.9q0-1.74-.24-2.91-.24-1.17-1.14-2.19-.72-.72-.3-1.26.24-.24.6-.3t.66-.03q.3.03.54.03 1.92.24 3.66 1.56 1.08.78 1.08 1.38 0 .42-.6 1.02-.6.6-.78 1.35-.18.75-.18 1.83 0 15.9.06 23.82 0 1.08.36 3.84zm6.9-8.28q.36-2.52.36-6.36l.06-6.36q0-2.94-1.68-4.86-.6-.6-.6-1.08 0-.3.24-.54.3-.3.84-.3.3 0 1.5.3.12 0 .48.18 1.98 1.14 4.38 1.14.72 0 3.54-.3 1.86-.24 2.58-.3.36-.06.66-.3.3-.24.48-.36 1.02-.66 2.52-.66 1.2 0 2.25.48t1.59 1.38q.24.3.24.66 0 .36-.24.6-.54.54-.69 1.17-.15.63-.15 1.53 0 3.48-.06 6.09t-.12 4.41l-.12 3.6q0 .18-.06.96t-.3 1.44q-.36.96-1.32.96-.66 0-1.26-.42-1.08-.6-1.92-1.86-.42-.72-1.08-.93-.66-.21-1.68-.09-2.34.36-4.74.54-1.02.12-1.59.42-.57.3-.63 1.08-.12 1.32-1.5 1.32-.48 0-.78-.24-.3-.24-.48-.54-.18-.3-.24-.42-.66-1.02-.48-2.34zm14.58-16.2q-3.84.3-6.42.6-2.04.24-2.88.42-.84.18-1.2.57-.36.39-.36 1.29 0 .72.18 1.98.06.06.06.24v.12q0 .42.39.66.39.24.99.24 2.04 0 3.15-.09 1.11-.09 2.07-.51 1.2-.48 2.52-.48.42 0 1.5.12v-5.16zm0 13.26v-4.08q0-.72-.39-.99t-1.41-.21q-2.46.3-7.5.78-1.38.12-1.38 1.02.06.84.03 1.47t-.03 1.05v1.2q0 .42.24.66.24.24.72.18.66-.12 1.17-.15.51-.03.81-.03.24 0 1.11-.09.87-.09 1.62-.24.75-.15 1.29-.45.84-.42 1.86-.42.96 0 1.86.3zm36.18-20.28q.48.96.63 1.8.15.84.15 1.86v20.46q0 3-1.32 4.92-.78 1.14-.78 2.22 0 1.8 2.1 3.9.78.78 1.56.78 1.08 0 1.62-1.14.72-1.32.6-3.48-.36-5.94-.36-11.88l.06-11.82V36.6q0-1.26.24-2.16.24-.9 1.02-1.62.42-.42.42-.78 0-.42-.66-.96-1.2-.96-1.92-1.32-.72-.3-.72-.78 0-.42.42-.84 3.06-3.72 5.94-8.76.78-1.44 2.22-1.86 1.44-.48 1.44-1.08 0-.42-.48-1.08-1.5-2.16-5.1-4.08-.42-.3-.9-.3-.36 0-.6.18-.42.18-.42.72 0 .3.06.48.36 1.14.36 2.22 0 1.38-.45 2.7-.45 1.32-1.23 3-1.68 3.42-4.11 6.57-2.43 3.15-6.27 7.53-.24.3-.72.87-.48.57-.78.99-.18.24-.18.48 0 .48.66.84.36.18.72.18.54 0 .84-.24 1.68-1.38 1.92-1.62l4.02-3.96zm35.34 22.86q-.6-.84-1.17-1.5t-.81-.78q-1.02-.6-2.1-.6t-1.98.72q-.36.3-1.68.84-.48.12-.72.12-.9 0-.9-1.02l.06-16.5q0-.06.18-.18t.36-.3q4.56 8.82 8.7 17.82 1.08 2.28 2.82 3 1.2.42 2.7.42 1.56 0 3.36-.3 1.32-.18 1.32-.66 0-.3-.36-.84-1.32-1.74-2.76-3.06-4.86-4.86-8.76-11.04l-5.76-9.36-1.44-2.28 12.36-.72q.54 0 1.56-.03t1.8-.15q1.62-.3 1.62-1.02 0-.54-.78-1.14-.9-.72-1.98-1.26-1.56-.96-2.58-.96-.96 0-2.64.96-.18.06-.9.48t-1.62.48q-2.76.06-5.58.36-1.68.18-1.68-1.08 0-3.36.06-5.04.06-1.62.33-2.64t1.23-1.92q.42-.42.42-.84t-.42-.78q-2.64-2.4-5.94-2.7-.24-.06-.66-.06-1.02 0-1.02.66 0 .42.36.96.06.12.51.78t.69 1.44q.54 1.68.69 3.39.15 1.71.15 3.99v3.12q0 1.02-1.38 1.14-.6 0-1.68.12-5.28.36-7.86.36-1.68 0-2.52-.06h-.6q-.84 0-1.14.48-.12.24-.12.42 0 .54.9 1.08 1.26.84 2.16 1.02 1.44.36 2.94.36 1.56 0 3.12-.36 1.8-.48 3.54-.48.54 0 1.62.12-.12.66-.18.78-3.3 6.78-6.54 12.09t-7.38 9.99q-1.5 1.74-1.92 3.42l-.06.48q0 .36.3.54.36.12.48.12.3 0 1.02-.36.96-.48 2.28-1.92 6.24-6.66 11.28-15.48.06-.18.3-.63t.57-.9q.33-.45.87-.81v15.78q0 .54-.36.75-.36.21-1.08.27-2.4.24-5.46.24l-2.7-.06h-.54q-.84 0-1.14.48-.06.12-.06.36 0 .66.96 1.08 1.98 1.08 4.2 1.08 1.2 0 2.22-.24.3-.06.99-.27.69-.21 1.29-.21.6 0 1.38.3-.36 1.68-.6 2.52-.12.42-.48 1.59-.36 1.17-.36 2.19 0 2.58 1.86 4.2.66.6 1.44.6 1.08 0 1.5-1.14.36-.9.36-1.98.12-2.76.12-4.26l.06-2.1q0-1.2.15-1.59.15-.39.66-.51t2.07-.18h2.28q1.5 0 2.22-.06.42-.06.96-.06t1.02-.06q.3-.06.3-.3 0-.36-.3-.72z"/></svg>