<svg viewBox="0 0 387 80" xmlns="http://www.w3.org/2000/svg"><path d="M18.86 23.54q-.84 0-1.32-.45-.48-.45-.48-1.23t.48-1.2q.48-.42 1.32-.42h44.7q.84 0 1.32.42.48.42.48 1.2t-.48 1.23q-.48.45-1.32.45h-44.7zm2.52 18.78q-.84 0-1.32-.42-.48-.42-.48-1.2t.48-1.2q.48-.42 1.32-.42h39.66q.84 0 1.32.42.48.42.48 1.2t-.48 1.2q-.48.42-1.32.42H21.38zm-4.2 19.62q-.84 0-1.32-.45-.48-.45-.48-1.23t.48-1.2q.48-.42 1.32-.42h48.06q.84 0 1.32.42.48.42.48 1.2t-.48 1.23q-.48.45-1.32.45H17.18zm60-35.22q-.84 0-1.32-.45-.48-.45-.48-1.29 0-.78.48-1.23.48-.45 1.32-.45h4.32q.84 0 1.32-.48.48-.48.48-1.32v-5.58q0-.84.48-1.32.48-.48 1.32-.48h.72q.84 0 1.32.48.48.48.48 1.32v47.34q0 .84-.48 1.32-.48.48-1.32.48h-.72q-.84 0-1.32-.48-.48-.48-.48-1.32V28.52q0-.84-.48-1.32-.48-.48-1.32-.48h-4.32zm47.88 38.34q-2.34 0-3.78-.72-1.62-.72-2.82-2.82l-.96-1.62q-.6-.96-1.26-.96-.72 0-1.26 1.02l-.78 1.56q-.72 1.38-1.62 2.16-.78.66-1.86.96-1.14.36-2.88.36h-.66q-.84 0-1.32-.45-.48-.45-.48-1.23t.48-1.23q.48-.45 1.32-.45h.3q2.28.3 3.3-2.04l2.34-4.62q.3-.72.3-1.2 0-.66-.36-1.26l-5.7-9.6q-.36-.54-.36-1.02 0-.54.36-.84.36-.3 1.02-.3h.78q1.5 0 2.16 1.2l3.24 5.52q.54.9 1.26.9t1.26-.96l4.32-8.4q.54-1.02.36-1.5-.24-.42-1.26-.42h-7.74q-.84 0-1.32-.45-.48-.45-.48-1.23V35q0-1.2.6-2.22l6.9-12.06q.18-.3-.24-.36H98.36q-.84 0-1.32-.45-.48-.45-.48-1.23t.48-1.2q.48-.42 1.32-.42h22.5q1.92 0 2.76 1.2.24.6.24.96 0 .96-.72 2.04l-5.94 10.38q-.3.6-.3.96 0 .54.42.87.42.33 1.14.33h3.66q2.46 0 3.54 1.44.48.84.48 1.8 0 1.14-.72 2.7l-6.54 12.72q-.3.72-.3 1.2 0 .6.36 1.26l2.94 4.98q1.08 1.86 3.78 1.8 1.38 0 1.38 1.68 0 .78-.48 1.23-.48.45-1.32.45h-.18zm-28.14 0q-.78 0-1.2-.45-.42-.45-.42-1.23t.48-1.23q.48-.45 1.32-.45h.96q1.92-.12 1.98-1.92V24.2q0-.84.48-1.32.48-.48 1.32-.48h.84q.84 0 1.32.48.48.48.48 1.32v35.4q.12 3.06-1.56 4.26-1.56 1.2-4.38 1.2h-1.62zm-5.4-38.34q-.84 0-1.32-.45-.48-.45-.48-1.29 0-.78.48-1.23.48-.45 1.32-.45h2.16q.84 0 1.32.45.48.45.48 1.23 0 .84-.48 1.29-.48.45-1.32.45h-2.16zM75.68 60.26q-.42 0-.69-.45-.27-.45-.27-1.29 0-.84.36-1.29.36-.45 1.02-.45h.12q.24 0 .33-.21.09-.21.03-.81V32.54q0-.84.48-1.32.48-.48 1.32-.48h.48q.84 0 1.32.48.48.48.48 1.32V57.2q0 1.02-.3 1.53t-1.14.99q-.3.24-1.02.39-.72.15-1.56.15h-.96zm18.66-1.98q-.84 0-1.68-.21t-1.2-.51q-.66-.6-.9-1.08-.24-.48-.24-1.32V32.54q0-.84.48-1.32.48-.48 1.32-.48h.42q.84 0 1.32.48.48.48.48 1.32V53.6q0 .66.12.9t.42.24q1.62 0 1.62 1.74 0 .84-.48 1.32-.48.48-1.32.48h-.36zm58.38-27.72q-.84 0-1.32-.45-.48-.45-.48-1.23t.48-1.2q.48-.42 1.32-.42h2.64q.84 0 1.32-.48.48-.48.48-1.32v-7.8q0-.84.48-1.32.48-.48 1.32-.48h.72q.84 0 1.32.48.48.48.48 1.32v22.92q0 1.5 1.68 1.86 1.2.36 1.98.96 1.32 1.14 1.32 3.6v16.26q0 .84-.48 1.32-.48.48-1.32.48h-10.74q-.84 0-1.32-.48-.48-.48-.48-1.32V49.34q0-.84.48-1.32.48-.48 1.32-.48h.3q.84 0 1.32.48.48.48.48 1.32v10.68q0 .84.48 1.32.48.48 1.32.48h2.94q.84 0 1.32-.48.48-.48.48-1.32V47.36q-.06-1.74-2.34-1.86h-6.3q-.84 0-1.32-.42-.48-.42-.48-1.2t.48-1.2q.48-.42 1.32-.42h1.44q.84 0 1.32-.48.48-.48.48-1.32v-8.1q0-.84-.48-1.32-.48-.48-1.32-.48h-2.64zm16.8 34.5q-1.2 0-1.2-1.62 0-1.68 1.32-1.68 1.44 0 1.44-1.38v-36.3q0-.84.48-1.32.48-.48 1.32-.48h.6q.84 0 1.32.48.48.48.48 1.32v5.7q0 .84.48 1.32.48.48 1.32.48h3q.84 0 1.32-.48.48-.48.48-1.32v-6.66q0-2.88-3.12-2.88h-5.88q-.84 0-1.32-.42-.48-.42-.48-1.2 0-.72.48-1.14.48-.42 1.32-.42h6.54q2.94 0 4.44.84 2.1 1.2 2.1 4.56v40.8q0 .84-.48 1.32-.48.48-1.32.48h-4.5q-.84 0-1.32-.42-.48-.42-.48-1.2t.48-1.2q.48-.42 1.32-.42h.42q.84 0 1.32-.48.48-.48.48-1.32V50.6q0-.84-.48-1.32-.48-.48-1.32-.48h-3q-.84 0-1.32.48-.48.48-.48 1.32v10.14q0 2.28-1.08 3.24-1.08 1.08-3.48 1.08h-1.2zm-32.28-43.62q-.84 0-1.32-.45-.48-.45-.48-1.23t.48-1.2q.48-.42 1.32-.42h10.56q.84 0 1.32.42.48.42.48 1.2t-.48 1.23q-.48.45-1.32.45h-10.56zm.54 19.02q-.84 0-1.32-.45-.48-.45-.48-1.23t.48-1.2q.48-.42 1.32-.42h.78q.84 0 1.32-.48.48-.48.48-1.32V25.28q0-.84.48-1.32.48-.48 1.32-.48h.6q.84 0 1.32.48.48.48.48 1.32v10.08q0 .84.48 1.32.48.48 1.32.48h.84q.84 0 1.32.42.48.42.48 1.2t-.48 1.23q-.48.45-1.32.45h-.84q-.84 0-1.32.48-.48.48-.48 1.32v13.92q0 1.56 1.32 1.56.48 0 .72-.12l.96-.3q.54-.18.9-.18 1.14 0 1.14 1.08v.12q0 1.5-1.44 2.04l-10.74 3.78q-.54.18-.96.18-1.08 0-1.08-1.08v-.12q0-1.5 1.44-2.04l2.1-.72q1.44-.54 1.44-2.1V42.26q0-.84-.48-1.32-.48-.48-1.32-.48h-.78zm27.54-9.9q-.84 0-1.32-.45-.48-.45-.48-1.23t.48-1.2q.48-.42 1.32-.42h.66q.84 0 1.32.42.48.42.48 1.2t-.48 1.23q-.48.45-1.32.45h-.66zm11.76 4.32q-.84 0-1.32.48-.48.48-.48 1.32v7.02q0 .84.48 1.32.48.48 1.32.48h3q.84 0 1.32-.48.48-.48.48-1.32v-7.02q0-.84-.48-1.32-.48-.48-1.32-.48h-3zm42.48-7.68q-2.34.06-3.6-.78-1.2-.9-1.68-2.88l-1.14-5.7q-.06-.18-.06-.48 0-.66.45-1.08.45-.42 1.23-.42h.84q1.68 0 1.92 1.62l.96 4.86q.3 1.62 1.98 1.62h.6q.84 0 1.32.42.48.42.48 1.2t-.48 1.2q-.48.42-1.32.42h-1.5zm6.6-2.1q-.84 0-1.32-.42-.48-.42-.48-1.2t.48-1.2q.48-.42 1.32-.42h1.86q1.62 0 2.04-1.5l.9-3q.42-1.5 1.98-1.5h.36q.78 0 1.2.36.42.36.42 1.02 0 .18-.12.66l-.6 1.92q-.12.48-.12.66 0 .66.42 1.02t1.2.36h9.24q.84 0 1.32.42.48.42.48 1.2t-.48 1.2q-.48.42-1.32.42H234.2q-1.56 0-1.98 1.5l-2.28 7.68q-.12.48-.12.66 0 .66.42 1.02t1.2.36h2.64q.84 0 1.32-.48.48-.48.48-1.32V29.9q0-.84.48-1.32.48-.48 1.32-.48h.84q.84 0 1.32.48.48.48.48 1.32v14.52q0 .84.48 1.32.48.48 1.32.48h3.12q.84 0 1.32.42.48.42.48 1.2t-.48 1.2q-.48.42-1.32.42h-3.12q-.84 0-1.32.48-.48.48-.48 1.32v6.54q0 .84-.48 1.32-.48.48-1.32.48h-.84q-.84 0-1.32-.48-.48-.48-.48-1.32v-6.54q0-.84-.48-1.32-.48-.48-1.32-.48h-7.74q-.84 0-1.32-.42-.48-.42-.48-1.2t.48-1.2q.48-.42 1.32-.42h7.74q.84 0 1.32-.48.48-.48.48-1.32v-3.06q0-.84-.48-1.32-.48-.48-1.32-.48h-6.96q-.84 0-1.32-.42-.48-.42-.48-1.2v-.48q0-1.2.3-2.22l2.4-8.1q.12-.48.12-.66 0-.66-.42-1.02t-1.2-.36h-.36zm-28.86-3.72q-.84 0-1.32-.42-.48-.42-.48-1.2t.48-1.2q.48-.42 1.32-.42h11.34q.84 0 1.32.42.48.42.48 1.2t-.48 1.2q-.48.42-1.32.42H197.3zm.54 19.02q-.84 0-1.32-.42-.48-.42-.48-1.2t.48-1.2q.48-.42 1.32-.42h1.26q.84 0 1.32-.48.48-.48.48-1.32V25.22q0-.84.48-1.32.48-.48 1.32-.48h.72q.84 0 1.32.48.48.48.48 1.32v10.14q0 .84.48 1.32.48.48 1.32.48h.84q.84 0 1.32.42.48.42.48 1.2t-.48 1.2q-.48.42-1.32.42h-.84q-.84 0-1.32.48-.48.48-.48 1.32v12.9q0 .78.33 1.23.33.45.93.45.36 0 .78-.18l1.32-.48q.54-.18.96-.18.48 0 .78.3.3.3.3.84v.12q0 1.5-1.44 2.04l-11.7 4.02q-.54.18-.9.18-1.14 0-1.14-1.08v-.06q0-1.56 1.44-2.1l2.58-.9q1.44-.54 1.44-2.04V42.2q0-.84-.48-1.32-.48-.48-1.32-.48h-1.26zm15.3 24.66q-.78 0-1.23-.42-.45-.42-.45-1.2t.48-1.2q.48-.42 1.32-.42h1.02q1.5 0 1.92-1.26l.84-2.76q.3-1.08.3-2.22v-18q-.12-2.1-1.98-2.16h-1.8q-.84 0-1.32-.42-.48-.42-.48-1.2 0-.72.48-1.14.48-.42 1.32-.42h2.94q2.64 0 3.84.84 1.68 1.02 1.56 3.84v17.46q0 1.02-.24 2.16-.06.18-.06.6 0 .9.96 1.62l2.94 1.98q1.56 1.08 4.8 1.08h14.94q.84 0 1.32.42.48.42.48 1.2t-.48 1.2q-.48.42-1.32.42h-14.4q-2.88 0-4.2-.42-2.28-.54-3.54-1.44l-1.02-.72-1.68-1.2v.06q-.66 2.34-1.92 3-.96.72-3.66.72h-1.68zm31.08-25.5q-.84 0-1.32-.42-.48-.42-.48-1.2t.48-1.2q.48-.42 1.32-.42h.48q.84 0 1.32.42.48.42.48 1.2t-.48 1.2q-.48.42-1.32.42h-.48zm12.3-12.9q-.54 0-.84-.39-.3-.39-.3-1.05 0-1.44 1.14-1.44 1.44.12 1.92-1.2l2.52-6.96q.48-1.5 2.04-1.5h1.08q.78 0 1.2.36.42.36.42 1.02 0 .3-.18.78l-2.64 7.26q-.66 1.8-1.92 2.52-1.02.6-3.3.6h-1.14zm25.8.18q-.48 0-.75-.42t-.27-1.08q0-1.44.9-1.44 1.44.12 1.92-1.2l2.58-7.08q.48-1.5 2.04-1.5h1.02q.78 0 1.2.36.42.36.42.96 0 .3-.18.78l-2.58 7.44q-.66 1.92-2.16 2.64-1.02.6-3.18.54h-.96zm-15.3-6.12q-1.08 0-1.08-1.02 0-.3.06-.48.48-1.44 1.98-1.44h11.04q.84 0 1.32.39.48.39.48 1.05 0 .72-.48 1.11-.48.39-1.32.39h-3.54q-.78 0-1.2.33-.42.33-.42.87 0 .48.24.96l.24.54q.36 1.08 1.56.96h1.86q1.8 0 1.8 1.2 0 .6-.48.93-.48.33-1.32.33h-2.88q-2.04 0-3.24-.54-.96-.48-1.62-2.16l-.9-1.98q-.6-1.44-2.1-1.44zm25.68 0q-1.02 0-1.02-.96 0-.36.06-.54.48-1.44 1.98-1.44h11.1q.84 0 1.32.39.48.39.48 1.05 0 .72-.48 1.11-.48.39-1.32.39h-3.66q-1.56 0-1.56 1.26 0 .42.18.9l.24.6q.36 1.02 1.62.9h1.74q1.8 0 1.8 1.26 0 .6-.48.93-.48.33-1.32.33h-2.82q-1.98 0-3.06-.42-1.02-.48-1.86-2.28l-.9-2.04q-.6-1.44-2.04-1.44zm-27.18 15.42q-2.52.06-3.54-.48-1.08-.48-2.22-2.4l-1.32-2.1q-.36-.66-.36-1.08 0-.54.42-.84.42-.3 1.14-.3h1.14q1.44 0 2.16 1.14l1.32 2.1q.66 1.02 2.52.96h1.5q.84 0 1.32.42.48.42.48 1.08 0 .72-.48 1.11-.48.39-1.32.39h-2.76zm30.36 28.98q-1.8 0-1.8-1.44 0-.66.48-1.08.48-.42 1.32-.42h2.76q.84 0 1.32-.48.48-.48.48-1.38V36.5q-.18-2.82-3.24-3h-22.5q-.84 0-1.32-.39-.48-.39-.48-1.11 0-.72.48-1.11.48-.39 1.32-.39h23.16q3.48 0 5.22 1.38 2.04 1.5 2.04 5.04v26.34q0 .9-.48 1.38-.48.48-1.32.48h-7.44zm-24.84-4.62q-.84 0-1.32-.48-.48-.48-.48-1.38V45.62q0-.9.48-1.41.48-.51 1.32-.51h.9q.84 0 1.32.51.48.51.48 1.41v.54q0 .9.48 1.38.48.48 1.32.48h11.34q.84 0 1.32-.48.48-.48.48-1.38v-1.62q-.18-2.94-3.12-3h-14.52q-.84 0-1.32-.39-.48-.39-.48-1.11 0-.66.48-1.05t1.32-.39h15.9q3.48 0 4.92 1.56 1.32 1.26 1.32 4.26v14.22q0 .9-.48 1.38-.48.48-1.32.48h-20.34zm-11.88 4.62q-.84 0-1.32-.48-.48-.48-.48-1.38V40.7q0-.9.48-1.38.48-.48 1.32-.48h1.08q.84 0 1.32.48.48.48.48 1.38v22.56q0 .9-.48 1.38-.48.48-1.32.48h-1.08zm14.58-9.42q0 .9.48 1.41.48.51 1.32.51h11.34q.84 0 1.32-.51.48-.51.48-1.41v-2.88q0-.9-.48-1.38-.48-.48-1.32-.48h-11.34q-.84 0-1.32.48-.48.48-.48 1.38v2.88zm66.06-3.3q0-.84.48-1.29.48-.45 1.32-.45h2.52q.84 0 1.32-.51.48-.51.48-1.47V27.32q0-.9-.48-1.41-.48-.51-1.32-.51h-12.24q-.84 0-1.32-.48-.48-.48-.48-1.32 0-.84.48-1.32.48-.48 1.32-.48h12.24q.84 0 1.32-.51.48-.51.48-1.41v-3.96q0-.84.48-1.38.48-.54 1.32-.54h1.02q.84 0 1.32.54.48.54.48 1.38v32.76q0 .96.48 1.47t1.32.51h2.94q.84 0 1.32.45.48.45.48 1.29 0 .84-.48 1.32-.48.48-1.32.48h-2.94q-.84 0-1.32.51-.48.51-.48 1.41v7.02q0 1.92-1.8 1.92h-1.02q-1.8 0-1.8-1.92v-7.02q0-.9-.48-1.41-.48-.51-1.32-.51h-2.52q-.84 0-1.32-.48-.48-.48-.48-1.32zm-22.62-17.52q-.84 0-1.32-.45-.48-.45-.48-1.23t.48-1.2q.48-.42 1.32-.42h.9q2.04.06 2.52-1.74l3.12-12.42q.36-1.56 1.98-1.56h.9q.78 0 1.2.36.42.36.42 1.02 0 .42-.06.6l-3.24 13.26q-.48 1.86-1.68 2.82-1.2.96-3.96.96h-2.1zm37.32-9.48q-.84 0-1.32-.48-.48-.48-.48-1.32 0-.84.48-1.32.48-.48 1.32-.48h10.08q.84 0 1.32.48.48.48.48 1.32 0 .84-.48 1.32-.48.48-1.32.48H354.5zm-17.1 30.9q-.06 2.22-1.2 3.24-1.14.96-3.06.96h-1.98q-.84 0-1.32-.48-.48-.48-.48-1.32 0-.84.48-1.32.48-.48 1.32-.48h.78q1.38.12 1.44-1.5l2.04-24.24q.12-.84.6-1.35.48-.51 1.32-.51h.48q.9 0 1.35.54.45.54.33 1.44l-2.1 25.02zm19.5-25.02q-.12-.9.33-1.44.45-.54 1.35-.54h.54q.84 0 1.32.51.48.51.6 1.35l2.04 24.24q.06 1.62 1.44 1.5h.72q.84 0 1.32.48.48.48.48 1.32 0 .84-.48 1.32-.48.48-1.32.48h-1.8q-1.86 0-3.06-.9-1.14-1.08-1.32-3.3l-2.16-25.02zm-34.8 33.78q-.84 0-1.32-.48-.48-.48-.48-1.32V38.72q0-.84.48-1.32.48-.48 1.32-.48h.96q.84 0 1.32.48.48.48.48 1.32v24.54q0 .84-.48 1.32-.48.48-1.32.48h-.96z"/></svg>