<svg viewBox="0 0 367 80" xmlns="http://www.w3.org/2000/svg"><path d="M18.08 16.5h37.98q1.2 0 1.95-.45t.75-1.11q.84 1.26.84 2.22 0 2.04-3.6 2.04H20.48q-.9 0-1.65-.81-.75-.81-.75-1.89zm3 20.76H53q1.2 0 1.95-.45t.75-1.11q.84 1.26.84 2.22 0 2.04-3.6 2.04H23.48q-.9 0-1.65-.81-.75-.81-.75-1.89zm-6.06 22.38h44.04q1.14 0 1.92-.72t.78-1.44q.84 1.26.84 2.4 0 1.08-.84 1.77t-2.76.69H17.42q-.9 0-1.65-.81-.75-.81-.75-1.89zm70.62-14.76q-1.5-1.86-2.7-3.78v25.2h-3q-1.2 0-1.8-.45-.6-.45-.6-1.95V45.42q-1.32 2.4-2.7 4.26-1.8 2.46-3.24 2.46-.24 0-.84-.24 5.28-8.88 6.6-24.3h-4.14q-.9 0-1.65-.81-.75-.81-.75-1.89h6.72V12q2.58 0 3.99 1.38 1.41 1.38 1.41 4.02v7.5h3.12q1.2 0 1.95-.45t.75-1.11q.84 1.26.84 2.22 0 2.04-3.6 2.04h-3.06v3.78q.3-.06.81-.12t.75-.06q1.08 4.62 2.25 7.62t3.87 8.22q-.54.3-1.26.3-1.68 0-3.72-2.46zm22.86 8.04q5.34 6.66 12.42 12.42-.54.54-.9.78t-.84.24q-.78 0-2.22-.84-2.1-1.2-5.16-3.6-3.06-2.4-6.24-5.7-3 3.12-5.76 5.13t-5.46 3.63q-1.44.84-2.22.84-.48 0-.84-.24t-.9-.78q2.64-1.68 6-4.77t6.42-6.99q-3.48-4.08-6.12-8.88-.78 6.48-2.91 11.64t-6.33 9.36q-1.08 1.08-2.58 1.08-.6 0-1.32-.3 4.92-6.54 6.66-14.49 1.74-7.95 1.74-18.51V19.56h-2.76q-.9 0-1.65-.81-.75-.81-.75-1.89h22.2q.36-1.92.48-2.88.24.06 1.86.36t2.64 1.08q1.02.78.84 1.92-1.14 4.2-3.57 8.73-2.43 4.53-5.67 7.11h6.06l.18-1.98q.24.06 1.86.36t2.64 1.08q1.02.78.84 1.92-2.04 10.08-8.64 18.36zM97.4 29.7q1.38 9.6 8.16 19.32 4.08-6.48 5.58-13.14h-8.82q-1.14 0-1.74-.78-.6-.78-.6-1.92h1.8q1.98-1.62 3.72-5.25 1.74-3.63 2.88-8.37H97.34V29.7h.06zm31.98-7.08q-.9 0-1.65-.81-.75-.81-.75-1.89h13.92v-2.88q0-2.64 1.41-4.02 1.41-1.38 3.99-1.38v8.28h11.28v-2.88q0-2.64 1.41-4.02 1.41-1.38 3.99-1.38v8.28h9.72q1.2 0 1.95-.45t.75-1.11q.84 1.26.84 2.22 0 2.04-3.6 2.04h-9.66v5.58h-5.4v-5.58H146.3v5.58h-5.4v-5.58h-11.52zm8.04 7.14q5.16 1.02 4.74 3.78-.06.78-.84 2.46t-2.04 3.72q1.74.84 1.74 3.66V66.3h-3q-1.2 0-1.8-.45-.6-.45-.6-1.89V44.64q-2.34 2.64-4.38 4.02-1.92 1.32-2.88 1.32-.48 0-.96-.36 1.92-1.56 4.14-5.07 2.22-3.51 3.87-7.56t2.01-7.23zm33.6 23.1q0-2.64 1.44-3.99t3.96-1.41v8.82q0 3.78-1.29 5.85t-3.69 2.82q-2.4.75-6.24.75h-8.34q-2.58 0-3.99-1.38-1.41-1.38-1.41-4.02V48.42h-2.94q-1.68 0-2.55-.6-.87-.6-.87-2.1h6.36v-14.4q2.58 0 3.99 1.38 1.41 1.38 1.41 4.02v9q3.54 0 5.46-.45t3.03-2.22q1.11-1.77 1.11-5.49v-1.8q0-2.64 1.41-4.02 1.41-1.38 3.99-1.38v7.8q0 4.2-1.53 6.39-1.53 2.19-3.9 2.91-2.37.72-6.03.96h-3.54V60q-.06 1.38.39 2.19t2.01.81h5.64q3.12 0 4.62-1.89t1.5-5.85v-2.4zm61.02-34.38q.84 1.26.84 2.22 0 2.04-3.6 2.04h-29.4q-.9 0-1.65-.81-.75-.81-.75-1.89h15.78q-.24-.3-1.29-1.29t-2.31-2.85q-.36-.54-.36-1.08 0-1.8 4.8-3.18.72 3.48 3.6 8.4h11.64q1.2 0 1.95-.45t.75-1.11zm-38.52 8.58q.3-.06.84-.06.66 0 .99.45.33.45.33 1.71V66.3h-3q-1.2 0-1.8-.45-.6-.45-.6-1.95V32.64q-1.98 2.64-3.9 3.84-.78.48-1.5.81-.72.33-1.2.33-.18 0-.54-.12 1.86-2.16 3.96-6.66 2.1-4.5 3.66-9.45 1.56-4.95 1.92-8.25 1.98.36 3.54 1.29t1.32 2.61q-.12.24-.54 1.5-2.1 5.58-3.48 8.52zm31.26 3.78h-22.2q-.9 0-1.65-.81-.75-.81-.75-1.89h24.66q1.2 0 1.95-.45t.75-1.11q.84 1.26.84 2.22 0 2.04-3.6 2.04zm-22.68 9q-.9 0-1.65-.81-.75-.81-.75-1.89h24.66q1.2 0 1.95-.45t.75-1.11q.84 1.26.84 2.22 0 2.04-3.6 2.04h-22.2zm21.72 6.36q1.2-2.7 4.92-2.7v16.92q0 2.64-1.41 4.02-1.41 1.38-3.99 1.38v-4.38h-18.3v4.98h-3q-1.14 0-1.77-.36-.63-.36-.63-1.44V48.9q0-2.64 1.41-4.02 1.41-1.38 3.99-1.38v2.7h18.78zm-18.78 12.54h18.3V48.9h-18.3v9.84zm84.36-42.96q.84 1.26.84 2.4 0 1.08-.84 1.77t-2.76.69h-5.82l2.46 1.8q1.14.9 1.14 2.1 0 1.14-1.05 2.28t-2.55 1.74q-1.44-3.66-4.2-7.92h-3.3q-2.22 2.76-5.16 5.7-1.38 1.38-3.36 1.38-1.02 0-1.74-.36 2.58-3.06 5.46-7.95 2.88-4.89 3.36-7.71 1.44.54 2.88 1.71t1.44 2.43q0 .66-.42 1.26-.3.66-.48.84h11.4q1.14 0 1.92-.72t.78-1.44zm-39.66 4.86h-.12q-2.64 3.18-5.22 5.76-1.38 1.38-3.36 1.38-1.02 0-1.74-.36 2.58-3.06 5.46-7.95 2.88-4.89 3.36-7.71 1.44.54 2.88 1.71t1.44 2.43q0 .66-.42 1.26l-.42.78h10.56q1.14 0 1.92-.72t.78-1.44q.84 1.26.84 2.4 0 1.08-.84 1.77t-2.76.69h-5.22l2.46 1.8q1.14.9 1.14 2.1 0 1.14-1.05 2.28t-2.55 1.74q-.78-2.04-1.92-3.93l-1.32-2.19-1.08-1.8h-2.82zm31.5 9.6q1.2-2.7 4.92-2.7v30.12q0 4.8-2.25 6.54-2.25 1.74-6.21 1.74h-3.3q-1.2.12-2.07-.57-.87-.69-.87-2.01h5.22q2.22 0 3.15-1.23.93-1.23.93-4.41V32.94h-19.08q-1.02 0-2.01-.78-.99-.78-.99-1.92h22.56zM254 31.5q.84.78.84 1.56 0 1.62-3 3.78-1.56-2.58-3-4.35-1.44-1.77-4.02-3.99.72-.78 2.16-.78 1.44 0 2.76.78 2.34 1.32 4.26 3zm-9.24 4.08q2.58 0 3.99 1.38 1.41 1.38 1.41 4.02V66.3h-3q-1.14 0-1.77-.36-.63-.36-.63-1.44V35.58zM275.9 54q0 2.64-1.41 4.02-1.41 1.38-3.99 1.38v-3.42h-9.9v3.54h-3q-1.14 0-1.77-.36-.63-.36-.63-1.44V41.46q0-2.64 1.41-4.02 1.41-1.38 3.99-1.38v2.7h10.38q1.2-2.7 4.92-2.7V54zm-5.4-12.54h-9.9v4.32h9.9v-4.32zm-9.9 11.82h9.9v-4.8h-9.9v4.8zm70.14-27.12q1.38 6.54 5.82 14.49t10.5 14.25q-.54.42-1.38.42-1.44 0-2.7-1.02-5.04-3.84-8.52-8.82-3.48-4.98-5.46-10.26V53.7h7.08q1.2 0 1.95-.45t.75-1.11q.84 1.26.84 2.22 0 2.04-3.6 2.04H329v9.9h-3q-2.4 0-2.4-1.8v-8.1h-7.98q-.9 0-1.65-.81-.75-.81-.75-1.89h10.38V36.24q-3.42 9.9-10.86 17.22-.78.78-1.95 1.29t-2.19.51q-.78 0-1.26-.36 5.22-5.88 9.24-13.98 4.02-8.1 5.4-14.76h-9.6q-.9 0-1.65-.81-.75-.81-.75-1.89h13.62v-6.24q0-2.64 1.41-4.02 1.41-1.38 3.99-1.38v11.64h12q1.2 0 1.95-.45t.75-1.11q.84 1.26.84 2.22 0 2.04-3.6 2.04h-10.2zM311.6 16.14q-.12 1.32-1.56 5.49t-3.36 8.07q.42.42.42 1.86V66.3h-3q-1.2 0-1.8-.45-.6-.45-.6-1.95V37.44q-1.08 1.08-1.98 1.74-1.44.96-2.82.96-.66 0-.66-.18 2.28-2.76 4.53-8.25 2.25-5.49 3.78-11.07 1.53-5.58 1.71-8.4 2.16.42 3.87 1.35 1.71.93 1.47 2.55z"/></svg>