<svg viewBox="0 0 446 80" xmlns="http://www.w3.org/2000/svg"><path d="M29.02 50.45q-9.37.47-13.59.35-.82 1.06 0 2 .82.93 2.11 1.52 7.85-1.52 20.62-3.16-.11.47-.35 1.17 6.1-.7 12.54-.82.24-.82.24-1.64-1.41-1.17-2.93-1.76-3.17-.47-6.21-.7-6.45.93-12.43 3.04zm3.52-29.41q-.35.47-.47 1.05-2.81 1.29-5.62 2.82-2-.36-3.4-.36.35.94.93 2 1.53.7 3.87.58 1.76-.82 3.52-1.87.47.23.35 1.17-2.34 3.4-4.45 6.91-2.11 2.11-3.87 4.34v3.75q.94.94 2.81.82.82-.94 2.11-1.64 2.34-.82 5.27-.94.82-.7.82-1.99-2.69-.94-5.62 0-1.41.94-3.4 1.29-.23-.94.59-1.64 5.86-6.92 11.13-13.95 1.05-.35 1.99-.82.59-.7.47-1.76-.94-.7-1.87-1.17-2.7.59-5.16 1.41zm47.81-1.99q.12.58 1.53 1.4l.82 2.93-1.18 7.27-3.39 1.52q-1.76 0-3.17-.35 0 .94 1.06 1.64l2.81.24q.82-.59 2.11-.82.11 2.46 0 6.09-6.33 12.66-9.14 13.83h-.24q-.58 0-1.05-.18-.47-.17-.82-.17-.12 1.05.06 2.46.17 1.4.64 2.34.47.47.94.47.35 0 .82-.18.47-.17.7-.06l5.16-7.26q0 1.29.47 2.23 1.4 1.52 3.75 3.51h.47q1.4 0 2.34-.94-1.41-2.81-1.06-3.98.12-5.74.71-11.37 1.52 1.88 3.75 3.52l1.29-.82v-.47q0-1.17.93-2.11 1.29.47 1.53.7-.24.71-1.12 3.58-.87 2.87-2.16 5.56-1.06.94-1.64.88-.59-.06-.82-.06 1.17 1.64 3.75 1.29.58 0 1.17-.58 1.05-1.53 2.4-4.34 1.35-2.81 1.46-3.16l6.1 3.28q-.94 2.34-2.58 4.1-2.11 1.29-3.05 1.29 1.06.47 2.46.47 1.06 0 2.23-.35 1.99-.71 3.99-3.05 1.4 1.05 2.92 2.58.36.23 1.94 1.75 1.58 1.53 3.1 2.35.47.12 1.29.12 1.53 0 4.1-.71 2.47-.47 3.29-.58l1.28-1.53q-1.52.12-3.69-.11-2.16-.24-3.57-.82-2.11-.59-4.16-1.76-2.05-1.17-2.87-1.64-.35-.24-1.17-.65-.82-.41-1.18-.76.71-1.64 1.18-2.46l1.05-2.46q.12-.24.12-.7 0-.36-.12-.59-.12-.23-.12-.35-3.28-1.29-4.45-1.53v-.58q0-1.41.7-2.34 1.18-2.35 3.28-4.46 1.88-2.93 1.88-4.8 0-2.23-.23-5.51-.82-.12-1.18-.47-1.05.24-3.16.94l-6.91 6.68q-.94-.24-1.41-.24-1.17 0-2.34.59-.71.82-1.06 2.11.82-.82 1.99-1.29.59.59.47 1.64-2.22 3.28-4.8 6.91-1.06 0-1.53-.11 0-1.76.94-3.87-1.87 1.52-3.4 3.98-.58-.35-1.52-1.28 0-3.29 1.29-6.1 1.29-1.87 2.11-2.22 1.4-.71 2.22-.94.24-.35.47-1.29-1.75-.47-3.63-.35-.94.93-1.99 1.64.58-3.17 1.4-6.33-.35-1.29-.35-2.46-.82-.35-1.99-.7-1.17-.36-1.99-.24-.7.35-2.23.59zm25.31 5.15q.47.82.24 2.93l-3.4 5.39-1.17 3.52v.82q0 .7.23 2.34 1.06 1.29 3.28 2.35-.23.58-.41.99-.17.41-.41.88l-1.64 1.76q-3.75-1.76-5.97-3.87.7-3.4 2.11-6.68 0-2.93.11-4.22l7.03-6.21zM93.83 35.57q-.12 1.64-.94 3.75-.23-.12-.59-.23-.35-.12-.82-.12.71-1.52 2.35-3.4zm-4.92 3.4h.35q.58 0 .94.35-.36 1.06-1.06 1.76l-.23-2.11zm-9.14 7.85q.58 1.76.35 3.75-.94-.23-1.53-.94.12-1.4 1.18-2.81zm76.99-13.36q-1.76 1.29-3.99 1.64-.11.59.47.7-4.1 3.29-7.97 6.8-3.16 1.88-6.44 3.87-.94 0-1.53-.24-.11-.58-.35-.93-1.29.11-1.64 1.17.47.82.59 2.11 1.05.94 2.69 1.05 6.1-3.75 11.72-7.61-2.93 3.75-5.27 7.96.12 1.53.47 2.93.82.94 1.76 1.41 1.17-1.29 2.81-1.76.23.24.23.71-3.04 4.8-5.51 9.49.83-.47 2.23-.24 3.4-2.34 5.86-5.39 1.29-.11 2.34.71 1.88-1.29 3.99-2.35 1.99 3.05 4.57 6.33 1.05.47 1.76 1.17.82.12 1.87 0 .47-.58.59-1.29-.82-2.22-1.88-4.22-2.11-.82-3.63-2.1-1.52 0-2.58-.47 3.17-4.93 6.33-9.85.82-2.22.82-4.45-.59-.7-1.05-1.17-1.18-.24-2.23 0-4.1 2.22-7.5 5.27-1.52-2.23-1.41-.94-.47 2.23-1.64 4.11-2.11 2.22-4.8 3.28 1.76-2.58 2.46-5.28 3.87-5.27 8.32-10.08.23-1.05.35-1.99-1.17-.82-2.81-.35zm5.97 8.79q-2.1 5.16-5.15 10.2-1.64 1.64-3.17 3.39-.46 0-.58-.23.82-2.81 2.69-4.92-.11-1.29-.35-2.35 1.06-1.17 1.64-2.69 2.46-2.11 4.92-3.4zm-3.28-28.59q-.11.58.12 1.29.7-.24.94.46-2.35 4.22-4.81 8.44-1.75.94-3.51 1.29-.59-1.17-.47-2.69-1.52-3.64-3.05-6.68-.35 0-.58.35-.36 5.62-.36 11.01-5.5 2.93-10.89 5.04h-1.64q-.24.47-.12 1.17.94 1.06 2.81 1.18 2.34-1.41 5.04-2.35-.12.24-.12.82 3.05-.23 6.45.59.47.94 1.87 1.17-.35.7-.82 1.52.71-.47 1.53-.35 3.86-5.86 8.55-11.37 4.1-1.28 7.62-3.16-.24-1.05-.94-1.41-1.76.36-3.75 0 1.41-1.28 1.99-2.93v-2.46q-.7-.82-1.64-1.4-2.34-.12-4.22.47zm-5.39 13.82q-.58 2-1.52 3.64-.35-1.17-.35-2.93.94-1.17 1.87-.71zM218.4 13.3q1.99 2.35 1.87 2.23l-.35 3.05q-2.58 4.92-3.63 7.5-1.06.82-2.34 1.05-.94-2.11-1.29-3.16l-3.4-2.46q-.82-.24-.94.23.47 1.06 1.06 1.99-.24 3.52-.24 5.16-1.64 1.17-2.58 1.52-1.87 0-3.63.36.82.82 2.58.46 2.34-.46 3.63-.82.94.36 1.41 1.18.7 0 1.52-.59.12-.94.82-2.11.82-.82 1.76-.94.58.59.47 1.29-1.64 3.05-3.28 7.27 1.87-1.17 3.75-3.28 2.69-4.46 5.62-7.85 2.58-.71 5.86-2l-.35-.7h-1.41q-2.22 0-3.28.12.7-2.35 1.29-3.4l-.47-3.63q-.94-1.76-2.34-2.58h-.71q-.93 0-1.4.11zm-3.87 25.43q-.94 1.41-2.11 2.35-3.28 1.87-6.68 4.22-3.4 1.75-7.73 3.28h-1.76q-.47.23-.35.7 1.87.59 3.63.47 5.51-2.23 10.9-4.92v.35q0 .7-.12 1.17-2.81 3.52-5.15 7.97l-.24 2.93q.94 1.52 1.99 2.11.59.35 1.23.53.65.17 1.12.41 3.16 0 5.51.47l3.51-.36 8.44-.58q3.51-.94 5.27-1.29.24-.7.24-1.06l-1.29-2.57q0-.47-.12-2.05-.12-1.59-.47-2.88-.82-2.46-2.69-6.91-.12 3.52.35 7.03-.35 3.28-1.29 6.92-1.52.82-5.63 1.4-2.93 0-5.15.47-3.28-.23-7.85-.94l-.71-.7q2.11-4.8 5.16-9.37 1.99-2 3.98-4.58.59-.35 1.76-.58.59-.59 1.52-1.76 0-1.99.12-2.81-.47-.47-.94-.47l-4.45 1.05zm54.38-8.32q-4.46 2.47-8.09 6.45-1.41 2.69-3.52 4.34-.46-2.58-.82-4.93-.93-2.22-2.69-3.28 0 3.99-.7 7.85-.36.24 1.64-3.04v2.11q-1.18 5.62 0 8.08 1.05.24 2.11.47l.7-.94q-.35-1.75-.24-3.63 1.76-3.63 4.81-6.56 2.69-2.58 5.98-3.75 0 2.46-.36 5.51-4.21 3.86-8.78 7.38-.24.58-.12 1.29 1.29.35 2.22-.82 1.06.23 2.35.23 1.17.71 2.11 1.99 1.17.47 2.69.59 1.18-.94 1.76-2.23.35-5.04 1.76-9.96.7-.82 1.64-1.05.23.58.47 1.17-1.29 4.8-2.35 9.84-1.99 3.87-3.51 8.21-1.17 1.4-2.7 2.93-.23.58-.23 1.29.59 1.28 1.76 2.22h1.29q1.4-1.05 2.93-2.22 3.16-9.38 5.97-18.52.71-4.22.47-8.44-1.05-.47-1.99-.58-1.99 1.05-3.4 2.46-.35-1.06.12-1.99-.59-1.18-1.06-2.23-1.05-.47-2.22-.24zm-2.82 12.54q.59 0 .59.71-1.17 1.17-2.23 2.57-1.99.36-3.16-.35 2.69-.93 4.8-2.93zm14.18-16.17q-.58 8.67-1.52 15.24.23 2.22 1.29 4.57-.24 1.17-.59 2.46-3.04 4.68-6.68 9.37 3.17-2.34 6.57-4.57 2.46-2.93 3.75-5.15-1.29-2.11-1.76-3.87-.12-3.17.12-6.1.7-3.75 1.64-6.91v-3.05q-.47-1.05-1.18-1.75-.93-.47-1.64-.24zm6.57-12.07q-7.15 5.04-13.36 10.31 4.1-1.4 7.85-3.16 2.34-1.76 4.69-3.4.46-.12.82.35-.12 3.28 0 5.86 0 5.98-.59 9.61.59 8.79.41 12.54t.06 11.13q-2.34-1.05-4.81-1.87 1.88 3.87 5.51 8.08.94.82 2.58.82.59-3.16.94-6.09-.24-4.34-.82-7.15-.12-3.86.41-14.94.52-11.07 1.23-20.33.35-.35.94-.35.23-.82.23-1.76-.47-.47-.82-.7-3.05-.12-5.27 1.05zm59.41 4.34l2.46 3.28q.94 1.4 1.52 2.11v1.17q-.58 1.05-1.75 1.17l-3.99-1.52q.24-.59.82-.71-.35-1.28-1.4-2.92-3.05-2.7-5.16-5.16 3.4.7 7.5 2.58zm-.35 13q.58.59.94 1.53-.24 1.76 0 3.05-.47 1.99-1.64 5.74-2.35 4.33-5.04 8.2h-.36q-1.17 0-1.75-.7-.35-.94-.35-1.99-3.87-2.93-6.8-5.51-.94.23-1.17.58-.94 9.96-.82 17.82-.82.7-.82 1.28-.82 0-1.18.12-1.4-1.05-2.81-3.04-.7-3.4-1.17-5.16.82-2.34 1.17-4.22 0 .7.59 1.05.7-2.81.7-5.39-.82 1.76-2.46 2.47l-1.29-1.06q-.23-1.64-.23-2.58l1.4-4.22.59.24 3.87-5.51q.23-2.34.11-3.16-.93.58-1.99.35-1.05-1.06-2.23-2.7 1.18-.35 3.75-.58.59-.94 1.18-1.06.35-2.46.35-5.15-.59-2.47-.71-4.34 1.53.12 2.23 1.99l-.12 1.76q0 2.69 1.06 4.8l1.76-1.75q1.87-.47 4.1-1.76 2.34 0 3.51 1.64v1.17L330.2 36.98q-.24.93-.24 1.4 0 .71.35 1.64l13.48-7.97h2.11zm-6.33 11.02q2.46-5.39 3.05-7.27-.47-.11-1.64.53-1.18.65-2.35 1.23-3.75 1.29-7.03 4.69l3.63 1.29q2.47 0 4.34-.47zm38.09 1.29q.47 1.41.58 3.4-.58 1.4-1.52 2.69-.12 1.64 0 3.64.82 1.17 2.46 1.52 1.05-1.29 1.76-2.58.47-2.81.94-5.74-1.18-1.52-2.35-2.7-1.17-.35-1.87-.23zm2.93-22.03q.93.47 2.57 1.05-.11 1.06-.23 2.82-2.23 4.92-4.69 9.72-4.69 6.56-9.02 13.48.82-.35 1.87-.59 3.64-3.28 7.04-7.03 5.74-8.55 10.66-17.11-.82-2.11-2.81-3.04-1.29-.12-2.11-.36-1.64.24-3.28 1.06zm24.37-3.99q-1.99 5.04-3.98 10.32-8.91 7.97-17.46 15.7 6.21-3.28 12.42-7.85 1.4-1.99 3.16-3.4.7.23 1.29.82-.12 2.81-1.87 4.8-4.93 5.51-9.38 11.25-2.81 4.46-5.98 8.79 1.64-1.4 3.75-1.99 3.05-2.81 6.68-5.86 3.29-4.1 6.45-7.73.12.35.47.58-.35 3.17-1.06 6.45-2.57.23-4.8 1.17 0 .35-.12.82 1.52.7 3.63.82.82 3.87 2.7 7.5 1.05.35 2.23.12.7-4.34.58-8.2 1.76-1.18 4.34-1.65-.24-1.28-1.29-1.87-1.29-.12-2.46.12-.24-2.93-.82-5.16.23-2.93.23-4.57.24-.59.71-.94 4.21 4.69 8.43 9.96 1.41.59 2.93 1.41 2.23-.47 4.22-.12.59-.23.82-1.05-2.11-1.76-4.8-2.23-4.81-4.8-10.43-9.72.23-1.41.58-2.58-.35-1.88-1.52-2.82.47-2.1.94-4.21 1.64-2 4.22-3.05.23-.82-.47-1.17-1.53 0-2.58.35v-1.64q.47-.59 1.05-1.41 0-.82-.11-1.4-1.29-.94-2.7-.36z"/></svg>