<svg viewBox="0 0 373 80" xmlns="http://www.w3.org/2000/svg"><path d="M18.71 19.55v-1.43H53.2v-.94h1.38v2.37H18.71zm2.02 20.58V38.7h30.35v-.94h1.38v2.37H20.73zm-4.78 22.35v-1.43h39.82v-.94h1.38v2.37h-41.2zm64.39-44.06v-1.43h22.35l-.89 1.43H80.34zm16.33 14.46l-1.04-.3q.7-1.48 4.99-14.36.25-.79.44-1.41.2-.61.35-.96l1.82.64q-5.57 14.71-6.56 16.39zm8.19.54h-9.42v-1.38h9.42v1.38zM74.71 65.79q3.26-4.99 6.37-12.44 3.11-7.45 3.11-16.77v-19.2h2.61-.74v19.2q0 9.12-3.3 16.9-3.31 7.77-7.36 12.75l-.69-.44zm5.92.34q.6-.49.94-.69 3.65-2.71 7.28-6.29 3.63-3.58 7.94-10.58 4.32-7.01 7.48-17.18l1.73.79q-3.06 10.32-7.48 17.3-4.41 6.98-8.26 10.51-3.85 3.53-7.85 6.19l-1.08.74-.7-.79zm26.5.64q-2.96-1.97-7.23-6.61-4.27-4.64-8.73-13.42-4.47-8.78-6.88-21.17l1.77-.89q2.27 12.09 6.52 20.83 4.24 8.73 8.24 13.42 3.99 4.69 6.95 7l-.64.84zM64.65 50.39l-.54-.39q1.18-2.27 2.86-6.89 1.67-4.61 3.06-9.49 1.38-4.89 1.77-8l1.68.45q0 1.97-1.41 7.15-1.4 5.18-3.47 10.16-2.08 4.99-3.95 7.01zm.59-23.83v-1.43h13.47v-.94h1.43v2.37h-14.9zm6.41 40.07V11.86l2.62 1.18-.69.94v52.65h-1.93zm2.47-31.14q2.07 1.63 5.77 7.15l-1.38.94q-3.45-5.57-5.08-7.55l.69-.54zm64.49 27.43V12.99l2.57 1.14-.69.93v47.12q0 .74.74.74h15.84l-.99 1.39h-16.04q-1.43 0-1.43-1.39zm-15.59 3.85v-29.9l2.57 1.19-.7.93v27.78h-1.87zm.1-40.95V12.05l2.56 1.19-.69.93v11.65h-1.87zm-8.09.34v-1.38h15.74v1.38h-15.74zm-.65 22.26l-.74-.74q2.03-1.78 5.51-5.85 3.47-4.07 6.61-8.86 3.13-4.78 4.17-8.68l1.77.69q-1.18 4.24-4.46 9.08-3.28 4.83-6.96 8.78-3.67 3.95-5.9 5.58zm13.48-9.82q1.57 1.33 3.97 3.58 2.39 2.24 4.02 3.87l-1.38 1.28q-4.74-5.13-7.5-7.89l.89-.84zm55.9 13.12V16.54h2.57-.7v35.18h-1.87zm-16.53-8.24v-1.43h33.85v-.93h1.38v2.36h-35.23zm-3.6 8.98v-1.43h40.66v-.93h1.38v2.36h-42.04zm4.04-17.66v-1.43h34.99v1.43h-34.99zm-.49-16.97v-1.39h35.48v1.39h-35.48zm-.44 17.66V15.26l2.56 1.18-.69.94v18.11h-1.87zm34.04 0V15.26l2.62 1.18-.74.94v18.11h-1.88zm-27.68-14.7q.89.79 3.33 3.77 2.45 2.99 3.38 4.37l-1.48 1.08q-1.58-2.37-5.38-7.35l-.83-1.13.98-.74zm17.77 8.93l-.84-.64q1.13-1.34 3.15-4.25 2.03-2.91 2.82-4.29l1.48.99q-1.78 2.46-3.41 4.59-1.63 2.12-3.2 3.6zm-12.74 25.75q1.24 2.37 3.9 9.77l-1.63.74q-.83-2.96-3.45-10.06l1.18-.45zM166 66.77l-1.19-.44q.74-1.33 2.3-5.03 1.55-3.7 2.64-6.52l1.67.69-.98 2.08q-3.21 6.95-4.44 9.22zm32.96-11.49q.84 1.18 2.74 4.59 1.9 3.4 3.08 5.57l-1.58.94q-.89-2.12-5.23-10.46l.99-.64zm-10.07.19q.74 1.39 1.98 4.37 1.23 2.99 1.92 4.96l-1.63.74q-.59-2.02-2.71-7.6l-.74-2.02 1.18-.45zm40.56 8.69v-1.43h23.88v1.43h-23.88zm-.49-45.3v-1.38h24.37v1.38h-24.37zm-.45 46.19V16.3l2.57 1.18-.69.94v46.63h-1.88zm22.95 0V16.3l2.61 1.18-.74.94v46.63h-1.87zm-22.01-23.44v-1.43h23.88v1.43h-23.88zm10.41 21.96V17.83h1.88v45.74h-1.88zm-26-29.46l-.45-.74q1.14-1.88 3.75-8.14 2.62-6.27 4.69-11.94l1.73.49q-.69 2.07-2.52 6.36-1.82 4.3-3.82 8.32-2 4.02-3.38 5.65zm10.06-.64q-3.25.74-11.1 1.23l-.24-1.63q6.06-.34 11.34-.54v.94zm1.93 14.26q-4.49 1.03-12.34 1.92l-.24-1.63q6.07-.34 12.58-1.23v.94zm1.18 11.4q-7.3 1.52-14.6 2.36l-.25-1.62q4.29-.4 14.85-1.68v.94zm-12.09-9.63l-.49-.74q1.33-1.87 5.06-9.79 3.72-7.92 5.8-13.25l1.72.64q-.84 2.27-3.2 7.33-2.37 5.06-4.89 9.67-2.52 4.61-4 6.14zm78.01 16.19l-.93-1.38h6.61q.74 0 .74-.74V29.72l2.56 1.13-.69.94v32.52q0 1.38-1.43 1.38h-6.86zm-15.44-33.46v-1.38h23.09l.45 1.38h-23.54zm-2.12 24.82v-1.43h17.17v1.43h-17.17zm-.45-17.17V38.5h17.62v1.38h-17.62zm-.49 17.86V37.32l2.62 1.18-.74.94v18.3h-1.88zm16.23 0V37.32l2.62 1.18-.74.94v18.3h-1.88zm-15.74-9.22v-1.39h17.62v1.39h-17.62zm-9.72 17.41V34.95l2.57 1.18-.69.94v28.86h-1.88zm2.91-38.88q1.39 1.38 3.31 3.58 1.93 2.2 3.11 3.77l-1.43.94q-1.24-1.87-4.64-6.36l-.99-1.34.64-.59zm-5.47 1.53l-.94-.74q2.76-3.3 5.4-8.02 2.64-4.71 3.48-7.47l1.58.74q-1.43 3.95-3.82 8.09-2.4 4.15-5.7 7.4zm5.62-8.44v-1.38h14.85v-.93h1.44v2.31h-16.29zm6.57 7.5v-8.48h1.87v8.48h-1.87zm8.93-.64l-.84-.74q2.22-3.06 4.14-6.95 1.93-3.9 3.01-7.01l1.58.69q-1.82 4.54-3.45 7.72-1.63 3.18-4.44 6.29zm3.35-6.9l1.19-1.39h15.19v-.93h1.43v2.32h-17.81zm7.3 7.99V19.6h1.88v8.49h-1.88zm26.55 27.43q1.92-2.41 5.13-7.97 3.21-5.55 6.1-12.04 2.88-6.48 3.97-11.71l1.63.54q-1.09 5.38-4.15 12.01-3.06 6.64-6.49 12.19t-5.4 7.58l-.79-.6zm2.27-30.69V23.4h28.42v-.94h1.38v2.37h-29.8zm13.57 42.14V11.86l2.56 1.18-.69.94v52.99h-1.87zm-7.85-12.93v-1.43h16.29v-.94h1.38v2.37h-17.67zm25.81.99l-.79.59q-1.87-2.02-5.33-7.47-3.45-5.46-6.51-11.97-3.06-6.51-4.15-11.84l1.63-.54q1.09 5.18 3.97 11.54 2.89 6.37 6.07 11.77 3.19 5.4 5.11 7.92zm-37.6 11.55V26.46l2.57 1.18-.69.94v38h-1.88zm-5.82-23.94l-.89-.49q1.53-2.56 3.8-7.94 2.27-5.38 4.32-11.38 2.04-5.99 3.08-10.43l1.73.44q-1.14 4.64-3.23 10.78-2.1 6.15-4.49 11.43-2.4 5.28-4.32 7.59z"/></svg>