<svg viewBox="0 0 380 80" xmlns="http://www.w3.org/2000/svg"><path d="M31.82 16.72q8.4 0 13.56.36 1.98.06 1.98 1.92 0 1.8-1.86 1.8-.72 0-5.04-.3H32.6q-5.1 0-8.88.3-4.86.06-5.64.24-1.68 0-1.74-2.04 0-1.68 2.4-1.8 4.2-.24 13.08-.48zm.12 17.1q8.88 0 13.08.3 1.98.06 1.98 1.86 0 1.86-1.86 1.86-.66 0-4.86-.3h-7.62q-4.98 0-8.58.3-4.74.06-5.58.24-1.62 0-1.68-2.1 0-1.62 2.4-1.74 5.1-.3 12.72-.42zm.12 22.62q9.9 0 15 .24 1.98.06 1.98 1.92 0 1.68-1.8 1.68h-.54q-.3-.06-1.08-.06h-.36q-.12-.06-.42-.06h-1.08q-.42-.06-1.44-.06-.24-.06-.66-.06h-8.64q-5.52 0-9.96.3-5.46.06-6.24.3-1.68 0-1.74-2.04 0-1.68 2.4-1.8 6.48-.36 14.58-.36zM74 13.9q.66 0 1.05.42t.45 1.26q.24 3 1.44 4.56.66.84 1.2.84.42 0 .42-.66v-1.38q-.06-.6-.06-1.8 0-2.28-.06-3.06 0-1.98 1.86-2.46h.06q1.68.18 1.68 2.46v6.18q0 .54.36.54.54 0 1.14-.9.96-1.44 1.26-3.3v-.18l.06-.18q.12-.66.36-1.02.42-.78 1.14-.84 1.92 0 1.92 1.8-.48 3.36-1.71 5.31-1.23 1.95-3.45 2.67-1.08.42-1.08 1.14t.96 1.26q2.46 1.44 3.54 5.7 1.86 7.56 1.86 30.24 0 1.32-.42 2.1t-1.14.78q-.84 0-1.23-.6t-.39-1.92q0-23.64-1.68-29.22 0-.12-.12-.24h-.06v-.18h.12q-.06-.42-.42-1.26-.36-.84-.72-1.32-.36-.48-.36-.12 0 .84-.06 1.38v5.16q0 18.78.12 27.9 0 2.1-1.68 2.1t-1.68-3.3l-.06-31.32q0-1.5-.3-1.5-.48 0-1.2 3.3-1.38 10.02-1.38 28.14 0 2.88-1.56 2.88-1.56-.18-1.56-2.88.12-20.46 1.44-28.38 1.26-5.52 3.72-7.32.84-.6.84-1.38 0-.66-1.02-1.14-4.26-1.44-5.16-7.86l-.06-.66q0-.36.18-.9.42-.84 1.44-.84zM95.42 19q.12-.36.12-.54 0-.84-1.14-.84h-1.38l-.6.06q-.48 0-.9-.18-1.02-.3-1.02-1.38.12-1.68 1.92-1.74 5.4-.18 12.72-.18 3.3.3 3.3 3.6 0 2.28-1.26 5.34l-1.02 2.04-.06.12q0 .18.84.18 2.88 0 2.88 3.24 0 5.4-2.34 9.36-.24.42-.3.75t0 .81q.36 2.22.66 5.46.3 8.76 1.8 15.12 1.56 4.26 1.56 5.34 0 1.38-1.62 1.56-.54 0-1.02-.3t-.72-.84q-1.98-3-2.94-14.58-.18-2.7-.48-5.58l-.18-1.98q-.06-.96-.72-.96-.42 0-.84.36-1.56 1.2-3.06 2.04-1.8 1.44-3.42 1.44-1.38 0-1.44-1.8 0-1.2 1.32-1.8.96-.42 4.26-2.64 1.02-.66 2.04-1.62l.36-.42q.06-.12.3-.36v-.06q-.24-.54-.75-.78t-1.47-.3h-3.66q-1.32 0-1.32-1.56.12-1.38 1.32-1.44l2.94-.18q2.46 0 3.9.6.36.18.66.18.6 0 .96-.72.66-1.74.84-4.44 0-.42-.06-.6t-.3-.18q-2.52.18-4.86.18-1.62-.18-1.62-1.56 0-1.56 1.92-1.62.72 0 1.02-.96l.3-.6.18-.24.18-.42.18-.36q.06-.12.24-.54 1.38-3.12 1.38-4.2 0-.72-1.2-.72h-3.42q-.9 0-1.38.9-.24.72-.3.84-1.32 3.66-2.1 6.06-1.5 5.7-1.98 9.72-1.02 7.5-1.02 13.62v13.74q0 1.5-.9 1.98-.42.3-.84.3-.24 0-.6-.12-.96-.6-1.14-1.92 0-10.86.12-14.1 0-9.84 1.62-18 1.38-6.6 3.54-11.58zm74.82 45.6l.06.54q0 .24-.12.6-.36.84-1.32.84-1.8 0-1.98-1.38-1.44-6.12-2.1-21.66 0-2.4-1.26-4.08-1.26-1.68-3.78-2.7-3.96-1.74-6.66-3.42-.3-.24-.78-.24-.48 0-1.02.36-2.46 1.92-7.02 3.6-4.8 2.16-5.34 7.68-.54 16.56-2.34 20.58-.3 1.14-1.74 1.14-.96 0-1.32-.84-.12-.36-.12-.54 0-.24.06-.48t.12-.42q1.68-7.68 1.86-17.52 0-9.18 7.92-12.9.9-.36 1.44-.48l1.8-.6q1.56-.66 2.4-1.14.84-.48.3-.48-4.2 0-6.72.12-5.82.06-6.96.24-1.32 0-1.38-1.62 0-1.32 1.98-1.44 5.34-.3 13.08-.42 1.2 0 1.2-1.2v-.72q0-1.2-1.2-1.2-2.88 0-5.94.18-5.04 0-6.42.18-.6 0-.96-.39t-.42-1.17q0-1.32 1.92-1.44 7.2-.24 11.82-.24 1.2 0 1.2-1.2v-.54q0-1.2-1.2-1.2-3.84.12-5.82.24l-5.58.18h-.48l-.48.06q-.24 0-.48-.18-.72-.36-.78-1.5 0-1.26 2.04-1.38 6.72-.24 11.58-.3 1.2 0 1.2-1.2v-1.8q0-1.86 1.62-1.98 1.8 0 1.8 1.98v1.8q0 1.2 1.2 1.2 7.92 0 12.24.24.72.06 1.14.45.42.39.42.99 0 .72-.39 1.11-.39.39-1.05.39-.72 0-5.52-.3h-6.84q-1.2 0-1.2 1.2v.54q0 1.2 1.2 1.2 7.5 0 12.48.18 1.56.06 1.56 1.5 0 1.38-1.38 1.38l-5.7-.18h-6.96q-1.2 0-1.2 1.2v.72q0 1.2 1.2 1.2 8.7 0 13.44.24 1.62.18 1.62 1.62 0 1.38-1.5 1.38-.72 0-1.32-.06-2.16-.12-4.68-.12h-7.32q-.6 0-.27.27.33.27 1.65.93.06.06.54.3.9.42 3.66 1.38 3.66 1.02 5.49 3.84t1.83 7.32q.6 12.36 1.92 19.26 0 .24.06.3zM155 48.04q4.8.9 6.3 6.24 1.44 6.6 1.44 10.74 0 1.02-.39 1.56t-1.11.54q-1.62 0-1.62-1.98-.18-4.62-1.38-9.72-.54-3.06-3-4.08-.78-.42-1.08-.42-.24 0-.24.54l-.24 15q0 1.2-.72 1.44-.36.12-.6.12-.48 0-.78-.3-.18-.12-.36-.36v-.12h-.06q-.3-.54-.3-1.5l.06-14.1q0-.6-.36-.6-.42 0-1.08.48-1.74 1.02-2.76 3.42-1.32 5.1-1.68 9.84 0 1.08-.45 1.68-.45.6-1.23.6-.72 0-1.11-.66-.39-.66-.39-1.86 0-3.84 1.74-10.26 1.68-5.04 6.12-6.12l.6-.18q.3 0 .45-.09.15-.09.15-.27 0-.24-.12-.3t-.54-.12q-.18 0-.24-.06h-.24q-2.22-.48-4.14-1.26-1.68-.84-2.4-1.32l-.3-.24-.3-.24q-.24-.48-.24-.72 0-.3.24-.66.06-.18.48-.48.6-.42 1.44-.24h.06l.84.3.48.18.54.24q.06.06.21.15t.39.15q.84.36 2.46.9.6.18.9.18.48 0 .48-.6l.06-3q-.6-.42-1.08-.24-1.8.54-3.12 1.08-.78.54-1.86.54-.3 0-.54-.21-.24-.21-.3-.63-.18-.48-.18-.72 0-.36.18-.72h-.12q.06 0 .06-.06.18-.12.12-.12h.06l.96-.66.24-.12q1.26-.72 4.98-1.92 2.28-.66 3-.66 1.44 0 1.44 1.26 0 .66-.36 1.26-.42.78-.42 1.62l-.06 3.06q0 .72.42.72.36 0 .96-.3l.54-.24.72-.36 1.5-.84.3-.18.24-.12q.3-.18.78-.3.48-.18.84-.18t.6.18q.84.42.84 1.2 0 .72-.84 1.38-1.08.84-2.52 1.62-1.56.72-3.42 1.2-.06.06-.18.06l-.24.06q-.36 0-.45.06-.09.06-.09.36 0 .18.12.27.12.09.42.09l.24.06q.12 0 .18.03l.06.03zm66.36-35.76q1.86.06 1.86 1.74 0 3.66-.66 5.28 0 .12 1.08.3l.3.06.6.18q3.96.9 5.04 3.54 1.86 3.66 1.86 16.08 0 6.9-3.24 10.5l-.36.48-.24.24q-.72.84-.78.96-1.5 2.16-1.5 3.96 0 1.92 2.1 4.92 2.88 3.12 2.88 4.14 0 1.68-1.62 1.68-.66 0-1.44-.6-.78-.6-1.98-1.98-3.48-4.5-3.48-7.5.24-3.72 2.94-7.62.12-.18.54-.72l.36-.36.18-.24.3-.36q1.86-2.28 1.86-7.38 0-9.72-.6-12.12-1.02-4.92-6.12-4.92-.84 0-1.26.06-.84.24-1.08.36-3.24 2.34-4.14 8.04l-.06.24-.06.3q-.12.6-.24.87t-.42.45q-.42.24-.96.24-.6 0-1.02-.36-.42-.36-.48-1.02 0-3.66 1.56-6.6 1.56-3.54 5.04-5.82l.03-.03q.03-.03.09-.03l.18-.06q.18-.06.3-.21t.24-.45q.78-1.5.78-5.1 0-.36.66-.84.3-.3.96-.3zm-19.02 3.18q.72 0 1.14.3.42.36.51.81.09.45.09 1.29v2.76q0 .72.39 1.14.39.42 1.29.66l1.62.48 1.08.36.36.06q.24.06.3.12t.36.06l.12.06q.06 0 .6.18t.78.66q.12.48.12.84 0 .9-.36 1.26-.24.42-1.02.48-1.02.18-1.47.45-.45.27-.57 1.05-.3 1.8-.42 2.46l-.18.9q0 .3-.12.78-.18 1.86 1.68 1.92l.96.06q1.8.18 1.8 1.44 0 1.74-1.8 1.74-1.5 0-6.3-.12h-1.2q-3.72 0-6.96.3-.9 0-1.41-.48-.51-.48-.57-1.32 0-.6.54-.96.42-.3.84-.42t1.32-.18h.24q.18-.06.42-.06 1.98-.06 1.68-1.92l-.6-3.6q-.12-.9-.51-1.35-.39-.45-.93-.21-.9.36-1.08.36-1.86 0-1.98-2.1.06-.42.3-.69.24-.27.54-.39l3.9-1.38.9-.36.12-.06.24-.06q1.62-.66 1.62-1.86v-2.94q0-.84.09-1.29.09-.45.51-.87.3-.24 1.02-.36zm-1.08 17.16q.12.78.45 1.23.33.45.81.45 1.08 0 1.32-1.68.24-1.86.42-2.52l.42-3q.18-1.62-.9-2.04-.66-.24-1.08-.24-1.56.18-1.86.6-.42.48-.42 1.2 0 .42.06.66l.78 5.34zm16.44-2.88q1.08 0 3.54 1.8 2.94 2.16 2.94 3.12 0 .66-.24.9-.24.42-.9.42-.6 0-1.08-.24l-2.76-1.5q-3.12-1.86-3.12-2.82.12-1.5 1.62-1.68zm1.8 10.02q1.92 0 3.78.24 1.92.18 1.92 1.56 0 1.92-1.92 1.92-1.08 0-4.08-.12-1.08 0-2.82.18-.96 0-1.47-.51t-.57-1.35q0-1.14 1.62-1.56 1.02-.3 3.54-.36zm-15.54 3.66q1.86 0 1.86-.6v-.24q0-.78.54-1.32.72-.3 1.32-.3.54 0 .78.18.6.3.6 1.26l-.18 12.42q0 6.18-6.12 6.18-3.18 0-4.71-1.59-1.53-1.59-1.53-4.89l-.24-10.92v-.48q0-.9.42-1.62.48-.66 1.2-.66 1.38 0 1.56 1.56 0 1.02 1.86 1.02h2.64zm-2.64 3.18q-1.86 0-1.86 1.86v.3q.06.9.48 1.32.42.42 1.38.42l2.52.06q1.86 0 1.86-1.8v-.36q.06-.9-.45-1.38-.51-.48-1.41-.48l-2.52.06zm.06 6.78q-1.86 0-1.86 1.26.24 3 3.36 3 2.76 0 2.76-2.7 0-.78-.51-1.17-.51-.39-1.35-.39h-2.4zm70.86-40.08q1.8.18 1.8 2.58 0 7.26-.12 21.54 0 17.88.12 26.58 0 2.1-1.8 2.1-1.68 0-1.74-3.42V36.16q0-13.2-.18-20.28 0-1.02.45-1.62.45-.6 1.41-.96h.06zm-10.5 3.18q1.56 0 1.92 1.8 0 1.44.06 2.1 0 3 .06 4.32v3q0 16.14-3.3 24.96-1.5 4.2-2.4 6.12-.54 1.26-1.08 1.83-.54.57-1.26.57-1.56-.18-1.56-1.68 0-1.08.78-2.52 1.38-2.64 2.28-5.34 3.18-7.92 3.18-22.74 0-4.26-.18-10.62 0-1.62 1.5-1.8zm21.24.42q1.8 0 1.8 1.98 0 3.84-.12 13.32 0 8.22 1.14 14.1.72 3.9 2.1 6.96 1.74 4.02 1.74 5.82 0 1.08-.42 1.32-.42.48-1.08.48-1.02 0-1.74-1.08-2.7-4.68-3.96-12.66-1.2-7.86-1.2-27.66.06-2.58 1.74-2.58zm33.66 6.42q-1.62 0-1.62-1.26 0-6.3 5.88-7.02v-1.2q0-1.8 1.8-1.8.72 0 1.23.54t.45 1.14v1.32q3.24.3 4.65 1.83 1.41 1.53 1.41 4.47 0 1.02-.36 1.44-.36.42-1.2.42-.9 0-1.29-.33t-.45-1.17q-.12-2.16-.66-3.09-.54-.93-2.16-1.17l-.06 4.86q.06 1.14-.3 1.59-.36.45-1.32.45-1.74 0-1.74-2.04v-4.8q-1.44.3-2.1 1.47-.66 1.17-.66 3.33 0 .66-.36.84-.36.18-1.14.18zm18.6 0q-1.62 0-1.62-1.26 0-3.24 1.44-4.98 1.44-1.74 4.5-2.04v-1.2q0-1.8 1.74-1.8.72 0 1.26.54t.48 1.14v1.32q3.36.24 4.62 1.8 1.26 1.56 1.26 5.34 0 .96-.36 1.38-.36.42-1.2.42-.9 0-1.32-.36-.42-.36-.42-1.08-.06-2.82-.54-3.84-.48-1.02-2.1-1.26l-.06 4.86q.06 1.14-.33 1.59-.39.45-1.35.45-.84 0-1.26-.48-.42-.48-.42-1.56v-4.92q-1.62.24-2.19 1.29-.57 1.05-.57 3.63 0 .66-.36.84-.36.18-1.2.18zm14.58 13.44q1.62.18 1.68 1.5 0 .66-.39 1.02t-.99.36q-5.4-.12-14.34-.12-.78 0-1.44.6-.24.24-.24.54 0 .48.42.9 2.1 2.52 2.7 6.3.12.54.24.87.12.33.36.33.3 0 .6-.24l.12-.06q.06-.06.3-.18 2.46-1.14 3.54-1.14 2.82 0 3.96 7.02 1.2 5.88 1.2 8.4 0 1.02-.48 1.5-.36.36-.78.36-.18 0-.66-.12-.96-.24-1.14-1.2-.24-3.24-1.08-7.08-.36-2.22-.81-3.66-.45-1.44-.81-1.44-.9 0-3.12 1.14-.84.36-.84.96 0 6.96-3.54 11.76l-.36.66-.12.24-.24.36q-.48.84-1.5.84-1.44 0-1.5-1.56 0-1.02 1.44-3.24 1.8-3.06 2.28-5.94.06-.24.06-.72 0-1.02-.42-.78-5.82 3.78-10.02 6.96-.6.36-1.08.96-1.98 2.16-3.18 2.16-.72 0-1.14-.33-.42-.33-.48-.93 0-1.32 3.18-3.78 3.9-3 9.84-6.9 1.26-.9 2.52-1.62.9-.54.72-1.5l-.18-.9q-.18-.84-.84-.84-.36 0-.78.24l-2.4 1.56-.78.48-1.98 1.26-3.3 2.1q-3.54 2.58-4.98 2.58-1.02 0-1.2-1.44 0-1.02 6.3-4.92 3.66-2.58 7.26-4.38.78-.36.78-.96 0-.3-.3-.72l-.3-.3q-.36-.36-.54-.72h-.06l-.24.24q-3.48 2.28-5.22 3.06-1.14.6-2.49.96-1.35.36-2.61.36-1.5 0-1.68-1.74 0-.9 2.16-1.38 2.82-.78 5.64-2.34.96-.42 1.62-.96.6-.36.6-.84 0-.3-.27-.51-.27-.21-.69-.21-2.82 0-4.95.06-2.13.06-3.57.12l-2.82.12-.6.06q-.36 0-.84-.3-.42-.42-.48-1.44 0-.42.18-.69.18-.27.72-.51.54-.3 1.5-.3 6.48-.24 14.4-.24h3.12q.96 0 1.5-.84.36-.54.9-1.14v-.06q0-.42-1.5-.42l-8.94.18q-.9 0-1.38-.24-.54-.24-.78-.87t-.3-1.71q0-2.58 3.12-6.36.54-.54 1.26-.6 1.08 0 1.32.6.3.36.18.84l-.06.12q-.12.12 1.08.12l8.64-.06q2.94.18 2.94 3.18 0 1.86-1.26 4.56l-.12.24-.66 1.02q-.72.72-.72 1.08 0 .24.33.3t1.11.06q5.88.12 8.7.24zm-10.74-6.3q.24-.48.24-.72 0-.66-1.08-.66-5.04 0-9.42.12-.84 0-1.2.36l-.12.18h.12l-.12.24-.18.06h.06q-.18.12-.33.45-.15.33-.15.57.06.18.12.18l10.74-.06q1.08 0 1.32-.72z"/></svg>