<svg viewBox="0 0 383 80" xmlns="http://www.w3.org/2000/svg"><path d="M41.98 22.28q3.3 0 4.68.39t1.38.99q0 .9-1.44 1.56-2.52.96-4.62 1.74-1.86.48-4.14 1.47-2.28.99-3.84 1.83.42-.72 1.56-1.53 1.14-.81 2.64-1.77-.66.24-2.13.48-1.47.24-1.95.24-1.5 0-3.03-.45-1.53-.45-3.15-1.23l-.24-.18q1.68-.3 7.83-1.92 6.15-1.62 6.45-1.62zm3.36 13.2q-.72 0-6.21 1.29T27.7 39.44l.24.24q1.14 1.2 2.49 1.53 1.35.33 3.09.33.54 0 1.2-.03.66-.03 1.02-.21-.9 1.26-4.29 3.84t-4.47 3q1.5-1.02 6.18-3.39t6.69-3.03q2.01-.66 5.07-1.68 3.36-1.26 3.36-2.7 0-.36-1.23-1.11-1.23-.75-1.71-.75zm5.52 15q5.28 0 8.91 1.44t3.63 2.52q0 1.26-.09 1.56-.09.3-.57.3-1.2 0-4.38-.69-3.18-.69-4.56-.69-2.64 0-5.4.48 1.32-.6 2.7-1.2-.42-.12-2.76-.3t-2.76-.18q-6.84 0-13.8 1.8-6.18 2.04-12.3 4.08-1.08 0-2.49-1.71-1.41-1.71-1.59-2.97v-.48q.6.3 1.38.63.78.33.84.33 1.32 0 7.56-1.41 6.24-1.41 12.81-2.46t12.87-1.05zm30.18-33.72q2.7 0 4.98 1.41 2.28 1.41 2.28 2.31 0 1.08-.48 4.2t-.48 4.02q.48-.12.9-.18.42-.06 1.44-.06.72 0 1.53.39t.81 1.05q0 .54-1.32 1.35t-3.84 1.47v5.82q.96-.78 2.25-1.92t2.19-2.04q-.18 1.2-1.59 3.93-1.41 2.73-2.85 4.05.48 15 .48 15.66 0 1.14-.42 2.58-.42 1.44-1.2 1.44-.9 0-2.22-2.04-1.32-2.04-1.32-3.12.36-1.26.66-4.05.3-2.79.3-6.27-2.46 2.04-4.83 3.96t-3.15 1.92q-.66 0-.93-1.29t-.27-2.49q2.16-2.52 4.8-6.24 2.64-3.72 4.62-8.52-1.08.6-2.7.99t-2.7.39q-1.44 0-2.34-.27-.9-.27-1.86-.87v-.48q.18 0 4.29-1.56t5.31-1.98q0-7.62-.36-9.72-.36-2.1-1.98-3.36v-.48zm27.48 1.86q1.26 0 2.88.66 1.62.66 1.62 1.44 0 1.02-1.8 4.5t-1.8 4.2q0 .24 2.01 1.98t2.01 2.94q0 1.56-.87 4.08t-3.15 6.9q1.2 2.52 7.05 7.17t8.61 5.97q-1.08.48-3.36.96t-4.26.48q-2.64 0-3.6-1.05t-2.13-3q-1.17-1.95-2.07-3.54-.9-1.59-2.22-3.45-3.36 4.74-6.21 6.72-2.85 1.98-4.95 1.98-1.26 0-2.37-.27t-1.71-.69q3.18 0 7.98-4.98 4.8-4.98 4.8-6.72-2.16-2.64-3.54-4.41t-2.1-2.67l-5.52 11.52q-2.22 4.38-6.96 4.38 4.5-5.28 6.57-10.5Q95.5 38 96.76 32.96q1.26-5.04 1.26-6.36 0-.48-.42-.96-1.62 1.14-2.04 1.41-.42.27-1.32.27-1.08 0-1.86-2.01t-.78-2.91l.18-.24q.24.3 1.23.84t1.23.54q4.56-1.68 8.94-3.3 4.38-1.62 5.34-1.62zm-1.56 2.82q-.84 0-3.33 1.02t-4.47 2.28q1.5.84 2.43 1.38.93.54.93.96 0 .48-.87 3.39t-1.35 4.59q5.1 5.82 6.18 7.02 1.26-3 1.86-4.8.6-1.8.6-2.94 0-.84-.21-1.08-.21-.24-.96-.78t-1.08-1.14q-.33-.6-.63-1.2 0-.18.78-3.9.78-3.72.78-4.08 0-.72-.66-.72zm40.92-5.88q4.5 1.02 4.5 3.06 0 .9-2.43 3.96t-3.99 4.74q.3-.12 1.14-.42.84-.3 1.2-.3 1.08 0 2.16.51t1.08.87q0 .84-1.95 5.07t-3.39 6.93q.12.36.51 2.04.39 1.68.75 2.88.12 0 .78-1.5t.72-1.56q-.72 4.56-1.02 7.41-.3 2.85-.3 8.73 0 1.02-.57 2.28-.57 1.26-1.29 1.26-.96 0-1.77-2.49t-.81-5.97q0-1.26.33-3.72t.99-6.54q-2.58 3.72-4.98 4.77-2.4 1.05-5.28 1.05 3-2.1 5.7-5.91t4.59-7.74q1.89-3.93 1.89-5.07-.72 0-2.49.93-1.77.93-3.69 1.89-.18 0-.42-.96t-.24-1.44q0-1.14 4.26-6.66 4.26-5.52 4.26-6.18 0-.06-.33-.84t-.33-1.08h.42zm24.3 2.82q.48 0 1.92.57t1.44.87q0 1.38-4.5 3.78t-8.28 5.34q2.28-2.82 4.5-5.64-.3 0-1.62.36t-1.8.36q-.24 0-1.38-.48t-2.04-.9v-.48q1.2-.66 6.03-2.22t5.73-1.56zm6.78 11.04q1.2 0 3.36 1.08t2.16 2.4q0 .36-.81.78-.81.42-1.53.42-.6 0-3.39-.48t-3.99-.48q-2.88 0-2.79.15.09.15-1.65.57 2.46 1.86 3.57 2.76 1.11.9 1.11 3.6-.18 2.16-.3 4.89-.12 2.73-.12 6.09 0 7.26-.15 10.32-.15 3.06-1.77 3.06-2.22 0-4.68-2.55-2.46-2.55-5.58-6.63 2.1 1.02 3.75 1.8t2.43.78q1.2 0 1.56-2.07.36-2.07.36-10.77 0-5.82-.42-7.83t-1.32-2.73q-1.2 0-7.41 1.98t-6.63 1.98q-.84 0-2.25-1.26-1.41-1.26-1.59-2.94l.24-.24q.18 0 1.05.24.87.24 1.29.24.54 0 6.9-1.29T172 30.71q5.28-1.29 6.96-1.29zm27.3-4.02q.54.18 3.42-.36t5.88-1.05q3-.51 4.86-.78 1.86-.27 2.46-.03 4.86 1.92 3.72 4.35-1.14 2.43-2.28 5.67-1.62 3.24-2.76 3.63-1.14.39-1.98 2.01-.84 1.62 1.2-5.64.78-3.48.87-4.35.09-.87.09-1.71 0-.78-.18-1.32t-2.7-.12l-3.9 1.02q-8.1 2.1-9.06 2.34-.42 0-1.02-.24-.6-.24.24-1.86t1.14-1.56zm16.68-8.04q4.98.78 6.99 2.52t2.01 3.54q0 1.26-.36 1.68-.36.42-.96.42-.66 0-2.43-1.47t-2.49-2.25q.66-.24 1.08-.72 0-.24-1.23-1.35t-2.79-2.13l.18-.24zm-8.16 43.38q0 .96-.54 1.68t-1.2.72q-.3 0-1.41-2.46-1.11-2.46-1.11-3.24.48-3.72.81-16.32.33-12.6.33-14.76 0-3.12-.45-6.21t-.69-4.95l.18-.18q1.68 0 2.97 1.35 1.29 1.35 1.29 3.63-.18 3-.15 15.6t-.03 25.14zM232 35.9q2.76.72 4.11 2.25 1.35 1.53 1.35 3.63 0 1.8-.9 3.78-2.76 6.24-4.71 9.87-1.95 3.63-3.21 3.27-2.34-.6-4.2-2.82-1.86-2.22-3.18-6.96 1.32 1.32 3 2.61 1.68 1.29 2.88 1.59 1.32.36 2.94-2.82 1.62-3.18 2.7-7.2.36-1.2.36-2.1 0-1.14-.69-1.77-.69-.63-2.31-.87-1.38-.18-2.7-.18-2.16 0-4.71.6t-6.27 1.98q-1.86.66-7.38 2.58-3.6 1.2-5.43 1.92-1.83.72-3.03 1.56-.66-.12-1.47-.75-.81-.63-.81-1.59 0-.54.24-1.02.6-1.14 2.1-1.89t2.58-.75q.72 0 .72.36t-1.02 1.14q.78-.18 7.62-2.16 13.68-4.02 16.92-4.44 1.44-.12 1.92-.12 1.38 0 2.58.3zm55.2-7.56q3.06 0 4.08.96t1.02 4.02v4.8q0 4.62.33 10.77.33 6.15.69 13.71 0 1.5-.63 2.07-.63.57-1.47.57-1.26 0-4.2-2.07-2.94-2.07-6.24-5.97 2.4.96 3.9 1.44t2.52.48q1.14 0 1.41-1.02t.27-3.54q0-4.68-.09-8.73-.09-4.05-.36-9.33t-1.23-5.28q-1.08 0-3.57.6-2.49.6-3.99 1.26-.3.36-1.74-.09-1.44-.45-2.34-1.23v-.42q1.14-.36 6.21-1.68 5.07-1.32 5.43-1.32zm-24 31.14q0 .96-.54 1.68t-1.2.72q-.3 0-1.41-2.46-1.11-2.46-1.11-3.24.48-3.72.81-6.78.33-3.06-.12-6.15-.45-3.09-.69-4.95l.18-.18q1.68 0 2.97 1.35 1.29 1.35 1.29 3.63-.18 3-.15 3.42.03.42-.03 12.96zm13.86-22.86q1.08 0 3.18.72t2.1 1.26q0 .12-.12 1.8-.12 1.68-.12 2.94 0 1.08.12 4.65.12 3.57.12 4.05 0 3.24-1.26 3.24-.9 0-1.53-.42t-1.89-1.56q-.36 0-.96.12t-.78.12q-.9 0-1.86-.24-.96-.24-1.8-.84-.18.24-.69 1.98t-1.17 1.74q-.24 0-1.08-1.95-.84-1.95-.84-2.43.3-1.98.57-4.89.27-2.91.27-5.49 0-1.2-.3-1.68t-.78-.72v-.42q7.5-1.98 8.82-1.98zm.12 1.74q-1.02 0-2.82.66-1.8.66-2.88 1.08.78 1.2.78 3.48 2.1-.96 3.12-1.14 1.02-.18 2.7-.18 0-1.98-.24-2.94t-.66-.96zm1.08 5.82q-.78.84-2.22 1.8-1.44.96-2.88 1.68.84-.96 1.11-1.35.27-.39.57-.99h-2.58v5.4q.24-.06 1.86-.24t1.8-.18q1.08 0 2.34.42v-6.54zm4.5-27.18q0 .36-.69 1.71t-.81 1.71q.18-.06 5.49-.96 5.31-.9 5.79-.9 1.56 0 2.58.39t1.02 1.05q0 1.32-1.92 1.32-.96 0-3.36.12t-2.58.12q.84.72.84 1.74 0 .84-3.42 3.03t-5.34 2.19q-.6-.18-.84-.18 1.08-.72 2.43-2.1 1.35-1.38 2.67-3.96-1.86.42-4.98 2.37-3.12 1.95-3.48 1.95-.54 0-1.14-.81-.6-.81-.6-1.41 0-.24 2.55-4.2t2.55-4.8q0-.36-.18-.69-.18-.33-.18-.51l.12-.18q1.56.66 2.52 1.38.96.72.96 1.62zm-16.44 1.92q0 .24-.18.84t-1.08 3.12q.3 0 1.47-.3t1.47-.3q.84 0 1.11.81.27.81.63 2.19 1.56-1.5 2.91-2.94t1.77-2.34q-.24 1.62-2.25 5.64t-3.27 4.02q-1.5 0-1.92-2.37-.42-2.37-1.32-2.37-.72 0-2.91 1.59-2.19 1.59-4.53 3.33-.66 0-1.08-1.08-.42-1.08-.42-1.74 2.76-2.52 4.89-5.46t2.13-5.7l.24-.18q.96.48 1.65 1.62.69 1.14.69 1.62zm-1.8 11.46q1.68 0 3.18.84 1.5.84 1.5 2.04 0 .48-.51 1.08-.51.6-2.25.6-.9 0-2.01.39-1.11.39-2.07.75 2.16-1.44 2.16-2.82 0-.36-.81-.99t-1.53-.75v-.42q.12-.18.99-.45t1.35-.27zm72.66-14.82q1.5 0 2.22.3.78.3 1.92.9 1.14.6 1.83 1.38.69.78.69 1.74 0 2.16-.12 4.92t-.24 2.94l1.8-.6q0-.12-.81-.87t-.99-1.17q.24.06 1.32.54 1.08.48 2.88.84 1.8.36 3.57.93 1.77.57 1.77 1.65 0 .72-.63 1.02-.63.3-1.23.3l-2.64-.24q-.72 0-2.52.27t-3.72.81v1.14q5.04 5.34 9.18 9.03 4.14 3.69 7.05 5.85 2.91 2.16 3.99 2.76-.3.6-2.1.96t-3.36.36q-2.4 0-3.87-1.05-1.47-1.05-3.21-3.33-1.98-3.3-3.6-5.55t-4.08-4.95v9.42q.3-.12 1.14-.3.84-.18 1.26-.18.84 0 2.04.57 1.2.57 1.2 1.35 0 .72-1.8 1.32-1.8.6-3.84 1.02l.3 10.38q0 3-.3 3.78-.3.78-1.02.78-.84 0-2.16-2.22-1.32-2.22-1.32-3 .42-2.22.72-4.62t.3-4.74q-1.8 0-2.88-.36-1.08-.36-2.82-1.38l-.18-.24q1.32-.24 3.09-.54 1.77-.3 2.79-.72v-7.68q-5.04 6.18-7.38 7.89t-3.78 1.71h-.66q-.96 0-1.14-.24 3.24-3.06 6.6-7.32 3.36-4.26 4.92-8.52-2.52.66-3.36.9-.84.24-1.92.39-1.08.15-2.01.27-.93.12-1.11.12v-.3q2.34-1.86 4.86-3.12 2.52-1.26 4.98-2.04 0-7.62-.36-9.18-.36-1.56-2.1-3.66l.84-.42zm-14.04 2.16q1.8 0 3.03 1.89 1.23 1.89 1.23 3.99 0 1.62-1.32 4.83t-3.12 6.93q.9 1.92 1.32 4.68.3 2.22.54 4.44.54-1.02 1.14-2.16.6-1.14.66-1.26-1.14 6.3-1.56 9.54-.42 3.24-.42 7.5 0 1.32-.69 2.16-.69.84-1.35.84-.6 0-1.32-2.16-.72-2.16-.72-3.48 0-1.14.51-7.08t.51-6.06q0-1.5-.09-2.52t-.33-1.2q-1.5 2.4-2.76 4.38-1.26 1.98-2.04 1.98t-1.14-.84q-.36-.84-.36-2.4 0-1.02.39-1.65.39-.63 1.65-2.55 2.4-3.06 4.74-8.64 2.34-5.58 2.34-8.1 0-.9-.12-1.41-.12-.51-.48-1.41l-.24-.24z"/></svg>