<svg viewBox="0 0 390 80" xmlns="http://www.w3.org/2000/svg"><path d="M18.94 21q-.24 0-.39-.18-.15-.18-.15-.42v-4.02q0-.24.15-.39.15-.15.39-.15h48.12q.24 0 .39.15.15.15.15.39v4.02q0 .24-.15.42t-.39.18H18.94zm4.02 20.58q-.24 0-.39-.18-.15-.18-.15-.42v-4.02q0-.24.15-.39.15-.15.39-.15h40.32q.24 0 .39.15.15.15.15.39v4.02q0 .24-.15.42t-.39.18H22.96zM16.3 64.62q-.24 0-.39-.18-.15-.18-.15-.42V60q0-.24.15-.39.15-.15.39-.15h53.4q.24 0 .39.15.15.15.15.39v4.02q0 .24-.15.42t-.39.18H16.3zM96.34 22.8h-6.18v42.9q0 .24-.15.39-.15.15-.39.15H85.6q-.24 0-.42-.15T85 65.7V22.8h-6.18q-.24 0-.39-.15-.15-.15-.15-.39v-4.02q0-.24.15-.42t.39-.18H85v-5.22q0-.24.18-.39.18-.15.42-.15h4.02q.24 0 .39.15.15.15.15.39v5.22h6.18q.24 0 .39.18.15.18.15.42v4.02q0 .24-.15.39-.15.15-.39.15zm32.64 39.48q.36.36 0 .72l-2.82 2.88q-.48.42-.78 0l-5.16-5.16q-5.16 4.32-12.96 4.32h-2.94q-.24 0-.42-.15t-.18-.39v-4.08q0-.24.18-.39.18-.15.42-.15h2.94q2.46 0 4.83-.78t4.23-2.28l-9.12-9.06q-.18-.18-.21-.42t.21-.42l2.82-2.82q.18-.12.42-.15t.36.15l8.94 8.94q1.98-3.42 1.98-7.56l-.06-6.84-9.06-.06q-.24 0-.39-.18-.15-.18-.15-.42v-4.02q0-.24.15-.39.15-.15.39-.15h2.04l3.84-13.44h-10.74l-4.2 37.08q-.54 2.7-1.65 4.32-1.11 1.62-3.09 2.82l-3.42 2.16q-.12.06-.3.06-.36 0-.48-.3l-2.04-3.48q-.06-.06-.06-.24 0-.36.3-.54l2.94-1.92q.84-.48 1.53-1.53.69-1.05.93-2.07l4.02-36.36h-3.66q-.24 0-.39-.18-.15-.18-.15-.42v-4.02q0-.24.15-.39.15-.15.39-.15h25.2q.24 0 .39.15.15.15.15.39v4.02q0 .12-.12.36l-3.96 13.74h6.06q.24 0 .39.15.15.15.15.39v1.08l.06 10.38q-.24 6.78-3.3 11.4l5.4 5.4zM82.84 26.52q.24 0 .42.15t.18.39V64.5q0 .24-.18.39-.18.15-.42.15h-4.02q-.24 0-.39-.15-.15-.15-.15-.39V27.06q0-.24.15-.39.15-.15.39-.15h4.02zm13.5 28.62q0 .24-.18.39-.18.15-.42.15h-4.02q-.24 0-.39-.15-.15-.15-.15-.39V27.06q0-.24.15-.39.15-.15.39-.15h4.02q.24 0 .42.15t.18.39v28.08zm52.44-34.02q-1.2 3.24-2.1 4.65-.9 1.41-2.64 2.43h3q.24 0 .42.15t.18.39V65.7q0 .24-.18.39-.18.15-.42.15h-4.02q-.24 0-.39-.15-.15-.15-.15-.39V29.1l-3.36 1.98q-.12.06-.3.06-.3 0-.48-.3l-1.98-3.48q-.12-.24-.12-.3 0-.3.3-.48l4.44-2.58q1.32-.78 2.46-3.66l3.12-8.28q.06-.3.72-.3h4.44q.24 0 .33.24.09.24-.03.48l-3.24 8.64zm40.5-2.46q.24 0 .39.18.15.18.15.42v4.02q0 .24-.15.39-.15.15-.39.15h-37.14q-.24 0-.42-.15t-.18-.39v-4.02q0-.24.18-.42t.42-.18h15.96V12.3q0-.24.15-.39.15-.15.39-.15h4.02q.24 0 .42.15t.18.39v6.36h16.02zm-34.86 13.5q-.24 0-.39-.18-.15-.18-.15-.42v-4.02q0-.24.15-.39.15-.15.39-.15h31.56q.24 0 .39.15.15.15.15.39v4.02q0 .24-.15.42t-.39.18h-31.56zm-.54 7.5v-4.02q0-.24.15-.39.15-.15.39-.15h31.56q.24 0 .39.15.15.15.15.39v4.02q0 .24-.15.42t-.39.18h-31.56q-.24 0-.39-.18-.15-.18-.15-.42zm32.52 3.84q.24 0 .39.18.15.18.15.42v12.78q0 2.16-1.02 3.99t-2.79 2.91q-1.77 1.08-3.87 1.08h-25.38q-.24 0-.39-.18-.15-.18-.15-.42V44.1q0-.24.18-.42t.42-.18h32.46zm-8.16 16.2q1.44 0 2.49-1.08 1.05-1.08 1.05-2.52v-7.44H158.5V59.7h19.74zm21.36-7.68q-.24 0-.42-.15t-.18-.39v-4.02q0-.24.18-.42t.42-.18h21.42v-3.3H201.4q-.24 0-.42-.15t-.18-.39V39q0-.24.18-.42t.42-.18h19.62v-3.54h-19.2q-.24 0-.42-.18t-.18-.42V14.1q0-.24.18-.42t.42-.18h43.62q.24 0 .39.15.15.15.15.39v12.84q0 2.1-1.02 3.93t-2.79 2.94q-1.77 1.11-3.87 1.11h-12.12v3.54h19.74q.24 0 .39.18.15.18.15.42v4.02q0 .24-.15.39-.15.15-.39.15h-19.74v3.3h21.48q.24 0 .39.18.15.18.15.42v4.02q0 .24-.15.39-.15.15-.39.15H199.6zm16.74-22.32h4.68V18.66h-14.64V29.7h9.48l-.12-.12-7.5-6.9q-.18-.18-.21-.42t.21-.42l2.82-2.82q.18-.12.42-.15t.36.15l7.5 6.96q.36.36 0 .72l-2.82 2.88q-.12.12-.18.12zm20.94 0q1.38 0 2.46-1.08t1.08-2.52v-7.44h-14.64V29.7h4.68q-.06 0-.18-.12l-2.82-2.88q-.36-.36 0-.72l7.5-6.96q.12-.18.36-.15t.42.15l2.82 2.82q.18.18.18.42t-.18.42l-7.5 6.9-.12.12h5.94zm-32.46 24.06q.24 0 .42.15t.12.39l-2.4 11.34q-.12.6-.54.6h-4.02q-.24 0-.45-.18-.21-.18-.15-.42l2.4-11.34q.12-.54.6-.54h4.02zm43.38 11.88v.12q0 .48-.54.48h-4.02q-.48 0-.6-.6l-2.4-11.34v-.06q0-.24.18-.36t.42-.12h4.02q.42 0 .54.54l2.4 11.34zM217.78 55.5l2.4 10.14v.12q0 .48-.54.48h-4.02q-.48 0-.6-.6l-2.4-10.14v-.06q0-.24.18-.36t.42-.12h4.02q.42 0 .54.54zm14.4 0l2.4 10.14v.12q0 .48-.54.48h-4.02q-.48 0-.6-.6l-2.4-10.14v-.06q0-.24.18-.36t.42-.12h4.02q.42 0 .54.54zm33.06-34.14q-.84 2.46-2.7 4.14l-3.06 2.52q-.18.18-.36.18-.24 0-.48-.24l-2.58-3.12q-.12-.12-.12-.36t.18-.42l2.7-2.22q.66-.6 1.14-1.68.48-1.08.66-2.34l.72-5.64q.06-.3.72-.42h4.02q.18 0 .27.21.09.21.09.45l-.36 3.78h16.98q.24 0 .39.15.15.15.15.39v4.02q0 .24-.15.42t-.39.18h-6.24l2.82 4.8q.06.12.06.3 0 .36-.3.48l-3.48 1.98q-.12.12-.36.12-.3 0-.48-.24l-4.26-7.44h-5.58zm43.62-5.16q.24 0 .39.15.15.15.15.39v4.02q0 .24-.15.42t-.39.18h-6.24l2.82 4.8q.06.12.06.3 0 .36-.3.48l-3.48 1.98q-.12.12-.36.12-.3 0-.48-.24l-4.26-7.44h-5.58q-.48 1.44-1.11 2.37-.63.93-1.59 1.77l-3.06 2.52q-.18.18-.36.18-.24 0-.48-.24l-2.58-3.12q-.12-.12-.12-.36t.18-.42l2.7-2.22q.66-.6 1.14-1.68.48-1.08.66-2.34l.72-5.64q.06-.3.72-.42h4.02q.18 0 .3.21t.06.45l-.36 3.78h16.98zm-43.5 15.24l3 5.58.06.12q0 .18-.21.3t-.39.12h-4.02q-.18 0-.33-.15-.15-.15-.27-.39l-3-5.58-.06-.12q0-.18.21-.3t.45-.12h4.02q.24 0 .36.24t.18.3zm39.9-.54q.24 0 .39.15.15.15.15.39v26.88q0 3.18-2.25 5.52-2.25 2.34-5.43 2.4h-3.78q-.24 0-.39-.15-.15-.15-.15-.39v-4.02q0-.24.18-.42t.36-.18h2.76q1.44 0 2.49-1.08 1.05-1.08 1.05-2.46V36.06h-30.18q-.24 0-.39-.18-.15-.18-.15-.42v-4.02q0-.24.15-.39.15-.15.39-.15h34.8zm-8.76 22.56q0 2.16-1.02 3.99t-2.79 2.91q-1.77 1.08-3.87 1.08h-18.78q-.24 0-.39-.18-.15-.18-.15-.42V39.48q0-.24.15-.39.15-.15.39-.15h25.92q.24 0 .39.15.15.15.15.39v13.98zm-31.68-13.32q.24 0 .39.15.15.15.15.39V65.7q0 .24-.15.39-.15.15-.39.15h-4.02q-.24 0-.42-.15t-.18-.39V40.68q0-.24.18-.39.18-.15.42-.15h4.02zm9.84 3.96v3.48h16.68V44.1h-16.68zm13.14 12.18q1.44 0 2.46-1.05t1.08-2.49h-16.68v3.54h13.14zm84.12-1.5q.24.12.3.36t-.06.42l-2.04 3.48q-.12.24-.33.3-.21.06-.45-.06l-2.4-1.38q-2.22-1.32-3.6-2.85T361 50.76l-8.4-24.96v26.34h6.36q.24 0 .39.15.15.15.15.39v4.02q0 .24-.15.42t-.39.18h-6.36v8.4q0 .24-.15.39-.15.15-.39.15h-4.02q-.24 0-.42-.15t-.18-.39v-8.4h-6.36q-.24 0-.39-.18-.15-.18-.15-.42v-4.02q0-.24.15-.39.15-.15.39-.15h6.36V25.8l-8.4 24.96q-.96 2.88-2.34 4.32-1.38 1.44-3.6 2.82l-2.4 1.38q-.12.06-.3.06-.36 0-.48-.3l-1.56-2.64v9.3q0 .24-.18.39-.18.15-.42.15h-4.02q-.24 0-.39-.15-.15-.15-.15-.39V29.1l-3.36 1.98q-.12.06-.3.06-.3 0-.48-.3l-1.98-3.48q-.12-.24-.12-.3 0-.3.3-.48L321.7 24q1.32-.78 2.46-3.66l3.12-8.28q.06-.3.72-.3h4.44q.24 0 .33.24.09.24-.03.48l-3.24 8.64q-1.14 3.12-2.07 4.59-.93 1.47-2.67 2.49h3q.24 0 .42.15t.18.39v25.92l1.74-1.02q3-1.74 3.6-3.6l8.52-25.56h-9.24q-.24 0-.39-.18-.15-.18-.15-.42v-4.02q0-.24.15-.39.15-.15.39-.15h14.46V12.3q0-.24.18-.39.18-.15.42-.15h4.02q.24 0 .39.15.15.15.15.39v7.02h15.66q.24 0 .39.15.15.15.15.39v4.02q0 .24-.15.42t-.39.18h-10.44l8.52 25.56q.6 1.86 3.6 3.6l1.98 1.14z"/></svg>