<svg viewBox="0 0 403 80" xmlns="http://www.w3.org/2000/svg"><path d="M62.28 24.72q-.54 1.56-2.1 1.38-7.08-.66-16.92-.66-11.28 0-19.26.78-1.74.18-1.98-1.5l-.18-.96q-.06-.18-.06-.54 0-1.32 1.56-1.5 8.76-.66 21.54-.66 10.02 0 16.38.42 1.5.18 1.5 1.38 0 .48-.12.78l-.36 1.08zM59.88 39q-.54 1.56-2.1 1.38-6.9-.66-15.54-.66-9.3 0-16.14.72-.84.12-1.38-.27-.54-.39-.66-1.23l-.18-.9q-.06-.18-.06-.48 0-1.38 1.56-1.56 9.06-.78 19.26-.78 7.98 0 14.28.54 1.44.18 1.44 1.38 0 .42-.12.72L59.88 39zm7.92 17.22q-.66 1.14-1.74 1.14-.3 0-.48-.06-8.22-1.38-24.06-1.38-14.76 0-23.58 1.2-1.74.18-2.1-1.44l-.3-1.38q-.06-.24-.06-.6 0-1.26 1.5-1.44 10.8-1.02 27.54-1.02 14.34 0 23.16.78.72.06 1.08.36.36.3.36.84 0 .48-.24.96l-1.08 2.04zm24.24-12.36l-3.72-4.38q-.24-.3-.36-.54l.3 19.98q0 .84-.48 1.32-.48.48-1.32.48h-1.2q-.84 0-1.32-.48-.48-.48-.48-1.32l.3-19.86q-1.92 5.82-4.26 9.72-.6.96-1.56.96-.36 0-.84-.18-.84-.42-1.56-.9-.72-.54-.72-1.26 0-.6.54-1.32Q78 42.72 79.65 39t3.03-8.34q-2.64.12-4.08.24-1.68.06-1.98-1.62l-.12-.72q-.12-.9.3-1.41.42-.51 1.32-.57 3.24-.18 5.82-.18l.12-7.5q0-1.8 1.8-1.8t1.8 1.8l.12 7.5q3.6.12 5.52.24.78.06 1.2.45.42.39.42 1.05 0 .36-.06.54l-.18.72q-.36 1.68-2.04 1.5-1.68-.18-4.8-.3l.12 6.96q.06-.18.36-.48.54-.42 1.02-.42.6 0 1.26.66 2.46 2.34 4.62 3.9.84.66.84 1.38 0 .66-.66 1.2l-.9.66q-.42.24-.9.24-.9 0-1.56-.84zm36.42 13.2q1.14.54 1.14 1.26 0 .6-.84 1.14-1.5.78-2.88 1.2-.48.12-.78.12-.78 0-1.56-.54-4.62-3.06-9.96-8.88-4.62 4.5-9.12 7.2-.84.48-1.56.48-.24 0-.72-.12-1.5-.42-2.58-1.02-.9-.54-.9-1.26 0-.84 1.26-1.44 5.28-2.22 10.92-6.9-4.62-5.52-7.74-10.5-1.5 5.52-3.75 10.5t-5.01 8.64q-.6.9-1.62.9-.24 0-.72-.12-1.2-.42-1.68-.66-.9-.48-.9-1.26 0-.54.66-1.32 5.16-5.4 8.01-13.86 2.85-8.46 3.81-16.38-1.92.12-3 .24l-1.38.12q-1.74.18-2.04-1.5l-.18-.96q-.06-.18-.06-.48 0-.66.42-1.05t1.2-.45q8.76-.6 17.04-.6h7.5q1.86.12 1.68 1.92l-.12 1.44q-.06.6-.24 1.08-.18.48-.6 1.08l-4.92 6.96q1.74-.06 5.34-.06h1.02q.84 0 1.32.48.48.48.48 1.32v1.26q0 1.32-.54 2.22-3.06 5.34-8.4 11.16 6.36 6.06 12 8.64zm-23.28-22.38q3.42 5.46 8.58 10.98 4.62-4.5 7.74-9.42-3.6 0-6.66.18-1.74.06-1.92-1.68l-.12-1.2q-.12-1.38.72-2.34 2.16-2.7 5.1-7.32-1.38-.06-4.68-.06-4.32 0-8.34.18-.3 4.62-1.44 9.78.6.18 1.02.9zm82.92-1.8q.66.06 1.05.42t.39.84q0 .48-.36 1.02l-.84 1.32q-.6 1.08-1.74 1.08-.36 0-.54-.06-6.18-1.26-14.04-1.26-2.1 0-3.18.06-1.38 3.06-2.46 4.8 4.56-.42 9.36-.42 3.18 0 7.14.18.96 0 1.38.51.42.51.3 1.41l-.18 1.2q-.18 1.26-1.14 2.16l-2.76 2.52q-3.72 3.42-5.22 4.98 3.6 1.62 6.24 2.64 1.14.48 1.14 1.38 0 .48-.36 1.02-.72.9-1.62 1.68-.6.48-1.2.48-.54 0-1.26-.42l-15.6-9.18q-1.02-.66-1.02-1.38 0-.36.3-.84.48-.78 1.32-.78.42 0 1.02.3 3.84 1.86 7.02 3.3 1.44-1.14 3.78-3.36 2.52-2.4 3.96-3.6-8.4-.18-16.26 1.32-.18.06-.54.06-1.14 0-1.74-1.2l-.72-1.5q-.24-.6-.24-.84 0-.72 1.02-1.56 1.8-1.38 3.66-4.62-3.84.36-5.88.66-1.74.18-2.1-1.44l-.18-.84q-.06-.18-.06-.54 0-1.32 1.56-1.5 4.5-.42 8.7-.54.96-2.22 1.8-4.8-3.3.18-6.54.66-1.74.3-2.1-1.44l-.18-.78q-.06-.18-.06-.48 0-1.44 1.56-1.62 3.84-.42 8.58-.54.78-2.82 1.2-4.56.3-1.38 1.56-1.38.36 0 .6.06h.06q1.68.48 1.38 1.74-.18.9-.96 4.02 6.48 0 11.94.48 1.56.18 1.56 1.56 0 .3-.06.48l-.12.78q-.3 1.74-2.04 1.44-5.1-.72-12.42-.6-.96 3.24-1.56 4.86h2.76q7.44 0 14.94.66zm-34.8 2.76q.9.06 1.35.57.45.51.33 1.35-.3 3.24-.3 9.12 0 5.16.24 8.04.06.78-.27 1.23-.33.45-1.05.45-.36 0-.54-.06-3-.48-5.82-.48-2.1 0-4.38.3-1.92.3-1.74-1.68.24-3.96.24-7.44 0-1.92-.12-5.4-.9 1.62-2.04 3.18-.72.9-1.68.9-.36 0-.6-.06-1.08-.3-1.8-.78-.78-.54-.78-1.2 0-.66.66-1.32 2.94-3.06 5.31-7.35 2.37-4.29 3.99-8.91-3.72.24-5.52.42-1.74.3-1.98-1.5l-.12-.84q-.24-1.8 1.56-1.98 5.1-.48 10.08-.48 3.96 0 7.08.24.9.06 1.29.6t.27 1.38l-.12.84q-.3 1.68-2.04 1.56-3.78-.3-6.9-.3-1.62 5.16-3.72 9.78 4.44-.24 6.48-.24 1.74 0 2.64.06zm-2.34 16.2q.06-.54.18-4.08.24-5.82.42-7.68-2.1-.48-3.96-.48-1.5 0-3.12.3.06.72.06 1.59 0 .87.06 1.77.3 7.62.48 8.82 2.58-.36 5.88-.24zm96.96-21.54q1.86.18 1.68 1.98l-.12 1.2q-.06.84-.57 1.29-.51.45-1.41.33-1.92-.24-6.24-.6.12 4.26.3 6.06.06.96-.42 1.41-.48.45-1.38.33-6.42-.84-14.76-1.02v1.02l.6.48q2.22 2.16 4.44 3.84.3-.18.78-.3 4.2-1.02 10.92-3 .6-.12.78-.12 1.02 0 1.38.9.12.36.12.54 0 .9-1.26 1.5l-8.1 3.48q5.64 3 12.84 4.44 1.26.24 1.26 1.14 0 .72-.9 1.44-1.44 1.02-2.7 1.68-.6.3-1.14.3-.36 0-1.2-.24-5.22-1.98-9.75-4.92t-8.01-6.48l.06 2.82q.06 4.74-.51 7.02-.57 2.28-1.89 2.94-1.2.6-2.43.87-1.23.27-3.09.39-1.44.12-2.22-1.02-.54-.84-.9-1.68-.12-.48-.12-.66 0-.66.51-1.02t1.29-.3l1.32.12q1.8-.06 2.64-1.02.84-.96 1.08-2.52.24-1.56.24-4.44-6.42 5.82-17.88 9.9-.84.24-1.2.24-.42 0-1.14-.3-1.38-.66-2.76-1.74-.72-.66-.72-1.26 0-.48.36-.84t1.08-.48q7.74-1.32 12.66-3.42 4.92-2.1 9.06-6 .18-.18.54-.42v-3q-8.88 0-15.6.42-1.62.06-2.04-1.44l-.3-1.02q-.12-.48-.12-.72 0-1.2 1.56-1.32 7.68-.54 16.5-.54v-2.76q-11.28.12-24.06 1.26-1.68.12-1.98-1.56l-.18-1.2q-.12-.84.27-1.38.39-.54 1.29-.6 14.28-.96 24.66-1.02v-3.84q-8.94 0-15.6.84-1.8.18-2.04-1.5l-.12-.72q-.12-.84.27-1.41t1.29-.63q7.26-.66 16.2-.78v-2.46q0-.84.48-1.32.48-.48 1.32-.48 1.8 0 1.8 1.8l.06 2.52q7.62 0 15.24.6 1.8.12 1.62 1.92-.24 3.78-.3 6 1.98.12 6.66.48zm-10.38-3.66q-4.98-.84-12.78-1.14l.06 3.72q8.22.12 12.54.36l.18-2.94zm-.6 10.38l.18-2.82q-5.64-.3-12.24-.42l.06 2.76q5.94.06 12 .48zm-25.68 12.66l-8.94-3.06q-1.32-.48-1.32-1.44 0-.24.12-.6.36-1.08 1.5-1.08.42 0 .66.06l2.52.54 7.26 1.38q.72.12 1.11.51.39.39.39.93 0 .3-.18.78-.24.66-.72 1.32-.54.84-1.5.84-.48 0-.9-.18zm54.9-24.96q-1.74 1.92-5.46 5.4-.78.78-1.62.78-.36 0-.72-.18-1.26-.54-1.68-.84-.78-.42-.78-1.2t.78-1.38q2.94-2.34 5.25-4.53 2.31-2.19 4.65-5.19.72-.84 1.5-.84.24 0 .96.24l.18.06q.96.48.96 1.5 0 .72-.54 1.62 3.72-.18 7.8-.18 3 0 4.56.06.78 0 1.2.36.42.36.42 1.02 0 .18-.12.66l-.24.78q-.42 1.56-2.04 1.5-3.12-.12-4.5-.12l-3 .06q1.8.96 2.34 1.2 1.02.54 1.02 1.38 0 .6-.42 1.08-.36.48-.84.84-.6.48-1.14.48-.72 0-1.38-.66l-2.16-1.92q-.78-.78-.78-1.38 0-.42.3-.84-1.26.06-3.54.3h-.3q-.42 0-.66-.06zm40.44-4.68q.78 0 1.2.36.42.36.42 1.02 0 .18-.12.66l-.24.78q-.42 1.56-2.04 1.5-2.88-.12-4.38-.12-1.44 0-4.32.12.48.24.93.45.45.21.81.39 1.02.54 1.02 1.38 0 .6-.42 1.08-.36.48-.84.84-.6.48-1.14.48-.72 0-1.38-.66l-2.16-1.92q-1.02-.96-.66-1.86-1.92.12-2.76.24h-.3q-.42 0-.66-.06-1.44 1.74-3.42 3.72-.78.78-1.62.78-.36 0-.72-.18l-1.68-.84q-.78-.42-.78-1.2t.78-1.38q2.28-1.86 3.87-3.51 1.59-1.65 3.39-3.93.66-.84 1.5-.84.18 0 .9.24l.18.06q.9.42.9 1.44 0 .6-.24 1.14 3.9-.24 9.24-.24 3.18 0 4.74.06zM269.7 33q.84.66.84 1.38 0 .48-.54 1.14-.84.72-1.26 1.02-.36.3-.9.3-.84 0-1.5-.78l-2.82-3.3q-.54-.66-.54-1.26 0-.54.48-1.2.48-.66 1.2-.66.54 0 1.2.48L269.7 33zm33.6-2.46q1.74.18 1.56 2.04-.36 3.66-.36 8.04v8.82q-.06 3.96-.18 5.58t-.63 2.76q-.51 1.14-1.83 2.1-.96.72-1.83 1.02-.87.3-2.31.42-1.56.12-2.22-1.26l-.78-1.56q-.18-.48-.18-.84 0-.6.42-.96t1.2-.36h1.92q1.44-.12 1.8-1.8.36-1.68.42-5.76l.06-2.52.3-11.22q-5.58-.48-9.96-.48-4.86 0-13.26.6-1.74.12-2.04-1.56l-.18-.96q-.06-.18-.06-.48 0-.66.42-1.05t1.2-.45q8.76-.54 15.66-.54 5.76 0 10.86.42zm-40.68 6.06q.9 0 1.38.45.48.45.48 1.35l.48 20.4q0 1.8-1.74 1.8h-1.2q-1.74 0-1.74-1.8l.48-20.4q0-.9.48-1.35.48-.45 1.38-.45zm32.4 3.42q-.72 5.58-.72 9.36 0 1.92.18 4.26.06.96-.42 1.41-.48.45-1.2.33-4.92-.6-9.3-.6-4.74 0-11.34.66-.96.06-1.41-.39-.45-.45-.39-1.41.24-4.32.24-5.7 0-2.94-.48-7.74-.12-.9.33-1.41.45-.51 1.35-.57 6.72-.3 13.86-.3 3.12 0 7.68.12.9 0 1.32.51.42.51.3 1.47zm-3.96 2.76q-3.12-.42-8.22-.42-4.86 0-9 .36l.18 1.56q3.66-.24 8.46-.24 4.38 0 8.34.18l.24-1.44zm-16.62 7.98q3.54-.3 9.78-.3 2.88 0 6.24.12 0-1.08.06-1.86-3.3-.24-7.74-.24-5.04 0-8.46.3.06.54.06 1.05t.06.93zm94.26-4.26q.84.54.84 1.26 0 .84-1.08 1.5-1.2.72-2.64 1.14-.24.06-.66.06-.9 0-1.62-.78-3.72-3.72-7.08-8.43-3.36-4.71-5.58-8.85l.24 15.66q3.42 0 9.54.24 1.56.12 1.56 1.5 0 .36-.06.6l-.12.42q-.48 1.56-2.1 1.38-4.92-.42-8.76-.42l.12 7.14q0 .84-.48 1.32-.48.48-1.32.48h-1.2q-.84 0-1.32-.48-.48-.48-.48-1.32l.12-7.08q-4.02.06-8.16.66-1.74.18-2.1-1.5l-.06-.36q-.06-.18-.06-.48 0-1.38 1.62-1.56 4.92-.42 8.82-.48l.18-14.82q-2.16 4.2-5.4 8.73t-7.02 8.19q-.72.72-1.56.72-.42 0-.9-.18-.72-.3-2.04-1.14-.84-.66-.84-1.32t.84-1.32q9.96-7.08 15.06-17.7-5.16.3-10.02 1.08-1.8.3-2.16-1.38l-.12-.6q-.06-.18-.06-.48 0-1.38 1.56-1.56 8.52-.78 12.78-.9l.12-6.54q0-1.8 1.8-1.8t1.8 1.8l.12 6.42h2.28q6.78 0 13.5.48 1.56.12 1.56 1.38 0 .48-.12.72l-.3.78q-.54 1.56-2.16 1.32-6.18-.78-12.48-.9 2.34 4.68 6.18 9.24 3.84 4.56 9.42 8.16zm-41.88-16.02q.18.36.18.9l.48 27.54q0 1.8-1.74 1.8h-1.2q-1.74 0-1.74-1.8l.42-23.7q-.78.96-2.34 2.64-.78.78-1.62.78-.18 0-.66-.12-1.5-.54-2.52-1.2-.72-.54-.72-1.2 0-.78.96-1.44 4.32-2.82 7.53-6.78 3.21-3.96 5.91-8.7.54-1.02 1.38-1.02.48 0 .9.24 1.02.54 1.02 1.38 0 .3-.18.66-2.46 4.92-6.06 10.02z"/></svg>