<svg viewBox="0 0 448 80" xmlns="http://www.w3.org/2000/svg"><path d="M18.66 17.56h46.8v3.9h-46.8v-3.9zm2.94 19.92h40.92v3.9H21.6v-3.9zm-6 22.32h52.86v3.9H15.6v-3.9zm79.32-14.7q-3.66-2.04-6.42-6v28.14h-6.6V43.72q-2.88 4.74-7.74 8.34v-3.9q2.34-3.06 3.93-7.38 1.59-4.32 2.37-12.12h-5.7v-3.9h7.14V13.12h6.6v11.64h6.78v3.9h-5.52q1.62 7.92 5.16 12.54v3.9zM129 63.34v3.9q-3.18-.96-7.62-3.63-4.44-2.67-8.7-6.63-4.08 3.6-8.4 6.15-4.32 2.55-7.44 3.63v-3.9q7.26-4.14 12.42-9.3-3.54-3.84-6.3-8.52-1.68 8.52-5.16 13.65-3.48 5.13-8.22 8.61v-3.9q2.22-2.94 3.96-6.75 1.74-3.81 2.94-10.74t1.2-17.43v-8.64h-5.76v-3.9h30.6v3.9q-.36 2.82-1.5 6-1.14 3.18-2.58 5.94h7.38v3.9q-1.98 9.54-9.48 17.7 3.42 3.48 6.87 6.06 3.45 2.58 5.79 3.9zM104.28 31q1.68 9.72 8.64 18.48 5.1-6.66 6.3-13.8h-7.8v-3.9h2.1q1.86-6.66 2.34-11.94h-11.58V31zm63 30.06h22.08v3.9h-54.72v-3.9h8.4V29.98h6.6v31.08h11.04V20.08h-23.7v-3.9h50.04v3.9h-19.74v17.16h18.24v3.9h-18.24v19.92zm75.42-18.42v24h-41.34v-23.4q-3.36 1.68-6.6 2.58v-3.9q3.72-1.44 6.99-4.38t4.83-6.24h-11.16v-3.9h12.18v-5.28h-4.26q-2.82 2.58-7.14 4.38v-3.9q2.28-1.62 4.17-4.17 1.89-2.55 2.73-5.73h6.6q-1.14 3-2.88 5.52h15.9v3.9h-8.52v5.28h9.78v3.9h-9q.9 2.04 2.94 3.51 2.04 1.47 5.88 3.27v3.9q-2.4-.12-6.15-1.89-3.75-1.77-6.45-4.35-3.12 3.84-8.76 6.9h40.26zm3.78-25.38v22.62H225V17.26h21.48zM231.6 35.98h8.28V21.16h-8.28v14.82zm-23.64 10.56v5.7h28.14v-5.7h-28.14zm0 16.2h28.14v-6.6h-28.14v6.6zm100.5-12.24v3.9H255.6v-3.9h23.1v-4.8h-19.98v-3.9h19.98v-5.1h-19.38V15.28h45.42V36.7H285.3v5.1h20.04v3.9H285.3v4.8h23.16zm-42.54-17.7h12.78V19.18h-12.78V32.8zm32.22 0V19.18H285.3V32.8h12.84zm-24.9-11.4l5.22 9.6h-5.1l-6.72-9.6h6.6zm17.4 9.6h-5.1l5.22-9.6h6.6l-6.72 9.6zm11.76 25.2l6.18 10.5h-5.1l-7.68-10.5h6.6zm-46.68 10.56l5.58-10.5h6.6l-7.08 10.5h-5.1zm26.88-10.5h6.6l6.18 10.5h-5.1l-7.68-10.5zm-12.6.3h6.6l6.18 10.5h-5.1L270 56.56zm56.52-34.68q-2.4 3.12-5.34 4.98-2.94 1.86-6.42 3.3v-4.2q3.66-2.34 5.85-5.28 2.19-2.94 3.57-7.98h6.6q-.72 3-1.86 5.28h13.5v3.9h-9.36l3.72 6.3h-5.1l-4.92-6.3h-.24zm25.86-3.9h16.5v3.9h-11.16l3.72 6.3h-5.1l-4.92-6.3h-1.44q-2.22 2.82-4.68 4.32-2.46 1.5-5.64 2.82v-4.2q5.28-2.16 7.98-12.12h6.6q-.66 2.82-1.86 5.28zm-25.5 9.84l4.62 7.8h-5.1l-6.12-7.8h6.6zm6 5.28v-3.9h31.98v37.68h-15.24v-3.9h8.64V33.1h-25.38zM319.2 67.24V35.5h6.6v31.74h-6.6zm34.74-7.2h-23.4V37.66h23.4v22.38zm-6.6-18.48h-10.2v5.34h10.2v-5.34zm-10.2 14.58h10.2V50.8h-10.2v5.34zm79.62-28.8q2.22 9 5.73 16.23 3.51 7.23 7.23 11.55v3.9q-2.94-1.68-6.33-5.25-3.39-3.57-6.6-8.88-3.21-5.31-5.25-11.79v20.22h10.74v3.9h-10.74v10.02h-6.6V57.22h-10.26v-3.9h10.26V33.16q-2.7 9.54-7.32 16.11t-9.78 9.75v-3.9q4.02-4.44 6.78-11.16 2.76-6.72 4.98-16.62h-10.02v-3.9h15.36V13.12h6.6v10.32h16.5v3.9h-11.28zM391.08 13.3q-1.2 9.24-4.08 15.24v38.7h-6.6v-30q-2.64 2.16-5.64 3.48v-4.5q3.6-3.06 6.21-9.27 2.61-6.21 3.51-13.65h6.6z"/></svg>