<svg viewBox="0 0 300 80" xmlns="http://www.w3.org/2000/svg"><path d="M19.16 18.94q5.04.6 14.82.6 11.46 0 15.78-.78l-1.26 2.82q-5.04-.6-14.76-.6-11.34 0-15.78.78l1.2-2.82zm2.1 19.2q5.04.6 12.84.6 9 0 13.32-.78l-1.26 2.82q-5.04-.6-12.78-.6-8.88 0-13.32.78l1.2-2.82zm-4.08 21q5.04.6 16.8.6 13.86 0 18.18-.78l-1.26 2.82q-5.04-.6-16.74-.6-13.74 0-18.18.78l1.2-2.82zm51.66-12.96q0 9.3.12 13.38t.6 7.38h-3q.48-2.52.6-5.13t.12-6.87V33.58l-.78 3.12q-2.16 8.28-4.5 14.7l-1.68-2.1q1.5-2.22 2.52-5.19t2.22-7.83q.78-3.18 1.14-5.13.36-1.95.48-3.99-2.52.06-6.06.72l1.2-2.82q2.88.48 5.46.6v-2.7q0-3.06-.15-5.04t-.51-3.66l3.54-1.38-.84 1.62q-.48 2.76-.48 7.68v3.48q3.06-.06 7.02-.78L74.6 27.7q-3.06-.48-5.76-.6v8.22l2.1-.24q.6 2.04 1.83 4.26 1.23 2.22 3.21 4.14l-2.64 1.44q-1.74-5.16-4.5-8.46v9.72zm27.78 20.28q-2.34-2.34-4.95-5.55-2.61-3.21-4.59-6.33-4.38 6.9-10.68 12.24l-1.26-2.22q4.08-2.34 6.48-5.04 2.4-2.7 4.5-6.54-.96-1.74-1.62-3.24-3.72-9.06-5.1-15.48-.54 19.14-7.32 30.9l-1.86-1.56q4.02-5.28 5.85-13.14t1.83-19.98v-6.96q0-2.94-.36-4.02-2.1.18-4.44.54l1.2-2.82q5.04.6 9.96.6 5.52 0 9.84-.78l-.9 2.4q-1.68 4.44-2.55 7.29-.87 2.85-1.17 6.09.84.18 1.56.18.96 0 5.1-.66l.3-.12h.06q-1.08 2.4-2.28 6.18-1.32 4.02-2.58 7.14t-3.12 6.48l-.54.96q2.1 3.48 4.71 6.42t5.43 4.62l-1.5 2.4zm-9.54-15.18l.12-.24q2.64-4.86 3.63-8.28.99-3.42 1.83-8.16-.3-.06-.96-.06-1.32 0-5.64.78 1.92-5.4 2.91-8.52.99-3.12 1.83-7.14-4.5-.36-7.86-.36-2.04 0-3 .06-.3 1.2-.39 1.98-.09.78-.09 2.7.24 4.98 1.77 11.37Q82.76 41.8 85.94 49l1.14 2.28zm36.48-23.82q-3-.6-5.04-.6-.66 0-2.22.12-.24 1.8-.33 3.6-.09 1.8-.09 5.1v16.08q0 6.6.12 9.45.12 2.85.54 5.19h-3q.48-2.16.63-4.56.15-2.4.15-7.56v-19.2q0-3-.09-4.68-.09-1.68-.39-3.18l-.84.18q-1.8 4.38-3.9 8.94l-1.26 2.76-2.76-1.08q2.22-2.46 3.93-5.76t3.21-7.5q1.26-3.72 1.62-5.46.36-1.74.66-5.7l3.18-1.62h.06q-.54 1.68-1.74 6.06-.96 3.96-2.1 7.02 1.86.36 3.78.36 2.28 0 7.14-.78l-1.26 2.82zm19.74 0q-3.12-.6-6.6-.6-.36 2.82-.45 5.46-.09 2.64-.09 11.52v10.32q0 5.34-1.17 7.71t-2.85 2.85q-1.68.48-5.34.72l-1.92.12 1.14-4.8.78 2.1q2.22.42 3.42.42 1.5 0 2.46-.75t1.44-2.73q.48-1.98.48-5.64v-15.3q0-5.64-.09-7.86-.09-2.22-.45-4.08-3.54.24-6.06.66-1.5 4.32-3.96 10.02l-2.76-1.02q2.22-2.52 3.39-4.92t2.49-6.66q1.2-3.78 1.53-5.52.33-1.74.57-5.7l3.12-1.68h.06q-.78 2.82-1.56 5.88-1.14 4.56-1.92 6.9 2.7.54 6.54.54 4.74 0 9.06-.78l-1.26 2.82zm34.5 28.02q2.52 3.18 5.16 5.19 2.64 2.01 6 3.27l-.84 2.94q-3.36-2.34-6.09-4.68t-5.25-5.46q-2.28 2.76-5.16 5.07-2.88 2.31-7.14 5.13l-.96-2.88q4.08-1.8 7.05-3.78 2.97-1.98 5.31-4.74l-.48-.66q-2.46-3.42-4.08-7.53t-2.46-8.01h.18l2.76 1.8q.12 3.12 1.38 6.45 1.26 3.33 3.66 6.63.96-1.32 2.04-3.24 1.68-3.12 2.7-6.36 1.02-3.24 1.8-7.08-3.24-.48-7.38-.48-5.34 0-10.32.78l1.2-2.82q3.9.6 8.76.6.54-2.7.54-7.98v-3.18q-6.24.12-10.08.72l1.2-2.82q3 .48 8.88.6l.06-3.18q0-4.86-.72-6.3l3.54-1.26-.84 1.5q-.48 1.5-.48 6.36v2.88q6.96 0 11.76-.78L188.24 25q-3.6-.6-10.5-.6v2.88q0 .66.06 3.48t.36 4.8q4.98-.12 8.52-.72l-1.02 3.12q-1.38 4.44-2.61 7.74t-3.21 6.66q-1.02 1.74-2.04 3.12zm-17.22-9.3q0 9.3.12 13.38t.6 7.38h-3q.48-2.52.6-5.13t.12-6.87V34.72q-.3 1.32-.6 2.28-1.74 6.24-4.62 14.16l-2.04-1.8q1.68-2.64 2.85-5.55 1.17-2.91 2.37-7.23.78-2.88 1.14-5.01.36-2.13.48-4.47-2.1.06-6.24.78l1.2-2.82q3.9.6 5.46.6v-2.7q0-3.06-.15-5.04t-.51-3.66l3.54-1.38-.84 1.62q-.48 2.76-.48 7.68v3.42q1.62-.12 5.28-.72l-1.26 2.82q-2.88-.42-3.96-.54l-.06.36v7.98l2.04-.24q.6 2.04 1.83 4.26 1.23 2.22 3.21 4.14l-2.64 1.44q-1.74-5.22-4.44-8.34v9.42zm61.02-27.54q2.34.36 4.98.36 3.66 0 8.22-.72l-1.26 2.82q-2.58-.6-5.88-.6-3.36 0-7.02.6-.12.36-1.68 3.72l-1.56 3.42-2.04-1.08q1.2-1.26 1.86-2.49.66-1.23 1.17-2.46.51-1.23.69-1.71 1.5-3.66 1.5-5.22 0-.72-.3-1.62l3.18-1.62h.06q-.42 1.32-.66 2.16-.24.84-.36 1.32-.48 1.92-.9 3.12zm-5.4 2.46q-2.64-.6-5.46-.6-2.58 0-6.18.54-1.68 3.42-3.06 5.64l-1.56 2.64-1.92-1.26q1.56-1.38 2.37-2.7.81-1.32 2.61-4.86 1.08-2.22 1.53-3.39.45-1.17.45-2.07 0-.66-.18-1.26l3.3-1.32h.06l-1.2 3-1.32 3.24q2.22.3 4.08.3 3.06 0 7.74-.72l-1.26 2.82zm-6.42.9q.3 1.56.96 2.61.66 1.05 2.04 2.73l-2.76 1.14q-.54-2.22-1.17-3.51-.63-1.29-2.13-2.97h3.06zm16.14 0q.3 1.56.96 2.61.66 1.05 2.04 2.73l-2.76 1.14q-.54-2.22-1.17-3.51-.63-1.29-2.13-2.97h3.06zm-20.76 5.7q.78 2.04 1.74 3.54t2.94 3.3l-2.52 1.56q-.96-2.52-2.04-4.29t-3.12-3.63l3-.48zm7.08 2.1q4.32.72 9.66.72 5.64 0 9.9-.72l-.06.3q-.42 2.04-.54 3.6-.12 1.56-.12 4.44l.06 11.82v4.44q0 5.46-.72 7.8t-1.95 2.82q-1.23.48-4.29.66l-1.92.12 1.14-4.8.78 2.1q2.1.42 2.82.42 1.08 0 1.62-.72t.75-2.64q.21-1.92.21-5.76V40.72q0-3.66-.06-5.07-.06-1.41-.36-2.97-4.56-.54-9.84-.54-4.8 0-8.52.54l1.44-2.88zm-8.46 7.32q-.36 2.04-.45 3.39-.09 1.35-.09 3.45v7.32q0 5.16.12 8.61.12 3.45.6 6.63h-3q.72-4.02.72-10.38v-6.96l.06-6.12q0-1.86-.15-3.21-.15-1.35-.51-2.97l3.54-1.38-.84 1.62zM224 59.38q-4.44-.78-7.56-.78-3.18 0-7.62.78v-.12q.78-2.7.78-10.32 0-7.26-.72-9.84l-.06-.3q4.98.78 7.62.78 2.58 0 7.56-.78l-.06.18q-.36 1.2-.54 3.99-.18 2.79-.18 6.09 0 6.84.66 9.96l.12.36zm-2.58-17.94q-2.52-.42-5.22-.42-2.28 0-4.8.36-.24 2.58-.36 6.48 2.46.6 5.46.6 2.76 0 5.28-.54-.12-3.96-.36-6.48zm-10.02 15.3q3.18.42 5.04.42 1.92 0 5.04-.42.3-2.82.3-6.36-2.88-.48-5.16-.48-2.58 0-5.58.54.12 4.62.36 6.3zm58.32-18.6q-2.04-4.92-3.06-8.22v24q3.12 0 7.98-.78l-1.26 2.82q-4.14-.48-6.72-.54.12 7.2.72 11.58h-3q.72-4.32.72-9.78v-1.86q-3.72 0-8.22.78l1.2-2.82q4.32.48 7.02.54V29.14q-1.02 3.42-3.54 9.96-1.62 4.26-4.05 9.24-2.43 4.98-4.77 8.46l-1.44-2.46q2.94-3 4.77-6.57 1.83-3.57 4.11-9.33.18-.48.39-.99.21-.51.45-1.11 1.32-3.36 2.04-5.52.72-2.16 1.02-4.38-6.6.12-10.92.78l1.2-2.82q4.26.48 10.74.6l.06-3.78q0-4.86-.66-7.44l3.54-1.38-.84 1.62q-.54 3.42-.54 8.34V25q8.64 0 13.08-.78l-1.26 2.82q-4.38-.48-10.98-.6.36 2.28 1.08 4.41.72 2.13 2.16 5.73.36.72.96 2.28 2.1 5.16 3.9 8.46 1.8 3.3 5.04 6.66l-1.56 2.58q-5.88-9.6-8.82-17.04l-.54-1.38zm-19.08 10.5q0 7.5.12 11.31.12 3.81.6 7.05h-3q.48-2.52.6-5.04t.12-6.24v-9.18l.06-8.64q0-1.92-.12-4.68-1.08 3.06-2.13 5.58-1.05 2.52-2.37 5.46l-2.76-1.68q2.22-2.7 3.63-5.46 1.41-2.76 3.09-7.44v-.06h.06l.54-1.62q1.02-3.12 1.5-6.12t.36-6.6l3.78-2.52.12-.06q-1.56 5.04-2.52 9.42-.24.84-.75 2.82t-.99 3.54l-.12.36 1.56-.6-.84 1.62q-.36 1.98-.45 3.99-.09 2.01-.09 5.31v9.48z"/></svg>