<svg viewBox="0 0 507 80" xmlns="http://www.w3.org/2000/svg"><path d="M49.18 28.08l-30.42-.42q-1.5 0-2.31-.78t-.81-1.86q0-1.14.87-1.95t2.43-.75l30.48.36q1.26.06 2.01.93.75.87.75 1.95t-.75 1.8q-.75.72-2.25.72zm0-1.2q.96 0 1.41-.39.45-.39.45-.99t-.45-1.08q-.45-.48-1.17-.54l-30.48-.36q-1.02-.06-1.56.39t-.54 1.11q0 .6.51 1.02.51.42 1.41.42l30.42.42zm-3.06 11.7q1.5 0 2.25.75t.75 1.83q0 1.14-.75 1.98-.75.84-2.01.78l-23.88-.18q-1.56-.06-2.43-.84-.87-.78-.87-1.92 0-1.08.81-1.83t2.31-.75l23.82.18zm0 1.2L22.3 39.6q-.9 0-1.41.39-.51.39-.51.99t.57 1.05q.57.45 1.53.51l23.88.18q.72.06 1.17-.42.45-.48.45-1.08 0-.6-.48-1.02-.48-.42-1.38-.42zM18.88 55.62l30.3-2.22q1.56-.12 2.46.66.9.78.9 1.92 0 1.08-.78 1.89-.78.81-2.28.87l-30.36 2.28q-1.32.06-2.19-.81-.87-.87-.87-2.07 0-.96.72-1.71t2.1-.81zm.12 1.2q-.9.06-1.32.45-.42.39-.42.99t.51 1.11q.51.51 1.23.45l30.36-2.28q.96-.06 1.47-.51t.51-1.05q0-.6-.57-1.02-.57-.42-1.47-.36L19 56.82zm98.52-3.9q2.04 1.02 2.04 2.76 0 1.02-.78 1.77t-1.86.75q-.78 0-1.56-.42l-3.24-1.68q-3.78 3.48-8.94 4.2l-1.74.06q-1.38.06-2.19-.63t-.81-1.65q0-.96.78-1.71t2.16-.81l1.74-.06q2.04-.12 4.08-1.8l-8.4-4.14q-.96-.54-1.47-1.26t-.51-1.5q0-1.02.75-1.77t1.89-.75q.66 0 1.62.48h-.06l9.42 4.68q1.44-3 1.44-5.58 0-2.94-1.74-4.38-.96-.72-2.88-1.17-1.92-.45-3.78-.33l-1.08.06q-1.38.06-2.19-.66t-.81-1.8q0-.96.72-1.68t2.1-.78l1.2-.06.9-.06q.78-.9 1.32-2.76.54-1.86.54-3.78 0-1.56-2.82-1.56h-5.28q.84.72.84 2.16 0 .54-.06.84l-.78 3.6q-1.74 8.34-3.12 14.28-1.38 5.94-2.94 9.66-.48 1.56-1.38 2.37-.9.81-1.92.81-.96 0-1.62-.69-.66-.69-.66-1.89 0-.84.36-1.8 1.5-3.78 2.82-9.57 1.32-5.79 3.24-14.97l.54-2.7q.36-1.38 1.26-2.1h-2.82q-1.68.06-2.67-.75t-.99-1.95q0-1.08.96-1.89.96-.81 2.7-.81h12.06q3.6 0 5.52 1.62 1.92 1.62 2.16 4.92 0 4.5-1.44 7.92 3.36 1.26 5.25 4.17 1.89 2.91 1.89 6.51 0 3.54-1.92 7.2l2.16 1.08zm-1.56 3.78q.6.3 1.02.3.6 0 .99-.39t.39-.93q0-1.02-1.32-1.68l-3.36-1.68q2.34-3.66 2.34-7.68 0-3.6-1.98-6.33t-5.52-3.63q1.86-3.6 1.86-8.64-.24-2.76-1.8-4.05t-4.68-1.29H91.84q-1.2 0-1.83.45-.63.45-.63 1.05 0 .66.66 1.11.66.45 1.8.39h11.52q1.92 0 2.97.72 1.05.72 1.05 2.04 0 1.98-.63 4.32-.63 2.34-1.89 3.42l-2.52.12q-.84.06-1.32.42-.48.36-.48.9 0 .48.48.87t1.26.33l1.08-.06q2.04-.12 4.23.39 2.19.51 3.27 1.35 2.22 1.8 2.22 5.34 0 3.42-2.16 7.14l-10.38-5.16h-.06q-.48-.3-1.08-.3-.6 0-.99.36t-.39.9q0 1.02 1.32 1.68l9.9 4.86q-1.38 1.56-2.97 2.43-1.59.87-3.15.93l-1.74.06q-.84.06-1.29.42-.45.36-.45.84t.48.84q.48.36 1.32.3l1.62-.06q5.28-.78 8.82-4.44l4.08 2.04zM85.24 42.66q1.68.84 1.68 2.58 0 1.02-.72 1.8t-1.86.78q-.78 0-1.86-.54l-.9-.48-.06 8.1q0 1.5-.78 2.34-.78.84-1.86.84-1.14 0-2.01-.9-.87-.9-.75-2.34v.06l.06-7.98q-2.82 2.76-4.98 4.2-1.02.72-2.16.72-1.08 0-1.77-.75t-.69-1.77q0-.72.36-1.38.36-.66 1.08-1.14 3.36-2.28 8.16-7.5v-3.18l-5.64-.3q-1.5-.18-2.28-.99-.78-.81-.78-1.83 0-1.14.9-1.95t2.46-.63l5.4.3v-5.94q.12-1.5.93-2.31t1.83-.81q1.14 0 1.95.87t.69 2.37v6.18l4.98.3q1.44.18 2.25 1.02.81.84.81 1.86 0 1.14-.87 1.92t-2.43.6l-4.8-.24v4.26l3.66 1.86zm-2.16 3.54q.72.36 1.26.36.66 0 1.02-.39t.36-.93q0-1.02-1.02-1.5l-4.32-2.22v-6.3l6.12.36q.96.06 1.47-.33t.51-.99q0-.6-.54-1.11-.54-.51-1.44-.57l-6.06-.42v-7.38q.06-.9-.36-1.41-.42-.51-1.02-.51-.6 0-1.08.51-.48.51-.54 1.53v7.14l-6.72-.42q-.96-.12-1.5.3T68.68 33q0 .6.51 1.08.51.48 1.47.54l6.72.42v4.74q-5.04 5.64-8.64 7.98-.96.6-.96 1.56 0 .54.36.93t.96.39q.66 0 1.38-.48 3.06-2.1 6.9-6.18l-.06 10.92v.06q-.06.9.39 1.44.45.54 1.11.54.6 0 1.05-.54.45-.54.45-1.5l.06-10.14 2.7 1.44zm14.58-18.54q.06-.18.06-.54 0-.78-.39-1.23-.39-.45-.99-.45-.54 0-1.02.48t-.72 1.32L94.06 30q-1.92 9.36-3.27 15.12t-2.91 9.54q-.24.66-.24 1.32 0 .72.33 1.11.33.39.81.39.6 0 1.2-.63t.96-1.77q1.44-3.72 2.91-9.87 1.47-6.15 3.09-13.95l.72-3.6zM171.4 52.2q1.56 0 2.46.78.9.78.9 1.8t-.81 1.77q-.81.75-2.31.87l-24.96.24q.48.3.75.84t.27 1.26q0 .72-.24 1.38l-1.74 4.2q-.54 1.2-1.32 1.8-.78.6-1.62.6-1.08 0-1.8-.72t-.72-1.8q0-.78.3-1.38l1.92-4.32q.6-1.26 1.56-1.86l-7.98.06q-1.68.06-2.58-.75-.9-.81-.9-1.95 0-1.08.81-1.86t2.19-.78h3.6V31.2q0-2.7 2.52-4.02 2.52-1.32 7.62-1.32h2.76l.42-2.76-12.66-.78q-1.68-.12-2.61-.99-.93-.87-.93-2.01 0-1.08.78-1.74.78-.66 2.22-.6l14.1.9.42-2.76q.24-1.32.99-2.04t1.71-.72q1.08 0 1.8.78t.72 2.16q0 .54-.06.84l-.36 2.16 11.16.72q1.62.12 2.55.9.93.78.93 1.8 0 .9-.78 1.59-.78.69-2.28.93l-12.36-.78-.36 2.4h7.38q2.76 0 4.68 1.74t1.92 4.2v20.4h-.06zm.24 4.02q.96-.06 1.47-.48t.51-.96q0-.54-.6-.96-.6-.42-1.62-.42h-1.14V31.8q0-1.98-1.56-3.36t-3.84-1.38h-8.82l.84-4.92 13.32.9q.9-.12 1.38-.51.48-.39.48-.81 0-.54-.63-.99-.63-.45-1.77-.51l-12.36-.84.48-3.48q.06-.24.06-.66 0-.78-.36-1.23-.36-.45-.9-.45t-.99.48q-.45.48-.57 1.32l-.66 3.84-15.18-1.02q-.78-.06-1.2.27-.42.33-.42.87 0 .66.63 1.2.63.54 1.77.6l13.98.9-.9 5.04h-3.72q-4.62 0-6.78 1.02t-2.16 3.12v22.38h-4.8q-.84 0-1.32.42-.48.42-.48 1.02 0 .66.6 1.11.6.45 1.68.39l35.58-.3zm-8.52-26.16q1.74 0 2.94 1.11t1.2 2.73v6.78l-12.48-.36q-.84-.06-1.32.33-.48.39-.48.99 0 .66.6 1.11.6.45 1.68.51l12 .24v9.9l-23.88.12v-3.96l17.7.3q.96-.06 1.47-.45t.51-.93q0-.54-.6-.96-.6-.42-1.62-.48l-17.46-.36V37.2l17.88.3q.96-.06 1.47-.48t.51-.9q0-.54-.6-.96-.6-.42-1.62-.48l-17.64-.42v-.96q0-1.38 2.34-2.31 2.34-.93 5.34-.93h12.06zm2.94 9.42V33.9q0-1.14-.84-1.89t-2.1-.75h-12.06q-1.98 0-3.99.57-2.01.57-2.43 1.23l16.38.42q1.56.06 2.46.81.9.75.9 1.83 0 .96-.81 1.71t-2.31.87l-16.68-.3v7.08l16.26.36q1.56.06 2.46.84.9.78.9 1.8 0 .96-.81 1.71t-2.31.87l-16.5-.3v1.56l21.48-.12v-7.5l-10.8-.24q-1.68-.06-2.58-.87-.9-.81-.9-1.95 0-1.08.81-1.83t2.19-.69l11.28.36zm2.52 20.34l2.1 4.14q.42.78.42 1.56 0 1.08-.78 1.86t-1.8.78q-1.86 0-2.88-2.22l-1.86-4.02q-.36-.9-.36-1.62 0-1.14.69-1.86.69-.72 1.65-.72.78 0 1.53.54t1.29 1.56zm-22.2.96q.12-.36.12-.9 0-.72-.3-1.08-.3-.36-.78-.36-.48 0-.99.39t-.87 1.17l-1.92 4.32q-.18.48-.18.84 0 .6.39.96t.87.36q.54 0 1.05-.42t.87-1.2l1.74-4.08zm20.34 4.68q.66 1.5 1.8 1.5.54 0 .93-.42t.39-1.02q0-.48-.24-.96l-2.1-4.26q-.66-1.38-1.74-1.38-.48 0-.81.39-.33.39-.33.99t.24 1.14l1.86 4.02zm41.52-40.98q-1.5-.06-2.31-.78t-.81-1.8q0-1.08.96-1.92.96-.84 2.58-.84l4.5.12-.06-1.32q-.18-1.86.6-2.91t1.98-1.05q1.02 0 1.83.84t.87 2.4l.12 2.16 8.82.3.6-2.64q.3-1.38 1.11-2.1.81-.72 1.77-.72 1.02 0 1.74.81t.72 2.19q0 .6-.18 1.32l-.3 1.26 4.98.18q1.44.06 2.25.81t.81 1.77q0 1.14-.93 1.98-.93.84-2.55.78l-5.7-.18-.6 2.7q-.3 1.26-1.02 1.89-.72.63-1.62.63-1.14 0-2.01-.81-.87-.81-.81-2.01l.6-2.52-7.32-.24.18 3.12q-.12 1.14-.96 1.83-.84.69-1.86.69t-1.77-.75q-.75-.75-.81-2.19l-.12-2.82-5.28-.18zm0-1.2l6.36.18.24 3.9q.06.96.48 1.41.42.45 1.02.45.54 0 .99-.39.45-.39.51-.99l-.3-4.26 10.08.24-.84 3.84q.06.66.51 1.11.45.45.99.45t.96-.42q.42-.42.6-1.2l.84-3.66 6.66.18q1.08.06 1.68-.39.6-.45.6-1.11 0-.6-.48-.99t-1.38-.45l-6.42-.18.54-2.7q.12-.42.12-1.08 0-.84-.36-1.32-.36-.48-.84-.48-.54 0-.99.48-.45.48-.69 1.38l-.84 3.6-10.86-.3-.24-3.24q-.06-1.02-.51-1.59-.45-.57-.99-.57-.66 0-1.08.69-.42.69-.3 1.95l.18 2.64-5.82-.12q-1.08 0-1.71.45-.63.45-.63 1.11 0 .54.48.93t1.44.45zM188.2 40.2v-9.66q0-2.22 1.68-3.6t4.38-1.38h6.54q2.7 0 4.44 1.38 1.74 1.38 1.74 3.6v9.66q0 2.46-1.68 3.93-1.68 1.47-4.5 1.47h-6.54q-2.76 0-4.41-1.47-1.65-1.47-1.65-3.93zm1.2 0q0 1.98 1.29 3.09 1.29 1.11 3.57 1.11h6.54q2.28 0 3.63-1.14t1.35-3.06v-9.66q0-1.68-1.38-2.73t-3.6-1.05h-6.54q-2.22 0-3.54 1.02-1.32 1.02-1.32 2.76v9.66zm2.94-1.8v-5.88q0-1.32.96-2.1t2.64-.78h3.24q1.74 0 2.7.78.96.78.96 2.1v5.88q0 1.5-.99 2.34-.99.84-2.67.84h-3.24q-1.68 0-2.64-.84-.96-.84-.96-2.34zm1.2 0q0 .96.63 1.47t1.77.51h3.24q2.46 0 2.46-1.98v-5.88q0-1.68-2.46-1.68h-3.24q-2.4 0-2.4 1.68v5.88zm15.36 15.9V37.74q0-2.58 1.74-4.29t4.38-1.71h17.82q2.64 0 4.38 1.71 1.74 1.71 1.74 4.29V54.3q0 2.58-1.74 4.32-1.74 1.74-4.38 1.74h-17.82q-2.64 0-4.38-1.74-1.74-1.74-1.74-4.32zm1.2 0q0 2.1 1.41 3.48t3.51 1.38h17.82q2.1 0 3.51-1.38 1.41-1.38 1.41-3.48V37.74q0-2.1-1.38-3.45t-3.54-1.35h-17.82q-2.16 0-3.54 1.35t-1.38 3.45V54.3zm3-2.34V40.14q0-1.74 1.23-2.97 1.23-1.23 2.97-1.23h13.14q1.8 0 3.03 1.2 1.23 1.2 1.23 3v11.82q0 1.8-1.23 3t-3.03 1.2H217.3q-1.74 0-2.97-1.23-1.23-1.23-1.23-2.97zm1.2 0q0 1.32.84 2.16.84.84 2.16.84h13.14q1.32 0 2.19-.84.87-.84.87-2.16V40.14q0-1.32-.87-2.16-.87-.84-2.19-.84H217.3q-1.32 0-2.16.84-.84.84-.84 2.16v11.82zm3.78-9.18l2.46.06v-1.56q0-1.8.81-2.79t1.89-.99q1.08 0 1.86.9t.78 2.52v1.98l3.36.06q1.68.06 2.61.84.93.78.93 1.86 0 1.14-.93 1.92t-2.61.72l-3.36-.06v4.26q-.18 1.02-.99 1.65-.81.63-1.77.63-1.08 0-1.83-.78t-.75-2.28v-3.54l-2.46-.06q-1.68-.06-2.64-.84-.96-.78-.96-1.86t.96-1.86q.96-.78 2.64-.78zm0 1.2q-1.14 0-1.77.42-.63.42-.63 1.02 0 .6.63 1.02.63.42 1.77.48l3.66.06v4.74q0 .96.39 1.41.39.45.99.45.54 0 .99-.36.45-.36.57-.9v-5.28l4.56.06q1.08.06 1.71-.39.63-.45.63-1.05 0-.6-.6-1.02-.6-.42-1.74-.48l-4.56-.06v-3.18q0-1.02-.42-1.62-.42-.6-.96-.6-.66 0-1.11.66-.45.66-.45 1.92v2.76l-3.66-.06zm33.72-20.64q-.24-1.74.57-2.7.81-.96 2.01-.96 1.02 0 1.8.69t.96 1.95q6.9-1.26 14.82-1.44l-.9-3.18q-.18-.72-.18-1.26 0-1.26.75-1.95t1.83-.69q.96 0 1.77.63t1.05 1.77l1.14 4.74q11.88.3 17.7 2.34 1.62.6 2.31 1.41.69.81.57 2.31l-.66 7.86q-.12 1.5-.9 2.28-.78.78-1.8.78-1.14 0-1.98-.9-.84-.9-.72-2.4l.54-6.54q-7.38-1.8-18-1.8-9.3 0-16.74 1.32l.66 5.34q.24 1.74-.57 2.7-.81.96-2.07.96-1.02 0-1.77-.69t-.93-1.95l-1.26-10.62zm1.2-.12l1.26 10.62q.06.78.51 1.2.45.42.99.42.66 0 1.11-.63.45-.63.33-1.77l-.78-6.42q3.72-.72 8.49-1.14 4.77-.42 9.75-.42 11.64 0 19.14 2.04l-.66 7.62q-.06.9.36 1.44.42.54 1.08.54.6 0 1.05-.51.45-.51.51-1.47l.66-7.86q.06-1.08-.45-1.56t-1.59-.84q-6-2.1-18.3-2.28l-1.38-5.76q-.18-.72-.63-1.11-.45-.39-.99-.39t-.93.42q-.39.42-.39 1.14 0 .24.12.84l1.26 4.74q-8.94 0-17.34 1.68l-.24-1.32q-.12-.78-.57-1.2-.45-.42-.99-.42-.66 0-1.08.63-.42.63-.3 1.77zm8.16 11.52l6.54-4.92q1.26-.9 2.28-.9 1.08 0 1.83.75t.75 1.83q0 1.32-1.26 2.34l-6.48 4.86q-1.2.96-2.34.96-1.08 0-1.8-.75t-.72-1.83q0-1.38 1.2-2.34zm21.42-4.68l6.78 6q1.14 1.2 1.14 2.46 0 1.08-.75 1.83t-1.83.75q-1.26 0-2.28-1.08l-6.78-6q-1.08-1.14-1.08-2.46 0-1.14.75-1.86.75-.72 1.77-.72 1.26 0 2.28 1.08zm-20.7 5.64q-.78.6-.78 1.44 0 .54.39.93t.99.39q.72 0 1.62-.72l6.48-4.86q.84-.66.84-1.44 0-.54-.42-.9t-1.02-.36q-.78 0-1.56.6l-6.54 4.92zm19.86-4.8q-.72-.72-1.44-.72-.54 0-.93.39t-.39.99q0 .84.72 1.62l6.78 6q.72.72 1.44.72.6 0 .99-.39t.39-.99q0-.78-.78-1.62l-6.78-6zm-21.06 25.32l11.28-.12.18-7.92-6.66.12q-1.62.18-2.58-.63t-.96-2.01q0-1.02.75-1.83t2.07-.87l19.44-.3q1.68-.06 2.58.72.9.78.9 1.98 0 1.02-.75 1.8t-2.13.84l-7.26.12-.24 7.92 11.22-.12q1.68-.06 2.58.72.9.78.9 1.98 0 1.02-.75 1.8t-2.13.84l-27.72.3q-1.62.18-2.58-.63t-.96-2.01q0-1.02.75-1.83t2.07-.87zm0 1.2q-.78.06-1.2.48-.42.42-.42 1.02 0 .66.6 1.11.6.45 1.62.33l27.84-.3q.78 0 1.23-.42.45-.42.45-1.02 0-.66-.6-1.11-.6-.45-1.68-.39l-12.42.12.24-10.32 8.46-.12q.78 0 1.23-.42.45-.42.45-1.02 0-.66-.6-1.11-.6-.45-1.68-.39l-19.44.3q-.78.06-1.2.48-.42.42-.42 1.02 0 .66.6 1.11.6.45 1.62.33l7.98-.12-.18 10.32-12.48.12zm76.92-34.74l5.46 7.92q.6.84.6 1.8 0 1.02-.72 1.74t-1.74.72q-1.62 0-2.76-1.62l-5.4-7.74q-.66-.84-.66-1.86 0-1.08.75-1.8t1.83-.72q1.56 0 2.64 1.56zm-.96.72q-.72-1.08-1.68-1.08-.54 0-.96.39-.42.39-.42.99t.42 1.08l5.4 7.74q.9 1.14 1.86 1.14.54 0 .9-.33t.36-.81q0-.6-.42-1.2l-5.46-7.92zm-21.42 7.08q1.08-1.62 2.58-1.62 1.08 0 1.83.75t.75 1.89q0 .96-.6 1.8l-6.9 10.32q-1.08 1.68-2.7 1.68-1.02 0-1.77-.75t-.75-1.83q0-.9.6-1.74l6.96-10.5zm.96.72l-6.96 10.5q-.36.54-.36 1.08t.36.93q.36.39.9.39.96 0 1.8-1.2l6.9-10.32q.36-.54.36-1.08 0-.6-.39-.99t-.93-.39q-.96 0-1.68 1.08zm37.86 2.4l5.16 7.56q.66.9.66 1.92t-.72 1.68q-.72.66-1.8.66-1.68 0-2.76-1.62l-5.1-7.38q-.6-.84-.6-1.8 0-1.08.78-1.83t1.8-.75q1.5 0 2.58 1.56zm-.96.72q-.72-1.08-1.68-1.08-.6 0-.96.39t-.36.99q0 .54.36 1.08l5.1 7.38q.84 1.14 1.86 1.14.54 0 .9-.33t.36-.87q0-.54-.42-1.14l-5.16-7.56zm-26.46 3.78v9q0 2.88.09 3.78.09.9.57 1.14.48.24 1.92.24h18.72q1.68-.06 2.67.75t.99 1.95q0 1.08-.96 1.89-.96.81-2.7.81h-19.26q-3.42 0-4.98-1.17-1.56-1.17-1.95-3.06-.39-1.89-.45-5.31-.06-.48-.06-1.44V38.1q-.06-1.68.75-2.67t1.95-.99q1.14 0 1.92.96t.78 2.7zm-1.2 0q0-1.2-.45-1.83-.45-.63-1.05-.63-.66 0-1.11.66-.45.66-.39 1.8v8.58q0 .96.06 1.38.06 3.18.39 4.83t1.62 2.61q1.29.96 4.17.96h19.26q1.2 0 1.83-.45.63-.45.63-1.05 0-.66-.66-1.11-.66-.45-1.8-.39H329.2q-1.68 0-2.49-.39-.81-.39-1.05-1.23t-.24-2.4V38.1zm49.62-8.04q-1.14 1.2-2.46 1.2-1.08 0-1.86-.72t-.78-1.74q0-1.08.9-1.92 2.46-2.58 3.96-4.83t3.84-6.45l1.2-2.22q.36-.78 1.08-1.17.72-.39 1.5-.39 1.08 0 1.92.69.84.69.84 1.71 0 .96-.9 2.22l-.12.3 6.66.84q1.26.18 2.01.99.75.81.75 1.83 0 1.08-.78 1.83t-2.22.75l-.66-.06-8.58-1.02q-1.32 2.34-2.73 4.23-1.41 1.89-3.57 3.93zm39.84-12.12q1.26.06 2.01.84.75.78.75 1.8 0 1.2-.96 2.01-.96.81-2.7.69l-7.08-.6q.66.18 1.32.66l3 2.22q1.32 1.08 1.32 2.34 0 1.02-.81 1.8t-1.95.78q-1.14 0-2.22-.84l-2.94-2.28q-1.32-1.02-1.32-2.34 0-.96.63-1.65t1.65-.81l-3.48-.3q-.66 1.2-2.34 3.6-1.14 1.56-2.7 1.56-1.02 0-1.8-.72t-.78-1.68q0-.78.66-1.74 1.68-2.76 2.07-3.51.39-.75.93-2.13l1.44-3.48q.36-.9 1.11-1.38.75-.48 1.65-.48 1.08 0 1.86.63t.78 1.77q0 1.02-.54 1.92l-.18.42 10.62.9zm-43.2 9.78q-.48.48-.48 1.08 0 .48.39.84t.99.36q.84 0 1.62-.78 2.28-2.1 3.69-4.08 1.41-1.98 2.85-4.56l9.3 1.14q1.08.12 1.71-.3.63-.42.63-1.08 0-.6-.45-1.05-.45-.45-1.23-.51l-8.46-1.08 1.08-1.86q.6-.84.6-1.5 0-.6-.42-.96t-1.02-.36q-1.02 0-1.56.96l-1.08 1.92q-2.28 4.14-3.9 6.57-1.62 2.43-4.26 5.25zm42.42-5.64q1.08.06 1.71-.36.63-.42.63-1.08 0-.6-.45-1.02-.45-.42-1.23-.48l-12.3-1.02.9-1.98q.42-.78.42-1.32 0-.66-.42-1.02t-1.02-.36q-.54 0-.99.33-.45.33-.69.87l-1.38 3.42q-.66 1.56-1.08 2.4-.42.84-2.04 3.48l-.06.06q-.36.54-.36.96 0 .48.39.84t.93.36q.96 0 1.74-1.02 2.1-3.12 2.58-4.14l12.72 1.08zm-25.74 2.7q1.68.9 1.68 2.4 0 1.08-.84 1.89-.84.81-2.04.81-.96 0-1.86-.48l-3.6-1.98q-1.68-.9-1.68-2.46 0-1.02.81-1.77t2.01-.75q.96 0 1.86.48l3.66 1.86zm-2.46 3.54q.72.36 1.26.36.72 0 1.17-.42.45-.42.45-1.02 0-.9-1.02-1.38L384.1 24q-.72-.36-1.32-.36-.72 0-1.14.36-.42.36-.42.9 0 .84 1.08 1.44l3.6 1.98zm24.6-1.8l-3-2.22q-.72-.54-1.56-.54-.6 0-1.02.36-.42.36-.42.84 0 .78.84 1.44l2.94 2.28q.78.6 1.56.6.66 0 1.08-.39.42-.39.42-.99 0-.78-.84-1.38zm-22.92 7.08q1.02 1.08 1.02 2.22 0 1.02-.81 1.71t-1.89.69q-1.5 0-2.52-1.26l-3.66-3.48q-.96-1.14-.96-2.22 0-1.08.81-1.77t1.89-.69q1.44 0 2.46 1.26l3.66 3.54zm-4.5-2.7q-.78-.9-1.74-.9-.6 0-.99.33t-.39.93q0 .72.6 1.38l3.66 3.48q.84.9 1.74.9.54 0 .96-.36.42-.36.42-.9 0-.66-.6-1.32l-3.66-3.54zm25.56.48q4.38 0 5.91 3.12 1.53 3.12 1.53 7.86v14.58q0 3.66-.87 5.76-.87 2.1-2.82 3.03-1.95.93-5.31.93h-.42q-1.62.06-2.61-.66-.99-.72-.99-2.04 0-1.26.96-1.98t2.64-.72h.06q2.4 0 3.18-.81.78-.81.78-3.09V41.94q0-2.46-.45-3.81t-2.13-1.35h-12.36q-1.62.06-2.61-.66-.99-.72-.99-1.98 0-1.32.96-2.04t2.64-.72h12.9zm6.24 25.56V42.36q0-5.1-1.47-7.44-1.47-2.34-4.77-2.34h-12.9q-2.4 0-2.4 1.56 0 .66.66 1.08.66.42 1.74.36h12.36q2.46 0 3.12 1.8.66 1.8.66 4.56v15.42q0 2.82-1.17 3.96-1.17 1.14-3.99 1.14h-.06q-2.4 0-2.4 1.5 0 .72.6 1.14.6.42 1.8.36h.42q3.06 0 4.71-.78t2.37-2.61q.72-1.83.72-5.13zm-41.1-16.74q.12-1.5.93-2.31t1.83-.81q1.14 0 1.98.9.84.9.66 2.4l.42 19.56q-.12 1.5-.9 2.28-.78.78-1.86.78-1.14 0-1.98-.9-.84-.9-.66-2.4l-.42-19.5zm1.62 19.5q-.12.96.36 1.56.48.6 1.14.6.54 0 .99-.51.45-.51.51-1.41l-.42-19.56q.12-.96-.33-1.53-.45-.57-1.11-.57-.6 0-1.05.48-.45.48-.51 1.44l.42 19.5zm29.04-14.46v7.62q0 3.66-1.62 5.76-1.62 2.1-4.5 2.1h-8.82q-2.64 0-4.38-1.74-1.74-1.74-1.74-4.32v-9.42q0-2.58 1.74-4.29t4.38-1.71h8.82q2.64 0 4.38 1.71 1.74 1.71 1.74 4.29zm-1.2 7.62v-7.62q0-2.1-1.38-3.45t-3.54-1.35h-8.82q-2.16 0-3.54 1.35t-1.38 3.45v9.42q0 2.1 1.41 3.48t3.51 1.38h8.82q2.34 0 3.63-1.74t1.29-4.92zm-7.32-9.42q1.8 0 3.03 1.2 1.23 1.2 1.23 3v4.68q0 1.8-1.23 3t-3.03 1.2h-4.14q-1.74 0-2.97-1.23-1.23-1.23-1.23-2.97v-4.68q0-1.74 1.23-2.97 1.23-1.23 2.97-1.23h4.14zm-4.14 1.2q-1.32 0-2.16.84-.84.84-.84 2.16v.96q.18-.72.9-1.17.72-.45 1.8-.45l.66.06 3.84.54q1.32.18 2.1.9t.9 1.62v-2.46q0-1.32-.87-2.16-.87-.84-2.19-.84h-4.14zm3.72 6.66q.24.06.6.06.84 0 1.26-.3.42-.3.42-.78 0-.48-.51-.93-.51-.45-1.41-.57l-3.84-.54q-1.02-.12-1.59.21-.57.33-.57.87 0 .48.48.9.48.42 1.38.54l3.78.54zm.42 4.02q1.32 0 2.19-.84.87-.84.87-2.16v-1.74q-.12.84-.84 1.41t-1.98.57q-.48 0-.78-.06l-3.78-.54q-1.14-.18-1.86-.75-.72-.57-.96-1.41v2.52q0 1.32.84 2.16.84.84 2.16.84h4.14zm73.98-5.04q1.62-.06 2.49.63.87.69.87 1.77t-.9 1.98q-.9.9-2.46.96l-4.32.24v2.46q0 1.68-.78 2.61-.78.93-1.86.93-1.14 0-1.92-.93t-.78-2.61v-2.28l-5.04.24q-1.68.06-2.55-.66-.87-.72-.87-1.8t.9-1.95q.9-.87 2.4-.93l5.16-.24-.06-15.6q-1.26 2.1-2.07 3.51-.81 1.41-1.35 2.25-2.64 4.62-3.84 6.33-1.2 1.71-4.08 4.89-1.44 1.62-3.06 1.62-1.02 0-1.71-.63t-.69-1.59q0-1.38 1.26-2.7 3.12-3.36 4.77-5.82 1.65-2.46 5.01-8.4l2.52-4.44-7.62-.06q-1.62 0-2.46-.75-.84-.75-.84-1.77 0-1.14.96-2.01.96-.87 2.52-.81l10.62.12V17.4q0-1.68.75-2.61.75-.93 1.83-.93 1.14 0 1.98 1.05.84 1.05.84 2.85v7.08l10.2.12q1.62 0 2.46.75.84.75.84 1.77 0 1.14-.96 2.01-.96.87-2.52.81l-10.02-.12.06 20.34 4.32-.24zm-.06 4.14q1.02-.06 1.62-.54.6-.48.6-1.08 0-.6-.57-.99t-1.59-.33l-5.52.24-.06-22.74 11.22.12q1.02.06 1.65-.42.63-.48.63-1.14 0-.54-.54-.96-.54-.42-1.56-.42l-11.4-.12v-8.28q0-1.26-.45-1.98t-1.11-.72q-.6 0-1.02.63-.42.63-.42 1.71v8.64l-11.82-.12q-1.02-.06-1.65.42-.63.48-.63 1.14 0 .54.54.96.54.42 1.56.42l9.66.06q-.24.42-.54.96-.3.54-.66 1.14-4.5 8.1-6.66 11.4-2.16 3.3-5.64 7.2-.9.96-.9 1.86 0 .48.33.78.33.3.81.3 1.14 0 2.28-1.32 2.7-3 5.04-6.48 2.34-3.48 7.14-11.82v-.06l1.2-2.04.06 21.06-6.3.24q-.96.06-1.56.54-.6.48-.6 1.08 0 .6.57.99t1.65.33l6.24-.24v3.48q0 1.08.42 1.71.42.63 1.02.63.6 0 1.05-.6.45-.6.45-1.74v-3.66l5.46-.24zm-29.88-29.16q1.14-1.2 2.28-1.2 1.02 0 1.71.78t.69 1.92q0 1.2-.96 2.34-5.58 6.42-13.56 10.44-.96.48-1.86.48-1.14 0-1.86-.75-.72-.75-.72-1.77 0-.78.45-1.5t1.29-1.14q7.02-3.54 12.54-9.6zm2.88 3q.66-.78.66-1.56 0-.6-.33-.99t-.87-.39q-.72 0-1.5.78-5.76 6.3-12.78 9.84-1.14.6-1.14 1.62 0 .54.36.9t1.02.36q.54 0 1.26-.36 8.22-4.38 13.32-10.2zm36.84 14.46q.96 1.14.96 2.46 0 1.08-.69 1.77t-1.71.69q-1.68 0-3-1.74l-6.12-7.8q-.96-1.2-.96-2.52 0-1.02.66-1.71t1.68-.69q1.62 0 3.06 1.8l6.12 7.74zm-3.48 2.46q1.02 1.26 2.04 1.26.54 0 .87-.36.33-.36.33-.9 0-.84-.72-1.74l-6.12-7.74q-.54-.66-1.11-.99-.57-.33-1.05-.33-.48 0-.81.33-.33.33-.33.87 0 .78.78 1.8l6.12 7.8zm-36.3-5.94l1.68 14.58q.18 1.74-.63 2.73t-2.01.99q-.96 0-1.71-.69t-.93-1.95l-1.68-14.58q-.24-1.68.63-2.64.87-.96 2.07-.96.96 0 1.68.63t.9 1.89zm-2.4 15.54q.06.78.48 1.17.42.39.96.39.66 0 1.11-.63.45-.63.33-1.77l-1.68-14.58q-.06-.72-.45-1.11-.39-.39-.87-.39-.72 0-1.2.63t-.36 1.71l1.68 14.58z"/></svg>