<svg viewBox="0 0 329 80" xmlns="http://www.w3.org/2000/svg"><path d="M46.9 12.9q-.06.24-.24 1.02 0 .06-.06.06t-.12.06q-.06.06-.12.18t-.12.3q-.12.3-.12.51 0 .21-.06.33-.18.72-.18 2.04 0 .42.36 1.26.06.18.06.54 0 .36-.18.84.18-.12.3-.12.78-.12 1.2-.6.12-.12.42-.12l.36.12q.18.06.42.12.12 0 .18-.06.24-.12.54-.39.3-.27.54-.33l.03-.03.03-.03q.06-.18.18-.39.12-.21.18-.45 0-1.08-.54-1.8-.72-1.14-.84-1.44l-.6-.24-.54-.6q-.12-.12-.3-.12-.42 0-.6-.48 0-.06-.06-.09t-.12-.09zM35.62 30.42l.3.24q.18.24.27.21.09-.03.33-.27.06-.12.15-.18t.15-.18q.42-.24.42-.84l.06-1.2q.12-1.8.12-2.7 0-.36.36-.48.18 0 .24-.12.24-.06.81-.15.57-.09.93-.27 2.34-.6 3.72-.72l1.2.06 1.98-.24q1.62 0 2.46-.06 1.98-.36 2.34-.36.72-.06 2.1-.06h2.04q.54 0 1.23.03t1.59-.03l2.76-.06h1.62q.18 0 .18.3l.66 2.7q.06 0 .03.09t-.03.15q-.18.24-.42.84.3-.18 1.2-.42.06 0 .15-.06t.15 0q.12.06.3.06.3 0 .48-.18.36-.06 1.56-.3.48-.18.84-.18l.24-.12q.12-.18.3-.51t.24-.51l.54-1.68q.12-.24.18-.51t.18-.51q.24-.24.24-.3 0-.12-.36-.36-.3-.12-.3-.18-.18-.36-.48-.48-.12 0-.12-.18-.3-.36-.72-.36-.24-.06-.51-.03t-.33.03q-.72 0-.9-.06l-.96-.06q-.18 0-.45-.09t-.51-.03h-.24l-.96-.06q-1.98 0-3 .06h-.84q-.42.06-1.44.06h-1.44q-.24.06-.48.03t-.42.03H53.5l-1.62.06q-.42.06-1.38.06-.48 0-.9.06-.42.06-.78.06h-.3l-.72.12h-.24q-.96.18-1.2.12-.42-.06-1.08.09-.66.15-1.02.15-.18 0-.66.12-.3.12-.9.18-.6.06-.9.12-.36.12-.75.15t-.75.09q-.42.24-1.02.3-1.08.06-2.46.48-.18.12-.42.09t-.3-.15q-.48-.42-.9-.9-.18-.18-.48-.18t-.48.24q-.12.06-.3.42-.3.78-.36 1.08 0 .12-.06.18-.3 1.08-.3 2.37v1.53l-.06 1.5q.06.48.36 1.38l.06.18q.42.42.54.72.06.06.15.27.09.21.27.21.12-.3.51-.51.39-.21.57-.39zM27.46 30q.18-.18.48-.15t.42-.03q.3 0 .36-.12 0-.12.21-.36t.15-.48l.06-.12q.18-.3.18-.42 0-.18-.42-.36-.18-.12-.36-.21t-.36-.21q-.66-.42-1.14-.42-.54-.12-.96-.42-.36-.3-.72-.36-1.08-.18-1.68-1.02l-.36-.18q-.06-.06-.33-.24t-.33-.48q-.06-.12-.12-.27-.06-.15-.12-.21t-.96-.78q-.12 0-.18.06l.24 1.44q-.12-.06-.3-.06-.12 0-.18.21t-.18.33q-.42-.3-.6-.3-.24 0-.3.21t-.12.27q-.3.18-.18.6.06.12.06.3 0 .24-.24.42-.06.06-.06.24l.78 1.26q.06.18.18.48t.12.54q0 .54-.12 1.38l-.06.3q0 .6.6.9.18 0 .3.3.24.48.54 1.2h.12q.3 0 .39.15.09.15.15.45.18.42.33.51.15.09.57.03l1.08-.18h.12q.36-.3.84-.48.18-.06.3-.18l.18-.18q.54-.06.24-.48.06 0 .15-.06t.15-.06q.9-.12.72-.9v-.9l.18-.18q.36-.18.27-.45-.09-.27-.09-.33zm31.62-.66q.24 0 .51-.06t.39-.12q0-.06.3-.18-.06-.06-.03-.24t-.15-.24q-.18 0-1.02-.3-1.44-.12-2.04-.12l-1.44-.12-1.08.06-2.28.12q-.48 0-1.02.12t-.78.18h-.06q-.72.06-2.1.06-1.2.12-1.56.12-.18.06-.51.12t-.51.06l-1.44.18h-.6l-1.8.24q-.42 0-.6.24 0 .18-.24.18-.18.12-.39.18-.21.06-.45.18.12.06.21.12t.21.12q.48.3.48.72.06 0 .12.03t.06.09l.6.6q.06.06.24.06t.9.48q.24.24.54.24.06 0 .09-.09t.15-.15l.18-.12q1.74-.36 2.46-.42 3.54-.48 4.92-.66 2.64-.12 4.08-.12.72-.06 1.23-.03t.93.03q.18 0 .3-.12.06 0 .15-.09t.21-.09q.06-.06.15-.03t.15-.03q.36-.18.96-.72-.24-.18-.42-.48zm-1.26 13.62q.12-.12.12-.3 0-.12-.06-.42t-.18-.54q-.3-.78-.3-1.98v-.12q0-.42-.24-.72t-.3-.42-.3-.42q-.18-.12-.51-.3t-.57-.24l-1.26-.18q-.96-.12-1.32-.12-.78-.06-2.34-.06-.24 0-.33-.09-.09-.09-.03-.33l-.06-.24q-.24-.54-.24-1.32 0-.54.06-.84v-.12q0-.3-.36-.78-.24-.12-.48-.66-.12-.18-.42-.3-.06-.06-.18-.06-.24 0-.33.21-.09.21-.15.27-.3.54-.48 1.26-.06.18-.06.66-.06.18-.24 1.08l-.12 1.26q0 .24-.06.3t-.3.06q-.36.06-2.04.48-.66.18-1.29.45t-1.17.69q-.12 0-.36.09t-.48-.03l-.36-.12q-.12 0-.54.3l-.24.24q-.12.12-.24.3.06 0 .06.18.24.6.24.72l-.06 3.24-.12.24q-.12.18-.24.51t-.06.51q.06 0 .06.06.18.06.21.18t-.03.24v1.2q0 .24-.06.69-.06.45-.12.75v2.7q0 .18.12.3l.12.48.42 1.32.18.06q.12 0 .21-.15t.15-.21q.12-.12.24-.12t.18.12q.12.12.21.15t.21-.09l.24-.06q0 .12.21.3t.27.36q.06.36.36.57.3.21.6.09h.24q.06 0 .21.03t.21-.03q.18-.06.63-.24t.87-.24q.42-.12.9-.18.48-.06.9-.18 1.56-.24 2.34-.42 1.08-.12 1.74-.24.3 0 .36-.18.06-.24.27-.3.21-.06.27-.12.3 0 .36-.18.12-.18.18-.39.06-.21.18-.39.12.12.48.3.24.12.3.12.18.06.54.06.12.24.66.42 0-.12.06-.18l.12-.24q.48 0 .72-.12.36-.12.48-.3.3-.96.36-1.14l.12-1.14q.06-1.32.36-2.58l.18-1.32v-.36q.06-.24.12-.54.06-.3.06-.72 0-.3-.06-.48zm-39.42-.12q.12 0 .24-.03t.24.03q.18.12.51.15t.57.09h.3q.48 0 1.44-.12.18-.06.45-.06t.39-.06q.36-.12.81-.42.45-.3.75-.42.36-.06.66-.3l.72-.84q.06-.06.18-.15t.18-.21q.24-.42.72-.78.3-.3.3-.54.06-.06-.06-.15t-.24-.15q-.3-.12-1.14-.24-.96-.18-3.42-.6-1.2-.18-1.56-1.02l-.18-.6q-.24-.54-.78-.6-.66 0-.48.48 0 .3.06.42.24.42-.24.42h-.3q-.48 0-.72.42-.42.6-.42 1.08 0 .54.42 1.02.42.54.51 1.26.09.72.15.9l-.06 1.02zm35.7.84q-.48-.18-1.92-.48-.12 0-.24-.09t-.18-.15l-.18-.06q-.3.06-.9.3h-.72v-.36q.24-2.04.42-3.06 0-.42.3-.42 1.02.12 1.8.15t1.26.03q.36 0 .36.36 0 .18.09.63t.03.81q-.06.36-.06.93 0 .57-.06.93v.48zm-7.2-3.66q0 1.2-.12 3.72l-1.08.12q-.18.06-.42.06t-.6.12h-1.14q-.12 0-.15-.06t-.03-.18q-.24-1.14-.3-1.56 0-.3.3-.3.12 0 .21-.12t.21-.18q.24-.06.45-.3.21-.24.39-.42.12-.06.33-.15.21-.09.45-.21l1.38-.54h.12zm7.08 4.44l-.12.42-.18-.24.24-.24.03.03.03.03zm-5.22 5.46l.18-.9q0-.06.06-.18t.12-.12q.3-.06.39-.39.09-.33.15-.45l.3-1.68q.06-.24.3-.3 1.86-.24 2.58-.42.12 0 .3-.09l.3-.15h.48l-.12 1.38-.06.18q.06.42-.15 1.08-.21.66-.21.96l-.06.84q-.06.18-.3.18L52 49.62h-.18l-1.44.24q-1.08 0-1.62.06zm-5.22-.24v-2.64q-.06-.18.03-.27.09-.09.27-.09l2.4-.18q.3 0 .24.24 0 1.26.42 2.82.06.06.06.24.18.54-.3.54-1.56.12-2.04.12-.3 0-.42-.09t-.18-.39q-.06-.12-.18-.18t-.18-.12h-.12zm-28.08 2.7h-.06l.12.3 1.26.9q.6.24.54.78v.12q.24.12.27.42.03.3.03.42 0 .3.24.57.24.27.48.33.12 0 .36.03t.48.21q0 .06.09.06t.09-.06l.3-.12q.18 0 .42.09t.36.15q.42.06.48-.18.18-.3.42-.3l1.08-.42q.24-.12.42-.24t.42-.24q.66-.48.84-1.44 0-.06.3-.24l.6-.6q.06-.06-.03-.21t-.09-.27q0-.12-.03-.36t.09-.42q.06-.06.18-.15t.18-.21q.3-.48.36-.66.06-.18.03-.33-.03-.15-.21-.27.12-.06.12-.12t.06-.12l-.48-.3.24-.42q-.12-.3-.48-.84l-.54.42q-.6.48-1.14.72-1.56.48-2.34.66-.18.06-.33.15-.15.09-.27.15l-.48.06-.6.06q-.12 0-.36-.36l-.06-.06-.06.24q-.18-.24-.39-.27-.21-.03-.45.09l-.9.6q0 .06.09.18t-.09.3l-.66.36q-.18.12-.6.54 0 .06-.09.15t-.21.15zm30.9 12.84q.24-.42.72-.12.24.12.3.12.24.18.36-.12.18-.36.42-1.08v-.18q.3-.54.42-1.29t.18-1.11v-.06q-.18-.18-.45-.69T47.8 60q-.84-.66-1.26-2.1-.06-.18-.27-.33-.21-.15-.39-.15l-.24.12q-.24.3-.36.42-.24.36-.3.6-.24.12-.24.18l-.3.78-.24 1.02q-.12.42-.21.99-.09.57-.15.87-.12.24-.12.72 0 .54.48 1.02.48.54.54 1.26 0 .18.06.24l.06-.54q.18 0 .39.09.21.09.39.09.3 0 .42-.3.06.12.15.15t.15.09zm7.38-.42q.3-.24.36-.36t0-.48q-.24-.3-.24-.66-.12-.42-.36-.54-.12 0-.24-.18l-.24-.24-.84-.48-1.26-1.08h-.12q-.12.06-.12.24l-.42-.06q-.06 0-.18.06t-.24.06q-.42.12-.3.48 0 .9.12 1.26.12.78.6 1.53t.66 1.05q.3.36.54 0 .18-.3.6-.12.18 0 .24-.06 0-.06.09-.21t.21-.21q.18-.06.36-.18t.48-.18q.12 0 .3.36zM116.86 18q-.12-.12-.18-.12l-1.08-.36-.54-.36-.54-.48q-.6-.24-1.32-.36-1.26-.24-2.1-.3-.42-.06-1.05-.12-.63-.06-1.05-.18-.54-.12-1.32-.12h-3.18q-.42.06-.87.03t-.87.03q-1.8 0-2.7.06l-1.5.06h-1.62q-1.08.12-1.62.12h-1.8q-1.56 0-2.34-.12-1.14-.24-1.74-.72-.36-.36-.6-.36-.36 0-.78.3-.12.06-.3.27-.18.21-.42.21l-.06.24.03.12q.03.12-.03.18 0 .18-.12.18-.3.12-.45.42-.15.3-.03.6.06.06.06.18.06 1.14 1.02 2.4.06.06.06.3l-.18.72V21q0 .36.36.84.06.06.15.18t.09.24q0 .3.36.42l.12.12.72 1.02q.48.48.78.66.18.12.48.3t.66.42q.48.24.78.06l.24-.12q.78 0 1.2-.06.06 0 .21-.03t.39.03q.36 0 .54.06l.84.12.66.18q.18 0 .48-.06t.48 0q.42 0 1.26.12h1.92q.12 0 .12-.06.24-.12.51-.12h.33l.48-.06q.36.06.81.15.45.09.75.09.36 0 .9-.09l.9-.15q.06 0 .12-.06t.06-.12q.12-.48.42-.42.06.06.21 0t.21-.06h1.44q.12-.06.27-.12.15-.06.39-.06 1.08-.12 1.62-.24h.18q.48.12.72.12.36 0 .84-.3h.18l1.02-.42.12-.06q-.12-.18-.15-.27-.03-.09.03-.18t.12-.15q.12 0 .12-.12l-.06-.24q0-.3.36-.78l-.06-.42q0-.12.06-.3t0-.24l-.06-.18q0-.42.48-.54.48-.24.48-.78.06-.36.42-.48h.3q1.08-.36 1.5-.66l.36-.18zm11.94 9.18q0-.06-.06-.06l-.24.06q-.3.24-.66.3l-.3-.06q-.06-.24-.24-.27-.18-.03-.24-.03l-1.26-.06h-1.26q-.42 0-1.02-.03-.6-.03-1.44.03-.84 0-2.4.12-1.2.06-3.6.3-1.02.06-3.06.3l-2.76.3-2.1.24q-2.4.24-3.6.3l-2.04.24-1.26.12-1.86.06-.18.06q-.36.12-.66.12-.36.06-.69.03-.33-.03-.69.03l-1.44.18q-.78.06-2.34.06l-2.82.18-.54.06q-.42 0-.66.06-.3 0-.9.12h-.42q-.72 0-1.08.24h-.24l-1.2-.06q-.72.12-1.02.12H82.6l-2.52.18q-.84 0-1.14-.48-.06-.06-.18-.21t-.3-.03q-.18.12-.66.12-.36 0-.54-.06-.18 0-.24.06-.66.66-.72 1.2-.06.12.06.36l.3.84q.12.48.12.72v.42q0 .3.06.54.12.24 0 .78-.12.24.03.36t.21.12l.72.36.06.12.3.3.54.36q.42.42 1.14.54.18.06.54.06.36 0 1.11-.24.75-.24 1.17-.18h.48l1.5.12 2.04.24 1.62-.06q.54-.06 1.62-.06.6 0 1.8.12.24.06.66.12.42.06 1.02.06.96.12 1.65.15t1.17.03l1.08.12q.3.06.69.12.39.06.93.06l2.1-.06q.48 0 .54.06.06.06.06.54 0 .3.12 1.02l.06.42q0 .78.06 1.14l.18 1.44q.12.96.12 1.44.18 1.44.18 2.82l.12 4.32.18 2.88q.06.36.06 1.14 0 2.28.24 4.2.12.84.6 1.8.48.96.66 1.5.06.12.18.15t.24-.09l.36-.36q.12-.12.3-.12t.3.12q.3.18.48 0l.54-.66.3-.3q.3-.06.36-.36l.24-.96q0-.06.06-.27.06-.21.3-.21l.12-.18q0-.12.06-.12.18 0 .21-.15t.03-.21l.06-1.02q.12-.48.12-.66 0-.48-.12-1.2V54.3l-.06-1.74.06-1.2q0-.9-.06-1.53t-.12-1.11q-.06-.12-.06-.42l-.06-1.2-.12-1.56-.18-1.02q-.12-.42-.24-1.5-.06-.24-.18-.84t-.12-1.08q0-.42-.09-1.32-.09-.9-.03-1.56l.06-.6q.48-.12.6-.12h3l1.74-.06h1.74q1.44 0 3.24-.3.06 0 1.2-.18 1.02 0 1.56-.06l.48-.12q.06-.06.3-.06l.72-.24q.36-.12 1.08-.24.96-.42 1.2-.48.36-.12.6-.39t.18-.63v-.12q0-.24.3-.84.24-.3 0-.54-.06-.12-.03-.24t.09-.24l.18-.42q0-.18.24-.24.3 0 .54-.36.06-.06.24-.36h.06v-.06q-.18-.36.18-.42l.9-.36-.24-.84.12.06q.24-.24.3-.36.36-.48.72-.54l.24-.12v-.06h-.24q-.06-.06-.18-.06 0-.18.06-.24.12-.12.24-.18l.24-.12q-.3-.3-.06-.54.12-.06.12-.36zM84.7 56.76q.54-.36 1.05-.63t1.05-.33l.9-.18h.06l1.8.18.84.18q.3 0 .42-.06.24-.06.78.03t.84-.03l.18.06.18.06 1.2-.18.36-.06q.18-.06.57-.24.39-.18.69-.24.3-.06.69-.3.39-.24.75-.36.18-.06.3-.18t.3-.18l.36-.18q.36-.18.42-.3.24-.3.96-.66.48-.24.66-.42.18-.18.12-.6l.06-.3-.18-.48q-.06-.12-.18-.21t-.18-.27q-.66-1.14-1.2-1.8-.6-.6-.54-1.08l-.06-.12q-.18-.06-.27-.3-.09-.24-.15-.3-.24-.12-.36-.12-.06 0-.09.03t-.09-.03q-.06-.06-.24-.06t-.51.18q-.33.18-.57.12h-.06q-.36.24-1.08.6-.06 0-.48.3-.66.48-1.38.66-.12.06-.36.3-.54.54-.96.6-.36.06-.6.42-.12.18-.42.18-.12 0-.45.03t-.45.33q-.06.06-.3.06l-.36-.06q-.6.24-.84.42-.72.42-.96.96l-.3.72-.54 1.08q-.24.48-.48.72-.12.12-.42.78-.06.06-.06.15t-.06.15l-.36.6v.36zm40.68-.6q-.24-.42-.3-.48-.24-.24-.54-.66-.3-.42-.6-.54-.12-.06-.84-.48-1.26-.66-1.5-.78t-2.04-1.08q-.18-.06-.33-.12-.15-.06-.27-.12l-1.5-.9-.48-.12-2.1-.84q-.36-.24-.6-.24t-.42.3l-.48-.24q-.06.06-.06.15t-.06.15q-.18.18-.18.24-.06.24-.3.06-.36-.3-.36.18-.06.06-.06.18.12.72.24 1.2.12.66.3.9l1.08 1.62q.18.24.42.72 0 .06.09.15t.15.09q.66.12 1.38.66l1.32.84 1.32.72q.42.3 1.5.66.3.12.87.03.57-.09.81-.03h.12v-.06l-.18-.12.18-.24q.3 0 1.14-.12-.06-.12-.06-.3 0-.24.48-.24h.12q.18.06.3-.03t.12-.21q0-.18-.06-.27-.06-.09-.06-.15-.06-.06-.06-.15t-.06-.15l.36-.06 1.2-.12zm15.36-31.02v.18q.18.18.24.36l.06.36q0 .36.3.36.3.3.66.3.06.06.21 0t.27-.06q0-.12.03-.18t.03-.12q.42-.06.81-.15.39-.09.81-.15.96-.12 1.56-.3.6 0 1.08-.3 1.26-.36 2.34-1.02.18-.06.36-.18t.36-.18q1.14-.6 1.56-1.5l.12-.12.78-.3q.3-.18.24-.48-.06-.06.06-.3.6-.3 1.2-.9-.06.06.96-.78l-.03-.03-.03-.03q0-.06-.03-.18t.03-.18q.18-.3.18-.42t-.18-.3q-.42-.3 0-.54l.12-.24q-.3-.24-.3-.54 0-.24.21-.57.21-.33.27-.51-.3-.18-.3-.45v-.33q0-.54-.3-1.02t-.66-.54q-.42 0-1.02-.12-.6-.12-.96-.18-.6-.12-.84-.12t-.6.18h-.06q-2.46.48-3.9.9-.36.24-.78.39-.42.15-.6.27-.9.36-2.46.84l-.36.06q-.18 0-.42-.24t-.42-.3l-.72-.24q-.3 0-.48-.12-.24-.06-.48-.27-.24-.21-.36-.33 0 .66-.54.54-.12-.06-.27-.03-.15.03-.21.09l-.54 1.98v.72q0 .72.42.96.54.42.54 1.08 0 1.08.24 1.5.72 1.02.6 1.92 0 .48.12.66.18.36.18.48t-.18.48q.42.24 1.08.24zm32.82 37.56l.18.72q.3.6.78.18.12-.12.18-.12.66 0 .78-.42 0-.06.06-.06t.12-.06l.24-.3q.36-1.38.36-1.5.12-.72 0-1.5 0-.24-.06-.45-.06-.21-.06-.51-.06-.6-.03-1.05.03-.45.03-.75-.06-.42-.06-1.32 0-.54.06-.78l.06-1.32q.06-.3.03-.51-.03-.21-.03-.39 0-.36.42-.3.06 0 .18-.06t.24-.06q.3-.06.63-.18t.57-.12q.24 0 .6.18h.12q.42-.06 1.26-.06 1.08-.06 2.4-.84.54-.3 1.05-.66.51-.36.81-.78.3-.42 1.02-1.14.06-.12.12-.27.06-.15.12-.27l.42-.48q.3-.42.78-1.26l1.26-1.98q.54-1.02.84-2.04.12-.36.12-1.08v-.18q0-.84-.84-1.32l-.9-.3q-1.32-.42-1.74-.48-.72-.18-2.16-.42-1.62-.24-3.66-.24-1.26 0-1.92.06l-1.44.12.18-5.16q0-.06.06-.12t.12-.06h1.08q1.44.12 2.22.12.84 0 1.26-.24l-.36-.18h.12q.12-.24.24-.36l.3-.18 1.86-.24q.06 0 .24-.06t.18-.24l.18-.18q.36-.24.06-.48-.24-.18 0-.3l.24-.12q.18-.18 0-.3-.48-.36-.78-.36-.78-.12-2.34-.24l-1.26-.12q-.54-.06-1.56-.06h-1.56q-.24 0-.24-.24v-.96q.06-.48.12-1.26t.24-1.8q0-.42.48-.42h1.32q.9 0 1.26.06.96.12 3.54.66l.36.06q.3 0 .54-.48 0-.06.06-.06t.12-.06l.18 1.68q.12.72.12 1.02 0 .9-.6 1.56.3-.3.72-.48l.96-.3q.12-.06.3-.12t.3 0h.12l.78-.72h.06q.18 0 .45-.15t.33-.33q.12-.18.39-.48t.33-.54l.12-.06q.06-.18.3-.42.12-.36.33-.96.21-.6.57-1.38v-.24q-.06-.24-.48-.6t-.48-.66q0-.06-.06-.06-.48-.36-.72-.48l-2.34-1.14q-.78-.36-1.74-.54-1.5-.36-3.84-.66-.78-.12-1.38-.15-.6-.03-.96-.03-.3 0-.3-.12l-.18-1.32q0-.12.06-.3t0-.24q-.3-.54-.72-.78l-.84-.54q-.24-.12-.51-.24t-.51-.24q-.54-.36-1.2-.36h-.24q-.78-.24-1.02-.3h-.18q-.24 0-.3.09t.06.39q.18.42.39.72.21.3.33.54 0 .06.03.09t.09.03q.18.06.18.24l.06 1.92q0 .24-.06.33-.06.09-.24.12t-.24.03l-3.6.36h-.18q-.3 0-.3-.36 0-.54-.6-.78-.84-.54-1.92-.66l-.72-.06h-.3q-.42 0-.66.06l-.84.06q-.42 0-.54.18-.36.48.12.78l.36.42.12.24q.06.12.18.24.18.24.18.42 0 .36-.6.42-.12 0-.3.03t-.48.15q-3.54.9-5.52 2.04-.66.3-1.59.54-.93.24-1.47.36h-.06q-.12 0-.39.06t-.39.12q-.36.12-.48.48-.12.18.36.36l.24.12.12.12v.18q0 .18.15.42t.21.36q.18.48.78.78.3.06.3.3 0 .12-.3.36h.3q.18.06.39.03.21-.03.33.03.3.12 1.02.54l.6.36q.18.06.51 0t.51 0q.12 0 .3-.12t.36-.18q.12 0 .36-.09t.48-.03h.12q.3-.06.9-.3l1.02-.42q.24-.12 1.56-.42.3-.06.3.24l-.18 3.78q0 .3-.3.36-.78.12-2.82.48l-2.04.36q-.48.12-1.2.21t-1.62.33l-3.06.78q-.18.06-.3-.06-.18-.06-.6-.06-.72 0-1.14.48-.06.06-.06.24l-.06.42-.12.36.36-.12q.3 0 .42.06.06 0 .09.09t-.03.15l-.06.3q0 .42.33.75t.39.45q.06.06.24.18t.12.3q.18.12.36.18l.36.12q.12.06.36.09t.3.21l-.36.12q.12 0 .18.03t.12.03q.54.12.72-.18.12-.3.48-.42.24-.12.81-.36.57-.24 1.05-.36l5.82-1.38 1.08-.18v5.88q0 .3-.3.42l-4.2 1.56-1.14.36q.06-.36.12-.96t.06-1.44q0-.96-.36-1.92-.48.18-.54.3-.84 1.32-1.2 1.98-.36.6-.54 1.53-.18.93-.3 1.47 0 .12-.06.24t0 .18q.24.96.66 2.22v-.06q.3 0 .48.06.48.12.78.12.54 0 1.02-.3.3-.18.6-.33.3-.15.48-.27l1.26-.42 1.92-.72q.18-.12 1.08-.36v.36q0 2.58-.06 3.9v.96q0 .36-.54.78-.54.54-.9.78-1.02.6-2.94.6-.42 0-.93-.12t-.69-.18q-.36-.12-.42-.12t-.42.36l.18.12.54.72.42.42q.06.06.21.15t.15.21q.12.3.72.42.06.06.24.06.3.24 1.08.24.6 0 .9.06h.3q1.38-.18 2.28-1.02.48-.36 1.32-1.2.36-.24 1.26-1.38-.06-.12.06-.36.3-.54.3-.66.06-.3.12-.75t.24-1.05q.24-.48.36-1.26t.24-1.32q.12-.54.15-.93t.03-.63q0-.3.24-.3 1.2-.24 3.6-.6l.78-.12v.36l-.06 2.52v1.44q0 1.62-.24 4.98l-.18 2.88q-.06 1.68 0 3.42l.18 3.54q0 .18.06.57.06.39.12.63.18.48.42.78.06.12.18.18t.18.12l.24-.36q0-.12.06-.24t.18-.12zm-.24-37.74q0 .96-.12 3-.12.96-.12 1.44 0 .24-.3.24l-4.2.36-.18-.12.18-1.86q.12-.42.24-1.5.06-.3.06-.78.12-.48.6-.48t.96-.12l1.74-.12q.36-.06 1.14-.06zm-25.5 7.32h-.12v.84q-.18-.18-.24-.18-.12.12-.24.21t-.12.15q-.12.6-.54.66-.06.06-.06.18l-.18.84q-.18 1.02-.3 2.82l-.06 2.7q0 1.56-.12 2.34-.06.24-.12.57-.06.33-.06.75 0 .3-.06 1.11t-.18 1.41q0 .54-.12 1.5-.06.48-.27 1.35-.21.87-.27 1.59l-.12 3.06q0 2.04.06 3 .06.48.48 2.7.3.72.6 1.05.3.33.9.33.18 0 .78-.12.06 0 .21-.09t.27-.09q.06 0 .3-.03t.36-.21h.18l.3.12q.24 0 .48-.18.12-.12.3-.27.18-.15.24-.27.12-.3.3-.69.18-.39.24-.63.12-1.02.3-1.38v-1.08q-.18-.54-.18-1.02 0-.42.06-.72t.12-.54q.12-.48.24-1.32.18-1.38.12-2.76v-.24q0-.06.03-.15t-.03-.21q0-.18-.06-.45t-.06-.63q-.12-.42-.06-.54v-.18q0-.24-.06-.57-.06-.33-.06-.69 0-.96-.06-1.44l-.12-1.44q0-.18-.09-.36t-.09-.42q-.12-.36-.18-.75t-.06-.57q-.48-1.68-.42-2.4-.06-.66-.15-1.08-.09-.42-.15-.78 0-.18-.06-1.17t-.48-1.71q-.3-.66-1.02-1.38l-.3-.54zm24.9 3.6v2.52q0 .36-.36.48-.24 0-.69.06-.45.06-.75.12-.72.12-2.76.48h-.12q-.24 0-.39-.18-.15-.18-.03-.42l.12-.6v-1.62l-.06-.24q0-.3.12-.75t.18-.75q.06-.36.06-1.14.12-.24.3-.24.84-.12 2.76-.24.84-.12 1.26-.12.24-.06.33 0 .09.06.09.36v2.28h-.06zm3.6 15.78q-.3-2.52-.3-4.5 0-3.12.66-5.76l.78-.06q1.68-.12 2.52-.12l2.1.24q.54.06 1.8.06.54.06.93.03t.69-.03q.18 0 .3.15t.06.33q-.3 1.2-1.02 1.92-.24.3-.51.66-.27.36-.63.78-.96 1.26-2.25 2.55l-1.53 1.53q-1.2 1.14-3.6 2.22zm69.72-30.84q-.24-.12-.27-.21-.03-.09.09-.39.24 0 .36-.06.66-.12.9-.6.12-.24.09-.33-.03-.09-.27-.21l-.3-.3.36-.24-.36-.3q.48-.12.78-.24.18 0 .3-.3l.18-.54-.24-.42q0-.3-.18-.36-.24-.24-.72-.48l-.06-.12-.24-.18q-.24-.06-.54-.12-.3-.06-.66-.06-.96-.18-3.18-.42h-.48q-.78 0-1.14.06-1.14 0-3.3.12h-2.34l-1.14-.06q-.24-.06-.42-.03t-.3.03l-1.08-.06q-1.68.12-2.4.12l-1.68-.06h-1.08q-.54 0-.78.12h-.18l-.24-.06h-.78q-.36 0-.93-.03-.57-.03-1.29.03h-2.7q-2.52 0-3.78.06-.96 0-1.68.06t-1.2.12h-.84q-.3 0-.9.12l-1.44.06q-.3 0-.78.03-.48.03-1.14.15-.96.06-1.74.18t-1.38.18q-.48.06-1.29.21t-1.35.09q-.18-.06-.54.06l-1.38.06-.42-.18q-.12-.24-.45-.3t-.57.06q-.18.06-.42.18t-.54.24l-.48.18-.6.48-.21.21q-.15.15-.09.39.06.06.12.15t.06.15v.12q0 .12.09.24t.15.18q.36.48.3.96-.06.18-.06.6 0 .66.36 1.38.06.12.06.54 0 .12-.3.12-.3.18-.06.42t.48.3h.24l1.86.06q1.32-.12 2.1-.24.6-.06 2.1-.3l1.56-.12q.24-.06.51-.12t.63-.06h3.06l.03.03.03.03h.48q.24 0 .42.12 1.56-.12 2.34-.06h.06l.66-.06h.36l.66-.06 1.68.06q1.56 0 2.28.06.24 0 .84.12-.18.12-.3.3t-.3.3l-.9.66q-.54.36-1.62 1.2l-1.14.9-.84.66-1.02.84-.48.42q-.12.12-.45.3t-.39.48l-.12.12-.6.42-.6.3q-.12.06-.36.3-.06.06-.27.24-.21.18-.51.12-.42.54-.18.96.12.18.12.42t-.06.42-.06.42q0 .12-.03.33-.03.21.03.39.12.18-.06.48-.3.84-.18 1.38.06.24-.06.54-.3.48 0 .9.12.18.33.18h.51q.3 0 .63-.12t.45-.18q.12 0 .36-.09t.42-.09q.3-.06.57-.03.27.03.45.03.3 0 .9-.12l1.26-.36q.18-.06.39-.12.21-.06.39-.12.12-.06.33-.15.21-.09.27-.21 0-.06.12-.27.12-.21.36-.21l.12-.12q.72-.6 1.38-.84.12 0 .12-.12.12-.3.72-.54.06 0 .39-.06t.51-.42q.06-.06.18-.15t.12-.15q0-.42.3-.42.06-.12.24-.66.18-.3.06-.42-.12-.24.06-.42l.18-.48q.06-.24.36-.24h.96q.24 0 .42.06l.36.12-.6.84q-.24.12-.36.24l-.9.9-1.44 1.26-1.68 1.38q-1.44 1.2-2.16 1.86l-.36.36q-1.44 1.26-1.5 1.32l-.39.39q-.27.27-.57.33l-.24.24q-.06.06-.27.39-.21.33-.63.39l-.03.03-.03.03-.96.72-.24.3q-.54.24-.54.84 0 .84.42 1.26l.3.48v.24q0 .24-.09.63t.03.63q0 .6.12.84l.42.9q.24.42.48.54.24.24.42.24.48.06.81.03.33-.03.51-.03.66.06 1.92.06l.66-.06q.3 0 .51.06.21.06.45.06 1.44 0 4.08-.12.9 0 1.56-.06t1.14-.12q.3 0 .9-.06.6-.06 1.02-.12.78-.12 1.08-.36.36-.24.66-.48.3-.24.54-.42l.06-.18.3-.42q.3-.3 1.02-.78l.3-.42.9-.9q.06-.06.06-.24l-.03-.03-.03-.03.72-.66.18-.3.18-.6q0-.12.03-.27.03-.15-.03-.21-.12-.12-.21-.36t-.15-.3v-.18l.06-.96q0-.18-.12-.33-.12-.15-.24-.15-.18 0-.3.12t-.24.18q-.3.12-.36.06-.36-.18-.66.12-.3-.24-.54-.42-.24-.18-.42-.3l-.3.12.12.36v.12q0 .24-.3.36-.24.06-.36-.3t-.36-.3v.12q.06.24 0 .3t-.3.06h-.18q-.06.06-.33.27-.27.21-.15.57v.06l-.42-.18q0 .12-.03.21t.03.21q.12.72.24 1.08l.06.3q0 .42-.78.78l-.9.24q-.18.06-.48.21t-.48.15q-.36.06-.81.06h-.63q-.48.06-.96.03t-.96.03h-.6q-.36 0-1.74-.3h-.06l.12-.24h-.06q0-.06-.03-.12t.03-.06q.6-.6.72-.66 0-.06.18-.21t.36.03q.06-.06.06-.15t.06-.15q.18-.12.54-.39.36-.27.54-.51.12-.06.36-.21t.18-.33q.12-.12.48-.36l.42-.36 1.08-.84 1.44-1.02 1.08-.9.54-.48 1.62-1.44q.12-.12.24-.33.12-.21.24-.33.06-.06.24-.3t.42-.3q.06 0 .06-.06t.06-.12q.12-.12.36-.39t.42-.39q.48-.3.9-.81.42-.51.54-.69.54-.54.6-1.2l.06-.3q0-.66-.54-.9-.24-.12-.3-.24-.06-.24-.3-.3t-.36-.12l-.66-.42-.12-.12-1.2-.18q-.12 0-.3-.06t-.24-.12q-.24-.24-.66-.12l-.42-.3-.3-.06q-.12.18-.42.18-.84 0-2.28.12-1.14.12-2.04.54-.54.3-.96.6-.66.3-.66.78 0 .54-.48 1.02l-.12.12-.72 1.56q-.42.66-1.02.6h-.6q-.36-.06-.63-.03t-.51.03q-.36 0-.6-.06-.42-.12-.75-.15t-.51-.03q-.36-.12-.54-.24l1.14-1.02q.9-.72.96-.78 1.56-1.38 1.5-1.32.54-.54 1.2-1.02l1.44-1.38.27-.27q.15-.15.39-.27.36-.24.57-.69.21-.45.15-.87l-.06-.54q0-.24.06-.3t.3 0q.36.18.84.18.06 0 .6-.18l.06.12q.06.06.15.06t.15.06l.3.06q.3.06.84.06l1.02.06h.54l.66.18q.54.06.93.03t.63-.03q.78 0 1.14.12.06.06.12.03t.12-.03h.42q.84.12 1.26.12.06.06.12 0t.12-.06l.84.12 1.86.06.72-.06q.36 0 1.08.12.18 0 .24-.06.18 0 .54-.09.36-.09.66-.03.12.06.48.06.42-.06 1.26-.06H241q.48-.06.9-.15.42-.09.9-.15l.6-.18q.12-.06.27-.18.15-.12.39-.18.24-.06.36-.42 0-.12.06-.18t.12-.06q.54 0 .54-.66v-.06q.54-.06.9-.24zM220.3 49.74l.12.24q.06.12.06.3-.12 1.68-.24 2.4l-.24 1.8-.12 1.32-.18.9v1.98q-.06.6-.06 1.68-.12.72-.12.96 0 .36.21.78.21.42.33.72l.18-.36q.12-.24.36-.36t.39-.09q.15.03.33.21.24.36.42.48h.06q.18 0 .39-.09.21-.09.27-.21.48-1.26.6-1.74.12-.42.09-.99-.03-.57-.03-.81.06-.48.03-.81-.03-.33-.03-.57l-.06-1.86q0-.18.12-.66v-2.28q0-.48-.12-1.32-.06-.3-.15-.6t-.15-.6q-.12-.42-.51-.9-.39-.48-.57-.78v.42l-.24-.24q-.36.12-.6.24l-.3.78-.24.06zm-14.28 13.92l1.32-.72q.66-.3.78-.42l.78-.54 1.62-1.08q.48-.3.78-.54.3-.24.54-.42l1.14-.72 1.56-1.32q.78-.72 1.02-1.38l.06-.3q.06-.18.12-.39.06-.21.06-.51l-.24-1.44-.24-.12-.24-.12q-.12-.12-.39-.15t-.45.09l-.36.18q-.06.06-.15.06t-.15.06q-.18.18-.9.54-.18.06-.54.3-.12.06-.21.12t-.21.12q-.24.3-1.08.72-.18.12-.39.27-.21.15-.39.27-.42.3-.84.51-.42.21-.72.39l-.54.48q-.12.12-.48.24l-.42.3q-.54.3-.66.42l-.78.48-.24.12q-.24 0-.36.36-.24.48-.3.72-.12.24-.12.42v.48q0 .48-.24.66l.36.84v.12q-.06.06-.06.15t-.06.15q0 .12-.06.12-.36.18-.36.54l.3.42.24-.12q.6-.36.9-.6.24-.12.36-.09t.24.33zm21.48-7.38l.66.66.6.6q.12.06.36.15t.3.27q.12.24.36.39.24.15.36.21.48.36.48.72 0 .12.24.36.18.18.48.3 1.56.96 3.12 1.5.72.3 2.16.78 1.32.36 1.98.48.48.06 1.32.06h.12q.24 0 .66-.09.42-.09.72-.03h.12q.36 0 .66-.3l.12-.06h.12q.3 0 .6-.3t.48-.42l-.06-.12-.24-.3.42-.18q.18 0 .42-.12.42-.42.84-.48l.36-.06.03-.03.03-.03-.24-.18q-.12-.06-.24-.3l-.18-.72q0-.12-.12-.12l-.42-.06q-.48.12-.72.12-.78 0-1.8-.66l-.72-.18q-.9-.24-1.2-.3-.54-.12-1.86-.24l-2.4-.48-1.26-.36-1.98-.6-1.26-.36q-.66-.24-1.14-.3-.96-.12-1.5-.24l.18.3-.42.18q.12.24-.03.36t-.15.24q-.12-.06-.36-.06zm84.12-33.36q.24.12.24.48t-.12.51q-.12.15-.48.21-.42.12-.48.3-.3.36-.66 1.08l-.12.3q.06.12.06.36 0 .3-.06.57-.06.27-.06.57 0 .12-.12.36-.48.36-.6 1.14 0 .24-.18.42-.42.18-1.08.84-.36.24-.78.36-.42.06-.84.15t-.66.09q-.54.06-1.92.06-.48.06-.96.03t-.9.03q-.66.06-1.23.12t-1.11.12q-1.8.12-2.52.12-.6.06-2.04.06l-1.56.06q-.9 0-.9.66 0 .84.12 1.95.12 1.11.18 1.65v.84l.06 2.04v1.38q0 .42-.24 1.14t-.24 1.02q0 .72.12 1.68.12.54.27 1.08.15.54.27 1.08.06.48.21 1.17t.21 1.23q.12 1.2.12 1.56.36.06.93.12.57.06 1.41.12.36.06.36-.36 0-.48-.06-.93-.06-.45-.06-.93l-.06-1.62q-.06-.42-.03-.96t.03-.84v-.24q0-.36-.06-.69-.06-.33-.06-.69-.12-3.72-.12-5.52 0-1.68.72-3.54l-.06-.48q.12-.3.42-.48t.42-.24q.36-.12.54-.12.18 0 .66.24.24.12.48.21t.42.21l.3.42q.06.36.3.66.36 1.14.42 1.86.24 2.4.72 4.98.12.3.24 1.26l.24 1.26q.24 1.02.24 2.28.12 1.14.15 1.98.03.84.03 1.38.18 1.08.42 3.54.24 1.08.33 2.31.09 1.23.15 1.65 0 .42.12 1.02.12.6.18.96 0 .54.06.78-.06.06-.06.12t-.06.06q-.54.24-.6.9l-.06.12h-.06q-.48-.6-1.02-.96-.18-.18-.54-.18-.24 0-.48.12 0 .06-.06.09t-.12-.03l-1.2-.36-.42-.12q-.72-.12-1.02-.66.36-.06.24-.42l-.6-2.76q-.48-1.68-.6-2.88l-.24.12q-.54.36-.72.54-.24.18-.24.36 0 .3.36.54.24.12.36.27.12.15.24.21-.6.24-1.62.12l-.6-.12q-.18 0-.24.18t-.06.48q.06.6.3 2.52 0 .54.06 1.08t.06 1.08v.54q0 .6-.12 1.44 0 .48-.42 1.02-.06.12-.39.27-.33.15-.51.15-.3.06-.42.36-.12.42-.51.66-.39.24-.57.36-.06-.12-.12-.21t-.06-.21q0-.18-.06-.24-.24-.12-.81-.54-.57-.42-1.29-.48l-.12.06q-.12.24-.39.24t-.45-.18q-.84-.48-1.2-.6-.48-.24-.6-.78-.06-.54-.21-1.29T286 59.1q0-.54.09-1.08t.09-1.14q0-.36.03-.87t-.03-1.17v-.24q0-.18.06-.24.12-.42-.3-.42-1.5 0-2.1-.06l-.42.06q-.36 0-.48-.06-.18-.18-.42-.18-.18 0-.45.09t-.45.09q-.06 0-.15.09t-.09.15l-.06 2.16q-.12.9.06 1.83t.24 1.11q0 .36.18.6v.3q0 .48-.48.9-.06.06-.09.27-.03.21-.09.39-.48-.24-.66-.48-.18-.18-.48-.27-.3-.09-.6-.03h-.18l-.48-.12q-1.08-.48-1.38-.84-.54-.3-.66-1.2-.12-.78-.24-2.4v-.3l.06-1.38.24-2.28q.12-1.8.24-2.46 0-.6.12-2.28.12-1.44.12-2.22.06-.36.15-1.32.09-.96.27-1.74l.24-2.04q.12-1.68 1.02-4.32.12-.36.12-.6.12-.3.42-.12l.36.18-.12-.48.54.06v-.42l.54.12.12.12q1.14.24 1.26 1.32.12.36.3.96t.18 1.02q0 .36-.06.75t-.06.75q0 .18.06.33.06.15.06.33-.12 1.98-.24 5.94 0 .72-.06 1.29-.06.57-.12 1.05v.24q0 .18.06.24t.39.33q.33.27.69.27.42.06 1.2.06t1.32.06q.3 0 .3-.3l.12-2.7.06-3.54q.12-.72.15-1.65.03-.93.03-1.41 0-.84.3-1.92.12-.6.12-1.98v-.24l.06-.9-.06-2.64q0-.3.12-1.02l-1.02-.06q-.3 0-.66.12-.6.18-1.17.3t-1.11.3q-.36.06-.78.12-.42.06-.78.12l-2.88.72-.9.18q-.42 0-.48.06-.24.12-.36.12-.3 0-.42-.3h-2.46v-.06q-.06.06-.42.18-.06 0-.24.09t-.36.09q-.36 0-1.08-.24-.6-.12-.9-.12-.12 0-.36-.24t-.3-.48q-.06-.36-.33-.6t-.51-.18q-.12.06-.12-.18-.12-.18-.12-.3t-.06-.18l-.12-.12-.12-.12q-.06 0-.15-.06t-.09-.18q-.06-.06-.06-.42 0-.12.06-.33.06-.21.12-.33.06-.18.09-.45t.21-.33v-.36l-.12-.84q-.12-.48-.24-.66v-.3q0-.54.18-.9v-.06q-.96.72-1.32 1.2-.06.12-.15.15t-.15.09q-1.02.84-1.44 1.38l-.09.09q-.03.03-.03-.03h-.18q-.18 0-.3.12l-.18.18q-.18.12-.6.39t-.84.15h-.12q-.18.12-.57.06-.39-.06-.57 0-.18 0-.3-.12-.18-.18-.78-.51-.6-.33-.78-.63-.06-.18-.27-.3-.21-.12-.33-.24-.54-.18-.84-.84-.18-.54-.42-.66-.42-.24-.6-.42t0-.54q.06-.06 0-.21t-.12-.27q-.24-.42-.06-.72.24-.48.24-.72 0-.66-.54-1.08-.24-.36-.51-.66-.27-.3-.45-.6l-.06-.24q0-.18.24-.42.42-.18.87-.36t.87-.42q.06 0 .48-.15t.6-.39q0-.06.18-.24l.84-.42q.36.24.9.54.06.06.18.06t.12-.06l1.5-.66q.42-.24 1.26-.54.24-.12.96-.66.48-.24 1.17-.45.69-.21 1.11-.39.36-.12 2.4-.72.18-.06 1.26-.6.12-.12.42-.12l2.22.36q.12 0 .21.06t.09.12q0 .18-.18.3-.3.24-.42.78 0 .12-.24.27-.24.15-.36.21-.3.24-.33.36-.03.12.21.42.84.72 1.8.96-.84 1.74-1.56 2.82-.12 0-.27-.03-.15-.03-.21.03t-.06.24q-.18.06-.18.33v.33l-.12.12q-.3 0-.54.3-.24.3-.42.42 0 .06-.06.06t-.12.06q-.06.06-.21.09t-.21.09q-.12.24-.21.39-.09.15-.21.39-.12.12-.18.12-.3.06-.39.21-.09.15-.03.39-.06 0-.21-.03t-.21.09l-.12.12q.24-.12.78 0h.96q.42 0 .72-.06h.72l.12-.06q.06 0 .15-.09t.27-.09l1.44-.12q.24-.06.63-.18t.87-.18l1.08-.12 3.78-.6 2.28-.18 3.9-.3q.12 0 .24-.09t.12-.21v-.18q0-.24-.06-.51t-.06-.57l-.24-2.34.06-.24q.06-.18.06-.42.12-.12.12-.42-.06-.18-.06-.48t-.06-.42q0-.24-.06-.45-.06-.21-.12-.39l-.18-1.02q0-.24.06-.36 0-.66.3-1.02.24-.24.6-.06 0-.48-.06-.72h.54q-.12-.24.06-.36l.24-.06q.06 0 .54.12.54.12.9.45t.54.45l.9 1.56q.3.18.3.54-.12.36-.12.54 0 .36.18.87t.24.87q0 .96-.06 1.44-.06.18-.15.57-.09.39-.09.69 0 .3.18.78.18.48.24.78 0 .3.24.3 1.62 0 3.06-.18l4.2-.3q.78-.06 2.64-.06.54 0 4.32.18l1.44.18 2.4.42 1.02.12zm-40.68 30.36q.06.54.06 1.62 0 .9-.12 1.38-.06.06 0 .18t0 .24q-.06.48-.06 1.38 0 .9-.3 1.5-.3.24-.51.63-.21.39-.27.51-.18-.12-.27-.03-.09.09-.09.27 0 .36-.36.6-.18.18-.3-.06-.12-.36-.24-.54-.06-.3-.66-.3-.3 0-.66-.06-.36-.06-.72-.06-.72-.12-1.02-.48-.9-.42-1.32-1.32-.48-1.38-.48-3.36.06-1.2.03-2.1-.03-.9-.03-1.44 0-1.26-.12-3.42v-1.86q-.12-1.32-.06-2.1-.06-1.32 0-2.76 0-.48.12-1.2.36-1.38.54-2.7.12-.84.3-1.38.12-.3.33-.66.21-.36.27-.6l.12-.84-.06-.12q.12-.36.12-.54.3.06.48.24l.3.06v-.18l.06-.36q.36-.12.6.06l1.02.6q.84.48 1.2.84.06.06.06.15t.06.15l.12 1.62q0 .24.09.45.09.21.09.45l.12.54q0 .3.06.54.06.24.06.54 0 .18-.12.54l.06.48q.12 1.86.36 2.82 0 .3.09.6t.15.48q.24.66.24 1.32 0 .6-.12.9v.06q.42 1.44.54 2.58l.06.54q0 .36-.12.84v.18l.06.66q.06.42.15.96t.09.96z"/></svg>