<svg viewBox="0 0 374 80" xmlns="http://www.w3.org/2000/svg"><path d="M37.32 14.7l-.42-.42q.12 0 .36.06t.48.06q.9.06 1.32.15.42.09.72.27.3.3.54.3.12 0 1.08.99.96.99 1.02 1.23.12.36.3.54.24.36.24.6 0 .36.18.66.18.3.36 1.17.18.87.12 1.11 0 .06-.12.12t-.24.06q-.24 0-.54.18l-.42.24q-.18 0-.48.18t-.3.06l.06-.36q0-.06-.15-.09t-.51-.09q-.6-.06-1.14-.18-.54-.12-.54-.24 0-.18-.18-.18t-.42-.12q-.12-.12-.6-.24-.78-.12-.93-.21-.15-.09-.15-.33 0-.3.09-.42t.33-.18q.42-.12.75-.63t.39-1.29l.06-.36q0-.18-.3-.9-.18-.24-.27-.57-.09-.33-.15-.39 0-.24-.54-.78zm12 5.94h.9q.3.06 1.08.06.48 0 .9.18.42.18 1.02.66.18.24.33.36.15.12.27.12.12 0 .3.3.24.36.72.84.42.42.6.72t.18.78q0 .3.24.9.12.48.12.54 0 .3-.48.54-.42.12-.66.48-.12.18-.24.18t-.24-.06l-.24-.06q-.06 0-.84.3-1.2.6-1.56.6-.18 0-.54-.24-.24-.12-.96-.12-.84.06-1.98.6-.24.18-.36 0-.18-.18-2.34.3-.84.24-.99.42-.15.18-.03.78 0 .48-.12.54l-.24.48q-.12.6-2.22 1.68l-1.08.6q-.06 0 .06.48.06.42.36.42.24 0 .96-.18 1.08-.24 2.52-.42t2.34-.18q.72 0 1.02.06.3.06.72.3 1.2.54 2.1 1.86.06.18.72 1.02.3.3.3.6 0 .24.24.6.18.24.21.51t.03.81q0 1.38-.72 2.82l-.96 1.74-.84 1.5q-.36.54-.6.75-.24.21-.36.15-.18 0-.9.78-.78.78-1.02.78-.18 0-.66.48-.3.3-.57.48-.27.18.03-.12.12-.24-.03-.27-.15-.03-.33.15-.48.42-.87.54-.39.12-.51-.12 0-.06-.06-.12t-.18-.06q-.24 0-.3-.06t-.78-.18q-.66-.12-.72-.36-.12-.42-.54-.42-.24 0-.84.3-.48.3-.72.3-.36 0-.9.24-.66.18-1.68.12-1.08-.12-1.47-.36-.39-.24-.75-1.02-.18-.6-.72-.96-.54-.24-.66-.18-.12.12-.66-.54-.84-.9-.9-2.16l-.18-1.02q-.12-.36-.12-1.32 0-1.5.48-3.6.24-.66.42-.66h.24q.3 0 .54-.3.36-.3 1.44-.42l1.92-.42q1.08-.36 1.47-.51.39-.15.39-.33 0-.48-.27-.72t-.63-.12q-.24 0-.24-.06 0-.12.12-.12t.12-.24q0-.36.84-.54l.54-.06-.54-.12q-.66-.12-1.08-.33-.42-.21-1.08-.81-.9-.9-1.14-.96-.3-.12-.66-.48-.3-.18-.3-.3 0-.24.66-.06 1.38.3 2.16.3 1.38 0 2.46-1.02l.6-.54h1.74q.6 0 1.32.12l.72.18.42-.36q.54-.42 1.2-1.26.84-1.08 1.2-1.44.42-.54.42-.84.06-.24 0-.27-.06-.03-.24-.03-.3.06-.72.18t-.78.24q-1.26.42-1.74.42-2.22 0-5.7.96-1.02.3-1.26.3-.06-.06-.54.06-.12.06-.36.06-.12 0-.54-.18-.48-.24-.78-.24l-.72.06-.66.06q-.24 0-.54-.18l-.36-.24.36-.12q.42-.12.78-.42.36-.36.9-.48.42-.12.66-.36.3-.24 2.97-1.08 2.67-.84 4.23-1.14.9-.12 2.58-.72 2.7-.78 4.38-1.08zM32.1 22.5l.18-.42.12.78q.12.84.12 1.08 0 .66-.36 1.5l-.06.36q-.06.06-.3 1.08-.18.72-.18 1.38l.06 2.22q.12 1.5.12 2.82h-.12l-.48-.06-1.02-.12q-.36 0-.45-.03-.09-.03-.21-.33-.12-.42-.24-.42-.06 0-.3-.54-.12-.3-.12-1.2 0-1.38.36-2.7.66-2.7 2.16-4.44.6-.6.72-.96zm-13.86.18q-.24-.24-.24-.3 0-.12.72.24.48.3 1.02.3.42 0 1.29.27.87.27 1.29.51.54.3 1.02.66.48.36.48.48.3.42.72.78.6.6.9 1.38.12.6.36.84.12.12.06.66l-.06.42-.66.66q-.36.3-.51.39-.15.09-.09-.15v-.12q0-.3-.15-.39-.15-.09-.33.09-.18.18-.42.18t-.36.12q-.12.12-.54.12-.54.18-.6.24-.18.18-.36.18-.24 0-.54.18-.48.18-1.14.24-.66.06-.66-.06l.24-.6q.24-.42.42-1.14.06-.42.6-1.92l.42-1.26-.3-.36q-.18-.42-.36-.42-.12 0-.18-.24 0-.24-.9-.78-.78-.54-.78-.72 0-.12-.36-.48zm-.36 12.78q-.06-.54-.03-.78t.15-.18q.06.06.36.06.18-.06.27 0 .09.06.15.24t.6.6q.42.3.87 1.11t.45 1.23q0 .36.18.84.12.42.06 1.86l-.06 2.4q-.06.3-.06.6t-.06.48q-.12.12-.12.84-.06.72.06.72t1.02-.9q.9-.9 1.5-1.68.18-.24.54-.66.36-.42.84-.96l1.26-1.56q.78-1.08.9-.96v.12q0 .42-.12 1.02-.12.6-.24.72t-.12.42q0 .24-.3.54-.18.24-.18.6 0 .42-.42 1.08-.48.72-.36 1.02 0 .3-.18.48l-.12.54q.06.12.03.24t-.15.24l-.12.42q0 .06-.6 1.02-.66.9-.66.96 0 .18-.48.84-1.26 1.62-1.26 2.04 0 .18.48-.12.12-.06.27-.12.15-.06.03.06l-2.88 3.54q-.24.24-.48.3t-.84.06l-1.08.06-.96-1.02q-.48-.48-.75-.81-.27-.33-.27-.63t.18-.9l.24-.9 1.08-3.12q.36-.9.54-1.92.06-.36.15-.87t.21-.99q.3-1.2.51-3.45.21-2.25.09-3.03-.12-.72-.12-1.74zm29.34.78q-.12-.12-.39-.15t-.75-.03q-1.08 0-1.68.09-.6.09-1.68.45l-.78.24v.9q0 .48.03.72t.15.24q.18 0 .18-.12.12-.12.51-.18t.63 0q.12.06.72.06 1.68 0 1.68.54l.12.24q.12.12.12.54 0 .42-.06.54-.12.3-.42.42-.72.18-1.98.45t-1.92.39q-.06 0-.36.54-.12.3-.27.54-.15.24-.21.36-.24.3-.12.42t.72.12q1.62.06 2.04.24l.24.06q.18 0 .42-.36 1.56-1.56 2.49-3.45.93-1.89.81-3.03 0-.54-.24-.78zm-12.3 1.56q-.24-.18-.6-.18-.42 0-.72.24l-.3.24.18.3q.24.3.48.81t.42.99q.36.84.6.42.12-.12.21-.15t.21.03q.18.12.72 0t1.5-.48q.78-.3.93-.51.15-.21.15-.87v-.36h-.66q-.78.06-1.8-.12t-1.32-.36zm1.2 5.7q-.18-.18-.3-.18-.06 0-.06.18 0 .36.12.66.06.18.27.21.21.03.45-.15.24-.18.21-.36t-.27-.18q-.3 0-.42-.18zm10.98 5.04l-.54-.48.66.06q.72.12.78.18.06.06.6.06.78 0 1.92.57t1.98 1.41q.96.84 1.32 1.02 1.02.66 1.38 1.2l.24.48.36.66.36.9q.18.36.18.78 0 .42-.24.84-.12.24-.15.42t-.09.3l-.12.9q-.12.6-.45 1.2t-.66.84q-.33.24-.45-.12 0-.24-.48-.36-.48-.06-1.11-.54-.63-.48-.75-.84-.18-.42-.36-.48-.18 0-.18-.24 0-.12-.12-.12t-.57-.45q-.45-.45-.45-.51 0-.12-.24-.3t-.54-.3q-.48-.18-.54-.42-.12-.24-.3-.24-.12 0-.24-.18l-.06-.06q0-.06.72-.24.9-.12 1.26-.3l.48-.24-.12-.48-.54-1.08-.72-1.14q-.84-1.5-2.22-2.7zm-16.38 1.92q0-.18.12-.18.06 0 .06.18 0 .12-.06.12-.12 0-.12-.12zm-.78 1.08q.6-.84.78-.84.06 0 .06.12 0 .42-.42 1.14-.48.96-.48 1.62 0 .42.87.21t3.27-1.23q1.02-.48 1.56-.66.54-.18.66-.24l.6-.3q.42-.24.6-.24.12 0 .12.12 0 .06-.24.54-.3.54-.45 1.11-.15.57-.03.81.12.18.06.3t-.3.24q-.36.36-.36.54 0 .3-.24.48-.18.24-.36.54-.18.3-.12.36t-.24.36q-.36.24-.36.36 0 .06-.9 1.08l-.9.96-.66-.06q-.66-.06-1.05-.27-.39-.21-1.11-.87-1.14-1.02-1.32-2.16 0-.12-.18-.66-.06-.3 0-1.14.12-.78.33-1.17.21-.39.81-1.05zm69.24-28.98q.18-.18.3-.18t.84.24q1.56.48 2.22.54.66.06 1.8 0 1.62-.18 3.12-.18t2.16.18l1.08.36q.42.24.99.78.57.54.57.72 0 .18.18.36.24.12.54.54.24.42.24.72 0 .54-.09.75-.09.21-.45.57-1.14 1.02-2.88 1.32-1.2.24-1.68.54-.96.42-2.34.6-.24 0-1.08.42-.9.42-1.08.36h-.12q-.24 0-.48.12-.36.12-.48.06-.18 0-.6.24-.24.18-.39.18-.15 0-.27-.12-.12-.12-.12-.18t.48-.54q1.02-.96 1.68-1.62.66-.66.84-.9 0-.12-.48-.36-.42-.18-1.38-1.08-.96-.9-1.56-1.68l-1.2-1.44q-1.02-.96-.36-1.32zM114 31.5q.24-.06 1.08-.06 2.58 0 5.4.6.84.18 1.65.48.81.3 1.05.54.3.3.3.54 0 .18-.09.42t-.21.3q-.24.18-.81.33-.57.15-.81.09l-2.64-.06q-2.22 0-3.12.24-.66.24-1.65.39-.99.15-1.59.15-1.08 0-2.28.66-.78.36-1.5.6-1.62.6-1.62.96 0 .12.54.54 1.02.9 1.5 2.1.12.3.24 1.68t.06 2.52l.12 1.26q.06.72 0 1.62-.12.78-.06 1.56.24 1.14.24 3.18 0 1.2-.12 1.8-.12.18-.24 1.02-.12.72-.33 1.17-.21.45-.93 1.23-.24.24-.54.84-.48.78-.78.96-.3.18-1.26.18-1.02 0-1.56-.24l-.54-.36q0-.12-.3-.12t-.42-.18q-.06-.06-.15-.12t-.15-.06q-.12 0-.63-.6t-.87-1.14l-.36-.66-.42-.72q-.24-.6-.45-.78-.21-.18-.63-.18-.42 0-.42-.18 0-.06.06-.09t.18-.03l1.14.06q.96.12 1.26.12.78 0 1.23-.33.45-.33.99-1.11.48-.78.69-1.29.21-.51.45-1.41.3-1.08.3-1.92 0-3.24.18-4.56.18-1.08.18-2.76v-1.32l-.36-.48-.42-.54h-.12q-.42 0-.66.12-.06.12-.63.36-.57.24-.87.3-.3 0-.3.12-.12.12-.66.24-.72.12-1.5.54-.78.36-1.38.54-.48 0-.84.24l-1.26.72q-.48.3-1.32.36-.96.12-1.08.3-.42.3-.9.3-.24 0-.96-.24-.96-.48-2.1-1.44-1.14-.96-1.44-1.62-.3-.66-.72-1.2-.48-.78-.48-1.2 0-.54.24-.54.18 0 1.02.72.84.66 1.23.87.39.21.75.21.6 0 2.52-.45t3.3-.93l3.3-1.08 7.38-2.34q1.5-.42 3.84-1.05 2.34-.63 3.06-.69zm14.88 8.76q0-.12.06-.12.12 0 .12.12t-.06.12l-.12-.12zm-14.4 1.02q0-.24.87.03t1.59.75q.48.3.87.72t1.05 1.2l1.68 1.8q1.14 1.26 1.26 1.5.54.96.54 2.16 0 .72-.18 1.92-.12.9-.39 1.17-.27.27-.87.27-.54 0-1.08-.12t-.72-.3q-.24-.24-.42-.24t-.42-.33q-.24-.33-.36-.75-.12-.48-.54-.78-.48-.24-.6-.24-.24 0-.36-.18l-.3-.12q-.18 0-.93-.42t-1.11-.66q-.12-.24-.12-.54 0-.3-.24-.54-.3-.18-.12-.18t.36-.18l.72-.36.6-.24.3-.18q.24-.12.45-.54.21-.42.21-.72 0-.48.06-.48.12 0 .12-.24 0-.3-2.04-2.7-.18-.18-.21-.27-.03-.09.09-.09.24 0 .24-.12zM99.6 44.82l.6-.36q.06.06.03.15t-.09.15q-.06 0-.18.54-.12.3-.48.84t-.6.72q-.12.06-.27.39-.15.33-.15.57 0 .3-.3.78l-.36.6-.54.96-.54 1.02-.24.6q-.06.12-.36 1.02-.18 1.02-1.08 1.62-.42.24-1.02.18-.48-.06-.69-.18-.21-.12-.87-.84-.78-.78-1.2-1.68-.18-.66-.6-1.2-.3-.42-.3-.9 0-.42.18-1.56.36-2.4 1.38-2.4.12 0 .72 1.05t.6 1.29q0 .18.48 0t1.74-.84q1.8-.9 2.7-1.5 1.08-.84 1.44-1.02zm92.7-29.4q.72-.12 1.32-.12.42 0 .78.12.36.12.72.12.24-.06 1.44.66t1.68 1.2q.36.36.36.72 0 .54-.48.72l-.84.24q-.18.12-1.14.24-.36.06-.6.15t-.42.15q-.24.18-1.14.18h-2.28q-1.02 0-1.38.06-.36.06-.96.3-1.68.66-3.12.96-.36.06-1.38.66-1.02.6-1.74 1.26l-.3.24.72.12q.54.06 1.26.54.72.48 1.08.96.54.72.54 1.92 0 .96.18 1.8.3 1.2.3 1.38.06.24.06.51t.06.51q.18 1.2-.6 4.92-.6 2.88-1.32 3.96-.3.3-.48.42t-.48.12h-.18q-.84 0-1.14.9-.18.36-.69.84t-.69.66q-.36.3-.81.69-.45.39-.51.39l-.24.12-.12.12h.06q.24 0 1.2-.36.84-.3 1.47-.39.63-.09 2.19-.09.54 0 1.11.18.57.18 1.35.48.72.36 1.11.6.39.24.99.84.66.66.84 1.11.18.45.24 1.47 0 1.14-.18 1.74-.96 2.28-1.38 2.88-.3.42-.3.6 0 .36.84.6.9.3 1.02.48.54.36.78.42.48.18.54.24.12.12.3.18t.3.12l2.46 1.56q.48.36 1.2.93.72.57 1.14.93l.66.6q.48.36.36.54 0 .12.84.72 2.28 1.68 2.7 2.52.18.48.36.66l.06.12q0 .18-.12.36t-.3.24q-.18.12-.18.24t.06.24q.18.18.18.36 0 .24-.6.24-.66 0-3.36-.72-.54-.24-1.2-.39-.66-.15-1.02-.15-.78-.06-1.62-.54-1.62-1.02-3.51-2.31-1.89-1.29-3.21-2.25-2.1-1.92-2.76-1.92l-1.32.84q-4.2 3.3-7.2 3l-1.26-.12q-.66 0-.84-.3-.24-.24-.48-.24-.54-.06-1.86-.6-.42-.18-1.32-.96l-.96-.72q-.6-.18-.84-.42-.12-.24-.63-.51t-.63-.15l-2.1 2.16q-.9.96-1.56.96-.36 0-.6-.12l-.84-.3q-.3-.12-.45-.27-.15-.15-.27-.51-.18-.54-.18-1.02 0-.54.3-.72.3-.42.3-.48t.6-.66q2.04-1.62 5.76-5.64l1.14-1.2q.12 0 .24-.24.12-.18 1.98-2.16 2.52-2.7 2.16-2.7-.18 0-.78-.84-.6-.84-.78-1.32-.12-.48-.36-.66-.12-.06-.18-.24t-.06-.36q-.12-.48-.3-.48t-.21-.12q-.03-.12.03-.24.12-.12.12-.36t-.12-.42q-.06-.12-.06-.42 0-.42.24-1.44.84-3.96 3.18-7.5.96-1.44 1.74-2.37.78-.93 2.46-2.55.84-.84.84-.96 0-.06-.12-.06-.24 0-.6.18-.84.3-1.98.54-.9.18-1.92.66l-1.08.36q-.3 0-.42.24-.12 0-.48.12t-.72.18q-.96.18-1.86.18-1.68 0-2.7-.6-.6-.42-1.02-.42-.18 0-.93-.54t-.93-.78q-.12-.12-.21-.3l-.15-.3q-.96-1.2-.9-1.26l-.3-.54q-.24-.3-.24-.54.18-.3 2.04-.3 1.08 0 2.16.18.9.18 1.44.18.48 0 1.05-.15.57-.15 1.35-.39.48-.12 1.05-.33.57-.21 1.05-.33.6-.06.9-.24 0-.06.84-.3l1.5-.36q.96-.3 1.77-.48t2.01-.3q2.28-.42 3.84-.78.54-.18 1.62-.36 2.16-.36 3.66-.84 2.4-.72 3.3-.78zm-8.94 10.02q-.36-.18-.6-.18t-.66.24l-1.17.78q-.63.42-.93.54l-.36.12q-.24.12-.21.24t.27.3q.36.48.3 2.46-.06.6-.06 1.38 0 .78.18 1.26.18.42.42.84t.48.54q.12.24.27.66.15.42.15.78v.06l.18 1.08q.12.66.21.81.09.15.39.27.36.12.48 0 .12-.06.54-1.65.42-1.59.72-2.91.24-1.92.24-2.64 0-2.04-.06-3.21t-.18-1.41q-.12-.24-.6-.36zm-4.92 4.62q.24-1.2.21-1.44t-.39.18q-.24.24-.99 1.41t-.75 1.29l-.18.42q-.54.78-1.26 2.76-.42 1.44-.6 2.37-.18.93 0 .93t1.44-.78q1.26-.78 1.86-1.32l.84-.54v-.66q0-.66-.18-1.2-.3-.78-.3-1.44 0-.66.3-1.98zm.06 8.64q-.42-.06-.72.06-.06 0-1.74.36-.6.06-1.05.15-.45.09-.51.09v.12q0 .18.12.45t.24.21q.24 0 1.02-.3 1.08-.48 1.86-.66.72-.18.87-.27.15-.09-.09-.21zm6.24 6.9q-.24-.12-1.08-.12-.72 0-.96.06-1.44.24-3.72 1.26l-2.64 1.2q-1.08.42-1.98.96l-.72.36.3.12.6.12q.24 0 .3.06 0 .18.54.18.42 0 1.74.33t2.22.69q.42.18 2.22.72l1.38.42.3-.3q.42-.36 1.17-1.5.75-1.14 1.05-1.86.6-.96.6-1.38 0-.3-.42-.66-.12-.06-.39-.33t-.51-.33zm-11.58 4.44q0-.12-.06-.12-.24 0-1.38.96-1.2.96-1.2 1.08 0 .24-.48.81-.48.57-.66.81-1.26 1.62-1.26 1.98 0 .3.66.42.54 0 .72.18.12.12.69.3t.87.18q.36 0 .36.12.06.06.48.06.48 0 .78.18.18 0 .99.15t1.59.21h.36q.42 0 .78-.18.48-.36.72-.36.3 0 1.11-.42t1.41-.84l.66-.54-.48-.24q-1.32-.72-3.78-2.52-.36-.36-1.2-.9l-1.14-.84q-.54-.3-.54-.48zm81.66-30.9q0-.12.42-.12.96 0 1.8.12 1.56.12 2.22.33.66.21 1.44.87l1.5 1.2q.6.48.96 1.14.24.66.48.84.18.3.24.72 0 .24.06.45.06.21.06.33.12.24-.18.54-.24.36-1.14.48-1.02.06-1.2 0-.96-.42-1.68-.42-.78.06-1.56.21t-1.08.33q-.36.18-.9.18h-.18q-.12 0-.6.12-.36.24-1.2.36t-1.95.69q-1.11.57-2.07 1.35-1.5 1.14-2.01 1.8-.51.66-.51 1.38 0 .54.18 1.26.12.3.18.36t.42 0q1.02-.12 1.68-.36l1.38-.36q.54-.06 1.44-.42.66-.3 2.04-.84l1.2-.42.54-.24.6-.18q.54-.3.9-.36l1.14-.3 1.2-.3q1.74-.48 3.3-.48 1.56 0 2.49.15.93.15 1.77.57l1.14.48q.36.12 1.38 1.11 1.02.99 1.26 1.41.12.36.12.42 0 .42-.6.84-.42.18-.84.6l-.3.42-.54-.18q-1.68-.6-2.22-.69-.54-.09-1.92-.09-1.5 0-2.49.09-.99.09-1.59.33l-1.26.48q-.54.24-.54.3l.78.9q.78.84 1.26 1.86l.9 1.62q1.02 1.8 1.35 2.73.33.93.09 1.23-.12.12-.03.33.09.21.09.27.12.36.12 1.02 0 1.32-.3 2.04l-.36 1.08q-.12.72-.54 1.92l-.6 2.22q-.18.78-.81 2.13-.63 1.35-1.05 1.89-1.14 1.62-2.1 2.04-.84.36-1.32.84-1.92 1.56-2.16 1.44-.12-.06-.84.33t-1.14.69q-.06.18-.54.18h-.12q-.42 0-.6.18-.96.66-1.83 1.08-.87.42-1.17.42-.24 0 .18-.3l.36-.18-.36-.12q-.42-.12-1.08 0-.72.06-.72-.12 0-.12.63-.57.63-.45 1.29-.81l.6-.48q.3-.3.48-.3.12 0 .3-.42.12-.24.36-.48.18 0 .3-.24 0-.06 1.02-1.2 2.7-2.76 4.8-5.64.96-1.2 1.5-2.55.54-1.35.96-3.45l.54-2.82q.24-1.32.24-2.1 0-.48-.12-1.08l-.3-1.8q-.06-.72-.18-1.17-.12-.45-.36-.87-.3-.54-.51-.81-.21-.27-.45-.27-.18 0-.54.09-.36.09-.6.27-.72.24-.78.24-.18 0-.9.3-.96.3-1.92.57-.96.27-1.26.27-.54 0-1.38.18-.36.06-.78.06-.48 0-1.5-.42-.42-.12-.99-.78-.57-.66-.87-1.26-.24-.48-.39-1.38-.15-.9-.15-1.68 0-1.98 1.14-2.58.84-.48 2.22-1.53 1.38-1.05 2.64-2.25.54-.54 1.26-1.08.78-.66 1.92-1.83t1.38-1.53l.54-.66q.18-.18.18-.3 0-.06-.69-.57t-1.29-.81q-.54-.24-.78-.48zm-13.92 1.44q.12-.18.27-.21.15-.03.45.03 1.26.12 1.89.39.63.27 1.05.87.24.48.24 1.2 0 .6-.12.9-.12.3-.6 1.08-.3.48-1.62 1.74t-1.8 1.62q-.3.18-1.11.9t-.75.78q.24 0 .42-.06t.72-.06q.6 0 1.26.09t.9.21q.42.18.6.42t.42.9q.18.36.18.6l-.12.54q-.12.48-.48 1.2t-.54.84l-.3.48q-.18.36-1.86 2.4l-.48.6q0 .06.21.24t.51.42q.72.66 1.2 1.5l.42.78v1.56q0 .96.03 1.29.03.33.03.39.3.18 2.1-3.12.36-.78.69-1.29.33-.51.45-.63l-.3 1.14q-.36.96-.36 1.44l.06.72q0 .3-.18.78-.12.66-.06.84v.12q0 .3-.48 1.02-.66 1.02-.72 1.38l-.24.72q-.24.3-.48.99t-.24.93q0 .72-.24 1.32-.24.54-.36.87-.12.33-.06.75l.06.42q0 .6-.78.96-.72.24-.78.24-.3 0-.75-.3t-.81-.72l-1.2-1.32-.78-.78.12-.42q.12-.66.06-1.02-.06-.42.03-1.14t.33-1.2q.06-.18.12-.39.06-.21.06-.45l.54-3.6q.48-2.22.18-2.22-.42 0-1.62.96l-1.5 1.38q-.48.42-2.28 1.92l-.72.48-.36.24-.3-.24q-.24-.18-.54-.6-.24-.36-.36-.99t0-.69q.06-.06.18-.54 0-.24.12-.39.12-.15.36-.27.9-.42 2.13-1.62 1.23-1.2 2.43-2.88l1.32-1.62q.72-.9 1.35-1.92.63-1.02.51-1.02l-.72.36-.78.48q-.06 0-1.02.6-.66.42-1.29.96t-1.65 1.56q-.6.6-.96.6-.42 0-.48-.06-.3-.18-.54-1.38 0-.42-.3-.84-.12-.12-.15-.3t.03-.42q.12-.54.06-.54v-.06q0-.36.42-.54.3-.12 2.31-2.1 2.01-1.98 2.91-3.06 1.02-1.14 1.44-1.74l.96-1.2q.42-.42 1.74-2.28.3-.54.39-.84.09-.3-.09-.54-.06-.24 0-.54zm92.46-6.72l1.02-.06q.54 0 .78.18.12.06.18.15t.06.15q0 .18.18.3.3.24.57 1.14.27.9.33 1.68 0 .3.21 1.2.21.9.33 1.2.18.18.54 0 .24-.06.36-.06t.3.18q.18.18.36.18t.36.18q.24.06.48 0 .3-.12.48 0t.72 0h.3q.24 0 .36.12t.24.36q.12.36.12.54 0 .6-.3.72-.18 0-.84.66-.54.6-1.44 1.2-1.26.78-1.44 1.02-.18.24-.3.9-.12.96-.24 1.14-.06.24-.12.24l.06-.54q.06-.6-.06-.6-.12.12-.12.3l-.36 1.2-.9 2.34q-.72 2.22-.6 2.34.3 0 .96-.21.66-.21 1.14-.39.42-.24 1.32-.39.9-.15 1.62-.15.48 0 .72.12.12.12.54.12.36-.12.54.06.06.06.66.36.54.24.87.78.33.54.33 1.2v.3q0 .18-.03.27-.03.09-.15.09-.48 0-.66.18-.12.24-.75.69-.63.45-.81.39-.24 0-.54.24-.42.3-.48.3-.18.06-.54.33-.36.27-.66.51-.42.3-.99.66-.57.36-.99.54-.54.12-1.2.6-.48.3-1.44.6-.6.24-.78.42-.18.18-.36.18-.12 0-.24.18l-.3.3q-.36.24-1.11.96-.75.72-.69.78l.72-.18q.78-.24 4.02-.72l.48-.06q.42 0 .75.15t.81.57l.78.54q.42.12.54.36.24.24.6.99t.6 1.59l.36 1.02-.12 1.26q-.12 1.62-.3 2.46l-.12 1.86q0 .54-.36 2.22-.42 2.04-.6 2.46-.18.42-.84 1.08-.66.78-.84.78-.18 0-.78.33-.6.33-.96.57-.12.24-.54.42-.06.06-.24.06t-.72-.6l-.78-.78-.48-.48q-.48-.36-.54-.48-.24-.18-1.32-.66-1.08-.48-1.44-.54-.18 0-1.38-.54-.84-.42-.9-.42-.12 0-.15.15t-.03.39q0 .54-.42.18-.36-.18-.48-.18-.42 0-.54-.36l-.66-.9q-.36-.66-.36-.96 0-.42-.18-.81-.18-.39-.42-.51-.42-.12-.18-.42.18-.18.18-.9 0-.66.12-1.38.42-3 .66-3.24.06-.06.18-.42t.66-.9q.66-.54.66-.72 0-.12.06-.12t.12-.06q.06-.06.06-.18.06-.18 1.47-1.65t1.53-1.47q.12 0 1.59-1.53 1.47-1.53 1.59-1.71.12-.3-.12-.54-.06-.18-.21-.39-.15-.21-.27-.39-.12-.3-.27-.54-.15-.24-.21-.36l-.3-.54q-.06-.06-.09-.21t-.15-.33q-.18-.36-.18-1.62 0-.84.12-1.5t.36-1.62l.18-1.02q-.06-.06-.63.54-.57.6-.57.78 0 .18-.12.3-.24.12-.24.42-.18.48-.6.84l-.78 1.14q-.42.84-.96 1.56-.48.66-.96 1.44-.24.6-.75.99t-.99.39q-.42 0-1.02-.54-.48-.42-.66-.72 0-.12-.3-.54-.24-.24-.42-.9 0-.48-.18-.84-.12-.36-.12-.96t.12-1.44q.18-.6.3-1.5.48-2.7 1.98-4.5.84-1.08.9-2.22v-.3q0-1.02-.6-1.2-.42-.06-.9-.36-.18-.12-.24-.15t.06-.09q.24 0 .24-.06 0-.12.57-.42t.87-.3q.6 0 1.14-.18.72-.12.9-.12.48 0 .96.18t1.08.54q1.08.66 1.08.84 0 .18.18.48.24.18.24.54l.12.72q.12.48.12.54 0 .24-.42.72-.3.3-.51.39-.21.09-.21-.03t-.42-.12q-.48 0-.66.24-.12.18-.24.18t-.42-.12q-.12-.06-.36-.06-.3 0-.9.42l-.3.18q-.06-.06-.75.27t-.99.57q-.3.3-.54.42-.42.3-.48.84v.3q0 .24.3.48l.36.3v1.92l.06 1.92q.12 0 1.23-.93 1.11-.93 2.01-1.83 1.14-1.14 3.78-3.66.42-.36.54-.6.12-.24.24-.99t.24-2.07q.06-.6.06-2.1 0-2.88-.24-3.78-.24-1.38-.78-.66-.18.18-.39.33-.21.15-.39.15-.06 0-.06-.24 0-.36.12-.84.12-.54.72-.93t1.26-.45zm-22.02 5.22q.06-.06.42-.06.96 0 1.56.3.36.18 1.11.93.75.75.93 1.11.18.42.33.96.15.54.09.9V24q0 .24-.24 1.08l-.42 1.62-.18.84q-.18.18-.18.6-.06.3-.03.39.03.09.21.03.9-.3 1.62-.3.78 0 1.74.42.54.24.63.36.09.12.09.42 0 .36.27.81.27.45.57.63.24.06.27.18.03.12-.09.24-.12 0-.12.3t-.36.48q-.42.3-.42.42 0 .18-.42.3-.54.12-.6.3l-.24.12q-.18 0-.78.3-.72.24-.78.18-.12 0-.18.06-.24.24-.75.57-.51.33-.81.39-.42.12-.54.24-.36.42-.36 2.28 0 .72.03.99t.15.27q.36-.18.42-.24l.54-.36q.96-.48 2.58-1.86 1.62-1.38 1.92-1.98l.12-.12q.06-.06.06 0v.12q0 .36-.12.87t-.24.69q-.24.24-.24.6 0 .72-.72 1.56l-.36.48q0 .12-1.08 1.2l-1.38 1.38q-.12.12-.39.42t-.63.72l-.72.78-.06.84-.12.96q-.18.3-.36 4.8-.18 3.3-.6 4.14-.12.12-.18.12l-.48-.12q-.6-.24-.84-.48-.3-.3-.42-.3-.18 0-.48-.33t-.3-.51q0-.18-.06-.24-.06 0-.12-.12t-.06-.24l-.3-.6q-.36-.48-.48-2.16-.18-1.74-.3-1.74l-.6.54-.9.66q-.42.18-1.14.9t-1.26 1.5q-.3.48-.66.6h-.18q-.24 0-.24-.48 0-.42-.18-.42-.18-.12-.18-.36 0-.3-.3-.6-.36-.3-.36-.6 0-.42-.18-.48-.18-.18-.12-.39.06-.21.3-.27.42-.12 1.56-1.5.96-.96 2.46-3.66l.78-1.32q.54-.78.9-1.92l.18-.6q.06-.06.3-.69.24-.63.3-.99 0-.24-.3-.24-.24 0-1.29-.48t-1.17-.6q0-.12-.3-.12-.12 0-.66-.48t-.54-.6l-.48-.84q-.54-.84-.54-1.14 0-.42.12-.42l.72.54q.36.3.63.42t.63.12h.3q.48 0 1.32-.42.36-.18.9-.48t1.2-.66q.3-.18.9-.51.6-.33.72-.48.12-.15.12-.39 0-.96.15-2.25t.33-2.49q.3-1.68.3-2.04.12-1.08.18-1.2v-.18q0-.24-.18-.6-.3-.48-.78-.6-.36-.06-.84-.39t-.78-.69l-.06-.12q0-.12.78-.12.96 0 1.02-.18zm24.72 24.9q-.18-.12-.6-.12-.48 0-.78.12-.3.18-1.26.18-1.38 0-2.28.54-.24.12-.84.78t-.6.78l-.24.36-.3.42q0 .06-.72.6-1.08.78-1.2 1.26 0 .24.06.24.12 0 .48-.36.96-.66 2.34-1.11 1.38-.45 2.46-.45.48 0 .72.06 1.62.3 2.01.45.39.15.75.51t.48.6q.12.36.18-.24t.06-1.62q0-1.02-.03-1.53t-.21-.81l-.48-.66zm-26.16 2.04q0-.06-.12-.06-.06 0-.06.18 0 .12.06.06.12 0 .12-.18zm22.8 4.56q0-.24-.06-.27-.06-.03-.3-.03-.36 0-.69.15-.33.15-.81.51-1.2.78-1.44 1.56-.06.12-.06.3 0 .36.6.66l.6.36q.24.18 1.17.48.93.3 1.83.48l1.32.3.24-.24.42-.6q.36-.36.42-.6.18-.24.36-1.05t.18-1.17v-.3l-.24.3q-.24.24-.66.39-.42.15-.48.03-.12-.12-.36-.12t-.24-.12q0-.12-.42-.06h-.18q-.12 0-.6-.12-.42-.24-.51-.39-.09-.15-.09-.45z"/></svg>