<svg viewBox="0 0 403 80" xmlns="http://www.w3.org/2000/svg"><path d="M22.54 46.76c.06 4.56-2.64 8.64-5.04 10.26-1.5.9-2.52 2.34-1.8 3.9.78 1.62 3.18 1.68 4.92.36 2.64-1.8 5.22-6.96 2.94-14.52zm18.12-29.52v9.42H28.42v-9.42zm16.98 0v9.42H45.28v-9.42zm-12.36 21v-9.78h12.36v9.78zm-16.86 0v-9.78h12.24v9.78zm29.22 1.74v3.06h.72c1.62 0 4.02-1.02 4.08-1.44V18.14c1.2-.24 2.1-.78 2.52-1.26l-5.4-4.14-2.52 2.76h-28.2l-5.22-2.22v30.78h.78c1.98 0 4.02-1.14 4.02-1.68v-2.4zM39.1 43.1c2.64 2.76 5.46 7.26 5.7 11.04 4.68 3.78 9.06-6.66-5.1-11.46zM58 52.52h-.78c-.84 3.54-1.62 6.24-2.16 7.26-.36.6-.66.78-1.62.84-1.02.12-3.78.12-7.32.12H37.9c-2.82 0-3.12-.24-3.12-1.2V47.42c1.2-.18 1.74-.72 1.86-1.44l-6.66-.66v15.12c0 3.66 1.32 4.56 7.26 4.56h8.58c12.06 0 14.4-.66 14.4-2.94 0-.9-.42-1.5-2.04-2.04zm.36-5.64c3.24 3.36 6.72 8.7 7.26 13.26 5.22 4.14 9.54-7.62-6.6-13.74zm20.46-34.32c2.46 1.8 5.34 4.98 6.24 7.8 4.86 3.06 8.28-6.54-5.7-8.34zm-3.78 13.8c2.28 1.68 4.86 4.56 5.64 7.14 4.8 2.88 8.04-6.36-5.1-7.62zm15.84-4.26c-9.48 24.12-9.48 24.12-10.5 26.28-.54 1.2-.78 1.26-1.5 1.26h-2.52v1.26c1.2.12 2.04.3 2.82.9 1.32.9 1.68 5.94.78 12.06.18 1.98 1.08 3 2.28 3 2.22 0 3.6-1.68 3.72-4.38.18-5.04-1.68-7.68-1.74-10.5-.06-1.5.24-3.48.78-5.46.72-2.94 4.8-16.8 6.96-24.18zm12.84 25.98c-1.56 4.44-5.16 10.86-9.18 15.06l.66.72c5.16-3.24 9.72-8.34 12.3-12.3 1.38.24 1.92-.06 2.22-.72zm14.82 1.26c3.06 3.24 6.84 8.58 7.8 12.72 4.68 3.48 8.22-6.6-7.08-13.14zm3.78-22.2v6.96h-16.44v-6.96zm-16.44 15.3v-6.6h16.44v6.6zm16.5-26.04H98.44l-5.34-2.16v16.32c0 11.82-.72 24.9-6.9 35.46l.84.6c9.9-10.26 10.62-25.26 10.62-36.12V18.2h13.32c-.24 2.52-.72 5.28-1.2 7.2h-3.6l-4.68-2.04v23.58h.66c1.8 0 3.72-.96 3.72-1.32v-1.44h6.06V60.2c0 .78-.24 1.08-1.2 1.08-1.2 0-6.36-.36-6.36-.36v.9c2.52.36 3.84.9 4.62 1.62.66.72.96 1.92 1.02 3.3 5.64-.54 6.42-2.94 6.42-6.42V44.18h5.88v2.22h.72c1.5 0 3.72-.9 3.78-1.26V27.92c1.14-.24 2.04-.72 2.4-1.2l-5.1-3.84-2.34 2.52h-9.96c1.38-1.32 2.82-2.94 3.9-4.56 1.2-.06 1.92-.6 2.16-1.26l-5.58-1.38h17.1c.84 0 1.44-.3 1.62-.96-2.16-1.98-5.58-4.68-5.58-4.68zm35.88-4.44c2.1 1.8 4.14 5.16 4.38 7.98 4.98 3.72 9.6-6.48-3.84-8.4zm24.36 10.98c-.66 2.28-1.74 5.28-2.64 7.08l.66.48c2.58-1.62 5.88-4.5 7.74-6.6 1.2-.06 1.86-.18 2.28-.6l-5.22-5.1-2.94 3h-38.52c-.12-1.02-.42-2.1-.78-3.24l-1.02.06c.3 3.6-2.1 6.84-4.38 8.1-1.56.84-2.58 2.34-2.04 3.96.84 1.8 3.42 2.04 5.1.84 1.92-1.26 3.48-3.9 3.3-7.98zm5.04 15c.84 0 1.5-.3 1.62-.96-2.16-2.04-5.7-4.74-5.7-4.74l-3.12 3.96H165.4v-9.12c1.44-.24 1.98-.84 2.1-1.68l-6.9-.72V36.2h-23.34l.54 1.74h20.1c-4.2 10.08-12.18 19.68-22.86 25.86l.6.9c11.04-4.92 19.5-11.94 24.96-20.7v22.8h.9c1.74 0 3.9-1.02 3.9-1.62V38.12c4.38 11.58 11.88 20.76 20.88 25.86.72-2.22 2.4-3.66 4.32-3.96l.12-.66c-9.3-3.6-18.9-11.82-24.06-21.42zm18.9-10.38c2.04-3.96 3.78-8.16 5.28-12.6 1.38 0 2.1-.54 2.34-1.26l-7.38-2.22c-2.46 11.46-7.2 23.28-11.82 30.84l.84.42c2.4-2.28 4.56-5.1 6.66-8.16v32.34h.9c1.86 0 3.84-1.14 3.9-1.5V29.6c1.08-.18 1.68-.48 1.92-1.02zm41.64-1.62c.84 0 1.44-.3 1.62-.96-2.1-2.04-5.52-4.8-5.52-4.8l-3.06 4.02h-9.42V14.06c1.5-.24 2.04-.84 2.16-1.68l-6.96-.72V24.2h-16.74l.48 1.74h13.56c-2.94 10.86-8.4 22.02-15.9 29.82l.78.78c8.04-6.36 13.98-14.4 17.82-23.7v19.98h-9.96l.48 1.8h9.48v12.36h.96c1.74 0 3.84-1.14 3.84-1.68V54.62h9.36c.78 0 1.38-.3 1.5-.96-1.8-1.92-4.8-4.44-4.8-4.44l-2.64 3.6h-3.42V25.94h.18c2.94 13.08 8.22 23.58 15.12 30 .78-2.34 2.46-3.66 4.38-3.96l.18-.6c-7.5-4.74-14.64-14.58-18.48-25.44zm52.5 16.02V26h16.32v15.96zm-21.3 0V26h16.32v15.96zm39.66-20.46l-2.64 2.76H300.7V14c1.56-.24 2.04-.9 2.22-1.74l-7.2-.78v12.78h-15.84l-5.4-2.34v27.54h.78c2.04 0 4.14-1.2 4.14-1.68V43.7h16.32v23.16h.96c1.86 0 4.02-1.26 4.02-1.92V43.7h16.32v4.98h.84c1.68 0 4.14-1.02 4.2-1.44V26.96c1.2-.24 2.16-.78 2.52-1.26zm24.06-1.26c1.38 1.98 2.58 4.8 2.52 7.26 3.36 3.06 7.44-3.12.12-7.26h11.58c.84 0 1.44-.3 1.56-.96-1.8-1.8-4.8-4.2-4.8-4.2l-2.64 3.36h-9.24a33.06 33.06 0 0 0 2.04-3.48c1.32.18 2.04-.36 2.34-.96l-6.36-2.58c-2.16 6.78-5.82 12.96-9.54 16.8l.78.66c3.42-2.04 6.72-4.98 9.48-8.64zm.36 30.54c2.82 2.34 5.94 6.54 6.6 10.02 4.92 3.42 8.58-6.9-6.06-10.5zm33.06-3.24h-5.22v-4.08c1.32-.18 1.92-.66 1.98-1.5l-6.72-.72v6.3H332.8l.54 1.8h33.24v10.74c0 .9-.36 1.26-1.56 1.26-1.44 0-9.24-.54-9.24-.54v.9c3.36.48 5.16 1.02 6.18 1.86 1.02.72 1.44 1.86 1.68 3.36 6.84-.66 7.68-2.82 7.68-6.54V49.34h11.88c.84 0 1.44-.3 1.56-.96-2.04-1.86-5.34-4.44-5.34-4.44zm1.2-8.4h-17.1V32.6h19.2c.84 0 1.38-.3 1.56-.96-1.98-1.8-5.22-4.26-5.22-4.26l-2.88 3.48h-12.66v-3.72c1.2-.18 1.56-.66 1.68-1.38l-4.2-.42c1.74-1.44 3.42-3.18 4.98-5.1h4.02c1.56 2.04 3.12 4.86 3.3 7.38 3.66 2.94 7.44-3.48 0-7.38h13.62c.9 0 1.44-.3 1.56-.96-1.98-1.92-5.34-4.5-5.34-4.5l-2.94 3.66h-12.9c.78-1.08 1.56-2.28 2.22-3.48 1.2.12 1.98-.42 2.28-1.02l-6.6-2.52c-1.74 5.88-4.74 11.64-7.56 15.24l.72.66.42-.3v3.84h-19.08l.54 1.74h18.54v6.54h-25.02l.54 1.8h52.98c.72 0 1.38-.3 1.5-.96-1.98-1.92-5.28-4.5-5.28-4.5z"/></svg>