<svg viewBox="0 0 448 80" xmlns="http://www.w3.org/2000/svg"><path d="M44.78 39.38q0 1.5-.19 2.93-.19 1.44-.28 2.93-.2-.2-.45-.34-.25-.13-.51-.13-.32 0-.62.21-.29.2-.29.52 0 .36.34.47.33.12.68.12.3 0 .42-.03 0 .35-.2.72-.19.36-.46.72-.28.35-.59.66-.31.3-.54.54-.18.17-.38.5-.21.32-.46.63-.25.3-.51.52-.26.22-.53.22-.29 0-.47-.16-.17-.16-.41-.16-.32 0-.39.34-.07.33-.07.66v.35q0 .14-.62.38-.62.23-1.48.51t-1.79.56q-.92.28-1.53.54-1.21.5-2.44.82-1.23.32-2.55.32-.96 0-1.86-.25-.89-.25-1.78-.55-.9-.31-1.79-.56-.89-.25-1.86-.25-.38 0-1 .12-.61.12-.93.35-.15.12-.3.42-.14.31-.35.31-.14 0-.41-.11-.26-.12-.38-.18-.67-.35-1.14-.92-.47-.57-.79-1.25-.33-.67-.47-1.42-.15-.75-.15-1.45 0-.5.1-.98.11-.48.11-.98 0-.71-.16-1.38-.17-.67-.17-1.38 0-.49.17-.99.16-.5.16-1 0-.38-.18-.72-.17-.33-.17-.71 0-.27.19-.44.19-.18.19-.41 0-.36-.03-.71t-.03-.7q0-.18.01-.51.02-.34.08-.66.05-.32.2-.56.15-.23.41-.23.53 0 1.07.66t1 1.53q.45.88.74 1.76.3.88.3 1.32 0 .15-.12.28-.12.13-.29.13.11.21.26.62.15.41.15.64 0 .35-.11.67-.1.33-.1.68 0 .29.13.55.13.27.28.5.24.35.41.53.18.18.38.25.21.07.46.1t.66.06q.58.85 1.31 1.58.74.73 1.59 1.32 1.31.29 2.6.47t2.61.18q1.08 0 1.89-.24.81-.23 1.49-.61.69-.39 1.34-.87l1.35-1.01q.49-.35 1.05-.67.56-.33 1.08-.68.53-.35 1-.77.47-.43.79-.98.21-.36.6-.72.4-.37.4-.81 0-.17-.03-.26-.12-.94-.16-1.83-.05-.9-.11-1.83-.05-.88-.38-1.34-.32-.45-.8-.76-.49-.31-1.04-.6-.56-.29-1.09-.82-.55-.56-1.24-.7-.69-.15-1.42-.18t-1.45-.1q-.72-.07-1.34-.54-.17-.12-.29-.12-.26 0-.51.16t-.54.16q-.44 0-.9-.12-.45-.11-.89-.26-.44-.15-.88-.29-.44-.15-.88-.21-.58-.08-.95-.11t-.67-.11q-.31-.07-.66-.23-.35-.16-.88-.51-1.53-1-3.25-1.47-.33-.82-.85-1.67-.33-.2-.63-.39-.31-.19-.6-.43-.18-.29-.46-1.02-.28-.74-.54-1.57-.26-.84-.45-1.57-.19-.73-.19-1.05 0-.68.14-1.29.15-.62.68-1.12.08-.05.22-.16.13-.1.13-.25 0-.14-.22-.22-.22-.07-.22-.3 0-.03.03-.11.03-.07.03-.13.2-.64.61-1.23.41-.58.94-1.11.53-.53 1.1-.98.57-.46 1.1-.84.38-.26.66-.67.27-.41.6-.59.2 0 .41-.01.2-.02.41-.02.23 0 .42.02.19.01.43.01.32-.12.44-.28.11-.16.23-.3.12-.15.31-.24t.69-.09q.32 0 .64.02.32.01.64.01 1.12 0 2.22-.03t2.21-.03q.79 0 1.57.02.77.01 1.56.13.53.06 1.03.22t1.05.16q.53 0 .75-.2.22-.21.35-.44.13-.24.31-.44.18-.21.62-.21.61 0 1.27.33.66.32 1.24.52l-.02.12q-.09.26-.09.59 0 .49.16.98.16.48.34.95.17.47.33.94t.16.99q0 .33-.06.6-.05.28-.05.6 0 .59.23.84.24.25.24.45 0 .24-.21.4-.21.16-.21.48 0 .76.09 1.51t.09 1.51q0 .26-.01.79-.02.53-.12 1.04-.1.51-.32.89t-.63.38q-.44 0-.85-.33-.41-.34-.68-.66-.38-.41-.55-.89-.18-.49-.3-1.02-.11-.52-.26-1.04-.15-.51-.44-.95-.47-.67-.89-1.36-.43-.69-.84-1.39-.32-.53-.55-.73-.24-.21-.5-.28-.27-.08-.6-.08-.34 0-.84-.08-.53-.09-1.04-.27-.51-.17-1.02-.33-.52-.17-1.04-.3-.53-.13-1.06-.13-.85 0-1.73.26-.88.27-1.75.66-.88.4-1.73.82-.85.43-1.64.72-.74 1.55-.74 3.34 0 1.29.3 2.11.29.82.8 1.39.52.57 1.17 1.01.66.44 1.4.94.76.5 1.5.66.75.16 1.63.16.5 0 .98-.03.49-.03.98-.03.56 0 1.06.15t.98.34q.48.19.98.33.5.15 1.03.15.49 0 .95-.06.45-.06.92-.06.41 0 .73.19.33.19.65.44t.66.46q.33.2.74.23.59.29.97.53.38.23.69.5.31.26.59.64.27.38.63.94.32.55.85.97.52.41.85.99.11.21.14.48.03.28.09.53t.19.44q.13.19.42.22.03.32.05.63.01.31.01.63zm35.34.35q0 1.26-.27 2.46-.26 1.2-.44 2.44-.06.41-.07.74-.02.34-.07.65-.06.3-.21.61t-.44.63q-.38.41-.53.87-.14.45-.29.95-.17.5-.39.75-.22.24-.47.42-.25.18-.53.34-.28.16-.57.48-.18.21-.22.41-.05.21-.08.4-.02.19-.13.36-.1.18-.39.3-.47.2-.68.45-.2.25-.52.57-.33.32-.84.63t-1.08.54q-.57.24-1.16.38-.59.15-1.03.15-.55 0-1.09-.12-.55-.11-1.1-.11-.32 0-.49.1-.16.1-.27.22-.12.11-.25.22-.13.1-.4.1-.5 0-1.46-.4-.97-.39-2.04-.87-1.07-.49-2.07-.88-.99-.4-1.52-.4-.47 0-.75.34-.27.33-.45.85-.18.51-.25 1.11-.07.6-.09 1.13-.01.53 0 .88l.02.35q0 .29-.1.38-.11.09-.28.09-.12 0-.24-.02-.11-.01-.26-.04 0 .35.13.76.13.41.32.87.19.45.37.89t.26.82q.21.94.43 1.35.22.41.57.55.35.15.88.14.53-.02 1.35.07.38.06.82.16.44.1.79.32.35.22.58.54.24.33.24.8 0 .96-.57 1.37-.58.41-1.45.41-1.21 0-2.39-.17-1.19-.18-2.42-.18-1.29 0-2.56.15-1.28.14-2.54.14-.32 0-.89-.11-.57-.12-1.14-.34-.57-.22-1-.53-.42-.31-.42-.69 0-.26.3-.51.31-.25.71-.42.39-.18.8-.28.41-.1.65-.1.52 0 .98-.17.45-.16.89-.33.44-.18.88-.34.44-.16.94-.16.26-1.11.34-2.23.07-1.11.07-2.22 0-.79-.02-1.59-.01-.79-.01-1.58 0-1.55.22-3.07.22-1.53.22-3.11 0-.97-.07-1.93-.08-.97-.14-1.94-.08-.11-.2-.77-.12-.66-.22-1.45-.1-.79-.16-1.51t-.06-.95q0-.33.1-.58.1-.24.22-.44.12-.19.22-.33.1-.15.1-.27 0-.02-.08-.2-.09-.18-.19-.44-.11-.26-.19-.59-.09-.32-.09-.64 0-.94.22-1.88.22-.93.22-1.87 0-1.26-.91-2.2-.44-.44-.7-.67-.27-.24-.53-.34-.27-.1-.62-.15-.35-.04-.96-.13-.33-.03-.9-.19-.57-.16-1.13-.39-.55-.24-.98-.56-.42-.32-.42-.7 0-.5.47-.87.47-.36 1.1-.58.63-.22 1.27-.33.64-.1 1.03-.1.41 0 .82.08.41.07.7.36.32-.32.79-.42.47-.11.91-.11 1.26 0 1.93.39.68.38 1.07.83.4.45.65.84.24.38.63.38.23 0 .45-.09t.45-.21q.62-.29 1.85-.71 1.23-.43 2.61-.82 1.37-.4 2.63-.66 1.26-.27 1.91-.27.32 0 .92.16.6.16 1.33.41.74.25 1.53.59.79.34 1.46.69.68.35 1.17.69.5.33.68.6.32.52.69.91.36.38.98.58.17.24.22.5.04.26.04.56v.55q0 .59.21.91.2.32.44.54.23.22.44.41.2.19.2.54 0 .21-.12.37-.11.16-.11.34 0 .44.2.89.21.46.44 1 .24.54.44 1.15.21.62.21 1.35zM66.7 27.25q0-.14-.15-.29-.15-.15-.29-.15-.3 0-.37.31t-.07.54q0-.06.03-.06.06 0 .09.03l-.12.06q.2 0 .54-.07.34-.08.34-.37zm9.96 13.39q0-.88-.24-1.71-.23-.84-.58-1.61-.35-.78-.79-1.51-.44-.74-.88-1.44-.12-.17-.15-.39t-.03-.44q0-.22-.04-.44-.05-.22-.19-.4-.24-.26-.44-.31-.21-.04-.4-.07-.19-.03-.41-.15-.22-.11-.42-.52-.15-.27-.63-.59-.49-.32-1.06-.61-.57-.3-1.11-.49-.54-.19-.83-.19-.59 0-1.16.25t-1.16.25q-.41 0-.75-.15-.33-.14-.64-.3-.31-.17-.63-.31-.32-.15-.67-.15h-.15q.06.29.06.47 0 .26-.12.42-.12.17-.31.28-.19.12-.41.22-.22.11-.39.22-.27.32-.28.65-.02.32-.31.32-.2 0-.32-.06 0 .21-.12.29-.12.09-.26.15-.15.06-.3.13-.14.08-.17.25-.38.03-.7.46-.33.42-.56 1.06-.23.65-.41 1.44-.18.79-.29 1.54-.12.75-.18 1.38-.06.63-.06.95 0 1.05.13 2.09.14 1.04.14 2.1 0 .79-.05 1.58-.04.79-.1 1.61.73.79 1.41 1.58.67.79 1.42 1.42.74.63 1.65 1.06.91.42 2.11.45.47 0 .94.12t.94.23q.46.12.92.22.45.11.92.11.44 0 .94-.19.5-.2.98-.49t.92-.63q.44-.33.74-.66.23-.26.57-.38.33-.12.57-.35.17-.18.23-.38.06-.21.11-.41.04-.21.13-.4.09-.19.35-.33.56-.3.7-.43.15-.13.15-.48v-.56q0-.29.14-.42.15-.13.33-.27.17-.13.32-.35.15-.22.15-.74 0-.39-.06-.75-.06-.37-.06-.75t.13-.7q.13-.32.29-.62.16-.29.3-.57.13-.28.13-.6zm35.97 7.24q0 .79-.24 1.34-.25.56-.65 1-.39.44-.91.82-.51.38-1.04.82-.41.35-.73.53-.32.17-.63.29-.31.12-.64.24-.34.11-.78.32-.59.29-.98.54-.4.25-.79.45-.4.21-.87.34-.47.13-1.17.22-1.17.15-2.36.35-1.18.21-2.36.21-.23 0-.48-.1-.25-.11-.57-.21-.32-.1-.72-.21-.39-.1-.95-.1-.59 0-.94-.17-.35-.18-.63-.41-.28-.24-.57-.52-.29-.27-.76-.48-1.76-.79-2.99-1.9-1.23-1.12-2.11-2.49-.88-1.38-1.46-2.99-.59-1.61-1-3.37-.32-1.23-.32-2.46 0-1.61.76-2.99-.29-.82-.29-1.58 0-.56.32-1.66.32-1.1.83-2.21.52-1.11 1.12-2.01.6-.89 1.13-1.1.41-.14.57-.24.16-.11.16-.58 0-.35.28-.58.27-.24.67-.38.4-.15.79-.27.4-.11.66-.23 1.08-.53 2.07-.89.98-.37 1.96-.62t2.03-.37q1.06-.11 2.26-.11.65 0 1.26.17.62.18 1.19.46t1.13.61q.55.34 1.08.66h-.03q.44.06.83.25.4.19.84.25.41.5 1.07.95.66.46 1.29.95.63.5 1.08 1.07.46.57.46 1.31 0 .11-.02.23-.01.12-.04.26l.11-.14q.12.09.22.29.11.21.19.46.09.24.15.49t.09.4q.23.38.63.61.39.24.63.65-.29.29-.29.76 0 .5.2.98.21.49.21.98 0 .59-.06 1.13-.06.54-.06 1.13 0 .44-.34.67-.33.24-.73.41-.4.18-.72.35-.32.18-.32.5 0 .24-.28.22-.28-.01-.45-.01-1.29 0-2.57-.32-1.27-.33-2.53-.33-1.38 0-2.73.19-1.34.19-2.72.19-1.03 0-2.04-.05-1.01-.06-2.03-.06-.27 0-1 .1t-1.54.26q-.8.16-1.53.38-.74.22-1.03.43-.03.15-.03.41 0 1.38.81 2.84.8 1.47 2.12 2.67t2.96 1.99q1.64.79 3.31.79.97 0 1.92.07.95.08 1.86.43.79-.38 1.45-.88.66-.5 1.27-1.06.62-.55 1.21-1.14.58-.58 1.2-1.17.11-.12.57-.22.45-.1.98-.18.53-.07 1.01-.11.48-.05.66-.05.67 0 1.26.21.17.67.17 1.32zm-4.39-11.9q0-.44-.15-.85-.14-.41-.23-.85-.15-.82-.15-1.59 0-.78-.23-1.57h-.03q0 .17-.12.34-.12.16-.32.16-.35 0-.67-.18-.33-.17-.56-.44-1.11-.5-2.01-.94-.89-.43-1.78-.77-.9-.34-1.91-.53-1.01-.19-2.33-.19-.12 0-.22.01-.1.02-.19.11l.15.32-.24.06q-.79.14-1.3.28-.51.13-.92.36-.41.24-.81.57-.39.34-1.01.87-.29.26-.63.39-.34.14-.67.24-.34.1-.65.22-.3.12-.51.38-.21.73-.6 1.42-.4.69-.4 1.45 0 .44.37.78.37.33.94.57.57.23 1.26.41.69.17 1.36.26.67.09 1.24.13.58.05.9.05 1.11 0 2.2-.22 1.08-.22 2.19-.22 1.15 0 2.29.1 1.14.1 2.28.1.3 0 .88-.03.59-.03 1.16-.16t1-.38q.42-.25.42-.66zm37.3 11.98q0 .3-.22.42-.22.11-.43.23-.32.18-.53.41-.2.23-.38.51-.17.28-.32.59-.15.31-.32.57-.41.61-1.13.85-.72.23-1.42.44-.7.2-1.28.57-.57.37-.71 1.24h-.15q-.67 0-1.24.24-.58.23-1.15.51t-1.15.51q-.59.24-1.23.24-.36 0-.66-.12-.31-.12-.62-.26-.31-.15-.61-.27-.31-.11-.66-.11-.47 0-.91.06-.44.05-.88.05-.32 0-.76-.07t-.82-.25q-.38-.17-.65-.45-.26-.28-.26-.69 0-.15.03-.23-.15.14-.32.19-.18.04-.36.04-.87 0-1.62-.4-.75-.39-1.41-.96-.66-.57-1.23-1.23t-1.13-1.22q-.67-.67-1.04-1.55-.36-.88-.86-1.7-1.06-1.7-1.29-3.44-.23-1.75-.23-3.65 0-.35.04-.81.04-.45.19-.66.12-.14.29-.22.18-.07.34-.14.16-.07.28-.16.12-.09.12-.27 0-.41-.21-.74-.2-.34-.2-.75 0-.29.13-.5.13-.2.28-.44.23-.38.42-1.27.19-.9.41-1.79.22-.89.56-1.58.33-.69.89-.69.41 0 .76.12.35.11.76.11.36 0 .68-.08l.03-.24q0-.35-.22-.44-.22-.09-.47-.11-.25-.03-.47-.08-.22-.04-.22-.31 0-.17.16-.3.16-.14.38-.24.22-.1.46-.19.23-.09.35-.17.29-.24.41-.46.12-.22.22-.42.1-.21.31-.35.2-.15.67-.27.41-.09.82-.1.41-.02.82-.03.41-.01.82-.04t.82-.15l-.29-.29q.14-.27.41-.43.26-.16.6-.25.34-.08.67-.1.34-.01.6-.01 1.03 0 2 .26.96.26 1.93.26.41 0 .8-.1.4-.1.81-.1.62 0 1.16.31.54.3 1.04.57l.11.03q.27 0 .44-.21.18-.2.36-.2.14 0 .23.13t.18.25q.23.26.63.33.39.08.54.31.2.35.47.48.26.14.52.2.27.05.56.11.29.06.56.27v.82q.58.76 1.1 1.15.51.4.9.82.4.43.62 1.06.22.63.22 1.83 0 1.29-.22 2.26-.22.96-.76 1.62-.54.66-1.45 1-.91.33-2.26.31l-1.9-.03q-.24-.38-.68-1.07-.44-.69-.88-1.44t-.77-1.41q-.34-.65-.34-1.01 0-.44.07-.87.08-.44.08-.88-.21-.56-.54-.91-.34-.35-.78-.54-.44-.19-.95-.25-.52-.06-1.04-.06-.76 0-1.51.12-.75.11-1.45.38 0-.27-.13-.49-.14-.22-.46-.22-.41 0-.99.31-.59.31-1.19.75t-1.1.92q-.5.48-.73.84-.21.29-.56.9-.35.62-.75 1.23-.39.62-.82 1.1-.42.49-.77.52.09.41.23 1.09.15.69.27 1.45.11.77.2 1.45.09.69.09 1.07 0 .68.23 1.26.24.59.24 1.26 0 .5-.13 1-.14.5-.14 1 0 .44.14.58.13.15.54.27.47.14.66.49.19.36.32.72.13.37.32.63.19.27.69.27h.15l.35-.03q.35.46.42 1.05.08.59.43 1.06.2-.03.26-.18t.12-.29q.06-.15.19-.27.13-.11.48-.11.32 0 .53.17.2.18.38.4.18.22.37.39.19.18.48.18.5 0 1.1-.19.6-.19 1.23-.44t1.24-.51q.62-.27 1.12-.41 1.2-.36 2.25-1.03 1.06-.67 1.7-1.79.32-.58.78-1.08.45-.5.72-1.11.29 0 .58-.03.3-.03.62-.03h.28q.19 0 .39.03.21.03.37.08.16.06.16.15 0 .26-.19.43-.19.16-.41.29-.22.13-.4.29-.17.16-.17.46l.32-.03q.35 0 .94.17.58.18 1.15.49.58.3 1 .68.43.38.43.79zm-2.11 1.65q0-.18-.14-.31-.13-.13-.3-.13-.21 0-.36.26-.14.26-.14.41 0 .18.2.16.21-.01.27-.01.14 0 .3-.08.17-.07.17-.3zm24.49-32.38q0 .85-.28 1.75-.28.89-.81 1.64-.52.74-1.27 1.23-.75.48-1.66.48-.61 0-1.52-.19t-1.74-.56q-.84-.36-1.44-.95t-.6-1.38q0-.7.16-1.45.16-.74.19-1.51.3-.14.59-.52t.57-.78q.28-.39.56-.72.28-.32.57-.35l-.15.06q.41-.18.87-.29.45-.12.92-.12.61 0 1.48.31.86.31 1.65.8.79.5 1.35 1.18.56.67.56 1.37zm14.18 35.66q0 .49-.19.93-.19.44-.53.78t-.78.54q-.44.21-.96.21-.21 0-.27-.06-.06-.06-.2-.21-.41-.44-1-.51-.58-.07-1.21-.15-.63-.07-1.21-.32-.57-.25-.92-1.01-.23-.5-.5-.64-.26-.15-.82-.15-1.29 0-2.46.41t-2.31.92q-1.14.52-2.33.93-1.19.41-2.45.41-.7 0-1.39-.14-.69-.13-1.33-.42-.15.15-.34.21-.19.05-.42.05-.21 0-.4-.03-.19-.02-.34-.02-.03 0-.32.1-.29.1-.35.13l.18.29q-.18.27-.79.52-.62.24-1.34.42-.72.18-1.39.29-.67.12-1.02.12-.94 0-1.54-.31-.6-.3-1.19-1.07-.2-.29-.51-.58-.31-.3-.59-.6-.28-.31-.47-.66-.19-.35-.19-.73 0-.44.47-.74.47-.29 1.11-.48.65-.19 1.29-.26.65-.08 1-.08.7 0 1.41.19.7.19 1.4.19.65 0 1.23-.17.59-.18 1.23-.18.56 0 1.1.07.54.08 1.1.08.7 0 1.36-.25.66-.25 1.25-.66.23-1.44.33-2.87.11-1.44.11-2.9 0-1.44-.24-2.87-.23-1.44-.23-2.84 0-.12.06-.14.06-.01.13-.03.07-.01.13-.05.06-.05.06-.22 0-.62-.18-1.2-.17-.59-.17-1.21 0-.76.2-1.49.21-.73.21-1.49 0-.53-.24-1.06-.23-.53-.61-.94-.38-.41-.88-.66-.5-.24-1.06-.24-.61 0-1.21.14-.6.15-1.25.34-.64.19-1.3.34-.66.14-1.39.14-.85 0-1.67-.12-.82-.11-1.67-.26-.41-.06-.92-.12-.52-.05-.99-.2-.46-.15-.79-.44-.32-.29-.32-.85 0-1.03.37-1.57.36-.54.91-.8.54-.27 1.21-.33.68-.05 1.29-.11 1.11-.09 2.21-.16 1.1-.08 2.21-.08 1.38 0 2.71.16 1.34.17 2.71.17.97 0 1.85.29.88.29 1.54.89.66.6 1.04 1.51t.38 2.11q0 .79-.34 1.54-.33.75-.86 1.33.2.38.41.51.2.14.38.24.17.1.29.26.12.16.12.6 0 .24.07.54.08.31.4.34 0 1.58-.03 3.12t-.03 3.09q0 1.32.01 2.64.02 1.32.22 2.64.12.82.47 1.26.35.43 1.26.43 1.32 0 2.61-.27 1.29-.28 2.61-.28.76 0 1.45.38t1.32.82q.63.44 1.21.82.59.38 1.11.38.24 0 .39.16.14.16.22.38.07.22.08.46.02.23.02.41zm33.69-4.02q0 .5-.18.94-.17.44-.32.91-.12.41-.16.67-.04.27-.13.46t-.28.35q-.19.16-.6.36-.88.47-1.86.96-.98.48-1.98.48-.85 0-1.6-.4-.74-.39-1.37-.87-.63-.49-1.14-.9-.52-.41-.87-.41-.38 0-.66.21-.28.2-.56.44-.27.23-.61.44-.34.2-.84.2-.41 0-.84.15-.44.14-.88.33l-.9.39q-.45.19-.83.3-1.32.35-2.65.41-1.34.06-2.68.06-.36 0-1.09-.01-.73-.02-1.48-.15-.74-.13-1.32-.42-.57-.3-.57-.82 0-.12.03-.21-.2.23-.47.38-.26.15-.58.15-.47 0-1.15-.65-.67-.64-1.28-1.49-.62-.85-1.06-1.69-.44-.83-.44-1.24 0-.32.19-.59.19-.26.19-.58 0-.41-.1-.78-.1-.37-.1-.78 0-.52.2-1.12.21-.6.5-1.2.29-.61.62-1.18.32-.57.58-1.07.29-.58.82-.93.53-.35 1.12-.62.58-.26 1.17-.53.58-.26 1.02-.7.44.5 1.14.5.74 0 1.44-.22t1.44-.22q.58 0 1.12.12.55.11 1.13.11.65 0 .95-.16.31-.16.78-.57.47-.41 1.19-.63.71-.22 1.49-.35.78-.13 1.55-.28.78-.14 1.4-.42.61-.28.99-.76.38-.49.38-1.34 0-.94-.54-1.98t-1.39-1.9q-.85-.86-1.88-1.42-1.02-.56-1.96-.56-.12 0-.23.03-.12.03-.21.03-.7.12-1.58.16-.88.05-1.64.27-.76.22-1.29.73t-.53 1.51q0 .58.1 1.15.11.58.11 1.16 0 .88-.43 1.47-.42.58-1.08.93-.66.36-1.45.49-.79.13-1.52.13-.88 0-1.53-.23-.64-.24-1.05-1.09-.33-.61-.69-1.33-.37-.72-.37-1.45 0-.79.28-1.48t.63-1.35q.35-.66.69-1.32.34-.66.48-1.42.21-.12.57-.23.37-.12.79-.24.43-.11.82-.22.4-.1.66-.19.71-.2 1.37-.48.66-.28 1.34-.51.69-.24 1.38-.41.69-.18 1.42-.21l.91-.03q1.26 0 2.58.22t2.58.69q1.26.47 2.38 1.16 1.13.69 2.01 1.62.65.71 1.07 1.66.43.95.67 2.01.25 1.05.36 2.12.1 1.07.1 1.98 0 1.23-.08 2.41-.07 1.19-.07 2.42 0 1.17.13 2.33.14 1.16.31 2.31.18 1.16.31 2.32t.13 2.3q.06.7.19.86.13.16.28.16.64 0 1.04-.39.39-.4.72-.88.32-.48.7-.89.38-.41.97-.41.26 0 .54.03.28.02.51.13.24.1.38.29.15.19.15.51zm-9.64-7.29q0-.18-.01-.62-.02-.44-.08-.89t-.19-.81q-.13-.35-.39-.35-.06 0-.15.05-.09.04-.15.04-1.11.62-1.9 1.01-.79.4-1.57.65-.77.24-1.65.33-.88.09-2.2.09-.18 0-.97.15-.79.14-1.73.33-.93.19-1.75.38t-1.03.25q-.38.15-.54.3-.16.14-.25.32-.09.17-.18.36-.08.2-.32.4-.29.23-.63.38-.33.15-.63.44-.44.44-.82 1.16-.38.72-.38 1.36 0 .79.41 1.41.41.61 1.09 1.05.67.44 1.52.76.85.33 1.71.5.87.18 1.67.26.81.09 1.39.09.71 0 1.67-.1.97-.1 1.94-.32.96-.22 1.81-.6.85-.38 1.35-.97.21-.23.29-.42.09-.19.19-.39.11-.19.24-.39.13-.21.42-.44.68-.56 1.04-1.23.37-.67.55-1.41.17-.73.2-1.52t.03-1.61zm42.19 10.9q0 1.02-.69 1.62-.69.6-1.66.91-.96.31-2 .4-1.04.08-1.78.08-.96 0-1.59-.17-.63-.18-1.1-.37-.47-.19-.82-.36-.35-.18-.73-.18-.5 0-.98.18-.49.17-.99.17-.35 0-.57-.12-.22-.11-.36-.27-.15-.16-.28-.28-.13-.12-.31-.12-.2 0-.32.16t-.27.37q-.14.2-.42.36-.28.17-.81.17-.61 0-1.2-.14-.58-.13-1.2-.13-.61 0-1.21.22t-1.13.22q-.24 0-.35-.16-.12-.16-.27-.16-.5 0-1.04.23-.54.24-1.1.24-.29 0-.57-.08-.28-.07-.57-.07-.5 0-.99.24-.5.23-1.24.23-.26 0-1.15-.07-.9-.08-1.83-.22-.94-.15-1.69-.37-.74-.22-.74-.48 0-.76.27-1.53.28-.76.28-1.46v-.06q-.38 0-.44-.41.06-.12.19-.19t.28-.12q.15-.04.26-.13.12-.09.12-.26v-.12q1.17.12 2.3.15t2.36.03q1.14 0 2.53-.08 1.4-.07 2.58-.42 1.19-.35 1.99-1.07.81-.72.81-2.01v-.67q-.15-3.22-.31-6.35-.16-3.12-.16-6.34 0-.85-.13-1.65-.13-.81-.13-1.63 0-1.02.36-2.05.37-1.03 1.16-1.73-.03-.17-.15-.25-.11-.07-.29-.1l-.34-.06q-.16-.03-.27-.09-.18-.08-.24-.41-.06-.32-.1-.7-.04-.38-.09-.75-.04-.36-.19-.57.09-.85.29-1.67.21-.82.21-1.67 0-.61-.16-.96-.16-.36-.37-.59-.2-.23-.36-.43-.17-.19-.17-.48 0-.23.15-.44l-.23-.03q-.3 0-.44.15-.15.15-.28.32-.13.18-.28.32-.15.15-.41.15-.2 0-.47-.09-.5.15-.94.15-1.02 0-2.03-.28-1.01-.28-2.04-.28-.55 0-1.08.05-.53.04-1.06.04-.76 0-1.52-.18-.76-.17-1.35-.76v-.35q0-1.55 1.04-2.34 1.04-.79 2.54-.79 1.02 0 2.02.26.99.26 2.02.26.56 0 1.17-.11.62-.12 1.26-.27.65-.14 1.3-.26.66-.12 1.31-.12.99 0 1.87.43.88.42 1.76.8l-.03.24q0 .26.13.48.14.22.31.44.18.22.31.44t.13.48q0 .27-.07.51-.08.25-.08.52 0 .64.25 1.23.25.58.25 1.26 0 .7-.16 1.37-.16.68-.16 1.38 0 .85.21 1.7.2.85.2 1.7 0 .7-.22 1.38-.22.67-.22 1.34 0 .5.13.99.13.48.31.95t.31.95q.13.48.13 1.01v.59q0 .47-.07.89-.08.43-.4.81.15.55.31 1.2.16.64.16 1.23 0 .29-.04.63-.05.33-.15.67-.1.34-.28.62-.17.28-.41.45.38 1.11.5 2.26.12 1.14.17 2.28.03.35.12.91t.18 1.1q.09.54.16.99.07.46.07.63 0 .5-.17.97-.18.47-.18.97 0 .38.18.8.17.43.64.43.35 0 .6-.16t.54-.35q.3-.19.69-.36.4-.16 1.07-.16.76 0 1.44.21.67.2 1.43.2.56 0 1.13-.1.57-.1 1.11-.23.55-.14 1.1-.25.56-.12 1.14-.12 1.18 0 1.98.67.81.68.81 2zM231.52 16q-.12-.12-.28-.23-.16-.12-.36-.12-.15 0-.25.13t-.1.28l.14.35q.12.06.18.06.23 0 .39-.16t.28-.31zm1.76 8.15q0-.24-.13-.49t-.43-.25q-.09 0-.19.03t-.16.06v1.26q.24.12.35.12.3 0 .43-.25t.13-.48zm68.03.61q0 .12-.15.47t-.34.76q-.19.41-.39.76-.21.36-.32.47l.05.03q-.05 0-.11.03h-.15q-.12.03-.25.03h-.28l.12-.03q-.67-.03-1.22-.25-.54-.22-.89-.83-.06-.12-.17-.43-.12-.31-.24-.66-.12-.35-.19-.66-.07-.3-.07-.45 0-.23.04-.5.04-.26.04-.5 0-.9-.17-1.78-.18-.88-.18-1.79 0-.59.15-1.14.15-.56.53-1.03h-.15q-.35 0-.56-.22-.2-.22-.67-.22-1.11 0-2.17.27-1.05.26-2.22.26-.47 0-.94-.02-.47-.01-.97-.01-.91 0-1.79.21-.87.2-1.69.2-.09 0-.09-.03 0-.06.2-.16.21-.1.21-.16 0-.12-.19-.12h-.25q-.24 0-.4.24-.16.23-.48.32-.44.12-.94.12h-.97q-.29 0-.84-.03-.56-.03-1.12-.14-.55-.1-1.01-.32-.45-.22-.51-.63-.32.09-.43.31-.1.22-.17.45-.08.24-.22.43-.15.19-.59.22-.82.06-1.05.53-.24.46-.24 1.05 0 .32.03.65.03.32.03.64 0 1.17-.04 2.33-.05 1.16-.05 2.33 0 .5.02 1.33.01.84.12 1.64.1.81.3 1.44.21.63.59.71.23.06.5.08.26.01.52.01 1.03 0 2.01-.23.98-.24 2.01-.24.41 0 .77.12.37.12.75.12.56 0 .87-.54.3-.55.44-1.26.13-.72.16-1.45.03-.74.03-1.09 0-.73-.05-1.45-.04-.72-.04-1.45h.17q.74 0 1.38.24.65.23 1.35.23.29 0 .44-.03 0 .59.2 1.17.21.59.21 1.2 0 .77-.82.97.23.41.38.82.14.41.14.85 0 .32-.05.63-.06.31-.06.63 0 .29.19.46.19.16.19.36 0 .35-.28.88t-.28 1.08q0 .65.12 1.35.12.7.26 1.47.15.76.27 1.53.11.78.11 1.57 0 .47-.04.97t-.21.95q-.16.46-.43.84-.28.38-.72.64-.56-.06-.94-.34-.38-.27-.63-.67t-.38-.88q-.13-.48-.19-.98-.12-.76-.12-1.41 0-.64-.28-1.1-.28-.45-1.05-.71-.78-.27-2.42-.27-.47 0-1.33.09-.87.09-1.72.31-.84.22-1.47.63-.63.41-.63 1.02 0 .36.07.69.07.34.07.69 0 .29-.03.59-.03.29-.03.61 0 .79.09 1.57t.09 1.57q0 .85-.22 1.67t-.22 1.67q0 .93.45 1.48.46.54 1.16.82.7.27 1.52.36.82.09 1.53.09 1.4 0 2.81-.18 1.41-.17 2.81-.17.88 0 1.76.09.88.08 1.76.08.67 0 1.49-.04t1.57-.28q.75-.23 1.29-.69.54-.45.69-1.3.03-.23.16-.34.13-.1.29-.17.16-.08.28-.16.12-.09.12-.3 0-.23-.18-.54-.17-.31-.23-.57-.12-.56-.13-1.13-.02-.57-.02-1.13 0-.87.28-1.53t.28-1.45q0-.24-.02-.44-.01-.21-.01-.44 0-.18.26-.35.27-.18.62-.31t.7-.22q.35-.09.53-.09.73 0 1.2.51.47.52.72 1.25t.33 1.52q.09.79.09 1.35 0 .91-.15 2.05-.14 1.14-.39 2.34-.25 1.21-.57 2.33-.32 1.13-.65 1.98-.17.41-.33.62-.16.2-.36.33-.19.13-.41.27-.22.13-.48.42-.23.26-.89.35-.66.09-1.39.09-.56 0-1.06-.03t-.76-.03q-.97 0-1.57.24-.6.23-1.13.23-.38 0-.49-.16-.12-.16-.36-.16-.2 0-.38.17-.17.18-.52.18-.36 0-.72-.01-.37-.02-.75-.02-2.2 0-4.36.13-2.17.13-4.37.19-1.49.06-2.96.35-1.46.3-2.96.3-.52 0-1.2-.11-.67-.1-1.27-.36t-1.01-.72q-.41-.45-.41-1.13 0-.64.47-1.23.46-.58 1.12-1.08.66-.5 1.37-.92.7-.43 1.14-.81-.03-.23-.03-.44v-.41q0-.44.01-.88.02-.44.16-.88.06-.26.31-.63.25-.36.25-.63 0-.2-.07-.38-.08-.17-.13-.38-.33-.79-.46-1.41-.13-.61-.13-1.49 0-.53.01-.92.02-.4.06-.76.05-.37.15-.77.1-.39.28-.89-.12-.2-.27-.61-.14-.41-.14-.65l.41-4.16q-.03-.09-.03-.29 0-.27.09-.53.08-.26.08-.56 0-.67-.23-1.33t-.23-1.33q0-.24.11-.56.12-.32.25-.7.13-.38.25-.84.12-.45.12-.98 0-.41-.19-.7t-.19-.68q0-.35.17-.7.18-.35.18-.76 0-.59-.22-1.13-.22-.54-.45-1.04-.36-.73-.55-1.18-.19-.46-.45-.74-.26-.28-.72-.41-.45-.13-1.3-.19-.41-.03-.78-.25-.36-.22-.64-.57t-.46-.76q-.17-.41-.17-.79 0-.53.47-.89.46-.37 1.2-.59.73-.22 1.64-.35.91-.13 1.77-.21.86-.07 1.58-.1.72-.03 1.1-.09.59-.08 1.14-.11.56-.03 1.15-.03 1.14 0 2.3.07 1.15.07 2.3.07 1.23 0 2.41-.23 1.19-.24 2.42-.24 1.11 0 2.2.25 1.08.25 2.14.25 1.02 0 2.02-.25.99-.25 2.02-.25.44 0 .88.09.64.71 1.18 1.17.55.47.94.96.4.48.65 1.12.24.65.33 1.7.03.38.03.93 0 .54.03 1.05t.16.92q.13.41.43.5 0 .41-.41.41.03.41.17.84.15.42.3.85.14.42.26.85.12.42.12.8zm-25.37 7.21q-.18 0-.33.06-.14.06-.2.26 1.11.65 1.77 1.22.66.57 1.03.92.36.35.54.4.17.04.35-.37.23-.53-.07-1-.31-.47-.85-.79-.55-.32-1.18-.51-.62-.19-1.06-.19zm60.73 20.51q0 1.02-.69 1.62-.69.6-1.66.91-.96.31-2 .4-1.04.08-1.78.08-.96 0-1.59-.17-.63-.18-1.1-.37-.47-.19-.82-.36-.35-.18-.73-.18-.5 0-.98.18-.49.17-.99.17-.35 0-.57-.12-.22-.11-.36-.27-.15-.16-.28-.28-.13-.12-.31-.12-.2 0-.32.16t-.27.37q-.14.2-.42.36-.28.17-.81.17-.61 0-1.2-.14-.58-.13-1.2-.13-.61 0-1.21.22t-1.13.22q-.24 0-.35-.16-.12-.16-.27-.16-.5 0-1.04.23-.54.24-1.1.24-.29 0-.57-.08-.28-.07-.57-.07-.5 0-.99.24-.5.23-1.23.23-.27 0-1.16-.07-.9-.08-1.83-.22-.94-.15-1.69-.37-.74-.22-.74-.48 0-.76.27-1.53.28-.76.28-1.46v-.06q-.38 0-.44-.41.06-.12.19-.19t.28-.12q.15-.04.26-.13.12-.09.12-.26v-.12q1.17.12 2.3.15t2.36.03q1.14 0 2.53-.08 1.4-.07 2.58-.42 1.19-.35 1.99-1.07.81-.72.81-2.01v-.67q-.15-3.22-.31-6.35-.16-3.12-.16-6.34 0-.85-.13-1.65-.13-.81-.13-1.63 0-1.02.36-2.05.37-1.03 1.16-1.73-.03-.17-.15-.25-.11-.07-.29-.1l-.34-.06q-.16-.03-.27-.09-.18-.08-.24-.41-.06-.32-.1-.7-.04-.38-.09-.75-.04-.36-.19-.57.09-.85.29-1.67.21-.82.21-1.67 0-.61-.16-.96-.16-.36-.37-.59-.2-.23-.36-.43-.17-.19-.17-.48 0-.23.15-.44l-.23-.03q-.3 0-.44.15-.15.15-.28.32-.13.18-.28.32-.15.15-.41.15-.2 0-.47-.09-.5.15-.94.15-1.02 0-2.03-.28-1.01-.28-2.04-.28-.55 0-1.08.05-.53.04-1.06.04-.76 0-1.52-.18-.76-.17-1.35-.76v-.35q0-1.55 1.04-2.34 1.04-.79 2.54-.79 1.02 0 2.02.26.99.26 2.02.26.56 0 1.17-.11.62-.12 1.26-.27.65-.14 1.3-.26.66-.12 1.31-.12.99 0 1.87.43.88.42 1.76.8l-.03.24q0 .26.13.48.14.22.31.44.18.22.31.44t.13.48q0 .27-.07.51-.08.25-.08.52 0 .64.25 1.23.25.58.25 1.26 0 .7-.16 1.37-.16.68-.16 1.38 0 .85.21 1.7.2.85.2 1.7 0 .7-.22 1.38-.22.67-.22 1.34 0 .5.13.99.13.48.31.95t.31.95q.13.48.13 1.01v.59q0 .47-.07.89-.08.43-.4.81.15.55.31 1.2.16.64.16 1.23 0 .29-.04.63-.05.33-.15.67-.1.34-.28.62-.17.28-.41.45.38 1.11.5 2.26.12 1.14.17 2.28.03.35.12.91t.18 1.1q.09.54.16.99.07.46.07.63 0 .5-.17.97-.18.47-.18.97 0 .38.18.8.17.43.64.43.35 0 .6-.16t.54-.35q.3-.19.69-.36.4-.16 1.07-.16.76 0 1.44.21.67.2 1.43.2.56 0 1.13-.1.57-.1 1.11-.23.55-.14 1.1-.25.56-.12 1.14-.12 1.18 0 1.98.67.81.68.81 2zM319.85 16q-.12-.12-.28-.23-.16-.12-.36-.12-.15 0-.25.13t-.1.28l.14.35q.12.06.18.06.23 0 .39-.16t.28-.31zm1.76 8.15q0-.24-.13-.49t-.43-.25q-.09 0-.19.03t-.16.06v1.26q.24.12.35.12.3 0 .43-.25t.13-.48zm35.1-6.92q0 .85-.28 1.75-.28.89-.81 1.64-.52.74-1.27 1.23-.75.48-1.66.48-.61 0-1.52-.19t-1.74-.56q-.84-.36-1.44-.95t-.6-1.38q0-.7.16-1.45.16-.74.19-1.51.3-.14.59-.52t.57-.78q.28-.39.56-.72.27-.32.57-.35l-.15.06q.41-.18.87-.29.45-.12.92-.12.61 0 1.48.31.86.31 1.65.8.79.5 1.35 1.18.56.67.56 1.37zm14.18 35.66q0 .49-.19.93-.19.44-.53.78t-.78.54q-.44.21-.96.21-.21 0-.27-.06-.06-.06-.2-.21-.41-.44-1-.51-.58-.07-1.21-.15-.63-.07-1.21-.32-.57-.25-.92-1.01-.23-.5-.5-.64-.26-.15-.82-.15-1.29 0-2.46.41t-2.31.92q-1.15.52-2.33.93-1.19.41-2.45.41-.7 0-1.39-.14-.69-.13-1.33-.42-.15.15-.34.21-.19.05-.42.05-.21 0-.4-.03-.19-.02-.34-.02-.03 0-.32.1-.29.1-.35.13l.18.29q-.18.27-.8.52-.61.24-1.33.42-.72.18-1.39.29-.67.12-1.03.12-.93 0-1.53-.31-.6-.3-1.19-1.07-.21-.29-.51-.58-.31-.3-.59-.6-.28-.31-.47-.66-.19-.35-.19-.73 0-.44.47-.74.47-.29 1.11-.48.65-.19 1.29-.26.65-.08 1-.08.7 0 1.41.19.7.19 1.4.19.65 0 1.23-.17.59-.18 1.23-.18.56 0 1.1.07.54.08 1.1.08.7 0 1.36-.25.66-.25 1.25-.66.23-1.44.33-2.87.11-1.44.11-2.9 0-1.44-.24-2.87-.23-1.44-.23-2.84 0-.12.06-.14.05-.01.13-.03.07-.01.13-.05.06-.05.06-.22 0-.62-.18-1.2-.17-.59-.17-1.21 0-.76.2-1.49.21-.73.21-1.49 0-.53-.24-1.06-.23-.53-.61-.94-.38-.41-.88-.66-.5-.24-1.06-.24-.61 0-1.21.14-.6.15-1.25.34-.64.19-1.3.34-.66.14-1.39.14-.85 0-1.67-.12-.82-.11-1.67-.26-.41-.06-.92-.12-.52-.05-.99-.2-.47-.15-.79-.44-.32-.29-.32-.85 0-1.03.37-1.57.36-.54.9-.8.55-.27 1.22-.33.67-.05 1.29-.11 1.11-.09 2.21-.16 1.1-.08 2.21-.08 1.38 0 2.71.16 1.34.17 2.71.17.97 0 1.85.29.88.29 1.54.89.66.6 1.04 1.51t.38 2.11q0 .79-.34 1.54t-.86 1.33q.2.38.41.51.2.14.38.24.17.1.29.26.12.16.12.6 0 .24.07.54.07.31.4.34 0 1.58-.03 3.12t-.03 3.09q0 1.32.01 2.64.02 1.32.22 2.64.12.82.47 1.26.35.43 1.26.43 1.32 0 2.61-.27 1.29-.28 2.61-.28.76 0 1.45.38.68.38 1.31.82.63.44 1.22.82.59.38 1.11.38.24 0 .38.16.15.16.22.38.08.22.09.46.02.23.02.41zm27.68-9.29q0 .94-.2 1.77-.21.84-.47 1.64-.27.81-.54 1.64-.28.84-.43 1.72-.26 1.46-1.05 2.43-.79.97-1.91 1.54-1.11.57-2.47.85-1.37.27-2.8.42-1.44.15-2.83.21-1.39.06-2.56.2-.44-.32-.73-.7-.3-.38-.56-.72-.26-.34-.59-.56-.32-.22-.85-.22-.17 0-.27-.48-.11-.48-.19-1.08-.09-.6-.2-1.09-.1-.48-.27-.48-.68 0-1.07-.29-.4-.3-.62-.75-.22-.45-.29-1.01-.07-.56-.07-1.09 0-.41-.18-.76-.18-.35-.38-.69-.21-.33-.38-.68-.18-.36-.18-.74 0-.44.05-1.1.04-.65.08-1.36.05-.7.09-1.37.05-.68.05-1.12 0-.52.13-.88.13-.35.31-.61.17-.27.3-.47.14-.21.14-.47 0-.35-.17-.59-.16-.23-.16-.46 0-.33.21-.63.2-.31.29-.63.32-1.29.32-2.55 0-.27-.01-.52-.02-.24-.05-.48-.67-.56-1.49-.72-.82-.16-1.64-.23t-1.58-.19q-.76-.12-1.29-.62-.44-.41-.79-.92-.35-.51-.94-.69-.41-.14-.69-.39-.28-.25-.28-.72 0-.7.43-1.07.42-.37 1.01-.59.58-.22 1.21-.38t1.07-.48q.44-.32 1.06-.32.26 0 .51.01.25.02.51.02.74 0 1.22-.25t.76-.68q.28-.42.38-.98.11-.55.11-1.2 0-.94-.12-1.82-.12-.87-.12-1.81 0-1.09.29-1.99.3-.91 1.12-1.67.17-.15.38-.38.2-.24.44-.46.23-.22.48-.37.25-.14.51-.14.18 0 .31.07t.28.19q.64.65.83.95.19.31.19.72 0 .24-.01.51-.01.28-.01.72 0 .94.23 1.85.23.91.23 1.55 0 .56-.22 1.07t-.22 1.07q0 .41.2.75.19.33.43.66.25.32.46.66.2.33.2.77.3.21 1.32.37 1.03.16 2.29.26t2.55.16q1.29.06 2.13.06.77 0 1.18.12.41.12.69.25.27.13.51.28.23.14.61.17.47.06.81.25.34.19.34.75 0 .7-.37 1.11-.37.41-.91.62-.54.2-1.16.24-.61.05-1.14.05-.85 0-1.7-.06t-1.7-.06q-1.4 0-2.55.27-1.14.26-1.97.87-.84.62-1.29 1.63-.46 1.01-.46 2.53 0 1.5.19 2.93.19 1.44.19 2.93 0 1.41.05 2.26.04.85.34 1.44.38.84.61 1.93.23 1.08.6 2.05.37.97 1.03 1.63.66.65 1.94.65.44 0 1.18-.11.73-.12 1.46-.37t1.26-.64q.53-.4.53-.98 0-.5-.29-1.02-.3-.51-.3-1.09 0-.41.19-.72t.5-.56q.31-.25.65-.44.33-.19.65-.33.53-.68 1.28-1.13.75-.46 1.6-.46.58 0 1.12.21.55.2 1.01.53.09.52.09 1.08zm31.41 4.28q0 .79-.25 1.34-.25.56-.65 1-.39.44-.9.82-.52.38-1.04.82-.41.35-.74.53-.32.17-.63.29-.3.12-.64.24-.34.11-.78.32-.58.29-.98.54-.39.25-.79.45-.39.21-.86.34-.47.13-1.18.22-1.17.15-2.35.35-1.19.21-2.36.21-.24 0-.49-.1-.24-.11-.57-.21-.32-.1-.71-.21-.4-.1-.96-.1-.58 0-.93-.17-.36-.18-.63-.41-.28-.24-.58-.52-.29-.27-.76-.48-1.75-.79-2.99-1.9-1.23-1.12-2.1-2.49-.88-1.38-1.47-2.99-.59-1.61-1-3.37-.32-1.23-.32-2.46 0-1.61.76-2.99-.29-.82-.29-1.58 0-.56.32-1.66.33-1.1.84-2.21.51-1.11 1.11-2.01.6-.89 1.13-1.1.41-.14.57-.24.16-.11.16-.58 0-.35.28-.58.28-.24.67-.38.4-.15.8-.27.39-.11.65-.23 1.09-.53 2.07-.89.98-.37 1.96-.62t2.04-.37q1.05-.11 2.25-.11.65 0 1.26.17.62.18 1.19.46t1.13.61q.56.34 1.08.66h-.03q.44.06.84.25.39.19.83.25.41.5 1.07.95.66.46 1.29.95.63.5 1.09 1.07.45.57.45 1.31 0 .11-.01.23-.02.12-.05.26l.12-.14q.12.09.22.29.1.21.19.46.09.24.15.49l.08.4q.24.38.63.61.4.24.63.65-.29.29-.29.76 0 .5.2.98.21.49.21.98 0 .59-.06 1.13-.06.54-.06 1.13 0 .44-.33.67-.34.24-.74.41-.39.18-.71.35-.33.18-.33.5 0 .24-.27.22-.28-.01-.46-.01-1.29 0-2.56-.32-1.28-.33-2.54-.33-1.37 0-2.72.19t-2.73.19q-1.02 0-2.03-.05-1.01-.06-2.04-.06-.26 0-.99.1-.74.1-1.54.26-.81.16-1.54.38t-1.03.43q-.03.15-.03.41 0 1.38.81 2.84.81 1.47 2.12 2.67 1.32 1.2 2.96 1.99t3.31.79q.97 0 1.92.07.96.08 1.86.43.79-.38 1.45-.88.66-.5 1.28-1.06.61-.55 1.2-1.14.59-.58 1.2-1.17.12-.12.57-.22.46-.1.98-.18.53-.07 1.01-.11.49-.05.66-.05.68 0 1.26.21.18.67.18 1.32zm-4.4-11.9q0-.44-.14-.85-.15-.41-.24-.85-.14-.82-.14-1.59 0-.78-.24-1.57h-.03q0 .17-.11.34-.12.16-.33.16-.35 0-.67-.18-.32-.17-.56-.44-1.11-.5-2-.94-.9-.43-1.79-.77t-1.91-.53q-1.01-.19-2.32-.19-.12 0-.22.01-.11.02-.19.11l.14.32-.23.06q-.79.14-1.31.28-.51.13-.92.36-.41.24-.8.57l-1.02.87q-.29.26-.63.39-.33.14-.67.24-.34.1-.64.22-.31.12-.52.38-.2.73-.6 1.42-.39.69-.39 1.45 0 .44.36.78.37.33.94.57.57.23 1.26.41.69.17 1.36.26.68.09 1.25.13.57.05.89.05 1.12 0 2.2-.22t2.2-.22q1.14 0 2.28.1t2.29.1q.29 0 .88-.03.58-.03 1.15-.16t1-.38q.42-.25.42-.66z"/></svg>