<svg viewBox="0 0 300 80" xmlns="http://www.w3.org/2000/svg"><path d="M27.6 60.6q-3.24 0-5.91-1.65t-4.26-4.38q-1.59-2.73-1.59-6.03v-2.76q0-.3.3-.3h6.72q.24 0 .24.3v2.76q0 1.98 1.32 3.39 1.32 1.41 3.18 1.41t3.18-1.44q1.32-1.44 1.32-3.36 0-2.22-2.88-3.84-.96-.54-3-1.68t-3.84-2.16q-3.3-1.92-4.89-4.83-1.59-2.91-1.59-6.57 0-3.36 1.62-6.03 1.62-2.67 4.29-4.23 2.67-1.56 5.79-1.56 3.18 0 5.85 1.59 2.67 1.59 4.26 4.26 1.59 2.67 1.59 5.97v4.92q0 .24-.24.24h-6.72q-.24 0-.24-.24l-.06-4.92q0-2.1-1.32-3.42-1.32-1.32-3.12-1.32-1.86 0-3.18 1.41t-1.32 3.33q0 1.98.84 3.3.84 1.32 3.06 2.52.3.18 1.17.63.87.45 1.89 1.02 1.02.57 1.83.99.81.42.99.54 3 1.68 4.74 4.11 1.74 2.43 1.74 5.97 0 3.42-1.59 6.15-1.59 2.73-4.26 4.32-2.67 1.59-5.91 1.59zm28.44-.6h-6.78q-.24 0-.24-.3V25.5h-7.8q-.3 0-.3-.3l.06-6.72q0-.24.24-.24h22.8q.3 0 .3.24v6.72q0 .3-.24.3h-7.86l.06 34.2q0 .3-.24.3zm7.02-.3l7.44-41.22q.06-.24.3-.24h8.7q.24 0 .3.24l7.14 41.22q.06.3-.24.3h-6.66q-.24 0-.3-.3l-.66-4.38h-8.16l-.66 4.38q-.06.3-.3.3H63.3q-.24 0-.24-.3zm11.76-27.66l-2.7 16.86h5.76l-2.46-16.86-.36-2.22-.24 2.22zM88.8 59.7l7.44-41.22q.06-.24.3-.24h8.7q.24 0 .3.24l7.14 41.22q.06.3-.24.3h-6.66q-.24 0-.3-.3l-.66-4.38h-8.16L96 59.7q-.06.3-.3.3h-6.66q-.24 0-.24-.3zm11.76-27.66l-2.7 16.86h5.76l-2.46-16.86-.36-2.22-.24 2.22zM126.36 60h-6.78q-.24 0-.24-.3V25.5h-7.8q-.3 0-.3-.3l.06-6.72q0-.24.24-.24h22.8q.3 0 .3.24v6.72q0 .3-.24.3h-7.86l.06 34.2q0 .3-.24.3zm32.04 0h-19.38q-.24 0-.24-.3l.06-41.16q0-.3.3-.3h6.66q.3 0 .3.3l-.06 34.08h12.36q.3 0 .3.3v6.78q0 .3-.3.3zm11.28 0h-6.78q-.3 0-.3-.3l.06-41.22q0-.24.24-.24h6.72q.24 0 .24.24l.06 41.22q0 .3-.24.3zm16.56.6q-3.3 0-5.97-1.65t-4.23-4.41q-1.56-2.76-1.56-6.18l.06-18.72q0-3.3 1.53-6.03 1.53-2.73 4.2-4.38t5.97-1.65q3.3 0 5.94 1.62 2.64 1.62 4.2 4.35 1.56 2.73 1.56 6.09v2.76q0 .24-.24.24h-6.72q-.24 0-.24-.24v-2.76q0-1.98-1.29-3.42t-3.21-1.44q-2.16 0-3.3 1.47-1.14 1.47-1.14 3.39v18.72q0 2.22 1.29 3.6t3.15 1.38q1.92 0 3.21-1.53t1.29-3.45V45.6q0-.24.24-.24h6.78q.24 0 .24.24v2.76q0 3.42-1.59 6.18t-4.23 4.41q-2.64 1.65-5.94 1.65zm23.16-.6h-6.78q-.24 0-.24-.3l.06-41.22q0-.24.3-.24h6.66q.3 0 .3.24l-.06 16.32h9V18.48q0-.24.24-.24h6.66q.3 0 .3.24l.12 41.22q0 .3-.3.3h-6.72q-.3 0-.3-.3V42.06h-9V59.7q0 .3-.24.3zm41.1 0h-19.38q-.24 0-.24-.3l.06-41.22q0-.24.24-.24h19.26q.24 0 .24.3v6.72q0 .24-.24.24h-12.3v9.36h12.3q.24 0 .24.24l.06 6.78q0 .24-.24.24h-12.36v10.5h12.36q.24 0 .24.3v6.84q0 .24-.24.24zm15.42.6q-3.24 0-5.91-1.65t-4.26-4.38q-1.59-2.73-1.59-6.03v-2.76q0-.3.3-.3h6.72q.24 0 .24.3v2.76q0 1.98 1.32 3.39 1.32 1.41 3.18 1.41t3.18-1.44q1.32-1.44 1.32-3.36 0-2.22-2.88-3.84-.96-.54-3-1.68t-3.84-2.16q-3.3-1.92-4.89-4.83-1.59-2.91-1.59-6.57 0-3.36 1.62-6.03 1.62-2.67 4.29-4.23 2.67-1.56 5.79-1.56 3.18 0 5.85 1.59 2.67 1.59 4.26 4.26 1.59 2.67 1.59 5.97v4.92q0 .24-.24.24h-6.72q-.24 0-.24-.24l-.06-4.92q0-2.1-1.32-3.42-1.32-1.32-3.12-1.32-1.86 0-3.18 1.41t-1.32 3.33q0 1.98.84 3.3.84 1.32 3.06 2.52.3.18 1.17.63.87.45 1.89 1.02 1.02.57 1.83.99.81.42.99.54 3 1.68 4.74 4.11 1.74 2.43 1.74 5.97 0 3.42-1.59 6.15-1.59 2.73-4.26 4.32-2.67 1.59-5.91 1.59z"/></svg>