<svg viewBox="0 0 447 80" xmlns="http://www.w3.org/2000/svg"><path d="M25.22 54.63q-2.81 2.81-5.74 6.09-.12 2.11 2.11 2.69 1.05-.11 1.99-.58 2.93-2.23 5.04-5.51V55.8q-1.41-1.88-3.4-1.17zm16.41 1.05q.7 2.23 1.99 4.34 1.76 2.81 4.33 4.68 1.18.12 2.11-.35 1.17-1.17.82-2.69-3.04-4.46-6.68-7.74-1.87 0-2.57 1.76zm-7.62-40.55q-.71 1.53-.82 3.4-4.69.12-9.14.35-1.64.59-1.88 2.46.35 1.06 1.53 1.64 4.57-.11 9.37-.11.47.47.35 1.4-4.45.24-8.67.82-1.05.71-.94 2.23.71.94 2.11 1.41 3.52-.35 7.38-.24.47 1.06 0 2.35-9.02-.24-17.46.46-1.05 1.18-.7 2.93.59.71 1.76 1.18 6.33-.47 12.89-.71-1.52 2.35-4.1 4.34-.35 1.17.47 2.34 2.46.94 4.68 2.46-3.98 2.7-7.5 6.21-.35 1.29.36 2.47 4.1.82 8.9.46.24 5.63.82 11.25.47.59 1.29.94 1.99.24 2.93-1.52.12-5.39-.12-11.02 3.52-.82 7.03-.47 1.06 1.29 2.47 2 1.28 0 2.34-.47.59-1.17.47-2.46-2.7-2.93-5.51-6.21-1.05-.59-2.23-.47-1.05.35-1.52 1.4-.12 1.29.47 2.23-4.57.59-8.79.47 6.21-3.87 11.13-8.79-.23-1.64-1.64-2.23h-1.76q-2.34 2.23-4.92 3.52-1.64-.82-3.16-1.64 2.46-2.58 5.04-4.92 8.9.11 17.93.35.82-.35 1.76-.82.7-1.06.46-2.11-.7-1.06-1.64-1.41-8.79-.23-17.11.24-.46-1.06-.23-2.11 4.8.23 9.26-.59 1.05-1.76-.35-3.16-4.22-.71-8.68-.35-.58-.71-.35-1.65 5.51-.35 11.25-.35.71-.58 1.17-1.4 0-2-1.64-2.7-5.39 0-10.54-.12-.35-1.17-.24-2.46-.58-1.05-1.76-1.4-1.28-.12-2.22.58zm49.57 1.76q-.7.47-1.17 1.17-.36 4.1 0 8.91-4.57.35-8.91 1.17-.82.94-.82 2.34.23.71.82 1.53 3.28.47 6.8-.12-.82 2.34-2.23 4.69-4.1 4.92-7.73 10.31 0 1.06.58 2.11 1.06.7 2.7.59 4.57-5.04 8.67-11.02.59 10.9-.24 22.27.47 1.75 2.35 2.22 1.05-.11 1.87-.82 1.53-12.07.71-24.49 2.34 1.05 4.68 3.16 1.18.24 2.47-.11 1.4-1.64.46-3.4-3.86-3.17-7.14-6.1 2.46-.82 5.39-.93.93-.82 1.4-1.88-.11-1.99-1.87-2.58-3.05.71-5.39 0v-7.5q-1.06-2.11-3.4-1.52zm27.3-.7q-.93.94-1.17 2.22v6.57q-7.03.35-13.24 1.17-.82 1.05-.59 2.58.59 1.29 2.23 1.75 5.74-.35 11.48-.82.59 3.75.12 7.74-8.2 5.27-16.64 9.61-1.29 1.76-.12 3.63.71.35 1.76.47 7.74-3.52 15-7.85.12 6.79-.12 13.59-.7-.23-1.64-.12-1.75.82-1.75 2.7 1.87 2.58 5.39 4.57 2.22.23 3.04-1.64-.23-10.66-.11-21.8 1.52-1.05 3.16-1.99.82-1.87-.35-3.28-1.41-.47-2.7-.47-.23-2.46-.11-5.04 2.93-.23 5.86-.47.82-.58 1.28-1.64.12-1.99-1.52-2.69-3.05-.12-5.62-.35-.24-3.52.35-6.68-.47-1.76-2.23-2.23-.94.12-1.76.47zm48.28-2.11q-2.69 3.4-4.92 6.68-3.28 0-6.21.58 1.06-3.04 1.17-6.32-.7-.82-1.52-1.18-1.52-.23-2.34.71-3.87 8.55-9.61 16.05.23.94.82 1.76 1.52.7 3.16.12 2.11-2.35 3.75-4.69.47 5.62.82 11.48.47 2 1.29 4.11 4.1 1.17 9.14.58.47 1.06.35 2.46-7.97.24-16.4 1.64-1.29 1.53-.36 3.28.71.71 1.76.94 5.39-.7 10.43-.7-5.04 4.8-10.43 9.26-.11 2.22 2.11 2.93 2.11-.71 4.22-1.88 4.1-3.75 8.32-7.5-.23 4.81-.35 10.2.23.58.82 1.17 1.41.82 3.05 0 1.29-5.39 1.29-11.13 3.86 3.86 8.43 7.14 2.23 1.18 4.57 2.35 1.41.23 2.7-.24 1.05-1.4.82-3.04-5.51-3.17-10.66-6.92-1.41-1.29-2.58-2.81 4.33-.23 8.9.59 1.29-.12 2.35-.94 1.05-1.76.11-3.4-7.03-1.17-14.64-.94-.47-1.4.11-2.69 4.1.23 7.74-.35.82-1.29.47-2.82-.94-1.17-2.23-1.4-2.7.23-5.51.23-.23-1.05-.12-2.11 2.58-.12 5.28-.35 1.17-.94 1.17-2.46-.35-.94-.82-1.52-2.7-.82-5.63-.36-.46-.46-.23-1.05 2.34-.24 5.04-.35.7-.71 1.05-1.53.12-1.52-.82-2.34-2.46-.82-5.15-.59-.59-.93 0-1.87h9.72q1.41-1.17 1.29-2.93-.82-1.41-2.34-1.76-4.1-.12-7.97-.23 1.29-1.88 2.58-3.75 0-1.99-1.88-2.7-1.29-.11-2.11.59zm-3.75 23.2q.12.94.24 1.99-3.28.47-6.45.47-.58-.7-.35-1.52 2.93-1.06 6.56-.94zm-.23-6.09q.12.58.12 1.52-3.4.59-6.8.82-.59-.47-.35-1.17 3.16-1.29 7.03-1.17zm-.12-6.1q.12.59.12 1.41-3.28.82-6.91 1.05-.47-.7-.12-1.4 3.16-1.17 6.91-1.06zm58.24 5.04l-.11 2.82q-6.33.82-12.42 1.99-.71.47-1.06 1.4-.23 8.56 0 17.11.24.71.82 1.41 1.06.59 2.46.47 1.17-.59 1.53-1.88-.47-7.38 0-14.29 4.33-1.41 8.78-1.06-.46 13.24.59 25.78.82.59 1.88.82 1.75-.23 2.34-1.75 0-12.43-.23-25.08 5.15-1.06 10.19.58.23 2.58.59 5.39-.36 5.16-1.88 9.73-.12 1.17.47 2.11.82.47 1.99.82.94-.23 1.88-.82 1.52-3.63 2.11-7.38.11-5.04 0-9.96-.47-1.88-1.29-3.64-1.29-1.05-2.46-1.29-5.63-.58-11.49-.46-.47-1.41-.23-3.05-.94-1.52-2.58-1.52-1.41.35-1.88 1.75zm-.35-12.77q-.11 2.58 0 5.27-9.02 0-17.46 1.29-.58 1.06-.47 2.46.59 1.29 2.11 1.76 18.87-1.17 38.21-.82 1.05-.59 1.52-1.64.23-2.46-1.64-3.16-8.67-.12-17.34 0-.47-2.58-.24-5.39-.82-1.88-2.93-1.65-1.41.47-1.76 1.88zm53.09 41.37q-.7 1.05-.47 2.46.35.94 1.52 1.4 4.69-.58 9.03-2.34 1.05-1.05.93-2.46-.58-1.17-1.64-1.64-5.03.23-9.37 2.58zm19.34-2.58q-.59 1.17-.24 2.69 3.87 3.05 8.56 4.46 2.1-.24 2.81-2.11-.12-1.53-1.29-2.58-3.99-1.52-7.74-3.28-1.28 0-2.1.82zm-17.11-6.92q-1.29 1.29-.59 3.05 2.7 1.76 6.09 2.46 1.76-.58 2.11-2.58-.35-.93-1.17-1.75-2.11-.94-4.1-1.64-1.41-.24-2.34.46zm17.93 1.06q-1.18 1.05-.82 2.93.7 1.29 2.34 1.29 3.4-1.17 6.68-2.81.82-1.06.7-2.47-.58-1.17-1.64-1.4-4.1.35-7.26 2.46zm-7.15-23.2q-.82 1.17-.59 2.81-3.05.12-6.21.12-1.76.35-1.99 2.11 0 1.17.82 1.99 3.51.7 7.62.35.35.7.23 1.64-5.51.35-10.78 1.05-1.29 1.41-.35 3.17.47.47 1.17.82 4.8 0 9.84-.35.12.82.12 1.99-4.22-.12-7.85.47-.94.82-.82 2.22.23.82.82 1.53 3.51.7 7.62.47-.24 8.55.11 16.64.71.58 1.64.93 1.29 0 2.23-.82.59-8.78.7-17.1 3.99.23 7.5-.59 1.17-2.7 1.17-5.98 3.52.35 6.8-.7.94-1.64.12-3.16-3.28-1.06-6.92-1.18.36-2.93-.46-5.15-3.87-1.06-8.44-.59-.24-1.29-.59-2.46-1.76-1.52-3.51-.23zm8.08 13.47q.35.71.24 1.88-1.76.58-3.64.35-.58-.82-.35-1.88 1.64-.7 3.75-.35zm.24-6.33q.35 1.18-.24 2h-3.63q-.23-.82-.12-1.64 1.76-.59 3.99-.36zm-11.49-17.34q.35 1.88.71 3.99-7.5 0-14.42 1.4-.47.59-.82 1.41.24 3.98.35 7.73-.93 9.38-3.98 17.7-2.23 4.8-5.27 9.26-.24 1.52.93 2.57 1.53.82 3.17-.11 4.45-6.45 6.91-13.36 1.64-6.21 2.7-12.43.11-4.33.11-8.67 13.6-1.75 28.01-1.17 1.99-.7 1.99-2.93-.58-1.52-2.11-1.87-6.21.11-12.65.35-.59-2.81-1.53-5.16-1.05-.7-2.1-.7-1.41.35-2 1.99zm50.16 41.84q-.7 1.05-.47 2.46.35.94 1.52 1.4 4.69-.58 9.03-2.34 1.05-1.05.93-2.46-.58-1.17-1.64-1.64-5.03.23-9.37 2.58zm19.34-2.58q-.59 1.17-.24 2.69 3.87 3.05 8.56 4.46 2.1-.24 2.81-2.11-.12-1.53-1.29-2.58-3.99-1.52-7.74-3.28-1.28 0-2.1.82zm-17.11-6.92q-1.29 1.29-.59 3.05 2.7 1.76 6.09 2.46 1.76-.58 2.11-2.58-.35-.93-1.17-1.75-2.11-.94-4.1-1.64-1.41-.24-2.34.46zm17.93 1.06q-1.18 1.05-.82 2.93.7 1.29 2.34 1.29 3.4-1.17 6.68-2.81.82-1.06.7-2.47-.58-1.17-1.64-1.4-4.1.35-7.26 2.46zm-7.15-23.2q-.82 1.17-.59 2.81-3.05.12-6.21.12-1.76.35-1.99 2.11 0 1.17.82 1.99 3.51.7 7.62.35.35.7.23 1.64-5.51.35-10.78 1.05-1.29 1.41-.35 3.17.47.47 1.17.82 4.8 0 9.84-.35.12.82.12 1.99-4.22-.12-7.85.47-.94.82-.82 2.22.23.82.82 1.53 3.51.7 7.62.47-.24 8.55.11 16.64.71.58 1.64.93 1.29 0 2.23-.82.59-8.78.7-17.1 3.99.23 7.5-.59 1.17-2.7 1.17-5.98 3.52.35 6.8-.7.94-1.64.12-3.16-3.28-1.06-6.92-1.18.36-2.93-.46-5.15-3.87-1.06-8.44-.59-.24-1.29-.59-2.46-1.76-1.52-3.51-.23zm8.08 13.47q.35.71.24 1.88-1.76.58-3.64.35-.58-.82-.35-1.88 1.64-.7 3.75-.35zm.24-6.33q.35 1.18-.24 2h-3.63q-.23-.82-.12-1.64 1.76-.59 3.99-.36zm-11.49-17.34q.35 1.88.71 3.99-7.5 0-14.42 1.4-.47.59-.82 1.41.24 3.98.35 7.73-.93 9.38-3.98 17.7-2.23 4.8-5.27 9.26-.24 1.52.93 2.57 1.53.82 3.17-.11 4.45-6.45 6.91-13.36 1.64-6.21 2.7-12.43.11-4.33.11-8.67 13.6-1.75 28.01-1.17 1.99-.7 1.99-2.93-.58-1.52-2.11-1.87-6.21.11-12.65.35-.59-2.81-1.53-5.16-1.05-.7-2.1-.7-1.41.35-2 1.99zm46.76 1.99q-5.74 12.19-12.77 23.56.23 2.22 2.46 2.81.7-.35 1.52-.59 2.35-4.1 4.92-6.91v23.91q1.06 1.17 2.7 1.17 1.29-.35 1.87-1.41.59-13.59-.11-27.65-1.18-.82-1.88-1.53 2.7-5.62 5.51-11.48-.35-2.35-2.58-2.58-1.05.12-1.64.7zm18.52-1.17q-.82 4.45-.82 9.26-6.1-.24-11.37 1.29-.82.82-.82 1.99.35 1.76 2.23 2.23 3.98-.82 8.43-.82-2.58 5.74-6.68 10.89-4.45 4.11-7.61 8.44 0 .94.46 1.76 1.06.82 2.7.7 4.92-3.98 8.79-8.67 1.76-3.16 3.98-5.98.71 4.81.47 10.43-3.63-.23-6.56 1.18-.7.82-.47 2.22.59 1.29 2.11 1.64 2.23-.47 4.8-.35.12 4.1.71 8.21.82.7 2.22.82 1.53-.59 2.11-2-.23-3.4-.23-6.68 1.64-.23 3.75.12 1.41-.47 1.99-1.99 0-1.41-.94-2.11-2.22-1.17-4.8-.94-.82-5.04-.12-9.96 2.35 3.28 4.57 6.8 4.1 4.33 8.44 7.61.82.24 1.88.24 1.28-.47 1.64-1.76.11-1.29-.36-2.11-3.98-3.16-7.26-6.33-4.57-5.86-7.97-12.07 4.57-.35 9.73.24 1.05-.71 1.52-1.88.12-1.52-.7-2.46-6.1-.94-12.07-1.17.47-3.87.23-7.85-.82-1.64-2.81-1.52-.59.23-1.17.58z"/></svg>