<svg viewBox="0 0 408 80" xmlns="http://www.w3.org/2000/svg"><path d="M58.48 12.59q-.05.29-.05.61t-.06.62q-.47.41-.79.52-.33.12-.56.59-.18.29-.18.64 0 .36-.17.65-.18.41-.85.85-.68.44-.97.56-.35.17-.73.29-.38.12-.73.29-.53.24-.85.35-.33.12-.68.15-.35.03-.76.06-.41.03-1.05.14-.18 0-.24.09t-.23.21q-.18.11-.53.2-.35.09-1.05.15l-.97.09q-.32.03-1.03.14-.41.12-.76.35-.35.24-.76.41-.82.47-1.2.91-.38.44-.62.79-.35.59-.32 1.32.03.73-.26 1.56-.24.58-.76 1.17-.53.58-.77 1.23-.05.29 0 .64.06.35 0 .76-.11.77-.52 1.56-.41.79-.71 1.67-.11.47-.08.93.03.47-.09.94-.18 1.11-.53 2.37-.35 1.26-.64 2.49-.12.71-.09 1.44t-.15 1.26q-.11.53-.44 1-.32.46-.58.96-.27.5-.35 1.06-.09.55.26 1.2-.18 2.17-.59 4.39-.41 2.23-1.05 4.28-.18.65-.56 1.7-.38 1.05-.73 1.35-.35.29-.91.38-.56.09-1.11-.03-.56-.12-1.03-.41t-.64-.7q-.35.23-.62.64-.26.41-.73.64-.59.3-1.2.24-.62-.06-1.26.23-.59.24-1.06.56-.46.32-.93.44-.3.12-.56.09-.26-.03-.5.09-.35.17-.52.58-.18.41-.53.65-.47-.12-1.06-.15-.58-.03-.88-.32-.11-1.53.47-2.67.59-1.14.88-2.25.24-.65.32-1.24l.21-1.34q.23-.82.59-1.73.35-.91.52-1.85.18-.64.21-1.32.03-.67.26-1.31.12-.47.59-1.03t.7-1.2q.23-.64.41-1.47.18-.82.47-1.58.29-.99.85-1.7.56-.7.5-1.58 0-.41-.18-.64-.17-.24-.17-.53-.06-.47.11-1.29.18-.82.35-1.46.3-1.23.59-2.23t.59-1.99q.11-.47.2-.91.09-.44.21-.79.11-.47.38-.79.26-.33.38-.68.11-.41.2-.99.09-.59.27-1.12.17-.41.38-.76.2-.35.26-.7.12-.76-.2-1.41-.33-.64-.33-1.35-.64-.46-1.52-.55-.88-.09-1.7-.03t-1.46.09q-.65.03-1.47.08-1.35.06-2.34.24-1 .17-1.91.35-.9.18-1.84.26-.94.09-2.11.03.12-.64.14-1.37.03-.74.21-1.2.35-.3.7-.33.35-.03.76-.08-.23-.36-.2-.65.03-.29.12-.56.08-.26.23-.52.15-.27.21-.5.11-.59.08-1.17-.03-.59.5-.94.82-.06 1.47 0 .64.06 1.23.15.58.08 1.2.14.61.06 1.43 0 1.88-.11 3.08-.29 1.2-.18 2.96-.24 1.23 0 2.37.03 1.14.03 2.14.15 1.06.18 1.55.18.5 0 .91-.03.41-.03.88-.09.47-.06 1.41-.06.99 0 1.9-.15.91-.14 1.91-.08 1.11 0 1.55.14.44.15.73.27.29.11.65.2.35.09 1.28-.03.65-.11.82-.26.18-.15.83-.27.58-.05 1.17-.02.58.02 1.23-.03 1.76-.18 3.54-.62 1.79-.44 3.66-.2zm6.86 13.82h7.79q.47.12.94.12t.94.12q.17 0 .35.12.18.11.35.17.18.06.35 0 .18-.06.35 0 1.35.35 2.17 1.09.82.73 1.64 1.78.35.59.88 1.38.53.79.88 1.76.35.96.41 2.02.06 1.05-.41 2.11-.12.29-.35.73-.24.44-.47.91-.35.64-.88 1.35-.53.7-1.11.99-.47.3-.79.53-.33.23-.79.47-.82.29-1.62.85-.79.55-1.61.91-.29.11-.61.14-.32.03-.62.15-.41.23-.64.64-.24.41-.88.59 1.46.35 2.69 1.61 1.24 1.26 1.88 2.61.29.82.82 1.46.53.65.47 1.47.41.35.67.91.27.55.44 1.2.18.64.32 1.32.15.67.39 1.2.35.76.76 1.26.41.5.88.93.46.44.93.94.47.5.82 1.26.24-.06.38-.14.15-.09.44-.03.88.64 1.97.99 1.08.35 2.66.59 1.35.23 2.55.14 1.2-.08 2.49-.32.41-.06 1.03-.32.61-.26 1.23-.44.61-.18 1.08-.15.47.03.47.62 0 .41-.53 1-.52.58-.93.87-1 .71-2.29 1.12-1.29.41-2.69.67-1.41.27-2.88.38-1.46.12-2.75.18-.82 0-1.49-.27-.68-.26-1.21-.38-1.17-.17-2.08-.41-.9-.23-1.72-.7-.71-.41-1.23-1.14-.53-.73-1.47-.91-1.52-1.35-3.05-2.73-1.52-1.37-2.4-3.42-.29-.53-.64-1.03-.35-.5-.53-1.08-.18-.41-.21-.88-.02-.47-.14-1.06-.12-.64-.35-1.37-.24-.74-.47-1.38-.06-.18-.18-.35-.11-.18-.17-.35-.12-.35-.24-.85t-.41-.79q-.29-.24-.96-.53-.68-.29-1.15-.41-.64-.12-1.26.06-.61.17-1.14.23-.76.12-1.46.03-.71-.09-1.18.09-.82.29-1.34 1.52-.53 1.23-.65 2.58-.23 1.35-.7 2.61-.47 1.26-.76 2.43-.24.76-.77 1.26-.52.5-1.46.38-.47-.06-.73-.09-.27-.03-.68-.26-.29.12-1.02.56-.73.43-1.03.61-1.93.59-2.19-.29-.27-.88.2-2.81.29-1.24.91-2.41.61-1.17.85-1.99.12-.53.09-.97-.03-.44-.09-.85t-.06-.73q0-.32.23-.61.06-.65.36-1.03.29-.38.41-1.02.11-.59.29-1.23.17-.65.23-1.24.06-.7.09-1.31.03-.62.38-1.44.3-.76.62-1.55t.44-1.55q.11-.59.14-1.21.03-.61.27-1.2.11-.47.49-.76.39-.29.5-.76.06-.35-.06-.64-.11-.3 0-.59.36-1.17.24-1.85-.12-.67-.38-1.11-.27-.44-.47-.85-.21-.41-.03-1.11.29-.06.53-.5.23-.44.64-.56.24-.06.88-.09.65-.02 1.41-.05.76-.03 1.46 0t1.12.03q.46.05 1.17-.03.7-.09 1.46-.12t1.44-.03q.67 0 1.14.23zm-1.11 14.95q.47 0 .9-.24.44-.23.85-.12.59.12 1.18.18.58.06 1.29.18.29.05.58-.06.29-.12.76-.06.94-.7 1.67-1.06.74-.35 1.38-1.4.29-.53.64-1.03.36-.5.47-.85.41-1.35-.11-2.31-.53-.97-1-1.73-.59-.88-1.11-1.26-.53-.38-1.76-.26-1 .05-2.05-.03-1.06-.09-2.02-.03-.97.06-1.73.35t-1.12 1.05q-.29.88-.7 1.94-.41 1.05-.76 2.14-.35 1.08-.59 2.19-.23 1.12-.23 2.17.88-.12 1.76.09.88.2 1.7.15zm31.81-11.08q1.12-.76 1.94-1.76.82-.99 1.58-1.99.47.06.82-.17.35-.24.76-.36.82-.23 1.67.03.85.27 1.67.21 1-.12 1.9-.53.91-.41 2.14-.41.41 0 .77.26.35.27.7.33.47.11.85-.12.38-.23.85-.23.82 0 1.26.52.44.53 1.02 1.06.3 1.34.06 2.63-.23 1.29-.12 2.64.12.88.27 1.7.14.82.14 1.7.06.76-.08 1.61-.15.85-.09 1.67.06.29.17.59.12.29.06.58-.11.65-.52 1-.41.35-.47.94-.12.87.38 1.64.5.76.61 1.58.06.35-.06.76-.11.41-.11.76-.12 1.29.03 2.87.14 1.59.2 2.93 0 .47.09.94t-.03.76q-.06.29-.26.47-.21.18-.33.41-.05.29.03.82.09.53.09 1 0 .41-.06.79-.06.38-.06.67.06.18.15.38.09.21.03.38-.12.53-.79 1.15-.67.61-1.38.55-.35-.06-1.02-.55-.68-.5-.97-.79-.53-.65-.64-1.65-.12-.99-.53-1.81-.18-.29-.5-.56-.32-.26-.56-.61-.35-.65-.47-1.32-.11-.68-.14-1.35-.03-.67-.09-1.35-.06-.67-.29-1.37-.12-.24-.35-.41-.24-.18-.41-.47-.36-.59-.47-1-.12-.41-.77-.64-2.05 0-4.13-.12t-4.07.12q-.47.05-.82.2-.35.15-.82.21-.23 0-.47-.06-.23-.06-.41-.06-.82.12-1.58.73-.76.62-1.17 1.2-.24.35-.27.85-.02.5-.2.97-.18.47-.59.85t-.29.97q-.64.46-1.08 1.17-.44.7-.85 1.43-.41.74-.91 1.38-.5.64-1.2.94-.3.11-.56.29-.26.18-.56.18-.29-.06-.32-.18-.03-.12-.38-.35-.35-.24-.85-.53-.5-.29-.97-.64-.46-.35-.84-.74-.39-.38-.56-.73-.47-.99-.18-1.43.3-.44.76-1.09.65-.93 1.47-2.11.82-1.17 1.46-2.22.36-.59.62-1.12.26-.52.67-.99.47-.65 1.2-1.06.74-.41 1.03-1.05.12-.29.12-.62 0-.32.11-.67.47-1.17 1.47-2.11t1.52-2.11q.12-.29.15-.56.03-.26.15-.55.93-2.17 2.31-3.87 1.38-1.7 2.37-3.4zm8.38-.06l-.17-.11q-.71.52-1.21 1.2-.49.67-1.31 1.02-.24.53-.56 1-.32.47-.85.76-.18.94-.7 1.61-.53.68-1 1.32-.23.23-.41.5-.17.26-.41.55-.29.3-.59.44-.29.15-.52.38-.35.47-.76 1.29-.41.82-.77 1.35-.29.29-.58.59-.29.29-.18.76.18.47.71.61.52.15 1.2.18.67.03 1.32-.03.64-.06 1.05-.06.82 0 1.67.03t1.64-.03q.79-.06 1.41-.29.61-.24.96-.7.59-1.88.3-3.78-.3-1.91-.53-3.78-.12-.53-.18-1.17-.06-.65 0-1.18.06-.58.38-1.14.33-.56.09-1.32zm14.83 23.26q.41-.93.7-1.78t.76-1.91q.24-.58.35-1.23.12-.64.41-1.29.3-.52.74-1.05.43-.53.67-1.17.35-1 .06-2.26-.3-1.26.06-2.55.29-1.23.67-2.43.38-1.2.5-2.14.12-.64.12-1.32 0-.67.11-1.37.12-.77.47-1.5t.41-1.37q.12-1.35-.61-2.44-.74-1.08-1.5-1.84.06-.35.38-.56.33-.2.5-.14.7.11 1.58.46.88.36 1.7.47.71.12 1.55 0 .85-.11 1.79 0 1 .12 2.4.24 1.41.11 2.76.11 1.52.06 2.93-.05 1.4-.12 2.75.05 1 .12 1.82.53.82.41 1.81.29.82.94 1.91 1.44 1.08.5 1.96 1.26 1.23 1 2.11 2.37.88 1.38 2.11 2.38 0 .46.23.87.24.41.3.94 0 .3-.12.68-.12.38-.12.73.06.53.36.85.29.32.23.96-.06 2.06-1.06 4.05-.99 1.99-1.99 3.51-.64.06-.91.53-.26.47-.67 1.06-.59.82-1.38 1.37-.79.56-1.43 1.38-1.29.47-2.38 1.23-1.08.76-2.43 1.41-.47.23-.96.44-.5.2-.97.44-.59.17-1.11.41-.53.23-1 .35-.35.11-.73.06-.38-.06-.73.05-.77.18-1.47.62t-1.41.56q-.82.11-1.64-.12-.82-.24-1.58-.41-.99.12-1.99.09t-2.05-.09q-1.06-.06-2.23 0t-2.52.29q-.35.06-.73.24-.38.17-.73.23-.65.12-1.44.12h-1.49q-.29 0-.7-.03-.42-.03-.8-.09-.38-.06-.67-.2-.29-.15-.35-.39-.06-.35.2-.61.27-.26.65-.47.38-.2.79-.35.41-.15.64-.26.71-.42 1.2-.91.5-.5 1.21-.74zm15.58-22.67q-.47.47-.67 1.11-.21.65-.35 1.38-.15.73-.27 1.49-.11.76-.35 1.47-.23.47-.47.91-.23.44-.35.9-.29 1.12-.35 2.17-.06 1.06-.35 2.23-.12.64-.44 1.26-.32.61-.44 1.26-.12.64 0 1.23.12.58 0 1.23-.12.47-.32.88-.21.41-.33.88-.29 1.58.59 2.31.88.73 2.11 1.03 2.11.47 3.9-.27 1.78-.73 2.84-1.67.76-.88 1.58-1.9.82-1.03 1.29-2.26.18-.47.35-1.26.18-.79.41-1.55.18-.64.44-1.2.26-.56.44-1.14.64-1.53.5-3.26-.15-1.72-.62-2.72-.17-.35-.55-.76-.38-.41-.74-.82-.41-.47-.73-.94t-.56-.7q-.82-.76-1.96-1.09-1.14-.32-2.08-1.08-.99.06-1.46.35t-1.06.53zm50.16-1.17q-1.58.76-3.17.76-1.58 0-3.51-.12-.53 0-1.14.06-.62.06-1.15.12-2.75.29-4.63 2.08-1.87 1.78-2.75 4.48-.29 1-.47 1.82-.17.82.76.93.59.12 1.18 0 .58-.11 1.2-.32.61-.2 1.2-.38.58-.18 1.17-.18.23 0 .44.12.2.12.44.12.99.12 2.11-.15 1.11-.26 2.05-.03.17.06.32.21.15.14.44.26.76.29 1.82.38 1.05.09 1.7.38.29.12.58.44.3.33.3.44 0 .65-.77.82-.76.18-1.29.24-.46.06-.93 0-.47-.06-.94.06-.82.11-1.58.32-.76.2-1.64.5-1 .35-1.88.85-.88.49-1.93.61-.76.12-1.47 0-.7-.12-1.52 0-.29.06-.56.18-.26.11-.55.17-.53.12-.79.15-.27.03-.41.15-.15.11-.3.35-.14.23-.44.7-.47 1.05-.58 2.26-.12 1.2-.24 2.54.65.65 1.23 1.03.59.38 1.82.38.64 0 1.02-.15.39-.14 1.03-.2.64 0 1.29.09.64.09 1.46.03 1.7-.12 2.88-.44 1.17-.32 2.87-.21.35 0 1.26.06.9.06 1.84.15.94.09 1.67.26.73.18.73.47 0 .35-.44.73-.43.38-.99.71-.56.32-1.11.52-.56.21-.74.27-.99.29-1.93.14-.94-.14-2.05-.03-.82.12-1.47.36-.64.23-1.29.49-.64.27-1.31.53-.68.26-1.56.32-1.17.12-1.99.27-.82.14-1.93.38-.47.11-.88.26-.41.15-.88.26-1.7.36-3.66.15-1.97-.2-4.25.03-1.47.18-2.61.44t-2.31.15q-.41-.06-.79-.09-.38-.03-.68-.32.12-.47.53-.82.41-.36.82-.65.41-.35.79-.73l.73-.73q.36-.47.59-1.15.23-.67.44-1.37.2-.71.47-1.32.26-.62.67-1.09-.47-1.05.03-2.4.5-1.35.91-2.81.12-.35.12-.7t.11-.65q.12-.58.53-1.02.41-.44.53-.91.06-.29.03-.59-.03-.29.03-.58.11-.88.44-1.67.32-.79.44-1.44.11-.47.03-.97-.09-.49-.03-.96.11-1.17.49-2.23.39-1.05.44-1.87.06-.65-.17-1.41-.24-.76-.47-1.17-.18-.3-.53-.62-.35-.32-.7-.61-.35-.3-.62-.56-.26-.26-.26-.5.06-.64.53-.67.47-.03.88-.38 2.11.06 4.01.47t3.95.52q.77.12 1.59-.03.82-.14 1.58-.2 1.23-.06 2.78.35 1.55.41 3.08.29 2.05-.11 3.87-.11 1.81 0 3.8-.12.36.29 1.06.26.7-.03 1.43-.11.74-.09 1.35-.03.62.06.85.52.35.82-.12 1.41-.46.59-1.28.76-.24 0-.65.06-.41.06-.88.12-.47.06-.91.06h-.61zm92.17-12.78q-.3.06-.53.18-.24.12-.53.17-.99 1.24-1.73 2.7-.73 1.47-1.55 2.99-.29.64-.73 1.49t-.68 1.73q-.46 1.76-.82 3.69-.35 1.94-1.29 3.34-.11.24-.41.59-.29.35-.58.64-.24.3-.65.59-.41.29-.46.53-.06.35.11.7.18.35.12.7-.06.53-.5 1t-.73 1.05q-.24.53-.41 1.03-.18.5-.47 1.08-.53 1-1.29 2.11-.76 1.12-1.35 2.23-.88 1.76-1.67 3.6-.79 1.85-1.9 3.37-.41.59-.85 1-.44.41-.73 1.05-.12.24-.12.47 0 .24-.12.47-.29.59-.91 1.11-.61.53-1.14 1.12-.47.64-1.02 1.17-.56.53-1.15.82-1.23-.24-2.34-.5-1.11-.26-2.23-.56-.35-.06-.52-.35-.18-.29-.3-.58-.64.52-1.02.29-.38-.24-.97-.53-.29-.12-.56-.2-.26-.09-.43-.21-1.12-.58-1.53-1.29-.29-2.22-.53-4.48-.23-2.26-.58-4.42-.12-.53-.27-1.06-.14-.53-.02-1.17.11-.7.49-1.44.38-.73.38-1.43.06-.47-.23-.79-.29-.32-.47-.79-.12-.41-.23-1.09-.12-.67-.24-1.32-.23-1.58.03-3.51.27-1.94.56-3.81.29-1.88.35-3.57.06-1.7-.64-2.88-.53 0-.82.27-.3.26-.44.64-.15.38-.27.85-.11.47-.35.88-.29.59-.79 1.03-.5.44-.91 1.08-.58.82-.99 1.99-.41 1.17-.94 2.17-.35.76-.85 1.61-.5.85-.62 2.02-.29.12-.47.36-.17.23-.46.35-.82 1.52-1.79 3.04-.97 1.53-1.96 3.08-1 1.55-1.94 3.16-.94 1.62-1.58 3.2-.23.29-.7.61t-.76.79q-.18.36-.21.79-.03.44-.21.91-.23.65-.7 1.26-.47.62-.76 1.26-.53 1.17-1.32 2.26-.79 1.08-1.79 1.84-.41.3-1.05.59-.64.29-1.41.12-.29-.06-.55-.27-.27-.2-.56-.41-.29-.2-.64-.29-.36-.09-.82.03-.47-.41-.65-.82-.17-.41-.64-.82-.3-.24-.62-.38-.32-.15-.64-.32-.33-.18-.59-.44-.26-.27-.38-.74-.18-.76-.23-1.81-.06-1.06-.03-2.2.03-1.14.03-2.34t-.06-2.38q-.12-1.23-.12-2.25 0-1.03-.12-2.02 0-.3-.11-.65-.12-.35-.12-.64.06-.65.41-1.15.35-.49.35-.96 0-.71-.29-1.47-.47-.93-.76-2.14-.3-1.2-.18-2.78.12-1.17.26-2.46.15-1.29.03-2.75-.06-1.41-.2-2.61-.15-1.2.09-2.73.05-.64.29-1.43.23-.79.12-1.79-.06-.41-.33-.97-.26-.55-.61-1.14-.35-.58-.62-1.2-.26-.61-.32-1.14.64-.76 1.58-.65.94.12 1.94.3.46.06.93 0 .47-.06.94 0 1.52.11 3.22.38 1.7.26 3.28.14 2.64-.23 5.04-.38 2.41-.14 4.87-.32 0 .35-.06.76-.06.41-.24.71-.35.46-1.23.93-.88.47-1.64.71-.7.23-1.11.29-.41.06-1.05.41-.71.41-1.03.88-.32.47-.79.99-.29 1.41-.21 3.2.09 1.78-.03 3.54-.11.94-.23 1.82-.12.88-.12 1.7v1.52q0 .7-.64 1.35.17 2.28.12 4.75-.06 2.46.17 4.74.53-.17 1.17-.76.65-.59.94-1.17.18-.47.21-1t.2-.99q.29-.94.82-1.73l1.06-1.58q.52-.8.99-1.62.47-.82.71-1.81.29-.06.49-.18.21-.12.44-.23.3-.82.41-1.47.12-.64.76-1.29.24-.29.62-.49.38-.21.73-.44.35-.24.62-.47.26-.24.38-.65.12-.35-.03-.64-.15-.29-.03-.7.06-.47.56-1.15.49-.67.79-1.32.7-1.17 1.17-1.9t1.23-1.73q.76-.94 1.29-1.52.53-.59 1.29-1.47.47-.52.91-1.11.44-.59.73-.7.64-.35 1.49-.21.85.15 1.73.03.53-.06 1.17-.41.65-.35 1.41-.47 1-.17 2.05-.12 1.05.06 1.99.33.94.26 1.58.79.65.53.77 1.4-.24.82-.03 1.7.2.88.03 1.88-.3 1.4-1.15 2.69-.85 1.29-1.08 2.82-.12.99.2 2.05.33 1.05.44 2.22.06.41-.03.82-.08.41.03.88.18 1.7.36 3.52.05.76-.12 1.55-.18.79-.38 1.58-.21.79-.41 1.56-.21.76-.21 1.46.06 1 .18 2.17t.35 1.82q.12.29.44.58t.44.59q.23.64.09 1.34-.15.71.14 1.18.71-.12.71-.62t.17-.91q.29-.82.94-1.7.64-.87 1.29-1.87 1.23-1.88 2.05-3.63.35-.59.56-1.29.2-.71.49-1.17.36-.53.79-.85.44-.33.56-.97.24-.53.12-1.03-.12-.49-.06-.96.06-.65.44-1.35.38-.7.85-1.47.47-.76.91-1.55.44-.79.73-1.67.29-1.05.59-1.9.29-.85.76-1.73.29-.65.73-1.2.44-.56.67-1.09.3-.64.38-1.34.09-.71.33-1.35.17-.65.47-1.32.29-.67.35-1.14 0-.3-.06-.53-.06-.23 0-.41.06-.35.41-.67.35-.33.79-.62.44-.29.94-.53.5-.23.85-.35 1.17-.29 2.81-.09 1.64.21 3.1.33.88.05 2.11-.06l2.46-.24q1.41-.11 2.85-.35 1.43-.23 2.6-.17.3 0 .77.14.46.15.46.44.06.29-.2.5-.26.2-.65.41-.38.21-.82.35-.43.15-.79.21-1.11.29-2.25.47-1.14.17-2.2.38-1.05.2-1.99.61t-1.58 1.17zM273 54.01q.11-1.35.9-2.43.8-1.08 1.21-2.26.23-.76.32-1.61.09-.85.11-1.7.03-.85.15-1.7t.41-1.67q-.29-.52-.23-1.17.06-.64.06-1.34.29-.42.46-.94.18-.53.82-.71.59-1.28.59-2.66 0-1.38.29-2.84.06-.3.24-.53.17-.24.29-.53.41-1.23.41-2.61 0-1.37.47-2.6.35-.12.88-.38.53-.27 1.08-.53.56-.26 1.09-.44.52-.18.93-.12.3.12.59.32.29.21.7.5.3.18.56.41.26.24.56.41.23.12.61.21t.5.2q.06.06.38.41t.65.76l.61.8q.29.38.35.49.06.36-.06.79-.11.44-.32.88-.2.44-.41.88-.2.44-.32.79l-.35 1.26q-.18.62-.47 1.26-.29.77-.65 1.76-.35 1-.46 2.11-.12.82-.62 1.23-.5.41-.67 1.17-.12.53-.12 1.12 0 .58.03 1.14.03.56 0 1.08-.03.53-.27 1-.17.29-.52.44-.35.14-.59.44-.35.58-.61 1.46-.27.88-.44 1.85-.18.97-.15 1.93.03.97.32 1.73-.29.94-1.02 1.64-.74.7-1.73 1.08-1 .39-2.14.42-1.14.02-2.31-.39-.47-.7-1.12-1.31-.64-.62-.99-1.5zm19.1 1.94q-1.23.41-2.17-.33-.94-.73-1.17-1.73-.12-.46 0-1.43t.35-1.55q.23-.65 1-1.53.76-.88 1.17-1.99.41-1.05.67-2.02.26-.97.79-1.55.41-.41.88-.74.47-.32.53-.85 0-.46-.27-.82-.26-.35-.2-.93 0-.53.32-1.35.32-.82.62-1.47.64-1.4.99-2.87.12-.41.21-.96.09-.56.2-.85.18-.24.38-.77.21-.52.5-1.05.3-.53.65-.97.35-.44.76-.61.47-.18 1.02-.27.56-.08 1.03-.32.53-.17.64-.41.12-.23.59-.47.35-.11.73-.11t.79-.12q.47-.18 1-.53.53-.35 1.23.06.29.18.59 1.05.29.88.58 1.65.12.41.32.99.21.59.38 1.2.18.62.36 1.12.17.49.29.73.29.58.41 1.23.12.64.35 1.17.29.59.59 1.11.29.53.58 1.18.3.64.53 1.23.23.58.59 1.23.23.47.7.85t.59.85q.17.46 0 1.02-.18.56-.06 1.03.17.64.76 1.05.58.41 1.05.88.3.35.35.7.06.36.53.47.12-1.11.27-1.93.14-.82.32-1.61.17-.79.35-1.64.18-.85.29-1.91.59-.76 1.06-1.43.47-.68.41-1.79-.06-.35-.21-.7-.14-.35-.09-.76.06-.59.24-1.06.17-.47.47-1.17.17-.47.29-.97.12-.5.29-1.08.18-.47.33-.76.14-.3.32-.56.17-.26.29-.59.12-.32.24-.96.17-1 .17-1.7 0-.71.29-1.41.47-1.05 1.5-1.79 1.02-.73 1.96-1.2 1.64.06 2.7.85 1.05.79 1.34 1.91.41 1.05-.05 1.73-.47.67-.94 1.49-.29.53-.44 1-.15.46-.24.9-.08.44-.17.91-.09.47-.32 1.06-.18.58-.53.96-.35.38-.47.79.18.82.15 1.35-.03.53-.18.97-.15.44-.29.88-.15.44-.27.96-.11.41-.11.82 0 .42-.12.77-.18.7-.47 1.29-.29.58-.58 1.11-.42.88-.91 1.64-.5.76-.62 2.05-.06.82-.09 1.44-.03.61-.05 1.14-.03.53-.18 1.11-.15.59-.38 1.41-.12.47-.32.91-.21.44-.33.9-.35 1.53-.99 2.32-.65.79-1.94 1.61-.7.18-1.4.35-.71.18-1.38.18-.67 0-1.26-.21-.58-.2-.99-.85-.3-.47-.62-1.37-.32-.91-.73-1.79-.18-.41-.38-.79-.21-.38-.33-.79-.29-.65-.38-1.12-.08-.47-.38-1.29-.41-1.28-1.29-1.93-.88-.64-1.52-1.41-.06-.58-.18-1.05-.11-.47-.52-.76-.12-.12-.3-.15-.17-.03-.29-.2-.17-.24-.23-.56-.06-.32-.24-.5-.11-.12-.35-.53-.23-.41-.44-.82-.2-.41-.44-.73-.23-.32-.35-.26-.29 0-.56.47-.26.47-.52 1.05-.27.59-.5 1.14-.24.56-.41.8-.29.41-.44 1.2-.15.79-.38 1.26-.41.7-.73 1.4-.33.71.14 1.53 0 .41-.2.67-.21.26-.09.85-.35.64-.67 1.46-.33.82-.68 1.82-.17.59-.29 1.2-.12.62-.29 1.17-.18.56-.5.97-.32.41-.85.47-.71.12-1.17-.18-.47-.29-.88-.67-.41-.38-.82-.82-.41-.44-.88-.67zm35.86-2.47q.41-.93.7-1.78t.76-1.91q.24-.58.35-1.23.12-.64.41-1.29.3-.52.74-1.05t.67-1.17q.35-1 .06-2.26-.29-1.26.06-2.55.29-1.23.67-2.43.38-1.2.5-2.14.12-.64.12-1.32 0-.67.11-1.37.12-.77.47-1.5t.41-1.37q.12-1.35-.61-2.44-.74-1.08-1.5-1.84.06-.35.38-.56.33-.2.5-.14.7.11 1.58.46.88.36 1.7.47.71.12 1.56 0 .85-.11 1.78 0 1 .12 2.41.24 1.4.11 2.75.11 1.52.06 2.93-.05 1.41-.12 2.75.05 1 .12 1.82.53.82.41 1.82.29.82.94 1.9 1.44t1.96 1.26q1.23 1 2.11 2.37.88 1.38 2.11 2.38 0 .46.24.87.23.41.29.94 0 .3-.12.68-.12.38-.12.73.06.53.36.85.29.32.23.96-.06 2.06-1.05 4.05-1 1.99-2 3.51-.64.06-.9.53-.27.47-.68 1.06-.58.82-1.38 1.37-.79.56-1.43 1.38-1.29.47-2.37 1.23-1.09.76-2.44 1.41-.46.23-.96.44-.5.2-.97.44-.59.17-1.11.41-.53.23-1 .35-.35.11-.73.06-.38-.06-.73.05-.77.18-1.47.62t-1.4.56q-.82.11-1.65-.12-.82-.24-1.58-.41-.99.12-1.99.09t-2.05-.09q-1.05-.06-2.23 0-1.17.06-2.52.29-.35.06-.73.24-.38.17-.73.23-.65.12-1.44.12h-1.49q-.29 0-.7-.03t-.8-.09q-.38-.06-.67-.2-.29-.15-.35-.39-.06-.35.2-.61.27-.26.65-.47.38-.2.79-.35.41-.15.64-.26.71-.42 1.21-.91.49-.5 1.2-.74zm15.58-22.67q-.47.47-.67 1.11-.21.65-.35 1.38-.15.73-.27 1.49-.11.76-.35 1.47-.23.47-.47.91-.23.44-.35.9-.29 1.12-.35 2.17-.06 1.06-.35 2.23-.12.64-.44 1.26-.32.61-.44 1.26-.12.64 0 1.23.12.58 0 1.23-.12.47-.32.88-.21.41-.32.88-.3 1.58.58 2.31.88.73 2.11 1.03 2.11.47 3.9-.27 1.78-.73 2.84-1.67.76-.88 1.58-1.9.82-1.03 1.29-2.26.18-.47.35-1.26.18-.79.41-1.55.18-.64.44-1.2.27-.56.44-1.14.65-1.53.5-3.26-.15-1.72-.62-2.72-.17-.35-.55-.76-.38-.41-.74-.82-.41-.47-.73-.94t-.55-.7q-.82-.76-1.97-1.09-1.14-.32-2.08-1.08-.99.06-1.46.35t-1.06.53zm40.55 1.7q.53.23.7.61.18.38.27.79.08.41.2.82.12.41.59.65.11.12.41.29.29.18.64.38.35.21.68.35.32.15.49.09.36-.06.65-.53.29-.46.5-1.08.2-.61.26-1.26.06-.64-.06-1.05-.12-.18-.64-.5-.53-.32-.82-.44-.82-.29-1.53-.7-.7-.41-1.52-.71-.35-.11-.73-.38-.38-.26-.73-.26-.24-.06-.53.09-.29.14-.59.14-.35.06-.85.03t-1.02.03q-.53.06-1.09.18-.55.11-.96.41-.77.64-1.09 1.43-.32.79-.85 1.79-.11.23-.41.53-.29.29-.29.7 0 .23.2.41.21.18.33.53.17.35.23.73t.18.67q.17.18.35.33.17.14.29.26.18.18.27.41.08.23.26.35.29.18 1.02.62.74.44 1.38.55 1.11.24 2.02.74.91.49 1.79.85.64.29 1.03.67.38.38.67.76.29.38.61.73.33.36.91.53.3.12.53.12.23 0 .53.12.29.11.58.38.3.26.65.55.23.24.44.5.2.26.32.5.18.35.23.91.06.55.06.91.06 1.4-.06 2.22-.11.82-.41 1.53-.29.7-.73 1.4t-.97 1.82q-.76.35-1.58.79-.82.44-1.4.91-.3.23-.82.58-.53.35-.94.47-.82.29-1.99.35-1.18.06-2.17.41-.59.18-1.38.06-.79-.12-1.43-.06-.77.12-1.29.27-.53.14-1.23.03-.82-.12-1.82-.62t-1.76-.97q-.29-.11-.47-.32-.17-.2-.47-.38-.41-.23-.82-.32t-.76-.38q-.35-.29-.64-.56-.3-.26-.59-.56-.7-.46-1.55-.96-.85-.5-1.2-1.03-.24-.29-.27-.79-.02-.5-.26-.97-.12-.41-.41-.7t-.35-.58q-.18-.82.17-1.82.36-1 .65-1.7 1.11-.18 1.84.21.74.38 1.26 1.02.53.65.94 1.44.41.79.82 1.37.47.76 1.47 1.18.99.41 1.93.82.35.17.67.32.33.14.62.26.76.29 1.32.62.56.32 1.2.38.59 0 1.14-.09.56-.09 1.26-.21.71-.23 1.41-.2t1.35-.26q.76-.3.87-.71.12-.41.53-1.11-.23-1.11-.53-1.58-.29-.47-1.05-1.12-.29-.23-.67-.38-.38-.14-.68-.32-1.23-.76-2.69-1.52-1.47-.76-3.23-1.06-1.11-.35-2.31-.96-1.2-.62-1.73-1.67-.17-.24-.2-.47-.03-.24-.15-.53-.47-1.17-1.32-2.23-.85-1.05-1.14-2.4-.12-.41-.06-.85t.15-.85q.08-.41.14-.88.06-.47-.06-.99.24-.24.3-.47.06-.24.17-.47.24-.35.33-.73.08-.38.49-.74.41-.35.68-.73.26-.38.55-.61.18-.12.41-.15.24-.03.41-.15.3-.17.53-.44.24-.26.53-.49 1.17-.88 2.64-1.5 1.46-.61 2.98-.96.24-.3.77-.5.52-.21 1.14-.3.61-.08 1.2-.14.59-.06 1-.12 1.81.24 2.9.59 1.08.35 2.05.73.96.38 2.08.73 1.11.35 2.87.59.7.52 1.49 1.26.79.73 1.38 1.61.59.88.85 1.84.26.97-.15 1.97-.29.58-.47 1.32-.17.73-.52 1.31-.3.47-.62 1.12-.32.64-.73 1.05-.82.82-2.11 1.17-1.29.36-2.52.24-.35-.59-1.08-1-.74-.41-1.47-.85t-1.35-.99q-.61-.56-.79-1.38-.17-1 .09-2.11.26-1.11 1.26-1.58z"/></svg>