<svg viewBox="0 0 326 80" xmlns="http://www.w3.org/2000/svg"><path d="M40.96 21.86l-6.3 10.08h16.38q-5.16-4.44-10.08-10.08zm-2.16 42h19.14l7.92-6.9v9.12h-35.7V39.14l-2.76 4.38H15.76l20.4-31.44h10.92l-4.8 7.68q13.98 8.7 27.54 11.52-1.26 5.04-5.1 9.72-4.32-2.04-8.88-5.28l-.48 20.46-13.62-3.36 4.5-1.62.24-15.48H38.8v28.14zm53.28-20.64l19.5-.42v-5.94h-19.5v6.36zm19.5-23.4h-19.5v6h19.5v-6zm-19.5 9.66v3.72h19.5v-3.72h-19.5zm37.98 16.92l-8.34.18v19.98h-10.14V46.82l-29.7.6-.06-4.02 5.4-.12V19.82H75.76v-3.66h52.08v3.66h-6.12v22.8l8.22-.18.12 3.96zm18.24-14.1l3.18 2.04-9.66 14.82-3.54-2.76 10.02-14.1zm3.78 26.88l5.82-3.48V16.88h10.5v46.2l-16.32-3.9zm22.74-25.68l11.04 12-3.3 3.48-10.5-12.66 2.76-2.82zm69 28.8l4.68-5.76v8.34h-22.14l1.62-31.14h-10.02l-.84 11.04 7.74 1.08-.54 4.92-7.56-1.32-1.08 14.58H204.1l1.32-16.62-6.42-1.14.84-3.96 5.88.84.72-9.42h-8.88v-4.5h9.24l1.2-15.3h11.46l-1.14 15.3h14.76l-1.62 33.06h12.36zm64.32-24.9v3.78H288.1v26.04l-18.9-3.78 5.7-3.54V41.18h-17.52V37.4h17.52v-8.16h1.92l13.26-11.82h-22.8v-3.78h27.06l1.8-1.62 4.98 4.92-15.48 12.3h2.46v8.16h20.04z"/></svg>