<svg viewBox="0 0 505 80" xmlns="http://www.w3.org/2000/svg"><path d="M68.66 30.8l.18.48q.06 0 .06.12.06.18.06.54-.06.18-.06.54l-.06.42q.06.12-.06.24-.12 0-.24.12-.12.18 0 .3.06.06.06.12-.06.24.12.48-.06.18-.3.54l-1.2.66q-.66.42-.9.48l-1.5.72q-.12 0-.66.18l-1.14.42-3.84.48q-.42.06-.84 0h-.24q-.42 0-.9-.18-.12-.12-.48-.24l-.24-.06q-.24-.18-.72-.42v-.06q-.3-.12-1.32-.84l-.3-.18q-.12 0-.36.24-.18.18-.18.36l-1.26 4.26q-.12.48-.42 1.38-.24.96-.42 1.44-.6 1.56-.84 2.34l-.96 3.06q-.12.36-.12.54 0 .3-.12.36.12-.06-.18.24l-.36.84q-.06.24-.36.42l-.3.12q-.54-.18-.48-.12h-.06q-.12-.18-.42-.18l-.78-.12-.48-.3-.3.12q-.12-.12-.12 0h-.48q-.3.12-.48-.06-.06.06-.3.06 0-.06-.06-.12 0 .06-.06.12l-.18-.06-.54.3-.12-.12-.36.06q0-.06-.06-.12h-.06q0 .12-.18.12-.12 0-.24.12-.18-.12-.3-.36-.18 0-.24.06v-.06q0-.18-.12-.18v-.12q.18 0-.3.24l-.06-.18q-.18-.48-.18-1.02l-.12-.78q0-.06.12-.18l-.54-.42q.06-.12-.18-.3l-.48-.48q-.06-.12-.12-.12l-.66-.54h.3q0-.06-.12-.18-.24-.12-.3-.24-.12 0-.12-.12-.12-.24-.24-.3l-.06-.06q.06-.06-.12-.24l-2.1-2.1q-.12 0-.12.12l-.48 2.16q-.24.9-.3 1.56l-.18 1.2-.12 2.28q-.12 1.44-.06 2.16.06.24.06.78l.3 1.32q.12.3.48.78l.84.84q.36.36.96.66.3.18.72.18.12 0 .12.06.3.18.66.18.6.18 1.8.3.72.12 1.2.12 1.08.12 1.62.06 1.08 0 2.04-.18.96-.12 1.32-.24.18 0 .42-.12l.54-.18q.06-.06.24-.06.24 0 .36-.06l3-.96q-.06.06.3-.12l.42-2.82q.18-.72.42-2.04.06-.24.06-.66l.06-.6q.12-1.2.36-2.22.06-.12.06-.36.12-.48.24-.66l.06.78-.06.12.06.06q.12-.12.12-.24l.06-.42.12.12q.06.06.06.18l.06.18q.18.36.12.3.12.12.24.6.12.36.12.54.12 0 .18.18l.12-.66q.18.24.42.72t.18.42l.12.12.96 3.18q.3.54.42 1.38l.06.06q.12 0 .18.12 0 .18.06.3l.3.96.3.54q0 .24.24.24l.42.18q0 .06.12.06.3.12.3.36 0 .12.12.12l.12.24q.06.12.18.18l.36.36q.3.36.36.72 0 .24.06.36l.12.54q.12.24.12.72-.06.42-.54 1.02l-.48.42-.36.54q-.24.36-.42.48-.66.42-.9.48l-1.68.78-1.86.6q-1.38.48-2.28.6l-3.3.48q-.18.06-.54.06l-.54.06q-.6.18-1.26.18l-2.64.06q-1.32 0-1.98-.06l-3.12-.48h-.36q-2.88-.42-4.98-1.62-1.08-.6-2.16-1.56l-.84-.84q-.54-.6-1.02-1.5l-.72-1.32q-.72-1.38-1.08-2.76-.18-.48-.18-1.02l-.12-.96q-.12-.66-.12-.96v-1.32q0-1.02.06-1.5 0-.66.12-2.22.06-.24.06-.72l.36-3.54q.12-1.08.24-1.5l.54-3.18q0-.3-.12-.48-.06-.18 0-.36.06-.06.06-.3t.3-.3q.12-.12.24-.18-.18-.36.12-.72 0-.3-.18-.36-.24-.24-.36-.3 0-.06-.12-.06-.06-.06-.12-.06-.12-.12-.18-.12-.3-.3-.42-.66l-.3-.48-3.54 2.7-1.14.78q.12.06-.24.06-1.32.96-1.2.84l-.12.06q0-.06-.06-.06-.06-.06-.24 0-.6.3-.42.24h-.18q.24-.06-.66.24l-.66.36h-.18q.06 0 .06-.06.36.12-.6.12l.6-.3q.3-.12.48-.3l-.78.3q-.84.36-1.26.42-.06.06-.12.06-.3 0-.42.06l-.66.18 2.28-.84.18-.18q.24 0 .48-.24.06 0 0-.06h.18q.06 0 .12-.06l-.3.06-.48.3-2.16.66-1.38.6q-.06-.06-.06-.18v-.12l.42-.54q1.26-1.56 2.64-3.18l5.76-6.54q1.2-1.26 2.58-3.06l4.26-5.52q.78-1.02 2.4-3.66l1.8-3.48q.18-.36.42-1.2-.12.24.12-.48.06 0 .18.12.3-.36.18-.84l.18.18q.06 0 .18-.12l.18-.18q.18-.12.18-.36h.18l.12-.18q0 .06.06.12t.12.06q.06-.06.06-.12v-.18q.06-.06.12 0 .18 0 .18-.12.06-.06.06-.12l1.08-.3q.36-.12.6-.12l1.68-.06q.06 0 .18.12v.12q.54.36 1.08 1.14l.84 1.8q0 .24.06.42-.12-.36.12.6.06.48-.24 1.02l-.72.96q.06.24.36.42l1.44 1.14q.36.24.54.42 1.56 1.2 3.48 2.4l5.16 3.54 5.28 3.42q.3.18.42.3-.06-.06.3.12.24.12.96.24 1.8.24 2.64.42l3.36.54.18-.18q.24.12.72.12l.42.06q0 .18.06.24l-.06.12.18.06h-.12v.06h.18q0-.06.06 0 .06 0 .06.06.12.18.36.18l.48.3q.12.12.12.18zM19.1 39.74zm.24-.06l-.06-.06.06.06zm23.52 3.24l1.5-6.24h-.3q-.42.12-1.14.24l-1.14.24q-.78.12-1.2.24-.84.12-1.26.24-.66.06-1.56.3l-.84.18.42 1.38q.06.12.06.3.12.18 0 .36 0 .18-.12.54 0 .3.06.48.18 0 .48.12.3.06.42.12 1.14.3 1.86.6.06.06.3.06.36.18.3.12.36.06.78.3l1.02.48.3.06q.06 0 .06-.12zm-1.68-13.38l3.6-.54-.12-.18q-1.02-.78-2.4-1.74-1.86-1.44-2.4-1.92-1.08-.96-1.68-1.38-.18-.18-.24-.18l-1.02 1.26q-.6.84-.96 1.2l-1.32 1.68-1.26 1.44q-.96 1.08-1.92 1.86-.24.36-.6.6-.06.06-.06.12l1.38-.18 1.38-.36q.72-.24 1.08-.3.6-.18 2.46-.6l4.08-.78zm33.6 20.64q.06.06.06.12-.36.24-.48.36-.18.36-.12.3-.48.72-.24.48v.06q.06.06-.06.18-.06 0-.06.06 0 .18-.24.3-.18.06-.06.18 0 .06.06.12.18.24 0 .54l-.06.18q.12.36.24.54.06 0 .06.06.06.06.06.12.42.66.9.84l.06.06q.84.54 1.68.9l1.86.48 1.26.24q.78 0 1.2-.12.06-.06.24-.12l.18-.06q.18-.12.18-.18.36-.36.84-.6.54-.3 1.14-.36l1.86-.42q.78-.24 1.74-.36l3.48-.78 4.2-.66 2.1-.42q1.2-.24 1.8-.3h.3q.18.06.36 0 .24-.12.72-.12.6 0 1.14-.18l1.86-.36h.54q.06.12.36.12h.18l.12 6.72.06-.78q-.06.12-.06.48.06.06.06.18v3.18q.06.12 0 .3v.66q-.12.18 0 .48.12.36 0 .72 0 .18-.12.42.06-.06-.18.42-.18.18.06.48.48.6.48.96l.78 1.44q.06.18.3.3t.36.24q.6.3.42.24.48.12.66.24.42.12.54.06.06 0 .12.06.18 0 .3-.06l.84-.18q.12-.12.48-.24.36-.24.54-.24.3-.12.42-.3 0-.06.06-.06.12-.06.24-.3.24-.36.42-.48l.36-.3q.06-.06.18-.06.06-.12.06-.3.06-.06.12-.06.42-.12.3-.36-.06-.12-.06-.54l.06-.78q0-.18-.12-.18 0-.24.06-.36-.06-.12-.06-.42v-1.8q0-.24.06-.36.06-.06.06-.42l-.06-.96q.06-.24.06-.66v-.9q0-.48.06-.66.06-.06 0 .54l-.06.54q-.06-.12-.06-.42l.06-1.5q0-.72.06-1.08.12-.3 0-.48v-1.62q.24-1.08.06-.78v-.36q.12-.18 0-.36l-.06-1.44.48-.06 1.68-.48q.9-.12.96-.18.72-.12 1.08-.12l3.48-.24 3.48-.12q.3 0 .42-.06.18 0 .3.06.24.12.42 0 .36-.06.72.12.12.12.48.12l.78-.48q.12-.12.18-.12.42-.18.72-.66.12-.12.36-.48l.18-.42.12-.6q0-.36-.06-.6l-.18-.54q0-.24-.12-.36-.18-.24-.06-.54 0-.36-.06-.54 0-.3-.18-.48-.42-.6-.36-.48l-.42-.42q-.12-.3-.36-.36-.24.18-.6.06-.36-.18-.72-.18-.48-.12-1.32-.24-.6-.12-.96.06-.12.06-.48.06l-9.66.72q-.3 0-.3-.3l-.06-5.52q.06-.12.06-.42l-.06-.96.06-2.46-.06-2.94q0-.18.06-.24.06-.18.06-.54l.18-7.62q.12-.36.06-.48-.06-.18.06-.42.24-.12.48-.12.72-.12 1.14-.12.18 0 .18.06.3.06.54 0h.12q.3 0 .42-.06 1.08-.54.72-.3.24-.06.3-.24l.12-.18 1.26-1.08q.36-.18.6-.42.24 0 .06-.18-.18-.12-.06-.42l.12-.24-.12-.66-.24-.3q0-.18-.12-.3-.18-.12-.3-.6-.06-.3-.3-.48 0-.06-.12-.18l-.72-.9-.36-.66q-.12-.12-.24 0l-.24.18q-.06-.06-.18-.06l-.18-.06q-.3-.12-1.14-.24-1.86-.18-1.5-.12-.18-.12-.3 0l-.42.12q-.12.18-.48.18l-2.64.3q-.3 0-.84.12l-2.1.3q-.3 0-.9.12-.24 0-.72.12l-4.38.66q-.24 0-.66.12l-1.92.3q-.36.12-.6.06-.12 0-.12.06-.12.06-.36.06l-1.02.24q-.72.18-2.28.42l-.36.06q-.84.12-1.2.24-.48.06-1.44.3-.3 0-.42.06l-.78.18q-.48.06-.72.18l-1.98.48q.36-.12-1.38.36-.36.12-.48.12-.24 0-.6.12l-.48.18q-.36.12-.54.24-.06 0-.12.06-.6.12-1.02.54-.18.42-.24.42-.06.06-.06.12-.12.36-.42.54l.18.36q.06.18 0 .24-.06.12-.06.3 0 .12-.06.24-.12.24-.24.36v.18l.18.36-.12.24q.36.36.48.54.42.66.36.42 0 .06.06.06l.36.24q-.3 0 .42.24.12.06.3.24.12.12.24.12l.72.3q1.14.54.78.3.06 0 .06.06.42 0 1.02.36l.36.18q-.12-.12.42.06l.72.18.18-.24q.18-.12.42-.06l.3.18q.12.24.12.42-.06.36-.06 1.14l-.06 2.1q0 .12-.12.36v.06q.24.3-.06.6-.12.12 0 .24.18.24.18.54v1.56q-.06.18 0 .36l.06 2.22 1.02 10.56-1.26.3q-.24 0-.3.06l-.3.06q-.18 0-.24.06-.18 0-.54.12l-6.42 1.44-1.38.42q-.54.12-.84.24-.12.06-.3.06-.24 0-.3.06.24-.18-.84.36l-1.2.54q-.18.12-.18.36zm21.42-23.7q-.12.06-.3.06-.18-.06-.18-.36l.18-1.38q-.06-.3 0-.54l-.12-.24-.06-.42q0-.18.18-.24.3 0 .78-.12l.84-.18q.66-.24.54-.12.12-.06.3-.06l5.1-.84h.48l-.06 2.82-1.44.36q-.84.24-1.2.24l-1.02.18q-.78.18-.96.12l-.9.18q-.12 0-.48.18t-.66.18q-.54 0-1.02.18zm7.26 14.34q.18 0 .54-.12l.06.78-.06 2.1q.06.24-.24.3l-2.7.3-1.8.36-2.1.24q-.3.06-.96.06-.12-.24-.12-.42 0-.36-.06-.48 0-.48-.06-.72l-.06-.48q0-.12-.06-.18l-.06-.18q0-.12-.06-.12l.06-.06q.42-.3.78-.06l1.56.06 3.18-1.02 1.14-.24h.42q.24 0 .6-.12zm-7.32-4.98l-.36.12q-.24.12-.36.06l-.12-.54.12-2.76h.18q.06 0 .12.06.3.18.6.18l.96.18q.48.12.84 0l3.06-.66q.6-.24 1.8-.48l.78-.12q.06.12.06.24v2.16q0 .12-.12.12l-.24.12-1.08.18q-.96.12-1.38.24l-4.86.9zm86.7-15.06l-.12 15.48.18 7.08.06 10.56-.06.18v7.8q-.06.18.06.54.18.42 0 .9l-.18 1.26-.24.42q-.06.12-.3.24h-.06q-.36.12-.54.24 0-.06-.06-.06-.06-.06-.12-.06-.18.12-.66.12-.12.06-.24.06-.36.12-1.02.12-.66.24-.6.18h-.12q-.36 0-.6.06-.3 0-.42.12l-.78.3h-.24q-.24-.12-.3.06 0 .12.06.18l-.18.06-.24-.18-.06.24q-.3.12-.3.3l-.3-.06-.24.24q-.24.12-.36.12l-.36-.12-.18.18q-.36 0-.42-.06-.36-.12-.54-.54l-.12-.12q-.18-.12-.3-.3-.06-.06-.18-.06l-.18-.06.06-.24q.18-.12.06-.24l-.18-.18.06-.54q0-.06.12-.18.12-.06.12-.3v-.9q.06-.24-.12-.42-.06 0-.06-.06v-.18l-.48-.54-1.62-.96-1.2-.9q-.3-.18-.36-.36 0-.06-.12-.18l-.96-.78q-.06-.12-.54-.24-.12-.12-.18-.12-.12-.06-.36-.06-.18 0-.24-.06 0-.06-.06-.06-.24.18-.24.42-.48.24-1.2.24l-1.5-.06q-.96-.12-1.38-.3-.3-.12-.48.06h-.18l-.18-.3q-.06-.36-.42-.6-.12-.12-.3-.06l-2.4.24q.54-.12-1.62.12-.24 0-.3.12-.24.24-.72.24h-.12q-.06 0-.12.06-.36 0-.72-.12t-.48-.24q0-.06-.48-.18l-.06.18q-.18.18-.24 0l-.54-.3-.36-.42q-.12-.12-.24-.12-.06-.06-.12-.06-.6-.48-.78-.84v-.12q0-.78.06-.9.12-.3 0-.54l-.48-2.46q-.12-.6-.24-1.8-.24-1.14-.3-1.86-.24-.96-.12-.6l-.12.06q-.12.6-.24.78l-.96 2.4q-.36 1.08-.9 2.22l-.96 1.92-1.86 2.88-1.38 1.68.42-.72q.12 0 .12-.12-.12 0-.12.12l-.06.06q-.6.84-.54.66l-1.8 2.1q-.06-.06-.12-.06-.48.48-.6.54l1.62-2.04q.06-.06.06-.12h-.18l-1.32 1.32q-.06.12-.12.12l.18-.36-1.92 1.92q-.24.24-.42.24l.54-.6v-.12l-1.08 1.14q-.06.06-.12.06 0-.06.06-.12l1.32-1.44v-.12h-.06q-.06 0-.12.12l-.18.12-.18.36-.24.12q-.18.06-.18.18-.36.24-.48.42-.18.24-.72.78l-.12.12q-.18.06-.66.54-.18.36-.66.96-.06 0-.06-.06v-.24q.18-.36.12-.3l.6-.9q.06-.24.3-.6.12-.3.48-.9 0-.12.06-.24-.06 0-.12-.06v-.12q-.12-.12.06-.12.12-.06.24-.3.18-.36.18-.72.06-.06.06-.18l.12-.66.24-.06q.12-.12.12-.18.18-.36.36-.96l.6-1.92q.12-.36.06-.54-.12-.12.06-.24.12-.12.3-.72 0-.18.06-.24.06 0 .06-.06l1.2-4.26q.24-.78.3-1.32.54-2.1.66-2.82l.84-5.64.42-5.64v-1.08l.36-4.08-.12-5.34q0-.54-.06-.78 0-.42-.12-1.14 0-.42-.12-1.14l-.48-2.76v-.36q0-.06.06-.06.12 0 .12.12l.36-.12q0-1.08-.06-.78l.3.06.06-.3q0-.12.06-.18-.06.06.18.06l.36-.72q.12-.06.24-.06.24-.66.18-.6h.18v-.24l1.32-.12q.42 0 .6-.06.24-.12.24-.3.3 0 .36-.12.06-.06.12-.06h.06q.54.06.78.36.24.18.72.42.54.24 1.08.66.12.06.3.24l.36-.42v-.12q.12 0 .18-.06-.06.12-.06-.36.24 0 .3-.12h.6l-.12-.12q.12-.12.12-.24l.18-.06v-.12q-.06 0 0-.06-.12-.12-.12-.24h.18q.72 0 1.62-.3l10.32-1.74q.6-.12 1.68-.24l.24-.18q.12.06.42.06l7.14-1.02q.36 0 .6-.18t.48-.24q.36-.18.66 0l.66.18.84-.48.48-.18h.24q.06 0 .06-.06.12-.12.24-.12.24 0 .42-.18l.84-.36q.06 0 .06-.12l.12.06q.18.24.6.24.3.06.48-.12.36.24.72.24-.12.12-.12.18.48.84.84 1.2.12.06.54.84l.9 1.32q.12.12.12.18h.18v.18q0 .18.06.24.24.6.42.84.06 0 .18.48 0 .24.12.84 0 .48-.06.72-.06.6-.36 1.08-.36.48-.6.66-.12.12-.24.12-.12.12-.24.42zm-43.02 42.36l.18-.18-.18.18zm.36-.78l-.3.36q.06-.06-.06.18l.42-.48q0-.06-.06-.06zm.18-.06q.12-.12.12-.18.12 0 0-.12-.06.12-.18.24.06 0 .06.06zm1.56-.06zm.54-.54l-.12-.06-.24.48q.12-.18.36-.42zm10.32-38.46q-.24-.12-.48-.06-.06.12-.06.3.06.12.06.24l.18 1.68q.06.3.06.9l.06 1.26q0 .06.18.06-.06.06-.06-.18 0-.06.06-.06 0-.12.24-.24 0-.06-.06-.06-.06-.06-.12-.06-.12-.12.06-.18.24-.12.36-.12.54 0 1.62-.24.18 0 .36-.18.06-.12.36-.24.06-.06.12-.06.36-.18.6 0t.54.06q.24 0 .96-.12v-.12q.06-.78 0-1.5v-.06q0-.18-.18-.06l-.36.06q-.6.06-1.26 0-.84-.12-1.38-.24-.78-.12-1.86-.78zm4.92 11.04q.12-.36.12-.48.12-.36 0-.54l-.72.06q-.24 0-.36-.06-.96-.24-1.38-.42l-2.58-1.32q-.12 0-.12-.06 0 .06-.06.06l-.18 3.12q0 .24.36.24l4.14-.48q.36 0 .54-.06.18 0 .24-.06zm3.9 17.16l.3-1.62q.12-.72.12-1.08.12-.12 0-.24l-1.14.18q-.48 0-.66.12-.06.06-.12.06l-.3.06q-.18 0-.3.06-.48.12-.78-.06h-.3v.06q.12 1.56.24 2.46 0 .24.06.36.06.06.06.12l2.64-.24q.18-.12.18-.24zm11.04 4.32l.06-15.06q0-.24-.06-.3-.12-.12-.24 0-.24.06-.54 0l-10.68.66-1.32.18-2.64.18q-.36 0-1.08.12l-1.14.12q-.18 0-.54.12-.24.18-.54.18h-.12q-.18.18-.48.12h-.3l-.96-.24q-.12-.12-.3-.12-.3 2.58-.36 2.4l.18-.6q.12-.12.06-.18 0-.12.12-.24.12 0 .24.12h.36q.24 0 .48-.12l.24-.12q.3 0 .48-.18.6-.36 1.2.06l.54.18q.3-.18.6-.12.18 0 .24-.06l3.72-.66 4.56-.6q.72 0 1.08-.12.24 0 .3-.18l.18-.12q.06-.12.12-.12h.42q.24-.24.42-.12.12.12.12 0l.66.06.24-.12q.06-.06.6-.18.36-.12.66.18l.12.12q.18.42.6.9.24.36.3.54.18.3.6.72l1.2 1.32.12.36q.18.18.18.36v.72q0 .42-.3.84-.06.18-.3.54l-.06.12q-.72.24-.48.24l-1.74 6.54q-.06.24 0 .54l2.94 1.02q.06.06.24 0zm.06-22.74v-2.7q0-.18-.12-.06l-.12.12q.12.12.12.24l-5.52.9q-.24 0-.72.12-.24.48-.24 1.62 0 .12.06.18l3.96-.24q.24.06.78-.24 0-.06.06-.06.3-.3.96-.3.3 0 .36.18.06 0 .12.06l.3.18zm.12-7.98l-.06-3.54q-.12-.18-.24-.12h-.36l-2.76.42q-.3 0-.9.12-.54.12-1.62.24-.3.12-.36.3-.12.36-.24.54-.12.24-.12.54v.96l.72-.12q.24 0 .72-.12.3 0 .36-.24l.36-.3q.06-.06.12-.06.36-.12.6.06 0 .06.12.06l.96.36q.72.24.48.12.96.12 1.56.48.24.12.36.24t.3.06zm63.12 43.02l.36.12.18-.18q.18.18.48.06l1.38-.12q.12.06.36-.06.18-.06.42-.3l.18-.36h.24q0-.06.12-.18.18.18.54.18.06-.12.18-.24l.24-.24q.12-.18.24-.18l.42-.12q.12-.3.54-.18.24.06.42-.12l.12-.3q0-.12.06-.18l.12-.3q.18-.42.12-.36.12-.06.12-.24 0-.12.06-.12.12-.12.12-.3l.24-6.18q0-1.5-.06-1.8-.12 0 0-.12l.06-6.54q0-.3-.06-.42-.06-.06-.06-.18.12-.3.06-.42-.06-.24 0-.6v-.6q.06-.42 0-.78v-.48q.12-.42 0-.6 0-.06.06-.12l-.06-.36.18-2.7q0-.54-.06-.84-.18-.48-.06-1.08l.18-.54q.06-.12.06-.3v-.3q.06-.36.06-1.08 0-1.2.06-1.8.12-.78 0-1.5l-.06-3.06.3-10.2q0-.18.06-.3l.84-.18q.12 0 .18.06.3.06.54 0 .24-.12.36-.06h.72q.18 0 .54-.12l.36-.24q.12-.3.36-.36.12-.12.24-.36.06-.06.06-.24l.06-.18q0-.06.06-.12.42-.42.6-.42l.24-.18.18-.36q.3-.3.54-.9.06-.12.06-.36v-.18q0-.66-.06-1.02 0-.06-.06-.12 0-.12-.06-.12l-.18-.36q-.12-.12-.06-.18 0-.3-.18-.36 0-.06-.06-.12-.06-.12-.12-.12l-.36-.42q0-.06-.3-.48-.06-.12-.18-.24l-.24-.24h-.12q-.06.06-.3.06-.36-.18-.3-.12l-1.02-.24-1.68-.06q-.18-.12-.48 0-.12.06-.48.06l-7.14.6-6.6.84q-.24 0-.78.12l-4.32.66-6.78 1.44q-.12 0-.24.06-.06 0-.18-.18 0-.18-.06-.3-.12-.96-.66-1.5l-.36-.42q-.36-.36-.6-.48l-.72-.6q-.06.06-.06.12l-.6-.12q-.24-.06-.42-.06-.24 0-.48-.12-.48-.12-.72-.12l-1.08.12q-.36.12-1.08.24l-.84.06q-.24.12-.36.12l-1.2.18q-.24 0-.42.06l-.84.18q-.72.24-.48.12-.6.06-1.38.3-.42 0-.54.06-1.14.42-.84.24l-.78.06q-.48.24-.36.12-.18 0-.24.06-.3 0-.78.12-.36.12-1.2.24-.18 0-.24.06-.18 0-.6.12-.36.12-.54.12l-1.08.42q-.36.12-.48.24-.06.06-.42.18-.12 0-.18.06-.12.12-.3.12-.06 0-.18.12-.18.24-.54.36l-.6.54q-.24.72-.24.6.12.12 0 .24-.18.18-.12.3l-.06.66q-.12.24.06.48.12.12.12.36-.06.12.06.36.06.36.48.66.78.6.66.42l.48.24q.18.06.48.3l1.68.96q.12.12.84.42 0 .06.06.06l2.22.12.42.3v.78q.12.18 0 .36l-.24 3.42q.06.12.06.42l-.06 2.28q.06.12.06.48l-.18.96q-.36.18-1.02.3l-1.2.36q-.06.06-.18.06-.18 0-.24.06l-.66.24q-.42 0-.54.18-.12 0-.42.12l-.42.18q-.24.06-.42.24-.12.18-.48.3-.12.12-.42.24 0 .06-.12.06l-.36.24q-.18.12-.42.48-.06 0-.06.12v.24q-.12.36.06.6v.12q0 .12.12.48.18.12.06.24 0 .12.12.12.12.06.24.36v.12q.06 0 .24.36.12.48.48.72.3.18.48.48l.36.48 1.98.78.12.12q.12.06.3.06.72.24.48.12l1.08-.12q.42 0 .6-.12.24-.12.36-.06.06.12.06.36 0 .36.12.42l.06.42-.06.48q.06.6.06 1.8l.06 2.4q-.06 1.32 0 2.7 0 .24-.18.42l-3.96 3.3q-.18.18-.54.42-.36.18-.6.42l-1.56 1.5q-.18.24-.66.6-.24.36-.66.54v.06q0 .18-.12.24-.18 0-.24.12l.06.24.12.12q.12.18 0 .36-.18.24-.18.6 0 .12-.12.18-.24.12-.24.36 0 .18-.06.24-.12.12-.12.42v.54l.36.06q.18 0 .3.06.3.12.3.36.06.06.06.12.18.54.48.72l.3.3q.24.42 1.08.9l1.14.54q.18.18.42.18.36 0 .48.12.06.06.12.06h1.14q.24 0 .36-.06l.54-.18q.48-.24.42-.18.24-.18.84-.42l.6-.66q.24-.24.3-.36.12-.36.36-.42l.12-.3q0-.18.12-.3l.48-.6q.96-.96 1.14-1.08.12-.06.24-.18l.24-.18q.3-.36 1.02-.96 1.5-1.38 1.92-1.92l1.2-1.2.96-.84q.18-.12.72-.66l2.28-2.28 1.5-1.74.18-.3q.54-.54.36-.42l.42-.54q.48-.6.66-.9 0-.06.06-.12l.3-.48q.06-.12.06-.3 0-.06-.06-.12.24.12-.18-.3l.06-.42q-.06-.3.12-.48-.06-.18-.24-.24.24-.18.12-.48 0-.18.06-.24l-.24-.96q.06-.18-.12-.36-.12-.12-.12-.36 0-.12-.06-.12.06.06-.18-.42-.12-.3-.48-.42-.24 0-.24-.18-.06-.18-.3-.18-.18 0-.24.06l-1.02.24-1.02.54-2.16 1.32-.06-3q0-1.08.3-1.08.24-.12.72-.24t1.26-.24l1.32-.24q.84-.12 1.26-.06l.36.84q.18.6.12.66l-.18.18q0 .06.12.18-.18.12 0 .3l-.3.36.12.18q0 .06-.12.06l-.12.12.3.6q0 .06.12.18.3.42.72.54l.24.12q.06 0 .12.06-.06-.12.3.24.6.3.48.3.36 0 .54.3l.42.24.66.18q.12.06.24.06.42-.12.66.12.06-.24.3-.24.12-.12.24-.12 0-.06.3-.18l1.74-.42 2.34-.36q.3-.3.78-.24h.12q.3 0 1.02-.12l.24-.06q.12 0 .48-.12.54-.12.66-.06.78 0 1.14-.18.18 0 .24.06.18 0 .24-.06.36-.24.36-.54l.12-.36q.12-.18.12-.3.06-.06.06-.42l1.08-.96q.12-.12.12-.24v-.12q.36-.3.36-.84l.12-.54q0-.12.06-.18.24-.3.24-.78l-.18-.06q.06-.06.06-.18l.78-2.94q.3-1.26.36-1.38l.36-1.2q0-.06.12-.06v.66q0 .3-.12.42.06.12.06.24.12 1.2.12 1.74l-.06 3.3q0 .12-.06.24 0 .6.12.84v.3q-.12.18-.12.54l-.06 4.98q.24.3.12.6v6.6l-.06 1.56.06.18-.12 2.16q.06.36.06 1.14-.18 0-.24-.06l-2.82-1.26q-.36-.12-.48-.24-.06-.06-.12-.06-.12.06-.36-.06l-1.02-.54-.36-.06q-.18-.12-.54-.24l-.54-.24q-1.08-.36-1.62-.48-.96-.24-1.44-.48.36.18-.84-.3l-1.56-.72.18.18q.06 0 .06.06.06.06.06.12l.3.18q-.12.06-.3.06.06.18.3.3l.3.24q.06.12.3.24t.3.24l.96.72-.06.24.42.24q.12.06.12.12.18.18.18.3l-.3.06-.06.24.24-.06.24.12q.54.18.78.66l.12.12q.24.06.36.36l.54.78q.12.12.24.36l.24.42v.12q0 .18.12.3l.24.24q.18.24.42.42l.3.24q.24.12.3.36l1.08.9.48.72q.12.18.48.54l.42.48q0 .06-.06.12l.6.36.6.54q.72.48.6.36l.48.24q.24.24.18.66 0 .24.06.36.24.42.06.72.24.24.12.48-.06.06-.06.18l.18.36q.24.18.42.42.24.24.3.36.54.54.84.6zm-20.1-40.86v.3l-.18-.06q-.18-.12-.18.06.06.12.06.24h-.24l-.06.24q0 .18-.12.42-.24.24-.24.72l-.06.36q0 .12-.06.12-.12.24-.06.36.18-.18-.06.3l-.18.24.3.18v.12q-.48 0-.66-.06-.72-.12-1.02-.12 0-.06-.06-.06-.06-.06-.12-.06-.42-.24-.9-.06l-.48.18h-.78q.06-.36.06-1.08v-.12q.06-.24.06-1.26V25.4q0-.6.06-.84.12-.36 0-.72-.06-.06-.06-.12l.24-1.38 1.8-.54q0 .24.24.6.06.12.18.24l.18.18q.12.18.78.72.06 0 .48.3l.06.06q.36.36.78.54.36.24.72.36.18.06.24.24l.3.18 1.2.06q.06-.06.12-.06.24 0 .6-.24.12-.12.24-.12l2.28-.6q.12-.06.3-.06.42 0 .78-.18.12-.06.3-.06l.96-.24 5.28-.84q.3 0 .54-.18l.84-.18 3.12-.24q.06 0 .06-.06.48-.06.54.42l.06 3q-.12-.12-.36-.24l-.66-.36-.54-.18q-.12 0-.24-.12-.24-.12-.36-.12-.3 0-.66-.24-.54-.3-1.02-.24-.36 0-.54.18-.18.18-.3.18t-.12.06l-.66.18-2.88.48q-1.38.24-2.76.72l-.84.36q-.36.12-1.08.48-.18.18-.66.42-.24.12-.42 0l-.6-.24q-.06-.06-.3-.12l-.3-.06q-.6-.3-.42-.24-.42-.3-.78-.24h-.3q-.18-.12-.36 0-.24.12-.3.24l-.12.18q0 .12-.18.06t-.42.18q-.12.12-.06.24zm6.24 5.28l.06-.9 1.74.78q.06.06.18.06.24-.12.6 0h.12q.18-.3.42-.36l1.2-.42-.36 3q0 .3-.06.48 0 .3-.12.42-.06.24-.06.6v.24l-1.86.3-1.08.06q-.3.06-.3-.24-.12-.3-.24-1.14l-.06-.78q-.18-1.02-.18-2.1zm33.96 27.72q-.24-.48-.24-.72l.06-.6-.06-.54q0-.36-.06-.54l.18-.06q-.06-.06-.06-.24 0-.06.12-.18 0-.12-.06-.12l-.06-.12.18-.18q.06-.06.06-.12l.06-.12q0-.06-.06-.12 0-.06-.06-.06.06-.06.12-.06-.12-.12-.12-.18v-.06l.24-.12q.18-.18.24-.36.12-.18.36-.42l.18-.06q0-.24-.06-.36l3-.42q.18-.06.54-.06l.66-.06q.42 0 .66-.06l3.84-.66q0-.36-.06-.54 0-.3-.12-1.02l-.84-7.32q0-.3-.12-.9l-.12-.9q-.12-.84-.12-1.32l-.42-4.68v-1.5q.12-.24.12-.42 0-.12.12-.24.06.06.24.06l.06-.18q0-.12.18-.12v-.3q0-.12.18-.12v-.36h.6q0-.3-.12-.42l.18.06q-.06.06.12-.3.12-.06.36-.3.12-.24.36-.3.12 0 .6-.36 0-.18.24-.3.48-.24.78-.24.12-.06.42-.06.18-.06.48.12.12.12.18.24.6.54 1.02 1.2l1.32 1.38.9 1.2q.42.48.6 1.14.12.24.12.36.24.36.12.9-.12.36-.12.48-.06.18-.06.54.06.06.06.3-.06.6 0 1.26l.12 2.16q0 .3.06.48l.3 2.94q.06.18.06.6l.06.66q.12.96.12 1.44l.24 2.58q0 .36.06.54 0 .24.24.24h.18q.72 0 1.14-.06.66-.06 2.04-.06.24 0 .6-.12l-.18-3.06q0-.12-.06-.24l-.12-11.7-.06-.54.06-1.92q.06-.48.06-1.44l.06-6.06q0-.36-.06-.54v-.12h-.6l-1.56.18q-.6.12-.84.24-.48.12-.66.12l-.84.12q-.48 0-1.02-.18-.06-.06-.24-.06-.3 0-.48-.18l-.3-.18q-.6-.24-.9-.3-.18-.06-.54-.3l-1.14-.66q-.12-.06-.12-.24h-.12q-.12 0-.18-.06l-.36-.36-.3-.84q0-.3-.12-.78-.06-.12-.06-.42.06-.12.06-.42l.06-.36q.12-.12.18-.12.06-.06.18-.06l-.18-.36q.12-.3.3-.3v-.3q0-.18-.06-.3l.3-.12V20q.06 0 .18-.12.24-.12.12-.3 0-.12.12-.24l.18-.06q0-.24.24-.3l1.56-.3 5.64-.84q1.32-.24 1.98-.3.36 0 1.08-.12l9.36-1.08 1.8-.12q1.56-.12 2.46-.06l.6-.06q.3-.12.42-.06l1.2-.06q.12-.06.3.06.12.18.54.3.18 0 .36.18.24.06.36.42 0 .12.12.24l.48.6q.3.18.54.6.3.42.42.96v.06q.48.84.24 1.98l-.36 1.32q-.12.48-.42.9-.12.06-.24.3-.54.66-1.2.72l-9.06.78q.06-.06-.12.3 0 .66-.06.96 0 .42-.06.6v.12q.06.42-.06 1.38 0 .42-.12 1.26-.06.36-.06 1.14l-.12 2.46q0 .18.12.3l4.14-.54 2.46-.24q.42 0 .48-.24.06-.12.24-.12h.24q.48.18 1.02-.12.3-.12.48.06-.24-.06.66.24.3 0 .42.06l.54.3q.48.24.84.66.36.3.72 1.14l.3 1.26q.06.24 0 .42-.18.3-.06.72l.06.24q.12.42-.18.72l-.54.72-.54.9q-.18.42-.48.72l-.18.24q-.06.06-.96.18l-8.46 1.08q-.54.06-1.2.3-.12.06-.12.24l.06 3q.06.06.06.24v1.02q0 .36-.06.54-.06.06-.06.18-.06.24-.06.78 0 1.5-.06 2.28 0 .24.06.36l13.2-.36q.24 0 .36-.06.3-.12.48 0h.72q.54 0 .78.06.3 0 .42.06.84.24 1.2.48h.12q.06-.06.06-.12.06 0 .12.06.12.12.36.24.18 0 .18.12t.18.24l.48.54.3.48q.12.18.36.42.06.06.18.06l.24.84q.12.3.12.84-.12.9-.48 1.32l-.18.6q-.12.24-.12.36-.06.24-.3.3-.24 0-.24.24-.06.06-.06.12-.12.12-.24.48l-.12.42-.48.36q-.12.06-.24.3-.06.12-.3.24-.3.12-.48.06-.12-.12-.12 0h-.42q0-.06-.06 0-.18 0-.24.06-.24.06-.42-.06-.06-.06-.24-.06l-6 .12-9 .48-5.94.42-1.98.06q-.48 0-.72.12-.06.06-.24.06-1.68.12-2.4.24-.48.24-.42.18-.06.06-.3.06l-7.02.84q-.24.06-.72.06l-2.22.24q-.24 0-.84.12-.18 0-.48.18-.24.18-.54.06-.24 0-.36.06l-.54.18q-.36.06-.54-.18l-.18-.06q-.06 0-.12.06-.42 0-.36-.06-.12-.18-.54-.3v-.06h-.48q-.18 0-.18.06-.24 0-.36-.12-.12-.18-.24-.06-.24 0-.48-.24-.3-.42-.3-.48-.12-.12-.24-.12h-.3q-.36 0-.48-.12 0-.06-.06-.06-.3-.12-.84-.84-.12-.06-.12-.36-.24 0-.24-.24zm69.06 3.78q0 .06-.12.18.12 0 .18-.06l.96-.54q.24-.12.36-.06-.06.12-.24.24l-.3.24.42-.18q.12-.12.36-.18.24 0 .3-.18l.18-.18h.24q.06-.24.3-.24l.6-.42q.18-.18.42-.24l1.2-.78q.84-.72 1.38-1.44.24-.3.54-.48.18-.18.18-.24l.18-.36q.06-.12.3-.36l.72-.9q.36-.36.3-.24l1.56-2.22q.42-.54.48-.72l.36-.6q.6-1.02.54-.84 0-.12.12-.24.3-.42.3-.48l.12-.18q.06-.06.06-.12l.24-.54.6-.96q.42-.84.3-.72.06-.06.06-.18.06-.06.06-.12l.18-.66q.12-.36.36-.72l.6-1.02q.06.12.18.24l1.14 1.26q.72.84 1.14 1.26.78.9 2.46 2.58l1.56 1.56q.78.78 1.14 1.2l.36.24 4.02 3.9q.54.54.84.78.72.72 1.02 1.08.42.48.84.72l1.68 1.62q.24.12.36.24.48.48.84.66.06 0 .18.12.42.3.48.3l1.14.06q.48.06 1.44.06l2.52-.12 1.62-.18q.42 0 .66-.06.18 0 .66-.12.24 0 .24-.18l.18-.24q-.06-.24.06-.36l.12-.18q0-.06-.12-.18l.3-.36v-.36l.3-.72.24-.06q.18 0 .18-.24-.06 0-.18-.12.06-.06.06-.12.12-.06.12-.24l.06-.36q0-.18.18-.24.24-.24.12-.48v-.18q.18-.18.3-.42.06-.06.06-.18l.06-.72q0-.24-.18-.42.18.06-.42-.24l-.72-.36q-.18-.18-.24-.36v-.12q-.54.18-.42.12-.18.06-.42-.06L362.48 56q-.96-.42-1.5-.6-.54-.3-.66-.3-.36-.18-.6-.48l-6.24-5.64q-.36-.3-1.02-.96-1.56-1.44-2.34-2.22-.42-.36-1.14-1.08l-4.5-4.74-1.92-2.16q-.12-.12-.12-.18-.12-.18.12-.3l.9-.06q.96 0 1.74-.18l2.22-.18q.9-.18 1.8-.18l8.94-.72h.9q.18.12.6.12.18 0 .3-.06.24-.12.48-.12.12 0 .18-.06.3-.12.42-.24l.78-1.38.72-.72q.24-.42.6-.42 0-.3.24-.66.06-.06.06-.18.18-.48-.06-1.08-.18-.6-.54-1.02 0-.06-.06-.12l-.18-.36-.48-.6q-.24-.24-.42-.36-.24-.18-.72-.42-.36-.18-.72-.6-.18-.24-.48-.18-.24 0-.36-.06-.24 0-.72-.12-.24-.06-.42.12-.12.12-.18.12l-2.04.18q-.72 0-1.08.12-.24.12-.36.12l-.9-.06-10.2 1.08q-.12 0-.18-.06l.18-2.46q.06-.24.06-.72 0-1.26.06-.96l.3-2.7q.12-.42.24-.54.24-.48.24-.72 0-.54.18-1.08.12-.18 0-.48l-.06-.3q-.06-.24-.12-.3l-.12-.3q-.18-.84-.6-1.38l-.42-.54q-.6-.6-.96-.9l-.18-.12q-.18-.12-.24-.12-.72-.36-1.2-.84-.24-.24-.3-.42-.12-.18-.3-.3l-.24.06q-.54.36-1.2.54-.24 0-.36.12l-.48.42-.36.18q-.18.06-.18.3 0 .3-.24.36-.12 0-.12.12-.06.12-.18.24t-.24.42l-.12.3q-.24.18-.42.42h-.24q.06.18 0 .48l-.06.78q0 .12.06.18v1.98l-.18 2.94q0 .84-.06 1.26l-.48 5.04h-.12q-.3 0-.96.12l-5.22.66q-.3 0-.66.12l-9.06 1.44v.06q0 .12.06.18-.12.06-.24.18l-.36.3q-.24.24-.24.48l-.06.12q0 .06-.06.12 0 .06.06.12-.36.42-.36.9.06.12.06.3-.06 0-.12.06.12.12.18.12-.06.12-.06.3-.06.06-.06.3v.3q-.12.48.06.9v.06q0 .18.18.36.24.18.72.42.84.3 1.08.42.18.06.42.24.3.12.42.24l.3.24.9.42.84.18q.42.18.72.06h.12q.3 0 .66-.18.3-.18.66-.18.18-.06.48-.06l7.14-.78.84-.18q.12 0 .18.06v.42q-.3 1.62-.6 2.58l-.24.9q-.18.66-.3.96-.12.54-.48 1.5-.12.6-.24.84-.24.36-.24.66l-.06.12q-.18.18-.18.42 0 .12-.06.12 0 .06-.12.18.06.18 0 .36l-.24.6-2.16 4.02q-.78 1.38-2.58 3.9l-3.66 4.86-2.4 2.82q-.24.24-.42.3l-1.08.18h-1.2q-.12 0-.12.06 0 .12.12.12.54.18.42.12.12 0 .12.06-.18.18-.42.18-.06 0-.12.06-.12 0-.12.06l.3.06q.24 0 .36.06l-.24.06q.06.06.12.06-.06 0-.12.06-.12 0-.18.06l.06.06q.06.24-.12.42l-.66.42q.24 0 .6-.12l1.86-.48q.12-.12.54-.3.3-.18.48-.36.06 0 .18-.12.48-.3.72-.3l.18.06q-.12.12-.12.18l.6-.18q.48-.18.66-.12l-.3.18-.3.06q-.24.24-.18.12h.18q-.36.12.6-.12l1.56-.24q.12.06.3-.06h.18q.18 0 .54-.12l.36-.24q0 .12-.18.12zm55.44-6.6l.24.3v.12l.06-.06h-.06v.12q.06 0 .18.12-.06 0-.12.06l.42.36q.06 0 .06.06-.18 0-.18.12 0 .06.12.06.3.12.36.3l.3.6q.3.3.48.66l.84.78q.12.12.12.18 0 .18.18.3l.78.54q.24.18.24.42.06.12.06.36v.36q0 .3-.12.48 0 .06-.06.06-.18.48.06.78.3.54.3.66.06.18.3.42.18.06.18.3l.06.06.36-.12q0 .24.24.36.18.18.42.3.12.12.24.18.06.06.24.12.24.06.3.12l.18-.06q.06 0 .06.06-.12-.06.24-.06.06 0 .06.06.06.06.06.12l.6.18.42-.36.12.06q.06 0 .06-.12v-.06q0-.06.12-.06.12.12.24 0t.36-.24q.18 0 .06-.12 0-.06.06-.12l.12-.06q.06 0 .06-.06l.06-.06q.12 0 .24-.24.06.06.12.06-.06.06.24.06l.18-.24q-.06 0 .42-.3.24-.24.24-.3 0-.18.18-.18.12-.12.12-.18.12-.3.12-.96l-.06-2.52h.42l.06.06.42-.06q.24 0 .36-.06.54-.06 1.74-.06h.06q.24 0 .36-.12.36-.18.3-.12h.36l.42-.18q.24-.12.36-.06 0 .06.06 0l.24-.06q.48-.12.66-.3h.06q.06 0 .12.06.06 0 .06.06l1.02-.66q.18.12.48.42.72.6 1.14 1.02.36.36.54.6l-.24.24q0 .06.18.24.06 0 .12.06.12 0 .12.06.54.54.6.66.18.3.36.36 0 .06.06.12-.12-.06-.24-.06.06 0 .12.12l.24.42q.12.24.24.3.78.6.9.78.24.24.3.36v.36q.06.18-.06.24-.06.18 0 .36.06.06.06.24.06.18.06.48 0 .42.3.72l.42.3q.48 0 .6-.06l.24.24q.12 0 .3.12.18.06.24.12-.06 0 .3.18.12-.12.3-.06l1.26-.3q.18 0 .54-.12.3-.12.42-.06h.18q.12.18.3.12.48-.12.72-.06.12 0 .24-.12.12.06.48-.12t.42-.48l1.02-1.44.42-.36.12-.48q.06-.12.18-.24.12-.18.12-.24.06-.06.12-.06.24-.12.3-.24 0-.06-.06-.06h-.12l.12-.12q.18-.06.3-.3-.06.06-.06-.18.12-.12.24-.42l.24-.36q.3-.42.42-.48 0-.06-.06-.12 0-.06-.06-.06l.36-.36q.12-.3.3-.36.06 0 .06-.06l.3-.42q0-.06-.06-.06 0-.12.06-.12.24-.06.36-.42l.3-.54q.3-.48.66-.78 0-.06.06-.12l.36-.66q.12-.36.24-.48.48-.84.66-1.26l.66-1.02q0-.12.12-.24.12-.06.24-.3l1.32-2.52q.42-.66.6-.78l.66-.18q.24 0 .3-.24l.06-.18q0-.06.06-.12.06-.12.06-.3.24-.48.12-.36.06-.18.06-.48v-.18q.12-.78-.12-1.32l-.36-.72-.54-.72q-.06 0-.06-.06-.24-.24-.36-.3 0-.06-.12-.12-.06-.06-.12-.06-.18-.12-.3-.3 0-.06-.12-.24l-.12-.18q-.24-.36-.48-.48-.12 0-.24-.12l-.24-.12q-.12-.06-.36-.06-.06-.06-.6-.06l-.48.18q-.3.24-.84.24l-.54.18q-.12.12-.66.24l-.6.06q-.36 0-.6.06l-1.68.18q-.54 0-.78.06l-.6-.06q-.48 0-.24-.36l.42-.24q.48-.12.72-.12.42 0 .6-.06l2.4-.36 1.38-.12q.72-.24.54-.12h.12q.9 0 1.38-.12h.42q.24-.06.36 0h.18q.36 0 .54-.06.84-.24.72-.12v.06l3.72-.42q.36-.12.36-.36.12-.54.18-.6 0-.06-.06-.12l.3-.3q.12-.12.36-.24.18-.06.24-.24.12-.18.24-.54.12-.24.12-.36 0-.36-.06-.54 0-.18-.06-.24-.06-.24-.24-.48-.06-.24-.3-.72l-.24-.36q-.06-.18-.18-.24-.06-.06-.06-.12-.24-.36-.42-.48-.18-.18-.24-.36 0-.06-.06-.12l-.66-.42h-.18v.12q.06 0 .06-.06v.06l-.42-.18h-.42q-.42 0-.54.06-.12.12-.12.06l-2.16.18q-.18 0-.3-.06l1.32-.84q.3-.3.24-.18.06-.06.18-.06h.12q0-.12.06-.12l.12-.12q.24-.24.54-.24.42-.12.6-.3.06-.18.3-.24.24 0 .6-.24l.18-.12q.06-.06.12-.06.24-.12.36-.24t.24-.12l2.16-1.2q.54-.18.9-.54.18 0 .06-.12 0-.24.24-.48.06-.12.06-.3 0-.3.06-.42.06-.66-.3-1.32-.24-.36-.3-.54l-.6-.72q-.12-.3-.36-.42-.06 0-.12-.06 0-.12-.3-.36 0-.06-.06-.12 0-.12-.06-.12-.06-.24-.24-.48-.18 0-.36-.18-.12-.3-.42-.18l-1.32-.06q-.36 0-.54-.12l-.06.12q-.06-.06-.24-.06h-.36q-.06 0-.06.18l-4.44.3q-.42 0-.66.06l-1.38.18-.48-.06v-.06q.48-.48.78-.72.3-.12.36-.36l.66-.48q.3-.24.3-.78 0-.42.18-.78.18-.24.48-.24.06.06.12.06.3.06.54 0l.6-.06q.12 0 .48-.12l.12-.06q.06-.06.12-.06t.06-.12l.66-1.14q.24-.3.54-1.44.06-.12.06-.36 0-.42-.06-.6l-.06-.18q0-.12-.06-.18-.06-.24-.06-.48-.12-.06-.42-.48 0-.12-.36-.42-.12 0-.24-.12-.06-.18-.36-.18 0-.06-.12-.06-.06-.06-.12-.06-.3-.48-.72-.42l-.36-.12q-.18-.06-.3-.18l-.12.06q-.06 0-.12.06-.18.06-.48.06-.54 0-.78.12-.12.12-.48.12l-2.4.06-.36-.06q0 .06-.18.06-.3.06-.9.06h-.12V17q.12-.54-.06-1.02-.06-.06-.18-.6v-.12q.06-.12-.06-.36l-.18-.36q-.06-.12-.18-.24-.06-.3-.24-.42-.48-.78-1.68-1.68l-1.44-.54q-.36-.12-.48-.3 0-.06-.06-.06l-.18-.12q-.18-.12-.24-.12l-.78-.3-2.64.06-.3.54q-.6.36-.48.36-.3.12-.36.42l-.06.12q0 .06-.12.18l-.12.18q-.12.3-.3.36-.12 0-.12.12l-.12.6q-.18.18-.24.3-.06 0-.06.12t-.12.36h.06q.24.72.24.54l.24.54q.18.36.18.48v.06q.6.36.48.36.3 0 .48.3-.12.06-.3.24l-.84.72q-.18.18-.18.36-.12.3-.18.3.12.06.18 0 .6-.48 1.2-.84.24-.24.66-.36.18.12.36.06.42 0 .6.18 0 .18.06.24t.18.06q.18.36.18.3.18.42.54.78v.12l-1.38.3q-1.2.24-1.8.42-.24 0-.6.12-.36.06-1.08.3-1.74.48-1.38.36l-2.1.66q.06.18-.12.36-.48.36-.36.96v.24q-.06.06-.12.06 0 .18.12.42t-.06.3q-.06 0-.06.06-.12.24.06.42.06.12.06.36t.06.3q.06.06.12.24.12.12.12.24 0 .06.18.24l1.26.66q.06 0 .06.06.06.18.3.42.12.12.12.18.06 0 .06.06l.24.36q.24.12.3.36h.12q.18.06.24.24.12.36.12.6l.18.42q0 .06.06.12l.54.84q0 .12.12.24.18.12.12.18t-.12.06l-1.02.3q-1.08.3-1.8.78-.06 0-.12.06l-.18.12q0 .12-.18.3v.18q-.06.06 0 .18l-.48.42q-.06 0-.06-.06-.06-.12-.54-.42l-.66-.18q-.24-.12-.3.06l-.12.12q-.18.3-.42.3-.18.06-.18.3v.12l-.18.12q-.3-.06-.3.12 0-.18-.18.18.12.18-.12.42-.18 0-.24.06l-.06.18q0 .12-.06.18 0 .18-.12.18l-.18.12q-.12 0-.12.12l-.24.78q-.06 0-.06.12.12.18 0 .36l-.18.54-.12.12q-.48-.36-.72-.48-.18-.18-.24-.18l-1.02-.54-.24-.06q-.18 0-.18-.24v-1.62q0-.42.06-.66.24 0 .36-.06.06-.06 1.2-.36l1.02-.24q.06-.06.24-.06.12 0 1.14-.36.06-.06.12-.06l.12-.06q.06-.06.06-.12l-.12-.06q0-.06.12-.24.18-.06.12-.18-.12 0-.18-.06l.12-.12q.06.12.06-.24.12-.24.12-.42-.12 0-.18-.06.18-.36.42-.6.06-.06.06-.3-.06-.06-.06-.24v-.24q-.12.18.12-.54 0-.12-.06-.18-.24-.48-.42-.72l-.42-.42q-.12-.12-.12-.18l-.36-.6q-.36-.18-.48-.18l-.84-.3q-.6-.12-.96-.06h-.78q-.18-.12-.36 0v.06q-.3.12-.3-.18-.06-.48-.06-1.44 0-.3.12-.42-.12-.12-.12-.18 0-.3.06-.42l-.06-.3q0-.18-.06-.24 0-.06.06-.06v-.36q.06-.42 0-.84-.06-.18.06-.42l.06-.84.12-.36-.06-.06q.06-.12.06-.6.12 0 0-.12-.12-.18 0-.3l.12-3.18-.24-.36.06-.12q.12-.18-.06-.36-.3-.3-.3-.36 0-.24-.18-.3l-.3-.3q-.18-.18-.24-.18t-.18-.12q-.12-.18-.54-.3-.18-.18-.18-.12-.12-.12-.36-.24l-.54-.36-.66-.24-.42-.24q-.78.12-.96.24-.42.24-.84.42-.12.06-.18.18-.24 0-.36.06l-.48.3-.48.66q-.18.12-.3.48-.18.36-.06.66 0 .06-.06.12 0 .12-.06.18l.12.12-.06.18q0 .18-.06.24-.06.18-.06.42l.06.36.18.36q-.06 0-.12.06t-.06.18q.12.12.12.42v1.08q-.12.18 0 .54.06.06.06.24 0 .36-.06.42l-.18.48q-.12.3.12.36.12.06.12.24l-.06 1.26q-.18.18-.06.3 0 .06-.12.18.12.24.12.42-.06.12.06.48v.06q-.06.12.06.36-.18.18-.12.42v.12q0 .48.12.66l.06.48-.18.48q.06.06.06.24t.06.3q0 .24-.06.18l-.06.54-.12.06q-.06 0-.12.06-.18.18-.42.18l-.6.24q-.06.06-.48.18l-1.56.48q-.12.12-.3 0-.18 0-.3.06l-.12.06q-.06 0-.12.06t-.24.06q.12-.06-.42.12-.12 0-.36.12-.06.06-.18.06l-.3.06q-.12 0-.12.18v.12l-.18.06q-.24 0-.3.12-.18.24-.42.42l-.12.12q.06 0 .06.06.06.06.06.12h-.12l-.18.18q0 .66-.06.48l-.06.48.18 1.26.18.48q.06.18.3.42l.3.18q.18.18.42.18.06.18.36.3.48.3.6.48t.54.3q.36.06 1.08.3.06.06.12.06.36 0 .54.06.24.12.48.12.84 0 .6-.06l.54-.18q.12 0 .18-.06.3 0 .48-.12.12 0 .12.06.18.06.18.18.12.24.12.72v.54q0 .36-.06.54l-1.86 3.78-2.1 3.54-1.86 3.54-1.8 2.82q-.06.18-.18.18-.18 0-.18.06l-.18.3q-.84.84-.6.66v.06q.12 0 .12-.06l.84-.54 2.34-.42q.72-.12.96-.24h.12q.12.12.3 0 0-.06.12-.06.3-.06.6-.36l.06.18q.18 0 .3-.06.18-.18.66-.42.12-.12.24-.06h.06q.3-.12.3-.18h.24l.96-.54q.06-.12.24-.18l.24-.24q.24 0 .42-.24l.06-.12q.06-.06.24-.06l.06.72q.06.18.06.54l.3 6.42-2.1-.72q-.24-.12-.84-.24-.54-.18-.84-.24-.48-.06-1.02-.3l-.6-.12q-.18 0-.24-.06l-.84-.3q-.06.06-.06.12l.06.06q.3.06.48.48.24.36.48.48l.36.3q.6.6.42.48.12 0 .12.12t.12.24l.3.18q.06 0 .06.06h-.18q.3.36.54.54.12.12.24.36v.18zM392 59.36q-.12.24-.3.3l-.54-10.62q.12.42-.12-1.26l-.06-4.08.84.72.06.18q.24.24.18.42 0 .18.24.12.06-.06.24.06 0 .06.18.06.12.12.06.24v.12q.06 0 .06.3t.12.36q.06.3.42.48.06.06.12.06.24.3.78.42l.54.18 1.08.66q.24 0 .6.24.24.12.42.12h.06q.36.12.48.06.12.06.54.06.18.18.18 0 .06-.06.12 0h.12v-.18q.3 0 .48-.06.06-.12.42-.36.12 0 .18-.06.18-.18.78-.3l.78-.24h.3q.06 0 0 .06l-.42.72-1.08 1.5q0 .06-.12.18-.06.12-.18.24v.12q-.18.18-.42.54-.72.96-.48.6l-.12.06q-.06.18-.42.54l-.06.12q0 .06-.06.12l-.36.42q0 .12-.18.24-.06 0-.12.06l-1.5 1.86-.12.24q0 .24-.24.3-.12 0-.12.12l-.24.36q-.12.24-.24.36l-.18.06q-.18.06-.18.12l-1.02 1.2-.12.3q-.06.36-.42.42-.06 0-.06.06-.6.6-.84.9-.06.06-.06.18zm8.46-.72q0-.06-.06-.06-.06-.06-.12-.06.24-.24.42-.3v-.12q.18-.12.54-.48.12-.12.24-.12l.48-.24q.06 0 .06-.06l-.18-.06q0-.06.48-.24l.36-.36q.12 0 .12-.12t.12-.12l.18-.36q.12-.12.36-.12-.12-.12-.12-.18.48-.36.72-.42l.48-.42q0-.06-.06-.12 0-.06-.06-.06l.24-.12q.24-.48.24-.3l1.38-1.5.48-.42q.18-.18.3-.42l.36.18q.36.24.54.54.18.36.6.36.54 0 .78-.06.84-.12 1.26-.24-.06.06-.06.18-.36.48-.36.6-.06.36-.3.66l-3.18 5.88q-.12 0-.12.12t-.06.18q0 .06-.06.12l-.48.78q0 .18-.18.18-.12 0-.18.06-.12-.12-.48-.24-.3-.18-.48-.24l-2.46-1.2q-1.56-.9-1.74-1.08zm1.74-21.96q.24-.06.54.12-.12.24.06.48-.12.24.06.42.12.3.24.36.12.12.12.18v.06q.18.12.18.42 0 .18.06.18l.3.48q-.24.12-1.02.18 0 .06-.06.12l-.72.3-2.04.3-1.32.3q-.12-.06-.06-.12l.54-1.32.3-.54.18-.18q.06-.06.06-.24-.06-.18.06-.48l.3-.6q.06-.06.06-.12.18-.12.18-.48v-.18q.6.12.72.24l.66.12q.42.12.6 0zm7.68-.24l-.9-.72q-.06 0-.48-.3.12-.06.24-.06.48-.12.84-.12.12-.06.3-.06l2.22-.3q-.36.12.6-.12.54 0 1.14-.18h.18q.06-.18-.48.66l-1.98 2.64q-.42 0-.66.06-.06-.12-.18-.24-.3-.72-.84-1.26zm-1.08-11.28l1.38-.24q.06.12-.06.24l-1.98 3.12q-.12.12-.24.18l-.24-.48q0-.12-.12-.3t-.12-.3q0-.06-.06-.12-.12-.12-.18-.24l-.72-1.44.96-.12q.12 0 .24-.12.12-.06.36-.06.3 0 .48-.06.12-.06.3-.06zm29.76 14.4q.12.12.18.12l.12-.06q0 .06-.06.06h-.06l.24.24h.18q0 .12.06.18.36.18.3.18.18.18.66.3 0 .06.06.06.18.06.42 0l.12.12h.18q.42.3.78.24.06 0 .12.06.12.06.24.06.24 0 .3.12t.24.06h.06q.18-.18.36-.06.12.12.24.06l.42.06q.12 0 .24.06.18 0 .24.06.36.12.54-.12.06-.06.12-.06.48-.18.54-.12h.12q.12-.06.42-.06.18-.18.18-.24.06.06.24.06h.24q.06-.06.06-.12l.3.06q.12 0 .48-.12.06-.06.12-.06.3 0 .66-.12l2.04-.36q.84-.24.78-.18.18-.06.48-.06.6-.12.84-.12.18-.06.3 0l.12 1.68q0 .06-.06.06v.72q.12.18.12.54v1.56q0 .6.06.84l-.12 3.24q-.06.06 0 .24l.06 2.76q0 .48-.06.72l.12 4.26q.12.18 0 .36l.12 1.74v1.8l.3 4.5h-.06q-.06-.06-.06-.12-.06.06-.06.12 0 .36.24.6.18.06.18.36l.24.54q.18.18.36.12h.18q.12.12.18.12h.06q.3-.12.42.12 0 .06.12.18.48.18.78.42l.72.3q1.08.3 1.92.24.12 0 .18-.06.6-.42.54-.3.06-.06.18-.06.18-.06.06-.18h.3q0-.12.06-.12h.3l-.18-.24q.06-.06.18 0h.12q-.06-.12.06-.24l-.24-.24q-.12 0 0-.12l.42.18q0-.06-.06-.12h.24q0-.06-.06-.06-.06-.06-.12-.06-.12-.12-.12-.24.06.06.18.06 0-.06-.06-.12 0-.06-.06-.06.06-.06.18 0 .06.06.12.06 0-.48-.12-.24l.3-.06q.12 0 .24-.12l.3-.36q.12-.42-.06-.78l-.06-.48.18-.66q.06-.12.06-.36l-.12-.12q-.06-.12-.06-.42v-5.4l-.12-2.4v-3.3q0-1.86-.06-2.82l-.06-2.88.06-.6q.6.6.66.72l1.26 1.44.48.66q.66.78.72.96.06.18.36.48l.36.6q.12.42.36.72.06.06.06.18.06.12.18.24l.36.42q.3.24.18.66-.06.18-.06.48 0 .12.12.48l.18.78q.06.18.3.54l.36.3q.48.12.54.24.06.12.36.24.06 0 .06.06.06-.06.18-.06.24.12.24.18h.36q.18 0 .24-.06t.3-.06q-.06-.06.42.18.24-.12.48-.06l.06.18q.36-.12.12-.36l.24-.12q.06-.18.36-.18.42.6.3.54l.24.12q.48.18 1.02 0 0-.12.24-.36l.42-.54q.06 0 .18-.12l.18-.12q.12 0 .12-.12l1.14-1.68q.06-.06 0-.12l.66-.96q.36-.6.6-.84l.06-.06q-.06-.12.12-.24v-.06q0-.06.12-.18.24-.24.24-.36l.06-.06q.12-.12.24-.36 0-.18.12-.18l.12-.48q0-.12.06-.18.18-.18.42-.66l.84-1.74q.12-.06.12-.12.24-.48.42-.72.06-.06.06-.12 0-.12.12-.24-.06 0 .12-.18l1.56-2.94q.3-.36.36-.72.12-.36.24-.54.3-.42.48-.84l1.08-1.98q0-.06.12-.18l.72-.96 1.08-.72.36-.42q-.06 0-.06-.18l.42-.78q0-.42-.12-.66l-.3-.66q-.06-.48-.48-.96l-.66-.84q-.3-.42-1.14-1.02-.54-.42-1.14-.36l-2.82-.06q-.3.06-.96.06l-6.66.48q-.06 0-.06-.06.06-.06.06-.12.12.12.18.12l.12-.18q.06-.06.06-.12l.18-.48 1.26-2.4 1.2-2.04q.24-.36.6-.6t.42-.42l.3-.48q.54-.6.24-1.38-.24-.66-.54-1.14l-.9-.96q-.3-.3-.48-.42l-1.26-.96q-.42-.24-.84-.24-.78 0-1.14.06-.12 0-.36.12-.3.3-.72.3-.6.12-.84.12l-6.24.72-1.08.06-.06-.48q.06-.3.06-.9.06-.18.06-.6.12-.48.3-.66l.12-.18q.12-.06.12-.12.12-.3.24-.42.12-.18 0-.36-.06-.18-.06-.48 0-.48-.18-.9l-.36-.84-.42-.72q-.06-.12-.24-.3-.18-.24-.3-.3l-.6-.54q0-.24-.18-.24-.06 0-.12-.06-.24-.24-.3-.36-.18-.3-.42-.36l-.78-.24h-.78q-.18.12-.66.12h-.18l-.96.48q-.18.18-.36.18-.3.12-.3.18 0 .12-.12.12l-.3.18-.36.36-.18.3q0 .12-.06.12-.06.36-.42.48-.06.06-.12.06l-.18.36q-.06.12-.06.36-.36.18-.42.48l.06.3-.12.84q-.12.3.06.48.06.12.06.3l-.06.24q0 .12-.06.24l.06.6q.06.18.06.48l.06.54q0 .3.06.48.12.6-.12 1.08l-.06.18q0 .3-.12.36v.12q0 .18-.06.18-.36.12-.48.24 0 .06-.12.06l-1.56.36q-.36.12-.54.12-.42 0-.6.12-.06.06-.12.06l-1.32.3q-.18 0-.24.06 0 .06-.06.06l-.36.36q-.36.18-.3.18.12-.06-.12.36 0 .06-.12.18t-.12.24q0 .12-.18.3l-.06.18q.06.12-.06.24l-.18.24.06.18q0 .3-.12.42-.06.12-.06.36 0 .12.12.24v.24l.12.12-.06.12.36.54q.18.3.48.48.06.06.24.12.12.06.18.18.12 0 .36.12 0 .06.12.06.06 0 .12.06.12 0 .12.06.36.24.72.3.12 0 .12.06.18.18.48.18l.36.12q.54.18.42.12.24.12.42.12.24 0 .36.12.18 0 .3.06l.06.06 1.26.06.06 1.14q.06.6.06 1.92 0 .24-.06.3-.12.06-.36.06-.48.12-.72.12l-1.86.24q-.3 0-.48.06l-1.38.3q-.36.12-.54.12l-4.68.78q-.18.12-.6.12l-1.5.24q-.24 0-.42.06l-.78.18q-.06.18-.24.12-.12 0-.12.06-.06.12-.18.12-.18 0-.24.06l-.24.24-.66.18q-.18.06-.36.36l-.06.18q0 .12-.06.18.06 0 .12.06.12.06.12.12l-.06.12q-.18.18 0 .18.06.06.06.18.06.06-.06.3.3.12.36.24-.12.3.12.42.06.06.06.12l-.06.18q.18.18.12.42v.12q.06.06 0 .12l.18.18q.12 0 .12.06l.24.12q-.18.18-.24.3zm22.68-.66v-.3q.3-.12.42-.24h.24q-.06.06-.12.06-.06-.06-.12-.06 0 .06.06.12.42 0 .66-.06.48-.12.78-.12.12-.06.3-.06l1.38-.24q.18-.06.54-.06l2.88-.3q.18-.06.6-.06l1.38-.06 2.16-.3q.66 0 .96-.06.18 0 .3.06v.12l-.48.9q-.36.6-.48.9l-1.08 2.28q-.24.6-.42.84l-1.38 2.82q-.18.36-.48.66-.12.12-.18.24l-.18.24q-.18.18-.06.36-.24 0-.3.24l-.12.3-.72-.18-5.34-2.04q-.36-.12-1.08-.48-.06 0-.12-.06v-3.48q0-1.2-.06-1.74 0-.06-.06-.06-.06-.06-.12-.06l.24-.12zm1.98-9.18l-.6 1.62q-.6.18-1.14.18-.12-.06-.12-.3l.24-3.96.18-.12q.06-.06.12-.06.06-.06.18-.06.12-.06.3-.06l.3-.06q.24-.06.48.06.24-.12.48-.12.3 0 .48-.06.12 0 .18-.06 0-.06.12-.06v.24l-1.2 2.82zm16.62-7.14h.48q.18-.18.42-.18.06 0 .06-.06.06-.06.18-.06l.24-.06q.06-.06.24-.06t.24-.18v-.18q.24 0 .36-.06h.06q.18 0 .54-.24 0-.06.12-.06.06 0 .18-.12.24-.24.48-.3 0-.06.06-.06l.18.18.18-.3q0-.42.36-.48.06 0 .12-.06.48-.66.48-.78 0-.84-.18-1.2l-.12-.3q-.06-.36-.36-.72h-.18l.12-.12-.06-.18q-.3-.6-.24-.42l-.36-.42q-.84-.96-1.38-1.32-1.02-.72-1.98-1.2l-.6-.24q-.42-.24-1.14-.42-.54 0-.78-.06-.66 0-1.38.42l-.06.06q-.12.18-.48.54.24-.18-.66.72l-.06.18q0 .36-.24.6-.24.12-.24.3-.18.06-.18.36-.12.54-.18.6l.06.12q.06.06-.06.18 0 .18.06.24l.36.48q.6.48.84.78.12.18.54.54.36.3.54.54l.06.06q1.08 1.08 1.32 1.8 0 .06.18.18l.66.42q.18.18.66.42.36.12.54.12z"/></svg>