<svg viewBox="0 0 468 80" xmlns="http://www.w3.org/2000/svg"><path d="M72.38 33.78l-4.2 7.14q-13.86-7.2-24.24-19.32-6.6 7.08-14.7 12.6h26.28v.06q2.58.24 2.58 2.58v12q0 3-2.22 4.08-1.68.84-5.46.84h-8.88l-.42-3.24h9.06V38.16h-14.7V62.7h31.14l-.42 3.48H35.84q-4.62 0-6.36-1.74-1.68-1.62-1.68-5.7V35.16q-4.44 2.88-9.12 5.28l-3.06-4.32Q31.64 26.34 41 11.52l9.42 2.22q-1.02 1.38-3.18 4.02 9.96 9.6 25.14 16.02zM94.1 54.54l19.08-1.26v-8.34H94.1v9.6zm19.08-34.08H94.1v8.16h19.08v-8.16zm-19.08 12v8.64h19.08v-8.64H94.1zm37.86 19.62l-.3 3.96-10.62.66v11.76h-7.86V57.18l-36.54 2.34-.6-3.84 10.2-.66V20.46h-7.62l-.36-3.9h50.88l-.48 3.9h-7.62V52.8l10.92-.72zm42.42-29.64H164.3q-2.88 3.54-5.88 6.6h12.42q2.28-4.08 3.54-6.6zm7.02 18.06v-7.92h-7.26v7.92h7.26zm-7.26 12.3h7.26v-9h-7.26v9zm-13.86-12.3h7.26v-7.92h-7.26v7.92zm0 3.3v9h7.26v-9h-7.26zm-9.24-7.98l-3.42-3.6q7.32-7.5 14.22-20.34l8.1 2.88q-1.26 1.86-2.94 4.2h13.56q2.34 0 3.12 1.38.72 1.26-.42 2.7-3.12 3.72-5.16 6h5.04q5.22 0 5.22 4.38v22.86h-34.98v-22.5q-.78.72-2.34 2.04zm2.04-15.66l-3.78 6.48q-5.82-4.86-9.9-8.04l2.82-4.02q8.64 4.38 10.86 5.58zm-3.42 15L146 41.7q-5.16-3.9-11.16-8.1l2.76-4.08q8.82 4.02 12.06 5.64zm-3.66 9.3l4.8 3.06q-4.62 10.02-9.06 18.42l-6.66-3.72L146 44.46zm1.92 17.16h44.28l-.48 3.72h-43.5l-.3-3.72zm50.46-46.32h18.54q3.36 0 2.4 3.24-1.74 6.42-5.16 15.18 8.04 11.58 5.04 18.36-1.8 3.9-7.68 3.9h-5.1l-.48-3.66h4.2q2.46-.06 3.06-3.6 1.02-5.22-5.76-14.28 2.22-6.3 4.44-15.24h-6.6v49.08h-6.9V15.3zm30.84 44.82h12.3V41.16h-12.3v18.96zm12.3-39.72h-12.3v16.86h12.3V20.4zm-19.14-3.78h20.16q3.48 0 4.74 1.08 1.2 1.08 1.2 3.84v42.42h-26.1V16.62zm48.06-4.86l8.4 2.34q-3.96 7.38-8.64 14.1v39.96h-7.44V37.74q-1.38 1.62-4.14 4.62l-3.66-3.3q7.92-10.38 15.48-27.3zm39.66 17.1h-13.44q5.52 12.06 16.5 20.88L308 56.28q-8.58-8.4-13.86-20.46v15.9h8.82l-.36 3.84h-7.98v12.66h-8.16V55.56h-8.22l-.24-3.84h8.94V37.86q-5.28 10.02-14.28 19.68l-1.68-7.44q8.28-9.54 12.66-21.24H273.2l-.3-4.02h13.8V11.82h7.68v13.02h16.2l-.48 4.02zm28.32 29.52l-8.88-40.68h7.74l7.5 34.62h.12l9.36-32.4h4.08q1.92 0 2.58 1.98.36 1.08 9.3 30.24h.12l7.92-34.44h4.56l-10.08 45.24h-3.9q-2.16 0-3-2.46l-9.78-32.52h-.12l-9.3 34.98h-4.08q-3.06 0-4.14-4.56zm71.16-18.18q0-8.46-2.28-13.5-2.28-5.1-6.18-5.1-3.96 0-6.18 5.1-2.16 4.92-2.16 13.5 0 8.7 2.28 13.8 2.28 5.1 6.06 5.1 3.9 0 6.18-5.1t2.28-13.8zm7.14 0q0 23.28-15.6 23.28-7.32 0-11.28-5.58-4.26-5.94-4.26-17.7 0-11.58 4.38-17.52 4.02-5.4 11.16-5.4 7.14 0 11.22 5.4 4.38 5.94 4.38 17.52zm9.54 8.28h12.96V26.52Q434 34.5 426.2 48.18l.06.3zm19.74 0h6l-.54 4.08H446V63h-6.78V52.56l-16.38.06q-1.92 0-2.4-1.8-.42-1.68.54-3.36 15.42-26.16 18.24-29.88h4.44q2.34 0 2.34 3v27.9z"/></svg>