<svg viewBox="0 0 466 80" xmlns="http://www.w3.org/2000/svg"><path d="M34.34 36.8v25.02h32.04l-.36 2.88H34.7q-3.48 0-4.8-1.26-1.26-1.2-1.26-4.32V33.56h26.34v.06q2.04.18 2.04 1.98v12.66q0 2.52-1.56 3.42-1.2.66-4.14.66H42.2l-.48-2.64h9.42V36.8h-16.8zm7.62-25.86l6.84 1.74q-1.8 2.52-2.76 3.78 10.2 10.98 26.1 17.76l-3.12 5.34q-14.7-7.32-25.44-20.1-10.8 12.48-25.38 20.1l-2.34-3.3q16.62-10.02 26.1-25.32zM92.84 53.9l21.54-1.32v-8.76H92.84V53.9zm21.54-34.5H92.84v8.88h21.54V19.4zM92.84 31.46v9.18h21.54v-9.18H92.84zm39 20.1l-.3 3.24-11.28.66v11.76h-5.88v-11.4L76.7 58.04l-.48-3.18 10.8-.66V19.4h-7.68l-.3-3.18h49.44L128 19.4h-7.74v32.82l11.58-.66zm43.56-30.42h-11.88q-2.88 3.78-6.06 7.14h13.62q2.22-3.48 4.32-7.14zm7.14 18.36v-8.28h-9.18v8.28h9.18zm-9.18 12.24h9.18v-9.42h-9.18v9.42zM159.2 39.5h9.18v-8.28h-9.18v8.28zm0 2.82v9.42h9.18v-9.42h-9.18zm-8.52-7.56l-2.52-3q8.22-8.16 14.82-20.64l6 2.1q-1.5 2.46-3.3 4.98h14.7q1.74 0 2.34 1.08.54 1.02-.36 2.1-.54.6-2.82 3.48-1.62 2.04-2.82 3.42h6.96q4.14 0 4.14 3.6v22.8h-33.84V31.76l-3.3 3zm1.92-14.64l-2.88 4.86q-6.24-5.04-10.02-7.98l2.16-3.06q9.96 5.7 10.74 6.18zm-3.54 14.52l-2.7 4.92q-4.98-3.6-11.22-7.74l2.1-3.12q8.82 4.38 11.82 5.94zm-2.22 8.88l3.54 2.46q-6 11.34-9.84 17.82l-4.86-2.88q1.26-1.86 11.16-17.4zm1.56 17.28h43.62l-.42 3.12h-42.96l-.24-3.12zm50.82-45.9h18.12q2.52 0 1.74 2.34-2.1 6.6-6.06 15.36 8.94 11.76 5.94 18.24-1.56 3.42-6.78 3.42h-6.12l-.48-3h5.58q2.58 0 3.36-3 1.32-5.04-6.72-15.12 3.06-7.56 5.4-15.06h-8.76V67.1h-5.22V14.9zm28.74 44.52h14.7V39.68h-14.7v19.74zm14.7-40.26h-14.7V36.5h14.7V19.16zm-19.86-3.18h20.52q2.7 0 3.66.9t.96 3.12v42.6H222.8V15.98zm48.54-4.92l6.24 1.74q-3.96 7.68-8.46 14.1v40.14h-5.58v-32.7q-3 3.66-5.58 6.36L255.2 38q8.88-10.86 16.14-26.94zM309.8 27.8h-14.1q5.76 13.14 16.98 22.5l-3.84 4.92q-10.02-9.78-15.72-23.76v19.26h9.84l-.42 3.18h-9.12v13.02h-6V53.9h-9.3l-.24-3.18h9.84V33.5q-5.64 11.94-15.66 23.04l-1.5-5.4q9.24-10.68 13.92-23.34h-11.46l-.24-3.24h14.76V11.12h5.76v13.44h16.92l-.42 3.24zM345.26 62h-3.24q-2.34 0-3.18-3.42-.18-.96-9.18-41.7h6.06l7.92 36.96h.12l9.9-34.68h3.36q1.62 0 2.28 1.86l9.84 32.7h.12l8.16-36.84h3.84L371.24 62h-3.18q-1.74 0-2.4-1.98-.24-.6-10.26-34.62h-.12L345.26 62zm64.02-22.68q0-9.06-2.7-14.22-2.58-5.04-6.84-5.04t-6.78 5.04q-2.52 5.16-2.52 14.22 0 9.36 2.64 14.64 2.52 4.98 6.66 4.98 4.26 0 6.84-5.04 2.7-5.28 2.7-14.58zm5.52 0q0 23.16-15.06 23.16-7.02 0-10.86-5.58-4.08-5.94-4.08-17.58 0-11.52 4.26-17.46 3.9-5.4 10.68-5.4 6.9 0 10.8 5.4 4.26 5.88 4.26 17.46zm5.16 15.54l4.08-1.5q3.9 5.04 10.14 5.04 4.14 0 6.84-2.28 2.7-2.34 2.76-6.18.06-4.14-2.76-6.66-3.12-2.64-9.12-2.82-2.52-.06-2.52-2.04 0-1.92 2.4-1.98 10.08-.24 10.2-8.82.06-3.42-2.22-5.52-2.34-2.1-6.12-2.1-5.82 0-8.94 5.4l-4.02-1.8q4.02-7.08 13.08-7.08 6.12 0 9.96 3.12 3.78 3.12 3.78 8.04 0 3.78-2.1 6.66-2.1 2.82-5.7 3.84v.12q4.32.72 7.02 3.66 2.88 3.06 2.88 7.38 0 5.88-4.14 9.36-4.14 3.48-10.86 3.48-9.72 0-14.64-7.32z"/></svg>