<svg viewBox="0 0 455 80" xmlns="http://www.w3.org/2000/svg"><path d="M63.16 59.18l.66 3.96q.3 1.62-2.4 1.8-7.5.36-21 .24-6.42-.12-8.58-1.86-2.16-1.8-2.52-7.26-.24-3.66-.48-21.24 0-1.74 1.62-1.74.54 0 1.08.42-.6-.06 19.08.72.42-.6 1.38-.6 1.98 0 1.74 1.74l-.54 7.92q-.48 7.56-.66 9.12-.24 1.74-2.4 1.14l-4.02-1.32q-1.26-.42-1.02-1.2.18-.66 1.62-.48 1.26.06 3.72.42 0-11.52-.06-14.7-2.34.12-9.72.3l-8.64.3q-.18 14.82-.06 18.72.12 3.72 1.32 5.1 1.68 1.86 6.72 1.98 8.64.12 20.94-.06.18-2.22.42-3.36.18-1.62.84-1.62.6 0 .96 1.56zM45.88 14.72l-1.86 1.74L57.04 27.2q10.92 8.94 11.28 9.3 1.26 1.08.84 1.68l-.12.12q-.42.54-1.8-.42-.48-.3-12.84-9.54l-12.9-9.6q-24.36 22.5-23.76 21.9-1.08.96-1.74.3-.6-.72.42-1.74 1.2-1.44 26.94-27.18 1.32-1.2 2.7-.06 1.44 1.38-.18 2.76zM89.5 53.96l24.9-.78-.18-10.14q-25.98.84-24.48.72l-.24 10.2zm24.42-34.98l-23.64.42-.24 8.94q1.8.12 11.88.36l12.06.36-.12-9.42q-.06-.3.06-.66zM89.98 31.7l-.18 8.7q-1.44-.12 24.42.72l-.18-10.14q-2.22.12-12.18.36-10.98.3-11.88.36zm26.7 21.42l12.6-.42q1.74-.12 1.74.84.06.84-1.62.96l-12.78.78q-.06 5.88-.18 10.08-.12 1.56-.9 1.56t-.9-1.56q-.12-4.14-.18-9.96L77.2 57.74q-.72.18-1.26-.36-.48-.42-.54-1.2 0-1.74 1.62-1.86l10.62-.3q-.06-.9-.42-17.76l-.36-16.8-5.22.12q-1.68.18-1.68-1.68 0-1.86 1.68-1.74l21.3.36q21.18.36 21.24.42 1.5.12 1.5.9t-1.5.9l-7.08.18q.18.24.18.72l-.6 33.48zm37.44-40.92l.06.12q.48.48.48 1.2t-.54 1.14l-1.74 1.74q11.22 7.92 10.98 7.68.84.72.48 1.32-.3.48-1.32.24-.36-.12-6.06-3.42-5.76-3.36-5.94-3.42-.06-.06-.12-.06l-.18-.06Q137.68 32 137.44 32.12q-1.08.72-1.56.3l-.12-.12q-.42-.54.42-1.56l15.54-18.48q.42-.6 1.2-.6.72 0 1.2.54zm-10.56 37.5l-.42 10.32 7.38.36q6.06.24 7.38.36-.18-3.06-.54-11.64l-7.08.3q-5.16.18-6.72.3zm-.6 13.62v.3q-.24 1.26-.9 1.26-.72 0-.84-1.26-.12-.6-.42-8.04-.3-7.68-.36-8.16-.12-1.32 1.62-1.32.6 0 1.02.3l6.42.3-.3-7.08q-10.74.24-11.28.36-.6.18-1.08-.36-.42-.48-.42-1.32 0-1.98 1.5-1.74.24.06 11.16.42-.24-6.24-.3-6.66-.06-.3 0-.54-4.74.24-5.1.3-.6.18-1.08-.3-.42-.54-.42-1.38 0-.84.48-1.32.42-.54 1.02-.42.36.12 8.16.48 7.68.3 7.8.36 1.02.36 1.02.9 0 .48-1.02.9-.24.12-7.5.36.12.42.06.66-.12.3-.36 6.78 9.06.24 9.12.3 1.2.3 1.2.9 0 .54-1.2.9-.18.06-9.24.3l-.3 7.32 5.88.24q.36-.9 1.56-.9 1.68 0 1.68 1.32-.12.66-.42 7.92-.3 7.44-.36 7.86-.24 1.26-.9 1.26-.6 0-.84-1.26l-.06-.6-7.5.3q-6.24.24-7.5.36zm37.08-28.92l7.02.24q.84-1.08 2.16-.48 1.86.84.78 2.58-7.02 11.1-6.36 10.2-.72 1.02-1.5.66-.72-.42-.3-1.62-.42 1.08 4.38-9.42-3.78.18-10.02.3l.06.24q1.62 14.4-.66 27.96-.3 1.68-1.08 1.8-.42 0-.6-.12-5.82-2.46-6.3-2.82-.78-.54-.66-1.08l.06-.06q.18-.48 1.02-.48.18 0 2.64.78l2.76.78q1.68-11.76-.6-26.64v-.24q-8.7.24-9 .3-.6.18-1.08-.36-.42-.48-.42-1.32 0-.78.48-1.32.42-.54 1.02-.42l14.58.54q-.9-.54-5.16-3.72L169 27.56q-.6-.3-.72-.96-.06-.66.36-1.26t1.08-.72q.66-.12 1.08.36l3.42 3.06q3.06-3.9 8.1-10.08-17.28.84-16.74.72-1.5.3-1.5-1.74 0-.78.48-1.32.42-.48 1.02-.36.3.12 8.22.36l10.08.36q1.14-1.5 2.58-.3.6.48.6 1.26-.06.78-.66 1.38l-10.74 11.04q3.48 3.06 4.08 3.66.66.84.3 1.38zm34.92-9.42l-.3 4.2q1.44.12 8.04.36l8.04.42q.06.36-.42-5.58-.72.06-15.36.6zm15.96 7.2l-.06-.3-16.44.6q-.18 1.14-.9 1.14-.66 0-.84-1.14-.12-.66-.36-4.86l-.42-4.92q-.12-1.26 1.62-1.26.54 0 .96.24 1.44.12 7.38.3l8.34.36q.3-.84 1.5-.84 1.8 0 1.68 1.26l-.36 4.74q-.3 4.02-.42 4.68-.12 1.14-.84 1.14t-.84-1.14zm-19.44 19.14q-.12-.18-.42-6.9-.36-6.9-.42-7.2-.42-1.44 1.68-1.44.84 0 1.38.42h.42q-.6-.24 17.88.78.48-.78 1.62-.78.84 0 1.38.48.48.42.36 1.02-.12.42-.42 6.54t-.36 6.24q-.42 1.02-.96 1.02-.42 0-.84-1.02-.06-.12-.72-11.52-18.3.78-17.94.66l-.24.06q-.72 11.82-.6 11.64-.42 1.02-.96 1.02-.42 0-.84-1.02zm15.66-10.2q.66.54.6 1.26 0 .78-.66 1.32.18-.12-7.44 6.96-7.14 6.66-7.5 6.9-1.02.78-1.62.24-.54-.54.24-1.62.18-.3 6.9-7.5 6.72-7.2 6.9-7.5 1.14-1.32 2.58-.06zm2.94 11.34l5.16 4.08q.66.78.36 1.32-.3.54-1.32.18-.36-.12-5.64-3.6-5.28-3.54-5.58-3.6-.6-.24-.72-.9-.18-.66.24-1.32.42-.6 1.08-.78.6-.12 1.08.3.36.36 5.34 4.32zm-26.94 6.78h.12q.54.06 19.32.36l20.1.42-.72-41.7q-3.18.12-19.5.42-17.16.36-18.66.42l-.66 40.08zm0 3.42l-.06 2.16q-.24 1.68-.96 1.68t-.84-1.68q-.84-2.52-.84-48-.12-1.68 1.68-1.68.9 0 1.38.6l38.52.78q.42-1.08 1.56-1.08 1.8 0 1.8 1.68-.84 2.52-.84 46.98-.12 1.68-.9 1.68t-.9-1.68l-.06-2.28q-.9.06-19.92.42l-19.62.42zm69.78-50.4l.12.06q1.44.9.48 2.22-.12.12-8.04 12.48 1.14.42 1.02 1.44-.06.18-.42 18.06t-.42 17.94q-.18 1.38-.9 1.38-.6 0-.9-1.38.06.12-.72-33.72-5.58 8.76-5.76 8.94-.84 1.02-1.44.72l-.12-.06q-.54-.36.06-1.62l7.44-12.96q7.38-12.78 7.44-12.96.72-1.5 2.16-.54zm16.56 16.02l-.36 21.9 10.5.36q1.2.3 1.2.9 0 .54-1.2.9l-10.5.36-.24 12.48q0 1.68-.9 1.68-.78 0-.9-1.68l-.18-12.42-10.32.36q-.66.18-1.14-.36-.42-.48-.42-1.32 0-1.98 1.56-1.74.3.06 10.26.42l-.3-20.28q-1.14 1.74-9.06 13.2l-7.74 11.28q-.78 1.08-1.5.66-.72-.42-.06-1.68.6-1.08 15.3-24.9-12.12.24-12.3.3-.66.12-1.14-.42-.48-.48-.48-1.26 0-1.98 1.62-1.74l15.3.36-.18-12.54q-.12-.66.42-1.2.54-.48 1.26-.48 1.74 0 1.74 1.68l-.18 12.6 16.8.36q1.38.18 1.38.9t-1.38.9q-.06.06-16.86.42zm1.2 1.32l.12-.12q1.38-.9 2.16.48.24.54 7.92 11.22t7.92 11.22q.84 1.38.24 1.74l-.12.12q-.54.36-1.5-.9-.24-.36-8.58-10.8-8.16-10.2-8.58-10.8-.9-1.32.42-2.16zm86.04-12.3h.12q1.62.54 1.08 2.04l-6.3 21q-6.18 20.76-6.3 21-.42.84-.3.66-.06.36-.36.48-.18.18-.42.12-.6.06-1.14-1.38-.24-.54-9.12-34.44l-9.3 34.44q-.48 1.38-1.14 1.26l-.12-.06q-.12 0-.24-.12-.36-.12-.84-1.32-.18-.42-6.9-20.88-6.78-20.52-6.96-20.94-.54-1.56 1.02-2.1l.12-.06q1.56-.54 2.04 1.08 2.52 8.22 11.82 40.38l8.82-37.98q0-1.2 1.14-1.56h.18q1.62-.54 2.04 1.2 1.5 7.08 8.64 38.16 10.44-40.98 10.44-39.84.42-1.56 1.98-1.14zm10.5 2.46l-.72 39.12q-1.26-.12 19.32.72-.24-7.98-.78-40.5l-9.12.3q-6.72.24-8.7.36zm19.86-2.58l.24.12q1.26.3 1.14 1.5l-.42 20.64q-.36 20.52-.42 20.58-.12 1.5-.9 1.5-.24 0-.3-.06h-.06q-.12.06-9.96.36-9.9.36-10.2.42-.42.18-.84-.18-.54-.12-.72-1.5-.78-.78-.78-42.54-.12-.66.42-1.2.48-.48 1.26-.48.18 0 .54.12l11.34.36q9.54.3 9.66.36zm13.8 13.08l-.12-.12q-.3-.54.48-1.44.24-.3 6.36-5.76l6.42-5.76q.36-.42.9-.42.12-.06.42-.06 1.86 0 1.74 1.62l-.42 21.3q-.36 21.24-.42 21.3-.12 1.5-.9 1.5-.66 0-.9-1.5l-.72-39.36q-10.92 8.46-11.34 8.64-1.14.54-1.5.06z"/></svg>