<svg viewBox="0 0 465 80" xmlns="http://www.w3.org/2000/svg"><path d="M42.5 21.74l-.12-.06q-9.3 7.5-12 9.72.6-.12.96-.12 1.56 0 2.64.96 1.98.12 8.04.36 6.9.24 8.88.36 1.14-.84 2.76-.84 1.98 0 3.12 1.02 1.2 1.02.9 2.4-.3 1.5-1.02 7.98Q56 50 55.64 51.74q-.6 3.36-4.74 2.28l-4.62-1.38q-2.04-.72-1.68-2.4.42-1.38 2.28-1.2l3.42.36-.3-11.82q-2.4.18-7.68.42-5.58.3-7.2.42-.3 10.68-.18 15.18.06 3.6 1.56 4.92 1.74 1.5 6.6 1.62 6.18.24 18.3.06l.54-3.18q.6-2.4 1.92-2.4 1.32 0 1.92 2.4.48 1.8.96 4.74.54 3.06-2.34 3.24-8.46.72-22.8.42-7.14-.18-9.84-2.28-2.82-2.22-3.36-8.22-.18-2.22-.48-10.86-.36-9.9-.3-9.06 0-.9.36-1.68-7.08 5.7-8.1 6.3-2.46 1.62-3.78.06-1.2-1.68 1.02-3.6 1.08-.9 13.14-12.36Q42.2 12.5 43.58 11.36q2.82-2.22 5.22.48 1.14 1.44.96 2.94-.18 1.38-1.38 2.28L68.9 32.84q2.58 2.1 1.68 3.54l-.12.18q-.96 1.56-3.96 0-1.56-.72-11.94-7.38-10.44-6.72-12.06-7.44zm49.86 29.52l21.3-.54-.24-7.14q-3.12.24-10.74.6l-10.02.48-.3 6.6zm20.46-23.7l-.42-7.32-18.66.78-.3 5.88 19.38.66zm-19.68 5.46l-.18 5.46 20.28.72L113 32q-2.58.18-10.56.54-7.44.3-9.3.48zm38.94 19.2q.18 2.04-3.66 2.46-.78.12-9.24.9-.42 8.88-.36 8.28-.3 3.78-2.28 3.78-2.04 0-2.34-3.78.06.66-.36-7.8-33.18 3.12-34.2 3.3-1.56.24-2.76-.96-1.2-1.14-1.32-2.82-.12-1.62.96-2.88 1.08-1.2 2.64-1.2l8.46-.12q-.18-2.88-.72-15.72-.48-11.64-.72-14.28l-3.12.18q-1.44.18-2.52-.96t-1.08-2.76q-.06-1.56 1.02-2.7 1.02-1.14 2.46-1.08 1.98.12 21.06.66 19.02.54 21 .66 3.42.24 3.48 1.98 0 1.92-3.42 2.22l-4.5.3v.48q-.24 2.58-1.2 30.18 6.66-.18 8.76-.18 3.84 0 3.96 1.86zm25.2 7.86l-.66-9.48-5.64.3q-3.9.18-5.52.3l-.54 8.16q1.44.12 12.36.72zm-1.62-48l.12.18q.96.96 1.14 2.22.12 1.26-.66 2.04 8.52 6.48 9 7.08 1.14 1.32.36 2.46-.78 1.32-2.64.84-.78-.18-5.64-2.94-5.46-3.06-5.88-3.24-3.3 3-6.12 5.64 13.98.72 14.1.78 1.68.48 1.68 1.8 0 1.26-1.68 1.8-.9.24-4.98.42 0 .3-.06.48-.12.78-.36 4.86 7.08.36 7.5.42 1.32.3 1.8.84-.06-.24-.06-.66 0-1.32.72-2.22.72-.84 1.74-.78l3.96.12q4.32.12 6.78.24l-7.62-5.4q-.84-.48-.9-1.56-.12-1.2.84-2.34.84-1.02 1.98-1.2 1.08-.12 1.8.6.24.3 2.46 2.4.96-1.5 5.4-7.98-14.46.9-13.62.78-.96.12-1.62-.72-.66-.84-.66-2.16-.06-1.32.6-2.16.72-.84 1.68-.78.72.06 7.32.3 7.08.24 9.18.42 1.98-1.62 4.38-.06 1.44.9 1.62 2.52.24 1.5-.72 2.52l-10.02 10.74q2.28 2.16 2.7 2.82.54.78.42 1.44 4.92.24 5.34.3 1.14-1.02 3.06-.42 1.38.42 1.98 1.5.54 1.02 0 1.98-3.24 6.48-4.92 9.06-.96 1.5-2.46 1.02t-1.32-2.4q.06-.48 2.16-6.54l-5.94.3v.24q.9 14.52-1.26 24.06-.78 3.6-2.16 3.78-.54.12-1.26-.12-8.34-3.84-7.62-3.42-1.62-.9-1.26-2.22l.06-.12q.42-1.26 1.92-1.08.36.06 2.76.72 2.1.54 2.82.66 1.14-11.46-1.02-21.84l-.06-.36q-6.24.36-6.72.42-1.5.12-2.16-1.38 0 1.38-2.04 1.86-.84.24-7.86.54l-.36 5.58 3.6.24q.9-1.08 2.52-1.08 1.38 0 2.34.84.9.84.78 1.98-.18 1.14-.6 7.44-.42 6.48-.54 7.32-.42 2.4-1.92 2.4-1.62 0-2.04-2.34l-12.96.84q-.42 1.86-1.92 1.86-1.56 0-1.98-2.4-.18-1.02-.6-7.5-.48-6.6-.6-7.68-.12-1.2.78-2.04.9-.84 2.34-.84 1.02 0 1.8.48l4.74.24-.3-5.1q-8.28.36-9.36.48t-1.8-.78q-.66-.84-.72-2.16 0-1.32.72-2.22.72-.84 1.74-.78 2.7.18 9.06.36-.18-3.54-.42-4.68v-.06q-2.46.06-3.72.24-1.98.18-2.1-2.64-2.16 1.86-2.52 2.04-2.16 1.38-3.3.24l-.18-.18q-1.14-1.2.42-3.24.72-.96 7.2-8.16 6.54-7.26 7.26-8.16.78-.96 2.1-.84t2.46 1.2zm62.1 13.8l-.24 3.06 12.48.66-.18-2.22q-.18-1.8-.24-2.1l-6 .3q-4.14.18-5.82.3zm14.34-4.62q1.38 0 2.28.72.84.72.66 1.68-.12.78-.48 4.44-.36 3.48-.48 4.26-.48 1.98-1.86 1.98-1.38 0-1.86-1.74l-13.38.72q-.48 1.38-1.74 1.38-1.56 0-1.92-1.98-.12-.78-.48-4.44-.42-3.78-.54-4.56-.12-1.02.6-1.74.84-.78 2.22-.78.84 0 1.56.3l13.08.72q.78-.96 2.34-.96zm-16.68 35.82q27.78 1.02 26.88.96l-1.38-38.94-17.28.6q-13.14.42-16.74.6l-1.26 36.42q.6.06 2.58.12l3.96.12q-.78-1.08.12-2.4.36-.6 5.82-6.6 5.52-6 5.88-6.6.36-.54.9-.72l-9 .42q-.78 8.94-.72 8.82-.6 1.62-1.86 1.62-1.14 0-1.8-1.62-.12-.48-.48-6.3-.42-5.7-.6-6.48-.24-.84.6-1.44.78-.6 2.28-.6 1.62 0 2.46.72 1.14.12 7.08.3 6.72.24 8.82.36.84-.72 2.52-.72 1.5 0 2.34.6.84.54.6 1.38-.18.72-.54 5.88-.42 5.34-.48 5.7-.66 1.5-1.92 1.5-1.14 0-1.8-1.5.06.36-.78-9l-5.16.3q.84.24 1.56.84 1.2.96 1.26 2.16.12 1.14-.78 1.86-.18.12-2.16 1.86.18.06.42.3.3.3 4.32 3.66 3.66 3.06 3.96 3.48.84 1.14.24 1.98-.66 1.02-2.1.66-.54-.12-4.68-2.64-4.38-2.7-4.68-2.82-.84-.36-.96-1.44-6 5.46-7.44 6.6zm-10.02 6.24l-.06.6q-.24 3.78-2.1 3.78t-2.1-3.78q-.12-1.92-.84-23.7-.72-21.48-.9-23.76-.12-1.56 1.02-2.64 1.14-1.08 2.88-1.08t2.82 1.08q3.3.18 16.98.6l18.12.66q1.02-1.86 3.48-1.86 1.74 0 2.82 1.14 1.02 1.08.9 2.64-.12 2.1-.84 23.1-.66 20.94-.84 23.04-.3 3.78-2.04 3.78-1.92 0-2.16-3.78l-.06-1.32q-1.92.12-18.6.72-16.2.6-18.48.78zm69.3-51.24l.18.12q1.2.78 1.56 2.04.36 1.32-.42 2.28-.96 1.08-7.74 10.92 1.38.9 1.2 2.46-.18 1.62-.78 17.1-.6 15.6-.72 16.98-.42 2.88-1.98 2.88t-2.1-2.88q-.12-1.14-.48-11.76l-.66-16.92q-2.82 3.9-3.18 4.32-1.8 1.98-3.12 1.2l-.18-.12q-1.32-.84-.12-3.3.54-1.2 7.08-12.3 6.54-11.1 7.08-12.3.6-1.08 1.86-1.32 1.32-.18 2.52.6zm18.96 16.98l-.06 1.74q1.14-.66 2.4-.42 1.32.3 1.92 1.44.6 1.08 6.48 9.6 5.76 8.28 6.36 9.54 1.38 2.52 0 3.36l-.18.12q-1.26.78-3.24-1.38-.9-1.02-13.86-16.56l-.42 13.44q6.6.18 7.98.42 2.22.36 2.22 1.92 0 1.5-2.16 1.98-.6.12-8.22.6-.18 7.38-.3 9.3-.24 3.54-1.98 3.54-1.92 0-2.04-3.54l-.36-9.12q-8.52.48-8.94.54-1.08.12-1.86-.78-.72-.9-.72-2.28t.72-2.28q.72-.9 1.8-.84l8.82.36-.42-15.78q-14.76 21.6-14.04 20.4-1.32 1.92-3 1.14-1.62-.84-.6-3.18.42-1.08 5.64-10.2l7.2-12.6q-7.26.3-7.98.42-1.26.12-2.16-.96-.9-1.02-.96-2.52 0-1.5.9-2.52.84-1.08 2.16-1.02.66.06 12.48.42-.12-5.16-.36-8.7-.12-1.44 1.02-2.52 1.14-1.08 2.7-1.08 1.56 0 2.64 1.08 1.02 1.02.96 2.52-.06.48-.36 8.94 11.64.36 13.2.48 2.88.3 2.88 2.04.06 1.74-2.82 2.16-1.08.18-13.44.78zm83.52-12.48l.24.06q1.44.3 2.22 1.5.84 1.26.42 2.58-.54 2.1-5.88 19.62l-5.88 19.62q-.9 3-2.52 2.7-.48 0-.96-.36-.24-.24-.36-.42-.48-.6-1.02-2.16-.36-.9-7.74-27.66-7.32 25.62-8.16 28.08-.96 3-2.52 2.64-1.44.06-2.58-3-.72-1.92-6.3-19.2-5.58-17.34-6.36-19.38-.54-1.44.24-2.82.78-1.32 2.28-1.74l.24-.06q1.5-.42 2.88.36t1.68 2.22q.42 2.34 8.04 33.3 6.78-29.28 7.14-32.7.3-1.98 2.4-2.46l.36-.12q1.5-.42 2.82.36 1.32.72 1.62 2.22 1.98 11.1 6.48 31.92 6.9-30.72 7.08-32.58.18-1.38 1.44-2.16 1.2-.72 2.7-.36zm28.26 4.86l-14.28.78-.6 17.22q-.42 13.02-.6 17.22 2.28.18 8.4.48l8.46.48q-.18-2.52-.66-17.94-.48-15.18-.72-18.24zm-7.68-4.68l11.16.54q1.56 0 2.58.96 1.02.9.9 2.22-.18 1.56-.72 19.02-.6 17.4-.78 18.9-.3 3-1.98 3l-.36.06q-.84.12-10.02.6-9.12.48-10.2.66-.84.18-1.44-.42-.96-.6-1.14-2.88-.18-1.56-.78-19.98-.54-18.24-.78-19.98-.12-1.32.96-2.34 1.08-.96 2.64-.96.42 0 .6.06.3-.12.54 0 .96.12 8.82.54zm47.28.54h.06q1.5.12 2.34.84.78.72.54 1.62-.18.9-.6 7.08-.36 5.88-.6 6.78-.06.36-.3.72-.06.48-.6.9l-3.18 2.46 3.6 4.44.36.72q.42.48.6 1.38.18.9.66 7.32.42 6.36.66 7.5.24 1.02-.66 1.74-.84.78-2.46.84h-.06q-.84.12-10.44.6-9.42.48-10.62.72-.66.12-1.14-.18-.96-.24-1.44-1.74-.18-.78-.6-6.48-.42-5.76-.66-6.66-.24-1.02.72-1.68 1.02-.66 2.7-.66 1.74 0 2.7.72.9.66.72 1.62-.18.72-.72 8.58l15.18.84q1.08-13.14 1.02-12.96l-5.76-4.32q-.9-.72-.78-1.98.06-1.2 1.02-2.04l.3-.24q.06-.12.12-.12l4.26-5.04-.66-8.94q-13.74.72-14.94.84-.54 6.54-.66 6.84-.54 1.74-2.22 1.74-1.62 0-2.16-1.74-.24-.66-.6-5.52-.42-4.86-.6-5.64-.24-.96.72-1.56.9-.66 2.64-.66.6 0 1.44.12 1.5.18 10.38.66 8.88.42 9.72.54z"/></svg>