<svg viewBox="0 0 409 80" xmlns="http://www.w3.org/2000/svg"><path d="M49.88 17.42l23.28 18-2.76 2.46-1.44 7.98-9.3-7.38-1.68 15.66-13.38-3.96 2.64-1.5.84-7.68h-8.34v14.82h23.04q3.12 0 5.4-1.56l-1.8 12.18H39.02q-4.68 0-7.38-2.7-2.64-2.7-2.64-7.2V38.66q-2.76 2.58-8.28 7.62l-2.7-6.12-2.7-1.68q15.12-14.22 26.4-27.9l12.42 2.04q-2.04 2.4-4.26 4.8zM36.56 31.4h14.1l-7.92-6.3q-1.14 1.26-3.06 3.18-2.46 2.4-3.12 3.12zm94.5 18.42l-1.5 9.96-7.44.18V68h-10.98v-7.56q-12.48.54-31.92 1.8l-.18-6.54-1.26-3.42q6-.3 8.04-.36V23.66l-3 .06q-1.98 0-3 .06l.18-6.12-1.08-3.48h50.46l-1.68 9.48q-.9-.06-2.76-.06l-2.82-.06v26.7l8.94-.42zM110.9 23.48q-9.9 0-14.82.06v3.12h15.06q-.12-2.16-.24-3.18zm-14.82 11.7v3.3h15.06v-3.36q-5.04-.06-15.06.06zm0 12.24v4.02q6.96-.3 15.06-.72v-3.36q-4.98-.06-15.06.06zm95.28-31.14l-1.56 9.84q-15.96-.36-36.06.06l-.36 5.4h33.84q2.52 0 2.34 2.88l-2.28 34.26-14.22-4.74 3-1.62 1.44-20.28h-35.88l1.5-26.04q.24-3-.24-5.64 7.8 1.68 11.7 1.14-.18 3.48-.3 4.74h37.08zM176.3 46.52l-1.44 9.42q-16.5-.42-38.52.12l.24-6.3-.96-3.24h40.68zm51.96 13.5h23.46l-1.5 7.38q-22.86-.42-53.58.12l.18-4.68-.9-2.82h22.56v-1.08q-8.04 0-15.42.18l.24-4.2q-1.08-1.38-2.46-3.24l-3.6-2.22 4.08-4.02-3.6.06.24-4.44-.9-2.64h21.54v-.9q-8.82 0-17.04.18l.3-4.32-.84-2.28h17.58v-.48h-17.7l.9-19.14q33.9.18 41.82.18 3.12 0 3.06 2.82l-.48 16.14h-17.58v.48h17.94l-1.14 6.48q-10.56-.12-16.8-.12v.96h22.02l-1.38 6.96q-1.56 0-2.4-.06 1.86 2.04 3.78 4.02l-6.18 5.04-.72 4.62q-9.72-.12-15.48-.12v1.14zm-14.52-42.6h-2.4v2.16l2.4-2.16zm5.34 2.58v-2.58h-2.82l2.82 2.58zm8.46-.12l2.64-2.46h-2.64v2.46zm8.1.12v-2.58h-2.28l2.28 2.58zm-3.24 4.2h3.24v-2.88q-1.5 1.5-3.24 2.88zm-13.32 0v-2.88q-1.08 1.08-3 2.88h3zm8.46-2.76v2.76H230l-1.56-2.22q-.48-.24-.9-.54zm-16.2.12v2.64h2.82l-2.82-2.64zm9.36 23.7l1.74 3.96-1.44.6q3.54.36 5.34.36l-1.86-3.78 3.3-1.14h-7.08zm20.34 6.84l-4.38-4.8 2.58-2.04h-5.22l1.98 3.78-7.74 2.88v.18h12.78zm-29.16-5.52l3.42-1.26-8.58.06 3.96 3.48-2.7 3.24h6.18q-.3-.66-2.28-5.52zm3.3 5.52h3.3v-.18q0-.78-.06-1.08l-3.24 1.26zm62.58 9.9h-8.16q-2.88 0-4.02-.96-1.2-1.02-1.86-4.14l-9-42.84h13.44l4.32 23.7 4.92-21.06h8.94q2.4 0 3.18.6.72.54 1.26 2.82l4.26 18.36 4.02-24.42h13.92L302.84 62h-9.66q-2.4 0-3.6-1.14-1.14-1.14-1.8-4.14-1.5-6.24-4.2-16.68L277.76 62zm37.44-23.7q0-13.14 4.44-18.96 4.26-5.64 13.74-5.64 9.12 0 13.56 5.7 4.56 6 4.56 18.9 0 12.48-4.38 18.3-4.38 5.88-13.74 5.88-9.78 0-14.04-5.7-4.14-5.64-4.14-18.48zm12.84 0q0 12.54 5.34 12.54 4.86 0 4.86-12.54 0-12.84-4.86-12.84-5.34 0-5.34 12.84zm49.74-9.54q-5.22 0-6.42.66l.3-3.48h17.04l1.38-11.7h-29.7l-2.1 27.18 10.38 2.46q1.14-4.08 5.1-4.08 5.34 0 5.34 5.16 0 5.7-5.64 5.7t-8.64-6.96l-8.94 6.06q5.82 12.66 17.58 12.66 8.7 0 13.74-4.8 4.86-4.68 4.86-12.66 0-6.72-4.44-11.52-4.26-4.68-9.84-4.68z"/></svg>