<svg viewBox="0 0 395 80" xmlns="http://www.w3.org/2000/svg"><path d="M42.94 16.4q12.6 9.12 27.36 17.22l-1.74 3.54q-7.74-4.56-14.4-9.09t-13.2-9.75Q30.04 29.12 16.3 40.64l-1.02-1.2q9.18-8.04 16.08-14.49 6.9-6.45 14.34-14.01l1.98.66-4.74 4.8zm-8.52 17.76v28.8H67.6l-.48 1.68h-37.2V32.42h25.32l-.48 23.28-5.34-2.16L50.5 53q.3-16.02.3-18.84H34.42zm95.82 18.66v1.68l-11.58.48v12.3h-4.44V55.22L75.28 56.9v-1.68l12.6-.54V17.66h-9.6v-1.68h50.88l-.66 1.68h-9.84V53.3l11.58-.48zm-16.02-35.16H89.68V28.7h24.54V17.66zM89.68 30.38V41.3h24.54V30.38H89.68zm0 24.24l24.54-1.08V42.98H89.68v11.64zm99.9-4.14l-.48 1.68h-16.56v14.88h-4.44V11.6h4.44v11.22h15.72l-.54 1.68h-15.18v11.58h14.76l-.54 1.68h-14.22v12.72h17.04zM154.6 23.36V12.02h1.8V67.4h-1.8V52.1h-17.34v-1.68h17.34v-12h-15.42V36.8h15.42V25.04h-15.66v-1.68h15.66zm63.6-1.8h25.5v41.22h-41.28V21.56h14.04l5.4-10.14 1.74.48q-4.2 7.62-5.4 9.66zm20.52 1.68h-31.38V41.3h31.38V23.24zm-31.38 37.74h31.38v-18h-31.38v18zm72.36-36.54L269.2 62h-3.3q-1.2 0-1.68-.42t-.72-1.68l-9.78-45.96h5.4l7.92 39.3 9.78-36.78h4.2q1.02 0 1.32.24.3.24.54 1.2.6 2.58 9.96 35.52l7.68-39.48h5.52L296.08 62h-4.26q-1.02 0-1.5-.45t-.78-1.71q-.6-2.46-9.84-35.4zm28.98 13.5q0-11.82 4.38-18.06 4.38-6.24 12.06-6.24 4.8 0 8.49 2.7 3.69 2.7 5.79 8.16t2.1 13.44q0 7.62-1.95 13.14-1.95 5.52-5.64 8.46-3.69 2.94-8.79 2.94t-8.79-2.82q-3.69-2.82-5.67-8.34t-1.98-13.38zm4.92.06q0 6.42 1.47 10.92t4.05 6.75q2.58 2.25 6 2.25 3.36 0 5.94-2.31 2.58-2.31 4.02-6.78 1.44-4.47 1.44-10.83 0-6.24-1.53-10.71-1.53-4.47-4.14-6.78-2.61-2.31-5.73-2.31-3.24 0-5.85 2.28-2.61 2.28-4.14 6.75Q313.6 31.7 313.6 38zm47.7-24.54q-4.56 0-7.98 2.1-3.42 2.1-5.25 5.97-1.83 3.87-1.83 9.03l4.62.6q0-6.18 2.67-9.51t7.77-3.33q4.44 0 7.05 2.25 2.61 2.25 2.61 5.85 0 2.4-.72 4.41-.72 2.01-2.43 4.26-1.71 2.25-5.01 5.55-7.08 7.2-15.36 16.5-1.32 1.38-1.32 2.76 0 .9.72 1.47t1.98.57h27.48l.84-4.92h-22.86q6.42-7.5 13.26-14.16 4.92-4.74 6.75-8.34 1.83-3.6 1.83-8.1 0-3.72-1.86-6.69t-5.25-4.62q-3.39-1.65-7.71-1.65z"/></svg>