<svg viewBox="0 0 468 80" xmlns="http://www.w3.org/2000/svg"><path d="M26.54 35.06v-.3q-4.8 3.6-6.06 4.32-3.24 2.04-4.8-.06-1.62-2.04 1.26-4.5 1.56-1.32 13.02-11.7 11.22-10.2 13.2-11.76 1.38-1.14 3.12-1.08 1.98.06 3.42 1.8 2.22 2.94.36 5.46 17.34 12.78 18.6 13.8 3.3 2.52 2.1 4.44l-.12.24q-1.2 1.92-4.98.18-2.1-.96-11.52-6.3-9.54-5.46-11.7-6.42l-.18-.12q-2.46 1.86-10.02 7.44 1.38.24 2.46 1.14.84.06 7.68.3 5.52.18 8.28.36 1.32-.9 3.3-.9 2.52-.06 4.02 1.26 1.5 1.26 1.14 2.94-.36 1.92-1.2 8.04-.78 5.88-1.2 7.8-.78 4.14-6 2.76-2.64-.66-4.86-1.38-2.46-.84-1.98-2.94.42-1.74 2.52-1.56 1.68.12 3.36.3-.12-5.22-.42-10.26l-13.2.84q-.3 11.04-.24 13.44.06 3.54 1.74 4.8 1.68 1.32 6.54 1.5 5.28.12 16.92.12.78-3.48.66-3.12.78-2.82 2.4-2.82 1.8 0 2.46 2.82.72 3 1.08 5.16.66 3.66-2.34 3.96-10.38.9-23.64.48-7.5-.24-10.5-2.52-3.12-2.4-3.72-8.7-.48-4.86-.96-19.26zm67.08 10.02l-.3 4.8q15.36-.3 19.44-.42l-.24-5.52q-3 .24-9.78.6-7.68.42-9.12.54zM111.2 20.9l-16.2.9-.3 4.38 16.92.66q-.12-2.46-.42-5.94zM94.22 33.68l-.18 3.84 18.18.72-.3-5.7q-2.76.24-9.42.6l-8.28.54zm27.54-13.38v.36q.06-.54-1.56 28.68l6.84-.12q4.86 0 5.1 2.34.18 2.58-4.74 3.24l-3 .36q-2.76.3-4.5.54-.36 6.96-.42 7.38-.42 4.92-2.94 4.92-2.7 0-3-4.92-.06-.48-.42-6.66-30.84 3.42-32.7 3.72-1.98.24-3.54-1.26-1.56-1.44-1.68-3.54-.12-2.1 1.2-3.66 1.38-1.62 3.36-1.62 3.96 0 7.32-.06l-.84-14.34q-.54-9.9-.84-13.26l-2.1.18q-1.8.24-3.18-1.26-1.38-1.44-1.44-3.48 0-1.98 1.32-3.42t3.12-1.38q3.18.18 20.88.78 18.36.6 20.88.72 4.44.3 4.5 2.58 0 2.46-4.44 2.88-.3 0-1.32.12l-1.86.18zm24.12 31.68l-.48 7.08q3.72.3 11.04.72l-.72-8.46-9.84.66zm10.02-39.9l.18.12q1.98 1.98 1.32 4.14 7.62 6.06 8.28 7.02 1.32 1.5.36 3.06-1.08 1.62-3.36 1.14-.96-.24-5.4-2.76-5.76-3.18-5.7-3.18l-5.46 4.62q11.94.54 12.72.72 2.04.6 2.04 2.28 0 1.68-2.04 2.22-.6.18-3.72.42l-.48 4.38q6.18.36 6.72.42 1.32.3 1.92.78.12-1.44.96-2.4t1.92-.9l8.82.36q-6.66-4.68-6.72-4.68-1.02-.6-1.02-1.92-.06-1.38 1.14-2.82 1.14-1.32 2.46-1.44 1.26-.18 2.1.72l1.98 1.98q1.32-2.34 4.2-6.84l-12.18.78q-1.14.12-1.92-.9t-.78-2.58q0-1.56.78-2.58.72-1.02 1.86-.96.78.06 7.08.3 6.3.3 8.64.48 2.4-1.8 5.22 0 1.86 1.14 2.16 3.12.3 1.92-.78 3.12-8.22 9.06-9.72 10.62 1.8 1.86 2.04 2.34.48.72.48 1.56 4.14.24 4.44.3 1.32-1.02 3.6-.48 1.74.42 2.46 1.74.72 1.2.12 2.28-3.72 7.68-4.14 8.4-1.08 1.86-3 1.26-1.92-.48-1.8-2.76l1.2-5.22q.36-.06-4.2.3l.06.36q.66 13.02-1.56 22.08-1.08 4.5-2.64 4.74-.96.12-1.62-.12-8.04-3.48-8.28-3.66-1.98-1.14-1.56-2.82l.06-.18q.54-1.56 2.4-1.32l2.76.66q1.92.48 2.88.6.78-10.32-1.2-19.44l-.06-.36q-4.5.18-5.64.36-1.68.18-2.58-1.56-.48 1.02-2.34 1.38-1.62.3-7.14.6-.12 1.68-.42 4.8l2.52.18q1.02-1.14 2.94-1.14 1.8 0 2.94 1.02 1.14 1.08.96 2.52-.24 1.56-.66 7.2l-.6 7.08q-.54 2.94-2.52 2.94t-2.52-2.46q-1.32.12-6.12.42l-5.94.42q-.6 2.04-2.4 2.04-1.98 0-2.58-3l-.66-7.26q-.48-6-.66-7.44-.18-1.5.96-2.52 1.08-1.08 2.88-1.08 1.14 0 2.1.48l3.96.3-.3-4.14q-5.88.3-8.4.54-1.26.12-2.1-.96-.84-1.02-.84-2.64 0-1.56.84-2.58.78-1.08 2.04-1.02 1.26.12 7.98.36-.24-2.76-.42-3.6l-1.86.12q-.9.06-1.2.12-2.16.18-2.46-2.82-.36.3-1.38.96-2.64 1.74-4.2.18l-.12-.18q-1.5-1.62.36-4.08 1.08-1.38 6.9-7.62 6.12-6.48 7.08-7.68.9-1.14 2.52-.96 1.68.18 3.06 1.62zm73.2 17.34l-.42-3.66-5.04.3q-3.42.18-4.98.3l-.24 2.46q1.56.12 5.28.3l5.4.3zm-5.88 12q-3.96.18-6.84.42-.48 6.24-.72 7.32-.66 1.86-2.34 1.86-1.5 0-2.22-1.86-.12-.66-.6-6-.42-5.16-.66-6.12-.24-1.02.72-1.68 1.02-.66 2.82-.66h.66q-.6-.42-.9-1.86-.18-.78-.54-4.2l-.6-4.44q-.24-1.32.72-2.22 1.02-.9 2.76-.9 1.08 0 1.86.36l11.76.72q.96-.96 2.7-.96 1.68 0 2.76.9 1.02.84.78 2.04l-1.02 8.34q-.54 2.34-2.4 2.34-1.74 0-2.28-1.86l-11.94.78q-.42 1.32-1.86 1.5l.54.36 14.7.6q.96-.78 2.94-.78 1.8 0 2.82.66.96.72.72 1.62-.18.84-.6 5.58-.48 4.68-.6 5.34-.6 1.8-2.34 1.8-1.56 0-2.28-1.8-.12-.48-.36-3.06-.3-3.24-.48-4.62l-3.36.24q.12.12.48.36 1.38 1.2 1.56 2.64.12 1.32-.84 2.1l-1.44 1.14 7.14 6.42q.9 1.26.18 2.34-.18.3-.48.54 3.9.24 7.44.36l-.84-19.68q-.54-13.26-.84-17.94l-16.26.72q-11.52.48-15.72.72-.36 7.2-1.5 34.56.54 0 2.46.12l3.3.18q-.18-1.02.42-1.98.42-.72 5.28-6.18t5.34-6.18zM217.58 56l13.38.6-4.14-2.34q-2.7-1.62-3.18-1.8-.6-.24-.9-1.02-2.46 2.22-5.16 4.56zm24.3 6.72l-.06-.78q-2.16.12-17.88.78-14.94.66-17.94.84-.3 4.74-2.76 4.74-2.28 0-2.7-4.8-.18-2.58-1.02-23.58-.84-20.04-1.14-23.58-.12-1.98 1.32-3.42 1.44-1.38 3.66-1.38 2.16 0 3.54 1.38l33.42 1.44q1.44-2.22 4.38-2.22 2.28 0 3.6 1.38 1.32 1.38 1.2 3.42-.24 3.36-1.08 22.86-.9 20.1-1.08 22.92-.3 4.8-2.64 4.8-2.52 0-2.82-4.8zm33.24-50.76l.18.18q1.56.96 1.98 2.58.42 1.62-.54 2.76-1.62 1.98-7.62 10.14 1.5 1.2 1.32 2.94-.24 2.34-.9 16.62-.72 14.58-.9 16.56-.42 3.66-2.58 3.66-2.1 0-2.64-3.66-.12-1.74-.54-11.16-.54-11.46-.78-15.48l-1.98 2.46q-2.16 2.58-3.9 1.44l-.18-.12q-1.74-1.14-.3-4.14.84-1.74 6.96-11.94 6.12-10.26 6.96-12 .6-1.32 2.28-1.62 1.62-.24 3.18.78zm20.16 17.46l-.06 1.68q3.18-1.08 4.68 1.62.78 1.56 5.7 8.82 4.92 7.2 5.64 8.64 1.62 3.12-.18 4.2l-.18.12q-1.62 1.02-4.02-1.56L294.92 39.2l-.42 10.62q5.64.24 6.78.42 2.7.42 2.7 2.46.06 1.92-2.64 2.52-1.62.36-7.08.66l-.36 7.74q-.3 4.5-2.52 4.5-2.34 0-2.64-4.5-.18-1.62-.36-7.38l-8.28.54q-1.32.12-2.22-1.02-.84-1.08-.9-2.76 0-1.62.9-2.76.84-1.08 2.1-1.02 2.16.12 8.16.3l-.54-13.44-12.66 18.3q-1.56 2.46-3.72 1.38-2.04-1.02-.9-3.96.6-1.44 5.16-9.72 5.46-9.84 6.48-11.88l-5.76.42q-1.62.12-2.76-1.2-1.14-1.32-1.14-3.24-.06-1.86 1.08-3.18 1.08-1.26 2.7-1.2.54.06 10.98.42-.18-5.22-.36-6.84-.18-1.8 1.32-3.18 1.44-1.32 3.42-1.32 1.92 0 3.24 1.32 1.38 1.38 1.26 3.18l-.36 7.14q9.3.3 11.34.54 3.6.42 3.66 2.64 0 2.28-3.6 2.82-2.88.42-11.7.9zm81.66-13.2l.24.06q1.86.42 2.94 1.92 1.02 1.5.54 3.18-.78 2.88-5.64 18.96-5.1 16.8-5.7 18.9-1.2 3.84-3.18 3.42-.66 0-1.02-.3-.54-.3-.78-.72-.66-.9-1.26-2.64-.66-1.74-6.96-24.48-8.16 26.76-7.62 25.08-1.2 3.54-3 3.42-1.98.3-3.48-3.78-.96-2.64-6.06-18.48-4.98-15.6-6.06-18.48-.66-1.8.36-3.6 1.02-1.74 2.94-2.22l.3-.12q1.92-.48 3.66.48 1.8.96 2.16 2.88.84 4.86 6.18 29.34 5.76-25.08 6.18-29.52.36-2.7 3.36-3.12l.24-.12q1.86-.48 3.54.48 1.74.96 2.04 2.82 3.06 16.68 5.4 28.38 5.04-24 5.46-28.5.18-1.74 1.74-2.7 1.56-.96 3.48-.54zm15.66 7.2l-.72 16.08q-.48 12.24-.72 16.08l15.6.96q-.18-2.88-.78-16.74-.6-13.68-.84-17.16-10.14.6-12.54.78zm16.98 37.92l-.48.12q-1.08.18-10.02.72-8.7.54-10.2.78-.96.18-1.8-.6-1.02-.84-1.32-3.54-.24-2.28-.96-19.26-.66-16.8-.96-19.38-.18-1.62 1.26-2.88 1.38-1.2 3.36-1.2.42 0 .66.06.48-.12.78-.06 1.38.18 8.64.66 9.06.54 10.38.66.18-.06.6-.06 1.92 0 3.24 1.14 1.26 1.2 1.08 2.82-.24 2.28-.9 18.18-.66 15.84-.9 18.12-.42 3.66-2.46 3.72zm22.8-43.26l.24.12q1.8.6 2.64 2.16.84 1.5.18 2.88-.72 1.62-3.96 9.48-3.84 9.42-5.1 12.36l10.92.6q-.96-22.92-1.26-25.56-.18-1.74 1.26-3 1.38-1.2 3.42-1.2 1.98 0 3.3 1.26 1.32 1.2 1.2 2.94-.12 1.32-1.32 25.92l5.04.3q3 .54 3 2.4 0 1.86-3 2.4-1.14.18-5.28.36l-.42 7.08q-.3 4.02-2.58 4.02-2.28 0-2.7-4.02l-.42-6.78q-13.68.78-15.06.96-1.32.18-2.28-1.02-.96-1.14-.96-3 0-.78.18-1.38v-.12q.3-1.98 3.78-13.44 3.48-11.58 3.84-13.62.24-1.5 1.86-2.16 1.62-.6 3.48.06z"/></svg>