<svg viewBox="0 0 464 80" xmlns="http://www.w3.org/2000/svg"><path d="M63.94 58.1q.36 1.68.84 4.32.36 2.34-2.34 2.52-9.3.6-21.9.36-6.78-.12-9.24-2.1-2.52-1.98-2.94-7.74-.6-7.2-.6-20.58-.06-1.08.72-1.92.72-.78 1.92-.78 1.08 0 1.92.72l17.94.66q.78-.66 2.04-.66 1.44 0 2.28.72.78.78.6 1.8-.18.96-.72 7.98-.6 6.96-.9 8.7-.36 2.52-3.54 1.68-2.64-.78-4.32-1.32-1.62-.6-1.38-1.86.3-.9 1.98-.84l1.62.18q1.32.12 1.98.24-.06-.96-.06-6l-.12-7.26-16.68.72q-.18 15-.12 16.92.12 3.66 1.5 5.04 1.68 1.68 6.66 1.8 9.18.18 19.56 0l.48-3.3q.42-1.98 1.44-1.98t1.38 1.98zM41.56 20.24L18.34 40.1q-1.92 1.32-2.76.18-.96-1.14.66-2.64.6-.54 13.38-12.96Q42.22 12.38 43 11.72q1.98-1.8 3.96.18.9 1.02.72 2.22-.12 1.08-1.08 1.8l-.36.3q-.36.24-.6.48l22.44 18q1.98 1.56 1.26 2.58l-.12.18q-.72 1.02-2.82-.24-1.02-.48-12.42-8.46-11.46-8.04-12.42-8.52zM90.4 52.58l23.16-.66-.24-8.64q-2.52.18-11.76.48-9.06.36-10.86.48-.06 2.4-.3 8.34zM112.66 20v-.42l-21.12.6q-.12 1.74-.3 7.44l10.44.36q8.64.24 11.28.36-.18-7.26-.3-8.34zm-21.6 12.36l-.24 7.08 10.86.36q8.94.24 11.58.36l-.24-8.7q-2.46.18-11.52.48-8.76.3-10.44.42zm40.02 20.52q.06 1.44-2.7 1.74l-10.98.9q-.18 8.04-.3 9.06-.18 2.7-1.56 2.7-1.44 0-1.62-2.7.06.54-.3-8.82-34.2 2.58-35.7 2.76-1.08.24-1.98-.6-.84-.84-.96-2.04-.06-1.2.72-2.04.78-.9 1.92-.9l9.54-.24q-.18-2.76-.54-16.92-.42-13.68-.54-15.42-3.78.12-4.26.18-1.08.18-1.8-.66-.78-.84-.78-2.04-.06-1.14.72-1.98.78-.84 1.8-.78 1.02.06 21.24.54 20.1.42 21.06.54 2.52.12 2.52 1.44 0 1.32-2.46 1.56l-5.7.24-.96 32.4q7.74-.24 10.74-.24 2.82-.12 2.88 1.32zm12.42 6.78q1.5.12 6.72.36 5.4.3 6.9.42l-.6-10.56q-3.36.18-12.54.54-.3 6.3-.48 9.24zm6.96-39.9l-.12-.06q-2.1 2.04-6.84 6.78.54.06 7.98.42 7.14.3 7.56.42 1.38.36 1.38 1.38 0 .84-1.38 1.32-.6.18-6.24.42.12.24 0 .54-.12.54-.36 5.82 7.86.24 8.34.36 1.62.36 1.62 1.38 0 .9-1.62 1.38-.24.06-8.52.42-.24 4.92-.36 6.42l4.68.24q.72-.96 2.1-.96 1.08 0 1.8.6t.6 1.44q-.12.9-.48 7.74l-.48 7.56q-.3 1.8-1.38 1.8-1.14 0-1.44-1.8v-.24l-7.14.36q-5.34.24-6.9.36-.18 1.68-1.38 1.68-1.14 0-1.44-1.8-.12-.84-.48-7.8l-.48-7.92q-.12-.84.54-1.44.72-.6 1.8-.6.72 0 1.32.3 1.5.12 5.64.36l-.3-6.12q-9.6.36-10.32.42-.84.12-1.44-.54-.54-.72-.54-1.8 0-1.02.6-1.74.6-.66 1.38-.6 1.5.12 10.14.36l-.42-5.82q-.06-.06-.06-.12l-4.32.24q-.78.18-1.26-.48-.54-.66-.54-1.68 0-.36.06-.54-3.3 3.24-3.72 3.42-1.56 1.14-2.4.3l-.12-.12q-.84-.9.36-2.46.48-.66 7.5-8.7 7.2-8.22 7.56-8.7.6-.72 1.62-.66 1.02.06 1.8.84l.12.18q.78.78.84 1.8 0 1.02-.78 1.62l-.72.6q10.14 7.74 9.96 7.5 1.02 1.02.48 1.86-.6.96-2.04.54-.54-.12-5.88-3.18-5.46-3.12-5.88-3.3zm21.72 18.9l-.06-.3-7.8.36q-1.92.3-2.04-2.34 0-1.08.6-1.8.6-.66 1.44-.6.54.12 12.66.48-9.24-6.48-8.58-6.12-.72-.36-.78-1.26-.12-.96.6-1.8.66-.9 1.56-.96.84-.12 1.38.48.24.3 2.94 2.76.3-.48 6.72-9.12-15.96.96-15.12.78-.78.12-1.38-.54-.54-.72-.54-1.74 0-1.08.54-1.8.6-.66 1.38-.54.54.12 7.74.36 7.92.24 9.6.36 1.56-1.56 3.54-.18 1.02.72 1.14 1.92.06 1.14-.72 1.92l-10.38 10.86q3.18 2.94 3.36 3.24.66.84.42 1.44l6.18.24q.96-1.08 2.58-.42 1.08.36 1.5 1.26.36.9-.12 1.8-3.42 6.24-5.64 9.6-.84 1.26-1.98.84-1.08-.42-.84-1.98l3.24-8.04q-2.04.12-7.98.36l.06.24q1.32 14.82-.96 25.98-.48 2.64-1.56 2.76-.3.06-.96-.06l-6.96-3.12q-1.2-.72-.96-1.68l.06-.06q.3-.96 1.44-.78.36.06 2.7.72 2.34.66 2.82.72 1.5-11.7-.84-24.24zm43.68-13.26l-.3 3.66 7.08.36q5.34.24 7.2.36l-.42-4.98q-6.66.36-13.56.6zm14.22 6.9v-.06l-14.88.66q-.3 1.26-1.32 1.26-1.08 0-1.38-1.56-.12-.72-.42-4.62-.36-4.02-.48-4.8-.12-.72.54-1.32.6-.54 1.68-.54.72 0 1.2.24l14.46.72q.48-.9 1.92-.9 1.08 0 1.74.54.66.6.54 1.32l-.42 4.56q-.3 3.72-.42 4.5-.3 1.56-1.32 1.56t-1.44-1.56zm-4.86 15.6l4.86 3.96q4.32 3.48 4.56 3.78.84.9.3 1.68-.48.72-1.74.36-.42-.12-5.16-3.12-4.8-3.06-5.1-3.18-1.32-.54-.72-2.16-8.16 7.5-9.06 8.22-1.26.84-2.16.06-.9-.72 0-2.16.24-.36 6.36-7.02 6.12-6.6 6.42-7.08 1.2-1.68 3.3 0 .9.78.96 1.74 0 .96-.72 1.56l-3.3 3q.72-.12 1.2.36zm-10.98-11.88h.06q.48.06 7.08.3 7.68.24 9.96.36.6-.72 2.1-.72 1.14 0 1.86.54.66.54.48 1.2-.18.54-.54 6.24-.36 5.64-.42 5.94-.42 1.26-1.38 1.26-.72 0-1.38-1.26.06.18-.72-10.26-18.18.96-16.92.78-.6 10.08-.66 10.2-.54 1.32-1.44 1.32-.78 0-1.32-1.32-.12-.36-.48-6.6-.36-6.36-.48-6.84-.42-1.74 2.28-1.74 1.2 0 1.92.6zm-9.42-16.32l-.96 38.22q1.92.12 18.96.6l19.14.54q-.84-35.34-1.02-40.38l-36.12 1.02zm-1.08 43.26l-.06 1.44q-.24 2.7-1.5 2.7t-1.5-2.7q-.06-.84-.6-23.88-.54-22.62-.66-23.88-.12-1.14.72-1.92.78-.78 2.04-.78 1.38 0 2.1.84l36.84 1.02q.72-1.44 2.52-1.44 2.88 0 2.76 2.7-.12 1.26-.66 23.28-.54 22.44-.6 23.28-.24 2.7-1.5 2.7t-1.5-2.7l-.06-1.8q-1.98.12-19.5.6-18.18.48-18.84.54zm69.6-50.82l.12.12q.9.6 1.14 1.56.24.96-.36 1.68-.36.42-7.86 11.7 1.26.72 1.08 1.98-.06.84-.54 17.58-.48 16.68-.6 17.46-.3 2.16-1.44 2.16-1.08 0-1.5-2.16.12 1.32-.96-31.08-4.08 6.12-4.44 6.48-1.38 1.56-2.28 1.02l-.12-.12q-.96-.6-.06-2.46.3-.78 7.26-12.66 6.96-11.94 7.26-12.6.42-.84 1.44-1.02.96-.18 1.86.36zm18.18 18.12l.12-.06q.84-.6 1.86-.36.96.24 1.44 1.08.42.84 7.2 10.38 6.72 9.48 7.14 10.38 1.14 1.86.12 2.58l-.12.06q-.96.6-2.4-1.14-2.58-3-15.9-19.5l-.36 16.38q8.04.18 9.24.36 1.68.42 1.68 1.44 0 1.08-1.68 1.44-.54.12-9.36.48l-.24 10.86q-.12 2.64-1.5 2.64-1.32 0-1.44-2.64l-.24-10.74q-8.94.36-9.66.48-.9.12-1.44-.6-.6-.72-.6-1.8-.06-1.08.54-1.8.6-.72 1.44-.6 1.56.18 9.6.36l-.36-18-15.48 22.38q-.96 1.56-2.22.96-1.14-.66-.36-2.46.24-.66 6.24-10.62 6.78-11.34 7.92-13.32-9.06.3-10.2.42-.96.12-1.68-.66-.66-.78-.66-1.92-.06-1.14.66-1.92.66-.78 1.62-.72 1.14.06 13.98.42-.3-10.2-.36-10.62-.06-1.08.72-1.86.84-.78 1.98-.78 1.14 0 1.92.78.84.78.78 1.86-.12.9-.3 10.74 14.16.36 15.06.42 2.1.3 2.1 1.5 0 1.14-2.1 1.56-.42.06-15.18.54v2.04q.12-.18.48-.42zm84.9-13.32l.24.06q1.02.24 1.56 1.14.6.84.3 1.86l-12.24 40.68q-.18.66-.48 1.14-.06.3-.36.48-.24.36-.78.36-.36 0-.72-.18-.18-.06-.42-.42-.36-.54-.78-1.62.18.48-8.4-30.96-7.86 28.74-8.7 31.2-.72 2.22-1.86 1.92h-.24q-.18 0-.3-.12-.66-.3-1.32-2.1-.48-1.2-6.66-20.04-6.24-19.02-6.66-20.16-.36-1.02.18-2.04.54-.96 1.62-1.26l.18-.06q1.08-.36 2.1.18.96.54 1.2 1.62.12.6 9.9 36.9 7.92-34.26 8.04-35.58.18-1.32 1.5-1.74l.54-.18q1.02-.3 1.98.3.96.54 1.2 1.62 1.98 9.54 7.56 35.1 8.76-35.16 8.82-36.3.12-.96 1.08-1.56.9-.54 1.92-.24zm28.32 3.36l-16.08.66q-.12 3.6-.48 18.42-.36 14.76-.48 18.36 1.74.12 8.94.42 7.38.36 9.12.48l-.48-19.2q-.42-16.44-.54-19.14zm-8.64-3.54l11.88.54q2.1.54 1.92 2.34-.12.9-.6 19.86-.48 19.02-.54 19.74-.24 2.22-1.5 2.22h-.36q-.54.12-9.96.48-9.54.42-10.2.54-.84.18-1.38-.48-.54-.54-.72-1.98-.06-.78-.54-20.58-.48-19.74-.6-20.7-.12-1.02.66-1.74t1.98-.72h.72q.66.12 9.24.48zm48.78 1.02l.12.12q.96.54 1.26 1.56.3 1.08-.3 1.92-.36.48-10.14 15.6-10.38 15.96-13.38 20.46 3.3.18 12.84.54 8.7.36 9.18.42 1.86.42 1.86 1.5t-1.86 1.5q-.66.12-12.12.54-11.46.42-12.3.6-.96.18-1.56-.6-.66-.78-.66-2.04 0-1.08.54-1.8v-.06q.42-.84 9.66-16.5l12.42-21.06q-1.98.12-8.82.36-6 .24-8.04.36-.84 10.74-.72 10.26-.42 1.44-1.62 1.44-1.02 0-1.5-1.44-.18-.48-.48-6.42-.42-6.12-.54-6.72-.24-.78.54-1.38.72-.54 1.98-.54.42 0 1.02.12 1.8.12 10.44.48l10.5.42q.84-.12 1.68.36z"/></svg>