<svg viewBox="0 0 300 80" xmlns="http://www.w3.org/2000/svg"><path d="M53.7 16.16v48.48q0 .84-.63 1.47t-1.53.63q-.9 0-1.5-.63t-.6-1.47V18.32H28.8q-.9 0-1.5-.63t-.6-1.53q0-.9.6-1.5t1.5-.6h22.74q.9 0 1.53.6t.63 1.5zm-8.46 22.68l-9.42 9.3q-.66.6-1.47.6-.81 0-1.53-.6l-9.36-9.3q-.66-.72-.66-1.53t.66-1.47q2.94-2.94 5.58-4.41 2.64-1.47 5.28-1.47 5.34 0 10.92 5.88h.06v.06q.6.6.57 1.47-.03.87-.63 1.47zM19.5 23.18v41.46q0 .84-.63 1.47t-1.47.63q-.9 0-1.53-.63t-.63-1.47V23.18q0-.9.63-1.53t1.53-.63q.84 0 1.47.63t.63 1.53zm8.52 14.28l6.3 6.18 6.36-6.18q-3.54-3.3-6.36-3.3-2.7 0-6.3 3.3zm-7.44-24.78l4.74 6.18q.48.72.39 1.53-.09.81-.81 1.41-.72.6-1.56.48-.84-.12-1.38-.84l-4.8-6.18q-.48-.72-.36-1.56.12-.84.78-1.38.78-.6 1.62-.48.84.12 1.38.84zm72.36 52.38q-.54.72-1.35.9-.81.18-1.59-.36-.72-.48-.9-1.32-.18-.84.36-1.62 4.14-6.18 6.42-12.24l-.54-1.74q-2.64-8.34-3.9-17.4H75.9q-.42 8.52-1.8 16.56-1.44 8.88-4.38 18.24-.3.84-1.05 1.23t-1.65.15q-.84-.3-1.23-1.05t-.15-1.59q2.58-7.98 3.96-15.6h-2.58l-1.5 7.08q-.24.9-.96 1.35-.72.45-1.62.27-.9-.18-1.35-.9-.45-.72-.27-1.62l1.92-8.58q.12-.78.75-1.35.63-.57 1.41-.57h4.86l.6-4.44h-4.62q-.9 0-1.53-.63t-.63-1.53v-9.54q0-.84.63-1.47t1.53-.63q.84 0 1.47.63t.63 1.47v7.44h2.94q.12-1.8.24-3.72.12-1.62.24-3.3v-.06q0-.84.63-1.47t1.53-.63H90.9l-.18-1.68q0-.9.54-1.56t1.44-.72q.9-.06 1.53.45t.75 1.41q.06 1.08.24 2.1h2.16v-1.74q0-.9.63-1.53t1.53-.63q.84 0 1.47.63t.63 1.53v1.74h1.8q.9 0 1.5.63t.6 1.47q0 .9-.6 1.53t-1.5.63H95.7q.96 6 2.46 11.82.78-3.48 1.32-7.32.18-.9.84-1.41.66-.51 1.56-.39.9.18 1.41.84.51.66.39 1.56-1.02 7.5-3.3 14.16 2.76 7.98 6.72 13.68.48.78.33 1.62-.15.84-.87 1.38-.78.42-1.62.27-.84-.15-1.38-.87-3.12-4.5-5.52-10.38-2.04 4.32-5.1 8.82zm-5.1-12.12v3.6h.54q.84 0 1.47.63t.63 1.47q0 .9-.63 1.53t-1.47.63h-9.36q-.84 0-1.47-.63t-.63-1.53V35.78q0-.9.63-1.53t1.47-.63h10.26q.9 0 1.53.63t.63 1.53q0 .84-.63 1.47t-1.53.63h-1.62v3.6h1.56q.9 0 1.5.63t.6 1.47v7.26q0 .84-.6 1.47t-1.5.63h-1.38zm15.06-33.72h-7.74v1.02q0 .84-.66 1.47t-1.56.63q-.84 0-1.47-.63t-.63-1.47v-1.02h-11.7v1.68q0 .84-.66 1.5t-1.5.66q-.84 0-1.5-.66t-.66-1.5v-1.68h-8.28q-.84 0-1.47-.6t-.63-1.5q0-.9.63-1.53t1.47-.63h8.28v-1.5q0-.9.66-1.53t1.5-.63q.84 0 1.5.63t.66 1.53v1.5h11.7v-1.5q0-.9.63-1.53t1.47-.63q.9 0 1.56.63t.66 1.53v1.5h7.74q.9 0 1.53.63t.63 1.53q0 .9-.63 1.5t-1.53.6zM87.06 45.8h-5.88v2.88h5.88V45.8zm-3.48 7.14h-2.4v3.6h2.4v-3.6zm-.18-15.06h-2.22v3.6h2.22v-3.6zm73.02.96v20.04q0 .84-.66 1.47t-1.56.63q-.84 0-1.47-.63t-.63-1.47V41h-16.2v24.06q0 .9-.63 1.56t-1.47.66q-.9 0-1.53-.66t-.63-1.56V41h-12.9q-.9 0-1.56-.66t-.66-1.5q0-.9.66-1.53t1.56-.63h12.9v-12.6h-9q-.84 0-1.47-.63t-.63-1.53q0-.84.63-1.47t1.47-.63h9V13.7q0-.9.63-1.53t1.53-.63q.84 0 1.47.63t.63 1.53v6.12h10.98q.84 0 1.47.63t.63 1.47v14.76h5.22q.9 0 1.56.63t.66 1.53zm-20.52-2.16h8.82v-12.6h-8.82v12.6zm15.12-19.08h-4.8q-.84 0-1.47-.63t-.63-1.47q0-.9.63-1.53t1.47-.63h4.8q.9 0 1.5.63t.6 1.53q0 .84-.6 1.47t-1.5.63zm22.38-.72h12.66v-3.36q0-.9.63-1.53t1.47-.63q.9 0 1.53.63t.63 1.53v3.36h11.82q.9 0 1.53.63t.63 1.53v10.02q0 .9-.63 1.53t-1.53.63h-26.82q-.42 6.78-1.62 14.04-1.92 11.22-5.04 20.64-.3.84-1.05 1.23t-1.59.15q-.9-.36-1.29-1.11-.39-.75-.09-1.65 3-9 4.86-19.98 1.8-10.62 1.8-19.5v-6q0-.9.63-1.53t1.47-.63zm4.26 20.88h12.12v-3.3q0-.9.63-1.59.63-.69 1.47-.69.9 0 1.53.69t.63 1.59v3.3h11.94q.9 0 1.53.63t.63 1.47q0 .9-.63 1.53t-1.53.63h-17.7q-.42 2.1-1.02 4.32h13.56q.84 0 1.47.63t.63 1.53v16.68q0 .9-.63 1.56t-1.47.66q-.9 0-1.53-.66t-.63-1.56V50.6h-12.6q-.24.6-.42 1.26-.48 1.44-1.02 2.82-2.28 6.42-5.7 11.64-.48.84-1.32.99-.84.15-1.62-.33-.72-.54-.9-1.35-.18-.81.24-1.59 3.18-4.86 5.34-10.86 2.16-5.76 3.3-11.16h-6.3q-.9 0-1.5-.63t-.6-1.53q0-.84.6-1.47t1.5-.63zm22.38-10.8v-5.82h-24.48v5.82h24.48zm32.34-7.08h9.42V13.7q0-.9.63-1.56t1.53-.66q.9 0 1.5.66t.6 1.56v6.18h9.9q.9 0 1.5.63t.6 1.47q0 .9-.6 1.53t-1.5.63h-9.9v28.08h4.62q.9 0 1.53.63t.63 1.47q0 .9-.63 1.53t-1.53.63h-4.62v8.46q0 .9-.6 1.5t-1.5.6q-.9 0-1.53-.6t-.63-1.5v-8.46h-4.02q-.9 0-1.53-.63t-.63-1.53q0-.84.63-1.47t1.53-.63h4.02V24.14h-9.42q-.9 0-1.5-.63t-.6-1.53q0-.84.6-1.47t1.5-.63zm-13.08 17.7q-.54.72-1.38.87-.84.15-1.62-.39-.72-.54-.87-1.35-.15-.81.33-1.59 3.06-4.44 4.74-9.66 1.98-5.64 2.58-11.88.12-.9.78-1.47t1.56-.51q.9.18 1.44.84.54.66.48 1.56-.48 4.44-1.5 8.76V65q0 .9-.6 1.56t-1.5.66q-.9 0-1.53-.66t-.63-1.56V33.86q-1.08 1.92-2.28 3.72zm12.96 25.74q-.3.84-1.05 1.26-.75.42-1.65.24-.84-.3-1.23-1.05t-.15-1.65q2.04-7.08 3.54-16.02 1.26-8.1 1.68-17.58.06-.9.69-1.44.63-.54 1.53-.54t1.47.63q.57.63.57 1.53-.42 9.66-1.74 18.06-1.44 9.24-3.66 16.56zm22.32-34.92l4.14 34.08q.06.9-.45 1.56t-1.41.84q-.9.06-1.56-.48t-.84-1.44l-4.14-34.08q-.12-.9.42-1.56t1.44-.78q.9-.12 1.59.42.69.54.81 1.44z"/></svg>