<svg viewBox="0 0 388 80" xmlns="http://www.w3.org/2000/svg"><path d="M25 17.28h2.11q1.64 0 2.58 4.45-.71 3.75-.71 7.27 1.18-.23 1.65-.23l2.57-.94 1.88 2.81-1.41 1.88-4.69.93.24 3.52 5.62 4.45q.24 3.75-2.34 4.69l-1.64-1.41q-1.64-1.87-1.88-2.11-.23 3.29-.23 17.11l.47 2.35q-.47 1.17-.47 2.11-3.28 0-5.16-2.82.71-9.84.71-12.42l.23-2.81q-1.4 1.17-6.33 4.22h-3.04q9.14-10.55 9.37-14.77l.24-.93-3.05 1.17h-1.64q-2.11-1.41-2.11-3.52 4.92-1.4 7.26-2.58v-9.14Q25 18.69 25 17.28zm12.19 3.52l11.01-2.82 3.28.71q1.18.7 2.58 3.04-3.75 3.29-10.54 12.66v-.23l1.4-.24q6.8-1.17 11.02-1.64 6.09-.7 8.67 4.45-.23 7.74-10.08 28.83h-1.17q-.94 0-11.02-7.26l-.93.7-5.63 3.75v-2.34Q47.5 45.88 48.67 39.78l1.41-.94h1.17q1.64.71 1.64 2.11 0 4.69-9.14 15.47l6.33 2.11 2.11-.23q3.04-3.99 6.79-20.39-.23-1.41-5.39-.94-4.21.7-11.48 1.64l-4.69.7-.7-2.58 2.11-2.57q5.15-8.44 6.09-10.78l.24-.24h.93l-8.43 1.17-.47-2.11v-1.4zm3.51 18.98h1.88q2.11 0 1.4 2.11-.93 4.92-8.43 13.13l-3.99.93q6.33-9.84 9.14-16.17zm69.61-21.09q1.41.47 2.58.47v3.04l-4.45 3.99v.23q0 3.52.23 9.85 2.35-.47 7.97-1.18l3.52-.46 2.57.7q2.11 1.87 2.11 3.05 0 1.17-1.75 1.28-1.76.12-6.45.59-7.97.94-7.97.7.24 7.97 0 11.25 6.33-.23 6.8-.7 3.98.7 4.69 3.05v2.81h-4.69q-3.05-.47-11.49.47l-3.04.23-3.99.94q-3.04-2.11-3.04-3.52 0-1.64 10.31-2.81-.47-3.28 0-10.31 0-.23-1.41.23Q95.08 44 93.2 44q-.7-.47-2.11-.47l-1.17-3.05q14.3-3.04 14.3-3.28v-4.68q.23-3.52-.47-3.99-.23 0-5.39 1.17h-1.64v-3.04q1.87 0 13.59-7.97zm-21.09.94q3.51.7 2.34 5.39-4.92 5.15-4.92 6.32 1.17 5.16 1.17 9.61 0 2.58-.23 15.24l.23 3.98-1.64 1.41h-.94q-.93 0-2.57-4.45.47-8.44.47-16.18-.47-6.32-.47-6.09l-8.44 7.73v-2.11q.23-1.64 11.95-16.4 1.41-2.11 3.05-4.45zm63.98-6.33l1.64-.47h.71q.93 0 2.34 2.11l-.47 7.73q.47 0 9.61-.94h1.41q.7.24.7 8.44.7-3.98-.82-3.98h-3.16q-9.38 0-9.61 3.51l-4.22 11.49v.23q5.86 0 5.86-3.28v-5.39l1.17-.7h.7q2.35 0 2.82 6.56l6.09-.23q3.51 1.17 3.51 2.57v.47q-.46 1.64-4.68 1.64l-5.16 1.17.24 16.65-1.41 6.56.7-1.88q-4.22 0-10.31-6.33v-.7q0-1.4 1.64-1.4 3.52 2.1 4.22 1.87l.23-13.59-1.87.47q-3.05 0-9.14 1.87-1.41-1.64-1.41-1.87l.7-2.58q1.88-1.17 5.4-14.53-.47 0-3.05-.47h-.47q-.94 0-2.11-1.88 0-1.4 7.03-2.58 1.41-5.86 1.41-7.73l-.24-2.81zm-9.84 36.56q1.64 0 2.81 2.58-1.64 7.26-3.75 8.67h-1.4q-1.41 0-1.41-1.64v-1.64q2.34-7.97 3.75-7.97zm25.31-.94l1.41-.7q5.15.94 10.08 6.56l.47 3.28q-.47 1.41-1.65 1.41-5.62-1.41-10.31-10.55zm54.38-32.34l1.87-.94 2.58 4.45-.47 3.52h.24q2.81 0 12.89-1.41 1.17.24 2.34.24v1.87q0 2.11-7.97 3.28.47 4.69.7 14.3v14.53q-.23 3.28-.23 3.99-1.17 2.81-2.58 2.81-2.81 0-10.31-5.39v-2.81l6.56 2.11h1.41l.23-6.33V32.98q-.47-4.92-.93-4.92l-3.29.24q0 .7-3.75 4.92l-4.45 3.98-1.64-1.87q6.8-8.2 6.8-18.75zm-21.1 6.8l.24-4.22h2.34l2.35 4.22-.71 2.57.24.47q10.07-1.4 14.06-1.4l-1.17 2.57q0 1.88-8.91 3.29l.47 4.45q.23 27.65-3.98 26.01l-1.65-2.81q.47-3.51.71-8.2V32.28q0-.7-.71-.7l-.7-.24q-.94 1.64-7.73 6.8h-1.88q7.03-12.19 7.03-14.76zm65.39-.94l23.68-3.05q2.57 3.28 2.57 3.75.47 1.41-1.64 1.88-3.98-.24-6.32-.24-7.5 0-9.15 5.16-1.87 4.92-3.98 8.2h-.23q18.04-3.28 18.75-3.28 3.28 0 7.73 4.69l-1.41 1.87q-2.11 5.16-3.98 8.21 0 .23 2.81 4.21v.94q.47 1.17-1.64 1.88l-1.87-.94q-7.5 0-18.28 1.87v3.75h-.94q-4.46 0-4.92-16.17-.47 0-.47.71-6.8 8.67-13.36 10.07v-1.64q11.95-10.54 16.87-24.84 1.17-2.58-.23-3.99-.24.24-5.16-.46v-2.58h1.17zm7.04 19.45q-3.29.24-3.29 0 1.64 2.81 3.05 10.08l.47.7h2.11q10.08-1.17 12.19-3.98 0-.47 2.11-7.97 0-.24-1.64-.24-4.46.47-15 1.41zM340 11.19l2.34 1.17q2.35.94 1.88 11.95l2.34-.23 6.1-.94q1.17.47 2.34.47v2.34q0 2.11-9.84 2.82-1.18.23-.94 1.17.23 1.64 12.42 14.06 3.28 2.11 7.97 4.69l3.28 1.17q-3.51 2.11-5.16 1.87-3.51 2.82-18.51-15l-.47-.46v10.07h-.23q2.81 0 7.96-.7l1.18 2.58v.47q0 2.34-8.68 3.04.24 6.1-.23 11.72-.7.94-.7 1.88h-1.88q-.7 0-2.34-3.28l.23-7.5v-2.11q-3.51.94-6.09-.94l-1.64-1.41v-1.4q7.97-.94 8.2-1.64V36.97l-.7.94q-9.85 14.29-12.42 15.7H325V51.5q6.56-9.84 13.13-20.62v-.71h-5.63q-2.81-1.17-2.81-2.34v-1.64Q340 25.72 340 24.78V11.19zm-14.77 7.03h.94q1.41 0 2.35 3.51v1.41q-1.41 3.05-5.39 8.2.46 2.11.23 6.33V58.3l-.47 3.98h-2.34q-1.17 0-2.11-3.75 0-.7.47-8.2V33.92l.23.24q-6.8 4.92-8.2 4.92v-1.41q10.54-11.72 14.29-19.45z"/></svg>