<svg viewBox="0 0 444 80" xmlns="http://www.w3.org/2000/svg"><path d="M23.6 55.34q.3-.06.3-.24t.18-.18q.24 0-.24.54-.54.42-.54.12 0-.18.3-.24zM36.8 42.5q1.08-.6 1.08-.24 0 .18-.24.18t-.24.15q0 .15.27.15t.06.18q-.21.18-.36-.03t-.51-.03q-.6.42-.24.54.18 0 .18-.18t.06-.18q.6 0-.72.84-.12 0-.18.06-1.14.72-1.26.72-.12 0-.12.18.06.3.72-.12.18-.06 1.44-.96 1.26-.9 1.44-1.14.06-.18.09-.18t.03.18q0 .24-.18.48t-1.56 1.38q-1.44 1.2-1.8 1.59-.36.39-.6.39t-.24.15q0 .15-.45.42t-.45.63q0 .36-.15.36t-.84.69q-.69.69-1.11.9-.42.21-.75.54-.33.33-1.38 1.02-1.05.69-1.08.81-.03.12-.21.12-.12 0-.84.48t-.84.66q-.12.06-.66.42-.9.66-.9.9t-.36.3q-.18.06-.3.15t-.06.15q.06.06 0 .09t-.18.03q-.18 0-.18.12t-.24.12q-.12 0-.27.15-.15.15-.21.3t.06.21q.18.12-.36.54-.54.42-.78.3l-.06.12q.12.12.06.15t-.18-.03q-.18 0-.18.06.06.18-.06.18t-.24.48q-.18 1.32-.6 1.32-.18 0-.36-.24-.24-.3-.48-.18t-.54-.18q-.18-.18-.21-.18t-.09.18q-.06.18-.63.3-.57.12-.99-.06-.36-.18-.51-.63-.15-.45-.03-.69.06-.3.06-.78 0-1.86.3-2.04.24-.06-.06-.18-.12-.06-.24-.06-.48-.18-.54-.51-.06-.33.48-.51.36-.24.75-.69.39-.45.6-.36.21.09.72-.27t.81-.36q.72 0 1.62-.9.42-.3.96-.69.54-.39.6-.51.24-.18.87-.63t.75-.45q.3 0 .36-.12t.36-.24q.18-.06.24 0t0 .12q-.06.24-.24.24t-.09.09q.09.09.51-.15l1.08-.54q.9-.42 2.34-1.26.66-.36 1.8-.99 1.14-.63 1.32-.75.18-.12.45-.12t.33-.15q.06-.15 1.83-1.05t2.55-1.26zm-.66 1.02q0-.18-.42.06l-.12.12q-.24.12-.3.18l.06.06q.12-.06.36-.12.42-.18.42-.3zm-2.07 1.68q.21 0 .3-.12t.03-.12q-.06 0-.3.06-.24.18-.03.18zm-.45.36q.12-.3.06-.33-.06-.03-.24.27-.12.24-.06.3t.24-.24zm-1.08 2.58q.24-.3.12-.42t-.36.18q-.36.24-.36.36 0 .24.42.06l.18-.18zm1.08-20.1q.18-.12.57-.21.39-.09.69-.09.3 0 .3.18 0 .06.24.06.6 0 1.65.72 1.05.72 1.05 1.14 0 .24-.42.51t-.66.21q-.36-.12-.66.48-.12.3-.48.18-.18-.06-1.32.21-1.14.27-1.26.51-.06.06-1.08.6t-1.14.72q-.12.18-.15.09t-.57.27l-.9.54q-.3.18-.39.27-.09.09-.63.33-.6.24-1.89 1.26t-2.07 1.74q-.78.78-1.44 1.77-.66.99-.81 1.65-.15.66-.12.78t.3 1.74q.27 1.62.39 1.74.12.12.33-.21.21-.33 1.41-1.8t1.35-1.68q.15-.21.81-.93l1.02-1.14q.36-.42.93-1.05.57-.63.57-.78 0-.15-.42-.63-1.02-.9-.48-1.5.3-.3.3-.57 0-.27.12-.27t.42-.06q.3-.06 1.08-.12.84-.12 1.47-.48t.81-.72q.18-.48.72-.48t.6.36q.12.24.3.24.06 0 .12-.12 0-.18.21 0t.57-.12q.24-.24.36-.27.12-.03.42.21.54.3.72.3.18 0 .63.15t1.59.36q1.14.21 1.14.33 0 .12.72.3.78.12 1.26.66t.48 1.14q0 .48-.63 1.11-.63.63-.87.63-.3 0-1.47.6t-1.38.84q-.21.24-.57.36t-.42 0q-.18-.42-1.56.24-.78.24-.93.36-.15.12-.15.3 0 .06-.06.09t-.18-.03q-.24-.06-.36.18-.12.3-.39.42t-.45-.06q-.12-.18-.24-.09t.12.27q.24.18 0 .33-.24.15-.39-.03-.15-.18-.36-.06t.03.3q-.06.12-.24.12-.42 0-1.29.48-.87.48-1.29.36-.42-.12-.21-.21t.81-.57l.96-.9q.72-.72.72-.24 0 .12-.18.12-.24 0-.42.18t-.06.3q.12.12.48-.09t.36-.33q0-.18.48-.6.18-.3.12-.36-.24.12-.33-.09-.09-.21.12-.15t.21-.06q0-.12-.15-.15t-.33.03q-.18.06-.24.18-.12.18-.24.18t-.36.24q-.24.24-.24.42t-.39.3q-.39.12-.45.45t-.69.57q-.63.24-.63.39 0 .15-.18.15t-.06-.18v-.12q-.24.06-1.14.84-.42.42-.3.36.3-.06.78-.48.54-.6.54-.36 0 .06-.06.18 0 .12.18.12h.24q.36-.06.39 0 .03.06-.15.3-.24.36-.9.27-.66-.09-.75.3-.09.39-.24.39t-.75.36q-1.38 1.14-1.38.72 0-.18.24-.18t.24-.18q0-.18-.18-.18t-.36.24q-.18.24-.12.42.06.24-.24.3-.48 0-.75.18t-.99.96q-1.62 1.5-2.04 1.38-.18-.12.09-.42t.57-.72q.24-.42.06-.42-.3 0-.3-.15t-.72-.09q-.6.06-.72 0t-.54-.42q-.48-.48-.54-1.02-.06-.42 0-1.26.06-.84.18-1.08.18-.18.06-.48-.06-.24.12-.69.18-.45.36-.45.12 0 .21-.33t.45-.33q.36 0 .81-.42.45-.42.99-.9.54-.42 1.65-1.44 1.11-1.02 1.23-1.2l-.24-.06q-.06.06-.3.18-.72.3-1.26.42t-1.44.42q-.96.3-1.38.24-.42-.06-.54-.48-.24-.54-.36-1.11-.12-.57 0-.69.12-.06.36-.57t.9-.87q.72-.24.72-.06 0 .36.18.36.78 0 3.3-1.38 1.14-.6 1.5-.75.36-.15.36-.27 0-.12.15-.12t.99-.54q1.74-1.02 4.02-2.28 1.02-.54 1.29-.75.27-.21.42-.21.15 0 .33-.3zm-7.98 16.74q0-.12.21-.3t.09-.18q-.12 0-.3.24t-.06.36q.12.12.42 0l.06-.12-.12.06q-.3.06-.3-.06zM46.4 22.4q.42-.24 2.58-.03t2.16.51q0 .12.42.24.36.18.45.57.09.39-.12.63t-.21.48q0 .24-.39.63t-.57.39q-.24 0-.54 1.32-.3 1.32-.3 2.82 0 1.32-.21 1.38-.21.06-.21.48.06.3.18.36h.06q0 .12-.12.24-.12.24-.06.42t.24.18q.24 0 1.29-.69t1.11-.93q.12-.24.9-1.08.78-.84.99-.6.21.24.21.06t.51-.18q.51 0 .69.12.18.18.3-.06.06-.18.33-.18t1.35.24q1.86.42 1.86 1.32 0 .24-.54.66-.54.42-.54.66 0 .18-.75.51t-1.23.27q-.66 0-1.14.3-.66.24-.66.18l.15-.18q.15-.18-.15-.12-1.44.36-3.72 1.74-.12.06-.18.12-.84.66-1.32.78-.36.18-.42.36t-.12.72q-.12.72-.36.9-.18.18-.39.72-.21.54-.21.84 0 .36-.24.84l-.24.42v-.6l-.06-.66-.18.48q-.24.48-.63 1.56t-.63 1.47q-.24.39-.12.39.18 0 .66-.42.48-.42.72-.72.18-.48.45-.48t.27-.24q0-.72.72-.72.36 0 .42-.12.12-.24 2.28-.54 2.04-.42 2.52 0 .18.12.18.03t.6.18q.6.27 1.44.48.84.21 1.17.39.33.18.99.36.78.24 1.5 1.2t.72 1.92q0 .48-.12.75t-.54.69q-1.08 1.02-1.68.66-.24-.12-.81.15-.57.27-.69.51-.12.3-.3.3t-.42.3q-.24.3-.39.3-.15 0-.9.78t-.99.6q-.24-.18-.15-.33.09-.15.27.09l.06.06q.06-.06.06-.24-.06-.36-.12-.36-.12 0-.3.27t-.18.39q0 .3-.51.3t-.51.15q0 .15-.18.15t-.48.3q-.3.3-.6.33-.3.03-.66.27-.24.12-.24.21t.3.45q.36.42 1.11.6.75.18 1.98.51t1.71.39q.48.06.69.36.21.3.45 1.08.24.96 0 1.26-.24.3-.36.6-.06.3-.36.51-.3.21-.48.15-.12-.12-.54.27-.42.39-.69.27-.27-.12-1.53-.18-1.62-.06-2.28-.48-.36-.3-1.53-.63t-2.73-.24q-1.56.09-1.98.15-.54.12-2.01.12-1.47 0-1.53-.12 0-.12-.3-.54-.18-.24-.15-.3t.39.06l.3.12-.18-.48q-.3-.54-.09-.69.21-.15.3-.15t.09-.15q0-.15.15-.39.15-.24.48-.03.33.21 1.29-.03.72-.12 1.02-.33.3-.21.96-1.11.42-.54.54-.78.66-.54 1.83-2.64t2.01-3.93q.84-1.83.6-1.83-.12 0-.99.57t-.93.72q-.06.15-.18.15t-2.64 2.22q-.9.9-1.05.9-.15 0-.21.09t-.93.69q-.87.6-1.23.84-.6.24-.72.42-.18.24-.57.03-.39-.21-.57-.63-.18-.48-.42-.6t-.42.24q-.48.78.18 1.38.36.36.36.48t.12.36q.24.18.33.93.09.75-.03.99-.18.12-.36.78-.06.48-.18.54-.12.06-.48.06-.3-.06-.36-.03t0 .15q.12.3-.06.54-.18.24-.18.42-.06.54-.36.66-.48.18-1.56-.9-.54-.66-.48-1.23.06-.57-.18-1.23l-.3-.66-.24.36q-.12.48-.27.48-.15 0-.15.21t-.27.21q-.27 0-.27.15t-.51.39q-.51.24-.69.18-.24-.12.06-2.1.12-.48-.21-.72-.33-.24-.09-.45.24-.21.48-.21t.24-.24q0-.24.3-.51t.54-.27q.3 0 1.56-1.08.36-.36.42-.36.06.06-.06.18-.06.36 0 .36t-.12.3q-.3.24.06.3.06 0 .72.06l1.14.06.42-.66q.36-.6.57-.81.21-.21.81-.87.3-.24.9-.24.42 0 1.23-.39t1.29-.81q.24-.24.42-.24.12-.12.12-.87t-.09-1.71q-.09-.96-.27-1.14-.18-.18-.42.06-.36.36-.48.12 0-.12.48-.54l.42-.54.12-4.2q.12-4.2.18-6.36l.12-2.16-.72-.12q-.66-.18-.99-.48-.33-.3-.87-.6-1.2-.54-.66-.96.24-.24.36-.51t.51-.39q.39-.12.39-.27 0-.15.3-.18t1.05-.42q.75-.39.93-.93.12-.42.24-.48t.6-.06q.66.06.66-.12t.45-.06q.45.12.75-.06zm-.9 19.26q.06-.18 0-.36-.06.06-.06.18 0 .18.06.18zm-.42 2.22q.18-.18.12-.24-.06-.12-.36 0-.18.18-.09.27.09.09.33-.03zm4.2 7.74q0-.06-.12-.06t-.24.03q-.12.03-.18.09-.06.12-.66.3-.6.18-.69.27-.09.09-.39.33-.3.12.06.18h.24q.6 0 1.29-.51.69-.51.69-.63zM30.74 20.54q.18 0 .45-.33t.81-.33q.36 0 .87.15t.63.33q.12.18 1.68.48 1.62.24 2.73.81 1.11.57 1.11 1.05 0 .3.09.39.09.09.09.57 0 .84-.9 1.14-.3.12-.3.24t-.51.39q-.51.27-.63.21-.06 0-.48.27t-.54.27q-.12 0-.45.27t-1.41.75l-1.68.84q-.6.3-1.14.3-.54 0-.81.12t-.69.24q-1.68.36-2.1.54-.36.18-.57.09-.21-.09-.45.15l-.12.12q.12-.06.15-.03t-.03.15q-.12.18-.3.06-.06-.06-1.05.75t-1.41 1.23q-.24.3-.66.42-.3.06-.3-.06.06-.18.84-1.14.96-1.32 1.05-1.41.09-.09.48-.63t.93-1.08l.54-.6-1.32-1.44q-1.44-1.44-1.68-2.01-.24-.57.3-1.53.24-.36.3-.39.06-.03.36.09.36.24.72.6.54.72 2.16.12 2.04-.78 2.64-1.62.42-.54.6-.54zM114.2 52.7q.18-.24.3-.12.06.06 0 .18-.06.24-.21.18t-.09-.24zm2.1-2.34q.12-.24.15-.24t.03.24q.12.3-.06.42-.06 0-.12-.06-.12-.06 0-.36zm-3.36-6.9q.06-.24 1.02.06.66.3 3.12.6.54.12 2.1 1.44.24.24-.12 1.74-.3 1.14-1.14 1.44-.54.24-.54.48 0 .36-.21.63t-.51.27q-.48-.06-.78.54-.3.6-.39.66-.09.06-.33.48-.12.48-.36.54-.12 0-.12-.12 0-.06.06-.12h-.12q-.12.12-.3.36-.96 1.08-1.26 1.08-.06 0-.06.21t-.36.39l-.36.36h.66q2.1.06 2.28.24.18.18.6.18t1.14.78q.66.78-.06 1.8-.36.54-.36.78 0 .48-1.62.18h-.78q-.12 0-.12.03v.09q0 .24-.12.36-.06-.06-.12-.06.12-.18-.21-.36-.33-.18-.33.03t.18.33q.18.12 0 .27-.18.15-.3 0t-.66-.15q-1.26 0-1.26-.36 0-.12-.54-.15t-.78-.15q-.36-.18-1.17-.12-.81.06-1.23.24l-.66.3.12-.3q.06-.3-.18-.3-.18 0-1.08.06-1.32.12-1.5.18-.06.06-.12 0t0-.12q0-.18-.09-.27-.09-.09-.45-.09-.9-.06-.84-.18 0-.12.18-.18.36-.12.12-.15t-.18-.15q.06-.12 0-.18t-.18-.06q-.36 0-.36-.18 0-.3.96-.3h.36l-.24-.18q-.48-.18-.48-.36t.54-.18q.54-.06 1.83-.24t1.44-.27q.15-.09.72-.96t.69-.93q.18-.12.6-1.05t.42-1.11q0-.18.12-.18t.3-.48q.18-.48.18-.72 0-.48.18-.72.42-.9.42-1.74 0-.24-.09-.3t-.27 0q-.42.12-.54-.09-.12-.21-1.11.33-.99.54-.99.6 0 .06-.24.06-.3 0-1.56 1.17t-1.92 2.07q-1.02 1.5-1.02 1.98 0 .18-.15.18t-.57.3q-.42.3-.36.84.24 1.14 0 1.38-.12.18.03.18t.18.57q.03.57.21 1.05.06.3 0 .39-.06.09-.24.09-.3 0-.39.12-.09.12-.09.6 0 .24-.06.06-.06-.24-.21-.21t-.21.27q-.06.3-.36.3-.12 0-.21.06t-.03.12q.12.12-.06.12-.18-.06-.42-.3-.3-.3-.45-.3-.15 0-.33-.51-.18-.51-.36-.51t-.12-.36q.06-.36-.06-.36-.18 0-.21-.27t.15-.33q.18-.06 0-1.02-.06-.78-.39-1.2-.33-.42-1.23-.84-1.02-.48-1.08-.84-.06-.12.06-.12.18-.06 0-.12-.18-.12-.12-.24t.24-.12q.12 0 .21-.03t.03-.09q-.12-.12.09-.21t-.03-.24q-.24-.15-.15-.24t1.53.09q1.44.18 1.8.3.78.3.78 0 0-.06-.06-.12-.06-.36.33-.69.39-.33.63-.21.3.12 1.17-.54.87-.66 1.35-1.08 1.14-1.14 2.94-2.22.66-.42.66-.54 0-.12.42-.3t.42-.3q0-.12.33-.18t.57-.3q.24-.24 1.35-.78t1.83-.66q.9-.3 1.02-.42zM97.1 42.02q-.06 0 .06-.15t.27-.15q.15 0-.09.12-.12.24-.24.18zm.6-.9q.12-.18.18-.12t-.03.3q-.09.24-.21.24-.24-.06.06-.42zm10.26-21.72q.24-.12 2.4-.12t2.28.12q.06.12.48.12t.51.15q.09.15.39.15.36 0 .57.36.21.36.21 1.02 0 .6.12.81.12.21-.3.45-.36.3-.75.99t-.39 1.17q-.06.48-.24.93-.18.45-.21.84-.03.39-.18 1.14l-.33 1.65q-.24 1.38-.36 1.62-.06.24-.12.51t-.06.48V32q.12 0 .84-.51t1.02-.81q.24-.24.36-.18l.06-.03q.06-.03.12-.12t.12-.21q.24-.36.12-.36-.18 0 .12-.18.66-.18 1.38-.3 2.58-.3 1.92.18-.18 0-.06.12 0 .06-.06.18t-.24.18q-.42.12-.69.72-.27.6-.81.75-.54.15-.72.33-.6.6-1.38.78-.18.06-.18.21t-.33.15-.33.15q0 .15-.21.15t-.21.15q0 .15-.18.15t-.51.42q-.33.42-.33.66 0 .18-.21.72t-.33.54q-.06 0-.06-.09t-.15-.09q-.15 0-.06.12t-.09.06q-.18-.06-.24.12t-.18.66q-.48 1.98-.24 1.86.18-.06.18 0 .06.18-.24.36-.24.36-.12.66.36 0 1.08-.33.72-.33 1.14-.57.6-.48 1.05-.57.45-.09.54-.21.09-.12.3-.21t.36-.15q.15-.06.21.06.06.18.42 0t.66.09q.3.27 1.32.27 1.26.06 1.68.66.42.6-.3 1.26-1.02.96-1.32.96-.12 0-1.14.51t-1.59.51q-.57 0-1.11.36-.96.48-.9.18.12-.24-.18-.18-.18 0-.3.18-.18.24-.99.24t-1.23.24q-1.56.84-1.92.84-.18 0-.18.12t-.33.12q-.33 0-.33.15t-.48.33q-.48.18-1.08.6-.6.42-.99.51-.39.09-.57.27-.18.18-1.02.6-.84.42-1.02.6-.18.18-.72.42t-.6.18q-.12-.06-.48.24-.3.24-1.2.87-.9.63-1.02.63-.18 0-.51.3t-.45.12q-.06-.12-.18-.06t-.3.24l-.24.24q-.06.36-.3.36t0-.18q0-.18-.18-.18-.3 0-.42.48-.06.36-.54.63-.48.27-.78.15-.12-.06-.15 0t-.06.24q-.03.18-.03.54v.96q.06 2.58-.15 3.36-.21.78-1.05.96-.6.24-.84.63t-.42.39q-.18 0-.6.06l-.54.06q-.24.06 0 .24.24.12.21.33-.03.21-.21.21t-.39.24q-.21.24-.36.21t-.39-.27q-.42-.3-.6-.24-.12 0-.3-.15t-.3-.57q-.54-1.26-.87-1.74-.33-.48-.69-.66l-.42-.3h.18q.24.12.24.06t-.12-.18q-.24-.18-.63-.39-.39-.21-.39-.33 0-.12-.24-.12t-.24-.24q0-.24.24-.18t.24-.06q0-.12-.42-.12l-.3.12q.12.12-.06.3t-.3.18q-.24 0-.78.48t-.54.66q0 .18-.3.36-.12.18-.12.12-.06 0 .06-.12.06-.18-.06-.12-.06 0-.12.06-.36.18-.27.3.09.12-.3.39t-.39.9q0 .63-.39 1.02t-.57.39q-.18 0-.18.18 0 .3-.54.06-.18-.06-.3-.24-.18-.3-.36-.3-.54 0-.42-1.5.18-1.32-.36-1.56-.78-.42-1.14-2.64-.42-2.4 0-4.86.12-.96.12-1.92t.15-1.71q.15-.75.27-1.77.18-1.02.69-2.52t.87-1.74q.06-.12.3-.57.24-.45.3-.63.12-.3.27-.3.15 0 .15-.42t.3-.51q.3-.09.3-.3t.3-.21q.3 0 .9-.12.48-.12.48 0v.12q-.06.3.15.3t.27.18q.12.3.66-.72.06 0 .06-.12.24-.54.48-.72.54-.6.54-1.26 0-.42.24-.78.54-.66.3-.78-.24 0-1.5.75t-1.62 1.11q-.72.72-.72.48 0-.12.12-.3.3-.36 0-.36-.12 0-.48.18-1.74.72-2.94-.66-.78-.96-.66-1.5.12 0 .03-.09t.33-.39l.36-.42.3.36q.24.3.48.3.6 0 1.68-.48l.72-.3q.9-.3 2.13-1.02t1.65-1.2q.18-.12 1.02-.66.84-.54.9-.66.06-.12.63-.51.57-.39.57-.75 0-.72.78-.72.42 0 .42-.3t.42-.42q.78-.3.78.18 0 .24.39.27.39.03.57-.18.18-.21 1.14-.15.78.06.99.18.21.12.63.54.42.48.45.78.03.3-.33.66-.24.24-.24.42t-.36.18q-.18 0-.24.06.06 0-.06.24t-.39.39q-.27.15-.51.15t-.18.3q.06.3-.09.3t-.78.3q-.63.3-.72.3-.09 0-.81.45-.72.45-.9.45-.24 0-3.18 1.32-.3.24-.09.33.21.09.6-.06t1.05-.15q.54 0 .6.06.06.06.06.42v.42l1.38-.06q1.38-.12 2.58.12 1.2.24 1.77.33.57.09.87.45.3.36.51.36.21 0 .33.27.12.27.33.42.21.15.27 1.35l.06 1.26-.48.06q-.48.12-.54.33-.06.21-.48.15h-.12q.06.06-.06.21t-.3 1.35q-.42 3.24-.18 3.36.06-.24.48-1.14.42-.9.42-.99 0-.09.6-1.38.6-1.29.6-1.41 0-.12.36-.9t.45-1.2q.09-.42.24-.6t.63-1.74q1.38-3.9.9-4.2-.18-.18-1.02-.93-.84-.75-1.08-.84-.24-.09-.12-.51.12-.36.21-.42t.63-.18q.6-.06.6-.21t.24-.15q.24 0 .42-.42.36-.42 1.17-.72.81-.3 1.05 0 .24.24.6-.12.24-.24.51 0t.69.18q.54 0 1.44.15.9.15.96.27.06.06.3.06.6 0 .6.78 0 .42.18.42.06 0 0 .21t-.21.54q-.15.33-.33.81-.78 1.56-.78 1.8t-.15.24q-.15 0-.09.6t.12.6q.06 0 .03.24t-.06.33q-.03.09-.15-.09t-.42.36q-.12.36-.3.78l-.48 1.08q-.3.72-.3.9 0 .18-.3.39-.3.21-.78.87-.48.66-.75.99-.27.33-.27.51t-.66.87q-.66.69-.9 1.14-.24.45-.54.81-.24.36-.24.24v-.18q0-.3.12-.45.12-.15.24-.45.06-.3.03-.3t-.33.36q-.36.42-.36.6t-.24.18q-.18 0-.75.6-.57.6-1.11 1.38-.6.9-.99 1.29t-.87 1.17l-.54.72.12 1.5q.24 1.62.42 1.68.12-.12.18-.45t.18-.39q.12-.06.12-.36 0-.18.21-.39.21-.21.39-.21.3 0 .45-.3.15-.3.33-.3.18 0 .78-.6 1.08-1.08 1.98-1.68.42-.36 1.05-.96.63-.6.81-.6.36 0 0 .54l-.12.12q-.36.36-.36.57 0 .21-.09.21t-.3.51q-.21.51-.27.63l.3-.06q.54-.24 2.94-1.38 2.16-1.08 2.49-1.44.33-.36.39-2.28 0-2.04-.36-1.5-.12.12-.63.48t-.87.69q-.36.33-.72.63t-1.08.72q-1.62 1.32-3.24 1.5-.42.06-.36-.12.06-.3-.12-.39-.18-.09 0-.27.18-.18.06-.3-.24-.06-.18-.21t.3-.15q.24 0 .24-.12t.42-.57q.42-.45.42-.27 0 .12.15.12t.48-.12q.33-.12.51-.24.42-.24.57-.24.15 0 .15-.15t.6-.51q.6-.36.6-.45 0-.09.18-.09t.48-.3q.3-.3.81-.66.51-.36.99-.75t.6-.39q.48 0 .54-3.12.12-2.46.3-3.72.18-1.26.21-3.75t-.18-2.49q-.21 0-.33-.21-.12-.21-.6-.42t-.78-.21q-.3 0-.36-.18t.12-.18q.18 0 0-.18-.18-.24-.12-.36t.36-.18q.42-.18.42-.33 0-.15.3-.15t.84-.6q.54-.6 1.02-.6t.6-.12zm3.6 11.34q-.06-.18-.18-.18l-.06.12q0 .12.18.24.06.06.12-.06 0-.06-.06-.12zm-.06 1.38q0-.18-.42 0-.12.24-.12.48.06 0 .3-.21t.24-.27zm-23.58 6.51q.06-2.37-.12-2.85t-.42-.48q-.12 0-.6.63t-.48.81q0 .18-.06.18-.12 0-.18.3t.12.36q.06.06-.12.3t-.15 2.88q.03 2.64.09 2.7.06.12.36 0t.42-.3q.06-.12.54-.3.42-.12.48-.3t.06-.78q0-.78.06-3.15zM83.9 44.9q.06-.42.15-3.99.09-3.57 0-3.57t-.18.27q-.09.27-.39.57-.66.72-.84 1.62l-.36 2.04q-.24 1.38-.12 2.46.06 1.8.24 1.92.06.12.75-.39t.75-.93zm-3.12-6.66q-.24-.42-.72.24-.24.42-.75 1.56-.51 1.14-.51 1.26 0 .48.36-.06l.06-.12q.3-.42.84-1.02.42-.48.66-1.05.24-.57.06-.81zm29.07.57q.15-.09.15-.18t-.15-.09q-.15 0-.15.18t.15.09zm-29.79 4.71v-.96l-.24.36q-.36.72-.72.24-.06-.18-.36-.18-.36 0-.48.69t-.12 3.39v3l.9-.72q1.38-1.32 1.02-1.56-.06-.06-.09-1.56t.09-2.7zm5.58 6l2.4-2.46-.18-1.26q-.06-1.26-.24-1.2-.3.24-.99 1.14-.69.9-.69 1.02 0 .18-.33.39-.33.21-.33.54 0 .33-.18.33t-.6.57q-.42.57-.51.66-.09.09-.45.6t-.54.72q-.18.21-.45.66-.27.45-.39.45t-.03.15q.09.15.57.15.3 0 .81-.45t2.13-2.01zm-3.24.12l1.44-1.98q.12-.18.12-.3h-.12l-.18.18q-.24.18-1.08.9-2.22 1.8-3.06 3-.54.78-.96 1.17-.42.39-.36.87.06.66.18.66.3 0 .54-.99.24-.99.48-1.05.12 0 .15.12t.03.72v.78q.06-.06.69-.99.63-.93.45-1.11-.18-.24-.15-.3t.33-.06q.24.06.51-.24t.99-1.38zm.42-1.56q.18-.12.09-.18t-.33.06q-.24.18-.18.24t.42-.12zm5.16 5.04v-2.64q0-2.64-.12-2.64l-.12.18q-.06.36-.21.36t-.15.21q0 .21-.18.39-.72.78-.72 1.38 0 .36-.12.36t-.27.42q-.15.42.03.54.12.12.06.6-.06.36-.03.48t.33.18q.54.18.96.18h.54zm-6-.24q.3-.48.18-.48-.3 0-.45.15-.15.15-.45.57-.18.48.3.12.18-.12.42-.36zm66.9-18.54l-.12-.06.06-.24q.06.12.06.3zm-1.8 24.78q.06-.18.36-.18.18 0 .18.03t-.12.15q-.36.12-.42.06t0-.06zm-3.12-7.56q-.06-.06 0-.09t.18-.03q.3 0 .06.18-.18.06-.24-.06zm28.8-7.68q.06-.18.09-.24t.09 0q.12.06-.12.3-.06.12-.09.12t.03-.18zm-7.77-10.98q-.15 0-.15-.15t.15-.15q.15 0 .15.15t-.15.15zm.27-.6q-.24 0-.15-.24t.21-.18q.18.12.15.27-.03.15-.21.15zm-6.66-.6l.96-1.2q.42-.48.42-.36l-.06.24q-.12.24.06.15t.18.12q0 .21-.15.3t-.06.39q.09.3-.24.63-.33.33-.75 1.23-.42.9-.54.99-.12.09-.15.48t-.15.45q-.12.06-.12.21t-.33.78q-.33.63-.36 1.26-.03.63-.24.84-.21.21-.15.63l.18.54-.48-.12q-.54-.06-.48.06.06.18-.15.39-.21.21-.21.45 0 .24-.42.57-.42.33-.6.21-.18-.12-.27.15-.09.27-.48.27t-.66-.75q-.27-.75-.09-.81.18-.06.03-.45t.33-.99q.66-.78.6-1.32 0-.18.18-.3t.18-.3q0-.18.18-.9.78-1.56.96-2.28.06-.36.36-.84.66-.84.72.48v.18q.06.84.12.78.06 0 .12-.3.12-.3.51-.66.39-.36 1.05-1.2zm10.2-2.46q-.12-.3-.06-.33.06-.03.42-.03.72 0 1.92 1.02.42.3.96.42.84.18 1.86.6.24.12 1.08.39.84.27 1.05.45.21.18.69.36.72.3.99.48t.27.36q0 .3.54.96.42.42.48.78.06.36-.24.96-.18.3-.21.57-.03.27-.45.27-.42 0-.6.21t-.78.63q-.42.24-1.14.93-.72.69-.72.81 0 .12-.48.87t-.6.87q-.18.06-.84 1.47-.66 1.41-.6 1.59 0 .24-.15.42t0 .18q.15 0 .21-.18t.21-.09q.15.09-.09.36t-.3.15q-.06 0-.12.06t-.15.18q-.09.12-.21.24-.36.54-.57.54-.21 0-.21.18t-.66.81q-.66.63-.78.63-.06 0-.09.03t.03.09q.06.18-.21.27-.27.09-.72.54-.45.45-.81.51-.36.06-.36.33t-.15.54q-.15.27-.24.99t-.24.72q-.15 0-.09-.48t0-.42q-.06 0-.36.9-.18.66-.3.78t-.48.24q-.66.06-.78.3-.06.12-1.26.75t-2.16 1.05q-.54.18-.54.3t-.57.45q-.57.33-.9.63-.33.3-1.26.75-.93.45-1.23.75-.3.3-.36.24t.15-.27q.21-.21.51-.45.3-.24.66-.54.48-.36.48-.48 0-.06-.39.12t-.87.48q-.48.3-.72.42l-.24.12q.12-.18.72-.78.72-.66.54-.66-.12 0-.42.24-.48.42-.63.42-.15 0-.51.42-.42.3-.6.36t-.6 0q-.42 0-.54.18-.12.18-.24-.03t-.6.15q-.48.36-.57.12-.09-.24-.18 0t-.24.24q-.15 0 .12-.33t.15-.33q-.06 0-.72.36-.66.36-.75.45-.09.09-.45.24t-.42 0q-.06-.15-.66.15-.3.18-.66.33-.36.15-.57.15-.21 0-.27-.12 0-.12.24-.21t.24.06.24.06q.24-.09.15-.3t.27-.21q.24 0 1.05-.45t.81-.63q0-.06-.84.48-.42.36-.6.12-.18-.36-1.02.42-.24.18-.93.69-.69.51-.57.63.06.18-.06.21t-.48.03q-.66 0-.81.33-.15.33-1.17.75-1.26.72-1.98 1.2-.42.24-.42.18-.12-.06.78-.72l1.26-1.08q.48-.48.63-.48.15 0 .03-.15t.06-.15q.72 0 6.18-5.22 1.32-1.2 1.59-1.2t.54-.27q.27-.27 1.29-1.14 1.02-.87 1.2-.99l1.14-1.02q3.18-2.82 3.06-3.12 0-.12.9-1.05t1.05-.9q.15.03.51-.3.36-.33.36-.51t.54-.78q.54-.6.48-.72-.06-.12.15-.12t.39-.45q.18-.45.66-.99.48-.54.6-.9.06-.24.33-.75t.51-.69q.18-.18.54-.81.36-.63.36-.81 0-.24.21-.42t.51-.6q.3-.42.48-.78.18-.36.12-.36-.12 0-.42.3-.24.18-.18.06.06-.18.36-.66.42-.9.84-1.5.36-.6.39-.75.03-.15-.27-.48-.3-.33-.24-.45.06-.18-.18-.6t-.39-.42q-.15 0-.15-.24t.36-.24q.18.06.18.03v-.27zM155.3 56q.18-.06.18-.15t-.18-.09q-.18 0-.18.15t.18.09zm-3.3.18q0-.3-.6.24-.24.24-.18.24l.48-.18q.3-.12.3-.3zm1.56 0q0-.18-.3.12-.06 0-.12.12l-.48.36.48-.24q.42-.18.42-.36zm13.92-29.1q.18-.18.24.18v.66q-.06.6-.24.6-.12 0-.12-.66t.12-.78zm3.54-2.76q.12-.24 1.71-.18 1.59.06 2.37.36 1.02.3 1.32.3.78 0 1.62.21.84.21 1.14.51.24.18.42.18.24 0 .45.39.21.39.15.75-.18.42-.09.75t-.24.66q-.33.33-.75.33-.48 0-.54.15-.06.15-.78-.06t-.84-.09q-.3.24-3.54-1.92-1.86-1.26-3.18-1.26-.24 0-.36-.3 0-.18.24-.39.24-.21.54-.21.3 0 .36-.18zm-25.35-6.78q.39 0 .45-.12t.6-.03q.54.09.72.27.24.18.45-.15.21-.33.54-.12.33.21.69.09.36-.12.81.15.45.27.81.09.36-.18.6.06t.72.27q.48.03.66.24.18.21.36.21t.39.33q.21.33.27.63.06.24-.12.84t-.54 1.05q-.36.45-.48.33l-.06.3q.12.36-.06.36t-.42.36q-.54.96-.84 1.08l-.24.72q-.24.78-.12.9l.06-.12q0-.18.27-.18t.06.15q-.21.15 0 .15t.33-.42q.06-.36-.06-.48-.06-.12-.06.12-.12.18-.24.18t.06-.33q.18-.33.39-.33.21 0 .12-.21t.06-.21q.15 0 .21-.3 0-.18.03-.18t.09.18q.12.24-.12.72t-.36 1.2q-.3 1.44-.48 1.44 0-.18-.15.15-.15.33-.33.27-.12-.06-.12.06 0 .06.06.12.06.18 0 .27-.06.09-.18.09-.24-.06-.27.3-.03.36-.21.48t-.3.66l-.12.54.54-.36q.54-.36.6-.75.06-.39.21-.39t.15.06q0 .06-.15.51t-.06.48q.09.03.63-.27 1.14-.48.3-.96-1.02-.66.48-.9 1.86-.36 3.9.3 2.04.66 2.04 1.08 0 .18-.33.48t-.51.3q-.24.06-.24.18t-.48.66q-2.1 2.34-3.3 6.12l-.6 1.5q-.06.24-.12.6t-.15.45q-.09.09-.15.66-.06.57-.24.69t-.03.12q.15 0-.06.27t-.12.45q.09.18-.21.54-.3.36-.3.69 0 .33-.48 1.17-.48.84-.48.9h.24q.24 0 .57-.12.33-.12.63-.24.3-.18.99-.9t.69-.9q0-.12.57-.48t.66-.15q.09.21.54-.21.45-.42.51-.42l-.03.3q-.03.3-.06.63t-.09.39q-.12.18-.21.63t-.39 1.35q-.12.42-.18.72t-.06.48q0 .18.06.27.06.09.18.09.24 0 .21.78t-.24.9q-.21.12-.27.42-.06.24-.15.3t-.63-.06q-.18 0-.27.03-.09.03-.09.09.06.24-.18.45-.24.21-1.44.09-1.68-.24-2.46-.54l-.66-.3-.84.84q-.84.78-1.02.78-.18 0-.78.54-1.38 1.5-1.8 1.2-.18-.12-.54.06-.36.18-.36.36t-.03.24q-.03.06-.15 0-.12-.12-.12.18 0 .12-.27.42t-.6.54q-.33.24-.33.06-.06-.18-.54.3-1.68 1.62-1.86 1.5 0-.06.18-.27l1.05-1.23q.87-1.02.99-1.08.12-.06.12-.21t.18-.33q.48-.48 1.11-1.38.63-.9.63-1.02t.3-.42q.3-.3.3-.63t.3-.69q.3-.36.3-.66 0-.3-1.05-1.11t-1.38-1.17q-.33-.36-.63-.45-.3-.09-.3-.21t-.3-.21q-.3-.09-.9-.36-.6-.27-.72-.09-.12.3-1.44-.84-.54-.42-.3-.63.24-.21 0-.63-.24-.42 0-1.08.18-.48.69-1.05.51-.57.81-.57.12 0 .6-.57t.36-.63q-.06-.12-1.08.39t-1.11.66q-.09.15-.42.15-.33 0-.39.06-.06.24-1.08.18-.3 0-.51-.39-.21-.39.03-.87.18-.48.27-.57.09-.09.24-.48t.75-.78q.6-.39.72-.57.24-.24.24 0 0 .18-.18.42-.3.48-.06.48t.45-.33q.21-.33.45-.27.24.06.6-.3t.54-.36q.18 0 .6-.39t1.08-.63q.42-.24.54-.48.12-.24.12-.72-.06-.3.09-.3t.33-.72q.18-.72.24-1.44.06-.78.15-.9t.09-.72q0-1.08.78-3.9.3-.9.24-2.46-.06-.66-.33-.75-.27-.09-.39-.21t-.45-.3q-.33-.18-.45-.18-.18 0-.78-.48-.3-.42-.36-.57-.06-.15.12-.33.18-.12.66-.12.48 0 1.11-.36.63-.36.69-.72.18-.36.84-.24.06.06.21-.15t.54-.21zm6.09 4.5q.06-.18.06-.3v-.18q0-.06-.06-.06t-.06.24q0 .24-.15.24t-.09.15q.06.15-.15.36t-.09.3q.12.09.27-.12.15-.21.27-.63zm-.42 4.08q.06-.24 0-.36-.12.06-.18.24-.06.24 0 .3l.18-.18zm-.42 5.94q.12-.18.21-.45t.03-.27q0 .06-.96.54-.96.48-1.02.54-.06.12-.51.33-.45.21-.45.36t.18.06.18.06q0 .15.15.09t.15.09q0 .15-.39.09t-.39.06q0 .12-.12.42 0 .12.06.12.18-.06.39.09.21.15-.09.33-.42.54-.12.54l.18-.06q.3-.18.36-.18.12 0 .12.24t-.12.69q-.12.45-.3.93-.24.78-.39 1.02-.15.24-.33.18-.24-.06-.99.75t-1.05.96q-.3.15-.09.24t-.03.09q-.24 0-.42.24t-.06.42q.12.18.84.42l.42.18-.06-.06q-.3-.24-.18-.24t.39.18q.27.18.51.39.24.21.18.21-.06.12-.3-.09t-.24-.09q0 .12.3.36.18.12.42.03t.24-.45q0-.24.3-.84.54-1.32.96-3.12 0-.48.15-.48t.15-.36q0-.3.69-2.19t1.05-2.37zm-3.12 3.24q.3-.96.24-.96-.06.06-.54 1.44-.48 1.5-.66 1.68-.24.48-.06.48.3 0 1.02-2.64zm-3.18 15.78q.18 0 .18-.15t-.06-.15q-.06 0-.18.15t.06.15zm20.64-33.72q3.6-.42 4.08.12.12.24.3.3.84.24.84 1.26 0 .54-.15.54t-.15.27q0 .27-.33.27t-.93.42q-1.08.84-1.02 2.46.06.54-.06.54t-.06 1.56q.06 1.56-.12 1.56t-.09-.21q.09-.21-.06-.42t-.33-.09q-.12.12-.12 1.26 0 1.14-.3 1.98-.3.84-.42 1.5t-.27.66q-.15 0-.09-.27t.18-1.59l.06-1.32-.24.72q-.18.66-.18 1.2 0 1.62-.42 1.62-.24 0-.24-.42-.06-.18-.12-.18-.06.18-.03.3t-.18.33q-.21.21-.39 1.35l-.3.96q-.18-.42-.6 0-.3.3-.18.36 0 .06.12 0t.12.18q0 .42-.18 1.56-.12.42-.3.48-.12-.12-.12-.18 0-.18-.18-.18-.3 0-.3 1.14 0 .36-.06.51-.06.15-.15.09t-.18.12q-.09.18-.15.54l-.18.54-.06-.06q-.12-.6-.6.6l-.42.78-.18-1.32q-.12-1.38.03-2.37.15-.99.03-1.92-.12-.93-.06-3.81.24-7.32-.24-9.06-.12-.48-.18-.57-.06-.09-.24.03-.3.06-.99.09t-.99-.09q-.36 0-.3-.42.12-.42.3-.6t.9-.54q.6-.36 1.02-.72.42-.36.57-.36.15 0 .39-.36.24-.36.42-.18.06.12.3-.06t.24-.3q0-.12.72 0t.84-.09q.12-.21 1.98-.51zm49.92 35.22q-.18 0-.06-.18t.18-.18q.06 0 .06.18t-.18.18zm-4.56-1.56q0-.24.18-.24t.48.18q.3.18.27 1.02-.03.84-.27 1.08-.36.54.66.12.48-.24 1.38-.6 1.92-1.02 2.07-.93.15.09-.15.27-.78.36-1.2.9.18 0 .36-.12.42-.18.42-.12.06.06-.36.3-.06.12-.18.24-.72.42-.72.66.06.12.12.18.12-.12.12-.27 0-.15.24-.15t.3-.15q.06-.15.15.03t-.66.81q-.75.63-1.05.93-1.02 1.14-1.02 1.38 0 .12-.81.9t-1.41 1.26q-.78.54-.48.6.18.06-.06.06-.06.06-.18.06-.24 0-.3.06l-.06.06q.12.24-.06.36t-.18-.06q0-.18-.18-.18t-.06.24q.06.12-.18.27-.24.15-.42.15-.12-.06-.15 0t.03.12q.06.06-.03.12t-.21.06q-.3 0-.3.12 0 .3-.6.6t-1.32.48q-.48.06-.51.33-.03.27-.15-.03-.12-.3-.42-.54-.3-.24-.21-1.08.09-.84.33-1.32.42-.96 0-.96-.24 0-.06-.33t.42-.33q.24 0 .36-.18.06-.06-.06-.06-.06-.06-.18 0-.36.06-.51-.06-.15-.12-.06-.42t.51-.72q.42-.42.66-.54.36-.06.36-.21t.51-.33q.51-.18.51-.3t.66-.12q.48 0 .72-.15t.9-.75q1.38-1.5 1.38-1.74 0-.18.24-.33.24-.15.15-.3t.09-.15q.18 0 .18-.18zm-5.7 6.18q0-.18-.33-.18t-.15.12q.18.12.3.12h.15q.03 0 .03-.06zm-6.36-6.54q-.12.12-.12-.03t.12-.15q.12 0 .12.03t-.12.15zm17.28-1.98q-.24 0-.15-.15t.33-.15q.24 0 .15.15t-.33.15zm5.04-.24q.3.24.33 0 .03-.24.24-.12t1.47.96q1.26.84 2.52 1.38.78.42 1.17.51.39.09 1.35.15 1.2 0 1.8.21.6.21 1.5 1.05.66.6 1.44.96 1.26.66 1.98 1.8.3.72.39.78.09.06.63 1.02.36.72.36.87 0 .15-.12.39-.36.12-.54.6-.24.48-.45.54-.21.06-.99.18-.66.12-.84.3-.24.12-1.44.06t-1.32-.24q-.18-.18-.54-.18-.72 0-1.14-.48-.06-.18-.42-.06-.72.24-.72-.24 0-.42-1.02-.12-.54.12-.9 0-.24-.12-.24-.18t.12-.18q.3-.12-.06-.12-.12-.06-.36-.06-.66 0-.81.15-.15.15-.15 0t-.24-.15q-.24 0-.24.12t-.06.09q-.06-.03-.51.15t-.75.18q-.6 0-2.28.48-1.68.48-2.34.9-.24.12-.54.12-.3 0-.39.18-.09.18-.36.18t-1.17.42q-1.44.72-1.38.42 0-.06.24-.18.3-.18.3-.24.24-.3 1.86-1.02 1.86-.96 2.58-1.38.72-.42 1.32-1.02.96-.84 1.77-1.53.81-.69.99-.87.18-.18-.57-1.35-.75-1.17-.87-1.23l-.6-.78q-1.38-1.8-1.08-2.22.18-.18.36-.18.12.06.18.03t.06-.21q0-.18.06-.24t.18-.06q.06.06.09 0t-.03-.3v-.27q0-.03.18.03zM224.3 47q.36-.24.48-.15t-.3.39q-.42.3-.48.12-.06-.06.3-.36zm1.68-.12q-.18-.12-.12-.3t.27.03q.21.21.12.3t-.27-.03zm5.28-5.97q0-.09-.09-.33-.09-.24.06-.24t.21.24q.06.24 0 .3-.18.12-.18.03zm-.72-.39q.24-.3.3-.12.06.06 0 .18-.12.24-.3.45-.18.21-.24.21t-.03-.09q.03-.09.09-.3t.18-.33zm.75-1.08q-.15 0-.15-.15t.15-.15q.15 0 .15.15t-.15.15zm-7.83-22.38l.66-.18q.12-.06.36.3.36.36-.18.6-.12.06.06.06.06.06.3.12.6.12 1.2.36t.78.87q.18.63.42.63.42 0 .45.27.03.27-.33.57-.3.3-.27.63.03.33-.09.33t-.36.51q-.24.51-.45.45-.21-.06-.39.57-.18.63-.3.9t-.48 1.41q-.36 1.14-.45 1.26-.09.12-.09.42t-.36.6q-.3.18-.06.24h.9q1.74 0 3.96.3 2.22.3 3.06.6.3.12.9.33.6.21.96.33l.66.3q.3.06 1.44.66.84.42 1.26.78.42.36.72.96.18.48.21 1.17t-.15.81q-.18.06-.18.36 0 .18-.42.6t-1.08.72q-.3.24-.99.24t-1.23-.18q-.12-.12-.42.15t-1.2 1.29q-.9 1.02-.78 1.2v.12q-.06-.06-.15.06t-.27.33q-.18.21-.36.45-.48.96-.66 1.02-.18.06-.12.36t.24.36q.18.06.39 0 .21-.06.21-.18t.18-.12q.18 0 .18.12 0 .42.36.18l.24-.24q.06-.3.12-.3t.3.18q.3.24.3.54 0 .18.03.18t.15-.18l.06-.18q.06.18.54.39.48.21.57 0 .09-.21.27.06.18.27.39.27.21 0 .45.27.24.27.72.21.48-.06 1.17.24t.75.3q.24 0 .6.36t.36.54q0 .24.12.33.12.09.33.66.21.57.21.87 0 .18-.15.18t-.42.6q-.27.6-.45.6t-.18.12q0 .12-.42.36t-.51.36q-.09.12-1.71.12-1.62 0-1.83-.12-.21-.12-.84-.12t-1.47-.66q-.84-.66-1.17-.54-.33.12-.51-.3-.12-.24-.27-.3-.15-.06-.99 0-1.14 0-2.16.15-1.02.15-1.44.24-.42.09-.6.24t-.48.15q-.3 0-.39.12-.09.12-.39.06-.24-.06-.6.03t-.66.21q-.3.12-.24.24.12.3-.09.3t-.09-.18q0-.12-.03-.15t-.15-.03q-.48 0-.12-.3.12-.06.3-.18.12 0 .24-.12.06 0-.03-.03t-.27.03q-.42.06-.6.9 0 .24-.18.3t-.12-.18q.06-.24-.06-.24t-.03-.15q.09-.15 0-.39-.09-.24-.54 0-.45.24-.6.51-.15.27-.15.03 0-.24-.3.09-.3.33-.48.33-.24 0-.27-.12-.03-.12.15-.18l-.6-.06q-.78.06-.93.21-.15.15-.48.15-.33 0-1.38.42-1.05.42-1.71.66-1.56.48-1.5.72.3 0-.06.48-.18.12-.3.18h-.09q-.03 0-.03-.06.18-.24-.3-.06h-.12q-.3.12-.3.36t-.39.3q-.39.06-.99.42l-.6.12q.06-.06 0-.06h-.18q-.36.06-.36.3t-.36.51q-.36.27-.48.06-.12-.21-.45 0t-.33.27q0 .3-.84.81t-1.32.51q-.48 0-.54.3-.06.18-.15.27-.09.09-.15.06t-.12-.21q-.06-.18-1.02.75-.96.93-1.05.84-.09-.09-.87.3t-.78.27q0-.12-.21.09t-.69.21q-.72 0-1.11-.81-.39-.81-.27-2.01.06-.36.09-.63t.99-1.56q.96-1.29 1.5-1.71.3-.3.51-.39.21-.09.69.03.48.06 1.32-.12.84-.18 1.08-.42.18-.12.27-.15.09-.03.51-.27l.3-.36-.24-.36q-.9-1.26-1.44-3.36l-.3-1.38q-.24-.84-.18-4.2.06-3.36.3-4.2.48-2.16 1.08-3.42.6-1.26 1.86-2.7.36-.36.87-.66.51-.3.69-.12.18.18-.06.72t-.48.54q-.18 0-.66.6-.78 1.14-1.38 4.62-.24 1.92.78 7.32.42 2.16.78 2.34.24.12.36.66.24 1.44.48 1.44.18 0 .18-.18 0-.12.66-.54.66-.42.72-.36.06.06-.36.72-.66 1.02-.18 1.02.06 0 .3-.06.6-.06.72-.21t.48-.15q.36 0 .36-.12t.42-.18q.42-.06 2.25-.72 1.83-.66 1.95-.78.18-.06.42-1.08l.78-1.86q.72-1.92.42-1.98-.12.18-.72.3-1.08.36-1.08 1.14 0 .54-.15.63-.15.09-.15.45t-.3.6q-.18.12-.24-.06-.06-.12-.21-.18t-.3-.03q-.15.03-.15.15 0 .18-.3.18t-.3.15q0 .15.18.15.24 0-.06.78-.12.24-.18.48t-.27.09q-.21-.15-.48-.15t-.81-.66l-.6-.6-.6.3q-.6.3-1.14.3-.3 0-.39-.09-.09-.09-.09-.33 0-.54-.24-.78-.24-.18-.21-.36t.27-.18q.36-.12.36-.48t.33-.66q.33-.3.21-.48-.36-.54.24-.66.36-.12.3-.36-.06-.12.24-.33.3-.21.6-.21.24 0 .18-.78 0-.96-.15-1.2t-.63-.18q-.48 0-1.02-.48-.42-.48-.42-.75t.3-.93q.3-.48.6-.66.3-.18.9-.18h.54l-.06-.72q0-.9-.06-2.7-.12-1.38-.18-1.68-.06-.3-.3-.54-.42-.3-.54-.3-.24 0-.36-.42t0-.84q.18-.54.09-.63-.09-.09.27-.36t.36-.48q0-.21 1.26-.21t1.26.12q0 .3 1.86.66.48.06.72.15t.36.15q.12.06.09.15t-.09.15q-.12.24 0 .54.42.9.18 1.02-.12.06-.15.96-.03.9-.15 1.62-.06.18-.06.36v.3q.12 0 1.08-.45.96-.45 1.05-.45.09 0 .87-.24.6-.06.69-.18.09-.12.09-.42 0-.54.6-3.72.36-1.98.27-2.76-.09-.78-.69-.9-.42-.06-.42-.18t-.9-.39q-.9-.27-.9-.36 0-.09.66-.93 1.14-1.5 1.68-1.5.18 0 .48-.48.24-.42.57-.51.33-.09 2.01-.09 1.26-.06 1.35-.18.09-.12.75-.3zm.54 14.22q-.12-.24-.36-.18t-.24.24q0 .24.24.18t.36-.06q.12 0 0-.18zm1.38.3q-.9-.24-.96-.12l.3.24q.06.06.18.12 1.02.42.48.84-.3.24-.18.24h.18q.24 0 .15.42t-.18.54q-.09.12-.21 0-.06-.06-.09 0t-.03.15-.03.15q-.03.06-.09 0-.12 0-.18.06t0 .24q0 .24-.78.66-1.68.84-2.16 1.26-.24.3-.39.21-.15-.09-.51.51t-.48.6q-.12 0-.72 1.32-.18.42-.42.42t-.3.3q-.06.3-.84 1.02t-1.2 1.29q-.42.57-.48.63-.24.24-.54.63-.3.39-.3.51t.33.15q.33.03.84-.03t1.05-.18q.6-.12 1.47-.3t1.17-.3q.36-.12 2.28-.54.42-.06.12-.78-.06-.24-.36-1.14-.18-.9-.06-.96.3 0 .33-.27.03-.27-.21-.39-.18-.06-.06-.15t.36.06q.24.15.24-.03 0-.12.06-.78 0-.42.06-.51.06-.09.42-.09.54 0 .63-.24.09-.24-.33-.6-.3-.36-.24-.36l.18.06q.3.12.54.24.18.12.36-.36.12-.42.6-1.56.84-2.52.72-2.76-.12-.18-.72-.42zm-7.92 1.56q0-.84-.12-.84-.3 0-.9.42-.6.42-.96.84-.72.66-1.02.9-.3.24-.3.66-.06 1.44-.27 1.53-.21.09-.15.24t.24.15q.3 0 .63-.21t.99-.57l1.08-.6q.78-.42.78-2.52zm66.06-15.78q.18-.3.9-.06.42.12.78.06.36-.06.36.03t.21-.03q.21-.12.42 0t.27.03q.06-.09.36-.03l1.08.3q.66.18.84.27.18.09.54.09.36 0 .78.15.42.15.48.09.18-.12 1.11.27.93.39 1.35.75 1.2 1.02 1.32 1.38.06.3.15.36t.09.48q0 .42-.54 1.14t-1.26 1.32q-.72.6-.84.93-.12.33-.27.33-.15 0-.15.21t-.21.21h-.3q-.09 0-.03-.3v-.36l-.3.36q-.36.36-.36.48t-.15.18q-.15.06-.21.39t-.18.33q-.12 0-.06.18t-.3.6-.3.6q.06.18-.09.3t0 .12q.15 0-.03.21t-.12.21q.06 0 0 .12t-.12.18q-.06.6-.24.9-.12.24.03.42t-.09.39q-.24.21-.12.21t0 .06q-.12.06-.12.54.06 1.38-.18 1.74-.06.06-.09 2.07t-.09 2.52q-.06.51.15.51t.21.27q0 .27.24.33l.06.12q-.18.06-.06.18.3 0 .3.96 0 .18.06.87t.06 1.11q.12 1.14.72 2.82.06.24.12.42t.09.3q.03.12-.03.12t-.12-.24q-.06-.24-.12-.06 0 .42.54 1.32.06-.06-.12-.48l-.06-.42q.12.06.24.36.12.36.21.36t.21-.45q.12-.45.36-1.23 1.02-3.18 1.26-4.2.78-2.7 1.8-6.06.66-1.98.66-2.04.12-.66.42-1.14.18-.18.18 0-.06.06-.12.3-.12.3-.18.6-.36 2.28-.42 2.4-.06.06 0 .42l.12.24.06-.18q.06-.24.12-.09t-.06.48q-.12.33-.12.72 0 .39-.09.45t-.09.24q0 .3.18.18.12-.12.12-.3.06-.42.48-1.92.06-.42.18-.36.18 0 .27-.12.09-.12.21-.54.24-.66.3-.66t-.18.78q-.06.24-.21 1.47t-.15 1.47q0 .3.12-.06t.24-.96q.12-.54.3-1.29t.36-1.26q.18-.51.24-.51.06.06-.12.78-.48 1.98-.42 3.54 0 .36.09.39.09.03.09.18t-.06.09l-.12.3.06.24.06-.06.12-.06q0 .12.06.6t.06.93q0 .45.06.45t.06.36q.06 1.44.24 1.44.12 0 .18-.24.12-.42.24.24.06.24.06.54.06.84.15.96t.09.63q0 .51.12.63t.12.3q0 .18.12.24t.12 1.26q.06 1.44.18 1.14 0-.06.06-.3.12-.66.18.12.06.3.06.84 0 1.14.12 1.26.18.12.18 1.92-.06.36 0 .45.06.09.21.03t.15-.03v.27q-.06.36.06.36t.09.18q-.03.18.09.3t.24-.06q.12-.18.12 0 0 .12-.06.24-.12.9.15 2.13t.69 1.23q.54 0 .12.78-.24.42-.18.78.12.66-.36.66-.66 0-1.26.78-.36.36-.84.42-.78.12-.78.48 0 .18-.42.12-.06 0-.06.24.06.54-.78.12-.3-.18-.66-.18-.36 0-.36-.09t-.12-.09q-.3 0 .12.24.06.06.12.06.24.12.18.3 0 .12-.06.18t-.12 0q-.6-.18-.6-.06t-.21.06q-.21-.06-.72-.06t-.51-.12q0-.12-.51-.33-.51-.21-.75-.39-.24-.18-.48-.18-.12.06-.15.03t0-.12q.03-.09.03-.12t-.12.03q-.12 0-.09.12t-.06.12q-.09 0-.09-.12t-.33-.06q-.33.06-.66-.33t-.48-.36q-.15.03-.15-.09 0-.3-.48-.18-.12 0-.45-.21t-.39-.33q-.06-.24-.27-.33-.21-.09-.21-.24t-.21-.33-.21-.33q0-.15-.06-.15-.6-.3-.6-1.02-.06-.36-.27-.78-.21-.42-.33-.42-.12 0-.12-.12t-.21-.39q-.21-.27-.21-.09 0 .18.12.42l-.06.06q-.3-.3-1.62-2.55t-1.32-2.49q0-.12-.09-.18t-.03-.18q.06-.12-.18-.48t-.27-.66q-.03-.3-.27-.78-.24-.48-.21-.75t-.09-.33q-.12-.06-.12-.3t-.06-.36q-.06-.06-.21-.69-.15-.63-.15-.81 0-.18-.12-.42-.18-.42-.36-2.4 0-.54-.12-1.23t-.18-2.13q-.06-1.44-.12-2.04-.12-1.86.03-4.44t.45-4.02q.24-1.02.33-1.5.09-.48.21-.75t.12-.63q0-.36.48-1.62.54-1.2.36-1.5-.12-.24-.78 0l-.72.12q.12-.06.72-.3.84-.36.96-.42l-.48.12-.12-.06q.06-.12 0-.12t-.48.18l-1.56.42q-1.5.48-3.6 1.5t-3.3 1.92q-1.56 1.14-4.5 4.14-2.7 2.76-3.72 4.11-1.02 1.35-2.1 3.51-.54 1.26-1.32 2.64-1.26 2.22-1.62 3.09-.36.87-.24 1.59.06.48-.06.57-.12.09 0 .21t.09.33q-.03.21.03.27.06.06.3 1.11t.48 1.32q.24.27.3.51t.66.48q.42.24.81.69.39.45.39.69 0 .48.36-.3.12-.12.18-.36.36-.78.84-1.68l.96-1.92q.54-1.02 1.14-2.04 1.02-1.86.84-1.98l-.3-.06q-.36-.06-1.35-.39-.99-.33-1.83-.45-.66-.12-.6-.18.24-.18-.12-.3-.24 0-.54-.27-.3-.27-.24-.42.06-.15.36-.09t.45-.09q.15-.15-.15-.27l-.3-.18q.06-.06 1.65.03 1.59.09 3.09.15l1.5.06.24-.48.36-.72 1.26-2.52 1.14-2.34-.24-.18q-.24-.24-.54-.36-.6-.24-.18-.42.12-.06-.06-.27-.18-.21-.18-.33 0-.12-.12-.24-.12-.24.24-.3.3 0 .36-.21t.24-.21q.18 0 .9-.54 2.28-1.8 2.58-1.92.24-.12.24-.24 0-.18.9-.18.54 0 .72.15.18.15.36.15.12 0 .24.18t.06.36q-.06.12.06.12.3 0-.24.66-.42.54-.72 1.08-.06.24-.45.87t-.6 1.11q-.21.48-.36.66-.15.18-.18.48t-.21.63q-.18.33-.12.33t-.12.3q-.24.3-1.32 2.52t-1.05 2.25q.03.03 1.53.51 4.08 1.38 4.74 2.58.18.36.24.9t.24.78q.3.3.12.54-.18.24-.54 0-.18-.12-.36.12-.06.06 0 .12l-.12.06q-.12-.06-.18.09t-.21.09q-.15-.06-.21.15t-.45.15q-.39-.06-.39.12.06.24 0 .3t-.24 0q-.3-.06-.42-.12-.18-.12-.45-.15t-.33.09q-.18.18-.3.12t-.36.12q-.24.18-.48.12t-.3.03q-.06.09-.36.09t-.42-.12q-.06-.12.12-.3.24-.24.48-.84t.12-.66q-.12-.18-1.11-.69-.99-.51-1.59-.69l-.66-.3-.3.42q-.24.36-.27.48-.03.12-.33.3-.78.48-2.16 2.34-.42.66-.81 1.08-.39.42-.57.75-.18.33-.45.63t-.66.9q-.39.6-.84 1.11-.45.51-.45.6 0 .09-.24.39l-.3.24-.12-.24q-.12-.18-.18-.15t-.3.33q-.3.48-.3.54 0 .06-.36.48-.54.66-.78.3-.06-.12-.54-.12-.48 0-.87-.36t-.57-.24q-.18.12-.24-.18 0-.18-.72-.9-.3-.36-.45-.39-.15-.03-.63-.03l-.66.06.06-.48q.06-.48-.18-.66-.12-.18-.18-.45t.06-.33q.18-.12.24-1.92.06-1.08.24-2.7.06-.6.06-.75 0-.15.12-.81.18-1.08.3-2.46.06-1.14.15-1.29.09-.15.15-.51.36-1.8.72-2.82l.42-1.44q.54-1.8.66-1.8t.18-.48q.06-.48.21-.54.15-.06.09-.18t.12-.18q.18-.06.09-.24t.12-.33q.21-.15.21-.45l.06-.24q.06.06.15-.03t.12-.21q.03-.12-.03-.18v-.09q0-.03.06.03.06 0 .15-.12t.15-.33q.06-.21.06-.33v-.09q0-.03.06.03t.09.03q.03-.03.03-.09-.06-.18.06-.45t.21-.27q.09 0 .27-.36.18-.6 1.08-1.68.9-1.08 1.38-1.32.24-.12.27-.12.03 0-.03.18-.12.24-.3.39-.18.15-.18.39 0 .24-.24.48-.48.54-.54 1.2-.06.48-.36.96-.78 1.38-.78 1.86 0 .18-.18.54-.24.36-.63 1.47-.39 1.11-.33 1.23v.12q-.12-.06-.18.12-.06.3.06.3l.06.12q-.06.24-.24.54-.12.24-.18.6t-.24 1.02q-.24.84-.18 3.78l.06 1.02.42-.9q.48-.9 1.08-1.89.6-.99 1.62-2.97 1.2-2.46 2.19-3.81t2.97-3.27q3.9-3.78 7.86-6 .72-.42 1.26-.81.54-.39.63-.39.09 0 .03-.12-.06-.06.48-.36t1.41-.69q.87-.39 1.71-.69 1.56-.6 1.77-.87.21-.27.33-.27.12 0 .45-.36t.33-.54q0-.24.12-.48zm-5.82 4.92q.12-.06.18-.12-.12 0-.42.12-.12.12-.12.18.12 0 .36-.18zm-.54.24l-.06-.06q-.12 0-1.5.72-2.76 1.38-4.62 3.18-.48.36-.45.42.03.06.75-.6 1.74-1.38 4.56-2.94 1.26-.72 1.32-.72zm18.24 12.9q.12 0 .18-.12t-.06-.12q-.12 0-.18.12t.06.12zm-.06.48q.06 0 .06-.09t-.12-.09q-.12 0-.06.09t.12.09zm-6.87 3.96q.03 0 .03-.12t-.09-.12q-.09 0-.03.12t.09.12zm.48 4.62q.09 0 .09-.18t-.12-.36q-.06-.18-.06-.06v.24q0 .36.09.36zm.09.42q.12.06.12-.06t-.12-.18q-.12-.06-.12.06t.12.18zm.42.54q-.12-.24-.12-.27 0-.03-.06-.03-.36 0 .06.36l.12.06v-.12zm-.21 14.1q.09 0 .09-.09t-.03-.09q-.03 0-.09.09t.03.09zm1.65.78q0-.06-.12-.27-.12-.21-.12-.09 0 .24.24.36zm43.2-17.19q.06.03 2.73-2.67 2.67-2.7 2.79-2.7.06 0-.15.3t-.51.69q-.3.39-.42.51-.18.18-.78 1.32-.6 1.14-.69 1.2-.09.06-.27.39-.18.33-.48.63-1.32 1.38-3.12 3.78-.96 1.26-.42 1.2.18-.06.48-.18.42-.3.54-.3.18 0 1.02-.42.84-.42 1.02-.6.24-.24.45-.18.21.06.27-.06.06-.12.45-.27.39-.15.39-.33 0-.18.36-.18.54-.06.9-.54.18-.24 1.17-.66.99-.42 1.17-.54.18-.12.3-.12t.12-.09q0-.09.54-.27l.54-.24-.3-.18q-.24-.24-.66-.54-.78-.6-.84-1.02-.06-.36-.48-.6-.6-.36-.75-.54-.15-.18-.03-.48l.12-.3.66.06h.6v-.06q-.18-.18-.09-.24t-.15-.18q-.54-.3.18-.24.66 0 1.8.3 1.14.24 1.71.42.57.18 1.41.36.96.24 2.64 1.02 1.68.78 1.92 1.08.12.12.33.15.21.03.33.3.12.27.33.27.21 0 .24.24t.18.24q.15 0 .09-.12v-.06q.12.12.12.21t.03.18q.03.09.21.06t.33.3q.15.33.33.54.18.21.18.33 0 .12.18.3.48.42.48.54 0 .06.24.3t.39.48q.15.24.39.33.24.09.18.21 0 .06.39.51t.51.45q.12 0 .12.27t.12.27q.12 0 .36.36t.24.57q0 .21.15.33.15.12.27.42l.36.96q.54 1.38.42 1.68 0 .18-.54.48t-.84.3q-.24 0-.3.24-.24.54-.84.42-.24 0-.24-.24 0-.12-.15-.06t-.27-.15q-.12-.21-1.11-.18-.99.03-1.05.18-.06.15-.21-.03t-.63-.21q-.48-.03-.72-.24t-.81-.12q-.57.09-.57-.03t-.9-.09q-.9.03-.9-.06t-.12-.09q-.12 0-.03.09t-.18.18q-.27.09-.45.09-.42-.12.18-.36.36-.12.18-.24-.66-.36-2.16.36-.72.3-.84.18-.12-.24-1.56.66-.6.36-.81.33-.21-.03-.54.18-.33.21-.39.21-.24 0 .18-.48.12-.12.24-.12.12-.06.72-.6.42-.42.3-.42-.24.06-.78.33t-.6.39q-.12.06-.81.54-.69.48-.75.48-.06 0 .36-.42t1.02-.93q.6-.51 1.02-.87.72-.54 2.43-2.22 1.71-1.68 1.86-2.01.15-.33-.03-.57l-.18-.24.3.18q.24.18.33-.03.09-.21-.69-1.05-.78-.84-.87-.84-.09 0 .15.36t.12.48q-.06.06-.15-.03t-.24-.3q-.15-.21-.39-.51-.66-.96-.81-1.02-.15-.06-.33.18v.18q.24-.12.24-.06 0 .18-.78.78-.18.12-.36.27-.18.15-.27.27l-.09.12q.06.06-.06.18t-.18.12q-.12-.06-.12.09t-.15.27q-.15.12-.09.24l-.03.03q-.03.03-.09.03-.24 0-.06.06t.42-.06q.24-.12.12.06l-.18.18q-.36.3-.48.24v.12q.06.18-.36.51t-.63.57q-.21.24-.33.24-.12 0-.12.12t-.24.33q-.24.21-.36.21-.18 0-.12.18 0 .18-.12.21t-.18-.09q-.06-.12.03-.12t.09-.12q0-.24-.3.24-.12.18-.18.3 0 .24-.12.36l-.06-.06q.06-.18-.12-.06l-.12.12q-.36.36-.39.3-.03-.06-.21.09t-.27.09q-.09-.06-.72.51-.63.57-.81.57-.18 0-1.32.9-.3.24-.51.24-.21 0-.42.21t-.39.21q-.18 0-.78.48-.6.48-.78.48-.18 0-.24.18t-.18.12q-.12-.06-.12.06t-.18.18q-.18.06-.42.27-.24.21-.18.27l-.12.06q-.24-.06-.42.15t-.3.21q-.12 0-.33.21-.21.21-.36.21t-.15.12q0 .12-.15.06t-.15.03q0 .09-.15.09t-.24.27q-.09.27-.33.39-.24.12-.36 0-.36-.36-.42.12 0 .24-.39.27-.39.03-.42.15-.03.12-.51.12-.3 0-.39-.06-.09-.06-.21-.36-.06-.18-.12-.27-.06-.09-.18-.03-.18.06-.3-.12t0-.33q.12-.15.12-.6 0-.45.12-.57.12-.12.06-.3t-.24-.03-.24-.03q-.06-.18-.18-.18-.18 0-.33-.21-.15-.21-.09-.39.06-.24-.03-.24t0-.39q.09-.39.57-.75.66-.42.36-.72-.12-.12.24-.51t.54-.39q.78 0 1.44-.9.24-.36 1.5-1.68 1.26-1.32 1.56-1.62.12-.12.66-.6t.63-.48q.09 0 1.71-1.59 1.62-1.59 1.68-1.56zm8.7.39q-.06-.06-.3.06l.12.06q.18-.06.18-.12zm5.94-13.44q0-.3.36-.12.12.12.12.24.12.66.6.3.3-.18.39-.15.09.03.15.33.12.3.45.48t.33.33q0 .15.12.15t.12-.15q0-.15.06 0t.18.09q.06-.06.06-.18t-.12-.12q-.24 0-.12-.24.12-.36.48.12l.12.24q.12.36.36.51.24.15.24.3t.15.27q.15.12.09.42t.24.42q.24.12.3.45t-.12.51q-.24.18-.42.18l-.24.12q-.12.06-.21.15t-.03.09l-.18.06q-.3 0-.42-.15t-.3-.15q-.18 0-.03-.09t-.57-.09q-.72 0-.99-.12t-.48-.06q-.21.06-.36-.09t-1.08-.15q-.93 0-1.11-.12-.18-.12-1.05.33-.87.45-.93.51-.06.06-.33.15t-1.26.81q-.99.72-1.17.72-.18 0-.48.3l-.36.24q.06-.12.54-.6 1.2-1.08.96-1.08-.12 0-.12.09t-.12.09q-.12 0 .75-.81t.81-1.05q-.06-.24 0-.24v-.06q-.12 0-.18.3l-.06.06q-.06-.18-.3-.06t-.24.24q0 .24-.24.3-.12.06-.12 0-.06-.12.12-.24l-.06-.06q-.18.06-.33.06-.15 0-.06.18t-.06.09q-.15-.09-.42-.03t-.15.18l-.36.24q-.9.48-1.26.48-.24 0-.24.12t-.18.06q-.18-.06-.33.09-.15.15-.21.09l-.06.12q0 .18-.27.15t-.39.09q-.42.42-1.02.66-.18.12-.24.36.12 0 .18-.12t.27-.12q.21 0 .54-.18.33-.18.39-.06.06 0-.03.09t-.21.15q-.12.06-.24.06-.18.06-.24.12-.12.24-.6.3-.12 0-.51.21t-.39.27q0 .06-.36.24t-.36.3q0 .12-.12.06-.06 0-.69.3-.63.3-.78.45-.15.15-.3.15t-.36.15q-.21.15-.21.27 0 .24-.84.66-.42.24-.54.51-.12.27-.27.27-.15 0-.15.12t-.21.12-.21.12q0 .12-.15.12t-.18.09q-.03.09-1.11.66-1.08.57-1.26.57-.12 0-.21.24t-.21.18q-.12-.06-.42.18t-1.02.57q-.72.33-.84.33t-.75.39q-.63.39-.81.39-.18 0-.39.15-.21.15-.81.36-.6.21-.96.57-.3.3-.45.33-.15.03-.57-.09-.36-.12-.78.12-.66.36-.78.06-.06-.12-.21-.12t-.36-.21q-.21-.21-.21-.33 0-.12-.12-.15t0-.27q.06-.18-.03-.69t-.21-.63q-.18-.12-.09-.48t.39-.72q.48-.48.42-.75t.09-.27q.15 0 .39-.24.24-.24.42-.18.12 0 .87-.3t.81-.42q.06-.12.69-.39.63-.27.81-.27.24 0 .12.12 0 .06-.12.18-.24.24-.06.24t.42-.09q.24-.09.87-.3t.84-.33q.21-.12.66-.24.45-.12.45-.21t.12-.09q.24 0 3.9-1.74 1.2-.6 1.26-.6.06 0 1.26-.6 3.3-1.5 5.58-2.28.78-.24.96-.3 1.14-.6 1.38-.48.06.06.06-.03t.93-.39q.93-.3 1.05-.39.12-.09 2.52-.81.78-.24.84-.33.06-.09.24-.09t.3-.24q.12-.24.42-.21t.3-.12q0-.15.24-.21t.42.03q.18.09.24-.12t.21-.15q.15.06.15-.12zm-2.94 1.8q0-.06-.12-.12-.06 0-.09.03t-.03.09q0 .12.09.12t.15-.12zm-1.14.18q.06-.12 0-.12-.06.06-.18.12v.12q.12 0 .18-.12zm7.98.6q.12 0 .12-.09t-.12-.09q-.12 0-.12.09t.12.09zM340.4 29.3q.06-.12.18-.12t0 .18q-.18.18-.24.06l.06-.12zm.66-7.86q.06.06.33-.18t.39-.06q.12.18.09.27-.03.09.24.24t.27.42q0 .27.15.33t.15.24q0 .18.84.12 1.26-.12 1.26.3 0 .12.42.24t.42.21q0 .09.12.03l.12.24q0 .24.3.3.18.06.24.12t0 .12q-.06.12.18.06t.3.09q.06.15-.12.33-.12.24-.24.78-.24.96-.72 1.38l-.78.72q-.42.36-.54.36-.12 0-.12.12t-.12.12q-.12 0-.3.18-.42.48-.42.12 0-.12.18-.12t.09-.09q-.09-.09.12-.24t.15-.21q-.06-.06-.3.18-.18.18-.42.33-.24.15-.39.24-.15.09-.15.03-.06-.06 0-.12 0-.06-.3.09t-.63.33q-.33.18-.42.27-.09.09-.18.09t.33-.36q.3-.24.66-.54.36-.3.57-.51.21-.21.15-.27-.06-.06-.48.33t-.6.39q-.18 0-.3.15t-.24.15q-.12 0-.18.18t-.3.12q-.24-.06-.42 0l-.42.24q-.24.12-.33.06-.09-.06-.99.15t-1.08.33q-1.08.72-1.38.72l.12-.12q.18-.12.03-.21t.09-.21q.24-.12.24-.18 0-.3-1.2.24-.54.24-1.02.36t-.6.24q-.12.12-.33.06-.21-.06-.81.42-.6.48-.72.48t-.48.3q-1.08.84-1.08.6.06-.18-.06-.18-.3 0 .66-1.02 1.2-1.26 1.2-1.56 0-.18-.3-.36-2.64-1.62-2.82-2.04-.12-.24-.48-.84t-.36-.72q0-.12.24-.15t.42.09q.18.12.18.09v-.21q-.12-.3.12-.24.18.06.78.42.66.42 1.02.42.54 0 2.19-.69t3.15-1.53q1.5-.78 1.56-.87.06-.09.27-.12.21-.03.27-.21l.3-.54q.18-.36.51-.54.33-.18.57-.06.18.12.33.15.15.03.24 0t.09-.09q0-.12.18-.21t.3-.09zm68.4 20.88q-.12 0-.12-.09t.12-.09q.12 0 .12.09t-.12.09zm.33-.15q-.09.09-.09-.03t.09-.12q.09 0 .09.03t-.09.12zm-3.78 7.32q.03-.09.18-.39l.15-.3v.66q-.06.66-.09.87-.03.21-.09.27-.12.12-.18 1.32 0 .42-.18.66-.12.12-.12-.06v-.6q.12-1.02.24-1.86.06-.48.09-.57zm-17.97-10.35q.24-.42.24-.12 0 .06-.06.24-.48.9-.48 1.56 0 .36.3.96.66 1.32.48 2.1-.24 1.38-.18 4.38.06.78.03.93-.03.15-.21.15-.24.06-.3.48-.06.36-.15.51-.09.15-.33.09-.24-.06-.33.06-.09.12-.39.12-.3 0-.3.09t-.27 0q-.27-.09-.39.09l-.06.06q0-.12-.24-.12t-.57-.54q-.33-.54-.57-.66-.18-.06-.21-.36t.15-.54q.12-.18-.09-.36t-.03-.57q.18-.39.12-.48-.06-.09.06-.15.12-.12.27-.51.15-.39.09-.51-.06-.18.06-.48.24-.48.15-1.38-.09-.9-.45-1.32-.24-.24-1.2-.24-1.26.06-1.44-.3-.12-.12-.09-.33.03-.21.15-.21t.27-.15q.15-.15.15-.21.06-.12.12-.06.06 0 .09-.06t.03-.12q0-.24.18-.18t.6-.06q.78-.3 2.1-.42t1.62.12q.24.12.3.06l.3-.66q.3-.6.48-.9zm-8.22-2.82q.18-.24.24-.18t-.24.36q-.24.24-.3.24-.06-.06.3-.42zm8.52-15.84q0-.36.54.06l.18.18q.24.3.48.36 1.08.24 2.04.24.42 0 .42.12 0 .06.3.18t.36.03q.06-.09.27.06.21.15.36.36t.12.3q-.03.09.06.18t.33.15q.36.18.48.42t-.12.36l-.06.06h.12q.3 0 .36.06l-.12.18q-.18.18-.06.24t.15.39q.03.33-.15.63-.66 1.32-1.44 2.1-.24.24-.36.57-.12.33-.21.33t-.15.18q-.06.18-.36.78l-.6 1.02q-.12.24-.27.42-.15.18-.24.27-.09.09-.15.03t.09-.21q.15-.15.36-.66t.51-.87q.36-.48.24-.66-.06-.06-.48.3-.24.24-.12.3t-.18.54q-.36.48-.42.42v-.18q.12-.3-.12.06-.18.3-.3.36v-.12l-.06.06q-.18.24-.24.48t-.48.84q-.6.96-.72 1.2-.06.12-.42.69t-.39.72q-.03.15-.12.24t-.24.42q-.15.33-.39.51-.24.18-.18.27.06.09-.3.48t-.36.45q.06.12-.15.39t-.27.27q-.12 0-.18.3t-.54.66q-.48.36-.42.42t-.18.18q-.24.12-.3.33-.06.21-.39.33-.33.12-.51.36-.48.6-1.8 1.8-1.32 1.2-1.5 1.2-.12 0-.3.24-.72.84-1.08.66-.06-.06 0-.18l-.36.12-.06.06q-.54.42-.9.6t-.57.36q-.21.18-.33.18-.12 0-.48.36t-.99.84q-.63.48-.78.36-.15-.12.03-.48.06-.3-.06-.24-.12 0-.12-.06-.06-.12.12-.18.06-.06.06-.27 0-.21.18-.21.24 0 1.23-1.47t2.07-3.45q.3-.54.48-.81t.24-.51q.06-.24.24-.36.06-.06.09-.03t-.03.15q-.06.24-.18.33-.12.09-.03.15t.3-.27q.21-.33.09-.48-.12-.15 0-.15t.12.12q0 .24.36-.36.24-.3.42-.66.3-.6.66-1.08.36-.48.54-.78.06-.24.06-.27 0-.03-.12.03-.18.06-.24-.06 0-.12.36-.54.36-.42.63-.96t.33-.54q.06 0 0-.09t.12-.18q.18-.09.24-.39.06-.3.36-.66.24-.42.81-1.41.57-.99.57-1.08 0-.09.27-.51.27-.42.27-.48t.24-.48q1.08-1.74.96-1.86 0-.06-.36-.24-.48-.3-1.26-1.11t-.9-1.11q-.12-.36-.06-.36l.24-.18q.18-.12.51.06t1.05 0q1.86-.3 1.86-.66 0-.18.24-.39.24-.21.42-.09.42.24.42-.3 0-.36.15-.51.15-.15.15-.27zm4.14 7.08l.12-.3q-.06 0-.18.15t-.12.27q0 .12-.21.24t-.21.24q0 .24.48-.42.06-.06.12-.18zM378.2 39.29q0 .09.12-.03t.06-.18q-.06-.06-.12.03t-.06.18zm-3.6 5.85l-.06-.06q-.06.12-.03.18t.09-.12zm30.54-28.2q.24-.06.24.06-.12.06-.03.21t.39-.03q.54-.3 1.02.12.18.24.06.24t-.18.18q0 .06.03.09t.15-.03q.24-.06.48 0t.24.42q0 .36.21.36t.36.15q.15.15 0 .3t-.09.27q.06.12-.12.48t-.36.48q-.18.18-.33 1.08-.15.9 0 .96.15.06.12.24t-.15.24q-.24.06-.24.27 0 .21.12.21.12-.06.12.06v.12l-.12.36q-.06-.06-.06-.12 0-.18-.09-.24t-.09.84q0 1.44.06 1.5.12.06.24-.3 0-.36.24-.18.06.06.27-.15.21-.21.72-.12t2.31.09q1.8 0 2.1.12l.24.12-.3.12q-.18.12-.18.24t.24.12q.3 0 .51.36.21.36.03.6-.12.18 0 .18.24 0 .3.18t-.06.3q-.18.12-.06.12.3.06.06.18h-.24q-.3.06-.78.27-.48.21-.66.21-.18 0-.24.12t-.54.18q-.48.06-.9.21-.42.15-.42.09t-.15.06q-.15.12-.36.15t-.81.27q-.9.24-.9.96 0 .3-.09.36t-.03.15q.06.09.12.03l.12.24q0 .18.15.39.15.21.36.33.21.12.27.06.06-.12.18.09t.3.15q.18-.06.09.06t.27.3l.24.24q-.06.06-.21-.09t-.21-.09l.03.06q.03.06.12.15l.15.15.3.18v-.09q0-.03.12-.03.12.06.12.27 0 .21.15.21t.27.24q.06.18.39.51t.63.57q.3.24.36.18l.06.06q0 .12.24.36t.3.18q.06 0 .09.03t.03.09q0 .18.36.54.54.48.54.36 0-.06-.06-.18-.18-.12-.12-.18t.18.15q.12.21.06.21t.12.21q.18.21.27.09.09-.12.15.06 0 .06.12.3.06.18.24.15t.21.21q.03.24.15.24t.6.45q.48.45.6.63.06.24.54.42.42.18.48.3 0 .06-.3 0l.06.06q.36.18.84.21t.57.12q.09.09.15-.09t.15-.18q.09 0 .09.18l.06.06q.06-.12.18-.06.36.24 1.86-.12.54-.06 1.02-.12.42.06.42.12-.18.18-.09.18t-.06.12q-.15.12-.45.72-.3.6-.78 1.02-1.2 1.08-1.2 1.56 0 .18-.12.18-.18 0-.24.15t.03.24q.09.09.09.51 0 .42.06.6t.03.24q-.03.06-.33.06l-.3.18q.06.12-.27.45t-.45.27q-.12-.06-.18.12.18.12-.03.27-.21.15-.21.27 0 .36-.66 0-.42-.24-.48-.12-.06.06-.3.06h-.45q-.21 0-.21-.06t-.39 0q-.39.06-.78-.33t-.66-.54q-.27-.15-.33-.36t-.36-.33q-.3-.12-.75-.72t-.93-1.14l-.54-.48-.42.24q-.36.3-.45.3-.09 0-.15.12l.6-.12.12-.06h.18q-.06.12-.42.3-.36.24-1.26.9l-1.2.84q-.24.18-.24.3v.09q0 .03-.06.03-.12-.06-.48.33t-.36.57q0 .3-.12.36t-.06.18q.24.36-.12 1.2-.12.24-.18.18l-.06.12q0 .24-.09.33-.09.09-.18.72t-.21 1.32q-.12.69-.12.96t-.06.33q-.06.06-.12.63-.06.57.06.39.06-.18.06.06-.06.06-.06.18-.06.48-.12.54-.06.06-.12.36-.06 1.32-.24 1.32-.12 0-.06-.36l-.06-.36q-.06 0-.12.18-.18.66-.24 1.32 0 .66-.36.9-.18.18-.36.78l-.36 1.2q-.54 1.56-.54 2.28 0 .3-.12.42l-.06-.54v-.36q.06-1.02-.03-.96-.09.06-.09.42l-.3 1.32q-.24-.24-.24-2.82-.06-1.56-.12-1.68-.06-.24-.12.12-.06.3-.06.78 0 .6-.12.96t-.15 1.14q-.03.78-.09.84l-.12-.72v-.3q0-.24-.09-.39-.09-.15-.09-2.25 0-5.7-.06-6.54-.06-.6-.15-.63-.09-.03-.81.39-.42.3-.96.6l-.96.54q-.48.24-.54.18-.06-.06-.27.15-.21.21-.3.18t-.48.12q-.39.15-.81.27l-.42.06-.24-.6q-.3-.6-.57-.66-.27-.06-.36-.24-.09-.18.06-.39.15-.21.33-.27.66-.18.54-.72-.06-.36.3-.63t.54-.33q.18-.06.12-.27-.06-.21.36-.36t.6-.45q.24-.36.24-.6 0-.12.42-.06.72.12 1.32-.42.18-.18.27-.03.09.15.9-.12t.84-.48q.03-.21-.09-4.17V39.8q0-.48-.03-.72t-.03-.42q0-.18-.03-.21t-.09-.03q-.18.06-.18-.03t.09-.09q.09 0 .09-1.38l-.06-1.14q-.12.42-.18-.12v-.18q-.06-.36.06-.36t.06-.12q-.06-.12-.18-.12t-.63.81q-.51.81-.93 1.59l-.9 1.68q-1.44 2.58-1.8 3.42-.18.48-2.82 5.7-.24.42-.33.42-.09 0-.51.9-.42.78-.54.78-.12-.18-.12-.45t-.15-.51q-.15-.24 0-.42t.39-.78q.24-.6.3-.6t.18-.3q.12-.3.12-.42 0-.24.18-.36.48-.48.3-.72-.06-.12.06-.12t.18-.36q.06-.36.18-.48.36-.24 1.62-3.12.24-.66.42-.93l.18-.27q.06-.18.27-.57.21-.39.27-.39.06 0 .33-.51t.63-1.17q.36-.66.45-.9.09-.24.39-.69.3-.45.27-.57-.03-.12.09-.15t.36-.39l.06-.24v-.06q.12-.18.06-.24l.12-.06q.12 0 .24-.36l.06-.24-.12.06q-1.2.9-1.5 1.2-.12.12-.6.51t-.96.81q-1.86 1.68-3.9 1.98-.96.18-1.14.12-.18-.06-.3-.45t-.27-.81q-.15-.42.09-.96t.42-.75q.18-.21.36-.51.36-.42.78-.36-.12.78.18.78.9 0 6.06-3.3l1.38-.9.66-.42v-1.08q0-1.14-.12-1.26-.18-.42-.18-2.58v-.93q0-.33-.03-.54-.03-.21-.06-.24t-.09-.03q-.12.06-1.11.12-.99.06-1.11.18-.12.12-.36.03t-.09-.36q.15-.27.33-.45.3-.18 0-.42-.12-.18.12-.63t1.2-1.47q.96-1.02.96-1.32 0-.66.66-.54.3.06.51-.15.21-.21.09-.54-.12-.33.06-.72.18-.39.42-.3.24.09.66.15.42.06.57.15.15.09.15-.03t.15-.06q.15.06.33-.09.18-.15.3-.15.12.06.24.03t.21-.12q.09-.09.09-.15h.12q.24.06.42-.12t.36-.24zm1.74 22.26q-.12 0-.09-.45t-.06-.45q-.09 0-.15.81t.03.93q.09.12.06 1.32-.03 1.2-.15 1.74-.06.42.06.42.12-.06.12.06t.72-.24q.72-.36.87-.36.15 0 .09-.09t.12-.27l.06.06q-.06.18.09.12t.21-.27q.06-.21.18-.21t.06.12q-.12.18.42 0 .06-.06.12-.06l.42-.24-.3-.42q-.6-.78-1.62-1.89-1.02-1.11-1.14-1.11-.12 0-.06.3 0 .18-.06.18zm3.54 3.42q-.24-.24-.3-.12 0 .12-.42.3t-.54.42q-.06.18 0 .18t.6-.24q.66-.3.72-.36.06-.06-.06-.18zm-4.53 5.64q.09 0 .09-.27t-.06-.27q-.06 0-.09.27t.06.27zm.21.06q0 .12.12-.03t.06-.18q-.06-.03-.12.03t-.06.18zm-1.32 6.42q.06-.12 0-.24-.06.06-.06.12 0 .12.06.12z"/></svg>