<svg viewBox="0 0 626 80" xmlns="http://www.w3.org/2000/svg"><path d="M39 58.74l-1.32-1.23v-.68l.44-.38.5-.99.15-.68-.3-.58-.2-.68-.09-.79.09-.67-.27-.56v-.79l-.08-.53-.44-.79.08-.56-.29-.82v-1.14l-.35-.7-.67-1.32-.33-.32-.29-.56.15-.56.85.33.58.11h.5l.62.18h1.4l1.38-.24.67.09.91-.09.53-.2.7-.12.76-.2 1.06-.79-.15-.65.09-.7-.23-1.44v-.55l.11-.76v-.85l-.17-.74.35-.55-.18-.79v-2.06l-.06-.64.24-.82-.32-.76v-.71l.35-.76-.15-.64.06-.56-.18-1.61.21-.56-.21-.79.12-1.37-.23-.77.32-.67-.79-1.76-.76-.17-.44-.27-.68-.29v-.7l.35-.18.8-.26.46-.35.74-.33h1.52l1.85.94 1.64.68.41 1.14-.5 1.55-.47.62.12.82-.53.55-.32 1.56.23.61-.12 1.38v.88l.24.61-.26.62.73.64h.79l.64-.23h.74l1.75-.33.94-.58.5-.5 1.2.09.38.5.73.35.62.47.7.32.56.5.5.29.47.59.96.41v.93l-.79.47-1.46.24-.71-.06-.47-.24-.85-.23-1.52-.21-1.14-.38-.91-.14-.91.14h-.88l-.03.15h-.58l-1.14.44-.56.67v1.41l-.38.88.29.73-.17.7.23.65-.12 1.46.09.65-.09.88.62.64.88-.23 1.4-.09.41-.12.74-.06.64-.14 1-.12 1.02-.56 1.17-.23 1.38.73.7.27.91.64.32 1.02-.11.56-.33.5-.55 2.2.09.67-.47.59.23.85-.38.49V51l-.06.76-.35.77-.18.64.12.79-.44.7.27.68-.21.58v.79l-.5.59-.61 1.11-.62.41h-1.08l-.5-.52-1.32-.91-1.49-.26-.73.05-1.29-.11.11-.38.71-.33.73-.2.61-.27.53-.32.79-.82.24-.76-.21-.59.12-.85.47-.61-.21-.73.15-.74.23-.52v-.85l.18-.65v-.55l.2-.77.3-.7v-.76l.06-.59-.47-.67-.71.18-1.4.08-1.35.41h-1.55l-.32.18h-.91l-1.41.29-.61.18-1.18.12-.9.26h-.62l-.82.15-.47.14-.85.62.15.91.17.61.06.76.44.74v1.23l.06.67.44 1.44.06.76.15.73 1.02.73.53-.12h1.2l.76.12h2.05l.79-.06-.17.33-.65.26-.5.09-1.23.52-.61.39-.82.11-.79.38-.79.06-.3.38-1.55.38-1.17.56-1.03.35-.7-.61zM19.46 31.9l-.21-.59-.32-1.14-.41-.64-.14-.71-.24-.61.06-.21.91.24.47.35 1.37.2.47-.14.68-.09h.64l2.37-.32h.56l.7-.82v-.68l.3-.79-.18-.73v-.67l-.61-1.03-1.21-.35-.46-.26.2-.53.62-.26.26-.24 1.2-.38h1.52l.47.12 1.61.29 1 .91.32.47-.14 1.26-.39 1.2-.7 1.2.21.5 1.43-.32 1.17-.62.36-.56 1.28-.11.77.2.7.47.59.26.67.21.79.47.18.88-.5.44-.53.58-.56.5-.46.12-.18-.76-.73-.06-.97.26-2.2.29-.58.15-.97.15h-.73l-.65.32h-1.52l-.82.32-.47-.03-.64.15-1.53.12-1.32.41-1.14.17-1.49.53-.88-.09zM17 56.86l-.03-.61-.47-.59.21-.64-.47-1.35-.47-.32v-.8l.7-.2h.76l.68-.06 1.34-.35.79.06.59-.24h.62l.9-.26 1.15-.09.7-.2 1.64-.21.79-.76.41-1.41.73-1.14.39-1.46.11-.74.68-1.26.11-.73.24-.55.7-1.35.15-.82.7-1.32.53-1.29.23-.62.06-.79.21-.67.49-.47-.14-1.23-.24-.61.15-.39.94.3.41.23.64.06.76.23.65.12.79.24 1.02 1.05-.23 1.35-.5.76-.44.5v.67l-.99 1.09-.18.67-.47.7-.44.53v.59l-.35.7-.41.47-.91 1.23-.14.76-.62.5-.18.53-.67 1.37-.47.5-.14.65-.5.52.41.47h.79l.41-.2h1l.55-.12.68-.29h1.26l.99-.15.79.32-.61.85-.62.41-.55.09-.77.41-.93.15-.5.29-.68.23-1.2.56-.88.12-.41.29-.9.29-.71.12-1.23.59-.85.2-.55.21-.47.41-1.58.38-.59.29-.85.29-.41.09-1.26.47-.64.29-1.65.5-.55-.41zm2.93-14.94l-.5-.53-.23-.55-.62-.77-.18-.49-.58-.59.26-.47.65.12.99.41h1.88l.5-.24.76-.05.64-.21.65.09.88-.18h.85l.43.44-.11.68v.76l-.74.76h-1.67l-.82.29-.79.12-.64.41-.67.15-.94-.15zm76.2 17.84l-.56-.55-.41-.62-1.78-.97-.62-.11-.76-.36-.91-.05.03-.39.88-.17.44-.26.67-.3.65-.06 1.05-.96-.29-.85v-.62l.23-.7-.23-.67.29-.71.09-.76v-1.49l-.24-.74.15-.7.09-1.41-.12-.79.26-.67-.17-.64.15-.8-.15-.64-.67-.85-1.35-.09-1.09.18-.7.17-.67.33h-.85l-.44-.56.14-1.23.15-1.32.26-.88-.26-.53.32-.76v-.82l-.29-.55.32-.8-.79-.52-1.23.82v.61l-.61 1.38-.15 1.2-.35.59-.06.82-.79 1.26-.47.44-.67.76-.8.58-.67.33-.7 1.02-.09.76.18.5-.12.85.53.53h.9l1.44-.18.5-.23.5-.12.79.09.73-.21h1.35l.67-.9.41-.36.79.33.62.05.9.27.62.32.7.18-.23.93-.85.65H92l-.76.12-.74.23-.73.06-.5.12h-.73l-.82.11-.73.33h-1.17l-1.41.26-1.38.23-.73.79.21.85-.18 1.44.26.82v.76l-.2.62.94.76.7.17.41-.2.79.18.91-.12h2.11l.47.12.96-.12h1.09l.03.23-.47.41-1.5.27-.73.32h-.44l-.73.41h-.73l-.82.38-.65.2-.76.15-.61.21-.59.11-.64.24-1.44.29-.97.26-.44.3-.93-.56-.18-.64-.97-.79-.73-.36.18-.64.2-.35.76-.32.44-.88-.11-.62.17-.88-.17-.7v-.53l.26-.85v-.53l-.24-.76.21-.73-.06-.76.09-.53-.32-.79.11-.64v-.77l-.05-.58.17-.7v-.68l-.17-.85.32-.55-.35-.68.08-.61.24-.77-.27-.73-.05-.58.32-.88-.32-.71.08-1.17-.2-1.52-.15-.5-.79-1.02.65-.21.67.18h2.7l1.11-.24.61-.23h.82l.62-.06.73-1.03-.12-1.87-.38-.62.36-.35h.49l.71.32h.61l1.26.3.73.9.21.85.47.65.53-.82v-.91l-.12-.64.06-.82.11-.68-.26-.79.09-.7-.68-1.15-1.17-.55-.5.14h-.64l-.67.33-2.14.23-.62.06-1.43.38-.97.44-.7-.09-.53-.61-.15-.65-.47-.55v-.77l-.64-1.17.41-.17.61.11.94.44 1.38.15.59-.21 2.95-.41.38-.14.71-.12h.73l.91-.06.5-.29.76.12.94-.33.46.06.82-.11 1.09-.59.32-.59.62-.38 1.17-.08.64.11.35.3.88.41.79.2.97.64.44.77-.44.55-.85.68-.29.52-.41.18-.21-.85h-1.23l-1.4.44-.88.15-.15.38.97.44.26 1.05-.64.62-.15 1.02-.18.71.27.82-.15.79.12.49.44.62h.82l2.05-.64 1.11.26.44.67.94.97.67.38-.2 1.26-.65 1.82-.17.64.44-.09.29-.49.38-.85.18-.53.47-.56.38-.73.23-.7.35-.62.12-.73.67-.44.27-2.11.26-.67.5.23h.91l.44.15.76.08 1.29.85.12 1.35.73.27.35-.85-.12-.77.35-.61-.2-.79-.12-.82.32-.68-.08-.82.11-.61-.32-.79v-.76l.26-.62-.55-.94-1-.44-.61-.11-.44-.41.08-.47 2.38-1.09.67-.23h1.26l1.38.64 1.08.71.47.47.24 1.08.05.64-.29.79-1.05 2.14v1.32l-.24.68.38.55-.09 1.26.62.68 1.35-.65.61-.58.74-.09.73.17 1.35.65.87.29.36.18.46.85-.49.47-.33.46-.87.79-.39-.73-.61.06-.65.24-.79.17-.82-.06-.61.32-1.03.12-.76.82.26.62-.29.82.27 1.23-.06.82.17.76.3.53 1.52-.15.88-.12.44-.14 1.4-.3 1.7-.93 1.29-.3.5.59.41.29.67.3.38.35.56.29.7.53.53.23.68.47.64.24.29.41.24.87-.5.39-.56.61-1.02.29-1.41-.26-.7-.23-.73-.06-1.32-.35-1.64-.27-.44.09-1.35-.09-3.46.59h-.96l-.56.26-.85-.06-.64.18-.39.2-1.08.09-.47.12-.61-.12-1.41.27-.94.23h-.55l-1.26.32-1.41.21-.82.2-.7.41-.21 1-.35.73.15.76v.71l.08.7-.26.67.29.68.06.85-.2.7-.12.64.26.79-.11 1.44.05.59-.14.73v.76l-.09.7.21.79-.27.53.15.73-.62 1.18-.61.29-.44.56-.85-.27zm3.34-19.86l.85-.09h.73l.53-.23.67-.15h.79l.5-.12 1.35-.2.7-.21h.76l.74-.26.96-.7-.32-.71v-.82l.18-.61.08-.71-.23-.79.12-.47-.74-.67-.73.09-.82.32-.55.12h-.83l-1.37.91-.53.52-.32.5-.35.7-.59.39-.5.79-1.14.82-.47 1.05.53.53zm-5.83-.85l1.26-.35.23-1.03v-.79l-.29-.67.09-.71v-.73l.11-.64-.73-.59-.44.24-.99.79.11.52v.68l-.17.7.14.7-.14.56-.09.65.91.67zM82.56 41.6l.5-.71.27-.67.26-.5v-.82l.32-.79v-.61l.35-.82.12-.68-.76-.67-.62.2-.87.82.23.74-.06.76-.23.58.11.74-.05.76.29.76-.32.5.46.41zm33.46 18.66l-.38-.35-.47-.68-.99-.49-.74-.27-1.08-.11-.06-.36.73-.41.41-.05.71-.47.47-1.03.23-1.35-.06-.82-.2-.58.08-.82.24-.76-.12-.74.18-.52.08-.74-.17-.73.12-.73v-.88l-.85-.56-1.12.27h-1.08l-.7.23-.65-.09-.61.21h-.82l-1.32.38-.44-.09-.73.24-.88.73.26.7-.2 1.58v.5l.41.79v.68l-.09.76-.21.64.44.79v.68l.41.85.82.17.85.06.76.12.44-.15.91.24v.26l-1.2.53-.61.17-1.12.53-.82.35-1.43.44-.65.24-1.02.52-.79.3-.8-.47-.11-.38-1.17-.88v-.76l1.23-1.38-.3-.79v-1.44l.18-.64-.06-.62-.35-.67-.15-1.55.09-.5-.12-.88.18-.7v-.59l-.73-2.05-.18-.53.7-.12.62.06h.58l1.53.12.64-.09.53-.26.94-.09h.7l1.17-.18.56-.2.91.06.61-.29h1.26l.88-.24.41.06 1.52-.32h1.35l1.23-.59.71.09.46.59.41.35.47.58.41.41.18 1.03-.26.58-.36 1.35-.32.7.15.5.12.79-.24.74.09.73-.18.61.27.65v.7l-.15.68.12 1.49-.15.47v1.4l-.06.82-.44 1.09-.38.35-.73.26-.91-.23zm28.16-13.77l.2-.61.73-1.35.53-.44 1.06-2.05.14-.41.82-1.29.62-1.35.47-.61.29-.56.53-1.32.7-1.14.91-1.15.44-.64.26-.82.29-.44.3-.61.47-.62.08-.67.77-1.35.67-1.06.32-.64.85-1.38.41-.55.12-.71.44-.5.32-.73.5-.47.35-.73.15-.58.49-.56.33-.73.41-.56v-1.29l-.18-.56.38-.47 1.29.44 1.38.44 1.26.33 1.14 1.02-.32 1.26-.41.56-.21.61-.35.56.06.94.59.44.49.52.79.38.27.27.67.41 1.17.97.47.26.74.59.76.23.85.85.64.44.79.38 2.14 1.7.79.41.32.44.59.32.5.44.64.35.53.41.82.5.35.41.59.44.82.23.38.5 1.46.82.24.24 1.4.49 1.18.74.55.38.5.14 1.23.8.59.11.23.82-.76.27-.53.58-.23.35-1.41.18-1.58-.21-1.44-.43h-1.55l-1.05-.83-.53-.46-.67-.44-.47-.56-.53-.41-.15-.53-.55-.41-.47-.5-.71-.32-.55-.64-.27-.53-.85-.44-.32-.47-.64-.32-.88-1.05-.65-.53-.32-.47-.79-.5-.35-.32-.62-.44-.23-.53-.56-.58-.76-.41-.35-.59-.67-.38-.24-.38-.5-.53-1.29-1.02-.26-.53-1.2-.82-.91.06-.47.61-.11.5-.36.64-1.14 1-.38.73-.32.44-.32.71-.53.61-.53.35-.14.68-.68.52v.74l-.67.38-.38.7-.21.5-.38.53-1.14 1.2-.32.46-.3.62-.64.67-.47 1.09-.41.64-1.14 1.12-.41.64v.5l-.5.47-.41.61-.7.5-.15.64-1.5 1.32-.52.53-.74.41-.73.24-.47.55-.08-.35zm3.95-16.38l-.85.03-.64-.17-1.09-.41-.58-.71-1.26-.82-.35-.61-.44-.5-.94-.29-.53-.41-.47-.53-.55-.44.08-.41h.77l.73.23h.64l.59.21.76.06.62.2 1.11-.29 1.32-.18.49.53.8.18.67.96v.82l-.18.62.06.61-.32.77-.44.55zm15.79 8.03l-.85-.41-.38-.32-.85-.29-.44-.41-1.61-.71-1.05-.79-.79-.38-.53-.85.61-.29 1.94.23.7.09.76.18h1.58l.56-.09 1.47.58.26.5.61.29.62 1.09-.97 1.17-.47.41h-1.17zM140.48 49.1l-.64-.62-.64-.35-.85-.94v-.64l-.09-1.26-.15-.65-.06-.67-.52-1.23-.41-.76-.09-.62-.3-.58-.26-.74.53-.38.41.5.44.3.47.55.73.29.53.56.49.41.74-.38.52-.44.3-.79.52-.53.27-.64.61-.44.35-.7.18-.71.56-.41.41-.76.38-.41.29-.79.32-.41.27-.12-.27.76.06.68-.26.67-.09.65-.23.67-.15.64-.12.88-.29.53-.09.76-.5 1.32.09.76-.12.53-.38.73-.29.79v.53l-.2.85-.24.5-.17 1.23-.56.7-.5.29-1-.11zm24.41 11.6l-.41-.32-.62-.5-.49-.32-.71-.33-.41-.46-.79-.44-.38-.41-1.2-.68-.44-.44-.73-.26-.3-.38-.85-.41-.35-.41-.64-.3-.47-.46-1.38-.71-.41-.44-.67-.29-.59-1.08.82-.47 1.32.44.35.26.71.35.79.06.55.35.71.12 1.46.47.94-.24.44-.67.97-1.14.23-.41.5-.62.58-.61.5-1.2.65-.36.17-.61.41-.65.41-.41.73-.55.44-.65.33-.58.49-.59.21-.53.41-.46-.44-.39-.32.03-.7.3-1.65.38h-.43l-.62.32-1.35.21-.99.11-.71.18-.96.64-.94.24-.44.32-.56.73-.67.24-.15.38-1.26-.76-.61-.5-.5-.27-.59-.47-.67-.43-.76-.36-.53-.41-.15-1.05 1.12-.7.7.38.5.11.73.3 1.44.11h.61l2.67-.44.76-.2h.5l.93-.38.41-.09h1.03l.64-.35h.5l.74-.15.7-.29.67-.12.85-.29 1.23-.23 1.5-.33.41-.44 1.14.18.53.41.26.61.44.5.85.53.5.38-.18.88-.76.38-.23.38-1.15.97-.64.38-.15.53-.76.41-.73 1.02-.73.41-.41.71-.94.84-.73.5-.74 1.06-.41.41-.76.5-.29.46-.65.41-.35.56-1.14.85.06.73 1.11.24.47-.18.7.12 1.91 1 .7.61.47.62.26.49.47 1.26-1.2.97-.53.26-.35.47-.61.3-1.35-.15zm53.29-.09l-.82-.32-.56-.32-.35-.35-.79-.53-.76-.32-.44-.27-.53-.58-.5-.36-.64-.23-.59-.44-.55-.23-1.29-.94-.76-.35-.65-.18-.61-.53-.88-.58-.85-.41.09-.38.76.23 1.43.24.59.17h.7l.62.21.85.08.41.21.82.12 1.34.29 1.73.32.59.21.56-.62v-.73l.14-.62-.17-.7.11-1.41.18-.58-.21-.73.06-.74.18-.79-.32-1.4.23-.65v-.7l-.2-.53.29-.73-.09-.85-.2-.7.26-1.35-.21-.59.21-.85-.29-.7.14-.67.09-.74-.23-.52.2-.82V34.6l.06-.62-.29-.73.06-.62.23-.85v-.58l-.15-.71.24-.73-.24-.76.12-.76-.15-.59v-.73l-.11-.56.38-.82v-.67l-.35-1.38.06-.79.17-.73-.79-.88-1.47-.47-.49-.26-.09-.76.88-.06.7-.47.59-.15h1.75l2.23.41.59.06.5.38.49.73v1.56l-.26.64-.32.62-.38 1.46-.44 1.35.09.79.14.67-.17.68.2 1.37-.12.77-.2.85.2.52v.88l-.26.65.23.76.09.56.35.55.88.24.41.38 1.09-.09.41-.65.79-.49.32-.59.29-.32.3-.53.76-.61.12-.5.55-.56.62-.44.52-.7.18-.32.59-.5.58-1.09.5-1.26-.59-.7.65-.5 1.38.56h.61l.47.32.88.21.7.29 1.29.32.44.76-.64.65-.44.73-1.53 1.5-.99.64-1.09.82-1.17.73-.56.53-.58.35-.85.35-.44.41-1.2.88-.68.24-.55.41-.06.73.97.44.41.44.76.41.61.5.3.38.76.29.58.5.41.23.65.5.79.35.73.5.56.29.26.44.94.44.61.41 1.21.59.46.5 1.97 1.08.47.23.7.21.56.41.61.26.94.18 1.05.41.82.26.59.47.61.06.71.32-.15.68-.91.76-.73.41-.7.17-1.85.21-.7-.26-.88-.09-2.17-.38-.41-.27-1.46-.17-1.7-1-.73-.44-.53-.47-.32-.55-.74-.59-.35-.47-.64-.41-1-.91-.7-.52-.27-.39-.67-.49-.91-.94-.64-.38-.62-.53-.5-.56-1.02-.82-.59-.58-.61-.44-.38-.41-.44-.65-.82-.41-.35.18-.06.82v.59l.17.87-.2.56-.09.65.32.79-.17.64-.15.85.38.7-.32.74-.06.67.32.56-.09.76-.2.76.29.7-.09 1.32-.05.82.08.62-.2.61.17.65.12.7-.23.73.2 1.47.44 1.08v1.2l-.41.97-.91 1.14-.47.27-.38.49-1.08.12zm-22.15-8.32l.56-.56 1.08-.85.94-.61.91-.88.67-.5.59-.32.32-.5.53-.5.85-.41.52-.67 1.03-1 .53-.38.55-1.02.41-.59.47-.53.44-.73.44-.53.18-.7.29-.61.47-.62.29-.61.5-.74.09-.7.73-1.26 1.08-2.14.27-.61-.12-.5h-.61l-.68.26-1.43.12-.77.32-.93.06-.5.23-1.14.21-.71.41-.44.44-.85-.06-.67-.44-.09-.61-.88-1.26-.44-.41-.14-1.15 1.61.33.35.11h.56l1.58.12.56-.29h.79l.55-.27h.94l.56-.23.67-.18h.76l.85-.23 1.5-.18.52-.08 2-.53.96.14.44.68.41.35.24.62.61.46-.23 1.03-1.06 1.17-.44.59-.17.58-.41.59-.71 1.26-.29.47-.97 1.17v.67l-.99 1.09-.29.58-.09.59-.3.79-.7.41-.7 1.08-.94 1.03-1.26.88-.94.82-.46.29-.85.38-.68.38-.97.88-1.84 1.03-.59.44-1.49.73-.85.85-1.55.38h-.68l-.55.21.2-.24zm93.81 9l-.38-.62-.67-.47-.09-.82.5-.97v-.82l.2-.73-.15-.61.06-.59-.2-.79.11-.65-.08-.76-.59-.35-.29.09-1.14-.18-.65-.58-.56-.27-.35-.55-.67-.44-.35-.44-.62-.5-.44-.64-.47-.27-.58-.5-.85-1.11-1-.91-.58.3.11.79v2.75l-.11.67v1.5l.17.61-.09.85.09.62-.23.76.29.7-.26.71.55 1.14-.26.7-.73.21-.56.38-.38.47-.53.26-1.29-.29-.76-.97-.26-.79.61-1.2.06-.47-.23-1.41.23-.73-.26-.67.26-.68.12-.82-.38-.52V51l.17-.88v-1.26l.12-.7-.12-.82v-.5l-.11-.7.26-.82-.23-.68.29-1.34-.38-.56v-.73l.2-.73-.82-.59-1.32.12h-.7l-2.11.47-.53.35-1.02.08-.15-.64-.47-.59-.11-.73-.59-.5-.23-.46-.12-.68.06-.29.94.26.2.3 1.55.26.65-.21.64.06.68-.09.73-.2 1.23-.12h.88l.58-.91-.61-.61h-1.41l-2.05.35-.73.18-.67-.12-.77.26h-.67l-.53.18-.88-.15-.58.24-1.88.14-1.46.27h-.85l-.53.17h-1.05l-1.5.12-1.14.35-.85.38-1.03-.17-.29-.68-.47-.44-.26-.76-.38-.73-.32-.47-.24-.73.32-.44.33.29.88.15.61.23h2.08l1.52-.12 1.38-.08.56-.15.7.06.67-.06 1.41-.35h1.49l.65-.09.7-.15h.65l.73-.2.76-.06 1.58-.2.5.08.88-.06.79-.29.76.12 1.41-.76-.35-.76-.44-.53-1.2.26h-1.41l-.79.35h-.73l-2.35.62-.29.41h-1.11l-.41-1.32-.21-.67-.79-1.26-.15-.71.47-.23 1.41.7 1.41.09.61-.09.62.06.67-.09.59-.23.79-.06.58-.12 1.67-.17 1.35-.38-1.14-.71-.68-.08-.46.43h-.82l-.68-.49-.44-.68-.58-1.2-.91-.35-.68.35-.32.09-2.05.82-.82.15-.67.35-.33.23-.85.24-.55.35-.97-.56v-.64l-.32-.82-.29-1.15-.62-.41.29-.76.68-.11h.96l1.41-.33 1.38-.11 1.14-.36h.85l.67-.26.33-.64-.12-.65-1.14-.99-1.15-.21.15-.64.67-.12.59-.35.76-.24.56-.41 1.43-.14 1.41.58.53.18.41.2.93.97-.2.79.62.7h1.49l.79-.26.79.35-.79.97-.97.2-1.2.53-.73 1.11-.21.74.68.52.67-.35h1.35l2.31.76.62-.32.12-.64.2-.71.3-.67-.12-.64.35-.68-.09-.61.12-.82.29-.65-.2-.55v-1.38l-.59-.38-.64-.94.55-.41.68.06 1.2-.24 1.14.27 1.35.88.73.26.67.44.41.35.15.91-.44.41-.85.35-.61.94.38.09h1.46l.59-.18.73-.09h1.61l.38.06.59-.85.7-.44.68.35 2.25.71.79.38.47.14.21.8-.15.49-1.41.47-.61.27-.82-.09-1.5.14-.55.21h-1.56l-.67.23-.82.06-.76-.09-.53.24-.76-.09-1.41.09-.99.76-.41 1.14-.91.68-.32.47.06.46.64.36.7-.24h1.2l.97-.06 1.88-.58h.82l.44.5.67.61 1.41.82-.18.91-.62 1.08.56.44.73-.11.59.08 1.17-.08.68-.09.79-.18h.73l.44-.17 2.11-.59.67-.53.88.12.7.29.71.56.38.47.79.35 1.08.76 1.17.85.65.44-.18.85-.2.5-.47.35-1.35.29-.67-.32-.73-.06-.53-.2h-.62l-.85-.33-.67-.08-1.14-.33-1.44-.11h-1.29l-.79.11-.58-.05-.85.14h-1.03l-1.55.3-.68.93-.35.79-.23 1.41-.24.64-.73.68h-1.41l-.46-.06-.82.06-.68.23-1.61.15-.82.17h-.53l-.99.83v3.04l.67.94.59.5.58.17.79.41.82.24.65.47.56.26.82.23.32.39 1.35.58h1.08l1.02.7v-.41l.21-.55v-.73l-.21-.88.12-.59v-1.43l.06-.68-.64-1.84-.68-.12-.7-.44-.7-.26.08-.5.62-.35.53-.12 1.31-.59h1.21l.73.18 1.7.55.38.53 1.32.56v.94l-.33.55-.08.85-.41.71-.06.55-.41.82v1.2l-.18.85.09.71-.32.64v.73l.17.85.21.56-.38.76.32.85-.23.7v.65l.14.67-.23 1.41.06.88v.7l.52 1.73-.06.67-1.31.74-.47.26-.44.38-1.32-.2zm-8.94-28.31l.56-.02.7-.09.85-.21.74-.06.99-.73-.09-.76-.41-.67-.55.17-.91.12h-1.47l-.87.94-.5 1.11.96.2zm-.02 4.52l.58-.03.82-.21.76.09.74-.23v-.68l-.39-.61h-.52l-.71.14-.79-.09-.64.12-.5.79.65.71zm-21.89 24.61l.41-.88.44-.3.85-.88.38-.58.35-.41.35-.62.15-.64.62-1.06.58-.7.21-.85-.21-.64.15-.76.5-1.38.11-.62-.09-.73.21-1.29.12-.82.17-.5-.23-.82.15-.76-.06-.53.23-1.52-.06-.7-.38-1.32-.38-.85.35-.65h1.53l.85.27.79.06.85.38.55.53-.09 1.23.06.79-.23.55-.15 1.53v.49l-.29.77v.7l-.18.73.18.62-.24.67-.17.79-.15 1.97-.35.64-.35 1.05.06.71-.35.58-.41.53-.47.38-.91.97-.79.41-.18.5-.7.47-.41.55-.85.53-.32.41-.59.35-1.14 1.2-.47-.55zm8.35-8l.23-.62.77-1.29.17-.52.59-.62.41-.59.2-.55.5-.53v-.53l.44-.67.26-.79.06-.41-.09-1.41.5-.73.41.12h.76l.71.2 1.46.59.12.58.09 1-.24.7-1.11 1-.5.59-.2.61-.74.53-.23.52-1.38 1-.23.47-.85.32-.35.59-1.26.79-.5-.35zm97.24-19.13l.2.85-.88.93h-1.46l-1.38-.14-.53-.21h-.73l-2.87-.64-1.23-.18-2.02.21-2.14.2-1.26.32-1.61.27h-1.47l-.7.26-.5.06-.61-.06-.76.24-2.17.32-1.23.17-1.09.18-.67-.12-.35.3-.97.05-.5-.05-.61.17-.94.12h-.64l-.53.2-1.76.18-.44.18h-.59l-1.46.23-.85.18-1.23.11h-1.52l-.62.32-.73-.05-.59.32-.73-.12-.76.18-.91.06-1.11.23h-1.17l-1.24.62-.76.2-.82-.15-.38-.41-.38-.73-.5-.44-.35-.7v-.53l-.58-.5-.15-.58.09-.53 1.43.5.53.23 1.44.24.79-.06.44-.24h.7l1.49-.26 2.11-.2.71-.15h.61l.85-.15.59-.23 1.46-.18h1.32l1.52-.32 1.17-.18.91-.08.35-.09 1.59-.15 1.46-.29.53-.09-.09-.26.24-.76-.18-.62.12-.88-.09-.35-.65.2h-.67l-.82.06-.7.15-.5.23h-.82l-.56.27-.53.09-.96.05-1.09.47-.67-.35-.62-1.26-.49-.53-.15-.87-.15-.47.24-.44.64.11.68.44 1.23.15.52-.12 1.59-.14.7-.12h.56l.58-.23h.73l.74-.15 1.05-.12-.09-.41.38-.67-.17-.85-.09-.91-.91.09-1.37.11-.44.3-1.64.14-1.59.33-.58.06-.59.52-.82-.23-.47-.65-.26-.64-.56-.79v-.53l-.32-.73v-.56l.88.44.61.15 2.03.23 1.23-.2.7-.21 1.08-.2.41.11.91-.14 1.82-.41-.12-.44.12-.82-.15-.65.15-1.34-.91-.8-.64-.41-.47-.08-.85-.3-.09-.67.94-.23.73-.39.58-.14.62-.32h1.23l2.02.67.56.41.76.38.26.32.62 1.03-.56.5-.11.82-.41.67-.27.67v.62l-.23.15.79-.15h1.02l.56-.18h.94l1.02-.67.65-.73.88-.12 1.26.38.58.41.82.21 1.32.52.12.82-.68.44-1.11.94-.44.21.29-.62-.93-.2-1.06.41-1.64.26-2.17.18-.76.29-1.46.23-.06.24.06.67-.15.59.32.64v.56l.79-.21h1.64l1.44-1.2 1.2-.32.65.29.44.3.82.05.61.5.5.09.61.32.33.73-.68.53-.38.47-.55.53-.44.23-.09-.58h-1.2l-1.09.08-.7.18-1.38.15-.85.17-.79.27h-.55l-.47.11-.15 1v.82l-.09.64v.59l.62-.09.73-.26.59.12.64-.27.91-.14h.79l.44-.18h1.43l.77-.15 1.2-.35h.96l.41-.17h.88l.47-.18.97.09.47-.3h.91l1.11-.08.73-.12 1.35-.62.79-.43.85-.15.7.29.68.59.58.2.21.56.64.23.62.5 1.29.7.41.53.44.24zm-14.74 4.45l.88.56v.96l-.38.68-.56 1.26.21.7v1.46l.17.85.06.71-.06.58-.23.68.11.79-.17.55.38.77v.88l-.29.49.11 1.41.09.76-.09.85.24.65-.09.79-.18.58v.82l.18.65v.61l-.23.76.08.74v.79l-.61.91-1.47.46-.35.21-1.23-.32-.14-.56-.44-.5-.79-.76-.85-.26-.56-.35-.79-.27-.44-.38-1.35-.67-.7-.21-.73-.47-.5-.17-.03-.38.79.17h2.17l.49.12h1.03l.56.18.85-.12.55-.65.18-.67-.32-.61.38-1.47-.15-.76.15-1.47v-1.23l-.12-1.46.15-.79-.3-.59.18-.88-.21-.61.27-.76-.18-.65.06-.76-.15-.62.3-.73-.06-.91-.7-.49-.68.17h-1.43l-1.26.29-.97.09-.59.18-1.4.12-1.5.23-.61.15-.56-.06-1.43.17-1.03.76.15 1.44.67.53h.7l.44.03.82-.21h1.29l.56-.26.85-.15.47-.73.55-.29 1.41.41.67.29.71.06 1.17.5.44.67-.41.5-1.79.55-1.7.21-.7.06-.53.32-.53-.06-.96.29-1.35.21-.47.12-1.08.09-.32-.06-.77.93-.23.65v.58l.85.68.44-.24h1.38l.82-.08 1.28-.36.74.06.58-.88.5-.32.7.18.56.32 1.99.5.53.35.5.67-.24.33-1.26.52-.9.3-1.41.17-1.17.27-1.32.08-.82.15h-.79l-.53.2-1.79.36-.35.82v.64l-.32 1.32-.06.82.18.62.32 1.99-.21.73-.46.41-1.41.73-.65.3-1.23-.18-.26-.5-.79-.41-.23-.38-.06-.88.7-1.11-.12-1.26.27-.85v-1.38l-.27-.67.18-.85-.12-1.26.18-1.61-.15-1.29-.18-.76.33-.68-.33-.85.12-.7.24-.59V43.3l-.56-1.17-.35-.56-.27-.62.3-.35.96-.17h4.11l.96-.12.44-.12h1l.67-.15.65-.2h.67l1.32-.29 1.38-.12.76-.18.44.09.76-.12.85-.05.61-.18h.56l.97-.2h.61l1.14-.53 1.26.23.77.56.26.38zm26.1 12.33l.09-.44 1.03-.64.73-.59.61-.26.44-.44.79-.35.36-.41.73-.59.67-.35.3-.53.76-.41.76-.85.38-.58.73-.53.88-1.08.65-1.15.73-.46.23-.59.56-.47.2-.61 1.18-1.12.29-.52.61-.5-.23-.38-1.58.11-.38.33-.76.11-1.38.09-1.32.26-2.2.56-.55.59h-.56l-.73-1.29-.71-1.29-.11-.62-.44-.41-.32-.7.23-.29 1.49.52h1.15l1.23.27.61-.12.73.12.97-.62.29-.67.91-1.29.41-.56.09-.64.44-.73.15-.65.67-.67.35-.56.12-.55.47-.62v-.94l-1.17.15-.85.09h-.56l-.73.11h-.71l-.67.12-.62.24-1.49.14-.41.18-.64.44-.85.26-.79-.15-.21-.61-.09-.73-.44-.53-.23-.73-.59-.68-.35-.55.41-.36 1.35.62 1.14.15.88-.15h.53l.94-.2.43-.03.77-.15.67.09 1.52-.12.47-.18.53-.08.91-.74-.12-.61.26-.73-.32-.56.27-.76-.53-.79-.65-.41-.67-.24-.56-.06v-.52l.77-.47.67-.24.47-.23 1.52-.26.76.29.76.2.68.3.67.7.35.61.3 1.15-.21.64-.44.85-.11.65.64.61.44-.03.76-.2.59-.06.67-.18h.73l.85-.14 1.2-.5.44-.47 1.18-.35 1.11.44.58.41.88.23.35.29.56.33.32.76-.52.53-.59.32-.7.7-.3-.73-2.81.44h-.64l-.79.14-.36.21h-1.49l-.61.26-.74-.06-.35.21-.09.12.5.2.29.65-.29 1.05-1.11 1.03-.68.91-.82.49-.32.5-.5.5-.32.41-.47.47-.7.44-.41.61-.73.35-.35.44-.27.47v.62h.91l.44.06.82-.15.91.12h.67l.97-.53.79-1.38.41-.64.64-.44.21-.76v-1.29l.59-.5.79.35h.67l.53.41.94.09 1.11.76.23.47.15.62v1.11l-.59.47-.67.41-.56.64-.2.53-.85.5-.5.41-.76.99-.47.53-1.32 1.03-.35.52-1.23 1.18-.44.49-.29.53-.79.38-.21.56-1.2.97-.59.67-.17.44-.76.47-.3.5-1.37 1.08-.27.5-.55.44-.62.23-1.2.94-.94.32-.99.65-1.38.43-1.23.53-.56.3-1.32-.36zm38.12 9.03l-.53-.53-.64-.26-.27-.59-.85-.26-.41-.53-.55-.38-.47-.41-.88-.5-.97-.97-.7-.38-.38-.41-1.38-.76-.58-.44-.33-.53-.11-.32.82.32h.79l2.02.59h.7l.56.32.91.15 1.17.38.73.15.67-.56-.11-.65.14-.87-.29-.5.06-.82-.09-.62.21-.79-.21-.67.15-.71-.12-.7v-.79l.24-.59-.15-.79v-.67l.15-.79-.09-.53v-1.49l-.21-.65.32-.88-.32-.64.18-1.5-.18-.49.32-.77-.17-.82v-.7l.15-.56-.15-.73.17-.85-.05-.64-.21-.76v-1.26l.29-1.53-.2-1.29v-.7l.17-.79-.23-.62v-2.28l.18-.53v-.91l-.21-.52-.56-1-.58-.35-1.64-.65.12-.35.73-.2.5-.38.58-.21 1.79-.35.53.21 2.11.35.52.32.85.09.41 1.08-.26.73-.09.65-.26.76-.33.5-.26.79-.41 2.14.29.58v1.53l-.29.61.06.79.26.77-.26.73.2.64-.17.62v.79l-.12.61.15.65-.12 1.61.29 1.38v.52l-.2.71-.06.82.15.61-.24.79.32.62-.11.82-.15.58v.71l.26.85-.05.7-.21.59.15.79-.15.67.26.7-.17.68-.15 1.49.35.68-.26.52.26.88-.11 1.41.23 1.14.56 1.23-.32 1.23-.15 1.06-.94 1.05-.64.41-.56.62h-1.17zm-9.11-13.22l.09-.79.52-.44.3-1.43v-1.38l-.33-.58.24-.88-.15-.59.21-.79-.33-1.35.06-.58-.09-.91.15-1.38.09-.67-.32-.65.26-1.4-.32-.65.23-.85-.35-.7.35-.67-.06-.53-.26-.82.18-.59-.65-1.14-.53-.12-.44-.41.15-.5.73-.14h.62l.53-.38 1.55-.12 1.26.26.64.41.62 1.2v.68l-.15.76v.67l-.29.68v.88l.15.55v.74l-.33.87.24.59-.21.73.18 1.32-.47 1.52.12.59v.79l-.33 1.38.3.82-.15 1.29-.17.76v.61l-.18.8-.06.73-.38.88-1.7.67-.73.23-.59.42-.2-.39zm-28.6 11.55l.41-.88.3-.21.93-.44.41-.35.8-.26.52-.47.68-.26.64-.41.44-.56.62-.44.67-.32.64-.47.47-.47.62-.41 1.14-1.05.47-.5.2-.56.44-.59 1.32-.9.15-.44.76-.65.88-.88.5-.58.67-.5.38-.59.47-.58 1.03-.94.47-.53.49-.41.5-.67.56-.41.99-1.09v-1.05l.44-.47.68.15h.93l.71.35.64.15 1.12.79.05.49.24.56v1l-.68.5-.26.32-.61.53-.65.32-.64.41-.24.58-.55.41-.77.36-.87.87-.47.44-.59.41-.35.38v.71l.61.32.44.38.88.18.47.44.76.11.35.41 1.41.59.62.2 2.28.53 1.96.82.21.68.67.67.15.53.82.5-.09 1.4-.94.82-.55.38-.97.12-.47.35-1.29-.23-.2-.56-.79-.38-.38-.44-.74-.44-.55-.59-.3-.43-.73-.53-.94-.88-1.23-.97-.52-.53-.5-.29-.35-.64-.44-.44-.74-.47-.46-.5-.94-.06-.47.5-.64.44-.44.47-.65.41-.47.56-.7.38-.62.58-.26.35-1.23 1-.7.44-.56.26-.41.35-1.49.77-2.05.9-1.26.62-.62.26-.53.33-.79.08-.79.27-.53-.41zm70.58.41l-.29-.65-1.09-.85-.61-.2.09-.65.73-.52.67-1.18-.17-.52-.15-.85.2-.59v-.64l-.38-.74v-1.46l.09-.7-.06-.56-.29-1.49-.38-1.38.32-.76-.35-.68v-.58l-.06-.71-.41-1.4-1.17-1.09.23-.29h.59l1.49.29.94.21h1.29l.82-.06.38-.15 1.52-.29h1.41l1.17-.29.91.09.62-.09.73-.97-.09-.61-.2-.68.35-.82v-.7l-.06-.76-.24-.76.3-1.41-.74-.62h-.7l-.91.21-.49-.06-1.62.29h-1.31l-.53.15h-1.55l-.44.35-.94.12-.59-.15-.79.3-.79.05-.44-.08-.76.08-.53.21h-.96l-.5.12-1.03.11-1.93.38-.94.09-.64.41-.88-.23v-.47l-.41-.62-.27-.73-1.05-1.29-.12-.53.27-.43 1.08.38.64.32 1.41.14 1.49-.14 1.85-.35.79-.09.91.06.32-.21.76.06 1.76-.29.5-.06.53-.15h1.64l.55-.29.79.12.56-.18h.73l.88-.23.74-.06.46.03.82-.06 1.5-.29.76-.85-.09-.62.18-.67-.27-.76.15-.53-.2-.88.08-.56.21-.76.06-.76-.27-.5.09-.82.15-.64-.71-1-.76-.26-.47-.33-.67-.05-.09-.53 1.03-.65.79-.32.44-.35h1.52l.44.35.88.24.44.23.88.32.32.38.88.41.09.77-.38.79-.41.58.08.65-.46 1.34-.44 1.44-.06.62.23.67-.32.73v.47l.35.85.56.41.82-.12.53.09 1.26-.26h.67l1-.21.41.06 1.02-.15.44-.17.79-.09.82.09.65-.24 1.43-.17h.82l.53-.15h.67l.53-.09 1.29-.52.67-.44h1l1.08.73.56.44 1.9 1.11.41.44.62.35.56.5.17.7-.5.5-.73.47-1.08.09-1.35-.29-.59-.21h-.58l-.44-.23-.94-.12-1.7-.5-1.4.15-1.15-.09-.29.18-1.38.2-1.67.15-.73.17h-1.43l-.65.27-1.58.11-1 .15-.49-.12-.83.27-.79.67-.08.73v.79l-.09.62.23 1.46-.26.82.17 1.38.62.76.59-.29 1.58-.12 1.29-.17 1.67-.24 1.34-.2.97-.44h1.11l.5.26.62.5 1.32.53-.12 1.14-.15.79-.41 1.29v1.49l-.44.68.21.61-.38.77.14.7-.23.76.12.5-.33.85v1.37l-.08.77-.33.61-.2.76.17.5-.35.91.12.53-.15.7-.08.82-.21.62-.53 1.08-1.34.85-1.06-.18-1.52-.96h-1.53l-.99-.3-.56-.23-.79-.12-.18-.11.97-.33.29-.26.94-.18.53-.29.79-.2.67-.09.62-.97v-1.29l.38-.67.18-.73-.21-.68.26-.7-.14-.82v-.5l.55-1.41-.11-.76.11-1.26.09-.67v-.85l.38-.68-.17-.73.35-.58-.82-.68-1.91.44h-1.78l-.35.3-.71.14-.82-.06-.67.3h-1.29l-1.58.23-.82.18-.38.17h-.71l-1.78.27h-.5l-.59.26h-.73l-.73.09-.85.82.32.7.09.76v.56l.12.94v1.99l.41 1.55-.12.73.2.71.09.67v1.44l.76.61h1.44l1.32.24.93-.15.47.03.79.17 1.29-.17.59.12.09.32-.65.29h-.73l-.53.38-.7.15-.91.41-.56.12-1.26.64-1.28.35-.74.32-.76.12-1.23.56-.82.17-.79-.14zm94.95-14.39l.21.76-.59.47-.23.38-1.29.3-.62-.24-1.02-.09-.56-.11-1.44-.41-.55-.24h-1.06l-1.37-.35-1.32.09-.68.2-.73-.11-.38.23h-.56l-.61.15-.7-.12-.59.24-.85.08-.44-.06-2.23.24-.79.17-.67.06-.79-.06-.73.12-.88.06-.68.26h-.88l-.79-.05-.67.08-.79.24h-1l-1.46.17h-.71l-.61.21h-1.03l-1.32.2.68.33.61.08.65.3.67.08 1 .88.14.71.39.76-.53.82-1.5.99-.58.18-.27.38-.82.38-.64.62-1.79 1.05-.41.38-.79.33-.44.55-1.32.71-.58.46-1.12.62-.61.47-1.2.61-1.82.41-.53.33-.87.14-.47.35-.44-.29 1.08-.79.56-.38.52-.5.36-.53.76-.52.61-.77.62-.58.35-.56.56-.44.64-.32 1.11-.97.77-.99.35-.56.76-.38.23-.47.71-.47.23-.44 1.35-1.05V48.8l-.26-.61h-.47l-1.29.2h-.65l-.9.18h-1.65l-.79.32h-2.37l-.53.27-1.73.14h-.93l-1.09.38-.5.53-1.11-.38-.41-.44-.56-1.35-.26-.61-.53-.59-.2-.64v-.38l.58.11.68.36h.73l1.23.2 1.29-.09h.88l.56-.11h.85l.61-.06 1.26-.35.56-.71-.21-1.23-.09-.64v-.88l-.23-.47.21-.79-.18-.68-.06-.73-.32-.7.09-1.29-.33-.76-.05-.68.05-.61-.14-.7-.24-.59v-.67l-.14-.79-.15-1.26-.97-1.26.65-.18h3.31l.97-.12.41.03.87-.12h.82l.44-.14 2.32-.29v-.18l.2-.56-.38-.73.12-.76-.06-.7.09-.65-.26-.73v-.68l.11-.7-.73-.91-.88-.35-.32-.32-.85-.38v-.59l.73-.09.44-.26.85-.32.56-.29 1.32-.12.99.17 1.35.59.26.32.53.44 1.2.35-.17.82-.41.74-.15.49-.35.77-.09.49-.35.53v1.35l-.18.7.12 1.2.29.06.82-.23h1.53l1.52-.18.5-.17.61.08 1.53-.32v-.41l.23-.85-.09-.76.12-1.35-.12-.85.27-.73.08-.67-.23-.68-.56-1.14-.64-.12-1.2-.76-.32-.47.73-.2.79-.5.73-.09.47-.44h1.58l.62.44 1.26.53.94.47 1.08.44v.96l-.29.65-.36 1.29-.41.7-.08.65-.56 1.34.12.68-.21.88.18.58-.12.12.82-.15.76-.06.59-.14.82-.09.76.09h.53l1.02-.24.38.06 1.38-.47.97.15.61.56.33.38.73.52.82.36v.93l-.27.62-.76 1.08v.56l-.32.88.15.55-.33.74v.76l-.32.7.18.62-.41 1.4.12.68-.47.55.11.68-.11.7-.36.76.21.62.64.61.41-.11.97-.09 1.23-.32.53-.47h1.08l.65.23.38.38 1.46.82.41.56 1.26.76.41.53.53.23zM528.9 32.16l.3-.7v-.56l-.53-.64-1.55.12-.41-.03-2.35.26h-.58l.11.97-.23.58-.06.8-.15.61.59 1 .91.06.7.17.29.32.38.79-1.17.8h-.88l-1.02.73.14.67-.29.82.24 1.44-.44.61v.59l.29.85-.29.58.7.53h1.49l.62-.15.73-.08.76-.82v-.53l.33-.7.2-.79-.12-.59.15-.82.32-.65.12-.7-.15-.7.33-.68-.09-.67.11-.73.36-1.38-.09-.73.23-.65zm-9.14.97l-.12-.76.18-1.32-.44-.06-.41.18h-.67l-1.64.23-.71.15-2.05.17-.52.06.17.62-.12.88.21.52-.09.88.12.71.61.67.74-.06 1.46-.35h1.76l.41-.15.79-.93.06-.62.26-.82zm-14.44 3.14l.99.61h.82l.44-.15.97.06.76-.14.53-.82.12-.74-.24-.61-.11-1.61.05-.68.18-.2-.76.17h-.65l-1.26.15h-.87l-.8.15-.58.88v.67l.26.91v.73l.15.62zm13.8 5.03l-.03-.7v-1.17l.26-.67-.09-.71-.49-.55h-.94l-1.2.29-2.05.2-.65.88-.17.79v.65l.44 1.4-.27 1.62.15.7.82.67 1.26-.23 1.4-.15.82-.23.88-.76-.35-.47.32-.82-.11-.74zm-11.11 3.93l1.03.12.5-.3.7-.76-.06-.67.06-.73-.15-.68-.08-.79.14-1.46.15-.53-.88-.79-.53.15h-1.67l-.41.23-.61.82-.12 1.32.35 1.61.24.64-.21.68.15.64 1.02.59.38-.09zm29.15 11.57l.21.53v1.29l-.73 1.14-.76.29h-.71l-.35.47-1.46-.29-.27-.35-1.26-1.09-.64-.29-.53-.5-.38-.61-.5-.5-.99-.82-.68-.44-.94-.94-.88-.52-.23-.41-.53-.36-.55-.58-1.41-.82-1-1.03-.38-.44-.17-.96 1.52-.27 1 .82.88.35.64.36.41.32.62.38 1.55.53.5.26.49.5.71.38 2.55 1.02 1.7.12.99.7.65.62.41.59.52.55zm66.98-9.05l.76.5-.21.7-.82.88-1.11.26-.85-.2h-1.49l-.59-.24h-.88l-.85-.08-1.9-.79-.21-.41-.64-.47-.5-.47-.7-.53-.53-.29-.15-.62-.76-.29-.61-.65-.33-.46-.58-.33-.24-.52-1.17-1-1.2-.91-.53-.41-.76-.85-.53-.5-1.2-.93-.47-1.06.24 1.06-.29.73-.06.59.08.7.3.7-.06.73.06.53-.35.88.35 1.29-.21.59.21.76-.12.79.85.61.7-.11h.82l.41-.71.65-.41 1.14.56.91.26.56.38.64.09-.12 1-1.08.53-.56.2-.73-.06-.94.09-.44.23h-.82l-1.26.15-.79.76-.12.73.3.62v1.35l-.35.67v.67l.14.71-.11.64.32 1.53v1.7l-.71.14-.49.47-.27.32-.91.35-1.11-.38-.32-.52-.56-.41-.11-.82.43-.91v-1.44l.36-.76v-.64l-.33-.8.3-.55-.18-.71.15-1.52-.68-.53h-1.61l-1.43.3h-.68l-1.4.2h-.5l-1.35-.29-.23-.56-.12-1.08.7-.27h1.47l.93-.08.68-.21.58.12.88-.26.41.08 1.56-.14.82-.97-.12-.67-.21-.62.24-.82-.09-.7v-1.23l-.06-.76.18-.65-.15-.67.06-.74-.18-.85.24-.61v-1.49h-.65l-.38.41-.61.46-.12.65-1.26.88-.47.47-.11.55-1.21 1.12-.76 1.05-.61.38-1.06 1.12-.47.41-.35.55-.79.97-1.14 1.11-.5.47-.35.62-1.14.7-.77.26-.61.35-.82.27-.41-.24.56-.55.67-1.23.59-.44.49-.71.88-.93.35-.71.38-.41.27-.64.79-.44.41-.65.41-.52.64-1.12.65-.61.41-.47.06-.59.38-.64.5-.41.7-.7.18-.47.58-.59.44-.64.41-.44.15-.65.79-1.02.58-.53.33-.59.35-.49.26-.27h-1.58l-.53.24h-.7l-1.61.26-.44.18-2.08.14-.88.33-.26.2-1.03-.18-.15-.43-.64-.8-.12-.46-.47-.5-.08-.82-.47-.41.38-.3 1.23.39 1.38.41.84-.24h1.53l1.23-.44.73.09.85-.26.53.05.55-.11h1l.35-.33h1.41l.2-.02.21-.74v-2.02l.06-.79-.3-.7.24-.82-.18-.71.15-.61-.06-.62.15-1.46-.68-1.09-1.4-.46-.82-.21v-.64l.73-.21.47-.32.67-.18.94-.38 1.32.12.44.2 1.46.39.73.55.77.47.35.97-.06.76-.56.76-.11.5-.5 1.46-.32 1.41.05.79v1.52l.15.68-.12.64-.11.18.49.06 1.29-.32h1.5l.76-.3.44.03.99-.26.53.06 1.17-.65.3-.44h1.31l.88.41.94.3.44.35.73.26.74.18V30l-.41.58-.62.5-.41.5-.62.06.12-.68h-1.11l-2.61.44-.99.15-.77-.09-.61.21-.41-.03-.76.2h-.91l-.65.27-.55-.12-1 .29.09.29-.24.62.12 1.29-.2.64.11 1.09.77.35.41.35 1.4.76.27.35 1.46.74 1.14.79.56.41.44.41 1.29.79 1.14.76.53.23 1.11.71 1.23.76.68.5 1.37.73.38.29.65.24 1.17.88 1.29.58 1.26.7.5.21zm-36.98-13.33l-.08.73-.56.56-.12.79-.17.56-.44 2.22-.09.62.29.64-.2.65.2 2.05-.23.76.2.79-.35.65.21.67-.15.61v.74l.21.76-.09.58.09.8-.18.73.2.64-.05.62-.18.79.18 1.32-.09.85.23.52-.06.88-.32.62.12.58.35 1.06-.09.88-1.49.76-.59.47-1.08-.24-1.03-1.02-.35-.94.65-.88-.15-.85.18-.61-.09-1.44.23-.64v-.65l-.12-.88-.2-.7.26-.67-.26-.79-.06-.53.24-1.61.08-.56-.06-.67.06-.82v-.74l-.14-.76-.18-.67v-.62l.26-.73v-1.49l-.14-.59.2-1.55-.08-.62.08-.73-.08-.79-.18-.7.26-.71v-.91l-.52-.14-.74.2-.96 1-.77.5-.41.41-1.05.7-.32.35-.76.27-.56.26-.67.18-.53.41-.59.11-.2-.17 1.46-1.44.53-.73.15-.5.58-.53.29-.49.59-.5.18-.44.73-.73.91-1.5.96-1.38.24-.55.55-.5.27-.62 1.14-1.02.53-1.26 1.29-1.82.35-.41.44-.67.53-.56.32-.7.58-.56.38-.58v-1.23l.18-.59.65.26.67.06 1.35.33.64.29 1.03.7.85 1.17-.15 1.03-.5.47-1.32.93-.58.71-.47.38-.38.5-.97 1.05-.73.44-.12.59-.82.58-.47.44-.38.59-.7.53-.47.46-.23.41-.59.47.38.76 1.29.44 1.58.82.29 1.03z"/></svg>