<svg viewBox="0 0 327 80" xmlns="http://www.w3.org/2000/svg"><path d="M66.36 36.06v21.48q0 2.22-1.56 3.81-1.56 1.59-3.84 1.59H39.6V37.26h9.3V16.38h4.74v8.52h14.1v4.68h-14.1v7.68h8.04v-1.2h4.68zM44.28 42v16.2h16.68q.72 0 .72-.66V42h-17.4zm-6.54-19.8v4.74H15.72V22.2h8.7l-1.68-4.5 4.44-1.62 2.22 6.12h8.34zm-21.6 40.2l-.78-4.62 9.18-1.68q1.02-2.88 1.92-5.94.9-3.06 1.65-6.03.75-2.97 1.35-5.61.6-2.64 1.02-4.65.42-2.01.66-3.18.24-1.17.24-1.23l4.62.78q-.06.24-.51 2.58t-1.23 5.88q-.78 3.54-1.89 7.89-1.11 4.35-2.49 8.55l7.02-1.26.84 4.68-9.72 1.74-11.88 2.1zm5.22-33l3.36 18.78-4.62.78-3.36-18.72 4.62-.84zM122.4 42.72v-1.08h4.68V57q0 2.28-1.56 3.84t-3.84 1.56h-16.86V42.72h17.58zm0 14.28v-9.54h-12.9v10.26h12.18q.3 0 .51-.21.21-.21.21-.51zm6.18-22.44v4.68h-25.26v-4.68H114v-8.22h-5.22q-.48 1.38-1.08 2.85-.6 1.47-1.26 2.85l-4.26-2.1q1.08-2.16 1.89-4.5.81-2.34 1.32-4.23.51-1.89.78-3.15l.27-1.26 4.62.78q0 .12-.21 1.23-.21 1.11-.69 2.85H114v-5.4h4.74v5.4h7.8v4.68h-7.8v8.22h9.84zM102.6 21.6h-7.8v5.64h2.64V26.1h4.68v31.08q0 2.28-1.56 3.84t-3.84 1.56H76.14V27.24h7.26V21.6h-7.74v-4.74h26.94v4.74zm-14.46 0v5.64h1.92V21.6h-1.92zm-7.32 10.38v9.18q.96-1.2 1.77-3t.81-3.9v-2.28h-2.58zm16.62 25.2v-2.7H80.82v3.36h15.9q.3 0 .51-.18.21-.18.21-.48zm0-7.44v-3.6h-7.38V31.98h-1.92v2.28q0 2.7-.9 4.95t-2.01 3.9q-1.11 1.65-2.07 2.64-.96.99-1.02 1.05l-1.32-1.5v4.44h16.62zm0-17.76H94.8v9.48h2.64v-9.48zm63.54-16.02l4.44 6.18h21.78v4.74h-5.58v4.56l-.48.66q-3.36 4.14-7.02 7.65-3.66 3.51-7.44 6.45l20.04 12.18-2.46 4.02-21.72-13.2q-2.58 1.8-4.98 3.3-2.4 1.5-4.5 2.7-3.24 1.8-6.06 3.15-2.82 1.35-4.89 2.25-2.07.9-3.27 1.35-1.2.45-1.32.45l-.78-2.22-.72-2.22q.06 0 1.89-.72 1.83-.72 4.89-2.13 3.06-1.41 7.05-3.57 3.99-2.16 8.31-5.04l-15.9-9.66 2.46-4.02 17.64 10.74q3.78-2.88 7.5-6.3t7.02-7.44v-2.94h-40.14v-4.74h22.92l-2.52-3.42 3.84-2.76zm45.6 12v-3h-11.4v-4.74h11.4v-3.66h4.68v3.66h8.64v4.74h-8.64v3h-4.68zm42.18-7.74v4.74h-11.34v3h-4.74v-3h-8.58v-4.74h8.58v-3.66h4.74v3.66h11.34zm-49.74 35.94l1.56-.54q.06 0 1.77-.63t4.56-1.83q2.85-1.2 6.57-2.91 3.72-1.71 7.86-3.93 4.14-2.22 8.43-4.89 4.29-2.67 8.19-5.73h-37.38v-4.74h38.16v-1.14h4.74v7.5l-.9.66q-4.44 3.72-9.33 6.84-4.89 3.12-9.6 5.64-4.71 2.52-8.91 4.41-4.2 1.89-7.2 3.15h33.48q.72 0 .72-.72v-5.7h4.68v5.7q0 2.28-1.56 3.84t-3.84 1.56h-42v-6.54zm91.8-27.78v23.04h6.48v4.68h-6.48v6.36h-4.74V56.1h-6.54v-4.68h6.54V28.38h-2.46l.3.06q-1.38 6.42-3.33 12.3-1.95 5.88-3.75 10.47-1.8 4.59-3.12 7.41-1.32 2.82-1.44 3.06l-4.2-2.1q0-.06.57-1.26t1.5-3.33q.93-2.13 2.1-5.04t2.4-6.36q1.23-3.45 2.37-7.32 1.14-3.87 2.04-7.89h-9.12v-4.74h16.14v-7.2h4.74v7.2h16.08v4.74h-16.08zm6.96.9l10.38 30.6-4.44 1.5-10.38-30.54 4.44-1.56zM267.54 15.9l3.96 2.52q-.12.12-1.32 1.89-1.2 1.77-3.42 4.35h.12v37.92h-4.74v-33q-1.86 1.74-3.9 3.36l-2.94-3.72q2.76-2.1 5.01-4.44 2.25-2.34 3.84-4.32 1.59-1.98 2.49-3.27l.9-1.29z"/></svg>