<svg viewBox="0 0 329 80" xmlns="http://www.w3.org/2000/svg"><path d="M50.68 21.38H38.14L36.88 11.3H49.3l1.38 10.08zM69.1 11.3l-1.92 10.08H55.3l1.92-10.08H69.1zm-42 10.8l-1.2 7.68H15.34l2.88-17.46h10.44l-.9 5.82h6.78v3.96H27.1zm40.14 42.06h4.14v4.5h-16.8V44.3h-2.46l-2.76 24.36h-13.2l3.06-24.36h-3.18V22.94h30.12q1.56 0 2.64 1.08t1.08 2.64V44.3h-2.64v19.86zM56.8 40.22V28.4q0-1.2-1.26-1.2h-6.66v13.02h7.92zm-25.38 9.54v11.22l3.6-.9v4.2L17.8 68.54l-.66-3.9 2.34-.6V49.76h-3.66v-4.14h3.66v-8.34h-3.66v-4.02H34.6v4.02h-3.18v8.34h3.18v4.14h-3.18zM88.9 20.9v7.8H76.18V16.82h19.44v-5.7h15.18v5.7h15.72q1.5 0 2.61 1.11 1.11 1.11 1.11 2.67v8.1h-12.72v-6.54q0-1.26-1.26-1.26H88.9zm42 25.62v4.14h-20.46v17.7h-17.4v-4.5h3.42v-13.2H75.52v-4.14h21.12l6.48-10.38q.18-.3.18-.66 0-.54-.36-.9t-.9-.36H85.48v-4.08h32.88q1.02 0 1.74.75t.72 1.71q0 .84-.42 1.44L112 46.52h18.9zm60.48 7.44v4.02H134.8v-4.02h4.8V23h15.96v-3.66h-18.9v-4.02h18.9v-4.38h15.36v4.38h18.96v4.02h-18.96V23h11.94q1.5 0 2.61 1.11 1.11 1.11 1.11 2.67v27.18h4.8zM171.1 27.08h-17.34v3.96h18.6v-2.7q0-1.26-1.26-1.26zm1.26 11.58v-3.6h-18.6v3.6h18.6zm0 7.56v-3.54h-18.6v3.54h18.6zm-18.6 4.14v3.6h18.6v-3.6h-18.6zm1.68 8.76l-2.34 9.36h-14.04l2.46-9.36h13.92zm29.82 0l2.34 9.36h-13.38l-2.4-9.36h13.44zm45.42-40.38h20.64v4.02h-56.34v-4.02h20.52V11h15.18v7.74zm15.54 8.82v4.08h-46.26v-4.08h46.26zm-46.26 12.9v-4.08h46.26v4.08h-46.26zm43.32 4.86q1.5 0 2.61 1.11Q247 47.54 247 49.1v19.44h-47.76V45.32h44.04zm-10.2 19.26V50.72q0-1.26-1.26-1.26h-18.66v15.12h19.92zm41.16-53.4l-7.08 19.2h3.78v38.1h-12.78V33.32h-3.96l7.98-22.14h12.06zm37.68 54.42h-10.44l-.36-5.76h-2.94v8.7h-12.42v-8.7h-3.06l-.42 5.76h-10.62l2.64-37.2h10.5l-1.86 27.36h2.82V24.8h-13.14v-4.14h13.14v-9.12h12.42v9.12h13.08v4.14h-13.08v30.96h2.64l-1.8-27.36h10.5l2.4 37.2z"/></svg>