<svg viewBox="0 0 343 80" xmlns="http://www.w3.org/2000/svg"><path d="M28.9 31.92q1.38-.96 4.08-.12.78.24 1.05 1.53t-.09 3.03q-.48 2.1-.03 2.94.45.84-.57 4.02-1.02 3.18-.96 3.48.06.06.36-.09t.78-.54q.48-.39 1.08-.87 2.1-1.86 2.34-1.26.24.72-.9 3.81-1.14 3.09-2.22 4.71-3.3 4.68-4.62 5.61-1.32.93-2.52-.45-.78-.9-1.47-2.46t-.69-2.46q0-.9-1.35-2.43-1.35-1.53-2.13-1.53-.6 0-1.26-.3-.36-.18-.3-.78.06-.6.69-1.38.63-.78 1.59-1.5l3.84-2.76q2.22-1.5 2.58-1.5.48 0 1.05-.93.57-.93.81-2.07.24-1.62-.12-1.95-.36-.33-1.92.39-1.68.78-2.88.3l-1.2-.54 1.98-1.62q1.98-1.62 3-2.28zm-.3 12.48q0-.84-.33-.87-.33-.03-1.23.69l-2.4 1.86-1.5 1.2 1.14.96q2.16 1.68 2.94.42.36-.6.87-2.07.51-1.47.51-2.19zm23.04-29.16q2.82 1.56 1.62 3.72l-1.08 1.98q-.54 1.08-.78 5.04-.12 3.24.18 3.69.3.45 2.34-.39 2.04-.9 3.6-1.05 1.56-.15 3.42.21 2.4.48 2.88.84.96.54.03 3.18-.93 2.64-2.25 2.88-.6.24-2.01 1.35-1.41 1.11-1.41 1.41 0 .3 1.26.6.66.12.9.36t.24.84q0 .72-.39.93-.39.21-1.95.39-2.4.3-4.56 1.44-1.26.78-1.71 1.26-.45.48-.63 1.38-.3 1.38-.06 10.92.12 6.84.03 8.25-.09 1.41-.63 1.83-1.98 1.26-2.7-2.16-.48-1.98-.18-8.64.3-5.7.15-7.44-.15-1.74-.81-1.74-.72 0-2.85.84t-2.73.84q-.66 0-1.26-1.2t-.42-1.86q.24-.42-.36-1.8-.6-1.38-1.02-1.38-.54 0-.81-1.74t.03-3.18q.54-2.04.78-2.04.42 0 1.71 1.62t1.59 2.76q.6 1.62 2.1 2.34 1.08.54 1.5.54.42 0 1.44-.48 1.14-.54 1.29-.93.15-.39.09-2.13l-.12-2.28-2.1.18q-2.04.06-3-.72l-.96-.84 3.12-1.44q3.12-1.44 3.18-1.74.06-.3.21-1.14.15-.84.36-5.37t.45-7.68q.24-3.15.42-3.15t1.86.9zm4.62 18q.54-.96.51-1.11-.03-.15-.75-.15-.96 0-3.12.96-1.68.84-1.95 1.47t.21 2.67l.24 1.26 2.04-1.92q2.04-1.86 2.82-3.18zM28.36 12.9q.48-1.26.78-1.26.12-.06.24.18.42.66.42 1.68t-.81 3.45q-.81 2.43-1.65 3.81-.9 1.38-.78 1.8.06.06.45-.06t1.05-.42q.66-.3 1.32-.78 3.72-2.22 4.32-1.26.24.42 1.17.42.93 0 1.77.54.54.42.51.57-.03.15-.81.39-3.42 1.38-4.38 1.38-.48 0-4.08 2.28-5.82 3.84-8.64 8.1-2.52 4.02-3.36 2.94l-.12-.24q-.3-.84.3-2.04.6-1.2 2.34-3.3 2.58-3 5.97-9.78 3.39-6.78 3.99-8.4zm66.3-.36q-.48-.84-.45-.99.03-.15.57-.15.84 0 3.06 1.68 1.38 1.14 1.83 1.8.45.66.63 1.8.3 1.86.06 2.97t.33 1.11q.57 0 1.29.78.48.54.36 1.05t-.9 2.55q-1.14 2.88-.87 3.18.27.3 5.25-.36l4.92-.78 1.8.9q1.68.84 2.7 1.86 1.02 1.02.84 1.8-.06.48-.72.57-.66.09-3.24.03-3.96-.06-5.76.57-1.8.63-2.76.63-1.68 0-.78 1.86.3.9-.12 8.73t-1.02 10.77q-.66 3.06-1.08 5.94-.36 2.46-.6 3.66-.24 1.2-.66 1.8-.42.6-.9.54-.48-.06-1.32-.6-1.02-.72-1.62-.72-.84 0-.42-.66.18-.3.6-.84.48-.6.66-1.53.18-.93.18-3.33 0-2.76.54-9.87.54-7.11.9-8.85.3-1.2-.12-1.2-1.14 0-1.74 3.9-.84 4.86-3.54 9.12-1.68 2.76-2.7 2.61-1.02-.15-2.22-3.15l-1.08-2.52 1.08-2.1q1.08-2.04 1.08-3.72 0-1.2-.18-1.41-.18-.21-.9-.03-1.08.3-1.86 1.08t-1.38.78q-.6 0-2.04 1.29t-1.89.96q-.45-.33.42-1.05t.45-.96q-.54-.36-1.32.42t-.54 1.5q.12.42-.06.54-.18.12-.78.12-.96 0-1.5.78t-2.22.84q-3 .06-3.09-1.74-.09-1.8 2.73-4.32 2.34-2.1 4.08-3.18l2.76-1.8q3.54-2.4 7.98-4.08 2.58-.96 3.6-2.31T94 29.25q0-.21 1.05-1.86 1.05-1.65.45-1.65-.6 0-.84.42-.48.84-3.21 1.68t-4.59.78q-.48 0-1.2-.36t-1.2-.81q-.48-.45-.24-.63.12-.12 2.82-1.02 2.58-.84 6.24-2.76t3.66-2.43q0-.51-.63-.72-.63-.21-1.53-.03-.6.12-.6.06-.06-.06.84-.96 1.08-1.08 1.08-2.88 0-1.8-.42-2.04t-1.02-1.5zm9.66 19.56q-.24-.3-1.29-.12t-2.46.72q-1.41.54-1.83.96-.3.3.3.36 1.8.12 3.66-.84.12-.06.24-.06 1.38-.9 1.38-1.02zm-8.22 4.32q0-.84-.84-.84t-.84.42q0 .42-1.14 1.44t-2.22 1.62q-2.16 1.14.06 3.24.78.78 1.11.9.33.12.75-.24.66-.54 1.89-3.12t1.23-3.42zm-11.16 3q2.28-2.16 1.68-2.16-3 .18-8.76 4.2-3.3 2.34-3.42 3.96-.06 1.32 2.46.42 1.26-.48 2.79-1.71t5.25-4.71zm41.16 12.06q0-1.08.36-1.08.6 0 2.79 2.37t2.61 3.45q.36 1.02.36 1.38 0 .36-.42.9-.6.54-1.71.6-1.11.06-1.56-.39-.45-.45-1.41-3.36-.96-2.91-1.02-3.87zm27.72-9.42q2.46-1.02 2.76-1.02.6-.12.12.96-.18.48-.6.78-.84.78-.84 1.29t-1.02 1.59q-2.1 2.04.3 2.4 2.58.42 6.3 2.61 3.72 2.19 4.08 3.57.42 1.5-.03 2.31-.45.81-2.01 1.71-4.5 2.46-11.34 2.4-5.4-.06-7.14-.69-1.74-.63-4.8-3.63-4.2-4.2-3.42-4.26.54 0 3.48 1.44 5.34 2.58 11.1 2.04 2.28-.18 4.44-.9 2.16-.72 2.16-1.32 0-1.14-2.79-2.64-2.79-1.5-3.51-.78-1.14 1.14-3.36-.78-1.38-1.2-1.77-1.2-.39 0-1.5-.84-1.11-.84-1.11-2.4v-1.56h4.02q2.58 0 3.75-.21t2.73-.87zm7.32-5.52q1.44-1.2 2.19-1.26.75-.06 3.21.84 2.34.9 3.15 1.89.81.99.33 2.43-.42 1.14-1.02 1.23-.6.09-2.55-.66-1.95-.75-4.41-1.35-2.22-.48-2.43-1.14-.21-.66 1.53-1.98zm-23.1-18.36q.48-.72 1.08-.63.6.09 1.92.93l2.82 1.74q1.32.84 1.5 2.16.06 1.2.42 1.26.36.06 1.56-.84.78-.6 1.53-.75.75-.15 2.79-.15 2.64.06 3.75.48 1.11.42 1.11 1.26 0 .96-.93 1.29-.93.33-4.11.75-4.08.48-5.04.93-.96.45-1.38 2.19-.48 1.86-.48 2.46 0 .42 1.86 1.44t3.72 1.56q.72.18.99.51t.33 1.05q.06.9-.18 1.29t-1.26.99q-2.64 1.68-7.08 3.51-4.44 1.83-5.82 1.83t-2.31-1.02q-.93-1.02-.93-2.4 0-1.02.84-1.89.84-.87 1.92-.87 1.5-.06 2.88-1.95t1.38-3.93q0-1.5-.54-1.5-.66.12-2.34 1.86-2.28 2.4-3.75 3.15-1.47.75-3.15.45-1.92-.24-2.97-.78-1.05-.54-1.83-.78-.48-.12-.54-.27-.06-.15.36-.39.54-.36 1.68-.36 1.56 0 9.54-4.56l3.12-1.8v-2.16q0-1.44-.24-2.1-.24-.66-1.26-1.74-.9-.96-1.08-1.41-.18-.45.12-.81zm48.24 28.86q.24-.42.69-.42.45 0-.03.6-.66.78-.84.3-.06-.12.18-.48zm30.9-25.62q.42-.6 4.02.36 2.34.66 2.91 1.11.57.45.57 1.59 0 1.26-.9 1.68-.9.42-2.1-.18-1.02-.54-2.88-2.37-1.86-1.83-1.62-2.19zm-6.96-9l-.24-2.04 1.32.3q3.18.66 3.48 1.86.18.84 1.35.84 1.17 0 1.41.36t1.98 1.14q3.06 1.38 2.52 2.94-.24.72-.75.75-.51.03-2.85-.51-.66-.24-1.23 0t-1.65 1.08q-1.68 1.38-4.89 3.42t-3.21 2.46q0 .78.84 1.56t1.98 1.02q3.78.66 3.78 2.4 0 .6-.21.81-.21.21-.81.21-.36 0-1.32.3-.96.3-2.04.81t-2.07.99q-.99.48-1.59.87-.6.39-.42.57.18.18 1.98-.66 2.76-1.26 7.5-2.52t5.7-.96q3.9 1.14 3.9 2.58 0 1.26-.72 1.86-.72.6-2.52.84-1.56.24-3.84 1.2t-2.28 1.44q0 .3 2.19 1.02t2.91 1.62q.48.72.42.93-.06.21-.9.39-1.44.24-3.54.87t-2.34.81q-.18.24-.36 2.16-.48 10.74-1.14 15.42-.66 4.68-1.86 5.7-.9.72-1.38.6-.48-.12-.9-1.26-.36-.78-.3-1.2.06-.42.66-1.02.96-.9 1.05-1.65.09-.75.54-3.39.45-2.64 0-7.92-.45-5.28-.63-5.7-.36-.48-1.53-.27-1.17.21-2.79 1.05-2.04 1.02-2.4 1.5-.36.48-1.68 4.62-1.44 4.44-2.34 4.5-.72 0-1.56-2.76-.36-1.26-.69-1.47-.33-.21-1.95-.27-3.36-.12-3.3-2.04 0-.54 3.06-1.92t3.42-1.86q.3-.3.54-1.92.24-1.62.24-2.91t-.3-1.59q-.42 0-2.07 1.53t-7.71 7.59q-4.74 4.68-6.57 6.03-1.83 1.35-2.67.63-.36-.42.06-1.71t.9-1.29q.42 0 .42-.51t2.04-2.55q2.04-2.04 2.28-1.74.3.24-2.28 2.94-2.94 3.3-1.92 3.54.42 0 1.11-.57.69-.57 3.93-3.45 1.2-.96 2.85-2.79 1.65-1.83 2.79-3.27 1.14-1.44.81-1.44-.33 0-2.31 1.44-1.86 1.38-1.92 1.14-.06-.3 2.76-2.46t3.48-2.94q.72-.72.42-.93-.3-.21-3.18-.75-2.34-.54-3.42-1.44l-1.08-.96 1.62-.42q1.62-.48 1.92-.48.3 0 4.62-1.68 3.84-1.5 5.31-2.58 1.47-1.08 1.47-2.28 0-1.2 1.8-3.42 1.56-1.92 2.94-4.14 1.38-2.22 1.38-2.76-.12-.48-1.14-.33-1.02.15-2.49.81-1.47.66-2.01 1.32-.54.6-.09 2.16.45 1.56-.15 2.22-.48.36-.78.36-.3 0-1.08-.48-1.2-.66-1.71-.66t-1.29.6q-.66.72-2.64.78-1.2 0-1.74-.24t-1.5-1.38q-1.8-2.04-1.44-3.36.24-.6.96-.42.9.24 2.52-.48 1.14-.54 1.32-.84.18-.3 0-1.68-.3-1.86-.96-3.6-.66-1.74-.36-2.04.72-.78 3.54 3.48 2.16 3.18 2.34 3.39.18.21 4.98-1.38 4.8-1.59 5.34-2.01.54-.48.36-2.46zm5.28 23.1q.54-.78.18-.78-2.04.12-2.04 1.02 0 .84.96.42.42-.18.9-.66zm-5.16 2.28q0-1.38-.78-1.47-.78-.09-3.72.99-.42.12-1.08.42-3.12 1.08-3.54 1.53-.42.45.12 1.89.12.36.18.48.6 1.74.39 2.13-.21.39.24.39.45 0 1.17-1.26 1.32-2.52 1.8-2.4.06 0 .12.06.24.24-.06.84-.42.66-.42 1.29t.42.63q.54 0 2.1-1.38l2.34-2.1q.72-.6.72-2.04zm53.4-16.38q1.08-1.26 3.45-.75t3.51 2.25q.66 1.02.54 3.18-.12 1.38-.42 2.01-.3.63-1.14 1.41-1.08.96-3.39 2.22-2.31 1.26-2.73 1.14-.3-.18.72-2.4 1.02-2.22 1.14-3.51.12-1.29.3-2.61.12-.96-.39-1.59-.51-.63-1.29-.57-.66.18-.72-.03-.06-.21.42-.75zm-14.58-5.34q0-1.02.18-1.17.18-.15 1.14.33 2.94 1.56 2.79 4.14-.15 2.58-3.51 6.72-1.92 2.4-1.74 2.85.18.45 1.62.69 1.26.18 2.43.87 1.17.69 1.41 1.35.36.9-1.74 4.74-2.1 3.84-4.02 5.76-.78.84-.51 1.26.27.42 1.65.84 1.74.42 2.04.6.06.06.57-.75t1.32-2.31q.81-1.5 1.59-3.24 2.88-5.64 3.84-7.38.96-1.74 1.26-1.74.42 0-.36 1.38-.48.72-1.95 4.62-1.47 3.9-1.47 4.38 0 .24 2.73.06t3.09-.78q.36-.6 2.46-1.08 1.8-.42 4.05-.06t3.03 1.26q.6.66 1.5 4.32.6 2.58.66 3.6.06 1.02-.24 3.06-.54 2.82-1.5 4.32-.96 1.5-1.2 2.64-.36 1.14-2.28 3.09t-3.12 2.13q-1.14.24-2.46.66-1.26.36-1.5 0t.84-1.08q1.8-1.2 3.18-2.91 1.38-1.71 1.8-3.21.96-3.6.96-7.98 0-4.38-.96-5.52-.24-.36-.57-.36-.33 0-.93.42-1.08.66-2.58 2.28-.96 1.08-1.41 1.32-.45.24-1.23.06-1.32-.3-1.89-1.71-.57-1.41-.84-1.41t-.45-.84q-.48-1.86-1.74.84-.72 1.56-1.38 4.26-.48 1.92-1.77 4.5t-1.77 4.23q-.48 1.65-1.38 1.77-.66.06-1.38-.81-.72-.87-.72-1.89 0-.9-.36-1.14-.54-.3-.54-1.38 0-1.08.54-1.56.72-.66.72-2.34 0-1.08-.12-1.29-.12-.21-.72-.09-1.02.3-1.5.3t-1.44.9q-.84.84-2.04 1.41-1.2.57-1.62.33-.66-.42-.18-2.34.48-1.92 1.38-2.22.6-.3 1.17-.93.57-.63 2.01-2.67 6.42-9.66 4.14-9.66-.96 0-3.27.99t-3.03 1.77q-.6.66-.93.78-.33.12-.99-.24-1.02-.48-1.14-.96-.18-2.64 1.5-4.44 1.38-1.44 3.9-5.01t3.66-5.67q1.32-2.34 1.32-3.66zm66.72 8.58q.78-.6 1.26-.6t1.56.6q1.02.54 2.04.54 1.26.06 2.58 1.08t1.8 2.4q.54 1.56.3 1.92-.24.36-1.8.36t-3.78-1.65q-2.22-1.65-3.6-2.13-1.14-.42-1.26-1.14-.12-.72.9-1.38zM303.34 21q-.24-.66.18-.66.48 0 2.1 1.08 2.1 1.2 2.58 2.4t.24 4.38q-.18 3.6.21 3.6t1.77-.42q1.32-.3 3.06.33t2.1 1.71q.18.66-.51 2.22t-1.83 3q-1.32 1.5-2.79 4.17t-2.07 4.29q-.72 2.16-1.59 2.58-.87.42-1.11.96-.36 1.02 4.98-.36 1.44-.42 3-.9.3-.12.84-.24 2.34-.78 2.58-1.26.24-.48-.54-2.64-.12-.54-.3-.78-.6-1.98-.36-2.16.18-.18 1.8 1.29t3.21 3.33q1.59 1.86 1.77 2.46.48 1.38 0 2.16-.48.78-2.46 1.8-1.32.66-2.82 1.02-1.5.36-4.86.72-5.52.6-7.2 1.23-1.68.63-4.56 1.23-2.76.6-3.54.21-.78-.39-.66-2.49 0-1.32.24-1.77.24-.45 1.38-1.17 1.38-.84 3.15-2.88t1.59-2.58q-.18-.48-1.74-.78-3.66-.72-4.98-1.77-1.32-1.05-1.62-3.45-.12-1.38.06-1.74.18-.36 1.56-.96l5.1-2.64 3.36-1.68v-5.52q0-5.46-.51-6.03-.51-.57-.81-1.29zm6.72 16.32q1.32-1.92.9-2.28-.48-.42-1.35.15-.87.57-1.05 1.47-.24 1.08-.42 1.86-.24.72.12.66.54-.12 1.8-1.86zm-6.3 4.02q.18-1.74-.18-1.74-.36.06-2.4 1.53t-2.13 1.77q-.09.3.45.42.84.24 2.58 0 1.14-.12 1.38-.39t.3-1.59z"/></svg>