<svg viewBox="0 0 393 80" xmlns="http://www.w3.org/2000/svg"><path d="M67.7 52.24v3.06H44.48v10.02h-5.82V55.3H15.5v-3.06h23.16v-6.18H26.24V43h28.68q1.2 0 2.04-.87.84-.87.84-2.01v-4.56H26.24V43h-5.82V22.9h10.2v-9h5.88v2.4H65v3.06H36.5v3.54h27.06v17.34q0 2.46-1.65 4.14-1.65 1.68-4.05 1.68H44.48v6.18H67.7zM26.24 32.5H57.8v-6.6H26.24v6.6zm85.02 27v-5.34h-6.48v-3.24h6.48v-4.44h-6.48v-3.3h6.48v-5.22h-6.48V34.9h6.48v-6h-6.48v-3.66h6.48v-5.4h-6.48v-3.12h6.48V13.9h5.7v2.82h8.82v8.52h2.82v3.66h-2.82v6q0 1.26-.87 2.16-.87.9-2.07.9h-5.88v5.22h8.1v3.3h-8.1v4.44h8.1v3.24h-8.1v5.34h-5.7zM91.52 14.02q0 .18-1.17 2.7t-2.85 5.16V64.9h-5.82V28.78l-1.02.84-4.86-2.82q2.28-2.28 4.83-5.64 2.55-3.36 4.17-7.14h6.72zm19.32 47.04h18v3.48h-19.56q-7.98 0-13.2-5.1l-1.26 4.44-4.74-2.94 2.04-7.02q-3.12-6-4.08-14.64h5.34q.42 3.48 1.14 6.36l2.94-10.14h-6.12l4.8-16.38h-4.62v-3.06h8.34q.9 0 1.5.66t.6 1.56q0 .36-.06.54L97.94 32.5h3.36q.78 0 1.38.57.6.57.6 1.35 0 .24-.12.6L97.82 53.5q4.44 6.6 13.02 7.56zm6.12-41.22v5.4h3.18v-5.4h-3.18zm0 9.06v6h2.34q.3 0 .57-.24.27-.24.27-.6V28.9h-3.18zm73.02-11.82v3.06h-1.68q0 5.7-.96 14.25t-3.78 16.59q2.4 6 6.36 11.1l-4.5 2.82q-2.46-3.6-4.44-7.8-2.46 4.74-5.52 7.8l-3.78-2.28q.3-.36 1.26-1.86t2.4-4.29q1.44-2.79 2.82-6.33-2.16-6.36-2.91-12.15t-.75-10.17l-.42.36-2.4-1.5v.6h-1.32V52.3l2.46-.72v3.54q-1.02.3-2.46.6v9h-5.82V56.8q-3.18.48-6.21.66-3.03.18-4.95.21-1.92.03-2.4.03v-3.42q.24 0 1.17-.03.93-.03 2.49-.15v-9l-2.58 1.8q-.12-.24-.48-1.17-.36-.93-.99-2.85t-1.23-4.32V64.9h-5.04V36.82q-1.86 13.08-4.5 19.86l-3.78-2.52q0 .3 1.23-5.07t2.34-11.88q1.11-6.51 1.41-12.45h3.3v-2.1h-5.76V19.6h5.76v-6.06h5.04v6.06h5.7v3.06h-5.7v3.84h2.46q0 .66.69 4.53t2.13 8.37V27.28h-2.04v-3h10.62V18.7h-8.58v-3.06h14.46v8.64h2.58v.24q2.04-2.52 3.18-4.95 1.14-2.43 1.5-4.02.36-1.59.36-2.01h5.16q-.36 1.98-.9 3.54h9zm-9.18 24.9q2.4-9.18 2.4-18.24 0-1.2-.12-3.6h-3.36q-1.5 2.94-3.42 5.58h3.18q0 .18-.06.99t-.06 2.13q0 6.6 1.44 13.14zm-16.26-8.88v-5.82h-4.08v5.82h4.08zm0 9.24V36.1h-4.08v6.24h4.08zm-4.08 11.46q1.5-.18 4.08-.42V45.4h-4.08v8.4zm72.42-39.9v18.3h-5.82V13.9h5.82zm9.6 4.2h8.7v3h-9q-1.08 7.68-4.44 10.98l-4.5-2.64q1.98-3.24 2.55-6.66.57-3.42.51-8.88h6.3q0 2.7-.12 4.2zm-27.12 29.22l-.6-1.2q-.48-.96-1.17-2.82-.69-1.86-1.35-4.26v26.34h-5.76V37.24q-1.74 12.48-5.04 19.86l-4.32-2.46q0 .3 1.41-5.07t2.67-11.91q1.26-6.54 1.56-12.48h3.72v-2.1H200v-3.06h6.48v-6.06h5.76v6.06h6.48v3.06h-6.48v3.84h2.88q0 .42.45 3.06t1.56 6.51q1.11 3.87 2.97 7.89V33.52h28.86v18.06h-5.82v-15h-17.22v15h-5.82V44.5l-4.74 2.82zm10.44-32.4v15.9h-5.76v-15.9h5.76zm24.66 14.28l-4.86 2.88q-.66-2.28-1.38-3.72-.72-1.44-2.16-3.18l4.38-2.58h.06q2.82 2.34 3.96 6.6zm-11.94 28.86q0 1.14.81 1.98.81.84 1.95.84H251v3h-12.48q-2.4 0-4.11-1.68-1.71-1.68-1.71-4.14v-3.42q-4.38 7.44-13.08 10.32l-4.56-2.76q0 .48 4.47-2.16t7.98-7.47q3.51-4.83 3.27-12.15h5.82q0 .84-.09 2.28t-.57 3.6h2.58v11.76zm26.4-30.96l-4.5-2.7q.18-.42.75-2.01.57-1.59 1.08-3.9.51-2.31.45-4.41h5.82q0 .24-.03.99t-.21 1.89h18.24v3.06h-7.8v4.26h-5.82v-4.26h-5.22q-1.02 4.08-2.76 7.08zm28.98-10.14h18.3v3.06h-7.86v4.26h-5.88v-4.26h-5.16q-.96 4.02-2.7 7.08l-4.5-2.7q.18-.48.75-2.13.57-1.65 1.05-3.93.48-2.28.42-4.26h5.88q0 .24-.06 1.02t-.24 1.86zm16.38 12.48v24.9q0 4.86-2.37 7.74t-5.79 4.26l-4.62-2.76q6.96-2.64 6.96-8.28V32.5h-25.8q-2.1 0-4.02-1.02-1.92-1.02-3.18-2.76l-1.8-2.64h6.72q1.32 1.56 3.12 2.46 1.8.9 3.78.9h27zm-46.5 35.94V32.5h5.82v32.88h-5.82zm34.74-11.58q0 2.4-1.68 4.08-1.68 1.68-4.08 1.68h-11.58V56.5h8.64q1.2 0 2.04-.84.84-.84.84-2.1v-4.8h-11.52v7.74h-5.88V36.64h23.22V53.8zm-17.34-8.1h11.52v-6h-11.52v6zm75.72-24.18v23.76h5.94v3.06h-5.94v17.22h-5.82V48.34h-5.88v-3.06h5.88V21.52h-13.2v-3.06h13.2v-4.8h5.82v4.8h13.2v3.06h-13.2zm-19.5-7.56q-.12.36-.63 1.62-.51 1.26-1.53 3.24-1.02 1.98-2.4 4.08h.18v42.42h-5.82V29.86l-2.1 1.8-4.62-2.76q0 .18 2.34-2.31t4.59-5.82q2.25-3.33 3.27-6.81h6.72zm5.16 10.62h6q0 .9-.78 6.33t-2.67 12.78q-1.89 7.35-5.01 14.01l-4.86-2.94q0 .42 1.98-4.89t3.63-12.03q1.65-6.72 1.71-13.26zm23.1 0q.24 7.14 2.04 13.86t3.9 11.73q2.1 5.01 2.1 4.59l-4.8 2.94q-3.24-6.72-5.31-14.07-2.07-7.35-3-12.81-.93-5.46-.93-6.24h6z"/></svg>