<svg viewBox="0 0 674 80" xmlns="http://www.w3.org/2000/svg"><path d="M51.94 73.78H15.4V5.98h36.54v67.8zM17.26 56.86l.18 4.14H49l1.2-13.44-6.84-.6-1.2 7.2H28.84v-.12l20.1-28.38-.12-3.66H19.66l-1.2 12.3 6.84.6 1.2-6.06h10.56v.06l-19.8 27.96zm52.62 16.92H50.74V5.98h19.14v67.8zM64.3 21.1h-7.74v8.04h7.74V21.1zM53.26 55.18V61H68.2v-5.82h-3.6V33.94H52.96v5.88h3.9v15.36h-3.6zm33.66 18.6H68.68V5.98h18.24v67.8zm-16.56-18.6V61H85.3v-5.82h-3.6V19.72H70.06v5.88h3.9v29.58h-3.6zm33.48 18.6H85.6V5.98h18.24v67.8zm-16.56-18.6V61h14.94v-5.82h-3.6V19.72H86.98v5.88h3.9v29.58h-3.6zm46.86 18.6h-31.62V5.98h31.62v67.8zM107.2 35.86l-1.2 7.02 6.18.66 1.02-3.84q.96-.48 1.95-.63.99-.15 2.19-.15 3.3 0 3.87 1.98.57 1.98.57 4.08v.9q-1.86-.24-4.44-.24-4.62 0-8.61 1.62-3.99 1.62-3.99 6.6 0 4.26 2.7 6 2.7 1.74 5.64 1.74 3.3 0 5.43-1.68t3.27-3.72v.06q.6 5.34 5.94 5.34 2.52 0 4.86-1.26l-.06-4.08q-.6.18-1.14.18-1.86 0-1.86-2.1V42.58q0-4.62-3.18-6.9-3.18-2.28-7.56-2.28-3.3 0-5.67.51t-5.91 1.95zm14.58 13.74v.36q-.3 3.18-2.07 4.65-1.77 1.47-3.81 1.47-1.74 0-2.46-.9t-.72-2.22q0-2.22 1.56-2.97t3.6-.75q.96 0 1.95.12t1.95.24zm56.4 24.18h-34.62V5.98h34.62v67.8zm-2.46-24.6q0-4.98-2.43-7.35-2.43-2.37-5.64-3.24-3.21-.87-5.61-1.35-2.64-.6-4.68-1.56-2.04-.96-2.04-3.42 0-2.1 1.59-2.94 1.59-.84 3.99-.84 1.44 0 2.97.36 1.53.36 3.03 1.38l.54 4.56 6.42-.6-.36-8.46q-1.86-1.98-5.34-3.15-3.48-1.17-7.32-1.17-5.28 0-9.72 2.67t-4.44 9.21q0 4.2 1.92 6.33t4.77 3.06q2.85.93 5.67 1.41 3.24.6 5.64 1.71 2.4 1.11 2.4 4.35 0 2.94-2.04 3.75t-5.22.81q-1.02 0-2.46-.21t-3.48-1.29l.06-4.74-6.42-.6-1.2 9.66q2.28 2.04 6.21 3.06t7.89 1.02q7.14 0 11.22-3.18 4.08-3.18 4.08-9.24zm19.5 24.6h-18.24V5.98h18.24v67.8zm-16.56-18.6V61h14.94v-5.82H190V19.72h-11.64v5.88h3.9v29.58h-3.6zm46.86 18.6H193.9V5.98h31.62v67.8zm-26.94-37.92l-1.2 7.02 6.18.66 1.02-3.84q.96-.48 1.95-.63.99-.15 2.19-.15 3.3 0 3.87 1.98.57 1.98.57 4.08v.9q-1.86-.24-4.44-.24-4.62 0-8.61 1.62-3.99 1.62-3.99 6.6 0 4.26 2.7 6 2.7 1.74 5.64 1.74 3.3 0 5.43-1.68t3.27-3.72v.06q.6 5.34 5.94 5.34 2.52 0 4.86-1.26l-.06-4.08q-.6.18-1.14.18-1.86 0-1.86-2.1V42.58q0-4.62-3.18-6.9-3.18-2.28-7.56-2.28-3.3 0-5.67.51t-5.91 1.95zm14.58 13.74v.36q-.3 3.18-2.07 4.65-1.77 1.47-3.81 1.47-1.74 0-2.46-.9t-.72-2.22q0-2.22 1.56-2.97t3.6-.75q.96 0 1.95.12t1.95.24zm44.94 24.18h-33.84V25.6h3.6v27.06q0 2.04-.3 4.14-.3 2.1-.72 4.2h7.74q.18-1.02.33-2.04.15-1.02.27-2.04 2.52 4.68 8.7 4.68 6.12 0 9.27-4.38 3.15-4.38 3.15-10.38 0-6.36-3.24-9.9t-8.34-3.54q-3.66 0-5.85 1.68-2.19 1.68-3.27 4.02V19.72h-11.34V5.98h33.84v67.8zm-9.84-26.28q0 4.14-1.83 6.09-1.83 1.95-4.47 1.95-3.06 0-4.71-2.25t-1.65-5.55v-.66q0-3 1.71-5.28 1.71-2.28 4.83-2.28 2.76 0 4.44 2.04 1.68 2.04 1.68 5.94zm66.24 26.28h-46.92V5.98h46.92v67.8zm-19.44-19.62V61h16.44v-6.84h-4.2V28.84h4.2V22h-16.44v6.84h4.2v9h-16.5v-9h4.2V22h-16.44v6.84h4.2v25.32h-4.2V61h16.44v-6.84h-4.2v-9.54h16.5v9.54h-4.2zm37.38 19.62H313.3V5.98h19.14v67.8zm-5.58-52.68h-7.74v8.04h7.74V21.1zm-11.04 34.08V61h14.94v-5.82h-3.6V33.94h-11.64v5.88h3.9v15.36h-3.6zm29.94 18.6h-14.52V5.98h35.28v67.8h-19.2q7.26-.24 10.74-4.32 3.48-4.08 3.48-10.38V39.82h3.6v-5.88H353.8v4.2q-1.14-2.1-3.24-3.42-2.1-1.32-5.28-1.32-5.7 0-8.94 4.26-3.24 4.26-3.24 10.32 0 6.42 3.54 9.72 3.54 3.3 8.28 3.3 3.6 0 5.7-1.44t3.18-3.48v3q0 4.08-2.01 6.18-2.01 2.1-5.13 2.1-5.04 0-7.74-5.04l-5.94 3.36q1.62 4.44 5.19 6.21 3.57 1.77 7.59 1.89zm8.04-27.12v.66q0 3-1.74 5.13t-4.92 2.13q-2.46 0-4.08-1.59t-1.62-5.49q0-4.14 1.8-5.91 1.8-1.77 4.38-1.77 2.64 0 4.41 1.74t1.77 5.1zm47.52 27.12h-36V5.98h36v67.8zm-16.26-18.6V61H400v-5.82h-3.6V42.76q0-4.8-2.82-7.08-2.82-2.28-6.66-2.28-6 0-8.7 4.68V19.72h-11.34v5.88h3.6v29.58h-3.6V61h14.94v-5.82h-3.6V45.16q.12-2.64 1.59-4.26 1.47-1.62 4.11-1.62 2.28 0 3.51 1.5t1.23 4.98v9.42h-3.6zm33.36 18.6h-18.24V5.98h18.24v67.8zm-16.56-18.6V61h14.94v-5.82h-3.6V19.72h-11.64v5.88h3.9v29.58h-3.6zm34.38 18.6H417.1V5.98h19.14v67.8zm-5.58-52.68h-7.74v8.04h7.74V21.1zm-11.04 34.08V61h14.94v-5.82h-3.6V33.94h-11.64v5.88h3.9v15.36h-3.6zm29.94 18.6h-14.52V5.98h35.28v67.8h-19.2q7.26-.24 10.74-4.32 3.48-4.08 3.48-10.38V39.82h3.6v-5.88H457.6v4.2q-1.14-2.1-3.24-3.42-2.1-1.32-5.28-1.32-5.7 0-8.94 4.26-3.24 4.26-3.24 10.32 0 6.42 3.54 9.72 3.54 3.3 8.28 3.3 3.6 0 5.7-1.44t3.18-3.48v3q0 4.08-2.01 6.18-2.01 2.1-5.13 2.1-5.04 0-7.74-5.04l-5.94 3.36q1.62 4.44 5.19 6.21 3.57 1.77 7.59 1.89zm8.04-27.12v.66q0 3-1.74 5.13t-4.92 2.13q-2.46 0-4.08-1.59t-1.62-5.49q0-4.14 1.8-5.91 1.8-1.77 4.38-1.77 2.64 0 4.41 1.74t1.77 5.1zm47.52 27.12h-36V5.98h36v67.8zm-16.26-18.6V61h14.94v-5.82h-3.6V42.76q0-4.8-2.82-7.08-2.82-2.28-6.66-2.28-6 0-8.7 4.68V19.72h-11.34v5.88h3.6v29.58h-3.6V61h14.94v-5.82h-3.6V45.16q.12-2.64 1.59-4.26 1.47-1.62 4.11-1.62 2.28 0 3.51 1.5t1.23 4.98v9.42h-3.6zm40.2 18.6h-25.08V5.98h25.08v67.8zm-.6-21.18l-5.64-1.74q-.36 3-1.47 3.63-1.11.63-1.83.63-3 0-3-3.54V39.46h9.72v-5.52h-9.72v-8.22h-7.74v8.22h-3.84v5.52h3.84V52.9q0 4.2 2.67 6.45t7.17 2.25q8.7 0 9.84-9zm48.6 21.18h-38.52V5.98h38.52v67.8zm-2.04-24.36q0-3.9-2.13-6.6-2.13-2.7-6.33-3.3v-.24q3.36-.54 5.22-2.82 1.86-2.28 1.86-5.34 0-4.14-3.27-6.63T561.76 22h-20.28v6.84h4.2v25.32h-4.2V61H562q6.72 0 9.87-3.45 3.15-3.45 3.15-8.13zM565 33.22q0 1.98-1.26 3.36t-4.68 1.38h-5.34v-9.12h5.94q2.16 0 3.75.87 1.59.87 1.59 3.51zm1.38 15.9q0 5.04-6.48 5.04h-6.18V44.2h6.72q5.94 0 5.94 4.92zm42.06 24.66h-32.58V5.98h32.58v67.8zm-16.26-40.44q-7.32 0-10.92 4.26-3.6 4.26-3.6 10.2 0 6.54 3.93 10.17t10.17 3.63q6.48 0 10.68-3.84 4.2-3.84 4.2-10.26 0-5.7-3.57-9.93-3.57-4.23-10.89-4.23zM592 55.66q-3.18 0-4.77-2.4-1.59-2.4-1.59-5.88 0-3.84 1.71-5.97t4.71-2.13q2.76 0 4.68 1.92t1.92 6.06q0 3.9-1.83 6.15-1.83 2.25-4.83 2.25zm33.48 18.12h-18.24V5.98h18.24v67.8zm-16.56-18.6V61h14.94v-5.82h-3.6V19.72h-11.64v5.88h3.9v29.58h-3.6zm50.7 18.6h-35.46V5.98h35.46v67.8zm-12.84-17.82V61h11.34v-5.82h-3.6V19.72h-13.14v5.88h5.4v12.48q-1.14-2.04-3.24-3.36-2.1-1.32-5.4-1.32-6.06 0-9.06 4.26-3 4.26-3 10.32 0 6.3 3.06 9.96 3.06 3.66 8.4 3.66 3.66 0 5.88-1.65 2.22-1.65 3.36-3.99zm0-9.3v.66q0 3-1.77 5.58t-4.83 2.58q-2.46 0-4.26-2.04-1.8-2.04-1.8-5.94 0-4.14 1.95-6.06t4.53-1.92q2.64 0 4.41 1.89t1.77 5.25z"/></svg>