<svg viewBox="0 0 574 80" xmlns="http://www.w3.org/2000/svg"><path d="M32.38 15.52v5.52q-.78 3.36-1.8 6.66-1.02 3.3-2.22 6.66 2.52 3.84 3.48 7.23.96 3.39.96 6.81 0 2.64-.33 4.26-.33 1.62-1.2 2.61-.87.99-2.34 1.5-1.47.51-3.69.87l-1.44.24-1.98-5.76 1.92-.24q1.26-.18 2.01-.39.75-.21 1.2-.69.45-.48.6-1.29.15-.81.15-2.19 0-2.52-1.32-5.49t-3.66-6.45q1.32-3.6 2.37-7.17t1.89-7.17h-5.7v45.84h-5.52V15.52h16.62zm33.54 1.02v5.58h-4.5v36.06q0 2.28-.3 3.81-.3 1.53-1.14 2.49-.84.96-2.46 1.44t-4.2.66l-4.86.36-1.8-6.18 4.68-.3q1.44-.06 2.31-.3.87-.24 1.35-.69.48-.45.66-1.23.18-.78.18-1.98V22.12H34.18v-5.58h31.74zM50.98 28.6v24.24H34.54V28.6h16.44zm-5.16 18.84V34.12H39.7v13.32h6.12zm55.74 12.36h23.04v5.46H72.46V59.8h23.1v-5.64H77.08v-5.64h18.48v-5.28h-18V15.16h41.94v28.08h-17.94v5.28h18.48v5.64h-18.48v5.64zm-6-39.36h-12v6.18h12v-6.18zm18 6.18v-6.18h-12v6.18h12zm-30 11.28h12v-6.12h-12v6.12zm18 0h12v-6.12h-12v6.12zm76.14 12.54l6.18 2.16q-.06 1.02-.21 2.28-.15 1.26-.45 2.76-.48 2.16-1.05 3.63-.57 1.47-1.59 2.37-1.02.9-2.7 1.32-1.68.42-4.32.54-7.08.3-14.31.3t-14.31-.3q-2.58-.12-4.35-.6-1.77-.48-2.88-1.62-1.11-1.14-1.59-3t-.48-4.68V15.76h43.38v26.22h-37.14v11.88q0 1.74.21 2.79t.78 1.68q.57.63 1.59.9t2.64.33q6.06.3 12.33.33 6.27.03 12.33-.33 1.56-.06 2.52-.33t1.56-.78q.6-.51.87-1.35.27-.84.51-2.16.24-1.32.33-2.31.09-.99.15-2.19zm-23.22-28.8h-12.6v14.4h12.6v-14.4zm18.24 14.4v-14.4h-12.24v14.4h12.24zm64.02 14.4l6.18 2.16q-.06 1.02-.21 2.28-.15 1.26-.45 2.76-.48 2.16-1.05 3.63-.57 1.47-1.59 2.37-1.02.9-2.7 1.32-1.68.42-4.32.54-7.08.3-14.31.3t-14.31-.3q-2.58-.12-4.35-.6-1.77-.48-2.88-1.62-1.11-1.14-1.59-3t-.48-4.68V15.76h43.38v26.22h-37.14v11.88q0 1.74.21 2.79t.78 1.68q.57.63 1.59.9t2.64.33q6.06.3 12.33.33 6.27.03 12.33-.33 1.56-.06 2.52-.33t1.56-.78q.6-.51.87-1.35.27-.84.51-2.16.24-1.32.33-2.31.09-.99.15-2.19zm-23.22-28.8h-12.6v14.4h12.6v-14.4zm18.24 14.4v-14.4h-12.24v14.4h12.24zM290.44 34h11.64v5.04h-52.62V34h11.34q-.66-.9-1.53-1.95-.87-1.05-1.8-2.07-.93-1.02-1.8-1.92-.87-.9-1.53-1.56l2.94-2.94h-4.86v-5.04h12.36q-1.5-2.34-3.36-4.2l4.68-2.94q1.08 1.26 2.43 2.91 1.35 1.65 2.25 3.03l-1.62 1.2h11.46q.66-.78 1.41-1.74.75-.96 1.47-1.92t1.32-1.89q.6-.93 1.02-1.65l4.86 3q-.54.84-1.32 1.95-.78 1.11-1.62 2.25h11.76v5.04h-5.16l3.18 2.52q-.6.84-1.5 1.92t-1.86 2.16q-.96 1.08-1.89 2.1-.93 1.02-1.65 1.74zm-23.46-10.44h-8.28q.78.72 1.65 1.59.87.87 1.74 1.83.87.96 1.62 1.89.75.93 1.35 1.71L261.82 34h5.16V23.56zM278.8 34V23.56h-6V34h6zm10.98 0l-3.6-3.06q.78-.72 1.68-1.65.9-.93 1.8-1.92.9-.99 1.71-1.98.81-.99 1.47-1.83h-8.28V34h5.22zm-32.76 33.06V42.52h37.5V67h-5.64v-2.64h-26.22v2.7h-5.64zm31.86-19.62h-26.22v3.78h26.22v-3.78zm-26.22 12.3h26.22v-3.72h-26.22v3.72zm69.3-35.22V21.7h-21.9v-4.68h21.9v-4.26l5.4.24v4.02h21.96v4.68h-21.96v2.82h18v17.4h-1.56q.78.9 1.62 2.01.84 1.11 1.71 2.19.87 1.08 1.62 2.13.75 1.05 1.35 1.83l-4.08 3.54q-.48-.84-1.29-1.95-.81-1.11-1.65-2.31-1.32 0-3.21.06t-4.2.12q-2.31.06-4.95.15t-5.34.15q.72.66 1.56 1.44.84.78 1.65 1.59.81.81 1.5 1.56t1.17 1.35l-3.42 3.72q-.72-.9-1.56-1.89-.84-.99-1.74-1.92-.9-.93-1.8-1.83t-1.68-1.62l2.46-2.34q-4.02.12-7.92.24-3.9.12-7.08.21t-5.4.18q-2.22.09-2.88.09l-.12-4.8q.78 0 2.88-.03 2.1-.03 5.07-.09t6.57-.12l7.32-.12v-3.54h-18.12v-17.4h18.12zm0 4.2h-12.24v2.7h12.24v-2.7zm17.58 0h-12.18v2.7h12.18v-2.7zm-29.82 9.18h12.24v-2.82h-12.24v2.82zm17.64-2.82v2.82h12.18v-2.82h-12.18zm12.6 10.14q-.42-.48-.75-.93-.33-.45-.63-.81l2.22-1.56h-13.44v3.48q3.6-.06 6.84-.12 3.24-.06 5.76-.06zm-37.38 20.34l-4.86-3q2.1-2.76 4.17-5.91 2.07-3.15 3.57-5.97l4.68 2.52q-1.74 3.3-3.69 6.42t-3.87 5.94zm36.48-12.24l4.56-2.52q2.04 2.82 3.84 5.46 1.8 2.64 3.66 5.64l-4.8 3.12q-.9-1.62-1.77-3.09-.87-1.47-1.71-2.88t-1.77-2.79q-.93-1.38-2.01-2.94zm-6 5.22q.18-.72.27-1.62l.21-2.1 5.4 1.8q-.12 1.38-.27 2.25-.15.87-.39 1.83-.36 1.38-.87 2.34t-1.47 1.59q-.96.63-2.37.93-1.41.3-3.57.42-5.46.3-10.86 0-3.96-.18-5.64-1.5-1.68-1.32-1.68-4.32v-8.1l6 .24v6q0 1.68.63 2.16.63.48 2.49.6 4.14.3 8.34 0 2.1-.12 2.79-.63t.99-1.89zm75.72-30.36h-13.86q2.88 6.9 7.44 12.75 4.56 5.85 10.2 10.95l-4.08 5.58q-4.86-4.74-9.03-10.56-4.17-5.82-6.99-12.18v17.04h9.3v5.52h-9.3v9.78h-5.88v-9.78h-8.82v-5.52h8.82V35.02q-2.52 6.06-6.12 11.52t-8.82 10.92l-2.1-2.82v12h-5.76V37.9q-1.14 1.74-2.31 3.45-1.17 1.71-2.43 3.39l-3.72-5.34q1.62-2.34 3.39-5.37 1.77-3.03 3.48-6.51t3.18-7.2q1.47-3.72 2.55-7.38l6.24 1.08q-1.98 6.84-4.62 12.84v23.58q9.72-9.54 14.88-22.26h-12.18v-6.06h14.34V12.7l5.88.24v9.18h16.32v6.06zm72.42-4.8v26.58h-19.74V67h-6.18V49.96h-20.1V23.38h20.1v-10.8l6.18.24v10.56h19.74zm-39.72 20.7h13.8V29.44h-13.8v14.64zm33.48 0V29.44h-13.5v14.64h13.5zm27.66-21.72h-1.5q-1.2 1.92-2.55 3.75-1.35 1.83-2.85 3.51l-4.74-3.18q3.06-3.36 5.43-7.23 2.37-3.87 3.87-7.23l5.7 1.2q-.78 1.86-1.92 4.08h13.26v4.26q1.56-2.28 2.73-4.62 1.17-2.34 2.19-4.86l5.58 1.02q-.42 1.02-.9 2.1-.48 1.08-.96 2.1h16.38v5.1h-9.48q.66 1.2 1.32 2.28.66 1.08 1.08 1.92l-4.5 3q-.78-1.5-1.8-3.48t-1.92-3.72h-3.84q-.72 1.2-1.47 2.37-.75 1.17-1.47 2.19l-5.1-2.34 1.62-2.22h-8.4q.78 1.2 1.47 2.46t1.17 2.1l-4.5 3q-.84-1.56-1.92-3.69t-1.98-3.87zm17.28 16.92h23.22v5.04h-52.5v-5.04h23.28V34.9h-18.42v-4.92h18.42V26.8l6 .24v2.94h18.36v4.92H529.9v4.38zm11.64 5.58v3.6h9.06v5.04h-9.06v5.7q0 2.16-.42 3.54t-1.47 2.16q-1.05.78-2.79 1.17-1.74.39-4.44.57l-4.68.36-1.74-5.16 4.86-.36q1.56-.12 2.49-.27.93-.15 1.44-.48.51-.33.66-.99.15-.66.15-1.74v-4.5h-19.44q1.92 1.32 3.96 2.82 2.04 1.5 3.36 2.7l-3.12 4.56q-.9-.84-2.25-1.92t-2.79-2.16q-1.44-1.08-2.85-2.07-1.41-.99-2.49-1.65l1.62-2.28h-8.46v-5.04h32.46v-3.84l5.94.24z"/></svg>