<svg viewBox="0 0 508 80" xmlns="http://www.w3.org/2000/svg"><path d="M49.02 56h2.34l-8.4-41.64h-3.12L15.06 56h2.52l8.4-14.22H46.2zm-21.9-16.2l13.5-22.86h.72l4.5 22.86zm34.32 16.56c.84 0 1.86-.12 2.52-.36l.36-1.98c-.9.24-1.68.3-2.46.3-1.68 0-2.58-.6-2.58-3 0-3.36 2.1-12.84 7.98-40.92h-2.22c-6.3 29.88-7.92 37.68-7.92 41.1 0 2.34.36 4.86 4.32 4.86zm17.7-40.2c.66 0 1.26-.06 1.56-.42.3-.36.54-1.62.54-2.22 0-.72-.24-.96-1.5-.96-.66 0-1.08.12-1.38.42-.42.48-.6 1.74-.6 2.28 0 .6.18.9 1.38.9zM70.56 56h2.22l6.24-32.4H76.8zm23.82.6c11.52 0 17.1-12.3 17.1-22.86 0-6.96-2.58-10.74-8.46-10.74-6.24 0-10.56 6.42-12.84 11.28h-.36c1.2-6.3 3.06-14.34 5.16-23.88h-2.16c-2.16 9.54-5.76 26.46-8.16 39.54 1.62 4.32 4.56 6.66 9.72 6.66zm.06-1.98c-5.04 0-6.96-3.18-7.38-4.74.24-6.78 7.14-24.96 15.72-24.96 4.98 0 6.48 3.78 6.48 8.88 0 10.02-5.34 20.82-14.82 20.82zm32.4 1.98c6.54 0 10.5-6.42 12.78-11.28h.36c-.3 1.26-.84 3.78-.84 5.88 0 3.3 1.02 5.16 4.68 5.16.78 0 1.8-.18 2.4-.36l.48-1.92c-.78.24-1.8.36-2.7.36-1.86 0-2.76-1.02-2.76-3.72 0-2.64.84-7.5 3.84-21.18l-.36-.96c-.9-2.34-3.24-5.58-9-5.58-11.52 0-17.34 12.3-17.34 22.86 0 6.96 2.58 10.74 8.46 10.74zm.24-1.98c-4.98 0-6.48-3.72-6.48-8.82 0-10.02 5.46-20.82 14.94-20.82 5.04 0 6.84 3.18 7.26 4.74 0 6.78-7.14 24.9-15.72 24.9zm35.1 1.98c11.52 0 17.1-12.3 17.1-22.86 0-6.96-2.58-10.74-8.46-10.74-6.24 0-10.56 6.42-12.84 11.28h-.36c1.2-6.3 3.06-14.34 5.16-23.88h-2.16c-2.16 9.54-5.76 26.46-8.16 39.54 1.62 4.32 4.56 6.66 9.72 6.66zm.06-1.98c-5.04 0-6.96-3.18-7.38-4.74.24-6.78 7.14-24.96 15.72-24.96 4.98 0 6.48 3.78 6.48 8.88 0 10.02-5.34 20.82-14.82 20.82zm32.4 1.98c6.54 0 10.5-6.42 12.78-11.28h.36c-.3 1.26-.84 3.78-.84 5.88 0 3.3 1.02 5.16 4.68 5.16.78 0 1.8-.18 2.4-.36l.48-1.92c-.78.24-1.8.36-2.7.36-1.86 0-2.76-1.02-2.76-3.72 0-2.64.84-7.5 3.84-21.18l-.36-.96c-.9-2.34-3.24-5.58-9-5.58-11.52 0-17.34 12.3-17.34 22.86 0 6.96 2.58 10.74 8.46 10.74zm.24-1.98c-4.98 0-6.48-3.72-6.48-8.82 0-10.02 5.46-20.82 14.94-20.82 5.04 0 6.84 3.18 7.26 4.74 0 6.78-7.14 24.9-15.72 24.9zm49.8 1.98c9 0 13.98-3.9 13.98-12.66 0-7.02-3.72-8.4-10.26-11.04-6.36-2.58-7.86-3.72-7.86-7.56 0-6.84 4.32-9.48 11.22-9.48 2.94 0 6.78.66 9.24 1.62l.48-2.22c-2.04-.78-6.36-1.5-9.6-1.5-8.4 0-13.62 3.42-13.62 11.64 0 4.68 1.92 6.72 9.06 9.42 6.78 2.58 9.06 4.32 9.06 9.18 0 8.22-5.28 10.5-11.52 10.5-4.8 0-9.24-.9-12.18-2.04l-.66 2.28c2.52.9 7.68 1.86 12.66 1.86zm30.24 0c6.54 0 10.5-6.42 12.78-11.28h.36c-.3 1.26-.84 3.78-.84 5.88 0 3.3 1.02 5.16 4.68 5.16.78 0 1.8-.18 2.4-.36l.48-1.92c-.78.24-1.8.36-2.7.36-1.86 0-2.76-1.02-2.76-3.72 0-2.64.84-7.5 3.84-21.18l-.36-.96c-.9-2.34-3.24-5.58-9-5.58-11.52 0-17.34 12.3-17.34 22.86 0 6.96 2.58 10.74 8.46 10.74zm.24-1.98c-4.98 0-6.48-3.72-6.48-8.82 0-10.02 5.46-20.82 14.94-20.82 5.04 0 6.84 3.18 7.26 4.74 0 6.78-7.14 24.9-15.72 24.9zM317.64 23c-4.98 0-8.46 2.16-9.96 5.34l.9-4.74h-2.22l-6.3 32.4h2.22l4.56-23.46c2.1-5.46 5.52-7.62 10.56-7.62 4.98 0 6.48 2.76 6.48 5.94 0 1.14-.24 2.94-.72 5.28L319.32 56h2.22l4.14-21.54c.24-1.2.42-2.94.42-3.84 0-4.8-2.64-7.62-8.46-7.62zm20.4 33.36c7.92 0 10.62-3.84 10.62-9.48 0-4.26-1.44-6-6.42-8.7-4.02-2.16-5.1-3.78-5.1-6.66 0-4.74 2.64-6.54 7.92-6.54 2.1 0 4.56.36 6.72 1.14l.36-2.1c-2.1-.6-4.68-1.02-6.9-1.02-6.24 0-10.2 2.52-10.2 8.58 0 3.96 1.26 5.58 6.42 8.4 3.84 2.1 5.04 3.66 5.04 7.08 0 5.1-2.76 7.32-8.28 7.32-2.64 0-5.4-.42-7.86-1.32l-.42 2.1c1.92.66 5.64 1.2 8.1 1.2zm34.62-2.46l7.62-39.54H378L369.96 56h20.88l.48-2.1zm33.84-37.74c.66 0 1.26-.06 1.56-.42.3-.36.54-1.62.54-2.22 0-.72-.24-.96-1.5-.96-.66 0-1.08.12-1.38.42-.42.48-.6 1.74-.6 2.28 0 .6.18.9 1.38.9zM397.92 56h2.22l6.24-32.4h-2.22zm21.78 12c10.62 0 13.44-6.54 15.12-15.48l4.32-22.98-.36-.96c-.9-2.34-3.24-5.58-9-5.58-11.52 0-17.34 11.94-17.34 22.5 0 6.96 2.58 10.5 8.46 10.5 6.24 0 10.5-6 12.78-10.68h.36l-1.38 6.84c-1.68 8.4-4.2 13.74-12.9 13.74-2.94 0-4.74-.42-6.78-1.08l-.6 2.28c1.8.54 4.5.9 7.32.9zm1.44-13.98c-4.98 0-6.48-3.48-6.48-8.58 0-10.02 5.46-20.46 14.94-20.46 5.04 0 6.84 3.18 7.26 4.74 0 6.78-7.14 24.3-15.72 24.3zM462.72 23c-4.98 0-8.46 2.16-9.96 5.34l3.48-17.94h-2.22L445.14 56h2.22l4.56-23.52c2.1-5.46 5.52-7.56 10.56-7.56 4.98 0 6.48 2.76 6.48 5.94 0 1.14-.24 2.94-.72 5.28L464.4 56h2.22l4.14-21.54c.24-1.2.42-2.94.42-3.84 0-4.8-2.64-7.62-8.46-7.62zm32.7 2.46l.42-1.86h-8.82c.54-2.34 1.08-4.86 1.68-7.56h-2.22c-.6 2.7-1.14 5.22-1.68 7.56h-5.64l-.42 1.86h5.64c-3.48 15.78-4.92 22.56-4.92 25.74 0 3.78 1.62 5.16 5.7 5.16 1.38 0 3.3-.24 4.44-.54l.48-2.1c-1.02.3-2.94.66-4.68.66-2.1 0-3.72-.48-3.72-3.3 0-2.88 1.44-9.9 4.92-25.62z"/></svg>