<svg viewBox="0 0 578 80" xmlns="http://www.w3.org/2000/svg"><path d="M34.34 21.9L31.4 35.52q1.08 2.34 1.77 4.35t1.11 3.81q.42 1.8.6 3.48t.18 3.36q0 2.88-.3 4.65-.3 1.77-.99 2.82-.69 1.05-1.77 1.56t-2.64.81l-3.54.72-2.34-8.52v14.22h-8.22V12.24h19.08v9.66zm34.14-8.52v9.3h-3.24v34.86q0 2.64-.36 4.29t-1.35 2.67q-.99 1.02-2.76 1.53-1.77.51-4.59.81l-3.78.42-3.3-10.56 4.14-.42q1.62-.18 2.13-.78.51-.6.51-2.04V22.68H35.72v-9.3h32.76zm-45 37.8l1.92-.36q.78-.12 1.26-.69t.48-2.67q-.06-1.98-.81-4.59t-2.43-5.91l3.12-15.78h-3.54v30zm29.88-25.32v27.3H35.84v-27.3h17.52zm-7.14 19.02V34.14H42.5v10.74h3.72zm58.62 11.82h22.8v8.58H72.5V56.7h22.92v-3.24h-18.6v-7.98h18.6v-3.24h-18.3V12.48h45.9v29.76h-18.18v3.24h18.48v7.98h-18.48v3.24zm-9.42-35.28h-8.64v3.3h8.64v-3.3zm17.94 3.3v-3.3h-8.52v3.3h8.52zm-26.58 9.6h8.64v-3.3h-8.64v3.3zm18.06 0h8.52v-3.3h-8.52v3.3zm71.7 14.22l10.08 3.36q-.12 1.44-.36 2.97-.24 1.53-.66 3.27-.54 2.22-1.14 3.66-.6 1.44-1.62 2.31-1.02.87-2.67 1.29-1.65.42-4.29.54-7.92.42-15.99.39-8.07-.03-15.99-.39-2.34-.12-4.05-.57-1.71-.45-2.79-1.56t-1.59-3q-.51-1.89-.51-4.89V13.14h47.58v30.42H144.8v8.76q0 2.34.9 3.09t3.18.87q5.82.24 11.58.3t11.58-.3q1.08-.06 1.74-.27.66-.21 1.08-.63.42-.42.66-1.11.24-.69.48-1.77.42-2.16.54-3.96zm-21.96-25.92h-9.78V34.2h9.78V22.62zm18 11.58V22.62h-8.88V34.2h8.88zm63.36 14.34l10.08 3.36q-.12 1.44-.36 2.97-.24 1.53-.66 3.27-.54 2.22-1.14 3.66-.6 1.44-1.62 2.31-1.02.87-2.67 1.29-1.65.42-4.29.54-7.92.42-15.99.39-8.07-.03-15.99-.39-2.34-.12-4.05-.57-1.71-.45-2.79-1.56t-1.59-3q-.51-1.89-.51-4.89V13.14h47.58v30.42H204.2v8.76q0 2.34.9 3.09t3.18.87q5.82.24 11.58.3t11.58-.3q1.08-.06 1.74-.27.66-.21 1.08-.63.42-.42.66-1.11.24-.69.48-1.77.42-2.16.54-3.96zm-21.96-25.92h-9.78V34.2h9.78V22.62zm18 11.58V22.62h-8.88V34.2h8.88zm65.16-3H305v7.56h-53.34V31.2h7.2q-1.14-1.56-2.55-3.27l-2.25-2.73 4.08-2.88h-5.16v-7.74h11.16q-.48-1.02-.93-1.95-.45-.93-.81-1.53l10.38-.06q.3.6.72 1.56.42.96.9 1.98h7.8q.48-1.02.9-1.98.42-.96.66-1.56l10.56.12-1.62 3.42h10.98v7.74h-5.46l3.78 2.52q-.42.54-1.02 1.35-.6.81-1.29 1.71-.69.9-1.35 1.77-.66.87-1.2 1.53zm-29.7-8.88h-5.7q1.26 1.5 2.64 3.24 1.38 1.74 2.16 2.88l-3.96 2.76h4.86v-8.88zm12.66 8.88v-8.88h-3.48v8.88h3.48zm13.98 0l-4.26-2.82q.78-.9 2.13-2.67 1.35-1.77 2.49-3.39h-5.1v8.88h4.74zM257 66V41.04h42.72V66H257zm32.82-18.54h-23.4v2.58h23.4v-2.58zm-23.4 11.52h23.4v-2.52h-23.4v2.52zm99.24 2.52l-8.34 4.44q-.96-1.92-2.19-4.11-1.23-2.19-2.43-4.29-.06.84-.27 1.83-.21.99-.51 2.07-.42 1.44-1.02 2.34-.6.9-1.68 1.41-1.08.51-2.76.75-1.68.24-4.2.3-2.4.12-4.98.12-2.58 0-4.98-.12-2.1-.06-3.54-.51t-2.31-1.32q-.87-.87-1.23-2.19-.36-1.32-.36-3.18v-7.68l9.12.24v4.2q0 1.92.45 2.61t1.83.81q.96.12 2.28.12 1.32 0 2.28-.12 1.68-.18 2.25-.51.57-.33.81-1.53.12-.6.18-1.11.06-.51.18-1.23l-4.32 3.42q-.48-.72-1.2-1.68t-1.5-1.95q-.78-.99-1.56-1.95t-1.38-1.62l2.46-1.74q-3.66.12-7.32.18t-6.96.12q-3.3.06-6.06.12t-4.62.12l-.36-7.44q3.96 0 9.66-.03t11.82-.09v-1.92h-17.46v-17.7h17.46V20.7h-20.76v-6.9h20.76v-2.76l9.54.24v2.52h20.76v6.9h-20.76v1.98h17.52v17.7h-.36q1.38 1.92 2.85 4.02 1.47 2.1 2.49 3.78l-5.52 3.36q.78 1.2 1.65 2.55.87 1.35 1.71 2.7t1.59 2.58q.75 1.23 1.29 2.13zM332.9 27.6h-7.92v2.04h7.92V27.6zm17.34 0h-7.8v2.04h7.8V27.6zm-25.26 8.1h7.92v-2.04h-7.92v2.04zm25.26-2.04h-7.8v2.04h7.8v-2.04zm-7.8 6.72v1.86q2.46 0 4.71-.03t4.29-.03q-.18-.3-.36-.54-.18-.24-.3-.48l1.74-.78h-10.08zm2.52 13.92l7.38 2.64q-.66-1.2-1.29-2.22-.63-1.02-1.23-1.86l6.42-2.94q-.12-.24-.27-.48-.15-.24-.33-.48-2.34.06-5.52.09-3.18.03-6.84.15.96 1.02 1.86 2.07.9 1.05 1.44 1.77l-1.62 1.26zm-27.42 12.6l-8.04-4.26q.78-1.26 1.71-2.82.93-1.56 1.86-3.21t1.77-3.33q.84-1.68 1.5-3.12l8.04 3.6q-1.56 3.42-3.36 6.93-1.8 3.51-3.48 6.21zM425.6 47.16l-4.56 11.46q-1.2-1.56-2.52-3.27t-2.64-3.63v7.62h-6.78v7.5h-10.2l-.06-7.5h-6.96v-6.78q-1.08 1.56-2.25 3.15-1.17 1.59-2.49 3.15l-3-6.9v14.76h-9.18v-24.6q-.9 1.38-1.83 2.67t-1.95 2.61l-2.7-14.1q2.94-4.74 5.52-9.99 2.58-5.25 4.32-11.97l9.96 1.62q-1.86 6.3-4.14 12v20.28q3.54-3.6 6.24-7.83t4.44-9.03h-7.98V18.3h12l.06-7.14 10.2.24v6.9h13.92v10.08h-11.46q1.26 2.46 2.85 4.95t3.42 4.89q1.83 2.4 3.81 4.68t3.96 4.26zm-26.4 3.12V37.5q-2.16 6.66-5.88 12.78h5.88zm9.54 0h6.12q-1.68-2.52-3.24-5.16-1.56-2.64-2.88-5.34v10.5zm78.3-22.08h12.42v8.94H466.7v-5.58h-3.72v7.74q.84-.24 1.62-.42.78-.18 1.56-.42l.36 10.26q-.78.18-1.65.39-.87.21-1.89.51v17.22h-9.12V51.9q-2.64.72-4.92 1.32-2.28.6-3.84 1.08l-1.5-10.74q1.92-.36 4.59-.93 2.67-.57 5.67-1.23v-9.84h-2.58q-.12 2.28-.24 4.23-.12 1.95-.24 3.39l-6.6-.42q.18-2.22.39-5.07.21-2.85.39-5.91.18-3.06.33-6.12.15-3.06.21-5.76l6.48.12q-.06 1.32-.09 2.79t-.15 3.09h2.1V11.22l9.12.24V21.9h3.78v6.3h11.52V24h-9.18v-8.04h9.18v-4.92l8.76.24v4.68h9.48V24h-9.48v4.2zm6.66 10.26v2.7h4.02v8.76h-4.02v8.58q0 2.46-.39 3.9t-1.47 2.28q-1.08.84-2.91 1.23t-4.71.69l-2.82.3-2.82-9.42 2.64-.3q2.1-.24 2.79-.96t.69-2.52v-3.78h-8.4q1.2 1.32 2.55 2.79 1.35 1.47 2.19 2.43l-6.9 6q-.6-.78-1.47-1.89-.87-1.11-1.77-2.22t-1.71-2.1q-.81-.99-1.35-1.59l4.2-3.42h-3.66v-8.76h16.32v-2.7h9zm61.68 17.52h3.42v9.6h-33.24v-9.6h3.96V50.1l-5.7 5.04-3.18-4.38v16.02H512V51.36q-1.62 2.88-3.39 5.25t-3.63 4.41l-1.8-12.3q1.8-2.04 3.6-4.32 1.8-2.28 3.18-4.68h-5.16v-9.18h7.2v-2.88l-5.7 1.02q-.3-1.26-.63-3t-.69-3.51q-.36-1.77-.75-3.42t-.75-2.79l6.12-1.14q.24.9.57 2.16.33 1.26.63 2.64.3 1.38.63 2.82t.57 2.7V11.1l8.64.24v11.7q.54-2.16 1.05-4.41t.81-3.81l6.54 1.32q-.24 1.08-.66 2.76-.42 1.68-.9 3.48-.48 1.8-.96 3.54t-.84 2.88l-5.04-.9v2.64h6.48v9.18h-6.48v4.38l2.58-2.22q1.56 1.56 3.24 3.45 1.68 1.89 3.06 3.63V12.3h25.86v43.68zm-8.82-34.2h-8.22v5.16h8.22v-5.16zm0 19.74V36.3h-8.22v5.22h8.22zm-8.22 9.3v5.16h8.22v-5.16h-8.22z"/></svg>