<svg viewBox="0 0 569 80" xmlns="http://www.w3.org/2000/svg"><path d="M29.06 19.24L24.2 33.82q2.7 3.6 3.9 6.9 1.2 3.3 1.2 6.6 0 2.1-.39 3.42-.39 1.32-1.26 2.16-.87.84-2.28 1.29-1.41.45-3.51.75l-1.98.3-.72-1.98 2.4-.24q1.8-.24 2.94-.57 1.14-.33 1.8-.99.66-.66.93-1.74t.27-2.7q0-2.88-1.29-6.03-1.29-3.15-3.99-6.75l4.92-15H17v47.4h-1.86V17.2h13.92v2.04zm35.1-.96v2.04h-6.3V58.3q0 1.98-.33 3.24-.33 1.26-1.2 2.07-.87.81-2.4 1.17-1.53.36-3.93.54l-2.76.18-.78-2.16 3.18-.12q1.92-.12 3.15-.39t1.92-.84q.69-.57.93-1.59.24-1.02.24-2.58v-37.5h-24v-2.04h32.28zM47.72 30.22v21.24H33.56V30.22h14.16zm-1.8 19.26V32.26H35.36v17.22h10.56zm51.6 12.42h24.96v1.98H70.46V61.9h25.08v-9.18H75.26v-1.98h20.28v-8.52h-18.6V16.66H116v25.56H97.52v8.52h20.22v1.98H97.52v9.18zm-1.98-43.32h-16.5v9.84h16.5v-9.84zm18.42 9.84v-9.84H97.52v9.84h16.44zM79.04 40.24h16.5v-9.96h-16.5v9.96zm18.48 0h16.44v-9.96H97.52v9.96zm80.64 11.4l2.16.78q-.06.3-.21 1.65-.15 1.35-.45 3.09-.3 2.1-.81 3.45t-1.47 2.13q-.96.78-2.55 1.14-1.59.36-4.05.42-13.32.48-26.64 0-2.52-.06-4.23-.54-1.71-.48-2.73-1.5t-1.44-2.73q-.42-1.71-.42-4.29V17.2h39.66v22.74h-37.56v14.94q0 2.22.33 3.63.33 1.41 1.14 2.22.81.81 2.22 1.14 1.41.33 3.57.39 12.84.48 25.74 0 2.16-.06 3.42-.33 1.26-.27 1.98-.93t1.08-1.77q.36-1.11.66-2.85.3-1.68.45-3.12.15-1.44.15-1.62zm-23.88-32.4h-16.86v18.54h16.86V19.24zm18.54 18.54V19.24h-16.44v18.54h16.44zm64.38 13.86l2.16.78q-.06.3-.21 1.65-.15 1.35-.45 3.09-.3 2.1-.81 3.45t-1.47 2.13q-.96.78-2.55 1.14-1.59.36-4.05.42-13.32.48-26.64 0-2.52-.06-4.23-.54-1.71-.48-2.73-1.5t-1.44-2.73q-.42-1.71-.42-4.29V17.2h39.66v22.74h-37.56v14.94q0 2.22.33 3.63.33 1.41 1.14 2.22.81.81 2.22 1.14 1.41.33 3.57.39 12.84.48 25.74 0 2.16-.06 3.42-.33 1.26-.27 1.98-.93t1.08-1.77q.36-1.11.66-2.85.3-1.68.45-3.12.15-1.44.15-1.62zm-23.88-32.4h-16.86v18.54h16.86V19.24zm18.54 18.54V19.24h-16.44v18.54h16.44zm36.54-18.66l-1.56 1.2q-.48-.72-1.26-1.62-.78-.9-1.68-1.86-.9-.96-1.83-1.86-.93-.9-1.65-1.56l1.56-1.14q.66.6 1.53 1.47t1.77 1.83q.9.96 1.74 1.89.84.93 1.38 1.65zm12.06 16.68h19.62v1.86H247.4V35.8h19.56V22.3h-16.38v-1.86h28.32q.72-.78 1.68-1.86t1.92-2.22q.96-1.14 1.8-2.16.84-1.02 1.38-1.74l1.62 1.08q-.48.66-1.17 1.5t-1.47 1.77q-.78.93-1.62 1.86-.84.93-1.56 1.77h15.42v1.86h-16.44v13.5zm-11.58-13.5v13.5h9.72V22.3h-9.72zm-6.06 10.02l-1.44 1.38q-.66-.84-1.65-1.98-.99-1.14-2.1-2.34t-2.16-2.28q-1.05-1.08-1.77-1.8l1.32-1.38q.78.72 1.83 1.83t2.16 2.31q1.11 1.2 2.13 2.34 1.02 1.14 1.68 1.92zm22.98 1.44l-1.38-1.38q.9-.78 2.04-1.89 1.14-1.11 2.22-2.28 1.08-1.17 2.04-2.25t1.62-1.92l1.38 1.26q-.66.78-1.62 1.89-.96 1.11-2.07 2.28-1.11 1.17-2.22 2.31-1.11 1.14-2.01 1.98zm-29.22 33.06V43.66h34.32V66.7h-1.92v-3.12H258.5v3.24h-1.92zm32.4-21.3H258.5v7.32h30.48v-7.32zM258.5 61.66h30.48v-7.02H258.5v7.02zm73.26-35.64v-5.1H308v-1.86h23.76v-6.24l1.92.12v6.12h23.64v1.86h-23.64v5.1h18.48v15.66h-18.48v5.76q4.62-.12 8.88-.18 4.26-.06 7.68-.18-1.02-1.08-1.95-2.01l-1.59-1.59 1.5-1.08 2.01 2.01q1.17 1.17 2.37 2.46 1.2 1.29 2.31 2.52t1.89 2.13l-1.32 1.44q-.66-.84-1.62-1.92-.96-1.08-2.04-2.28-2.82.06-6.39.15t-7.5.18q-3.93.09-8.07.21-4.14.12-8.01.21t-7.38.18q-3.51.09-6.15.15l-.06-1.86 23.52-.48v-5.82h-18.6V26.02h18.6zm0 1.74H315.2v5.28h16.56v-5.28zm18.36 0h-16.44v5.28h16.44v-5.28zM315.2 40h16.56v-5.4H315.2V40zm18.48 0h16.44v-5.4h-16.44V40zm4.74 17.46l-1.32 1.38q-.54-.6-1.53-1.56-.99-.96-2.1-2.01-1.11-1.05-2.19-2.01-1.08-.96-1.8-1.5l1.26-1.32q.66.54 1.71 1.47 1.05.93 2.19 1.95t2.16 2.01q1.02.99 1.62 1.59zm-29.58 7.08l-1.62-1.14q.96-1.14 1.98-2.58 1.02-1.44 1.95-2.97.93-1.53 1.8-3.06t1.53-2.91l1.68.9q-1.38 2.94-3.39 6.12-2.01 3.18-3.93 5.64zm39.78-11.28l1.62-1.02q.84 1.02 1.89 2.43 1.05 1.41 2.13 2.91 1.08 1.5 2.07 2.91.99 1.41 1.71 2.43l-1.74 1.02q-.72-1.14-1.68-2.55t-1.98-2.85q-1.02-1.44-2.07-2.82-1.05-1.38-1.95-2.46zm-5.4 6.48q.06-.36.12-1.02t.12-1.29q.06-.63.09-1.14.03-.51.03-.63l1.86.72q0 .18-.03.66-.03.48-.09 1.08l-.12 1.2q-.06.6-.12 1.02-.24 1.38-.63 2.25-.39.87-1.11 1.35-.72.48-1.89.72t-2.97.36q-5.76.36-11.52 0-1.62-.12-2.76-.39-1.14-.27-1.86-.87-.72-.6-1.05-1.53-.33-.93-.33-2.37v-7.38l2.04.12v6.78q0 1.14.21 1.83.21.69.72 1.11.51.42 1.35.6.84.18 2.16.24 5.4.36 10.8 0 1.5-.06 2.37-.21.87-.15 1.38-.51.51-.36.78-.99t.45-1.71zm73.32-32.94H399.8q3.06 8.22 8.07 15.33 5.01 7.11 11.25 12.57l-1.44 1.74q-6.36-5.58-11.22-12.63-4.86-7.05-7.92-15.27v25.08h10.8v1.98h-10.8v11.28h-2.1V55.6h-10.98v-1.98h10.98V28.06q-1.5 4.14-3.36 7.86-1.86 3.72-4.17 7.23-2.31 3.51-5.16 6.9-2.85 3.39-6.33 6.87l-1.56-1.8q3.42-3.3 6.27-6.6 2.85-3.3 5.22-6.78 2.37-3.48 4.29-7.17t3.48-7.77H379.7v-2.1h16.74V12.94l2.1.12V24.7h18v2.1zm-38.52-13.2l2.1.42q-1.92 6.42-4.74 12.66V66.4h-2.04V30.94q-1.86 3.66-3.81 6.87t-3.93 5.85l-1.56-1.38q1.86-2.52 3.87-5.82 2.01-3.3 3.87-7.08 1.86-3.78 3.48-7.83 1.62-4.05 2.76-7.95zm63.9 19.74q-.48.06-.99.12t-1.35.24l-.42-1.98q.84-.3 1.2-.45.36-.15.66-.51 1.08-1.14 2.52-3.12 1.44-1.98 2.94-4.35 1.5-2.37 2.94-4.95t2.58-4.92l1.74.96q-1.08 2.28-2.43 4.68t-2.79 4.68q-1.44 2.28-2.82 4.23-1.38 1.95-2.52 3.21.84 0 2.4-.06t3.3-.15q1.74-.09 3.33-.15t2.43-.12q1.32-1.92 2.46-3.78 1.14-1.86 2.1-3.54l1.74 1.08q-1.2 2.1-2.88 4.77-1.68 2.67-3.69 5.58t-4.26 5.85q-2.25 2.94-4.53 5.52 1.08-.12 3.36-.42l4.56-.6 4.11-.54q1.83-.24 2.01-.3l.12 2.04q-.12.06-1.29.21t-2.85.39q-1.68.24-3.6.51l-3.63.51q-1.71.24-2.94.42t-1.41.18q-.66.12-1.26.21t-1.56.33l-.48-2.1q.66-.18 1.11-.33.45-.15.75-.33.3-.18.6-.48t.66-.78q1.92-2.1 4.41-5.4 2.49-3.3 5.01-6.96l-2.97.15q-1.77.09-3.48.18t-3.09.15q-1.38.06-1.8.12zm50.22 5.46v2.04h-15.3v25.5h-2.16v-25.5h-15.6V38.8h15.6V20.68q-3.6.6-6.93 1.08-3.33.48-6.03.78l-.24-2.04q2.76-.3 6.36-.84 3.6-.54 7.32-1.17 3.72-.63 7.23-1.35 3.51-.72 6.21-1.38l.36 2.04q-2.52.66-5.61 1.26-3.09.6-6.51 1.2V38.8h15.3zm-29.52 17.16l.06 1.14.12.96q-2.34.54-5.52 1.17-3.18.63-6.57 1.26t-6.57 1.2q-3.18.57-5.52.93l-.3-2.1q2.34-.36 5.55-.9t6.57-1.17q3.36-.63 6.6-1.29 3.24-.66 5.58-1.2zm37.32-21.78q-.36 0-.75.06t-1.17.24l-.48-1.92q.78-.24 1.05-.48t.51-.54q.96-1.14 2.19-3.21 1.23-2.07 2.52-4.53 1.29-2.46 2.49-5.04 1.2-2.58 2.1-4.8l1.8.72q-.9 2.1-2.07 4.62t-2.46 4.95q-1.29 2.43-2.52 4.53t-2.19 3.42l9.48-.6q1.08-1.92 2.04-3.69t1.68-3.33l1.68.84q-1.2 2.52-2.91 5.61-1.71 3.09-3.51 6.09-1.8 3-3.54 5.7t-3 4.38q.18 0 1.11-.12.93-.12 2.22-.3t2.73-.42 2.73-.42q1.29-.18 2.16-.33.87-.15.99-.15l.12 1.98q-.12 0-1.02.12t-2.22.33q-1.32.21-2.88.42-1.56.21-3 .42t-2.55.39q-1.11.18-1.47.24-.6.12-1.32.3-.72.18-1.02.3l-.54-2.04q1.02-.3 1.38-.6.36-.3.9-1.02 1.74-2.4 3.9-5.76t4.26-6.96q-1.02.06-2.46.15l-2.85.18q-1.41.09-2.58.15-1.17.06-1.53.12zm18.36-15.9h27.96v47.7h-2.04v-4.5h-23.88v4.5h-2.04v-47.7zm13.08 2.1h-11.04V38.8h11.04V20.38zm12.84 18.42V20.38H533.3V38.8h10.92zm-23.88 2.16V59.5h11.04V40.96h-11.04zM533.3 59.5h10.92V40.96H533.3V59.5zm-17.16-3.18l.06.96.06 1.14q-1.8.42-4.32.93-2.52.51-5.19 1.02-2.67.51-5.22.99t-4.35.78l-.24-1.98q1.8-.24 4.35-.72t5.22-1.02q2.67-.54 5.22-1.08t4.41-1.02z"/></svg>