<svg viewBox="0 0 538 80" xmlns="http://www.w3.org/2000/svg"><path d="M47.76 62h9.36l-6.24-41.64H38.76L15.06 62h9.78l5.58-10.32H46.5zM34.14 44.78l8.88-16.44h.72l1.98 16.44zm35.28 17.58c1.14 0 2.4-.12 3.36-.3l1.38-6.48c-.48.12-1.02.18-1.62.18-1.44 0-2.16-.48-2.16-2.04 0-2.34 1.26-9.24 7.32-37.32h-8.4c-4.8 22.02-7.62 34.92-7.62 39.3 0 4.98 3.06 6.66 7.74 6.66zM88.8 25.4c1.62 0 3.3-.12 4.02-.78.9-.78 1.5-3.36 1.5-5.34 0-2.16-.72-2.88-4.14-2.88-1.68 0-3.18.18-3.96.9-1.08 1.08-1.56 3.48-1.56 5.46 0 2.22 1.14 2.64 4.14 2.64zM77.76 62h8.4l6.24-32.4H84zm29.7.6c13.86 0 19.56-11.76 19.56-23.16 0-6.78-3.24-10.44-9.72-10.44-4.38 0-7.86 2.64-9.9 6.06h-.36c1.56-6.54 3.36-13.74 4.74-18.66h-8.34c-2.7 11.7-6.18 27.48-8.52 39.78 2.28 3.84 6.84 6.42 12.54 6.42zm.48-6.72c-2.58 0-3.66-1.32-3.84-2.46 0-5.04 4.68-17.82 10.86-17.82 2.76 0 3.6 1.62 3.6 4.98 0 6.18-2.88 15.3-10.62 15.3zm32.76 6.72c6.12 0 8.82-3.66 10.56-7.74h.36c-.24 1.02-.36 1.86-.36 2.58 0 2.94 1.26 4.92 5.52 4.92 1.92 0 3.18-.24 4.38-.6l1.32-6.06c-.78.24-1.26.3-2.1.3-1.26 0-1.74-.48-1.74-2.04 0-2.7 1.86-11.16 3.78-19.14l-.48-.6c-2.1-2.76-6.36-5.22-12.12-5.22-12.84 0-18.78 11.58-18.78 22.62 0 7.56 3.54 10.98 9.66 10.98zm2.4-6.6c-2.7 0-3.6-2.16-3.6-5.58 0-7.2 3.72-14.88 9.78-14.88 2.7 0 4.32 1.44 4.62 2.52 0 4.8-4.8 17.94-10.8 17.94zm36.3 6.6c13.86 0 19.56-11.76 19.56-23.16 0-6.78-3.24-10.44-9.72-10.44-4.38 0-7.86 2.64-9.9 6.06h-.36c1.56-6.54 3.36-13.74 4.74-18.66h-8.34c-2.7 11.7-6.18 27.48-8.52 39.78 2.28 3.84 6.84 6.42 12.54 6.42zm.48-6.72c-2.58 0-3.66-1.32-3.84-2.46 0-5.04 4.68-17.82 10.86-17.82 2.76 0 3.6 1.62 3.6 4.98 0 6.18-2.88 15.3-10.62 15.3zm32.76 6.72c6.12 0 8.82-3.66 10.56-7.74h.36c-.24 1.02-.36 1.86-.36 2.58 0 2.94 1.26 4.92 5.52 4.92 1.92 0 3.18-.24 4.38-.6l1.32-6.06c-.78.24-1.26.3-2.1.3-1.26 0-1.74-.48-1.74-2.04 0-2.7 1.86-11.16 3.78-19.14l-.48-.6c-2.1-2.76-6.36-5.22-12.12-5.22-12.84 0-18.78 11.58-18.78 22.62 0 7.56 3.54 10.98 9.66 10.98zm2.4-6.6c-2.7 0-3.6-2.16-3.6-5.58 0-7.2 3.72-14.88 9.78-14.88 2.7 0 4.32 1.44 4.62 2.52 0 4.8-4.8 17.94-10.8 17.94zm49.5 6.6c12.12 0 17.76-3.66 17.76-14.1 0-5.34-2.1-7.68-9.54-11.1-5.28-2.34-6.12-2.88-6.12-5.34 0-4.08 2.58-5.16 7.32-5.16 3.6 0 8.1.96 9.96 1.68l1.5-7.32c-2.1-.78-6.48-1.5-11.16-1.5-10.62 0-16.32 3.36-16.32 13.98 0 5.16 2.52 6.96 9 9.84 5.04 2.22 6.48 3.3 6.48 6.06 0 4.44-3.06 5.52-8.4 5.52-4.08 0-8.64-.84-11.28-1.68l-1.38 7.68c2.52.72 7.74 1.44 12.18 1.44zm32.64 0c6.12 0 8.82-3.66 10.56-7.74h.36c-.24 1.02-.36 1.86-.36 2.58 0 2.94 1.26 4.92 5.52 4.92 1.92 0 3.18-.24 4.38-.6l1.32-6.06c-.78.24-1.26.3-2.1.3-1.26 0-1.74-.48-1.74-2.04 0-2.7 1.86-11.16 3.78-19.14l-.48-.6c-2.1-2.76-6.36-5.22-12.12-5.22-12.84 0-18.78 11.58-18.78 22.62 0 7.56 3.54 10.98 9.66 10.98zm2.4-6.6c-2.7 0-3.6-2.16-3.6-5.58 0-7.2 3.72-14.88 9.78-14.88 2.7 0 4.32 1.44 4.62 2.52 0 4.8-4.8 17.94-10.8 17.94zm46.14-27c-4.56 0-7.68 1.86-9.78 5.04l.84-4.44h-8.4L322.14 62h8.4l4.02-20.94c1.2-3.3 3.9-5.52 7.32-5.52 2.52 0 3.96 1.08 3.96 3.72 0 .72-.24 2.22-.42 3.18L341.52 62h8.4L354 41.18c.18-1.08.42-2.64.42-3.66 0-5.34-2.64-8.52-8.7-8.52zm19.26 33.36c7.62 0 13.26-2.4 13.26-11.28 0-4.56-2.22-6.3-5.88-8.28-3.96-2.1-4.56-2.7-4.56-4.14 0-2.28 1.2-3.24 4.68-3.24 2.76 0 5.46.6 6.96 1.2l1.38-6.54c-1.86-.6-4.98-1.08-7.62-1.08-7.68 0-13.32 2.52-13.32 11.04 0 4.2 2.16 5.82 6.12 7.92 3.42 1.74 4.2 2.58 4.2 4.32 0 2.4-1.44 3.36-4.62 3.36-2.58 0-5.52-.54-8.22-1.5l-1.2 7.14c2.58.66 5.94 1.08 8.82 1.08zM398.1 62h15.06c12.06 0 16.32-3.48 17.58-11.04.18-.96.24-2.28.24-3.06 0-3.78-1.5-6.48-5.46-7.56l.06-.24c3.6-.84 6.72-3.3 7.5-7.5.18-.96.3-2.46.3-3.48 0-5.88-3.72-8.76-14.16-8.76h-13.08zm13.44-24.24l2.04-10.38h3c5.76 0 7.68.6 7.68 3.84 0 .6-.06 1.26-.12 1.86-.78 3.9-3.3 4.68-9.48 4.68zm-3.36 17.16l2.16-11.04h4.2c6.12 0 7.62 1.26 7.62 4.32 0 .48-.06 1.14-.12 1.8-.72 4.08-2.94 4.92-9.54 4.92zm42.42 7.68c13.08 0 17.7-10.62 17.7-21.3 0-7.14-3.36-12.3-13.38-12.3-13.8 0-17.7 12.12-17.7 21.6 0 6.42 3.6 12 13.38 12zm.48-6.6c-4.26 0-5.4-3.06-5.4-6.42 0-5.46 2.28-13.98 8.52-13.98 4.44 0 5.52 2.88 5.52 6.48 0 6.24-2.88 13.92-8.64 13.92zm29.34 6.36c1.14 0 2.4-.12 3.36-.3l1.38-6.48c-.48.12-1.02.18-1.62.18-1.44 0-2.16-.48-2.16-2.04 0-2.34 1.26-9.24 7.32-37.32h-8.4c-4.8 22.02-7.62 34.92-7.62 39.3 0 4.98 3.06 6.66 7.74 6.66zm19.14.24c5.88 0 8.82-3.36 10.68-7.68h.36c-.24.96-.42 1.8-.42 2.52 0 2.82 1.26 4.92 5.4 4.92 2.04 0 3.48-.24 4.62-.6l1.26-6.06c-.66.24-1.38.3-2.22.3-1.08 0-1.56-.48-1.56-2.04 0-2.64 1.62-9.9 3.42-17.82l4.56-19.74h-8.4l-3 14.1c-1.56-1.02-3.72-1.5-6.12-1.5-12.3 0-18.18 12.06-18.18 23.1 0 6.84 3.48 10.5 9.6 10.5zm2.46-6.6c-2.52 0-3.54-1.98-3.54-5.16 0-7.62 3.6-15.3 9.84-15.3 2.7 0 4.44 1.44 4.5 2.58 0 4.68-4.74 17.88-10.8 17.88z"/></svg>