<svg viewBox="0 0 577 80" xmlns="http://www.w3.org/2000/svg"><path d="M15.16 66.24V13.98h18.06v7.08q-.48 1.74-.93 3.27-.45 1.53-.93 3.03-.48 1.5-1.02 3.03-.54 1.53-1.2 3.33.66 1.38 1.38 2.67.72 1.29 1.32 2.91.6 1.62.99 3.81t.39 5.31q0 2.64-.45 4.14-.45 1.5-1.32 2.34-.87.84-2.04 1.2t-2.61.6l-2.58.48-2.04-6.96 2.4-.42q.72-.18 1.17-.33.45-.15.72-.54.27-.39.39-1.08.12-.69.12-1.95 0-1.56-.42-3.06t-1.08-2.94q-.66-1.44-1.5-2.82t-1.68-2.64q1.32-3.24 2.46-6.63 1.14-3.39 1.8-6.75h-4.68v45.18h-6.72zM65.8 15.06v7.14h-3.9v33.6q0 2.88-.3 4.71t-1.2 2.91q-.9 1.08-2.58 1.59-1.68.51-4.44.69l-4.86.36-1.98-7.38 4.68-.36q1.14-.06 1.83-.3.69-.24 1.11-.75.42-.51.57-1.41.15-.9.15-2.28V22.2H34.84v-7.14H65.8zM51.88 27.12v24.96H34.84V27.12h17.04zM45.4 45.6V33.66h-4.62V45.6h4.62zm56.82 12.12h22.02v6.84h-51.6v-6.84h22.2v-4.08H77.2v-6.9h17.64v-4.08H77.2v-28.8h42.6v28.8h-17.58v4.08h17.7v6.9h-17.7v4.08zm-7.38-37.08H84.4v4.38h10.44v-4.38zm17.82 4.38v-4.38h-10.44v4.38h10.44zM84.4 35.94h10.44V31.5H84.4v4.44zm17.82 0h10.44V31.5h-10.44v4.44zm74.22 12.48l7.98 2.7q-.06.9-.3 2.49-.24 1.59-.54 3.27-.48 2.34-1.02 3.87-.54 1.53-1.59 2.43-1.05.9-2.79 1.32-1.74.42-4.56.54-14.1.72-28.2 0-2.76-.12-4.68-.66t-3.12-1.71q-1.2-1.17-1.74-3.09t-.54-4.86V14.1h44.04v27.24H143.2v11.34q0 1.5.21 2.43.21.93.75 1.47.54.54 1.5.78t2.52.3q6 .36 11.64.36 5.64 0 11.46-.36 1.26-.06 2.04-.24t1.23-.63q.45-.45.72-1.23.27-.78.57-2.04.3-1.32.42-2.7.12-1.38.18-2.4zm-22.92-27.06H143.2v12.6h10.32v-12.6zm17.88 12.6v-12.6h-10.2v12.6h10.2zm64.08 14.46l7.98 2.7q-.06.9-.3 2.49-.24 1.59-.54 3.27-.48 2.34-1.02 3.87-.54 1.53-1.59 2.43-1.05.9-2.79 1.32-1.74.42-4.56.54-14.1.72-28.2 0-2.76-.12-4.68-.66t-3.12-1.71q-1.2-1.17-1.74-3.09t-.54-4.86V14.1h44.04v27.24h-36.18v11.34q0 1.5.21 2.43.21.93.75 1.47.54.54 1.5.78t2.52.3q6 .36 11.64.36 5.64 0 11.46-.36 1.26-.06 2.04-.24t1.23-.63q.45-.45.72-1.23.27-.78.57-2.04.3-1.32.42-2.7.12-1.38.18-2.4zm-22.92-27.06h-10.32v12.6h10.32v-12.6zm17.88 12.6v-12.6h-10.2v12.6h10.2zm61.26-1.56h10.08v6.3h-52.14v-6.3h10.26q-1.38-1.5-3.03-3.3-1.65-1.8-2.79-3l3-2.94h-4.56V16.8h10.74l-1.62-4.38 8.1-.6 1.38 4.98h9.06l1.68-4.98 7.92.6-1.8 4.38h10.98v6.36h-5.16l3.48 2.76q-1.02 1.38-2.61 3.21-1.59 1.83-2.97 3.27zm-25.14-9.24h-6.24q1.38 1.38 2.91 3 1.53 1.62 2.67 2.94l-3.48 3.3h4.14v-9.24zm11.64 9.24v-9.24h-4.92v9.24h4.92zm11.04 0l-3.54-3q1.38-1.38 2.91-3.03 1.53-1.65 2.73-3.21h-6.36v9.24h4.26zm-32.7 32.7V40.8h38.4v24.3h-38.4zm31.14-18.06H263.8v3.12h23.88v-3.12zM263.8 59.28h23.88v-3.24H263.8v3.24zm97.14-10.62l-4.56 3.9q1.32 1.86 2.58 3.96 1.26 2.1 2.1 3.78l-6.12 3.78q-.6-1.5-1.41-3.12-.81-1.62-1.71-3.09-.9-1.47-1.77-2.76-.87-1.29-1.59-2.13l4.98-3.06-.48-.72q-.24-.36-.54-.72-3.06.18-7.23.36t-8.67.36q1.2 1.14 2.55 2.52 1.35 1.38 2.31 2.52l-4.44 4.08q-.66-.84-1.53-1.86t-1.74-1.95q-.87-.93-1.68-1.74-.81-.81-1.23-1.17l2.34-2.28q-4.98.18-9.54.3-4.56.12-7.86.24l4.98 2.64q-1.38 3.24-3.3 6.51-1.92 3.27-3.78 5.73l-6.06-3.84q1.86-2.22 3.69-5.19 1.83-2.97 3.15-5.79l-3.84.12-.12-5.82q.9 0 2.88-.03t4.77-.06q2.79-.03 6.18-.06 3.39-.03 7.11-.09v-3h-17.82v-18h17.82v-2.04h-20.88v-5.46h20.88v-3.66l6.66.3v3.36h20.94v5.46h-20.94v2.04h17.58v18h-.78q.78.96 1.62 2.01.84 1.05 1.65 2.1.81 1.05 1.56 1.98.75.93 1.29 1.59zm-29.58-20.7h-10.68v1.98h10.68v-1.98zm17.16 0h-10.5v1.98h10.5v-1.98zm-27.84 8.28h10.68v-2.1h-10.68v2.1zm27.84-2.1h-10.5v2.1h10.5v-2.1zm-10.5 9.72l10.74-.36q-.24-.3-.42-.54l-.36-.48 2.16-1.5h-12.12v2.88zm4.5 13.38q.12-.66.21-1.26t.21-1.8l6.3 1.8q0 1.86-.36 3.84-.3 1.62-.84 2.64t-1.53 1.62q-.99.6-2.52.87t-3.87.39q-5.64.3-11.28 0-4.2-.18-5.97-1.59-1.77-1.41-1.77-4.53v-8.4l7.5.3v5.76q0 1.62.51 2.01.51.39 2.07.45 1.98.18 3.99.15 2.01-.03 3.99-.15 1.8-.12 2.46-.51.66-.39.9-1.59zm80.16-7.14l-5.46 6.66q-2.64-2.82-4.71-5.43t-3.69-5.16q-1.62-2.55-2.94-5.1-1.32-2.55-2.52-5.25v14.22h7.98v6.84h-7.98V66h-7.26v-9.12H388v-6.42q-1.14 1.44-2.31 2.82-1.17 1.38-2.43 2.7l-2.64-3v12.48h-7.02V39.54q-.84 1.2-1.65 2.31-.81 1.11-1.65 2.13l-5.16-5.88q2.4-3.06 4.38-6.33t3.54-6.57q1.56-3.3 2.76-6.54 1.2-3.24 2.04-6.24l7.26 1.62q-.66 2.28-1.8 5.49-1.14 3.21-2.7 6.81V47.4q3.72-3.78 6.9-8.37t5.82-10.71h-9.84v-7.38h12.6v-8.82l7.26.3v8.52h14.4v7.38h-11.7q1.68 3.42 3.54 6.39 1.86 2.97 3.93 5.61 2.07 2.64 4.35 5.04t4.8 4.74zm-34.32-.06h7.74V36.96q-3.18 7.08-7.74 13.08zm102.18 7.8h4.02v7.14h-33.6v-7.14h4.74v-38.1q-.36 1.2-.87 2.7-.51 1.5-1.08 3.03-.57 1.53-1.11 2.94-.54 1.41-1.02 2.49l-4.32-1.62v2.58h7.02v7.26h-7.02v3.72l1.62-1.74q1.74 1.56 3.3 3.15 1.56 1.59 3.06 3.45l-4.32 5.4q-.96-1.5-1.86-2.88-.9-1.38-1.8-2.58v18h-6.9V48.36q-1.32 2.4-2.82 4.77-1.5 2.37-3.42 4.95l-3.78-6.24q2.22-2.7 4.5-6.06 2.28-3.36 4.02-6.66h-5.94v-7.26h7.44v-3.3l-4.98 2.28q-.36-1.26-.87-2.91-.51-1.65-1.08-3.3-.57-1.65-1.14-3.18-.57-1.53-.99-2.61l5.7-2.1q.36.84.78 1.95.42 1.11.87 2.37t.9 2.58q.45 1.32.81 2.52V12.48l6.9.36v13.2q.9-2.34 1.77-4.92t1.47-4.44l5.16 1.98v-4.98h24.84v44.16zm-6.96-36.96h-10.8v7.44h10.8v-7.44zm0 22.14v-7.74h-10.8v7.74h10.8zm-10.8 7.14v7.68h10.8v-7.68h-10.8zm83.4-.06l-5.46 6.66q-2.64-2.82-4.71-5.43t-3.69-5.16q-1.62-2.55-2.94-5.1-1.32-2.55-2.52-5.25v14.22h7.98v6.84h-7.98V66h-7.26v-9.12h-8.1v-6.42q-1.14 1.44-2.31 2.82-1.17 1.38-2.43 2.7l-2.64-3v12.48h-7.02V39.54q-.84 1.2-1.65 2.31-.81 1.11-1.65 2.13l-5.16-5.88q2.4-3.06 4.38-6.33t3.54-6.57q1.56-3.3 2.76-6.54 1.2-3.24 2.04-6.24l7.26 1.62q-.66 2.28-1.8 5.49-1.14 3.21-2.7 6.81V47.4q3.72-3.78 6.9-8.37t5.82-10.71H517v-7.38h12.6v-8.82l7.26.3v8.52h14.4v7.38h-11.7q1.68 3.42 3.54 6.39 1.86 2.97 3.93 5.61 2.07 2.64 4.35 5.04t4.8 4.74zm-34.32-.06h7.74V36.96q-3.18 7.08-7.74 13.08z"/></svg>