<svg viewBox="0 0 335 80" xmlns="http://www.w3.org/2000/svg"><path d="M28.78 61q-.48 0-.81-.3-.33-.3-.33-.72v-7.86q0-.72-3.06-1.32-3.06-.6-5.04-.6-.12 0-.39.9t-.39 1.32q-.78 3.12-1.56 6.66l-.3 1.32q-.12.48-.6.48t-.87-.3q-.39-.3-.39-.72l.06-.12v-.06l.66-3q.72-2.82 1.26-5.52.6-3.06.9-3.96.48-1.98 1.92-9.9l.36-1.98q1.56-9.24 2.16-11.64.3-1.44 1.08-4.26.3-1.2.84-2.4.54-1.02.9-1.02.96 0 1.38.6.3.54.93 5.94.63 5.4 1.11 10.92l.78 9.96q0 2.58.36 7.8.36 5.28.36 7.86v.24q0 .66-.18 1.2-.24.48-1.14.48zm-2.4-11.58q1.2 0 1.2-.6 0-3.72-.42-10.17-.42-6.45-.9-11.37-.12-2.1-.48-4.62l-.24-2.34q0 .06-.12-.66l-.12-.72q-.48 1.32-.93 3.66-.45 2.34-.93 5.52-1.44 8.94-2.46 13.44l-.54 2.04q-.9 3-.9 4.56v.36q2.64.84 6.06.84h.36q.18.06.42.06zm35.82 14.7q-1.2 0-1.2-3.84v-3.96q0-8.64-.36-13.5l-.18-2.22q-.24-1.5-.24-2.64 0-2.04.12-3.72l.12-3.72q0-1.86-.24-2.82-1.2.84-7.26 25.26l-.06.9q-.18 1.5-.48 2.4-.18.66-.51 1.02t-.75.36q-.96 0-1.38-.48-.42-.48-.42-1.5 0-1.62-1.53-8.4t-3.3-13.02q-1.77-6.24-2.43-6.9-.06 2.1-.48 9.9-.84 13.8-.84 21.72l.06 2.4q-.24.78-1.26.78-.18 0-.6-.33t-.42-.51q0-5.4.96-18.96.9-12.6.9-18.9 0-.3-.12-.6-.18-.36-.18-.54 0-.9 1.56-.9 1.02 0 1.2.9.24 1.2.24 1.8l.06.72q.3 1.56 1.74 4.8 1.14 2.58 1.74 4.5.36 1.44.66 2.34.96 3.48 1.26 5.16l.78 1.56q.18.9.72 2.94.54 2.28.78 3.72.24 1.44.24 2.76.66-1.02 3.75-12.27t3.63-14.37q.06-.12.09-.33.03-.21.09-.57.12-.78.54-2.34.48-1.2 1.44-1.2.42 0 .96.36t.54.72q0 25.02.78 26.46v3.12q-.06 1.38-.06 3.18 0 3.84.42 5.76.06.06.09.18t.09.3q.06.24.06.54 0 .66-.39 1.32t-.93.66zm-1.98-36.66v-.12h-.06l-.12.06.18.06zm24.12 34.08q-.9 0-1.14-.21-.24-.21-.36-1.11-.54-4.38-.66-5.46l-.3-2.4q-1.32-.3-3-.3l-2.16-.12q-1.44-.18-2.1-.18-.36 0-.42.3 0 .18-.06.18l-.12 1.2q-.06 1.08-.66 4.32-.3 1.62-.72 2.52-.48 1.02-.9 1.02-.36 0-.78-.33-.42-.33-.42-.69l.06-.18.06-.18q1.08-4.26 1.8-8.46l.72-3.72.72-4.56.66-3.96q.3-1.62 1.08-5.22.84-4.08 1.02-5.58.06-.18.24-2.22.24-2.28.42-3.36.18-1.56.36-1.8h.42q.18.06.42.06.72 0 1.08-.36.42 0 .75.27t.33.63q0 2.88.42 6.6.24 1.92.36 3.18.66 7.74 3.36 29.04v.18q0 .6-.48.9zm-3.36-10.8h.6q-.6-8.64-2.28-25.5l-3.24 16.02q-1.38 6.9-1.38 8.7 0 .3 2.28.54 2.28.24 4.02.24zm14.94 9.9l-.66-.48-.06-2.22q-.06-.96-.06-2.16 0-.6.06-1.02l.06-1.08q0-.6-.24-1.44 0-4.02-.6-14.94-.6-10.56-.66-14.34-3.72 0-4.98-.18-1.2-.3-1.2-.96.3-.66 1.14-.66 1.8 0 5.22.24 3.12.3 5.22.3h1.26l1.26-.06q1.08 0 1.08.78 0 .36-.39.57-.39.21-.93.21-1.2 0-2.52-.12l-2.58-.12q-.24 0-.24.18-.06.18-.06 1.14 0 5.82.72 17.64.66 12.24.66 17.58 0 .42-.51.78-.51.36-.99.36zm16.44.36q-1.38 0-1.62-.6-.3 0-.48.06h-.48q-1.32 0-1.68-.6 0-.42.48-.72l.3-.3h1.74l.24-.24.12-.54.06-.72q0-3.66-.18-6.54l-.12-2.22-.12-4.38q0-2.34.18-7.02l.12-6.96q0-4.56-.3-6.96-.54-.18-1.8-.18l-.66.06q-.36.06-.78.06-1.14 0-1.14-1.02 0-.24.54-.48t.9-.24q2.28 0 4.56.24 1.38.06 2.76.54 1.08.36 1.08 1.02 0 .12-.18.48l-1.38.12q-.42-.36-1.74-.36l-.3.18q.18.54.18 3.18 0 3.96-.06 7.14l-.12 7.14q0 2.7.24 6.54.18 4.38.18 6.6v.78q-.06.42-.06 1.08 0 1.38.18 1.68l-.06.12q0 .6 1.32.6.54 0 .9-.06h.9q1.74 0 1.74.84 0 .54-.36.87-.36.33-.96.33-.54 0-.96-.12-.48-.06-1.02-.06-.36 0-1.08.3-.72.36-1.08.36zm16.86.96l-1.44-.54q-1.14-.36-1.95-1.02t-1.53-1.98q-1.26-2.4-1.5-6.9-.12-2.04-.12-3.6v-6.84q0-3.9.24-7.56.18-2.7.54-4.56.36-1.86 1.14-3.72.84-1.92 1.86-2.7.42-.36 1.62-.84.78-.3 1.5-.66h2.58q.06.06.18.06l.3.06.24.18q.18.18.18.24.06.12.06.36l-.78.9h-2.52q-1.14 0-2.07 1.11-.93 1.11-1.41 2.79-.48 1.5-.78 3.54-.3 2.04-.36 3.54-.12 1.92-.12 2.64l-.12.3q0 3.36-.12 6.06l-.12 6.06q0 2.64.36 4.86.3 2.4 1.74 4.32 1.38 1.92 4.26 1.92.9 0 1.5-.54.9 0 .9.66 0 .42-.75.99-.75.57-1.53.87h-1.98zm24.06.36q-1.08 0-1.65-.09-.57-.09-1.23-.39-.72-.36-1.08-1.02 0-.72.66-.72t1.68.42q.96.48 1.62.48 1.32 0 2.43-1.08t1.71-2.82q1.2-3.42 1.2-6.06 0-2.94-.84-5.94-.84-3-2.22-5.64-.3-.66-1.02-1.98-1.5-3-2.28-4.68-.78-1.68-1.38-3.72-.84-2.7-.84-5.82 0-1.98.63-3.81t2.01-3.15q1.5-1.38 3.36-1.38.72 0 1.74.57t1.02 1.11q0 .48-.36.48t-.96-.3q-.54-.3-1.02-.3-1.38 0-2.43 1.02-1.05 1.02-1.53 2.52-.42 1.26-.42 2.76 0 2.34.6 4.83t1.62 4.65l2.1 4.38.6 1.26q1.26 2.58 1.95 4.26.69 1.68 1.17 3.78.66 2.82.66 5.4 0 3.48-1.8 7.08-.9 1.74-2.4 2.82-1.5 1.08-3.3 1.08zm23.4-.36q-1.68 0-3.54-1.32t-2.64-3q-.72-1.56-1.47-9.9t-.75-12.42v-3.18q-.06-1.38-.06-3.06 0-3.12.36-6.18.24-1.5.63-2.58t1.11-2.1q1.32-2.04 3.96-2.7 1.38-.36 3.06-.36 1.14 0 2.31.66 1.17.66 1.17 1.56 0 .66-.96.66-.36 0-1.38-.42-.9-.42-1.62-.42-1.68 0-3.03.69-1.35.69-2.13 1.83-.66.96-1.14 2.64-.48 1.68-.6 3.36-.18 1.5-.18 3.6l.06 3.36q.06 1.44.06 3.12 0 4.14.84 12.18t1.62 9.3q.72 1.14 2.13 1.74 1.41.6 2.97.6 2.76 0 4.2-1.74.54-.72 1.14-.72.54 0 .54.84 0 1.08-.66 1.89-.66.81-1.8 1.23-1.92.84-4.2.84zm32.58-.36q-1.2 0-1.5-1.2l-.72-2.64q-1.68-5.58-2.46-9.42-.48-2.1-1.2-5.82-.84-4.32-1.56-7.02l-.6.36-.78.36.12 23.1v.9q0 1.2-1.08 1.2-.48 0-.78-.3-.3-.3-.3-.72v-.9l.12-12.12.12-5.82q.24-10.5.24-17.88v-7.74q0-.54 1.08-.54 1.56 0 2.91.84t2.13 2.28q1.62 2.94 1.62 6.42 0 2.76-1.2 6-.36.9-.9 2.07t-.96 1.59q1.26 4.62 3.66 14.22l2.82 10.8q.06.18.06.66 0 .54-.21.93t-.63.39zm-8.88-27.36q.48 0 1.62-1.14 1.14-1.14 1.62-1.92.42-.84.72-2.52.3-1.68.3-3 0-2.46-.84-5.04-.42-1.5-1.26-2.43-.84-.93-1.86-.93h-.12q-.06.06-.18.06v16.92zm16.68 27.54q-1.08 0-1.2-1.26v-.78q.06-.3.06-.72l-.24-.24q.48-1.26.48-2.46 0-1.38-.18-3.96l-.12-3.96q0-3 .18-9 .24-5.34.24-9.06l-.12-3.6q-.12-1.62-.12-3.6 0-.9.42-1.29t1.32-.39q.6 0 .96.36.12.06 1.74.24 1.5.18 2.58.54 1.14.36 1.14.9 0 .6-1.14 1.2-3.42-1.14-4.86-1.14l-.3.36q.06.54.06 2.58 0 2.58-.12 4.62-.06 2.1-.06 4.68 0 1.68.84 1.68l.96-.06q.48-.06 1.02-.06 2.34 0 2.34 1.08 0 .66-.3 1.11-.3.45-.9.45-.9 0-1.38-.48l-1.92-.3h-.3l-.3.3v.18q.12 1.02.12 4.74 0 2.34-.06 4.26l-.06 4.26q0 2.34.18 4.8.06 1.38.6 1.83.54.45 1.98.45l1.08-.06q.54-.06 1.2-.06 1.74 0 1.74.78 0 1.08-2.64 1.08h-4.92zm21.3-.36q-2.76 0-4.08-.66-1.32-.66-1.95-2.55-.63-1.89-1.11-6.03-.72-6.06-.72-9.42 0-2.04.24-4.68l.36-3.78q.3-4.5.69-6.81.39-2.31 1.74-4.08t4.17-2.07q.3-.06.96-.06 1.86 0 1.86.84 0 .36-.39.63t-.81.27l-.6-.06-.54-.06q-1.02 0-1.83.66T235 25.48q-1.26 3-1.62 5.88-.48 3.78-.6 6.6l-.06 4.62q0 2.94.18 4.38.42.66.57 2.01.15 1.35.27 3.69.12 2.1.54 3.57.42 1.47 1.5 2.43 1.2 1.02 3.3 1.02 1.74 0 2.46-1.92.84-2.04.96-4.2.18-2.7.18-4.56v-3.3q-.6-.6-2.1-.6h-.48q-.3.06-.66.06-1.44 0-1.44-.72 0-1.02 1.44-1.02 1.02 0 1.68.06l1.32.06q1.14.18 1.8.42.72.24.72.66 0 .78-.36 2.22-.3 1.68-.3 2.28 0 2.52.12 4.56.06 2.1.06 4.62-3.06 3.12-6.12 3.12zm19.56.48q-.96 0-2.07-.63-1.11-.63-1.83-1.47-.84-1.08-1.32-6.06-.48-4.98-.6-11.4 0-1.44-.06-2.16-.12-15.06-.48-17.82l.36-.84q1.38.18 1.38 3.3l.18 15.9q0 1.68.3 6.36.36 4.2.36 6.36 0 6.84 4.5 6.84 2.76 0 3.54-12.6l.06-1.2q.42-16.5.42-24.42l-.06-.54q-.06-.24-.06-.54 0-.66 1.02-.66.72 0 .9.36.12.6.12 2.1 0 4.56-.36 6.12l.06.36q0 .78-.18 2.4l-.12 2.4v.6q.06.24.06.6-.12 1.44-.12 2.76-.06.42-.06 1.32-.12 5.7-.24 9.9-.18 5.22-1.44 8.82-1.32 3.84-4.26 3.84zm16.74-.12q-.84 0-1.02-1.38.12-.36.12-1.98 0-5.52.18-16.38.18-10.8.18-15.6l.12-2.16.18-1.8q0-.42.42-.42.3 0 .84.18l.18.06q0 1.32-.06 2.4v8.88q.06 2.88.06 6.54-.06.3-.06 1.32l-.06 1.26q-.06 1.2-.06 2.46 0 1.38.06 2.52l.06 2.58-.18.48.06-.06q0 .18-.06.24v.24q0 .48.18.84l-.18 5.76v.36q0 1.02.06 1.2 0 .3.3.3l3.12.12q1.38 0 1.89.03t.63.03h.18q.3 0 .6.33t.3.69q0 .72-.96.78-1.02-.06-4.98-.06l.12.06q-.6 0-1.14.06-.48.12-1.08.12zm25.68-.24q-.9 0-1.14-.21-.24-.21-.36-1.11-.54-4.38-.66-5.46l-.3-2.4q-1.32-.3-3-.3l-2.16-.12q-1.44-.18-2.1-.18-.36 0-.42.3 0 .18-.06.18l-.12 1.2q-.06 1.08-.66 4.32-.3 1.62-.72 2.52-.48 1.02-.9 1.02-.36 0-.78-.33-.42-.33-.42-.69l.06-.18.06-.18q1.08-4.26 1.8-8.46l.72-3.72.72-4.56.66-3.96q.3-1.62 1.08-5.22.84-4.08 1.02-5.58.06-.18.24-2.22.24-2.28.42-3.36.18-1.56.36-1.8h.42q.18.06.42.06.72 0 1.08-.36.42 0 .75.27t.33.63q0 2.88.42 6.6.24 1.92.36 3.18.66 7.74 3.36 29.04v.18q0 .6-.48.9zm-3.36-10.8h.6q-.6-8.64-2.28-25.5l-3.24 16.02q-1.38 6.9-1.38 8.7 0 .3 2.28.54 2.28.24 4.02.24zm20.34 11.28l-.84-.3q-.72-.78-1.56-4.14-.84-3.36-1.56-7.56-.48-3.42-1.38-6.78-.72-3-1.38-3h-.18q-1.32 0-1.32.84 0 4.32.48 13.14.24 5.4.54 6.3l-.48 1.02h-.84l-.48-.48q-.96-27.72-.96-37.8 0-.66.09-1.08.09-.42.39-.78.24-.42.84-.42 3.06 0 4.92 1.5 1.86 1.5 1.86 4.32v4.38q0 1.14-.75 3.06-.75 1.92-1.65 3.54l-.78 1.5q.66 3.06 2.61 11.01 1.95 7.95 2.13 8.43.06.06.15.3t.39.72q.42.84.42 1.44 0 .84-.66.84zm-7.92-23.28q1.14 0 2.04-1.14.9-1.14 1.44-2.94.96-3.66.96-5.82 0-1.38-.15-2.28-.15-.9-.51-1.92-.72-2.1-3.42-2.1-.3 0-.48.51t-.18 1.05q0 4.02.12 7.26.06 3.24.06 7.26l.12.12z"/></svg>