<svg viewBox="0 0 300 80" xmlns="http://www.w3.org/2000/svg"><path d="M29.48 61q-.96 0-1.41-.36-.45-.36-.45-1.2v-7.86q-.78-.54-2.94-.96-2.16-.42-4.08-.54-.66 1.26-.96 3.06l-.24 1.2q-.06.42-.36 1.86-.3 1.44-.66 2.49-.36 1.05-.72 1.65-2.28 0-2.64-1.2.66-.96 1.5-5.64l1.98-10.98q1.32-7.8 2.43-13.32 1.11-5.52 2.37-9.24 1.38-4.14 2.64-4.14 1.26 0 1.92.48 0 2.4 1.14 11.58 1.2 9 1.2 12.3 0 3.18.66 9.12.6 6.06.6 9.66 0 2.04-1.98 2.04zm-3.12-12.9q.48 0 1.2-.18-.18-2.64-.6-6.54-1.38-13.56-1.38-16.62v-.48q-.6.6-1.65 5.43-1.05 4.83-1.95 10.35-.9 5.52-.96 7.32 2.52.72 5.34.72zm36.48 16.02q-1.86 0-1.86-3.72v-7.68q0-3-.42-7.86-.48-5.46-.48-7.5l.12-3.72q.12-1.62.12-3.66-.24.78-1.98 8.28-1.74 7.26-3.6 13.44-1.8 5.94-2.94 5.94t-1.83-.69q-.69-.69-.69-1.89 0-2.64-2.13-11.22T43.28 29.8l-.36 6.78q-.48 8.58-.66 14.28-.12 5.52-.12 7.56 0 .48.06.9v.84q0 1.02-.42 1.53t-1.56.51q-.6 0-1.14-.45-.54-.45-.54-.99 0-6.12.9-18.36.9-12.24.9-18.36-.36-.54-.36-1.14 0-.72.69-1.11.69-.39 1.65-.39.78 0 2.88 5.64 2.1 5.64 4.2 12.78t2.7 10.32q.48-1.62.78-3l.36-1.44q1.92-8.4 3.84-15.18 1.14-4.14 2.22-6.48 1.08-2.52 1.98-2.52.84 0 1.53.45.69.45.69 1.17 0 4.32.36 12.96.42 8.04.42 12.48l-.06 3.18-.12 3.18q0 .72.18 2.16l.18 2.1q.06.54.09.84.03.3.03.36.3.78.3 1.14 0 1.02-.6 1.8t-1.44.78zm21.3-2.58q-1.38 0-2.04-.42-.66-.42-.66-1.56 0-1.8-.6-6.12l-.24-1.26-5.94-.9q-.36 1.38-1.02 5.58-.36 2.94-1.14 3.9-.42.54-1.2.54-.72 0-1.32-.45-.6-.45-.6-1.11l.12-.3.06-.24q3.96-15.42 6-30.42 0-.24.06-.81.06-.57.12-1.65.18-2.22.39-3.54.21-1.32.69-1.98h2.04q.84 0 1.44.39t.6 1.11q0 4.56 1.26 13.56 1.2 9.24 1.2 12.96 0 .36.3 1.86.3 1.38.3 1.8 0 .42.6 3.6.54 2.88.54 3.72v.06q0 1.32-.96 1.68zm-3.96-11.52q-.18-.9-.18-2.22 0-5.4-.96-13.8l-.6-6.24q-2.58 14.1-3.54 21.3.9.6 5.28.96zm14.52 10.8l-1.08-.78-.06-2.34q-.06-1.02-.06-2.28l.06-2.04q-.18-.66-.9-13.14t-.84-16.02q-3.48-.12-4.44-.72-.66-.48-.66-1.08 0-.48.63-.87t1.29-.39q1.68 0 4.08.24 2.28.3 4.08.3h.96q1.86 0 1.86 1.44 0 .72-.6 1.17-.6.45-1.38.45-.54 0-1.56-.18l-1.2-.24-.06.3-.06.3q0 5.34 1.02 17.04.96 10.98.96 17.04 0 .72-.63 1.26t-1.41.54zm13.92.12q-5.22 0-5.22-1.8 0-1.44 1.86-1.44h.66l.6.06q.48 0 .66-.3.18-.3.18-1.08 0-1.02-.12-3.18-.18-1.44-.42-5.16-.54-9.18-.54-13.86 0-1.68.06-3.06l.06-3.06q0-1.98-.18-3.3-.96.24-1.38.24-1.44 0-1.44-1.44 0-.72.9-1.26t2.28-.78q2.4-.48 4.26-.48.72 0 1.23.51t.51 1.17q0 .66-.39 1.14-.39.48-.99.48-.36 0-.6-.06h-.48q-.6 0-.87.27t-.27.99q0 5.82.72 17.52.12 2.16.48 6.36.3 2.76.3 5.64v2.28q.36-.06 1.2-.06 2.52 0 2.52 2.1v.36l-1.5 1.02q-.06 0-.39.03t-1.23.03q-1.92.12-2.46.12zm18.6.9q-1.32 0-2.79-.39t-2.25-.87q-4.02-2.58-4.02-14.1v-4.92q0-2.4.06-4.29.06-1.89.24-4.11.18-2.34.54-3.81.36-1.47 1.2-3.33.72-1.74 1.77-2.7 1.05-.96 2.73-1.62 1.5-.66 3.72-.66.9 0 1.38.42.48.42.48 1.08 0 .6-.39 1.08-.39.48-.93.54h-2.82q-1.2 0-2.1 1.5-.9 1.5-1.26 3.9-.78 4.44-.78 7.2v.3l-.12 5.76q-.12 2.58-.12 5.82 0 2.28.18 3.72.3 2.16 1.02 3.6.72 1.62 2.46 2.34.9.36 1.98.36.66 0 1.32-.48.78 0 1.29.33t.51.99q0 2.34-3.3 2.34zm23.04.48q-2.16 0-3.72-.78-.96-.54-.96-1.26t.36-1.17q.36-.45 1.02-.45.6 0 1.74.48 1.26.48 1.56.48 1.14 0 2.07-.99.93-.99 1.47-2.61 1.08-3 1.08-5.4 0-2.58-.81-5.43-.81-2.85-2.19-5.55l-.96-1.92q-1.5-3-2.31-4.74-.81-1.74-1.41-3.78-.9-2.88-.9-5.58 0-2.16.75-4.08t2.25-3.24q1.5-1.44 3.72-1.44 1.08 0 2.1.63t1.44 1.59l-1.02 1.26q-1.56 0-2.34-.6-1.08.12-1.89 1.05-.81.93-1.23 2.13-.36 1.14-.36 2.28 0 2.28.63 4.65.63 2.37 1.65 4.47l4.2 8.4q1.02 2.16 1.62 4.86.6 2.7.6 5.4 0 3.96-1.92 7.44-1.02 1.8-2.64 2.85t-3.6 1.05zm23.28-.36q-1.68 0-3.09-.78t-2.43-2.1q-.9-1.26-1.62-3.21-.72-1.95-1.08-4.05-.72-3.54-.96-9.3-.06-1.38-.06-4.74V34q.06-1.62.06-3.36 0-3.54.42-5.58-.18-.9-.18-1.86 0-3.6 2.7-5.82t6.84-2.22q1.56 0 2.88.84 1.32.84 1.32 2.1 0 .6-.48.96t-1.2.36q-.6 0-1.29-.18-.69-.18-.87-.54h-.78v-.12q-2.22 0-3.72.96-1.08.78-1.68 2.58-.24.66-.36 1.68t-.12 1.86q-.06.48-.06 1.92l.12 2.1.06 2.04q0 .9-.24 2.1-.3 1.5-.3 2.1v1.44q0 2.34.18 6.42.06 3.42.78 6.84.54 3.18 2.04 5.4 1.44 2.28 3.9 2.28 1.02 0 2.52-1.08 1.62-1.08 2.28-1.08.84 0 1.74.9 0 2.22-1.68 3.42-1.56 1.08-3.72 1.38-1.2.12-1.92.12zm25.74-.48q-2.76 0-2.76-1.5l.12-7.38.12-7.38q0-4.02-.18-12.18-.18-8.1-.18-12.18v-.36q0-1.56.3-2.88.36-1.62 1.92-1.62 4.2 0 6.66 2.7t2.46 7.14q0 2.7-1.44 5.64-1.44 2.94-3.42 4.38 3.48 2.34 5.13 6.03 1.65 3.69 1.65 8.13 0 2.1-1.44 5.22-1.74 3.72-4.74 5.34-1.8.9-3.96.9h-.24zm.6-26.52q1.56-.36 2.64-2.58.9-1.68 1.68-4.08.18-.66.6-1.68v-2.1q0-1.8-1.32-3.48t-3-1.68q-.84 0-.84 1.86 0 3.96.12 7.08l.12 6.66zm.24 23.4q2.94-.42 4.68-2.7 1.74-2.28 1.74-5.46 0-2.76-.45-5.07-.45-2.31-1.17-3.51-.66-1.14-1.32-1.92t-1.14-1.02l-.48-.18h-2.16q.3 6.9.3 19.86zm22.26 3.78q-1.56 0-2.88-.99-1.32-.99-2.16-2.67-1.74-3.66-2.16-7.98-.54-4.08-.54-7.86 0-.72.06-1.2v-1.08q0-.3-.06-.3v-1.08l.06-4.2q.06-1.92.48-6.12.3-2.88 1.38-5.58.42-1.2 1.08-1.83.66-.63 1.5-.63 2.4 0 4.32.87 1.92.87 3.24 2.43 1.2 1.5 2.04 3.69.84 2.19 1.2 4.65.36 2.52.36 5.34v.48q0 1.86.06 3.36l.06 3.42q0 17.28-8.04 17.28zm-.24-2.52q1.08 0 1.98-.87.9-.87 1.38-2.37 1.14-3.06 1.38-6.6.3-3.06.3-5.28 0-2.7-.42-7.08-.36-4.62-.36-6.9v-1.08q-.12-2.28-1.53-3.96-1.41-1.68-3.45-1.68t-2.7 2.34q-.6 1.86-.6 4.8 0 1.14.06 1.92v1.62l-.12 2.76q-.12 1.26-.12 2.76 0 3.24.18 6.42.24 4.5 1.2 8.76.96 4.44 2.82 4.44zm24.06 2.34q-2.16-.72-5.34-.72-.96.6-2.04.6-.72 0-1.23-.63t-.51-1.35q0-5.04.42-13.44.36-8.94.36-13.38v-.42q-.36-3.78-.36-5.64 0-5.7 2.1-5.7.6 0 1.05.45.45.45.45 1.05 0 .72-.18 2.28-.18 1.5-.18 2.28 0 4.02.06 7.26.06 3.18.06 7.2-.3.9-.3 2.52v.72l-.12 4.74q-.12 2.1-.12 4.8 0 4.14 1.98 4.14.12 0 .39-.03t.75-.03q.54-.06 1.38-.06 3.24 0 3.24 1.8 0 .6-.54 1.02-.54.42-1.32.54zm8.76-.6q-1.56 0-1.56-7.86l.12-9.48q.06-4.2.06-9.42 0-1.92-.36-5.94-.3-4.38-.3-5.34 0-.78.66-1.38.66-.6 1.44-.6 2.1 0 4.05.93 1.95.93 3.45 2.61 3.18 3.66 4.2 8.04.54 2.22.54 4.38 0 .78-.06 1.44l-.06 1.62v3.3q0 3.84-.24 6.06-.36 3-1.38 5.34-1.2 2.52-3.48 4.5-1.08.9-2.76 1.8h-4.32zm2.64-3.06q1.2 0 2.22-.63 1.02-.63 1.74-1.71.6-.96 1.11-2.43.51-1.47.75-2.85.54-2.7.66-5.52.06-.72.06-2.1 0-18.12-7.02-18.9-.42 2.7-.42 6.24 0 3.78.48 13.2.42 8.34.42 13.26v1.44z"/></svg>