<svg viewBox="0 0 447 80" xmlns="http://www.w3.org/2000/svg"><path d="M66.44 65.38l-1.38 2.46-24.3-13.8-24.3 13.8-1.38-2.46 22.86-12.96-11.64-6.66q-1.2-.66-1.98-1.98-.78-1.32-.78-2.7V24.52h-8.28V21.7h24.18v-8.82h2.82v8.82h24.18v2.82h-8.46v16.56q0 1.38-.78 2.7-.78 1.32-1.98 1.98l-11.64 6.66 22.86 12.96zM40.76 50.8l13.08-7.44q.48-.3.9-.99.42-.69.42-1.29V24.52h-28.8v16.56q0 .6.42 1.29.42.69.9.99l13.08 7.44zm71.58-12.9h-20.7q-1.56 0-2.64-1.11t-1.08-2.67V17.44q0-1.56 1.08-2.67 1.08-1.11 2.64-1.11h20.7q1.56 0 2.67 1.11 1.11 1.11 1.11 2.67v16.68q0 1.56-1.11 2.67-1.11 1.11-2.67 1.11zm-28.5 24.42l-4.8 4.92-1.98-1.98 4.8-4.92q.48-.48.84-1.41.36-.93.36-1.59v-3.3h-6.78v-2.82H93.8V46q0-.36-.27-.63t-.69-.27H81.98q-1.56 0-2.67-1.11-1.11-1.11-1.11-2.67V17.38h2.82v23.94q0 .42.3.69.3.27.66.27h10.86q1.56 0 2.67 1.08 1.11 1.08 1.11 2.64v21.06H93.8V54.04h-7.92v3.3q0 1.2-.57 2.64-.57 1.44-1.47 2.34zM126.02 55v11.94h-2.82V55q0-.42-.27-.69-.27-.27-.63-.27h-12.36v13.02h-2.82V46q0-1.56 1.11-2.64t2.67-1.08h10.86q.36 0 .66-.27.3-.27.3-.69V17.38h2.76v23.94q0 1.56-1.08 2.67-1.08 1.11-2.64 1.11H110.9q-.42 0-.69.27-.27.27-.27.63v5.22h12.36q1.56 0 2.64 1.11t1.08 2.67zM90.74 23.38V28h22.56v-4.62H90.74zm.9 11.7h20.7q.96 0 .96-.96v-3.3H90.74v3.3q0 .42.27.69.27.27.63.27zm20.7-18.6h-20.7q-.36 0-.63.27t-.27.69v3.12h22.56v-3.12q0-.96-.96-.96zm23.76 51.3l-2.76-.66 5.04-17.46q.24-.6.42-1.8.18-1.08.18-1.8V23.32q0-1.44 1.02-2.46t2.34-1.02h21.42v-6.66h2.76v6.66h20.34v2.82h-44.52q-.6 0-.6.6V46q0 .9-.18 2.16-.12.66-.21 1.17-.09.51-.21.99l-5.04 17.46zm10.14-.06l-1.98-2.04 18.78-17.88q.42-.36.72-1.08.3-.78.3-1.26v-3.84h-17.28V38.8h17.28V27.64h2.82V38.8h20.58v2.82h-20.58v3.84q0 1.08-.54 2.34-.48 1.14-1.38 2.04l-18.72 17.88zm39.06 0l-17.82-16.5 1.92-2.04 17.82 16.5-1.92 2.04zm31.92-37.74v2.82h-8.82v2.64q.42.42.72 1.02l9.96 21.78-2.58 1.14-8.1-17.64v25.68h-2.82V41.56l-8.4 17.88-2.52-1.2 10.2-21.78q.24-.6.72-.96v-2.7h-9.66v-2.82h9.66V19.06l-9.18.6-.18-2.82 20.52-1.32.18 2.82-8.52.54v11.1h8.82zm24.6 19.08v18.48H239V49.3l-19.32 1.74-.24-2.82L239 46.48V13.72h2.82v32.46l6.78-.6.24 2.82-7.02.66zm-9.54-14.58v2.82H221.3v-2.82h10.98zm1.5-13.8v2.82h-10.26v-2.82h10.26zM308.6 39.1v2.82h-2.58v7.8q0 1.44-1.02 2.43-1.02.99-2.4.99h-8.22V64q0 1.44-1.02 2.43-1.02.99-2.4.99h-8.58V64.6h8.58q.6 0 .6-.6V53.14H281.3v-2.82h10.26v-8.4h-12.48V39.1h12.48v-7.5H281.3v-2.82h12.18l4.62-8.28h-11.94q-1.68 0-2.34-1.2-.78-1.2 0-2.64l2.82-5.1 2.46 1.32-2.58 4.8h11.94q1.62 0 2.34 1.2.72 1.2-.06 2.64l-4.02 7.26h5.88q1.38 0 2.4 1.02t1.02 2.4v6.9h2.58zm-34.86 28.74h-5.34v-2.82h5.34q.6 0 .6-.6v-6.6h-15.36v9.6h-2.82V42.58q0-1.38 1.02-2.4t2.4-1.02h14.16q1.38 0 2.4 1.02t1.02 2.4v21.84q0 1.38-1.02 2.4t-2.4 1.02zm4.02-42.42v2.82h-9.42v4.62h10.86v2.82h-24.54v-2.82h10.86v-4.62h-9.42v-2.82h9.42V20.5h-10.14v-2.82h10.14v-5.46h2.82v5.46h10.14v2.82h-10.14v4.92h9.42zm-3.42 21.84v-4.68q0-.6-.6-.6h-14.16q-.6 0-.6.6v4.68h15.36zm-15.36 2.82V55h15.36v-4.92h-15.36zm35.4.24h8.22q.6 0 .6-.6v-7.8h-8.82v8.4zm8.82-11.22v-6.9q0-.6-.6-.6h-8.22v7.5h8.82zm62.64-15.78v2.82h-10.26v9.78h9.66v2.82h-9.66v9.84h9.66v2.82h-9.66v9.84h10.92v2.82h-23.88v3.18h-2.82v-29.1q0-.6-.6-.6h-2.04q-1.62 0-2.34-1.2-.78-1.14-.12-2.64l9.78-21.36 2.58 1.14-4.5 9.84h23.28zM333.86 36.4v2.82h-4.5v23.76q0 1.56-1.08 2.64t-2.64 1.08h-5.82v-2.82h5.82q.36 0 .66-.27.3-.27.3-.63V39.22h-1.8l-7.98 27.06-2.7-.84 7.74-26.22h-2.46q-1.56 0-2.64-1.11t-1.08-2.67V24.1h2.82v11.34q0 .42.27.69.27.27.63.27h7.2V18.76h-11.7v-2.82h18.96v2.82h-4.5V36.4h4.5zm3.48-1.68h1.86q.78 0 1.44.33.66.33 1.14.87h11.04v-9.78h-11.58l-3.9 8.58zm5.28 16.68v9.84h10.2V51.4h-10.2zm0-12.66v9.84h10.2v-9.84h-10.2zm17.04-23.1v2.82h-11.04v-2.82h11.04zm48.84 52.02h-2.82V53.92h-9.9V51.1h9.9V32.62L388.7 59.8l-2.4-1.5 18.3-29.28q.42-.72 1.08-1.08v-1.32H388.1V23.8h17.58V12.58h2.82V23.8h17.58v2.82H408.5V28q.54.36 1.02 1.02l18.3 29.28-2.4 1.5-16.92-27.12V51.1h9.96v2.82h-9.96v13.74zm-24.78-.3l-2.88.06V41.44q0-.6-.6-.6h-4.74q-1.5 0-2.34-1.2-.66-1.32.06-2.64l13.62-24.6 2.46 1.38-13.38 24.24h4.32q1.5 0 2.46.96 1.02 1.02 1.02 2.4v25.98z"/></svg>