<svg viewBox="0 0 504 80" xmlns="http://www.w3.org/2000/svg"><path d="M45.54 18.14h21.78q1.38 0 1.56 1.08.06.18.06.69t-.06.75q-.3 1.26-1.56 1.26h-7.98q.18.3.18.78-.42 4.32-1.59 8.07-1.17 3.75-3.09 7.11-3.36 5.82-8.4 10.5 4.08 3.06 8.52 4.98 2.94 1.32 6.12 2.37t6.72 1.89q.96.24 1.17 1.05.21.81.03 1.59-.12.48-.27 1.05-.15.57-.45.99-.48.78-1.23.9t-1.47-.06q-7.08-1.74-13.26-4.86-2.7-1.32-5.16-2.97-2.46-1.65-4.74-3.57-2.28 1.74-4.83 3.21-2.55 1.47-5.31 2.79-3.6 1.68-7.32 3.06-3.72 1.38-7.62 2.46-.36.12-.84.06t-.78-.36q-.18-.24-.33-.63-.15-.39-.27-.75-.12-.54.09-1.02t.63-.6q3.66-1.32 7.08-2.76 3.42-1.44 6.66-3 4.98-2.46 9.3-5.76-4.14-4.44-7.62-10.02-2.16-3.54-4.05-7.68-1.89-4.14-3.45-8.82h-6.48q-.48 0-.93-.24-.45-.24-.57-1.02-.12-.78 0-1.44.12-.66.51-.87.39-.21.99-.21h23.28q-.12-.24-.24-.45-.12-.21-.24-.45-.84-1.68-1.68-3.39-.84-1.71-1.14-2.55-.3-.6.3-1.2.3-.3.51-.39.21-.09.51-.21.96-.36 1.68.36.54.54 1.38 1.5.84.96 1.71 1.98t1.53 1.95q.66.93.84 1.41.12.3.12.6t-.3.84zm-10.32 18q3.54 5.28 7.44 9 4.02-3.84 6.84-8.94 1.68-3.06 2.82-6.6 1.14-3.54 1.74-7.68H27.72q3.48 8.28 7.5 14.22zm55.38-26.1h23.58q1.26 0 2.04.87t.78 2.19v15.18q0 1.38-.78 2.25-.78.87-2.04.87H90.6q-1.26 0-2.1-.87-.84-.87-.84-2.25V13.1q0-1.32.84-2.19.84-.87 2.1-.87zM76.5 63.08q-.48-.3-.72-.66-.24-.3-.15-.66.09-.36.21-.54 1.56-2.28 2.85-4.95 1.29-2.67 1.95-6.09.18-.96.3-1.95t.18-2.01h-3.78q-.42 0-.78-.18-.36-.18-.48-.84-.12-.54 0-1.26.3-.84 1.26-.84h17.64v-3.78q0-1.68-1.68-1.68H82.14q-2.34 0-3.42-1.11t-1.08-3.21V14.6q0-.72.39-1.05.39-.33.87-.39t.93-.09q.45-.03.93.09 1.14.18 1.14 1.38V32.6q0 .84.48 1.5t1.62.66h11.76q3.54 0 3.54 3.72v23.04q0 .6-.39.93-.39.33-.87.45-1.02.18-1.92 0-1.14-.18-1.14-1.38v-15.3h-9.66q0 4.56-1.77 9.03t-5.79 7.77q-.6.48-1.26.06zm50.58-48.48v18.72q0 2.1-1.08 3.21-1.08 1.11-3.42 1.11h-11.16q-1.68 0-1.68 1.68v3.78h14.1q3.66 0 3.66 3.9v14.1q0 1.68-1.44 1.74-.3.06-.81.03t-.63-.03q-.66-.06-1.08-.45-.42-.39-.42-1.29V47.84q0-.66-.39-1.14-.39-.48-1.05-.48h-11.94v15.3q0 1.2-1.14 1.38-.9.18-1.92 0-.48-.12-.87-.45t-.39-.93V38.48q0-3.72 3.54-3.72h11.76q1.14 0 1.62-.66.48-.66.48-1.5V14.54q0-1.2 1.14-1.38.48-.12.93-.09.45.03.93.09.48.06.87.39t.39 1.05zM93.6 28.7h17.58q1.86 0 1.86-1.68v-2.16H91.8v2.16q0 1.68 1.8 1.68zm-1.8-9.9v3.48h21.24V18.8H91.8zm21.24-2.64v-1.8q0-1.68-1.86-1.68H93.6q-1.8 0-1.8 1.68v1.8h21.24zm24.78 38.04V18.74q0-2.1 1.44-3.45t3.3-1.35h10.5q5.28 0 9.18 1.8 3.9 1.8 6.48 4.86 2.58 3.06 3.84 7.11 1.26 4.05 1.26 8.49 0 4.92-1.35 9.09t-3.9 7.2q-2.55 3.03-6.27 4.74-3.72 1.71-8.46 1.71h-11.22q-1.02 0-1.92-.42-.9-.42-1.53-1.08-.63-.66-.99-1.5t-.36-1.74zm5.7-35.28v34.92q0 .3.21.57.21.27.45.27h7.5q4.14 0 7.11-1.53 2.97-1.53 4.92-4.08 1.95-2.55 2.85-5.91.9-3.36.9-6.96 0-3.48-.9-6.72-.9-3.24-2.82-5.76-1.92-2.52-5.01-4.02-3.09-1.5-7.41-1.5h-7.02q-.3 0-.54.24-.24.24-.24.48zm57.6 36.12q2.34 0 4.05-.27t3.09-.72q1.38-.45 2.49-1.08 1.11-.63 2.19-1.29 1.2-.72 2.04-.06l.48.54.48.66q.18.42.12.87t-.54.99q-.84.84-2.31 1.65-1.47.81-3.39 1.44-1.92.63-4.26 1.02t-4.86.39q-5.4 0-9.48-1.95t-6.81-5.13q-2.73-3.18-4.14-7.32-1.41-4.14-1.41-8.52t1.41-8.49q1.41-4.11 4.2-7.32t6.93-5.13q4.14-1.92 9.66-1.92 2.58 0 4.68.45 2.1.45 3.81 1.14t2.97 1.53q1.26.84 2.1 1.56.66.54.72 1.14.06.6-.12.9-.18.42-.42.69-.24.27-.6.57-.24.24-.78.27-.54.03-1.02-.27-.9-.72-1.92-1.38-1.02-.66-2.31-1.2-1.29-.54-2.94-.87-1.65-.33-3.81-.33-4.14 0-7.14 1.62t-4.98 4.26q-1.98 2.64-2.91 5.97-.93 3.33-.93 6.81 0 3.72 1.05 7.14 1.05 3.42 3.06 6t4.92 4.11q2.91 1.53 6.63 1.53zm40.38 7.2q-.66.12-1.62 0-.6-.06-1.05-.39-.45-.33-.45-1.05V38.12q0-4.44 4.5-4.44h23.82q2.4 0 3.45 1.11 1.05 1.11 1.05 3.39v19.2q0 2.7-1.5 4.02-1.5 1.32-4.02 1.26-1.44-.06-3.18-.36-1.74-.3-3.06-.78-.66-.3-.66-1.02 0-.18.03-.48t.15-.54q.3-.78 1.02-.66.12 0 .66.06t1.2.09q.66.03 1.26.09t.9.06q1.2 0 1.86-.57.66-.57.66-2.07v-3.54H243v7.86q0 1.26-1.5 1.44zm15.18-49.5h14.22q.96 0 1.14.84.06.12.06.54 0 .42-.06.6-.12.48-.45.66-.33.18-.69.18h-14.22v4.32h12.36q.9 0 1.08.84.06.12.06.54 0 .42-.06.6-.3.84-1.08.84h-12.36v4.38H273q1.02 0 1.2.84.06.18.06.63t-.06.63q-.3.9-1.2.9h-37.26q-.36 0-.72-.15t-.48-.75q-.12-.6 0-1.26.18-.84 1.2-.84h16.5V22.7H239.4q-.3 0-.63-.15t-.45-.69q-.12-.66 0-1.14.18-.84 1.08-.84h12.84v-4.32H237.9q-.3 0-.63-.15t-.45-.69q-.12-.66 0-1.14.3-.84 1.08-.84h14.34V10.7q0-.96.51-1.17.51-.21.87-.27.54-.12.96-.06.42.06.6.06.6 0 1.05.48.45.48.45.96v2.04zm6.84 23.88H246q-1.74 0-2.37.66-.63.66-.63 1.68v2.76h23.52v-2.34q0-1.32-.63-2.04t-2.37-.72zm-30.06 2.16q.78.42.6 1.32-.36 2.1-1.2 4.83t-1.95 5.55q-1.11 2.82-2.4 5.43-1.29 2.61-2.55 4.41-.36.48-1.11.78-.75.3-1.41.06-.6-.18-1.11-.45-.51-.27-.99-.75t-.48-1.11q0-.63.3-1.05 2.76-4.5 5.25-9.36 2.49-4.86 4.53-9.36.24-.48.57-.6.33-.12.75-.06.72.06 1.2.36zM243 44.9v4.86h23.52V44.9H243zm-21.18-20.88q.66-.54 1.44-.12.72.36 1.86.96 1.14.6 2.31 1.29 1.17.69 2.22 1.41 1.05.72 1.59 1.26.36.36.39 1.05.03.69-.27 1.17-.3.54-.57.84-.27.3-.63.6-.42.3-1.08.33-.66.03-1.14-.39-.66-.66-1.56-1.5l-1.83-1.71q-.93-.87-1.77-1.65-.84-.78-1.38-1.32-.6-.6-.3-1.26.12-.24.3-.48t.42-.48zm1.86-13.74q.66-.54 1.44-.12.72.36 1.86.96 1.14.6 2.31 1.29 1.17.69 2.22 1.41 1.05.72 1.59 1.26.36.36.39 1.05.03.69-.27 1.17-.3.54-.57.84-.27.3-.63.6-.42.3-1.08.33-.66.03-1.14-.39-.66-.66-1.56-1.5l-1.83-1.71q-.93-.87-1.77-1.65-.84-.78-1.38-1.32-.6-.6-.3-1.26.12-.24.3-.48t.42-.48zm63.6.84h40.5q1.74 0 2.94 1.2t1.2 2.94v41.7q0 1.74-1.2 3.03-1.2 1.29-2.94 1.29h-40.5q-.84 0-1.59-.36-.75-.36-1.32-.99-.57-.63-.9-1.41-.33-.78-.33-1.68V15.26q0-1.74 1.2-2.94t2.94-1.2zm40.14 44.76V16.22q0-1.98-2.1-1.98h-35.64q-2.04 0-2.04 1.98v39.66q0 2.16 2.04 2.16h35.64q2.1 0 2.1-2.16zM297.6 17.36h20.04q1.56 0 2.49 1.08.93 1.08.93 2.64v3.18q0 1.68-.93 2.7-.93 1.02-2.49 1.02H297.6q-1.74 0-2.61-.99-.87-.99-.87-2.73v-3.18q0-1.56.87-2.64t2.61-1.08zm19.14 6.12v-1.62q0-1.74-1.92-1.74H300.3q-1.8 0-1.8 1.74v1.62q0 1.68 1.8 1.68h14.52q1.92 0 1.92-1.68zm-20.52 7.14h22.56q3.84 0 3.84 3.72v14.22q0 .78-.36 1.14-.36.36-.84.42-.3.06-.87.06-.57 0-.99-.06-.48-.06-.9-.42-.42-.36-.42-1.14V35.12q0-1.68-1.5-1.68H298.5q-1.44 0-1.44 1.56v13.56q0 1.44-1.44 1.62-.66.12-1.56 0-.54-.06-.93-.51t-.39-1.11V34.34q0-1.86.93-2.79.93-.93 2.55-.93zm14.16 17.04q.48-.48 1.14-.24.84.18 2.73 1.05 1.89.87 3.99 1.95 2.1 1.08 3.96 2.16 1.86 1.08 2.64 1.68.48.3.45.87-.03.57-.21.93-.54.9-1.2 1.38-.3.24-.84.27-.54.03-1.02-.27-.54-.36-1.92-1.23t-3.12-2.01q-1.74-1.14-3.57-2.37-1.83-1.23-3.27-2.31-.48-.48-.24-1.14.18-.42.48-.72zm-.78-10.38v2.04q0 3.42-.9 5.97t-2.34 4.47q-1.44 1.92-3.3 3.24-1.86 1.32-3.81 2.25-1.95.93-3.78 1.47-1.83.54-3.27.9-1.08.3-1.5-.48-.12-.24-.24-.51t-.18-.57q-.18-1.08.9-1.44 1.26-.36 3.63-1.2t4.71-2.52q2.34-1.68 4.08-4.35 1.74-2.67 1.74-6.75v-2.64q0-.84.36-1.17.36-.33.9-.39.42-.06.96-.03t.66.03q1.38.12 1.38 1.68zm64.68-27.9q1.56.12 1.56 1.5v5.88h15.3q1.08 0 1.32.96.06.18.06.63t-.06.69q-.3 1.08-1.32 1.08h-13.92q.84 1.92 1.83 3.81.99 1.89 2.01 3.75 1.86 3.18 3.75 6.09 1.89 2.91 3.63 5.37t3.27 4.35q1.53 1.89 2.61 3.03.54.6.45 1.32-.09.72-.51 1.2-.48.66-1.44 1.2-1.38.66-2.46-.3-.6-.54-2.22-2.76-1.62-2.22-3.6-5.49t-4.05-7.17q-2.07-3.9-3.63-7.74-.3-.72-.54-1.44l-.48-1.44v24.6h8.76q1.08 0 1.32.96.06.18.06.63t-.06.69q-.3 1.08-1.32 1.08h-8.76v9.72q0 .84-.39 1.2t-.81.42q-.54.06-1.08.09t-1.08-.09q-.48-.06-.87-.36t-.39-1.26v-9.72h-8.88q-.48 0-.87-.21t-.51-.87q-.12-.66 0-1.32.18-.96 1.38-.96h8.88V25.94q-.06.3-.3.9-.48 1.56-1.08 3.09-.6 1.53-1.5 3.15-1.74 3.18-3.63 6t-3.69 5.07q-1.8 2.25-3.42 3.87-1.62 1.62-2.94 2.4-.66.42-1.32-.06-.48-.36-.66-.84-.12-.3-.12-.72t.36-.78q1.86-1.92 3.78-4.38 1.92-2.46 3.66-5.22 1.74-2.76 3.3-5.7 1.56-2.94 2.76-5.82 1.5-3.54 2.34-6.78H357q-.48 0-.87-.21t-.51-.87q-.12-.66 0-1.32.18-.96 1.38-.96h14.22v-5.88q0-.9.51-1.17.51-.27.93-.33.48-.06.93-.03.45.03.69.03zm-31.26 26.88q-.42.48-.78.51-.36.03-.66-.09-.36-.06-.84-.54-.6-.42-.12-1.32 1.26-1.98 2.58-4.74 1.32-2.76 2.52-5.97t2.19-6.6q.99-3.39 1.53-6.57.18-1.02.75-1.29.57-.27 1.29-.21 1.2.06 1.74.3.84.3 1.05.75.21.45.09 1.11-.36 2.88-1.62 6.39-1.26 3.51-3 7.11-.12.24-.21.45-.09.21-.21.45.84-.12 1.2.18.6.42.6.84v34.56q0 .84-.48 1.14-.48.3-1.02.36t-1.32 0q-.48-.06-.96-.3t-.48-1.2V30.62l-1.74 2.82q-.6.84-1.11 1.56-.51.72-.99 1.26zm55.92 30.84h31.14q.36 0 .75.18t.51.66q.12.48.12.9 0 .42-.06.78-.18 1.14-1.32 1.14h-31.14q-1.02 0-1.32-1.02-.18-.9 0-1.74.24-.9 1.32-.9zm46.68-47.64l-5.46 37.98q-.18 1.02-.75 1.26-.57.24-1.05.24-.66.06-.93 0t-.75-.18q-.48-.12-.78-.51-.3-.39-.18-1.23 0-.12.27-1.92.27-1.8.66-4.65.39-2.85.93-6.45t1.08-7.38l2.88-19.92q.3-1.74 1.17-2.25.87-.51 1.89-.63.42-.06 1.11-.06.69 0 1.17.06 1.14.12 1.83.63.69.51 1.11 1.71.18.66.75 2.46.57 1.8 1.35 4.32.78 2.52 1.71 5.49l1.89 6.03q1.14 3.6 2.34 7.5t2.52 8.22h.12q1.38-4.5 2.67-8.55 1.29-4.05 2.49-7.71.96-3.06 1.92-6.09l1.74-5.49q.78-2.46 1.32-4.11.54-1.65.66-2.01.72-2.04 2.82-2.34.18-.06 1.2-.06h1.38q1.02.06 1.92.66.9.6 1.2 2.1.06.42.36 2.34t.72 4.77q.42 2.85.96 6.36.54 3.51 1.08 7.08.54 3.57 1.05 6.99.51 3.42.9 6.09t.63 4.35q.24 1.68.24 1.8 0 1.56-1.2 2.1-.36.12-1.05.27-.69.15-1.17.15-.66 0-1.47-.21-.81-.21-.99-1.47l-4.8-38.22h-.12l-5.82 17.76-4.44 13.56q-.48 1.38-.87 2.61t-.81 2.37q-.48 1.38-1.29 1.83-.81.45-1.83.45-2.46 0-3.06-2.22L445.8 19.46h-.18z"/></svg>