<svg viewBox="0 0 569 80" xmlns="http://www.w3.org/2000/svg"><path d="M31.42 22.4v.06q.36-.48 1.14-.48.84 0 2.25.81 1.41.81 2.76 1.86 1.35 1.05 2.34 2.01.99.96.99 1.2-.18.84-1.08.84-.9 0-2.73-.9t-4.41-2.76q-1.5-1.08-1.5-2.04 0-.36.24-.6zm18.96 6.54l2.7-.6q2.04-.54 2.88-.54.84 0 1.35.42.51.42.51 1.02 0 .96-.96 1.62-.96.66-2.52.66-.6 0-.84-.06-.3 0-1.74.39t-3.12.84q-1.68.45-3 .87t-1.32.6q0 .24.36.72t.36 1.26q-2.22 3.78-3.48 5.88-1.26 2.1-1.92 3.18-.66 1.08-.9 1.38-.24.3-.36.48l.96.9q.66.66 1.59 1.41.93.75 2.13 1.59 4.92 3.48 8.37 5.13 3.45 1.65 5.79 1.65 1.38 0 3.18-.81 1.8-.81 3.18-2.01 1.26-1.08 1.86-1.08.66 0 .66 1.32 0 .84-1.08 1.92t-2.58 2.07q-1.5.99-3.15 1.68t-2.79.69q-1.14 0-2.88-.57t-3.54-1.38q-1.8-.81-3.42-1.74-1.62-.93-2.46-1.71h.06q-1.02-.42-2.19-1.41t-2.31-2.04q-1.14-1.05-2.19-1.86T35.74 50l-1.02.93q-1.02.93-2.49 2.25-1.47 1.32-3.12 2.76-1.65 1.44-2.97 2.4-4.02 3-5.22 3-.54 0-1.41-.42-.87-.42-1.74-1.05-.87-.63-1.5-1.29t-.63-1.14q0-.3.27-.48t.63-.18q.48 0 .9.27.42.27.87.63t1.02.63q.57.27 1.47.27.12 0 1.11-.66.99-.66 2.4-1.68t3-2.25q1.59-1.23 2.94-2.4 1.35-1.17 2.25-2.13.9-.96.9-1.38-1.92-1.62-3.42-3.12-1.26-1.26-2.31-2.52t-1.05-1.92q0-.6 1.02-.6.42 0 .81.12.39.12.87.45t1.17.87q.69.54 1.71 1.32 1.14.96 2.22 1.8 1.08.84 1.44.96l6.36-9.78q0-.42-.18-.63-.18-.21-.3-.21-.36 0-5.64 1.68-2.16.66-3.6 1.14-1.44.48-2.22.78h.06q-1.26.48-2.22.81-.96.33-1.8.51-.84.18-1.68.27-.84.09-1.92.15-.96 0-1.62-.03-.66-.03-1.26-.21t-1.2-.63q-.6-.45-1.44-1.29-.54-.78-.54-1.08 0-.24.48-.6h-.06q.42-.48.66-.48.12 0 .48.24t.93.51q.57.27 1.26.48.69.21 1.53.21 1.5 0 4.14-.69 2.64-.69 5.91-1.74t6.93-2.22q3.66-1.17 7.2-2.19l4.26-1.5zm46.74-18.6q1.8-.36 3.96-.36.96 0 1.98.09t2.1.21q2.04.24 3.36 1.5h-.06q1.14.72 1.2 1.26.06.48-.36 2.4-.84 3.36-1.08 9.18-.36 6.3-.78 7.38-1.2 2.64-1.14 7.14.06 1.02.12 1.92.06.9.06 1.38.24-.06.75-.24t1.53-.48q1.26-.36 2.04-.57.78-.21 1.14-.21.36 0 .36-.06 0-.36 1.2-1.92 1.08-1.32 1.68-3.18.42-1.2.42-2.04 0-.36-.12-1.23t-.24-1.83q-.24-.96.03-1.44t.72-.45q.45.03.99.54t.9 1.53q.18.66.3 1.35.12.69.12 1.47 0 .48-.03.99t-.15.99q-.36 2.58-1.62 4.08v-.06q-.12.24-.15.36t.15.42q0-.06.3-.21t.78-.15q1.38.18 2.22.96.84.78.6 1.56-.3.48-2.4.48-2.04 0-4.86.6-2.76.54-5.16 1.38-.42.12-.66.24-.24.12-.39.36-.15.24-.18.6t-.03 1.02q0 1.32.12 1.53.12.21.6.21.9 0 2.34-.42 1.5-.42 5.22-1.08 3.78-.6 6.12-.54.72 0 1.44.54t.78 1.14q0 .66-.9 1.11-.9.45-2.22.45-1.2 0-1.38.09-.18.09-.06.63.24 1.02.24 6.06 0 1.56-.03 2.7-.03 1.14-.09 1.62-.06.78-.78 1.38-.78.6-1.14.66-.36.06-1.02-.54h.06q-.48-.36-.57-.66-.09-.3.15-1.14.72-1.98.54-6.12-.12-4.02-.72-4.26-.18-.06-1.29.09t-3.09.57q-4.08.84-4.26.9h.06q-.06.06-.12 3.69t-.18 7.83q-.12 2.28-.24 2.64-.24.42-1.2.42t-1.29-.54q-.33-.54-.33-2.1 0-.48.03-1.11.03-.63.09-1.41.18-1.68.18-5.1t-.18-8.46q-.12-5.1-.33-7.89-.21-2.79-.45-3.45v.06q-.54-1.08.24-1.86.54-.66 1.02-2.97t.78-5.67q.48-5.28.78-8.43.3-3.15.42-3.75.18-.66-.81-.99-.99-.33-3.51-.33-4.14 0-8.16 1.62h.06q-.3.12-.45.21-.15.09-.18.3t.06.57q.09.36.33 1.08.42 1.32.54 1.5.12.18.54-.06.12 0 .24-.06h-.06q.6-.36 2.7-.72 1.08-.18 2.04-.18 1.62 0 2.61.6.99.6.99 1.8 0 .78-.27.9t-1.71-.06q-1.62-.24-4.2.12-2.16.48-2.16.66.24.6.24 1.32 0 .42.18.48.3 0 1.11-.03t1.65-.09q.66-.06 1.14-.09.48-.03.84-.03.84 0 1.32.18.48.18.9.42.78.48.93 1.05.15.57-.51 1.05-.36.36-2.28.24-1.68-.06-3.24.3-.54.12-.84.21-.3.09-.42.3t-.09.63q.03.42.15 1.14.06.42.09.66.03.24.09.54 0 .18.03.33.03.15.03.27v.18q0 .12 2.28-.36 1.5-.3 2.46-.3 1.68 0 2.04.9v-.06q.42.84-.33 1.29-.75.45-3.33.99l-1.95.39q-.75.15-.99.27-.54.24-.72 1.32-.3.78-.84.93-.54.15-1.05-.12t-.84-.9q-.33-.63-.15-1.47.12-.54.06-1.86t-.3-3.24q-.24-2.1-.45-3.75-.21-1.65-.51-2.91-1.02-4.98-3.18-7.92-.84-1.38-.48-1.92 1.08-1.26 2.58.24.48.42.84.42.12 0 .57-.12.45-.12 1.29-.42 1.14-.42 2.13-.69.99-.27 2.01-.51zM80.44 31.76q.24-.72.84-.57.6.15 1.2.93.54.84.66 4.98.06 1.8.15 3.12t.21 1.98q.12.48.33.6.21.12 1.23 0h.06q.6-.12 1.83-.51t2.79-.93q1.26-.48 1.98-.81.72-.33.84-.45.3-.3.3-1.08.06-1.5.6-1.92.84-.84 1.56-.06.72.78 1.08 2.64.3 1.62.51 4.5.21 2.88.27 6.96 0 1.02.03 1.89.03.87.03 1.65 0 2.58-.12 4.17-.12 1.59-.36 2.31-.42 1.44-1.2 1.89-.78.45-1.62-.21-.54-.42-.57-.63-.03-.21.33-1.17.42-.96.48-6v-2.16q0-3-.18-3.3v.06q-.18-.18-2.82.72-2.1.66-2.58 1.02h.06q-.3.3-.3 1.44 0 1.26-.27 2.64-.27 1.38-.75 2.73t-1.17 2.61q-.69 1.26-1.47 2.22-1.5 1.86-3.06 2.79-1.56.93-2.64.93-.66 0-1.11-.39-.45-.39-.45-1.29 0-1.08 1.14-2.04.66-.54 1.14-.57.48-.03.66.27.24.18.51 0t1.05-.84q1.56-1.56 2.58-4.11 1.02-2.55 1.02-4.83 0-.66-.12-.84-2.4.54-3.06.66-2.28.36-3.54.36-1.56 0-2.04-.48t-.18-1.5q.3-.66 1.98-.84 2.28-.3 6.03-1.23 3.75-.93 8.85-2.55.18-.24.18-1.56 0-2.22-.36-2.22-.3 0-.75.24t-.99.54q-2.46 1.32-4.41 2.01-1.95.69-3.27.57-1.8-.12-2.34-1.8-.48-1.62-.72-6.66-.24-5.34-.06-5.88zm84.24-20.64q.96.36 1.74 2.58.9 2.52.54 7.14-.12 1.2-.06 1.26.06.06 1.2.3 2.28.48 3.72.96.96.36 1.2 1.56.18 1.44-1.5 1.32-.6-.18-2.13-.45-1.53-.27-2.22-.45-.69-.18-.75-.24.06-.42-1.68 2.64-1.02 1.62-1.26 1.98-.18.18-.06.3-.06.12 2.52.3 2.4.12 4.59.39t5.01.87q5.28.96 5.64 1.26.18.18.27.15.09-.03.39.27.3.3.3.6.3 1.68-1.26 2.1-.42.06-2.52-.48-6.72-1.74-12-2.1-2.46-.18-6 0t-6.36.66q-2.34.3-6.33 1.2-3.99.9-7.29 1.98-5.4 1.5-7.02 1.38-1.08-.3-1.14-1.62-.06-.72.54-.9.48-.42 7.38-2.16 2.52-.66 4.32-1.08 3.9-1.14 6.72-1.62 2.04-.42 1.98-.72.06-.9-.54-3.84-.18-1.08-.18-1.26.06-.48-.6-.24-1.44.24-3.57.93-2.13.69-3.21 1.29-.78.36-.96.18-.84-.66-.84-1.08.24-.84 1.86-1.86 1.2-.78 2.82-1.29 1.62-.51 2.76-.51.36 0 .57-.03.21-.03.21-.27-.06-.84-1.2-3.48-1.2-2.46-.66-2.82.6-.96 1.59-.45.99.51 2.07 2.73.66 1.32.9 2.4.06.54.12.72.06.18.78.27.72.09 4.2.09 4.86-.06 4.5-.12 0-.12.21-.72t.21-2.19q0-1.59-.18-3.12t-.36-2.13q-.12-.3-.12-.33 0-.03-.06-.27-.36-.84 0-1.44.36-.78 1.2-.54zm-4.44 13.44q-2.94.18-4.26.54-.6-.12-.42 1.26 0 .6.09 1.74.09 1.14.27 1.8l.06.24 1.8-.06q1.74-.06 2.1-.06.54-.18 1.44-1.8 1.14-1.98 1.38-2.85.24-.87 0-.81-.24-.12-1.14-.09-.9.03-1.32.09zm2.64 10.92q1.2.06 1.74.18 1.2.18 3 1.02 1.8.84 2.88 1.98.66.6.9 1.11.24.51.12.99-.18 2.04-.9 4.62-.9 2.7-2.22 5.4-1.32 2.7-2.34 3.9-.84.72-1.38.51-.54-.21-.54-.93 0-.72.72-1.74.48-1.02.42-.96-.3-.18-1.62-.24t-2.52.03q-1.2.09-2.7.27-1.5.18-2.34.33-.84.15-1.74.33l-.9.12.12.24q.06.24.09.3t.21.3q.72 1.5.78 2.22-.06 0-.12.3t-.42.3q-.96-.06-2.4-1.5-.66-.54-1.68-2.22-3.06-4.56-5.04-8.58-1.26-2.46-1.56-3.6-.3-.6-.3-1.26t.18-.9q.18-.24.3-.3.3-.24.9.12.6.36 1.44 1.44.24.42.42.54.18.12.78-.42.42-.48 1.5-.96 1.26-.66 3.3-1.38 2.04-.72 3.72-1.08 2.64-.72 7.2-.48zm-2.28 2.4q-.18.12 0 1.5l.12 1.2q0 .96.18.99.18.03 1.38.15 1.8 0 2.76.36 2.22.84 1.98 2.04-.42.48-.96.96-.24.18-.66-.09-.42-.27-.45-.27-.03 0-.27-.06-.96-.3-2.76.06-.84.06-1.02.24-.42.06-.42 1.44-.06.9-.09 1.32-.03.42.03.48.24 0 1.47.18t1.59.3q1.02.18 1.62.48.84.42.96.3.3-.18 1.56-4.2.78-2.76.96-3.6.18-.84-.6-1.5-1.62-1.74-4.62-2.1-2.64-.42-2.76-.18zm-3.84.6q-.84.24-1.38.42-.18.12-2.4.78-3.12.84-4.56 1.62-.84.48-.96.78l.12.24q.3.3 1.08 1.74t1.68 3.12q1.08 2.28 1.62 2.58l.18.12 1.26-.3q1.14-.36 2.4-.6 1.08-.24 1.5-.3l.3-.12V45.8l-.06-.48-.24.06q-.36 0-.72.12-1.08.3-2.4.3-1.5.06-1.92-.42-.78-.66-.48-1.5.12-.78 3.9-1.26 2.04-.3 2.04-.54.24 0 .06-1.38-.12-.78-.15-1.5t-.15-.66q-.3-.18-.72-.06zm11.64 18q.84.48 2.25 2.22 1.41 1.74 2.61 3.72.9 1.62 1.5 2.22.6.6 1.02 1.5.24.48.24.9-.12 1.14-.96 1.26-1.14-.06-3.36-2.16-1.2-1.26-1.32-1.68-.12-.42-1.32-2.16-2.4-3.42-2.7-4.02-.3-.96.42-1.74.3-.48.9-.3.36-.06.72.24zm-15.18.12q.48.36.36 1.38-.12.24-.54.72-.3.3-1.11.69-.81.39-3.21 1.59-3.6 1.62-5.07 2.16-1.47.54-2.43.66-.78.06-1.68-.48-1.44-.96-2.52-2.04t-1.08-1.56q0-.48.48-.72.72-.36 2.22.42 2.22 1.2 3.36 1.14.48.06.84-.24 1.08-.72 6.96-2.94 1.62-.66 1.98-.78.84-.36 1.44 0zm59.28-34.86q1.56-.66 2.67-.96 1.11-.3 1.65-.36.54.3.93.93.39.63.15 1.11-.18.54-.93 1.53t-1.77 2.37q-1.2 1.44-2.49 2.91-1.29 1.47-2.79 3.03-1.56 1.56-1.56 1.68h.36l.12.12q.18.18.3.24 1.26.3 2.37 1.14 1.11.84 1.47 1.86.54 1.86-1.56 4.56-2.22 2.94-4.62 3.42-.66.24-.9.42t-.24.96q-.06 1.44-.15 3.54t-.21 5.16q0 .36-.03.81-.03.45-.09.93-.06.72-.06 1.47t-.06 1.41q-.06.9-.6 1.29t-1.32.09h.06q-.48-.3-.9-1.32-.36-.84-.33-1.38.03-.54.21-1.56.3-1.5.3-4.5v-1.71q0-.93-.06-1.77-.06-1.74-.15-3.36-.09-1.62-.21-2.46-.12-1.68-.84-4.38-.12-.3-.21-.66-.09-.36-.21-.66-.3-.78-.57-1.62-.27-.84-.57-1.62-.3-.9-.66-1.62-.36-.72-.72-1.08-.3.12-.54.18-.24.12-.54.15-.3.03-.66.15-1.32.3-2.1.3-1.68 0-2.4-.9-.6-.6-.3-1.11.3-.51 1.26-.51 1.02 0 3.63-1.08t6.57-3q3.06-1.38 5.34-2.43 2.28-1.05 3.96-1.71zm0 3.42q0-.36-.48-.27-.48.09-2.1.87-.12.06-.21.09t-.21.09l-.36.12q-1.86.84-3.36 1.59-1.5.75-2.7 1.47h.06q-2.58 1.32-2.58 1.62 0 .48 1.08 1.74.36.6.6 1.05.24.45.24.63 0 .6.96.12t2.58-1.92l1.92-1.92q.6-.6 1.17-1.2t1.17-1.2q.42-.48.75-.93.33-.45.63-.75.84-1.02.84-1.2zm-2.4 11.94l-.06-.06q-.72-.3-2.22-.3-1.14 0-2.22.3-.42.12-.66.27-.24.15-.36.39-.12.24-.15.63t-.03 1.11q.06 1.14.12 1.83.06.69.18 1.05.12.36.36.48t.6.12q.84 0 1.77-.72t1.89-1.92q.66-.96.87-1.89.21-.93-.09-1.29zm21.72-8.46h.06q3.06-.54 3.66-.54.6-.06 2.88.3 3.18.48 3.9 1.44.24.24.24 1.62 0 .84-.12 2.01t-.36 2.37q-.18.72-.48 2.31t-.54 3.45q-.24 1.5-.6 3.51t-.9 4.71q-.36 1.8-.63 3.18-.27 1.38-.45 2.34-.12.48-.18.81-.06.33-.12.63-.6 2.82-1.5 2.82-.48 0-1.74-1.62T232 53.66v.06q-1.08-1.86-1.38-2.04-.3-.12-4.26 1.08-3.84 1.26-4.5.78-1.14-.42-.3-1.8.24-.48-.42-3.6-.42-2.04-1.02-4.02-.6-1.98-1.38-3.54-.66-1.56-1.29-2.46-.63-.9-1.23-.9-.9 0-1.44-.72-.3-.24-.33-.66-.03-.42.09-.72.3-.48 1.47-1.11 1.17-.63 2.37-.99.48-.12 1.44-.45t1.98-.75q1.14-.54 2.55-1.05t2.76-.96q1.35-.45 2.58-.75t2.13-.42zm6.78 2.7q-.66-.18-2.64-.18-1.02-.06-1.74-.03t-1.08.09q-1.92.42-3.42.75t-2.52.69q-.6.24-1.29.48-.69.24-1.29.54-.18.12-.45.27-.27.15-.45.15-.18.12-.45.18t-.39.18q-.48.18-.72.3t-.36.12q-.36 0-1.38.84-.42.36-.48.54-.06.18.42.84h-.06q.3.48.45.81.15.33.39.69.24.24.24.3.12.24.24.6.24.54.42.54.06 0 .42-.12t.6-.24l.81-.27q.45-.15 1.11-.39 1.44-.6 2.76-.81 1.32-.21 2.34-.21 1.2 0 1.74.51t.18 1.29q-.6.48-2.04.78-.6.06-1.68.39t-2.34.81q-1.2.36-2.1.72-.9.36-1.02.6 0 .06.09.69.09.63.33 1.77.24 1.2.33 2.1.09.9.09 1.44 0 .96.12 1.32.06.18 1.26-.09t3.3-.87q3.18-1.02 4.56-1.17 1.38-.15 1.68.33 0 .3-.18.72t-.6.84q-.66.78-.69 1.05-.03.27.27.93.48 1.02 1.23 1.83t.99.75q.18-.3.51-1.23.33-.93.63-2.43.36-1.62.63-3.27t.39-3.21q.12-1.26.45-3.42t.81-4.86q.48-2.28.48-3.42 0-1.26-.9-1.56zM266.08 17q.3-.3.78-.42.48-.12 1.02-.12t.99.15q.45.15.75.45.6.78.6 2.04 0 4.14-5.58 14.94-.6 1.14-.6 1.38 0 .12.18.6t.48 1.02q.96 1.74 1.32 5.7.48 3.9.84 7.65.36 3.75.48 6.27.06.96.09 1.74t.03 1.44q0 2.28-.48 2.46-.78.24-1.5-.45t-.72-1.53q0-.54-.15-1.83t-.45-3.21q-.12-1.32-.27-2.73-.15-1.41-.27-2.79-.06-.66-.12-1.38-.06-.72-.18-1.38-.66-8.82-1.08-8.82-.12 0-.33.33-.21.33-.51.69-.36.6-.63 1.02-.27.42-.51.72-.36.36-.9 1.26-.36.66-1.05 1.65-.69.99-1.89 2.37v-.06q-3.48 4.68-4.56 3.06-.3-.42-.12-1.2t.6-1.08q.12-.12.54-.69.42-.57 1.2-1.59 3.12-4.26 5.58-8.34t4.2-8.1q2.58-5.4 2.58-8.16 0-1.08-.36-1.62-.3-.42-.3-.78 0-.36.3-.66zm13.38.24q.36-1.32 1.59-.75 1.23.57 4.23 3.39 2.1 2.16 2.85 3.12t.87 1.74q.36 1.56-.42 1.8-.3.12-.66.03-.36-.09-.72-.3t-.6-.48q-.24-.27-.24-.51 0-.12-.75-.84t-2.13-1.92q-2.34-1.92-3.33-3.18-.99-1.26-.69-2.1zm24.12 9.18q.42 0 1.23-.06t.99-.06q.36 0 .72.21t.69.54q.33.33.48.72.15.39.03.75-.12.18-.3.27-.18.09-.69.21t-1.35.24q-.84.12-2.22.3-4.8.24-7.14.6-.84.18-1.41.3t-.69.18h.06q-.12.12-.24.48t-.24.78q-.54 2.46-.3 2.88.12.18.48.42t1.08.42q2.58.84 4.32 1.74 1.92 1.02 2.1 1.56.24 1.08-1.68 5.7-.96 2.1-2.22 4.38-1.26 2.28-2.7 4.62-.84 1.38-1.68 2.61t-1.68 2.43q-1.8 2.4-2.34 2.64-.54.18-1.26-.18-.66-.48-2.22-1.2-1.02-.48-1.86-1.8-.84-1.32-.84-2.34 0-2.52 2.58.42 1.26 1.68 2.04 1.68.3 0 .54-.21.24-.21.66-.63 2.04-2.34 5.34-8.34 1.68-3 2.55-4.95.87-1.95 1.05-2.91v.06q.06-.72-.12-.9-.36-.36-2.46-1.02-3-1.14-3.24-1.14-.18 0-.84 1.38v-.06q-.72 1.74-1.2 2.22-.78.78-1.56 1.92-.54.84-1.56 2.04-1.02 1.2-2.58 2.7-2.88 3-4.44 4.08-3.36 2.28-5.82 2.97-2.46.69-3.54-.21-1.74-1.92.9-1.92 3.3 0 8.46-4.62 5.22-4.68 8.52-10.62.48-.9.93-1.86.45-.96.78-1.83.33-.87.54-1.53.21-.66.21-1.02 0-.12-.09-.15t-.75.09q-.48.06-.96.15t-1.14.24q-.66.15-1.62.39l-2.4.6q-2.28.48-5.13 1.29t-6.45 1.83q-1.26.42-2.01.09-.75-.33-.75-1.35t1.5-1.44h-.06q1.74-.78 4.68-1.56 2.94-.78 6.9-1.62 1.92-.48 4.14-.96 2.22-.48 4.14-.96 2.28-.54 5.64-.96 3.36-.42 7.5-.72zm33.6-3.72l5.4-2.46q1.2-.54 1.98-.84.78-.3 1.32-.36t.9.12q.36.18.72.54.84.84.51 1.59-.33.75-1.71.99-1.2.18-4.08 1.5-2.82 1.26-2.82 1.5 0 .18.18.36.54.36 1.14 1.68h-.06q.54.84.66 1.59.12.75 0 2.01-.24 1.74-.06 2.04.3 0 1.14-.06.84-.06 1.92-.24 3.06-.42 3.9-.72.9-.24 4.38-.18 3.6.12 4.14.36.66.36.75 1.29.09.93-.57 1.41-.66.42-2.7.06-1.56-.24-2.16-.18-.6.06-3.42.36-.36.06-.84.09t-1.08.15q-.3.06-.69.09-.39.03-.81.09-3.3.36-3.54 1.32-.06.54-.03 1.74t.15 2.94q.3 5.76.51 8.7.21 2.94.27 3.18.18.6-.18 2.34-.36 2.22-.48 3.24-.18 1.32-.39 1.89-.21.57-.87.57-.3 0-.78-.15-.48-.15-1.08-.39-1.08-.36-2.19-.6-1.11-.24-2.25-.36-.36-.06-.69-.12-.33-.06-.63-.12l-1.26-.21q-.54-.09-.9-.21-.54-.12-1.29-.42t-6.21-2.34h.06q-1.2-.48-1.56-1.14-.36-.66.3-1.14.3-.06 3.9.9 9.12 2.58 11.22 2.64.66.06 1.02.06t.54-.12q.18-.12.24-.39t.18-.75v.06q.06-.42.09-1.05.03-.63.03-1.53 0-.66-.03-1.41-.03-.75-.03-1.59-.06-2.16-.18-3.93t-.24-3.27v.06q-.12-1.38-.21-2.55t-.09-2.25q0-1.44-.24-1.32-.9.18-2.64.75-1.74.57-4.26 1.41-2.46.84-4.14 1.5-1.68.66-2.7 1.14-3.6 1.5-5.94.84-2.22-.6-3.57-1.29-1.35-.69-1.47-1.29-.06-.72.42-.9.24-.06 1.53.06t3.57.42q.66.06 1.62-.12.96-.18 1.98-.54l7.74-2.52q4.86-1.68 6.72-2.46 1.02-.54 1.08-.66.18-.36 0-2.64-.18-3.12-.48-3.72-.18-.48-.3-.72t-.36-.33q-.24-.09-.69-.06-.45.03-1.17.09-1.32.12-2.22 0-.9-.12-2.28-.6-2.16-.96-2.76-.96-.96 0-1.32-.63-.36-.63.3-1.29.54-.54 1.5-.48 1.02.12 3.72.72 1.74.48 2.28.36.24-.06.9-.36t1.74-.78zm60.3-4.92q.6.24.93.63.33.39.33 2.34 0 1.95-.48 4.23-.24 1.08-.81 3.24-.57 2.16-.81 3.18-.3.78-.24.96.3.42 6.54-1.02 5.76-1.38 10.32-1.38 3.42-.12 5.76.42 1.08.18 1.5.78.42.6-.54 1.86-.6 1.02-2.28.36-1.32-.48-3.96-.42-2.22-.06-3.87.15t-4.29.75q-2.34.42-5.25.9-2.91.48-4.23.72-.36-.06-.54.21-.18.27-.84 1.65-.96 1.92-1.26 2.16-.3.24-.72.87t-.42.93q-.18.3-1.02 1.44-.84 1.14-1.68 2.16l-.48.54.72.66q.78.84.66.48 0-1.32 3.78-3.06t9.12-2.94q3.06-.78 5.7-.72 1.92-.12 3.84.48 3.42.66 2.7 3.06-.48 1.8-1.2 2.88-.24.18-.36.54-.54.84-.78 1.14-.24.3-.66 1.02-1.26 1.8-2.94 4.02-.42.48-.3.51.12.03.84.15 1.74 0 2.52.84t.24 1.8q-.24.48-1.44.72-.42 0-2.28.06-4.02.12-7.02.72-1.38.24-2.1.6-.24.12-.54.54-.54.48-.66.36-.48-.18-1.17-.66-.69-.48-.93-.78-.24-.3-.27-.51-.03-.21-.09-.39-.3-.48-3.06-3-1.86-1.68-3.42-3.24-2.4-2.28-2.82-2.61-.42-.33-1.62.57-1.08.66-1.26 1.08-.9 1.44-5.46 4.02-2.04 1.14-2.7.78-1.32-.6 1.74-2.52 1.26-.84 4.68-3.9 4.74-4.44 7.62-8.58.72-1.26 1.29-2.25.57-.99.57-1.05.18-.18-2.64.48-3.42.66-3.72.96-.48.18-1.38.54-.9.36-1.5.3-.96.06-2.16-.6-3.48-1.68-5.4-3.54-1.08-1.2-.6-1.8.6-1.08 3.12.9 1.14.96 3.3 1.68.78.36 1.23.36.45 0 1.59-.36 1.62-.6 4.68-1.32 3.66-.9 4.32-1.05.66-.15.69-.27.03-.12.42-1.95t.69-3.03q.78-3.84.84-7.02-.12-2.28.24-2.4.42-.72 1.68-.36zm10.14 24.72q-3.36.24-7.56 1.62-2.46.72-5.1 2.1-2.4 1.14-3.12 1.11-.72-.03-.9-.21 0 .06 1.38 1.44 1.08 1.08 2.49 2.58 1.41 1.5 2.07 2.22.3.3.78.96.42.48.69.78.27.3 1.89-.24 1.14-.36 2.1-.57.96-.21 2.82-.33 1.44-.18 1.68-.24t.3-.54q0-.72.72-1.68l1.2-1.8 1.2-1.8 1.26-2.52q.78-1.56.96-1.95.18-.39-.36-.51-.84-.18-2.22-.36-1.38-.18-2.28-.06zm39.24-22.86q.48-.84.84-.87.36-.03 1.38.51.6.6.6 2.34 0 .96-.21 2.1-.21 1.14-.63 2.22-.48 1.2-1.08 2.55-.6 1.35-1.38 2.91-1.38 2.94-2.34 4.26-1.02 1.56-1.56 2.67-.54 1.11-.54 1.65.12.3.42.78.3.48.54.78.48.54.84 1.29t.66 1.59q.3.84.75 2.49.45 1.65.93 3.87.96 3.72.66 7.14-.3 3.6-1.62 3.6-.84 0-1.2-.78t-.12-2.82q.24-2.4-.48-5.16-.3-1.08-.57-2.1-.27-1.02-.45-1.74-.18-.78-.36-1.44-.48-1.74-1.08-3.24-.6-1.5-.96-1.86-.12.12-.45.54-.33.42-.63.9-1.8 2.94-3.6 5.04-1.92 2.28-2.58 2.28-.36 0-.93-.51-.57-.51 2.25-4.83 2.16-2.88 4.47-6.69 2.31-3.81 4.35-7.77 2.04-3.84 2.97-6.45.93-2.61.63-3.51-.18-.9.48-1.74zm18.48 5.4q3.72-3.36 4.2-3.36.66 0 1.23.54t.57 1.2q0 1.38-1.86 1.98-.42.12-.93.48t-1.23.84h.06q-3.3 3.12-6.48 4.8-3.24 1.68-3.9.66-.3-.48.27-1.14.57-.66 2.37-1.68.96-.54 2.37-1.62 1.41-1.08 3.33-2.7zm-2.16 6.18h-.06q.84-1.5 1.74-.6t1.56 3.66q.24.84.42 1.53.18.69.3.81.24.24 2.4-.54 1.8-.48 4.62-.9 1.44-.24 2.49-.33 1.05-.09 1.71-.09 1.74.06 2.85.33t1.65.75q.66.66.69.87.03.21-.27.87-.6.72-1.05.96-.45.24-1.47.12-.72-.12-1.5-.12h-1.56q-1.14 0-2.25.06t-2.31.18q-4.08.36-5.22 1.26-.3.18-.3 2.88 0 1.62-.18 3.18t-.51 2.91q-.33 1.35-.72 2.43-.39 1.08-.81 1.62-.12.18.24.18t1.56-.3q2.1-.36 6.36-.72 2.16-.18 3.36-.18 1.86 0 2.52.42.66.42.66 1.44t-.45 1.41q-.45.39-2.19.39h-.78q-.48 0-.96-.06-.54-.06-1.23-.09t-1.17-.03q-.9 0-1.65.06-.75.06-1.35.18-3.42.66-5.88 1.02t-4.14.48q-3.36.18-4.92-.6-2.04-1.14-2.04-1.92 0-.54.66-.78t1.98 0q1.62.36 4.02.18 1.26-.12 1.68-.21.42-.09.36-.33-.06-.48.72-1.74.78-1.08 1.44-5.64.72-4.2.18-5.04-.54 0-2.7.96-2.04.78-3.54 1.2-1.5.42-2.52.66-.96.24-2.01.3-1.05.06-2.19 0-.84 0-1.41-.06t-1.02-.18q-.45-.12-.84-.27-.39-.15-.87-.45-1.62-1.2-1.62-2.34 0-.66.6-.87.6-.21 1.8.27 1.26.66 3.3.66.54 0 1.17-.06.63-.06 1.29-.18.96-.18 2.46-.6t3.48-1.08q1.92-.6 2.91-.99.99-.39 1.17-.51 0-.3-.09-1.08t-.39-1.8q-.66-2.82-.18-3.54zm60.54-14.34l.06-.12q.3-.48.99-.48t1.11.54q.18.3.33 1.02.15.72.21 1.86.06 1.08-.03 1.89-.09.81-.21 1.47-.12.42.06.45.18.03 1.38-.09h-.06q1.02-.12 2.43-.18 1.41-.06 3.27-.06 1.2-.06 2.07-.03.87.03 1.29.09.9.06 1.86.66 1.44.9 1.2 1.5-.18.66-.18.78 0 .24-.27.39-.27.15-.66.24t-.78.03q-.39-.06-.63-.3h.06q-.48-.24-4.14-.42-.6-.06-1.05-.06h-.93q-1.74 0-1.98.24-.12.12 1.26 1.08l2.94 2.28 3.3 2.58q2.52 1.98 4.44 2.73 1.92.75 3.84.57 3.48-.48 3.48 1.08 0 .84-.72 1.23t-2.46.63q-.84.18-1.98.18-2.1 0-3.99-.78-1.89-.78-3.45-2.16-3.3-2.94-5.28-4.56-1.98-1.62-2.1-1.5-.3.3-.48 8.34-.06 1.26-.06 2.19 0 .93.06 1.29.12.42.24.3 3.72-.48 7.26-.54 1.68-.06 2.22.33.54.39.54 1.59 0 .84-.66 1.11-.66.27-2.94.21-1.92-.06-3.84.09t-2.58.45q-.18.3-.54 5.1-.06.9-.09 1.68-.03.78-.03 1.5 0 2.46.36 3.72.24.84.3 1.83l.12 2.01q.06 2.04-.36 2.94h.06q-.36.66-1.11.69-.75.03-1.35-.63-.3-.3-.54-1.47-.24-1.17-.36-2.91-.12-1.2-.15-2.55-.03-1.35-.03-2.73 0-.84.03-1.71t.03-1.77q.06-4.92-.18-4.92t-2.76.66q-4.26 1.2-5.22.06-.48-.6-.21-1.38.27-.78 1.11-.96.48-.12 1.5-.33 1.02-.21 2.58-.57 2.52-.48 2.88-.72.42-.18.48-1.26.12-.78.15-2.52t.09-4.56v-2.7q0-2.76-.06-3 0 .12-.18.72t-.6 1.56q-.84 2.16-2.04 4.23-1.2 2.07-2.7 4.11-3.12 4.02-4.56 4.02-.36 0-.75-.21t-.69-.54q-.3-.33-.42-.66t0-.57h-.06q.3-.48 1.08-.48 1.32 0 4.68-5.64.66-1.02 1.23-2.22l1.17-2.46q.9-1.86.9-2.22-.3 0-1.26.18t-2.58.66q-1.86.48-3.12.72t-1.98.3q-1.5 0-2.34-.84-1.14-1.2-.78-1.83.36-.63 1.92-.39.66.12 2.04-.12t3.42-.72q0 .06.21 0t.39-.12l.54-.18q.18-.06.54-.12.36-.06.48-.12 1.38-.3 2.07-.51.69-.21 1.11-.51.48-.3.57-.48.09-.18.15-.54v-.3q0-.18.06-.3v-.42q.12-.84.21-1.71t.03-1.83q0-1.74.12-2.1zM507.94 20q.78-1.44 1.62-1.71.84-.27 1.32.81h-.06q.36.6-.03 1.95t-1.77 4.05q-1.32 2.7-2.97 5.13-1.65 2.43-3.63 4.59-.24.18-.09.57.15.39.75 1.59h-.06q2.16 3.84 2.46 8.16.12 1.02.18 2.07l.12 2.07q.06.72.12 2.07.06 1.35.12 3.21.06.9.06 1.77t-.06 1.11q-.12.6-.84.78-1.2.12-1.62-1.2-.36-1.08-.54-5.28-.12-2.76-.24-4.8t-.36-3.36q-.36-2.58-1.2-4.38-.96-1.98-1.02-1.98-.24 0-1.98 1.74-2.16 1.98-3.48 2.58-.9.48-1.38.45-.48-.03-.96-.51-.9-.9-.66-1.14-.06.06.45-.3t1.59-1.08q.6-.42 1.35-1.02.75-.6 1.71-1.56 1.74-1.74 1.74-1.8 0-.24 1.44-1.86.9-.96 1.47-1.56.57-.6.69-.72.6-.78 1.98-2.88.6-.84 1.23-2.04.63-1.2 1.11-2.16.06-.18.18-.42t.24-.42q.24-.48.48-1.17t.54-1.35z"/></svg>