<svg viewBox="0 0 509 80" xmlns="http://www.w3.org/2000/svg"><path d="M28.04 15.02q0-.42 1.02-.27 1.02.15 2.64.81 1.98.9 2.16 1.14.18.3 2.16 1.26 2.7 1.32 3.42 2.67.72 1.35-.9 1.83-1.62.42-3.72-.66-.9-.42-2.25-1.74t-1.35-1.71q0-.39-.18-.39-.36 0-1.68-1.32-1.32-1.32-1.32-1.62zM39.56 28.4q3.48-2.94 3.96-2.88.78.12.42 2.19-.36 2.07-1.26 2.61-.42.3-1.68 2.04-.9 1.38-.99 2.01-.09.63.27 2.91.54 3.42.48 4.98-.06 1.56-.84 3.84-.78 2.34-.9 3 0 .24 3.9 2.28 7.8 4.14 10.08 5.94 2.28 1.8.6 2.7-.9.42-2.04.24-1.14-.18-3.18-1.2-2.7-1.32-3.6-1.56-1.02-.3-1.23-.48-.21-.18.09-.48.36-.42.12-.6-2.46-1.44-5.22-2.88-1.38-.66-1.65-.66t-.93.66q-.72.96-1.2 1.74-.66.9-.96.9-.3-.06-1.59 1.23t-1.53 1.29q-.36 0-2.28 1.5l-3.3 2.34q-2.4 1.8-4.68 2.34-2.28.54-3.9-.24l-1.14-.48 1.2.18q1.44.18 2.94-.75 1.5-.93 4.14-3.57 2.46-2.46 5.04-5.34t3.06-3.72q.18-.36-.12-.6t-1.62-.96q-1.56-.72-3.3-1.38-1.32-.36-2.1-1.02-.9-.54-1.86-.54-.96 0-1.14-.36-.24-.42-.66-.18-.42.18-.42-.18 0-.18 1.23-.54 1.23-.36 2.19-.36 3.24 0 8.82 2.4.9.42 1.17.24.27-.18.99-1.38 1.08-1.98 2.01-4.98.93-3 .39-3-.24 0-1.26.96-1.98 2.1-5.49 3-3.51.9-4.47-.36-.36-.54-.78-.96-.18-.24-.54-1.62-.3-.78-.21-1.17.09-.39.75-1.17.78-.96.9-.84.06.12.18.48.12.48.3.66.18.18.78.12 1.5-.12 3.96-1.8 2.46-1.68 8.1-6.54zm55.02-15.3q1.2-.48 1.65-.51.45-.03 1.29.21.72.36 2.04 1.8.66.84 1.17 1.47.51.63.87 1.17.66 1.2 1.08 4.8.24 1.8.36 3.6t.12 3.54q0 2.64-.15 4.17-.15 1.53-.57 2.28-.42.75-1.11.72-.69-.03-1.77-.57-.36-.24-.54-.3-.18-.06-.42 0t-.66.3q-.42.24-1.2.66h.06q-1.02.66-1.8.99-.78.33-1.14.39-.66.06-1.2.18-.54.12-.84.24-.66.3-1.5-.45t-1.2-1.71q-.36-1.2-.72-5.76-.12-1.56-.15-2.73t.03-1.95q.12-1.62.54-5.16.78-4.98.78-6 0-.9.51-1.05.51-.15.99.45.24.36 1.02.78.36.18.48 1.08.12.66.18 3.06.12 2.04.18 2.1.18.12 2.4-.54 2.22-.54 2.34-.78.24-.6.6-.54.36.06.36.78 0 .42.3.9.42.6-.03 1.35-.45.75-1.29 1.59-2.16 1.5-4.02 1.44-.72 0-.84.15t-.12.75v.3q0 .66.24.72.24.06 1.44-.6 1.68-.72 2.4-.72.54 0 1.2-.9.6-.9.84-.9.42 0 .3 1.92t-.36 2.34v-.06q-.18.3-.6.75t-1.26.99q-2.16 1.26-3.42.3-.3-.18-.42.18t-.12 1.5q0 1.02.15 1.23.15.21.51-.03.12-.12.39-.21t.45-.21q.24-.12.51-.21t.45-.21q1.32-.6 1.38-.72 1.74-1.02 2.64-1.02.48 0 .63-.69.15-.69.15-2.43v-1.08q0-.6-.06-1.38-.18-3.6-.36-4.92-.12-.66-.24-1.2-.12-.54-.42-1.2-.3-.72-.48-.93-.18-.21-.54-.09-1.14.3-2.34.18t-1.68-.54q-.54-.42-.78-.42-.42 0-.42-.54t.36-.54q.12 0 .12-.36 0-.72 1.26-1.2zm10.2 9.72q1.5-.54 2.1.96.24.78.72.78.54 0 1.5 1.2.54.66.78 1.44.24.78.36 2.34.06 1.62-.15 3.09-.21 1.47-.84 2.85-.63 1.38-1.71 2.73t-2.7 2.85l-2.88 2.7q0 .36.06.78.06.42.06.72.12.6.15 1.05.03.45.09.51.12.12 2.7-1.26 1.44-.66 2.25-1.14.81-.48 1.11-.78.48-.48 1.02-.51.54-.03.54.45 0 .18.78.54.84.42.93.96.09.54-.57 1.8-.36.72-.48 1.5t0 2.58q.12 2.88.54 4.02.6 1.02 1.14 3.24.3.9.48 1.68.18.78.18 1.02t-.18.48q-.18.24-.51.36t-.84.06q-.51-.06-1.11-.48v.06q-.48-.3-.78-.54-.3-.24-.48-.57-.18-.33-.27-.81-.09-.48-.15-1.32 0-.66-.54-4.32-.24-1.32-.33-2.28-.09-.96-.09-1.56v-.84q-.12.06-.63.36t-1.05.72q-1.08.66-1.59.9t-1.29.06q-.48-.12-.57.03-.09.15-.03.45.12.72.24 2.25t.24 3.93q0 .36.03.72t.03.66q.12 1.68.15 2.79t.03 1.47q-.42 2.4-2.7.66l-.12-.12q-.3-.24-.51-.69-.21-.45-.27-1.08-.06-.63-.09-2.13t-.09-3.72q0-.54-.03-1.05t-.03-1.11q0-.48-.03-.81-.03-.33-.03-.69v-.87q0-.39-.12-.69-.06-2.58-.12-3.81t-.12-1.35l-1.26.42q-1.44.48-2.4.39-.96-.09-1.38-.75h.06q-.36-.6-.39-1.08-.03-.48.27-1.32.24-.84.57-1.17.33-.33 1.17-.45.6-.12 1.14-.3.54-.18.9-.48.96-.66 1.56-.84.72-.24 1.62-.63.9-.39 1.74-.87.84-.42 1.38-.81.54-.39.66-.63 1.26-1.74 1.68-5.82.18-1.68.18-2.76 0-1.62-.48-2.4-.9-1.32-1.29-2.37t.09-1.35zM74 28.46q.06-.72 1.23-.51 1.17.21 2.97 1.41 2.22 1.44 2.64 1.8 2.28 2.7 2.28 7.02 0 .42-.03.87t-.09.99l-.42 3.48q0 .18-.03.45t-.03.51q.12-.12.36-.21t.36-.15q.78-.42.78-.54 0-.3 1.5-1.92 1.32-1.5 1.26-1.74 0-.42.21-.63.21-.21.48-.24t.51.12q.24.15.36.51.06.54.54.54 1.32.06 1.62 1.56.24 1.44.42 3.87t.24 5.19q.12 4.26.18 6.72t.06 2.52q.06.78.06 1.65v1.35q0 2.16-.18 2.52-.36.36-.87.21t-2.07-1.05q-2.22-1.56-2.22-1.98 0-.18-1.02-1.8-.12-.12-.24-.3t-.3-.42q-.72-1.14-.54-1.26.24-.24 1.68 1.08 1.38 1.26 2.04 1.26h.66l-.18-5.76q-.24-10.62-.66-10.62-.12 0-1.02 1.02-.9.9-.9 1.14h.06q.06 0 .12-.06.48-.12 1.26.78l.9 1.08-.9.9q-.24.36-.9.9t-1.8 1.44q-.12.12-.27.21-.15.09-.27.21-2.64 1.98-3.06 2.22-.24.06.24.48.96.84 1.38 3.6.18 1.08.18 2.22 0 1.5-.24 2.46-.36 1.44-1.14 3.12-.3.78-.6 1.35-.3.57-.6.81-.24.18-.57.18-.33 0-.63-.33t-.45-.93q-.15-.6-.03-1.62.12-1.2.24-2.67t.24-3.03q.06-.72.06-1.23v-1.05q0-1.62-.12-1.68-.48-.3-2.46.6-.84.36-1.41.51-.57.15-.99.21-.42.06-.78-.03-.36-.09-.84-.27-.96-.42-1.08-2.28-.06-1.92 1.02-1.92.36 0 .96-.15t1.5-.57q1.02-.54 1.71-.81t1.11-.45q.06-.06.15-.09t.15-.09q3.96-1.74 3.96-1.98 0-.12-.03-.06t-.15 0q-.18-.06-.54-.27-.36-.21-.78-.69-.24-.36-.45-.72-.21-.36-.27-.84-.06-.48-.12-1.8t-.12-3.42q-.06-5.52-.72-7.08Q77.54 32 76.28 32q-.48 0-.96-.33t-1.14-.81q-1.08-1.14-.54-1.74.36-.36.36-.66zm89.28-16.32q.06.06.3.24.06.18.15.15t.6-.27q.51-.24.93-.24.3-.24.9.66 1.14 1.62.3 2.52-.54.54-.72.45-.18-.09-3.42 3.03-3 2.76-3 2.94.48 0 1.56-.24.48-.18.78-.42.42-.42 2.64-1.32 3.3-1.44 3.84-1.92t-.48-.72q-1.32-.3.12-.6.3-.18.72-.18h1.86q2.46-.06 3.24.15.78.21.72.93.06.36-.27.99t-1.89 2.07q-4.14 3.24-5.4 3.54-.24 0-.54.24-.3.24-.84.6-1.02.36-2.61 1.08-1.59.72-2.43 1.08-1.08.3-2.88 1.08-1.98.78-3.24 1.2-3.84 1.14-4.74 2.46-1.08 1.14-1.2 1.68.06.06.39-.21t.63-.51l.6-.48q.3-.24.66-.36.24-.24 1.23-.24t1.35.24q.66.3.54 1.11t-.6 2.01q-.6.84-.9 2.46-.24.78-.42 1.44-.36.9-.12.72.48-.06 1.62-.96.6-.6 1.08-.66.24-.06.66-.24.84-.66 2.07-1.98 1.23-1.32 4.29-3.9 1.32-1.26 2.52-2.43 1.2-1.17 1.62-1.59 1.02-1.5 1.62-1.62.36-.18.36-.36-.18-.54.72-.54.36-.12 1.02.6.36.42 2.28 1.5 1.38.84 1.56 2.16.3.78-1.86 2.94-1.8 1.86-2.67 2.37-.87.51-.75.81.18.48.48.72.12-.12 1.44 1.2.72.78 3.42 3.12 2.64 2.1 2.4 3.72-.12 1.32-1.26 1.26-.9.06-2.52-1.02-1.92-1.08-2.28-.96-.36.12-2.58-1.5-.6-.48-1.05-.66-.45-.18-1.05-.9-.72-.66-.42-.54.36-.12 2.25.75 1.89.87 2.31.87.3-.18-.42-1.14-.66-.72-2.1-1.83t-2.7-1.89q-1.62-1.02-2.52-1.32-.42-.12-.66.06-.48.24-1.38 1.23-.9.99-1.32 1.83l-.18.24h.3q.3 0 1.32.06 3.12.12 4.14 1.32 1.2 1.98-1.8 3.18-1.74.36-4.5-.24-1.38-.18-1.56-1.38-.24-.48-.54-.6-.18.06-.36.3-1.2 1.62-3.96 4.68-1.38 1.44-2.34 4.2-.48 1.32-1.68 5.4t-1.68 5.94q-.36 1.02-.78 2.28-.36 1.02-.39 1.2-.03.18-.21.78-.3 1.62-1.8 1.32-.9 0-1.02-.12-.48-.24-.78-.84-.06-.24-.24-.48-.42-.84-.78-2.49-.36-1.65-.36-2.82t.24-1.89l.06-.18.06.18q.06.12.12.84 0 1.2 1.14 3.06.66 1.14.72.9.36-.48 2.28-6.12 1.68-5.34 1.5-5.46-.24.06-.78.48-1.68 1.32-2.94.36-1.02-.6-.69-2.46.33-1.86.51-2.34.18-.48.72-.48.66-.18 2.01-1.05 1.35-.87 1.23-1.05-.12-.18-.51-.3t-.57-.24q-.54-.36-1.56-2.34l-.12-.18-.42.6q-.48.6-1.62 2.22-1.14 1.62-2.16 3.18-1.14 1.62-1.47 2.1-.33.48-.33.84-.18.78-1.02 2.04-.54.66-.84 1.14-.48.72-.81.78-.33.06-.69-.54-.24-.36-.27-.48l-.09-.36q-.36-.48 0-1.44.24-1.14 2.52-4.74 1.08-1.86 1.71-2.49.63-.63 1.05-1.35.24-.66 1.29-1.98 1.05-1.32 1.95-2.1.48-.54 1.32-1.56 1.38-1.74 4.92-5.82 1.26-1.56 1.23-1.65-.03-.09-1.41-.03-1.62 0-2.55-.15-.93-.15-2.37-.57-1.14-.42-1.56-.48-1.26-.24-1.14-2.16-.06-.54.3-1.5.42-1.44.78-1.26.18-.12.63.24t1.35.54q1.92.24 4.44.12 2.04-.12 2.34-.84 0-.36.06-3.45.06-3.09.12-3.75.12-1.08.42-1.32.12-.24.24-.12.48.36.96 1.08.48.72.78 2.04-.06.3.03 1.11t.21 2.97v.96q-.18.24.12.24.12-.12.96-.36l1.26-.36q1.02-.6 1.68-1.02.42-.48 2.28-2.82.9-1.2 1.56-2.04 1.68-2.28 2.28-3.9.18-.54.12-.9-.12-.84.36-.84.36-.24.72.06zm4.62 17.82q-.3.12-.63.33-.33.21-.72.45-.39.24-1.41 1.02t-1.38 1.14l-.18.18.24.12q.24.06.48.3.18.06.24.09t.48.33q.66.54 1.2 0 .42-.36 1.38-1.95.96-1.59.96-1.86t-.21-.27q-.21 0-.45.12zm-19.02 7.32q-.36.24-.36.3-.18.36-3.24 1.98-.9.36-1.26.72-.66.54-.6.78.06.24.66.21.6-.03 1.98 1.23.84.78 1.14.78.3 0 .84-1.74.42-1.32.63-1.86.21-.54.45-1.38.24-.84.24-1.14 0-.3-.48.12zm14.1 8.88q.36.18.72.48 1.32 1.26 1.08 1.32-.18.66-1.44 2.4-1.8 2.1-1.56 2.16-.06.3.36.9.18.24.66 1.92.36 1.2.48 3.24.24 4.2-1.14 5.46-1.02 1.08-2.46.96-.72.06-2.1-.6l-.84-.3-.72-.66q-1.68-1.68-1.68-2.64 0-.48.36-.48t.54.54q.54 1.56 2.22 1.08 2.46-1.02 2.94-3.78.12-1.56 0-2.94-.3-1.08-.84-1.08-.3 0-2.04.9-3.84 1.92-5.1 1.86-1.44.12-2.1-.84-.54-.66-.6-1.5-.06-.84.3-.78.18.06.48-.84.3-1.02 1.56-1.26 1.62-.54 5.22-2.4 1.2-.78 1.68-1.05t1.08-.63q1.26-1.02 1.68-1.26l.45-.24q.45-.24.81.06zm4.98 7.68q.36-.06 1.11.57.75.63 2.67 2.58 1.92 1.95 2.46 2.73 1.02 1.32 1.02 1.74.42 1.8-.84 2.94-1.02.54-2.04 0-1.44-.78-2.52-2.82-.48-1.02-.48-1.86-.18-1.32-1.2-1.92-.96-.36-1.38-1.74-.3-.54-.48-.84l-.3-.3-.54-.06q-.96-.06-.87-.21.09-.15.63-.45.54-.3.9-.3.72-.36 1.86-.06zm-17.04 4.14q.06 0 .15.18t.03.42q-.12.48.24 1.44.18.12.18 1.62 0 2.52-.6 3.12-.3.3-.6.18-1.26-.06-1.68-1.86-.18-1.32.12-2.64.24-1.08.93-1.74.69-.66 1.11-.78l.12.06zM215.48 11q.3-.3.99-.12t1.83.72q2.7 1.14 2.7 3.06 0 .96-.54 1.98-.36.54-.81 1.14-.45.6-.9 1.08-.45.48-.81.81-.36.33-.57.33-.21 0-.27.06-.3.48-1.14.84h.06q-.48.24-.75.57-.27.33-.39 1.11-.12.84-.09 1.11.03.27.57.57 2.28 1.56 2.94 3 .36.9.3 1.11-.06.21-.66.87-.96.72-2.1.72-.42 0-.93-.12t-.99-.24q-1.02-.24-1.08-.51-.06-.27.84-.63.66-.36 1.02-1.14.36-.78.06-1.26h.06q-.24-.48-.72-.45-.48.03-.66.51-.36.54-.66.84-.06.06-.18.27-.12.21-.3.87-.3 1.08-1.02 1.5-.06.12-.06.24t.24.48q.66.6.48 1.5-.3.96-1.74 1.98-1.44 1.14-2.28 1.14-.6 0-1.02.45-.42.45-.06.69.54.36.78.36.48 0 2.46 1.14.12.06.27.09.15.03.27.15v-.06q.78.48 1.38.81.6.33 1.26.63 1.08.54 1.62 1.38.54.84-.12 1.26v-.06q-1.14.84-3.12-.54-1.74-1.26-4.62-2.7-.6-.3-.87-.24t-.63.6l-1.29 2.04q-.57.9-1.05 1.38-.66.84-1.5.84t-1.38-.54q-.6-.6.06-.9.78-.3 1.86-4.38 1.2-4.26 1.32-6.9 0-.84-.03-1.32-.03-.48-.12-.75t-.24-.57q-.15-.3-.57-.66-.96-1.02-1.38-1.02-.72 0-.24-.66.36-.36 1.56 0 1.2.36 2.22 1.08.72.48 1.35 1.74.63 1.26.96 2.76.33 1.5.69.24.24-.84.18-1.35-.06-.51-.3-.93-.48-.54-.18-.81t.96.27q.6.66.75.66.15 0 .93-3.06.84-3.24 1.2-5.16.12-.84.21-1.74t.09-1.62q0-.84-.09-1.47t-.21-.81q-.48-.42-1.17-.78-.69-.36-1.23-.36-.42.18-.51.09-.09-.09.21-.81v.06q0-.06.03-.12t.03-.12q.36-.84 1.14-.84.78 0 2.16.84h-.06q1.2.84 1.8 1.56.6.72 1.02 2.1.12.48.24.84t.18.36q.3 0 .84-1.8.78-1.92.78-2.64 0-.66-.18-.84-.18-.18-.48-.3-.54-.18-.81-.63t.21-.87zm-13.08 7.56q-.18-1.74-.06-1.8.12-.06.9.78l.24.24q.78 1.02 1.95 1.74t2.07.72q.42 0 .96-.33t1.08-.81q.6-.66 1.02-.87.42-.21.6.09.3 1.08-.42 4.02-.3 1.02-.93 1.65-.63.63-1.65.63-.36 0-.75-.12t-.99-.36q-1.14-.54-1.14-.96 0-.18-.81-.6t-1.38-1.47q-.57-1.05-.69-2.55zm23.52 3.06q.3-.42.78-.24.48.18 2.04 1.02 1.8.96 2.4 1.92v-.06q.12.36.21.54.09.18-.03.45t-.42.63q-.3.36-.84 1.02-.78.78-1.5 1.35-.72.57-1.38.99-.9.48-1.11.96-.21.48-.09 1.44.12.78 1.32 1.26 3.3 1.8 3.3 4.14 0 .72-.24 1.2t-1.2 1.32q-.6.48-1.32.99-.72.51-1.56.75-1.86.66-2.4.18-.24-.06-.69-.18-.45-.12-.51-.18.06 0 .33-.21t.63-.39q1.26-.78 2.28-3 .9-2.22.3-2.88-.48-.36-.81-.36-.33 0-.33.36 0 .6-1.08 2.76-.6 1.14-1.08 1.83-.48.69-.84 1.11-.48.6-.84 2.16-.42 1.32-1.44 2.52-.66.66-.84 1.02-.18.36-.18 1.08 0 .78.24.96.24.18 1.62.72.72.3 1.68.66.96.36 2.16.96 2.04 1.02 4.2 1.5 1.08.24 1.95.69.87.45 1.71 1.11.54.48.93 1.11.39.63.39 1.11 0 .72-.69 1.2t-2.19.42q-4.26-.06-4.38-.42-.18-.06-.36-.18-.12-.18-.3-.24t-.36-.18q-.96-.36-1.08-.9-.12-.54.54-1.08.18-.18-.24-.6-.3-.18-.93-.54-.63-.36-1.53-.84-1.98-.96-2.28-.96-.3 0-.33-.15-.03-.15-.09-.27-.06 0-.06-.06-.12-.06-.12-.12-.12.12 0 2.82.12 1.5.21 3.15t.27 3.45q.12 1.38.15 2.31.03.93-.09 1.53-.24 1.02-.12 1.44.12.3-.15.84t-.93.9q-1.38.54-2.43-.21-1.05-.75-1.41-2.37-.18-.84-.09-.99.09-.15.81.21.48.24.54.18.12-.12.24-4.62 0-.9.03-1.56t.03-1.2v-1.68q-.18 0-1.2 1.5-1.08 1.68-2.58 3.48-.6.84-1.17 1.41t-.93.81q-.54.48-1.35.69-.81.21-1.59-.09-1.02-.3-.99-.6.03-.3 1.05-.6.18-.06.6-.39t1.08-1.05q1.26-1.38 1.92-2.46l.75-1.5q.57-1.14 1.59-3.12 1.92-3.96 1.92-4.08 0-.12-.48 0t-1.14.54q-3.06 1.8-8.4 2.04-1.2.12-1.98.15t-1.08-.03q-.54-.06-1.08-.72-.72-.96-.72-1.92 0-.42.03-.69.03-.27.21-.36.18-.09.57-.09h1.11q.84.06 1.95-.12 1.11-.18 2.43-.66 1.86-.54 4.32-1.56 1.14-.54 1.89-.87.75-.33 1.17-.63.24-.18.51-.33.27-.15.54-.27.27-.12.36-.3.09-.18-.09-.66-.12-.48-.15-.81-.03-.33-.09-.63 0-.12-.06-.21t-.06-.21q-.12-.96-.48-1.65t-.66-.63q-.6.12-.6-.6 0-.54 1.23-.66t2.01.66q.72.78 1.32.69.6-.09 1.08-.93.18-.42.3-.87t-.24-.45q-.54 0-1.92-1.2-1.26-1.14-1.5-1.68-1.02-3-.9-3.12.3-.3 1.74.9 1.32 1.02 1.56 1.02.18 0 .39-.24.21-.24.45-.54.24-.3.42-.6t.18-.42q0-1.2.72-.42.18.18.27.45.09.27.15.57 0 .12.12.36 0-.18.18-.84.36-1.32.45-2.4.09-1.08-.21-1.08t-.6-.72q-.06-.6-.6-.66-.78-.3-.78-.72 0-.66.63-.69.63-.03 1.47.57.96.66 1.38.66.42 0 1.38 1.02.42.36.63.42.21.06.51-.24.54-.84 1.02-2.28.54-1.44.42-1.68-.18-.24-.42-.24-.48 0-.69-.33-.21-.33.33-.69zm-31.2 10.26q0-.6.27-.6t1.41 1.32q.66.6 1.02 1.08.36.48.48.84.72 1.26 1.86.12 1.32-1.5 1.38 1.56 0 1.2-.48 1.83-.48.63-1.26.63-1.5 0-3.18-2.04-.6-.78-1.05-2.22-.45-1.44-.45-2.52zm62.4-18.66q0-.18 2.22.54.72.3 1.23 1.23.51.93.51 1.89.06.54.12.96.06.42.18.6.12.66 1.02.36.36-.18 1.53-.69t2.97-1.35q.12-.12.27-.18.15-.06.27-.12l.36-.18q3.3-1.44 3.96-1.68.3-.06.78.15.48.21.84.51.6.3.63.6.03.3-.45.78-.3.3-.87.72-.57.42-1.41 1.08-1.8 1.32-1.92 1.32-.12 0-.48.24t-.72.54q-.84.72-3 1.74-2.28 1.08-2.46 1.68-.12.36-.24 2.34t-.24 5.52q-.3 7.2-.18 7.5.3.3 2.28-.72.9-.48 1.44-.78.54-.3.78-.6.12-.36.12-1.59t-.12-3.09q-.3-4.02-.9-5.46-.06-.24.03-.27.09-.03.45.09 1.44.3 2.13.99t1.11 2.67q.72 3.24 1.08 3.36.24.12.9-.6.84-1.08.84-1.62 0-.3.24-.03t.54.87q.36.72.33 1.17-.03.45-.27.93-.18.36-.33.81-.15.45-.15.75 0 .48-.96 1.62-.42.48-.69 1.08-.27.6-.39 1.08-.12.48-.09.78.03.3.21.3.36 0 1.14-.6.18-.12.12.03t-.3.45q-.3.24-.48.57-.18.33-.06.57 0 .12-.03.33-.03.21-.15.33-.36.36-.36 4.92v2.28q0 1.26.06 2.76.06 1.62.06 2.94v2.4q0 4.38-.18 4.56-.42.54-.24.96-.06.06-.9.06-1.14-.06-2.01-.72-.87-.66-2.13-2.52h.06q-1.02-1.8-1.74-2.1-.18-.06-.12-.12.12-.12 1.2.3 1.26.42 1.56.12.3-.24.36-4.68v-1.92q0-2.64-.42-2.64-.3 0-2.22 2.28-2.4 2.76-3.99 4.11-1.59 1.35-2.61 1.35-.84 0-1.71-.87t-.87-1.29q0-.36.93-1.26t2.43-1.98q.48-.36 1.2-.96t1.74-1.5q.96-.9 1.86-1.65.9-.75 1.74-1.41 1.02-.9 1.65-1.89.63-.99.27-1.35-.24-.24-1.98.24-1.2.54-2.1.54-1.98 0-3.06-1.98t-.9-5.52v-.54q0-.3.03-.87.03-.57.09-1.29.12-2.58.18-3.78l.18-4.2q-.48.06-1.14.09-.66.03-1.2.09-.54.06-1.14.06-.6 0-.78-.06l.06.06q-.12-.12-.36-.33-.24-.21-.78-.63-.12-.06-.3-.24-1.08-1.08-.9-1.98.12-.72.39-1.2t.57-.48q-.06 0-.06.06v.12q-.12.6 1.08.66 1.2.06 2.82-.42 1.26-.42 1.44-.69.18-.27.06-1.05 0-.12-.03-.33l-.09-.63q-.12-.6-.18-1.32-.3-1.62-.78-2.52-.18-.54-.33-.96-.15-.42-.15-.6zm30.06 8.7q.96-.42 1.68-.72t1.2-.51q.48-.21.84-.24t.66.03q1.38.3 1.95.78.57.48-.09 1.02-.9.84-1.83 1.5t-1.95 1.32q-1.2.78-2.07 1.26-.87.48-1.56.81-.69.33-1.38.45t-1.41.12q-1.2.06-1.83-.12-.63-.18-1.35-.66-1.2-.96-1.2-1.98 0-.66.06-.81.06-.15.36-.03 2.28.54 7.92-2.22zm-1.86 8.88q.06-.18.48 0 .06 0 .12.03t.12.03q.12.06.3.06h.3q.42 0 1.38 1.2.48.54.87.99.39.45.51.81.42.84.42 1.86.12 1.2.66 1.2.48-.12 2.82-1.38 1.5-.9 2.25-1.11.75-.21 1.8-.09t1.23.27q.18.15.12.69-.06.66-1.53 1.71-1.47 1.05-4.05 2.07-.36.12-.72.3-.3.12-.54.18-.24.06-.42.36h.06l-.3.24q-.12.12-.15.21t-.21.57q0 .12-.03.21t-.03.27q-.06.12-.06.3v.24q.06.06 0 1.26v1.8q.06.18.06 1.2 0 .24.03.51t.03.63q0 .48.06.87t.06.69v.75q0 .39.06.69.06 1.38.06 2.49v3.39q0 .6-.06.9-.06 1.26-.84 2.16-.54.84-2.1.96-.3 0-.66.06-.36.06-.78.06l-.12-4.02-.12-4.02q-.18-8.1-.54-8.46-.48-.42-1.26.3-.6.6-3.48 2.16-2.82 1.5-2.88 1.5-.06-.6-.72.12-.36.3-.87.18t-1.23-.66v.12q-1.5-1.14-1.5-2.34 0-.6.18-1.17t.3-.27q.78 1.8 8.58-2.76h-.06l3.18-1.68-.12-3.18q-.06-2.88-.48-4.14-.3-1.2-.18-1.32zm54.36-12.42q.78.24 2.61 1.05 1.83.81 2.55 1.23.3.18.81.54.51.36 1.8 1.5 1.29 1.14 1.59 1.44-.12.3-.36.84-.24.18-1.05-.09t-1.11-.57q-.54-.36-1.05-.42t-1.53-.9q-.6-.42-1.44-.96t-1.26-.75q-.42-.21-.84-.27-.42-.06-.66-.18-.72-.36-1.5-1.74-.54-.78-.63-.87-.09-.09.09-.09.42-.3 1.98.24zM322.76 23q-.06.12.48.6.42.24 1.26.66 1.74.84 2.76 1.56.3.18.6 1.02l.06.3-.42.36q-.48.42-1.02.9-.78.66-2.7 2.58-2.1 2.04-2.22 2.31-.12.27-.3.69-.3.18-.3.54l-.06.3.42.42q.54.78 1.86 1.38 2.4 1.08 2.4 1.5-.3.66-1.14 1.92-.36.42-.51.6-.15.18-.33.3-.6.12-.6.9 0 .06-.78 1.14-.78.84-.78.9 0 .06-.3.48-1.26 1.26-1.44 1.83-.18.57.48 1.23.9.96 2.04 1.62.9.42 1.38 1.5.72 1.44.9 4.92.06 2.1.21 2.79t.36.81q.21.12.15.3-.24.42-.36 1.98-.12.48-.12.24-.24-.18-.72-.42-1.26-.84-1.29-1.14-.03-.3-.09-.48-.24-.42-.72-.66-.24 0-.36-1.68-.18-1.92-.3-1.98-.12-.06.12-.72.6-1.5.54-3.78.06-1.86-.96-1.68-.72 0-2.28.48-2.4.6-3.12 1.2-.36.24-.78.24-.66.06-.96-.39-.3-.45-.3-1.35-.18-1.32 1.26-2.7 1.02-1.2 1.8-2.22.78-1.02 1.92-2.82 1.56-2.52 1.5-3.12 0-.3-.18-.54-.42-.48-2.82-.24-1.26.12-1.74-.54-1.02-.9-1.08-2.4-.18-.6.15-1.05.33-.45 1.89-1.71 2.64-2.52 4.41-4.77 1.77-2.25 2.13-3.45.06-.42-.12-.66l-.18-.3h.12q.18 0 .18.3zm28.08 5.04q.3.18.6.42.6.42 1.5.72 1.8.72 2.4 1.38.12.24.06.48-.12.06-.3.18-.72.36-.9.9.06.12-1.5 1.2-.6.42-.9.66-.3.24-1.8 1.08-1.56.66-2.07.9-.51.24-1.95.87t-2.4.99q-2.04.72-2.16 1.32-.42.66 1.32 2.64.96 1.14 1.68 1.5.36.18 1.68 1.68 1.02 1.38 1.74 2.64 2.58 4.56.06 8.64-1.38 2.22-2.94 3.9-1.8 1.8-2.76 1.86-.78.06-1.5.78-.36.36-1.86.72-.66.18-.99.33-.33.15-.57.21-.78.18-1.35-.03-.57-.21-.39-.57.12-.66 1.32-2.52 1.74-2.7 3.48-4.5.78-1.02 1.44-2.04.36-.84.81-2.01.45-1.17.69-1.83.6-1.92.6-3.36 0-1.26-.48-2.28-.54-1.32-1.56-2.97-1.02-1.65-1.47-2.16-.45-.51-1.47-.21-.54.12-3.12.3-4.26.36-5.16.3-.66-.06-1.56-.78-1.02-.6-1.14-1.2-.24-.3-.18-1.26-.06-2.16.78-2.1.3-.12.54.06.24.18 1.2.18 1.56 0 4.98-.96 1.38-.48 2.91-1.05 1.53-.57 4.89-1.89 2.4-1.08 4.62-2.07 2.22-.99 2.64-1.23.06-.12.12-.12t.42.3zm49.8-10.86q.54.48 1.41 1.5.87 1.02 1.65 1.68 1.14.66 1.26 1.5-.24.12 1.56 1.86 2.34 2.34 2.22 3.24 0 .36-.12.54-.6.66-2.1.66-1.02.18-1.98-.87t-1.86-2.67q-1.56-2.4-1.5-3.54-.12-.84-.42-1.14-.18-.12-.24-.3-.36-.72-.54-1.74-.18-.66.06-.72.12-.3.6 0zM392 22.76q.36.12.48.15t.48.27q.54.24.66 1.32 0 .48-.03 1.74t-.03 1.68q-.18.24.42-.24.6-.66 1.74-1.2 1.74-1.08 2.4-.96.42-.06.84.24.84.48 1.2 1.08.06.3-.36 1.26-.42.6-1.32 1.95-.9 1.35-1.38 2.19-1.08 1.2-2.01 2.55-.93 1.35-1.17 1.95-.66 1.14.6.36 1.44-.9 2.22-1.41.78-.51 1.8-.87 6.84-3.48 11.16-3.6.9-.06 1.38.18 1.8.72 3 1.92 1.08 1.2 1.02 2.4.06.48-.33 1.2t-.39.84q-.36.84-1.74 2.7-3.12 3.54-7.38 6.36-2.82 1.74-3.9 2.31-1.08.57-1.8.75-2.82.6-4.8 0-.36-.12-.63-.18t-.21.18q-.12.18-.06 1.62 0 1.14-.12 2.22-.12 1.08-.3 3-.6 4.86-1.02 6.36-.24.84-.72 1.44-.78.84-1.68.33-.9-.51-1.17-1.2-.27-.69-.09-2.85.24-3.18.42-11.52.06-3.72.06-4.08-.18-.06-.84.66-.66.72-1.14 1.32-1.14 1.38-1.83 2.34-.69.96-1.41 2.28-1.2 1.8-1.86 2.4-1.14 1.08-2.22 1.02-.78 0-.96-.54-.54-1.02.9-3.84 1.2-2.82 4.44-6.66.66-.96 1.86-2.49 1.2-1.53 2.04-2.55 1.14-1.68 1.32-2.04 0-.24.18-.42l.06-.24-.42.36q-.42.24-.84.6-2.7 2.22-3.87 2.13-1.17-.09-2.37-.75-1.02-.84-1.38-1.38-.48-.78-.42-1.86-.06-1.5.96-1.98.6-.36.78-.06 0 .06.06.63.06.57.24.69.42.54 1.62 0 .6-.42 2.43-1.71t3.09-2.07q.24-.24.42-.3t.24-.24v-2.1q0-1.62-.06-2.25-.06-.63-.27-.87-.21-.24-.48-.75t-.21-1.11q-.3-1.02 1.44-.78.78-.06 1.26.12zm17.76 11.28q-6 .84-12.78 5.16-.84.42-1.53.84-.69.42-1.26.81-.57.39-.45.63-.18.36-.18 2.52t.15 2.79q.15.63.69 1.14.54.51 1.5.51 2.04 0 4.14-1.5 1.62-1.44 3.96-3.51t3.42-3.15q2.4-2.94 3.6-4.56.9-1.56.72-1.92-.3-.12-1.98.24zm52.8-19.8q.48-.3.66-.27.18.03.96.39.84.36 1.38 1.32.54.96.36 1.98-.06.72.09 1.11.15.39.81 1.05 1.02 1.26 1.02 2.46 0 .84-.3 1.2t-1.32 1.38l-1.56 1.44-.24 2.16-.18 2.16 1.44 1.14q1.8 1.62 3.66 3.48 4.5 4.32 9.84 7.2 2.64 1.5 3.39 2.07.75.57 1.05 1.35.36.9.15 1.35-.21.45-1.05.51-1.56.12-4.08-1.68-1.2-.9-1.62-.9-.54 0-3.27-2.31t-5.37-5.01l-4.14-4.2v1.26q0 1.38-.18 3.24-.06 1.2-.24 5.52-.12 2.22-.06 2.82.06.6.36.6.36 0 2.82-.66t3.18-.96q.48-.18.6.21T470.6 47q-.3 1.08-1.92 2.43-1.62 1.35-3.84 2.37-1.02.48-1.23 1.05-.21.57-.45 3.63-.42 5.22-1.2 7.02-.78 1.8-2.46 1.86-1.26 0-1.59-.3-.33-.3-.75-.3-.78-.06-2.34-1.59-1.56-1.53-1.26-2.07.18-.36.6.42.42.6 1.35.63.93.03 1.53-.51.96-.96 1.44-5.4l.18-1.86h-2.28q-1.5 0-2.07-.12-.57-.12-1.35-.6-1.32-1.02-1.38-2.25-.06-1.23 1.26-1.29.72 0 3.24-.63 2.52-.63 2.7-.75.18-.18.27-3.72.09-3.54-.09-3.54-.24 0-1.98 1.86-1.44 1.62-2.34 2.37-.9.75-3.3 2.79-2.94 2.52-5.85 4.71-2.91 2.19-3.15 2.19-.3 0-.3.24t-1.02.48q-1.14.24-1.44.87-.3.63-1.17.69-.87.06-1.29-.48-.36-.48-.6-7.74-.12-7.38-.3-7.86-.06-.18-.3-.84-.12-.42-.27-.45-.15-.03-.69.27-1.38.78-3.06 3.18-1.08 1.68-2.28.48-1.08-1.08-.3-3.33t3.18-5.25q1.74-2.1 4.98-5.31 3.24-3.21 4.14-3.63 2.04-1.02 3.57-1.05 1.53-.03 1.89.99.12.48.42.48.3.06.21.45t-.51.93q-.48.54-1.62 1.14-1.08.54-1.08.81t-.84.93q-.84.66-1.14.66-.18 0-3.12 2.76l-2.94 2.76 1.02.18q.84.18.84.36t.84 1.2l.84 1.02 1.02-1.08q1.98-2.22 4.44-4.38 3.42-3.06 11.16-8.16l3.54-2.4.18-1.92q.24-2.22.72-4.53t.72-2.79q.24-.48.78-.84zm-2.88 17.28q.06-1.62-2.46.12-1.26 1.02-2.82 2.04-1.74 1.14-5.19 3.87-3.45 2.73-5.67 4.65l-2.46 2.22-.06 3.9q-.06 3.9-.42 4.38-.42.78.09.78t1.29-.84q3.18-2.88 7.32-7.11 4.14-4.23 5.28-5.73 1.92-2.4 3.51-4.98 1.59-2.58 1.59-3.3z"/></svg>