<svg viewBox="0 0 449 80" xmlns="http://www.w3.org/2000/svg"><path d="M34.34 18.5h.06q.36-.48 3.06.24h-.06q.84.24 1.95.45 1.11.21 2.31.45 4.5.84 4.5 2.1 0 .96-.66 1.38-.66.42-1.68.12-1.38-.36-2.1.06-.66.3-1.65.27-.99-.03-1.35-.39-.36-.48-.06-.54 1.14-.78-.96-1.5-1.98-.72-2.94-1.44t-.42-1.2zm20.28 7.44q.3-.36 1.68-.3 1.5.12 1.98.48.54.48.48 1.32-.06.66-.39.81-.33.15-1.71.33-1.56.12-5.94 1.26h.06q-1.14.3-2.01.51-.87.21-1.47.33-.66.18-1.2.3-.18.18-.12.48t.18.54q.3.42.27 1.44-.03 1.02-.45 2.46-.78 3-2.46 5.76-.24.36-.36.6t-.03.48q.09.24.36.57.27.33.81.93.66.72 1.44 1.74.78 1.02 1.68 2.34 3.36 4.92 6.3 6.96.96.54 1.29.6.33.06 1.98.63 1.65.57 2.13.69.12.06.6.21t.36.09q.78.36 1.65.66.87.3 1.65.6.9.36 1.77.75t1.56.78q.69.39 1.11.72.42.33.42.57 0 .12-.3.6-.12.3-.51.24t-1.53-.54q-.78-.3-1.56-.54-.78-.24-1.56-.42l-7.14-1.44q-1.38-.24-2.76-1.08-1.44-.78-3.78-3.24t-3.9-4.86q-.78-1.2-1.56-2.16-.78-.96-1.44-1.68h.06l-1.14-1.38-3.78 3.66q-1.68 1.68-2.85 2.64-1.17.96-1.83 1.32-2.64 1.86-3.96 2.46-1.08.42-2.28.75-1.2.33-1.74.33-1.14 0-.78-.51.36-.51 1.56-.99 2.52-.84 5.4-2.91 2.88-2.07 5.64-5.13 1.2-1.26 1.89-2.16.69-.9.69-1.2.06-.48-.51-1.08-.57-.6-1.5-1.2t-2.1-1.14q-1.17-.54-2.31-.9-1.14-.36-2.1-.48-.96-.12-1.5.12-.24.12-.6.09t-.6-.21q-.6-.6-1.14-.42-1.2.48-2.79.93-1.59.45-3.51.87-2.4.36-4.2-1.14-1.26-1.08-.9-1.8t1.68.06q.72.42 1.86.42 1.32 0 3.48-.54h-.06q2.04-.48 5.19-1.59 3.15-1.11 7.65-2.85 2.28-.9 6.36-2.19t9.9-3.03q3.06-1.02 3.24-1.32zm-10.68 6.9q0-1.02-.24-1.17-.24-.15-1.02.39-.06 0-.09.03t-.09.03q-.54.3-.96.36-.06 0-.06.03t-.12.03q-.24.06-.63.21t-.75.27q-2.52 1.08-4.05 1.65-1.53.57-2.19.69-1.32.24-1.2.9 0 .42.72.48 1.02.12 2.88 1.02 1.92.84 3.24 1.68l1.74 1.32q.12-.24.36-.6t.36-.66q.36-.54.72-1.44.36-.9.66-1.92.3-1.02.51-1.92.21-.9.21-1.38zm58.32-20.34q3.48-.78 4.74-.78 1.26 0 1.86.78.3.54.33 1.05.03.51-.21 1.65-.42 1.86-.6 11.46-.12 5.64-.21 7.71-.09 2.07-.24 2.82t-.57.75q-.42 0-1.77-1.26t-1.77-2.1q-.36-.54-.69-.42-.33.12-2.07.9-2.22 1.2-3.18 2.04-.84.72-1.38.72-.54 0-1.02-.72-.36-.6-.39-1.38-.03-.78.21-3.12.36-3.84.48-8.94.18-3.96.06-4.77-.12-.81-.87-1.77t-.81-1.65q-.06-.69.54-.69.36 0 2.1 1.08 1.2.78 1.41 1.14.21.36.21 1.62 0 1.8.33 1.8t2.37-.78q1.86-.54 2.61-.36.75.18.57 1.2-.06.54-1.83 1.26t-3.03.72q-.6 0-.81.33-.21.33-.33 1.71-.12.72-.12 1.44t.06.72q.18.12 1.86-.66 1.68-.84 3.09-.99 1.41-.15 1.65.45.18.42-.27 1.02-.45.6-.99.6-.18 0-1.83.69-1.65.69-2.91 1.35-.42.24-.84 2.37t-.12 2.43q.18.24 2.58-1.02 2.34-1.2 3.66-1.5 1.14-.18 1.41-1.14t.27-4.92q0-3.78.3-7.56.3-3.96.24-3.96-.18-.18-4.68.96-1.26.3-2.07.03-.81-.27-.69-.99.06-.6 3.36-1.32zM83.78 29.24q0-.48.6-.48.54 0 1.05 1.05t1.41 4.05q.54 1.68.99 4.56.45 2.88.39 4.02-.06 1.02.06 1.74t.42.72q.42 0 6.66-4.56 2.1-1.5 2.7-1.26.72.3.93 1.02.21.72-.15 1.74-.6 1.8-1.2 8.25t-.66 11.07q0 4.08-.18 4.62t-.84.45q-.66-.09-1.32-.81-.72-.78-1.02-3.24-.3-2.46.3-3.18.48-.6 1.08-7.44.54-6.9.78-7.65t-.18-.72q-.42.03-1.32.81-1.26 1.14-3.6 2.61t-2.88 1.47q-1.08 0-1.38-.99-.3-.99-.42-4.53-.12-4.5-1.26-8.7-.96-4.32-.96-4.62zm30.6.66q.18-.6.96-.3t1.02 1.08q.3 1.08.15 4.92t-.57 4.14q-.96.96.66.96.78 0 1.44.66.66.66.48 1.2-.12.48-1.14 1.08-1.02.6-1.56.6-.6 0-3.78 1.26-3.18 1.14-4.02 1.02-.66-.18-.75.15-.09.33-.09 2.25v2.64l1.74-.66 4.38-1.8q2.04-.78 4.62-1.44 2.58-.66 3.84-.66.78 0 .99.57.21.57 0 1.23t-.57.66q-.36 0-2.25.87-1.89.87-2.19.87-.3 0-1.08.9-.6.6-.66.93-.06.33.24 1.05 1.62 3.9 1.98 7.5.18 2.04-.18 2.73t-2.22 1.23q-1.14.42-2.04.27-.9-.15-1.08-.81-.12-.24.24-.54.36-.3 1.26-.72 1.32-.48 1.5-.81.18-.33 0-1.71-.3-2.82-1.68-7.14-.12-.48.06-.87t1.02-1.11q1.08-1.02.87-1.29-.21-.27-1.65.39-1.08.6-3.96 1.86-2.16.84-3.06 1.38-.42.3-.24 4.14.12 2.94-.09 3.9t-1.05.96q-.48 0-1.2-.72-.54-.54-.6-1.23-.06-.69.06-3.63.06-1.38.42-10.86.18-6.66.3-7.44.24-.48.81-.6.57-.12 1.29.24.6.24.6 2.64 0 1.98.33 2.25t2.19-.57q1.98-.9 2.91-2.97.93-2.07 1.05-6.27.12-3.9.3-4.38zM91.82 49.16q.9-.42 1.74-.33.84.09.96.72t-.63 1.38q-.75.75-2.85 2.13l-2.28 1.5.12 3q.12 3.24-.87 6.39-.99 3.15-2.19 3.51-.96.3-1.17-.24-.21-.54.45-1.92 1.74-3.9 1.5-7.92-.06-1.44-.21-1.71t-.87-.27q-.96 0-1.62-.48-.66-.48-.3-1.11.36-.63 1.5-.93.84-.18 3.42-1.68 2.46-1.56 3.3-2.04zm71.52-37.92q.3-.6 1.2-.42.84.24 2.07 1.11 1.23.87 1.29 1.35 0 .3.12.96.12.66-.27 2.52-.39 1.86-.75 2.76-.54 1.08-.54 1.56 0 .42.42.42t.84-.36q.42-.42 1.83-.15 1.41.27 1.71.87.48.78-.06 1.29t-1.92.51q-3.78 0-4.5 1.62-.36.84-2.04 3.42-1.62 2.46-1.2 2.58.3.06 6.66-1.38 4.14-1.02 5.28-1.38 1.14-.36 1.38-.96.3-.84 1.05-.75.75.09 2.82 1.08 2.07.99 2.67 1.8.6.81-.12 1.65-.6.66-.99.63-.39-.03-1.65-.81-1.38-.9-2.19-.9t-7.26 1.62q-6.45 1.62-6.72 1.86-.27.24-.45 1.56-.12 1.08.21 1.17.33.09 2.61-.39 2.94-.72 4.56-.39 1.62.33 3.6 1.95.36.3.39 1.2.03.9-.27 1.5-1.86 3.3-3.42 8.16-1.86 5.88-2.58 5.88-.3 0-2.34-1.74-1.44-1.26-1.92-1.47-.48-.21-1.62-.09-1.62.18-4.02 1.26-2.82 1.2-3.9.93-1.08-.27-1.62-2.25-1.74-6.36-2.64-8.04-.6-.96-.78-1.77-.18-.81.06-.81t.66-.18q.96-.3 2.19 1.83t2.25 5.97q.78 2.94 1.02 2.94.18 0 2.4-.78 1.56-.6 1.86-.9.3-.3.3-1.56 0-1.38-.33-1.59-.33-.21-1.53.39-1.62.9-2.22.12-.42-.48 0-.87t2.1-1.17q1.5-.78 1.77-1.14.27-.36.27-1.68 0-1.5-.42-1.62-.42-.12-2.7.84-3.6 1.44-4.02.36-.18-.6.48-1.02.66-.42 3.3-1.38 2.64-.96 3.09-1.32.45-.36.57-1.56.12-1.56-.18-1.56-.9 0-7.47 1.44-6.57 1.44-7.89 1.95-1.32.51-3.66.69-2.28.18-2.82-.36-.42-.6-.03-1.14.39-.54 1.23-.54 1.44 0 14.1-2.94 2.22-.48 3-.48.54-.12.51-.18-.03-.06-.69-.42-1.62-.9-1.62-2.82 0-1.32-.54-1.74-.54-.42-1.74-.18-2.94.72-4.14-.3-.78-.66-.33-1.11.45-.45 1.95-.51 1.44-.06 2.64-.3.78-.24.93-.45.15-.21.03-1.23-.3-1.5-.96-2.7-.48-1.02-.48-1.26t.48-.66q.48-.42.72-.45.24-.03.6.27.66.6.96 1.11.3.51.72 2.07.66 2.1 1.2 2.1.78-.06 4.11-1.08t3.63-1.32q.48-.42 1.26-3.72.78-3.3.6-3.84-.12-.6-1.26-1.62-1.08-.96-.9-1.56zm-1.14 14.04q0-.24-.45-.18t-2.67.78q-1.98.6-2.28.93-.3.33-.24 1.59.06 3.48.36 4.05.3.57 1.38-.51.6-.6 2.25-3.42t1.65-3.24zm6.96 13.26q-.72-.54-2.31-.54t-3.21.54q-1.38.36-1.74.87-.36.51-.36 1.77 0 .96.21 1.11.21.15 1.47.15 1.14-.06 1.38.06t.3.72q.3 1.44-1.68 1.44-.78 0-1.44.6-.66.6-.66 1.32 0 2.28 1.14 2.28.78 0 2.28 1.26 1.56 1.2 1.8.96.36-.3 1.95-5.46 1.59-5.16 1.59-5.82 0-.78-.72-1.26zm-15.54 15.84q.3-.36.96-.3.66.06 1.26.6 1.08.72.69 1.77-.39 1.05-2.43 2.97-3.12 3.06-6.78 5.22-3.66 2.16-3.66.96 0-.3 2.76-2.4 3-2.28 5.1-4.38 1.56-1.44 1.95-2.01.39-.57.21-1.17-.24-.84-.06-1.26zm12.18 2.7q.54-1.38 5.16.54 3.06 1.26 4.59 2.4 1.53 1.14 2.31 2.58.36.66.36.93t-.39.63q-.39.36-.93.33-.54-.03-2.52-.39-2.4-.48-3.51-1.11-1.11-.63-.87-1.35.3-.6.96-.18.84.36 1.68.24.6-.06.24-.36t-2.22-1.26q-3.06-1.44-3.36-1.44-.54 0-1.08-.57t-.42-.99zm45.54-36.78q1.44-.96 2.4.06.54.54.54 1.05t-.54 1.53q-.6 1.14-.33 3.45.27 2.31 1.26 4.89.99 2.58.99 3.24 0 .72-1.14.48t-4.2-1.62q-3.78-1.74-4.14-1.74-.36 0-.06 1.26.3 1.5.36 2.22.06.84.48 2.28.66 2.58.99 10.02.33 7.44.09 14.22 0 1.02-.48 1.29t-.78-.45q-.24-.6-.69-.6-.45 0-.81-.6-.42-.78-.36-2.58t.48-2.46q.42-.78.18-7.38-.36-8.58-1.92-13.92-.54-1.74-1.92-2.82-1.38-.96-1.26-1.68.12-.42-.12-.51-.24-.09-.48.33-.36.48-1.74.72t-2.1 0q-1.14-.48-.78-1.2.36-.72 1.98-1.08.9-.18 3.84-2.1 2.58-1.68 6.3-3.9 3.6-2.16 3.96-2.4zm-.78 4.8q.06-1.08-.12-1.26-.12-.06-3.96 2.28-3.78 2.4-4.68 2.7-.72.36-.54.66.18.3 1.5.75t2.1.03q.66-.36 2.37.21t2.01.81q.54.3 1.74.48.9.24 1.08.18.18-.06-.06-.54-.54-1.38-1.02-3.45-.48-2.07-.42-2.85zm22.68 3.24q6.78-1.38 8.82-.18.96.6 1.11 1.41.15.81-.33 2.85-.66 2.7-3 18.9-.42 2.88-.48 4.32 0 1.26-.78 1.98-.48.48-.75.33-.27-.15-1.47-1.41-1.62-1.74-3.3-4.29-1.68-2.55-1.5-2.91.24-.42.78-.27.54.15 1.08.93 1.02 1.32 1.56 1.92l1.2 1.56q.36.54.72.27t.36-1.17q0-1.26 1.5-9.84.42-2.58.72-7.08.12-1.62.36-2.28.3-.66.18-1.98-.06-1.02-.36-1.17-.3-.15-1.92-.09-3 .12-8.19 1.5-5.19 1.38-8.37 3-1.26.54-1.62.57-.36.03-.81-.33-.45-.36-.45-.57 0-.21.36-.57 1.02-1.2 5.4-2.85 4.38-1.65 9.18-2.55zm-3.3 7.14q1.2-.24 1.86.09.66.33.48.99-.06.72-2.1 1.44-2.16.72-3.72 1.74-1.62.96-1.89.96-.27 0-.87.54-.54.42-.45.96.09.54.99 3 .36 1.08 1.05 1.11.69.03 2.85-.93 1.98-.84 2.76-.81.78.03.78.93 0 .72-.39 1.05-.39.33-2.07 1.17-5.22 2.58-6.36 1.68-.54-.48-.54-1.08 0-.72-.48-1.5-.54-.84-.66-2.22-.3-1.62-1.11-3.27t-1.89-2.73q-.72-.84-.87-1.2-.15-.36.15-.9.36-.66.9-.54.6.24.81.24.21 0 1.65 1.38l1.32 1.38 3.3-1.56q3.36-1.62 4.5-1.92zm49.44-17.94q4.32-1.26 6.54-1.68 2.22-.42 5.1-.45 2.88-.03 3.75.36.87.39.84 1.14-.03.75-.99 2.19-1.08 1.92-1.26 2.52-.36 1.2-2.16 4.65-1.8 3.45-2.94 5.13-1.56 2.4-1.74 2.64-.18.42-1.44.96t-2.16.54q-2.76 0-7.38 2.16-1.86.9-3.24.6-.54-.12-.69-.12-.15 0-.51-.24t-.39-.21q-.03.03-.36-.63-.33-.66-.36-.81-.03-.15-.33-1.41-.3-1.26-.42-1.8t-.6-2.64q-1.08-4.74-1.59-6.42-.51-1.68-1.23-2.52-1.2-1.38-.51-2.04.69-.66 2.01.54 1.02.9 1.2.9.66 0 1.98 5.58.24 1.08 1.32 5.22.6 2.52.72 3.24.18.96.54 1.14.24.18 2.28-.84 1.56-.78 1.86-1.23.3-.45.84-2.37l.78-3q.12-.36-.21-.39-.33-.03-1.53.09-1.86.3-2.34-.3-.48-.6.09-1.11.57-.51 2.49-1.23 1.68-.54 2.01-.93.33-.39.63-2.07.42-2.28.18-2.4-.18-.18-1.98.18-2.34.54-3.69.21-1.35-.33-1.05-1.35.24-.54.93-.54.69 0 5.01-1.26zm12.72.42q-.18-.18-.9-.3t-1.14-.06q-.3.06-3.12.54-2.52.48-3.24.72-.3.18-.81 1.65t-.51 2.31q0 .18 1.8.18 1.68 0 2.04.6.36.66-.06 1.23t-1.38.57q-2.58 0-3.42 3.06-.36 1.5-.9 3-.54 1.38-.36 1.5.3.3 4.5-.84.54-.12 1.02-.96l1.8-3.18q1.32-2.28 2.76-5.64 1.32-3.36 1.74-3.78.3-.48.18-.6zm-9.72 19.8q0-.84.18-1.02.18-.18 1.02-.18 1.08 0 1.53.51.45.51.39 1.65-.06.72.03.93.09.21.51.15.24 0 1.38-.18t1.8-.3q3.24-.42 4.56.3 1.32.72.96 2.76-.24 1.5-.48 1.98l-1.44 3.78q-1.08 3.12-1.38 3.24-.24.18-1.2 1.92-.96 1.98-1.38 2.4-.36.54-.6 1.08-.3.9-2.04 3.39t-2.88 3.69q-1.14 1.2-1.5 1.35-.36.15-.9-.33-1.56-.9-3.78-7.08-.24-.9-.36-1.23-.12-.33-.42-.81-.3-.48-.36-.6t-.42-.12q-.36 0-.48.09t-.72.51q-.6.42-.9.75-.3.33-1.2 1.17-5.52 5.22-7.56 4.32-.42-.18-.66-.51-.24-.33-.09-.57.15-.24.51-.24 1.2 0 5.52-4.17 4.32-4.17 7.14-8.01.84-1.02 1.29-1.74.45-.72.66-1.11.21-.39.15-.48-.06-.09-.42-.03-.48.18-2.4.72l-2.58.9q-3.96 1.44-6.57 1.35-2.61-.09-2.61-1.65 0-.42.42-.54.42-.12 1.92-.12 2.34 0 7.68-1.74 5.4-1.86 6-2.22.6-.3 1.14-1.56.54-1.26.54-2.4zm9.48 4.14q0-.66-.42-.69-.42-.03-2.94.39-2.64.48-3.84 1.32-1.2.84-2.7 3.3-1.98 2.88-4.38 5.7-1.14 1.32-.72 1.5.36.3 2.28 4.26 1.8 3.96 2.16 3.96.36 0 1.98-2.22t2.4-3.6l2.4-4.14q1.26-2.16 2.52-5.4t1.26-4.38zm60.12-32.22q.36-.24.6-.24t.66.24q.54.42.81 2.64t.27 7.5v6.78l2.28-.24q2.28-.3 4.62.24 2.76.48 3.78 1.17t.66 1.83q-.36.84-1.83 2.76-1.47 1.92-3.21 3.72-2.22 2.28-2.4 2.7-.12.36.66.78.72.3 1.41 1.02t.69 1.05q0 .33-.54.81-.42.42-.72.39-.3-.03-1.26-.57-1.02-.48-1.44-.48-.42 0-1.8.36l-1.86.66-.42 3.84q-.48 4.2-.66 12.6-.18 6.06-.3 7.77t-.42 1.71q-.72 0-.93-2.64-.21-2.64-.21-11.46-.06-10.56-.24-10.56-.3 0-1.56.78t-1.86 1.32q-.48.48-.78.54-.3.06-.9-.18-.72-.42-1.35-1.68-.63-1.26-1.47-4.26l-1.92-6.42q-.72-2.28-.9-3.18-.18-.9-.06-1.26t.72-.36q.9 0 1.2.57.3.57 1.08.21 1.32-.78 7.44-2.52 1.26-.42 1.5-.69.24-.27.42-1.71.24-1.8-.06-7.74-.24-5.22-.18-6.36.06-1.14.48-1.44zm8.82 18.96q-2.46-.54-5.88-.12-.66.12-.81.39-.15.27-.15 1.35 0 1.2.21 1.38.21.18 1.53.18 1.68 0 1.86.54.42.9.18 1.23-.24.33-1.26.33t-1.83.39q-.81.39-.87 1.05-.66 4.86-.18 4.86.84 0 4.77-4.92 3.93-4.92 3.99-6 0-.18-1.56-.66zm-9.24 2.4q0-1.38-.36-1.59-.36-.21-1.8.27-.18.06-1.65.51t-2.37.69q-3.12.9-3.24 1.02 0 .06.84 2.52 1.02 2.7 1.2 3.96.3 1.44.96 3.21.66 1.77.84 1.77.24 0 2.52-1.08 1.62-.78 1.95-1.26.33-.48.45-2.34.18-2.52.06-2.64-.06-.18-1.32.42-2.22.96-3.06 0-.96-1.2 2.1-2.34 2.04-.72 2.46-1.2.42-.48.42-1.92zM325.34 17.9q.42-.48 1.14-.24.84.24 7.8 1.44.96.12 1.44.84t.18 1.38q-.3.66-1.26.66t-2.16 1.08q-1.2 1.08-2.28 1.08-.96 0-.99-.27-.03-.27.75-1.35.6-.78.75-1.08.15-.3 0-.39-.15-.09-.75-.09-.66 0-2.19-.69-1.53-.69-2.25-1.35-.6-.54-.18-1.02zm4.62 11.28q1.08-.48 1.56-.54.48-.06.81.48.33.54.42 1.47.09.93.15 2.97.12 4.38.24 4.5.18.12 1.86-1.44 2.34-2.22 2.46-1.44.12.78-2.1 3.24-.12.12-.42.36-1.74 1.98-2.07 3.15-.33 1.17-.39 6.27v1.08q-.06 7.38-.27 7.38-.21 0-.66-.51-.45-.51-1.08-.51-.63 0-.96-2.19-.33-2.19.09-3.21.36-.84.63-3.33t.03-2.49q-.54 0-4.26 5.1-3.78 5.16-4.98 6.39-1.2 1.23-1.56.21-.24-.48-.66-.48-.54 0-.54-.36t.42-.78q1.74-1.68 7.02-10.62 5.28-8.94 4.02-11.94-.12-.12-3.24 1.47-3.12 1.59-4.8 2.67-1.44.9-3.15 1.17-1.71.27-2.49-.27-.42-.3-.42-.51 0-.21.36-.75.6-.84 1.26-.6t5.1-2.1q6.6-3.48 7.62-3.84zM401.6 15.8q.84-.42 1.26-.36.42.06 1.62.6.9.36 1.23.72.33.36.45.96.12 1.08-.12 1.74-.24.42-.36 4.83t0 5.73q0 .24 2.76-.96 3.42-1.44 4.95-1.38 1.53.06 1.05 1.68-.18.9-.93.9t-4.17 1.14q-1.98.6-2.76 1.02-.78.42-.96.84-.36 1.08.15 2.1t2.13 2.46l2.64 2.46q.48.48 3.48 3.06 3.06 2.7 4.56 4.08 1.26 1.2 2.28 1.53 1.02.33 4.8.69 2.7.3 3.3.51.6.21.6.93 0 .42-.57.54-.57.12-3.15.18-6.06.06-7.08-.48-.78-.42-2.76-2.46-2.94-2.94-6.81-6.42-3.87-3.48-3.93-3.3-.18.42-.12 5.1l.06 4.8 2.46-.06q1.68 0 2.16.09.48.09.72.57.42.78.06 1.05t-1.86.45q-1.74.24-2.94.6-.72.24-.9.66-.18.42-.42 2.16-.24 2.64-.36 4.74t-.6 2.73q-.48.63-1.38-.03-.9-.54-1.08-1.29-.18-.75.24-2.07.48-1.56.6-3.54l.12-2.1-1.74.06q-3.18.18-3.18-1.32 0-1.38 2.88-1.38 1.68 0 2.1-.72.42-.72.48-4.02.06-3.48.24-4.44.18-.78 0-.93-.18-.15-.69.33T401 41.96q-2.76 4.14-6.36 7.98-2.34 2.4-3.24 2.97-.9.57-1.56.21-1.32-.66.06-1.44 1.02-.54 3.39-3.24t3.93-5.04q5.28-8.16 4.8-8.52-.18-.18-1.92.72-4.62 2.46-7.02 2.16-1.38-.18-1.95-.75-.57-.57-.03-1.05.54-.48 1.92-.48 1.08 0 2.58-.57t5.52-2.43q1.8-.84 1.92-1.08.18-.3.24-7.02.18-3.18.06-4.74t-.27-1.86q-.15-.3-.81-.48-1.08-.42-1.29-.81-.21-.39.63-.69zm-15.48 6.48q.18-.18 1.8.18 1.68.42 2.07 1.26.39.84-.09 2.52-.48 1.56-1.83 4.05-1.35 2.49-2.49 3.93-.96 1.38-.96 1.74 0 .36 1.38 1.14 1.32.78 1.56 1.68.18.66.03 6.36t-.39 7.08q-.12.96-.42 4.26-.24 3.18-.54 3.18-.18 0-1.08-.36-.84-.48-.9-.48-.06-.06.48-4.68.42-3.78.48-8.94t-.3-6.12q-.36-1.02-.96-1.11-.6-.09-1.26.69-1.92 2.34-1.92 2.58 0 .12-1.59 2.19t-2.43 2.07q-.84 0-.84-.45t2.1-3.39q2.28-3.3 4.86-7.56 3.3-5.4 4.02-7.44.72-2.04-.3-2.7-.6-.3-.78-.84-.18-.54.3-.84z"/></svg>