<svg viewBox="0 0 505 80" xmlns="http://www.w3.org/2000/svg"><path d="M34.22 17.48l.12-.18q.42-.36.78-.36.36 0 1.2.24.12 0 .24.06l.24.12-.06-.06q2.22.48 3.54 1.14 1.32.66 1.98 1.8.42.66.66 1.23.24.57.24.99 0 1.86-3.96 4.56-1.02.66-2.22 1.35-1.2.69-2.46 1.35-1.38.72-2.4 1.08-1.02.36-1.32.36-.3 0-2.28 1.08-1.02.54-1.77 1.02t-1.29.9q-1.98 1.44-2.58 2.19-.6.75-.6 1.59 0 1.44.96 1.44 1.32 0 4.92-2.16 4.8-2.88 8.28-4.86 3.48-1.98 5.58-3.06t3.3-1.65q1.2-.57 1.44-.45.84.66.84 1.26 0 .06.12.06 1.14 0 .87.81-.27.81-1.53 1.77-.66.48-1.32 1.35-.66.87-1.32 1.95-.66 1.14-1.08 2.16-.42 1.02-.6 1.98-.6 3.3-2.94 6.66-.36.48-.66.9-.3.42-.54.72-.24.36-.42.66.18 0 .93.57T41 49.58q3.06 2.7 5.37 4.32t3.33 1.62q.36 0 1.14.09.78.09 1.8.39.12 0 .6.12h-.06q.42.12.75.15t.69.21q.48.12.81.18.33.06.63.12.18.06.33.09.15.03.39.03 1.32.3 1.74.57.42.27.72.87.18.66.06 1.05t-.3.57q-.6.36-2.76.15-2.16-.21-5.4-.81-3.42-.66-5.04-1.5-.6-.3-1.68-1.2-1.08-.9-2.82-2.4-1.08-1.02-1.92-1.65-.84-.63-1.38-1.11-.06 0-.15-.09l-.51-.51v.06q-.18-.12-.3-.21t-.24-.21q-.24-.24-.54-.3l-.18.27-.18.27q-.78 1.08-1.38 1.83-.6.75-1.14 1.29-.54.54-1.08.96-.54.42-1.14.84-2.52 1.74-3.48 2.04-.12.06-.36.09t-.42.15q-.12 0-.33.12-.21.12-.45.24-1.02.48-2.55.9-1.53.42-3.15.72-.66.12-1.26.18t-1.08.06q-1.38 0-1.92-.36-.54-.48-.12-1.11.42-.63 1.38-.63.78 0 3.84-.96 3.12-.96 4.92-1.92 2.1-1.08 4.08-2.67 1.98-1.59 3-3.15.66-.84.66-1.05 0-.21-.36-.69-.6-.84-1.83-1.23t-3.15-.45q-1.56-.06-2.04-.24t-.78-.84q-.48-1.2.06-1.56.54-.36 2.88-.36 2.04 0 3.6.42t2.82 1.44q.54.48.84.3.3-.18.9-1.08.18-.18.24-.3.66-.9 1.11-1.65.45-.75.75-1.41.3-.6.51-1.32.21-.72.39-1.38.24-1.08.66-2.13.42-1.05 1.02-2.07.18-.3.33-.51.15-.21.27-.45.06-.06.09-.15t.09-.15q.12-.12.09-.12t.03-.12q-.18.12-.51.33-.33.21-.93.57-.54.36-1.44.9-.9.54-2.22 1.26-.42.24-.93.54-.51.3-.99.6-1.56.9-2.94 1.74t-2.4 1.5q-.78.54-1.62 1.02-.84.48-1.65.9-.81.42-1.53.69-.72.27-1.2.33-1.38.12-2.58-.6-1.2-.72-1.44-1.8-.06-.42-.12-.63-.06-.21-.18-.33-.48-.18-.48-1.74 0-1.38 1.44-2.82h-.06q1.26-1.5 2.76-2.16 1.92-1.14 3.57-1.95t2.97-1.47q.3-.12.78-.36 2.94-1.2 5.46-3.06 1.2-.84 2.16-1.71.96-.87 1.44-1.65.42-.48-.09-.87t-2.55-1.05q-2.76-.96-2.76-1.68 0-.12-.18-.24h.06q-1.14-.3-.06-1.08v.06zm73.02-6.66q.48.54.84 1.62.66 3.06-.12 11.46-.84 9.12-2.1 12.18-.54 1.68-1.62 1.5-.54 0-.99-.24-.45-.24-.75-.54-1.62-1.5-2.76-.48-1.56.9-2.58 1.17-1.02.27-1.56.03-.36-.18-.48-.36-.72-1.2 0-2.28.24-.48 1.08-.51.84-.03 2.22-.69.78-.24.78-1.26 0-.66.12-1.02.18-.54.6-.57.42-.03 1.44.99.54.6.57.69.03.09.57.66.54.57.66.51.18-.42.54-2.85.36-2.43.75-5.7t.63-6.18q.24-2.91.3-4.11-.06-.66-.12-.75-.06-.09-.33.09t-1.65.93q-1.38.75-2.7 1.53-.6.3-.66.36-.12.6-.72.54-.6-.06-.9-.24-.6-.36-.72-.78-.12-.42.3-1.32.18-.42.6-.93t2.58-1.35q1.08-.6 2.52-1.2 3.12-1.68 3.66-.9zm-14.88 3.96q.36.36.36.54 0 .48-.06 3.03t-.12 3.39q-.06.84-.15 3t-.03 3.42v1.38l.12-.12q.42-.48 1.2.06l.18.12.06-.3q-.18-.84 3-3.84 1.68-1.74 1.92-1.92l-.24.06q-.24.06-1.14.3-.9.24-1.38.42-1.32.24-1.74 0-.42-.24-.42-.96-.18-1.2.66-1.38.36-.18 1.2-.36 1.68-.48 3.18-1.08 1.62-.78 2.7-1.08.72-.12 1.08.24.54.36.48 1.32 0 .72-.18 1.08-.54 1.2-1.74 2.7-.42.36-1.5 1.5-1.08 1.14-1.11 1.2-.03.06.42-.15.45-.21 1.41-.57t1.44-.42q.9-.24 1.56.06t.6 1.2q-.06.6-.6 1.14-.84.72-2.28.96t-2.34.78q-1.5.66-2.67.78t-1.77-.6l-.18-.18.06.54q.06.78-.42 2.82-.42 2.22-.9 2.22-1.2.48-2.52-2.04-.66-1.5-.96-3.06-.36-1.14-.18-3.48.06-4.56.48-8.04.42-3.48.96-4.5.12-.36.66-.42.6-.24.9.24zm20.82 16.08q.54.3.66.54-.06.06.12.18t.24.78q0 .3-.18.66-.78 1.74-4.26 5.1-1.44 1.26-2.64 2.1-.72.42-1.14.84l-.42.36-.06.48q-.12.84-.09 3.39.03 2.55.15 2.91.12-.18.75-.63t.93-.66q.3-.21.9-.69.78-.72 2.49-1.86 1.71-1.14 3.75-2.34 2.64-1.68 3.9-2.01 1.26-.33 1.92.45.54 1.02-.18 1.92l-1.68.84q-1.32.66-1.92 1.08-1.14.66-1.26 1.08-.06.18.12.54.54.6.12 3.18-.3 1.26-.39 2.82-.09 1.56-.09 4.5-.24 5.52-.33 7.77-.09 2.25-.21 3t-.6.93q-.9.48-1.92-.42-1.26-1.5-1.5-3.24-.06-.84.72-1.14.3-.06.36-.36.12-.6.24-4.98-.06-5.46.3-7.8.24-1.56.36-2.88.06-.48 0-.48-.48.18-1.86 1.32-.78.54-2.28 1.83-1.5 1.29-2.22 2.07-.96.6-1.14 2.1-.66 2.28-1.5 4.02-1.14 2.4-2.58 2.1-1.14 0-1.38-1.14-.36-.84-.3-1.98 0-1.8.42-2.94.06-.66 1.68-2.34.6-.66.87-1.14.27-.48.39-1.65t.36-5.91q.06-2.04.12-2.82l.06-.72 1.2-1.02q1.2-1.02 1.98-1.68 1.44-1.14 3.3-3.06 1.62-1.86 2.25-2.43.63-.57.9-.63.27-.06.57.06zm-31.5.3q.36.24.42.9 0 1.2-.54 6.3-.72 6.3-.3 7.62.06.24.12.24t1.14-.78q1.2-1.02 3.6-2.79 2.4-1.77 3.18-2.25 2.76-1.92 4.38-1.92.42 0 .72.18.48.3.42.78-.18.24-.87.84t-1.17.96q-1.92 1.14-6.06 4.74-1.8 1.56-2.82 2.28-2.34 1.44-3.66 1.2-.42-.06-.66-.3-.48-.54-.96-1.86-.9-2.22-.24-6.84.24-3.12.78-5.61t1.02-3.12q.48-.63 1.02-.69.24 0 .48.12zm15.12 7.68q1.02.6 1.56 2.82.12.36.12 2.1-.06 2.22-.3 4.98-1.26 10.08-1.8 11.7-.24.66-1.41.66t-2.13-.81q-.96-.81-1.02-1.59v-.24l-.42.66q-1.5 2.52-3.3 4.44-1.2 1.26-2.22.48-.66-.3-.78-.6-.3-.36-.36-.6-.36-1.5-.06-3.96.3-2.04 1.26-4.08.36-.84.6-1.2l.12-.36-.18.18q-.3.12-.96.66-.96.54-2.46 1.62-2.4 1.56-2.76 1.68-.78.18-1.17-.09-.39-.27-.45-.57-.06-.12-.12-.42-.3-.78.06-1.32.18-.42 1.02-.84.84-.42 3.54-2.1 1.14-.84 2.04-1.38.9-.54 2.76-1.44 1.74-1.08 2.49-1.38.75-.3 1.17-.12.6.12.84.9t-.84 1.98q-1.86 1.8-2.88 4.68-.66 1.5-1.05 2.85t-.21 1.47q.24-.12 2.46-3.24 1.08-1.68 1.5-1.74.18-.12.48.06.84.36.9 1.14 0 .3-.54 1.56l-.3.66.3-.12q.18-.24.9-.18h.54q.12 0 .36-1.56.12-1.8.66-4.5.54-2.94.78-6.66.24-3-.18-3.66-.3-1.08.3-2.22.42-.6 1.14-.3zm69.9-18q.24.06.42.48.18.24.18.9t-.18 1.02q-1.08 2.1-6.54 5.82-3.78 2.4-5.22 2.94-.9.24-1.26.06-.72-.72.12-1.86.72-.84 2.58-1.86l.54-.3h-.54q-.6 0-1.2.12-2.28.3-3.24-.78-1.8-1.62-1.86-3.72-.12-1.02.3-1.44.66-.78 1.68-.3.84.36 1.02 1.62.06.9.78 1.26.66.18 1.86-.06.84-.24 2.04-.75 1.2-.51 3.72-1.68 2.52-1.17 3.18-1.47 1.02-.36 1.62 0zm7.26 10.86q.54.24.72.72.06.12.12.6-.06 1.62-2.58 2.34-1.02.24-3 1.14-2.46.96-4.47 1.92t-2.79 1.5q-1.68 1.08-3.99 3.18-2.31 2.1-3.69 3.84-2.46 3.06-3.78 6.78-.72 1.98-.12 1.8.36 0 2.34-.96 4.62-2.28 10.14-5.94 2.28-1.56 3.18-1.86.96-.48 1.44-.3l.24.06-.24-.24q-.36-.24-.66-.42-.3-.18-.66-.36-2.1-1.26-1.14-2.4 1.38-1.5 4.38.54.9.72 1.14 1.08 0 .12.6.66 1.92 2.1 2.52 3.36.12.3.51.87.39.57.87 3.15.48 2.22.72 2.82.54 1.68-.63 2.97-1.17 1.29-2.25.15-.66-.72-1.02-1.62-.24-.42-.24-1.32v-1.2q-.84-2.52-2.04-5.28-.78-1.5-1.44-2.34-.36-.36-.18-.06.24.48-.78 1.62-1.2 1.32-3.54 3.12-1.26.78-3.12 1.98t-2.58 1.68q-.36.12-1.44.9-3.42 2.1-6.3 2.76-1.14.18-1.8.18-.36-.06-.54-.36-.36-.3-.54-.72-.84-1.56-.3-3.18.36-1.5 1.26-3.63t1.62-3.45q.72-1.32 4.02-4.5 1.2-1.32 1.68-1.86l.36-.42-.66.3q-2.16 1.02-3.48 1.62-1.32.6-3.72 1.56-.78.24-1.44.54-3.24 1.38-5.1 1.32-1.62 0-2.22-.81-.6-.81-.9-1.83-.48-2.4 1.56-2.64.78 0 1.14 1.02.12.54.48.72.48.42 5.16-1.32 1.08-.48 2.22-.84 2.28-.9 2.4-1.02.12-.12 1.11-.54.99-.42 1.83-.6.9-.42 3.36-1.26 3.78-1.32 6.72-2.52 1.2-.48 3.6-1.68 1.8-1.02 3.36-1.2.96-.24 1.62-.18.66-.12.96.06zm44.7-21.24q.6-.24 1.8 0 .78.24 1.32.9t1.2 2.04q1.08 1.98 1.08 3.12 0 .42-.12.96t-.3 1.14q0 .06.24-.06t1.08-.6q1.5-.66 2.7-.66 1.38 0 1.86 1.56.12.54.09.87-.03.33-.36.57-.33.24-1.02.45-.69.21-1.89.51-1.8.24-2.28.72-1.2.9-2.67 1.56t-2.37.66q-.48 0-1.41.21-.93.21-2.49.69-1.68.48-2.88.93-1.2.45-1.86.75h.06q-1.74.72-3.24.48-1.26-.18-2.13-.78-.87-.6-1.26-1.32-.39-.72-.18-1.44.21-.72 1.17-1.08.78-.24 1.14-.12.36.12.9.9.12.12.36.3t.36.24q.3-.06 1.08-.3t1.98-.66q.66-.24 1.26-.42t1.14-.36q1.86-.6 2.46-.66.66-.24 1.29-.45.63-.21 1.17-.45.72-.3.66-.42-.3-.48-.09-.93.21-.45 1.23-1.41l.96-1.08q.48-.54.48-.66t-.27-.57q-.27-.45-.75-1.23-.72-1.14-1.26-1.92t-.66-1.02q-.3-.54.42-.96zm1.74 14.28q.84-.48 2.28 0t2.46 1.68q.06.12.15.18t.36.03q.27-.03.78-.21t1.47-.48q4.14-1.38 5.88-.42.66.36 1.08 1.5.42 1.14.3 2.1-.18.96-1.68 3.12-1.38 2.1-2.64 3.18v-.06q-5.04 4.8-6.42 5.76-1.26 1.08-1.26 1.56 0 .42-.06.42.24 0 .93-.24.69-.24 1.65-.66 2.28-1.02 3-1.32 1.2-.66 3.18-1.02.9-.24 1.68-.24 1.92 0 1.68 1.86-.18.72-.69 1.02-.51.3-1.89.66-2.1.54-4.2 1.2-2.1.66-3.9 1.5-.12.06-.21.09t-.15.09v-.06q-.72.36-.9.66-.12.24-.18.87t-.12 1.83v.72q-.12 1.56-.18 1.56.18 0 1.98-.9.9-.48 1.8-.99t1.74-1.05q1.38-.84 2.19-1.23t1.41-.39q1.02 0 1.56 1.32.48.96.45 1.62-.03.66-.63 1.92v-.06l-.24.6q-.12.3-.24.54-.12.3-.3.81t-.42 1.11q-.18.48-.18.6.18.12.54.3.36.18.9.3 1.68.36 2.31.84.63.48.51 1.56-.12.6-.6 1.05-.48.45-2.16 1.23-1.2.6-2.19 1.08-.99.48-1.77.78-.3.12-.54.21-.24.09-.54.21-.42.12-.87.27-.45.15-.75.27-.84.3-1.26.33-.42.03-.84-.45-.72-.66-.27-1.32.45-.66 2.61-1.68 1.5-.84 2.28-1.26.78-.42 1.02-.54-.18 0-.54-.42-1.2-1.32-1.2-2.7 0-1.14.9-2.88.54-1.2.6-1.38.06-.18-.36.12-.18.18-.36.18-1.02.66-1.32.66-.06 0-2.7 1.38-.96.54-1.5.96-.54.42-.72.6-.12.18-.3.63t-.3 1.29q-.24 1.2-.33 2.46-.09 1.26-.15 2.46-.12 1.38-.3 2.34t-.48 1.44q-.24.3-.42.48t-.42.27q-.24.09-.63.09t-.99-.12q-.84-.12-1.92-.6t-2.46-1.44q-2.58-1.74-2.7-1.74-.12 0-1.5 1.56-1.56 1.56-2.46 1.68-.9.12-1.38-1.32-.3-.96.78-2.16h-.06q1.32-1.56 1.32-3.24 0-.54-.15-1.08t-.27-1.02q-.9-2.1.48-2.88.36-.06.99.33t1.35 1.05q.6.66 1.08 1.32.48.66.48 1.08 0 .18-.06.24.18-.12.75-.54.57-.42 1.59-1.2 1.32-1.02 2.28-1.59.96-.57 1.62-.87h-.06q.72-.42.87-.69.15-.27.21-1.17.06-.6.03-1.38-.03-.78-.09-1.44-.06-.42-.12-.87t-.06-.57q-.18.18-3.78 1.62l-5.1 2.1q-1.02.42-2.04-.18-1.14-.66-.99-1.56.15-.9 1.41-1.62.66-.36 1.44-.81.78-.45 1.44-.81.54-.3 1.29-.78.75-.48 1.71-1.14h-.06q.18-.12.39-.24.21-.12.39-.24 2.52-1.62 3.72-2.64v.06q.24-.3.45-.66.21-.36.45-1.02.36-.96.3-1.08-.3 0-2.58 1.32-2.64 1.38-4.14 1.68-1.5.3-1.62-.78-.06-.12-.09-.33-.03-.21-.15-.33-.36-.66-.15-1.14.21-.48 2.13-1.02 1.62-.36 4.02-1.62 1.02-.48 1.5-.75t.54-.33q.66-.54.72-1.74.12-.66.12-1.08v-.66q-.06.06-.15.12t-.21.18l-.84.54h.06q-.24.24-.75.57-.51.33-1.11.63l-3 1.56q-1.38.78-2.19.69-.81-.09-.81-1.11 0-.42-.3-.9-.48-.78.24-1.8.24-.24.63-.36t.78-.06q.39.06.69.21.3.15.42.39v.06q.18-.06.42-.24.24-.12.51-.3l.63-.42q.96-.6 2.1-1.26 1.14-.66 2.16-1.14 1.62-.9 1.92-1.32.3-.42-.48-.72h.06q-.54-.12-.93-.48t-.54-.78q-.15-.42-.03-.84t.48-.72zm11.88 3.36q0-.42-.81-.3t-2.73.78q-.96.3-1.92.69-.96.39-1.32.63-.72.54-1.14 2.22l-.54 1.8q.12.12.51-.09t1.47-.51q.96-.3 1.77-.48t1.23-.18q.6 0 1.92-1.92 1.56-1.92 1.56-2.64zm-13.5 32.04q.06-.72.12-1.29.06-.57.12-.93.06-.42.06-.72-.12-.12-1.32.78-.72.48-1.35 1.02-.63.54-1.11 1.02-.78.9-.54 1.14.24.3.66.6.42.3 1.14.6 1.44.66 1.74.66.18 0 .48-2.88zm-9.6-30.24q1.2-1.2 1.62-1.23.42-.03.96.81.36.66-1.08 2.58-1.2 1.44-1.56 2.88-.36 1.56-.87 3.21t-1.17 3.45q-.66 1.68-1.32 3.27t-1.38 2.97q-.84 1.62-1.86 3.45t-2.34 3.75q-1.32 2.04-2.28 3.3-.96 1.26-1.5 1.74v-.06q-.54.48-1.11.72-.57.24-1.08.3-.51.06-.84-.09-.33-.15-.33-.51 0-.18-.48-.78h.06q-.66-.72-.63-.93.03-.21 1.11-.51.54-.12 1.32-.87t1.92-2.31q1.14-1.56 2.37-3.48 1.23-1.92 2.31-3.84.78-1.44 1.56-3.24.78-1.8 1.62-3.9.84-2.1 1.32-3.66.48-1.56.72-2.7.42-2.16 2.94-4.32zm92.28-13.62q.24-.06.72.48.9.96 1.74 2.52.36.66.3 1.14 0 .3-.18 1.08t-.66 2.88q-.72 2.46-.87 3.45-.15.99.03 1.83.06 1.26.09 2.67t.15 4.95q0 4.8.12 5.82 0 .6.24 1.68.54 3.66.66 7.44.12 3.78-.12 6-.3 1.32-.84 2.46-.9 1.68-1.74 1.5-.18-.12-.63-.51t-.87-.63q-1.5-.84-3.42-2.97-1.92-2.13-1.8-2.73 0-.96.66-.96.3-.06.93.33.63.39 2.43 1.83 1.8 1.44 1.98 1.08.18-.06.24-.48 0-.6.06-2.88 0-1.92-.03-2.94t-.21-2.58q-.18-1.86-.36-4.32-.24-2.76-.39-6.96-.15-4.2-.15-6.96-.06-2.16 0-2.97t.6-2.73q.72-3.3.69-4.17-.03-.87-.15-.87-.3-.3-.9-.3-.96-.06-1.56-.24l-.24-.12-.18.24q-.24.18-.6.36-1.02.42-2.16.66-.6 0-1.02.24-2.4.78-6.06 2.94-2.1 1.14-2.82 1.26-1.08.24-1.62 0-1.02-.48-1.02-1.26 0-1.02 1.08-1.44.48-.24 1.56-.66 1.26-.54 3.66-1.74 2.58-1.38 3.9-1.92 1.32-.54 2.22-.66 1.26-.42 1.74-.6.12-.18 1.02-.3.36 0 1.77-.03 1.41-.03 2.01.09zm-33.12.36q.6.3.81.75.21.45.03 1.11-.42 1.2-1.08 2.58-.42.72-.6 1.26l-.24.48.12-.06q.48-.18 2.31-.15t3.45.27q1.26.06 2.04.54 1.68.78 2.58 2.1.66.78.6 1.74 0 .54-.18 1.02-.36.72-1.35 1.14-.99.42-1.65.3-.66-.12-.84-.66-.42-1.02.42-1.68.3-.24.06-.6-.72-.72-2.88-.96-.9-.12-2.67-.18t-2.67.06q-1.32 0-1.44.66-1.26 1.92-4.14 5.7-1.08 1.26-2.04 2.7-3.3 4.2-5.01 6.15-1.71 1.95-2.76 2.73-1.05.78-1.77.18-.84-.12 1.14-2.52 1.14-1.44 2.34-3.24 2.28-3.48 3.84-5.28.48-.72 1.68-2.22 4.98-6.84 7.2-11.1 1.26-2.7 1.92-2.88.3-.24.78.06zm13.38 8.64q.48.12.72 1.5.3 1.86.9 2.94.36.78.48 1.26t-.24 2.1q-.3.84-.54 1.83-.24.99-.3 1.26t.18-.09q1.02-1.32 2.7-1.44.72 0 2.13.75t2.25 1.47q.36.24.42.3.12-.18 1.35-1.98t2.19-3.24l.84-1.26q.6-.48-.96-.78-2.46-.72-2.22-1.92 0-.9.42-1.5l.12-.18.84.18q2.16.6 3.78 1.5 2.34 1.08.36 4.44-.66 1.08-2.07 3.27-1.41 2.19-2.07 3.27-.36.36-.18.48.36.66 2.76 3.84 1.86 2.46 2.34 3.42.6 1.26.36 1.92-.42.66-1.02.84-.3 0-.84-.42-1.2-1.08-4.08-4.92-1.38-1.74-1.53-1.83-.15-.09-.27.15-.78.96-2.28 3.18-2.88 4.08-3.9 5.1-1.38 1.32-1.86-1.2-.78-2.94.06-4.02.3-.42.84-.3.36.06.72.6.06.18.18.18-.18.3 2.16-2.82l2.34-3.42q-.12-.3-.96-.96-.84-.66-1.38-.9-.36-.18-.75-.21t-.6.27q-.21.3-.39.72-.54 1.14-1.14 1.02-.6-.12-.84-.9-.18-.36-.18-.48t-.06-.09q-.06.03 0 .27-.06.48-.24 1.56t-.36 1.86q-.36 1.02-.9 4.11-.54 3.09-.66 4.47-.12.6.06.3.3-.54.72-.72.72-.18 1.14.6.18.78.12 2.28-.18.48-.42 1.77t-.42 2.07q-.54 1.98-1.74 1.8-1.5-.24-2.16-2.4-.36-.96-.3-3.06-.06-1.56.12-3.09.18-1.53.84-4.35.36-2.22.75-4.38.39-2.16.57-2.88.18-1.86.66-4.26.42-2.1.42-2.94 0-.84-.36-1.5-.96-1.56.12-3.48.42-1.02.66-1.14.06-.12.6.18zm-9.54 6.06q.24.12.72.72t.66.96v.42q-.18.48-2.37 2.55t-2.43 2.67q-.3.42-.54 2.04-.24 1.62-.36 2.1-.12.18 0 .18.3-.12 1.08-.54.3-.24.78-.6.48-.36.54-.6 0-.42.42-.54.18-.12.96-.18 1.14-.06 1.17-.27.03-.21.27-.27.9-.42 1.2.6 0 .06.36.48.54.54.48 1.02-.18.84-1.32 1.2-1.14.36-3.66 2.04-1.38.78-1.92 1.2l-.48.3-.06.9q-.12.9-.12 2.04-.24 4.08-.36 4.68-.24.42.42-.24 1.02-1.38 2.4-3.63t2.4-4.11q.84-1.86 1.38-1.59.54.27.42 1.71l-.93 2.64q-.57 1.62-1.11 2.76-.3.42-1.08 2.1-2.28 4.56-3.48 5.58-.78.66-1.26.6-1.56.12-1.68-2.46-.18-1.44-.27-4.56-.09-3.12.03-3.96l.06-.42-.24.18q-.36.12-.6.42-.42.24-1.02.72-2.34 1.38-3.66 1.56-.48.06-.78-.12-.6-.36-1.23-1.11-.63-.75-.63-1.17 0-.42.81-1.59.81-1.17 2.49-3.18 1.68-2.01 3.06-3.39 1.08-1.26 2.01-2.37.93-1.11.96-1.35.03-.24-1.05.3-1.92.72-3.12 1.02-2.04.36-2.76-1.26-.72-1.44.54-1.8.3-.12 1.26-.18 3.6-.36 4.08-1.68 0-.96 1.02-1.14.3-.12.9.12.42.06 1.98-.36.6-.24.75-.27.15-.03.69-.27 1.38-.6 1.98-.66.06-.12.24.06zm-7.68 11.22q-.66.66-2.01 2.34-1.35 1.68-2.07 2.46-.6.6-.54.66.78-.36 2.1-1.08 2.46-1.62 2.7-2.34l.21-1.47q.15-1.05.12-1.11-.03-.06-.51.54zm81.18-31.8q.06-.66.84-.51.78.15 1.44.81.66.96.48 1.98-.18.9-1.5 3.48-.6 1.26-.6 1.5 0-.06 1.5-.78.84-.3 1.89-.48 1.05-.18 2.25-.24 1.68-.12 2.16 0 .42.06 1.08.84.36.48.57.9.21.42.21.9 0 .48-.24.9-.24.42-.6 1.02-.72 1.08-1.92 2.16t-3 2.22q-3.72 2.4-4.86 1.14-.36-.42.6-.96.3-.18 1.23-.99.93-.81 2.43-2.31l3.06-3.12q0-.18-2.28.36-1.38.36-2.55.81-1.17.45-2.19 1.11-.96.54-1.68.72-.72.18-1.14.18-.78-.06-.99-.36-.21-.3-.27-1.32 0-1.38 1.26-3.24.78-1.14 1.32-2.07.54-.93.78-1.59.54-1.2.72-3.06zM329.9 14.9q.9-1.08 1.5-1.08.66 0 .93.66t-.09 1.38q-.18.24-.42.78t-.66 1.56q-.06.24-.15.45-.09.21-.21.45-.48.96-.69 1.53-.21.57-.27.81-.06.18.42.72h-.06q.3.24.6.84t.54 1.29q.24.69.42 1.38t.18 1.23q0 .18.33-.24t.81-1.26q.6-.9 1.05-1.5.45-.6.75-.78-.06 0-.06-.18 0-.54.72-1.26v.06q.6-.6.9-.6.3 0 .54.54.36.72.18 1.38-.12.48-.69 1.65T335 27.8q-1.86 3.84-2.22 4.08-.66.36-1.59-.27t-1.35-1.59h.06q-.24-.54-.45-1.41-.21-.87-.39-1.89l-.48-1.98q-.18-.18-.87.54t-1.53 1.74q-.66.84-1.65 1.59-.99.75-2.13 1.41-1.26.54-2.01.48-.75-.06-.75-.78 0-.18-.06-.48t-.18-.54q-.3-.48-.24-.81.06-.33.6-.99l.18-.18q1.14-1.08 2.22-1.08.78 0 1.8-.96h-.06q2.16-2.58 4.2-6.6 1.14-2.1 1.8-3.18zm11.64 11.46q1.32-1.08 1.95-1.29.63-.21 1.23.09.78.66.3 1.65-.48.99-2.7 3.09-2.04 1.98-4.11 3.42-2.07 1.44-4.05 2.46-1.44.66-2.91 1.02-1.47.36-1.89.24-.36-.18-.54-.48-.18-.3-.15-.57.03-.27.24-.48.21-.21.57-.21.3 0 4.56-2.94 2.22-1.5 3.45-2.43 1.23-.93 1.53-1.29h-.06q.12-.18.78-.72t1.8-1.56zm-1.86 10.74l3.06-1.62q.24-.18.51-.33.27-.15.57-.27 1.14-.6 1.71-.84.57-.24.69-.3.6 0 .84.78.12.42.54.42.9 0 .99.36.09.36-.57 1.32-.72.72-1.59 1.14-.87.42-1.95.48-1.14 0-2.64.78-1.26.66-1.44 1.44-.48 2.04-.99 3.69t-1.11 2.67l-.9 1.8q.24-.18.66-.42.36-.24.87-.54.51-.3 1.29-.84 2.82-1.62 3.06-1.62.06 0 .6-.36t1.32-.9q1.32-.78 2.28-1.05.96-.27 1.2.27.36.66-.3.78h.24q1.56 0 1.05.69t-2.55 1.83l-4.74 2.52q-.12.06-.18.06t-.18.06l-.36.18q-3.66 1.86-4.62 2.58-.6.48-.84 1.56-.18.84-.3 1.71t-.12 1.65q0 1.2.24 1.74.84 1.62 4.02 1.92 2.1.18 7.98-.54 2.76-.42 4.65-.72 1.89-.3 2.73-.66 1.14-.66 1.83-2.67.69-2.01.63-4.95 0-2.82.84-2.82.66 0 .99.78.33.78.75 2.82.24 1.44.12 2.34-.12.9-.3 1.56-.12.72-.12 1.38 0 .42-.15 1.05-.15.63-.45 1.35v-.06q-.66 1.38-2.13 2.16-1.47.78-4.17 1.14l-2.1.33q-.96.15-1.62.21h.06q-1.14.36-2.52.36-.84 0-2.04.06-1.2.06-2.7.18-2.52.06-3.42 0-.36-.06-.9-.3t-1.14-.54q-.84-.42-1.59-1.08-.75-.66-1.35-1.5-.42-.54-.63-.99-.21-.45-.33-.69-.06-.3-.09-.93-.03-.63.03-1.65.06-1.5 0-1.98t-.3-.36h.06q-.78.66-4.32 1.68-3.48 1.08-4.86 1.08-1.5 0-2.46-1.68-1.14-1.68-.12-2.7.66-.6 1.35-.33.69.27.69 1.17 0 .36.12.36.54.06 1.47-.09.93-.15 2.07-.45 1.14-.3 2.43-.75 1.29-.45 2.61-.93 1.2-.48 1.62-.81.42-.33.48-.63t.42-1.2q.36-.9 1.02-2.28v.06q.78-1.68 1.29-2.94t.45-1.26q-.36.3-.96.6-.48.3-1.17.72t-1.65.9q-2.1 1.38-3.39 1.95-1.29.57-2.19.57-.78 0-1.29-.54t-.93-1.68h.06q-.48-1.14-.45-1.53.03-.39.39-1.05.3-.36.72-.6t.78-.21q.36.03.54.3.18.27.06.75-.06.12-.06.48 0 .12-.03.3t-.03.3q-.12 1.08 5.46-2.16 4.08-2.28 4.2-2.58.06-.36-.42-1.02-.54-.84-.54-1.41t.39-.78q.39-.21 1.05.03t1.44.96q.18.24.36.39.18.15.42.39zm45.18-20.58q0-.72.3-1.02.3-.48 1.14-.45.84.03 1.62.63h-.06q.78.48 1.68.3 1.02-.24 1.68.18.66.42.66 1.14 0 .6-3.12 4.26-1.32 1.56-2.76 3.09-1.44 1.53-3 3.15-2.16 2.16-1.98 2.28.06.12.12.09t.54-.09q.36-.06 1.14-.18.78-.12 1.8-.42.72-.18 1.62-.36 1.86-.42 2.7-.42.66 0 1.74.78h-.06q1.86 1.2 1.5 2.46-.12.48-.81 1.44-.69.96-2.07 2.52h.06q-.54.66-.93 1.11-.39.45-.69.75-.3.36-.48.66 0 .12.54.54.48.48.36 2.64l-.6 5.58q-.06.66-.12 1.56t-.09 1.8q-.03.9-.03 1.74v1.38q.12 3.18-.54 4.44-.66 1.26-2.1 0v.06q-.72-.6-.72-3.66 0-1.38.12-3.15t.36-4.05q.18-1.98.3-3.21t.18-1.95q.06-.72.12-.96l.06-.24q-.42.06-3.3 3.78-3.06 3.72-3.48 4.68-.84 1.56-1.5 1.89-.66.33-1.32-.39v.06q-.84-.66-.84-1.26 0-1.38 8.82-11.04h-.06q1.2-1.38 1.89-2.19t.93-1.11q.24-.3.6-.72t.72-.9q.6-.66.84-1.17.24-.51 0-.75-.06-.06-3.78.54-1.98.3-3.18.51-1.2.21-1.74.39v-.06q-.66.3-.9.6v-.12q-.12.3-.57.45-.45.15-.93.12-.48-.03-.93-.21-.45-.18-.63-.48-.36-.48.12-1.5t1.44-1.86q.48-.36 1.32-1.26.84-.9 2.04-2.22.06-.12.18-.24t.18-.24.18-.24q1.14-1.32 2.1-2.4.96-1.08 1.68-1.92 1.38-1.56 1.77-2.13.39-.57.09-.75-1.92-1.38-1.92-2.28zm18.3.48q.48-.42 1.11-.51.63-.09 2.37.03 3.3.24 4.95 1.44 1.65 1.2 1.23 3-.24 1.02-2.07 2.76-1.83 1.74-4.47 3.54l-4.5 3.06q-.72.48-1.59 1.23-.87.75-1.83 1.77-1.92 1.86-1.92 2.22 0 .06.18.03t.66-.21q.48-.18 1.32-.54.84-.36 2.22-.9l8.76-3.3q2.34-.96 3.87-1.59 1.53-.63 1.89-.93.48-.66.75-.63.27.03.57.33.18.18.57.27.39.09 1.53-.39 1.08-.3 1.5-.21.42.09.84.57.48.42.63.78.15.36-.33 1.02v-.06q-.42.9-2.04 1.53t-3.3.63q-.96 0-3.48.78-1.2.3-1.89.57-.69.27-.93.39.06 0 .96.9.84.96 1.11 1.38.27.42.09 1.2-.3 1.38-.45 3.42-.15 2.04-.15 4.74v1.95q0 .99.06 2.13v1.2q0 .84.03 1.44t.03 1.08q0 .48-.03.93-.03.45-.09.99-.12 1.5-.18 1.92-.3.96-.93 1.77-.63.81-1.83 2.01-.84.72-1.89 1.59-1.05.87-2.43 1.71-1.5.84-2.58 1.44t-1.86.84q-1.74.6-2.16-.18-.24-.36-.27-.63-.03-.27.24-.57.27-.3.87-.72t1.68-1.08q.9-.54 1.95-1.29 1.05-.75 2.31-1.77 2.46-1.92 3.18-2.82v.06q.36-.48.48-1.74.06-.66.09-2.49t.03-4.89v-2.7q0-5.94.3-6.84.36-.96.24-1.41-.12-.45-.72-.75-1.14-.6-1.14-1.38 0-.12-.12-.12-.3 0-3.06 1.2l.06-.06q-.12.06-.21.12t-.21.12q-1.2.48-1.74.66-.54.18-.66.3-.12.18-.93.51t-1.71.63q-1.02.3-1.95.54-.93.24-1.53.36-1.2.24-1.74-.33-.54-.57-.3-2.13.12-.48.36-.99t.84-1.11h-.06q.36-.42 1.77-1.74 1.41-1.32 3.69-3.48 1.02-1.02 2.34-2.13 1.32-1.11 3.06-2.49 1.74-1.38 2.85-2.31 1.11-.93 1.53-1.47.3-.42.39-.51.09-.09.03-.15-.12-.06-1.8-.72-1.02-.36-2.64-.36-1.68 0-2.25-.66-.57-.66.45-1.8zm73.5-3.3q.66.18 1.5 1.32.36.42.84 1.02.9.96.96 2.1v2.46q-.12 1.86-.24 2.34-.3 1.02-.93 1.98-.63.96-2.31 2.88-1.86 2.16-2.16 2.52-.3.36-.48.72-.66.48-.84 1.14-.18.66-.24 2.64-.18 2.64.12 2.52.3-.12 1.98-.51t2.28-.45q.54-.24 2.1-.57 1.56-.33 2.04-.33.18 0 .36.12.42.24.81.9.39.66.51 1.2-.12.42-1.2 1.08-.66.24-2.61 1.11-1.95.87-2.97 1.35-1.02.24-2.28.9-1.26.66-1.89 1.14-.63.48-1.23.78-.84.42-1.5 1.14-.48.42-1.14.9-2.46 1.56-4.5 4.2-1.32 1.56-1.8 3.24-.36 1.2-.18 2.22.06.72 1.92-1.98 2.04-3.06 5.52-5.46 3.54-2.58 5.82-2.58 2.76 0 3.54 3.6.12.3.12 2.31 0 2.01-.12 2.31-.18.48-.39.9-.21.42-.21.84-.3 1.14-.96 2.88-.42.9-1.05 2.19-.63 1.29-.75 1.59-.3.24-1.02.48t-1.32.78q-2.28 1.98-3 2.28-1.2.6-2.34.63-1.14.03-2.04-.39-1.56-.72-3.06-2.34-.42-.48-.9-1.5-.48-1.02-1.08-1.74-.6-.72-.72-1.5-.18-.48-.42-1.38-.78-2.4-.54-3.72.12-3.48 3.78-7.08 2.16-2.34 6.72-5.22 1.26-.9 1.62-1.14l.24-.18-.18-.12q-.42-.42-.78-1.62-.36-1.2-.36-2.52l-.06-.84-.84.78q-.84.72-1.59 1.38-.75.66-1.41 1.32-1.8 1.56-4.17 3.27t-3.39 2.19q-.66.18-1.02 0-.72-.48-1.26-1.2-.72-.96-1.02-2.16-.3-1.2-.42-3.66l-.06-.66-.12.36q-.24.42-1.14 2.4-1.14 1.98-1.59 2.7-.45.72-1.29 1.92-.84 1.2-1.38 1.92-1.62 2.1-1.86 3.96-.12.84-.15 4.95t-.03 4.89q-.12.42-.12 1.5-.24 1.92-.3 2.7-.36.72-1.14.78-.96.06-1.2-1.02-.3-.66-.48-2.82-.24-1.98-.33-3.27-.09-1.29-.03-2.79l-.06-2.04-.72.66q-1.62 1.5-2.58 2.04-1.86.9-2.82-.54-.72-.84-.72-3.48l-.06-1.32.48-.9q1.08-2.28 3.84-6.48 2.88-4.38 3.42-6.48.18-.96.27-1.98.09-1.02.09-1.14-.18 0-.42.18-1.02.72-2.64 1.62-2.46 1.38-3.78 1.98-1.02.42-1.2.6-.12 0-.48.18-1.14.36-2.1.12-.66-.18-1.26-.9t-.6-1.26q0-.54.54-.9.18-.54 1.68-.48 1.08-.06 1.44-.12.54-.3 1.98-.99t2.37-1.23q.93-.54 2.19-1.2 1.68-.96 2.16-1.38l.3-.24.12-.78q.06-.72.3-1.62.18-1.08.39-2.25.21-1.17.27-1.65.12-.66-.6-1.74-1.26-2.04-1.08-2.88-.06-1.14.96-1.32.48-.18 1.44-.15t1.38.21q1.02.42 1.62 1.56.36.3-.42 3.96-.24 1.2-.24 1.29 0 .09.36.09t.75.18q.39.18.87.3 2.1.06 1.98 1.02-.06.42.72 1.2.6.66.54 1.02.06.18-1.38.84-.96.42-2.07 1.05-1.11.63-1.59.93-.9.48-1.2 1.14-.12.24-.18 1.32t-.06 1.44q-.12.6.24.72.6.42 1.08 1.44.3.36-.66 1.2-.84.6-1.05 1.35-.21.75-.15 2.67-.06 1.56.06 1.74-.06.3.36-.24.42-.78 1.2-1.56 1.08-1.26 2.28-3.12.66-1.02 1.02-1.5.96-1.56 1.8-1.38.6 0 .66.24.12.54.18-1.32 0-3.12.84-7.14.54-3.3.78-4.62.3-2.94 1.14-3.78.36-.54 1.26-.48 1.2-.06 2.52.96.9.54 1.17 1.14.27.6.87.78.84.18 2.04 2.16.42.72.9 1.56.54 1.08.54 2.1 0 .36-.36.66-1.08.9-3.66 2.61t-4.32 2.67q-.36.12-.36.42-.18.42-.18 4.08-.06 1.74 0 2.19.06.45.36.39 1.14-.06 6.78-4.86 1.26-1.14 1.86-1.71.6-.57 1.44-1.29 1.5-1.5 1.74-1.98.3-.84.6-4.02.18-2.58.78-4.86.48-1.98.84-4.02.3-2.52 1.08-3.18.3-.84 2.1-.6.96 0 1.38.12zm-1.14 3.3q-.3.06-.54 2.04-.42 2.04-.9 3.84-.84 2.88-.78 3.78-.06.12.24-.36.3-.78 1.53-1.95t1.65-2.07q.72-1.68.6-3.36-.18-1.08-1.2-1.8-.36-.36-.6-.12zm-16.26 4.74q0 .06-.03.27-.03.21-.09.45-.06.24-.12 1.26-.3 3.06-.78 4.68-.3.84-.18.96.24-.12 1.86-1.32 1.62-1.2 2.64-1.98.54-.42.54-.54-.24-.96-1.08-2.28-.66-1.02-1.98-1.32-.54-.18-.66-.24t-.12.06zm-16.14 22.68q-1.08 1.38-2.4 4.14-1.5 2.82-1.32 3.06-.12.18.33-.24t2.01-1.8q1.8-1.86 1.68-1.86 0-.48.03-1.92t-.06-1.59q-.09-.15-.27.21zm30.9 4.86q-1.92.66-3.96 2.22t-3.24 3.3l-.3.42.3.06q.36.06 1.29.24t1.59.42q1.5.54 3.12 1.56.6.36.78.42.06-.12.3-.78.3-.96.84-2.52t.72-2.04v-3q-.24-.72-1.44-.3zm-8.22 9.3l-.54.42q-.6.42-.84.6-.84.3-.78.96-.06.42.96 1.44.6.6 1.05.87.45.27 1.17.27t1.26-.3q1.32-.66 2.16-1.56.66-.66.72-.84.3-.66-3.6-1.56-.84-.24-1.2-.24l-.36-.06z"/></svg>