<svg viewBox="0 0 449 80" xmlns="http://www.w3.org/2000/svg"><path d="M36.04 15.8q.48-.06 1.5 0t1.38.12q.42.12.66.18 1.44.42 2.58 1.2 1.68 1.14 2.34 2.88.6 1.5.6 3.06 0 .96-.48 1.98-.36.66-.72.78-.42.18-1.32.06-.78-.18-1.14-.3-.36-.12-.54-.12-.48 0-.9-.48-.24-.3-.9-.66-.66-.36-1.26-.18-.36.12-.66.12-.48-.12-.9.18-.12.12-.18.06t.36-.48q.42-.36.78-.96.3-.6.48-.9.42-.6.54-1.14.06-.24.18-.36.12-.24.06-.84 0-.72-.12-.96-.18-.18-.84-.48-1.02-.42-2.1-1.32-.36-.3-.96-.48-.42-.12-.48-.18t.12-.12q.24-.18.42-.18.24 0 .66-.18.42-.24.84-.3zm17.52 7.08q0-.12.12-.12.12.06.24.18.12.18.42.18.24.06.36.06.18.12.9.3 1.02.24 1.74.72.42.18.66.72.24.48.36.6.36.36-.36.72l-.6.24q-.24.12-.96.18-1.5.12-4.32 1.2-3.18 1.26-3.48 1.5-.06 0-.6.24-.42.12-.72.24-.72.36-.9.36-.12 0-.12.06 0 .12-.18.18-.36.12-1.92.84-.72.36-.84.36-1.08.42-1.08.6 0 .12 1.56 1.08 2.1 1.26 2.64 1.86.54.66.24 1.5-.12.3-.24.66-.36 1.08-.6 1.5-.18.24-.3.6-.24.6-1.32 2.82-.42.9-.42 1.02t1.62 1.74q1.62 1.62 2.7 2.46 3.12 2.76 4.26 3.42 1.14.72 3.78 1.62l4.62 1.5q3.36 1.32 4.44 1.74 1.08.48 3.06 1.68.18.12.3.18.54.54 1.74.96.66.3.66.36t-.78 0q-.84-.06-5.4.06-5.64-.06-7.32-.3-.54-.06-1.2 0-.72.12-1.2 0-.48-.06-1.38 0-.84.12-1.44-.06-1.14-.36-1.74-.78-.42-.24-.54-.3-.18-.12-.78-.84-.6-.78-.9-.96-.3-.3-.6-.72-.42-.54-1.02-1.2-.78-.78-1.08-1.14l-1.14-1.26q-.72-.78-1.26-1.5-1.86-2.34-2.04-2.34l-.3.42q-.3.48-.78 1.08-.72.96-1.5 2.1-.48.84-1.98 1.98-.3.18-.84.66-.42.36-.48.3-.12 0-.3.18-.18.24-.3.24t-.48.24q-.42.3-.66.36-.3.12-.3.18t-.18.12q-.24.06-1.14.48l-.48.18q-.06 0-.6.24-.78.42-2.76.9-1.02.3-1.74.3-.54 0-.54.06t-.18 0q-.12 0-.18.06-.12.06-.54-.12-.48-.12-.48 0 0 .18-.06 0-.12-.3-.72-.3-.36 0-.42-.12-.12-.06-.36-.12-.24 0-.48-.12t-.42-.12q-.24 0-.36-.12-.12-.18-.42-.3-.3-.06-.36-.12t-.72-.42q-.72-.3-.78-.3-.06 0-.66-.3-.66-.24-.6-.24 0-.06 1.02.24l.96.36q.12 0 0-.12-.12-.06-.36-.12l-1.08-.42q-.78-.24-1.62-.42-.24-.06-.54-.18-.3-.18-.42-.18t-.18-.18q-.12-.12-.18-.12-.12 0-.3-.18t0-.24q.18 0 .18-.12t.06-.12q.06 0 .12.06.06.12.12.06.12-.06.54.06.36.12.78.12.42 0 .48-.06t.78-.06q1.38 0 2.1-.18.3-.06.9-.12 3-.24 6.3-1.56 1.32-.48 2.82-1.32 3.3-1.92 6.54-5.7.84-1.02.84-1.14 0-.06-.12-.18t-.54-.72q-1.56-2.04-2.34-2.4-1.44-.78-3.48-.42-.78.12-2.82.12-2.1 0-2.46-.18-.36-.18-.36-.24t2.22-.66q1.44-.36 2.28-.72.96-.36 1.44-.48.54-.18.78-.36t1.44-.18q1.68 0 3 .66 1.02.48 2.52 1.74l.78.66 1.02-2.04q1.62-3.18 1.62-3.6-.12-.9-.48-1.68-.18-.36-.3-.42-.12 0-.6.24t-1.38.6q-.78.36-1.26.54-.78.42-2.46 1.02-.9.36-1.26.54-.84.42-2.52.78-1.74.36-2.76.36-1.68 0-3.48-1.2-1.68-1.08-2.58-2.76-.18-.48-.54-1.02l-.36-.6q.06 0 .18.18.36.36.36.12 0-.06-.24-.42-.3-.42-.06-.3.3.36 2.28 1.08.9.36 1.56.72 1.2.6 3.06.54 1.92-.06 3.78-.66 1.86-.54 7.44-2.76 2.28-.9 4.92-2.16 2.64-1.26 3.12-1.62.3-.18.42-.24.18 0 .18-.42-.06-.42.18-.66.18-.18.42-.18t.42-.24q.18-.24.36-.24t.24-.12q0-.12.3-.12t.42.06q.12.12.48.06.3 0 .54-.18.24-.12.24-.3zm52.32-9.12q.3-.12.72-.12 1.02.12 1.68.66.18.18 1.08.66 1.44.78 1.8 1.26.48.66.3 1.02t-.42.6q-.48.54-.6 1.32-.06.3-.27.48-.21.18-.21.78-.06 1.08-.24 2.88-.12.96-.18 6.24-.06 6.48-.36 7.14-.12.3-.48.57-.36.27-.6.21-.24-.06-.36-.21t-.3-.15q-.3 0-.84-.48t-.96-1.14q-.12-.3-.36-.24-.18.06-1.5.3-.42.06-.24.24.18 0 .24.06t.3.12q.54.12 1.38.9.48.48.84.69.36.21 1.2 1.11.6.66.78.96.18.3.18.72 0 .24.09.27.09.03.63-.03.84-.06 2.16-.12 1.56-.06 1.68-.06.18-.06.3-.54.24-1.2.3-5.64 0-2.7-.18-3-.18-.24-.48-.54-.24-.24-.24-.27 0-.03.18-.03t.42.12q.24.06.78.12.72.12 2.28.84.36.18.78.57.42.39.51.78.09.39-.15.81-.3.78-.36 3-.12 4.56-.96 6.18-.18.42-.24.84-.12.48-.39.81-.27.33-.57.21-.24 0-.57-.27-.33-.27-.45-.45-.12-.24-.3-.36-.54-.3-2.58-.12t-2.58.54q-.18.12-.18.33 0 .21.12 1.29t.18 1.2q.06.12.36.12 1.86-.3 3.36-.6.18-.06.66-.18.48-.12.6-.12.54-.12.66-.12t.39-.12q.27-.12.27-.24 0-.06.21-.06t.33-.12q.66-.6 1.02-.6.18 0 .24-.06.12-.18.84.18 1.2.6 2.64 1.08 1.44.54 1.98 1.38.24.48-.48.84-.36.24-.78.78-.42.54-.42.63 0 .09-.06.15-.3.3-.3.84 0 .3-.15.6t-.09 2.88q.06 2.7.12 3.18.06.72.06 3.24 0 2.58-.18 3-.18.42-.3.6-.18.12-.24.3-.06.24-.27.24-.21 0-.24-.15t-.51-.39q-1.32-.72-1.56-.96-.24-.18-.9-1.02-.66-.84-.66-.93 0-.09-.3-.45-.24-.3-.72-1.02-.42-.6-.78-.96-.36-.3-.36-.45 0-.15-.12-.51t-.06-.42q.06-.06.3.24.18.18.9.57.72.39.9.39.06 0 .18-.36t.06-4.68q0-4.44-.24-4.56-.06 0-.42.06-.6.18-.66.18-.3.06-2.58.36-1.14.18-1.38.24t-.54.36q-.3.24-.33.42-.03.18.03 1.02.12.96.18 1.86l.12 1.74q.06 1.02 0 2.22 0 1.2.06 1.62.3 1.38.12 2.52-.12.48-.12 1.08-.06.48-.15.63-.09.15-.45.18t-.72-.21q-.3-.18-.6-.24t-.54-.24q-.18-.24-.24-.24t-.6-.6l-.96-1.02q-.36-.42-.3-.66.06-.3.06-.6.06-.48.12-.9.12-.66.06-2.1t-.06-1.56v-2.16q0-3.06-.3-5.82-.06-1.02-.24-3.06-.24-2.28-.24-2.58-.06-.72-.12-1.86-.06-1.5-.42-2.04-.24-.3-.54-1.08-.3-.66-.48-.72-.18-.06-1.44.3-1.14.3-1.56.42-.48.06-.72.3-.42.42-1.14.3-.54-.18-.72-.27-.18-.09-.36-.45-.42-.78-.66-.96-.66-.36-.96-1.08-.24-.54-.36-.78-.48-1.2-.36-2.58.06-.36-.03-2.25-.09-1.89-.15-2.55-.06-.48-.18-1.8 0-.66-.12-2.04-.12-.72-.18-2.7-.06-1.5-.12-1.83-.06-.33-.42-.75-.48-.54-.6-.9-.06-.12 0-.12t.36.12q.36.12.84.3 1.02.36 1.62.84.6.54 1.38.42.9-.18 3-.96 1.98-.78 2.22-.9.24-.12.3-.12t.54-.18q1.62-.78 1.68-.9.06-.12.3-.12.36 0 .48-.36.12-.3.48-.42zm-.42 5.16q-.06-1.74-.18-1.74-.06 0-.72.36-.96.42-2.46.84-.84.24-2.34.96-.9.42-1.02.42t-.3.18q-.24.18-.18.9.06.78.06 1.2v.42q.24 0 1.8-.48 1.02-.36 2.52 0 1.02.18 1.5.78.24.36-.24.78-.3.18-1.23.6-.93.42-1.35.48-.54.12-2.28.54-.54.12-.66.24-.18.12 0 1.8.12.9.24.9.24 0 1.2-.3t1.14-.42q.06-.06.24-.12h1.14q.96 0 1.2.12.36.06.81.39.45.33.45.48 0 .15.12.39.12.3 0 .54-.24.48-1.74.96-.72.18-.96.3t-.3.12q-.06 0-.66.3-.72.36-1.44.6-.84.24-.96.36-.06.12-.09.93t.03.87q.06.06 1.89-.39 1.83-.45 1.95-.54.12-.09.42-.15 1.14-.18 1.32-.3.06-.12.27-.03.21.09.3.03t.15-2.1q.06-2.16.3-4.2.24-2.7.06-7.02zM85.12 33.86q-.24-.3-.21-.33.03-.03.33.09.24.12.66.24.96.12 2.22.78.6.3.9.42.9.36 1.38.96.6.72.72 2.4.06 1.32.12 1.98.12.6.12 2.28 0 1.56.15 1.56t1.26-.48q1.11-.48 1.14-.48.03 0 .54-.24t.69-.3q.24-.06.24-.84 0-.12.03-.75t.03-.93q.06-1.32 0-1.8t-.45-.84q-.39-.36-.27-.42.18-.06 1.11.06.93.12 1.38.27.45.15 1.41.63t1.14.66q.78.72.3 1.38-.12.18-.3.96t-.12 1.74q0 .72.06 2.04 0 .96.06 2.16.06.9.12 5.16 0 3.96.12 5.46.3 3.18.18 4.26-.12.84-.27 1.05-.15.21-.15.3t-.21.06q-.21-.03-.33-.09-.12-.12-.18-.12-.18.12-.96-.6-.12-.06-.27 0-.15.06-.81-.6-.42-.36-.36-.48t-.06-.06q-.12.06-.12 0t-.51-.69q-.51-.63-.63-.69-.06-.06.12-3 .06-1.62 0-4.02 0-2.16-.12-2.34-.12-.18-1.08.12-3.3 1.14-3.36 1.44 0 .12.36.42.3.24.72.6.3.3.33.3.03 0 .39.36.18.3.24.51.06.21 0 1.05 0 1.56-.54 2.28-.42.6-1.47 1.59-1.05.99-1.59 1.35-.66.42-.72.42-.06 0-.24.18-.48.42-2.28 1.14-1.02.48-2.52.48-.72 0-1.26-.24-.54-.3-.54-.36-.36-.36-.84-.48-.36-.12-.18-.21t.66-.09q.42 0 .72-.12t.66-.12q.36 0 .78-.18.42-.24.78-.36.78-.36.84-.54.06-.18.42-.48 1.08-.84 1.8-1.98.78-1.26 1.2-2.58.42-1.68.18-1.86-.06-.06-.48.18-.36.18-1.14.48-.9.36-1.14.42-.42.18-.96.18t-1.02-.3q-1.26-.78-2.82-2.52-1.38-1.5-1.8-1.5-.12 0-.18-.06l.78-.12h.66l1.14.18q.9.12 1.44.48.18.18.48.18.84 0 3.06-.84l1.8-.6h.06l.06-.06h.06l.12-.06 1.32-.48q-.06 0-.24-.06h-.06q-.36-.06-.66-.24-.18-.12-.54-.24-.42-.18-1.26-1.2l-.6-.6q-.24-.24-.27-.36-.03-.12.03-.72.06-.72.18-1.38.12-.72.18-2.76t-.18-3.6q-.18-1.32-.33-1.71-.15-.39-.63-1.05-.48-.6-.48-.69 0-.09-.24-.39zM95.5 46.4q-.06-.48-.12-.66-.06-.18-.12-.06-.06.06-.66.3-1.2.48-2.82 1.38-.36.24-.54.48-.48.66-.36.78.06 0 1.56-.51t1.8-.63q.24-.12.42-.06t.36-.12q.12-.12.3-.06t.21-.12q.03-.18-.03-.72zm68.4-33.84q-.06-.24.06-.3.12 0 .42.12.06 0 .78.3.48.18 1.86.84 1.32.72 1.68.96.9.66 1.08 1.32.06.36.24.54.48.96-.18 3.96-.18.9-.18.96.06.06 1.14.12l.84.12q.36.12.84.3 1.08.18 2.04 1.26.6.54.6.72 0 .48-.6.72-.48.18-1.38.36-.3.06-.66.18-.24.06-.72.06-.42 0-1.08.18-.66.12-1.08.18-.48.12-.72.54-.3.48-.42.72-.36.66-.54.78-.12.18-.36.96-.3.9-.78 1.98l-.18.24q.18.06 2.52-.54 3.18-.78 5.64-1.08 1.32-.24 1.92-.48 1.02-.6 2.28-.6.84 0 1.38.18 1.2.6 1.92 1.86.6.96 1.08 1.38.24.36.42.66.3.36.36.36t.24.42q.18.42.24.66.06.36-.24.54-.36.3-1.26.24-.9 0-1.32-.3-.9-.72-1.38-.72-.12 0-.18.12-.12.12-.96-.06-3.18-.54-8.34 0-3.9.48-5.04.66l-.72.12-.12 1.68q-.06 1.56-.06 1.62.06.06 2.94-.84.36-.12.66-.48.24-.36.42-1.32-.12-.06.06 0 .3.06.96.06.9.12 1.98.96 1.62 1.38 2.4 1.8.36.18.66.36.42.3 1.2.72t.9.54q.12.12.12.48 0 .3.12.6.12.12.12.3 0 .12-.3.48t-.42.36q-.18 0-1.08 1.98l-.36.9q-.3.6-.36.9-.12.3-.24.42-.06.12-.12.36-.12.24-.36.66l-.54 1.02q-.18.48-.72 1.2-.48.66-.9.78-.48.12-.54.24-.66.48-1.2.48-.12 0-.24.12-.24.06-1.44.18-3.72.48-6.18 1.14-1.26.42-1.62.48-1.32.36-1.32.54 0 .06.18.12.12.06.6.48.42.3.96.66.54.3.84.48.24.24.24.84 0 .54-.3.84-.3.3-.54.36-.36.12-1.86 1.56-.6.54-.78.78-.3.24-.78.66l-.84.48q-.18.18-.42.24-.3 0-.6.36-.3.24-.96.72-.66.6-1.44.84-.78.24-1.56.6-.48.12-1.14.24-.78.24-1.26.36-.54.12-.9.18-.42 0-.54.06 0 .06-.72-.12-.72-.12-1.08-.12-1.02.12-1.56-.42-.3-.3-.72-.3-.72-.18-1.08-.18-.12 0-.18-.24-.06-.18-.36-.3-.36-.12-.42-.18t-.18-.06q-.18 0-.18-.12.06-.12 0-.12-.12 0-.12-.06t.42-.06q.3.06.84-.06.72-.3 1.98-.36.9-.06 1.02-.18 3.06-.06 6.06-1.62.42-.18 1.32-.9.9-.66 1.5-1.38 1.62-2.04 1.62-2.34 0-.24-3-2.22-1.74-1.14-2.88-2.88-1.14-1.86-1.32-2.76-.3-1.5.42-3 .66-1.44.9-1.86.24-.42 1.02-1.14 1.2-1.08 1.44-.9.3.12.66 1.08.36 1.02.18 1.14-.18.18-.24 1.08-.06.96.12 1.62.06.48.12.84 0 .24.18.24t1.02-.24l2.88-.84q1.56-.42 1.74-.6.12-.18 0-1.02 0-.42-.12-.42t-.9.24q-1.32.36-2.22.18-.3-.06-.84-.54-.66-.6-.96-.78-.42-.36-.48-.54-.06-.18 0-.24l.18.06q.3.12.42.06t0-.12q-.24-.12-.12-.18t.42-.06q.72 0 3-.78l1.44-.54v-.78q-.18-3.06-.36-3.06-.24 0-1.38.27t-2.88 1.11q-.54.18-.6.18-.12 0-1.26.54-.36.18-.72.24-.6.18-1.32.66-.12.06-.54.18-2.28 1.08-3 1.68-.48.42-1.8.3-1.02 0-1.32-.18-.84-.54-4.02-3.6-.42-.42-.72-.66-.36-.24-.72-.6l-.36-.36.36-.06q1.14-.18 2.88.48.66.18 1.2.12.48 0 2.22-.42 1.38-.3 6.54-1.38 1.86-.36 2.64-.54.78-.18 1.38-.3.54-.12.66-.18.06 0 0-.06 0-.3-.3-1.14-.3-1.08-.42-1.68-.18-.66-.48-.72-1.98-.42-2.1-.78-.06-.06-.12-.06-.66 0-2.22-1.44-.48-.48-.9-.66-.9-.48.3-.48.42 0 2.04.6.54.18.84.18.3 0 1.14-.18.78-.18.84-.18V26q-.3-1.56-.54-2.46-.06-.24-.3-1.44-.3-1.38-.66-1.56-.18-.12-.6-.54-.48-.42-.48-.48t-.18-.12q-.18-.06-.12-.18 0-.06-.12-.3-.12-.06-.06-.12h.24q.3 0 .36-.06 0-.06.66-.18.6-.06.66-.12.3-.24 2.58.36 2.28.48 2.4 1.02.06.12.3.36l.6.6q.36.42.36.78 0 .42-.06.48-.12.06-.06.12t-.06.66q-.18.54-.12 1.26 0 .72.18.66l2.34-.78 2.34-.78.12-.66q.18-1.44.24-6.66 0-1.26-.3-1.74t-.36-.48q-.36-.3-.66-1.08zm.42 14.7q0-.24-.06-.24-.3 0-1.86.54-1.56.6-1.8.78-.24.24-.3 2.28v1.68l.3-.12q.36 0 1.74-.3 1.32-.24 1.32-.36.06-.06.36-1.98.3-1.86.3-2.28zm6.42 12.18q.06-.24.06-.3-.06-.06-.24-.06-.48.06-1.38.24-.66.24-1.26.3-.66.12-1.2.3l-1.02.36q-.3.06-.54.18-.24.24-.18 1.44.06.54.18.6.06.06.54-.06.06 0 .48-.12.36-.12.6-.24.84-.24.9-.3.06-.06.18-.06.06.06.42-.06.48-.24 1.62-.12l.54.06.12-.9q.18-.72.18-1.26zm-.84 5.46q0-.36-.06-.42-.06 0-.6.12-.06 0-.42.12-.42.12-.54.18-.78.12-2.04.6-.72.18-.78.18-.36 0-.42.84-.06.66-.18 1.08-.12.3-.12.36.06 0 1.32-.24 1.56-.42 2.34-.36.48 0 .54-.06.06 0 .18-.18.72-1.74.78-2.22zm-9.36 3q-.24-.66-.36-.66-.54-.06-3 .72-.84.36-1.44.42-.54.12-.54.18-.06.12.96 1.26l.24.36 1.32-.36q1.56-.36 2.22-.6.84-.24.9-.42.06-.12-.3-.9zm6.3 4.02q0-.24.06-.3h.54q.6.06 1.14.18.3.06.96.12 1.62.36 4.62 1.32 2.16.72 3.24 1.56.96.72 1.44 1.98l.3.96q.18.48.36.84.3.66.42 1.8 0 .66.06 1.26.06.48.12 1.38.06.78-.06 1.08-.36.66-.12 1.38.12.18.06.42t-.3.24q-.06 0-.72-.66-.66-.72-1.2-1.14-1.98-1.62-4.14-4.14-1.2-1.32-2.1-2.76-1.08-1.68-2.28-2.64-1.38-1.2-2.22-2.34-.18-.18-.18-.54zm44.4-36.24q-.3-.66-.3-.75 0-.09.24.15.18.18.48.24.96.18 2.34 1.26.42.36.48.36.18.06 2.28 1.62 1.14.84 1.38 1.02.78.48.6.96-.06.18-.54.48-.78.48-.84.84-.06.18-.3.3-.66.48-1.8 2.22-.36.6-.42.66l-.18.3q-.12.24-.42.66-.6.72-1.14 1.74-.18.36-.54 1.56-.36 1.14-.48 1.38t-.06.24l1.02.36q2.28.78 3.78 2.22.42.42.54.66l.66 1.26q.54 1.02.72 1.56.36 1.08.18 2.94-.12 1.44 0 2.64.06.66.03.78t-.27.3q-.72.48-1.5.3-.66-.18-.99-.09-.33.09-.87-.03-.48-.18-.96-.24-1.08-.12-2.64-.84-1.02-.54-1.2-.78-.42-.48-2.1-1.8l-.48-.42-.06.66q-.06.6 0 2.55.06 1.95.18 2.49.06.42.12 2.4.12 1.86.18 2.46.06.66.12 1.5.12 1.14.24 1.8.12.84.12 1.83 0 .99.12 1.71t.18 1.44q.06.6.33 1.98t.51 2.16q.06.3.24 1.14.12.9.18.96 0 .12-.3.24t-.3.18q-.12.12-1.2-1.02-1.08-1.14-1.98-2.28-1.86-2.52-2.76-5.46-.18-.72-.24-5.34t-.18-5.4q-.06-.78 0-2.4.12-1.68-.06-3.3 0-.48-.06-3.48-.06-4.56-.36-6.24-.06-.48-.54-.9-.48-.54-1.02-1.62t-.66-1.86q-.06-.24-.06-.27 0-.03.12.09.12.18.12.3t.36.48q.3.36.48.6.18.18.54.42.36.24.84.06 1.32-.48 3-1.8 1.62-1.26 2.58-2.22 1.62-1.56 1.62-1.68 0-.06.3-.42.72-.96.96-2.1.12-.54.15-1.59t-.03-1.17q-.12-.12-.48-.96zm-.24 9.3l.06-.6q-.12.06-.6.48-.6.48-2.04 1.86-1.32 1.2-3 1.8-.36.12-.36.21t.3.33q1.44 1.14 1.74 1.56.36.36.42.78.06.42.06 2.22 0 2.16.12 2.22.18.24 1.5.9t2.34 1.08q1.32.48 1.86.18.18-.06.18-.96 0-1.8-1.08-3.48-.6-.84-1.5-.96-1.02-.06-1.44-.78-.24-.48-.24-.66 0-.18-.24-.66-.18-.36-.24-.69-.06-.33.06-.33.36 0 .78-1.02.24-.6.48-1.08.78-1.38.84-2.4zm24.12-1.38q0-.06.06-.03t.06.12q0 .09.36.45t.45.36q.09 0 .09.06t.18.24q.12.18.18.57.06.39.42.93.84 1.08 2.58 2.28.66.42 1.02.78 1.32 1.14 2.13 1.56.81.42.87.63.06.21.42.45.6.42.96 1.2.18.3.12.54-.12.24-.3.36t-.18.21q0 .09-.12.21-.06.12-.33.81-.27.69-.3.84-.03.15-.09.27-.12.36-.42 1.86-.18.96-.36 2.34-.06.96-.12 1.5-.12.78-.48 4.98-.06.96-.18 1.5-.06.48-.12 1.14-.12.78-.24 1.62-.18 1.62-.3 2.88-.12.6-.18.96-.06.3-.12 1.02-.06.78-.36 1.98t-.48 1.32q-.12.06-.3.06-.24-.06-.3.06t-2.7-.6q-.12-.12-.54-.63-.42-.51-.9-.69-.42-.12-.84-.54-.42-.42-.42-.48t-.39-.45q-.39-.39-1.35-1.53-.24-.36-.3-.6-.12-.24-.36-.66-1.26-1.92-1.74-2.46-.24-.3-.54-.18-.9.24-2.04 1.02-.6.42-.96.42-.36.06-.42.15t-.06.45q0 .42-.12.63-.12.21-.09.63.03.42-.09.42t-.6-.45q-.48-.45-.72-.81-1.98-2.52-2.88-7.74-.18-1.14-.36-4.32-.24-4.32-1.14-7.32-.6-2.1-.96-2.34-.12-.06-.78-.9-.54-.72-.78-.96l-.12-.12q.06-.06.57.15t.69.33q.3.24 1.02.48.54.12 1.32.48.6.24 1.08.15.48-.09.63-.15.15-.06.75-.24.84-.3 1.74-.66l.6-.24q.3-.12.78-.36.72-.3 1.08-.42l3.66-1.68q1.44-.36 2.13-.96t1.02-.99q.33-.39.45-.75.18-.54.12-.84-.06-.24-.06-.3zm1.68 6.06q-.24-.24-.3-.24-.12 0-.6.18-.54.18-.72.18-.3.06-1.2.54-.84.42-1.62.66-.78.24-1.44.48l-2.64 1.2q-1.32.36-2.28.9-.36.18-.72.24-.6.18-.66.27-.06.09.12.51.24.6.36 1.14l.24 1.2q.12.48.27.51.15.03 1.35-.15.54-.06 1.68-.12t1.86.12q.6.18 1.32.54.72.36.84.54.12.18.3.3.12.06.15.18t-.09.18q-.12.06-.54.54-.42.54-1.32 1.14-.9.6-1.68.84-.48.12-1.38.54-.9.48-1.44.96-.36.36-.42.57-.06.21.06 1.17.18 1.68.18 2.22v.12q0 .18.24.21t1.68-.09q.42-.06.66-.06 1.68-.18 3.36.12.84.12 1.62.36.78.24.78.42 0 .42-1.5 1.2-.48.24-.6.36-.12.18-.72.36-.54.18-.57.24-.03.06-.15.06-.42 0 2.46 1.26.84.24.96-.06.54-.48.54-.6 0-.18.12-.84.18-1.14.3-2.04.18-1.2.3-1.86.12-.72.48-3.6.24-1.74.54-5.52.18-2.22.36-3.6l.18-1.5q.06-.36.06-.78 0-.42-.3-.78-.36-.48-.48-.72zm39.12-15.24q0-.06.09-.09t.51-.03q.6 0 1.14.24 1.68.72 2.82.78 1.32.06 2.1.24.42.12.66.06.24 0 1.86.78 1.38.66 1.38 1.26 0 .66-.54 1.08-.24.18-.24.45t-.3.66q-.3.39-.39.54-.09.15-.33.27-.18.06-.21.21t.03.87q.06 2.1-.06 3.12-.42 2.7 0 2.82.12 0 1.38-.36.3-.12.87-.27.57-.15.63-.21.18 0 1.08-.3 1.74-.6 2.76-.42.36 0 .78-.06.66-.24 1.56.12.42.18.9.24.96.3 1.86 1.14.18.24.42.78.36 1.2.72 1.98.24.48.24 1.08 0 .54.12.75.12.21.3 2.55.18 1.62.18 1.65 0 .03-.18-.15-.54-.18-1.74-1.08l-1.26-.9q-.48-.3-1.83-1.35t-1.47-1.17q-.06-.06-.54-.48-.48-.36-1.02-.36-1.26 0-3.24-.78-1.8-.66-2.52-.66-.18 0-.21.09t-.15.69q-.12.78-.3 1.5-.3 1.44-.3 3.66t.36 4.08q.24 1.26-.18 1.8-.36.54-.18.6.06.06 1.32-.24l3.24-.66q1.68-.36 2.34-.48.42-.12.66-.18.6-.12 1.14-.78.42-.6 1.32-1.02.9-.42 1.62-.42.54.06.66.12.06.06.18.06t.12.06q0 .06.48.36t.72.51q.24.21.84.51 1.08.6 2.16 1.8 1.08 1.2 1.02 1.38-.06.06.06.12t.3.39q.18.33.18.45t.42.72q.42.6.42 1.08 0 .48-.12.66-.12.12-.48.24t-.45.06q-.09-.06-.69-.15t-.75-.27q-.15-.18-.45-.36-.66-.3-1.02-.78-.18-.18-.72-.39-.54-.21-.78-.21-.12 0-.57-.15-.45-.15-.75-.09t-1.35.06q-1.05 0-1.17.06-.12.06-3.36.06-3.3.06-3.36.06-.06.06.36.48.42.36 1.14 1.32l1.32 1.68 1.38 1.92q1.44 1.98 2.28 2.82.48.54.6.72.18.24.6.54 1.08.72 4.2 2.04.78.36 1.14.54 1.2.6 2.88 1.08 1.32.36 3.93.93 2.61.57 3.15.63.3 0 .33.15.03.15-.12.15t-.42.18q-.27.18-.39.18t-.24.12q-.06.12-.66.24-.48.12-.72.24-.54.24-1.26.48-.54.18-.66.36-.18.18-.48.18-.36.12-1.14.36-1.38.48-1.8.48-.24 0-.6.12t-1.14.24q-.66.06-1.26.24-.6.12-1.2.18-.84.06-1.14.36-.36.42-1.26.48-.6.06-.84-.18-.18-.24-.54-.48-.54-.36-1.02-1.26-1.56-2.94-3.48-5.58-.36-.42-.54-.72-.18-.36-.48-.78-.84-1.2-2.4-3.84-3-5.28-3.3-5.4-.06 0-.18.9-.06.96-.24 1.2-.24.36-.36 1.56-.06.54-.3.9-.24.42-.3.96t-.27.9q-.21.36-.27.72 0 .3-.24.66-.6.96-.78 1.74-.12.36-.78 1.08-.72.66-.84.96-.12.24-.69.87t-.69.63q-.06 0-.63.42-.57.42-.63.54-.42.48-1.26.9-.3.18-.9.6-.9.66-1.56.72-.18.06-.24.06-.06.06-.24-.06-.24-.24-.96.12-.78.36-2.76.12-1.08-.12-1.56-.12-.48-.06-.66-.18-.18-.06-1.26-.06-.36-.06-2.22-.12-1.14-.06-1.2-.12-.06-.06-.18-.06t-.24-.24q-.12-.24-.36-.36-.24-.06-.42-.24t-.36-.18q-.12 0-.6-.12-.48-.18-.51-.36-.03-.18-.18-.21t-.21-.09q-.06-.06-.03-.06h.15q.24.06.24-.06t-.18-.18q-.12-.12.06-.06.66.24 3.6.24 1.74 0 3.06-.3 1.56-.3 2.22-.42.06-.06.33-.12t.39-.12q1.2-.3 1.77-.63.57-.33 1.29-1.05 3-3.12 3.66-4.14 1.02-1.62 1.68-3.54.12-.3.39-1.47t.27-1.29q0-.36-.84.06-.42.24-1.08.42-2.16.6-2.88.96-.3.18-.6.42-.24.24-.48.3-.18.06-.3.18-.42.36-1.68.84-1.62.6-2.1.96-.36.3-.42.36 0 .06-.36.18-.36.18-1.2.12t-1.32-.3q-.42-.24-.48-.3t-.36-.3q-2.4-1.8-3.48-3.42-.18-.3-.9-.9-.66-.6-.72-.72 0-.06-.18-.21t-.12-.15q.12-.18 2.76.36.9.24 1.86.9.54.3.72.36.18.06.78 0 .78 0 2.22-.42 1.68-.36 3.78-.78 6.36-1.32 6.84-1.74.3-.24 0-.6-.3-.3-.12-.3.12 0 .06-.12t.06-.12q.12 0 .03-.12t.06-.12q.15 0 .57-.18.42-.18 1.08-.42.72-.24 1.26-.18.54 0 .63-.03.09-.03-.03-.18t-1.26-1.35q-1.02-1.08-1.08-1.44-.06-.78-1.14-1.2-.78-.24-2.16-1.26-.78-.48-1.2-.78-.3-.18-.36 0-.18.12-.18.72 0 .48-.24.72-.12.12-.03.66t-.06.81q-.15.27-.15.87.06.6-.12.9-.3.36-1.05.75t-1.29.39q-.36-.06-1.11-.48-.75-.42-.75-.6 0-.12-.3-.42t-.54-.72q-.42-.66-1.32-1.44-.84-.66-1.02-1.14-.12-.3.36-.84.24-.36.15-.54-.09-.18-.03-.36 0-.18.24-.3t.24 0q.06.06.18.06t.3.18.3.18q.12.06.15.03t.03-.21q.36.36.72.3 1.14-.18 2.64-1.5 1.56-1.44 3.42-3.9l.96-1.2q.24-.24.48-.66.06-.18.15-.27.09-.09.09-.03 0 .12-.12.42-.12.24-.06.57.06.33-.24.81-.3.36-.36.66l-.18.36q-.3.42-.18.96.06.12-.24.75t-.48.87q-.18.24-.18.36 0 .06-.12.3-.12.12-.18.39t.12.33q.3.12.6.12.36.06.6.18.3.12.84.18t1.56.36q.84.18 1.98.36 1.14.18 1.2.12.06-.06.06-4.2-.06-4.2.06-5.04.12-.96.12-3.75t-.12-3.39q-.06-.66 0-.78t-.03-.21q-.09-.09-.51-.33-.3-.18-.93-.69-.63-.51-.75-.63-.06-.12-.48-.36-.42-.3-.42-.42t-.3-.45q-.3-.33-.18-.42.12-.09.06-.21zm54.84.96q0-.06.96-.06 1.02.06 1.62.24.6.24 1.02.48.66.42 1.86 1.44 1.2 1.02 1.2 1.2 0 .06.18.24.12.24.27.72.15.48.09.66-.06.42-.42.6-.18.12-.72.54-.54.48-1.14.84l-.84.6q-.36.24-.72.42-.6.42-.6.78 0 .24.06.3t.18 0q.12-.06.42-.06t.39-.18q.09-.18.18-.18t.21-.12q.12-.12.42 0 .36.18 1.08.36 1.56.3 2.1.6.78.36.84.84.06.12.12.36.12.36-.18.66-.18.24-.75.36-.57.12-1.11.36l-1.62.66q-1.38.54-1.8.78-.42.24-.6.6-.42 1.02-.42 1.8 0 .18.24.24t1.74.06q2.28-.06 3.24.3 1.08.36 1.74.78.24.18.3.18t.18-1.02q.18-1.38.66-3 .36-1.26.24-1.32-.06-.06-.06-.24v-.18q.06 0 .6.24.78.36 1.38.36.18 0 .6-.51t.66-1.05q.42-1.02.78-3.51.36-2.49.18-3.63-.12-.9-.96-1.86-.54-.54-.72-.81-.18-.27-.3-.42-.12-.15-.09-.21t.18 0q.15.06.93.18 1.68.18 3.12.84 2.16.96 2.58 1.8.12.24.12.9 0 .78-.21 1.35-.21.57-.93 1.77l-.84 1.5q-.42.72-1.32 1.56-.9.9-.9 1.08 0 .12.69-.09t.81-.39q.18-.12.78-.24.3-.06 1.71-.78t2.25-1.2q.96-.6 1.2-.66.48-.12 1.14-.78.3-.3.3-.51 0-.21-.12-.39-.06-.18-.06-.21t.72.03q.96.06 2.16.66 1.92.9 3.66 2.28.48.42.6.63.12.21.12.69-.06.66-.6 1.26-.36.42-.36.66-.12.54-.6 1.44-.24.42-.24.57 0 .15-.18.39-.12.18-.24.48l-.36.9q-.3.66-1.08 3.3-.18.48-.3.96-.06.3-.3.96-.24.6-.66 1.02-.36.42-.54.48-.6.12-.36.18t.72.24q.72.3 1.62 1.14 1.14 1.08 1.74 2.22.96 1.92 0 3.9-.24.48-.24.6 0 .24 1.44 1.44 1.2.96 1.92 1.92.72 1.02.84 2.04.06.78-.21 1.5t-.63.78q-.18.06-.6-.12t-.96-.3q-.66-.18-1.56-.96-.48-.42-.54-.42-.12 0-.72.51t-.84.81q-.3.36-2.34 1.44-1.32.66-1.56.9t-.48.3q-.96.24-2.16-.3-.42-.18-1.14-1.08-.54-.66-1.08-.96-.18-.06-.24 0t-.3.6q-.48 1.02-.6 1.74 0 .36.15.9t.21.6q.24.24 1.2.54 1.44.42 4.8.72 1.8.18 4.38-.18t4.2-.96q.84-.3 1.02-.45.18-.15.36-.51.48-.9.72-2.16.3-1.44.24-3.99-.06-2.55-.48-4.29-.12-.72-.36-1.92-.54-3.42-1.44-6.24-.42-1.5-1.26-3.18-.42-.96-.39-.99.03-.03.33.57.36.66.54.9.18.3.18.39 0 .09.18.21t.3.12q.24 0 .36.48.06.3.24.48t.3.54q.12.3.3.6.18.24.36.6.42.78.78 2.04.12.48.36 1.08.24.66.36 1.2.06.48.12.6t.06.24q.06.06.24.6 1.02 1.86 1.44 3.24.12.3.3.6.48.66.48 1.05t.24.99q.06.12.06.24.06.24.18.48.06.3.06 1.56.06 1.26-.06 1.8-.12.6-.09 2.01.03 1.41.09 1.77.24.72-.12 1.44-.18.42-.66.78-.54.3-.6.3-.06 0-.18.12t-.42.18q-.42.18-1.08.48-2.64 1.14-4.68 1.32-3.18.42-5.34.24-1.26-.06-3.84-.48-3.3-.48-4.62-1.2-.96-.48-1.92-1.5-1.68-1.74-1.86-3.12-.24-1.74 1.26-4.14.3-.42.6-.96.9-1.74 1.32-2.16.12-.18.24-.42.12-.3.48-.78.66-1.14 1.92-3.96.9-1.92 1.02-2.49.12-.57-.18-1.17-.54-1.08-.84-1.14-.12 0-1.8.78-1.74.84-2.22 1.02l-1.38.54q0 .12 1.32.72 1.26.54 1.68 1.02.48.48.48 1.32 0 .42-.24.9-.24.48-.66 1.02-.54.6-.66.84-.12.3-.75.9-.63.6-.69.6-.12 0-.21.09t-.72.48q-.63.39-.69.39-.06 0-.24.12t-.42.18q-.3.06-1.08.42t-.9.42q-.18 0-.54.24-.36.18-.72.24-.42.12-.57.24-.15.12-.24.12t-.27.12q-.18.12-.3.12t-.66.3q-.48.24-1.02.42-.48.18-.69.45-.21.27-.51.87-.3.6-.24.72t.78.72q.78.78 1.08 1.26.3.48.36 1.32.06.54.12 2.46t.06 2.1q0 .12-.06.18-.18.18-1.5-.96-.84-.72-2.1-2.46l-.9-1.2q-.12-.18-.42 0-.6.3-1.2.72-.96.6-1.5.72-.18.06-.72.36-.66.3-2.82.78-1.26.24-1.44.18-.18-.06-1.8-.12-1.68-.06-2.19-.18t-.93-.54q-.42-.42-.12-.42.36 0 .18-.3-.06-.06.09-.06h.75q.96 0 1.44-.06 1.56-.24 2.46-.66.36-.18.99-.63t.78-.66q.15-.21.75-.69 1.38-1.08 1.56-1.32.12-.24.12-.3-.06-.18-1.14-.3-.54-.06-.96 0-.6.18-.96-.12-.24-.18-.48-.3-.18-.12-.36-.39t-.24-.27q-.12 0-.15-.36t.09-.42q.06-.06.06-.45t.15-.54q.15-.15.27-.15.3 0 .66-.78.48-.96.24-.84-.3.3-2.49 1.14-2.19.84-3.51 1.2-.6.12-1.32.06-1.08 0-1.86-.3-.48-.12-.78-.54-.9-1.5-1.26-2.52-.06-.3-.18-.42-.12-.18-.18-.48 0-.24.03-.24t.21.12q.3.24.42.24t.12.06q.06.06.93.42.87.36 1.17.42 2.52.54 8.16-.9 1.5-.36 1.68-.78.72-1.26.9-3.42 0-.36-.09-.45-.09-.09-.69-.33-1.56-.54-2.1-.9-.06 0 0-.03t.36-.03q.6-.06 1.8-.48.3-.12.87-.18.57-.06.63-.06 0-.06-.18-.24t-.3-.48q-.12-.24-.18-.24t-.06-.12q-.06-.12-1.08-1.05t-1.14-1.11q-.12-.18-.45.21t-1.17.99q-.84.6-1.2 1.02-1.26 1.08-3.48 1.08-.9 0-1.44-.24-.48-.18-.12-.3.18 0 .72-.24.66-.3 1.86-1.11 1.2-.81 1.5-1.11.48-.66.9-2.04.36-1.2.36-2.04 0-.42-.12-.51-.12-.09-.9-.09-1.44-.06-2.28-.48-.48-.24-1.56-1.32l-1.2-1.2q-.18-.18 0-.18.42.18 1.68.18 1.08-.06 1.68-.24 2.58-.78 7.02-2.94 1.56-.84 1.74-1.32.24-.6.42-2.1 0-.3-.03-.36t-.33-.06q-.24.06-.9.12-.6.06-2.61.03t-2.31-.09q-.48-.18-.84 0-.24.06-.3.03t.18-.24q.24-.21.42-.21.42-.12 1.38-.78.36-.18 5.64-3.66.54-.48.96-.96 1.08-1.26 1.08-1.56 0-.3-.9-1.2-.6-.72-.54-.78zM355.24 26q.06-.36-.12-.42-.24 0-1.8.54-1.08.42-1.2.54-.06.12-.06 1.56-.06 1.14-.03 1.32.03.18.27 0 .12-.18.42-.18.24-.06.45-.18.21-.12.81-.06.48 0 .57-.12.09-.12.39-1.38.3-1.14.3-1.62zm-9.12 1.08q-.24-.18-.3-.18-.18 0-1.08.9-.36.3-.39.45-.03.15.15.57.54 1.02.24 2.58-.12.72-.12.96t.03.27q.03.03.15.03.24-.06.78-.3t.9-.36q.42-.12.96-.36t.6-.42q.24-1.14.24-2.76 0-.3-.06-.42t-.42-.12q-.72-.06-1.32-.54-.12-.12-.36-.3zm-17.16 4.98q0-.48-.06-.48-.06-.06-1.02.54-1.08.6-1.08.84 0 .12.12.48.36.84.12 2.16-.3 1.2-.72 2.1-.12.24-.06.3t.66.06q.78 0 1.2.06.3 0 .36-.09t.06-.69l.3-4.08q.12-.78.12-1.2zm24.78-.06q0-.18-.6.06-1.02.36-1.14.72-.42 1.02-.66 3.06v.21q0 .03.12-.15t.21-.15q.09.03.42.09.33.06.42 0 .09-.06.27-.66.18-.6.48-1.5.48-1.5.48-1.68zm-19.92 1.38l-.48-.18-.3.06q-.24 0-.3.09t-.06.45q0 .36-.12.96-.12.96-.36 3.96-.24 2.88-.6 3.66-.06.18-.06.27 0 .09.33.69t.27 1.26q0 .66-.18 1.38-.24.72-.21.75.03.03.63-.27.6-.36 1.5-.78.84-.42.84-.48.24-.36.36-2.4.06-1.5-.48-2.4-.12-.24-.06-.3t.45.21q.39.27.87.45.96.48 1.44.96.72.72 1.08 1.68.12.48.12 1.32.06.84-.36 2.28-.12.36-.24 1.14-.36 2.1-1.14 4.02 0 .12.09.12t.42-.18q.33-.18 1.74-1.53t2.52-2.82q1.11-1.47 2.07-3.03 1.02-1.62 1.02-2.04 0-.18-.12-.3t-.36-.12q-.3.06-.48.18-.54.3-1.92.75t-1.68.45q-.48 0-1.44-.84-.42-.36-.69-.72-.27-.36-.33-.54-.06-.18.18-.18.12.06.81.12.69.06 1.89-.24 1.92-.6 1.92-.72 0-.06-.42-.84-.66-1.32-1.2-3-.3-.84-.42-.9-.06-.06-.54-.12-.54 0-1.23.21t-1.29.27q-.54.06-1.11.24-.57.18-.81.12-.24-.06-.42 0t-.45.06q-.27 0-.39.12-.3.36-.3.18 0-.06 1.08-1.2 1.44-1.56 1.38-1.68-.06-.06-.36-.06-.78 0-2.1-.54zm13.62 1.26q-.06-.18-.66.12-.42.18-1.32.48-.72.24-.84.36t-.12.6q0 .48.3 1.65t.42 1.17q.12 0 .96-.45t.9-.51q.12-.12.12-1.14.06-1.08.12-1.62.12-.48.12-.66zm6 3.84q-.24-.3-2.16.66-.6.3-.87.45-.27.15-.21.15 0 .06.96.36 3 1.02 3.54 2.22.18.3.12.96 0 .66-.18 1.2-.18.54-1.08 2.31-.9 1.77-1.14 2.19-.42 1.14-1.2 2.34-.24.42 0 .42.36 0 1.32-1.02.96-1.02 1.62-2.04 2.52-4.2 3.12-5.76.24-.72.27-1.23.03-.51-.27-1.05-.48-1.02-1.02-1.74-.24-.3-.48-.3-.72.12-1.47.09t-.87-.21zm-19.32 9.48q.24-.66.21-.78t-1.65.66q-1.32.66-1.56.87-.24.21-.48.93-.36 1.08-.9 1.74-.42.54-.81 1.2-.39.66-.33.78.06 0 .6.06 1.38.18 1.8.36.24.12.66-.54.54-.9 1.35-2.58.81-1.68 1.11-2.7zm24.42 1.2q-.18-.24-.24-.24t-.78.78q-.78.78-1.2 1.08-1.26.96-2.28 1.2-.36.06-.78.3-.42.24-.42.3 0 .3 1.74-.12 1.56-.42 3.18-1.2 1.26-.66 1.26-.9 0-.48-.48-1.2zm46.32-34.74l-.06-.12h.06q1.14.36 1.74.36 1.44 0 3.18.96l1.08.54q.36.18 1.02.66.6.54.72.72.12.18.24.66.18.6-.24 1.5-.18.48-.18 1.02 0 1.02-.48 3.9t-.48 2.94q.06 0 .48-.18 1.86-1.02 4.02-.72 2.76.42 3.48 1.56.12.3.42.72.24.48.42.54.3.18 0 .3-.3.18-.9.18-.66 0-.84.12-.18.18-1.14.48t-1.32.48q-.36.18-.66.24-.36.06-.78.24-.48.24-.96.36-.42.12-1.38.48-.84.36-.96.6-.72 1.8-.12 2.1.18.06.36 0 .12-.12.42-.12t.36.06q.06.12.72.12.72 0 1.26.24.84.42 1.5 1.38.36.48.9 2.22.18.54.42 1.08.54 1.2.54 1.32 0 .06.12.18t.12.18q0 .12.24.54.18.42.24.6.18.6 1.02 2.04.78 1.5 1.32 2.16.3.42 1.56 1.32 2.76 1.92 4.56 3.72 2.28 2.28 2.88 3.45.6 1.17 1.08 2.25l.3.6q.3.54.18.6-.12.06-.72-.24-.54-.24-1.14-.66-1.44-1.14-3.3-2.1-2.22-1.14-2.46-1.32-.3-.18-1.86-.66-.96-.3-1.68-.84-1.02-.78-1.32-1.44-.6-1.2-1.14-1.62-.42-.36-.6-1.02-.12-.36-.42-.96-.42-.72-.84-1.8-.6-1.38-.66-1.56-1.26-2.88-1.26-3.12 0-.12-.9-2.16l-.54-1.14q-.24-.6-.36-.78-.12-.12-.3-.06l-.24.12q-.24.12-.42.24l-.54.3v8.4q0 .78.06.9 0 .12 1.38.12 1.44 0 2.52.24 1.8.48 1.98.66l-.54.36q-.54.24-.66.36t-.42.24q-.36.18-.66.54-.3.42-.6.54-.42.18-.66.3-.36.24-.84.42-.36.18-.9.48-.36.24-.42.42t.06 6.48q-.12 1.14-.18 2.28 0 1.02-.18 1.38-.18.42-.18.54 0 .06-.18.24-.18.24-.18.54-.06.48-.3.48-.18 0-.48.84-.12.3-.24.54-.12.18-.54 0-.48-.12-1.08-.66-.66-.66-1.26-1.86-.36-.6-.54-.78-.18-.18-.12-.48.06-.36.06-.42v-.3q0-.18-.18-.18-.24 0-.24-.12 0-.06.24-.54.24-.42.36-.54.06-.06.12-1.08.36-4.08.36-4.14-.06 0-.42.24-.36.3-1.02.36-.72.06-1.86-.42-.96-.48-2.04-1.5-.9-.78-1.14-.9-.54-.3-.9.12-.72.78-2.04.96-.12 0-.54.12-.24.06-.96.12-.66 0-.96.12-.36.12-1.02 0t-.84-.3q-.12-.12-.18-.12-.12 0-.12-.06t-.18-.18q-.24-.12-.18-.24 0-.12-.3-.18-.24-.06-.18-.3 0-.18-.18-.24-.12 0-.12-.06h.24q.3 0 .9-.18 1.92-.96 2.31-1.14.39-.18 2.76-2.34 2.37-2.16 3.84-4.47 1.47-2.31 2.64-5.07 1.17-2.76 1.17-3 0-.18-.54.18-.36.24-.66.3-.3.12-.42.18-.18.12-1.32.36-2.34.48-6.3-3.3-.96-.84-1.02-.84-.12 0-.12-.12t-.3-.36q-.3-.18-.3-.3t.12 0q.18.12.9.36.66.3.84.3.18 0 .54.18 1.14.48 2.16.48.3 0 .66-.12 1.2-.3 3.3-1.26.48-.24.6-.24.18-.06.3-.18t.72-.36q1.74-.66 2.4-1.08.12-.06.06-.3-.06-.18 0-.24 0-.06.12-5.88t.18-6.6q.06-.84-.18-1.08-.84-.78-1.74-1.38zm1.44 35.04v-4.2q-.12 0-.66.96-.3.42-.72.9-.48.48-.72.84-1.14 1.56-1.98 2.22-.6.48-.6.54 0 .06.3.18t.42.12q.12 0 1.38-.48 1.26-.42 1.86-.72l.72-.36zm-17.28-31.38q0-.12.3.06.24.24.3.24t1.14 1.02q1.02 1.02 1.32 1.2.24.18.84.78.6.6.84.9.12.18.66.84.48.6.78 1.14.3.54.06 2.46-.24 1.56-.6 2.34 0 .06-.06.18-.12.18-.12.24-.48 1.14-.72 1.44-.18.24-.48.96-.3.66-.36.66-.06.06-.12.6-.06.42-.3 1.14-.18.78-.54 2.7-.24 1.44-.36 1.86l-.84 11.46q-.18 7.02-.3 7.5-.06.3-.18.84-.06.54-.18.72-.18.18-.24.54-.36 1.2-.36 2.64 0 .36-.06.48t-.12 0q-.06-.12-.12-.06t-.06.24l-.06.18-.06-.12-.48-1.02q-1.5-3.36-1.92-6.18-.12-.72-.18-2.52 0-11.46-.06-11.46-.12 0-.48.42-.36.36-.48.36t-.3.24q-.66.6-1.92 1.5-1.32.9-2.16 1.38-.54.24-.66.36-.12.06-.54.24-.48.24-.54.24-.06 0-.9.42-1.5.72-1.86.36-.18-.12-.66-.12-.66 0-.72-.06-.12 0-.12-.18 0-.24-.24-.3l-.18-.06h.24q.54-.06 2.46-1.32 2.04-1.32 3.42-2.64.54-.54 2.1-2.28 1.5-1.74 1.98-2.46 3.24-4.26 5.34-9.78 1.26-3.36 1.26-4.8 0-.54-.48-1.62-.42-1.02-.72-1.5-1.2-1.98-1.2-2.4z"/></svg>