<svg viewBox="0 0 300 80" xmlns="http://www.w3.org/2000/svg"><path d="M59.24 23.3h-7.38q-2.1 16.2-10.08 25.98 7.14 7.68 18.78 14.7l-2.22 2.4q-11.58-6.36-19.26-14.1-8.82 9.06-21.66 14.04l-1.74-2.52q13.08-6.06 20.64-14.52-.72-.78-1.38-1.62Q26.9 37.64 24.02 23.3h-7.2v-3.06h20.16q-1.26-4.08-3.24-8.22l4.86-.78q1.14 4.62 1.8 9h18.84v3.06zM38.96 46.04q6.72-9.3 8.1-22.74H28.94q2.34 12.6 9.36 21.9.3.42.66.84zM95 13.76h2.28v23.22H74.84V13.76H95zm-2.28 20.52v-4.32H79.4v4.32h13.32zM79.4 23.36v4.14h13.32v-4.14H79.4zm0-6.9v4.44h13.32v-4.44H79.4zm1.5 25.2h2.28V66.8h-4.62V53.06h-5.1q-.12 9.54-7.8 13.98L63.38 65q5.4-4.08 5.46-11.94H64.1v-2.88h14.46v-5.7H66.38V17.6H71v24.06h9.9zM93.44 66.8h-4.62V41.66h12.36V17.6h4.62v26.88H93.44v6.36h13.02v15.6h-4.62v-12.6h-8.4V66.8zm21.3-.12l-2.58-1.74q12.6-12.78 12.6-38.04v-3.48h-11.94v-3h20.4q-1.2-4.02-3.12-8.1l4.8-.72q1.14 4.56 1.74 8.82h19.02v3h-26.04v3.48q0 4.44-.42 8.4h21.12q0 6.96-.24 12.84-.24 5.94-.9 9.84-.6 3.84-2.4 5.7-1.8 1.86-5.52 2.1-3.66.18-7.8-.36l-.6-3.36q3.48.48 6.78.36 2.52-.06 3.6-1.62t1.5-4.92q.3-3.3.48-8.04.12-3.78.24-9.54h-16.62q-2.58 18.6-14.1 28.38zm48.18-20.28l4.2 1.38q-2.4 6.84-5.34 12.24l-2.58-1.08q2.34-5.82 3.72-12.54zm13.2 1.68l3.72-1.74q1.92 5.64 2.82 10.74l-2.64 1.08q-1.44-4.86-3.9-10.08zm8.7-27.6v-1.44q9.18-1.92 16.92-4.92l1.74 3.96q-6.24 1.92-13.98 3.18v9.96h15.06v3h-4.74v32.1h-4.62v-32.1h-5.7v2.82q0 17.58-6.78 29.64l-2.52-1.74q4.62-11.16 4.62-27.9V20.48zm-24.42.84v-2.94h9.96q-1.02-3.06-2.58-6.18l4.8-.66q.72 3.48 1.02 6.84h9.12v2.94h-2.88l-3 9.3h6.36v2.94h-9v7.14h8.16v2.94h-8.16v18q0 2.28-1.26 3.3-1.32 1.02-4.44 1.02-2.52 0-4.62-.36l-.66-3.36q2.16.36 4.02.36 1.26 0 1.74-.54.48-.48.48-1.74V43.64h-8.94V40.7h8.94v-7.14h-9.54v-2.94h6.6l-3.18-9.3h-2.94zm14.94 0h-7.38l1.62 9.3h4.2l1.56-9.3zm54.18 45.36h-4.92V41.3h-15.78v-3h15.78V24.38h-12.96v-3h12.96v-9.96h4.92v9.96h14.22q-3.18-2.88-6.78-5.58l3.6-2.94q5.82 5.64 10.44 11.52l-2.28 1.8q-2.22-2.34-4.74-4.62v1.86L241.7 38.3h6.6q0 4.56-.24 8.82-.24 4.2-.84 6.96-.6 2.82-2.1 4.02-1.5 1.26-4.32 1.44-3.06.12-6.66-.36l-.6-3.36q2.94.48 5.64.42 1.92-.06 2.7-1.26.84-1.2 1.08-3.54.3-2.4.42-5.52.06-2.1.12-4.62h-13.98v25.38zm9.6-42.3h-9.6V38.3h7.62l1.98-13.92z"/></svg>