<svg viewBox="0 0 448 80" xmlns="http://www.w3.org/2000/svg"><path d="M46.08 30.68v.12q.66 4.2-3.3 13.5-.24.48-.42 1.02 6.18 2.64 10.26 6.06 7.5 6.48 7.86 7.5.36 1.02.78 1.5 1.26 1.32.72 2.88-.6 1.44-1.8.96-.78-.24-1.92-.42-1.14-.12-1.74-.6-.48-.36-.48-1.14-.06-.84.36-.9 1.26-.18 1.56-.12.78-.06-7.44-6.9-4.14-3.42-9.48-6.18-3.6 6.48-8.82 10.14-6.72 4.5-11.34 4.26-1.32.18-2.22-.72-2.4-1.5-3.48-3.9-.24-1.02.48-1.14.72-.12.9.3 1.74 2.52 3.18 2.7 1.2.54 4.8-.6 3.54-1.14 7.98-5.04 3.06-2.88 5.7-7.38-4.38-1.98-9.48-3.54-.72-.24-.24-1.26.42-.96 1.44-.66 5.28 1.32 9.6 3.06.3-.72.66-1.32 3.18-7.2 2.58-10.56-.06-.36.18-.78-1.8.6-4.02 1.38-6.12 2.04-11.22 4.2-5.22 2.16-7.14 1.92-1.44-.18-.69-1.77t2.07-1.41q.72.18 8.94-3.15 8.22-3.33 12.99-4.74 4.77-1.41 7.95-1.47 3.18-.06 4.2.12.96.12 1.2 1.71.24 1.59-.03 2.22-.27.63-1.23.33-1.02-.3-3.18-.66-2.16-.42-4.98.12-.78.12-1.74.36zm-11.52-15.3q.06-1.14 1.2-1.38 4.98-.3 8.82 3.06 1.92 1.8.84 3.9-2.7 2.82-7.92 5.4-1.5.78-1.92-.12-.42-.84.6-1.5 3.6-2.4 4.8-3.6 1.2-1.2 1.26-1.62-.84-2.1-6.6-2.88-1.08-.18-1.08-1.26zm61.62 31.2q-.3 7.62-.42 11.22-.18 3.54-.36 4.62-.18.96.15 2.1.33 1.14-.09 1.32-.84.54-1.68.36-.84-.24-1.14-1.5-.24-.72-.12-2.16.12-1.44-.66-2.34-.84-.9.06-.9.78 0 .96-6.3-.48.18-.72.48-.48.6-.9.18-.42-.42-2.76.18-.72.12-1.44.42.06 1.02-.42 2.43-.48 1.41-1.74 3.39-1.38 1.98-3.72 3.9-2.4 1.92-3.48 1.86-2.04-.06-2.01-1.14.03-1.08 1.65-1.14.48-.06 2.04-1.2 1.44-1.26 2.58-2.88 1.08-1.68 1.38-2.82.18-.78.24-1.08-.12 0-.24.06-2.82 1.08-4.38 1.44-1.62.3-2.28.36-.84 0-.9-1.26-.06-1.26.24-1.56.36-.36 1.14-.42.66 0 2.73-.51t4.95-1.65q2.88-1.2 5.64-1.86 1.5-.48 2.52-.6 0-4.32-.18-4.44-.36-.24-5.82 1.62-5.46 1.8-6.24 1.8-.72-.06-.96-.42-.12-.12-.12-.18-.66-.84.6-1.92.48-.42 1.02-2.82.6-2.4.39-4.92-.21-2.52-.75-3.84-.6-1.32-1.02-1.8-.6-.6-.48-1.62t.93-1.56q.81-.54 1.59.24.9.96 1.56 2.67t.9 4.56q.24 2.85-.6 6.33-.3 1.26-.6 2.1 1.74-.66 4.92-1.8 6.54-2.28 7.02-2.22.48 0 .6.48.6 1.38.42 4.74zM109.5 23.9q-.36 8.88-.78 12.72-.18 1.62-1.11 2.31-.93.69-2.04.63-1.11-.06-1.05-1.11.06-1.05.66-1.47.48-.42.54-1.14 0-.42.06-1.02-8.04 3.48-9.84 3.9-1.8.42-2.82.3-1.98-.3-2.34-.96-.24-.48.06-1.02-.42.06-.6 0-.66-.24-.6-2.34.18-6 .39-9.42.21-3.42.09-4.59t-.27-1.62q-.15-.45-.33-.93-.18-.48.42-.96.48-.48 1.5-.42 1.02 0 1.35.63.33.63.39 1.47.12 1.68.18 3.24 1.08-.36 3.3-1.14 3.48-1.32 5.7-1.38 1.08-.18 1.05.51-.03.69.33 1.23t-.42 1.02q-.54.36-1.32 1.23t-3.24 2.85q-2.46 1.92-2.4 2.16.06.18 2.1-.66 2.04-.84 3.42-1.08 1.92-.12 2.7.66.72.78-.6 1.98-.9.78-3.3 2.04t-3.09.78q-.69-.48.81-1.68.12-.18-2.13.51t-2.55.75q-.54.06-.9 0-.06 1.62.06 2.16.18.9-.24 1.68.12 0 .42.06.78.18 2.34-.06 1.62-.24 8.94-2.7.84-.42 1.2-.9.18-.3.42-.36.06-2.04.12-4.62.06-5.7.12-8.58t-1.02-3.24q-1.02-.36-4.2.51t-6.36 2.37q-1.38.54-1.38-1.2-.06-1.8.66-1.98 4.86-1.8 7.2-2.37 2.34-.57 4.98-.33 1.62.18 3.12 1.98.66.78.3 9.6zm-16.26 1.2v.12q-.18 2.04-.24 3.72.72-.6 2.88-2.46 2.76-2.46 2.61-2.7-.15-.24-1.98.39t-2.19.69q-.36.06-.54.12-.3.06-.54.12zm8.88 39.6q1.02-7.08 1.2-12.24.18-5.16-.78-9.36-.24-.9.36-1.2.6-.36 1.86-.06.78.18 1.08.9.06-.06.18-.06 3.84-1.5 5.28-1.98.84-.3 1.5-.54.3-.54.9-1.38 1.26-1.86 1.86-4.14.6-2.28.54-3.63-.06-1.35-.36-1.89-.36-.72.09-1.65.45-.93 1.47-1.17.9-.24 1.38.78.54 1.14.54 2.85 0 1.71-.66 4.35-.72 2.58-2.52 5.46-.18.18-.24.36.12.48-.06 1.32-.42 1.68-1.5 1.8-1.44.18-3.3.84-1.86.66-4.68 1.74-.12 0-.12.06.06 1.98.06 4.2 2.76-1.2 3.21-1.2.45 0 6.69-1.86 1.26-.3 2.58 1.35 1.32 1.65.96 3.51-.24 3.54-.6 7.68-.42 4.14-.9 5.4-.6 1.38-1.71 1.5-1.11.12-1.35-.66t-.75-1.11q-.51-.33-.27-1.23.24-.9.66-.84.42.06.78-.48.24-.3.48-5.7t-.18-5.7q-.24-.12-2.76.48-2.52.6-2.97.54-.45-.06-2.25.48-.96.3-1.68.42-.24 5.16-1.02 11.52-.12 1.14-1.2 1.83-1.08.69-1.53.24-.45-.45-.27-1.53zm55.5-13.62q.24-9.06.6-14.22t.18-6.9q-.18-1.74-.42-2.46-.12-.42-.24-.96t.36-.9q.54-.48 1.56-.42.24 0 .54.06.18-.24.48-.48 1.56-1.32 4.65-2.97 3.09-1.65 4.59-1.89 1.62-.06 3.84 1.56 1.56 1.56 2.28 3.33.72 1.77.21 9.3-.51 7.53-.57 10.8-.06 3.27-.78 7.41 2.64-.24 4.44-.12 3.06.12 7.08 1.44.96.42.96.96t-.96 1.26q-1.08.78-2.07.96-.99.18-1.86-.42-.87-.6-2.31-.84-1.5-.36-4.8-.24-3.18.06-9.33.93-6.15.87-7.83 1.14-1.68.27-4.14.51-2.52.18-3.84-.06-1.68-.36-1.68-1.23t.42-1.47q.42-.72 1.2-.96t1.26.36q.48.54 1.2.54 1.32-.18 3.24-.3 1.92-.12 5.58-.84t9.24-1.26q.6-.12 1.2-.12.9-7.08.9-11.58.06-4.62.24-8.52.12-3.96-.3-5.88-.54-1.98-2.28-3.18-.96-.24-3.9 1.38-2.76 1.44-5.1 3.42l.12 4.98q1.02-.42 2.76-1.08 3.48-1.44 5.7-1.56 1.02-.24 1.02.42 0 .66.39 1.17.39.51-.39.99-.66.54-1.44 1.86-.9 1.26-3.78 4.38-2.94 3.12-2.82 3.36.06.18 2.22-.96 2.04-1.08 3.42-1.38 1.92-.36 2.76.36.84.72-.42 2.04-.72.84-3 2.34-2.28 1.5-3.06 1.08-.78-.42.6-1.74.12-.24-2.22.78-1.92.72-2.46.9-.24 3.36 0 4.32.3 1.32-.84 2.25-1.14.93-1.83.72-.69-.21-.57-2.37zm3.84-14.16q-.18 2.46-.3 4.8.9-1.02 2.34-2.76 3.18-3.72 2.97-3.99-.21-.27-2.07.39-1.92.6-2.28.72-.36.06-.54.12-.12 0-.12.06v.66zm-14.28-.9q-.42 4.2-.42 7.92 3.36-3 5.94-5.7.48-.9 1.26-.39t.06 1.59q-2.52 3.72-5.28 6.42-1.08.96-2.04 1.86 0 .48.06 1.08.18 6.24-.09 7.68-.27 1.44-.12 2.76.15 1.32.03 1.68-.18.42 0 1.2.24 1.14-.21 1.83-.45.69-1.71.09-1.86-.72-1.5-2.28.36-1.56.18-3.48-.18-1.68.12-3.24.24-1.2.3-4.86-2.22 1.74-3.42 2.52-2.4 1.44-4.8 2.1-.84.3-1.56.96-.72.54-1.32.21-.6-.33-.96-1.17-.36-.84.15-1.5t1.05-1.5q.78-1.5 4.08-6.42 2.16-3.36 4.56-6.6-3.18 1.56-5.22 2.28-2.88.96-4.32 1.08-.72.06-1.11-.93-.39-.99-.21-1.5.18-.51 1.02-.51 1.02 0 4.62-1.26 1.8-.72 4.26-1.86 2.28-2.04 4.14-3.66l.36-5.4q-2.16 2.4-3.3 3.18-1.62.96-3.06 0-2.94-1.8-2.94-5.46 0-1.8 1.38-2.25 1.38-.45 1.32.69 0 3.72 1.38 3.96.78.12 5.34-4.26 0-5.58-.06-5.76-.24-.3-.9-.6-.72-.3-.66-.72.06-.42.36-.78 1.08-1.32 1.98-.66.96.6 1.44 1.26.42.48.54 4.2 1.14-1.26 1.68-1.38 3.84-1.08 5.1 1.14 1.68 2.88-1.26 7.32-1.44 1.98-4.26 4.8 1.68-.78 2.7-.9 1.38-.12 1.77.84.39.96-.03 1.44-1.02 1.26-3.12 1.74-1.2.24-3.3 1.2zM143.7 46.7q-.12-3.12.12-6-3.24 3.96-4.68 6.54-2.04 3.3-1.74 3.54.18.24 2.76-1.38 1.5-1.02 3.54-2.7zm4.26-23.46q-.12 2.64-.24 6.18 1.38-1.56 2.1-2.64 2.04-3.18 1.68-4.56-.36-1.38-1.02-1.38-.84.06-2.52 2.4zM243.6 23q-.18 15.06.54 24.42.78 9.3.3 12.3-.54 3.06-1.32 3.96-1.74 1.98-2.82 1.89-1.08-.09-2.22-.87-5.82-4.38-7.74-7.32-.84-1.44-.15-2.13t1.35-.03q2.34 2.28 5.16 4.44 2.76 2.22 3.6 1.92.9-.48 1.17-4.05.27-3.57-.42-11.25t-.75-22.8q.06-1.44-.36-2.28-.48-.72-1.56-1.5-.18-.12-.3-.18-2.22 0-6.54 1.02-4.38 1.02-5.76 1.5t-2.34.42q-1.08 6.6-1.92 18.3-.24 2.52-.36 4.74.12.06.3.24.48 1.08 1.56 1.86 1.08.66 2.04.54 1.14-.36 2.25-1.71t2.97-5.61q.06-.36.24-.66-.54-.48-1.08-.78-1.86-1.14-3.54-1.62-.78-.12-1.44-.9-.72-.78-.54-1.56.18-.78 1.14-.78 1.86.24 4.02 1.2 1.08.48 2.52 1.44.78-2.34 1.2-4.68.72-4.2.36-4.32-.42-.36-.36-1.56.12-1.2 1.2-1.5 1.08-.3 2.34 1.02.36.36-.18 4.32-.48 3.36-2.28 8.22.42.3.9.66 3.54 2.58 3.84 3.36.48.96.24 2.34-.24 1.26-1.29 1.38-1.05.12-1.41-.66-.36-.9-2.58-3-.54-.48-.9-.9-2.16 4.74-3.42 6.36-1.44 1.68-3.12 2.16-2.28.36-3.9-.66-.72-.48-1.26-1.08-.48 7.62-.3 10.68.06 1.44-.66 1.44-.84 0-1.65.24-.81.24-.75-.48-.06-1.02-.18-2.1-.18-1.08.54-11.88t1.62-17.16q.9-6.36 1.86-10.8.3-1.08 1.05-1.11.75-.03 1.17.63.18.3.3.78.48-.18 1.2-.3 1.56-.36 5.37-1.41 3.81-1.05 6.09-1.11 2.58.24 4.32 1.32 1.56.84 2.19 2.07.63 1.23.45 3.57zm-29.88 17.1q-.6 0-5.88 2.46-.6.24-1.8.84-.18 1.02-.3 2.16-.9 5.76-.84 7.56 0 1.68.18 1.71.18.03 1.62-1.17 1.38-1.08 3.42-3.51 2.04-2.43 3.48-5.73.42-1.02.96-.54.54.42.36 1.74-.42 2.7-2.88 6.3-2.52 3.66-6.06 6.66-3.42 2.88-3.78-1.56-.3-4.08.6-9.84.18-1.32.36-2.34-.18 0-.3.12-3.78 1.86-5.58 2.1-1.56.18-2.28-.06-.78-.3-.96-1.8-.3-1.92.69-1.77.99.15 1.77.09 1.8-.12 5.22-1.5 1.02-.48 1.92-.9.12-.78.12-1.26 0-1.62-.3-2.04-.54-.78.75-1.95t1.65-.69q.78 1.02.78 2.76 0 .6-.12 1.98.3-.18.66-.3 3.36-1.86 3.66-2.04.3-.36-.06-.9-.36-.6-.09-1.05.27-.45.99-.21 2.16.72 2.76.84 1.08.24.54 1.35t-.48 1.71q.06.6-.78.78zm-21-4.2q3.78-3.84 6.42-6.84 2.7-3.06 4.5-5.91 1.8-2.85 2.1-4.59.24-1.32-.12-1.95-.36-.63-.18-1.35.18-.66.96-.96.72-.3 1.68.3t.84 3.06q-.18 1.56-1.26 4.08 1.02-.42 2.46-.96 1.8-.66 3.48-1.14 1.68-.48 2.4-.54.84-.06 1.08.84.24.78-.12 1.44-.36.66-1.32.9-.78.18-1.08.6-.36.3-.6.06t-1.68.12q-1.44.36-3.18 1.08-1.74.72-2.76.9-.48.06-.78.18-1.5 2.04-3.84 4.8-.72.66-1.32 1.5h.12q.96-.06 4.74-1.56 3.66-1.5 5.34-1.8 1.02-.12 1.32.3.24.54.72 1.17.48.63-.18 1.23-1.68 1.62-2.88 2.52-1.32.96-2.37 1.53-1.05.57-.99-.33 0-.84.9-1.5.78-.72.78-.96-.06-.18-1.35.21t-3.63 1.35q-2.34.96-3.66.96-.78 0-1.14-.54-2.28 2.46-4.38 4.74-.72.72-1.68 1.02-1.02.24-1.38-.18-.36-.42 0-1.2.3-.78 2.04-2.58zm92.76 12.66q-5.76 2.04-9.9 3.72 0 .42.06.9.36 3.72 1.86 6 .3.9 1.77 1.53t5.31.81q3.84.12 8.46-.21 4.62-.33 5.64-.69.84-1.02.45-5.25-.39-4.23-1.65-7.65-.36-1.08.18-1.32.48-.3 1.44 1.14 2.28 3.24 3.12 7.32.72 3.96.72 5.34-.3 1.68-3.24 3.72-1.56.48-6.69.78-5.13.3-9.33 0-4.26-.3-6.21-1.23-1.95-.93-2.37-2.13-2.28-3.3-2.46-7.08-.06-.42-.06-.84-1.38.54-2.4 1.02-5.1 2.1-8.4 2.52-3.3.36-5.22-.24-.96-.3-.06-1.8.9-1.5 1.62-1.32 1.92.36 4.98-.12 3.12-.48 7.44-2.4.96-.42 2.16-.84.06-2.7.72-6.24-.96.36-2.04.9-4.02 1.86-6.36 1.92-.9.06-1.32-.78-.48-.78 0-1.65.48-.87 1.08-.69.6.18 2.1-.06 1.38-.18 7.08-2.7.66-3.24 1.62-5.46-4.32 1.68-9.84 4.08-.48.3-.96-.12t-.96-.48q-.48-.06-.24-.66.18-.6.96-1.02 1.38-.84 4.62-2.31 3.24-1.47 6.72-2.79 3.48-1.32 3.54-2.04-.06-1.86 1.23-1.86t2.25.9q.96.96.6 2.28-.3.96-4.38 2.64-1.26 2.28-1.98 5.46 3.36-1.44 5.28-1.86 1.02-.24 1.26.3.3.42.84 1.02.54.6-.12 1.32-1.5 1.68-2.7 2.67-1.2.99-2.16 1.65-1.08.6-1.08-.24-.06-.9.78-1.56.84-.78.78-1.02-.12-.36-2.34.42-.6.18-1.2.48-.12.18-.12.54-.6 3.12-.66 5.7 3.48-1.32 8.22-3.06.96-.18.84-.9t.63-1.02q.75-.3 2.1-.06t2.97.3q1.2.06.84.9-.42.78-.3 1.62.06.84-.96.84-1.08-.06-4.56.96zm-5.04-28.2q-3.06 3.3-5.55 4.89-2.49 1.59-3.33 1.41-.96-.18-1.89-1.23-.93-1.05-1.89-1.35-.66-.3-1.32.48-.72.72-2.16 2.04-1.44 1.32-2.34 1.8-.66.36-1.2.18-.48-.24-.72-1.14-.36-.96.42-1.56 2.7-1.8 4.26-3.96 1.5-2.22 1.74-3.96.06-.72.96-1.08.78-.42 1.56 0t.84 1.08q-.06.54-.78 1.92t-.18 1.56q1.5.3 2.22 1.14.66.72 1.2.72.9.06 2.7-1.02 1.8-1.2 3.84-3.12 2.04-1.98 3.51-3.03 1.47-1.05 2.85-1.11.96-.12 1.5-.3.48-.24 1.11.06.63.3 1.41 1.08 1.02 1.14.24 2.4-.84 1.32-.72 1.56.12.36 2.82.18 2.64-.18 4.38.36 1.74.54 1.68 1.44-.06.84-.9 1.08-.9.3-3.54 1.8t-9.18 3.12q-1.2.3-1.32-.48-.18-.72.36-.96 3.12-1.02 4.53-1.77 1.41-.75 2.07-1.11.6-.3.96-.54.36-.24.36-.6-.06-.18-.81-.24t-1.95.24q-1.2.3-2.31.33-1.11.03-1.38-.69-.27-.72.57-1.47t1.41-1.8q.57-1.05.27-1.53-.3-.36-.78-.54-.54-.18-.78-.12-1.68.48-4.74 3.84zm31.02 25.98q13.8-11.52 15.96-14.76 2.1-3.3 1.68-3.66-.3-.3-1.53.03-1.23.33-4.89 2.13-.36.12-.66.06-.42.36-.72.6-1.5 1.14-2.28.96-.84-.12-.96-.63t1.14-1.59q2.1-1.98 4.74-5.34 2.64-3.42 3.06-4.44.36-1.08 0-2.46-.24-.78.36-1.56.48-.66 1.74-.18 1.26.48 1.44 1.32.42 1.5-.15 2.85t-3.63 5.31q-.3.24-.48.54 1.02-.42 1.68-.6 1.92-.54 2.34-.54 2.46.3 2.46 3.54 0 1.56-3.36 6.12-1.32 1.68-3.9 4.08.36.6.66 1.8.12.6-.06 3.06t-.21 5.13q-.03 2.67-.21 4.95-.18 2.16-.06 2.61.12.45.18 1.35.06 1.92-.75 1.92t-1.05.6q-.24.6-.72.36t-.66-2.22q-.12-1.32.06-3.12.12-1.8.12-4.14.06-2.4.42-5.34.3-3 .24-3.48-.18-.9-1.08-.78h-.12q-3.84 3-9.3 6.84-1.5.96-2.1.3-.6-.66.6-1.62zm27.06-25.08q.6-.72 1.17-.51.57.21 1.83.15 1.26-.06 6.6-1.74t7.68-1.98q1.02-.12 1.26.42t.69 1.17q.45.63-.27 1.29-1.74 1.44-3.03 2.31-1.29.87-2.37 1.35-1.08.48-1.02-.33.06-.81 1.02-1.47.84-.66.78-.9-.06-.3-2.04.15-1.98.45-5.61 1.65-3.63 1.2-5.67 1.02-.9-.06-1.23-.9-.33-.84.21-1.68zm.66 11.88q3.72-1.5 8.82-2.67t7.74-1.35q2.64-.24 3.36-.06.6.18 1.44.18.84.06 1.62.33.78.27 1.56.27t1.02.42q.24.42-.3 1.02-.3.42-.48 1.11-.18.69-1.26.42-1.08-.27-2.37.24t-1.95-.27q-.18-.24-.96-.3-.66-.06-2.94.24.36 1.26.24 5.64-.18 5.04.06 7.92t.06 5.52q-.18 2.58.12 5.13t-.96 8.31q-.24.66-.99 1.29t-2.13.39q-2.16-.6-3.9-1.38-1.74-.78-3.75-2.07-2.01-1.29-2.85-2.49-.6-.78-.21-1.23.39-.45 1.29.09 2.88 1.74 5.76 2.82 2.82.96 3.54.6.6-.42.84-2.61t.09-3.93q-.15-1.74.03-4.38.18-2.64 0-5.58-.24-2.94.03-7.29t-.33-5.91q-.12-.24-.12-.36-3.3.42-6.96 1.56-4.5 1.26-7.14 2.46-2.7 1.14-3.42 1.2-1.44.12-2.46 0t-.96-1.8q.06-1.08.45-1.44.39-.36 1.11-.06.72.24 2.22-.18 1.26-.36 5.04-1.8zM401.4 26q-1.38.48-3.33 1.08-1.95.6-2.43.48-.18-.06-.24-.06-.54 5.04-.48 5.88.06 1.02.39 1.23.33.21 1.68-.48 1.35-.69 2.79-2.04t1.98-2.49q.3-1.02.96-1.02.6-.06.54 1.5 0 .9-.72 2.55t-3.24 3.87q-2.58 2.22-3.54 2.46-1.56.54-2.4-.3-.84-.84-.84-1.8 0-.96-.3-2.82-.42-1.86.45-8.04.87-6.18.81-7.14-.12-.84-.36-1.14-1.2-1.02-.54-2.1.6-1.2 1.26-1.2.6-.06 1.44.84.84.78 1.02 1.92.12 1.02-.54 7.14.42 0 2.52-.66t2.16-.78l-.3-.66q-.36-.72-.3-1.62-.12-.6.21-.78.33-.18.69.42.6.72 1.44 1.08.84.3 1.2.72.96.66.9 1.89-.06 1.23-1.14 1.47-.36.18-1.74.6zm15.12-2.88q-1.74 1.68-4.68 2.58-2.4.66-3.48.66-.48 4.74 1.62 6.66 1.2 1.26 4.8 1.5 3.54.18 5.52.06 1.92-.18 2.88-1.2.12-.18.18-.78.06-.6-.18-1.56-.84-1.68-.36-1.98.36-.3 1.02.36 1.38 1.08 2.04 1.92.66.9.96 1.74-.12 2.46-2.88 3.96-3.6 1.2-8.16.93-4.56-.27-6.18-1.41-3-1.62-3.84-3.9-.78-2.4.12-10.38t.42-9.06q-.42-.78.57-1.65.99-.87 2.07-.21 1.26.78.78 4.56-.36 2.7-.84 6.84-.18.72.6.84.3.06 1.86-.36t2.76-1.5q1.2-1.08 1.41-1.83.21-.75.09-1.29-.42-1.02.15-1.86.57-.84 1.56-.81.99.03 1.29 1.11.48 1.32.06 2.88-.36 1.44-2.16 3.18zm-20.16 38.4q-.24-5.82-.24-9.18-.06-3.36-.24-4.44-.24-1.14-.42-1.56-.18-.42-.33-.9-.15-.48.27-.96.54-.54 1.53-.6.99-.06 1.41.54.06.12.18.3.54-.48 1.26-.72.9-.96 2.04-2.4 1.14-1.62 1.32-2.16.18-.54 0-1.2-.24-.72.36-1.44.6-.78 1.83-.24t1.44 1.38q.21.84-.09 1.56-.36.6-1.5 2.22.3-.18.66-.24 3.66-1.02 5.43-.78 1.77.24 3.57 2.52.66.96.84 2.01.18 1.05.3 2.7.12 1.65.18 3.15t0 4.92q-.06 3.42-.45 6.33t-.63 3.21q-.24.48-.99.69-.75.21-2.43-.45-1.2-.3-1.62-.84-.54-.66-.78-1.08-4.92 1.14-11.28.3-.54-.24-.84-.42-.48-.42-.42-.42.06.18.18.24l.06.06q0 .06.18.12-.66-.66-.66-1.26-.12-.36-.12-.96zm16.5-4.68q.18-2.88-.06-7.23-.24-4.35-1.08-5.31-.42-.42-1.65-.36t-4.29.96q-3 .84-6.66 2.82.18 1.56.24 3.3 5.1-1.68 7.14-1.56 2.1.06 2.58.78 1.08 1.5.78 2.94-.6 1.38-5.07 4.53-4.47 3.15-4.23 3.69.24.3 2.94.3 2.7-.06 5.76-1.08.72-.3 1.35.06.63.36.39 1.62-.12.42-.24.72 1.2.18 1.44 0 .24-.06.42-1.65.18-1.59.24-4.53zm-13.44-2.76v3.48q0 .84.06 1.38 1.56-1.56 3.6-3.06 4.08-2.82 3.48-3.48-.24-.42-3.18.42-2.64.6-3.96 1.26zm-14.16-18.54q-.48 4.32-.54 8.04.3-.36.6-.6 2.7-2.28 4.74-4.56.54-.84 1.32-.33t.06 1.53q-1.8 2.94-3.84 5.1-1.68 1.44-2.94 2.7-.06.06 0 .18.06 5.88-.24 7.23-.3 1.35-.18 2.67.12 1.2 0 1.62-.12.42 0 1.2.24 1.02-.21 1.74-.45.72-1.77.12-1.8-.78-1.41-2.37.39-1.59.21-3.45-.12-1.56.24-3.06.12-.9.24-3.18-.96.66-1.56 1.14-2.22 1.44-4.38 2.1-.9.36-1.56 1.14-.72.72-1.38.42-.72-.36-1.2-1.2-.42-.84.06-1.62.48-.78 1.08-1.62.6-1.74 3.72-7.2 3-5.16 6.3-10.2.12-.84.18-1.8-2.34.84-3.72 1.5-2.22.9-3.66 1.08-1.44.18-2.34-.06-.96-.3-.12-1.8t1.62-1.32q.66.06 1.86-.06 1.2-.24 2.82-1.02 1.26-.6 3.84-1.56.12-2.16.24-4.5.24-6 .12-6.18-.24-.3-.84-.66-.72-.3-.66-.72.06-.42.36-.72 1.08-1.32 1.98-.66.96.6 1.44 1.26t.48 5.52q-.06 1.8-.12 4.08.66-.18 1.68 0 1.32.24 2.94.24 1.2 0 .84.81t-.24 1.62q.12.81-.96.81-1.08.06-4.5 1.2-.12 0-.12.06-.18 1.14-.24 2.64l.06.06q.84.9 0 2.1-.24.24-.3.54zm-3.66 10.68q0-2.94.18-5.64-1.8 2.64-2.82 4.68-1.86 3.66-1.5 3.96.12.18 2.34-1.32.78-.6 1.8-1.38v-.3z"/></svg>