<svg viewBox="0 0 324 80" xmlns="http://www.w3.org/2000/svg"><path d="M40.62 46.82q-1.32 3.12-2.64 6.12l.36.84q.36.18 1.14.42 12.24 4.56 19.62 6.6.18-.72.78-1.68.84-2.28 1.2-3.54l1.14.18q-.36 1.32-1.44 4.08-.54.72-.6 1.26.66.18 1.56.36l-1.5 4.92q-7.38-1.5-23.4-7.92-.24-.12-.42-.12l-1.08.36q-2.16 4.62-4.26 8.58l-4.62-.96q-.06-.18.3-.54-.9-.42-1.92-1.32-1.62-1.08-1.98-1.5l.72-.96q.54.72 2.28 1.8.66.72 1.38 1.02 2.1-4.26 4.02-8.1v-.3q-8.1-3.36-12.48-5.52l1.5-4.62q4.32 2.34 12.36 5.46l1.2-.48q1.08-2.64 2.1-4.98 3.54-8.4 7.62-24.54l-.54-.6q-3.12.18-6.06.66-6.18.9-10.92 1.26-5.46.24-10.08 1.14l-.42-4.62q4.44-.72 10.08-1.14 3.06-.18 6.78-.54v-.12q-.18-1.98 1.26-3.24 1.38-1.56 3.66-1.5 1.38 0 2.82 1.5 1.02 1.14 1.2 2.16 4.08-.54 7.74-.72 6.42-.36 12.42-.78l.42 4.56q-5.82.36-12.12.84l-1.44 1.38q-3.84 15.48-7.74 24.84zm61.92-1.02q-.06-1.2-.06-2.34-.42 0-.42.06l-.54-4.38q1.74-.36 3.96-.6 1.92-.18 4.38-.48 1.92-.48 3.9-.54l.78-.78q.18-3.78.42-6.48.3-6.6.42-9.54.18-2.64.36-4.62l4.44.3q-.18 2.16-.36 4.62-.18 3.06-.48 9.48-.18 2.7-.36 6.48.3-.12.84-.12l.54 4.32q-2.52.18-4.98.48-2.34.18-4.98.66-1.68.24-3.06.54l-.54.54q-.06 1.08.12 2.28v.12l.84.84q-.18 0 0-.06 1.74-.12 4.02-.3 2.52-.36 4.68-.36 2.28-.12 4.62-.18l.3 4.38q-1.32 0-2.34.18l-.72.96q0 .72.18 1.68.18 4.38.42 5.28 0 .6.18 1.32 0 1.8.18 3.3 0 .66.18 1.32l.18-.12q.66-.36 2.22-1.38l.66.96q-1.62 1.08-2.4 1.5l-.48.24q.12.54.3.9l-4.38.42q-.54-1.5-.72-3.78-.36-1.8-.3-3.6-.18-1.92-.3-4.44-.06-.9-.24-3.72-.06-.3-.06-.42l-.18-.18q-1.08 0-1.68.12-2.34.06-4.08.24-.24 0-.18.12l-.66.66q0 1.98.24 4.38.18 4.14.36 10.26l-4.44.18q-.18-6.12-.36-10.32-.24-7.14-.42-10.38zm-6.9 10.08q0 4.2-.12 10.5h-4.38q.12-6.3.12-10.56v-2.64l-.78-.72q-.42-.12-.6 0-1.98.18-4.44.42-.72 0-1.44.24l-.36.36q-.18 1.8-.3 4.44-.6 5.94-.9 8.76l-4.5-.48q.36-2.22.96-7.8.18-2.88.36-4.92-.72 0-1.2.12l-.36-4.38q1.38-.3 3.54-.36 1.74-.12 3.84-.36 2.28-.36 4.44-.36.48-.12 1.14 0l.6-.66V45.5l-.84-.78h-.78q-2.16 0-4.56.12-2.22.18-3.96.18-2.04 0-3.6.18l-.18-4.44q.9-.12 2.4-.06l.6-.72q-.36-4.44-.72-7.44l-1.14-10.26q-.36-2.88-.48-5.1l4.44-.42q.18 2.22.36 5.04.3 3.12 1.2 10.32.18 2.94.72 7.32l1.02 1.08q1.98-.18 3.78-.18.72 0 1.8.06 0-.36.06-.42h4.38q-.18 2.22-.12 5.22v10.68zm-4.5-36l.66.3q.36-.18 1.02-.18 2.16-.18 4.86-.54 3-.54 5.46-.6 1.62-.18 3.6-.24l.6-.42q.12-1.02.3-1.8l-.42-.36q-4.02 0-6.66.48-4.56.6-8.82 1.44-.36 0-.3.12l-.54.54q0 .42.24 1.26zm15.06 4.56l.36-.3q0-.54.18-.96l-.3-.3q-1.5 0-2.88.12-2.52.18-5.52.54-2.58.42-4.74.6-.42 0-.72.12l-.42.48q0 .6.24 1.38l.6.36q.48-.18 1.38-.24 1.62-.18 3.78-.6 2.46-.54 4.38-.72 1.74-.3 3.66-.48zm-.36 4.62l-.42-.3q-1.14.06-2.28.24-2.04.24-4.32.72-2.16.36-3.72.66l-1.8.3q-.06.42.12 1.08l.66.42q.54-.12 1.44-.12 2.16 0 4.8-.24 2.34-.36 4.68-.24l.54-.42q.12-1.02.3-2.1zm5.22-4.2q-.6 3.96-.72 6.66.36 0 .96-.06l.18 4.32q-2.58 0-5.46.12-2.52 0-5.52.24-2.58.36-4.74.3-.78 0-1.5.12-.18.06.06.18l-4.26.78q-1.08-5.88-1.8-9.72-1.14-6.78-1.92-9.78-.42-2.7-.78-4.86l4.32-.78q.12.72.3 1.56 4.62-1.08 10.44-1.74 4.44-.54 9.42-.78 1.38-.12 1.92.72.36.72.42 1.8v.12q-.6 4.32-1.32 10.8zm27.72 41.16l-1.8-3.9q1.02-.54 2.4-1.2 1.2-.48 2.58-1.26 1.56-.84 3-1.44 1.56-.66 3-1.26l1.92 3.96q-1.5.72-3.06 1.32-1.44.72-3 1.38-1.44.9-2.64 1.32-1.32.54-2.4 1.08zm-2.94-30.42l.3-4.44q1.26 0 2.88.18 1.26.06 3.06.18 1.92.06 3.48.24 1.74.24 3.48.42l-.3 4.32q-1.68-.12-3.48-.36-1.62-.18-3.54-.24-1.86-.12-3.06-.18-1.5-.12-2.82-.12zm1.08-19.08l.96-4.26q1.08.18 2.7.6 1.26.36 3 .6 1.8.36 3.42.78 1.74.54 3.3.84l-.96 4.32q-1.62-.48-3.36-.9-1.44-.36-3.36-.72-1.8-.3-2.94-.66-1.62-.36-2.76-.6zM157.2 40.7l.84.96q2.82-.54 6.12-.96 4.98-.9 8.94-1.2l1.8-1.26q.66-7.2 1.8-13.38l-1.02-.72q-3.84.18-7.56 1.2-4.32.78-8.16 2.64l-1.08.9q-.18 1.08-.3 2.16-.9 4.74-1.38 9.66zm14.7 17.52l.9-.66q.54-7.5 1.32-12.78l-.72-.9q-2.88 0-5.64.66l-.66.96q.72 3.12 1.74 7.62.36 2.58.78 4.62l1.2.72q.54-.18 1.08-.24zm-16.38 2.7l.84.72q2.82-.54 8.1-1.62l.84-1.5q-.54-2.64-1.08-6.18-.72-3.18-1.44-5.88l-1.2-.84q-1.86.18-3.3.36l-1.86 1.56q-.72 6.9-.9 13.38zm-3.36-13.5l-.42-.48q-1.32.06-2.34.36l-.54-4.38q1.2-.36 2.76-.48l1.2-1.02q.66-5.94 1.56-10.8.54-4.26 1.2-7.02l4.32.3q-.18.6-.36 1.44l.78.84q3.9-1.56 8.88-2.64 5.58-1.2 9.72-1.2 1.8 0 2.34.36.18.36.24 1.5-1.32 6.84-2.16 13.86l.66.78q1.08-.3 2.4-.36l.48 4.38q-1.68.06-3.06.36l-1.2.84q-.72 5.04-1.14 11.16l.96 1.2 2.1-1.26 1.92 4.14q-1.44.96-3.3 1.62-.6 0-1.14.36l-1.14.9q-.36 2.28-.36 4.56l-4.44.18v-.42q-1.08 0-1.86-.18-1.86 0-2.22-.24l.18-1.14q.72.18 2.52.36.72.18 1.44.12 0-.9.24-2.04l-.54-.54q-2.7.66-5.88 1.32-11.16 2.46-12.54 2.4-1.44.18-1.98-.42-.72-.36-.54-1.86.18-8.04 1.26-16.86zm22.26-34.02q3.78-.36 7.5-.66l.54 4.32q-3.66.36-7.5.72-3.48.36-7.5.96-3.78.72-6.6.96-2.4.18-4.38.6l-1.2.96q-.78 3.96-1.14 6.24l-4.38-.78q-.06-.3.12-.54l-1.74-1.02q-.96-.54-.6-1.02.3-.54 1.14.06l1.44.84q.3-2.34 1.08-6.06.84-4.8 1.02-7.44l4.38.3q-.18.96-.36 2.82l.9 1.02q1.38-.3 3.18-.36 2.82-.3 6.54-.9 4.26-.72 7.56-1.02zm-7.68 16.56q1.44 0 2.46.96 1.08 1.08 1.08 2.46 0 1.44-1.08 2.46-1.08 1.08-2.46 1.08-1.44 0-2.46-1.08-1.08-1.02-1.02-2.46-.06-1.38 1.02-2.46 1.08-.9 2.46-.96zm40.38 36.24h-4.38v-.06q-.78-.18-1.5-.72-1.26-.72-2.64-2.22-1.68-1.62-2.76-2.46-.72-.36-1.14-.66l.72-.84q.48.18 1.2.66.9.72 2.82 2.4 1.56 1.56 2.46 2.16.3.36.84.48 0-12.18-.3-20.34l-.9-.96q-1.44.36-2.4.72-2.16.6-3.9 1.26l-1.26-4.32q1.74-.54 3.96-1.14l3.36-.96.9-.72q-.24-9-.42-14.34l-1.2-1.02q-.96 0-1.74.06-2.22.18-4.02.42l-.42-4.38q1.74-.36 4.02-.42 1.26-.12 3.06-.12l.3-.42V11.3h4.38v5.4l1.56 1.38q0-.12.18-.12 2.52-.18 4.98-.3l.42 4.32q-2.4.18-5.04.3-.78 0-1.68.18l-.42.48q0 4.74.42 13.68l.9.78q2.28-.66 4.56-1.2l1.2 4.26q-2.4.54-4.92 1.2-.36 0-.48.12l-1.08 1.26q-.18.54.06 1.26.48 8.82.3 21.9zm19.44-9.18l1.26-.96q0-.18.18-.3 3.72-10.92 7.26-22.2l-1.62-.84q-5.1.42-8.46 1.38-2.34.42-4.56 1.44l-1.08.96q-.24 3.84-.24 8.58-.18 3.96-.36 9.12l.78.9q.3 0 .6.12 1.98.42 6.24 1.8zm-1.26 5.04l-.42-.9q-3.48-1.2-5.64-1.62l-.6.48q-.06 1.08-.06 2.04 0 .18.42.12l5.34 2.16q.48-1.08.96-2.28zm6.66-4.38q-.18.06-.18.36l.66 1.02q3.9 1.26 6 1.68 1.2.18 2.58.24l-.6-5.4q-.06-1.38.54-1.38.66-.18.84 1.2l.6 5.58q.54 0 1.26-.12l-1.02 4.68q-2.4.36-5.16-.24-3.06-.54-6.9-2.04l-1.02.54q-.9 1.98-1.44 3.06l-4.62-.96q0-.18.18-.24l-5.16-2.16q-.18 1.44-.18 2.76l-4.38-.18q.72-12.6.96-21.18.36-14.7.54-21.48.36-5.88.6-10.5l4.38.18q-.06.42-.06.96 4.08-.9 9.18-1.44 4.44-.54 9.12-.72 1.38 0 1.86.84.3.6.48 1.92-.9 2.76-1.68 7.14-.96 4.2-1.5 6.24l-4.5-1.08v-.18l-7.14-1.08q-1.32-.12-1.2-.78 0-.72 1.38-.48l7.32 1.14q.66-2.52 1.68-6.6.12-.84.3-1.38l-1.02-1.08q-3.06.06-5.16.36-4.2.42-8.04 1.32l-1.38 1.68q-.18 1.68-.18 3.66-.18 2.7-.18 6.78l.6.66q1.98-.72 4.08-1.2 5.16-1.2 9.3-1.56 2.82-.18 4.98-.12 1.62.06 2.1.72.48.6-.24 1.8h.18q-4.02 13.56-8.76 27.06zm29.58-31.26q.12-3.54.48-6.36l-.54-.36q-3.48.78-4.38.96l-.6-4.56q1.92-.18 7.8-1.8 5.76-1.74 7.62-2.7l.84 4.38q-1.68.72-5.94 2.16l-.36.6q-.36 3.6-.54 7.92-.18 6.3-.84 20.1-.18 7.92-1.26 19.8l-4.38-.3q1.08-11.82 1.2-19.74.72-13.68.9-20.1zm23.22 21.06l1.26-1.74q-.18-4.32-.36-9.18-.54-7.2-.54-13.08-.06-.48-.06-.84l-.48-.42q-1.98.06-3.3.36l-.72.78q-.18 6-.84 17.04-.36 2.94-.54 5.64l1.14 1.5q1.98 0 4.44-.06zm10.02-1.32l1.02-1.14q-.96-11.1-1.5-16.5-.36-3.6-.54-6.48l-.66-.66q-1.68-.12-3.06.18l-.6.72q-.18.54.06 1.08-.06 5.82.48 13.08.3 4.92.42 9.42l.84.66q1.62-.48 3.54-.36zm-19.56-3.78q.72-11.88.96-19.14l-.36-.3q-2.4.18-4.38.42l-.42-4.38q2.88-.48 6.78-.66 2.64-.18 6.12-.48l.96-1.14q-.18-2.82-.36-5.28l4.38-.18q.12 2.22.3 4.62l1.32 1.26q1.56-.18 3.12-.24 4.26-.18 8.34-.42l.42 4.32q-1.86 0-3.6.3l-.6.54q.12 2.94.48 6.6.54 5.94 1.8 18.84.84 7.44 1.56 18.72l-4.38.36q-.72-8.4-1.2-14.64l-1.14-.9q-1.98 0-4.08.36l-.78.96v14.4l-4.38.18v-.96q-1.14-.54-2.64-1.8-2.22-1.32-3.12-2.58l.66-.78q1.08 1.14 3.36 2.7.9.66 1.74 1.2V52.52l-.78-.78q-2.76.18-5.16.12l-1.56 1.2q-.72 7.74-1.38 12.42l-4.44-.36q1.2-7.2 2.46-22.74z"/></svg>