<svg viewBox="0 0 463 80" xmlns="http://www.w3.org/2000/svg"><path d="M43.72 53.94q-8.4 5.94-21.84 10.5-.54.18-1.02.18-1.74 0-2.58-1.62l-1.02-1.92q-.78-1.5-.27-2.67t2.07-1.65q10.86-3.66 18-8.04.9-.6.12-1.38Q29.5 39 25 26.1q-.3-.6-.9-.6h-5.52q-1.38 0-2.19-.81t-.81-2.19v-1.38q0-1.38.81-2.19t2.19-.81h19.68q1.08 0 .9-1.08-.18-1.02-.42-2.04l-.48-2.04q-.48-1.62.24-2.67.72-1.05 2.4-1.23L42.04 9q1.14 0 2.01.48.87.48 1.17 1.68.42 1.56.75 3.12t.63 3.12q.12.72.9.72h19.68q1.38 0 2.19.81t.81 2.19v1.38q0 1.38-.81 2.19t-2.19.81h-5.76q-.72 0-.9.72-2.94 13.26-9.42 21.12-.72.84.18 1.32 6.84 4.2 16.5 7.98 1.56.66 1.98 1.86.42 1.2-.48 2.64l-1.38 2.1q-.42.66-1.08 1.02-.66.36-1.38.36-.6 0-1.14-.24-11.82-4.8-19.5-10.44-.36-.12-.54-.12-.18 0-.54.12zm5.46-28.44H36.7q-1.98 0-2.73 1.14t.09 2.88q1.62 3.42 3.57 6.27 1.95 2.85 4.23 5.37.9.9 1.98.9.54 0 1.08-.27t.96-.81Q49.78 36 52 29.16q.48-1.62-.3-2.64t-2.52-1.02zm67.98-12v19.86q0 1.38-.81 2.19t-2.19.81h-22.2q-1.38 0-2.19-.81t-.81-2.19V13.5q0-1.38.81-2.19t2.19-.81h22.2q1.38 0 2.19.81t.81 2.19zm-7.86 15.6H96.88q-1.26 0-1.26 1.2 0 1.26 1.26 1.26h12.42q1.2 0 1.2-1.26 0-1.2-1.2-1.2zm-12.42-4.32h12.42q1.2 0 1.2-1.26 0-1.2-1.2-1.2H96.88q-1.26 0-1.26 1.2 0 1.26 1.26 1.26zM97 18h12.18q1.32 0 1.32-1.38 0-1.32-1.32-1.32H97q-1.38 0-1.38 1.32Q95.62 18 97 18zm3.06 23.82v20.52q0 1.38-.81 2.19t-2.19.81h-.66q-1.38 0-2.19-.81t-.81-2.19v-8.16q0-.9-.9-.9h-4.02q-.84 0-.96.84-.6 6.9-7.2 10.68-.72.3-1.32.3-1.38 0-2.22-1.2l-.54-.72q-.9-1.2-.6-2.25.3-1.05 1.62-1.83 3.42-2.04 4.02-4.86.12-.42-.12-.69-.24-.27-.66-.27h-2.76q-1.32 0-2.1-.78t-.78-2.1q0-1.32.78-2.1t2.1-.78H92.5q.9 0 .9-.9V45q0-.9-.9-.9H80.92q-1.38 0-2.19-.81t-.81-2.19V17.46q0-1.38.81-2.19t2.19-.81h.66q1.38 0 2.19.81t.81 2.19v20.46q0 .9.9.9h11.58q1.38 0 2.19.81t.81 2.19zm5.76 20.52V41.82q0-1.38.81-2.19t2.19-.81h11.58q.9 0 .9-.9V17.46q0-1.38.81-2.19t2.19-.81h.66q1.38 0 2.19.81t.81 2.19V41.1q0 1.38-.81 2.19t-2.19.81h-11.58q-.9 0-.9.9v1.62q0 .9.9.9h12.3q1.38 0 2.19.81t.81 2.19v11.82q0 1.38-.81 2.19t-2.19.81h-1.14q-1.38 0-2.19-.81t-.81-2.19v-8.16q0-.9-.9-.9h-7.26q-.9 0-.9.9v8.16q0 1.38-.81 2.19t-2.19.81h-.66q-1.38 0-2.19-.81t-.81-2.19zm76.14-48.3v17.82q0 1.38-.81 2.19t-2.19.81h-32.28q-1.38 0-2.19-.81t-.81-2.19V14.04q0-1.38.81-2.19t2.19-.81h32.28q1.38 0 2.19.81t.81 2.19zm-9.12 11.82H152.8q-.78 0-1.26.48t-.48 1.26q0 .78.48 1.26t1.26.48h20.04q.78 0 1.26-.48t.48-1.26q0-.78-.48-1.26t-1.26-.48zm-19.74-5.28h19.5q.9 0 1.44-.54.54-.54.54-1.5 0-.9-.54-1.44-.54-.54-1.44-.54h-19.5q-.96 0-1.5.54t-.54 1.44q0 2.04 2.04 2.04zm7.44 20.58v21.18q0 1.38-.81 2.19t-2.19.81h-2.4q-1.26 0-1.26-1.2v-.66q0-.6-.6-.6h-9.24q-.6 0-.6.6v.66q0 1.2-1.2 1.2h-2.46q-1.38 0-2.19-.81t-.81-2.19V41.16q0-1.38.81-2.19t2.19-.81h17.76q1.38 0 2.19.81t.81 2.19zm-8.64 12h-6.48q-.9 0-1.44.54-.54.54-.54 1.44 0 .9.54 1.44.54.54 1.44.54h6.48q.9 0 1.44-.54.54-.54.54-1.44 0-.9-.54-1.44-.54-.54-1.44-.54zm-6.54-5.52h6.66q.84 0 1.35-.54.51-.54.51-1.38 0-.84-.51-1.35-.51-.51-1.35-.51h-6.66q-.84 0-1.38.51-.54.51-.54 1.35 0 .84.54 1.38.54.54 1.38.54zm43.98-6.48v21.18q0 1.38-.81 2.19t-2.19.81h-2.4q-1.26 0-1.26-1.2v-.66q0-.6-.6-.6h-9.48q-.6 0-.6.6v.66q0 1.2-1.2 1.2h-2.46q-1.38 0-2.19-.81t-.81-2.19V41.16q0-1.38.81-2.19t2.19-.81h18q1.38 0 2.19.81t.81 2.19zm-8.64 12h-6.72q-.9 0-1.44.54-.54.54-.54 1.44 0 .9.54 1.44.54.54 1.44.54h6.72q.9 0 1.44-.54.54-.54.54-1.44 0-.9-.54-1.44-.54-.54-1.44-.54zm-6.78-5.52h6.9q.84 0 1.35-.54.51-.54.51-1.38 0-.84-.51-1.35-.51-.51-1.35-.51h-6.9q-.84 0-1.38.51-.54.51-.54 1.35 0 .84.54 1.38.54.54 1.38.54zm27-36.6h20.28q1.38 0 2.19.81t.81 2.19q0 1.38-.81 2.19t-2.13.81h-2.04q-.9 0-.9.9v3.12q0 .9.9.9h1.62q1.14 0 1.83.69.69.69.69 1.83v11.04q0 1.14-.69 1.83-.69.69-1.83.69h-1.62q-.9 0-.9.9v3.12q0 .9.9.9h2.22q1.32 0 2.13.81.81.81.81 2.13 0 1.38-.81 2.19t-2.13.81h-20.52q-1.38 0-2.19-.81t-.81-2.19V14.04q0-1.38.81-2.19t2.19-.81zm3.66 9v19.92q0 1.38.81 2.19t2.19.81h1.8q1.14 0 1.8-.66.66-.66.66-1.8v-1.26q0-1.2-1.2-1.2h-1.2q-1.08 0-1.74-.66-.66-.66-.66-1.74V24.36q0-1.08.66-1.74.66-.66 1.74-.66h1.2q1.2 0 1.2-1.2V19.5q0-1.14-.66-1.8-.66-.66-1.8-.66h-1.8q-1.38 0-2.19.81t-.81 2.19zm8.22 9.6v.72q0 1.08.66 1.74.66.66 1.74.66t1.74-.66q.66-.66.66-1.74v-.72q0-1.08-.66-1.74-.66-.66-1.74-.66t-1.74.66q-.66.66-.66 1.74zm33.3 6.42l1.98.36q1.14.24 1.8 1.05.66.81.66 1.89v4.02q0 5.28-4.5 5.28h-13.98q-5.28 0-5.28-4.5V14.64q0-1.38.81-2.19t2.19-.81h15.66q1.38 0 2.19.81t.81 2.19v14.28q0 1.38-.81 2.19t-2.19.81h-11.1q-.9 0-.9.9v7.8q0 1.62 1.62 1.62h6.78q2.04 0 2.04-2.04v-2.28q0-1.92 1.74-1.92.12 0 .24.03t.24.03zm-7.32-18.18h-2.34q-1.38 0-2.19.81t-.81 2.19v1.86q0 1.38.81 2.19t2.19.81h2.34q1.38 0 2.19-.81t.81-2.19v-1.86q0-1.38-.81-2.19t-2.19-.81zm-24.18 34.8l.84-.12q.18-.06.54-.06.9 0 1.65.51.75.51 1.05 1.41.66 1.8 1.2 3.54.54 1.74 1.02 3.48.42 1.44-.3 2.43-.72.99-2.16 1.17l-1.02.18q-1.38 0-2.28-.57-.9-.57-1.2-1.95-.54-3-1.62-6.36-.42-1.38.18-2.4t2.1-1.26zm13.8-.72l.9-.18q.18-.06.6-.06 1.92 0 2.7 1.8 1.5 3.6 2.7 7.32.48 1.38-.18 2.4-.66 1.02-2.1 1.32l-1.08.18q-.24.06-.66.06-1.08 0-1.83-.63t-1.05-1.83q-.42-1.56-.9-3.24-.48-1.68-1.14-3.42-.48-1.38.06-2.4t1.98-1.32zm13.62-.48l.96-.3q.24-.06.42-.09t.42-.03q1.68 0 2.58 1.56 1.08 2.04 1.98 4.02.9 1.98 1.74 3.96.54 1.38-.03 2.43-.57 1.05-1.95 1.47l-1.26.36q-.6.12-.96.12-2.04 0-2.82-2.22-1.14-3.42-2.88-7.26-.66-1.38-.18-2.46.48-1.08 1.98-1.56zm-45.24 7.92q.78-1.38 1.44-2.82.66-1.44 1.32-2.94.78-1.98 2.7-1.98.54 0 1.14.18l.84.3q1.26.42 1.8 1.44t.06 2.22q-1.2 3.6-3 7.14-.84 1.62-2.52 1.62-.3 0-.6-.06t-.6-.18l-1.08-.48q-1.56-.6-1.95-1.8-.39-1.2.45-2.64zm65.04-39.36q-.96-.84-1.95-1.74t-2.07-1.8q-1.08-.96-1.17-2.16-.09-1.2.87-2.22l.66-.72q.9-.96 2.16-.96 1.02 0 1.92.72 1.38 1.2 2.52 2.13 1.14.93 2.04 1.77.96.9.96 2.04 0 1.14-.9 2.1l-.78.72q-1.02 1.02-2.16 1.02-1.08 0-2.1-.9zM256 60.18q1.14-3.48 2.16-7.32 1.02-3.84 2.04-8.16.54-2.34 2.76-2.34h.48q.24 0 .54.12l.9.3q1.2.36 1.77 1.32.57.96.27 2.22-1.26 5.28-2.31 9.3-1.05 4.02-1.89 6.84-.66 2.1-2.64 2.1-.54 0-1.08-.18l-1.02-.36q-1.32-.48-1.86-1.5t-.12-2.34zm4.2-24.78q-.9-.84-1.86-1.71-.96-.87-1.98-1.71-1.08-.96-1.17-2.19-.09-1.23.93-2.25l.6-.66q.96-.96 2.16-.96 1.14 0 1.98.78 2.64 2.22 4.32 3.78 1.02.96 1.02 2.1 0 1.14-1.02 2.1l-.72.72q-.96.96-2.16.96-1.14 0-2.1-.96zm49.74-21.24v45q0 6.18-6.12 6.18h-4.5q-1.14 0-1.95-.66t-.99-1.8l-.42-2.22q-.24-1.2.39-1.95t1.89-.75H301q2.04 0 2.04-2.04V19.26q0-.9-.9-.9H288.1q-1.38 0-2.19-.81t-.81-2.19v-1.2q0-1.38.81-2.19t2.19-.81h18.84q1.38 0 2.19.81t.81 2.19zm-12.36 40.86h-16.26q-1.38 0-2.19-.81t-.81-2.19v-.48q0-1.38.81-2.19t2.19-.81h3.84q.9 0 .9-.9v-4.26q0-.9-.9-.9h-2.7q-1.38 0-2.19-.87t-.81-2.25q0-1.38.81-2.25.81-.87 2.19-.87h2.7q.9 0 .9-.9v-3.78q0-.9-.9-.9h-3.36q-1.38 0-2.19-.81t-.81-2.19v-.48q0-1.38.81-2.19t2.19-.81h15.3q1.38 0 2.19.81t.81 2.19v.48q0 1.38-.81 2.19t-2.19.81h-3.48q-.9 0-.9.9v3.78q0 .9.9.9h2.58q1.38 0 2.19.87t.81 2.25q0 1.38-.81 2.25-.81.87-2.19.87h-2.58q-.9 0-.9.9v4.26q0 .9.9.9h3.96q1.38 0 2.19.81t.81 2.19v.48q0 1.38-.81 2.19t-2.19.81zm-28.5 7.32V24.96q0-1.38.81-2.19t2.19-.81h.9q1.38 0 2.19.81t.81 2.19v37.38q0 1.38-.81 2.19t-2.19.81h-.9q-1.38 0-2.19-.81t-.81-2.19zm3.84-51.42l.84-.54q.78-.48 1.62-.48 1.32 0 2.1.96 2.1 2.16 3.78 4.32.9 1.14.66 2.31-.24 1.17-1.44 1.95l-.84.48q-.78.54-1.68.54-1.44 0-2.46-1.38-.66-.9-1.47-1.83-.81-.93-1.65-1.89-1.02-1.2-.9-2.4t1.44-2.04zm58.26 14.94l-1.38-2.1q-.72-1.02-.51-2.13.21-1.11 1.35-1.77.84-.54 1.68-.54 1.44 0 2.34 1.32l1.56 2.22q.72 1.08.45 2.19-.27 1.11-1.41 1.77-.84.48-1.62.48-1.5 0-2.46-1.44zm19.38-3.72l1.56-1.68q.9-.96 2.04-.96 1.02 0 1.98.84.9.9.96 2.04.06 1.14-.78 2.1l-1.74 1.86q-.9.96-1.98.96-1.2 0-2.1-.96-.9-.96-.9-2.07 0-1.11.96-2.13zM334.6 54.3l.78-.12q.12 0 .24-.03t.24-.03q.9 0 1.65.51.75.51 1.05 1.41 1.02 2.58 1.62 4.92.42 1.44-.27 2.43-.69.99-2.13 1.17l-.96.12q-.18.06-.54.06-1.2 0-1.98-.72t-1.02-1.92q-.18-1.02-.42-2.1t-.54-2.16q-.36-1.38.24-2.34t2.04-1.2zm14.28-.24l.84-.18q1.14 0 1.95.24t1.35 1.44q1.14 2.4 1.92 4.74.48 1.38-.12 2.43-.6 1.05-2.1 1.35l-.96.18q-.24.06-.72.06-2.28 0-2.94-2.46-.24-1.02-.54-2.04-.3-1.02-.66-2.04-.48-1.38.06-2.4t1.92-1.32zm13.32-.9h-38.22q-1.2 0-.06.48l1.08.54q1.02.48 1.38 1.35.36.87-.12 1.89-1.32 2.82-2.94 5.52-.9 1.32-2.4 1.32-.72 0-1.44-.36l-.9-.48q-1.38-.78-1.65-1.98t.63-2.58q.78-1.14 1.53-2.34t1.41-2.46q.48-.9-.54-.9h-1.08q-.96 0-1.53-.57-.57-.57-.57-1.53v-.9q0-1.38.81-2.19t2.19-.81h18.6q.9 0 .9-.9v-1.92q0-.9-.9-.9h-16.62q-1.32 0-2.1-.78t-.78-2.1q0-1.32.78-2.1t2.1-.78h16.62q.9 0 .9-.9v-1.62q0-.9-.9-.9h-14.76q-1.38 0-2.19-.81t-.81-2.19v-15.9q0-1.38.81-2.19t2.19-.81h39.12q1.38 0 2.19.81t.81 2.19v15.9q0 1.38-.81 2.19t-2.19.81h-15.42q-.9 0-.9.9v1.62q0 .9.9.9H364q1.32 0 2.1.78t.78 2.1q0 1.32-.78 2.1t-2.1.78h-16.68q-.9 0-.9.9v1.92q0 .9.9.9h18.72q1.38 0 2.19.81t.81 2.19v1.38q0 .72-.45 1.17-.45.45-1.17.45h-.78q-.78 0-.42.66 1.86 3 3.24 5.64.72 1.38.24 2.49-.48 1.11-1.86 1.59l-1.14.42q-.6.18-1.14.18-.96 0-1.68-.54t-1.14-1.5q-.48-1.32-1.14-2.64-.66-1.32-1.38-2.7-.48-.9-.21-1.65.27-.75 1.23-1.17l1.08-.36q.48-.18.45-.3-.03-.12-.57-.12zm-22.92-27.6v-4.44q0-1.38-.81-2.19t-2.19-.81h-5.76q-1.38 0-2.19.81t-.81 2.19v4.44q0 1.38.81 2.19t2.19.81h5.76q1.38 0 2.19-.81t.81-2.19zm7.14-4.44v4.44q0 1.38.81 2.19t2.19.81h6.42q1.38 0 2.19-.81t.81-2.19v-4.44q0-1.38-.81-2.19t-2.19-.81h-6.42q-1.38 0-2.19.81t-.81 2.19zM403 67.32v.06q0 1.38-.81 2.19t-2.19.81h-24.12q-1.38 0-2.19-.81t-.81-2.19q0-1.38.81-2.22.81-.84 2.19-.84H400q1.38 0 2.19.81t.81 2.19zm13.56-25.56v15.18q0 1.38-.81 2.19t-2.19.81h-2.76q-1.38 0-2.19-.81t-.81-2.19V19.2q0-1.38.81-2.19t2.19-.81h2.76q1.38 0 2.19.81t.81 2.19v14.04q0 .9.9.9h18.06q.9 0 .9-.9V19.2q0-1.38.81-2.19t2.19-.81h2.76q1.38 0 2.19.81t.81 2.19v37.74q0 1.38-.81 2.19t-2.19.81h-2.76q-1.38 0-2.19-.81t-.81-2.19V41.76q0-.9-.9-.9h-18.06q-.9 0-.9.9z"/></svg>