<svg viewBox="0 0 460 80" xmlns="http://www.w3.org/2000/svg"><path d="M43.78 53.16q-4.32 3.12-10.08 5.88t-13.08 5.22q-.54.18-.96.18-1.74 0-2.58-1.62l-.24-.48q-.66-1.2-.27-2.19t1.71-1.47q13.08-4.44 20.94-9.66.36-.24.06-.66l-.42-.3q-4.26-4.38-7.65-10.17-3.39-5.79-5.85-12.99-.3-.6-.9-.6h-6.12q-1.26 0-2.01-.75-.75-.75-.75-2.01 0-1.26.75-2.01.75-.75 2.01-.75H39.4q1.08 0 .9-1.02l-.6-2.88q-.3-1.44-.72-3-.3-1.2.27-1.95.57-.75 1.77-.87 1.14 0 2.04.48.9.48 1.2 1.68.9 3.36 1.44 6.78.12.78.9.78h20.58q1.26 0 2.01.75.75.75.75 2.01 0 1.26-.75 2.01-.75.75-2.01.75H61q-.72 0-.84.72-3.24 14.76-10.56 22.92-.72.78.18 1.38 3.72 2.52 8.28 4.8 4.56 2.28 10.08 4.5 1.38.54 1.71 1.59.33 1.05-.45 2.25l-.42.66q-.9 1.38-2.46 1.38-.3 0-.57-.06-.27-.06-.57-.18-12.3-5.1-20.52-11.1-.24-.18-.54-.18-.24 0-.54.18zm8.4-28.86H33.7q-1.38 0-1.89.78t-.03 1.98q4.44 10.74 11.58 17.28l.42.36q.18.18.42.18t.42-.24q3.36-3.42 5.76-7.83t3.78-9.99q.3-1.14-.24-1.83-.54-.69-1.74-.69zm64.68-10.68v19.62q0 1.38-.81 2.19t-2.19.81H92.08q-1.38 0-2.19-.81t-.81-2.19V13.62q0-1.38.81-2.19t2.19-.81h21.78q1.38 0 2.19.81t.81 2.19zm-6.72 15.12H95.86q-1.74 0-1.74 1.68 0 1.74 1.74 1.74h14.28q1.68 0 1.68-1.74 0-1.68-1.68-1.68zm-14.28-3.6h14.28q1.68 0 1.68-1.74 0-1.68-1.68-1.68H95.86q-1.74 0-1.74 1.68 0 1.74 1.74 1.74zm0-7.02h14.28q1.68 0 1.68-1.74 0-1.68-1.68-1.68H95.86q-1.74 0-1.74 1.68 0 1.74 1.74 1.74zm3.42 24.18v20.28q0 1.14-.69 1.83-.69.69-1.83.69-1.14 0-1.83-.69-.69-.69-.69-1.83v-9q0-.9-.9-.9h-6.36q-.24 0-.24.24v.24q0 7.44-7.08 11.22-.54.3-1.2.3-1.44 0-2.4-1.32-.66-.96-.45-1.8.21-.84 1.23-1.38 5.16-2.64 5.04-7.02v-.24q0-.24-.24-.24h-4.26q-1.02 0-1.65-.63-.63-.63-.63-1.65t.63-1.65q.63-.63 1.65-.63h15.96q.9 0 .9-.9v-2.7q0-.9-.9-.9H81.28q-1.38 0-2.19-.81t-.81-2.19v-23.4q0-1.14.69-1.83.69-.69 1.83-.69 1.14 0 1.83.69.69.69.69 1.83V38.4q0 .9.9.9h12.06q1.38 0 2.19.81t.81 2.19zm7.38 20.28V42.3q0-1.38.81-2.19t2.19-.81h11.76q.9 0 .9-.9V17.22q0-1.14.69-1.83.69-.69 1.83-.69 1.14 0 1.83.69.69.69.69 1.83v23.4q0 1.38-.81 2.19t-2.19.81H112.6q-.9 0-.9.9v2.7q0 .9.9.9h12.6q1.38 0 2.19.81t.81 2.19v11.34q0 1.2-.72 1.92t-1.92.72q-1.2 0-1.92-.72t-.72-1.92v-8.88q0-.9-.9-.9h-9.42q-.9 0-.9.9v9q0 1.14-.69 1.83-.69.69-1.83.69-1.14 0-1.83-.69-.69-.69-.69-1.83zm74.64-47.94v16.62q0 1.38-.81 2.19t-2.19.81h-30.96q-1.38 0-2.19-.81t-.81-2.19V14.64q0-1.38.81-2.19t2.19-.81h30.96q1.38 0 2.19.81t.81 2.19zm-7.62 10.38h-21.72q-.96 0-1.53.57-.57.57-.57 1.53v.72q0 .96.57 1.53.57.57 1.53.57h21.72q.96 0 1.53-.57.57-.57.57-1.53v-.72q0-.96-.57-1.53-.57-.57-1.53-.57zm-21.72-4.08h21.72q.96 0 1.53-.57.57-.57.57-1.53v-.72q0-.96-.57-1.53-.57-.57-1.53-.57h-21.72q-.96 0-1.53.57-.57.57-.57 1.53v.72q0 .96.57 1.53.57.57 1.53.57zm7.98 20.58v21.06q0 1.14-.69 1.83-.69.69-1.83.69h-1.08q-1.44 0-1.44-1.38V63q0-.72-.72-.72h-11.1q-.72 0-.72.72v.72q0 1.38-1.38 1.38h-1.14q-1.14 0-1.83-.69-.69-.69-.69-1.83V41.52q0-1.38.81-2.19t2.19-.81h16.62q1.38 0 2.19.81t.81 2.19zm-7.14 11.04h-8.34q-.96 0-1.53.57-.57.57-.57 1.53v.96q0 .96.57 1.53.57.57 1.53.57h8.34q.96 0 1.53-.57.57-.57.57-1.53v-.96q0-.96-.57-1.53-.57-.57-1.53-.57zm-8.34-4.32h8.34q.96 0 1.53-.57.57-.57.57-1.53v-.96q0-.96-.57-1.53-.57-.57-1.53-.57h-8.34q-.96 0-1.53.57-.57.57-.57 1.53v.96q0 .96.57 1.53.57.57 1.53.57zm44.1-6.72v21.06q0 1.14-.69 1.83-.69.69-1.83.69h-1.08q-1.44 0-1.44-1.38V63q0-.72-.72-.72h-11.1q-.72 0-.72.72v.72q0 1.38-1.38 1.38h-1.14q-1.14 0-1.83-.69-.69-.69-.69-1.83V41.52q0-1.38.81-2.19t2.19-.81h16.62q1.38 0 2.19.81t.81 2.19zm-7.14 11.04h-8.34q-.96 0-1.53.57-.57.57-.57 1.53v.96q0 .96.57 1.53.57.57 1.53.57h8.34q.96 0 1.53-.57.57-.57.57-1.53v-.96q0-.96-.57-1.53-.57-.57-1.53-.57zm-8.34-4.32h8.34q.96 0 1.53-.57.57-.57.57-1.53v-.96q0-.96-.57-1.53-.57-.57-1.53-.57h-8.34q-.96 0-1.53.57-.57.57-.57 1.53v.96q0 .96.57 1.53.57.57 1.53.57zm28.2-36.72h20.64q1.02 0 1.65.63.63.63.63 1.65t-.63 1.65q-.63.63-1.65.63h-3.78q-.9 0-.9.9v4.32q0 .9.9.9h1.98q1.32 0 2.1.78t.78 2.1v9.48q0 1.38-.81 2.19t-2.19.81h-2.1q-.9 0-.9.9v4.08q0 .9.9.9h4.44q1.02 0 1.65.63.63.63.63 1.65t-.63 1.65q-.63.63-1.65.63h-21.06q-1.38 0-2.19-.81t-.81-2.19V14.52q0-1.38.81-2.19t2.19-.81zm2.04 6.66v23.16q0 .96.57 1.53.57.57 1.53.57h4.68q.96 0 1.53-.57.57-.57.57-1.53V39q0-1.44-1.44-1.44h-1.38q-1.32 0-2.1-.78t-.78-2.1v-9.54q0-1.32.81-2.13.81-.81 2.19-.81h1.44q1.5 0 1.5-1.5v-2.52q0-.96-.57-1.53-.57-.57-1.53-.57h-4.92q-.96 0-1.53.57-.57.57-.57 1.53zm13.02 8.34h-3.18q-.96 0-1.53.57-.57.57-.57 1.53v2.52q0 .96.57 1.53.57.57 1.53.57h3.18q.96 0 1.53-.57.57-.57.57-1.53v-2.52q0-.96-.57-1.53-.57-.57-1.53-.57zM249.94 39v3.42q0 5.34-4.5 5.34h-13.26q-5.34 0-5.34-4.5V14.88q0-1.38.81-2.19t2.19-.81h15q1.38 0 2.19.81t.81 2.19V28.2q0 1.38-.81 2.19t-2.19.81h-12.06q-.9 0-.9.9v8.94q0 1.68 1.68 1.68h9.3q2.04 0 2.04-2.04v-2.7q0-.96.54-1.5t1.38-.54q1.2 0 2.16.9.96.9.96 2.16zm-9.24-22.32h-6.72q-.96 0-1.53.57-.57.57-.57 1.53v5.52q0 .96.57 1.53.57.57 1.53.57h6.72q.96 0 1.53-.57.57-.57.57-1.53v-5.52q0-.96-.57-1.53-.57-.57-1.53-.57zm-26.34 35.28q.18-.06.54-.06.9 0 1.65.51.75.51 1.11 1.35.72 1.92 1.35 3.78.63 1.86 1.11 3.72.36 1.2-.21 2.07-.57.87-1.83 1.05-.12 0-.27.03-.15.03-.27.03-1.02 0-1.77-.63t-.99-1.77q-.36-1.74-.87-3.57-.51-1.83-1.17-3.75-.36-1.08.06-1.83t1.56-.93zm13.8-.48q.18-.06.39-.06h.39q.84 0 1.56.45.72.45 1.08 1.29.84 1.92 1.59 3.78.75 1.86 1.35 3.78.42 1.2-.12 2.07-.54.87-1.74 1.17-.18 0-.36.03t-.36.03q-2.1 0-2.7-2.22-.96-3.48-2.52-7.44-.42-1.02-.03-1.8t1.47-1.08zm13.86-.48q.3-.06.51-.09.21-.03.45-.03 1.74 0 2.58 1.5 2.28 4.14 4.14 8.4.48 1.2.03 2.1-.45.9-1.65 1.32-.6.12-.96.12-1.8 0-2.58-1.92-.78-2.1-1.68-4.17-.9-2.07-2.04-4.29-.54-1.02-.21-1.8.33-.78 1.41-1.14zm-45.24 9.36q2.1-3.66 3.72-7.62.66-1.68 2.34-1.68.42 0 .96.18 1.08.36 1.53 1.26.45.9.09 1.98-1.56 4.32-3.6 8.22-.84 1.5-2.52 1.5-.72 0-1.26-.24-1.2-.48-1.56-1.47-.36-.99.3-2.13zm65.94-40.68q-1.08-1.02-2.28-2.04-1.2-1.02-2.52-2.1-.9-.78-.99-1.77-.09-.99.75-1.89.9-.9 2.04-.9.48 0 .93.15.45.15.87.51 3 2.52 4.98 4.26.9.84.9 1.86t-.84 1.86q-.9.9-1.92.9-1.08 0-1.92-.84zm-6.3 40.86q1.32-3.6 2.58-7.65 1.26-4.05 2.52-8.61.48-1.86 2.22-1.86.24 0 .45.03.21.03.51.09 1.14.42 1.62 1.35.48.93.18 2.13-1.56 5.46-2.79 9.54-1.23 4.08-2.25 6.9-.66 1.8-2.4 1.8-.3 0-.54-.06-.24-.06-.54-.18-1.14-.48-1.56-1.41-.42-.93 0-2.07zm4.92-25.38q-1.08-1.02-2.28-2.07-1.2-1.05-2.52-2.13-.9-.78-.99-1.77-.09-.99.75-1.89.9-.9 2.04-.9.48 0 .93.15.45.15.87.51 1.56 1.26 2.76 2.34 1.2 1.08 2.16 1.92.9.84.93 1.89.03 1.05-.81 1.89-.9.9-1.98.9-1.02 0-1.86-.84zm47.94-20.04v43.8q0 6.18-6.18 6.18h-3.48q-1.08 0-1.86-.63t-1.08-1.71l-.06-.42q-.3-1.26.3-2.01.6-.75 1.86-.75h3.36q2.1 0 2.1-2.04V18.3q0-.9-.9-.9h-16.08q-1.2 0-1.92-.72t-.72-1.92q0-1.2.72-1.92t1.92-.72h19.02q1.38 0 2.19.81t.81 2.19zm-11.22 39.66H280.6q-1.14 0-1.83-.69-.69-.69-.69-1.83 0-1.14.69-1.83.69-.69 1.83-.69h5.34q.9 0 .9-.9v-6.18q0-.9-.9-.9h-4.26q-1.08 0-1.74-.66-.66-.66-.66-1.74t.66-1.74q.66-.66 1.74-.66h4.26q.9 0 .9-.9v-5.7q0-.9-.9-.9h-4.86q-1.14 0-1.83-.69-.69-.69-.69-1.83 0-1.14.69-1.83.69-.69 1.83-.69h16.74q1.14 0 1.83.69.69.69.69 1.83 0 1.14-.69 1.83-.69.69-1.83.69h-5.04q-.9 0-.9.9v5.7q0 .9.9.9h4.02q1.08 0 1.74.66.66.66.66 1.74t-.66 1.74q-.66.66-1.74.66h-4.02q-.9 0-.9.9v6.18q0 .9.9.9h5.28q1.14 0 1.83.69.69.69.69 1.83 0 1.14-.69 1.83-.69.69-1.83.69zm-28.32 7.8V24q0-1.14.69-1.83.69-.69 1.83-.69 1.14 0 1.83.69.69.69.69 1.83v38.58q0 1.14-.69 1.83-.69.69-1.83.69-1.14 0-1.83-.69-.69-.69-.69-1.83zm2.76-51.9q.9-.6 1.8-.6 1.02 0 1.98.84 1.26 1.2 2.43 2.43 1.17 1.23 2.25 2.49.78.9.63 1.89-.15.99-1.11 1.65-.78.54-1.62.54-1.26 0-2.22-1.14-1.02-1.2-2.1-2.43-1.08-1.23-2.28-2.43-.84-.84-.78-1.71.06-.87 1.02-1.53zm59.76 15q-.6-.84-1.2-1.74t-1.26-1.8q-.6-.84-.45-1.65.15-.81.99-1.35.6-.42 1.32-.42 1.14 0 1.86 1.02 1.56 2.16 2.52 3.6.54.84.33 1.71-.21.87-1.05 1.35-.6.42-1.26.42-1.14 0-1.8-1.14zm18.3-2.64q1.44-1.62 2.82-3.36.66-.9 1.56-.9.66 0 1.44.6.72.66.81 1.53.09.87-.51 1.65-.84 1.02-1.56 1.92-.72.9-1.32 1.56-.72.84-1.62.84-.78 0-1.5-.72-.72-.66-.75-1.53-.03-.87.63-1.59zm15.06-7.56V30q0 1.38-.81 2.19t-2.19.81H346.6q-.9 0-.9.9v2.76q0 .9.9.9h18.24q1.02 0 1.65.63.63.63.63 1.65t-.63 1.65q-.63.63-1.65.63H346.6q-.9 0-.9.9v3.48q0 .9.9.9h20.58q1.02 0 1.65.63.63.63.63 1.65t-.63 1.65q-.63.63-1.65.63h-48.6q-1.02 0-1.65-.63-.63-.63-.63-1.65t.63-1.65q.63-.63 1.65-.63h20.94q.9 0 .9-.9v-3.48q0-.9-.9-.9h-18.6q-1.02 0-1.65-.63-.63-.63-.63-1.65t.63-1.65q.63-.63 1.65-.63h18.6q.9 0 .9-.9V33.9q0-.9-.9-.9h-15.54q-1.38 0-2.19-.81t-.81-2.19V15.48q0-1.38.81-2.19t2.19-.81h38.64q1.38 0 2.19.81t.81 2.19zm-25.2 10.86v-7.2q0-.96-.57-1.53-.57-.57-1.53-.57h-9.96q-.96 0-1.53.57-.57.57-.57 1.53v7.2q0 .96.57 1.53.57.57 1.53.57h9.96q.96 0 1.53-.57.57-.57.57-1.53zm5.28-7.2v7.2q0 .96.57 1.53.57.57 1.53.57h10.44q.96 0 1.53-.57.57-.57.57-1.53v-7.2q0-.96-.57-1.53-.57-.57-1.53-.57H347.8q-.96 0-1.53.57-.57.57-.57 1.53zm-11.16 34.92q.18-.06.54-.06 1.92 0 2.7 1.86 1.08 2.76 1.8 5.28.3 1.2-.24 2.01-.54.81-1.74.99-.12 0-.27.03-.15.03-.27.03-1.02 0-1.68-.63-.66-.63-.9-1.65-.3-1.26-.66-2.55-.36-1.29-.84-2.67-.3-1.02.12-1.74t1.44-.9zm14.1-.24q.24-.06.72-.06.84 0 1.53.42.69.42 1.05 1.26.66 1.38 1.2 2.7.54 1.32 1.02 2.7.42 1.14-.06 1.98-.48.84-1.68 1.14-.18 0-.36.03t-.36.03q-1.98 0-2.58-2.1-.84-2.7-1.86-5.34-.42-1.02-.06-1.74t1.44-1.02zm-31.26 6.42q.9-1.38 1.74-2.73t1.62-2.73q.78-1.44 2.16-1.44.3 0 .57.06.27.06.57.18.96.48 1.32 1.35.36.87-.12 1.89-1.32 3.06-3.24 5.94-.84 1.32-2.34 1.32-.78 0-1.44-.42-1.08-.54-1.32-1.47-.24-.93.48-1.95zm44.64-6.9q.3-.12.6-.18t.6-.06q1.56 0 2.4 1.38 1.98 3 3.36 5.7.6 1.14.24 2.1-.36.96-1.56 1.44-.6.18-1.14.18-1.74 0-2.58-1.8-.66-1.38-1.38-2.79-.72-1.41-1.56-2.91-.6-.96-.33-1.77.27-.81 1.35-1.29zm40.92 14.94q0 1.02-.66 1.68-.66.66-1.68.66h-25.32q-1.08 0-1.74-.66-.66-.66-.66-1.68 0-1.08.66-1.74.66-.66 1.74-.66h25.32q1.02 0 1.68.66.66.66.66 1.74zm26.82-8.34h-19.02q-1.38 0-2.19-.81t-.81-2.19V19.92q0-1.38.81-2.19t2.19-.81h17.1q2.52 0 4.83.63t4.08 1.95q1.77 1.32 2.85 3.33t1.08 4.77q0 2.7-.99 4.95t-3.15 3.81q-1.5 1.08.12 1.92 2.76 1.38 4.26 3.66 1.5 2.28 1.5 5.46 0 2.76-.93 5.07-.93 2.31-2.61 3.99-1.68 1.68-4.02 2.58-2.34.9-5.1.9zm4.14-31.38q0-3.36-1.89-4.92t-5.13-1.56h-10.62q-.96 0-1.53.57-.57.57-.57 1.53v9q0 .96.57 1.53.57.57 1.53.57h11.16q3.06 0 4.77-1.83 1.71-1.83 1.71-4.89zm1.8 18.84q0-3.36-2.04-5.16-2.04-1.8-5.28-1.8h-12.12q-.96 0-1.53.57-.57.57-.57 1.53v10.14q0 .96.57 1.53.57.57 1.53.57h12q3.54 0 5.49-1.92 1.95-1.92 1.95-5.46z"/></svg>