<svg viewBox="0 0 459 80" xmlns="http://www.w3.org/2000/svg"><path d="M43.66 52.38q-9.18 7.44-23.64 12-.6.12-.9.12-1.68 0-2.52-1.44l-.12-.24q-.6-1.02-.27-1.8.33-.78 1.41-1.14 13.98-4.2 22.44-10.86.54-.3.06-.78l-.48-.42q-9-9-14.22-23.7-.3-.6-.9-.6h-6.48q-1.02 0-1.62-.6-.6-.6-.6-1.62 0-.96.6-1.56.6-.6 1.62-.6h22.2q1.02 0 .84-1.02-.3-1.68-.66-3.39-.36-1.71-.84-3.45-.3-.9.12-1.5t1.44-.72q2.1 0 2.7 1.86.48 1.92.93 3.78.45 1.86.75 3.66.12.78.9.78h21.36q.96 0 1.56.6.6.6.6 1.56 0 1.02-.6 1.62-.6.6-1.56.6h-7.02q-.72 0-.9.66-4.02 15.18-11.7 23.94-.66.72.12 1.32 3.96 2.88 8.91 5.52 4.95 2.64 11.13 5.16 1.08.48 1.32 1.29t-.42 1.77l-.18.12q-.42.66-1.05.96-.63.3-1.29.3-.3 0-.6-.06t-.6-.18q-6.3-2.76-11.43-5.73-5.13-2.97-9.27-6.21-.24-.24-.6-.24-.3 0-.54.24zm9.66-28.86h-21.3q-1.14 0-1.56.63-.42.63 0 1.65 4.86 11.46 12.3 18.9l.54.48q.18.24.48.24t.48-.24q7.08-7.62 10.62-19.56.3-.96-.12-1.53-.42-.57-1.44-.57zm57.36 5.34H95.2q-.78 0-1.23.51-.45.51-.45 1.23 0 .78.45 1.29t1.23.51h15.48q.78 0 1.23-.51.45-.51.45-1.29 0-.72-.45-1.23t-1.23-.51zM95.2 25.5h15.48q1.68 0 1.68-1.68v-.54q0-1.68-1.68-1.68H95.2q-1.68 0-1.68 1.68v.54q0 1.68 1.68 1.68zm0-7.26h15.48q1.68 0 1.68-1.68v-.42q0-1.68-1.68-1.68H95.2q-1.68 0-1.68 1.68v.42q0 1.68 1.68 1.68zm3.72 24.42V62.7q0 .96-.6 1.56-.6.6-1.56.6-1.02 0-1.62-.6-.6-.6-.6-1.56v-9.48q0-.9-.9-.9h-7.2l-.3.3v.3q0 7.32-7.2 11.16-.6.3-1.14.3-1.2 0-1.98-1.14-.6-.78-.36-1.47t1.08-1.11q5.52-2.82 5.46-7.74v-.3l-.3-.3h-4.68q-.84 0-1.38-.54-.54-.54-.54-1.38 0-.84.54-1.38.54-.54 1.38-.54h16.62q.9 0 .9-.9v-3.36q0-.9-.9-.9h-12q-1.38 0-2.19-.81t-.81-2.19V16.86q0-1.02.57-1.59.57-.57 1.59-.57t1.59.57q.57.57.57 1.59v21.9q0 .9.9.9h12.06q1.38 0 2.19.81t.81 2.19zm8.28 20.04V42.66q0-1.38.81-2.19t2.19-.81h11.82q.9 0 .9-.9v-21.9q0-1.02.57-1.59.57-.57 1.59-.57t1.59.57q.57.57.57 1.59v23.46q0 1.38-.81 2.19t-2.19.81h-11.76q-.9 0-.9.9v3.36q0 .9.9.9h12.72q1.38 0 2.19.81t.81 2.19V62.7q0 1.02-.57 1.59-.57.57-1.59.57t-1.59-.57q-.57-.57-.57-1.59v-9.48q0-.9-.9-.9h-10.5q-.9 0-.9.9v9.48q0 .96-.6 1.56-.6.6-1.56.6-1.02 0-1.62-.6-.6-.6-.6-1.56zm9.54-48.84v19.2q0 1.38-.81 2.19t-2.19.81H92.2q-1.38 0-2.19-.81t-.81-2.19v-19.2q0-1.38.81-2.19t2.19-.81h21.54q1.38 0 2.19.81t.81 2.19zm64.2 1.02v16.14q0 1.38-.81 2.19t-2.19.81H147.7q-1.38 0-2.19-.81t-.81-2.19V14.88q0-1.38.81-2.19t2.19-.81h30.24q1.38 0 2.19.81t.81 2.19zm-6 9.9h-24.18q-1.68 0-1.68 1.68v2.04q0 1.68 1.68 1.68h24.18q1.68 0 1.68-1.68v-2.04q0-1.68-1.68-1.68zm-24.18-3.66h24.18q1.68 0 1.68-1.68v-1.98q0-1.68-1.68-1.68h-24.18q-1.68 0-1.68 1.68v1.98q0 1.68 1.68 1.68zm8.94 20.46v21.24q0 .9-.57 1.47t-1.47.57h-1.14q-.9 0-.9-.9v-.9q0-.9-.9-.9h-11.94q-.9 0-.9.9v.9q0 .9-.9.9h-1.14q-.9 0-1.47-.57t-.57-1.47V41.58q0-1.38.81-2.19t2.19-.81h15.9q1.38 0 2.19.81t.81 2.19zm-5.76 10.86h-10.38q-1.68 0-1.68 1.68v2.52q0 1.68 1.68 1.68h10.38q1.68 0 1.68-1.68v-2.52q0-1.68-1.68-1.68zm-10.38-3.66h10.38q1.68 0 1.68-1.68v-2.94q0-1.68-1.68-1.68h-10.38q-1.68 0-1.68 1.68v2.94q0 1.68 1.68 1.68zm44.76-7.2v21.24q0 .9-.57 1.47t-1.47.57h-1.14q-.9 0-.9-.9v-.9q0-.9-.9-.9h-12.18q-.9 0-.9.9v.9q0 .9-.9.9h-1.14q-.9 0-1.47-.57t-.57-1.47V41.58q0-1.38.81-2.19t2.19-.81h16.14q1.38 0 2.19.81t.81 2.19zm-5.76 10.86h-10.62q-1.68 0-1.68 1.68v2.52q0 1.68 1.68 1.68h10.62q1.68 0 1.68-1.68v-2.52q0-1.68-1.68-1.68zm-10.62-3.66h10.62q1.68 0 1.68-1.68v-2.94q0-1.68-1.68-1.68h-10.62q-1.68 0-1.68 1.68v2.94q0 1.68 1.68 1.68zm29.7-36.9h20.64q.84 0 1.38.54.54.54.54 1.38 0 .9-.54 1.44-.54.54-1.38.54h-4.68q-.9 0-.9.9v4.74q0 .9.9.9h2.52q1.14 0 1.83.69.69.69.69 1.83v9.84q0 1.14-.69 1.83-.69.69-1.83.69h-2.52q-.9 0-.9.9v4.74q0 .9.9.9h5.34q.84 0 1.38.54.54.54.54 1.38 0 .9-.54 1.44-.54.54-1.38.54h-21.3q-1.38 0-2.19-.81t-.81-2.19V14.88q0-1.38.81-2.19t2.19-.81zm1.32 5.58v24.6q0 1.68 1.68 1.68h6.24q1.68 0 1.68-1.68v-3.18q0-1.68-1.68-1.68h-2.22q-1.02 0-1.65-.63-.63-.63-.63-1.65V24.54q0-1.02.63-1.62.63-.6 1.65-.6h2.22q1.68 0 1.68-1.68v-3.18q0-1.68-1.68-1.68h-6.24q-1.68 0-1.68 1.68zm14.16 8.52h-5.22q-1.68 0-1.68 1.68v4.2q0 1.68 1.68 1.68h5.22q1.68 0 1.68-1.68v-4.2q0-1.68-1.68-1.68zm28.5 15.12v-3.42q0-1.74 1.5-1.74 1.08 0 1.83.78t.75 1.86v3.36q0 5.34-4.5 5.34h-12.78q-5.34 0-5.34-4.5V15.36q0-1.38.81-2.19t2.19-.81h14.52q1.38 0 2.19.81t.81 2.19v12.42q0 1.38-.81 2.19t-2.19.81h-12.48q-.9 0-.9.9v9.84q0 1.68 1.62 1.68h10.74q2.04 0 2.04-2.1zm-3.78-24.9h-8.94q-1.68 0-1.68 1.68v7.32q0 1.68 1.68 1.68h8.94q1.68 0 1.68-1.68v-7.32q0-1.68-1.68-1.68zm-27.48 35.52q.9 0 1.62.27.72.27 1.08 1.17 1.74 4.2 2.94 8.4.3 1.02-.18 1.74t-1.5.9q-1.08 0-1.77-.39t-.99-1.53q-.48-1.98-1.08-4.05-.6-2.07-1.38-4.23-.3-.84.03-1.47.33-.63 1.23-.81zm13.8-.48q.24-.06.66-.06.66 0 1.29.39t.93 1.05q1.02 2.1 1.83 4.2t1.53 4.14q.36 1.02-.09 1.74-.45.72-1.47 1.02-1.02 0-1.74-.24t-1.08-1.56q-.6-1.98-1.32-4.08-.72-2.1-1.68-4.26-.78-1.86 1.14-2.34zm13.86-.48q.48-.12.84-.12 1.38 0 2.04 1.2 1.44 2.4 2.67 4.77 1.23 2.37 2.25 4.71.42.96.06 1.74t-1.32 1.08q-.24.12-.45.12h-.39q-.72 0-1.29-.39-.57-.39-.87-1.17-.9-2.28-1.98-4.62-1.08-2.34-2.46-4.86-.48-.78-.21-1.47t1.11-.99zM196.78 61.2q2.4-4.14 4.32-8.94.54-1.38 1.86-1.38.24 0 .84.12.84.3 1.2 1.05t.06 1.65q-.84 2.4-1.83 4.71-.99 2.31-2.19 4.59-.72 1.38-2.22 1.38-.6 0-1.08-.24-1.02-.42-1.26-1.2t.3-1.74zm66.66-41.52q-1.26-1.14-2.61-2.34-1.35-1.2-2.91-2.46-.78-.66-.84-1.47-.06-.81.6-1.53.72-.78 1.68-.78.9 0 1.5.54 1.8 1.56 3.24 2.76 1.44 1.2 2.46 2.16.72.66.72 1.53t-.72 1.59q-.72.72-1.56.72-.84 0-1.56-.72zm-6.9 41.46q1.44-3.78 2.88-8.07 1.44-4.29 2.88-9.15.48-1.5 1.86-1.5.24 0 .84.12.9.36 1.29 1.14.39.78.09 1.74-1.8 5.88-3.21 10.2-1.41 4.32-2.49 7.2-.54 1.44-1.98 1.44-.42 0-.9-.18-.96-.36-1.29-1.17-.33-.81.03-1.77zm5.52-25.92q-1.26-1.2-2.64-2.4-1.38-1.2-2.88-2.46-.78-.66-.84-1.47-.06-.81.6-1.53.72-.78 1.68-.78.9 0 1.5.54 1.8 1.56 3.24 2.76 1.44 1.2 2.46 2.16.72.66.72 1.53t-.72 1.59q-.72.72-1.56.72-.9 0-1.56-.66zM308.8 15.6v44.64q0 4.5-4.14 4.5h-5.16q-1.02 0-1.74-.57t-.9-1.59q-.24-1.02.24-1.59.48-.57 1.5-.57h4.44q1.62 0 1.62-1.68V17.82q0-.9-.9-.9h-17.22q-1.02 0-1.59-.57-.57-.57-.57-1.59t.57-1.59q.57-.57 1.59-.57h19.26q1.38 0 2.19.81t.81 2.19zm-10.02 39.18h-18.9q-.9 0-1.47-.57t-.57-1.47q0-.9.57-1.47t1.47-.57h6.54q.9 0 .9-.9v-7.74q0-.9-.9-.9h-5.1q-.9 0-1.47-.57t-.57-1.47q0-.9.57-1.47t1.47-.57h5.1q.9 0 .9-.9v-6.3q0-.9-.9-.9h-6.06q-.9 0-1.47-.57t-.57-1.47q0-.9.57-1.47t1.47-.57h17.94q.9 0 1.47.57t.57 1.47q0 .9-.57 1.47t-1.47.57h-5.94q-.9 0-.9.9v6.3q0 .9.9.9h4.98q.9 0 1.47.57t.57 1.47q0 .9-.57 1.47t-1.47.57h-4.98q-.9 0-.9.9v7.74q0 .9.9.9h6.42q.9 0 1.47.57t.57 1.47q0 .9-.57 1.47t-1.47.57zm-28.8 8.04v-39.3q0-.9.57-1.47t1.53-.57q.9 0 1.47.57t.57 1.47v39.3q0 .9-.57 1.47t-1.47.57q-.96 0-1.53-.57-.57-.57-.57-1.47zm2.22-52.32q.66-.48 1.5-.48.96 0 1.62.6 1.5 1.38 2.88 2.79 1.38 1.41 2.58 2.79.66.78.57 1.56-.09.78-.93 1.38-.66.48-1.32.48-1.02 0-1.8-.96-2.22-2.82-5.22-5.58-.66-.66-.63-1.35.03-.69.75-1.23zm60.78 15.18q-1.44-2.1-3.24-4.5-.48-.66-.39-1.35.09-.69.81-1.17.54-.36 1.14-.36.84 0 1.5.84 1.02 1.38 1.86 2.52.84 1.14 1.44 2.04.48.66.33 1.38-.15.72-.87 1.14-.54.36-1.02.36-.9 0-1.56-.9zm17.52-2.34q.84-.96 1.65-1.98.81-1.02 1.71-2.16.54-.78 1.32-.78.54 0 1.2.48.66.54.72 1.26.06.72-.48 1.38-1.02 1.38-1.86 2.43-.84 1.05-1.5 1.89-.66.66-1.38.66-.6 0-1.26-.54-.66-.6-.66-1.29 0-.69.54-1.35zm14.88-7.74v13.8q0 1.38-.81 2.19t-2.19.81h-16.02q-.9 0-.9.9v3.48q0 .9.9.9h19.08q.84 0 1.38.54.54.54.54 1.38 0 .84-.54 1.38-.54.54-1.38.54h-19.08q-.9 0-.9.9v4.44q0 .9.9.9h21.66q.84 0 1.38.54.54.54.54 1.38 0 .84-.54 1.38-.54.54-1.38.54h-50.04q-.84 0-1.38-.54-.54-.54-.54-1.38 0-.84.54-1.38.54-.54 1.38-.54h22.26q.9 0 .9-.9v-4.44q0-.9-.9-.9h-19.68q-.84 0-1.38-.54-.54-.54-.54-1.38 0-.84.54-1.38.54-.54 1.38-.54h19.68q.9 0 .9-.9V33.3q0-.9-.9-.9h-16.02q-1.38 0-2.19-.81t-.81-2.19V15.6q0-1.38.81-2.19t2.19-.81h38.16q1.38 0 2.19.81t.81 2.19zm-24.24 11.28v-8.76q0-1.68-1.68-1.68h-12.24q-1.68 0-1.68 1.68v8.76q0 1.68 1.68 1.68h12.24q1.68 0 1.68-1.68zm4.32-8.76v8.76q0 1.68 1.68 1.68h12.24q1.68 0 1.68-1.68v-8.76q0-1.68-1.68-1.68h-12.24q-1.68 0-1.68 1.68zm-10.92 35.94q.96 0 1.62.24.66.24 1.14 1.26.6 1.5 1.05 2.97.45 1.47.87 2.91.3.96-.15 1.62-.45.66-1.47.84-.12 0-.21.03t-.21.03q-1.74 0-2.16-1.86-.3-1.38-.75-2.82t-.99-3q-.66-1.86 1.26-2.22zm13.86-.24q.24-.06.72-.06 1.38 0 2.16 1.26 1.5 2.94 2.7 6.06.36.9-.03 1.62-.39.72-1.35 1.02-.24.06-.66.06-1.5 0-2.1-1.62-.48-1.38-1.08-2.88-.6-1.5-1.38-3.06-.42-.84-.12-1.47t1.14-.93zm-31.14 7.08q1.08-1.5 2.07-3.06.99-1.56 1.83-3.24.66-1.2 1.86-1.2.48 0 1.02.18.84.42 1.14 1.2.3.78-.12 1.62-.84 1.74-1.77 3.42t-1.95 3.24q-.72 1.2-2.1 1.2-.6 0-1.32-.3-1.98-1.14-.66-3.06zm44.52-7.74q.48-.18 1.02-.18 1.26 0 1.98 1.08 2.4 3.6 4.14 6.9.48.96.21 1.77t-1.29 1.23q-.54.18-.96.18-1.44 0-2.1-1.5-1.5-3.42-3.78-7.02-.48-.78-.27-1.44.21-.66 1.05-1.02zm41.1 15.54q0 .9-.57 1.47t-1.47.57h-25.92q-.9 0-1.47-.57t-.57-1.47q0-.9.57-1.47t1.47-.57h25.92q.9 0 1.47.57t.57 1.47zm39.06-30.72q0 4.62-1.08 8.61-1.08 3.99-3.36 6.96-2.28 2.97-5.85 4.68-3.57 1.71-8.61 1.71h-12.36q-1.38 0-2.19-.81t-.81-2.19V20.28q0-1.38.81-2.19t2.19-.81h12.36q4.92 0 8.49 1.5 3.57 1.5 5.88 4.2t3.42 6.51q1.11 3.81 1.11 8.49zm-5.52 0q0-3.36-.72-6.33t-2.31-5.19q-1.59-2.22-4.17-3.51-2.58-1.29-6.3-1.29h-8.28q-1.68 0-1.68 1.68v30.54q0 1.68 1.68 1.68h8.28q3.84 0 6.42-1.5t4.17-3.96q1.59-2.46 2.25-5.64.66-3.18.66-6.48z"/></svg>