<svg viewBox="0 0 389 80" xmlns="http://www.w3.org/2000/svg"><path d="M32.34 24.44q.72-4.68.12-5.64-1.8-1.98-1.8-2.4.12-3.9 1.38-3.06 1.08.96 3.24 1.5 3.78.96 5.04 1.68 1.02.6 1.62 2.16.54 1.26-.3 2.52-.24.24-.48.84 3.18-1.2 5.82-2.28.54-.48.96-.18.84.42 2.22.66.84.06 1.74.66.54.42.66 1.2.12.54-.96 2.52-.24.6-1.92.84-6.72 1.26-11.4 2.46l-.48.36q-.9.9-2.04 1.08-1.08.18-1.68-.3-.06-.12-.24-.18-3.24.78-4.38 1.44-1.5.6-3.96.48-1.26-.18-1.86-.72-.9-1.02-1.26-1.68-.36-.54-.72-.96-.36-.48 0-.72 1.26-.72 1.98-.78 2.52-.18 8.7-1.5zm4.38 17.04q.66-2.88 1.08-7.86 0-1.26-.12-1.98-.06-.66.36-.9.3-.12 1.74.18 1.44.36 2.88 1.26 1.08.78 1.32 1.26.3.78-.18 2.22-.42 1.5-1.02 5.04-.42 2.4-1.38 5.04 1.02.78 1.68 1.5 2.1 1.8 4.5 3.54 2.34 1.68 5.16 3.18 1.62.9 3.18 1.44 1.44.42 4.5 2.04 2.64 1.26 3.84 2.22 1.02.72 1.5 1.14.66.72.36.96-.18.18-1.14.6-1.86.9-3.24 1.26-1.32.54-2.28.48-1.32 0-2.46.12-1.86.36-3.84.84-1.08.36-2.4-.18-1.14-.36-2.4-1.26-1.44-.78-3.06-2.22-1.8-1.62-4.26-4.14-1.44-1.62-3.6-4.14-2.04 1.98-4.68 3.12-2.52 1.08-4.62 1.8-1.5.42-2.88.72-1.32.24-3 .48-1.14.06-3.42.06-1.14 0-2.04-.42-.42-.18-.66-.54-.36-.3-.9-.6-.24-.18-.18-.48.18-.48.78-.48.9 0 1.68-.18.72-.3 1.56-.66 1.2-.48 2.04-.78 1.92-.72 3-1.14 1.44-.54 2.34-.9 1.74-.84 3.54-2.04 2.16-1.44 3.48-2.82-.54-.54-.96-1.14-5.1-6.42-7.08-7.68-1.14-1.02-1.56-1.44-.54-1.02-.72-2.04-.24-1.08.6-1.02.66 0 1.38-.18.48-.12.6-.06.3.06.72.12.66 0 1.8.72 1.98.9 7.5 5.46.48.36.84.78.12-.18.12-.3zm58.14 9.18q-.06 6.18-.06 8.88.12 1.62-.06 2.82-.06.72-.84 1.68-.72 1.26-1.38 1.08-.78 0-1.32-.54-.42-.36-.48-.96 0-.36-.24-1.2-.18-.54.06-8.82-1.68.6-3.66 1.68.3 1.62-.24 3.9-.24 1.5-1.02 2.94-.42.9-1.38 1.92-1.14 1.08-1.5.66-.36-.36-.48-.96-.06-1.32-.3-2.28-.24-1.02.48-2.22.54-1.02.9-2.28-.9.42-1.86 1.02-.78.36-1.2.36-.72.06-1.62-.3-.96-.54-1.56-1.26-.78-.84-.84-1.2 0-.48-.3-.9-.06-.18-.12-.48 0-.3.12-.3.12-.12.24-.06h.96q.84-.12 2.82-.6 3.36-1.08 6.6-2.4 2.16-.84 2.7-1.2.48-.3.66-.3.48.06.72.18.12-1.56.12-3.06 0-.84-.54-.36-3.12 2.22-5.16 2.94-.42.18-.6.06-.24-.3-.54-.3-.6 0-.84-.36-.54-.9-1.14-1.68-.36-.48-.42-1.02 0-.48.9-.84.36-.12.36-1.32 0-3.6-.48-6.54-.42-2.46-1.56-5.22-.42-1.02-.24-1.14.3-.12.78 0 .66.06.9-.06.48-.3 1.32 0 2.46.72 4.02 2.4.54.6.48 1.2-.24.96-.78 2.04-.6 1.14-.78 7.44 0 .42.36.3 3.06-.48 4.14-1.5.9-.84 2.04-.9 1.26-.12 1.74.18.72.24.78 1.14.12.54-.24 1.62-.24.78-.42 6.12zm-3.9-11.88q-.54-5.16-.54-13.56-.06-5.76-.3-7.2-.24-1.38-.9-2.34-.36-.54-.42-1.02-.06-.3 0-.78 0-.36.18-.6.3-.3.6-.18 1.2.18 1.98-.12.66-.36 1.2.06 1.08.54 2.58 1.14.72.24 1.14.6.12-.3.6-.42.84-.18 3.72-2.7 1.02-.66 2.1-.72 1.2-.12 2.22.36 1.02.54 1.44 1.38.48.72 1.26 1.92 1.02 1.14.84 2.34-.06 1.26-1.26 2.34-.54.42-.96 1.26-.36.72-.6 3.42-.24 2.76-.36 3.96-.18.96-.3 2.88l-.12 3.06q.12.96-.06 1.92-.06 1.5-.42 2.46-.24.96-1.32 1.14-.72.18-1.14.66.66.24 1.26.36.54.06.96.3 1.44-.84 3.48-2.04.66-1.8 1.2-5.46.66-3.78.6-5.82 0-1.74-.36-2.22-.54-1.2-.24-1.98.3-.66.48-.9.3-.36.84 0t1.44.72q1.02.36 2.52 1.5 1.08.78 1.32 1.32.48.78.84 1.2.48.42.42 1.02 0 .54-.42 1.08-.42.6-.96 1.86-.9 2.76-1.8 4.74-.6 1.26-1.32 2.64.12 0 .24.12.54.36.78.72.12.36-.36 1.38-.24.54-.24.9 0 .24-1.14.84-2.88 1.32-5.7 2.34-.42 1.08-.48 3.36.48-.3 1.14-.42 3.36-1.2 7.92-3.66.54-.3.84-.3.9.06 1.32.24.66.24 1.38.84.66.42.78.78.12.36-.48 1.32-.36.6-.36.9 0 .24-1.14.72-.54.18-1.08.42l.24.24q.54.78.66 1.5.12.78-.18 1.44-.24.78-.24 2.94.12 2.88-.06 4.2-.06 1.8 0 3.66 0 1.02-.42 1.62-.6.9-1.5 1.26-.78.3-1.08.24-.24 0-.96-.66-.72-.54-1.44-1.62-.42-.6-.42-1.38 0-.9.18-1.62.18-.66.06-4.8-.06-2.88-.18-5.1-1.8.54-3.54 1.08-.72.06-1.14.18h-.24q.12 3.24-.06 5.04-.24 2.94-.06 6.18 0 1.08-.42 1.8-.6.9-1.74 1.26-.72.36-1.08.36-.24 0-1.08-.78-.78-.6-1.5-1.74-.42-.72-.42-1.5 0-1.44.3-2.64.3-.9.18-7.62l-.3-10.68q0-1.08-.18-1.74-.06-.36-.06-.6-2.94.54-3.66.9-.36.24-1.14.18-.78-.12-1.2-.42-.18.06-.36.24-.72.54-1.2.36-.36-.12-.6-1.86zm8.64-3.9q.12-.18.24-.18 0-1.56.06-3.48-.06.06-.24.3t-1.08.54q-.96.42-1.8.66-.9.24-1.14.24-.06 1.86 0 3.42.18-.12.66-.24 1.98-.66 3.3-1.26zm.3-11.82l-.36.48q-.24.24-1.08.6-.96.54-1.86.78-.6.06-.9.24-.06 1.8-.12 3.48.48-.18.96-.3.36-.12.66-.12.3-.12.72 0 .66.06 1.32.06.48 0 .72.18 0-2.64.12-5.82-.06.18-.18.42zm-3-2.76q.3-.12.78 0 .54.18 1.26.06.84-.12 1.08.42 0 .06.12.24 0-.9.12-1.92-.06-1.02-.6-1.38-1.86-1.02-2.58-1.92 0 .42-.18 1.14-.54 1.44-.84 3.72.12-.12.18-.12.36-.12.66-.24zm70.08 40.44l-.24-9.72q-.06-.84-.06-2.16-.42.06-.66.18-3.24.96-5.22 1.74.72.36 1.38 1.02 1.62 1.5 1.86 2.82-.06 1.08-.6 1.86-.42.78-1.32 1.68-.6.42-1.32.48-.72.06-1.38-1.8-.78-2.28-1.32-4.92-1.26.24-1.98-.24-1.26-1.02-2.4-2.7-1.08-1.74-.84-2.1.36-.48 1.02-.42t1.74-.36q2.34-1.08 7.14-2.58 1.98-.66 3.9-1.02 0-.84.06-1.74-.06-1.26-.54-2.7-4.5 1.26-6.54 2.34-1.86.72-2.82.12-1.32-1.02-2.46-2.76-.42-.66-.6-1.02-.6.9-1.26 1.62-.96 1.14-2.22 2.7l.12 4.92q.3 6.48.18 13.44.12 1.62-.66 2.7-.54 1.08-1.02 1.08-.42.12-1.62 1.62-.24.36-2.16-1.44-.42-.24-.54-.78-.18-.36-.24-1.14-.06-.18.18-.78.18-.54.24-1.14v-12.3q-2.04 1.68-4.2 3.3-1.26.9-2.04 1.14-.54.06-.96-.12-.42-.18-.96-.54-.78-.66-1.14-1.56-.06-.48.06-.78.18-.36-.18-1.2-.24-.84.3-.9.72-.12 1.5-.66 3.6-2.34 4.44-3 1.38-1.02 3.24-2.4 0-3.6.12-7.32h-.54q-1.08-.12-1.98-.78-.18-.12-.24-.18-.9 1.14-1.8 2.34-1.26 1.62-3.72 2.46-.96.6-1.62.48-.72-.12-1.32.18-.54.24-.78 0-.24-.3.3-.84.3-.3.54-.78 1.2-1.8 2.04-4.38.84-2.34.78-3.78 0-1.56.42-1.74 1.02-.54 2.1-.36l2.4.3q1.38.06 2.04.78.3.24.48.6.48-.36 1.14-.72.18-6.48-.3-8.16-.78-1.44-.84-2.04-.06-.72-.12-1.32-.06-.84 0-1.08.12-.48.3-.54.3-.18.6-.06.48.06.66.42.36.36 2.04.66.9.06 2.46 1.14.9.6 1.74 1.86.48.72.66 1.26.18.78-.3 1.62-.72.78-1.08 2.88.54-.12.96 0 1.02.24 2.16.84 1.02.42 1.2.96.3.42-.24 1.98-.36.96-.3 1.32.12.42-1.5 1.32-1.44.9-3 1.62v3.48q-.06.6-.06 1.32 2.52-2.1 4.74-4.26.48-.72.84-.36.3.24-.54 2.22-.24.72-.6 1.38.48.06 1.62-.42 1.74-.9 5.28-1.98 0-.3.12-.6.48-1.44.6-3.66-.36-.12-.78-.12-1.14-.18-2.16-.96-.9-.72-1.74-1.8l-.96-1.2q-.72-1.02 1.02-1.08 1.26-.12 3.54-1.14.54-.3 1.14-.6-.06-2.7-.3-4.62-.24-2.1-.66-2.7-.6-1.2-.6-1.86.12-1.02.48-.96.48 0 1.14-.12.66-.12 1.32.06l1.74.36q1.08.24 2.4 1.5.66.54 1.14 1.08.48.42.6 1.02.18.54-.12 1.2-.06.24-.18 1.08 1.44-.12 2.16.24 1.08.36 2.34 1.02 1.2.6 1.38 1.14.18.6-.54 2.28-.42 1.08-.48 1.44.12.42-1.68 1.44-1.86.72-3.6 1.56-.24 1.98-.84 4.14.84-.3 1.68-.3 2.34-.48 3-.78.54-.3 1.32-.96.36-.36.78-.48.72-.3 1.14 0 .84.42 1.38.54.9.24 1.68.54.84.24 1.2.72.66.6.54 1.44-.06.6-.36 1.32-.18.54-.18 1.14 0 .78-.36 1.14-.42.42-1.86.36-1.8.06-4.26.42-.78.06-1.5.3.48.36.78.72.84.78.72 1.56-.06.54-.36 1.26-.24.6-.42 1.2.12-.12.18-.12.66-.36 1.44-1.02.36-.3.72-.42.66-.3 1.14 0 .84.42 1.38.6.9.24 1.62.48.84.18 1.14.66.66.6.6 1.5-.06.6-.36 1.2-.24.6-.24 1.2 0 .78-.3 1.08-.42.36-1.86.3-1.98.06-4.56.54-.6.06-1.08.24 0 3.12.18 5.76.66 7.26.3 8.58-.24 1.08-1.08 2.46-.6 1.08-1.74 2.22-.72.72-1.5.96-.54.36-.9-.12-.18-.18-.54-.72-.42-.54-1.08-1.08-.96-.9-1.62-1.56-1.08-.54-1.86-1.38-.6-.72-.06-.84h2.04q.54.18 1.2.12.84 0 .84-1.02zm60-19.68l-1.74.6q-3.24 1.26-6.42 3 0 3.66.6 9.18.3 1.32 1.02 2.46 1.02 1.32 2.34 1.5 6.66.6 10.44-.42 2.82-.72 3.96-1.62 2.88-3.54 4.5-9.06.12-.84.6-.66.48.06.6 1.2.18.96.66 1.86.48.96.54 2.64.12 1.86.66 3.3.48 1.08-.18 2.94-.24 2.52-1.74 4.02-1.32 1.44-3.78 2.1-2.94.36-6.3.6-4.68.36-7.5 0-4.14-.36-6-1.38-3.78-1.92-5.28-5.1-1.62-3-1.8-9.84-2.94 1.86-6.12 4.02-1.08.6-1.86.6-.9-.12-2.22-1.08-1.86-1.56-2.52-2.34-.72-.9-1.14-1.68-.42-.84-.3-1.14.12-.3.9-.36 1.08-.18 2.1-.66 2.46-1.02 6.18-3.18 2.7-1.62 4.8-2.64.12-1.44.12-2.88-.36 0-.54.06-.9.24-1.26.36-.72.24-2.88-2.28-1.8-2.28-1.74-2.52.12-.36.3-.36.3-.12 1.38-.6 1.98-1.26 4.8-2.52-.06-2.16-.24-3.78-.06-1.02-.3-1.68-4.5.18-8.04-.54-1.14-.18-1.74-.54-.78-.48-.12-.54.66 0 1.86-.36 6.96-1.62 11.94-3.72 5.76-2.28 7.14-3.72.84-1.02 1.32-.42.66.42 1.98.9 1.8.36 2.46 1.62 1.02 1.32.72 2.28-.06.24-.3.66-.24.24-.54.78-.18.6-1.56 1.02-3.42.96-6.66 1.68.3.24.42.54.3.54 0 1.26-.06.24-.18.9.3-.12.84 0 1.02.06 2.1-.12 1.38-.3 1.86.48.36.6.48.96.12.42.06.78 0 .36-.06.72-.06.6-.3 1.2-.24.54-.54.96-.24.36-1.62 1.14-1.98 1.26-3.72 2.22-.06 1.32-.24 2.88.18-.18.48-.24 1.98-.84 2.58-1.32.36-.36 1.08-.06.54.18 1.62.18 1.02.06 1.38.3.48.24.96.78t.6 1.26q.12.6.12 1.38 0 .78-.12 1.32-.06.54-.9.72zm41.16 6.36q-.06 12.66-.66 15.18-.24 1.56-.72 2.22-.24.54-.84.72-.42.18-1.08.24-.6.12-.78-.54-.24-.54-.54-1.38-.36-.9-.36-2.16l-.12-13.2v-3.36q-2.04 3.12-6.42 5.4-1.32.42-2.04.18-.72-.18-1.56-.18-.42.06-.72-.54-.18-.48.42-.48.54-.12 1.14-.42 2.88-2.64 5.52-7.14 1.44-2.7 2.28-4.8-.9 0-1.68-.3-1.8-.72-3.12-1.62-1.68-1.26-1.8-2.04-.18-.72-.78-1.38-.24-.36-.36-.84-.06-.48.06-.54.3-.12.48-.18.3 0 .72-.06.36-.12.96-.18.66-.12 2.28-.9 2.64-1.2 4.92-2.34v-3.54q-.06-4.8-.9-7.68-.36-1.08-.42-1.62v-.54q.3-.72.78-.78.48-.12 1.38.42 2.1 1.14 4.86 3.36 1.92 1.62 1.44 3.84-.9 1.26-1.38 4.44 1.56.06 2.28.36 1.02.36 1.38 1.5.36 1.32.06 2.22-.42 1.32-1.92 2.22-.96.72-2.4 1.92l-.18 3q.12 0 .3.06 1.38 0 2.58.66 2.1.96 2.52 2.04.3.96.06 1.92-.24.72-.72 1.74-.36.6-.96.9-.6.06-1.74-1.2-1.08-1.56-2.16-3.18-.06 4.02-.06 8.58zm8.76 12.24q.3-6.48.18-9.48-.06-2.88.06-5.16.12-1.26.66-1.14 1.26.24 2.46.9.48-.9.84-1.56 1.2-2.34 1.2-3.06 0-.9.18-1.2.3-.3.66-.24.66.06 1.32.3.9.24 1.38.54.48.18 1.02.78.48.42.36.78-.06.54-.48.9-.6.6-1.38 1.44-.06 0-.06.12 1.62-.54 4.14-.96 1.02-.18 1.44-.6.48-.48 2.28.18 1.98.72 2.88 1.56.84.9.9 1.44.18.42-.18 1.02 0 3.96.12 8.16.12 4.5-.18 6.3-.24 1.74-1.2 2.7-1.32 1.98-3 2.58-1.68.9-1.92.6-.18 0-1.02-3.12-.18-.24-.18-1.2-3.96 0-8.22 1.02l-.36.48q-.6.72-1.38.9-.54.18-1.02-.6-.78-1.08-1.38-1.8-.54-.54-.3-1.44.18-.48.18-1.14zm12.54-1.68q0-.3.06-.48.3-4.32 0-9.78 0-.72-.42-.96-.36-.18-1.2-.06-3.6.78-6.54 2.28 0 .96.12 2.58 1.2-.36 3-.66.36-.12.66-.18.3 0 .66.12.66.18 1.26.24.84 0 .96.54.18.42.18.6 0 .24-.06.48-.06.18-.18.42-.06.24-.3.6-.18.24-.42.48t-1.08.48q-1.62.6-3 .84-.96.06-1.5.24.12 1.5.06 3.24.48-.18 1.08-.3 2.7-.66 5.52-.72.66-.12 1.14 0zm9-30.54q-1.26.9-2.34 1.38l-1.5.6-1.08.36q-.18.42-.12.9-.06 4.14.18 4.62.48.54 1.62.24 2.1-.54 2.58-1.02.54-.48 1.8-.6t3.36.54q2.46.72 2.52 1.26.12.6-.42 1.2-.96.96-1.5 2.16-.24.72-1.56.84-6.72.42-8.82 1.14-1.62.36-3.18-.66-1.68-1.2-2.22-3.78-.36-1.8-.24-10.5.12-8.28-.48-9.18-.42-.66-.3-1.02.36-.48.12-1.32-.18-.48.3-.78.48-.3 1.56.12 1.62.54 3.78 1.8 1.62.96 1.8 2.22.12.78-.18 1.68-.24.72-.3 2.04-.06.54-.12 1.32l.72-.36q.48-.3.9-.48.36-.18 1.08-.12.9.06 1.86-.24 1.2-.3 1.68.42.48.54.42.84.12.36.12.6v.72q-.06.54-.24 1.14-.18.36-.42.78-.24.42-1.38 1.14zm-14.64-.54q-1.5.72-2.64 1.08-1.26.36-1.62.3-.18 0-.24.06-.06 1.32-.18 3.06-.06 3.12-.18 3.66-.06.24.36.3.9-.3 2.94-2.34 1.38-1.38 3.06-3.18.36-.36.9-.96.48-.48.72-.18.18.18 0 .9-.18.78-.54 1.74-.72 2.04-1.32 3.54-2.04 3.24-3.48 4.56-2.22 2.04-5.22 3.24-.72.18-1.02-.36-.42-1.02-.96-1.44-.24-.3-.3-.9.12-.72.54-1.2.54-.72.54-1.2-.06-6.06-.24-10.14 0-.84-.24-1.56-.24-.54-.54-1.26-.24-.84-.78-1.44-.42-.84-.42-1.2 0-.3.24-.3.48.06.72-.12.3-.3.6-.48.3-.3.78-.06 1.56.36 2.4.78 1.44.6 1.86 1.2.18.24.24.6l1.74-.54q.36-.12.66-.24.3-.12.78 0 .66.18 1.38.06.84-.12 1.08.42.3.42.24.66.12.24 0 .48 0 .24-.12.54-.06.36-.24.72-.18.24-.36.54-.24.24-1.14.66zm34.56.18q1.74-3.72 2.46-6.48.12-1.44.12-2.04 0-.66.3-.9.36-.3 1.62.66.66.42 3.42 1.14 1.2.24 2.4.96 1.2.54 1.26 2.1.12 1.62-1.02 2.82-.96 1.08-2.58 3.66-.06.06-.18.3.48.18.66.6.48.9.06 1.98-.36 1.14-.42 3-.18 6-.18 10.2 0 5.64-.18 8.82-.06 2.34-.06 3.18.3 1.08-.12 1.74-.24.6-.66 1.2-.18.42-.84 1.08-.42.54-1.08.54-.36.18-.54-.06-.24-.18-.54-.66-.6-.9-.9-2.64-.24-1.08-.24-3.12-.06-5.7.12-8.34.18-5.22.06-10.2-.78 1.14-1.38 2.46-.36.36-1.14.66-.78.24-2.16.06-.78-.18-1.38.24-.36.24-.54-.36l-.24-1.62q-.06-1.02.36-2.82.66-1.2 1.8-4.14 1.02-2.16 1.74-4.02zm21.72.6q.18-7.02-.42-8.82-.9-1.62-1.02-2.34-.06-.84-.18-1.5-.06-.84 0-1.2.12-.48.36-.6.3-.18.66-.06.54.06.84.48.3.36 2.22.66 1.08.06 2.76 1.32 1.2.72 2.1 2.04.54.78.72 1.44.18.9-.3 1.74-.96 1.44-1.32 4.92 2.28-.54 4.98-1.2.84-.3 1.44-.12.48.06.84.3t.84.96q.36.54.72 1.38.36.72-.24 1.56-.42.72-1.26 1.38-1.32 1.08-4.2 2.1-1.44.36-2.64.96.36.9 2.34 4.02 1.98 2.88 5.7 6.66 2.52 2.52 6.72 4.98 1.56.78 3.06 1.74 1.02.54 2.16 1.32 1.02.72.72 1.32-.18.36-2.22 1.02-1.86.6-3.6.54-.96 0-1.5.12-.9.24-2.64.66-.96.18-2.22-.54-.72-.48-1.62-1.32-.96-.9-2.28-2.4v.36q-.06.36-.24.78-.24.54-.6 1.02-.24.42-.6.78-.36.36-1.74.78-.9.24-1.74.66.12 2.58.06 5.34.12 1.8-.78 3.06-.6 1.08-1.14 1.2-.42.18-1.86 1.92-.24.54-2.52-1.56-.36-.36-.54-.9-.18-.54-.24-1.32-.06-.24.12-.9.3-.54.3-1.32-.06-2.28-.06-3.9-1.44.18-1.92.18-.72.06-1.14.12-.9.06-2.34-2.76l-.9-1.8q-.96.9-2.16 1.86-1.14.6-2.88.54-2.04 0-2.16-.36-.06-.66 1.14-2.04 1.38-1.38 2.58-3 1.8-2.64 3.66-6.12 1.62-3.06 2.52-5.4.3-.54.48-1.2-.96.18-1.68.06-1.26-.18-2.7-1.92-1.86-2.46-2.58-4.32-.42-1.26.66-1.32 1.74.06 3.84-.54 2.88-.72 5.64-1.5zm9.78 21.36q-2.34-2.88-3.66-5.52l.18 3.6q0 .78.06 1.56.54-.3 1.32 0 .9.24 2.1.36zm-14.64 2.4q1.98-.72 4.74-1.26v-5.46q-.06-.48-.06-.72-.78 1.5-1.74 3-1.44 2.22-3.24 4.56 0-.12.3-.12z"/></svg>