<svg viewBox="0 0 414 80" xmlns="http://www.w3.org/2000/svg"><path d="M33.88 13.22q1.14-1.86 3.3-1.86t3.3 1.86q.72 1.2.72 2.7 0 .42-.42.42h-7.2q-.42 0-.42-.42 0-1.5.72-2.7zM16.36 21.2h41.52q.48 0 .48.48t-.48.48H51.4q-3 16.32-12 26.52 6.78 6.96 18.24 13.38.54.3.24.72-.24.42-.84.12-11.46-6.48-18.3-13.5-8.4 9.18-21.66 13.26-.96.3-1.08-.06-.18-.36.6-.78 12.06-6.36 19.08-15.84-.36-.42-.66-.84-6.9-9.18-10.44-22.98h-8.22q-.48 0-.48-.48t.48-.48zm19.98 23.94q7.02-9.84 8.76-22.98H25.6q3.48 13.5 10.32 22.5.18.24.42.48zm44.76-9.72V13.16q0-.42.42-.42h17.76q2.22 0 2.22 2.22V33.2q0 2.22-2.22 2.22H81.1zm15.12-.96V27.8H85.66v6.66h10.56zm-10.56-13.5v5.88h10.56v-5.88H85.66zm0-7.26V20h10.56v-6.3H85.66zM71.98 40.88V17.96h-1.26q-.48 0-.48-.48t.48-.48h3.78q2.04 0 2.04 2.04v20.88h10.08q2.16 0 2.16 2.16v18.6q0 2.16-2.16 2.16h-2.88V47.72h-5.16v1.26q-.24 9.66-8.34 13.68-.66.3-.9 0t.18-.72q4.32-4.8 4.5-12.96v-1.26h-3.84q-.48 0-.48-.48t.48-.48h13.56v-5.88H71.98zm24.36 21.9h-2.88V40.4q0-.42.42-.42h12V18.32h-1.56q-.48 0-.48-.48t.48-.48h4.8q2.28 0 2.28 2.28v19.02q0 2.28-2.28 2.28H98.5v5.82h11.04q2.28 0 2.28 2.28V60.5q0 2.28-2.28 2.28h-3.24V47.72h-7.8v12.9q0 2.16-2.16 2.16zm34.2.06h-2.7V20.78q0-.42.42-.42h31.68q2.34 0 2.34 2.34v37.74q0 2.34-2.34 2.34h-3.42v-5.94h-23.88v3.9q0 2.1-2.1 2.1zm25.98-6.96v-16.5h-23.88v16.5h23.88zm-23.88-34.56v17.1h23.88v-17.1h-23.88zm7.44-8.1q1.14-1.86 3.3-1.86t3.3 1.86q.72 1.2.72 2.7 0 .42-.42.42h-7.2q-.42 0-.42-.42 0-1.5.72-2.7zm68.04 32.04q.96-.96 2.28-.96 1.32 0 2.28.96.96.96.96 2.28 0 1.32-.96 2.28-.96.96-2.28.96-1.32 0-2.28-.96-.96-.96-.96-2.28 0-1.32.96-2.28zm-27.3-28.38h36.9q.48 0 .48.48t-.48.48h-15.96v18.9h13.86q.48 0 .48.48t-.48.48h-13.86v22.44h17.82q.48 0 .48.48t-.48.48H178.6q-.48 0-.48-.48t.48-.48H196V37.7h-13.2q-.48 0-.48-.48t.48-.48H196v-18.9h-15.18q-.48 0-.48-.48t.48-.48zm81.06-4.56q.3-.42.84 0 5.7 4.14 10.56 10.14.42.54.06.84-.42.3-.78-.12-4.5-5.7-10.44-10.14-.54-.36-.24-.72zm-11.4 50.46h-3.42v-25.2h-14.22q-.48 0-.48-.48t.48-.48h14.22V21.8H235.9q-.48 0-.48-.48t.48-.48h11.16v-8.52h-1.62q-.48 0-.48-.48t.48-.48h5.04q2.34 0 2.34 2.34v7.14h11.76q2.34 0 2.04 2.34l-1.86 13.44h4.5q2.34 0 2.34 2.34v8.46q0 7.5-8.22 7.5h-6.84q-.48 0-.48-.48t.48-.48h3.54q5.76 0 5.76-6.66v-9.72h-13.02v22.86q0 2.34-2.34 2.34zm10.56-40.98h-8.22v14.82H259l2.04-14.82zm66.84 2.94h-11.34q4.62 15.78 12.48 26.88.36.54-.06.84-.36.3-.78-.24-7.62-10.92-12.3-26.22v24.18h6.18q.48 0 .48.48t-.48.48h-6.18v9.36q0 2.34-2.34 2.34h-3.42v-11.7H304q-.48 0-.48-.48t.48-.48h6.12v-16.5q-4.68 11.46-12.48 18.54-.6.54-.84.3-.3-.24.12-.9 7.68-12 10.98-26.88h-8.76q-.48 0-.48-.48t.48-.48h10.98V12.86h-1.62q-.48 0-.48-.48t.48-.48h5.04q2.34 0 2.34 2.34v9.54h12q.48 0 .48.48t-.48.48zm-42.9 13.44q6.36-11.7 8.64-25.86h-1.44q-.48 0-.48-.48t.48-.48h5.16q2.22 0 1.74 2.16-1.5 6.18-3.78 11.28v35.82q0 2.22-2.22 2.22h-3.06V33.92q-1.98 2.64-4.32 4.86-.54.54-.84.3-.3-.24.12-.9zm52.5 28.62h22.02q.6 0 .6.66 0 .72-.6.72h-22.02q-.72 0-.72-.72 0-.66.72-.66zm27.6-46.74h12.36q6.48 0 9.9 2.52t3.42 7.38q0 3.84-2.4 6.42-1.98 2.16-4.14 2.76 3.72.72 6.18 3.06 2.7 2.58 2.7 6.48 0 5.28-3.39 7.8-3.39 2.52-9.33 2.52h-12.72V21.02h-2.58q-.6 0-.6-.48t.6-.48zm7.86 37.56H379q3.54 0 5.43-2.31 1.89-2.31 1.89-6.51 0-4.02-2.04-6.3-2.04-2.28-5.34-2.28h-6v17.4zm0-18.78h4.26q3.24 0 5.01-2.55 1.77-2.55 1.77-6.39 0-4.08-1.83-6.27-1.83-2.19-4.95-2.19h-4.26v17.4z"/></svg>