<svg viewBox="0 0 410 80" xmlns="http://www.w3.org/2000/svg"><path d="M34.48 13.34q.96-1.5 2.7-1.5 1.74 0 2.7 1.5.6.9.6 2.16 0 .42-.42.42H34.3q-.42 0-.42-.42 0-1.26.6-2.16zM16.36 21.2h41.52q.48 0 .48.48t-.48.48h-8.04q-2.58 15.54-11.16 25.8 6.9 7.38 18.96 14.1.54.3.24.72-.24.42-.84.12-12.06-6.78-19.02-14.22-7.98 9.18-20.94 13.98-.84.3-1.02-.12-.18-.36.54-.72 12.12-5.76 19.56-15.24-.6-.72-1.14-1.44-6.9-9.18-10.44-22.98h-8.22q-.48 0-.48-.48t.48-.48zm20.46 24.6q7.44-9.9 9.84-23.64H25.6q3.48 13.5 10.32 22.5.42.54.9 1.14zm45.42-10.38V13.16q0-.42.42-.42h16.32q1.2 0 1.2 1.2v20.28q0 1.2-1.2 1.2H82.24zm15.3-.96V27.8H84.52v6.66h13.02zm-13.02-13.5v5.88h13.02v-5.88H84.52zm0-7.26V20h13.02v-6.3H84.52zm-11.4 27.18V17.96h-.84q-.48 0-.48-.48t.48-.48h1.98q1.14 0 1.14 1.14v21.78h10.92q1.2 0 1.2 1.2v20.52q0 1.2-1.2 1.2H85V47.72h-7.56v1.26q-.18 9.24-7.2 13.68-.6.36-.9 0-.3-.3.18-.72 5.46-4.8 5.64-12.96v-1.26h-4.98q-.48 0-.48-.48t.48-.48H85v-5.88H73.12zm22.92 21.9h-1.32V40.4q0-.42.42-.42h12.12V18.32h-1.02q-.48 0-.48-.48t.48-.48h2.52q1.26 0 1.26 1.26v21.06q0 1.26-1.26 1.26H97.24v5.82h11.94q1.26 0 1.26 1.26v13.5q0 1.26-1.26 1.26h-1.5V47.72H97.24v13.86q0 1.2-1.2 1.2zm34.26.06h-1.26V20.78q0-.42.42-.42h30.12q1.26 0 1.26 1.26v39.9q0 1.26-1.26 1.26h-1.62v-5.94h-26.52v4.86q0 1.14-1.14 1.14zm27.66-6.96v-16.5h-26.52v16.5h26.52zm-26.52-34.56v17.1h26.52v-17.1h-26.52zm9.24-7.92q.96-1.5 2.7-1.5 1.74 0 2.64 1.5.6.9.6 2.1 0 .42-.42.42h-5.64q-.42 0-.42-.42 0-1.2.54-2.1zm67.8 32.22q.84-.78 1.92-.78t1.92.78q.78.84.78 1.92t-.78 1.92q-.84.78-1.92.78t-1.92-.78q-.78-.84-.78-1.92t.78-1.92zm-27.66-28.74h36.9q.48 0 .48.48t-.48.48h-17.4v18.9h15.3q.48 0 .48.48t-.48.48h-15.3v22.44h19.26q.48 0 .48.48t-.48.48H178.6q-.48 0-.48-.48t.48-.48h18.84V37.7H182.8q-.48 0-.48-.48t.48-.48h14.64v-18.9h-16.62q-.48 0-.48-.48t.48-.48zm81.06-4.56q.3-.42.84 0 5.7 4.14 10.56 10.14.42.54.06.84-.42.3-.78-.12-4.5-5.7-10.44-10.14-.54-.36-.24-.72zm-11.76 50.46h-1.62v-25.2h-15.66q-.48 0-.48-.48t.48-.48h15.66V21.8h-12.6q-.48 0-.48-.48t.48-.48h12.6v-8.52h-1.08q-.48 0-.48-.48t.48-.48h2.7q1.26 0 1.26 1.26v8.22h12.84q1.26 0 1.08 1.26l-1.98 14.52h5.58q1.26 0 1.26 1.26V48.2q0 6.72-7.8 6.72h-5.82q-.48 0-.48-.48t.48-.48h5.4q5.34 0 5.34-5.82V37.58h-15.9v23.94q0 1.26-1.26 1.26zm12.36-40.98h-11.1v14.82h9.06l2.04-14.82zm65.76 30.42q-8.46-11.16-13.8-27.12v25.08h7.62q.48 0 .48.48t-.48.48h-7.62v10.44q0 1.26-1.26 1.26h-1.62v-11.7H304q-.48 0-.48-.48t.48-.48h7.56V27.56q-4.56 14.7-13.92 24.66-.48.54-.84.24-.3-.3.12-.84 8.52-11.1 12.9-26.88h-10.68q-.48 0-.48-.48t.48-.48h12.42V12.86h-1.08q-.48 0-.48-.48t.48-.48h2.7q1.26 0 1.26 1.26v10.62h13.44q.48 0 .48.48t-.48.48h-12.54q5.28 15.84 13.62 26.88.42.54.06.84-.42.3-.78-.24zm-43.26-14.04q7.68-12.12 10.08-25.86h-.9q-.54 0-.54-.48t.54-.48h2.76q1.2 0 .96 1.2-1.5 6.96-3.9 12.72v36.36q0 1.2-1.2 1.2h-1.44v-32.1q-2.46 4.5-5.64 8.04-.48.54-.84.3-.3-.24.12-.9zm52.5 28.62h22.02q.6 0 .6.66 0 .72-.6.72h-22.02q-.72 0-.72-.72 0-.66.72-.66zm27.6-46.74h3.48q1.26 0 1.26 1.26v36.3h18.6q.72 0 .72.72 0 .66-.72.66h-21.78V21.02h-1.56q-.6 0-.6-.48t.6-.48z"/></svg>