<svg viewBox="0 0 502 80" xmlns="http://www.w3.org/2000/svg"><path d="M43 16.6q.6.84.24 3.9-.18.84-.3 1.32 2.82-.24 6-.24 7.68-.06 14.4 1.32 1.08.18.84 2.88-.24 2.64-1.26 2.58-7.2.06-11.04.06-3.84 0-12.54.24-8.7.18-13.02.6t-9.48.78q-.84.06-1.02-2.16-.18-2.28.72-2.28 5.76-.66 9.57-.9 3.81-.24 9.45-1.68.36-.12.84-.18-.36-.78-.66-1.98-.6-2.52-.36-3.3.18-.84 1.59-1.26 1.41-.42 2.49-.42 3-.12 3.54.72zM40.3 46q6-6.3 11.58-11.04.78-.66 2.7 1.26 1.92 1.92 1.32 2.7-3.96 4.98-9.66 10.8 6.84 4.38 8.76 6.12.6.48-.36 2.28-.96 1.74-1.86 1.38-3.42-1.26-11.22-5.22-8.64 8.1-11.34 9.96-.66.42-2.13-.93-1.47-1.35-.81-2.13 2.1-3.24 8.34-10.08-6.12-3.48-11.04-6.78-.84-.66.6-3 1.38-2.4 2.34-1.92 5.7 2.46 12.78 6.6zm55.2-21.24q0-1.68.6-1.74 2.28-.36 4.83-.45 2.55-.09 3.27.03.72 0 .72 1.59t-.6 1.71q-.96.18-3.48.42t-4.8.24q-.6-.06-.54-1.8zm8.88 5.76q0 1.56-.48 1.68-2.1.24-4.38.36-2.28.06-2.88 0-.72-.06-.72-1.5t.6-1.5q.84-.24 3.06-.42 2.22-.24 4.32-.18.48 0 .48 1.56zM77.2 39.34q-.48-2.46-.78-4.26-.24-1.86-.3-3.18t.54-1.68q.6-.36 1.86-.48 1.26-.12 2.16.15.9.27 1.14 2.01.36 1.74.69 3.3.33 1.56.69 3.66.42 2.04.66 3.3.12 1.44.96 1.5 1.32.18 3.54.06 1.2-.12 2.34-.24.06-.72 2.61-.72t2.73.9q.72 5.82.9 12.3.12 6.42-.12 8.28-.06 1.14-2.46 1.14-2.46 0-2.52-.96-.48-2.16-.84-7.26h-.48q-2.04 0-4.32.06-.9 2.04-1.86 4.2-1.38 2.76-1.86 3.48-.48.9-2.52 0-1.98-.96-1.68-1.8.3-1.14 1.44-3.96.3-.9.72-1.68-1.44.06-2.64.18-1.02 0-1.26-2.46-.24-2.52.96-2.58 2.34-.24 4.74-.24h5.04q1.8 0 3.42.12-.12-2.34-.12-4.38-1.26.06-2.46.18-2.34.06-4.2-.12-2.64-.06-3.78-1.44Q79 45.34 78.4 43.6q-.66-1.8-1.2-4.26zm40.5 24.48q-.3-1.14-.6-4.08-.24-1.56-.24-3-1.8.06-3.72.18-2.34.12-4.2.06-.36-.06-.6 0-.48 5.7-.84 7.44-.12 1.08-2.4.9-2.34-.12-2.34-1.02-.3-2.52-.12-9.03t1.08-12.39q.06-.78 2.52-.66 1.02 0 1.74.3.72-.12 1.44-.12 1.98-.12 4.14-.24 1.26-.12 2.4-.06.36-1.32.66-2.28.48-1.44.96-3.12.48-1.74.78-3.24.36-1.56.69-2.76.33-1.2 3.21-.42 2.88.72 2.52 2.16-.42 1.74-.96 3.42-.6 1.74-1.2 3.6-.66 1.86-1.26 3.3-.18.24-.24.54.06.48.12 1.14.12 2.16-.96 2.1-2.28.06-3.9.18-1.68.12-3.6.3-1.98.18-3.66.42-.18 0-.3.06-.12 2.4-.18 4.92.72-.06 1.44-.06 1.8-.12 3.96-.3t4.02-.42q1.86-.24 3.42-.42.96-.12 1.32 2.4.24 2.28-.72 2.58.18 1.62.3 3.42.12 3 .06 3.84 0 1.08-2.28 1.14-2.34.12-2.46-.78zm-12.54-48.84q2.22 0 4.62.24.42-.96 1.74-.72t2.52.66q1.14.42.66 2.46.06 3.9-.36 7.5-.48 3.66-1.08 6.72-.6 3.06-1.5 6.24-.36.84-1.08 1.02-.72.18-1.74.24-.96 0-1.8-.18-.78-.24-.6-1.08.84-10.44 1.74-17.94.12-.9-.72-1.02-1.62-.06-3.45 0t-4.05.3q-2.16.18-5.22.84-.48.06-.87-.51-.39-.57-.39-1.41-.06-.9.12-1.56.12-.66 1.14-.78 3.78-.66 6-.84 2.16-.18 4.32-.18zm-14.82 1.38q.84.24 1.08 1.92.42 2.76.75 5.22t.69 5.82q.42 3.3.66 5.22.12 1.38.96 1.44 1.26.18 3.42-.06 2.1-.18 3.9-.6 1.02-.36 1.74 1.44.66 1.86-.06 2.28-.72.42-1.68.72-1.98.36-4.2.48t-4.02 0q-2.52-.06-3.6-1.38-1.08-1.32-1.68-3-.78-2.76-1.32-6.42-.54-3.72-.81-6.42-.27-2.7-.21-4.74-.06-1.32.48-1.62.6-.36 1.8-.45 1.2-.09 2.1.15zm59.64 21.66q0-2.82 1.26-2.64 3.6-.24 5.34-.3 1.74-.06 3.3-.06 1.56-.06 2.76 0 1.14 0 6.06.3.9-.06.93 2.16.03 2.22-.75 2.46-6.06.84-8.4 1.02-2.34.12-3.6.15-1.26.03-2.4 0t-3.24-.21q-1.26 0-1.26-2.88zm5.22 13.92q-6.78.24-12.12 0-1.02.06-.96-2.34 0-2.34 1.2-2.22 4.5-.42 7.5-.57 3-.15 7.62-.81t8.01-1.02q3.39-.36 11.25-.3 1.08.06 1.08 2.94 0 2.82-1.14 2.88-4.62.66-6.66.72-2.1 0-5.58.3-.9 0-1.92.12 0 2.76-.24 6.12-.36 5.28-.72 6.72-.18.78-2.22.78-2.1.06-2.16-.96-.36-1.86-.6-6.78-.18-3.06-.06-5.64-1.14 0-2.28.06zm12.6-31.68q6.78-.06 12.72 1.2 1.02.18.84 2.67-.18 2.49-1.14 2.43-6.42.06-9.78.06-3.42 0-11.16.18-2.64.06-4.8.12-1.92 2.4-3.9 5.1-2.94 3.84-6.78 9.36-.66.72-2.52-.3-1.92-1.02-1.38-1.98 2.34-4.68 5.64-9.84.54-.96 1.14-1.8-3.42.3-7.32.6-.78.06-.96-2.1-.18-2.16.66-2.16 5.1-.6 8.46-.78 1.08-.12 2.52-.24.78-1.14 1.5-1.98 2.76-3.36 5.76-5.94.72-.78 2.7.9 2.04 1.62 1.26 2.76-.96 1.08-1.8 2.28 3.72-.54 8.34-.54zm3.18 14.4q-.9-1.14-1.98-2.7-.72-.72 1.62-2.52t3.18-.72q1.08 1.38 2.01 2.64.93 1.26 1.65 2.34.72 1.08 1.32 2.04.6.96 1.02 1.86.36.72-1.44 2.04-1.8 1.26-2.34.66-.72-.72-1.44-1.53l-1.68-1.89q-.96-1.14-1.92-2.22zm3.66 27.66q-1.8-1.02-3.48-2.04-.6-.36-.39-1.35.21-.99.75-1.95.48-.96 1.08-.78 1.68.18 3.9.9 2.22.72 3.96 1.8.66.36.33 1.62-.33 1.26-1.23 2.46-.9 1.14-1.62.9-1.44-.54-3.3-1.56zm-30.66-5.28l1.68-2.1q.66-.84 2.64.24t1.5 2.16q-.54 1.2-1.32 2.58-.78 1.38-1.41 2.31-.63.93-1.35 1.65-.78.78-2.97-.93-2.19-1.71-1.35-2.85.6-.78 1.23-1.5t1.35-1.56zm64.62-31.86q-2.04 1.32-4.74 3.3-1.02.54-2.55-1.32-1.53-1.86-.63-2.64 1.92-1.98 4.38-3.96 2.52-2.04 4.44-3.24 1.92-1.2 3.84-1.98 1.02-.48 2.43 1.98 1.41 2.46.21 3.3-1.8 1.08-3.54 2.16-1.8 1.08-3.84 2.4zm19.5-1.98q-1.62-.66-3.6-1.62-1.02-.3.18-3.12 1.14-2.82 2.46-2.22 1.92.78 3.54 1.53t3 1.41q1.32.66 2.52 1.32 1.14.66 2.04 1.32.72.42-.18 2.52-.9 2.1-1.68 1.86-1.14-.36-2.31-.78-1.17-.42-2.79-1.02-1.62-.6-3.18-1.2zm-19.32 20.82q2.88-.06 2.76 1.26-.36 2.1-.75 4.08t-.99 4.62q-.6 2.64-.72 3.42-.12.6.12 1.05.24.45.78.51 4.14.54 7.89.48 3.75-.06 9.57-.9.96-.18 1.5.72.48.84.72 2.16.24 1.32-.42 1.65-.66.33-1.8.63-3.3.48-6.48.69-3.18.21-6.66.15-3.42-.12-6.66-.78-3.06-.42-4.2-1.68-1.2-1.32-1.08-3.18.12-1.14.75-4.32.63-3.18 1.32-5.46.69-2.28 1.23-3.84.24-1.26 3.12-1.26zm16.26-.72q2.1-.12 4.2-.12.48-1.08 1.8-1.2 1.26-.12 2.22.06.9.12 1.62 2.1.78 2.1 1.35 4.53.57 2.43 1.02 5.58.45 3.15.51 6.75 0 1.2-.78 1.5-.84.36-1.68.48-.84.06-1.65-.12-.81-.18-1.35-1.86-2.04-5.82-3.48-11.82-.3-.9-1.14-.9-1.56-.06-3 .06-1.5.06-3.48.24t-4.92.48q-.72.12-1.26-.42-.6-.54-.78-1.5-.18-.96-.06-1.68t1.62-1.14q3.36-.66 5.25-.81 1.89-.15 3.99-.21zm-17.46-10.86q6.96-4.8 13.02-7.98.84-.42 2.22 1.86.72 1.2.84 1.98 1.98.6 4.14 1.44 4.68 1.8 7.86 3.42 3.18 1.62 5.82 3.6.9.6-.39 3t-2.55 1.86q-3.12-1.56-6.06-3.06-3-1.56-6.54-3.3-2.94-1.38-6.78-3.06-3.84 2.64-8.7 5.46-7.86 4.56-10.2 5.4-.72.24-1.74-1.38-1.02-1.62-.24-2.16 2.34-2.22 9.3-7.08zm66.24 8.1q-7.8.06-13.92-.36-1.08.06-1.08-2.46.06-2.58 1.32-2.46 5.16-.3 8.64-.42 3.06-.06 7.56-.54.18-13.44.96-17.28 0-1.08 2.16-1.08t2.28.9q.66 4.8 1.02 16.8 2.16-.3 4.02-.36 3.9-.3 12.96 0 1.14.06 1.14 3.12 0 3-1.2 3.06-5.28.66-7.68.66-2.46-.06-6.42.18-1.2 0-2.64.12.12 11.94-.9 22.98-.12.72-2.34.72-2.28-.06-2.4-.78-1.08-10.98-1.08-22.8-1.2-.06-2.4 0zm-10.26-20.46q1.44-.42 2.52-.42 3-.12 3.57.72.57.84.21 3.9-.42 2.58-1.08 2.97-.66.39-1.59.45l-1.89.12q-1.14 0-1.68-.36-.6-.36-1.26-2.82-.6-2.52-.36-3.3.18-.84 1.56-1.26zm31.74 5.22q-1.56 1.5-3.12 2.82-.54.48-1.5 0-.96-.54-1.8-1.32-.78-.84-.48-1.32.66-1.68 2.04-3.66 1.32-2.04 2.88-3.42.6-.6 1.86.12 1.26.72 2.25 2.07.99 1.35.45 2.07-.96 1.2-2.58 2.64zm-32.76 26.22q1.74-2.58 3.48-4.86.42-.66 1.44-.3 1.02.36 1.98 1.08.96.66.78 1.26-.54 2.28-1.74 5.28-1.2 2.94-2.82 5.22-.54.72-1.95.3t-2.73-1.5q-1.38-1.08-.96-1.92.84-2.04 2.52-4.56zm30.72 6.42q-2.16-1.02-4.08-2.04-.72-.36-.54-1.5.18-1.14.72-2.25t1.2-.99q1.86.06 4.44.66 2.52.6 4.56 1.68.78.36.48 1.86-.24 1.44-1.2 2.88t-1.8 1.2q-1.68-.48-3.78-1.5zm29.16-31.86q1.32-.96 3.93-1.68 2.61-.72 6.51-.15t6.99 3.36q3.09 2.79 4.2 6.51 1.11 3.72.45 7.23-.66 3.51-2.52 5.67-1.86 2.16-5.37 3.51-3.51 1.35-7.74.87-4.23-.48-5.46-1.11-1.23-.63-1.32-1.71-.09-1.08.57-2.19.66-1.11 2.58-.51 1.62.48 4.98.84 3.36.36 5.64-1.83t2.13-5.97q-.15-3.78-1.53-5.91-1.38-2.13-3.15-3.12-1.77-.99-4.02-1.05-2.25-.06-4.14.96-1.89 1.02-3.27 2.7-3.48 27.96-4.17 30.18-.69 2.22-2.07 2.19-1.38-.03-2.28-.45-.9-.42-.75-3.18.15-2.76 1.41-16.11t2.22-20.01q.12-.78.81-1.02.69-.24 2.07-.24t2.43.36q1.05.36.87 1.86zm34.74 18.66q0 .48-.03 2.16-.03 1.68.21 4.14t1.17 4.56q.93 2.1 2.85 3.6t5.28 1.8q.48 0 .9.75.42.75.12 1.86t-1.32 1.35q-7.86-.3-11.85-5.28-3.99-4.98-3.99-14.28.3-4.8 1.59-8.28 1.29-3.48 2.82-5.79 1.53-2.31 3.51-4.11 1.98-1.8 4.44-2.88 2.46-1.08 5.4-1.08 3.66 0 6.78 1.47t5.4 4.2q2.28 2.73 3.57 6.6 1.29 3.87 1.29 8.67 0 3.24-.84 6.42-.84 3.18-2.67 5.76-1.83 2.58-4.71 4.2t-6.96 1.74q-.84-.48-1.11-2.04-.27-1.56.57-2.04 4.38 0 6.63-3.9t2.25-11.1q-.06-5.46-1.74-9.09t-3.63-5.1q-1.95-1.47-4.47-1.47-1.92 0-3.78 1.23-1.86 1.23-3.39 3.48t-2.76 5.43q-1.23 3.18-1.53 7.02zm43.2-18.66q1.32-.96 3.93-1.68 2.61-.72 6.51-.15t6.99 3.36q3.09 2.79 4.2 6.51 1.11 3.72.45 7.23-.66 3.51-2.52 5.67-1.86 2.16-5.37 3.51-3.51 1.35-7.74.87-4.23-.48-5.46-1.11-1.23-.63-1.32-1.71-.09-1.08.57-2.19.66-1.11 2.58-.51 1.62.48 4.98.84 3.36.36 5.64-1.83t2.13-5.97q-.15-3.78-1.53-5.91-1.38-2.13-3.15-3.12-1.77-.99-4.02-1.05-2.25-.06-4.14.96-1.89 1.02-3.27 2.7-3.48 27.96-4.17 30.18-.69 2.22-2.07 2.19-1.38-.03-2.28-.45-.9-.42-.75-3.18.15-2.76 1.41-16.11t2.22-20.01q.12-.78.81-1.02.69-.24 2.07-.24t2.43.36q1.05.36.87 1.86zm30.6 8.88q-1.68-2.4-.84-3.06 2.76-2.28 6.99-4.8t5.55-2.94q.72-.42 2.04 1.32 1.32 1.68.54 2.46-1.26 1.26-4.86 4.14-3.6 2.88-6.78 4.86-1.02.48-2.64-1.98zm10.92 22.8q-2.76.36-2.94-.6-1.14-4.38-1.74-10.56-.66-6.18-.48-7.86 0-.84 1.98-1.2t2.28.66q.72 2.04 1.98 7.74 1.2 5.7 1.68 10.44 0 1.02-2.76 1.38zm19.26-7.5q-.18-9.24 0-18.6-4.02.06-6.18.3-2.64.24-5.76.42-.84.06-1.02-2.16-.18-2.28.72-2.28 3.54-.42 5.88-.57 2.34-.15 5.82-1.05.24-.12.6-.18.06-6.3.24-9.84.12-.78 1.44-1.05 1.32-.27 2.61-.03 1.29.24 1.41.9.12 2.28.36 9.3.72-.06 1.56-.06 4.74 0 8.88.84 1.08.18.84 2.88-.24 2.64-1.26 2.58-4.44 0-6.72-.06h-3.24v12.54q-.06 3.96-.12 7.68 1.8-.36 6-.6 1.08.06 1.08 2.94 0 2.82-1.14 2.88-2.46.42-3.54.48-1.14 0-2.82.3-.36 3.3-.72 6.42-.06.6-1.02.72t-1.86 0q-.9-.12-.96-.66-.48-2.34-.72-6.06-.18 0-.3.06-3.6.24-6.42.24-1.02.06-.96-2.34 0-2.34 1.2-2.22 2.34-.42 3.96-.6.96-.18 2.22-.42-.06-1.32-.06-2.7zm14.1-2.94q-2.28-.78-3.9-1.56-.84-.54-.54-1.98.24-1.44.96-2.88t1.86-.84q2.1.72 3.84 1.74 1.68 1.02 3.78 2.76.54.54.3 1.38-.18.78-.6 1.68-.42.9-1.38.78-2.04-.3-4.32-1.08zm-20.1-9.24q2.58 1.08 2.28 2.1-1.26 3.18-3.6 7.32-2.34 4.14-3.18 5.16-.48.66-2.4-.12t-1.56-1.74q.36-1.68 2.04-5.76 1.62-4.08 3.36-7.2.48-.9 3.06.24z"/></svg>