<svg viewBox="0 0 389 80" xmlns="http://www.w3.org/2000/svg"><path d="M33.2 28.56v2.28h.36v1.56h2.4v3.96h.36v1.56h2.4v3.96h.36v1.56h2.4v1.2h1.44v-2.76h2.76v-5.52h2.76v-5.52h2.76v-2.28h-18zm11.04-15.48v1.2h.36v1.56H47v3.96h19.68v1.56h2.4v7.2H60.8v8.28h-2.76v5.52h-2.76v5.52h-2.76v2.76h-2.4v1.08h2.4v1.2h3.12v1.56h2.4v1.2h3.12v1.56h2.4v1.2h3.12V60h2.4v7.2h-9.96v-1.56h-2.4v-1.2H53.6v-1.56h-2.4v-1.2h-3.12v-1.56h-2.4v-1.2h-.36v-1.56h-2.4v-1.2h-1.44v2.76h-2.76v2.76H33.2v2.76h-5.52v2.76h-9.96v-1.56h-2.4v-7.2h5.52v-2.76h5.52v-2.76h5.52v-2.76h2.4v-1.08h-2.4v-1.2h-.36v-1.56h-2.4v-3.96h-.36V40.8h-2.4v-3.96H26v-1.56h-2.4v-6.72h-5.88V27h-2.4v-7.2h21.72v-1.08h-2.4v-7.2h7.2v1.56h2.4zm-14.28 18.6v-5.52h22.08v5.52h-2.76v5.52h-2.76v5.52h-2.76v2.76h-5.52v-2.76h-2.76V37.2h-2.76v-5.52h-2.76zM41 15.12v-2.76h-5.52v5.52h2.76v2.76H16.16v5.52h8.28v8.28h2.76v5.52h2.76v5.52h2.76v2.76h2.76V51h-2.76v2.76H27.2v2.76h-5.52v2.76h-5.52v5.52h8.28v-2.76h5.52v-2.76h5.52v-2.76h2.76v-2.76h5.52v2.76h2.76v2.76h5.52v2.76h5.52v2.76h8.28v-5.52h-5.52v-2.76H54.8v-2.76h-5.52V51h-2.76v-2.76h2.76v-2.76h2.76v-5.52h2.76v-5.52h2.76v-8.28h8.28v-5.52H43.76v-5.52H41zM84.92 40.8v1.08H86V40.8h-1.08zm-2.4-23.76v1.56h1.08v-4.32h32.04v1.56h2.4v1.2h5.88v1.56h2.4v32.04h-2.4v1.08h2.4V67.2h-7.2v-1.56h-2.4v-6.72h-4.2v8.28h-7.2v-1.56h-2.4V42.36h-3.84v1.08h2.4V67.2h-7.2v-1.56h-2.4v-6.72h-1.44v5.52h-2.76v2.76h-9.96v-1.56h-2.4v-7.2h2.4v-1.08h-2.4v-7.2h2.4v-1.08h-2.4V17.04h7.2zm7.44 11.88v-2.76h19.32v2.76H89.96zm0-5.52v-2.76h19.32v2.76H89.96zm0 11.04v-2.76h19.32v2.76H89.96zM109.28 51v-2.76h13.8V17.88h-5.52v24.84h-13.8V64.8h5.52v-8.28h8.28v8.28h5.52V51h-13.8zm-27.6-8.28V17.88h-5.52v30.36h16.56V51H76.16v5.52h5.52v2.76h-5.52v5.52h8.28v-2.76h2.76v-5.52h5.52v8.28h5.52V42.72H81.68zm2.76-2.76h30.36V15.12H84.44v24.84zm77.04-26.88v1.2h.36v1.56h2.4v3.96h19.68v1.56h2.4v7.2h-48.6V27h-2.4v-7.2h18.96v-1.08h-2.4v-7.2h7.2v1.56h2.4zm13.8 40.32v2.28h11.4v1.56h2.4v7.2h-54.12v-1.56h-2.4v-7.2h16.2V54.6h-2.4v-6.72H146v-1.56h-2.4V39.6h-.36v-1.56h-2.4v-7.2h7.2v1.56h2.4v1.2h.36v1.56h2.4v6.72h.36v1.56h2.4v12.24h6.96v-2.76h2.76V47.4h2.76v-8.28h2.76v-8.28h7.2v1.56h2.4v12.72h-2.76v8.28h-2.76zM147.2 34.44v-2.76h-5.52v5.52h2.76v8.28h2.76v8.28h5.52V42.72h-2.76v-8.28h-2.76zm11.04-19.32v-2.76h-5.52v5.52h2.76v2.76h-19.32v5.52h46.92v-5.52H161v-5.52h-2.76zm13.8 41.4V51h2.76v-8.28h2.76V31.68h-5.52v8.28h-2.76v8.28h-2.76v5.52h-2.76v2.76H133.4v5.52h52.44v-5.52h-13.8zm46.68-6.36h4.2v-7.8h-1.44v5.52h-2.76v2.28zm13.8-9.36v9.36h6.6v-1.08h-2.4v-1.2h-.36v-1.56h-2.4v-3.96h-.36V40.8h-1.08zm-17.88-7.2h2.76v-5.04h-8.64V27h-1.08v17.64h1.44v-2.76h2.76v-2.76h2.76V33.6zm-4.2-20.52v6.72h12.48v-8.28h7.2v1.56h2.4v6.72h14.16v1.56h2.4v7.2h-13.44v1.08h2.4v3.96h.36v1.56h2.4v3.96h.36v1.56h2.4v1.2h.36v1.56h2.4v1.2h.36v1.56h2.4v7.2h-5.52v5.52h-11.04v8.28h-7.2v-1.56h-2.4v-6.72h-8.64v-1.56h-2.4V53.4h-3.12v-1.56h-1.08V67.2h-7.2v-1.56h-2.4V42.36h-3.12V40.8h-2.4v-7.2h2.76v-5.52h2.76V19.8h2.76v-8.28h7.2v1.56h2.4zM212.72 51v-2.76h2.76v-2.76h2.76v-5.52H221v-5.52h2.76V51h-11.04zm-5.52-30.36v-8.28h-5.52v8.28h-2.76v8.28h-2.76v5.52h-2.76v5.52h5.52V64.8h5.52V23.4h2.76v2.76H221v2.76h-2.76v5.52h-2.76v5.52h-2.76v2.76h-2.76v2.76h-2.76V51h5.52v5.52h11.04v8.28h5.52v-8.28h11.04V51h-11.04V34.44h2.76v5.52h2.76v5.52h2.76v2.76h2.76V51h5.52v-5.52h-2.76v-2.76h-2.76v-2.76h-2.76v-5.52h-2.76v-5.52h-2.76v-2.76h13.8v-5.52h-16.56v-8.28h-5.52v8.28H207.2zm60.48 33.96v1.08h1.08V54.6h-1.08zm29.04-12.72h2.76V39.6h-6.6v1.08h2.4v1.2h.36v1.56h1.08v-1.56zm-27.6 4.44v-7.2h2.4v-1.08h-2.4V25.8h-1.44v21.6h3.84v-1.08h-2.4zm1.32-33.24v1.2h1.44v-2.76h7.2v1.56h2.4v1.2h8.64v1.56h2.4v6.72h11.4v1.56h2.4v15h.36v1.56h2.4v7.2h-2.76v2.76h-2.4v1.08h2.4v1.2h.36v1.56h2.4v7.2h-7.2v-1.56h-2.4v-1.2h-.36v-1.56h-1.08v7.08h-2.76v2.76h-9.96v-1.56h-2.4v-1.2h-14.16v-1.56h-1.08v4.32h-7.2v-1.56h-2.4V42.36h-3.12V40.8h-2.4v-7.2h2.76v-5.52h2.76V19.8h2.76v-8.28h7.2v1.56h2.4zM286.52 51v-2.76h2.76V51h-2.76zm0 8.28v-2.76h2.76v2.76h-2.76zM281 53.76V51h5.52v2.76H281zm0-8.28v-2.76h5.52v2.76H281zm8.28-13.8v-2.76h8.28v2.76h-8.28zm-13.8 0v-2.76h8.28v2.76h-8.28zm-2.76-8.28v-2.76h11.04v2.76h-11.04zm-5.52-5.52v-5.52h-5.52v8.28h-2.76v8.28h-2.76v5.52h-2.76v5.52h5.52V64.8h5.52V23.4h5.52v13.8H281v2.76h-11.04v5.52H281v2.76h-13.8v5.52H281v2.76h-13.8v5.52H281v-2.76h2.76v5.52h8.28v-2.76h2.76V51h2.76v5.52h2.76v2.76h5.52v-5.52h-2.76V51h-2.76v-2.76h2.76v-2.76h2.76v-5.52h-5.52v2.76h-2.76v2.76h-2.76v-2.76h-2.76v-2.76h-2.76V37.2h13.8V23.4h-13.8v-8.28h-11.04v-2.76h-5.52v2.76h-2.76v2.76h-2.76zm93.6 39.48v1.08h1.08v-1.08h-1.08zm-8.28-7.2h1.44v-2.28h-1.44v2.28zm-13.8-8.28h6.96V39.6h-6.96v2.28zm5.52-28.8v1.2h16.92v1.56h2.4v7.2h-5.16v1.08h2.4v6.72h5.88v1.56h2.4v7.2h-16.2v1.08h2.4v3.96h5.88v1.56h2.4v1.2h.36v1.56h2.4v1.2h.36v1.56h2.4v7.2h-5.16V60h2.4v7.2h-7.2v-1.56h-2.4v-1.2h-3.12v-1.56h-2.4v-3.96H347v5.52h-2.76v2.76h-9.96v-1.56h-2.4v-1.2h-1.44v2.76h-12.72v-1.56h-2.4v-7.2h2.4v-1.08h-2.4v-7.2h7.92v-1.08h-2.4v-7.2h5.52V39.6h-11.4v-1.56h-2.4v-7.2h10.68v-1.08h-2.4v-6.72h-3.12v-1.56h-2.4v-7.2h19.32v-2.76h7.2v1.56h2.4zM341 15.12v-2.76h-5.52v2.76h-19.32v5.52h19.32v2.76h-13.8v5.52h13.8v2.76H313.4v5.52h16.56v2.76h-2.76v2.76h-5.52v5.52h11.04V51h-16.56v5.52h8.28v2.76h-8.28v5.52h11.04v-2.76h2.76v-5.52h8.28v2.76h-5.52v5.52H341v-2.76h2.76v-5.52h8.28v5.52h5.52v2.76h5.52v-5.52h-5.52v-5.52h2.76v2.76h5.52V51h-2.76v-2.76h-2.76v-2.76h-5.52V51h-16.56v-2.76h11.04v-2.76h2.76v-5.52h-5.52v2.76h-11.04V37.2h30.36v-5.52H341v-2.76h16.56V23.4H341v-2.76h19.32v-5.52H341z"/></svg>