<svg viewBox="0 0 330 80" xmlns="http://www.w3.org/2000/svg"><path d="M15.3 55.22q2.82-.48 3.72-.96 1.44-.18 5.4-1.14 3.72-.9 5.64-1.2h-.48q-.18 0-.24.24.18 0 .48.24-.42 0-.72.24.48 0 1.2.66-.18 0-.24.24.18 0 .9.72-.36.18-.66.48l.9.48q-.42 0-.9.24.72.6 1.14.9.9.42 1.68.96-.18 0-.24.24l.9.48q-.42 0-.66.18.18 0 .66.24-.18 0-.24.24.18 0 .72.24-.42.18-.72.48.18 0 .48.24h.72q-.18 0-.48.24.18 0 .72.24-.42.18-1.2.9l.48.48q-.42 0-.72.24l.96.48q-3.48 1.92-10.8 3.3-1.5.48-3.48.66-1.14-2.22-3.06-7.02-.9-1.8-1.2-2.58-.18-.48-.66-.9-.42-.48 0-.48zm.48-36.36h5.1q2.88.18 7.98.24 5.4 0 7.74-.48-.72-1.8-1.14-5.58.48 0 .66-.24 1.2 0 2.16-.24 1.38 0 2.1-.24l.42.48q-.06 0-.18.24.18 0 .66.18-.42.18-.66.72.18 0 .66.24-.18 0-.48.24.48.18.96.72-1.5.78-3.06 1.86l.24.24q-.42.18-.66.48.84.42.9.48.18 0 .72.42-.18 0-.48.24 0 .18.24.48l-.96.48.96.48q-.42.42-.96.66l-.9.48q.18.18.66.48-.18 0-.42.24l.24.24q-.72.42-1.44.72-.72.36-1.38.66.18 0 .66.24l-.42.48q.36 0 .66.24.48.18.72.24-.18 0-.24.24.18.18.48.24.48.36.72.42-.9.42-1.2.96 0 .18.24.72-.72.18-.96.9.18 0 1.2.48-.42 0-.72.24l.24.24q-1.62 0-2.1.24.18.18.24.72.18.42.48.66-.18 0-.24.24 0 .18.24.48-.42.18-.72.48.18 0 .72.24-.18 0-.48.24.18 0 .48.24-.42 0-.72.24.18 0 .72.18-1.44.42-2.16.72.18 0 .48.24-.78.42-1.62.96l.24.24-.96.42q.18 0 .48.24l-.96.48.96.48q-.18.18-.72.24-.18.42-.66.72.18.18.66.18.48.18.72.48-.18 0-.48.24.18 0 .48.24-1.44.42-2.1 1.2.18 0 .48.24-.42 0-.72.18.9.42 1.62.96l-.42.48q.12.18.18.24-.36 0-.66.24-.18.18-.72.24-.9-1.2-2.34-4.02-.18-.48-.72-1.86-.42-1.44-.9-2.1-.42-1.2-1.2-2.34l-.72-1.92q-.18-.84-.66-1.38h-7.26V18.86zM41.76 17q1.2-1.2 2.82-1.62l-.24-.24q0-.18.24-.24-.42-.18-.72-.48.18-.18.48-.24-.42-.18-.72-.72.18-.18.72-.24-.42-.12-.72-.18 0-.18.24-.24l-.48-.48q.48 0 .72-.24.72 0 1.2-.24.72 0 1.14-.24 1.62 0 2.34-.24.48 1.44.72 2.82.48 1.44.72 2.82v.96q0 .36.48.9.36.18 2.34.24 1.08-.18 2.76-.24h14.34v10.56h-7.98q-.72.42-.72 2.34-.9 2.16-1.14 4.2l-3.54 8.46q-1.14 2.52-2.34 4.92 2.1 1.62 4.92 2.34.9.42 2.82.96 1.8.42 2.58.66 3.24.9 6.3 1.92l-2.76 5.58q-1.86 3.72-2.82 5.4-1.44-.18-2.58-.9-5.82-1.62-7.5-2.34-1.86-.9-3.78-2.16-4.38-2.28-6.06-2.76-3.3 2.22-9.18 4.68l.96-.48-.96-.48q.18-.18.72-.48-.18-.18-.48-.24.48-.48 1.2-.9-.18-.18-.72-.48-.42 0-.72-.24.18-.18.72-.48-.42-.18-.72-.24 0-.18.24-.24-.42-.18-.72-.24.18-.12.72-.18l-.9-.48q0-.18.18-.24-.18-.18-.66-.48l-2.1-1.38q.18-.18.66-.48-.42-.18-.66-.24.18-.48.66-.72l-.9-.48q0-.18.24-.42-.9-.48-1.2-.48.18-.18.72-.24-.18-.18-.48-.24.18-.18.72-.24-.18-.18-.48-.24.72-.48 2.1-.96 1.92-.66 2.34-.9-1.14-1.62-2.58-3.3-1.44-2.28-1.86-3.3.18 0 .72-.42.36 0 .9-.24-.18-.18-.48-.24 0-.18.24-.24-.42-.18-.9-.72l-.48-.48q.18-.18.72-.18-.18-.18-.48-.24 1.38-.9 2.34-1.2-.18-.18-.48-.24.18-.18.48-.24-.9-.72-1.68-.66.18-.18.72-.48-.18-.18-.48-.24h.72q.18-.18.72-.24l-.96-.48.96-.48q-.18-.18-.48-.24l.96-.42-.24-.24q.72-.72 1.38-.96-.18-.18-.48-.24 1.2-.72 2.16-.72-.42-.18-.72-.42.18-.18.72-.48-.42-.18-.72-.24l.9-.48q1.2 1.62 3.06 5.4 2.16 3.24 4.02 4.92 1.08-1.44 2.58-4.68 1.38-3.24 1.86-4.92.48-1.92.9-2.82-.78-.18-5.82-.24-3.66 0-5.4-.24.18-.18.48-.24-.18 0-.72-.24-.18-.18-.96-.24.48-.18.96-.66.48-.18.72-.72l-.24-.24q.48-.9.9-1.14l-.9-.48q0-.18.24-.24-.9-.48-1.2-.48 0-.18-.48-.72.72-.18 1.44-.66.18-.18 1.14-.72l-.24-.24q.18-.18.48-.24-.42-.18-.66-.48.84-.48.9-.48.48-.48.96-.66l-.96-.48q.18 0 .48-.24l.48-.48-.24-.24q.18-.18.72-.24-.9-.48-.96-.42l-.96-.48q.18-.18.72-.48l-.24-.24h.24zm33.3 42.18q3.54-3 4.92-6.54-1.44-.18-4.2-.24v-8.7h13.08q2.64 0 2.82-1.38-4.38-.72-10.08-.24h-3.3V14.42h8.94V30.8q-.72 3.6 0 4.26.18.18 1.14.24h8.46q-.72 0-1.14.66l.9.48q-.42.18-.72.48.18 0 .48.24-1.32.42-1.86.96.18 0 1.2.42-.18 0-.24.24.18 0 .42.24-.6.18-1.38 1.2.18 0 .48.24-.18 0-.48.24.18.06.24.18-.18 0-.24.24.18.18.48.72-.42 0-.96.24l.48.48q-.42.18-.72.48.18.18.24.18-1.32.42-1.86.96l.96.48q-.18.18-.72.24 0 .18-.24.48l.48.42q-.18.18-.24.48.9.42 1.62.96-.42 0-.72.24.48.18.96.72-.42.06-.72.66.18 0 .72.24-.42 0-.72.24l.48.48q-.18 0-.48.24.18 0 .48.24-.18 0-.48.24.48.18.96.66-.42 0-.72.24l.24.24q-.9 0-1.38.48.18.18.66.48-.06 0-.42.24l.24.24q-.9.18-1.2.9.18.18.72.48-.42 0-.96.24 0-2.28-1.86-2.34-1.14 5.76-2.1 8.22l-1.44 2.34q-1.32 1.38-2.34 1.86-.9.9-2.1 1.86-.9-.9-2.34-2.82-1.14-.72-2.1-2.34l-1.62-1.62-.72-.72zm14.28-47.34h8.7q.84 0 1.62-.24 1.44 0 1.62.24 0 .18.24.72-.18 0-.48.24l.96.42q-.72 0-1.2.72.9.18 2.16 1.2-.18 0-.24.24.18 0 .48.24-1.14 0-1.92.66l.24.24q-.9.18-2.58.24-1.08.42-1.14 1.62.48 0 .9.24h1.2q-.18 0-.24.24l.24.24q-.18 0-.48.24.9.18 2.1 1.38-.9.18-2.34 1.2.18.18.72.48h-1.62l-.48 1.38q.48 0 .66.24h.96q-.72 0-1.14.48.12 0 .66.24-.18.18-.24.72.18 0 .48.24-.42 0-.72.18l.48.48q-.18 0-.48.24.48.18 1.44 1.2-1.62 0-2.1.9.72 0 1.14.24h1.44q-.42.42-.96.48-2.04 1.44-2.1 1.38 0 .18.24.48-.42 0-.72.24.18.18.48.72-.18.18-.48.24-.72.72-1.38 1.14.18 0 .42.24-2.04.18-6.54.24V13.04q-.42-1.2 0-1.2zm13.62 6.78h4.68q.72-.18.66-.42.18-.18.24-.96-.78-.18-2.58-.24h-2.1q.18-.18.72-.48l-.24-.24q.18 0 .72-.48.48 0 .9-.18-.36-.18-.66-.48 0-.18.24-.24-.42-.18-.96-.72-.42 0-.72-.24.48-.48.96-.72-.42-.12-.72-.42l.48-.48q-.18-.18-.24-.48H117V34.1H98.28h.42q0-.18.24-.24-.42-.18-.66-.24l.9-.42q-.18-.18-.48-.24.9-.48.72-.48.48-.18.72-.72l-.24-.24.48-.48-.24-.24.9-.42q1.92-1.44 2.34-1.44.48-.48 1.2 0h3.72q0-.48.24-.9-.78 0-2.1-.24-1.08 0-1.86-.24-2.04 0-3.3-.96.18-.18.48-.24l-.48-.48q.18-.18.72-.18-.18-.48-.48-.72 0-.18.24-.24-.42-.18-.72-.24.9-.48 3.06-.48 1.92.42 3.54 0 .72-.18.66-.48.18-.18.24-.9-1.5-.18-3.48-.48-2.16 0-3.06-.24.72-.18 1.38-.72.18-.18 1.2-.66-.42-.48-1.2-.96-.36 0-1.14-.24.18-.18.72-.24-.18-.18-.48-.24.18-.18.48-.24zM117 35.3q1.44 0 1.86-.72V14.42h8.94v27.66q-2.94 0-6.36-.24-3.96 0-5.82.24-.9 0-1.2.24v1.38q2.1.42 6.78.48 2.34-.18 7.08-.24v21.6h-8.94V53.78q-.42-.48-2.34-.48-1.14.18-2.34.24-.72 3.96-.24 9.66v3h-8.88V35.3H117zM91.68 56.12q.48 0 .96.24-.18 0-.24.24.18 0 .72.24-.18 0-.48.24l.48.48q.18 0 .66.48-.18 0-.48.18l.96.48q-.72 0-1.14.48.36 0 .66.24.48.18.72.24-.18 0-.24.24.48.18 1.2.9-.42.18-.72.48l2.34 1.44q.48.54.72.66-.42 0-.72.24l.24.24q.72.18 1.14.48l-.42.48-.48.48.9.48q-2.04.48-6.78.42v-8.88q0-.48-.24-.96 0-.18.24-.24zm4.68-12.66q.18-.18.48-.24-.18-.12-.24-.42.18-.18.72-.48-.18-.18-.48-.24l.96-.48-.48-.48q0-.18.24-.24l-.24-.18q.18-.18.48-.24l-.48-.48q.72-.48 1.62-.96-.18-.18-.48-.24 0-.18.24-.24-.18 0-.66-.24-.18-.12-.72-.18.9-.72 2.1-.96-.18-.18-.48-.24.18-.18.72-.48l-.96-.48q1.2-.66 3.54-.66h1.14v30.9h-2.76q.18-.18.66-.42l-.9-.48.42-.48.48-.48q-.42-.18-.9-.24 0-.18.24-.24-.18-.18-.48-.24.18-.18.48-.24-1.62-1.56-3.06-2.34l.9-.42q-.6-.18-1.38-.72-.72-.72-1.2-.72.48 0 .72-.24.18 0 .48-.24l-.96-.48q.18-.12.48-.18-.42-.48-.72-.48 0-.18-.18-.48 0-.18.18-.24-.18-.18-.42-.24 0-.18.24-.24-.42-.18-.96-.66 0-.18-.24-.72.48 0 .72-.24.18 0 .48-.24-.42-.18-.72-.48.18-.72.9-.9l-.18-.24.42-.48q-.18-.18-.42-.24.36-.48 1.14-.48l-.24-.24q.18-.18.72-.48l-.96-.42q.18-.18.48-.24-.18-.18-.48-.24.18-.18.48-.24l-.48-.48q.18-.18.72-.24-.42-.18-.72-.24.18-.48.72-.66-.42-.48-.96-.72.18-.18.72-.24-.72-.18-1.38-.72-.18 0-.48-.24.18-.48.72-.66l-.48-.48q.18-.18.66-.48-.36-.18-.66-.48 0-.72 1.14-.72zm38.22 14.1q3.54-3.96 4.2-9.84.48-1.44.48-2.58.18-1.44.24-2.82v-5.88h18.3q.18.42.66.96-.36.18-.66.72.84.36 1.14.66.9.42 1.2.72-.18 0-.24.24.48.18.72.24.36.42.66.48-.42.18-.66.42l.9.48q.48.42 0 .72 0 2.52.24 2.82h2.58q.48 0 1.2.72-.42.18-.72.42.18.18.72.48l-.48.48q.48.18 1.86.72-.18.18-.48.24l-.48.42q1.2.42 3.06 1.44 2.34.9 3.54 1.14-.18.18-.24.48.18.18.48.24l.48.48q-.18 0-.48.24 1.38.42 2.1.9l2.34.96q-.42.18-.72.72.18 0 .48.24h.96q-.18 0-.24.24.18 0 .66.24-.06 0-.42.18.66.42 1.38.72.72.72 1.62.72-.18 0-.42.24.48 0 .9.24-.18 0-.48.24l.96.42q-.18 0-.48.24.18 0 .72.24-.18.18-.24.48.18 0 .48.24.48.18.96.24-3.3 0-3.78.72-.18.18-.24 2.58.18 1.56.24 3h-9.36v-1.38q.48-3 0-4.2-.18-.18-.96-.24h-6.06v-7.26h6.06q.72-.18.72-.48.18-.18.24-.96-1.44-.18-4.44-.24h-4.26q-.42 2.16-.48 6.6.18 2.04.24 6.54-1.32 0-2.1-.24-4.68-.36-6.06.24-.72.54-.72.48v1.14h-6.36q0-5.22-.24-7.5-1.32 2.34-2.34 3.54-1.08 1.92-1.86 3.72-1.8-2.22-2.82-3.24-.72-.72-1.38-1.68-.42-.66-1.2-1.38-2.04-2.16-1.62-2.1zm2.1-38.22h2.34q.72 0 2.1.48-.18 0-.42.24.12.18.42.24.18.18.72.24-.18 0-.24.18l.24.24-.48.48.48.48q.18 0 .72.48-.18 0-.24.24 1.56.42 2.58 1.14-.18 0-.48.24 1.2.42 2.1 1.44-.18 0-.48.24.18.36 2.34 1.38.9.42 1.68.72-.18 0-.24.24 1.8.36 2.82 1.62-.18 0-.48.24.48 0 .96.24h-6.36q-.18.42-.24.9 1.44.18 4.44.24l4.26.72q-.42.18-.96.72.48.18.96.66.18.18.24 1.44H142.8V33.2q0-1.2-.24-1.2-.18-.18-3.06-.24-1.44.18-2.82.24V19.34zm7.26.48l-.9-.48h13.8q2.52 0 2.82-1.38-2.52-.48-8.22-.48-3.96.18-7.98.24v-5.4h42.24v5.4h-14.1q-2.22-.48-2.58 1.38 3.24.42 10.08.48 5.16 0 10.32-.24V32h-1.14q-3.66-.72-4.02 0-.72.42-.24 2.1v.72q-1.8 0-2.34.48 0 1.32.96 1.86.9.18 3.24.24 1.2-.18 3.3-.24v6.3h-1.62q-.42.42-.72 1.2 1.2 0 1.86.24h2.16v6.54h-2.16q-3.96-.48-5.58 0-.9.42-.96.48v.96q2.28.18 7.74.24v7.26h-3.78v-.24q0-.18.24-.24-.72-.18-1.38-.72h-.24q0-.18.24-.24-.42-.18-.72-.24.18-.18.48-.24l-.96-.42q.18-.18.48-.24-.42-.18-.9-.24.12-.18.42-.24-.78-.18-1.38-.72-.72-.18-1.44-.72.18-.18.48-.18-.9-.48-1.14-.48-.9-.48-.96-.48.18-.18.72-.48l-2.34-1.14q-2.16-.72-2.1-.72.18-.18.42-.24-.36-.48-.66-.48 0-.18-.24-.48 0-.18.24-.24-1.86-.18-3.78-1.38-.42 0-2.58-1.2.18-.36.72-.66-1.44-.9-1.62-.96.18-.18.42-.24-.36-.18-.66-.48.18-.18.66-.42-.18 0-.66-.48-.18 0-.48-.24.18-.18.72-.48-.42-.48-.48-.72-.18 0-.72-.24.18-.18.48-.24-.18 0-.72-.18-.18-.18-.72-.24.18-.18.72-.48-.42-.18-1.14-.48-.18-.18-.24-2.34.18-1.2.24-2.34 4.62 0 7.02-.24-.72-2.1-.48-1.62l-1.38-.48v-3.54h8.64q0-.48.24-.9-1.44-.18-4.44-.24h-4.44v-3.3h8.64q0-.48.24-.96-1.62-.36-5.16-.42-1.8.18-5.16.24-.72 2.76-.24 7.02v2.34h-9.12q-.18-1.2-.24-3.54v-5.64q-.72-.66-2.34-.18h-8.46l.48-.48q-1.14-.9-2.1-1.2.18-.18.48-.24-1.14-.9-2.34-1.14 0-.18.24-.24-.72-.48-1.44-1.2.18-.18.48-.24l-.24-.24q0-.12.24-.18-.9-.48-1.2-.48.18-.18.48-.24zm3.78 30.72h12.9q0-.48.18-.96-2.04-.48-6.54-.48-2.22.18-6.3.24l-.48.96.24.24zm.48-6.84h1.62q2.82.42 2.82-1.62-1.44-.18-4.44-.24-.18.42-.24 1.62l.24.24zm28.08.72q.9.42 2.1.48 0-.72.48-1.2-.78-.18-2.58-.24-.18.18-.24.72l.24.24zm-15.66-7.98h3.72v4.68q-.42-.18-.72-.24.18-.18.72-.42-.9-.72-1.62-.72l.48-.48q-.9-.72-2.58-1.14l.42-.48-.24-.24q0-.18.24-.48l-.42-.48zm-2.34-9.6v3.3h-2.4q-.36-.18-.66-.24.18-.18.48-.24-1.44-1.44-3.06-1.62 0-.18.24-.48l-.96-.48q-.42 0-.72-.24h7.08zm-5.64 31.86q2.1 0 2.1-2.1-.72-.18-2.1-.24-.18.42-.24 2.1l.24.24zm11.7-15.48q-.42 0-.72.24h-.66v-1.38h.42q.18 0 .48.24-.42.18-.66.48 1.56 0 1.14.42zm-7.98-11.94h1.92v1.92q-.9-.48-1.2-.48.48-.48.96-.72-.42-.48-.72-.48-.18-.18-.96-.24zm37.98 26.04q3-3.24 3.78-7.98.84-3.54.9-8.64v-5.88h4.26q6.06.42 12.42 0 .84-.18 1.14-.96v-1.62h.72q.18.18.48.24.66.42 1.38.72-.18 0-.48.18.18 0 .72.24-.18 0-.48.24.48.18.72.48.18 0 .72.48-.18 0-.24.24.66.72 1.86 1.14-.72.18-.96.96.48 0 .72.24.48.18.72.24l-.48.48.48.42q.9.42 1.62.96-.18 0-.24.24 1.62 1.5 4.02 2.58l-.96.48q.18 0 .48.24-.42.18-.72.42.18 0 1.2.48-.18 0-.48.24.9.42 1.86 1.44-.18 0-.24.18 1.44.9 2.34 1.2l2.34.96q-.42.18-.66.42.84.18 1.86.96-.18 0-.24.24.18.18.48.24.18.18.66.24v.66q-.18 0-.42.24.84.18 1.86 1.2-.42.18-.72.48l.24.24q-.18 0-.48.24.18.18.24.18-.42.18-.72.48.18.18.72.48l-.96.48q-.06-.48-.18-.96h-7.5q-2.34 4.68-7.74 7.74-3.96 2.34-10.08 4.44-1.86-3.84-4.26-6.54-.78 1.44-3.24 4.68l-1.92 2.34q-1.5-2.22-4.92-6.54-2.04-2.16-1.62-2.58zm2.58-34.2v-3.78q2.1 0 3.3.24h3.06q-.42.18-.72.48.18.18 3.96 2.1.72.42 1.44.72-.18 0-.24.24.18 0 .66.18l-.42.48.24.24q-.18 0-.24.24.48 0 .66.24.72.18 1.2.24h-1.44q-1.8-.48-2.1 1.38 1.44.18 4.5.24 2.28 0 3.96.96-.18 0-.24.24.18.42.48.66.18.42.24.96-1.86 0-4.02-.24-2.52 0-3.72.24-.9 0-1.2 1.2 2.64.18 8.94.24v2.76h-12.9V32q0-1.2-.24-1.2-.18-.18-2.58-.18-1.14.06-2.58.18v-7.68zm5.64-10.56h43.8v5.16h-14.28q-2.52-.48-2.82 1.38 3 .42 10.08.48 5.16 0 10.08-.24V30.8h-1.14q-3.6-.36-3.78 0-.72.42-.24 1.92v.66h-13.38v-2.76h7.98q.48 0 .96-.24 0-.48.24-.96-2.94-.72-7.02-.24h-2.16v-2.82h1.92q3.24.42 6.3 0 .72-.18.72-.48.18-.18.24-.9-3.48-.72-7.98-.24h-2.58q-.42 1.5-.48 4.92.18 1.5.24 4.92 3.24.42 10.32.48 5.4 0 10.56-.24v7.74h-11.52q-1.32 0-2.82-.24-1.8 0-2.52.24-.9.18-1.2.9 0 .72-.24 1.44-.18-.18-.72-.48-.42 0-.66-.24.18-.18.42-.24-.6-.48-1.14-.48.18-.18.72-.42-.18-.18-.48-.24l.9-.48-2.34-1.44q-.6-.66-1.62-1.14 0-.18.24-.48-.9-.48-1.2-.72-.78-.48-.9-.42l.48-.48q-.9-.48-1.2-.48.18-.72.72-.96-.42-.18-.96-.66-.18-.18-.72-.48 0-.18.24-.24-.6-.48-1.62-.96.18-.18.48-.24-.42-.18-.72-.24.18-.18.48-.18-.42-.18-1.2-.24 0-.18.24-.48-1.32-.72-1.14-.48-.42-.48-.48-.72-.18-.72-.24-2.34.18-.9.24-2.34v-1.62q-.42-.48-3.54-.48-1.32.18-3.48.24-.9-.18-1.68-.96 0-.18.24-.48-.18-.18-.42-.18 0-.18.18-.48-.36-.18-2.34-.96-.78-.18-1.86-.96-.9-.36-1.14-.66 0-.18.18-.24-.06 0-.66-.24-.18-.18-.72-.24h12.66q2.28 0 2.58-1.38-2.76-.48-8.7-.48-4.14.18-8.4.24v-5.16zm4.2 45q5.88-1.44 9.6-3.54-.9-.18-3.06-.24h-2.76v-8.16h10.26q.18-.18.24-1.44V42.8q-4.14-.72-9.36-.24h-2.82q0 .72-.24 1.14-.42 4.68-.66 6.84-.18 3.24-1.44 6.78l.24.24zm20.16.48h2.82q4.98.36 6.06-2.82.72.18 2.16 1.14-.18 0-.24.24l.24.24q-.18 0-.24.24 2.1.72 3.72 2.34.72.42 1.2.96-.42.18-.72.66.18.18.48.24.48.54.72.48-.42.54-.72.96.18 0 .48.24-.18 0-.48.24.48 0 .96.18-.18 0-.24.24.18 0 .42.24-2.52 1.26-6.06 1.68-2.16.18-6.6.24-1.8-3.78-2.58-5.4-.36-.72-.9-1.68-.18-.48-.48-.66zm5.4-12.24q2.52-.36 7.98-.42 4.26.18 8.16.24v10.26l-.9 4.26q-.18 2.1-1.44 3.48 0-.18.24-.24-.42-.18-.9-.18.18-.18.42-.24-.06-.18-.42-.24.18-.18.24-.48.36-.36.42-.48-.42-.36-.66-.48-.18-.18-.72-.24.48-.48.96-.66-.42-.48-.96-.48-2.04-1.44-2.1-1.44-.18-.36-.72-.9l-1.14-.48q0-.18.18-.24-.18-.18-.42-.24.18-.18.42-.24-1.32-.9-2.58-1.38.18-.18 1.2-.72-.42-.18-.72-.48.18-.18.72-.48l-.24-.18q.18-.18.48-.24l-.24-.24q.18-.18.72-.48-.9-.9-1.92-1.2l.48-.9q-.42-.18-.9-.24-.42-.9-.72-.96 0-.18-.96-.48.18-.18.72-.42-1.62-.9-3.3-1.44-2.04-.72-1.38-.72zm-16.86-19.44h2.34v1.44q-.18-.18-.48-.24 0-.18.24-.24-1.44-.72-2.1-.96zM254.58 32q2.1-3 3.96-6.54 1.92-2.64 3.54-6.6.9-3.24 1.62-4.68 0-1.56.48-1.86h.72q1.38.42 4.68 1.38.9.42 2.34.96.48.18 2.1.96 0 .36-.48.9l-.9 2.82h2.82q3 0 4.44.72-1.14.18-2.1 1.14l.9.48q-.42.18-.9.24-.42.42-.72.48 1.2.42 2.34 1.14-.18 0-.24.24.48.42.72.72-.72 0-1.44.72l.96.48q-.18 0-.48.18l.24.24-.9.48q.12.18.66.48-.42.18-.66.48.36.42 1.86 1.38l-.96.48q.18.18.72.48h-7.74q0-5.88-.24-8.46-2.52 5.1-2.1 15.24.18 4.68.24 9.36.18 0 .48.24 1.8-2.82 5.16-7.98 1.56-2.28 4.44-7.5.72.42 1.38.72.72 0 1.68.48-.42.18-.72.48.18 0 .72.24-1.44.42-2.4.9.9.42 1.68.96-.18 0-.24.24.18 0 .48.24-.18 0-.48.24l.24.24-.48.42q.18.18.48.24.48.42.72.48-.18.18-.24.72.66.18 2.1 1.14-.18 0-.24.24.18.18.72.48-.72.18-1.2.96.18 0 1.2.48-.42 0-.72.18.18 0 .48.24-.42.18-.96.72.18 0 .72.24-.18 0-.48.24.18 0 .72.24l-.96.48q.18 0 .72.18l-.96.48q0-.84-.24-1.14v-1.2q-.42.42-.48.72-.6.9-1.62 2.82-1.14 2.52-1.62 3.06 1.56 0 3.06.66l-.96.48q.18 0 .72.24-.18 0-.24.24l.48.48q-.42 0-.72.24l.48.42q-.9.18-1.68.96.48.18.72.48.48.18.96.24l-.96.48 2.34 1.14q.72.42 1.44.72-.42 0-.72.24 2.28.42 3.72 1.86-.42 0-.66.24.18 0 .66.24-.18 0-.24.24.18.18.72.48-.42.18-.72.66.48.42.72.72.18.18 1.2.72-.18 0-.24.24.18 0 .66.24-.06.18-.66.18 0 .18-.24.48h.48q.66.54 1.38.72-.18 0-.24.24 0 .18.24.48-.72 0-1.38.66.18 0 .42.24-.36.18-.66.48.18 0 .48.24l-.96.48q.18 0 .48.24-.42 0-.72.24l.48.48q-1.86.48-5.88.42v-8.64q-.42-.48-2.58-.48-1.08.18-2.58.24 0-4.98-.48-6.6-1.32 1.86-2.1 3.06-.9 1.44-2.1 2.82l-.48-.48-3.48-2.82q-.42 2.16-.48 6.6.18 2.04.24 6.3h-9.84q0-4.26.24-6.3.18-4.44.24-9.18 0-4.62-.72-8.88-1.44 1.14-2.58 3.06-.18-1.44-.72-3.06-.9-4.44-1.14-6.12 0-.36-.24-.9-1.14-2.34-.72-2.82zm25.56-9.6q.48 0 .66-.24.48-.18.72-.48-.42-.18-.9-.72.18 0 .42-.24l1.92-.9-.24-.24h2.1q1.56 0 1.86-.24v-7.26h9.36v7.26q.18.18 1.44.24h11.7V29.9h-4.68q-2.94 0-3.96.48l.9 2.82q1.92 5.58 3.78 7.92.48.42.66.96 2.34 2.22 3.3 3.72 1.62 2.16 2.34 4.02-3.48 3.24-6.78 6.78-2.76-4.26-3.96-5.88-.18.9-.24 3.06v3.54q-1.14 0-2.34-.24-1.62 0-2.16.48v8.64h-3.72.24l.48-.42-.48-.48q.18-.18.72-.24-.18-.18-.48-.24.18-.18.66-.48-.18-.18-.42-.24.18-.18.66-.48l-.24-.24q.72-.6 1.2-.9l-.24-.24q0-.18.24-.24-1.44-.9-1.62-.96.18-.18.66-.42-.18-.18-.42-.24 0-.18.18-.24-.78-.48-1.14-.72-.42-.48-.96-.72l.48-.48q.18 0 .48-.18l-.96-.48q0-.18.24-.24-.42-.18-.72-.24.18-.18.72-.24-1.5-1.62-3.48-1.86.18-.18.66-.24-.78-.48-2.1-1.2-2.04-.66-1.86-.66l.96-.48q-.42-.48-.96-.48l-.48-.48.96-.48-.24-.24q.18-.12.48-.18l-.24-.24q.18-.18.66-.24l-.42-.48q0-.18.24-.24-.42-.18-.72-.24l.9-.48-.42-.42h.42q.48 0 .72-.24.18-.18-.24-2.58.18-.18.24-.48.18-.18.72-.48-.42-.18-.72-.48.48 0 .72-.24.48-.18.72-.48-.42-.12-.72-.18l.9-.48q-.36-.18-.66-.24.18-.18.48-.24-.42-.18-.72-.24.48-.48.9-.72-.06-.18-.42-.24.18-.18.66-.18-.78-.48-1.14-.48.48-.72 1.14-1.2-.36-.18-.66-.24 0-.18.24-.24-1.86-1.38-2.34-1.62 0-.18.18-.48-.36-.18-1.14-.72.18-.12.48-.18l-.24-.24q.18-.18.48-.24-.18-.18-.48-.24 0-.18.24-.24l-.72-.72q-.42 0-.72-.24.9-.66 2.1-.9-.36-.18-.66-.48.18-.18.66-.24-1.32-.48-3-1.62 0-.18.24-.24-.18 0-.72-.48-.18 0-.48-.24.48 0 .72-.24.18 0 .48-.24-.18 0-.72-.48l-1.44-.9q.18-.18.72-.48-.42-.18-.72-.48l.96-.48-.24-.24q.18-.18.48-.18l-.96-.48q.48 0 .72-.24.48-.18.72-.48l-.72-.72q0-.18.24-.48-.18 0-.72-.42-.18 0-.48-.24-.36-.18-.9-.24zm16.14 25.8q1.2 0 1.44-.24.72 0 1.38-.24-.9-1.2-1.62-3.06-.42-1.44-1.2-2.82-.18.9-.24 3.06v3.06l.24.24z"/></svg>