<svg viewBox="0 0 341 80" xmlns="http://www.w3.org/2000/svg"><path d="M51.22 47.42q-1.8 2.04-3.24 4.08 9.72 4.5 17.58 8.88 1.08.6 1.26 1.5.3.9-.12 1.68-.54 1.08-1.32 1.26-.9.54-2.04-.18-8.16-4.8-18.3-9.48-4.38 5.22-8.4 9.66-.9.9-1.86.96-.78 0-1.62-.66-.78-.54-.9-1.5-.18-.96.72-1.92 3.72-3.9 7.62-8.52-.96-.48-1.92-.9-14.64-6.48-19.2-8.16-.96-.48-1.5-1.32-.36-.9.06-1.86.36-.84 1.2-1.2t2.04.06q5.58 2.22 20.04 8.58 1.2.42 2.34 1.08 2.1-2.64 4.32-5.46 8.22-10.62 10.5-13.98.72-.9 1.62-1.14.9-.18 1.74.48.72.6.96 1.44.12.96-.6 1.98-2.94 4.2-10.98 14.64zM40.84 16.64q.36-1.44.42-1.8.18-1.2 1.08-1.68.72-.54 1.8-.24.9.18 1.38.96.54.9.3 1.98-.18.6-.42 2.16-.18.6-.3 1.26l22.74-1.2q1.26 0 1.8.6.66.72.72 1.86 0 .9-.72 1.74-.6.78-1.8.78l-49.8 2.64q-1.26 0-1.86-.66-.72-.72-.66-1.86 0-1.08.72-1.86.84-.84 1.92-.66l21.9-1.14q0-.18.12-.42.36-1.08.66-2.46zm73.56 15.9l-23.52 1.2v1.14q0 1.08.12 1.32.48.78 1.32.78 7.56 0 21.72-.9.18-1.74.36-3.54zM91 29.36l23.7-1.14q.18-4.44.06-8.94 0-.9-.36-1.32-.42-.36-1.68-.48-10.86-.3-21.18 1.2-.06.54-.06 1.2l20.88 1.02q1.08 0 1.62.6.54.54.54 1.56 0 .78-.54 1.5t-1.56.66L91.24 24.2q-.18 2.94-.24 5.16zm21.96-16.44q3.06 0 4.68 1.14 1.98 1.62 1.98 4.14.3 9.72-.66 17.58.3-.12.66-.06 1.08-.18 1.74.42.54.6.6 1.44 0 .96-.36 1.62-.54.78-1.98.9-16.8.96-28.02 1.02-2.52 0-4.14-1.32-1.5-1.2-1.56-3.84 0-4.26.36-11.94v-.06q-.96 0-1.62-.66-.54-.48-.48-1.62 0-.9.6-1.5.66-.72 1.62-.54h.24q.12-1.2.18-2.4 0-1.2.84-1.92.72-.72 1.62-.78.3 0 .36.06.12-.18.36-.18 10.98-1.8 22.98-1.5zm15.42 6.18l.66 25.38-.06.06q.36.54.42 1.5 0 .96-.66 1.8-.72.72-1.86.72l-15.78-.48-.3 3.6q5.34-.9 11.04-.96 3.24 0 4.92 1.32 1.98 1.68 2.04 4.38 0 4.2-.6 7.56-.18 1.26-1.02 1.8-.78.72-1.86.6-.9 0-1.62-.84-.54-.54-.36-1.56.54-3 .6-6.48 0-.9-.54-1.38-.54-.36-1.86-.36-5.76 0-11.1.96l-.48 7.2q0 1.44-.78 1.86-.9.66-2.04.54-1.14 0-1.62-.6-.54-.54-.42-1.92l1.2-18.12q0-1.08.6-1.68.54-.66 1.32-.72.66-.48 1.56-.36l14.34.54-.72-24.3q-.06-1.02.48-1.68.66-.9 1.86-.96 1.26-.18 1.86.66.72.78.78 1.92zm-50.34 3.42q.12-1.26.9-1.98.66-.72 1.62-.72.9 0 1.62.78.84.72.72 1.92Q81.22 38 81.04 42.14q0 1.08.24 1.32.54.72 1.44.66 3.9 0 11.46-.36.3-.3 1.08-.3 1.26-.18 1.86.66.72.78.78 1.92l.42 17.88q0 1.44-.66 1.92-.78.72-1.92.78-1.26 0-1.68-.54-.6-.42-.6-1.8l-.3-7.74-8.94-.66q-.18 1.14-.6 3.54-.54 2.82-1.14 4.86-.42 1.26-1.2 1.56-.78.54-1.8.18-.96-.18-1.44-.96-.54-.9-.18-2.04.66-1.98 1.2-4.8.3-1.62.42-2.7h-1.2q-1.26 0-1.86-.72-.72-.72-.66-1.86 0-1.08.72-1.86.72-.72 1.92-.66l14.52 1.14v-2.88h-11.1q-2.4 0-4.14-1.38-1.62-1.26-1.62-4.08.36-6.6 1.98-20.7zm58.08-6.66q9.84-2.34 14.94-2.88 5.16-.66 10.08-.6 7.2 0 10.8 3.06 3.54 2.88 3.42 8.04 0 4.56-2.94 9-3.78 5.58-10.08 10.44-4.2 3.12-14.4 6.36-1.5.42-2.4-.6-.96-.9-.54-2.4.48-1.44 2.22-2.04 8.76-3 12.12-5.52 4.26-3.18 7.56-7.8 3.54-4.62 3.48-7.92 0-2.82-1.86-3.96-2.58-1.62-8.22-1.8-5.4.06-9.66.6-2.94.24-6.3 1.08v.24q-.54 19.98-1.2 26.82-.42 5.64-1.86 14.34-.42 1.92-1.8 2.58-1.44.72-2.7-.42-.9-1.02-.54-2.34 1.38-8.04 2.1-16.08.66-8.22.9-23.94-.42.06-.78.18-1.68.6-2.7-.06-1.32-1.02-1.02-2.52.3-1.44 1.38-1.86zm42 26.04q0-7.5 2.46-13.44 3.6-8.4 9.42-12.6 5.16-3.78 11.52-3.78.12-.12.3-.06.12 0 .3.06 5.52 0 10.44 3.24 4.32 2.88 7.08 8.7 2.34 5.1 2.4 11.34 0 6.36-2.22 11.7-1.68 4.14-4.5 7.08-2.34 2.4-9.06 6.6-.24.06-.54.24.12.72-.36 1.56-.9 1.26-2.04 1.2-7.62-.6-12.9-3.06-5.28-2.52-8.46-6.78-3.78-5.22-3.84-12zm14.58-22.02q-4.2 2.88-6.84 8.88-2.88 6.66-2.88 13.44 0 4.14 1.98 7.56 1.8 3.24 5.64 5.4 4.68 2.58 12.06 3.48-.06-.3 0-.42.12-1.26 1.38-2.16 8.22-4.8 10.68-9.36 2.52-4.68 2.52-10.62 0-5.76-1.98-10.26-1.86-4.26-5.16-6.66-3.42-2.46-8.16-2.46-4.86 0-9.24 3.18zm34.02-4.02q9.84-2.34 14.94-2.88 5.16-.66 10.08-.6 7.2 0 10.8 3.06 3.54 2.88 3.42 8.04 0 4.56-2.94 9-3.78 5.58-10.08 10.44-4.2 3.12-14.4 6.36-1.5.42-2.4-.6-.96-.9-.54-2.4.48-1.44 2.22-2.04 8.76-3 12.12-5.52 4.26-3.18 7.56-7.8 3.54-4.62 3.48-7.92 0-2.82-1.86-3.96-2.58-1.62-8.22-1.8-5.4.06-9.66.6-2.94.24-6.3 1.08v.24q-.54 19.98-1.2 26.82-.42 5.64-1.86 14.34-.42 1.92-1.8 2.58-1.44.72-2.7-.42-.9-1.02-.54-2.34 1.38-8.04 2.1-16.08.66-8.22.9-23.94-.42.06-.78.18-1.68.6-2.7-.06-1.32-1.02-1.02-2.52.3-1.44 1.38-1.86zm76.92 36.9l-1.32-29.4-6.6-.24q0 .24.06.78-.54 4.56-2.4 16.08-1.14 6.48-2.34 12.18.36-.18.78-.12l11.82.72zm13.68.66l-3.66-29.52-6.36-.3 1.26 29.4 8.76.42zm1.32-29.28l4.38 35.4q.18 1.26-.48 1.92-.72.9-1.8.96-1.14.18-1.8-.36-.6-.54-.72-1.74l-.3-1.92h-.3l-8.82-.36.3 5.22q0 1.38-.54 1.86-.78.9-1.98.78-1.14.18-1.68-.48-.54-.54-.66-1.8l-.3-5.82-12.24-.66q-1.08 0-1.62-.54-.42 1.62-.78 3.12-.36 1.26-1.08 1.62-.78.54-1.8.24-.96-.18-1.5-.84-.54-.84-.3-2.1 2.34-8.76 4.2-20.1 1.98-11.7 2.28-15.3v-.3l-3.84-.24q-1.26 0-1.86-.72-.72-.72-.66-1.86 0-1.08.72-1.86.84-.72 1.92-.66l14.58.72v-3.6q-.06-.9.48-1.68.54-.9 1.8-.96 1.26-.12 1.86.6.72.72.78 1.92l.18 3.96 13.86.66q1.2 0 1.8.66.66.72.72 1.8 0 .96-.72 1.74t-1.8.72h-2.28zM277 16.28q3.06-2.46 4.02-3.18.84-.72 1.86-.66.9.06 1.56.84t.54 1.68q-.06.96-1.08 1.74-1.14.9-3.9 3.3.12.24.18.66l1.98 42.78q0 1.44-.6 1.92-.78.84-1.92.78-1.26.18-1.68-.48-.54-.54-.66-1.8l-1.92-40.38q-.72.36-1.2.78-1.08.72-1.98.42-.78-.18-1.38-1.02-.54-.84-.48-1.68.12-1.02 1.14-1.68 2.52-1.62 5.52-4.02z"/></svg>