<svg viewBox="0 0 448 80" xmlns="http://www.w3.org/2000/svg"><path d="M29.76 25.22q7.5-2.04 19.32-2.94 4.74.6 4.38 3.36-.42 2.76-3.48 3.12-3.18.18-5.94.48.48 7.68-5.1 18 8.34 8.34 19.68 10.8 3.06 1.14 2.58 3.9-.54 2.76-4.2 2.52-13.08-3.42-20.34-11.4-.42-.42-.72-.84-6.84 9.6-16.26 10.86-4.32-.3-4.56-3.21-.24-2.91 4.74-2.19 6.96-1.5 12.12-9.48-4.68-4.26-8.88-6.12-2.4-1.2-1.8-3.93.6-2.73 4.26-1.65 3.72 1.62 9.24 6.72 3.6-7.5 3.12-12.96-.06-.18-.06-.3-5.58.66-8.7 1.62-5.88 1.74-7.8 1.8-2.94.18-3.42-2.4-.48-2.64 3.12-3.54 1.2-.18 8.7-2.22zm7.14-4.56q-1.8-1.62-6.54-2.52-1.74.18-2.64-2.46-.78-2.76 3.6-3.42 6.24.9 7.98 3.12 2.64 3.06.99 4.86-1.65 1.8-3.39.42zm57.54 24.9q-.3 8.7-.6 17.82-.42 3.78-3.06 3.54-2.58-.3-2.58-3.66.24-4.92.42-8.28-2.04.24-4.74.96.06.12.12.3.42 2.64-1.65 6t-4.05 4.02q-2.82 1.14-3.87-.87-1.05-2.01 2.07-3.81.54-.24 1.2-1.44.72-1.32.6-2.04-.06-.24-.06-.42-1.5.48-3.12 1.08-2.4.48-2.88-1.68-.6-2.16 1.98-3.3 10.02-3.54 14.52-4.2-.12-2.22-.3-2.52-.36-.18-5.49 1.41-5.13 1.59-5.79 1.53-2.16-.42-2.4-2.04-.12-1.56.9-2.46-.06-.3-.06-.6.18-1.56.39-6.33.21-4.77.09-5.25-.96-2.1.78-3.54t3.36-.45q1.62.99 1.74 2.61.06 1.74-.24 6.96-.18 2.7-.18 4.32 3.66-1.2 7.5-2.28 2.34-.6 3.93.96 1.59 1.56 1.47 3.66zm-9.12-8.52q-.12-1.5.03-10.32t-.27-9.78q-.3-3.18 2.16-3.6 1.44-.18 2.46.66 5.76-2.4 11.04-2.34 2.88.06 4.26 1.86 1.38 1.74 1.38 9.54 0 7.68-.12 11.16-.06 3.3-1.26 4.47t-3.18.45q-1.86-.72-1.56-1.92-.48.12-.9.24-1.98.18-5.58.96-2.52.48-4.02.66-.54.42-1.38.54-2.22.3-3.06-2.58zm7.32-10.14q3.78-1.08 4.86-1.2 2.88.12 2.76 2.34-.12 2.1-2.88 2.64-1.68.12-4.2.84-1.74.12-2.34-.78-.06 1.8.06 3.24.96-.18 2.34-.48 3.54-.78 6.36-1.2.72 0 1.38.18v-7.5q-.06-6.72-.42-7.14-.42-.78-1.02-.9-2.88-.06-8.7 1.92v2.64q.48-.6 1.56-.9 3.6-1.14 4.68-1.2 2.82 0 2.7 2.28-.12 2.28-2.82 2.64-1.32.06-4.02.9-1.5.18-2.1-.72v.6q-.06 1.62 0 3.12.48-.84 1.8-1.32zm4.86 36.72q.24-2.58.42-10.62.12-8.1-.06-9-1.02-2.1.72-3.63 1.74-1.53 3.48-.57.54.3 1.02.9 3.6-1.08 6.36-1.68 0-.24.12-.42.24-.66.66-5.34.42-4.68.12-5.28-1.08-4.32 1.56-4.8 2.58-.48 3.9 1.92.48 1.08.06 7.8-.24 3.24-.48 5.34 1.98.3 2.1 2.22.12 2.4-3.36 3.24-5.34.78-10.2 2.22-.06 1.32-.06 3.06 4.26-1.86 6.42-2.46 2.34-.66 4.56.72 2.16 1.26 2.04 5.1 0 2.22-.3 10.44.06 2.04-1.53 3.18-1.59 1.14-3.3-.15-1.71-1.29-.51-3.69.24-.36.24-4.98 0-4.68-.42-4.92-.84-.36-7.32 1.86-.3 7.92-.3 9.84-1.14 3.3-3.48 3.06-2.34-.3-2.46-3.36zm59.88-20.04q.54-2.16 4.32-1.2 9.9 4.26 18.9 14.82 2.82 3.78 1.29 6.03-1.53 2.25-3.93 1.08-2.4-1.17-3.54-4.41-6.78-8.88-15.6-12.78-1.92-1.32-1.44-3.54zm11.46-10.5q-6.84 1.98-12.06 3.36-.78 2.58-1.74 5.52-5.94 17.22-18.84 21.36-4.38.48-5.16-2.37-.78-2.85 4.32-3.03 9.3-3.9 13.86-17.22.48-1.38.84-2.58-7.74 1.62-10.02 1.02-3.42-.96-2.91-3.66.51-2.7 2.61-2.28 2.52.42 12.06-2.04 1.08-7.02-.24-11.94-1.38-4.14 1.14-5.34 2.52-1.2 3.9.54 2.64 6.24 1.5 15 3.78-1.08 8.28-2.46 3.66-1.44 5.1 1.56 1.32 3-2.64 4.56zm68.4 15.36q-8.82-2.16-13.74-7.5-4.38-4.74-8.16-6.72-13.32 13.98-19.8 16.5-3.66.72-4.83-.9t1.71-2.88q6.3-2.64 18.48-16.14 1.38-1.68 1.8-3.18.42-1.62 2.34-2.04 2.04-.54 3.6 1.44.9 1.2.12 2.94 2.76 1.8 6.66 5.64 5.58 5.52 13.14 7.08 2.82.96 2.4 3.42-.48 2.46-3.72 2.34zm-24.06 7.8q-1.26-.96-2.64-3.9-.66-2.94 1.02-3.84 1.56-.84 3.66 1.62.42.9 1.2 1.5 2.82.84 1.38 3.48-1.32 2.58-4.62 1.14zm-6.6-10.44q-.42-2.58 2.76-3.36 7.62-1.56 10.68-1.5 4.02.48 3.21 3.36-.81 2.88-3.87 2.64-3.12-.06-9.84 1.2-2.52.36-2.94-2.34zm23.58 4.74q.3 1.56-3.24 5.16-1.2 1.08-2.1 2.1 5.94.18 11.1 1.74 3.84 1.38 2.76 4.56-1.08 3.18-4.14 1.86-8.28-3.42-20.64-1.68-12.36 1.74-17.16 2.28-2.22 0-2.7-2.7-.48-2.76 3.42-3.24 2.58-.42 8.04-1.08-.54-.48-.9-1.2-.9-1.68-2.22-2.22-1.14-.6-1.08-2.97.06-2.37 3.42-1.83 2.82 1.08 4.74 4.74.6 1.92-.18 2.94 2.22-.3 4.86-.66 1.2-.18 2.52-.24.18-.36.48-.54 1.62-1.2 4.14-3.96 2.52-2.76 2.46-3.96.3-2.34 2.94-2.58 2.58-.3 3.48 3.48zm-13.08-28.56q-4.98 4.8-9.6 4.98-1.44-.24-2.31-1.17-.87-.93-2.25-1.29-1.2-.06-4.32 2.34-2.52 1.62-3.84-.48-1.26-2.16.96-3.66 4.14-3.6 4.38-5.76.66-2.64 2.94-2.82 2.28-.18 2.82 2.1.36 1.26-.3 2.4-.72 1.26.18 1.14.66.12 1.35.6.69.48 1.65.6 1.92-.18 6.78-4.5 4.8-4.38 8.88-4.86 3.12-.12 5.4 1.74 1.44 1.26.84 2.34-.66 1.02-.3 1.56.3.36 3.75.66 3.45.3 3.45 2.1.12 3.66-3.96 5.04-4.14 1.32-4.38-.12-.3-1.44-.96-1.68-.72-.24-2.4.18t-2.94-1.68q-.9-1.14 1.5-3.48.9-1.2-.48-1.26-1.8.18-6.84 4.98zm67.98.84q-5.22.06-13.59 2.34-8.37 2.28-10.17 2.58h-.48q-.78 2.64-.96 5.64-.72 2.64-2.79 2.28-2.07-.36-2.55-2.46-.12-6.18 2.76-11.16 2.34-2.28 3.9-1.32.6.36.9 1.08 2.28-.66 8.34-2.16 1.74-.48 3.42-.84-1.08-.66-2.1-.9-2.7-.9-3-3.3-.36-2.4 2.52-2.64 3.3.36 7.38 2.7 1.26 1.2 1.14 3.18 2.7-.36 5.04-.36 9.18.06 12.54 3.9 2.94 2.04 2.34 4.32-.84 3.24-7.74 5.16-2.82.66-3.54-.93-.72-1.59.96-2.73 2.46-1.68 2.28-1.98.18-1.68-6.6-2.4zm-2.94 26.88q1.14 8.34-1.98 13.5-2.52 3.9-7.86 2.64-5.4-.84-9.42-4.98-.9-1.14.18-2.58 1.14-1.44 3.3-.18 3.54 2.58 7.26 2.94 1.08.06 1.5-.54 2.46-3.66 1.2-10.26-8.64.96-18.48 3.78-5.1 1.08-5.79-1.74-.69-2.82 3.45-4.2 10.02-2.58 18.66-3.78-.72-.84-1.62-1.38-1.86-2.46-.48-4.44 1.14-1.92 4.02-.78 2.82-1.8 3.78-2.82 1.2-1.26.9-1.8-.24-.48-5.04.78-6.18 1.86-7.98 2.1-3.36.6-3.6-2.04-.3-2.58 3.06-3.66 1.08-.24 8.16-1.86 9.48-2.28 11.64.24 2.7 2.82-1.26 7.32-3.06 3.42-6.24 5.16.66 1.08 1.26 2.34 9.48-.84 16.98.18 3.72 1.26 2.88 4.08-.84 2.82-4.38 2.7-6.48-1.14-14.1-.72zm39.9-16.62q12.18-3.6 15.6-5.28 3.3-2.1 5.61-.24 2.31 1.86 1.47 3.6-.78 1.98-6.66 3-1.2.18-2.46.48-.06.36-.12.78-.36 1.68-.6 3.42 3.12-.42 7.02-.6 2.82-.06 3.36 1.98.6 1.98-1.98 3.24-2.82 1.02-6.6.84-1.32-.06-2.52.06-.3 1.98-.36 3.84 7.2-.78 16.62-.84 4.44.84 3.9 3.42-.54 2.58-3.42 2.7-10.26-.06-17.1.54.18 3.18 1.26 4.44 1.8 2.16 9.06 2.22 7.32 0 10.2-1.38 1.62-1.02 1.74-2.34.06-1.2-.06-3.42.06-2.58 2.04-3 2.04-.54 3.06 2.52.78 2.58.66 5.16-.36 4.26-4.02 6.18-3.84 1.92-14.1 1.74-10.32-.12-13.32-3.54-2.28-2.28-2.64-7.92-1.62.18-2.88.54-7.5 1.68-9.84 1.62-2.7-.12-2.97-2.52T315 51.2q1.62-.06 11.1-1.92.84-.18 1.68-.3.12-1.68.36-3.48-3.06.72-5.34.72-2.94-.42-2.7-2.73.24-2.31 2.76-2.61 1.68-.06 6.06-.96.3-1.92.72-3.96-2.82.66-5.94 1.62-3.18 0-3.48-1.77-.3-1.77 1.8-2.73zM336.78 23q-4.74 5.28-9.42 5.82-1.44-.36-2.34-1.32-.78-1.08-2.16-1.5-1.26.12-4.14 2.94-2.52 1.68-3.84-.48-1.26-2.16.96-3.66 4.26-4.5 4.26-6.96.66-2.7 2.94-2.88 2.28-.18 2.82 2.16.48 1.38-.33 2.85-.81 1.47.15 1.29.72.18 1.35.78.63.6 1.53.84 1.98-.36 6.6-5.22 4.62-4.86 8.7-5.7 3.12.06 5.28 1.92 1.62 1.56.93 2.79-.69 1.23-.27 1.77.18.42 3.6.84t3.36 2.16q.12 3.78-4.02 5.04-4.14 1.38-4.38-.06-.3-1.44-.96-1.68-.6-.3-2.34.06-1.62.3-2.76-1.74-1.14-1.38 1.38-4.2 1.2-1.2-.3-1.5-1.86.36-6.6 5.64zm69 13.62q6.96 1.68 14.58 5.88 3.72 2.4 3.12 4.86-.6 2.46-3.09 2.22-2.49-.24-4.59-2.64-5.1-3.24-10.14-4.74-.12 3.9-.12 7.2 1.92-.36 3.72-.6 3.66.18 3.6 2.82-.06 2.58-3.9 3.24-1.5.12-3.48.54-.12 6.48-.12 7.86-.72 3.36-3.84 3.36t-2.58-4.32q.18-2.52.36-5.76-3.6.72-5.22.54-3.12-.78-2.85-3.21.27-2.43 2.97-2.49 1.2.06 5.4-.78.12-4.38.18-9.72-.66-.18-1.38-.18-7.26 8.76-11.94 10.44-3.12.72-3.63-1.62-.51-2.34 2.37-3.6 5.4-3 12.66-14.1-5.82 1.32-7.5.96-3.36-1.02-2.91-3.66.45-2.64 2.49-2.22 2.04.3 9.84-1.86-.12-7.68-.66-8.28-.96-3.18.9-4.47 1.86-1.29 4.5.45 1.02.72 1.32 10.44 1.5-.48 3.18-1.02 3.6-1.5 4.98 1.44 1.32 2.94-2.52 4.5-3.06.84-5.58 1.62-.06 3.12-.12 6.9zm-35.94 4.08q9.54-13.5 10.02-20.28.06-.78-.06-1.56t.99-2.43q1.11-1.65 3.81-.99 2.64.54 1.98 4.68-.72 5.82-5.22 13.68.48.54.9 1.62.3 1.32-.12 9.54-.48 8.16 0 14.16.12 3.6-2.4 4.02-2.64.3-3.48-2.82-.3-7.14.18-14.64.12-2.76.24-4.74-.84 1.02-1.62 2.16-3.42 2.82-5.1 1.35-1.68-1.47-.12-3.75z"/></svg>