<svg viewBox="0 0 387 80" xmlns="http://www.w3.org/2000/svg"><path d="M28.58 26.24q7.92-2.1 20.46-3 3.18.42 2.94 2.28-.24 1.86-2.34 2.16-4.2.3-7.68.6.96 7.98-5.1 19.14l.48.48q8.58 8.64 20.28 11.16 2.1.78 1.74 2.64-.36 1.86-2.88 1.74-13.26-3.36-20.7-11.52l-.96-1.08q-6.66 10.02-16.14 11.34-2.88-.24-3.06-2.22-.18-1.98 3.18-1.44 7.62-1.68 13.08-10.62-5.22-4.92-9.9-7.02-1.62-.78-1.2-2.64.36-1.92 2.88-1.14 3.96 1.68 10.08 7.32 4.62-8.94 4.02-15.42v-.24q-6.48.78-9.96 1.86-6.18 1.86-8.22 1.92-1.98.12-2.28-1.62-.3-1.74 2.1-2.4 1.32-.18 9.18-2.28zm7.86-6.06Q34.46 18.2 29 17q-1.14.18-1.74-1.68-.54-1.8 2.4-2.22 6.66 1.14 8.46 3.54 1.74 2.04.6 3.24-1.08 1.26-2.28.3zm48.9 17.04q-.12-1.62-.06-10.8.06-5.64-.06-8.22-.24-.54-.06-1.02-.06-.72-.18-.96-.24-2.1 1.38-2.4 1.44-.24 2.16 1.14 6.24-2.52 11.88-2.34 1.92.12 2.88 1.32 1.32 1.74 1.2 9.54-.06 7.86-.24 11.28-.06 2.22-.84 3-.84.78-2.16.3-1.26-.48-.96-1.56.06-.24.18-.48-.54.24-1.26.36-2.16.24-6.24 1.14-2.7.66-4.38.78-.42.54-1.2.66-1.5.18-2.04-1.74zm3.6-12.12q0 6.48.12 9.78 1.26-.18 3.24-.66 3.9-.9 7.02-1.32.84 0 1.38.3.06-2.88 0-8.58-.06-7.32-.42-7.8-.3-.54-.72-.6-3.42-.12-10.68 2.22.06 2.46.06 6.66zm3.6 19.68q-.3 9.48-.6 19.32-.24 2.58-2.04 2.4-1.74-.18-1.74-2.4.42-6.18.6-10.26-2.82.3-7.02 1.56l.12.24q.48 2.58-1.38 5.88-1.92 3.36-3.78 4.14-1.92.78-2.64-.6-.72-1.32 1.38-2.52.78-.42 1.8-2.46t.78-3.18v-.36q-2.04.72-4.38 1.56-1.68.36-2.04-1.14-.42-1.5 1.32-2.28 10.8-3.78 15.54-4.44h.36q.12-3.96-.24-4.38-.42-.3-6.18 1.56-5.76 1.8-6.54 1.68-1.38-.24-1.56-1.32-.12-1.14.78-1.86.24-.06.42-.12v-.36q.18-1.74.36-7.14.18-5.4.06-6-.66-1.44.54-2.46 1.2-.96 2.28-.3 1.08.66 1.2 1.74.06 1.98-.18 7.56-.18 3.78-.24 5.64 4.62-1.5 9.42-2.76 1.62-.48 2.64.6 1.08 1.08.96 2.46zm-2.82-21.54q-.24-1.38 1.38-1.92 4.26-1.14 5.46-1.2 1.98 0 1.86 1.56-.12 1.56-1.98 1.8-1.62 0-5.04.96-1.44.18-1.68-1.2zm.18 6.36q-.18-1.38 1.38-1.92 4.44-1.2 5.76-1.32 1.98.12 1.86 1.56-.06 1.44-1.92 1.8-2.1.18-5.34 1.08-1.56.18-1.74-1.2zm23.88 13.14q-6.12.9-11.94 2.46 0 2.04-.12 5.04 5.94-2.22 8.58-2.82 1.62-.42 3.06.48 1.5.9 1.44 3.48.06 2.58-.18 12.06 0 1.38-1.02 2.16-1.14.84-2.28-.06-1.2-.84-.36-2.52.24-.42.3-5.94 0-5.46-.48-5.76-.9-.42-9.12 2.22-.18 8.94-.3 10.98-.72 2.16-2.28 1.98-1.56-.18-1.68-2.22.3-2.82.42-11.64.18-8.82 0-9.78-.72-1.38.48-2.4 1.14-1.02 2.28-.42.96.54 1.2 1.44 4.32-1.14 7.5-1.8 0-.06.06-.18.36-.9.66-6.42.36-5.58.06-6.3-.78-2.88 1.02-3.24 1.74-.3 2.64 1.32.54 1.14.18 7.98-.3 4.08-.54 6.12.18-.06.42-.06 2.22-.06 2.34 1.56.06 1.68-2.34 2.28zm62.88 4.74q-9-2.1-14.1-7.5-4.86-5.1-8.94-7.08Q140.3 47.42 133.7 50q-2.46.54-3.24-.6-.84-1.08 1.14-1.92 6.84-2.94 19.92-17.82.9-1.14 1.2-2.22.24-1.02 1.56-1.38 1.32-.3 2.4 1.02.9 1.08-.54 3 3.12 1.8 7.74 6.3 5.88 5.64 13.68 7.2 1.92.66 1.62 2.34-.3 1.68-2.52 1.56zm-35.82 5.58q.06-1.56 2.34-1.26 2.88 1.2 4.8 5.04.66 1.86-.9 2.52-1.5.6-2.46-.96-1.08-2.46-3.06-3.36-.78-.42-.72-1.98zm12.12 2.4q-1.38-1.02-2.82-4.08-.42-1.98.66-2.58 1.08-.6 2.52 1.08.66 1.44 1.8 2.46 1.92.54.96 2.34-.96 1.74-3.12.78zM146 45.68q-.3-1.8 1.86-2.34 8.34-1.62 11.76-1.44 2.7.24 2.16 2.22-.54 1.92-2.58 1.8-3.54-.12-11.22 1.26-1.68.24-1.98-1.5zm22.32 4.08q.24 1.62-3.42 5.4-2.1 2.1-3.72 3.54 7.68-.06 14.16 1.92 2.58.96 1.86 3.12T174.38 65q-8.52-3.54-21.3-1.8-12.78 1.8-17.76 2.34-1.5 0-1.8-1.86-.3-1.86 2.34-2.22 4.44-.48 17.1-2.16 1.32-.18 2.64-.3.24-.36.66-.72 1.92-1.38 4.8-4.5 2.88-3.18 2.82-4.62.18-1.56 1.98-1.74 1.8-.18 2.46 2.34zM156.2 20.9q-4.98 4.74-9.42 4.86-1.5-.24-2.34-1.2-.84-.96-2.22-1.26-1.44-.12-5.1 2.76-1.74 1.08-2.58-.36-.9-1.44.6-2.46 4.74-3.96 5.04-6.36.48-1.8 1.98-1.92 1.56-.12 1.92 1.44.48 1.2-.18 2.52-.6 1.32.24 1.14.78.18 1.56.78.84.66 1.86.9 1.98-.18 6.84-4.56 4.86-4.32 8.94-4.86 2.76-.06 4.8 1.62 1.14 1.5.36 2.4-.78.9-.54 1.5.24.36 3.66.42 3.36.12 3.54 1.86.06 2.52-2.76 3.42-2.76.9-3-.06-.18-.96-.6-1.14-.78-.3-2.64.3-1.8.54-3.3-1.68-.9-1.32 1.56-3.66.3-2.16-1.44-1.26-1.8.12-6.78 4.86zm67.74.96q-5.34.06-13.98 2.46t-10.5 2.7h-.18q-.96 3.24-1.2 6.9-.54 1.74-1.92 1.5t-1.74-1.62q-.12-6.72 3-12.12 1.56-1.56 2.64-.84.9.6.66 1.98l8.34-2.22q3.18-.84 5.94-1.38-2.22-2.04-4.8-2.52-1.8-.6-2.04-2.22t1.68-1.8q3.48.54 7.68 3.18 1.02 1.02.78 2.64 0 .12-.06.24 3.06-.48 5.58-.48 8.58.3 11.7 4.02 1.98 1.38 1.5 2.88-.6 3.06-6.9 5.16-1.86.48-2.34-.6-.48-1.02.6-1.8 3.48-2.64 3.3-3.06.18-1.98-7.74-3zm-4.14 26.76q1.44 9.06-1.98 14.58-1.74 2.64-5.34 1.8-5.88-.78-10.32-5.16-.66-.78.06-1.74.78-.96 2.28-.18 4.38 3.24 8.88 3.84.72.06 1.08-.36 3-4.38 1.38-12.42-9.48 1.14-20.46 4.26-3.42.72-3.9-1.2-.54-1.86 2.28-2.82 11.46-2.94 21.06-4.14-1.02-2.1-2.94-3.48-1.26-1.62-.36-2.94.9-1.32 3-.42.18.12.36.3 3.84-2.46 5.16-3.9 1.38-1.68.96-2.34-.24-.54-6.06.54-7.08 2.04-9.06 2.4-2.28.36-2.46-1.38-.12-1.74 2.1-2.52 1.2-.24 9.24-2.16 8.52-2.1 10.44.18 2.4 2.7-1.44 6.78-3.18 3.36-6.54 4.86 1.14 1.62 1.8 3.6 10.14-1.02 18.06 0 2.46.84 1.86 2.76-.54 1.92-2.94 1.8-7.38-1.2-16.2-.54zm40.98-14.7q13.8-4.08 17.76-6 2.16-1.38 3.72-.12 1.62 1.2 1.02 2.4-.78 1.98-6.78 3.12-1.32.24-2.7.54.06.36-.06.9-.48 2.64-.78 5.04 3.66-.48 8.22-.78 1.98 0 2.34 1.38.36 1.38-1.38 2.28-2.82.96-6.6.78-1.56-.06-3.06.06-.36 3.12-.48 5.64 7.86-.84 18.24-.84 3 .6 2.64 2.34-.36 1.8-2.34 1.86-11.28-.06-18.6.6.12 4.74 1.56 6.36 1.92 2.28 9.84 2.16 7.98-.12 11.04-1.62 1.14-.66 1.14-1.56.3-1.92.3-5.52.06-1.74 1.38-2.1 1.38-.36 2.04 1.74.66 3.36.12 6.72-.18 2.82-2.64 4.14-3.66 1.98-13.56 1.98-9.9.06-12.84-3.18-2.34-2.4-2.58-8.7-2.4.3-4.2.72-7.68 1.8-10.14 1.68-1.86 0-2.1-1.68-.12-1.68 2.16-2.16 1.62-.06 11.46-1.92 1.38-.24 2.88-.48.12-2.52.48-5.46-.18 0-.3.06-3.72.96-6.42.96-1.98-.3-1.86-1.86.24-1.56 1.92-1.8 1.86.06 6.9-1.02.12-.06.3-.06.42-2.7 1.02-5.76-3.66.9-7.98 2.16-2.1.06-2.28-1.14-.24-1.2 1.2-1.86zm15.12-11.94q-4.74 5.28-9.3 5.76-1.44-.36-2.28-1.38-.78-1.08-2.1-1.5-1.56.06-4.98 3.36-1.74 1.14-2.58-.3-.9-1.5.6-2.52 4.86-4.92 4.86-7.62.48-1.86 2.04-1.98 1.56-.12 1.92 1.5.54 1.44-.24 2.94-.78 1.56.24 1.38.84.24 1.56 1.02.72.78 1.8 1.08 1.98-.3 6.6-5.22 4.56-4.92 8.7-5.76 2.76.06 4.74 1.8 1.38 1.74.48 2.82-.9 1.08-.6 1.8.24.3 3.54.54 3.36.18 3.42 1.98.12 2.46-2.7 3.42-2.82.9-3-.12-.18-.96-.6-1.08-.78-.36-2.58.12t-3.18-1.8q-1.2-1.38 1.5-4.32.54-2.22-1.32-1.44-1.86.3-6.54 5.52zM323.96 47q6.24-3.48 14.88-16.68-7.92 1.98-10.02 1.44-2.28-.66-1.98-2.46.36-1.74 1.74-1.5 2.28.48 11.16-1.98-.12-9.48-.78-10.14-.66-2.1.6-3 1.26-.84 3 .3 1.2.9 1.38 11.64 2.46-.78 5.34-1.68 2.46-1.02 3.42.96.9 2.04-1.74 3-3.84 1.2-7.02 2.16 0 3.66-.12 8.28 7.56 1.98 15.6 6.72 2.52 1.56 2.1 3.24-.36 1.62-2.04 1.5-1.68-.18-3.06-1.8-6.24-4.14-12.66-6-.12 5.34-.18 9.48 2.94-.6 5.52-.9 2.52.12 2.52 1.86-.06 1.8-2.7 2.22-2.04.24-5.46.84-.12 7.62-.12 9.12-.54 2.28-2.58 2.28-2.1 0-1.8-2.94.3-3.12.48-7.62-4.74 1.02-6.84.78-2.16-.54-1.92-2.16.18-1.68 1.98-1.68 1.56.12 6.96-1.02.12-4.92.18-11.22-1.44-.3-2.88-.42-7.26 9.18-12.12 10.86-2.1.48-2.46-1.08-.36-1.56 1.62-2.4zm15.84-10.5v-.66l-.42.6q.18 0 .42.06zm-30.6 5.04q9.78-15.12 10.08-22.62 0-.48-.06-1.02-.12-.48.66-1.62.72-1.08 2.52-.66 1.8.42 1.38 3.18-.42 6.24-4.92 14.52.78.36 1.38 1.68.3 1.44-.12 10.02-.48 8.58.06 14.88.12 2.4-1.62 2.7-1.8.24-2.34-1.92-.36-7.5.06-15.36.24-5.52.24-7.86-1.74 2.7-3.78 5.64-2.34 1.98-3.48.96-1.14-1.02-.06-2.52z"/></svg>