<svg viewBox="0 0 407 80" xmlns="http://www.w3.org/2000/svg"><path d="M49.74 24.26H32.76q2.34 9.54 6.66 17.1 1.74 3.06 3.9 5.88 2.28-3.6 3.9-8.46 2.16-6.78 2.52-14.52zm11.1-1.8l3.3-3.24q.3-.3.48 0l4.26 4.26q.66.78-.24.78H54.72Q52.68 38 50.1 43.64q-1.68 3.6-4.08 6.6 3 2.7 6.54 5.1 6.6 4.32 18.36 6.18l-.12 1.32q-2.04-.18-3.78.6-1.8.84-2.76 2.4-.36.66-.96.36-9.78-4.14-16.14-9.72-1.86-1.62-3.54-3.42-3.78 3.96-9.84 7.26-7.2 3.9-18.12 6.78l-.36-1.44q10.38-3.6 17.16-8.16 5.58-3.96 8.7-7.44-2.88-3.78-4.92-8.34-3.42-7.2-5.46-17.46H23.4q-3.24 0-6.9.66-.18 0-.3-.3-.42-1.2-.96-2.34-.18-.48.12-.36 5.16.54 8.04.54h37.44zM37.26 11.9l.66-.72q3.72 1.68 6.24 3.84 1.44 1.08 1.62 2.46 0 1.44-1.26 3.12-1.14 1.44-2.16 1.38-.9-.12-1.44-2.1-1.08-4.5-3.66-7.98zm68.46 32.28q0-2.88-.6-6.24-.06-.66.36-.3l4.26 3.06h10.5V29.12q-.06-2.52-.54-5.04-.06-.48.36-.3l7.44 2.7q.66.36-.06.66-2.22 1.08-2.34 1.98v7.56q0 2.22.54 5.7.12.42-.36.78-2.22 1.62-4.56 2.28-.54.06-.48-.36v-2.52h-9.66v6.12h9.54l1.98-2.46q.3-.3.54-.06l5.7 4.38q.36.24 0 .42-2.7 1.44-2.7 1.74-.06.24-.06 1.02v3.36q0 2.16.48 5.7.12.48-.3.72-2.22 1.74-4.62 2.28-.42.12-.42-.3V50.54h-10.14v13.92q-.06.3-.36.54-2.34 1.74-4.8 2.22-.36.12-.3-.3.66-3.78.6-5.88V44.18zm-5.94 14.04q0 2.22.54 5.7.12.48-.36.78-2.22 1.62-4.56 2.28-.54.12-.48-.36V50.54h-5.94q-.36 4.02-1.26 6.6-.96 2.52-2.46 4.02-1.5 1.56-4.02 2.88-2.94 1.74-6.42 2.52l-.48-1.26q3.6-1.68 5.4-3.3 1.8-1.62 2.76-3.12 1.08-1.62 1.44-3.84.3-1.8.12-4.5h-.84q-3.3 0-6.96.6-.18 0-.3-.3-.36-1.08-.96-2.34-.18-.48.12-.3 5.16.42 8.1.48h11.7v-6.12h-9.36q-1.68 1.68-2.52 3.18-.42.54-.66.24-1.08-1.26-4.68-3.9-.24-.18.12-.54 2.34-2.34 2.34-3.06v-9.36q-.06-2.52-.54-5.04-.06-.48.36-.3l7.44 2.7q.66.36-.06.66-2.22 1.08-2.34 1.98V40.7h9.3l1.98-2.46q.3-.18.54 0l5.76 4.32q.36.24-.06.48-2.58 1.32-2.7 1.68-.06.24-.06 1.02v12.48zm12-43.56H94.14v4.74h17.64v-4.74zm0 6.54H94.14v4.98h17.64V21.2zm0 6.84H94.14v4.5h17.64v-4.5zm-.6-15.18l2.04-2.46q.18-.3.48-.06l5.76 4.32q.36.24-.06.48-2.58 1.32-2.7 1.68-.06.24-.06 1.08v11.04q0 2.22.54 5.7.12.42-.36.78-2.16 1.62-4.56 2.28-.54.06-.48-.36v-3H94.14v.84q-.06.24-.36.54-2.22 1.68-4.8 2.22-.36.06-.3-.3.66-3.78.6-5.88V16.28q0-2.88-.6-6.24-.06-.66.36-.3l4.26 3.12h17.88zm31.08 50.76q-3.24 0-6.9.66-.18 0-.3-.3-.42-1.08-1.02-2.34-.18-.48.12-.36 5.22.54 8.1.54h14.04V16.46q-.06-2.52-.54-5.04 0-.48.36-.3l7.44 2.7q.66.36-.06.66-2.16 1.08-2.34 1.98V31.1h14.58l3.24-3.18q.3-.3.48 0l4.26 4.26q.66.78-.24.78h-22.32v28.86h20.88l3.3-3.24q.3-.3.48 0l4.26 4.32q.66.72-.24.72h-47.58zm66.54-43.08l1.56.6q-7.8 26.82-8.16 29.7-.42 4.5.3 13.14.12.9-.54 1.26-.6.36-2.82-.54-1.32-.42-2.4-1.5-.96-.96-.42-2.52 2.1-7.02 1.2-9.42-.36-1.62-3.78-3.3l.24-1.08q3.9.42 4.44.06 1.02-.72 10.38-26.4zm-14.28 5.04l.6-.78q3.36 1.08 5.76 2.58 1.38.9 1.68 1.92.3 1.5-.96 3.24-1.14 1.62-2.1 1.56-.78-.12-1.26-1.74-1.26-3.9-3.72-6.78zm4.26-12.9l.54-.78q3.72.96 6.42 2.64 1.44.9 1.8 2.04.3 1.5-.78 3.3-1.08 1.62-2.04 1.68-.78-.12-1.5-1.86-1.62-4.08-4.44-7.02zm38.1 16.5h-17.76L217.2 39.8h19.02l.66-10.62zm-.78 12.42h-19.26l-2.16 12.24h20.7q.36-4.14.72-11.1V41.6zm-17.58-20.88q-1.62 2.7-2.94 4.56l2.82 2.1h17.94l2.46-2.88q.12-.18.36 0l4.56 3.96q.36.24.18.36-1.26 1.14-2.28 2.04-.24.24-.18.78l-.54 8.16h1.86l2.94-2.76q.18-.18.3 0l3.78 3.78q.72.78 0 .78h-8.94v1.38q-.24 6.36-.72 10.86h1.44l2.94-2.76q.18-.18.36 0l3.72 3.84q.72.78 0 .72h-8.64q-.24 1.98-.48 3.42-.6 3.9-2.16 5.46-2.22 2.16-6.54 4.2-.36.12-.42-.18-.06-.96-.72-1.86-.78-.96-4.5-3.18v-1.38q5.34.48 7.2 0 .9-.3 1.2-.72.66-.54 1.2-2.28.18-.84.54-3.48h-20.82q-1.98 3.24-2.34 2.88-1.98-2.34-4.26-4.32-.24-.3.06-.54 2.34-1.62 2.82-3.78l1.32-8.1q-1.98.06-4.02.48-.18 0-.3-.3-.42-1.2-1.02-2.34-.18-.48.12-.36 3.18.24 5.58.48l1.5-8.22q.3-1.56.36-4.56-.24.24-.42.54-2.34 2.7-5.34 5.28l-1.08-.9q3.24-3.96 4.98-7.14 1.8-3.24 3.42-7.56 1.56-4.14 1.98-7.2.12-.3.48 0l6.18 3.72q.84.42.12.72-2.7.6-3.48 1.98-.72 1.32-1.5 2.52h19.62l3.3-3.24q.3-.18.48 0l4.26 4.32q.66.78-.24.72h-28.5zM222.18 44l.66-.66q3 1.32 5.1 3.12 1.08.96 1.26 1.98.12 1.5-1.38 3.06-1.32 1.5-2.28 1.32-.72-.18-.96-1.92-.6-3.78-2.4-6.9zm1.62-13.32l.66-.66q2.88 1.32 4.98 3.18 1.2.9 1.26 1.92 0 1.44-1.5 3.06-1.32 1.32-2.28 1.2-.72-.18-.96-1.86-.36-3.78-2.16-6.84zm40.44-9.48q.12 3.6-.6 5.76-.72 2.16-2.16 3.06-1.8.78-3.06.3-1.62-.72-1.8-2.7-.06-1.2 1.32-2.16 1.8-1.26 2.82-2.94.84-1.38 1.98-5.4h1.14l.24 2.28h18q-.06-.3-.18-.42-1.62-4.08-4.38-7.02l.54-.78q3.72.96 6.36 2.64 1.56.9 1.8 2.04.3 1.5-.72 3.3-.06.06-.18.24h15.12l2.46-3.12q.3-.36.6 0l5.64 4.92q.36.36-.12.48-2.4.6-4.26 1.68-2.16 1.26-6.42 6.36l-.96-.6q1.44-3.42 3.42-7.92h-36.6zm20.22 36.84q0 3.66.24 6.42 0 .48-.3.66-2.16 1.8-4.98 2.4-.42.12-.36-.36.54-6.06.54-9.12V41.78q-4.14 6.12-8.22 10.02-6 5.64-16.2 11.46l-.9-1.2q8.22-5.88 13.98-12.3 4.62-5.4 8.1-12.36H264.6q-3.24 0-6.9.66-.18 0-.3-.3-.42-1.2-1.02-2.34-.18-.48.12-.36 5.22.54 8.1.54h15v-7.62q-.06-2.64-.54-5.04-.06-.48.36-.3l7.44 2.7q.66.36-.06.6-2.16 1.08-2.34 2.04v7.62h14.76l3.3-3.24q.3-.3.48 0l4.26 4.26q.66.78-.24.78h-21q3.18 6.18 7.26 10.56 2.88 3.12 7.98 5.58 4.14 1.98 9.54 2.88l-.18 1.2q-2.04-.12-3.96.84-1.44.78-2.34 2.16-.24.24-.66.12-8.82-5.58-12.78-10.44-4.02-5.22-6.42-12.9v20.64zm27.54 6.6h36.84v4.14H312v-4.14zm49.2-43.8v15.42h4.98q4.5 0 8.46-1.5 3.6-1.38 5.46-3.9 1.44-2.1 1.5-5.1 0-3.42-2.28-5.7-2.58-2.64-8.34-2.58h-7.08q-1.32 0-2.04.78-.6.78-.66 2.58zm0 17.64V56.6q0 1.86.6 2.46.66.72 2.1.72h5.82q6.96 0 10.56-3.12 3.6-3.06 3.66-8.16 0-3.9-2.22-6.18-1.8-1.92-4.86-2.76-3.6-1.08-6.84-1.08h-8.82zm-5.04-17.64q0-1.8-.9-2.64-.78-.72-2.4-.72h-2.52v-2.22h20.64q8.64 0 12.42 3.48 3.24 2.88 3.24 7.02 0 3.3-2.16 5.76-2.34 2.7-8.1 5.16-.42.18-.78.36 1.02.06 2.04.36 5.34 1.08 8.28 3.72 3.06 3.06 3.06 7.38 0 6.3-4.5 9.6-5.1 3.96-14.76 3.9h-19.38v-2.22h2.64q1.74 0 2.4-.96.84-.9.78-2.22V20.84z"/></svg>