<svg viewBox="0 0 405 80" xmlns="http://www.w3.org/2000/svg"><path d="M50.82 24.26h-18.9v.12q1.26 5.76 3.6 12.06 2.58 6.42 6.12 11.7l.6.78q1.8-2.28 3.06-4.62 4.02-7.5 5.52-20.04zm-30.9-1.8h22.14q-.48-.42-.48-1.2-.36-2.88-1.2-4.8-.96-2.16-2.7-4.32-.24-.54 0-.78.42-.3.9.24 3.54 2.34 4.74 4.08 1.38 1.74 1.38 2.76 0 1.26-.9 2.64-.78 1.2-1.32 1.38h18.06l.9-.3.84-.84 1.5-2.16q.54-.54.96 0l3.6 3.48q.6.54.48 1.08-.06.54-.84.54H53.76q-1.38 11.46-5.58 19.86-1.98 3.72-4.44 6.66 3.54 3.72 8.88 6.9 7.32 4.32 15.24 5.88l1.2.18q.48.18.48.54-.12.54-1.02.6l-2.16.66q-1.2.42-1.86.96-.66.42-1.26.24-12.72-5.76-18.72-11.28L42 52.82q-2.76 2.88-6.06 5.16-7.74 5.28-19.38 9.12-.9.18-1.08-.48-.12-.84.6-1.08 10.2-3.84 17.64-8.76 3.96-2.82 6.84-5.88-3.18-4.14-4.92-8.76-2.88-7.74-5.1-17.46v-.42h-9.78l-3.54.42q-.3-.06-.66-.6l-.84-1.44q-.36-.78.18-.6l4.02.42zm103.44 16.5l.06 2.64q.06.6-1.44 1.32l-1.62.6q-.12-.24-.06-.72l.18-1.92h-11.46v7.32h11.04l.54-.18 1.02-1.68q.48-.42.84-.06l3.36 2.4q.54.42.42.72-.12.3-.96.78-1.02.54-1.14.84l-.12.78v7.26l.36 5.7q.06.66-1.32 1.02l-1.68.48-.18-.6v-15.6h-12.18V65q-.06.48-.72.72l-1.56.6q-.84.3-.84-.54.3-3.72.3-12.3V42.5l-.3-4.8.12-.78.96.72 1.8 1.44h11.76V24.44l-.24-3.24q-.06-.96 0-1.02.36-.18 1.62.36l2.28 1.08.9.66-.66.54-.9.66-.18.96v14.52zM94.74 48.2v-7.08H83.58q-1.14.9-1.32 1.62-.42.78-.78.6l-2.22-1.68q-.66-.48-.24-.9l.9-1.02q.3-.6.3-1.62V25.46l-.3-4.8q0-1.02 1.8-.3l2.94 1.2q.9.54-.18 1.26l-1.26.84-.18 1.8v13.86h10.14q.84-.18 1.08-.42l1.5-1.5q.36-.42.78-.06l3.12 2.46q.42.42-.6 1.08l-1.26.9-.24.36v12.42q0 4.26.24 10.44 0 .48-.72.72l-1.56.6q-.78.3-.78-.54V50.06h-9.48q-.6 6.6-2.46 9.9-2.04 3.42-6 6.3-1.02.6-1.44-.06-.3-.9.42-1.44 2.88-2.28 4.68-5.64 1.8-3.54 1.68-9.06H81l-3.54.42q-.3-.06-.66-.6l-.9-1.44q-.3-.72.24-.54l4.02.3h14.58zm-.96-33.06v4.74h16.92v-4.74H93.78zm0 6.54v4.74h16.92v-4.74H93.78zm0 6.54v4.32h16.92v-4.32H93.78zm15.72-14.94l.54-.18 1.02-1.68q.48-.42.84-.06l3.36 2.4q.54.42.48.72-.12.3-1.02.78-1.02.48-1.14.84l-.12.78v12.9l.36 5.7q.06.54-1.32 1.02l-1.68.48-.12-.66v-1.98H93.78v1.38q-.06.36-.72.66l-1.56.66q-.78.24-.78-.54.24-3.78.24-12.3v-7.5l-.24-4.8.06-.78.96.72 1.8 1.44h15.96zm48.78 4.32l-.24-4.14q0-.84 1.74-.3l2.82 1.02q.9.6.06 1.14l-1.2.9q-.42.36-.42 1.38v13.5h13.38l.78-.18.72-.6 1.8-2.46q.54-.54.9 0l3.6 3.42q.66.6.54 1.14-.18.54-.9.54h-20.82v28.86h19.5l.9-.3.84-.78 1.5-2.22q.54-.48.96 0l3.6 3.48q.6.6.48 1.14-.06.48-.84.48h-47.4l-3.6.42q-.3-.06-.66-.6l-.84-1.44q-.36-.78.24-.6l3.96.42h18.6V17.6zm43.32 25.2l7.14-20.58q.3-.78.84-.6.66.24.36.9l-5.1 17.16q-2.7 9-3 12.72-.48 6.48-.06 11.52.18 1.8-.36 2.28-.6.54-1.8.36-1.26-.36-1.92-1.38-.6-1.26-.18-2.76 1.02-2.94 1.2-5.58.24-2.82-.06-3.66-.48-.96-1.38-1.38-1.08-.66-2.28-.66-.78-.06-.78-.78.12-1.02.9-1.02 3.12.18 3.66-.06 1.02-.54 2.82-6.48zm-6.36-15.9q-.18-.54-.12-.78.42-.3.96.06 3.3 1.38 4.56 2.52 1.5 1.2 1.56 2.04.24 1.2-.42 2.76-.72 1.68-1.32 1.68-.72-.18-.9-1.14-.54-2.4-1.5-3.84-1.08-1.74-2.82-3.3zm4.68-14.1q-.18-.48-.12-.72.42-.36.96 0 3.3 1.26 4.62 2.34 1.5 1.2 1.68 2.04.18 1.2-.36 2.76-.66 1.62-1.26 1.62-.72-.12-.9-1.02-.66-2.4-1.68-3.84-1.2-1.62-2.94-3.18zm22.62 30.72q-.18-.48.06-.66.54-.3.9.24 3 2.34 3.96 3.9.96 1.5.96 2.52-.06 1.2-1.08 2.58-1.08 1.2-1.68 1.2-.54-.3-.54-1.26.06-2.64-.66-4.38-.72-1.98-1.92-4.14zm1.38-12.84q-.18-.54.06-.78.54-.24.96.3 2.88 1.98 3.78 3.36 1.08 1.5 1.08 2.34 0 1.2-1.08 2.58-.96 1.32-1.62 1.32-.6-.36-.6-1.32 0-2.4-.66-4.02-.66-1.86-1.92-3.78zm12.9 9.36l.54-11.1h-18.84l-2.04 11.1h20.34zm-20.64 1.8l-2.16 12.24h22.02q.54-3.48.6-8.82l.12-3.42h-20.58zm-2.52 14.04l-.72 1.26q-.42.36-1.14-.24l-1.8-1.62q-.36-.54.18-.78.84-.6 1.08-1.32l1.02-3.96 1.26-7.38h-1.74l-3.54.42q-.3-.06-.66-.6l-.9-1.38q-.36-.78.24-.6l3.96.36h3l1.5-7.92q.54-3.66.54-5.82l.24-.72q.42-.12 1.2.72l1.02.84h17.22q.78-.12.84-.3l1.38-1.86q.48-.54.84 0l3.48 3.12q.36.36-.72.9l-1.14.66q-.24.18-.36 2.94l-.3 7.44h3l.72-.42 2.1-2.4q.54-.48.78 0l2.58 2.82q.66.78.3 1.26-.42.54-1.08.54h-8.52v2.4l-.66 9.84h2.34q.84-.12 1.38-.72l2.04-2.4q.6-.48.96-.06l2.64 3.12q.6.9.42 1.38-.18.48-1.02.48h-8.94l-.18 1.56q-.6 4.38-2.22 6.18-1.8 2.16-4.44 3.18-.6.36-.96-.12-.3-.66-1.74-1.5-1.38-1.02-5.94-1.86-.78-.24-.78-.72.18-.42.78-.36 6.12.6 7.92.48 2.1-.24 2.58-.9 1.26-1.08 1.86-3.72l.3-2.22h-22.2zm4.14-35.34l-2.34 4.14q-2.16 3.42-4.98 6.9-.54.48-1.02.24-.36-.48.06-1.02 3.3-4.5 5.64-10.62 2.46-6.42 2.46-8.34.24-.96 1.68-.06l2.4 1.44q.84.6.84.9-.06.24-.78.36l-.96.48q-.48.42-1.86 3.3l-.24.42h19.92l.78-.18.78-.6 1.74-2.46q.54-.54.96 0l3.54 3.42q.66.6.54 1.14-.18.54-.9.54H217.8zm45 .9l-.54 2.88q-.96 3.3-2.52 4.8-.96.78-1.74.78-.96-.18-1.32-.6-.36-.6-.36-1.32.24-.96 1.02-1.56 1.74-1.38 2.82-3.54 1.38-2.46 1.62-5.88.12-.54.48-.54.6.06.6.6v2.58h18.96v-.3q-.36-2.46-1.2-3.9-.9-1.8-2.46-3.54-.18-.54 0-.78.3-.36.9.12 3.18 1.68 4.26 2.88 1.38 1.32 1.38 2.16.18 1.2-.66 2.7l-.42.66h17.22q.66-.12.72-.3l1.8-1.8.36-.24.48.3q2.7 2.04 3.96 3.42.3.48-.9.6-1.26.12-2.64 1.2-1.8 1.32-4.44 5.16-.48.54-1.02.36-.3-.42-.06-1.02l2.76-5.88H262.8zm17.82 14.16v-3.96l-.3-7.5q.06-1.02 1.86-.42l2.88 1.2q.9.6-.24 1.2l-1.32.9-.12 4.62v3.96h15.48l.96-.3.84-.84 1.5-2.16q.54-.54.96 0l3.54 3.42q.66.6.54 1.14-.06.54-.9.54h-20.88q2.1 4.68 5.16 8.82 3.36 4.26 7.8 7.68 4.74 3.42 9.12 4.98l.96.3q.54.18.42.54-.06.48-.84.48l-2.1.48q-1.2.42-1.74.96-.66.54-1.26.06-7.92-6.3-12.12-11.64-4.26-5.7-6.66-12.54v-.12h-.78v15.96l.24 12.36q.06.48-.78.72l-1.86.72q-.78.24-.78-.66l.42-13.14V37.58q-4.38 8.28-10.08 13.92-5.94 5.88-14.34 11.52-.84.36-1.2-.06-.36-.72.24-1.08 8.04-5.94 13.32-11.7 5.28-5.88 8.7-12.78h-15.3l-3.6.42q-.24-.06-.6-.6l-.9-1.5q-.36-.72.24-.54l3.96.42h19.56zm31.32 30.24h34.62v2.64h-34.62v-2.64zm45.54-42.66v33.66q.06 1.56.96 2.4 1.08.9 3 .9h9q5.16-.06 8.34-2.22 3.18-2.16 6.36-7.56h1.5L381.66 62h-33.72v-1.86h3.78q1.38 0 1.98-.78.72-.72.72-2.52V23.18q0-1.68-.9-2.46-.78-.66-1.98-.66h-3.6V18.2h15.96v1.86h-3.24q-1.62 0-2.52.78-.66.66-.66 2.34z"/></svg>