<svg viewBox="0 0 388 80" xmlns="http://www.w3.org/2000/svg"><path d="M37.62 17.48q-.9-2.34.66-4.08 1.08-1.02 2.52-1.14.48.06 1.2.24 2.1.78 2.94 2.88.18.42.78 1.92.48 1.32.78 2.46v.3q9.36-.18 17.16.36 2.7.18 3.78 2.28.36.9.48 1.8-.18 1.08-.78 1.92-1.44 1.62-3.6 1.56-10.86-.9-24.96-.3-14.04.6-18.3 1.2-2.34.36-3.72-1.44-.72-1.02-.72-1.98 0-.9.6-1.8 1.26-1.8 3.36-2.1 5.22-.66 18.78-1.26-.18-.54-.3-1.2-.54-1.26-.66-1.62zm5.64 36.36q-7.08 6.54-13.38 11.28-1.44 1.02-2.94 1.02-.9 0-1.56-.3-2.34-.78-2.28-3.06 0-2.28 1.8-3.6 5.58-4.26 12-9.9-9-6.12-11.88-7.86-2.16-1.08-1.98-3.42 0-2.34 2.16-3 2.1-.72 3.9.36 3.9 2.22 13.32 8.94 9.3-8.82 11.88-11.76 1.62-1.92 3.9-1.32 2.28.54 2.64 2.82.12 2.34-1.2 3.96-3.12 3.3-11.04 10.74 5.88 4.2 10.38 8.4 1.98 1.68 1.62 4.08-.54 2.34-2.52 2.82-2.16.36-3.78-1.02-4.92-4.44-11.04-9.18zm41.16-10.32q3.54 0 10.56-.18 1.92-.54 3.54.66.9.9.9 2.16.54 1.62.66 8.22.18 4.86-.18 8.7-.18 2.64-2.34 3.48-.9.36-1.68.42-1.14 0-1.98-.84-1.5-1.32-1.26-3.48l.18-3.6q-2.34-.12-4.98-.12-.18.6-.36 1.86-.36 1.98-.84 3.36-1.08 2.82-3.66 2.7-1.62 0-2.46-1.32-1.08-1.62-.36-3.54.36-1.26.72-2.88-.42 0-.84.12-2.16.18-3.18-1.44-1.08-1.62 0-3.3 1.08-1.62 3-1.74 1.92-.18 6.78-.3 3.36-.12 6.24.06 0-1.38-.12-2.34l-9.54-.12q-3.42 0-5.4-1.92-2.16-1.92-2.4-5.58l-.18-3.96.18-3.9q.18-3.96.66-6.54.36-2.88 2.16-3.6 1.56-.72 3.12.48 1.44 1.14 1.2 3.12-.36 2.04-.66 5.46-.36 3.3.06 7.38 0 1.62.48 1.86.72.6 1.98.66zm42.84-7.38q-.36 5.4-.96 9.6-.36 1.8-1.62 2.76-.18 0-.42.24l-.18.12-.48.24-.36.12-.24.06q-.18 0-.3.06h-.54q-3.66 0-6.9.24-1.62.06-2.58.18 0 1.08.06 2.7 2.82-.36 4.74-.42 2.64 0 3.24.12 3.9.54 5.22 2.58 1.26 1.86 1.2 4.56v1.5q0 .72-.06 1.44-.9 3.18-2.88 3.72-2.04.72-3.36-.66-1.14-1.26-.66-3.06 0-.36.12-.6 0-.18.06-.48.18-1.56-.3-2.1-.72-.54-4.14-.48-1.68.06-3.3.66 0 2.16-.24 3.9-.36 2.64-2.46 3.48-.9.36-1.56.36-1.14 0-2.04-.9-1.5-1.32-1.2-3.48.36-3.9.48-8.88 0-4.98-.12-6.48-.18-2.28 1.62-3.54.9-.66 1.86-.54.36-.12.96-.18 1.38-.18 5.22-.6 2.28-.18 4.32-.3.36-3.18.66-6.78.18-5.4.24-7.08-.18-2.28 1.8-3.36 1.92-1.08 3.66.3 1.38 1.32 1.68 3.42-.18 2.16-.24 7.56zm-11.88.36q-3.06 4.56-13.32 5.7-8.82-.18-12.06-3.06-3.12-2.82-3.66-6.72-.36-3.9.36-8.52.72-4.62.36-6.48-.54-1.98.48-3.48.9-1.38 2.82-1.14.84.18 1.62.72.36-.36 1.26-.48 5.58-1.44 10.44-1.56.36.06.96 0 .18.06.54 0 5.76.06 8.94 3.66 3.36 3.84 3.54 10.2.72 6.54-2.28 11.16zM96.9 20.54q2.82-.54 4.2-.48 2.7 0 3.84 1.2 1.26 1.26.18 2.94-.36.36-.6.72-.36.24-1.02.84-.6.54-1.38 1.38l-.96.96-.12.18q0 .18.36.18h.48q.36 0 1.56-.24 1.08-.12 1.86-.54.54-.3.96-.48 1.08-.18 1.92.78.84.9.36 2.34-.36 1.26-2.16 1.74-.54.18-1.68.54-3.3.9-7.14.9-1.98 0-2.28-1.08-.54-1.08-.36-2.1 0-.9.9-2.16.36-.48 1.2-1.26.72-.84 1.5-1.32.54-.54 1.02-.84.18-.18.42-.3l.12-.12q-.18.18-1.32.18-.96 0-2.58.3-1.5.36-3.18 1.32-.54.18-.84.42-.54 5.22 1.92 7.62 1.8 1.8 8.04 2.04 6.66-1.02 8.1-3.78 1.38-2.7.84-6.18 0-3.9-1.56-6.42-1.8-2.46-5.28-2.58-3.3 0-9.36 1.62-1.08.24-1.74.18 0 1.08-.24 2.52 1.56-.66 4.02-1.02zm64.44 22.26q2.88-.3 10.32-.54 1.62-.12 3.24-.06 0-.54-.12-1.08-.18-1.98 1.5-3.54.18-.18.48-.42-2.58 0-5.58.06-7.92.18-10.26.54-2.22.24-3.48-1.56-1.26-1.74-.06-3.6 1.26-1.8 3.3-1.98 2.82-.3 9.6-.54.18-2.7.36-5.7-5.1 0-6.72.3-2.22.18-3.48-1.56-1.26-1.92.06-3.66 1.2-1.8 3.24-1.92 1.98-.18 6.9-.3v-1.92q-.18-2.34 1.62-3.48.9-.48 1.74-.54.9.06 1.86.66 1.8 1.26 1.92 3.42v1.86q3.36 0 6.36.36 2.52.24 3.54 2.4.9 2.04-.42 3.6-1.44 1.5-3.54 1.32-2.76-.36-5.94-.48 0 2.76-.24 5.52 4.26 0 7.98.36 2.46.18 3.54 2.28.36.9.42 1.68-.18 1.08-.78 1.92-1.32 1.62-3.48 1.44-2.52-.3-5.28-.36 1.92 1.14 2.22 3.84 0 .54.12 1.2 1.26 0 2.52.18 2.46.18 3.54 2.28.9 2.04-.3 3.6-1.44 1.62-3.54 1.44-.72-.12-1.5-.18.18 3.48.12 8.58-.36 2.94-1.32 4.8-1.08 1.74-2.58 2.64-1.32 1.02-2.94 1.14-.36 0-.78.06-1.26 0-2.76-.36-5.28-1.08-6-4.38-.54-2.1 1.14-3.3 1.56-1.02 3.72-.18.9.24 1.86.6.9.18 1.38-.06.54-.3.9-2.94 0-3.9-.06-6.84-2.16 0-4.38.06-7.38.18-9.66.48-2.22.24-3.48-1.56-1.26-1.74-.06-3.6 1.2-1.8 3.24-1.98zm-3.78 15.18q-.54-.9-.84-1.2-1.26-1.8-.18-3.78 1.08-1.98 3.24-1.68 2.1.24 3.3 2.04.18.36.9 1.38.72.96 1.2 1.86.9 2.4-.48 4.2-1.44 1.8-3.48 1.32-1.86-.54-2.76-2.52-.24-.72-.9-1.62zm-7.32-7.8q-.36 5.1-.84 9.9-.36 2.64-2.4 3.48-2.04.9-3.66-.42-1.5-1.44-1.26-3.6.36-3.9.9-8.1-2.16.36-2.88.72-2.34.72-3.9-.96-1.5-1.62-.6-3.66.84-2.1 3-2.58 1.26-.36 4.8-1.2.18-3.9.24-8.04v-3.36q-1.5-.12-2.52-.06-.18 1.5-.42 3-.54 2.22-2.64 2.94-2.16.72-3.36-.78-.9-1.08-.9-2.34.18-.54.12-1.08 1.26-6.96 1.38-11.04 0-2.16 1.86-3.06 1.74-.9 3.36.42 1.38 1.32 1.44 3.3 0 .54-.12 1.56h1.8q0-4.98-.24-7.02-.18-2.34 1.68-3.48 1.74-1.26 3.6.06 1.8 1.26 1.92 3.36 0 2.58.18 7.44 1.2.06 2.52.3 2.46.42 3.3 2.64.72 2.16-.72 3.6-1.32 1.44-3.54 1.08-.9-.18-1.56-.3v3.66q0 2.94-.18 6 3.54 0 4.74 1.74 1.38 1.98.24 3.78-1.08 1.68-3.36 1.92-1.08 0-1.98.18zm55.32 14.94q-5.46 0-7.98-2.34-2.52-2.34-2.64-6.06 0-2.82.78-5.58.66-2.7.9-4.08 0-1.44-.24-2.22-1.68-3.24 1.5-5.1 1.92-1.26 3.78.24.18-.12.48-.18.18 0 .42-.18.18-2.28.36-4.98-3.48.06-4.68.3-2.34.24-3.54-1.56-.54-.84-.66-1.86 0-.9.6-1.74 1.26-1.8 3.3-1.98 1.38-.18 5.04-.36 0-3.36-.18-4.74-1.44.06-2.58.18-2.7 0-3.84-1.98-1.14-1.92.06-3.66 1.08-1.62 3.36-1.62 2.82 0 6.66-.6 3.72-.48 4.92-.78 2.16-.54 3.66 1.2 1.38 1.62.42 3.6-1.08 1.86-3.12 2.28-.9.06-2.46.42v.3q.18 1.62.24 5.28 1.92 0 3.72.18 2.52.18 3.6 2.28.9 2.04-.36 3.6-1.44 1.62-3.54 1.44-1.5-.18-3.42-.24 0 2.04-.18 4.02 3.54-.54 5.34 1.38 1.74 1.86 2.4 8.28-.36 7.44-1.68 11.04-1.14 3.72-3.72 4.92-2.4 1.26-6.72.9zm-2.64-15.36q-.9 2.76-.72 4.98 0 1.44.66 2.16.54.72 2.82.78 3.9 0 4.56-3.72.36-1.98.18-6.18 0-2.64-1.62-2.22-1.86.06-5.16 1.5-.36 1.08-.72 2.7zm43.02-21.6l.42 8.04q.54 14.58-.3 26.04-.18 2.64-2.22 3.6-.78.36-1.62.42-1.98-.18-3-1.86-1.26.18-2.7.54-2.4.36-4.74.36-5.1-.54-7.86-3.12-2.58-2.46-3.6-6.6-1.08-9.9-.36-21 .18-3.9.54-7.38-.9 0-1.32.12-2.22.18-3.48-1.68-1.26-1.92.06-3.6 1.26-1.8 3.36-1.86.72-.12 2.04-.12.18-1.98.48-3.78.36-3.18 3.84-2.94 3.36.18 3.12 3.84-.18 1.44-.42 2.82h2.64q3.78 0 7.5.24-.06-2.64-.3-4.02-.36-2.28 1.44-3.54.9-.54 1.86-.66.9.06 1.8.6 1.74 1.08 2.04 3.18l.48 5.04q2.46.24 3.48 2.4l.36 1.56q-.18 1.26-.9 2.1-.96 1.14-2.64 1.26zm-6.9 29.1q.54-9.84.18-21.6-.18-4.62-.42-8.16-4.02-.3-8.64-.36h-2.82q-.72 6.12-.78 11.52h.36q.9 0 3.42-.12 2.28-.12 4.32.06 2.46.36 3.48 2.52.84 2.16-.54 3.6-1.44 1.5-3.6 1.2-1.68-.18-4.08-.18-2.34 0-3.06.06h-.36q0 4.14.54 7.62.72 4.32 5.46 4.98 2.46 0 5.82-.9.3-.18.72-.24zm66.18 8.04q-6.54-.72-14.82-.54-8.28.18-10.86.42-.36 0-.6.06-1.86 0-2.94-1.62-1.14-1.74-.06-3.6 1.26-1.8 3.36-1.98 1.26-.18 3.3-.24v-.42q.36-6.24.36-13.74-.9 0-1.32.18-2.22.24-3.48-1.5-1.26-1.8-.06-3.66 1.2-1.74 3.24-1.98.54-.12 1.5-.12-.54-11.1-1.02-14.46 0-.18-.06-.36-.72.06-1.38.24-3.66.96-4.5-2.52-.6-3.54 2.82-4.56 4.98-.9 10.56-1.08.36.06.78 0 5.04.06 9.72 1.08 2.28.54 4.14 2.34 1.8 1.68 2.4 4.2.54 1.98.96 7.2.36 5.28.48 13.68 0 7.38-1.32 15.78 1.8.36 2.64 2.22.36.78.42 1.62-.18 1.08-.78 1.92-1.14 1.44-3.06 1.44h-.42zm-16.26-43.62q.36 4.14.96 14.52h.9q5.34-.18 9.96.06 0-1.98-.12-3.9-.36-5.7-1.14-8.22-.54-1.8-2.28-2.4-3.12-1.02-7.38-.78-.54 0-1.02.06 0 .24.12.66zm1.2 21.66q.18 7.62-.24 14.22h.9q4.68-.12 8.88.06.9-6.66 1.14-12.6v-1.5q-2.34-.18-10.68-.18zm-34.44 5.76q0-8.04 1.2-15.96.18-1.8.48-3.36-1.98 0-2.7-1.14-.54-.72-.6-1.74 0-.66.3-1.26.72-1.74 3.24-2.1.36 0 .9-.12.36-1.92.84-3.6.36-3 2.28-3.9 1.8-.72 3.42.54 1.38 1.26 1.2 3.36l-.72 3.24q1.38 0 2.34.12 4.68.42 6.48 7.02.36 5.58.12 10.74l-.48 7.2q2.16-.66 3.84.72 1.56 1.32.72 3.72-.78 2.22-4.68 3.18-.36 0-.48.06-.18 1.32-.18 2.82 0 2.88-1.38 3.78-1.44 1.08-3.12.3-1.5-.72-1.74-3.3 0-1.26.12-2.4-1.62.18-3 .24-3.48 0-5.88-2.04-2.22-2.1-2.52-6.12zm8.64-19.56q-1.68 8.16-1.62 17.94.18 1.62.54 1.98 1.08.9 4.38.42.72-10.56.6-13.98-.18-4.62-.54-5.4-.54-.84-1.26-.9-.54-.12-2.1-.06zm88.44-8.1q6.3 0 11.76.42 2.46.18 3.6 2.28.3.9.42 1.68 0 1.08-.78 1.98-1.44 1.5-3.54 1.38-5.1-.54-11.22-.54 0 2.04.18 4.5 1.92.42 4.44 1.8 4.08 1.86 10.02 6.72 1.2 1.08 1.44 3.12-.18.24-.06.66-.18 2.4-2.46 2.82-2.22.24-4.5-1.26-4.56-3.54-7.38-4.92-.9-.36-1.44-.72v7.86q2.28 0 4.56.3 2.46.18 3.48 2.34.9 2.04-.42 3.66-1.32 1.44-3.48 1.26-2.16-.18-4.44-.3-.18 3.3-.42 6.54-.18 2.64-2.34 3.54-.9.36-1.68.42-.96 0-1.98-.78-1.5-1.32-1.32-3.48.18-3 .48-6.3-4.2.06-5.76.36-2.34.18-3.54-1.56-1.14-1.92 0-3.66 1.26-1.74 3.36-1.92 1.74-.18 6.3-.42 0-3.96.06-8.28-1.32.42-2.82 1.32-3.84 1.98-8.04 5.4-1.62 1.08-3.6.54-1.86-.66-1.92-3 0-2.46 2.22-4.14 6.48-4.68 11.16-6.72 1.38-.72 2.88-1.14 0-2.46-.06-4.5-7.98.18-10.62.6-2.34.24-3.54-1.5-1.26-1.8-.06-3.66 1.26-1.74 3.3-1.98 3.18-.36 10.68-.6-.18-3.36-.36-5.16-.36-2.28 1.5-3.48.9-.54 1.86-.66.72.06 1.74.6 1.74 1.14 2.04 3.24 0 2.04.3 5.34zm-36.36 2.88q1.98-1.08 4.32-2.82 2.28-1.62 3-2.28 1.8-1.56 3.96-.72 2.1.9 2.04 3.12 0 2.22-1.68 3.6l-2.22 1.62q0 .24.06.72-.24 7.38.3 17.1.72 9.54 1.26 12.54.36 2.16-1.38 3.54-1.68 1.44-3.6.24-1.8-1.08-2.1-3.18-.54-3.72-1.32-13.26-.54-7.2-.6-13.2-1.32.18-2.64-.54-1.5-1.02-1.74-2.82 0-.3.06-.48.18-2.16 2.28-3.18z"/></svg>