<svg viewBox="0 0 329 80" xmlns="http://www.w3.org/2000/svg"><path d="M15.2 23.54v-7.86h23.94v-5.22h9.78v5.22h23.7v7.86h-5.16L49.94 46.28l10.8 11.64q1.98 2.04 5.04 2.04h6.84v7.92H60.38q-3.96 0-6.6-2.76L43.76 54.38l-6.72 8.82q-4.74 4.68-9.96 4.68h-10.2l-1.44-7.92h8.76q2.1 0 3.42-1.38l9.06-11.7-18.42-19.56H32.3l10.62 11.46L54.8 23.54H15.2zm90.72 14.64h13.56q1.38 0 1.44-1.5V11.36h9.78V38.9q0 5.82-5.7 5.76h-9.3v3.78h15.48v19.44h-8.82V55.46h-6.66v12.42h-9.78v-29.7zm-3.78 29.7h-9.78V55.7H88.4v6.48q0 2.1-1.5 3.84Q85.22 68 82.64 68h-6.3l-1.2-7.68h1.62q1.26 0 1.62-.6.48-.54.48-1.5V55.7H75.2v-7.02h17.16V44.9H77.12V11.36h9.78v27h15.24v29.52zm-2.7-49.56h9.18V15.8h-9.18v2.52zm0 6.12h9.18v-2.16h-9.18v2.16zm9.18 3.9h-9.18v2.34h7.74q1.38 0 1.44-1.5v-.84zM89.9 11.18h28.26v18.36q0 5.76-5.7 5.76H89.9V11.18zm76.02 1.68h15.66q1.44 0 1.44-1.5v-.9h8.88v4.56q0 5.76-5.76 5.7H175.7v5.22h16.92v7.92h-2.82v34.02h-9.78V33.86h-4.32v28.26q0 5.76-5.7 5.76h-5.1l-1.32-7.92h.9q1.38 0 1.44-1.5v-45.6zm-9.12 33.9h5.1v19.02h-5.1V46.76zm-4.08-25.8h-5.76l1.5 5.7h2.64l1.62-5.7zm2.16 23.7v17.28q0 2.1-1.56 3.9-1.68 2.16-4.38 2.04h-5.34l-.84-4.98q-.18 1.02-1.02 2.04-1.44 1.56-3.42 1.5h-1.74l-1.32-7.92h.3q.9 0 1.38-.48.36-.48.42-1.26V46.76h5.52v13.2q1.2 0 1.74-.66.48-.54.48-1.5V44.66h-9.24v-7.44h9.24V34.1h-9.72v-7.44h4.26l-1.56-5.7h-2.22v-7.44h9.24v-3.06h9.78v3.06H164v7.44h-2.46l-1.56 5.7H164v7.44h-9.12v3.12h8.64v7.44h-8.64zm91.08-17.28v6.84L213.68 58.1q-2.76 1.62 2.82 1.62h35.16v7.92h-47.34q-4.68.18-6-3.6-1.14-3.42 1.26-5.94l30.24-22.8h-31.86v-7.92h48zM235.1 14v-3.54h9.78V14h7.74v7.92h-7.74v3.3h-9.78v-3.3h-22.32v3.3h-9.84v-3.3h-7.74V14h7.74v-3.54h9.84V14h22.32zm40.5 10.98h9.36l-3.6 25.62h5.28V22.64h-13.68v-7.92h13.68v-4.26h9.78v4.26h14.52v7.92h-14.52V50.6h4.02l-2.34-25.62h9.36l3.06 31.68q.12 1.68 1.44 1.62h.42v7.92h-5.16q-5.28 0-5.76-5.4l-.24-2.34h-4.8v9.42h-9.78v-9.42h-6.36l-.3 2.64q-.9 5.16-6.36 5.1h-2.94l-1.38-7.92h.54q1.2 0 1.5-1.56l4.26-31.74zm-9 5.4h1.44v37.5h-9.78V35.06h-2.1l-1.38-7.92h1.26q1.8 0 2.16-1.74l3.6-14.76h9.78l-4.98 19.74z"/></svg>