<svg viewBox="0 0 388 80" xmlns="http://www.w3.org/2000/svg"><path d="M45.42 24.68q1.44-.84 2.34-.12 1.62 1.5 2.64 3.24.3.72-.42 1.08-.78.42-1.92.6-2.52.18-5.34 1.32 1.92 2.16 1.56 4.02-1.26 7.38-6 15.36.18.18.54.42 6.66 5.58 13.2 6.66 3.54.54 9.48 2.28.48.24.66.54-.06.36-1.5.78-3.66 1.62-9.12 2.22-2.16.18-3.36.18-5.4-1.08-12.12-9.96-3.78 4.38-6.9 5.46-4.86 1.32-7.62.24-2.16-.9-4.2-3.3-1.98-2.34-2.16-3.96-.18-.3.06-.36l.36.3q1.74 2.76 3.66 3.66 1.56.72 4.08.48 6.12-.3 10.2-5.58-3.24-3.42-8.34-6.66-2.16-1.2-3-.9-1.26.36-1.38-.48-.24-1.08.66-1.62.9-.84 2.82-.72 3.6.36 10.98 7.74 4.32-7.92 4.38-15.48-14.28 5.1-16.86 3.48-2.7-1.62-2.7-4.74-.18-1.08.96-1.74.9-.66.78.18-.24.72.3 1.2.66.54 4.02.3 3.18-.18 9.3-1.86 5.22-1.56 9.96-4.26zM27.6 15.92q-.72-.84.3-.84 5.16-.18 8.16 1.32 3 1.68 3.9 4.38.54 1.98.18 3.66-.54 1.08-1.2 1.5-.72.36-2.28-.24-1.8-.72-4.08-1.14-2.7-.18-5.16-.84-.6-.12-.48-.36 0-.18.36-.18 1.56-.12 3.54-.36 2.64-.48 3.24-1.38-.72-2.82-6.48-5.52zm66.78 27.96q1.56-1.44 3.84-5.64-.36-1.44-.48-1.86-.36-.48-.48-1.14-2.04.78-3.06 1.5 1.56 2.16 1.2 3.48-.72 1.5-1.02 3.66zm7.26.06q-.06 1.62-.06 2.94-.18 0 .06-.06 1.02-.54 1.68-1.32.48-.72.48-.96-.24-.18-2.16-.6zm-11.7 3q.18-.18.6-.36-.06-1.38.12-2.52-2.34.42-4.08 1.08-5.82 2.22-8.28 2.64-1.32.06-1.26-2.46-.06-2.7.96-2.88 2.52-.48 3.18-1.26.48-.9.12-2.76-1.26-3.18-.3-6 .66-2.82 3.48-3.42.36 0 .48.06-.06.24-.36.36-1.62.78-1.2 2.52.18 1.62 1.08 3 1.62 3.06.96 5.16-.18.72.06.9.18.18 1.44-.24 3.54-1.2 4.08-1.02-.18-.12.06-.12v-1.5q-.42-.12-.78-.48-.72.72-.66-.78-.24-.18-.42-.6-1.14-2.1-.96-2.7-.24-.54-.06-1.62.3-3.72.12-11.64-.18-1.74.9-1.26.72.36 1.38.84.12-.12.3 0h1.38q4.98-1.44 6.18-.9.54.18 1.08 1.38.36.78.24 1.32 0 .36-.72.54-4.56 1.98-5.4 2.52-.78.36-1.32-.12-.18.78-.18 2.16 5.52-1.92 6.42-1.38.36.18.9 1.02.3.72.3 1.08-.18.18-.66.48-6.18 2.4-7.14 3.12l-.06 1.8q5.4-2.16 6.48-1.62-.06-.3.12-.36 0-.18.78-.06 1.08.18 1.5.12.18-.12.36-.78.36-4.98-.3-13.02-.18-.66-.3-.72-.54-.36-1.74-.06-4.32-.48-9.54 1.8-.42.18-.42.06-.18-.12.24-.54.36-.72.84-1.26 3.42-4.26 8.52-4.62 2.88-.48 4.68.96 2.16 1.62 2.28 3.72.72 14.4-2.04 20.1-.6.72-1.08.66-.18-.12-.18 0-.06.54-.06 1.02-.24.36-.24 2.28 3-1.08 5.28-1.56.3-1.02.6-1.74 1.08-3.9-.42-6.06-.6-.66-.06-.84.3-.3 1.44 0 2.64.72 3.84 3.18.54 1.26-1.86 5.76.36.54.96 2.1.18.54-.36.66-.6.18-1.62.96-1.5 1.14-7.32 4.5-.36.54-.72.12-.06 0-.06-.06-.06.72-.06 1.32.84-.18 1.5-.18 8.22-2.34 9.78-1.32.54.24 1.08 1.56.36 1.08.24 1.5-.18.36-.9.54-1.98.54-3.54.96 0 .36.06.66-.06.54-.06 1.08-.72 3.48 2.64 3.72 1.92-.36 2.94 1.92.66 1.98-.36 2.16-1.08.36-1.74.24-1.08.18-2.58.54-2.22.72-5.88.24-.9 0-.9-.24-.06-.18 2.94-1.14 1.02-.48.96-.6-.06-.18-.36-.84-1.8-2.46-.66-5.7.18-.72.24-.9-.06-.18-.06-.3-5.4 1.26-5.34 1.26.54 7.74-.36 11.64-.42 1.38-.78.78-2.34-2.22-1.98-8.22.54-10.98.06-18.54-.06-.12-.06-.18-2.22 4.56-4.2 6.78-.54 2.34-.3 7.2.18 7.02-.18 8.64-.6 3.18-1.14 2.94-.6.18-1.92-3.06-1.26-2.82-.54-3.18.12-.18.3-1.8.18-2.46.18-7.44-1.8 1.44-5.82 3.96-.36 3.06-.12 3.84.3 1.62-.18 3.3-.96 1.62-4.32 4.32-.42.36-.54.24-.6 0-.78-1.74-.54-2.82.18-3.3 1.26-1.08 1.44-2.04.18-.72-.18-2.22-2.22 1.08-4.56 2.1-.78.24-1.08-.3-1.44-1.8-.12-5.1.48-1.62.9-.72.12.36 1.02.12 8.28-2.28 13.56-5.16zm74.64-.66q-.96-.84-3.06-.66.18 3.06.18 3.72 2.64-2.28 2.88-3.06zm.12-3.48q2.46-.18 4.56 1.86-.06-2.1-.06-7.56-1.62.54-2.58 1.32-1.32.9-3.06 1.62-1.14.42-1.98.9-.24 1.44-.06 2.94 1.56-1.02 3.18-1.08zm1.68 10.38q-.78-1.26-.42-1.5.12-.12.48.18 1.44.36 2.22.3 0 .06.18 0 .18 0 .36-.66.12-2.1.12-3.9-.54.36-1.44.48-1.44.18-6.18 2.16-.06 2.58-.06 4.14 2.28-.72 4.92-.9-.18-.18-.18-.3zm-17.64 8.1q.12 3-.24 2.94-.6.18-1.26-.9-1.98-2.82-1.92-9.36-1.14.72-2.4 1.74-1.08 1.14-2.16 2.46-.42.42-.78.36-.24-.12-.42-.48-.96-3.06-.24-5.34.66-2.82 2.04-3.9 1.92-1.74 4.26-4.56.12-2.46.48-4.8-2.22 1.8-6 5.58-2.16 1.86-3.54 1.5-1.98-.72-4.2-2.34-1.44-1.02-.06-1.32 1.56-.48 2.58-1.38 3.36-2.52 8.22-5.46 1.44-1.38 3.96-3.9.66-5.16 1.02-8.4-2.76 3.78-4.2 7.8-.6 1.08-.96 1.56-.36.24-.78.06-2.7-1.38-3.18-3.84-.72-2.82.9-4.98.18-.36.36-.24l.06.42q-.54 1.44-.3 2.22 0 .54.42.66.9.72 2.46-.66 1.8-1.62 5.34-4.32.36-6.84-1.32-7.26-.72-.18-.48-.6.12-.36 1.32-.48 2.16-.18 4.8 2.4 1.26 1.44.06 4.56-.78 1.86-1.68 6.42 2.7-3.78 2.94-4.68 0-.72.96-.72.54.06 1.32.42 1.62 1.08 1.92 2.82.18.78-.18 1.14-3.06 2.34-5.34 4.74 1.56-.36 2.76.54.66.42 1.2 1.5.36 1.14-1.2 1.62-3.84 1.26-5.28 2.04-.18 0-.18.12.18.36.6 1.26.9 3.84-.84 7.74.48-.54 1.26-1.02 4.8-4.5 8.7-8.82.12-1.92.24-3.96 0-5.16.72-5.82.18-.18.96.42 1.26 1.08 1.56 2.46 0 .18-.84 5.76 1.02-.18 2.64-1.08.3-.36 1.02-.36 2.28-.12 3.36.96 0-2.88.36-7.02 0-.54-.36-.78-.6-.3-1.98.42-3.6 1.08-4.5.72-.72-.36-.24-.72 1.02-.66 2.28-2.1 2.1-2.82 4.38-2.58.72 0 1.44.66 2.64 2.22 2.58 5.04-1.08 4.32-.12 23.16-.06.72-.06 1.74 2.52.06 3.6-.12 1.74-.9 3.84 1.62 1.44 1.8 1.62 2.82 0 .96-.36 1.2-.36.36-1.62-.12-4.14-1.38-7.74-1.08-.24.72-.66 1.32-.54.54-.9.6-.18.06-.36-.3-.72-1.02-1.14-1.56-3.24-.3-14.46 2.82-1.32.42-2.7-.66-.9-.48-.72-1.5.12-1.08.96-1.92.72-.84.78-.12-.24.78.84.54 2.82-1.2 5.94-1.74-.72-1.44-1.08-2.22-.54-1.08.24-9.84.18-3.24.36-5.28-5.76 8.52-11.16 14.04-.06 5.22.48 9.72zm76.8-19.38q-.24-5.16-.9-6.54-2.7.6-6.36 3.06-1.8 1.08-2.7.66-2.4-.9-3.12-2.7-.36-.9-.06-1.32.3-.36 1.02-.3.54.18 2.46-.84 3.06-1.62 12.78-3.42 2.1-.36 4.2-1.08 1.08-.36 1.98-.12 2.82.6 4.02 3.36.36.78.18 1.2-.18.6-.72.72-.78.18-2.16-.06-4.86-.54-7.08-.06-.06 0 .12.12.54 1.08.54 2.82 0 4.92-.18 7.86-.36 2.52-.18 7.2 0 5.58-3.18 9.12-1.08 1.26-1.38 1.14-.36 0-1.2-1.26-1.26-1.38-3.12-3.24-3.66-3.18-4.74-5.82l.06-.36q.12-.3.3-.18 5.04 4.56 8.22 3.96 1.02-.84 1.2-2.34.18-7.14 0-11.58zm-4.68-21.84q1.56-.36 3.12-1.14 2.82-1.56 4.92-.54 1.26.54 1.92 2.4.18.6 0 1.08-.24.54-2.16 1.38-2.16.9-8.88 6.84-.78.54-1.02.24-.36-.18.42-.84 3.36-3 3.48-3.96-.06-.36-.54-1.14-1.08-1.2-1.38-2.22-.6-1.08-.96-1.62-.42-.48 1.08-.48zm-17.88 15.06q3.24-4.44 3.12-5.1-.18-.84-1.86-.9-.72.42-1.26.9-1.44.9-1.8-1.68-.78-6.06 1.68-5.7.72.18 3.06-2.04 2.46-2.88 1.56-4.02-1.5-2.28 1.44-.9 2.82 1.32 3.9 3 1.08 1.86-.54 3.24-3.06 2.88-5.46 5.1.12 0 .48-.06 1.56-.12 3 .9.9.54.9 1.5.48.96.12 2.34-3.24 3.84-4.26 5.34-.9 1.08-1.98 2.4 1.2 1.62.84 3.48-1.08 3.84-.18 11.58.36 3.66.06 4.68-.72 1.26-1.14 1.38-.78.06-1.68-1.44-1.62-2.46-1.44-4.8.12-1.38.12-4.32-.06-2.82.12-4.5v-2.64q-3.12 3.06-5.58 4.8-2.4 1.86-2.94-.24-.42-1.92.3-3.66.54-1.02 1.2-1.08 2.28-.3 8.22-7.56zm81.36 16.38q1.98 1.08 3.78 2.58-.06-2.28-.24-4.26-.18-1.2-.48-1.26-.36 0-.54.42-1.08 1.44-2.04 2.16-.36.06-.48.36zm2.52 8.4q-2.16-3.9-4.56-5.16-.42 1.26-.78 2.64 1.74 2.76 4.08 3.78l.18-.06q.54-.18.96-.48.18-.18.36-.24-.24-.18-.24-.48zm-4.14-12.6q1.2-1.8 2.58-2.7 1.08-1.44 2.64-1.44.9 0 1.86.78-.06 0 .06.18 2.82 3.12 2.76 5.28-.06 1.98-.24 3.36-.24 1.44-.24 3.36-.18 5.1-3.3 7.86-1.62 1.26-2.82 1.02-.36.36-.36.06-1.44 0-3.24-1.68-3.12-2.64-4.92-5.82-1.68-3.24-1.5-5.82 0-2.28 1.74-5.88 1.08-2.1 3.72-4.92 3.9-4.32 4.56-4.68-.96-1.26-1.14-4.86-2.76 5.04-9.24 14.34-.42.54-.78.48-.42-.12-1.2-1.2-2.04-3-1.98-5.88-3.66 6.18-6.18 9.36-.18 7.2.78 13.08.36 3-.18 3.12-.72.18-1.32-.9-1.14-1.14-1.68-3.3-.6-2.28-.78-8.82-1.8 1.5-4.26 3.36-.72.42-1.2-.12-1.62-1.62-1.02-5.22.3-1.74.84-.9 0 .24.54.24 3.18-2.88 4.74-5.1 0-.36.36-.72 0-3.78.54-7.32-1.86 1.62-3.42 3.3-.9.72-1.38.9-1.86.54-3.66-.42-1.62-.9-2.94-3.42-.78-1.2.48-1.08 2.64 0 8.46-4.44 1.98-1.56 3.18-2.22.72-9.66-1.5-10.2-.78-.18-.6-.54 0-.54 1.44-.6 2.46-.12 5.4 2.34.72.9.96 1.44.12 1.08-.6 3.06-.54 1.08-.9 3.3 1.92-.12 2.58 1.2.54 1.44-1.14 2.58-1.32.78-2.34 1.68-.36 1.8-.48 3.54.9.54 1.44 2.34 0 1.08-.78 3.12 2.16-2.28 4.5-4.98-.18-.18.06-.3.18-1.8.24-5.64 0-3.18.18-4.8.18-1.74 1.08-1.8.54 0 .72.84.18 1.08 1.26 2.46.18.24.36.6.72-.36 1.14-.42.54-.18.54-.42.3-.54-.48-2.76-.54-.18-.3-.42 0-.12.54 0 5.22 1.5 5.58 2.16.36.72.24 1.26 0 .54-.6 1.08-1.62 1.26-3.12 3.06-.78.9-1.32.96-.54.06-2.04-1.02-.24 1.08-.42 2.22-.96 4.2-.6 4.56.3.18 1.32-.42 4.32-3.36 8.88-8.94-.06-2.16.24-4.2.54-5.7-.18-8.28-.72-1.74-1.44-.9-.18.06-.36 0-.42-.48.3-1.08 1.44-1.44 4.38.3 1.38.9 1.74 1.98.18.96-.48 6.84-.54 3.78-.54 6.18 1.98-1.62 3-3.66 2.7-5.52.12-5.76-.72-.12-.66-.36 0-.18.72-.36 3.18-.72 4.98 1.2.66.9.96 1.92.18.96-.3 1.5-.72.54-1.56 2.16-4.02 6.54-7.32 6.6 0 .96.6 1.38.84.36 3.42-.9 5.04-1.26 7.02 2.46.66 1.62-.54 1.92-7.2 2.04-10.56.3-.36 1.14-.66 1.44-7.8 4.86-8.46 8.46-.54 2.88.54 5.58 1.2-3.96 2.94-6.48zm62.64-23.28q-1.8-2.52-2.34-3.66-.6 1.86-.72 5.64 1.2-.36 2.58-.72.18 0 .42-.48.18-.36.06-.78zm-7.68-9q-.24-2.34 1.2-1.68 1.98.96 4.32 3.42.54.9.24 2.16-.18.18-.18.3l.18.18q3.36 5.04 5.7 4.98 3-.3 4.62 1.44.54.78.78 1.98.12 1.32-1.86 1.32-6.84-.18-10.62 1.2-.06 0-.06.12 3.36 1.5 6.72 5.76 3.6 4.74 7.14 6.12 3.9 1.5 6.84 4.5.36.42.36.78-.18.24-.72.36-3.48.36-8.4-.54-.6-.18-.78-.18-1.86-.54-4.32-4.74-2.16-3.54-6.96-7.44-.18 5.4-.12 10.5 1.2-.36 2.34-.36 2.52 0 3.96 1.5.84 1.44.48 2.7-.18.36-.9.42-3.6.36-5.82.9-.06 2.16.12 4.26-.06 4.56-1.32 8.52-.54 1.44-.84 1.32-.54.18-1.02-.96-1.8-3.18-.9-12-.9.18-1.44.42-.72.18-1.62-.42-2.04-1.38-2.7-2.22-.72-.72-.48-.96 0-.3.9-.36.36 0 5.7-1.8.36-8.04.18-8.52-1.32 2.04-2.34 3.96-4.56 7.2-10.38 7.14-1.08.18-1.2-.24-.18-.36.84-.96 2.64-1.74 5.58-4.68 6.3-7.92 6.06-10.44-.18-.3.06-.54-2.34.78-4.56 1.92-1.98.96-2.82.36-1.26-.9-2.46-2.64-.78-1.02.24-1.02 1.08.06 2.16-.3 3.54-1.62 8.64-3.24-.18-5.7-.54-12.3zm-17.52 19.2q-.78.9-.66 2.16l.48.48q1.26 1.26 1.98 2.76 2.7 8.34 1.14 16.56-.72 2.7-1.5 2.58-.96.06-1.8-2.28-1.26-2.82-.84-5.76.9-6.12-.18-9.9-.6-.84-4.62-1.26-1.44-.18-1.08-3.42.18-2.88 1.32-2.64.36.18.9.42.48-.84 1.2-1.38 4.98-6.3 7.98-13.38.18-1.2-1.02-2.04-.54-.36-.3-.6 0-.18.78-.12 2.64.36 4.44 1.2 2.46 1.44 2.52 3-.18.6-.84 1.32-1.68 1.5-2.76 3.36-2.76 4.32-7.14 8.94z"/></svg>