<svg viewBox="0 0 389 80" xmlns="http://www.w3.org/2000/svg"><path d="M46.7 26.72q-6 1.5-13.14 3.9-6.42 2.34-10.02 2.4-3.54 0-5.82-1.38-2.28-1.2-2.28-2.94.06-1.56 1.5-1.68 1.38-.12 4.86-2.04 5.28-2.58 10.08-4.38-.36-.18-.6-.48-1.56-1.38-2.22-2.88-.72-2.22 1.14-4.08 1.08-1.08 3.36-1.68 1.2-.3 2.58-.3 1.14 0 2.46.24 3.18.54 5.22 2.52 1.08 1.14 1.92 2.52 3.18-.54 5.22-.48 6 .06 10.68 2.34 4.62 2.22 4.74 4.68-.12 2.46-1.68 3.66-1.62 1.26-3.78.42-1.68-.72-3.78-1.2 1.26 1.44 1.8 2.7.42 1.26.42 3.06-.18 3.72-4.02 8.16-1.68 1.92-3.36 4.14Q57.8 48.5 62.9 54.98q1.98 1.98 2.28 4.74.18 2.7-1.62 4.5-1.74 1.74-4.86 1.02-3.12-.84-5.88-4.02-3.84-4.2-7.74-7.98-2.94 3.72-6.42 6.6-4.92 3.84-8.88 5.46-3.54.9-5.64.96-.72 0-1.2-.12-4.32-.78-4.26-4.86 0-2.04-.54-3-.36-.42-1.44-2.1-1.08-1.56-.72-1.98.36-.36 1.02.36.54.72 1.44 1.86.72 1.08 1.32.78.36-.36-1.08-2.34-1.5-1.92-1.14-2.34.42-.36 1.2.54.72.84 1.44 1.62.72.78 1.92.72 3.12-.3 7.68-3 3.84-2.28 7.2-6.06-11.04-8.04-16.44-6.96-1.56.06-2.28-.96-.72-1.02 1.08-2.7 1.74-1.62 5.46-2.1 9.3-.18 18.3 4.5l1.08-1.8q2.46-4.38 4.26-6.42 1.8-1.92 1.8-2.58 0-.54-.84-1.26-1.26.18-2.7.66zm11.76-8.52q-1.56 0-1.08.96.18.36 1.08.48 2.46.36 4.56 2.34.78.78 1.32-.18.06-.36-.3-.9-2.46-2.28-5.58-2.7zm-20.1-5.58q-.72-.18-1.02.18-.24.24-.06.66 0 .36.96.6 1.98.54 3.72 2.4.36.42.72.42.96-.3.42-1.32-2.04-2.28-4.74-2.94zM36.14 56.3q.42-.54.3-.96-.54-1.02-1.56.24-2.46 2.82-6.78 4.08-1.14.36-.54 1.14.18.36.84.24 4.74-1.32 7.74-4.74zm3.3.72q.48-.54.36-1.02-.54-1.02-1.62.24-3.78 4.56-10.56 6.48-1.14.36-.48 1.14.12.36.84.24 7.02-1.92 11.46-7.08zm13.14-10.8q-.48-.48-.84-.24-1.02.54.36 1.68 3.84 3.3 7.74 8.34.9 1.32 1.44.18.18-.36-.06-.78-3.9-5.04-8.64-9.18zm60.24-25.68q0 6.66.42 14.46 0 1.2-.24 2.28 1.62-.48 3.54-.9 0-.66.24-1.32.72-3.66.54-14.1.18-3.24-.96-3.84-1.26-.66-1.44-2.04 0-2.58 3.18-2.76 1.32 0 2.76.96 1.44 1.08 2.28 2.4.9 1.2 1.08 2.52.24 2.28.36 4.98 0 2.64.54 8.04.54 5.34-.3 9.12-.66 2.28-3.12 2.4-1.08 0-1.92-.42-4.44.9-8.34 2.4.18.72.3 2.94 1.26-.66 3.06-1.14 2.76-.78 5.04.12 2.4.6 4.14 2.94 1.74 2.16 1.8 5.1 0 3.18.18 6.96 0 .42.06.84 0 2.52-1.5 3.3-1.26.6-2.64.66-.54 0-1.08-.12-1.74-.36-2.64-1.32-.84-1.08-.78-1.92 0-.66-.06-2.04-.12-1.32-.06-4.38.06-3-.42-3.3-.36-.12-2.34.96-1.44.9-2.52 1.14 0 .66.18 1.5.3 6.48-.84 8.1-1.26 1.38-3.6 1.44-5.04 0-4.5-6 .18-2.58.18-5.34 0-2.64.18-5.16.24-3.48-.9-4.14-1.74-1.02-.96-3.42.06-1.2 1.14-1.32.06-.12.3-.06.72-.3 1.2-.36.48-.12 1.08-.48.36-.3.9-.54-.84-.18-1.74-.06-1.92.06-5.22.84-.66.06-1.2.18.36.48.72 1.26.54 1.38.36 6.36-.18 4.98.18 9.66.36 6-.84 7.44-1.08 1.38-3.36 1.38-4.5-.12-4.14-5.64.24-3.84.3-7.44-2.58.6-4.8 1.56 0 .18.12.54.36 2.46 0 4.86-1.2 4.26-2.52 5.28-.9.6-2.04.6-.48 0-1.08-.12-1.74-.54-2.52-2.16-.66-1.56.66-5.04l1.08-2.76q-3.06-.66-3.36-3.48-.3-2.16 1.26-2.46 1.56-.18 3-1.2 3.06-1.74 7.56-2.7 1.56-.36 2.88-.18.18-2.64-.78-3.18-.18-.18-.3-.24l-7.68 2.1q-1.92.18-3.42-.9-1.44-1.02-1.86-4.68.18-8.4-.24-15.78 0-1.56-.48-2.28-.48-.66-.54-1.56.06-2.22 2.88-2.16 1.2 0 2.88 1.5 1.56 1.44 1.62 3.78 0 4.74-.54 9.42-.66 4.56-.3 5.64.54.66 3.66-.36.84-.36 1.86-.54-.3-.36-.42-.72-.36-1.32-.6-5.58-.12-4.2.42-12.6 0-.78-.54-1.32-1.56-1.32-.06-2.58 1.62-1.2 3.96.84.96.72 1.38 1.98 2.64-2.28 6.36-4.2 2.82-1.56 5.64-1.5.9 0 1.92.18 2.64.72 4.5 3.3 1.8 2.46 1.86 5.58zm-12.66-2.04q-3.66 2.46-6.12 2.82-.36 0-.66.06v.18q.06 1.62.06 3.36.36-.18.84-.48 1.98-1.38 4.32-2.52 2.28-1.02 4.26-1.38 1.26-.18 2.28-.06.18-3.66-.48-4.02-.84-.36-4.5 2.04zm-5.88 12.3q2.34-1.2 4.92-2.04 3.06-.96 5.46-.96 0-1.44.18-2.94-1.02-.12-2.28.18-1.56.36-4.02 1.56-2.28 1.26-3.72 1.62-.96 0-1.62-.06-.18 1.38 0 3.12.36-.18 1.08-.48zm10.2 1.02q-2.4 0-5.88 1.26-2.76.9-4.2 1.14-.54 0-1.02-.12.18 1.74.54 2.22.18.36 3.06-.48 2.82-.84 5.64-1.14.9-.12 1.92-.06v-2.46q0-.18-.06-.36zm2.46-18.42q-.72-.3-1.02-.06-1.08.54.6 1.5 1.62.78 2.82 2.82.24.54.6.54t.6-.3q.24-.3.06-.9-1.38-2.46-3.66-3.6zm12.66 35.16q-.84-.18-1.14.06-.18.36-.18.72t.9.66q2.46.72 3.42 3.24.18.54.6.72.42 0 .72-.3.24-.36 0-1.02-1.44-3.12-4.32-4.08zM97.64 62.48l-.18-14.52q0-.72-.36-.9-1.08-.54-1.08 1.02 0 6.84.18 14.46 0 .42.42.66.36.12.66 0 .36-.18.36-.72zM80 19.82q-1.32-.84-1.32.42 0 .36.78.9.72.42 1.32 1.56.18.48.6.54.36 0 .66-.18.24-.18.12-.9-.72-1.5-2.16-2.34zm40.62-4.38q-.66-.48-1.02-.24-1.02.48.3 1.5.6.36.96 1.26.36 1.02 1.26.42.24-.24.18-.84-.54-1.38-1.68-2.1zm1.44 19.8q0 .66.36.84.36.06.72-.06.36-.18.36-.9-.3-5.94-.66-12.42 0-.48-.42-.6-.3-.18-.66 0-.36.18-.3.78.24 6.18.6 12.36zM80.3 63.98q.36.72.78.78.36 0 .66-.36.18-.3-.12-1.02-.36-.78 0-1.74.36-.48.12-.9-.18-.3-.66-.24-.48 0-.84.6-.48 1.5.06 2.88zm30-1.2q.54-1.38-.66-1.32-.36 0-.66.84-.18.9-1.2 1.2-.48.06-.6.54-.3 1.14 1.26.78 1.38-.66 1.86-2.04zm73.44-51.12q.9.36 1.2 1.86.36 1.44-.18 2.94-.66 1.44-4.08 2.16-3.48.96-9.18 3.06-4.32 1.56-6.54-1.02-.84-1.26-.96-2.46 0-1.26 1.2-1.2 1.26 0 3.72-.6 5.64-1.14 11.34-2.82.96-.3 1.14-.9.06-.72.84-1.08.54-.36 1.5.06zm-2.7 4.44q.6-.18.66-.66 0-1.08-1.68-.42-4.92 1.8-11.28 2.94-.72.06-.9.42-.18.24 0 .72.18.36.78.36 6.36-1.08 12.42-3.36zm-10.98 7.98q6.18-1.74 12.3-4.14.78-.3.84-.9 0-.54.6-.84.54-.3 1.26-.06.72.18 1.14 1.44.36 1.08-.06 2.4-.18.54-1.2 1.2 2.88.36 3.24 2.76.36 1.8-1.62 3.42-1.92 1.98-5.88 3.96-1.56.72-2.82 1.32 5.28-.12 7.86.96 2.88 1.2 3.06 2.94-.12 1.68-1.02 2.52-.84.78-3.3-.06-3.48-1.02-9.6-.54l.48 1.62q.72 0 1.5-.06 1.98 0 3.84.66 4.14.36 5.1 5.52 0 2.7.12 4.86.06 1.98.18 4.62.18 2.1-.36 3.36 2.34 2.22 1.62 4.5-.36 1.2-1.44 1.74-.54.18-1.14.24-.54 0-1.08-.18-3.48-.9-5.64-2.64-2.1-1.74-4.86-1.86-1.38.36-3.36.12-1.02-.12-3.66 2.7-1.38 1.26-3.84 1.74-.48.06-.9.06-1.92 0-3.48-1.14-2.28-2.1-1.92-4.08.36-1.92.9-2.4.36-.36 1.14-.3.6.06 1.14 1.38.42 1.26 1.8.42-1.56-.96-2.04-3.54-.36-1.98-.06-5.88.36-3.84.06-4.5-.84-1.2-.54-2.04.36-.9 1.56-1.2 1.14-.3 2.58.3.36.06.72.36.9-.12 2.28-.54l.24-.12q0-.36-.06-.66-.18-1.32-.96-1.32-4.38.9-6.12.12-2.1-.9-2.16-1.8 0-.9 1.02-1.14 1.08-.18 4.62-1.2 4.02-1.44 7.68-2.34-2.52-.66-4.32-2.34-4.02-3.66.3-2.58 3 .78 7.08-.24t8.34-3.42q1.38-.84 1.32-1.2 0-.3-.6-.6-.48-.3-.6-.9-3.66 1.44-8.64 3.9-1.74.72-3.24.66-1.62-.18-2.46-1.14-.9-1.02-1.08-2.1-.12-1.02 1.02-1.08 1.02 0 3.12-.72zm-2.76 23.1l-.3.12-.36.18q1.02-.36.9-.36t-.24.06q-2.1.54-2.64.72v.42q-.12.42-.12 1.26l.66-.24q1.98-.72 6.3-1.32 5.94-.9 7.38-.48 0-1.26-.06-1.38-.12-.18-1.68-.42-1.62-.3-4.14 0-1.56.18-3.18.6-.18 0-.24.12-.48 0-.84.24-.36.06-.72.3-.18 0-.36.06l-.12.06h-.12l-.12.06zm-1.56 6.54q1.74-.6 5.76-1.14 3.9-.54 5.34-.6 1.02 0 1.74.3 0-.36.06-.9 0-.78.06-1.32-1.08 0-4.74.42-3.18.3-5.34.84-2.1.54-3.3.66h-.72v2.1q.36-.12 1.14-.36zm8.1 1.26q-2.94.18-4.98.72-1.92.3-3.12.48-.66 0-1.14-.06 0 1.32.18 1.56.24.24 2.1-.06 1.74-.36 5.7-.66 1.08-.12 2.1-.12.06 0 .18-.06h1.2q.18 0 .42.06h.18q.66 0 1.68.12 0-.9.06-1.74v-.54q-1.2 0-4.56.3zm8.22-10.26q-.72-.36-1.14-.18-1.02.78.42 1.44 1.26.72 1.62 2.4 0 .54.48.78.36.18.78-.12.36-.36.18-1.02-.54-2.28-2.34-3.3zm-16.62 19.14q.54-.66.3-1.02-.54-1.02-1.44.12-1.26 1.62-3.72 1.74-1.32 0-.78 1.08.18.3.96.3 3-.18 4.68-2.22zm19.68-1.32q-.96-1.2-1.5 0-.12.36.42.9.54.6.48 1.56-.18.54.12.84.18.24.72.12.36-.18.54-.84.18-1.56-.78-2.58zm-23.94-3.3q.78 1.44 1.32.24.18-.36-.18-1.14-.66-1.2-.54-2.82 0-1.2-.96-.96-.36.06-.54.72-.12 2.16.9 3.96zm-9.6 2.94q-3.72 2.46-7.2 3.9-2.4.96-4.26 1.02-.78 0-1.44-.24-1.2-.3-1.98-1.14-.9-.84-1.2-2.1-.36-1.14-.84-2.16-.48-.96-.06-1.38.3-.48 1.68-.06 1.56.54 4.44-.3 2.82-.84 4.44-1.74 1.5-.9 1.8-1.5.18-.48-.06-.78-.54-.9-2.52.06t-4.08 1.26q-1.2.18-2.1-.24-.84-.36-1.56-1.86-1.56-3.12-.18-3.9.42-.18 1.14.06 2.16.72 7.92-2.22 2.82-1.38 3.06-2.1.18-.36-.24-1.32-3.54 1.56-7.74 3.06-1.5.54-2.58-.42-.96-1.02-.6-2.64t.9-1.56q.6 0 4.74-1.74 2.82-1.26 5.64-2.88-2.28.72-4.26.6-2.46-.18-4.38-2.1-1.74-1.98-1.5-4.74.06-.54.48-1.2-1.38.24-2.28.54-1.44.18-2.58-.24-1.2-.48-1.32-1.02-.12-.3-.06-.42 0-.18.06-.36.18-.36.6-.36.78-.12 4.56-1.56.36-.18.84-.24-.18-1.08-.18-2.1.06-1.5.06-2.34v-2.64q0-1.86-.18-3.96-.18-1.2-1.32-1.26-1.2-.12-1.32-1.2-.18-2.4 2.88-2.76 1.38-.12 3.24 1.08.48.18.96.72.42-.18 1.14-.36 2.28-.84 7.56-1.62 5.16-.72 7.02-.84 2.16.06 3.06.96.84.9.66 1.62-.12.72-.54 1.02-.36.18-1.8.12-1.32 0-5.22.36-3.78.36-6.42 1.02-2.28.42-3.66.66v.18q.12.6.18 1.8 2.34-.84 7.8-1.56 5.34-.84 7.32-.78 1.44 0 1.98.54.48.54.42 1.08-.12.48-.3.6-.36.18-1.92.18-1.38 0-5.4.42-4.02.54-6.72 1.2-1.86.36-3.12.6 0 .78.06 1.8 2.34-.72 7.5-1.62 5.28-.78 7.2-.78 1.44 0 2.04.48.48.54.48 1.08-.12.54-.36.66-.36.18-1.86.18-1.38 0-5.34.48-3.9.54-6.66 1.26-1.56.36-2.7.6l.18 1.38 4.44-.78q8.28-1.44 11.28-1.44 2.1-.12 3.06.78.84.84.72 1.62-.18.72-.48 1.02-.66.24-2.82.3-1.44 0-4.26.3 2.16.9 3.84 2.28 2.28 1.74 2.52 2.76.18 1.08-.54 2.04-1.74 2.16-5.58-1.62-1.5 1.62-4.08 3.18.72.54 1.2 1.86.42 1.26.18 2.28-.3.96-1.86 1.92-.66.24-1.2.6.36.42.9 1.32 1.14 1.92.9 3.84-.54 2.46-2.16 3.72-1.56 1.2-1.68 1.62.18.24 1.26.42t2.52 1.14q1.44.9 2.16 2.34-.66 1.74-4.32 4.26zm-8.16-27.3q1.14 1.02 4.98-1.5 2.46-1.68 4.8-2.94-1.74-1.08-2.7-.84-.66.06-.72-.24-.84.06-1.62.36-.3 1.02-2.28 1.56-2.1 1.32-2.58 2.22-.36.9.12 1.38zm1.38 3.78q1.44 0 1.14-1.02-.18-.36-1.02-.42-2.1-.18-3.42-2.16-.3-.54-.72-.54-.48 0-.66.42-.18.36.18.96 1.8 2.34 4.5 2.76zm7.14 21.24q.48-.36.42-.84-.24-1.02-1.68-.06-3.96 2.82-9.36 5.1-.66.24-.72.72-.12.36.24.72.24.24.84.12 5.46-2.4 10.26-5.76zm-4.74-16.5q.48-.24.6-.66 0-.36-.36-.66-.24-.18-.9.06-3.12 1.26-6.54 2.88-.3.18-.42.6 0 .3.24.6.36.18.84.06 3.24-1.38 6.54-2.88zm-7.08-24.84l.18 8.46q0 .72.42.9 1.08.48 1.08-1.02 0-3.96-.18-8.4 0-.42-.42-.6-.36-.18-.72 0t-.36.66zm108.3 28.02q-.18 11.76-2.52 17.4-1.2 2.7-3.54 3.24-.66.18-1.5.18-1.86 0-4.08-.78-2.28-.84-4.56-3.78-1.08-1.44-2.16-3.18-.48 1.74-1.02 3.36-.84 2.1-2.94 2.1-1.74-.18-2.94-1.26-.18.54-.6 1.14-.48.6-1.74.9-1.2.24-3.06-.42-2.58-1.2-10.26.3-4.14.9-6.18.3-1.74-.42-3.42-1.62-1.56-1.2-2.04-2.58-.12-.54-.06-2.4 0-1.74.6-5.28.06-.72-.48-1.26t-.54-1.14q-1.02-.9-1.32-2.28-.3-.66-.3-1.26 0-.96.54-1.98.9-1.74 2.64-2.82l.12-.12q-.18-1.86 0-3.66.3-3.72.24-5.64 0-1.92.24-6.3v-1.26q-2.46-.84-2.64-2.04-.12-1.38 1.5-1.92.42-.18 1.2-.48 0-1.86-.12-3.84 0-1.02-1.14-1.32-1.08-.18-1.14-1.26 0-2.46 3.06-2.4 1.44 0 3.06 1.38 1.92 1.56 2.28 3.96 0 .36.06.96 5.64-2.76 9.78-3.66-.12-.24-.24-.3-1.2-1.08-1.2-1.92 0-.78.78-1.56.72-.72 2.1-.84 2.04.06 4.2 2.22.54.6 1.02 1.8.9 0 1.68.3 4.02 1.2 4.32 3.42.36 2.1-.78 3.42-1.14 1.2-4.32.48-.18 0-.3-.06-.3 4.92 0 10.56.06-.3.54-.54.6-.36 2.64-2.46 2.88-3.12 5.52-4.98.36-2.46.78-5.04.42-2.1-.72-3.06-1.26-.9-1.14-2.58.18-1.56 1.2-2.16.84-.54 2.58-.42 2.46.24 4.14 3.06 1.56 2.64 1.26 6.96 3.42 0 6.72 3.36 2.88 2.94 3.78 6.12.54 2.1.48 8.82 0 2.64-.06 6.12zm-25.5 7.44q1.92-6.48 3.9-15.12-1.02.18-1.92.18-1.74-.18-2.94-1.74-.9-1.08-1.2-1.86.06 3 .42 6.48 2.64 1.14 3 2.88.36 1.62-.36 3-.72 1.2-3.12.66-2.22-.3-4.26-.24 0 .72-.18 1.44-.18 1.02-.12 1.38.18.42 2.16.3 1.92-.12 3.06.54.72.36.84 1.38.06.9-.3 1.86-.48.72-1.5.9l-4.86.18q-1.38 0-2.46-.84-.96-.9-1.02-3.48v-2.7q-1.44.42-2.82 1.14.36.36.54 1.08.18.78-.12 1.8-.18.66-.36 1.44-.36 1.56-1.2 3.54-.72 1.02-1.56 1.56-.84.36-1.74.12-1.02-.3-1.56-1.02-.54-.66-.36-1.26.24-.54.06-1.14-.18-.54-.66-1.32-.18-.36 0-.48t.54.42q.36.54.66 1.02.36.54.54.48.18-.12-.24-.84-.36-.66-.78-1.26-.36-.66-.12-.84.18-.12.6.48.36.54.72 1.02.36.54.6.18.18-.54.3-1.08.06-.54.48-1.98 0-.12.06-.18-1.74.72-3.18 1.08-.78.12-1.56.18 0 .06.06.24.18.54.3 1.74v2.16q-.12 1.02-.06 2.4.06 1.26.3 1.56.24.42 3.54-.78 7.26-2.76 12.66-2.04 2.28.36 3.54 1.14.18 0 .36.24 0-2.28 1.32-6zM203.54 27.5q4.26-1.26 9.66 1.92 0-.48.06-.9 0-2.64.06-4.68-1.02.24-2.34.78-4.32 1.56-7.38 2.16 0 .24-.06.72zm6.06 15.72q-3.9-.36-6.48-1.92 0 1.26.12 2.58v2.4q3.18-1.68 6-2.88.18-.12.36-.18zm-5.1-7.98q3-.9 3.24-1.56 0-.36-1.56-.72t-2.88-1.44q-.18 1.98-.18 4.2.54-.3 1.38-.48zm3.96.66q0 .9 2.94 1.02.9 0 1.86.3 0-1.38-.06-2.58-1.02.36-2.16.3-2.4-.3-2.58.96zm-9.54 12.78q-.72-.48-1.08-1.8-.18-.36-.24-.66-1.56 1.08-1.2 1.8 0 .48.6.84.48.24 1.92-.18zm39.48 4.56q.72-4.38 1.5-13.68.9-9.3-.36-9.84-1.08-.36-3.18 2.16-.3 1.56-.54 3.06l-2.7 13.26q-1.02 4.92-1.8 7.8.9.72 2.7 1.56 1.74.72 2.76.48.84-.36 1.62-4.8zm-39.36-38.4q-.72-.36-1.02-.06-.96.78.6 1.44.9.36 1.56 1.44.24.54.72.54.36 0 .6-.3.24-.36 0-.9-.9-1.5-2.46-2.16zm-.36 25.26q0 1.38 1.08.84.3-.18.36-.84.18-5.04.54-10.56 0-.48-.36-.66-.36-.18-.72 0-.3.18-.36.66-.18 5.34-.54 10.56zm34.44-25.74q-.66-.54-1.02-.36-.36.18-.42.66 0 .36.66.9 1.74 1.2 1.86 3.66 0 .54.36.84.3.18.72-.06.36-.18.36-1.02-.36-3-2.52-4.62zM245.3 59q0-1.5-1.02-.9-.3.12-.42 1.02-.12 2.28-1.74 4.5-.36.42-.24.84.54.9 1.32.12 1.92-2.64 2.1-5.58zm-15.48-17.88q.18-.66-.06-.96-.36-.18-.72-.18-.36.06-.6.78l-3.72 13.92q-.12.36.12.72.36.24.72.18.36-.12.54-.6 1.8-7.02 3.72-13.86zm13.14-14.22q-.6-.48-.96-.3-1.08.54.3 1.62 1.56 1.2 2.4 3.54.3 1.08 1.14.48.24-.3.24-.9-1.02-2.82-3.12-4.44zm-30.6 33.66q-.66.18-.78.54 0 .36.24.66.24.24 1.14.12 3.36-.84 7.08.66 1.14.36 1.14-.72 0-.36-.54-.66-4.2-1.56-8.28-.6zm9.54-43.74q-.72-.18-1.02.18-.72.96.9 1.26.84.06 1.56.84.36.36.78.36 1.02-.3.36-1.32-1.2-1.08-2.58-1.32zm75.36 20.16q-14.22-.72-28.5 3.18-2.64.06-5.4-1.26-2.76-1.38-3.96-4.38-.84-3.84 1.32-7.74-3.6 0-5.16-1.02-1.32-.78-1.32-1.86v-.12q0-1.02.96-1.08.9 0 3.3-1.2 6-2.1 11.4-3.66-.3-.66-.48-1.26-.3-1.2.12-2.34.36-1.08 1.8-2.1 1.38-1.02 3.96-1.38.72-.12 1.38-.12 2.1 0 4.38.78 3 .9 4.44 3.36 6.06-.72 9.42-.24 3.9.24 6.84 1.86 2.88 1.62 2.88 3.12-.12 1.56-1.2 2.28-1.08.72-2.4.18-1.32-.54-3.06-.96-4.74-1.02-13.2.42-7.26 1.26-15.54 3.36-1.98.9-2.88 1.8-.9.9-1.5 2.16 1.08-.18 2.58-.66 5.64-1.8 13.5-3.36 7.74-1.56 12.06-1.56 3.9-.36 6.54 1.2 2.52 1.44 3.42 4.02.18 1.08.12 2.64.06 2.88-1.26 4.32-.12 0-.24.12-.3.48-.66.9-1.08.9-3.66.6zm-23.04-3.48q6.66-1.92 18.96-2.52 0-1.92-.18-2.22-.3-.48-3.06-.42-2.76.06-10.14 1.5-7.44 1.26-9.66 2.16-3.24.96-5.88.3 0 .36.18.78.36 1.26.78 1.8 1.26.84 9-1.38zm1.14-21.48q-.66 0-.9.48-.18.36.12.66.18.24 1.08.24 3.18-.18 6.54 1.8.9.54 1.2-.48 0-.36-.48-.78-3.66-2.1-7.56-1.92zm21.36 12.6q-.72-.18-1.08.06-.3.24-.18.66.06.36 1.02.66 1.98.72 3.54 2.76.78 1.14 1.32.06.18-.3-.12-.78-1.86-2.46-4.5-3.42zM283.7 40.16q11.1-1.8 16.02-.9 5.1.9 6.48 3.12.72 1.2.72 2.46 0 1.02-.48 1.98-.66 1.14-1.56 1.74 1.08.9 1.14 2.46 0 2.34-1.14 3.18-1.14.72-5.76-.18-4.56-1.14-9.3-.9.42 1.02.66 2.7.18 2.04.48 3.48.42 4.26-1.8 6.42-2.22 2.1-7.44 2.34-1.38.06-2.52.06-3.9 0-7.08-.84-4.38-1.2-6.78-4.2-2.46-3.12-2.7-5.28 0-1.2.72-.24 1.44 1.62 4.92 2.88 3.54 1.08 7.08.54 3.6-.48 4.14-.9.18-.12.48-1.32.24-1.14.3-4.02-7.74 2.1-10.5 1.74-2.52-.36-4.38-1.56-1.74-1.26-1.8-2.82 0-1.56 2.4-1.32 2.34.18 9-1.5 2.16-.66 4.32-.96.84-.42 2.4-.42 6.48-1.26 11.28-1.26.18 0 .66-.06 2.1-1.38 2.04-2.04-.3-.66-6.12-.18-5.82.54-13.62 2.16-7.74 1.68-11.76 1.8-1.26-.12-2.1-.3 0 .3-.12.9-.54 2.46 0 4.62 1.08 3.6-1.86 4.44-1.38.3-2.7-.18-1.32-.54-1.8-1.5-.54-.96-.84-2.4-.24-1.14-.18-2.34 0-2.82 1.38-5.52.9-1.56.36-3.06-.36-1.08-.96-1.86-.54-.66-.06-1.26.42-.54 1.62-.54 1.56 0 3.18 1.8.9.9 1.5 2.04 1.44.12 3.36-.12 3.18-.72 5.34-.96 2.1-.18 13.38-1.92zm12.06 0q-.72 0-.96.48-.12.3.06.66.24.24 1.2.3 3.78-.18 7.68 2.16.96.6 1.2-.48 0-.3-.42-.72-4.26-2.58-8.76-2.4zm-6.96 14.76q-.12-.72-.6-.78-.36 0-.66.3-.18.24 0 1.32.54 2.28.66 5.16 0 1.44 1.08 1.02.36-.18.42-.72-.12-3.24-.9-6.3zm-29.46 0q.24.72.66.78.96 0 .66-1.5-.9-2.46-.12-5.46.06-.54-.12-.84-.96-.66-1.26.42-.9 3.42.18 6.6zm71.7 2.7q1.08-2.04 2.34-8.46.72-2.76-.24-3.42-.96-.72-.84-2.04.06-1.2.96-1.62.72-.36 2.1-.24 1.14.18 2.22 1.32 2.22 2.16 2.22 4.62 0 1.62-.42 3.6-.3 1.92-.54 5.88-.18 3.84-1.32 6.42-.96 1.98-3.18 1.74-2.22-.3-3.36-2.58-1.2-2.28.06-5.22zm5.1-7.32q0-1.44-1.08-.9-.3.18-.42 1.2-.3 2.28-1.26 4.86-.18.54-.06.9.18.36.66.36.42 0 .66-.48 1.02-3 1.5-5.94zm-7.92-10.2q-.9 7.56-.06 13.98.9 6.42-.36 8.64-1.2 2.1-4.02 1.92-3.18 0-6-3.18-2.76-3.18-2.7-7.56 0-3.18 1.26-5.52 1.08-2.28 3.48-4.26 1.62-1.2-2.22-4.92-3.3-3.36-3.42-5.88 0-.12.06-.36 0-2.4 4.5-7.02 1.26-.84.3-2.64-1.08-1.68-3.12-3.9-1.2-1.08-1.14-2.04 0-.9 1.14-2.04 1.08-1.2 2.58-1.14 3.18.36 6.36 3.78 3.18 3.3 3 6 0 3-2.82 3.96-2.76.84-3.72 1.5-1.02.54-.84 1.2.54 1.26 4.32 2.76 1.08.36 1.92.9.66-4.74 1.68-10.74 0-.42.24-.6-.18-.36-.18-.78-.18-1.5.48-1.74.6-.18 1.68-.18t4.5-1.92q2.46-1.2 4.86-2.16-1.5-2.22-.6-3.96.36-.72 1.5-1.38 1.08-.6 3.06-.72 1.92.06 4.14 1.02 1.68.72 2.76 1.98.54 0 1.08-.06 5.94-.3 10.92 2.34 3.9 1.98 4.08 4.26.18 2.1-1.14 2.94-1.2.66-2.76-.18-3.12-2.04-6.84-1.98 5.82 2.52 10.44 8.52 3.06 4.08 3.12 6-.12 1.92-1.92 3.24-1.68 1.2-3.66.66-1.92-.54-4.14-4.08-.78-1.38-1.68-2.64-1.74 1.74-4.5 3.84 2.82 0 4.98 2.46 2.16 2.46 2.22 5.16 0 2.28-.66 4.62-.66 2.34-1.08 5.16-.36 2.82 0 3.48.36.6 1.14.66.96.18 1.56-.6.48-.84.12-3.84-.36-3.12-.36-9.66v-.78l.36.6q1.98 4.2 3.18 6.42 1.14 2.1 1.86 4.8.54 2.7.3 5.94-.3 3.12-2.64 5.28-1.5 1.38-4.14 1.32h-.66q-2.7-.18-5.1-1.62l-.48-.36q-2.46-1.74-2.16-7.2.3-5.64 1.5-10.8 1.08-5.1.42-5.58-1.02-.18-1.86 3.54-.9 3.72-2.34 5.58v.36q-.3 3.78-.24 7.92.18 4.92-.72 6.06-.9 1.02-3.36 1.02-2.28 0-3.3-3.12-.6-2.22-.24-4.56.3-2.34.3-3.54 0-1.26.36-3.96.24-2.76.24-6.06 0-1.26-1.32-1.5-1.38-.18-1.32-1.8-.18 0-.3.06-3.78 0-6.72-2.64-3-2.46-2.94-6.78.6-3.48 4.74-6.24-2.82.06-4.62-.9-.72-.36-1.08-.9-.3 6.54-.9 12.48 0 .06.12.48 0 .24-.24.84-.12 1.2-.24 2.34zm22.8-2.16l-.54.3q-1.74 1.08-3.48 1.8 1.2.6 1.98 1.92.18-.72.54-1.32.54-1.62 1.5-2.7zm-5.7-6.18q4.44-3.3 8.58-5.4-3.18-3.48-4.98-3.54-.9 0-1.14-.54-.84.24-1.86.66 1.98 3.48-3.48 5.4-3.3 2.04-4.08 3.48-.72 1.32.12 2.1 1.62 1.5 6.84-2.16zm-20.34 11.22q-3.84 4.62-3.3 9.3 0 1.38.66 2.58.72 1.02 1.5 1.02t1.2-6.78q.06-2.64.6-6.96-.36.36-.66.84zm18.9-31.44q-.84 0-1.02.42-.54 1.08 1.2 1.08t3.48 1.14q.42.36.84.18.24-.18.42-.54.06-.36-.36-.78-2.22-1.44-4.56-1.5zm17.94 14.52q-.54-.42-.9-.3-1.02.54.24 1.74 2.28 2.34 4.62 5.7.78 1.14 1.44.3.12-.3 0-.78-2.46-3.66-5.4-6.66zm-24.9 13.2q.72.18 1.02-.06.24-.36.24-.78-.12-.3-.9-.54-2.46-.72-3.42-3.36-.18-.54-.66-.66-.36-.12-.72.3-.18.36 0 1.08 1.44 3 4.44 4.02zM356 64.16q.72.42 1.08.24 1.02-.54-.24-1.44-1.44-.9-1.68-2.76 0-.66-.36-.84-.3-.18-.72.06-.36.18-.3 1.02.36 2.46 2.22 3.72zm-36.78-48.48q-.72-.12-1.08.06-.84.78.78 1.38 2.16.72 3.84 3 .78 1.08 1.32.06.18-.3-.12-.9-1.92-2.58-4.74-3.6zm1.62 46.38q.72.42 1.08.24.36-.18.36-.66 0-.36-.66-.84-3.18-1.92-3.66-6.06 0-.54-.42-.84-1.02-.54-1.02 1.14.72 4.62 4.32 7.02zm-1.62-23.34q.42.42.78.3 1.14-.3-.18-1.62-1.2-1.44-2.52-3.42-.78-1.14-1.38-.3-.3.36 0 .84 1.38 2.28 3.3 4.2z"/></svg>