<svg viewBox="0 0 327 80" xmlns="http://www.w3.org/2000/svg"><path d="M40.04 13.16q1.44.42 2.28 1.44.18.36 1.2.72 1.08.42 1.44 1.2.54 1.08.48 2.04v1.08q.12.78-.66 1.56-.72.72-1.86.66-.72 0-1.14.24-.72-.12-2.4.72-1.5.54-2.1.48-.36-.18.36-.78 1.08-1.08 1.5-1.86-.42-.66-1.44-1.08-.54-.18-.9-.84-.54-.84-1.38-1.44-.78-.36-.66-2.16.12-2.16 1.44-2.22 1.62-.18 3.84.24zm-11.1 14.28q1.44-.54 4.32-1.26 3.72-1.02 5.34-1.26 3.9-.72 6.54-1.32 2.34-.54 4.14-.72 1.56-.18 2.16-.6.72-.48 2.16 0 2.52.9 3.12 1.5 1.26 2.04.96 2.88-.18.54-.66.84-.36.24-.78.72-.36.24-.84.06-.6-.12-1.2-.06-2.76.18-5.64.84-4.92 1.26-8.64 2.16-2.22.6-6.84 2.28-2.58 1.32-4.32 1.08-1.98-.36-3.36-1.44-.96-.72-1.86-2.1-.54-.84-.12-1.68.3-.54 1.26-.66 1.02 0 4.26-1.26zm37.5 31.98q2.52 1.8 2.22 2.58-.54 1.26-1.68.96-1.08-.18-2.4-.6-.96-.18-1.68.54-.54.54-1.26.36-.72 0-1.02.54-.42 1.08-3.66-.36-4.2-1.56-7.5-3.66-2.88-1.8-6.48-4.92-1.08-1.08-2.1-2.16-.36.36-.66.6-3.6 2.94-7.56 4.44-3.42 1.26-6.72 1.92-5.1.96-7.8 1.2-2.16.72-2.46.12-.36-.48 1.32-1.44 1.74-.54 4.98-1.86 3.9-1.62 8.28-3.42 4.08-1.62 7.02-4.68l.78-.78q-.06 0-.06-.12-1.32-2.34-3.06-3.78-1.14-1.08-5.22-1.86-1.5-.12-2.4-.9-1.14-1.08-1.08-1.86 0-.9.6-1.74.66-.72 1.38-1.14.66-.3 2.46.36 4.26.96 7.02 2.82 1.38.78 3.72 3.18.9-1.98 2.04-4.92 1.26-3.54 1.38-4.8.48-2.1 1.02-3.3.54-.84 1.44-.96.72 0 1.74.78.72.42 1.08 1.68.36.96.12 2.46-.18.78-.42 1.38-.72 1.32-1.8 4.44-1.32 4.02-2.94 6.9 2.88 2.34 5.16 3.84 4.08 2.52 7.98 4.2 5.52 2.22 8.22 3.96zm47.28-37.44q0-2.34.42-3.36.66-1.2 2.28-1.14 1.38 0 2.58 1.86.9 1.32.72 3.18-.9 9.96-1.68 12.78-1.32 5.1-2.4 5.94-.72.72-.9 1.56-.36 1.14-2.28 1.86-2.22.6-4.02 1.08-.72.06-.9.54-.24.54-.3 2.1-.06 0-.06.12 2.1-.36 5.64-1.5 4.26-1.26 5.28-1.98.72-.54 1.44-.6.54 0 1.86 1.2 1.74 1.5 1.02 2.58-.78 1.14-1.8 1.26-.18 0-.3.12-.18.36-.12 1.02.12 1.26.12 2.46 0 .96.18 3.42 0 1.26.06 2.04 0 1.32.12 2.64 0 1.44-.36 1.74-.54.84-1.08 1.26-.78.72-1.08 1.8-.36 1.44-.96 1.62-1.14.54-1.32-4.38-.36-2.7-.42-7.14-.18-2.82-.12-4.8-2.94.72-8.16 1.98.12 4.92.48 7.92.18 1.8-.42 2.34-.78.9-1.32 1.68-.72 1.02-1.14.96-.6.36-1.26-.36-.54-.24-.6-1.38-.9-6.06-.78-11.22.18-6.66.9-10.02.18-2.16 2.1-2.46 1.08 0 1.74.48.36.18 1.14-.06 1.56-.66 2.82-1.02.54-.18.78-.6.3-.3.48-.9 1.92-6.3 1.62-16.62zM89.36 48.74q1.08-.18 1.92.12.72.24 1.02 1.62.18.96 0 1.38-.36.36-1.38.78-1.5.54-2.7.96-.06.06-.18.24-1.68 2.4-2.34 3.54-.72 1.5-3.06 6-.54 1.26-1.14 1.86-.72.72-1.14.54-.36 0-.48-.9-.06-1.08.48-2.64.84-2.46 1.74-4.74.3-.9.66-1.86-.36.06-.48.12-.6.42-1.44.36-1.5-.12-1.92-.48-.96-.9-1.5-1.74-.42-.9-.12-2.58.18-.72 1.08-.6 1.02.18 2.46 0 1.74-.3 4.02-.84 2.52-.54 4.5-1.14zm-6.3-23.76q0-1.98.66-2.64.54-.54.78-1.26.36-1.2 1.32-1.26 1.26-.18 1.8 1.32.9 2.16.78 3.66-.6 8.34-.36 11.4 0 1.14-.12 4.74-.06 1.08.18 1.56.18.36 1.5.06 3.18-.54 3.9-1.02.72-.48 2.16.18 2.16 1.08 2.16 1.98 0 .54-.3 1.92-.18.78-.18 1.86-.06 7.02-.12 13.26.12 1.98-.72 3-.72 1.08-1.2 1.2-.36.18-.6.6-.36.66-.66.66-.9.36-1.5-.72-.54-.9-.54-2.64 0-5.4.24-7.2.18-1.98.42-8.52 0-1.26-.18-1.44-.24-.18-1.02.06-1.5.54-3.06 1.56-1.26.72-2.34.72-1.62-.18-1.5-1.02.18-.9-.12-2.4-.24-.66-.9-5.1-.72-5.34-.48-14.52zm20.58 10.08q.36-6.24.24-10.62 0-2.88.06-6.18 0-1.38-.24-1.8-.18-.18-1.14.24-1.5.54-3.24 1.38-1.32.42-2.34.9-.06.18-.06.48-.18 1.26-.24 2.34.72-.18 1.5-.42.9-.3 1.56-.48.36-.12.84-.18.54 0 .78.24.3.24.36.42.18.18.24.42.18.24.12.72-.18.36-.06.6 0 .18-.12.48-.24.72-.6.84-1.68.96-3 1.38-1.26.36-1.98.66v2.46q.9-.36 2.1-.6 1.02-.18 1.68-.36.54-.12.96-.18.54-.12.78.18.3.36.36.42.12.18.24.42.18.24.06.72-.18.36-.12.6 0 .24-.06.54-.24.54-.54.72-1.98 1.08-3.48 1.56-1.14.24-1.92.48 0 1.44.12 2.22 0 .54.06 1.2.3-.18.72-.24 1.92-.66 6.36-1.56zm6.9-7.14q0 1.32-.3 4.86-.06 1.08-.66 2.46-.72 1.44-2.46 3-2.16 1.8-2.76 1.2-.36-.3-.48-.72-1.08.18-2.52.6-2.34.54-5.16 1.02v.06q-.42.6-1.08.72-.6.06-1.14-.36-.6-.48-1.08-1.2-.54-.72-.6-2.34-.36-1.44-.48-3.48-.24-2.34-.36-5.1-.18-4.44-.06-7.02 0-1.26.12-2.7.3-2.1.84-3.72.48-1.26 1.38-1.86.72-.48 1.44-.36.9.06 1.44.72.18.18.24.42 2.82-.36 5.82-.42 1.62 0 2.16-.48 1.08-.84 2.4-.66.66.18 1.38.9 1.08 1.32 1.44 2.82.36.96.24 2.64 0 4.32.24 9zm36.48 17.46v-2.16q-1.5 1.32-2.52 2.22-1.62 1.26-2.4 1.8-1.08.72-1.8 1.44-1.8 2.22-3 1.98-.78-.12-1.68-1.8-1.08-1.74-.6-3.06.3-.9 2.1-2.28 3-2.28 9.9-6.72 0-2.16.12-4.2-.54 0-.84-.24-.36-.18-1.02-.48-.54-.18-.9-.6-.36-.36-.6-.72-.18.18-.66.3-.36.18-.96.6-.6.36-1.62 1.02-.78.54-1.92 1.08-5.04 2.34-5.52 1.26-.36-.9 2.22-4.14 2.34-2.7 3.84-4.02.72-.54.96-1.32.54-1.26 1.62-1.14 1.38.06 2.46 1.74.36.6.6 1.14 1.08-.54 2.46-1.14 0-5.04-.06-7.26-.42-3.54.3-4.98.66-1.2 1.8-1.26 1.2-.12 2.88 1.92.84 1.08 1.44 2.88.54 1.14-.66 3.48-.36 1.08-.42 2.76.36-.18 1.02-.42.36-.3.84 0l.48.24.6.3q.36.24.78.54.36.18.42.78 0 .36.12.6t-.06.84q-.06.36 0 .84 0 .42-.42.72-1.08.6-2.7 1.68-.54.36-1.14.66v3.3q.36-.3 1.02-.48 1.62-.72 1.02.24-.24.54-.36 1.32-.06.24-.24.78.36-.48 1.26-.84 1.02-.48 3-1.08 1.62-.48 8.16-2.1 0-.36.06-.66.12-1.8.36-3.6-.54 0-.78.12-1.08.24-1.68 0-.9-.48-1.62-.72-.6-.18-1.14-.84-.54-.36-.66-1.14 0-.84-.48-1.26-.54-.54-.12-1.38.36-.72.9-.78 1.56-.36 3-.72.72-.18 2.22-.48.36-.12.78-.12 0-.36.06-.78 0-3-.12-4.44-.36-1.92 1.08-2.82.72-.36 1.5-.78.66-.3 1.92.78.66.54.84.84.54.6 1.08 1.38.72 1.26.18 2.58-.18.54-.3 1.14.54-.36 1.02-.66.66-.54 1.5-.06.72.36 1.62.6.9.18 1.68 1.14.54.9.6 2.04 0 1.14-.84 1.8-2.16 1.32-6.12 2.76-.18 2.22-.36 4.62 2.1-.48 3.9-.72 3.54-.66 4.68-1.02.54-.18.78-.42.36-.3.9.18.72.36 2.22.48 1.08.18 1.74.78.66.72.6 2.22 0 1.14-.3 1.44-.72.42-1.56.78-.54.18-1.86-.24-1.14-.3-4.92.42-2.04.36-3.9.78.48.18.78.66 1.02 1.32 1.38 3.48 0 .36.12.84l.06-.06q1.44-.18 2.76-.54 1.38-.48 2.16-.12 1.08.54 2.04 1.32.54.54.78.9.3.54.3 1.38-.06.6-.9 1.62-.72.78-1.92.72-1.32-.12-3.84.36-.42.06-.78.18.9 8.28.3 13.74-.54 2.4-1.5 3.9-1.32 1.74-2.82 1.92-1.8.54-2.76 1.26-1.08 1.08-1.68.96-.9-.18-1.44-1.38-.96-2.16-2.58-4.14-.72-.9-.3-1.26.18-.18 1.62.06 3.18.6 4.14-.12.36-.18 1.02-1.5.3-4.32-.06-12.3-2.94.6-5.1 1.26-1.98.6-3.18 1.08.3.18.54.48 1.56 2.04 1.68 3.6.18 1.5-.24 2.7-.42.9-1.44 1.2-1.26.24-1.74-.48-.72-.84-.96-1.92-.6-1.8-.72-3.9 0-.36.06-.6-.78.06-1.56-.3-.6-.36-1.44-.84-.42-.18-1.08-1.14-.54-.72-.6-1.62-.06-.72.72-1.02 4.5-1.8 11.34-3.6 1.8-.54 3.36-.72-.06-1.26-.54-2.88-.36-1.44-.12-2.16-1.32.18-2.76.66-4.74 1.5-8.4 3.06-2.34.9-2.88.66-.9-.3-1.98-1.8-1.26-1.44-1.02-2.28-.42.6-1.08 1.44-.06 0-.06.06v10.32q0 4.2-.36 9.42-.36 2.58-1.02 3.6-.96 1.62-1.62 1.98-1.14.84-2.04 1.8-.72 1.08-1.56.84-.9 0-1.68-1.92-.24-.36-.18-.96.12-.54-1.44-2.1-1.14-1.26-.78-1.74.12-.36.96-.24 1.38.06 1.98-.18.54.06 1.02-.3.36-.36.78-1.2.48-5.16.48-11.4zm60.78 9.12q.66-1.08 1.08-1.98.18-.48.42-.36.12 0 .12.9.12 2.76.36 3.24.12.54 1.26 1.56 1.02.96.84 1.74-.06.54 0 1.02 0 .42-.3 1.02-.36.54-.84.54-.6.36-1.56-.42-1.32-.54-2.16-1.8-.6-.9-1.14-2.04-.18-.72-.24-1.5-.06-.54.36-.72.3-.36.9-.48.54-.12.9-.72zm-.36-5.52q-.96-.9-.78-1.86.18-1.02 1.68-1.08 1.74-.18 2.46.3 1.26.72 1.74 1.56.48.78.12 1.62-.42.9-1.2 1.02-.9 0-1.74-.36-1.08-.36-2.28-1.2zm-7.38 6.3q-1.32 2.52-2.1 3.3-.9.96-1.68 2.46-1.08 1.98-1.62 1.68-.54-.18.12-2.4.66-3.06 2.7-7.08 1.74-3.6 2.28-4.98.54-1.62 1.68-3.66.9-1.98 1.5-3.48-1.32.24-1.86 0-.9-.36-1.32-.72-.24-.36-.78-.9-.24-.36-.54-.84-.42-.84-.06-1.44.18-.36 1.38-.54 1.92-.36 4.62-1.08.36-.18.84-.24-.18 0-.18-.06-.18-.18-.12-.78.36-1.44 1.68-3.06.72-.9 1.26-1.62l-.6-.3q-1.14-.54-1.62-1.02-.36-.3-.84-1.14-.54-.9-.18-1.5.3-.48 1.14-.84.84-.36 2.46.12l2.88.72q1.74-1.98 3.66-4.02-3.78 1.26-9.06 2.64-1.5.36-2.34-.42-.36-.18-.78-.6-.42-.3-.72-.66-.18-.36-.48-1.2-.18-.54-.3-1.14-.18-.9 1.56-1.32 2.64-.48 5.82-1.32 1.08-.36 2.7-.72-.24-.36-.36-.42-.36-.36-.66-.54-.9-.48-1.08-1.74-.18-1.08.9-1.92.54-.36 1.62-.48.84 0 1.5.24.36.18 1.14.66.84.42 1.98 1.68.66.54.72 1.14v.06q1.44-.3 3.3-.66.48-.18.72.18.18.18.36.3.36.06.42.3.3.24.54.54.18.24.12.72v.54q0 .36-.12.6l-.18.72q0 .36-.48.48-1.08.36-2.22.84.12 0 .18.12 1.08.78.96 1.68-.18.72-1.56 1.56-2.52 1.8-3.78 2.88.72 0 1.5.12.9.18 1.56.78.36.36.3 1.32 0 .42-.36.78-.24.36-.72.66-.78.54-2.04.48-2.4 0-4.32-.12-1.32 1.14-2.88 2.7-1.26 1.08-1.98 1.74 3.18-1.02 7.8-2.28 2.1-.66 2.64-1.26.36-.48 1.08-.18.66.18 1.08.24 1.08.18 1.56 1.08.66.96.3 1.8-.42 1.08-.78 1.2-.6.18-1.26.48-4.56 1.44-7.8 2.52.36.06.6.18 1.08.36 1.5 1.14.3.36.9.6.72.24.96.9.36.78.24 1.5 0 .36-.06.78 0 .36-.42.78-.36.24-1.02.18-.36 0-.66.06-.36-.12-1.02.18-.72.24-.96.18-.18-.18.12-.42.36-.48.6-.9-.36-.72-1.14-1.02-.54-.18-.72-.78-.42-.84-1.08-1.32-.42-.3-.24-1.26v-.06l-1.08.36q-1.14 2.58-2.64 6.06-2.4 5.28-4.68 9.48zm36.36-17.52q-.18-3.78-.06-7.92 0-1.98-.3-2.4-.36-.18-1.62.3-2.34.78-4.62 1.86-1.86.72-3.18 1.14-.36 4.02-.48 10.32 0 3.66.6 8.46.12 1.8-.6 2.58-.78.96-2.28 1.14-.9 0-1.56-1.92-.9-2.16-1.02-4.2-.18-2.1-.12-6.54.18-4.62.24-6.6.18-1.92.9-5.16.3-1.08.9-2.1.72-1.02 1.56-.9.72 0 1.38 1.14l.3-.06q.18-.54.54-1.14 1.26-3 2.28-4.56.36-.54.42-1.08-1.14.42-2.34 1.02-1.68.9-3.78-.9-1.08-1.08-1.02-1.86.18-.84 1.44-1.38 1.2-.48 4.92-1.26 4.14-.84 9.06-1.32 2.16-.18 2.52-.48.9-.48 1.56-.3 1.56.36 2.76 1.08.72.42.6 1.74 0 .9-.66 1.38-.42.24-.78.54-.42.54-3-.6-.72-.36-2.64-.06-2.52.36-4.92.9-.54.18-1.08.42.3.18.66.54 1.8 1.68 1.14 2.4-.36.36-.42.84-.18.54-.78.78-.36.18-.96.66-.54.54-1.5 1.2-.54.36-1.14.78 2.28-.54 4.8-.96 2.1-.36 2.82-1.08 1.02-1.02 2.34-.9.72.06 1.5.96 1.08 1.26 1.62 2.7.48 1.08.36 2.7.3 6 .54 12.66.12 1.98-.24 6.84-.06 1.26-.72 2.58-.24 1.08-1.32 2.16.18.06.36.24 1.44 1.44 3 3.84.84 1.14.84 2.4-.06 1.74-.48 2.16-.54.72-.78 1.26-.36.72-1.32 1.14-.42.36-1.32.3-.54.18-2.22-2.58-.54-.9-.84-1.8-.36-.66-.48-1.08-.78-1.56-1.5-2.28-.6-.9-1.26-1.32-.9-.66-.72-2.34.12-1.2 1.56-1.92.18-.12.48-.12.36-8.22.06-14.04zm-7.08-1.32q-.72-2.28.18-3.3.48-.72 1.92-.06 1.74.6 2.4 1.56.72 1.08.36 1.8-.24.72-.24 1.5 0 .96-.06 4.62-.06 2.94-.54 5.88-.54 3.48-1.68 5.58-1.62 2.76-2.94 3.9-1.26.96-2.28 1.68-1.08.72-2.82 1.5-1.62.9-2.46 1.44-.96.9-1.26.3-.18-.36.9-1.8 1.56-1.8 3.12-3.48 1.98-2.16 3.36-5.04 1.08-2.28 1.56-5.22.3-3 .48-5.22.12-1.26.18-3.24 0-1.02-.18-2.4zm34.62 5.04q-.54.72-.96 1.32-1.08 1.14-3.24 4.68-.9 1.32-1.26 1.44-.42.18-.6.66-.24.54-.66.6-.96.06-1.62.84-.72.9-1.14.6-.36-.18.12-1.5.48-1.74 1.14-2.94.66-1.2 1.2-2.1.9-1.98 2.46-4.32 1.56-2.64 4.98-8.58-1.26.54-2.22 1.14-1.62.78-2.76.06-.42-.18-1.08-.42-.54-.18-1.02-.66-.24-.36-.78-1.26-.36-.66-.66-1.26-.42-1.08 1.5-1.8 2.16-.9 4.68-2.28.9-.48 2.76-1.32.18-1.74.24-3.18.18-2.82.54-4.86.18-1.02.48-1.98.18-.72.78-1.32.36-.36 1.02-.42.72 0 1.74.84.48.42 1.08 1.08.9.9.78 1.8-.18 1.08-.84 2.88-.36.78-.48 2.7.66-.36 1.38-.6.54-.3.9 0 .3.18.48.3.48.18.66.3.36.36.78.6.36.18.42.72 0 .36.06.66.12.42 0 .9-.06.42 0 .9 0 .42-.42.72-1.62.96-4.44 2.64-.24.06-.54.36 0 .96-.12 1.92.12.18.18.3.12.36-.36 1.56-.06.6-.06 1.26-.18.9-.12 1.86.36-.12.96 0 1.08.18 2.52.66.72.24 1.14.72.72.9.72 1.38 0 .6.12 1.08.12.54-.18 1.14-.18.42-.6.78-.36.36-2.4-.42-.54-.18-.84-.48-.36-.18-.48-.3-.72-.3-1.2-.48 0 2.88-.06 7.02-.24 9.36 0 11.94.18 2.82-.3 3.06-.54.36-1.02.66-.42.48-.72.66-.78.9-1.32.84-.54 0-1.2-1.26-.78-1.14-.72-4.14.36-9.72.6-17.7zm29.64 16.08q.36-7.38 0-12.78-.06-.9-.42-1.2-.9-.66-2.52-.12-5.04 2.04-7.8 2.82-.24 1.5-.36 3 1.08 0 3.24-.3 2.34-.36 3-.66.66-.36 1.2-.3.48.06 1.44 1.08 1.26 1.44.66 2.22-.78.96-1.68.96-.72.06-1.5.36-.72.36-6.06.96h-.3q0 .96.12 1.98 0 1.44.48 2.76 1.2-.18 2.46-.36 1.98-.36 6.42-.78.36-.12.54.18l.3.3q.3.24.36.42 0 .18.3.42 0-.48.12-.96zm6.54-4.38q-.18 3.96-.3 5.28-.54 4.08-2.28 4.8-1.32.54-2.22 1.2-.78.9-1.68.78-1.26 0-1.5-1.38-.36-1.32-.96-2.4-.72.18-1.68.24-2.34.36-5.52.6-.54.18-1.08-.06v.06q-.18 2.1-1.68 2.22-.72.18-1.2-.42-.6-.72-1.08-1.86-.36-.9-.66-1.62-.18-.36-.24-1.02-.18-.66-.24-1.08-.36-.66-.54-3.48-.18-1.56-.06-5.1 0-3.36.54-5.76.54-1.8 1.44-2.46.72-.54 1.8.12.54.36 1.02.78l.12-.06q.18-.12.48 0 .36-.84.78-1.8 1.26-2.46 2.1-3.72.48-.66.54-1.26.12-1.02 1.02-1.14 1.02-.18 2.22.9 1.74 1.5 1.14 2.4-.24.36-.36.78-.06.54-.66.84-.24.18-.72.66-.36.36-1.02.96l-.78.78q2.28-.3 4.62-.54 1.62-.12 2.82-.72 1.02-.66 2.4-.06 1.44.6 2.76 2.28.54.6.6 2.88.18 3.66.06 7.38zm-2.94-28.86q-.24 0-.42.12-.06 1.62-.18 3.96 0 2.58.72 3.18.54.36 1.68.3 1.38-.18 3.72-1.14 1.38-.54 2.1-.3 1.08.36 1.86 1.56.9 1.62.42 3.06-.18.72-1.56.72-1.86.06-3 .54-.9.42-5.58.72-1.62 0-3.12-.96-1.26-.66-1.56-2.7-.36-1.98-.3-6.12.12-6.78-.06-8.46-.18-3 .72-4.26.36-.54 1.38-.54 1.02.06 2.46 1.62 1.26 1.26 1.2 2.46 0 .6-.36 1.8.3-.18.9-.3 1.74-.54 2.1-.78.54-.54 1.14-.54.54 0 1.56.9 1.56 1.26 1.02 2.04-.6 1.08-1.44 1.26-.42.18-1.08.42-.54.36-4.32 1.44zm-20.46-1.98q-.18-2.34.42-3.6.66-1.26 1.62-1.02 1.62.72 2.1 1.44.3.54.3 1.8 1.44-.66 4.68-1.86.3-.18.66.06.3.18.36.24.36.18.42.24.3.24.54.42.3.18.3.6 0 .36.06.48.12.24-.06.72-.06.18-.06.66.12.36-.36.54-.78.36-2.22 1.08-1.62.78-3.9 1.74-.42.06-.72.18-.06 2.16-.06 5.34 0 1.26.36 1.56.36.18 1.08-.42 1.92-1.44 4.5-4.02.72-.48.9.18.54.9-.12 1.5-.78.9-1.14 2.1-.36.96-1.62 2.28-1.5 1.62-3.36 2.76-1.26.72-1.98 1.14-.72.36-1.26.9-1.26 1.26-1.86.78-.72-.48-1.08-1.44-.36-.72-.54-1.2-.78-1.38.48-2.28 1.2-.84 1.44-1.26.48-.36.36-1.8-.36-5.4-.24-9.84z"/></svg>