<svg viewBox="0 0 300 80" xmlns="http://www.w3.org/2000/svg"><path d="M43.12 45.94q0 2.46-1.02 4.56-1.02 2.1-2.76 3.81-1.74 1.71-4.05 3-2.31 1.29-4.86 2.16-2.55.87-5.22 1.32-2.67.45-5.13.45-2.22 0-4.14-.36 2.88-10.5 4.59-21.15 1.71-10.65 3.27-21.45 3.12-.66 6.48-1.17 3.36-.51 6.96-.51 1.5 0 3.18.36 1.68.36 3.06 1.32 1.38.96 2.31 2.52.93 1.56.93 3.96 0 2.28-.75 4.26t-1.92 3.6q-1.17 1.62-2.67 2.79t-3.06 1.77q.78.42 1.62 1.2.84.78 1.56 1.83.72 1.05 1.17 2.49.45 1.44.45 3.24zM29.38 39.7q-.24 1.44-.45 2.55-.21 1.11-.39 2.13-.18 1.02-.39 2.13-.21 1.11-.45 2.61 1.14-.12 2.58-.42 1.44-.3 2.76-.93 1.32-.63 2.22-1.68.9-1.05.9-2.55 0-1.08-.57-1.8t-1.44-1.2q-.87-.48-1.89-.69-1.02-.21-1.92-.21h-.51q-.21 0-.45.06zm2.7-14.52q-.12.66-.27 1.56-.15.9-.33 1.89-.18.99-.39 1.95-.21.96-.33 1.68 1.32-.24 2.64-.66 1.32-.42 2.37-.93t1.68-1.11q.63-.6.63-1.32 0-.9-.54-1.47t-1.41-.93q-.87-.36-1.8-.51-.93-.15-1.65-.15h-.6zM63.76 59.8q-1.5.24-3.3.54l-3.24.54q.24-1.98.48-3.9.18-1.68.33-3.36.15-1.68.27-2.88h-5.22l-2.4 8.64q-1.32.18-3.12.39-1.8.21-3.36.39-1.92.24-3.78.48 2.4-7.98 4.74-15.72l2.01-6.78q1.05-3.54 2.1-7.05t2.01-6.75q.96-3.24 1.68-5.94 4.08-.3 8.31-.72t8.25-1.14q-.18 1.92-.39 4.77-.21 2.85-.39 6.21-.18 3.36-.36 7.02-.18 3.66-.36 7.2-.3 8.28-.66 17.58-1.8.3-3.6.48zm-5.52-30.12l-3.72 15.06q.24 0 .87-.03t1.32-.06q.69-.03 1.29-.06.6-.03.84-.09 0-.36.09-1.23t.18-1.98q.09-1.11.21-2.43t.24-2.58q.24-3.06.6-6.6l.36-5.22-.9.06-1.38 5.16zm18.48 29.58l-8.76 2.04q1.8-8.64 3.42-16.74.6-3.48 1.29-7.2.69-3.72 1.29-7.35.6-3.63 1.08-6.96.48-3.33.72-6.03.78.06 1.32.06h1.26q.84 0 2.04-.03 1.2-.03 2.4-.09t2.58-.12q.84 4.2 1.5 8.1.66 3.42 1.35 7.02.69 3.6 1.23 6.12.24-1.2.54-2.79.3-1.59.66-3.33.36-1.74.69-3.51.33-1.77.69-3.51.84-3.9 1.74-8.04l7.32-.9q-2.04 9.18-3.6 17.4-.72 3.54-1.41 7.17t-1.29 6.96q-.6 3.33-1.02 6.18-.42 2.85-.66 4.77-.18 0-1.41.27t-2.82.63l-3.18.72q-1.59.36-2.37.66-.36-4.8-.78-9.12-.18-1.86-.39-3.81-.21-1.95-.45-3.75-.24-1.8-.48-3.36-.24-1.56-.48-2.7-.18 1.14-.48 2.64-.3 1.5-.6 3.18-.3 1.68-.6 3.51-.3 1.83-.66 3.51-.78 4.02-1.68 8.4zm50.7-21.12q-.42 6.12-2.4 10.65t-4.77 7.59q-2.79 3.06-6 4.56-3.21 1.5-6.09 1.5-2.22 0-4.23-.96-2.01-.96-3.48-2.91-1.47-1.95-2.31-4.89-.84-2.94-.84-6.9 0-7.74 2.22-13.5t5.61-9.6q3.39-3.84 7.26-5.7 3.87-1.86 7.23-1.86 2.4 0 4.17.84t2.91 2.25q1.14 1.41 1.65 3.3t.51 3.99l-8.22 1.56q-.54-2.4-1.44-3.42-.9-1.02-2.04-1.02-1.5 0-3.3 2.13-1.8 2.13-3.36 5.49-1.56 3.36-2.64 7.38t-1.2 7.92q0 3.72 1.11 5.31 1.11 1.59 2.85 1.59 1.2 0 2.49-.6 1.29-.6 2.31-1.71 1.02-1.11 1.71-2.58t.75-3.21l-6.42.96 1.14-5.94q2.82-.36 5.52-.72 2.28-.3 4.83-.72 2.55-.42 4.47-.78zm17.16 19.92l-19.38 3 7.86-42.66 18.96-1.62q-.42 1.32-.72 2.7-.3 1.14-.57 2.37-.27 1.23-.45 2.19-.6.06-1.71.09-1.11.03-2.37.06t-2.55.03h-2.25l-2.1 10.74q1.86-.12 3.48-.18 1.32-.06 2.7-.06 1.38 0 2.04-.06-.24 1.68-.45 3.3-.21 1.62-.51 3.3-.6.06-1.95.09t-2.73.09q-1.56.06-3.42.12l-2.04 11.04 8.76-1.38-.6 6.84zm10.56.48l-9.72 2.52q1.62-7.98 3.12-15.6.54-3.24 1.2-6.75.66-3.51 1.23-6.96t1.08-6.66q.51-3.21.81-5.85 3.42-1.08 7.38-1.59t7.86-.51q2.34 0 3.87.54 1.53.54 2.4 1.53.87.99 1.23 2.31t.36 2.94q0 2.4-.84 4.71t-2.25 4.38q-1.41 2.07-3.24 3.78-1.83 1.71-3.93 2.79 1.08 2.4 2.31 5.25t2.31 5.43q1.2 3 2.46 6l-9.3 3.24q-1.2-3.84-2.16-7.2-.42-1.38-.84-2.85-.42-1.47-.78-2.79-.36-1.32-.6-2.37t-.3-1.71l-.78.24q-.36 1.92-.87 4.5t-.93 4.98q-.54 2.82-1.08 5.7zm6.3-33.06l-1.92 9.54q1.14-.12 2.79-.96 1.65-.84 3.15-2.01t2.58-2.43q1.08-1.26 1.08-2.22 0-.66-.42-1.05t-1.17-.6q-.75-.21-1.65-.27-.9-.06-1.86-.06-.66 0-1.35.03-.69.03-1.23.03zm36.96 20.7q0 3.36-1.29 6.09t-3.48 4.71q-2.19 1.98-5.16 3.06t-6.39 1.08q-2.4 0-4.8-1.29t-4.62-4.11l4.44-8.7q.42.78 1.26 1.59.84.81 1.89 1.41 1.05.6 2.1.99t1.89.39q.72 0 1.5-.24t1.44-.72q.66-.48 1.05-1.11.39-.63.39-1.47 0-1.44-.93-2.67t-2.31-2.34q-1.38-1.11-3-2.25t-2.97-2.4q-1.35-1.26-2.31-2.82-.96-1.56-.96-3.48 0-3.12 1.86-5.82t4.65-4.65q2.79-1.95 6.09-3.09t6.24-1.14q1.62 0 3.06.39t2.49 1.26q1.05.87 1.68 2.19.63 1.32.63 3.3 0 .84-.15 1.68t-.27 1.8l-8.7 2.52q.12-.48.21-.96t.09-.96q0-1.8-.63-2.61-.63-.81-1.65-.81-.48 0-1.17.36t-1.38.93q-.69.57-1.17 1.35-.48.78-.48 1.68 0 1.44.81 2.4t2.01 1.8q1.2.84 2.61 1.71t2.61 2.25q1.2 1.38 2.01 3.45.81 2.07.81 5.25z"/></svg>