<svg viewBox="0 0 503 80" xmlns="http://www.w3.org/2000/svg"><path d="M36.36 49.6Q35.7 55 32.49 58t-7.95 3H15.6q-.6 0-.48-.6l4.98-40.8q.12-.6.66-.6h8.4q4.5 0 6.99 2.34t2.49 6.72q0 .6-.12 1.92-.78 6.72-6 9.18-.12.06-.12.12t.06.12q4.02 2.64 4.02 8.22 0 .54-.12 1.98zM24.12 22.72q-.12 0-.21.06t-.09.18l-1.74 14.46q-.06.06 0 .15t.18.09h4.62q3.48 0 5.55-2.37t2.07-6.51q0-2.88-1.53-4.47-1.53-1.59-4.29-1.59h-4.56zm.54 34.5q3.12 0 5.13-2.13t2.49-5.97q.12-1.2.12-1.68 0-3.12-1.47-4.83T26.7 40.9h-4.86q-.24 0-.24.24l-1.92 15.84q-.06.06 0 .15t.18.09h4.8zm32.88-25.98q.12-.6.66-.6h2.94q.54 0 .54.6l-3.6 29.16q-.12.6-.66.6h-2.94q-.3 0-.45-.18-.15-.18-.09-.42l.3-2.22q0-.18-.12-.21t-.18.15q-1.2 1.68-2.82 2.52-1.62.84-3.48.84-3.3 0-5.07-2.01-1.77-2.01-1.77-5.43 0-.54.12-1.74l1.56-12.96q.54-4.2 2.94-6.69t6.06-2.49q1.86 0 3.3.84 1.44.84 2.16 2.52.06.18.18.15t.12-.21l.3-2.22zm-8.16 26.52q2.22 0 3.75-1.59 1.53-1.59 1.83-4.17l1.56-12.36q.06-.36.06-.96 0-2.16-1.17-3.48-1.17-1.32-3.09-1.32-2.22 0-3.81 1.59-1.59 1.59-1.89 4.17L45.06 52q-.06.36-.06.96 0 2.16 1.2 3.48 1.2 1.32 3.18 1.32zm29.4-27.42q1.38 0 2.46.66.36.3.18.78l-1.08 3.12q-.18.54-.72.36-.66-.36-1.68-.36-.54 0-.78.06-2.04.12-3.66 2.25t-1.98 5.19l-2.22 18q-.12.6-.66.6h-3q-.24 0-.39-.18-.15-.18-.09-.42l3.6-29.16q0-.24.18-.42t.48-.18h2.94q.54 0 .54.6l-.48 3.6q0 .18.09.18t.15-.12q2.34-4.56 6.12-4.56zM82.38 61q-.3 0-.45-.18-.15-.18-.09-.42l5.04-40.8q0-.24.18-.42t.48-.18h2.94q.54 0 .54.6l-5.04 40.8q-.12.6-.66.6h-2.94zm18.72.48q-3.78 0-5.91-2.1-2.13-2.1-2.13-5.64 0-.96.06-1.44l1.56-12.9q.48-4.08 3.3-6.66t7.02-2.58q3.78 0 5.94 2.13 2.16 2.13 2.16 5.67 0 .96-.06 1.44l-1.62 12.9q-.48 4.14-3.3 6.66-2.82 2.52-7.02 2.52zm.48-3.78q2.28 0 3.87-1.56 1.59-1.56 1.89-4.14l1.5-12.36q.06-.36.06-.96 0-2.16-1.2-3.48-1.2-1.32-3.18-1.32-2.22 0-3.81 1.59-1.59 1.59-1.89 4.17L97.26 52q-.06.36-.06.96 0 2.16 1.2 3.45t3.18 1.29zM120.6 61q-.54 0-.54-.54l-2.58-29.16q0-.66.6-.66h2.82q.6 0 .6.54l1.38 22.92q0 .12.09.12t.15-.12l7.08-22.92q.18-.54.72-.54h2.64q.54 0 .54.54l1.5 22.92q.06.12.12.12t.12-.12l7.14-22.92q.12-.54.72-.54l2.76.06q.6 0 .42.66l-9.72 29.1q-.18.54-.72.54h-2.94q-.6 0-.6-.54l-1.62-21.96q0-.18-.06-.18t-.18.18l-6.78 21.96q-.18.54-.72.54h-2.94zm48.78.48q-4.02 0-6.39-2.34t-2.37-6.36q0-.48.12-1.68l2.76-22.26q.6-4.68 3.63-7.5 3.03-2.82 7.53-2.82 4.08 0 6.45 2.34t2.37 6.36q0 .54-.12 1.62l-.18 1.02q0 .24-.18.42t-.42.18l-3.06.18q-.54 0-.54-.6l.18-1.5q.06-.36.06-1.08 0-2.4-1.35-3.81-1.35-1.41-3.69-1.41-2.58 0-4.38 1.74-1.8 1.74-2.16 4.56l-2.82 22.92q-.06.36-.06.96 0 2.4 1.35 3.87 1.35 1.47 3.69 1.47 2.64 0 4.44-1.74 1.8-1.74 2.1-4.56l.18-1.5q.06-.24.24-.42t.42-.18l3 .18q.3 0 .45.18.15.18.09.42l-.12.96q-.6 4.74-3.66 7.56-3.06 2.82-7.56 2.82zm24.12 0q-3.78 0-5.91-2.1-2.13-2.1-2.13-5.64 0-.96.06-1.44l1.56-12.9q.48-4.08 3.3-6.66t7.02-2.58q3.78 0 5.94 2.13 2.16 2.13 2.16 5.67 0 .96-.06 1.44l-1.62 12.9q-.48 4.14-3.3 6.66-2.82 2.52-7.02 2.52zm.48-3.78q2.28 0 3.87-1.56 1.59-1.56 1.89-4.14l1.5-12.36q.06-.36.06-.96 0-2.16-1.2-3.48-1.2-1.32-3.18-1.32-2.22 0-3.81 1.59-1.59 1.59-1.89 4.17L189.66 52q-.06.36-.06.96 0 2.16 1.2 3.45t3.18 1.29zm29.46-27.48q3.12 0 4.77 1.92 1.65 1.92 1.65 5.52 0 .66-.12 2.1l-2.52 20.64q-.12.6-.66.6h-3q-.24 0-.39-.18-.15-.18-.09-.42l2.46-20.28q.12-.96.12-1.38 0-2.28-1.05-3.54-1.05-1.26-3.03-1.26-2.28 0-3.81 1.74-1.53 1.74-1.89 4.74l-2.46 19.98q-.12.6-.66.6h-3q-.24 0-.39-.18-.15-.18-.09-.42l3.6-29.16q0-.24.18-.42t.48-.18h2.94q.54 0 .54.6l-.24 1.92q-.06.12.06.18t.24-.12q1.2-1.5 2.85-2.25 1.65-.75 3.51-.75zm28.92-10.62q0-.24.18-.42t.48-.18h2.94q.6 0 .48.6l-4.98 40.8q-.12.6-.66.6h-2.94q-.3 0-.45-.18-.15-.18-.09-.42l.18-1.32q0-.12-.09-.18t-.21.06q-1.2 1.26-2.73 1.89-1.53.63-3.15.63-3.36 0-5.25-2.07-1.89-2.07-1.89-5.49 0-.54.12-1.62l1.56-12.96q.54-4.2 3.06-6.69t6.24-2.49q1.62 0 3 .63t2.28 1.95q.06.12.18.06t.12-.18l1.62-13.02zm-9.6 38.16q2.22 0 3.75-1.59 1.53-1.59 1.83-4.11l1.56-12.42q.06-.36.06-.96 0-2.16-1.17-3.48-1.17-1.32-3.09-1.32-2.22 0-3.84 1.59-1.62 1.59-1.92 4.17l-1.56 12.42q-.06.3-.06.9 0 2.16 1.23 3.48 1.23 1.32 3.21 1.32zm35.04-10.92q-.12.6-.66.6h-13.26q-.12 0-.21.06t-.09.18l-.54 4.38q-.06.3-.06.96 0 2.1 1.2 3.42 1.2 1.32 3.12 1.32 1.86 0 3.3-1.17 1.44-1.17 2.1-3.03.3-.54.72-.54l2.88.12q.24 0 .39.18.15.18.03.48-.84 3.54-3.45 5.61-2.61 2.07-6.45 2.07-3.72 0-5.85-2.1-2.13-2.1-2.13-5.64 0-.96.06-1.44l1.56-12.96q.48-4.08 3.3-6.63t6.96-2.55q3.78 0 5.94 2.1 2.16 2.1 2.16 5.64 0 .48-.12 1.44l-.9 7.5zm-7.56-12.96q-2.22 0-3.78 1.59-1.56 1.59-1.86 4.17l-.54 4.02q0 .24.24.24h9.54q.24 0 .24-.24l.54-4.02q.06-.36.06-.96 0-2.16-1.2-3.48-1.2-1.32-3.24-1.32zm26.16-3.66q3.12 0 4.77 1.92 1.65 1.92 1.65 5.52 0 .66-.12 2.1l-2.52 20.64q-.12.6-.66.6h-3q-.24 0-.39-.18-.15-.18-.09-.42l2.46-20.28q.12-.96.12-1.38 0-2.28-1.05-3.54-1.05-1.26-3.03-1.26-2.28 0-3.81 1.74-1.53 1.74-1.89 4.74l-2.46 19.98q-.12.6-.66.6h-3q-.24 0-.39-.18-.15-.18-.09-.42l3.6-29.16q0-.24.18-.42t.48-.18h2.94q.54 0 .54.6l-.24 1.92q-.06.12.06.18t.24-.12q1.2-1.5 2.85-2.25 1.65-.75 3.51-.75zm18.06 31.08q-3.72 0-5.82-1.8t-2.1-4.86q0-.78.06-1.14l.06-.42q0-.24.18-.42t.48-.18h2.76q.54 0 .54.6l-.06.36q-.24 1.92.96 3.24 1.2 1.32 3.42 1.32 2.28 0 3.78-1.53t1.5-3.81q0-1.32-.72-2.25-.72-.93-1.62-1.44-.9-.51-2.94-1.47-1.92-.84-3.21-1.68t-2.22-2.28q-.93-1.44-.93-3.6 0-.84.06-1.32.48-3.84 3.06-6.06 2.58-2.22 6.48-2.22 3.6 0 5.61 1.92 2.01 1.92 2.01 5.16 0 .84-.06 1.26v.18q-.12.6-.66.6h-2.7q-.6 0-.48-.6v-.36q.06-.24.06-.72 0-1.74-1.14-2.85t-3.06-1.11q-2.04 0-3.45 1.35-1.41 1.35-1.71 3.33-.18 1.44.45 2.43.63.99 1.65 1.65 1.02.66 2.94 1.5 2.1.96 3.42 1.83 1.32.87 2.31 2.34.99 1.47.99 3.63 0 4.26-2.76 6.84t-7.14 2.58zm33.48-14.46q-.12.6-.66.6h-13.26q-.12 0-.21.06t-.09.18l-.54 4.38q-.06.3-.06.96 0 2.1 1.2 3.42 1.2 1.32 3.12 1.32 1.86 0 3.3-1.17 1.44-1.17 2.1-3.03.3-.54.72-.54l2.88.12q.24 0 .39.18.15.18.03.48-.84 3.54-3.45 5.61-2.61 2.07-6.45 2.07-3.72 0-5.85-2.1-2.13-2.1-2.13-5.64 0-.96.06-1.44l1.56-12.96q.48-4.08 3.3-6.63t6.96-2.55q3.78 0 5.94 2.1 2.16 2.1 2.16 5.64 0 .48-.12 1.44l-.9 7.5zm-7.56-12.96q-2.22 0-3.78 1.59-1.56 1.59-1.86 4.17l-.54 4.02q0 .24.24.24h9.54q.24 0 .24-.24l.54-4.02q.06-.36.06-.96 0-2.16-1.2-3.48-1.2-1.32-3.24-1.32zM370.8 19.6q0-.24.18-.42t.48-.18h2.94q.6 0 .48.6l-4.98 40.8q-.12.6-.66.6h-2.94q-.3 0-.45-.18-.15-.18-.09-.42l.18-1.32q0-.12-.09-.18t-.21.06q-1.2 1.26-2.73 1.89-1.53.63-3.15.63-3.36 0-5.25-2.07-1.89-2.07-1.89-5.49 0-.54.12-1.62l1.56-12.96q.54-4.2 3.06-6.69t6.24-2.49q1.62 0 3 .63t2.28 1.95q.06.12.18.06t.12-.18l1.62-13.02zm-9.6 38.16q2.22 0 3.75-1.59 1.53-1.59 1.83-4.11l1.56-12.42q.06-.36.06-.96 0-2.16-1.17-3.48-1.17-1.32-3.09-1.32-2.22 0-3.84 1.59-1.62 1.59-1.92 4.17l-1.56 12.42q-.06.3-.06.9 0 2.16 1.23 3.48 1.23 1.32 3.21 1.32zM389.76 61q-.6 0-.48-.6l4.98-40.8q.12-.6.66-.6h3q.24 0 .39.18.15.18.09.42l-4.98 40.8q-.06.24-.24.42t-.42.18h-3zm25.02-27.78q0 .24-.18.42t-.48.18h-4.38q-.18 0-.3.24l-2.22 18.36q-.12 1.08-.12 1.5 0 1.92.81 2.64.81.72 2.49.66h.6q.24 0 .39.18.15.18.09.42l-.3 2.58q-.12.6-.66.6h-1.44q-3.06 0-4.65-1.17-1.59-1.17-1.59-4.35 0-.48.12-1.8l2.4-19.62q.06-.06 0-.15t-.18-.09h-2.28q-.6 0-.48-.6l.24-1.98q0-.24.18-.42t.48-.18h2.22q.12 0 .21-.06t.09-.18l.84-6.72q0-.24.18-.42t.48-.18h2.88q.54 0 .54.6l-.84 6.72q0 .24.18.24h4.44q.6 0 .48.6l-.24 1.98zm18.84-1.98q.12-.6.66-.6h2.94q.54 0 .54.6l-3.6 29.16q-.12.6-.66.6h-2.94q-.3 0-.45-.18-.15-.18-.09-.42l.3-2.22q0-.18-.12-.21t-.18.15q-1.2 1.68-2.82 2.52-1.62.84-3.48.84-3.3 0-5.07-2.01-1.77-2.01-1.77-5.43 0-.54.12-1.74l1.56-12.96q.54-4.2 2.94-6.69t6.06-2.49q1.86 0 3.3.84 1.44.84 2.16 2.52.06.18.18.15t.12-.21l.3-2.22zm-8.16 26.52q2.22 0 3.75-1.59 1.53-1.59 1.83-4.17l1.56-12.36q.06-.36.06-.96 0-2.16-1.17-3.48-1.17-1.32-3.09-1.32-2.22 0-3.81 1.59-1.59 1.59-1.89 4.17L421.14 52q-.06.36-.06.96 0 2.16 1.2 3.48 1.2 1.32 3.18 1.32zM441.42 61q-.3 0-.45-.18-.15-.18-.09-.42l5.04-40.8q0-.24.18-.42t.48-.18h2.94q.54 0 .54.6l-5.04 40.8q-.12.6-.66.6h-2.94zm17.22-35.88q-1.44 0-2.22-.96-.78-.96-.66-2.4.24-1.5 1.26-2.43 1.02-.93 2.46-.93 1.26 0 2.04.78t.78 2.04q0 1.68-1.05 2.79t-2.61 1.11zM452.76 61q-.6 0-.48-.6l3.54-29.16q.06-.24.24-.42t.42-.18h3q.6 0 .48.6l-3.54 29.16q-.12.6-.66.6h-3zm19.38.48q-3.72 0-5.85-2.1-2.13-2.1-2.13-5.64 0-.96.06-1.44l1.56-12.96q.48-4.08 3.3-6.63t6.96-2.55q3.78 0 6 2.1t2.22 5.22q0 .66-.06 1.02l-.12.6q0 .24-.18.42t-.42.18l-3 .12q-.54 0-.54-.6l.06-.42q.06-.24.06-.66 0-1.8-1.23-3.03-1.23-1.23-3.27-1.23-2.22 0-3.78 1.59-1.56 1.59-1.86 4.17L468.36 52q-.06.36-.06.96 0 2.16 1.2 3.48 1.2 1.32 3.12 1.32 2.16 0 3.78-1.47 1.62-1.47 1.92-3.45v-.42q.12-.6.66-.6l3 .06q.24 0 .39.18.15.18.09.42l-.06.66q-.48 3.6-3.3 5.97-2.82 2.37-6.96 2.37z"/></svg>