<svg viewBox="0 0 300 80" xmlns="http://www.w3.org/2000/svg"><path d="M51.04 17.78l1.68 40.44q.06.9.57 1.5t1.05.6q.72 0 1.17.63.45.63.45 1.47v1.44q0 .84-.6 1.44t-1.44.6H49.6q-.84 0-1.47-.6t-.75-1.44l-1.92-46.08q0-.84.6-1.47t1.44-.63h1.38q.84 0 1.47.63t.69 1.47zm-35.1 46.08v-1.44q0-.84.45-1.47t1.11-.63q.66 0 1.14-.6.48-.6.54-1.5l1.68-40.44q.06-.84.69-1.47.63-.63 1.47-.63h1.38q.84 0 1.44.63t.6 1.47l-1.92 46.08q-.12.84-.75 1.44t-1.47.6h-4.32q-.84 0-1.44-.6t-.6-1.44zm17.28-4.5V14q0-.84.63-1.44t1.47-.6h1.32q.9 0 1.5.6t.6 1.44v46.5q0 .84-.39 1.89-.39 1.05-1.05 1.59l-1.44 1.56q-.66.66-1.71 1.08-1.05.42-1.95.42h-2.76q-.84 0-1.47-.63t-.63-1.47v-1.38q0-.9.63-1.5t1.47-.6h1.68q.84 0 1.47-.6t.63-1.5zm64.14 4.62l-1.5 1.56q-.6.66-1.65 1.08-1.05.42-1.89.42H71.44q-.84 0-1.47-.63t-.63-1.47v-1.38q0-.9.63-1.5t1.47-.6h19.8q.84 0 1.44-.6t.6-1.5V19.58q0-.84-.6-1.47t-1.44-.63H63.88q-.84 0-1.44-.6t-.6-1.5V14q0-.84.6-1.44t1.44-.6h35.94q.84 0 1.44.6t.6 1.44v1.38q0 .9-.45 1.5t-1.11.6q-.6 0-1.02.63-.42.63-.42 1.47V60.5q0 .84-.45 1.89-.45 1.05-1.05 1.59zm-15.12-8.82H65.68q-.9 0-1.5-.6t-.6-1.44V27.44q0-.9.6-1.5t1.5-.6h21.06q.9 0 1.5.6t.6 1.5v21.24q0 .84-.42 1.89-.42 1.05-1.08 1.71l-1.5 1.5q-.66.6-1.68.99t-1.92.39zm-1.08-24.24h-9.9q-.84 0-1.44.6t-.6 1.5v14.52q0 .84.6 1.5t1.44.66h9.9q.9 0 1.5-.66t.6-1.5V33.02q0-.9-.6-1.5t-1.5-.6zm61.98-17.46q0 .66.6 1.11.6.45 1.5.45h.48q.84 0 1.44.6t.6 1.44v1.38q0 .84-.6 1.44t-1.44.6h-.48q-.9 0-1.5.66t-.6 1.5v.54q0 .84.6 1.44t1.5.6h.48q.84 0 1.44.6t.6 1.44v1.44q0 .9-.6 1.5t-1.44.6h-13.44q-.84 0-1.47.48t-.63 1.14q0 .66.63 1.14.63.48 1.47.48h13.32q.9 0 1.5.6t.6 1.5V51.8q0 .9-.42 1.92t-1.08 1.68l-1.44 1.44q-.66.66-1.35 1.11-.69.45-1.05.45-.3 0-.54.42-.24.42-.24 1.08 0 .6.6 1.08.6.48 1.5.48h1.92q.9 0 1.5.6t.6 1.5v1.38q0 .84-.6 1.47t-1.5.63h-3.12q-.84 0-1.89-.42-1.05-.42-1.71-1.08l-1.38-1.56q-.66-.54-1.08-1.59-.42-1.05-.42-1.89 0-.9-.63-1.5t-1.53-.6H121.6q-.84 0-1.44.6t-.6 1.5q0 .84-.45 1.89-.45 1.05-1.11 1.59l-1.5 1.56q-.6.66-1.65 1.08-1.05.42-1.89.42h-3.18q-.84 0-1.44-.63t-.6-1.47v-1.38q0-.9.6-1.5t1.44-.6h2.04q.9 0 1.53-.48t.63-1.08q0-.66-.63-1.08-.63-.42-1.53-.42h-2.04q-.84 0-1.44-.63t-.6-1.47V36.14q0-.9.6-1.5t1.44-.6h12.78q.84 0 1.47-.48t.63-1.14q0-.66-.63-1.14-.63-.48-1.47-.48h-12.78q-.84 0-1.44-.6t-.6-1.5v-1.44q0-.84.6-1.44t1.44-.6h.48q.84 0 1.5-.6t.66-1.44v-.54q0-.84-.66-1.5t-1.5-.66h-.48q-.84 0-1.44-.6t-.6-1.44v-1.38q0-.84.6-1.44t1.44-.6h.48q.84 0 1.5-.45t.66-1.11q0-.66.6-1.08.6-.42 1.44-.42h1.38q.84 0 1.44.42t.6 1.08q0 .66.66 1.11.66.45 1.5.45h15.48q.84 0 1.47-.45t.63-1.11q0-.66.6-1.08.6-.42 1.44-.42h1.32q.9 0 1.53.42t.63 1.08zm-20.58 26.1h-7.14q-.9 0-1.5.57t-.6 1.41q0 .78.6 1.32t1.5.54h7.14q.84 0 1.47-.54t.63-1.32q0-.84-.63-1.41t-1.47-.57zm-9.24 11.28q0 .84.6 1.41t1.5.57h7.14q.84 0 1.47-.57t.63-1.41q0-.78-.63-1.32t-1.47-.54h-7.14q-.9 0-1.5.54t-.6 1.32zm18.96 1.98h7.74q.9 0 1.5-.57t.6-1.41q0-.78-.6-1.32t-1.5-.54h-7.74q-.84 0-1.47.54t-.63 1.32q0 .84.63 1.41t1.47.57zm7.74-13.26h-7.74q-.84 0-1.47.57t-.63 1.41q0 .78.63 1.32t1.47.54h7.74q.9 0 1.5-.54t.6-1.32q0-.84-.6-1.41t-1.5-.57zm-2.4-16.38v-.54q0-.84-.63-1.5t-1.47-.66h-15.48q-.84 0-1.5.66t-.66 1.5v.54q0 .84.66 1.44t1.5.6h15.48q.84 0 1.47-.6t.63-1.44zm56.04-4.56v41.94q0 .84-.42 1.89-.42 1.05-1.02 1.59l-1.5 1.5q-.66.66-1.71 1.08-1.05.42-1.89.42h-20.7q-.84 0-1.44-.63t-.6-1.47V18.62q0-.9.12-1.5t.36-.6h9.42q.84 0 1.47-.63t.63-1.47V14q0-.84.6-1.44t1.44-.6h1.32q.9 0 1.53.6t.63 1.44v.42q0 .84.6 1.47t1.5.63h8.7q.42 0 .69.6.27.6.27 1.5zm-7.68 3.48H184q-.9 0-1.5.6t-.6 1.5v13.02q0 .84.6 1.44t1.5.6h1.98q.9 0 1.5-.6t.6-1.44V24.2q0-.9-.6-1.5t-1.5-.6zm-11.7 0H172q-.84 0-1.47.6t-.63 1.5v13.02q0 .84.63 1.44t1.47.6h2.28q.84 0 1.47-.6t.63-1.44V24.2q0-.9-.63-1.5t-1.47-.6zm-4.38 24.84v12.42q0 .9.63 1.5t1.47.6h2.28q.84.06 1.47-.57.63-.63.63-1.53V46.94q0-.84-.63-1.44t-1.47-.6H172q-.84 0-1.47.6t-.63 1.44zM184 61.52h1.98q.9 0 1.5-.6t.6-1.5V46.94q0-.84-.6-1.44t-1.5-.6H184q-.9 0-1.5.6t-.6 1.44v12.42q0 .96.6 1.56.6.6 1.5.6zm-28.8-2.1V36.8q0-.84.6-1.44t1.44-.6h1.44q.84 0 1.44.6t.6 1.44v23.76q0 .84-.42 1.89-.42 1.05-1.02 1.59l-1.56 1.5q-.6.66-1.44 1.08-.84.42-1.32.42-.54 0-.93-.63t-.39-1.47v-1.32q0-.9.21-1.5t.57-.6.57-.6q.21-.6.21-1.5zm4.14-34.26l1.08.9q.6.66.6 1.5t-.6 1.5l-1.08.96q-.54.66-1.41.66-.87 0-1.47-.66l-.9-.96q-.66-.66-.66-1.5t.66-1.5l.9-.9q.6-.6 1.47-.6t1.41.6zm0-11.46l1.08.96q.6.66.6 1.5t-.6 1.5l-1.08.9q-.54.66-1.41.66-.87 0-1.47-.66l-.9-.9q-.66-.66-.66-1.5t.66-1.5l.9-.96q.6-.66 1.47-.66t1.41.66zm68.22 10.2v23.82q0 .9.57 1.5t1.41.6q.72 0 1.29-.6.57-.6.57-1.5V26.36q0-.84.6-1.47t1.44-.63h1.38q.84 0 1.44.63t.6 1.47V58.4q0 .9.36 1.5t.9.6q.48 0 .84.6t.36 1.44v1.38q0 .84-.51 1.47t-1.23.63q-.72 0-1.68-.45t-1.62-1.05l-1.5-1.5q-.54-.6-.96-1.65-.42-1.05-.42-1.89v-2.04q0-.84-.57-1.47t-1.29-.63q-.84 0-1.41.63t-.57 1.47v7.5q0 .84-.6 1.47t-1.5.63h-1.32q-.9 0-1.5-.63t-.6-1.47v-7.5q0-.84-.57-1.47t-1.41-.63q-.84 0-1.47.63t-.63 1.47v2.04q0 .84-.42 1.89-.42 1.05-1.08 1.65l-1.38 1.5q-.66.6-1.62 1.05-.96.45-1.68.45-.78 0-1.26-.63t-.48-1.47v-1.38q0-.84.36-1.44t.9-.6q.48 0 .81-.6.33-.6.33-1.5V26.36q0-.84.63-1.47t1.53-.63h1.26q.9 0 1.5.63t.6 1.47v21.36q0 .9.63 1.5t1.47.6q.84 0 1.41-.6t.57-1.5V23.9q0-.84-.6-1.47t-1.5-.63h-7.86q-.84 0-1.44-.63t-.6-1.47v-1.32q0-.9.6-1.5t1.44-.6h7.86q.9 0 1.5-.6t.6-1.5V14q0-.84.6-1.44t1.5-.6h1.32q.9 0 1.5.6t.6 1.44v.18q0 .9.6 1.5t1.5.6h7.56q.84 0 1.47.6t.63 1.5v1.32q0 .84-.63 1.47t-1.47.63h-7.56q-.9 0-1.5.63t-.6 1.47zm-28.02 5.4v-1.32q0-.84.48-1.44t1.14-.6q.66 0 1.11-.63.45-.63.45-1.47V14q0-.84.63-1.44t1.47-.6h1.38q.84 0 1.47.6t.63 1.44v10.92q0 .84-.24 1.65-.24.81-.54 1.17-.42.36-.63 1.2-.21.84-.21 1.74v34.26q0 .84-.6 1.47t-1.5.63h-1.32q-.84 0-1.47-.63t-.63-1.47v-31.5q0-.84-.21-1.44t-.63-.6q-.3 0-.54-.63-.24-.63-.24-1.47z"/></svg>