<svg viewBox="0 0 399 80" xmlns="http://www.w3.org/2000/svg"><path d="M33.74 17.32h15.54q.84 0 1.41.57t.57 1.41v36.06q0 2.46-.93 4.65-.93 2.19-2.55 3.81-1.62 1.62-3.81 2.58t-4.65.96H27.74q-2.46 0-4.65-.96-2.19-.96-3.81-2.58t-2.55-3.81q-.93-2.19-.93-4.65V19.3q0-.84.57-1.41t1.41-.57h11.7l1.92-5.22 3.72 1.44-1.38 3.78zM47.3 55.36V41.5H19.76v13.86q0 1.62.63 3.09.63 1.47 1.71 2.55 1.08 1.08 2.55 1.71 1.47.63 3.09.63h11.58q1.62 0 3.09-.63 1.47-.63 2.55-1.71 1.08-1.08 1.71-2.55.63-1.47.63-3.09zm0-17.88V21.34H19.76v16.14H47.3zm32.22-5.64H97.4v3.96H78.86l-17.7 31.86-3.48-1.98L74.3 35.8H57.74v-3.96H75.5V18.22H59.48V14.2h36.18v4.02H79.52v13.62zm3.12 6.42v19.56q0 1.14.45 2.13t1.2 1.74q.75.75 1.77 1.2 1.02.45 2.16.45h9.06v4.02h-9.06q-1.98 0-3.72-.75-1.74-.75-3.03-2.07-1.29-1.32-2.04-3.03-.75-1.71-.75-3.69V38.26h3.96zm41.52 6.9H137q.84 0 1.44.57t.6 1.41v8.64q0 1.5-.57 2.79t-1.53 2.25q-.96.96-2.28 1.53-1.32.57-2.76.57h-3.54V58.9h3.54q1.26 0 2.19-.9.93-.9.93-2.22v-6.6h-10.86v18.18h-4.02V49.18h-10.86v13.8h-4.02V47.14q0-.84.57-1.41t1.41-.57h12.9v-4.02h-4.08q-1.5 0-2.79-.57t-2.28-1.56q-.99-.99-1.56-2.28-.57-1.29-.57-2.79v-4.86q0-.84.57-1.41t1.41-.57h22.62q.84 0 1.41.57t.57 1.41v4.86q0 1.5-.57 2.79t-1.56 2.28q-.99.99-2.31 1.56-1.32.57-2.82.57h-4.02v4.02zm-8.1-7.98h12.12q1.38 0 2.31-.96.93-.96.93-2.28v-2.82h-18.6v2.82q0 1.32.96 2.28.96.96 2.28.96zm19.2-17.52h4.62q.84 0 1.41.6t.57 1.44v7.5h-3.96v-5.52h-31.5v5.52h-4.02v-7.5q0-.84.6-1.44t1.44-.6h4.62l-1.92-5.28 3.78-1.32 2.4 6.6h6.84v-7.02h4.02v7.02H131l2.4-6.6 3.72 1.32-1.86 5.28zm35.58 5.76V47.2q0 2.1-.81 3.93t-2.19 3.21q-1.38 1.38-3.21 2.19t-3.93.81q-2.1 0-3.93-.81t-3.21-2.19q-1.38-1.38-2.19-3.21t-.81-3.93V25.42q0-.84.57-1.44t1.41-.6h16.32q.84 0 1.41.6t.57 1.44zm-3.96 21.78V27.4h-12.36v19.8q0 1.26.48 2.37t1.32 1.95q.84.84 1.98 1.32 1.14.48 2.4.48t2.4-.48q1.14-.48 1.98-1.32.84-.84 1.32-1.95.48-1.11.48-2.37zM147.2 13.36h38.7v4.02h-4.32v39.96q0 2.1-.78 3.9-.78 1.8-2.16 3.18-1.38 1.38-3.21 2.16-1.83.78-3.87.78h-7.74v-4.02h7.74q2.52 0 4.26-1.74 1.74-1.74 1.74-4.26V17.38H147.2v-4.02zm68.1 12.06V47.2q0 2.1-.81 3.93t-2.19 3.21q-1.38 1.38-3.21 2.19t-3.93.81q-2.1 0-3.93-.81t-3.21-2.19q-1.38-1.38-2.19-3.21t-.81-3.93V25.42q0-.84.57-1.44t1.41-.6h16.32q.84 0 1.41.6t.57 1.44zm-3.96 21.78V27.4h-12.36v19.8q0 1.26.48 2.37t1.32 1.95q.84.84 1.98 1.32 1.14.48 2.4.48t2.4-.48q1.14-.48 1.98-1.32.84-.84 1.32-1.95.48-1.11.48-2.37zm-19.68-33.84h38.7v4.02h-4.32v39.96q0 2.1-.78 3.9-.78 1.8-2.16 3.18-1.38 1.38-3.21 2.16-1.83.78-3.87.78h-7.74v-4.02h7.74q2.52 0 4.26-1.74 1.74-1.74 1.74-4.26V17.38h-30.36v-4.02zm82.62 9.72h-11.34v31.68h4.5v4.02h-4.5v8.58h-3.96v-8.58h-4.5v-4.02h4.5V23.08h-11.34v-4.02h11.34v-6.12h3.96v6.12h11.34v4.02zm-27.54 43.8l6-41.7 3.96.6-6 41.64-3.96-.54zm18.3-41.1l3.96-.6 6.3 41.64-3.96.6-6.3-41.64zm-19.98-13.26l3.72 1.5-5.58 13.5h1.98v39.84h-4.02V32.44l-1.74 4.2-3.72-1.5 9.36-22.62zm88.26 50.88h1.32v3.96h-22.98V63.4h1.38V15.76q0-.84.57-1.41t1.41-.57h16.26q.84 0 1.44.57t.6 1.41V63.4zm-4.02 0V47.62h-12.24V63.4h12.24zm0-19.8V32.2h-12.24v11.4h12.24zm0-15.42V17.8h-12.24v10.38h12.24zm-20.76 3.36l-3.72-.48v2.04h5.82v3.96h-1.86l1.92 30.06-4.02.24-1.86-29.22v29.22h-4.02V38.14l-1.86 29.22-4.02-.24 1.92-30.06h-1.86V33.1h5.82v-2.04l-3.72.48-2.28-17.04 3.96-.54 2.04 15.36V12.7h4.02v16.62l2.04-15.36 3.96.54-2.28 17.04zm69.54-8.46h-11.34v31.68h4.5v4.02h-4.5v8.58h-3.96v-8.58h-4.5v-4.02h4.5V23.08h-11.34v-4.02h11.34v-6.12h3.96v6.12h11.34v4.02zm-27.54 43.8l6-41.7 3.96.6-6 41.64-3.96-.54zm18.3-41.1l3.96-.6 6.3 41.64-3.96.6-6.3-41.64zm-19.98-13.26l3.72 1.5-5.58 13.5h1.98v39.84h-4.02V32.44l-1.74 4.2-3.72-1.5 9.36-22.62z"/></svg>