<svg viewBox="0 0 399 80" xmlns="http://www.w3.org/2000/svg"><path d="M32.08 16.9h16.56q.54 0 .93.39t.39.93V55.9q0 2.34-.9 4.41-.9 2.07-2.43 3.6-1.53 1.53-3.57 2.4-2.04.87-4.38.87H26.32q-2.34 0-4.38-.87t-3.57-2.4q-1.53-1.53-2.43-3.6-.9-2.07-.9-4.41V18.22q0-.54.39-.93t.93-.39h12.78l2.16-4.86 2.4 1.08-1.62 3.78zm15.18 39V40.54H17.74V55.9q0 1.8.66 3.36.66 1.56 1.83 2.73t2.73 1.86q1.56.69 3.36.69h12.36q1.8 0 3.36-.69 1.56-.69 2.73-1.86 1.17-1.17 1.83-2.73.66-1.56.66-3.36zm0-18V19.54H17.74V37.9h29.52zm30.6-6h18.6v2.7H77.5L58.84 67.18l-2.34-1.32L74.44 34.6H56.56v-2.7h18.6V16.84H57.7V14.2h37.56v2.64h-17.4V31.9zm2.7 5.94v20.28q0 1.38.51 2.55t1.41 2.07q.9.9 2.07 1.41 1.17.51 2.49.51h9.3v2.64h-9.3q-1.92 0-3.57-.72t-2.91-1.95q-1.26-1.23-1.98-2.91-.72-1.68-.72-3.6V37.84h2.7zm41.94 6.48h13.8q.6 0 .99.39t.39.93v10.74q0 1.38-.54 2.58-.54 1.2-1.44 2.1-.9.9-2.1 1.41-1.2.51-2.52.51h-3.6v-2.7h3.6q1.62 0 2.76-1.14 1.14-1.14 1.14-2.76v-9.36H122.5v20.22h-2.7V47.02h-12.48v15.9h-2.7V45.64q0-.54.39-.93t.93-.39h13.86V40.6h-4.86q-1.38 0-2.58-.54-1.2-.54-2.1-1.44-.9-.9-1.44-2.1-.54-1.2-.54-2.58v-6.66q0-.6.39-.99t.93-.39h23.04q.6 0 .99.39t.39.99v6.66q0 1.38-.54 2.58-.54 1.2-1.44 2.1-.9.9-2.13 1.44-1.23.54-2.61.54h-4.8v3.72zm-7.56-6.36h12.36q1.68 0 2.85-1.17 1.17-1.17 1.17-2.85V28.6h-20.4v5.34q0 1.68 1.17 2.85 1.17 1.17 2.85 1.17zm18.78-18.12h6q.54 0 .93.39t.39.93v7.68h-2.64v-6.36h-34.5v6.36h-2.7v-7.68q0-.54.39-.93t.93-.39h6.06l-2.1-5.52 2.52-.96 2.4 6.48h8.4v-7.08h2.7v7.08h8.34l2.46-6.48 2.46.96-2.04 5.52zm35.04 5.34v22.68q0 1.92-.75 3.6-.75 1.68-2.01 2.94-1.26 1.26-2.97 2.01-1.71.75-3.63.75t-3.6-.75q-1.68-.75-2.94-2.01-1.26-1.26-2.01-2.94-.75-1.68-.75-3.6V25.18q0-.6.39-.99t.93-.39h16.02q.54 0 .93.39t.39.99zm-9.36 29.34q1.38 0 2.61-.54t2.13-1.44q.9-.9 1.44-2.1.54-1.2.54-2.58V26.5h-13.38v21.36q0 1.38.54 2.58.54 1.2 1.44 2.1.9.9 2.1 1.44 1.2.54 2.58.54zm-12.78-38.1v-2.7h37.92v2.7h-4.26v41.76q0 1.92-.72 3.6-.72 1.68-1.98 2.91-1.26 1.23-2.94 1.95t-3.54.72h-7.62v-2.64h7.62q1.32 0 2.52-.51t2.07-1.41q.87-.9 1.38-2.07.51-1.17.51-2.55V16.42h-30.96zm66.6 8.76v22.68q0 1.92-.75 3.6-.75 1.68-2.01 2.94-1.26 1.26-2.97 2.01-1.71.75-3.63.75t-3.6-.75q-1.68-.75-2.94-2.01-1.26-1.26-2.01-2.94-.75-1.68-.75-3.6V25.18q0-.6.39-.99t.93-.39h16.02q.54 0 .93.39t.39.99zm-9.36 29.34q1.38 0 2.61-.54t2.13-1.44q.9-.9 1.44-2.1.54-1.2.54-2.58V26.5H197.2v21.36q0 1.38.54 2.58.54 1.2 1.44 2.1.9.9 2.1 1.44 1.2.54 2.58.54zm-12.78-38.1v-2.7H229v2.7h-4.26v41.76q0 1.92-.72 3.6-.72 1.68-1.98 2.91-1.26 1.23-2.94 1.95t-3.54.72h-7.62v-2.64h7.62q1.32 0 2.52-.51t2.07-1.41q.87-.9 1.38-2.07.51-1.17.51-2.55V16.42h-30.96zm51.84 7.44v43.32h-2.64V30.64l-3.18 8.04-2.52-.96 9.96-25.08 2.46.96-4.08 10.26zm18.48 34.62v8.7h-2.7v-8.7h-6.6v-2.7h6.6V22h-12.24v-2.64h12.24V13h2.7v6.36h12.3V22h-12.3v33.78h6.6v2.7h-6.6zm-15.6 8.4L252.4 25l2.64.42-6.6 41.88-2.64-.42zM267.58 25l6.72 41.88-2.64.42-6.72-41.88 2.64-.42zm47.64 19.32h13.8q.6 0 .99.39t.39.93v10.74q0 1.38-.54 2.58-.54 1.2-1.44 2.1-.9.9-2.1 1.41-1.2.51-2.52.51h-3.6v-2.7h3.6q1.62 0 2.76-1.14 1.14-1.14 1.14-2.76v-9.36h-12.48v20.22h-2.7V47.02h-12.48v15.9h-2.7V45.64q0-.54.39-.93t.93-.39h13.86V40.6h-4.86q-1.38 0-2.58-.54-1.2-.54-2.1-1.44-.9-.9-1.44-2.1-.54-1.2-.54-2.58v-6.66q0-.6.39-.99t.93-.39h23.04q.6 0 .99.39t.39.99v6.66q0 1.38-.54 2.58-.54 1.2-1.44 2.1-.9.9-2.13 1.44-1.23.54-2.61.54h-4.8v3.72zm-7.56-6.36h12.36q1.68 0 2.85-1.17 1.17-1.17 1.17-2.85V28.6h-20.4v5.34q0 1.68 1.17 2.85 1.17 1.17 2.85 1.17zm18.78-18.12h6q.54 0 .93.39t.39.93v7.68h-2.64v-6.36h-34.5v6.36h-2.7v-7.68q0-.54.39-.93t.93-.39h6.06l-2.1-5.52 2.52-.96 2.4 6.48h8.4v-7.08h2.7v7.08h8.34l2.46-6.48 2.46.96-2.04 5.52zm33.3-4.32v31.14h-2.7V14.2q0-.54.39-.93t.99-.39H376q.54 0 .93.39t.39.93v32.46h-2.64V15.52h-14.94zm8.76 3v22.8q0 .3-.06.48l-9.6 25.44-2.46-.96 9.48-25.2V18.52h2.64zm4.74 46.02h4.92v2.7h-4.92q-1.38 0-2.58-.51-1.2-.51-2.1-1.41-.9-.9-1.41-2.1-.51-1.2-.51-2.58v-12h2.7v12q0 1.62 1.14 2.76 1.14 1.14 2.76 1.14zm-24.42-42.9v13.92h7.44v2.7h-7.02l5.7 28.44-2.64.54-4.98-24.9-6.12 24.9-2.64-.6 7.02-28.38h-6.9v-2.7h7.44V21.64h-6.78V19h6.78v-6.06h2.7V19h6.42v2.64h-6.42z"/></svg>