<svg viewBox="0 0 300 80" xmlns="http://www.w3.org/2000/svg"><path d="M42.66 24.18q0 1.11-.27 2.34-.26 1.23-.85 2.28-.58 1.06-1.52 1.76-.94.71-2.29.71-2.05 0-3.04-.74-1-.73-1.41-1.84-.41-1.12-.44-2.38-.03-1.26-.09-2.37-.05-1.11-.38-1.84-.32-.74-1.37-.74-1.18 0-2.05.85-.88.85-1.53 2.2-.64 1.35-1.08 3.05-.44 1.7-.71 3.37-.26 1.67-.38 3.16-.11 1.49-.11 2.43 0 1.23.08 2.93.09 1.7.56 3.25.47 1.56 1.41 2.64t2.69 1.08q1.17 0 2.29-.29 1.11-.29 2.22-.67 1.12-.38 2.26-.68 1.14-.29 2.31-.29 1.35 0 2.23 1.08.88 1.09.88 2.44 0 1.87-1.17 3.48Q39.73 53 38 54.23q-1.73 1.23-3.75 1.94-2.02.7-3.66.7-4.22 0-7.15-1.9-2.93-1.91-4.75-4.93-1.81-3.01-2.61-6.73-.79-3.72-.79-7.42 0-2.46.47-5.39.47-2.93 1.41-5.88.94-2.96 2.37-5.72 1.44-2.75 3.37-4.86 1.93-2.11 4.37-3.4 2.43-1.29 5.36-1.29 2.87 0 4.8 1.44 1.94 1.43 3.11 3.63t1.64 4.8q.47 2.61.47 4.96zM71.6 38.82q0 1-.03 2.96-.03 1.97-.17 4.1-.15 2.14-.38 4.05-.24 1.9-.59 2.78-.47 1.11-1.23 1.93-.76.82-2.05.82-1.99 0-2.87-1.58-.88-1.58-1.17-3.92-.3-2.35-.24-5.1.06-2.75-.06-5.1-.11-2.34-.64-3.92-.53-1.59-1.94-1.59-1.93 0-2.95.62-1.03.61-1.47 1.61-.44 1-.53 2.29-.08 1.28-.2 2.69-.12 1.35-.18 3.63-.06 2.29-.52 4.52-.47 2.22-1.56 3.83-1.08 1.61-3.19 1.61-1.29 0-2.08-.99-.79-1-1.26-2.58t-.67-3.52q-.21-1.93-.24-3.77-.03-1.85 0-3.37.03-1.53.03-2.29 0-1.17.09-3.87.09-2.69.38-6 .29-3.31.76-6.83.47-3.51 1.23-6.41.76-2.9 1.85-4.72 1.08-1.82 2.55-1.76.93.06 1.61.82.67.76 1.11 1.96.44 1.21.73 2.61.3 1.41.44 2.79.15 1.37.18 2.54.03 1.18.03 1.82 0 1.52-.06 3.05-.06 1.52-.18 3.04 1.35-1.81 3.61-2.98 2.25-1.18 4.54-1.18 2.93 0 4.42 1.62 1.5 1.61 2.14 3.98.64 2.37.7 5.04.06 2.66.06 4.77zm28.71 4.75q0 1.99-1.26 3.9-1.26 1.9-3.16 3.4-1.91 1.49-4.07 2.4-2.17.91-3.99.91-3.1 0-5.54-1.56-2.43-1.55-4.07-3.95-1.64-2.4-2.49-5.3-.85-2.91-.85-5.66 0-2.93.82-6.27.82-3.34 2.49-6.15 1.67-2.81 4.22-4.69 2.55-1.87 6.07-1.87 1.99 0 3.81.67 1.81.67 3.16 1.9 1.35 1.24 2.17 2.93.82 1.7.82 3.81 0 2.76-1.17 5.16-1.18 2.4-3.11 4.16-1.93 1.76-4.45 2.84-2.52 1.09-5.16 1.2.24 1.7 1.38 2.46 1.14.77 2.72.77 1.17 0 2.29-.59 1.11-.59 2.17-1.32 1.05-.73 2.08-1.32 1.02-.58 2.08-.58 1.17 0 2.11.76.93.76.93 1.99zm-9.49-14.36q0-.76-.41-1.58-.41-.82-1.29-.82-1.29 0-2.17.68-.88.67-1.46 1.7-.59 1.02-.91 2.19-.32 1.17-.38 2.17.82-.17 1.96-.47 1.14-.29 2.17-.79t1.76-1.26q.73-.76.73-1.82zm41.02 25.55q-1.88 0-3.37-1.99-1.5-1.99-2.61-4.78-1.11-2.78-1.85-5.71-.73-2.93-1.08-4.86-.47 1.17-1.26 2.87-.79 1.7-1.82 3.57-1.02 1.88-2.19 3.78-1.18 1.91-2.44 3.43-1.26 1.52-2.51 2.46-1.26.94-2.44.94-1.58 0-2.78-1.52-1.2-1.53-2.02-3.99-.82-2.46-1.38-5.45-.55-2.99-.85-5.97-.29-2.99-.41-5.57t-.12-4.16q0-1.47.15-2.81.15-1.35.59-2.41.44-1.05 1.29-1.67.85-.61 2.25-.61 1.35 0 2.32.99.96 1 1.61 2.61.64 1.61 1.05 3.63.41 2.03.65 4.11.23 2.08.32 4.04t.15 3.37q.35-1.23.99-3.02.65-1.79 1.41-3.81.76-2.02 1.67-4.01.91-1.99 1.81-3.58.91-1.58 1.79-2.57.88-1 1.7-1h.06q1.05 0 2.05 1 1 .99 1.93 2.57.94 1.59 1.76 3.61.82 2.02 1.53 4.1.7 2.08 1.23 4.04.52 1.97.87 3.37.06-1.7.18-3.84.12-2.13.44-4.3t.88-4.22q.56-2.05 1.38-3.66.82-1.61 2.02-2.58 1.2-.97 2.78-.97 1.64 0 2.43 1.14.79 1.15.79 2.79 0 1.76-.44 4.68-.44 2.93-1.2 6.36t-1.78 6.92q-1.03 3.48-2.26 6.3-1.23 2.81-2.58 4.59-1.35 1.79-2.69 1.79zm26.89 16.29q-1.41 0-3.19-.44-1.79-.44-3.37-1.26-1.58-.82-2.67-1.99-1.08-1.17-1.08-2.7 0-.58.29-1.17.29-.58.79-1.02.5-.44 1.09-.71.58-.26 1.23-.26.7 0 1.37.21.68.2 1.38.49.76.3 1.49.53.74.23 1.56.23 1.46 0 2.55-.99 1.08-1 1.84-2.61.76-1.61 1.23-3.57.47-1.97.73-3.9.27-1.93.39-3.63.11-1.7.17-2.76-2.05 3.11-4.07 4.78-2.02 1.67-4.95 1.67-2.23 0-3.9-.94t-2.84-2.46q-1.17-1.52-1.93-3.49-.77-1.96-1.15-4.07-.38-2.11-.49-4.13-.12-2.02 0-3.72.05-1.29.32-3.37.26-2.08.85-4.07.58-1.99 1.64-3.37 1.05-1.38 2.75-1.26 1.12.06 1.82.97.7.91 1.14 2.25.44 1.35.65 2.96.2 1.61.26 3.2.06 1.58.03 2.9-.03 1.31-.03 2.02 0 .99.06 1.99t.41 1.79q.35.79 1.08 1.26.73.47 2.08.47 1.53 0 2.43-.77.91-.76 1.35-1.9.44-1.14.56-2.46.11-1.32.11-2.49v-1.99q0-1.18.03-2.47.03-1.28.24-2.54.2-1.26.64-2.29.44-1.02 1.17-1.67.74-.64 1.91-.64 1.46 0 2.52 1.14 1.05 1.14 1.79 2.99.73 1.84 1.17 4.07.44 2.23.67 4.42.24 2.2.32 4.05.09 1.84.09 2.9 0 2.46-.17 5.59-.18 3.14-.68 6.45t-1.49 6.5q-1 3.19-2.61 5.71-1.61 2.52-3.95 4.05-2.35 1.52-5.63 1.52z"/></svg>