<svg viewBox="0 0 957 80" xmlns="http://www.w3.org/2000/svg"><path d="M63.42 36.88h.48q.36 2.4.36 5.1 0 2.7-.72 5.58-2.28 9.06-10.86 12.6-4.08 1.68-9 1.68-13.5 0-20.79-5.88-7.29-5.88-7.29-15.87 0-9.99 7.56-15.96 7.56-5.97 20.52-5.97 9 0 15.48 2.76l-.6 11.46h-.54Q54.9 21.16 43.98 21.16q-7.26 0-11.22 4.89-3.96 4.89-3.96 13.53t4.14 13.83q4.14 5.19 11.94 5.43 8.58 0 13.56-5.55t4.98-14.97v-1.44zM66 60.4h.78q1.56 0 2.67-1.11 1.11-1.11 1.17-2.67v-33.3q-.06-1.56-1.17-2.64-1.11-1.08-2.67-1.08H66V19h21.54v.6h-.78q-1.56 0-2.67 1.08-1.11 1.08-1.17 2.64v33.3q0 1.56 1.14 2.67 1.14 1.11 2.7 1.11h.78v.6H66v-.6zm74.94-40.8h-1.08q-1.5 0-2.58 1.05t-1.14 2.55v30.96q0 4.44.6 6.84l.18.84h-.54l-28.74-25.56v20.46q0 2.16 1.86 3.18.84.48 1.8.48h1.14v.6H90.48v-.6h1.14q1.5 0 2.58-1.05t1.08-2.61V25.6q0-4.2-.6-6.66l-.18-.84h.6l28.74 25.56v-20.4q-.06-1.56-1.14-2.61-1.08-1.05-2.58-1.05h-1.14V19h21.96v.6zm4.14 10.62V17.86q.9.36 3.15.72t3.18.36h21.63q2.52 0 4.26-.3 1.74-.3 2.1-.48v.54L159.24 58h8.46q4.38 0 7.74-2.91 3.36-2.91 4.74-8.01h.6L178.5 61h-34.26v-.54l19.92-38.52h-10.8q-3.6.06-5.64 2.13-2.04 2.07-2.04 5.67v.48h-.6zm38.88 30.18h.78q1.56 0 2.67-1.11 1.11-1.11 1.17-2.67V23.38q-.06-1.92-1.62-3.06-.96-.72-2.22-.72h-.78V19h26.58q2.58 0 4.59-.42t2.55-.66v12.36h-.6v-.48q0-4.8-3.48-6.72-1.68-.96-4.02-1.02h-8.7V38.8h6.54q2.88-.06 4.68-1.89 1.8-1.83 1.8-4.71v-.24h.6v16.68h-.6v-.3q0-2.82-1.8-4.65-1.8-1.83-4.62-1.89h-6.6v16.14h7.38q4.38 0 7.74-2.88 3.36-2.88 4.74-7.98h.6L219.06 61h-35.1v-.6zm39.96 0h.78q1.56 0 2.67-1.11 1.11-1.11 1.17-2.67V23.38q-.06-2.22-1.92-3.3-.9-.48-1.92-.48h-.78V19h21.54v.6h-.78q-1.56 0-2.7 1.11-1.14 1.11-1.14 2.67v34.56h7.38q4.38 0 7.74-2.88 3.36-2.88 4.74-7.98h.6L259.02 61h-35.1v-.6zm79.02.6H280.2v-.6h.78q1.56 0 2.67-1.11 1.11-1.11 1.17-2.67V22.36q-6.3.66-9.54 3.54-2.76 2.46-4.44 6.3l-.6-.24q1.2-6.48 6.21-9.72T289.02 19h13.92q11.28 0 17.61 5.55T326.88 40q0 9.9-6.36 15.45Q314.16 61 302.94 61zm-5.82-38.88V58h4.62q5.58 0 8.76-4.77 3.18-4.77 3.18-13.23t-3.18-13.23Q307.32 22 301.74 22l-4.62.12zm32.4 38.28h.78q1.56 0 2.67-1.11 1.11-1.11 1.17-2.67V23.38q-.06-1.92-1.62-3.06-.96-.72-2.22-.72h-.78V19h26.58q2.58 0 4.59-.42t2.55-.66v12.36h-.6v-.48q0-4.8-3.48-6.72-1.68-.96-4.02-1.02h-8.7V38.8h6.54q2.88-.06 4.68-1.89 1.8-1.83 1.8-4.71v-.24h.6v16.68h-.6v-.3q0-2.82-1.8-4.65-1.8-1.83-4.62-1.89h-6.6v16.14h7.38q4.38 0 7.74-2.88 3.36-2.88 4.74-7.98h.6L364.62 61h-35.1v-.6zm40.26-20.46q0-6.78 3.12-11.7 3.12-4.92 9.03-7.5 5.91-2.58 14.49-2.58t15.06 2.76l-.6 11.46h-.54q-1.74-6.06-5.04-8.64-3.3-2.58-8.22-2.58-6.66 0-10.38 4.92-3.72 4.92-3.72 13.71 0 8.79 3.45 13.83 3.45 5.04 9.57 5.22 7.08 0 10.26-3.36 3-3.12 4.68-12h.48l1.44 10.92q-4.44 7.44-16.77 7.41-12.33-.03-19.32-5.76-6.99-5.73-6.99-16.11zm72.48-21.78q7.74 0 13.35 2.58 5.61 2.58 8.61 7.53 3 4.95 3 11.73 0 10.26-6.66 16.05-6.66 5.79-18.3 5.79t-18.27-5.79q-6.63-5.79-6.63-16.05 0-10.26 6.63-16.05 6.63-5.79 18.27-5.79zm-8.55 35.7q3.09 4.98 8.58 4.98t8.58-4.98q3.09-4.98 3.09-13.86 0-8.88-3.09-13.86-3.09-4.98-8.58-4.98t-8.58 4.98q-3.09 4.98-3.09 13.86 0 8.88 3.09 13.86zm74.85-28.26q.96 2.1.96 4.35 0 2.25-.48 3.96t-1.5 3.39q-2.22 3.6-7.62 4.44 2.34.66 4.2 2.34 1.98 1.68 3.72 4.68 4.5 7.68 6.9 9.9 1.8 1.68 4.56 1.74v.6h-7.5q-7.8 0-11.16-1.74-4.8-2.46-6.84-8.46-.54-1.74-.93-3.66-.39-1.92-.66-2.79-.27-.87-.63-1.62-.36-.75-.78-1.17-.72-.72-1.68-1.08v-.6h.96q3.48 0 5.22-3.18.9-1.68 1.11-3.63.21-1.95.21-2.43v-.6q-.42-7.92-6.84-7.92h-2.64v34.5q0 1.56 1.14 2.67 1.14 1.11 2.7 1.11h.72v.6h-21.54v-.6h.78q1.56 0 2.67-1.08 1.11-1.08 1.17-2.64v-33.3q-.06-2.22-1.92-3.3-.9-.48-1.92-.48h-.78V19h23.46q11.76 0 14.94 6.6zm52.14 34.8h.48v.6h-22.74v-.6h.54q1.32 0 1.98-.81.66-.81.66-1.5t-.3-1.47l-2.34-5.58h-12.84l-2.4 5.58q-.3.78-.3 1.26t.21 1.05q.21.57.9 1.02.69.45 1.47.45h.54v.6h-13.38v-.6h.54q1.38 0 2.73-.81t2.25-2.43l13.98-30.66q3.18-6.72 3.42-8.94h.54l19.02 39.54q1.92 3.3 5.04 3.3zm-28.02-24.36l-5.22 12h10.26l-5.04-12zm53.1-14.1h-5.88v34.74q.06 1.56 1.17 2.64 1.11 1.08 2.67 1.08h.78v.6h-21.54v-.6h.78q1.56 0 2.67-1.08 1.11-1.08 1.17-2.58v-34.8h-5.94q-3.6.06-5.64 2.13-2.04 2.07-2.04 5.67v.42l-.6.06V17.86q.84.36 3.03.72t4.05.36h26.58q1.86 0 4.02-.36 2.16-.36 3.06-.72v12.36l-.6-.06v-.42q0-4.86-3.6-6.84-1.74-.9-4.14-.96zm10.68 38.46h.78q1.56 0 2.67-1.11 1.11-1.11 1.17-2.67v-33.3q-.06-1.56-1.17-2.64-1.11-1.08-2.67-1.08h-.78V19H618v.6h-.78q-1.56 0-2.67 1.08-1.11 1.08-1.17 2.64v33.3q0 1.56 1.14 2.67 1.14 1.11 2.7 1.11h.78v.6h-21.54v-.6zM665.34 19v.6h-.54q-3.12 0-4.98 3.24L645.84 53.5q-3.18 6.72-3.42 8.94h-.54L622.86 22.9q-1.86-3.3-5.04-3.3h-.48V19h22.74v.6h-.54q-1.26 0-1.89.81-.63.81-.63 1.53t.24 1.44l8.58 20.58 8.94-20.58q.36-.78.36-1.47t-.66-1.5q-.66-.81-1.98-.81h-.54V19h13.38zm-.6 41.4h.78q1.56 0 2.67-1.11 1.11-1.11 1.17-2.67V23.38q-.06-1.92-1.62-3.06-.96-.72-2.22-.72h-.78V19h26.58q2.58 0 4.59-.42t2.55-.66v12.36h-.6v-.48q0-4.8-3.48-6.72-1.68-.96-4.02-1.02h-8.7V38.8h6.54q2.88-.06 4.68-1.89 1.8-1.83 1.8-4.71v-.24h.6v16.68h-.6v-.3q0-2.82-1.8-4.65-1.8-1.83-4.62-1.89h-6.6v16.14h7.38q4.38 0 7.74-2.88 3.36-2.88 4.74-7.98h.6L699.84 61h-35.1v-.6zm77.22 1.56q-24.66 0-24.66-20.22 0-1.74.18-3.54l.6-.06q0 11.16 7.38 16.68v-31.5q-.06-1.62-1.2-2.67-1.14-1.05-2.64-1.05h-.78V19h18.48q10.2 0 15 4.62 2.58 2.52 2.58 6.06 0 3.9-2.58 6.54-1.14 1.26-2.58 1.8h.6q4.08 0 7.5 2.82t3.42 7.62q0 4.8-3.42 7.98-5.82 5.52-17.88 5.52zM744 31.84v-1.8q-.18-3.9-1.56-5.82-1.38-1.92-4.68-2.16v36.66q5.4-.06 8.4-2.91t3-7.47q0-5.1-2.82-7.38-2.82-2.28-6.54-2.28v-.54q1.26 0 2.13-.69.87-.69 1.29-1.71.78-2.22.78-3.9zm21 28.56h.78q1.56 0 2.67-1.11 1.11-1.11 1.17-2.67V23.38q-.06-2.22-1.92-3.3-.9-.48-1.92-.48H765V19h21.54v.6h-.78q-1.56 0-2.7 1.11-1.14 1.11-1.14 2.67v34.56h7.38q4.38 0 7.74-2.88 3.36-2.88 4.74-7.98h.6L800.1 61H765v-.6zm82.44 0h.48v.6h-22.74v-.6h.54q1.32 0 1.98-.81.66-.81.66-1.5t-.3-1.47l-2.34-5.58h-12.84l-2.4 5.58q-.3.78-.3 1.26t.21 1.05q.21.57.9 1.02.69.45 1.47.45h.54v.6h-13.38v-.6h.54q1.38 0 2.73-.81t2.25-2.43l13.98-30.66q3.18-6.72 3.42-8.94h.54L842.4 57.1q1.92 3.3 5.04 3.3zm-28.02-24.36l-5.22 12h10.26l-5.04-12zm26.4 3.9q0-6.78 3.12-11.7 3.12-4.92 9.03-7.5 5.91-2.58 14.49-2.58t15.06 2.76l-.6 11.46h-.54q-1.74-6.06-5.04-8.64-3.3-2.58-8.22-2.58-6.66 0-10.38 4.92-3.72 4.92-3.72 13.71 0 8.79 3.45 13.83 3.45 5.04 9.57 5.22 7.08 0 10.26-3.36 3-3.12 4.68-12h.48l1.44 10.92q-4.44 7.44-16.77 7.41-12.33-.03-19.32-5.76-6.99-5.73-6.99-16.11zM892.8 60.4h.78q1.56 0 2.67-1.11 1.11-1.11 1.17-2.67v-33.3q-.06-1.56-1.17-2.64-1.11-1.08-2.67-1.08h-.78V19h21.54v.6h-.78q-1.56 0-2.67 1.08-1.11 1.08-1.17 2.64v33.3q0 1.56 1.14 2.67 1.14 1.11 2.7 1.11h.78v.6H892.8v-.6zm49.08 0v.6h-6.48q-11.04 0-15.42-6-1.8-2.4-5.07-7.71-3.27-5.31-3.27-5.37l14.34-19.56q.42-.6.42-1.08 0-.48-.18-.84-.42-.9-1.68-.9h-.6V19h14.46v.54h-.24q-4.02 0-6.6 2.94l-10.14 12.24 14.04 21.12q2.94 4.44 6.42 4.56z"/></svg>