<svg viewBox="0 0 897 80" xmlns="http://www.w3.org/2000/svg"><path d="M61.94 36.54h.54q.18 1.8.18 4.53 0 2.73-1.08 6.66t-3.9 6.93q-5.76 6.18-15.84 6.18-12.24 0-19.32-6.03t-7.08-15.78q0-9.75 7.17-15.81 7.17-6.06 18.93-6.06 4.5 0 8.58.9t6.78 2.34l.12 10.32h-.48q-1.02-3.84-3.42-6.42-4.32-4.62-11.64-4.62T29.69 24.9q-4.47 5.22-4.47 13.83t4.65 14.01q4.65 5.4 12.81 5.58 8.82 0 14.04-5.64 5.22-5.64 5.22-15.3v-.84zm3.78 22.86h.78q1.56 0 2.67-1.11 1.11-1.11 1.17-2.67v-33.3q-.06-1.56-1.17-2.64-1.11-1.08-2.67-1.08h-.78V18h18.24l-.06.6h-.72q-1.56 0-2.7 1.08-1.14 1.08-1.14 2.64v33.3q0 1.56 1.14 2.67 1.14 1.11 2.7 1.11h.72l.06.6H65.72v-.6zm70.8-40.8h-1.14q-1.5 0-2.58 1.05t-1.14 2.55v30.96q0 4.02.54 6.78l.18.9h-.54l-30.3-28.86V55.8q0 1.5 1.08 2.55 1.08 1.05 2.58 1.05h1.14v.6H88.16v-.6h1.08q1.56 0 2.64-1.05t1.08-2.61V24.6q0-3.96-.54-6.6l-.12-.9h.54l30.3 28.86v-23.7q-.06-1.56-1.14-2.61-1.08-1.05-2.58-1.05h-1.08V18h18.18v.6zm5.28 8.7V16.86q.9.36 3.15.72t3.18.36h20.07q2.94 0 4.5-.33t1.8-.45v.54l-22.2 39.78h12.6q3.84 0 6.69-2.58 2.85-2.58 4.05-6.96h.6L174.08 60h-33.12v-.54l22.02-39h-14.52q-2.76.06-4.41 1.71-1.65 1.65-1.65 4.41v.72h-.6zm38.58 32.1h.78q1.56 0 2.67-1.11 1.11-1.11 1.17-2.67V22.2q-.18-2.1-1.98-3.12-.9-.48-1.86-.48h-.78V18h22.98q1.86 0 4.08-.36 2.22-.36 3.12-.72v10.5h-.6v-.72q0-2.7-1.59-4.35-1.59-1.65-4.29-1.77H194v17.46h7.92q2.22-.06 3.66-1.53t1.44-3.63v-.54h.6V46.2h-.6v-.48q0-3-2.4-4.44-1.2-.66-2.64-.72H194v16.86h7.86q4.38 0 7.35-2.52 2.97-2.52 4.41-7.14h.6L211.46 60h-31.08v-.6zm37.62 0h.78q1.56 0 2.67-1.11 1.11-1.11 1.17-2.67V22.38q-.06-1.56-1.17-2.67-1.11-1.11-2.67-1.11H218V18h18.24l-.06.6h-.72q-1.56 0-2.7 1.11-1.14 1.11-1.14 2.67v35.04h7.86q4.38 0 7.35-2.52 2.97-2.52 4.41-7.14h.6L249.08 60H218v-.6zm61.8-41.46h3.72q2.7 0 10.02.06 10.62.12 16.8 5.73 6.18 5.61 6.18 15.3 0 9.69-6.18 15.33-6.18 5.64-16.8 5.64h-21.78v-.6h.78q1.5 0 2.61-1.05 1.11-1.05 1.23-2.55V20.7q-6.72.48-9.96 3.12-1.62 1.26-2.55 2.58-.93 1.32-1.83 3.18l-.6-.24q1.44-6 6.03-8.67t12.33-2.73zm13.02 39.54q6.42 0 10.17-4.98t3.75-13.5q0-8.52-3.75-13.44t-10.05-4.92h-7.56v36.84h7.44zm27.66 1.92h.78q1.56 0 2.67-1.11 1.11-1.11 1.17-2.67V22.2q-.18-2.1-1.98-3.12-.9-.48-1.86-.48h-.78V18h22.98q1.86 0 4.08-.36 2.22-.36 3.12-.72v10.5h-.6v-.72q0-2.7-1.59-4.35-1.59-1.65-4.29-1.77H334.1v17.46h7.92q2.22-.06 3.66-1.53t1.44-3.63v-.54h.6V46.2h-.6v-.48q0-3-2.4-4.44-1.2-.66-2.64-.72h-7.98v16.86h7.86q4.38 0 7.35-2.52 2.97-2.52 4.41-7.14h.6L351.56 60h-31.08v-.6zm62.34 1.41q-11.58-.03-18.18-5.85-6.6-5.82-6.6-15.96t6.54-15.99q6.54-5.85 17.94-5.85 8.7 0 14.94 3.24l.12 10.32h-.48q-3.06-11.04-13.98-11.04-7.08 0-11.19 5.13-4.11 5.13-4.11 14.01 0 8.88 3.93 14.1 3.93 5.22 10.65 5.4 6.96 0 10.62-3.48 3.72-3.6 5.16-12.36h.48l.6 10.32q-4.86 8.04-16.44 8.01zm45.72-43.65q11.1 0 17.64 5.88 6.54 5.88 6.54 15.96 0 10.08-6.54 15.96-6.54 5.88-17.64 5.88-11.1 0-17.64-5.88-6.54-5.88-6.54-15.96 0-6.66 2.97-11.61 2.97-4.95 8.43-7.59 5.46-2.64 12.78-2.64zm-10.47 35.97q3.87 5.19 10.47 5.19 6.6 0 10.47-5.19 3.87-5.19 3.87-14.13 0-5.88-1.74-10.26t-4.98-6.72q-3.24-2.34-7.62-2.34-6.6 0-10.47 5.19-3.87 5.19-3.87 14.13 0 8.94 3.87 14.13zm54.69-32.49H470v34.98q.06 2.22 1.92 3.3.9.48 1.92.48h.78v.6h-18.24v-.6h.78q2.16 0 3.3-1.86.48-.84.54-1.86v-33.3q-.06-1.56-1.17-2.67-1.11-1.11-2.67-1.11h-.78V18h20.58q5.82 0 9.84 2.52 2.04 1.26 3.24 3.51 1.2 2.25 1.2 5.1 0 2.85-.99 5.25t-3.3 4.2q-2.31 1.8-5.55 2.16 3.48 1.14 6.12 5.28 6.48 10.38 9.6 12.36 1.56.96 3.9 1.02v.6h-5.88q-5.1 0-8.52-1.41t-5.58-4.83q-1.08-1.74-2.76-5.25-1.68-3.51-2.22-5.01-1.62-3.6-4.08-4.02v-.6h1.86q2.7 0 4.77-1.62 2.07-1.62 2.79-5.28.24-1.26.24-1.98 0-4.92-1.98-7.11-1.98-2.19-5.1-2.25h-1.8zm69.18 38.76h.54v.6h-19.14v-.6h.54q1.32 0 1.95-.81.63-.81.63-1.53t-.3-1.44l-2.94-7.38h-14.04l-3.12 7.38q-.3.78-.3 1.47t.63 1.5q.63.81 2.01.81h.48v.6h-12.84v-.6h.54q1.38 0 2.76-.84t2.28-2.52l13.86-31.38q2.82-5.94 3-7.86h.54l17.82 39.12q.9 1.74 2.28 2.61 1.38.87 2.82.87zm-25.56-28.44l-6.18 14.76h12l-5.82-14.76zm51.6-10.5h-8.04v35.22q.06 1.56 1.17 2.64 1.11 1.08 2.67 1.08h.72l.06.6h-18.24v-.6h.78q1.5 0 2.61-1.08 1.11-1.08 1.23-2.58V20.46h-8.1q-2.76.06-4.38 1.74t-1.62 4.38v.72h-.6V16.86q.84.36 3.03.72t4.05.36h24.18q2.94-.06 4.8-.48 1.86-.42 2.28-.6V27.3h-.6v-.72q0-2.7-1.62-4.38-1.62-1.68-4.38-1.74zm9.9 38.94h.78q1.56 0 2.67-1.11 1.11-1.11 1.17-2.67v-33.3q-.06-1.56-1.17-2.64-1.11-1.08-2.67-1.08h-.78V18h18.24l-.06.6h-.72q-1.56 0-2.7 1.08-1.14 1.08-1.14 2.64v33.3q0 1.56 1.14 2.67 1.14 1.11 2.7 1.11h.72l.06.6h-18.24v-.6zm66-41.4v.6h-.54q-1.38 0-2.76.84t-2.28 2.52l-14.22 31.38q-2.76 5.94-2.94 7.86h-.54l-18.18-39.18q-.9-1.68-2.28-2.55-1.38-.87-2.82-.87h-.48V18h19.08v.6h-.48q-1.32 0-1.95.81-.63.81-.63 1.53t.24 1.44l10.2 24.78 10.56-24.78q.3-.78.3-1.47t-.63-1.5q-.63-.81-1.95-.81h-.54V18h12.84zm.78 41.4h.78q1.56 0 2.67-1.11 1.11-1.11 1.17-2.67V22.2q-.18-2.1-1.98-3.12-.9-.48-1.86-.48h-.78V18h22.98q1.86 0 4.08-.36 2.22-.36 3.12-.72v10.5h-.6v-.72q0-2.7-1.59-4.35-1.59-1.65-4.29-1.77h-10.08v17.46h7.92q2.22-.06 3.66-1.53t1.44-3.63v-.54h.6V46.2h-.6v-.48q0-3-2.4-4.44-1.2-.66-2.64-.72h-7.98v16.86h7.86q4.38 0 7.35-2.52 2.97-2.52 4.41-7.14h.6L675.74 60h-31.08v-.6zm37.74-14.88l-.48-2.04.48-1.98h18l.48 1.98-.48 2.04h-18zm54.3-16.2q0 2.82-1.41 5.04t-3.63 3.06q6.96.36 10.14 5.46 1.62 2.58 1.62 6.36 0 3.78-2.91 6.9-2.91 3.12-7.41 4.44-4.5 1.32-9.48 1.32-12.42 0-17.76-6.6-3.42-4.2-3.42-11.34 0-1.2.12-2.4l.6-.06q.42 10.32 7.38 14.76V22.32q-.06-2.22-1.98-3.24-.84-.48-1.86-.48h-.78V18h15.24q6.66 0 11.1 2.67 4.44 2.67 4.44 7.65zm-15.48 29.76q5.58 0 8.73-2.94 3.15-2.94 3.15-7.74 0-3-1.11-5.07-1.11-2.07-2.91-3.09-3.3-1.98-7.5-1.98v-.54q1.92 0 3.24-1.38 2.28-2.4 2.28-6.54 0-4.14-1.83-6.12-1.83-1.98-5.73-2.1v37.44q.84.06 1.68.06zm50.64-40.92q11.1 0 17.64 5.88 6.54 5.88 6.54 15.96 0 10.08-6.54 15.96-6.54 5.88-17.64 5.88-11.1 0-17.64-5.88-6.54-5.88-6.54-15.96 0-6.66 2.97-11.61 2.97-4.95 8.43-7.59 5.46-2.64 12.78-2.64zm-10.47 35.97q3.87 5.19 10.47 5.19 6.6 0 10.47-5.19 3.87-5.19 3.87-14.13 0-5.88-1.74-10.26t-4.98-6.72q-3.24-2.34-7.62-2.34-6.6 0-10.47 5.19-3.87 5.19-3.87 14.13 0 8.94 3.87 14.13zm38.13 6.27h.78q1.56 0 2.67-1.11 1.11-1.11 1.17-2.67V22.38q-.06-1.56-1.17-2.67-1.11-1.11-2.67-1.11h-.78V18h18.24l-.06.6h-.72q-1.56 0-2.7 1.11-1.14 1.11-1.14 2.67v35.04H821q4.38 0 7.35-2.52 2.97-2.52 4.41-7.14h.6L830.6 60h-31.08v-.6zM857.9 18q10.62 0 16.8 5.64 6.18 5.64 6.18 15.36 0 9.72-6.18 15.36Q868.52 60 857.9 60h-21.78v-.6h.78q1.56 0 2.67-1.11 1.11-1.11 1.17-2.67v-33.6q-.18-1.44-1.26-2.43-1.08-.99-2.58-.99h-.78V18h21.78zm-8.16 39.48h7.38q4.32 0 7.47-2.25 3.15-2.25 4.83-6.42 1.68-4.17 1.68-9.81 0-8.52-3.75-13.5t-10.23-4.98h-7.38v36.96z"/></svg>