<svg viewBox="0 0 617 80" xmlns="http://www.w3.org/2000/svg"><path d="M47.08 23.8q-.06-.48.21-.75t.87-.57q.6-.3.84-.51.24-.21.24-.63 0-.9-1.95-1.47t-3.21-.57q-1.38 0-2.88.51t-3.96 1.53q-1.92.9-3.24 1.35-1.32.45-2.4.45l-.9-.06q-1.14 0-1.14.9 0 1.2 1.5 2.31t2.76 1.11q1.26 0 2.43-.45 1.17-.45 2.91-1.35 1.62-.84 2.73-1.29 1.11-.45 2.25-.45.18 0 .6.21t.66.21q.36 0 .84-.21t.84-.27zM58 28.54l-1.44-.18q-1.56-.24-2.34-.24-1.02 0-2.82.72-1.68.48-4.26.72-2.16.24-3.18.48-2.52.48-5.43 1.35-2.91.87-3.69 1.11-5.22 1.62-8.82 2.43-3.6.81-7.26.81-.3 0-.75-.09t-.99-.09q-1.38 0-1.38 1.14 0 1.44 1.02 2.82t2.46 1.38q1.44 0 2.88-.42t3.9-1.32q2.16-.9 3.84-1.38 1.68-.48 3.36-.48-.24 1.02-3.09 6.87-2.85 5.85-3.39 6.21-.3.3-1.14.66-.78.3-1.14.6-.36.3-.36.84 0 2.34 1.92 3.63t4.44 1.29q1.62 0 4.35-1.53 2.73-1.53 6.69-4.11l1.8-1.2-.48-.48 1.56-1.02-.72-.42q.36-.12.96-.42t1.08-.3q.42 0 .63.78.21.78.39 2.16.36 2.64.93 4.05.57 1.41 1.95 1.41.6 0 1.32.33.72.33 1.14.33 1.32 0 2.43-1.26t1.11-2.58q0-1.5-1.44-3.81t-3.42-4.05q-1.98-1.74-3.48-1.74-.72 0-1.38.36-.66.36-.66 1.08 0 .54.24 1.26t.3 1.2l-1.56-.36.66-.42-12.54 2.22q1.14-1.68 6-11.28l1.44-2.76q.54-.48 2.19-.81 1.65-.33 4.95-.81 5.34-.72 8.31-1.53 2.97-.81 2.97-2.31l-.06-.84zm52.92 26.22q.18-.78.66-1.38.48-.6 1.38-1.5 1.02-.96 1.56-1.68 1.32-2.04 3.24-7.56 1.92-5.52 1.92-7.74 0-1.98-1.32-3.39-1.32-1.41-3.3-1.41-.3 0-.78.24-.48.24-.84.36-1.5.24-4.5.6-3.6.48-5.34.78-.96.12-2.46.72-1.14.42-1.92.63-.78.21-1.62.21l-.42-.06-.12-.78q.18-.42.48-.63.3-.21.66-.33.36-.12.6-.24l.06.9q.54-.36 1.5-.66 1.26-.54 1.68-.78.66-.42 2.67-2.7 2.01-2.28 3.69-4.53 1.68-2.25 1.68-2.85 0-1.32-1.29-1.98-1.29-.66-2.79-.66-1.68 0-3.33.42-1.65.42-4.23 1.32l-1.44.48q0-.36-.12-1.2-.12-1.32-.12-1.98l.06-2.16q0-2.22-.81-3.33-.81-1.11-3.39-1.11-.72 0-1.2.6t-.48 1.32q0 1.26.6 3.78.66 2.4.66 3.9 0 1.68-1.08 2.34-1.08.66-3.18 1.08-.36.06-.96.21t-1.02.33q-.06 0-.33.12t-.15.48l-.12.48q0 1.08.45 2.01.45.93 1.41.93.72 0 3.24-1.26l1.38-.6q-.06.48-.15 2.7t-.45 4.05q-.36 1.83-1.02 2.13-.42.18-1.02.36-.6.18-1.26.42-4.5 1.38-7.5 2.67t-3 2.61q0 .78.57 1.38.57.6 1.35.6 1.14 0 2.79-.66 1.65-.66 4.29-1.98 3.3-1.5 4.14-1.8 0 3.9-.24 11.7-.24 7.68-.24 11.58 0 1.92.6 3.27t2.04 2.67q.3-.06 1.05-.15t1.35-.27q.42.06.96.06t.87-.21q.33-.21.87-.93.24-.72.24-1.56 0-1.92-.12-4.32-.12-2.4-.18-3.3-.3-4.2-.3-7.5 0-3.24.18-6.48.12-4.32.12-6.48 2.04-.42 4.92-1.5 2.88-.96 4.62-1.41 1.74-.45 3.66-.45.36 0 .81.15.45.15.75.33-.06 1.02-1.65 4.53-1.59 3.51-3.39 6.42t-2.64 2.91q-.3 0-.63-.24t-.69-.54q-1.14-1.02-2.04-1.02-.24 0-.63.03t-.69-.03l-1.26-.54-.36.3q.24.66 4.32 4.65t4.44 3.99l.84-.06.6.54q.66-.18 1.56-.54l.6.18zm2.94-36.18q.18.3.06.63t-.39.81q-.27.48-.27.9 0 2.22.66 3.33.66 1.11 1.71 1.47 1.05.36 2.85.6 2.1.24 3.42.72l.06-1.8q0-2.88-2.52-4.62-2.52-1.74-5.58-2.04zm-10.2 3.6q-1.86 2.4-5.46 7.32l-1.14 1.56q-.3-1.8-.3-4.32v-.54q0-1.14.36-1.74.24-.3 2.91-1.32t3.33-1.14l.3.18zm62.04 20.7q-.54.6-5.1 4.56-5.16 4.5-7.77 6.93-2.61 2.43-2.61 3.21 0 .84.54 1.35.54.51 1.38.51 1.86 0 4.98-1.35t8.04-3.81q.42-.18 2.01-.99 1.59-.81 1.89-.81l.42.06-.42 1.32q-.18.6-.84 2.64.48-.06.87.09t.93.57q.9.72 1.98 1.17 1.08.45 2.94.45.78 0 1.32-.87t.54-1.71q0-1.2-.27-2.46t-.81-2.16q-.42-.72-2.7-2.7-2.28-1.98-2.88-2.04l-.12.36.54.48q-.66.36-.66 1.38 0 1.32-.21 1.95-.21.63-.63.84-.42.21-1.32.39-1.2.3-1.92.54l1.5-.96-.24-.18q-.84 0-1.86.24t-1.92.54q-.96.3-1.95.57-.99.27-1.89.27 3.48-4.2 6.33-7.08t6.27-5.04q.18-.12 1.26-.66 1.5-.78 2.37-1.38.87-.6 1.17-1.56-.3 0-.51-.27-.21-.27-.39-.57-.06-.06-.27-.39-.21-.33-.51-.48-.3-.15-.66-.15-1.26 0-2.91.66-1.65.66-2.07 1.62l-1.08-.48h-.78q.12-1.14.18-2.22.06-1.08.06-1.5.06-2.16.6-2.67.54-.51 2.58-1.05t2.88-.78l-.66-.72v-.06q0-.36.18-.48t.54-.21q.36-.09.6-.21l.24-1.2q-.6.12-1.17-.18t-.69-.36q-.96-.66-1.74-.66-.6 0-1.8.36-.72.24-1.14.3-.06-.9-.03-1.62.03-.72.03-1.2v-1.38q0-3.6-.93-5.94-.93-2.34-3.93-3.72l-.72.54.72.66q-.3.24-.48 1.89t-.36 4.77q-.24 3.48-.45 5.25-.21 1.77-.57 2.07-.36.3-1.32.48-.96.18-2.04.36-2.04.3-3.57.69-1.53.39-2.55 1.17l1.08.36-.48 1.02.06.24q1.8 1.08 4.26 1.08 1.62 0 4.5-.72l.06 2.4q0 1.2-.21 1.74t-.69 1.08q-.06.12-.36.54-.3.42-.6 1.02.72-.12 3.42.72-.48.18-3.84 1.2-4.32 1.26-6.9 2.16-2.58.9-2.58 1.62 0 .3.12.66l-.84.6q-.3 1.02-.3 1.38 0 .66.69 1.05t1.41.39q2.34 0 6.66-1.8t7.92-3.72h.18zm-17.52-16.44q.24-.12.69-.3.45-.18.69-.42.24-.24.24-.66 0-1.2-.87-2.46t-2.16-2.1q-1.29-.84-2.49-.84-.6 0-1.08.3-.48.3-.48.9 0 .6 1.95 3.51l2.19 3.27 1.08-.54.84.18-.6-.84zm-8.76 8.94q.06.42.3 2.16.24 1.74.99 2.88t2.13 1.32l1.5-1.62q0-.72-.78-1.92t-1.83-2.16q-1.05-.96-1.77-.96l-.54.3zM139 52.24l-.18 1.32q-.42 2.28-.42 3.84 0 .9.81 1.62.81.72 1.71.72.6 0 1.17-.57t.99-1.14q.42-.57.54-.75l-.72-.3 3.3-6.48q-.24.18-.63.57-.39.39-.78.69-.39.3-.81.3l-.3-.48-.06-.66q-1.62.9-3.36 2.1l-.36-.84-.9.06zm92.94-10.86l.3-.48v-.3l-.66-1.2.66.06q.78 0 .78-.54l-.06-.6q0-.36.42-.48-.6-.42-1.8-.42-1.8 0-4.74 1.02-1.8.54-2.76.78-.96.24-2.04.24t-.84-.6l-.06-.6q0-1.62 1.2-2.13 1.2-.51 3.54-.75 1.98-.24 2.7-.54l-.42-.78.72-.66q.42 0 .57-.36.15-.36.18-.69.03-.33.03-.45-.24-.78-2.22-.78-1.26 0-2.43.21-1.17.21-2.25.48t-1.44.33q.06-.66.03-1.17-.03-.51-.03-.87 0-1.2.18-1.74-.24-.72 1.44-1.29 1.68-.57 4.32-1.17l1.32-.3v-.18l-.66-.78q.6-.36 1.2-1.2t.78-.96l-.06.24q0 .36.42.48t.54.12l-.42.66q.06.36 1.02.6t1.56.24q1.26 0 2.97-1.59 1.71-1.59 2.97-3.69 1.26-2.1 1.26-3.36 0-1.62-1.65-2.79t-3.27-1.17q-2.64 0-8.64.72t-11.1 1.92q-5.1 1.2-6 2.7.06.6 1.29 1.32 1.23.72 2.31 1.08 0 1.02-.03 1.56t-.03.9q0 .6.27.9.27.3 1.02.87.75.57 1.05.81l.24.06.24-.24q.48-1.14 1.17-3.09t.69-2.43v-.6q0-.9.54-.9.3.9.3 1.02 0 1.62-.27 3.72t-.87 2.52q-.42.24-2.34.72-1.68.36-2.61.69-.93.33-.93.81 0 .78.69 2.31t1.35 1.53q.48 0 2.7-.78l1.26-.42q-.18 2.28-.6 3.33-.42 1.05-.9 1.29-.48.24-1.38.3-.9 0-1.62.3-.72.3-1.38 1.38 1.62.3 3.06.3.6 0 1.29-.21.69-.21.99-.27-.12.3-.39.48t-.69.33q-.42.15-.66.33l1.56.36v3.42q-1.02.48-2.13.72-1.11.24-2.79.48-1.98.36-3 .57-1.02.21-2.04.75.12.6.12.84 0 1.02-.66 1.65-.66.63-1.98 1.35-1.08.72-1.53 1.11-.45.39-.45.93 0 .36.33.96t.33.96q0 .72-.3 1.02 0 .36.84 1.2l-.18.84.42.24q1.44 0 2.28-1.14.84-1.14 1.8-3.42 1.02-2.34 1.86-3.45.84-1.11 2.34-1.11.48 0 .78.96.54 1.5 1.2 2.28.66.78 2.1 1.8.3-.72.72-1.89t.54-1.83q0-.36-.24-.9t-.24-.84q0-.48.48-.69.48-.21 1.02-.21.48 0 .81.54.33.54.39.66.42-.3 1.26-1.02.18.42.75 2.13.57 1.71 1.65 2.61 1.08.9 2.7.9 1.08 0 1.08-1.32 0-2.16-1.44-3.57-1.44-1.41-3.6-1.95 1.2-1.02 3.84-1.89 2.64-.87 4.32-.87 1.32 0 1.74.72zm-7.2-19.02q.18-.18 2.22-2.43t2.4-3.39q.06-.3.15-.9.09-.6.39-1.02l2.7.06.06.18q0 .24-1.14 1.38-1.32 1.38-2.13 2.52-.81 1.14-.81 2.1v.24l.66.6-.54.3q-1.02 0-1.98.18-.36.06-.84.12t-1.14.06zm-20.16-6.12q-.18.54-.18 1.26 0 1.68.69 2.76.69 1.08 2.13 2.46 1.74 1.74 2.28 2.82.84-.6.84-1.74 0-.66-.81-2.64t-1.8-3.66q-.99-1.68-1.53-1.68-.42 0-.93.18t-.69.24zm17.52 2.88q.18-1.56.63-2.19.45-.63 1.89-.69l-2.52 2.88zm9.84 22.26q.78 2.82 2.67 5.49 1.89 2.67 4.29 2.67.66 0 .96-.6.3-.6.3-1.38 0-1.44-1.26-2.97-1.26-1.53-3.06-2.58t-3.18-1.05l-.72.42zm-13.62 18.84l-1.2.36q-1.5.54-2.34.54-.3 0-.75-.09t-.93-.09q-.96 0-.96.9 0 .36.39.81.39.45.45.75.42 1.62 2.34 2.55 1.92.93 3.84.93.72 0 1.62-.36.9-.36 1.38-.48.96-.24 2.88-.24 2.7-.06 4.35-.51 1.65-.45 1.95-1.95 2.22-.72 2.22-2.94 0-.84-1.11-1.41t-2.01-.57q-2.1 0-5.46.54l-1.44.18-.06-1.38q0-1.2 1.05-1.86 1.05-.66 3.09-1.44 1.86-.72 2.34-1.02l-.48-.84h.78q1.08 0 1.5-.36l.24-.6q-.06-.66-2.64-.66-1.14 0-2.88.66-1.8.6-2.76.6-.66 0-1.29-1.65t-.75-1.89l-1.32.6-.72-.6-1.44.18q.3.78.39 1.59.09.81.09 2.01 0 .24-.36.96h-.18q-.48.18-2.88.66-.36.06-1.83.39-1.47.33-2.25.6-.78.27-.78.57 0 .42.36.69.36.27.54.45l.3.06-.06.78.72.12q.66.54.84.96.72.24.84.24.78 0 1.62-.3.84-.3 1.08-.36.72-.36 1.44-.54.12 1.56.24 2.46zm66.72-36.78q-1.62 0-2.73-1.2-1.11-1.2-2.43-3.48-.18-.3-.66-1.14-.48-.84-.96-1.38.24-.48 1.41-1.2t1.65-.72q1.68 0 3.39 1.14 1.71 1.14 2.82 2.88 1.11 1.74 1.11 3.42 0 1.14-1.02 1.41t-2.58.27zm-20.46 6.6q-.3-.06-.96-.48-.66-.42-1.08-.42-1.62 0-2.58-1.02t-.96-2.64q0-1.08.66-1.65.66-.57 1.74-.57 4.14 0 4.5 5.52-.3.18-.63.3t-.51.3q-.18.18-.18.66zm16.56 25.2q1.86 0 3.57-.48 1.71-.48 4.23-1.44 3.78-1.44 5.94-1.74 3.18-.42 8.22-.42 1.2 0 1.5.3.3.3.3.96 0 .48.12.78.12.3.6.48-1.92.54-3.57 1.5t-4.35 2.76q-3.42 2.4-6 3.63t-5.58 1.23q-2.22 0-8.4-1.35t-12.42-3.09q-6.24-1.74-8.4-2.76l.9-.48q-.12-.24-.12-.42 0-.42.3-.72l-.36-.42q.96-.24 1.02-.24.48 0 1.02.12t.78.18q1.2.36 1.8.36l.42-.06-1.44-.48q.12-.12 1.14-.48.96-.3 1.47-.6t.51-.72q0-1.68-.54-3.36t-1.62-4.38q-1.14-2.64-1.71-4.5-.57-1.86-.57-3.66 0-.48.27-.84t.75-.36l.24-.96q.84.18 2.37 3.78 1.53 3.6 2.97 7.92 1.44 4.32 1.86 6l-.54.3q.06.36.15.75t.09.75q0 .6-.48 1.08 4.92.42 10.14.72-1.38-3-1.83-4.83-.45-1.83-.45-4.77 0-.48.12-1.44.12-.84.12-1.38 0-.48-.06-.72-.54.42-1.08 1.14t-.96 1.44q-.96 1.56-1.83 2.4-.87.84-2.25.84h-.36q.18-1.38 1.05-2.67.87-1.29 2.61-3.21 1.56-1.74 2.43-2.94.87-1.2 1.23-2.52.24-.78.39-1.83l.21-1.47.18-1.38q-1.92.24-3.66.24-3.84 0-4.92-1.62l-1.02-.66q1.38-.36 4.14-.96 3.54-.78 5.88-1.38 2.34-.6 4.62-1.5l2.28-.96q1.14-.54 2.76-1.14h.3q.42 0 .81-.06.39-.06.81-.06.24 0 .36.27t.12.57q0 1.14-.87 1.92t-2.25 1.44q.3.54.87 1.32.57.78.75 1.44.18.54.3 2.52.18 2.46.6 3.87.42 1.41 1.56 1.59l.6-.78q.66 0 2.07.54 1.41.54 2.49 1.29 1.08.75 1.08 1.41l-.06.84q0 .18.15.39.15.21.51.57.12.9-3.42.9-.9 0-1.47-.45t-1.23-1.29q-.36-.48-.84-.96t-1.02-.72q0 .42.12 2.1.18 3.24.18 3.78 0 7.14-3.9 7.14-1.38 0-2.88-.84t-1.5-2.1q0-12.48 1.32-20.64-.12.06-1.62.42t-1.5 1.08q-.36.84-.6 4.47t-.24 5.55q0 1.62.36 4.86.06.6.18 2.13.12 1.53.12 2.79 0 .48-.06 1.02t-.06 1.14q0 2.22 1.68 2.22zm87.96 2.88l.96.18q-2.22.12-4.26.48-2.04.36-5.7 1.08-3.54.78-6.09 1.2-2.55.42-5.07.42-3.66 0-7.11-1.23t-8.13-3.45q-2.94-1.38-4.47-1.98-1.53-.6-2.67-.6-.18 0-1.47.93T322 56.83q-1.8.75-4.02.75-.9 0-1.38-.18-.48-.18-.48-.96 0-.3.3-.42t.6-.18q2.46-.78 5.16-3.84-1.62-.84-3.54-2.13t-2.58-2.31q0-.54.42-1.05t.96-.51q1.32 0 3.72.84.9.3 1.83.57.93.27 1.71.27.36 0 1.23-2.28t1.11-3.3l-.12-.06q-.3 0-.72.36t-.84.84q-.9 1.08-1.83 1.71-.93.63-2.19.63-.6 0-1.05-.72-.45-.72-.45-1.38 0-.54.48-1.32t1.38-2.04q1.5-2.22 2.22-3.57.72-1.35.72-2.67-.24.12-.93.54-.69.42-1.29.66-.6.24-1.2.24t-1.38-.51q-.78-.51-.78-1.11 0-.6 1.65-2.01 1.65-1.41 3.63-2.61t2.64-1.2q.78 0 1.56.6t.78 1.38l-.06.36q.12-.06 2.04-.48 2.82-.48 4.53-1.32 1.71-.84 1.71-2.7v-1.98q-.84.3-2.4.3l-2.82-.06q2.4-2.52 4.74-3.18h-.3l.9-.48q.72-1.32 1.2-4.74.42-2.46.54-2.82l.84-.3q1.32 0 2.07 1.14.75 1.14 1.47 3.06.3.78.57 1.35.27.57.57.57 1.02 0 2.82-.6 1.92-.6 2.82-.6 1.08 0 2.37 1.05t1.29 2.07q0 .54-.12 1.2-.12.66-.18.96l1.5-.06q3.84 0 3.84 1.92 0 .66-.84.9t-2.4.36q-1.62.12-2.52.33-.9.21-1.26.81-.36.54-.6 1.41-.24.87-.42 1.41-.66 1.32-2.04 3.18-1.08 1.5-1.44 2.1h.42q1.32 0 1.32.66t-.57 1.11q-.57.45-1.83 1.05-1.68.9-2.58 1.71-.9.81-.9 2.25l.06 1.32q.06.36.06 1.2l1.2-.66q4.86-2.46 5.46-3.18l-.12-.78.48-.18q.72 0 1.29.51.57.51.57 1.23 0 1.38-1.14 2.31-1.14.93-3.48 2.07-1.98 1.02-3 1.8t-1.02 1.8q0 1.56-.24 2.43-.24.87-1.26 1.47.78.54 3.09.81 2.31.27 6.57.51 5.28.24 8.91.66 3.63.42 5.67 1.44l-1.74-.12q.06 0 1.5.42 2.76.54 2.82.96l-.18.3zm-19.2-38.1l-1.32.18q-2.1.3-2.76.63-.66.33-.87 1.08-.21.75-.63 3.69l1.32-.42q1.8-.48 2.4-.84.6-.36.93-1.14.33-.78.93-3.18zm-2.46 6.84q-.42.12-1.38.3t-1.47.63q-.51.45-.51 1.41l.06 1.38q1.38-.24 1.86-.72.48-.48.84-1.56.24-.72.6-1.44zm-13.8 10.68q.18-.84.72-1.38.54-.54 1.5-1.14.9-.66 1.29-1.05t.39-.99q0-.9-.36-2.58-.66.24-1.98.6-2.34.66-3.72 1.26-1.38.6-2.52 1.8-1.14 1.2-1.62 3.24.18.06 1.35.3 1.17.24 2.01.72.84.48.84 1.08 0 .78-.54 1.98t-.66 1.5q-.84 1.62-1.29 2.91-.45 1.29-.45 2.49 0 .72 1.65 1.35 1.65.63 3.87 1.29-.18-.66-.18-1.14 0-.84.39-1.11.39-.27 1.23-.39.84-.18 1.2-.45t.36-1.05q0-.54-.15-1.32t-.21-1.2q-.84.24-1.74.24-1.62 0-1.98-.9 0-.42.45-.84t1.41-1.08q1.08-.78 1.65-1.35.57-.57.57-1.23 0-.36-.09-.87t-.15-.87q-.48.06-1.23.15t-1.23.09q-.54 0-.78-.06zm86.7 7.44q.42-.96.42-2.76 0-2.58-.42-8.97-.42-6.39-1.14-11.88-.72-5.49-1.62-6.33-.6-.54-2.85-1.5t-3.03-.96q-.54 0-.99.42-.45.42-.45.96 0 1.32 2.1 1.74-.06 4.26.12 8.55.18 4.29.42 8.04.24 3.75.3 4.83.9 12.96.9 20.82 0 1.98-2.04 1.98-.6 0-1.35-.18-.75-.18-1.23-.24 1.56 2.16 5.16 3.72.3.72.84.96t1.38.24h.66q.84 0 1.26.18l2.64-4.14-.36-1.86h-.3l.42-.6h.24l-.06-.72-.6.18-.18-1.44q-.24-1.56-.24-2.34 0-.54.24-1.62t.24-1.68q0-.48-.06-1.23t0-1.23l-.42-.54v-.3q0-.24.15-.63t.21-.75l-.36-.72zm-20.52 14.88q.12-.3.78-1.5.96-1.68.96-2.46 0-2.16-.6-6.48-.66-3.84-.66-6.42 0-2.34.12-5.25t.18-4.11q.3-5.22.3-9.3 0-.78-.42-1.68-.42-.9-.6-1.38-.66-.06-1.98-.66-.54-.24-1.17-.45-.63-.21-1.11-.21-1.2 0-4.47.57-3.27.57-6.03 1.35-2.76.78-3.06 1.56-.18.48-.33 1.17-.15.69-.39 1.17-.12.3-.66.87-.54.57-.66 1.05-1.32 4.38-2.28 12.96-.96 8.58-.96 14.16 0 1.44 1.17 2.37 1.17.93 2.67.93.54 0 .75-.48.21-.48.33-1.38.12-1.08.3-1.44l.48-.3q-.06-.36-.3-1.05-.24-.69-.24-1.23 1.32-1.5 5.16-6.48l1.86-2.4q.42 0 .81.18.39.18.51.24.84.48 1.44.48.72 0 1.62-.42.9-.42 1.08-1.02.06.9.3 3 .6 6.24.6 9.36v.36l-.66-.3-1.2.84 1.32 1.2q.06.78 1.35 1.86t2.07 1.08q.24 0 .63-.27t.63-.33l.36.24zm-5.4-20.58l-2.94-2.16q0-.78.21-1.47t.63-1.71q.84-2.04.84-3.12 0-.66-.3-1.38l-.36-.24q-2.04 0-4.5 6.96-.42-.24-1.89-1.11-1.47-.87-2.31-.87-.3 0-.57.87-.27.87-.27 1.29 0 .9.6 1.65.6.75 1.74 1.83.96.84.96 1.08 0 .6-.78 2.13-.78 1.53-1.77 2.79t-1.59 1.26q-.66 0-.66-1.44 0-3.9.51-11.31t1.29-8.67q8.58-2.76 10.08-2.76.9 0 1.26.54t.36 1.5q0 1.32-.06 3.12t-.12 2.76q-.24 3.96-.24 5.94l.06 1.26q0 .6-.18 1.26zm9.42-8.46q-.42 1.08-.87 5.49t-.45 6.15q0 .96.63 2.22.63 1.26 1.59 2.16.96.9 1.98.9.9 0 1.47-1.08t.9-2.04q.33-.96.39-1.14-.48-2.1-.48-4.8l.06-2.7q0-6.6-2.88-6.6-.54 0-.99.3-.45.3-.84.66-.39.36-.51.48zm58.62 16.32q1.2-.24 2.34-1.08.66-.42 3-1.26 2.88-1.02 4.38-1.98t1.5-2.76q0-.18-.93-1.53t-1.68-3.18q-.75-1.83-.75-4.05 0-1.32.18-2.58.66.12 1.5.96.54.48.9.69.36.21.84.21l2.1-1.32.18-.6q0-.9-.57-1.26t-1.77-.6q-1.5-.3-2.31-.9-.81-.6-.81-2.22 0-1.44.33-1.95t1.65-.51l1.38.06q.78 0 1.2-.3l.3-.54.66-.18.48-.84-.06-.6q-.3-.12-1.41-.54-1.11-.42-2.07-.42-.48 0-1.86.54l-.48-.78q0-.3.03-2.25t-.87-3q-.9-1.05-2.64-1.05-.42 0-.66.48-.24.48-.24.96 0 .66.12 1.98l.06 2.04q0 1.32-.24 2.28-.18.66-1.11.99-.93.33-2.49.57-1.8.3-2.73.66-.93.36-.93 1.26 0 .66.51 1.11.51.45 1.17.45.54 0 1.08-.21t1.08-.51q1.44-.66 2.1-.66l.6.72q0 .6-.6 1.26t-1.2.66l.3.54q0 1.08-1.38 2.76-1.38 1.68-2.55 2.85-1.17 1.17-1.41 1.47-.12.36-.66 1.02-.6.84-.6 1.08 0 .66.48 1.08.48.42 1.08.42 1.14 0 2.25-1.32t2.07-3.15q.96-1.83 1.56-3.03 0 .96-.12 2.1-.12 1.14-.18 1.56-.3 1.98-.3 3.6 0 .3.27.48t.57.24q-.66.66-3 1.41-2.34.75-7.56 2.19-6.66 1.86-9.81 2.94-3.15 1.08-3.15 2.04 0 .84.96 1.17.96.33 1.98.33 2.52 0 4.8-.78t5.4-2.28q3.42-1.62 5.79-2.4 2.37-.78 5.13-.78l-.96 1.5q-1.02 1.44-1.56 2.46t-.66 2.28zm-14.82-18.78q.12 1.92.12 5.94 0 2.1.48 3.3.48 1.2 2.16 1.2 2.28 0 3-1.05.72-1.05.72-3.45 0-.36-.09-1.14-.09-.78-.09-1.32 0-1.56.72-1.56.24 0 1.2.48 1.32.78 2.1.78.72 0 1.74-.69t1.02-1.41q0-.72-1.44-1.32-1.44-.6-3.24-.99-1.8-.39-2.64-.39.06-.42.06-1.2 0-.24.06-1.32t.42-2.04q.24-.84.99-1.41t.75-.81q0-.78-1.14-2.13-1.14-1.35-2.58-2.43-1.44-1.08-2.22-1.08-.24 0-.66.3-.42.3-.42.54 0 .12.18 1.38.18.72.18 1.32 0 1.62-.84 2.55-.84.93-2.01 1.35-1.17.42-3.15.9-1.38.24-2.28.54l1.56.36-.72.54.18.48 1.08.42q.72 0 2.28-.36 1.14-.24 1.56-.3-.18.78-.87 1.95t-1.47 2.37q-1.14 1.8-1.71 2.85-.57 1.05-.57 1.71 0 .54.33.87.33.33.87.33t1.26-1.05q.72-1.05 1.68-2.79.24-.42.72-1.2t.72-1.02zm11.16 14.1q-.66 1.02-.96 2.22-.3 1.2-.6 3.18-.24 1.8-.42 2.58l-1.56-1.14q0-.54.36-1.74.42-1.08.42-1.92 0-.48-.39-.9-.39-.42-.93-.42-.6 0-1.23.84t-1.2 1.77q-.57.93-.81 1.35-.78 1.2-2.1 2.43-1.32 1.23-3.36 2.91-1.8 1.5-2.79 2.4-.99.9-1.41 1.68.06.78.93 1.62.87.84 1.98 1.41 1.11.57 1.83.57 1.98 0 3.27-1.53t2.79-4.35l.66-1.32q.36.36 1.44 1.23t1.38 1.65q.06.24.12.57.06.33.18.54.12.21.42.33l-.48-.78q1.32.3 2.28.87.96.57 2.4 1.71 1.56 1.26 2.88 2.04 1.32.78 3.45 1.35 2.13.57 5.19.57 1.02 0 2.7-.12l-.9-.42q.72-.12 3.12-.96 3-.96 3.54-.96.42 0 1.14.12l1.5-.96q-1.62-1.14-3.57-1.71-1.95-.57-5.25-1.23-4.68-.9-7.98-2.07-3.3-1.17-6.48-3.75.66-.42 2.7-1.08 2.7-.9 4.23-1.71 1.53-.81 1.53-2.07l-.78-.36q-2.1 0-3.06.27t-2.1.87q-1.44.78-2.82 1.26-.18-.48-.3-2.52-.18-1.98-.36-3t-.6-1.32zm49.98-4.32q0-.48.09-2.58t.51-3.81q.42-1.71 1.2-2.13.36-.18 1.17-.48.81-.3 1.29-.72t.48-1.02q0-1.14-1.11-1.41t-2.79-.27q0-1.86.3-4.14.24-2.64.24-4.08 0-1.14-.63-1.98-.63-.84-1.71-.84-2.16 0-2.76 1.59-.6 1.59-.6 4.17l.06 3.84q0 1.62-.36 2.46-.36.84-1.44 1.56-1.08.72-3.66 1.98l-.72.36q-.48.24-.84.24h-.48q-.12.48-.42.99t-.48.87q.06.48 1.35 1.2t1.89.72q.42 0 .9-.18.48-.18.9-.42 1.08-.6 1.74-.6.36 0 .54.39.18.39.18.87 0 3.18-2.61 7.26t-5.55 6.6q0 .48.48.69.48.21 1.08.21 1.92 0 3.06-.81 1.14-.81 2.04-1.92.9-1.11 1.26-1.53.18.84.42 4.26.3 5.04.87 8.01.57 2.97 1.89 2.97l1.86.12q1.44 0 2.01-.6.57-.6.57-2.04 0-2.94-1.14-7.98-.54-2.52-.81-4.32-.27-1.8-.27-3.54l.06-1.8 1.2.96q1.02.9 1.68 1.32.66.42 1.5.42.66 0 2.16-.96t1.5-1.56q0-.24-.12-.6-2.76-2.1-4.14-2.1-.48.54-1.44.54-.66 0-1.23-.09t-1.17-.09zm21-9.96q-.06-.72-.06-2.4-.06-3.54-.54-5.67-.48-2.13-2.4-3.03l.06 3.3q0 1.2-.21 1.71t-.81.75q-.6.24-2.28.66l-2.28.6q.42.54 1.08.81.66.27 1.32.27 1.32 0 2.64-.66l.06 1.5q0 .78-1.32 1.89-1.32 1.11-3 2.04-1.68.93-2.46.99l.06-1.38q.12-1.68.12-2.4 0-2.16-.54-3.99t-1.92-3.69q.12.9.12 2.64 0 1.98-.18 4.08-.12 2.64-.12 3.96 0 1.5.3 2.58-.42 0-.84.15t-.42.51v.18q.78 1.14 1.98 1.14 1.56 0 3.3-1.17 1.74-1.17 3.9-3.15.42-.42 1.14-1.02 2.16 4.86 6.78 4.86.96 0 2.91-.66 1.95-.66 3.48-1.65 1.53-.99 1.53-1.95 0-.78-1.59-1.11-1.59-.33-2.79-.33-.36 0-1.08.12-1.56 1.62-4.2 1.62-.6 0-1.08-.3l-.36-.72q0-.42.3-.72t.72-.3q.12 0 .45.12t.45.18q.54-.66 2.16-2.4 2.4-2.58 3.9-4.47 1.5-1.89 1.5-3.03 0-.84-.72-1.38-.72-.54-1.56-.54-.72 0-2.13 2.19t-3.57 6.15q-1.56 2.76-1.8 3.12zm-4.2 29.16q.12.12.48.54.36.42.75.72t.81.36q.36.12 1.23.15t1.29.21q.66.18 1.74 1.02.78.6 1.23.84.45.24 1.05.24 2.16 0 2.88-2.55.72-2.55.72-5.55 0-2.82-.42-5.7-.42-2.88-1.2-7.02-.18-1.2-1.17-1.89t-2.31-.69q-.84 0-1.56.24-.72.24-1.92.72t-1.8.66q.3-.48.87-1.35.57-.87.9-1.62.33-.75.33-1.47 0-.66-.3-1.17-.3-.51-.9-.51l-1.74 2.76q-1.68 2.64-2.85 4.32-1.17 1.68-2.55 3.06-.18.18-.87.66-.69.48-.75.96l.36.24q.3-.06.84-.51t.9-.45q0 1.98-.54 4.92-.48 3.12-.48 4.8 0 1.62.45 3.06t1.65 1.44q.54 0 .99-.21.45-.21.96-.6t.93-.63zm4.38-11.4q0 .42-.6.6t-2.04.36q-2.46.24-2.46.84-1.2 0-1.56-.75-.36-.75-.36-2.07 0-1.74 1.5-2.28 1.5-.54 4.14-.72l1.38-.12v4.14zm-4.5 9.24l.12.3q-1.2 0-1.62-1.86-.42-1.86-.42-3.72l.06-1.14q.42.3.99.75.57.45 1.05.69.48.24 1.02.24 1.02 0 2.13-.39 1.11-.39 1.35-.45l.06 1.62q0 2.1-.48 3.06t-2.28.96l-1.98-.06zm58.32-31.62q0 .48 1.11 1.11 1.11.63 2.52 1.08 1.41.45 1.95.45t.93-.39q.39-.39.66-.84.27-.45.39-.63-.78-1.74-1.95-2.22-1.17-.48-3.39-.6-.84 0-1.32-.06.06-.24.36-1.29t.3-1.89q0-1.5-.42-2.4-.42-.9-1.74-1.38l-.66.18q.06.24.06.72 0 1.5-.84 3.3-.84 1.8-2.4 4.5-1.14 1.86-1.68 2.94-.54 1.08-.54 1.8 0 .66.36 1.17.36.51.96.81.84-.06 2.94-3l2.4-3.36zm4.5-4.2q.36.06 1.56.24 1.2.18 2.22.18 1.74 0 2.88-.9v-.48l.42-.48q0-.84-1.26-1.26-1.26-.42-2.4-.42-1.38 0-2.7.51-1.32.51-2.16 1.47.78.06 1.11.24.33.18.33.9zM562 31.18q1.56-.12 3.39-2.22t3.12-4.8q1.29-2.7 1.29-4.32 0-1.8-.54-2.61-.54-.81-2.28-.81-.48 0-.9 1.44-.42 1.44-.48 1.62-.36.78-2.04 3.42-2.7 3.9-2.7 4.86l.42.72q0 .24.03.87t.18 1.08q.15.45.51.75zm9-12l2.28.18q-.48.54.18.96.66.42 1.71.66 1.05.24 1.53.24.6 0 1.11-.54.51-.54.51-1.14 0-.9-1.05-1.32-1.05-.42-2.07-.42-3.06 0-4.2 1.38zm4.92 5.7l-1.2-.66q-1.08-.6-1.74-.84-.66-.24-1.98-.24-.36 0-.78.12-.42.12-.48.42l.78 1.14-.3.42q.36.24 1.05.84.69.6 1.32.96.63.36 1.17.36.78 0 1.17-.54.39-.54.63-1.14.24-.6.36-.84zm9.66 36.48q6.48 3.06 7.26 3.06 2.46 0 3.3-1.77.84-1.77.84-4.71l-.06-2.64q-.06-.66-.06-1.86 0-9.06-1.41-17.16t-6.21-8.1q-.36 0-.81.21-.45.21-.69.33-.78.24-2.82.36-2.34.18-3.69.51t-2.13 1.29l.66.36-.06.36 1.02-.06-.36.6q1.2 0 2.43-.36 1.23-.36 1.47-.42 2.34-.78 3.9-.78.48 0 .48.78l-.06 10.26q0 6.9.36 11.52 0 .12.18 1.74.06.42.12.96t.06 1.26q0 .84-.18 1.44t-.84.6q-.78 0-1.62-.6.12.66-.48 1.5t-.6 1.32zM574.9 36.52q1.26-.66 1.26-1.44 0-2.04-1.65-3.87t-3.69-2.07q.06.42.3 1.26.3 1.32.3 1.74 0 .18-.03 1.26t.36 1.8q.39.72 1.23.9.18-.06.48-.06.48 0 1.44.48zm-8.7 26.04q1.02-.84 1.02-2.16l-.06-7.38q0-1.8.12-5.52.24-3.06.42-4.8.48-5.04.48-7.62 0-.36-.18-1.17-.18-.81-.12-1.35-1.26.12-2.37 5.61t-1.8 12.24q-.69 6.75-.69 9.21v.3q0 1.38.54 1.62l.72-.12q.72.3 1.92 1.14zm15.48-7.62q.18.36.84.9l1.5-.6q.84-.24 1.26-.42 1.68-.72 1.68-7.5 0-3.96-.81-6.57-.81-2.61-3.51-4.29-1.2 0-2.49.66-1.29.66-3.09 1.86-.3.18-1.05.66-.75.48-1.05.48-.24 0-.36-.51t-.12-.81q-.24.24-.36.84t-.24.84q-.12.3-.51.66-.39.36-.57.6-.84 1.08-1.44 4.68-.6 3.6-.6 5.76 0 1.92.42 3.18.42 1.26 1.74 1.98.84-.06 1.14-.63.3-.57.42-1.5t.3-1.05q.42.12 2.13.54 1.71.42 3.27.42.96 0 1.5-.18zm-1.2-14.82q0 2.58-.39 3.6t-1.47 1.29q-1.08.27-3.9.27l-.12-1.5q0-1.08.99-2.16t2.4-1.8q1.41-.72 2.49-.72v1.02zm-.36 11.4q-.6.12-1.8.48-.24.06-1.17.3-.93.24-1.71.24-.72 0-.72-.9 0-1.08.06-1.68l.06-1.74q1.38-.24 2.28-.42 2.88-.48 3.18-.54l.06 1.44q0 1.62-.24 2.82z"/></svg>