<svg viewBox="0 0 680 80" xmlns="http://www.w3.org/2000/svg"><path d="M44.22 16.8q.84.3 2.4.54 1.62.18 2.76.66.48 1.56 1.02 2.28l.06 1.44q0 1.92-1.08 1.92-.12 0-.6-.12.18.6.18 1.26 0 1.32-.9 2.04l-1.98.3q-2.46.24-3.66.72-1.86.24-4.38 1.2-.36.06-1.71.27-1.35.21-2.43.6t-1.86.99q-2.22.24-3.63-1.65-1.41-1.89-1.77-4.29-.42-.12-.63-.48-.21-.36-.36-.84t-.27-.72q-.42-.48-.48-1.02t0-1.44l1.62-.18q1.8-.24 2.76-.24 1.02 0 1.56.12 1.74-.42 5.1-1.38 5.34-1.56 8.28-1.98zm-.84.78q-.66.42-2.16.54-.18 0-.87.12t-1.23.48l.24.12.06.42 2.4-.6 2.04-.96q-.24 0-.48-.12zm4.38 1.62q.48.54.9.96.42.42.72.78.12-.54-.21-1.23-.33-.69-.39-.99-.72-.3-1.74-.42-.24-.06-.72-.15t-.78-.21l2.22 1.26zm-12.84.9q-.12.12-.24.36h.36l.36-.12v-.3q-.24-.12-.3-.3l-.18.36zm-9.18 1.2q.06.6.39.96t.81.36q.3 0 .72-.3-.48.18-.99-.21t-.75-.93l-.18.12zm23.64.06q-.66 0-.66.6t.6.6l.36-.18q0-.12-.03-.45t-.27-.57zm-22.8 1.98l-.12.3q0 .42.66.84.24.12.24.6 0 .42.12.66l.3-.06q-.24-1.74-1.2-2.34zM48 25.14q-.24.12-.24.3h-.18q-.3 0-.57.21-.27.21-.45.39.18 0 .63-.03t.69-.24q.24-.21.18-.63H48zm-4.56 1.44q-.12.06-.57.12-.45.06-.57.3.24-.06.84-.09t.78-.33h-.24v.06q-.06-.06-.24-.06zm5.34 3.96q1.68-.06 4.5.72 1.56.48 2.94.66 1.2.3 1.74 1.23.54.93 1.14 2.61.06 1.8-1.29 2.97-1.35 1.17-3.15 1.17-.78 0-1.5-.18-1.08-.12-1.56-.12-.6 0-1.26.18-.84.12-1.47.15t-1.05.03q-1.8.06-3 .24t-2.34.78q-.78.18-1.23.42-.45.24-.57.84-.42.36-.66 1.26-.3 1.08-.96 1.56-.78.72-1.41 1.77-.63 1.05-.75 1.23l-1.02 1.56q1.56-.36 2.34-.6 2.16-.54 3.36-.78 1.2-.24 2.52-.18-.3-.66-.3-1.62 0-1.2.6-2.04.66-.42 1.38-.42.78 0 2.34.6 1.68.6 2.46.6 1.98.96 2.94 2.73t1.92 4.83q.42 1.5.78 2.34.3 1.38.3 2.46 0 1.92-.9 3.72-.96 1.08-1.44 1.56l-2.46-.24-2.52-.42q-1.56.06-2.46-.93-.9-.99-1.32-2.25-.42-1.26-.84-3.24-3.12.12-5.97 1.41-2.85 1.29-6.69 3.75l-2.82 1.68-.72.06q-2.1 0-4.05-1.32-1.95-1.32-2.97-3.36-.78-1.14-1.23-1.95-.45-.81-.45-1.71 0-.3.12-.78.24-.54.66-.84.42-.3 1.14-.66.96-.42 1.5-.96.18-.3 1.02-1.14.72-.72 1.08-1.29.36-.57.36-1.23 0-.48-.12-1.56l.24-1.26q-.72.24-1.62.24-1.38 0-2.67-.51t-3.03-1.47q-.42-.18-.66-.6-.24-.42-.42-.84-.06-.12-.27-.6-.21-.48-.57-.72-.36-2.28-.48-3.24.36-.24.99-.99t1.23-.87q2.46.6 5.1.6 2.04-.36 3.33-.69 1.29-.33 2.49-.87 3.48-.72 5.22-1.14 4.56-1.02 7.86-1.59 3.3-.57 6.6-.75zm0 .78q-.3.24-.48.24.6.18 1.32.18.66 0 .96-.06-.24-.24-.9-.24-.6 0-.9-.12zM33.6 33.9q-.54.3-1.44.3-.96 0-1.38.18-.72 0-1.38.24-.66.24-.6.9.9-.3 2.7-.78 1.74-.42 2.76-.84h-.66zM58.14 36q-.3.48-.96.9-.6.42-.9.81-.3.39-.3 1.05h-.24q-.3 0-.63.18t-.51.24q1.5-.24 2.58-1.02t.96-2.16zm-33.42.18q-.66.12-1.98.12l-2.82-.06q-1.14 0-2.28.18.18.3.42.36.24 0 .6.12l.3-.36q.72.6 1.98.6.78 0 1.62-.24.84-.24 1.08-.3.24-.06.6-.18t.84-.18l-.36-.06zm-7.74 1.74q.06.3.03.6t-.03.54q0 1.14.78 1.14-.24-.3-.27-.84-.03-.54-.09-.9t-.42-.54zm30.24.42q1.98.42 2.58.42.54 0 .78-.06-.66.06-1.86-.18-.72-.18-1.5-.18zm-.48.66q-.72 0-1.59.12-.87.12-1.23.18-.36.24-1.32.48-.66.12-1.08.33-.42.21-.72.69 3.18-1.62 7.2-1.5-.24-.06-.57-.12-.33-.06-.69-.18zm-7.62 4.2q-.66.72-.96 1.44.12-.18.48-.45t.48-.45q.12-.18 0-.54zm-12.24 1.08q-.66.84-.66 1.74 0 .24.12.72.12-.42.3-1.14t.24-1.32zm18.48.42q-.72.48-.66 1.14.18.12.48.12.36 0 .84-.3t.6-.36q-.18-.06-1.26-.6zm4.56.96q.84.54 1.59 1.41.75.87 1.41 1.71-1.26-2.4-3-3.12zm-23.58 1.2q.06.24.06.6 0 .84-.42 1.5t-1.32 1.68q-.96 1.08-1.14 1.38 1.26-.54 2.13-1.71.87-1.17.87-2.43 0-.48-.18-1.02zm9.54.96q-.18.48-.78 1.32.48-.3.9-1.32h-.12zm-14.46 5.34q-.9.6-.9 1.5 0 .84.57 1.71t1.47 1.89q-.3-.72-.72-1.44-.3-.6-.57-1.23-.27-.63-.27-1.17 0-.66.42-1.26zm19.74.84q-.42.3-.99.57-.57.27-.75.39-1.68.72-2.4 1.56l2.34-1.2q.48-.24 1.05-.54.57-.3 1.29-.66l-.54-.12zm3 .18q-.54.18-1.92.6t-2.22 1.02l1.38-.36q1.14-.3 1.86-.42.72-.12 1.5 0-.06-.12-.15-.48t-.45-.36zm11.1.72q.36 2.04.36 2.88 0 1.8-.96 3.06l-.54-.12q-.06.36-.3.54-.24.18-.6.36t-.66.36q.48.18.84.18 1.14 0 1.77-1.62.63-1.62.63-2.7 0-.66-.21-1.56t-.33-1.38zm-18.3 2.4q-.3.12-.9.27-.6.15-.9.45 1.08-.3 1.86-.72h-.06zm9.36 1.62q.06.96.9 1.68.84.72 1.8.72.42 0 .6-.06-.3-.12-.69-.36-.39-.24-.72-.33-.33-.09-.69.09l-.12-.42-.18-.3-.36.12-.3-.48q-.12-.3-.24-.66zm74.28-18.96q.3.54.3 1.26 0 .48-.06.93-.06.45-.06.93-.78 4.98-2.94 8.52-.96 1.5-2.34 2.55-1.38 1.05-3.66 2.37l-1.56.96q-.54.06-1.14-.24-.6-.3-.9-.42-1.2.06-2.04-.51-.84-.57-1.98-1.89-1.26-1.5-2.22-2.04-.06.36-.06 1.08 0 .66.12 2.1.12 1.32.12 1.98 0 1.32-.3 2.22-.36.9-.48 2.82l-.12 1.26q-.18 1.2-.87 2.07-.69.87-1.83.75-.78.54-1.44.54-.48 0-.78-.24-.3.48-.78.48-.42 0-.78-.33-.36-.33-.48-.75-.78-2.82-.78-7.2l.06-3.84q0-3.06-.66-5.04-.06-.24-.06-.84 0-.54.06-1.08t.06-1.08q0-1.38-.78-2.04-1.98.78-5.7 3.06l-2.76 1.62q-.96.54-2.13.87-1.17.33-2.31.57-1.68-1.38-2.1-3.3 0-.9.3-1.77t.36-1.05q.48-1.14.6-1.92.18-1.74 1.32-2.31 1.14-.57 2.49-.72l1.89-.21q2.7-.48 4.83-1.14 2.13-.66 3.87-1.74.54-.54.69-1.26.15-.72.15-1.74l.12-1.38q0-.24.21-.9t.21-1.02q0-.42-.42-.78l-1.92 1.56q-.42.24-.96.51l-1.26.63q-.36.12-1.17.6-.81.48-1.29.48t-.84-.3q-1.74-1.38-1.38-4.14.24-.6.48-1.8.48-1.92.84-2.52.54-.66 1.44-.66.72 0 1.14.6.54-.48 1.23-.72t1.77-.48q1.68-.36 2.46-.84.3-.6.33-1.47.03-.87.09-1.29.24-.42.24-.9 0-.6-.45-1.5t-.57-1.26q.12-2.1 1.14-2.94.48.12 1.86.42 1.68.36 2.58.66.54.12.93.48t.75.78q.54.72 1.02 1.02.42 1.68.42 2.22 0 1.02-.48 1.74.48.12.78.12.48 0 .84-.06t.6-.12q.72-.18 1.38-.18.66.18 1.38.18l1.98-.06q1.2 0 1.92.36-.18-2.16-.18-2.64 0-2.7 2.04-2.82.42.24.96.36t.72.12q.9.12 1.35.27.45.15.87.63l.84 1.44q.42.3 1.26 1.02.3 1.2.3 2.22 0 2.4-1.32 4.08-.48.48-1.08.48-.48 0-1.32-.42-.12-.06-.63-.3t-1.05-.12l-.48 1.62q-.72 2.64-1.44 4.41t-2.04 3.21q1.68.54 3.6.9 1.92.36 2.4.42 1.68.24 2.52.42 1.5.96 2.16 3.42zM96.78 15q.3.36.66.36.3 0 .3-.18 0-.24-.9-.24l-.03.03-.03.03zm-1.74.42q-.18.9-.18 1.02 0 .54.36 1.02-.12-.36-.12-.48 0-.36.39-.99t.45-.93q-.12.24-.45.27-.33.03-.45.09zm3.12-.18q.12.3.3.36t.57.03q.39-.03.57.09l-.66-.36-.78-.12zm2.46.78l-.72-.18 1.08.78-.36-.6zm11.7 1.08q-.12.24-.12.42.54-.24 1.26-.24 1.74 0 3.12 1.56 1.38 1.56 1.8 3.48.18-.48.18-.9 0-.84-1.02-1.98-.84-.96-1.08-1.62-.54-.42-1.14-.6-.6-.18-1.56-.3l-1.2-.18q-.12.12-.24.36zm-3.78 4.62q-.06.06-.15.06t-.15.06q.48.12 1.35.3.87.18 1.53.42-.18-.54-.57-.69-.39-.15-.9-.18t-.87-.09l-.24.12zm3.12.6q-.24.18-.24.3 0 .18.3.27.3.09.42.21-.06-.06-.09-.45t-.39-.33zm4.68 2.94q.9.3 1.32-.3.42-.6.66-1.62h-.18q-.12.54-.87 1.05t-.93.87zm-12-.72q-.24.18-.87.33-.63.15-.96.36-.33.21-.33.69.36-.12 1.11-.45.75-.33 1.38-.48.63-.15 1.23-.15-.18-.24-.42-.24-.18 0-.57.06-.39.06-.57-.12zM89.28 25.8l-.42.18h.06q.3 0 .78-.24.48-.24.18-.42-.12.12-.33.24-.21.12-.27.24zm15.72-.18q-.24.18-1.2.51t-1.41.75q-.45.42-.21 1.14-.18 1.5-.18 3.06l.06 3.12q1.08-.42 1.56-1.26.48-.84.9-2.34.36-1.32.66-1.98.66-1.08.66-1.74 0-.84-.84-1.26zm7.68.78q-1.38 2.22-1.74 5.1-.3.48-.96 1.23-.66.75-.9 1.47 2.82-2.7 3.6-7.8zm-21.6 4.8q1.14-.66 2.64-2.4h-.24q-.66.42-1.32 1.2t-1.08 1.2zm4.2-2.28q-.72.24-.72.9 0 .24.15.66.15.42.21.84l.18-1.2.18-1.2zm-9.42 1.74q-.12.72.39 1.53t1.17.81q.54 0 .96-.54-.36.18-.72.18-1.14 0-1.8-1.98zm2.58 1.74l.72-.24q.54-.18.75-.33.21-.15-.15-.21-.96.36-1.32.78zm24.3 4.02q-.48-.42-1.68-.42.24.3.69.42.45.12.99 0zm-25.02 3.72q.24-.06 1.11-.3.87-.24 1.56-.54.69-.3 1.23-.72h-.3q-4.08 1.92-7.86 2.1.6.36 1.2.36.72 0 1.68-.39t1.38-.51zm18.36-1.2h.3q.18 0 .18-.06 0-.12-.84-.24-.06.12-.15.33-.09.21-.21.27l.42-.18q.06.06.15 0t.15-.12zm6.18 1.26q-.18-.48-.69-.66-.51-.18-1.29-.24-.96-.12-1.32-.24 0 .06-.12.18.48.12 1.2.21t1.26.24q.54.15.96.51zm-5.16 7.98q.6.18.93-.12.33-.3.75-1.14.48-.9.78-1.14.3-.66.72-1.26.06-.12.48-.75t.48-1.41q.24-.42.24-.84 0-.84-.99-1.2t-2.07-.24q-2.04.48-3.54.96l-3.48 1.38q.12.6.12 1.98 0 .18.06 1.23t.48 1.89q.42.18 1.05 0 .63-.18.87-.18.36 0 .6.12l1.26.36 1.26.36zm12.12-1.74q.06-.54.18-.93t.18-.69q.48-1.92.48-2.88 0-.84-.24-1.56-.3.36-.3.96 0 .42.09.81.09.39.09.81 0 .42-.12.66-.06.3-.27.96-.21.66-.21 1.14 0 .48.12.72zm-40.14-2.16q.3-.18.45-.45.15-.27.27-.81.12-.54.3-.84-1.02 1.14-1.02 2.1zm21.72 3.24q.06-.18.06-.48 0-.24-.06-.66-.06-.42 0-.66-.3.3-.24.9.06.6.06.9h.18zm-7.14-1.2l-.06 2.28q0 1.68.48 3.06-.12-.84-.12-1.26l.06-1.98q0-1.32-.36-2.1zm-13.26 3.9q1.26.12 2.16-.33.9-.45 1.65-1.08.75-.63 1.17-.93h-.12q-.72.42-2.4 1.14-.48.24-1.11.54-.63.3-1.35.66zm25.14-1.5q.06.42.39.72t.75.3q.48 0 .72-.24l-.06-.36h-.24q-.42 0-.9-.18-.48-.18-.66-.24zm11.82 1.92q.42-.3.66-.93.24-.63.36-.93h-.06q-.18.36-.42.81-.24.45-.54 1.05zm-4.14 3.96q1.32-.6 2.37-1.62t1.71-2.28q-.24.18-1.32 1.26-.72.84-1.35 1.32-.63.48-1.41.54-.42.84-1.17 1.23t-1.95.75l-1.2.36q.48.18.9.18.6 0 1.17-.3t1.2-.75q.63-.45 1.05-.69zm-5.76 1.32l.06-.18q-.36-.18-.75-.45t-.69-.39q.06.54.45.81t.93.21zm-6.12.84q.18-.36.18-.9 0-.36-.18-.72-.12.48-.12.66 0 .36.12.96zm-6.42 8.1q-.06.18-.06.48 0 .48.24.72t.6.24q.24 0 .39-.21.15-.21.09-.57.12-.18-.09-.33-.21-.15-.21.21-.12 0-.24-.15t-.18.03q-.3-.3-.48-.9-.18-.6-.3-.9l-.06.36q0 .36.12.63t.18.39zm60.12-16.74l.72-1.38q-.42 0-1.62.12-1.08.12-1.68.12-1.02 0-1.68-.36-.66-.36-1.02-1.32-.9-.72-.9-1.86 0-.9.6-1.74t1.56-1.14q.42-.18 1.71-.72t2.13-1.38q.36-.48.93-.93.57-.45.69-.57.9-.66 1.41-1.26.51-.6.69-1.38-.6.18-1.26.18-.6 0-1.05-.06-.45-.06-.75-.12-.9-.18-1.74-.18-1.02 0-1.8-.54t-1.56-1.5q.12-1.14 1.98-1.92 1.38-.54 2.61-1.35t3.03-2.25q1.44-1.2 2.22-1.74-.12-.72-.12-1.02 0-.66.06-1.14.06-.48.12-.84.18-1.02.18-1.92 0-1.62-.96-2.64-.06-.72.51-1.26.57-.54 1.23-.54.54 0 .96.42.36.18.78.18 3.36 0 6.24 3.66-.3.42-.42 1.29-.12.87-.24 1.23.84-.42 2.1-.42 1.8 0 3.09.87 1.29.87 1.11 2.49.12 1.32-.84 2.07-.96.75-2.01 1.23-1.05.48-1.35.6-1.8.54-2.94 1.71t-1.26 2.91q.42 0 1.5-.12.84-.18 1.74-.18 2.28 0 2.4 2.1.18 1.26-.45 2.28-.63 1.02-1.41 1.77-.78.75-.96.99-1.5 1.2-2.73 2.64-1.23 1.44-2.97 3.72l-1.92 2.4-.12.24q-.06.12-.18.24l-.42.36-.48-.18-.18.42-.18.42q.36-.06 1.83-.39 1.47-.33 2.58-.9 1.11-.57 1.77-1.47.18.12.42.51t.6.39q-.18.36-.3 1.32-.06.72-.18 1.14-.12.42-.48.84h.18q-.18.12-.45.54-.27.42-.57.48l-1.92 1.44q-3.06 2.28-4.83 3.48-1.77 1.2-3.75 2.28-1.92 1.44-3.06 1.44-1.08 0-1.32-1.26-.72-.84-1.14-2.01-.42-1.17-.42-2.31 0-2.58 2.04-3.54.96-.9 1.98-3.06.12-.18.63-1.17t1.17-1.65l.36.24-.12.48q0 .12-.12.48zm6.18-31.86l-.3.24q.24.3.72.36t.66.12q.84.18 1.59.63.75.45 1.83 1.23.96.72 1.44 1.02 0 .3-.15.99t-.09 1.05q-.06.06.84-1.02.36-.84.6-1.26-.36-.36-1.08-.78-1.2-.6-1.32-1.38-.6-.3-1.32-.42-.72-.12-.9-.12-1.62-.12-2.52-.66zm-17.16 3.54q.9.12 2.58.84l1.26.54q.84.24 1.62.36 1.2.24 1.83.45.63.21 1.17.75.96 1.14.96 2.76 0 1.44-.78 2.79t-2.07 2.13q-1.29.78-2.73.6-.48-.48-1.08-.48-.54 0-1.26.42-.18.06-.69.27-.51.21-.93.15-.48-.3-.48-1.08 0-.36.18-1.11.18-.75.12-1.11-.12-.54-.48-1.29t-.48-.99q-.6-1.14-.93-1.98-.33-.84-.33-1.68 0-.96.54-1.86.36.12.99-.18t.99-.3zm-.18.96q-1.08 0-1.08.6 0 .48.48.87t1.02.27l-.06-.3-.18-.24q.36.42.75.57.39.15 1.05.21.06 0 .57.06t.93.48q1.5 1.14 2.76 1.14.84 0 1.5-.66.12.12.18.12l.18.18q-.12.6-.24.72.18-.06.54-.3-.06-1.14-.9-1.56-.84-.42-2.4-.66-1.2-.24-1.68-.42-.72-.18-1.44-.54-1.38-.54-1.98-.54zm26.1 2.04l-.6.24q.48.06 1.26.03t1.32.18q.54.21.84.81h-.12q0 .42-.42.63-.42.21-.6.33.12.12.18.24l.12.24-.18.42q.18.18.54.18h.54q-.06.18-.27.42-.21.24.03.48.72 0 1.11-.57.39-.57.21-1.29.24-1.2-.69-1.68-.93-.48-2.55-.84l-.72.18zm-11.04 4.02q-3.18 2.88-7.08 4.62.06 0 .33.06t.45.3q.36-.42.93-.66.57-.24 1.17-.42.18-.06.72-.21t.9-.45q2.22-1.5 2.58-3.24zm-14.4 1.62q-.18.06-.21.36t-.03.42q.36-.12.48-.36t-.24-.42zm1.86 1.32q-.66.3-2.1.3v.42q1.32-.12 2.1-.72zm6 2.46q-.36 0-.54.06.36.9 1.92 1.02l-.18-.18.12-.3q-.18-.12-.66-.27-.48-.15-.66-.33zm17.28 1.98q-.48.18-1.62.3-.6.06-1.14.15-.54.09-.84.39.6-.12.9-.12.36 0 1.14.12.78.12 1.2.12.9 0 1.62-.54l-.54-.3q-.24 0-.72-.12zm-30.6 1.08q.96.24 2.76.96 1.5.6 2.55.93 1.05.33 2.19.39.78.54.78 1.68 0 .96-.54 1.86-.3.78-1.26 1.98-.84 1.14-1.02 1.44-.48-.24-1.08-.24-.36 0-1.68.3-1.2.36-1.74.36-.42 0-.6-.06-.96-.54-.96-1.68 0-.3.12-.78-.3-.18-.21-.57.09-.39.03-.51.18-.3.18-.48 0-.48-.6-1.32-.06-.18-.36-.66-.3-.48-.3-.9 0-.36.18-.6h.6l-.06-1.02q0-1.32 1.02-1.08zm.6 1.02q.12 1.14.96 1.86.84.72 2.04 1.02l.24-.18q.06 0 .18-.12-.12-.12-.12-.3 0-.36.36-.42-.48-.6-2.1-1.14-.24-.12-.75-.33-.51-.21-.81-.39zm31.32.54q-.3.24-.6.9t-.54.9q.18-.18.51-.48t.48-.63q.15-.33.15-.69zm-26.04 1.26q.18.24.72.72t.66.9q.12-.18.12-.48 0-.48-.48-.81-.48-.33-1.02-.33zm-.24 3.18q-.06.48-.48.96t-.48.66q.3-.12.63-.54.33-.42.51-.54l.24.12q.18 0 .18-.18t-.18-.39q-.18-.21-.42-.15v.06zm5.58.66q-.48.6-.48 1.32 0 1.08.81 1.98.81.9 1.83.9.36 0 .54-.06-.18-.36-.66-.48-.48-.12-.72-.24l.06-.3q-.12-.12-.36-.24.12-.9.06-1.32v-.06q0-.3-.15-.39-.15-.09-.51-.12t-.48-.21l.06-.36.18-.24-.18-.18zm-2.82.06q.12.24.12.6 0 .54-.6 1.5-.6.72-.66 1.26l.3.12q.24-.24.3-.36.42.48.42 1.14 0 .66-.39 1.44-.39.78-.51 1.14-.12 1.56-.6 4.98l-.42 3.18q-.42 3-.78 4.92-.36 1.92-1.02 3.72-.96 1.32-2.88 1.32-.84 0-1.86-.3-1.5-.72-1.98-2.25t-.6-3.81q.18-3.54 2.7-6.66.3-1.5.66-2.49.36-.99 1.14-1.77.18-.36.51-.6t.69-.24q.24 0 .54.18.96-1.08 1.83-2.4.87-1.32 1.05-1.62 1.32-2.04 2.04-3zm-8.1 1.08q-.06.06-.06.24 0 .3.24.51.24.21.54.21.3 0 .48-.18-.06-.36-.36-.51-.3-.15-.84-.27zm29.82 1.38q.54.18 1.41.57.87.39 1.59.6.72.21 1.44.21.48 0 .72-.06.84.3 1.29 1.05.45.75.39 1.65.3 1.32.3 2.4 0 .78-.18 1.5.06 0 .3.12l.24.12q0 1.86-.72 3.6t-2.1 3.12q-.12-.06-.42-.06-.24 0-.36.06-1.5 1.2-3.12 1.2-.6 0-1.26-.18-.66-.42-.66-1.26 0-.3.15-1.11t.09-1.17q.12-.3.12-.9 0-.66-.06-1.11-.06-.45-.12-.81.06-.6.18-1.41.12-.81.12-1.35 0-.84-.3-1.44.06-.24.06-.6 0-.66-.3-1.2-.3-.54-.84-1.2.96-1.68 2.04-2.34zm-14.4.96l-1.32.66q.3-.06 1.14-.06.84 0 1.32-.27.48-.27.24-.87l-1.38.54zm14.34.06q-.24.24-.3.57-.06.33.24.45l.36-.36.06-.42-.36-.24zm4.44 1.08q.24.42.75.54.51.12.63.12l-.54-.42-.84-.24zm-31.74 3q-.48.48-.48.96.3-.18.72-.96h-.24zm8.58 4.86q-.48.78-.48 1.8 0 .96.33 1.86.33.9.78 1.77t.69 1.29q2.4-.72 3.42-1.74h-.54l-.24-.42.36-.6-1.14.54-1.14.54q-.12-.24-.42-.6t-.3-.72q-.36-.12-.51-.54-.15-.42-.24-.84t-.09-.6q.06-.18.06-.6 0-.78-.54-1.14zm-11.52 1.02q-1.26 2.04-1.56 4.32.54-.9.96-2.28.54-1.5.84-2.04h-.24zm20.76.66l-1.08.54q1.44.3 2.28-1.02l-1.2.48zm-15.12 1.26q-.3 1.2-1.38 3.78-.18.42-.57 1.41-.39.99-.63 1.83l1.05-1.83q.81-1.41 1.2-2.7.39-1.29.33-2.49zm24.84.3q-.3.42-.3.84 0 .54.36.93t.9.33q.9-.18 2.58-1.14-.6-.36-1.68-.36-1.32 0-1.86-.6zm-32.04 2.22q0 .12.06.18h.18q-.18.78-.18 1.8 0 2.46 1.38 3.6.36.36.66.36.48 0 .72-.54t.12-1.14q-.06.06-.42.6l-.42.54q-.72-.42-.72-1.2 0-.36.15-1.05.15-.69.15-.99 0-.84-.45-1.41t-1.23-.75zM239.76 35.4q.12.24.48 1.08.36.84.24 1.56-.24.12-.36.12 0 .06-.18.24.06.06.18.42v.42q-.24.06-.63.09t-.6.09q-.21.06-.33.42-.06.3-.18.96-.12.66-.48 1.02-.42.24-1.38.24-.66.06-1.02.15t-.72.51q-.48.24-.96.24t-1.32-.24q-.84-.24-1.26-.24-.18 0-.66.12-.42.18-1.38.18-.42 0-1.38-.12-1.2-.12-1.8-.06-.24-.12-.72-.12-.42 0-1.26.24-.96.3-1.62.24-.48-.24-1.08-.24-.96 0-1.8.54-5.16.72-8.82 2.04l-1.26.18q-.36.06-.9.12t-1.26.06q-1.26 0-2.46-.42-.3-.12-.6 0t-.66.42q-.36.3-.66.3-.3 0-.6-.24-.24.9-1.08.9-.84 0-2.1-.84-.42-.3-.81-.75-.39-.45-.69-.93-.36-.72-.9-1.26-.96-.78-.96-1.74 0-.54.33-.93t.93-.57q.54-.24 1.08-.78.36-.3.78-.57.42-.27.78-.27.42 0 .6.12v-.06q.66.18 1.2.18 1.14 0 2.64-.54.6.06 1.8-.06l1.32-.06q1.14 0 1.86.3 1.62-.18 4.2-1.32.36-.12 1.44-.54 1.08-.42 1.98-.6.96-.3 1.68-.48 1.14-.3 1.86-.57.72-.27 1.38-.75 1.62-.12 3.48-.51 1.86-.39 2.28-.51 3.48-.84 5.82-1.08l1.98.66q1.98.48 3.12 1.14 1.14.66 1.44 2.1zm-6.48-3.42q.96.72 2.58 1.38 1.38.6 2.16 1.08.78.48 1.32 1.38-.3-1.26-1.23-1.86-.93-.6-2.67-1.2-1.26-.42-1.98-.78h-.18zm-.78.42q-.36.18-.54.36.84.06 2.16.66 1.08.48 1.62.6-.84-.3-1.8-.84-.54-.36-1.44-.78zm-4.86.78v.18q.18-.12.48-.12h.33q.21 0 .39-.06-.12.06-.21-.09t-.21-.21q-.12.06-.33.21-.21.15-.45.09zm-5.7 1.08q-.66.3-1.5.57-.84.27-1.2.39-1.5.42-2.34.78.72-.18 1.86-.42 1.14-.18 1.95-.45t1.41-.87h-.18zm-21.66 3.78h-.06.06zm3.96.12q-.06.18-.33.18t-.27.12q.72.3 1.56.3 1.02 0 1.38-.6l-1.2.18-1.14-.18zm-3.6 1.2q1.56-.12 2.4-.12 0-.24-.21-.33-.21-.09-.36-.12t-.21-.03l-.18.12-.06.3q-.18-.24-.63-.15t-.63-.03q-1.62.18-2.64 1.32.24-.12.66-.39.42-.27.84-.21l-.06-.12q.24 0 .3.06l.36-.12.06.24.24-.12q.06-.06.06-.15t.06-.15zm36 1.74q.12.12.36.12.36 0 .54-.45.18-.45.12-.81-.18.12-.33.12-.15 0-.27.06-.12.36-.12.48-.12 0-.18-.06l-.18-.06q.24.06.15.27-.09.21-.09.33zm-40.2.18q.12-.18.48-.24t.48-.24h-.06q-.42 0-.3-.6-.36.12-.57.54-.21.42.03.78l.36.12.24-.18-.12-.3-.24.06q-.18 0-.3.06zm32.76.54q.12.06.3.06.42 0 .6-.3-.54-.06-1.32-.18t-1.32-.12q-.3.12-.51 0-.21-.12-.57-.57-.36-.45-.78-.39-.48.12-1.44.48-1.08.42-1.38.48v.18q-.24 0-.69.27-.45.27-.81.27.54.3 1.2.3.48 0 1.56-.24.96-.24 1.5-.24.66 0 1.2.24.42.06 1.02-.15.6-.21.9-.21.18 0 .54.12zm4.92.24q.36-.18 1.05-.57.69-.39.99-.75l-.18-.18-.24.36-.3-.06q-.12.12-.12.3-.24-.12-.3-.12-.12 0-.3.12t-.3.18l.18.36-.24-.12-.06-.24q-.36.3-1.02.3-.3 0-1.05-.15t-1.17-.03q.3.12 1.05.45t1.29.33q.36 0 .72-.18zm-30-.18q.18.18.39.3.21.12.39.24.6.12 1.02.24-.24-.3-.9-.42t-.9-.36zm15.84.48q.18-.18.51-.21t.45-.15q-.12.12-.42.12-.18 0-.48-.09t-.48-.03q-.84.48-2.7.84-1.32.24-2.22.6 2.46-.48 2.64-.54l2.46-.66q-.12.24-.18.24l-.18.24q.3-.18.9-.42l-.3.06zm-14.22 1.26q-.42 0-.57.21-.15.21-.27.57.12-.12.57-.3.45-.18.63-.3t-.36-.18zm-2.82 1.5q.9.18 1.5-1.32h-.18q-.18.54-.69.9t-.63.42zm2.58-.48q.36 0 1.32.24.96.24 1.44.24.78 0 1.2-.48l-1.44-.18.06-.12q0-.18-.24-.24t-.36-.12q-.24.06-.51.12t-.51.18l-.96.36zm102.72 7.2q.42.78.42 1.62 0 1.68-1.47 3.24-1.47 1.56-3.21 2.16-.06-.18-.3-.42v-.66q-.54 0-1.26.72-.66.78-1.26.72-.36.12-.66.12H300q-.48 0-.72.12-.66 0-1.14-.06-.48-.06-.84-.12-1.2-.24-1.8-.24-1.08 0-2.52-.66-.3-.54-.75-.84-.45-.3-1.17-.66-.12-.06-.84-.48t-1.14-1.14q-2.58 2.7-4.17 4.05-1.59 1.35-3.69 1.89-.48-.36-1.11-.48-.63-.12-.75-.12-1.44-.12-2.04-.78.6-1.38.6-3 0-.54-.12-1.62.24-.54.66-1.2.42-.66.6-1.08.12.12.45.63t.72.84q.39.33.87.39l.96-.54q.24-.18.45-.36.21-.18.45-.36-.9-.3-2.58-1.02-.42-.18-1.32-.51-.9-.33-1.62-.57-.48-.24-.48-.66 0-.3.3-.6t.66-.42q1.14-.36 2.37-.63 1.23-.27 2.25-.27 1.44 0 2.52.54.96-.3 1.38-1.02.42-.72.78-2.04.42-1.32.66-1.74-.48.24-2.04 1.56-1.26 1.08-2.19 1.65-.93.57-1.89.57-.96 0-1.86-.72-.18-.54-.18-1.14 0-.78.27-1.74t.33-1.26l-.6.42-.54-.06q-.06-.72-.9-.84-.48-.12-.72-.27-.24-.15-.3-.57-.3-.78-.3-1.86 0-.9.12-1.38 1.08-1.68.96-3.72.3-.72.9-1.5.72-1.14.84-1.5-.24.06-.72.06-.9 0-2.28-.54-.36-.12-1.5-.42-.48-.42-.48-.96 0-.3.15-.9.15-.6.15-.84.3-1.26.84-2.37t1.5-2.85l1.14-2.1q.9-1.26 1.92-3.6 1.14-2.58 2.16-3.9 1.38.24 1.92 1.44t.48 2.76l-.54 1.62q-1.02 3.36-2.04 5.28h-.36l-.24-.24-.24.48q0 .12-.12.48 3.36-.9 5.28-1.92.24-.54.93-1.08.69-.54.93-.9.24-.42.24-.78 0-.36-.36-.99t-.48-.93q-.06-1.14.87-1.71.93-.57 2.01-.39 1.32.42 2.25 1.29.93.87 1.68 1.83.75.96 1.05 1.32.72 1.32.72 2.4 0 .3-.12.9l-.3 1.44q-.12.18-.27.42-.15.24-.33.54-.24.06-.57.12-.33.06-.54.18-.21.12-.33.42-.72-.24-1.74-.42-.06-.6-.15-.9-.09-.3-.51-.48-.36-.72-.78-1.68-.6-1.44-1.02-2.1.06.24.06.66 0 1.2-.57 2.19t-1.2 1.77q-.63.78-.81 1.02-.36.66-1.62 1.14-.66.3-1.05.57-.39.27-.51.69.12.84.24 1.32.3 1.26.24 2.1.84-.3 1.56-.78.72-.48 1.74-1.32 1.38-1.14 2.37-1.71.99-.57 2.13-.57.66 0 1.26.18 3.48-.24 4.2 1.98-.18 1.2-1.2 1.8-1.02.6-2.34.6l-1.38-.06q-.6 0-1.02.18-.3.06-.51.03-.21-.03-.39-.03-.54 0-.9.15t-.54.57q-.18 1.02-.63 1.86-.45.84-1.23 2.04l-.78 1.2 1.38-.6q1.14-.48 1.89-.75t1.47-.27q1.38 0 2.28 1.2.3 1.2.3 2.28 0 1.98-.72 3.96t-1.92 3.6q.6 0 1.38.24.78.24 1.44.54 1.74.78 2.94.84.72.06 2.16-.06l1.56-.06q.54 0 1.02.06t1.02.06q.54 0 1.38-.12.96-.12 1.32-.12 1.56 0 2.22 1.26zm-17.88-34.2q-.12.12-.51.18t-.39.3q1.26-.18 1.14-.48v.06q-.12.06-.15 0t-.09-.06zm.66 1.14h-.06q.18.24.6.72t.9.66q-.42-1.26-1.44-1.38zm-17.94 17.28q0 .42.54 1.08.54.66.54 1.2 1.14 3.18 1.14 6.72 0 2.52-.6 5.64-.18.96-.27 2.16-.09 1.2-.15 1.68-.12 1.92-.3 3.15t-.6 2.49q-.54.54-1.26 1.98-.48.96-.78 1.44-1.68 1.14-3.54 1.14-.96 0-1.56-.3-.9-.54-2.52-.9-.96-.18-1.86-.54-.54-.06-.84-.3-.3-.24-.84-.84-.54-.66-1.08-.96-.3.24-.6.24t-.81-.33q-.51-.33-.75-.45l-1.02.72q-.24.06-.54.21-.3.15-.66.27-1.74-1.86-1.74-3.36 0-1.02.9-1.8l1.02-1.62 1.08-1.08q3.42-1.92 6.15-4.95 2.73-3.03 5.79-7.41-1.08.54-2.1 1.59t-1.32 1.35q-.3 0-.84-.12t-.78-.12q-.24 0-.6.12-.78-.12-1.23-.72-.45-.6-.39-1.38-.3-3.78-.3-6.78 0-3.42.42-6.36-.6.12-1.02.12-1.38 0-2.49-.57-1.11-.57-1.11-1.59 0-.66.36-1.26.42-.6 1.08-.84.66-.24 1.47-.39.81-.15 1.35-.27l2.4-1.44 2.76-1.62q1.26-1.32 3.48-1.32 1.56 0 2.64.78t1.08 2.16q0 .54-.18 1.2-.06.48-.06 1.44l.06 3.96q0 2.16-.42 3.84-.42 1.68-1.62 2.94.6.24.96.3l.96.12q.24-.12.42-.12l.18-.3zm-3.6-15.6q-1.08 0-2.04.48t-2.34 1.44l-1.38.96q.84-.54 2.16-1.14 1.26-.54 2.52-1.26.12 0 .27.06.15.06.33.06l.42.18q.6 0 .93.27.33.27.78.81t.75.78q.12-.36.12-.6 0-.84-.81-1.44t-1.71-.6zm26.28 3.6q0-2.16-1.38-3 .54.54.84 1.5.3.96.54 1.5zm-7.08-.42q-.12.24-.12.69 0 .45.18-.03.06-.12.15-.27.09-.15.06-.24t-.27-.15zm-21.9 12.96q-.24-.3-.45-1.02-.21-.72-.51-1.08.24-.06.42-.39t.33-.54q.15-.21.51-.15l.48-2.04q.24-.78.36-2.28.06-.42.12-.99.06-.57.06-1.35 0-.84-.18-1.56-.84.3-1.56.78-.72.48-1.44 1.08-.72.6-1.2.96 2.04 3.78 2.04 7.38 0 .96-.18 1.86.18.24.54.24.36 0 .57-.27.21-.27.09-.63zm-9.3-10.62q-.42.48-.42.9 0 .6.75.93.75.33 1.71.33 1.38 0 1.92-.6-.3-.12-1.32-.84-.72-.6-1.44-.84-.18.06-.54.21-.36.15-.66-.09zm18.78 1.62q-.06.3-.24.99t-.18 1.17q0 1.2 1.32 1.2-.42-.42-.48-1.05-.06-.63-.06-.75t-.06-.63q-.06-.51-.3-.93zm-13.38 1.02q0 .48.27.84t.39.48q-.06-.18-.18-.69t-.48-.63zm15.18 12.6q.78-1.62 1.62-5.1.42-1.8.78-2.94-1.86 1.86-1.62 4.08-.36.66-.69 1.62-.33.96-.33 1.8 0 1.5 1.32 1.5.06-.06.18-.27.12-.21-.06-.39-.12.06-.42.06-.54 0-.78-.36zm6.12-3.54q.12-.06.24.09t.18.15q.42-.48.78-1.14.18-.24.84-1.14.66-.9 1.44-1.62 0-.12-.3-.12-3.18.84-3.6 4.08.06-.06.21-.12t.21-.18zm7.14 1.38q-.18.06-.27.12-.09.06-.15.12.3.12.84.27.54.15.84.45.24-.24.3-.24l.18.48.36.36q0-.84-.63-1.23t-1.47-.33zM267 40.8l.54-.36q.36-.24.54-.48.18-.24.12-.54-.12.12-.57.54-.45.42-.63.84zm2.22-.66q-.06.12-.36.42t-.12.42v.06q.36 0 .66-.9h-.18zm17.16 1.2q1.8-.9 2.1-1.08h-.18q-.24.18-.96.42t-.96.66zm-24.78.48q-.06.18-.06.48 0 1.14.96.96l-.9-1.44zm-1.8 17.28q.9-.24 2.88-.36 2.64-.18 4.14-.72 1.5-.54 2.1-2.4.54-4.68.78-7.05t.18-5.01l-2.52 3.66q-1.74 2.4-3.51 4.98-1.77 2.58-3.09 4.86-.12.18-.48.57-.36.39-.48.75t0 .72zm21-13.2q-.18.24-.18.66 0 .3.12.51.12.21.36.21t.48-.18h-.06q.06-.12.06-.3 0-.54-.78-.9zm1.8 3.96q.36-.06.36-.12-.18-.06-.63-.06t-.81-.06l-.54.12q0 .06.66.06t.96.06zm24.66 4.62q.42-.48.42-1.14 0-.66-.45-1.17-.45-.51-1.17-.57-1.62.24-3.54.24h-1.38q-.48 0-1.17-.03t-1.59.03q.96.12 2.88.24 2.4.12 3.6.3.84-.12 1.26-.12.72 0 1.08.42-.24.42-.24.96t.3.84zm-53.16 4.5q.78-1.74 3-4.32l1.2-1.5q-2.1 1.44-3.3 2.79-1.2 1.35-.9 3.03zm45.36-.54q.48.12.6.12.42 0 .66-.15.24-.15.24-.33 0-.36-1.02-.36v.06q-1.62-.18-2.97-.57-1.35-.39-3.27-1.11-2.64-1.02-3.84-1.32.24.54.66.84.42.3 1.17.63t1.05.57q.54.9 1.8 1.2 1.26.3 3.3.36l1.62.12v-.06zM280.62 60q.36.12.54.12.66 0 1.47-.57.81-.57 1.23-.81-1.74.6-4.62.48-.06-.06-.06-.18t.12-.33q.12-.21.18-.39-.54-.3-.66-.3-.06.36-.48 1.5.36.12 1.14.21.78.09 1.14.27zm-17.28-.6q1.8.18 2.04.18 1.92 0 2.64-1.26-1.68 1.32-4.68 1.08zm5.76 4.2q.18-.06.51-.12t.57-.18q.24-.12.36-.36-.24.12-.72.27-.48.15-.72.39zm-1.68.18q.36.12.51-.12.15-.24-.27-.3-.18.06-.42.12t-.3.12q0 .12.48.18zm93.96-22.62q.18 1.5-.63 2.52t-2.43 2.28q-1.38 1.02-2.16 1.86-.78.84-1.02 2.04-.24.3-1.14 1.62-.66 1.14-1.26 1.83-.6.69-1.44 1.11-.78.18-1.56.18-1.86 0-3.51-.99-1.65-.99-2.55-2.67-.36-.78-1.32-.78-.78 0-1.86.48l-1.68.72-1.44 1.08-.18-.18q-.72 1.38-1.8 2.4t-2.94 2.4q-2.16 1.56-3.18 2.64-1.26.96-2.94.96-2.28 0-3.06-1.86-2.82-2.1-3.54-6.42-1.2-4.38-1.2-7.44 0-2.7.78-4.56.54-.96 1.32-1.68t1.56-.72q.24 0 .6.12.72-.36 1.44-.36t1.41.39q.69.39 1.11 1.05 1.56 1.92 1.56 3.18 0 .84-.54 1.44.06.3.24 1.62t.06 2.52q1.02.06 1.95-.63.93-.69 1.53-1.65.06-.42.06-1.2l-.06-2.34q-.42-.84-.42-2.16 0-.18-.06-.84-.06-.66-.3-1.14-.42-2.04-.42-4.44 0-1.02.12-3.06.12-.48.3-1.47t.48-1.74q.3-.75.84-1.29.66-.66.66-1.5 0-.6-.3-.96-.18-.84-.18-1.56 0-.9.24-1.56.3-.24.72-.45.42-.21.6-.33.84-.36 1.2-.66.96.12 1.32.24 1.2.24 1.8.24.66 0 .96-.12l.84.78.42 1.08q.24.42.63.78.39.36.57.54 1.38 1.02 1.5 2.04l-.06.6q0 .66.18 1.32.12.84.12 1.26 0 .78-.3 1.32-.12.36-.27.75-.15.39-.33.93-.24.54-.6 1.62l-.42 2.7q-.6 3.12-.6 4.68 0 1.14.3 2.52.24.06.72.06.96 0 2.88-.6 1.08-.36 2.16-.54 1.44.12 2.25-.84t1.29-2.07q.48-1.11.66-1.47.9-2.52 4.62-2.52.72 0 1.92.12 1.56.54 2.25 1.92t1.05 2.85q.36 1.47.48 2.01zM336.9 20.82q1.44-.06 2.34 1.05.9 1.11 1.98 3.15-.06.6.06 1.38.12.78.18 1.32.06.18.06.48t-.06.63-.06.63q0 .42.12.6.96-.9.96-2.52 0-.84-.24-2.28.06-.84-.33-1.41t-1.23-1.41q-1.5-1.26-1.68-2.4-.54.24-1.2.24-.78 0-2.34-.6-.3.18-.93.48-.63.3-.99.6.6.12.84.12.42 0 .87-.09t.93-.09q.24 0 .72.12zM331.56 30l.72-3.06q-.66.24-.84.72-.18.48-.18 1.08 0 .6-.06.9.06.48-.06 1.26t-.12 1.32q0 .3.12.9.24-2.04.42-3.12zm6.84 6.36q0 .36.06 1.59t.42 2.16q.36.93 1.02 1.59-.36-3-.48-4.5.12-3 .24-4.56h-.54q-.3.66-.54 1.44-.24.78-.24 1.5 0 .54.06.78zm13.8.78q.54.18 1.14.18 1.14 0 1.95-.63t.57-1.71q-1.8.06-2.82.42-1.02.36-.84 1.74zm5.94-1.62q-.06.24-.36.72t-.36.78q1.02.36 1.68 1.17.66.81 1.2 2.01l-.36-1.26q-.3-1.26-.66-2.07-.36-.81-1.14-1.35zm-36.48 13.14l.18-.06q-.06-.6-.06-1.86 0-5.1 1.98-7.98l-.3.06q-.06.12-.06.3l-.42-.18q-.42.36-.51.78-.09.42-.15 1.26 0 1.02-.3 1.68-.06-.06-.24-.06l-.06-1.68q0-1.38.24-2.4-.84.24-.84 1.08 0 .36.09.75t.09.81q0 .54-.24.84l-.06 1.26q-.12 1.92-.12 2.82 0 2.22.36 4.5-.06-.54.15-1.2.21-.66.27-.9v.18zm-2.4-4.02q-.18 3.9 1.2 7.14-.36-2.88-.36-5.7 0-2.04.24-6.24-1.14 1.02-1.14 3.18 0 1.08.06 1.62zm38.58.66q1.14-.9 1.92-1.74t.78-1.68l-.12-.48q-.18.9-.63 1.59-.45.69-1.05 1.32-.6.63-.9.99zm-36.18 3.18q0-.12.06-.18l-.06.18zm22.2.9h-.06q.24-.54 0-.66-.36.36-.36.54 0 .24.42.3v-.18zm-2.94.24q.18-.12.48-.15t.54-.15q.24-.12.06-.3-.9.42-1.08.6zm6.6 3.9q.84.42 1.86.42 1.38 0 2.4-.72t1.26-2.04q-.18.24-.84 1.05-.66.81-1.5 1.23-.18-.24-.3-.24t-.39.15q-.27.15-.45.15-.3.06-.72-.03t-.72-.09q-.42 0-.6.12zm-1.5-.66l1.14.6-.18-.3-.18-.3q-.06.06-.24.06-.3 0-.6-.51t-.66-.57l.72 1.02zm-10.98 1.26l1.02-1.44q-.42.36-.99.78-.57.42-.93.84-.36.42-.48.96l1.38-1.14zm-12.54 1.44l.06-.54q0-.3-.12-.57-.12-.27-.36-.21v.18q0 .72.42 1.14zm1.68 2.28q-.24 1.02.48 1.56t1.8.54q1.38 0 2.1-.72-.72-.12-1.38-.3-.66-.18-1.2-.48l.12-.24-.06-.18q-.18.06-.54.06-1.44 0-2.46-1.5.3 1.08 1.14 1.26zm92.4-19.08q.06.42.06 1.26 0 2.4-.78 4.62t-2.28 4.02q1.32 1.56 2.1 3.42.78 1.86.78 3.78 0 .48-.12 1.32-1.2.48-2.43.63-1.23.15-2.91.15-1.8.06-2.94.21t-2.28.57q-.66.24-1.44.24-.6 0-1.02-.06-.42-.06-.66-.12-.18 0-.6-.09t-.72-.09q-.36.06-1.11.18-.75.12-1.35.12-.54 0-.78-.06-.12.36-.54 1.5-.42 1.14-1.08 1.83-.66.69-1.56.69-.6-.18-1.26-.54-.78-.48-1.44-.6-1.14-1.86-1.62-3.96-.48-2.1-.9-5.46l-.18-1.56q-2.22 3.3-5.4 5.88-.36.42-.81.84-.45.42-.87.42-.3 0-.6-.3-3 3.12-5.94 2.88-.6-.18-.9-.57-.3-.39-.6-1.17-.06-.12-.27-.69-.21-.57-.69-.93.06-.84.39-1.65.33-.81.99-2.01.78-1.26 1.08-2.1l.78-1.14q.12-.24 1.56-2.28.18-.18.42-.39.24-.21.54-.51l1.26-.3 5.16-6.9 4.5-7.26q-1.62-.06-3.21-.78-1.59-.72-2.64-2.01-1.05-1.29-1.05-2.79 0-1.08.48-2.04-.12-.48-.12-.66 0-.54.39-1.05t.99-.81q.72-.24 1.62.36.6.42 1.2.48 1.32-.54 4.08-1.26 1.92-.48 3.15-.87t2.37-1.05q.78-.3 2.46-.66 2.1-.54 2.88-.84.78-.42 2.46-.54 1.56-.12 2.28-.48.54-.06 1.02.15t1.14.63q1.08.6 1.68.72.42.12.72.48t.3.72q0 .48-.42.84.9.24 1.44.99.54.75.42 1.65.6.6.9 1.62.42.96.66 1.26.24 1.02-.33 1.47-.57.45-1.95.93-1.5.48-1.98 1.02-.9.3-1.98.45-1.08.15-1.44.21-3.12.48-4.56 1.08-1.56.06-2.82 1.11-1.26 1.05-1.86 2.61l-2.1 2.34-2.1 2.34q.96.06 1.74.63.78.57 1.2 1.47.66-.3 1.14-.87.48-.57.6-.69.66-.78 1.05-1.17.39-.39 1.05-.57 4.2-1.38 8.88-2.04.42-.06 1.26-.06 3.24 0 5.46 1.86zm-9.06-20.34q-.54.24-1.62.24-.18 0-.69.06t-.87.18l.06.36q.24.12.3.3.48.12.66.12.9 0 1.86-.78.3 0 1.02.24t1.14.18q-.18-.54-.63-.69-.45-.15-1.23-.21zm-12.42 3.3q-.3.12-.3.48 0 .24.15.42t.39.18q.24-.06 1.11-.24.87-.18 1.47-.54.6-.36.96-.96.84-.3 1.5-.48.18-.06.99-.27.81-.21 1.41-.69.24-.06.66-.06.42 0 .6-.36-.06.06-.18.06v-.18q-.96.24-1.44.42-.6.12-1.98.48t-2.52.54q-.3.18-.84.57-.54.39-1.02.57-.48.18-.96.06zm15.36-2.04q-.24.18-.24.36 0 .3.84.84.54-.18.54-.48 0-.24-.36-.48t-.78-.24zm2.1 5.88q0-.36.15-1.2t.15-1.26q0-1.32-1.38-1.38-.3.12-.57.39-.27.27-.27.51 0 .3.3.48.06.24.36.57.3.33.3.57l.24-.06.42.12-.12.42-.3-.06q0 .06-.12.18.42.72.84.72zm-25.14-1.02q.42.3 1.14.3.84 0 1.62-.51.78-.51 1.86-1.47-1.8.06-3.84 1.2-1.44.24-2.58-1.2l-.3.66q1.2 1.2 2.22 1.26l-.12-.24zm4.08-.42q.42-.12 1.2-.3t1.17-.39q.39-.21.09-.51-.78.3-2.46 1.2zm22.2 1.14q.06.3-.03.6t-.21.6q-.36.84-.12 1.26.24 0 .48-.12l.54-.18q.12-.36 0-.72t-.33-.75q-.21-.39-.33-.69zm-29.64 1.44q-.12.3-.12.96 0 .96.51 1.65t1.29.87q-.78-1.08-1.68-3.48zm26.4 2.64q-.18.06-.45.03t-.39-.03q-.18.06-.39.18-.21.12-.45.18.3-.06.84-.09t.84-.27zm-20.22 4.5q.42-.24.69-.66.27-.42.15-.78-.24.24-.45.69-.21.45-.39.75zm7.14 1.8q.12-.42.24-.81.12-.39.24-.75-.96.9-1.56 2.82l1.08-1.26zm14.52 2.52q.3 0 .63.06t.63.06q.36 0 .6-.12l-.42-.18-.66-.06-.36.06-.42.18zm-6.48.36q-.48.12-1.98.45t-2.61.96q-1.11.63-1.71 1.59.54-.24 2.64-1.14 2.1-.9 3.84-1.86h-.18zm10.14 1.26q0-1.14-1.62-1.14l.84.54.78.6zM378.48 51.3q2.1-2.16 3.84-4.68 1.74-2.52 3.66-5.88l-.9 1.02q-1.86 2.1-2.85 3.36-.99 1.26-1.77 2.7-1.02-.18-1.71.6t-1.53 2.28q-.3.6-.78 1.32.18-.12.72-.6t.84-.48q.18 0 .48.36zm16.5-9.36q-.06-.18-.03-.42t.03-.36l-.42-.18q-.06.12-.24.09t-.24-.03l.9.9zm.12-.72q-.06.12-.06.42 0 .78.96 1.08l.18-.18q-.12-1.02-1.08-1.32zm12.12 2.76q.3 0 .3-.36 0-.18-.12-.3t-.3-.06q-.12.06-.12.33t.09.45q.09.18.15-.06zm-9.36 8.4q2.16-.36 3.81-1.74t2.67-3.42q1.92-1.68 1.92-3 0-.3-.24-.9-.84.06-1.68.42t-1.92 1.08q-1.2.72-2.01 1.08-.81.36-1.65.36-.72 0-1.26-.24-.12 3.12.36 6.36zm-7.02 1.86q-.12-.96-.12-1.44 0-.6.06-1.38.06-.78.12-1.2.18-1.26.18-2.58-.84 1.14-.84 3.06 0 1.62.6 3.54zm-4.86-.24q1.08-.84 1.44-1.62h-.06q-.12.24-.66.72t-.72.9zm28.62-1.62q-.42.24-.42.6 0 .3.21.63t.51.51l-.42.42q.72 0 .72-.72 0-.36-.18-.78-.18-.42-.42-.66zm-39.18 7.08q.6.12.96.12 1.26 0 2.46-.63t2.04-1.65q-.18-.42-.78-.6-.6-.18-.78-.36l-.36.06-.3-.45q-.18-.27-.21-.51t.09-.48q-.6.24-.9-.12-.3-.36-.3-1.02 0-.36.06-.54l-.96.72q-1.02.78-1.62 1.41-.6.63-.78 1.53.48.3.75.78.27.48.42.99.15.51.21.75zm39.06-2.7l.3.06q.42 0 .66-.24.24-.24.24-.6 0-.18-.24-.66-.42.18-.6.51t-.36.93zm-12.72 1.08q.48.06 1.26.21t1.32.15q1.32 0 2.16-.84-.42-.36-.96-.36-.3 0-.66.06-.36.06-.72.06-.54 0-.9-.3-.96.42-1.5.84v.18zm-1.86-.54q.18.18.36.18.48 0 .66-.48l-.6.12q-.24 0-.42.18zm-3.78 4.2q.06-.24.24-.6l.24-.48q.48-.84.48-1.2t-.12-.54q-.48.48-.72 1.29t-.12 1.53zm-3.72-.96v.06q0 .42.33.63.33.21.81.15-.18-.48-.81-1.17-.63-.69-.99-1.11.12.18.3.72t.36.72zm3 1.5q.36-.12.39-.3.03-.18-.33-.3-.06.06-.42.51t.36.09zm90-18.36q.12.42.72 1.02.48.54.69.9.21.36.03.84l-1.92.36q.36.6.36 1.38 0 .72-.3 1.5-2.52 0-3.72-.06-1.26.06-3.78.06-.06.54-.42.75-.36.21-1.14.51-1.14.66-2.34.66-.78 0-1.56-.3-1.2-.54-2.46-1.38-1.68-.96-2.16-1.2-1.8-2.46-4.74-5.52l-2.58-2.82-.06 1.2q0 1.44.27 3.09t.48 2.64q.21.99.27 1.41 1.02 4.44 1.02 7.14 0 1.02-.06 1.77t-.12 1.29q-.24 2.52-.18 3.84.06 1.08-.6 1.86-.66.78-1.56.78-.6 0-1.2-.36-.66-.48-1.14-1.68-.54-1.38-1.26-1.8-1.02-.96-2.46-3.36-1.08-1.8-1.74-2.64-.84-.66-1.2-2.34-.36-1.5-.96-2.16l-.66-1.14q-.9-1.44-1.08-2.22.06-.24.24-.54.18-.3.21-.54.03-.24-.21-.42-1.98 3.72-4.95 6.69t-6.69 5.01q-.6-.24-.6-.84 0-.3.15-.84t.21-.84q-.24.72-.84.72-.48 0-.84-.36t-.36-.84q0-.12.12-.48 3.48-2.94 5.46-5.22t2.7-5.28q-.54 0-1.11.06-.57.06-1.17.06-1.68 0-2.52-.72-.42-.36-.42-1.02l.06-.9q0-.66-.54-1.14-.12-.6-.12-.84 0-1.32.87-2.49.87-1.17 2.13-1.41-.06.18-.12.33-.06.15-.12.27 1.32-.06 2.37-.66 1.05-.6 2.49-1.8l1.38-1.08q.9-.3 1.56-.3 1.2 0 2.94.66.96.96.96 1.92 0 .42-.12.66 0 2.34-.63 4.5t-1.95 5.46q2.1.3 4.5 2.34.06-.54.06-1.56 0-2.46-.42-5.94-.48-4.92-.36-7.44l.06-.96q0-.72-.12-2.16-.18-1.08-.18-2.22 0-1.32.3-2.22.6-.78.84-1.68.24-.9.36-2.22.24-1.92.6-2.82-.42-.36-.42-.78 0-.48.39-.84t.93-.3q-.12-.18-.12-.54 0-.78.66-1.32.72.6 1.59.81.87.21 2.13.27 1.5.12 2.22.3.9.72.9 2.04 0 .12-.18 1.38v1.68q0 .42-.06 2.22-.06 1.8-.36 3.48-.12.6-.54 2.4-.42 1.8-.63 3.33-.21 1.53-.21 2.91.6-.18 1.02-.6.42-.42.75-.93t.51-.75q2.46-2.88 3.78-5.34.18-.36.78-1.26.54-.78.84-1.35.3-.57.36-1.23.6-.12.9-.12 1.8 0 2.97 1.62 1.17 1.62 2.07 4.02.72.6.72 1.5 0 1.02-.84 1.86-1.68.84-2.52 1.2-2.22 1.08-3.48 1.77-1.26.69-2.52 1.71.84.12 1.53.54.69.42 1.83 1.26 1.14.9 1.95 1.35.81.45 1.83.45 1.26 0 2.64-.18 1.68-.12 2.58-.12 1.2 0 1.8.12v-.24q.9.48 2.16.78 1.26.36 2.07.78.81.42 1.35 1.2zM456.9 16.5l-.3.06q1.26.24 1.92 1.56.3.18.75.21t.75.09q.3.06.54.42.42-.06.66-.36.24-.3.24-.66 0-.42-.36-.78-.66-.3-1.8-.3h-.66q-1.2 0-1.74-.24zm-2.46 1.02v.12q0 .18.27.45t.21.45q.06-.12.06-.36 0-.18-.06-.45t0-.51l-.48.3zm2.76.3q-.3.24-.3.48 0 .3.36.45.36.15.84-.03 0-.24-.27-.57-.27-.33-.63-.33zm-2.88 2.52q.84-.3.84-.84 0-.3-.24-.72-.06.3-.45 1.02t-.15.54zm-1.62 8.1q.06-1.02.78-2.82.06-.12.42-1.08.36-.96.3-1.92l-.42 1.2q-.54 1.44-.84 2.46-.3 1.02-.24 2.16zm17.1-3.54q-.12.42-.6 1.44-.36.42-.54 1.08l.18-.3q.48.06 1.74.6 1.32.66 2.22.6l-1.2-1.98-1.8-1.44zm-10.02 7.14q.06-1.26.6-3.06.54-1.56.6-2.76-.18.78-.54 1.74-.72 2.16-.72 3.3 0 .48.06.78zm14.16-1.68q-.36-.3-.72-.78-.48 1.56-.9 2.43-.42.87-1.38 1.41-.24-.12-.42-.12-.3 0-.6.33t-.48.69q.24-.12 1.41-.54 1.17-.42 2.04-1.02.87-.6 1.41-1.32l-.36-1.08zm-7.56-.42q-.36.48-.66.96-.3.48-.6.84.42-.18.69-.6.27-.42.63-1.2h-.06zM465 31.86l-.9 1.02-.9 1.08q.48-.36 1.02-1.08.6-.72.96-1.02H465zm-19.38 2.7q.48 0 .87-.27t.39-.69q0-.3-.12-.48-1.08.36-1.83.84t-1.17 1.32l1.14.06q.48 0 .9-.24l-.18-.54zm-4.5 3q.24.18.66.18.6 0 1.23-.33t.63-.69q0-.42-.66-.66-.36.06-1.2.45t-1.38.39q-.3 0-.48-.06l-.84.06-.36.6q.18-.3.48-.3.42 0 .72.42.48-.18 1.2-.06zm-3-.18q-.6 1.2-.6 1.98 0 .24.12.72 0-.48.36-1.2.42-.78.3-1.38l-.18-.12zm25.68.18l-.48.42q2.46 1.38 5.94 2.82-.54-.66-1.26-1.05t-1.74-.81q-1.74-.66-2.46-1.38zm-25.2 4.02q-.42.36-.42.66 0 .48.75.84t1.35.24q-.9-1.38-1.68-1.74zm45.96 4.68q1.08-.12 1.08-.6 0-.42-.72-.84-.3.36 0 .66v.24q0 .24-.15.36t-.21.18zm-13.08 3.72q.96.6 2.04.6 1.2 0 3-.78-.42-.66-1.14-.66-.3 0-.99.18t-.99.12q-1.62-.3-3.06-1.17-1.44-.87-3.3-2.31l-1.38-1.02q2.22 3.54 5.82 5.04zm-22.2-1.32q-.18-.36-.03-.93.15-.57-.03-.87-.42.54-.42 1.14 0 .6.48.66zm34.8.12q.24-.24.24-.66 0-.36-.24-.84-.36.12-.63.54-.27.42-.54.66-.27.24-.69.24.36.06.96.03t.9.03zm-32.64 3.9q.12.84.51 1.53.39.69.81 1.29.42.6.54.78 1.26 1.8 1.62 2.76 0-1.08-.54-2.1t-1.74-2.64q-.84-1.08-1.2-1.62zm-14.58 4.14q2.4-1.26 2.94-2.94-.06.06-.45.39t-.69.33q-.3 0-.48-.36.06-.12.12-.3t.24-.42q.06-.18.3-.72-.24.48-.93.93-.69.45-.87.63.12.48.12.66 0 .36-.12.9t-.18.9zm24.48-.84q-.42.3-.51.78-.09.48-.06.96t.03.72q.36-.42.45-.9.09-.48.09-.93v-.63zm-4.32 5.4q.12-.9-.33-1.62-.45-.72-1.29-.84-.12.54.15.93t.78.84q.51.45.69.69zm3.78-.9q-.24 0-1.08-.24-.6.24-.6 1.08l.06 1.2q0 1.02-1.08.78.12.48.54.87.42.39.9.39.42 0 .78-.42.48-1.5.48-3.66zm43.68-33.78q-.3-.54-.3-1.26 0-.96.66-2.16.12-.24.27-.6.15-.36.27-.84-.72-.48-.72-1.26 0-.36.21-.72t.57-.54q.9-.12 1.68.3.78.42 1.32 1.2.24-.12.42-.12.3 0 .72.3t.66.42l.12-.72-.36-.36-.36-.42q.78-.9 1.77-1.41.99-.51 2.61-1.11.84-.3 1.74-.69.9-.39 1.56-.87 1.86-.72 3.42-.72 1.26 0 2.16.48.48-.06 1.59-.18t2.01-.12q2.04 0 3.36.9 2.82 2.1 2.82 4.38 0 .66-.24 1.2-.96 2.46-3.33 4.08t-5.13 1.98q-.78.18-1.2.66-.42.48-.9 1.38-.48.9-.72 1.14-.3.24-1.17.78-.87.54-1.32 1.08-.45.54-.45 1.32.18-.12 1.11-.54.93-.42 1.71-.66.78-.24 1.5-.24.9 0 1.68.36.06.12.3.36-.06.18-.06.48l-1.68 2.34-2.22 1.8v-.18l-.66.6-.54.72q.18.06.6.06.48 0 1.56-.24 1.2-.24 1.8-.24 1.26 0 1.5 1.2-.06.42-.33.66-.27.24-.75.45-.48.21-.66.39-3.84 1.86-6.75 2.94-2.91 1.08-5.97 1.38.06 0 .09-.03l.09-.09h-.42q-.24.12-.36.12-.06-.06-.12-.15t-.12-.27q-.24.18-.66.18-.36 0-.66-.21-.3-.21-.36-.57.06-.54.36-1.2.3-.66.48-1.02.66-.66 2.34-1.38 1.2-.54 1.8-.9.6-.36 1.08-1.08-1.2.12-3.36.84-1.68.6-2.52.78-.36-.48-.36-.84 0-.96 1.56-2.04.96-.42 2.52-.78 1.38-.36 2.28-.69.9-.33 1.62-.99l-.12-1.5-2.7.66-2.58 1.14-1.02.06-.84-.54q-.18-.36-.18-.78 0-.72.51-1.62.51-.9.75-1.38-1.74-.24-3.06-1.65t-1.92-3.21zm12.96-10.14q-.6.06-1.26.42t-1.26.72q-1.08.72-1.68.9.54-.18 1.56-.45t1.77-.66q.75-.39 1.29-.99.84.36 1.8.36 1.5 0 2.58-.72-.06-.3-.39-.36t-.51-.12q-.54.12-1.8.24t-2.1.66zm9.12-.78l-.3.18q.9.48 2.16.48-.3-.12-.87-.39-.57-.27-.99-.27zm4.92 3.66q-.84-1.98-2.4-2.4.78.9 1.2 1.26l1.2 1.14zm-7.2-.24q-1.44.24-2.91.57-1.47.33-2.61.81-.06.78-.03 1.38.03.6.03 1.02.48-.24 1.14-.51.66-.27.96-.39 2.16-.96 2.88-1.38l.24.18q.06 0 .18.12.3-.12.66-.03.36.09.66.27.78.42 1.2.36 0-.72-.45-1.14-.45-.42-1.05-.75-.6-.33-.9-.51zm-13.5.48q-.18.06-.18.24 0 .12.42.54.24.24.36.24.18 0 .18-.24t-.21-.48q-.21-.24-.57-.3zm-4.74.36q-.66.18-.66.54 0 .3.48.93.48.63.48.93v-.06q.06.12.24.09t.12-.27q.18.06.18-.09t-.18-.27v-.12q0-.48-.36-.84 0-.06.09-.12t.03-.18h.12q.3 0 .54.15.24.15.48.21-.3-.96-1.56-.9zm8.1 1.8q-.42.12-.69.42-.27.3-.27.6 0 .54.78.72 0 .48.51.69.51.21 1.05.09.06-.72.39-1.68t.51-1.5h-.36q-.3.12-1.11.24t-1.17.48q.12-.06.36-.06zm-3.48.24l-.18.18q.42.48.42 1.62 0 1.08.36 1.68.18-.48.51-1.41.33-.93.81-1.53-.3-.18-.78-.36-.48-.18-.78-.3-.12 0-.36.12zm-4.92 1.32q-.78.84-.78 2.1 0 1.44.96 2.58.12-.24.24-.45.12-.21.18-.33l-.18-.06-.24-.12.18-.06-.24-.06q.06-.6-.06-1.68-.12-.84-.12-1.2 0-.48.06-.72zm12.78 3.18q.66-.54 2.46-.9 1.32-.24 2.07-.63.75-.39.99-1.41l-.48-.24-1.56.54q-1.62.42-2.49.96-.87.54-.99 1.68zm-4.56 2.82q.66-.12 1.29-.48t.63-.84q0-.36-.36-.72-.54.3-1.26.3-.66 0-1.23-.3t-.93-.9q-.36.36-.36.78 0 .36.24.93.24.57.24.81-.48.48-.9.42.06.12.06.36t.06.42q.48.06 1.32-.33.84-.39 1.2-.45zm-4.92 5.7q.48-.12.48-.6 0-.18-.12-.36t-.3-.24q-.18.24-.18.6 0 .24.12.6zm-.72 4.86q.24-.12.57-.42.33-.3.63-.24l-.18-.42-.3-.24q-.66 1.14-.72 1.32zm10.2-1.08q-.12.3-.69.66-.57.36-.69.66 1.14-.06 1.44-1.32h-.06zm4.32 1.08h.12l-.54.48.12.18q.12 0 .75-.18t.57-.66l-.66-.18-.36.36zm-13.2 4.68q-.42-.24-.42-.54 0-.36.66-.99t.66-.99h-.18q-1.56.36-1.8 2.88.12-.06.57-.09.45-.03.51-.27zm30.24-.12q.18.42.18 1.08 0 1.02-.54 1.89-.54.87-1.38.87-.48 0-1.08-.42-.36-.3-.96-.3-.36 0-.96.12t-1.02 0q-.3-.06-.9-.06-1.44 0-2.1.84-.66.78-1.8.78-1.14 0-1.38-.9l.24-.18.78.36.42-1.02.48-1.02q-.36-.48-1.56-.84-.54-.18-.9-.36t-.54-.54l.24-.18.3-.06-.36-.3v-.42l1.68-.66 1.74-.72q.66.12 1.5.18t1.2.06q1.8 0 2.7.18.24 0 1.29.03t1.77.42q.72.39.96 1.17zm-11.4-.18q.06-.12.57-.24t-.03-.18q.12-.18 0-.18-.12.12-.54.27-.42.15-.48.45h.06q.06.18.27.27.21.09.39.09.24 0 .24-.12t-.48-.36zm7.8 2.28q.3.3.84.51.54.21 1.02.21.54 0 .84-.3.3-.3.24-.96.12-.9-.39-1.65-.51-.75-1.47-.57-.18 1.08-.18 1.2 0 .66.48.96-.18.48-.48.57-.3.09-.9.03zm-16.86-.6q0-1.02.6-1.32.6-.3 1.74-.42.66 0 1.2-.18.9.12 1.65.54.75.42.69 1.2-.78.6-1.83 1.08-1.05.48-1.95.48-1.56 0-2.1-1.38zm-12.72 1.56q-.12.42.09 1.08.21.66.21.9 0 .42-.3.72-.6.48-1.38.87l-1.02.51-1.2.6q-.48.3-.96.48t-1.02.18q-1.02 0-2.22-.72-.66-.6-.81-1.35-.15-.75-.12-1.5t.03-1.05q0-.66.72-1.74.72-.96.72-1.56.3.18 1.56 1.14 1.02.84 1.68 1.23.66.39 1.56.33.3-.06.81-.24t.81-.18q.42 0 .84.3zM520.98 45q-.24.18-.24.3 0 .18.27.27.27.09.45.03t-.06-.24v.06q-.12-.06-.21-.24t-.21-.18zm-1.02.48q.12.36.36.63t.6.27q.3 0 .48-.12-.18-.06-.54-.3l.12-.06h-.12q-.18 0-.48-.21t-.42-.21zm-9.6.36h-.06.06zm15.66 11.34l1.56-.06q1.2-.12 1.86-.12 1.86 0 2.88.96.24.48.24.96 0 1.08-.99 1.95-.99.87-2.31 1.47-.18.06-.6.06l-1.08-.06q-.84 0-1.38.48-.3.06-.78.12-.48.06-.72.06-1.08.06-2.16.36l.18-.42-.24.06q-.3 0-.57-.09-.27-.09-.57-.09-.42 0-.6.36-.6-.12-1.74-.12-2.16.12-5.28 1.32-1.8.9-3 1.35-1.2.45-2.4.45-.78 0-1.68-.3-.18-.06-.66-.06h-.78q-1.14 0-1.56-.66.66-1.8 1.8-3 1.14-1.2 2.76-1.26.3.06.78.06 1.8 0 3.36-.81 1.56-.81 3.9-2.43-.18-.06-.54-.06-.42 0-1.23.27t-1.17.27q-.42 0-.78-.18-.3.06-.96.06-2.28 0-3.3-1.2-.06-.24-.06-.78 0-1.44.75-2.52t2.01-.84q.72.18 1.5.18 1.08 0 2.4-.3l1.74-.24-.06-1.08.18-1.14h-.6l-.54-.24q-.12.66-.96.66-.36 0-.63-.06t-.45-.12q-1.08-.18-1.74-.39-.66-.21-1.2-.75-.42-.84-.42-1.56 0-.6.42-1.02h.42q.48 0 .54-.36.54.06 1.5.24t1.68.18q1.5 0 2.58-.9.72.18.72.96 0 .54-.3 1.02.3-.06.9-.06 1.62 0 3.66 1.5 0 .18-.06.24l.54-.06q.36-.18.42-.24l.3.24.24.18q.54-.6 1.32-.6.84 0 1.62.66.78.66.96 1.5.12 1.14-.81 1.98-.93.84-2.19 1.08-1.2.12-2.22.75-1.02.63-1.02 1.59 0 .36.3.96.48.24 1.08.24.78 0 1.56-.3.18-.06.69-.18t.99-.12zm-14.64-10.2q-.42.24-.42.72 0 .42.27.75t.63.33q.36 0 .6-.3l-.54-.24.18-.18.18-.06q-.06-.12-.27-.51-.21-.39-.63-.51zm-8.1 1.32q.12.48.72.48t.9-.42q-1.08 0-1.62-.06zm14.52.78q0-.12.18-.27.18-.15.27-.27.09-.12-.15-.18-.3 0-.42.21t-.09.42q.03.21.21.09zm-12.72 1.2q.42-.18.75-.45t.33-.63q0-.3-.3-.54-.12.48-.78 1.62zm14.76-.54q-.18.3-.18.45 0 .15.18.15.12 0 .21-.15t-.03-.33q.06-.12-.03-.24t-.21-.12v.24h.06zm4.98-.18l-.12.18q.24.24.36.3.06-.12.3-.12l.54.06q-.24-.3-.63-.36t-.45-.06zm1.32.84q0 .12.03.24t-.03.24l.18.12q-.06.06-.36.15t-.3.39h.24q.3 0 1.02-.12 0-.36-.33-.63t-.45-.39zm-.78 2.16q.12.12.42.12.42 0 .75-.33t.45-.75h-.18q-.18.3-.72.54-.54.24-.72.42zm-16.8 3.48q.3.84 1.2 1.02-.3-.18-.63-.51t-.57-.51zm23.16 3.24q0-.72-.45-1.02-.45-.3-1.14-.42t-1.11-.24q0 .24.27.66.27.42.15.72l1.14-.06q.6 0 .96.3l-.36.54q-.6-.18-.96.12t-.78.93q-.42.63-.72.87 2.58-.9 3-2.4zM521.1 58.2q.06-.12-.03-.24t-.15-.24q-.18.18-.42.18v.24q.12.06.3.06h.3zm-13.68 6.72q.12.06.3.06-.12-.12-.12-.36v-.36q-.18 0-.42-.12v.3h-.06q-.18 0-.36-.21t-.3-.21q0-.3.3-.66.3-.36.45-.63.15-.27-.03-.57-.48 0-.48-.36-1.44 1.32-2.22 3.24.36.06.9 0t.9-.06q.54 0 .96.18l-.06-.12.06-.24h.18v.12zm88.14-42.78q.6.66.6 1.68 0 .42-.24 1.14-.24.42-.69.6-.45.18-.9.24t-.63.06q-.42.18-1.23.3t-1.11.24l-1.44-.06q-.96 0-1.74.18-.12-.06-.36-.06-.48 0-.87.24t-.57.66q.36.12 1.5.42 2.16.6 3.12 1.26.12.48.12.78 0 1.2-.78 2.4-.36.18-.72.18-.3 0-.9-.15-.6-.15-.9-.15-.18 0-.54.12-.6.18-1.08-.09-.48-.27-.9-.66-.42-.39-.6-.51l-1.02 1.98q1.2.12 1.86.24.36.06 1.29.18t1.65.06q.36.06.93 0 .57-.06.99-.06.72 0 1.26.3 2.16 1.26 2.7 2.94-.12.48-.51 1.92t-.33 2.64q-.06.54.09 1.14.15.6.39 1.2.54 1.44.48 2.34.84 1.44.84 3.72 0 1.02-.06 1.5l-.06 1.56q-.06 1.08-.03 1.89.03.81.03 1.35 0 2.34-.36 4.05t-1.5 3.09q-.72.36-1.26 1.44-.06.12-.33.51t-.54.6q-.27.21-.63.27-.78 0-1.98.54-.78.36-1.62.36-1.02 0-1.8-.48t-1.02-1.38l.42-.36q-.36-.36-.9-.72t-.87-.69q-.33-.33-.51-.81.12-.06.3-.06.42 0 .84.33t.66.45q.24-.3.3-.66-.42-.42-1.2-.9-.9-.6-1.38-1.11-.48-.51-.48-1.23 0-.48.18-.9l-.3-.18q0-.3-.06-.48.18-.06.48-.06.6 0 1.8.48.54.24 1.2.42.6-.36.9-.6l.96-.48q1.14-.42 1.56-1.59.42-1.17.24-2.55.66-2.52.66-4.86 0-1.86-.42-4.26.3-.9.3-1.62 0-.96-.42-1.95t-1.14-1.71q-.12-.6-.48-.99t-.9-.39q-.3 0-.48.06-.06 0-1.02.18-.48-.12-.72-.12-.66 0-1.98.48-1.32.54-2.04.54t-1.38-.42q-.78.84-1.86 1.35-1.08.51-2.22.51-1.92 0-3-1.26-.42.48-.42 1.14 0 .54.36 1.08-.06.72-.36 1.71t-.42 1.59q.36.6.36 1.26t-.3 1.56q-.3 1.26-.24 1.68.12.48.12.78 0 .42-.09 1.05l-.15 1.05q0 .54-.09 1.26t-.03 1.2q-.36.3-.36.78 0 .24.12.96.48 2.16.48 3.42 0 1.86-.72 3.12-.18.24-.6.72t-.81.75q-.39.27-.81.27-.42 0-.66-.12-.36-.12-.6-.12-.42 0-1.14.18t-1.08.18q-.48 0-.9-.24-.78-1.86-1.5-5.34.48-.72.48-1.8 0-.48-.12-1.14-.12-.66-.18-.96 0-.3.03-.78.03-.48.15-1.14-.06-.48.36-1.56.36-.84.36-1.26 0-.24-.12-.6-.12-.48-.12-1.38 0-1.26.33-2.49.33-1.23.99-2.91.84-2.22 1.08-3.48.24-1.2.84-2.16.6-.96 1.5-1.44.66-.36 1.14-.36.9 0 1.59.84.69.84 1.17 1.98 2.4-1.74 4.2-2.76 1.8-1.02 3.84-1.32.36-.06.99-.09t1.05-.24q.42-.21.6-.81-.24.42-.72.42-.6 0-1.14-.42l-.3.24-.36-.12q-.3.3-.9.3-.72 0-1.38-.45-.66-.45-.84-1.11.12-1.2.6-2.28.48-1.08 1.44-2.82-.06-.18-.06-.48 0-.48.21-1.08.21-.6.33-.9-3.12 1.68-6.54 2.16.18.96.75 1.65.57.69 1.47.45.3 0 .54-.09.24-.09.48-.09.36 0 .48.3.06.24.06.66 0 1.5-1.44 3.3.12.48.12.6 0 .96-.9 1.59-.9.63-2.04.63-.66 0-1.26-.3-.54-.06-.75-.42-.21-.36-.33-1.02-.12-.72-.33-1.11-.21-.39-.87-.51l-.96.84q-1.2 1.02-1.98 1.5t-1.62.48q-.3 0-.78-.12-.24.42-.81.48-.57.06-.75.18-.3-.3-.72-.3-.48 0-1.11.39-.63.39-.87.51-.48.42-1.38.42-.66 0-1.26-.33t-.84-.93q-.06-1.92 1.05-3.54t3.03-3.36q.78-.78 1.41-1.65.63-.87 1.47-2.25l.66-.06.54.78q.54-.72.87-1.56.33-.84.54-1.62.21-.78.27-1.02.42-1.92 1.02-3.18.48-.3 1.2-1.26.6-.72 1.02-1.08.42-.36 1.08-.54 2.04.06 3.78.84 1.74.78 1.74 2.4 0 .18-.12.78.24.18.24.48l-.06.48q0 .3.36.36.18-.06.54-.06.9 0 1.56.48t1.17 1.08q.51.6.75.84.36-.84.6-1.26.72-1.8 1.5-2.64.06-.18.3-.48t.39-.57q.15-.27-.03-.57.12-.84.87-1.53.75-.69 1.59-.45.18.54.63.78t1.17.36q.12.06.69.21t.93.51q.54.84.54 2.1 0 .96-.48 2.76.78.12 1.56-.03t1.92-.51q.9-.36 1.92-.54.54-.12.9.12t.87.81q.51.57.81.75zm-23.04-4.74q.24.06.48.36t.42.36q.06-1.08-.63-1.62t-1.38-.69q-.69-.15-2.49-.39-1.14.66-1.71 1.86-.57 1.2-.63 2.52.36-.42.9-1.74.06-.18.21-.57.15-.39.33-.63.24.12.69.39.45.27.75.27.36 0 .6-.36.96.36 1.8.36.3 0 .66-.12zm14.4 2.76q.3-.72.3-1.38 0-.72-.27-1.26t-.81-.72q-1.98-.24-2.82-1.26l-.54.48-.36.6q.6.36 1.38.51.78.15 1.02.21.96-.18 1.62.45.66.63.66 1.53 0 .36-.18.84zm-8.16 6.12q1.86-3.06 1.92-6-1.5 3.48-1.92 6zm-1.08-3.36l.3-.12q-1.26-1.86-2.46-2.22-1.86.3-2.4 1.5.36 0 1.2-.12t1.32-.12q1.5 0 2.04 1.08zm14.28-1.38q.3.54 1.02.54.54 0 1.02-.3l-.3-.36-.36-.24v.18q-.18-.06-.48-.06-.48 0-.9.24zm3.18 3q.24-.6.12-1.5-.48-.12-.72-.12l-.3.18q.78.78.9 1.44zm-.84.36h.18q.42 0 .6-.3h-.3q-.48 0-.48.3zm-36.12 5.58q.84-1.32 3-3.48l1.44-1.44-.54-.24q-.6.9-2.7 3.24-1.62 1.68-2.52 2.85-.9 1.17-1.32 2.61.18.6.66.96.48.36 1.02.36.72 0 1.26-.66l-.42.12-.36.18q-1.2-.54-1.2-1.86 0-.84.48-1.59.48-.75 1.2-1.05zm11.94-4.08l.24.12.36.12.18-.18-.12-.36q-.18.12-.39.12-.21 0-.27.18zm18.54 4.92q.24.12.54.12.48 0 .72-.36t.24-.84q0-.6-.3-1.02-.3-.42-.84-.42-.3 0-.66.18.42.3.6.63t.33.78l.27.81q-.12-.06-.3-.06-.06 0-.6.18zm-5.04-.18q-.54.12-.9.6t-.48.6q.12 0 .12.12 1.2-.3 1.26-1.32zm-19.92 2.7q1.5-.78 1.98-1.26h-.42q-.36.36-.78.63-.42.27-.78.63zm9.54-.9q-.6.3-1.08.3-.54 0-1.2-.21-.66-.21-.96-.27-.12.78.3 1.17.42.39 1.14.39t1.29-.39q.57-.39.51-.99zm18.72 1.92q-.12.66.36 1.74.42.96.36 1.56l.36.18q.3-.72.3-1.26 0-.66-.36-1.26t-1.02-.96zm-19.62 3.12q1.08-.3 2.88-1.62.96-.72 1.92-1.2h-.18q-1.2.42-2.19 1.05-.99.63-2.43 1.77zm11.82-2.16l-4.32 1.44q-.18 0-.36.09t-.24.09q.24.12.78.12.6 0 1.8-.48 1.02-.42 1.38-.48.36-.06.9 0t.84.06q.3 0 .9-.12l-1.68-.72zm-16.08 1.26q.6.06 1.14.57.54.51.78.69-.72-1.98-1.98-2.46-.18.12-.63.27-.45.15-.69.33-.24.18-.3.54.24.12.81.03.57-.09.87.03zm16.2 18.24q-.84 1.62-2.34 1.62-.54 0-1.02-.24-.36-.3-1.02-.3-.96 0-2.04.72-.78.72-2.04.72-1.5 0-2.1-1.14-.18-.66-.66-1.98-.72-2.22-.9-3.24l-.06-.54q0-.66.18-1.26 0-.18.09-.63t.03-.81l-.06-.84.06-1.56q.24-1.5.06-2.52l-.12-.48q0-.66.69-1.08.69-.42 1.44-.66.75-.24.99-.36 1.2-.06 1.95.12t1.17.9l1.92-1.02 2.16-.54q2.04.18 2.55 1.65.51 1.47.51 2.91v1.92q-.36 1.2-.48 3.66-.06 1.68-.24 2.82t-.72 2.16zM582.9 40.8q-.3.06-.87.15-.57.09-.99.24-.42.15-.72.45 1.38-.42 2.52-.42.36 0 1.2.12l-1.14-.54zm-6.12.36q-.12.06-.12.12 0 .12.15.24t.33.12l-.12-.12q.18-.12.09-.24t-.33-.12zm-12.18.78l-.6 1.86q-.6 1.68-.84 2.73t-.12 2.13q.78-1.08 1.08-2.43.3-1.35.36-2.61.06-1.26.12-1.68zm9.18.18v-.18h-.24q-.24.24-.36.3.06.18.06.48l.3-.06q.06-.06.06-.24t-.06-.24l.24-.06zm11.16 3.96l.06-1.44q0-1.32-.54-1.98.48 1.74.48 3.42zm-6.78.06q.36-.06 1.08-.09.72-.03 1.29-.18.57-.15.87-.45-.06-.12-.06-.48v-.6q0-.66-.42-.78-1.2.42-2.07 1.08-.87.66-.69 1.5zm-8.64.84q.42-1.14.42-1.56 0-.42-.18-.78-.66 2.46-.66 5.46 0 .84.12 2.4-.06-1.8.3-5.52zm24-1.38q-.18.24-.18.6 0 .3.21.87.21.57.21.81 0 1.5.09 2.37.09.87.57 1.59-.12-.6-.12-.84 0-.36.09-1.02t.15-1.08q-.24-.66-.3-1.2-.36-1.44-.72-2.1zm-13.38 6q.36.18.6-.18t.24-.9q0-1.02-.78-1.02-1.08.3-2.1.18-.24.48-.24 1.14 0 .36.06.81.06.45.12.69.42.12 1.11-.15.69-.27.99-.27v-.3zm-7.02.78l.06-.78q0-1.14-.54-1.68 0 .9.09 1.47t.39.99zm-5.46 10.56q.96-.54 1.35-1.62.39-1.08.27-2.34l-.3.72q-.12.42-.24 1.02l-.45-.45q-.33-.33-.69-.27l-.24.54q0 .12-.12.6-.06-.06-.3-.06l-.12.24-.12-.12-.18.66-.36.48q-.66-.18-1.08-.63-.42-.45-.9-1.29-.6-1.08-1.08-1.5-.12-.72-.12-2.1 0-1.08.06-1.92.06-.84.12-1.44.06-.48.12-1.14.06-.66.06-1.56-.9 1.26-.9 3.3l.06 1.38q.06.48.06 1.38 0 .72-.06 1.02-.06.3-.06.96 0 2.22.9 4.02.54.36 1.2.36.6 0 1.2-.18.66-.18 1.2-.18.24 0 .72.12zm16.74-11.22q-.18.3-.18.78v.78q.3-.48.3-1.02 0-.18-.12-.54zm1.2 7.14q.48.36 1.02.36.96 0 1.65-.87t.57-1.89q-.24.54-.63.84-.39.3-1.11.6-1.14.42-1.5.96zm-10.86-2.22q.12.24.42.48t.54.24q.36 0 .42-.48-.12-.12-.42-.12h-.48q-.36 0-.48-.12zm7.5 2.34q-.12.36-.12.54 0 .48.39.63.39.15 1.17.27.78.12 1.08.24-.24-.42-.57-.63-.33-.21-.93-.42-.6-.21-.84-.39v-.18l-.18-.06zm7.44 4.86q-.18.12-.54.12-.3 0-.63-.18t-.51-.48q0 .3-.39.75t-.39.69q0 .24.24.48.36.12.6.12.48 0 1.02-.3t.72-.36q.72-.48 1.26-.66v-.12q0-.24-.24-.24t-.6.12q-.36.12-.54.06zm66.24-33.18q.96.48 1.65 1.2t.69 1.56q0 .36-.18.72-.48 2.1-2.04 2.16l-1.8-.72q-3.72-1.5-6-1.98-.18 1.2-1.05 2.1-.87.9-2.07 1.2-.36.18-.72.18-.42 0-1.14-.21t-1.08-.21q-.48 0-.84.36.54.54.54 1.38 0 .42-.12 1.05-.12.63-.06.99-.3.66-.81 1.17-.51.51-1.41 1.23-1.08.84-1.5 1.32l.6.6.72.66q1.5-1.44 2.55-2.73 1.05-1.29 1.65-2.73.72-.6 1.32-.6.54 0 1.02.48.66.66.66 1.68t-.6 2.04q-.72 1.14-1.65 2.01-.93.87-2.67 2.31-1.32 1.08-1.98 1.68 1.14-.36 2.1-.54 1.62-.42 2.64-.78 1.02-.36 1.98-.96l-.36-1.14-.12-1.14q.48-.36 1.26-.36.48 0 .99.09t.99.09q.48 0 .72-.06l1.92.42q.42.18.81.42.39.24.81.42l.9 1.68q.12.54.24 1.86.06.3.06.96 0 3.12-2.22 3.18-.9 0-1.74-.42t-1.32-1.14l-.06.3q-.78.06-1.35.03-.57-.03-.93-.03-.48-.06-1.5-.06-1.92 0-3.36.48 1.56 3 1.56 6.6 0 1.5-.24 2.64-.42.54-.6 1.44-.3.9-.6 1.35-.3.45-.96.57l-.9.54q-.36.12-1.08.24l-2.04-1.8q-.36-.6-1.44-2.28-.54 1.38-2.13 2.46-1.59 1.08-3.09 1.08-1.86 0-2.7-1.74-.06-.18-.06-.54 0-.36.18-.78.18-.42.24-.6.18-.36.33-.78.15-.42.09-.84l-.18-.9q0-.3.06-.51.06-.21.06-.45.6-1.14 1.8-1.14.84 0 1.8.48.24.36.69.66.45.3.57.42.72.48 1.14.9.42.42.42.96 0 .3-.18.78l1.2-.48q.6-.9.78-1.08l-.36-.72q.18-.54.18-.66-.12-.36-.12-1.02 0-.6.09-1.14.09-.54.09-1.08 0-.84-.3-1.44-1.2 1.08-2.64 1.59-1.44.51-3.66.99-1.62.36-2.7.69-1.08.33-2.1.87-.96-.18-1.65-.81-.69-.63-.51-1.53.3-1.62 1.29-3.12t2.31-1.5q.72 0 1.38.48.3-.12 1.68-.57 1.38-.45 2.49-1.02 1.11-.57 1.95-1.29-.36 0-1.2-.24-.78-.3-1.44-.3-.66 0-1.08.36-.18.12-.72.51t-1.08.39q-.3 0-.66-.18-.6-.24-.96-.75t-.36-1.11q0-.78.54-1.38 1.08-1.2 2.52-2.04 1.44-.84 3.42-1.62-.42-.12-.81-.63-.39-.51-.39-.93 0-.54.48-.78.12-.06.42-.06h.24q.72 0 .9-.42l-.18-.6q-.6.06-2.55.3-1.95.24-3.42.93-1.47.69-2.49 1.89-.84.42-1.92.42-1.2 0-2.25-.63t-1.53-1.71q.66-1.56 1.92-3.48l1.02-1.74q-.78.36-1.74.36-1.26 0-2.07-.63-.81-.63-.69-1.83l-.24-.12v-.3q2.46-.24 5.28-1.02.78.06 1.14-.36.36-.42.69-1.26.33-.84.57-1.14-.12.18 1.68-2.04-.6.36-1.5.36t-2.46-.48q-.84-.24-1.26-.3-.06-.18-.06-.6 0-.6.24-1.14.24-.54.63-1.14.39-.6.63-1.08 1.02-1.26 1.92-3.9.9-2.34 1.5-3.24.54-1.08 1.35-1.86t1.77-.78q.6 0 1.08.24.84.42 1.32 1.23.48.81.48 1.71 0 .9-.54 1.74.72 0 1.56-.18.84-.18 1.14-.24 2.04-.48 3.06-.48 1.56 0 2.7.9-.06.24-.15.57-.09.33-.15.69l.78.42.54-1.62q.48-1.92 1.11-2.97.63-1.05 1.89-1.05.24 0 .84.12.96.48 1.38 1.35.42.87.54 2.04.12 1.17.18 2.19.6-.06 1.92-.54 1.44-.48 2.28-.54.96.24 1.65 1.14.69.9.45 1.86-.24.54-.66.84-.42.3-1.2.6-.84.42-1.26.69-.42.27-.66.81-.3.9-.54 2.82-.12 1.5-.42 2.64 1.08.42 3.42.66 1.98.12 3.18.54zM628.44 13.5q-.06.3-.24.72t-.24.72q-.06.3.24-.12.06-.12.3-.42t.24-.48q0-.3-.3-.42zm2.28 0q-.18.06-.18.18t.27.33q.27.21.27.27.18.36.33.9.15.54.33 1.08.3-.6.3-1.02 0-1.26-1.32-1.74zm14.34.84q-.18.24-.18.48 0 .36.72.72t.9.6q.06-.66-.36-1.17-.42-.51-1.08-.63zm-18.84 4.98q1.2-1.98 1.56-3.78-.06-.06-.15-.06t-.15-.06q-2.28 5.46-4.8 10.2.18-.06.6-.06.24-.84.75-1.65.51-.81.63-.99.78-1.2 1.14-1.95.36-.75.42-1.65zm16.26-1.44q-.66 2.1-1.2 5.4.48-.96.69-2.01.21-1.05.33-2.04.12-.99.18-1.35zm9.3.96q-.48.42-1.74.66-1.14.12-1.74.54 1.02.36 2.28.24v.54q.24.06.66-.12.42-.18.6-.18.36 0 .6.36-.12.24-.12.42.9 0 .9-.72 0-.54-.45-1.11-.45-.57-.99-.63zm-10.2 14.94q.3-.42.75-.69.45-.27.57-.33 1.02-.72 1.26-1.02-1.26-.84-3.12-1.44-1.98-.72-3-1.38.6-.6 1.14-.96l1.44-.54q-.84-.84-.84-2.04 0-.84.6-2.52.06-.24.36-1.11.3-.87.24-1.71l-.36.12-.18.48q-1.08-.12-1.62-.12-1.86-.12-2.76-.36-1.08.12-1.68.12-1.62 0-2.94-.66-.12.42-.48 1.14l-.48 1.14q1.14-.66 2.7-.66 1.38 0 4.14.66.36.66.36 1.68 0 .78-.24 1.68-.24.9-.3 1.08-.6 1.8-.6 2.76.72-.18 1.2.33t.48 1.17q0 .96-1.02 1.32-.06-.12-.12-.12t-.12-.06l-.36.18.06.36-.06.84q0 .36.18.66.42-.06.75-.33t.72-.69q.39-.42.75-.6.72.18 1.44.78.72.6 1.14.84zm-6.06-10.38q.06.36.51.72t.51.66q.06.18.12 0t.06-.42q0-.54-.27-.87-.27-.33-.93-.09zm-3.06 6.78q1.08-.06 1.41-.87.33-.81.39-2.19.12-1.08.24-1.62-.42-.12-1.32-.12-.3 0-1.05.03t-1.35-.09q-.6-.12-1.08-.42-.3.12-.3.48 0 .18.09.45l.15.45q.18-.06.6-.06 1.02 0 1.74.87t.72 2.01q0 .36-.24 1.08zM648.6 27q.36-.3.36-.78 0-.24-.12-.45-.12-.21-.36-.27l.12 1.5zm-5.16 1.2q.24.36.72.57.48.21.96.21.72 0 1.14-.48.06-.3.21-1.08t.03-1.38q-2.22 1.5-3.06 2.16zm-11.82.84l.06-.36q0-.42-.27-.84t-.69-.54q.18.24.42.87t.48.87zm9.6-.66q0-.12-.12-.24-.18.06-.45.21t-.45.21h.3q.48 0 .72-.18zm-15.66 3.06q.06-.42.54-1.26.6-1.2.48-1.8-.12.18-.48.81-.36.63-.51 1.17-.15.54-.03 1.08zm3.84-1.8q-.06.18-.09.63t-.15.69q.48-.12.6-.12.12-.24.12-.3 0-.18-.21-.48t-.27-.42zm7.44.42q-.36 0-.36.48 0 .24.15.36t.45-.06q.24-.12.24-.48t-.48-.3zm19.8 5.22q.36-.72.36-1.44 0-1.14-.78-1.95t-2.1-.93q.42.48.84.84.12.12.33.3.21.18.51.36-.18.24-.18.54 0 .66.96 1.08-.06.12-.06.36-.3 0-.54-.06-.24-.06-.54-.06-.54 0-.78.3.24.12.6.36t.69.33q.33.09.69-.03zm-35.1-2.64q.36-.06.93-.06.57 0 .99-.12.42-.12.72-.48-.48.3-1.38.42-.9.12-1.26.24zm11.34.72q-.18.06-.18.24 0 .24.36.6t.6.36q.24 0 .06-.48v-.48q0-.6-.12-.78-.12.06-.51.18t-.21.36zm11.64 2.82q.9.06 1.53-.51.63-.57.93-1.47l-1.14 1.02q-1.2.84-1.32.96zm-17.64.18q.54-.12 1.41-.24.87-.12 1.38-.3.51-.18.51-.54 0-.36-.54-.78-1.26.24-1.95.6t-.81 1.26zm9.66 4.08q.78-.42 1.35-.99.57-.57 1.23-1.47l1.02-1.26-.12-.06q-1.5.24-2.52 1.02t-1.02 2.1q0 .42.06.66zm-15.9-.24q.18.3.48.3.24 0 .48-.24t.24-.48q0-.48-.6-.54l-.6.96zm24.18.12q-.12.12-.12.18 0 .18.72.3.06.48.18.48.06 0 .06-.18 0-.3-.21-.57-.21-.27-.63-.21zm-21.72 1.56q.72.06 1.26-.3t1.32-1.08q-.36.24-.72.36t-.66.3l-1.2.72zm10.92-.06q0-.24.18-.6l-.24.06q-.3 0-.6-.18t-.36-.24q.12.12.39.48t.63.48zm8.82 3.72q-.42.3-1.32.87-.9.57-1.5 1.17t-.9 1.26q.36-.3.93-.72.57-.42.99-.84.9-.72 1.8-1.74zm10.56 6.72q.3-1.2.3-2.4 0-1.74-.75-2.88t-2.43-1.14q.42.3.75.66.33.36.75.66l1.2 1.5q-.18.78-.18 1.74 0 1.2.36 1.86zM627.6 48q.54-.6.66-2.1-.06.24-.42.93-.36.69-.24 1.17zm-3.12 7.98q-.06-.54.12-1.11.18-.57.54-.93-.66.36-.96.96-.3.6-.12 1.14.3 0 .42-.06zm27.48-.84q1.56-.06 2.25 1.35.69 1.41.51 3.09.24 3.66-1.8 4.56-.24.06-.6.06-1.38 0-2.4-.87t-2.28-2.55q-2.4-1.62-2.76-4.26.3-.12.78-.48.48-.36.84-.36t.66.3q.24.06.84.06.78 0 1.68-.24.9-.24 1.08-.3l1.2-.36zm-9.66.36q-.12 1.68-.12 2.58 0 1.32.24 3.84l-.18.18.18.3q.24-1.62.24-3.48 0-2.1-.36-3.42zm9.12.84q1.02.78 1.62 1.59.6.81.84 1.89-.06-.48-.15-1.56t-.51-1.71q-.42-.63-1.38-.57l-.42.36zm-12.48 8.28q-.48-.54-.75-1.2-.27-.66-.45-1.35-.18-.69-.24-.99-.06.18-.27.33-.21.15-.33.27-.06.78.27 1.26t.99 1.02q.06.06.48.45t.6.93q.3 0 .51-.06.21-.06-.09-.24 0-.12.03-.18t.03-.12h-.06v.06q-.12-.24-.3-.12t-.24.12q.12-.18.03-.3t-.21.12zm10.74-2.76q.3.66.96 1.05.66.39 1.38.39.78 0 1.29-.51t.45-1.53l-.36-.18q-.3.12-.48.12v.24l.18.24q-.06-.06-.18-.06l-.18-.06.06.42q.06-.06.18-.06-.24.36-.66.36-.42 0-1.26-.45-.84-.45-1.14-.45l-.24.48zm-20.28 2.82q.66.24 1.38.24 1.2 0 1.98-.84-1.2-.06-2.07-.84-.87-.78-1.23-1.98-.06.3-.45 1.11t-.39 1.29q0 .72.78 1.02z"/></svg>