<svg viewBox="0 0 580 80" xmlns="http://www.w3.org/2000/svg"><path d="M27.78 25.23l1.23-1.2h1.2q12.63 1.91 12.63 3.02l-1.79 1.79h-.61q-12.66 0-12.66-1.79v-1.82zm6.65 11.46l13.86-3.02 1.2 1.23q-.82 2.29-16.26 5.39-2.96 9.38-4.8 11.46v1.81h2.99l4.21-.64v.64l.62-.64h9.61l-4.81-7.24q.8-2.99 1.79-2.99h.65q1.93 0 6.59 12.07l-.59.62h-1.2l-.61-.62-10.81 1.79v-.61l-16.91 3.01-1.2-1.75v-.65q0-1.79 6.03-1.79 3.64-11.45 3.64-15.05h-.65l-4.8.58-.62-.58h-.55l-2.46.58h-2.41l-1.78-1.79v-.64l1.78-1.79 11.49.62 4.8-.62.59.62h.61zM73.05 16.5l1.23-.06 1.32 1.23.17 2.73-.41 4.72 1.93.55 2.44-1.49.67.58.62-.03 8.02-2.54.65.64.03.7q.17 2.82-5.07 10.4l7.53-.49 1.29 1.23q.32 5.5-13.22 20.42l-1.31.08-.09-2.02 8.55-15.38-11.25.76-.67 10.81.82 3.31.53 8.73-1.2 1.38-.65.06q-3.16-11.69-3.84-23.29l-8.08 1.17-1.35-1.93q-.09-2.23 9.81-4.02l.33-5.39q-6.89-.41-6.98-2.22l-.08-.68q1.14-2.78 2.98-2.9l3.84 1.15-.15-2.7q-.29-4.98 1.59-5.51zm19.86 8.18q5.3 5.47 5.51 8.35l-.56.7-2.52.2q-3.75-2.6-5.36-5.71l-.09-1.35q-.06-1.55 3.02-2.19zm-12.92 4.16l-3.75.26-.32 6.06 2.52-.14q2.72-2.4 4.63-7.09l-.65.06-1.79.82-.02-.68-.62.71zm53.26-10.99l1.12 1.11v7.42h1.67l3.95-.59.53.59v1.69l-1.67 1.76-.53-.58q-4.48 0-4.48 3.39l-1.14 6.24.55.59h.59l8.35-1.7h.58l1.09 1.11q-2.08 3.99-10.02 3.99v.59l-6.74 10.81-.59.58v.56h.59q10.08-1.32 10.08-2.26l-2.81-6.85 2.25-1.73q1.26.56 4.48 8l5.6 8.52v.56l-1.11 1.17q-2.82 0-6.74-6.27h-.53q-14.47 2.29-17.37 4.54h-.59l-1.11-1.11q4.57-5.92 10.08-15.97l-3.34-.55-.56.55h-5.07l-1.11-1.14v-1.11l.58-.59 1.64-.56v-.55l3.96.55h2.26l2.78-.55V29.25h-5.04l-1.11-1.18V26.9q0-1.4 2.19-1.67l4.52.56v-.56q.23-7.38 2.22-7.38zm-22.38 9.64l2.23-1.7 7.85 9.14v1.14l-1.12 1.12q-8.96-5.63-8.96-9.7zm-3.4 14.27l9.55 3.39v1.15q0 1.11-1.7 1.11-10.05-.88-10.05-2.84v-1.11q0-.83 2.2-1.7zm-1.11 11.98l2.81 1.11 5.04-1.11 1.11 1.11v.56q0 2.08-8.38 2.87-2.78-.41-2.78-1.73v-1.14q0-1.47 2.2-1.67zm71.36-35.39h.62l1.17 1.2v1.11l-5.42 4.07 1.82 5.19 7.85-1.73.59.59v.55q0 1.21-7.21 4.08v1.7l.58 2.93 7.86-1.21.58.65v.56q0 1.72-7.82 2.84v1.23q0 16.4-5.45 20.21h-.61v-1.76l1.81-10.95v-7.5l-16.87 1.73-.59-.62v-1.11q0-2.08 16.91-3.52l-1.26-4.6-6.63 1.12-1.81-.56-2.99.56-1.82-2.32q0-1.29 3.05-1.73l6.62.59 2.99-.59-1.17-5.18-9.08 4.63h-1.18v-1.73q12.95-10.43 17.46-10.43zm33.67-1.85l1.23-.06 1.32 1.23.17 2.73-.41 4.72 1.93.55 2.44-1.49.67.58.62-.03 8.02-2.54.65.64.03.7q.17 2.82-5.07 10.4l7.53-.49 1.29 1.23q.32 5.5-13.22 20.42l-1.31.08-.09-2.02 8.55-15.38-11.25.76-.67 10.81.82 3.31.53 8.73-1.21 1.38-.64.06q-3.16-11.69-3.84-23.29l-8.08 1.17-1.35-1.93q-.09-2.23 9.81-4.02l.33-5.39q-6.89-.41-6.98-2.22l-.08-.68q1.14-2.78 2.98-2.9l3.84 1.15-.15-2.7q-.29-4.98 1.59-5.51zm19.86 8.18q5.3 5.47 5.51 8.35l-.56.7-2.52.2q-3.75-2.6-5.36-5.71l-.09-1.35q-.06-1.55 3.02-2.19zm-12.92 4.16l-3.75.26-.32 6.06 2.52-.14q2.72-2.4 4.63-7.09l-.65.06-1.79.82-.02-.68-.62.71zm47.17 11.83l-5.83.24-1.12-1.62 1.7-1.55h1.12l4.16.38-.03 2.55zm-1.29-2.4l-.12-4.28h-6.68l-2.28.53-1.15-1.55q.85-2.11 1.7-2.11l7.42.5v-.5l-1.15-10.05q.79-2.14 2.84-3.14 1.7 0 1.7 3.7l8 .52 5.1-.52.59.52v1.03l-1.15 4.25v1.55h4.54l1.7 1.61q0 1.26-6.71.94l-1.81 5.42-.56.5h-.56l-1.75-1.56.61-3.19q-6.88.82-6.88 2.08v3.22q3.43 0 3.43 1.06l-2.73 1.43.44 4.87.59-.53h.58l1.7 1.58-2.87 1.58-.18 2.64q3.05 0 3.05 1.08 0 1.06-2.28 1.06-1.38 4.74-2.29 4.74l-2.26-3.72-4.54.56q-2.28-.82-2.28-1.58v-.56q0-1.58 7.41-1.58v-1.03q0-1.05-5.71-1.05l-1.12-3.19 2.23-1.03 3.43 1.03h.58l-.2-4.6-.38-2.23zm3.4-13.74l-1-.06q.12 5.86 1 5.86 7.44 0 7.44-1.61v-4.19h-7.44zm-20.48 8.44h.58q7.97 3.04 7.97 4.77 0 2.79-4.57 6.33l4.02-.53h.55l1.73 2.11-4.57 8.94h.59q6.06 4.25 22.76 4.25h9.08v1.55h-.58l-3.25.29-10.96.79h-3.43q-5.42-.5-16.52-3.72-3.02 4.69-3.96 4.78l-1.17-1.06v-1.08l1.73-4.75q-3.14-2.14-5.66-5.27l1.7-1.03h.53q2.11 0 5.71 3.17l3.43-5.28-.58-.52h-.59l-3.4.52q-2.87-.9-2.87-2.66l5.71-5.77q0-1.06-5.09-1.61l-1.18-1.56q1.12-2.4 2.29-2.66zm16.05-8.73l-4.92.41-1.11-1.61 1.7-1.56h1.11l2.84-.2.38 2.96zm62.03-4.28l1.81-1.23h1.2l1.23 1.23v42.77l-.64.62h-1.17l-.62-2.4.62-.62-1.23-8.47v-1.78l-1.2-30.12zm-30.24 5.86l4.25-1.79 9.64 1.17 6-.55.62 1.78q-1.82 0-2.43 22.91-1.17 0-1.76 6.6l-1.82 1.84-1.23-1.23 1.79-12.66-6.62-1.78q-1.03 0-2.99 7.23l-3.02 3.58-1.2-1.17 4.22-12.04q-2.75-1-4.22-3.64V34.9l1.2-1.26 3.64 2.43V34.9h.58l-.58-.64.58-2.99v-3.64l-2.4-.61-3.02 1.23-1.23-2.43zm-5.42 1.2l1.82-2.37h1.2l1.84 2.37-.61 14.47v.62q0 7.47 1.79 14.44l-.62.62h-1.79q-2.4 0-3.01-15.68V28.84l-.62-1.82zm26.54 0l1.79-1.2h.59l1.81 1.81v4.22l.62 1.79-.62 3.05v7.82q0 3.11-1.81 3.6-1.79 0-1.12-6.79l-.06-6.42-1.2-7.88zm-10.25.61h-.62l-1.17 10.84q2.2 2.11 5.98 2.41l.61-2.41-.61-2.4h.61l-1.17-7.82h-3.04l-.59-.62zm60.32 2.58l1.82-1.81h.58q5.34 10.07 9.06 12.68l-1.2 1.17h-.62q-5.36 0-9.64-10.87v-1.17zm-12.65 2.41l1.78-2.41q1.85 0 4.84 12.66l.61 1.76v1.81h-1.84q-2.67 0-5.39-13.82zm-9.67-1.79h1.84q1.79 0 1.79 2.37l1.2 12.07v2.4l-.55 2.41q0 1.2 10.22 2.43l10.69.73 4.08.59q-3.34 2.31-13.57 2.31-16.26-1.02-16.26-3.63v-.65l1.2-3.6-1.2-16.88.56-.55zm-4.81 5.36l1.85 1.85v1.2q-1.7 13.27-4.25 13.27-1.2 0-1.2-1.82 0-14.5 3.6-14.5zm56.05-14.5l1.23-1.2h1.17q1.49 0 6.06 15.08l-.64 1.79h9.05l1.2 1.2v.62q0 1.52-13.24 15.06l2.38.61 6.76.03 11.08-.12 3.25.68q-5.42 1.93-20.48 2.43h-2.99q-11.45-1-11.45-3.02v-1.23l1.2-1.17h.58l6.07 1.17 10.22-12.66-4.24-.58h-10.82l-3.01.58h-2.41l-1.81-1.78 1.81-2.43 4.19.61h12.05q0-1.2-2.38-1.2l-4.83-13.21v-1.26zm53.41-1.73l1.02-.97h.53q.73 0 5.65 5.66h.47l6.18-5.66h.56l1.03.97q0 2.67-8.79 8.52h-.5q-6.15-7-6.15-8.52zm-14.95 1.79l1.56-.97q2.22 0 2.58 6.74v1.96h.49l7.18-1 .56.47v2.93q-1.53 8.18-4.13 8.18l-4.63.9-1.52 10.2.49-.06q6.16-1.58 6.16-2.87l-1.53-5.77 1.03-.97h.5q2.57 0 3.63 12.04l-.56.5h-.5q-2.05-.79-2.05-3.4-6.15 3.4-11.31 3.4h-3.6l-1.02-.97v-.96l2.57-.53h4.1l1.06-.26v-9.82h-2.08l-3.6.97-1.03-2.9v-5.27l-.47-1.94q.68-3.4 1.5-3.4h.52l1.53 1.5v7.18l-.5.49v.47h4.13l.5-2.4v-4.22h-3.31l.2-2.05 1.03-.97h.52l.53.53h.53v-3.4l-1.06-4.33zm13.92 7.73l1.52-1.49 1.56 1.49 15.91-1 1.02 1-.47 2.4q0 12.48-2.08 12.48l-.99-.93-3.26.44-.03 4.04q1.85-1 9.79-1.96v.49q0 1.38-10.28 3.87l-.3 11.63-1.29.27-.55-4.78-.3-4.04-.14-3.08h-.53l-8.76.47-1.55-1.93 1.55-1.44 2.61.5 6.36.12-.03-3.17h-7.71q0 2.37-1.02 2.37l-1.03-.9V29.48zm14.88 1.9l-2.55.5.5 4.31q1.17-.97 3.64-.97v-3.84h-1.59zm-24.87 3.02l-.32 3.23.53.49h.49q4.63 0 4.63-6.24l-5.36-.03.03 2.55zm14.59-2.05l-1.52-.47v3.81l6.15.97.53-.47-.53-2.43v-1.88h-.53l-4.1.47zm10.28 5.28l-2.05.96v2.9l3.64-.53v-3.33h-1.59zm-11.3.96h-.5l-.5 3.87h6.12l1.06-.97v-1.43l-1.06-.97h-4.57l-.55-.5zm39.52-18.57l1.2-1.14h10.84q1.17 0 1.17 1.75l-1.82 7.65 6.07.59 4.16-.59.61.59-3.6 9.96h.64l3.58-.53h1.79l1.2 1.14q0 1.96-30.62 4.75l-3.49.35-.73 3.78v8.2l-.55 5.98h-.59l-1.82-1.76-.06-24.81-2.34-1.21-2.43.65-1.85-1.79 1.85-1.76h7.79l1.82 1.76-1.23 7.65 15.64-1.79v-8.2q-6.27.73-7.82 2.34h-.61l-1.76-1.76q0-2.72 11.39-4.16v-5.27l-2.98-.61-2.44.61q-3.01-.76-3.01-1.76v-.61zm-9.58.61q1.52.09 5.97 7.03v1.79l-2.37.56-6.04-5.89q1.24-3.49 2.44-3.49zm23.4 11.19h-2.43l-1.17 7.01h4.81l1.81-5.86v-.59l-3.02-.56zm5.45 12.92q2.35.88 2.35 1.79-3.52 11.49-4.78 11.78l-.61.56h-.56l-4.28-.56-7.15 2.31-1.81-.58v.58q0 1.79-1.23 1.79-1.79 0-3.02-8.85-.53-2.25-.53-6.47l1.15-1.17h1.2l1.81 1.75 3.02-.58h3.02q8.55 0 11.42-2.35zm-17.46 7.65v2.93l.62 2.37q4.25-2.37 10.78-2.37h1.82l.64-5.86h-.64q-13.22.67-13.22 2.93zm52.01-34.16l1.9 1.44v.99l-.65.47v.5h.65l3.1-.97q6.8 1.73 7.48 3.87v.91q0 .96-1.88.96-3.1-1.87-9.96-2.37l-.64 1.91q5.24 0 8.75 3.36v.97l-1.28 1q-3.7-1.97-6.83-1.97h-1.23l-2.52 3.37h-.62q-1.2 0-1.2-1.4 2.64-13.04 4.93-13.04zm-13.07 2.9l1.29-.94h1.2l5.65 3.84v1.41l-.64.5v.46q-5.01-1.58-7.5-3.8v-1.47zm-4.34-.47l1.85 1.44v4.3q6.88 1.09 6.88 2.44v.46l-1.26.97h-.64l-6.21-.47q-2.58 5.8-3.72 5.8-.97 0-1.88-1.96l2.46-7.7-.58-.5q.91-4.78 3.1-4.78zm4.95 14.42l2.52-1.44h.59l2.52 2.9 5.62-1.46 9.96 1.46 5.6-.94 1.23 1.41-1.23 6.27v12.48l.59 2.9q-.74 4.8-2.46 4.8l-1.26-1.43v-1l.61-.47-.61-1.43-1.21-15.41h.59l-.59-.44v-3.87l-12.48-.99q-5.59 1.64-5.59 3.39l7.47-.49h2.49l.61.49h.59l-.59 7.21v1.44l.59 3.37h-.59l1.26 3.86-1.87 1.91-.65-.47-.61.47h-1.23l-.62-.47-5.04.94q-4.33-.74-4.33-2.38l.64-1.43-1.84-1.97.61-1.43v-.97h-.61l.61-3.34v-4.83l1.82-1.91v-.49l-3.11-6.24zm-6.18 2.4h.56q1.9.29 1.9 3.84-1.64 20.21-3.75 20.21l-1.26-1.93.68-16.82-.68-2.9q1.23-2.17 2.55-2.4zm14.3 7.23l-3.14.44v3.4q.18.94 6.27 2.43v-3.89l-.64-2.38h-2.49zm-1.91 8.15l-1.81.5v1.93q.41 1.47 4.95 1.47h3.11l-.59-.5v-2.9l-5.66-.5z"/></svg>