<svg viewBox="0 0 617 80" xmlns="http://www.w3.org/2000/svg"><path d="M30.22 22.18v-.3q3.6 1.5 6.48 1.5.3-.18.6-.18.12 0 .12.18l.3-.18h1.5q2.46 0 3 1.68v.3q0 .48-2.82 1.02-1.92 1.2-3.78 1.5l-.12-.3v-.42l1.2-1.38v-.12q-3.72 0-6.48-3.3zm17.7 9.42q2.28.36 2.28 1.68v.3q0 .6-5.7 1.32-2.82.6-8.88 2.7v.18l.48.6v.3q0 1.62-5.58 10.8 9.6-3.72 10.8-4.08l.3.48v.3q-5.7 4.38-15.42 8.1-2.4-.6-2.4-1.98 2.64-.96 3.42-2.22 3.36-5.46 4.83-8.13 1.47-2.67 1.47-3.57-12.48 4.8-14.22 4.8-3.6-.66-3.6-1.38 2.58-.66 5.97-1.89 3.39-1.23 6.87-2.55l4.98-1.86q6.6-2.4 13.38-3.72.54-.18 1.02-.18zM40 41.5l.3-.12q1.86.84 5.82 2.1 1.74.96 3.48 2.7 2.34 2.58 2.7 4.32 0 .78-.78 1.2h-.3q-.42 0-4.02-1.62-1.14 0-1.68-.9V49q0-.24 2.1-.9v-.12q-2.7-3.18-5.52-4.2Q40 41.92 40 41.5zm49.02-23.7l.3-.18q3.18 2.82 3.18 3.6v3.3l-.18 1.8q.18 0 .18.18 2.4-1.2 4.2-1.2h.72q1.5 0 2.1 1.32v.48q0 .66-4.02 6.72-.24.06-1.2 1.38v.12q6.06-2.22 8.4-2.22 6.6.9 6.6 3.72-.78 0-3.3 5.7-2.88 4.68-7.68 7.5 0 .3-.72.3-1.86 0-4.38-6.42h-.12v.12l.3 7.2-.18.3q0 .18.18.18l-.18.72q0 13.08-1.62 13.08h-.3l-.48-.3q.48-3.84.48-6.18V54.4q0-3.66-.78-14.7-.3-.18-.42-.18-10.98 4.68-12.18 4.68-1.56 0-2.43-.21-.87-.21-.87-.57 5.58-1.68 15.6-6.42 0-.18.18-.18-.18-3.72-.18-5.52v-1.5q-1.02.12-1.62.42l-3.48-.3v-.3q.36-.36 3-1.2l2.28-1.2q0-.12.12-.12 0-.3-.12-.3l.12-3.3v-.6q0-2.22-1.5-4.98v-.12zm10.68 2.4q1.56 1.5 2.52 1.5 1.86 0 2.7.12.36-.12.6-.12 1.98.54 1.98 1.92v.3q0 .18-.78.78h-.9q-.6 0-3.42.3-.9-.3-.9-.6.3-.6.3-.9-1.14 0-2.7-1.8 0-1.5.6-1.5zm-7.5 9q.3 2.82.3 4.62h.3q3.3-4.56 3.3-6.3h-.6q-1.32 0-3.3 1.68zm.42 9.3l.3 4.2q1.14.24 3.9 4.8h.48q5.46-4.02 6.42-7.38 1.38-2.58 1.38-4.02-1.14-.48-1.68-.48h-2.1q-5.34 1.26-8.7 2.88zm64.26-19.8h.3q3.42 1.14 3.42 2.1-.3 6.9-.3 9.12h.18q.3 0 .3-.3-.3 0-.3-.3v-.12q0-.24.42-.48h2.4q1.98.18 1.98 1.5v.48q0 .48-2.58 1.02-2.52 1.32-2.52 1.68 0 2.04-.6 5.82l7.8-2.4q0-.12 3.12-.42 1.98.54 1.98 1.8 0 .9-2.1.9-1.08 0-6.48 1.8-3.9.84-3.9 1.32-2.16 4.2-4.8 8.28v.12h.18l6.3-2.7.12.3q0 .9-1.98 2.43-1.98 1.53-5.82 3.45-2.04 1.02-3.6 1.32-1.32 0-2.1-1.2v-.6q0-.54 2.4-1.32 3.66-3.3 5.7-7.68.48-.78.48-1.32-8.64 3.3-11.1 3.3h-.9q-.12 0-1.68 3.9-1.2 2.52-1.92 4.8l-.3.12h-.6q-1.26 0-2.7-3.72v-.3h.12q.66 0 1.5.72h.3q.12-.3 3.6-5.52v-.18q-.96 0-1.8-1.62l.3-.18h.6q4.32 0 15.78-4.62-.9-1.08-.9-1.68v-.12q1.02-.54 1.02-1.38.18-.9.18-1.92v-1.2q-2.88.9-4.2.9-3-.96-3-2.1.3-.18.42-.18.78.48 1.68.48l5.22-1.8v-.78q0-.12.18-.12 0-.18-.18-.18l.18-.72v-1.26q.12-2.52.12-5.94 0-.66-2.22-2.88V19q0-.3.3-.3zm-16.5 6.12h.3q5.82.42 5.82 2.58v.6q0 .12-2.52 1.32-.9.9-1.68.9h-.9q-.3 0-.3-.3v-.12q.24-.24 1.17-1.29.93-1.05.93-1.29-3.3-1.32-3.3-1.92 0-.18.48-.48zm.72 13.08q1.8.42 1.8.9v.3q0 1.2-1.8 1.32-1.74 1.38-3 1.38-.12-.18-.12-.48l.6-1.02h-.3q-3.9 0-3.9-.9 1.44-.48 6.72-1.5zm20.58 6.9l.3-.18q.18 0 2.4 1.2 5.7 2.22 8.1 6v.78q0 .18-.6.6h-.48q-5.04-1.62-5.1-2.28v-.12q.12-.3.3-.3h.9v-.3q-4.62-2.4-5.82-5.4zm57.12-27h1.2q1.8.6 1.8 2.1-.42.54-3.72.78-3.06 1.5-4.68 1.5l-.12-.3q0-.3 1.02-1.38h-.72q-.78 0-1.5.18-4.2-.6-4.2-1.2v-.18q.72 0 .72-.12l.78.12h1.32q1.02 0 8.1-1.5zm-6 6.18h.48q1.98 1.02 3.72 2.7 3.72-2.1 4.5-2.1h.6q.24 0 .9 1.02v.6q-.24.48-4.5 2.4 0 .12-.9.78.24 3.6.78 5.82 3.84-1.26 6.72-1.92v-.18q-.78 0-1.5-.72 0-.42.6-.48 6.12 0 7.38 1.98v.3q0 1.02-1.08 1.02l-.3-.12q-2.88 0-11.7 2.52v.3l.18 4.98.12.3q0 .12-.12.12l.3 5.7q0 11.58-2.88 11.58h-.3q-4.02-2.76-4.02-4.08l.3-.12h.3q2.46 1.62 3 1.62 1.2-1.5 1.2-12.12v-.9q0-2.82-.3-6.6-.6 0-12.6 4.92-3.6 1.5-4.68 1.5h-1.5q-2.82-.24-2.82-.9v-.12q0-.3.3-.3h.42q4.26 0 16.98-6.18 1.68-.66 3.72-1.32-.36-5.7-.9-5.7-.18.12-.6.12 0-.3-.3-.3-3.72 1.2-5.7 1.5-2.7-.12-2.7-.6v-.12q0-.18 1.05-.45t2.73-.63q3.42-1.32 5.4-2.22l-1.32-1.8q-.72-.84-1.08-1.38.12-.36.12-.42zm56.22-6.18l.3-.18q3.18 2.82 3.18 3.6v3.3l-.18 1.8q.18 0 .18.18 2.4-1.2 4.2-1.2h.72q1.5 0 2.1 1.32v.48q0 .66-4.02 6.72-.24.06-1.2 1.38v.12q6.06-2.22 8.4-2.22 6.6.9 6.6 3.72-.78 0-3.3 5.7-2.88 4.68-7.68 7.5 0 .3-.72.3-1.86 0-4.38-6.42h-.12v.12l.3 7.2-.18.3q0 .18.18.18l-.18.72q0 13.08-1.62 13.08h-.3l-.48-.3q.48-3.84.48-6.18V54.4q0-3.66-.78-14.7-.3-.18-.42-.18-10.98 4.68-12.18 4.68-1.56 0-2.43-.21-.87-.21-.87-.57 5.58-1.68 15.6-6.42 0-.18.18-.18-.18-3.72-.18-5.52v-1.5q-1.02.12-1.62.42l-3.48-.3v-.3q.36-.36 3-1.2l2.28-1.2q0-.12.12-.12 0-.3-.12-.3l.12-3.3v-.6q0-2.22-1.5-4.98v-.12zm10.68 2.4q1.56 1.5 2.52 1.5 1.86 0 2.7.12.36-.12.6-.12 1.98.54 1.98 1.92v.3q0 .18-.78.78h-.9q-.6 0-3.42.3-.9-.3-.9-.6.3-.6.3-.9-1.14 0-2.7-1.8 0-1.5.6-1.5zm-7.5 9q.3 2.82.3 4.62h.3q3.3-4.56 3.3-6.3h-.6q-1.32 0-3.3 1.68zm.42 9.3l.3 4.2q1.14.24 3.9 4.8h.48q5.46-4.02 6.42-7.38 1.38-2.58 1.38-4.02-1.14-.48-1.68-.48h-2.1q-5.34 1.26-8.7 2.88zm56.16-24.42h.12q3.18 1.56 3.18 2.82-.78.96-.78 2.7v1.2h.18q.24 0 1.2-.72 2.4.3 2.4 1.62v.3q0 .18-.6.6h-1.08q-2.1.66-2.1 1.2v1.98q3.3-1.38 4.08-1.38 5.52 1.02 5.52 3v.6q0 .3-1.5.48-1.98 2.64-4.5 7.2.24 0 .6.6 0 .84-1.32 1.8 2.28-.18 3.3-.18h.12q2.28.18 2.28 1.8-.18.78-.48.78l-1.92-.18q0 .42-1.2.6h-.78l-.42-.3h-.3q-9.3 7.08-9.6 7.08-.6.3-.9.3v.12q1.14 0 2.82 2.7 6.66 5.04 12.18 5.4l1.32.18q1.02-.18 1.98-.18v-.12q-.18-1.62-.18-2.88l.3-.12h.3q.24 0 3.3 3.72.72 0 1.08 1.5.42 0 .42.3v.3q-.36.78-1.2.78-.96 0-3.12.12-6.66 0-14.58-4.8-5.1-3.96-5.1-6.6l.18-.3q-1.14.3-1.98.3-2.82-1.08-2.82-1.8 0-.24 4.5-1.02 3-1.56 5.82-3.48-.66-1.02-.72-1.02-1.26.6-2.28 1.32-2.76 0-3.3-1.62-2.22-6.06-2.22-10.2.12-2.28.72-2.28 1.2.18 1.2 1.2 3.18-1.74 6.6-2.82V24.7q-.72 0-.72-.42l.3-.6q-.18 0-.18-.18-.6.3-1.02.3-2.52-.18-2.7-.72v-.18q0-.18 3-.72 1.32-.6 1.32-.78v-1.92q0-1.32.3-3-.18-.3-.6-.9-.42-.6-.72-1.08v-.12q0-.3.3-.3zm7.62 13.02l-1.92.3q-.3 0-.48-.12-2.7.78-2.7 1.2v2.1l.18 1.02 4.5-2.4q.6-1.92.6-2.1h-.18zm-13.5 4.2v.18q0 3.9.9 3.9 4.8-1.8 5.88-3V29.2q0-.3-.3-.3-5.22 2.4-6.48 2.4zm8.58 4.98v.6l1.62-1.8v-.18h-.12q-1.44 1.02-1.5 1.38zm-7.38 1.02v.18q0 1.38 1.8 2.82.36 0 2.28-2.82 1.32-1.38 1.32-1.68v-.72q-5.28 1.98-5.4 2.22zm7.08 3.48v.12l2.4-1.32v-.3l-.9-.3q-1.5.36-1.5 1.8zm16.5 1.32q1.26 0 2.52 2.58-.3.72-.6.72h-.12q-.66 0-3.3-.6l-.6.3-2.4-.12q-1.74.24-3.48.24-2.4 0-2.4-.72v-.12q0-.36 4.98-1.2 3.24-1.08 5.4-1.08zM331 44.38h.48q.36.12 1.62 1.5 0-.3.9-.9h.48q.24 0 .6 1.02l-.3 1.8q.3 2.22.3 2.88-.6.6-1.2.6-2.28 0-2.28-4.2-.9-1.92-.9-2.28v-.12q.12-.3.3-.3zm-10.92 4.2q.36 0 .72.72-.12 1.14-.12 2.88v1.2l.72-.48q.3.48.3.6l-.12.48.12.72q-.12 1.38-.12 2.88.42.66.42 1.2v.42q-.18.48-.9.48-2.52 0-2.52-4.5V55q0-6.42 1.5-6.42zm72.6-30.54v-.18q.54 0 3.6 2.88v.6q-1.08.6-1.08 4.62l-.12.78q.12.36.12.6h-.12l.12.3v2.1h.18q4.68-1.68 6-1.68 3.24.3 4.92 1.05 1.68.75 1.68 1.83v.3q-.18.3-8.28 5.22 0 .18-.9.9h.18q.6-.3 1.2-.3h.6q1.62 0 1.62 1.38v.42q0 .48-3.3.9l-3.6 1.38q-.12 1.5-.12 3.12l.12.48h-.12q0 .12.12.12l-.12 1.8v4.08q-.78 7.56-.78 8.82-.18 2.7-.6 2.7h-.12q-.6 0-.6-5.82V42.46h-.18q-3.9 1.5-4.32 1.5-1.8-.12-1.8-.72v-.3l5.82-3.18.48-.42v-4.2l-.18-.9q0-.18.18-.18-.18-.54-.18-1.2-4.56 1.14-7.5 2.58l-3.42.9q.72 6 2.7 9.12 0 .42-.9.9-1.8-.72-2.7-3.42-1.26-4.44-1.38-7.98.36-4.62 1.08-4.62h.3q.24 0 .42.42v3.18q0 .12-.12.12.12.36.12.9l9.3-3.9q1.98-.6 2.1-.6v-3q0-.6-.12-1.32 0-3.84.72-6.18-.9-.84-1.02-1.92zm2.52 14.22l.3 5.28q3.12-2.34 7.5-6.9v-.18h-.12q-5.46 1.2-7.68 1.8zm66.48-11.58q.84 0 1.92 1.32v.6q-.12.48-1.92.78-.6.6-2.4 1.92h-1.08q-.3 0-.3-.72-2.16.18-2.22.3-2.16 0-2.7-1.2.18-.6.42-.6h.48q1.98 0 7.2-2.28.36-.12.6-.12zM444.1 22q3.9 2.28 3.9 3.9-.42.48-2.52.78-2.28 1.56-3.3 1.92v.3q3.3 1.26 3.3 2.7-.42 1.8-3.6 6.3v.3q1.2 0 1.8 7.38h.12l.48-.3q.3.12.3.3v1.32q-1.2 3.54-1.2 5.58-.6.42-1.08.42-.84 0-1.32-1.62.24-1.44.6-6.9-.36-4.2-.6-4.98h-.3q-3.24 3.06-6.78 3.9h-.12q-.84 0-.9-.42 0-.72 2.52-1.98 5.28-2.82 7.5-9.12v-.18q-1.5-1.2-3.12-1.2l-.78.18q-.9-.9-.9-1.5v-.3q.24-.42 2.28-1.2.54-.6 4.02-3-.72-1.26-.72-1.68v-.42q0-.24.42-.48zm24.18 6.48h1.8q2.82.48 2.82 1.2v.3q0 1.02-1.5 1.02-1.8.72-5.22 1.2-5.82 1.68-9.3 3.6-4.86 1.62-7.98 2.4h-.12q-1.92 0-2.88-1.32v-.3l.18-.3 1.5.3q8.46-2.88 13.2-5.4 7.02-2.7 7.5-2.7zm-8.1 6.9l.12-.3q4.08 2.34 4.08 6.12.6 5.58.6 10.98v1.5q0 2.22-1.38 4.62 0 .78-1.2.9-5.4-4.08-6.12-5.22v-.18q0-.3.42-.3.3 0 4.98 2.58h.12q.78-1.86.78-4.2V46.3q0-7.62-1.38-8.7-1.02-1.38-1.02-1.92v-.3zm48.84-17.58l.3-.18q3.18 2.82 3.18 3.6v3.3l-.18 1.8q.18 0 .18.18 2.4-1.2 4.2-1.2h.72q1.5 0 2.1 1.32v.48q0 .66-4.02 6.72-.24.06-1.2 1.38v.12q6.06-2.22 8.4-2.22 6.6.9 6.6 3.72-.78 0-3.3 5.7-2.88 4.68-7.68 7.5 0 .3-.72.3-1.86 0-4.38-6.42h-.12v.12l.3 7.2-.18.3q0 .18.18.18l-.18.72q0 13.08-1.62 13.08h-.3l-.48-.3q.48-3.84.48-6.18V54.4q0-3.66-.78-14.7-.3-.18-.42-.18-10.98 4.68-12.18 4.68-1.56 0-2.43-.21-.87-.21-.87-.57 5.58-1.68 15.6-6.42 0-.18.18-.18-.18-3.72-.18-5.52v-1.5q-1.02.12-1.62.42l-3.48-.3v-.3q.36-.36 3-1.2l2.28-1.2q0-.12.12-.12 0-.3-.12-.3l.12-3.3v-.6q0-2.22-1.5-4.98v-.12zm10.68 2.4q1.56 1.5 2.52 1.5 1.86 0 2.7.12.36-.12.6-.12 1.98.54 1.98 1.92v.3q0 .18-.78.78h-.9q-.6 0-3.42.3-.9-.3-.9-.6.3-.6.3-.9-1.14 0-2.7-1.8 0-1.5.6-1.5zm-7.5 9q.3 2.82.3 4.62h.3q3.3-4.56 3.3-6.3h-.6q-1.32 0-3.3 1.68zm.42 9.3l.3 4.2q1.14.24 3.9 4.8h.48q5.46-4.02 6.42-7.38 1.38-2.58 1.38-4.02-1.14-.48-1.68-.48h-2.1q-5.34 1.26-8.7 2.88zm63.66-24.72q4.14.6 4.5 1.38.3.72.3 1.62v.18q0 1.5-.9 4.02h.3q2.82-1.8 3.12-1.8 1.2 0 1.38.6v1.08q-2.4 1.38-4.98 2.22-.72 0-1.8 2.7h.18l1.5.18q.12 0 .12-.18l.78.18h1.5q1.14 0 1.8 1.8-.42.72-.6.72-.72 0-6.18-1.5h-1.2q-.48 0-.72-1.32.66-.54 1.2-1.68l-.18-.72q1.38 0 2.28-7.2-2.52-1.26-2.7-1.68v-.3q0-.3.3-.3zm-11.7 5.7q4.62.18 4.62 1.38v.12q0 .66-.9 2.58h.18q3.54-1.68 3.72-1.68h.18q1.32 0 1.32 1.68-.78.78-2.1 1.32v.18q.3 0 .48 1.32 0 .36-1.08 3l.18.78v.6q-.36.6-.9.6-1.68-.24-1.68-1.8.3-1.5.3-1.98v-1.02q0-.18.18-.18-.18-.3-.18-.6-2.52.78-2.52 1.98-.84 1.32-1.8 1.92h-.78q-.9-.72-.9-1.5v-.12q.6-.72 1.08-2.58 1.14 0 2.4-4.32-2.1-.96-2.1-1.2v-.18q0-.3.3-.3zm18.72 10.08q5.34 0 7.5 3.42v.9q-1.02.42-1.02 5.28v.12l.6 9.18-.18 1.32.18.3q0 .18-.18.18.3 2.22.3 4.92 0 4.32-1.5 7.5-.6.48-1.02.48h-.3q-1.14 0-4.08-3.48v-.12q.12-.3.3-.3l3.18 1.62q.9-1.98.9-6.12v-4.2l-.18-1.08h.18q0-.12-.18-.12l.18-1.5v-1.08q-.78-8.22-.78-10.62v-3.3q-1.98-.9-3-.9-2.4 0-8.82 1.8l-2.58.42q-1.02-.18-1.02-.6 0-.3 4.5-1.92 5.1-2.1 7.02-2.1zm-22.32 5.52l6.42-.3q1.38.66 1.38 1.98-3.18 1.44-4.5 4.2-1.98 4.14-3.18 11.82 0 .48-.3 1.98.18.6.18 1.02-.66.48-1.2.48-1.38-.66-1.38-1.98 2.4-10.14 3.78-14.1.9-1.68 2.22-3.42v-.3q-3.72 0-3.72-1.2l.3-.18zm15.3 1.68h.42q3.9 1.2 3.9 2.82v.6q-1.02.42-1.02 2.88l-.18 6.12.18 2.1-.48.3h-.42l-2.58-.6q-4.62 1.74-5.4 2.4h-.42q-.9-.9-1.38-.9-.9-.84-.9-1.62 1.14-12.3 2.28-12.3h.6l.42.3q.24 0 4.98-2.1zm-5.4 7.92h.12q5.7-3 6.3-3v-1.02q0-.36.18-.6-.18-.3-.18-.6v-.48l-.6-.12q-4.26 1.14-5.4 1.92-.42 2.46-.42 3.9zm-.3 1.98q-.3 3.06-.3 4.02v.3h.3q3.78-4.2 4.62-6.12v-.3h-.12q-4.32 1.92-4.5 2.1zm4.02 2.4h.3q1.86-.9 2.4-.9v-2.58q-.9 1.02-2.7 3.48z"/></svg>