<svg viewBox="0 0 686 80" xmlns="http://www.w3.org/2000/svg"><path d="M26.52 15.84q-.54.78-.69 1.08-.15.3 0 .42t.3.81q.15.69.81.96t1.35 0q.69-.27.96-.27t.54-.15q.27-.15.27 0t.3.3q.3.15 2.19.15t2.19-.15q.3-.15.42-.3t.54-.15q.42 0 1.38.15t1.65.3q.69.15 1.5.27.81.12 1.23.12h1.38q.96 0 2.19.42t1.23.69v.39q0 .12-.42.69t-1.38 1.8l-1.5 1.92q-.54.69-.81.96t-1.23 1.08q-.96.81-1.11.96-.15.15-.27.42l-.12.27v.12q0 .12.93-.42t1.5-1.08q.57-.54.96-.81t.81-.69q.42-.42.69-.57.27-.15.54-.42t.69-.66.69-.66q.27-.27.54-.69.27-.42.69-.84.42-.42.69-.54.27-.12.81-.42t.96-.57q.42-.27.69-1.08.27-.81.54-1.35l.27-.54-1.08-.27q-1.08-.27-1.62-.27t-.84-.15q-.3-.15-.42-.15t-.39-.27q-.27-.27-3.84-.54t-5.34-.42q-1.77-.15-2.73-.15h-2.07q-1.11 0-1.23-.12-.12-.12-.39-.12h-1.38q-.27 0-.54-.15t-.69-.15h-.54q-.12 0-.54-.12l-.42-.12-.42.54-.42.54zm28.5 15.84q-.3 0-2.49.57-2.19.57-2.46.57h-.42q-.15 0-.96.27-.81.27-1.35.39t-1.23.39q-.69.27-1.38.57-.69.3-.69.15t-.12-.15q-.12 0-1.5.42t-3.3.96q-1.92.54-2.73.81t-1.5.54q-.69.27-.84.27h-.27q-.12 0-.54.15-.42.15-.69.15-.27 0-2.31.69t-2.61.81q-.57.12-.69 0t-.27-.12h-.42q-.27 0-.54.12t-1.08.39q-.81.27-2.61.69-1.8.42-2.07.42h-.54q-.27 0-.54-.54t0-.69q.27-.15.42-.15.15 0 .42-.27l.54-.54q.27-.27.54-.42.27-.15.69-.42.42-.27.69-.27h.66q.15 0 .15-.12v-.42q0-.3-1.5-.15t-1.92.42q-.42.27-.69.42-.27.15-.42.27-.15.12-.27.12h-.54q-.42 0-.96.57t-.81.96q-.27.39-.42.81-.15.42-.15.54 0 .12.42.42t1.11 1.38q.69 1.08.81 1.08h3.27q.39 0 .39-.15t.15-.15q.15 0 .42-.12t.69-.12q.42 0 .69-.15.27-.15.81-.15t.81-.12q.27-.12.42-.12h.42q.27 0 .54-.15t.42-.15h.42q.27 0 .69-.12.42-.12 2.04-.54 1.62-.42 2.31-.57.69-.15.96-.15t.42.15q.15.15.54 0t.69-.27q.3-.12 1.11-.54.81-.42 1.35-.42t.54.42v1.11q0 .69-1.35 3.42t-2.88 5.04q-1.53 2.31-1.65 2.73-.12.42-.39.96t-.54.84q-.27.3-.42.69-.15.39-.57 1.08-.42.69-.81 1.23-.39.54-1.23 1.65-.84 1.11-1.11 1.65-.27.54.15 1.23.42.69.69 1.23.27.54 1.08 1.08t1.23.42q.42-.12.84-.12t6.15-3.03q5.73-3.03 6.84-3.57 1.11-.54 1.38-.81.27-.27.69-.42.42-.15.54-.27.12-.12.66-.39t1.23-.69q.69-.42 1.11-.96.42-.54.84-.96l.42-.42.27.15q.27.15.54.54t.96 1.62q.69 1.23.69 1.65v.57q0 .15.12.42t.27.54q.15.27.42.54t.54.81q.27.54.42.96.15.42.54 1.38t.93 2.04q.54 1.08.84 1.38.3.3.42.57.12.27.27.27.15 0 .42-.15t.81-.57q.54-.42.54-.69 0-.27-.54-2.04t-.81-2.58q-.27-.81-.54-1.77t-.42-1.38q-.15-.42-.3-.69-.15-.27-.42-.96t-.54-1.23q-.27-.54-.96-1.38-.69-.84-1.08-1.65-.39-.81-.54-1.35-.15-.54-.42-1.65-.27-1.11-1.35-2.07-1.08-.96-1.77-.66-.69.3-1.23.57-.54.27-.54.93t.54 1.35q.54.69.66 1.11.12.42.27.69.15.27.15.42v.42q0 .27-.81 1.23t-1.11.96h-.42q-.12 0-.39.27t-.69.39q-.42.12-.84.42t-.96.57q-.54.27-.81.27t-.42.12q-.15.12-.42.27l-.27.15v.12q0 .12-.12.12H42q-.12 0-.42.15t-.57.27q-.27.12-.54.27-.27.15-.66.3l-.39.15h-.15q-.15 0-.42.12t-.54.27q-.27.15-.69.27-.42.12-.69.27-.27.15-.54.15h-.69q-.12 0-.12.12t-.15.12q-.15 0-.57.15-.42.15-.81.27-.39.12-1.23.42t-1.23.3q-.39 0-.39-.3v-.42q0-.12 1.23-1.89t1.5-2.19q.27-.42.54-.57.27-.15.27-.42v-.27l.15-.27q.15-.27.96-1.62.81-1.35 1.08-1.65.27-.3.27-.42t.15-.27.15-.27v-.12l.27-.69.54-1.38q.27-.69.69-1.38.42-.69.69-1.65.27-.96.39-1.23t.39-1.08q.27-.81.84-1.35t1.65-.96q1.08-.42 1.62-.57.54-.15.96-.42.42-.27.57-.39.15-.12.42-.27.27-.15.66-.27.39-.12.69-.12.3 0 .69-.15.39-.15.81-.3.42-.15.69-.15.27 0 .54-.27t.96-.27q.69 0 2.19-.27t3.42-.39l1.92-.12.42-.57q.42-.57.69-.84.27-.27.39-.66t.12-.54v-.69q0-.54-.12-.54h-3.69q-.81 0-1.35.12l-.54.12zm37.8-19.44q-.24 0-.39.15l-.15.15-.15.15q-.15.15 0 4.8.15 4.65.15 5.61t.3 2.58h-3.33q-.27 0-.96.15t-.96.15q-.27 0-.27.39v.93q0 .54.57.96.57.42 1.23.42h1.62q.42 0 .69.15.27.15 1.41.15v4.08q.24 5.22.24 7.8t-.12 2.73q-.12.15-.42.57-.3.42-1.53.96t-2.04.69q-.81.15-1.35.27-.54.12-1.38.39-.84.27-1.23.42-.39.15-1.23.42l-.84.27v-.96q0-.42-.39-.42t-1.23.42q-.84.42-1.38.81-.54.39-.81.54-.27.15-.54 0t-.42-.15q-.15 0-.42.15l-.54.3q-.27.15-.54.27-.27.12-.42.27-.15.15 0 .42t.27.96q.12.69.39.96t1.53.12q1.26-.15 2.19-.15h1.23q.3 0 .96-.27.66-.27 1.08-.54.42-.27 1.11-.42.69-.15 1.23-.27.54-.12 1.08-.27.54-.15 1.11-.27.57-.12.84-.12h.39q.12 0 .39-.27t.69-.42q.42-.15 1.26-.42.84-.27.96-.15.12.12 0 .96t-.12 1.26q0 .42-.15.81-.15.39 0 .66t.15.69v1.53q0 1.11-.15 2.61-.15 1.5-.15 3.69t.15 2.85q.15.66.15 1.35 0 .69.54 1.11.54.42.93.15t.54-.42q.15-.15.15-.42t.15-3q.15-2.73.15-4.38v-4.5q0-.15.12-.3t.12-.81v-1.35q0-.69.15-2.19l.15-1.5.66-.27q.66-.27 1.23-.27t2.49-.69q1.92-.69 2.46-.84.54-.15.96-.42.42-.27 1.92-.42 1.5-.15 4.08-.42t3-.27h1.77q.27 0 .69.15l.42.15v1.77q0 .69-.42 2.61t-.69 2.34q-.27.42-.27.54 0 .12-.12.54-.12.42-.27.69-.15.27-.27.96-.12.69-.42 1.23t-1.11 2.31q-.81 1.77-1.08 2.46t-.42.69q-.15 0-.69.27-.54.27-.81.27t-.69.15q-.42.15-.54 0-.12-.15-.27-.15h-.84q-.69 0-1.23-.12t-1.77-.12q-1.23 0-2.46-.42t-1.35-.69q-.12-.27-.12-.54t-.69-.42q-.69-.15-.69.12v.42q0 .15.12.27.12.12.12.39t.15.42q.15.15.27.3.12.15 0 .15t-.12.12v.12h.24l.3.15q.3.15.57.42.27.27 1.35 1.23t1.92 1.23q.84.27 3.69.27h4.53l.54-1.62q.54-.84.81-1.38l.42-.84q.15-.3.27-.57.12-.27.27-.54.15-.27.15-.39v-.27q0-.15.12-.42t.27-.54q.15-.27.42-.54t.42-.69q.15-.42.15-.69 0-.27.12-.54t.27-.54q.15-.27.15-.42v-.15l.12-.27q.12-.27.27-.69.15-.42.27-.69.12-.27.27-.96.15-.69.27-.96.12-.27.54-.96.42-.69.96-3.27t.54-3.12v-.84q0-.3-.12-.57-.12-.27-.27-.39-.15-.12-.42-.27-.27-.15-.81-.15h-2.88q-2.34 0-3.96.15t-3 .15q-1.38 0-1.65.12t-.69.27q-.42.15-.54.15-.12 0-.27-.27-.15-.27-.27-.42-.12-.15 0-.42t.27-.54q.15-.27.15-.42 0-.15.12-.69.12-.54.27-1.08.15-.54.15-.96 0-.42.12-.81.12-.39.12-.69 0-.3.15-.57.15-.27.42-4.08t.12-4.11q-.15-.3-.15-.69 0-.39-.66-.39t-1.89.12q-1.23.12-1.8.27-.57.15-1.38.15-.81 0-1.23.12-.42.12-.81.12h-1.65q-.12 0-.81.15-.69.15-.69-.12V14.19q0-.81-.15-.96-.15-.15-.27-.42-.12-.27-.54-.54-.42-.27-.69-.15l-.27.12zm9.6 16.44q.54.84.39 3.03-.15 2.19-.42 3t-.27 1.23q0 .42-.12 1.11-.12.69-.27 1.08-.15.39-.3 1.5-.15 1.11-.81 1.65-.66.54-1.35.42-.69-.12-.96-.12h-.42q-.15 0-.27.27-.12.27-.42.66t-.69.54q-.39.15-.66 0l-.27-.15-.15-1.23q-.15-1.23-.15-2.46v-2.58q0-1.35-.12-3t-.12-2.19v-2.61q0-.15.66-.15t1.35-.12q.69-.12 1.23-.12h1.23q.69 0 .69-.15v-.15h1.38q.3 0 .42.15t.27.27l.15.12zm2.16-13.92q-.24.24-.24.39v.15l.39.39q.39.39 1.08.96.69.57 1.65 1.53.96.96 1.92 1.5t2.61 1.35 2.61 1.35q.96.54 1.35.96.39.42.39.84v.81q0 .39.57.39t.84-.39q.27-.39.66-.81.39-.42.39-.69 0-.27-.27-.96t-.66-1.5q-.39-.81-.54-1.08-.15-.27-1.11-.54-.96-.27-1.38-.57-.42-.3-1.38-.84t-1.62-.96q-.66-.42-1.77-1.08-1.11-.66-1.8-.93t-1.08-.42q-.39-.15-1.35-.3l-.96-.15-.15.3-.15.3zm60.84-4.98q-.84.84-.96 1.26-.12.42.15.27.27-.15.39-.27.12-.12.27.42.15.54.15 2.73v8.91q0 .42.12 1.5t0 1.23q-.12.15-1.23 0-1.11-.15-1.65-.3-.54-.15-1.62-.15h-1.92q-.84 0-3.84-.24v.84q0 .78.54 1.2.54.42 1.5.54.96.12 1.65.12t.69.15q0 .15.27.57.27.42.54.96t.69 2.04q.42 1.5.96 3.84t.84 4.26l-.54 1.08-.96.96q-.42.42-.57.54-.15.12-.42.27-.27.15-.66.42t-.69.54q-.3.27-.57.54-.27.27-.54.42-.27.15-.39.15h-.27q-.15 0-.69.12-.54.12-.96.27-.42.15-.96.27-.54.12-.96.27-.42.15-.54.15h-.12l.12-.42q.12-.42.27-.81.15-.39.54-2.19.39-1.8.81-3.3.42-1.5.57-2.31.15-.81.15-1.92V33.6h-.3l-.69 1.8-.69 1.8v.39q0 .15-.12.27-.12.12-.39.96t-.54 1.65q-.27.81-.57 1.62-.3.81-.57 1.77-.27.96-.39 1.23t-.39.84l-.27.57h-1.26q-.42 0-.42-.15t-.12-.42-.12-.42q0-.15-.15-.54t-.27-.54q-.12-.15-.42-.57-.3-.42-2.49-1.65-2.19-1.23-3.54-1.77t-1.89-.66q-.54-.12-1.23-.54-.69-.42-.96-.57-.27-.15-.84-.81t-.57-1.08q0-.42.69-1.11l1.11-1.11.69-.69q.27-.27.27-.39v-.39q0-.27-2.19.39t-2.61 1.08q-.42.42-.69.84-.27.42-.27 1.5t.42 1.77q.42.69.84 1.23t.54.81q.12.27 1.5.84t2.19 1.11q.81.54 1.62.81t.96.27h.15l.42.15q.42.15.81.42.39.27.69.39.3.12.84.39t.81.27q.27 0 .69.15.42.15.54.3.12.15.12.27v.54q0 .12.15.27.15.15.27.15.12 0 .12.12v.96q0 .3.42.69.42.39.96.39h1.38l-.54 1.14q-.3.54-.42.81t-.27.39-.27.39q-.12.27-.27.57-.15.3-.15.57 0 .27-.15.54t-.54 1.35q-.39 1.08-.96 2.19-.57 1.11-.96 2.07-.39.96-.93 2.04t-.54 1.35q0 .27-.3 1.65l-.3 1.38.42.15q.42.15 1.23.69.81.54 1.11.27.3-.27.84-2.19l1.08-3.84q.54-1.92.69-2.34.15-.42.96-2.73.81-2.31 2.19-6.45l1.08-.24q.84-.3 1.23-.42t.69-.27q.3-.15.57-.15.27 0 .66-.15t.81-.27q.42-.12.69-.12.27 0 .96-.27t1.23-.42q.54-.15 1.65-.54 1.11-.39 1.92-.69.81-.3.81 0v.42q0 .12-.96 1.89t-1.23 2.07q-.27.3-.27.42t-.42.66q-.42.54-.54 1.11-.12.57-.39 1.11-.27.54-.84 1.35t-.84 1.23l-.54.84q-.27.42-.54.96l-.27.54v.12q0 .12-.27.39t-.54.69q-.27.42-.96.96t-.69.69q0 .15.15.57.15.42.27.69.12.27.27.54.15.27.15.54t.39.69q.39.42 1.08.42.69 0 2.46-.69l2.46-.96q.69-.27 1.8-.69 1.11-.42 1.8-.54.69-.12 1.65-.54.96-.42 1.35-.57.39-.15 1.23-.84t1.65-1.35q.81-.66.93-.81.12-.15.42 0t.3.27q0 .12.12.27.12.15.12.27v.27q0 .15.15.27.15.12.15.42t.12.42l.27.27q.15.15.15.27v.27q0 .15.12.27l.27.27.42.42q.27.27 1.08 2.04t.69 2.19q-.12.42-.12.69 0 .27.27.81t.54.54h.54q.27 0 .54-.39t.57-1.23q.3-.84.42-1.23t.12-.54q0-.15-.27-.96-.27-.81-1.08-2.61-.81-1.8-1.11-2.61-.3-.81-.69-1.23-.39-.42-.66-.81-.27-.39-.84-1.35-.57-.96-.42-1.23.15-.27.15-.42 0-.15-.54-.96-.54-.81-.96-.96-.42-.15-.69-.27-.27-.12-.42-.12-.15 0-.42.27t-.66.54q-.39.27-.54.96-.15.69.12.96t.54.39q.27.12-.12 1.08-.39.96-.96 1.11-.57.15-.69.27-.12.12-.39.27-.27.15-.42.15-.15 0-.27.15-.12.15-1.77.81t-3.15 1.23q-1.5.57-2.19.84t-1.38.39q-.69.12-.69-.15v-.27l.27-.42q.27-.42.69-.81.42-.39 1.11-1.35.69-.96 2.46-3.69t1.77-3v-.27l.27-.42.54-.84q.27-.42.96-1.23t.84-1.08q.15-.27-.15-.84t-.42-.69l-.27-.27-.15-.15.27-.27q.27-.27.69-.39.42-.12.69 0 .27.12.54.27.27.15.42.15.15 0 .42-.15t.42-.27.42-.27q.27-.15.54-.15h.54q.27 0 .81-.15t.81-.27q.27-.12.54-.12t1.11-.15q.84-.15 1.53-.27.69-.12 1.35-.12.66 0 1.35-.15.69-.15.96-.15t.54-.12q.27-.12.69-.12h3.3q.12 0 .27-.27.15-.27.27-.57.12-.3.12-.42t-.27-.54q-.27-.42-.51-1.2h-2.76q-1.38.24-2.34.24t-1.23.15q-.27.15-.66.15t-1.35.12q-.96.12-1.53.27-.57.15-1.23.27-.66.12-1.77.27-1.11.15-1.65.27-.54.12-1.35.12h-.96q-.15 0-.3-.27t-.15-.39v-2.58q0-.54.3-1.11.3-.57.84-1.23l1.23-1.5q.69-.84 1.23-2.19t.54-2.04v-1.11q0-.42-.84-1.23t-1.23-.96q-.39-.15-.81-.15-.42 0-.54-.12-.12-.12-.27-.69-.15-.57-.15-.84V10.62q0-.54-.27-1.08t-.69-.54h-.54q-.12 0-.42.12t-.42.39l-.12.27zm-1.08 18.66l1.08.24-.3 1.92q0 4.68-.39 6.18t-.54.27q-.15-1.23-.27-1.77-.12-.54-.69-2.19t-.96-2.34q-.39-.69-.81-1.5-.42-.81-.42-.96 0-.15.69 0t.96.15h1.65zm4.08 1.92q-.24.78-.54.66-.3-.12-.15-.54.15-.42.15-.96v-.54l.15.27q.15.27.27.27.12 0 .12.27v.57zM141.3 16.08q-.24.84-.24 1.95 0 1.11.42 1.65.42.54.69 1.23.27.69 1.23 1.92t1.62 1.77q.66.54 1.35 1.23.69.69 1.8 2.46t1.11 1.92q0 .15-.15.15t-.42.12q-.27.12-.69.12-.42 0-1.08.15-.66.15-1.5.42t-.84.54v.39q0 .12.84.42t.84.15v-.15h.54q.54 0 1.23-.15t1.92-.15q1.23 0 1.62-.27.39-.27.54-.93.15-.66.3-.96.15-.3.15-.57 0-.27-.3-.54t-.42-.54q-.12-.27-.27-.42l-.15-.15-.27-.39q-.27-.39-.54-.81-.27-.42-.69-.84-.42-.42-.96-1.23t-.81-1.08l-.69-.69q-.42-.42-.81-.96-.39-.54-.54-.69-.15-.15-.3-.42t-.42-.39q-.27-.12-.39-.12t-.39-.15q-.27-.15-.69-.96-.42-.81-.57-1.77-.15-.96-.27-1.11-.12-.15-.27-.27l-.15-.12h-.27q-.27 0-.27-.15t-.12-.15q-.12 0-.27.15-.15.15-.3.27l-.15.12zm83.04-5.7q-.3.24-.42.39l-.12.15.12.12q.12.12 0 .27-.12.15-.69.27-.57.12-1.11.12-.54 0-2.04.42t-2.34.57q-.84.15-1.23.27-.39.12-.66.12t-.27.15q0 .15-1.11.27-1.11.12-1.38.27-.27.15-1.08 1.11-.81.96-1.77 1.92t-1.23 1.5q-.27.54-.54 1.92t-.69 2.46q-.42 1.08-.42 1.62t.42.54h.69q.27 0 .54-.54t.39-1.35q.12-.81.27-1.38.15-.57.84-1.5t1.38-1.5q.69-.57.81-.69l.39-.39q.27-.27.27-.42v-.3q0-.15.54-.27.54-.12 1.11-.12.57 0 1.11-.15.54-.15 1.08-.27.54-.12.69-.12.15 0 .27-.15.12-.15.39-.15h1.92q.27 0 .42-.12.15-.12 2.46-.39t2.61-.42q.3-.15.69-.57.39-.42 1.23-1.38t.57-1.62q-.27-.66-1.38-.81-1.11-.15-1.53-.15-.42 0-.69.15-.27.15-.39.15h-.12zm-4.68 10.92q0 .54-.12.69-.12.15-.12.27 0 .12.12.12t.12.84v1.8q0 .96.15 2.58t.15 1.77q0 .15-.27.42l-.42.42q-.15.15-.42.27l-.27.12h-.15q-.15 0-.84.27t-1.35.42-1.35.42q-.69.27-1.8.69-1.11.42-1.65.54-.54.12-2.46.66l-.54-.54q-.54-.54-.81-.69-.27-.15-.27.27v.57q0 .15-.15.42t-.27.39q-.12.12-.39.54-.27.42-.15 1.11.12.69.66.96l.84.42q.3.15.84.15t1.5-.57q.96-.57 1.35-.69.39-.12.96-.27.57-.15.84-.27.27-.12.54-.12t.69-.15.69-.15q.27 0 .54-.12t.81-.42q.54-.3.96-.3.42 0 .69-.12.27-.12.69-.27.42-.15.54-.27.12-.12.39-.12h.27v2.46q0 1.08.15 4.08t.15 3.27v.42q0 .15-.27.3t-1.23.42q-.96.27-2.19.54t-1.92.39q-.69.12-2.76.69t-2.34.69q-.27.12-.81.27-.54.15-.81.27-.27.12-.81.27-.54.15-.69.15-.15 0-.15-.27v-.42q0-.15-.12-.27-.12-.12-.12-.27 0-.15-.3-.27-.3-.12-.42 0l-.54.54-.81.81q-.39.39-.81.69-.42.3-.69.42-.27.12-.42.12-.15 0-.69.15-.54.15-.96.42-.42.27-.96.54t-.69.42q-.15.15-.15.42v.81q0 .54.3.81t.96.12q.66-.15 1.5-.27.84-.12 2.46-.54 1.62-.42 3.15-.81 1.53-.39 4.38-1.35 2.85-.96 4.65-1.38 1.8-.42 2.34-.57.54-.15 1.92-.15l-.3 4.14q0 7.38-.12 8.34t-.39 1.5q-.27.54-.42.81l-.3.54q-.15.27-.27.27h-.54q-.12 0-.12.15t-.15.15q-.15 0-.42.12t-.69.27q-.42.15-.69.15-.27 0-.96.15t-1.08.42q-.39.27-.93.39t-1.11.39q-.57.27-.84.27h-.96q-.69 0-1.5.3t-.96.42q-.15.12-.27.27-.12.15-.39.15h-1.26q-.15 0-.15.27v1.05h6.33q.27 0 .54-.12t1.08-.12q.81 0 1.5-.15t1.8-.15q1.11 0 2.19-.39 1.08-.39 2.04-1.08.96-.69 1.65-1.23t.84-1.92q.15-1.38.15-7.41v-7.95l.78-.54q.54 0 .96-.12.42-.12.69-.12h.96q.15 0 .27-.15.12-.15.12-.27 0-.12.15-.12h.15l.15.12q.15.12.42 0t.39-.27q.12-.15.27-.15.15 0 .42-.15t.54-.15q.27 0 .42-.12.15-.12.69-.27.54-.15.81-.27.27-.12.81-.27.54-.15.81-.27.27-.12.54 0t.42.27q.15.15.42.15t.42-.15q.15-.15.69-.27.54-.12 1.62-.27 1.08-.15 2.04-.15t2.07-.15q1.11-.15 1.65-.42.54-.27.54-.81v-1.23q0-.69-.27-.96t-.81-.12q-.54.15-1.92.27-1.38.12-3.84.39t-3 .42q-.54.15-.81.15t-.96.15q-.69.15-1.11.27-.42.12-.84.27-.42.15-1.08.27-.66.12-1.08.12-.42 0-.96.15t-1.11.27q-.57.12-.84.27-.27.15-.81.27-.54.12-.81.12t-.27-.39v-1.08q0-.39-.15-.69-.15-.3-.15-.57v-4.38q0-.27.15-.27t.15-.12q0-.12.15-.27.15-.15 0-.42t-.3-.81q-.15-.54-.15-1.38 0-.84.3-.96t.42-.12h.39q.27 0 .54.12t.69.27l.42.15.54-.42q.54-.42.96-.54.42-.12.69-.27.27-.15.42-.15.15 0 .54.15t.81-.12q.42-.27.57-.69.15-.42.81-1.53t-.84-1.5q-1.5-.39-3.69.3t-2.58.69q-.39 0-.81.12l-.42.12v-.12q0-.12-.15-1.23-.15-1.11-.15-2.34v-3.27q0-.12-.27-.27-.27-.15-.69-.57-.42-.42-.96-.27-.54.15-.81.42l-.27.27zm53.16-9.06q-.24 0-.39.15l-.15.15-.15.15q-.15.15 0 4.8.15 4.65.15 5.61t.3 2.58h-3.33q-.27 0-.96.15t-.96.15q-.27 0-.27.39v.93q0 .54.57.96.57.42 1.23.42h1.62q.42 0 .69.15.27.15 1.41.15v4.08q.24 5.22.24 7.8t-.12 2.73q-.12.15-.42.57-.3.42-1.53.96t-2.04.69q-.81.15-1.35.27-.54.12-1.38.39-.84.27-1.23.42-.39.15-1.23.42l-.84.27v-.96q0-.42-.39-.42t-1.23.42q-.84.42-1.38.81-.54.39-.81.54-.27.15-.54 0t-.42-.15q-.15 0-.42.15l-.54.3q-.27.15-.54.27-.27.12-.42.27-.15.15 0 .42t.27.96q.12.69.39.96t1.53.12q1.26-.15 2.19-.15h1.23q.3 0 .96-.27.66-.27 1.08-.54.42-.27 1.11-.42.69-.15 1.23-.27.54-.12 1.08-.27.54-.15 1.11-.27.57-.12.84-.12h.39q.12 0 .39-.27t.69-.42q.42-.15 1.26-.42.84-.27.96-.15.12.12 0 .96t-.12 1.26q0 .42-.15.81-.15.39 0 .66t.15.69v1.53q0 1.11-.15 2.61-.15 1.5-.15 3.69t.15 2.85q.15.66.15 1.35 0 .69.54 1.11.54.42.93.15t.54-.42q.15-.15.15-.42t.15-3q.15-2.73.15-4.38v-4.5q0-.15.12-.3t.12-.81v-1.35q0-.69.15-2.19l.15-1.5.66-.27q.66-.27 1.23-.27t2.49-.69q1.92-.69 2.46-.84.54-.15.96-.42.42-.27 1.92-.42 1.5-.15 4.08-.42t3-.27h1.77q.27 0 .69.15l.42.15v1.77q0 .69-.42 2.61t-.69 2.34q-.27.42-.27.54 0 .12-.12.54-.12.42-.27.69-.15.27-.27.96-.12.69-.42 1.23t-1.11 2.31q-.81 1.77-1.08 2.46t-.42.69q-.15 0-.69.27-.54.27-.81.27t-.69.15q-.42.15-.54 0-.12-.15-.27-.15h-.84q-.69 0-1.23-.12t-1.77-.12q-1.23 0-2.46-.42t-1.35-.69q-.12-.27-.12-.54t-.69-.42q-.69-.15-.69.12v.42q0 .15.12.27.12.12.12.39t.15.42q.15.15.27.3.12.15 0 .15t-.12.12v.12h.24l.3.15q.3.15.57.42.27.27 1.35 1.23t1.92 1.23q.84.27 3.69.27h4.53l.54-1.62q.54-.84.81-1.38l.42-.84q.15-.3.27-.57.12-.27.27-.54.15-.27.15-.39v-.27q0-.15.12-.42t.27-.54q.15-.27.42-.54t.42-.69q.15-.42.15-.69 0-.27.12-.54t.27-.54q.15-.27.15-.42v-.15l.12-.27q.12-.27.27-.69.15-.42.27-.69.12-.27.27-.96.15-.69.27-.96.12-.27.54-.96.42-.69.96-3.27t.54-3.12v-.84q0-.3-.12-.57-.12-.27-.27-.39-.15-.12-.42-.27-.27-.15-.81-.15h-2.88q-2.34 0-3.96.15t-3 .15q-1.38 0-1.65.12t-.69.27q-.42.15-.54.15-.12 0-.27-.27-.15-.27-.27-.42-.12-.15 0-.42t.27-.54q.15-.27.15-.42 0-.15.12-.69.12-.54.27-1.08.15-.54.15-.96 0-.42.12-.81.12-.39.12-.69 0-.3.15-.57.15-.27.42-4.08t.12-4.11q-.15-.3-.15-.69 0-.39-.66-.39t-1.89.12q-1.23.12-1.8.27-.57.15-1.38.15-.81 0-1.23.12-.42.12-.81.12h-1.65q-.12 0-.81.15-.69.15-.69-.12V14.19q0-.81-.15-.96-.15-.15-.27-.42-.12-.27-.54-.54-.42-.27-.69-.15l-.27.12zm9.6 16.44q.54.84.39 3.03-.15 2.19-.42 3t-.27 1.23q0 .42-.12 1.11-.12.69-.27 1.08-.15.39-.3 1.5-.15 1.11-.81 1.65-.66.54-1.35.42-.69-.12-.96-.12h-.42q-.15 0-.27.27-.12.27-.42.66t-.69.54q-.39.15-.66 0l-.27-.15-.15-1.23q-.15-1.23-.15-2.46v-2.58q0-1.35-.12-3t-.12-2.19v-2.61q0-.15.66-.15t1.35-.12q.69-.12 1.23-.12h1.23q.69 0 .69-.15v-.15h1.38q.3 0 .42.15t.27.27l.15.12zm2.16-13.92q-.24.24-.24.39v.15l.39.39q.39.39 1.08.96.69.57 1.65 1.53.96.96 1.92 1.5t2.61 1.35 2.61 1.35q.96.54 1.35.96.39.42.39.84v.81q0 .39.57.39t.84-.39q.27-.39.66-.81.39-.42.39-.69 0-.27-.27-.96t-.66-1.5q-.39-.81-.54-1.08-.15-.27-1.11-.54-.96-.27-1.38-.57-.42-.3-1.38-.84t-1.62-.96q-.66-.42-1.77-1.08-1.11-.66-1.8-.93t-1.08-.42q-.39-.15-1.35-.3l-.96-.15-.15.3-.15.3zM356.1 8.7h-.84q-.54 0-1.23.15t-2.34.15q-1.65 0-2.88.12t-1.89.27q-.66.15-.96.15-.3 0-.84.12t-.81 0q-.27-.12-.39-.12t-.81.12q-.69.12-1.26.27-.57.15-1.65.42t-2.04.42q-.96.15-2.61.42t-2.31.39q-.66.12-1.23.12t-.57.15q0 .15-.12.15t-1.35.27q-1.23.27-2.07.27-.84 0-1.23.15t-.39.54q0 .39.39.66t.54.42q.15.15.57.15h2.58q.84 0 .84.15v9.57q0 .42.12.81.12.39.39.96t.84.69q.57.12 1.11.12.54 0 1.35-.12t.81-.27q0-.15.27-1.38t.27-1.77v-1.77q0-.15-.12-.15t-.66.54q-.54.54-.54.81v.42q0 .15-.15.15h-.15l-.42-.15q-.42-.15-.54-2.73-.12-2.58.15-3.69.27-1.11.27-1.8t.12-.69q.12 0 .69-.27t.84-.27q.27 0 .81-.12t.96-.12h.81q.39 0 1.08-.15.69-.15 1.11-.27.42-.12 1.23-.42l.81-.3.27.3q.27.3.96.84t-.27 3.96q-.96 3.42-2.46 5.34l-2.46 3.15q-.96 1.23-1.65 1.77t-2.19.81q-1.5.27-2.85.54t-2.46 1.23q-1.11.96-.3 1.23t.96.42q.15.15 1.11 0 .96-.15 1.23-.42t.42-.27h.27q.12 0 .27-.12.15-.12.27-.12.12 0 .69-.15t1.23-.27q.66-.12 1.35-.27.69-.15 1.53-.42.84-.27 1.11-.27h.54q.27 0 .66-.15t.54-.27q.15-.12.57-.27.42-.15.27.27-.15.42-.69.96-.54.54-.81.96-.27.42-.54.81-.27.39-.42.54-.15.15-.42.69-.27.54-2.19 3.57t-3.69 5.76q-1.77 2.73-2.88 4.23-1.11 1.5-1.92 3-.81 1.5-.96 1.77-.15.27-.42.69l-.27.42.27.15q.27.15.57.42.3.27.57.27.27 0 .66-.42t.81-.84q.42-.42 1.38-1.92t.96-1.62v-.57q0-.15.15-.15h.27q.12 0 2.46-3.12t2.34-3.42v-.3l.27-.27.54-.54q.27-.27 1.11-1.35h1.86q3.06.3 3.33.42t.54.39q.27.27.54.69.27.42.27.96t-.42 1.35q-.42.81-1.23 2.34-.81 1.53-.96 1.92-.15.39-.27.39-.12 0-.27.15-.15.15-.69 0-.54-.15-1.08-.42t-1.23-.54q-.69-.27-1.11-.27h-1.11q-.69 0-1.5.15t-.93.15q-.12 0-.42.39t-.69.81q-.39.42-.27.84t.54.27q.42-.15.69-.15.27 0 3 .84t3 1.11l.27.27-.81 1.77q-.81 1.77-1.08 2.31t-.96 1.77q-.69 1.23-1.11 2.07-.42.84-.42.96v.54q0 .12-.12.12h-.12l-.69.96q-.69.96-1.38 2.07-.69 1.11-1.5 2.19-.81 1.08-1.5 2.04t-.81.96h-.12l-.3.15q-.3.15-.3.27 0 .12-.27.39t-.27.42q0 .15.27.3t.42.27q.15.12.3 0t.54-.27q.39-.15 1.08-.57.69-.42 2.46-2.34t2.19-2.73q.42-.81.57-1.08.15-.27.27-.54.12-.27.27-.42l.27-.27.54-.54q.42-.42.57-.84.15-.42.42-.96t.81-1.35q.54-.81.96-1.38.42-.57.81-1.11.39-.54.66-.93t.27-.54v-.3q0-.15.15-.15h.3q.15 0 .15-.12v-.54q0-.12.12-.39t.27-.57.27-.57q.12-.27.27-.39.15-.12.69-.27.54-.15 1.35-.15t1.23-.39q.42-.39.3-.96t-.12-.69q0-.12-.15-.27l-.15-.15h-.15q-.15 0-.27-.12-.12-.12-.27-.12-.15 0-.42-.3l-.27-.3.42-1.08q.42-1.08.69-1.62.27-.54.54-1.11.27-.57.27-.69t.15-.12q.15 0 .15-.15v-.66q0-.27.12-.54t.27-.69q.15-.42.54-1.11.39-.69.27-1.11-.12-.42-.81-.81-.69-.39-1.65-.96t-1.5-.69q-.54-.12-1.77-.12t-2.19.12l-.96.12v-1.2q0-.12.12-.27.12-.15.27-.15.15 0 .42-.42t.69-.96q.42-.54.69-1.08.27-.54.96-1.35t.96-1.11q.27-.3 1.35-1.26t1.08-1.08q0-.12-.54-.27-.54-.15-.81-.27-.27-.12-.81-.27-.54-.15-1.08-.27-.54-.12-1.23-.12t-1.11-.15l-.42-.15.27-.54q.27-.54.69-.96.42-.42 1.11-1.5.69-1.08 1.35-2.46.66-1.38.66-1.65v-.42q0-.15.15-.42l.3-.54q.15-.27.15-.54t.12-.96q.12-.69.27-1.23.15-.54.15-2.76h1.38q3.54-.54 5.73-.66 2.19-.12 2.73-.12t1.5.12q.96.12.96.27 0 .15-.42.96-.42.81-.54 1.23-.12.42-.27.84-.15.42-.15.54v.27q0 .15-1.23 2.88t-1.65 3.54q-.42.81-.96 1.77t-.66 1.11q-.12.15-.54 0-.42-.15-.69-.27-.27-.12-.54-.27l-.27-.15h-.15q-.15 0-.42-.12t-.54-.12q-.27 0-.54-.15t-.69-.42q-.42-.27-.84-.69-.42-.42-.81-.69-.39-.27-.81-.54-.42-.27-.57-.27H345q-.66 0 .69 2.04t2.58 2.88q1.23.84 2.73 1.8 1.5.96 1.8.96.3 0 .96-.57.66-.57 1.08-.84.42-.27 1.65-2.58t1.23-2.85v-.54l.27-.42q.27-.42.42-.84.15-.42.42-.69.27-.27.54-.81t.42-.81q.15-.27.15-.54t.27-.84q.27-.57.54-1.11.27-.54 1.08-1.92t.96-1.77q.15-.39 0-.81-.15-.42-.27-1.11-.12-.69-.54-.96-.42-.27-1.92-.27t-2.19-.12q-.69-.12-1.23-.12t-.54.12v.12zm-37.8 3.84q-.54 1.62-.54 2.73 0 1.11.27 1.92.27.81.42 1.65.15.84.69 2.19.54 1.35.69 1.5.15.15.15.27 0 .12.27.54.27.42.39.84t.12.96q0 .54.42 1.35t.69 1.23q.27.42.42.96.15.54.42 1.11.27.57.27.69v.39q0 .27.69.69.69.42 1.08.27.39-.15.96-.15t.69-.39q.12-.39.12-1.35 0-.96-.12-1.53-.12-.57-.12-1.23v-2.46q0-.12-.3-.12h-.42q-.12 0-.12.12v1.92q0 .96-.42.54-.42-.42-1.23-2.34t-1.77-3.96q-.96-2.04-1.23-2.73t-.42-1.77q-.15-1.08-.27-2.04-.12-.96-.54-1.92-.42-.96-.57-.96h-.27q-.12 0-.12.27t-.15.54l-.15.27zm97.8 2.76h-3.3q-.84 0-1.38.12-.54.12-1.89.54-1.35.42-2.46.69-1.11.27-2.07.42-.96.15-1.08.27-.12.12-.42.12h-.57q-.27 0-.54.15t-.81.27q-.54.12-2.31.39t-2.07.27h-.42q-.12 0-1.08.3-.96.3-1.92.57-.96.27-3.15.81t-2.46.54q-.27 0-2.19.12t-2.73.12q-.81 0-1.65.15-.84.15-.96.3t-.27.27q-.15.12-.69.12h-2.19q-.81 0-.81-.12t-.42-.54q-.42-.42-1.23-1.53t-1.08-.27q-.27.84.42 2.19t.96 1.92q.27.57.39.84t.54.27q.42 0 .84.12t2.46 0q2.04-.12 2.46-.27.42-.15.54-.15.12 0 .69-.12t1.23-.12h1.35q.69 0 1.65-.15t1.92-.42q.96-.27 1.77-.42.81-.15 1.77-.42t1.53-.39q.57-.12.96-.12t1.35-.27q.96-.27 1.65-.27t1.38-.15q.69-.15 1.5-.3t1.35-.27q.54-.12.96-.27.42-.15 1.11-.27.69-.12.96-.27.27-.15.54-.15t.81-.12q.54-.12.96-.27.42-.15.69-.15.27 0 .69-.12.42-.12.69-.12h1.08q.27 0 .42-.15l.15-.15.69-.15q.69-.15 1.35-.15.66 0 3.42-.24l-.84.54q-.24.3-.51.42t-.54.12h-.57q-.3 0-.84.54t-.54.96v1.26h1.11q.27 0 1.08-.27t1.65-.69q.84-.42 1.65-.84.81-.42 1.62-.69.81-.27.96-.39.15-.12.57-.12.42 0 1.11-.57.69-.57.69-.96v-.69q0-.3-.84-.84t-1.38-.54q-.54 0-1.35-.27t-2.46-.27q-1.65 0-1.65.15v.15zm-10.14 9q-1.08.54-1.23.69-.15.15.27.57l.69.69q.27.27.27.54v3.81q0 1.38-.15 3.3t-.27 2.04q-.12.12-.27.12-.15 0-2.46.42t-3.27.57q-.96.15-1.23.27-.27.12-.54.12t-.27-.12q0-.12-.15-.27-.15-.15-.3-1.23t-.15-2.61v-2.19q0-.66-.93-.96-.93-.3-1.23.39-.3.69-.42.84-.12.15-.12.96v1.77q0 .96.24 4.26l-1.32.24q-.54.3-1.23.72t-.96.54q-.27.12-.69.39-.42.27-.84.42-.42.15-.69.27-.27.12-.81.12t-.69.3q-.15.3.12.57.27.27.69.66.42.39 1.23.39t1.65-.27q.84-.27 1.26-.54.42-.27.96-.39t.66-.12q.12 0 .54-.15l.42-.15v.81q0 .81.15 1.23.15.42.15 1.38v3.42q0 1.38.12 2.34t.39 1.08q.27.12.54.27.27.15-.81.69-1.08.54-1.62.54h-.81q-.27 0-.84.15t-.96.42q-.39.27-1.77.81l-.84-.54q-.84-.84-.96-1.53-.12-.69-.27-3-.15-2.31-.42-3.69t-.39-2.61q-.12-1.23-.27-2.19-.15-.96-.42-2.04t-.27-1.5q0-.42.12-.96t.42-1.23q.3-.69 0-.84-.3-.15-.96.69-.66.84-2.04 1.92l.24 1.62v4.14q0 .54.15 1.35t.3 1.23q.15.42.15.96t.12 1.08q.12.54.12.96v1.38q0 .42.15.69.15.27.27.42.12.15.27.96.15.81.15 1.5t.12 1.5q.12.81.27 1.65.15.84.27.96.12.12.12.39t.15.54q.15.27.15.42 0 .15-.15 1.11-.15.96 0 1.5t.42.81q.27.27.54.69l.27.42.42-.15q.42-.15.69-.27.27-.12.54-.27l.27-.15.15-.12q.15-.12.15-.96v-1.65q0-.81-.15-1.77t-.15-1.65q0-.69.15-.69h.15l.12.15q.12.15.27.27.15.12.57.69.42.57.54.57.12 0 3.96-1.11t4.26-1.23q.42-.12.81-.12.39 0 .54-.15.15-.15.42-.15h.54q.27 0 .69-.15.42-.15.69-.27.27-.12 1.35-.27 1.08-.15 2.04-.27.96-.12 2.76-.27 1.8-.15 2.34-.42.54-.27.54-.69v-.69q0-.27-.15-.54t-.27-.39q-.12-.12-.39-.27-.27-.15-.42-.3-.15-.15-2.07.15t-4.08.3v-.6q.24-.54.39-.81.15-.27.27-.39l.27-.27q.15-.15.42-.57.27-.42.27-.96t.15-.96q.15-.42.42-.96t.39-.81q.12-.27.27-.54.15-.27.27-.81.12-.54.27-1.11.15-.57.42-1.11.27-.54.42-.81.15-.27.27-.39.12-.12.54-.12.42 0 2.46-.3t3-.3q.96 0 2.07-.12 1.11-.12 1.23 0 .12.12-.15.81-.27.69-.39.96t-.12.69q0 .42-.15.57-.15.15-.15.27 0 .12-.15.66t-.42 1.11q-.27.57-.39 1.11-.12.54-.27 1.08-.15.54-.27.69-.12.15-.12.27 0 .12-.15 1.08-.15.96-.42 1.8-.27.84-.54 1.77t-.42 1.89q-.15.96-.27 1.26-.12.3-.12.57 0 .27-.15.54t-.15.39q0 .12-.12.54-.12.42-.27.42-.15 0-.15.27v.69q0 .42-.54.81-.54.39-.96.39-.42 0-2.19.3t-2.61.3q-.84 0-1.11-.15-.27-.15-.66-.57-.39-.42-.81-.27-.42.15-.57.42-.15.27-.69 1.08-.54.81 1.53 1.77 2.07.96 3.84.84t2.31-.27q.54-.15 1.08-.15h1.38q.3 0 .69-.12.39-.12.54-.27l.42-.42q.27-.27.69-1.23.42-.96.42-1.38v-.69q0-.27.12-.54t.12-.54q0-.27.15-.54t.27-.69q.12-.42.27-.81.15-.39.69-2.46.54-2.07.81-3.45.27-1.38.42-1.65.15-.27.15-.39t.42-.96q.42-.84.69-1.92.27-1.08.54-2.04t.66-2.04q.39-1.08.69-1.5.3-.42.57-1.11.27-.69.27-.96t-.57-.69q-.57-.42-.96-.81-.39-.39-1.62-.54-1.23-.15-2.46.12t-1.65.27q-.42 0-1.53.15t-1.77.15q-.66 0-3.12.24l.24-1.62q.3-2.76.3-4.53 0-1.77-.27-2.31t-.42-1.11q-.15-.57-.69-1.23-.54-.66-.69-.66h-.15l-.27.12q-.27.12-.54.12h-.27zm-1.38 16.14q0 .54-.27 1.5l-.54 1.92q-.27.96-.69 2.07-.42 1.11-.69 1.65-.27.54-.39.69-.12.15-.27.27-.15.12-.3.27-.15.15 0 .15t.15.27q0 .27-.96 1.23t-1.23.96h-.81l.27-.54q.27-.54.27-.84 0-.3.15-.69.15-.39 0-.39t-.15-.15v-.27q0-.12.15-.12t.27-.3q.12-.3.39-2.07.27-1.77.15-2.04l-.12-.27-.15-.15-.15-.15h-.12q-.12 0-.54.96-.42.96-.42 1.38v.99q0 .27-.15.39t-.27.27q-.12.15-.27-1.92-.15-2.07 0-3 .15-.93.15-1.5t.12-.69q.12-.12 1.92-.27 1.8-.15 2.46-.15h1.23q.57 0 .57-.12t.12-.27q.12-.15.27 0 .15.15 0 .54l-.15.39zm66.06-30.9q0 .24-.96.24t-1.92.15-1.92.15h-2.07q-1.11 0-1.38.15-.27.15-.96.27-.69.12-3 .12t-3-.12q-.69-.12-1.65-.42t-1.08.27q-.12.57.69.96.81.39 1.62.96t2.19.69q1.38.12 3.84 0t4.65-.27q2.19-.15 3.57 0t1.5.27q.12.12.12.27 0 .15-.54.69-.54.54-2.31 1.77t-2.46 1.77q-.69.54-1.23.96-.54.42-.54.57v.42q0 .27.39.12.39-.15.54-.42l.15-.27.12-.15q.12-.15.27-.15h.27q.12 0 .81-.39.69-.39 1.38-.81.69-.42 1.5-.84t1.5-.81q.69-.39.84-.39h.42q.27 0 1.08-.84t1.08-1.53q.27-.69.57-1.35.3-.66.3-.93t-.42-.42q-.42-.15-.69-.3-.27-.15-1.65-.27-1.38-.12-1.5-.12h-.12zm-9.06 12.06q-.84 1.32-1.11 1.74-.27.42-.39 1.38t-.96 3.42l-1.62.54q-3.06.84-3.18 1.11-.12.27.57.96l.81.81q.12.12.27.39.15.27.15.42v.3q0 .15.12.15h.27q.15 0 .15-.3V30.9h1.38l1.38-.3-.3 2.76v4.38h-.27q-.27 0-.69-.15-.42-.15-.42 0t.15 1.23q.15 1.08.27 2.04.12.96.12 2.88t-.12 3.15q-.12 1.23-.27 1.92-.15.69.27 1.23.42.54.84.54t1.35-.27q.93-.27 3.27-.69 2.34-.42 2.34-.27 0 .15.15.27.15.12-.15 1.92-.3 1.8-.57 1.92l-.27.12-.12.27q-.12.27-.27.57-.15.3-.54.96-.39.66-.54.81-.15.15-.96-.27-.81-.42-1.23-.69-.42-.27-1.11-.69-.69-.42-1.11-.69-.42-.27-1.23-.96t-1.23-.69q-.42 0-.42.57v.96q0 .39 1.23 1.62t2.07 1.92q.84.69 1.11.84.27.15.54.27.27.12.27.27v.27q0 .12-2.04 2.19t-2.73 2.61q-.69.54-1.65 1.08t-1.23.54q-.27 0-.27-.66v-1.5h-.27q-.27 0-.27.12t-.15.12h-.39v1.95q0 .57.12.84t.27.39q.15.12.81.66t3.42-.96q2.76-1.5 4.11-3.12 1.35-1.62 1.92-2.19.57-.57.84-.96t.39-.39h.12l.15.12q.15.12.27.12.12 0 .39.27t1.23.84q.96.57 1.65.84t1.92.66q1.23.39 1.92.54.69.15 2.46.27 1.77.12 3.69.12h7.26q.42 0 .84.15t1.08.57q.66.42.96.27.3-.15.3-.69v-.81q0-.27-.15-.42-.15-.15-.96-.54-.81-.39-1.92-1.08l-1.11-.69h-7.92q-1.62 0-3.27-.15t-2.76-.42q-1.11-.27-1.92-.96-.81-.69-1.23-.96-.42-.27-.69-.39-.27-.12-.27-.27v-.15l.27-.42q.27-.42.42-.81.15-.39.69-1.23.54-.84.81-2.07t.27-2.04v-1.5q0-.69.15-.69t.69-.15q.54-.15.96-.15.42 0 .81.15.39.15.54.15.15 0 .96.42.81.42 1.23 0 .42-.42 1.38-2.46t1.77-3.84q.81-1.8 1.38-3.15.57-1.35.96-3.27t.93-4.26q.54-2.34.54-2.61t-.66-1.08q-.66-.81-1.35-1.5-.69-.69-.96-.84-.27-.15-.96 0t-.84.15h-1.5q-.27 0-.81.15t-.81.15q-.27 0-2.07.54-1.8.54-2.46.39-.66-.15-.66-.69v-.69q0-.15-.15-.54t-.3-.81q-.15-.42-.27-.84-.12-.42-.27-.69-.15-.27-.15-.39t.27-.27q.27-.15.57.27.3.42.42.84t.27.81q.15.39.42.54.27.15.39-.12t.27-.69q.15-.42-.54-1.53-.69-1.11-.96-1.23-.27-.12-.54-.27-.27-.15-.42-.15-.15 0-.42.15t-.69.42q-.42.27-.69.81-.27.54-.12 1.38.15.84.15 1.23v2.61l-.69.27-1.77.69q-1.08.42-1.38.27-.3-.15-.3-1.53v-1.92q0-.54.15-.81t.42-.96q.27-.69.96-1.77t.42-1.35q-.27-.27-.96.69l-.69.96zm14.76 7.08q1.68.54 1.8.81.12.27 0 1.11-.12.84-.27 1.65-.15.81-.69 2.73-.54 1.92-.69 2.19-.15.27-.27.42-.12.15-.12.42v.81q0 .3-.15.69-.15.39-.69 1.62-.54 1.23-.69 1.5-.15.27-.27.42-.12.15-.27.15h-.15l-.27.12q-.27.12-.39.42t-.27.57q-.15.27-.42.39t-.81.27q-.54.15-1.23.27-.69.12-.96.12t-.27-.54q0-.54-.15-1.23t0-1.08q.15-.39.54-.54.39-.15 1.08-.42.69-.27 1.8-1.23t1.5-1.5q.39-.54.69-1.23.3-.69.42-.84.12-.15-.3-.42t-.54-.54q-.12-.27-1.35-.27t-1.77.27l-.84.42q-.3.15-.42.15h-.27q-.15 0-.15-.15v-1.62q0-.69-.12-1.23t-.12-1.38v-1.11q0-.27-.3-1.65h1.38q2.76-.54 3.03-.54t.27-.12q0-.12.12-.12h.69q.57 0 1.23.12l.66.12zm-10.08 1.92q.24.54.24 1.38 0 .84.15 1.5t.15 2.19q0 1.53.12 1.38.12-.15-1.5.39t-2.31.81q-.69.27-.96.42-.27.15-.27 0t-.15-.27q-.15-.12-.15-.66v-1.23q0-.69.15-1.23t0-1.38q-.15-.84-.15-1.11 0-.27-.15-.96t0-1.08q.15-.39.69-.39h.81q.27 0 .57-.15.3-.15.57-.15.27 0 .81-.27t.81-.15q.27.12.42.54l.15.42zm3.78 9.3q0 .3-.12.3t-.27-.15-.27-.15q-.12 0-.12-.12t.27-.27q.27-.15.54-.27.27-.12.42 0 .15.12-.15.39l-.3.27zm-3.24 1.38v3.15q0 .39-.15.81-.15.42-.27.57-.12.15-.42.54t-1.92.81q-1.62.42-2.19.15-.57-.27-.84-.42-.27-.15-.27-.27 0-.12.15-.96t.15-1.38q0-.54.12-1.08t.12-.69v-.42q0-.27.57-.54t1.26-.54q.69-.27 2.31-.81l1.62-.54-.12.81-.12.81zm-31.74-18.36q-.3 0-.3.3t.15.57q.15.27.27.93.12.66.54 1.23.42.57 1.11.84.69.27 1.23.66t.66.39q.12 0 3.27-.12t4.95-.12h3.3q1.5 0 1.5.12v.12l-.27.3q-.27.3-.54.57-.27.27-.57.54-.3.27-.96.96-.66.69-1.35 1.35-.69.66-1.8 1.77l-1.38 1.38q-.27.27-.96 1.65t-1.5 2.88q-.81 1.5-.81 1.62 0 .12-.42.12h-1.38q-.96 0-1.5.3t.3.42q.84.12 1.38.27.54.15.66.96.12.81-.42 1.62t-.54.96q0 .15-.27.57-.27.42-.54.96t-1.11 2.46q-.84 1.92-2.34 4.23-1.5 2.31-2.16 3.15-.66.84-.81 1.11l-.15.27-.42-.27q-.42-.27-.69-.42l-.27-.15-.12.15q-.12.15-.54.69-.42.54 0 1.62t1.08 1.23q.66.15.96.15.3 0 .57.15.27.15.27 0t.27-.15q.27 0 1.62-2.34t1.35-2.46v-.27q0-.15.15-.27.15-.12.15-.27 0-.15.12-.15t.42-.39q.3-.39.42-.81.12-.42.39-.84t.42-.84q.15-.42.27-.42.12 0 .12-.12t.42-.66q.42-.54.69-1.11.27-.57.54-1.11l.54-1.08.27-.54.15.12q.15.12.15.42v1.65q0 1.11.15 2.07.15.96.15 2.04v4.23q0 .69-.15 2.07t0 1.77q.15.39.69.27.54-.12 1.08-.27.54-.15.81-1.23t.27-3.15v-3.69h.84q.54-.3.96-.42.42-.12.54-.27.12-.15.39-.27.27-.12.42-.27.15-.15.3-.15h.27q.12 0 .39-.15t.54-.27q.27-.12.69-.27.42-.15.96-.27.54-.12.96-.27.42-.15.96-.27.54-.12.96-.27.42-.15.54-.42.12-.27.72-.81l-.6-.84q-.24-.24-.51-.39-.27-.15-.42-.15-.15 0-.42-.15t-.27-.27q0-.12.69-1.23.69-1.11 2.04-3.3 1.35-2.19 1.35-2.73t-.81-1.08q-.81-.54-1.77-1.08t-1.65-.69q-.69-.15-2.31.27-1.62.42-2.58.69-.96.27-1.65.54t-.84.27q-.15 0-.54.15t-.27 0q.12-.15.54-.96.42-.81 1.11-2.46.69-1.65 1.38-2.46t2.19-1.77l3-1.92q1.5-.96 1.92-1.53.42-.57.54-1.23.12-.66.27-1.62.15-.96 0-.96t-4.11.12q-3.96.12-5.73.12h-6.3q-.69 0-1.38-.27t-.96-.66q-.27-.39-.54-.81-.27-.42-.69-.57-.42-.15-.54.12l-.12.27zm17.22 18.06q.54.3.54.57 0 .27-.81 1.92t-1.5 2.88q-.69 1.23-1.5 2.19t-1.11.96h-.3l-.39.12q-.39.12-.96.42t-.96.57q-.39.27-.81.39-.42.12-.42 0v-.12l-.12-.42q-.12-.42-.12-.96t-.15-1.11q-.15-.57-.15-1.38 0-.81-.15-1.23-.15-.42-.27-1.08-.12-.66 0-1.5t.27-.96q.15-.12.3-.27.15-.15 1.77-.57 1.62-.42 2.58-.54.96-.12 1.5-.12h.96q.42 0 .42-.15t.15-.15h.42q.27 0 .54.27l.27.27zm73.14-31.74q-.84.84-.96.99-.12.15.27.15h.54q.15 0 .27.12.12.12.27.12.15 0 .42.27l.27.27-.12.84q-.12.84-.27 1.23-.15.39-.15.96t-.15.69q-.15.12-.27 1.08-.12.96-.12 1.38 0 .42-.15.54-.15.12-.54.27-.39.15.42 1.5T526.5 21h1.11q.57 0 2.88.15t2.58.3q.27.15.42.27.15.12.42.12t.27-.12v-.12h.12q.12 0 .12.12t.15.12q.15 0-.27.42-.42.42-.96.84t-.96.81q-.42.39-.81.81l-.39.42v.12q0 .12-.27.27-.27.15-.69.42-.42.27-.69.42-.27.15-.81.42t-.69.39q-.15.12-.42.27-.27.15-.69.27-.42.12-.54.12h-.84q-.12 0-.12.3t.12.42q.12.12.27.12h2.07q.84 0 2.34-.69t2.58-1.35q1.08-.66 1.35-.96.27-.3.69-.57.42-.27.69-.27.27 0 .54-.12t.42-.27q.15-.15.27-.15.12 0 .12-.12t1.38-.81q1.38-.69 1.65-.69h.54q.27 0 1.11-1.23.84-1.23.69-1.5-.15-.27-.27-.54-.12-.27-.96-.42-.84-.15-3.03-.3t-4.38-.15q-2.19 0-3.81-.12t-1.77-.27q-.15-.15-.15-.27v-.54q0-.42.15-1.11.15-.69.27-1.23.12-.54.27-1.35.15-.81.27-1.11.12-.3.12-.69V10.5q0-.12.15-.42t-.69-.96q-.84-.66-1.11-.66h-.54q-.27 0-.54.12t-.54.39l-.27.27zm-21.9 2.46q-.84 0-1.11.42-.27.42 0 .69l.42.42q.15.15 0 .54t-.84 1.35q-.69.96-.81 1.38-.12.42-.39.84t-.42.54q-.15.12-.96 1.77-.81 1.65-1.23 2.19-.42.54-.84 1.11-.42.57-.54.84-.12.27-.39.54t-.27.39v.12l-.15.15q-.15.15-.27.42-.12.27-.39.54t-.57.69q-.3.42-.42.81-.12.39-.27.81-.15.42-.15.57 0 .15.15.27.15.12.42.54.27.42.81.15t.96-.81q.42-.54.69-.96.27-.42.69-.96.42-.54.81-1.11.39-.57.81-.96.42-.39.69-.81.27-.42.27-.54 0-.12.15-.27.15-.15.84 0t1.08.54q.39.39.54.39.15 0 .69.42.54.42 1.23.69l1.38.54q.69.27 1.5.69.81.42 1.23.69.42.27 2.07 1.08t1.77.69q.12-.12 1.5-3.81t1.5-4.11q.12-.42.54-1.23.42-.81.69-1.38.27-.57.54-1.11.27-.54.42-.96.15-.42.15-.54 0-.12-.27-.27-.27-.15-.57.12-.3.27-.42.69-.12.42-.27.69-.15.27-.42.54t-.27.42q0 .15-.12.27l-.27.27q-.15.15-.15.42t-.12.42q-.12.15-.27.54-.15.39-.3.54l-.27.27q-.12.12-.39.54-.27.42-.42.84-.15.42-.42.69-.27.27-.54.69-.27.42-.42.54-.15.12-.54.39l-.39.27-.69-.39q-.69-.39-1.38-.81-.69-.42-3.15-1.38t-3-.96q-.54 0-.69-.15-.15-.15-.42-.15h-.27v-.12q0-.12.15-.27l.42-.42q.27-.27 1.08-1.92t.81-1.92v-.39q0-.12.15-.39t.42-.69q.27-.42.96-1.53t.54-1.5q-.15-.39-1.38-.27l-1.23.12zm15.06 15.6q-.3 0-.15.15t.15.27q0 .12.12.27.12.15.27.42l.3.54q.15.27.42.96t.39.57q.12-.12-1.23 0t-2.58.12q-1.23 0-3.84.69t-3.3 1.23q-.69.54-.96.69-.27.15-.69.42-.42.27-.69.54-.27.27-.54.42-.27.15-.54.42t-.27.39v.54q0 .12-.15.12t-.27.15q-.12.15-.39.96-.27.81-.15 1.38.12.57.12 1.8t.15 1.62q.15.39.15.54 0 .15.27.27.27.12.12.54-.15.42-.42.84t-.66.81q-.39.39-.27.81.12.42.54.84l.69.69q.27.27.39.27h.81q.69 0 1.11-.15.42-.15 1.38-.27.96-.12 1.77-.39t3.15-1.11q2.34-.84 2.19-.84-.15 0-.27.96-.12.96-.12 2.34t-.15 2.61q-.15 1.23-.15 1.35 0 .12-.12.42t-1.77.84q-1.65.54-2.61.81t-1.23.27q-.27 0-.81.27t-.84.27q-.3 0-1.53.42t-1.89.27q-.66-.15-.12-.69.54-.54.93-.81t.54-.54q.15-.27-.12-.42-.27-.15-.27-.27 0-.12-.54.15t-1.5 1.23q-.96.96-2.1 2.04l.6.54q1.08 1.38 1.89 1.5.81.12 1.77 0t1.38-.27q.42-.15.96-.15t.69-.12q.15-.12.27-.12h.39q.27 0 .42-.15.15-.15.42-.15t.69-.12q.42-.12.69-.27.27-.15 1.92-.57 1.65-.42 1.5-.42-.15 0-.3.42t-.27.96q-.12.54-.12 1.92t.27 1.5q.27.12.27.27 0 .15.15.3t.15.27v.54q0 .42.93 1.5t1.62 1.35q.69.27 1.26.57.57.3.96.3h5.04q.81 0 3.84-.42t3.3-.42q.27 0 .39-.15t.54-.15h.96q.54 0 .96-.12.42-.12.96-.12t.69-.15q.15-.15.42-.15t.54-.12q.27-.12.42-.12h.54q.39 0 1.62-.3t1.38-.42q.15-.12.3-.12t.42-.15q.27-.15.39-.15t.81-.12q.69-.12.96-.66t.27-1.65v-3.57q0-.3-.12-.42t-.12-.54q0-.42-.15-.69-.15-.27-.15-.96t-.12-1.38q-.12-.69-.27-.81-.15-.12-.15-.27 0-.15-.15-.69-.15-.54-.15-1.08t-.12-.81q-.12-.27-.54-.96-.42-.69-.54-.69-.12 0-.12.12v1.38q0 1.26-.15 2.76-.15 1.5-.15 4.35 0 2.85-.15 3.15-.15.3-.81.57-.66.27-.81.39-.15.12-.69.27-.54.15-.96.27-.42.12-.69.12-.27 0-1.08.3t-1.23.3q-.42 0-2.46.39t-3.57.66q-1.53.27-2.07.27h-.96q-.42 0-.96.15t-.81.15q-.27 0-1.35.42t-2.61-.15q-1.53-.57-2.07-1.38-.54-.81-.96-1.23-.42-.42-.54-1.92-.12-1.5.15-1.77t.42-.27q.15 0 .15-.27v-.42q0-.15-.15-.27-.15-.12 0-.39t.27-.27q.12 0 .39-.27t1.23-.57q.96-.3 1.5-.3h.69q.15 0 .42-.12t.42-.12q.15 0 .27-.15.12-.15.39-.15t.42-.12q.15-.12 1.65-.27 1.5-.15 2.04-.27.54-.12.69-.27l.3-.3q.15-.15.42-.15t.54.15.54.15h.39q.12 0 .42-.42t.69-.96q.39-.54.39-.81t-.69-.69q-.69-.42-1.08-.54-.39-.12-.66-.39t-.27-.42v-.15l-.15-.15q-.15-.15-.42-.15t-.81-.12q-.54-.12-.96.15-.42.27-.15.69.27.42.42.54.15.12.15.27v.27q0 .12-.84.27-.84.15-1.23.15t-.54.15q-.15.15-.57.27-.42.12-.96.27-.54.15-1.35.42t-2.19.54q-1.38.27-1.38.12v-.27q0-.12.15-.39t.27-.84q.12-.57.27-.96.15-.39.27-.96.12-.57.12-.84v-.93q0-.66.3-1.08.3-.42 1.11-.57.81-.15 1.23-.27.42-.12.69-.12.27 0 .39-.15t.27-.27q.15-.12.42-.12h.96q.15 0 .42-.15t.66-.57q.39-.42.81-.96.42-.54.57-.81.15-.27-.27-.54-.42-.27-.84-.69-.42-.42-.81-.42-.39 0-1.62.27l-1.92.42q-.69.15-1.23.27-.54.12-.69.12h-.42q-.27 0-.15-.93.12-.93.42-1.35.3-.42.42-.69l.12-.27-.12-.42q-.12-.42-.27-.57l-.42-.42q-.27-.27-.54-.27t-.54-.12l-.27-.12-.3.39q-.3.39-.57.54-.27.15-.39.42t0 .42q.12.15.12.27v1.8q0 .54-.12 1.35l-.12.81-.54.27q-.54.27-.84.27-.3 0-.57.15-.27.15-.54.15h-.39q-.12 0-.81.12-.69.12-1.11.39-.42.27-.96.42l-1.08.3q-.54.15-.69.15h-.27q-.12 0-.54-.57-.42-.57-.69-1.23-.27-.66-.84-1.77-.57-1.11-.69-1.23-.12-.12 0-.54.12-.42.42-1.11.3-.69 1.11-1.38t1.5-.96q.69-.27 2.61-.96t2.31-.81q.39-.12 3.15-.12t4.11-.15q1.35-.15 1.77-.15.42 0 .54-.27.12-.27.27-.54.15-.27.15-.42 0-.15-.27-.54t-.81-1.35q-.54-.96-2.07-2.07-1.53-1.11-1.65-.84l-.12.27zm61.38-16.14q-.54.84-.42.84.12 0 .66.69t1.11 1.23q.57.54 1.38.96.81.42 1.5.42h.96q.27 0 .54.12t.54.12q.27 0 .42.15.15.15.54.27.39.12.81.27.42.15.69.15.27 0 .81.27t.84.27q.3 0 1.38.54l-2.22 1.92q-3.54 3.54-9.84 9.72-6.3 6.18-6.3 6.45 0 .27-.12.66t.27.81q.39.42.96.42h.69q.12 0 .54-.12.42-.12.81-.27.39-.15.81-.3.42-.15 1.38-.42t2.19-.66q1.23-.39 1.5-.54.27-.15.84-.27.57-.12.96-.12t1.23-.3q.84-.3 1.92-.57 1.08-.27 1.77-.39t.96-.12q.27 0 .54-.15t.42-.15h.27q.12 0 .27.15.15.15.15.84v1.23q0 .54.12 1.23t.27.96q.15.27.42 1.23t.12 9.84q-.15 8.88-.42 9.15-.27.27-.39.42-.12.15-.12.54t-.15.69q-.15.3-.15 1.38 0 1.08-.69 1.35t-3.81.96q-3.12.69-3.69.84-.57.15-.96.27l-.39.12h-.15q-.15 0-.57.15-.42.15-.69.15-.27 0-.54.12t-.69.27q-.42.15-.54.15-.12 0-.27.12-.15.12-.27.12-.12 0-.39-.12t-.69-.39l-.42-.27-.27.27q-.27.27-.54.69-.27.42-.15.54.12.12.81.39.69.27 1.11.42.42.15 1.92 0t2.46-.27q.96-.12 1.08-.27.12-.15.81-.15h1.23q.54 0 1.11-.12.57-.12 1.38-.12.81 0 1.23-.15.42-.15.81-.3.39-.15.81-.15h.57q.15 0 .27.15.12.15 1.08-.54.96-.69 1.38-1.38.42-.69.84-1.23t.42-.96q0-.42.12-1.5t.27-2.46q.15-1.38.15-2.61t-.15-3q-.15-1.77-.15-2.31V33.06l1.62-.84q.84-.24 1.8-.51.96-.27 1.65-.42l1.92-.42q1.23-.27 1.65-.39.42-.12.81-.81.39-.69.54-1.11l.15-.42-.27-.42q-.27-.42-.42-.69-.15-.27-.27-.27h-.81q-.69 0-1.11.15-.42.15-.84.15t-.54.12q-.12.12-.93.39t-1.77.57q-.96.3-1.65.3t-1.11.12q-.42.12-.96.27-.54.15-.96.27-.42.12-.84.27-.42.15-.96.27-.54.12-.81.12h-.81q-.3 0-.3.15v.3q0 .15-.39.15h-.66q-.27 0-.96.12t-3.3.66q-2.61.54-3.57.81t-1.23.42q-.27.15-.69.3-.42.15-.42 0t-.54-.42q-.54-.27 3.15-4.11 3.69-3.84 5.22-4.65 1.53-.81 1.92-.96.39-.15.93-.54t.84-.69q.3-.3.57-.42.27-.12.66-.39t.54-.27h.42q.27 0 1.23-.54t1.38-1.11q.42-.57 1.23-1.53.81-.96.39-1.5-.42-.54-1.92-.96-1.5-.42-2.31-.69-.81-.27-3.42-.81t-3.69-.81q-1.08-.27-1.65-.42-.57-.15-1.11-.27-.54-.12-.81-.27-.27-.15-.96-.42l-.69-.27-.12.27-.12.27zm-13.44 2.46q-.54 0-.39.42.15.42.54.57.39.15.66.27.27.12.42.12.15 0-.27.96-.42.96-.69 1.92-.27.96-.69 1.65-.42.69-.96 1.38t-.66 1.08q-.12.39-.39.66t-.27.42v.3q0 .15-.69 1.08t-2.07 3q-1.38 2.07-1.65 2.49-.27.42-.69.96-.42.54-.54.54-.12 0-.27.12-.15.12-.27.27-.12.15-.12.27v.57q0 .15-.15.27-.15.12-.42.27-.27.15-.81 1.23t-.42 1.35q.12.27.12.69v.42l.69-.15q.69-.15 1.11-.27.42-.12.69-.39l.54-.54q.27-.27.42-.54.15-.27.42-.69.27-.42.54-.57.27-.15.54-.42t.39-.54q.12-.27.12-.42v-.27q0-.12.15-.12h.15l.15.12q.15.12.27 0l.27-.27.42-.42q.27-.27 1.23-.96t1.35-.81q.39-.12.54-.12.15 0 .42-.15t.42-.27q.15-.12.42-.12t.54-.15.54-.15h1.08q.81 0 .81.96t-.66 1.65q-.66.69-.93.81-.27.12-.42.42-.15.3-.15.42v.66q0 .54-1.92 3.57t-3.42 4.8q-1.5 1.77-1.92 2.31-.42.54-.96 1.23t-.69.96q-.15.27-.27.54-.12.27-.54.69-.42.42-.69.84-.27.42-.69.81-.42.39-.54.69-.12.3-.12.57v1.05h1.2q.42 0 .57-.12.15-.12.84-.96t1.08-1.23q.39-.39.93-1.08.54-.69.69-.96.15-.27.42-.54t.54-.69q.27-.42.54-.57.27-.15.57-.42.3-.27.42-.39t.66 0q.54.12 1.23.27.69.15.96.57.27.42.15.96-.12.54-.12.66v.69q0 .57-.15 1.11-.15.54-.15 1.23v1.35q0 .66-.12.81-.12.15-.27.84l-.15.69v4.92q0 1.62.15 2.19.15.57.69.69.54.12 1.35.27.81.15 1.08-.42t.27-2.88q0-2.31.15-4.38t.27-3q.12-.93.27-2.19.15-1.26.3-1.92.15-.66.15-.93t-.15-.69q-.15-.42-.42-1.38t-.42-1.11q-.15-.15-1.77-.42t-2.04-.39l-.42-.12.12-.42q.12-.42.27-.57.15-.15.57-.69.42-.54.81-1.08.39-.54.81-.96.42-.42.69-.81.27-.39.27-.54v-.15l.15-.15.27-.27q.12-.12.27-.39.15-.27.27-.42.12-.15.54-.96.42-.81.57-1.08.15-.27.54-.69.39-.42.69-.84.3-.42.57-.69.27-.27.39-.54t.12-.39q0-.12-.12-.27-.12-.15-.12-.42v-.69q0-.42-.15-1.23t-.42-1.23q-.27-.42-.81-.54-.54-.12-1.11-.27-.57-.15-1.38 0-.81.15-2.04.81t-1.65.93q-.42.27-.69.42-.27.15-.39.15h-.27q-.15 0 .27-.54.42-.54.81-1.23.39-.69 1.77-2.61t1.65-2.46q.27-.54.69-1.65.42-1.11.84-2.61.42-1.5.42-1.77t-.3-.69q-.3-.42-.57-.69-.27-.27-1.35-.54t-1.5 0l-.42.27zm81.06-5.7q-.24.54-.39 2.31-.15 1.77-.27 4.65-.12 2.88-.12 3.96v2.88q0 .12-.15.12t-.27-.12q-.12-.12-.27-.42-.15-.3-.57-.96-.42-.66-1.5-1.5t-1.23-.84q-.15 0-.27.15-.12.15 0 .57.12.42.81 1.35.69.93.96 1.5t.15.84q-.12.27-.81.39-.69.12-.96.27-.27.15-.54.15t-.42.15q-.15.15-.42.27-.27.12-.54.12t-.54.15q-.27.15-.69.15-.42 0-.69.12-.27.12-.42.12h-.27q-.12 0-.12-.27t-.15-2.04q-.15-1.77-.15-3.42t.15-2.73q.15-1.08.42-2.04t.27-1.11v-.3q0-.15-.42-.15h-.96q-.54 0-.69.15-.15.15-.15.57 0 .42-.12.81-.12.39-.27.81-.15.42-.15.84t-.27.96q-.27.54-.39 2.58t0 3.15q.12 1.11.27 1.92.15.81 0 1.23-.15.42-1.11.69-.96.27-1.35.54-.39.27-.96.42-.57.15-.69.27-.12.12-.27.39l-.15.27.27.3q.27.3.54.57.27.27.57.27h.84q.54 0 2.16-.3l-.24 4.92q0 3.3-.15 4.26t-.15 1.11q0 .15-.27.27-.27.12-1.92 1.35t-1.77 1.23h-.27q-.15 0-.42.15t-.54.42l-.54.54q-.27.27-.42.27-.15 0-.27-.15-.12-.15-.27-.42-.15-.27-.15-2.73t.15-3.27q.15-.81.42-2.19t.27-1.5q0-.12-.27-.54-.27-.42-.57-.84l-.3-.42.15-.27q.15-.27.3-.27t.15-.27v-.54q0-.27-.15-.96t0-1.11q.15-.42.81-.42t1.08-.12q.42-.12.96-.27.54-.15.96-.27.42-.12.96-.39t.69-.42q.15-.15.15-.42v-1.08q0-.81-1.38-1.23-1.38-.42-2.07 0t-1.35.81q-.66.39-.81.12-.15-.27-.15-1.77v-1.77q0-.27.15-3.15t.15-3.3v-.69q0-.27.12-.27h1.08q.12 0 .12-.27v-.69q0-.42-.81-1.92t-1.23-1.5h-.69q-.27 0-.54.69t-.27 1.38v6.03q0 1.5-.15 4.38t-.15 3.27q0 .39-.54.39h-.66q-.12 0-1.77.69t-3.42 1.5q-1.77.81-3 1.38-1.23.57-1.53.57-.3 0-.57-.27-.27-.27-.54-.57l-.27-.3-.69.69q-.69.69-1.35 1.38-.66.69-.81.84-.15.15 0 .42t.27.81q.12.54.66.69.54.15 1.65 0 1.11-.15 1.8-.15t1.23-.15q.54-.15 2.04-.96 1.5-.81 2.61-1.35 1.11-.54 1.92-.81.81-.27 1.23-.27.42 0 1.74-.3v2.22q0 2.46-.27 4.08t-.54 2.19q-.27.57-.39.84t-.12.39v.27q0 .15.12.15t0 .42q-.12.42-.39.81-.27.39-.42.96-.15.57-.3.96t-.15.54v.27q0 .12-.12.54-.12.42-.27.84-.15.42-1.11 2.46-.96 2.04-1.23 2.58t-1.62 1.92q-1.35 1.38-2.31 2.49-.96 1.11-1.23 1.65-.27.54.12.93t.54.69q.15.3.27.3h.39q.27 0 .69-.15.42-.15 2.76-2.19t2.34-2.19v-.42q0-.27 1.35-1.5t1.5-1.23q.15 0 .15.12v18.21q0 .27.12.69.12.42.54.96.42.54.69.54h.96q.69 0 .96-.96t-.12-1.92q-.39-.96-.54-1.65-.15-.69-.15-1.77t.15-1.35q.15-.27.27-.27.12 0 .12-.27t-.12-.57q-.12-.3-.12-.42v-3.15q0-.81-.15-5.88l-.15-5.07.42-.27q.42-.27.54-.39.12-.12.66-.54.54-.42.84-.69.3-.27.69-.69.39-.42.81-.69l.42-.27h.15q.15 0 .54-.27t.81-.69l1.11-1.11q.69-.69.81-.69.12 0 .66.15t1.68.15l2.46-2.46q2.46-2.76 3.42-3.99.96-1.23 1.5-2.46t.69-1.65q.15-.42.27-.69l.12-.27h.15q.15 0 .15.42v2.49q0 1.23.12 2.31t.12 1.35q0 .27.15.42.15.15 0 .15h-.66q-.27 0-.42.12-.15.12-.42.69t-.54.96q-.27.39-.81 1.08-.54.69-.96 1.23-.42.54-1.8 2.07-1.38 1.53-3.57 4.53t-2.58 3.69q-.39.69-.69 1.08-.3.39-.3.54 0 .15.15.3t.42.54q.27.39.54.27t.42-.39q.15-.27.27-.42.12-.15.27-.3.15-.15.57 0 .42.15.81.15.39 0 .66.15t.42.27q.15.12.57.39.42.27.81 1.11.39.84.39 1.38 0 .54.15.81t.27.69q.12.42.12.69 0 .27.15.54t.42.96l.54 1.38q.27.69.42 1.35.15.66.42 1.23t.27.69q0 .12.15.12t.15.15q0 .15-.15.27-.15.12-.3.27-.15.15.54 1.11.69.96 1.11 1.08.42.12.96.27.54.15.81-.12t.27-.96q0-.69-.12-1.23l-.12-.54.54-.27q.54-.27.96-.42l.42-.15.39.42q.39.42.66.54.27.12.57.69.3.57.57.96.27.39.66 1.08.39.69.96.96t1.11.27q.54 0 1.08-.12l.54-.12.15-.69q.15-.69.15-.96v-1.41l.12-.12q.12-.12.12-.27 0-.15.15-.15t.15-.12v-1.11q0-.15.12-.27l.12-.12.27-.54q.27-.54.27-1.11 0-.57.15-1.11.15-.54.42-1.5t.42-1.5q.15-.54.54-1.77t.69-2.19q.3-.96.69-2.88.39-1.92.81-3.69.42-1.77.27-1.92-.15-.15-1.23-.42t-2.04-.54q-.96-.27-3.15-.12-2.19.15-2.88.27-.69.12-1.11.27-.42.15-1.08.42-.66.27-1.23.39t-2.19.69q-1.62.57-1.77.57-.15 0-.69.39-.54.39-.81.66t-.42.57q-.15.3-.15.57v.81q0 .54.15.54t.54-.27q.39-.27 1.62-.96t6.03-1.38q4.8-.69 5.49-.42.69.27.69.42 0 .15.12.27.12.12.12.42v.69q0 .39-.54 2.85t-.66 2.61l-.12.15v.42q0 .42-.15.81-.15.39-.15.81 0 .42-.27 1.38t-.42 1.77-.42 1.77q-.27.96-.54 1.8-.27.84-.39.96t-.12.66q0 .54-.3.42-.3-.12-.57-.54-.27-.42-.39-.84l-.12-.42.39-.39.81-.81q.42-.42.57-.54.15-.12.15-.42t-.15-.96q-.15-.66-.42-.81-.27-.15-1.08.12t-1.65.54l-.84.27-.27-.27q-.27-.27-.66-.69-.39-.42-.81-.27-.42.15-.3.84t.12.81q0 .12-1.08.27-1.08.15-1.23 0l-.15-.15-.12-.39q-.12-.39-.27-.81-.15-.42-.42-1.38l-.27-.96h.69q.15 0 .42-.12t.54-.27q.27-.15.69-.3.42-.15.81-.27.39-.12.69-.12h.96q.42 0 .69-.15.27-.15.54-.27l.27-.12.27.27q.27.27.54.69.27.42.69.27.42-.15.96-.69l1.08-1.08q.54-.54.54-.69 0-.15-.54-.69l-1.23-1.23q-.69-.69-1.23-.57t-3.27 1.08q-2.73.96-3.42 1.26-.69.3-.96.3t-.42-.15l-.15-.15-.12-.42q-.12-.42-.39-.69-.27-.27-.84-.96t-1.23-.96q-.66-.27-1.35-.12-.69.15-1.23.15t-.54-.15q0-.15.39-.54l.54-.54q.15-.15.69-.57.54-.42.81-.96t.69-.96q.42-.42 1.23-1.38t1.5-1.62q.69-.66 3.3-3.42t2.34-2.46q-.27.3.81 0t3.42-.84q2.34-.54 4.53-1.08 2.19-.54 2.58-.81.39-.27.54-.42.15-.15.57-.27.42-.12.54-.12.12 0 .39-.15t.54-.42q.27-.27.42-.69.15-.42.57-.96.42-.54.54-1.5.12-.96.12-2.34v-8.73q0-1.11-.12-1.38-.12-.27-.12-.42 0-.15-.15-.54t-.15-.54q0-.15-.12-.42t-.27-.42l-.15-.15h-.27q-.27 0-.42.42-.15.42-.15 1.11 0 .69.15 1.11.15.42 0 1.08-.15.66-.15 1.35 0 .69-.12 1.38t-.12 1.38q0 .69-.15.81-.15.12-.15.96t-.12 1.53q-.12.69-.27 1.23-.15.54-.3.96-.15.42-.15.69v.51l-.12.27q-.12.27-.39.54t-.81.69q-.54.42-1.5.84t-1.53.42h-.84q-.27 0-.81.12t-1.08.27q-.54.15-2.34.84-1.8.69-2.07.69-.27 0-.39-1.11t-.12-1.5V24.6l1.08-.3q.54-.24.96-.39.42-.15.54-.15.12 0 .27-.12.15-.12.84-.42t1.23-.42q.54-.12 1.77-.54 1.23-.42 1.65-.54.42-.12.54-.42.12-.3.12-.42t-.27-.54q-.27-.42-.54-.81-.27-.39-.81-1.08-.54-.69-.69-.96-.15-.27 0-.42.15-.15.42-.3t.12-.27q-.15-.12-.81-.12t-1.23-.15q-.57-.15-.69 0t.15.42l.27.27.12.27q.12.27.27.69.15.42.3 1.11.15.69 0 .69t-.84.27q-.69.27-.96.27t-.69.12q-.42.12-.69.27-.27.15-.54.27-.27.12-.69.27-.42.15-.54.15h-.39q-.27 0-.27-.15v-2.34q0-2.19.12-3.54t.12-2.73q0-1.38.15-1.92t.15-1.08v-.81q0-.27-.15-.42l-.42-.42q-.27-.27-.66-.27t-.69.15l-.3.15zm-2.16 18.3q-.3 1.08-1.38 3-1.08 1.92-1.62 2.46t-1.11 1.38q-.57.84-2.07 2.34l-1.5 1.5h-.12q-.12 0-.27-2.88-.15-2.88.12-3.96t.27-1.5v-.57q0-.15.54-.27.54-.12.96-.27.42-.15.96-.27.54-.12.96-.27.42-.15.69-.27.27-.12.81-.27.54-.15.96-.27.42-.12 1.11-.42.69-.3.81-.15.12.15 0 .42l-.12.27z"/></svg>