<svg viewBox="0 0 555 80" xmlns="http://www.w3.org/2000/svg"><path d="M37.43 16.76q.12.24.2.44.09.21-.02.5-.06.41-.47.59-.76.17-1.03-.21-.26-.38-.09-.73.59-.71 1.41-.59zm-5.45.24q0 .29.12.38.11.08.23.2-.12.18-.03.38.09.21-.03.38-.06.24-.2.3-.15.06-.21.23-.17-.06-.38 0-.2.06-.44-.06-.11-.23-.29-.32t-.18-.32q-.11-.53.36-.82.46-.3 1.05-.35zm10.55 1.34q-.12.36-.15.65-.03.29-.32.47h-.88q-.12-.18-.15-.38-.03-.21-.2-.33.12-.58.23-.64.12-.06 0-.18.53-.05.56-.14.03-.09.2-.03.3.06.44.26.15.21.27.32zm-16.82.71q.29.06.44.2.15.15.44.15.12.53.09.61-.03.09.09.27-.24.47-.5.61-.27.15-.38.15l-.76-.24-.27-.46q-.03-.06-.03-.18.24-.64.3-.7.35-.3.46-.24.12.06.12-.17zm20.63 1.99l-.06.59q-.24.11-.47.26-.24.15-.35.32-.59-.23-.59-.29-.17-.29-.29-.5-.12-.21 0-.44.82-.59 1.4-.53 0 .3.15.38.15.09.21.21zm2.11 3.75q-.06-.24-.27-.32-.2-.09-.26-.27-.12-.64.35-.99t.94-.18q.35.24.44.38.08.15.03.56-.06.12-.12.32-.06.21-.24.32-.35.18-.87.18zm-25.96-.76q-.12.29-.32.58-.21.3-.56.41l-.62-.2q-.08-.03-.2-.15-.35-.94-.03-1.08.32-.15.56-.44.7.23 1.17.88zm-2.7 4.22q.3.64-.08 1.05-.39.41-.85.35-.65-.06-.68-.58-.03-.53.21-1.18.29-.05.73.03.44.09.67.33zm-3.63 6.56q-.12-.29-.32-.5-.21-.2-.21-.56.47-.52.53-.52.06 0 .18-.12.11-.12.23-.15.12-.03.47.03.12.24.23.38.12.15.24.33 0 .29-.12.49-.12.21-.23.38-.3.12-.5.12-.21 0-.5.12zm1.23 5.1l-.12.52q-.41.3-.47.33-.05.03-.17.03-.65.17-.88-.18-.23-.35-.12-.76.3-.47.27-.59-.03-.12.08-.17.53-.18 1.03.05.5.24.38.77zm1.06 5.5q0 .36-.15.53-.15.18-.26.47-.3.12-.47.18-.18.05-.41-.06-.3-.12-.65-.59.12-.29.06-.44-.06-.14.06-.38.64-.23.82-.32.18-.09.35.03.18.23.35.35.18.12.3.23zm1.93 6.51q-.18 1.17-1.35.99-.35-.46-.38-.52-.03-.06-.03-.18-.12-.23-.12-.32t.12-.38q.76-.41 1.29-.24.23.47.47.65zm29.47 2.28q.06.3.15.65.09.35-.15.64-.58.35-.56.38.03.03-.08.09-.53.18-.88-.35-.24-.18-.27-.44-.02-.26.03-.38.06-.29.27-.41.2-.12.44-.29.29.05.52.03.24-.03.53.08zm-24.67 3.28q-.11.3-.26.5-.15.21-.44.32-.88-.29-1-.52-.11-.24.12-.71.94-.58 1.17-.29.24.29.41.7zm20.63 1.88q-.29.06-.5.12-.2.06-.44 0-.53-.12-.56-.71-.02-.58.39-.88.35-.17.84 0 .5.18.62.59.06.29-.09.44-.14.15-.26.44zm-15.7 1.05q-.06.24-.18.33-.12.08-.06.32-.41.23-.99.35-1-.18-.77-1 .41-.58.47-.67.06-.09.18-.15.17.12.35.06.18-.06.41 0 .12.3.29.47.18.18.3.29zm11.3-.29q.06.29.09.53.03.23-.03.58-.52.41-.64.41-.47.06-.7-.2-.24-.26-.42-.56-.05-.29.12-.35.18-.06.12-.35.18-.06.29-.21.12-.14.24-.26.47.12.55.26.09.15.38.15zm-5.74 1.47l-.29.41q-.29-.06-.44 0-.15.05-.32.05-.3-.29-.38-.43-.09-.15-.21-.33.18-.64.59-1.05l.7.06q.41.58.47.58-.12.65-.06.68.06.03-.06.03zM77.1 16.7q.23.3.7.59 0 .17.06.32t.06.32q-.06.41-.41.53-.35.12-.76.18-.53-.41-.65-.5-.12-.09-.23-.15.17-.41.14-.5-.03-.08.03-.14.53-.53.74-.5.2.03.32-.15zm7.09 1.59l.41.05q-.18.65-.3.5-.11-.14-.23.03.12.65-.29.7-.41.06-.76-.05-.18-.3-.33-.56-.14-.26-.03-.62.47-.35.53-.41.59-.05 1 .36zM70.77 19.4q-.06.23 0 .44.06.2.12.44-.3.17-.53.38-.23.2-.76.14-.3-.35-.41-.41-.12-.05 0-.11-.35-.65-.18-.76.18-.12.24-.41.46-.24.82-.06.35.17.7.35zm18.4 3.4q-.47-.12-.85-.15t-.5-.5q-.12-.23-.03-.44.09-.2.15-.5.76-.46 1.11-.29.35.18.59.35.11.59.06.65-.06.06-.12.17-.29.59-.32.59-.03 0-.09.12zm-25.61.11l.35-.05q.65.17.91.38.27.2.15.61 0 .29-.15.41-.14.12-.44.24-.47.23-.64.2-.18-.03-.47-.38-.18-.23-.23-.38-.06-.15.05-.44.12-.29.47-.59zm30.59 2.93q-.29.59-.5.74-.2.14-.32.26-.29.06-.44-.03-.15-.09-.38-.03-.12-.29-.35-.41-.24-.12-.24-.41.24-.64.29-.61.06.03.18-.03.76-.12.85-.18.09-.06.21.06.17.18.29.35.12.18.41.29zm-35.27 4.22q.11-.64.29-.88.76-.23.94-.2.17.03.41.03.41.58.35.85-.06.26-.06.55-.65.36-.94.36-.29 0-.53-.06-.05-.24-.2-.35-.15-.12-.26-.3zm38.08 2.4q-.29.42-1 .36-.29-.06-.46-.18-.18-.12-.36-.23 0-.36-.02-.5-.03-.15.02-.44.3-.18.53-.35.24-.18.71-.06.52.64.49.88-.03.23.09.52zm-37.85 4.4q0 1.46-1.23 1.46-.41-.41-.53-.44-.12-.02-.17-.14-.06-.18 0-.32.05-.15.11-.38.47-.41.59-.53.12-.12.29-.12.24.06.44.26.21.21.5.21zm38.91 1q.05.17.05.43 0 .27.06.44-.41.77-1.58.59-.47-.64-.41-.88.06-.23.18-.64.17-.12.47-.12.29 0 .52-.12.3.24.71.3zm-40.2 6.27q.18.05.35 0 .18-.06.29 0 .12.11.36.17.23.06.35.18.23.35.17.64-.35.59-.41.67-.05.09-.17.15-.71.06-.91-.09-.21-.14-.32-.26-.24-.88-.06-1.03.17-.14.35-.43zm39.49.99q.12.35.21.59.09.23-.03.52-.53.53-1.53.24-.11-.29-.2-.5-.09-.2.03-.67.12-.12.32-.18.21-.06.27-.29.35-.12.49.06.15.17.44.23zm-2.93 7.5q-.11.65-.41.76-.41.24-.73.18t-.44-.18q-.29-.52-.35-.64.18-.65.61-.85.44-.21.85.03 0 .29.18.41t.29.29zm-34.33-.47l.35-.52q.23.11.44.02.2-.08.32-.02.35.23.5.29.14.06.26.17.12.41.06.59t-.23.47l-.65.23q-.35 0-.5-.14-.14-.15-.38-.03-.23-.47-.14-.65.08-.17-.03-.41zm7.03 6.62q-.18.06-.38.15-.21.09-.44-.03-.47-.53-.76-.64.05-.71.52-1.18.47 0 1.03.24.56.23.56.7 0 .29-.21.38-.2.09-.32.38zm22.15-.11q-.65.17-.91.17-.27 0-.38-.06-.12-.06-.32-.2-.21-.15-.39-.27.3-.64.47-.76.59-.41.94-.23.53.47.59.76.06.29 0 .59zm-8.15 3.51q-.29-.23-.76-.41 0-.17-.06-.35-.06-.18.06-.47.53-.53.59-.56.05-.02.29-.02.23 0 .32.11.09.12.32.18.12.17.18.47.06.29-.06.58-.29.3-.88.47zm-8.14-1.23q.29-.06.47-.23.17-.18.47-.3.64.12.9.77.27.64-.2.99-.47.18-.5.21-.03.03-.32-.03-.41-.12-.65-.47-.23-.47-.14-.62.08-.14-.03-.32zm48.34-42.54q-.24.41-.32.71-.09.29-.56.35-.59-.24-.7-.47-.18-.41-.18-.59 0-.17.06-.29 1.05-.47 1.32-.23.26.23.38.52zm-5.39 0q.11.12.08.3-.02.17-.02.35-.24.11-.3.32-.06.2-.35.32-.41 0-.5.09-.09.09-.2.03-.24-.12-.47-.5-.24-.38-.12-.79.06-.12.41-.32.35-.21.65-.15.23 0 .44.12l.38.23zm10.9-.11q0 .29.11.41.12.11 0 .46-.52.53-.55.59-.03.06-.15.06-.53-.18-.65-.21-.11-.03-.23-.14-.12-.18-.18-.47-.05-.29 0-.41.47-.41.59-.47.47-.12.67 0 .21.12.39.18zm-17.64 1.69q-.65-.05-.94-.46-.23-.12-.35-.24-.12-.12 0-.41.53-.58.88-.58t.47.05q.23.06.41.38.17.33.06.68-.53.64-.53.58zm22.26-1.05q.65.23.88.5.24.26.06.85-.29.29-.67.38-.38.09-.79-.21-.3-.52-.12-1.05.23-.06.29-.27.06-.2.35-.2zm6.39 2.87q-.06.18-.06.7-.58.36-.73.5-.15.15-.26.15-.24 0-.38-.09l-.33-.2q-.17-.71.06-1.18.24-.47.82-.41.29.06.47.24.18.17.41.29zm-27.95 2.7q.06.29-.03.44-.09.14-.03.38-.29.11-.5.32-.2.2-.55.15-.29-.06-.56-.5-.26-.44.03-.91.18-.18.65-.29.58-.18.99.41zm31.99 2.05q-.52.58-.38.58.15 0 .09.18-.47.23-.91.06-.44-.18-.61-.53.29-.76.47-1.03.17-.26.58-.26.3.18.53.44.23.26.23.56zm-32.28 3.98q-.06.12-.03.32.03.21-.03.33-.94.58-1 .58-.29 0-.58-.26-.29-.27-.41-.56.12-.17.14-.35.03-.18.15-.35.24-.06.44-.18.21-.11.44-.11.53.41.64.43.12.03.24.15zm33.69 1.82q-.59.11-.67.09-.09-.03-.21-.03-.47-.24-.53-.24-.05 0-.11-.06-.18-.64-.06-.82.12-.17.17-.41.24-.11.38-.23.15-.12.44-.12.12.24.33.32.2.09.38.27-.06.58-.06.76 0 .17-.06.47zm-33.75 3.16l.53.35q.06.65-.09.77-.15.11-.21.41-.64.17-.79.23-.14.06-.26-.06-.59-.58-.35-1.23.12-.41.53-.59.23-.05.29-.02.06.02.35.14zm33.87 1q.41-.12.67-.03.26.09.5.2.17.36 0 .59-.18.23-.12.64-.82.71-1.35-.11-.17-.59 0-.88.18-.29.3-.41zm-35.63 5.21l.44-.2q.21-.09.44-.15.24.06.35.21.12.14.35.2-.11.18.03.32.15.15.03.44-.29.47-.35.56-.06.09-.12.15-.29.11-.55.05-.27-.05-.56-.17-.23-.29-.2-.7t.14-.71zm36.62.94l.18.47q-.06.17-.21.38-.14.2-.26.32-.64.18-.64.15t-.06-.09q-.35-.41-.53-.44-.18-.03-.18-.15.06-.17.03-.41-.03-.23.09-.35l1-.41q.11.18.23.33.12.14.35.2zm-2.63 5.86q.11-.35.06-.64.58-.53.82-.47.23.05.29-.12.17.12.32.2.15.09.38.15.24.76-.26 1.23t-1.09.18q-.05-.24-.23-.33-.18-.08-.29-.2zm-33.4-.18q.58-.41.73-.41.15 0 .44.12.35.29.41.47t.12.29q-.18.65-.94 1.06-.23-.24-.44-.3-.2-.05-.32-.29-.12-.17-.03-.41.09-.23.03-.53zm32.46 4.52q.17.23.35.41.18.17.35.41-.29.7-.58.93-.47.35-.82.06-.24-.12-.36-.29-.11-.18-.23-.41.06-.24.12-.44.06-.21.06-.5.35.12.49-.06.15-.17.62-.11zm-30.94 1.05q0 .29.06.62.06.32-.35.26-.29.47-.62.53-.32.06-.55-.06-.12-.24-.24-.47-.11-.24-.23-.47.12-.18.26-.32.15-.15.27-.32.46-.12.84-.09.39.03.56.32zm26.78 3.75q-.06.47-.35 1.11-.24-.06-.35.06-.12.12-.36.12-.17-.12-.35-.15-.17-.03-.35-.14-.17-.59-.15-.59.03 0 .03-.06.36-.76.59-.91.23-.14.7-.03.18.12.33.3.14.17.26.29zM130.24 60q-.11.24-.35.82-.53.18-.82.12-.29-.06-.41-.06l-.29-1.29q.29-.35.79-.41.5-.05.79.24.06.17.09.35.03.18.2.23zm-23.14 0q.41-.46.47-.44.06.03.11-.02.24-.18.38-.18h.27q.58.47.67.61.09.15.09.33-.06.23-.21.41-.14.17-.2.41-.29-.06-.41.09-.12.14-.47.02-.17-.35-.32-.41-.15-.05-.21-.11-.06-.18-.06-.35 0-.18-.11-.36zm9.61.18q0 .35-.15.53-.15.17-.2.47-.3 0-.41.11-.12.12-.24.12-.58 0-.76-.41-.12-.47-.18-.53-.06-.06 0-.29.12-.29.33-.41.2-.12.32-.35.82.17.99.38.18.2.3.38zm5.33-.7q.17.11.26.35.09.23.21.47-.06.23-.21.32-.14.09-.09.38-.52.12-.61.23-.09.12-.26.12-.24-.06-.33-.2-.08-.15-.2-.44-.06-.12-.12-.27-.06-.14.06-.38l.47-.47q.29-.17.47-.11.17.06.35 0zm28.94-41.37q0 .35.06.61.06.27 0 .62-.47.12-.91.06-.43-.06-.96-.18-.35-.64-.29-.82.05-.17-.06-.35.47-.47.67-.47.21 0 .32-.12.41.12.65.33.23.2.52.32zm29.42-.23l.17.41q-.11.23-.2.46-.09.24-.26.36-.24 0-.33.05-.08.06-.38 0-.47-.17-.52-.26-.06-.09-.18-.15 0-.29-.12-.52-.12-.24.18-.35.29-.42.64-.44.35-.03.47.02.24.06.26.21.03.15.27.21zm-3.05 5.8q-.12.29-.35.49-.23.21-.47.38-.23-.11-.41-.17-.17-.06-.41-.12-.29-.47-.38-.53-.09-.05-.09-.29.18-.64.47-.82.76-.06.88.06t.29.06q.3.35.47.94zm-22.5-.18l-.12.53q-.29.23-.79.26-.49.03-.9-.09-.36-.88-.18-1.17.12-.41.47-.53.12-.05.32 0 .21.06.38 0 .24.18.5.38.26.21.32.62zm18.22 4.16q.12.12.18.32.06.21.23.32-.11.3-.02.36.08.05.14.29-.17.12-.26.29-.09.18-.21.35-.47.18-.96-.03-.5-.2-.74-.55 0-.24.03-.35.03-.12.03-.41.47-.47 1.58-.59zm-11.71 5.51q.58.64.58.99-.35.53-.35.59-.41.23-.44.26-.03.03-.15.03-.29.06-.52-.11-.24-.18-.53-.41.12-.24.03-.41-.09-.18-.03-.36.12-.41.5-.49.38-.09.91-.09zm6.73.47l1.06-.35q.12.29.29.41.18.11.35.29.06.29-.08.44-.15.14-.15.44-.29-.06-.41.06-.12.11-.29.11-.3 0-.5-.26-.21-.26-.56-.38 0-.76.12-.73.12.03.17-.03zm-2.57 5.21q.17.12.26.32.09.21.2.33-.11.29-.11.49 0 .21-.12.5-.23-.06-.35.03-.12.09-.29.21-.3-.06-.44-.18-.15-.12-.44-.23 0-.18-.12-.33-.12-.14-.12-.38.47-.76.76-.79.3-.03.77.03zm.58 6.56q-.17.77-.26.85-.09.09-.03.38-.18.06-.32.15-.15.09-.33.15-.29.06-.55-.06-.27-.12-.5-.24 0-.46-.23-.64.17-1.05 1.4-1.05.41.41.82.46zm-8.08-17.63q-.12.17-.12.64-.35.71-.5.79-.15.09-.32.09-.35.12-.59-.03-.23-.14-.47-.26-.06-1.7 1.18-1.7.41.41.82.47zm6.56 24.72l.47-.29q.58.47.64.47.06 0 .18.23.06.12.09.36.02.23.14.41-.17.17-.38.44-.2.26-.56.32-.11 0-.46-.09-.36-.09-.47-.21-.3-.58-.27-.82.03-.23-.08-.41.52-.11.55-.23.03-.12.15-.18zm1.23 7.39l.23.11q-.11.18-.06.36.06.17.06.35-.23.41-.41.58-.17 0-.32.12t-.32.12q-.29 0-.5-.12l-.38-.23q-.29-.65-.06-1.29.24-.12.5-.33.26-.2.56-.14.58.17.7.47zm32.69-41.78q-.23.18-.46.29-.24.12-.41.35-.3-.05-.53-.08-.24-.03-.53-.09l-.23-1.12q.93-.7 1.52-.46.53.58.5.79-.03.2.14.32zm-7.5 1.7q0-.29-.11-.44-.12-.15-.24-.38.65-1.11 1.47-.94.47.53.5.82.02.29-.03.41-.59.41-.71.38-.11-.03-.23-.03-.18 0-.32.12-.15.12-.33.06zm11.08-.35q-.06-.47-.12-.56-.06-.09.06-.32.53-.47.67-.56.15-.09.33-.09.29 0 .46.18.18.18.47.29.06.76-.47 1.29-.46.12-.76 0-.29-.12-.64-.23zm-15.59 1.81l.41.41q.18 0 .38-.05.21-.06.33.05.11.24.05.56-.05.32.06.62-.7.29-.88.26-.17-.03-.41.03-.35-.24-.58-.53-.24-.29 0-.76.47-.53.64-.59zm20.1-.35l.59-.06q.52.35.87.59.18.29.03.53-.14.23-.2.58-.41.12-.73.15-.33.03-.68-.15-.11-.06-.2-.32-.09-.26-.15-.5 0-.29.18-.41.17-.12.29-.41zm5.04 4.34q.06.29-.12.35-.17.06-.06.35-.11.12-.26.12-.15 0-.38.06-.18.17-.35.11-.18-.05-.35.06-.41-.47-.59-.47v-.88q.12 0 .32-.17.21-.18.32-.24.94-.29 1.47.71zm-25.25 3.22q-.06.23 0 .41.05.18-.06.35-.12.3-.53.41-.24.12-.53.03-.29-.09-.47-.2-.41-.59-.29-.88.23-.47.38-.5.15-.03.26-.21.41.06.68.21.26.15.56.38zm1.4 5.68q.24.06.41.03.18-.03.41-.08.18.11.32.26.15.15.38.2.06.65 0 .8-.05.14-.23.32-.47.23-.5.32-.03.09-.14.03-.59-.41-.65-.41-.06 0-.12-.06-.29-.7-.08-.91.2-.2.2-.5zm7.74 3.17l.23.41q-.12.47-.35.82-.47.12-.79.09-.32-.03-.68-.15-.11-.23-.14-.67-.03-.44.2-.79.12-.06.32-.12.21-.06.39 0 .46.29.58.29.12 0 .24.12zm5.33 2.99l-.47-.18q.12-.23-.03-.38t-.21-.38q0-.18.06-.32.06-.15.12-.38.23-.18.64-.27.42-.09.71.09.06.18.23.29.18.12.24.41 0 .18-.06.33-.06.14-.06.43-.29.12-.53.3-.23.17-.64.06zm6.27.88l.52-.12q.18.17.33.23.14.06.26.18.12.41.21.47.08.06.08.11.06.47-.23.68-.29.2-.59.44-.41-.12-.76-.21-.35-.09-.53-.38 0-.58.06-.94.18-.11.32-.23.15-.12.33-.23zm3.63 7.5l-.59.05q.06-.7-.05-.67-.12.03-.12-.15.12-.52.26-.58.15-.06.15-.3.29-.11.44-.08.14.03.38-.09.29.23.61.56.33.32.21.85-.18.11-.24.23-.05.12-.23.23-.59.12-.82-.05zm-24.49 7.79q.06.29.06.5v.44l-.65.46q-.35.18-.53.12-.17-.06-.41-.12-.46-.41-.44-.58.03-.18-.08-.29.41-.53.41-.59.11-.12.23-.21.12-.08.47-.14.29 0 .47.14.17.15.47.27zm23.49-2.58q.41.35.47.26.06-.08.18-.08.47.64.44.67-.03.03-.03.15.06.41-.06.52-.12.12-.12.3-.23 0-.38.06-.14.05-.38.11-.17 0-.29-.17-.12-.18-.41-.06-.18-.65-.47-.82.12-.24.2-.38.09-.15.21-.38.41.05.64-.18zm-19.51 5.39l.24-.17q.29-.18.61-.03.32.14.62.08.17.3.26.44.09.15.21.33-.36.99-1.47.93-.23-.11-.32-.41-.09-.29-.26-.47.05-.23.08-.38.03-.14.03-.32zm14.71 1.17q-.29-.06-.41-.17-.12-.12-.35-.18-.3-.53-.38-.53-.09 0-.09-.11.23-.59.32-.68.09-.09.15-.2.23-.06.5-.18.26-.12.67 0 .23.29.44.47.2.18.15.53 0 .47-.33.7-.32.24-.67.35zm-7.91 1.29q-.12-.35-.21-.58-.08-.24-.03-.65.71-.41.85-.35.15.06.39-.06l.58.44q.12.09.18.15.11.47-.12.79-.23.32-.53.44-.29.06-.5-.03-.2-.09-.61-.15zm32.87-42.89q0 .29-.18.35-.17.06-.23.3-.29 0-.76-.03-.47-.03-.65-.33-.17-.82-.17-.87.06-.18.2-.27.15-.09.21-.32.64-.29.88-.18.23.12.47.18 0 .12.11.29.12.18.21.35.09.18.09.33 0 .14-.18.2zm-12.19-1.11q.35.76.24 1.05-.12.3-.24.47-.35.12-.7.15t-.59-.15q-.47-.58-.47-.64.12-.47.12-.65.76-.41 1.06-.35l.58.12zm18.11 1.05q-.12.12-.29.18-.18.06-.12.35-.24.12-.38.12-.15 0-.38.11-.3-.11-.47-.29-.18-.17-.47-.29 0-.24-.03-.41-.03-.18-.03-.41.29-.18.53-.35.23-.18.52-.36.65.3.71.3.23.58.32.7t.09.35zm11.66-.47q.06.41-.12.62-.17.2-.29.44-.35 0-.62.06-.26.06-.55-.06-.12-.12-.24-.27-.12-.14-.23-.26.11-.17.06-.41-.06-.23 0-.35l.29-.29q.06-.06.17-.18h.56q.15 0 .5.06.18.35.47.64zm5.27-.58q.59.53.35 1.11-.41.35-.52.47-.24.06-.47-.03-.24-.09-.53-.03-.41-.7-.35-.99.53-.59.85-.59.32 0 .67.06zm-29.59-.12l.18-.12q.41.47.44.53.03.06.2.18.12.11.09.26-.03.15.03.44-.53.47-.82.47-.59 0-.65.03-.05.03-.17-.03-.12-.06-.29-.24-.18-.17-.18-.29.06-.23 0-.29-.06-.06-.06-.35.53-.41.76-.56.24-.15.47-.03zm18.69.94q-.06.53-.55.73-.5.21-1.09.09-.11-.12-.23-.27-.12-.14-.35-.2.23-.12.17-.35-.06-.24.06-.41.24-.29.47-.44.23-.15.35-.15.24 0 .38.12.15.12.38.18.3.35.3.46 0 .12.11.24zm-6.62 6.03q.18.24.24.53.06.29.35.35-.18.3-.35.56-.18.26-.53.38-.41-.18-.56-.09-.14.09-.26-.03-.12-.17-.21-.41-.08-.23-.26-.41.23-.23.23-.64.59-.41 1.35-.24zm.71 7.91q-.24.36-.24.44 0 .09-.06.15-.11.12-.29.2-.18.09-.29.21-.41-.23-.5-.18-.09.06-.21 0l-.23-.23q-.12-.12-.35-.18.17-.99.35-1.23.17-.23.5-.29.32-.06.61.18.47.41.53.58.06.18.18.35zm-.36 6.33q0 .29.06.38l.18.27q-.35.7-.32.7.03 0-.21.12-.41.23-.64.11-.24-.11-.53-.17-.12-.12-.18-.35-.06-.24-.29-.36 0-.29.15-.49.14-.21.26-.38.23-.06.41-.12.18-.06.41-.12.18.12.29.24.12.11.41.17zm.24 7.5q.06.24-.15.29-.2.06-.09.41-.58.53-1.34.24-.3-.59-.41-.62-.12-.03-.18-.14 0-.35.29-.59.35-.23.71-.38.35-.15.47.21.46.41.7.58zm-.41 6.51l.17.82q-.23.35-.32.46-.09.12-.14.24-.3-.06-.53-.06-.24 0-.53-.06-.12-.29-.35-.41-.24-.12-.29-.41.29-.53.41-.67.11-.15.29-.27.29-.11.67-.03.38.09.62.39zm.35 7.91q-.53.41-.64.49-.12.09-.24.09t-.29-.12q-.18-.11-.41-.05-.18-.24-.32-.44-.15-.21-.15-.5.06-.29.29-.47.24-.18.35-.35.3-.06.5-.03.21.03.44.09.12.35.35.55.24.21.12.74zm40.43-43.01q.23.41.47.53-.06.64-.21.73-.14.09-.2.32h-.65q-.47-.29-.55-.26-.09.03-.15-.09-.06-.53.03-.62.09-.08.09-.38.11-.23.47-.29.35-.06.7.06zm3.05 6.85l-.12.06q-.35 0-.59-.17-.23-.18-.47-.3.12-.7.27-.91.14-.2.44-.26l.64.06q.12.06.29.26.18.21.24.38-.29.59-.47.65-.18.06-.23.23zm-6.16 1.06q-.29.12-.52 0-.24-.12-.41 0-.12-.71-.15-.79-.03-.09-.03-.27.06-.29.21-.38.14-.09.26-.26.41 0 .59.03.17.03.41.03.11.29.29.47.17.17.12.52 0 .3-.27.41-.26.12-.5.24zm8.91 4.8q.18.18.32.35.15.18.27.47l-.53.65q-.29.11-.59 0l-.58-.24q-.18-.52-.06-.76.47-.47 1.17-.47zm-13.12 1.35q-.18-.76-.09-.88t.09-.35q.23-.12.49-.26.27-.15.44.14.3-.06.35.03.06.09.3.09.06.53.23.76-.29.29-.53.41-.76.35-.93.27-.18-.09-.35-.21zm16.34 6.5q-.23.06-.38.18-.14.12-.38.12-.29-.06-.44-.21-.14-.14-.38-.2.06-.35-.06-.65.59-.76 1-.76.41 0 .64.35.24.41.15.62-.09.2-.15.55zm-17.99-.82l.12.06q.18.24.15.5t.09.56q-.53.29-.65.35t-.23.06l-.59-.41q-.29-.35-.23-.53.06-.18-.06-.29.58-.35.85-.3.26.06.55 0zm18.93 7.56q-.12-.11-.32-.2-.21-.09-.32-.32-.12-.71-.24-.94.82-.41 1.26-.35.44.05.62.35.05.11.08.38.03.26-.03.38-.11.47-.41.5-.29.03-.64.2zm-21.33-1.23q.12.12.12.32 0 .21.12.39-.3.52-.33.52-.03 0-.14.12-.35.23-.76 0-.24-.18-.41-.35-.18-.18-.18-.29-.06-.24.12-.5.17-.27.41-.44.17-.12.47.03.29.14.58.2zm6.15.71q.12.35.12.55 0 .21.12.44-.29.35-.32.41-.03.06-.15.18-.23.11-.47.06-.23-.06-.47-.12-.23-.59-.41-.7.06-.3.27-.5.2-.21.44-.38.52.11.61.06.09-.06.26 0zm9.73-.3l.53.3q-.06.35.12.49.17.15.11.38 0 .36-.35.59-.94.23-.94.29-.17-.11-.32-.2-.15-.09-.32-.21.06-.17 0-.35-.06-.17 0-.35.23-.35.23-.44 0-.09.06-.15.35-.29.56-.26.2.03.32-.09zm-4.75.18q.3.64.33.64.03 0 .09.06 0 .18-.03.35-.03.18-.03.41-.41.24-.5.21-.09-.03-.15.03-.64.11-.64.06-.35-.36-.35-.68 0-.32-.06-.61.23-.24.58-.38.35-.15.76-.09zm12.08 4.28l.41-.47q.58.17.67.11.09-.05.2 0 .41.47.41.59 0 .47-.11.7-1.12.47-1.44.09-.32-.38-.14-1.02zm-25.84.87q.11.53.26.56.15.03.09.21-.24.64-1.06.82-.47-.36-.76-.47 0-.3-.09-.38-.09-.09.03-.38.12-.18.21-.3.08-.11.2-.23.65 0 1.12.17zm29 5.1q0 .29.09.38.09.09.2.21-.11.47-.44.7-.32.24-.79.35-.12-.11-.38-.29t-.44-.41q.06-.18.12-.29.06-.12.06-.41.17-.12.52-.47.3.11.56.11.26 0 .5.12zm-31.29.82q.12.41.18.53.05.12-.06.35-.3.41-.59.47t-.41-.18q-.64-.29-.64-.49v-.44q.11-.12.26-.21.15-.09.21-.26.35-.06.55.03.21.09.5.2zm32.87 4.46l.59.11q.23.53.17.65-.06.11 0 .35-.23.41-.35.38-.12-.03-.17.09-.3-.12-.56-.12-.26 0-.56-.06-.11-.7-.14-.79-.03-.09.03-.2.35-.47.99-.41zm-34.45.11q0 .35.06.53.06.18-.06.47-.12.12-.35.12-.24 0-.24.23-1.17.12-1.23-.59-.06-.7.41-1.11.59.18.65.12.29-.12.41 0 .11.12.35.23zm58.12-41.31q-.29 0-.52.06-.24.06-.47-.06-.35-.29-.41-.52-.06-.24-.18-.41.24-.24.35-.71.24 0 .41-.06.18-.05.35 0 .24 0 .39.18.14.18.43.23.12.59-.05.85-.18.27-.3.44zm-6.38-1.11l.17.35q-.06.24-.23.3-.18.05-.06.35-.24.06-.35.14-.12.09-.35.15-.24 0-.44-.06-.21-.06-.44-.12-.18-.11-.21-.32-.03-.2-.14-.38.17-.17.29-.7.23-.12.53-.15.29-.03.58-.03.41.47.5.44.09-.03.15.03zm-6.68.59q-.12.41-.12.64-1.23.47-1.7 0 0-.17-.09-.32t-.09-.32q.24-.3.21-.47-.03-.18.09-.35.11.11.26.03.15-.09.38-.09.24.06.35.11l.36.18q0 .24.11.35l.24.24zm19.63.35q0 .17-.03.29-.03.12-.03.35-.65.41-.94.47-.29.06-.59-.17-.29-.24-.29-.39 0-.14-.18-.14.24-.47.12-.82.24-.12.38-.24.15-.11.38-.05.94.29 1.18.7zm5.44 4.04q-.11.24-.11.29 0 .06-.06.36-.24.05-.26.2-.03.15-.33.21-.29.11-.52-.03-.24-.15-.53-.21-.12-.29-.21-.58-.08-.3.03-.71.76-.35.91-.32.15.03.26-.09.41.41.56.59.15.17.26.29zm-26.36 2.93q-.59-.47-.59-.67 0-.21-.17-.27.11-.11.17-.26.06-.15.06-.44.23-.12.53-.23.29-.12.58 0 .18.11.36.2.17.09.29.21l.12.82q-.71.64-1.35.64zm27.77 3.16v.53q-.06.18-.2.3-.15.11-.21.35-.29.06-.47.08-.17.03-.41.09-.17-.17-.32-.47-.15-.29-.32-.46.23-.71.35-.8.12-.08.23-.32.3.06.38.12.09.06.33 0 .41.35.49.41.09.06.15.17zm-26.48 2.41q.17.47-.06.82-.24.35-.47.64-1.23.3-1.52-.64.17-.35.11-.65.12-.06.21-.23.09-.18.2-.29.88 0 1.06.14.17.15.47.21zm23.96 2.99l.47.58q.06.59 0 .73-.06.15-.06.33-.29-.12-.35.05-.06.18-.29.3-.35 0-.53-.15-.18-.15-.47-.15.12-.29-.03-.43-.14-.15-.2-.33.47-.7.79-.76.32-.06.67-.17zm-23.9 4.45q-.24.58-.21.67.03.09.03.15-.41.53-.47.38-.06-.15-.17-.21-.71 0-.83-.08-.11-.09-.23-.15-.12-.41-.12-.53 0-.11-.11-.23.46-.53.73-.65.26-.11.79-.05.18.11.29.35.12.23.3.35zm19.1.88q0 .76-.53.99-1 .24-1.41-.23.06-.47.09-.73.03-.27.21-.68.17-.06.38-.11.2-.06.32 0 .64.41.73.52.09.12.21.24zm-6.98.99q-.11.3-.03.56.09.26-.08.56-.12.23-.62.32t-.79-.09q-.29-.53-.41-.64-.12-.12-.06-.24 0-.17.18-.35.17-.17.23-.41.24 0 .38-.06.15-.06.38-.06.24.06.38.27.15.2.44.14zm-6.73-.23q.11.23.2.29.09.06.21.3-.18.7-.21.73-.03.03-.2.26-.71.29-1 0-.59-.7-.47-.99.12-.3.24-.53.52-.24.73-.12.2.12.5.06zm11.3 5.39q-.46 0-.67-.03-.2-.03-.5.09-.06-.24-.17-.35-.12-.12-.12-.35-.12-.3-.06-.44.06-.15 0-.44.65-.24 1-.41.29.11.41.23.11.12.41.24.11.7-.06.93-.18.24-.24.53zm-17.05-.35q.12.23.21.41.09.17.15.47-.12.17-.27.23-.14.06-.26.18-.53.47-.53.44 0-.03-.12-.09-.58-.12-.67-.26-.09-.15-.21-.21.12-.29.06-.47-.06-.17 0-.41.47-.17.5-.23.03-.06.15-.06.47-.06.99 0zm20.34 3.98l.46.47q.36.47.36.59 0 .11.11.11-.64.59-.99.74-.35.14-.76-.03-.36-.3-.53-.47.06-.59.14-.82.09-.24.21-.41.23-.12.5-.12.26 0 .5-.06zm-21.98 3.52q.71-.41.94-.41.41.12.7.12.18.46.27.52.09.06.09.24 0 .17-.15.41-.15.23-.26.35-.88.17-1.18.06-.11-.06-.23-.27-.12-.2-.24-.32-.05-.23.03-.32.09-.09.03-.38zm26.08 3.28l-.24.35q-.41-.06-.73-.09t-.56-.2q-.17-.7-.2-.85-.03-.15.09-.32.41-.3.58-.38.18-.09.47.02.59.41.7.41.12.24.15.59t-.26.47zm-24.73 5.62q-.29-.11-.61-.14-.33-.03-.62-.15-.29-.64-.23-.91.05-.26.23-.32.41-.53.53-.47.11.06.29.06.59 0 .88.41.18.35.18.59 0 .23-.06.35-.3.17-.35.35-.06.18-.24.23zm27.77.06q-.29 0-.41-.08-.11-.09-.52-.09-.12-.18-.3-.27-.17-.08-.29-.2.12-.88.18-.94.58-.41.85-.44.26-.03.44-.09.23.12.41.3l.35.35q0 .64-.18.88-.29.41-.35.47-.06.05-.18.11zm34.11-44.59q.23.3.26.44.03.15.15.21.05.29.08.44.03.14-.08.38-.36.47-.47.47-.41.11-.68-.03-.26-.15-.49-.27-.24-.64-.15-.76.09-.11.2-.29.59-.59.79-.56.21.03.39-.03zm.35 7.39q-.47.41-.47.46 0 .06-.12.12-.58.18-.7.12-.47-.53-.5-.56-.03-.03.03-.2-.12-.76.15-1.06.26-.29.73-.23.29.06.44.26.14.21.32.38-.06.24 0 .38.06.15.12.33zm.29 5.74q-.41.82-.82 1.17-.47 0-1.05-.12-.24-.7-.3-1.11.24 0 .27-.21.03-.2.2-.32.35-.17.7-.06.36.06.53.3.18.23.47.35zm-.82 7.21q-.35 0-.62-.12-.26-.12-.49-.24-.3-.41-.24-.93.35-.36.73-.47.39-.12.68 0 .23.47.29.52.06.06.06.12 0 .53-.15.71-.14.17-.26.41zm-.29 4.1l.76.41q.12.17.2.41.09.23.03.47 0 .17-.14.32-.15.14-.15.32-.35.12-1.05.23-.71-.58-.53-1.58.53-.47.67-.44.15.03.21-.14zm.99 6.85q0 .3-.03.47-.03.18-.08.53-.47.47-.74.47-.26 0-.38-.06-.58-.41-.61-.59-.03-.17-.21-.23-.06-.29.09-.47t.21-.47q.82-.12.93-.23.59.29.65.44.06.14.17.14zm-.06 6.98q-.35.46-.58.58-.35.24-.76.03-.41-.2-.53-.5.06-.64.09-.76t.14-.12q.53-.41.65-.47.12-.05.35-.05.35.23.44.55.09.32.2.74zm5.34 4.16h.35q.17.29.35.52.18.24.06.71-.41.41-.5.49-.09.09-.2.09-.59.12-.94-.56-.35-.67.17-1.14.59-.11.71-.11zm6.27 0q.11.46.14.7.03.23-.09.7-.46.41-.58.38-.12-.03-.12.09-.17-.06-.38-.09-.2-.03-.38-.09-.29-.58-.29-.82v-.35q.29-.29.7-.5.41-.2 1-.02zm4.86-.06q.35.58.44.67.09.09.09.21.06.17-.03.35-.09.17-.09.41-.29.11-.41.23-.12.12-.59 0-.11 0-.32-.14-.2-.15-.26-.27-.06-.76.11-.91.18-.14.24-.44.29.06.41.03t.41-.14zm4.69 1.93q-.82-.06-1.17-.64.11-.59.23-.88.35-.35.47-.33.12.03.23-.02.3-.12.5.14.21.27.38.56.06.53 0 .58-.06.06 0 .18-.23.06-.32.18-.09.11-.32.23zm5.5-.82q-.11.35-.2.41-.09.06-.15.18-.35.41-.47.41h-.17q-.41-.12-.53-.12-.12 0-.12-.06-.23-.41-.32-.59-.09-.17-.09-.35.12-.41.47-.76.65-.12.82.03.18.15.41.15.06.23.15.38.09.14.2.32zm-26.95-.35q0 .35.03.55.03.21.03.62-.29.12-.5.29-.2.18-.55.12-.18-.06-.39-.23-.2-.18-.26-.41-.06-.24-.06-.36 0-.11.12-.35.12-.17.26-.32.15-.15.27-.32.7.17 1.05.41zm35.98-42.6q.06.29 0 .44-.06.15-.06.38-.64.18-.82.24-.18.05-.29.05-.71-.35-.71-.82 0-.29.15-.44.15-.14.26-.44.53-.11.88.12.35.24.59.47zm.17 5.1q-.17.58-.17.76-.47.29-.59.29-.35.12-.61 0-.27-.11-.38-.23-.36-.65-.27-.76.09-.12.03-.35.24-.06.38-.24.15-.17.44-.17.59.29.82.41.24.11.35.29zm-.46 6.39q-.47.17-.94.11-.3-.23-.5-.47-.21-.23.03-.64.82-.53 1.08-.35.27.17.56.35 0 .47-.06.67-.06.21-.17.33zm-1.29 5.74q-.06-.35-.18-.68-.12-.32-.06-.61.24-.12.41-.21.18-.08.47-.03.24.06.38.21.15.15.38.15 0 .52-.09.76-.08.23-.26.52-.35-.05-.56-.02-.2.02-.49-.09zm.99 5.62q-.47.12-.76.06-.35-.17-.38-.17-.03 0-.15-.24-.23-.53-.11-.7.17-.3.32-.35.14-.06.14-.18.47-.06.59 0t.41.18q.06.23.21.32.14.09.14.26 0 .29-.14.41-.15.12-.27.41zm-.88 3.81q.06-.12.3 0 .23.12.35-.06.35.35.44.35.09 0 .2.06.12.41 0 .68-.11.26-.23.49-.35.12-.76.09-.41-.03-.65-.26-.12-.41-.06-.79.06-.38.41-.56zm.71 5.22q.17.46.58.52.06.59.15.59t.15.12q-.36.17-.41.26-.06.09-.18.03-.29.12-.53.15-.23.02-.53-.03-.41-.3-.52-.47-.12-.18-.12-.24.29-.52.44-.61.15-.09.26-.32.18.11.35.02.18-.08.36-.02zm-.47 5.27q.41.23.64.23.3.53.35.77.06.23-.05.35-.3.23-.65.23-.35 0-.82-.06-.06-.23-.15-.32-.08-.09-.08-.38.35-.65.49-.67.15-.03.27-.15zm-.76 5.33q.52-.23.55-.26.03-.03.21-.03.17-.12.32.03.15.14.38.2.24.47.21.62-.03.14.08.2-.11.18-.26.24-.15.06-.15.29-.58.18-.9-.06-.33-.23-.5-.53.06-.11.06-.32v-.38zm32.11-43.36q.05.59-.03.79-.09.21-.15.5-1 .18-1.64-.47-.06-.29.03-.44.09-.14.03-.38.29-.12.58-.41.41.06.65.21.23.14.53.2zm6.44.65q.12.88-.29 1.17-.65.23-1.12-.12-.46-.35-.35-.88.12-.23.41-.44.3-.2.59-.2t.44.17q.14.18.32.3zm-12.13.58q0 .3.06.5.06.21.06.5-.53.41-1 .35-.17 0-.35-.21-.17-.2-.41-.08v-.5q0-.15.06-.5.59-.35.94-.26.35.09.64.2zm16.58 3.28q-.29.12-.52.18-.24.06-.65-.06-.47-.47-.5-.61-.03-.15-.14-.27.23-.29.55-.55.33-.27.74-.15.58.58.61.91.03.32-.09.55zm-22.55-.11l.35.41q-.12.29-.12.76-.12.23-.35.32-.24.09-.47.21-.24 0-.35-.12-.12-.12-.41-.12.06-.17-.06-.32t-.12-.32q-.06-.18.03-.35.09-.18.03-.36.64-.35.94-.29.29.06.53.18zm24.96 2.46l-.12-.41q.76-.18 1-.03.23.14.52.14.3.36.35.59.06.23-.05.53-.41.47-.47.5-.06.02-.12.02-.7.06-.97-.17-.26-.24-.38-.53.12-.47.24-.64zm-29.77 3.28q.23.47.23.94-.23.41-.46.52-.12 0-.33.03-.2.03-.32.03-.35-.29-.56-.47-.2-.17-.2-.47l.29-.58q.12-.18.35-.21.24-.03.36-.03.29 0 .64.24zm-4.51 7.26q.29-.11.5-.32.2-.2.49-.2.36.17.53.14.18-.03.3.09.11.24.17.5.06.26-.06.56-.35.35-.41.32-.06-.03-.17.03-.82-.06-.94-.15t-.35-.32q.17-.41.03-.44-.15-.03-.09-.21zm18.69 7.33q-.06.29.21.35.26.06.55.06 0 .12.09.23.09.12.03.41-.59.18-.76.65-.3-.06-.47.09-.18.14-.47.02-.41-.35-.47-.35t-.17-.11q0-.3-.03-.53-.03-.24.08-.47.24-.35.38-.35.15 0 .15-.12.29 0 .47.12t.41 0zm6.27.06q.29.41.35.61.06.21-.06.32-.17.47-.29.77h-.94q-.17-.12-.29-.3-.12-.17-.24-.29.06-.18.06-.41v-.47q.3 0 .41-.12.12-.11.3-.23.17.12.29.09.12-.03.41.03zm5.57-.06q.29.64.41.61.11-.03.11.09 0 .65-.29.94-.59 0-.67.06-.09.06-.27-.06-.52-.47-.52-.53 0-.06.05-.41.06-.35.18-.47.23-.23 1-.23zm-29.3-.29l.59.17q.11.29.11.56v.73q-.23.23-.58.23h-.82q-.41-.46-.41-.52v-.24q0-.29.11-.47.12-.17.24-.35.23-.06.38-.11.14-.06.38 0zm34.22 2.28q-.41.12-.56.09-.15-.03-.26.14-.3-.17-.53-.35-.23-.17-.23-.47.23-.41.23-.52 0-.12.12-.24.76-.23 1.08-.06.32.18.44.53-.12.53-.15.65-.02.11-.14.23zm-.06 4.57q0 .29.12.5.11.2 0 .44-.12.47-.53.58-.41.12-.76 0-.18-.29-.41-.52-.24-.24-.12-.71.23-.11.44-.26.2-.15.5-.26.23 0 .32.14.09.15.44.09zm-31.29.76q-.12.47.06.88-.35.41-.38.47-.03.06-.15.12-.88 0-1.05-.27-.18-.26-.35-.38-.06-.41.14-.67.21-.26.53-.35.32-.09.64-.03.33.06.56.23zm29.47 5.63q.06-.35.15-.44.09-.09.03-.32.17-.12.32-.27.15-.14.44-.14.41.17.5.23.09.06.26.12.06.7.09.76.03.06.03.17-.18.24-.29.36-.12.11-.24.11-.17.06-.35.03-.18-.03-.35-.03-.12-.11-.24-.29-.11-.18-.35-.29zm-26.66.47q.12.29.21.67.09.38-.03.79-.29.06-.53.06-.23 0-.53.06-.23-.29-.44-.44-.2-.15-.2-.56.06-.47.5-.61.44-.15 1.02.03zm6.57 3.86q-.06.3-.03.38.03.09.03.39l-.53.52q-.71-.06-.94-.35-.23-.29-.23-.47-.06-.11.03-.29.08-.18.02-.41.41-.18.94-.21t.71.44zm17.57 1.06l.18.29q-.06.18-.06.32 0 .15-.06.33-.12.23-.41.38-.29.14-.7.03-.18-.06-.26-.18-.09-.12-.39-.23-.05-.53.18-.88.23-.35.7-.35.24 0 .38.2.15.21.44.09zm-10.72.47q-.23.52-.09.55.15.03.09.15-.29.12-.59.35-.29.24-.58.12-.24-.12-.29-.26-.06-.15-.36-.21-.11-.76.24-1.11.76-.12 1.05.03.3.14.53.38zm4.92 1.75q-.29-.17-.47-.55-.17-.38 0-.68.71-.35 1-.29.29.06.47.18.12.52.2.52.09 0 .03.24-.52.7-1.23.58zm8.79-3.63l.47-.12h.7l.27.27.26.26q0 .76-.41 1.17-.47 0-.7.06-.24.06-.53-.23-.23-.59-.15-.85.09-.27.09-.56zm12.31-41.72q.58-.06.85.03.26.09.55.21.35.88.12 1.23-.23.35-.59.47-.23 0-.64-.12-.41-.12-.53-.23-.17-.59-.12-.68.06-.09.06-.2.06-.3.24-.36.17-.05.06-.35zm36.21.88q0 .35.09.56.08.2-.03.56-.3 0-.47.11-.18.12-.47.24-.18-.12-.47-.24-.29-.11-.35-.41-.12-.17-.03-.35.09-.17.15-.47.11-.12.43-.26.33-.15.5.14.24-.11.35-.05.12.05.3.17zm-36.27 6.1q-.18-.3-.18-.53v-.7q.59-.41 1.35-.3.06.24.29.32.24.09.18.33.06.58-.15.85-.2.26-.44.26-.23.12-.5 0-.26-.12-.55-.23zm36.15.11q-.29.06-.59.18-.29.12-.58.06-.76-.24-.59-1.35.24-.35.59-.32.35.03.76-.03.12.17.26.29.15.12.21.41.06.18-.03.35-.09.18-.03.41zm-.41 3.99q.18.23.23.52.06.3.18.59-.29.29-.64.5-.36.2-.94.09-.12-.18-.21-.38-.08-.21-.2-.33.23-.47.2-.49-.03-.03.09-.15.7-.41.85-.35.15.06.44 0zm-34.22-.24q0 .18.09.35.09.18.09.3 0 .23-.18.38-.17.14-.12.44-.82.17-1.26-.18-.44-.35-.44-1.05.47-.3.53-.32.06-.03.06-.09.41-.06.67 0 .27.06.56.17zm33.17 6.16l.29-.47q.06.23.7.23.12.12.29.24.18.11.3.23v.76q-.24.12-.38.35-.15.24-.68.12-.52-.35-.58-.44-.06-.09-.12-.15 0-.52.06-.64t.12-.23zm-34.87-.47l.18-.41q.29.06.64.11.35.06.65.12.29.24.29.59t-.12.64q-.29 0-.47.15-.17.14-.41.14-.35-.05-.52-.26-.18-.2-.41-.38.29-.53.23-.56-.06-.03-.06-.14zm36.33 5.45q.12.46.09.93-.03.47-.5.71-.29.06-.53-.03-.23-.09-.35.03-.12-.12-.26-.27-.15-.14-.27-.38 0-.23.12-.41.12-.17-.12-.29.24-.29.44-.41.21-.12.44-.12.18 0 .41.15.24.14.53.09zm-28.36.35l.59.17q-.59.65-.68.74-.08.08-.38.2-.23.12-.44.09l-.61-.09q0-.29-.15-.35t-.2-.35q.52-.88 1.08-.82.56.06.79.41zm6.8.93q-.18.12-.27.3-.08.17-.26.23-.76.12-.94-.09-.17-.2-.47-.44 0-.29-.11-.46-.12-.18-.24-.3.65-.17.94-.38.29-.2.82-.14.41.35.38.44-.03.08.09.02.12.3-.03.44-.15.15.09.38zm5.97-.82q0 .24.06.47.06.24 0 .41-.47.41-.82.47t-.64-.06q-.12-.11-.24-.29-.11-.18-.17-.29 0-.12.09-.44.08-.32.2-.44.29-.29.73-.21.44.09.79.38zm10.43-.11q.24.7.15.93-.09.24-.15.42-.35.05-.41 0-.05-.06-.23.05-.7-.11-.82-.2-.12-.09-.24-.21.06-.76.24-.96.17-.21.47-.33.53.06.7.15.18.09.29.15zm-5.39 0q.41.52.35.73-.05.2.12.26-.47.41-.55.47-.09.06-.39.12-.35.06-.64 0-.23-.18-.32-.53-.09-.35-.09-.64.29-.53 1.52-.41zm-24.08.64l-.38.27q-.2.14-.38.14-.76-.58-1.06-.76 0-.76.18-.79.18-.03.29-.32.24.06.41.03.18-.03.36.03.52.52.7.52-.06.41-.12.53-.06.12 0 .35zm32.93 5.8q-.06-.23-.12-.41-.05-.17-.17-.41.29 0 .35-.2.06-.21.23-.32.3-.12.62-.06t.61.11q.12.24.18.71 0 .58-.32.76-.32.17-.68.17-.23-.05-.38-.14-.14-.09-.32-.21zm-32.75-1.46q.06.23.03.47-.03.23.08.52-.7.59-1.14.41-.44-.17-.79-.29 0-.7.12-.82t.12-.35q.35-.29.79-.21.44.09.79.27zm32.93 6.91q-.18-.12-.21-.38t-.2-.44q.23-.58.64-.88.29-.06.47.09t.53.09q.17.23.35.53.17.29-.06.64-.23.35-.35.38-.12.03-.18.15-.58 0-.99-.18zm-32.99 0q-.7.06-1.29 0-.29-.53-.41-.64 0-.3.06-.56.06-.26.17-.38.47-.06.68-.06.2 0 .61.06.06.88.18 1.58zm34.51 3.58q.12.29.12.7t-.12.7q-.59.24-1.17.24-.47-.41-.53-.62-.06-.2-.17-.44.17-.12.26-.29.09-.18.15-.35.17 0 .32-.09.14-.09.32-.09.23 0 .44.09.2.09.38.15zm-34.34.7q-.11.23-.23.38-.12.15-.06.5-.41.29-1.11.12-.12-.12-.24-.27-.11-.14-.35-.2 0-.24.06-.35.06-.12 0-.42.82-.52.97-.52.14 0 .38.11.17.59.58.65zm34.16 4.45q0 .3.09.5.09.21.03.44-.23.47-.44.53-.2.06-.26.29-.24-.12-.41-.15-.18-.03-.41-.14-.24-.18-.32-.38-.09-.21-.09-.38.06-.59.17-.62.12-.03-.05-.15.41-.29.84-.17l.85.23zm-34.62-.17q.11.11.2.35.09.23-.03.35.24.7 0 1.11-.23.18-.56.18-.32 0-.73-.06-.11-.12-.17-.29-.06-.18-.3-.24-.11-.41.12-.67.24-.26.35-.56.41-.06.59-.06.17 0 .53-.11zm55.25-40.61q0 .29-.18.35-.17.06-.23.3-.29 0-.76-.03-.47-.03-.65-.33-.17-.82-.17-.87.06-.18.2-.27.15-.09.21-.32.64-.29.88-.18.23.12.47.18 0 .12.11.29.12.18.21.35.09.18.09.33 0 .14-.18.2zm-12.19-1.11q.35.76.24 1.05-.12.3-.24.47-.35.12-.7.15t-.59-.15q-.47-.58-.47-.64.12-.47.12-.65.76-.41 1.06-.35l.58.12zm18.11 1.05q-.12.12-.3.18-.17.06-.11.35-.24.12-.38.12-.15 0-.38.11-.3-.11-.47-.29-.18-.17-.47-.29 0-.24-.03-.41-.03-.18-.03-.41.29-.18.53-.35.23-.18.52-.36.65.3.71.3.23.58.32.7t.09.35zm11.66-.47q.06.41-.12.62-.18.2-.29.44-.35 0-.62.06-.26.06-.55-.06-.12-.12-.24-.27-.12-.14-.23-.26.11-.17.06-.41-.06-.23 0-.35l.29-.29q.06-.06.17-.18h.56q.15 0 .5.06.17.35.47.64zm5.27-.58q.59.53.35 1.11-.41.35-.52.47-.24.06-.47-.03-.24-.09-.53-.03-.41-.7-.35-.99.52-.59.85-.59.32 0 .67.06zm-29.59-.12l.18-.12q.41.47.44.53.03.06.2.18.12.11.09.26-.03.15.03.44-.53.47-.82.47-.59 0-.65.03-.05.03-.17-.03-.12-.06-.29-.24-.18-.17-.18-.29.06-.23 0-.29-.06-.06-.06-.35.53-.41.76-.56.24-.15.47-.03zm18.69.94q-.06.53-.55.73-.5.21-1.09.09-.12-.12-.23-.27-.12-.14-.35-.2.23-.12.17-.35-.06-.24.06-.41.23-.29.47-.44.23-.15.35-.15.24 0 .38.12.15.12.38.18.3.35.3.46 0 .12.11.24zm-6.62 6.03q.18.24.24.53.05.29.35.35-.18.3-.35.56-.18.26-.53.38-.41-.18-.56-.09-.14.09-.26-.03-.12-.17-.21-.41-.08-.23-.26-.41.23-.23.23-.64.59-.41 1.35-.24zm.7 7.91q-.23.36-.23.44 0 .09-.06.15-.12.12-.29.2-.18.09-.29.21-.41-.23-.5-.18-.09.06-.21 0l-.23-.23q-.12-.12-.35-.18.17-.99.35-1.23.17-.23.5-.29.32-.06.61.18.47.41.53.58.06.18.17.35zm-.35 6.33q0 .29.06.38l.18.27q-.35.7-.32.7.02 0-.21.12-.41.23-.64.11-.24-.11-.53-.17-.12-.12-.18-.35-.06-.24-.29-.36 0-.29.15-.49.14-.21.26-.38.23-.06.41-.12.18-.06.41-.12.18.12.29.24.12.11.41.17zm.24 7.5q.06.24-.15.29-.2.06-.09.41-.58.53-1.34.24-.3-.59-.41-.62-.12-.03-.18-.14 0-.35.29-.59.35-.23.71-.38.35-.15.46.21.47.41.71.58zm-.41 6.51l.17.82q-.23.35-.32.46-.09.12-.15.24-.29-.06-.52-.06-.24 0-.53-.06-.12-.29-.35-.41-.24-.12-.29-.41.29-.53.41-.67.11-.15.29-.27.29-.11.67-.03.38.09.62.39zm.35 7.91q-.53.41-.65.49-.11.09-.23.09-.12 0-.29-.12-.18-.11-.41-.05l-.33-.44q-.14-.21-.14-.5.06-.29.29-.47.24-.18.35-.35.3-.06.5-.03.21.03.44.09.12.35.35.55.24.21.12.74z"/></svg>