<svg viewBox="0 0 300 80" xmlns="http://www.w3.org/2000/svg"><path d="M34.27 19.63q1.7.12 3.05 1.76.23.35.47.67.23.33.35.74.35.88.24 2.52-.12 1.64.17 2.66.29 1.03.59 1.97.52 1.64-.65 4.39-.88 2.52-2.17 2.99l-1.05.35q-1.52.53-2.61.38-1.08-.15-1.49-.61-1.17-1.53-.59-3.52.12-.41 0-1.29-.12-.88-.99-1.11-.47-.12-.62-.41-.15-.3-.23-.5-.09-.21-.18-.29-.09-.09-.56.26-.46.35-.52.38-.06.03-.38-.09-.33-.11-.62.06-.29.18-.59.65-1.05 1.81-.41 5.91.24 1.23.47 2.29.47 2.64.44 3.51-.03.88-.35 1.85-.32.97-.56 1.9-.7 2.41.18 4.11 1.05 2.11 1.35 2.46.53.52 1.29.44.76-.09 1.17-.77.41-.67.76-1.46.35-.79.76-1.49.41-.71.97-.82.56-.12 1.43-.03.88.08 1.21.08.32 0 .79.39.47.38.49 1.69.03 1.32.09 2.11.06.79-.41 1.41-.47.62-.61 1.11-.15.5-.21.97-.06 1.23-.44 1.82-.38.58-.7.96-.32.38-1.7.38t-2.49 1.29q-1.11 1.29-2.11 1.15-1-.15-1.41-1.21-.41-.93-1.81-.99-.41-.06-.76-.21-.36-.14-.82-.23-.47-.09-.94-.38-1.17-.65-1.93-2.05-.47-.88-.91-1.47-.44-.58-.74-1.11-.76-1.17-.58-2.23.35-2.81-.76-3.69-.65-.41-.65-.64 0-.24-.23-1-.35-1.05.03-2.46t.26-2.31q-.12-.91-.29-1.91-.35-2.58-.06-3.4.29-.82.15-2.34-.15-1.52-.15-2.49 0-.97-.15-2.55-.14-1.58-.03-3.4.41-4.57 3.11-6.27 4.04-2.4 5.16-2.28.35 0 .84.08.5.09.97-.02.47-.12.82-.36.35-.23.71-.52 1.4-1.29 2.51-.3 1.06 1.23 1.65 1.64.99.77 2.98.88zm22.68-.76l1.87-.12q2 0 2.85.65.85.64 1.29 1.17.43.53.79 1.08.35.56.96 1.15.62.58.62 1.37 0 .79.44 1.26t.44 1.53q0 1.05-.03 2.02t-.21 1.58q-.17.62-.17 1.23 0 .62.26 1.11.26.5.06 2.41-.21 1.9-.65 3.83-.43 1.94-1.14 3.34-1.4 2.64-4.57 4.16.29.71.68 1.56.38.85.73 1.73.76 2.16.76 3.13 0 .97.09 1.41.09.44.2.67.12.24.32.35.21.12.62.44.41.32.64 1.09.24.76.24 1.58 0 1.87-.44 2.31-.44.44-.94.59-.5.14-1.02.2-1.35.18-1.7-.35-.47-.47-.5-.97-.03-.49-.21-.87-.17-.38-.52-.47-.35-.09-.5-.74-.15-.64-.41-.84-.26-.21-1.09-.09-1.46.29-2.16-1.76-.18-.47-.35-1.23-.18-.76-.41-1.47-.47-1.7-1.09-1.84-.61-.15-.91.14-.29.3-.44.8-.14.49-.14 1.11 0 .61.14 1.32.15.7.03 1.17-.11.47-.32.76-.2.29-.44.53-.47.29-.56 1.17-.08.88-.26 1.52-.35 1.59-.94 2-.58.41-1.17.49-.58.09-1.17-.03-1.47-.29-1.82-1.02-.35-.73-.41-1.11-.06-.38-.03-.74.03-.35.09-.76.06-.41.03-.96-.03-.56-.26-1.5-.24-.94-.3-2.23l-.05-1.52q0-.23.41-.79t.26-1.29q-.15-.73-.67-.94-.53-.2-.53-.49 0-.3.12-1.47.11-1.17-.09-2.93-.21-1.76-.27-3.1-.23-2.93-1.02-3.32-.79-.38-.91-.93-.12-.56 0-1.26.12-.71.26-1.76.15-1.05.33-2.14.17-1.08.32-2.02t.2-1.29q.06-.35.03-.67-.03-.33-.03-.62-.11-.94 0-1.64.24-1.35.12-1.9-.12-.56.21-1.7.32-1.15.55-1.61.24-.47.88-.71.65-.23 1.26-.67.62-.44 1.14-.88.53-.44.94-.82.41-.38 1-.56 1.7-.35 2.49-.08.79.26 1.14.55.35.29.85.59.5.29 1.05.44.56.14 1.03.14 1.23.12 1.49.33.27.2.62.2zm-4.86 16.35l.35 5.33q0 .53-.06 1.03-.06.49-.12.9-.06.88.65 1.06.58.12.93-.32.36-.44.65-1.2.7-1.47.47-1.88-.47-.59-.27-1.02.21-.44.88-1.73.68-1.29 1-2.23.32-.94.14-2.02-.17-1.09-.17-1.5V31q0-.47-.44-.85t-.62-.41q-.17-.03-.29-.03-.53.12-.99-.09-.47-.2-.88-.17-.41.03-.94.55-.53.53-.59 1.09-.06.55 0 1.26.3 2.11.3 2.87zm18.22 14.76L70.25 47q0-.82.06-1.53.06-.76-.12-1.87-.29-1.94-.26-2.84.03-.91 0-1.47-.03-.56-.15-1.02-.17-.71-.85-2.23-.67-1.52-.67-3.28 0-1.76.76-2.81.7-1.06.53-2.17-.18-1.12-.27-2.38-.08-1.26-.03-2.57.06-1.32.59-2.55 1.29-2.99 5.16-2.87 2.4.05 4.16.47 1.75.41 2.57.35.82-.06 2.52-.59 2.46-.94 3.93.12.41.29.79.44.38.14.67.44 1 1.11.59 4.86-.12 1.11-.23 2.23-.3 2.63 0 3.92.29 1.29.32 2.26.03.97-.09 1.73-.35 1.7-1.35 1.7-.88-.06-1.26-.56t-.61-1.11q-.24-.62-.5-1.12-.26-.5-1.14-.5-2.58 0-3.43-.55-.85-.56-1.49-.65-.65-.08-1.24.15-1.23.53-1.43 1.93-.21 1.41-.26 2.46-.06 1.06 0 1.94.11 2.05.79 2.31.67.27 1.14.06.47-.2.94-.5 1.4-.93 2.9-.91 1.49.03 2.22 1.21.74 1.17.62 2.25-.12 1.09-.21 2.14-.08 1.06-.26 1.99-.82 3.64-3.4 1.41-3.34-.24-4.16.82-.17.29-.35 1.23-.18.94-.06 1.99.29 2.76 2.64 2.93 1.52.12 2.78-.41 1.26-.53 1.67-1.17.35-.7.88-.79.53-.09.94-.18.41-.08.82-.08t.82.11q1.05.35 1.26 1.64.2 1.29-.27 2.35-.46 1.05-.61 1.9-.15.85-.26 1.26-.12.41-.68 1.03-.55.61-.88 1.02-.32.41-1.02-.17-1.29-1-3.11 1.17-.47.64-.99.94-.53.29-1.64.23-1.12-.06-1.76-.59-.65-.52-1.17-1.05-.88-1.11-3.05-.82-1.29.17-2.11-1.11-.18-.18-.26-.65-.09-.47-.21-1.05-.41-1.53-.73-1.97-.32-.44-.35-1.14-.03-.7-.15-1.49l-.18-1.18q-.05-.38.09-.9.15-.53.15-1.18zm24.2 0L94.45 47q0-.82.06-1.53.06-.76-.12-1.87-.29-1.94-.26-2.84.03-.91 0-1.47-.03-.56-.15-1.02-.18-.71-.85-2.23-.67-1.52-.67-3.28 0-1.76.76-2.81.7-1.06.53-2.17-.18-1.12-.27-2.38-.09-1.26-.03-2.57.06-1.32.59-2.55 1.29-2.99 5.16-2.87 2.4.05 4.16.47 1.75.41 2.57.35.82-.06 2.52-.59 2.46-.94 3.93.12.41.29.79.44.38.14.67.44 1 1.11.59 4.86-.12 1.11-.23 2.23-.3 2.63 0 3.92.29 1.29.32 2.26.03.97-.09 1.73-.35 1.7-1.35 1.7-.88-.06-1.26-.56t-.61-1.11q-.24-.62-.5-1.12-.26-.5-1.14-.5-2.58 0-3.43-.55-.85-.56-1.5-.65-.64-.08-1.23.15-1.23.53-1.43 1.93-.21 1.41-.27 2.46-.05 1.06 0 1.94.12 2.05.8 2.31.67.27 1.14.06.47-.2.94-.5 1.4-.93 2.9-.91 1.49.03 2.22 1.21.74 1.17.62 2.25-.12 1.09-.21 2.14-.08 1.06-.26 1.99-.82 3.64-3.4 1.41-3.34-.24-4.16.82-.17.29-.35 1.23-.18.94-.06 1.99.29 2.76 2.64 2.93 1.52.12 2.78-.41 1.26-.53 1.67-1.17.35-.7.88-.79.53-.09.94-.18.41-.08.82-.08t.82.11q1.05.35 1.26 1.64.2 1.29-.27 2.35-.47 1.05-.61 1.9-.15.85-.27 1.26-.11.41-.67 1.03-.56.61-.88 1.02-.32.41-1.02-.17-1.29-1-3.11 1.17-.47.64-.99.94-.53.29-1.65.23-1.11-.06-1.75-.59-.65-.52-1.18-1.05-.87-1.11-3.04-.82-1.29.17-2.11-1.11-.18-.18-.27-.65-.08-.47-.2-1.05-.41-1.53-.73-1.97-.32-.44-.35-1.14-.03-.7-.15-1.49l-.18-1.18q-.06-.38.09-.9.15-.53.15-1.18zm29.12 11.9q-.82-.06-1.67-1.76t-1.17-4.33q-.33-2.64-.44-3.58-.12-.94-.24-1.41-.17-.87-.67-1.55-.5-.67-.62-1.02-.11-.53-.05-2.64.11-4.51-.41-5.98-.24-.64-.18-1.05.06-.41.03-.88-.03-.47-.32-1-.3-.52-.59-1.23-.94-1.87-.94-2.57 0-.88.59-2 1.29-2.17 1.49-3.01.21-.85.18-2.17-.03-1.32-.03-2.67-.12-3.46.59-4.33.46-.47 1.11-.65.64-.17 1.64-.53 1.99-.7 3.02-.7 1.02 0 1.64.56.61.55 1.43.64.82.09 1.15 0 .32-.09.55-.14.71-.3 1.17-.3.77 0 1.12.59.35.58.64.96.3.39.97.21.67-.18 1.02-.18h.59q.88.12 1.52-.05 1.29-.41 2 .41.17.41.82.58.64.18 1.11.47 1.11.59 1.52 2.05.82 2.7.24 5.57-.24.99-.38 1.58-.15.59-.24 1.02-.09.44-.11.85-.03.41-.06 1-.03.59-.03 1.29v1.58q0 1.82.11 2.87.36 2.93-2.63 4.22-1 .41-1.41.76-.41.35-.7 1.06-.29.7-1.09 1.76-.79 1.05-2.4 1.67-1.61.61-2.78 1.02-1.17.41-1.47 1-.41.76-.2 3.6.2 2.84.15 3.6-.06.77-.18 1.26-.12.5-.59.8-.47.29-.82.29t-.73.35q-.38.35-.67.7-.3.35-.65.65-.82.76-1.93.76zm3.98-32.81q-.35.35-.7 2.05-.35 1.7-.35 2.69 0 1 .41 1.79t.38 1.29q-.03.5-.12 1.05-.09.56-.09 1.15-.11 1.4.24 1.75.35.36.79.27.44-.09.91-.32.47-.24.85-.5.38-.27.76-.38.38-.12.56-.53.17-.41.52-.7.41-.3.56-.8.15-.49.29-1.05.15-.56-.03-1.05-.17-.5-.64-1.5-.35-.99-.24-1.58.47-2.46-.58-3.4-1.35-.82-2.26-.7-.91.11-1.26.47zm39.11-2.23q.15.35.09.76-.06.41-.82 1.41-.76.99-.91 2.14-.14 1.14-.08 1.87.05.73 0 1.26-.06 1.29-1.41 1.76-1.17.47-1.82-.06-.64-.53-1.05-1.38-.41-.85-.62-1.46-.2-.62-.67-.68-.82-.17-1.26.18-.44.35-.67.59-.47.47-.97.64-.5.18-.79.35-.59.41-.47 1.35.23 1.82 4.04 5.51.71.7 1.67 1.52.97.82 1.91 1.88 2.11 2.52 2.34 5.68.23 3.22-.94 5.63-.93 1.93-2.22 2.51-1 .53-1.35 1.38-.35.85-.53 1.23-.17.38-.73.65-.56.26-1.26.2t-1.32-.26q-.61-.21-1.11-.47-.5-.26-.82-.32-.32-.06-.62.2-.29.27-.58.56-.88.88-1.59.67-.7-.2-1.64-.67-.93-.47-1.81-1.17-3.17-2.46-2.17-5.04.64-1.7 1.43-2.4.8-.71 1.26-.71.77 0 1.03.56t.44.94q.18.38.41.61.23.24.73.47.5.23 1.09.29 1.46.12 2.22-1.17.76-1.29.59-2.81-.41-2.75-1.17-2.34-.65.41-1.59.02-.93-.38-.99-.99-.06-.62-.24-1.2-.17-.59-.41-1.12-.52-1.34-.93-1.46-.47-.12-1.26-.12t-1.73-1.02q-.94-1.03-1.35-2.58-.41-1.55-.7-2.7-.3-1.14-.53-1.78-.23-.65-.41-1.35-.59-2.23-.06-5.74.35-2.05 1.29-3.61.94-1.55 2.11-3.07 2.23-2.99 4.1-4.16 1.88-1.18 2.87-.24.88.76 1.91.62 1.02-.15 1.61-.32l1.05-.24q1-.23 2.02.06 1.03.29 1.85 1.99.41.88.85 1.52.44.65.85 1.24.88 1.4 1.02 2.31.15.91.41 1.32.27.41.41.76zm3.87-8.85q1.32.12 2.35.09 1.02-.03 3.07.03 3.4.18 4.81-.47 2.87-1.46 4.63-.35.82.47 1.58.59.76.11 2.17-.71 1.52-.64 2.51-.29 1 .35 1.47.88t.61 1.84q.15 1.32.06 2.61-.08 1.29-.26 2.4-.35 2.99-.26 3.93.08.94.23 1.93.15 1 .09 1.94-.12 2.28-1.88 2.57-1.29.18-1.87-.61-.59-.79-.97-1.76t-.76-1.73q-.38-.76-1.08-.55-.71.2-.88 1.52-.18 1.32-.12 3.11.06 1.78.23 3.69.18 1.9.24 3.22.06 1.32.15 2.67.08 1.34.08 2.51 0 2.52-.7 3.46-.35.47-.35 1.12 0 .64.14 1.34.15.71.33 1.41.17.7.17 1.7 0 2.34-2.11 3.28-.76.35-1.4 1.17-.65.82-.97 1.09-.32.26-.76.17t-.65-.41q-.2-.32-.38-.67-.35-.94-.99-1.23-.76-.18-.91-1.29-.15-1.12-.18-1.97-.03-.84-.14-2.08-.12-1.23-.76-1.99-.65-.76-1.06-.96-.41-.21-.53-1-.11-.79.03-1.61.15-.82.38-1.82.71-2.87.76-5.39.18-4.69 0-6.21-.23-3.05-1.64-3.05-.7.06-.99.62-.29.56-.65 1.32-.82 1.93-2.98 1.05-.77-.35-.97-1.11-.21-.76-.24-1.79-.03-1.02-.05-2.17-.03-1.14-.41-2.16-.39-1.03-.74-1.97t-.29-1.87q.06-.94.44-1.82.38-.88.23-1.76-.14-.88.36-1.73.49-.84 1.81-.73zm26.81 31.99l-.06-2.98q0-.82.06-1.53.06-.76-.12-1.87-.29-1.94-.26-2.84.03-.91 0-1.47-.03-.56-.15-1.02-.17-.71-.85-2.23-.67-1.52-.67-3.28 0-1.76.76-2.81.7-1.06.53-2.17-.18-1.12-.27-2.38-.08-1.26-.03-2.57.06-1.32.59-2.55 1.29-2.99 5.16-2.87 2.4.05 4.16.47 1.75.41 2.57.35.82-.06 2.52-.59 2.46-.94 3.93.12.41.29.79.44.38.14.67.44 1 1.11.59 4.86-.12 1.11-.23 2.23-.3 2.63 0 3.92.29 1.29.32 2.26.03.97-.09 1.73-.35 1.7-1.35 1.7-.88-.06-1.26-.56t-.61-1.11q-.24-.62-.5-1.12-.26-.5-1.14-.5-2.58 0-3.43-.55-.85-.56-1.49-.65-.65-.08-1.24.15-1.23.53-1.43 1.93-.21 1.41-.26 2.46-.06 1.06 0 1.94.11 2.05.79 2.31.67.27 1.14.06.47-.2.94-.5 1.4-.93 2.9-.91 1.49.03 2.22 1.21.74 1.17.62 2.25-.12 1.09-.21 2.14-.08 1.06-.26 1.99-.82 3.64-3.4 1.41-3.34-.24-4.16.82-.17.29-.35 1.23-.18.94-.06 1.99.29 2.76 2.64 2.93 1.52.12 2.78-.41 1.26-.53 1.67-1.17.35-.7.88-.79.53-.09.94-.18.41-.08.82-.08t.82.11q1.05.35 1.26 1.64.2 1.29-.27 2.35-.46 1.05-.61 1.9-.15.85-.26 1.26-.12.41-.68 1.03-.56.61-.88 1.02-.32.41-1.02-.17-1.29-1-3.11 1.17-.47.64-.99.94-.53.29-1.64.23-1.12-.06-1.76-.59-.65-.52-1.17-1.05-.88-1.11-3.05-.82-1.29.17-2.11-1.11-.18-.18-.26-.65-.09-.47-.21-1.05-.41-1.53-.73-1.97-.32-.44-.35-1.14-.03-.7-.15-1.49l-.18-1.18q-.05-.38.09-.9.15-.53.15-1.18zm38.38-31.11l1.87-.12q1.99 0 2.84.65.85.64 1.29 1.17.44.53.79 1.08.36.56.97 1.15.62.58.62 1.37 0 .79.44 1.26t.44 1.53q0 1.05-.03 2.02t-.21 1.58q-.17.62-.17 1.23 0 .62.26 1.11.26.5.06 2.41-.21 1.9-.65 3.83-.44 1.94-1.14 3.34-1.41 2.64-4.57 4.16.29.71.67 1.56.38.85.74 1.73.76 2.16.76 3.13 0 .97.09 1.41.08.44.2.67.12.24.32.35.21.12.62.44.41.32.64 1.09.24.76.24 1.58 0 1.87-.44 2.31-.44.44-.94.59-.5.14-1.03.2-1.34.18-1.69-.35-.47-.47-.5-.97-.03-.49-.21-.87-.17-.38-.52-.47-.36-.09-.5-.74-.15-.64-.41-.84-.27-.21-1.09-.09-1.46.29-2.16-1.76-.18-.47-.36-1.23-.17-.76-.41-1.47-.47-1.7-1.08-1.84-.62-.15-.91.14-.29.3-.44.8-.14.49-.14 1.11 0 .61.14 1.32.15.7.03 1.17t-.32.76q-.21.29-.44.53-.47.29-.56 1.17-.09.88-.26 1.52-.35 1.59-.94 2-.58.41-1.17.49-.59.09-1.17-.03-1.47-.29-1.82-1.02-.35-.73-.41-1.11-.06-.38-.03-.74.03-.35.09-.76.06-.41.03-.96-.03-.56-.26-1.5-.24-.94-.3-2.23l-.06-1.52q0-.23.41-.79t.27-1.29q-.15-.73-.68-.94-.52-.2-.52-.49 0-.3.11-1.47.12-1.17-.08-2.93-.21-1.76-.27-3.1-.23-2.93-1.02-3.32-.79-.38-.91-.93-.12-.56 0-1.26.12-.71.26-1.76.15-1.05.32-2.14.18-1.08.33-2.02.14-.94.2-1.29.06-.35.03-.67-.03-.33-.03-.62-.12-.94 0-1.64.24-1.35.12-1.9-.12-.56.2-1.7.33-1.15.56-1.61.24-.47.88-.71.64-.23 1.26-.67.61-.44 1.14-.88.53-.44.94-.82.41-.38 1-.56 1.69-.35 2.49-.08.79.26 1.14.55.35.29.85.59.5.29 1.05.44.56.14 1.03.14 1.23.12 1.49.33.27.2.62.2zm-4.87 16.35l.36 5.33q0 .53-.06 1.03-.06.49-.12.9-.06.88.64 1.06.59.12.94-.32t.65-1.2q.7-1.47.47-1.88-.47-.59-.27-1.02.21-.44.88-1.73t1-2.23q.32-.94.14-2.02-.17-1.09-.17-1.5V31q0-.47-.44-.85t-.62-.41q-.17-.03-.29-.03-.53.12-1-.09-.47-.2-.88-.17-.41.03-.93.55-.53.53-.59 1.09-.06.55 0 1.26.29 2.11.29 2.87z"/></svg>