<svg viewBox="0 0 442 80" xmlns="http://www.w3.org/2000/svg"><path d="M29.6 24.38q-.24-.12-.42-.12l-.36.12q-.36-.18-2.16-.36-1.26-.3-1.8-.54-.6-.42-1.56-2.04 0-.24 1.08-.48 1.02-.84 1.56-.9.66-.66 4.44-2.88 2.76-1.56 4.98-2.28 1.14-.6 1.92-.6 1.98.24 3.12.54l.36-.06q.06.06.06.24 1.68 0 4.26 1.56l.96 1.5q1.32.78 1.32 1.44 0 1.5-3.12 2.22 0 .42-3.66 1.32-.72.3-5.34.66l-2.52.48-.24-.12-.54.12-.36-.12q-.54.24-1.98.3zM65.36 65.9q-.48 0-1.38-1.02-.78-.24-1.56-1.68 0-.36-1.62-1.56-2.4-1.86-2.4-2.7l-.18-1.02q0-.6.72-.6.42 0 1.74 1.32 2.7 1.44 3.36 1.44.18 0 .18-.06l.48.06q.78-.06.78-1.14 1.02-1.86 2.46-13.86.36-5.4.36-6.9l-.12-.48q-2.04.12-3.18.36l-.12-.12-1.08.12-.48-.12-3.36.66q-2.34 6.18-3 9.54-.66 3.06-2.04 6.18-.48 1.56-.66 1.68-1.56 4.62-2.22 4.62-.24.18-.3.18-.3 0-2.46-.66-1.08-.12-1.56-.24-.78 0-1.02.12l-.18-.12q-.48.12-.48.24l-.96-.06v-.18q.78-2.58 1.44-2.58 0-.12.48-.48l.54.06q.66-.12.66-.24l.24.06q4.38-.54 4.38-1.02 2.46-5.82 3.48-9.72-.12-.48.84-3.36t.96-3.66l-.06-.18-1.32.24q-.84 0-3.72.12-1.38-.42-1.92-.78-1.56 0-1.8-.96 0-.12-.36-.66v-.12q.3 0 .3-.24-.18 0-.18-.18l.06-.12q-.18 0-.18-.18 0-.3 1.68-.84-.06-.12 2.34-1.44 3.96-2.1 7.44-3.06l1.56-6.78q.9-3 1.74-5.22.6-.96.72-.96h.18q.9 1.98.9 3.12 0 .3-1.26 2.82 0 .3-1.38 3.72 0 .42-.72 2.52 0 .24.06.24 1.62-.24 3.9-.24.18 0 .18.06.06 0 .06-.06 1.02 0 3.78 1.08 1.8 1.26 1.8 2.7.24 0 .3 1.08l-.06.18.06.48q0 .3-.72 2.4l-.66 2.76.06.36q-1.08 5.76-1.08 6.3 0 .84-.18.84l.12.18q-.66 3.36-.84 3.36 0 .12.12.12-.48 3-.72 3.72l.12.18q-.06 1.14-.24 1.32 0 .06.12.06-.3 1.98-1.2 5.7-.84 1.92-1.2 2.88-.36.42-.54.42zm-24.3-.78q-1.2-.12-1.2-1.02-.06 0-.84-.66-.18 0-.36-.3-1.08-.6-2.4-1.92-.36-.06-.84-1.08-.66 0-1.02-1.38.12-1.92.42-1.92.6 0 2.7.66l.24-.06q.54.24 1.2.24.6 0 .9-3 .54-2.04.78-5.1l-.06-.18q.06 0 .36-4.44l-.6-.06-1.08.18-3.12-.12v.12l-.3-.12H35q-.72 0-1.26-.36-.78 1.5-.78 3.06-.3 0-1.32 5.4-.42 1.26-1.08 4.68 0 .06-.48 1.74-.54 1.08-1.74 1.08-.72-.24-1.44-.24l-.72.24v-.24l-.24.24h-.42q-1.14 0-1.14-.72 0-2.16 1.86-2.94 3.42-.72 3.42-2.22 1.44-6.06 2.4-11.1-.18-.48-.66-.48l.18-.36h-.84v-.3q.18 0 .3-.12l.18.12q1.26 0 1.26-1.26l.72-3.12q-1.92.06-2.7.42v-.12q-1.08.42-2.52.42-1.14-.42-1.14-.96-.18-.96-.42-1.2v-.24h.24v-.06q-.24 0-.24-.18h-.06q-.54 1.62-.54 3.72-.12.12-.54 3.12 0 .12.06.12 0 .42-.72 4.38 0 1.86-1.32 7.14.06.06.06.3-.18 0-.48 3.18l-1.02 3.24q-.54 1.02-1.98 1.02 0 .18-.12.18l-.54-.18q-1.14.36-2.76.54-.6 0-1.08-.66.18-1.56.42-1.56 0-.06-.06-.06 0-1.38 1.92-2.22 1.02 0 2.94-1.38.96-2.58 3.06-15.12.54-6 .72-6.9.54-3 .9-7.14l-.12-.84.12-1.14h.06q1.92.54 1.92 1.62 0 .42.24.6 0 .6-.06.66l.06.66q-.48 1.5-.78 4.92-.18 0-.3 1.38 1.74-.78 3.78-2.1.48-.12 1.86-1.14.3 0 1.56-.72 5.22-2.28 6.24-2.28 1.26 0 1.38-.06l.18.06.24-.06.24.06.18-.06q1.44 0 3.54.96 1.26 1.5 1.26 2.04l.48 1.5v.42q0 .6-2.46 1.26v-.12l-1.5.42v-.12q-2.64.78-4.98 1.26 0 .18-3 .66-.42 0-.96 3.48h.06l1.74-.9.18.12q0-.24 1.74-.54 0-.18 2.58-.72v.06l.18-.06H41l.3.12q.12 0 .12-.06.54 0 3.36.54l1.5.96q1.08 1.08 1.08 1.92 0 .18-.06.18l.24 1.08q-.78.78-.84 2.34-.42.42-.72 3.42-.06 0-.36 1.26.18.24.18.3l-.18 1.32.18.24-.48 2.58.12.18-.54 1.5.06.3q0 .12-.06.12l.06.48q0 1.14-1.14 4.32l-.9 1.38q-1.32 1.32-1.86 1.5zM98.78 24.2q-.6-.18-.84-.24l-.42.18q-.6-.24-.84-.18l-.36.06q-2.34-.54-2.34-.66-.72-1.08-.72-1.32 0-1.08.24-1.74.24-.66.54-.66 0-.3.42-.54-.06-.6 1.02-1.38 1.08-.78 3.18-1.56 2.16-.84 2.88-1.02.36-.18 1.92-.6.96-.78 1.92-1.02.12.18.3.18 0-.24.18-.24h.06v.18h.18l.36-.18h.3l.24.18q.36-.12.42-.12 0 .18.66 1.02l1.32 2.04q.6 1.44.6 1.86 0 .06.12.78 0 2.46-2.1 3.42 0 .36-3.48.72l-.18-.06-1.98.48q-.06-.18-.24-.18 0 .3-.48.36-.24-.12-.36-.12 0 .18-.84.3l-.12-.12-1.56.18zm4.44 44.4q-2.28-.66-3.36-1.26-.36 0-1.02-.6-2.04-1.08-3.48-4.14l-.6-.9.12-.3q-.12-.12-.12-.36 2.4-.9 2.4-1.38 1.62-1.74 1.62-4.74.72-4.32.72-11.22l-.06-.54q-.84 0-5.04.78-.72 0-1.44.18v-.06l-2.22.72q-.96-.12-1.68-.12-.54 0-3 .9l-3.84.54q-1.56-.48-1.56-.6l.12-.18h-.18q0-.48 4.14-1.38 1.38-.72 4.08-1.08v.12q1.44-.18 1.44-.42.42 0 .48.06l8.7-1.8.12-1.32-.36-3.96-1.56.12v-.12l-.18.12-5.58-1.08q-2.04-.96-2.04-1.02 0-.3-.66-.54v-.18h.18l.3.18h.18q.06-.12 1.41-.72 1.35-.6 2.73-1.38.78-.42 5.58-1.86.18-2.28.84-3.42.36 0 .42-1.26l.54-.06q0 .06.12.06l.06-.18q1.74.06 3.24 1.2.18 0 2.46 2.28l1.2.06.3-.06 1.26.3q.06-.24.3-.24h.24q1.74 0 2.7.51.96.51.96 1.23.24 0 .24.48v.54q-.18.66-1.08.96-.48 1.02-2.04 1.56-.6 1.02-1.38 1.02l-.12.3.18 2.16q0 1.08-.24 1.08l.24 1.38q8.76-1.2 11.82-1.2 4.02.36 4.02 2.04h-.06q0 .12.06.12 0 1.02-1.62 1.32v.06q-.18 0-.96-.12t-1.8-.12q-.96 0-1.5.06l-1.5.12-1.92-.12q-6 .06-6 .84-.06.12-.06.36l.06 2.34-.06.18q0 .9.18.9l-.12.54-.06.72.06.24q0 1.32.12 1.86-.12.3-.12 1.14l.12.42-.18.9.06.42h-.06l.06.12-.12 2.28q0 .06.06.06-.48 4.44-.84 4.44l.12.36q0 .06-.48 1.74l.12.24q0 .54-.39 1.38-.39.84-1.35 2.46-.3.48-1.2.96-1.68 2.4-2.76 2.4 0 .18-.48.18zm56.88.24q-.6-.48-3.3-1.92-2.52-2.58-3.78-6.84h.12l-.12-.12v-.36q-.54-4.62-.54-6.9l-.06-.42q0-.06.06-.06-.06-.96-.18-.96l.12-.54q0-3.6.18-4.74l-.12-.24q.12-.24.12-.36l-.12-.72h-.06q-.6.42-2.28.6-1.44.36-3.42 1.5l-.24-.06-.9.06q-.84.06-2.28-1.44 0-.24-.24-.24.12-.84.36-.78l.24.06q3.54-1.38 6.84-1.98.84-.48 2.52-1.02.24-1.68.42-7.26l-.06-.18.06-.3q0-.18-.06-.18l.24-2.16q0-.36-3-.72l-3.18-1.2-.12-.72q.12-.18.66-.18 0-.42-.18-.48 0-.42 1.14-.84 0-.24 1.38-.42.18-.3 3.42-1.8 0-.12.36-.12 0-.72.12-.72 0-.12-.12-.12l.24-1.98-.12-.24q.36-5.34 1.14-6.66.3-.9.42-.9l.84-1.02q.12.12.6.12v-.12h.18q.24.24 1.32.3 0 .24 1.38.9.84 1.44 1.92 2.82 0 .12.66 1.32.3 2.46.54 2.82h.18q1.98-.42 4.86-.9l.18.18.24-.18.42.18q.54-.18 1.08-.18v.18l.18-.18q.66 0 .66.18l.3-.18q2.1 0 3.6 2.16.12 0 .36.36v.9q0 .48-1.86 3.3 0 .3-1.86 4.44 0 1.14-.78 2.64 0 .66-1.38 3.06.72-.06 6.48-1.2 3-.6 5.34-.6 2.64.66 2.64 1.5.3 0 .48 1.26-1.98 5.4-1.98 7.38-1.44 5.7-1.5 7.08-1.2 3.36-2.46 3.84 0 .06-.48.18-.6-.18-.72-.48l-.24.06q-1.26-.6-4.44-1.26 0-.3-1.26-.66-.96-1.5-.96-1.74 1.5-.66 2.46-.66h2.76q1.44 0 1.74-1.38.6 0 2.4-10.8.24 0 .24-1.8h-.06q-1.8 0-3.69.39t-4.47 1.11l-1.92.54q-.12 0-.12-.12-.54.36-.72.36v-.18q-2.94.72-4.14 1.2-.9 0-.9 1.08 0 .06.06.06l-.06.54v.36q0 .48.06.72-.06.24-.06.72 0 .84.24 1.86 0 .24-.12.48l.12.3q0 1.08-.12 2.13-.12 1.05-.12 1.53 0 .18-.18.18.12.06.24 1.14-.24 0-.24.24t.18.24q-.18 1.44-.24 1.5 0 .18.06.18l-.06.42.06 1.02q0 .3-.48 3.06.3 1.38.24 1.62l-.72 4.8q-.18 1.26-1.14 2.88-.48.48-1.5.48zm23.28-49.44q-.06 0-.06-.06l-.24.06h-.12q-3.6 0-5.7-.39t-2.22-.87q-.48-.06-1.38-.96-1.44-.72-2.58-1.86 4.26-1.8 6.84-1.8 2.4.3 2.94.48.12-.06.36-.06 1.92 0 3.12 1.14 1.26.6 1.26 2.52 0 1.08-1.98 1.56 0 .24-.24.24zM164.9 38.42v.12q1.8-.48 1.8-.6l-.66-1.32q.42-1.32 1.92-4.62.12-1.26.66-3.36l-.18-.36-.72.12v-.12q-1.92.6-3.36.66-.66.54-.66 3.06v1.02q0 1.26.24 1.68-.3 1.98-.48 3.96l.24.06 1.2-.3zm52.44-2.04q-1.32 0-3.66-2.34-1.38-1.2-2.46-3.18-1.26-2.04-2.22-6.9l-.18-2.88q0-.06.12-.06l-.12-.36q.12-3.36.24-3.36 0-.12-.06-.12.18-1.86.6-1.86.06 0 .06-.06l-.06-.78q.06-.18 1.92-.48h.12q2.76 1.02 3.54 1.8 0 .12.78.54h.3q2.64-.24 3.48-.24.42 0 .66-.12.12.12.3.12l5.34-.36q.24 0 .24.06l.18-.06q.12 0 .12.06l.12-.06q.72 0 .72.06.06 0 .06-.06l.48.06h1.56l.66-.06v.06l.3-.06q.48 0 .72.06 1.56-.12 2.34-.3 3.54.3 3.54 1.14l.3.3-.06.48.06.24q-.48.54-2.22 5.52l.06.18-1.74 6.72q-.66 3-.78 3.84l-.66 1.14q-.6 0-2.58-.84 0-.18-1.98-.42-.18 0-.78.12l-1.98-.24-.78.12q-1.32-.06-2.4-.24l-1.32.12q-.48-.12-1.02-.12v.48l.18.24v.12q-.54.54-.72 1.5-.84.48-1.32.48zm6-4.56q.12 0 .12-.06 7.92-.12 7.92-.6 1.8-8.58 3.6-13.5l-.84-.18q-1.32.3-1.92.3l-1.44-.12-.12.12-.6-.12-.24.12q-.66-.24-4.62-.3-.3.24-2.76.48h-.84l-.72.18h-1.62l-1.44.78v.06q1.14 1.14 1.86 4.62 5.22-1.86 6.18-1.86 2.1 0 2.1.12l.18-.12q.18.18 1.08.36.06 0 .06-.18 1.74.3 1.74 1.2.42 0 .48.9-.48 1.38-1.62 1.38l-1.02.18q-1.56 0-1.98-.06l-.24.06q-.54-.06-1.32-.06l-.96.06-.18-.06-.18.06-.12-.06q-3.78.6-3.78.96 0 .18.12.18l-.12.42q.3 1.38.3 1.8 0 .66-.12.66l.12.24q-.12.84-.12 1.56.48.36 1.5.48l.36-.06.96.06.24-.06v.06zm14.46 33.54l-.3.12q-.96-.06-.96-.18-.54-.54-2.4-.84l-1.92-1.32q0-.24-1.5-1.38 0-.18-1.68-1.92-1.5-1.86-2.58-4.02-.96-2.16-1.92-4.92-.42-.6-.84-2.4-.24-.78-.54-.78-.96 0-3.24.54l-.24-.12q-.72 0-.9 1.2-.48.96-1.2 3.42l-1.32 3.06q0 1.2-1.68 3.6 0 .66-.54.96v-.18q-.36.06-1.2 1.32-1.5 1.26-3.06 1.26-1.02.24-1.56.24-2.58-.42-2.58-1.08-.3-.78-.3-1.02 0-.18 1.56-2.1 0-.66 2.52-1.44 2.22-.3 3.9-1.98 3.54-5.46 3.54-6.72-1.98.72-6.66 1.5-2.58.3-3.54.72-.42 0-.66.18l-.18-.06q-1.26.24-2.1.24l-1.38-.72v-.18q.48 0 .48-.18-.18 0-.78-.78l.18-.24.24.06h.12l-.12-.18q1.26 0 5.52-1.02 1.86-.18 2.52-.42l.24.06q5.58-1.44 7.2-1.62.6-.9 1.44-3.54h-.18l-1.92-.12-.3.12q0-.18-.18-.18-.42 0-.54.06-.06-.06-.3-.06-.18 0-.18.06-2.58-.3-3.6-.96-1.02-.24-1.5-1.44v-.12l.24-.3-.12-.36q.96 0 3.9-1.26 3.96-1.26 4.38-1.5l.18.12 1.14-.3q.06 0 .06.12 1.32-.06 3.42-.48h.6v-.18l.48.06h.6q6.78.66 6.78 2.1.66.48.66.9v.66q-1.14 1.98-3.48 1.98-.06 0-.06-.12-1.5.24-1.56.42h-.36v.18l-.12-.18q-.78.18-1.44.18v.18l-.66-.18q-.12 0-.12.06l-.72-.06q-2.7.18-2.7.42-.78 1.08-1.5 3.48l4.44-.48.12.06.48-.06.24.06.18-.06q.06 0 .06.06l1.08-.18q.18 0 .18.12l.6-.12h1.86l.42-.06v.06l.24-.06h4.56l.66-.06q.06 0 .06.06l.42-.06q6.3 0 6.3.72.48 0 .96 1.02-.42.9-1.32.9-.24 0-.72-.12l-1.86.12-1.44-.3q-.96 0-1.08.06-.06 0-.06-.06-.78.06-2.46.06-.96 0-.96-.06l-.18.06q-.48 0-1.08.12v-.12l-.18.12q-.3 0-.3-.12-.12 0-.12.12-.36-.06-2.28-.18l-2.04.24q-.48-.18-1.08-.18 4.68 4.44 6.36 5.04 1.44.66 9.84 3.06 4.2 1.56 6 3.36 1.26 1.62 1.26 2.52l.06.54q-.3.9-.9 1.32-.18 0-1.32.72-.6.24-3.12.6l-4.14.84-.18-.12q-.96.06-1.26.24l-.78-.24zm53.4-.36q-1.8-1.32-1.8-1.56l-2.76-1.5-.96-1.08q0-.72-.12-.72 0-1.08.78-1.86h.42q1.68 1.5 3.12 1.56l.24-.06.42.06q1.38-.12 1.38-.66 1.08-4.38 1.44-9.84-.06-2.4-.42-4.32-1.02 0-2.94.3-.24-.12-.36-.12-.06 0-.06.12l-.48-.12q-.24 0-.48.12l-.18-.12-1.98.3q-.6-.06-1.8-.06-.48 0-.6.06-.12 0-.12-.06l-.3.06q-4.14 0-5.22-1.74-.42-.42-.42-.84.3-.3.42-.3-.66-.54-.66-.66h.24l.3.12q.78-1.14 6.42-2.76l6.78-1.2V38q-1.26-.48-1.26-1.02 0-1.8.6-2.4l.12-.9h.24l.3.24h.06q.66-.36 3.24-3.78 3.06-4.86 3.06-5.52-7.56 1.32-8.28 1.32-2.4.12-2.94.12l-.66-.12q-.24.12-.84.12-1.26-.18-1.62-.72-.24 0-.96-.54-2.1-.72-2.1-1.56 0-.18-.48-.84v-.18l.36-.42v-.12l-.6-.12v-.24q3.18-2.04 5.64-2.76 3.6-1.44 9-2.4h.84q4.44 0 8.16 2.1 1.26 1.08 1.26 1.44 0 .36-.18 1.02l.06.24q0 1.92-1.86 3 0 .3-1.5 1.74-1.08 1.74-1.86 2.34 0 .3-2.7 3.48-.72 1.32-1.62 2.7-.66.36-.96 1.38-.24 0-.78.66.36 1.26.54 1.44 1.8-.48 5.82-.48 4.5 0 7.68 1.86l.78 1.02.48 1.08q-.3 1.56-.78 2.16-.54.72-1.2 1.02l-1.08-.18q-1.86 0-2.1-.12-.24.12-.66.12-.36 0-.36-.12l-.24.12h-1.38l-.72.12v-.12q-1.32.36-5.04.72 0 .12-.24.12v.18q.3 0 .3.24l-.3.3q.24.78.24 1.14l-.18 2.7.18.54q-.36 3.54-.6 4.08.12.36.12.42 0 .12-.12.48l.12.36q-.6 2.58-1.08 6.06-.9 2.76-1.14 2.82-.48.66-.96.66h-.12zm-21.6-.36q-.36 0-.54-2.88-.12-.12-.72-3.72 0-.06.06-.06-.24-1.92-.96-9.66 0-.06.06-.06-.36-2.28-.6-5.22-1.5 1.62-2.82 2.64-1.62 1.92-3.12 1.92-.96 0-1.86-1.02-.36 0-.96-2.22l-1.38-3.72q-.18-.72-.18-1.38 0-1.62 1.2-4.38 1.5-2.22 1.8-2.22 2.88-2.64 4.5-4.68 0-.24 1.14-1.62 3.72-5.34 4.74-7.62 1.5-2.4 1.86-2.4l.54-.12q.18.66 2.28 1.68 2.4 2.16 2.4 3.18 0 1.5.06 1.68-.3 2.4-1.14 5.04-.42 1.2-3.78 6.6-.78 1.5-1.14 2.76-.72.72-1.32 3.66.06.36.06 2.52l-.06.66q0 .06.06.06l-.18.96q0 .12.12.12l-.12.54-.06 4.02q.18 1.26.54 9 .24 1.8.42 2.64l-.06 2.58-.36.72h-.48zm56.76-35.16q-.72-.54-.72-2.04.18-2.16.36-2.82 0-.12-.12-.12.24-2.82.9-4.14 2.4-3.96 4.44-6.12.66-.48 1.68-.78 0 .12.96.48 1.56 1.56 2.28 2.4.9 0 2.82-.36.36 0 1.38.3.48 0 .72-.12 2.64.48 2.64 1.56.24-.06 1.86-2.34.54-.78 2.88-2.76l-.12-.42h.24q0 .12.48.42 1.08 0 2.16 4.02l3.9-.72q2.52.24 2.52.42l.18-.06q1.44.78 1.44 1.08-.3 1.62-.96 2.4-1.08.6-4.08 1.14v-.12q-2.34.54-3 .78 0 .12-.12.12l-.18-.12q-1.02.36-1.02.66 3.78 1.08 5.76 2.4.24 0 .42.84 0 .72-.3 1.02h-.3q-.66-.3-5.34-1.86 0-.18-1.2-.36 0 .18-.6 1.14-.36 1.02-1.68 1.74-1.32.6-2.7.96-.54-.48-.84-1.44l-.54-1.38q-.24-.54-.24-.84h.06q-.3-1.32-.3-2.34h.12l-.12-.18q.06-.84.24-1.02l-.12-.3h-.12q-.48.42-2.34.72-.42 0-1.92.42-.06 0-.06-.06-.48.18-.72.18v-.12q-1.92.36-1.92.84 0 .3 2.28 1.14.6.42.6.9 0 .48-.84.78-.84 0-3.3-.9 0 .24-1.74 1.98-2.46 1.2-3.3 1.44-.78.78-1.44.96-.18.6-1.02.6zm10.68 5.1l-1.68-.12q0-.36-1.74-1.02 0-.12-1.2-.6-.3-.72-.3-1.14 1.08-1.14 2.1-1.44 1.98-.78 2.94-.78v.12l.24-.12q.3 0 .9.12l.48-.12q2.04 0 3.54 1.32-.54 2.4-1.38 2.4-.72.72-3.9 1.38zm24.9 31.68q-.42 0-2.52-1.2-1.2-.54-3.18-1.74-2.46-.84-3.6-2.04-.78-.42-.78-.66h.18q0-.12-.54-.72 0-.72.42-.72.66 0 4.5 2.4 4.32 1.62 4.62 1.62h.36q.96 0 .96-1.5.12-.42.24-4.8l-.06-.36q0-.06.06-.06l-.06-.42q0-2.82-.18-4.98.06-.42.18-2.76l-.12-.18.12-.18-.12-.24h.12l-.12-.3q0-.06.12-.06l-.3-1.62h.12l-.12-.18-.06-7.32-.12-.84q.12-.48.12-.72L362 32q0-.54-1.86-.6-.66.42-2.94.48-.6.24-1.8.54-.3 0-.3-.12-4.26.66-5.28 1.14l-2.34.42q0 .12-.54.3-.72 0-1.8-.72l.24-.36h-.24q0-.06.18-.24v-.42q5.64-1.32 11.52-2.34.6-.12 4.2-.42h.36q2.16.42 2.16 1.26v.3l-.18.18q0 .06.18.06l-.24 2.82q.36 1.26.36 1.74l-.12 1.32q0 .42.12 1.5l-.06.78q.06.72.06 2.16l.18.84q0 .36-.18 1.56l.12.24-.12.18.12.18-.12.24q.24.36.48 2.4l-.12 1.74.12 1.14q-.12.9-.3 1.38l.3 1.5q-.06.36-.18 2.1.12 1.62.18 1.62l-.12.42q0 2.1-.06 2.58 0 .12.06.12l-.06.42q0 2.4-.42 4.02 0 1.26-1.32 1.8h-.3zm-32.7-2.82l-.42.06q-3.6-3.42-3.6-3.66-1.98-3-1.98-6.96 0-.06.12-.06-.18-.9-.18-2.34 0-3.48 1.02-8.1.84-3 1.8-5.34.48-.78.84-.84.36-.3.36-.42 1.08 0 1.44.48 1.68 1.56 1.8 1.92l.18-.12h.06l-.06.42q1.08 1.74 1.32 3.3 0 .48.42 1.92v1.62q0 .72.24 2.1l-.06.3.06.18-.06.66q.12 1.44.24 1.74l-.06.18q0 .06.06.06 0 .18-.06.24l.06.96-.06.96q0 .12.06.12l-.06.48q0 .84.06.84l-.18 4.44q-.42.48-.42.78 0 1.2-.06 1.5.06.12.06.36 0 1.5-1.68 2.4h-.48l-.78-.18zm11.64-5.52l-.54-.12q0 .12-.18.12-.3-.18-1.02-.36 0-.12-1.14-1.26-1.26-1.68-1.56-4.62l-.18-1.38h.12l-.12-.18q0-4.8.12-5.4 0-.12-.12-.12l.12-.6q0-.78.06-.78 0-.06-.06-.06.36-2.22 1.2-4.32l1.38-2.16h.18q.36.36.42.36l.24-.06q.36.3 1.38 2.1h.3q.54-.18 5.04-.66 2.1-.78 3.96-.78 2.4 0 2.88 1.2-.36.96-.72 6.48h-.06q0 .06.06.06-.06.6-.06 1.86 0 .66-.12 1.26l.12.18q-.12.12-.12.3 0 .3.12.3l-.12.42q0 2.76-.24 4.02l.06.18q-.18.24-.18.54l.12.78q-.48 1.2-1.2 1.44l-.18.06h-.54q0-.3-.42-.36l-.42.12h-1.44q-.18 0-.18-.18h.18v-.06q-1.86-.48-2.7-.72-1.38-.24-1.98-.24-.66 1.38-1.26 1.38-.12.42-.78.66-.36.6-.42.6zm10.32-11.94q.3-2.28.3-4.92h.12l-.12-.18q0-.3.12-.3l-.12-.18v-1.14q0-.3-2.22-.3l-3 .78v-.12q-1.26.3-3.54.42-.54.36-.54.6.54 1.08.9 4.5l.18.18q.3 0 .66-.12l.72.12 1.5-.12v.12l.18-.12q.36 0 .36.12l.18-.12q.84 0 .96-.06 1.5 0 2.46.6.24 0 .9.24zm-2.52 8.7q2.1 0 2.1-1.02.3-2.22.3-3.36h.12l-.12-.18.12-.18-.12-.3h.12q0-.12-.12-.12l.12-.42q0-.66-.12-.78l.12-.54v-1.62q-.12 0-.42.54-.18 0-.66.24l.12.18v.12q-.24 0-.6.54-2.4.72-3.78.72-.84 0-2.34-.3v.12q.36 1.98.36 2.46l-.12.96.12.18q-.06.72-.18.72l.06.18v1.14q2.28.48 4.92.72zm41.58-30.3q-1.08 0-2.4-.78-.9-1.26-2.1-1.92-.72-.6-1.32-1.5l.12-.48q-.18-.3-.66-2.16.78-2.94 1.32-3.6.12 0 1.62-1.98l3.36-2.58.54.06q.3-.12.3-.18 2.04 0 2.82 2.52.24.72.48.72.18 0 2.52-.9.6 0 .96-.18l.18.12q.42-.06.42-.18l.42.06q.36 0 .42-.06.42.06.42.18l.18-.12q.66.12.66.18.12 0 .12-.06 2.28.48 2.28 1.38.3 0 .9 1.44 0 .66-2.64 1.14-1.74.66-5.58 1.08-.3-.06-1.08-.06l-.18.06q0 .24.06.36-.18 1.5-1.44 3.84-1.32 3.6-2.7 3.6zM406.1 68.3q-.36 0-1.74-.54-.36 0-1.08-.54-.96-.78-3.78-1.08-.24-.6-.84-.6l-.12-.42q0-1.02 2.46-2.82 1.5-.42 1.5-.6 0-2.34.66-6.6h-.06q-2.64 1.14-3 1.14l-.24.18h-.36q-.3 0-.42-.84.24-1.62 1.56-2.82 3.24-4.44 3.24-4.68.24 0 .3-.6-.3 0-2.1.78-.54 0-1.98.66l-.42.18q-.12 0-.3-.18-.78 0-1.56.96-.66 0-2.1 1.62l-1.2.6q-1.08.42-1.08.84h-.48l-.48-1.2q0-.96-1.02-.96 0-.18-.72-1.08 0-1.08-.18-1.5 0-1.68 1.44-3.36 1.26-1.92 3.36-3.42.12-.18 2.46-1.32v-.12l.6.06q.78-.24.78-.42 0-.54-1.26-2.22-.24-.6-.54-2.22.06-.42.54-.42.18 0 1.74 2.64.54.54 1.14.72.06.24.18.24h.84l.18-.72q0-1.44.06-1.5l-.06-.24q.18-.66.24-2.46-1.56.12-1.98.12-2.7 1.14-5.76 1.92-1.26.36-2.82 1.2-.36 0-1.86 1.14h-.36l-.18-.12q0 .12-.12.12 0-.6-.96-2.1-.24 0-1.02-1.26-.12 0-.24-.66 0-.48.06-.48-.12-.42-.42-.96 0-1.14.78-2.46v-.12q-.18 0-.96.6h-1.14q-1.68-.42-1.68-1.14-.06 0-.36-.84.9-.6 3-1.08l.06-.24.3.06q3.24-.78 3.6-1.14 1.68-2.46 3.66-4.62h.36v-.54q.3-.36 2.4-.66 4.68-2.1 6.66-2.1 1.62 0 2.16 1.26l.06.72q0 .36-.06.36l.12.36q-.24 0-.3.42 0 .12.06.12-.12.96-.3 1.44l.12.24q-.12 0-.12.06l.66-.06v.06q.84 0 .84-1.32l1.68-4.02q.48-1.62 1.62-2.94 0-.78 1.62-2.28h.3q.42.24.42.36l.24-.06h.06q0 .06 1.44 1.32.6.6.6 1.8h-.12l.12.3q-.06 2.82-.54 3.12l.12.24q0 .24-.18.24l.06.24q-.06.54-.12.54l.12.54 1.68-.84q0-.12 2.34-.9.06-.24 1.86-.72 1.8.48 1.44 1.32-.24.42-.96.84l-2.34 1.32-1.56.84q-.72 2.82-2.04 6.9 1.68 0 2.52.48.66 0 .66.12l.18-.12q2.94 0 3.48.78 1.98.42 1.98 1.08l.66.9q0 .54-1.38 2.82l-.66-.06q-.18 0-.24.06l-1.02-.18q-1.02.36-1.02.42-3.54-.48-6.54-1.38 0 .3-.84 1.5 0 .54-.72.66-1.26.9-1.8.9-2.1-.48-2.7-.9-2.4-.42-2.4-1.2v-.3q.12-.48 1.44-.9.42.24 1.32.3l.18-.06q.42.3.84.3h1.08q1.62 0 2.16-.84h-.12q0 .12-.06.12 0-.24-1.08-.78l-1.2-.9-.6-.6v-.06l.18-.42q-.36-.12-.36-.3l.18.06q.18-.18.3-.18v-.06l-.06-.18 1.26-.48q.54 0 2.16-.54h.9q.3 0 1.56-5.94.12 0 .12-.12h-.12q-1.56 1.2-1.56 1.5-1.08 3.24-2.4 3.24l-.66.18q-.36 0-1.44-1.74-1.32-.36-1.32-1.02-.06 0-.66-1.08-2.04.42-2.04 1.02-.24 2.04-.36 3.9.18 0 .24.24l2.4-.48q.72 0 1.08.9v.66q0 .42-1.38.9-2.52 0-2.52 1.32 0 1.44-.84 4.26l.12.66-.12.72.12.54q-.3 0-.42 1.26-.42.42-.84.42-1.32-.66-2.28-1.62h-.06q.48.36 1.32 2.76 0 1.8-1.14 3.12-.6 1.14-.6 1.62 2.64-.54 3.36-1.02.12 0 .12.12 2.58-.78 2.58-1.02.24-.78.66-.9.48-1.56 2.1-3.66l.72-1.62h.6q1.14.9 1.14 1.62h-.06l.06.18q0 1.26-2.22 3.72-2.1 2.58-2.22 3.42-.3 0-1.56 1.86 0 .24-.36.36-.66.66-1.56 2.34-.18 0-.6.6.06 0 .06.18 2.16-.48 6.3-2.88.72-.48.72-2.46.18-1.56 1.08-2.94.24-.72.9-1.2h.54q.9.42 1.62 1.14 0 .06 1.02.96.36.54.36.72v.78q.24.36.72 1.92h.06q0 .12-.06.12.12 1.38.36 1.98-.06.12-.06.36l.06.24q-.18.24-.18.48l.12.6q0 .42-.78.84l-.24-.12q-1.02 1.2-1.62 1.2-.42 0-.84-.18 0 .18-.06.18 0-.6-.54-1.02-.24.12-.48.12-.48-.9-1.56-1.86-2.34.84-2.4 1.02 1.86 1.92 1.86 2.28l.12.18q0 1.32.24 1.62 0 .06-.12.06l.18 1.92-.18 1.26q.12.12.12.6l-.12.18q0 .12.12.12-.06.48-.24.84l.24 1.38q-.6 2.76-1.56 2.76 0 .24-.54.6 0 .72-1.14 1.14zm-4.26-44.46q1.14 0 1.14-.6 0-.24.12-.24l-.12-.18q.18-1.2.18-2.28h-.3l-1.86.6q0 .12-.66.24v.18q.84 1.08 1.2 2.1l.3.18zm-4.14.9q.6 0 .6-1.02.54-.72.96-1.86-.54 0-2.46.96l-.12.18q.24.9.24 1.62-.06 0-.06.12h.84zm4.8 6.06q.24-2.46.24-4.08-.12-.48-.12-.66-1.2 0-1.2 1.32l-.06.66.06.54q-.48 0-.9 2.76 0 .06.12.06l1.86-.6zm-7.92 1.92q.54 0 1.5-.24v.06q1.5-.48 1.62-.6v-.36q-.6-.42-.6-1.44 0-1.14.3-2.82-.96 0-.96.66-.6.24-.6 1.32-.6 1.8-1.74 3.24v.12l.48.06zm26.16 33.18q-.54 0-1.2-1.02-.66 0-1.56-2.82-.36-1.08-.36-1.38.72-2.34.96-6.66.72-1.38 1.14-1.38l-.06-.12v-.12l.36.18q0-.24.18-.24 1.56 1.02 3.84 3 .78.96.78 2.82 0 1.26.54 1.26l-.24.72v1.32q-.24 2.58-.84 3.06 0 .24-1.5.3l-1.5 1.08h-.54zm-28.44-1.26q-2.94-.9-2.94-2.1-1.68-1.44-1.68-1.62 0-.54-.36-1.68 0-1.86 1.86-4.5l.84-.48q.9 0 1.68 1.14.48 0 1.98 1.68.6 0 .9 3.42 0 1.08-.6 2.46-.72.54-1.44 1.5l-.24.18z"/></svg>