<svg viewBox="0 0 303 80" xmlns="http://www.w3.org/2000/svg"><path d="M29.6 35.96q-.12 0-.39.06t-.51.06h-.12l-.18-.06q-.18 0-.45.15t-.45.15l-.66.36-.6-.12-.9.24-.66-.12q-.12 0-.54.27-.42.27-.6.27l-.54.06-.96 2.64q-.18.54-.33 1.05-.15.51-.15.69v.72l.24.3h.24q.18 0 .51.09t.51.09h1.44q2.22.18 2.94.18h.24q.12 0 .66.06t.6.06q.06 0 .3-.03t.51-.03q.27 0 .48-.03.21-.03.27-.03l2.76.48q.18 0 .57.06.39.06.78.15t.72.21q.33.12.33.18 0 .66-.66 1.08-.66.42-.9.66h-.06q-1.32.3-2.37.33-1.05.03-2.37.03h-2.34q-.36-.12-.75-.12h-.81q-.54 0-2.13.15-1.59.15-3.03.15l-1.08.24q-.42-.06-.9-.18-.48-.12-.72-.36l-1.5-1.74-.24-.6v-1.02l.48-1.02q0-.06.12-.54l.18-.36q.12-.36.24-.6l.3-.6.12.18q.12-.24.12-.42v-.12l-.24.12-.12-.12q0-.36.15-.81.15-.45.21-1.11.06.06.18.06.18 0 .42-.15t.36-.27l-.36-.06q0-.6.3-1.02.3-.42.3-1.02-.36 0-.54.15-.18.15-.3.33-.12.18-.24.39-.12.21-.42.39v-.36q0-.06.15-.63.15-.57.42-1.32.27-.75.66-1.5t.87-1.23l.12.18q.18-.24.33-.51.15-.27.15-.57v-.18l-.24.54-.24-.12.24-.72.12.12q.06.06.3.06.06 0 .21-.63t.21-.93q-.12.3-.33.63-.21.33-.27.39h-.12q0-.18.18-.66.18-.48.18-.66l.24-1.26v-.6l-1.26-1.02-.6-.48q-.12-.06-.18-.39t-.06-.39q0-.48.54-.48h3.48q.24 0 .72-.18l.78-.18 1.44.06q.96-.06 1.89-.06.93 0 1.89-.18h6.06q.36 0 1.02.45t.66.75q0 .3-.21.39-.21.09-.21.27l.06.3q0 .12-.63.21t-1.05.09h-1.02q-.72 0-1.2.21t-.87.45q-.39.24-.75.45-.36.21-.72.21 0 .24-.33.36t-.78.24q-.45.12-.9.27-.45.15-.69.39-.48.48-.9 1.05-.42.57-.84 1.17-.48.66-.9 1.38 0 .24.24.24-.18.6-.51.78-.33.18-.33.96 1.44 0 2.76-.09 1.32-.09 2.76-.09h1.68q.18 0 .51.09t.45.09l.72.3v.24l.48-.24-.12.6-.24.84q-.12 0-.24.12t-.33.3q-.21.18-.51.3-.3.12-.84.12-.36 0-.81-.06-.45-.06-.75-.06zm-11.4 1.68h-.6q-.12.12-.12.3v.24q.36-.36.72-.36v-.18zm28.92 7.44q1.08.3 1.08.42l-.06.54q0 .66.24 1.14.12.24.24.3 0 .12-.51.15t-1.2.09q-.69.06-1.38.09t-1.11.03H44q-1.32 0-2.22-.42-.9-.42-1.44-1.44l-.24-.12-.12-.78q-.12-.48-.24-.9-.12-.42-.12-.9.06-.36.3-.63t.45-.48l.33-.33q.12-.12-.06-.12 0-.3.36-.78.36-.48.9-.96t1.11-.93q.57-.45.93-.69l.48.12q.12 0 .63-.15t.81-.27l.84-.6q.42-.06.42-.42l2.34-1.08q.06-.12.21-.27.15-.15.15-.21l-.48-1.92q0-.12-.18-.12-.06 0-.06.03t-.06.03h-.12q-.3 0-1.05.12t-1.53.3q-.78.18-1.41.3l-.63.12q-.06.06-.18.06-.36 0-.75-.36t-.69-.66l-.6-.24-.3-.24q0-.12-.06-.21t-.12-.21l-.12-.24q0-.3.99-.54.99-.24 2.49-.42 1.5-.18 3.21-.27 1.71-.09 3.15-.09h.18q.84 0 1.38.27.54.27.9.66t.6.84q.24.45.54.81v1.02q0 .66.03 1.05t.03.75q0 .36-.06.75t-.24 1.05q0 .3.12.51.12.21.12.45v.06l.06.42-.48.54.36.42-.42.54q0 .12-.09.3t-.09.3l.06.06-.12.96.48.12-.06.36-.36.18.12.24-.06.42q-.3.54-.42 1.56t-.18 1.5q-.06.12-.45.15t-.84.06q-.45.03-.84.03h-.39q-.54 0-.93-.3t-.6-.75q-.21-.45-.3-.96t-.09-.93q0-1.02.33-1.65.33-.63.33-1.77-.12-.48-.03-.99t-.45-.51l-.27.27q-.15.15-.27.21-.06-.06-.3-.06-.12 0-.54.18-.42.18-.9.42-.48.24-.87.48t-.45.36q-.66.42-1.29.72t-1.05.72l-.12.9q0 .06-.06.27-.06.21-.06.39l.06.06.24-.18.18.3q.42.06.84.03t.6.09q.06 0 .09-.03t.09-.03q.3 0 .75.3t.81.3q.12 0 .18-.06zm18.66 3.42q-.18 0-.51-.03t-.72-.09q-.39-.06-.72-.15-.33-.09-.51-.15l-1.44-.54q-.12 0-.48-.15t-1.2-.45l-.78-.96q0-.54.6-1.02t1.08-.66q.06 0 .33.06t.57.15.57.15q.27.06.33.06.54 0 1.44-.06.9-.06 1.77-.15t1.5-.24q.63-.15.63-.33l.3-1.56q0-.66-.42-1.08-.42-.42-1.02-.42-.18 0-.3.12l-1.62-.3h-.6q-.48 0-1.5-.21t-2.01-.63q-.99-.42-1.74-1.08-.75-.66-.75-1.56 0-.54.15-.72.15-.18.39-.78l-.18-.12q0-.18.15-.54.15-.36.36-.75t.39-.75q.18-.36.24-.54l2.1-2.34q.12-.12.27-.09.15.03.15-.09l1.38-.9h.3l.36-.12 1.62-.3h.54l.12.12q.3.12.63.12h1.77q.12 0 .33.33.21.33.33.33.54.36.96.6.42.24.75.51t.51.66q.18.39.18 1.11 0 .18-.3.3t-.42.24h-1.08q-.06 0-.27.06-.21.06-.48.12t-.51.12q-.24.06-.3.06H66.8q-.12.3-.69.39-.57.09-.87.27-.84.48-1.02 1.05-.18.57-.3 1.41.9.6 2.13.84t1.71.24l1.62.48q1.62.48 2.25 1.35.63.87.87 1.71l.18.78v.48q0 .24-.06.42t-.12 1.38l-.3.9-.18.12q-.66.9-1.11 1.41-.45.51-1.59.69-.06 0-.15.12t-.42.24q-.33.12-1.02.24t-1.95.12zM59.6 36.92q0 .54.45.78t.93.24l-.18-.66v-.12q0-.42.06-.48t.06-.54q-.24 0-.24-.24 0-.12.12-.42t.24-.36v.36q.18 0 .21-.3t.03-.48q0-.3-.12-.3l-.12.3v-.78h-.12q-.06.18-.24.45l-.3.45q-.12.42-.15.84t-.21.84q-.12.3-.27.24-.15-.06-.15.18zm4.56-5.46h-.12q-1.02 0-1.71.81t-.99 1.77v.06q.48 0 .63-.6.15-.6.39-.9.06-.06.3-.18t.54-.3q.3-.18.57-.33.27-.15.39-.33zm29.64 1.02h.06l-.12.3.06-.3-1.5.6q-.06.06-.18.06t-.12-.12l-.3.06q-.48.06-1.23.12t-1.47.12q-.72.06-1.23.21t-.51.39v.06l.12.12q-.12.12-.18.12t-.06.12q0 .12.12.3 0 .3-.18.3t-.18.48q0 .24.36.24-.36.18-.36.78 0 .48.18.54l.18.6q-.42.42-.42.78 0 .3.06.42 0 .48-.03.66-.03.18-.03.21t-.03.06q-.03.03-.03.21l.06.06q0 .48-.21 1.17t-.33.81h-.12v.24h.3q-.12.12-.24.18t-.12.18q0 .06.06.12h.42l-.42 1.92.24.12q.36.12 1.02.12.54-.06.96-.27.42-.21.9-.27h.18q.24 0 .57-.03.33-.03.63-.03h2.82q.06 0 .3.09t.51.21q.27.12.45.24l.18.12q0 .3-.36.69-.36.39-.66.63l-2.7.84-3.48.36q-.48 0-1.32.45-.84.45-1.68.45v-.24l-1.86-.18q-.66-.48-.96-.6-.3-.12-.48-.15t-.3-.09q-.12-.06-.42-.36v-.75q0-.57.03-1.17t.09-1.11q.06-.51.18-.63l.18 2.58.24.36q0-.84.03-2.52.03-1.68.21-3.9l-.06.12q-.06.06-.09-.24t-.03-.66q0-.66.06-.66h.06l.18.66.48-3.36h-.24V34.4q-.36.12-.84.12t-.9.3l-1.26.06-.48-.06-.3.12-.18-.18q-.48 0-1.14-.84-.66-.84-.66-1.68 0-.36.75-.57.75-.21 1.77-.39 1.02-.18 2.07-.33 1.05-.15 1.71-.33.18-.54.27-1.44.09-.9.12-1.68.03-.78.06-1.26t.03-.24q0-.06.12-.45t.27-.84.27-.84q.12-.39.12-.51-.06-.06-.06-.18 0-.18.12-.48t.12-.48l.12-.06q.42 0 1.23.24t1.59.63q.78.39 1.38.96.6.57.6 1.23t-.6 1.56q-.6.9-.6 1.92l-.36 1.38q1.62 0 3.33-.15t2.55-.15q.48 0 .81.18.33.18.33.84l-.6 1.68zm-12.9 8.34l.12 1.68-.3.06q0-.12.03-.84t.15-.9zm2.76 3.6h-.3l-.3.66v.6l.6-1.26zm0-1.2q-.24 0-.24.3t.24.3q.3 0 .3-.3t-.3-.3zm27.48.9q.6-.18 1.44-.18 1.68 0 3.12.24 1.44.24 2.64.3l.48-.3 1.62-.12q.06.06.18.06.24 0 .36-.18t.3-.18q.54 0 1.32-.24t1.02-.6q.42-1.38.6-2.76t.18-2.4l-.36-.72q0-.3-.45-.45-.45-.15-.57-.15l-.66-.24q-.54 0-.93-.18t-.84-.36q-.45-.18-1.11-.36-.66-.18-1.68-.18h-.54q-.24 0-.24-.24-.48-.48-1.05-.6-.57-.12-.99-.66-.12-.06-.3-.51t-.36-1.02q-.18-.57-.3-1.11-.12-.54-.12-.72.3 0 .3-.42 0-.12-.03-.24t-.03-.24q0-.12.18-.3l.24-.18q.24-.24.15-.45-.09-.21.15-.33v.54l.12-.06 1.38-4.32 1.86-1.98 1.08-.66 1.14.42q.42 0 .99-.18.57-.18 1.05-.18.84 0 1.98.3 1.14.3 2.22.75 1.08.45 1.95.9.87.45 1.17.69-.06.42-.18.42t-.12.12q0 .18.06.27.06.09.06.27 0 .18-.3.42t-.54.24l-3.48-.3h-.18q-.3 0-.93-.03-.63-.03-.93-.03-.9 0-1.62.48-.72.48-1.23 1.29t-.78 1.8q-.27.99-.27 2.07 0 .18.24.36t.54.27q.3.09.6.15t.48.06l.24.06q.42.3.54.42.12.12.42.12h.24l.72-.06 1.02.36q.12.06.42.06h.66q.96.36 1.86.78.9.42 1.59 1.17.69.75 1.11 1.92.42 1.17.42 2.97 0 .54-.06 1.05t-.24 1.11l-.06.12q-.12.12-.42.54-.3.42-.42.48l-.24.66-.3.24-2.34 3.06q-.78.12-1.47.39t-1.41.27q-.12 0-.48-.12-.48.12-.9.12h-.84q-.6 0-2.1-.12t-3.15-.33q-1.65-.21-3.18-.42-1.53-.21-2.25-.39 0-.18.15-.21t.15-.27q0-.06-.06-.06h-.06q-.12 0-.18-.18.12 0 .39-.06t.27-.18l-.18-.42.12-.18q.06-.12.12-.18t.06-.12q0-.3-.12-.24t-.12-.42zm4.2-17.82q0 .12-.15.75t-.21.75q-.18 0-.18-.18 0-.06.18-.63.18-.57.36-.69zm.42-1.56q0 .06.06.06h.18l-.54.9q-.12 0-.12-.18 0-.12.15-.39t.27-.39zm24.06 15.66l.06-.12q.36 0 .57-.18.21-.18.33-.36.12-.18.27-.36.15-.18.39-.18.78 0 1.47-.63t.69-2.97v-1.14q0-.3-.24-.54-.24-.24-.36-.24-.06.06-.42.24t-.78.45q-.42.27-.84.57-.42.3-.66.6v.6q-.12.96-.48 2.1-.36 1.14-.36 2.16h.36zm8.64-2.22v.36l-.78.9-.36.24q-.66.3-1.26.63t-1.2.51l-.24.24h-.3q-.36 0-.45.24-.09.24-.45.3-.66.12-.84.24-.18.12-.18.18l.06.12q0 .06-.21.12t-.45.09q-.24.03-.42.06t-.12.03h-.3q-.18.18-.96.24t-1.26.36l.36 1.44q.3.12.81.24t1.05.18q.54.06 1.02.09t.72.03q.84 0 1.65-.09.81-.09 1.71-.09.84 0 1.62.15.78.15 1.5.63v.42q0 .3-.03.69-.03.39-.21.51l-.24.12q-.06.06-.48.15t-.96.21q-.54.12-1.11.21-.57.09-.87.09-1.2 0-2.37.03-1.17.03-2.37.03-.9 0-1.95-.3-1.05-.3-1.98-.84-.93-.54-1.62-1.32-.69-.78-.87-1.74l.18-.42q0-.12.06-.48t.12-.84v-.54h.42l.06-.06q0-.36.06-.42 0-.06-.09-.15t-.09-.21q0-.06.18-.18l.06-.78q0-.24.03-.54.03-.3.27-.78l.18-.12q0-.24-.24-.48.18-.06.24-.36t.18-.3q.06 0 .06.03t.06.03l.24.18.06-.06h.18q.18 0 .18-.12 0-.3-.27-.51-.27-.21-.27-.51 0-.12.06-.18 0-.12-.06-.18t-.06-.12l.18-.06q.36-.9.81-1.38.45-.48.99-.96l.3-.18q.84-.54 1.65-1.2.81-.66 1.83-.66t2.19.21q1.17.21 2.25.21 1.44.72 1.65.87.21.15.33.15l-.06.6.48.36.18.36-.42.54.36.48-.36.54q-.12.12-.12.3v.3l.06.06.06.3-.12.66.42.18v.36l-.24.18.12.18zm.12-2.1h.12q.12 0 .12.18 0 .24-.24.24-.12 0-.12-.24 0-.18.12-.18zm.24.84q0 .24-.12.24t-.12-.24q0-.12.06-.12t.18.12zm11.46 8.16q1.08.3 1.08.42l-.06.54q0 .66.24 1.14.12.24.24.3 0 .12-.51.15t-1.2.09q-.69.06-1.38.09t-1.11.03h-.42q-1.32 0-2.22-.42-.9-.42-1.44-1.44l-.24-.12-.12-.78q-.12-.48-.24-.9-.12-.42-.12-.9.06-.36.3-.63t.45-.48l.33-.33q.12-.12-.06-.12 0-.3.36-.78.36-.48.9-.96t1.11-.93q.57-.45.93-.69l.48.12q.12 0 .63-.15t.81-.27l.84-.6q.42-.06.42-.42l2.34-1.08q.06-.12.21-.27.15-.15.15-.21l-.48-1.92q0-.12-.18-.12-.06 0-.06.03t-.06.03h-.12q-.3 0-1.05.12t-1.53.3q-.78.18-1.41.3l-.63.12q-.06.06-.18.06-.36 0-.75-.36t-.69-.66l-.6-.24-.3-.24q0-.12-.06-.21t-.12-.21l-.12-.24q0-.3.99-.54.99-.24 2.49-.42 1.5-.18 3.21-.27 1.71-.09 3.15-.09h.18q.84 0 1.38.27.54.27.9.66t.6.84q.24.45.54.81v1.02q0 .66.03 1.05t.03.75q0 .36-.06.75t-.24 1.05q0 .3.12.51.12.21.12.45v.06l.06.42-.48.54.36.42-.42.54q0 .12-.09.3t-.09.3l.06.06-.12.96.48.12-.06.36-.36.18.12.24-.06.42q-.3.54-.42 1.56t-.18 1.5q-.06.12-.45.15t-.84.06q-.45.03-.84.03h-.39q-.54 0-.93-.3t-.6-.75q-.21-.45-.3-.96t-.09-.93q0-1.02.33-1.65.33-.63.33-1.77-.12-.48-.03-.99t-.45-.51l-.27.27q-.15.15-.27.21-.06-.06-.3-.06-.12 0-.54.18-.42.18-.9.42-.48.24-.87.48t-.45.36q-.66.42-1.29.72t-1.05.72l-.12.9q0 .06-.06.27-.06.21-.06.39l.06.06.24-.18.18.3q.42.06.84.03t.6.09q.06 0 .09-.03t.09-.03q.3 0 .75.3t.81.3q.12 0 .18-.06zm24.36-8.28q0-.06.06-.42t.15-.78q.09-.42.15-.81.06-.39.06-.51l.18-.72q0-.18.24-.48t.24-.42l.3.18q0-.06-.03-.12t-.03-.18q0-.24.03-.42t.03-.3l.18-.48q0-.06-.03-.15t-.03-.21q0-.24.03-.45.03-.21.03-.33-.3 0-.36.06l-.12.06q0-.24.09-.93.09-.69.27-1.56.18-.87.45-1.89t.63-2.04q.18-.18.3-.63t.36-.9q.24-.45.66-.78.42-.33 1.2-.33.12 0 .72.18t1.5.18q.66 0 1.05.15t.39.81q0 .36-.06.54l-.36 2.88 1.44-.96q.54-.36 1.56-.72l1.5-.66q.12.06.18.18t.36.18l.48.18q1.56.66 2.79 1.83t1.95 2.91q.18.3.15.6t.09.66l.06.12q.24.24.27.72.03.48.39 1.08l.12.18q.36 0 .36.3t-.06.36l.3-.12q0 .18.03.21t.03.27q0 .12-.06.24t-.06.18v.18l.18-.06q.24.18.33.81.09.63.21.93-.12 0-.12.18v.18h.18q-.12.42-.51.87t-.45.87v.06q0 .12-.09.09t-.21.03q-.42.36-.87.84t-.81.93q-.36.45-.63.84-.27.39-.27.45-.48.42-1.05 1.17-.57.75-1.05 1.47-.48.72-.78 1.23l-.3.51-.18-.06q-.12.12-.36.39t-.51.57q-.27.3-.57.54-.3.24-.48.3-.12.06-.39.06t-.27.18q0 .12.06.18h-.54l-.3-.24q-.12.12-.15.06t-.03.06q-.3 0-.63-.15t-.63-.15q-1.32-.06-2.37-.15t-2.25-.09h-.72q0 .24-.54.24l-.18-.06q-.12 0-.12.18v.12h-.66l-.18.12q-.12-.48-.3-.6-.12.18-.3.18h-.54l-.18-.24q-.06 0-.06.03t-.06.03H185q-.66-.24-.9-.75t-.24-.39l-.06-.36v-.06q0-.12.06-.3t.06-.36q0-.24-.06-.27-.06-.03-.06-.15 0-.06.03-.15t.09-.45q.06-.36.12-1.08.06-.72.12-1.98l.06-.6.12-.6q0-.24-.12-.24.36-.48.36-1.08 0-.6.06-1.2zm5.4 6.42v.24q.06 0 .06.12v.18q.48 0 .9.09.42.09.9.09.36 0 .84-.18h2.04q.06 0 .45-.45t.87-1.08q.48-.63.99-1.32.51-.69.93-1.17l1.2-1.44q.36-.42.42-.63.06-.21.54-1.05l.36-.54-.54-.78q-.12-.18-.45-1.2t-.78-2.25q-.45-1.23-.96-2.31t-1.05-1.44h-.12q-.12 0-.24-.39t-.24-.39q-.12 0-.18.06l-.18.18q-1.44 1.08-2.31 1.38-.87.3-1.17.78-.54.9-.72 1.92-.18 1.02-.54 2.1 0 .12-.06.18t-.06.12l.12.18-.36.42q0 .12.12.24v.06q0 .24-.09.33-.09.09-.09.21 0 .3.24.6t.24.6l.06.06-.24.12q.12.12.12.3v.12l-.18.12.12.42q0 .06-.09.18t-.09.24l-.12-.12q-.12.12-.12.24.06.18.18.18l-.12.6-.12.12v.24l.18.3q-.24.06-.24.36l.12.36q0 .3-.27.63t-.27.63h.12q-.12.12-.15.3t-.03.36q0 .6.06.78zm-2.46-12.06h-.24l-.24.42q0 .24-.15.63t-.15.57v.96h.3l.24-.48q0-.24.12-.57.12-.33.12-.57v-.96zm-2.04 3.9l-.24.42q-.06.06-.06.12v.84l.3-.24v-1.14zm.48-1.5h-.3q-.12.12-.15.39t-.03.33v.3l.24-.3.24-.72zm.84-4.08v-.12q0-.12-.12-.12t-.12.12q0 .3.18.3.06 0 .06-.18zM208.16 41l.18-.42q0-.12.06-.21t.12-.21l.18-.18q0-.84.57-2.1.57-1.26 1.29-1.74l.48-.24q.12-.06.12-.27 0-.21.06-.33l.24-.3q.48-.66 1.08-1.35.6-.69 1.17-1.23t1.05-.87q.48-.33.84-.33.12 0 .21.06t.51.18l.66.84q.24.06.42.48l.18.42v.96l.18.24q.12.12.18.21t.18.15l.72.48q.06.24.36.6l.6.72.84.96q.12.18.24.66.12.48.21 1.02t.15.99q.06.45.06.63v.48l-.54 1.26-.06.48-.6.66-.9.72q-.3.18-.78.18-.48 0-.84.3l-.48.18q-.36.24-.6.24-.06 0-.09-.03t-.09-.03l-.72.12q-.24.18-1.02.18-.42 0-.66-.06l-1.38-.36-1.38-.48q-.84-.24-1.29-.42-.45-.18-.99-1.2l-.24-.6q-.12-.3-.24-.48l-.24-.96zm5.04.18l.06 1.44.3.06q.48-.12 1.14-.21.66-.09.96-.27l.6-.42.48-.54.18-.54-.72-2.76-1.02-.42-.18.12q-.12.06-.36.45t-.51.93q-.27.54-.54 1.14-.27.6-.39 1.02zm-1.86-3.6l-.3-.24q-.3.3-.72 1.08t-.42 1.38q0 .24.06.36l.12-.3.96-1.74q.24-.36.3-.54zm13.08 8.28l.06-.78.3-.24h-.3v-.3q0-.06.12-.18l.18.24 1.02-1.14q-.06-.12-.06-.18t-.18-.18q-.18.18-.24.21t-.6.03q-.06-.12-.06-.3 0-.48.21-.78.21-.3.21-.6h-.12q-.12 0-.3-.24-.12 0-.21.09t-.15.09q.06-.24.33-.69.27-.45.27-.63l-.24-.78q0-.18.03-.42t.03-.54q0-.3-.03-.6t-.03-.66l.12-.24q0-.84-.12-.87-.12-.03-.12-.33 0-.06.24-.3-.12-.12-.12-.18 0-.12.15-.3t.15-.42l-.18-.06q.18-.48.24-1.2t.12-1.47q.06-.75.09-1.38.03-.63.15-.99 0-1.5.33-2.43.33-.93.33-2.13 0-.6.06-1.44t.15-1.59q.09-.75.15-1.29t.06-.66h.42l1.02-.54h.66q.3 0 .51.3.21.3.57.6l.96.9.36.36q0 .12-.03.27-.03.15-.03.27l-.18 1.08q0 .42.15 1.47t.15 1.47l-.06.12.06 1.56q0 .12-.12.24t-.12.42q.06.12.06.24 0 .24-.18.24t-.18.12l.06.06h.24q0 .12-.09.3t-.09.3q.24.12.3.66t.06 1.14l.12.06q-.06.12-.12.15t-.06.15q0 .12.12.24 0 .3-.18.33-.18.03-.18.51 0 .18.36.18-.36.36-.36.3 0 .12.24.18l.18.6q-.36.48-.36.84v.12q.3-.12.57-.42.27-.3.51-.48l1.2-.66-.12-.06q.3 0 .69-.21.39-.21.75-.42t.63-.42q.27-.21.33-.21 0-.12-.03-.18t-.03-.12l.18-.18 2.64-2.16.54-.54q.12-.06.45-.39l.45-.45.12-.12h-.24l.72-.72q-.06-.06-.06-.12 0-.24.24-.48t.42-.24q.06 0 .09.09t.15.09l.3-.06q.06 0 .21.15t.27.15q.12 0 .18-.03t.18-.03q.18 0 .42.24t.45.57q.21.33.36.69.15.36.15.6l-.18.48-.36.36q-.54.54-1.14.96-.6.42-1.08.9l-2.28 2.46-.48.36q.3.48.63 1.32.33.84.33.96l.48 1.74q.24.9.93 1.89.69.99 1.29 2.13l-.18.9.66.48.6.78-.18.66.6.3-.18.72q0 .12.06.36t.18.3l.12.24q.3 1.08.87 2.52.57 1.44 1.14 2.76.57 1.32.96 2.19l.39.87v-.6q-.12-.12-.12-.66t-.12-.66l.3-.12q.18.78.3 1.2.12.42.18.69.06.27.09.42.03.15.03.33 0 .24-.06.36l-.3.6-.66.36-.6.6-.72-.12-.42.18-.18.48q-.24.06-.48.03t-.54.03l-.12-.24q-.12-.36-.48-1.17-.36-.81-.78-1.71-.42-.9-.81-1.71-.39-.81-.57-1.17l-.66-.6-.3-.84-.3-.12-.42-.96q-.48-.84-.63-1.29-.15-.45-.15-.69 0-.18.18-.3l-.36-.72-.24-.72q-1.2-2.94-2.01-4.2-.81-1.26-.93-1.38v-.12h.3v-.18q0-.12-.15-.45t-.15-.39v-.12q0-.12.06-.15t.06-.15h-.12l-.36-.54q-.12-.06-.24-.54-.12-.48-.24-.6l-.18-.42q-.6.6-1.29.87-.69.27-1.23.81l-1.08.42v5.04l.18.06q-.12.36-.12.6t.12.24l-.12.3q-.06.12-.06.3 0 .3.12.54.12.24.12.54v.3l-.12.12.24.3q-.06.06-.09.12t-.15.12v-.12q-.36.12-.42.18l.6.12q-.36.36-.66.36-.24-.18-.27-.24-.03-.06-.33-.06-.66 0-1.38.18-.72.18-1.14.3-1.2-.18-1.59-.63-.39-.45-.39-.93 0-.24.06-.36v-.06q0-.24.18-.27.18-.03.18-.51 0-.18-.66-.18zm19.92 2.58l.6.6-.18.36-.54-.66-.18-.48.3.18zm-18.78-5.7q.3 0 .3-.24t.18-1.02q-.12 0-.24.18t-.12.3q0 .06.03.06t.03.06q0 .12-.12.24t-.12.3q0 .06.06.12zm20.4 9.36l.24-.12.12.3-.18.3-.36-.12.18-.36zm-2.58-5.28l.12-.06q.24 0 .24.24 0 .18-.18.18-.24 0-.24-.24 0-.06.06-.12zm2.28 4.56h.12q.12 0 .12.06 0 .12-.12.18t-.24.06q-.12 0-.12-.06 0-.12.24-.24zm-1.8-3.84l.06.12v.12q-.24 0-.24-.3h.06q.06 0 .12.06zm.96 2.7l.36-.06.12.18-.48-.12zm-19.86-8.94l-.06-.24h-.12l-.06.06q0 .06.24.18zm0 1.08l.12.12v-.3q-.06 0-.12.18zm35.94 4.56h-.12q-.84.36-2.04.6-1.2.24-2.16.24-.54 0-1.47-.12-.93-.12-1.86-.42t-1.62-.72q-.69-.42-.69-1.08 0-.24-.03-.51t-.03-.51q.12-1.68.21-2.52.09-.84.24-1.32.15-.48.36-.87t.57-1.23q0-.06.15-.15t.27-.21l.42-.18h.3q0 .24-.09.33-.09.09-.09.27v.12q.24-.12.39-.36.15-.24.33-.48l2.76-2.34h-.96q.24-.24.78-.48t1.17-.51 1.17-.51q.54-.24.72-.42.84-.66 1.59-.9.75-.24 1.53-.96.18-1.08.36-2.34.18-1.26.42-2.55.24-1.29.57-2.52.33-1.23.69-2.31.12-.18.42-.21t.48-.03q.12 0 .24.06t.24.06l.54-.12h.12q.42 0 1.02.24.6.24 1.14.57.54.33.93.69.39.36.39.6t-.18.36l.18.12q-.06 0-.27.18-.21.18-.45.45-.24.27-.42.54t-.18.45q0 .42-.18 1.14t-.39 1.47q-.21.75-.39 1.35-.18.6-.18.78l.18.3q0 .42-.21.93t-.21.99q0 .12-.09.3t-.21.66q-.12.48-.33 1.35-.21.87-.45 2.43-.24.3-.21 1.11t-.09 1.23l-.12.42q0 .12.06.45t.06.63q-.18 0-.3.21t-.12.45v.36l.24-.72q.06.24.12.54.06.3.06.42l-.12.42v.48q0 .12-.03.18t-.03.12v.12h-.24v.66h.3l.12.3-.12.72.12.12q0 .06.06.33t.06.39l-.12.12v.48l-1.14.54-2.64.42q-.54 0-.93-.6t-.57-.6zm-5.64-2.76q.36.18 1.02.27.66.09 1.35.12.69.03 1.32.09.63.06 1.05.18.06 0 .33.15t.39.15q.06 0 .06-.3v-.54q0-.18.12-.87t.12-1.77v-.48h-.06q0-.18.06-.3t.06-.36v-1.74l.18-.24v-1.56q-.18 0-.9.3t-1.53.69q-.81.39-1.47.72-.66.33-.72.39-.78 1.02-1.02 1.77t-.36 1.29v.3q0 .12.03.24t.03.18l.12.48q0 .06-.09.39t-.09.45zm-.24-8.1q0 .12-.36.51t-.48.51v-.18q0-.36.27-.6t.57-.24zm-1.14.66l.06.3q0 .12-.12.42t-.36.3v-.48l.42-.54zm1.68-1.32q.06 0 .06.12 0 .18-.12.42t-.3.24q-.06 0-.06-.06 0-.12.15-.42t.27-.3zM273.32 41l.18-.42q0-.12.06-.21t.12-.21l.18-.18q0-.84.57-2.1.57-1.26 1.29-1.74l.48-.24q.12-.06.12-.27 0-.21.06-.33l.24-.3q.48-.66 1.08-1.35.6-.69 1.17-1.23t1.05-.87q.48-.33.84-.33.12 0 .21.06t.51.18l.66.84q.24.06.42.48l.18.42v.96l.18.24q.12.12.18.21t.18.15l.72.48q.06.24.36.6l.6.72.84.96q.12.18.24.66.12.48.21 1.02t.15.99q.06.45.06.63v.48l-.54 1.26-.06.48-.6.66-.9.72q-.3.18-.78.18-.48 0-.84.3l-.48.18q-.36.24-.6.24-.06 0-.09-.03t-.09-.03l-.72.12q-.24.18-1.02.18-.42 0-.66-.06l-1.38-.36-1.38-.48q-.84-.24-1.29-.42-.45-.18-.99-1.2l-.24-.6q-.12-.3-.24-.48l-.24-.96zm5.04.18l.06 1.44.3.06q.48-.12 1.14-.21.66-.09.96-.27l.6-.42.48-.54.18-.54-.72-2.76-1.02-.42-.18.12q-.12.06-.36.45t-.51.93q-.27.54-.54 1.14-.27.6-.39 1.02zm-1.86-3.6l-.3-.24q-.3.3-.72 1.08t-.42 1.38q0 .24.06.36l.12-.3.96-1.74q.24-.36.3-.54z"/></svg>