<svg viewBox="0 0 622 80" xmlns="http://www.w3.org/2000/svg"><path d="M16.94 60.3q-.6 0-1.02-.24-.42-.24-.42-.6 0-.78 1.56-1.14 2.22-.6 3.12-1.41.9-.81.9-2.73V27q0-1.98-.81-2.85-.81-.87-3.03-1.35-1.56-.3-1.56-1.2 0-.42.39-.63.39-.21 1.05-.21 1.8 0 4.92.12t4.62.12q4.8 0 11.4-.12 1.86-.06 3.21-.18 1.35-.12 1.59-.12 1.26 0 1.38.9l.42 2.7q.54 3.12.54 4.56 0 .48-.24.78-.24.3-.6.3-.6 0-.96-.84-.48-1.26-.93-2.37-.45-1.11-.93-1.59-1.68-1.8-4.26-1.8H31.7q-1.14 0-2.01.66-.87.66-.87 1.74v11.76q0 1.38 1.38 1.38h5.46q1.5 0 2.19-.78t1.29-2.58q.36-1.2 1.14-1.2.3 0 .54.33.24.33.24.87-.24 2.4-.24 4.62 0 3.06.18 4.86v.3q0 1.08-.6 1.08-.42 0-.81-.45-.39-.45-.57-1.23-.48-1.74-1.14-2.55-.66-.81-1.8-.81H30.5q-.9 0-1.29.33t-.39 1.11v11.4q0 1.92.81 2.7.81.78 2.61.78h4.92q3.24 0 4.86-1.2 1.62-1.26 3.42-4.68.42-.78 1.08-.78.6.06.6 1.02 0 1.92-1.86 7.5-.36.84-1.2.84l-7.2-.12Q29.18 60 24.8 60q-1.14 0-3.78.12-1.98.18-4.08.18zm33.78 0q-.6 0-1.02-.24-.42-.24-.42-.6 0-.78 1.56-1.14 2.28-.6 3.18-1.44.9-.84.9-2.7V27q0-2.04-.81-2.94-.81-.9-2.97-1.26-.78-.12-1.17-.45-.39-.33-.39-.75t.39-.63q.39-.21 1.05-.21 2.52 0 4.26.18 1.92.12 3.24.12.78 0 1.71-.06.93-.06 1.41-.12 2.1-.3 4.8-.3 7.32 0 10.83 2.07t3.51 6.87q0 1.8-.75 3.42-.75 1.62-1.95 2.64-.96.9-1.92 1.44-.96.54-2.34.96-.24.12-.24.33 0 .21.24.27 4.02.96 6.63 3.06 2.61 2.1 2.61 6.72 0 3.06-.99 5.04t-2.25 3q-1.26 1.02-3.06 1.92-3.96 1.92-10.38 1.92-.96 0-3.24-.12Q60.5 60 59 60q-1.44 0-4.08.12-2.04.18-4.2.18zm14.46-22.44q3.36 0 5.82-1.68.78-.66 1.47-2.01.69-1.35.69-3.57 0-7.68-7.02-7.68-1.92 0-2.7.63-.78.63-.78 2.01V35.7q0 1.14.78 1.65t1.74.51zm1.5 19.38q2.1 0 3.9-1.11 1.8-1.11 2.88-3.06 1.08-1.95 1.08-4.29 0-2.88-1.05-4.62-1.05-1.74-2.43-2.58-.78-.54-2.16-.96-1.38-.42-3.24-.42-1.26 0-2.13.57-.87.57-.87 1.41v11.1q0 3.96 4.02 3.96zm54.84 3.6q-5.7 0-10.5-2.52t-7.62-7.02q-2.82-4.5-2.82-10.08 0-5.64 2.88-10.47 2.88-4.83 8.04-7.71 5.16-2.88 11.58-2.88 2.34 0 6.33.69t5.67 1.41q.9.42.96 1.2.66 4.86.66 6.9 0 .48-.27.84t-.69.36q-.6 0-.9-.36-.3-.36-.6-1.08-1.32-2.76-2.58-4.14-2.82-2.94-8.28-2.94-4.26 0-7.47 2.31t-4.92 6.18q-1.71 3.87-1.71 8.37 0 5.46 1.65 9.54 1.65 4.08 4.65 6.3 3 2.22 6.9 2.22 3.12 0 5.16-1.74.66-.48 1.08-1.62.42-1.14.48-2.52l.12-4.44q0-1.5-1.02-1.98-.72-.6-2.04-.96t-2.46-.48q-.48-.12-.93-.45-.45-.33-.45-.75t.42-.69q.42-.27.84-.27 1.38 0 4.26.12 3 .12 4.38.12 1.02 0 3.3-.12 2.16-.12 3.42-.12.42 0 .78.24.36.24.36.72t-.36.75q-.36.27-.84.39-1.56.42-2.16 1.05-.6.63-.78 1.89-.42 2.04-.42 4.5v1.86q0 .36.3.66.3.3.36.42.12.12.39.48t.27.72q0 1.14-1.08 1.26-.36.06-1.62.66-2.7 1.32-5.76 2.25-3.06.93-6.96.93zm27.84 0q-2.16 0-3.87-1.68t-1.71-3.72q0-1.98 1.14-3.27t3.66-2.37l5.58-2.4q1.2-.48 1.47-.87t.27-1.59l.12-3.54q.06-1.68-.72-2.7-.78-1.02-2.22-1.02-.78 0-1.62.3-.84.3-1.32.78-.42.36-.42 1.38l.06 1.5q0 .6-1.83 1.47t-3.03.87q-.42 0-.66-.3-.24-.3-.24-.72 0-1.86 2.64-4.08 2.16-1.86 5.01-3.15 2.85-1.29 4.77-1.29 2.88 0 4.62 1.89 1.74 1.89 1.68 4.95l-.3 12.84q-.06 1.32.51 2.22.57.9 1.41.9 1.32 0 2.04-.72.24-.24.42-.24.3 0 .51.21.21.21.21.51 0 .66-.96 1.62-1.02 1.08-2.28 1.65-1.26.57-2.46.57-1.62 0-2.85-.81t-2.31-2.49h-.18q-1.98 1.74-3.63 2.52t-3.51.78zm3.36-3.6q1.5 0 2.4-1.08.54-.42.6-1.86l.12-3.84v-.24q0-.78-.54-.78-.36 0-.9.24-2.28.96-3.21 1.95-.93.99-.93 2.61 0 1.56.72 2.28.72.72 1.74.72zM170 60.18q-.54 0-.87-.21-.33-.21-.33-.57 0-.48.33-.72t1.05-.42q1.26-.36 1.77-.87t.51-1.41v-13.5q0-1.5-.45-2.37-.45-.87-1.59-1.17-.72-.24-.72-1.02 0-.72.66-.9 1.74-.42 3.87-1.26 2.13-.84 3.57-1.62.96-.54 1.2-.54.48 0 .48.6l-.18 4.68q0 .12.06.24t.12.12q1.56-2.04 3.54-3.45 1.98-1.41 3.9-1.41 1.68 0 2.58.69.9.69.9 1.83 0 1.26-.99 2.7-.99 1.44-2.13 1.44-.66 0-2.1-.72-1.56-.72-2.16-.72-1.74 0-2.82 1.23-1.08 1.23-1.08 4.23v10.56q0 1.02.72 1.59.72.57 2.46 1.11.72.18 1.02.42.3.24.3.66 0 .78-1.08.78-1.86 0-3.48-.18-2.04-.12-3.06-.12-.9 0-2.82.12-1.44.18-3.18.18zm28.14.66q-2.16 0-3.87-1.68t-1.71-3.72q0-1.98 1.14-3.27t3.66-2.37l5.58-2.4q1.2-.48 1.47-.87t.27-1.59l.12-3.54q.06-1.68-.72-2.7-.78-1.02-2.22-1.02-.78 0-1.62.3-.84.3-1.32.78-.42.36-.42 1.38l.06 1.5q0 .6-1.83 1.47t-3.03.87q-.42 0-.66-.3-.24-.3-.24-.72 0-1.86 2.64-4.08 2.16-1.86 5.01-3.15 2.85-1.29 4.77-1.29 2.88 0 4.62 1.89 1.74 1.89 1.68 4.95l-.3 12.84q-.06 1.32.51 2.22.57.9 1.41.9 1.32 0 2.04-.72.24-.24.42-.24.3 0 .51.21.21.21.21.51 0 .66-.96 1.62-1.02 1.08-2.28 1.65-1.26.57-2.46.57-1.62 0-2.85-.81t-2.31-2.49h-.18q-1.98 1.74-3.63 2.52t-3.51.78zm3.36-3.6q1.5 0 2.4-1.08.54-.42.6-1.86l.12-3.84v-.24q0-.78-.54-.78-.36 0-.9.24-2.28.96-3.21 1.95-.93.99-.93 2.61 0 1.56.72 2.28.72.72 1.74.72zm17.16 2.94q-.48 0-.84-.21t-.36-.57q0-.66 1.38-1.14 1.26-.36 1.83-.78.57-.42.57-1.5V42.54q0-1.56-.45-2.52t-1.59-1.14q-.6-.12-.6-1.02 0-.72.54-.9 4.32-1.02 8.04-3.12.48-.36.72-.36t.36.18q.12.18.12.42l-.12 1.32q-.06.42-.12 1.02-.06.6-.06 1.32 0 .6.12.72h.12q1.92-1.86 4.11-2.94 2.19-1.08 4.95-1.08 1.92 0 3.48 1.17t2.34 3.27h.24q4.14-4.44 9.3-4.44 2.88 0 4.68 2.4 1.8 2.4 1.8 6.12v13.08q0 1.08.54 1.47.54.39 1.8.75 1.32.42 1.32 1.14 0 .36-.33.57-.33.21-.81.21-1.74 0-3.12-.18-1.68-.12-2.7-.12-1.02 0-2.58.12-1.26.18-2.94.18-.48 0-.78-.21-.3-.21-.3-.57 0-.48.3-.69.3-.21.96-.45.96-.24 1.44-.66.48-.42.48-1.38V43.86q0-2.22-1.08-3.69-1.08-1.47-2.7-1.47-2.28 0-4.08 1.44-1.14.96-1.14 3.12v12.78q0 1.08.51 1.47.51.39 1.65.75 1.26.48 1.26 1.14 0 .36-.3.57-.3.21-.78.21-1.62 0-3-.18-1.56-.12-2.58-.12t-2.58.12q-1.32.18-3 .18-.42 0-.75-.21t-.33-.57q0-.42.3-.66.3-.24.96-.48 1.02-.24 1.5-.66.48-.42.48-1.38V43.86q0-2.22-1.08-3.66t-2.7-1.5q-2.22 0-4.14 1.44-1.02.72-1.02 3v12.9q0 1.02.45 1.47.45.45 1.47.75 1.26.48 1.26 1.14 0 .36-.3.57-.3.21-.78.21-1.68 0-2.94-.18-1.56-.12-2.58-.12t-2.7.12q-1.32.18-3.12.18zm59.46.66q-3.48 0-6.36-1.59-2.88-1.59-4.53-4.44-1.65-2.85-1.65-6.39 0-3.66 1.83-6.9t5.01-5.19q3.18-1.95 6.96-1.95 3.54 0 6.51 1.71 2.97 1.71 4.71 4.56 1.74 2.85 1.74 6.15 0 3.84-1.62 7.05t-4.83 5.1q-3.21 1.89-7.77 1.89zm1.2-2.34q3.18 0 4.56-2.46 1.26-2.28 1.26-7.8 0-3.12-.84-5.73-.84-2.61-2.37-4.17-1.53-1.56-3.51-1.56-2.4 0-3.78 1.62-1.08 1.2-1.47 3.3-.39 2.1-.39 5.28 0 2.94.87 5.58t2.37 4.29q1.5 1.65 3.3 1.65zm17.22 1.68q-.48 0-.84-.21t-.36-.57q0-.48.33-.69.33-.21 1.05-.45 1.26-.36 1.83-.78.57-.42.57-1.5V42.54q0-1.56-.42-2.49-.42-.93-1.62-1.17-.6-.24-.6-1.02 0-.72.54-.9 4.38-1.02 7.8-3 .12-.06.42-.27.3-.21.54-.21.48 0 .48.66l-.12 1.26q-.18 2.16-.18 2.28 0 .72.12.84 2.16-2.04 4.32-3.06t4.86-1.02q3.12 0 5.16 2.37t2.04 6.15v13.08q0 1.08.54 1.47.54.39 1.8.75.6.24.96.51t.36.69q0 .36-.36.54-.36.18-.78.18-1.74 0-3.12-.18-1.68-.12-2.7-.12-.96 0-2.76.12-1.32.18-3.12.18-.36 0-.69-.18-.33-.18-.33-.54 0-.78 1.2-1.2 1.2-.36 1.74-.75t.54-1.47V43.86q0-2.4-1.17-3.78t-3.15-1.38q-2.82 0-5.16 1.86-.48.3-.48 1.2v14.28q0 1.08.54 1.47.54.39 1.74.75 1.26.36 1.26 1.14 0 .36-.3.57-.3.21-.78.21-1.68 0-3.06-.18-1.68-.12-2.64-.12-.9 0-2.82.12-1.44.18-3.18.18zm52.14.96q-.18 0-.51-.33t-.33-.51q.24-1.5.36-3.36v-.36q-1.2 1.8-3.33 3.03-2.13 1.23-4.59 1.23-3.3 0-5.91-1.71-2.61-1.71-4.08-4.56-1.47-2.85-1.47-6.15 0-3.9 1.77-7.05t4.98-4.98q3.21-1.83 7.35-1.83 2.04 0 3.9.54l.78.18q.3 0 .3-1.02V26.7q0-2.16-.57-3.09-.57-.93-1.95-1.23-.66-.18-.66-.9 0-.66.6-.84 4.38-1.02 7.8-2.52.9-.42 1.2-.42.6 0 .6.6 0 .06-.15 1.41-.15 1.35-.21 4.05l-.18 29.22q0 2.1.3 2.97.3.87 1.02.87.9 0 2.46-.18h.3q.3 0 .45.12.15.12.15.48 0 .48-.33.93-.33.45-.63.45-4.44.6-8.4 2.16-.72.36-1.02.36zm-5.64-4.08q1.2 0 2.58-.57 1.38-.57 2.28-1.59V42.42q0-1.2-.87-2.46t-2.25-2.07q-1.38-.81-2.88-.81t-2.88 1.11q-1.38 1.11-2.28 3.3-.9 2.19-.9 5.37 0 3.42 1.11 5.73 1.11 2.31 2.79 3.39t3.3 1.08zm42.72 3.84q-5.34 0-9.12-2.64-.78-.6-1.14-1.38-.9-2.7-.78-7.92 0-.78 1.14-.78.48 0 .75.15t.39.57q1.32 4.5 3.84 7.02 2.52 2.52 5.7 2.52 2.82 0 4.5-1.86 1.68-1.86 1.68-4.5 0-2.04-.72-3.39t-2.1-2.4q-1.38-1.05-3.96-2.55-3.48-2.04-5.4-3.42-1.92-1.38-3.33-3.57-1.41-2.19-1.41-5.25 0-3.3 1.71-5.88t4.77-4.02q3.06-1.44 7.08-1.44 2.04 0 3.96.42t3.24 1.02q.6.24.93.6.33.36.57 1.14.9 3.12.9 6.66 0 .72-1.02.72-.54 0-1.02-.24t-.6-.66q-2.22-7.08-7.62-7.08-2.82 0-4.44 1.47-1.62 1.47-1.62 4.41 0 2.1 1.95 3.84 1.95 1.74 6.27 4.32 4.62 2.82 6.72 5.49 2.1 2.67 2.1 6.63 0 5.82-3.75 8.91t-10.17 3.09zm28.92-.06q-3.24 0-5.79-1.68t-3.99-4.65q-1.44-2.97-1.44-6.75 0-3.6 1.71-6.66t4.59-4.86q2.88-1.8 6.3-1.8 3.78 0 6.3 2.28t2.52 5.76q0 1.08-.45 1.62t-1.41.54h-12.18q-.84 0-1.2.48t-.36 1.62q0 2.52 1.08 4.56 1.08 2.04 2.97 3.24 1.89 1.2 4.23 1.2 3.12 0 6-2.58.48-.48.78-.48.24 0 .42.21t.18.51q0 .78-.72 2.04-1.08 2.28-3.66 3.84t-5.88 1.56zM410.9 42.3h4.2q2.64 0 3.84-.3.54-.12.54-1.56 0-1.62-1.23-2.73-1.23-1.11-3.03-1.11-1.26 0-2.46.75t-1.95 1.92q-.75 1.17-.75 2.31 0 .72.84.72zm18.06 17.88q-.48 0-.84-.21t-.36-.57q0-.66 1.38-1.14 1.26-.36 1.83-.78.57-.42.57-1.5V42.54q0-1.56-.45-2.52t-1.59-1.14q-.6-.12-.6-1.02 0-.72.54-.9 4.32-1.02 8.04-3.12.48-.36.72-.36t.36.18q.12.18.12.42l-.12 1.32q-.06.42-.12 1.02-.06.6-.06 1.32 0 .6.12.72h.12q1.92-1.86 4.11-2.94 2.19-1.08 4.95-1.08 1.92 0 3.48 1.17t2.34 3.27h.24q4.14-4.44 9.3-4.44 2.88 0 4.68 2.4 1.8 2.4 1.8 6.12v13.08q0 1.08.54 1.47.54.39 1.8.75 1.32.42 1.32 1.14 0 .36-.33.57-.33.21-.81.21-1.74 0-3.12-.18-1.68-.12-2.7-.12-1.02 0-2.58.12-1.26.18-2.94.18-.48 0-.78-.21-.3-.21-.3-.57 0-.48.3-.69.3-.21.96-.45.96-.24 1.44-.66.48-.42.48-1.38V43.86q0-2.22-1.08-3.69-1.08-1.47-2.7-1.47-2.28 0-4.08 1.44-1.14.96-1.14 3.12v12.78q0 1.08.51 1.47.51.39 1.65.75 1.26.48 1.26 1.14 0 .36-.3.57-.3.21-.78.21-1.62 0-3-.18-1.56-.12-2.58-.12t-2.58.12q-1.32.18-3 .18-.42 0-.75-.21t-.33-.57q0-.42.3-.66.3-.24.96-.48 1.02-.24 1.5-.66.48-.42.48-1.38V43.86q0-2.22-1.08-3.66t-2.7-1.5q-2.22 0-4.14 1.44-1.02.72-1.02 3v12.9q0 1.02.45 1.47.45.45 1.47.75 1.26.48 1.26 1.14 0 .36-.3.57-.3.21-.78.21-1.68 0-2.94-.18-1.56-.12-2.58-.12t-2.7.12q-1.32.18-3.12.18zm47.7 0q-.48 0-.78-.21-.3-.21-.3-.57 0-.78 1.2-1.08 1.5-.36 2.1-.81.6-.45.6-1.41V43.08q0-1.92-.6-2.88t-2.04-1.2q-.3-.06-.48-.33t-.18-.63q0-.78.66-.9 3.96-.9 8.28-3.3.84-.42 1.08-.42.66 0 .66.6l-.18 2.04q-.48 3.84-.48 6.48v13.5q0 .9.57 1.35.57.45 2.13.93.66.24.96.45.3.21.3.63 0 .72-1.08.72-1.14 0-3.3-.12-1.92-.12-3-.12-.96 0-2.88.12-1.5.18-3.24.18zm6-30.24q-1.74 0-2.94-1.2t-1.2-2.88q0-1.8 1.2-3.03 1.2-1.23 2.94-1.23 1.8 0 3 1.23t1.2 3.03q0 1.74-1.2 2.91-1.2 1.17-3 1.17zm10.8 30.36q-.6 0-1.02-.24-.42-.24-.42-.6 0-.78 1.56-1.14 2.28-.6 3.18-1.44.9-.84.9-2.7V27q0-2.04-.81-2.94-.81-.9-2.97-1.26-.78-.12-1.17-.45-.39-.33-.39-.75t.39-.63q.39-.21 1.05-.21 2.52 0 4.26.18 1.92.12 3.24.12.78 0 1.71-.06.93-.06 1.41-.12 2.1-.3 4.8-.3 7.32 0 10.83 2.07t3.51 6.87q0 1.8-.75 3.42-.75 1.62-1.95 2.64-.96.9-1.92 1.44-.96.54-2.34.96-.24.12-.24.33 0 .21.24.27 4.02.96 6.63 3.06 2.61 2.1 2.61 6.72 0 3.06-.99 5.04t-2.25 3q-1.26 1.02-3.06 1.92-3.96 1.92-10.38 1.92-.96 0-3.24-.12-2.64-.12-4.14-.12-1.44 0-4.08.12-2.04.18-4.2.18zm14.46-22.44q3.36 0 5.82-1.68.78-.66 1.47-2.01.69-1.35.69-3.57 0-7.68-7.02-7.68-1.92 0-2.7.63-.78.63-.78 2.01V35.7q0 1.14.78 1.65t1.74.51zm1.5 19.38q2.1 0 3.9-1.11 1.8-1.11 2.88-3.06 1.08-1.95 1.08-4.29 0-2.88-1.05-4.62-1.05-1.74-2.43-2.58-.78-.54-2.16-.96-1.38-.42-3.24-.42-1.26 0-2.13.57-.87.57-.87 1.41v11.1q0 3.96 4.02 3.96zm32.52 3.6q-3.48 0-6.36-1.59-2.88-1.59-4.53-4.44-1.65-2.85-1.65-6.39 0-3.66 1.83-6.9t5.01-5.19q3.18-1.95 6.96-1.95 3.54 0 6.51 1.71 2.97 1.71 4.71 4.56 1.74 2.85 1.74 6.15 0 3.84-1.62 7.05t-4.83 5.1q-3.21 1.89-7.77 1.89zm1.2-2.34q3.18 0 4.56-2.46 1.26-2.28 1.26-7.8 0-3.12-.84-5.73-.84-2.61-2.37-4.17-1.53-1.56-3.51-1.56-2.4 0-3.78 1.62-1.08 1.2-1.47 3.3-.39 2.1-.39 5.28 0 2.94.87 5.58t2.37 4.29q1.5 1.65 3.3 1.65zm16.92 1.68q-.48 0-.84-.18t-.36-.54q0-.42.36-.69.36-.27 1.02-.51.18-.06.93-.3t1.11-.72q.36-.48.36-1.26V26.7q0-1.8-.57-2.91t-1.95-1.41q-.3-.06-.45-.3-.15-.24-.15-.6 0-.72.54-.84 2.46-.54 7.2-2.28l1.26-.48q.36-.18.6-.18.54 0 .54.6 0 .42-.18 1.89t-.18 3.57v32.16q0 1.02.48 1.41.48.39 1.08.6.6.21.78.27 1.38.42 1.38 1.2 0 .36-.33.54-.33.18-.87.18-1.26 0-3.18-.12-1.8-.12-2.82-.12-1.02 0-2.7.12-1.32.18-3.06.18zm35.46.96q-.18 0-.51-.33t-.33-.51q.24-1.5.36-3.36v-.36q-1.2 1.8-3.33 3.03-2.13 1.23-4.59 1.23-3.3 0-5.91-1.71-2.61-1.71-4.08-4.56-1.47-2.85-1.47-6.15 0-3.9 1.77-7.05t4.98-4.98q3.21-1.83 7.35-1.83 2.04 0 3.9.54l.78.18q.3 0 .3-1.02V26.7q0-2.16-.57-3.09-.57-.93-1.95-1.23-.66-.18-.66-.9 0-.66.6-.84 4.38-1.02 7.8-2.52.9-.42 1.2-.42.6 0 .6.6 0 .06-.15 1.41-.15 1.35-.21 4.05l-.18 29.22q0 2.1.3 2.97.3.87 1.02.87.9 0 2.46-.18h.3q.3 0 .45.12.15.12.15.48 0 .48-.33.93-.33.45-.63.45-4.44.6-8.4 2.16-.72.36-1.02.36zm-5.64-4.08q1.2 0 2.58-.57 1.38-.57 2.28-1.59V42.42q0-1.2-.87-2.46t-2.25-2.07q-1.38-.81-2.88-.81t-2.88 1.11q-1.38 1.11-2.28 3.3-.9 2.19-.9 5.37 0 3.42 1.11 5.73 1.11 2.31 2.79 3.39t3.3 1.08z"/></svg>