<svg viewBox="0 0 515 80" xmlns="http://www.w3.org/2000/svg"><path d="M16.46 60.3q-.54 0-.9-.27t-.36-.63q0-.36.33-.72t.99-.54q2.16-.6 2.97-1.32.81-.72.81-2.58v-27.3q0-1.98-.75-2.79t-2.97-1.29q-1.38-.3-1.38-1.26 0-.36.36-.63t.96-.27q2.28 0 4.62.18 3.12.12 4.38.12 7.38 0 12.96-.18 1.86 0 3.18-.21t1.5-.21q.48 0 .96.27t.54.87q.12 1.14.48 3.42.48 3.24.48 4.38 0 .54-.24.84-.24.3-.54.3-.78 0-1.14-.96-.18-.42-.63-1.5t-.78-1.74q-.33-.66-.75-1.08-1.86-1.86-4.32-1.86h-4.5q-1.32 0-2.28.72-.96.72-.96 1.92v11.34q0 1.44 1.5 1.44h5.28q1.44 0 2.13-.87t1.35-2.73q.36-1.14 1.2-1.14.3 0 .54.36.24.36.18.96-.24 3-.24 4.86 0 2.52.18 4.86l.06.48q0 1.08-.66 1.08-.42 0-.81-.42-.39-.42-.57-1.08-.54-1.92-1.23-2.82-.69-.9-1.83-.9h-5.58q-1.5 0-1.5 1.38v11.4q0 1.74.78 2.49.78.75 2.4.75h5.16q2.88 0 4.56-1.32 1.68-1.32 3.42-4.8.42-.72 1.14-.72.3 0 .45.33.15.33.15.81 0 1.08-.36 2.55-.36 1.47-1.08 3.69-.3.84-.48 1.5-.12.36-.51.57-.39.21-.81.21-2.46 0-4.74-.06Q26.96 60 24.74 60q-1.98 0-4.14.18-2.88.12-4.14.12zm34.26 0q-.54 0-.87-.27-.33-.27-.33-.63t.33-.72q.33-.36.99-.54 2.16-.6 2.97-1.32.81-.72.81-2.58v-27.3q0-1.98-.75-2.79t-2.91-1.29q-1.38-.24-1.38-1.26 0-.36.36-.63t.9-.27q2.04 0 4.56.24.54 0 1.59.09t2.01.09q1.2 0 3.36-.24 3.42-.3 5.16-.3 7.38 0 10.95 2.07 3.57 2.07 3.57 6.87 0 1.8-.81 3.45-.81 1.65-2.19 2.79-1.86 1.68-4.38 2.28-.24.06-.24.3t.24.3q4.2.9 6.9 3t2.7 6.72q0 3.06-.99 5.04t-2.25 3q-1.26 1.02-3.06 1.92-4.02 1.92-10.5 1.92-1.26 0-3.9-.12Q60.8 60 59.24 60q-1.98 0-4.26.18-3 .12-4.26.12zm15.54-22.44q1.5 0 2.73-.36t2.37-1.26q.72-.6 1.32-1.95.6-1.35.6-3.51 0-3.78-1.5-5.67-1.5-1.89-4.74-1.89-1.68 0-2.43.63-.75.63-.75 1.89v10.02q0 1.08.75 1.59t1.65.51zm1.26 19.08q1.8 0 3.39-1.08t2.52-2.94q.93-1.86.93-4.14 0-4.38-3-6.9-.66-.54-1.89-.93t-2.85-.39q-1.08 0-1.92.54-.84.54-.84 1.44V53.1q0 3.84 3.66 3.84zm55.5 3.9q-5.76 0-10.56-2.49-4.8-2.49-7.62-6.99-2.82-4.5-2.82-10.2 0-5.58 2.82-10.38 2.82-4.8 7.98-7.71t11.82-2.91q2.4 0 6.24.69 3.84.69 5.82 1.47 1.02.36 1.2 1.44.72 4.74.72 7.08 0 .6-.27.9-.27.3-.75.3-.66 0-1.02-.33t-.6-.93q-1.32-3-2.88-4.62-1.32-1.32-3.09-2.1-1.77-.78-4.53-.78-4.2 0-7.23 2.25-3.03 2.25-4.62 5.97-1.59 3.72-1.59 8.1 0 8.34 3.09 13.2 3.09 4.86 8.85 4.86 1.32 0 2.25-.42.93-.42 1.89-1.08.6-.48.99-1.56t.39-2.34q.12-2.04.12-4.92 0-1.56-1.32-2.1-1.14-.66-3.84-1.26-.54-.12-.99-.48-.45-.36-.45-.84 0-.36.42-.63t.84-.27q2.22 0 4.74.18 3.24.12 4.44.12 1.2 0 3.6-.12 2.64-.12 3.84-.12.42 0 .72.24t.3.66q0 .96-1.2 1.26-1.62.42-2.25 1.05-.63.63-.87 1.89-.42 2.04-.42 4.5v1.92q0 .42.78 1.2.6.72.6 1.26 0 .48-.27.84t-.87.42q-.42.06-1.68.66-2.64 1.32-5.7 2.22-3.06.9-7.02.9zm28.14 0q-2.4 0-4.2-1.65-1.8-1.65-1.8-3.93 0-2.04 1.23-3.39t3.87-2.49l5.34-2.34q1.2-.54 1.47-.96.27-.42.27-1.56l.06-3.42q.06-1.74-.6-2.7-.66-.96-1.98-.96-.72 0-1.53.33t-1.23.75q-.36.42-.36 1.26 0 .42.06.87t.06.87q0 .6-2.01 1.5t-3.33.9q-.48 0-.78-.36-.3-.36-.3-.9 0-.96.66-1.86.66-.9 2.16-2.16 2.34-1.92 5.28-3.24 2.94-1.32 4.92-1.32 3.18 0 5.1 2.07 1.92 2.07 1.86 5.49l-.3 12.12q-.06 1.38.48 2.34t1.32.96q1.14 0 1.98-.78.18-.18.36-.18.3 0 .51.21.21.21.21.45 0 .78-1.08 1.86-2.22 2.22-5.04 2.22-1.74 0-3.06-.81t-2.52-2.61h-.12q-1.98 1.86-3.57 2.64-1.59.78-3.39.78zm3.6-3.9q1.14 0 1.92-.9.42-.66.42-1.56l.18-4.32q0-.96-.6-.96-.3 0-.72.24-1.92.9-2.67 1.8t-.75 2.7q0 1.56.66 2.28.66.72 1.56.72zm17.46 3.24q-.54 0-.87-.21-.33-.21-.33-.63 0-.48.33-.75t1.05-.45q1.32-.42 1.77-.9.45-.48.45-1.38v-13.8q0-1.38-.39-2.13t-1.41-1.05q-.78-.24-.78-1.08 0-.84.72-1.02 1.92-.42 4.23-1.23 2.31-.81 3.93-1.59.9-.66 1.38-.66.54 0 .54.66l-.18 4.74q0 .54.24.54 1.56-2.16 3.6-3.69 2.04-1.53 4.02-1.53 1.98 0 2.91.75.93.75.93 2.07 0 1.44-1.11 3.03-1.11 1.59-2.37 1.59-.78 0-2.34-.84-.24-.12-.99-.45t-1.23-.33q-3.84 0-3.84 5.7v9.78q0 1.14.72 1.74.72.6 2.46 1.08 1.32.36 1.32 1.2 0 .36-.3.6t-.72.24q-1.92 0-3.84-.18-2.4-.12-3.36-.12-1.02 0-3.06.12-1.62.18-3.48.18zm30.06.66q-2.4 0-4.2-1.65-1.8-1.65-1.8-3.93 0-2.04 1.23-3.39t3.87-2.49l5.34-2.34q1.2-.54 1.47-.96.27-.42.27-1.56l.06-3.42q.06-1.74-.6-2.7-.66-.96-1.98-.96-.72 0-1.53.33t-1.23.75q-.36.42-.36 1.26 0 .42.06.87t.06.87q0 .6-2.01 1.5t-3.33.9q-.48 0-.78-.36-.3-.36-.3-.9 0-.96.66-1.86.66-.9 2.16-2.16 2.34-1.92 5.28-3.24 2.94-1.32 4.92-1.32 3.18 0 5.1 2.07 1.92 2.07 1.86 5.49l-.3 12.12q-.06 1.38.48 2.34t1.32.96q1.14 0 1.98-.78.18-.18.36-.18.3 0 .51.21.21.21.21.45 0 .78-1.08 1.86-2.22 2.22-5.04 2.22-1.74 0-3.06-.81t-2.52-2.61h-.12q-1.98 1.86-3.57 2.64-1.59.78-3.39.78zm3.6-3.9q1.14 0 1.92-.9.42-.66.42-1.56l.18-4.32q0-.96-.6-.96-.3 0-.72.24-1.92.9-2.67 1.8t-.75 2.7q0 1.56.66 2.28.66.72 1.56.72zm17.4 3.24q-.42 0-.81-.24-.39-.24-.39-.6 0-.72 1.38-1.2 1.2-.36 1.74-.78.54-.42.54-1.5V42.12q0-3.06-1.86-3.36-.66-.12-.66-1.08 0-.84.6-1.02 6.06-1.5 9-3.18.12-.06.33-.18.21-.12.39-.12.54 0 .54.66l-.12 1.32q-.06.42-.12.99-.06.57-.06 1.29 0 .6.12.72h.12q1.98-1.92 4.17-3t4.77-1.08q1.8 0 3.39 1.29t2.37 3.33h.24q3.84-4.62 9.12-4.62 2.88 0 4.77 2.34 1.89 2.34 1.89 6.24v13.2q0 1.08.54 1.5.54.42 1.74.78 1.2.42 1.2 1.2 0 .36-.3.6t-.72.24q-1.8 0-3.42-.18-1.92-.12-2.94-.12t-2.7.12q-1.32.18-3.12.18-.42 0-.72-.24t-.3-.6q0-.9 1.2-1.2.84-.24 1.23-.63t.39-1.29v-12.3q0-2.16-.93-3.51-.93-1.35-2.37-1.41-1.86 0-3.54 1.44-.84.78-.84 2.52v12.9q0 1.14.42 1.56.42.42 1.44.72 1.2.3 1.2 1.2 0 .36-.3.6t-.72.24q-1.74 0-3.18-.18-1.8-.12-2.76-.12-1.02 0-2.7.12-1.32.18-3.12.18-.36 0-.66-.24-.3-.24-.3-.6 0-.78 1.14-1.2.9-.3 1.29-.66.39-.36.39-1.26v-12.3q0-2.22-.9-3.51-.9-1.29-2.4-1.35-1.8 0-3.6 1.32-.78.6-.78 2.34v13.14q0 1.02.36 1.5t1.32.78q1.14.42 1.14 1.2 0 .36-.3.6t-.66.24q-1.74 0-3.12-.18-1.8-.12-2.76-.12-1.02 0-2.94.12-1.5.18-3.36.18zm60.18.66q-3.54 0-6.48-1.62-2.94-1.62-4.62-4.47-1.68-2.85-1.68-6.45 0-3.78 1.89-7.08 1.89-3.3 5.1-5.25 3.21-1.95 7.11-1.95 3.6 0 6.66 1.71t4.83 4.62q1.77 2.91 1.77 6.21 0 3.96-1.68 7.2t-4.95 5.16q-3.27 1.92-7.95 1.92zm1.2-2.64q2.46 0 3.72-2.04 1.26-2.1 1.26-8.16 0-4.92-1.59-8.13-1.59-3.21-4.17-3.21-1.86 0-3.12 1.26-1.02 1.14-1.41 3.3-.39 2.16-.39 5.58 0 2.88.75 5.52.75 2.64 2.04 4.26 1.29 1.62 2.91 1.62zm17.22 1.98q-.42 0-.81-.24-.39-.24-.39-.6 0-.72 1.38-1.2 1.2-.36 1.74-.78.54-.42.54-1.5V42.12q0-3-1.86-3.36-.66-.12-.66-1.08 0-.84.6-1.02 2.1-.48 4.56-1.32 2.46-.84 4.08-1.68.78-.48 1.08-.48.54 0 .54.72l-.12 1.2q-.18 2.16-.18 2.22 0 .78.12.9 2.22-2.1 4.29-3.12t4.71-1.02q3.24 0 5.31 2.34 2.07 2.34 2.07 6.24v13.2q0 1.08.54 1.5.54.42 1.74.78 1.2.42 1.2 1.2 0 .36-.3.6t-.72.24q-1.8 0-3.42-.18-1.92-.12-2.94-.12t-2.94.12q-1.5.18-3.36.18-.42 0-.72-.24t-.3-.6q0-.78 1.2-1.2 1.14-.36 1.62-.78.48-.42.48-1.5V43.92q0-2.28-1.02-3.57T317.12 39q-1.26 0-2.28.39-1.02.39-2.16 1.17-.48.42-.48 1.14v14.16q0 1.08.48 1.47.48.39 1.68.81 1.2.42 1.2 1.2 0 .36-.3.6t-.72.24q-1.8 0-3.24-.18-1.92-.12-2.88-.12-1.02 0-3.06.12-1.62.18-3.48.18zm63.3-3.72h.24q.36 0 .48.12t.12.48q0 .48-.36 1.02t-.66.54q-4.5.48-9.12 2.16-.72.36-1.02.36-.18 0-.51-.39t-.33-.63q.3-2.1.3-3.18v-.36q-1.26 1.92-3.39 3.09t-4.53 1.17q-3.24 0-5.91-1.68t-4.17-4.56q-1.5-2.88-1.5-6.3 0-4.02 1.8-7.23 1.8-3.21 5.07-5.04 3.27-1.83 7.47-1.83 1.68 0 3.72.54l.78.18q.24 0 .24-.78V27q0-2.16-.51-3.09-.51-.93-1.83-1.23-.72-.18-.72-.9 0-.78.66-.9 2.16-.48 4.53-1.23t3.93-1.41q1.2-.54 1.44-.54.66 0 .66.72-.06.24-.15 1.41t-.15 2.73l-.3 30.24q0 2.1.3 2.97.3.87 1.08.87l2.34-.18zm-3.12-38.04zm-12.6 38.34q1.02 0 2.34-.51 1.32-.51 2.1-1.35l-.06-13.26q0-1.02-.81-2.1t-2.04-1.8q-1.23-.72-2.43-.72-1.44 0-2.67 1.17t-1.98 3.39q-.75 2.22-.75 5.1 0 3.12.87 5.4.87 2.28 2.31 3.48 1.44 1.2 3.12 1.2zM383 60.3q-.54 0-.87-.27-.33-.27-.33-.63t.33-.72q.33-.36.99-.54 2.16-.6 2.97-1.32.81-.72.81-2.58v-27.3q0-1.98-.75-2.79t-2.91-1.29q-1.38-.24-1.38-1.26 0-.36.36-.63t.9-.27q2.04 0 4.56.24.54 0 1.59.09t2.01.09q1.2 0 3.36-.24 3.42-.3 5.16-.3 7.38 0 10.95 2.07 3.57 2.07 3.57 6.87 0 1.8-.81 3.45-.81 1.65-2.19 2.79-1.86 1.68-4.38 2.28-.24.06-.24.3t.24.3q4.2.9 6.9 3t2.7 6.72q0 3.06-.99 5.04t-2.25 3q-1.26 1.02-3.06 1.92-4.02 1.92-10.5 1.92-1.26 0-3.9-.12-2.76-.12-4.32-.12-1.98 0-4.26.18-3 .12-4.26.12zm15.54-22.44q1.5 0 2.73-.36t2.37-1.26q.72-.6 1.32-1.95.6-1.35.6-3.51 0-3.78-1.5-5.67-1.5-1.89-4.74-1.89-1.68 0-2.43.63-.75.63-.75 1.89v10.02q0 1.08.75 1.59t1.65.51zm1.26 19.08q1.8 0 3.39-1.08t2.52-2.94q.93-1.86.93-4.14 0-4.38-3-6.9-.66-.54-1.89-.93t-2.85-.39q-1.08 0-1.92.54-.84.54-.84 1.44V53.1q0 3.84 3.66 3.84zm32.76 3.9q-3.54 0-6.48-1.62-2.94-1.62-4.62-4.47-1.68-2.85-1.68-6.45 0-3.78 1.89-7.08 1.89-3.3 5.1-5.25 3.21-1.95 7.11-1.95 3.6 0 6.66 1.71t4.83 4.62q1.77 2.91 1.77 6.21 0 3.96-1.68 7.2t-4.95 5.16q-3.27 1.92-7.95 1.92zm1.2-2.64q2.46 0 3.72-2.04 1.26-2.1 1.26-8.16 0-4.92-1.59-8.13-1.59-3.21-4.17-3.21-1.86 0-3.12 1.26-1.02 1.14-1.41 3.3-.39 2.16-.39 5.58 0 2.88.75 5.52.75 2.64 2.04 4.26 1.29 1.62 2.91 1.62zm16.92 1.98q-.54 0-.87-.21-.33-.21-.33-.63 0-.84 1.38-1.2 1.32-.48 1.8-.84t.48-1.44V27q0-1.8-.51-2.91t-1.89-1.41q-.6-.12-.6-.9t.54-.9q1.62-.3 3.93-1.08t4.11-1.44l1.26-.48q.42-.18.78-.18.6 0 .6.72 0 .48-.15 1.74t-.21 2.4v33.18q0 1.02.45 1.41.45.39 1.05.6.6.21.78.27.72.24 1.05.51.33.27.33.69 0 .42-.33.63-.33.21-.87.21-1.26 0-3.42-.12l-3.12-.06q-.96 0-2.88.12-1.62.18-3.36.18zm46.74-3.72h.24q.36 0 .48.12t.12.48q0 .48-.36 1.02t-.66.54q-4.5.48-9.12 2.16-.72.36-1.02.36-.18 0-.51-.39t-.33-.63q.3-2.1.3-3.18v-.36q-1.26 1.92-3.39 3.09t-4.53 1.17q-3.24 0-5.91-1.68t-4.17-4.56q-1.5-2.88-1.5-6.3 0-4.02 1.8-7.23 1.8-3.21 5.07-5.04 3.27-1.83 7.47-1.83 1.68 0 3.72.54l.78.18q.24 0 .24-.78V27q0-2.16-.51-3.09-.51-.93-1.83-1.23-.72-.18-.72-.9 0-.78.66-.9 2.16-.48 4.53-1.23t3.93-1.41q1.2-.54 1.44-.54.66 0 .66.72-.06.24-.15 1.41t-.15 2.73l-.3 30.24q0 2.1.3 2.97.3.87 1.08.87l2.34-.18zm-3.12-38.04zm-12.6 38.34q1.02 0 2.34-.51 1.32-.51 2.1-1.35l-.06-13.26q0-1.02-.81-2.1t-2.04-1.8q-1.23-.72-2.43-.72-1.44 0-2.67 1.17t-1.98 3.39q-.75 2.22-.75 5.1 0 3.12.87 5.4.87 2.28 2.31 3.48 1.44 1.2 3.12 1.2z"/></svg>