<svg viewBox="0 0 732 80" xmlns="http://www.w3.org/2000/svg"><path d="M16.86 60.3q-1.26 0-1.26-.72.06-.78 1.98-1.14 2.76-.54 3.99-1.44 1.23-.9 1.83-2.88L31.68 27q.36-1.26.36-2.04 0-1.08-.75-1.53-.75-.45-2.67-.81-1.44-.24-1.44-.96 0-.42.57-.66.57-.24 1.53-.24l2.4.06q2.34.18 4.98.18h9.72q4.86 0 6.42-.33 1.56-.33 1.74-.33.3 0 .57.3.27.3.27.66 0 .36-.54 1.98-.96 3.12-1.2 5.1-.06.54-.39.84-.33.3-.63.3t-.51-.39q-.21-.39-.21-.99 0-3.06-.75-4.2-.75-1.14-3.03-1.14H41.7q-1.44 0-2.16.57-.72.57-1.2 2.13l-3.6 11.7q-.18.6-.18 1.02 0 .78 1.2.72l6.72-.12q1.44-.06 2.43-.72.99-.66 1.89-1.92.42-.54.96-1.08t.9-.54q.48 0 .48.66 0 .42-.18.9-1.14 2.34-1.68 4.08-.54 1.62-1.26 4.5-.36 1.44-.84 1.44-.42 0-.66-.54-.24-.54-.24-1.08.06-3.54-2.1-3.54l-6.6-.12q-1.08 0-1.68.36-.6.36-.9 1.38l-3 10.74q-.48 1.8-.48 2.7 0 1.2.69 1.71t2.19.51h7.8q2.52 0 4.8-1.62.96-.66 1.8-1.74.84-1.08 1.92-2.7.24-.36.51-.66.27-.3.57-.3.48 0 .48 1.26 0 .84-.93 3.12-.93 2.28-1.77 3.54-.66 1.14-1.86 1.14-4.86 0-10.56-.18-2.04-.06-4.77-.12-2.73-.06-5.85-.06-.96 0-2.13.09t-1.71.09q-1.8.18-3.84.18zm35.28 0q-1.32 0-1.32-.66 0-.84 2.04-1.2 2.34-.54 3.57-1.44 1.23-.9 1.89-2.88L66.6 27q.36-1.2.36-1.92 0-.96-.66-1.44t-2.1-.84q-.78-.18-1.08-.39-.3-.21-.3-.63 0-.36.54-.6t1.32-.24q1.8 0 3.06.18 1.56.12 2.52.12t3.36-.24q1.98-.3 3.6-.3 5.64 0 8.4 2.13 2.76 2.13 2.76 5.67 0 2.58-1.62 4.59t-4.11 3.3q-2.49 1.29-5.07 1.71-.36.06-.39.27-.03.21.21.33 3.78 1.44 5.7 3.63 1.92 2.19 1.92 6.03 0 3.72-2.25 6.39-2.25 2.67-6.18 4.08-3.93 1.41-8.85 1.41-.54 0-4.5-.18-1.68-.18-3.42-.18-.96 0-2.04.06t-1.68.12q-2.4.24-3.96.24zm18.6-22.38q1.26 0 2.4-.21t2.88-.69q2.88-1.5 4.65-3.69 1.77-2.19 1.77-5.07 0-2.4-1.77-4.08-1.77-1.68-4.71-1.68-1.2 0-1.74.27t-.78 1.05l-3.72 12.96q-.06.18-.06.42 0 .72 1.08.72zm-2.88 20.64q2.58-.06 5.1-1.65 2.52-1.59 4.11-4.17 1.59-2.58 1.59-5.46 0-3.66-2.19-5.7t-6.27-2.04q-1.44 0-1.8 1.26l-3.84 12.9q-.24.96-.24 1.56 0 1.2.66 1.86 1.32 1.44 2.88 1.44zM123 60.84q-5.1 0-9.12-1.83t-6.3-5.37q-2.28-3.54-2.28-8.52 0-.72.12-2.28.42-6.3 3.96-11.46 3.54-5.16 9.39-8.16 5.85-3 12.93-3 2.82 0 6 1.14.9.36 1.71.6.81.24 1.47.24.6 0 1.38-.48.96-.48 1.38-.48.66 0 .66.54 0 .24-.18.54-1.14 1.56-2.43 4.23-1.29 2.67-1.71 4.71-.42 1.38-1.2 1.38-1.02 0-1.02-1.44 0-.36.06-.6.12-1.08.12-1.56 0-2.46-1.2-4.08-.9-1.26-2.43-2.07-1.53-.81-3.51-.81-4.8 0-8.94 3.06t-6.81 8.31q-2.67 5.25-3.27 11.49-.06.54-.06 1.5 0 3.66 1.68 6.54t4.41 4.44q2.73 1.56 5.79 1.56 2.46 0 4.11-1.41 1.65-1.41 2.25-3.63l1.74-6.6q.12-.36.12-.9 0-1.08-1.14-1.44-.78-.24-1.74-.48t-1.26-.3q-1.62-.36-1.62-.96 0-.42.51-.69.51-.27 1.29-.27 1.44 0 3.96.24.6.06 1.77.12t2.07.06q.66 0 1.5-.06t1.26-.12q1.92-.24 3.3-.24.48 0 .78.21.3.21.3.57 0 .42-.48.78-.48.36-1.32.54-1.5.24-2.28.84-.78.6-1.38 1.86-.72 1.56-1.47 3.9t-.75 3.06q0 .54.21.96.21.42.69 1.08-.48 1.14-2.82 2.25t-5.22 1.8q-2.88.69-4.98.69zm22.32 0q-1.14 0-2.19-.9t-1.05-1.86q0-3 2.91-7.41t8.43-9.75q6.24-5.88 8.28-5.88 1.08 0 2.34 1.14l.66.78q.24 0 .36-.42 1.08-1.86 1.02-1.86.24-.6.96-.6 1.02 0 2.04.57t1.02 1.17q0 .18-.36 1.2l-6.42 17.28q-.18.54-.18.96 0 .9.9.9.96 0 2.46-1.05t2.7-2.55q.3-.3.48-.3.48 0 .48.78 0 .6-.93 1.92-.93 1.32-2.13 2.4-1.86 1.68-3.72 2.58-1.86.9-3.24.9-1.14 0-2.13-.87t-.99-1.83q0-.6.36-1.38-.24.42.69-1.74.93-2.16 1.83-4.08.24-.48.18-.78-.06-.3-.36.06-5.22 5.82-8.46 8.22-3.24 2.4-5.94 2.4zm4.44-4.68q1.2 0 3.69-2.1t5.43-5.64q2.1-2.52 3.36-4.59 1.26-2.07 1.26-3.09 0-.48-.9-1.26-1.14-.78-1.74-.78-1.02 0-2.85 1.08t-3.27 2.52q-2.64 2.64-4.68 6.15-2.04 3.51-2.04 5.61 0 .96.48 1.53.48.57 1.26.57zm27.9 4.8q-.66 0-1.44-.57-.78-.57-.78-1.29 0-.54.3-1.53t.78-2.19l5.7-14.82q.24-.72.24-1.02 0-.84-.72-.84-1.62 0-3.12 1.02-.24.18-.48.18-.6 0-.6-.66-.06-.72.63-1.53t1.77-1.53q2.16-1.44 4.5-1.44 2.64 0 2.64 2.4 0 1.5-1.08 4.14l-2.58 6.3-.06.24q0 .36.36.36.3 0 .42-.3 3.54-6.12 6.9-9.72 3.36-3.6 5.82-3.6 1.56 0 2.37.93t.81 2.37q0 1.98-1.08 3.69t-2.4 1.71q-1.08 0-1.2-2.28-.18-2.16-1.32-2.16-1.5 0-4.26 4.08-1.2 1.68-3.78 5.76t-4.26 7.08q-1.68 3-2.49 4.11-.81 1.11-1.59 1.11zm22.62-.12q-1.14 0-2.19-.9t-1.05-1.86q0-3 2.91-7.41t8.43-9.75q6.24-5.88 8.28-5.88 1.08 0 2.34 1.14l.66.78q.24 0 .36-.42 1.08-1.86 1.02-1.86.24-.6.96-.6 1.02 0 2.04.57t1.02 1.17q0 .18-.36 1.2l-6.42 17.28q-.18.54-.18.96 0 .9.9.9.96 0 2.46-1.05t2.7-2.55q.3-.3.48-.3.48 0 .48.78 0 .6-.93 1.92-.93 1.32-2.13 2.4-1.86 1.68-3.72 2.58-1.86.9-3.24.9-1.14 0-2.13-.87t-.99-1.83q0-.6.36-1.38-.24.42.69-1.74.93-2.16 1.83-4.08.24-.48.18-.78-.06-.3-.36.06-5.22 5.82-8.46 8.22-3.24 2.4-5.94 2.4zm4.44-4.68q1.2 0 3.69-2.1t5.43-5.64q2.1-2.52 3.36-4.59 1.26-2.07 1.26-3.09 0-.48-.9-1.26-1.14-.78-1.74-.78-1.02 0-2.85 1.08t-3.27 2.52q-2.64 2.64-4.68 6.15-2.04 3.51-2.04 5.61 0 .96.48 1.53.48.57 1.26.57zm28.62 4.8q-.6 0-1.26-.75t-.66-1.59q0-.6 1.08-3.42l5.82-14.7q.12-.48.12-.66 0-.48-.27-.75t-.75-.27q-1.02 0-2.1.51t-2.4 2.07q-.18.24-.48.24-.48 0-.48-.54 0-.6.48-1.65.48-1.05 1.02-1.59 1.32-1.44 2.85-2.25t3.69-.87q1.32 0 2.22.69.9.69.9 1.89 0 .78-.3 1.44l-3.42 8.58-.06.24q0 .24.24.24.3 0 .42-.3 3.96-6.24 7.23-9.51 3.27-3.27 6.33-3.27 1.68 0 2.7 1.11 1.02 1.11 1.02 2.91 0 1.26-.66 2.94l-1.68 4.74-.06.24q0 .24.3.24.24 0 .42-.24 7.38-11.94 13.38-11.94 1.62 0 2.55 1.05.93 1.05.93 2.79 0 1.68-.78 3.48l-4.8 12.06q-.36.9-.36 1.38 0 .66.66.66 1.02 0 2.85-1.5t3.09-2.76q.36-.36.54-.36.18 0 .36.18t.18.42q0 1.08-1.08 2.22-5.58 6.48-10.8 6.48-.72 0-1.5-.69t-.78-1.53q0-.18.12-.54l7.38-18q.24-.72.24-.96 0-.66-.39-1.02t-.93-.36q-.96 0-2.37 1.14-1.41 1.14-3.09 3.3-1.5 1.92-4.11 6-2.61 4.08-4.71 7.74-1.32 2.34-2.7 3.69-1.38 1.35-2.22 1.35-.6 0-1.17-.66t-.57-1.32q0-.78 1.14-3.84l5.88-15.24q.24-.54.24-1.02 0-.6-.36-.93-.36-.33-.84-.39-.96-.06-2.46 1.14t-3.36 3.54q-1.44 1.92-3.93 5.94-2.49 4.02-4.47 7.68-1.56 2.88-2.4 3.99-.84 1.11-1.62 1.11zm50.7-.12q-1.74 0-3.27-1.02t-2.46-2.7q-.93-1.68-.93-3.66 0-3.84 2.07-8.25t5.61-7.44q3.54-3.03 7.8-3.03 3.3 0 5.25 2.13 1.95 2.13 1.95 5.49 0 3.84-2.04 8.19t-5.7 7.32q-3.66 2.97-8.28 2.97zm1.02-1.98q2.1 0 4.41-3.21t3.87-7.74q1.56-4.53 1.56-7.95 0-3.24-2.4-3.24-2.04 0-4.35 3.06-2.31 3.06-3.9 7.53-1.59 4.47-1.59 8.19 0 3.36 2.4 3.36zm20.88 2.04q-.72 0-1.53-.87t-.81-1.89q0-.48.12-.72l6.6-16.32q.48-1.14.48-1.62 0-.6-.6-.6-1.14 0-2.25.48t-2.31 2.04q-.18.24-.48.24-.48 0-.54-.48-.06-.54.48-1.56t1.14-1.74q1.14-1.38 2.88-2.22 1.74-.84 3.96-.9 1.14 0 1.86.69.72.69.72 1.71 0 .36-.24 1.08l-3.66 9.42q-.06.06-.06.24 0 .24.3.24.36 0 .48-.3 3.6-6.18 7.17-9.63 3.57-3.45 6.63-3.45 1.74 0 2.76 1.23 1.02 1.23 1.02 3.09 0 1.44-.6 2.88l-5.16 12.18q-.42.84-.42 1.38 0 .66.66.66 1.02 0 3.12-1.44t2.94-2.28q.36-.36.54-.36.18 0 .36.18t.18.42q0 .66-.42 1.32-2.58 3.06-5.67 4.95-3.09 1.89-5.91 1.89-.84 0-1.59-.69-.75-.69-.75-1.53 0-.42.12-.6l2.16-4.74q3.72-8.46 5.04-11.82.54-1.32.54-2.4 0-1.2-1.02-1.32-1.86 0-5.94 5.28-1.32 1.68-4.29 6.36-2.97 4.68-5.43 9-.72 1.26-1.32 1.89-.6.63-1.26.63zm60.84-40.68L356.64 53.4q-.24 1.08-.24 1.5 0 1.08.72 1.08.96 0 2.67-1.2t2.97-2.82q.24-.24.42-.24.6 0 .48.6 0 1.2-1.86 3.27-1.86 2.07-4.26 3.66-2.4 1.59-3.84 1.59-1.14 0-2.13-.96t-.99-1.98q0-.36.24-1.5l1.56-4.98q0-.3-.18-.39-.18-.09-.3.15-4.14 5.16-7.26 7.41t-6.12 2.25q-1.92 0-3.09-1.26t-1.17-3.3q0-3.3 2.07-7.71t5.31-8.19q2.46-2.82 4.89-4.35 2.43-1.53 4.47-1.53.96 0 1.62.33.66.33 2.4 1.41l1.26.78q.12 0 .21-.15t.15-.33l3.6-11.94q.42-1.5.42-1.68 0-.72-.42-1.23t-1.5-.87q-1.14-.42-1.38-.54-.24-.12-.24-.36 0-.42.45-.66.45-.24 1.53-.48 1.98-.42 4.26-.78 2.28-.36 2.82-.36.96 0 .96.84 0 .78-.36 1.74zm-25.02 36.72q2.34 0 5.52-2.85 3.18-2.85 5.46-6.81 2.28-3.96 2.28-6.9 0-1.74-.75-2.67-.75-.93-2.07-.93-2.04 0-5.01 3.21-2.97 3.21-5.19 7.53t-2.22 7.26q0 1.2.45 1.68t1.53.48zm10.62-5.4l-.06.12.06-.12zm49.14 9.3q-.3 0-.48-.39t-.18-1.05q.06-2.22.06-6.6 0-9.9-.6-22.38 0-1.02-.48-1.02-.54 0-1.08 1.26-5.28 10.2-9.36 20.22-1.44 3.48-1.44 5.28 0 1.02.42 1.5t1.26.66q1.68.3 1.68 1.02 0 .36-.63.6t-1.35.24q-1.62 0-3.42-.12l-2.94-.06q-1.56 0-2.94.18-1.68.12-2.76.12-1.32 0-1.32-.6 0-.48.51-.75t1.53-.45q2.58-.6 4.23-2.04 1.65-1.44 3.69-5.4l11.28-22.32q.96-1.92.96-3 0-1.26-1.14-2.04t-3.72-1.2q-1.26-.18-1.68-.36-.42-.18-.42-.66 0-.96 2.4-.96l4.62.12q3.12.18 5.76.18 1.38 0 1.68 1.02.3 1.02.24 3.72l.6 23.52q0 1.02.48 1.02.36 0 1.14-.78 3.96-4.32 7.59-8.67t9.39-11.49l2.88-3.6q.54-.84 1.2-2.16l.9-1.56q.48-.84 1.26-.84h2.46q1.02 0 3.42-.24 2.28-.24 2.88-.24.78 0 1.29.24t.51.66q0 1.02-2.7 1.44-1.74.3-2.67.75-.93.45-1.5 1.44t-1.17 3.03q-2.76 9.72-5.52 23.64-.3 1.68-.3 2.64 0 1.8.75 2.73.75.93 2.25 1.23.78.12 1.11.39.33.27.27.69-.06.3-.57.54-.51.24-1.17.24-1.86 0-4.08-.3-2.52-.24-3.84-.24-1.26 0-3.42.24-1.92.3-3.84.3-1.26 0-1.26-.72 0-.78 1.98-1.26 2.1-.48 3.09-1.41.99-.93 1.65-2.91 1.86-5.76 3.24-10.8 1.38-5.04 3.06-11.88v-.12q0-.24-.18-.24t-.48.3L409.68 50.7l-6.66 8.76q-1.08 1.38-1.5 1.38zm43.74.06q-1.38 0-2.85-.99-1.47-.99-2.46-2.52t-.99-3.09q0-4.32 2.25-8.91t5.91-7.62q3.66-3.03 7.68-3.03 2.52 0 3.87 1.02t1.35 2.7q0 3.48-3.84 5.43-3.84 1.95-10.02 3.15-.36.06-.51.15-.15.09-.27.39-.9 2.94-.96 4.44 0 2.16.96 3.42.96 1.26 2.76 1.26 1.8 0 3.21-.87t2.79-2.31q.6-.66 1.02-.66.6 0 .6.6 0 .42-.12.6-4.02 6.84-10.38 6.84zm1.32-15.54q1.56-.18 3.66-.99t3.75-2.31q1.65-1.5 1.71-3.66 0-.78-.42-1.35-.42-.57-1.2-.57-1.44 0-3.27 1.53t-3.18 3.6q-1.35 2.07-1.47 3.39 0 .48.42.36zm45.66-25.14L482.1 53.4q-.24 1.08-.24 1.5 0 1.08.72 1.08.96 0 2.67-1.2t2.97-2.82q.24-.24.42-.24.6 0 .48.6 0 1.2-1.86 3.27-1.86 2.07-4.26 3.66-2.4 1.59-3.84 1.59-1.14 0-2.13-.96t-.99-1.98q0-.36.24-1.5l1.56-4.98q0-.3-.18-.39-.18-.09-.3.15-4.14 5.16-7.26 7.41t-6.12 2.25q-1.92 0-3.09-1.26t-1.17-3.3q0-3.3 2.07-7.71t5.31-8.19q2.46-2.82 4.89-4.35 2.43-1.53 4.47-1.53.96 0 1.62.33.66.33 2.4 1.41l1.26.78q.12 0 .21-.15t.15-.33l3.6-11.94q.42-1.5.42-1.68 0-.72-.42-1.23t-1.5-.87q-1.14-.42-1.38-.54-.24-.12-.24-.36 0-.42.45-.66.45-.24 1.53-.48 1.98-.42 4.26-.78 2.28-.36 2.82-.36.96 0 .96.84 0 .78-.36 1.74zm-25.02 36.72q2.34 0 5.52-2.85 3.18-2.85 5.46-6.81 2.28-3.96 2.28-6.9 0-1.74-.75-2.67-.75-.93-2.07-.93-2.04 0-5.01 3.21-2.97 3.21-5.19 7.53t-2.22 7.26q0 1.2.45 1.68t1.53.48zm10.62-5.4l-.06.12.06-.12zm18.12 9.3q-1.14 0-1.98-.78-.84-.78-.84-1.68 0-.54.24-1.08 1.86-3.9 3.45-7.86 1.59-3.96 1.89-4.68.78-2.22 1.44-3.72l.06-.24q0-.36-.36-.36-.54 0-1.89.66-1.35.66-2.43 1.44-.36.18-.6.18-.66 0-.66-.42 0-.66 1.53-2.07 1.53-1.41 3.81-2.91 2.28-1.5 4.44-2.46.36-.12.54-.12.9 0 1.62.84.72.84.48 1.44l-7.08 17.1q-.36.78-.36 1.44 0 .6.78.6 1.68 0 6.42-4.74.18-.18.24-.18.24 0 .39.15.15.15.15.39 0 1.32-2.04 3.51-2.04 2.19-4.71 3.87-2.67 1.68-4.53 1.68zm11.7-31.44q-1.02 0-1.74-.81t-.72-1.89q0-1.68 1.14-2.94t2.82-1.26q1.08 0 1.74.93.66.93.66 2.07 0 1.56-1.17 2.73t-2.73 1.17zm7.38 31.44q-1.14 0-2.13-1.2t-.99-2.34q0-.3.12-.66l6.06-14.28q.48-1.08.48-1.68 0-.6-.42-.6-.48 0-1.8.99t-2.64 2.19q-.3.3-.66.3-.48 0-.48-.36 0-.78.84-1.98 2.28-2.94 5.22-4.8 2.94-1.86 4.86-1.86.66 0 1.35.78.69.78.69 1.56 0 .18-.12.54-2.52 5.46-4.38 9.72l-2.7 6q-.6 1.32-.6 2.1t.54.78q.78 0 2.58-1.89t5.04-5.73q2.58-3 5.13-6.51t3.51-5.25q1.08-1.92 2.28-1.92.96 0 1.65.99t.39 1.77l-7.02 16.86q-.36.78-.36 1.38 0 .6.54.6.9 0 3-1.53t3.66-3.09q.12-.12.18-.12.24 0 .45.21.21.21.21.45 0 .78-1.71 2.28-1.71 1.5-3.15 2.1-1.5 1.44-3.27 2.34-1.77.9-3.45.9-.6 0-.9-.06-.48-.12-.84-.66t-.36-1.14q0-.24.12-.6 3.36-7.08 4.26-9.6.06-.18.06-.42 0-.3-.24-.3t-.54.3q-6.24 7.2-9.39 10.32-3.15 3.12-5.07 3.12zm32.4.12q-.6 0-1.26-.75t-.66-1.59q0-.6 1.08-3.42l5.82-14.7q.12-.48.12-.66 0-.48-.27-.75t-.75-.27q-1.02 0-2.1.51t-2.4 2.07q-.18.24-.48.24-.48 0-.48-.54 0-.6.48-1.65.48-1.05 1.02-1.59 1.32-1.44 2.85-2.25t3.69-.87q1.32 0 2.22.69.9.69.9 1.89 0 .78-.3 1.44l-3.42 8.58-.06.24q0 .24.24.24.3 0 .42-.3 3.96-6.24 7.23-9.51 3.27-3.27 6.33-3.27 1.68 0 2.7 1.11 1.02 1.11 1.02 2.91 0 1.26-.66 2.94l-1.68 4.74-.06.24q0 .24.3.24.24 0 .42-.24 7.38-11.94 13.38-11.94 1.62 0 2.55 1.05.93 1.05.93 2.79 0 1.68-.78 3.48l-4.8 12.06q-.36.9-.36 1.38 0 .66.66.66 1.02 0 2.85-1.5t3.09-2.76q.36-.36.54-.36.18 0 .36.18t.18.42q0 1.08-1.08 2.22-5.58 6.48-10.8 6.48-.72 0-1.5-.69t-.78-1.53q0-.18.12-.54l7.38-18q.24-.72.24-.96 0-.66-.39-1.02t-.93-.36q-.96 0-2.37 1.14-1.41 1.14-3.09 3.3-1.5 1.92-4.11 6-2.61 4.08-4.71 7.74-1.32 2.34-2.7 3.69-1.38 1.35-2.22 1.35-.6 0-1.17-.66t-.57-1.32q0-.78 1.14-3.84l5.88-15.24q.24-.54.24-1.02 0-.6-.36-.93-.36-.33-.84-.39-.96-.06-2.46 1.14t-3.36 3.54q-1.44 1.92-3.93 5.94-2.49 4.02-4.47 7.68-1.56 2.88-2.4 3.99-.84 1.11-1.62 1.11zm42.78-.72q-1.26 0-1.26-.72.06-.42.57-.69.51-.27 1.47-.45 2.4-.48 3.69-1.38 1.29-.9 1.83-2.88L604.86 27q.36-1.2.36-1.86 0-.96-.66-1.5t-2.22-.9q-1.26-.3-1.26-1.08 0-.42.51-.66.51-.24 1.17-.24 1.56 0 3.84.12 2.16.12 3.36.12l3.18-.06q2.4-.12 3.9-.12 1.2 0 1.2.6 0 .96-2.04 1.32-2.4.48-3.51 1.38-1.11.9-1.71 2.88l-8.1 26.34q-.42 1.56-.42 2.22 0 1.2.72 1.8.72.6 2.28.96 1.02.24 1.38.48.36.24.24.72 0 .72-1.62.72-2.1 0-4.02-.18-2.28-.12-3.42-.12-1.32 0-3.72.12-1.86.18-4.08.18zm26.94.6q-.9 0-1.89-.96-.99-.96-.99-1.74 0-.72.21-1.47t.57-1.59l5.7-15.72q.06-.18.06-.42 0-.6-.72-.6l-2.52-.12q-1.26-.06-1.26-.96 0-.3.78-.99t1.56-.69h2.46q.72 0 .96-.21t.66-.99l1.5-3.12q.48-.96 1.77-2.01 1.29-1.05 1.95-1.05.48 0 .69.39.21.39.21.93 0 .3-.12.9l-1.5 4.2q-.06.18-.06.42 0 .3.21.39.21.09.63.09 1.2 0 2.58.21 1.38.21 1.68.27 1.02.18 1.29.39.27.21.27.63 0 .18-.33.48t-.99.36q-3.12.24-4.5.3-1.02.06-1.47.27-.45.21-.63.75l-5.04 13.92q-.3.72-.3 1.5 0 1.02 1.14 1.02 1.62 0 5.52-3.72.42-.42.81-.45.39-.03.39.27.06.06.06.3 0 .54-.54 1.38-1.08 1.62-3.15 3.36-2.07 1.74-4.2 2.91-2.13 1.17-3.45 1.17zm17.16 0q-1.14 0-2.19-.9t-1.05-1.86q0-3 2.91-7.41t8.43-9.75q6.24-5.88 8.28-5.88 1.08 0 2.34 1.14l.66.78q.24 0 .36-.42 1.08-1.86 1.02-1.86.24-.6.96-.6 1.02 0 2.04.57t1.02 1.17q0 .18-.36 1.2l-6.42 17.28q-.18.54-.18.96 0 .9.9.9.96 0 2.46-1.05t2.7-2.55q.3-.3.48-.3.48 0 .48.78 0 .6-.93 1.92-.93 1.32-2.13 2.4-1.86 1.68-3.72 2.58-1.86.9-3.24.9-1.14 0-2.13-.87t-.99-1.83q0-.6.36-1.38-.24.42.69-1.74.93-2.16 1.83-4.08.24-.48.18-.78-.06-.3-.36.06-5.22 5.82-8.46 8.22-3.24 2.4-5.94 2.4zm4.44-4.68q1.2 0 3.69-2.1t5.43-5.64q2.1-2.52 3.36-4.59 1.26-2.07 1.26-3.09 0-.48-.9-1.26-1.14-.78-1.74-.78-1.02 0-2.85 1.08t-3.27 2.52q-2.64 2.64-4.68 6.15-2.04 3.51-2.04 5.61 0 .96.48 1.53.48.57 1.26.57zM666 60.84q-1.02 0-1.98-.93t-.96-1.95q0-.54.18-.9l10.92-31.62q.48-1.44.48-2.16 0-.72-.36-1.32-.6-.96-1.74-1.5-.96-.48-.6-.84.78-.36 1.83-.69 1.05-.33 1.35-.39 1.56-.36 3.45-.69 1.89-.33 2.43-.33.3 0 .51.3.21.3.21.72-.06.6-.54 1.98l-11.7 33.42q-.24.72-.24 1.44 0 .9.66.9.96 0 2.73-1.59t3.15-3.33q.78-1.02 1.2-1.02.3 0 .36.21t.06.63q0 1.74-2.07 4.05-2.07 2.31-4.83 3.96-2.76 1.65-4.5 1.65zm18.48 0q-1.14 0-1.98-.78-.84-.78-.84-1.68 0-.54.24-1.08 1.86-3.9 3.45-7.86 1.59-3.96 1.89-4.68.78-2.22 1.44-3.72l.06-.24q0-.36-.36-.36-.54 0-1.89.66-1.35.66-2.43 1.44-.36.18-.6.18-.66 0-.66-.42 0-.66 1.53-2.07 1.53-1.41 3.81-2.91 2.28-1.5 4.44-2.46.36-.12.54-.12.9 0 1.62.84.72.84.48 1.44l-7.08 17.1q-.36.78-.36 1.44 0 .6.78.6 1.68 0 6.42-4.74.18-.18.24-.18.24 0 .39.15.15.15.15.39 0 1.32-2.04 3.51-2.04 2.19-4.71 3.87-2.67 1.68-4.53 1.68zm11.7-31.44q-1.02 0-1.74-.81t-.72-1.89q0-1.68 1.14-2.94t2.82-1.26q1.08 0 1.74.93.66.93.66 2.07 0 1.56-1.17 2.73t-2.73 1.17zm9.24 31.5q-1.44 0-2.85-.9-1.41-.9-2.31-2.43-.9-1.53-.9-3.39 0-4.26 1.98-8.82 1.98-4.56 5.61-7.59 3.63-3.03 8.25-3.03 1.8 0 2.88.72 1.08.72 1.08 1.8t-.66 2.1q-.66 1.02-1.38 1.02-.48 0-.75-.33t-.81-1.29q-1.2-2.04-2.58-2.04-1.8 0-3.72 2.58-1.92 2.58-3.24 6.3-1.32 3.72-1.32 6.9 0 3.9 3.36 3.9 1.68 0 2.88-.66t2.52-2.04q.66-.72 1.14-.72.54 0 .54.72 0 1.14-1.47 2.88t-3.72 3.03q-2.25 1.29-4.53 1.29z"/></svg>