<svg viewBox="0 0 769 80" xmlns="http://www.w3.org/2000/svg"><path d="M16.32 60.3q-1.14 0-1.14-.72 0-.42.51-.75t1.35-.51q2.58-.6 3.69-1.44 1.11-.84 1.71-2.7L30.78 27q.36-1.2.36-1.92 0-1.02-.69-1.5t-2.43-.84q-1.44-.3-1.26-1.14.12-.84 2.28-.84l2.64.12q4.5.18 4.74.18l9.84-.06q4.38 0 6.12-.36 1.74-.36 2.04-.36.3 0 .6.33t.3.75q0 .54-.54 2.46-.96 3.3-1.08 4.92-.06.6-.36.9-.3.3-.66.3-.3 0-.54-.33-.24-.33-.3-.93-.12-3.3-.9-4.53-.78-1.23-3.06-1.23H42.3q-1.44 0-2.28.75-.84.75-1.44 2.79l-3.24 10.8q-.12.3-.12.78 0 .84 1.14.84l6.12-.12q1.44 0 2.49-.78 1.05-.78 2.01-2.22.42-.6.9-1.02.48-.42.9-.42.48 0 .48.6 0 .42-.24.9-.9 1.92-1.74 4.38-.66 2.1-1.2 4.74-.36 1.44-1.02 1.44-.42 0-.66-.48-.24-.48-.24-1.02.18-3.78-2.04-3.78l-6.3-.06q-.84 0-1.41.36t-.81 1.26l-3.06 10.62q-.36 1.44-.36 2.34 0 1.26.72 1.83.72.57 2.34.57h6.6q2.4 0 4.8-1.56 1.02-.72 1.95-1.92.93-1.2 2.07-3.06.12-.12.3-.39t.36-.39q.18-.12.42-.12.6 0 .6 1.32 0 .9-1.02 3.42t-1.98 3.96q-.6.96-1.8.96l-8.4-.12Q28.5 60 24.3 60q-1.98 0-3.96.18-2.76.12-4.02.12zm35.16 0q-1.14 0-1.14-.72 0-.42.51-.75t1.35-.51q2.34-.6 3.48-1.44 1.14-.84 1.74-2.7L65.82 27q.36-1.08.36-1.8 0-.96-.66-1.47t-2.1-.87q-.66-.18-.96-.39-.3-.21-.3-.57 0-.48.51-.78.51-.3 1.23-.3 1.68 0 3.72.24.42 0 1.29.09.87.09 1.65.09 1.08 0 3.36-.24 2.52-.24 4.26-.24 5.58 0 8.46 2.04 2.88 2.04 2.88 5.64 0 2.46-1.59 4.5t-4.08 3.39q-2.49 1.35-5.25 1.83-.36.06-.42.27-.06.21.24.33 3.72 1.32 5.73 3.57 2.01 2.25 2.01 5.97 0 5.88-5.13 8.91-5.13 3.03-13.23 3.03-2.34 0-4.44-.18-2.52-.12-3.78-.12-1.98 0-3.96.18-.72.06-1.74.12t-2.4.06zm20.28-22.26q1.98 0 4.98-.96 2.64-1.56 4.23-3.84 1.59-2.28 1.59-5.22 0-2.28-1.59-3.93-1.59-1.65-4.05-1.65-1.26 0-1.89.36-.63.36-.93 1.32l-3.66 12.6q-.06.18-.06.48 0 .84 1.38.84zm-3.6 20.4q2.52-.18 4.89-1.89 2.37-1.71 3.84-4.32 1.47-2.61 1.47-5.37 0-3.24-1.83-5.13-1.83-1.89-5.25-1.89-1.02 0-1.53.3T69 41.16l-3.84 12.66q-.24.96-.24 1.5 0 1.02.54 1.68 1.08 1.44 2.7 1.44zm55.62 2.4q-4.98 0-8.88-1.83-3.9-1.83-6.09-5.34t-2.19-8.37q0-1.62.42-4.14.84-5.82 4.47-10.62 3.63-4.8 9.39-7.59 5.76-2.79 12.6-2.79 1.8 0 3.21.33t3.03.87q.36.12 1.35.48.99.36 1.77.36.66 0 1.5-.42.9-.6 1.56-.6t.66.6q0 .36-.24.66-1.08 1.44-2.37 4.26t-1.89 4.98q-.3 1.38-1.26 1.38-1.08 0-1.08-1.5 0-.48.06-.72.12-1.08.12-1.56 0-2.52-1.2-4.26-.84-1.26-2.43-2.07-1.59-.81-3.51-.81-4.26 0-8.07 2.7-3.81 2.7-6.54 7.62t-3.87 11.28q-.3 1.68-.3 3 0 3.54 1.47 6.3t3.96 4.29q2.49 1.53 5.43 1.53 2.34 0 3.99-1.41 1.65-1.41 2.25-3.57l1.86-6.6q.12-.6.12-.84 0-1.08-1.08-1.5-.66-.24-3.3-.84-1.44-.42-1.44-1.02 0-.42.51-.72t1.23-.3q1.44 0 4.32.24 2.88.24 4.14.24.96 0 2.88-.24 2.28-.24 4.02-.24.42 0 .69.21.27.21.27.51 0 1.08-1.68 1.38-1.62.36-2.43.96t-1.41 1.86q-.78 1.5-1.56 3.75t-.78 2.91q0 .6.27 1.11.27.51.81 1.11-.54 1.2-3.18 2.37-2.64 1.17-5.94 1.89-3.3.72-5.64.72zm23.88 0q-1.2 0-2.34-.93t-1.14-1.95q0-2.88 2.7-6.96t8.64-10.26q2.76-2.82 4.98-4.44 2.22-1.62 3.3-1.62.6 0 1.41.36.81.36 1.53 1.02.54.6.6.6.12 0 .18-.06t.18-.3q.3-.6.63-1.17t.33-.69q.12-.3.45-.51.33-.21.75-.21 1.14 0 2.43.75 1.29.75 1.29 1.41 0 .54-.18.9l-6.24 16.8q-.18.42-.18.84 0 .9.84.9t2.31-1.05q1.47-1.05 2.79-2.55.24-.24.36-.24.3 0 .48.24t.18.66q0 .66-1.05 2.07-1.05 1.41-2.55 2.73-2.04 1.68-4.02 2.67-1.98.99-3.36.99-1.2 0-2.37-.96-1.17-.96-1.17-1.98 0-.6.36-1.38-.06-.18 2.34-5.46.12-.36.12-.42 0-.24-.15-.3t-.33.12q-4.86 5.52-8.16 7.95-3.3 2.43-5.94 2.43zm5.34-5.52q1.14 0 3.48-1.98t4.98-5.16q2.04-2.52 3.24-4.47 1.2-1.95 1.2-2.85 0-.48-1.08-1.38-1.2-.9-1.98-.9-.96 0-2.67 1.05t-3.21 2.49q-2.28 2.28-3.99 5.58-1.71 3.3-1.71 5.52 0 .96.45 1.53.45.57 1.29.57zm28.74 5.58q-.84 0-1.83-.69-.99-.69-.99-1.59 0-.96.72-2.82l5.88-15.3q.18-.48.18-.84 0-.78-.72-.78-1.02 0-1.68.33-.66.33-1.68.99-.36.24-.6.24-.54 0-.6-.6-.06-.96.81-2.01.87-1.05 2.31-1.89 1.14-.72 2.49-1.14 1.35-.42 2.61-.42 2.88 0 2.88 2.82 0 1.62-.96 3.9l-2.46 5.94q-.06.06-.06.24 0 .3.3.3t.48-.36q7.38-12.96 12.6-12.96 1.68 0 2.61.99.93.99.93 2.55 0 1.38-.63 2.76t-1.56 2.25q-.93.87-1.83.87-.6 0-.93-.57-.33-.57-.45-1.77-.3-2.4-1.5-2.4-.84 0-1.86 1.11t-2.52 3.45q-1.02 1.5-3.36 5.37t-4.2 7.11q-1.38 2.46-2.43 3.69-1.05 1.23-1.95 1.23zm23.28-.06q-1.2 0-2.34-.93t-1.14-1.95q0-2.88 2.7-6.96t8.64-10.26q2.76-2.82 4.98-4.44 2.22-1.62 3.3-1.62.6 0 1.41.36.81.36 1.53 1.02.54.6.6.6.12 0 .18-.06t.18-.3q.3-.6.63-1.17t.33-.69q.12-.3.45-.51.33-.21.75-.21 1.14 0 2.43.75 1.29.75 1.29 1.41 0 .54-.18.9l-6.24 16.8q-.18.42-.18.84 0 .9.84.9t2.31-1.05q1.47-1.05 2.79-2.55.24-.24.36-.24.3 0 .48.24t.18.66q0 .66-1.05 2.07-1.05 1.41-2.55 2.73-2.04 1.68-4.02 2.67-1.98.99-3.36.99-1.2 0-2.37-.96-1.17-.96-1.17-1.98 0-.6.36-1.38-.06-.18 2.34-5.46.12-.36.12-.42 0-.24-.15-.3t-.33.12q-4.86 5.52-8.16 7.95-3.3 2.43-5.94 2.43zm5.34-5.52q1.14 0 3.48-1.98t4.98-5.16q2.04-2.52 3.24-4.47 1.2-1.95 1.2-2.85 0-.48-1.08-1.38-1.2-.9-1.98-.9-.96 0-2.67 1.05t-3.21 2.49q-2.28 2.28-3.99 5.58-1.71 3.3-1.71 5.52 0 .96.45 1.53.45.57 1.29.57zm29.28 5.58q-.84 0-1.77-.84t-.87-1.98q0-.6.78-2.64l6.06-14.94q.12-.24.12-.66 0-.9-.96-.9-2.4 0-4.5 2.46-.3.3-.6.3-.18 0-.36-.18t-.18-.48q0-.6.66-1.71.66-1.11 1.26-1.71 1.62-1.56 3.21-2.37 1.59-.81 3.93-.87 1.44 0 2.34.84.9.84.9 2.22 0 .78-.36 1.68l-3.42 8.22-.06.24q0 .24.24.24.3 0 .42-.3 4.02-6.54 7.14-9.84t6.36-3.3q1.92 0 3 1.2t1.08 3.12q0 1.74-.9 3.66l-1.26 3.36-.06.24q0 .24.3.24.36 0 .48-.3 3.42-5.52 6.6-8.52 3.18-3 6.42-3 1.8 0 2.76 1.11.96 1.11.96 2.91t-.96 4.2l-4.5 10.86q-.36.9-.36 1.38 0 .66.54.66 1.32 0 5.46-3.84.6-.6.84-.6.18 0 .36.21t.18.45q-.12 1.32-1.08 2.28-2.64 3.06-5.67 4.95-3.03 1.89-6.09 1.89-.78 0-1.68-.69-.9-.69-.9-1.59 0-.18.12-.54l7.74-18q.24-.48.24-1.02t-.33-.87q-.33-.33-.75-.33-1.68-.06-4.98 4.32-2.46 3.48-9.06 14.4-1.14 1.98-2.61 3.18-1.47 1.2-2.43 1.2-.72 0-1.53-.81t-.75-1.53q0-.9.9-3.3l6.18-15.42q.24-.54.24-1.02 0-.54-.3-.84-.3-.3-.72-.3-.84-.06-2.28 1.2t-3.18 3.6q-2.28 3-8.28 13.8-1.32 2.46-2.25 3.54-.93 1.08-1.83 1.08zm51.84-.06q-1.98 0-3.75-1.05t-2.82-2.85q-1.05-1.8-1.05-4.02 0-3.9 2.13-8.25t5.88-7.32q3.75-2.97 8.43-2.97 3.66 0 5.85 2.22 2.19 2.22 2.19 5.88 0 3.84-2.1 8.16t-5.97 7.26q-3.87 2.94-8.79 2.94zm1.14-2.16q1.98 0 4.14-3.3 2.16-3.3 3.63-7.89 1.47-4.59 1.47-8.13 0-2.88-2.22-2.88-1.8 0-4.02 3.21-2.22 3.21-3.75 7.77-1.53 4.56-1.53 8.22 0 3 2.28 3zM315 60.9q-.9 0-1.98-1.02t-1.08-2.28q0-.54.18-.96l6.36-15.72q.3-.78.3-1.2 0-.66-.66-.66-1.14 0-2.31.42-1.17.42-2.37 1.92-.3.3-.6.3-.18 0-.36-.18t-.18-.48q0-.54.66-1.62t1.26-1.8q3.06-3.18 7.62-3.24 1.32 0 2.13.84.81.84.81 2.04 0 .66-.3 1.44l-3.42 8.64-.06.18q0 .3.42.3.36 0 .54-.3 7.5-13.14 13.56-13.14 2.04 0 3.09 1.26 1.05 1.26 1.05 3.24 0 1.8-.66 3.18l-4.86 11.4q-.3.72-.3 1.32 0 .66.6.66.84 0 2.73-1.32 1.89-1.32 2.67-2.1.6-.6.84-.6.18 0 .36.21t.18.45q0 .9-.6 1.68-2.64 3.12-5.97 5.1-3.33 1.98-6.27 1.98-.96 0-1.8-.75-.84-.75-.84-1.65 0-.42.12-.66l2.94-6.54q2.76-5.82 4.56-10.44.42-1.2.42-1.92 0-1.02-.9-1.02-1.02-.06-2.34 1.35-1.32 1.41-3.54 4.41-1.14 1.56-3.9 5.97t-4.86 8.07q-.9 1.56-1.68 2.4-.78.84-1.56.84zm62.76-40.38l-10.5 32.7q-.24.96-.24 1.2 0 .84.54.84.84 0 2.52-1.2 1.68-1.2 3-2.7.18-.24.36-.24.6 0 .6.78 0 1.32-2.01 3.48t-4.62 3.81q-2.61 1.65-4.23 1.65-1.26 0-2.4-1.02t-1.14-2.1q0-.48.24-1.5 1.8-4.86 1.92-4.86 0-.3-.18-.36t-.36.24q-4.14 5.04-7.26 7.32-3.12 2.28-5.94 2.28-1.98 0-3.24-1.35-1.26-1.35-1.26-3.45 0-3.3 1.98-7.59t5.28-8.13q2.46-2.94 4.95-4.5t4.59-1.56q1.14 0 1.95.39t2.61 1.53q1.02.6 1.14.6.12 0 .21-.15t.15-.33l3.24-10.5q.66-2.1.66-2.34 0-.72-.51-1.26t-1.71-1.02q-.96-.36-1.2-.51-.24-.15-.24-.39 0-.42.42-.66.42-.24 1.44-.54 1.62-.42 4.65-.93 3.03-.51 3.75-.51 1.26 0 1.26.84t-.42 2.04zM352.2 55.98q2.22 0 5.16-2.7t5.07-6.45q2.13-3.75 2.13-6.51 0-1.62-.69-2.52-.69-.9-2.01-.9-1.92 0-4.68 3.03t-4.8 7.08q-2.04 4.05-2.04 6.87 0 1.08.45 1.59t1.41.51zm9.54-4.44v.06-.06zm40.56 9.3q-4.32 0-7.14-1.2-1.86-.72-2.1-.72-.72 0-1.44.42-.18.12-.66.39-.48.27-.72.27-.36 0-.84-.48t-.48-.84q0-.18.24-.81.24-.63.42-1.05 1.98-4.5 2.4-7.74.12-.9.42-1.29t.9-.39q.66 0 .84.69.18.69.18 2.61 0 3.36 1.86 5.64t5.46 2.28q3.66 0 5.88-2.01 2.22-2.01 2.22-5.19 0-2.22-1.11-3.99t-4.53-4.77q-3.06-2.82-4.5-5.28-1.44-2.46-1.44-5.76 0-3.24 1.77-5.85 1.77-2.61 4.89-4.11 3.12-1.5 7.02-1.5 2.34 0 5.88.96.42.12.72.24t.6.18q1.32.48 2.04.48.84 0 1.38-.3.84-.54 1.44-.54.36 0 .54.21.18.21.18.51 0 .36-.12.54-.84 1.14-1.86 3.51t-1.62 5.43q-.36 1.62-1.2 1.62-.54 0-.75-.51-.21-.51-.21-1.65 0-3.96-1.92-6.27-1.92-2.31-5.16-2.31-2.04 0-3.63.99-1.59.99-2.43 2.55-.84 1.56-.84 3.24 0 2.28 1.17 4.08 1.17 1.8 4.59 4.74 3.36 2.88 4.77 5.31 1.41 2.43 1.41 5.31 0 3.24-1.74 6.09-1.74 2.85-5.04 4.56-3.3 1.71-7.74 1.71zm25.56.06q-1.5 0-3.15-.99t-2.76-2.61q-1.11-1.62-1.11-3.36 0-4.56 2.31-9.15 2.31-4.59 6.03-7.5t7.68-2.91q2.88 0 4.38 1.14t1.5 2.94q0 3.54-3.93 5.49-3.93 1.95-10.05 3.21-.54.06-.72.54-.6 1.98-.66 3.24-.06 2.22 1.02 3.57 1.08 1.35 3.06 1.35 1.68 0 3.12-.84 1.44-.84 2.82-2.34.6-.66 1.08-.66.54 0 .54.6 0 .54-.18.72-1.86 3.42-4.65 5.49-2.79 2.07-6.33 2.07zm1.32-15.6q3.18-.66 5.82-2.34 2.64-1.68 2.64-4.8 0-.72-.45-1.29-.45-.57-1.17-.57-1.44 0-3.06 1.41t-2.82 3.45q-1.2 2.04-1.38 3.78v.12q0 .24.42.24zm18.66 15.6q-.84 0-1.77-.84t-.87-1.98q0-.6.78-2.64l6.06-14.94q.12-.24.12-.66 0-.9-.96-.9-2.4 0-4.5 2.46-.3.3-.6.3-.18 0-.36-.18t-.18-.48q0-.6.66-1.71.66-1.11 1.26-1.71 1.62-1.56 3.21-2.37 1.59-.81 3.93-.87 1.44 0 2.34.84.9.84.9 2.22 0 .78-.36 1.68l-3.42 8.22-.06.24q0 .24.24.24.3 0 .42-.3 4.02-6.54 7.14-9.84t6.36-3.3q1.92 0 3 1.2t1.08 3.12q0 1.74-.9 3.66l-1.26 3.36-.06.24q0 .24.3.24.36 0 .48-.3 3.42-5.52 6.6-8.52 3.18-3 6.42-3 1.8 0 2.76 1.11.96 1.11.96 2.91t-.96 4.2l-4.5 10.86q-.36.9-.36 1.38 0 .66.54.66 1.32 0 5.46-3.84.6-.6.84-.6.18 0 .36.21t.18.45q-.12 1.32-1.08 2.28-2.64 3.06-5.67 4.95-3.03 1.89-6.09 1.89-.78 0-1.68-.69-.9-.69-.9-1.59 0-.18.12-.54l7.74-18q.24-.48.24-1.02t-.33-.87q-.33-.33-.75-.33-1.68-.06-4.98 4.32-2.46 3.48-9.06 14.4-1.14 1.98-2.61 3.18-1.47 1.2-2.43 1.2-.72 0-1.53-.81t-.75-1.53q0-.9.9-3.3l6.18-15.42q.24-.54.24-1.02 0-.54-.3-.84-.3-.3-.72-.3-.84-.06-2.28 1.2t-3.18 3.6q-2.28 3-8.28 13.8-1.32 2.46-2.25 3.54-.93 1.08-1.83 1.08zm48.24-.06q-1.26 0-2.22-.9-.96-.9-.96-1.92 0-.72.24-1.2 1.68-3.72 5.04-12l1.44-3.54q.12-.48-.24-.48-1.08 0-4.14 1.98-.42.24-.66.24-.72 0-.72-.42 0-.72 1.77-2.37 1.77-1.65 4.23-3.3 2.46-1.65 4.38-2.43.36-.12.54-.12 1.02 0 1.92.93.9.93.6 1.65l-6.9 16.86q-.24.42-.24 1.2 0 .24.18.39.18.15.36.15.84 0 2.76-1.44t3.54-3.06q.18-.18.24-.18.24 0 .42.21t.18.45q0 1.38-2.1 3.63t-4.89 3.96q-2.79 1.71-4.77 1.71zm11.46-31.26q-1.2 0-2.01-.9-.81-.9-.81-2.1 0-1.86 1.29-3.27t3.21-1.41q1.2 0 1.95.99t.75 2.31q0 1.74-1.32 3.06t-3.06 1.32zm1.98 30.72q-1.14 0-1.14-.72 0-.42.51-.75t1.35-.51q2.34-.6 3.48-1.44 1.14-.84 1.74-2.7l8.4-27.18q.36-1.08.36-1.8 0-.96-.66-1.47t-2.1-.87q-.66-.18-.96-.39-.3-.21-.3-.57 0-.48.51-.78.51-.3 1.23-.3 1.68 0 3.72.24.42 0 1.29.09.87.09 1.65.09 1.08 0 3.36-.24 2.52-.24 4.26-.24 5.58 0 8.46 2.04 2.88 2.04 2.88 5.64 0 2.46-1.59 4.5t-4.08 3.39q-2.49 1.35-5.25 1.83-.36.06-.42.27-.06.21.24.33 3.72 1.32 5.73 3.57 2.01 2.25 2.01 5.97 0 5.88-5.13 8.91-5.13 3.03-13.23 3.03-2.34 0-4.44-.18-2.52-.12-3.78-.12-1.98 0-3.96.18-.72.06-1.74.12t-2.4.06zm20.28-22.26q1.98 0 4.98-.96 2.64-1.56 4.23-3.84 1.59-2.28 1.59-5.22 0-2.28-1.59-3.93-1.59-1.65-4.05-1.65-1.26 0-1.89.36-.63.36-.93 1.32l-3.66 12.6q-.06.18-.06.48 0 .84 1.38.84zm-3.6 20.4q2.52-.18 4.89-1.89 2.37-1.71 3.84-4.32 1.47-2.61 1.47-5.37 0-3.24-1.83-5.13-1.83-1.89-5.25-1.89-1.02 0-1.53.3t-.75 1.02l-3.84 12.66q-.24.96-.24 1.5 0 1.02.54 1.68 1.08 1.44 2.7 1.44zm29.16 2.4q-1.98 0-3.75-1.05t-2.82-2.85q-1.05-1.8-1.05-4.02 0-3.9 2.13-8.25t5.88-7.32q3.75-2.97 8.43-2.97 3.66 0 5.85 2.22 2.19 2.22 2.19 5.88 0 3.84-2.1 8.16t-5.97 7.26q-3.87 2.94-8.79 2.94zm1.14-2.16q1.98 0 4.14-3.3 2.16-3.3 3.63-7.89 1.47-4.59 1.47-8.13 0-2.88-2.22-2.88-1.8 0-4.02 3.21-2.22 3.21-3.75 7.77-1.53 4.56-1.53 8.22 0 3 2.28 3zm20.34 2.16q-1.14 0-2.13-1.02t-.99-2.1q0-.48.18-1.08l10.62-30.78q.42-1.26.42-2.16 0-1.08-.78-1.62-.6-.36-1.56-1.32-.24-.24-.24-.54 0-.3.3-.42 1.74-.54 3.3-.84l2.4-.66q1.08-.24 2.31-.45 1.23-.21 1.95-.27.3 0 .54.36.24.36.18.72-.24 1.14-.66 2.28L581.34 53.4q-.18.6-.18 1.14 0 .84.66.84.84 0 2.43-1.35 1.59-1.35 3.03-3.03.48-.72.84-.72.54 0 .54.9 0 1.62-2.16 3.93t-5.01 4.02q-2.85 1.71-4.65 1.71zm48.54-40.32l-10.5 32.7q-.24.96-.24 1.2 0 .84.54.84.84 0 2.52-1.2 1.68-1.2 3-2.7.18-.24.36-.24.6 0 .6.78 0 1.32-2.01 3.48t-4.62 3.81q-2.61 1.65-4.23 1.65-1.26 0-2.4-1.02t-1.14-2.1q0-.48.24-1.5 1.8-4.86 1.92-4.86 0-.3-.18-.36t-.36.24q-4.14 5.04-7.26 7.32-3.12 2.28-5.94 2.28-1.98 0-3.24-1.35-1.26-1.35-1.26-3.45 0-3.3 1.98-7.59t5.28-8.13q2.46-2.94 4.95-4.5t4.59-1.56q1.14 0 1.95.39t2.61 1.53q1.02.6 1.14.6.12 0 .21-.15t.15-.33l3.24-10.5q.66-2.1.66-2.34 0-.72-.51-1.26t-1.71-1.02q-.96-.36-1.2-.51-.24-.15-.24-.39 0-.42.42-.66.42-.24 1.44-.54 1.62-.42 4.65-.93 3.03-.51 3.75-.51 1.26 0 1.26.84t-.42 2.04zm-25.56 35.46q2.22 0 5.16-2.7t5.07-6.45q2.13-3.75 2.13-6.51 0-1.62-.69-2.52-.69-.9-2.01-.9-1.92 0-4.68 3.03t-4.8 7.08q-2.04 4.05-2.04 6.87 0 1.08.45 1.59t1.41.51zm9.54-4.44v.06-.06zm13.68 8.7q-.54 0-.84-.21-.3-.21-.24-.57.18-.9 1.8-1.26 2.46-.48 3.66-1.32 1.2-.84 1.74-2.7l8.4-27.24q.3-1.2.3-1.74 0-.96-.66-1.47t-2.28-.93q-1.32-.24-1.02-1.26.06-.36.51-.57.45-.21 1.05-.21 1.5 0 4.14.12 2.4.12 3.66.12 1.02 0 3.66-.12 2.76-.12 4.26-.12 1.2 0 1.02.84-.06.48-.51.75t-1.35.45q-2.52.66-3.57 1.47-1.05.81-1.65 2.73l-7.86 25.68q-.6 2.1-.6 2.88 0 1.14.63 1.65t2.07.87q1.14.24 1.53.54.39.3.27.78-.18.78-1.5.78-1.44 0-4.44-.12-2.76-.12-3.96-.12-1.26 0-3.9.12-2.16.18-4.32.18zm28.32.6q-1.14 0-2.22-1.08-1.08-1.08-1.08-2.04 0-.54.21-1.23t.51-1.59l5.64-15.42q.18-.36.18-.66 0-.36-.24-.51-.24-.15-.54-.15l-2.76-.12q-.84-.06-1.08-.36-.24-.3-.24-.72 0-.12.39-.6t.99-.87q.6-.39 1.2-.39h2.64q.78 0 1.08-.21.3-.21.78-1.11l1.56-3.24q.6-1.14 1.98-2.28t2.22-1.14q.54 0 .84.42.3.42.3 1.08 0 .48-.18.96l-1.44 4.44-.12.54q0 .6.96.6 1.38 0 4.02.36 1.08.18 1.38.42.3.24.3.72 0 .24-.36.57-.36.33-1.08.39-2.58.24-4.08.3-1.02.06-1.53.3t-.75.84L656.1 52.2q-.36 1.08-.36 1.68 0 1.02 1.02 1.02 1.56 0 5.82-4.08.24-.3.51-.33.27-.03.33.15.18.18.18.54 0 .48-.24.9-.72 1.56-2.91 3.66-2.19 2.1-4.74 3.6-2.55 1.5-4.35 1.5zm17.76 0q-1.2 0-2.34-.93t-1.14-1.95q0-2.88 2.7-6.96t8.64-10.26q2.76-2.82 4.98-4.44 2.22-1.62 3.3-1.62.6 0 1.41.36.81.36 1.53 1.02.54.6.6.6.12 0 .18-.06t.18-.3q.3-.6.63-1.17t.33-.69q.12-.3.45-.51.33-.21.75-.21 1.14 0 2.43.75 1.29.75 1.29 1.41 0 .54-.18.9l-6.24 16.8q-.18.42-.18.84 0 .9.84.9t2.31-1.05q1.47-1.05 2.79-2.55.24-.24.36-.24.3 0 .48.24t.18.66q0 .66-1.05 2.07-1.05 1.41-2.55 2.73-2.04 1.68-4.02 2.67-1.98.99-3.36.99-1.2 0-2.37-.96-1.17-.96-1.17-1.98 0-.6.36-1.38-.06-.18 2.34-5.46.12-.36.12-.42 0-.24-.15-.3t-.33.12q-4.86 5.52-8.16 7.95-3.3 2.43-5.94 2.43zm5.34-5.52q1.14 0 3.48-1.98t4.98-5.16q2.04-2.52 3.24-4.47 1.2-1.95 1.2-2.85 0-.48-1.08-1.38-1.2-.9-1.98-.9-.96 0-2.67 1.05t-3.21 2.49q-2.28 2.28-3.99 5.58-1.71 3.3-1.71 5.52 0 .96.45 1.53.45.57 1.29.57zm27.66 5.52q-1.14 0-2.13-1.02t-.99-2.1q0-.48.18-1.08l10.62-30.78q.42-1.26.42-2.16 0-1.08-.78-1.62-.6-.36-1.56-1.32-.24-.24-.24-.54 0-.3.3-.42 1.74-.54 3.3-.84l2.4-.66q1.08-.24 2.31-.45 1.23-.21 1.95-.27.3 0 .54.36.24.36.18.72-.24 1.14-.66 2.28L706.62 53.4q-.18.6-.18 1.14 0 .84.66.84.84 0 2.43-1.35 1.59-1.35 3.03-3.03.48-.72.84-.72.54 0 .54.9 0 1.62-2.16 3.93t-5.01 4.02q-2.85 1.71-4.65 1.71zm19.08 0q-1.26 0-2.22-.9-.96-.9-.96-1.92 0-.72.24-1.2 1.68-3.72 5.04-12l1.44-3.54q.12-.48-.24-.48-1.08 0-4.14 1.98-.42.24-.66.24-.72 0-.72-.42 0-.72 1.77-2.37 1.77-1.65 4.23-3.3 2.46-1.65 4.38-2.43.36-.12.54-.12 1.02 0 1.92.93.9.93.6 1.65l-6.9 16.86q-.24.42-.24 1.2 0 .24.18.39.18.15.36.15.84 0 2.76-1.44t3.54-3.06q.18-.18.24-.18.24 0 .42.21t.18.45q0 1.38-2.1 3.63t-4.89 3.96q-2.79 1.71-4.77 1.71zm11.46-31.26q-1.2 0-2.01-.9-.81-.9-.81-2.1 0-1.86 1.29-3.27t3.21-1.41q1.2 0 1.95.99t.75 2.31q0 1.74-1.32 3.06t-3.06 1.32zm10.74 31.26q-1.8 0-3.42-.99-1.62-.99-2.64-2.7-1.02-1.71-1.02-3.69 0-4.5 2.1-8.94 2.1-4.44 5.76-7.29 3.66-2.85 8.22-2.85 2.04 0 3.3.87 1.26.87 1.26 2.19 0 1.14-.72 2.19t-1.5 1.05q-.48 0-.81-.36-.33-.36-.93-1.32-1.2-2.34-2.7-2.34-1.74 0-3.51 2.31-1.77 2.31-2.94 5.73-1.17 3.42-1.17 6.54 0 2.04 1.02 3.06t2.76 1.02q3 0 5.4-2.7.66-.78 1.14-.78.24 0 .39.21.15.21.15.51 0 1.56-1.56 3.54t-3.93 3.36q-2.37 1.38-4.65 1.38z"/></svg>