<svg viewBox="0 0 556 80" xmlns="http://www.w3.org/2000/svg"><path d="M16.96 52.3q-1.74 0-1.74-.66 0-.42.48-.66.48-.24 1.5-.42 2.34-.42 3.39-1.41 1.05-.99 1.05-3.09v-27q0-2.1-.87-3.03-.87-.93-3.15-1.35-1.98-.36-1.98-1.2 0-.66 1.74-.66 2.28 0 5.52.12L28 13l8.22-.06 5.1-.12q1.02 0 1.08.54.12.48.51 2.64t.39 3.54q0 .9-.84.9-.3 0-.42-.12t-.24-.48q-.12-.3-.48-1.56t-.84-1.74q-1.44-1.62-4.02-1.62H28.6q-.6 0-1.38.57-.78.57-.78 1.35v12.72q0 .54.33.93t.75.39h5.94q1.68 0 2.34-.6.66-.6 1.14-2.34.36-1.32 1.08-1.32.24 0 .51.27t.27.69l-.06 1.56-.12 2.64.06 3.18.06 1.44q0 1.02-.54 1.02-.9 0-1.38-1.92-.36-1.44-.99-2.07-.63-.63-1.77-.63h-5.58q-1.14 0-1.59.3-.45.3-.45 1.26v11.52q0 2.22.93 3.12.93.9 3.03.9h4.44q1.98 0 3.27-.24t2.19-.78q.9-.6 1.65-1.65.75-1.05 1.77-2.97.42-.78.84-.78.78 0 .78.84 0 .78-.66 3.27t-1.2 3.69q-.06.12-.18.42t-.27.45q-.15.15-.39.15-1.2 0-10.56-.18-4.14-.18-8.22-.18-1.68 0-3.12.18-3.06.18-3.78.18zm32.76 0q-1.74 0-1.74-.66 0-.42.48-.66.48-.24 1.5-.42 2.4-.42 3.54-1.44 1.14-1.02 1.14-3.06v-27q0-2.16-.93-3.18t-3.09-1.2q-.96-.06-1.47-.42t-.51-.78q0-.66 1.74-.66 2.7 0 3.6.06h2.64q.9 0 2.58-.12 3.06-.18 4.08-.18 7.2 0 10.56 2.07 3.36 2.07 3.36 6.87 0 1.86-.63 3.42-.63 1.56-1.41 2.34-.96.96-1.77 1.47t-2.25 1.11q-.24.12-.24.33 0 .21.24.27 2.52.84 4.23 1.8 1.71.96 3 2.91 1.29 1.95 1.29 5.19 0 3.06-.96 5.01-.96 1.95-2.25 2.94t-3.03 1.89q-4.08 2.04-10.2 2.04l-1.8-.06Q59.8 52 57.52 52q-1.5 0-3.66.12-1.68.18-4.14.18zm12.36-22.56q4.14 0 7.26-1.74.96-.54 1.83-1.98.87-1.44.87-3.72 0-3.24-1.89-5.58t-6.87-2.34q-2.34 0-3.15.63t-.81 2.07v10.44q0 2.22 2.76 2.22zm1.98 20.04q2.64 0 4.92-1.2t3.66-3.3q1.38-2.1 1.38-4.62 0-3.06-1.35-4.92-1.35-1.86-3.09-2.82-2.7-1.5-6.84-1.5-1.74 0-2.58.69-.84.69-.84 1.47v11.94q0 2.4 1.14 3.33 1.14.93 3.6.93zm53.52 3.06q-5.52 0-10.32-2.58-4.8-2.58-7.65-7.05-2.85-4.47-2.85-9.87 0-5.82 3-10.65t8.1-7.65q5.1-2.82 10.98-2.82 2.1 0 6.45.69t5.55 1.29q.3.12.39.27.09.15.15.45.6 4.68.6 6.36 0 .48-.27.84t-.63.36q-.54 0-.84-.42-.3-.42-.54-1.2-.66-1.8-1.86-3.18-.84-1.08-3.33-2.13-2.49-1.05-6.21-1.05-4.5 0-8.07 2.49-3.57 2.49-5.55 6.66t-1.98 8.91q0 5.46 2.22 9.57t5.82 6.3q3.6 2.19 7.68 2.19 3 0 4.74-.69 1.74-.69 2.58-1.53.78-.78 1.29-1.98t.51-2.64q0-1.08.06-1.68l.06-1.8q0-1.44-.3-1.8-.66-.9-2.64-1.38-1.98-.48-3.24-.48-.3 0-.75-.3t-.45-.72q0-.42.45-.72t.75-.3q1.38 0 3.54.12 2.28.12 4.02.12 1.08 0 2.64-.12t2.7-.12q.36 0 .81.24.45.24.45.72 0 .36-.48.69-.48.33-.78.39-1.26.36-1.8 1.02t-.72 1.92q-.3 2.16-.3 4.5v1.62q0 .3.15.57.15.27.21.39.12.18.45.51t.33.51q0 1.02-.84 1.14-.42.06-1.62.72-2.94 1.38-5.94 2.34-3 .96-6.72.96zm27.24 0q-1.02 0-2.16-.81-1.14-.81-1.89-2.04t-.75-2.31q0-1.86.99-2.94.99-1.08 3.27-2.04l6.12-2.52q1.14-.48 1.38-.84t.3-1.56l.12-3.84q.06-1.62-.9-2.73-.96-1.11-2.64-1.11-.9 0-1.8.3t-1.5.78q-.6.42-.6 1.74l.06 1.08q0 .48-1.53 1.29t-2.43.81q-.3 0-.48-.15t-.18-.39q0-.96.63-2.07.63-1.11 1.77-2.07 2.04-1.86 4.59-3.06t4.35-1.2q2.16 0 3.57 1.53 1.41 1.53 1.35 3.81l-.3 14.4q-.06 1.26.54 2.04.6.78 1.62.78 1.5 0 2.22-.66.3-.3.48-.3.3 0 .48.18t.18.48q0 .24-.18.63t-.48.69q-.96.96-2.07 1.53-1.11.57-2.07.57-2.76 0-4.38-3.12h-.18q-1.98 1.62-3.78 2.37-1.8.75-3.72.75zm2.82-2.88q2.1 0 3.54-1.44.36-.36.54-.9.18-.54.24-1.56l.12-2.94v-.36q0-.48-.12-.69-.12-.21-.42-.21-.36 0-1.2.3-3 1.08-4.32 2.28-1.32 1.2-1.32 2.34 0 1.5.87 2.34.87.84 2.07.84zm17.04 2.22q-1.2 0-1.2-.66 0-.42.3-.57.3-.15 1.08-.39 2.28-.54 2.28-2.28v-12.9q0-1.8-.54-2.91t-1.92-1.41q-.24-.06-.42-.3t-.18-.48q0-.24.18-.45.18-.21.36-.27 2.4-.78 5.94-2.94.66-.42.9-.42.3 0 .3.42 0 1.62-.18 4.5 0 .12.12.12 1.5-1.8 3.36-2.94 1.86-1.14 3.54-1.14 1.26 0 2.07.54.81.54.81 1.38 0 .96-.75 2.04t-1.59 1.08q-.6 0-1.68-.54-.18-.06-.81-.3-.63-.24-1.11-.24-1.74 0-2.94 1.14t-1.2 3.9v12.12q0 .78.78 1.29t2.4.99q.72.24 1.05.42.33.18.33.54 0 .66-1.2.66-1.62 0-2.82-.18-1.44-.12-2.4-.12t-2.28.12q-.96.18-2.58.18zm24.12.66q-1.02 0-2.16-.81-1.14-.81-1.89-2.04t-.75-2.31q0-1.86.99-2.94.99-1.08 3.27-2.04l6.12-2.52q1.14-.48 1.38-.84t.3-1.56l.12-3.84q.06-1.62-.9-2.73-.96-1.11-2.64-1.11-.9 0-1.8.3t-1.5.78q-.6.42-.6 1.74l.06 1.08q0 .48-1.53 1.29t-2.43.81q-.3 0-.48-.15t-.18-.39q0-.96.63-2.07.63-1.11 1.77-2.07 2.04-1.86 4.59-3.06t4.35-1.2q2.16 0 3.57 1.53 1.41 1.53 1.35 3.81l-.3 14.4q-.06 1.26.54 2.04.6.78 1.62.78 1.5 0 2.22-.66.3-.3.48-.3.3 0 .48.18t.18.48q0 .24-.18.63t-.48.69q-.96.96-2.07 1.53-1.11.57-2.07.57-2.76 0-4.38-3.12h-.18q-1.98 1.62-3.78 2.37-1.8.75-3.72.75zm2.82-2.88q2.1 0 3.54-1.44.36-.36.54-.9.18-.54.24-1.56l.12-2.94v-.36q0-.48-.12-.69-.12-.21-.42-.21-.36 0-1.2.3-3 1.08-4.32 2.28-1.32 1.2-1.32 2.34 0 1.5.87 2.34.87.84 2.07.84zm16.74 2.22q-1.2 0-1.2-.66 0-.36.33-.54.33-.18 1.05-.42 1.32-.42 1.95-.81.63-.39.63-1.47v-12.9q0-1.92-.45-3t-1.83-1.32q-.54-.12-.54-.78 0-.6.48-.72 1.62-.42 2.58-.87t2.22-1.35l1.32-.9q.06 0 .21-.12t.33-.12q.12 0 .24.12t.12.3l-.12 1.26q-.06.48-.12 1.17t-.06 1.41q0 .6.12.72h.12q4.14-4.02 9.36-4.02 2.22 0 3.66.96t2.34 3.18h.18q4.68-4.14 9.78-4.14 2.76 0 4.38 2.49t1.62 5.85v12.78q0 1.08.63 1.47.63.39 1.95.81.72.24 1.05.42.33.18.33.54 0 .36-.27.51-.27.15-.93.15-1.62 0-2.52-.18-1.2-.12-2.22-.12-1.08 0-2.28.12-1.08.18-2.7.18-1.2 0-1.2-.66 0-.42.33-.6t1.05-.36q1.26-.3 1.92-.75.66-.45.66-1.53v-12.6q0-2.22-1.44-3.96-1.44-1.74-3.36-1.74-3.18 0-5.22 1.62-1.68 1.32-1.68 4.32v12.36q0 1.08.72 1.53.72.45 1.98.75 1.38.3 1.38.96 0 .66-1.2.66-1.62 0-2.64-.18-1.32-.12-2.28-.12-1.08 0-2.28.12-1.08.18-2.7.18-1.2 0-1.2-.66 0-.36.27-.51.27-.15.6-.27.33-.12.51-.18 1.38-.42 2.01-.81.63-.39.63-1.47v-12.6q0-2.22-1.44-3.96-1.44-1.74-3.36-1.74-3.18 0-5.22 1.62-1.62 1.2-1.62 4.32v12.36q0 1.08.63 1.47.63.39 1.95.81.18.06.57.18.39.12.6.3.21.18.21.48 0 .66-1.2.66-1.56 0-2.58-.18-1.32-.12-2.28-.12-.96 0-2.28.12-.96.18-2.58.18zm58.08.66q-3.3 0-6.03-1.56-2.73-1.56-4.32-4.32-1.59-2.76-1.59-6.18 0-3.3 1.77-6.48 1.77-3.18 4.8-5.16t6.57-1.98q3.42 0 6.24 1.65 2.82 1.65 4.47 4.44 1.65 2.79 1.65 5.97 0 3.6-1.56 6.72-1.56 3.12-4.62 5.01-3.06 1.89-7.38 1.89zm1.26-1.8q4.5 0 6.18-3.3 1.2-2.34 1.2-7.08 0-2.88-1.08-5.58t-3-4.38q-1.92-1.68-4.38-1.68-1.74 0-3 .54t-2.28 1.86q-1.08 1.38-1.5 3.39-.42 2.01-.42 4.59 0 3 1.08 5.67t2.97 4.32q1.89 1.65 4.23 1.65zm17.04 1.14q-1.2 0-1.2-.66 0-.42.3-.57.3-.15 1.08-.39 1.26-.3 1.92-.75.66-.45.66-1.53v-12.9q0-1.92-.42-2.94t-1.8-1.38q-.6-.18-.6-.78 0-.66.54-.72 1.86-.48 3.15-1.2 1.29-.72 2.85-1.86.42-.3.66-.3.3 0 .3.42l-.12 1.26q-.06.48-.12 1.17t-.06 1.41q0 .6.12.72 2.16-2.04 4.5-3.03 2.34-.99 5.16-.99 2.88 0 4.83 2.4 1.95 2.4 1.95 5.94v12.78q0 1.08.63 1.47.63.39 1.95.81.72.24 1.05.45.33.21.33.63 0 .54-1.2.54-1.62 0-2.58-.18-1.2-.12-2.22-.12-.96 0-2.28.12-.96.18-2.64.18-1.2 0-1.2-.54 0-.42.33-.63.33-.21 1.05-.45 1.32-.42 1.95-.81.63-.39.63-1.47v-12.6q0-2.58-1.47-4.08t-3.93-1.56q-3.72 0-6.66 2.4-.48.48-.48 1.38v14.46q0 1.08.66 1.53.66.45 1.92.75.72.18 1.05.39.33.21.33.57 0 .66-1.2.66-1.56 0-2.58-.18-1.32-.12-2.28-.12-.96 0-2.28.12-.96.18-2.58.18zm50.46.96q-.12 0-.39-.24t-.27-.36l.12-1.56q.18-1.08.18-2.04v-.36q-1.08 1.68-3.12 2.97-2.04 1.29-4.74 1.29-3.3 0-5.82-1.74-2.52-1.74-3.9-4.59-1.38-2.85-1.38-5.91 0-3.54 1.65-6.63t4.71-4.95q3.06-1.86 7.14-1.86 1.14 0 2.34.21t1.98.45q.54.18.78.18.18 0 .3-.36t.12-1.08v-8.52q0-2.28-.72-3.18-.72-.9-2.28-1.2-.54-.12-.54-.78 0-.54.48-.72 3.18-.78 4.74-1.47t1.74-.75q.48-.18.78-.18.36 0 .42.36 0 .36-.21 2.28t-.21 5.88V45.4q0 2.1.3 3 .3.9.96.9 1.02 0 2.58-.18h.3q.78 0 .78.54 0 .42-.27.75t-.57.33q-3.24.42-7.02 2.04-.66.36-.96.36zm-6.06-3.42q1.56 0 3.06-.81t2.64-2.13l.06-10.8q0-1.62-.93-3.18t-2.64-2.55q-1.71-.99-3.81-.99-1.62 0-3.3.9-1.68.9-2.88 3.12t-1.2 5.94q0 4.14 1.56 6.48 1.56 2.34 3.6 3.18 2.04.84 3.84.84zm65.22 3.54q-2.76 0-4.77-.72t-3.51-2.52q-2.76-3.42-4.56-5.85-1.8-2.43-4.56-6.93-.9-1.5-2.58-2.34-1.98-.96-4.74-1.26h-.12q-.78 0-.78 1.2V45.4q0 4.44 4.02 5.16 1.02.18 1.5.42t.48.66q0 .66-1.74.66-1.92 0-3.48-.24-1.08-.18-2.4-.18-1.08 0-2.19.09-1.11.09-1.59.09-2.4.24-4.02.24-1.74 0-1.74-.66 0-.42.48-.66.48-.24 1.5-.42 2.34-.42 3.36-1.41t1.02-3.15V20.44q0-2.52-.21-3.57-.21-1.05-.96-1.53t-2.49-.66q-.96-.06-1.47-.42t-.51-.78q0-.66 1.74-.66 2.58 0 3.36.06h2.52q.9 0 2.7-.12 3.24-.18 4.2-.18 6.6 0 10.05 2.49 3.45 2.49 3.45 7.35 0 6.48-7.08 10.08-.18.06-.18.3 0 .18.18.48 3.78 5.7 6.09 8.76 2.31 3.06 6.09 6.48 1.44 1.26 2.94 1.62 1.5.36 3.96.36.9 0 .9.66 0 1.14-1.59 1.62-1.59.48-3.27.48zm-22.44-21q2.64 0 4.71-1.23t3.18-3.27q1.11-2.04 1.11-4.38 0-4.26-1.8-6.63t-7.02-2.37q-1.86 0-2.49 1.17-.63 1.17-.75 4.41-.12 4.08-.12 10.2 0 1.38.72 1.74.72.36 2.46.36zM411.7 52.9q-3.24 0-5.73-1.62t-3.87-4.59q-1.38-2.97-1.38-6.87 0-3.36 1.59-6.3t4.23-4.65q2.64-1.71 5.76-1.71 3.6 0 5.91 2.13t2.31 5.43q0 1.86-1.8 1.86h-12.66q-.84 0-1.17.45-.33.45-.33 1.77 0 2.82 1.23 5.22t3.36 3.81q2.13 1.41 4.65 1.41 3.54 0 5.88-2.7.36-.48.66-.48.48 0 .48.6 0 1.14-1.08 2.52-1.32 1.74-3.48 2.73t-4.56.99zm-5.52-18.18h5.46q2.82 0 4.44-.3.48-.06.48-1.32 0-1.74-1.53-2.97-1.53-1.23-3.63-1.23-1.32 0-2.73.81t-2.31 2.01q-.9 1.2-.9 2.4 0 .6.72.6zm41.82-6q.3 0 .54.24.24.24.24.66 0 .54-.6 1.14-.3.3-.48.3h-1.62q-1.62 0-1.8.48-.36 1.08-.36 2.76 0 3-1.32 5.61-1.32 2.61-3.51 4.17-2.19 1.56-4.71 1.56-1.74 0-3.18-.6-1.08.54-1.8 1.26t-.72 1.26q0 2.52 7.8 3 5.52.3 8.22 1.8 2.7 1.5 2.7 4.26 0 3-1.98 6t-5.1 4.89q-3.12 1.89-6.3 1.89-5.1 0-8.07-1.92-2.97-1.92-2.97-5.28 0-1.56.48-2.61.48-1.05 1.5-1.89l2.4-1.92 2.64-2.1q-2.82-.54-4.05-1.56t-1.23-2.76q0-1.08 1.38-2.22 1.44-1.08 2.22-1.71.78-.63 1.14-1.17-2.16-1.26-3.48-3.33-1.32-2.07-1.32-4.41 0-2.7 1.44-4.86t3.84-3.39q2.4-1.23 5.16-1.23 1.8 0 4.32.84.42.18 1.26.42 1.32.36 2.16.48.84.12 1.86.12.66 0 1.98-.12l1.32-.06zm-13.26 14.82q2.22 0 3.75-2.31 1.53-2.31 1.53-5.73 0-1.68-.81-3.24-.81-1.56-2.13-2.49-1.32-.93-2.76-.93-1.38 0-2.61.96t-1.98 2.58q-.75 1.62-.75 3.42 0 2.04.78 3.84.78 1.8 2.1 2.85t2.88 1.05zm9 15q0-1.98-2.1-3t-6.9-1.32q-1.74-.12-2.58-.24-2.58 1.74-3.63 3.39-1.05 1.65-1.05 3.93 0 2.4 2.13 4.05t5.25 1.65q3.54 0 5.7-1.62 1.5-1.14 2.34-2.97.84-1.83.84-3.87zm26.64-5.4q-.42 0-.42-.48l.12-1.62q.18-1.2.18-2.1v-.36q-2.28 2.28-4.68 3.27-2.4.99-5.22.99-3.06 0-4.95-1.86-1.89-1.86-1.89-5.28V33.52q0-1.32-.6-2.1t-1.98-1.32q-.78-.24-.78-.96 0-.84.9-.96 1.86-.12 2.94-.3 1.08-.18 3-.66l.48-.06q.66 0 .6.84-.36 2.76-.36 4.62v11.7q0 2.16 1.56 3.81t3.48 1.65q1.8 0 2.91-.21t2.13-.99q1.08-.78 1.89-1.83.81-1.05.81-2.67V33.1q0-1.62-1.35-2.31t-2.67-.69q-1.26 0-1.26-1.02 0-.9 1.26-.9 2.58-.06 4.11-.27 1.53-.21 3.27-.69.36-.12.6-.12.3 0 .54.18.24.18.24.48l-.12.54q-.12.66-.27 1.89-.15 1.23-.15 2.25V46.3q0 3 1.08 3l1.38-.12 1.38-.06q.9 0 .9.78 0 .48-.21.63-.21.15-.63.21-2.04.3-3.6.78-1.56.48-3.42 1.26-.72.36-1.2.36zm12-.96q-1.2 0-1.2-.54 0-.42.33-.63.33-.21 1.05-.45 1.32-.42 1.95-.81.63-.39.63-1.47V18.04q0-3.78-2.76-4.38-.24-.06-.36-.27-.12-.21-.12-.51 0-.6.42-.72 2.34-.54 5.34-1.8l1.44-.54q.24-.12.36-.12t.21.15q.09.15.09.27 0 .36-.21 2.28t-.21 5.88v30q0 1.08.63 1.47.63.39 1.95.81.72.24 1.05.45.33.21.33.63 0 .54-1.2.54-1.56 0-2.58-.18-1.32-.12-2.28-.12-.96 0-2.28.12-.96.18-2.58.18zm19.08.66q-1.02 0-2.16-.81-1.14-.81-1.89-2.04t-.75-2.31q0-1.86.99-2.94.99-1.08 3.27-2.04l6.12-2.52q1.14-.48 1.38-.84t.3-1.56l.12-3.84q.06-1.62-.9-2.73-.96-1.11-2.64-1.11-.9 0-1.8.3t-1.5.78q-.6.42-.6 1.74l.06 1.08q0 .48-1.53 1.29t-2.43.81q-.3 0-.48-.15t-.18-.39q0-.96.63-2.07.63-1.11 1.77-2.07 2.04-1.86 4.59-3.06t4.35-1.2q2.16 0 3.57 1.53 1.41 1.53 1.35 3.81l-.3 14.4q-.06 1.26.54 2.04.6.78 1.62.78 1.5 0 2.22-.66.3-.3.48-.3.3 0 .48.18t.18.48q0 .24-.18.63t-.48.69q-.96.96-2.07 1.53-1.11.57-2.07.57-2.76 0-4.38-3.12h-.18q-1.98 1.62-3.78 2.37-1.8.75-3.72.75zm2.82-2.88q2.1 0 3.54-1.44.36-.36.54-.9.18-.54.24-1.56l.12-2.94v-.36q0-.48-.12-.69-.12-.21-.42-.21-.36 0-1.2.3-3 1.08-4.32 2.28-1.32 1.2-1.32 2.34 0 1.5.87 2.34.87.84 2.07.84zm17.04 2.22q-1.2 0-1.2-.66 0-.42.3-.57.3-.15 1.08-.39 2.28-.54 2.28-2.28v-12.9q0-1.8-.54-2.91t-1.92-1.41q-.24-.06-.42-.3t-.18-.48q0-.24.18-.45.18-.21.36-.27 2.4-.78 5.94-2.94.66-.42.9-.42.3 0 .3.42 0 1.62-.18 4.5 0 .12.12.12 1.5-1.8 3.36-2.94 1.86-1.14 3.54-1.14 1.26 0 2.07.54.81.54.81 1.38 0 .96-.75 2.04t-1.59 1.08q-.6 0-1.68-.54-.18-.06-.81-.3-.63-.24-1.11-.24-1.74 0-2.94 1.14t-1.2 3.9v12.12q0 .78.78 1.29t2.4.99q.72.24 1.05.42.33.18.33.54 0 .66-1.2.66-1.62 0-2.82-.18-1.44-.12-2.4-.12t-2.28.12q-.96.18-2.58.18z"/></svg>