<svg viewBox="0 0 586 80" xmlns="http://www.w3.org/2000/svg"><path d="M17.42 60.3q-1.56 0-1.56-.72 0-.78 1.74-1.14 2.28-.48 3.24-1.41.96-.93.96-2.91V27q0-2.04-.84-2.91-.84-.87-3.06-1.35-1.74-.36-1.74-1.2 0-.36.42-.57.42-.21 1.14-.21 2.1 0 5.22.12 3 .12 4.8.12 4.02 0 9.9-.12 1.98 0 3.39-.09 1.41-.09 1.59-.09.42 0 .78.18.36.18.42.54l.3 1.8q.66 3.42.66 4.92 0 .54-.27.78t-.57.24q-.54 0-.84-.72-.06-.24-.39-1.17-.33-.93-.63-1.53t-.6-.96q-1.62-1.68-4.08-1.68h-6.72q-.84 0-1.68.63t-.84 1.53V37.5q0 .6.36.96t.9.36h5.64q1.62 0 2.31-.72t1.17-2.46q.42-1.2 1.14-1.2.3 0 .54.3.24.3.24.78-.24 3.36-.24 4.38 0 2.22.18 4.74v.24q0 .96-.54.96-.96 0-1.44-1.74-.42-1.62-1.05-2.37-.63-.75-1.77-.75h-5.58q-1.02 0-1.44.33-.42.33-.42 1.23V54q0 2.04.87 2.88.87.84 2.79.84h4.74q3.48 0 5.1-1.14.96-.66 1.74-1.74t1.68-2.94q.48-.78 1.02-.72.66 0 .66.96t-.6 3.15q-.6 2.19-1.26 4.05-.42.96-1.02.96-4.2 0-9-.18-1.62-.06-4.17-.12t-5.91-.06q-1.68 0-3.42.18-3.42.18-3.96.18zm33.3 0q-.72 0-1.14-.18-.42-.18-.42-.54 0-.78 1.74-1.14 2.34-.48 3.36-1.41 1.02-.93 1.02-2.91V27q0-2.1-.87-3.06t-3.03-1.2q-.9-.06-1.32-.42-.42-.36-.42-.78 0-.36.42-.57.42-.21 1.14-.21 1.86 0 3.9.12l3 .06q1.44 0 2.88-.18 3.42-.18 4.44-.18 7.26 0 10.71 2.07 3.45 2.07 3.45 6.87 0 1.86-.69 3.42-.69 1.56-1.71 2.52-.96.9-1.83 1.44-.87.54-2.31 1.02-.24.12-.24.33 0 .21.24.27 2.52.72 4.38 1.68 1.86.96 3.18 2.94t1.32 5.22q0 3.06-.96 5.04t-2.25 2.97q-1.29.99-3.03 1.89-4.08 1.98-10.32 1.98-.6 0-2.52-.12-2.4-.12-4.08-.12-1.44 0-3.84.12-1.92.18-4.2.18zm13.5-22.5q3.78 0 6.48-1.74.84-.54 1.62-1.92.78-1.38.78-3.66 0-7.8-7.86-7.8-2.1 0-2.88.63-.78.63-.78 2.01v10.26q0 1.26.81 1.74t1.83.48zm1.68 19.68q2.34 0 4.38-1.17t3.27-3.18q1.23-2.01 1.23-4.41 0-2.94-1.17-4.71t-2.73-2.73q-2.28-1.44-6.12-1.44-1.5 0-2.34.66-.84.66-.84 1.44V53.4q0 2.22 1.08 3.15 1.08.93 3.24.93zm54.24 3.36q-5.58 0-10.38-2.55-4.8-2.55-7.65-7.02-2.85-4.47-2.85-9.99 0-5.7 2.94-10.53 2.94-4.83 8.07-7.68 5.13-2.85 11.31-2.85 2.22 0 6.39.69t5.61 1.35q.36.12.51.33.15.21.27.63.6 5.04.6 6.6 0 .48-.27.84t-.63.36q-.6 0-.9-.36-.3-.36-.6-1.14-.9-2.16-2.22-3.66-1.02-1.14-3.24-2.1-2.22-.96-5.58-.96-4.38 0-7.77 2.4-3.39 2.4-5.22 6.39-1.83 3.99-1.83 8.61 0 5.46 1.92 9.57t5.19 6.3q3.27 2.19 7.23 2.19 4.08 0 6.18-1.92.72-.66 1.2-1.83t.48-2.55q0-1.2.06-1.98l.06-2.04q0-1.5-.66-1.92-.72-.66-2.37-1.11-1.65-.45-2.79-.51-.42-.06-.87-.39t-.45-.75q0-.36.45-.66.45-.3.81-.3 1.44 0 3.96.12 2.64.12 4.2.12 1.02 0 2.94-.12t3.12-.12q.36 0 .75.24t.39.72q0 .42-.39.72t-.81.42q-1.38.42-1.98 1.05-.6.63-.78 1.89-.3 2.16-.3 4.5v1.74q0 .36.21.63t.27.39q.12.18.42.54.3.36.3.6 0 1.02-.96 1.14-.54.12-1.68.72-2.88 1.38-5.88 2.31-3 .93-6.78.93zm27.6 0q-1.2 0-2.43-.81-1.23-.81-2.01-2.04-.78-1.23-.78-2.43 0-1.92 1.08-3.12 1.08-1.2 3.48-2.22l5.82-2.46q1.2-.48 1.44-.84t.3-1.62l.12-3.66q.06-1.68-.81-2.73-.87-1.05-2.43-1.05-.84 0-1.71.3t-1.41.78q-.48.48-.48 1.56l.06 1.32q0 .48-1.71 1.35-1.71.87-2.73.87-.36 0-.57-.24-.21-.24-.21-.54 0-1.98 2.52-4.14 2.1-1.86 4.8-3.09 2.7-1.23 4.62-1.23 2.52 0 4.08 1.71t1.5 4.41l-.3 13.56q-.06 1.32.54 2.16.6.84 1.5.84 1.44 0 2.16-.72.24-.24.42-.24.3 0 .51.21.21.21.21.45 0 .66-.84 1.5-1.02 1.02-2.19 1.59-1.17.57-2.25.57-3.06 0-4.8-3.24h-.18q-1.98 1.74-3.72 2.49-1.74.75-3.6.75zm3.12-3.24q1.68 0 2.94-1.26.6-.6.66-2.16l.12-3.42v-.3q0-.84-.54-.84-.36 0-1.02.3-2.64 1.02-3.75 2.1-1.11 1.08-1.11 2.46 0 1.5.81 2.31t1.89.81zm17.16 2.58q-1.2 0-1.2-.72 0-.42.33-.66.33-.24 1.05-.42 1.2-.24 1.74-.81.54-.57.54-1.47V42.9q0-1.62-.48-2.61-.48-.99-1.74-1.29-.24-.06-.45-.3-.21-.24-.21-.6 0-.6.6-.84 1.56-.42 3.45-1.26 1.89-.84 3.27-1.62.78-.48 1.08-.48.42 0 .42.48l-.18 4.62q0 .24.12.24 1.56-1.98 3.45-3.24 1.89-1.26 3.69-1.26 1.56 0 2.4.63.84.63.84 1.65 0 1.14-.87 2.4t-1.89 1.26q-.48 0-1.92-.66-.24-.12-.87-.39t-1.11-.27q-1.74 0-2.88 1.2t-1.14 4.08v11.28q0 .9.72 1.44.72.54 2.4 1.08.72.18 1.05.42.33.24.33.6 0 .72-1.14.72-1.74 0-3.18-.18-1.8-.12-2.76-.12-.96 0-2.52.12-1.26.18-2.94.18zm26.22.66q-1.2 0-2.43-.81-1.23-.81-2.01-2.04-.78-1.23-.78-2.43 0-1.92 1.08-3.12 1.08-1.2 3.48-2.22l5.82-2.46q1.2-.48 1.44-.84t.3-1.62l.12-3.66q.06-1.68-.81-2.73-.87-1.05-2.43-1.05-.84 0-1.71.3t-1.41.78q-.48.48-.48 1.56l.06 1.32q0 .48-1.71 1.35-1.71.87-2.73.87-.36 0-.57-.24-.21-.24-.21-.54 0-1.98 2.52-4.14 2.1-1.86 4.8-3.09 2.7-1.23 4.62-1.23 2.52 0 4.08 1.71t1.5 4.41l-.3 13.56q-.06 1.32.54 2.16.6.84 1.5.84 1.44 0 2.16-.72.24-.24.42-.24.3 0 .51.21.21.21.21.45 0 .66-.84 1.5-1.02 1.02-2.19 1.59-1.17.57-2.25.57-3.06 0-4.8-3.24h-.18q-1.98 1.74-3.72 2.49-1.74.75-3.6.75zm3.12-3.24q1.68 0 2.94-1.26.6-.6.66-2.16l.12-3.42v-.3q0-.84-.54-.84-.36 0-1.02.3-2.64 1.02-3.75 2.1-1.11 1.08-1.11 2.46 0 1.5.81 2.31t1.89.81zm16.98 2.58q-1.2 0-1.2-.72 0-.42.33-.63.33-.21 1.05-.45 1.26-.42 1.86-.81.6-.39.6-1.47V42.9q0-1.74-.42-2.73t-1.68-1.23q-.6-.12-.6-.84 0-.78.54-.84 2.16-.54 3.66-1.26t3.48-1.92q.48-.24.6-.24.42 0 .42.48l-.12 1.32q-.06.42-.12 1.08-.06.66-.06 1.38 0 .6.12.72h.12q4.14-4.02 9.18-4.02 4.2 0 5.94 4.32h.18q4.32-4.32 9.54-4.32 2.82 0 4.53 2.43Q254 39.66 254 43.2v12.96q0 1.08.57 1.44.57.36 1.89.78.66.18.99.42.33.24.33.66 0 .72-1.14.72-1.62 0-2.82-.18-1.44-.12-2.46-.12t-2.46.12q-1.14.18-2.82.18-1.14 0-1.14-.72 0-.42.33-.66.33-.24.99-.42 1.08-.3 1.65-.72.57-.42.57-1.38V43.74q0-2.16-1.26-3.78-1.26-1.62-3-1.62-2.76 0-4.62 1.56-1.38 1.08-1.38 3.66v12.6q0 1.08.6 1.5.6.42 1.8.72.66.24.99.45.33.21.33.63 0 .72-1.14.72-1.62 0-2.82-.18-1.44-.12-2.46-.12t-2.46.12q-1.14.18-2.82.18-.48 0-.81-.18-.33-.18-.33-.54 0-.42.33-.63.33-.21.99-.45 1.08-.3 1.68-.72.6-.42.6-1.38V43.74q0-2.16-1.23-3.75-1.23-1.59-3.03-1.65-2.64 0-4.62 1.56-1.32.9-1.32 3.6v12.66q0 1.02.54 1.44.54.42 1.68.78.66.24.99.45.33.21.33.63 0 .72-1.14.72-1.68 0-2.76-.18-1.44-.12-2.4-.12t-2.52.12q-1.14.18-2.88.18zm58.8.66q-3.42 0-6.21-1.56t-4.41-4.38q-1.62-2.82-1.62-6.3t1.8-6.69q1.8-3.21 4.92-5.19 3.12-1.98 6.78-1.98 3.48 0 6.39 1.68 2.91 1.68 4.59 4.5 1.68 2.82 1.68 6.06 0 3.72-1.59 6.9t-4.74 5.07q-3.15 1.89-7.59 1.89zm1.26-2.1q3.72 0 5.28-2.82 1.26-2.34 1.26-7.5 0-3-.96-5.64-.96-2.64-2.67-4.26-1.71-1.62-3.93-1.62-1.44 0-2.52.45t-1.98 1.53q-1.02 1.32-1.44 3.39-.42 2.07-.42 4.95 0 2.94.96 5.58t2.67 4.29q1.71 1.65 3.75 1.65zm17.1 1.44q-.54 0-.87-.18-.33-.18-.33-.54 0-.42.33-.66.33-.24 1.05-.42 1.2-.3 1.83-.75.63-.45.63-1.53V42.9q0-1.74-.42-2.67-.42-.93-1.68-1.29-.6-.12-.6-.84 0-.78.54-.84 3.84-1.02 6.96-3.06.48-.36.78-.36.42 0 .42.54l-.12 1.2q-.06.42-.12 1.08-.06.66-.06 1.38 0 .66.12.78 2.1-2.04 4.38-3.03 2.28-.99 5.04-.99 3 0 4.98 2.37 1.98 2.37 1.98 6.03v12.96q0 1.08.6 1.44.6.36 1.92.78 1.32.48 1.32 1.14 0 .66-1.14.66-1.68 0-2.88-.18-1.56-.12-2.52-.12t-2.52.12q-1.14.18-2.88.18-.42 0-.78-.15-.36-.15-.36-.51 0-.66 1.32-1.14 1.32-.42 1.89-.78.57-.36.57-1.44V43.74q0-2.46-1.32-3.87-1.32-1.41-3.54-1.47-3.3 0-5.88 2.1-.48.48-.48 1.26v14.4q0 1.08.6 1.5.6.42 1.8.72 1.32.36 1.32 1.08 0 .72-1.14.72-1.62 0-2.82-.18-1.44-.12-2.46-.12-.96 0-2.52.12-1.26.18-2.94.18zm51.3.96q-.12 0-.42-.3t-.3-.42q0-.36.12-1.32.18-1.2.18-2.16v-.36q-1.08 1.74-3.18 3t-4.68 1.26q-3.3 0-5.85-1.74t-3.99-4.59q-1.44-2.85-1.44-6.03 0-3.72 1.71-6.84 1.71-3.12 4.86-4.98 3.15-1.86 7.23-1.86 1.98 0 4.08.66l.78.18q.18 0 .3-.33t.12-.93V26.4q0-2.22-.66-3.15-.66-.93-2.16-1.23-.24-.06-.42-.3t-.18-.54q0-.6.54-.78 3.6-.84 7.2-2.34.72-.3 1.02-.3.48 0 .48.48 0 .18-.18 1.83-.18 1.65-.18 4.89l-.12 28.26q0 2.1.3 2.97.3.87 1.02.87l2.52-.18h.3q.36 0 .51.12.15.12.15.48 0 .42-.3.81-.3.39-.6.39-3.66.42-7.74 2.1-.72.36-1.02.36zm-5.82-3.78q1.38 0 2.82-.69t2.46-1.83v-11.7q0-1.44-.9-2.82t-2.43-2.25q-1.53-.87-3.33-.87-1.56 0-3.09.99-1.53.99-2.55 3.21-1.02 2.22-1.02 5.64 0 3.72 1.32 6.03t3.18 3.3q1.86.99 3.54.99zm31.38 2.88q-1.68 0-1.68-.72 0-.42.42-.63.42-.21 1.5-.45 1.5-.3 2.46-1.5t1.26-3.18q2.04-16.2 2.4-25.26 0-1.26-.06-1.98 0-1.44-1.08-2.22-.84-.72-1.74-1.05-.9-.33-2.34-.63-.66-.12-1.05-.45t-.39-.75q0-.48.48-.63.48-.15 1.44-.15.9 0 2.04.06 1.14.06 2.34.12 4.08.24 5.46.24.42 0 .78.3.36.3.48.72.42 1.32.48 1.74.78 2.52.9 2.82l9.24 22.98q.18.48.66.48.3 0 .48-.36l10.68-22.98 1.14-4.86q.18-.78.72-.78h2.28q1.08 0 4.86-.3 2.4-.24 2.94-.24 1.38 0 1.38.72 0 .42-.33.66-.33.24-1.17.6-.96.3-2.88 1.14-1.02.48-1.5 1.11-.48.63-.48 1.65 0 5.7.21 10.23t.69 10.59l.48 6.96q.06 1.74 1.17 2.73 1.11.99 3.27 1.41.9.18 1.32.45.42.27.42.69 0 .72-1.56.72-2.22 0-4.14-.18-2.4-.12-3.66-.12-1.08 0-3.12.12-1.68.18-3.96.18-1.56 0-1.56-.72 0-.84 1.74-1.14 1.92-.3 2.64-1.2.72-.9.72-2.94-.12-9.36-.72-20.7l-.06-1.26q0-.54-.24-.54-.18 0-.6.6l-12.96 27.84q-.18.48-.6.48-.48 0-.66-.48-3.06-8.22-8.88-22.08l-2.52-6q-.12-.3-.48-.3t-.42.48q-1.38 11.58-1.38 21.54 0 1.68 1.08 2.91 1.08 1.23 3 1.65.96.18 1.44.45t.48.69q0 .72-1.68.72-1.86 0-3.42-.12-1.44-.12-2.4-.12-1.14 0-2.94.12-1.68.12-2.82.12zm64.32.66q-3.24 0-5.76-1.68-2.52-1.68-3.93-4.65-1.41-2.97-1.41-6.81 0-3.48 1.65-6.45t4.44-4.74q2.79-1.77 6.03-1.77 3.72 0 6.15 2.22t2.43 5.58q0 1.02-.45 1.5t-1.41.48H428q-.84 0-1.17.48-.33.48-.33 1.74 0 2.64 1.14 4.86t3.15 3.51q2.01 1.29 4.41 1.29 3.36 0 6-2.64.3-.48.66-.48.54 0 .54.66 0 .9-.84 2.28-1.26 2.04-3.63 3.33t-5.25 1.29zm-4.56-18.36h4.74q2.7 0 4.14-.3.54-.18.54-1.5 0-1.68-1.38-2.85-1.38-1.17-3.3-1.17-1.26 0-2.58.78t-2.13 1.98q-.81 1.2-.81 2.34 0 .72.78.72zm37.26 18.6q-.12 0-.42-.3t-.3-.42q0-.36.12-1.32.18-1.2.18-2.16v-.36q-1.08 1.74-3.18 3t-4.68 1.26q-3.3 0-5.85-1.74t-3.99-4.59q-1.44-2.85-1.44-6.03 0-3.72 1.71-6.84 1.71-3.12 4.86-4.98 3.15-1.86 7.23-1.86 1.98 0 4.08.66l.78.18q.18 0 .3-.33t.12-.93V26.4q0-2.22-.66-3.15-.66-.93-2.16-1.23-.24-.06-.42-.3t-.18-.54q0-.6.54-.78 3.6-.84 7.2-2.34.72-.3 1.02-.3.48 0 .48.48 0 .18-.18 1.83-.18 1.65-.18 4.89l-.12 28.26q0 2.1.3 2.97.3.87 1.02.87l2.52-.18h.3q.36 0 .51.12.15.12.15.48 0 .42-.3.81-.3.39-.6.39-3.66.42-7.74 2.1-.72.36-1.02.36zm-5.82-3.78q1.38 0 2.82-.69t2.46-1.83v-11.7q0-1.44-.9-2.82t-2.43-2.25q-1.53-.87-3.33-.87-1.56 0-3.09.99-1.53.99-2.55 3.21-1.02 2.22-1.02 5.64 0 3.72 1.32 6.03t3.18 3.3q1.86.99 3.54.99zm18.3 2.82q-1.14 0-1.14-.72 0-.66 1.26-1.02 1.5-.42 2.1-.87.6-.45.6-1.41V43.2q0-3.84-2.7-4.26-.6-.06-.6-.9 0-.72.54-.78 3.9-.84 7.38-3.18.72-.42.96-.42.48 0 .48.48 0 .36-.24 2.76-.36 3.6-.36 5.58v13.68q0 .9.63 1.41.63.51 2.07.87 1.26.36 1.26 1.02 0 .72-1.08.72-1.56 0-2.94-.18-1.68-.12-2.7-.12-1.02 0-2.58.12-1.26.18-2.94.18zm5.4-30.66q-1.5 0-2.55-1.05-1.05-1.05-1.05-2.55 0-1.56 1.05-2.61 1.05-1.05 2.55-1.05 1.56 0 2.64 1.05t1.08 2.61q0 1.5-1.08 2.55-1.08 1.05-2.64 1.05zm29.4 31.68q-.48 0-.48-.54l.12-1.74q.18-1.08.18-1.98v-.48q-4.2 4.38-9.78 4.38-2.94 0-4.83-2.04-1.89-2.04-1.89-5.52V41.4q0-1.32-.6-2.13-.6-.81-1.92-1.23-.84-.24-.84-1.02 0-.9.9-1.02 2.04-.12 3.42-.36t3.48-.78q.6-.12.78-.12.72 0 .66.84-.42 2.58-.42 4.62v11.64q0 2.16 1.38 3.69 1.38 1.53 3.18 1.59 1.56 0 2.58-.24t1.98-1.02q2.16-1.68 2.16-4.26V41.1q0-1.56-1.17-2.31t-2.55-.81q-1.32 0-1.32-1.08 0-1.02 1.32-1.02 3.3-.12 4.95-.33 1.65-.21 3.39-.69.36-.12.66-.12.36 0 .6.18t.24.48q0 .18-.06.33-.06.15-.12.33-.12.72-.27 2.1-.15 1.38-.15 2.1v13.86q0 2.76 1.08 2.76l2.4-.12q.96 0 .96.9 0 .84-.9.96-2.28.3-4.05.84t-3.75 1.32q-.84.42-1.32.42zm13.14-1.02q-1.2 0-1.2-.72 0-.42.33-.63.33-.21 1.05-.45 1.26-.42 1.86-.81.6-.39.6-1.47V42.9q0-1.74-.42-2.73t-1.68-1.23q-.6-.12-.6-.84 0-.78.54-.84 2.16-.54 3.66-1.26t3.48-1.92q.48-.24.6-.24.42 0 .42.48l-.12 1.32q-.06.42-.12 1.08-.06.66-.06 1.38 0 .6.12.72h.12q4.14-4.02 9.18-4.02 4.2 0 5.94 4.32h.18q4.32-4.32 9.54-4.32 2.82 0 4.53 2.43 1.71 2.43 1.71 5.97v12.96q0 1.08.57 1.44.57.36 1.89.78.66.18.99.42.33.24.33.66 0 .72-1.14.72-1.62 0-2.82-.18-1.44-.12-2.46-.12t-2.46.12q-1.14.18-2.82.18-1.14 0-1.14-.72 0-.42.33-.66.33-.24.99-.42 1.08-.3 1.65-.72.57-.42.57-1.38V43.74q0-2.16-1.26-3.78-1.26-1.62-3-1.62-2.76 0-4.62 1.56-1.38 1.08-1.38 3.66v12.6q0 1.08.6 1.5.6.42 1.8.72.66.24.99.45.33.21.33.63 0 .72-1.14.72-1.62 0-2.82-.18-1.44-.12-2.46-.12t-2.46.12q-1.14.18-2.82.18-.48 0-.81-.18-.33-.18-.33-.54 0-.42.33-.63.33-.21.99-.45 1.08-.3 1.68-.72.6-.42.6-1.38V43.74q0-2.16-1.23-3.75-1.23-1.59-3.03-1.65-2.64 0-4.62 1.56-1.32.9-1.32 3.6v12.66q0 1.02.54 1.44.54.42 1.68.78.66.24.99.45.33.21.33.63 0 .72-1.14.72-1.68 0-2.76-.18-1.44-.12-2.4-.12t-2.52.12q-1.14.18-2.88.18z"/></svg>