<?xml version="1.0" encoding="utf-8"?>
<!-- Generator: Adobe Illustrator 24.0.0, SVG Export Plug-In . SVG Version: 6.00 Build 0)  -->
<svg version="1.1" id="图层_1" xmlns="http://www.w3.org/2000/svg" xmlns:xlink="http://www.w3.org/1999/xlink" x="0px" y="0px"
	 viewBox="0 0 432.6 80" style="enable-background:new 0 0 432.6 80;" xml:space="preserve">
<path d="M57.5,43c0.3,0.6,0.4,1.2,0.4,1.8l0,0c0,1-0.3,1.8-1,2.5s-1.5,1-2.5,1l0,0c-1,0-1.9-0.4-2.7-1.2s-1.2-1.7-1.4-2.9l0,0
	c0.1,0,0.1,0,0-0.1c-0.1,0-0.1-0.1,0-0.1l0,0c-0.9-3.6-1.5-6.2-1.7-7.6l0,0c-0.4-1.6-1.3-2.6-2.6-2.9l0,0c-0.4-0.1-1.3-0.3-2.8-0.7
	s-2.9-0.6-4.3-0.7l0,0c-1.2-0.2-3.1-0.3-5.5-0.5l0,0l-3.6-0.3c-2.4-0.1-4.4,0.9-6.2,3.1l0,0c-0.1,0.2-0.5,0.6-1.2,1.4
	c-0.7,0.8-1.3,1.4-1.9,2l0,0c-0.3,0.4-1,0.7-2,1l0,0c-0.2,0.1-0.4,0.1-0.7,0.1l0,0c-0.8,0-1.4-0.4-1.9-1.3l0,0
	c-0.1-0.1-0.2-0.6-0.2-1.2l0,0c0-0.4,0.1-0.8,0.2-1.1l0,0c1.4-2.4,2.8-4.7,4.3-6.9l0,0l0.8-1c0.7-0.8,1.2-1.5,1.6-2.1l0,0
	c0.1-0.3,0.2-0.5,0.4-0.8c0.1-0.2,0.2-0.4,0.3-0.6l0,0c0.7-0.7,1.7-1.1,2.9-1.1l0,0c0.8,0,1.7,0.1,2.7,0.4l0,0
	c0.2,0.2,0.6,0.3,0.9,0.4s0.6,0.2,0.8,0.2l0,0l3.4,0.4l0,0l0,0l0,0l1.1-3.1c0.6-1.8,1-2.9,1.1-3.1l0,0c0.2-0.3,0.5-1.4,1.1-3.1l0,0
	c0.3-1.1,0.6-1.9,1-2.6c0.3-0.6,0.9-1.1,1.6-1.5l0,0c0.4-0.3,0.8-0.5,1.2-0.5l0,0c0.4,0,0.9,0.3,1.4,0.9l0,0
	c0.2,0.2,0.4,0.6,0.8,1.1s0.6,1,0.8,1.5l0,0c0.3,0.5,0.5,1.1,0.5,1.6l0,0c0,0.6-0.4,1.4-1.1,2.2l0,0c-0.3,0.3-0.7,0.9-1.1,1.7l0,0
	c-0.3,0.6-0.6,1-0.8,1.3l0,0l-2.8,4H39c3.7,0.1,6.9,1.3,9.6,3.7l0,0c1,0.9,1.7,1.9,2.4,3c0.6,1.1,1.3,2.6,2.1,4.3l0,0
	c0.4,0.7,0.9,1.8,1.7,3.2l0,0l1.1,1.9c0.2,0.3,0.5,0.7,0.8,1.1C57,42.4,57.3,42.7,57.5,43L57.5,43z M46.6,53.2
	c0.4,1.3,0.6,2,0.6,2.2l0,0c-0.1,0.2-0.6,0.5-1.4,1s-1.4,0.8-1.6,0.9l0,0c-0.6,0.2-1.6,0.4-3,0.7l0,0c-1.1,0.2-2,0.3-2.5,0.5l0,0
	c0.1,0.4,0.3,0.7,0.6,1s0.5,0.7,0.6,1l0,0c0.2,0.5,0.2,1.1,0.2,1.7l0,0c0,2.3-1.5,4.4-4.4,6.2l0,0c-0.8,0.6-1.8,0.8-3.1,0.8l0,0
	c-1.2,0-2.1-0.3-2.7-0.8l0,0c-0.2-0.2-0.4-0.4-0.6-0.7c-0.1-0.3-0.2-0.6-0.2-0.9l0,0c0-0.2,0-0.4,0.1-0.6l0,0c0.2-0.3,0.4-0.7,0.8-1
	c0.4-0.4,0.8-0.6,1.2-0.7l0,0c0.6-0.1,1.1-0.3,1.4-0.5c0.3-0.2,0.4-0.6,0.5-1l0,0c0-0.2-0.1-0.6-0.3-1.4c-0.2-0.8-0.3-1.6-0.4-2.3
	l0,0c-1.4-0.3-2.2-0.4-2.5-0.4l0,0c-0.9,0.1-1.7-0.1-2.4-0.6c-0.7-0.5-1.6-1.2-2.6-2.2l0,0c-0.2-0.2-0.5-0.6-0.9-1.4l0,0
	c0-0.3,0.2-0.8,0.7-1.5s0.9-1.1,1.1-1.2l0,0l5,1c0.3,0,0.9-0.5,1.8-1.7l0,0c0.1-0.2,0.4-0.4,0.9-0.8c0.5-0.3,0.8-0.6,1-0.8l0,0
	c0.3-0.4,0.7-1.2,1.1-2.2l0,0c0.2-0.3,0.2-0.7,0.2-1l0,0c0-1-0.7-1.6-2.2-1.8l0,0c-0.8-0.2-1.5-0.5-2.1-0.9s-1.1-0.8-1.6-1.2
	s-0.9-0.8-1.1-1l0,0c-0.2-0.2-0.4-0.3-0.5-0.5c-0.2-0.2-0.3-0.4-0.5-0.5l0,0c-0.6-0.5-0.8-0.9-0.8-1.4l0,0c0-0.4,0.2-0.8,0.7-1.3
	l0,0c0.5-0.5,1.1-0.8,1.8-0.8l0,0c0.5,0,0.9,0.1,1.4,0.4l0,0c0.7,0.5,1.5,0.9,2.3,1s2,0.3,3.4,0.3l0,0c0.6,0,1.1,0,1.4,0.1l0,0
	c1.5,0.1,3,0.6,4.5,1.6s2.4,1.9,2.4,2.9l0,0c0.2,2.4-0.8,4.9-2.9,7.3l0,0c-0.2,0.3-0.6,0.5-1.2,0.9l0,0c-0.1,0.1-0.4,0.2-0.8,0.5
	c-0.4,0.2-0.8,0.5-1,0.7l0,0l3.8-0.1c0.2,0,0.9,0.1,1.9,0.2S46.3,53.1,46.6,53.2L46.6,53.2C46.5,53.2,46.6,53.2,46.6,53.2L46.6,53.2
	z"/>
<path d="M96,30.1c1,0.2,2.3,0.3,3.7,0.3l0,0c1.4,0,3.6-0.2,6.5-0.6l0,0c2.3-0.3,4.1-0.5,5.2-0.5l0,0c0.9,0,1.6-0.3,2.2-0.8
	c0.5-0.5,0.8-1.1,0.8-1.7l0,0c0-0.4-0.1-0.8-0.3-1.2l0,0c-0.3-0.4-0.6-0.9-1.1-1.3s-1-0.7-1.5-0.9l0,0c-0.7-0.2-1.6-0.4-2.5-0.3
	c-1,0-1.5,0-1.7,0l0,0c-0.2,0-0.7,0-1.3,0s-1.2,0-1.7-0.2c-0.5-0.1-1-0.4-1.4-0.8l0,0c0.2-0.8,0.5-1.7,1-2.7l0,0
	c0.3-0.7,0.4-1.3,0.4-2l0,0c0-1.2-0.5-2.5-1.6-3.7l0,0c-0.5-0.6-1.1-1-1.8-1.1s-1.5-0.2-2.5-0.1l0,0c-0.6,0-1,0.3-1.2,0.7
	s-0.4,1.1-0.5,2l0,0c-0.4,2.1-0.8,3.5-1,4.2l0,0c-0.1,0.2-0.2,0.4-0.5,0.7c-0.2,0.3-0.4,0.5-0.6,0.8l0,0c-0.2-0.2-0.7-0.5-1.3-0.8
	s-1.4-0.6-2.3-0.9l0,0c-1.7-0.6-2.9-1.1-3.5-1.4l0,0c-1.4-0.6-2.6-1-3.6-1l0,0c-0.6,0-1.2,0.1-1.5,0.4c-0.4,0.3-0.6,0.6-0.6,1.1l0,0
	c0,0.5,0.2,0.9,0.6,1.4l0,0c0.8,1.1,1.8,2,3.1,2.9l0,0c1,0.8,1.8,1.5,2.2,2.1s0.6,1.3,0.6,2.2l0,0c0,0.6-0.1,1.3-0.2,2.1l0,0
	c-0.2,1-0.5,1.9-0.7,2.9c-0.2,1-0.3,1.9-0.4,2.8l0,0c0,1.6,0,2.8,0.3,3.7s0.8,1.7,1.9,2.5l0,0c1.1,0.8,2.1,1.1,2.8,1.1l0,0
	c0.4,0,0.8-0.1,1.2-0.2l0,0c0.5-0.2,0.9-0.6,1.1-1s0.3-0.9,0.3-1.4l0,0c0-0.5,0-0.9-0.1-1.1l0,0c0-0.3-0.1-0.7-0.1-1.2l0,0
	C94.4,34.7,94.9,32.4,96,30.1L96,30.1z M76,34.6c0-1,0.4-2,1.3-3.2s1.7-1.9,2.6-2l0,0c0.1,0,0.3-0.1,0.6-0.1l0,0
	c0.9,0,1.6,0.4,2.2,1.3l0,0c0.5,0.8,0.7,1.7,0.7,2.7l0,0c0,1.5-0.5,2.9-1.4,4.1c-0.9,1.3-2.1,2-3.4,2.2l0,0c-1.3,0.2-2-0.4-2.3-1.7
	l0,0C76.2,37.4,76.1,36.3,76,34.6L76,34.6z M101.5,47.8c-0.6-0.3-1-0.7-1.3-1.3s-0.6-1.4-0.9-2.3l0,0c0-0.2-0.1-0.4-0.2-0.8
	c-0.1-0.4-0.2-0.6-0.3-0.8l0,0c-0.1-0.1-0.1-0.2-0.1-0.4l0,0l0.1-0.1c-0.2-2-0.3-3.4-0.3-4.3l0,0c-0.2-1.3-0.3-2.5-0.3-3.7l0,0
	c0-1.6,0.7-2.3,2.2-2.3l0,0c1.1,0,1.9,0.6,2.3,1.7l0,0c0.9,1.6,1.6,2.8,2,3.4l0,0c1.1,1.3,1.7,2.7,1.7,4.1l0,0
	c0,0.9-0.2,1.7-0.6,2.6l0,0c-0.1,0.4-0.2,0.8-0.4,1.4c-0.1,0.6-0.2,1-0.3,1.4l0,0v0.1c-0.1,0.4-0.4,0.8-0.8,1.3l0,0
	c-0.4,0.2-0.9,0.4-1.6,0.4l0,0C102.4,48.1,102,48,101.5,47.8L101.5,47.8z M113,35.2c1,0,1.9,0.3,2.8,0.8s1.6,1.2,2.2,2.1
	c0.6,0.9,0.8,1.7,0.8,2.7l0,0c0,0.8-0.3,1.5-0.8,2s-1.2,0.8-2,0.8l0,0c-0.2,0-0.5,0-1-0.1l0,0c-2.4-0.8-4.1-2.2-5-4.1l0,0
	c-0.4-0.8-0.7-1.5-0.7-2l0,0c0-1.2,0.8-1.9,2.5-2.2l0,0C112.2,35.3,112.6,35.2,113,35.2L113,35.2z M94.5,53.2l0.5,1.4
	c0.5,1.2,0.9,2,1.3,2.5l0,0c0.4,0.5,0.9,0.9,1.4,1.3c0.6,0.4,1.1,0.5,1.6,0.5l0,0c0.5,0,1.1-0.2,1.6-0.7s0.9-1,1.2-1.6l0,0
	c0.5-1.2,0.8-2.2,0.8-3l0,0c0-0.6-0.2-1.3-0.5-1.9c-0.4-0.6-1-1.4-1.8-2.3l0,0c-0.9-0.8-1.9-1.3-2.9-1.3l0,0c-0.8,0-1.4,0.2-2,0.6
	l0,0c-0.9,0.4-1.4,1.1-1.4,2l0,0c0,0.3,0,0.7,0.1,1.1C94.4,52.4,94.4,52.8,94.5,53.2L94.5,53.2z M105,69c0.4-0.1,1.2-0.4,2.5-0.8
	s2.5-0.8,3.6-1.3l0,0c0.7-0.4,1.3-0.9,1.6-1.5s0.5-1.3,0.5-2.1l0,0c0-1.3-0.4-2.3-1.1-3s-1.7-1.3-2.9-1.8l0,0
	c-0.6-0.3-1.2-0.4-1.9-0.4l0,0c-1.1,0-1.9,0.6-2.3,1.7l0,0c-0.4,1.4-1.5,2-3.1,2l0,0c-2,0-4.3-0.3-7.1-0.9l0,0
	c-0.3-0.1-0.7-0.3-1.1-0.5c-0.4-0.3-0.7-0.5-0.8-0.8l0,0c-0.7-2.2-1.1-3.9-1.1-5.2l0,0c0-1.8-0.6-3.3-1.8-4.5l0,0
	c-0.8-0.9-1.6-1.3-2.3-1.3l0,0c-0.4,0-0.7,0.1-1.1,0.3l0,0c-0.9,0.5-1.3,1.2-1.3,2.2l0,0c0,0.3,0.1,0.7,0.2,1.4l0,0l0.7,2
	c1,3,1.7,5.2,2.3,6.7l0,0c0.1,0.2,0.3,0.8,0.7,1.8c0.4,1,0.9,1.8,1.5,2.4s1.3,1,2.2,1.2l0,0c2.4,0.6,5.4,1.2,8.9,1.8l0,0L105,69z
	 M113.5,49.9c-1.5,0-2.7,0.2-3.5,0.7s-1.3,1.2-1.6,2.3l0,0c-0.1,0.3-0.1,0.6-0.1,0.7l0,0c0,0.7,0.2,1.4,0.7,2.1
	c0.5,0.7,1.1,1.1,1.9,1.3l0,0c2.8,0.9,5.5,1.3,7.9,1.1l0,0c0.7,0,1.3-0.3,1.7-0.8c0.5-0.5,0.7-1.1,0.7-1.8l0,0c0-0.8-0.3-1.5-0.9-2
	l0,0c-1.2-1.1-2.3-2-3.3-2.6C115.9,50.2,114.8,49.9,113.5,49.9L113.5,49.9z M83.3,55.9c0-0.2,0.1-0.6,0.1-1.1l0,0
	c0-2.3-1-3.8-3.1-4.6l0,0c-0.5-0.2-0.8-0.2-1-0.2l0,0c-0.9,0-1.4,0.5-1.7,1.6l0,0c-0.1,0.5-0.3,1.1-0.5,1.9
	c-0.2,0.7-0.4,1.3-0.5,1.6l0,0c-0.4,1-0.5,1.9-0.5,2.9l0,0c0,1.6,0.5,3,1.4,4.2l0,0c0.8,0.9,1.7,1.3,2.7,1.3l0,0
	c0.4,0,0.9-0.1,1.4-0.3l0,0c0.4-0.2,0.8-0.5,1.2-1.1c0.4-0.6,0.6-1.1,0.7-1.7l0,0c0.1-0.5,0.1-0.9,0.1-1.2l0,0c0-0.5,0-1.2-0.1-2
	l0,0C83.3,56.5,83.3,56.1,83.3,55.9L83.3,55.9z"/>
<path d="M150.3,36.7c0,0.9,0,1.8,0.1,2.6c0.1,0.9,0.3,2,0.6,3.4l0,0c0,0.3,0.1,0.9,0.3,1.8c0.2,0.9,0.3,1.7,0.4,2.4l0,0
	c0.1,1.8,0.1,3.1,0.1,4l0,0c0,3.1-0.2,6.2-0.5,9.3l0,0c-0.2,1.1-0.7,2-1.5,2.9c-0.9,0.8-1.9,1.5-3.3,2l0,0c-0.6,0.2-1.2,0.4-1.7,0.4
	l0,0c-1.1,0-2-0.5-2.8-1.5l0,0c-0.4-0.5-0.5-1-0.5-1.6l0,0c0-0.7,0.3-1.4,1-2l0,0l0.3-0.2c0.8-0.6,1.4-1.2,1.7-1.8
	c0.3-0.7,0.5-1.4,0.5-2.3l0,0c0-0.8-0.2-2-0.5-3.7l0,0c-0.1-0.6-0.2-1.5-0.2-2.7l0,0c0-1-0.2-2-0.5-2.9s-0.9-2.1-1.5-3.5l0,0
	c-0.1-0.2-0.2-0.5-0.4-0.7s-0.2-0.5-0.3-0.7l0,0c-0.1-0.2-0.3-0.3-0.7-0.5c-0.4-0.1-0.6-0.2-0.8-0.1l0,0c-1.5,0.5-2.6,1-3.2,1.5l0,0
	c-0.9,0.7-1.8,1.1-2.8,1.1l0,0c-0.6,0-1.3-0.2-2.1-0.5l0,0c-0.8-0.3-1.3-0.8-1.7-1.4c-0.4-0.6-0.6-1.3-0.6-2.1l0,0
	c0-0.9,0.2-1.6,0.7-2.1s1.2-0.9,2.1-1.3l0,0c0.3-0.1,0.9-0.3,1.6-0.6c0.8-0.3,1.4-0.6,2-0.9l0,0c0.9-0.4,1.3-1,1.3-1.9l0,0
	c0-0.7-0.4-1.3-1.1-1.9l0,0c-1.2-0.7-1.8-1.5-1.8-2.4l0,0c0-0.3,0.1-0.6,0.2-0.8l0,0c0.3-0.6,0.8-1,1.4-1.3c0.6-0.3,1.4-0.4,2.2-0.3
	l0,0c0.5,0,0.8,0,1,0.1l0,0c0.6,0.1,0.9,0.1,1.1,0.1l0,0c1.8,0,3.1-1,3.7-3l0,0c0.6-2.2,1.1-3.6,1.4-4.4l0,0
	c0.2-0.3,0.4-0.6,0.7-0.9s0.5-0.4,0.7-0.4l0,0c0.7,0.1,1.3,0.5,2,1.3l0,0c0.8,0.8,1.3,1.6,1.7,2.5s0.7,2.1,1.1,3.6l0,0l0.4,1.4
	c-0.3,1-0.8,2-1.5,2.9l0,0c-0.1,0.2-0.3,0.8-0.4,1.7c-0.1,0.9-0.2,1.8-0.2,2.7l0,0C149.8,35.2,150,36.1,150.3,36.7L150.3,36.7z
	 M161.8,27.8c0-0.1-0.3-0.2-0.8-0.2c-0.5-0.1-1-0.1-1.4-0.1l0,0c-1,0-1.7,0.2-2.2,0.5s-0.8,0.8-0.8,1.3l0,0c0,0.6,0.3,1.2,0.9,1.9
	l0,0c0,0.1,0.2,0.3,0.5,0.7s0.7,0.6,1,0.8l0,0c1.9,0.7,3.1,1.1,3.7,1.3l0,0c2.6,0.9,4.5,1.6,5.7,2l0,0c0.6,0.2,1.1,0.4,1.6,0.4l0,0
	c0.8,0,1.7-0.3,2.8-1l0,0c1.1-0.8,2.2-1.4,3.4-1.9l0,0c0.7-0.3,1.3-0.7,1.6-1.3c0.4-0.5,0.6-1.1,0.6-1.6l0,0c0-0.9-0.5-1.7-1.4-2.3
	l0,0c-0.5-0.3-1.1-0.6-1.8-0.8c-0.7-0.2-1.3-0.3-2-0.3l0,0c-1.6,0-4.1,0.2-7.5,0.4l0,0C163.9,27.7,162.6,27.8,161.8,27.8L161.8,27.8
	z M183.3,57.1c0.3,0.6,0.5,1.1,0.5,1.6l0,0c0,0.6-0.2,1.1-0.5,1.5c-0.4,0.4-0.9,0.7-1.5,0.9l0,0c-1,0.3-1.7,0.5-2,0.6l0,0
	c-0.3,0.1-1.1,0.3-2.4,0.7c-1.3,0.4-2.6,0.6-3.8,0.8l0,0c-0.2,0-0.5,0.1-1,0.1l0,0c-1.3,0-2.6-0.2-3.7-0.7l0,0
	c-0.9-0.3-2.8-1-5.6-2.1l0,0c-1.2-0.6-2.4-1-3.4-1.4l0,0c-1.2-0.5-1.9-1.3-1.9-2.3l0,0c0-0.8,0.1-1.3,0.4-1.6s0.6-0.5,0.9-0.5
	c0.3,0,0.9,0,1.6,0l0,0c0.3,0,0.7,0,1.4,0.1l0,0c0.7,0.1,1.3,0.2,1.8,0.1l0,0c0.4,0,0.8-0.1,1.2-0.3c0.5-0.2,0.7-0.4,0.8-0.7l0,0
	c0.1-0.5,0.1-0.8,0.1-1l0,0c0-1-0.4-1.7-1.3-2.1l0,0l-1.4-0.7c-2.3-1-4-1.9-5.1-2.6l0,0c-0.4-0.2-0.7-0.8-1.1-1.8l0,0
	c0.1-0.6,0.2-1.1,0.3-1.5l0,0c0.1-0.1,0.4-0.2,0.8-0.5c0.4-0.2,0.8-0.4,1.2-0.5l0,0c0.6-0.1,1.6-0.2,2.8-0.2l0,0l2-0.2
	c0.3,0,0.6-0.2,0.8-0.5c0.3-0.3,0.5-0.6,0.7-0.8l0,0c0.1-0.1,0.1-0.3,0.2-0.7c0-0.3,0.1-0.5,0.1-0.7l0,0c0.3-1,0.6-1.7,1-2.1
	s0.9-0.7,1.4-0.7l0,0c0.7,0,1.6,0.3,2.6,1l0,0c1.4,0.9,2.9,1.6,4.6,2.1l0,0c1.7,0.5,2.6,1.6,2.6,3.2l0,0c0,0.7-0.2,1.2-0.6,1.5
	c-0.4,0.3-1,0.6-1.8,0.8l0,0c-0.4,0.1-0.8,0.4-1.2,0.8c-0.4,0.4-0.6,0.9-0.7,1.3l0,0c-0.2,1.2-0.4,3.6-0.7,7.1l0,0l5-0.2
	c1.2,0,2.2,0.1,3,0.3C182.1,55.7,182.7,56.2,183.3,57.1L183.3,57.1z M134.2,58.7c0.4,0,1-0.1,1.7-0.2l0,0c0.7-0.2,1.6-0.8,2.5-1.9
	c0.9-1.1,1.7-2.3,2.4-3.6s1-2.5,1-3.3l0,0c0-0.7-0.2-1.2-0.6-1.7c-0.4-0.4-0.9-0.7-1.4-0.7l0,0c-0.5,0-1,0.2-1.5,0.5l0,0
	c-0.1,0.1-0.8,0.6-2.1,1.6l0,0c-1.8,1.4-3,2.2-3.5,2.5l0,0c-0.7,0.4-1.3,0.9-1.7,1.4s-0.6,1.2-0.6,1.9l0,0c0,1,0.2,1.8,0.7,2.1
	c0.5,0.4,1,0.7,1.7,0.9S133.9,58.6,134.2,58.7L134.2,58.7z"/>
<path d="M215.8,28.8c0,0.7,0.2,1.3,0.7,1.7s1.1,0.7,1.8,0.7l0,0c0.5,0,0.9-0.1,1.2-0.3l0,0c0.9-0.3,1.6-0.8,2.2-1.4l0,0
	c0.4-0.5,0.7-1,1.1-1.7s0.6-1.1,0.7-1.3l0,0c0.1-0.2,0.3-0.5,0.4-0.9s0.3-0.7,0.5-0.9c0.2-0.2,0.5-0.4,0.9-0.6l0,0
	c1-0.4,2-0.5,3.1-0.5l0,0c2,0,3.8,0.5,5.3,1.6l0,0c1,0.7,2.2,1.3,3.5,1.7l0,0c0.3,0.1,0.5,0.2,0.8,0.2l0,0c0.3,0,0.6-0.1,0.8-0.3
	s0.3-0.4,0.3-0.7l0,0l-0.1-0.5c-0.4-1.3-0.9-2.5-1.5-3.5l0,0c-0.6-1.1-1.5-2-2.8-2.6l0,0c-0.9-0.4-1.9-0.7-3-0.7l0,0
	c-0.8,0-1.5,0.1-2.2,0.2l0,0c-1,0.2-1.6,0.2-2,0.2l0,0c-1.8,0-3.3-0.5-4.6-1.6l0,0c-0.3-0.3-0.8-0.6-1.4-0.8l0,0
	c-0.5-0.2-1.1-0.3-1.7-0.3l0,0c-0.8,0-1.5,0.2-2,0.6s-0.9,1-1,1.7l0,0c-0.1,0.7-0.1,1.2-0.1,1.6l0,0c0,0.5,0.1,1,0.2,1.6l0,0
	c0.2,0.6,0.2,1.2,0.2,1.8l0,0c0,0.7-0.2,1.7-0.5,3.1l0,0C216.2,27.3,216,28,215.8,28.8L215.8,28.8z M209,25.7c0.3,0.5,0.4,1,0.4,1.5
	l0,0c0,0.8-0.3,1.4-0.9,1.9c-0.6,0.5-1.3,0.7-2.3,0.7l0,0c0,0-0.5-0.1-1.4-0.5c-0.9-0.3-1.5-0.7-1.9-1l0,0c-1.5-1.3-2.7-2.6-3.7-3.8
	l0,0c-0.4-0.5-0.6-1-0.7-1.6l0,0c-0.1-1.1,0.3-2,1.1-2.6l0,0c1.1-0.3,2.1-0.4,2.8-0.4l0,0c0.3,0,0.7,0,1.3,0.1l0,0
	C206,21.7,207.8,23.6,209,25.7L209,25.7z M232.4,31.2c0,0.8,0.2,1.8,0.5,2.8s0.7,1.8,1.2,2.4l0,0c0.4,0.5,0.9,0.9,1.7,1.2
	c0.7,0.3,1.4,0.4,2.1,0.4l0,0c0.6,0,1.2-0.1,1.7-0.4l0,0c0.5-0.3,0.9-0.7,1.2-1.2s0.4-1.1,0.4-1.7l0,0c0-0.6-0.2-1.1-0.5-1.4l0,0
	c-0.3-0.3-0.7-0.6-1.1-0.8c-0.4-0.2-0.9-0.3-1.3-0.4l0,0c-1-0.2-1.8-0.3-2.4-0.6c-0.6-0.2-1.1-0.6-1.5-1.3l0,0
	c-0.1-0.1-0.2-0.2-0.4-0.3s-0.4-0.1-0.6-0.1l0,0c-0.3,0-0.6,0.3-0.8,0.8l0,0C232.4,30.9,232.4,31,232.4,31.2L232.4,31.2z
	 M226.6,33.4c0-0.2-0.1-0.4-0.1-0.8c0-0.3,0-0.6-0.1-0.7l0,0c-0.2-0.5-0.4-0.9-0.7-1.3c-0.3-0.3-0.7-0.5-1.1-0.5l0,0
	c-0.3,0-0.6,0.1-0.9,0.2l0,0c-0.4,0.2-0.9,0.6-1.3,1.4l0,0c-1.2,1.9-2.3,3.3-3.4,4.3l0,0c-0.4,0.3-0.8,0.8-1.2,1.4
	c-0.4,0.6-0.6,1-0.8,1.2l0,0c-0.2,0.2-0.2,0.5-0.2,0.8l0,0c0,0.5,0.3,1,0.8,1.6l0,0c0.3,0.4,0.8,0.7,1.3,0.7l0,0
	c0.3,0,0.6,0,0.7-0.1l0,0l1.3-0.4c1.6-0.6,3-1.7,4.1-3.2C226,36.5,226.6,35,226.6,33.4L226.6,33.4z M235,60.9c0,1.9,0,3.2-0.1,4.1
	l0,0c-0.2,1.2-0.9,1.7-2.2,1.7l0,0c-0.2,0-0.5,0-1.1-0.1l0,0c-0.5,0-0.9-0.2-1.2-0.4c-0.3-0.2-0.6-0.5-0.6-0.8l0,0
	c-0.2-1-0.4-1.8-0.4-2.4l0,0c-0.1-1-0.2-1.9-0.2-2.9l0,0l-0.1-2c0-0.1-0.1-0.3-0.2-0.4c-0.1-0.1-0.2-0.3-0.2-0.4l0,0
	c-0.5,0.2-0.8,0.3-1,0.5l0,0l-1.1,1.1c-0.4,0.4-0.7,0.8-1.1,1.1l0,0c-0.2,0.3-0.5,0.5-0.9,0.8c-0.3,0.2-0.6,0.4-0.7,0.5l0,0
	c-0.5,0.4-1.1,0.6-1.7,0.6l0,0c-0.5,0-0.9-0.1-1.3-0.2l0,0c-1-0.3-1.4-0.9-1.4-1.7l0,0c0-1.2,0.8-2.4,2.5-3.5l0,0
	c0.8-0.6,1.7-1.3,2.9-2l0,0l1.2-0.8c1-0.8,1.5-1.6,1.5-2.5l0,0c0-1.2-0.8-2.2-2.3-3l0,0c-0.8-0.5-1.3-0.9-1.7-1.3
	c-0.4-0.4-0.6-0.8-0.6-1.3l0,0c0-0.1,0-0.3,0.1-0.6l0,0c0.2-0.6,0.4-1,0.7-1.3c0.3-0.2,0.8-0.4,1.6-0.4l0,0c1.1-0.1,1.8-0.5,2-1.3
	l0,0c0-0.2,0.1-0.4,0.2-0.6l0,0c0.3-1,1-1.5,2.2-1.5l0,0c0.4,0,0.8,0.1,1.1,0.3s0.6,0.5,0.9,0.8l0,0c0.3,0.6,0.7,1,1.3,1.3
	c0.5,0.3,1.2,0.5,2,0.5l0,0c0.6,0,1.1,0.2,1.4,0.5s0.5,0.6,0.5,1.1l0,0c0,0.1,0,0.3-0.1,0.5l0,0c-0.3,1-1.1,1.8-2.4,2.3l0,0
	c-0.7,0.2-1.1,0.7-1.3,1.3l0,0c-0.1,0.5-0.1,0.8-0.1,1l0,0c0,2.2,2.1,3.7,6.2,4.4l0,0c1.5,0.2,2.3,0.7,2.3,1.4l0,0
	c0,0.3-0.2,0.6-0.5,1.1l0,0c-0.7,1-1.7,1.6-2.9,1.6l0,0c-0.6,0-1.1-0.1-1.7-0.2l0,0l-0.5-0.1c-0.4,0-0.7,0.2-0.8,0.6l0,0
	c-0.1,0.5-0.1,1.1-0.1,1.6C235,60.3,235,60.7,235,60.9L235,60.9z M198.4,40.6c-1.2,0.2-2.3,0.4-3.4,0.6l0,0c-0.1,0-0.4,0.1-0.8,0.2
	c-0.4,0.1-0.7,0.3-1,0.5s-0.4,0.5-0.4,0.9l0,0l-0.1,0.5c0,0.4,0.1,0.9,0.3,1.3c0.2,0.4,0.5,0.8,0.9,1l0,0l1.4,1
	c1.1,0.9,2,1.5,2.6,1.8l0,0c0.5,0.3,1,0.4,1.6,0.2l0,0c1.4-0.5,2.5-1,3.2-1.4l0,0c0.7-0.4,1.1-1.1,1.1-1.9l0,0
	c0-1.2-0.6-2.3-1.7-3.3C200.9,41.3,199.7,40.7,198.4,40.6L198.4,40.6z M213,51.6c0.6,0.5,0.9,1,0.9,1.5l0,0c0,0.3-0.1,0.5-0.2,0.8
	l0,0c-0.4,1.2-1.1,2.5-1.9,3.9l0,0c-1.2,1.8-2.1,3.2-2.9,4.3l0,0c-1.1,1.5-2.6,2.3-4.4,2.5l0,0c-0.7,0-1.2,0-1.5-0.1l0,0
	c-1.5-0.3-2.3-0.9-2.5-1.9l0,0c0-0.2-0.1-0.6-0.1-1.2l0,0c0.3-0.8,0.8-1.8,1.4-2.9l0,0l0.5-0.7l1.7-1c3-1.4,5.4-3,7-4.9l0,0
	c0.3-0.4,0.6-0.6,1.1-0.6l0,0C212.6,51.4,212.8,51.5,213,51.6L213,51.6z"/>
<path d="M275.7,13.8c-0.4-2.6-1.3-4.5-2.6-5.9l0,0c-0.6-0.6-1.3-1-2-1l0,0c-0.8,0-1.5,0.4-2.2,1.3l0,0c-0.1,0.2-0.3,0.4-0.6,0.8
	c-0.3,0.3-0.5,0.7-0.6,1.1l0,0c-0.2,0.5-0.2,0.9-0.2,1.1l0,0c0,0.3,0,0.5,0.1,0.6l0,0c0.5,1.3,1.4,3.2,2.7,5.6l0,0
	c0.4,0.7,1,1,1.8,1l0,0c0.2,0,0.4,0,0.8-0.1l0,0c0.8-0.3,1.4-0.8,2-1.7C275.5,15.8,275.8,14.9,275.7,13.8L275.7,13.8z M264.1,20.8
	c0.8,0.1,1.3,0.2,1.7,0.3l0,0c1.5,0.5,3.5,0.7,5.9,0.7l0,0l3.7-0.1c0.7,0,1.4,0.1,2.2,0.2s1.3,0.3,1.6,0.3l0,0
	c0.9,0.2,1.5,0.3,1.9,0.4l0,0c0.3,0.1,0.9,0.2,1.7,0.4c0.8,0.2,1.6,0.3,2.3,0.3l0,0c1.4,0.2,2.4,1,3.1,2.3l0,0
	c0,0.1,0.1,0.2,0.1,0.4l0,0c0,0.5-0.2,0.9-0.5,1.3l0,0c-0.6,0.5-1.4,0.8-2.2,0.8l0,0c-0.4,0-0.8-0.1-1.2-0.2l0,0
	c-2-0.4-3.9-0.7-5.6-0.7l0,0c-2.2,0-4.3,0.3-6.5,0.9l0,0c-1.1,0.3-2.1,0.5-3,0.5l0,0c-1.1,0-2.3-0.2-3.7-0.7l0,0
	c-0.4-0.1-1-0.2-1.7-0.2s-1.1,0-1.4,0l0,0c-0.2,0-0.4,0-0.8,0.1c-0.3,0.1-0.6,0.1-0.8,0l0,0c-1.3-0.1-2-0.7-2-1.8l0,0
	c0-0.4,0.1-0.8,0.2-1.1l0,0c0.1-0.3,0.3-0.7,0.5-1.4c0.2-0.6,0.5-1.1,0.9-1.4l0,0c0.4-0.3,1.1-0.7,2.1-1
	C263.6,20.9,264.1,20.8,264.1,20.8L264.1,20.8z M270.8,38.3c-0.1-0.7-0.3-1.2-0.5-1.6c-0.3-0.4-0.7-0.6-1.2-0.7l0,0
	c-0.8-0.1-2-0.2-3.7-0.2l0,0h-0.2c-0.6,0-1,0.3-1.3,1l0,0c-1.2,3.1-3,6.1-5.3,9l0,0l-5.2,7.1c-0.3,0.5-0.5,1-0.5,1.6l0,0
	c0,0.5,0.2,1,0.6,1.3l0,0c0.2,0.3,0.6,0.5,1.1,0.6s0.9,0.1,1.4,0l0,0c0.6-0.1,1-0.2,1.3-0.2l0,0c0.4,0,0.6,0.1,0.8,0.4
	c0.2,0.2,0.4,0.7,0.6,1.4l0,0c0.6,2,1.2,4,2,6.2l0,0c0.3,1,0.8,1.5,1.4,1.5l0,0c0.3,0,0.7-0.1,1.1-0.4l0,0c1.9-1.4,2.9-3.1,2.9-5
	l0,0c0-0.9-0.3-1.9-0.8-3.2l0,0l-1.1-2.6l-0.9-2.1c-0.3-0.5-0.4-1.1-0.4-1.6l0,0c0-0.9,0.3-1.7,1-2.5l0,0l2-2.7l2.8-3.8
	c0.4-0.6,0.8-1.2,1.2-1.9S270.6,38.6,270.8,38.3L270.8,38.3z M284.4,38.2c-0.6-0.4-1.1-0.7-1.6-0.7l0,0c-0.2,0-0.4,0-0.7,0.1
	s-0.4,0.1-0.5,0.2l0,0c-0.6,0.2-1,0.4-1.3,0.4l0,0c-1.3,0.6-2.4,1.5-3.2,2.5c-0.8,1-1.7,2.4-2.6,4.1l0,0c-0.4,0.9-0.9,1.7-1.3,2.4
	l0,0c-1,1.7-1.7,2.7-2,2.8l0,0c0,0,0,0.1,0.1,0.1s0.1,0.1,0,0.2l0,0c0,0.4,0.2,1,0.7,1.9s0.8,1.4,1.2,1.6l0,0c1,0.6,1.8,0.8,2.5,0.8
	l0,0c0.5,0,1-0.2,1.4-0.5s0.8-0.9,1.2-1.7l0,0l0.5-1.1c0.1-0.3,0.3-0.8,0.7-1.4l0,0c0.4-0.6,1.2-1.7,2.3-3.2l0,0
	c0.7,0.6,1.1,1.1,1.3,1.3c0.2,0.2,0.3,0.5,0.4,0.8s0.1,0.8,0,1.5l0,0c-0.2,0-0.5,0-0.9,0.1c-0.4,0-0.7,0.1-1,0.1l0,0
	c-1.5,0.4-2.3,1.2-2.3,2.2l0,0c0,0.5,0.2,1.1,0.6,1.9l0,0c0.1,0.2,0.3,0.5,0.5,0.9s0.4,0.8,0.6,1.1l0,0l-3.5-0.5
	c-1.2-0.1-2,0.4-2.3,1.7l0,0c-0.1,0.2-0.1,0.4-0.1,0.5l0,0c0,0.4,0.1,0.8,0.4,1.1s0.6,0.5,1,0.7l0,0c0.5,0.2,0.9,0.4,1.4,0.6
	c0.4,0.2,0.8,0.3,1,0.4l0,0l0.2,1.1c0.2,0.7,0.3,1.2,0.5,1.5s0.5,0.4,0.8,0.4l0,0c0.4,0,0.9-0.2,1.7-0.7l0,0c0,0,0.1-0.1,0.4-0.4
	l0,0c0.9-0.9,1.9-1.3,3.1-1.3l0,0c0.5,0,1.2,0.1,2,0.3l0,0l5.5,1.7c0.8,0.3,1.7,0.4,2.7,0.4l0,0c1,0,2-0.2,3-0.6l0,0
	c1.2-0.5,1.7-1.2,1.7-2.2l0,0c0-0.6-0.2-1.1-0.5-1.3c-0.4-0.2-0.9-0.4-1.6-0.6l0,0c-0.8-0.2-2.1-0.5-3.9-0.8l0,0l-4-0.7
	c-1.1-0.2-1.9-0.5-2.3-0.7s-0.6-0.6-0.6-1.2l0,0c0-0.4,0.1-1,0.3-1.9l0,0l0.4-2.3c0.1-0.5,0.2-1.3,0.4-2.3s0.3-2,0.4-2.8l0,0
	c0-0.2,0.1-0.4,0.1-0.7l0,0c0-1.1-0.4-1.9-1.2-2.4l0,0c-1-0.6-1.8-1.3-2.3-2.2C285.1,40.6,284.7,39.5,284.4,38.2L284.4,38.2z"/>
<path d="M325.6,20.5c-0.2-0.7-0.3-1.2-0.3-1.6l0,0c-0.1-0.6-0.2-1-0.2-1.3l0,0c-0.2-0.5-0.4-1-0.6-1.6c-0.2-0.5-0.5-1-0.8-1.3l0,0
	c-0.5-0.6-1-0.9-1.6-0.9l0,0c-0.7,0-1.4,0.4-1.9,1.2l0,0c-0.5,0.8-0.9,1.6-1.2,2.3l0,0c-0.7,1.2-1.1,2-1.3,2.3l0,0
	c-0.4,0.8-0.9,1.3-1.3,1.5l0,0c-0.6,0.3-1,0.7-1.3,1.3s-0.5,1.1-0.5,1.7l0,0c0,0.6,0.2,1.3,0.6,1.8c0.4,0.6,0.9,1.1,1.6,1.4l0,0
	c0,0,0.7,0.3,2.2,0.9l0,0c0,0.2,0.1,0.4,0.1,0.6s0.1,0.5,0.1,0.8l0,0c-0.1,1-0.2,1.8-0.2,2.3l0,0c-0.1,0.7,0.1,1.4,0.5,2.2
	c0.5,0.7,1,1.1,1.6,1.1l0,0c0.9,0,1.6-0.6,2.1-1.9l0,0c0.3-0.6,0.6-1.4,0.9-2.3s0.5-1.7,0.7-2.5l0,0c0.3-0.8,0.6-1.3,0.9-1.6
	s0.9-0.4,1.6-0.5l0,0c0.6,0,1.1,0,1.5,0.1l0,0l1.7,0.1c0.3,0,0.7,0.1,1.3,0.1l0,0c1.1,0,2-0.2,2.7-0.7s1-1.1,1-2l0,0
	c0-1.3-0.8-2.2-2.3-2.6l0,0c-0.4-0.1-0.9-0.2-1.4-0.2s-0.9-0.1-1.2-0.1l0,0l-3.6-0.4L325.6,20.5z M342.9,30l1.9-3.4l1.9,0.5
	c1.7,0.4,2.8,0.7,3.4,0.8l0,0c0.8,0,1.5,0.2,2.1,0.4c0.6,0.2,1.2,0.6,1.7,1.1l0,0c0.7,0.6,1.7,1.2,3.2,1.6l0,0
	c0.1,0,0.3,0.1,0.5,0.1l0,0c0.9,0,1.6-0.5,2-1.6l0,0c0.2-0.4,0.2-0.7,0.2-1l0,0c0-0.4-0.1-0.8-0.3-1.1c-0.2-0.4-0.5-0.6-0.8-0.8l0,0
	c-0.4-0.2-0.8-0.4-1-0.5c-0.3-0.1-0.6-0.3-0.8-0.4l0,0l-1.3-0.5c-0.3-0.2-0.8-0.3-1.3-0.5s-0.9-0.4-1.2-0.6l0,0
	c-1.5-1.6-3.3-2.6-5.5-3.1l0,0c-0.1-0.3-0.2-0.7-0.3-1.1c-0.1-0.4-0.2-0.8-0.3-1.1l0,0c-0.2-0.7-0.7-1.4-1.4-2
	c-0.7-0.6-1.3-0.9-1.9-0.9l0,0c-0.6,0-1.3,0.3-2,0.9c-0.8,0.6-1.3,1.3-1.5,2.1l0,0c0,0.1,0,0.2-0.1,0.4s-0.1,0.3-0.1,0.4l0,0
	c-0.1,0.5-0.2,0.9-0.2,1.2l0,0l-0.2,1.4l-0.7,8.3c-0.1,0.6,0,1,0.4,1.4s0.8,0.6,1.5,0.6l0,0c0.7,0,1.3-0.4,1.7-1.1l0,0
	C342.4,31.3,342.6,30.8,342.9,30L342.9,30z M332.4,33.7c0-1-0.4-1.9-1.2-2.7c-0.8-0.8-1.7-1.2-2.8-1.2l0,0c-0.6,0-1.1,0.3-1.5,0.7
	s-0.5,1.1-0.5,1.9l0,0c0,1,0.4,1.8,1.1,2.7s1.5,1.2,2.4,1.2l0,0c0.7,0,1.3-0.3,1.8-0.8C332.1,35,332.4,34.4,332.4,33.7L332.4,33.7z
	 M350.7,34.1c0-0.2,0.1-0.4,0.1-0.7l0,0c0-0.8-0.3-1.5-0.8-2s-1.2-0.8-1.9-0.8l0,0c-0.7,0-1.4,0.3-2,1s-1,1.4-1,2.3l0,0
	c0,0.4,0.1,0.9,0.2,1.5l0,0c0.2,0.8,0.6,1.3,1.1,1.8s1.1,0.6,1.6,0.6l0,0c0.8,0,1.4-0.2,1.8-0.7s0.6-1.2,0.7-2.3l0,0
	C350.7,34.7,350.7,34.4,350.7,34.1L350.7,34.1z M353.5,52.1c0.2-1.7-0.1-3.3-0.8-4.9c-0.7-1.6-1.6-2.7-2.9-3.5l0,0
	c-0.6-0.4-0.9-0.6-1-0.7l0,0c-0.2-0.1-0.6-0.5-1.4-1s-1.5-1.1-2-1.8l0,0c-0.6-0.7-1.7-1.2-3.3-1.6l0,0c-1.1-0.1-2.2-0.2-3.3-0.2l0,0
	c-0.6,0-1.5,0-2.8,0.1l0,0c-0.5,0-1,0.2-1.5,0.5s-1,0.6-1.4,1l0,0c-0.4,0.3-0.7,0.8-0.7,1.4l0,0c0,0.5,0.2,1,0.5,1.5l0,0
	c0.4,0.4,0.9,0.7,1.4,0.7l0,0c0.4,0,0.8-0.1,1.2-0.3l0,0c1-0.6,1.6-1.1,1.9-1.5l0,0c0.4-0.5,0.9-0.7,1.3-0.7l0,0
	c0.4,0,0.8,0.2,1.2,0.6l0,0c0.4,0.3,1,1,1.8,2l0,0c0.9,1,2.2,2.6,3.8,4.7l0,0c0.1,0.2,0.4,0.4,0.7,0.8c0.4,0.4,0.6,0.7,0.7,1.1l0,0
	c1,3.2,1.8,6,2.2,8.5l0,0c0.1,0.5,0.1,0.8,0.1,1l0,0c0,1-0.2,1.9-0.7,2.9l0,0c-0.1,0.3-0.5,0.5-1,0.8c-0.6,0.3-1,0.5-1.3,0.6l0,0
	c-0.4,0.2-0.6,0.3-0.7,0.4l0,0c-0.1,0.2-0.3,0.5-0.5,0.9s-0.3,0.7-0.3,0.9l0,0c0.4,0.9,0.9,1.5,1.5,1.7l0,0c0.6,0.2,1.2,0.4,1.8,0.4
	l0,0c1.1,0,2.2-0.3,3.1-1c1-0.7,1.6-1.5,1.9-2.5l0,0c0.5-1.8,0.7-3.6,0.7-5.5l0,0c0-1.1-0.1-2.8-0.2-4.9l0,0
	C353.6,54,353.6,53.2,353.5,52.1L353.5,52.1z M326.5,47.7c1.1,0,1.9-0.2,2.6-0.8c0.6-0.6,1-1.4,1-2.3l0,0c0-1.1-0.5-2.2-1.4-3.2
	s-1.9-1.5-3.1-1.5l0,0c-0.7,0-1.2,0.2-1.7,0.5s-0.7,0.9-0.7,1.6l0,0c0,1.2,0.5,2.7,1.5,4.5l0,0c0.2,0.4,0.5,0.6,0.9,0.8
	S326.4,47.6,326.5,47.7L326.5,47.7z M338.5,54.9v-0.8c-0.8-0.2-1.4-0.6-1.8-1.1s-0.8-1.2-1.1-2.2l0,0c-0.1-0.4-0.4-0.7-0.9-1
	s-0.9-0.5-1.2-0.5l0,0c-0.7,0-1.2,0.5-1.5,1.6l0,0c-0.1,0.4-0.2,0.9-0.5,1.6c-0.2,0.7-0.3,1.2-0.3,1.7l0,0c0,0.8,0.2,1.4,0.7,2l0,0
	c0,0.1,0.1,0.4,0.1,0.7l0,0c0.2,1.3,0.6,2.4,1.3,3.1c0.7,0.8,1.5,1.4,2.4,1.9c0.8,0.5,1.4,0.9,1.6,1l0,0c0.3,0.2,0.7,0.2,1.1,0.2
	l0,0l0.5,0.1c1.1,0,2.2-0.4,3.3-1.2c1.1-0.8,1.6-1.6,1.6-2.5l0,0v-7.4c-0.1-2.2-0.7-3.9-1.8-5.1l0,0c-0.9-0.9-2-1.4-3.1-1.4l0,0
	c-1.1,0-1.9,0.3-2.4,0.8s-0.7,1.5-0.7,2.9l0,0c0.9-0.1,1.5,0.1,1.9,0.5c0.4,0.5,0.7,1.2,1,2.2l0,0c0.1,0.4,0.3,0.8,0.5,1.3
	s0.4,1,0.5,1.4l0,0c0,0.2,0.1,0.4,0.2,0.8c0.1,0.4,0.1,0.7,0.1,0.9l0,0c0,0.3-0.1,0.5-0.2,0.7l0,0c-0.2,0.5-0.6,0.9-1.2,1
	c-0.5,0.2-1.1,0.2-1.8,0.1l0,0c-0.2,0-0.3-0.1-0.5-0.3c-0.2-0.1-0.3-0.3-0.4-0.4l0,0l-0.1-0.2c0-0.3,0.2-0.6,0.5-1l0,0L338.5,54.9z
	 M328,57.6c0.1-0.6,0.2-1.2,0.2-1.7l0,0c0-1.7-0.5-3.3-1.6-4.9l0,0c-0.7-0.7-1.3-1.1-1.8-1.1l0,0c-0.3,0-0.6,0.2-0.9,0.6
	c-0.3,0.4-0.5,0.8-0.6,1.2l0,0c-0.1,0.4-0.2,0.8-0.2,1.2l0,0c0,1.3,0.2,3.1,0.6,5.5l0,0c0.2,0.7,0.3,1.2,0.3,1.7l0,0
	c0.2,1.1,0.5,2,0.8,2.7l0,0c0.6,1.1,1.3,1.7,2.1,1.7l0,0c0.2,0,0.5-0.1,0.9-0.2l0,0c0.7-0.4,1.1-1,1.1-1.8l0,0
	c0-0.4-0.1-0.8-0.2-1.2l0,0l-0.4-1.7C328.2,58.6,328.1,58,328,57.6L328,57.6z"/>
<path d="M378,24.2c-0.4-0.3-0.7-0.8-0.7-1.4l0,0c0-0.6,0.2-1.2,0.5-1.9l0,0c0.4-0.7,0.7-1.7,1-2.9l0,0c0.1-0.2,0.2-0.5,0.2-0.9
	c0.1-0.4,0.2-0.7,0.3-1l0,0c0-0.1,0.1-0.5,0.2-1s0.2-1,0.4-1.4s0.3-0.8,0.5-1.1l0,0c0.2-0.3,0.6-0.6,1-1c0.4-0.3,0.8-0.5,1.2-0.5
	l0,0c0.3,0,0.7,0.2,1.1,0.5s0.7,0.6,0.8,0.9l0,0c0.3,0.5,0.5,1.1,0.7,1.8s0.3,1.1,0.3,1.3l0,0l0.5,1.9c0.3,0.5,0.6,0.8,0.8,1l0,0
	l2.1,0.9c1.1,0.6,2,1,2.8,1.3s1.7,0.4,2.6,0.4l0,0c0.6,0,1.1,0,1.4-0.1l0,0c0.6-0.1,1.1,0,1.4,0.5c0.4,0.4,0.5,0.9,0.5,1.4l0,0
	c0,0.3-0.2,0.6-0.6,0.9s-0.8,0.6-1.2,0.9l0,0c-0.2,0.1-0.4,0.1-0.6,0.1l0,0c-0.4,0-0.9-0.1-1.5-0.2l0,0c-1,0.1-1.9,0.2-2.5,0.3l0,0
	c-0.6,0.1-1.2,0.2-1.8,0.2l0,0c-2,0-3.7-0.6-5.3-1.8l0,0c-0.5-0.4-1-0.6-1.4-0.6l0,0c-0.5,0-1,0.3-1.3,1l0,0c-0.3,0.7-1,1-2,1l0,0
	C378.9,24.7,378.4,24.5,378,24.2L378,24.2z M417.6,27.1c1.1,0.4,1.6,0.9,1.6,1.7l0,0c0,0.6-0.1,1.2-0.4,1.7s-0.7,0.7-1.2,0.6l0,0
	c-0.9-0.1-1.5-0.1-1.9-0.1l0,0c-0.8,0-1.5,0-1.9,0.1l0,0l-1.9,0.1c-1.2,0-2.4-0.1-3.4-0.4s-1.9-0.8-2.8-1.6l0,0
	c-0.6-0.4-1.1-0.7-1.6-0.7l0,0c-0.7,0-1.5,0.5-2.3,1.4l0,0c-0.3,0.3-0.7,0.5-1.1,0.8c-0.4,0.2-0.8,0.3-1,0.3l0,0
	c-0.3,0-0.6-0.2-0.9-0.6s-0.5-0.7-0.6-1l0,0c0-2.8,0.7-5.4,2.2-7.7l0,0c0.7-1,1.2-2.4,1.7-4.3l0,0c0.3-1,0.6-1.6,1-2
	s0.9-0.6,1.6-0.5l0,0c0.8,0.1,1.3,0.4,1.6,0.9c0.3,0.5,0.4,1.2,0.3,2.2l0,0c0,0.4,0.1,0.9,0.1,1.6l0,0c0,0.6,0,1.3,0.1,1.9
	c0,0.6,0.2,1.2,0.4,1.6l0,0c0.3,0.7,1.3,1.4,2.9,2l0,0c1.4,0.5,3.4,1,5.9,1.6l0,0C416.6,26.9,417.2,27,417.6,27.1L417.6,27.1z
	 M387.9,46.3c-0.4-0.1-0.7-0.2-0.8-0.4c-0.2-0.2-0.3-0.5-0.5-0.8l0,0c-0.2-0.6-0.6-1.1-1-1.4l0,0c0,0-0.2,0-0.5-0.1s-0.6-0.1-1-0.1
	l0,0c-1.4,0.1-2.6-0.1-3.6-0.6s-1.4-1.3-1.3-2.4l0,0c0.1-1.2-0.1-2.1-0.6-2.5s-1.2-0.8-2.2-1l0,0c-0.7-0.2-1.2-0.4-1.5-0.6
	c-0.3-0.2-0.5-0.6-0.5-1.1l0,0c0-0.4,0.1-0.7,0.3-0.9c0.2-0.2,0.5-0.2,0.9-0.2l0,0l1.5,0.1c0.6,0,1.1-0.1,1.4-0.2l0,0
	c0.4-0.1,0.8-0.4,1.1-0.9c0.3-0.5,0.7-1.2,1.1-2.1l0,0c0.1-0.2,0.3-0.7,0.8-1.5c0.4-0.8,0.9-1.6,1.5-2.4l0,0
	c0.9-0.8,2.1-1.2,3.5-1.2l0,0c1.6,0,3,0.5,4.3,1.4c1.3,1,2.1,2.2,2.2,3.6l0,0c0.1,0.2,0.1,0.4,0.1,0.6l0,0c0,0.3,0,0.6-0.1,0.9
	s-0.1,0.6-0.1,0.9l0,0c0.2,0.1,0.7,0.2,1.5,0.5l0,0c0.1,0,0.4,0.1,0.7,0.2c0.4,0.1,0.6,0.3,0.7,0.5l0,0c0.2,0.3,0.3,0.6,0.3,0.7l0,0
	c0,0.3-0.1,0.5-0.4,0.6s-0.7,0.3-1.2,0.5l0,0c-0.8,0.2-1.3,0.5-1.6,0.8l0,0c0,0.2,0,0.6-0.1,1.2c0,0.5,0,0.8,0.1,0.9l0,0
	c0.8,0.2,1.5,0.4,1.9,0.7c0.5,0.3,0.7,0.6,0.7,1l0,0c0,0.4-0.2,0.7-0.7,0.9c-0.4,0.3-1.1,0.4-1.9,0.4l0,0c-1,0.2-1.7,0.5-2.2,0.9
	s-0.8,1-1.1,1.7l0,0c-0.3,0.5-0.5,0.8-0.8,1.1C388.7,46,388.3,46.2,387.9,46.3L387.9,46.3z M383.5,29.8c-0.3,0.3-0.5,0.7-0.7,1.2
	s-0.4,1-0.5,1.3c-0.1,0.4-0.2,0.7-0.3,1l0,0c2,0.4,3.4,0.5,4.1,0.5l0,0c0.5,0,0.9-0.1,1.4-0.2c0.5-0.1,1.1-0.3,1.9-0.7l0,0
	c0-0.4-0.2-1.3-0.5-2.7l0,0c-0.2-0.4-0.6-0.7-1.1-1s-0.9-0.5-1.3-0.7l0,0c-0.6,0-1.1,0-1.7,0.3C384.2,29.2,383.8,29.5,383.5,29.8
	L383.5,29.8z M387.4,32.5c-0.2,0.6-0.6,0.8-1,0.8l0,0c-0.2,0-0.5-0.1-1-0.3l0,0c-0.8-0.5-1.2-1-1.2-1.5l0,0c0-0.1,0-0.3,0.1-0.5l0,0
	c0.2-0.4,0.6-0.7,1-0.7l0,0c0.2,0,0.4,0.1,0.6,0.2l0,0c0.5,0.3,0.9,0.6,1.2,1C387.5,31.9,387.6,32.2,387.4,32.5L387.4,32.5z
	 M411.9,40.2c0.8,0.3,1.3,0.6,1.6,0.8l0,0c0.6,1,0.8,1.8,0.6,2.2l0,0c-0.1,0.3-0.4,0.6-0.8,0.8c-0.4,0.3-0.8,0.4-1,0.4l0,0
	c-0.3,0-0.7-0.1-1.3-0.1l0,0c-1.7-0.1-3.1-0.3-4.1-0.5c-1.1-0.2-2.1-0.7-3-1.5l0,0c-0.2-0.1-0.5-0.2-0.9-0.2l0,0
	c-0.5,0-1.1,0.1-1.8,0.3l0,0c-0.4,0.2-0.9,0.2-1.3,0.2l0,0c-1,0-1.8-0.5-2.2-1.6l0,0c-0.2-0.5-0.2-0.8-0.2-0.9l0,0
	c0-0.4,0.1-0.6,0.4-0.8c0.2-0.2,0.6-0.4,1.1-0.6l0,0c0.5-0.2,0.8-0.4,1.1-0.6l0,0c-0.2-0.2-0.4-0.4-0.6-0.6s-0.4-0.4-0.5-0.6l0,0
	c-0.1-0.2-0.3-0.5-0.6-1c-0.3-0.5-0.4-0.8-0.3-1.1l0,0c0.2-0.4,0.6-0.7,1.1-1s0.9-0.5,1.1-0.3l0,0c0.6,0.1,1.2,0.2,1.7,0.2l0,0
	c0.7,0,1.3-0.2,1.9-0.5c0.5-0.3,1-0.8,1.4-1.6l0,0c0.1-0.2,0.5-0.3,1-0.3l0,0c0.4,0,0.9,0.1,1.4,0.2l0,0c0.2,0.1,0.4,0.3,0.6,0.8
	c0.2,0.4,0.3,0.7,0.3,0.9l0,0v0.2c0,0.1,0,0.2-0.1,0.5l0,0c-0.2,1.4-0.2,2.2-0.2,2.4l0,0c0,0.9,0.2,1.6,0.7,2.1
	C409.4,38.8,410.4,39.4,411.9,40.2L411.9,40.2z M382.2,38.1c0,0.2,0.3,0.5,1,0.8c0.7,0.4,1.2,0.6,1.5,0.7l0,0
	c-0.2-0.4-0.4-0.8-0.4-1.1l0,0c0-0.4,0.2-0.7,0.5-1l0,0c0.2-0.2,0.4-0.3,0.7-0.3l0,0c0.4,0,0.7,0.2,0.9,0.5l0,0
	c0.3,0.3,0.5,0.7,0.6,1.1c0.1,0.4,0.2,0.7,0.1,1l0,0h0.2h0.1c0.5,0,0.9-0.3,1.1-0.8l0,0c0.2-0.1,0.3-0.3,0.3-0.5l0,0
	c0-0.2-0.1-0.5-0.3-0.8c-0.2-0.3-0.3-0.5-0.4-0.7l0,0c-0.1,0-0.5-0.1-1.3-0.2c-0.7-0.1-1.4-0.2-2.2-0.2l0,0
	C383.1,36.7,382.2,37.2,382.2,38.1L382.2,38.1z M402.4,56.1c0.3-0.1,0.6-0.1,0.7-0.1l0,0c0.5,0,1,0.1,1.4,0.5s0.6,0.8,0.6,1.4l0,0
	c0,0.8-0.4,1.3-1.3,1.6l0,0c-0.6,0.3-0.8,0.6-0.8,1l0,0c0,0.2,0.1,0.4,0.2,0.7l0,0c0.4,1,0.6,2.1,0.6,3.1l0,0c0,2-0.8,3.7-2.4,5.3
	l0,0c-0.8,0.9-1.8,1.4-3.1,1.4l0,0c-0.6,0-1.2-0.1-1.7-0.4l0,0c-0.4-0.2-0.6-0.4-0.8-0.8c-0.2-0.3-0.3-0.7-0.3-1l0,0
	c0-0.6,0.3-1,0.8-1.1l0,0c0.8-0.3,1.3-0.7,1.5-1.2s0.3-1,0.3-1.6s0-1,0-1.2l0,0c0-0.2,0-0.4-0.1-0.6c-0.1-0.3-0.1-0.5-0.2-0.7l0,0
	c-0.8-0.1-1.5-0.1-2.1-0.2s-1.1,0-1.5,0l0,0c-1.2,0-2.2-0.5-3.1-1.5s-1.3-2-1.3-3.1l0,0c0-0.6,0.1-1.1,0.4-1.6l0,0
	c0.1-0.3,0.2-0.6,0.2-0.8l0,0c0-0.3-0.2-0.7-0.5-1.1l0,0c-1.1-1.1-1.6-2.6-1.6-4.5l0,0c0-0.6,0-1,0.1-1.3l0,0
	c0.1-1.1,0.9-1.9,2.2-2.4l0,0l1.4-0.4c1.2-0.4,2.7-0.8,4.3-1.3l0,0c0.7-0.1,1.1-0.2,1.3-0.2l0,0c0.6,0,1.1,0.2,1.4,0.7l0,0
	c0.2,0.4,0.1,0.9-0.2,1.4c-0.4,0.5-0.8,0.9-1.4,1.2l0,0c-0.4,0.1-0.7,0.2-1,0.3s-0.7,0.2-1,0.3l0,0c-0.6,0.3-1.1,0.6-1.4,0.8
	s-0.4,0.5-0.4,0.7l0,0c0,0.4,0.4,1,1.1,1.8l0,0c0.3-0.2,0.6-0.5,1.1-0.9s0.9-0.7,1.3-0.9l0,0c1.4-0.7,2.4-1,3.2-1.1l0,0
	c0.3,0,0.6,0.1,1,0.4s0.7,0.6,0.9,0.8l0,0c0,0.2-0.1,0.5-0.3,0.9s-0.5,0.7-0.8,0.9l0,0c-0.8,0.4-1.5,0.9-1.9,1.3
	c-0.4,0.4-0.6,1-0.7,1.8l0,0c0,0.2-0.2,0.5-0.6,0.8s-0.6,0.5-0.8,0.7l0,0c-0.1,0-0.3,0.2-0.6,0.4s-0.5,0.3-0.4,0.4l0,0
	c0.2,0.6,0.5,1.1,1.1,1.7l0,0h0.1c0.1,0,0.3-0.1,0.6-0.2c0.3-0.1,0.5-0.2,0.6-0.2l0,0c0.4-0.2,1-0.4,1.9-0.8
	C400.9,56.6,401.7,56.3,402.4,56.1L402.4,56.1z M412.3,54c-0.1,0.9-0.5,1.6-1.1,2.2c-0.6,0.5-1.4,0.8-2.2,0.8l0,0
	c-0.6,0-1.1-0.1-1.6-0.4l0,0c-0.3-0.2-0.6-0.4-1-0.7s-0.7-0.5-0.9-0.8l0,0c-0.9-0.6-1.4-1.3-1.4-2.1l0,0c0-0.5,0.2-1,0.5-1.4l0,0
	c0.3-0.4,0.6-0.8,1.1-1s0.9-0.4,1.4-0.4l0,0c0.6,0,1.2,0.1,1.7,0.4l0,0c0.1,0,0.5,0.2,1.1,0.5s1.1,0.7,1.5,1.2l0,0
	c0.2,0.2,0.4,0.5,0.5,0.8C412.1,53.5,412.3,53.8,412.3,54L412.3,54z M409.3,62c1.1,0.2,2,0.6,2.6,1.2c0.7,0.6,1.2,1.3,1.7,2.2l0,0
	c0.2,0.2,0.2,0.5,0.2,0.8l0,0c0,0.6-0.3,1.1-0.8,1.6s-1.1,0.7-1.7,0.7l0,0c-0.9,0-1.7-0.2-2.3-0.6c-0.6-0.4-1.2-0.8-1.6-1.3
	c-0.5-0.5-0.8-0.8-1-1l0,0c-0.1-0.2-0.2-0.4-0.2-0.8l0,0c0-0.7,0.1-1.2,0.4-1.6l0,0c0.3-0.3,0.7-0.6,1.4-0.8
	C408.7,62.2,409.1,62.1,409.3,62L409.3,62z M390.1,62.7c0.6,0.1,1.2,0.4,1.6,1.1c0.4,0.6,0.6,1.3,0.5,2l0,0
	c-0.2,0.8-0.5,1.4-0.9,1.9c-0.5,0.4-1,0.7-1.7,0.7l0,0c-0.7,0-1.3-0.3-1.9-0.9c-0.5-0.6-0.8-1.2-0.7-1.9l0,0c0.1-1,0.5-1.7,1-2.2
	C388.5,62.7,389.2,62.5,390.1,62.7L390.1,62.7z"/>
</svg>
