<svg viewBox="0 0 559 80" xmlns="http://www.w3.org/2000/svg"><path d="M21.18 17.83H15.7q4.77-3.99 5.68-3.99h25.58q-.41.06-1.25.79-.83.74-1.42 1.25-.58.51-1.14.92-1.32 1.03-1.9 1.03H26.89v15.93H41.1q-.38.06-1.23.81t-1.44 1.24q-.58.5-1.14.94-1.29 1.03-1.9 1.03h-8.5v6.85q0 5.28-2.11 7.39h9.41q-.41.05-1.25.79-.83.73-1.42 1.24t-1.14.95q-1.32 1-1.91 1h-9.93q2.64-4.1 2.64-7V37.78h-4.1q2.05-1.64 4.1-3.23V17.83zm47.63 12.86q1.5 1.7 2.33 3.88.84 2.18.84 4.38 0 2.2-.65 4.29-.64 2.1-1.8 4.03-1.15 1.93-2.72 3.62-1.57 1.68-3.44 2.94-3.99 2.67-8.06 2.67-4.78 0-8.12-3.72-3.25-3.58-3.25-8.38 0-4.1 2.49-8.23 3.72-6.27 10.14-8.47 2.05-.73 4.33-.73 2.29 0 4.35 1.01 2.07 1.01 3.56 2.71zm-13.85.2q-2.93 0-4.28 2.84-1.05 2.23-1.05 5.04 0 2.82.74 5.23.75 2.42 2.21 4.32 3.26 4.28 8.38 4.28 2.99 0 4.34-2.99.97-2.22.97-5.12 0-5.66-3.15-9.63-3.15-3.97-8.16-3.97zm24.69 23.12l.03-18.84q0-1.96-.52-2.64-.91-1.17-2.52-1.17-1.61 0-2.87.47.76-.29 1.99-1.38 2.25-2.08 3.19-2.43 1.76-.7 3.09-.7 1.34 0 1.99.44.66.44.96 1.17.38.91.38 3.46 5.48-4.84 10.25-4.84 2.61 0 4.54 1.64 2.02 1.76 2.02 4.28v14.47q0 2.17.47 2.99.88 1.55 2.93 1.55 1.17 0 2.23-.44-2.61 2.26-3.6 2.91-2.29 1.49-4 1.49-1.72 0-2.44-.62-.71-.61-1.01-1.55-.32-1.02-.32-4.19V39.13q0-5.25-3.43-6.92-1.23-.58-2.96-.58-4.24 0-4.59 6.29-.09 1.59-.09 2.85v9.05q0 1.87 1.14 2.55.41.26 1.03.26.61 0 1.28-.29-.61.53-1.46 1.26T85.57 55q-2.31 1.59-3.69 1.59-2.23 0-2.23-2.58zm39.85-24.67q2.05-1.14 4.3-1.77 2.26-.63 3.81-.63 1.56 0 2.73.2v-9.61q0-3.13-1.14-4.16-.53-.47-1.29-.47-.91 0-2.67.44 7.35-5.59 10.78-7.35v41.89q0 2.38.5 3.14.88 1.46 3.05 1.46.88 0 1.72-.17-.84.67-1.68 1.4-.83.74-1.74 1.35-2.08 1.41-3.66 1.41-1.59 0-2.28-.29-.68-.3-1.06-.85-.59-.85-.59-3.2-6.01 4.46-9.64 4.46-5.36 0-8.2-3.58-2.64-3.28-2.64-8.79 0-4.51 2.81-8.61 2.61-3.9 6.89-6.27zm10.84 20.3v-14.5q-1.32-2.11-3.43-3.19-2.11-1.09-4.39-1.09-2.29 0-3.64.78-1.34.78-2.11 2.07-1.31 2.22-1.31 5.58 0 3.35.58 5.62.59 2.27 1.85 4 2.75 3.72 8.05 3.72 1.15 0 2.26-.67 2.14-1.23 2.14-2.32zm33.69-14.24v11.93l-.06 2.05q0 2.28 1.29 2.9.5.23 1.14.23 1.03 0 2.11-.47-1.11.47-1.93 1.24-.82.76-1.67 1.49-2.11 1.76-4.25 1.76t-2.28-2.46q-.06-.65-.06-1.29-5.28 3.66-9.67 3.66-3.72 0-5.16-2.26-.53-.82-.53-2.25 0-1.44.88-2.89.88-1.45 2.23-2.65 2.4-2.23 5.8-3.66 2.52-1.09 6.48-1.23v-1.29q0-4.66-.85-6.3-.85-1.64-2.2-2.42-1.35-.77-3.17-.77-3.07 0-5.42 1.2 3.23-2.67 4.72-3.52 3.08-1.73 5.58-1.73 2.51 0 3.77.74 1.26.73 1.99 1.93 1.26 2.11 1.26 6.06zm-13.77 16.13q.7.51 1.64.75.94.23 2.78.23 1.85 0 3.67-.88v-6.15h-4.75q-2.55 0-4.45.35-.38 1.26-.38 2.41 0 1.14.39 1.96.4.82 1.1 1.33zm44.82-19q6.51-4.98 9.91-4.98 2.28 0 3.6 1.91 1.14 1.61 1.14 4.01v14q0 2.67.32 3.46.71 1.55 2.99 1.55 1.17 0 2.23-.44-2.61 2.26-3.6 2.91-2.29 1.49-4 1.49-1.72 0-2.43-.6-.72-.6-1.02-1.54-.32-1.02-.32-4.22V39.04q0-3.23-.6-4.62-.6-1.39-1.48-2.09t-2.06-.7q-1.19 0-1.83.35-.65.35-1.12.9-1.76 2.08-1.76 6.74v8.32q0 2.17.47 2.99.88 1.55 2.93 1.55 1.18 0 2.23-.44-2.61 2.26-3.6 2.91-2.29 1.49-4 1.49-1.72 0-2.43-.6-.72-.6-1.02-1.54-.32-1.02-.32-4.22V39.04q0-3.23-.6-4.62-.6-1.39-1.48-2.09t-2.11-.7q-1.23 0-1.9.46-.68.47-1.16 1.25-.48.78-.77 1.76-.3.98-.47 2-.27 1.76-.27 3.67v9.05q0 1.87 1.15 2.55.41.26 1.02.26.62 0 1.29-.29-3.37 2.9-4.75 3.57-1.37.68-2.19.68-2.23 0-2.23-2.58V37.13q0-1.02.03-2.05.03-1.02-.21-1.87-.55-1.85-3.19-1.85-1.26 0-2.52.47.76-.26 1.96-1.38 2.35-2.11 3.26-2.46 1.87-.67 3.15-.67 1.27 0 1.93.47.66.47.95 1.2.35.91.35 3.51 3.81-3.01 7.39-4.42 1.34-.53 2.43-.53 1.08 0 1.92.41.83.41 1.42 1.12 1.2 1.43 1.37 3.45zm44.42 18.05q-4.02 4.48-9.96 5.6-1.38.23-3.4.23t-3.81-1.13q-1.79-1.13-2.93-2.91-2.17-3.46-2.17-8.44 0-3.28 2.52-7.27 2.46-3.92 6.01-6.56 3.81-2.81 7.2-2.81 1.76 0 2.96 1.29 1.12 1.26 1.12 2.87t-.71 2.97q-.7 1.37-1.83 2.65-1.12 1.29-2.58 2.48-1.45 1.19-2.97 2.21-2.14 1.47-5.39 3.31.94 3.55 3.31 5.47t6.12 1.92q3.17 0 6.51-1.88zm-8.85-11.75q.79-1.26.79-2.46t-.26-2.04q-.27-.83-.76-1.47-1.15-1.47-2.96-1.47-4.46 0-4.46 9.08 0 1.61.27 3.2 5.15-1.44 7.38-4.84zm15.59 15.18l.03-18.84q0-1.96-.53-2.64-.91-1.17-2.52-1.17-1.61 0-2.87.47.76-.29 1.99-1.38 2.26-2.08 3.19-2.43 1.76-.7 3.09-.7 1.34 0 2 .44.66.44.95 1.17.38.91.38 3.46 5.48-4.84 10.25-4.84 2.61 0 4.54 1.64 2.03 1.76 2.03 4.28v14.47q0 2.17.46 2.99.88 1.55 2.93 1.55 1.18 0 2.23-.44-2.61 2.26-3.6 2.91-2.29 1.49-4 1.49-1.72 0-2.43-.62-.72-.61-1.01-1.55-.33-1.02-.33-4.19V39.13q0-5.25-3.42-6.92-1.23-.58-2.96-.58-4.25 0-4.6 6.29-.09 1.59-.09 2.85v9.05q0 1.87 1.14 2.55.41.26 1.03.26.61 0 1.29-.29-.62.53-1.47 1.26t-1.79 1.4q-2.31 1.59-3.69 1.59-2.22 0-2.22-2.58zm33.1-23.41h-3.81l3.81-2.99v-4.16q1.58-1.11 2.26-1.7.67-.58 1.14-.85.47-.26.97-.55 1.26-.74 1.34-.88v7.15h9.38q-.38.02-1.93 1.4-2.96 2.58-3.75 2.58h-3.7v15.7q0 5.39 3.11 6.24.94.24 1.76.24 1.35 0 2.28-.4.94-.39 1.56-.72-1.79 2.73-5.01 4.16-1.67.74-3.59.74t-2.98-.68q-1.05-.67-1.7-1.75-1.14-2-1.14-5.28V30.6zm41.81.09q1.49 1.7 2.33 3.88.83 2.18.83 4.38 0 2.2-.64 4.29-.65 2.1-1.8 4.03-1.16 1.93-2.73 3.62-1.57 1.68-3.44 2.94-3.99 2.67-8.06 2.67-4.77 0-8.11-3.72-3.25-3.58-3.25-8.38 0-4.1 2.49-8.23 3.72-6.27 10.13-8.47 2.05-.73 4.34-.73 2.28 0 4.35 1.01 2.06 1.01 3.56 2.71zm-13.86.2q-2.93 0-4.28 2.84-1.05 2.23-1.05 5.04 0 2.82.75 5.23.74 2.42 2.21 4.32 3.25 4.28 8.38 4.28 2.99 0 4.33-2.99.97-2.22.97-5.12 0-5.66-3.15-9.63-3.15-3.97-8.16-3.97zm40.46-17.05h14.18q13.53 0 13.53 8.82 0 4.28-3.63 7.97-2.87 2.9-7.44 5.1 2.29.9 4.51 3.37.62.7 1.29 1.43l7.62 8.44q1.99 2.25 2.88 2.69.9.44 1.48.44 1.35 0 2.82-.93-3.52 4.98-8.73 4.98-1.32 0-2.61-1.5-.32-.38-.68-.76l-7.82-8.64q-1.67-1.85-2.84-3.09-1.17-1.25-2.31-2.01-2.17-1.44-5.92-1.44v5.92q0 2.87-.24 3.84-.38 1.44-1.84 3.55h9.37q-.38.05-1.21.79-.84.73-1.42 1.24-.59.51-1.15.95-1.31 1-1.9 1h-9.64q2.34-2.58 2.34-7V17.83h-6.32l1.11-.91q3.75-3.08 4.57-3.08zm22.03 13.07q0-2.52-1.08-4.25-1.09-1.73-2.82-2.81-3.22-2.02-8.17-2.02h-3.63v16.78h4.57q5.24 0 7.73-1.32 3.4-1.78 3.4-6.38zm37.71 23.67q-4.02 4.48-9.96 5.6-1.38.23-3.4.23t-3.81-1.13q-1.79-1.13-2.93-2.91-2.17-3.46-2.17-8.44 0-3.28 2.52-7.27 2.46-3.92 6.01-6.56 3.8-2.81 7.2-2.81 1.76 0 2.96 1.29 1.12 1.26 1.12 2.87t-.71 2.97q-.7 1.37-1.83 2.65-1.13 1.29-2.58 2.48-1.45 1.19-2.97 2.21-2.14 1.47-5.39 3.31.94 3.55 3.31 5.47t6.12 1.92q3.17 0 6.51-1.88zm-8.85-11.75q.79-1.26.79-2.46t-.26-2.04q-.27-.83-.77-1.47-1.14-1.47-2.95-1.47-4.46 0-4.46 9.08 0 1.61.27 3.2 5.15-1.44 7.38-4.84zm28.65-11.51l8.53.2q1.58 0 2.57-.61-.05.99-2.28 2.46-1.85 1.23-3.16 1.55 1.11 2.14 1.11 4.66t-.98 4.48q-.98 1.97-2.46 3.46t-3.21 2.61q-1.73 1.11-3.21 2.02-1.48.91-2.46 1.7-.98.79-.98 1.57 0 .77.33 1.33.34.55.87.96.97.8 2.04 1.21 1.06.41 2.4.87 1.33.47 2.85 1.1 1.53.63 3.11 1.38 1.58.75 2.84 1.66 2.87 2.02 2.87 4.07 0 2.05-3.02 4.42-4.54 3.61-11.77 4.95-2.32.44-3.86.44-1.53 0-2.65-.1-1.11-.1-2.3-.32-1.18-.22-2.33-.57-1.14-.36-2.05-.88-2.02-1.17-2.02-2.67 0-1.49.56-2.61.56-1.11 1.46-2.05.91-.93 2.05-1.7 1.15-.76 2.32-1.42 1.17-.66 2.25-1.23 1.09-.57 1.88-1.1-3.46-1.43-3.46-3.39 0-1.97 4.28-4.84 1.03-.67 1.64-1.14-1.26.38-2.83.38-1.56 0-3.03-.81-1.46-.8-2.49-2.09-2.08-2.67-2.08-6.36 0-3.69 2.76-7 2.43-2.9 6.47-4.8 3.84-1.79 7.44-1.79zm-10.18 5.15q-.78 1.15-.78 3.75 0 2.61.47 4.3.47 1.68 1.47 2.94 2.17 2.78 6.09 2.78 2.23 0 3.25-2.19.77-1.61.77-3.78 0-4.16-1.82-6.55-1.82-2.39-5.25-2.39-3.42 0-4.2 1.14zm13.76 36.44q.73-.43 1.04-1.02.3-.58.3-1.53 0-.96-1.08-1.91-1.09-.95-2.83-1.76-1.74-.8-8.42-3.06-2.7 1.15-3.75 2.02-2.17 1.82-2.17 4.11 0 1.72 8.06 3.42 2.84.62 4.25.62 1.4 0 2.63-.24 1.23-.23 1.97-.65zm25.37-37.17q4.71-4.25 6.91-4.25t2.2 2.82v18.6q0 1.76.79 2.64.79.88 2.64.88 1.28 0 2.51-.47-.96.35-1.74 1.1-.77.74-1.65 1.5-2.2 1.91-5.01 1.91-2.7 0-3.08-2.99-.09-.85-.12-1.73-6.38 4.84-11.33 4.84-3.34 0-5.04-2.93-1.53-2.64-1.53-7.21v-9.87q0-2.55-.44-3.46-.82-1.82-2.96-1.82-1.02 0-2.08.44 3.58-3.19 5.81-4.04 1.08-.44 2.25-.44 3.19 0 3.19 4.07v1.96l-.02 10.93q0 4.19 1.55 6.16 1.7 2.22 5.65 2.22 1.94 0 4.02-1.67.52-.41.93-.7V34.76q0-2.17-1.05-2.99-.44-.32-1.09-.32-.64 0-1.31.29zm30.93 20.63q-.96.76-1.84 1.52-.88.76-1.82 1.35-2.08 1.35-4.3 1.35-3.23 0-3.52-4.46-.06-1.2-.06-2.34V18.44q0-4.01-1.82-5.21-.76-.53-1.46-.53-.94 0-1.26.04-.32.05-.56.08 4.22-2.93 5.34-3.52 1.46-.79 3.03-1.57 1.56-.77 2.41-1.21v40.43q0 1.2.02 2.22.01 1.03.34 1.79.73 1.58 3.69 1.58.93 0 1.81-.17zm21.95-16.97v11.93l-.06 2.05q0 2.28 1.29 2.9.5.23 1.14.23 1.03 0 2.11-.47-1.11.47-1.93 1.24-.82.76-1.67 1.49-2.11 1.76-4.25 1.76t-2.29-2.46q-.06-.65-.06-1.29-5.27 3.66-9.66 3.66-3.72 0-5.16-2.26-.53-.82-.53-2.25 0-1.44.88-2.89.88-1.45 2.23-2.65 2.4-2.23 5.8-3.66 2.52-1.09 6.47-1.23v-1.29q0-4.66-.85-6.3-.85-1.64-2.19-2.42-1.35-.77-3.17-.77-3.07 0-5.42 1.2 3.23-2.67 4.72-3.52 3.08-1.73 5.58-1.73 2.51 0 3.77.74 1.26.73 1.99 1.93 1.26 2.11 1.26 6.06zm-13.77 16.13q.7.51 1.64.75.94.23 2.78.23 1.85 0 3.66-.88v-6.15h-4.74q-2.55 0-4.46.35-.38 1.26-.38 2.41 0 1.14.4 1.96.39.82 1.1 1.33zm47.37-24.01q-3.54 5.22-8.58 5.22-.82 0-2.11-.65-2.46-1.23-3.33-1.23-.86 0-1.39.56-.53.56-.88 1.55-.79 2.17-.79 5.63v11.22q0 1.87 1.14 2.55.41.26 1.03.26.61 0 1.29-.29-.59.53-1.14 1.24-.56.72-1.26 1.39-1.67 1.62-3.96 1.62-1.17 0-1.99-.75-.82-.75-.82-1.83V37.13q0-1.02.03-2.05.03-1.02-.21-1.87-.55-1.85-3.19-1.85-1.26 0-2.52.47.76-.26 1.96-1.38 2.35-2.11 3.25-2.46 1.88-.67 3.04-.67 1.15 0 1.78.34.63.33.98.92.59.96.59 2.99.85-.65 1.86-1.45 1.01-.81 2.1-1.54 2.6-1.73 4.54-1.73 1.14 0 2.4.64 1.26.65 1.87.94.62.29 1.15.29 1.17 0 3.16-1.2z"/></svg>