<svg viewBox="0 0 506 80" xmlns="http://www.w3.org/2000/svg"><path d="M27.84 21.84h25.55q-.65.12-2.26 1.35-1.61 1.23-2.25 1.67-1.5.97-2.11.97H32.38l-3.69 15.93H42.9q-.59.12-2.23 1.37-1.64 1.24-2.28 1.65-1.5 1-2.11 1h-8.53l-1.61 6.85q-.73 3.34-2.43 5.98-.61.91-1.35 1.41h9.38q-.65.11-2.26 1.34-1.61 1.23-2.25 1.64-1.5 1-2.11 1h-9.93q2.22-2.31 3.6-5.21.5-1.03 1.55-5.62 1.06-4.58 1.73-7.39h-4.13q1.23-.82 2.43-1.63 1.2-.8 2.43-1.6l3.9-16.72h-5.48l.79-.55q.53-.36 1.19-.8.66-.44 1.38-.91.71-.47 1.36-.85 1.49-.88 1.9-.88zM53.45 64.5q-2.14 0-3.78-.72-1.64-.72-2.79-1.98-2.43-2.63-2.43-6.62 0-4.48 3.46-9.4 3.16-4.51 8.17-7.65 5.07-3.16 9.55-3.16 3.93 0 6.39 2.66 2.35 2.58 2.35 6.59 0 4.52-3.43 9.41-3.25 4.63-8.09 7.67-5.04 3.2-9.4 3.2zM67.6 48.12q0-1.52-.56-3.29-.56-1.78-1.64-3.1-2.37-2.84-6.47-2.84-2.47 0-4.37 2.14-2.4 2.67-3.1 7.38-.18 1.29-.18 2.85 0 1.55.53 3.32.52 1.77 1.61 3.12 2.34 2.9 6.47 2.9 3.64 0 5.86-4.39 1.85-3.67 1.85-8.09zm34.57 9.96q0 2.4 2.63 2.4 1.09 0 2.35-.44-2.99 2.14-4.16 2.85-2.73 1.55-4.78 1.55-2.66 0-2.66-2.55 0-1.11.67-3.81l2.55-10.95q.35-1.62.35-2.73 0-4.77-4.98-4.77-4.25 0-6.06 6.21-.47 1.61-.77 2.93l-2.1 9.05q-.12.44-.12.99 0 1.82 1.61 1.82.64 0 1.38-.29-5.75 4.25-7.94 4.25-1.73 0-1.73-1.73 0-.76 1.73-7.85t2.31-9.67q.73-3.22.73-3.84 0-2.14-2.78-2.14-1.26 0-2.61.47 1.12-.38 2.52-1.46 2.67-2.06 3.61-2.38 1.87-.67 3.31-.67 2.49 0 2.49 2.22 0 .97-.47 2.85 6.74-4.84 11.39-4.84 2.2 0 3.73 1.2 1.61 1.32 1.61 3.46 0 .59-.15 1.26l-3.37 14.47q-.29 1.32-.29 2.14zm35.92-35.01q0-2.17-1.91-2.17-.67 0-1.32.15-.64.15-1.29.29 3.08-1.96 6.14-3.89 3.06-1.94 6.37-3.46l-9.75 41.89q-.32 1.24-.32 2.29 0 2.31 2.81 2.31.88 0 1.76-.17-.91.61-1.91 1.35-.99.73-2.08 1.34-2.52 1.47-4.48 1.47-2.08 0-2.61-1.06-.23-.44-.23-1.05 0-.97.35-2.23-4.98 3.17-7.16 3.81-2.19.65-3.53.65-4.08 0-6.27-2.11-2.2-2.11-2.2-6.21 0-5.37 3.6-10.49 3.34-4.72 8.7-7.8 5.42-3.04 10.76-3.04 1.08 0 1.96.2l2.23-9.61q.38-1.52.38-2.46zm-7.86 34.57l3.37-14.5q-1.58-4.28-7-4.28-4.8 0-7.38 4.63-2.17 3.87-2.17 8.38 0 8.76 8.09 8.76 1.14 0 2.46-.67 2.34-1.23 2.63-2.32zm22.56 6.95q-7.94 0-7.94-7.86 0-5.36 3.17-10.51 3.04-4.95 8-8.06 5.09-3.22 10.48-3.22 2.38 0 4.35.72 1.98.71 2.95 1.01l-4.48 19.21q-.33 1.53-.33 2.29 0 2.31 2.82 2.31.9 0 1.75-.17-.9.61-1.9 1.35-1 .73-2.05 1.34-2.55 1.47-4.48 1.47-2.11 0-2.67-1.06-.2-.44-.2-1.05 0-.97.35-2.23-1.09.71-2.24 1.48-1.16.78-2.39 1.45-2.87 1.53-5.19 1.53zm-1.55-10.76q0 6.8 6.91 6.8 1.12 0 2.44-.67 2.34-1.23 2.63-2.32l3.37-14.5q-.82-2.2-2.28-3.24-1.47-1.04-3.45-1.04-1.97 0-3.26.75-1.29.75-2.32 1.98-1.02 1.23-1.78 2.8-.77 1.56-1.26 3.23-1 3.34-1 6.21zm38.91-13.33q7.79-4.95 11.01-4.95 2.67 0 3.4 2.43.21.77.21 1.44 0 .67-.09 1.11 4.6-3.07 8.44-4.42 1.49-.56 2.51-.56 1.03 0 1.7.31.68.31 1.12.86.88 1.12.88 2.51 0 1.39-.21 2.24l-3.25 14q-.53 2.11-.53 3.14 0 1.87 2.67 1.87 1.08 0 2.34-.44-2.99 2.14-4.16 2.85-2.72 1.55-4.77 1.55-2.67 0-2.67-2.55 0-1.11.67-3.81L212 47.04q.53-2.35.53-3.72 0-3.69-3.28-3.69-2.43 0-4.22 2.9-1.29 2.08-2.02 5.09l-1.94 8.32q-.29 1.32-.29 2.14 0 2.4 2.64 2.4 1.11 0 2.31-.44-4.16 3.08-5.94 3.74-1.79.66-2.96.66-2.67 0-2.67-2.55 0-1.11.67-3.81l2.58-11.04q.53-2.35.53-3.72 0-3.69-3.31-3.69-3.14 0-5.25 5.44-.64 1.64-1.14 3.7l-2.11 9.05q-.14.53-.14.99 0 1.82 1.64 1.82.64 0 1.37-.29-5.74 4.25-7.94 4.25-1.72 0-1.72-1.7 0-.41.11-.88l3.93-16.88q.2-.88.47-1.78.26-.91.26-1.85 0-2.14-2.78-2.14-1.26 0-2.61.47 1-.32 2.4-1.44 2.67-2.02 3.69-2.37 2.03-.7 3.34-.7 2.49 0 2.49 2.22 0 .88-.49 2.96zm56.83-1.93q0 6.15-16.73 14.5.3 7.39 7.71 7.39 3.37 0 6.97-1.88-4.16 3.98-10.43 5.39-1.96.44-3.82.44-1.86 0-3.19-.66-1.34-.66-2.19-1.77-1.61-2.17-1.61-5.14 0-2.98.89-5.39.9-2.42 2.41-4.74 1.51-2.31 3.5-4.39 1.99-2.08 4.25-3.63 4.89-3.4 9.05-3.4 1.49 0 2.34.92.85.92.85 2.36zm-7.32 5.87q.7-1.15.7-2.11 0-.95-.75-1.94-.74-1-2.09-1-1.35 0-2.3.66-.95.66-1.71 1.71-.77 1.06-1.35 2.39-.59 1.33-1 2.68-.73 2.61-.88 4.84 2.87-.77 6.54-4.11 2.14-1.96 2.84-3.12zm35.27 13.64q0 2.4 2.64 2.4 1.08 0 2.34-.44-2.99 2.14-4.16 2.85-2.72 1.55-4.77 1.55-2.67 0-2.67-2.55 0-1.11.67-3.81l2.55-10.95q.35-1.62.35-2.73 0-4.77-4.98-4.77-4.24 0-6.06 6.21-.47 1.61-.76 2.93l-2.11 9.05q-.12.44-.12.99 0 1.82 1.61 1.82.65 0 1.38-.29-5.74 4.25-7.94 4.25-1.73 0-1.73-1.73 0-.76 1.73-7.85t2.31-9.67q.74-3.22.74-3.84 0-2.14-2.79-2.14-1.26 0-2.6.47 1.11-.38 2.52-1.46 2.66-2.06 3.6-2.38 1.87-.67 3.31-.67 2.49 0 2.49 2.22 0 .97-.47 2.85 6.74-4.84 11.4-4.84 2.2 0 3.72 1.2 1.61 1.32 1.61 3.46 0 .59-.15 1.26l-3.37 14.47q-.29 1.32-.29 2.14zm14.71 6.48q-4.07 0-4.07-4.57 0-1.35.41-3.14l4.24-18.25h-3.83q1.14-.76 2.27-1.49 1.13-.74 2.27-1.5l.94-4.16q1.81-1.11 2.66-1.71.85-.6 1.36-.87l1.04-.52q1.35-.68 1.56-.88l-1.64 7.15h9.37q-.5.08-2.34 1.43-3.43 2.55-4.28 2.55h-3.69l-3.66 15.7q-.38 1.82-.38 3.34 0 3.14 3.95 3.14 1.29 0 2.39-.47t1.51-.65q-2.82 3.37-7.3 4.52-1.43.38-2.78.38zm22.79-.06q-2.14 0-3.78-.72-1.64-.72-2.78-1.98-2.43-2.63-2.43-6.62 0-4.48 3.45-9.4 3.17-4.51 8.18-7.65 5.07-3.16 9.55-3.16 3.92 0 6.39 2.66 2.34 2.58 2.34 6.59 0 4.52-3.43 9.41-3.25 4.63-8.08 7.67-5.04 3.2-9.41 3.2zm14.15-16.38q0-1.52-.55-3.29-.56-1.78-1.65-3.1-2.37-2.84-6.47-2.84-2.46 0-4.37 2.14-2.4 2.67-3.1 7.38-.18 1.29-.18 2.85 0 1.55.53 3.32.53 1.77 1.61 3.12 2.35 2.9 6.48 2.9 3.63 0 5.86-4.39 1.84-3.67 1.84-8.09zm35.66-22.29h-5.48q5.97-3.99 6.62-3.99h13.36q-.5.06-2.35 1.42-1.84 1.37-2.78 1.97-.94.6-1.49.6h-2.2l-6.24 26.8q-.82 3.37-2.49 5.89-.59.91-1.29 1.5h9.38q-.65.11-2.26 1.34-1.61 1.23-2.26 1.64-1.49 1-2.11 1h-9.93q1.99-1.64 2.64-2.75 1-1.64 1.61-4.25l7.27-31.17zm14.29 38.73q-4.07 0-4.07-4.57 0-1.35.41-3.14l4.25-18.25h-3.84q1.14-.76 2.27-1.49 1.13-.74 2.27-1.5l.94-4.16q1.82-1.11 2.67-1.71.85-.6 1.36-.87.51-.26 1.04-.52 1.35-.68 1.55-.88l-1.64 7.15h9.38q-.5.08-2.35 1.43-3.43 2.55-4.28 2.55h-3.69l-3.66 15.7q-.38 1.82-.38 3.34 0 3.14 3.95 3.14 1.29 0 2.39-.47t1.51-.65q-2.81 3.37-7.29 4.52-1.44.38-2.79.38zm21.68.03q-7.94 0-7.94-7.86 0-5.36 3.17-10.51 3.04-4.95 8-8.06 5.09-3.22 10.48-3.22 2.38 0 4.35.72 1.98.71 2.95 1.01l-4.48 19.21q-.33 1.53-.33 2.29 0 2.31 2.82 2.31.9 0 1.75-.17-.9.61-1.9 1.35-1 .73-2.05 1.34-2.55 1.47-4.48 1.47-2.11 0-2.67-1.06-.2-.44-.2-1.05 0-.97.35-2.23-1.09.71-2.24 1.48-1.16.78-2.39 1.45-2.87 1.53-5.19 1.53zm-1.55-10.76q0 6.8 6.91 6.8 1.12 0 2.44-.67 2.34-1.23 2.63-2.32l3.37-14.5q-.82-2.2-2.28-3.24-1.47-1.04-3.45-1.04-1.97 0-3.26.75-1.29.75-2.32 1.98-1.02 1.23-1.78 2.8-.77 1.56-1.26 3.23-1 3.34-1 6.21zm35.92-30.11q0-3.02-2.87-3.02-.65 0-1.29.12 1.58-.94 3.16-1.91 1.58-.96 3.14-1.7 3.22-1.52 5.94-2.69l-9.4 40.43q-.21.82-.43 1.67-.21.85-.21 1.65 0 .81.29 1.25.29.44.79.67 1.49.68 4.16.18-1.03.7-2.07 1.45-1.04.74-2.15 1.36-2.49 1.41-4.77 1.41-2.55 0-2.55-2.96 0-1.5.58-3.84l7.3-31.35q.38-1.76.38-2.72zm18.51-5.45l6.62-3.99q-.84 5.19-1.49 6.36-.18.35-2.01 1.39-1.83 1.04-2.53 1.45-1.55.88-2.08 1.15.97-3.08 1.49-6.36zm-5.83 25.34q0-2.14-1.9-2.14-.88 0-2.61.41 8.82-5.65 12.51-7.35l-4.8 20.68q-.18.76-.37 1.55t-.19 1.59q0 2.25 3.28 2.25.82 0 1.91-.2-.94.64-1.94 1.37-.99.74-2.05 1.35-2.46 1.44-4.48 1.44-2.4 0-2.99-1.29-.23-.53-.23-1.2 0-1.06.26-2.17l3.22-13.89q.38-1.52.38-2.4zm33.28-2.29q.21-.11.5-.48.3-.37.3-.54 0-.18-.37-.44t-.94-.48q-.57-.22-1.26-.41-.69-.19-1.36-.31-1.46-.27-2.58-.27-1.11 0-2.53.59-1.42.59-2.54 1.6-1.11 1.01-1.94 2.36-.84 1.34-1.37 2.84-1.08 2.99-1.08 5.67 0 2.68.67 4.29.68 1.61 1.88 2.66 2.4 2.08 6.74 2.08 3.51 0 7.09-1.75-4.49 3.89-10.43 5.27-1.94.47-3.84.47-1.91 0-3.56-.57-1.66-.57-2.83-1.66-2.46-2.31-2.46-6.38 0-4.98 3.9-10.17 3.63-4.83 9.11-7.97 5.62-3.22 10.43-3.22 3.22 0 5.3 1.29.53.26.53.58 0 .33-.47.78t-1.19 1q-.71.54-1.59 1.09-.88.56-1.7 1.03-1.82 1-2.41 1.05z"/></svg>