<svg viewBox="0 0 414 80" xmlns="http://www.w3.org/2000/svg"><path d="M24.66 26.92h-6.12l1.14-10.44h18.48l.42-4.32h6.54l-.42 4.32h18.42l-1.08 10.44h-6l.42-4.56H25.14l-.48 4.56zM39.6 67.9H29.04l-1.02-5.88h5.88l1.26-12.36H15.24l.54-5.88h19.98l.36-2.94 11.58-6.36H21.48l.66-5.88h36.42l-.6 5.88-15.72 8.76-.06.54h19.14l-.6 5.88h-19.2L39.6 67.9zm41.76-55.74l-9.12 15.36h3.9L71.88 67.9h-5.7l3.78-36.6-.66 1.14h-5.1l10.74-20.28h6.42zm16.98 7.08h12.12l-.6 5.7h-3.78l.66 42.96h-4.56l-1.98-42.96h-2.46l-2.88 27.3h5.82l-.6 5.88h-5.82l-1.02 9.78h-6l1.02-9.78H82.2l.6-5.88h6l2.94-27.3H89.1L78.24 67.9h-4.62l9.6-42.96h-3.84l.6-5.7h12.3l.72-7.08h6.06l-.72 7.08zm12.18 47.52l5.52-53.1h43.44l-5.58 53.1h-43.38zm6.12-4.8h32.1l4.56-43.56h-32.1l-4.56 43.56zm7.5-16.2h-4.26l4.68-8.34h-3.3l.48-4.5h5.28l1.5-2.7H123l.48-4.32h7.5l3.36-6.06h6.3l-3.72 6.06h12.6l-.48 4.32h-14.76l-1.68 2.7h17.16l-.48 4.5h-3.18l2.82 8.34H144l-.3-.72-.78 7.5h-6.96l-.96-4.32h3l.36-3.18h-8.76l-1.08 10.02h17.28l-2.04 4.38h-21l1.38-13.68zm6.24-24.6l.9 3.78h-3.84l-2.7-3.78h5.64zm13.2 0h5.64l-3.48 3.78h-3.84l1.68-3.78zM141.6 40.6l-1.5-3.18h-10.26l-1.92 3.18h13.68zm41.88-10.98l-.66 5.88h-3.66l-3.42 32.34h-5.46l3.36-32.34h-4.74l-.66 6.24-7.02 26.1h-4.08l5.52-26.88 2.82-26.7h5.7l13.92-2.22-.66 5.94-13.86 2.16-1.02 9.48h13.92zm12.3-17.4l-1.8 4.56h13.62l-.6 5.82-3.66 8.7h-4.14l2.52-8.7h-10.08l-3.48 8.7h-4.44l5.7-19.08h6.36zm-3.96 15.36h5.64l-.84 7.92 6.36 32.4h-4.32l-5.7-23.4-10.2 23.4h-4.26l12.54-32.46.78-7.86zm54.78-7.62l-1.86 3.78h10.8l-.48 5.04h-45.54l.48-5.04h10.86l-1.08-3.78h-6.12l.48-4.92h16.26l.24-2.7h6.66l-.24 2.7h16.14l-.48 4.92h-6.12zm-20.7 3.78h13.74l1.02-3.78h-15l.24 3.78zm-12.96 7.5h38.1L249 50.56h-38.04l1.98-19.32zm4.8 7.68h26.94l.24-2.88h-26.88l-.3 2.88zm-.72 7.02h26.94l.24-3h-26.94l-.24 3zm19.74 11.1l6.78-4.08h6.3l1.26 12.48h-4.5l-2.34-9.54-7.2 3.72h-4.5l-3-7.26h6.66l.54 4.68zm-26.52 8.4h-4.56l3.84-12.48h6.24l-5.52 12.48zm7.98-12.48h6.12l-.9 8.4h18.48l-2.64 5.46h-22.5l1.44-13.86zm46.92-29.16h-6.06l1.08-10.2h43.5l-1.08 10.2h-6.18l.48-4.86h-31.2l-.54 4.86zm29.82 34.92h-7.8l-.72-5.52h3.48l1.98-18.54h-12.3l.6-5.52h12.24l.48-4.32h5.58l-.42 4.32h4.5l-.6 5.52h-4.5l-2.52 24.06zM277.68 31h-17.4l.6-5.46h17.34l-.54 5.46zm-20.16 36.72h-4.2l6.72-25.08h-3.66l.6-5.46h22.5l-.6 5.46h-3.54l-1.98 18.84h26.28L297.12 67H267.3l2.52-24.36h-4.2l-8.1 25.08zm30-18.66h-4.14l-2.34-11.4h6l.48 11.4zm60.96 5.76h-45.54l.6-5.28h19.68l.42-4.02h-17.7l.48-5.28h17.7l.48-3.96h-16.8l2.4-22.68h39.66l-2.4 22.68h-16.8l-.42 3.96h17.7l-.48 5.28H329.7l-.42 4.02h19.74l-.54 5.28zm-33.06-36.18l-1.32 12.48h11.04l1.32-12.48h-11.04zm17.16 0l-1.32 12.48h10.98l1.26-12.48h-10.92zM323.1 28.9h-3.6l-2.46-8.04h5.52l.54 8.04zm14.22 0h-3.6l2.34-8.04h5.52l-4.26 8.04zm-30.96 38.82h-4.68l2.7-10.44h6.84l-4.86 10.44zm16.08 0h-4.68l-2.7-10.44h6.78l.6 10.44zm12.78 0h-4.62l-3.24-10.44h6.84l1.02 10.44zm11.94 0h-4.74l-2.7-10.44h6.84l.6 10.44zm22.2-55.56l-9.12 15.36h3.9l-4.26 40.38h-5.7l3.78-36.6-.66 1.14h-5.1l10.74-20.28h6.42zm16.98 7.08h12.12l-.6 5.7h-3.78l.66 42.96h-4.56l-1.98-42.96h-2.46l-2.88 27.3h5.82l-.6 5.88h-5.82l-1.02 9.78h-6l1.02-9.78h-6.06l.6-5.88h6l2.94-27.3h-2.64L366.24 67.9h-4.62l9.6-42.96h-3.84l.6-5.7h12.3l.72-7.08h6.06l-.72 7.08z"/></svg>