<svg viewBox="0 0 361 80" xmlns="http://www.w3.org/2000/svg"><path d="M48.43 25.13q-.27.82-1.28 1.32-1.01.5-2.4.77-1.39.28-2.99.38-1.59.11-3.03.14-1.44.03-2.53.01-1.1-.01-1.51.02-.56.05-1.06.22-.5.16-1.02.3-.53.15-1.13.27-.6.11-1.36.11h-.41q.35 1.79.54 3.68.19 1.89.34 3.94.73-.29 1.39-.39.66-.11 1.32-.12.66-.02 1.36-.02.7 0 1.52-.08.91-.09 1.83-.37.93-.28 1.78-.28.67 0 1.21.4.54.39.92 1.01.38.61.59 1.35.2.73.2 1.37 0 .5-.39 1.07-.4.57-1.06 1.06-.65.48-1.49.8-.83.32-1.74.32-.35 0-.65-.14-.29-.15-.57-.34-.28-.19-.56-.34-.27-.14-.6-.14-.17 0-.51.09-.34.08-.66.17-.32.09-.55.18-.24.08-.27.08-.5 0-.96-.11-.47-.12-.85-.12-.36 0-.5.32-.15.32-.15.82 0 .94.18 1.54.17.6.42 1.08.25.49.53.96t.48 1.11q.18.62.35 1.48.18.86.31 1.8.13.94.22 1.88.09.93.09 1.73 0 .35-.06 1.04-.06.68-.19 1.42-.13.73-.35 1.39-.22.66-.54.95-.15.15-.53.26-.38.12-.84.24-.45.12-.89.22t-.67.19q-.65.17-1.44.53-.79.35-1.38.35-.46 0-1.17-.31-.7-.31-1.43-.4-1.41-.11-2.2-.39-.79-.28-1.22-.79-.42-.52-.61-1.35-.19-.84-.4-2.1-.06-.35-.2-.55-.15-.21-.15-.41 0-.32.1-.71.11-.38.24-.8.13-.43.25-.88.11-.45.11-.95 0-.5-.08-1-.09-.5-.09-.99.06-.53.23-1.07.18-.55.18-1.1 0-1.26-.21-2.33-.2-1.07-.2-1.63.09-.52.31-.93.22-.41.44-.88.22-.47.39-1.07.18-.6.18-1.48 0-1.03-.09-2.21-.09-1.19-.09-2.3 0-.65.06-1.4.06-.74.06-1.42 0-.96-.37-1.34-.36-.38-.86-.5t-1.01-.09q-.52.03-.81-.12-.35-.11-.76-.42-.41-.31-.76-.71-.35-.39-.59-.83-.23-.44-.23-.85 0-.26.03-.6.03-.34.03-.6 0-.47-.15-.95-.15-.49-.34-1.04-.19-.56-.33-1.22-.15-.66-.15-1.48 0-1.02.63-1.49t1.58-.69q.95-.22 2.02-.37 1.07-.14 1.95-.55.79-.36 1.73-.36 1.08 0 2.21.37t2.18.82q1.06.46 2.01.88.95.42 1.72.51.17.06.38.06h.44q.76 0 1.64-.13.88-.13 1.75-.29.88-.16 1.69-.3.8-.13 1.42-.13.35 0 .81.03.45.03.86.03.82 0 1.61-.13.79-.13 1.52-.29.74-.17 1.38-.3.65-.13 1.2-.13.85 0 1.38.44.18.18.41.85.23.67.45 1.54.22.86.37 1.77t.15 1.52v.36q0 .17-.06.26zm27.48 13.56q-.03.3-.16.49l-.3.44q-.16.25-.27.6-.12.35-.12.93 0 .24.03.41.03.18.03.41 0 .88-.4 1.37-.39.48-1.05.77-.66.3-1.54.46-.88.16-1.82.42-.67.18-1.43.41-.76.24-1.5.24-1.23 0-1.74-.71-.51-.7-.66-1.77-.15-1.07-.09-2.3.06-1.23-.01-2.3-.08-1.07-.44-1.77-.37-.7-1.36-.7-.41 0-.85.14-.44.15-.84.34-.39.19-.73.38-.34.19-.54.28-.44.2-1.01.42-.57.22-1.1.47-.53.25-.9.56-.36.31-.36.72 0 .67.31 1.71.3 1.04.65 2.08.36 1.04.66 1.85.31.8.31 1.01 0 .2-.09.39-.08.19-.08.46 0 .41.1.88.1.46.23.98.13.51.25 1.05t.12 1.1q0 .18-.03.75-.03.57-.09 1.23t-.16 1.26q-.1.6-.25.86-.14.24-.35.35-.2.12-.44.19-.23.08-.5.15-.26.07-.55.25-.65.41-.94.75-.29.33-.57.58-.28.25-.71.4-.42.14-1.33.14-1.26 0-2.11-.3-.85-.31-1.38-.97-.52-.66-.74-1.68-.22-1.03-.22-2.44 0-.96.16-1.92.16-.95.38-1.91.22-.97.44-1.95t.34-2.04q.14-1.4.25-3.03.1-1.63.1-3.03 0-1.17-.18-2.64-.06-.35-.2-.7-.15-.35-.15-.68 0-.44.1-.93.11-.5.24-1t.25-1.01q.11-.51.14-1.01 0-.5-.13-.81-.13-.31-.13-.63 0-.82.32-1.27.32-.46.68-.65.35-.19.61-.22t.15-.03q1.11 0 1.74.46.63.45.94 1.13.31.67.39 1.45.09.77.15 1.45.06.67.16 1.12.1.46.45.46.24 0 .61-.21.36-.2.68-.44.33-.23.5-.39.18-.16.06-.04l-.06.05q.03 0 .06-.03.09-.08.21-.14l-.12.06h-.03q.38-.3.76-.59.32-.23.7-.51.38-.28.71-.46.5-.32 1.11-.45.62-.13 1.11-.45.44-.33.88-.71.44-.38.79-.61.36-.15.87-.3.51-.14 1.1-.24.58-.11 1.14-.18.56-.07 1-.07.41 0 .7.13t.56.33q.26.21.57.42.3.2.74.32.56.17 1.29.25.73.07 1.36.33.63.27 1.07.87.44.6.41 1.86 0 .55.12.99.12.44.25.8l.25.67q.12.32.12.67 0 .32-.05.69-.04.37-.04.75 0 .58.22 1.24t.22 1.04zm28.06 12.28q.06.58.14 1.08.07.5.07.91 0 .47-.06.7-.06.24-.19.41-.13.18-.35.39-.22.2-.54.61-.35.56-.69 1.17-.34.62-.79 1.12-.46.49-1.06.83-.6.34-1.45.34-.52 0-1.13-.08-.6-.07-1.2-.16-.6-.08-1.17-.16-.57-.07-1.04-.07-2.02 0-4.09-.07-2.06-.08-3.91-.52-.61-.17-1.29-.3-.67-.14-1.34-.31-.68-.18-1.29-.43-.62-.25-1.06-.6-1.26-1.26-2-2.75-.75-1.5-1.18-3.37-.42-1.88-.6-4.16-.17-2.29-.29-5.13-.06-.99-.2-1.9-.15-.91-.15-1.41 0-.23.22-.73t.31-.94q.14-.64.13-1.27-.02-.63.04-.78.09-.2.37-.48.28-.28.61-.6l.68-.66q.33-.34.57-.66.2-.29 1.01-.72.81-.42 2.01-.92 1.2-.5 2.69-.98 1.5-.49 3.06-.88 1.57-.4 3.14-.65t2.91-.28q.56 0 1.25.21.69.2 1.38.54.68.34 1.33.78.64.44 1.08.88.24.23.44.77.21.55.47.9.65.82.89 1.23.25.41.33.73.07.32.04.7-.03.38.06 1.17.06.62.09 1.03.03.41.03.76v1.41q0 .85-.44 1.37-.44.53-1.2.97-.77.44-1.84.85-1.06.41-2.3 1-1.02.5-2.19.7-1.17.21-2.17.21h-.23q-.09 0-.24-.06-.2-.03-.7.11-.5.15-1.15.34-.64.19-1.39.35-.74.16-1.45.16-.47 0-.89.14-.43.13-.75.33-.32.21-.51.41-.19.21-.19.38 0 1.03.37 1.64.36.62.8.94.53.38 1.17.53.74.32 1.41.42.67.11 1.35.11 1.11 0 2.33-.18 1.21-.18 2.76-.18.74 0 1.25.18t1.1.18q.61 0 1.23-.12.61-.12 1.17-.26.56-.15 1.07-.27.51-.12.95-.12 1.14 0 1.66.78.51.78.74 2.39zM92.64 37.49q.06-.14.08-.32.03-.18.03-.35 0-.88-.16-1.57-.16-.69-.38-1.17t-.48-.73q-.27-.25-.47-.25-.56 0-1.67.22-1.11.22-2.26.54-1.14.32-2.06.7-.92.38-1.13.71-.15.23-.2.68-.06.46-.06 1.04 0 1.23.16 1.91.16.67.57.67.26 0 .59-.09.32-.08.63-.19.3-.1.55-.19.25-.08.4-.11.64-.12 1.58-.18.94-.06 1.83-.19.89-.13 1.58-.38.69-.25.87-.75zm41.89-.38q-.06.76-.53 1.36-.46.6-1.04 1.06-.57.45-1.09.73-.53.28-.65.34-.53.32-1.17.66-.65.33-1.35.63-.7.29-1.43.47-.74.17-1.44.17-1.29 0-2.02-.45-.73-.46-1.13-1.19-.39-.73-.56-1.61-.16-.88-.32-1.73t-.38-1.55q-.22-.71-.75-1.09-.32-.23-1.01-.33-.69-.11-1.45-.11-.52 0-1.01.03-.48.03-.86.08-.38.04-.63.07-.25.03-.28.06-.38.2-.59.82-.2.61-.33 1.35-.13.73-.19 1.46t-.15 1.17q-.18 1.23-.5 2.46-.32 1.24-.32 2.35 0 .32.19.98.19.66.5 1.36.31.71.67 1.31.37.6.72.8.26.15.73.19.47.05 1 .05t1.05.01q.53.02.94.1.79.18 1.58.46t1.57.55q.78.28 1.54.47.76.19 1.49.19 1.38 0 2.3-.47.92-.46 1.92-1.37.26-.27.48-.54.22-.28.47-.53.25-.25.57-.41.33-.16.77-.16.76 0 1.04.67.27.67.27 1.67 0 2.23-.79 4.04-.79 1.82-2.98 3.05-.39.23-.84.21-.45-.03-.86.14-.53.27-.91.65t-.81.73q-.42.35-.98.6t-1.38.25q-.76 0-1.62-.31-.87-.31-1.86-.6-.44-.12-.88-.15t-.85-.03q-.41 0-.78-.02-.36-.03-.66-.15-.58-.21-1.39-.7-.8-.5-1.68-1.15-.88-.64-1.82-1.33-.94-.69-1.79-1.27-.7-.47-1.14-.77-.44-.29-.75-.61-.3-.32-.58-.81-.28-.48-.69-1.33-.41-.85-.69-1.51-.28-.66-.28-1.19 0-.85.12-1.94.12-1.1.12-2.22 0-.9-.09-1.8-.09-.89-.09-1.8 0-1.64.35-3.1.09-.27.35-.52.27-.25.44-.57.21-.44.38-.95.18-.51.37-1.01t.4-.95q.2-.46.47-.81.32-.41.89-1.05.57-.65 1.24-1.26.68-.62 1.34-1.07.66-.46 1.15-.46.91 0 1.98.21 1.07.2 1.98.2.61 0 .92-.11.31-.12.49-.3.17-.17.27-.36.11-.19.34-.37.23-.18.66-.29.42-.12 1.22-.12.46 0 1.02.03t1.14.09q1.32.11 2.32.11.99 0 1.77.11.78.1 1.42.39.65.3 1.29.98.64.69 1.38 1.88.73 1.19 1.67 3.06.17.38.36.91.19.53.36 1.05.16.53.26 1t.1.76zm29.39.12q-.3.56-.87.89-.57.34-1.26.54-.69.21-1.4.33-.72.11-1.31.22-.58.1-.96.22-.39.11-.39.32 0 .85.34 1.73t.85 1.74q.51.86 1.1 1.64.59.78 1.1 1.41.51.63.85 1.08.33.45.33.63 0 .21-.05.38-.06.18-.15.4-.09.22-.15.51-.06.29-.06.7 0 .56.17 1.04.16.49.33.91l.34.81q.16.38.16.76 0 .41-.15.61-.14.21-.42.34-.28.13-.66.25t-.85.32q-.44.21-1.05.47-.62.26-1.32.51-.71.25-1.45.41-.75.16-1.48.16-1.26 0-2.11-.89-.85-.89-1.5-2.27-.64-1.38-1.15-3.02-.52-1.64-1.1-3.13-.21-.5-.44-1.28-.24-.77-.46-1.53-.21-.77-.41-1.35-.19-.59-.33-.68.06.03-.31.08l-.82.09q-.45.04-.86.1-.41.06-.47.09-.09.08-.13.27-.05.19-.05.43 0 .35.06.75.06.39.13.76l.13.67q.06.31.06.46.06.96.09 1.94.03.99.07 1.92.05.94.13 1.79.09.85.3 1.55.14.56.44 1.15.29.58.29 1.08-.06.67-.56 1.17-.49.5-1.17.84-.67.33-1.39.51-.72.17-1.22.17-1.81 0-2.98-.11-1.18-.12-1.88-.69t-.98-1.8q-.28-1.23-.28-3.46 0-.97.05-1.95.04-.98.1-1.87.06-.9.14-1.66.09-.76.15-1.29.06-.47.24-.7.17-.24.17-.67 0-.91-.15-1.86-.14-.96-.14-1.81 0-.61.22-1.08.22-.47.47-.98.25-.51.47-1.16.21-.64.21-1.58v-1.61q0-.91.11-1.91.1-.99.23-1.95l.25-1.84q.12-.89.12-1.63 0-.26-.06-.79t-.12-1.18q-.06-.66-.11-1.4-.06-.73-.06-1.37 0-1.09.26-1.59.26-.49.64-.67.39-.17.84-.16.45.01.83-.04.15 0 .59.03.44.02.92.08.49.06.93.19.44.14.58.31.09.12.18.73.09.62.17 1.34.09.71.14 1.36.04.64.04.82-.03.26-.18.51-.14.25-.32.53-.17.28-.32.61-.15.34-.15.81 0 .67.09 1.55t.15 1.7q0 .35-.09.71-.09.35-.09.67 0 .53.19.91t.19.88q0 .67-.06 1.17-.05.5-.05.99 0 .39.01.81.01.42.09.78.07.35.19.58.12.24.35.24.35 0 .79-.16.44-.17.89-.4.46-.23.9-.48.44-.25.79-.4 1.2-.56 2.25-.97 1.06-.41 2.08-.8 1.03-.4 2.13-.79 1.1-.4 2.42-.93.49-.23.96-.48.47-.25.71-.31.32 0 .76.19t.85.19q.41 0 .86-.1.46-.1.78-.1.47 0 .85.34.38.33.66.83.27.5.42 1.11.15.62.15 1.15 0 .99-.35 1.61zM181.7 51.7q.06.24.06.41v.32q0 .68-.27 1.18-.26.49-.52 1.02-.15.26-.3.7-.14.44-.38.84-.23.39-.57.69-.34.29-.8.29-.53 0-1.23-.06-.71-.06-1.29-.06-.71 0-1.7.09-1 .09-2.08.09h-.59q-1.11 0-2.2.19-1.08.19-1.87.19-.38 0-.84-.21-.45-.2-.83-.57-.38-.36-.65-.92-.26-.56-.26-1.26 0-.61.47-.92.47-.31 1.04-.57.57-.27 1.05-.6.49-.34.49-.96 0-.58-.12-1.31-.12-.74-.25-1.51-.13-.78-.25-1.56-.11-.77-.11-1.45 0-1.08.02-2.16.03-1.09.03-2.2 0-3.02-.16-5.55-.16-2.54-.33-4.84-.18-2.3-.34-4.54-.16-2.24-.16-4.7 0-1 .17-1.79.18-.79.66-1.34.49-.56 1.38-.87.89-.31 2.33-.31 1.46 0 2.45.3.98.29 1.58.89.6.6.86 1.52.27.93.27 2.19 0 1.14-.15 2.18-.15 1.04-.15 2.27v1.61q0 .73-.09 1.47-.08.73-.2 1.5-.12.78-.21 1.59-.08.8-.08 1.68 0 2.37.17 4.86.18 2.49.18 5.1 0 2.58.04 3.9.05 1.32.63 1.32.44 0 1.03-.18.58-.18 1.11-.18 1.03.06 1.88.59.84.53 1.08 1.64zm27.51-.73q.06.58.13 1.08.07.5.07.91 0 .47-.05.7-.06.24-.19.41-.14.18-.36.39-.22.2-.54.61-.35.56-.69 1.17-.33.62-.79 1.12-.45.49-1.05.83-.6.34-1.45.34-.53 0-1.13-.08-.6-.07-1.2-.16-.6-.08-1.17-.16-.58-.07-1.04-.07-2.03 0-4.09-.07-2.07-.08-3.91-.52-.62-.17-1.29-.3-.67-.14-1.35-.31-.67-.18-1.29-.43-.61-.25-1.05-.6-1.26-1.26-2.01-2.75-.75-1.5-1.17-3.37-.43-1.88-.6-4.16-.18-2.29-.29-5.13-.06-.99-.21-1.9-.15-.91-.15-1.41 0-.23.22-.73t.31-.94q.15-.64.13-1.27-.01-.63.05-.78.08-.2.36-.48.28-.28.62-.6.34-.33.67-.66.34-.34.57-.66.21-.29 1.01-.72.81-.42 2.01-.92 1.2-.5 2.7-.98 1.49-.49 3.06-.88 1.57-.4 3.13-.65 1.57-.25 2.92-.28.55 0 1.24.21.69.2 1.38.54t1.33.78q.65.44 1.09.88.23.23.44.77.2.55.46.9.65.82.9 1.23.25.41.32.73t.04.7q-.02.38.06 1.17.06.62.09 1.03.03.41.03.76v1.41q0 .85-.44 1.37-.44.53-1.2.97-.76.44-1.83.85t-2.3 1q-1.03.5-2.2.7-1.17.21-2.17.21h-.23q-.09 0-.23-.06-.21-.03-.71.11l-1.14.34q-.65.19-1.39.35-.75.16-1.45.16-.47 0-.9.14-.42.13-.74.33-.33.21-.52.41-.19.21-.19.38 0 1.03.37 1.64.37.62.81.94.52.38 1.17.53.73.32 1.4.42.68.11 1.35.11 1.11 0 2.33-.18t2.77-.18q.73 0 1.24.18.52.18 1.1.18.62 0 1.23-.12.62-.12 1.18-.26.55-.15 1.06-.27.52-.12.96-.12 1.14 0 1.65.78t.75 2.39zm-11.34-13.48q.06-.14.09-.32t.03-.35q0-.88-.16-1.57-.16-.69-.38-1.17t-.49-.73q-.26-.25-.47-.25-.55 0-1.67.22-1.11.22-2.25.54-1.14.32-2.07.7-.92.38-1.12.71-.15.23-.21.68-.06.46-.06 1.04 0 1.23.16 1.91.16.67.57.67.27 0 .59-.09.32-.08.63-.19.31-.1.56-.19.25-.08.39-.11.65-.12 1.58-.18.94-.06 1.83-.19.9-.13 1.59-.38.69-.25.86-.75zm59.42-12.36q-.27.82-1.28 1.32-1.01.5-2.4.77-1.39.28-2.99.38-1.6.11-3.03.14-1.44.03-2.54.01-1.09-.01-1.51.02-.55.05-1.05.22-.5.16-1.03.3-.52.15-1.12.27-.6.11-1.37.11h-.41q.36 1.79.55 3.68.19 1.89.33 3.94.74-.29 1.39-.39.66-.11 1.32-.12.66-.02 1.37-.02.7 0 1.52-.08.91-.09 1.83-.37t1.77-.28q.68 0 1.22.4.54.39.92 1.01.38.61.59 1.35.2.73.2 1.37 0 .5-.39 1.07-.4.57-1.06 1.06-.66.48-1.49.8-.84.32-1.75.32-.35 0-.64-.14-.29-.15-.57-.34-.28-.19-.56-.34-.28-.14-.6-.14-.17 0-.51.09-.34.08-.66.17-.32.09-.56.18-.23.08-.26.08-.5 0-.97-.11-.47-.12-.85-.12-.35 0-.49.32-.15.32-.15.82 0 .94.17 1.54.18.6.43 1.08.25.49.53.96.27.47.48 1.11.18.62.35 1.48.18.86.31 1.8.13.94.22 1.88.09.93.09 1.73 0 .35-.06 1.04-.06.68-.19 1.42-.13.73-.35 1.39-.22.66-.55.95-.14.15-.52.26-.38.12-.84.24-.45.12-.89.22t-.68.19q-.64.17-1.43.53-.79.35-1.38.35-.47 0-1.17-.31t-1.44-.4q-1.4-.11-2.19-.39t-1.22-.79q-.42-.52-.61-1.35-.19-.84-.4-2.1-.06-.35-.2-.55-.15-.21-.15-.41 0-.32.1-.71.1-.38.24-.8.13-.43.25-.88.11-.45.11-.95 0-.5-.09-1-.08-.5-.08-.99.06-.53.23-1.07.18-.55.18-1.1 0-1.26-.21-2.33-.2-1.07-.2-1.63.08-.52.3-.93.22-.41.44-.88.22-.47.4-1.07.17-.6.17-1.48 0-1.03-.08-2.21-.09-1.19-.09-2.3 0-.65.06-1.4.06-.74.06-1.42 0-.96-.37-1.34-.37-.38-.86-.5-.5-.12-1.01-.09-.52.03-.81-.12-.35-.11-.76-.42-.41-.31-.76-.71-.36-.39-.59-.83-.23-.44-.23-.85 0-.26.02-.6.03-.34.03-.6 0-.47-.14-.95-.15-.49-.34-1.04-.19-.56-.34-1.22-.14-.66-.14-1.48 0-1.02.63-1.49t1.58-.69q.95-.22 2.02-.37 1.07-.14 1.95-.55.79-.36 1.73-.36 1.08 0 2.21.37t2.18.82q1.06.46 2.01.88.95.42 1.71.51.18.06.38.06h.44q.76 0 1.64-.13.88-.13 1.76-.29.88-.16 1.69-.3.8-.13 1.42-.13.35 0 .8.03.46.03.87.03.82 0 1.61-.13.79-.13 1.52-.29.73-.17 1.38-.3.64-.13 1.2-.13.85 0 1.38.44.17.18.41.85.23.67.45 1.54.22.86.37 1.77.14.91.14 1.52v.36q0 .17-.05.26zm28.18 14.56q.06.67.09 1.36.03.69.03 1.42 0 2.08-.21 4.21-.2 2.12-.47 4.11-.09.65-.22 1.31t-.13 1.15q0 1.09.21 2.1.2 1.01.2 1.86 0 .17-.23.79-.24.62-.75 1.26t-1.32 1.16q-.8.51-1.95.51-1.32 0-1.77-.76-.45-.76-.45-1.94 0-.82.14-1.77.15-.95.32-1.95-.67.15-1.33.56-.66.41-1.24.76-1.29.76-2.57 1.61-1.27.85-2.77 1.56-1.49.7-3.26 1.17-1.77.47-4.06.47-.06 0-.45.01-.4.02-.93-.01-.52-.03-1.1-.15-.57-.12-1.01-.38-.64-.65-1.24-1.6-.6-.95-1.06-1.87-.45-.93-.71-1.63-.27-.7-.27-.85-.06-.14-.06-.28v-.27q0-.62.09-1.28t.21-1.26q.11-.6.2-1.02.09-.43.09-.58 0-.73-.12-1.42-.11-.68-.11-1.51 0-.38.04-.8.04-.43.19-.89 0-.03.15-.39.14-.35.33-.76.19-.41.38-.79.19-.38.28-.44.21-.17.56-.29.35-.12.79-.23.44-.12.89-.24.46-.12.9-.32.67-.32 1.21-.82.55-.5.98-.68.3-.14.81-.23t1.07-.32q.38-.12.94-.34.55-.22 1.18-.41.63-.19 1.28-.35.64-.16 1.23-.22.26 0 .66.09.39.09.95.09.41 0 1-.18.58-.18 1.4-.18t1.58.12q.77.12 1.18.12.32 0 .39-.19.08-.19.08-.46 0-.44-.18-1.02-.18-.59-.41-1.14-.24-.56-.44-.97-.21-.41-.29-.53-.44-.56-.98-.85-.55-.29-.99-.29-.46 0-.92.12-.45.11-1.01.11-.41 0-.83-.06-.43-.05-.84-.05-1 0-2.3.49-1.3.5-2.61 1.15l-2.46 1.21q-1.16.57-1.86.75-.38.09-.79.16-.41.07-.79.07-.23 0-.66-.25-.42-.24-.83-.62-.41-.39-.72-.87t-.31-.95q0-.7.38-1.16.38-.45.94-.77.56-.33 1.21-.58.66-.25 1.19-.57.67-.41 1.58-.96.91-.56 1.56-1.06.67-.56.96-1.01.3-.45.71-.69.41-.23 1.28-.44.88-.2 1.65-.44.23-.08.65-.26.43-.18.88-.32.46-.15.88-.27.43-.11.66-.11h.12q.56.2 1.26.3.7.11 1.48.19.77.09 1.55.19.78.11 1.48.28.23.06.44.25.2.19.44.28 1.08.32 1.82.66.73.34 1.28 1.05.56.72 1.04 2.05.49 1.34 1.07 3.62.12.53.44.97.33.44.47.88.24.73.37 1.77t.19 1.95zm-7.03 7.82q.14-.14.19-.66.04-.51.04-1.15 0-.77-.03-1.25t-.11-.75q-.09-.26-.24-.36-.15-.11-.38-.11-.18 0-.31.03t-.25.06q-.11.06-.23.09-.47-.06-.87-.06h-.8q-.82 0-1.51.09-.69.09-1.35.23-.66.15-1.3.33-.65.17-1.38.32-1.05.26-1.93.35-.88.09-1.52.35-.65.27-1 .84t-.35 1.77q0 1.23.64 1.65.65.43 1.88.43.38 0 .88-.13.49-.13 1.07-.31l1.17-.37q.6-.19 1.21-.33.44-.09.96-.19.51-.11 1.02-.19.51-.09.97-.18.45-.09.77-.15.21-.03.65-.07.44-.04.88-.09.44-.04.8-.09.37-.04.43-.1zm38.23-10.4q-.06.76-.53 1.36-.47.6-1.04 1.06-.57.45-1.1.73-.52.28-.64.34-.53.32-1.17.66-.65.33-1.35.63-.7.29-1.44.47-.73.17-1.43.17-1.29 0-2.02-.45-.74-.46-1.13-1.19-.4-.73-.56-1.61-.16-.88-.32-1.73t-.38-1.55q-.22-.71-.75-1.09-.32-.23-1.01-.33-.69-.11-1.45-.11-.53 0-1.01.03t-.86.08q-.38.04-.63.07-.25.03-.28.06-.38.2-.59.82-.2.61-.33 1.35-.14.73-.19 1.46-.06.73-.15 1.17-.18 1.23-.5 2.46-.32 1.24-.32 2.35 0 .32.19.98.19.66.5 1.36.3.71.67 1.31.37.6.72.8.26.15.73.19.47.05 1 .05.52 0 1.05.01.53.02.94.1.79.18 1.58.46t1.57.55q.77.28 1.54.47.76.19 1.49.19 1.38 0 2.3-.47.92-.46 1.92-1.37.26-.27.48-.54.22-.28.47-.53.25-.25.57-.41.33-.16.76-.16.77 0 1.04.67.28.67.28 1.67 0 2.23-.79 4.04-.79 1.82-2.99 3.05-.38.23-.83.21-.46-.03-.87.14-.52.27-.9.65t-.81.73q-.42.35-.98.6t-1.38.25q-.76 0-1.62-.31-.87-.31-1.86-.6-.44-.12-.88-.15t-.85-.03q-.41 0-.78-.02-.37-.03-.66-.15-.58-.21-1.39-.7-.81-.5-1.68-1.15-.88-.64-1.82-1.33-.94-.69-1.79-1.27-.7-.47-1.14-.77-.44-.29-.75-.61t-.58-.81q-.28-.48-.69-1.33-.41-.85-.69-1.51-.28-.66-.28-1.19 0-.85.12-1.94.12-1.1.12-2.22 0-.9-.09-1.8-.09-.89-.09-1.8 0-1.64.35-3.1.09-.27.35-.52.27-.25.44-.57.21-.44.38-.95.18-.51.37-1.01t.4-.95q.2-.46.46-.81.33-.41.9-1.05.57-.65 1.24-1.26.68-.62 1.34-1.07.65-.46 1.15-.46.91 0 1.98.21 1.07.2 1.98.2.61 0 .92-.11.31-.12.48-.3.18-.17.28-.36.1-.19.34-.37.23-.18.66-.29.42-.12 1.21-.12.47 0 1.03.03t1.14.09q1.32.11 2.32.11.99 0 1.77.11.78.1 1.42.39.64.3 1.29.98.64.69 1.38 1.88.73 1.19 1.67 3.06.17.38.36.91.19.53.35 1.05.16.53.27 1 .1.47.1.76zm28.42 13.86q.06.58.13 1.08.07.5.07.91 0 .47-.06.7-.05.24-.19.41-.13.18-.35.39-.22.2-.54.61-.35.56-.69 1.17-.33.62-.79 1.12-.45.49-1.05.83-.6.34-1.45.34-.53 0-1.13-.08-.6-.07-1.2-.16-.6-.08-1.17-.16-.58-.07-1.04-.07-2.03 0-4.09-.07-2.07-.08-3.91-.52-.62-.17-1.29-.3-.68-.14-1.35-.31-.67-.18-1.29-.43-.61-.25-1.05-.6-1.26-1.26-2.01-2.75-.75-1.5-1.17-3.37-.43-1.88-.6-4.16-.18-2.29-.3-5.13-.05-.99-.2-1.9-.15-.91-.15-1.41 0-.23.22-.73t.31-.94q.15-.64.13-1.27-.01-.63.05-.78.08-.2.36-.48.28-.28.62-.6.33-.33.67-.66.34-.34.57-.66.21-.29 1.01-.72.81-.42 2.01-.92 1.2-.5 2.7-.98 1.49-.49 3.06-.88 1.56-.4 3.13-.65 1.57-.25 2.92-.28.55 0 1.24.21.69.2 1.38.54t1.33.78q.65.44 1.09.88.23.23.44.77.2.55.46.9.65.82.9 1.23.25.41.32.73t.04.7q-.03.38.06 1.17.06.62.09 1.03.03.41.03.76v1.41q0 .85-.44 1.37-.44.53-1.2.97-.76.44-1.83.85t-2.3 1q-1.03.5-2.2.7-1.17.21-2.17.21h-.23q-.09 0-.24-.06-.2-.03-.7.11l-1.14.34q-.65.19-1.39.35-.75.16-1.45.16-.47 0-.9.14-.42.13-.74.33-.33.21-.52.41-.19.21-.19.38 0 1.03.37 1.64.37.62.8.94.53.38 1.18.53.73.32 1.4.42.68.11 1.35.11 1.11 0 2.33-.18t2.77-.18q.73 0 1.24.18.52.18 1.1.18.62 0 1.23-.12.62-.12 1.17-.26.56-.15 1.07-.27.52-.12.96-.12 1.14 0 1.65.78t.75 2.39zm-11.34-13.48q.06-.14.09-.32t.03-.35q0-.88-.16-1.57-.17-.69-.38-1.17-.22-.48-.49-.73-.26-.25-.47-.25-.55 0-1.67.22-1.11.22-2.25.54-1.15.32-2.07.7-.92.38-1.13.71-.14.23-.2.68-.06.46-.06 1.04 0 1.23.16 1.91.16.67.57.67.27 0 .59-.09.32-.08.63-.19.31-.1.56-.19.24-.08.39-.11.65-.12 1.58-.18.94-.06 1.83-.19.9-.13 1.59-.38.68-.25.86-.75z"/></svg>