<svg viewBox="0 0 340 80" xmlns="http://www.w3.org/2000/svg"><path d="M57.47 44.95q-.82.05-1.64-.15-.82-.21-1.64-.21-.58-.05-1.17 0-.59.06-1.17.06-.65 0-1.2-.06-.56-.05-1.09 0-1.81.18-3.72.09-1.9-.09-3.6-.03-1.17 0-2.2.03-1.02.03-2.14-.09.35.82.3 1.97l-.12 2.31q0 .29.03.62.03.32.03.61-.3 1.41-.21 2.52t.09 2.17v2.25q0 1.09-.29 2.09-.06.29-.06.55 0 .27-.12.38-.12.12-.56.3-.44.17-.73.23-.82 0-1.11.12-.29.11-.59.11-.17 0-.35-.05-.17-.06-.41-.06-.53-.06-1.05 0-.53.06-1.18.11-.58 0-1.2-.11-.61-.12-1.26-.18-.41 0-.76-.03-.35-.03-.82-.03-.64-.11-1.29-.11-.64 0-1.23-.12-.88-.18-1.32-.12-.44.06-.9.06-.65 0-1.35-.09-.71-.09-1.17-.44-.12-.11-.24-.26-.12-.15-.35-.15-.12-.41-.64-.67-.53-.27-.59-.73-.12-.3-.03-.68.09-.38.09-.73V54q0-.38-.06-.73-.12-1.41.41-1.94.12-.12.29-.17.18-.06.24-.24.23-.41.11-.73-.11-.32-.35-.59-.23-.26-.5-.49-.26-.24-.32-.47 0-.18.06-.38.06-.21.06-.33.06-.47.03-.9-.03-.44-.03-.85.23-1 .15-1.76-.09-.76.2-1.58.12-.41.76-.94.18-.18.38-.44.21-.26.27-.44.06-.18-.03-.67-.09-.5-.21-.8-.06-.23-.2-.41-.15-.17-.32-.41-.41-.46-.53-.82-.06-.93-.03-2.02.03-1.08.15-2.14 0-1.17.02-2.63.03-1.47.03-2.93 0-.3.06-.59t.06-.64q.12-.65-.06-1.23-.17-.59-.06-1.23.06-.3.09-.68.03-.38.15-.67 0-.35-.06-.73t.06-.68q.06-.17.17-.35.12-.18.24-.35.29-.47.55-.7.27-.24.74-.53.23-.59.38-1.23.14-.65.5-1.12.23-.11.44-.26.2-.15.32-.44.41-.12.91-.03.49.09.9.21.77-.06 1.76-.09 1-.03 2.05.03 1.06.06 2.11.17 1.06.12 1.94.3 1.81-.35 3.66-.06 1.84.29 3.95.23.35 0 .71-.08.35-.09.7-.09.29 0 .64.06.36.05.77.05.46.06 1.02 0 .56-.05 1.14.06.3.12.47.36.18.23.47.35.47.23 1.2.32t1.38-.03q.47-.06.79-.35.32-.29.73-.35.35-.06.74-.03.38.03.73-.09.47-.06.85-.03t.85.03q1.46.06 3.07.06 1.61 0 3.08.12.29.05.53.11.23.06.52.18.47.35 1.09.73.61.38.79 1.14.12.41-.03.79-.15.38-.15.85-.06.59-.08 1.18-.03.58-.03 1.11 0 .41.08.82.09.41.03.76 0 .47-.26.79-.26.32-.5.44-.29 0-.56.12-.26.12-.55.17-.53.06-1.09 0-.55-.05-1.08-.11-.12 0-.29.03-.18.03-.35.03-.82-.06-1.62-.06-.79 0-1.72-.06l-.71-.12q-.35-.06-.7-.06-.29 0-.59.06-.29.06-.58 0-.47 0-.88-.12-.41-.11-.88.06-1-.17-1.96-.2-.97-.03-1.97.09-.29.05-.61.08t-.62-.14q-.29-.06-.47-.3-.17-.23-.35-.46-.17-.24-.38-.39-.2-.14-.5-.08-.23.06-.29.2-.06.15-.17.32-.36.59-1.35.59h-.91q-.44 0-.73.29-.24.53-.15 1.06.09.52-.03.99 0 .36-.09.71-.08.35-.08.7-.06.29 0 .59.05.29.05.58-.05.47-.14.94-.09.47-.09.94-.06.58-.06 1.23v1.23q1.35.23 2.76.11 1.4-.11 2.75.18.47.47 1.11.76.65.3 1.47.12.29-.12.55-.26.27-.15.56-.27.47-.12 1.11-.12.59-.05 1.03 0 .44.06.91.06.88 0 1.17-.03.29-.03.59-.03.64 0 1.34.03.71.03 1.35.09.29 0 .59.03.29.03.58.09.76.06 1.44.03.67-.03 1.26.2.23.12.55.5.33.38.44.68.12.29.03.64-.08.35-.08.82 0 .12.05.38.06.26.06.44-.11.41-.55.59-.44.17-.44.7 0 .23.14.47.15.23.27.53.17.87-.18 1.4-.35.53-.94.88-.29 0-.61.12t-.62.12zm-.17-24.97q-.71.24-.33.71.39.47.91.52.53.06 1-.32t.17-.79q-.17-.06-.32-.17-.14-.12-.32-.24-.23.24-.53.21-.29-.03-.58.08zM22.55 47.99q.29-.29.26-.76-.02-.47.03-.82.12-.7.12-1.46 0-.77-.35-1.35-.41 0-.62.2-.2.21-.32.53-.12.32-.14.73-.03.41-.03.76-.12.65-.09 1.26.03.62.5.85.41-.29.44-.11.03.17.2.17zm2.52-23.9q.06-1.12.26-1.67.21-.56.09-1.03-.06-.29-.26-.88-.21-.58-.5-.53-.41.12-.47.5t-.17.68q-.12.23-.3.49-.17.27-.29.5-.12.24-.29.35-.18.12-.3.3-.23.52-.35.64-.11.12-.23.24-.18.35-.21 1.08-.03.73.09 1.08.06.3.29.44.24.15.56.15.32 0 .62-.09.29-.09.52-.2.24-.41.56-.85.32-.44.38-1.2zm2.58-2.35q.29-.06.44-.32.14-.26.12-.56-.03-.29-.15-.55-.12-.27-.35-.38-.18.35-.35.93-.18.59.29.88zm5.8 33.75q.47.3.85.03.38-.26.67-.5.59-1.11.53-1.87-.06-.76.06-1.58.12-.47.17-.85.06-.38 0-.68-.82-.06-1.14.24-.32.29-.61.76-.3.47-.21 1.11.09.65-.03 1.17-.06.36-.2.68-.15.32-.27.61.12.3.09.53-.03.24.09.35zm1.82 3.17q.29-.18.26-.5-.03-.32-.32-.56-.59-.29-.85.24-.27.52.14.99.24 0 .38-.09.15-.08.39-.08zm19.45-18.11q.82.12 1.55-.23.73-.36.85-1.35-.35-.35-1.02-.32-.68.03-1.18.29-.49.26-.67.7-.18.44.47.91zM20.38 16.7q.06.65-.14 1.12-.21.47-.5.82-.29.35-.68.67-.38.32-.67.67-.59.65-.56 1.41.03.76-.08 1.58 0 .18-.06.35-.06.18-.12.3v.88q-.06.41-.15.73-.08.32.03.61.06.24.18.44.12.21.17.5.06.47-.08 1.03-.15.55-.09 1.02-.29.24-.7.18t-.3-.65q-.11-.17-.35-.26-.23-.09-.29-.32l.12-.71q0-.17.08-.38.09-.2.09-.32 0-.29-.06-.56-.06-.26-.06-.49 0-.12.09-.33.09-.2.09-.44v-.35q0-.11.06-.41.06-.35.06-.73v-.85q.06-.76.11-1.46.06-.71.06-1.47.06-.12.06-.32 0-.21.12-.32.06-.3.29-.47.24-.18.18-.47.47-.18.64-.65.29-.05.62-.26.32-.2.67-.35.35-.15.65-.12.29.03.52.38zm44.48 4.69q0 .24.02.44.03.21-.02.5-.12 1.11-.53 2.05-.18.41-.62.41t-.5-.47q-.05-.35.09-.76.15-.41.15-.76.06-.94.15-1.38.08-.44.03-1.03 0-.17-.03-.46-.03-.3-.15-.41-.06-.12-.21-.27l-.26-.26q-.06 0-.18-.12-.11-.12-.17-.23-.06-.12-.06-.21t.23-.14q.24 0 .44.17.21.18.5.29.3.12.62.12t.44.24q.23.35.14 1.08-.08.73-.08 1.2zm-24.15 9.84l-.46.36q-.3-.47-.15-1.09.15-.61.15-1.26 0-.41.11-.82.12-.41.47-.58.18.05.32-.12.15-.18.33-.18.17-.06.41.03.23.09.47.03.58-.06 1.14-.17.55-.12 1.2-.12.12.12.26.32.15.21.15.44-.06.47-.5.59-.44.11-.91.05-.23-.05-.38-.14-.14-.09-.32-.03-.29.06-.7.23-.41.18-.65.36-.17.23-.23.55-.06.32-.12.68-.06.35-.17.58-.12.24-.42.29zm5.28-2.75q-.06-.41.32-.61.38-.21.79-.27.41.29.21.85-.21.56-.68.5-.17 0-.38-.18-.2-.17-.26-.29zm14.94 15.53q.76.41.7 1.2-.06.79-.17 1.43-.18.59-.71.71-.52.11-1.05.23-1.11-.06-1.79-.23-.67-.18-1.32-.06-.46.06-1.14.09-.67.03-1.14-.44-.12-.59.23-.79.35-.21.71-.33.46.18.96.36.5.17 1.15.11.17-.06.35-.11.17-.06.41-.06.41 0 .91.03.49.03.79-.15.35-.23.58-.97.24-.73.53-1.02zM39.13 55.9q.3-.35.65-.2.35.14.47.44 0 .52-.06.96-.06.44-.3.74-.41-.06-.52-.27-.12-.2-.15-.5-.03-.29-.03-.58t-.06-.59zm-.17 2.81q.29-.29.61-.02.32.26.32.49.06.65-.11 1.67-.18 1.03-.3 1.67-.7.36-1.49.59-.79.23-1.73.18-.35-.06-.67-.12-.32-.06-.68-.12h-.49q-.27 0-.38-.17l.08-.39q.03-.14-.08-.44.46-.23.9-.08.44.14.91.14.59 0 1.35-.41.76-.41 1.11-.76.53-.76.47-1.26-.06-.5.18-.97zm74.24-37.67q.11 1 .11 1.9 0 .91-.35 1.91-.64.06-.64-.21 0-.26-.06-.5-.3-.82-.68-1.58-.38-.76-.85-1.46-.58-.41-1.14-.76-.55-.36-1.14-.82-.76-.12-1.52-.39-.77-.26-1.7-.32-.71 0-.88-.09-.18-.08-.41-.08-.3 0-.68.03-.38.03-.73 0t-.56-.18q-.2-.15-.08-.61.17-.36.55-.47.38-.12.82-.12.44 0 .91.03.47.03.76.03 1.12.11 2.05.61.94.5 1.94.85.47.12.61.21.15.09.27.14.47.12.93.12.47 0 .77.41.58.18.93.59.36.41.77.76zm-37.5-1.41q-.59.06-1.18-.09-.58-.14-.58-.61-.06-.47.35-.41t.7-.06q.41.29 1.09.18.67-.12.96.17.06.3-.44.53-.49.23-.9.29zm34.57 4.4q.41.7.61 1.32.21.61.32 1.61.3 1.7.21 3.69t-.27 3.98q-.05 1.17-.52 2.23-.12.29-.18.61-.06.33-.17.56-.12.24-.36.32-.23.09-.58-.03-.29.3-.59.59-.29.29-.41.76-.06.71-.23.94-.18.23-.3.35-.46.24-.46.29 0 .06-.12.12-.41.12-.68.29-.26.18-.49.3-.59-.12-1.17.11-.59.24-1.06.12-.18 0-.29-.09-.12-.08-.35-.03-.3.77-.06 1.15.23.38.52.79.47.76.82 1.46.36.71.94 1.29-.06.18.12.32.18.15.23.44-.05.71 0 .77.06.05.06.17.18.41.27.85.08.44.38.67.64.24.79.39.14.14.38.02.53.71 1.2 1.38.67.68.67 1.85-.46.11-1.11.11h-1.29q-.47 0-.97.09-.49.09-.96-.03-.65.12-1.26.18-.62.06-1.44-.06-.64.18-1.37 0-.74-.18-1.09-.64-.12-.59-.61-1.12-.5-.52-.38-1.23-.24-.41-.21-.88.03-.47-.26-.76-.35-.29-.74-.38-.38-.09-.67-.38-.23-.18-.35-.41-.12-.23-.24-.47-.29-.47-.64-.82-.35-.35-.47-.82-.53-.53-.94-1.17-.41-.65-.76-1.29-.47-.35-.64-.47-.3.12-.5.09-.21-.03-.5-.09-.82-.12-1.84 0-1.03.12-2.03.12-.64 0-1.4.06-.76.05-1.47.23.06 1.35 0 3.11-.06 1.75.12 2.98-.12.59-.09 1.32.03.74 0 1.38-.03.64-.26 1.2-.24.56-.82.79-.53 0-1.11.12-.59.12-1.18.12-.29 0-.61-.06t-.68-.06q-.41.06-.93.09-.53.03-1-.03-.29 0-.56-.09-.26-.09-.55-.09h-1.53q-.7 0-1.34-.29-.3-.12-.53-.26-.24-.15-.65-.03-.46.11-.79.38-.32.26-.61.26-.29.06-.91-.2-.62-.27-.85-.44-.23-.18-.5-.65-.26-.47-.32-.82-.23-.88.35-1.35 0-.52.21-.88.2-.35.14-.87-.06-.65-.47-1t-.7-.82q-.12-1.35-.03-2.87.09-1.53.03-2.93 0-.29-.09-.59-.08-.29-.03-.58.06-.18.15-.33.09-.14.21-.38.11-.29.14-.64.03-.35.32-.53-.05-.35.03-.67.09-.32.03-.68-.29-.52-.26-.73.03-.2-.03-.32-.12-.35-.32-.62-.21-.26-.27-.55-.11-.53 0-1v-6.21q.06-.59.12-1.05.06-.47.06-.94-.06-.18-.12-.35-.06-.18-.06-.36 0-.23.03-.43.03-.21.03-.39 0-.23-.03-.43-.03-.21-.03-.44.12-2.11 1.88-2.58.64-.12 1-.09.35.03.76-.03.17-.06.35-.12.17-.06.35-.06.7 0 1.11.41.41.41 1.18.41.35.06.64 0 .29-.05.59-.11.41-.12.79-.3.38-.17.85-.35 1.23-.17 2.57-.17.3 0 .62.06.32.05.62.05.46 0 .96-.08.5-.09.97-.15.41 0 .76.06.35.06.76.06 1 .11 2.08.09 1.09-.03 2.08-.03.76.05 1.03 0 .26-.06.55-.06.36-.06.68 0 .32.06.61.06.59 0 1.12-.12.52-.12 1.05-.12.7.06.82 0t.24-.06q.76-.11 1.49 0 .73.12 1.49.06.77.65 1.41.65.82 0 1.58-.36.76-.35 1.58-.41.18 0 .33.06.14.06.32.06l1.29.12q.64.06 1.11.23.35.3.73.59t.85.47q.59.53 1.06 1.2.47.67.94 1.32zM74.05 51.16q.3-.18.36-.74.05-.55-.18-.9-.18-.24-.53-.27-.35-.03-.64.09-.29.23-.68.79-.38.56-.14 1.08.41.06.91.12.49.06.9-.17zM74 24.5q.11-.41-.09-.68-.21-.26-.38-.55-.59-.12-.88-.44-.29-.33-.76-.21-.59.12-.56.91.03.79.03 1.26-.06.7.03.91.09.2.09.44.06.35 0 1.02-.06.68.17.91.24.23.56.06.32-.18.44-.35.12-.3-.03-.53-.15-.23-.15-.53-.06-.29 0-.55.06-.27.12-.56.06-.29.12-.53.06-.23.17-.47.24-.11.53-.06.29.06.59-.05zm14.59-.47l-.36.11q-.29-.17-.67-.02-.38.14-.5.43.12.41.53.71.18-.06.44-.12t.56-.09q.29-.03.49-.14.21-.12.21-.36 0-.17-.21-.35-.2-.17-.49-.17zm-4.75 1.29l1.29-.41q.12-.24.06-.47-.06-.24-.18-.35-.41-.24-.76-.15-.35.09-.64.15-.36.05-.62.03-.26-.03-.56.08-.47.3-.55.85-.09.56-.21 1.2l-.12.71q-.05.35 0 .64 0 .24.24.7.23.83.7 1.03.47.21.65-.26.06-.47-.03-1.06-.09-.58.03-1.23.06-.35.23-.85.18-.5.47-.61zm12.07 7.14q0-.29-.06-.49-.06-.21-.06-.44 0-.59.09-1.17.09-.59.03-1.18 0-.58-.29-.85-.3-.26-.59-.55-.17-.12-.32-.27-.15-.14-.26-.2-.36-.18-.68-.18-.32 0-.79-.06-.35-.11-.59-.35-.23-.23-.52-.35-1.06.41-1.61.41h-1.09q-.35 0-.7.09t-.7.09q-.65.06-1.26-.03-.62-.09-1.26.14-.12.53 0 1 .11.47.11 1 0 1.46-.03 2.34-.03.88.03 1.7.06.29.15.53.09.23.15.52 0 .59-.09 1.23-.09.65.09 1.18.64-.06 1.11.03.47.08.94.2.47-.12 1.17-.15.7-.02 1.29-.02.7.29.96.38.27.08.5.03.3-.12.59-.39.29-.26.58-.38.53-.11 1.06-.17.53-.06.88-.3.12-.05.26-.23.15-.18.27-.29l.35-.65q.06-.11.11-.41.06-.29.06-.47v-.67q0-.32.12-.62zm10.31-5.97q.12.23.38.29.27.06.56.12.29-.18.53-.59.23-.41.23-.88-.06-.35-.29-.7-.24-.35-.24-.7-.35-.3-1.02-.68-.67-.38-1.38-.38-.17 0-.38.27-.2.26-.15.55.12.3.56.44.44.15.73.32.53.41.56.85.03.44-.09 1.09zm2.46 3.46q0-.41.06-.77.06-.35-.23-.52-.24.17-.44.05-.21-.11-.38-.05-.3.05-.5.35-.21.29-.15.53.06.46.65.55.58.09.99-.14zm-19.74-2.06l.23.12q.47.06.91-.09.44-.14.73.15.18.64-.32.76t-.97.24q-.47.17-.64.49-.18.33-.47.56-.12.24-.23.38-.12.15-.18.32-.29.3-.62.33-.32.03-.43-.62-.06-.29-.06-.67v-.73q-.06-.77.29-1 .35-.24 1.05-.24h.71zm3.98.3q.12.11.32.41.21.29.21.41t-.21.35q-.2.23-.32.29-.58.3-1.08-.17-.5-.47-.27-1.18.3-.11.68-.2.38-.09.67.09zm16.64 12.48q.12-.47.62-.68.5-.2.79.44 0 .94-.59 1.29-.88-.41-.82-1.05zm-.17 1.23q.41.12.47.76.05.64-.12.94-.12.11-.41.41-.29.29-.47.41-.29.12-.65.06-.35-.06-.64-.06-.12.88.35 1.43.47.56.59 1.26.06.24 0 .44-.06.21-.06.44-.88-.11-1.26-.67t-.67-1.03q-.3-.58-.3-1.14 0-.56.3-1.2.64-.41.9-.47.27-.06.56-.35.18-.12.32-.38.15-.27.3-.47.14-.21.32-.35.17-.15.47-.03zm-22.03 2.99q.82-.47 1.78-.38.97.08 1.91.14-1.12.59-1.85.91-.73.32-1.08 1.08-.06.94-.38 1.59-.33.64-.5 1.4-.35-.99-.35-2.37 0-1.38.47-2.37zm-19.69 3.57q.64-.35.88.06.23.41.2 1.02-.03.62-.35 1.21-.32.58-.79.58-.47-.53-.26-1.4.2-.88.32-1.47zm19.1 4.04q-.23-.23-.18-.64.06-.41.27-.7.2-.3.5-.41.29-.12.52.17.06.71-.17 1.2-.24.5-.94.38zm13.53 2.88q.94 0 1.73.05.79.06 1.5 0 .17.24.06.44-.12.21-.38.35-.27.15-.62.27-.35.12-.64.17-.47.06-1.09.03-.61-.03-1.08-.08-.88-.06-1.47-.77-.11-.41-.26-.76-.15-.35-.15-.94.12-.11.24-.2.11-.09.35-.09.47.29.91.73.44.44.9.8zm-24.6.87q.23.12.52.09.3-.03.56-.06.26-.03.5 0 .23.03.35.27-.59.23-.97.32t-.85.09q-.35 0-.7-.06t-.7-.06q-.3 0-.53.09-.24.09-.47.14-.64.12-1.35.12-.7 0-1.4.12-.47.06-1.06.03-.58-.03-.88-.15-.64-.23-.76-.91-.12-.67 0-1.32.12-.11.29-.17.18-.06.3-.24.47 0 .55.47.09.47.44.65.59.29 1.32.14.73-.14 1.55-.2.18 0 .38.06.21.06.44.06.41 0 .68-.03.26-.03.5.03.64.35.88.32.23-.03.41.2zm47.93-35.68q-.3-.06-.62-.03t-.59 0q-.26-.03-.44-.2-.17-.18-.11-.65.41-.35.76-.35.35 0 .64-.06.65.18.82.76-.17.41-.46.53zm-3.52-.06q-.59-.17-1.11-.03-.53.15-1.06.38-.12.12-.2.35-.09.24-.21.47-.06.3-.15.56-.08.26-.08.5-.06.29-.03.58.03.3-.27.41-1.17-.52-.87-1.69 0-.18.08-.39.09-.2.09-.44.06-.46.09-.82.03-.35.32-.58.29-.29.67-.27.39.03.8.03.93-.23 1.26 0 .32.24.73.24.06.58-.06.7zm21.56 32.76q-.06.35.06.64.12.29.12.59 0 .52-.18.96-.17.44-.29.79-.18.12-.35.18-.18.06-.24.29-.52.06-.99.24-.71-.12-1.29-.09-.59.03-1.23-.03-.24 0-.65-.03-.41-.03-.7-.15-.94-.41-1.82-.87-.88-.47-2.05-.36-.23 0-.41.09-.17.09-.41-.03-.47.24-.94.24-.46 0-.82.23-.76.12-1.46.26-.7.15-1.52.09-.36-.06-.71-.03t-.64.03q-.41 0-.82-.06-.41-.05-.88-.11-.65 0-.94-.06-.64-.06-1.32-.06-.67 0-1.29-.15-.61-.14-1.02-.47-.41-.32-.41-1.14 0-.17.09-.35.08-.18.08-.35-.11-.65-.29-1.32-.17-.67 0-1.14.41-.76.47-1.03.06-.26.35-.5.65-.23 1.32-.35.67-.11 1.49-.11.12-.24.09-.5-.03-.27.03-.56.18-.12.27-.32.08-.21.38-.27.23-.46.38-.84.14-.39.03-.85-.12-.36-.41-.65-.3-.29-.3-.76 0-.35.12-.79.12-.44.18-.91 0-.7.17-.91.18-.2.29-.38.12-.64.24-.82.12-.17.23-.47.12-.53.21-.96.09-.44.09-1.09-.06-.23-.03-.5.03-.26-.09-.49-.12-.36-.35-.62-.24-.26-.35-.56-.12-.47-.21-.93-.09-.47-.03-.94 0-.53.03-1.14.03-.62.03-1.26.12-.88 0-1.53-.23-.82-.23-1.05 0-.24-.24-.35-.58.11-1.23.2-.64.09-1.23-.09-.41-.29-.88-.58-.47-.3-.64-1.06-.12-.47.03-1.02.14-.56.2-1.15.06-.7 0-1.28-.06-.59.06-1.12.12-.41.41-.58.29-.18.47-.35.94-.12 1.9-.15.97-.03 1.91.26.17.53.76.76.59.24 1.05.06.18-.06.27-.2.09-.15.2-.27.59-.23 1.15-.11.55.11 1.2 0 .82.11 1.64.14.82.03 1.64.09.29 0 .53.03.23.03.52.26.18 1.12 1.53 1.12.23 0 .38-.09.14-.09.38-.21h.7q.82-.11 1.14.03.33.15.62.15.53 0 .99-.23.42-.12.68-.33.26-.2.56-.32.41.06.9.03.5-.03.85.03 1 .12 1.47.41.7.41.47 1.05.11.59.17 1.35.06.76-.03 1.47-.08.7-.32 1.29-.23.58-.7.82-.3-.12-.56.03-.26.14-.5.2-.52.12-1.08.06t-1.14 0q-.06.41-.15.7-.09.3.15.53-.18.94-.18 1.67t-.09 1.41q-.08.67-.29 1.26-.21.58-.67.93-.24.65-.24 1.26 0 .62.12 1.2.12.59.23 1.21.12.61.18 1.26.06.29-.03.58t-.15.59q-.11 1.7.06 3.57.18 1.88-.23 3.93.64.17 1.2.14.56-.03 1.2.21.18.12.32.2.15.09.32.15.41.18.68.26.26.09.38.56.06.12.06.35v.47q.06.47-.03.79-.09.32-.15.68zm-19.57.7q.29-.06.56-.26.26-.21.26-.44-.06-.18-.41-.41-.35-.24-.64-.36-.3-.11-.41 0-.12.12-.41.18-.12.29-.21.5-.09.2-.09.61.65.12.88.18.24.06.47 0zm2.7-23.5q.64.06.88-.09.23-.14.46-.32.06-.64.36-1.29.29-.64.23-1.29-.06-.46-.29-.73-.24-.26-.41-.55-.76-.18-1.41-.41-.64-.24-1.17.41.12.23.32.23.21 0 .44.12.35.17.59.82.17.41.14.76-.03.35-.08.7-.06.41 0 .85.05.44-.06.79zm1.75 3.52l.12-.82q.06-.41-.23-.65-.18-.17-.56-.2-.38-.03-.56.09-.17.29-.11.58.06.3.06.65.52.41 1.28.35zm18.81-7.03q-.41.35-.55-.03-.15-.38-.09-.79.17-.24.44-.21.26.03.32.32.06.18-.06.3-.12.11-.06.41zm-.06 1.29q.24.29.24.67 0 .38-.12.79l-.23.79q-.12.38-.18.68-.12.05-.26.14-.15.09-.38.15-.24 0-.5-.09t-.56-.09q-.64-.17-.67-.41-.03-.23-.03-.47 1-.17 1.52-.87.18-.3.21-.74t.14-.73q.24-.18.47-.09.24.09.35.27zm-6.03 19.63l-.23-.36q0-.82.02-1.55.03-.73.15-1.61.06-.53.06-1t.06-.82q0-.35.23-.76.24-.41.65-.12.06.12.06.33 0 .2.05.32-.11.99-.03 2.23.09 1.23.39 2.16.23.24.46.44.24.21.71.27.29.23.2.64-.09.41-.38.53-.64-.18-1.29-.29-.64-.12-1.11-.41zm-19.75 9.14q.36-.12 1.12-.03.76.08.99.55-1.29.65-2.4.76-1.11.12-1.99-.29-.82-.35-.79-1.05.03-.71.09-1.29.05-.41.05-.91t.06-.91q.06-.41.24-.67.17-.27.58-.27.3.24.32.62.03.38.09.79 0 .41-.09.76-.08.35-.08.65.06.76.52.99.47.24 1.29.3zm43.95-32.11l-.35.17q-.41-.12-.65-.58-.23-.47-.23-.94 0-.65.12-1.47.11-.82.52-1.11.47.18.79-.15.33-.32.62.03-.12.47.12.94.23.47-.18.88-.76.23-.61.91.14.67-.15 1.32zm15.41-2.93q-.59-.65-.12-.91.47-.27.88.03.35-.12.59-.06.23.06.64.12.41.29.32.9-.08.62-.55.8-.18-.12-.44-.15-.27-.03-.56-.15-.23-.11-.41-.29-.18-.18-.35-.29zM178 54.96l-.35.06q-.94.41-1.5.56-.55.15-1.02.21-.7.11-1.47.11-.76 0-1.23-.47-.58-.23-1.08-.11-.5.11-.97.38-.47.26-.91.55-.43.3-.96.36-.59.11-1.23.14-.65.03-1.29.09h-1.41q-.29 0-.5-.06-.2-.06-.44.06-.46-.12-.85-.06-.38.06-.79 0-.29 0-.61-.03t-.62-.03q-.17 0-.35.06-.17.06-.35.06-.7-.12-1-.03-.29.09-.58.09-.29.06-.5 0-.2-.06-.44-.06l-1.17.12q-.59.06-1.23.06-.47-.06-.97-.21t-.97-.2q-.11-.06-.26-.18-.15-.12-.26-.23-.24-.12-.44-.27-.21-.14-.56-.2-.29-.35-.58-.53-.18-.47-.36-.53-.17-.06-.29-.17-.12-.41-.35-.74-.23-.32-.35-.73-.12-.35-.09-.7t-.09-.65q-.12-.35-.41-.61-.29-.27-.47-.56-.23-.29-.44-.61-.2-.33-.32-.79-.06-.41 0-.8.06-.38 0-.79 0-.41.03-.76.03-.35.09-.64 0-.3.12-.65.29-.88.29-1.14 0-.26.23-.44.76-.23 1-.41.23-.18.64-.23.18-.06.38 0 .21.05.39.05.76-.05 1.49-.17.73-.12 1.38.17.17.12.38.33.2.2.26.38.18.35.15.73t-.09.85q-.06.23 0 .44.06.2.06.44-.06.29-.24.64-.17.35-.05.82.05.24.23.33.18.08.35.2.18.18.35.41.18.24.35.41.3.24.68.53.38.29.79.35.23.06.53.03.29-.03.64-.03.29 0 .53.06.23.06.47.06.93.06 1.99-.06 1.05-.12 1.87-.24.65-.11 1.15-.38.5-.26.85-.55.06-.47.2-.82.15-.35.32-.71.24-.82.12-1.61-.12-.79 0-1.61.12-1.11-.03-1.58-.14-.47.15-.94.06-.17.17-.32.12-.15.24-.32.23-.71.35-1.06.12-.35.06-.82t-.29-.97q-.24-.49-.53-.67-.47-.29-.5-.61-.03-.33-.09-.56 0-.29.03-.7t.03-.77q-.06-.76-.06-1.34 0-.59.12-1.23.12-.59.2-1.03.09-.44-.08-1.14-.24-.82-.35-1.03-.12-.2-.18-.38-.12-.29-.12-.94 0-.64-.06-1.11-.05-.82-.14-1.61-.09-.79-.03-1.44.06-.52.29-1.05.24-.53.7-.64.71.11 1.06.05.35-.05.47-.11.35 0 .64.08.29.09.71.09.29.06.7-.03.41-.08.82-.14.23 0 .47.03.23.03.52.03.36-.06.74-.18t.73-.12q.35-.06.7-.03t.71.03q.99-.11 1.55-.14.56-.03.91.14.23.12.35.35.12.24.41.24.29.58.94.82.64.23 1.34.41.24.23.47.5.24.26.41.55.12.18.3.41.17.24.17.41.12.3.06.65-.06.35-.06.64 0 .47.12.91.12.44.12.91-.12.64-.09.88.03.23.09.53.11 1.87.32 3.8.2 1.94.32 3.99-.12.64-.35 1.23-.24.58-.29 1.29 0 .47.11.91.12.44.24.9.11.36.23.68.12.32.12.61.06.47.12.97.05.5.05 1.14.06.24.03.5t-.03.56q.06.29.12.55.06.27 0 .56-.17 1.06-.2 1.76t-.27 1.29q-.06.17-.14.35-.09.17-.21.35-.06.18-.09.38-.03.21-.14.32-.3.47-.65.85-.35.38-.52.91-.3-.06-.42.09-.11.15-.23.26-.59.18-.76.41-.18.24-.47.35zm.23-10.72q-.05.53.09.97.15.44.56.44.58-.06.61-.79.03-.73-.32-1.2-.7.29-.76.38-.06.09-.18.2zm-.82 6.56q.06.3 0 .62-.05.32.12.56.29 0 .5.08.2.09.5.03.29-.11.41-.38.11-.26.41-.32.06-.47.32-.94t.15-1.11q-.12-1 .06-1.64.17-.65-.42-.94-.35.41-.52 1-.18.58-.35 1.2-.18.61-.41 1.11-.24.5-.77.73zm-25.6-1.64q.47-.11.64-.82.18-.7-.35-.76-.58.12-.76.38-.18.27-.21.56-.02.29.12.5.15.2.56.14zm4.63 3.93q.23-.23.5-.38.26-.15.26-.62-.65-.17-1.35-.29-.7-.12-1.11-.59-.18-.29-.35-.49-.18-.21-.35-.44-.47.11-.83.23-.29.35.09.73.38.39.56.62.59.64.88 1.05.41.18.73.21t.97-.03zm13.59-27.48q.29-.59-.17-.88-.47-.29-.94-.41-.65.12-.97-.03-.32-.15-.67.09-.06.06-.24.35-.17.29-.17.59-.06.29 0 .73t.06.85q0 .64.17 1.11.18.47.82.29.47-.52.44-.96-.03-.44.21-.73.29-.3.7-.5.41-.21.76-.5zm3.63-.76q.12-.71-.55-.71-.68 0-.91.36-.12.46.09.64.2.18.5.18.29 0 .58-.15t.29-.32zm-8.78 15.82q-.3.58-.27.67.03.09.03.21-.12.35-.5.55-.38.21-.67-.26-.29-.7-.18-1.38.12-.67.12-1.43 0-.24-.03-.41-.03-.18.03-.41.12-1.17.06-1.85-.06-.67.06-1.32.64.71.64 1.47t.12 1.52q.12.41.32.73.21.33.32.79.12.53-.05 1.12zm-11.9 1.05q0 .24-.18.32-.17.09-.35.06-.17-.03-.32-.2-.15-.18-.15-.41.18-.29.59-.18.41.12.41.41zm2.87.71q-.53.11-.91-.09-.38-.21-.26-.73.7-.24 1.14-.24.44 0 .79.12.47.17.79.79.33.61.44 1.26.06.29.03.82t-.14.82q-.12.18-.38.23-.27.06-.5.18-.3-.12-.35-.35-.06-.24 0-.56.05-.32.14-.61.09-.3.03-.59-.06-.41-.29-.61-.24-.21-.53-.44zm27.6 3.69q.35.06.59.32.23.26.35.67.11.41.11.82t-.11.77q-.18.52-.59.43-.41-.08-.59-.55-.17-.47-.14-1t-.09-.99q.12-.12.18-.33.05-.2.29-.14zm.06 4.39q.41 0 .47.32.06.33.41.38.23 1.35.03 2.64-.21 1.29-1.21 1.76-1.11 1.05-2.34 1.41-.35.05-.73.2-.38.15-.68.21-.17 0-.35-.03-.17-.03-.35-.03-.82.23-1.08.23-.27 0-.5.12-.29.12-.5.47-.2.35-.67.23-.3-.06-.47-.61-.18-.56.17-.79.3-.12.83-.24.52-.12.76 0 .23-.12.55-.23.33-.12.68 0 .17-.06.35-.21.17-.14.41-.09.53-.29 1.08-.55.56-.27 1.06-.62t.85-.82q.35-.47.47-1.17.29-.47.38-1.2.08-.73.38-1.38zm-12.42 6.86q.35-.18.52.03.18.2.47.26.12.18.09.41-.03.23-.09.41-.29.29-.99.06-.71-.24-.82-.47-.18-.35.08-.76.27-.41.74.06zm27.01-35.39q-.24.06-.38.17-.15.12-.44 0-.35-.35.06-.99.23-.12.44-.24.2-.12.43-.17.3-.18.53-.36.24-.17.59-.23.58-.35 1.17-.73t1.41-.21q.7.12.82.27.11.14 0 .44-.24.11-.5.14-.27.03-.56.15-.23.06-.41.15-.17.08-.35.2-.29.12-.64.12-.36 0-.53.29-1 .29-1.64 1zm33.81 29.65q-.59.41-.88.87-1.41 1-2.84 2-1.44.99-3.08 1.75-.65.41-1.08.56-.44.15-.91.32-.24.06-.35.18-.12.12-.24.17-.76.18-1.05.3-.3.11-.59.23-.23.06-.7.29-.71.24-1.61.15-.91-.09-1.85.03-.35.06-.82.12t-.94.17q-.47-.11-1.14-.11-.67 0-1.32-.06-.41-.06-.82-.18t-.88-.17q-.58-.06-1.17-.09t-1.23-.21q-.76.12-1.32-.11-.55-.24-1.2-.18-.35-.12-.79-.2-.44-.09-.82-.21-.38-.12-.65-.35-.26-.24-.2-.7-.29-.41-.85-.65-.56-.23-1.08-.47-.41-.06-.71.12-.29.18-.64.18-.18.05-.44 0-.26-.06-.5-.12-.47-.12-.79-.3-.32-.17-.79-.46-.18-.12-.35-.12-.18 0-.35-.12-.47-.29-.88-.61-.41-.33-.88-.44-.88-1.17-1.76-2.23-.88-1.05-1.41-2.46-.29-.35-.44-.73-.14-.38-.32-.85-.11-.12-.26-.24-.15-.11-.38-.23-.53-.65-.85-1.47-.32-.82-.79-1.46-.24-1.7-.5-3.49-.26-1.78.44-3.54.23-.71.58-.97.36-.26.47-.85.06-.17 0-.41-.06-.23 0-.47.12-.35.18-.79.06-.44.17-.85.41-.82.74-1.64.32-.82.79-1.46.17-.65.7-1.18.41-.41.88-.76.29-.11.53-.11.23 0 .52-.12.3-.12.59-.32.29-.21.59-.33.58-.82.9-1.46.33-.65.8-1.06.46-.35.87-.55l.88-.44q.82-.12 1.18-.7.58-.24 1.08-.27.5-.03 1.08-.2.47-.12.79-.21.33-.09.68-.15.29-.05.56-.17.26-.12.55-.12.47 0 .85.12t.73-.18q.65-.17 1.18-.11.52.05 1.17.05.35 0 .67-.02.32-.03.62-.03.23 0 .41.05.17.06.35.12.23 0 .47-.03.23-.03.52-.03.77 0 1.79.15 1.03.15 1.96.26.41 0 .88.12.47.12.94.06 1.17.23 1.85.47.67.23 1.49.41.29.06.59.06.29 0 .41.17 1.17.47 2.34.85t2.17 1.03q.29.17.58.41.3.23.59.35.47.29.94.53.47.23.64.64.47.12.79.41.33.29.74.41.46.53 1.02.97.56.44.85 1.08.47.3.7.65.24.35.53.64.47 1.17.94 2.08.47.91.53 2.08.29.65.61 1.52.32.88-.32 1.53-.18.47-.44.91-.26.44-.44.9-.06.3-.12.8-.06.49.06.73.18.35.59.7t.64.76q.06.18.06.35 0 .18.12.3-.24.41-.38 1.02-.15.62-.38 1.2-.06.59-.03.62.03.03.03.15-.71 1.28-1.06 2.08-.35.79-.94 1.55-.11.23-.26.5-.15.26-.38.49-.18.24-.44.39-.26.14-.26.44zm-37.68-19.99q.18-.29.18-.99t-.24-.82q-.29.12-.61.32-.33.21-.44.56-.18.58.06.93.17.18.55.21t.5-.21zm5.74-6.21q.35-.35.35-.76-1.05-.12-1.34.41-.65.3-.94.91-.29.62-.82.97-.24.11-.59.29t-.64.47q-.12.12-.21.32-.08.21-.08.38.05.12.26.21.2.08.32.08.41 0 .65-.32.23-.32.52-.61.35-.18.59-.47.23-.29.47-.53.29-.35.7-.67.41-.32.76-.68zm.82 26.31q.3 0 .5-.23.21-.24.21-.47.05-.18-.06-.32-.12-.15-.24-.27-.23-.29-.44-.73-.2-.44-.32-.73-.12-.35-.12-.7v-.68q0-.32-.05-.58-.06-.27-.36-.5-.35.41-.29.91.06.49-.06 1.14-.11.76-.06 1.49.06.73.36 1.09.11.11.49.32.38.2.44.26zm20.34-8.49q.11-.88.14-1.73.03-.85.15-1.67.12-.47.35-.91.23-.44.29-.91.12-.76-.09-1.52-.2-.76-.26-1.58 0-.82.09-1.59.09-.76.15-1.58 0-.29-.09-.41t-.09-.35q-.12-.29-.09-.53.03-.23-.09-.35-.05-.12-.26-.32-.2-.21-.32-.32-.3-.3-.76-.47-.47-.18-.82-.3-.18-.23-.44-.41-.27-.17-.38-.52-.12-.06-.27-.21-.14-.14-.38-.14-.35-.06-.61.11-.27.18-.56.24-.53 0-.59.03-.06.03-.17.03-.82-.06-1-.12-.17-.06-.47-.12-.64-.12-1.2-.12-.56 0-.97-.35-.17-.11-.29-.32-.12-.2-.23-.32-.18-.06-.65-.18-.64.06-1.08.59-.44.53-.91.64-.7-.06-.91-.03-.2.03-.5.09-.76.12-1.28.32-.53.21-1.12.5-.41.47-.64 1-.24.53-.53 1.23-.12.47-.06.85t.06.67q-.12.65-.18 1.38-.05.73-.17 1.38-.12.46-.18.96-.06.5-.17.97-.06.23-.09.47-.03.23-.09.47 0 .99-.09 1.32-.08.32-.2.67-.41.41-.59.91-.17.5-.29.96-.12.88.06 1.79.17.91.23 1.73.06.88 0 1.61-.06.73 0 1.5.12.23.32.32.21.09.27.32.41.29.73.53.32.23.79.47.18.11.32.17.15.06.33.18.35.11.67.11.32 0 .62.12.17 0 .32.06.14.06.32.12.64.11 1.26.17.61.06 1.02.3 1.29.11 2.32.17 1.02.06 2.2.18.76 0 1.55-.12t1.49-.29q.47-.12.97-.24.5-.11.85-.35.29-.12.7-.55.41-.44.65-.74.23-.29.29-.73.06-.44.18-.91.05-.35.11-.67.06-.32.12-.62.12-.7.12-1.49t.12-1.55zm10.19-11.78q.12-.65-.38-1t-.91-.76q-.41.18-.41.5t.26.61q.27.3.65.5.38.21.79.15zm.94 5.21q.17.24.12.59-.06.35.17.47.12-.47.44-.76.32-.3.44-.77.12-.29 0-.64-.12-.35-.18-.7-.29-1.12-.7-1.47-.29.88-.26 1.67.03.79-.03 1.61zm-37.15-13.06l.12.29q-.3.76-.91 1.17-.62.41-1.5.3-.11-.88.56-1.38.67-.5 1.38-.68.29-.23.55-.41.27-.17.62-.17 0 .35-.29.5-.3.14-.53.38zm42.95 8.55q.12.41.29.91.18.5 0 .97-.12.35-.29.67-.18.32-.53.44-.53-1.99-1.23-3.37l-1.41-2.78q.3-.35.62-.21.32.15.62.44.35.35.55.68.21.32.5.73.12.23.26.38.15.15.27.38.11.12.17.35.06.24.18.41zm-24.2-2.99q.47-.11 1.02.09.56.21.44.68-.05.29-.55.43-.5.15-.79.03-.35-.11-.53-.61-.18-.5.41-.62zm5.27.82q.18 0 .3.15.11.15.23.26.18.24.41.68.23.44.35.91.12.46.12.96 0 .5-.24.91-.58.18-1.05-.12-.35-.46-.29-1.2.06-.73-.24-1.2-.29-.53-.91-.53-.61 0-1.08-.35.06-.23-.03-.5-.09-.26.15-.38.64.12 1.23.21.58.09 1.05.2zm16.47 18.81h.41q.29 1.12-.32 1.91-.62.79-1.09 1.26.12.82-.23 1.26-.35.44-.76.85-.3.05-.8.29-.49.23-.73.53-.53.58-.94 1.31-.41.74-1.05 1.21-.35.05-.82.17-.47.12-.88 0-.12-.06-.41-.38t-.23-.44q0-.23.23-.35.23-.12.29-.41.3-.12.59-.15t.59-.2q.76-.71 1.2-.85.44-.15.79-.5.29-.35.58-.67.3-.33.59-.62l.85-.85q.38-.38.79-.85.29-.41.53-.85.23-.44.52-.91.12-.23.15-.44.03-.2.15-.32zm-10.02 9.08q.29-.23.99-.35.71-.11.94.35.12.12.12.39 0 .26-.18.55-.17.3-.85.38-.67.09-1.08.09-.47-.12-.38-.64.09-.53.44-.77zm-20.98.47q-.35.53-.85.38-.5-.14-.96-.26-.18-.06-.39-.03-.2.03-.38-.03-.47-.12-.88-.38-.41-.26-.87-.38-.18-.06-.41-.15-.24-.08-.41-.23-.18-.15-.21-.32-.03-.18.21-.41.17-.24.76-.33.58-.08.82.03.47.41.52.38.06-.02.18.03.41.53.5.59.09.06.15.18.35.46.55.46.21 0 .38.06.3.12.62.21t.67.2zm-15.7-27.42q-.06.18.03.41.09.24.03.53-.12.41-.18 1-.06.58-.29.87-.12.12-.5.27-.38.14-.67.03-.12-.12-.27-.38-.14-.27-.14-.38 0-.36.17-.85.18-.5.35-.85.36-.77.74-1.5t.79-1.32q.29-.35.58-.58.3-.24.59-.53.47 0 .56.47.08.47-.21.82-.64.41-1.08 1.05-.44.65-.5.94zm71.95-7.79q0-.12-.23-.21-.24-.08-.47-.17-.24-.09-.44-.24-.21-.14-.21-.32 0-.17.24-.23.23-.06.35-.06.47-.06.91.14.44.21.79.33.47.29.73 1.2.27.91.21 1.67 0 .23-.09.53-.09.29-.09.64v.61q0 .33.12.5.23.47.53.91.29.44-.06.97-.41.23-.91.09-.5-.15-.56-.62-.06-.23 0-.5.06-.26.06-.55 0-.65-.18-1.41-.17-.76-.17-1.41 0-.64-.15-1.08-.14-.44-.38-.79zm17.58 33.51q-.29.12-.5.33-.2.2-.5.32-.41.12-.9.06-.5-.06-1.03 0-.53 0-.97.11-.44.12-.9-.05-.18-.06-.3-.21t-.29-.2q-.82-.3-1.17-.36-.35-.05-.82.06-.18.06-.33.18-.14.12-.43.23-.36.12-.68.12-.32 0-.64-.06-.33-.06-.68-.06-.35 0-.7.18-.76-.29-1.82-.35-1.05-.06-1.52.64-.47.12-1.03.06-.55-.06-1.08-.06-.18 0-.35.06-.18.06-.29.06-.53-.12-.77-.09-.23.03-.46.03-.94-.12-1.41-.06t-.82-.06q-.29-.06-.47-.26-.18-.21-.41-.41-.23-.21-.5-.32-.26-.12-.61 0-.18.06-.44.26-.27.21-.44.32-.12.24-.18.38-.06.15-.29.27-.29.11-.62.09-.32-.03-.61.02-.76.06-1.35.18-.58.12-1.23-.06-.35.18-.73.03t-.68.15q-.35-.06-.79-.12-.44-.06-.79.12-.29-.12-.47-.3-.17-.17-.35-.41-.12-.11-.29-.2-.18-.09-.29-.21-.12-.11-.18-.32-.06-.2-.29-.26.06-.41-.27-.68-.32-.26-.44-.67-.23-.53-.26-1.61t-.03-1.9q-.06-1.12-.06-2.38v-2.43q0-.47-.09-.97-.08-.49-.08-.96 0-.35.06-.62.05-.26 0-.5 0-.17-.06-.35-.06-.17-.06-.29 0-.53.38-.97.38-.44.2-1.32-.05-.41-.41-.64-.35-.24-.46-.65-.12-.41-.03-1.05.08-.64.08-1.11-.05-.3-.08-.47-.03-.18-.03-.35 0-.65.23-1 .24-.35.59-.94.06-1.17-.41-2.34-.12-.24-.24-.41-.11-.18-.17-.35-.12-.41-.12-.88v-1q0-.99-.12-2.17-.11-1.17.35-2.05.47-.47 1.18-.76.7-.29 1.4-.53.3.18.82.12.53-.06 1-.06 1.29.06 2.08-.06.79-.11 1.55-.05.47.05.88-.03.41-.09.82-.09.29 0 .59.03.29.03.64.03.88-.12 1.73-.12t1.73-.06q.35.12.67.32.32.21.44.79.06.3 0 .56-.06.27-.06.5.06.29.09.64.03.36.03.82 0 .18-.03.36-.03.17-.03.41-.06.46 0 1.02t.12 1.09q.06.7.03 1.4t.14 1.35q.18.7.15.88-.03.17-.03.35v1.58q0 .76.06 1.53.06.64.06.96 0 .32.03.68.03.35.03.7t-.18.64q-.12.3-.29.44-.18.15-.29.38-.18.36-.27.97-.09.62.03 1.08.12.3.29.59.18.29.3.59.11.47.11.85t.06.79q.12.88.33 1.76.2.87.2 2.05.29.23.76.41.41-.12.82-.18t.88-.12q.18 0 .35.06.18.06.3 0 .52-.17.64-.12.12.06.23.06.65 0 1.24-.08.58-.09 1.11-.09.53 0 .7.09.18.08.41.14.12.12.32.15.21.03.33.09l.26.26q.15.15.32.2.3.12.59.24t.7 0q.29-.06.62-.26.32-.21.67-.33.29-.11.47-.08.17.02.29-.21.88-.06 1.82-.15.94-.08 1.76.03.76.18.99.09.24-.09.41-.09.41.12.65.53.23.41.41.7-.12.59-.06 1.09.06.5.17 1.02.12.53.21 1.06.09.52-.03 1.11-.18.29-.44.5-.26.2-.38.61zm-31.58-29.94q-.3.59-.09 1.15.2.55.2 1.2.36.35.27.49-.09.15-.09.44.06.3.29.53.24.24.53.29.29-.23.18-.55-.12-.32-.18-.62-.06-.29.03-.94.09-.64.26-.76.12-.11.3-.11.17 0 .35-.12.47-.24.53-.73.05-.5-.36-.91-1.11.12-1.52.14-.41.03-.7.5zm2.46 22.5q.06-.29-.18-.58-.23-.3-.35-.59-.29 0-.47.06-.17.06-.47.12-.23.29-.2.73t.32.67q.41.12.82.03t.53-.44zm1.23 6.21q.47-.17.64-.58.18-.41-.11-.76-.18-.24-.5-.3t-.68-.08q-.35-.03-.64-.12-.29-.09-.35-.38-.06-.18.03-.35.09-.18.14-.36 0-.46-.17-.9-.18-.44-.65-.33-.35.06-.49.53-.15.47-.21.76-.12.47-.12.71-.05.11-.11.35-.06.23-.06.35.06.35.44.82t.67.59q.47.11 1.06.11.58 0 1.11-.06zm3.16-27.48q.47 0 .47-.61 0-.62-.35-.91-.35-.12-.7-.18-.35-.05-.82.06-.18.06-.47.24-.29.17-.35.29-.24.59.2.91.44.32.91.32.29-.06.62-.09.32-.03.49-.03zm-11.07 7.44q-.65 0-.88-.23 0-.82-.15-1.52-.14-.71-.08-1.35.11-.7.05-.91-.05-.2-.05-.5 0-.29.05-.47.06-.17 0-.41 0-.23-.05-.38-.06-.14-.06-.32-.06-.29.06-.64.11-.36.11-.65.12-.23.38-.41.27-.17.5.12 0 .53.03 1.05.03.53.09 1.18v.99q0 .47.17.82.59.88.53 1.53-.06.64-.17 1.11-.12.35-.18.58-.06.24-.35.41zm20.27 10.26q.24.47.5.76.26.29.56.59.23-.06.44.03.2.08.49.08.3.06.59.03t.41.27q-.06.29-.03.35t-.15.35q-.17.12-.32.23-.14.12-.32.18-.7-.12-1.03.03-.32.15-.67.09-.41-.06-.82-.21-.41-.14-.59-.44-.17-.29-.14-.55.03-.27.03-.74.06-.76-.21-1.37-.26-.62-.14-1.44.29-.35.67-.2.38.14.5.44.12.29.12.73t.11.79zm-18.98 10.14q0 .87.35 1.4.35.53.85.88t1.08.62q.59.26 1.06.61 0 .24.06.41.06.18-.06.29-.71.3-1.41.12-.82-.47-1.52-.97-.7-.49-1.12-1.31-.35-.65-.38-1.67-.03-1.03.09-1.85.71.06.71.62 0 .55.29.85zm37.67.87q.24 1.53-.64 2.26-.88.73-2.11.73-.41 0-.73-.11-.32-.12-.73-.06 0-.65.43-.65.44 0 .56-.29.88.06 1.26-.5t.73-1.08q.12-.47 0-1.03-.11-.55.12-.91.23-.35.47-.23.23.12.41.44.18.32.23.76.06.44 0 .67zm5.04-36.32l-.58.11q-.18.06-.35.03-.18-.03-.3.03-.47.12-.99.56-.53.44-.71.97-.23.76-.29 1.52-.06.76-.7 1.23-.41-.59-.59-1.29-.17-.7.18-1.17.11-.24.32-.29.2-.06.38-.18.23-.7.12-1.47-.18-.11-.41-.11-.24 0-.35-.18.11-.64.79-.73.67-.09 1.31.03.83-.29 1.88-.21 1.05.09 1.82.38.58-.11 1.11.06.53.18 1.17.06.18 0 .32-.09.15-.08.38-.14.71-.24 1.41.35-.17.35-.7.47-.41.11-.91.14-.5.03-.91.09-.64.18-.82.12-.17-.06-.29-.12-.18-.06-.32 0-.15.06-.33 0-.35-.06-.76-.14-.41-.09-.88-.03zm32.52 31.64q.12.64-.17 1.02-.3.38-.3.85 0 .41.33.82.32.41.26.88-.12.35-.67.76-.56.41-.85.59-.12.12-.27.26-.14.15-.26.15-.29.06-.59-.03-.29-.09-.58-.15-1 0-2.11-.06-1.12-.05-2.17-.05-.23 0-.41.02-.18.03-.41.03-.24 0-.47-.03-.23-.02-.53-.02-.64 0-1.32.05-.67.06-1.31-.05-.3-.18-.68-.5-.38-.32-.85-.21-.23.06-.41.21-.17.14-.41.2-.29.06-.73-.09-.44-.14-.91-.14h-.64q-.3-.06-.59-.21-.29-.14-.64-.14-.65-.12-1.23.06-.18 0-.38.11-.21.12-.39.12-.11.06-.35-.03-.23-.09-.47-.15-.46-.11-.87-.08t-.77-.03q-.46-.12-.79-.41-.32-.3-.67-.53-.82-.53-1.61-.09-.79.44-1.26.91-1-.18-2.29 0t-2.4-.23q-.53-.06-1.02-.06-.5 0-.97-.12t-1-.7q-.53-.59-.64-1.06-.06-.17 0-.41.06-.23 0-.47-.06-.29-.12-.5-.06-.2-.06-.43l.35-.71q.18-.35.3-.64.11-.3.35-.59-.24-.47-.38-.76-.15-.29-.38-.7-.24-.3-.36-.41-.11-.12-.11-.53 0-.47.11-.94l.24-.94q.12-.46.15-1.02.02-.56.08-1.03.06-.52.09-1.05t.15-1q.12-.29.26-.5.15-.2.15-.49 0-.35-.21-.65-.2-.29-.2-.7-.06-.41.03-.91t.09-.97q0-.23-.03-.41-.03-.17-.03-.29.11-.35.35-.61.23-.27.41-.68.41-.82.44-1.73.03-.9-.38-1.67-.12-.23-.35-.41-.24-.17-.36-.47-.11-.29-.03-.67.09-.38.15-.85.06-.58.03-1.2t.03-1.08q.18-1.23.12-2-.06-.76.17-1.4.12-.53.41-.88l.65-.76q.88-.47 1.9-.5 1.03-.03 2.08.09.53.06 1.35.14.82.09 1.41.09h.7q.41 0 .88.12.29.12.47.35.17.23.46.35.18.12.42.21.23.08.35.14.99.18 1.64-.32.64-.5 1.46-.61.47.17.97.14t.97.03q.58.06 1.08.18.5.11 1.03.11h1.52q.53 0 .82.06.17 0 .41-.06.23-.05.41 0 .7.41 1 .36.29-.06.64.05.18-.11.29-.29.12-.17.3-.23.29-.12.67-.06.38.06.67.06 1.59 0 3.28.11 1.7.12 3.23.12.29.18.58.29.3.12.41.47.12.53 0 1.12-.11.58-.41.88-.23.76.21 1.23.44.46.61.93.12 1 .21 1.35.09.35-.21.7-.29 0-.55.15-.27.15-.56.15-.35.06-.73-.03t-.79-.09q-1.18-.06-2.64-.15-1.46-.08-2.64-.08-.88-.06-1.78 0-.91.05-1.56-.06-.17-.06-.38-.21-.2-.14-.38-.2-.41-.12-.76.11-.35.24-.7-.05-.82.11-1.76.02-.94-.08-1.7.15-.29.35-.32.97-.03.61-.15 1.2-.23.7-.2.85.03.15-.09.26-.12.3-.32.44-.21.15-.27.44 0 .41.32.53.33.12.5.41-.11.47-.06 1.02.06.56.41.68.88 0 1.26.03t.68.03q.41 0 .99-.03.59-.03.88.2.12.12.21.32.09.21.32.39l.41.17q.29.12.53.06.29-.06.52-.26.24-.21.53-.33.3-.11.68-.08.38.03.79-.03.82-.06 1.17.03.35.08.7.14h.62q.32 0 .61.06.76.18 1.7.21t1.7-.09q.53.12.97.32.44.21.61.62.12.23.24.85.11.61 0 1.02-.06.29-.24.56-.17.26-.17.55-.06.41.09.85.14.44.02.85-.05.24-.23.35-.18.12-.29.3-.53.23-1.47.09-.94-.15-1.7-.15h-.76q-.58 0-1.2.06t-1.2.11q-.35 0-.73-.05-.38-.06-.74-.06-.35 0-.73.09-.38.08-.67.02-.3-.05-.56-.29-.26-.23-.56-.23-.23 0-.41.11-.17.12-.35.18-1.11.29-2.37.15-1.26-.15-2.31.14-.53 1.29-.62 2.64-.09 1.35-.15 2.81.41.41.97.5.56.09 1.14.03l1.2-.12q.62-.06 1.26 0 .3 0 .59.12t.59.12q.35.06.67.03.32-.03.73.03.3 0 .59.03.29.02.58.02.3.06.65.03.35-.03.64.03.35.06.56.27.2.2.5.32.58.23 1.17.23.47 0 .91-.26.44-.26.91-.38.29 0 .73.03t.85.09q.64.05 1.32.03.67-.03 1.23.08.55.12.93.47.39.35.5 1.06zM288.1 25.2q0 .59-.09.79-.09.21-.09.38 0 .35-.03.7-.03.36.09.59.65-.18.62-.38-.03-.21-.03-.38.17-.82.79-1.2.61-.38.91-1.15-.47-.58-1.23-.35-.77.24-.94 1zm-.06 22.44q.12-.47.09-.97-.03-.49-.27-.96-.47-.06-.67.35-.21.41-.21.88 0 .47.27.76.26.29.79-.06zm-.18 5.68q.35.06.91.15t1.06.09q.49 0 .88-.15.38-.14.38-.61-.3-.35-.85-.5-.56-.15-1.09-.09-.41-.41-.67-.97-.27-.55-.21-1.26-.29-.29-.52-.08-.24.2-.36.38-.23.29-.32.82t-.2.99q-.18.88.2 1.03.38.15.79.2zM299 27.48l-.24.41q-.12.18-.17.47-.06.3-.06.59t.09.56q.08.26.32.32.29.06.38-.18.09-.23.32-.35.18-.35.35-.67.18-.33.47-.62.18-.17.44-.29.26-.12.38-.35-.76-.06-1.26-.24-.5-.17-1.02.35zm-.94 19.11q.35 0 .41-.38.06-.39-.06-.74-.23.06-.47.18-.23.12-.29.35-.06.23.09.41.14.18.32.18zm1.93-4.63q.12-.18.24-.3.11-.11-.06-.41-.35-.11-.85-.23-.5-.12-.73.18-.24.58-.41 1.23-.18.64-.3 1.28.82-.29 1.29-.84.47-.56.82-.91zm14.36 13.24q.64.29 1.26.12.61-.18.73-.88-.88-.59-1.44-.27-.55.33-.55 1.03zm5.74-28.07q-.12.24-.38.27-.26.03-.56.08-.23-.35-.35-.67-.12-.32 0-.79.06-.29.32-.5.27-.2.27-.5.06-.41-.15-.67-.2-.26-.2-.67.99-.36 1.2.23.2.59.14 1.05 0 .18-.06.39-.05.2-.05.44-.06.41-.06.76 0 .35-.12.58zm-38.14-1.23q.29-.06.46-.06.18 0 .3.3.06.93.06 1.84t-.41 1.61q-.94-.11-.82-.67.11-.56.05-1.03-.41-.35-.2-.99.2-.65.56-1zm23.84 5.74q-.06-.41.15-.58.2-.18.53-.21.32-.03.64.12t.44.32q-.12.47-.76.56-.65.09-1-.21zm-2.81-.76q.47-.11 1.29-.14.82-.03 1.11.38-.7.64-1.32.82-.61.17-.9.64-.06.47-.36.82-.52-.23-.58-.61-.06-.38 0-.79.06-.41.23-.74.18-.32.53-.38zm18.05 19.46q.35.23.79.49.44.27.14.91-.7.53-.96 0-.27-.53-.38-1.11-.12-.65-.74-.94-.61-.29-1.37-.41-.41 0-.79.09-.38.09-.74.03-.82-.24-1.14-.24-.32 0-.61-.05-.18 0-.53.02-.35.03-.65.03-.29 0-.49-.11-.21-.12-.09-.41.82-.3 1.79-.21.96.09 1.96.21.23.06.64.06.35-.06.68-.21.32-.15.73.03.18-.18.5-.12t.61 0q.47.24.44.35-.03.12.03.3.24.76.18.93-.06.18 0 .36zm-.12 2.63q.59.76.59 1.41 0 .64-.24 1.05-.99.3-.82-1.17 0-.23.18-.73.17-.5.29-.56z"/></svg>