<svg viewBox="0 0 332 80" xmlns="http://www.w3.org/2000/svg"><path d="M36.44 47.48q-1.76.65-3.81 1t-4.04.35q-2.29 0-4.63-.5-2.35-.49-4.25-1.9-1.91-1.41-3.14-4.01-1.23-2.61-1.23-6.83 0-2.58.85-5.42t2.58-5.24q1.73-2.41 4.28-3.99 2.55-1.58 5.89-1.58 1.64 0 3.57.47 1.94.47 3.61 1.29 1.67.82 2.81 1.96 1.14 1.14 1.14 2.55 0 1.05-.82 1.64-.82.59-1.64.59-1 0-1.17-.71-.41-.82-1.15-1.43-.73-.62-1.66-1-.94-.38-1.97-.59-1.02-.2-1.96-.2-2.29 0-4.07 1.05-1.79 1.06-3.05 2.73-1.26 1.67-1.9 3.78-.65 2.11-.65 4.16 0 3.1.85 4.86.85 1.76 2.17 2.7 1.32.93 2.9 1.17 1.58.23 3.05.23 2.11 0 4.19-.52 2.08-.53 3.48-1.23v-4.31q0-.97-.12-2.02-1.58 0-2.98.09-1.41.08-2.46-.03-1.06-.12-1.67-.62-.62-.5-.62-1.67 0-.82.32-1.46.32-.65 1.09-.65 1.34 0 3.22.03l3.84.06q1.96.03 3.78.06 1.81.03 3.1-.03.71.12 1 .76.29.64.29 1.41 0 .76-.35 1.4-.35.65-.94.65h-3.16q.06 1.87.06 3.31v2.72q0 2.46-.09 4.4-.09 1.93-.32 4.33-.12 1-.74 1.47-.61.47-1.31.47-1 0-1.7-.53-.71-.53-.71-1.52 0-.94.06-1.85.06-.91.18-1.85zm19.27-14.76q.36-.29 1-.29 1.99.17 3.58 1.08 1.58.91 2.66 2.23 1.09 1.31 1.64 2.9.56 1.58.56 3.04v.3q.41 1.34.88 2.11.47.76 1.02 1.17.56.41 1.12.5.55.08 1.14.08.53 0 1.14-.23.62-.23 1.44-.23.76 0 1.26.61.49.62.49 1.32 0 .64-.38 1.14-.38.5-.99.82-.62.32-1.35.47-.73.15-1.44.15-2.22 0-3.86-.94-1.64-.94-2.58-2.17-1.17 1.35-2.81 2.11-1.64.76-3.46.76-1.64 0-3.28-.52-1.64-.53-2.93-1.59-1.29-1.05-2.11-2.6-.82-1.56-.82-3.67 0-1.23.44-2.57.44-1.35 1.32-2.58.88-1.23 2.14-2.17 1.26-.94 2.95-1.29h.36q.58 0 .87.06zm.36 3.69q-2.05.64-2.99 1.85-.94 1.2-.94 2.78 0 1.87.97 3.19.96 1.32 3.6 1.32 1.52 0 2.7-1.11 1.17-1.12 1.17-2.99 0-1.29-.38-2.14-.38-.85-1-1.41-.61-.55-1.43-.87-.82-.33-1.7-.62zm20.8-2.58q-.47-.64-.47-1.17 0-.88.82-1.52.82-.65 1.7-.65.58 0 1.08.35.5.36.85.85.35.5.65 1.06.29.55.52.96 1-.35 2.11-.58 1.12-.24 2.46-.24 1.18 0 2.49.21 1.32.2 2.73 1.03 1.17-.59 2.69-.88 1.53-.3 3.17-.3 1.11 0 2.52.18 1.4.17 2.63 1.14 1.23.97 2.06 2.99.82 2.02.82 5.65 0 1.76-.06 3.4t-.33 2.9q-.26 1.26-.79 2.02-.52.77-1.46.77-.76 0-1.5-.47-.73-.47-.73-1.29 0-1 .24-2.46.23-1.47.23-2.99 0-1.93-.06-3.4-.06-1.46-.47-2.43-.41-.97-1.23-1.44-.82-.47-2.34-.47-1.58 0-3.05.53l.18.71q.17.87.26 2.08.09 1.2.09 2.54v3.08q0 1.61-.18 2.93-.17 1.32-.67 2.2-.5.88-1.49.88-1 0-1.67-.59-.68-.59-.68-1.52 0-1.64.18-3.81.17-2.17.17-3.93 0-2.34-.82-3.72-.82-1.38-3.22-1.38-1.35 0-2.64.47v.06q.06 1.53.09 3.25.03 1.73.03 3.49v2.99q0 1.4-.23 2.46-.24 1.05-.79 1.7-.56.64-1.67.64-.82-.11-1.35-.58-.53-.47-.53-1.23 0-1.76.12-3.69.12-1.94.12-4.16 0-1.12-.03-2-.03-.88-.09-1.7-.65-.99-1.14-2.25-.5-1.26-1.32-2.67zm46.99-11.13q-.29 1.46-1.17 2.23-.88.76-2.11.76-.47 0-1.12-.15-.64-.15-1.2-.53-.55-.38-.96-1.05-.41-.67-.41-1.73 0-1.87 1.05-2.72 1.06-.85 2.76-.85 1.69 0 2.46 1.05.76 1.06.76 2.4 0 .12-.03.3-.03.17-.03.29zm-3.87 38.09q-1.7 1.34-3.92 1.34-1.94 0-3.84-.93-1.91-.94-3.02-2.52-.23-.24-.23-.65 0-.76.55-1.61.56-.85 1.32-.85.29 0 .59.18 1.05.88 2.19 1.49 1.15.62 2.2.62 2.23 0 3.05-3.58.82-3.57.82-10.31 0-2.99-.15-6.01-.14-3.01-.38-5.65 0-.65.65-1.09.64-.43 1.58-.43.7 0 1.35.26.64.26.88.91.23 2.99.41 5.94.17 2.96.17 5.89 0 2.82-.23 5.48-.24 2.67-.74 4.89-.49 2.23-1.28 3.96-.8 1.73-1.97 2.67zm18.69-28.07q.36-.29 1-.29 1.99.17 3.57 1.08 1.59.91 2.67 2.23 1.08 1.31 1.64 2.9.56 1.58.56 3.04v.3q.41 1.34.88 2.11.46.76 1.02 1.17.56.41 1.11.5.56.08 1.15.08.52 0 1.14-.23.62-.23 1.44-.23.76 0 1.26.61.49.62.49 1.32 0 .64-.38 1.14-.38.5-.99.82-.62.32-1.35.47-.73.15-1.44.15-2.22 0-3.86-.94-1.64-.94-2.58-2.17-1.17 1.35-2.81 2.11-1.65.76-3.46.76-1.64 0-3.28-.52-1.64-.53-2.93-1.59-1.29-1.05-2.11-2.6-.82-1.56-.82-3.67 0-1.23.44-2.57.44-1.35 1.32-2.58.87-1.23 2.13-2.17 1.26-.94 2.96-1.29h.35q.59 0 .88.06zm.36 3.69q-2.06.64-2.99 1.85-.94 1.2-.94 2.78 0 1.87.97 3.19.96 1.32 3.6 1.32 1.52 0 2.7-1.11 1.17-1.12 1.17-2.99 0-1.29-.38-2.14-.38-.85-1-1.41-.62-.55-1.44-.87-.82-.33-1.69-.62zm54.55 1.99q-.88.12-2.14.18-1.26.06-2.67.06-1.4 0-2.78-.03t-2.49-.09q-.53 0-.85-.67-.32-.68-.32-1.44 0-.82.32-1.46.32-.65 1.08-.65 1.41 0 2.61.06t2.37.06q1.12 0 2.29-.03t2.46-.21q.7.12 1.02.79.33.68.33 1.44 0 .76-.33 1.38-.32.61-.9.61zm-2.11-14.06q-1.59.06-2.96.09-1.38.03-2.55.03t-2.55-.03q-1.38-.03-2.96-.09.06 2.23.06 4.69v4.92q0 2.23-.03 4.39-.03 2.17-.06 4.16-.03 2-.12 3.64-.08 1.64-.2 2.81-.12 1-.73 1.46-.62.47-1.32.47-1 0-1.7-.52-.7-.53-.7-1.53.05-1.52.14-3.54.09-2.02.18-4.31.09-2.28.12-4.72.03-2.43.03-4.77 0-2.99-.12-5.57t-.12-4.45q0-.82.7-1.17.71-.35 1.59-.35.99 0 2.19.11 1.2.12 2.55.12 2.46 0 4.69-.03 2.23-.03 3.87-.03.7.29 1.02.91.32.61.32 1.32 0 .7-.41 1.26-.41.55-.93.73zm8.43-3.4q-.46-.64-.46-1.17 0-.88.82-1.52.82-.65 1.69-.65.83 0 1.62.82.79.82 1.43 1.96.65 1.15 1.17 2.35.53 1.2.88 1.96.18 2.52.24 5.07.06 2.55.06 5.19 0 4.21-.09 8.11-.09 3.9-.21 7.41-.06.88-.58 1.32-.53.44-1.29.44-.88 0-1.73-.53-.85-.52-.85-1.46 0-2.46.2-5.6.21-3.13.21-6.53 0-3.22-.06-6.42-.06-3.19-.23-5.83-.53-1.11-1.23-2.4-.71-1.29-1.59-2.52zm22.62 11.84q.24-.18.53-.32.29-.15.64-.15 1.53.12 3.17.82t2.99 1.99q1.34 1.29 2.22 3.11.88 1.81.88 4.16-.06 2.46-.85 4.3-.79 1.85-2.11 3.08-1.32 1.23-3.1 1.85-1.79.61-3.9.61-1.64 0-3.34-.61-1.7-.62-3.05-1.82-1.34-1.2-2.22-2.9-.88-1.7-.88-3.93 0-1.99.76-3.89.76-1.91 1.9-3.37 1.15-1.47 2.52-2.35 1.38-.88 2.61-.88.65 0 1.23.3zm.35 3.45q-1.05.53-1.9 1.09-.85.56-1.47 1.32-.61.76-.93 1.87-.33 1.12-.33 2.76 0 1.46.5 2.4t1.29 1.49q.79.56 1.76.76.97.21 1.9.21 2 0 3.34-1.58 1.35-1.59 1.35-3.87 0-1.76-.5-2.87t-1.29-1.79q-.79-.67-1.78-1.05-1-.38-1.94-.74zm29.53-4.62q.53 1.93.97 4.04.44 2.11.85 4.19.41 2.08.79 3.95.38 1.88.79 3.4.59-1.99 1.15-3.87.55-1.87 1.08-3.8.53-1.94 1.02-4.14.5-2.19.85-4.83.12-.7.62-1.02.5-.33 1.08-.33.94 0 1.67.59.74.59.74 1.46-.71 4.05-1.62 7.88-.9 3.84-1.93 6.86-1.02 3.02-2.17 4.83-1.14 1.82-2.37 1.82-1.05 0-1.93-1.32-.88-1.32-1.59-3.4-.7-2.08-1.23-4.71-.52-2.64-.88-5.28-.46 2.64-1.05 5.25-.59 2.61-1.29 4.69-.7 2.08-1.52 3.36-.82 1.29-1.82 1.29-1.35 0-2.52-2.02t-2.17-5.18q-.99-3.17-1.81-7.06-.82-3.9-1.41-7.71v-.23q0-.71.7-1.26.71-.56 1.59-.56.64 0 1.2.35.55.35.73 1.11.59 4.87 1.41 8.91t2.22 8.44q.35-2.81 1.47-6.59 1.11-3.78 2.17-9.11.17-.88.76-1.32.58-.44 1.29-.44.7 0 1.31.44.62.44.85 1.32zm33.87 3.16q1.82 2.52 1.82 4.39 0 2-2.05 2.64l-12.25 3.63q.76 1.18 1.96 1.82 1.2.64 2.44.64 1.93 0 3.66-.61 1.73-.62 3.25-2.2.41-.41.94-.41.7 0 1.43.68.73.67.73 1.49t-.79 1.7q-.79.88-2.08 1.67-1.29.79-2.93 1.29-1.64.5-3.34.5-1.69 0-3.6-.53-1.9-.53-3.54-1.67-1.64-1.14-2.7-2.96-1.05-1.82-1.05-4.45 0-2.82 1.81-6.45 1.17-2.28 3.61-3.37 2.43-1.08 5.12-1.08 2.23 0 4.25.82t3.31 2.46zm-13.48 6.74l10.67-3.11q-.29-1.52-1.55-2.25-1.26-.74-2.79-.74-1.7 0-2.9.62-1.2.61-1.96 1.55-.76.94-1.11 1.99-.36 1.06-.36 1.94zM300.4 37q2.35-2.35 5.57-3.78 3.22-1.44 6.8-1.61.87.11 1.31.79.44.67.44 1.43 0 .65-.32 1.2-.32.56-.97.56-3.86.88-6.76 2.23-2.9 1.34-4.66 3.57 0 1.17.15 2.32.14 1.14.14 2.37 0 1.52-.09 3.05-.08 1.52-.38 2.98-.06.77-.76 1.06-.7.29-1.52.29-.82 0-1.5-.38-.67-.38-.67-1.08.18-1.64.32-3.37.15-1.73.15-3.43 0-2.29-.56-3.81-.55-1.52-1.02-2.52-.18-.29-.68-.85t-1.02-1.17q-.53-.62-.94-1.26-.41-.64-.41-1.11 0-1 .79-1.73t1.79-.73q.99 0 2.34 1.46 1.35 1.47 2.46 3.52z"/></svg>