<svg viewBox="0 0 329 80" xmlns="http://www.w3.org/2000/svg"><path d="M44.6 63.7l-3.18-2.4-3.12-23.46 2.88-3.24 7.32.24.42-19.62 5.58.06-.12 8.1 11.1.54-.3 5.58-10.92-.48-.06 6 9.72.3 2.7 3.12-2.34 20.4-2.4 2.46-17.28 2.4zm-27.48-.72l-1.14-5.58 11.04-2.16L30.44 31l5.64.78-3.18 22.26 4.38-.84 1.14 5.58-21.3 4.2zM44.3 40.42l2.34 17.4 12.24-1.8 1.8-15.18-16.38-.42zm-28.26-10.8l-.6-5.64 7.62-.84-1.68-5.1 5.34-1.8 2.1 6.3 8.22-.9.6 5.64-21.6 2.34zm5.1 22.92L16.82 34.3l5.52-1.26 4.26 18.24-5.46 1.26zM76.4 22.9l-.6-5.64 22.98-2.52.6 5.58-3.36.42-.6 7.62h2.76l2.82 2.7 1.86 27.78-2.46 2.88-21.12 2.7-3.24-2.76V31.24l2.76-2.88h4.14l.42-6.24-6.96.78zm45.18 40.32l-14.7-.36-2.82-2.7-.42-16.26 2.82-2.94h16.98l2.76 3.18-1.8 16.56-2.82 2.52zm-17.04-34.86l-3-3.72 3.54-10.2 5.28 1.86-1.98 5.94 3.42-.36v-6.54l5.7.06-.06 5.82 5.52-.6.72 5.64-6.24.72v5.88l8.64.3-.18 5.64-23.34-.84.18-5.64 9.06.36v-5.1l-7.26.78zm-22.86 5.7v16.38L92.96 49l.72 5.52-11.94 1.56v2.34l15.3-1.92-.6-8.82-5.4-.78-2.4-3.06.72-9.78h-1.08l-.84 12.78-5.7-.42.84-12.36h-.9zm28.02 23.28l9.36.12 1.2-10.8H109.4l.3 10.68zM95.54 34.06H95l-.54 7.56 1.56.24-.48-7.8zm-6.42-12.6l-.48 6.9h1.14l.54-7.02-1.2.12zm64.02 25.8l-.42-5.64 11.76-.9-.42-14.64-7.98-.48.3-5.7 7.5.48-.18-5.52 5.7-.12.18 5.94 11.76.72 2.58 3.66-4.44 14.58 6.66-.54.48 5.64-18.48 1.38-12 17.82-4.62-3.18 9.48-14.1-7.86.6zm-12.6-2.46l-5.1-2.4 5.58-11.64 3 1.44.72-16.68 5.64.24-.42 9.54 8.58 6.06-3.24 4.68-5.64-3.96-1.38 31.56-5.64-.24 1.08-25.26-3.18 6.66zm40.86 19.32l-11.76-12.18 4.08-3.9 11.76 12.18-4.08 3.9zm-3.96-37.26l-7.74-.42.42 13.86 3.3-.24 4.02-13.2zm64.8 13.2l-16.8.48 1.08 12.24-.84 2.16-9.48 9.42-3.96-4.02 8.58-8.46-1.02-11.16-17.1.48-2.82-3 1.26-18.42 2.64-2.64 38.16-2.64.36 5.7-35.7 2.4-.9 12.9 13.62-.42-.84-9.9 5.64-.54.84 10.26 17.16-.54.12 5.7zm-30.54 7.2l-10.38 15.3-4.68-3.18 10.44-15.24 4.62 3.12zm33.72 9.18l-4.62 3.3-9.48-13.26 4.56-3.3 9.54 13.26zm59.46-29.4l-12.96 1.62-.9 17.88 3.66-.6.9 5.58-4.86.84-.66 12.54-5.7-.3.6-11.28-5.76.96-1.02-5.58 7.08-1.2.96-18.18-3 .36-10.02 32.4-5.4-1.74 9.24-29.88-8.22.96-.66-5.64 18.36-2.22.54-9.54 5.64.18-.48 8.7 12-1.5.66 5.64zm-34.92-7.02l-4.74 4.74.9 39.84-5.64.18-.84-34.44-2.64 2.7-4.08-3.96L265.88 16l4.08 4.02zm39.12 36.18l-4.98 2.52-11.94-23.94 5.04-2.58 11.88 24z"/></svg>