<svg viewBox="0 0 328 80" xmlns="http://www.w3.org/2000/svg"><path d="M58.28 32.8v-7.02l-30.24.96v3.66h28.92v7.08l-5.46 5.64 14.1-.6.42 7.08-17.52.78v15.9l-18.12-.9v-7.02l4.32.24v-7.68l-18 .78-.36-7.08 20.1-.84 5.82-6.3H26.9V32.8H15.38V18.82h12.66v1.32l6.78-.18-1.26-4.62 13.38-2.58 1.62 6.72 16.92-.54V32.8h-7.2zM77 66.1V23.8h22.56V13.6h9.6v10.2h15.9v40.56L77 66.1zm14.4-18.84v11.22l8.16-.3V47.26H91.4zm17.76 0v10.56l7.5-.3V47.26h-7.5zM91.4 31v9.06h8.16V31H91.4zm25.26 0h-7.5v9.06h7.5V31zm38.28-8.1v-5.34h12.36l2.7-5.64 8.28 3.3-1.14 2.34h9.06v5.34h-11.52l-1.26 2.64h11.4v5.34H170.9l-1.26 2.7 17.4-.3.18 5.58-5.7.12 7.74 9.72-5.16 4.26-3.72-4.68v3.18h-4.8v3.18l10.56-.18.06 5.94-10.62.12v6.24h-10.02v-6.12l-9.66.12-.06-5.88 9.72-.12v-3.3h-3.24v-2.28l-1.5 3.18-8.46-3.72 2.58-5.4-4.38 2.46-1.38-2.52v23.76h-8.94V50.26l-2.1 8.7-6.42-1.74 6.84-26.82h-4.74v-6.96h6.42V13.42h8.94v10.02h5.1v6.96h-5.1v3.48l1.74-1.02 4.8 8.76 1.08-2.28h-1.32l-.24-5.58 4.26-.06 1.38-2.82h-4.26v-5.34h6.84l1.26-2.64h-9.78zm10.62 19.38h10.02l-.72-.9 3.12-2.34-10.98.12-1.44 3.12zm10.02 0v3.48h2.76l-2.76-3.48zm-11.64 3.48h1.62v-3.42l-1.62 3.42zm51-22.86v-5.34h12.36l2.7-5.64 8.28 3.3-1.14 2.34h9.06v5.34h-11.52l-1.26 2.64h11.4v5.34H230.9l-1.26 2.7 17.4-.3.18 5.58-5.7.12 7.74 9.72-5.16 4.26-3.72-4.68v3.18h-4.8v3.18l10.56-.18.06 5.94-10.62.12v6.24h-10.02v-6.12l-9.66.12-.06-5.88 9.72-.12v-3.3h-3.24v-2.28l-1.5 3.18-8.46-3.72 2.58-5.4-4.38 2.46-1.38-2.52v23.76h-8.94V50.26l-2.1 8.7-6.42-1.74 6.84-26.82h-4.74v-6.96h6.42V13.42h8.94v10.02h5.1v6.96h-5.1v3.48l1.74-1.02 4.8 8.76 1.08-2.28h-1.32l-.24-5.58 4.26-.06 1.38-2.82h-4.26v-5.34h6.84l1.26-2.64h-9.78zm10.62 19.38h10.02l-.72-.9 3.12-2.34-10.98.12-1.44 3.12zm10.02 0v3.48h2.76l-2.76-3.48zm-11.64 3.48h1.62v-3.42l-1.62 3.42zm53.22 13.62l-7.32-2.82v9.24h-9.9V36.58l-6.72-5.04 13.26-18.3 8.34 6-4.98 7.26v27.36l8.58-22.5h-5.82v-7.2h11.04V13.9h11.04v10.26h11.28v7.2h-6.06l8.52 25.5-7.14 2.52-6.6-19.8v13.38l4.26-.12.12 6.48-4.38.06v6.48h-11.04v-6.3l-4.02.06-.12-6.42 4.14-.06v-13.2l-6.48 19.44z"/></svg>