<svg viewBox="0 0 326 80" xmlns="http://www.w3.org/2000/svg"><path d="M18.62 60.72q.72-.3 3.12-.96 2.76-.66 5.16-1.74 2.4-1.08 5.76-3.72H22.22l.48-20.76q.48-.24 15.24-.24v-2.04l-22.5.24v-5.4l15-.12q0-2.94.24-3.48l-11.22-.12q-.48-.96-.48-5.88 2.52 0 5.58.18 1.14.06 2.73.12t3.39.06v-.48q.18-.54.18-1.32 0-.54-.12-1.62L30.68 12l7.74.12v4.68q.48.12 1.56.12l2.94-.06q2.58-.12 3.24-.06.3-.66.3-2.52l-.06-2.46q.24-.06 1.98-.06l5.58.06q0 2.88-.24 4.02.54.3 1.29.33.75.03 1.23.15l8.16.24v6.06q-.36-.06-3.03-.3t-4.95-.24q-1.68 0-2.22.24l-.48 3.24 14.22-.06v5.64q-5.76-.18-10.68-.18-1.86-.06-4.65-.06t-6.81-.12v2.04q0 .6 1.59.54 1.59-.06 1.83-.06.6.3 5.88.3l6.9-.06q.18.54.18 3.42 0 3.72-.24 9.6-.24 5.88-.42 8.4l-28.14-.66.96 1.14q2.52 2.94 2.64 3.66-2.82 2.46-6.99 4.53-4.17 2.07-8.31 2.37l-3.06-5.28zm19.32-15.36l-8.88.24-.24 3.72 9.12.24v-4.2zm0-7.44l-8.22.24-.24 2.82 8.46.18v-3.24zM62.36 66.6q-4.08-2.52-7.53-4.23-3.45-1.71-7.23-2.67l2.7-4.68q1.56.06 4.89 1.29 3.33 1.23 6.33 2.79t3.6 2.4l-2.76 5.1zM54.5 49.32q.06-.24.06-1.08 0-1.56-.3-2.4H45.8v3.48h8.7zM22.46 19.56q-.12-.12-.27-.21-.15-.09-.15-.27 0 .12-.12.36t-.12.36l.66-.24zm32.46 19.32q-2.28-.18-4.23-.21-1.95-.03-4.89-.03v2.76h8.88l.24-2.52zM41.84 22.62q-2.22 0-3.42.12v2.88l8.16.24.18-3.18-4.92-.06zm-10.02-10.2q-.24 0-.24-.24 0 .24-.03.39-.03.15.27.33v-.48zm20.76 2.16v-.42l-.24.42h.24zM74 61.26q3.18-1.5 5.31-9.15 2.13-7.65 3.12-17.52.99-9.87.99-18.27 0-3.06-.06-4.32l7.5.3q-.12 2.82-.36 6.54-.24 3.18-.36 6.06-.06.3.81-.45.87-.75 1.89-1.77 1.92-1.8 2.1-1.92l1.38 6q-.3 1.32-1.62 2.58t-3.6 3q-.06.06-.96.78.06.36.06 1.26 0 2.58-.51 6.36-.51 3.78-.93 4.38 1.56 1.08 3.36 3.48 1.8 2.4 4.74 6.72 0 .48-.6 1.08-.6.6-1.8 1.5-1.86 1.62-2.28 2.1l-.96-1.68q-1.5-2.76-2.73-4.53-1.23-1.77-2.37-1.89-.12.18-.42 1.38-2.04 8.82-6.24 12.66L74 61.26zm4.44.9q0-.24.24-.24.12-.42.48-.99.36-.57.48-.93h-.48q-.12.3-.48.84t-.48 1.08l.24.24zm14.52-5.58q.12-.12.18-.24t.06-.24q-.18-.18-.42-.18-.3 0-.72.42.54 0 .66.06t.24.42v-.24zm8.1 5.22h-1.14v.24l1.14-.24zM74.18 40.74q1.08-6.18 1.08-11.82 0-2.04-.18-3.72l5.82.24.06 2.28q0 3.48-.36 7.14-.36 3.66-1.08 6.66l-5.34-.78zm25.8 24.12q-3.24 0-4.74-.06 0-.9-.09-2.97-.09-2.07-.15-2.85.9-.06 2.76-.06 1.74 0 2.79-.06t1.95-.36q-.6-2.04-.84-3.81t-.3-2.25q-.18-1.5-.36-2.43-.18-.93-.6-1.71l6.54-.12.48 3.36q.72 4.62.9 6.96l3.78-.18q.12-.78.42-1.8.9-3.06 2.16-7.86h6.96q.06-.84-.75 1.32t-1.65 4.83q-.84 2.67-.84 3.45.48.12 2.16.12l4.2-.06q.78-.06 1.86-.06l.24 6.12-.24.42H125q-2.82-.06-7.68-.06l-10.8.06q-2.46.06-6.54.06zm14.58-18.6q-5.94 0-11.43-.09-5.49-.09-6.03-.21l-.24-5.1h10.8q.12-.24.12-.6 0-.72-.27-1.8t-.39-.96l6.12-.18q-.12-.36.09.03t.42 1.08q.21.69.21 1.53h.48q1.02.66 8.46.78 2.28 0 3.72.12v5.22q-1.08.18-12.06.18zm-9.18-14.94q.96-.12 5.76-.12 4.92 0 6-.12v-4.2l-12 .18q0 .66.12 2.1.12 1.56.12 2.16zm-7.8 3.96q.3-1.68.3-5.94l-.06-4.98q-.06-1.62-.06-4.74 0-5.64.66-6.3.48-.36 13.98-.36l12.06.06q.48.96.48 4.62l-.06 3.24q-.06 1.08-.06 3.06 0 1.14.12 2.46-.42.42-.42 2.94 0 1.62.12 4.02l.12 2.16-27.18-.24zm7.74-18.36q.3 0 1.02-.36v-.24q-.78 0-1.32-.24 0 .18-.15.33-.15.15-.33.15.12.12.18.12t.3.12.3.12zm-.18 5.46q1.44-.12 2.04-.12 1.08 0 1.8.06l5.34.06h2.22q.06-.06.18-.09t.12-.36V18.9l-7.74-.06q-2.46 0-3.96.06v3.48zm31.68 39.72q-.36-9.36-.36-14.52 0-3.72.18-7.14l.12-12.6q.06-3.78.12-8.64.06-4.86 0-4.74 2.58 0 6.84-.15t3.48-.33l36.78.42v7.14l-17.88-.18-.18 4.62q0 1.44-.03 1.95t-.09.54q-.06.03-.12.09 2.82 0 7.98-.12 5.4-.12 8.46-.12v18.72q-3.06 0-8.1.12-5.16.12-8.16.12-.36.9-.36 5.4 0 2.88.12 3.72 3.24 0 5.46-.06l8.76-.06q3.66 0 4.62.12v7.74h-47.58l-.06-2.04zm8.7-5.22q2.82-.24 11.16-.24l.24-4.68.24-4.68q-.54-.24-3.42-.24-1.44 0-6.66.18l-1.56.06v9.6zm0-16.14q1.02 0 16.56-.54 9.96-.42 12.06-.42v-3.72l-11.52.12-16.86.12q-.3.06-.3 1.14l.06 3.3zm11.88-19.62q0 .54-6.84.54l-4.8-.06v7.62h11.64v-8.1zm-5.52-1.74q.24-.12 1.14-.12.96 0 1.2-.12-.36-.12-1.32-.24-.84-.12-1.26-.24-.48.24-1.86.24-.12.12-.15.24t-.33.24h2.58zm-13.2 42.06q0-.24.24-.24.12-.42.48-.99.36-.57.48-.93h-.48q-.12.3-.48.84t-.48 1.08l.24.24zm78.18 4.26l-.06-13.8q0-4.44.06-4.98V45h7.2q0 2.64-.12 7.56t-.12 7.26h4.14V38.88q-1.26 0-4.86-.12-4.2-.12-6.12-.12l.06-10.68q.06-3.3.06-10.02 1.2 0 3.72.12 2.52.12 3.72.12l-.48 14.7h4.5q0-2.94.3-6.24.06-.9.12-2.04.06-1.14.06-2.4 0-1.86-.12-5.46-.12-3.48-.12-5.28h7.98q.24.54.24 1.44 0 .54-.12 1.62t-.12 1.56v16.8h4.32q0-1.8.12-5.28.12-3.6.12-5.4 0-2.7-.12-4.14l6.6.24q.12.48.12 3.54 0 4.62-.3 10.2-.3 5.58-.72 6.6l-10.2.48q0 13.68.24 20.46l4.2-.42v-5.58q-.06-.42-.06-1.38t.12-3.48q.18-2.1.18-4.14l6.54-.12v5.4q0 13.26-.18 15.12-6.78.78-19.38.78l-11.52-.06zm-9.6-4.44q.18-.24.72-1.98t.36-2.04q-.18.42-.96 2.07t-.78 1.95h.66zm13.5 2.22q-.24-.24-.72-.48h-.42q-.18 0-.33.15-.15.15-.15.33v.3q.36.18.63.21t.75.03l.24-.54zm-23.22-3.78q2.88 0 5.64-.48V48.9q.3-.24-3.18.78T195.86 51l-1.62-6.48 8.7-3.06q.12-1.8.24-5.16.12-3.48.24-5.22-.6-.12-3.6.12-4.08.24-4.62.12-.12-.48-.12-1.74l.06-3.42q.06-.6.06-1.26l7.74-.54.24-12.24 7.74-.24-.24 12 4.56-.48-.24 6.78-4.08.48q-.3.36-.3 3.84l.06 4.26 3.84-.9 1.68 6q-.54.3-2.58.9-2.46.6-2.7 1.02l-.3 16.8q-.54 1.44-1.11 1.98-.57.54-1.68.69-1.11.15-4.17.27l-5.4.24-.72-6.06zm46.98-39.48q.72 0 1.2-.24-.72-.24-1.92-.24-.12 0-.33.12-.21.12-.33.12.72.24 1.38.24zm30.06 27.42h3.72q.24-1.02.12-2.94-.66-.24-8.82-.24l-9.18.06v-5.34h9.42q7.62 0 9.12-.12-.06-.66.06-1.98l.06-1.38h-17.1V12.18h41.28q.42.24.42 2.64 0 2.4-.42 7.98-.06 1.14-.33 5.43t-.21 7.71l-.24.12q-.12.06-.72.06l-7.14-.18-8.34-.24q-.18.72-.18 1.77v1.35q8.28.36 14.22.36h2.64v5.58q-2.58-.12-8.94-.24-6.36-.12-8.16-.06v.72q0 1.08-.18 1.74 6.54.24 20.94.24v5.88h-49.68l.24-5.34 17.4-.06zm-16.32 16.92q.54-1.38 1.38-5.01.84-3.63 1.02-4.77h6.3q-.9 6.42-2.64 9.78h-6.06zm16.38-.6q-.3-1.86-1.32-4.26-1.02-2.34-1.56-4.5H278q1.32 2.52 2.01 4.44.69 1.92 1.11 4.32h-6.48zm12.84-.18q-.3-1.86-1.32-4.26-1.02-2.34-1.56-4.5h6.24q1.32 2.52 2.01 4.44.69 1.92 1.11 4.32h-6.48zm12.54 0q-.3-1.86-1.32-4.26-1.02-2.34-1.56-4.5h6.24q1.32 2.52 2.01 4.44.69 1.92 1.11 4.32h-6.48zm-24.3-33.3q3.12 0 3-.42.36-5.04.36-8.76 0-2.76-.24-3.84l-10.2.24v12.6q1.2 0 2.16.06 3 .12 4.92.12zm-1.92-1.14q-1.5-3.78-2.37-5.76-.87-1.98-1.95-3.18l3.96-2.04q2.4 2.16 4.92 9.24l-4.56 1.74zm13.02-1.74q.66-.78 1.11-1.92.45-1.14 1.11-3.48.84-2.94 1.26-3.96l4.56 1.74q-.24.66-.51 1.65-.27.99-.39 1.47-.66 2.46-1.23 3.9t-1.53 2.34l-4.38-1.74zm-.54-10.14q0 .24-.12 3.42-.12 3.18-.12 6.3 0 2.1.06 2.82.84.12 4.08.18t4.26.06l1.32.06.48-12.84h-9.96zm-4.02 16.5q.24-.12 1.14-.12.96 0 1.2-.12-.42-.12-.99-.3-.57-.18-.93-.24-.36-.06-.66.06-.48.24-1.86.24-.12.12-.15.24t-.33.24h2.58zm-21.18 28.2q0-.36.24-.36.12-.54.48-1.38.36-.84.48-1.32h-.48q-.12.42-.48 1.17t-.48 1.53l.24.36z"/></svg>