<svg viewBox="0 0 324 80" xmlns="http://www.w3.org/2000/svg"><path d="M25.52 56.44q-1.56-1.38-2.34-4.23-.78-2.85-.78-6.15 0-3 .57-5.55T24.38 37q.78-.54 1.44-.54 2.28 0 2.28 7.32l9.18-.66q.18-.96.18-3.06-1.32 0-5.4.36-.96.06-2.64.18-1.68.12-2.52.12-1.14 0-1.14-.18-.06-.12-.27-.51-.21-.39-.21-1.41-.24-.3 2.01-1.02t5.34-1.26q3.09-.54 5.31-.54.12-.42.24-1.38.12-1.08.24-1.38-2.28 0-7.68.12-4.02.18-7.86.18-3.66 0-5.55-.27-1.89-.27-1.65-.99-.12-1.62 2.52-2.31t9.06-1.41q1.08-.12 4.14-.48-.42-.42-.57-.87-.15-.45-.27-1.35-.12-1.26-.6-2.04-.3-.24-3.36-.48-3.24-.18-5.4-.57-2.16-.39-2.7-1.29 0-1.68 3.99-2.37 3.99-.69 7.47-.69.48-3 .99-4.2.51-1.2 1.17-1.62.3-.24.72-.24 1.2 0 2.28 1.86 1.08 1.86 1.44 4.02h7.98q0-2.34.9-4.41.9-2.07 2.52-2.07.54 0 1.26.36.78 1.62.93 3.66.15 2.04.21 2.22 3.48 0 7.38.75t3.9 2.97q-3.54 2.1-11.28 2.1l-.66 3.78q1.08.12 2.94.21 1.86.09 2.7.15 4.98.12 7.8.54 2.82.42 2.82 1.68l-.12.48q-2.7 2.1-13.38 2.1-4.44 0-8.4-.24v2.82l2.28.06q4.02.06 6.36.33 2.34.27 4.11 1.32 1.77 1.05 2.25 3.21.54 1.62.54 3.9 0 3.78-1.38 7.26t-3.42 3.84q-.96-.6-2.28-.6-1.08 0-2.52.36t-1.98.48q-5.4.3-11.16.3-12.36 0-11.82-2.22-.78-1.14 2.7-1.8 3.48-.66 7.44-.66 1.32 0 2.52.12-.12-.66-.24-1.98l-.18-1.5q-1.92 0-4.77-.15-2.85-.15-4.41-.33v2.58q-.3.72-.3 2.16 0 .3.03 1.71t-.54 2.16q-.57.75-1.77.75zM22.1 67.18q-.84 0-1.74-.18-.18-.36-.18-.78 0-1.56 2.49-3.63t5.73-3.57q3.24-1.5 5.04-1.5 1.08 0 1.26.6.66.12.78.36t.12 1.02q-2.64 2.88-6.15 5.28-3.51 2.4-7.35 2.4zm16.8-13.62q.54 0 .72-.18h-1.44q.18.18.72.18zm3.48.12q1.38 0 1.92-.48h-1.2q-.3.24-1.35.27-1.05.03-1.23.15l1.86.06zm18.96 12q-2.46 0-6-1.14t-6.06-3.03q-2.52-1.89-2.4-4.11.42-.42 1.56-.42 1.92 0 5.1 1.11 3.18 1.11 5.85 2.61 2.67 1.5 3.15 2.52 1.02.96 1.02 1.5 0 .96-2.22.96zm-8.16-19.32q-.84.12-1.38.12-4.56.6-7.74.6l-.72 3.3 9.6.24.24-4.26zm-.24-3.24q0-.96-.48-2.4-1.62-.66-8.4-.66-.24.24-.24 1.02 0 .6.09 1.26t.15.78h8.88zM36.08 27.88h8.46l-.48-4.26h-7.74l-.24 4.26zm2.82-7.14q1.14 0 1.62-.12h-3.24q.48.12 1.62.12zm61.86 17.22q-1.32-.72-1.95-4.68-.63-3.96-.63-8.7 0-2.22.15-3.99t.33-2.37q.66-.78 1.5-.78 1.56 0 3.66 2.94.24.9.33 1.8.09.9.12 1.77t.27.87q1.5-.6 7.02-.6l4.98.06q1.14.06 2.76.06l-.48-3.54q-1.26-.66-4.08-.66-2.1 0-6.96.54-3.12.36-3.72.36-2.4-.6-2.58-.66-.42-.66-.57-1.02-.15-.36-.15-1.14 2.22-1.56 5.85-2.46 3.63-.9 7.41-.9 4.56 0 7.65 1.41 3.09 1.41 3.45 4.35.42 1.62.42 3.96 0 3.06-.69 6.18-.69 3.12-1.98 5.16t-2.91 2.04q-.06-.18-.15-.36t-.27-.84q-.54 0-1.02-.24t-.66-.24q-.48-.24-13.56-.24l-.72.72q-.6.6-1.29.9-.69.3-1.53.3zM96.8 59.02q-1.26 0-3.42-2.49t-4.23-5.91q-2.07-3.42-2.91-5.88.78-.42 1.68-.42 2.22 0 4.68 2.22 2.46 2.22 4.11 5.25 1.65 3.03 1.65 5.07 0 1.38-.9 1.92-.24.24-.66.24zM86 46.6q.12-1.02.24-2.7.12-1.68.24-2.7H86q0 .42-.12 1.62-.18 1.08-.18 2.22 0 1.08.3 1.56zm-2.4 20.34q-.84 0-1.26-2.49-.42-2.49-.42-6.75 0-7.92 1.2-18.33 1.2-10.41 3.18-17.55 1.98-7.14 4.14-6.36.66 1.62.66 6.18 0 6.84-1.2 17.67-1.2 10.83-2.79 19.02t-2.73 8.19q-.42.42-.78.42zM77 40.24q-.6 0-1.08-.42-.24-.66-.24-2.1 0-2.46.66-5.58t1.86-5.25q1.2-2.13 2.64-1.83.6.6.6 2.88 0 2.34-.6 5.28-.6 2.94-1.62 4.98-1.02 2.04-2.22 2.04zm32.76 26.04q-4.26 0-7.8-.39t-5.16-.99q-.24-.3-.24-.72 0-1.26 2.7-1.86 2.7-.6 6.18-.96-.66-1.68-1.11-3.96-.45-2.28-.45-4.08 0-3.42 1.8-3.18 1.08.42 2.01 2.4.93 1.98 1.47 4.38.54 2.4.54 3.78l4.92-.48q-.12-1.2-.12-1.8 0-2.16.57-4.17t1.53-3.24q.96-1.23 2.04-1.23.6 0 1.14.36.06 1.44.06 3.36 0 1.56-.18 2.73t-.84 3.75q4.14.24 6.99.96 2.85.72 2.85 2.16 0 .42-.24.84-3.3 1.14-8.34 1.74-5.04.6-10.32.6zM89.54 38.86q-.48-.3-.48-1.26 0-1.5 1.02-3.93t2.43-4.23q1.41-1.8 2.55-1.8.54 0 1.02.48.42.42.42 1.32 0 1.56-1.14 3.78-1.14 2.22-2.79 3.9-1.65 1.68-3.03 1.74zm18.06 9.48q-4.02 0-6.78-.39-2.76-.39-3.12-1.11-.24-.24-.24-.48 0-1.02 3.93-1.98t8.49-1.26q-.24-2.04-.24-3.42 0-1.44.24-2.46 1.74-.18 2.97.96 1.23 1.14 2.19 4.44l1.26-.06q3.3 0 6.45.78 3.15.78 3.33 2.34-2.1 1.26-7.47 1.95-5.37.69-11.01.69zm3.72-5.46q0-.24.24-.72h.48q0 .72-.06.18t-.18-2.04q-.12 2.16-.12 2.31 0 .15-.12.27h-.24zm-6.12-10.32q.48-.3 1.68-.3l1.86.06q2.04 0 3.18-.06l3.42-.06q1.2 0 3.24.12.12-.48.33-1.35.21-.87.21-1.53 0-.42-.06-.66-.48.12-3.18.12l-6.42-.06q-1.8-.06-4.5-.06.24.42.24 1.14 0 .42-.12 1.38-.12.84-.12 1.26h.24zm17.34-12.66q-.12-.24-.36-.66-.24-.42-.78-.78v.72q.36.18 1.14.96v-.24zm33.96 46.14q-5.16 0-8.76-.6-3.6-.6-4.56-1.74-1.92-1.56-2.91-7.38-.99-5.82-.99-13.44 0-5.94.57-11.37.57-5.43 1.62-8.79 1.05-3.36 2.43-3.3 1.08-1.08 1.71 3.93.63 5.01.63 9.45 1.74-1.08 7.35-1.74 5.61-.66 11.79-.66 3.72 0 6.9.3 2.76.96 3.87 2.52 1.11 1.56 1.11 4.02 0 1.74-.78 6.3.78.18 1.23.48.45.3 1.11.96-.6 2.16-6.03 3.15-5.43.99-13.05.99-4.44 0-8.49-.3t-6.45-.78q-.18-.48-.18-2.34 2.7-1.74 7.71-2.28 5.01-.54 12.21-.54h6.3q0-1.2-.12-3.12-.12-1.56-.12-2.28-2.52-.84-6.96-.84-3.24 0-7.56.42-.9.06-2.76.18-1.86.12-3 .12-2.58 0-3.6-.6v9.36q.3.48.36 1.41.06.93.06 2.73 0 3.6.45 5.76.45 2.16 2.19 2.76h2.58q5.52 0 13.68-.36 6.36-.24 8.52-.24 4.26 0 6.57.54 2.31.54 2.85 1.98-2.1 2.4-10.41 3.87-8.31 1.47-17.07 1.47zm3.3-2.1q-.3-.18-.63-.66-.33-.48-.51-.72-.72-2.52-.72-5.7 0-2.82.51-5.52.51-2.7 1.41-4.38.9-1.68 1.86-1.68.3 0 .66.18 2.28.72 2.28 6.36 0 2.64-.45 5.28t-.87 3.36q-.72 1.44-1.41 2.22-.69.78-2.13 1.26zm-7.68-29.28q0-.24-.24-.24 0 .24-.03.27-.03.03.03 0t.24-.03zm7.26 1.86q-.36-.18-.69-.66-.33-.48-.51-.72-.72-2.52-.72-5.7 0-2.82.54-5.52.54-2.7 1.41-4.38.87-1.68 1.89-1.68.3 0 .66.18 2.22.72 2.22 6.3 0 2.64-.45 5.31-.45 2.67-.87 3.39-1.26 2.64-3.48 3.48zm-3.36-14.7q-7.08 0-11.67-.45t-4.59-1.41q0-.3.36-.54 3-2.16 9.69-3.33 6.69-1.17 14.19-1.17 7.38 0 12.51 1.08t5.13 3q0 .48-.48 1.14-2.28.72-9.78 1.2t-15.36.48zm4.56-5.04q.3 0 .66-.18h-1.2q.18.18.54.18zm3.42.18q1.32 0 1.68-.36h-3.48q.54.36 1.8.36zm64.32 39.18q-6.24 0-10.41-.72t-4.17-2.22q1.08-1.14 4.05-1.41 2.97-.27 7.89-.27v-6.3l-4.14-.42q-3.84-.36-5.16-.63-1.32-.27-1.32-.93 0-.48.54-1.08 1.74-.72 4.53-1.17 2.79-.45 5.55-.45 0-.6.12-1.92.12-1.2.12-1.86-1.32.12-1.92.12-1.32 0-3.72-.36-.3.42-.51.84-.21.42-.57.51-.36.09-1.5.09-1.32-1.02-1.92-4.02-.6-3-.6-7.02 0-4.74.69-8.7.69-3.96 1.59-3.96.54-.48 1.2-.48 1.56 0 2.31 3.15t.75 6.03l5.4 3q.24-1.5.24-4.2t.18-4.2q-2.28.12-3.54.12-6 0-5.58-1.8 1.32-1.08 5.49-1.8t8.73-.72q3.24 0 5.79.39t3.69 1.23q2.7 2.1 2.7 8.82 0 3.84-.84 8.76-.12.48-.36 1.5t-.75 1.71q-.51.69-1.47.99-.36.18-1.53-.09t-1.53-.63q-.96.36-2.61.54-1.65.18-3.03.18v3.78q5.22 0 7.8.51t2.58 1.77q0 .36-.3.96-.6.66-10.74 1.2-.12.84-.24 3t-.24 3.06q.6-.06 2.22-.06 4.2 0 7.71.57t3.51 1.83q0 .6-.78 1.2-1.32.66-5.97 1.11-4.65.45-9.93.45zm-12.96 9.24v-.24q.12 0 .12-.06t.12-.18v-.24h-.24q0 .48-.24.72h.24zm1.2-1.68q0-.18.12-.42t.12-.48q.18.18.03.27-.15.09-.27.15v.48zm-1.86 3.54q-.3 0-.48-.24 0-.12-.06-.18t-.18-.06q-.72-.9-.72-2.28 0-1.74 1.14-3.57 1.14-1.83 3.06-2.79 2.1.36 2.1 2.22 0 1.32-.87 2.94-.87 1.62-2.07 2.79-1.2 1.17-1.92 1.17zm9.12-.24q-1.68-.06-1.68-1.62 0-1.38 1.2-3.36t2.58-3.24h1.62q.54.72.54 1.86 0 2.04-1.32 4.14-1.32 2.1-2.94 2.22zm-26.04-8.46q-.96.24-1.53-4.83-.57-5.07-.57-12.51 0-9.48.93-16.8t2.67-7.32q.54 0 1.08.72 1.14.9 1.65 7.41t.51 15.03q0 5.28-.24 11.04.96-.12 1.68-.12.78 0 1.8-.12.9-14.4.9-22.5 0-3.6-.15-4.89-.15-1.29-.51-2.37-.12-.12-1.32-.12-2.04 0-3.84-.12-1.44-.6-1.44-1.38 0-.66 1.11-1.35 1.11-.69 2.79-1.11 1.68-.42 3.36-.42 2.16 0 3.66.75t1.8 2.37q.84 4.56.84 12.24 0 6.24-.57 12.36-.57 6.12-1.56 9.99-.99 3.87-2.25 3.81-.84 0-1.77-.78t-.93-1.62q0-.42.12-.6-2.52.3-2.94.3-.48 0-2.46-.3 0 1.14-.66 2.04-.66.9-1.41 1.26-.75.36-.75-.06zm28.38-4.2q.24-.24.24-.48-.12 0-.24-.12t-.24-.12q-.12.12-.42.33-.3.21-.3.39h.96zm9.36 12q-1.56 0-2.76-2.01-1.2-2.01-1.2-3.99 0-1.14.48-1.8.18-.06.54-.06 1.02 0 2.1.96t1.74 2.64q.66 1.68.54 3.72-.72.54-1.44.54zm-5.16-12.24q.18.18.36.21t.6.03l-.96-.24zm-30.9-32.58q.42 0 .66-.24-.18-.18-.48-.21t-.9-.03q0 .24.21.36t.51.12zm.66-1.86l.12.12-.12-.12zm44.46 45.72q-1.2 0-2.4-1.08t-1.98-2.67q-.78-1.59-.78-2.85 0-.84.36-1.38 1.02-.3 2.52.72t2.58 2.64q1.08 1.62 1.08 3.06 0 .66-.36 1.32-.48.24-1.02.24zM221 32.8q1.02 0 2.82-.12 1.56-.12 2.1-.12.24-1.2.24-3.54-1.26 0-1.95-.3t-1.47-.9q-.6-.48-1.02-.66l-.18 1.86q-.24 2.52-.54 3.78zm16.62-5.64q-1.8 1.44-4.44 1.86v3.06q.96.48 4.44.48v-5.4zm-4.44-1.62q.9-.36 1.14-.42.18-.06 1.32-.54 1.14-.48 1.98-1.2 0-3.24-.24-4.68-1.14-.36-1.92-.51-.78-.15-2.28-.15-.24.66-.24 2.04 0 .9.12 2.82t.12 2.64zm9.84-4.74q0-1.56-.48-3.96-.36-.18-.9-.6t-.96-.54q.3.24.75.81.45.57.87 1.05.18.66.72 3.24zm55.32 44.58q-1.5-1.5-1.86-3.78-1.74.24-9.45.54-7.71.3-13.89.3-8.4 0-8.76-.6-.36.18-.9.96-.42.66-.84 1.02t-1.08.36q-1.14-.78-1.53-2.13-.39-1.35-.63-3.75-.06-.36-.15-1.32-.09-.96-.27-1.68-.54-4.8-.54-12.18 0-10.98 1.26-19.5t3.66-8.52q.18 0 .54.12.96.54 1.35 3.15.39 2.61.39 7.29 0 2.94-.24 11.82-.36 10.68-.36 17.4v2.76q1.38-.96 24.3-.96h6.9q.12-9.78.24-14.34.12-9.12.12-11.46 0-4.5-.24-6.78-.24-2.28-.84-2.82-1.74-1.92-8.46-1.92-2.58 0-9.72.54-4.86.42-7.26.42-1.56 0-2.46-.18-.6-.6-.6-1.26 0-1.56 3.18-2.67 3.18-1.11 8.1-1.71 4.92-.6 9.9-.6 4.32 0 7.53.45t4.23 1.35q2.16.3 3.24 6.36 1.08 6.06 1.08 14.88 0 5.52-.39 10.8-.39 5.28-1.11 8.94-.12.66-.42 2.46-.36 2.28-.69 3.48-.33 1.2-1.11 1.98t-2.22.78zm-27.9-15Q269 48.94 269 44.74q0-1.92.27-3.99.27-2.07.69-3.51.54-1.02 1.26-1.02l.66.06q.72.36 1.11 1.83.39 1.47.39 3.51 0 3.24-.81 5.97-.81 2.73-2.13 2.79zm1.86 6q-.48 0-.66-.42-.24-.42-.24-1.02 0-2.1 2.55-5.88t5.49-6.6q2.94-2.82 3.66-2.16.48.12.66.33.18.21.18.57l-.12.96q-.6 2.52-2.91 5.88t-4.86 5.85q-2.55 2.49-3.75 2.49zM292.34 55q-1.02 0-2.85-.75T284.6 52l-1.5-.72q-.24-.24-.75-.54-.51-.3-.75-.42-1.26-.66-1.98-1.23t-.72-1.29q.72-.54 1.98-.54 1.98 0 4.68 1.11 2.7 1.11 4.83 2.55 2.13 1.44 2.31 2.28.42.84.42 1.2 0 .6-.78.6zm-29.16-25.74q0-.48.09-1.47t.09-1.65q0-1.5-.42-2.28l-.06 1.38q-.12 1.32-.12 1.92 0 1.5.42 2.1zm27.66 19.44q-2.4.24-2.4-4.92 0-2.1.3-4.68-.9-.12-5.34.3-1.26.06-4.32.27-3.06.21-4.92.21-2.34 0-2.76-.3-.6-.96 1.41-1.89 2.01-.93 5.4-1.5 3.39-.57 6.69-.57 2.88 0 4.98.51 2.1.51 2.82 1.59.6 1.44.6 3.54 0 2.52-.75 4.8t-1.71 2.64zm-17.82-15.24q.24.24.24-.24-.12-.12-.24-.48t-.24-.66q-.18.24-.18.6 0 .42.42.78zm-.24 2.34q-2.1-3.18-2.1-7.62 0-1.98.48-4.56.48-.42 1.08-.42 1.38 0 2.31 2.61.93 2.61 1.05 6.27h.24q1.62-.96 9.6-.96.12-.78.24-2.1.12-1.44.24-2.1-.72-.24-2.7-.24-1.74 0-2.64.06l-3.06.06q-2.52 0-3.93-.36-1.41-.36-1.29-1.38.9-1.08 3.87-1.65 2.97-.57 6.51-.57 2.94 0 5.1.39 2.16.39 2.58 1.11.48.72.48 2.46 0 2.4-.84 5.01t-1.74 2.61q0 .06-.12.06-.3 0-.84-.24t-.66-.54q-2.7.66-5.22.81-2.52.15-6.72.15-.18.72-.57.93-.39.21-1.35.21z"/></svg>