<svg viewBox="0 0 327 80" xmlns="http://www.w3.org/2000/svg"><path d="M59.75 17.29v-.36h.35v.36h.29v.29h1.65v.35h.35v.29h.35v.35h.29v.36h1v-.36h.64v.36h.35v.93h.3v.71h.35v.29h.35v.35h.29v1h.41v.29h-.41v.35h-.29v.35h-1.99v-.35h-.35v-.35h-1.94v.35h-7.56v.35h-4.63v.3h-1.28v-.3h-1.64v.3h-.71v.35h-.35v-.35h-.64v-.3h-.36v.3h-1.28v-.3h-3.64v-.35h-.99v.35h-.65v.3h-.29v.35h-.35v.29h.64v.35h.65v.65h.35v.35h-.35v2.28h-.3v1.29h.3v.71h-.3v6.91h.3v.35h-.3v1h.3v3.92h-.3v6.27h-.35v8.21h-.29v.7h-.35v1h.35v1.64h.29v.29h.35v.35h.65v.35H40v.29h.3v-.29h.7v-.35h1.93v.35h1.64v.29h.71v.36h.29v-.36h2.05v-.29h.65v.29h1.99v-.29h1.29v.29h.99v-.29h2.64v-.35h2.93v-.35h1.35v-.29h.64v-.36h.29v-.29h.36v-.7h.35v-.29h.29v-.36h1v.36h.99v.29h.65v.35h.64v.35h.35v.29h.3v.36h.35v.29h.35v.35h.29v2.29h-.64v.35h-1v.29h-.29v.35h-.35v.35h-1v-.35h-.29v-.35h-1v.35h-.64v-.35h-1.64v-.29h-.35v.29h-.65v.35h-.35v-.35h-5.57v-.29h-1.99v.29h-.64v-.29h-4.63v-.35h-.35v-.3h-.65v.3h-.35v.35H40v.29h-.99v.35h-.35v.35h-.65v.3h-.29v.35h-.35v.29h-.65v.35h-.64v.35h-2.35v-.7h-.29v-2.93h.29v-.35h-.29v-.65h-.35v-1.28h.35v-3.7h-.35v-.29h.35v-.99h.29v-.71h-.29v-2.93h.29v-.99h-.29v-.65h-.35v-.64h.35v-.35h-.35v-.65h.35v-2.28h.29v-5.28h.36v-1.29h-.36v-3.04h.36v-2.29h-.36v-1.64h.36V30.7h-.36v-1.93h-.29v-.64h-.35v-.36h.35v-2.28h-.7v.29h-.29v2.64h-.36v.64h-.64v.35h-.35v1.29h-.3v.71h-.35v.99h-.29v.65h-.35v.99h-.35v.3h-.3v1.64h-.35v1.05h-.29v1.29h-.35v1h-.35v.35h-.3v1.93h-.35v.7h-.29v.3h-.35v4.28h-.35v.35h-.3v.29h-.41v.35h-.29v.35h.29v.65h-.29v2.63h-.35v1.29h-.35v2.99h.35v.29h.35v.36h.29v.99h-.29v.35h-.35v2h.35v.29h.29v.35h.41v1.99h.3v.3h.35v1.34h-.35v.3h-.3v.35h-.41v.29h-.29v.35h-.7v.35h-.3v.3h-.35v.35h-.29v.29h-1.35v-.29h-.29v-.35h-.7v-.3h-.3v-.7h-.35v-.29h-.35v-.35h-.29V62.7h-.36v-.65h.36v-1h.29v-2.28h-.29v-1h.29v-.99h-.29v-1.7h-.36v-.65h-.29v-.35h-.35v-.64h-.64v-.3h-.36v-.35h-.29v-.35h-.35v-.64h-.35v-.3h-.29v-.7h-.36v-.64h.36v-.65h.29v-.35h.35v.35h1.29v.35h.99v-.35h.65v-1.29h.35v-.7h.35v-.29h.3v-.65h.35v-.35h.35v-.64h.29v-1h.35v-.64h.3v-.71h.35v-.64h.35v-.65h.29v-.99h.35v-.3h.3v-.35h.35v-.35h.35v-.29h.29v-.65h.41v-2.34h.3v-.29h.35v-.41h.35v-.3h.29v-.7h.35v-.29h-.35v-.65h.35v-.99h.3v-.65h.35v-.35h.35v-.35h.29v-1h.35v-.29h.3v-2.28h.35v-.71h.35v-.29h.29v-.65h.35v-.35h.3v-1.64h.35v-.64h.35v-1h.29v-.35h.36v-.94h.29v-.35h.35v-2.64h.35v-.35h.29v-.29h1.35v.29h1.64v.35h.65v.36h1.29v.29h.7v.35h.29v.29H40v.35h-.35v.36H40v-.36h1v.36h5.27v-.36h.65v-.35h.35v.35h2.28v-.35h.71v-.29h1.93v-.35h.65v.35h.7v.29h2.28v-.29h1.29v-.35h.65v-.29h.35v-.36h.64v-.35h.36v-.64h.35v-.29h.29zm-39.2.29v-.29h1v.29h.99v-.29h2.29v.29h1.7v.35h.64v.29h.35v.35h.3v.36h.35v.64h.35v1.29h.29v.35h.35v.65h-.35v.99h-.29v.65h-.35v.35h-.35v.29h-.3v.35h-.35v.35h-.29v.3h-.35v.35h-.35v-.35h-1.7v-.3h-.65v-.35h-.29v-.35h-.35v-.29h-.35v-1.99h-.3v-.65h-.35v-.35h-.29v-.29h-.7v-.36h-.3v-.35h-.35v-.29h-.64v-.35h-.36v-1.29h.36v-.35h.64zm15.18 4.28h-.65v.35h.65v-.35zm-19.46 7.55v-.35h2.64v.35h.35v.36h.65v.29h.64v.35h.65v.29h.35v.35h.35v.65h.29v.35h.35v.35h.3v.3h.35v.64h.35v2.34h-.35v.71h-.35v.29h-.3v.35h-.35v.35h-.29v.3h-.35v.35h-1.64v-.35h-.65v-.3h-.35v-.7h-.35v-1.7h-.29v-.64h-.36v-.3h-.29v-.35h-.35v-.35h-.35v-.29h-.29v-.35h-.36v-.65h-.29v-.64h-.35v-.71h.35v-1.29h.29zm83.38-15.93q3.87 1.11 4.4 2.34V16q0 .7-.65 2.34-.11.7-.11 1.29 0 1.17-.47 2.52l-.59.41q.59 0 .59.41v.64l-.41.65 1.05.82q3.93.23 4.86.23v.18q1.12-.41 4.87-.41h.82q2.99-.65 2.99-2.11.7 0 2.28-2.76l1.52-1.05h.41q1.82 0 4.46 3.81 1.58 0 2.52 1.46-.76 2.99-2.52 2.99h-.47q-2.64-.64-5.92-.88v-.17q-1.05.64-2.11.64h-1.87q0 .41-2.11 1.7l.23.41v.41q-1.29 3.46-1.29 4.45l-1.05 2.7.23 1.05q-.82 3.17-3.63 6.8-1 2.7-2.29 3.99v.87q0 1.76 2.93 3.58 0 .7 2.52 1.46 0 .71 2.35 1.29.41-.23.64-.23 5.04 2.75 7.56 2.75 1.52-.64 1.93-.64h.24q.53.88 3.16 1.05.35-.17.82-.17h.65q.17 0 .17.17l.47-.17h.41q.41.06.41.41v.17q-1.93 1.99-6.56 3.17-1.99 2.52-2.75 2.75-2-.41-7.56-3.98-.35-.82-2.99-1.7 0-.59-2.75-1.47-.41-1.17-4.63-3.81-1.18 0-4.63 2.52-1.7 0-1.7 1.47-7.21 4.22-8.85 4.22l-.88-.18q-.35 0-2.11 1.23-.64 0-2.93.88h-1.05q-.41 0-.41-.41v-.23q0-.65 5.04-2.52 1.4-.47 3.4-2.35 3.92-1.46 4.21-2.93 4.11-2.58 5.28-4.22 1.17 0 1.87-1.7-1.64-1.87-1.64-3.39-2.11-1.29-2.75-3.81 0-.3-1.06-.82-1.52-3.05-1.52-5.51.23-.41.23-.64-.82-1.88-1.05-1.88h-.82q-2.05 3.16-4.04 3.16-.65.24-2.11 2.76l-.82.17q-1.94-.64-1.94-2.52-.82-.64-.82-.82v-.64q2.35-2.75 2.76-2.75 2.05 0 4.86-1.7.76-.41 1.87-2.29.65 0 1.06-1.46-.65 0-.65-1.53-.82 1.29-1.05 1.29h-.41q-1.11 0-1.46-.88 0-.58 2.28-1.23h.23l.65.41h.18q1.46 0 4.04-.41.76.41 1.7.41h.41q.29 0 .64-.82-.41-.7-.41-1.29v-1.87l-.47-6.97q0-.88 2.11-1.29zm-26.13 9.08q.94 0 3.75 3.16.41.24.88.24l1.29-1.06 3.98 1.06q1 0 3.58-.65.64 0 .64.82-.41 1-.82 1.06l-3.81-.41q0 .52-5.27.88 0-.36-.65-.65h-.88q-.76.65-1.46.65h-.64q-.24 0-1.88-1.94v-.23q.59-2.93 1.29-2.93zm25.08 4.22l-3.17.88q-1.7-.24-2.11-.47v.64q1.94.76 2.11 1.7-1.11 2.52-2.11 2.52l.24 1.06q-.41.05-.41.41v.46q1.11 0 4.39 8.44Q99.07 45 101.18 46h.41q.99-.36 1.7-2.76 2.63-2.69 3.75-9.26.64-.82.64-1.52l-.18-.82q1.06-2.34 1.47-4.22l-1.29-.41q-.41 0-1.47.41-1.28-.35-1.28-.64l-1.06.23q-.47 0-.82-.23l-1.29.23-.41-.23q-.41.23-.64.23l-2.11-.23zm-21.1 36.5l.41.24q.41-.24.88-.24.41.12.41.47-1.23 1.64-2.52 2.11-2.34-.18-2.34-.65v-.23q0-.76 3.16-1.7zm102.19-49.04V14h2.35v.24h.23V15h.29v.53h.76v.23h.24V16h.29v.29h.24v.23h.52v.24h.24v.29h.29v.7h.24v.53h.29v1.52h-.29v.77h-.24v.47h-.29v.29h-.24v.99h.24v.77h-.24v1.52h.24v1.46h-.24v3.05h-.29v.24h-.23v.52h.23v.24h.29v.76h-.29v.23h-.23v.3h.23v.23h.29v.24h.24v1.52h.29v2.75h-.29v.76h-.24v1h.24v.53h.29v5.04h-.29v.76h-.24V45h.24v.76h.29v1.53h-.29v.7h-.24v1.05h.24v1.23h-.24v.24h-.52v1.29h.23v.23h.29v1.29h.24v.47h.29v.53h.24v1.23h.29v.76h-.29v1.05h-.24v.71h-.29v.29h-3.87v.47h2.05v.29h1.29v.24h.29v.23h.24v.29h.29v1.76h-.29v.47h-.24v.53h-.29v.23h-.23v.24h-.24v.29h-.29v.23h-.24v.24h-.29v.29h-.23v.23h-.24v.24h-.82v.29h-1.29v.24h-.23v.23h-.53v.24h-.99v.29h-.3v.23h-2.58v-.23h-.52v-.29h-.24v-.47h-.29v-.24h-.23v-1.05h-.24v-.76h-1.05v-.24h-.24v-.23h-.29v-.24h-.24v-.29h-.29v-.23h.29v-.24h.24v-.53h.29v-.23h2.58v-.29h.76v-.24h1.29v-.23h.24v-.24h.29v-.29h.53v-.23h.23v-.24h.23v-.29h.3v-.24h.52v-.23h.47v-.29h.3v-1.23h-.3v-.24h-.23v-.29h-.24v-1.99h-.29v-.53h-.23V51.8h-.3v-1h.3v-1h.23v-.29h.29v-.47h.24v-.29h.23v-.23h.3v-.24h-1.06v-.29h-.23v-.7h-.3v-.3h-.46v-.23h-.53v-.24h-.29v-.29h-.47v.29h-.3v.24h-.76v-.24h-.29v-.29h-1v.29h-.29v.24h-.47v.23h-2.58v-.23h-.82v-.24h-.23v-.29h-1.29V46h-1.52v.23h-.3v.29h-.23v.24h-.53v.23h-.53v.53h-.23v.47h-.29v.76h-.24v1.05h.24v.71h.29v1.29h-.29v.52h-.24v.47h-.29v.24h-.24v.29h-.23v.47h-.29v1.29h-.24v.47h-.29v.29h-.23v.23h-.24v.24h-.29v.29h-.24v.76h-.29v.24h-.23v.47h-.24v.29h-.29v.23h-.24v.24h-.29v.53h-.23v.23h-.53v.76h-.23v.24h-.3v.29h-.47v.23h-.29v.24h-1.05v.29h-.24v.24h-.53v.23h-.23v.29h-.29v.24h-.47v.23h-1.06v.24h-.52v.29h-.24v.23h-.29v.24h-.47v.29h-.29v.23h-.53v.24h-.23v.29h-1.53v.24h-.29v.23h-2.58v.24h-1.05v.29h-1v-.29h-.29v-.71h.29v-.29h.23v-.24h.3v-.23h.23v-.29h.76v-.24h.3v-.23h2.05v-.29h.23v-.47h.29v-.24h.77v-.29h.52v-.23h.53v-.24h.47v-.29h.29v-.24h.53v-.23h.23v-.53h.24v-.23h.29v-.24h.24v-.29h.29v-.23h.23v-.24h.24v-.29h.29v-.24h.24v-.23h.29v-.29h.23v-.47h.24v-.24h.29v-.29h.23v-.23h.53v-.24h.24v-.29h.29v-.76h.23v-.24h.3v-.23h.23v-.24h.29v-.29h.24v-.23h.76v-.24h.29v-1.29h-.29v-1.52h.29v-.23h.47v-1.76h.29v-1.76h.24v-.76h.29v-1.53h.24v-.46h.23v-4.05h-.23v-1.29h.23v-3.51h-.23v-.76h.23v-1h.29v-.23h.24v-.77h-.24v-.29h-.29v-1.99h-.23v-1.76h-.24v-4.51h-.29v-.53h-.24v-.53h.24v-.23h.29v-3.28h-.29v-.47h-.24v-1.52h-.29v-.53h.29v-.47h-.29v-1.29h.29v-.23h.53v-.3h1.29v.3h1v.23h.52V16h.24v.29h.53v.23h2.34v.24h1.52v.29h.3v-.29h3.34v-.24h2.34v.24h.47v-.24h1.05v-.23h.3V16h.23v-.24h.24v-.23h.29v-.3h.23V15h.3v-.23h.23v-.24h.23v-.29h.53zm-42.07 1.52v-.23h2.05v.23h.53V16h.23v.29h.3v.23h.76v.24h.29v.29h.24v.24h.52v.23h1.82v.23h.23v.3h.77v.23h2.57v.24h1.29v-.24h.53v-.23h.29v-.3h.24v-.23h.23v-.23h.29v-.24h.24v-.29h.29v-.24h.24v-.23h.23V16h.29v-.24h1.53V16h.29v.29h.47v.23h.29v.24h.24v.29h.52v.24h.24v.23h.29v.23h.24v.3h.29v.23h.23v.76h.24v.24h.29v.29h.53v.23h.23v.77h-.23v.47h-.3v.76h-.23v.29h-.29v.23h-.24v.24h-.23v.53h-.29v1.23h-.24v.52h-.29v.24h-.24v2.05h.24v.23h.29v.47h.24v.76h-.24v.77h-.29v.29h-.24v.23h.24v.24h.29v2.05h-.29v.23h-.24v6.56h.24v.47h-.24v2.82h-.23v.23h-.29v1h.29v.23h.23V44h.24v.24h.29v.23h.24V46h-.24v.23h-.29v.29h-.24v.47h.24v.3h.29v.46h.24v2.52h-.24v.24h-.29v.29h-.24v.76h-.23v.76h-.29v.24h-.24v.23h-.29v.24h-.24v.29h-.23v.23h-1.05v.24h-1.53v-.24h-.29v-.76h-.24v-1.52h.24v-1.76h-.24v-.76h-.29v-.47h-7.73v.24h-.53v.23h-.23v1.29h-.24v.76h.24v.76h.23v.47h-.23v.76h-.24v1h-.29v.29h-.24v.24h-.29v.23h-.23v1.29h-.3v.76h-.23v.24h-.24v.23h-2.34v-.23h-.23v-.24h-.3v-.29h-.23v-.76h-.29v-1.47h.29v-.53h.23v-2.51h-.23V49.8h.23v-.29h.3v-.23h.23v-.76h.24v-1h-.24v-.53h-.23v-.23h-.3V46h.3v-.24h.23v-.99h.24v-.3h.29v-.76h-.29v-.47h-.24v-2.81h.24v-1h-.24v-6.79h-.23v-.24h-.3v-.76h-.23v-2.52h.23v-.76h.3v-.23h.23v-1h-.23v-.29h-.3v-.47h-.23v-7.33h-.29v-1.52h-.24v-.76h.24v-.47h.29V16h.23v-.24h.53zm37.68 3.52h-3.87v.29h-1.29v.23h-.53v-.23h-.47v.23h-.52v.24h-.3v.23h-.23v.3h-.23v.23h-.3v.24h-.23v.29h-.29v1.99h.29v.76h-.29v.53h-.24v.23h-.29v.47h-.24v1.06h.53v.23h.24v.24h.29v2.28h-.29v1h.29v.23h.23v.29h.53v.24h1.52v.23h.53v.3h1.29v-.3h.29v-.47h.24v-.29h.23v-.23h.29v-.24h.24v-.23h.29v-.29h.24v-.24h.23v-.23h.29v-.3h.24v-.23h1.58v.23h.23v.3h.24v.23h1.35v.24h.23v.29h.24v.23h.29v.76h.53v-.29h.23v-1.46h-.53v-.3h-.23v-.76h.23v-.23h-.23v-5.04h-.29V20.8h-.24v-1h-.76v-.23h-.82v-.29h-.24v.29h-.52v-.29zm-29.42 1.52h-1.05v.24h-1.53v.52h-.23v.24h-.29v.29h-.24v.7h-.29v.53h.29v.76h-.29v.53h-.23v1.76h.23v.23h.29v1h-.29v.99h-.23v1.06h.23v.23h.29v1.76h-.29v1.23h-.23v.53h-.24v.23h.24v.3h1.05v-.53h.23v-.24h.53v.24h1.53v-.24h.29v-.29h2.05v.29h.23v.24h1.59v.53h-.3v.23h-.23v.23h-2.87v.3h-1.76v-.3h-1.58v.3h-.24v2.75h-.29v1h-.23v1.52h.23v1h-.23v4.27h.23v.24h.29V46h.53v.23h.23v.29h.24v.24h.29v.23h6.68v-.23h.29v-1h.24V45h.29v-1.52h.24v-.24h.23v-.53h-.23v-.23h-.24v-.23h.24v-.3h.23v-1.52h-.23v-.23h-.24v-1.76h-.29v-1h.29v-.23h-.29v-.53h-.24v-1h.24v-.99h-.24v-.3h-.29v-1.75h.29v-.24h.24v-.76h-.24v-.76h.24v-.76h.29v-.76h.24v-.24h.23v-.76h-.23v-.23h-.24v-.3h-.29v-.7h.29v-.76h-.29v-2.52h-.24v-1.06h-.29v-.99h-.76v-.24h-.23v-.23h-.53v-.29h-1.06v.29h-1.29v-.29h-.76v-.24zm25.02 11.84h-2.58v.23h-.46v.29h-.3v.24h-.23v.76h.23v2.29h-.23v2.98h.23v.53h.3v3.75h-.3v.53h.3v.53h4.33v-.3h.53V44h.29v-.52h.24v-.53h.23v-.24h.29v-.23h.53v-.23h1.29v.23h.76v.23h.24v.24h.52v.29h.3v.47h.23V44h2.34v-.52h.24v-.53h-.24v-.47h-.29v-.23h-.23v-4.57h-.3v-2.52h.3v-.77h-.3v-.23h-.23v-.23h-.23v-.3h-.3v-.23h-.52v-.24h-1.82v.24h-.47v-.24h-1.58v.24h-1.29v-.24h-1.29v-.29h-.53v-.23zm38.21-19.28h.46q.18 0 .18.18.18 0 .18-.18 1.99.18 2.87.18h1.17q.99 0 1.87 1.69 0 .88-1.99 3.7v.29q.35 1.46 1.29 1.46.65 0 2.29.47 1.93-1.87 3.51-2.22.12-.65.53-.65 1.29 0 2.69 2.52 0 .41 1.23 1.35v.17q-.35.71-1.23 1.23-1.11-.29-1.46-.29h-2.29q-.52 0-1.46.18-1-.65-1.52-.65h-1.41q-.47.35-2.17.65l-.35.47.18 1.58-.18 1.11q.29 0 .47 1.41 1.87.64 2.75 1.46 1.23-.41 1.23-.64-.23-.29-.23-.65.23 0 .23-.17.47.35.76.35 1.06-.65 1.59-.65 1.29.77 2.87 2.99v.82q-1.7 1.41-1.7 2.23v.47l.35 1.11q0 .35-.18 1.76 0 .29.36 1.17l-.18 1.12q0 .23.29 3.8 0 2.05-1.46 2.99-1.06-.17-1.94-.64l-.99.17h-.18l-.82-.82q-.23.24-2.05.47-.82 1.94-.82 2.87 0 2.23 1.53 2.58 1.69-.17 2.57-.17h1.64q.82 0 3.58-2.23h.35q2.87 0 2.87 1.58h.35q.47 0 1.17-5.21-.35-.65-.35-1 0-.12.18-1.23-.35-1.06-.35-1.47v-.11l.52-.65v-1.29q-.64-2.34-.64-3.86v-2.05l.12-.94q-.12-.29-.3-1.94.3-.82.3-1.11-.24-3.34-.82-4.45 0-1.99-.36-4.16l.18-.94-.18-.64q0-2.17 1.88-2.88l.47-.29h1.11l3.17 2.05v.18h2.57q1.64-.53 2.88-.53l.29.18q1.05 0 2.11-1.59.52-.29.99-.29h2q2.57 1.82 2.57 2.05v2.23q-1.7 1.7-1.7 5.45-.17 0-.29 1.4.29.65.29 1.12l-.17.82q0 1.76 1.17 4.28v.93q0 .53-.47 1.12v.29q.65 0 .65.82-.35.53-.65 2.75v.36q.65.93.65 1.23 0 .7-.18 2.05l.18.82-.35.76.58 3.05-.23.76.23.82q-.23.82-.23.93l.23.83q-.58.76-.58 1.11.23 0 .58.47v.29l-.23 1.11q.52.18.52 1.06v.58q-.87.77-.99 2.11.12.12.29 2.05 0 .41-1.87 2.52-.47 2.52-1.82 2.52l-.35-.11q-.12 0-1 .64-.58-.35-.88-.35l-1.52.17q-.88-.87-.88-1.93l.18-.76q-2.52-1.41-4.05-1.47l-.23-.29v-.64q.29-.65 1.58-.65h1.23l.47.35h.18q.87-.64 1.52-.64.88 0 .88.29.76 0 2.17-2.05v-1.76q0-.29.52-1.23-.41-1.11-.41-1.52v-.76q0-.24.71-.65-.35-4.74-.82-4.74.11-.88.11-1.29-.23 0-.47-1.41-.29-.06-.52-1.11.06-1 .41-1l-.18-.93q0-.41.18-1.23-.41-1.76-.41-2.82 0-.23.23-1.87-.23-.65-.23-1.12l.52-.82q0-.7-.52-2.05 0-.64.52-2.05-.52-1.23-.52-1.58v-2.4q0-.18-.3-1.7v-.18q.53-1.58.53-1.99v-.76q0-.35-.35-.35h-.35q-.7.64-1.41.64-.76-.58-1.46-.94-.35.18-.71.18l-.29-.18q-4.1.3-4.1 1.29-.7 2.99-.88 4.98-.12 0-.53.59 0 2.7 1.41 2.7l.12.35v.17q-.71 3.93-.82 3.93 0 .41 1.52 5.15l-.82 1.29v.47q.53 1.41.53 1.58-.41 1.53-.41 1.76v.12l.41.47q0 .17-.71.99v.12q0 .41.18.65 0 .46-1.41 3.8 0 .77-.29 1.12.29.53.29.94-1.11 1.05-1.64 2.93l-1.23 2.57q-.29 0-1.99 2.35-.7.29-1.58 1.93l-2.52.94-2.87 2.22q-1.23.53-3.75 1.12v.17q-6.62 0-6.62-1.46 0-1.06 1.05-3.34v-3.46l.82-4.69v-.29q-.94-.17-2.69-1.58v-.35q0-.29.99-.47.3.18.47.18.7-.24.7-.47-.29 0-.29-.36v-.11q0-.59.65-1.29v-.47q0-.94-2.05-2.05-.24-.7-.88-1h-.47q-.82 1.17-.82 1.58.29.53.29 1 0 .59-4.39 1.11h-.36q-.87 0-.99-.52l.47-2.99-.3-.65q.12-1.75.71-2.52-.41-.52-.41-.93l.52-2.11q-.7-.82-.82-2.76-.35 0-.47-1.11 0-.64.47-1.23l-.17-1.11v-3.99q.35-1.58 1.7-1.58 3.04.35 3.04.94 0 .7.82.94l1.18-.59h.41l.82.12q.64-2 .64-2.23-.17-.23-.17-.59v-.35q0-.11.41-1.29v-.11q0-.36-.53-.36l-1.17.18-2.58-.64q-.29 0-1 .35-.12 0-.99-.18-1.29.18-1.41.18-.29 0-1.17-.35-1.58.35-2.23.82h-.99q-1.76-.82-1.76-2.76.35-.52 2.4-1.58h1.17q1.64.7 1.7 1.11.12 0 .7-.17 1.12 0 3.4.99 0-.23 1.17-.82 3.05 0 3.05 1.18h.24q.29-.12.64-.88-1.87-2.76-1.87-4.28 0-3.34 1.23-3.34zm23.73 13.42h.29q.88 0 .88.29.35-.18.53-.18 1.28.53 2.87 1.76 1.46 0 2.57 2.05 0 3.05-1.17 3.05-.88 0-2.22.29-1.29 0-2.58-1.58l.23-1.11q-.06-1.29-2.11-3.64v-.17q.35-.7.71-.76zm-27.13 3.63q-.71 1.58-.71 2.34.3 1.06.3 1.12l-.12.82q0 .41 1.82 1.29l.41-.18h.7q.88 0 2.46.47h.53q.58-.35 1.35-.64 1.4.64 2.69.64 2.4-.88 2.4-1.58l-.11-.3v-.17q0-.94.64-1.58v-.47q-.41-1.76-1.23-1.76-1.11.64-1.99.64h-.35l-2.05-.35-1.18.35-1.7-.82q-.93.47-1.46.47-.88-.29-2.4-.29zm6.74 7.5l-1.65-.18q-2.46.53-4.1.53l-.88-.17-.11.29v2.4q0 .29-.53 1.41 1.82 1.46 2.52 1.46l1-.17q.58.17.58.29 1.41-.12 6.74-.29.59.29.82.29l.41-.47-.18-.64q.12-1.12.36-1.12l-.18-.29v-.47q0-.76.18-1.58-.3-1.64-.71-1.64l-2.05.17-.82-.52h-.17q-.88.7-1.23.7zm21.38 1.11h.71q.76.77 3.86 2.23.94.7 1.23 3.16-.17 1.64-.17 2.7-.65.47-1.06.47-3.34-.24-3.34-1.58 0-.59-1.35-3.34l-.35-2.99q.24-.65.47-.65zm-38.14 10.49h.82q.64.29.64.76h.41q.35 0 .65-.11.58.29 2.52.47l2.4-.36.88.53h.29q0-1 .53-1h.17q1.88 1.06 1.88 1.29v.18q0 .41-2.87.76 0 .47-3.46.65-1.76-.3-2.34-.3h-1.53q-1.34 0-1.7-1.46.24-1.41.71-1.41zm20.15 2.52h-1.17q-.7.35-.7.94 0 .82.41.82-.18 1.35-.41 1.35l.41 2.81q0 2.11-1.93 2.11 0 .53.52 1.7h.18l1.23-.12q.41.76.64.76h.12q.7-.52 3.46-.94 3.1-1.46 3.92-3.51 3.05-2.17 3.05-4.34.12 0 .12-.47v-.17q0-.59-4.75-.59 0-.35-.29-.35h-.7q-1.29 0-1.88-.17-1.11.17-2.23.17zm54.61-38.61v-.24h.76v.24h.24v.94h-.24v.46h.24v.53h.53v.24h.23v.23h.24v.23h.23v.24h.29v.23h.3v.24h.46v.23h.24v.24h.23v.23h.53v.24h.23v.23h.24v.76h-.24v.24h-.23v.23h-.53v.23h-.23v.24h-.24v.23h-.23v.47h-.23v.24h-.59v.23h-1.47v.24h-.23v.93h-.23v.3h-.3v.23h-.29v.7h-.23v.47h-.24v.24h-.23v.7h-.3v.47h-.23v.23h-.23v.53h.23v.23h.23v.47h-.23v.24h-.23v.47h-.24v1.4h-.23v.53h-.3v1.64h-.29v1.41h.29v1.23h-.29v.7h.29v3.11h-.29v.23h-.23v.47h-.24v.23h-.29v.94h.29v.24h.24v.23h.23v2.17h.29v.7h-.29v1.7h.29v1.41h-.29v2.63h-.23v1.64h.23v5.75h-.23v.46h.23v.24h.59v-.24h.23v-.23h.47v-.23h.23v-.24h.3v-.23h.23v-.24h.24v-.23h.23v-.47h.29v-.76h.3v-.47h.23v-.24h.23v-.46h.24v-.24h.23v-.47h.3v-.23h.23v-.24h.24v-.23h.23v-.23h.29v-.24h.3v-.29h.23v-.24h.23v-.47h.24v-.46h.23v-.24h.3v-.47h.23v-.23h.23v-.7h.24v-.47h.29v-.53h.3v-.24h.23v-.23h.23v-.23h.24v-.24h.23v-.47h.3v-.47h.23v-.93h.23v-.53h.24v-.47h.23v-.23h.35v-.24h.24v-.47h.23v-.47h.24v-.7h.23v-.76h.3v-.47h.23v-.23h.23v-.24h.24v-.23h.23v-.94h.35v-1.7h.24v-.47h.23v-.47h.24v-.23h.23v-.7h.29v-.24h.24v-1.7h-.24v-.23h-.29v-.24h-4.74v.24h-2.82v-.24h-3.22v-.23h-.23v-1.17h.23v-.24h.23v-.23h.24v.23h.23v.24h2.05v-.24h.24v-.23h1.23v.23h.29v.24h1.76v-.24h.23v-.23h1.06v.23h.23v.24h4.22v.23h1.58v.24h.24v.7h-.24v.23h-.76v.71h.76v-.24h.47v-.94h.82v.24h1.23v.23h.24v.24h.23v.23h.24v.47h.23v.76h.35v.71h.24v.93h-.24v.94h-.35v.53h.35v.7h.24v.47h-.24v.94h.24v2.17h-.24v1.17h-.35v.47h-.23v.23h-.47v.23h.23v.24h.24v.29h.23v.47h.35v.94h.24v2.87h-.24v3.11h-.35v.93h.35v1.17h.24v.24h1.7v-.24h.23v-.46h.35v-.71h.24v-.23h.7v-.24h1v.24h.58v.23h.47v.24h1v.23h.23V50.1h-.23v-.24h-.24v-.23h-.23v-.24h-.29v-.23h-.24v-.47h-.23v-.7h-.24v-1.47h-.35v-.23h-.23v-.7h-.24v-.71h-.23v-.7h-.24v-1.47h-.29v-1.17h.29v-.23h-.29v-.24h-.23v-.23h-.24v-.23h-.23v-.47h-.24v-.24h-.35v-.52h-.23v-2.82h-.24v-.76h-.23v-.23h-.24v-.24h.24v-.23h.23v-1.17h-.23v-.24h-.24v-1.46h-.29v-.24h-.47v-.23h-.47v-.24h-.58v-.23h-.24v-.7h-.23v-.24h-.24v.24h-1.23v-.24h-.35v-.7h-.23v-1.94h-.24v-1.17h-.23v-.23h-.24v-.7h.24v-.3h.23v-.93h-.23v-.24h-.24v-.47h-.29v-.94h.29v-.23h.47v-.53h-.23v-.23h-.24v-.47h-.29v-.94h-.23v-1.64h-.24v-.29h-.23v-.24h-.24v-.7h-.35v-.23h-.23v-.47h.23v-.24h.35v-.47h.24v-.46h.23v-.24h.47v-.23h2.29v.23h.99v.24h.24v.23h.58v.23h.24v.24h.7v.23h.29v.24h.47v.23h.24v.24h.23v.23h.35v.24h.24v.23h.23v1h-.23v.23h-.24v.23h-.58v.94h-.24v.24h-.76v.23h-.7v1.93h-.24v1.41h-.35v.94h-.23v.53h-.24v.46h.24v.24h.23v.47h.35v.47h.24v.46h.23v.94h-.23v.76h-.24v.24h.24v.23h.23v-.23h.76v.23h.24v.24h2.52v-.24h.23v-.23h2.05v-.24h1.53v-.23h.99v-.29h.47v-.24h.53v-.23h.29v-.24h.47v-.47h.23v-1.4h.3v-.24h2.52v.24h.23v.23h.47v.24h.23v.23h.3v.24h.29v.23h.23v.23h.47v.24h.3v.23h.7v.24h.23v.23h.59v.24h.47v.29h.23v1.17h-.23v.24h-.24v.23h-.23v.7h.23v.47h-.23v.24h-.29v.23h-.53v-.23h-.24v-.24h-.46v-.23h-1v.23h-1.29v-.23h-1v-.24h-1.28v-.23h-1.23v.23h-2.06v.24h-1.28v-.24h-.47v-.23h-.24v.23h-1.23v-.23h-1.05v.23h-1v.24h-.23v1.46h.23v.24h.24v.23h.23v.47h.29v.94h.24v.23h.23v1.23h.24v1.41h.23v.47h.35v.47h.24v.47h.23v.23h.24v.29h.29v.24h.23v.47h.24v1.4h.23v.7h.24v.53h.29v.24h.29v.23h.24v.47h.23v.23h.23v.47h.3v.47h.23v.47h.24v.23h.23v.24h.24v.23h.29v.3h.29v.23h.24v.24h.23v.23h.23v.23h.3v.24h.23v.23h.24v.47h.23v.7h.23v.24h.3v.23h.29v.24h.23v.29h.24v.47h.53v.23h.47v.24h.23v.23h.23v.24h.3v.23h.29v.24h.7v.23h.53v.23h.47v.24h.53v.23h.52v.24h.24v.23h.23v.53h.3v.23h.23v1.18h-.23v.93h-.3v.24h-.47v.23h-2.05v-.23h-1.29v.23h-.93v.24h-3.28v-.24h-.24v-.23h-.29v-.24h-.29v-.23h-.24v-.24h-.23v-.23h-.24v-.47h-.23v-.23h-.3v-.24h-.23v-.23h-.23v-.24h-.24v.24h-.29v.23h-.29v.24h-.47v.23h-2.05v-.23h-2.29v-.24h-.94v.24h-.76v.47h-.23v.46h.23v.71h.24v.23h.23v4.1h.29v3.05h-.29v.53h-.23v.23h-.24v.24h-.23v.23h-.24v.24h-.35v.23h-.94v.23h-2.52v-.23h-.29v-.23h-.23v-2.64h-.24v-1.88h.24v-.52h-.24v-1.88h.24v-.7h.23v-1h-.23v-.47h-.24v-1.17h-.23v-.23h-1.82v-.24h-2.22v.24h-1v.23h-1.82v-.23h-.93v-.24h-.3v-1.46h.3v-.24h.7v.24h.76v-.24h.47v-.23h.58v.23h.47v.24H280v-.24h.47v.24h1.06v-.24h.76v-.23h.47v.23h.23v.76h.59v.24h.47v-1.47h.23v-1.87h.29v-2.4h.24v-.24h.23v-2.87h-.23v-.23h-.24v-.71h.24v-.23h.23v-1.23h.24v-.24h.23v-.93h-.23v-.24h-.24v-.23h-.23v-.24h-.24v-.23h-.29v-.7h.29v-1.47h.24v-.23h.23v-.47h-.23v-.24h-1.23v.24h-.24v.47h-.35v.23h.35v1.94h-.35v.23h-.23v.47h-.24v.23h-.23v.24h-.24v.47h-.29v.23h-.23v.47h-.24v.29h-.23v.24h-.24v.23h-.35v.94h-.23v.7H280v.47h-.23v.23h-.23v.24h-.3v.53h-.23v.23h-.24v.24h-.23v.23h-.24v.23h-.35v1.18h-.23v.46h-.24v.47h-.23v.24h-.23v.29h-.3v.24h-.23v.46h-.24v.94h-.23v.24h-.53v.7h-.29v.23h-.47v.24h-.23v.23h-.3v.29h-.47v.24h-.23v.23h-.23v.47h-.3v.24h-.29v.23h-.7v.24h-.3v.23h-.47v.47h-.23v.47h-.23v.23h-.3v.24h-.29v.29h-1.23v-.29h-.47v.29h-.23v.23h-.3v.94h-.29v.7h.29v.94h.3v.53h.23v1.17h.24v1.41h-.24v.47h-.23v.52h-.3v.47h-.29v.24h-.23v.23h-1.47v.24h-.29v.23h-1v.23h-2.52v-.23h-.29v-3.57h-.23v-.94h.23v-.76h.29v-1.88h.24V52.5h.23v-1.41h.29v-.7h.24v-.29h.29v-1.17h-.29v-.24h-.24v-.47h-.29v-.23h-.23v-.47h.23v-.23h.29v-.24h.24v-.23h.29v-2.17h.24v-.24h.23v-1.17h-.23v-.99h-.24v-.71h.24v-.93h.23v-1.94h.24v-.7h-.24v-.47h-.23v-.94h-.24v-1.7h-.82v.24h-.23v.7h-.24v.24h-.29v.52h-.23v.24h-.24v.7h-.23v.23h-.24v.24h-.52v.23h-.3v.24h-.23v.23h-.24v.47h-.29v.24h-.47v.23h-.23v.53h-.24v.47h-.29v.46h-.23v.47h-.3v.47h-.23v.47h-.24v.23h-.52v.24h-.24v.29h-.23v.24h-.24v.23h-.52v.24h-.77v-.24h-.29v-.23h-.23v-.53h-.24v-1.41h.24v-.47h.23v-.46h.29v-.24h.24v-.47h.23v-.29h.3v-.47h.23v-.23h.76v-.24h.24v-.23h.23v-.24h.29v-.93h.24v-.24h.23v-.23h.3v-.24h.23v-.23h.29v-.53h.24v-.23h.23v-.71h.24v-.7h.23v-.23h.29v-.24h.24v-.23h.23v-.24h.3v-.99h.23v-.47h.29v-.24h.24v-.47h.23v-.23h.24v-.47h.23v-.23h.29v-.47h.24v-.24h.76v-.23h.29v-.29h.24v-1.64h-.24v-.94h.24v-.24h.23v-.23h.47v-.23h.29v-.3h.24v-.47h.23v-.46h.29v-.47h.24v-.94h.29v-.7h.24v-.3h.23v-.23h.23v-.24h.24v-.46h.29V17.7h-.29v-2.35h.29v-.23h.24v-.3h.82v-.23h1.23v-.23h.23v-.24h.24v-.23h.23v-.47h.29z"/></svg>