<svg viewBox="0 0 303 80" xmlns="http://www.w3.org/2000/svg"><path d="M19.98 37.24q-.36 0-.6.24-.3.3-.3.6v25.26q0 .3.3.6.24.24.6.24h8.22q.84 0 .84-.84V38.08q0-.84-.84-.84h-8.22zm25.5-5.82h-7.2l-.36 12.84h7.56q.6 0 1.02.42.42.42.42 1.02 0 .66-.42 1.08-.42.42-1.02.42H37.8l-.54 19.2q0 .6-.42 1.02-.48.36-1.02.36h-.06q-.6 0-1.02-.42-.48-.42-.36-1.08l1.44-50.58q.12-1.8 1.26-2.94 1.14-1.14 2.94-1.14h7.86q1.56 0 2.64 1.08t1.08 2.64v48.24q0 1.56-1.08 2.7-1.08 1.08-2.64 1.08h-2.52q-.6 0-1.02-.42-.42-.42-.42-1.08 0-.6.42-1.02.42-.42 1.02-.42h2.52q.84 0 .84-.84V15.34q0-.36-.24-.6t-.6-.24h-7.86q-.48 0-.84.36-.42.36-.42.9l-.36 12.72h7.08q.6 0 1.02.42.42.42.42 1.08 0 .6-.42 1.02-.42.42-1.02.42zM28.2 67.12h-8.22q-1.56 0-2.64-1.08-1.14-1.14-1.14-2.7V38.08q0-1.56 1.14-2.64 1.08-1.08 2.64-1.08h2.64V20.98h-6q-.6 0-1.02-.42-.42-.42-.42-1.02 0-.6.42-1.02.42-.42 1.02-.42h6v-5.82q0-.6.42-1.02.42-.42 1.02-.42.66 0 1.08.42.36.48.36 1.02v5.82h6q.66 0 1.08.42.36.48.36 1.02 0 .6-.36 1.02-.42.42-1.08.42h-6v13.38h2.7q1.56 0 2.64 1.08t1.08 2.64v25.26q0 1.56-1.08 2.7-1.08 1.08-2.64 1.08zM88.32 37.9q-.84 0-1.26-.72l-4.26-7.02-12.24 7.98q-.36.18-.78.18-.84 0-1.26-.6-.24-.54-.18-1.14.06-.6.6-.9l12.36-8.04-5.58-9.42h-5.94q-.66 0-1.02-.42-.42-.42-.42-1.02 0-.66.42-1.08.36-.36 1.02-.36h4.2l-1.26-2.16q-.3-.54-.12-1.14.06-.54.6-.84.54-.24 1.14-.18.54.18.84.66l2.16 3.66h10.98q.54 0 1.02.36.42.42.42 1.08 0 .6-.42 1.02-.42.42-1.02.42h-9.24l4.68 7.8 3.72-2.4q.48-.36 1.14-.24.6.18.9.66.24.48.18 1.08-.06.6-.6.9l-3.84 2.52 4.26 7.14q.24.54.18 1.08-.06.6-.66.9-.24.24-.72.24zm0 29.4H85.2q-1.56 0-2.64-1.08-1.14-1.08-1.14-2.64V45.16H75.9l-4.74 21.48q-.12.48-.48.84-.48.3-.9.3h-.18q-.06-.06-.12-.06-.66-.12-.96-.6-.3-.66-.18-1.14l4.62-20.82h-3.18q-.66 0-1.02-.42-.42-.42-.42-1.08 0-.6.42-1.02.36-.42 1.02-.42h18.54q.6 0 1.02.42.42.42.42 1.02 0 .66-.42 1.08-.42.42-1.02.42H84.3v18.42q0 .3.3.6.24.24.6.24h3.12q.6 0 1.02.42.42.42.42 1.02 0 .6-.42 1.02-.42.42-1.02.42zM60.66 40.9h-4.14v22.32q0 .84.84.84h5.1q.42 0 .66-.24.24-.24.24-.6v-47.7q0-.36-.24-.6t-.66-.24h-5.1q-.84 0-.84.84v22.5h4.14q.6 0 1.02.42.42.42.42 1.02 0 .6-.42 1.02-.42.42-1.02.42zm1.8 26.04h-5.1q-1.56 0-2.64-1.08-1.14-1.08-1.14-2.64v-47.7q0-1.56 1.14-2.64 1.08-1.08 2.64-1.08h5.1q1.5 0 2.7 1.08 1.08 1.08 1.08 2.64v47.7q0 1.56-1.08 2.64-1.2 1.08-2.7 1.08zM97.98 17.5q-.36 0-.72-.18l-6.36-3.48q-.48-.3-.66-.9-.18-.48.12-1.08.24-.54.9-.72.54-.06 1.08.18l6.36 3.48q.48.3.66.84.18.6-.12 1.14-.18.36-.54.54-.36.18-.72.18zm0 13.68q-.36 0-.72-.18l-6.36-3.48q-.48-.3-.66-.9-.18-.48.12-1.08.24-.54.9-.72.48-.18 1.08.12l6.36 3.54q.48.3.66.84.18.6-.12 1.14-.18.36-.54.54-.36.18-.72.18zm-6.24 36.48h-.12q-.06-.06-.18-.06-.6-.06-.9-.6-.36-.42-.24-1.08l5.28-27q.06-.54.6-.96.42-.24 1.08-.18.54.06.96.6.24.48.18 1.08l-5.22 27q-.3 1.2-1.44 1.2zm14.04-49.2q-.42.42-.42 1.08l-.42 14.22h8.94V18.04h-7.02q-.66 0-1.08.42zm20.04 49.44q-.78 0-1.26-.66l-8.04-12.84-7.92 12.84q-.36.66-1.26.66-.36 0-.72-.18-.6-.3-.66-.9-.06-.6.18-1.14l8.7-14.04-6-9.72q-.3-.42-.18-1.08.06-.6.66-.9.42-.24 1.08-.18.6.18.9.66l5.22 8.46 7.14-11.64q.06-.24 0-.42-.18-.18-.36-.18h-18.48l-.9 29.88q0 .6-.42 1.02-.48.36-1.02.36h-.06q-.6 0-.96-.42-.42-.42-.42-1.08l1.38-46.92q.06-1.74 1.38-3.06 1.26-1.26 3.06-1.26h7.02v-2.94q0-.66.42-1.08.42-.36 1.02-.36.54 0 1.02.36.42.42.42 1.08v2.94h5.94q1.62 0 2.7 1.08t1.08 2.7v7.92q0 .66-.42 1.08-.42.42-1.02.42-.66 0-1.02-.42-.42-.42-.42-1.08v-7.92q0-.42-.24-.66-.24-.24-.66-.24h-5.94v15.72h6.54q1.92 0 2.88 1.68.48.84.48 1.62-.06.84-.54 1.68l-7.92 12.9 8.82 14.04q.24.54.18 1.14-.06.6-.66.9-.36.18-.72.18zm18.6-49.32q-.6 0-1.08-.48l-4.44-4.5q-.48-.48-.48-1.08 0-.54.48-1.02.42-.42 1.02-.42.54 0 1.02.48l4.5 4.5q.42.42.42 1.02 0 .66-.42 1.08-.48.42-1.02.42zM135 17.5q-.48 0-.72-.18l-5.88-3.54q-.6-.3-.66-.9-.18-.48.12-1.08.3-.48.9-.66.6-.06 1.14.18l5.82 3.48q.54.3.72.9.06.66-.18 1.08-.48.72-1.26.72zm0 13.68q-.48 0-.72-.18l-5.88-3.54q-.6-.3-.66-.9-.18-.48.12-1.08.3-.48.9-.66.6-.06 1.14.18l5.82 3.48q.54.3.72.9.06.66-.18 1.08-.48.72-1.26.72zm-5.76 36.48h-.12q-.06-.06-.12-.06-.54-.06-.96-.6-.36-.42-.24-1.08l4.86-26.94q.06-.6.6-1.02.42-.24 1.08-.18.54.06.96.6.36.42.24 1.08l-4.86 27q-.12.48-.48.84-.48.36-.96.36zm11.16.42q-.6 0-1.02-.42-.42-.42-.42-1.08V21.16q0-.6.42-1.02.42-.42 1.02-.42.6 0 1.02.42.42.42.42 1.02v45.42q0 .66-.42 1.08-.42.42-1.02.42zm16.86-26.52h-4.5v13.26h4.5q.6 0 1.08.36.42.42.42 1.08 0 .6-.42 1.02-.42.42-1.08.42h-11.88q-.66 0-1.02-.42-.42-.42-.42-1.02 0-.66.42-1.08.36-.36 1.02-.36h4.5V41.56h-4.5q-.66 0-1.02-.42-.42-.42-.42-1.08 0-.6.42-1.02.36-.42 1.02-.42h4.5V25.36h-4.5q-.66 0-1.02-.42-.42-.42-.42-1.02 0-.6.42-1.02.36-.42 1.02-.42h11.88q.66 0 1.08.42.42.42.42 1.02 0 .6-.42 1.02-.42.42-1.08.42h-4.5v13.26h4.5q.66 0 1.08.42.42.42.42 1.02 0 .66-.42 1.08-.42.42-1.08.42zm2.52 26.1h-4.32q-.6 0-1.02-.42-.42-.42-.42-1.08 0-.6.42-1.02.42-.42 1.02-.42h4.32q.84 0 .84-.84V16.12q0-.84-.84-.84h-11.16q-.6 0-1.02-.42-.42-.42-.42-1.08 0-.6.42-1.02.42-.42 1.02-.42h11.16q1.62 0 2.7 1.08t1.08 2.7v47.76q0 1.62-1.08 2.7t-2.7 1.08zm17.52-46.44q-.36 0-.6.24t-.24.6v5.46q0 .84.84.84h13.02q.84 0 .84-.84v-5.46q0-.36-.24-.6t-.6-.24H177.3zm16.68 39.24q-.54 0-.9-.36l-9.36-7.98-9.3 7.98q-.36.36-.9.36-.66 0-1.14-.48-.36-.48-.3-1.08 0-.6.48-.96l9.72-8.34v-8.7q0-.6.42-1.02.42-.42 1.08-.42.6 0 1.02.42.42.42.42 1.02v8.7l9.72 8.34q.48.36.54.96 0 .66-.36 1.08-.48.48-1.14.48zm-.54-7.98q-.6 0-1.02-.42-.42-.42-.42-1.02V38.02q0-.42-.24-.66-.24-.24-.6-.24h-14.82q-.3 0-.54.24-.3.3-.3.66v13.02q0 .6-.36 1.02-.42.42-1.08.42-.6 0-1.02-.42-.42-.42-.42-1.02V38.02q0-1.5 1.08-2.7 1.08-1.08 2.64-1.08h14.82q1.56 0 2.64 1.08 1.08 1.2 1.08 2.7v13.02q0 .6-.42 1.02-.42.42-1.02.42zm-3.12-21.18H177.3q-1.5 0-2.64-1.14-1.14-1.14-1.14-2.64v-5.46q0-1.56 1.14-2.64 1.08-1.08 2.64-1.08h13.02q1.5 0 2.7 1.08 1.08 1.08 1.08 2.64v5.46q0 1.56-1.08 2.64-1.14 1.14-2.7 1.14zm-19.74-16.38q-.84 0-.84.84v47.1q0 .84.84.84h26.34q.84 0 .84-.84v-47.1q0-.84-.84-.84h-26.34zm26.34 51.72h-26.34q-1.56 0-2.64-1.08-1.08-1.14-1.08-2.7v-47.1q0-1.5 1.08-2.7 1.08-1.08 2.64-1.08h26.34q1.56 0 2.64 1.08 1.08 1.2 1.08 2.7v47.1q0 1.56-1.08 2.7-1.08 1.08-2.64 1.08zm40.68 1.02q-.54 0-.9-.36-.48-.36-.54-.96L231.54 22q-.12-.66.3-1.08.3-.36.96-.48.66-.12 1.08.24.48.48.54 1.02l4.62 44.34q.12.72-.24 1.14-.42.42-1.02.48h-.18zm-22.44.24h-.12q-.66-.12-.96-.48-.48-.48-.36-1.14l4.32-44.58q.06-.54.54-1.02.42-.3 1.02-.24.72.12 1.02.48.36.48.3 1.08l-4.32 44.58q-.06 1.32-1.44 1.32zm-6.42 0q-.6 0-1.02-.42-.42-.42-.42-1.02V25.78l-.96 2.34q-.36.96-1.32.96-.06 0-.54-.12-.6-.24-.84-.78t0-1.14l5.7-14.16q.24-.54.78-.78t1.08 0q.54.18.84.72.24.6 0 1.14l-1.86 4.62v47.88q0 .6-.42 1.02-.42.42-1.02.42zm24.84-10.14h-5.52v8.7q0 .6-.36 1.02-.42.42-1.08.42-.6 0-1.02-.42-.42-.42-.42-1.02v-8.7h-5.7q-.6 0-1.02-.42-.42-.42-.42-1.08 0-.6.42-1.02.42-.42 1.02-.42h5.7V17.5h-10.26q-.6 0-1.02-.42-.42-.42-.42-1.02 0-.6.42-1.02.42-.42 1.02-.42h10.26V11.5q0-.6.42-1.02.42-.42 1.02-.42.66 0 1.08.42.36.48.36 1.02v3.12h10.26q.66 0 1.08.42.36.48.36 1.02 0 .6-.36 1.02-.42.42-1.08.42h-10.26v37.32h5.52q.6 0 1.02.42.42.42.42 1.02 0 .66-.42 1.08-.42.42-1.02.42zm25.92 9.66h-16.86q-.6 0-1.02-.36-.42-.42-.42-1.02 0-.6.42-1.02.42-.42 1.02-.42h16.86q.84 0 .84-.84V46.24h-17.7q-.6 0-1.02-.42-.42-.42-.42-1.08 0-.6.42-1.02.42-.42 1.02-.42h17.7V25.66q0-.84-.84-.84h-16.86q-.6 0-1.02-.42-.42-.42-.42-1.02 0-.66.42-1.08.42-.42 1.02-.42h16.86q1.56 0 2.64 1.08 1.08 1.2 1.08 2.7v38.1q0 1.56-1.08 2.64-1.14 1.02-2.64 1.02zm23.28 0H266.7q-.66 0-1.02-.42-.42-.42-.42-.96 0-.66.42-1.02.36-.42 1.02-.42h16.08q.36 0 .6-.24t.24-.66V46.18q0-.84-.84-.84h-13.2q-1.5 0-2.64-1.14-1.14-1.14-1.14-2.64V25.48q0-1.56 1.14-2.64 1.08-1.08 2.64-1.08h16.08q.6 0 1.02.42.42.42.42 1.02 0 .6-.42 1.02-.42.42-1.02.42h-16.08q-.84 0-.84.84v16.08q0 .84.84.84h13.2q1.56 0 2.64 1.08 1.08 1.2 1.08 2.7V63.7q0 1.56-1.08 2.64t-2.64 1.08z"/></svg>