<svg viewBox="0 0 390 80" xmlns="http://www.w3.org/2000/svg"><path d="M43.44 30l-6.78.24v6.9l6.54-.12-.42 25.26-26.46.48-.36-25.14 6.54-.12v-6.84l-6.9.24-.18-9.6h7.08v-5.76l14.16 1.2v4.5h7.8L43.44 30zm3.12-13.92l27.06-.48v47.34l-11.88-.24.6-9.84-4.26.06-.54 9.78H44.28l2.28-46.62zm13.14 9.06l-.3 5.4 4.26-.06.3-5.4-4.26.06zm-1.08 18.54l4.26-.06.24-3.9-4.26.06-.24 3.9zm-25.14 3l-3.72.12-.06 6.42h3.78v-6.54zM99 31.2l11.82-1.2-2.1-3.72-9.48.06-.24-8.7h4.92l-1.2-2.1h13.14l1.5 2.22 16.74.06-.48 8.22-10.56.12 1.74 2.46 8.52-.84.84 8.04-4.14.48 2.46 3.6-16.02.24-1.2-2.16-15.42 1.8L99 31.2zM75.66 62.7l.3-46.68 22.02-.06v46.86H75.66l.06-.12h-.06zm12.36-28.26h2.64l.06-9.18-2.58.06-.12 9.12zm42 15.24v4.5h4.2l-.66 8.28-14.52.42V49.8h-1.8l-7.14 13.08H98.82l4.08-12.9-2.94.06-.18-8.64 34.44-.06-.78 8.28-3.42.06zm-39.48-5.82l-2.64.06-.18 9.48h2.7l.12-9.54zm104.22 9.42l-1.5 9.66-11.52-4.5-4.68 4.5h-11.88l7.2-8.22-4.14-1.62 1.44-8.28-1.74.06-2.88 18.06h-12.72l1.44-19.2-5.7 19.02h-12.72l4.5-22.68 14.1.9 1.56-21.3 16.5.12.06-4.26 12.3.72-.06 3.6 9.96.06v13.8h-8.52l.06-4.68h-1.74l-.18 6.48 9.36.06.3 11.46-4.38 4.2 5.58 2.04zM153 25.74l-13.86.42-3.78-10.44 14.7-.18 2.94 10.2zm0 12.6l-13.86.42-3.78-11.04 14.7-.18 2.94 10.8zm17.4-9.18l-.96 6.24 2.4.06.06-6.3h-1.5zm1.08 15.66l7.26 2.64 2.46-2.76-9.72.12zm83.04-8.46l-.3 8.88-8.52.06v17.58h-13.14V45.42l-14.34.12-5.46 17.22H199.2l3.36-17.1-6.84.06v-9.9l8.76.06 1.92-9.84-7.86.18v-9.9l54.54.54-1.14 8.28-6.24.12V36.3l8.82.06zm-33.3-.3l11.34.12V25.56l-8.04.12-3.3 10.38zm67.44-15.84l-.12 32.82 17.82.06-1.2 9.54H272.7l.06-32.46-4.62 32.22-12.78.24 1.68-42.06 15.78.54V17.7l15.48.48-.48-2.76 14.22.18 2.1 33.66-10.38.24-5.1-29.28zm24.36-2.64l1.74 44.88-7.38.18-3.6-45.24 9.24.18zm21.78-1.44l-6.96 17.46 3.78.24v28.98h-12.78v-27.3h-3.48l4.68-19.98 14.76.6zm39.78 30.72l-1.62 10.32-6.18-5.28-1.5 6.78-4.5.18v3.96h-12.24v-3.36l-2.94.12v-8.7l-2.52 11.94h-10.32l5.52-31.14-4.44.06v-9.9l14.7.06v-6.36l12.24.78v5.7l12.84.06-.78 9.06-12.06.18v3.66l13.8 11.88zm-28.92 3.84l2.88.06V36.9l-2.88 13.8zm15.12.18l4.86.06-4.86-4.14v4.08z"/></svg>