<svg viewBox="0 0 401 80" xmlns="http://www.w3.org/2000/svg"><path d="M35.86 59.4h-5.88v-2.94h-6.06v5.34h-5.88V38.34l5.76 1.2v-13.5h-7.74l-.3-1.2h8.04v-12.3l5.88 1.2v11.1h7.86v1.2h-7.86v13.5h.3l5.88-1.2V59.4zm14.28-43.2l5.58-1.14V60q0 1.92-1.23 3.15t-3.03 1.23L44.8 60l.06-.54 4.98.3V44.64h-4.68q-.36 7.14-2.7 12.06-2.34 4.92-7.5 9.18l-.66-.54q2.34-3.48 3.69-8.97t1.35-12.15V15.06l5.58 1.14h5.22zm-.3 1.2h-4.62v12.42h4.62V17.4zm-4.68 26.04h4.68V31.02h-4.62v10.32q0 1.44-.06 2.1zM23.92 55.26h6.06V40.74h-6.06v14.52zm55.38-14.7q4.98-2.94 9.9-7.8-3-4.14-4.14-10.98l-5.46.9-.24-1.14 5.52-.9q-.6-3.42-.66-7.32l5.46 1.02q.06 2.28.42 5.46l14.82-2.4.24 1.14-14.88 2.4q.84 4.8 2.7 7.68 3.36-4.2 5.16-7.62l4.74 2.7q-3.18 4.68-7.02 8.1 2.34 1.68 5.94 2.4l1.92-5.64.72.06 1.98 6.84q0 1.8-.99 2.97-.99 1.17-2.73 1.23-2.58.12-5.67-.84t-5.67-3.54q-5.22 3.54-11.64 5.94l-.42-.66zm-.36 15.36h-5.7V51.9h-2.46v5.82h-5.7V17.46l5.4 1.14h3.06l5.4-1.14v38.46zm-5.7-21.24V19.74h-2.46v14.94h2.46zm-2.46 16.08h2.46V35.82h-2.46v14.94zM105.1 54l2.1 7.44q-.72 3.06-4.86 3.06H98.2q-2.34 0-3.33-.36-.99-.36-1.41-1.68-.42-1.32-.42-4.5V43.5H90.7q-.18 8.22-3.3 13.53-3.12 5.31-10.14 8.91l-.42-.54q3.78-3.48 5.85-8.49t2.13-13.41h-5.28l-.3-1.2h26.34v1.2h-6.66v14.58q0 .96.24 1.23t1.08.27h2.1l2.16-5.76.6.18zm38.58-1.92q4.38 3.96 11.28 7.74l-2.76 4.38q-6.9-4.2-11.04-9.12-5.46 6.18-14.64 10.56l-.36-.48q3.84-3.12 6.96-6.24t5.7-6.9q-4.56-6.78-5.94-15.6h-1.8l-.12 3.3q-.18 7.5-2.4 13.68-2.22 6.18-7.14 12.66l-.6-.36q2.34-6 3.36-12.27t1.14-13.83q.18-5.34.18-20.16l5.76 1.2h5.58V12.9l5.88 1.2v6.54h5.64l.18-1.8 6.06 1.5q-1.08 2.46-2.97 4.95-1.89 2.49-4.17 4.35l-.54-.3q.78-3.12 1.26-7.5h-5.46v13.38h3.06l5.64-1.2q-2.28 10.62-7.74 18.06zm-20.16-30.36l-4.92 3.54q-1.08-2.46-2.76-5.64-1.68-3.18-2.82-5.04l.36-.6q2.82 1.32 5.7 3.51 2.88 2.19 4.44 4.23zm7.74.12v3.6q0 3.66-.12 9.78h5.7V21.84h-5.58zm-9.66 11.64l-4.8 4.02q-.96-2.58-2.55-5.94-1.59-3.36-2.73-5.34l.36-.54q2.28 1.02 5.19 3.3 2.91 2.28 4.53 4.5zm1.26 1.38l.6.18q-.9 7.98-2.79 15.87-1.89 7.89-4.05 12.99l-4.8-3.42q5.58-9.54 11.04-25.62zm10.68 1.56q1.86 6.9 7.08 12.72 3.42-5.94 4.92-12.72h-12zm50.52-3.36h18.06v1.2h-41.76l-.3-1.2h18.12v-6h-13.92l-.3-1.2h14.22V20.1h-15.96l-.3-1.2h16.26v-5.76l5.88 1.2v4.56h16.2v1.2h-16.2v5.76h14.16v1.2h-14.16v6zm6.18 5.52l5.76-1.2.12 22.92q0 2.28-1.65 3.75-1.65 1.47-3.99 1.47l-6.78-4.32.06-.78 6.48.18v-6.78h-18.3v11.4h-5.88V37.38l5.88 1.2h18.3zm0 1.2h-18.3v5.82h18.3v-5.82zm-18.3 12.84h18.3V46.8h-18.3v5.82zm78.42-4.98v1.2H235.3v16.38h-5.88V48.84H208.3v-1.2h7.44V30.42l5.88 1.2h7.8V20.76h-9.06q-3.84 9.66-11.28 16.44l-.6-.48q2.76-4.8 4.89-11.34t3.15-12.84l6.12 1.02q-.78 3.12-1.8 6h28.26v1.2h-13.8v10.86h12.06v1.2H235.3v14.82h15.06zm-28.74 0h7.8V32.82h-7.8v14.82zm41.52-25.08q.18 1.08.18 2.28 0 2.34-.69 4.41-.69 2.07-2.07 3.39l-4.92-3.6q2.28-1.74 3.75-4.8 1.47-3.06 1.59-6.36l.54-.06q.96 1.68 1.38 3.54h14.28q-1.26-2.34-3.06-4.65-1.8-2.31-3.48-3.75l.24-.48q2.94.42 5.97 1.83 3.03 1.41 4.89 3.39l-3.84 3.66h13.62q.18-1.44.18-2.64l6.6 2.16q-.96 3.24-3.45 6.6-2.49 3.36-5.25 4.98l-.48-.36q.72-1.44 1.32-4.08.6-2.64.96-5.46h-28.26zm18.78 14.64q3.96 10.38 16.32 20.7l-3.36 4.2q-4.86-4.8-8.43-10.62-3.57-5.82-5.37-14.28H280v27.3h-5.88V42.36q-2.94 6.06-7.5 11.43-4.56 5.37-10.8 9.45l-.3-.42q9.48-11.4 14.52-25.62h-13.02l-.3-1.2h17.4v-9.48l5.88 1.2V36h17.82v1.2h-15.9zm75.12 9.48l-4.14 2.64q-.42-5.58-1.68-10.44v26.34h-5.46v-21.3q-2.28 6.72-6.3 12.9l-.48-.3q3-9.9 4.68-22.44h-3.48l-.3-1.2h5.88v-3.66l-3.54 1.32q-.3-3.12-.96-6.66-.66-3.54-1.44-6.18l.42-.24q3.9 4.32 5.52 8.88V12.78l5.46 1.2v13.86q1.26-5.28 1.86-10.92l4.74 1.14q-.72 2.88-2.49 6.24-1.77 3.36-4.11 6.36v2.22h5.52v1.2h-5.52v2.58q4.38 4.86 5.82 10.02zm21.66 16.26h4.8v1.2h-29.52l-.3-1.2h4.92V15.3l5.88 1.2h8.34l5.88-1.2v47.64zm-5.88-45.24h-8.34v13.68h8.34V17.7zm-8.34 14.88v14.34h8.34V32.58h-8.34zm0 15.54v14.82h8.34V48.12h-8.34z"/></svg>