<svg viewBox="0 0 440 80" xmlns="http://www.w3.org/2000/svg"><path d="M45.82 30.28q0-.3.18-1.08.6.12 1.08 0 .48-.12.9-.42 1.14-.6 2.19-1.32 1.05-.72 2.13-1.32 1.02-.6 1.98-1.11l1.98-1.05q.3-.18.57-.33.27-.15.69-.27.54 0 .48-.54.6 0 1.08-.36.36-.3.84-.48t1.08.06q.42.18.81.15.39-.03.75.09.42.18.81.3.39.12.75.24 0 .42.12.54l.06.12q-.06.6.24.9-.18.36-.39.24-.21-.12-.39 0-.18.42-.36.81-.18.39-.36.75-1.02 2.64-1.38 5.58-.18 1.14-.3 2.28t.06 2.28q.06.54.06 1.11v1.11q.12.78.15 1.47t.15 1.47q.12.84.18 1.62.06.78.24 1.68.18.78.27 1.56.09.78.27 1.56.24 1.14.39 2.34.15 1.2.39 2.4.18.72.06 1.29-.12.57-.42 1.23-.18.42-.6.54-.42.12-.84-.18-.12-.18-.3-.48-.72.42-.87.69-.15.27.03 1.11-.42-.24-.78-.3-.36-.06-.72-.48-.24-.24-.48-.42t-.36-.48q-.48-.18-.6-.54-.12-.36-.3-.72-.12-.42-.33-.69-.21-.27-.33-.63-.24-.9-.9-1.26h.48q.18-.54.3-1.05t.42-.99q.12-.24.09-.54-.03-.3-.03-.6-.06-1.02-.09-2.04t-.15-2.04q-.06-.78-.09-1.47t-.03-1.41q-.54-.18-1.02.3-.72.54-1.8.78-.42.18-.87.24t-.93.24q-.6.12-1.29.33-.69.21-1.29.39-.72.18-1.38.51-.66.33-1.32.57-.24.12-.45.21-.21.09-.51-.21-.42-.3-.45-.36-.03-.06-.15-.42-.36.3-.36.6v.72q0 1.5-.66 2.28-.42.12-.54-.12l-.24-.48q-.72 0-.78.66 0 .24-.09.48t-.27.54q-.12-.12-.24-.15t-.18-.09q-1.2-1.2-1.68-2.76-.06-.06-.06-.3 0-.54-.12-.69-.12-.15-.66-.33l-.3-.12q.12-.12.3-.24.24 0 .42-.12-.12-.12-.24-.6.24.06.54.06-.24-.78.36-1.62.3-.6.96-1.26.12-.12.21-.33.09-.21.27-.45.12-.3.24-.57.12-.27.18-.69.12-.18.12-.48t.12-.6q.24-.84.57-1.74.33-.9.33-1.92 0-.36.06-.81.06-.45.18-.87.06-.6-.09-.78-.15-.18-.81-.18-.78.18-1.32.18.18-.12.21-.15t.21-.09q.36-.18.75-.33.39-.15.81-.33 1.14-.6 2.4.18.18.12.21.3t.15.3q.36.54.42 1.05t.18 1.17v1.86q.42-.18.78-.3.84-.48 1.77-.99t1.77-.99q1.02-.54 2.01-.9.99-.36 2.07-.72.54-.18 1.05-.3t1.05-.48q.42-.24.42-.66 0-.36.03-.78.03-.42.09-.84 0-.24.03-.48t.03-.54q-.6.3-1.14.54-.54.24-1.02.54-2.04 1.14-3.6 2.22-.3.12-.54.3-.24.18-.54.3-.36.18-.81.33-.45.15-.81.33-.54.12-1.05.18t-1.05-.36l-.72-.48h-.42q.24-.66-.36-.6zm11.1 3.9q-.9-.18-1.5.36-.18.12-.21.12t-.21.06q-.42.36-1.02.57-.6.21-1.08.57-1.08 1.02-1.98 2.07-.9 1.05-1.74 2.19-.06.06-.06.36.66-.12 1.32-.33.66-.21 1.32-.39.84-.18 1.65-.42.81-.24 1.59-.72.18-.18.36-.18t.36-.06l.3-.18.36-.12q.18-.06.36-.18.06-.84.06-1.77t.12-1.95zM46.3 41.5q-.18-.84.18-1.05.36-.21.9-.21h.24q.36 0 .72-.3.36-.36.72-.81.36-.45.72-.81.72-.9 1.41-1.77t1.47-1.77q.12-.06.24-.36h-.24q-1.68.54-3.09 1.47-1.41.93-2.97 1.77-.24.96-.42 1.92t-.42 1.98q.24-.06.54-.06zM23.2 25.12q.6-.18 1.11-.36.51-.18.99-.36 1.74-.42 3.54 0 .96.36 1.41 1.08.45.72.69 1.68.3 1.02.36 1.86.42-.06.69-.06.27 0 .63-.12 1.32-.18 2.67-.42 1.35-.24 2.67-.48 1.02-.24 1.98-.48t1.92-.36q.36-.12.57-.36.21-.24.57-.12h.24q-.18.36-.48.57-.3.21-.54.45-.3.3-.57.54-.27.24-.57.54.06.12.09.24t.15.3l-.18.18q-.72.36-.78.96 0 .18-.18.36-.3.36-.36.84-.42.18-.72.36t-.6.42q-.24.18-.45.45-.21.27-.33.51-.24.18-.72.84.18.06.42.06 1.2.06 2.22 1.08.12 0 .12.06t.06.06q.9.24.78 1.14 0 .24.15.45.15.21.33.39l-.18.18q.24.42.42.78-.42.24-.78.39-.36.15-.66.39-.3.3-.48.84-.3.66-.54 1.29-.24.63-.48 1.23-.3.84-.54 1.77-.24.93-.42 1.83-.18.3-.18.57v.51q0 .36-.06.48-.42.12-.42.51t-.12.81q-.48.06-.9-.3-.36-.48-.72-.42t-.54.66q-.18.3-.3.6 0 .18-.03.33-.03.15-.03.39-.18-.18-.24-.21t-.18-.15q-.36-.6-.84-1.14-.48-.54-.84-1.2-.3-.3-.24-.78 0-.18-.21-.27-.21-.09-.39.09-.72.54-1.53.96-.81.42-1.53 1.02-.54.54-1.2.75-.66.21-1.38.39-.24.06-.51-.03t-.57-.15q-.12.54-.18 1.05t-.24 1.05q-.12-.18-.48-.3-.78-.54-.9.36v.48q0 .24-.06.42-.36.12-.51-.06-.15-.18-.27-.36-.24-.3-.48-.54-.24-.24-.48-.54-.24-.06-.24-.42-.18-.84-.57-1.59-.39-.75-.93-1.41-.06-.12-.06-.15t-.06-.09q.24-.3.78-.84.48-.48.6-1.26.06-.66.15-1.32t-.09-1.26q-.3-1.08-1.2-1.2-.96-.06-1.92.54-.3.36-.54.42-.24.18-.57.27-.33.09-.75.27.18-.3.24-.54.06-.24.24-.42.54-.6.24-1.32v-.06q0-.06.03-.12t.03-.12q.18 0 .24.03t.24.03q.24 0 .42-.03t.18-.39q0-.36.42-.36.48-.12.9-.21.42-.09.9-.15.84-.06 1.59-.45.75-.39 1.47-.81.36-.12.66-.42.3-.3.72-.6.36-.36.36-.66 0-.6.6-.96.42-.42.36-.96-1.56-.42-3.3.18-.6.24-1.14.51-.54.27-1.2.57-.36.24-.6.51t-.24.75q0 .24-.24.48-.36.24-.69.51-.33.27-.75.27-.18 0-.39.03-.21.03-.33.03-.24-.72-.21-1.5t.15-1.56q.06-.24.33-.39.27-.15.09-.51.12 0 .18-.12l.24-.18q.6-.42 1.32-.84.72-.42 1.32-.9l.48-.36q.24-.18.6-.18.18 0 .3-.18.42-.36.84-.63t.84-.69q.36-.3.66 0 .42.3 1.02.18.9-.24 1.68-.45.78-.21 1.62-.45.36-1.56 0-3.24-.06-.3-.48-.54-.54-.3-1.08-.51-.54-.21-1.2-.21-.36.06-.84.03t-1.08-.03zm1.14 19.98q1.2.06 2.16-.33.96-.39 1.86-.75l1.86-.87q.96-.45 1.8-.93.3-.12.48-.48.3-.6.36-1.17t.42-1.17q.12-.24.09-.48t.03-.6q-.48.12-.9.3-.42.18-.78.3-1.2.42-2.34.75t-2.22.75q-.6.12-1.11.51-.51.39-1.11.27-.12 0-.12.03t-.06.03q-.54.3-1.02.42-.18.9.18 1.74t.42 1.68zm7.68-10.14v-.18q-.48 0-.99-.03t-.99-.09q-.12.3-.27.54-.15.24.03.6.6-.24 1.14-.42.54-.18 1.08-.42zm-7.56 3.72l-.12-.12q-.3.12-.54.24-.24.12-.54.3-.3.06-.57.15-.27.09-.45.39l.36.12q.9-.36 1.86-1.08zm101.34 8.16q.36-.78.6-1.53t.48-1.53q0-.06-.03-.15t-.03-.21l-.18.06q-.06 0-.06.06-.78 1.92-3 3.12-.06.12-.15.15t-.15.09q-1.32.78-2.73 1.38-1.41.6-2.97.84-.84.24-1.56.24-.9.06-1.8.06t-1.86.06h-.6q-1.5.18-2.58-.12.12-.54.24-1.02l.24-.96q.12-.72.18-1.41t.12-1.41q.12-1.2-.42-2.16-.06-.18-.09-.33-.03-.15-.21-.27.54-.12 1.02-.15t.96-.09q.3-.12.6-.15t.54.03q.42.18.72.06t.72.12h.06q.06 0 .12-.06.36-.18.63-.18t.63-.06q.42 0 .87-.06t.93-.12l-.12-.3q.3-.18.6-.24t.48-.24q.36-.36.78-.48.3-.06.6-.36t.3-.48q0-.72.54-.84.18 0 .18-.18-.06-.3.21-.45.27-.15.51-.39-.42-.24-.27-.51.15-.27.33-.51-.54-.18-1.02-.33-.48-.15-1.02-.27-.48.18-.75.24t-.81-.06q-1.02-.06-1.95-.06-.93 0-1.83-.12-1.8-.12-3.54-.48-1.02-.18-1.38-.78.36-.42.72-.87t.72-.87q.18-.12.3-.36t.18-.42q.3-.78 1.2-.84.78-.18 1.08-.54.84-.9 1.62-1.71.78-.81 1.56-1.65.18-.24.66-.54.3-.48.3-.66.12-.42.48-.6.12-.18.18-.3h-.3q-.36.3-.87.42t-1.05.24q-.96.24-1.92.51t-1.92.45q-1.26.18-2.49.36-1.23.18-2.49.36-.66.06-1.23.09t-1.17.15q-.12-.42-.18-.84t-.06-.84q-.18-1.98-.78-3.78-.42-.78-.96-1.35-.54-.57-1.14-.99-.6-.24-1.02-.18.12.18.33.3.21.12.33.24-.36 0-.69-.06-.33-.06-.63.06.3.18.54.21.24.03.42.21.6.36.81.84.21.48.27 1.02.06 1.14.15 2.37.09 1.23.15 2.37v.72q-.6.06-1.08.09-.48.03-1.02.15-.36.06-.69.15-.33.09-.69.21-.42.3-.87.54-.45.24-.87.48-.84.54-1.71.99-.87.45-1.53 1.05-.18 0-.24.06.06-.36.06-.72t.18-.66l.24-.84q.12-.42.54-.78.84-.9-.48-1.56l-.96-.48q-.48-.24-1.02-.54-.66-.36-1.56.06-1.02.36-1.8.6-.36.18-.72.21t-.72.21q-1.8.48-3.33 1.32-1.53.84-2.85 1.92l-1.62 1.2q-.48-.6-1.2-1.05-.72-.45-1.5-.69-1.14-.36-1.95-.36t-1.23.3q.78.54 1.8.78 1.08.18 1.2.96.18.66.18 1.38.18 1.8-.21 3.51-.39 1.71-.69 3.45-.06.6-.24 1.26t-.3 1.32q-.18.42-.33.93-.15.51-.75.93l-.24.24-.48.9q-.3.42 0 .72.12.18.18.24t.18.24q.66.6.66 1.32.06.18.15.33.09.15.15.27.18.24.48.9.06.06.06.15t.06.15q.42.12.78.33.36.21.72.39.54-.24.69-.3.15-.06.81-.06.12 0 .18.06t.12.06q.36-.12.75-.3t.39-.42q0-.72.9-1.2.48-.3.9-.6.42-.3.96-.54.78-.42 1.59-.84t1.71-.9q-.36.9.06 1.2.72.54.9 1.62 0 .42.66.78.84.66 1.14 1.26 0 .06.36.36.3-.54.45-.6.15-.06.75.06.42.12.72.15t.6.03q.42 0 .42-.3 0-.48-.03-.96t-.15-.9q0-.18-.03-.33-.03-.15-.03-.33 1.2.18 1.98-.3 1.14-.6 2.31-1.23 1.17-.63 2.37-1.29.42-.24.9-.42.48-.18 1.02-.42-.18.24-.27.39-.09.15-.27.33l-3.3 4.2q-.6.72-1.2 1.41t-1.2 1.41q-.24.24-.48.51t-.6.39q-.84.48-.84 1.26.06.48.03.99t-.21.99q-.06.24-.15.51t.39.39v.24q.12.54.48.78.12 0 .12.24 0 .42.21.63.21.21.45.57.6.6 1.2-.12.36-.36.51-.42.15-.06.63.12.42.18.66-.24.12-.12.12-.21t.06-.27q.36-.84.66-1.74.3-.9.84-1.74.36-.72.57-1.41.21-.69.57-1.41.66-1.14 1.14-2.28.48-1.14 1.38-2.22.24-.42.42-.72t.42-.72q.3-.54.63-.99.33-.45.69-1.05.42-.54 1.02-.75.6-.21 1.26-.63 0 .18.03.24t-.03.24q-.3 1.32-.87 2.64-.57 1.32-1.23 2.58-.12.18-.21.21t-.27.15q-.18.18-.3.27-.12.09-.18.21-.12.48-.48.42l-.12.06q0 .42-.27.57-.27.15-.63.39-.42.36-.12.84.36.36.48.84l.24.96q.06.24.12.54.06.3.3.48.36.12.45.39.09.27.27.51l.24.48h.18l.06-.06q.36-.42.48-.36t.54.3q.36.12.81.12.45 0 .81.06.06 0 .24-.12.06-.18.24-.3.54.06 1.02.09t1.02.15q.12.06.24.06t.3.12q.36.24.84.33.48.09.96.15 1.14.3 2.4.39 1.26.09 2.52.15 2.4.18 4.68-.54 1.68-.54 2.88-1.44.12-.18.24-.27.12-.09.18-.33.18-.18.39-.42.21-.24.33-.54.18-.42.48-.81.3-.39.24-.93-.06-.42 0-.81.06-.39.12-.75.12-.42.12-.69 0-.27.06-.63 0-.18-.06-.24-.48-.42 0-1.02zm-45.66-3.66q.24-1.86.9-3.18.18-.48.84-.9.72-.42 1.41-.87t1.47-.93q-.06.24-.72 1.11-.66.87-1.44 1.89-.78 1.02-1.5 1.86-.72.84-.96 1.02zm6.36-1.86q-.18.36-.48.48-.9.36-1.62.75-.72.39-1.62.81-.54.3-1.62.54 1.2-1.5 2.49-2.82 1.29-1.32 3.03-2.34.12.06.18.06-.18.66-.24 1.26t-.12 1.26zm2.88-12.72q-.24.78-.51 1.56t-.45 1.62q-.24.96-1.26 1.32-3.18 1.08-5.82 2.82-.18.18-.66.42-.12-.48-.12-.6-.18-.66-.33-1.41-.15-.75-.33-1.47-.12-.42.36-.54 1.44-.6 2.52-1.44.66-.48 1.44-.81.78-.33 1.62-.69.54-.24 1.05-.45.51-.21 1.05-.33.42-.18.72-.21t.72-.21v.42zm10.56 6.3q-.12-.12-.27-.12-.15 0-.33-.12-.06.78-.33 1.44-.27.66-.27 1.38 0 .24-.09.42t-.09.42q.06.48.15.99t.15 1.11q-.06.12-.12.12-1.26.54-2.52.99-1.26.45-2.4 1.05-.66.18-1.17.24-.51.06-1.11-.06 0-.42-.03-.81-.03-.39.33-.75.18-.12 0-.36-.24-.3-.24-.57 0-.27.12-.51.06-.9.15-1.68.09-.78.21-1.62.18-.06.24-.09t.24-.15q.3 0 .39-.12.09-.12.21-.24.48-.9 1.2-1.5t1.5-1.26q.3-.24.6-.36t.72-.24q.78-.24 1.5-.51t1.62-.27q.6 0 1.29.06.69.06 1.41.18.42.9.78 2.04l-.84.42q-.42.18-.72.3t-.72.24q-.54.36-.75.36-.21 0-.81-.42zm.96 4.74q.18-.78.78-.84 1.08-.12 1.92-.6.84-.48 1.68-1.02.06-.06.12-.06.42.36.81.66.39.3.75.72-1.56.3-3.03.57-1.47.27-3.03.57zm6-7.8v-.06l-.12.06h-.12q-.06 0-.09-.06t.09-.06l1.32-.36q.66-.18 1.26-.36.06 0 .12.03t-.06.03q-.36.66-1.11 1.2-.75.54-1.29-.42zm43.08 7.14l-.24.48q-.06.18-.06.33 0 .15-.06.27-.54.18-.75.33-.21.15-.99.99-.3-.3-.36-.42-.18-.42-.33-.81-.15-.39-.21-.75-.18-1.8.36-3.3 0-.24.48-.36 1.5-.9 2.1-2.82.78-2.1.72-4.38 0-.24-.09-.48t-.15-.48q-.12-.6-.78-1.02-.9-.18-1.68-.66h1.38q-.12-.18-.24-.66.6-.12 1.14-.12.54 0 1.2.12 1.38.48 1.56 1.98.06.48.06.93 0 .45.06.93 0 .18.06.36t.06.42q.42-.18.78-.3.84-.42 1.62-.87.78-.45 1.62-.93l.96-.48q.48-.24 1.02-.48.36-2.34-.36-4.26-.06-.42-.54-1.02-.06-.18-.15-.24t-.09-.24q.12-.36-.09-.6t-.33-.54q-.12-.18-.12-.48.18.06.27.03.09-.03.15.03.12 0 .24.09t.3.15q.78.18 1.2.69.42.51.66 1.11.66 1.62.66 3.18 0 .3.03.63t.33.69q.24-.06.51-.09t.51-.21l1.68-.48q.84-.24 1.68-.42.6-.18 1.26-.3t1.32-.18q1.68-.18 3.12.66 1.32.72 1.08 2.28-.18 1.26-.78 2.28-1.08 1.68-2.58 2.7-.18.18-.33.27-.15.09-.27.21-.42.42-.84.72t-.9.48q-.36.12-.69.39-.33.27-.69.51-.48.24-.96.51t-1.08.45q-.18 0-.24.06l-.24.24q.18.24.42.48 1.38 1.38 1.08 3.24-.18.78-.45 1.5t-.57 1.44q-.18.3-.21.54-.03.24-.21.54.18.12.42.3t.36.3q1.56 1.08 3.21 2.04t3.45 1.56q1.5.54 2.94.9t3 .42q1.38.06 2.79.18 1.41.12 2.73.3.54.06 1.05.03t.99-.03q.3-.06.57-.06.27 0 .51-.12.72-.06 1.38-.15.66-.09 1.32-.39-.12.42-.45.57-.33.15-.51.27-.24.12-.9.24-.36.24-.54.66l-.12.06q.06 0 .12-.06h.84q-.6.54-1.23.9t-1.23.72q-.42.3-.72.57-.3.27-.54.69l-.72.72q-.12.12-.18.39t-.36.39q-.12.12-.12.36.06.3.06.57 0 .27.06.69-.12 0-.3.03t-.3.03q-.78-.06-1.56.72-.18.24-.78.54l-.57.57q-.27.27-.69.57-.18-.06-.39-.06-.21 0-.45-.06-.48-.18-.96-.18t-1.02.12q-1.68.06-3.42-.66-.6-.24-1.11-.48-.51-.24-.99-.6-.96-.6-1.89-1.2-.93-.6-1.77-1.32-2.04-1.44-3.78-3.48-.6-.72-1.23-1.41t-1.23-1.41q-.24 0-.39.12-.15.12-.33.3-.6.36-1.26.84t-1.32.84q-1.32.84-2.64.18-.18-.12-.33-.12-.15 0-.27-.06l-.96-.48q-.48-.24-.72-.78-.06-.12-.36-.42.06-.18.06-.21t.06-.21q-.18-.24-.48-.48t-.6-.54v-.9q.24-.42.72-.12.6.54 1.26-.06.12-.24.66-.06.42.12 1.02.42 1.32.9 2.82 0 .42-.18.72-.36t.6-.54q-.12-.24-.18-.45-.06-.21-.18-.33-.42-.54-.78-1.02-.3-.42-.66-.69-.36-.27-1.02-.33-.3-.06-.57-.18-.27-.12-.63-.3-.36-.06-.36-.3t-.06-.36q0-.18.42-.42.06-.36-.15-.57-.21-.21-.27-.45.06-.3.06-.54 0-.24.18-.54.06-.24.18-.48l.24-.48q.12-.36.33-.45.21-.09.45-.21.6-.36.84-.54 2.4-2.52 3.36-6.06.12-.36.3-.84t.18-.84q-.36-.24-.6 0-.42.24-.9.51-.48.27-.96.57-.36.24-.75.42t-.87.3q-.72 0-1.32.6-.18.84-.36 1.62l-.36 1.56q-.12.24 0 .48.18.66-.36 1.2-.24.24-.48.45-.24.21-.54.45-.66.42-1.2 1.26zm18.9-11.76q-1.32-.42-2.88-.18-1.32.24-2.55.6-1.23.36-2.31.96-.3 1.2-.54 2.28-.24 1.08-.54 2.16.48-.12.81-.18.33-.06.75-.18 1.08-.42 2.13-.93 1.05-.51 2.07-1.11 1.56-.96 2.4-2.1.6-.6.66-1.32zm-8.28 15.6q1.2-1.32 1.38-2.88.12-.18.06-.24t-.06-.24q0-.72-.84-.84t-1.62.06q-.78.18-1.56.6-1.32.72-2.4 1.74-.12.06-.18.36 1.38-.06 2.64.33 1.26.39 2.58 1.11zm-2.16-6.72l.06.06q.72-.12 1.41-.18t1.29-.18q-.42-.06-.9-.03-.48.03-.96-.15-.66-.12-.9.48zm-14.52 2.1q-.42.42-.75.72t-.75.54l-.3.18q-.54.42-1.14.69-.6.27-1.2.63-.96.3-1.86 1.2-.42.36-.69.57-.27.21-.63.57-1.14 1.02-2.1 2.46.18.12.54.24.9.06 1.98-.3.9-.3 1.71-.63.81-.33 1.65-.63.48-.12.9-.33.42-.21.9-.39.96-.18 1.44-.84.54-.6 1.02.24.12.3.33.63.21.33.33.69.18 0 .33-.03.15-.03.33-.03l.06.12q-.24.36-.48.63t-.12.63q-.48.9-1.11 1.62-.63.72-1.47 1.14-1.14.48-2.46.66-.6.18-1.14.18-.54 0-1.2.06-.78.18-1.47.3t-1.47.24q-.3.12-.54.18-.24.06-.54.18-.48.12-1.08 0-.24-.42-.33-.87-.09-.45-.27-.87-.12-.3 0-.6.18-.42.18-.81v-.75q0-1.32 1.02-1.68.54-.12.9-.36t.72-.66q.66-.6 1.17-1.17.51-.57 1.05-1.23.12-.12.12-.21t.18-.27q-.78 0-1.32.27t-1.2.51q-.48-.24-.48-.66v-.9q0-.42.18-.9.18-.54 0-.9-.24-.6.48-.9.48-.18.78-.48.3-.3.6-.72.42-.36.75-.78.33-.42.75-.84.18-.24.36-.51t.24-.63q-.12.06-.27.06-.15 0-.33.06-1.38.66-2.28.27-.9-.39-1.62-1.29-.42-.54-.75-1.08t-.75-1.14q-.66-.96.12-2.04.42-.9 1.44-.66.66.24 1.32 0 1.2-.36 2.4-.75t2.4-.81q.42-.12.87-.39t.93-.45q1.08-.48 2.1.18.3.24.6.3t.72.24q.48.12.96.33.48.21 1.08.33.66.36 1.08 1.2.06.24.15.48t.15.48q.24.66-.42 1.2-.18.18-.48.33-.3.15-.3.57-.36.12-.66.24-.3.12-.72.3-.6.12-1.17.21t-1.11.27q-.54.12-.99.33-.45.21-.93.45-.3.12-.57.24-.27.12-.51.3-.36.12-.42.24-.84.78-1.62 1.47-.78.69-1.62 1.41-.36.3-.57.6-.21.3-.45.6.24.36.54.18l1.62-.72q.48-.12.54-.54.24-.48.84-.6.48-.18.96-.24t.96-.06q.54 0 .99.15.45.15.87.27.36.18.45.57.09.39-.15.81-.06.12-.15.24t-.15.3q-.06.06-.03.18t.03.18zm-1.8-.54h.06q.18-.3.36-.45.18-.15.54-.51-.18.6-.27.69-.09.09-.69.27zm7.62 1.8l.24-.48q.18.3.18.42-.18.36-.42.06zm35.1 9.96h-.12q-.12 0-.12-.12.12-.12.18-.12 0 .18.06.24zm-35.16-8.88h-.06q0-.06.06-.12v.12zm1.74-2.1l-.12.06-.06-.06.06-.06.12.06zm91.56 1.26q.12-.12.21-.12t.21-.12h-.36q-1.32.06-2.73-.03t-2.79-.45q-.9-.24-1.74-.51t-1.74-.57q-3-1.02-6.42-1.26-1.02-.18-2.04-.24t-2.04-.3q-1.86-.42-3.75-.93t-3.75-.93q-1.38-.42-2.79-.96-1.41-.54-3.03-.42.24-.6.51-1.14.27-.54.51-1.08 0-.12.06-.12.48-.42.48-1.14v-.72q0-.3.06-.66.18-1.14-.21-2.07-.39-.93-1.65-1.53l-.96-.48q-.48-.24-1.08-.18-.42.12-.87.12t-.87.12q-.36.18-.78.33-.42.15-.66.57.3.3.54.3.6-.18.78-.3.24-.24.51-.24t.57.06q.3.18.6.18 1.32.12 1.5 1.2.3 2.34-.96 4.32-.18.36-.48.81-.3.45-.48.81-.9 1.32-1.92 2.49-1.02 1.17-2.34 2.25-1.86 1.56-3.96 2.82-.48.42-.99.69-.51.27-1.11.27-.06.12-.06.33 0 .21-.18.39-.18.18-.33.42-.15.24.27.54v.12q0 .3-.18.9v.36q0 .18.24.42.18-.36.57-.36.39 0 .69-.06.12-.18.12-.33 0-.15.18-.15.3-.12.48-.48.24-.3.84-.24.54.24.84.78.66 1.5.66 2.76 0 .36-.03.72t-.15.72q0 .9-.9 1.26.24.42.3.75t-.42.57q.72.84.42 1.32.48.48.6.72.18.18.3.48.18.3.39.57.21.27.33.69.24 0 .42.06.3.12.6-.18.18-.24.24-.27.06-.03.24.21.12.18.21.27.09.09.33.03 0-.24.36-.57.36-.33.66-.45.3 0 .48-.12.12-.66.12-.96.12-.3.12-.54 0-.24.06-.42.72-.3 1.56-.54.6-.12 1.32-.33.72-.21 1.32-.33 1.98-.66 3.72-.54.96 0 1.92.42-.12.18-.15.42t-.09.36q-.12.54-.78.48-.96-.12-1.92-.3t-1.86-.48q-.12-.06-.21-.06t-.21-.06l-.12.06q.18.12.42.33.24.21.36.39-.12.06-.21.06t-.27.06q.66.3.9.48 0 .06-.12.18-.36-.18-.72-.21t-.72-.21q.06.18.12.24.72.24 1.38.51.66.27 1.32.63.36.24.66.51.3.27.72.51.18.18.36.21t.18.27q-.06.18-.06.54l.45.45q.21.21.39.51.24.54.96.78.36.12.75.3t.81.3q.3-.3.42-.36.42-.24.84-.45.42-.21.84-.45.36.18.57.03.21-.15.45-.21.3-.18.6-.18-.06-.48-.12-.99t-.06-1.05q-.06-.24-.06-.48t-.06-.54q-.06-.54 0-1.05t.12-1.11l.24-.96q.12-.24.06-.45-.06-.21.12-.39.18-.18.27-.48.09-.3-.03-.48-.24-.36.06-.48t.18-.42q.24-.9.45-1.71.21-.81.57-1.65.06-.18.15-.36t.15-.42l.72.24q.36.12.78.3 1.08.36 2.16.66 1.08.3 2.28.36.66.06 1.41.06h1.47q.36-.06.75-.15t.81-.21q.3-.12.57-.18.27-.06.69-.24.18 0 .3-.06.48-.42 1.05-.63.57-.21 1.17-.39.36-.18.63-.24t.33-.3q.24-.48.75-.48t.81-.36q.78-.12 1.44-.36.66-.24 1.5-.12-.06 0 .18-.24-.36 0-.6-.06zm-38.7 4.08q-.48-.84-1.38-1.29-.9-.45-1.62-1.17.42-.18.78-.42.36-.24.72-.42.96-.48 1.62-1.2 1.56-1.38 3-2.94.3-.36.57-.66.27-.3.69-.54.84-.48 1.92-.06.72.24 1.38.48.66.24 1.14.78.48.36 1.02.6.54.42 1.08.72t1.14.66q-6.54 1.98-12.06 5.46zm11.46 4.92q-.48-.06-.84-.3-.9-.36-1.8-.45-.9-.09-1.8-.03-1.32.18-2.46.48t-2.28.72q-.18.06-.27.06-.09 0-.21.06-.18-.84-.3-1.59-.12-.75-.24-1.59 2.1-1.86 4.8-2.7.96-.42 1.86-.72.9-.3 1.8-.72.96-.3 1.86-.57.9-.27 1.8-.57.36 0 .6-.12-.66 2.04-1.29 4.05t-1.23 3.99zm4.38 2.04q-.12-1.08.09-2.1t.57-2.04h.18q-.18 1.08-.39 2.07-.21.99-.45 2.07zm-1.8-24.9q.12.72.18 1.47t.12 1.47q0 .3.06.36.48.6.75 1.35.27.75.99 1.17.18 0 .24-.06t.24.06q.48.24.57.18.09-.06.51-.42l.54.54q0-.06.18-.06-.24-.6.12-.96.18-.18.15-.3t.03-.24q.12-.54.3-.72.48-.3.3-.84-.06-.42-.21-.81-.15-.39-.33-.75-.24-.48-.54-.96-.3-.48-.6-1.02-.66-1.08-1.44-1.77-.78-.69-1.8-1.35-.06 0-.06-.03t-.06-.03q-.12 0-.18-.06-.12.24-.36.15t-.42-.09q-.84.06-1.68.96-.12.12-.06.21t.06.15q.3-.12.9-.3 1.26 1.02 1.5 2.7zm-19.68 6.66q-.12.36-.06.66.06.3.24.6.06.3.06.66 0 .36.06.66.12.36.24.6l.24.48q.54 0 .78.06.18 0 .36.09t.36.09l1.86-2.1v-.72q.06-.6.12-1.32.06-.72.06-1.32 0-.42.03-.72t.27-.66q.06-.12.12-.3t-.06-.18q-.36-.48-.18-.78.18-.3.36-.72.06-.18.09-.33.03-.15.15-.27h-.12q-.3.3-.54.6-.24.3-.54.72-.12-.66-.33-1.08-.21-.42-.33-.9-.18-.54-.66-.78-.48-.24-1.08-.24-.78-.06-1.02.72 0 .06.03.12t.03.18l.36-.3q.6.42.6 1.59 0 1.17-.42 2.37-.6 0-.69.12-.09.12-.09 1.02l-.42.3q.24.24.06.51t.06.57zm82.8 18.18q-.78.06-1.29.42t-1.05.84q.24 0 .42-.06t.36-.06v.12q-.18.12-.42.12-.24.18-.45.21-.21.03-.45.21-.18.06-.27.18-.09.12-.27.3-.72.12-1.44.36t-1.32.48q-.36.12-.6.24t-.66.3q-.3.18-.6.27-.3.09-.72.21-.36.06-.63.27-.27.21-.63.33-.9.54-1.68 0l-.48-.24q-.6-.06-.96-.66-.12-.36-.39-.54-.27-.18-.51-.42-.3-.3-.3-.54.06-.54-.18-.99-.24-.45-.42-.87-.12-.66-.06-1.29t.24-1.23q.18-.3.45-.54.27-.24.51-.54l.24-.48q.12-.24.3-.48.54-1.62 1.44-3.15.9-1.53 1.74-3.09.24-.36.48-.75t.48-.81q.06-.12.06-.66-.48.06-.9.06-.42 0-.84.06-.3 0-.54.24-.6.48-1.35.63-.75.15-1.53.33-.36.06-.63.06t-.69.06q-.54.18-1.08.09t-1.08.15q-.54.18-.72.48-.18.24-.36.42t-.36.42q-.12.3-.48.48t-.78.18q-.78.06-.84.78-.3.06-.6.09t-.48.15l-.72-.72q-.3-.3-.6-.72-.18-.6-.18-1.08 0-.18.06-.3t.06-.24q.12-.48.21-.9.09-.42.21-.9.18-.6.36-.96-.18-.54-.18-.6 0-.3.54-.48.06 0 .3-.24.24-.6.72-.81.48-.21 1.08-.27h.63q.33 0 .69.06.54 0 1.26-.24 1.32-.6 2.64-1.11 1.32-.51 2.64-1.05 1.14-.48 2.1-.93.96-.45 2.04-.93.12-.06.15-.06t.21-.18q-.6 0-1.02-.03-.42-.03-.78-.03-.9.06-1.62-.18-.72-.24-1.5-.6l-.27-.18q-.09-.06-.21-.06-.84-.42-1.02-1.5-.06-.48-.12-.9-.06-.42-.06-.84 0-.3.06-.57.06-.27.42-.39.18 0 .3-.36l.18-.18.18-.18q.12.3.12.57 0 .27.18.51.36 1.02 1.68.84.48 0 .99-.06t.99-.24q1.26-.24 2.46-.51t2.46-.57q1.26-.24 2.46-.51t2.46-.51q.84-.18 1.59-.36.75-.18 1.53-.24 1.8-.24 3.24.54l1.68.66q.42.24.9.48.48.24.84.48.9.54.6 1.32-.18.48.18 1.2l.18.18.18.18q.36.66-.42.78l-2.1.24q-.24.06-.42.06t-.42.12q-.3-.42-.96-.42-.78-.12-1.14-.12-.12-.12-.36-.12-.66.18-1.38.3-.72.12-1.38.24-.9.18-1.71.33-.81.15-1.65.33-.66.12-1.26.21t-1.26.27q-.72.12-1.41.33-.69.21-1.47.45-.06 0-.24.12-.6.42-1.14.42-.18-.12-.36.06-1.08.48-2.04.93-.96.45-1.92.99.06.12.3.12 1.02-.18 2.01-.3.99-.12 2.01-.18.66-.06 1.38-.03.72.03 1.38.03 1.38.06 2.7.18 1.32.12 2.64 0 .24 0 .51.03t.57.03q1.56.12 3.09-.03 1.53-.15 3.09-.39 4.8-.66 9.9-.9.84 0 1.62-.09.78-.09 1.62-.21-.06.84-.9 1.32-.66.42-1.14 1.05-.48.63-.9 1.35-.3.36-.18.96.18.3 0 .36t-.3.24q.42.36.87.18t.93.06q-.54.12-1.02.3t-.78.54q.12.24.18.39.06.15.06.33.06.78-.72 1.02h-.36q-.42.06-.72.21t-.6.33q-.48.24-1.08.24-.66.06-1.17.15-.51.09-1.11.15-.42.06-.81.12-.39.06-.75-.12-.3-.18-.63-.12t-.63-.06l-1.38-.42q-.96-.24-2.04-.24.36.24.6.6.42.42.78.81.36.39.72.75.18.42.33.75.15.33.27.75 0 .24.18.36.42.66.48 1.35.06.69.06 1.41v1.08q0 .36-.06.54 0 .18-.03.36t-.03.36v.66q-.18.66-.39 1.17-.21.51-.33 1.11-.3 1.02-1.56 1.44-.18 0-.18.06-.12.36-.51.48t-.75.36q-.54.42-.96.42-.6 0-1.17.03t-1.17.09q-.12-.06-.18-.15t-.24-.21q-.18-.18-.27-.42-.09-.24-.51-.24-.18 0-.3-.3-.42-.78-.42-1.56 0-.36-.03-.81-.03-.45-.09-.81zm3.6-10.92q-.42-.18-.69-.24-.27-.06-.69-.18-.36-.06-.75-.06t-.81-.06q-.42-.18-.9-.24-.48-.06-.96-.18-.6-.12-1.56-.3-1.32-.24-2.34 1.02-.12.24-.36.42t-.42.42q-.24.42-.36.78-.18.3-.3.63t-.24.69q-.42.72-.84 1.41t-.6 1.59q-.06.6-.18 1.2t-.3 1.2q.42-.06.69-.12.27-.06.69-.12 1.14-.3 2.34-.6t2.4-.66q1.14-.24 2.16-.69 1.02-.45 2.1-.93.36-.18.48-.54l1.44-4.44zm48 .24q.18 1.02-.15 1.89-.33.87-.69 1.71-.24.66-.45 1.35-.21.69-.45 1.29-.12.36-.18.66-.06.3-.18.6-.24.54-.39 1.05-.15.51-.15 1.17-.12.6-.48 1.2-.42.66-.84 1.35-.42.69-.72 1.41-.24.54-.66.93-.42.39-.84.75-.3.24-.6.45-.3.21-.66.45-.84.6-2.1.78-.12.06-.36.09t-.42.15q-.78.3-1.56 0-.24-.12-.51-.12t-.57-.06q.18-.06.33-.06.15 0 .33-.12 0-.06-.12-.12-.3-.06-.57-.24-.27-.18-.69 0-.18-.24-.48-.42t-.48-.42l-.24-.24q.06-.12.15-.12t.21-.06v-.06q-.48-.18-.78-.18 0-.6-.72-.78-.36-.06-.6-.3t-.54-.36q-.18-.12-.3-.24l-.24-.24q-.3-.48-.06-.78h.54q.06-.18.15-.21t.09-.21q.06-.06-.12-.48.54.66 1.17.66.63 0 1.29-.06 1.38-.18 2.46-.81 1.08-.63 2.1-1.47 1.68-1.5 2.85-3.24 1.17-1.74 2.13-3.66.66-1.32 1.29-2.7.63-1.38 1.23-2.82.96-2.34 1.2-4.68l.12-1.08q.06-.54.06-1.08-.06-.48.06-.99t-.06-1.05q-.12-.48-.21-.99t-.21-.99q-.18-.36-.45-.66-.27-.3-.51-.72-.24-.24-.3-.24-.72 0-.87-.39-.15-.39-.33-.87 0-.12-.06-.3.18.06.33.15.15.09.27.09 1.74-.24 2.76 1.26.36.6.81 1.26.45.66.69 1.38.12.42.12.69 0 .27.18.63 0 .3.24.42.66.3 1.11.81.45.51.81 1.11.12.18.18.3l.12.24 1.2-.48q2.04-.9 4.11-1.62 2.07-.72 4.23-1.26 2.28-.6 4.5-.9 1.14-.24 2.31-.36 1.17-.12 2.31-.3.66-.06 1.23-.09t1.17-.15h.18q.78-.42 1.44-.3.66.12 1.32.48.12.18.6.3.72.24 1.14.72.12.06.42.24 1.5.48.6 1.68-.24.48-.6.72-.96.66-1.74 1.44-.78.78-1.62 1.44-.24.18-.51.42t-.63.12q-.36 0-.78.36-.24.06-.9.36l.12.06v.12l-.63.42q-.27.18-.57.42-.54.36-1.05.81-.51.45-.99.81-.12.12-.12.27v.27q.42.24.9.45.48.21.96.51.3.18.57.45l.57.57q.36.12 0 .48-.6.54-1.11 1.08-.51.54-1.11 1.08-.42.42-.87.75t-.87.75l-1.38.9q-.18.18-.36.3t-.42.18q-.18.18-.18.33 0 .15-.24.21-.3.12-.51.3-.21.18-.51.36.24.06.48.06t.48.06q.72.12 1.38.18l1.32.12q1.8.18 3.57.27 1.77.09 3.57.15 1.08.06 2.16-.09t2.16-.39q.42-.06.54-.06.12 0 .48.12l-1.02 1.02q-.36.36-.75.63t-.81.63q-.42.54-1.08.99-.66.45-1.32.81-.3.18-.66.24-.36.06-.72.24h-.24q-.66.6-1.44.6-.78 0-1.62.12-2.46.12-4.8-.48-.66-.18-1.02-.24.06.54.09 1.02t.15.9v.78q0 .36-.12.72-.12.84-.39 1.68t-.27 1.68q0 .3-.09.57-.09.27-.15.57h-.42q-.06.24-.21.24h-.33l-1.08.24q-.54.12-1.02.3-.54.24-.84-.06l-.24-.24q-.72-.54-1.44-.36-.36 0-.78-.42-.24-.3-.6-.36-.24-.24-.42-.51t-.42-.51q-.18-.06-.3.03t-.36-.03q-.12-.18-.45-.24t-.63-.18q-.54-.06-1.05-.06t-1.11-.06q-1.02-.12-1.95-.15-.93-.03-1.95-.15.06-.12.3-.12 1.32.18 2.46-.18t2.22-.84q1.32-.54 2.46-1.23t2.28-1.41q.66-.36.93-.93.27-.57.39-1.17.12-.24.12-.78-.18-.18-.42-.18-1.32-.36-2.61-.48-1.29-.12-2.61.06-.48.06-.99.18t-.99.18q-.54.18-1.05.24t-.93.48q-.18.06-.33.06-.15 0-.33.06-.36.18-.57.45-.21.27-.51.45-.06.06-.12.06t-.12.06q-.84-1.44.18-2.7 0-.06-.06-.06t-.06-.12q-.3-.54-.09-.72.21-.18.81-.36.48 0 .78-.36.3-.72 1.32-.48.48.06.6.06t.42-.24l.24.24q.18-.18.36-.21t.36-.15q.12.3.78.3 1.8-.42 3.96-.54.42 0 .72-.06t.66-.12l.24-.72q.18-.66-.6-.84-1.08-.18-2.01-.57-.93-.39-1.95-.75-.24-.06-.48-.15t-.48-.15q-.18 0-.33-.06-.15-.06-.27.06-.66.3-1.32.54-.66.24-1.26.6-.3.18-.63.3t-.63.24q-.54-.36-.54-.84t.12-.96q.12-.3.15-.57.03-.27-.21-.63.18-.18.3-.21t.24-.21q-.12-.84-.84-1.26zm20.52-9.36q.06.12.09.12t.15.06l.12.18q.72.54 1.44-.12.36-.36.69-.72.33-.36.69-.72.18-.18.21-.3t.21-.3q-.42-.06-.69-.12-.27-.06-.57-.06h-3.6q-1.38.06-2.67.36t-2.61.78q-1.5.48-2.94.99t-2.94 1.05q-.84.36-1.71.69-.87.33-1.71.69-.6.18-.6.66 0 .06.06.12.12 0 .18-.03t.18-.03q.12.18.12.27 0 .09.06.27.24-.06.48-.06t.36-.12q1.2-.3 2.37-.6 1.17-.3 2.31-.6 2.04-.66 4.11-1.11 2.07-.45 4.23-.63.42-.06.84-.21t.84-.15q.12 0 .3-.36zm-16.38 4.68q.06.48.09.99t.15.99q0 .6.48.36.36-.12.63-.06t.69.24q1.98-.96 4.11-1.68 2.13-.72 4.11-1.86-1.08.18-2.16.42t-2.16.36l-2.34.48q-1.14.18-2.22 0-.66 0-1.38-.24zm13.2 4.8q-2.46.36-4.8.69-2.34.33-4.68.87.12.12.12.24.6.06 1.23.18t1.23.18q.66.18 1.11.24.45.06.93.48 0 .06.18.06h.06q.6-.18 1.02-.3.12 0 .48-.18.36-.24.66-.42.3-.18.72-.48.48-.36.93-.69.45-.33.81-.87zm-1.44-5.1q-.36-.24-.78-.12-.78.36-1.53.63t-1.53.69q-.3.12-.54.21-.24.09-.54.21 1.44-.06 3-.42.06 0 .36-.18.42-.24.81-.51.39-.27.75-.51zm-10.2 5.1q.78-.18 1.47-.36t1.35-.6q-.78.06-1.5.3t-1.32.66zm-4.62-7.8q-.06.3-.09.57-.03.27.09.63.48-.54 0-1.2zM331 21.76q.78.24 1.5.3 1.56.18 3 .09t2.94-.45q1.56-.42 3.03-.69 1.47-.27 2.97-.63 1.26-.3 2.43-.6 1.17-.3 2.37-.66l1.2-.48q.48-.12.9.06.72.24 1.44.45.72.21 1.38.57.42.18.72.36t.72.3q.12.06.18.15t.18.21q-.06.18-.15.18t-.15.12q.3.18.48.36 0 .06-.09.15t-.09.15q.06.24-.12.3-.36 0-.36.3-.06.3-.06.63v.69h.6q.12.12.12.18l-.96.24q-2.04.6-4.17 1.11-2.13.51-4.23.99-.18.06-.42.06t-.36.12q-.78.18-1.5.18H343q-1.08 0-2.22-.06-1.14-.06-2.22-.12-.48 0-.9-.18-.42-.18-.78-.3-.24-.18-.57-.21-.33-.03-.57-.21l-1.56-.72-1.56-.72q-.06 0-.3-.24-.66-.72-1.32-1.98zm85.08 26.46q.9-.3 1.86-.39.96-.09 1.8-.63l-.72-.24-2.58-.24q-.42-.06-.9-.15-.48-.09-1.02-.09-1.26 0-2.4-.42-.78-.24-1.5-.45-.72-.21-1.5-.27-1.08-.06-2.07-.24-.99-.18-1.95-.3-1.26-.24-2.52-.39-1.26-.15-2.58-.09-.78 0-1.14-.06v-.12q1.38-.84 2.79-1.38 1.41-.54 2.85-1.2.6-.06.36-.54-.18-.36-.48-.6t-.48-.6l-.18-.12q-.36-.12-.39-.21-.03-.09.33-.33 0-.06.06-.12-.12-.12-.15-.12t-.21-.06q.3-.06.54-.15.24-.09.48-.15.12-.42.21-.69.09-.27.27-.57 0-.18-.36-.18.42-1.14.81-2.28.39-1.14.75-2.22.48-.18.66-.18.6-.06 1.32-.09.72-.03 1.32-.15.42 0 .72-.03t.66-.09l.96-.12q.48-.06.84-.12.36-.18.42-.24.24-.18.48-.27.24-.09.42-.27-.06-.3.27-.39.33-.09.39-.39-.06-.06-.06-.15t-.12-.27q.18-.06.24-.06t.24-.06q-.18-.24.06-.54.12-.18.03-.33-.09-.15-.09-.39-.06 0-.18-.06-.06-.12-.06-.24.06-.3-.48-.48-.42-.18-.93-.12t-.99-.06q-.48 0-.66-.06-.3-.24-.78 0-.06.06-.36.06-.24.12-.51.12h-.51q-.3 0-.54.03-.24.03-.48-.21.06-.12.3-.36l1.14-1.14q.36-.42 0-.9-.48-.3-.66-.54-.36-.42-.84-.57-.48-.15-1.02-.33-.48-.12-.93-.21-.45-.09-1.05.09h-.06q-.48-.18-1.14.06-.48.18-.96.3l-.96.24q-.84.18-1.65.42-.81.24-1.65.36v-.3q.06-.48.3-.93.24-.45.48-.93.12-.42.06-.48-.24-.24-.51-.48t-.57-.48q-.48-.3-.78-.36-.18-.18-.36-.24t-.54.06q.12.18.12.36t.06.36q-.18.06-.33.12-.15.06-.27.12.3.48.12.96-.3.84-.36 1.62l-.24 1.38q-.24.12-.48.18l-.48.12-4.44 1.44q-.6.24-1.26.48t-1.32.54q-.6.24-1.11.51-.51.27-1.05.51-.66.24-1.2.51-.54.27-1.14.15 0 .12-.12.12.12.24.24.45.12.21-.24.45v.12q.18.66.9 1.08.6.24 1.14 0 .66-.3 1.35-.6.69-.3 1.29-.66 1.14-.6 2.34-.99t2.34-.81l2.16-.48h.12q-.06.48-.09.96t-.03.84q0 .42-.42.54-.6.24-1.17.57-.57.33-1.17.39-.06 0-.06.03t-.12.03l-3.48 1.62q-.42.18-.72.33-.3.15-.6.33-.66.36-1.35.72-.69.36-1.29.78-.54.18-1.11.42-.57.24-1.17.24-.18 0-.21.06t-.21.06q-.3 0-.42.36 0 .48-.54.72-.36 0-.36.24.12.24-.06.3t-.3.24q.36.36.18.72t-.06.72l.72-.18 1.68-.96q.84-.48 1.68-1.02.78-.48 1.53-.87t1.41-.87q1.5-.84 3.03-1.41 1.53-.57 3.09-1.11.12-.12.33-.12.21 0 .39-.06 0 .72-.06 1.38-.06.66-.12 1.26-.06.66-.12 1.14-.06.48-.12 1.14-.06.12-.06.33 0 .21-.42.27-.9.42-1.86.75-.96.33-1.86.75-.96.3-1.92.63t-1.92.63q-.36.12-.6-.12.36-.12.63-.33.27-.21.69-.33-.24-.12-.66-.12.36-.54.78-.96-.3 0-.36.06-.3.12-.78.48-.78.36-1.53.75t-1.35 1.05q-.54.54-1.56.66-.06 0-.06.12l.12.3q.24.24.21.36t-.27.24q-.54.42-.24.96.06.24.36.54.18-.06.21-.06t.21-.12q.36-.24.84-.45.48-.21.9-.45 1.08-.54 2.19-.78 1.11-.24 2.25-.48 2.46-.48 4.8-1.44.18-.06.36-.06t.42-.06q-.06.72-.03 1.38.03.66-.09 1.26-.24 1.26-.12 2.76.18 1.62-.06 2.94 0 .3-.06.48-1.5-.24-2.52-.96l-.12.3-1.2-.66-.18.12q.24.18.45.33.21.15.45.33-.24.3-.21.42t.27.24q.3.24.66.48.36.24.36.72.06 0 .12.03t.12.03q-.18.06-.48.06-.48-.3-.72-.36-.3-.18-.57-.24-.27-.06-.75.06.24.18.54.36.72.06.96.6.18.18.33.24.15.06.27.24v.06q-.12 0-.21.03t-.21.15q.42.3.54.36.42.18.42.54 0 .42.48.54.78.48.96 1.32.12.66.45 1.08.33.42.57.9.06 0 .06.03t.06.03q.36-.06.54.18.18.24.48.24.24-.42.36-.45.12-.03.54.15.18.06.6-.18l.48-.36q.24-.18.6-.12.18-.12.21-.33.03-.21.21-.39.6-.96.36-1.86-.12-.3-.24-.57-.12-.27 0-.69.3-.84-.12-1.38-.12-.06-.12-.36-.12-.6-.12-1.14V49.3q.06-.3.06-.9.24.12.39.21.15.09.33.15.66.48 1.35.93.69.45 1.47.87.96.54 2.04 1.02t2.16 1.02q.36.12.81.24.45.12.81.3.06.06.3.06h.54q1.26.42 2.28.3.72 0 .6-.78 0-.54.42-.84l.24-.24q.12-.3.72-.48.12-.66.54-.84.3-.18.57-.27.27-.09.57-.27.66-.42 1.38-.6.72-.18 1.44-.42.36-.18.72-.24t.84-.24q-.54-.12-1.05 0t-1.05-.06zM398.26 28q.96-.36 1.98-.63t1.62-.21q.18.24.06.48t-.18.48q-.12.84-1.2 1.08-.48.06-.99.18t-1.05.3q-.12.06-.24.06t-.3.06q.18-1.14.3-1.8zm-.66 4.32q1.26-.3 2.64-.3-.18.36-.3.72t-.24.66q-.18.48-.48.54-.36.24-.75.42t-.81.36h-.3q.06-.6.09-1.2t.15-1.2zm-.42 5.28q-.12-.6 0-1.2t.18-1.2v.48q.36-.12.72-.18t.78-.24v.18q0 .06.06.06-.24.42-.15.84t-.09.78q0 .12-.06.12-.42.12-.72.18t-.72.18zm.24 6.42q-.12-1.08-.12-2.07 0-.99.06-2.07.48-.18.99-.3t.93-.24q.24.3.36.6.3-.12.42-.12t.12.06q0 .06.06.06.24.24.3.24.18 0 .21-.12t.09-.18q0-.24.18-.27.18-.03.3-.15l.48.48q.18-.24.27-.48.09-.24.27-.36.48 0 .54.3.18.48-.12.78-.9.84-1.8 1.5l-1.8 1.32-.84.48q-.42.24-.9.54zm-13.98 4.92q.42-.18.72-.27.3-.09.66-.21.36-.24.72-.51t.72-.51q.54-.42 1.14-.75.6-.33 1.2-.51 1.02-.12 1.56-.72l.18-.09q.06-.03.06-.21-.06 0 .06-.12.18-.12.42-.18t.36-.06q0-.12-.06-.18-.6-.24-1.23-.3t-1.23-.18h-.18q-.06.24-.24.18t-.3 0v.36q-.24.12-.45.12-.21 0-.33.06-.42 0-.72.24-1.02.96-2.1 1.02-.06.3-.06.57 0 .27-.12.57-.12.12-.27.15-.15.03-.27.21-.06.12-.03.27.03.15-.03.33 0 .06-.03.12t-.03.18q-.12.06-.12.42zm6.36-1.98l.3-.3q-.54 0-.78.06-.54.18-.96.45-.42.27-.84.57-.54.48-1.05.9-.51.42-1.23.72-.06 0-.06.06t-.06.06q-.3.24-.54.45-.24.21-.66.39-.12.18-.48.18-.12 0-.15-.12t-.21-.24q-.18.12-.3.18t-.24.18l.12.42q-.12.36-.27.57-.15.21-.33.45.3.18.24.18.6.36.96.33.36-.03.96-.51.42-.24.72-.51t.72-.57q.72-.6 1.38-1.2l1.32-1.2q.18-.18.33-.3.15-.12.21-.24.18-.42.42-.57.24-.15.48-.39zm-1.86-7.8q-.42-.12-.57.06-.15.18-.33.36.48.12.9-.42zm.18 11.46l-.12.12q0 .12.12.12l.12-.06q0-.06-.06-.06t-.06-.12z"/></svg>