<svg viewBox="0 0 306 80" xmlns="http://www.w3.org/2000/svg"><path d="M19.98 36.76q-.6 0-.96.36-.42.42-.42.96v25.26q0 .54.42.96.36.36.96.36h8.22q.48 0 .96-.36.36-.42.36-.96V38.08q0-.48-.36-.96-.48-.36-.96-.36h-8.22zm0 29.88q-1.38 0-2.34-.96t-.96-2.34V38.08q0-1.38.96-2.34.96-.9 2.34-.9h2.46q.66 0 .66-.66V21.16q0-.66-.66-.66h-5.82q-.96 0-.96-.96t.96-.96h5.82q.66 0 .66-.66v-5.64q0-.96.96-.96t.96.96v5.64q0 .66.66.66h5.82q.96 0 .96.96t-.96.96h-5.82q-.66 0-.66.66v13.02q0 .66.66.66h2.52q1.32 0 2.34.9.9 1.02.9 2.34v25.26q0 1.38-.9 2.34-.96.96-2.34.96h-8.22zm15.78.66q-.36 0-.66-.3-.24-.24-.24-.66L36.3 15.7q0-1.56 1.14-2.58t2.58-1.02h7.86q1.32 0 2.34.9.9 1.02.9 2.34v48.24q0 1.38-.9 2.34-.96.96-2.34.96h-2.52q-.36 0-.66-.3-.3-.3-.3-.72 0-.36.3-.66.3-.3.66-.3h2.52q.48 0 .96-.36.36-.42.36-.96V15.34q0-.48-.36-.96-.48-.36-.96-.36h-7.86q-.72 0-1.2.48-.54.54-.54 1.26l-.36 12.54q0 .3.18.48t.42.18h6.96q.42 0 .72.3.24.24.24.72 0 .96-.96.96h-7.02q-.66 0-.66.6l-.36 12.54q0 .3.18.48t.48.18h7.38q.96 0 .96.96 0 .48-.24.72-.3.3-.72.3h-7.5q-.6 0-.66.6l-.54 19.08q0 .42-.24.66-.3.3-.72.24h-.06zm34.02 0q-.18 0-.24-.06-.9-.18-.72-1.14l4.56-20.64q0-.42-.18-.54-.18-.24-.48-.24h-2.94q-.42 0-.72-.3t-.3-.72q0-.42.3-.72.24-.24.72-.24h18.54q.96 0 .96.96 0 .48-.24.72-.3.3-.72.3h-3.84q-.66 0-.66.6v18.3q0 .54.42.96.36.36.96.36h3.12q.96 0 .96.96t-.96.96H85.2q-1.38 0-2.34-.9-.96-.96-.96-2.34v-18.3q0-.6-.66-.6h-5.22q-.48 0-.6.48l-4.68 21.36q-.24.78-.96.78zm0-29.46q-.6 0-.84-.42-.24-.24-.12-.72.06-.36.42-.6l12.24-7.98q.18-.06.3-.42 0-.12-.12-.48l-5.46-9.18q-.18-.3-.54-.3h-5.88q-.42 0-.72-.3t-.3-.66q0-.42.3-.72t.72-.3h3.9q.42 0 .6-.3.3-.3 0-.66l-1.14-1.86q-.18-.48-.12-.78.06-.24.42-.6.48-.12.54-.12.54 0 .84.48l2.1 3.54q.18.3.54.3h10.86q.42 0 .72.3.24.24.24.72 0 .96-.96.96h-8.94q-.36 0-.54.3-.18.36 0 .66l4.44 7.44q.12.18.42.3h.12l.36-.12 3.6-2.34q.36-.12.54-.12.54 0 .78.42.24.3.18.72t-.48.6l-3.66 2.46q-.48.3-.18.84l4.2 7.02q.18.24.06.72-.06.42-.42.6-.3.18-.48.18-.54 0-.84-.48l-4.14-6.9q-.18-.3-.42-.3-.06-.06-.12-.06-.24 0-.36.12l-12.12 7.92q-.24.12-.54.12zM56.7 40.42q-.66 0-.66.66v22.14q0 .54.42.96.36.36.9.36h5.1q.54 0 1.02-.36.36-.42.36-.96v-47.7q0-.48-.36-.96-.48-.36-1.02-.36h-5.1q-.54 0-.9.36-.42.42-.42.96v22.32q0 .66.66.66h3.96q.96 0 .96.96t-.96.96H56.7zm.66 26.04q-1.38 0-2.34-.9-.96-.96-.96-2.34v-47.7q0-1.38.96-2.34.96-.9 2.34-.9h5.1q1.32 0 2.34.9.96.96.96 2.34v47.7q0 1.38-.96 2.34-1.02.9-2.34.9h-5.1zm49.5-48.9q-.84 0-1.38.54-.6.6-.6 1.44l-.42 14.04q0 .24.18.42.18.24.48.24h8.58q.66 0 .66-.66V18.22q0-.66-.66-.66h-6.84zm18.96 49.86q-.6 0-.84-.42l-7.92-12.6q-.18-.3-.54-.3-.36 0-.54.3l-7.8 12.54q-.3.48-.84.48-.12 0-.48-.12-.36-.24-.42-.6-.12-.48.06-.72L115.2 52q.18-.36 0-.72l-6-9.6q-.12-.36-.12-.72.06-.42.48-.6.18-.18.48-.18.54 0 .84.48l5.1 8.22q.18.3.54.3.36 0 .54-.3l6.96-11.4q.3-.42.06-.84-.3-.48-.78-.48H105q-.66 0-.66.66l-.9 29.64q0 .96-.96.96-.42 0-.72-.3-.24-.24-.24-.66l1.38-46.98q.12-1.68 1.2-2.76 1.14-1.08 2.76-1.08h6.84q.66 0 .66-.66v-2.76q0-.42.3-.72t.66-.3q.42 0 .72.3.24.24.24.72v2.76q0 .66.66.66h5.76q1.38 0 2.34.96t.96 2.34v7.92q0 .48-.24.72-.3.3-.72.3t-.72-.3q-.3-.3-.3-.72v-7.92q0-.54-.36-1.02-.36-.36-.96-.36h-5.76q-.66 0-.66.66v15.36q0 .66.66.66h6.36q1.62 0 2.46 1.44.36.66.36 1.38 0 .72-.42 1.44l-7.8 12.78q-.3.3 0 .72l8.7 13.92q.54.84-.3 1.38-.36.12-.48.12zm-34.08-.24h-.06q-.06-.06-.12-.06-.36-.06-.66-.36-.24-.3-.12-.78l5.28-26.94q.18-.84.96-.84h.12q0 .06.06.06.3.06.6.36.24.36.18.78L92.7 66.34q-.3.84-.96.84zm6.24-36.48q-.12 0-.48-.12l-6.36-3.48q-.78-.54-.36-1.32.24-.54.84-.54l.48.12 6.36 3.54q.42.18.48.54.06.36-.12.78-.3.48-.84.48zm0-13.68q-.12 0-.48-.12l-6.36-3.48q-.78-.54-.36-1.32.24-.54.84-.54l.48.12 6.36 3.54q.42.18.48.54.06.36-.12.78-.3.48-.84.48zm47.4 40.2q-.96 0-.96-.96t.96-.96h4.32q.66 0 .66-.66V41.68q0-.6-.66-.6h-4.32q-.36 0-.66-.3-.3-.3-.3-.72 0-.96.96-.96h4.32q.66 0 .66-.66v-12.9q0-.66-.66-.66h-4.32q-.96 0-.96-.96t.96-.96h11.88q.48 0 .72.24.3.3.3.72 0 .36-.3.66-.3.3-.72.3h-4.32q-.66 0-.66.66v12.9q0 .66.66.66h4.32q.48 0 .72.24.3.3.3.72t-.3.72q-.3.3-.72.3h-4.32q-.66 0-.66.6v12.96q0 .66.66.66h4.32q.48 0 .72.24.3.3.3.72 0 .36-.3.66-.3.3-.72.3h-11.88zm-.96-39.12q-.42 0-.72-.3l-4.5-4.56q-.3-.3-.3-.72 0-.36.3-.66.3-.3.72-.3.36 0 .66.3l4.5 4.56q.3.3.3.66 0 .42-.3.72t-.66.3zm11.04 49.08q-.36 0-.66-.3-.3-.3-.3-.72 0-.96.96-.96h4.32q.48 0 .96-.36.36-.42.36-.96V16.12q0-.6-.36-.96-.48-.36-.96-.36h-11.16q-.36 0-.66-.3-.3-.3-.3-.72 0-.96.96-.96h11.16q1.38 0 2.34.96t.96 2.34v47.76q0 1.38-.96 2.34t-2.34.96h-4.32zm-15.06.42q-.36 0-.66-.3-.3-.3-.3-.72V21.16q0-.96.96-.96t.96.96v45.42q0 .48-.24.72-.3.3-.72.3zm-11.16-.42h-.06q-.06-.06-.12-.06-.36-.06-.66-.36-.24-.3-.12-.78l4.86-26.94q.18-.84.96-.84h.12q0 .06.06.06.36.06.66.36.18.42.12.78l-4.86 26.94q-.18.84-.96.84zM135 30.7q-.12 0-.48-.12l-5.88-3.54q-.36-.18-.42-.6-.12-.42.06-.72.3-.48.84-.48.24 0 .54.18l5.82 3.48q.84.48.36 1.32-.3.48-.84.48zm0-13.68q-.12 0-.48-.12l-5.88-3.48q-.36-.24-.42-.66-.12-.42.06-.72.3-.48.84-.48.24 0 .54.18l5.82 3.48q.42.3.48.6.06.42-.12.72-.3.48-.84.48zm58.98 42.96q-.36 0-.6-.24l-9.18-7.86q-.3-.18-.48-.18-.24 0-.42.18l-9.18 7.86q-.24.24-.6.24-.54 0-.78-.36-.3-.3-.24-.72.06-.3.36-.6l9.66-8.34q.24-.18.24-.48V40.9q0-.42.3-.72.24-.24.66-.24.48 0 .72.24.3.3.3.72v8.58q0 .3.18.48l9.72 8.34q.3.3.36.6 0 .48-.24.72-.3.36-.78.36zm-.54-7.98q-.36 0-.66-.3-.3-.3-.3-.66V37.96q0-.48-.36-.96-.48-.36-.96-.36h-14.82q-.54 0-.9.36-.42.42-.42.96v13.08q0 .42-.24.66-.3.3-.72.3-.36 0-.66-.3-.3-.3-.3-.66V37.96q0-1.38.96-2.34.9-.9 2.28-.9h14.82q1.32 0 2.34.9.9 1.02.9 2.34v13.08q0 .42-.24.66-.3.3-.72.3zM177.3 20.74q-.54 0-.9.36-.42.42-.42.96v5.46q0 .54.42.9.36.42.9.42h13.02q.54 0 .96-.42.36-.36.36-.9v-5.46q0-.48-.36-.96-.48-.36-.96-.36H177.3zm0 10.08q-1.38 0-2.34-.96t-.96-2.34v-5.46q0-1.38.96-2.34.96-.9 2.34-.9h13.02q1.32 0 2.34.9.96.96.96 2.34v5.46q0 1.38-.96 2.34t-2.34.96H177.3zm-6.72-16.38q-.54 0-.9.36-.42.36-.42.96v47.1q0 .54.42.96.36.36.9.36h26.34q.48 0 .96-.36.36-.42.36-.96v-47.1q0-.6-.36-.96-.48-.36-.96-.36h-26.34zm0 51.72q-1.38 0-2.34-.96t-.96-2.34v-47.1q0-1.38.96-2.34t2.34-.96h26.34q1.38 0 2.34.96.9 1.02.9 2.34v47.1q0 1.38-.9 2.34-.96.96-2.34.96h-26.34zm67.74-51.06q.48 0 .72.24.3.3.3.72 0 .36-.3.66-.3.3-.72.3h-10.08q-.66 0-.66.66v36.96q0 .66.66.66h5.4q.42 0 .72.3.24.24.24.66 0 .48-.24.72-.3.3-.72.3h-5.4q-.66 0-.66.6v8.58q0 .96-.96.96t-.96-.96v-8.58q0-.6-.66-.6h-5.52q-.36 0-.66-.3-.3-.3-.3-.72 0-.36.3-.66.3-.3.66-.3H225q.66 0 .66-.66V17.68q0-.66-.66-.66h-10.08q-.96 0-.96-.96t.96-.96H225q.66 0 .66-.66V11.5q0-.96.96-.96t.96.96v2.94q0 .66.66.66h10.08zm-5.34 5.76q.42 0 .66.24.18.18.3.66l4.62 44.34q.12 1.02-.84 1.08h-.12q-.9 0-.96-.9l-4.62-44.34q-.12-.42.18-.72t.66-.3q.06-.06.12-.06zM215.1 67.42q-.36-.06-.66-.36-.3-.3-.24-.72l4.32-44.58q.12-.42.36-.66.24-.24.6-.24.06 0 .12.06.36 0 .66.3.24.3.18.72l-4.32 44.58q0 .9-.96.9h-.06zm-6.36 0q-.96 0-.96-.96V26.68q0-.54-.54-.66h-.12q-.42 0-.6.36l-.6 1.56q-.3.66-.9.66-.24 0-.36-.12-.9-.24-.6-1.26l5.7-14.16q.24-.6.9-.6.3 0 .36.06.36.06.54.48.18.42 0 .78l-1.8 4.5q-.06.06-.06.3v47.88q0 .96-.96.96zm36.18-.54q-1.38 0-2.28-.9-.96-.96-.96-2.34v-7.98q0-1.68 1.14-2.82l18.66-18.42q.6-.6.6-1.44v-7.2q0-.54-.36-1.02-.48-.36-.96-.36h-18.6q-.96 0-.96-.96t.96-.96h18.6q1.38 0 2.34.96t.96 2.34v7.2q0 1.62-1.2 2.82L244.2 54.22q-.6.6-.6 1.44v7.98q0 .54.42.96.36.36.9.36h18.84q.42 0 .72.3.24.24.24.72 0 .36-.24.6-.3.3-.72.3h-18.84zm23.16 0q-.42 0-.66-.24-.3-.3-.3-.66 0-.42.3-.72t.66-.3h18.48q.48 0 .96-.36.36-.42.36-.96V46.12q0-.48-.36-.96-.48-.36-.96-.36h-15.6q-1.38 0-2.34-.96t-.96-2.34V25.42q0-1.38.96-2.34.96-.9 2.34-.9h18.48q.96 0 .96.96t-.96.96h-18.48q-.6 0-.96.36-.36.48-.36.96V41.5q0 .54.36.9.36.42.96.42h15.6q1.38 0 2.34.96.9 1.02.9 2.34v17.52q0 1.38-.9 2.34-1.02.9-2.34.9h-18.48z"/></svg>