<svg viewBox="0 0 389 80" xmlns="http://www.w3.org/2000/svg"><path d="M34.16 11.92v8.7h9.42v3.42h-9.42v12.6h4.02q1.56 0 2.61 1.05 1.05 1.05 1.05 2.61v22.5q0 1.56-1.05 2.61-1.05 1.05-2.61 1.05H21.2q-1.56 0-2.61-1.05-1.05-1.05-1.05-2.61V40.3q0-1.56 1.05-2.61 1.05-1.05 2.61-1.05h4.02V23.98H15.8v-3.36h9.42v-8.7h8.94zm15.24.24h18q1.56 0 2.61 1.05 1.05 1.05 1.05 2.61v48.42q0 1.56-1.05 2.61-1.05 1.05-2.61 1.05h-9.42l-1.8-3.36h4.86q.36 0 .63-.27t.27-.63V46.96h-7.08v13.08q0 1.2-.63 2.22-.63 1.02-1.77 1.62l-8.52 4.2V64.6l.96-.48q.84-.54.84-1.44V15.82q0-1.56 1.05-2.61 1.05-1.05 2.61-1.05zm11.64 3.36h-5.28q-.36 0-.63.27t-.27.63v11.46h7.08V16.42q0-.36-.27-.63t-.63-.27zM54.86 43.6h7.08V31.24h-7.08V43.6zm-21.3 18.6V40.9q0-.36-.27-.63t-.63-.27h-5.94q-.36 0-.63.27t-.27.63v21.3q0 .36.27.63t.63.27h5.94q.36 0 .63-.27t.27-.63zm98.58-42.12h-14.7l3.54 7.5 11.16-3.72v3.66l-9.66 3.18 1.8 3.78q.24.6 1.02.72l6.84.78v3.36l-13.26-1.5q-2.64-.3-3.78-2.7l-.78-1.68-14.7 4.86v-3.66l13.2-4.38-4.86-10.2h-8.34v-3.36h6.72l-2.28-4.86h9.48l2.28 4.86h16.32v3.36zM80.72 13h13.62q1.56 0 2.61 1.05Q98 15.1 98 16.66v46.86q0 1.56-1.05 2.61-1.05 1.05-2.61 1.05H80.72q-1.56 0-2.61-1.05-1.05-1.05-1.05-2.61V16.66q0-1.56 1.05-2.61Q79.16 13 80.72 13zM89 16.36h-2.88q-.36 0-.63.27t-.27.63v21.12h4.68V17.26q0-.36-.27-.63t-.63-.27zm38.34 28.2v18.6q0 .36.27.63t.63.27h3.9l-1.8 3.36h-8.82q-1.56 0-2.61-1.05-1.05-1.05-1.05-2.61v-19.2h-3.54l-2.52 15.9q-.12 1.26-.87 2.19-.75.93-1.95 1.41l-9.96 4.08v-3.66l2.64-1.14q.66-.24.66-.84l2.52-17.94h-5.28V41.2h32.1v3.36h-4.32zM86.12 63.82H89q.36 0 .63-.27t.27-.63V41.74h-4.68v21.18q0 .36.27.63t.63.27zm51.3-52.14h9.84L153.2 25h-7.38l5.82 13.02h-9.84l-5.94-13.32h7.38l-5.82-13.02zm45.48 19.14l.66-10.08q.06-.42-.24-.72t-.72-.3h-3.42v15.66h8.04q1.32 0 2.25.57.93.57 1.41 1.44.48.87.39 1.95-.09 1.08-.81 2.16l-8.28 11.76 7.38 10.44q.24.42.84.6l1.74.48v3.36l-7.92-1.26q-1.02-.18-1.86-.72-.84-.54-1.38-1.44l-3.42-4.86-3.42 4.86q-1.2 1.8-3.24 2.16l-7.92 1.26v-3.36l1.68-.42q.48-.12.78-.6l7.32-10.68-8.1-11.52v16.8q0 1.62-.69 3.03-.69 1.41-2.13 2.25l-7.8 4.5v-3.78l.54-.36q.72-.54.72-1.32V20.02q0-1.56 1.05-2.61 1.05-1.05 2.61-1.05h10.92v-4.5h9.3v4.5h9.24q1.68 0 2.76 1.14 1.08 1.14.96 2.82l-.6 10.5h-8.64zm-13.02 4.56V19.72h-4.32q-.36 0-.63.27t-.27.63v14.76h5.22zm7.5 10.98l4.38-6.42q.3-.42.06-.81-.24-.39-.72-.39h-16.44v2.28h8.94l3.78 5.34zm-41.52 21.72l4.86-20.22q.48-1.92 1.5-3.3t2.82-2.04l8.1-2.94v3.54l-1.68.84q-.9.48-1.02 1.38l-5.1 22.74h-9.48zm108.6-28.38H203.6q-1.56 0-2.61-1.05-1.05-1.05-1.05-2.61V16.36q0-1.56 1.05-2.61 1.05-1.05 2.61-1.05h40.86q1.56 0 2.61 1.05 1.05 1.05 1.05 2.61v19.68q0 1.56-1.05 2.61-1.05 1.05-2.61 1.05zm-25.14-23.64h-8.82q-.36 0-.63.27t-.27.63v7.5h9.72v-8.4zm19.14 8.4v-7.5q0-.36-.27-.63t-.63-.27h-8.76v8.4h9.66zm-28.86 3.42v7.56q0 .36.27.63t.63.27h8.82v-8.46h-9.72zm19.2 8.46h8.76q.36 0 .63-.27t.27-.63v-7.56h-9.66v8.46zm21 13.74l.06 13.86q0 1.56-1.05 2.61-1.05 1.05-2.61 1.05h-22.62l-1.8-3.36h17.1q.66 0 1.08-.42.42-.42.42-1.08l-.06-11.4q0-.66-.42-1.11-.42-.45-1.08-.45h-19.44l-5.64 10.44q-1.14 2.04-3.18 2.76l-14.04 5.1v-3.9l5.58-2.1q.96-.36 1.56-1.32l6-10.98h-11.82v-3.36h13.62l2.52-4.62h9.66l-2.46 4.62h24.96q1.56 0 2.61 1.05 1.05 1.05 1.05 2.61zm21.96-9.9h4.86l2.82 10.38h-5.64l-2.04-7.5v25.08h-9.48V41.02l-6.42 3.66v-3.84l10.26-6.36q.84-.48 1.02-1.44l2.04-11.64q.12-.78-.66-.78h-12.06v-3.36h5.28l-1.02-5.4h9.48l1.02 5.4h4.08q1.62 0 2.55 1.14.93 1.14.63 2.7l-1.56 9.84q-.24 1.8-1.98 2.88l-3.18 1.8v4.56zM301.1 18.4h6.78q1.56 0 2.61 1.05 1.05 1.05 1.05 2.61v32.58q0 1.56-1.05 2.61-1.05 1.05-2.61 1.05h-6.78v9.84h-9.3V58.3h-6.84q-1.56 0-2.61-1.05-1.05-1.05-1.05-2.61V22.06q0-1.56 1.05-2.61 1.05-1.05 2.61-1.05h6.84v-6.54h9.3v6.54zm-8.46 3.36h-2.16q-.36 0-.63.27t-.27.63v13.98h3.06V21.76zm10.62 14.88V22.66q0-.36-.27-.63t-.63-.27h-2.1v14.88h3zm-13.68 3.42v13.98q0 .36.27.63t.63.27h2.16V40.06h-3.06zm10.68 14.88h2.1q.36 0 .63-.27t.27-.63V40.06h-3v14.88zm37.26-43.08l-6.72 16.38q-.6 1.38-1.71 2.28-1.11.9-2.55 1.2h5.52v36.36h-9.48V32.5l-6.72 1.38v-3.36l3.06-.66q1.26-.3 1.86-1.56l7.08-16.44h9.66zm33.9 49.02l.72.42v4.5L365 62.38q-2.28-1.14-2.52-3.54l-.12-1.02h-4.08v10.32h-9.48V57.82h-4.32l-.12 1.02q-.3 2.52-2.46 3.54l-7.2 3.42v-4.5l.66-.42q.42-.24.54-.78l3.48-29.82h8.4l-2.88 24.18h3.9V25.3h-13.5v-3.36h13.5V11.86h9.48v10.08h13.32v3.36h-13.32v29.16H362l-2.82-24.18h8.34l3.36 29.82q.12.54.54.78z"/></svg>