<svg viewBox="0 0 300 80" xmlns="http://www.w3.org/2000/svg"><path d="M34.64 66.64q-.06-.06-.12-.06-.12-.12-.12-.3l1.5-50.58q0-1.2.96-2.16.9-.9 2.16-.9h7.86q1.14 0 1.92.78t.78 1.92v48.18q0 1.14-.78 1.92t-1.92.78h-2.52q-.36 0-.36-.42 0-.36.36-.36h2.52q.72 0 1.38-.54.54-.54.54-1.38V15.34q0-.78-.54-1.32-.66-.54-1.38-.54h-7.86q-1.02 0-1.62.6-.72.72-.72 1.68l-.36 12.72q0 .3.3.78.3.3.72.3h7.14q.36 0 .36.42 0 .36-.36.36h-7.2q-.42 0-.72.3t-.36.72l-.36 12.9q0 .42.3.72.36.36.78.36h7.56q.36 0 .36.36 0 .42-.36.42H36.8q-.42 0-.72.3t-.3.72l-.6 19.14q0 .42-.36.42-.12 0-.18-.06zm-7.44-.66h-8.22q-1.14 0-1.92-.78t-.78-1.92v-25.2q0-1.14.78-1.92t1.92-.78h2.64q.48 0 .78-.3.3-.3.3-.72V20.98q0-.48-.3-.78-.24-.24-.78-.24h-6q-.36 0-.36-.42t.36-.42h6q.48 0 .78-.3.3-.3.3-.72v-5.82q0-.36.36-.36.42 0 .42.36v5.82q0 .42.3.72t.72.3h6q.42 0 .42.42t-.42.42h-6q-.48 0-.72.24-.3.3-.3.78v13.38q0 .42.3.72t.72.3h2.7q1.14 0 1.92.78t.78 1.92v25.2q0 1.14-.78 1.92t-1.92.78zm0-29.76h-8.22q-.84 0-1.38.54-.54.54-.54 1.32v25.2q0 .84.54 1.38.54.54 1.38.54h8.22q.72 0 1.38-.54.54-.54.54-1.38v-25.2q0-.78-.54-1.32-.66-.54-1.38-.54zm34.26 29.64h-5.1q-1.14 0-1.92-.78t-.78-1.92V15.52q0-1.14.78-1.92t1.92-.78h5.1q1.14 0 1.92.78t.78 1.92v47.64q0 1.14-.78 1.92t-1.92.78zm-1.8-25.98h-4.14q-.54 0-.78.24-.3.3-.3.78v22.26q0 .78.54 1.38.54.54 1.38.54h5.1q.84 0 1.38-.54.54-.6.54-1.38V15.52q0-.72-.54-1.38-.54-.54-1.38-.54h-5.1q-.84 0-1.38.54-.54.66-.54 1.38v22.5q0 .42.3.72t.78.3h4.14q.36 0 .36.42t-.36.42zm8.76-2.76q-.24-.24.12-.54l12.36-8.1q.36-.24.48-.66.12-.48-.12-.72l-5.64-9.42q-.3-.54-.9-.54h-5.94q-.42 0-.42-.36 0-.42.42-.42h4.2q.6 0 .96-.54.24-.6-.06-1.02l-1.26-2.16q-.24-.24.12-.54.06-.06.24-.06t.3.18l2.16 3.66q.36.48.96.48h10.92q.36 0 .36.42 0 .36-.36.36h-9.24q-.66 0-.9.54-.3.54 0 1.08l4.68 7.8q.3.36.66.48.06.06.24.06.3 0 .6-.18l3.84-2.52h.12q.18 0 .3.18.24.24-.12.54l-3.84 2.52-.24.3-.18.36q-.12.54.12.78l4.26 7.14q.24.24-.12.54-.06.06-.18.06-.3 0-.36-.18l-4.2-7.08q-.3-.42-.72-.48h-.18q-.24 0-.6.12l-12.3 8.04q-.06.06-.18.06-.3 0-.36-.18zm.36 29.52h-.12q-.42-.06-.3-.48l4.62-20.82q.12-.48-.24-.9-.3-.36-.78-.36h-3.18q-.42 0-.42-.42 0-.36.42-.36h18.54q.36 0 .36.36 0 .42-.36.42H83.3q-.42 0-.72.3t-.3.72v18.42q0 .78.54 1.32t1.38.54h3.12q.36 0 .36.42 0 .36-.36.36H84.2q-1.14 0-1.92-.78t-.78-1.86V45.1q0-.42-.3-.72t-.78-.3H74.9q-.84 0-1.02.84l-4.74 21.42q-.12.3-.36.3zM97.1 16.48l-6.54-3.6q-.36-.06-.18-.54.18-.18.36-.18.12 0 .18.06l6.36 3.48q.24.18.18.54-.18.24-.36.24zm0 13.62h-.18l-6.36-3.54q-.36-.06-.18-.54.18-.18.36-.18.12 0 .18.06l6.36 3.48q.24.18.18.54-.12.18-.36.18zm-6.24 36.42h-.06q-.36-.06-.36-.48l5.28-26.94q.12-.3.42-.3.48.12.36.48l-5.28 26.94q0 .3-.36.3zm34.26.24l-.18.06q-.3 0-.36-.24l-8.04-12.72q-.3-.48-.9-.48-.6 0-.9.48l-7.92 12.72q-.06.24-.36.24l-.18-.06q-.18-.18-.18-.24 0-.24.06-.3l8.7-14.04q.24-.42 0-1.08l-6-9.72q-.12-.12-.06-.18v-.12q0-.12.18-.24.06-.06.18-.06.24 0 .36.18l5.22 8.46q.3.48.9.48.6 0 .9-.48l7.14-11.64q.36-.6 0-1.44-.36-.72-1.26-.72h-18.48q-.48 0-.72.24-.3.3-.3.78l-.9 29.76q0 .42-.42.42-.12 0-.18-.06l-.18-.18q-.12-.06 0-.18l1.38-46.92q0-1.32 1.02-2.34.96-.9 2.34-.9H113q.48 0 .78-.3.24-.24.24-.78v-2.94q0-.42.42-.42t.42.42v2.94q0 .48.3.78.3.3.72.3h5.94q1.14 0 1.92.78t.78 1.92v7.92q0 .42-.36.42-.42 0-.42-.42v-7.92q0-.84-.54-1.38-.54-.54-1.38-.54h-5.94q-.42 0-.72.3t-.3.72v15.72q0 .42.3.72t.72.3h6.54q1.38 0 1.98 1.14.6 1.14-.06 2.28l-7.92 12.9q-.12.48-.12.54 0 .3.18.54l8.76 14.04q.12.12.12.18-.06.06-.06.12t-.18.24zM113 17.02h-7.02q-1.02 0-1.74.72-.84.72-.84 1.8l-.42 14.16q0 .48.3.78.3.3.78.3H113q.48 0 .78-.3.24-.24.24-.72V18.04q0-.48-.24-.72-.3-.3-.78-.3zm21-.54l-6.06-3.6q-.18-.06-.18-.24 0-.24.06-.3.06-.18.3-.18.18 0 .24.06l5.82 3.48q.18.18.18.24.12.12 0 .3-.24.24-.36.24zm0 13.62h-.18l-5.88-3.54q-.18-.06-.18-.24 0-.24.06-.3.06-.18.3-.18.18 0 .24.06l5.82 3.48q.18.12.18.24.12.12 0 .3-.18.18-.36.18zm-5.76 36.42h-.06q-.24-.06-.24-.18-.12-.12-.12-.3l4.86-26.88q.06-.36.42-.36.3.12.3.18.12.12.06.3l-4.86 26.88q0 .36-.36.36zm10.74 0V21.16q0-.42.42-.42t.42.42v45.36q0 .42-.42.42t-.42-.42zm19.8 0h-4.32q-.36 0-.36-.42 0-.36.36-.36h4.32q.84 0 1.38-.54.54-.54.54-1.38v-47.7q0-.84-.54-1.38-.54-.54-1.38-.54h-11.16q-.42 0-.42-.42 0-.36.42-.36h11.16q1.14 0 1.92.78t.78 1.92v47.7q0 1.14-.78 1.92t-1.92.78zm-15.66-49.14l-4.5-4.56q-.12-.12-.12-.24 0-.18.12-.3t.3-.12q.12 0 .24.12l4.5 4.56q.12.12.12.24 0 .18-.12.3t-.24.12q-.18 0-.3-.12zm13.14 39.24h-11.88q-.42 0-.42-.36 0-.42.42-.42h4.5q.48 0 .78-.3.3-.3.3-.72V41.5q0-.42-.3-.72t-.78-.3h-4.5q-.42 0-.42-.42 0-.36.42-.36h4.5q.48 0 .78-.3.3-.3.3-.78V25.36q0-.48-.3-.78-.24-.24-.78-.24h-4.5q-.42 0-.42-.42t.42-.42h11.88q.42 0 .42.42t-.42.42h-4.5q-.48 0-.72.24-.3.3-.3.78v13.26q0 .48.3.78.3.3.72.3h4.5q.42 0 .42.36 0 .42-.42.42h-4.5q-.42 0-.72.3t-.3.72v13.32q0 .42.3.72t.72.3h4.5q.42 0 .42.42 0 .36-.42.36zm39.66 8.88h-26.34q-1.14 0-1.92-.78t-.78-1.92V15.76q0-1.14.78-1.92t1.92-.78h26.34q1.14 0 1.92.78t.78 1.92V62.8q0 1.14-.78 1.92t-1.92.78zm0-51.66h-26.34q-.78 0-1.32.54-.6.54-.6 1.38V62.8q0 .84.6 1.38.54.54 1.32.54h26.34q.72 0 1.38-.54.54-.54.54-1.38V15.76q0-.84-.54-1.38-.66-.54-1.38-.54zm-6.6 16.38H176.3q-1.14 0-1.92-.78t-.78-1.92v-5.46q0-1.14.78-1.92t1.92-.78h13.02q1.14 0 1.92.78t.78 1.92v5.46q0 1.14-.78 1.92t-1.92.78zm0-10.02H176.3q-.84 0-1.38.54-.54.54-.54 1.32v5.46q0 .84.54 1.38.54.54 1.38.54h13.02q.84 0 1.38-.54.54-.54.54-1.38v-5.46q0-.78-.54-1.32t-1.38-.54zm2.7 30.84V37.96q0-.78-.54-1.32t-1.32-.54h-14.82q-.78 0-1.32.54t-.54 1.32v13.08q0 .36-.42.36-.36 0-.36-.36V37.96q0-1.08.78-1.86t1.86-.78h14.82q1.08 0 1.86.78t.78 1.86v13.08q0 .36-.36.36-.42 0-.42-.36zm.72 8.28l-9.3-7.98q-.24-.24-.72-.24-.42 0-.66.24l-9.3 7.98q-.06.06-.24.06t-.3-.12q-.12-.12-.12-.3 0-.12.12-.24l9.78-8.34q.36-.36.36-.84V40.9q0-.36.36-.36.42 0 .42.36v8.64q0 .48.36.84l9.78 8.34q.12.12.12.24 0 .18-.12.3t-.3.12q-.18 0-.24-.06zm14.64 7.26l.06-44.04q0-.36-.3-.48-.42-.12-.48.24l-3 6.36q-.06.24-.36.24h-.18q-.3-.18-.18-.54l7.5-16.56q.18-.24.36-.24l.18.06q.36.12.18.54l-2.88 6.36q-.06.06-.06.48v47.58q0 .42-.42.42t-.42-.42zm17.88-.18v-8.64q0-.48-.3-.78-.3-.3-.78-.3h-5.7q-.42 0-.42-.42 0-.36.42-.36h5.7q.48 0 .78-.3.3-.3.3-.78V17.5q0-.48-.3-.78-.3-.3-.78-.3h-10.26q-.42 0-.42-.36 0-.42.42-.42h10.26q.48 0 .78-.3.3-.3.3-.72V11.5q0-.42.36-.42.42 0 .42.42v3.12q0 .42.3.72t.72.3h10.26q.42 0 .42.42 0 .36-.42.36h-10.26q-.42 0-.72.3t-.3.78v37.32q0 .48.3.78.3.3.72.3h5.52q.36 0 .36.36 0 .42-.36.42h-5.52q-.42 0-.72.3t-.3.78v8.64q0 .36-.42.36-.36 0-.36-.36zm-11.46-.06l4.32-44.52q0-.36.36-.36.42 0 .42.42l-4.32 44.52q-.12.36-.42.36-.42 0-.36-.42zm22.86.18h-.06q-.36.12-.36-.36l-4.68-44.28q0-.18.12-.3l.24-.12q.42 0 .42.36l4.68 44.28q0 .18-.12.3 0 .12-.24.12zm11.46-7.56V16.84q0-.84-.72-1.14l-.48-.12q-.48 0-.84.42l-5.22 5.52q-.12.12-.24.12l-.12-.06q-.06-.06-.18-.06-.12-.12-.12-.3 0-.12.12-.24l5.16-5.52q.54-.66 1.44-.66.36 0 .72.18 1.32.42 1.32 1.86v42.12q0 .36-.42.36t-.42-.36zm23.7-.12h-18.48q-.42 0-.42-.3 0-.42.42-.42h18.48q.72 0 1.38-.54.54-.54.54-1.38V38.56q0-.84-.54-1.38-.66-.54-1.38-.54h-15.6q-1.14 0-1.92-.78t-.78-1.92V17.86q0-1.14.78-1.92t1.92-.78h18.48q.36 0 .36.42 0 .36-.36.36h-18.48q-.84 0-1.38.54-.54.66-.54 1.38v16.08q0 .84.54 1.38.54.54 1.38.54h15.6q1.14 0 1.92.78t.78 1.92V56.2q0 1.14-.78 1.86-.78.78-1.92.78z"/></svg>