<svg viewBox="0 0 384 80" xmlns="http://www.w3.org/2000/svg"><path d="M55.48 29.68q.6 1.56 1.38 3.87.78 2.31 1.47 4.92t1.14 5.4q.45 2.79.39 5.37t-.75 4.77q-.69 2.19-2.25 3.57-1.92 1.74-4.02.18l-.66-.48q-.72-.54-.81-1.26-.09-.72.24-1.38.33-.66.96-1.14.63-.48 1.29-.6.42-.06.81-1.23.39-1.17.66-2.58.27-1.41.42-2.58.15-1.17.15-1.29.12-2.34-.21-4.68-.33-2.34-.81-4.62-.36-1.8-.81-3.72-.45-1.92-1.41-3.27t-2.73-1.83q-1.77-.48-4.77.6-1.14.42-2.19 1.14t-2.07 1.38q.3.48 0 1.02-.12.9-.24 1.95-.12 1.05-.24 2.19.9.06 1.8.15t1.8.03q1.92-.06 3.75-.45t3.75-.69q1.08-.18 1.8.3t.93 1.23q.21.75-.12 1.56-.33.81-1.35 1.23-1.26.54-2.82.81-1.56.27-3.24.24-1.68-.03-3.33-.39-1.65-.36-3.09-1.02 0 1.02.06 2.07.06 1.05.18 2.01.84.12 1.71.27.87.15 1.71.09 1.5-.06 2.97-.51 1.47-.45 2.97-.39.6 0 1.26.21t1.11.6q.45.39.57.96.12.57-.3 1.29-.48.84-1.47 1.32-.99.48-2.16.72-1.17.24-2.34.24t-2.01-.12q-1.5-.18-2.94-.9.06 0 .06.06 0 .12.06.18h-.06q.42.66.36 1.53t-.48 1.56q-.42.69-1.14 1.05-.72.36-1.62 0-1.62-.6-2.43-1.71-.81-1.11-1.14-2.49-.33-1.38-.24-2.91.09-1.53.27-3.03.12-.96.3-2.43.18-1.47.54-2.94.36-1.47.96-2.82.6-1.35 1.5-2.13 0-.24.18-.42 1.92-2.28 4.29-3.81 2.37-1.53 4.71-1.77t4.41 1.02q2.07 1.26 3.33 4.5zM27.82 49.54q.36-.78.87-1.74t.72-1.92q.21-.96 0-1.77t-1.29-1.29q-1.02-.48-2.13-.48-1.11 0-2.13.12-.18 0-.81.03-.63.03-1.29.15.6 2.04 1.2 4.05t1.08 4.11q.12.24.12.48v.48q.96.12 1.62-.06l1.8-.54q-.12-.84.24-1.62zm2.52-10.02q1.8.9 2.67 2.28.87 1.38 1.05 3 .18 1.62-.12 3.36-.3 1.74-.84 3.36-.3.84-.81 1.29-.51.45-1.11.69-1.92 1.92-5.22 1.8-.9-.06-2.01-.21-1.11-.15-2.13-.63-.96.24-1.92-.18-1.02-.42-1.53-1.41t-.72-2.22q-.21-1.23-.18-2.46t.09-2.13q.06-.66.15-1.62.09-.96.3-1.89.21-.93.69-1.65.48-.72 1.32-.9h.42q.3-.18.63-.36t.75-.3q0-.12-.03-.18t-.03-.18q-.06-.72-.06-1.47v-1.47q-1.74-.66-3.24-1.59-1.5-.93-2.82-2.13-.48-.48-.24-.99t.72-.63v-.06q1.56-.24 3.03.03 1.47.27 3.03.39.3-1.92.75-3.84t.93-3.78q.18-.6.72-.87t1.08-.21q.54.06.93.45t.33 1.05l-.24 3.48q-.12 1.74-.12 3.54l4.2-.6q1.02-.18 1.74.42t.99 1.47q.27.87.03 1.8-.24.93-1.14 1.47-2.4 1.5-5.4 1.5l.18 1.14q.06.18.06.72.96.12 1.77.27.81.15 1.35.45zm89.94 13.02q.24 1.62-.33 3.03-.57 1.41-1.65 2.52t-2.52 1.86q-1.44.75-2.88 1.05-1.56.3-3.09.15-1.53-.15-2.88-.78-1.35-.63-2.37-1.68-1.02-1.05-1.56-2.61-.54-1.62-.54-3.27t.36-3.33q.12-.18.18-.78-.48.06-.9.06h-.9q-.12 1.44-.9 2.88t-1.62 2.4q-.54.6-1.62 1.32-1.08.72-2.22 1.08-1.14.36-2.1.09-.96-.27-1.26-1.71-.12-.42 0-.87t.45-.78q.33-.33.75-.45t.9.06q.42.18.96-.03t1.02-.57q.48-.36.9-.81.42-.45.66-.75.42-.48.87-1.02t.93-1.2q-1.38-.3-2.61-.99t-2.13-1.83q-.42-.48.06-1.08l.06-.06q.18-.18.48-.15t.48.21h1.38q.54 0 1.02.03t.6.03q.9.06 1.83.06t1.83-.12q1.98-.24 3.75-.96t3.57-1.44q.72-.3 1.41.03.69.33 1.08.96.39.63.36 1.38-.03.75-.69 1.29-1.14.9-2.67 1.56t-3.27 1.08v.24q-.24 1.2-.36 2.52t.24 2.58q.66 2.22 2.46 2.94 1.8.72 3.84.24.78-.18 1.77-.69t1.56-1.2q.57-.69.51-1.38-.06-.69-1.38-1.23-1.02-.48-.84-1.56.18-1.26 1.26-1.89 1.08-.63 2.28-.33 1.38.3 2.31 1.44.93 1.14 1.17 2.46zm-11.94-22.86q-1.02 0-1.95-.06-.93-.06-1.95-.18.3.78.66 1.56.36.78.84 1.5 1.02-1.38 2.1-2.64.06-.18.3-.18zm-15.36-5.04q-.36-.36-.15-.93.21-.57.81-.51 1.68.18 3.33.48 1.65.3 3.39.6.12-1.56.51-2.91t.99-2.55q.18-.3.51-.27.33.03.45.33.66 1.38.75 2.82.09 1.44.15 3 .36 0 .69.03.33.03.69.03 1.38 0 2.7-.18 1.32-.18 2.7-.24.66 0 .96.06.3.06.96.18.12 0 .18.03t.18.03q.54.48.75 1.23.21.75.03 1.5t-.78 1.35q-.6.6-1.56.72-.66.12-1.32.15t-1.32.09q.54 0 .66.54.18 1.2-.06 2.37-.24 1.17-.78 2.37.84.48 1.77.45.93-.03 1.95-.69.72-.48 1.56-.12.84.36 1.08 1.2.42 1.8-.69 2.85-1.11 1.05-2.79 1.35-1.5.3-2.94-.06t-2.7-1.14q-.54.54-1.08 1.02t-1.08.9q-.6.42-1.35.87-.75.45-1.53.78t-1.59.54q-.81.21-1.53.09-1.5-.18-2.1-1.35-.6-1.17.06-2.49.24-.48.78-.66.54-.18 1.02-.06.54.18 1.29 0t1.5-.54q.75-.36 1.47-.87t1.26-.99q-2.04-3.06-2.4-7.44-4.08-1.2-7.26-3.84-.12 0-.12-.12zm18.12-.42q1.02-.12 1.62.42-.36-.12-1.02-.24t-.6-.18zM82.54 46.48q1.2 1.02 2.19 1.08.99.06 1.77-.51.78-.57 1.35-1.65.57-1.08.93-2.28.36-1.2.48-2.43.12-1.23.06-2.13-.12-1.2-.33-2.4-.21-1.2-.75-2.16-.54-.96-1.5-1.56-.96-.6-2.52-.6-.72 0-1.41.18t-1.35.42q.3 1.38.3 2.79v2.85q.3-.06.6-.06t.6-.12q.72-.12 1.41-.33.69-.21 1.41-.51.84-.3 1.5.09t.93 1.08q.27.69.12 1.44-.15.75-.87 1.17-1.14.66-2.7.9-1.56.24-2.94-.24.12 1.26.36 2.49.24 1.23.36 2.49zm10.08-6.54q.12 1.62 0 3.54t-.69 3.69q-.57 1.77-1.68 3.21-1.11 1.44-2.91 2.1-1.44.54-3.21.27t-3.15-1.17h-.12q-.9.3-1.74-.03-.84-.33-1.38-1.11-.66-.9-.93-2.19t-.3-2.67q-.03-1.38.06-2.76t.21-2.46q.24-1.98.69-4.23.45-2.25 1.71-3.93.42-1.14 1.41-1.86.99-.72 2.22-1.02 1.23-.3 2.55-.21 1.32.09 2.34.51 1.44.66 2.34 1.83.9 1.17 1.44 2.61.54 1.44.78 2.97.24 1.53.36 2.91zm20.16-15.3h-.06q.18 0 .21.03t-.15-.03zm44.52 18.3q.78-.72 1.86-1.26t2.28-.84q-.66-.96-.96-2.22-.3-1.26-.39-2.61-.09-1.35-.06-2.67.03-1.32.15-2.4l.12-1.5q-1.56.36-3.06.75t-3.06.51q.84.84 1.38 2.07.54 1.23.87 2.55.33 1.32.48 2.61l.27 2.31q.06.6.09 1.26t.03 1.44zm19.74 12.54q.66-.06 1.14.3.48.36.69.9.21.54.12 1.17-.09.63-.51 1.05-1.02 1.02-2.31 1.38-1.29.36-2.64.24t-2.67-.69q-1.32-.57-2.4-1.35l-.72-.54q-.96.9-2.07 1.59-1.11.69-2.37.99-1.56.36-3.3.06-1.74-.3-2.76-1.62-.84-1.02-.87-2.28-.03-1.26 1.05-2.1.3-.24.72-.27.42-.03.72.33 1.44 1.74 3 1.53 1.56-.21 3-1.41-1.2-1.68-2.07-3.48-.87-1.8-1.29-3.48-.12-.3.18-.51.3-.21.6-.03 1.5.9 2.61 2.22 1.11 1.32 2.31 2.64 1.02-1.44 1.74-2.91.72-1.47 1.02-2.49.48-1.68-.06-2.55-.54-.87-1.62-1.17-1.08-.3-2.43-.18t-2.49.36q-.66.12-1.5.33-.84.21-1.68.51-.84.3-1.59.69-.75.39-1.23.87h-.12q-.12 2.7-.96 5.13-.84 2.43-2.82 3.45-.96.48-1.92.24t-1.56-.93q-.6-.69-.66-1.59-.06-.9.78-1.74 1.26-1.26 2.01-3.96.75-2.7.96-5.73.21-3.03-.21-5.82-.42-2.79-1.5-4.17-.3-.3-.15-.6t.45-.36q1.5-1.2 3.93-2.22 2.43-1.02 5.19-1.62.36-1.92 1.02-3.69t1.86-3.33q.3-.42.72-.27.42.15.48.63.12 1.56.03 3.09-.09 1.53-.21 3.09 2.52-.12 4.77.3 2.25.42 3.69 1.74 1.2 1.08 1.44 2.37t-.18 2.52q-.42 1.23-1.32 2.25-.9 1.02-1.98 1.5t-2.16.27q-1.08-.21-1.86-1.41-.42-.78.24-1.26.42-.36.96-.69.54-.33.99-.72.45-.39.72-.84.27-.45.09-1.05-.18-.72-.84-1.05-.66-.33-1.47-.42-.81-.09-1.68-.03-.87.06-1.59.12v2.1q0 1.14.21 2.28t.45 2.31q.24 1.17.42 2.34t.06 2.25q.66-.06 1.26-.09t1.08.03q1.92.12 3.09.87t1.71 1.92q.54 1.17.57 2.67.03 1.5-.39 3.18-.36 1.56-1.02 3.15-.66 1.59-1.68 3.09l.18.12q1.38.96 2.67.9 1.29-.06 2.85-.3.3 0 .6-.03t.6-.03q-.06 0-.06-.03t-.06-.03zm-31.68-6.3q.24-.12.57 0 .33.12.45.3.6.9.69 1.86.09.96-.18 1.92t-.84 1.83q-.57.87-1.17 1.59-.6.72-1.62 1.47t-2.16 1.23q-1.14.48-2.28.51-1.14.03-1.98-.75-1.08-1.02-.96-2.43.12-1.41 1.38-2.25.72-.48 1.56-.75.84-.27 1.56-.75.78-.48 1.38-1.05.6-.57 1.26-1.17.42-.36.81-.72.39-.36.87-.6.06 0 .24-.06l.36-.12q.18-.06.24-.09t-.18.03zm1.44-9.12q.96.48 1.17 1.41.21.93-.09 1.77t-1.08 1.35q-.78.51-1.8.15-1.5-.48-2.76-1.44-1.26-.96-2.28-2.16-.3-.36-.75-.87t-.81-1.11q-.36-.6-.54-1.23-.18-.63.06-1.17.48-.9 1.32-.48.9.48 1.74 1.02t1.74 1.02q1.02.54 2.04.87 1.02.33 2.04.87zm-3.78-8.4q-1.5-.36-2.7-1.47-1.2-1.11-1.86-2.49-.3-.54-.54-1.26-.24-.72-.33-1.44-.09-.72.06-1.41t.69-1.17q.42-.36.93-.24t.96.45q.45.33.84.78.39.45.69.69.9.84 1.95 1.32 1.05.48 1.95 1.26.84.72.93 1.68.09.96-.36 1.77-.45.81-1.32 1.29-.87.48-1.89.24zm78.6 13.56l-.48.12q.06.48.09.93.03.45.15.93.12 1.02.36 1.95.24.93.54 1.89l.36-.12q-.18-2.94.18-6.12-.3.12-.6.21t-.6.21zm7.98.36q-.12-.96-1.2-1.2t-2.28-.18v2.1l.18 2.64q.48-.3 1.08-.69.6-.39 1.11-.84.51-.45.84-.9.33-.45.27-.93zm6.18 11.58q.3.36.57.66.27.3.39.78.18.6.06 1.23t-.6 1.05l-.12.12q-.54.48-1.44.66-.9.18-1.62-.3-1.32-.72-1.8-2.64-1.86.78-3.96 1.26-2.1.48-4.08.66-2.4.24-4.05-.42-1.65-.66-3.57-1.86-.36-.24-.27-.54.09-.3.51-.42.96-.18 1.95-.15l1.95.06q.96.03 1.92 0t1.98-.33q-.3-.36-.45-.78-.15-.42-.21-.84 0-.24-.03-.42t-.03-.36q-.18.06-.33.09-.15.03-.33.03-.42.6-1.08.96-1.08.48-2.04.12t-1.62-1.2q-1.02-1.26-1.26-3.09-.24-1.83-.12-3.39.06-.72.15-1.56.09-.84.33-1.65.24-.81.6-1.5t1.02-1.23q.48-.36 1.08-.36.6 0 .96.6.06.12.12.21t.12.21q.72-.48 1.47-.78.75-.3 1.59-.6.18-.6.42-1.17t.54-1.05q.24-.42.66-.3.42.12.54.48.12.42.18.81.06.39.12.75.3 0 .6-.03t.6.03q.9 0 1.92.24t1.92.72q.9.48 1.56 1.23t.9 1.71q.24 1.08-.21 2.1-.45 1.02-1.23 1.86-.78.84-1.74 1.53-.96.69-1.74 1.23l-1.86 1.2.18 1.32q.6.6.48 1.5.78-.3 1.59-.57.81-.27 1.65-.45.12-.06.48-.06.06-.54.12-1.05t.18-.99q.06-.42.39-.63.33-.21.69-.21.36 0 .69.21.33.21.45.57l1.56 3.66q.3.72.6 1.08zm1.62-21.36q.42.48.45.96.03.48-.21 1.08l-.36.66q-.36.66-1.02.99-.66.33-1.32.33-2.88.06-5.79-.87-2.91-.93-5.49-2.61-2.1 2.1-4.5 3.24-2.4 1.14-4.92.6-.78-.18-1.17-.81-.39-.63-.39-1.35 0-.72.39-1.35.39-.63 1.17-.75.3-.12.63-.21t.63-.21q.24-.12.66-.12 1.02-.42 1.98-.93t1.8-1.17q-1.02-1.08-1.89-2.28-.87-1.2-1.53-2.58-.18-.36.09-.63t.63-.09q1.38.72 2.64 1.56 1.26.84 2.58 1.68.12-.12.21-.27.09-.15.21-.27-1.2-.24-2.25-1.29t-1.05-2.25q0-.48.39-.72t.81 0q.42.24.75.51t.81.39q.48.24 1.05.24.57 0 1.05.3.12.06.15.12t.09.12q.36-.6.63-1.2t.27-1.11q0-.51-.42-.84-.42-.33-1.38-.39-.18 0-1.2.18t-2.19.42q-1.17.24-2.1.48-.93.24-.93.3 0 .3-.24.45-.24.15-.54-.03-.06 0-.18-.12-.36-.18-.24-.66.18-1.02 1.26-1.74t2.46-1.2q1.38-.48 2.76-.75t2.22-.33q2.22-.12 3.48 1.08 1.26 1.2 1.02 3.48-.18 1.68-.96 3.57t-2.04 3.69l1.5.6q1.74.66 3.3.66 1.56 0 3.3.12 1.02.06 1.65.27.63.21 1.29 1.05zm-30.36 9.36l.24.48q.3 1.02-.33 1.74t-1.59.9q-1.02.18-2.28.3-1.26.12-2.49-.03-1.23-.15-2.34-.6-1.11-.45-1.83-1.41-.12-.24-.03-.45.09-.21.33-.27.9-.3 1.86-.39.96-.09 1.92-.12t1.89-.18q.93-.15 1.83-.63.72-.42 1.53-.24t1.29.9zm-1.32-7.2q1.68.12 3.24.54 1.56.42 2.76 1.8 1.2 1.44 1.56 3.33.36 1.89.06 3.84t-1.17 3.75q-.87 1.8-2.13 3-.84.84-1.77.78-.93-.06-1.62-.66-.69-.6-.96-1.56-.27-.96.27-1.92.54-1.02 1.44-2.55.9-1.53 1.26-3t-.18-2.61q-.54-1.14-2.82-1.38-.72-.06-1.5-.09t-1.53-.09q-.75-.06-1.5-.21t-1.41-.57q-1.14-.72-1.47-1.86-.33-1.14-.12-2.37.21-1.23.84-2.37.63-1.14 1.47-1.86.3-.18.6-.06t.3.48q-.06.48-.21 1.08-.15.6-.27 1.23-.12.63-.15 1.2t.15.93q.36.66.93.9.57.24 1.26.3.69.06 1.38 0t1.29 0zm-7.08-8.76q-.6.12-.87-.48t.27-1.08q1.02-.84 2.49-1.44 1.47-.6 3.06-.84t3.15-.09q1.56.15 2.76.81 1.44.84 2.13 2.19t.69 2.88q0 1.53-.63 3.03-.63 1.5-1.77 2.52-.72.66-1.68.66t-1.68-.45q-.72-.45-1.02-1.26-.3-.81.3-1.83.48-.78 1.05-1.47.57-.69.87-1.53.24-.6.09-1.02-.15-.42-.51-.69-.36-.27-.84-.39t-.96-.18q-1.74-.18-3.45.24-1.71.42-3.45.42zm71.52 5.64l-2.04 4.86q.66.12 1.26.36t.9.3q.9.18 1.86.12.96-.06 1.92 0l.12-.12q.42-.36 1.68-1.05 1.26-.69 2.28-1.47 1.02-.78 1.2-1.5.18-.72-1.5-1.08-2.28-.42-4.74-.42h-2.22q-.24-.06-.42-.03t-.3.03zm26.58 12.24q.66.06 1.08.45.42.39.6.93t.18 1.14q0 .6-.24 1.08-1.14 2.46-3.33 4.23-2.19 1.77-4.95 2.94-2.76 1.17-5.91 1.77-3.15.6-6.27.63-3.12.03-5.97-.42-2.85-.45-5.07-1.41-2.76-1.14-4.08-3.03-1.32-1.89-1.59-4.14t.3-4.71q.57-2.46 1.65-4.86 1.08-2.4 2.49-4.5 1.41-2.1 2.79-3.66l.12-.12q.06 0 .06-.06.78-.6 1.8-.87t2.1-.33q1.08-.06 2.19 0 1.11.06 2.01.12 1.38.12 3 .42t2.64 1.44q1.26 1.44 1.02 3.18-.24 1.74-1.35 3.36-1.11 1.62-2.73 2.82-1.62 1.2-3 1.5-.78.18-1.56-.06-1.2.18-2.52-.09t-2.4-.69q-.6-.24-1.35-.69-.75-.45-1.29-1.11-.18.48-.33.99-.15.51-.27.99-.48 1.86-.66 3.42-.18 1.56.21 2.82.39 1.26 1.53 2.22 1.14.96 3.3 1.62 2.22.66 5.31.78 3.09.12 6.21-.45 3.12-.57 5.94-1.8 2.82-1.23 4.56-3.27l-.06-.06q-.48-.42-.33-1.02.15-.6.63-.9.54-.36.9-.51.36-.15.72-.21t.81 0q.45.06 1.11.12zm-27.9-17.46q-.78 1.14-1.71 2.31-.93 1.17-2.01 2.13-1.08.96-2.37 1.62-1.29.66-2.73.72-1.08.06-1.77-.51-.69-.57-.9-1.38-.21-.81.03-1.71.24-.9 1.08-1.5.96-.72 1.95-1.29.99-.57 1.95-1.41.84-.78 1.62-1.59.78-.81 1.56-1.65 1.5-1.56 2.82-3.3 1.32-1.74 2.88-3.24l.18-.24q.06 0 .12-.06l.36-.36v.06q.24-.18.54-.21.3-.03.6.03t.48.3q.18.24.12.6-.24 1.68-.78 3.24-.54 1.56-1.32 3.06 1.38-.24 2.88-.33 1.5-.09 2.91-.12 1.41-.03 2.67 0t2.16.03q1.62 0 3.36.09 1.74.09 3.36.45 1.62.36 3.06 1.14 1.44.78 2.46 2.22 1.08 1.56 1.35 3.45.27 1.89-.06 3.84t-1.23 3.81q-.9 1.86-2.22 3.3-1.32 1.44-2.97 2.34-1.65.9-3.51.96-.9 0-1.56-.54t-.93-1.29q-.27-.75-.03-1.56.24-.81 1.08-1.29 1.56-.9 3-1.74t2.52-2.22q.48-.6.9-1.32.42-.72.54-1.44.24-1.08-.24-2.16t-1.32-2.01q-.84-.93-1.89-1.65-1.05-.72-2.01-1.02-1.92-.6-3.9-.6t-3.99.12l-4.02.24q-2.01.12-3.87-.18l-.6.96q-.3.48-.6.9zm79.32 18.12h.24q-.12-.12-.18-.15t-.12-.15q-1.14-1.32-2.28-2.97-1.14-1.65-2.1-3.57.06 3.54.36 7.02 1.02 0 2.01-.09.99-.09 2.07-.09zm-9.3-.66q.06-2.28.27-4.47.21-2.19.39-4.11-.72 1.92-1.62 3.72-.9 1.8-2.04 3.36.54.54 1.35.9t1.65.6zm20.64.78q.72.66.42 1.62-.42 2.04-1.47 2.7-1.05.66-2.4.45-1.35-.21-2.79-1.02t-2.7-1.83q-.12.48-.42.96t-.9.96q-.96.72-2.16.93-1.2.21-2.52.09.3 1.92.45 3.66.15 1.74-.45 3.66-.36 1.02-1.44 1.14-1.08.12-1.68-.72-1.32-1.92-1.89-4.41-.57-2.49-.69-5.25-.06-.06-.12-.06-.84-.48-2.1-1.5-1.26-1.02-1.98-2.1-.96 1.08-1.68 1.62-.54.48-1.23.93-.69.45-1.47.69-.78.24-1.53.18t-1.41-.66q-.06-.06-.12-.09t-.12-.15q.42 1.38 1.08 2.52.6 1.08.36 2.1t-.96 1.65q-.72.63-1.77.69-1.05.06-2.01-.72-1.26-1.02-1.98-2.49-.72-1.47-1.02-3.12-.3-1.65-.33-3.36-.03-1.71.09-3.21.06-.48.12-1.17t.18-1.47q-.66.42-1.26.69-.6.27-1.2.51-.9.3-1.95-.03-1.05-.33-1.47-1.17-.06-.18-.18-.3-.66-1.26-.24-2.37.42-1.11 1.74-1.71 3.3-1.38 5.88-3.96 1.5-1.44 2.7-3.24.48-.72.78-1.41.3-.69.96-1.29.42-.24.78.06.78.78.87 1.89.09 1.11-.21 2.31t-.84 2.31q-.54 1.11-.96 1.89-.12.24-.3.45-.18.21-.3.51l.12 1.8q.12 1.2.12 2.4t.12 2.4q.12 1.26.24 2.49.12 1.23.36 2.43.18-.72.72-1.26.42-.3.87-.15t.57.63q.06.24.57-.12t1.14-.9q.63-.54 1.17-1.05.54-.51.66-.63.9-1.08 1.65-2.28.75-1.2 1.47-2.46.78-1.38 1.44-2.88.66-1.5 1.44-2.94-2.7-.66-4.86-2.07-2.16-1.41-3.36-3.93-.3-.6.21-1.02.51-.42 1.05-.12 2.34 1.38 4.62 1.86 2.28.48 4.62.6.48-2.94 1.29-5.73.81-2.79 2.13-5.37.24-.42.6-.24t.42.54q0 2.7-.21 5.4t-.45 5.4q1.62-.12 3.3-.24 1.68-.12 3.42-.12 1.02 0 1.68.69.66.69.81 1.56.15.87-.24 1.68-.39.81-1.47 1.05-1.56.36-3.39.51-1.83.15-3.75.21 1.38 2.28 2.64 4.56 1.26 2.28 3.18 4.38.78.84 1.5 1.59.72.75 1.53 1.35.81.6 1.77.96t2.16.36q.78 0 1.02-.15t.96.45z"/></svg>