<svg viewBox="0 0 503 80" xmlns="http://www.w3.org/2000/svg"><path d="M56.04 25.72q.06-.78.15-1.65.09-.87-.21-1.53-.12-.3-.27-.57-.15-.27-.27-.57-.24-.3-.72-.48t-.78-.36q-.66-.36-1.26-.69-.6-.33-1.26-.51L49.44 19q-.54-.12-.87.15-.33.27-.75.57-.72.48-1.38.99-.66.51-1.32.99t-1.32.9q-.66.42-1.14 1.02-.66.72-1.14.57-.48-.15-1.26-.45-.24-.06-.72-.3t-1.05-.45q-.57-.21-1.05-.3-.48-.09-.72.09.3.3.24.75t-.12.75q-.12.54-.18 1.08t-.12 1.02q-.12 1.14-.21 2.25t-.21 2.31q-.72-.48-1.41-.9-.69-.42-1.47-.72-.78-.24-1.8.24t-1.8.66q0-.3.12-.54.12-.24.18-.54.12-.48.18-.93.06-.45.18-.93.12-.48.18-1.02t.24-.96q.18-.42.33-.93.15-.51-.39-.81-1.02-.48-1.98-.96t-2.04-.78q-.48-.18-1.02-.33-.54-.15-1.02-.33-.36-.12-.42-.03t-.03.27q.03.18.12.45t.09.45q.06 1.2-.06 2.31t-.18 2.31q0 .66-.03 1.26t-.03 1.26q0 .48.03 1.26t-.21 1.2q-.18.3-.96.45-.78.15-1.14.27-.54.12-1.08.27-.54.15-1.14.27-.48.12-.9.21-.42.09-.9.21-.66.06-1.02-.06t-.9-.36q.06.9.81 1.8t1.41 1.44q.54.48 1.38 1.17.84.69 1.68.51.48-.12.99-.39t.99-.21q0 .66-.12 1.26T22.8 40v.63q0 .33-.06.63 0 .42-.48.27-.48-.15-.78-.15-.72-.12-1.44-.21t-1.44-.03q.42 2.52.57 5.1.15 2.58.57 5.16.18 1.26.42 2.52t.84 2.34q.06.12.3.45t.48.6q.24.27.45.36.21.09.21-.27.06-.42.03-.9-.03-.48.09-.9.6.24 1.23.42t1.29-.12q.66-.3 1.14-.81.48-.51 1.08-.99 0 .24-.03.81-.03.57.27.63.48.06.75-.3t.57-.66q.6-.66 1.14-1.41.54-.75 1.26-1.23 1.26-.9 1.62-2.16.06-.18.21-.24t.21-.24l.54-1.08q.12-.3.18-.51.06-.21.18-.45.24 0 .36-.06-.12 1.5-.18 3t-.18 3q-.06.66-.03 1.29t.15 1.29v.51q0 .33.06.69.06.36.15.66.09.3.21.36.3-.42.45-.66.15-.24.27-.78.12-.48.3-.99t.12-.99q0-.36.24-.72t.3-.78q.06-.3.18-.42t.18-.36q.06-.12.18-.54.12-.42.12-.48-.12-.48.06-.96t.45-.96q.27-.48.48-.93.21-.45.21-.87 0-.72.36-.81.36-.09.84.18t.96.63l.72.54q-.06.12-.24.03l-.3-.15q.3.54.81.84.51.3.93.78.24.3.45.63.21.33.51.63.24.3.54.57.3.27.42.63.06.12.42.42t.48.42q.24.12.12.3-.06.24.09.36t.27.24q.48.54.81 1.23.33.69.81 1.35.48.6.69 1.38.21.78.81 1.32l.48.48q.3.3.66.6.36.3.72.48t.6.06q.72-.3 1.17-1.08.45-.78.81-1.44.48-.72.84-1.5t.6-1.62q-.3-.06-.54-.12-.24-.06-.06-.48.12-.3.24-.63t.24-.75q.3-1.02.27-2.01-.03-.99.09-2.07 0-.48.03-.84t.09-.84q.12-.42-.06-.81-.18-.39-.06-.87.12-.54.06-1.08t.06-1.08q.18-.66.06-1.62-.12-1.02 0-2.04t.12-2.04q0-.6.06-1.17t.06-1.11q0-.48-.06-1.05-.06-.57.06-1.05.12-.42.09-.84t-.03-.84q.36-.42.33-.69-.03-.27.09-.75.3-1.02.24-2.25t0-2.31zM28.98 43.78q-.12.78-.21 1.53t-.21 1.53q-.06.48-.09 1.2t-.51 1.02q-1.2.66-2.37 1.38-1.17.72-2.37 1.32 0-.48-.06-.78 0-.48.09-.39.09.09.33-.21.12-.24.21-.6t.09-.6q-.06-.36.12-.72t.06-.72q-.06-.3.09-.72t.21-.78q.24-.78 1.02-1.17.78-.39 1.38-.93 1.02-.84 2.22-1.68 0 .36.03.69.03.33-.03.63zm4.32-4.74q-.84-.24-1.68-.45-.84-.21-1.68-.39-.42-.06-.6-.03t-.48.33q-.36.42-.84.72t-.96.66q-.36.3-.75.57-.39.27-.81.57-.24.18-.6.54-.36.36-.66.42-.3.06-.3-.06t.09-.33q.09-.21.21-.42t.18-.27q.24-.36.48-.69.24-.33.48-.69.3-.54.72-1.17.42-.63.9-1.05.3-.18.36-.48t.24-.6q.3-.36.72-.42t.78-.24q.36-.18.81-.21.45-.03.75-.21.36-.18.75-.3t.81-.24q.9-.3 1.83-.57.93-.27 1.83-.57-.12 1.62-.36 3.24t-.42 3.24q-.48-.24-.9-.48-.42-.24-.9-.42zm6.3 3.18q-.12-1.2.3-2.52t.72-2.52q.12-.36.42-.27.3.09.48.09.36.06.63-.15t.57-.33q.12-.06.45-.3t.72-.45q.39-.21.72-.36.33-.15.45-.03-.3.78-.96 1.53-.66.75-1.26 1.35.24.3-.09.51-.33.21-.45.39-.12.24-.15.33-.03.09-.21.21-.3.18-.42.21t.18.33q-.36.12-.54.39-.18.27-.42.45.18.42-.33.69-.51.27-.81.45zm7.86-5.7q.6-.3 1.2-.63t1.08-.81q.12.54.09 1.11-.03.57-.09 1.11 0 .18-.27.39-.27.21-.57.36-.3.15-.6.27-.3.12-.48.18-1.32.6-2.61 1.2-1.29.6-2.67 1.08-.06-.24.12-.21t0-.15q.3-.24.63-.36t.63-.48q.3-.36.69-.54.39-.18.69-.48.24-.3.48-.42t.54-.36q.3-.3.57-.63.27-.33.69-.45-.06-.06-.06-.09t-.06-.09zm-6.36 4.74q0 .3-.24.06.06 0 .12-.03t.12-.03zm3.9 8.58l-.18-.18q.36 0 .18.18zm4.68 2.58q-.24-.06-.54-.27-.3-.21-.48-.33-.48-.3-.96-.57-.48-.27-.96-.57-.36-.24-.6-.45-.24-.21-.6-.33-.54-.18-1.02-.42-.24-.12-.3-.27-.06-.15-.3-.33-.42-.3-.81-.48-.39-.18-.81-.48-.48-.36-.99-.54-.51-.18-1.05-.48.18-.18.81-.63.63-.45 1.38-.9.75-.45 1.41-.72.66-.27.84-.03-.36.42-.75.81-.39.39-.75.81.3.12.6-.12t.54-.42q.3-.24.57-.33.27-.09.57-.27.54-.3.78-.72.42 0 .66-.24.9-.66 1.74-1.2.06.12.24.03l.36-.18q.18-.09.33-.09.15 0 .15.3v3.24q0 .84.03 1.65.03.81.03 1.65.06.72.09 1.47t-.21 1.41zm.18-24.06q0 .24-.54.51t-1.23.54q-.69.27-1.32.51-.63.24-.87.3-.48.3-1.02.48t-1.02.42q-.48.3-.99.63t-1.05.39q.18-.84.33-1.56.15-.72.27-1.56.06-.18.06-.54 0-.36.12-.48.3-.3.66-.45.36-.15.66-.39.72-.6 1.47-1.14.75-.54 1.53-1.14.66-.54 1.38-1.29.72-.75 1.5-.99.3.48.21 1.41-.09.93-.09 1.47v1.44q0 .72-.06 1.44zM46.32 50.2q.18.12.18 0-.12-.18-.18 0zm71.76 7.8q-.3-.12-.09-.57.21-.45.27-.57 0-.12-.21-.39t-.27-.39q-.12-.48-.45-1.02t-.33-1.02q-.36-.06-.06-.36.18-.3 0-.3t-.24-.36q-.06-.42 0-.81.06-.39-.06-.81-.12-.42-.24-.48t-.24-.42q.36-.36.06-.51-.3-.15-.6-.09v-.48q-.3.18-.48-.12l.3-.3q-.12-.06-.24-.09t-.24-.09q0 .6-.18.84-.18-.12-.12-.45t-.06-.45q.18-.24.21-.27.03-.03.33.09.24-.3.03-.33-.21-.03-.39-.03.06-.18.06-.24t-.24-.12q.06.06-.12.3t-.3.3q-.12-.06-.36-.3.3.06.36-.33t0-.63q-.06-.6.18-.45.24.15.54-.09-.54-.12-.63-.27-.09-.15-.03-.63-.24 0-.21-.18t-.33-.3q.12-.12.15-.21t.15-.21q-.24-.12-.15-.27.09-.15.33-.15.06-.12-.15-.21t-.27-.15l.21-.21.21-.21q-.24-.18.12-.24-.18-.18-.09-.33.09-.15.21-.39-.3-.18-.15-.42t-.21-.36q.3-.24.21-.24t-.09-.24q.3-.06.3-.36v-.54q.06-.36.06-.57 0-.21.18-.57l-.12.12q-.06-.12-.12-.18t-.12-.18q-.18.24-.6.24 0 .12.18.15t.3.03q-.42.36-.63.9-.21.54-.27 1.08.12 0 .18-.33t.06-.39q.12.18.12.54 0 .36-.36.36t-.21.3q.15.3.33.36 0 .18-.03.54-.03.36-.09.66-.06.3-.18.54-.12.24-.36.12 0 .24-.03.45-.03.21.21.33-.24 0-.42.06.18.12.27.15.09.03-.09.15.06.06.12.09t.12.09v.12q-.42-.12-.51.3-.09.42-.09.78 0 .42-.09.69-.09.27.45.39-.18.24-.3.18t-.18.36q-.06.36-.03.9t-.09.9q-.3.9-.24 1.8t-.06 1.86q0 .42-.06.81-.06.39-.12.75-.06.42-.75.63-.69.21-.99.33-1.14.48-2.28.66-1.14.18-2.34.3-.6.06-.6-.6 0-.6.09-1.17t.21-1.11q.3-1.92.72-3.66.24-1.02.54-2.07.3-1.05.54-2.07.12-.6.27-.87.15-.27-.33-.75-.24-.24-.66-.42-.42-.18-.54-.48.24-.12.48-.3t.54 0q.84.48 1.74.48.78 0 1.2-.75.42-.75.6-1.35.12-.36.24-.63t.24-.63q.12-.24.12-.39 0-.15.12-.39.18-.42.27-.96.09-.54.39-.9.24-.36.36-.9t.24-1.02q.12-.48.03-1.05-.09-.57.15-1.05.24-.48.15-1.08-.09-.6.39-1.14.18-.24.27-.6.09-.36.15-.66.06-.3.24-.87.18-.57-.12-.57.06-.24.21-.6t-.15-.54q-.48.54-1.17 1.23t-.93 1.35q-.06.18-.36.51t-.66.69q-.36.36-.63.69-.27.33-.15.51.06.18-.09.42t-.39.51q-.24.27-.48.51l-.36.36q-.48.66-.87 1.32t-.87 1.32q-.12.18-.33.45-.21.27-.42.45t-.45.15q-.24-.03-.42-.45-.18-.36-.42-.69-.24-.33-.48-.63-.3-.48.03-.66.33-.18.57-.48.18-.24.51-.36t.57-.3q.24-.18.48-.39.24-.21.48-.45.6-.66 1.26-1.23t1.26-1.23q.48-.6.99-1.17t1.05-1.05q.36-.42.51-.57.15-.15-.15-.69-.18-.36-.42-.72t-.54-.66q-.3-.3-.63-.6t-.63-.6q-.42-.42-.06-.54.36-.12.78-.3.18-.12.57-.21.39-.09.69-.24.3-.15.51-.39.21-.24.03-.6-.3-.78-1.05-1.35-.75-.57-1.41-1.05-.6-.36-1.14-.69-.54-.33-1.2.03-1.74 1.02-3.69 1.95-1.95.93-3.87 1.59-.18-.66-.24-1.23t-.24-1.23q-.12-.48-.24-1.14-.12-.66-.66-.96-.78-.36-1.53-.39-.75-.03-1.59-.15-.18 0-.51-.06t-.63-.06q-.3 0-.48.12t-.06.42q.48 1.5.87 3t.69 3.06q.12.72-.42.87-.54.15-1.14.39-.84.3-1.35.24-.51-.06-1.29-.3.06.6.42 1.08.36.48.84.87t1.02.72q.54.33.96.63.42.3 1.08.69.66.39 1.14.03.12-.06.33.27.21.33.39.81.18.48.36.93.18.45.24.57.24.66.54 1.23.3.57-.3 1.05l-2.34 1.8q-1.02.84-2.16 1.47-1.14.63-2.22 1.29.06-.3.12-.63t-.12-.63q-.12-.24.12-.39.24-.15 0-.45-.12-.18.03-.39.15-.21.21-.45.12-.42.09-.87t-.03-.93q0-.42.03-.84t.09-.84q.06-.66 0-1.5t.24-1.38q.18-.42-.36-.81-.54-.39-1.32-.72-.78-.33-1.53-.54-.75-.21-.99-.27-.3-.06-.69-.18-.39-.12-.84-.18-.45-.06-.84 0-.39.06-.63.3-.54.66-1.08 1.38-.54.72-1.2 1.38-.42-.72-1.26-1.08-.84-.36-1.56-.66-.18-.06-.69-.24t-1.05-.36q-.54-.18-.99-.27-.45-.09-.57.09.42.72.42 1.83t.06 1.95q.06 1.02.06 2.1t.06 2.1q.12 1.92.21 3.84t.21 3.84q.06.9.03 1.83t.09 1.89l.12 1.08q.06.54.18 1.08t.03.66q-.09.12-.57.3.42.72.99 1.35.57.63 1.2.99t1.35.3q.72-.06 1.5-.78.54-.48 1.2-1.08.66-.6.96-1.26.24-.6.87-1.02.63-.42.81-1.02.12.84.09 1.74t.09 1.74q.06.18.06.63t.3.51q.18.12.48-.21.3-.33.42-.57.24-.72.42-1.44t.48-1.44q.06-.3.27-.54.21-.24.33-.54.12-.3.09-.57-.03-.27.27-.39-.36-.12.06-.36.42.42.6.66.3.3.66.57.36.27.66.57.42.3.81.48.39.18.81.36.36.12.78-.24.42-.36.78-.18-.3.84-.72 1.56-.42.72-.9 1.44-.42.78-.81 1.5-.39.72-.87 1.44-.84 1.26-2.19 2.52t-3.03 1.26q.54.72 1.35.9.81.18 1.71.09.9-.09 1.77-.39.87-.3 1.53-.66.72-.3 1.47-.75t1.23-1.11q.36-.48 1.02-1.02t.78-1.26q.18.06.42-.18t.51-.6q.27-.36.45-.69.18-.33.3-.51.18-.3.27-.63.09-.33.33-.57.24-.24.36-.45.12-.21.24-.51.24-.36.33-.75.09-.39.27-.81.12-.42.3-.84t.18-.84q.06-.48-.09-.63-.15-.15.39-.39.48-.24.42.18t-.12.66q-.36 2.04-.72 4.14-.36 2.1-.3 4.2.06.3.03.72t.15.72q.18.3.54.6.36.3.66.6.72.66 1.41 1.23t1.53.99q1.74.84 3.99.87 2.25.03 4.05-.39 1.02-.3 1.98-.66.96-.36 1.98-.72l.72-.24.72-.24q.3-.12.42-.54.12-.42-.3-.54zM81.66 37.54q.12-.48.12-.93 0-.45.12-.93.12-.54.3-.81t.66-.63l1.44-1.44q.06-.12.27-.36.21-.24.45-.48.24-.24.48-.33.24-.09.36.09.18.3.09.99t-.09.99q-.06.48.06 1.26t-.24 1.08q-1.02.84-1.98 1.74t-1.98 1.62q-.12-.42-.12-.93t.06-.93zm3.78 6.96q-.54.42-1.05.81-.51.39-1.05.75-.3.3-.66.63-.36.33-.72.45.06.12-.15.36t-.48.51q-.27.27-.57.48-.3.21-.42.33-.06-.18-.15-.15t-.21.12q-.12.09-.27.18-.15.09-.27.03.06-.18.06-.36t.12-.36q.12-.18.3-.54.18-.36.18-.54-.06-.48.18-.48t.18-.42q-.24-.24.06-.36.24-.24.18-.33-.06-.09.06-.33.12-.24.24-.84.06-.18.09-.42t.09-.48q.12-.48.24-.66.12-.18.6-.48.36-.3.72-.54.36-.24.78-.42.12.12-.06.48t-.24.54q-.12.48-.33.96-.21.48-.39.96.24-.24.6-.63t.66-.21q.3-.24.57-.42.27-.18.57-.48.12-.12.27-.24.15-.12.27-.36.12-.3.33-.24.21.06.21.48-.06.66-.03 1.23t-.51.99zm15.6-3.96q-1.44.72-2.85 1.47-1.41.75-2.85 1.41-1.26.66-2.64 1.35-1.38.69-2.76 1.05.06-.18.03-.18t-.21-.06q.06-.06.21-.33t.24-.54q.09-.27.12-.51t-.09-.24q.12-.3.21-.54.09-.24.09-.6 0-.3-.03-.54-.03-.24.27-.3.42 0 .87-.21t.87-.09q.18.06.69-.15t.69-.33q.42-.18.96-.18.48-.06.36-.21t.18-.27q.12-.06.3.06t.3.12q.12-.06.33-.09.21-.03.33-.09.24-.06.72-.27.48-.21.66-.39.12-.12.36-.15t.36-.09q.24-.12.42-.24t.42-.24q.3-.12.48-.18t.42.24q.18.3.33.57.15.27.45.57-.12.06-.24.18zm.54-9q-.06.06-.3.18-.18-.48-.3-.93-.12-.45-.24-.93-.12-.6-.06-.78.06-.18.6-.42 1.08-.48 2.22-1.05 1.14-.57 2.34-.87.06.12-.18.42t-.54.66q-.3.36-.63.69l-.39.39q-.66.66-1.26 1.32t-1.26 1.32zm75.66 25.8q-.42.12-.6.18t-.6-.24l-1.8-1.44q-.84-.66-1.59-1.41-.75-.75-1.59-1.41-.84-.66-1.74-1.38-.9-.72-1.8-1.38-.84-.66-1.71-1.5t-1.89-1.32q.42-.48.9-1.02.48-.54.78-1.14.3-.6.72-1.23l.78-1.17q.48-.6.93-1.2.45-.6.75-1.26.3-.48.6-1.17t.84-.81q.54-.12.6-.36.06-.24-.09-.51t-.42-.57q-.27-.3-.51-.48-.6-.6-1.2-1.11-.6-.51-1.38-.93-.6-.3-1.05-.57-.45-.27-1.05.03-.96.48-1.86.96-.9.48-1.86.96-.12-.18.27-.63t.9-.87q.51-.42.96-.75.45-.33.57-.27l.3-.3q.18-.18.3-.24.48 0 .27-.03-.21-.03-.09-.27.48.12.75-.15t.75-.45q.3.12.48 0t.33-.27l.27-.27q.24-.12.45-.24.21-.12.45-.24.54-.36 1.11-.72.57-.36 1.11-.84.3-.24.54-.36.24-.12.54-.3.18-.12.42-.3t.18-.48q.3.12.36-.12.12-.18.24-.15t.3-.09q.3-.18.57-.42.27-.24.57-.48.3-.24.45-.51.15-.27.39-.57.36-.42.27-.69-.09-.27-.45-.75-.72-.78-1.53-1.35-.81-.57-1.71-1.11-.84-.54-1.68-.12-.84.42-1.68.78-.84.42-1.74.66-.9.24-1.74.6-.3.12-.36-.3t0-.99q.06-.57.15-1.14t.09-.69q-.12-.3-.48-.6t-.84-.54q-.48-.24-.96-.42t-.72-.3q-.42-.18-.87-.33-.45-.15-.93-.33-.36-.12-1.02-.42t-1.02 0q.3.6.63.87t.33.93q.06.78.06 1.5t.06 1.5v1.35q0 .69.06 1.41 0 .66-.54.81-.54.15-1.14.39-.66.24-1.32.45-.66.21-1.32.45-.3-.66-.78-.96-.48-.3-1.14-.6-.66-.24-1.32-.45-.66-.21-1.32-.33l-1.08-.27q-.6-.15-1.08.03.36.36.78.72.42.36.48.9.12.54.12 1.11v1.11q.12 1.08.12 2.19v2.19q.06 2.4-.03 4.83t-.39 4.83q-.3 2.16-.81 4.44-.51 2.28-1.38 4.5-.87 2.22-2.04 4.23-1.17 2.01-2.73 3.63.54-.12 1.05-.51t.99-.69q.3-.18.48-.3t.48-.42q.24-.3.54-.63.3-.33.6-.57.66-.48 1.17-1.17.51-.69 1.11-1.29.54-.6.96-1.23.42-.63.96-1.29t.78-1.38q.24-.72.72-1.5.18-.36.24-.75t.18-.75q.12-.42.3-.81.18-.39.3-.87.18-.66.3-1.32t.3-1.26q.12-.48.36-.42t.54.24q.24.18.48.3.12.12.21.15t-.15-.09q.06.12.06.15t.06.15q-.12-.06-.24-.09t-.24-.09q.24.18.45.33.21.15.45.39-.36.12-.12.33.24.21.36.33.24.24.36.48l.24.48q.72 1.02 1.62 1.92.24.24-.12.87t-.93 1.32q-.57.69-1.2 1.29-.63.6-.81.84l-1.08 1.08q-.54.54-1.14 1.02-.42.42-.96.84t-1.02.66q-.48.24-1.08.66-.6.42-1.08.72-.36.24-.69.36-.33.12-.69.42 1.38.06 2.73-.39t2.55-1.11q-.06.3.03.24t.33-.18q.24-.12.48-.18t.48-.18q.54-.3 1.11-.57.57-.27 1.05-.63.42-.24.81-.33.39-.09.69-.39.48-.3 1.02-.9.54-.6 1.02-.72.54-.12.78-.54.24-.42.72-.6.48.42.84.87t.72.93q.36.42.66.84.3.42.72.72.3.18.48.42t.48.42q.18.12.3.33.12.21.3.27.3.12.69.54.39.42.57.66.36.42.78.69.42.27.72.63.24.3.33.27.09-.03.21.27.12.24.39.45.27.21.45.39.24.18.57.69.33.51.63.63t.27.21q-.03.09.15.21.18.18.39.3.21.12.39.24.48.42 1.17.06t1.05-.66q.54-.36.96-.81.42-.45.9-.93.18-.18.48-.45t.6-.57q.3-.3.48-.6t.12-.54q-.12.06-.3.09t-.3.09zm-11.88-25.32q-.12-.24.12-.12.12.12-.12.12zm.42-3.78q-.18-.18.12-.18-.06.06-.06.09t-.06.09zm-2.34 2.4q.3-.48.3-1.08 0-.6.18-1.08.18-.6.99-.87t1.35-.27q-.66.96-1.41 1.83-.75.87-1.41 1.89-.24-.18 0-.42zm-8.76 21.24q-.06-.3.18-.12-.06 0-.18.12zm.96 2.22q-.06-.12.03-.18t.21.06l-.24.12zm-1.14-14.88q-.06.06-.24.06.12-.66.12-1.23t.06-1.23q.06-.3 0-.54-.06-.24 0-.54.06-.36.15-.66.09-.3.09-.66 0-.6.06-1.23t.12-1.29q0-.3-.03-.69-.03-.39.39-.45.48-.06.96-.18l.96-.24.72-.24q.36-.12.78-.24.24-.06.3.12t.06.39q0 .21-.03.48t-.03.39q-.12.84-.18 1.74l-.12 1.8v1.53q0 .45-.09.81-.09.36-.33.42-.96.42-1.86.84-.9.42-1.86.84zm2.28 5.82q-.18.12-.18-.06.24-.06.18.06zm3.48-.42l-3.42-2.52q1.62-.78 3.12-1.26.18-.06.66-.3.48-.24 1.02-.48t.99-.39q.45-.15.57-.03-.72 1.26-1.41 2.52t-1.53 2.46zm-16.74 6.96q.24-.6.6-1.14.36-.54.66-1.08l.36-.6.36-.6q.12-.3.21-.6t.33-.48q.12-.18.15-.54.03-.36.15-.66.12-.24.42-.63t.18-.69q.18-.3.33-.6.15-.3.21-.66.06-.3.15-.6t.09-.6q-.9.24-1.59.87-.69.63-1.41 1.23l-1.8 1.44q-.9.72-1.74 1.5-.9.84-1.8 1.62l-1.8 1.56-.78.78q-.42.42-.9.72-.42.18-.75-.21t-.75-.21q.48 1.32 1.68 2.55 1.2 1.23 2.52 1.77.96.42 1.5-.18t1.2-1.26 1.2-1.26q.72-.72 1.02-1.44zm-6.84-23.4q.66.42 1.29.78.63.36 1.41.54.84.18 1.65.12.81-.06 1.65 0 .36.06.81.09.45.03.81-.03.48-.06.84 0t.84.06q.18 0 .3-.18.18.06.39.18.21.12.39.06.3 0 .69-.09.39-.09.63-.21-.42-.6-1.02-.99-.6-.39-1.2-.81l-2.7-1.8q-1.2-.78-2.61-1.56t-2.31-1.86q-.3-.36-.06-.9.12-.12.03-.48t-.33-.06q-.42.48-.66 1.02-.24.54-.42 1.14-.18.66-.33 1.35-.15.69-.27 1.35-.12.42-.21 1.2t.39 1.08zm10.26 7.74q0-.18-.72-.24t-1.56-.09q-.84-.03-1.65-.03h-2.46q-.75 0-1.53-.06h-.75q-.39 0-.75-.06-.3-.06-.48-.24t-.42-.3q-.3 1.08-.06 2.4.24 1.32.54 2.4.12.48.27 1.05.15.57.75.57.66.06 1.26-.15t1.2-.51q.42-.3.66-.69.24-.39.66-.69.78-.42 1.56-1.02.42-.3.78-.48l.84-.42q.42-.18.75-.48t.81-.42q-.24 0-.24-.18.12-.06.33-.12.21-.06.21-.24zm89.94 2.88q-.12.12-.24.36t-.27.45q-.15.21-.33.36-.18.15-.36.09-.84-.12-1.62-.24-.78-.12-1.62-.36-1.5-.42-2.97-.81-1.47-.39-2.97-.87-2.88-.84-5.67-1.53-2.79-.69-5.67-1.35.18-.18.18-.15t.18-.09q.24-.12.33-.42.09-.3.21-.48.36-.48.75-.84t.69-.84q.3-.48.75-.9.45-.42.81-.9.42-.66.81-1.32.39-.66.75-1.32.3-.66.39-1.05.09-.39-.45-.99-.42-.48-.84-.93-.42-.45-.84-.93-.48-.54-.93-1.02-.45-.48-.99-.96-.42-.36-.93-.87t-1.05-.69q.18 1.14.66 1.8.42.66.36 1.02t-.36 1.02q-.48 1.08-.99 2.16t-1.17 2.1q-1.26 2.1-2.64 4.11-1.38 2.01-2.82 3.93-1.38 1.8-2.97 3.39-1.59 1.59-3.15 3.21l-1.32 1.32q-.66.66-1.5 1.14-1.02.66-1.92 1.05-.9.39-2.16.27 0 .18.33.36t.51.24q.42.3.96.33.54.03 1.02.03.36-.06.75-.09t.75-.15q.24-.12.72-.45t.78-.21v.18q.42-.3.78-.51.36-.21.84-.39.42-.24.72-.57.3-.33.72-.57 0-.3.39-.3t.33-.36q.48-.12.93-.45.45-.33.87-.63.36 1.38.45 2.88.09 1.5.21 2.88.18 1.5.42 3t.6 3q.3 1.26.87 2.67.57 1.41 1.77 2.25.42.3.6.21t.21-.36q.03-.27 0-.63t-.03-.6q0-.54-.03-1.05t.33-.99q.42.72 1.05 1.02.63.3 1.35.33.72.03 1.44-.12t1.44-.33q1.62-.36 3.33-.78 1.71-.42 3.39-.6.78-.12 1.5-.18t1.5-.18q.18 0 .63.03t.9.03q.45 0 .75-.12t.24-.48q-.12-.24-.36-.45-.24-.21-.36-.45-.42-.72-1.14-1.38-.66-.6-1.41-1.11-.75-.51-1.41-1.17.3-.48.75-1.05.45-.57.93-.81.3-.12.48-.42t.48-.3q.3.06.63-.15t.45-.45q.42-.48.78-1.02.36-.54.84-1.02.06-.06.45.06t.84.3q.45.18.84.36.39.18.57.24.3.12.63.21t.63.27q.3.12.54.33.24.21.6.03.6-.3.75-1.23.15-.93.21-1.53t.3-1.2q.24-.6.36-1.26.18-.84.3-1.62.12-.78.24-1.62-.3 0-.36.18zm-15.9.48q-.06 0-.12.03t-.18.03q-.12-.24.06-.18t.24.12zm-.42-.24q.12 0 .15.03t.09.03q-.3.12-.24-.06zm-3.3-1.86h.12q0 .24-.12 0zm-6.78 3.84q-.3-.12-.6-.12t-.6-.12q.3-.36.63-.54.33-.18.63-.48.36-.36.69-.75.33-.39.81-.69-.18-.18.33-.66.51-.48.81-.48-.06-.06.09-.24t.33-.36q.18-.18.39-.36.21-.18.33-.18.18-.06.6.18t.66.36q.3.12.66.24.36.12.6.3.18.12.81.42.63.3.63.42h-.24l-.06.06.36.12.36.12q-.12-.3.06-.24t.06.36q.48.3.84.3.48 0 .48.24t.3.36q.3.12.36.24t.3.24q-.18.12-.39.21-.21.09-.39.21l1.08-.36q-.18.12-.36.21t-.36.21l-.12.06q-.12.06-.21.09t-.15 0q-.06-.03.06-.15-.12.06-.42.12t-.24.18l.36-.06-.12.06-.3.15q-.18.09-.24.15-.48.18-.87.39-.39.21-.87.39.18-.18.24-.3-1.32.66-2.64 1.35-1.32.69-2.64 1.35-.12-.48 0-.96t-.06-.96q-.18-.48-.84-.72-.66-.24-1.14-.36zm12.84 2.82q-.72.96-1.32 1.95-.6.99-1.38 1.89-.18.24-.33.21-.15-.03-.03.27-.12.24-.36.36t-.36.3q-.12.12-.27.51-.15.39-.27.45-.3.06-.6.57t-.48.75q-.42.6-.81.84-.39.24-1.11.36l-2.88.54q-.24.06-.51.12t-.48.03q-.21-.03-.3-.18t.03-.57q.12-.48.21-.81.09-.33.03-.81-.12-.54 0-.87.12-.33.06-.81-.12-.6.18-.72t.78-.12q.54 0 1.08-.27t1.02-.45q1.2-.54 2.31-1.11 1.11-.57 2.19-1.17.54-.3 1.17-.54.63-.24 1.11-.6.06-.06.36-.18t.57-.18q.27-.06.42-.03.15.03-.03.27zm-5.4-23.1q.12.48.45.87t.69.69q.42.36.72.75t.78.75q.42.36.54.57.12.21.42.57.3.3.63.72t.69.54l-.3.3q.42.3.69.66.27.36.57.66.24.3.42.75t.48.75q.3.36.57.78.27.42.57.72.42.48.69 1.17.27.69.81.99.24.12.51.33.27.21.54.39.27.18.57.24.3.06.6-.06.48-.3.87-.96.39-.66.63-1.14.54-1.32 1.38-2.49.84-1.17 1.08-2.55-.42.18-.69.48-.27.3-.63.48t-.96-.06q-.6-.24-.96-.42-.96-.48-1.92-.99t-1.86-1.11q-1.2-.72-2.4-1.41t-2.4-1.41q-.18-.12-.84-.51-.66-.39-1.38-.78-.72-.39-1.32-.63-.6-.24-.66-.06.18.06.42.42zM201 35.02q.3-.12.48-.09t.36-.21q.12-.12.54-.36.42-.24.42-.36.12-.24.39-.33.27-.09.45-.21.42-.3.81-.54.39-.24.87-.48.3-.12.54-.33.24-.21.54-.33.42-.12.78-.33.36-.21.72-.33.66-.24 1.23-.72t1.17-.9q.24-.18.51-.39.27-.21.39-.45.12-.12.3-.27.18-.15.42-.03.12-.24.27-.45.15-.21.33-.45.3-.3.54-.69.24-.39.6-.69.3-.3 0-.75t-.48-.69q-1.2-1.44-2.94-2.46-.66-.42-1.5-1.14t-1.68-.84q.12.48.36.87t.54.81q.3.42.24.72t-.3.72q-.54 1.08-1.17 2.07-.63.99-1.29 2.01-.66 1.02-1.41 2.07-.75 1.05-1.41 2.07-.3.48-.54.93-.24.45-.6.87-.3.3-.6.87-.3.57-.36.99.36.18.48-.18zm17.58 6q0-.12-.18.06.12.12.18-.06zm62.28 8.76q-.36.18-.66.39-.3.21-.66.39.06-.12.06-.18t.06-.12q-.3 0-.42.06.12.3-.24.42t-.54.24l.54.18q-.06.12-.3.33-.24.21-.51.39-.27.18-.48.3-.21.12-.21.18.12.24-.18.51t-.72.51q-.42.24-.87.39-.45.15-.63.15.3.48-.33.63-.63.15-.99.27-.48.06-.87.33t-.69.69q-.24.36-.72.24-.12-.06-.54.18-.42.24-.6.36-.54.18-.87.39-.33.21-.87.39.3.42.27.54-.03.12-.51.3-.6.24-1.17.45-.57.21-1.11.39-.36.12-.87.36t-1.05.42q-.54.18-1.05.21t-.87-.27q-.66-.48-1.2-1.35-.54-.87-.9-1.53-.48-.96-.87-1.98t-.81-2.04q.48.18.99.09t.99-.27q.36-.12.84-.18t.78-.36q.3-.24.48-.69.18-.45.36-.75.36-.66.69-1.23.33-.57.69-1.23 1.14-2.1 2.28-4.23 1.14-2.13 2.28-4.29-.78-.12-1.65.03-.87.15-1.65.39-1.74.6-3.24 0-.84-.3-1.56-1.05-.72-.75-1.32-1.41-.72-.84-1.38-1.62-.66-.78-1.2-1.68.3-.24.63 0t.63.36q.54.18 1.38.06.84-.18 1.62-.33.78-.15 1.62-.27 1.74-.3 3.48-.57 1.74-.27 3.48-.57 3.24-.6 6.51-1.2 3.27-.6 6.57-1.26 1.62-.3 3.27-.54 1.65-.24 3.27-.54.18-.06.57-.18.39-.12.78-.21t.75-.12q.36-.03.54.15.48.54 1.02 1.05t1.02.99q.18.18.69.81.51.63.96 1.35.45.72.6 1.26.15.54-.45.54-.3 0-.57.21-.27.21-.57.33-.54.24-1.23.3t-1.35.12q.12.06.15.12t.09.12q-.36.24-.78.09-.42-.15-.84-.09-.48 0-.96.06t-.96.18q-.9.12-1.86.24-.96.12-1.86.36-.36.12-.72.15t-.72.09q-.36.12-.78.12-.42 0-.72.12-.36.24-.6.3t-.72.12h-.39q-.27 0-.51.09t-.3.24q-.06.15.18.45-.12-.06-.3-.06.84 1.02 1.77 1.86.93.84 1.89 1.8.36.42.75.81l.81.81q.12.12.33.36.21.24.45.48.24.24.48.42t.48.12q-.12.24.12.57.24.33.57.66.33.33.66.6.33.27.51.45.66.72 1.32 1.38l1.32 1.32q.66.66 1.35 1.32.69.66 1.35 1.32.48.48 1.17 1.2t1.53.72q-.54.66-1.2 1.2l-1.32 1.08q-.3.3-.6.63t-.6.63q-.3.3-.72.48t-.72.48q-.54.66-1.2.45-.66-.21-1.26-.78-.6-.57-1.11-1.29-.51-.72-.75-1.08-.36-.48-.54-1.02 0-.24-.03-.42t-.03-.42l-.3-.12v-.3q-.06-.42-.27-.63l-.51-.51q-.24-.3-.39-.57-.15-.27-.39-.57-.24-.3-.33-.66-.09-.36-.21-.72-.12-.42-.36-.81-.24-.39-.42-.81.3-.3.09-.6t-.63-.12q-.18.12-.75.36-.57.24-.39.36-.3.12-.63.21t-.63.21q.06.12.15.09l.18-.06q.09-.03.21-.06t.18.09zm-2.58-11.1q-.66.36-.42.63.24.27.36.87.12.48-.39.9-.51.42-.75.78-.48.54-.87 1.11-.39.57-.81 1.17-.48.66-.84.99-.36.33-1.2.21 0 .18.42.3 0 .12-.24.12t-.45.06q-.21.06-.27.18-.06.12.3.42-.36.06-.78.66-.42.6-.72.9-.48.6-1.17 1.17t-1.35.87q-.06-.12-.06-.42-.3.24-.48.54-.18.3-.54.42 1.08-.12 2.1-.48t2.04-.66l2.16-.54q.54-.18 1.08-.42t1.08-.36q.54-.12 1.11-.27.57-.15 1.11-.27.12-.06.42-.18t.48 0q.12.12.42-.06t.42-.24l1.08-.27q.6-.15.48-.63-.12-.54-.33-.9-.21-.36-.51-.84.12 0 .18.03t.18.03q-.3-.84-.84-1.62-.54-.78-1.02-1.5.18-.06.06-.42t-.33-.78q-.21-.42-.42-.81-.21-.39-.21-.57-.12.06-.21.09t-.21.09q0-.18-.06-.3zm-1.02-.18q.24.24.42-.06-.12 0-.21.03t-.21.03zm-4.56-10.86q-.66-.12-1.29.03t-1.29.15q-.66 0-1.23-.51t-.99-.93q-1.2-1.02-2.19-2.28-.99-1.26-1.59-2.7.3-.18.96.3.66.48 1.08.48.66 0 1.32-.15t1.32-.27q1.38-.24 2.82-.42t2.88-.48q1.38-.3 2.79-.6 1.41-.3 2.79-.54.72-.12 1.41-.24t1.35-.24q.54-.12 1.11.42.57.54.99.9.9.72 1.8 1.68t1.38 2.04q.12.3-.03.48t-.42.27q-.27.09-.6.12-.33.03-.51.09-.6.12-1.11.24-.51.12-1.11.36-.84.42-1.71.66-.87.24-1.65.72-1.32.66-2.64.9h-1.08q-.3 0-.48.09t-.06.33q-.3.12-.84.24t-.9.06q-.48.24-.96.57-.48.33-.96.45-.18.06-.21 0t-.03-.12q0-.06-.06-.06t-.3.12q-.18.12-.45.24t-.51 0l-.24.12-.24.12q-.42.18-.84 0 .66-.66 1.35-1.26.69-.6 1.17-1.38zm84.72 7.26v-.18q-.36.12-.72.36-.18.24-.39.21-.21-.03-.51-.09-.84-.18-1.59-.36-.75-.18-1.59-.42-.78-.24-1.56-.42t-1.62-.36q-.84-.3-1.65-.42-.81-.12-1.65-.3-.66-.18-1.14-.39-.48-.21-1.14-.45.12-.12.24-.12t.3-.12l.06.12.27-.27q.21-.21.42-.45.21-.24.42-.42t.27-.18q.18 0 .15.12t.27 0q.12-.12.45-.3t.39-.36q.12-.12.33-.51.21-.39.51-.03.36-.42 1.02-.9.3-.12.24-.24t.06-.24q.24-.12.39-.3.15-.18.33-.3.18-.12.36-.21t.3-.33q.3 0 .66-.36-.12-.18.12-.51t.54-.69q.3-.36.57-.75.27-.39.33-.63.06-.42-.18-.78-.24-.36-.66-.63-.42-.27-.87-.48-.45-.21-.81-.39-.42-.24-.84-.42t-.9-.36q-.24.12-.48.3-.48.36-.6.36-.84.48-1.71.84t-1.71.84q.36-.42.84-.69.48-.27.9-.69.24-.24.57-.48.33-.24.57-.54.24-.3.3-.63t-.24-.69q-.54-.72-1.29-1.11-.75-.39-1.41-.93-.06-.06-.27-.24-.21-.18-.45-.3-.24-.12-.42-.12t-.18.24q0 .48-.36.9-.36.42-.6.72-.84 1.2-1.71 2.34t-1.83 2.22q-1.26 1.38-2.34 2.7-.48.54-.99 1.02t-.87 1.08q-.84-.66-1.98-1.23-1.14-.57-2.22-.09-.48.18-.93.33-.45.15-.87.39-.3.18-.87.51-.57.33-.87.39.3-.66.63-1.32t.81-1.26q.24-.24.15-.51t-.3-.51q-.21-.24-.48-.45-.27-.21-.45-.39-.66-.72-1.74-1.71t-2.1-.99q.12.48.36.84t.12.9q-.24.66-.51 1.38-.27.72-.57 1.38-.66 1.32-1.35 2.58-.69 1.26-1.35 2.52-.6 1.14-1.2 2.22-.6 1.08-1.26 2.22-.54 1.02-1.17 2.25-.63 1.23-.81 2.43.12-.12.42-.3t.42-.3q.12-.24.33-.33.21-.09.27-.45.06-.12.3-.45t.3-.51q.12.12.21 0t.21-.12q0-.42.12-.33.12.09.18-.21-.12.18-.3.12.12-.12.24-.36t.24 0q.36-.3.78-.6.42-.3.66-.78.06-.18.21-.15t.27-.03q.3-.12.42-.36t.3-.48q.12-.12.3-.36t.36-.45q.18-.21.39-.27.21-.06.39.12.3.3.57.51.27.21.69.33.24.12.6.03t.54.03q-.12.24-.24.57-.12.33-.36.45-.12.12-.3.48t-.24.54q.18-.12.39-.27.21-.15.33.03 1.14-.72 2.04-1.5.18-.12.45-.24t.39-.24q.12-.18.36-.45t.3.15q.24-.18.48-.39.24-.21.48-.45.12-.12.3-.27.18-.15.06.27.18-.3.69-.51.51-.21.81-.39.18-.12.24-.3t.24-.24q.3-.12.54-.3.24-.18.54-.3-.36.48-.45.93-.09.45-.39.93.48.12.81 0 .33-.12.75-.42.24-.24.42-.48t.42-.42q.18-.12.6-.03t.48.27q.12-.12.6.06t.78.24q.12 0 .18.09t.18.21q.3.12.66.24.36.12.66.06-.06.06-.06.24.6.12 1.14.36-.24.54-.81.87-.57.33-.93.81-.18.24-.57.51-.39.27-.45.57-.24-.06-.51.18t-.45.42q-.06.12.12.12t-.12.12q-.12.06-.27.09-.15.03-.27.15-.06.06-.12.06t-.12.12q.06 0-.09.09t-.33.21l-.36.24q-.18.12-.24.18-.3.18-.72.3t-.72.24q.06.12.03.12t-.03.12q-.12-.06-.12-.12t-.12 0q.3-.36.18-.39-.12-.03-.12-.39-.48.06-1.08.6-.6.54-1.02.84-.24.18-.48.42t-.45.39q-.21.15-.45.15-.24 0-.48-.36-.18-.24 0-.42t.48-.36q.3-.18.63-.33.33-.15.51-.27.66-.36 1.26-.75t1.32-.81q.18-.18.3-.24.18-.12.42.03t.42-.03q.36-.24 0-.6t-.54-.48q-.06-.12-.42-.36t-.3-.24q-.06 0-.33-.09t-.54-.21q-.27-.12-.48-.21l-.21-.09q-.78-.3-1.17-.33-.39-.03-1.05.45-.72.48-1.56.93-.84.45-1.5 1.11-.36.3-.78.57-.42.27-.84.57-.3.18-.81.63t-.87.45q-.12 0-.63.15t-.57.27q-.12.24.21.69.33.45.45.57.42.54 1.05 1.08.63.54 1.29.54.18-.06.3.06-.12.3.03.3t.21.3q.24.78-.42 1.38-.66.6-1.35 1.2-.69.6-1.41 1.14-.3.3-.66.6-.36.3-.72.48-.42.18-.6.21t.18.51l.48.6q.24.3.54.54.3.18.63.3t.63.3q.84.66 1.62.09.78-.57 1.44-1.05.06.36.21 1.11.15.75-.15 1.05-.48.42-.9.84-.42.42-.9.84l-.36.36q-.18.18-.42.3-.18.12-.45.06t-.39.12q-.06.12.12.33.18.21.42.45.24.24.51.42t.39.24q.54.36 1.08.63t1.2.39q.72.12 1.23-.33t.99-.93q.42-.42.75-.87t.75-.81q.24-.24.45-.54.21-.3-.15-.42.48-.3.66-.81.18-.51.6-.81-.18-.06-.15-.15t.15-.15q.12-.06.3-.12l.18-.06q-.12-.24-.12-.27 0-.03.3-.21-.12-.12-.12-.24.24.06.27 0 .03-.06.03-.18v-.21q0-.09.18-.03.12-.24.39-.72t.51-.6q-.36 0-.21-.09t.27-.27q.06-.12-.06-.48.12-.12.18-.3t.18-.3q.12-.24.27-.33.15-.09.03-.39-.06-.24.09-.27.15-.03-.03-.27.36-.18.54-.6.18-.42.3-.72l.54-.72q.24-.24.18-.33-.06-.09.06-.21-.48.06-.87.18t-.75.42q-.42.36-.78.72l-.78.78q-.12.12-.48.54-.36.42-.78.87-.42.45-.84.78t-.6.27q-.12-.36-.03-.72t-.03-.72q-.12-.48.09-.93.21-.45.51-.75.12-.12.27-.42l.3-.6q.15-.3.18-.57.03-.27-.15-.27.48-.54.87-1.14.39-.6.75-1.26.12.18.48.09t.54-.15q.3-.12.48-.12h.42q.3-.06.78-.12.48-.06.72-.18t.39-.42q.15-.3.33-.48.48 0 1.23-.6t1.17-.84q.48-.3.75-.72t.75-.72q0 .3.09 1.02t-.27.84q-.66.3-1.29.66-.63.36-1.29.66-.6.3-1.05.51-.45.21-.75.87-.12.42.3.78.42.36.72.48.6.18 1.08.27.48.09 1.14-.03.12 0 .42-.12t.57-.15q.27-.03.45.06t0 .45q-.18.36-1.02.66-.84.3-1.26.48-.36.24-.87.51t-.99.27q.3.96.81 1.65t1.47 1.17q.24.12.48.21t.54.03q.24 0 .48-.15t.42-.09q.24.06.15.18t-.27.24q-.18.12-.39.21l-.21.09q-1.02.42-1.92.9-.9.48-1.86.9-.96.48-1.98.93-1.02.45-2.16.33.3.9 1.11 1.77t1.65 1.29q.6.3 1.23.24t1.2-.3q.57-.24 1.14-.57.57-.33 1.11-.63.18-.06.45-.27.27-.21.51-.3t.42-.03q.18.06.18.48 0 .9.03 1.83t-.03 1.89q-.06.84-.09 1.62-.03.78-.03 1.62 0 .42.03.84t.09.84v.93q0 .63.36.69.42 0 .36-.33t.06-.63q.12-.3.18-.57.06-.27.18-.57.06-.3.21-.51.15-.21.21-.51.06-.18.12-.54.06-.36.36-.48t.39-.72q.09-.6.33-.78.42-.36.48-1.17.06-.81.12-1.29.12-.48.18-.99t.06-.99q0-.3.03-.6t.03-.6q.06-.42 0-.81-.06-.39 0-.75.12-.54.54-.81.42-.27.84-.51.3-.12.66-.3.36-.18.6-.36.12-.12.36-.24.06-.36.12-.39.06-.03.42-.15-.18-.12-.12-.06t-.18-.24q.24-.06.51-.03t.45-.09q.12-.24.27-.39.15-.15.27-.39.06-.12.3-.21t.42-.21q.12-.12.21-.24t.27-.3q.78-.54 1.65-1.05.87-.51 1.29-1.35-.54.12-1.08.3l-1.08.36q-.3.12-.6.18t-.6.18q-.48.18-.54.03-.06-.15-.3-.45-.72-.96-1.68-1.44t-1.98-.96q-.12-.06-.33-.15-.21-.09-.33-.21-.12-.12-.12-.24t.3-.24q.66-.24 1.23-.51t1.17-.57q.36-.12.93-.45.57-.33.87-.21.36.12.54.3 1.14.6 2.34 1.02 1.2.42 2.4.96.48.18.81.12.33-.06.6-.27.27-.21.48-.54.21-.33.51-.63.48-.66.99-1.77.51-1.11.39-1.95zm-22.32-4.5q-.12-.06-.09-.12t-.09-.06q.24-.24.39-.24.15 0 .45-.36 0 .12.03.15t-.03.15q.24-.18.69-.6.45-.42.57-.72.06-.3.6-.69.54-.39.78-.33-.06.12-.06.18t-.06.12q.48-.24.57-.21.09.03.51.33.48.3.99.42t1.11.12q.9 0 1.71-.45.81-.45 1.59-.87-.12.24-.72.87t-1.23 1.35q-.63.72-1.14 1.29-.51.57-.45.69-.54.18-1.23-.03t-1.23-.33q-.96-.18-1.86-.36-.9-.18-1.8-.3zm7.86 5.16q-.18.12-.45 0t-.57-.3q-.3-.18-.57-.39-.27-.21-.45-.27.12 0 .39.06t.27 0q.12-.3.45-.21t.63.21q-.42.12-.45.21-.03.09.15.18t.45.18l.45.15q-.12.06-.15.09t-.15.09zm.96 8.76q.48-.12.99-.27.51-.15.99-.27.3-.06.93-.3.63-.24.93.06l-1.32.48-1.32.48q-.3.12-.66.27-.36.15-.66.15 0-.12-.03-.36t.15-.24zm15.24-7.92q0 .12-.06.12 0-.18.06-.12zm32.52 22.32h-.24q.18-.12.24 0zm20.7-19.98q.18-.06.06-.18-.12 0-.12.18v.3q.12-.24.06-.3zm-.42 2.1q.06-.18-.06-.24.06.24-.03.63t.03.51q0-.24.03-.45.03-.21.03-.45zm-.24 5.64q.12-.24-.06-.3.06.42.09.84t.03.84q.06-.3.06-.69 0-.39-.12-.69zm.96.42q.12-.12.18-.3t-.24-.12q0 .3.06.42zm.96 1.2q.18-.06.09-.27-.09-.21-.21-.27 0 .18.12.54zm-.84.3q-.12.12 0 .3t.18.3q.12-.18.03-.3t-.21-.3zm-1.08-2.46v-.9q-.06.12-.06.45t.06.45zm.18 2.22q-.18 0-.09.24t.15.3q0-.12-.03-.27-.03-.15-.03-.27zm.3-8.58q.18-.18.06-.36-.18.18-.06.36zm2.88 10.62q.06.12.09.21t.09.21q.12-.3-.18-.42zm-1.08-.18h-.18q.06.36.18 0zm.66-.54q-.18.12-.06.36 0-.12.03-.18t.03-.18zm-3.3-4.68q.18-.18 0-.3v.3zm.96-2.52q.12-.12.09-.18t.03-.18q-.3 0-.12.36zm3.06 7.08q0-.18-.18-.12 0 .24.18.12zm-1.5-1.26q.18-.24-.06-.36 0 .24.06.36zm.54.66q-.06.06.18.06-.06-.06-.18-.06zm-.48-.42h-.12l-.12-.06q0 .24.24.06zm-2.52-3.24q-.12 0 0 .18.06 0 0-.18zm3.42 5.52q-.06-.18-.18-.06.06.18.18.06zm-2.64-5.46q0-.06.06-.06t0-.12q-.18 0-.06.18zm.12-2.1q.12 0 .06-.24-.12 0-.06.24zm2.16 5.94l-.06-.06q-.06 0-.06.06h.12zm2.16 2.82h-.18q.06.12.18 0zm-4.74-9.96q-.12 0-.12.18.12.06.12-.18zm4.02 9.42q-.12 0 0 .12.06-.06 0-.12zm-2.82-1.02q.12 0 0-.12-.12.12 0 .12zm.3-2.16q0-.12.06-.09t-.12-.09q0 .06.03.09t.03.09zm-1.26-4.5q0 .12.12 0 0-.06-.12 0zm5.82 14.52q-.3-.3-.24-.84t-.12-.96q-.18-.48-.36-.9l-.36-.84q-.06-.18-.21-.72t-.3-1.14q-.15-.6-.3-1.08-.15-.48-.21-.48.06.18.06.54-.24.12-.36-.15t-.24-.39q-.3-.24-.18-.69.12-.45-.36-.45-.06.06-.03.12t-.09.12v-.48q.06.12.36.12-.06-.36-.09-.69-.03-.33-.39-.33 0 .18-.09.24t-.03.3q-.24-.12-.09-.39t-.15-.21q.06-.42-.15-.36t-.09.36q-.24-.06-.3-.24t.06-.3q-.24-.06-.24-.42t-.12-.6q-.06.12 0 .24t-.06.24q0-.06-.03-.33l-.06-.54q-.03-.27-.09-.45t-.12-.18q0 .3.03.66.03.36.03.66-.24-.06-.15-.15t-.03-.21q-.12 0-.18.09t-.12-.09q.48-.12.24-.42t-.42-.24q.18-.24.12-.75t-.12-.81q-.18.12-.18.39t.12.45q-.3.12-.27.24.03.12.03.36-.12 0-.15-.33t0-.75q.03-.42.09-.78.06-.36.06-.42-.24.06-.12-.06t.12-.18q.12-.24 0-.48t-.06-.48q0-.12.06-.48t.09-.75q.03-.39-.03-.66t-.24-.21q0-.24-.03-.42t.03-.48q0-.24.09-.48t.09-.42q0-.3.18-.96.18-.66.06-.72-.24.3-.18-.03.06-.33-.06-.45.18 0 .24-.27t0-.48q-.06-.21-.18-.3t-.3.21q-.24.3-.3.66-.06.36-.18.78-.12.48-.27.93-.15.45-.27.93-.06.3-.12.57-.06.27-.12.57 0 .18-.09.57-.09.39.27.09-.06.06-.06.33t-.12.27v-.36q-.18.12-.21.63t-.03.75q0 .66-.06 1.26t0 1.2q0-.18.18-.48 0 .24.03.48t-.21.12q.12 1.14.15 2.28t.09 2.34q.06.84.27 1.89.21 1.05.33 2.01.12.24 0 .3.12.48.24 1.11.12.63.06 1.11-1.68.48-3.6.6-.3 0-.81.06t-.57-.42l-.18-1.44q0-.42.15-.81.15-.39.09-.81 0-.3-.09-.72t.15-.72q.36-.48.45-1.35.09-.87.21-1.47.12-.54.27-1.23.15-.69.51-1.17t-.3-.96q-.66-.48-1.65-.9-.99-.42-1.98-.69-.99-.27-1.23-.33.3-.3.3-.18t.3-.12q.24-.18.54-.33.3-.15.48-.33.3-.3.93-.51l.99-.33q.24-.12.51-.06t.51-.12q.24-.18-.12-.57-.36-.39-.54-.51-.36-.24-.75-.48t-.81-.36q-.3-.12-.6-.39t-.54-.21q0-.24.15-.3t.27-.24q.06.3.21.18t.45-.18q.3-.12.3-.36.3.12.3.36.12-.24.39-.45.27-.21.39-.39.12-.18.42-.54.3-.36.54-.42.18-.06.39-.39.21-.33.33-.45l.42-.42q.3-.3.42-.36-.06 0-.09-.03t-.15-.03q.24-.24.42-.24.3 0 .24-.15t.06-.39q.06-.12.33-.06t.39-.24q.3-.48.78-.9.48-.42.72-.9.12-.24-.09-.57-.21-.33-.57-.63t-.69-.54q-.33-.24-.51-.42-.72-.66-1.77-1.2-1.05-.54-1.89-.84.3-.36.66-.6.36-.24.66-.6l.6-.6q.3-.3.54-.6.12-.18.27-.33.15-.15.15-.33-.06-.3.15-.3t.51-.12q.42-.12.72-.69t.6-.87q.24-.24.72-.84t.42-.96q-.12-.48-.75-.9-.63-.42-.99-.72-.48-.36-1.05-.63-.57-.27-1.11-.57-.66-.3-1.26-.63t-1.26-.45q.12.36.36.63t.42.48q.18.21.24.48t-.18.69q-.3.48-.51.87-.21.39-.45.81-.18.3-.45 1.02t-.57.84q-.12.12-.33.6-.21.48-.33.66-.18.48-.39.84-.21.36-.45.78-1.08 1.86-1.8 3.9-.12.3-.21.72t-.39.66q.12.3-.45.63-.57.33-.87.51-.18.12-.57.33-.39.21-.84.42-.45.21-.84.3-.39.09-.51-.09-.12-.3-.27-.54-.15-.24-.51-.36-.9-.24-1.98-.24h-1.77q-.93 0-1.77.3.84.48 1.26 1.05.42.57.84 1.47-.78-.72-1.74-1.17-.96-.45-1.92-.93-.54-.3-.81-.03t-.75.63q-.12.12-.33.15-.21.03-.39.21-.18.12-.36.27-.18.15-.42.21-.36.12-.51.36-.15.24-.45.36-.66.3-1.08.42-.48.12-.96.45t-.96.57q-.48.24-.9.3-.42.06-.96.18.54 1.02 1.26 1.83t1.56 1.59q.3.24.75.33.45.09.51.51 0 .18.03.39.03.21-.03.45 0 .24-.09.48t.03.36q-.18.12-.27.09-.09-.03-.27-.03-.24.12-.24.24t-.12.24q-.48.42-1.11.75-.63.33-1.17.63-.18.12-.42.24t-.48.18q-.12.06-.21 0t-.21 0q-.24.18-.84.42-.3.12-.63.15t-.51.15q.6.96 1.29 1.71.69.75 1.53 1.47.3.24.84.3t.9-.06q.24-.06.48-.21t.51-.33.51-.33q.24-.15.54-.09 0 .54.03 1.11.03.57.03 1.11 0 .84-.09 1.26-.09.42-.75 1.02l-1.08.96-1.08.96q-.24.18-.42.36t-.36.3q-.3.24-.6.27-.3.03-.6.15.42.48.87.84t.93.78q.48.36 1.11.81.63.45 1.23.57.36.06.63.18t.57-.12q.54-.36.96-.78.24-.3.33-.3.09 0 .39.24.54.42 1.08.66.6.24 1.17.21t1.23-.15l.24-.06q.24-.06.51-.12t.48-.15l.21-.09q.48-.36.9-.69.42-.33.84-.57.18-.12.36-.3t.36-.3q.24-.12.42-.39t.42-.27q-.12.3-.09.3t.27-.24q.3-.18.57-.39.27-.21.57-.39.36-.24.84-.63t.66-.87q.06-.18.39-.45t.51-.33q.54-.12.69-.51.15-.39.51-.69h-.24q.18-.36.66-.63.48-.27.36-.69.36-.12.39-.48.03-.36.39-.36 0-.18-.18-.18.06 0 .27-.06.21-.06.15-.18-.06-.36-.03-.27.03.09.27-.09.3-.3.45-.6.15-.3.45-.6-.06.84-.21 1.68t-.21 1.68q0 2.04.18 3.9v.81q0 .51.24.69.3.24.54.42.24.18.54.48.3.3.51.66.21.36.51.66.42.36.87.54.45.18.93.3.84.3 1.59.36.75.06 1.59.18.48.06.99.03t.99-.03q.36 0 .84.06t.84-.06q.84-.24 1.62-.42.78-.18 1.56-.54.18-.06.63-.12t.81-.18q.36-.12.51-.33.15-.21-.15-.69zm-6-20.52q.24 0 .3-.06-.12.48-.36.84-.06-.24.06-.39.12-.15 0-.39zm-.84 7.44q-.12-.06-.12-.36v-.69q0-.39.06-.72.06-.33.12-.39 0 .54-.03 1.08t-.03 1.08zm-23.4-5.88q.48-.18.66-.45.18-.27.66-.39.42-.12.66-.24.24-.12.6-.24-.06-.06-.3-.18.36-.12.75-.21t.75-.21l.42-.21q.18-.09.42-.15.18-.06.39-.03.21.03.39-.09.6 1.5 1.11 2.97.51 1.47 1.17 2.91l.24.48q.18.36 0 .48-.3.12-.84.45t-.9.21q-.12-.06-.6-.12t-.36.24q.12.18.09.33-.03.15.21.03-.3 0-.18.24 0-.24.18-.24.12.24.24.36l.24.24q-.66.48-1.32.87t-1.32.87q-.12.12-.42.36t-.66.48q-.36.24-.69.42-.33.18-.45.12.12-.36.06-.66-.06-.3 0-.66 0-.36.03-.72t.09-.72q.06-.3.54-.6.48-.3.78-.42.24-.06.51-.21t.57-.33q.3-.18.6-.33.3-.15.48-.09.36.06.24.18t.36-.12q.3-.12.63-.27.33-.15.69-.15.42-.06.39-.27-.03-.21-.27-.48-.24-.27-.54-.51-.3-.24-.36-.3-.6-.42-1.23-.69-.63-.27-1.29-.57-.72-.3-1.56-.6-.3-.12-.36.15t-.36.33q-.12 0-.36-.18t-.48-.39q-.24-.21-.36-.42t.06-.27zm9.24 8.22q-1.02 1.92-2.13 3.78-1.11 1.86-2.49 3.48l-1.14 1.14q-.84.84-1.8 1.59-.96.75-1.86 1.05-.9.3-1.26-.54.12-.18.39-.42t.51-.51q.24-.27.42-.57.18-.3.18-.48-.06-.54.51-1.08.57-.54.87-.84.12-.12.39-.33.27-.21.39-.33.12-.24.06-.54-.06-.3.3-.3.42 0 .45-.24.03-.24.33-.48.54-.42.96-1.08h-1.14q.42-.24.75-.24t.39-.66q-.12 0-.24.12t-.3 0q.12-.3.48-.3-.06-.24.33-.51t.51-.51q-.48.24-.3.03t.3-.39q.12-.18.09-.18h-.06q-.03 0 0-.06t.27-.24q.42-.3.69-.81.27-.51.57-.93.6.6 1.5.78.12 0 .33.03.21.03.42.09t.33.18q.12.12 0 .3zm7.56-18.06q.36-.3.69-.45.33-.15.75-.39.12.18-.18.33-.3.15-.42.27-.18.24-.3.3t-.42.18q-.12.06-.21-.03t.09-.21zm-1.26.66q.06-.12.24-.06t.18-.06q.06-.3.36-.3t.42.06q-.12.18-.63.45t-.75.33q.06-.12.09-.21t.09-.21zm-2.4 9.84q-.18.3-.33.66-.15.36-.45.54-.48.3-.96.57-.48.27-.96.51-.12-.54-.15-1.05t-.03-1.05q0-.48-.03-.66-.03-.18.09-.6.12-.3-.03-.48t-.39-.3q.3-.3.09-.54-.21-.24-.09-.6.54.24 1.44.42.9.18 1.38-.36.54-.66 1.41-.99.87-.33 1.53-.81.24-.24.27-.18.03.06-.06.21t-.21.36q-.12.21-.18.33-.18.36-.03.36t-.03.3q-.12.12-.21.12t-.21.12q-.48.78-.93 1.53-.45.75-.93 1.59zm1.86 5.28q-.06.18-.09.39-.03.21-.09.39l-.6-.48q-.3-.24-.6-.54.24-.12.48-.21t.42-.27q.48-.48.51-.03.03.45-.03.75zm9.18-4.26q.12.18.06.51t-.06.57q-.12 0-.12-.12t-.24-.24q.12-.18.24-.33.12-.15.12-.39zm-.36 3.54q.06-.72.15-.39.09.33.03.69-.36 0-.18-.3zm.12 1.68v.3q0-.12-.24-.24.18-.12.15-.33-.03-.21.03-.39.06 0 .3.12-.24.12-.24.54zm.72 1.68q-.06-.3-.15-.18t-.15-.3q.12.18.27.18.15 0 .03.3zm.78 1.2q.12.36.12.48-.12-.06-.18-.24t.06-.24zm.06.66l.18.36q-.42-.12-.18-.36zm-35.4-13.8q.24-.42.54-.75.3-.33.6-.69.24-.36.57-.63.33-.27.51-.63.3-.66.96-.78.48-.18.72.12t.54.6q.3.3.72.63t.9.27q.48 0 .93-.15.45-.15.87-.33 1.74-.72 3.48-1.8.66-.42 1.38-.66.72-.24 1.2-.78.18-.18.63-.21t.9-.03q.45 0 .72-.09.27-.09.15-.39-.48-.84-1.35-1.44-.87-.6-1.71-1.08-.18-.12-.84-.48-.66-.36-.84-.24-.3.18-.93.48-.63.3-.51.6-.24 0-.42.15t-.42.27q-.42.24-.69.27-.27.03-.75.27.18-.48.63-.87t.75-.87q.42-.66.9-1.38.48-.72.06-1.5-.3-.6-.99-1.08-.69-.48-1.23-.96-.66-.54-1.32-.99-.66-.45-1.5-.75.12.66.39.96.27.3.03.96-.3.66-.54 1.23-.24.57-.54 1.17-.66 1.38-1.35 2.73-.69 1.35-1.47 2.67-.78 1.44-1.53 2.88t-1.53 2.82q-.18.42-.42.99-.24.57-.6.87-.3.18-.33.48-.03.3-.21.54-.3.3-.3.72.66-.84 1.65-1.47.99-.63 1.59-1.65zm15.3-13.62q.3.18.51.66.21.48.39 1.02.18.54.27 1.05.09.51.21.87.3 1.2.63 2.34t.75 2.28q.18.54.42 1.08t.54 1.14l.18.36q.12.24.24.39.12.15.27.18.15.03.27-.33.18-.48.18-.81v-.81q0-.18.12-.45t.06-.45q0-.48.06-.72.24 0 .36-.12.24-.3.18-.72t.24-.72v-.33q0-.15.12-.27.18-.24 0-.27-.18-.03-.06-.33.12 0 .27-.72.15-.72.21-.96.06-.3 0-.57-.06-.27-.06-.57-.06-.3.03-.69.09-.39-.03-.69-.12-.66-.99-.9t-1.41-.36q-.96-.12-2.31-.24t-2.25.3q.12.12.27.18.15.06.33.18zm-12.3 22.8q-.24.12-.3.18.18.12.3-.18zm97.44 4.56q-.48 0-.99.15t-.99-.15q-.6-.36-1.11-.84-.51-.48-.99-.96l-1.14-1.14q-.54-.6-1.11-1.05-.57-.45-1.11-.99-1.86-2.1-3.69-4.2-1.83-2.1-3.75-4.2-.42-.48-.48-.96t.06-1.08q.06-.6.57-.72t.99-.24q1.32-.42 2.61-.87 1.29-.45 2.67-.63.6-.06.45-.54-.15-.48-.63-1.05-.48-.57-1.05-1.08-.57-.51-.75-.63-.36-.3-1.02-.84t-1.14-.48q-.66.06-1.32.42t-1.32.6q-.12-.54.06-.99.18-.45.18-.93-.06-.48-.03-1.02t.03-1.02q0-.54.06-1.08t.06-1.08q0-.54-.15-.99-.15-.45-.63-.81-1.02-.72-2.13-1.26-1.11-.54-2.25-1.02-.18-.06-.42-.18t-.42-.18q-.18-.06-.21.03t.15.45q.36.54.39 1.14.03.6.03 1.26.12 1.32.15 2.58t.09 2.52v1.32q0 .66.06 1.32 0 .12.03.42t.03.6q0 .3-.06.54-.06.24-.24.3-2.16.96-4.41 1.59-2.25.63-4.47 1.35-.36.12-.66-.03-.3-.15-.6-.39-.36-.3-.78-.51-.42-.21-.84-.51-.3-.18-.45-.24-.15-.06.03-.42.12-.3.27-.51.15-.21.27-.45.36-.48.78-.93.42-.45.84-.93.3-.48.66-.84.36-.36.66-.78.24-.3.54-.75.3-.45.6-.63.48-.24.54-.45.06-.21-.24-.69-.3-.54-.78-1.02-.48-.48-.96-.9-.78-.78-1.56-1.5t-1.62-1.38q-.12-.12-.6-.36t-.3.24q.18.48.63 1.14.45.66.21 1.14-1.02 2.22-2.07 4.32-1.05 2.1-2.37 4.2-1.5 2.34-3.03 4.68-1.53 2.34-2.97 4.74.54.12.96-.06.3-.12.57-.63.27-.51.51-.45.3 0 .72-.45t.6-.63l.72-.72q.12-.12.3-.12t.36-.18q.12-.18.54-.51.42-.33.87-.57.45-.24.81-.27.36-.03.36.39l-.12 2.37-.12 2.37q-.12 2.52-.09 5.07.03 2.55-.03 5.07 0 2.46.03 4.95t.33 4.95q.78-.24 1.08-1.17.3-.93.6-1.59.48-.96.96-1.86.48-.9.84-1.92.42.18.99.42.57.24 1.05.36.42.12 1.11.36.69.24 1.11.06.48-.24.75-.87l.45-1.05q.06-.18.15-.33.09-.15.21-.33.12-.3.18-.57.06-.27.18-.57.24-.48.42-.69.18-.21.36.45.36 1.14 1.02 2.28.24.36.66.87.42.51.9.45.54-.06 1.14-.39.6-.33 1.08-.57-.06.66-.09 1.32t-.03 1.32q0 .42.03.81.03.39-.03.81-.12.3-.18.51-.06.21.24.51.96.96 2.1 1.5.3.18 1.02.36t1.08-.12q.12-.06.15-.36t.03-.66q0-.36-.03-.69-.03-.33-.03-.51.06-.72.06-1.47t.06-1.47q.06-.84.06-1.65 0-.81.12-1.65 0-.24-.03-.72t.15-.66q.24-.3.63-.39.39-.09.69-.21.24-.12.72-.48t.99-.63q.51-.27.93-.27.42 0 .54.6.06.18.24.54.18.36.3.48l.48.6.48.6q.48.66.96 1.23t.96 1.17q.3.36.63.84t.87.24q.66-.3 1.35-.75.69-.45 1.29-.81.18-.12.87-.63t1.38-1.08q.69-.57 1.2-1.08.51-.51.39-.69zm-20.22-12.36v.42q-.12-.06-.15-.12t-.15-.12q.12-.06.15-.09t.15-.09zm-6.12 3.6q-.66 1.02-1.26 2.01-.6.99-1.26 1.95-.36.54-.69 1.05-.33.51-.69 1.05-.3.48-.6.81-.3.33-.6.75.12-1.74.18-3.57.06-1.83.36-3.57.36-1.92.57-3.75.21-1.83.33-3.75.66.66 1.38 1.32.72.66 1.5 1.26.42.3.87.54.45.24.93-.06.48-.24 1.08-.39.6-.15 1.14-.09-.84 1.08-1.68 2.19-.84 1.11-1.56 2.25zm6.24-.6q-.12 1.56-.18 3.06t-.12 3.06q0 .12-.06.39t-.18.51q-.12.24-.3.33-.18.09-.42-.15-.12-.06-.48.03t-.81.24q-.45.15-.84.33-.39.18-.51.18-.72.24-.99.18t-.03-.84q.48-.24.78-.9.3-.66.48-1.08.3-.54.6-1.05t.18-1.17q-.06-.18.12-.39l.36-.42q.18-.21.21-.42t-.27-.39q.42-.42.63-.72.21-.3.45-.84.12-.3.27-.48.15-.18-.15-.36l.21-.42q.09-.18.21-.36-.18-.06-.18-.3.12-.18.42-.45t.48-.15q.12.66.12 1.29v1.29zm4.8-1.14q.12.18.24.54-.12-.06-.21-.09t-.21-.09l.18-.36zm-.3 6.72q-.12-.84-.09-1.65.03-.81.09-1.65.06-.66.03-1.44-.03-.78.27-1.44.24.24.27.45.03.21.09.51.12.48.36.93.24.45.42.93.06.12.09.24t.09.24q-.24.12-.06.54.18.42.33.87.15.45.33.93-.54.24-1.11.33-.57.09-1.11.21zm1.38-4.86q0 .06-.03.06t-.03.06l-.18-.18q.18 0 .24.06z"/></svg>