<svg viewBox="0 0 390 80" xmlns="http://www.w3.org/2000/svg"><path d="M41.82 63.06H15.84V40.68l2.82-4.38h6.42v-9.66H15.3v-4.8h9.78V15.9h10.26v5.94h9.84v4.8h-9.84v9.66h5.4q1.62 0 2.76 1.14 1.14 1.14 1.14 2.76v18.06l-2.82 4.8zm28.92.24h-9.9v-4.8h1.98l1.08-1.62v-7.44h-6.06l-1.5 13.86h-9.96l1.5-16.56V21.48l3.3-4.74h18.96q1.62 0 2.76 1.08 1.14 1.14 1.14 2.82v37.74l-3.3 4.92zm-11.7-41.76l-1.02 1.68v7.5h5.88v-9.18h-4.86zm4.86 23.1v-9.12h-5.88v9.12h5.88zM34.38 41.1H27l-.84 1.62v15.54h7.2l1.02-1.68V41.1zm89.04-8.16l1.5 3.36h9.84v4.8h-18.48l-2.7-5.94-13.38 3v-5.04l11.34-2.52-2.82-6.42-8.52.72v-4.8l6.42-.54L105 15.9h10.92l1.2 2.82 17.64-1.5v4.8l-15.6 1.32 2.28 5.04 12.84-2.88v4.98l-10.86 2.46zM95.04 62.22h-19.2v-40.8l3-4.2h15.48q1.62 0 2.76 1.14 1.14 1.14 1.14 2.76v36.42l-3.18 4.68zm-9-40.2l-1.08 1.62v13.74h4.2V22.02h-3.12zm3.12 20.16h-4.2v15.24h3.3l.9-1.5V42.18zm30.48 21.12V47.82h-4.5l-4.8 15.48h-10.26l4.8-15.48h-4.68v-4.8h34.56v4.8h-4.86V58.5h4.86v4.8h-15.12zm73.92-30.48H183.3l1.02-9.18h-4.5v11.4h10.2q1.68 0 2.82 1.14t1.14 2.82v7.98l-7.86 7.2 8.64 9.18h-11.58l-3.3-3.54-3.78 3.48h-12.72l10.32-9.96-9-9.54v2.94l-3.6 16.56h-10.62l3.9-17.46V23.1l3.18-4.26h12v-3h10.26v3h10.86q1.74 0 2.88 1.26t.96 3l-.96 9.72zm-51.96 6.9l-6.48-12.54h5.76l-5.76-11.16h10.44l6.48 12.54h-5.76l5.76 11.16H141.6zm23.1-4.68h4.86v-11.4h-3.6l-1.26 1.56v9.84zm18.96 4.8H164.7v2.46h10.32l4.8 5.1 3.84-3.72v-3.84zm-37.62 23.52h-10.92l6.48-21h10.86l-6.42 21zm104.7-16.5h-9.42l-3.9 5.7 17.22 5.16v5.64l-20.4-6.18-4.2 6.12h-10.92l5.82-8.88-2.82-.9v-5.58l5.88 1.8 1.86-2.88h-8.34V29.04l3.42-4.62h8.7v-3.24h-12.9v-4.8h34.02v4.8h-12.9v3.24h8.22q1.68 0 2.82 1.08 1.14 1.14 1.14 2.82v13.92l-3.3 4.62zm-35.22 16.02h-17.7V38.7h-2.7l5.64-17.16h-5.52v-4.8h24v4.8h-9.06l-3.24 9.84h7.86q1.62 0 2.76 1.08 1.14 1.14 1.14 2.82v22.8l-3.18 4.8zm14.52-29.34h3.6v-4.32h-2.46l-1.14 1.68v2.64zm11.82-4.32v4.32h3.66v-4.32h-3.66zm-31.62 6.96h-3.78v21.9h2.88l.9-1.68V36.18zm23.4 5.88v-4.38h-3.6v4.38h3.6zm11.88-4.38h-3.66v4.38h2.64l1.02-1.74v-2.64zm16.68 1.92l-6.9-12.48h6.12L255.3 15.9h10.2l6.84 12.6h-6.12l6.12 11.1H262.2zm41.1 23.7l-7.38-9.9-10.62 9.9h-12.72l17.64-17.52-16.32-21.9h11.52l11.4 15.3 6.12-6.06v-11.7H273.6v-4.8h35.7q1.62 0 2.76 1.14 1.14 1.14 1.14 2.82V37.2l-10.5 9.84 12.12 16.26H303.3zm-37.38 0H255.3l6.9-21.06h10.62l-6.9 21.06zm54.6-.12v-25.5h-5.4l8.7-21.54h10.74l-7.14 17.64h3.42v29.4h-10.32zm38.4-6.72v6.72H348.6v-6.72H345v-4.8h3.6V25.68h-2.46l-3.78 36.66h-9.6l3.84-36.66h-2.1v-4.8h14.1v-4.74h10.32v4.74h14.16v4.8h-14.16v25.98h3.66v4.8h-3.66zm6.36 5.88l-3.78-34.92h9.54l3.78 34.92h-9.54z"/></svg>