<svg viewBox="0 0 321 80" xmlns="http://www.w3.org/2000/svg"><path d="M20.63 58.77q-.3-2.16-.56-4.54-.27-2.37-.5-4.77-.23-2.41-.53-4.75-.29-2.46-.64-4.57-.18-.88-.62-2.34-.44-1.47-.85-3.14-.41-1.67-.73-3.37-.32-1.7-.32-3.1.7-.94 1.41-.35.7.58 1.4 2.19.7 1.61 1.38 4.1.67 2.5 1.23 5.31.56 2.81 1.05 5.8.5 2.99.85 5.62.35 2.64.59 4.69.23 2.05.23 3.11v.7q0 .35-.06.67-.05.33-.32.59-.26.26-.79.38-.35.12-.7-.21-.35-.32-.7-.73-.36-.41-.56-.79-.21-.38-.26-.5zm6.15-20.62q0-.53.38-.68.38-.14.85-.14.35 0 .5.17.14.18.2.41.06.24.18.44.11.21.41.21.82 0 1.99-.65 1.17-.64 2.55-1.4 1.37-.76 2.93-1.41 1.55-.64 3.07-.64 2 0 3.67 1.02 1.67 1.03 2.98 2.73 1.32 1.7 2.26 3.81.94 2.11 1.58 4.3.65 2.2.94 4.28.29 2.08.29 3.6 0 .53-.09 1.59-.08 1.05-.29 2.1-.2 1.06-.67 1.85-.47.79-1.17.79-.12 0-.41-.03-.3-.03-.59-.12-.29-.08-.5-.2-.2-.12-.2-.35.52-4.51 0-8.47-.53-3.95-1.7-6.94t-2.87-4.75q-1.7-1.76-3.64-1.76-1.81 0-3.39.59-1.59.59-2.76 1.7-1.17 1.11-1.84 2.69-.68 1.59-.68 3.46 0 1.88.35 3.72.35 1.85.79 3.69.44 1.85.8 3.72.35 1.88.35 3.75-1.64 0-2.76-1.34-1.11-1.35-1.78-3.46-.68-2.11-1.06-4.75-.38-2.63-.53-5.18-.14-2.55-.14-4.81v-3.54zm27.01 9.55q0-2.17.56-4.57.55-2.4 1.75-4.45 1.2-2.05 3.05-3.37 1.85-1.32 4.54-1.32 1.41 0 2.81.41 1.41.41 2.9 1.17 1.5.76 3.11 1.79 1.61 1.02 3.43 2.25.23-2.34-.18-4.83-.41-2.49-1.05-4.89-.65-2.41-1.32-4.54-.68-2.14-.97-3.84-.29-1.7-.06-2.81.24-1.12 1.41-1.41 1.58 1.17 2.72 3.31 1.15 2.14 1.97 4.95.82 2.81 1.34 6.01.53 3.19.88 6.47.36 3.28.56 6.39.21 3.1.44 5.71t.44 4.45q.2 1.85.61 2.61 0 .94-.67 1.17-.67.24-1.38.24-.58 0-.99-.44-.41-.44-.65-1.03-.23-.58-.44-1.32-.2-.73-.44-1.34-.23-.62-.52-1.03-.3-.41-.76-.41-.12 0-.33.03-.2.03-.2.09-1.12 1.52-2.61 2.96-1.49 1.43-3.28 2.52-1.79 1.08-3.75 1.73-1.96.64-3.96.64-2.22 0-3.89-1.46-1.67-1.47-2.82-3.52-1.14-2.05-1.69-4.34-.56-2.28-.56-3.98zm3.63 1.05q.59 2.11 1.06 3.7.47 1.58 1.14 2.57.67 1 1.61 1.5.94.5 2.46.5 1.88 0 3.99-1.09 2.11-1.08 3.92-2.78 1.82-1.7 2.99-3.72 1.17-2.02 1.17-3.9v-1.4q-3.1-3.05-5.71-4.37-2.61-1.32-4.66-1.35-2.05-.03-3.57.91-1.53.94-2.52 2.46-1 1.52-1.47 3.4-.47 1.87-.41 3.57zm30.41-8.02v-.88q0-.65.03-1.35.03-.7.03-1.35v-.88q-.23-1.81 1.06-1.81.58 0 .99.29.41.29.76.88-.17 3.05.27 5.89.44 2.84.99 5.62.56 2.79 1.06 5.6.5 2.81.5 5.86 0 .82-.5 1.64t-1.5.82q-.76 0-1.31-1.32-.56-1.32-.97-3.34-.41-2.02-.7-4.48-.3-2.46-.44-4.72-.15-2.25-.21-4.04t-.06-2.43zm-2.99-14.71q0-.7.41-.91.41-.2 1.06-.2.41-.06 1.08.49.68.56 1.12 1.26.44.71.49 1.29.06.71-.87.82h-.3q-.88 0-1.46-.11-.59-.12-.91-.38-.32-.27-.47-.8-.15-.52-.15-1.46zm10.9 19.28q0-3.05.91-5.83.91-2.79 2.64-4.9 1.73-2.11 4.22-3.36 2.49-1.26 5.77-1.26 1.93.23 3.37 1.05 1.43.82 2.34 2.02.91 1.2 1.32 2.78.35 1.53.35 3.29 0 2.11-1.23 3.8-1.23 1.7-3.11 2.85-1.87 1.14-4.04 1.75-2.17.62-4.04.62h-1.44q-.73 0-1.32-.23-.58-.24-.93-.71-.35-.47-.35-1.4 0-.3.08-.5.09-.21.5-.3.41-.08 1.23-.02.82.11 2.23.35.82 0 2.37-.56 1.55-.56 3.17-1.44 1.61-.87 2.78-2.02 1.17-1.14 1.17-2.25 0-1.17-.38-2.32-.38-1.14-1.14-2.02-.76-.88-1.79-1.4-1.03-.53-2.31-.41-2.06.17-3.73 1.11-1.67.94-2.84 2.43-1.17 1.49-1.81 3.31-.65 1.82-.65 3.81 0 1.52.06 3.05.06 1.52.44 2.98.38 1.47 1.23 2.82.85 1.34 2.46 2.37 1.61 1.03 4.07 1.7 2.46.67 6.1.85l10.49-.7q-.94 1.28-2.38 2.1-1.43.83-3.04 1.32-1.62.5-3.2.74-1.58.23-2.99.23-3.39 0-6.38-1.11-2.99-1.12-5.28-3.14-2.28-2.02-3.6-4.92-1.32-2.9-1.32-6.53zm63.69 14.59q-.35-1.59-.52-2.64-.18-1.05-.27-1.9-.09-.85-.09-1.56 0-.7-.02-1.52-.03-.82-.15-1.9-.12-1.09-.35-2.67-.18-1.17-.82-1.61-.65-.44-1.5-.47-.85-.03-1.75.12-.91.14-1.7.14-.8 0-1.26-.35-.53-.47-.53-1.52 0-.12.26-.32.27-.21.38-.21 1.06-.12 2.05-.15 1-.03 1.79-.32.79-.29 1.32-.99.47-.82.47-2.23-.47-2.87-.41-4.95t-.15-3.43q-.2-1.35-1.02-1.82-.88-.52-2.99-.23h-.79q-.56 0-1.17.03-.62.03-1.18.03h-.79q-.11.12-.55.29-.44.18-.56.24h-.18q-.11.05-.17.05l-.12-.05h-.12q-.11-.12-.29-.53-.18-.41-.23-.59v-.29q.82-.82 2.87-1.47 2.05-.64 4.86-1.11 2.81-.47 6.15-.7 3.34-.24 6.71-.21t6.59.47q3.23.44 5.75 1.23 2.51.79 4.16 2.08 1.64 1.35 1.81 3.11-1.87 0-3.66-.47t-3.6-1.06q-1.82-.58-3.67-1.05-1.84-.47-3.83-.47-.47 0-1.38-.03-.91-.03-2.08-.06t-2.4.06q-1.23.09-2.29.35-1.05.27-1.7.76-.64.5-.64 1.32 0 .88-.12 2.41-.12 1.52-.06 3.13.06 1.61.41 3.02.35 1.4 1.29 2.05h2.23q4.39-.35 7.12-.18 2.72.18 3.89.71 1.18.52.85 1.2-.32.67-1.99 1.26-1.67.58-4.66.96t-7.15.27q.12 2.63.24 4.13.12 1.49.26 2.34.15.85.27 1.35.11.5.29 1.17.17.68.29 1.82.12 1.14.24 3.37-.82-.12-1.53-.15-.7-.03-1.2-.03t-.76-.06q-.26-.06-.15-.17zm21.92.64q-.59-4.16-.73-8.29-.15-4.13-.15-8.29 0-4.16.12-8.26.11-4.1.05-8.21 0-.46.36-.64.35-.18.82-.18.52 0 .93.38.41.39.71.94.29.56.44 1.12.14.55.14.9.35 8.38.47 13.98.12 5.59 0 9.02-.12 3.43-.38 5.07-.26 1.64-.67 2.23-.41.58-.97.47-.56-.12-1.14-.24zm5.92-11.48q0-3.23 1.4-5.63 1.41-2.4 3.69-4.04 2.29-1.64 5.13-2.43 2.84-.79 5.71-.79 1.53 0 2.84.55 1.32.56 2.52 1.53 1.21.96 2.14 2.22.94 1.26 1.61 2.61.68 1.35 1.03 2.72.35 1.38.35 2.67 0 2.99-1.17 5.33-1.17 2.35-3.16 3.96-2 1.61-4.52 2.46-2.52.85-5.15.85-2.7 0-4.95-.85-2.26-.85-3.93-2.37-1.67-1.53-2.61-3.78-.93-2.26-.93-5.01zm2.87-.47q0 1.81.67 3.48t1.88 2.9q1.2 1.24 2.84 1.97t3.51.73q1 .12 2.43-.32 1.44-.44 2.88-1.29 1.43-.85 2.75-2.05 1.32-1.2 2.2-2.64.88-1.43 1.08-2.99.21-1.55-.53-3.1-.73-1.56-2.66-2.99-1.94-1.44-5.33-2.67-1.94 0-4.02.56-2.08.56-3.78 1.67-1.7 1.11-2.81 2.81t-1.11 3.93zm45.52 6.8q-2.34 3.16-4.71 4.42-2.38 1.26-4.51 1.11-2.14-.14-4.05-1.55-1.9-1.41-3.28-3.52-1.38-2.11-2.23-4.77-.84-2.67-.9-5.42-.06-2.76.73-5.36.79-2.61 2.67-4.66.93.35 1.05.94.12.64.12 1.34 0 1-.21 1.91-.2.91-.44 1.84-.23.94-.44 1.94-.2.99-.2 2.05 0 .76.17 1.9.18 1.15.5 2.43.32 1.29.85 2.55.53 1.26 1.26 2.29.73 1.02 1.61 1.7.88.67 1.99.67 1 0 2.38-.61 1.37-.62 2.63-1.56 1.26-.93 2.11-2.11.85-1.17.85-2.34l.35-7.62q0-.17.24-.35.23-.17.5-.32.26-.15.55-.26.3-.12.41-.12.82 0 1.12 1.05.29 1.06.47 2.73.17 1.67.41 3.54.23 1.88.85 3.55.61 1.67 1.84 2.72 1.17 1.06 3.4 1.06 2.17-.06 3.46-.91 1.29-.85 1.87-2.26.59-1.4.56-3.13-.03-1.73-.47-3.46-.44-1.73-1.17-3.31t-1.61-2.75q-.12-.47 0-.68.11-.2.32-.29.2-.09.5-.12.29-.03.47-.03.93.24 2.02 1.56 1.08 1.31 1.9 3.13.82 1.82 1.26 4.04.44 2.23.24 4.4-.21 2.17-1.26 4.04-1.06 1.88-3.23 3.05-2.57.17-4.22.2-1.64.03-2.72-.11-1.08-.15-1.73-.5-.64-.35-1.23-.91-.58-.56-1.26-1.32-.67-.76-1.79-1.81zm20.22-10.08q0-3.05.91-5.83.91-2.79 2.63-4.9 1.73-2.11 4.22-3.36 2.49-1.26 5.77-1.26 1.94.23 3.37 1.05 1.44.82 2.35 2.02.91 1.2 1.32 2.78.35 1.53.35 3.29 0 2.11-1.23 3.8-1.23 1.7-3.11 2.85-1.87 1.14-4.04 1.75-2.17.62-4.04.62h-1.44q-.73 0-1.32-.23-.58-.24-.94-.71-.35-.47-.35-1.4 0-.3.09-.5.09-.21.5-.3.41-.08 1.23-.02.82.11 2.23.35.82 0 2.37-.56 1.55-.56 3.16-1.44 1.61-.87 2.79-2.02 1.17-1.14 1.17-2.25 0-1.17-.38-2.32-.38-1.14-1.15-2.02-.76-.88-1.78-1.4-1.03-.53-2.32-.41-2.05.17-3.72 1.11-1.67.94-2.84 2.43-1.17 1.49-1.82 3.31-.64 1.82-.64 3.81 0 1.52.06 3.05.06 1.52.44 2.98.38 1.47 1.23 2.82.85 1.34 2.46 2.37 1.61 1.03 4.07 1.7 2.46.67 6.09.85l10.49-.7q-.93 1.28-2.37 2.1-1.44.83-3.05 1.32-1.61.5-3.19.74-1.58.23-2.99.23-3.4 0-6.39-1.11-2.98-1.12-5.27-3.14-2.28-2.02-3.6-4.92-1.32-2.9-1.32-6.53zM292.15 61q-1.29-2.34-2.23-5.1-.94-2.75-1.58-5.56-.64-2.82-1.03-5.48-.38-2.67-.49-4.84 0-.41-.06-.9-.06-.5-.03-1.03t.17-1q.15-.46.5-.82h.12q.06 0 .06-.03t.06-.03q.06 0 .06.03t.11.03h.12q.12.06.59.24.46.17.58.29 1.06-.35 2.17-.85 1.11-.5 2.26-.94 1.14-.44 2.31-.73 1.17-.29 2.29-.29.82 0 1.43.06.62.06 1.23.2.62.15 1.32.35.7.21 1.64.5.47.35.85.68.38.32.7.73.33.41.5.99.18.59.18 1.53-.94.11-2.2-.15-1.26-.26-2.64-.67-1.37-.41-2.84-.71-1.46-.29-2.81-.23-1.35.06-2.52.76-1.23.59-2.17 2.11-.41 1.7-.35 3.34t.41 3.19q.35 1.56.91 3.11.55 1.55 1.05 3.1.5 1.56.91 3.08.41 1.52.53 3.11 0 .58-.65 1.26-.64.67-1.46.67z"/></svg>