<svg viewBox="0 0 327 80" xmlns="http://www.w3.org/2000/svg"><path d="M21.1 19.98q1.08-.36 3.42.36t4.8 2.16q.96.54 1.32 1.02.36.48.36 1.2 0 .66-.48 1.2-.9.84-2.16.18-.6-.36-2.16-.9-5.88-2.28-5.64-4.56 0-.48.54-.66zm-4.32 15.9q.84-.24 4.68-.09t5.58.51q.78.18 1.02.45t.24 1.05q0 .9-.24 1.02-.78.42-5.1.9l-2.4.24-1.68-.36q-1.56-.3-1.92-.48-.36-.18-.6-.6-.48-.96-.36-1.71t.78-.93zm13.08 11.34q.66-.36.81-.39.15-.03.33.21.3.36-.27 1.41-.57 1.05-2.31 3.33-3.66 4.8-5.43 6.57-1.77 1.77-2.85 1.77-.72 0-1.38-.54-.66-.54-.66-1.14 0-.9 2.28-2.88 2.4-2.1 3.12-2.82 5.4-4.98 6.36-5.52zM46.6 10.26q.72-.36 1.5.06.42.24.81.87.39.63.39 1.11 0 .84.78 1.05.78.21 5.4.51 3.36.24 4.47.42 1.11.18 1.53.54.66.6.45 1.47-.21.87-1.05 1.11-.6.18-6 .3-4.14.06-5.13.18-.99.12-1.23.48-.12.18-.12 1.44v1.32h2.82q7.44.06 8.7.48.96.3.96 1.56 0 .42-.24.93t-.48.57q-.84.24-6.72.6-3.84.24-4.53.33-.69.09-.75.45-.12.36-.03 1.95.09 1.59.24 1.74.15.15 6.39.39 6.18.3 7.35.42t1.53.42q.42.36.42 1.2 0 1.5-1.38 1.86-1.8.48-12.42.18-10.5-.24-13.77-.57-3.27-.33-3.45-1.11-.24-.9.3-1.5.72-.78 3.78-1.02 3.06-.24 7.32.12l1.08.06v-2.1q0-2.1-.18-2.28-.24-.24-3.24-.42-4.8-.3-5.52-.72-.24-.18-.39-.69-.15-.51-.03-.93.12-.54 1.17-.81 1.05-.27 4.35-.57 2.64-.18 3.03-.36.39-.18.54-.63.15-.45.27-1.71l.06-1.44h-.42q-.36 0-3.42-.18-3.42-.24-4.62-.51-1.2-.27-1.44-.75-.24-.36-.18-.87t.3-.69q1.08-1.02 7.14-1.02h2.28l.18-.9q.42-1.98 1.2-2.34zm-7.8 27.66q1.14-.42 4.5-.6 3.36-.18 7.89.03 4.53.21 6.33.69 2.16.54 3.06 2.88.96 2.46 1.14 14.94l.06 6.9-.6 1.68q-.84 2.22-1.68 3.09-.84.87-1.68.39-.24-.12-.57-.72-.33-.6-.33-.96 0-.3.54-1.44.72-1.5.87-2.4.15-.9.09-3.72-.24-8.46-1.26-13.98-.42-2.28-1.38-2.52-1.26-.36-10.86-.78-2.64-.12-3.57-.03-.93.09-1.23.51-.42.54-.66 2.76l-.06 1.02 6.24.06q5.4 0 7.29.12 1.89.12 2.73.66.72.36 1.02.78l.3.42-.42.72-.06.06q-.48.78-1.59.9t-7.35.12q-.48 0-.72-.06H38.8v3.96h8.22q6.6 0 7.83.12 1.23.12 2.07.72.6.48.69.84.09.36-.21 1.32l-.36 1.08-9.24-.12-9.24-.06-.12.48q-.06.42-.09 3.48t-.15 3.42q-.06.36-.45.39-.39.03-.75-.27-.54-.42-.69-1.56-.15-1.14-.15-4.98 0-6.54.48-12.12.48-5.58 1.2-7.14.36-.78.96-1.08zm43.38-25.26q.42-.24 1.2-.18t1.08.3q.18.24.27.78.09.54.33 3.06.24 3.48.3 3.96h1.68l1.68.06q3.36.18 4.08.6.96.54 1.05 1.83.09 1.29-.69 1.95-.42.24-2.31.21-1.89-.03-4.89-.09l-.36-.06v3.48q.12 3.36-.06 7.02-.42 9.24.18 9.48.18.06 2.28-2.16 1.68-1.8 2.46-2.34.78-.54 1.8-.6.78-.06 1.05.06t.27.42q0 .54-1.17 2.19t-4.83 6.09q-1.68 2.22-1.86 2.52-.36.72-.48 4.26-.36 9.48-1.08 10.14-.18.24-.75.24-.57 0-.93-.24l-.36-.18v-3.18q-.12-3.18 0-5.52.12-3.42-.36-3.36-.24 0-.96.48-1.5 1.02-3.12.96-1.5-.06-2.52-1.05t-1.08-2.37q-.12-2.46 1.98-8.1.42-1.32 1.2-3.18.36-1.2 1.8-5.22 1.2-3.48 1.86-5.04.48-1.14.63-1.62.15-.48.09-1.44.06-1.32-.18-1.56-.3-.12-2.04-.18-3.42-.18-4.44-.66-.54-.3-1.26-.6-.9-.42-.9-1.08 0-.66.96-1.2.72-.36 2.46-.72 2.82-.06 5.04-.06-.06-1.38-.12-3.12.12-4.5 1.02-4.98zm-.12 27.3q.12-2.4.06-3.36l-.12-.9-.24.54q-.54.9-1.98 4.83t-1.98 5.79q-.42 1.26-.45 2.58-.03 1.32.39 1.62.24.24.84.06.54-.18 1.38-.87.84-.69 1.2-1.29.42-.66.54-1.41.12-.75.18-2.79.06-1.86.18-4.8zm30.48-25.08q1.08-.36 1.92.06.84.42 2.4 2.22 3.66 4.02 4.86 6.36.72 1.32 2.22 3.78l1.38 2.16 1.02 1.86.06 1.26-.42.96q-1.2 1.08-2.46.3-.3-.24-1.08-1.62-3.12-5.46-6.48-9.48-3.18-3.84-4.02-5.52l-.42-.9.24-.6q.3-.66.78-.84zm-14.28 5.64q.54-.24.9-.24t.87.51q.51.51.51.87t-.6 2.34q-2.58 8.16-2.58 10.08 0 1.02-.6 1.2-.54.18-1.32.12t-.96-.24q-.42-.42-.12-3.93.3-3.51 1.02-6.21.42-1.56 1.2-2.76.78-1.2 1.68-1.74zm6.6 12.6q.54-.78.75-1.02.21-.24.39-.24.48.12 1.2.18 1.02.12 1.26.3t.12.84q-.18 1.5-1.98 5.88-3.42 8.22-5.04 14.46-.48 2.16-.66 4.56-.18 2.4.18 2.76 1.2 1.02 3.78.84l1.62-.3 1.08-.6q2.76-1.74 4.89-3.51 2.13-1.77 2.43-2.55.24-.66.06-1.32t-1.02-2.46q-.84-1.74-.84-2.16 0-.36.42-.87t.78-.63q.96-.24 3.87 2.97t6.21 8.07q1.38 2.1 1.56 2.28.3.18.45 1.05.15.87.03 1.59-.06.78-.6 1.26t-1.08.42q-.6-.12-.99-.6t-1.77-2.82q-1.74-2.94-3.24-4.5l-.36-.48-1.2 1.2q-2.22 2.16-4.68 4.05-2.46 1.89-4.2 2.73l-1.26.54-1.92.42q-4.2.18-6.66-2.1-1.68-1.86-1.32-4.74.18-1.68 2.07-9.03T102.16 39q1.26-3.66 2.7-5.88zM169 13.32q3.36-.42 4.89-.3 1.53.12 2.01.78.72 1.02.12 1.71t-2.7 1.17q-1.56.3-9.96 1.44l-3 .42.06.72q.12 1.98 1.2 4.14.48.96 1.14 1.17.66.21 3.48.33 6.6.3 7.86.48 1.26.18 1.5.72.36.84-.24 1.98-.24.48-1.35.66-1.11.18-5.85.42-4.38.24-4.62.36-.3.06-.18.96.06.9.69 3.9.63 3 .87 3.72.24.78.72.9.54.18 4.56.36 7.32.42 9.03.6 1.71.18 2.25.66 1.02.9.24 1.86-.48.66-1.56.78t-6.78.18l-6.9.12v.96q0 1.26.12 2.58.54 6.48.36 8.16-.24 1.74-1.11 4.02-.87 2.28-1.65 3.3-.9 1.08-3.3 2.28l-.78.42-2.28-.18q-2.7-.18-3.6-.45-.9-.27-2.1-1.17-1.92-1.44-4.53-3.84-2.61-2.4-2.79-2.88-.12-.42.21-.84.33-.42.93-.66.66-.24 1.14 0 1.02.48 4.02 3.06 2.94 2.46 3.78 2.85.84.39 3.3.39l2.1-.06 1.08-.9q1.26-2.1 1.62-5.16.24-1.86 0-6.3-.24-4.44-.6-5.46-.12-.3-.6-.36-.48-.12-9.84-.24-11.64-.24-12.42-.66-.6-.3-.96-.87-.36-.57-.3-.99.18-.6 1.29-.84t4.77-.48q9.18-.66 14.1-.48l2.64.12v-.48q0-.78-.96-6.12-.48-2.76-.78-2.88-.36-.12-6.18-.36-8.7-.36-9.66-.84-.6-.24-.9-.9-.3-.66 0-1.2.24-.48 1.86-.69 1.62-.21 6.66-.45 5.04-.24 5.64-.36.54-.06.66-.15t.18-.51q0-.48-.42-1.92t-.84-2.16l-.3-.6-1.92.06q-1.68.12-6.66.12h-4.86l-.36-.36q-.54-.54-.3-1.29.24-.75 1.08-1.23.96-.54 4.98-.9 3.18-.24 5.94-.6 8.4-1.02 15.06-1.74zm36.36 1.38q2.1-.24 7.32-.12 2.22 0 3.36-.18 1.14-.3 1.38-.18.42.18 4.59.27 4.17.09 8.67-.03 4.56-.12 5.28 0 .96.12 2.13.72t1.89 1.2q.78.78.96 1.5.42 2.16-1.8 4.56-2.64 2.88-4.08 1.68-.48-.48-.48-1.2-.06-.72.42-1.38.42-.72.54-1.32 0-.6-.36-.84-.48-.3-6.42-.36-12.36-.12-19.98-.54-1.68-.12-4.08.21-2.4.33-2.94.69-.18.12-.48 4.08-.06 1.62-.42 2.19-.36.57-1.26.63-.54 0-.78-.36-.3-.3-.3-2.76 0-3.48.42-5.01.42-1.53 1.56-2.07 1.98-.96 4.86-1.38zm4.5 7.62q.42-.18 1.14-.18t1.08.18q.9.42.72 1.98-.12 1.08-.06 1.35t.54.39q1.2.36 11.1.18 5.82-.06 6.48 0 1.2.18 1.5 1.08.24.84-.84 2.16l-.36.54-3.42.12q-5.4.24-11.58-.12-3.06-.18-3.72 0-1.32.18-1.92 1.44-.3.6-1.02 2.85t-.78 2.73q-.06.48.3.66 1.02.3 4.14-.3 1.44-.3 5.64-.36 10.08-.18 14.1.6t5.46 3.3q.78 1.44.99 3.75.21 2.31-.33 3.99-.18.84-1.41 3.21t-1.77 3.21q-.54.84-.66 1.32-.12.48-.63.84t-.51.6q0 .3-.42 1.02t-1.92 2.28q-1.5 1.56-2.1 1.98-1.44.96-2.52.63-1.08-.33-1.14-1.59-.06-.72.12-1.05.18-.33.78-.63 1.8-1.08 5.1-6.66 1.32-2.22 1.74-2.88.9-1.38 1.2-4.26.24-1.74-.66-3.42-.3-.66-.72-.9t-1.5-.54q-1.02-.18-1.44-.42-.54-.24-2.64-.36-1.5 0-6.3-.24-3.84-.18-8.76 0-4.68.24-5.16.12-1.26-.36-1.62-.87-.36-.51-.36-1.83.06-3.18 2.28-9.48 1.32-3.6 1.26-5.1-.06-1.02.6-1.32zm-4.44 26.16q4.98-.24 9.24 0 2.88.12 7.26.24 8.1.3 9 .66.48.18.69 1.05.21.87-.09 1.47-.3.54-1.23.78-.93.24-3.75.42-2.04.12-2.88.3-.6.12-.78-.12-.24-.3-1.74-.39-1.5-.09-6.78-.21-9.66-.24-12.24-.48-1.86-.18-2.7-.6-.84-.42-.96-1.14-.18-.96.78-1.32 1.02-.48 6.18-.66zm77.76-35.7q.42-.12 1.14-.15t1.44.39l.3.48v.84q0 2.52.06 6.42l-.06 1.62h1.8q4.8 0 8.58-.42 1.38-.18 2.82.12 1.38.3 1.77.48.39.18.57.72.48 1.08-.36 1.86-.9.84-8.16 1.26-4.38.24-5.1.3-.72.06-1.02.3-.3.3-.48.87-.18.57.06.99.36 1.02 3.3 3.18 1.92 1.32 4.86 3.84.42.42 1.2.84.78.48 2.7 2.22 3.84 3.66 6.24 5.4 1.5 1.14 1.77 1.56.27.42.27 1.74 0 1.26-.21 1.71-.21.45-.81.39-.48 0-.99-.36t-2.07-1.74q-3.24-2.94-7.11-6.24-3.87-3.3-5.55-4.44-3.84-2.82-4.02-2.58-.18.24-.27 8.46-.09 8.22.15 9.36.06.84.42 1.2l.36.36 6.36.12q6.36.06 6.84.24.84.48.99 1.77.15 1.29-.51 1.89-.6.48-2.58.06-2.58-.48-5.28-.12-1.8.18-3.3.18-2.16 0-2.88.6-.24.24-.12 1.38.18 2.7.27 3.45.09.75-.03 1.05-.24.9-.87 1.44-.63.54-1.41.42-.9-.06-1.08-.66-.18-.6.12-2.1.24-1.02.21-2.58t-.27-2.28q-.24-.66-.81-.75-.57-.09-2.79.15-2.88.3-5.46.3-2.46 0-3.06-.18-.6-.18-1.02-.9-.24-.54-.15-.87.09-.33.87-.93.96-.78 2.1-1.02.6-.18 3.9-.36t4.68-.18h1.38l-.06-4.62q-.36-16.56-.54-16.86 0-.06-.15.03t-.42.3q-.27.21-.69.66-.42.45-1.14 1.17-4.56 4.86-5.16 6.12-.3.72-2.16 2.94-1.86 2.28-2.58 3.9-.3.9-.51 1.14-.21.24-.57.48-.54.3-1.26.36-.66.12-1.14-.36-.84-.9.12-2.52 1.02-1.8 3.6-4.92 1.08-1.32 2.28-3 1.26-1.92 4.14-5.34 1.62-1.98 2.76-3.54 1.38-1.86 1.56-2.1.42-.54.3-.72-.12-.18-.84-.12-2.64.3-5.85.33-3.21.03-3.93-.27-.54-.18-.72-.6-.3-.42-.39-1.05-.09-.63.09-.87.36-.66 4.44-1.56 2.16-.48 5.16-.48h3.06v-4.2q0-4.32.12-4.56.12-.42.78-.84zm-16.32 3.72q1.2-.48 2.04-.12 1.08.54 1.02 1.92-.12.72-.45 1.35-.33.63-.63.75-.36.06-1.74.6-1.32.54-1.68.66-1.02.18-1.56 6.3-.12 1.86-.18 10.62-.06 8.58-.18 15.06-.18 6.06-.03 7.2.15 1.14-.09 1.68-.3.54-.78.84-.6.48-1.98.06l-.48-.18-.06-18.18q0-12.84-.06-16.35-.06-3.51-.24-3.69-.36-.36-2.82 1.74-1.44 1.26-1.8 1.5-.36.24-.9.24-.96 0-1.29-.33-.33-.33-.33-1.23 0-1.5.84-1.92.54-.3 1.8-1.2 2.7-2.1 6.18-4.32 3.48-2.22 5.4-3z"/></svg>