<svg viewBox="0 0 783 80" xmlns="http://www.w3.org/2000/svg"><path d="M29.2 56.84q3.48 0 5.55-2.01t2.07-5.37V24.74H20.8V18.8h22.62v30.66q0 3.06-.99 5.49t-2.82 4.14q-1.83 1.71-4.47 2.61-2.64.9-5.94.9-5.82 0-9.57-3.18t-4.41-8.64h6.6q.36 2.7 2.4 4.38 2.04 1.68 4.98 1.68zM67 62.6q-3.18 0-5.73-.9-2.55-.9-4.35-2.58-1.8-1.68-2.79-4.02t-.99-5.28v-8.64q0-2.94.99-5.31.99-2.37 2.79-4.02 1.8-1.65 4.35-2.55 2.55-.9 5.73-.9 3.18 0 5.73.9 2.55.9 4.35 2.55 1.8 1.65 2.76 4.02.96 2.37.96 5.31v6.06H59.74v2.34q0 3.54 1.92 5.52 1.92 1.98 5.34 1.98 2.52 0 4.35-.78 1.83-.78 2.67-2.28h6.54q-.54 1.98-1.74 3.54t-2.97 2.7Q74.08 61.4 71.83 62q-2.25.6-4.83.6zm-7.26-20.16h14.58v-1.26q0-3.42-1.92-5.37-1.92-1.95-5.4-1.95-3.42 0-5.34 1.95t-1.92 5.37v1.26zm28.38-7.5V29h9.3V18.8h6.6V29h12.66v5.94h-12.66v17.58q0 1.62.96 2.55.96.93 2.7.93h8.4v6h-8.7q-4.62 0-7.29-2.58t-2.67-6.9V34.94h-9.3zm37.74-16.14h13.26q6.36 0 9.96 3 3.6 3 3.6 8.28 0 3.9-2.19 6.36-2.19 2.46-5.91 2.76v.42q4.14.3 6.51 2.94t2.37 7.14q0 5.7-3.69 9T139.66 62h-13.8V18.8zm6.48 23.76V56.3h6.84q3.54 0 5.52-1.8 1.98-1.8 1.98-5.04t-1.98-5.07q-1.98-1.83-5.52-1.83h-6.84zm6.72-18.12h-6.72v12.6h6.72q3.12 0 4.98-1.71 1.86-1.71 1.86-4.59t-1.83-4.59q-1.83-1.71-5.01-1.71zM163.12 62V29h6.24v5.7h.54q.66-3 3.09-4.65 2.43-1.65 6.09-1.65 5.28 0 8.28 3.27 3 3.27 3 9.09v2.16h-6.78v-1.5q0-3.48-1.86-5.43-1.86-1.95-5.1-1.95-3.18 0-5.04 1.98-1.86 1.98-1.86 5.4V62h-6.6zm33.24-9.42q0-4.8 3.33-7.59t9.03-2.79h8.94v-2.82q0-2.64-1.83-4.14-1.83-1.5-5.19-1.5-2.58 0-4.38.96-1.8.96-2.34 2.64h-6.54q.78-4.14 4.38-6.54 3.6-2.4 8.94-2.4 6.3 0 9.93 2.88t3.63 7.92V62h-6.12v-6.42h-.48q-.66 3.24-3.54 5.13-2.88 1.89-6.96 1.89-4.98 0-7.89-2.7-2.91-2.7-2.91-7.32zm12.78 4.74q1.8 0 3.36-.48 1.56-.48 2.7-1.35 1.14-.87 1.8-2.04.66-1.17.66-2.55v-4.14h-8.88q-2.7 0-4.26 1.38-1.56 1.38-1.56 3.9t1.62 3.9q1.62 1.38 4.56 1.38zM262.3 62h-28.02v-6h11.94V34.94h-10.44V29h16.8v27h9.72v6zm-14.4-45.9h1.38q1.86 0 3 1.05t1.14 2.79q0 1.74-1.14 2.76-1.14 1.02-3 1.02h-1.38q-1.86 0-2.97-1.02t-1.11-2.76q0-1.74 1.11-2.79t2.97-1.05zM276.34 62h-6.6V29h6.24v5.7h.54q.66-3 2.97-4.65 2.31-1.65 5.85-1.65 2.46 0 4.47.84t3.42 2.4q1.41 1.56 2.19 3.75t.78 4.89V62h-6.54V41.18q0-3.36-1.77-5.25-1.77-1.89-4.83-1.89-3.12 0-4.92 1.98-1.8 1.98-1.8 5.4V62zm43.68.6h-2.16q-5.52 0-8.97-2.37-3.45-2.37-3.93-6.51h6.84q.36 1.62 2.01 2.58t4.05.96h2.16q2.94 0 4.59-1.2t1.65-3.3q0-3.6-5.28-4.32l-4.8-.66q-5.34-.66-7.89-3.06T305.74 38q0-4.56 3.21-7.08 3.21-2.52 9.15-2.52h2.1q5.22 0 8.49 2.31 3.27 2.31 3.87 6.27h-6.78q-.36-1.5-1.86-2.37-1.5-.87-3.72-.87h-2.1q-2.82 0-4.32 1.05-1.5 1.05-1.5 3.15 0 1.74 1.11 2.7 1.11.96 3.57 1.26l4.92.66q5.64.78 8.28 3.18 2.64 2.4 2.64 6.84 0 4.8-3.3 7.41-3.3 2.61-9.48 2.61zm62.7-.6h-5.88V18.8h7.92l4.98 14.1q.3.66.51 1.5.21.84.33 1.5.18.84.36 1.62h.42q.18-.78.36-1.62.18-.66.39-1.5.21-.84.45-1.5l4.62-14.1h8.04V62h-5.94V32.96q0-1.2.06-2.55.06-1.35.18-2.55.12-1.44.24-2.82h-.48q-.36 1.32-.66 2.58-.3 1.14-.66 2.4-.36 1.26-.66 2.28l-3.36 10.62h-5.76L384.7 32.3q-.3-1.08-.66-2.34-.36-1.26-.66-2.4-.3-1.26-.6-2.58h-.48q.12 1.38.24 2.82.06 1.2.12 2.58.06 1.38.06 2.58V62zm37.02-20.64v8.22q0 3.36 1.92 5.28 1.92 1.92 5.34 1.92 3.36 0 5.31-1.92 1.95-1.92 1.95-5.28v-8.22q0-3.36-1.95-5.28-1.95-1.92-5.31-1.92-3.3 0-5.28 1.95-1.98 1.95-1.98 5.25zm-6.6 8.22v-8.22q0-2.94.99-5.34t2.79-4.08q1.8-1.68 4.38-2.61 2.58-.93 5.7-.93 3.18 0 5.73.93 2.55.93 4.35 2.61 1.8 1.68 2.79 4.08.99 2.4.99 5.34v8.22q0 2.94-.99 5.37t-2.79 4.11q-1.8 1.68-4.35 2.61-2.55.93-5.73.93-3.12 0-5.7-.93t-4.38-2.64q-1.8-1.71-2.79-4.11-.99-2.4-.99-5.34zM456.34 62h-6.6V29h6.24v5.7h.54q.66-3 2.97-4.65 2.31-1.65 5.85-1.65 2.46 0 4.47.84t3.42 2.4q1.41 1.56 2.19 3.75t.78 4.89V62h-6.54V41.18q0-3.36-1.77-5.25-1.77-1.89-4.83-1.89-3.12 0-4.92 1.98-1.8 1.98-1.8 5.4V62zm35.4-20.64v8.22q0 3.36 1.92 5.28 1.92 1.92 5.34 1.92 3.36 0 5.31-1.92 1.95-1.92 1.95-5.28v-8.22q0-3.36-1.95-5.28-1.95-1.92-5.31-1.92-3.3 0-5.28 1.95-1.98 1.95-1.98 5.25zm-6.6 8.22v-8.22q0-2.94.99-5.34t2.79-4.08q1.8-1.68 4.38-2.61 2.58-.93 5.7-.93 3.18 0 5.73.93 2.55.93 4.35 2.61 1.8 1.68 2.79 4.08.99 2.4.99 5.34v8.22q0 2.94-.99 5.37t-2.79 4.11q-1.8 1.68-4.35 2.61-2.55.93-5.73.93-3.12 0-5.7-.93t-4.38-2.64q-1.8-1.71-2.79-4.11-.99-2.4-.99-5.34zM562.72 62h-5.88V18.8h7.92l4.98 14.1q.3.66.51 1.5.21.84.33 1.5.18.84.36 1.62h.42q.18-.78.36-1.62.18-.66.39-1.5.21-.84.45-1.5l4.62-14.1h8.04V62h-5.94V32.96q0-1.2.06-2.55.06-1.35.18-2.55.12-1.44.24-2.82h-.48q-.36 1.32-.66 2.58-.3 1.14-.66 2.4-.36 1.26-.66 2.28l-3.36 10.62h-5.76L564.7 32.3q-.3-1.08-.66-2.34-.36-1.26-.66-2.4-.3-1.26-.6-2.58h-.48q.12 1.38.24 2.82.06 1.2.12 2.58.06 1.38.06 2.58V62zm44.28.6q-3.18 0-5.73-.9-2.55-.9-4.35-2.58-1.8-1.68-2.79-4.02t-.99-5.28v-8.64q0-2.94.99-5.31.99-2.37 2.79-4.02 1.8-1.65 4.35-2.55 2.55-.9 5.73-.9 3.18 0 5.73.9 2.55.9 4.35 2.55 1.8 1.65 2.76 4.02.96 2.37.96 5.31v6.06h-21.06v2.34q0 3.54 1.92 5.52 1.92 1.98 5.34 1.98 2.52 0 4.35-.78 1.83-.78 2.67-2.28h6.54q-.54 1.98-1.74 3.54t-2.97 2.7q-1.77 1.14-4.02 1.74-2.25.6-4.83.6zm-7.26-20.16h14.58v-1.26q0-3.42-1.92-5.37-1.92-1.95-5.4-1.95-3.42 0-5.34 1.95t-1.92 5.37v1.26zm29.4 7.14V41.3q0-3 .81-5.37t2.28-4.05q1.47-1.68 3.57-2.58 2.1-.9 4.62-.9 3.6 0 5.97 1.65 2.37 1.65 3.03 4.65h.54l-.12-2.04q-.12-.9-.15-1.89-.03-.99-.03-1.77V18.2h6.54V62h-6.24v-5.7h-.54q-.66 3-3.03 4.65-2.37 1.65-5.97 1.65-2.52 0-4.62-.9t-3.57-2.58q-1.47-1.68-2.28-4.11-.81-2.43-.81-5.43zm13.68 7.26q3.12 0 4.98-1.98 1.86-1.98 1.86-5.28v-8.16q0-3.36-1.89-5.34t-4.95-1.98q-3.3 0-5.19 1.95-1.89 1.95-1.89 5.37v8.1q0 3.36 1.89 5.34t5.19 1.98zM694.3 62h-28.02v-6h11.94V34.94h-10.44V29h16.8v27h9.72v6zm-14.4-45.9h1.38q1.86 0 3 1.05t1.14 2.79q0 1.74-1.14 2.76-1.14 1.02-3 1.02h-1.38q-1.86 0-2.97-1.02t-1.11-2.76q0-1.74 1.11-2.79t2.97-1.05zm22.02 33.84V29h6.6v20.94q0 6.9 6.42 6.9 6.6 0 6.6-6.9V29h6.54v20.94q0 6.06-3.42 9.36t-9.72 3.3q-6.18 0-9.6-3.33t-3.42-9.33zM736.3 62V29h5.04v4.86h.48q.24-2.58 1.68-4.02 1.44-1.44 3.9-1.44 2.34 0 3.93 1.41 1.59 1.41 2.19 4.05h.24q.24-2.58 1.68-4.02 1.44-1.44 3.9-1.44 3 0 4.71 2.25t1.71 6.21V62h-5.58V37.16q0-3.96-3.18-3.96t-3.18 4.2V62h-5.58V37.16q0-2.28-1.14-3.3-.84-.66-2.04-.66-1.2 0-1.98.66-1.2.96-1.2 3.54V62h-5.58z"/></svg>