<svg viewBox="0 0 891 80" xmlns="http://www.w3.org/2000/svg"><path d="M30.2 54.86q2.76 0 4.38-1.62t1.62-4.32V27.14H21.8v-8.4h23.4v30.18q0 3.18-1.05 5.73-1.05 2.55-3 4.32-1.95 1.77-4.71 2.73t-6.24.96q-3.36 0-6.09-.93t-4.68-2.64q-1.95-1.71-3.03-4.17-1.08-2.46-1.2-5.52h9q.12 2.46 1.74 3.96t4.26 1.5zM68 62.6q-3.42 0-6.21-.96t-4.77-2.67q-1.98-1.71-3.06-4.17t-1.08-5.4v-7.86q0-3 1.08-5.4 1.08-2.4 3.06-4.14 1.98-1.74 4.77-2.67 2.79-.93 6.21-.93 3.36 0 6.12.96 2.76.96 4.74 2.7 1.98 1.74 3.06 4.17Q83 38.66 83 41.6v6H61.76v1.8q0 3 1.62 4.65Q65 55.7 68 55.7q2.22 0 3.78-.72 1.56-.72 2.1-1.98h8.82q-.54 2.16-1.89 3.93-1.35 1.77-3.27 3.03-1.92 1.26-4.35 1.95-2.43.69-5.19.69zm-6.24-20.4H74.3v-.6q0-3-1.65-4.65Q71 35.3 68 35.3q-2.94 0-4.59 1.65t-1.65 4.59v.66zm26.34-5.1V29h8.7V18.8h9V29h12.3v8.1h-12.3v13.5q0 1.56.87 2.43.87.87 2.43.87h8.4V62h-9.3q-5.34 0-8.37-3.03-3.03-3.03-3.03-8.37V37.1h-8.7zM140.6 62h-14.82V18.8h14.46q3.36 0 6.06.78 2.7.78 4.59 2.22 1.89 1.44 2.91 3.48 1.02 2.04 1.02 4.56 0 4.02-2.25 6.48-2.25 2.46-6.21 2.82v.66q4.32.3 6.78 2.88t2.46 6.78q0 2.88-1.05 5.19-1.05 2.31-3 3.96t-4.74 2.52q-2.79.87-6.21.87zm-.36-18.78h-5.76V54.8h5.76q3 0 4.65-1.5 1.65-1.5 1.65-4.26t-1.65-4.29q-1.65-1.53-4.65-1.53zM140.12 26h-5.64v10.02h5.64q2.58 0 4.11-1.38 1.53-1.38 1.53-3.66 0-2.28-1.5-3.63T140.12 26zm22.8 36V29h8.52v5.7h.6q.48-3.06 2.82-4.68 2.34-1.62 6.18-1.62 5.46 0 8.46 3.33 3 3.33 3 9.27v2.7h-9.6v-2.1q0-2.7-1.56-4.2t-4.26-1.5q-2.4 0-3.78 1.53t-1.38 4.17V62h-9zm33.66-9q0-5.04 3.66-7.95t9.96-2.91h7.14V39.2q0-1.74-1.47-2.82-1.47-1.08-3.99-1.08-2.22 0-3.69.81-1.47.81-1.89 2.19h-8.7q.36-2.28 1.53-4.11 1.17-1.83 3.03-3.12 1.86-1.29 4.32-1.98t5.4-.69q3.24 0 5.91.78t4.56 2.19q1.89 1.41 2.94 3.39 1.05 1.98 1.05 4.44V62h-8.58v-6.6h-.54q-.42 3.36-3.15 5.28-2.73 1.92-6.93 1.92-4.86 0-7.71-2.58-2.85-2.58-2.85-7.02zm14.22 2.7q2.88 0 4.71-1.35t1.83-3.45v-3.36h-7.14q-2.1 0-3.36 1.05-1.26 1.05-1.26 2.97 0 1.92 1.35 3.03 1.35 1.11 3.87 1.11zm23.7 6.3v-8.16h11.7V37.1H236V29h18.6v24.84h9.3V62h-29.4zm9.9-41.7q0-1.92 1.23-3.06 1.23-1.14 3.27-1.14h1.8q2.04 0 3.27 1.14t1.23 3.06q0 1.92-1.23 3.06-1.23 1.14-3.33 1.14h-1.74q-2.04 0-3.27-1.14t-1.23-3.06zM278.66 62h-9V29h8.52v5.7h.6q.42-3 2.64-4.65 2.22-1.65 5.82-1.65 5.04 0 7.95 3.3t2.91 9V62h-9V41.6q0-2.52-1.41-3.96t-3.81-1.44q-2.4 0-3.81 1.44-1.41 1.44-1.41 3.96V62zm42.78.6h-3q-6.18 0-9.66-2.37-3.48-2.37-4.08-6.93h9q.42 1.38 1.65 2.1 1.23.72 3.09.72h3q2.52 0 3.84-.9 1.32-.9 1.32-2.58 0-2.94-4.8-3.48l-4.5-.48q-6.18-.66-9.09-3.15-2.91-2.49-2.91-7.11 0-4.86 3.39-7.44t9.75-2.58h3q6 0 9.39 2.28 3.39 2.28 3.93 6.78h-9q-.66-2.64-4.32-2.64h-3q-4.44 0-4.44 3 0 2.88 4.08 3.36l4.8.54q12.42 1.44 12.42 10.56 0 5.1-3.54 7.71-3.54 2.61-10.32 2.61zm62.82-.6h-7.86V18.8h10.44l4.38 13.08q.24.66.36 1.38.12.72.24 1.32l.12 1.32h.48q.06-.66.18-1.32.12-.6.24-1.32.12-.72.3-1.38l3.9-13.08h10.56V62h-7.86V35.6q0-1.68.15-3.36t.33-3.06q.18-1.68.42-3.18h-.72q-.3 1.44-.54 2.82-.3 1.2-.54 2.49-.24 1.29-.54 2.19l-2.7 9.6h-7.08l-3-9.6q-.3-.9-.54-2.16-.24-1.26-.42-2.46-.24-1.38-.48-2.88h-.78q.24 1.5.48 3.18.18 1.38.33 3.06.15 1.68.15 3.36V62zm37.62-20.46v7.86q0 2.46 1.65 3.9t4.47 1.44q2.82 0 4.47-1.44t1.65-3.9v-7.86q0-2.46-1.65-3.9T428 36.2q-2.82 0-4.47 1.44t-1.65 3.9zm-9 7.86v-7.86q0-2.88 1.08-5.31 1.08-2.43 3.06-4.17 1.98-1.74 4.77-2.7 2.79-.96 6.21-.96t6.21.96q2.79.96 4.77 2.7 1.98 1.74 3.06 4.17 1.08 2.43 1.08 5.31v7.86q0 2.88-1.08 5.31-1.08 2.43-3.06 4.2t-4.77 2.73q-2.79.96-6.21.96t-6.21-.96q-2.79-.96-4.77-2.73-1.98-1.77-3.06-4.2t-1.08-5.31zM458.66 62h-9V29h8.52v5.7h.6q.42-3 2.64-4.65 2.22-1.65 5.82-1.65 5.04 0 7.95 3.3t2.91 9V62h-9V41.6q0-2.52-1.41-3.96t-3.81-1.44q-2.4 0-3.81 1.44-1.41 1.44-1.41 3.96V62zm35.22-20.46v7.86q0 2.46 1.65 3.9t4.47 1.44q2.82 0 4.47-1.44t1.65-3.9v-7.86q0-2.46-1.65-3.9T500 36.2q-2.82 0-4.47 1.44t-1.65 3.9zm-9 7.86v-7.86q0-2.88 1.08-5.31 1.08-2.43 3.06-4.17 1.98-1.74 4.77-2.7 2.79-.96 6.21-.96t6.21.96q2.79.96 4.77 2.7 1.98 1.74 3.06 4.17 1.08 2.43 1.08 5.31v7.86q0 2.88-1.08 5.31-1.08 2.43-3.06 4.2t-4.77 2.73q-2.79.96-6.21.96t-6.21-.96q-2.79-.96-4.77-2.73-1.98-1.77-3.06-4.2t-1.08-5.31zM586.1 62h-27.3V18.8h27.3v7.8h-18.3v9.36H584v7.8h-16.2V54.2h18.3V62zm5.16 0l11.7-17.1L592.04 29h10.02l4.62 6.84q.3.48.51.87.21.39.33.69.12.42.24.72h.48q.06-.3.24-.66.12-.3.33-.72.21-.42.51-.9l4.62-6.84h10.02L613.1 44.9 624.74 62h-10.02l-5.34-7.98q-.6-1.02-.9-1.62-.12-.36-.24-.66h-.48q-.12.3-.24.66-.12.3-.33.69-.21.39-.51.87l-5.4 8.04h-10.02zm36.84-24.9V29h8.7V18.8h9V29h12.3v8.1h-12.3v13.5q0 1.56.87 2.43.87.87 2.43.87h8.4V62h-9.3q-5.34 0-8.37-3.03-3.03-3.03-3.03-8.37V37.1h-8.7zM666.92 62V29h8.52v5.7h.6q.48-3.06 2.82-4.68 2.34-1.62 6.18-1.62 5.46 0 8.46 3.33 3 3.33 3 9.27v2.7h-9.6v-2.1q0-2.7-1.56-4.2t-4.26-1.5q-2.4 0-3.78 1.53t-1.38 4.17V62h-9zm33.66-9q0-5.04 3.66-7.95t9.96-2.91h7.14V39.2q0-1.74-1.47-2.82-1.47-1.08-3.99-1.08-2.22 0-3.69.81-1.47.81-1.89 2.19h-8.7q.36-2.28 1.53-4.11 1.17-1.83 3.03-3.12 1.86-1.29 4.32-1.98t5.4-.69q3.24 0 5.91.78t4.56 2.19q1.89 1.41 2.94 3.39 1.05 1.98 1.05 4.44V62h-8.58v-6.6h-.54q-.42 3.36-3.15 5.28-2.73 1.92-6.93 1.92-4.86 0-7.71-2.58-2.85-2.58-2.85-7.02zm14.22 2.7q2.88 0 4.71-1.35t1.83-3.45v-3.36h-7.14q-2.1 0-3.36 1.05-1.26 1.05-1.26 2.97 0 1.92 1.35 3.03 1.35 1.11 3.87 1.11zm37.8 6.3h-14.82V18.8h14.46q3.36 0 6.06.78 2.7.78 4.59 2.22 1.89 1.44 2.91 3.48 1.02 2.04 1.02 4.56 0 4.02-2.25 6.48-2.25 2.46-6.21 2.82v.66q4.32.3 6.78 2.88t2.46 6.78q0 2.88-1.05 5.19-1.05 2.31-3 3.96t-4.74 2.52q-2.79.87-6.21.87zm-.36-18.78h-5.76V54.8h5.76q3 0 4.65-1.5 1.65-1.5 1.65-4.26t-1.65-4.29q-1.65-1.53-4.65-1.53zM752.12 26h-5.64v10.02h5.64q2.58 0 4.11-1.38 1.53-1.38 1.53-3.66 0-2.28-1.5-3.63T752.12 26zm29.76 15.54v7.86q0 2.46 1.65 3.9t4.47 1.44q2.82 0 4.47-1.44t1.65-3.9v-7.86q0-2.46-1.65-3.9T788 36.2q-2.82 0-4.47 1.44t-1.65 3.9zm-9 7.86v-7.86q0-2.88 1.08-5.31 1.08-2.43 3.06-4.17 1.98-1.74 4.77-2.7 2.79-.96 6.21-.96t6.21.96q2.79.96 4.77 2.7 1.98 1.74 3.06 4.17 1.08 2.43 1.08 5.31v7.86q0 2.88-1.08 5.31-1.08 2.43-3.06 4.2t-4.77 2.73q-2.79.96-6.21.96t-6.21-.96q-2.79-.96-4.77-2.73-1.98-1.77-3.06-4.2t-1.08-5.31zm34.62-31.2h19.2v32.4q0 1.56.87 2.43.87.87 2.43.87h9.9V62h-10.8q-5.34 0-8.37-3.03-3.03-3.03-3.03-8.37V26.3h-10.2v-8.1zm37.38 31.2v-8.1q0-2.94.81-5.34t2.34-4.08q1.53-1.68 3.66-2.58 2.13-.9 4.71-.9 3.54 0 5.79 1.68t2.73 4.62h.6l-.12-2.04q-.12-.9-.15-1.89-.03-.99-.03-1.77V18.2h9V62h-8.7v-5.76h-.6q-.48 3-2.73 4.68-2.25 1.68-5.79 1.68-2.58 0-4.71-.93t-3.66-2.64q-1.53-1.71-2.34-4.14-.81-2.43-.81-5.49zm14.64 5.34q2.7 0 4.2-1.5t1.5-3.84v-7.8q0-2.46-1.56-3.93-1.56-1.47-4.14-1.47-2.58 0-4.11 1.44-1.53 1.44-1.53 3.96v7.5q0 2.52 1.47 4.08t4.17 1.56z"/></svg>