<svg viewBox="0 0 300 80" xmlns="http://www.w3.org/2000/svg"><path d="M41.16 20.04q0 1.17-.51 1.74-.51.57-1.3.81-.8.23-1.72.28-.92.04-1.74.16l-1.58.17q.67 5.19.83 10.36.16 5.17.16 10.44 0 1.64-.09 3.48-.08 1.83-.41 3.63-.32 1.8-.93 3.44-.62 1.64-1.67 2.89-1.06 1.24-2.61 1.99-1.55.75-3.72.75-2.49 0-4.44-1.07-1.95-1.07-3.3-2.8-1.34-1.73-2.05-3.94-.7-2.21-.7-4.5 0-.47.04-1.52.05-1.06.24-2.16.19-1.09.59-1.93.39-.83 1.06-.83.39 0 .96.19t1.08.51q.51.32.88.75.37.42.37.89 0 1.11-.27 2.17-.26 1.05-.26 2.17 0 1.2.35 2.66.35 1.47 1.05 2.77.71 1.3 1.78 2.18 1.07.88 2.5.88 1.06 0 1.8-.39.75-.4 1.26-1.06.52-.66.82-1.51.31-.85.52-1.73.67-2.95.77-5.99.11-3.03.11-6.13 0-4.02-.2-8.03-.19-4.02-.68-8.03-2 .23-3.93.5-1.93.26-3.93.26-.49 0-.77-.2-.28-.21-.28-.74 0-1.02.62-1.56.61-.54 1.55-.78 1.55-.44 3.18-.63 1.62-.19 3.2-.42v-.47q0-.5.36-.63.35-.13.76-.13.61 0 1.2.17.59.18 1.08.59 1.64-.27 3.27-.63 1.63-.37 3.35-.37.62 0 .99.37.36.36.36.98zm11.16 20.62q0 .3-.05.62-.06.32-.12.59-.06.32-.12.6-.06.27-.06.54 0 2.72.11 5.46.1 2.74.57 5.49.14 1.06.35 2.06.2.99.47 2.02l.06.17v-.06q.08.21.16.43.07.22.07.45 0 .33-.16.53-.16.21-.4.32-.23.12-.51.15t-.51.03q-.97 0-1.54-.22-.57-.22-.92-.62-.35-.39-.52-.95-.16-.56-.27-1.23l-.09-.53q-.12-.41-.15-.88-.03-.23-.04-.21-.02.01-.05-.22-.41.73-.95 1.56-.54.84-1.23 1.56-.69.71-1.48 1.2-.79.48-1.7.48-1.26 0-1.95-.76-.68-.76-1.01-1.86-.32-1.1-.38-2.29-.06-1.18-.06-2.06 0-3.34.22-6.62.22-3.28.49-6.6 0-.08.01-.23.02-.15.02-.23.03-.41.05-.77.03-.35.15-.67v.03q.12-.47.34-.67.22-.21.69-.21.44 0 .88.16t.79.44q.35.28.57.66.22.38.22.85v.56q0 .32-.03.55 0 .21-.02.52-.01.3-.01.51-.24 2.81-.35 5.58-.12 2.77-.12 5.61 0 .79.01 1.58.02.79.17 1.58.96-1.23 1.67-3.15.7-1.91 1.18-4.07.49-2.15.79-4.27.31-2.13.46-3.77 0-.09.01-.2.02-.12.02-.21.03-.32.06-.61.02-.3.2-.56 0-.27.03-.56.03-.29.15-.54.11-.25.33-.4.22-.14.63-.14 1.18 0 1.85.72.67.71.73 1.83.15.23.22.45t.07.48zm13.28-2.13q0 .35-.25.58-.25.24-.6.4-.36.16-.72.22-.37.06-.6.06-.35 0-.68-.08-.32-.07-.64-.16t-.62-.16q-.29-.07-.61-.07-.44 0-.88.14-.44.15-.79.41-.35.27-.57.65-.22.38-.22.85 0 .7.29 1.39t.78 1.39q.48.7 1.11 1.42.63.72 1.33 1.45.85.94 1.72 1.91.86.96 1.55 2.02.69 1.05 1.13 2.22.44 1.18.44 2.46 0 1.12-.37 2-.36.88-1.02 1.49-.66.62-1.59.95-.92.34-2 .34-.3 0-.9-.12-.6-.11-1.36-.33-.76-.22-1.57-.49-.8-.26-1.46-.57-.66-.31-1.08-.61-.43-.31-.43-.58 0-.35.32-.71.32-.37.76-.68.44-.3.93-.51.48-.2.8-.2.44 0 .93.2.48.21.98.47.55.29 1.12.53.58.23 1.19.23.47 0 .54-.32.08-.32.08-.73 0-1.03-.35-1.95-.36-.92-.91-1.8-.56-.88-1.29-1.72-.73-.83-1.47-1.65-.76-.82-1.48-1.64-.71-.82-1.27-1.69-.56-.86-.89-1.77-.34-.91-.34-1.93 0-1.26.56-2.27.55-1.02 1.45-1.75.89-.73 2.02-1.13 1.12-.39 2.27-.39.38 0 1.17.16.79.16 1.55.45.76.3 1.35.71.59.41.59.91zm9.11 20.74q0 .32-.15.54-.15.22-.37.34-.22.11-.46.16-.25.04-.49.04-.32 0-.74-.07-.43-.07-.84-.22t-.75-.37q-.33-.22-.51-.54-.18-.29-.31-1.1-.13-.8-.22-1.87-.08-1.07-.14-2.29-.06-1.21-.11-2.33-.04-1.11-.05-2-.02-.9-.02-1.34 0-2.05.07-3.97.08-1.92.17-3.94-.15 0-.3.03-.14.03-.29.03-.38.06-.78.09-.39.03-.8.03-.5 0-.88-.18-.38-.17-.38-.79 0-.73.32-1.17.32-.44.82-.69.5-.25 1.08-.35.59-.1 1.15-.16.08 0 .11-.02.03-.01.12-.01.03-.35.06-.87.03-.51.06-1.12.03-.97.09-2.07.05-1.1.11-2.11.06-1.01.15-1.78.09-.78.18-1.1.14-.38.33-.62.19-.23.72-.23 1.17 0 1.82.76.64.76.64 1.87 0 1.29-.07 2.58-.08 1.29-.13 2.61l-.09 1.49q.73-.08 1.46-.26.71-.15 1.42-.26.72-.12 1.4-.12.58 0 .9.31.33.3.33.89 0 .64-.24 1.26-.23.61-.82.94h.03q-.12.06-.7.16-.59.1-1.34.19-.74.09-1.46.17-.72.09-1.07.12h-.03q-.06 1.64-.09 3.24-.03 1.6-.03 3.24 0 2.25.14 4.79.13 2.53.45 4.82l.23 1.31q.12.5.21.99.09.48.09.95zm35.48-15.38q0 .61-.44 1.29-.44.67-.97.99-.15.09-.5.18t-.75.16q-.39.07-.76.15-.36.07-.57.1l.7 4.33q.33 2.03.49 4.06.16 2.04.74 4.03.06.18.12.32.06.15.06.38 0 .38-.22.59-.22.2-.53.31-.3.1-.66.13-.35.03-.64.03h-.41q-.91 0-1.39-.15-.49-.15-.75-.5t-.35-.89q-.09-.54-.21-1.33-.7-5.36-1.58-10.73-1.81.24-3.65.44-1.83.21-3.67.38l-.94 5.75q-.06.52-.16 1.43-.1.91-.23 1.86-.14.95-.3 1.77-.16.82-.36 1.21-.18.35-.33.49-.14.15-.55.15-.53 0-1.04-.19-.52-.19-.91-.53-.4-.33-.63-.8-.24-.47-.24-1.06 0-.58.14-1.17.13-.59.22-1.17.32-1.94.58-3.85.27-1.92.59-3.83-.21-.03-.47-.1t-.51-.19q-.25-.12-.43-.29-.17-.18-.17-.41 0-.3.22-.55.22-.24.52-.46.31-.22.63-.39.33-.16.56-.24.61-4.11 1.17-8.18.56-4.07 1-8.23.11-1.11.2-2.26.09-1.14.19-2.28.11-1.14.27-2.26.16-1.11.45-2.22.26-1.06.88-1.7.61-.65 1.82-.65.35 0 .68.06.34.06.61.24.76.38 1.58 2.08.82 1.69 1.64 4.11.82 2.42 1.57 5.23.74 2.81 1.36 5.45.61 2.64 1.05 4.76l.65 3.15q.61-.09 1.23-.16.61-.07 1.23-.07.29 0 .67.03.38.02.72.16.34.13.56.38.22.25.22.66zm-9.2-.24q-.77-4.16-1.66-8.24-.89-4.09-2.09-8.16-.53 4.42-1.15 8.79-.61 4.36-1.31 8.73 1.58-.24 3.12-.52 1.53-.28 3.09-.6zm14.29 16.2q0 .68-.39.88-.4.21-.95.21-.5 0-.99-.08-.48-.07-.9-.27-.43-.21-.74-.56-.3-.35-.42-.91-.41-1.76-.47-3.44-.06-1.69-.06-3.47V48.6q0-2.46.21-5.11.2-2.65.44-5.11 0-.09.03-.21.02-.11.02-.17.03-.32.09-.71.06-.38.19-.68.13-.31.38-.52.25-.2.66-.2.47 0 .9.19.42.19.74.5.33.3.52.74t.19.91q0 .5-.03 1.1-.03.6-.09 1.13 0 .15-.02.32-.01.18-.04.32.41-.82.94-1.71t1.21-1.64q.69-.75 1.53-1.22.83-.47 1.86-.47.85 0 1.4.27.56.26.9.75.33.48.47 1.12.13.65.13 1.38 0 1-.06 2.01l-.12 2q-.09 1.03-.14 2.03-.06.99-.06 2.02 0 1.23.06 2.53.05 1.3.17 2.49.12 1.19.27 2.14.14.95.29 1.48.12.44.25 1.01.13.57.26 1.17t.22 1.16q.09.56.09 1 0 .64-.51.82-.52.17-1.01.17-.5 0-1.13-.07-.63-.08-1.13-.34-.62-.44-.81-1.23-.19-.79-.25-1.55l-.08-.79q-.09-.71-.24-1.85-.14-1.14-.28-2.52-.13-1.38-.22-2.85-.08-1.48-.08-2.89 0-1.26.1-2.43.1-1.17.22-2.38.06-.61.09-.99l.08-1q-.58.94-1.17 2.2-.58 1.26-1.11 2.62-.53 1.36-.95 2.65-.43 1.29-.66 2.26l-.18.64q-.14.47-.25.94-.1.47-.1.88 0 .53.06 1.22.06.68.15 1.3.08.73.2 1.49 0 .06.06.38.06.33.12.77t.1.92q.04.48.04.86zm23.88-11.86q0 2.55-.42 5.08-.43 2.54-1.75 4.79-.41.68-.94 1.31-.52.62-1.15 1.14-.63.51-1.38.82-.75.31-1.57.31-1.29 0-2.24-.61-.95-.6-1.64-1.58-.69-.98-1.14-2.22-.46-1.25-.7-2.55-.25-1.31-.36-2.54-.1-1.23-.1-2.16 0-1.06.09-2.32.09-1.26.31-2.58t.58-2.6q.37-1.29.96-2.42.58-1.13 1.4-2.02.82-.9 1.91-1.42v.03q.93-.5 1.87-.5.59 0 .91.25.32.25.29.83 1.61.29 2.61 1.55 1 1.26 1.54 2.93.54 1.67.73 3.43.19 1.76.19 3.05zm-6.62-7.33q-.5 0-.94-.38-.56.85-.94 1.95-.38 1.1-.6 2.26-.22 1.15-.3 2.33-.09 1.17-.09 2.19 0 .85.09 2.19.08 1.33.33 2.68.25 1.34.71 2.52.45 1.17 1.18 1.73.91-.53 1.51-1.69t.95-2.53q.35-1.38.49-2.79.13-1.4.13-2.4 0-.73-.09-1.9-.09-1.18-.29-2.39-.21-1.22-.57-2.27-.37-1.06-.93-1.58-.26.08-.64.08zm15.2 18.61q0 .32-.14.54-.15.22-.37.34-.22.11-.47.16-.25.04-.48.04-.32 0-.75-.07-.42-.07-.83-.22t-.75-.37q-.34-.22-.51-.54-.18-.29-.31-1.1-.13-.8-.22-1.87t-.15-2.29q-.05-1.21-.1-2.33-.04-1.11-.06-2-.01-.9-.01-1.34 0-2.05.07-3.97.07-1.92.16-3.94-.14 0-.29.03-.15.03-.29.03-.38.06-.78.09t-.81.03q-.49 0-.87-.18-.39-.17-.39-.79 0-.73.33-1.17.32-.44.82-.69.5-.25 1.08-.35.59-.1 1.14-.16.09 0 .12-.02.03-.01.12-.01.03-.35.06-.87.03-.51.06-1.12.02-.97.08-2.07.06-1.1.12-2.11.06-1.01.15-1.78.08-.78.17-1.1.15-.38.34-.62.19-.23.72-.23 1.17 0 1.81.76.65.76.65 1.87 0 1.29-.08 2.58-.07 1.29-.13 2.61l-.08 1.49q.73-.08 1.46-.26.7-.15 1.42-.26.72-.12 1.39-.12.59 0 .91.31.32.3.32.89 0 .64-.23 1.26-.24.61-.82.94h.03q-.12.06-.71.16-.58.1-1.33.19-.75.09-1.46.17-.72.09-1.07.12h-.03q-.06 1.64-.09 3.24-.03 1.6-.03 3.24 0 2.25.13 4.79.13 2.53.46 4.82l.23 1.31q.12.5.21.99.08.48.08.95zm19.16-.85q0 .58-.38.85-.38.26-.93.26-.36 0-.74-.07-.38-.08-.73-.16-.61-.18-.95-.44-.34-.27-.51-.6-.18-.34-.22-.75-.05-.41-.08-.91 0-.14-.01-.26-.02-.12-.02-.24-.08-1.67-.16-3.42-.07-1.76-.07-3.43 0-.85.01-1.7.02-.85.05-1.7.03-.85.04-1.68.02-.84.02-1.69 0-.18-.02-.34-.01-.16-.04-.33-.76 1.11-1.33 2.47-.58 1.36-1.02 2.81-.43 1.45-.74 2.91-.31 1.45-.52 2.76l-.08.62q-.15 1.02-.3 2.09-.14 1.07-.14 2.13 0 .44.14.96.06.24.11.46.04.22.04.54 0 .7-.35.95t-.94.25q-.35 0-.78-.06-.42-.06-.82-.19-.39-.13-.74-.33-.35-.21-.56-.53-.17-.38-.34-2.02-.16-1.64-.29-4.08-.13-2.43-.25-5.46t-.22-6.22q-.1-3.2-.17-6.33-.08-3.14-.12-5.77l-.07-4.59q-.03-1.95-.03-2.74 0-.58.16-1.07.16-.48.92-.48.79 0 1.49.36.71.37 1.03 1.13.06.12.12.95.06.84.11 2.14.06 1.31.12 2.99.06 1.69.12 3.49l.12 3.62q.05 1.81.11 3.39l.15 4.34q.35-.91.88-1.9.53-1 1.21-1.82.69-.82 1.56-1.35.86-.52 1.92-.52 1.29 0 2.02.67t1.1 1.67q.36.99.45 2.14.09 1.14.09 2.08 0 .58-.02 1.14-.01.56-.04 1.11-.03.59-.04 1.16-.02.57-.02 1.16 0 2.02.09 4.14.09 2.13.44 4.18l.06.41q.06.17.09.41.02.23.02.44zm13.86-3.78q0 .88-.48 1.82-.49.93-1.25 1.71-.76.78-1.74 1.27-.98.5-1.95.5-1.38 0-2.37-.54-1-.54-1.73-1.47-.73-.92-1.19-2.09-.45-1.17-.71-2.42-.27-1.24-.37-2.49-.1-1.24-.1-2.27 0-.88.1-2.08.1-1.2.35-2.49.25-1.29.69-2.55.44-1.26 1.1-2.25.66-1 1.58-1.61.92-.62 2.12-.62.94 0 1.69.38t1.26 1.01q.51.63.79 1.45t.28 1.7q0 1.14-.53 2.49-.53 1.35-1.36 2.61-.84 1.26-1.88 2.27T173 50.51q.06.53.23 1.54.18 1.01.49 2 .3 1 .73 1.73.42.73 1.01.73.29 0 .51-.17.22-.18.4-.47.17-.29.3-.65.14-.35.25-.67l.18-.41q.06-.09.07-.12.02-.03.05-.08.2-.39.39-.71.19-.32.54-.55h-.02q.11-.12.24-.14.14-.01.25-.01.33 0 .71.2.38.21.7.52.32.3.53.67.2.37.2.72zm-5.8-12.92q0-.29-.03-.62-.03-.32-.14-.55-.41.49-.72 1.18t-.52 1.44q-.2.75-.33 1.51t-.19 1.4q.76-.9 1.35-2.06.58-1.16.58-2.3zm9.87 18.75q-.44 0-.95-.12t-.96-.38q-.46-.26-.77-.66-.3-.39-.3-.95 0-.82.07-1.63.07-.8.16-1.59v.03l.18-1.97q.08-1.05.14-2.31.06-1.26.1-2.56.05-1.31.08-2.57.03-1.26.03-2.31 0-.62-.02-1.25-.01-.63-.01-1.27-.03-.56-.03-1.25v-1.27q0-.62.16-1.01.16-.4.92-.4.68 0 1.42.35.75.36 1.04 1h-.03q.15.32.22 1.04.08.72.11 1.27.49-.76 1.12-1.61.63-.85 1.37-1.56.73-.72 1.55-1.19.82-.47 1.76-.47 1.23 0 1.87.62.65.61.94 1.53.29.93.32 1.97.03 1.04.03 1.89v.23q0 .35-.01.69-.02.34-.12.61-.1.28-.35.46-.25.17-.69.17-.47 0-1-.13-.52-.13-.98-.39-.45-.27-.77-.66-.33-.4-.36-.93v-.46q0-.24.03-.47 0-.15.02-.37.01-.22.01-.42-.93.93-1.65 2.31-.72 1.38-1.29 2.93-.57 1.55-.98 3.12-.41 1.57-.71 2.83v.09q-.08.9-.11 1.78l-.06 1.82q-.03 1.05-.08 2.14-.04 1.08-.16 2.11-.05.55-.33.86-.28.31-.93.31zm43.63-23.26q0 1.32-.68 1.86-.67.54-1.9.77.26 4.52.34 8.97.07 4.45.07 8.96 0 .71-.29 1.09-.3.38-1.06.38-.64 0-1.27-.15-.63-.14-1.13-.45-.5-.31-.81-.82-.3-.52-.3-1.28V43.95q0-1.73-.06-3.46-2.52.35-5.04.6t-5.04.34q.09 6.24.35 12.48.09 1.29.19 2.52t.1 2.46q0 .58-.32.88-.32.29-.91.29-.44 0-.93-.07-.5-.08-.99-.25-.48-.18-.89-.44-.41-.27-.64-.65-.09-.14-.15-.88-.06-.73-.1-1.84-.05-1.12-.08-2.52-.03-1.41-.03-2.9v-9.03q-.41 0-.73-.19t-.32-.63q0-.52.31-1.01.31-.48.74-.8v-17.7q0-.58.22-.94.22-.35.84-.35 1 0 1.6.3.6.29.9.8.31.51.41 1.23.11.72.14 1.54.08 3.57.11 7.15.03 3.57.12 7.15 2.52-.24 5.01-.49 2.49-.25 5.01-.74-.15-3.11-.37-6.16-.22-3.04-.63-6.15-.23-1.46-.55-2.91-.32-1.45-.32-2.95 0-.52.39-.67.4-.15.84-.15.7 0 1.42.24.71.23 1.15.82.27.38.56 1.59.29 1.22.54 2.89.25 1.67.49 3.6.23 1.94.41 3.71.17 1.77.3 3.19.14 1.42.16 2.07.36-.09.74-.16.38-.08.73-.08.7 0 1.02.43.33.42.33 1.1zm13.97 22.41q0 .59-.29.8-.29.22-.82.22-1.38 0-1.98-.73-.6-.73-.89-1.93-.09-.41-.18-.84-.09-.42-.14-.83-.06-.38-.12-.53-.06-.15-.12-.56-.35.85-.86 1.78-.52.92-1.19 1.7-.67.77-1.51 1.27-.83.5-1.83.5-1.05 0-1.76-.51-.7-.52-1.1-1.29-.39-.78-.55-1.72-.16-.93-.16-1.78 0-2 .39-4.33.4-2.32 1.1-4.65.7-2.33 1.64-4.49.94-2.15 2.05-3.76v.03l.18-.26q.32-.44.74-.96.43-.51 1.01-.51.56 0 .97.48.41.49.59 1.01.76.15 1.23.37t.73.54q.26.32.35.75.09.42.09.92v.44q0 .24-.03.47-.03.24-.03.56v.58q0 .3.1.77.11.46.22.96l.21 1.09q.15.85.25 1.93t.25 2.17q.11 1.11.23 2.15.12 1.04.24 1.92l.7 4.34.09.49q.06.38.13.71.07.32.07.73zm-6.71-16.85q0-.06-.03-.19t-.06-.28q-.67 1.44-1.18 3.12-.51 1.69-.85 3.43-.34 1.75-.5 3.49-.16 1.74-.16 3.29v.27q0 .12.03.23v.03q.7-1.08 1.21-2.85.52-1.78.87-3.73.35-1.94.51-3.77.16-1.84.16-3.04zm13.42 17.08q0 .68-.39.88-.4.21-.96.21-.5 0-.98-.08-.48-.07-.91-.27-.42-.21-.73-.56-.31-.35-.42-.91-.41-1.76-.47-3.44-.06-1.69-.06-3.47V48.6q0-2.46.2-5.11.21-2.65.44-5.11 0-.09.03-.21.03-.11.03-.17.03-.32.09-.71.06-.38.19-.68.13-.31.38-.52.25-.2.66-.2.47 0 .89.19.43.19.75.5.32.3.51.74t.19.91q0 .5-.03 1.1-.02.6-.08 1.13 0 .15-.02.32-.01.18-.04.32.41-.82.94-1.71.52-.89 1.21-1.64.69-.75 1.52-1.22.84-.47 1.87-.47.84 0 1.4.27.56.26.9.75.33.48.46 1.12.14.65.14 1.38 0 1-.06 2.01l-.12 2q-.09 1.03-.15 2.03-.06.99-.06 2.02 0 1.23.06 2.53.06 1.3.18 2.49.12 1.19.26 2.14.15.95.3 1.48.11.44.24 1.01.14.57.27 1.17t.22 1.16q.09.56.09 1 0 .64-.52.82-.51.17-1.01.17t-1.13-.07q-.63-.08-1.12-.34-.62-.44-.81-1.23-.19-.79-.25-1.55l-.09-.79q-.08-.71-.23-1.85-.15-1.14-.28-2.52-.13-1.38-.22-2.85-.09-1.48-.09-2.89 0-1.26.11-2.43.1-1.17.22-2.38l.08-.99q.03-.38.09-1-.58.94-1.17 2.2-.59 1.26-1.11 2.62-.53 1.36-.96 2.65-.42 1.29-.65 2.26l-.18.64q-.15.47-.25.94t-.1.88q0 .53.06 1.22.06.68.14 1.3.09.73.21 1.49 0 .06.06.38.06.33.11.77.06.44.11.92.04.48.04.86zm24.23-.76q0 .32-.15.54-.14.22-.36.36-.22.13-.47.19-.25.05-.49.05-.35 0-.76-.08-.41-.09-.82-.25t-.74-.41q-.34-.25-.52-.57-.17-.33-.25-.81-.07-.48-.13-.98-.29.7-.69 1.38-.39.67-.95 1.18-.56.52-1.24.82-.69.31-1.54.31-1.5 0-2.42-.7-.92-.71-1.43-1.78-.52-1.06-.68-2.34-.16-1.27-.16-2.45 0-.96.09-2.19t.23-2.52q.15-1.29.35-2.51.21-1.21.44-2.15.3-1.08.72-2.39.43-1.3 1.09-2.43.65-1.13 1.62-1.92.97-.79 2.32-.88-.09-2.37-.25-4.38-.16-2-.34-4.11l-.29-3.26-.12-1.17q-.06-.47-.09-.95t-.03-.95q0-.68.37-.94.36-.26.95-.26 1.29 0 1.96.38.68.38.96 1.02.27.65.3 1.51.03.87.03 1.86 0 .65.15 1.47l.15 1.08.23 2.99.12 1.41q.06.7.11 1.4l.62 6.3 1.17 11.78.09 1.08q.12 1.2.22 2.49.1 1.29.39 2.55.09.32.17.62.07.29.07.61zm-6.83-17.14q0-.32-.01-.71-.02-.4-.02-.75v-.79q-.2.29-.52.8-.33.52-.5.93-.47 1.02-.85 2.62-.38 1.59-.66 3.34-.28 1.74-.43 3.4-.14 1.65-.14 2.76 0 .41.01.94.02.53.11 1.07.08.54.26 1.04.17.5.47.82.44-.55.79-1.71.35-1.16.6-2.64.25-1.48.42-3.12.18-1.64.28-3.18.11-1.54.15-2.81.04-1.27.04-2.01z"/></svg>