<svg viewBox="0 0 413 80" xmlns="http://www.w3.org/2000/svg"><path d="M31.04 33.98q3.72-5.52 7.35-10.17 3.63-4.65 6.93-8.01 3.3-3.36 6.06-5.22 2.76-1.86 4.8-1.86.78 0 1.71.6.93.6 1.74 1.56.81.96 1.35 2.07.54 1.11.54 2.13-3.72 1.2-7.29 3.15t-6.84 4.5q-3.27 2.55-6.24 5.67t-5.37 6.66q.96 2.46 2.37 5.25 1.41 2.79 3.09 5.4 1.68 2.61 3.6 4.83 1.92 2.22 3.9 3.54-.3.66-1.02 1.26t-1.56 1.11q-.84.51-1.77.81-.93.3-1.71.3-1.56 0-2.88-1.47-1.32-1.47-2.67-4.44-1.35-2.97-2.82-7.38-1.47-4.41-3.27-10.29zm-9.06 23.88q-2.28-.54-3.78-1.89-1.5-1.35-2.76-3.39.54-1.14 1.29-3t1.83-4.59q1.08-2.73 2.58-6.54t3.48-8.91q1.26-3.24 2.07-5.46.81-2.22 1.38-4.35.57-2.13 1.11-4.71.54-2.58 1.26-6.54 2.52.48 4.59 2.22 2.07 1.74 3.57 4.2-.66.84-1.53 2.55t-1.95 4.11q-1.08 2.4-2.4 5.34-1.32 2.94-2.76 6.24-3.24 7.2-5.1 13.17-1.86 5.97-2.88 11.55zm51.78-29.1q.6 0 1.41.21.81.21 1.47.54.66.33 1.11.69.45.36.45.66-1.2 2.52-2.22 5.07-1.02 2.55-1.74 4.89t-1.11 4.38q-.39 2.04-.39 3.54 0 1.68.36 2.79t1.2 1.59q-.72.48-1.86.78-1.14.3-2.04.3-3.24 0-3.24-4.44 0-3.42 2.28-9.36-1.2 2.76-2.76 5.19-1.56 2.43-3.18 4.29-1.62 1.86-3.27 3.03-1.65 1.17-3.03 1.41-2.22-.12-3.6-2.13t-1.38-5.13q0-3.36 1.44-7.08t3.69-6.9q2.25-3.18 4.89-5.31 2.64-2.13 5.1-2.25.6.18 1.35.72.75.54 1.44 1.26t1.17 1.47q.48.75.54 1.29-2.4.36-4.95 2.34-2.55 1.98-4.62 4.77-2.07 2.79-3.39 5.97-1.32 3.18-1.32 5.94 0 1.14.84 1.44 1.74-.36 4.02-2.97 2.28-2.61 5.52-8.07.6-1.08 1.35-2.4.75-1.32 1.53-2.76.78-1.44 1.53-2.91.75-1.47 1.41-2.85zm23.58 22.92q-1.14-.96-1.53-2.4-.39-1.44-.39-2.46 0-1.26.3-2.16-.24 0-1.08.96-.84.96-1.83 2.28-.99 1.32-1.95 2.58t-1.44 1.86q-.78.84-1.47 1.32-.69.48-1.11.54-.96-.06-2.01-.39-1.05-.33-1.98-.93-.93-.6-1.62-1.44-.69-.84-.93-1.92 0-1.68.09-2.76.09-1.08.39-2.34.54-2.28 1.59-5.16 1.05-2.88 2.43-5.67 1.38-2.79 3.09-5.22 1.71-2.43 3.63-3.81.54 0 1.26.09t1.47.33q.75.24 1.44.57.69.33 1.17.87-.54.6-2.73 4.02-2.19 3.42-4.89 9.84-.3.66-.72 1.92-.42 1.26-.84 2.64-.42 1.38-.69 2.7-.27 1.32-.27 2.1 0 .48.15.72t.27.36q.9-.36 2.28-1.98t3.84-4.98q.6-.84 1.41-1.92.81-1.08 1.65-2.31.84-1.23 1.59-2.55.75-1.32 1.23-2.64.24-.72.63-1.71t.96-2.07q.57-1.08 1.32-2.19.75-1.11 1.77-2.07.78 0 1.68.18.9.18 1.71.45.81.27 1.41.6.6.33.9.69-1.08 2.64-2.4 5.22-1.32 2.58-2.46 5.07t-1.92 4.95q-.78 2.46-.78 4.8 0 1.26.21 2.19.21.93.45 1.56.24.63.45 1.05.21.42.21.72 0 .06-.12.18-.06.06-.12.06-.42 0-1.08-.18-.66-.18-1.47-.51-.81-.33-1.62-.75t-1.53-.9zm34.02-22.56q-.06 1.14-.39 2.37-.33 1.23-.81 2.22-.48.99-1.02 1.65-.54.66-1.02.66-.66-.06-.78-.9 0-.18.15-.57.15-.39.33-.87.18-.48.33-.96.15-.48.15-.84 0-.84-.39-1.41t-1.05-.57q-2.4 0-3.66 3-1.26 3-1.26 8.82 0 .6.06.72 1.26-.06 2.25-.09t1.95-.03q.06.12.06.48 0 .54-.24.78-1.38.3-2.19.51-.81.21-1.23.39-.42.18-.51.39-.09.21-.09.57 0 .48.03.96t.03 1.2q0 5.04-2.73 8.1-2.73 3.06-7.59 3.54-.84-.06-1.74-.48t-1.71-1.08q-.81-.66-1.41-1.47-.6-.81-.84-1.65 0-2.28.96-4.35t2.61-3.66q1.65-1.59 3.9-2.58t4.89-1.17q0-1.5-.3-2.94t-.63-2.79q-.33-1.35-.63-2.64t-.3-2.55q0-1.62.66-3.21.66-1.59 1.74-2.94 1.08-1.35 2.52-2.31t3-1.32q.66.18 1.77 1.05 1.11.87 2.19 1.95 1.08 1.08 1.92 2.19.84 1.11 1.02 1.83zm-19.8 27.36q1.44-.6 2.73-1.74 1.29-1.14 2.25-2.58.96-1.44 1.53-3.06.57-1.62.57-3.18-1.2.18-2.64 1.11-1.44.93-2.7 2.22-1.26 1.29-2.1 2.67-.84 1.38-.84 2.4 0 1.32 1.2 2.16zm19.8-4.5q0-2.1.42-4.95t1.23-6.09q.81-3.24 1.92-6.78 1.11-3.54 2.49-7.08 1.2-3.18 2.79-6.42 1.59-3.24 3.45-6.36t3.87-5.94q2.01-2.82 4.05-5.16.96 0 2.07.24 1.11.24 2.16.63t1.92.93q.87.54 1.41 1.08-4.5 4.62-8.1 9.33-3.6 4.71-5.7 8.85-1.14 2.28-2.07 4.26-.93 1.98-1.71 3.93-.78 1.95-1.41 3.9-.63 1.95-1.17 4.11 11.52-14.7 17.1-14.7 1.56 0 3.36 1.02 1.8 1.02 3.18 2.76-1.86 2.04-3.84 4.92-1.98 2.88-3.63 5.79t-2.7 5.4q-1.05 2.49-1.05 3.69 0 .6.18.81.18.21.78.21.9 0 1.44-.24.54-.24.66-.24.3.48.36.66.06.18.06.3 0 .24-.72.69-.72.45-1.71.9t-1.95.81q-.96.36-1.44.36-.6 0-1.2-.33t-1.05-.87q-.45-.54-.72-1.2-.27-.66-.27-1.38 0-.9.51-2.67t1.41-4.14q.9-2.37 2.16-5.19 1.26-2.82 2.7-5.76 0-.24-.24-.24-.18 0-.93.48t-1.41.96q-2.16 1.62-4.35 3.99-2.19 2.37-4.26 5.19-2.07 2.82-3.9 5.97t-3.15 6.33q-.18.42-.54.78-.36.36-.6.36-.18 0-.51-.42t-.6-1.05q-.27-.63-.51-1.29t-.24-1.14zm51.78-23.22q.6 0 1.41.21.81.21 1.47.54.66.33 1.11.69.45.36.45.66-1.2 2.52-2.22 5.07-1.02 2.55-1.74 4.89t-1.11 4.38q-.39 2.04-.39 3.54 0 1.68.36 2.79t1.2 1.59q-.72.48-1.86.78-1.14.3-2.04.3-3.24 0-3.24-4.44 0-3.42 2.28-9.36-1.2 2.76-2.76 5.19-1.56 2.43-3.18 4.29-1.62 1.86-3.27 3.03-1.65 1.17-3.03 1.41-2.22-.12-3.6-2.13t-1.38-5.13q0-3.36 1.44-7.08t3.69-6.9q2.25-3.18 4.89-5.31 2.64-2.13 5.1-2.25.6.18 1.35.72.75.54 1.44 1.26t1.17 1.47q.48.75.54 1.29-2.4.36-4.95 2.34-2.55 1.98-4.62 4.77-2.07 2.79-3.39 5.97-1.32 3.18-1.32 5.94 0 1.14.84 1.44 1.74-.36 4.02-2.97 2.28-2.61 5.52-8.07.6-1.08 1.35-2.4.75-1.32 1.53-2.76.78-1.44 1.53-2.91.75-1.47 1.41-2.85zm17.22-4.86q1.56.48 2.94 2.13t2.04 3.63q-.66 1.62-2.04 3.9t-2.76 4.65q-1.38 2.37-2.49 4.5-1.11 2.13-1.29 3.51.96-1.02 2.13-2.37t2.28-2.7q1.11-1.35 2.07-2.46.96-1.11 1.5-1.65 1.14-1.2 2.7-2.79 1.56-1.59 3.27-3t3.45-2.4q1.74-.99 3.18-.99 1.56 0 2.61 1.05 1.05 1.05 1.65 2.19 0 .12-.45.33-.45.21-1.29 1.17-.84 1.08-1.89 2.97-1.05 1.89-2.04 4.08-.99 2.19-1.65 4.47-.66 2.28-.66 4.14 0 1.5.39 1.92.39.42 1.11.42.66 0 1.38-.3.72-.3 1.14-.3.24.12.39.51.15.39.15.69-.48.42-1.14.84-.66.42-1.38.78-.72.36-1.41.6t-1.23.24q-1.74 0-2.85-.51t-1.74-1.35q-.63-.84-.87-2.01t-.24-2.49q0-.72.12-1.62.12-.9.48-2.13t1.02-2.94q.66-1.71 1.68-4.11-.12 0-1.62.84t-3.24 2.58q-2.82 2.7-5.07 5.34-2.25 2.64-4.59 5.88-1.32 1.86-2.31 3.15-.99 1.29-1.71 1.71-1.26-.72-1.86-2.01-.6-1.29-.9-2.67 0-1.14.33-2.88t.9-3.87q.57-2.13 1.41-4.47t1.86-4.68q2.28-5.28 4.17-8.28 1.89-3 2.37-3.24zm76.32-11.34q.18 1.02.27 1.41.09.39.09 1.05 0 1.98-.87 3.69t-2.37 2.43q-1.2-1.62-2.94-2.79t-3.81-1.92q-2.07-.75-4.29-1.11-2.22-.36-4.32-.36t-3.93.33q-1.83.33-3.24.9-1.41.57-2.22 1.41-.81.84-.81 1.92.18 1.32 1.62 2.67 1.44 1.35 3.54 2.64t4.65 2.55q2.55 1.26 5.01 2.4 3.06 1.44 5.28 2.67t3.66 2.7q1.44 1.47 2.16 3.33.72 1.86.72 4.5 0 3.06-1.02 5.73-1.02 2.67-2.97 4.65-1.95 1.98-4.71 3.09-2.76 1.11-6.18 1.11-3.36 0-7.26-1.02t-7.29-2.79q-3.39-1.77-5.64-4.08-2.25-2.31-2.25-4.89 0-1.2.69-3.06t2.49-3.9q.18 1.8 1.95 4.26t5.31 4.56q3.3 1.92 6.81 2.79 3.51.87 6.57.87 3.36 0 5.46-.84t3.3-2.01q1.2-1.17 1.68-2.37.48-1.2.54-1.92-.06-1.2-1.11-2.31t-2.82-2.16q-1.77-1.05-4.11-2.13-2.34-1.08-4.86-2.16-3.78-1.68-6.51-3.15t-4.5-3q-1.77-1.53-2.58-3.21t-.81-3.84q0-3.36 2.04-6.36 2.04-3 5.88-4.56 1.92-.84 4.11-1.2 2.19-.36 4.29-.36 3.96 0 7.74 1.08 3.78 1.08 7.56 2.76zm2.52 29.88q0-3.42 1.41-6.63t3.72-5.7q2.31-2.49 5.28-4.02 2.97-1.53 6.15-1.53 3.12 0 4.8 1.56 1.68 1.56 1.68 4.44 0 1.38-.39 2.67t-1.02 2.31q-.63 1.02-1.47 1.65-.84.63-1.68.63-.72 0-1.47-.45t-1.23-1.17q4.02-3.66 4.02-6.66 0-1.74-1.38-1.74-1.2 0-3 1.14t-3.48 3q-2.58 2.88-3.93 6.39t-1.35 7.35q0 4.86 2.16 5.82.9-.12 2.1-.54 1.2-.42 2.58-1.11 1.38-.69 2.85-1.59 1.47-.9 2.85-1.92.24.18.42.54.18.36.18.66-1.02 1.26-2.34 2.46-1.32 1.2-2.76 2.19-1.44.99-2.79 1.68t-2.37.87q-1.98-.18-3.72-1.23-1.74-1.05-3.03-2.73-1.29-1.68-2.04-3.84t-.75-4.5zm23.4 9.36q.3-1.74 1.05-4.59.75-2.85 1.77-6.06 1.02-3.21 2.16-6.45 1.14-3.24 2.22-5.82.78-1.86 1.38-2.91.6-1.05 1.32-1.77.84.12 1.74.42t1.74.72q.84.42 1.5.87t1.02.87q-1.62 1.92-2.85 4.38t-2.49 6.3q3.24-2.88 5.73-5.52 2.49-2.64 4.65-5.88.36-.3 1.26-.3.84 0 1.62.27.78.27 1.08.75-1.08 2.88-1.08 5.7 0 2.64.78 3.96-.06.36-.81 1.38t-1.65 1.92q-1.62-.84-2.88-2.31-1.26-1.47-1.86-3.21-2.82 1.98-4.8 3.87-1.98 1.89-3.39 4.2-1.41 2.31-2.4 5.31-.99 3-1.89 7.14-.54-.06-1.29-.39t-1.5-.81q-.75-.48-1.35-1.02-.6-.54-.78-1.02zm25.68-2.82q0-.54.09-1.35t.33-2.16q.24-1.35.63-3.27t.99-4.62q.12-.6.54-1.92.42-1.32 1.11-2.79.69-1.47 1.68-2.85.99-1.38 2.37-2.04 1.02.24 2.7 1.23 1.68.99 2.88 2.73-1.38 1.56-2.31 3.12-.93 1.56-1.68 3.24-.75 1.68-1.38 3.48-.63 1.8-1.41 3.78-.66 1.68-1.2 3.45-.54 1.77-.6 3.09 0 1.08-.03 1.53-.03.45-.33.45-.24 0-.96-.3t-1.47-.93q-.75-.63-1.35-1.59-.6-.96-.6-2.28zm11.46-26.04q0-.36.18-1.08-.3-.3-.51-.9-.21-.6-.21-1.08 0-.54.15-1.47.15-.93.39-2.01.24-1.08.6-2.25t.72-2.13q.72 0 1.77.39t2.13 1.02q1.08.63 1.98 1.38.9.75 1.38 1.41-.66.66-1.74 1.83t-2.1 2.46q-1.02 1.29-1.86 2.43-.84 1.14-1.08 1.62-.72-.12-1.26-.63t-.54-.99zM338 72.86q-.84-.24-.96-1.8-.24-.78-.33-1.86-.09-1.08-.09-2.46 0-1.26.42-3.45.42-2.19 1.17-4.95.75-2.76 1.83-5.97t2.4-6.51q1.62-4.14 2.82-7.17 1.2-3.03 2.01-5.25.81-2.22 1.32-3.66t.81-2.46q.24-.72.72-1.74t1.11-2.07q.63-1.05 1.29-1.98.66-.93 1.2-1.41 2.1.3 3.96 1.08 1.86.78 2.28 1.5-.84.78-1.92 2.43-1.08 1.65-2.1 3.6-1.02 1.95-1.86 3.99-.84 2.04-1.26 3.6.6-1.02 1.56-2.22.96-1.2 2.94-3.3 2.22-2.28 4.17-3.51 1.95-1.23 3.39-1.23 2.28 0 3.75 1.26 1.47 1.26 1.47 3.24 0 4.32-1.44 8.55t-4.14 7.65q-1.02 1.32-2.4 2.52t-2.88 2.13q-1.5.93-2.94 1.47-1.44.54-2.58.54-1.08 0-1.89-.45-.81-.45-1.11-1.11 2.34-1.38 4.56-3.84 2.22-2.46 4.11-5.67 1.89-3.21 3.3-6.93 1.41-3.72 2.13-7.56-2.28 1.2-4.11 2.61-1.83 1.41-3.63 3.69-2.16 2.64-3.42 4.26-1.26 1.62-2.07 2.76-.81 1.14-1.32 2.13t-1.11 2.43q-.84 1.92-1.95 5.07-1.11 3.15-2.28 7.05-1.17 3.9-2.34 8.31t-2.25 8.79q-.66-.12-1.14-.96-.48-.54-.69-.78-.21-.24-.51-.36zm40.86-42.84h-3.42q-.3-.36-.54-1.53-.24-1.17-.24-2.01 1.56.12 3 .21t2.64.15q.9-1.8 1.95-3.57 1.05-1.77 2.04-3.24.99-1.47 1.86-2.49.87-1.02 1.35-1.32.6 0 1.53.21t1.89.54q.96.33 1.74.69.78.36 1.08.72-1.8 2.28-3.09 4.23-1.29 1.95-2.79 4.47 1.2 0 2.43-.06 1.23-.06 2.49-.18.3.3.48.75t.18.93q-2.94 1.08-7.14 1.2-1.5 2.88-2.67 5.73-1.17 2.85-1.98 5.49t-1.26 4.98q-.45 2.34-.45 4.2 0 2.64 1.98 2.94 1.8-.24 3.42-.9 1.62-.66 2.88-1.68.36.54.42.9-.36.54-1.23 1.26t-1.89 1.41q-1.02.69-1.98 1.17t-1.44.54q-1.5-.06-3-.66-1.5-.6-2.73-1.5t-2.01-2.01q-.78-1.11-.78-2.19 0-1.44.39-3.63t1.11-4.77q.72-2.58 1.68-5.4.96-2.82 2.1-5.58z"/></svg>