<svg viewBox="0 0 437 80" xmlns="http://www.w3.org/2000/svg"><path d="M15.5 62V16.21h9.29v23.7l24.17-23.7h11.9L38.3 38.06 60.86 62H48.49L31.62 44.54l-6.83 6.59V62H15.5zm48.84 0V27.43h8.67v4.98q2.87-2.14 6.07-3.69 3.19-1.55 6.36-2.37l2.54 7.94q-5.01.49-8.8 2.24-3.79 1.74-6.17 4.9V62h-8.67zm28.01-17.29q0-3.72 1.51-6.97 1.51-3.25 4.31-5.68 2.79-2.43 6.76-3.84 3.97-1.41 8.92-1.41 4.95 0 8.92 1.41 3.97 1.41 6.77 3.84 2.8 2.43 4.31 5.68 1.51 3.25 1.51 6.97 0 3.73-1.51 6.98-1.51 3.25-4.31 5.68-2.8 2.43-6.77 3.84-3.97 1.41-8.92 1.41-4.95 0-8.92-1.41-3.97-1.41-6.76-3.84-2.8-2.43-4.31-5.68-1.51-3.25-1.51-6.98zm9.11 0q0 2.08.84 3.95.83 1.86 2.43 3.28 1.59 1.42 3.89 2.25 2.3.84 5.23.84 2.93 0 5.23-.84 2.3-.83 3.9-2.25t2.43-3.28q.84-1.87.84-3.95t-.84-3.95q-.83-1.88-2.43-3.3t-3.9-2.25q-2.3-.84-5.23-.84-2.93 0-5.23.84-2.3.83-3.89 2.25-1.6 1.42-2.43 3.3-.84 1.87-.84 3.95zM144.12 62V27.43h8.67v2.93q3.46-1.96 6.61-2.75 3.14-.8 6.16-.8 3.96 0 7.33 1.16t5.83 3.44q2.46 2.29 3.85 5.7 1.39 3.42 1.39 7.9V62h-8.64V46.41q0-2.84-.81-5.08-.8-2.24-2.31-3.78-1.51-1.54-3.66-2.34-2.16-.81-4.82-.81-1.41 0-2.89.3-1.48.29-2.9.83t-2.74 1.35q-1.32.8-2.4 1.83V62h-8.67zm48.84-10.9q0-2.49 1.08-4.54t3.25-3.53q2.17-1.48 5.41-2.28 3.23-.81 7.54-.81 3.19 0 6.72.47t7.28 1.43q-.14-1.64-.99-3.03t-2.36-2.4q-1.51-1.01-3.63-1.57-2.13-.55-4.82-.55-1.47 0-3.23.17-1.75.18-3.63.53-1.87.35-3.7.88-1.84.52-3.42 1.26l-2.63-7.12q1.96-.71 4.2-1.29 2.24-.59 4.59-1.01 2.34-.43 4.68-.66 2.35-.24 4.54-.24 9.7 0 14.42 4.96 4.71 4.95 4.71 15.17V62h-8.67v-3.25q-1.34.79-2.94 1.49-1.6.71-3.47 1.23-1.88.53-4.03.84-2.15.31-4.56.31-4.04 0-7.1-.88-3.06-.88-5.11-2.44-2.05-1.55-3.09-3.64-1.04-2.1-1.04-4.56zm9.14-.29q0 .85.44 1.62.43.78 1.4 1.38.97.6 2.48.97 1.51.36 3.64.36 2.29 0 4.43-.41 2.14-.41 3.98-1.08 1.85-.67 3.34-1.55 1.5-.88 2.49-1.82v-1.52q-1.99-.56-3.94-.94-1.95-.38-3.72-.6-1.77-.22-3.34-.31-1.57-.09-2.74-.09-2.43 0-4.04.33-1.61.32-2.61.86-.99.54-1.4 1.28-.41.73-.41 1.52zm60.64-11.84q0-5.18 1.9-9.49 1.91-4.31 5.35-7.4 3.44-3.09 8.26-4.79 4.82-1.7 10.68-1.7 5.83 0 10.67 1.7 4.83 1.7 8.27 4.79 3.44 3.09 5.35 7.4 1.9 4.31 1.9 9.49 0 5.22-1.9 9.57-1.91 4.35-5.35 7.48-3.44 3.14-8.27 4.88-4.84 1.74-10.67 1.74-5.86 0-10.68-1.74-4.82-1.74-8.26-4.88-3.44-3.13-5.35-7.48-1.9-4.35-1.9-9.57zm9.29 0q0 3.55 1.27 6.39 1.28 2.84 3.55 4.85 2.27 2 5.36 3.09 3.09 1.08 6.72 1.08t6.73-1.08q3.09-1.09 5.34-3.09 2.26-2.01 3.55-4.85t1.29-6.39q0-3.54-1.29-6.35-1.29-2.82-3.55-4.77-2.25-1.94-5.34-2.97-3.1-1.02-6.73-1.02-3.63 0-6.72 1.02-3.09 1.03-5.36 2.97-2.27 1.95-3.55 4.77-1.27 2.81-1.27 6.35zM324.35 62V27.43h8.67v2.93q3.46-1.96 6.61-2.75 3.15-.8 6.17-.8 3.95 0 7.32 1.16t5.83 3.44q2.46 2.29 3.85 5.7 1.4 3.42 1.4 7.9V62h-8.65V46.41q0-2.84-.8-5.08-.81-2.24-2.32-3.78-1.51-1.54-3.66-2.34-2.15-.81-4.82-.81-1.41 0-2.88.3-1.48.29-2.9.83-1.43.54-2.74 1.35-1.32.8-2.41 1.83V62h-8.67zm48.84-17.4q0-3.52 1.44-6.73 1.43-3.2 4.13-5.66 2.69-2.47 6.6-3.93 3.91-1.47 8.89-1.47 4.96 0 8.92 1.48 3.97 1.48 6.74 4.06 2.77 2.58 4.25 6.07 1.48 3.48 1.48 7.47 0 .49-.01 1.07-.02.57-.08 1.04h-32.69q.55 1.55 1.8 2.84 1.24 1.29 3.12 2.22 1.87.94 4.34 1.45 2.46.52 5.44.52 2.99 0 5.95-.63t5.66-1.6l2.93 6.62q-1.7.79-3.45 1.39-1.74.6-3.63 1t-3.95.6q-2.07.21-4.36.21-5.83 0-10.22-1.41-4.39-1.41-7.35-3.84-2.96-2.43-4.46-5.71-1.49-3.28-1.49-7.06zm9.67-3.37h23.58q-.47-1.44-1.45-2.68-.98-1.25-2.45-2.17-1.46-.92-3.39-1.45-1.94-.53-4.25-.53-2.46 0-4.48.56-2.03.56-3.55 1.49-1.52.94-2.53 2.17-1.01 1.23-1.48 2.61z"/></svg>