<svg viewBox="0 0 668 80" xmlns="http://www.w3.org/2000/svg"><path d="M15.23 63.97v-5.92h1.93V14.81h-1.93v-5.8h26.9v5.8h-1.94v43.24h1.94v5.92h-1.94v5.04h-8.67v-5.04H15.23zm29.24-37.5v-5.86h3.16l-3.16-11.6h9.08l3.22 11.6h6.04l3.22-11.6h9.08l-3.16 11.6h3.16v5.86H64.45v14.01h12.19v5.91h-9.61l9.61 22.62h-9.91l-6.91-16.4-6.97 16.4h-9.9l9.6-22.62h-9.6v-5.91h12.18V26.47H44.47zm-12.95-1.11V14.81h-5.74v10.55h5.74zm0 16.41V31.22h-5.74v10.55h5.74zm0 16.28V47.57h-5.74v10.48h5.74zm86.66-16.34h-9.26l.71-10.32V9.01h9.25v2.76l2.58-2.7 7.27-.06h9.02v32.58h-7.68q-.23-1.64-1.61-2.81-1.37-1.17-3.37-1.35v-1.76h3.64v-2.46h-9.96l-.59 8.5zm-36.39.58V9.07h9.2v2.7l2.7-2.7 13.3-.06v33.28h-9.2v-1.81h-6.8v1.81h-9.2zm16-19.98v-8.38h-6.8v8.38h6.8zm21.09-3.81h9.85v-4.57h-9.85v4.57zm0 9.55h9.85v-4.39h-9.85v4.39zm-21.09 7.27v-7.85h-6.8v7.85h6.8zM79.1 69.01v-5.39h2.63V44.34h9.5v3.46l2.75-3.46h43.83v19.28h2.75v5.39H79.1zm18.51-5.39V49.27h-6.38v14.35h6.38zm9.14 0h6.45V49.27h-6.45v14.35zm15.53 0h6.1V49.27h-6.1v14.35zm29.47-40.49h-8.14V16.8h8.14V9.01h9.38v7.79h7.5v6.33h-7.5v9.14h9.37v6.33h-6.03v7.33h5.21v6.38h-5.21v8.56l1.7 1.81 36.91.18v6.15H160.6v-.12l-.23.12-9.26-9.72-.41 9.72h-8.73l1.17-28.59h8.73l-.29 6.79 3.46 3.7V38.6h-13.31v-6.33h10.02v-9.14zm41.2-4.27h-20.4v-6.39h29.77v25.14h-20.39v14.94h21.15v2.58q-2.22.17-3.92 1.55-1.7 1.37-1.94 3.25h-24.67V31.75h9.44v3.22l2.58-3.22h8.38V18.86zm17.28 14.94v-5.92h54.73v5.92L228.1 63.04h40.02v2.28q-2.46.23-3.6 1-1.14.76-1.38 2.69h-51.15v-5.97l37.62-29.24h-39.38zm-3.28-13.48v-5.86h10.72l.06-5.27h9.32l-.06 5.27h22.73l.06-5.27h9.38l-.06 5.27h9.02v5.86h-9.08l-.06 5.27h-9.37l.05-5.27h-22.73l-.06 5.27h-9.37l.05-5.27h-10.6zm72.89 48.69h-9.26l1.12-19.98V23.95h9.25v2.41l2.11-2.41h12.95V9.01h10.14v4.16h25.84v5.92h-25.84v4.86h24.67v21.51h-9.26v-1.23h-40.61v4.8l-1.11 19.98zm1.11-39.2v8.5h40.61v-8.5h-40.61zm99.09-14.59h15.82v50.86h-9.67q-.24-1.7-1.64-2.9-1.41-1.2-3.34-1.38v-1.81h5.92V21.61h-7.09v47.4h-8.62v-47.4h-7.15v44.47h-8.67V15.22h8.67v3.52l2.87-3.52h4.28V9.01h8.62v6.21zm-29.07 53.79h-8.67l2.93-14.71V9.01h8.73v46.23l-2.99 13.77zm-16.52-11.54V15.11h8.67v42.36h-8.67zm63.87-41.9V9.19h61.4v6.38H434.7v19.98h23.15v6.39H434.7v20.69h25.02v6.44h-61.4v-6.44H404V27.7h8.96v34.93h11.43V15.57h-26.07zm63.86 17.99V27.7h20.39v5.86h-7.09v8.73h7.09v5.75h-7.09v14h7.09v2.17q-2.22.23-3.78 1.55-1.55 1.32-1.78 3.25h-9.9V48.04h-4.93v-5.75h4.93v-8.73h-4.93zm22.5-14.24h4.81l-2.64-10.31h9.32l2.63 10.31h9.56l2.75-10.31h9.2l-2.64 10.31h4.81v24.56h-8.56V42h-.94v21.62h10.61v1.64q-1.76.12-2.96 1.17-1.2 1.06-1.38 2.58h-14.94V42h-.64l-8.26 27.01h-9.26l8.2-27.01h-1.11v1.88h-8.56V19.32zm-11.42-2.93h9.31v5.92h-20.39v-5.92l4.75-7.38H478l-4.74 7.38zm40.66 8.79h-20.68v10.96h20.68V25.18zm12.78 15.65V9.01h9.37v3.52l3.16-3.52h47.52v31.82h-9.14v-1.58h-15.7v4.33h22.79v5.04h-22.79v3.05h25.61v5.04h-61.47v-5.04h26.02v-3.05h-22.21v-5.04h22.21v-4.33h-16v1.58h-9.37zm9.37-6.15h16V13.99h-16v20.69zm41.54 0V13.99h-15.7v20.69h15.7zM545.8 16.86l3.75 15h-6.98l-3.8-15h7.03zm22.5 0h7.03l-3.81 15h-7.03l3.81-15zM529.21 58.7h8.62l-3.22 10.31h-8.5l3.1-10.31zm21.39 0l3.17 10.31h-8.56l-3.22-10.31h8.61zm15.7 0l3.17 10.31h-8.38l-3.11-10.31h8.32zm18.29 0l3.16 10.31h-8.61l-3.11-10.31h8.56zm19.1-35.57h2.75v45.88h-9.08V35.38h-7.15L599 9.01h9.38l-4.69 14.12zm33.92 4.4h8.85l4.98 38.79h-8.85l-.88-7.03h-6.85v9.72h-9.84v-9.72h-6.74l-.94 7.03h-8.91l5.04-38.79h8.85l-3.28 25.95h5.98V23.13h-17v-7.26h17V9.01h9.84v6.86h16.76v7.26h-16.76v30.35h6.03l-3.28-25.95z"/></svg>