<svg viewBox="0 0 804 80" xmlns="http://www.w3.org/2000/svg"><path d="M55.36 45.18L54.46 57H15.7v-2.28q2.1-.06 3.39-.36t2.01-1.02q.72-.72.96-2.04t.24-3.42V19.92q0-2.1-.21-3.39t-.84-2.04q-.63-.75-1.83-1.02-1.2-.27-3.12-.39V10.8h18.24v2.28q-1.92.06-3.09.36t-1.8 1.08q-.63.78-.84 2.16-.21 1.38-.21 3.66V46.2q0 2.52.51 4.11.51 1.59 1.74 2.46 1.23.87 3.27 1.2 2.04.33 5.16.33 3.42 0 5.76-.39t3.93-1.38q1.59-.99 2.52-2.76.93-1.77 1.59-4.59h2.28zM70.3 24.6v22.86q0 2.34.21 3.75.21 1.41.81 2.22.6.81 1.68 1.11 1.08.3 2.88.36V57H58.66v-2.1q1.8-.06 2.94-.39t1.77-1.08q.63-.75.84-2.1.21-1.35.21-3.45V40.2q0-3.48-.09-5.73-.09-2.25-.33-3.09-.3-1.38-1.38-1.89-1.08-.51-4.08-.51v-2.1L70.3 24.6zm-6.9-12.18q0-1.56 1.08-2.64t2.64-1.08q1.56 0 2.64 1.08t1.08 2.64q0 1.56-1.08 2.64t-2.64 1.08q-1.56 0-2.64-1.08t-1.08-2.64zm25.02 26.7v5.34q0 2.28.66 4.17.66 1.89 1.83 3.24 1.17 1.35 2.82 2.13 1.65.78 3.57.78 2.1 0 3.81-.96t2.94-2.73q1.23-1.77 1.92-4.26.69-2.49.69-5.55 0-3.06-.72-5.61-.72-2.55-1.98-4.38t-3.03-2.85q-1.77-1.02-3.87-1.02-2.46 0-4.38 1.17t-2.94 3.27q-1.32 2.64-1.32 7.26zM88.3 7.2v22.26h.24q1.92-2.52 4.23-3.69 2.31-1.17 5.37-1.17 3.24 0 6.03 1.26t4.86 3.48q2.07 2.22 3.24 5.25 1.17 3.03 1.17 6.51 0 3.54-1.2 6.57-1.2 3.03-3.27 5.25-2.07 2.22-4.89 3.48-2.82 1.26-6.12 1.26-3.42 0-6.39-1.26-2.97-1.26-4.89-3.42L83.86 57h-1.32V20.76q0-6.06-.78-7.74-.18-.42-.42-.69-.24-.27-.72-.48-.48-.21-1.32-.39-.84-.18-2.28-.36V9.6L88.3 7.2zm41.34 38.22v2.04q0 2.46.12 3.9t.63 2.19q.51.75 1.47.99t2.7.36V57H118.6v-2.1q1.74-.06 2.76-.33 1.02-.27 1.56-.99t.69-2.07q.15-1.35.15-3.63v-7.02q0-4.08-.09-6.36-.09-2.28-.6-3.36t-1.59-1.29q-1.08-.21-3-.21v-2.1l10.5-2.28.84 7.44h.24q.78-1.8 1.95-3.3 1.17-1.5 2.55-2.55 1.38-1.05 2.88-1.65 1.5-.6 3.06-.6 1.92 0 3.03.93 1.11.93 1.11 2.49 0 1.44-.9 2.25t-2.58.81q-.96 0-1.62-.24-.66-.24-1.17-.51l-.96-.51q-.45-.24-.99-.24-1.62 0-3.24 2.07t-2.52 5.25q-.48 1.74-.75 3.93-.27 2.19-.27 4.59zm44.1 4.32l1.86 1.68q-5.1 6.18-12.66 6.18-3.54 0-6.42-1.17t-4.95-3.3q-2.07-2.13-3.21-5.1-1.14-2.97-1.14-6.57 0-3.66 1.2-6.78t3.39-5.34q2.19-2.22 5.22-3.48 3.03-1.26 6.63-1.26 5.82 0 9 3.15 3.18 3.15 3.18 9.03 0 .84-.33 1.02-.33.18-1.53.18h-19.74q-.12.48-.18 1.17t-.06 1.53q0 3.12.75 5.67t2.16 4.35q1.41 1.8 3.36 2.79t4.35.99q2.52 0 4.68-1.11 2.16-1.11 4.44-3.63zm-19.08-14.52h11.04q1.2 0 1.92-.06t1.08-.24q.36-.18.48-.51t.12-.87q0-2.76-1.77-4.41-1.77-1.65-4.83-1.65-6.48 0-8.04 7.74zM219.76 57h-21.6v-2.28q2.34-.06 3.75-.36 1.41-.3 2.16-1.02.75-.72 1.02-2.04t.27-3.42V19.92q0-2.1-.21-3.39t-.84-2.04q-.63-.75-1.83-1.02-1.2-.27-3.12-.39V10.8h17.94q8.1 0 12.6 2.88t4.5 8.1q0 3.96-2.49 6.48-2.49 2.52-7.89 4.14v.24q1.86.18 3.24.42 1.38.24 2.46.57 1.08.33 2.01.81.93.48 1.83 1.08 5.34 3.78 5.34 9.48 0 3.18-1.77 5.91t-4.95 4.29q-1.02.54-2.1.87-1.08.33-2.52.54-1.44.21-3.33.3-1.89.09-4.47.09zm.18-2.58q10.86 0 10.86-9.3 0-6.78-5.58-9.48-.96-.42-1.86-.72-.9-.3-2.1-.45-1.2-.15-2.85-.21-1.65-.06-4.05-.06h-2.7v13.38q0 3.66 1.92 5.25 1.92 1.59 6.36 1.59zm-8.28-23.22h3.36q1.86 0 3.12-.06t2.16-.21q.9-.15 1.59-.42.69-.27 1.41-.75 1.92-1.2 2.73-2.88t.81-4.38q0-4.74-2.31-6.81-2.31-2.07-7.23-2.07h-4.62q-1.02 0-1.02 1.02V31.2zm51.18 12.78v-4.74q-3.42 1.32-5.79 2.58t-3.81 2.52q-1.44 1.26-2.07 2.52-.63 1.26-.63 2.58 0 1.98 1.32 3.24 1.32 1.26 3.48 1.26 1.56 0 2.91-.78t2.37-2.13q1.02-1.35 1.62-3.18.6-1.83.6-3.87zm-8.64-3.54l8.64-3.78V34.2q0-7.32-6.24-7.32-1.02 0-1.74.18t-1.2.6q-.48.42-.87 1.2t-.75 1.92q-.66 1.74-1.29 2.31-.63.57-1.83.57-3 0-3-3 0-2.88 3.06-4.47 3.06-1.59 8.7-1.59 6 0 8.52 2.13 2.52 2.13 2.52 7.23V47.4q0 6.84 2.7 6.84.84 0 1.62-.21.78-.21 1.32-1.11l.84 1.44q-.72 1.38-2.64 2.31-1.92.93-4.02.93-2.64 0-3.93-1.68t-1.29-4.74h-.3q-1.56 2.94-4.32 4.65-2.76 1.71-6.12 1.71-3.78 0-5.94-1.92-2.16-1.92-2.16-5.16 0-1.44.51-2.76.51-1.32 1.65-2.52t3-2.37q1.86-1.17 4.56-2.37zm27.3 14.46l-1.2 2.1h-1.32V46.68h1.5q2.34 8.46 8.52 8.46 2.4 0 3.81-1.17 1.41-1.17 1.41-3.57 0-.9-.27-1.53t-1.02-1.32q-.75-.69-2.1-1.59-1.35-.9-3.57-2.28-2.04-1.26-3.54-2.34-1.5-1.08-2.52-2.19-1.02-1.11-1.53-2.37t-.51-2.94q0-2.04.69-3.75t1.89-2.91q1.2-1.2 2.82-1.89 1.62-.69 3.54-.69 1.62 0 3.36.51 1.74.51 3.06 1.35l1.2-1.26h1.14v8.64h-1.56q-1.32-3.66-2.88-5.22-1.56-1.56-3.84-1.56-2.04 0-3.27 1.08t-1.23 3q0 1.02.33 1.77t1.05 1.47q.72.72 1.83 1.47t2.67 1.71q2.58 1.62 4.41 2.88 1.83 1.26 2.97 2.49 1.14 1.23 1.68 2.55.54 1.32.54 3 0 4.26-2.76 6.69-2.76 2.43-7.26 2.43-4.68 0-8.04-2.7zm41.76 2.1v-2.1q1.98 0 2.73-.18t.75-.48q-.06-.48-.96-1.74-.9-1.26-2.34-3l-6.36-7.68-2.22 2.1v3.54q0 2.34.21 3.75.21 1.41.78 2.22.57.81 1.68 1.11 1.11.3 2.91.36V57H303.4v-2.1q1.8-.06 2.91-.36t1.74-1.08q.63-.78.87-2.1t.24-3.48V22.74q0-4.56-.09-6.9-.09-2.34-.63-3.18-.54-.84-1.8-.99-1.26-.15-3.36-.15V9.48l11.58-2.28v32.94l5.58-5.46q2.7-2.7 4.02-3.99 1.32-1.29 1.32-1.95 0-.66-1.26-1.05t-3.6-.39v-2.1h15.6v2.1q-1.14 0-1.98.12-.84.12-1.59.48-.75.36-1.59.99-.84.63-1.92 1.59l-8.64 7.68 11.88 13.44q.84 1.02 1.53 1.65.69.63 1.38.99t1.5.51q.81.15 1.95.15V57h-15.78zm43.32-7.26l1.86 1.68q-5.1 6.18-12.66 6.18-3.54 0-6.42-1.17t-4.95-3.3q-2.07-2.13-3.21-5.1-1.14-2.97-1.14-6.57 0-3.66 1.2-6.78t3.39-5.34q2.19-2.22 5.22-3.48 3.03-1.26 6.63-1.26 5.82 0 9 3.15 3.18 3.15 3.18 9.03 0 .84-.33 1.02-.33.18-1.53.18h-19.74q-.12.48-.18 1.17t-.06 1.53q0 3.12.75 5.67t2.16 4.35q1.41 1.8 3.36 2.79t4.35.99q2.52 0 4.68-1.11 2.16-1.11 4.44-3.63zM347.5 35.22h11.04q1.2 0 1.92-.06t1.08-.24q.36-.18.48-.51t.12-.87q0-2.76-1.77-4.41-1.77-1.65-4.83-1.65-6.48 0-8.04 7.74zm37.32 10.2v2.04q0 2.46.12 3.9t.63 2.19q.51.75 1.47.99t2.7.36V57h-15.96v-2.1q1.74-.06 2.76-.33 1.02-.27 1.56-.99t.69-2.07q.15-1.35.15-3.63v-7.02q0-4.08-.09-6.36-.09-2.28-.6-3.36t-1.59-1.29q-1.08-.21-3-.21v-2.1l10.5-2.28.84 7.44h.24q.78-1.8 1.95-3.3 1.17-1.5 2.55-2.55 1.38-1.05 2.88-1.65 1.5-.6 3.06-.6 1.92 0 3.03.93 1.11.93 1.11 2.49 0 1.44-.9 2.25t-2.58.81q-.96 0-1.62-.24-.66-.24-1.17-.51l-.96-.51q-.45-.24-.99-.24-1.62 0-3.24 2.07t-2.52 5.25q-.48 1.74-.75 3.93-.27 2.19-.27 4.59zm31.68 12.24l-10.14-25.02q-.72-1.8-1.29-2.85-.57-1.05-1.23-1.59t-1.47-.69q-.81-.15-1.95-.21v-2.1h15.9v2.1q-1.2.06-1.98.12t-1.23.27q-.45.21-.63.6t-.18 1.11q0 1.02.27 1.92.27.9.57 1.8l6.36 17.4h.24l5.46-12.9q1.26-3 1.8-4.8.54-1.8.54-3.18 0-1.38-.72-1.86-.72-.48-3.12-.48v-2.1h11.94v2.1q-.96 0-1.74.48t-1.38 1.2q-.48.66-.99 1.77-.51 1.11-1.02 2.31t-.93 2.37q-.42 1.17-.78 1.89l-8.82 20.34h-3.48zm33.9-33.06v22.86q0 2.34.21 3.75.21 1.41.81 2.22.6.81 1.68 1.11 1.08.3 2.88.36V57h-17.22v-2.1q1.8-.06 2.94-.39t1.77-1.08q.63-.75.84-2.1.21-1.35.21-3.45V40.2q0-3.48-.09-5.73-.09-2.25-.33-3.09-.3-1.38-1.38-1.89-1.08-.51-4.08-.51v-2.1l11.76-2.28zm-6.9-12.18q0-1.56 1.08-2.64t2.64-1.08q1.56 0 2.64 1.08t1.08 2.64q0 1.56-1.08 2.64t-2.64 1.08q-1.56 0-2.64-1.08t-1.08-2.64zm26.22-5.22v40.44q0 2.28.18 3.66.18 1.38.75 2.16.57.78 1.62 1.08 1.05.3 2.79.36V57H458.5v-2.1q1.8-.06 2.88-.39 1.08-.33 1.71-1.05.63-.72.84-2.01.21-1.29.21-3.39V22.2q0-3.24-.09-5.43-.09-2.19-.27-2.97-.3-1.38-1.41-1.86-1.11-.48-3.99-.48V9.42l11.34-2.22zm19.5 0v40.44q0 2.28.18 3.66.18 1.38.75 2.16.57.78 1.62 1.08 1.05.3 2.79.36V57H478v-2.1q1.8-.06 2.88-.39 1.08-.33 1.71-1.05.63-.72.84-2.01.21-1.29.21-3.39V22.2q0-3.24-.09-5.43-.09-2.19-.27-2.97-.3-1.38-1.41-1.86-1.11-.48-3.99-.48V9.42l11.34-2.22zm36.42 42.54l1.86 1.68q-5.1 6.18-12.66 6.18-3.54 0-6.42-1.17t-4.95-3.3q-2.07-2.13-3.21-5.1-1.14-2.97-1.14-6.57 0-3.66 1.2-6.78t3.39-5.34q2.19-2.22 5.22-3.48 3.03-1.26 6.63-1.26 5.82 0 9 3.15 3.18 3.15 3.18 9.03 0 .84-.33 1.02-.33.18-1.53.18h-19.74q-.12.48-.18 1.17t-.06 1.53q0 3.12.75 5.67t2.16 4.35q1.41 1.8 3.36 2.79t4.35.99q2.52 0 4.68-1.11 2.16-1.11 4.44-3.63zm-19.08-14.52h11.04q1.2 0 1.92-.06t1.08-.24q.36-.18.48-.51t.12-.87q0-2.76-1.77-4.41-1.77-1.65-4.83-1.65-6.48 0-8.04 7.74zm80.7-12.84q0 4.8-2.88 7.98-2.88 3.18-9.18 4.26l13.26 15.96q1.62 1.98 3.57 2.85 1.95.87 4.65 1.29V57H585.1l-14.7-18.84q-.78-1.02-1.47-1.62-.69-.6-1.44-.93-.75-.33-1.74-.42-.99-.09-2.37-.09v12.48q0 2.22.27 3.63.27 1.41 1.14 2.19.87.78 2.52 1.05t4.35.27V57h-21.18v-2.28q2.1-.06 3.39-.36t2.01-1.02q.72-.72.96-2.04t.24-3.42V19.92q0-2.1-.21-3.39t-.84-2.04q-.63-.75-1.83-1.02-1.2-.27-3.12-.39V10.8h18.84q8.28 0 12.81 3.06 4.53 3.06 4.53 8.52zm-23.88-7.74V32.1h4.26q6 0 8.91-2.19t2.91-7.23q0-4.86-2.31-6.96-2.31-2.1-7.23-2.1h-5.52q-1.02 0-1.02 1.02zm60.72 35.1l1.86 1.68q-5.1 6.18-12.66 6.18-3.54 0-6.42-1.17t-4.95-3.3q-2.07-2.13-3.21-5.1-1.14-2.97-1.14-6.57 0-3.66 1.2-6.78t3.39-5.34q2.19-2.22 5.22-3.48 3.03-1.26 6.63-1.26 5.82 0 9 3.15 3.18 3.15 3.18 9.03 0 .84-.33 1.02-.33.18-1.53.18H604.6q-.12.48-.18 1.17t-.06 1.53q0 3.12.75 5.67t2.16 4.35q1.41 1.8 3.36 2.79t4.35.99q2.52 0 4.68-1.11 2.16-1.11 4.44-3.63zm-19.08-14.52h11.04q1.2 0 1.92-.06t1.08-.24q.36-.18.48-.51t.12-.87q0-2.76-1.77-4.41-1.77-1.65-4.83-1.65-6.48 0-8.04 7.74zm40.44 8.88q2.52 0 3.93-2.28 1.41-2.28 1.41-6.42 0-4.08-1.41-6.33t-3.99-2.25q-2.58 0-4.11 2.28-1.53 2.28-1.53 6.24 0 3.96 1.56 6.36 1.56 2.4 4.14 2.4zm-3.3 7.02q1.44.12 2.64.24 1.2.12 2.37.24 1.17.12 2.34.3t2.55.36q4.32.66 6.93 3.33 2.61 2.67 2.61 6.69 0 5.04-3.99 7.68-3.99 2.64-11.55 2.64-3.36 0-6.15-.6-2.79-.6-4.77-1.71-1.98-1.11-3.09-2.67-1.11-1.56-1.11-3.42 0-1.26.42-2.34.42-1.08 1.14-1.89.72-.81 1.71-1.29t2.07-.48q2.04 0 3.66 1.26-1.62.36-2.64 1.77-1.02 1.41-1.02 3.21 0 2.64 2.61 4.08t7.41 1.44q10.26 0 10.26-6.3 0-2.4-1.62-3.99-1.62-1.59-3.84-1.89-1.44-.18-2.97-.39-1.53-.21-3-.39-1.47-.18-2.73-.3t-2.04-.24q-3.36-.36-5.1-1.8-1.74-1.44-1.74-3.96 0-2.1 1.74-3.72t4.38-2.04v-.24q-1.32-.54-2.46-1.53t-1.95-2.25q-.81-1.26-1.29-2.73t-.48-3.03q0-2.28.87-4.2.87-1.92 2.46-3.33 1.59-1.41 3.75-2.22 2.16-.81 4.74-.81 2.64 0 4.98.81 2.34.81 4.02 2.37 2.04-1.68 3.6-2.43 1.56-.75 2.94-.75 2.16 0 3.45.99t1.29 2.67q0 1.02-.69 1.62-.69.6-1.71.6-.84 0-1.38-.3-.54-.3-.99-.63-.45-.33-.93-.63-.48-.3-1.2-.3-1.44 0-2.94 1.02 1.44 2.22 1.44 5.58 0 5.1-3.18 8.01t-9.54 3.39q-3.66.3-5.1.78-1.44.48-1.44 1.74 0 .96 1.08 1.41 1.08.45 3.18.57zm50.58-10.44V34.8q0-2.46-.12-3.87-.12-1.41-.63-2.16-.51-.75-1.5-1.02t-2.73-.45v-2.1h10.86v18.42q0 3.42.09 5.58t.27 3.24q.12.78.39 1.23.27.45.81.72.54.27 1.41.36.87.09 2.25.09v2.1l-9.9.72-.66-7.2h-.24q-2.28 3.72-5.25 5.43-2.97 1.71-6.21 1.71-2.52 0-4.89-.96-2.37-.96-3.57-2.58-1.02-1.32-1.47-3.66-.45-2.34-.45-6.06V34.8q0-2.46-.12-3.87-.12-1.41-.63-2.16-.51-.75-1.5-1.02t-2.73-.45v-2.1h10.86v16.38q0 6.54 1.53 9.48Q680.14 54 683.5 54q5.28 0 8.22-6.9.3-.72.48-1.32.18-.6.3-1.32.12-.72.18-1.62.06-.9.06-2.16zM717.7 7.2v40.44q0 2.28.18 3.66.18 1.38.75 2.16.57.78 1.62 1.08 1.05.3 2.79.36V57h-16.56v-2.1q1.8-.06 2.88-.39 1.08-.33 1.71-1.05.63-.72.84-2.01.21-1.29.21-3.39V22.2q0-3.24-.09-5.43-.09-2.19-.27-2.97-.3-1.38-1.41-1.86-1.11-.48-3.99-.48V9.42L717.7 7.2zm27.9 36.78v-4.74q-3.42 1.32-5.79 2.58T736 44.34q-1.44 1.26-2.07 2.52-.63 1.26-.63 2.58 0 1.98 1.32 3.24 1.32 1.26 3.48 1.26 1.56 0 2.91-.78t2.37-2.13q1.02-1.35 1.62-3.18.6-1.83.6-3.87zm-8.64-3.54l8.64-3.78V34.2q0-7.32-6.24-7.32-1.02 0-1.74.18t-1.2.6q-.48.42-.87 1.2t-.75 1.92q-.66 1.74-1.29 2.31-.63.57-1.83.57-3 0-3-3 0-2.88 3.06-4.47 3.06-1.59 8.7-1.59 6 0 8.52 2.13 2.52 2.13 2.52 7.23V47.4q0 6.84 2.7 6.84.84 0 1.62-.21.78-.21 1.32-1.11l.84 1.44q-.72 1.38-2.64 2.31-1.92.93-4.02.93-2.64 0-3.93-1.68t-1.29-4.74h-.3q-1.56 2.94-4.32 4.65-2.76 1.71-6.12 1.71-3.78 0-5.94-1.92-2.16-1.92-2.16-5.16 0-1.44.51-2.76.51-1.32 1.65-2.52t3-2.37q1.86-1.17 4.56-2.37zm34.26 4.98v2.04q0 2.46.12 3.9t.63 2.19q.51.75 1.47.99t2.7.36V57h-15.96v-2.1q1.74-.06 2.76-.33 1.02-.27 1.56-.99t.69-2.07q.15-1.35.15-3.63v-7.02q0-4.08-.09-6.36-.09-2.28-.6-3.36t-1.59-1.29q-1.08-.21-3-.21v-2.1l10.5-2.28.84 7.44h.24q.78-1.8 1.95-3.3 1.17-1.5 2.55-2.55 1.38-1.05 2.88-1.65 1.5-.6 3.06-.6 1.92 0 3.03.93 1.11.93 1.11 2.49 0 1.44-.9 2.25t-2.58.81q-.96 0-1.62-.24-.66-.24-1.17-.51l-.96-.51q-.45-.24-.99-.24-1.62 0-3.24 2.07t-2.52 5.25q-.48 1.74-.75 3.93-.27 2.19-.27 4.59z"/></svg>