<svg viewBox="0 0 438 80" xmlns="http://www.w3.org/2000/svg"><path d="M40.66 18.76q-.12-.12-.84-.3-1.62-.54-1.38-2.22.6-1.62 2.22-1.38 3.84 1.38 3.66 3.42 0 1.74-1.68 1.98h-.18q-1.44-.06-1.8-1.5zm-22.8 11.88q4.14-.9 10.2-2.76 0-5.28-.48-10.02.06-1.68 1.68-1.98 1.74 0 1.98 1.68.42 4.38.48 9.18.42-.12.84-.3 8.94-2.88 15.6-4.44 1.68-.18 2.16 1.38.24 1.68-1.38 2.22-6.42 1.5-15.3 4.38-.96.3-1.98.6-.24 8.16-3.18 15.15-2.94 6.99-10.32 10.47-.36.18-.72.18-1.14 0-1.68-1.14-.54-1.56.96-2.4 5.82-2.76 8.34-8.46 2.52-5.7 2.88-12.66-5.46 1.74-9.36 2.52-.18.06-.36.06-1.38-.06-1.8-1.5-.12-1.62 1.44-2.16zm44.22 26.1q1.68.48 1.5 2.16-1.2 5.7-6.72 6.36-5.34.54-10.02.54h-1.5q-7.68-.54-8.76-8.64-1.8.78-3.6 1.14-.18.06-.36.06-1.38-.06-1.8-1.5-.18-1.62 1.44-2.16 2.04-.42 4.2-1.5-.06-.96-.06-2.04.12-6.78-.54-11.82-.24-1.68 1.44-2.16 1.62-.12 2.16 1.44.78 5.28.6 12.3 4.32-3.24 5.88-8.34.6-1.62 2.22-1.32 1.56.6 1.32 2.22-2.46 7.74-9.36 11.82 0 .54.06 1.02.42 5.58 5.22 5.82 5.04.12 11.1-.54 2.94-.18 3.48-3.42.48-1.56 2.1-1.44zm46.98-40.5q0-1.26-.24-2.04-.24-1.62 1.26-2.28 1.62-.36 2.28 1.26.36 1.32.36 3.12-.18 1.68-1.8 1.8h-.06q-1.68-.18-1.8-1.86zM80.44 43.66q-1.62-.12-1.86-1.8.06-1.68 1.74-1.86 4.2-.36 11.76-1.8.18 0 .24-.06.06-6.54.06-12.42-3.36.72-6.12 1.02-1.68.06-2.04-1.62-.06-1.68 1.62-2.04 2.7-.3 6.12-1.02.24-.06.42-.12 0-4.38-.06-7.62.18-1.68 1.86-1.86 1.62.12 1.86 1.8v7.02q2.82-.48 5.46-.72 2.7-.12 4.14 1.32 1.26.9 1.2 3.78-.66 5.46-1.8 7.8-.54 1.14-1.74 1.2-.3 0-.66-.18-1.5-.72-1.02-2.4 1.02-1.98 1.56-6.72.06-.72-.12-.9-.18-.18-1.38-.24-2.64.24-5.64.78 0 5.94-.06 12.48 7.44-1.38 13.86-1.92 3.12-.48 5.76 1.56 1.74 2.46 1.2 4.86-.36 3.06-1.08 6.6-.72 3.54-1.44 5.64-.9 2.22-3.18 3.3-1.08.48-2.34.48-1.26 0-2.64-.6-1.5-.72-.96-2.4.78-1.44 2.4-.96 1.2.54 2.07.12.87-.42 1.23-1.26.66-1.8 1.29-5.16.63-3.36.99-6.18.12-1.92-.18-1.92.12-.36-2.88-.42-6.48.6-14.1 1.98-.06 7.32-.12 13.86 0 6.78-.06 11.22-.18 1.68-1.86 1.86-1.68-.18-1.8-1.86 0-4.44.06-11.28.06-6.12.12-13.14-7.56 1.5-11.88 1.8zm59.7 12.96q-2.28.66-3.3-.72-.9-.72.27-3.12 1.17-2.4.99-3.9-.18-1.68 1.38-2.22 1.68-.18 2.22 1.38.36 1.98-.48 4.44.3-.06.54-.18 3.96-1.26 5.4-1.5 2.4-.18 3.24.84 1.5 1.38 1.32 4.08-.06 4.14-1.32 6.9-1.26 2.76-6 4.8-.36.18-.78.18-1.08-.06-1.68-1.08-.48-1.62.96-2.46 3.3-1.32 4.2-3.03.9-1.71.96-5.49.06-1.02-.12-1.14h-.24q-1.62.42-4.86 1.44-1.68.48-2.7.78zm-3.84-15.3q-1.26-.06-1.74-1.26-.42-1.62 1.14-2.34 2.58-.9 6.03-2.49 3.45-1.59 5.55-2.61 1.62-.6 2.46.9.6 1.56-.84 2.4-2.28 1.08-5.79 2.67-3.51 1.59-6.21 2.61-.36.12-.6.12zm9.42-14.16q-1.62-.48-1.5-2.1.6-2.76.6-6.12-1.14.6-2.52 1.44-3.24 2.04-6.54 3.72-1.56.6-2.46-.84-.54-1.56.84-2.46 3.12-1.56 6.3-3.54 1.56-.96 2.7-1.62 1.8-.96 3.48-.12 1.56.9 1.8 2.82.18 3.54-.6 7.32-.3 1.44-1.8 1.5h-.3zm30.84 15.06q3.36-1.02 5.34 1.2.66.6.93 2.52t-1.59 5.22q-.6.9-1.56.9-.54 0-.96-.24-1.38-1.02-.66-2.52 1.62-3 .96-3.6-.24-.3-1.26 0-2.82 1.02-6.54 2.55-3.72 1.53-6.6 2.73l-.24.12q-3.48.72-3.78-.6-1.08-1.56.3-3.36 4.86-5.76 4.2-8.76-.18-1.62 1.38-2.16 1.68-.18 2.22 1.38.9 3.78-2.58 8.76 5.7-2.34 10.44-4.14zm21.78 1.98q-1.38-.06-1.8-1.5-.12-1.68 1.5-2.1 6.9-1.26 14.04-2.88 10.92-2.7 21-3.84 1.74 0 1.98 1.68 0 1.62-1.68 1.98-9.72 1.08-20.52 3.72-7.2 1.68-14.22 2.94h-.3zm78.9-5.64q-1.56 4.08-4.08 6.18-2.52 2.1-4.38 2.76-.36.18-.72.12-1.14-.06-1.68-1.08-.48-1.62.96-2.4 3.78-1.08 6.42-6.84.66-1.5 2.34-1.08 1.5.66 1.14 2.34zm28.44 5.7q0 1.74-1.62 1.98-.72.06-1.32.06-3.36 0-6.3-1.44-.24-.12-.54-.3-6.9-3.54-11.34-5.52-1.5-.84-.96-2.46.84-1.44 2.4-.9 4.56 2.04 11.58 5.64.3.12.54.24 2.64 1.32 5.58 1.02 1.74.06 1.98 1.68zm-11.7-20.94q.06 1.68-1.62 2.04-4.26.54-9.54 1.74.06 3.9-.12 8.28-.18 7.56-.24 14.7 3.42-.42 5.7-.48 1.62.12 1.86 1.8-.18 1.68-1.8 1.86-2.22.12-5.82.48v4.8q0 3.54-.06 6.96-.12 1.62-1.8 1.8-1.68-.18-1.86-1.86.06-3.42.06-6.9v-4.32q-2.28.36-3.84.6h-.3q-1.38-.12-1.8-1.56-.12-1.62 1.5-2.1 1.74-.24 4.5-.66 0-7.38.24-15.18.12-3.96.12-7.38-4.8 1.14-8.64 1.74h-.3q-1.38-.06-1.8-1.5-.06-1.74 1.56-2.1 3.96-.66 9.18-1.92-.06-3.78-.12-6.78.12-1.68 1.8-1.86 1.68.12 1.86 1.8.06 2.64.12 6.06 4.98-1.14 9.12-1.68 1.68-.06 2.04 1.62zm-43.44 14.46q-1.02 0-1.62-.96-.66-1.5.72-2.52 6.18-3.36 7.62-9.42.54-1.56 2.22-1.32 1.56.6 1.32 2.22-1.8 7.56-9.36 11.76-.42.24-.9.24zm7.98 22.32q-1.68-.18-1.8-1.86-.06-5.4-.15-11.28-.09-5.88-.45-9.12-.06-1.62 1.62-2.04 1.68-.06 2.04 1.62.36 3.42.45 9.36.09 5.94.15 11.46-.18 1.68-1.86 1.86zm76.98-2.22q-1.56-.12-1.8-1.68.06-1.68 1.74-1.98 3.36-.18 9.36-.96 2.82-.36 5.58-.72-.66-.6-.48-1.56.72-4.68.9-10.38.18-5.7.12-9.6v-1.14q-.06-.84-.12-.78.06 0-.42-.06-.18 0-.42.06-.54.12-1.56.48-1.74.66-3 .84-1.68.12-2.1-1.56-.06-1.68 1.62-2.04.9-.18 2.28-.72 1.56-.54 2.28-.66 2.34-.24 3.72.9 1.38 1.26 1.38 3.54V31q.06 3.96-.12 9.81-.18 5.85-.96 10.83-.06.3-.24.6 6.12-.72 10.02-.6 1.68.24 1.74 1.86-.18 1.74-1.86 1.8-3.12-.06-8.1.45-4.98.51-9.78 1.11-6.24.78-9.66 1.02h-.12zm4.86-8.04q.06-1.68-.12-6.54t-.48-7.2q-.06-1.68 1.56-2.1 1.68 0 2.1 1.56v.12q1.8-.48 3.06-.54 1.68.18 1.86 1.86-.18 1.62-1.86 1.8-.6.06-2.1.42-.24.12-.54.12-.12 0-.12-.06.12 2.04.18 4.14.66-.18 1.26-.3l1.26-.36q1.68-.18 2.16 1.44.24 1.68-1.38 2.16-.36.12-1.14.3-1.5.36-2.04.48v2.94q-.24 1.62-1.86 1.74h-.12q-1.62-.24-1.68-1.98zM313.9 29.62q-1.38-.06-1.74-1.38-.24-1.68 1.32-2.22 1.32-.3 2.88-.48 1.68-.06 2.04 1.56.12 1.68-1.56 2.04-1.8.24-2.52.42-.18.06-.42.06zm-3.54 11.82q-1.26-.06-1.74-1.38-.3-1.62 1.26-2.22 3.66-1.08 9.06-3.18.72-.24 1.44-.54-.06-11.1-.36-16.8.06-1.68 1.74-1.92 1.68.06 1.92 1.74.12 1.92.18 4.8.36-.18.72-.18 1.2 0 2.64.12 1.68.3 1.68 1.92-.24 1.62-1.8 1.74h-.12q-1.62-.12-2.22-.12-.42 0-.84-.12.12 3.48.12 7.44 1.86-.6 3.24-1.08 1.74-.24 2.28 1.26.36 1.62-1.2 2.28-1.8.54-4.26 1.44.06 7.98.03 15.57t-.09 12.51q-.18 1.68-1.86 1.8h-.06q-1.68-.18-1.8-1.86.18-6.66.18-17.4-2.88 3.9-6.3 6-.42.3-.96.3-.96 0-1.56-.96-.66-1.5.66-2.46 3-1.98 5.4-5.34 1.02-1.38 2.52-.54l.18.18v-6.42q-.06.06-.24.06-5.46 2.16-9.36 3.3-.18.06-.48.06zm15.9 5.28h-.3q-1.62-.3-1.68-1.98.3-1.62 1.98-1.68h.3q.66.06 1.26.12 1.68.36 1.56 2.1-.3 1.44-1.8 1.56h-.24l-1.08-.12zm79.8-28.32q-3.18 1.08-4.56-.6-1.5-3 .96-6.54.96-1.32 2.52-.72 1.38 1.02.66 2.52-.66 1.26-.9 1.92.06-.06.12-.06 4.5-1.68 6.36-1.08 1.74.66 1.98 2.34.54 1.56-2.46 4.02-.48.3-1.02.3-.9 0-1.5-.78-.6-.96-.06-1.98-1.2.36-2.1.66zm-25.26 3.24q-1.38-.06-1.8-1.44-.18-1.68 1.44-2.22 2.04-.54 4.29-2.1t2.85-2.28q1.02-1.26 2.52-.42 1.32 1.14.42 2.58-.72 1.02-2.76 2.46.6.72 1.2.84 1.26-.06 1.92-.96 1.32-1.08 2.58-.06 1.14 1.2.12 2.58-2.04 2.1-4.44 2.16-.36 0-.72-.06-2.22-.36-3.72-2.52-1.8 1.02-3.54 1.38-.18.06-.36.06zm17.04 27.96q-1.86.66-3.78 1.08.18 1.02.24 1.92 1.26-.24 2.76-.54.9-.18 1.74-.3.36-.06.72 0 .66-4.62.66-8.1 0-.24-.06-.42-1.08.36-2.1.72-1.44.6-2.94 1.02-1.62.24-2.22-1.38-.24-1.62 1.32-2.22 1.26-.3 2.58-.84l2.34-.78q2.34-.54 3.24.36 1.32.66 1.5 3.6 0 4.32-.96 10.38-.36 1.44-1.86 1.56-.12 0-.24-.06-.54-.06-.9-.42-.18.12-.42.18-.84.12-1.74.3-1.56.3-2.82.54-.18.06-.42.06-1.02-.06-1.56-.96-.06 0-.15.03t-.21.03q-1.56-.12-1.86-1.68-.12-.9-.33-2.88-.21-1.98-.51-3.54-.18-1.68 1.38-2.22 1.68-.12 2.22 1.44.06.3.06.54 1.68-.36 2.94-.84 1.56-.48 2.34 1.02.54 1.56-.96 2.4zm-3.72-17.1q-.3-1.62 1.26-2.28 5.82-1.62 10.56-3.12 4.44-.96 5.94.48 1.8.9 2.22 4.86v.24q.54 13.98.18 28.14 0 3.36-1.23 5.61-1.23 2.25-5.67 2.79h-.18q-1.5-.12-1.8-1.62-.06-1.68 1.62-2.04 2.28-.12 2.91-1.08.63-.96.69-3.84.3-13.98-.18-27.9v-.24q.06-1.14-.66-1.92-.84-.54-2.7.06-4.86 1.5-10.68 3.12-1.74.3-2.28-1.26zm-9.48-1.26l-.48-.36q-1.5-.72-1.08-2.34.78-1.5 2.4-1.08 1.32.66 2.1 1.62.9 1.5-.42 2.58-.42.36-1.08.36-.84 0-1.44-.78zM382.9 59.5q-1.62-.24-1.68-1.92.18-3.6.15-8.04-.03-4.44-.51-7.86-.06-1.68 1.56-2.1 1.68-.06 2.04 1.56.54 3.6.57 8.25.03 4.65-.15 8.37-.24 1.62-1.86 1.74h-.12z"/></svg>