<svg viewBox="0 0 300 80" xmlns="http://www.w3.org/2000/svg"><path d="M21.1 54.94V53.2h23.64V17.26l-13.5 28.92-13.5-28.98V55l-1.8-.06v-42h1.8l13.5 28.98L44.74 13l1.8-.06V55l-25.44-.06zm59.04-4.68l1.32 1.2q-3.3 4.14-10.8 4.14-7.5 0-10.74-4.26T56.68 37.6q0-9.48 3.24-13.74t10.74-4.26q8.7 0 11.82 5.7l-14.7 12.3h-2.82l15.18-12.66q-2.64-3.54-9.48-3.54-3 0-5.04.63t-3.75 2.34q-1.71 1.71-2.55 4.98-.84 3.27-.84 8.25t.84 8.25q.84 3.27 2.55 4.98 1.71 1.71 3.75 2.34 2.04.63 5.04.63 6.84 0 9.48-3.54zm27.72-18.66h-2.82l7.98-6.66q-2.64-3.54-9.48-3.54-3 0-5.04.63t-3.75 2.34q-1.71 1.71-2.55 4.98-.84 3.27-.84 8.25t.84 8.25q.84 3.27 2.55 4.98 1.71 1.71 3.75 2.34 2.04.63 5.04.63 6.78 0 9.42-3.48V39.7h1.8v15.84q0 11.46-10.5 11.46h-7.02v-1.8h7.02q4.5 0 6.6-2.37 2.1-2.37 2.1-9.03v-.9q-3.24 2.7-9.42 2.7-7.5 0-10.74-4.26T89.56 37.6q0-9.48 3.24-13.74t10.74-4.26q8.7 0 11.82 5.7l-7.5 6.3zm32.04 5.94L148.06 55h-1.98l-8.4-18q.12-.06 1.05-.51t1.29-.66q.36-.21 1.2-.75t1.26-1.05q.42-.51.93-1.2t.75-1.56q.24-.87.24-1.89 0-3.78-3.6-5.58-3.6-1.8-8.94-1.8h-4.8v33h-1.8V20.2h6.6q7.08 0 10.71 2.46 3.63 2.46 3.63 6.72 0 2.76-1.86 4.89t-4.44 3.27zM156.22 55V20.2h1.8V55h-1.8zm18.84-.06V53.2h23.16V22.72l-13.5 13.5-13.5-13.5V55l-1.8-.06V20.2h1.8l13.5 13.5 13.5-13.5h1.8V55l-24.96-.06z"/></svg>