<svg viewBox="0 0 633 80" xmlns="http://www.w3.org/2000/svg"><path d="M20.04 59.44l4.38-34.98-6.36-.84v-4.2h20.4l6.36 25.08 1.44 6.66 1.2-6.66 6.3-25.08h20.28v4.2l-6.54.84 4.8 34.92 4.62.66V64H56.7v-3.96l5.1-.66-2.52-25.86-1.08-10.56-2.1 9.6-7.86 29.7h-7.86l-8.4-28.86-2.76-10.5-.72 10.62-2.22 25.86 6.12.66V64H15.06v-3.96l4.98-.6zm75 5.22q-8.22 0-12.18-4.65-3.96-4.65-3.96-12.69 0-5.46 2.04-9.42t5.73-6.03q3.69-2.07 8.67-2.07 6.3 0 9.63 3.18 3.33 3.18 3.45 9 0 3.84-.54 6.18H89.1q.3 5.1 2.49 7.77 2.19 2.67 6.15 2.67 2.22 0 4.65-.75t3.93-1.71L108 59.8q-1.56 1.74-5.31 3.3-3.75 1.56-7.65 1.56zm-6-20.46h9.84l.06-2.52q0-3.78-1.02-5.76t-3.48-1.98q-2.52 0-3.9 2.19t-1.5 8.07zM112.86 64v-3.96l3.66-.54V36.94l-3.54-1.08v-4.68l9.96-1.32h.18l1.68 1.26v1.44l-.18 4.98h.18q.42-1.38 1.92-3.21t3.81-3.18q2.31-1.35 5.01-1.35 1.56 0 2.4.42v10.44q-.96-.72-2.07-1.14-1.11-.42-2.85-.42-2.16 0-3.9.57-1.74.57-2.76 1.29V59.5l6.6.6V64h-20.1zm28.8 0v-3.96l3.66-.54V36.94l-3.54-1.08v-4.68l9.96-1.32h.18l1.68 1.26v1.44l-.18 4.98h.18q.42-1.38 1.92-3.21t3.81-3.18q2.31-1.35 5.01-1.35 1.56 0 2.4.42v10.44q-.96-.72-2.07-1.14-1.11-.42-2.85-.42-2.16 0-3.9.57-1.74.57-2.76 1.29V59.5l6.6.6V64h-20.1zm36.06-38.52q-2.34 0-3.78-1.38t-1.44-3.54q0-2.52 1.59-4.14 1.59-1.62 4.29-1.62t4.14 1.38q1.44 1.38 1.44 3.54 0 2.58-1.62 4.17-1.62 1.59-4.56 1.59h-.06zm-3.66 34.02V36.94l-4.02-1.14v-4.5l12-1.44h.12l1.86 1.26V59.5l3.6.54V64h-17.28v-3.96l3.72-.54zm14.1-25.02V30.7h16.44v3.78l-4.02.66 4.08 14.94 1.26 5.94 1.08-5.94 5.16-19.38h8.1l5.94 19.38 1.26 5.88 1.2-5.88 3.78-14.88-4.32-.72V30.7h13.2v3.78l-2.88.66-9.06 29.34h-7.62l-5.94-18.36-1.26-6.96-.9 6.96-5.34 18.36h-7.8l-9.54-29.34-2.82-.66zm69.54 30.18q-8.22 0-12.18-4.65-3.96-4.65-3.96-12.69 0-5.46 2.04-9.42t5.73-6.03q3.69-2.07 8.67-2.07 6.3 0 9.63 3.18 3.33 3.18 3.45 9 0 3.84-.54 6.18h-18.78q.3 5.1 2.49 7.77 2.19 2.67 6.15 2.67 2.22 0 4.65-.75t3.93-1.71l1.68 3.66q-1.56 1.74-5.31 3.3-3.75 1.56-7.65 1.56zm-6-20.46h9.84l.06-2.52q0-3.78-1.02-5.76t-3.48-1.98q-2.52 0-3.9 2.19t-1.5 8.07zm22.92 10.2q0-5.28 5.37-8.1 5.37-2.82 14.13-2.88v-1.2q0-2.16-.48-3.42-.48-1.26-1.74-1.89-1.26-.63-3.72-.63-2.94 0-5.25.69t-4.83 1.83l-2.04-4.32q.96-.78 3.12-1.89 2.16-1.11 5.19-1.92 3.03-.81 6.33-.81 4.8 0 7.53 1.26 2.73 1.26 3.9 3.9 1.17 2.64 1.17 7.2v17.82h3.12v3.78q-1.38.3-3.84.6t-4.2.3q-2.28 0-3.03-.66t-.75-2.64v-1.38q-1.5 1.8-4.02 3.21-2.52 1.41-5.82 1.41-2.82 0-5.13-1.23t-3.66-3.54q-1.35-2.31-1.35-5.49zm14.82 4.74q1.08 0 2.4-.63 1.32-.63 2.28-1.53v-9.54q-4.68 0-6.93 1.68t-2.25 4.32q0 2.7 1.2 4.2t3.3 1.5zm30.36 5.4q-3.96 0-5.85-1.83-1.89-1.83-1.89-5.67V35.68h-3.66V32.2l1.2-.48q1.44-.48 2.52-1.02 1.2-1.14 1.92-3 .9-2.16 1.98-6.06h5.58l.36 9h8.58v5.04h-8.46v15.9q0 3.3.18 4.62.18 1.32.69 1.71.51.39 1.89.39 2.82 0 5.34-.96l1.26 3.78q-1.68 1.38-4.98 2.4-3.3 1.02-6.66 1.02zm17.04-5.04V20.68l-4.26-.78v-3.66l12.06-1.44h.18l1.74 1.26.06 13.02-.48 5.34q1.86-1.74 4.92-3.09 3.06-1.35 6.72-1.35 3.78 0 5.88 1.38t2.94 4.2q.84 2.82.84 7.5V59.5l3.66.54V64h-16.68v-3.96l3.18-.54V43.12q0-4.2-.9-5.85-.9-1.65-3.66-1.65-1.68 0-3.36.75t-2.82 1.83v21.3l3.3.54V64h-16.44v-3.96l3.12-.54zm53.4 5.16q-8.22 0-12.18-4.65-3.96-4.65-3.96-12.69 0-5.46 2.04-9.42t5.73-6.03q3.69-2.07 8.67-2.07 6.3 0 9.63 3.18 3.33 3.18 3.45 9 0 3.84-.54 6.18H384.3q.3 5.1 2.49 7.77 2.19 2.67 6.15 2.67 2.22 0 4.65-.75t3.93-1.71l1.68 3.66q-1.56 1.74-5.31 3.3-3.75 1.56-7.65 1.56zm-6-20.46h9.84l.06-2.52q0-3.78-1.02-5.76t-3.48-1.98q-2.52 0-3.9 2.19t-1.5 8.07zM408.06 64v-3.96l3.66-.54V36.94l-3.54-1.08v-4.68l9.96-1.32h.18l1.68 1.26v1.44l-.18 4.98h.18q.42-1.38 1.92-3.21t3.81-3.18q2.31-1.35 5.01-1.35 1.56 0 2.4.42v10.44q-.96-.72-2.07-1.14-1.11-.42-2.85-.42-2.16 0-3.9.57-1.74.57-2.76 1.29V59.5l6.6.6V64h-20.1zm47.1-4.62V24.46l-4.5-.84v-4.2h9.48q2.04 0 5.4-.24.72-.06 1.8-.12t2.52-.06q6.54 0 10.26 1.2 3.72 1.2 5.19 3.42 1.47 2.22 1.47 5.58 0 4.5-2.79 7.44-2.79 2.94-7.11 3.54 6 0 9.45 2.7 3.45 2.7 3.45 7.62 0 6.42-4.41 10.14-4.41 3.72-14.97 3.72-1.68 0-3.24-.09-1.56-.09-2.22-.09-2.16-.18-4.68-.18h-9.72v-3.96l4.62-.66zm10.14-20.7q1.08.12 4.86.12 3.3 0 4.86-2.25 1.56-2.25 1.56-6.33 0-3.78-1.68-5.52-1.68-1.74-5.46-1.74-.9 0-2.1.09-1.2.09-2.04.21v15.42zm0 21.06q1.2.48 4.74.48 4.44 0 6.45-2.34t2.01-6.78q0-4.2-1.86-6-1.86-1.8-5.88-1.8-3.3 0-5.46.12v16.32zm31.86-.24V20.68l-4.2-.78v-3.66l12-1.44h.18l1.74 1.26V59.5l3.9.54V64h-17.46v-3.96l3.84-.54zm16.68-5.1q0-5.28 5.37-8.1 5.37-2.82 14.13-2.88v-1.2q0-2.16-.48-3.42-.48-1.26-1.74-1.89-1.26-.63-3.72-.63-2.94 0-5.25.69t-4.83 1.83l-2.04-4.32q.96-.78 3.12-1.89 2.16-1.11 5.19-1.92 3.03-.81 6.33-.81 4.8 0 7.53 1.26 2.73 1.26 3.9 3.9 1.17 2.64 1.17 7.2v17.82h3.12v3.78q-1.38.3-3.84.6t-4.2.3q-2.28 0-3.03-.66t-.75-2.64v-1.38q-1.5 1.8-4.02 3.21-2.52 1.41-5.82 1.41-2.82 0-5.13-1.23t-3.66-3.54q-1.35-2.31-1.35-5.49zm14.82 4.74q1.08 0 2.4-.63 1.32-.63 2.28-1.53v-9.54q-4.68 0-6.93 1.68t-2.25 4.32q0 2.7 1.2 4.2t3.3 1.5zm19.56-11.58q0-5.34 2.16-9.36t6.06-6.21q3.9-2.19 9-2.19 2.52 0 4.35.33 1.83.33 3.75.93 1.74.48 2.16.54l-.42 10.86h-6.06l-1.56-6.9q-.18-.78-.99-1.11-.81-.33-1.95-.33-2.82 0-4.41 2.76-1.59 2.76-1.59 9.18 0 6.12 2.01 9.39 2.01 3.27 5.43 3.27 4.44 0 8.16-2.28l1.62 3.54q-1.44 1.62-4.74 3.15-3.3 1.53-7.32 1.53-7.86 0-11.76-4.65-3.9-4.65-3.9-12.45zm34.74 11.94V20.68l-4.08-.78v-3.66l11.94-1.44h.18l1.74 1.26v28.02l-.18 2.94 11.28-11.88-4.44-.66V30.7h16.32v3.78l-4.92.78-6.48 6.18 9.9 18.06 3.12.54V64h-16.68v-3.96l2.7-.54-5.94-11.88-4.86 5.04.12 3.06v3.78l3.48.54V64h-16.5v-3.96l3.3-.54z"/></svg>