<svg viewBox="0 0 572 80" xmlns="http://www.w3.org/2000/svg"><path d="M47.24 47.22q1.86-4.56 6.3-14.4.72-1.68 2.88-6.45 2.16-4.77 3.42-7.95h13.5l-.3 2.64-5.28.66-1.14 38.1 5.04.72-.18 2.46H54.44l.24-2.46 5.46-.72 1.38-26.34.78-12.12-4.5 10.68L44 63.12l-3.42.42-4.8-30.78-1.86-11.34-2.46 11.64-6.36 26.76 6.06.72-.18 2.46H15.14l.3-2.46 4.92-.72 9.66-38.1-5.52-.66.36-2.64h14.7l4.38 28.74.78 5.94 2.52-5.88zm53.34 10.02q-1.56 2.34-5.01 4.38-3.45 2.04-7.71 2.04-4.08 0-6.78-1.83t-3.96-4.8q-1.26-2.97-1.26-6.39 0-5.82 2.34-10.83t6.42-7.95q4.08-2.94 9-2.94 4.32 0 6.51 2.04 2.19 2.04 2.19 5.4 0 4.32-3.36 7.23t-7.98 4.35q-4.62 1.44-8.34 1.5-.24 4.26 1.41 7.26t5.25 3q2.7 0 5.25-1.29t4.65-3.51l1.38 2.34zm-8.4-25.08q-2.7 0-4.77 2.22-2.07 2.22-3.27 5.55-1.2 3.33-1.44 6.57 2.88-.12 6.03-1.29 3.15-1.17 5.25-3.36t2.1-5.01q0-2.28-1.02-3.48-1.02-1.2-2.88-1.2zm25.02 5.28q.72-1.98 2.31-3.93 1.59-1.95 3.81-3.24 2.22-1.29 4.68-1.29 1.44 0 1.92.42l-1.38 6.9q-.9-.66-2.94-.66-2.46 0-4.89 1.53-2.43 1.53-3.69 4.29L114.2 63h-6.18l3.78-28.86-3.06-1.5.48-2.28 7.38-1.38 1.26.72-.42 5.4-.24 2.34zm24.66 0q.72-1.98 2.31-3.93 1.59-1.95 3.81-3.24 2.22-1.29 4.68-1.29 1.44 0 1.92.42l-1.38 6.9q-.9-.66-2.94-.66-2.46 0-4.89 1.53-2.43 1.53-3.69 4.29L138.86 63h-6.18l3.78-28.86-3.06-1.5.48-2.28 7.38-1.38 1.26.72-.42 5.4-.24 2.34zm22.92 20.22l-.06.6q0 .72.27 1.11.27.39.69.39.66 0 1.35-.39.69-.39 1.71-1.35l.78 1.56q-.9 1.26-2.76 2.64-1.86 1.38-4.38 1.38-2.1 0-3.21-.96-1.11-.96-.93-2.82.3-2.64 1.56-11.34 1.68-11.64 2.04-14.58l-3.72-1.44.42-2.1 8.88-1.38 1.38.66-4.02 28.02zm1.62-35.04q-1.38 0-2.37-1.02-.99-1.02-.99-2.46 0-1.86 1.29-3.18t3.03-1.32q1.62 0 2.52.99.9.99.9 2.43-.06 1.92-1.26 3.24-1.2 1.32-3.12 1.32zm11.16 12.3q-.24-1.02-.54-1.47-.3-.45-.84-.45t-.93.24q-.39.24-1.05.72l-.78-1.8q.54-.84 2.34-2.01 1.8-1.17 3.84-1.17 2.16 0 3.09.99.93.99 1.23 3.03l2.34 19.56.6 5.76 2.34-6.18 9-22.92h5.7l2.46 23.7.48 5.34 3.06-4.5q2.28-3.42 4.2-7.98 1.92-4.56 2.04-8.58 0-1.02-.54-2.88-.42-1.38-.42-2.22 0-1.38.87-2.25.87-.87 2.25-.87 3.72 0 3.84 5.94 0 3.78-3.09 9.69t-6.87 11.07l-5.1 7.56-5.04.3-1.32-10.32-1.26-11.88-.3-4.08-1.26 4.14-5.4 11.82-4.44 9.96-5.28.42-1.92-10.38-3.3-18.3zm72.78 22.32q-1.56 2.34-5.01 4.38-3.45 2.04-7.71 2.04-4.08 0-6.78-1.83t-3.96-4.8q-1.26-2.97-1.26-6.39 0-5.82 2.34-10.83t6.42-7.95q4.08-2.94 9-2.94 4.32 0 6.51 2.04 2.19 2.04 2.19 5.4 0 4.32-3.36 7.23t-7.98 4.35q-4.62 1.44-8.34 1.5-.24 4.26 1.41 7.26t5.25 3q2.7 0 5.25-1.29t4.65-3.51l1.38 2.34zm-8.4-25.08q-2.7 0-4.77 2.22-2.07 2.22-3.27 5.55-1.2 3.33-1.44 6.57 2.88-.12 6.03-1.29 3.15-1.17 5.25-3.36t2.1-5.01q0-2.28-1.02-3.48-1.02-1.2-2.88-1.2zm39.96 25.2q-.06.24-.06.66 0 .9.33 1.32.33.42.87.42.96 0 2.64-1.5l.84 1.56q-.66 1.08-2.49 2.43t-4.11 1.35q-1.86 0-2.94-.93-1.08-.93-1.02-2.91l.24-1.74q-1.92 2.34-4.47 3.96t-5.49 1.62q-4.86 0-7.26-3.45-2.4-3.45-2.4-9.09 0-5.16 2.28-10.29 2.28-5.13 6.66-8.49 4.38-3.36 10.26-3.36 1.38 0 3.12.33 1.74.33 3.18.75l3.66-1.02-3.84 28.38zm-2.94-24.18q-1.56-.96-3.84-.96-3.84 0-6.54 2.82t-4.05 7.05q-1.35 4.23-1.35 8.49 0 4.32 1.29 6.69t3.81 2.37q2.1 0 4.23-1.59 2.13-1.59 3.63-3.63l2.82-21.24zm21.12 19.26q-.42 2.76-.42 4.38 0 1.44.57 2.04.57.6 2.01.6 1.26 0 2.97-.72 1.71-.72 2.67-1.5l.6 2.04q-1.32 1.5-4.14 2.91-2.82 1.41-5.82 1.41-2.46 0-3.87-1.23-1.41-1.23-1.41-3.81 0-1.14.42-4.8l2.7-20.28h-3.6l.54-2.46 3.72-1.26q1.32-1.44 3.78-8.22h3.36l-1.02 8.16h7.68l-.48 3.78h-7.68l-2.58 18.96zm23.04-15.42q2.4-3.54 5.73-5.82 3.33-2.28 6.81-2.28 3.42 0 5.25 2.04t1.83 6.72q0 2.16-.72 6.03t-.84 4.47q-.12.96-.27 1.71-.15.75-.27 1.29-.3 1.86-.6 3.78-.3 1.92-.3 3.12 0 1.74.9 1.74.66 0 1.29-.36t1.71-1.32l.78 1.62q-.84 1.2-2.73 2.52-1.89 1.32-4.41 1.32-2.28 0-3.24-.96-.96-.96-.96-2.82 0-1.74.96-6.78l.6-3.24.24-1.44q1.32-7.02 1.32-10.14-.06-2.76-.84-3.78t-2.58-1.02q-2.4 0-5.31 2.4-2.91 2.4-4.95 5.82L319.76 63h-6.24l5.64-44.04-3.48-1.08.42-2.16 8.52-1.08 1.32.78-2.82 21.6zm51.36 20.22q-1.56 2.34-5.01 4.38-3.45 2.04-7.71 2.04-4.08 0-6.78-1.83t-3.96-4.8q-1.26-2.97-1.26-6.39 0-5.82 2.34-10.83t6.42-7.95q4.08-2.94 9-2.94 4.32 0 6.51 2.04 2.19 2.04 2.19 5.4 0 4.32-3.36 7.23t-7.98 4.35q-4.62 1.44-8.34 1.5-.24 4.26 1.41 7.26t5.25 3q2.7 0 5.25-1.29t4.65-3.51l1.38 2.34zm-8.4-25.08q-2.7 0-4.77 2.22-2.07 2.22-3.27 5.55-1.2 3.33-1.44 6.57 2.88-.12 6.03-1.29 3.15-1.17 5.25-3.36t2.1-5.01q0-2.28-1.02-3.48-1.02-1.2-2.88-1.2zm25.02 5.28q.72-1.98 2.31-3.93 1.59-1.95 3.81-3.24 2.22-1.29 4.68-1.29 1.44 0 1.92.42l-1.38 6.9q-.9-.66-2.94-.66-2.46 0-4.89 1.53-2.43 1.53-3.69 4.29L388.1 63h-6.18l3.78-28.86-3.06-1.5.48-2.28 7.38-1.38 1.26.72-.42 5.4-.24 2.34zm32.64-19.02h15.24l-.24 2.64-4.68.66-4.86 38.1 4.8.72-.18 2.46h-15.84l.3-2.46 4.38-.72 4.86-38.1-4.08-.66.3-2.64zm25.62 34.02q-.42 2.76-.42 4.38 0 1.44.57 2.04.57.6 2.01.6 1.26 0 2.97-.72 1.71-.72 2.67-1.5l.6 2.04q-1.32 1.5-4.14 2.91-2.82 1.41-5.82 1.41-2.46 0-3.87-1.23-1.41-1.23-1.41-3.81 0-1.14.42-4.8l2.7-20.28h-3.6l.54-2.46 3.72-1.26q1.32-1.44 3.78-8.22h3.36l-1.02 8.16h7.68l-.48 3.78h-7.68l-2.58 18.96zm37.98 4.92q-.06.24-.06.66 0 .9.33 1.32.33.42.87.42.96 0 2.64-1.5l.84 1.56q-.66 1.08-2.49 2.43t-4.11 1.35q-1.86 0-2.94-.93-1.08-.93-1.02-2.91l.24-1.74q-1.92 2.34-4.47 3.96t-5.49 1.62q-4.86 0-7.26-3.45-2.4-3.45-2.4-9.09 0-5.16 2.28-10.29 2.28-5.13 6.66-8.49 4.38-3.36 10.26-3.36 1.38 0 3.12.33 1.74.33 3.18.75l3.66-1.02-3.84 28.38zm-2.94-24.18q-1.56-.96-3.84-.96-3.84 0-6.54 2.82t-4.05 7.05q-1.35 4.23-1.35 8.49 0 4.32 1.29 6.69t3.81 2.37q2.1 0 4.23-1.59 2.13-1.59 3.63-3.63l2.82-21.24zm20.28 24.48q-.06.24-.06.66 0 1.44.96 1.44 1.14 0 3.06-1.74l.78 1.56q-.84 1.32-2.58 2.67-1.74 1.35-4.38 1.35-1.92 0-3.06-.9-1.14-.9-1.14-2.82 0-.36.09-1.08.09-.72.15-1.02l5.4-38.82-3.72-1.08.54-2.16 8.52-1.08 1.26.78-5.82 42.24zm18.84 0l-.06.6q0 .72.27 1.11.27.39.69.39.66 0 1.35-.39.69-.39 1.71-1.35l.78 1.56q-.9 1.26-2.76 2.64-1.86 1.38-4.38 1.38-2.1 0-3.21-.96-1.11-.96-.93-2.82.3-2.64 1.56-11.34 1.68-11.64 2.04-14.58l-3.72-1.44.42-2.1 8.88-1.38 1.38.66-4.02 28.02zm1.62-35.04q-1.38 0-2.37-1.02-.99-1.02-.99-2.46 0-1.86 1.29-3.18t3.03-1.32q1.62 0 2.52.99.9.99.9 2.43-.06 1.92-1.26 3.24-1.2 1.32-3.12 1.32zm30.18 13.62q-3.42-3.42-5.4-3.42-2.76 0-4.98 2.1-2.22 2.1-3.48 5.82-1.26 3.72-1.26 8.52 0 10.2 6.36 10.2 2.52 0 4.32-.9 1.8-.9 3.84-2.76l1.26 2.28q-1.5 2.04-4.5 3.78-3 1.74-7.02 1.74-5.1 0-7.98-3.57-2.88-3.57-2.88-9.99 0-4.92 2.07-9.81 2.07-4.89 6.12-8.1 4.05-3.21 9.57-3.21 1.74 0 3.66.36 1.92.36 3.18.96l-1.68 6.3-1.2-.3z"/></svg>