<svg viewBox="0 0 681 80" xmlns="http://www.w3.org/2000/svg"><path d="M20.46 52.46l4.38-37.32-6.54-.72v-3h15.9l8.46 27 1.98 7.62 1.8-7.62 8.4-27h15.78v3l-6.6.72 4.8 37.26 5.22.66V56H56.76v-2.94l5.46-.6-2.7-26.94-1.26-11.58-2.52 8.64-10.02 31.38h-3.9L32.1 25.22l-3.54-11.34-1.08 11.64-2.4 26.94 5.94.6V56H15.36v-2.94l5.1-.6zm71.4 4.2q-7.26 0-11.07-4.74-3.81-4.74-3.81-12.66 0-5.22 1.98-9.18t5.55-6.12q3.57-2.16 8.13-2.16 5.58 0 8.67 3.09t3.27 8.85q0 3.66-.42 5.58H83.52q.12 5.94 2.76 9.57 2.64 3.63 7.5 3.63 2.4 0 5.01-.87t4.05-2.07l1.14 2.64q-1.74 1.8-5.16 3.12t-6.96 1.32zm-8.28-20.52h14.4q.18-1.26.18-2.58-.06-3.9-1.65-6.15-1.59-2.25-5.01-2.25-3.48 0-5.55 2.52t-2.37 8.46zM109.86 56v-2.94l4.5-.36V27.32l-4.32-1.08V23l8.28-1.08h.12l1.32 1.08v1.08l-.18 4.68h.18q.6-1.02 2.16-2.64t4.02-2.97q2.46-1.35 5.34-1.35 1.2 0 1.98.3v6.72q-.42-.3-1.35-.57-.93-.27-2.07-.27-4.98 0-9.24 3.06v21.6l7.62.48V56h-18.36zm27.48 0v-2.94l4.5-.36V27.32l-4.32-1.08V23l8.28-1.08h.12l1.32 1.08v1.08l-.18 4.68h.18q.6-1.02 2.16-2.64t4.02-2.97q2.46-1.35 5.34-1.35 1.2 0 1.98.3v6.72q-.42-.3-1.35-.57-.93-.27-2.07-.27-4.98 0-9.24 3.06v21.6l7.62.48V56h-18.36zm34.44-39.3q-1.92 0-2.88-1.08t-.96-2.76q0-1.92 1.17-3.18 1.17-1.26 3.21-1.26t3 1.08q.96 1.08.96 2.76 0 2.04-1.17 3.24-1.17 1.2-3.27 1.2h-.06zm-2.4 35.82v-25.2l-4.56-1.08v-3.18l9.3-1.14h.12l1.38 1.08v29.58l4.8.48V56h-15.9v-2.94l4.86-.54zm12.18-27V22.7h13.98v2.82l-4.56.72 4.98 17.64 1.74 7.62 1.74-7.68 5.76-21.12h5.88l5.94 21.12 1.74 7.74 1.92-7.68 4.86-17.58-4.56-.78V22.7h12.18v2.82l-3.18.78-9.3 30.18h-5.64l-6.36-21.18-1.56-7.44-1.26 7.44-6.06 21.18h-5.58l-9.6-30.24-3.06-.72zm68.22 31.14q-7.26 0-11.07-4.74-3.81-4.74-3.81-12.66 0-5.22 1.98-9.18t5.55-6.12q3.57-2.16 8.13-2.16 5.58 0 8.67 3.09t3.27 8.85q0 3.66-.42 5.58h-20.64q.12 5.94 2.76 9.57 2.64 3.63 7.5 3.63 2.4 0 5.01-.87t4.05-2.07l1.14 2.64q-1.74 1.8-5.16 3.12t-6.96 1.32zm-8.28-20.52h14.4q.18-1.26.18-2.58-.06-3.9-1.65-6.15-1.59-2.25-5.01-2.25-3.48 0-5.55 2.52t-2.37 8.46zM267.66 47q0-5.64 5.64-8.31 5.64-2.67 14.28-2.85v-1.68q0-2.82-.6-4.44-.6-1.62-2.07-2.37-1.47-.75-4.17-.75-3.06 0-5.49.87t-4.83 2.13l-1.5-3.12q.78-.66 2.88-1.74 2.1-1.08 4.86-1.92 2.76-.84 5.52-.84 4.26 0 6.75 1.17t3.57 3.75q1.08 2.58 1.08 6.9v19.26h3.54v2.64q-1.2.3-3.03.6-1.83.3-3.21.3-1.68 0-2.28-.51-.6-.51-.6-2.25v-1.98q-1.8 1.8-4.41 3.3-2.61 1.5-5.91 1.5-4.32 0-7.17-2.49-2.85-2.49-2.85-7.17zm12.6 5.58q1.56 0 3.6-.96t3.72-2.28V39.02q-6.54 0-9.87 2.01-3.33 2.01-3.33 5.25t1.59 4.77q1.59 1.53 4.29 1.53zm31.32 4.02q-3.42 0-5.1-1.56-1.68-1.56-1.68-5.34V26.66h-4.32v-2.7q.3-.06 1.68-.42t1.86-.66q.96-.54 1.5-2.16.48-1.14 1.14-3.66.66-2.52.78-3h3.54l.12 8.64h10.02v3.96H311.1v18.42q0 3.42.21 4.8t.9 1.8q.69.42 2.37.42 1.62 0 3.57-.42 1.95-.42 3.03-.9l.9 2.7q-1.44 1.08-4.65 2.1-3.21 1.02-5.85 1.02zm17.4-4.02V11.24l-5.04-.66V8l9.78-1.14h.12l1.32.9v13.92l-.24 5.1q1.92-1.74 5.28-3.3 3.36-1.56 6.78-1.56 3.78 0 5.88 1.44t2.94 4.41q.84 2.97.84 8.01v16.74l4.2.54V56H346.5v-2.94l3.9-.54v-16.8q0-3.54-.48-5.55t-1.8-3q-1.32-.99-3.96-.99-2.16 0-4.62 1.08t-4.32 2.52v22.74l4.14.54V56h-13.98v-2.94l3.6-.48zm51.06 4.08q-7.26 0-11.07-4.74-3.81-4.74-3.81-12.66 0-5.22 1.98-9.18t5.55-6.12q3.57-2.16 8.13-2.16 5.58 0 8.67 3.09t3.27 8.85q0 3.66-.42 5.58H371.7q.12 5.94 2.76 9.57 2.64 3.63 7.5 3.63 2.4 0 5.01-.87t4.05-2.07l1.14 2.64q-1.74 1.8-5.16 3.12t-6.96 1.32zm-8.28-20.52h14.4q.18-1.26.18-2.58-.06-3.9-1.65-6.15-1.59-2.25-5.01-2.25-3.48 0-5.55 2.52t-2.37 8.46zM398.04 56v-2.94l4.5-.36V27.32l-4.32-1.08V23l8.28-1.08h.12l1.32 1.08v1.08l-.18 4.68h.18q.6-1.02 2.16-2.64t4.02-2.97q2.46-1.35 5.34-1.35 1.2 0 1.98.3v6.72q-.42-.3-1.35-.57-.93-.27-2.07-.27-4.98 0-9.24 3.06v21.6l7.62.48V56h-18.36zm41.64 0v-2.94l4.98-.6V15.14l-4.68-.78v-2.94h7.86q1.68 0 4.56-.24 3-.24 4.68-.24 8.82 0 12.57 2.85t3.75 8.97q0 4.26-2.37 7.8t-6.51 4.8q1.92 1.02 3.57 3.51 1.65 2.49 4.05 6.93 1.86 3.36 2.85 4.92t1.89 1.74l2.34.6V56h-8.28q-.96 0-2.16-2.07-1.2-2.07-3.18-6.39-2.16-4.74-3.75-7.53-1.59-2.79-3.15-3.57-6.42 0-7.62-.06v16.08l5.94.6V56h-17.34zm18.54-22.8q3.84 0 6.06-2.52 2.22-2.52 2.22-7.5 0-4.38-2.25-6.69-2.25-2.31-7.77-2.31-1.92 0-3.84.24-1.2.12-1.56.12v18.6q.9.06 3.72.06h3.42zm38.4 23.46q-7.26 0-11.07-4.74-3.81-4.74-3.81-12.66 0-5.22 1.98-9.18t5.55-6.12q3.57-2.16 8.13-2.16 5.58 0 8.67 3.09t3.27 8.85q0 3.66-.42 5.58h-20.64q.12 5.94 2.76 9.57 2.64 3.63 7.5 3.63 2.4 0 5.01-.87t4.05-2.07l1.14 2.64q-1.74 1.8-5.16 3.12t-6.96 1.32zm-8.28-20.52h14.4q.18-1.26.18-2.58-.06-3.9-1.65-6.15-1.59-2.25-5.01-2.25-3.48 0-5.55 2.52t-2.37 8.46zm40.5 36.06q-7.68 0-11.13-2.43-3.45-2.43-3.45-6.69 0-2.64 1.65-4.86t3.93-3.36q-2.76-1.56-2.76-5.04 0-2.16 1.26-4.08t3.3-2.94q-3-1.32-4.59-3.78-1.59-2.46-1.59-5.82 0-3.48 1.95-6.06 1.95-2.58 5.16-3.96t6.81-1.38q6.06 0 9.48 2.52.9-.9 2.76-1.74 1.86-.84 3.96-.84h2.04v5.28h-6.6q1.44 2.22 1.44 5.16 0 3.54-1.77 6.27-1.77 2.73-4.92 4.23-3.15 1.5-7.11 1.5-2.58 0-4.62-.54-.84.84-1.38 1.86-.54 1.02-.54 1.98 0 2.16 1.44 2.97t5.16.81h6.78q5.82 0 8.64 2.22 2.82 2.22 2.82 6.3 0 3.42-2.46 6.27-2.46 2.85-6.63 4.5t-9.03 1.65zm.42-31.32q6.84 0 6.84-8.1 0-4.02-1.77-5.91-1.77-1.89-5.31-1.89-3.3 0-5.22 1.83t-1.92 5.85q0 3.78 1.83 6t5.55 2.22zm.12 27.84q2.94 0 5.55-.87t4.23-2.58q1.62-1.71 1.62-3.99 0-2.7-1.44-3.93t-5.58-1.23h-7.08q-2.4 0-3.78-.3-2.46 2.7-2.46 6.06 0 3.36 2.04 5.1 2.04 1.74 6.9 1.74zm48.84-12.18q-1.68 0-2.49-.66-.81-.66-.81-2.16v-2.04q-1.98 1.98-4.95 3.48t-5.97 1.5q-5.58 0-7.92-3t-2.34-9.9v-17.4l-3.36-.96v-2.64l8.4-.78h.06l1.14.72v20.58q0 3.48.51 5.43.51 1.95 1.8 2.88 1.29.93 3.75.93 2.4 0 4.5-1.02t3.66-2.4V26.36l-4.32-.96v-2.64l9.12-.78h.06l1.38.72v30.24h3.6l-.06 2.7q-1.68.42-2.91.66-1.23.24-2.85.24zm15-4.02V11.24l-4.86-.66V8l9.66-1.14h.12l1.32.9v44.82l5.1.48V56h-16.2v-2.94l4.86-.54zm15.6-5.52q0-5.64 5.64-8.31 5.64-2.67 14.28-2.85v-1.68q0-2.82-.6-4.44-.6-1.62-2.07-2.37-1.47-.75-4.17-.75-3.06 0-5.49.87t-4.83 2.13l-1.5-3.12q.78-.66 2.88-1.74 2.1-1.08 4.86-1.92 2.76-.84 5.52-.84 4.26 0 6.75 1.17t3.57 3.75q1.08 2.58 1.08 6.9v19.26h3.54v2.64q-1.2.3-3.03.6-1.83.3-3.21.3-1.68 0-2.28-.51-.6-.51-.6-2.25v-1.98q-1.8 1.8-4.41 3.3-2.61 1.5-5.91 1.5-4.32 0-7.17-2.49-2.85-2.49-2.85-7.17zm12.6 5.58q1.56 0 3.6-.96t3.72-2.28V39.02q-6.54 0-9.87 2.01-3.33 2.01-3.33 5.25t1.59 4.77q1.59 1.53 4.29 1.53zM642.6 56v-2.94l4.5-.36V27.32l-4.32-1.08V23l8.28-1.08h.12L652.5 23v1.08l-.18 4.68h.18q.6-1.02 2.16-2.64t4.02-2.97q2.46-1.35 5.34-1.35 1.2 0 1.98.3v6.72q-.42-.3-1.35-.57-.93-.27-2.07-.27-4.98 0-9.24 3.06v21.6l7.62.48V56H642.6z"/></svg>