<svg viewBox="0 0 708 80" xmlns="http://www.w3.org/2000/svg"><path d="M49.2 46.18q2.4-6 5.64-13.38 4.32-10.26 5.58-13.38h15.66l-.36 2.94-5.22.72-1.14 37.32 5.16.84-.18 2.76H55.38l.24-2.82 5.52-.72 1.5-25.68.66-11.88-4.32 10.44-13.32 30.72-4.2.48-4.38-30.48-1.74-11.16-2.52 11.46-6.24 26.04 6.36.84L32.7 64H15.78l.3-2.76 4.86-.84 9.6-37.32-5.64-.72.42-2.94h17.46l3.66 26.7.72 5.46 2.04-5.4zM103.56 58q-1.56 2.46-5.07 4.62-3.51 2.16-8.13 2.16-4.32 0-7.11-1.86t-4.05-4.86q-1.26-3-1.26-6.54 0-6 2.43-10.95 2.43-4.95 6.63-7.83 4.2-2.88 9.36-2.88 4.62 0 6.87 2.13t2.25 5.55q0 4.32-3.12 7.2t-7.5 4.29q-4.38 1.41-8.28 1.53-.12 4.32 1.41 6.96 1.53 2.64 4.65 2.64 5.16 0 9.36-4.8l1.56 2.64zm-9-24.42q-3.54 0-5.58 4.26t-2.4 9.48q2.34-.12 4.95-1.26 2.61-1.14 4.38-3.21 1.77-2.07 1.77-4.77 0-2.16-.81-3.33t-2.31-1.17zm26.16 4.98q1.14-3.42 3.93-6.03 2.79-2.61 6.27-2.61 1.2 0 2.04.54l-1.74 8.64q-.36-.3-1.17-.57-.81-.27-1.95-.27-2.16 0-4.14.93-1.98.93-3.06 2.67L117.96 64h-7.8l3.78-28.5-3.06-1.68.42-2.4 8.58-1.44 1.38.84-.3 5.46-.24 2.28zm24.78 0q1.14-3.42 3.93-6.03 2.79-2.61 6.27-2.61 1.2 0 2.04.54L156 39.1q-.36-.3-1.17-.57-.81-.27-1.95-.27-2.16 0-4.14.93-1.98.93-3.06 2.67L142.74 64h-7.8l3.78-28.5-3.06-1.68.42-2.4 8.58-1.44 1.38.84-.3 5.46-.24 2.28zM168.78 58q-.06.3-.06.72 0 1.44 1.02 1.44.54 0 1.2-.36.66-.36 1.68-1.2l.78 1.86q-1.02 1.38-3.03 2.76t-4.89 1.38q-2.34 0-3.66-.93-1.32-.93-1.32-2.55l.06-.6q.36-3.12 2.46-18.12l.96-6.96-3.54-1.68.42-2.34 10.32-1.44 1.44.66L168.78 58zm.66-33.78q-1.62 0-2.79-1.23t-1.17-2.85q0-2.22 1.47-3.72t3.75-1.5q1.86 0 2.94 1.17 1.08 1.17 1.08 2.79 0 2.28-1.38 3.81-1.38 1.53-3.9 1.53zm10.74 12.12q-.24-.96-.54-1.35-.3-.39-.78-.39-.6 0-1.05.27-.45.27-.63.39l-.84-2.04q.66-.9 2.64-2.1 1.98-1.2 4.26-1.2 2.4 0 3.51.99 1.11.99 1.47 3.03l2.34 18.42.66 6 2.46-7.26 7.26-20.94h7.2l2.76 22.92.48 5.1 2.22-3.36q2.46-3.72 4.02-7.71 1.56-3.99 1.62-7.77 0-1.08-.48-3-.48-1.8-.48-2.64 0-1.68 1.08-2.73t2.88-1.05q2.34 0 3.42 1.71t1.08 4.47q.06 3.9-3.69 10.59-3.75 6.69-7.77 11.67l-4.38 5.88-5.76.3-1.56-10.62-1.02-9.9-.36-4.26-1.2 4.32-3.9 9-4.62 11.1-6.6.42-2.16-10.68-3.54-17.58zM254.82 58q-1.56 2.46-5.07 4.62-3.51 2.16-8.13 2.16-4.32 0-7.11-1.86t-4.05-4.86q-1.26-3-1.26-6.54 0-6 2.43-10.95 2.43-4.95 6.63-7.83 4.2-2.88 9.36-2.88 4.62 0 6.87 2.13t2.25 5.55q0 4.32-3.12 7.2t-7.5 4.29q-4.38 1.41-8.28 1.53-.12 4.32 1.41 6.96 1.53 2.64 4.65 2.64 5.16 0 9.36-4.8l1.56 2.64zm-9-24.42q-3.54 0-5.58 4.26t-2.4 9.48q2.34-.12 4.95-1.26 2.61-1.14 4.38-3.21 1.77-2.07 1.77-4.77 0-2.16-.81-3.33t-2.31-1.17zm41.16 24.3q-.06.24-.06.72 0 1.56 1.2 1.56.96 0 2.7-1.44l.84 1.86q-.78 1.2-2.79 2.61t-4.65 1.41q-2.04 0-3.24-.9-1.2-.9-1.26-2.76l.12-1.02q-1.68 1.98-4.08 3.33-2.4 1.35-5.28 1.35-5.04 0-7.53-3.45t-2.49-9.03q0-5.52 2.31-10.62t6.75-8.34q4.44-3.24 10.56-3.24 1.56 0 3.39.36t3.21.84l4.14-1.2-3.84 27.96zm-4.62-23.7q-1.14-.54-2.94-.54-3.6 0-6 2.73t-3.51 6.9q-1.11 4.17-1.11 8.43 0 3.96 1.2 6.15 1.2 2.19 3.54 2.19 1.5 0 3.03-1.02 1.53-1.02 2.73-2.4l3.06-22.44zm23.34 18.84q-.42 3.48-.42 4.2 0 1.38.54 1.95.54.57 1.86.57 1.2 0 2.73-.57t2.55-1.41l.66 2.22q-1.56 1.74-4.44 3.18-2.88 1.44-6.48 1.44-2.52 0-3.99-1.29-1.47-1.29-1.47-4.11 0-1.2.6-5.64l2.52-18.6h-3.6l.66-2.88 3.6-1.26q1.8-1.68 4.26-8.28h4.5l-1.02 8.16h7.2l-.6 4.26h-7.2l-2.46 18.06zm23.1-15.42q2.22-3.48 5.31-5.58 3.09-2.1 6.57-2.1 3.54 0 5.49 2.04 1.95 2.04 1.95 6.78 0 1.86-.69 5.88t-.75 4.56l-.36 1.92q-.36 1.98-.69 4.08-.33 2.1-.33 3.42 0 1.62 1.02 1.62.54 0 1.14-.33.6-.33 1.68-1.17l.78 1.86q-.78 1.2-2.88 2.61-2.1 1.41-5.04 1.41t-4.02-1.17q-1.08-1.17-1.08-3.33.06-1.8 1.14-7.14l.36-2.04q.12-.54.51-2.88t.63-4.47q.24-2.13.24-3.69 0-2.76-.66-3.78t-2.22-1.02q-2.04 0-4.53 2.31T328.14 43l-2.64 21h-7.98l5.46-43.74-3.6-1.2.42-2.22 10.26-1.2 1.44.78-2.7 21.18zM380.1 58q-1.56 2.46-5.07 4.62-3.51 2.16-8.13 2.16-4.32 0-7.11-1.86t-4.05-4.86q-1.26-3-1.26-6.54 0-6 2.43-10.95 2.43-4.95 6.63-7.83 4.2-2.88 9.36-2.88 4.62 0 6.87 2.13t2.25 5.55q0 4.32-3.12 7.2t-7.5 4.29q-4.38 1.41-8.28 1.53-.12 4.32 1.41 6.96 1.53 2.64 4.65 2.64 5.16 0 9.36-4.8L380.1 58zm-9-24.42q-3.54 0-5.58 4.26t-2.4 9.48q2.34-.12 4.95-1.26 2.61-1.14 4.38-3.21 1.77-2.07 1.77-4.77 0-2.16-.81-3.33t-2.31-1.17zm26.16 4.98q1.14-3.42 3.93-6.03 2.79-2.61 6.27-2.61 1.2 0 2.04.54l-1.74 8.64q-.36-.3-1.17-.57-.81-.27-1.95-.27-2.16 0-4.14.93-1.98.93-3.06 2.67L394.5 64h-7.8l3.78-28.5-3.06-1.68.42-2.4 8.58-1.44 1.38.84-.3 5.46-.24 2.28zm39.9-19.14q1.38 0 4.26-.24 3.48-.24 5.52-.24 13.62 0 13.62 10.14 0 8.76-10.38 11.34 3 .06 5.31 1.29 2.31 1.23 3.57 3.27 1.26 2.04 1.26 4.5.06 7.86-5.34 11.46-5.4 3.6-15.48 3.6-1.92 0-4.62-.3-3-.24-4.2-.24h-7.98l.24-2.76 4.2-.84L432 23.08l-4.14-.72.3-2.94h9zM438 39.1q1.02.06 1.77.03t1.29-.03h1.62q4.32 0 7.14-2.37 2.82-2.37 2.82-7.17 0-7.2-7.62-7.2-3.18 0-4.86.36L438 39.1zm-2.82 21.36q1.02.3 2.73.48t2.79.18q5.22 0 8.04-2.49 2.82-2.49 2.82-7.77 0-4.14-2.13-6.12-2.13-1.98-6.81-1.98-3.18 0-5.1.12l-2.34 17.58zM483 29.86q6.24 0 9.54 3.63 3.3 3.63 3.3 10.41 0 5.58-2.28 10.38-2.28 4.8-6.42 7.65-4.14 2.85-9.48 2.85-6.24 0-9.51-3.69-3.27-3.69-3.27-10.53 0-5.64 2.25-10.38 2.25-4.74 6.39-7.53t9.48-2.79zm-1.02 3.78q-2.76 0-4.68 2.49t-2.85 6.33q-.93 3.84-.93 7.86 0 5.7 1.29 8.34 1.29 2.64 4.05 2.64 2.7 0 4.56-2.52 1.86-2.52 2.76-6.42.9-3.9.9-7.98 0-5.7-1.23-8.22-1.23-2.52-3.87-2.52zM509.28 58q-.06.24-.06.66 0 1.5 1.08 1.5.54 0 1.17-.3.63-.3 1.71-1.26l.78 1.86q-.96 1.38-2.82 2.76-1.86 1.38-4.8 1.38-2.28 0-3.72-.93-1.44-.93-1.5-2.91 0-.24.24-2.16l5.22-38.34-3.78-1.2.54-2.22 10.2-1.2 1.38.78L509.28 58zm36.12-.06q-.06.24-.06.72 0 1.5 1.02 1.5t2.7-1.38l.84 1.86q-3.36 3.96-7.44 3.96-2.1 0-3.18-1.02t-1.26-3.12v-.9q-1.5 2.1-4.02 3.57-2.52 1.47-5.76 1.47-5.04 0-7.5-3.45t-2.46-9.03q0-5.58 2.22-10.68t6.63-8.31q4.41-3.21 10.65-3.21 1.74 0 3.66.48l1.5-10.14-4.32-1.2.54-2.22 10.8-1.2 1.5.78-6.06 41.52zm-4.56-23.46q-1.5-.84-3.78-.84-3.66 0-6 2.79t-3.42 6.93q-1.08 4.14-1.08 8.4 0 3.96 1.23 6.12t3.51 2.16q1.86 0 3.54-1.17t2.76-2.79l3.24-21.6zm17.22-15.06h17.46l-.3 2.94-4.86.72-4.86 37.32 4.98.84-.18 2.76h-17.94l.36-2.76 4.38-.84 4.86-37.32-4.2-.72.3-2.94zm28.08 33.6q-.42 3.48-.42 4.2 0 1.38.54 1.95.54.57 1.86.57 1.2 0 2.73-.57t2.55-1.41l.66 2.22q-1.56 1.74-4.44 3.18-2.88 1.44-6.48 1.44-2.52 0-3.99-1.29-1.47-1.29-1.47-4.11 0-1.2.6-5.64l2.52-18.6h-3.6l.66-2.88 3.6-1.26q1.8-1.68 4.26-8.28h4.5l-1.02 8.16h7.2l-.6 4.26h-7.2l-2.46 18.06zm37.8 4.86q-.06.24-.06.72 0 1.56 1.2 1.56.96 0 2.7-1.44l.84 1.86q-.78 1.2-2.79 2.61t-4.65 1.41q-2.04 0-3.24-.9-1.2-.9-1.26-2.76l.12-1.02q-1.68 1.98-4.08 3.33-2.4 1.35-5.28 1.35-5.04 0-7.53-3.45t-2.49-9.03q0-5.52 2.31-10.62t6.75-8.34q4.44-3.24 10.56-3.24 1.56 0 3.39.36t3.21.84l4.14-1.2-3.84 27.96zm-4.62-23.7q-1.14-.54-2.94-.54-3.6 0-6 2.73t-3.51 6.9q-1.11 4.17-1.11 8.43 0 3.96 1.2 6.15 1.2 2.19 3.54 2.19 1.5 0 3.03-1.02 1.53-1.02 2.73-2.4l3.06-22.44zM641.88 58q-.06.24-.06.66 0 1.5 1.08 1.5.54 0 1.17-.3.63-.3 1.71-1.26l.78 1.86q-.96 1.38-2.82 2.76-1.86 1.38-4.8 1.38-2.28 0-3.72-.93-1.44-.93-1.5-2.91 0-.24.24-2.16l5.22-38.34-3.78-1.2.54-2.22 10.2-1.2 1.38.78L641.88 58zm19.08 0q-.06.3-.06.72 0 1.44 1.02 1.44.54 0 1.2-.36.66-.36 1.68-1.2l.78 1.86q-1.02 1.38-3.03 2.76t-4.89 1.38q-2.34 0-3.66-.93-1.32-.93-1.32-2.55l.06-.6q.36-3.12 2.46-18.12l.96-6.96-3.54-1.68.42-2.34 10.32-1.44 1.44.66L660.96 58zm.66-33.78q-1.62 0-2.79-1.23t-1.17-2.85q0-2.22 1.47-3.72t3.75-1.5q1.86 0 2.94 1.17 1.08 1.17 1.08 2.79 0 2.28-1.38 3.81-1.38 1.53-3.9 1.53zm30.3 14.64q-1.68-2.1-2.97-3.39-1.29-1.29-2.25-1.29-2.22 0-4.11 2.04-1.89 2.04-3.06 5.7-1.17 3.66-1.17 8.22 0 4.98 1.44 7.29 1.44 2.31 4.38 2.31 2.52 0 4.29-.96t3.45-2.7l1.56 2.64q-1.5 2.22-4.71 4.05-3.21 1.83-7.59 1.83-5.16 0-8.1-3.63-2.94-3.63-2.94-10.29 0-5.04 2.1-9.81 2.1-4.77 6.24-7.86 4.14-3.09 9.96-3.09 1.86 0 3.87.33t3.27.93l-2.04 7.8-1.62-.12z"/></svg>