<svg viewBox="0 0 300 80" xmlns="http://www.w3.org/2000/svg"><path d="M48.16 60.53q-4.01 0-6.29-1.32-2.47-1.38-2.67-3.9l-.26-2.75q2.69-.65 4.54-3.34.49-.76.49-1.32 0-.76-.76-.76h-.08q-.03.03-.12.03-2.05 4.3-6.65 4.3-2.35 0-4-1.02-1.66-1.03-3.03-3.55h-.18q-.79 0-.79.68 0 .47.35 1.05 1.17 1.97 2.93 3.08 1.38.94 2.9 1.11l-.23 5.54q-1.76 1.14-3.71 1.65-1.95.52-5.54.52t-6.4-1.41q-3.45-1.73-3.45-4.8 0-3.84 1.52-18.96.82-7.88 1.32-11.01 3.01-2.7 8.9-2.7 4.28 0 7.09 1.58l1.61 5.39-1.02 4.31q-.12.44-.12.85 0 1.02 1.17 1.05l2.79-11.57q1.2-.64 3.13-1.13 1.94-.48 4.22-.48 4.28 0 6.34 1.45 2.07 1.45 2.45 4.88.09.64.26 2.14 2.67 22.91 2.67 26.98-3.25 3.43-9.38 3.43zm25.93-16.85v5.13q.21.2.68.2.46 0 .67-.32.2-.32.2-1.11v-4.19q0-2.81-.23-3.74-.23-.92-.88-.92-.41 0-.7.29.26 2.9.26 4.66zM63.13 56.66q-4.8-4.63-4.8-12.55 0-7.93 4.53-12.51 4.52-4.59 11.88-4.59 7.35 0 11.89 4.78 4.51 4.77 4.51 12.43T86.79 56.4q-4.35 4.51-11.82 4.51-7.47 0-11.84-4.25zm46.24-17.43q-.3-.29-.71-.29-.64 0-.88.92-.23.92-.23 3.73v2.99q0 .79.2 1.12.21.32.68.32.47 0 .67-.21v-3.92q0-2.87.27-4.66zm-2.11-17.32q1.55-1.81 3.42-2.74 1.88-.92 4.78-.92 3.51 0 5.71 1.96 2.26 2.11 2.26 5.69v19.33q0 4.37 2.11 5.69.03.14.03.55V52q0 4.16-2.52 6.48-2.23 2.05-5.51 2.05-2.29 0-3.96-.97-1.96-1.11-2.75-3.05-1 0-1 .97 0 .44.34 1.01.34.57.92 1.01-1.72 1.03-4.48 1.03-3.72 0-6.96-1.72-3.23-1.71-5.14-5.17-2.2-3.95-2.2-9.58 0-7.5 4.21-11.77 4.2-4.28 10.74-4.28 3.86 0 6.73 1.46.33-.32.33-.67 0-.88-2.08-1.5-2.08-.61-4.19-.61 0-2.99-.79-4.78zm49.21 17.85v5.74q0 2.11.47 3.4t1.64 2.02q.03.14.03.55V52q0 4.16-2.52 6.48-2.22 2.05-5.5 2.05-2.23 0-4.08-1.06-1.84-1.05-2.63-3.04-1 0-1 .96 0 .82 1.03 1.85-1.91 1.29-5.75 1.29-5.42 0-8.65-2.95-3.24-2.94-3.24-8.23 0-5.29 3.43-8.19 3.13-2.61 8.11-2.61 1.7 0 3.28.24 1.06.2 1.15.23.08-.29.08-.49 0-.77-1.28-1.03-1.29-.26-3.37-.26-4.43 0-7.56 1.78-1.44-2.43-1.44-6.15 0-2.11.53-3.13 2.11-.97 5.36-1.72 3.25-.74 6.86-.74 7.44 0 11.25 3.25 3.8 3.25 3.8 9.23zm-15.2 7.17q-1.23 0-1.23 1.12 0 1.05 1.43 1.05 1 0 1.47-.48.47-.49.47-1.69h-2.14zm33.11 2.05l-1.41.62q0 1.96.76 4.19.65 2.11 1.79 3.75-2.9 2.99-8.06 2.99-2.96 0-5.13-1.56-2.52-1.75-2.52-4.65V20.13q1.41-.82 3.39-1.35 1.98-.53 4-.53 3.37 0 5.56 1.32 2.49 1.55 2.49 4.45v3.11q0 3.9-1.37 7.62-.27.38-.94 1.09-.67.72-1.07 1.31-.4.58-.4 1.01 0 .42.71.78 2.28-2.14 3.59-4.66 1.3-2.52 2.38-6.68.39-.06.88-.15.5-.09 1.66-.28 1.16-.19 1.62-.19 4.52 0 7.04 2.07 2.52 2.06 2.52 5.67 0 3.6-2.29 6.18-2.11 2.31-5.48 3.48 2.7 1.59 6.8 2.26 1.58 2.87 1.58 6.11t-2.05 5.4q-2.29 2.38-6.31 2.38-4.03 0-6.62-3.09-2.6-3.09-3.12-8.46z"/></svg>