<svg viewBox="0 0 300 80" xmlns="http://www.w3.org/2000/svg"><path d="M50.75 21.6q-2.17-2.17-5.68-2.17-4.98 0-8.79 2.78-4.05 2.91-4.05 7.04 0 3.22 3.02 6.09-1.11 1.52-3.48 2.58-.65.29-1.32.29-.68 0-1.54-.41-.87-.41-1.54-1.17-1.52-1.73-1.52-4.13t.85-4.46q.85-2.05 2.31-3.82 1.47-1.77 3.41-3.21 1.95-1.43 4.15-2.49 4.6-2.14 8.98-2.14 4.38 0 7.31 1.59 6.8 3.66 6.8 16.52 0 3.9-.62 8.67 4.98-5.65 19.31-17.43 1.96-1.58 3.66-3.05 1.58-4.01 2.61-5.27 1.67-2.08 2.87-2.08 1.2 0 1.64.6.44.6.44 1.14 0 .55-.31 1.13-.31.59-.78 1.26-.96 1.35-2.1 2.61-2.91 15.73-2.91 31.73 0 5.71-4.71 7.79-2.14.94-4.63.94-3.75 0-6.45-1.79-1.05-.7-1.64-1.61 3.2-2.67 9.35-17.99 2.46-6.15 4.54-12.54l-5.77 5.77q-10.99 10.99-15.91 17.7-.44 3.46-2.46 7.29-1.26 2.32-2.07 3.08-.8.76-1.21.76-2.76 0-5.83-1.64-3.08-1.64-3.08-3.08 0-1.93 3.63-6.12 1-1.17 2.03-2.2 4.51-9.87 4.51-18.75 0-1.05-.16-3.13t-1.25-4.37q-4.1 13.48-11.75 24.97-5.39 8.05-11.04 11.39Q26.64 62 23.71 62t-4.78-.91q-3.83-1.9-3.83-6.41 0-2.93 1.49-5.37.82-1.31 1.85-1.93 3.95 2.81 7.96 2.81 5.92 0 11.75-6.47 5.13-5.71 10.14-16.61 1.35-2.93 2.46-5.51zm47.96 40.58l-.15-.03-.58.03q-4.63 0-7.06-2.29-2.29-2.14-2.29-5.8 0-5.04 4.01-9.64 3.9-4.45 9.47-6.24-.18-1.32.96-2.17.82-.61 2.71-.61 1.89 0 3.65.35t3.55 1.55q3.86 2.55 3.86 6.86 0 4.66-2.31 8.85 5.04-1.09 8.82-6.74 1.32-.09 1.32 1.08 0 .47-.3 1.14-3.98 9.47-15.93 12.54-4.28 1.12-9.73 1.12zm-.65-12.87q0 3.4 2.85 3.4 2.4 0 4.83-2.9 2.55-3.02 2.55-6.12 0-3.16-3.05-4.19-5.24 1.46-6.71 6.56-.47 1.56-.47 3.25zm44.95-28.03q3.25 0 3.25 5.48 0 7.23-8.79 15.29-3.34 3.08-7.03 5.3.38 4.51 3.31 5.16.94.2 2.21.2t2.75-.33q1.48-.34 2.95-1.1 3.25-1.67 5.42-4.98 1.32-.09 1.32 1.08 0 .47-.63 1.96-.63 1.5-2.33 3.89-1.7 2.38-4.07 4.32-5.45 4.45-12.1 4.45-7.68 0-9.29-6.56-.53-2.05-.53-4.59 0-2.53.76-5.11.76-2.58 2.05-5.11 1.29-2.54 3.01-4.97 1.71-2.43 3.63-4.57t3.91-3.94q1.99-1.8 3.87-3.12 4.01-2.75 6.33-2.75zm-12.57 22.53q4.92-3.08 8.29-7.39 3.43-4.36 3.43-7.7 0-1.67-.71-2.4-.23-.27-.82-.27-.58 0-1.64.75-1.05.75-2.17 2.04-1.11 1.29-2.18 3.03-1.07 1.74-1.95 3.7-1.93 4.43-2.25 8.24zm36.3-22.53q3.25 0 3.25 5.48 0 7.23-8.79 15.29-3.34 3.08-7.03 5.3.38 4.51 3.31 5.16.94.2 2.21.2t2.75-.33q1.48-.34 2.95-1.1 3.25-1.67 5.42-4.98 1.32-.09 1.32 1.08 0 .47-.63 1.96-.63 1.5-2.33 3.89-1.7 2.38-4.07 4.32Q159.65 62 153 62q-7.68 0-9.29-6.56-.53-2.05-.53-4.59 0-2.53.76-5.11.77-2.58 2.05-5.11 1.29-2.54 3.01-4.97 1.71-2.43 3.63-4.57t3.91-3.94q1.99-1.8 3.87-3.12 4.01-2.75 6.33-2.75zm-12.57 22.53q4.92-3.08 8.29-7.39 3.43-4.36 3.43-7.7 0-1.67-.71-2.4-.23-.27-.82-.27-.58 0-1.64.75-1.05.75-2.17 2.04-1.11 1.29-2.18 3.03-1.07 1.74-1.95 3.7-1.93 4.43-2.25 8.24zm24.02 6.68q1.7 3.04 7.71 3.04 3.75 0 7.07-1.83 3.33-1.83 5.7-5.4 1.32-.09 1.32 1.08 0 1.32-1.57 3.79-1.57 2.48-2.93 4-1.36 1.53-3.05 2.83-1.68 1.3-3.61 2.24-4.19 2.05-8.82 2.05-9.32 0-12.1-5.15-1-1.88-1-4.3 0-2.41.84-4.43.83-2.03 2.3-3.86 1.46-1.83 3.48-3.38 2.02-1.55 4.4-2.67 5.04-2.43 10.28-2.43 3.78 0 5.19 2.38.49.82.49 2.18 0 1.36-.68 2.68-.69 1.32-1.86 2.39-1.18 1.07-2.73 1.87-1.55.81-3.31 1.39-3.1 1.06-7.12 1.53zm-.41-2.73q3.75-.44 6.45-2.08 2.84-1.76 2.84-4.11 0-2.36-2.17-2.36-2.81 0-4.89 2.69-1.99 2.58-2.23 5.86z"/></svg>