<svg viewBox="0 0 363 80" xmlns="http://www.w3.org/2000/svg"><path d="M50.65 63V45.3l2.11-3.98V63h-2.11zm4.22 0V37.22l2.1-3.99V63h-2.1zm4.21 0V29.25l2.11-4.01V63h-2.11zm1.56-48.52L44.93 44.31l-1.2-2.2 14.53-27.63h2.38zm-4.78 0L42.5 39.71l-1.23-2.23 12.19-23h2.4zM28.38 63V41.55l2.11 3.99V63h-2.11zm-4.22 0V33.53l2.11 3.98V63h-2.11zm-4.22 0V25.5l2.11 4.01V63h-2.11zM18.1 14.48l18.89 35.86h-2.37L17.83 18.5V63h-2.11V14.48h2.38zm4.8 0l18.87 35.86h-2.4L20.5 14.48h2.4zM63.3 63V18.5L46.52 50.34h-2.41L25.28 14.48h2.37l17.69 33.64 17.67-33.64h2.4V63H63.3zm23.81-27.06q-2.48 2.48-2.48 5.97 0 3.48 2.48 5.96 2.47 2.47 5.96 2.47 3.48 0 5.96-2.47 2.48-2.48 2.48-5.96 0-3.49-2.48-5.97-2.48-2.47-5.96-2.47-3.49 0-5.96 2.47zm-1.5 13.42q-3.09-3.09-3.09-7.45 0-4.37 3.09-7.46t7.46-3.09q4.36 0 7.45 3.09 3.1 3.09 3.1 7.46 0 4.36-3.1 7.45-3.09 3.09-7.45 3.09-4.37 0-7.46-3.09zm-1.49-16.39q-3.71 3.72-3.71 8.94 0 5.21 3.71 8.93 3.7 3.72 8.95 3.72 5.24 0 8.95-3.72 3.7-3.72 3.7-8.93 0-5.22-3.7-8.94-3.71-3.72-8.95-3.72-5.25 0-8.95 3.72zm-3.84 16.35q-1.98-3.4-1.98-7.41 0-4.02 1.98-7.42 1.98-3.39 5.38-5.37 3.39-1.98 7.41-1.98 4.01 0 7.41 1.98 3.4 1.98 5.38 5.37 1.97 3.4 1.97 7.42 0 4.01-1.97 7.41-1.98 3.4-5.38 5.37-3.4 1.98-7.41 1.98-4.02 0-7.41-1.98-3.4-1.97-5.38-5.37zm-2.75-13.96q-1.34 3.12-1.34 6.55 0 3.42 1.34 6.54 1.33 3.12 3.6 5.39 2.27 2.28 5.39 3.61 3.12 1.33 6.55 1.33 3.43 0 6.55-1.33 3.12-1.33 5.39-3.61 2.27-2.27 3.6-5.39 1.33-3.12 1.33-6.54 0-3.43-1.33-6.55-1.33-3.12-3.6-5.39-2.27-2.27-5.39-3.61-3.12-1.33-6.55-1.33-3.43 0-6.55 1.33-3.12 1.34-5.39 3.61-2.27 2.27-3.6 5.39zm-1.94 13.93q-1.51-3.52-1.51-7.38 0-3.87 1.51-7.39 1.51-3.51 4.05-6.05 2.53-2.53 6.05-4.04 3.51-1.51 7.38-1.51t7.38 1.51q3.52 1.51 6.05 4.04 2.54 2.54 4.04 6.05 1.51 3.52 1.51 7.39 0 3.86-1.51 7.38-1.5 3.51-4.04 6.05-2.53 2.53-6.05 4.04-3.51 1.51-7.38 1.51t-7.38-1.51q-3.52-1.51-6.05-4.04-2.54-2.54-4.05-6.05zm-1.95-15.57q-1.67 3.91-1.67 8.19 0 4.27 1.67 8.18 1.67 3.92 4.5 6.74 2.83 2.83 6.74 4.5T93.07 63q4.28 0 8.19-1.67 3.91-1.67 6.74-4.5 2.82-2.82 4.49-6.74 1.67-3.91 1.67-8.18 0-4.28-1.67-8.19-1.67-3.91-4.49-6.74-2.83-2.83-6.74-4.5t-8.19-1.67q-4.28 0-8.19 1.67-3.91 1.67-6.74 4.5t-4.5 6.74zm-1.93 17.2q-1.84-4.3-1.84-9.01 0-4.72 1.84-9.01 1.85-4.29 4.95-7.4 3.11-3.11 7.4-4.95 4.29-1.85 9.01-1.85t9.01 1.85q4.29 1.84 7.39 4.95 3.11 3.11 4.96 7.4 1.84 4.29 1.84 9.01 0 4.71-1.84 9.01-1.85 4.29-4.96 7.39-3.1 3.11-7.39 4.95-4.29 1.85-9.01 1.85t-9.01-1.85q-4.29-1.84-7.4-4.95-3.1-3.1-4.95-7.39zm82.56-30.11v25.17l-2.11-3.84V20.81h2.11zm4.22 0v32.46l-2.11-3.57V20.81h2.11zM129.43 63V37.83l2.11 3.84V63h-2.11zm-4.22 0V30.25l2.11 3.86V63h-2.11zm25.16 0l-24.43-42.19h2.46L152.83 63h-2.46zm4.92 0l-24.37-42.19h2.49L157.81 63h-2.52zm4.93 0l-24.35-42.19h2.46l22.27 38.53V20.81h2.11V63h-2.49zm-14.8 0L123.1 24.45V63h-2.11V20.81h2.52L147.85 63h-2.43zm38.92-27.06q-2.47 2.48-2.47 5.97 0 3.48 2.47 5.96 2.48 2.47 5.96 2.47 3.49 0 5.97-2.47 2.47-2.48 2.47-5.96 0-3.49-2.47-5.97-2.48-2.47-5.97-2.47-3.48 0-5.96 2.47zm-1.49 13.42q-3.09-3.09-3.09-7.45 0-4.37 3.09-7.46t7.45-3.09q4.37 0 7.46 3.09t3.09 7.46q0 4.36-3.09 7.45t-7.46 3.09q-4.36 0-7.45-3.09zm-1.5-16.39q-3.7 3.72-3.7 8.94 0 5.21 3.7 8.93 3.71 3.72 8.95 3.72 5.25 0 8.95-3.72 3.71-3.72 3.71-8.93 0-5.22-3.71-8.94-3.7-3.72-8.95-3.72-5.24 0-8.95 3.72zm-3.83 16.35q-1.98-3.4-1.98-7.41 0-4.02 1.98-7.42 1.97-3.39 5.37-5.37 3.4-1.98 7.41-1.98 4.02 0 7.42 1.98 3.4 1.98 5.37 5.37 1.98 3.4 1.98 7.42 0 4.01-1.98 7.41-1.97 3.4-5.37 5.37-3.4 1.98-7.42 1.98-4.01 0-7.41-1.98-3.4-1.97-5.37-5.37zm-2.76-13.96q-1.33 3.12-1.33 6.55 0 3.42 1.33 6.54 1.34 3.12 3.61 5.39 2.27 2.28 5.39 3.61 3.12 1.33 6.54 1.33 3.43 0 6.55-1.33 3.12-1.33 5.39-3.61 2.27-2.27 3.61-5.39 1.33-3.12 1.33-6.54 0-3.43-1.33-6.55-1.34-3.12-3.61-5.39-2.27-2.27-5.39-3.61-3.12-1.33-6.55-1.33-3.42 0-6.54 1.33-3.12 1.34-5.39 3.61-2.27 2.27-3.61 5.39zm-1.93 13.93q-1.51-3.52-1.51-7.38 0-3.87 1.51-7.39 1.51-3.51 4.04-6.05 2.54-2.53 6.05-4.04 3.52-1.51 7.38-1.51 3.87 0 7.39 1.51 3.51 1.51 6.05 4.04 2.53 2.54 4.04 6.05 1.51 3.52 1.51 7.39 0 3.86-1.51 7.38-1.51 3.51-4.04 6.05-2.54 2.53-6.05 4.04-3.52 1.51-7.39 1.51-3.86 0-7.38-1.51-3.51-1.51-6.05-4.04-2.53-2.54-4.04-6.05zm-1.95-15.57q-1.67 3.91-1.67 8.19 0 4.27 1.67 8.18 1.67 3.92 4.5 6.74 2.83 2.83 6.74 4.5T190.3 63q4.28 0 8.19-1.67 3.91-1.67 6.74-4.5 2.83-2.82 4.5-6.74 1.67-3.91 1.67-8.18 0-4.28-1.67-8.19-1.67-3.91-4.5-6.74t-6.74-4.5q-3.91-1.67-8.19-1.67-4.27 0-8.18 1.67t-6.74 4.5q-2.83 2.83-4.5 6.74zm-1.93 17.2q-1.85-4.3-1.85-9.01 0-4.72 1.85-9.01 1.84-4.29 4.95-7.4 3.1-3.11 7.4-4.95 4.29-1.85 9-1.85 4.72 0 9.01 1.85 4.3 1.84 7.4 4.95 3.11 3.11 4.95 7.4 1.85 4.29 1.85 9.01 0 4.71-1.85 9.01-1.84 4.29-4.95 7.39-3.1 3.11-7.4 4.95-4.29 1.85-9.01 1.85-4.71 0-9-1.85-4.3-1.84-7.4-4.95-3.11-3.1-4.95-7.39zM225.7 63V32.5h2.1V63h-2.1zm23.2-40.08h-31.64v-2.11h31.64v2.11zm0 4.22h-31.64v-2.11h31.64v2.11zm0 4.22h-31.64v-2.11h31.64v2.11zM238.35 63V32.5h2.11V63h-2.11zm-4.22 0V32.5h2.11V63h-2.11zm-4.22 0V32.5h2.11V63h-2.11zm39.75-27.06q-2.48 2.48-2.48 5.97 0 3.48 2.48 5.96 2.47 2.47 5.96 2.47 3.48 0 5.96-2.47 2.47-2.48 2.47-5.96 0-3.49-2.47-5.97-2.48-2.47-5.96-2.47-3.49 0-5.96 2.47zm-1.5 13.42q-3.09-3.09-3.09-7.45 0-4.37 3.09-7.46t7.46-3.09q4.36 0 7.45 3.09t3.09 7.46q0 4.36-3.09 7.45t-7.45 3.09q-4.37 0-7.46-3.09zm-1.49-16.39q-3.71 3.72-3.71 8.94 0 5.21 3.71 8.93 3.7 3.72 8.95 3.72 5.24 0 8.95-3.72 3.7-3.72 3.7-8.93 0-5.22-3.7-8.94-3.71-3.72-8.95-3.72-5.25 0-8.95 3.72zm-3.84 16.35q-1.98-3.4-1.98-7.41 0-4.02 1.98-7.42 1.98-3.39 5.38-5.37 3.39-1.98 7.41-1.98 4.01 0 7.41 1.98 3.4 1.98 5.38 5.37 1.97 3.4 1.97 7.42 0 4.01-1.97 7.41-1.98 3.4-5.38 5.37-3.4 1.98-7.41 1.98-4.02 0-7.41-1.98-3.4-1.97-5.38-5.37zm-2.75-13.96q-1.34 3.12-1.34 6.55 0 3.42 1.34 6.54 1.33 3.12 3.6 5.39 2.27 2.28 5.39 3.61 3.12 1.33 6.55 1.33 3.42 0 6.55-1.33 3.12-1.33 5.39-3.61 2.27-2.27 3.6-5.39 1.33-3.12 1.33-6.54 0-3.43-1.33-6.55-1.33-3.12-3.6-5.39-2.27-2.27-5.39-3.61-3.13-1.33-6.55-1.33-3.43 0-6.55 1.33-3.12 1.34-5.39 3.61-2.27 2.27-3.6 5.39zm-1.94 13.93q-1.51-3.52-1.51-7.38 0-3.87 1.51-7.39 1.51-3.51 4.04-6.05 2.54-2.53 6.05-4.04 3.52-1.51 7.39-1.51 3.86 0 7.38 1.51t6.05 4.04q2.53 2.54 4.04 6.05 1.51 3.52 1.51 7.39 0 3.86-1.51 7.38-1.51 3.51-4.04 6.05-2.53 2.53-6.05 4.04-3.52 1.51-7.38 1.51-3.87 0-7.39-1.51-3.51-1.51-6.05-4.04-2.53-2.54-4.04-6.05zm-1.95-15.57q-1.67 3.91-1.67 8.19 0 4.27 1.67 8.18 1.67 3.92 4.5 6.74 2.83 2.83 6.74 4.5t8.19 1.67q4.27 0 8.19-1.67 3.91-1.67 6.73-4.5 2.83-2.82 4.5-6.74 1.67-3.91 1.67-8.18 0-4.28-1.67-8.19-1.67-3.91-4.5-6.74-2.82-2.83-6.73-4.5-3.92-1.67-8.19-1.67-4.28 0-8.19 1.67-3.91 1.67-6.74 4.5t-4.5 6.74zm-1.93 17.2q-1.85-4.3-1.85-9.01 0-4.72 1.85-9.01t4.95-7.4q3.11-3.11 7.4-4.95 4.29-1.85 9.01-1.85 4.71 0 9.01 1.85 4.29 1.84 7.39 4.95 3.11 3.11 4.95 7.4 1.85 4.29 1.85 9.01 0 4.71-1.85 9.01-1.84 4.29-4.95 7.39-3.1 3.11-7.39 4.95-4.3 1.85-9.01 1.85-4.72 0-9.01-1.85-4.29-1.84-7.4-4.95-3.1-3.1-4.95-7.39zm82.56-30.11v25.17l-2.11-3.84V20.81h2.11zm4.22 0v32.46l-2.11-3.57V20.81h2.11zM311.97 63V37.83l2.11 3.84V63h-2.11zm-4.21 0V30.25l2.11 3.86V63h-2.11zm25.16 0l-24.43-42.19h2.46L335.38 63h-2.46zm4.92 0l-24.37-42.19h2.49L340.36 63h-2.52zm4.93 0l-24.35-42.19h2.46l22.27 38.53V20.81h2.11V63h-2.49zm-14.8 0l-22.32-38.55V63h-2.11V20.81h2.52L330.4 63h-2.43z"/></svg>