<svg viewBox="0 0 363 80" xmlns="http://www.w3.org/2000/svg"><path d="M25.48 35.68q0 .54-2.37 4.08t-2.37 4.08q0 .54.36.54t2.04-1.44q1.68-1.44 5.79-5.1 4.11-3.66 7.77-6.84 3.66-3.18 9.63-9.48 5.97-6.3 9.57-10.2 3.6-3.9 4.14-3.9 1.8 0 3.69 3.12t1.89 4.38q0 1.26-2.4 6.48l-2.4 5.28q0 .24.15.24t14.58-10.71Q89.98 5.5 91.6 5.5q1.2 0 2.34 1.26t1.14 2.55q0 1.29-6.72 9.45t-13.47 16.2q-6.75 8.04-6.75 9.18 0 .18.3.18t1.38-.93q1.08-.93 1.8-.93 1.26 0 1.26 1.17t-2.94 3.75Q67 49.96 62.47 52.3q-4.53 2.34-7.77 2.34-3.24 0-4.47-1.41Q49 51.82 49 49.72q0-3.36 4.53-9.24 4.53-5.88 8.07-8.58.3-.3.3-.45 0-.15-.18-.15-.6 0-6.36 5.1-17.16 15.18-19.5 15.18-.84 0-1.98-1.32-1.14-1.32-1.14-2.04 0-3.06 5.82-12.3 1.92-3 1.92-3.12l-.18-.12q-.12 0-.3.18l-5.82 5.7Q20.56 51.88 17.2 51.88q-1.68 0-1.68-2.85t3.15-8.88q3.15-6.03 5.25-6.03 1.56 0 1.56 1.56zm60.36-6.06q.42 0 .78.39.36.39.36.9t-.6 1.29q-2.34 2.88-3.09 3.63t-.75.99q0 .24.39.24t3.21-1.05q2.82-1.05 3.72-1.05.9 0 1.86.75.96.75.96 1.92t-3.66 5.34q-3.66 4.17-3.66 5.43 0 .24.18.24.3 0 1.08-.39t.96-.39q.66 0 .66.48 0 1.86-2.94 3.72t-4.95 1.86q-2.01 0-3.27-1.11-1.26-1.11-1.26-2.97t1.83-4.17q1.83-2.31 3.78-3.27 1.95-.96 1.95-1.56 0-.18-.06-.24-2.64 1.08-4.32 1.08-3.3 0-3.3-1.92 0-2.22 3.84-5.82t6.3-4.32zm15.54 13.56q-2.52 0-4.59-1.14t-2.07-3.48q0-3.06 4.32-5.28t8.94-2.22q2.88 0 4.68 1.05 1.8 1.05 1.77 3.12-.03 2.07-3.12 3.72-3.09 1.65-4.11 1.65-1.02 0-1.02-.42t.39-.63q.39-.21 1.71-.81 1.32-.6 1.92-.99.6-.39.6-.63t-.54-.24q-1.98 0-6.21 1.41t-4.23 2.31q0 .54 2.4.54 5.94 0 5.94 4.74 0 2.1-2.52 3.81t-5.16 2.43q-2.64.72-4.23.72-1.59 0-3.51-1.44-1.92-1.44-1.92-2.88t3.78-2.1q1.68-.24 4.44-1.11 2.76-.87 2.76-1.65 0-.48-.42-.48zm49.26-10.68l-12.66-.24q-3.66-.06-6.06-1.98-2.4-1.92-2.4-4.86 0-4.02 5.91-8.01t14.04-6.3q8.13-2.31 14.01-2.31 11.64 0 11.64 5.94 0 1.92-4.11 7.14t-6.15 5.22q-.42 0-.81-.39-.39-.39-.39-.99t1.47-2.19q1.47-1.59 1.47-2.31 0-.54-1.38-.54-3.72 0-11.76 2.79t-8.04 4.41q0 .66 1.32.81 1.32.15 4.68.24 3.36.09 5.88.45t4.11 1.05q1.59.69 2.46 1.47.87.78 1.41 1.8.78 1.62.78 3.24 0 4.32-5.91 8.7-5.91 4.38-14.22 7.02-8.31 2.64-14.79 2.64-13.44 0-13.44-8.46 0-3.9 6.18-6.42 1.98 1.74 8.7 1.74 4.92-.3 9.06-1.41 4.14-1.11 6.48-2.46 2.34-1.35 3.66-2.58 1.32-1.23 1.5-2.07-.12-1.14-2.64-1.14zm42.33 16.68q-2.13 1.62-5.1 3.12-2.97 1.5-4.98 1.5-2.01 0-3.21-1.2-1.2-1.2-1.2-2.94 0-2.88 4.14-7.74.36-.36.36-.57 0-.21-.12-.21t-.87.27q-.75.27-4.11 2.76-3.36 2.49-6.54 5.28t-4.53 2.79q-1.35 0-1.98-1.14-.63-1.14-.63-2.58 0-4.44 6.93-13.5 6.93-9.06 14.49-16.17 7.56-7.11 9.66-7.11 1.02 0 1.95.87.93.87.93 2.34 0 1.47-3.6 6.51t-8.04 10.62q-5.58 6.96-5.58 7.56 0 .24.24.24t2.04-.99q1.8-.99 3.9-1.86 2.1-.87 2.91-1.02.81-.15 1.92-.15 1.11 0 2.22.48t1.11 1.41q0 .93-4.35 5.94-4.35 5.01-4.35 5.7 0 .69.6.69 1.26 0 4.92-2.64 1.38-.96 1.62-1.08.24-.12.54-.12.84 0 .84.84 0 .48-2.13 2.1zm11.13-8.82l2.94-.3q2.04 0 2.04 2.04 0 1.08-1.98 2.4-1.98 1.32-3.99 2.43-2.01 1.11-2.01 1.71 0 .42.96.54 2.1 0 7.98-3.36 5.88-3.36 6.3-3.36.84 0 .84.84-.06.6-3.81 2.97t-8.76 4.56q-5.01 2.19-7.65 2.19-4.14 0-4.14-4.38 0-1.26 1.71-2.76 1.71-1.5 3.42-2.58t1.71-1.35q0-.27-.84-.63-2.52-1.08-2.52-2.88 0-3.36 5.61-6.39t10.41-3.03q2.64 0 4.38.99 1.74.99 1.74 3t-2.79 3.75q-2.79 1.74-3.99 1.74-.48 0-.87-.24t-.39-.54q0-.3 1.65-.99t1.65-1.29q0-.3-.87-.3t-5.67 1.89q-4.8 1.89-4.8 2.67 0 .66 1.74.66zm-3.72 29.28q0-2.88 2.85-8.22 2.85-5.34 6.87-10.98 8.64-11.88 15-19.32l2.82-3.3q.9-.84 1.8-.84t1.32.66q.42.66.42 1.17 0 .51-.69 2.25t-1.65 3.99l-1.05 2.46q-.09.21-.09.45 0 .24.39.24t1.89-1.32q4.62-3.96 6.96-3.96 4.26 0 4.26 4.32-.3 2.22-2.7 5.76-2.4 3.54-6.03 6.45-3.63 2.91-6.69 2.91-1.32 0-2.28-.66-.96-.66-1.44-1.32t-.63-.66q-.15 0-.36.3t-11.67 19.2q-3 4.74-5.88 4.74-1.5 0-2.46-1.35t-.96-2.97zM234.34 37q-1.5 0-6.33 4.68t-4.83 5.88q0 .12.24.12 2.28 0 6.84-4.29 4.56-4.29 4.56-6.03 0-.36-.48-.36zm-9.18 32.64q0-2.88 2.85-8.22 2.85-5.34 6.87-10.98 8.64-11.88 15-19.32l2.82-3.3q.9-.84 1.8-.84t1.32.66q.42.66.42 1.17 0 .51-.69 2.25t-1.65 3.99l-1.05 2.46q-.09.21-.09.45 0 .24.39.24t1.89-1.32q4.62-3.96 6.96-3.96 4.26 0 4.26 4.32-.3 2.22-2.7 5.76-2.4 3.54-6.03 6.45-3.63 2.91-6.69 2.91-1.32 0-2.28-.66-.96-.66-1.44-1.32t-.63-.66q-.15 0-.36.3t-11.67 19.2q-3 4.74-5.88 4.74-1.5 0-2.46-1.35t-.96-2.97zM259.12 37q-1.5 0-6.33 4.68t-4.83 5.88q0 .12.24.12 2.28 0 6.84-4.29 4.56-4.29 4.56-6.03 0-.36-.48-.36zm20.76 12.6q0 .3.42.42.42 0 2.91-1.71t2.82-1.89q.33-.18.63-.18.84 0 .84.81t-4.23 3.57q-4.23 2.76-5.97 2.76-.72 0-1.53-.6t-.81-1.41q0-.81.42-1.77t.42-1.29q0-.33-.18-.33t-.36.12q-5.82 4.38-8.58 4.38-1.56 0-2.46-1.14-.9-1.14-1.08-2.28l-.12-1.14q0-1.98 1.53-4.59t4.02-4.98q2.49-2.37 6.12-3.99t7.41-1.62q2.04 0 3.81 1.08t1.77 2.52q0 1.44-2.82 1.74-2.1.48-6.93 3.45t-4.83 4.53q0 .66.66.66 1.2 0 5.67-3.42t5.37-3.42q.9 0 .9 1.08 0 .78-.57 1.47t-.81.99q-.48.6-2.46 2.67t-1.98 3.51zm19.5-19.98q.42 0 .78.39.36.39.36.9t-.6 1.29q-2.34 2.88-3.09 3.63t-.75.99q0 .24.39.24t3.21-1.05q2.82-1.05 3.72-1.05.9 0 1.86.75.96.75.96 1.92t-3.66 5.34q-3.66 4.17-3.66 5.43 0 .24.18.24.3 0 1.08-.39t.96-.39q.66 0 .66.48 0 1.86-2.94 3.72t-4.95 1.86q-2.01 0-3.27-1.11-1.26-1.11-1.26-2.97t1.83-4.17q1.83-2.31 3.78-3.27 1.95-.96 1.95-1.56 0-.18-.06-.24-2.64 1.08-4.32 1.08-3.3 0-3.3-1.92 0-2.22 3.84-5.82t6.3-4.32zm16.98 19.5l.36-1.2q0-.24-.27-.24t-3.12 1.59q-2.85 1.59-4.53 1.59-1.68 0-2.64-1.2-.96-1.2-.96-2.52 0-3.9 3.39-7.68t7.65-5.88q4.26-2.1 7.44-2.1 1.98 0 3 .48t1.14.48h.12q.12 0 .12-.06 5.34-6.48 12.93-14.01 7.59-7.53 9.87-7.53.96.12 1.77 1.56t.87 3.12q-.36 1.32-10.02 11.19t-10.83 11.61q-1.17 1.74-6.21 8.64t-5.64 7.47q-.6.57-1.56.57-.96 0-2.1-1.17-1.14-1.17-1.14-2.31 0-1.14.36-2.4zm6.24-11.22q-1.32 0-4.59 2.94-3.27 2.94-3.27 3.9 0 .54.48.54 1.62 0 4.8-3.09 3.18-3.09 3.18-3.87 0-.42-.6-.42zm19.32 5.28q-2.52 0-4.59-1.14t-2.07-3.48q0-3.06 4.32-5.28t8.94-2.22q2.88 0 4.68 1.05 1.8 1.05 1.77 3.12-.03 2.07-3.12 3.72-3.09 1.65-4.11 1.65-1.02 0-1.02-.42t.39-.63q.39-.21 1.71-.81 1.32-.6 1.92-.99.6-.39.6-.63t-.54-.24q-1.98 0-6.21 1.41t-4.23 2.31q0 .54 2.4.54 5.94 0 5.94 4.74 0 2.1-2.52 3.81t-5.16 2.43q-2.64.72-4.23.72-1.59 0-3.51-1.44-1.92-1.44-1.92-2.88t3.78-2.1q1.68-.24 4.44-1.11 2.76-.87 2.76-1.65 0-.48-.42-.48z"/></svg>