<svg viewBox="0 0 444 80" xmlns="http://www.w3.org/2000/svg"><path d="M28.27 45.66q-4.33 2.11-8.55 4.45.7 1.52 2.58 3.05.7.35 1.64.58 4.8-2.11 9.26-5.15.23-1.18.82-2.23-.12-.7-.47-1.06-2.7-.11-5.28.36zm-10.78-8.09q-1.29.35-2.34 1.06 1.05 2.22 3.4 3.51 6.56-1.05 12.77-2.69v-1.29q-1.87-1.29-4.57-1.53-4.8.35-9.26.94zm2.46-11.37q.94 1.29 2.46 2.82 1.29.7 2.93 1.4 3.17-.23 6.33-.23 1.29-.94 1.06-2.11-1.06-.59-1.88-.82-5.62-.94-10.9-1.06zm22.15 6.21q-4.92 0-9.61.59.71 2.34 3.52 3.63.94 0 1.99-.11-1.99 3.39-4.1 7.03.7 1.52 2.11 2.58 1.4.23 2.58-.24 1.87-2.34 3.86-4.92.35 5.74.47 11.48.94.82 1.99 2 .71.46 1.76.58.47-.35.82-.58-.82-5.86-.23-11.84 5.97 2.93 12.77 4.45.59-.47.94-.93-.12-.83-.82-1.29-6.45-2.35-12.66-5.51-.23-1.64 0-3.28l6.56-.94v-1.29q-.82-.94-1.99-1.17-2.22-.35-4.45-.35-.23-3.87-.7-7.74-.36-.58-.82-.93-2.23-.71-4.57-.71 0 4.57.58 9.49zm32.7-4.1q.82 1.64 2.69 3.17 1.64.58 3.52 1.17 1.05-.35 2.34-.24.59 3.75.59 7.39-3.75.23-6.33 2.11 1.41 1.64 3.4 3.16 1.99 0 3.98-.82.94 2.23 1.64 4.69-3.98 1.17-8.2 1.87.7 1.41 2.11 2.7.94.7 2.11 1.05 5.15-1.05 10.19-2.46 0 1.88.71 3.63 1.52 1.65 2.93 3.29 1.52 1.17 3.51 1.64 7.85-.12 15.47-1.18.59 2.11 2.7 3.75.82.36 1.87.36.35-.36.82-.71-.35-5.97.47-11.13-.7-1.17-1.87-1.52-1.76-.35-3.52-.47-.47.12-.59.58v6.1q-2.69-.24-5.5.23-.47-3.75-.12-7.85 4.92-.7 9.73-.35.93-.82.35-1.99-1.88-.94-4.1-1.18h-5.75q-.35-3.51.47-6.79 3.52-.35 7.15 0 .82-.59.7-1.53-.47-.46-.93-.93-2.93-.82-5.98-1.06-5.27-.11-10.55.12-.23-.94 0-1.99-.93-1.17-2.22-1.41-1.76-.23-3.4-.23-.35.93-.82 1.87 0 4.69.47 9.26 1.17 1.05 2.46 2.46.93.59 2.11.35.23-.35.58-.7v-4.69q2.11-1.05 4.34-1.05-.24 2.81 0 6.44-5.16.94-10.08.94-.35.23-.23.7.82.71 1.87 1.88-2.46-.24-5.04-.35-1.05-2.58-1.29-5.51 1.76-.82 3.87-.94.59-.7.59-1.64-.12-.59-.47-.82-2.35-.35-4.22-1.05-.24-3.17-.35-6.1 1.64-.12 3.4-.35.7-.59.58-1.52-.94-1.18-2.34-1.41-7.5-.47-15.82-.94zm21.56 21.1q.59.23 1.17.7 3.52.23 6.92-.47.23 2.93.46 6.09.47.47 1.06 1.29-3.52.36-6.68.24-.7-2.46-1.06-4.57-1.64-1.06-3.63-.94 1.06-.94 1.76-2.34zm13.59-19.57q.47 1.99 2 3.63 1.75-.12 3.04-1.06 1.88-5.03 3.28-10.07-1.05-1.41-2.69-1.64-1.41 0-2.58-.24-2.23 4.34-3.05 9.38zm-8.79-8.32q0 2.93.94 5.62 1.17 1.06 2.46 2.46.94.59 2.23.59.47-.35.94-.82-.12-1.41-.82-2.35.11-3.16.82-5.62-2.35-1.52-5.16-1.64-.82.58-1.41 1.76zm-7.96-1.76q-.47 1.17-.36 2.58.71 1.99 1.29 4.21 1.76 2.23 3.87 4.34 1.41 1.06 3.28 1.17.94-.7.7-1.87-.82-.94-1.75-1.64-1.41-2.35-1.76-5.16.35-.82.35-1.76-.47-.7-1.05-1.17-2.35-.82-4.57-.7zm9.14-5.16q-3.17.7-6.1 1.64 0 1.41 1.53 2.58.82.35 1.75.7l7.27-1.4q4.1-.12 7.73.7.71-.7.71-1.64-1.88-1.99-4.46-2.46-4.1-.47-8.43-.12zm30.35 8.32q.11 1.64 2.11 3.05.82.47 1.99.82 1.17-.7 2.69-.59.47 8.56.94 17.35.59 4.1 1.41 8.2.7 1.76 1.52 3.63.94.94 2.46 2 .82-.12 1.29-.71-.94-3.04-1.76-5.74-.35-3.28-.23-6.56 2.34-.12 4.8-.24-.58.24-.58.94 1.29 1.99 3.51 3.16 1.53 0 2.93-.93-.47.47-.58 1.4 1.29 1.41 3.04 2.82-.11 1.28-.58 2.34-4.1-1.64-8.67-1.99.7 1.52 2.46 3.04 11.6 3.75 24.02 5.86h3.05q.35-.35.35-.82-2.23-1.29-4.57-1.87-5.51-1.17-10.66-2.46.23-1.99.11-3.99-.94-1.4-1.87-2.34 1.4-1.64 2.22-3.4.12-1.17-.46-1.87-.94-.82-2.11-1.06-3.29-.58-6.33 0 1.17-1.05 1.87-2.58-.11-1.29-.23-2.34-1.06-2.23-2.81-3.75-1.88-1.17-3.52-1.99 1.52-1.06 3.28-2.11 1.64 1.99 4.22 3.63.94 0 1.76-.59.12-1.75-.71-2.93-1.75-1.28-3.75-1.75.47-.59.59-1.41-.12-1.29-1.05-1.99-3.87-1.41-7.97-1.99-6.1-.59-12.07-.82-1.17.11-2.11.58zm12.54 11.37q3.16-.35 5.86.94 1.29 1.17 1.17 3.16-1.17 1.29-2.81 1.99-2.23.47-4.34.82-.12-3.63.12-6.91zm.11-8.09q2.35 0 4.81.24-2.11 2.34-4.92 3.51-.12-1.99.11-3.75zm22.62-3.28q-1.64 0-3.16-.12-1.76.47-3.28 1.29 1.05 1.76 3.28 3.29-2.7 3.75-4.81 7.85-.7 1.75-1.17 3.4 1.06 1.28 2.7 2.34h1.05q1.17-3.05 3.05-5.16 0 6.92 1.29 14.07.93 1.99 1.87 4.1 1.17 1.17 2.81 2.34 1.18.23 1.76-.59-1.29-3.28-2.46-6.56-.23-1.29-.12-2.58 3.4-1.05 7.97-1.29.12.83 0 1.76-1.17 2.7-2.81 4.92 1.05 1.29 2.46 2.35.59.12 1.41.12 1.87-1.53 2.81-3.99.35-3.05.59-6.21-.47-3.52-1.06-6.8-.82-1.75-1.87-3.4-1.88-2.1-3.99-3.51-2.34-1.41-4.92-1.99.59-1.06 1.76-2.11 4.68.35 9.26.82 1.05-.47.82-1.76-.82-.82-2-1.05-3.16-.24-5.86-1.06 1.29-1.64 2.35-3.4.11-1.17-.71-1.87-2.22-.94-4.68-.82-2.11 2.69-4.34 5.62zm9.84 15.47q.94 2.11 1.06 4.69-3.98-1.17-8.09-1.17-.23-1.88.36-3.17 3.04-.7 6.67-.35zm-6.32-6.68q1.75.35 3.4 1.29 1.05.82 1.87 1.99l-5.51-.47q-.35-1.52.24-2.81zm54.96 0q1.4 1.29 2.93 2.93 3.51 1.17 7.26 2.23.94-.59.94-1.88-.59-.82-1.41-1.4-4.45-2-9.37-2.46-.47 0-.35.58zm-26.72 0q-.59 3.17-1.17 6.68 1.05 2.23 3.16 3.63 1.17-.23 2.23-.82.82-3.75 2.22-7.26 1.88-1.99 2.47-4.69-.36-.7-.83-1.05-2.46-.82-4.92-1.06-1.64 2.23-3.16 4.57zm14.88 3.4q-2.58-1.52-5.97-1.88-.47.94-.83 2.23-.11 2.7-.11 5.63.23 1.52.7 3.16 1.76 2.46 4.45 4.8 1.18.59 2.35 1.29 1.76.24 3.63.59 2.46-.47 4.57-1.76 1.41-1.4 2.81-2.81 1.41-2.34 2.82-4.81.35-1.52.58-3.04-.58-.82-1.29-1.41-1.4-.47-2.69 0-1.17 3.28-3.28 6.21-1.53 1.53-3.29 2.93-1.64.94-3.39 1.29-1.41-.94-2-2.46-.46-3.75.36-7.38.11-1.17.93-1.29.94 2.34 3.4 4.1.7.23 1.64.35.59-.47 1.06-.94-.35-1.75-.94-3.39 0-3.87.47-7.5-.35-.47-.59-.94-2.46-1.17-5.27-1.17-1.06 3.86-.12 8.2zm63.75-17.23q-6.91 3.52-13.94 7.5 0 1.41 1.64 2.7.93.23 2.11.47 2.69-1.53 5.62-2.58 1.17 1.17 1.99 2.93-5.62 1.4-10.89 3.28-1.53 1.17-2.7 2.46 1.29 1.88 3.28 3.52 1.06.35 2.34.11.83-.93 1.65-1.75 4.21-2.47 8.78-3.52 1.29 2.46 2.7 5.16-3.16.58-6.33.82-8.44 1.87-16.64 4.1-.12.47-.12 1.05 1.53 1.88 3.64 3.28 10.07-3.63 20.86-5.97.93 1.99 1.64 4.22.11 1.87.11 3.63-.35 1.17-1.17 2.46-1.64 1.52-3.28 2.7-3.05 1.4-6.21 2.46-4.8.58-9.38 1.52.12.7.94 1.29 1.29 0 2.46.58 3.4-.35 6.8-.58 3.28-.94 6.68-1.88 2.46-1.17 4.8-2.57.82-.94 1.65-1.76.58-1.53 1.05-2.93.12-1.88 0-3.75-.94-3.28-1.64-6.21 5.16-.59 10.66-.35.71-.47.59-1.41-.7-.7-1.29-.94-5.62-.58-11.25 0-1.64-3.16-2.81-6.21 3.4-.47 6.56-1.64.12-1.17-.7-1.76-1.88-.47-3.64-.7-2.22.23-4.33.59-1.29-2.35-3.28-3.64 3.16-1.29 6.56-2.81 1.41-.12 2.81-.23.59-.36 1.06-.94.11-1.64-1.18-2.35-2.1-.58-4.33-.7-1.99.12-3.87.35zm43.6 33.05q1.17 2.11 3.39 3.52h1.53q.82-.71 1.76-1.29 8.67-.82 17.57-.94.82-.7.59-1.76-1.88-.94-3.99-1.17-9.25-.12-18.39-.12-1.29.71-2.46 1.76zm8.43-22.97q-1.99 7.38-2.46 15.35 1.29 1.29 2.81 2.7.82.23 1.88.23 2.93-1.99 6.21-3.51 1.17-.24 2.58-.24 2.11.35 4.22 1.53 1.29.93 2.22 2.46.94 2.11.59 4.8-.82 1.64-1.99 3.17-1.17.7-2.35 1.87-2.34.94-4.57 1.76-2.69.12-5.04.47-.23.35-.35.7.94 1.29 3.05 1.76 3.28-.12 6.45-.59 2.46-.82 4.92-1.99 1.87-1.41 3.63-3.28.35-1.17.82-2.23 0-2.34-.23-4.33-1.06-2.11-2.47-3.87-2.34-2.11-5.03-3.63-1.88-.71-3.52-1.29-4.22-1.06-8.32 0 .35-1.64.82-3.52 6.56-2.46 14.06-2.69 1.06-.71.94-2-2.23-.93-4.45-1.29-4.34.24-8.56.71.47-1.64.94-3.4-.82-1.06-1.76-1.41-1.87-.11-3.4-.47-1.05.82-1.64 2.23zm-9.14-8.79v11.84q.24 2.11.94 4.1 1.41 1.99 3.63 3.52.59.11 1.41 0 .58-.71.47-1.53-1.41-1.4-1.53-3.05-.11-4.1.24-8.08.58-.24 1.4-.12.71-.7 1.53-1.4 2.81-1.18 5.74-2.11 5.39-1.06 11.37-.94 1.4.23 2.93.58.58.94.47 2.35-.82 2.58-2.58 4.57 1.17 1.52 2.93 2.81h1.4q.94-.82 1.76-1.76.94-2.11 1.41-3.98 0-2.7-1.64-4.45-1.99-1.64-4.46-2.23-2.81-.47-5.5-.82h-8.91q-2.93.23-5.74.82-.47-1.64-1.88-1.99-1.75-.24-3.51-.35-1.06.93-1.88 2.22zm62.11 6.1q-1.76 2.34-3.87 4.1-2.81 3.28-4.45 7.38-.58 1.76-.7 3.98 1.17 1.29 2.69 2.47h1.29q1.17-3.17 2.7-5.98 1.87 7.62 5.04 14.53 1.29 1.29 3.04 2.7.94.11 1.88-.24 0-.58.23-1.05-1.99-3.99-3.16-7.86-.35-3.04-1.06-5.62-.35-3.28-.11-6.33-.82-.82-1.41-1.17 1.76-1.64 3.63-3.05 1.41-.23 2.82-.35.82-.94.47-1.99l-.94-.94q-2.35-.58-4.57-.94-1.88-.11-3.52.36zm19.1-9.03q-.11 6.33.24 13.01-7.03.82-13.01 2.93.94 1.17 2.46 2.7 1.06.82 2.81.82-1.99 2.69-3.86 5.74-.82 2.11-1.53 4.1-.23 1.17 0 2.34 1.29 1.41 2.82 2.7.82.12 1.75.12.47-.24.71-.71 0-1.05-.36-1.76.47-1.52 1.06-3.04 2.93-4.46 7.15-8.09.82 4.22.82 9.14-3.05 0-5.04 1.53 1.64 2.22 3.98 3.51.71 0 1.41-.12.59 3.75.7 7.74.71 1.17 2.11 2.46.71.47 1.88.35.23-.35.47-.58-1.53-5.04-1.64-10.43 3.86-.71 7.61-1.53 0-1.05-.23-1.76-1.29-.7-2.58-.93-2.34-.35-4.69-.24-.35-4.33.24-8.44 3.86 2 7.5 4.81.93 1.05 1.17 2.58 1.29 1.17 2.69 2.58.82.35 1.88.35.35-.35.82-.71v-1.52q-1.29-2.46-3.4-4.45-4.22-3.4-8.2-6.21-1.06-.71-2.23-.71-.23-.93-.12-1.87 4.69-1.41 9.96-1.29.47-.35.71-.82 0-1.06-.59-1.52-1.87-.71-3.87-.82-2.92 0-5.74.23-.11-5.27.12-10.55-1.05-1.17-2.23-1.4-1.99-.35-3.75-.24z"/></svg>