<?xml version="1.0" encoding="utf-8"?>
<!-- Generator: Adobe Illustrator 24.0.0, SVG Export Plug-In . SVG Version: 6.00 Build 0)  -->
<svg version="1.1" id="图层_1" xmlns="http://www.w3.org/2000/svg" xmlns:xlink="http://www.w3.org/1999/xlink" x="0px" y="0px"
	 viewBox="0 0 317.2 80" style="enable-background:new 0 0 317.2 80;" xml:space="preserve">
<path d="M38,13.9L38,13.9c4.4,1.6,6.6,2.8,6.6,3.4l0,0c-0.2,1.9-0.3,3.4-0.3,4.5l0,0v0.5h13.4l3.5-3.1h0.6c3,2.6,4.4,4,4.4,4.2l0,0
	V24H43.7c-0.2,1.2-0.4,3.4-0.6,6.7l0,0h13.7l2.1-1.9c1.6,1.1,2.6,1.7,3,1.7l0,0c0.4-0.2,0.7-0.3,0.9-0.3l0,0
	c0.6,0.7,0.9,1.2,0.9,1.7l0,0c0,1.5,0.1,4.2,0.2,8.2l0,0c-0.2,2.1-0.2,4-0.2,5.6l0,0L63,45.9c0,0.2,0.1,0.3,0.3,0.3l0,0
	c-0.8,10.8-2,16.3-3.6,16.3l0,0c-2,1.6-3.6,2.4-4.8,2.5l0,0c-2.6-1.6-4.2-2.9-4.7-3.9l0,0c-2.4-0.6-3.5-1-3.5-1.4l0,0v-0.2l0.3-0.6
	l7.7,0.8c1.8,0,2.7-1.3,2.7-3.9l0,0V32.4H46.1c-0.7,0-1.6-0.1-2.7-0.2l0,0c-0.4,0.2-0.7,0.2-1.1,0.2l0,0c-0.6,0-0.9-0.1-0.9-0.2l0,0
	l-3.1,0.2h-6.5L30,32.2c-0.4,0.2-0.9,0.2-1.5,0.2l0,0h-2.1c0,1.4-0.6,5.4-1.7,12.1l0,0c0.2,1,0.3,1.9,0.3,2.5l0,0v2.5h3.2
	c0.2,0,0.3,0.1,0.3,0.3l0,0l0.6-0.3h8v-5.3h-2.3c-0.2,0-0.3-0.1-0.3-0.2l0,0l-0.6,0.2c-0.4,0-0.6-0.1-0.6-0.2l0,0
	c-3.4,0.4-5.3,0.5-5.9,0.5l0,0c0-0.1-0.5-0.5-1.4-1.4l0,0v-0.6h9.8c0.5,0,0.9,0.1,1.2,0.3l0,0l0.5-0.3c0.2,0,0.3,0.1,0.3,0.3l0,0
	c2.3,0,3.8-1,4.6-3.1l0,0c1.6-2.6,2.6-4.8,3.2-6.8l0,0h0.9l4.1,2.8v0.6c0,1.4-1.3,2.9-3.8,4.3l0,0c0,0.1-0.6,0.7-1.8,1.9l0,0
	l0.6,0.3h0.3c1.4,0,2.8-0.8,4.4-2.5l0,0c0.3,0,1.5,1.1,3.5,3.4l0,0c0,0.4-0.2,0.5-0.6,0.5l0,0H43.1v1.4c0,0.6,0.1,1.5,0.3,2.5l0,0
	v1.4c0.8,0,1.2,0.1,1.2,0.3l0,0c0.4-0.2,0.7-0.3,0.9-0.3l0,0c0.2,0,0.3,0.1,0.3,0.3l0,0c2.2,0,4.2-0.8,5.9-2.5l0,0H52l3.5,3.6
	l-0.6,0.3H43.1V52c0,0.4-0.1,0.8-0.3,1.1l0,0c0,0.2,0.1,0.3,0.3,0.3l0,0l-0.3,1.4V57c0,3.9-0.7,5.9-2,5.9l0,0
	c-0.4-0.2-0.7-0.2-0.9-0.2l0,0c-1,0.6-1.8,0.8-2.2,0.8l0,0L37.4,63v-1.9c0-0.9-0.1-1.9-0.3-2.8l0,0c0.2-0.8,0.3-1.5,0.3-2.2l0,0
	l-0.3-0.6l0.3-0.5c-0.2-1-0.3-1.9-0.3-2.5l0,0v-1.1h-2c-0.2,0-0.3-0.1-0.3-0.3l0,0l-0.6,0.3c-0.2,0-0.5-0.1-0.9-0.3l0,0l-1.7,0.3
	c-0.2,0-0.3-0.1-0.3-0.3l0,0l-0.6,0.3c-1.3,0-3.3,0.1-5.9,0.3l0,0v2.5c0,0.2-0.1,0.3-0.3,0.3l0,0c0,0.2,0.1,0.2,0.3,0.2l0,0
	c-0.5,6.2-1.6,9.2-3.4,9.2l0,0c-0.4,0-1,0.3-1.7,0.8l0,0c-0.4,0-0.6-0.2-0.6-0.5l0,0V31.6c0-0.4-0.1-0.8-0.3-1.1l0,0
	c0.2-1,0.4-1.4,0.6-1.4l0,0c1.7,1.1,2.9,1.7,3.6,1.7l0,0h13.7c0.2-2.8,0.3-4.9,0.3-6.2l0,0V24h-5.3c-0.2,0-0.3-0.1-0.3-0.3l0,0
	L30.6,24c-0.2,0-0.3-0.1-0.3-0.3l0,0L28.2,24h-3.5c-0.9,0-2-0.1-3.4-0.3l0,0L20.7,24l-1.2-0.3c-2.3,0.4-4,0.6-5,0.6l0,0L13,22.6
	l0.6-0.3h23.2c0.4,0,0.5-0.2,0.5-0.5l0,0v-5.3c0-0.2,0.1-0.3,0.3-0.3l0,0l-0.3-0.5v-1.1C37.4,14.1,37.6,13.9,38,13.9z M29.1,33.6
	l0.6-0.3l0.9,0.6h0.3l0.8-0.6h0.9c2.2,0,3.6,1.6,4.4,4.8l0,0v0.5c0,1.3-0.9,2.5-2.6,3.4l0,0h-0.6c-0.4-0.3-1.3-2.1-2.6-5.4l0,0
	C30.2,36,29.5,35,29.1,33.6L29.1,33.6z"/>
<path d="M82.5,14L82.5,14c2.4,1,3.9,1.9,4.6,2.7l0,0l-0.3,0.6c0.4,0,0.8,0.3,1.2,0.8l0,0l-0.6,4.4c0.2,0.7,0.3,1.4,0.3,2.2l0,0V26
	c0.1,0.4,0.3,0.5,0.7,0.5l0,0c1.8-1.4,2.9-2.2,3.1-2.2l0,0c2.7,2,4,3.1,4,3.2l0,0c0,0.4-0.2,0.5-0.7,0.5l0,0h-2.5l-1.5,0.3V28
	l-0.7,0.3L88.3,28c0,0.2-0.1,0.3-0.4,0.3l0,0l0.4,1.4v1.9c0,0.2-0.1,0.3-0.4,0.3l0,0c0.8,1,1.3,1.7,1.3,1.9l0,0h1.6
	c1.2,0.8,1.8,1.2,1.8,1.4l0,0c1.7,0,4.2-4.1,7.4-12.3l0,0c1.5-6,2.5-9,3.1-9l0,0c3.6,1.6,5.7,2.7,6.2,3.5l0,0c0,0.7-1.2,3.1-3.7,7.1
	l0,0v0.3h13.6l2.5-1.9c3.3,1.8,4.9,3,4.9,3.8l0,0l0.3,1.1c-0.2,2.1-0.3,3.7-0.3,4.6l0,0l0.3,2.5c-0.4,2.1-0.6,3.7-0.6,4.9l0,0
	l0.3,1.4l-1,3.2l0.4,0.5c-1.9,9.5-3.9,15.4-5.9,17.8l0,0c-1.8,1.4-2.8,2.2-3.1,2.2l0,0c-1.6,0-2.9-1-4-3l0,0c-4.5-1.9-6.8-2.9-6.8-3
	l0,0v-0.3c0-0.4,0.2-0.5,0.6-0.5l0,0c3.7,0.8,6.1,1.1,7.1,1.1l0,0h1.3c2.5,0,3.7-3,3.7-9l0,0c0-0.2-0.1-0.3-0.4-0.3l0,0l0.4-1.4
	c0.4-12.1,0.6-19.5,0.6-22.1l0,0c-0.6,0-1-0.1-1-0.2l0,0l-0.6,0.2h-0.3c-0.4,0-0.8-0.1-1.2-0.2l0,0l-0.7,0.2l-1.2-0.2
	c-1.1,0.2-2.1,0.2-3.1,0.2l0,0v-0.2l-0.6,0.2h-0.6c-0.2,0-0.3-0.1-0.3-0.2l0,0l-0.6,0.2c-0.2,0-0.4-0.1-0.4-0.2l0,0
	c-0.2,0-0.3,0.1-0.3,0.2l0,0l-2.2-0.2c-1.6,0-2.6,0.6-3.1,1.9l0,0c-2.4,3.3-5.4,6.1-8.9,8.5l0,0c0.2,1,0.3,1.7,0.3,2.2l0,0
	c-0.4,3.2-1.3,4.9-2.5,4.9l0,0c-0.5,0-1.7-1.6-3.7-4.9l0,0h-0.3v6.8c0,0.2-0.1,0.3-0.4,0.3l0,0c0,0.2,0.1,0.2,0.4,0.2l0,0
	c-0.2,1-0.4,1.7-0.4,2.2l0,0c0,1.7,0.1,2.9,0.4,3.8l0,0c-0.2,1.8-0.4,3.5-0.4,5.2l0,0v3.2c0,1.2-0.7,1.9-2.1,2.2l0,0
	c0,0.3-1.1,0.9-3.4,1.6l0,0L82,63.8c0.2-11.6,0.3-18.9,0.3-21.8l0,0c-2.4,2-5.2,5.3-8.3,9.8l0,0L73.3,52c-0.4,0-0.6-0.2-0.6-0.5l0,0
	c3.8-7.1,6.6-13.7,8.3-19.9l0,0l0.9-3.2l-0.6-0.3h-3.1c-1,0-2.5,0.1-4.6,0.3l0,0l-0.6-1v-0.3c0-0.4,0.2-0.5,0.6-0.5l0,0
	c0.2,0,0.3,0.1,0.3,0.3l0,0l2.2-0.3H78c0.2,0,0.3,0.1,0.3,0.3l0,0c0.2,0,0.3-0.1,0.3-0.3l0,0l2.2,0.3h1c0.4,0,0.6-0.2,0.6-0.5l0,0
	v-5.2l-0.3-2.7h0.3L82.1,18v-3.3C82,14.2,82.2,14,82.5,14z M103.5,31.7h0.3c0.6,0.5,1.9,1,4,1.7l0,0c0,0.3,0.2,0.6,0.6,1.1l0,0
	c0,0.4-0.2,0.5-0.6,0.5l0,0l0.3,0.5c-3,6-5.6,10.2-7.7,12.8l0,0h3.4c1,0,2.6-0.1,4.6-0.3l0,0v-0.2c0-0.8-0.2-2.8-0.6-6l0,0l0.6-0.3
	c4.5,3.6,6.8,6.1,6.8,7.6l0,0v1.1c-0.5,1.8-1.4,2.7-2.8,2.7l0,0c-1,0-2.5-1.1-4.3-3.3l0,0c-2.7,0-6.4,0.9-11.1,2.8l0,0
	c-0.4,0-1.2-1.3-2.5-3.8l0,0c1.8-0.6,3.5-2.7,5.2-6.2l0,0C101.6,37.4,102.9,33.8,103.5,31.7L103.5,31.7z"/>
<path d="M159.2,13.9L159.2,13.9h0.3c4.4,2.1,6.7,3.9,6.7,5.5l0,0c-0.3,1-0.9,1.9-1.8,2.8l0,0h10.7l3-2.8h0.3c0.3,0,1.7,1.3,4.3,3.8
	l0,0c0,0.4-0.2,0.5-0.6,0.5l0,0h-21V24c0.2,0,0.5,0.1,0.9,0.3l0,0l1.8-0.3c0.4,0.4,0.8,1.4,1,2.8l0,0c-0.4,0.9-0.6,1.6-0.6,1.9l0,0
	l1.5,0.3h1.5c0.6,0,1-0.1,1-0.3l0,0l1.5,0.3h3.1c0.5,0,1-0.6,1.5-1.9l0,0h1c0.7,0.7,1.9,1.3,3.7,1.9l0,0l-0.7,1.4
	c0.4,0.9,0.7,1.6,0.7,2.2l0,0h-0.4l0.4,0.6v1.6h0.3l1.7-1.4h0.4c0.3,0,1.6,1.2,4,3.6l0,0v0.3c-0.5,0-1.3,0.1-2.5,0.2l0,0v-0.2
	l-0.6,0.2c-0.2,0-0.5-0.1-0.9-0.2l0,0c-0.9,0-1.7,0.3-2.4,0.8l0,0l0.3,1.4l-0.3,2.8l0.3,1.7c-2.5,1.5-4.3,2.2-5.5,2.2l0,0h-0.3v-1.7
	l-1.5-0.3h-6.1c-0.4,0-0.7,0.9-0.9,2.8l0,0c-3.1,1.8-4.9,2.8-5.5,2.8l0,0l-0.4-0.5v-0.5c0-0.2,0.1-0.3,0.4-0.3l0,0
	c0-0.2-0.1-0.2-0.4-0.2l0,0l0.4-1.4v-1.1l-0.4-1.4H154c-1,0-3.2,0.2-6.4,0.6l0,0l-1.6-1.7c0-0.4,0.2-0.5,0.6-0.5l0,0h1.9
	c0.2,0,0.3,0.1,0.3,0.2l0,0l0.7-0.2c0.6,0,3.6,0.1,8.8,0.2l0,0c0.4-0.2,0.7-0.2,1-0.2l0,0v-4.7c0-0.4-0.2-0.5-0.7-0.5l0,0h-13.7v0.2
	c0,10.9-3.9,19.9-11.6,27.1l0,0l-0.3-0.5c0-0.5,0.8-2.5,2.5-6.1l0,0c2.4-5.6,3.6-11.4,3.6-17.3l0,0c-0.2-0.7-0.2-1.6-0.2-2.6l0,0
	h0.2c0-0.2-0.1-0.2-0.2-0.2l0,0l0.2-1.4c-0.2-7.6-0.3-11.8-0.5-12.7l0,0h0.3l-0.3-0.5v-3h0.8c1.8,1.1,3,1.6,3.7,1.6l0,0h5.5
	c0.7,0,1.6,0.1,2.7,0.3l0,0c0.2,0,0.3-0.1,0.3-0.3l0,0l1.6,0.3h3.1c0.4,0,0.8-0.1,1.2-0.3l0,0c0.4,0.2,0.8,0.3,1.2,0.3l0,0h1.3
	l0.6-0.3c-0.7-2.3-1.7-4.4-3.1-6.3l0,0C157.5,14.9,158.1,14.4,159.2,13.9z M153.1,23.6h-8.2c-0.2,2.8-0.3,4.8-0.3,6.1l0,0v0.2
	c0,0.2-0.1,0.3-0.3,0.3l0,0l0.3,0.5v3.6l0.3,1.4h1.8l1.9,0.3l0.6-0.3l0.6,0.3c0.2,0,0.3-0.1,0.3-0.3l0,0l2.2,0.3h6.7l0.4-1.4V33
	c0-0.4-0.1-0.8-0.4-1.1l0,0c0.2-0.3,0.4-0.7,0.4-1.1l0,0l-0.7-0.2h-4.9c-1,0-3.2,0.2-6.4,0.5l0,0l-1.5-1.7c0-0.4,0.2-0.5,0.5-0.5
	l0,0h6.1c0.2,0,0.3,0.1,0.3,0.3l0,0l0.6-0.3c1.5,0.2,2.3,0.3,2.5,0.3l0,0l0.6-0.3c0.4,0.2,0.7,0.3,0.9,0.3l0,0l0.7-0.3
	c0.4,0.2,0.6,0.3,0.8,0.3l0,0l0.4-0.5c0-0.2-0.1-0.3-0.4-0.3l0,0l0.4-1.9l-0.4-2.5h-1.5c-0.2,0-0.3-0.1-0.3-0.2l0,0l-0.6,0.2h-0.6
	c-0.2,0-0.3-0.1-0.3-0.2l0,0c-0.2,0-0.4,0.1-0.4,0.2l0,0L153.1,23.6z M164.4,31L164.4,31v0.2c0,1,0.1,2.6,0.3,4.7l0,0h8.5
	c0-0.9,0.1-1.4,0.3-1.4l0,0l-0.3-0.6v-3.5H165C164.6,30.5,164.4,30.7,164.4,31z M164.7,37.9L164.7,37.9v2.8c0,1.3,0.3,2,0.9,2.2l0,0
	h7c0.4,0,0.6-0.2,0.6-0.5l0,0v-4.7l-2.2-0.2h-5.8C164.9,37.4,164.7,37.6,164.7,37.9z M147,49.6l0.3-0.5c1.6,1.3,4.9,1.9,10,1.9l0,0
	h14.9c0.2,0,1-0.6,2.2-1.9l0,0c1.8,1.3,3.4,1.9,4.9,1.9l0,0l0.3,1.6c-0.6,4.2-1,6.4-1.2,6.4l0,0l0.4,1.4v0.5c0,2.2-0.7,3.3-2.2,3.3
	l0,0c-0.7,0-1.8,0.3-3.4,0.8l0,0l-0.3-0.5V62h-3.7c-0.4,0-0.8-0.1-1.2-0.2l0,0c-0.4,0.2-0.8,0.2-1,0.2l0,0c-0.2,0-0.5-0.1-0.9-0.2
	l0,0l-1.8,0.2H164c-0.2,0-0.4-0.1-0.4-0.2l0,0l-0.5,0.2c-0.2,0-0.5-0.1-1-0.2l0,0c-0.4,0-0.8,0.1-1.2,0.2l0,0
	c-1.8-0.2-3.2-0.2-4.3-0.2l0,0h-1.2c-0.9,1.6-2.4,2.5-4.3,2.5l0,0c-0.6,0-2,0.3-4.2,0.8l0,0c0-0.2-0.1-0.3-0.4-0.3l0,0l0.4-1.4
	c0-0.2-0.1-0.2-0.4-0.2l0,0l0.4-1.4V59c0-0.4,0.1-0.8,0.3-1.1l0,0c-0.2-0.4-0.3-0.7-0.3-1.1l0,0V56c0-0.2,0.1-0.2,0.3-0.2l0,0
	l-0.3-0.5L147,49.6L147,49.6z M154.7,52.6L154.7,52.6c0,1-0.3,2.9-1,5.5l0,0c0,0.2,0.1,0.9,0.3,2.2l0,0h18.9v-7.7h-2.2
	c-0.6,0-0.9-0.1-0.9-0.2l0,0l-1.5,0.2h-6.4c-0.2,0-0.3-0.1-0.3-0.2l0,0l-0.6,0.2h-0.3c-0.5,0-0.9-0.1-1.2-0.2l0,0
	c-0.4,0.2-0.8,0.2-1,0.2l0,0l-3-0.2C155.1,52.5,154.8,52.6,154.7,52.6z"/>
<path d="M202.2,14.3l0.5-0.3c1.5,0.9,2.8,1.5,4,1.7l0,0c0,0.2,0.3,0.5,0.9,0.8l0,0c-0.2,3-0.4,4.6-0.6,4.7l0,0
	c0,0.2,0.1,0.3,0.3,0.3l0,0l-0.3,1.1c0,3.7,0.4,5.5,1.1,5.5l0,0c0.3,0,1.2-0.7,2.9-2.2l0,0c0.3,0,1.4,1.1,3.4,3.3l0,0v0.5h-6.6
	l-0.5,0.2l0.3,0.6c0,0.2-0.1,0.2-0.3,0.2l0,0l0.3,0.5l-0.3,2c3.5,0,6.1,2,7.7,6.1l0,0c0,0.2,0.1,0.4,0.3,0.8l0,0
	c-1,2.7-2.1,4.2-3.2,4.4l0,0c-1.7,0-3.2-1.8-4.3-5.5l0,0h-0.5l0.3,0.5v0.3c0,0.2-0.1,0.2-0.3,0.2l0,0l0.3,0.6v1.6l0.2,1.9h-0.2
	c0.2,0.3,0.3,1.4,0.5,3.4l0,0h-0.3l0.3,0.5v7.4l0.6,2.5c2.1-2,4.5-5.8,7.1-11.3l0,0c1.9-4.6,2.9-6.9,3.2-6.9l0,0
	c2.8,1.8,4.3,2.8,4.3,3l0,0v0.6c0,3.2-3.7,8.1-11.2,14.9l0,0c-2.3,0.2-3.4,0.7-3.4,1.6l0,0c0,1.7-0.6,2.9-1.7,3.6l0,0
	c-0.4-0.2-0.6-0.3-0.8-0.3l0,0c-0.3,0.6-1.5,1.2-3.7,1.7l0,0c0-0.2-0.1-0.3-0.3-0.3l0,0l0.3-1.4v-19h-0.3c-2.9,3.5-4.5,5.2-4.9,5.2
	l0,0c-2.1,2.6-3.2,3.8-3.5,3.8l0,0h-0.2c-0.4,0-0.6-0.2-0.6-0.5l0,0v-0.2c3.4-5,6.2-11.2,8.3-18.8l0,0l1.1-3.8
	c-1.2,0-1.7-0.1-1.7-0.3l0,0l-0.6,0.3h-1.4c-0.2,0-0.3-0.1-0.3-0.3l0,0c-0.4,0.2-1.7,0.4-3.7,0.5l0,0l-1.4-1.6V28h8.6
	c0.4,0,0.6-0.2,0.6-0.5l0,0V16.2L202.2,14.3z M238,17.3L238,17.3c0.3,0,1.5,1.2,3.7,3.6l0,0v0.5c-2.2-0.2-3.9-0.3-4.9-0.3l0,0h-14.3
	c-1.2,0-3.2,0.1-5.8,0.3l0,0l-1.1-1.4l0.3-0.5l0.6,0.2h0.8l2-0.2v0.2l0.6-0.2l0.6,0.2c0.4-0.2,0.6-0.2,0.8-0.2l0,0l1.1,0.2
	c0.4-0.2,0.7-0.2,0.8-0.2l0,0c0.4,0.2,0.7,0.2,0.9,0.2l0,0c0.3-0.2,0.7-0.2,1.1-0.2l0,0v0.2c0.2,0,0.3-0.1,0.3-0.2l0,0
	c2.2,0.2,3.9,0.2,4.9,0.2l0,0h0.8c0.4,0,0.8-0.1,1.1-0.2l0,0c0.4,0.2,0.7,0.2,1.1,0.2l0,0h0.6C235.1,19.8,236.3,18.9,238,17.3z
	 M238.3,32.7l3.4-2.8c0.3,0.1,1.6,1.4,4,3.9l0,0V34c-0.8,0-1.1,0.1-1.1,0.3l0,0l-1.4-0.3h-0.3c-0.6,0-0.8,0.1-0.8,0.3l0,0l-1.4-0.3
	h-1.1c-0.9,0-1.9,0.1-2.9,0.3l0,0c-0.7-0.2-1.6-0.3-2.6-0.3l0,0h-0.8c-0.2,3.4-0.3,5.5-0.3,6.4l0,0h0.3l1.4-1.1
	c8,4.8,12.1,8.6,12.3,11.6l0,0c0,4-1.3,6.1-4,6.1l0,0c-0.3,0.2-0.8,0.2-1.4,0.2l0,0c-0.6-0.7-2.1-4-4.6-9.9l0,0
	c-1.8-3-2.8-4.4-3.2-4.4l0,0c0-0.2-0.3-0.3-0.8-0.5l0,0v6.4c0,0.4,0.1,0.8,0.3,1.1l0,0c-0.2,0.2-0.4,1.8-0.6,4.7l0,0l0.3,2
	c-0.6,5.5-2.4,8.2-5.5,8.2l0,0h-1.7c-1.6-2-3.9-3.5-6.9-4.4l0,0l-0.3-0.5v-0.3l0.3-0.5c2.6,0.6,5,0.8,7.1,0.8l0,0
	c0.6-0.7,0.9-1.6,0.9-2.5l0,0V34.7c0-0.4-0.2-0.6-0.6-0.6l0,0H224c-0.6,0-0.8,0.1-0.8,0.3l0,0l-1.4-0.3h-2.6c-1.2,0-3.2,0.1-5.8,0.3
	l0,0l-1.1-1.4v-0.3c1-0.2,1.6-0.2,1.7-0.2l0,0l0.5,0.2l0.6-0.2c0.2,0,0.3,0.1,0.3,0.2l0,0c1-0.2,1.8-0.2,2.3-0.2l0,0l2,0.2
	c0.4-0.2,0.7-0.2,1.1-0.2l0,0l1.1,0.2c0.4-0.2,0.7-0.2,0.9-0.2l0,0v0.2l0.5-0.2h0.3c0.2,0,0.3,0.1,0.3,0.2l0,0
	c0.2,0,0.3-0.1,0.3-0.2l0,0l1.4,0.2c0.2,0,0.4-0.1,0.8-0.2l0,0c0.3,0.2,0.7,0.2,1.1,0.2l0,0h0.3c0.4,0,0.8-0.1,1.1-0.2l0,0
	c0.3,0.2,0.7,0.2,1.1,0.2l0,0c0.4,0,0.6-0.1,0.6-0.2l0,0l2,0.2H238.3z"/>
<path d="M278.7,13.1L278.7,13.1l0.6,0.3l0.5-0.3c0.4,0.2,0.8,0.3,1.2,0.3l0,0c0.4-0.2,0.7-0.3,0.8-0.3l0,0c1.5,2,2.3,3.9,2.3,5.6
	l0,0c0,2.5-1.1,4.1-3.4,4.7l0,0l-0.9,1.1h17.9l2.3-2.2c0.2,0,1.4,1.2,3.7,3.6l0,0v0.3c-1.1,2-2.9,4.1-5.5,6.4l0,0
	c-1,0-1.6-0.3-1.7-0.9l0,0L296,32h-0.3c-0.4,0-0.5-0.2-0.5-0.5l0,0c1-1.8,1.8-3.5,2.5-5.3l0,0h-32.6c-2,3.1-3.3,4.8-4,5.3l0,0
	l-1.4-0.3c-0.1,0.6-0.9,0.8-2.3,0.8l0,0H256c-0.4,0-0.6-0.2-0.6-0.5l0,0v-1.4c1.7-2,3.1-4.7,4-8.1l0,0h3.2c0.9,0.4,1.9,1.2,2.9,2.5
	l0,0h14.2v-0.2c-0.6,0-1.6-2.1-2.9-6.4l0,0c-0.2,0-0.8-0.8-1.7-2.5l0,0v-0.9c0.6,0,1.4-0.4,2.6-1.1l0,0
	C277.9,13.2,278.2,13.1,278.7,13.1z M278.1,27.9L278.1,27.9c1.2,0.5,3,1,5.2,1.4l0,0c0.1,0.7,0.3,1.1,0.5,1.1l0,0l-0.2,1.4v5.6h12.1
	l3.5-3.1h0.5c0.6,0.2,2.1,1.6,4.3,4.2l0,0V39h-19.3c1.6,3,6,7.2,13.3,12.6l0,0c3.8,1.4,6.5,2.7,8.1,3.9l0,0l0.3,1.4
	c-1.2,1.1-2.6,1.7-4.3,1.7l0,0c0,0.6-0.4,1-1.1,1.4l0,0c-6.4-2.8-12.1-8.2-17.1-16l0,0c0,1-0.1,2-0.2,3.1l0,0c0,0.2,0.1,0.2,0.2,0.2
	l0,0l-0.2,1.4c0,0.9,0.1,1.4,0.2,1.7l0,0c-0.2,1.6-0.2,2.9-0.2,3.9l0,0v6.2c0,0.2-0.1,0.2-0.3,0.2l0,0l0.3,0.6
	c-0.5,1.7-1.1,2.5-1.7,2.5l0,0c-0.4-0.2-0.6-0.3-0.8-0.3l0,0c-1.6,0.9-2.7,1.4-3.2,1.4l0,0h-0.2V46c-4.5,5.7-8.8,9.6-12.7,11.7l0,0
	c-4.9,2.8-8.3,4.2-10.1,4.2l0,0c0,0.4-0.5,0.5-1.4,0.5l0,0l-0.3-0.5c1.4-1,2-1.8,2-2.5l0,0l0.6,0.2h0.3c4.2-2.7,7-5.1,8.6-7.3l0,0
	c3-2.1,5.7-5.3,8.1-9.7l0,0c1.2-2.1,1.7-3.3,1.7-3.7l0,0h-5.5c-0.2,0-0.3-0.1-0.3-0.3l0,0L268,39h-0.2c-0.2,0-0.3-0.1-0.3-0.3l0,0
	l-0.6,0.3h-0.6c-0.2,0-0.3-0.1-0.3-0.3l0,0l-0.5,0.3c-0.2,0-0.3-0.1-0.3-0.3l0,0l-0.6,0.3c-0.4,0-0.6-0.1-0.6-0.3l0,0
	c-1.3,0.2-4.1,0.4-8.3,0.7l0,0c0-0.2-0.4-0.8-1.2-1.7l0,0l0.6-0.2h22.5V33l-0.9-1.1C277,29.2,277.5,27.9,278.1,27.9z"/>
</svg>
