<svg viewBox="0 0 300 80" xmlns="http://www.w3.org/2000/svg"><path d="M38.5 29.96q-.42 5.1-.99 10.41-.57 5.31-1.53 9.99-.24 1.14-.66 1.62-.42.48-1.2.66-.66.12-1.83-.42t-1.95-1.56q-1.02-1.38-2.19-3.03t-2.52-3.36q-1.35-1.71-2.82-3.39-1.47-1.68-3.09-3.12-.18 3.96-.3 7.83t0 7.77q0 .54-.96.54-1.14 0-1.86-1.17-.72-1.17-.84-2.37-.18-1.2-.18-3.45t.09-4.71q.09-2.46.21-4.74.12-2.28.24-3.6.12-1.44.69-2.1.57-.66 1.11-.6 1.2.12 1.59.69.39.57.45 1.41 2.16 1.56 3.99 3.36 1.83 1.8 3.36 3.66 1.53 1.86 2.82 3.69 1.29 1.83 2.43 3.33.72-3.6 1.17-8.04.45-4.44.93-9.3-.06-.6.72-1.17t1.44-.51q1.68.12 1.68 1.68zm19.62 2.34q.24 1.68.39 3.57.15 1.89.24 3.81.09 1.92.09 3.72 0 1.8-.06 3.24 1.92 1.32 2.31 2.34.39 1.02.09 1.8-.36 1.08-1.29 1.11-.93.03-2.13-.63-.84.6-1.92 1.29-1.08.69-2.28 1.32-1.2.63-2.4 1.11-1.2.48-2.22.66-1.92.3-3.45-.72-1.53-1.02-2.07-3.06-.36-1.38-.18-2.85.18-1.47.9-2.82.72-1.35 1.95-2.43T49 42.08q.42-.18 1.17-.3t1.56-.09q.81.03 1.65.33.84.3 1.56 1.02 0-1.02-.03-2.25t-.09-2.49q-.06-1.26-.15-2.37t-.21-1.89q-.12-.9-.69-1.11-.57-.21-1.41.09-1.44.48-3.36 1.86-1.92 1.38-3.66 2.94-.54.54-1.23.48-.69-.06-1.17-.54-.48-.48-.54-1.11-.06-.63.48-1.35 1.02-1.08 2.28-2.22 1.26-1.14 2.64-2.07 1.38-.93 2.82-1.53t2.88-.66q2.1-.06 3.24.93 1.14.99 1.38 2.55zm-6.96 12.9q-.78.18-1.65.75-.87.57-1.56 1.38-.69.81-1.02 1.8-.33.99-.03 1.95.12.36.51.54.39.18.87.06 1.44-.3 3.27-1.17 1.83-.87 2.91-1.89 0-.36-.36-.93-.36-.57-.84-1.14t-1.05-.99q-.57-.42-1.05-.36zM68.5 34.7q.18.9.39 2.01.21 1.11.45 2.28.24 1.17.42 2.37.18 1.2.3 2.28.72-1.56 1.56-3.3.84-1.74 1.83-3.21.99-1.47 2.1-2.43 1.11-.96 2.43-.96 1.98 0 3.33 1.44t2.28 3.57q.93 2.13 1.47 4.47.54 2.34.9 4.14.36 1.62-1.44 2.4-.84.42-1.26.12-.42-.3-.48-.6-.3-.72-.75-2.52t-1.02-3.66q-.57-1.86-1.29-3.24-.72-1.38-1.62-1.26-1.08.06-1.92 1.62-.72 1.26-1.47 2.79t-1.47 3.12q-.72 1.59-1.41 3.18t-1.29 2.91q-.42.42-1.05.57-.63.15-1.29-.09-.6-.18-.96-.6t-.36-.84q-.54-4.68-1.11-8.52-.57-3.84-1.47-7.86-.42-1.38-.15-2.19t1.77-.63q2.1.36 2.58 2.64zm26.76 2.04q-.36 1.62-.72 3.57-.36 1.95-.51 3.75-.15 1.8 0 3.24.15 1.44.75 2.04 1.02.18 2.34-.87 1.32-1.05 2.58-2.67 1.26-1.62 2.28-3.51 1.02-1.89 1.44-3.33.24-.72.42-1.5t.18-1.62q0-.48.63-.93.63-.45 1.05-.51.3-.06.69.12.39.18.72.51.33.33.6.78.27.45.27.93.12 1.8.36 3.96t.57 4.32q.33 2.16.69 4.2.36 2.04.72 3.66.18.66-.36 1.5t-1.2 1.02q-.54.12-1.11-.12-.57-.24-.87-.96-.3-.84-.57-2.07-.27-1.23-.48-2.58-.21-1.35-.39-2.58-.18-1.23-.24-2.07-.9 1.62-2.13 3.27t-2.64 3q-1.41 1.35-2.94 2.1t-3.15.57q-2.4-.3-3.66-4.5-.48-1.68-.45-3.72.03-2.04.3-4.05t.66-3.81q.39-1.8.69-2.94.12-.48.48-.87t.84-.27q.9.18 1.65 1.08.75.9.51 1.86zm23.04-1.62q.06.96.21 2.37.15 1.41.33 2.94.18 1.53.39 3.03.21 1.5.39 2.76l1.62-3.24q.96-1.92 2.01-3.69 1.05-1.77 2.16-3t2.01-1.23q.96 0 1.77.93t1.41 2.25q.6 1.32 1.05 2.82.45 1.5.75 2.64.24-.78.63-1.77t.84-2.04q.45-1.05 1.02-2.07.57-1.02 1.23-1.8.78-.84 1.68-1.23.9-.39 1.32-.39.54 0 1.29.33t1.53.87q.78.54 1.47 1.29t1.11 1.53q.84 1.62 1.35 3.54.51 1.92.75 3.66.24 1.74.33 3.09.09 1.35.15 1.89 0 .78-.18 1.17-.18.39-.66.63-.66.3-1.14.21-.48-.09-.78-.39-.3-.3-.48-.69-.18-.39-.24-.69-.18-1.38-.39-2.82-.21-1.44-.45-2.79-.24-1.35-.57-2.52-.33-1.17-.69-2.07-.12-.24-.39-.63t-.6-.75q-.33-.36-.63-.6t-.42-.3q-.6 0-1.26 1.11t-1.26 2.67q-.6 1.56-1.11 3.27-.51 1.71-.75 2.91 0 1.56-.6 2.31t-1.26.75q-.66 0-1.41-.51-.75-.51-.99-1.17-.36-.96-.78-2.16-.42-1.2-.87-2.46t-.9-2.46q-.45-1.2-.87-2.16-.84 1.14-1.65 2.52-.81 1.38-1.56 2.82t-1.44 2.85q-.69 1.41-1.29 2.49-.42.66-.9 1.17-.48.51-1.14.51-.48 0-1.02-.45t-1.02-1.11q-.48-.66-.87-1.5t-.57-1.68q-.48-2.58-.81-5.67-.33-3.09-.63-6.03-.06-1.02.27-1.89.33-.87 1.29-1.17 1.02-.18 1.56.3t.66 1.5zm60.36 19.5q-.06.66-.39 1.23t-.99.51q-1.02-.06-1.77-.78t-.75-1.2q.06-5.22-.33-10.65-.39-5.43-1.23-10.83 0-.24.12-.54.12-.24.3-.57.18-.33.6-.63.42-.18.93.06t.99.72q.48.48.84 1.08.36.6.54 1.14.18 1.2.36 2.64.18 1.44.3 3 1.44-.78 2.76-1.74 1.32-.96 2.31-2.1.99-1.14 1.53-2.37.54-1.23.36-2.55-.12-1.02-.9-1.86-.78-.84-2.4-1.26-3.72-.84-6.66-.09t-5.64 2.49q-.78.6-1.44.72-.66.12-1.14-.06-.48-.18-.72-.54-.24-.36-.24-.72.12-1.38 1.35-2.49 1.23-1.11 2.61-1.89 1.8-.9 4.44-1.5 2.64-.6 5.31-.45 2.67.15 5.01 1.29 2.34 1.14 3.6 3.66 1.14 3 .51 5.4-.63 2.4-2.25 4.38t-3.84 3.63q-2.22 1.65-4.2 3.03.12 2.64.15 5.16t-.03 4.68zm28.98-14.22q-2.34 1.38-5.04 2.13t-5.82.75q.12 2.1 1.2 3.33t2.7 1.47q.96.12 1.95-.06t1.86-.57q.87-.39 1.59-.87.72-.48 1.26-.96t1.14-.63q.6-.15.9-.03.84.3.6 1.8-.96 1.92-2.76 3.27-1.8 1.35-4.02 1.71-1.92.36-3.96-.18t-3.66-2.1q-1.38-1.38-2.1-3.24-.72-1.86-.9-3.84-.18-1.86.33-3.54t1.59-2.97q1.08-1.29 2.7-2.13 1.62-.84 3.78-.96 2.58-.18 4.68.96 2.1 1.14 2.94 3.18.48 1.14.27 1.98-.21.84-1.23 1.5zm-6.9-4.08q-.6.12-1.29.42-.69.3-1.26.75-.57.45-1.02 1.02-.45.57-.51 1.29 1.02 0 2.25-.18t2.4-.45q1.17-.27 2.16-.63.99-.36 1.65-.78-.48-1.14-1.77-1.41t-2.61-.03zm17.28-1.62q.18.9.39 2.01.21 1.11.45 2.28.24 1.17.42 2.37.18 1.2.3 2.28.72-1.56 1.56-3.3.84-1.74 1.83-3.21.99-1.47 2.1-2.43 1.11-.96 2.43-.96 1.98 0 3.33 1.44t2.28 3.57q.93 2.13 1.47 4.47.54 2.34.9 4.14.36 1.62-1.44 2.4-.84.42-1.26.12-.42-.3-.48-.6-.3-.72-.75-2.52t-1.02-3.66q-.57-1.86-1.29-3.24-.72-1.38-1.62-1.26-1.08.06-1.92 1.62-.72 1.26-1.47 2.79t-1.47 3.12q-.72 1.59-1.41 3.18t-1.29 2.91q-.42.42-1.05.57-.63.15-1.29-.09-.6-.18-.96-.6t-.36-.84q-.54-4.68-1.11-8.52-.57-3.84-1.47-7.86-.42-1.38-.15-2.19t1.77-.63q2.1.36 2.58 2.64z"/></svg>