<svg viewBox="0 0 446 80" xmlns="http://www.w3.org/2000/svg"><path d="M35.52 13.44q5.76 0 7.62 1.86l-.12 5.34q10.68-1.74 12.12-.96 1.44.78 2.1 2.94v1.2q0 .6-4.08.96l-7.02.24q-4.08.84-4.08 1.44v.66h.36l.66-.18q.66 0 5.58 2.82 4.8-.24 7.14-1.92h.96q1.32 0 8.22 2.88-.36 2.1-.72 4.74-.48 1.8-1.68 12.15T58.62 60q0 .84-1.2 1.92-2.76 0-5.19-1.41-2.43-1.41-3.63-2.58-1.2-1.17-2.46-2.61v-.24q.06-.48.66-.48 2.46.18 2.46.48 5.94-1.92 5.94-7.56 1.2-2.52 1.2-11.1l.36-2.4q0-.9-4.08-1.44-5.34 0-6.54 2.88l-2.16 1.2q0 .48 3.42 2.1 0 .18.36 1.44l-1.62.9-5.94.96v.48l.66.72-.3 1.14h.3l3.12-.9.6.18q2.04-.66 2.82-.66 3.12 0 4.68 3.78 0 .3-1.56 1.2-.3 0-.9-.24l-6.9.96H40.2q.54 5.22.06 12.3-.66 2.64-3.66 2.82-1.14-.96-2.7-6.54l.72-5.76v-1.68q-5.16 1.68-7.44 1.68-.9 0-1.92-.48l-.24.48-.66 6q0 3.78-1.02 3.78h-.6q-1.44-.54-3.12-3.06v-.24q.66-18.3-3.06-22.32-.18-.66-.6-2.88.48-.9.96-.9 4.98 2.7 4.98 3.54h.6v-.24l-.36-.48.66-.24h.6l1.86.24q3.18-.6 4.08-1.2 0-.48-.6-1.62.54-1.68 1.2-1.68h.66q.78.12 2.82 2.58h.9q.6 0 2.16-4.98v-.48l-6.54.72q-9.9-1.62-9.9-3.78 1.98-.72 2.76-.72l5.04.24q7.38-.78 9-1.62 0-4.32-4.08-7.32v-.72q0-.54 2.76-.72zM39.6 31.2v.48q1.62-.48 2.22-.48v-1.44l.24-.48h-.24q-.6 0-2.22 1.92zm-4.68 4.02l.36 2.4v.9q5.58-.54 5.58-4.02h-.3q-4.56 0-5.64.72zm-5.22.96l-2.82.72-2.88-.24q.66 2.82.66 3.3.36 2.94.36 3.54v1.38q0 1.2.24 3.36h.96q3.06-.54 9.06-2.64-.36-.42-.66-2.34h-.96l-.9.42H30.9q-3.72 0-3.72-2.34.3-.48.3-.66h.36q.66 0 1.2.18 3.6-.78 3.72-1.38-1.2-.78-3.06-3.3zm52.26-22.44q.72 0 4.86 2.04 3.06 1.92 3.06 4.56-.48.84-.48 1.5v3.6h1.02q2.46 0 4.08 2.76h.24q2.22-2.34 3.84-11.16l-1.02-1.5v-.3q0-.36.72-.72h1.02q.78.6 4.08 2.04 1.5 1.74 1.56 3.78-.84 3.12-6.36 7.86 0 .18-4.38 3.3h-.48q-.54 0-.54-.48 1.26-1.62 1.32-2.04h-.54q-5.1 1.56-5.1 4.56v1.26q3 .72 5.1 3.78l.54.78v.24q0 .54-.54.54-1.92 0-5.1-2.28h-.24q-.24.48-.24.72 0 1.92-.3 8.88 0 .3-.24.3l.24 1.26v3.54q0 5.82-1.5 7.38h-.54q-1.74 0-2.76-4.32-.24 0-1.32-1.8v-1.5h1.8q.78 0 .78-4.08V43.2h-.24q-3.06 2.88-8.16 4.8h-1.56q-.48 0-.48-.54 6.42-4.62 8.88-12.18.54 0 .54-.96h-.24q-3.54 1.26-4.38 1.26h-.48q-1.86 0-4.86-3.06V31.5l.24-.48 1.8.24h.54q1.2 0 8.4-4.08-.78-11.64-3.06-11.64v-.3q0-.66.48-1.5zm36 9.12q3.36.84 5.58 3.84.24 1.02.78 1.74v.54q-1.44 1.2-2.82 4.02-.12 1.14-.78 5.34v8.64q0 .36.54 6.06v2.04q0 3.66-4.86 9.66h-.24q-2.82-4.44-6.66-7.62v-.48q0-.42.78-.78h2.82q3.84 0 3.84-9.36V28.2q-5.76.96-10.5 2.82-.54.36-2.04.72-3.48-1.8-4.32-3v-.78l.24-.54.54.3h1.8q14.52-3.06 14.52-4.32 0-.54.78-.54zM98.04 33l.54-.24q.9 0 4.32 2.82.66 0 1.5 3.3v.48l-.24.54q.6 0 3.3 1.74 4.38.72 4.38 4.32.24.24.48 3.78-.48.12-.48.54-1.08 0-5.64-5.34h-.24q0 2.1-5.1 5.1-2.88 2.76-3.6 2.76-3.54 0-6.12-4.8v-.78q.06-.48.54-.48.84.48 1.5.48h.78q5.34-6 5.34-11.4-1.26-1.92-1.26-2.82zm6.12 7.14h-.48q0 .72-3.6 5.58h1.26l3.84-1.8q-1.02-2.76-1.02-3.78zm70.68-26.4l.54-.18q7.38 3.06 7.86 4.02.48.96.42 1.56v.24q-.06 1.02-.66 2.64-.6 1.62-1.38 5.76l-.6 8.04v2.7l.12 2.58q.42 2.34 1.32 15.24l-.06 1.14q-.12 2.52-2.46 5.58-.54 1.86-1.14 1.8h-.54q-1.74-2.7-3.6-3.6-4.56-4.62-4.5-5.52v-.48h.3q1.02.06 3.12 1.5l1.32.06q2.28-1.5 2.34-2.76l.06-1.14q.3-6.12-.36-8.7l.36-1.14q-.12-26.94-2.1-27-.42-1.86-.36-2.34zm-29.88-.42l7.08 4.74.9 1.32q-.66 2.28-.96 2.7.18.42.12.96-1.02 1.74-1.68 1.62h-.24q-3.42-.48-6.24-10.08l.12-.72q.06-.3.9-.54zm13.92 9.66q3.36 2.58 3.06 4.44-.06.42-6.6 2.16-8.7 4.02-16.5 2.94-2.52-.84-4.56-3.72l.06-.42q.54.06 2.58.84 6.54.9 20.34-6.18.18 0 1.62-.06zm4.26 6.36l.84-.42h.24q2.46.18 5.52 4.44-.42 1.2-.42 1.38-.06.24.18.72-.36 1.2-.42 1.38-.12 4.14-.42 6.78l-.84.36-.84-.06q-3.9-1.14-3.66-3.3l.3-3.3q.36-3.18-.48-7.98zm-14.76 2.88q5.4 4.5 5.34 5.64-.06.24-.36.66l.06 1.2-2.7 4.86 5.16 3.54q.36 1.74 2.4 5.28l.24 1.68-.54.18-.3-.06q-3.48-.48-9.96-7.02l-.84-.12q-6 5.46-10.8 6.3-.06.42-3.36.48l-.18-.48q8.64-5.52 9.9-8.82.48.06.6-.42l.06-.42q-3.66-3.42-5.7-6.72l.06-.42h.24l7.8 4.14q2.58-4.26 3-6.66.06-.6-.78-1.98l.06-.48q.18-.48.6-.36zm64.98-17.88v-1.08q4.62.66 8.34 4.02 0 .36.9 1.62-.9 3.96-.9 6.72.6.06.6.54l8.64-1.62q2.28.66 4.32 2.7v.78q0 .72-4.02 1.08v-.3l-.6.3q-.24 0-.24-.3-9 .9-9 2.16 0 .12-.54 4.32h.54q.3 0 2.34-.54h1.14q5.52 2.04 5.52 5.34 0 .54-.6.54l-1.74-.24-.6.24q-1.44-.54-1.98-.54-4.5.54-12.42 2.4-.9 0-2.04.3-4.32 0-6.06-4.56v-.54q.36 0 3.78.78 7.2-1.14 7.2-2.1v-1.08q0-1.38.3-4.02l-.9-.54q-3.54 1.08-8.94 2.1-1.68 0-5.76-2.4-.42 0-1.44-1.62l.54-.24 4.08.24q11.4-1.92 12.42-2.4 0-.6.3-1.08-.3-.48-.3-1.08 0-.24.3-.24l-.3-1.38v-2.4q0-2.64-2.88-5.88zm18.18 27.9l.3-.54q9.78 2.1 9.78 6.72.6 1.44.6 3.72l-.84.54q-2.22 0-7.56-6.72l-2.28-3.48v-.24zm-17.04 3.48h.54q3.66 1.32 5.52 1.32 3.18-1.08 3.48-1.08.54.12.54.54v2.16q0 3.78-2.58 3.78 0 .54-.6.54h-.24l-3.18-2.46q-3.48-3.72-3.48-4.8zm-12.72 2.7h.3q1.74.78 1.74 4.02 0 4.62-4.08 10.2h-.84q-1.14 0-1.74-5.4V57q4.62-4.92 4.62-8.58zm4.32 0h.6q4.38 5.76 6.36 7.5 3.3 3.24 9.24 3.24h4.02q2.16 0 2.34-.84v-1.08l-1.44-4.56q.54-.24.84-.24 5.7 3.72 6.66 4.02 1.08 0 4.02 2.4-1.26 4.56-6.36 4.56-5.76 1.08-6.9 1.08v-.24l-.6.24h-.54q-12 0-17.64-13.68 0-.42-.6-2.4zm63.18-34.74l.54-.18q1.98.24 9.06 6v.24l-.54.78-.24 2.16-.42 1.92.48.3q6.66-1.32 9.12-2.28.24 0 .72.36.12 0 .96-.18 2.58.3 4.5 5.22l-.06.54-.3.48-2.88-.84q-1.44.3-4.2.36l-.96-.42q-5.34 1.32-14.64 3.06-2.94 1.62-7.38 2.46h-.24q-2.16-1.38-4.56-4.38.12-.54.54-.48l1.2.12q.6.06.96.36 3.3-.18 14.4-3.3l.06-.3q-2.1-.84-3.84-4.02-1.8-4.86-2.28-7.98zm6.78 18.18l.54-.24q1.92 1.26 4.5 4.92l-.06.24-2.82 6.6q-.12 1.32 8.88 8.16 2.82 2.64 10.08 6.36 4.92 3.54 7.14 5.76v.3q-.06.54-.54.48l-2.46-.3q-2.46.3-2.76.24l-2.16-.24q-.3 0-.24-.3l-.54.24-4.62-.54q-5.4-4.62-8.28-9.48l-5.58-6.66q-7.74 14.82-11.7 14.4-.12 1.08-10.5 1.56l-.24-.6q.06-.24 6.96-3.06 5.82-4.74 9.18-11.1 2.1-3.66 2.7-5.46-.84-1.38-6.18-2.94-1.8-1.8-1.74-2.1.9-.72 3-.48 2.34.24 6.18 2.88 1.14-4.62 1.32-6.48 0-.24-.06-2.16zm50.1-18.6h1.5q3.78 1.92 5.16 4.02v2.16h1.02q.78-.48 2.28-.96 1.98 0 3.6 2.58 0 1.02-5.1 1.92-8.4 2.52-8.7 3.3 1.02.54 2.04 7.56 4.62-1.8 4.62-3.3 0-1.56.48-4.74-.24-.96-.24-1.68.48-.18.78-.18 3.78 1.92 4.32 3.78l.24.48q-1.5 2.88-1.5 3.78 1.5.78 1.5 1.14v.24q0 .48-9.18 3.36v.42q1.44 0 4.32 2.16 2.22-1.2 3.12-1.2 3.3.54 3.3 1.2v.24q0 .3-5.1 1.86-2.34.48-2.34 3.84l.3 1.38q-.54 13.02-3.12 13.02 0 .48-.48.48h-.54q0-.3-4.62-4.02v-.24q0-.66 3.6-1.68 1.02-4.02 1.02-7.08v-2.34l-.24-.48q-2.04 0-3.06 4.5-3.72 6.84-5.88 6.84h-.54q-.84-.78-1.26-3.06v-1.2q0-.54 3.06-1.62 2.82-2.82 2.82-3.12v-.24q-1.62 1.2-3.36 1.44-6.12-.96-6.12-1.92v-.24q.06-.42.54-.42h2.52q11.04-3.24 11.04-4.02 0-1.5-1.8-3.12l-1.26.24h-.78q-4.86-.48-4.86-1.44 0-.6 4.56-1.14 1.8-.96 1.8-1.2-1.62-1.98-1.8-4.02.6-3.3 1.32-4.02v-.24h-.24q-.3 0-.3.24-2.16 0-5.34-2.58l-.54-.72v-.48l.24-.48q1.8.18 1.8.48l.54-.24.48.24q6.6-1.92 7.98-1.92v-.48q-3.36-2.64-4.14-5.88v-.72q.06-.48.54-.48zm27.12 5.46h.24q4.38 3.42 4.38 5.22v.42l-2.28 1.2-4.38 2.64q-2.04 1.14-5.88 1.62 0-.24-.24-.24 7.38-7.44 7.38-9 0-1.74.78-1.86zM340.5 31.26l.78-.48q4.08 2.34 4.08 4.26-.24 2.04-.24 2.34.24.48.24.72 3.9-.3 13.32-6.36l1.8-.48q4.08 2.4 4.08 3.78h-1.02q-.24 0-.24-.24-2.04 1.14-7.2 3.06l.24.48v1.2q-1.26 1.68-1.26 2.58v1.2q-.12 3.9-.3 7.38t-.18 5.16v2.58l.24 1.44-.24.48q.48 1.92.48 4.02 0 .48-.48.48h-.3q-3.84-2.22-3.84-4.26 1.32-9.06 1.32-11.82l.24-4.02q-.12-5.46-.54-5.46-.72 0-3.3.72-.66 0-2.58-1.2-.48.96-.48 2.58l.24.96q.36 2.82-1.26 7.14 0 2.1-5.4 5.88-.78 0-2.82.96l-.24-.48v-.24q3.6-4.56 3.6-5.22h-.3q-3.48-1.5-5.64-4.92l-.24-.48v-.72q0-.48.78-.48 5.4 1.8 5.4 3.3.24 1.62.24 2.64h.48q2.34-5.1 2.34-12.36-1.8-5.1-1.8-6.12zm68.46-17.34l.48-.3q6.18 1.08 6.3 5.82v1.32q-.48.54-.9 5.1l.24-.06q.24 0 3.42-3.24h.96q1.56 0 3.54 2.88v.54q-8.22 3.6-9.36 3.6l-.48 2.16q.06 4.5 4.8 4.44 1.56-.3 3.18-.3 2.28-.06 3.78 3.66-.66.84-2.94 1.14-1.38-.24-2.28-.24h-1.2q-.54 0-1.02.3-3.9.06-6-6.06 0-.3-.3-2.64h.24q0-.3-.24-.3.84-9.24.84-10.14-.18-3.18-3.06-7.14v-.54zm-24.84 1.2h.78q6.48 1.62 6.48 3.36-.24 1.38-.24 1.62 0 .24.3.78-.72 5.82-1.14 6.42v.78l.24.54q1.26-.84 2.46-.84 3.48 1.2 3.54 2.64-1.32 2.34-6.66 4.38l-.24 1.32v.78q4.02 2.46 4.08 5.28 0 .42.48 1.08v.24q0 .36-1.2 1.38-1.14-.36-3.24-2.64h-.54l.06 1.32q0 1.08-.36 12.84l.06 3.48q-1.32 4.02-2.16 4.02-.3 0-4.56-4.2-.42 0-1.74-2.1-.72 0-.72-.54l-.06-.78q.06-.54.48-.54 3 1.02 3.78 1.02 1.14-.06 1.8-13.14l-.06-2.4q-4.02 7.2-11.76 10.86l-.72.06v-.84q8.28-8.7 10.44-13.5v-.54h-.24q-.72.54-2.7.84-4.02-1.86-4.02-4.44.24 0 .24-.3l1.74.24h.24q4.38-.84 7.38-3.3l-.06-2.94q0-.6.24-1.08 0-.24-.24-.24l.24-2.7-.06-2.94-2.76-3.66-.06-1.08q.06-.54.48-.54zm11.46 3l.54-.24q5.94 1.5 6 3.9.24 0 .48.78l-.42 5.64.48-.06 3-2.4 1.44-.06q2.52.48 2.52 2.64 0 .42-5.16 3.54Q402 33.3 402 34.32q.06 1.74-.66 2.4v.54h.24q1.2-.84 1.98-.84h.24l.48.24q-3.18 5.58-6.12 6h-.48q-3.48-1.5-3.54-3.42 4.5-.06 4.44-4.62-.06-1.5.18-1.86-.48-1.26-.48-2.4.72 0 .66-3.48-.06-4.98-3.06-7.68l-.3-1.08zm17.94 22.38h.78q4.56 1.62 4.74 2.58v.84q0 1.26-1.2 3.18-.24 1.02-.66 7.5.54 1.62.6 4.8.06 3.78-1.68 5.1-1.56 0-3.78-3.42h-.24q-3.6.06-9.66 3.12-1.56-1.14-1.98-2.4.42-5.46.3-13.32 0-.84-.78-3.48l.24-.54q1.74 0 4.26 3.96v.54q0 .66-.48 2.4.3 0 .3.24 1.74-.84 4.2-1.14 2.94.78 3 1.32v.24q0 1.08-5.46 2.76 0 .3-.72.3-.84-.54-1.26-.54l-.24.54.06 1.86.24 3.24q6.54-1.98 8.46-2.04h.48q.18-3.12.18-4.56v-.54q0-.84-.3-1.32l.24-1.32q-.3-5.04-.36-6.9h-.24q-2.16.3-2.7.3-.48-.3-.78-.24.06.84-3.9 1.08-.54-1.32-.54-1.86.72-.54 8.88-2.28z"/></svg>