<svg viewBox="0 0 386 80" xmlns="http://www.w3.org/2000/svg"><path d="M36.74 12.6q3.48 0 5.04 4.08l-1.26 5.58h.42q.66 0 4.2-2.94 4.2 2.28 4.2 4.44-13.44 3.06-13.44 7.08-5.58 9.54-7.98 11.16h-.42l4.62-11.58q.42 0 .42-.36h-.42q-8.1 3.36-9.66 3.36-2.52-.72-2.52-3 0-2.58 8.4-3.3 5.46-1.98 5.46-2.64 1.26-2.94 1.26-6.3v-1.86l-1.26-1.5v-.72q0-.66 2.94-1.5zm19.32 21.54q8.4.78 9.24 8.4.42 1.44.42 4.44 0 3-5.46 13.56-3.78 4.5-4.62 4.5h-.84q-8.82-2.16-8.82-4.08v-.42l5.04.42h.42q4.86 0 8.82-13.38.42-2.28.42-3 0-6.72-4.62-6.72-1.26 0-3.3.51t-7.62 1.35v.42q.66 0 1.68 1.44 0 2.7-5.88 6h-.42v.72h.42q2.76-.72 3.78-.72l1.26.72v1.14q0 .72-3.78 1.44-.42 3.54-.84 4.08.42 0 .42.42 1.56-.78 3.36-.78h1.26q.66 0 1.26 1.14v.36q0 .66-5.88 1.5l-2.1 5.58q0 1.08-1.68 2.22l-.42-.72v-2.64Q38 60 38 59.1h-.42q-5.46 1.08-5.88 1.08h-.42l-2.94-.72v-.36q0-1.62 9.66-3 0-4.44-5.46-4.44-.84 0-.84-.78 0-.54 1.26-1.08h2.52q1.8 0 4.62-1.14l-.42-.72v-.36q0-1.5 2.94-6.72l-.84-.36q-1.56.72-3.36.72h-1.68q-2.52-1.32-2.52-1.86l2.1-1.5h.42q.84.12.84.78 15-4.5 18.48-4.5zm-23.94 7.44h3.36q.84.12.84.78v1.86q-2.22 1.92-2.94 4.8h-.42q-.6 0-2.1-2.22 0-5.22 1.26-5.22zm-11.76 2.28h.42v2.94q0 2.88-.42 5.22.54 6.9 1.68 8.16 0 .78-.84.78h-1.68q-2.1-.78-3.78-4.14 0-8.64 4.62-12.96zm83.16-30.54l1.26-.78q4.86 2.58 5.88 4.38 0 1.38-4.62 9.18v.78q1.08 0 10.92-4.38l2.94-.36q7.98 2.88 7.98 7.14v6q-1.68 18.24-5.04 23.58-3.24 5.94-9.66 5.94 0 .42-1.68.42h-.42q-4.5 0-8.4-15.18-2.58.84-3.3.84h-.84q-2.52-.84-2.52-3.24 8.76-12.48 8.76-15.12-3.84.78-4.56.78-1.26-1.68-1.26-5.22 5.76-5.64 7.08-10.74l-2.52-4.02zm-16.74-.36q1.2-.6 2.1 0 4.14 3.96 3.78 7.14l-.42 3.6h.42l2.52-.36h.42q1.86.6 1.26 2.76-3.78 1.5-5.46 2.82l-1.26 8.34h.42q6.18-8.64 6.72-8.76l.42.78q-.78.54-5.04 10.38-.54 0-2.52 2.82v4.8q.48 7.08.84 9.54-.66 5.58-2.1 5.58h-.84q-.42 0-.42-.36l-.84.36q-.96 0-1.68-5.58V45.66q-7.38 4.02-9.66 4.02-.66 0-1.26-1.2v-1.2q5.58-8.46 7.56-11.22.9-1.74 2.52-3.96h-.84l-.84.42q-7.98-2.04-8.4-4.02 0-.6 2.52-1.98l2.1.36q7.98-.96 7.98-1.56v-3.6q-.48-2.94 0-8.76zm20.94 18.36q0 .96 1.26 2.76 0 2.22-7.14 11.16v.84q4.56 0 8.82-6.42 4.5 0 6.3 5.22v1.2q0 4.98-2.52 6.36h-1.26l-2.1-2.4q0-.78 1.26-6v-.36l-7.98 6.36q3.36 10.02 6.72 10.02h2.1q5.76 0 9.66-24.78.42-2.76.42-4.8 0-4.8-5.04-4.8h-.42q-1.86 0-10.08 5.64zm-21.78 5.16h-.84q-2.52 4.98-2.52 5.58H83q2.28 0 2.94-1.56v-4.02zm82.5-22.92h4.38q7.08 3.66 7.08 16.74.42 3.54 1.08 8.64 0 19.14-4.92 24.84l-1.08.54h-1.08q-4.62 0-10.32-12.18-2.64-.54-15.84-1.02 0 .48-.54.48l.54 1.02v4.56q0 1.02-1.08 1.02l-5.46-8.1q-.54-.9-.54-2.04V35.88q0-2.76.54-7.08v-2.58q-.54-2.76-.54-4.02l1.08-.54h1.08q4.92 3.72 4.92 8.16v4.02q8.7-3.06 17.46-4.56l1.62 2.04q-2.34 3.9-13.08 9.12h-.54l.54-2.52q-2.58-1.56-6-2.52l-.54.96.42 8.52.12 4.2q8.16-4.56 14.7-4.56 4.5 1.5 6 4.02-.66 3.06-2.7 3.06v.54q.96 1.98 3.78 1.98 3.3-5.7 3.3-36.48h-2.16q-2.76 0-16.38 6.06h-2.7q0-.6-6.54-4.08l-.54-.96q0-2.04 23.94-5.1zm54.12-.78h.48q2.88 2.52 2.88 5.22-.96 2.94-11.46 7.02 0 1.86-8.1 4.56l-1.44-1.38v-.72q13.26-9.6 17.64-14.7zm1.92 9.78q1.68.12 4.32 3.54v.3q-.72 1.08-6.72 4.2v.36q3.36-1.38 4.8-1.38h2.88q3.66 0 4.26 1.38v.72q-.12.6-11.94 5.94-3.78 2.04-3.78 2.46v.36h.48l15.72-4.92h1.44q5.7 3.78 5.7 5.58-5.1 2.76-16.2 6.3h-.48l-.96-.3q0 .3-.48.3 1.92 2.28 1.92 9.48v3.48q-.96 4.92-5.22 4.92 0-.54-1.44-1.08h-3.84q-1.56 0-3.36 1.08l-2.34-1.38q.24-1.5 7.14-5.64h.48l2.4 1.74h.96q.48-4.32.48-4.5 0-6.3-2.88-9.84.48-1.38 1.92-1.38 3.06 1.38 4.26 1.38l10.98-4.86v-1.08q-9.06 0-31.02 9.12h-.48q-.6 0-1.92-1.74 0-.96 13.86-7.74l9.06-5.94v-.36H224q-8.94 4.56-16.68 6.3h-.48q-2.4-1.8-2.4-3.12 10.86-5.88 18.12-11.58l.48-1.02q0-1.08 1.44-1.08zm16.74 26.28q5.22 1.74 5.22 8.04l-1.44.72h-1.44q-2.04 0-10.98-7.02 0-1.74 8.64-1.74zm-35.34.66h.48q.36 0 3.36 2.82 0 1.38-5.76 5.28l-6.66 5.22q-1.92-1.8-1.92-3.12v-1.08q0-2.64 7.62-7.02 0-1.02 2.88-2.1zm89.34-36.96h.84q1.2 0 3.3 6.48 1.56 1.56 5.82 1.92v1.5q0 1.62-7.08 2.34-.84-.42-1.26-.42-.36.78-.36 1.14 0 8.4 10.8 8.4l.84 1.14v.78q-.3.84-6.66 3.06 0 .78-.84.78h-.42q-.84-.78-5.82-1.2-3.78 1.2-3.78 3.84l-1.68 2.28v.78h.42q1.26-1.08 4.62-3.06 4.98 0 4.98 8.4v2.28q-.3 12.6-2.88 12.6-.42 0-1.68-1.5-.42 0-1.26.36-5.4 0-10.86-4.2-.84-3.18-.84-4.2 0-5.46 4.62-12.24 0-1.02 2.1-3.78 0-3.84 2.46-3.84l3.36.78q2.28-.36 3.3-.36-4.14-2.52-4.14-7.68V25.5q0-.72-.84-.72-4.38 10.92-7.92 16.02-.72 0-2.1 1.14h-2.04q-3.36-1.08-3.36-9.96.42-.72.42-1.14-1.02 0-1.68-2.64.42 0 .42-.42h-.84q-5.4 1.08-5.4 8.4l-.42 2.7h.42q.54 0 4.98-3.42h.42l.84.36q.48 3.84-4.2 8.16-3.96 2.16-3.78 11.31.18 9.15-1.2 9.15H266q-1.62-.6-1.62-1.14l-.72-1.68q.72-5.1 1.92-12.42h-.36q-5.94 3.78-7.92 3.78h-.42q-.66 0-1.26-1.14V50.7l1.68-4.56 5.82-9.96v-.72q-1.56 1.14-3.78 1.14-3 0-5.4-4.62 0-.72 1.26-.72l1.68.36q9.96-4.86 9.96-5.7.42-2.04.18-4.5t-.18-6.96h.84l.84.36q.12-.78.84-.78h.42q3.72 2.58 3.72 4.62-1.2 4.02-1.2 4.92 4.56 0 4.56 3.48h.84v-.42l.84-5.7-.42-4.56h.42q6.36.3 5.28 7.44 3.78-.24 5.52 1.32h.42q0-2.4 3.36-4.2v-4.56q-.42-1.62-.42-2.7 1.44 0 2.52-1.14zM281.06 36.6l.78.36q2.64 0 7.08-10.68-1.62 1.26-5.82 2.28-1.44 2.58-2.04 8.04zm-15.06.72h-.42q-2.88 6.24-2.88 6.9h.84q2.46-2.76 2.46-3.84v-3.06zm21.3 15.3v.72q2.46-1.68 7.92-1.86v-4.62h-.42q-4.68 0-7.5 5.76zm7.08 1.5q-.84 1.56-2.1 1.56l-1.68-.42q-3.72 1.44-3.72 3.84v.36h.42l4.56-1.14 2.1 1.14h.42q0-.96.84-1.92V54.9q0-.78-.84-.78zm35.46-41.1q1.74 0 3.54 4.8 0 3.54-9.24 9.18 0 .72-1.8.72h-.36l-.66-.36q0-1.56 4.62-8.88 2.28-5.46 3.9-5.46zm26.94 2.4q1.98 0 3.18 2.04v1.68q-3.96 4.8-9.18 6.84v.66q3.54-1.02 8.16-1.02h4.26q2.64 1.62 2.82 2.76-.24 4.08-1.44 4.08-2.64-.66-3.54-.66 0 .9-6.72 2.7 1.74 3.6 1.74 6.84l.36 4.08v.36q-1.56 14.34-4.62 14.34 0 1.5-6.36 3.72l-3.54 1.38q-1.62-.66-1.8-1.38v-1.02q10.68-7.98 10.68-17.4v-5.1l-.36-2.04q.36-.6.36-1.74-.48 0-1.44-1.68v-.36q0-1.02 6.72-2.7v-.72q-5.1 0-14.88 5.16-3.12.3-3.9.3-.72-1.08-.72-1.68l.36-.66 1.08-1.38h.72q11.7-9.24 13.8-11.28v-.36q-7.08.78-10.26 1.74-1.08-.24-1.08-2.76v-.3q0-.54 1.08-1.02h2.46q6.12-2.52 12.06-3.42zm-29.46 11.22l1.8-.3h.36q2.82 1.5 2.82 4.74-.78 2.16-3.9 5.46v.36l.72 1.02v4.44q1.74 0 1.74 2.04 0 2.16-3.18 8.52 0 1.74-1.08 1.74h-.66q-1.44 0-2.52-5.82l1.44-7.5q-1.08 0-6.06 3.42h-1.08q-1.86 0-2.1-1.02v-1.38q.24 0 11.7-15.72z"/></svg>