<svg viewBox="0 0 640 80" xmlns="http://www.w3.org/2000/svg"><path d="M42.94 12.26H58.3v2.1l-5.58.78-.06 41.34h-1.98l-26.7-37.02.06 33.6 6.96.78V56H15.58v-2.16l5.64-.72.06-37.44-.54-.78-4.92-.6v-2.04h9.36L50.02 47l-.06-31.8-7.02-.84v-2.1zm35.1 44.58q-3.72 0-7.11-1.77t-5.52-5.37q-2.13-3.6-2.13-9 0-5.46 2.13-9.09t5.52-5.46q3.39-1.83 7.11-1.83 3.66 0 7.02 1.83 3.36 1.83 5.52 5.46 2.16 3.63 2.16 9.09 0 5.4-2.13 9-2.13 3.6-5.49 5.37-3.36 1.77-7.08 1.77zm0-2.4q4.5 0 7.08-3.51T87.7 40.7q0-6.72-2.58-10.35t-7.08-3.63q-4.56 0-7.11 3.63-2.55 3.63-2.55 10.35t2.55 10.23q2.55 3.51 7.11 3.51zm36.96-2.1l1.2 1.5q-2.64 3-7.2 3-3.42 0-5.25-1.86t-1.83-5.7q0-1.14.03-2.31.03-1.17.03-2.91V27.92H96.1V25.7l6.12-.72 1.44-8.88h3.3l-.36 9.06h9v2.76h-9.06v21.12q0 2.64 1.02 3.84 1.02 1.2 2.88 1.2 2.1 0 4.56-1.74zm19.5 4.5q-3.72 0-7.11-1.77t-5.52-5.37q-2.13-3.6-2.13-9 0-5.46 2.13-9.09t5.52-5.46q3.39-1.83 7.11-1.83 3.66 0 7.02 1.83 3.36 1.83 5.52 5.46 2.16 3.63 2.16 9.09 0 5.4-2.13 9-2.13 3.6-5.49 5.37-3.36 1.77-7.08 1.77zm0-2.4q4.5 0 7.08-3.51t2.58-10.23q0-6.72-2.58-10.35t-7.08-3.63q-4.56 0-7.11 3.63-2.55 3.63-2.55 10.35t2.55 10.23q2.55 3.51 7.11 3.51zm49.32-23.88l2.58.96q4.44 1.74 7.08 3.66 2.64 1.92 3.78 4.2 1.14 2.28 1.14 5.34 0 3.84-1.98 6.57-1.98 2.73-5.4 4.2-3.42 1.47-7.8 1.47-3.66 0-6.99-1.05t-5.49-2.43l.3-9h3.06l1.44 7.92q1.74.96 3.42 1.41 1.68.45 3.96.45 4.92 0 7.92-2.16t3-6.36q0-3.24-2.04-5.19-2.04-1.95-6.72-3.81l-2.46-.96q-5.04-2.04-8.01-5.04-2.97-3-2.97-7.74 0-3.78 1.89-6.39t5.1-3.99q3.21-1.38 7.17-1.38 3.36 0 5.88.93t4.68 2.49l-.3 8.4h-3.18l-1.44-7.62q-1.32-.84-2.7-1.17-1.38-.33-3.06-.33-4.08 0-6.78 1.95t-2.7 5.85q0 3.3 2.01 5.37 2.01 2.07 5.61 3.45zm25.38 7.38h14.04q1.98 0 2.61-.9.63-.9.63-2.34 0-2.1-.99-3.93t-2.73-2.94q-1.74-1.11-4.08-1.11-2.16 0-4.2 1.23T211 31.64q-1.44 2.46-1.8 6.3zm21.36 2.34l-21.42-.06q.06 6.66 3.21 9.96 3.15 3.3 7.89 3.3 3.18 0 5.43-1.29 2.25-1.29 3.99-3.39l1.26.96Q229.06 53 226 54.92q-3.06 1.92-7.26 1.92-4.2 0-7.47-1.89-3.27-1.89-5.13-5.49-1.86-3.6-1.86-8.7 0-5.04 2.01-8.73 2.01-3.69 5.37-5.7 3.36-2.01 7.32-2.01 3.48 0 6.18 1.5 2.7 1.5 4.26 4.23 1.56 2.73 1.56 6.51 0 2.46-.42 3.72zm14.58-15.9l.84.6.6 7.86q1.62-3.96 4.29-6.24 2.67-2.28 5.49-2.28 1.44 0 2.76.57 1.32.57 1.8 1.59 0 1.92-.81 3t-2.55 1.08q-1.14 0-2.04-.48-.9-.48-1.8-1.26l-.84-.72q-2.1 1.38-3.6 3.51t-2.64 5.25v5.46q0 2.28.03 5.37.03 3.09.09 5.61l5.52.78V56h-15.3v-1.92l4.92-.72q.12-2.52.15-5.64.03-3.12.03-5.4v-3.3q0-2.88-.06-4.95-.06-2.07-.18-4.17l-5.34-.42v-1.92l8.64-3.18zm26.1-8.16q-1.56 0-2.67-1.02-1.11-1.02-1.11-2.64 0-1.68 1.11-2.67t2.67-.99q1.62 0 2.73.99 1.11.99 1.11 2.67 0 1.62-1.11 2.64t-2.73 1.02zm2.52 37.08l4.74.78V56h-14.64v-1.92l5.16-.78q.06-2.46.09-5.58t.03-5.4V34.1q0-2.04-.12-4.26l-5.52-.36V27.5l9.42-3.12.9.6-.18 8.52v8.82q0 2.28.03 5.4.03 3.12.09 5.58zm9.36-25.38V25.7l5.82-.72q.3-5.28 1.35-8.58t3.21-5.52q1.98-2.22 4.29-3.06 2.31-.84 4.41-.84 2.16 0 3.81.78t2.13 2.4q-.06 1.08-.93 1.8-.87.72-2.43.72-1.14 0-2.22-.48-1.08-.48-2.28-1.38l-1.74-1.38q-1.74.9-2.82 2.64-1.2 1.8-1.86 4.8-.66 3-.54 8.28h9.42v2.76h-9.3v14.4q0 2.76.03 5.49.03 2.73.09 5.49l6.12.78V56h-16.5v-1.92l5.58-.78q.06-2.76.09-5.49.03-2.73.03-5.49v-14.4h-5.76zm39.66-15.66h18.48v2.1l-6.24.66q-.06 4.26-.09 8.64-.03 4.38-.03 8.88v10.38q0 3.3-.06 5.58-.06 2.28-.21 3.9t-.39 3.12q-.54 3.6-2.37 6t-4.41 3.63q-2.58 1.23-5.4 1.23-1.74 0-3.21-.6t-1.89-2.16q.24-1.56 1.23-2.19.99-.63 2.31-.63 1.2 0 2.22.39 1.02.39 2.34 1.41l1.56 1.14q1.62-1.26 2.58-3.48.96-2.22.96-6 0-1.02-.03-2.49-.03-1.47-.06-4.05t-.09-6.75q-.06-4.17-.12-10.5t-.18-15.39l-6.9-.72v-2.1zm40.26 2.46h-4.74q-.12 4.32-.15 8.76-.03 4.44-.03 9v3.42h4.32q4.44 0 7.11-1.38t3.87-3.81q1.2-2.43 1.2-5.61 0-4.98-2.76-7.68-2.76-2.7-8.82-2.7zM361.9 38.3h-3.78q0 3.72.03 7.41t.15 7.47l6.42.66V56h-18v-2.16l6.24-.66q.12-4.26.15-8.64.03-4.38.03-8.76v-3.3q0-4.38-.03-8.76t-.15-8.7l-6.24-.66v-2.1H364q7.98 0 11.94 3.51 3.96 3.51 3.96 9.33 0 3.66-1.8 6.66t-5.76 4.77q-3.96 1.77-10.44 1.77zm49.92-5.04h5.94q5.28 0 8.04-2.73 2.76-2.73 2.76-6.87 0-4.26-2.52-6.6t-7.86-2.34H412q-.12 4.32-.15 8.82t-.03 9.72zM430 42.68l3.24 10.62 5.4.54V56q-.78.24-1.95.42t-2.67.18q-2.94 0-4.29-.87t-1.89-2.91l-3-10.8q-.66-2.64-1.71-3.99-1.05-1.35-2.79-1.86t-4.5-.51h-4.02q0 4.62.03 8.94.03 4.32.15 8.58l6.24.66V56h-17.82v-2.16l6.24-.66q.12-4.26.15-8.64.03-4.38.03-8.76v-3.3q0-4.38-.03-8.76t-.15-8.7l-6.24-.66v-2.1h17.88q7.32 0 11.4 2.97t4.08 8.49q0 3.96-2.79 7.05t-8.19 4.11q2.82.6 4.44 2.43 1.62 1.83 2.76 5.37zm17.1-4.74h14.04q1.98 0 2.61-.9.63-.9.63-2.34 0-2.1-.99-3.93t-2.73-2.94q-1.74-1.11-4.08-1.11-2.16 0-4.2 1.23t-3.48 3.69q-1.44 2.46-1.8 6.3zm21.36 2.34l-21.42-.06q.06 6.66 3.21 9.96 3.15 3.3 7.89 3.3 3.18 0 5.43-1.29 2.25-1.29 3.99-3.39l1.26.96q-1.86 3.24-4.92 5.16-3.06 1.92-7.26 1.92-4.2 0-7.47-1.89-3.27-1.89-5.13-5.49-1.86-3.6-1.86-8.7 0-5.04 2.01-8.73 2.01-3.69 5.37-5.7 3.36-2.01 7.32-2.01 3.48 0 6.18 1.5 2.7 1.5 4.26 4.23 1.56 2.73 1.56 6.51 0 2.46-.42 3.72zm19.08 3.3q3.36 0 5.25-2.43 1.89-2.43 1.89-6.27 0-3.72-1.83-6.06-1.83-2.34-5.13-2.34t-5.22 2.37q-1.92 2.37-1.92 6.21t1.86 6.18q1.86 2.34 5.1 2.34zm5.46 13.2h-7.68q-1.74 0-3.18-.18-1.5 1.5-2.25 2.91-.75 1.41-.75 3.27 0 3.3 2.46 4.89 2.46 1.59 6.54 1.59 5.64 0 8.55-2.13 2.91-2.13 2.91-5.07 0-2.28-1.5-3.78t-5.1-1.5zm10.02-32.4l1.02.66v3.54l-6.84-.06q1.92 2.58 1.92 6.48 0 3.42-1.5 5.82-1.5 2.4-4.08 3.66-2.58 1.26-5.88 1.26-2.7 0-5.04-.84-.96 1.26-1.5 2.34-.54 1.08-.54 2.28 0 1.38.93 2.28.93.9 3.45.9h8.82q4.98 0 7.44 2.04t2.46 5.94q0 2.76-1.74 5.31t-5.19 4.14q-3.45 1.59-8.67 1.59-6.84 0-10.14-2.25-3.3-2.25-3.3-5.91 0-2.16 1.47-3.96 1.47-1.8 4.83-3.42-1.98-.54-3.09-1.74-1.11-1.2-1.11-3.06 0-1.62.99-3.3.99-1.68 3.39-3.84-2.28-1.32-3.63-3.63-1.35-2.31-1.35-5.61 0-3.42 1.5-5.79t4.14-3.63q2.64-1.26 5.94-1.26 4.74 0 7.86 2.4l7.44-2.34zm33.84 10.14v18.84l4.62.72V56l-8.52.54-.48-6q-2.52 3.12-5.52 4.71-3 1.59-6.18 1.59-4.02 0-6.3-2.64-2.28-2.64-2.22-9.24l.18-16.68-4.98-.84v-1.92l9-.78.6.66-.3 9.12V44.6q0 4.68 1.44 6.54 1.44 1.86 4.38 1.86 5.16 0 9.78-4.8l.12-19.92-4.92-.84v-1.92l8.88-.78.66.66-.24 9.12zm19.32 18.78l5.4.78V56H545.8v-1.92l5.58-.78q.06-2.64.09-5.49t.03-5.49V12.44l-5.46-.48V10.1l9.3-2.52.9.54-.18 9.24v24.96q0 2.64.03 5.49t.09 5.49zm28.38-4.14V38.78q-1.86.48-3.69 1.08-1.83.6-3.03 1.08-2.88 1.08-4.38 2.28-1.5 1.2-2.01 2.43-.51 1.23-.51 2.43 0 2.7 1.56 3.96 1.56 1.26 3.96 1.26 1.92 0 3.57-.93t4.53-3.21zm9.84 3.3l1.02 1.26q-1.08 1.62-2.37 2.31t-2.85.69q-2.28 0-3.69-1.44-1.41-1.44-1.83-3.9-2.76 2.76-4.89 4.11-2.13 1.35-5.07 1.35-3.6 0-6.12-2.04t-2.52-5.88q0-2.04.93-3.72.93-1.68 3.21-3.21t6.36-2.97q1.74-.54 3.84-1.14 2.1-.6 4.14-1.02v-1.92q0-3.3-.69-5.07-.69-1.77-2.13-2.46t-3.72-.69q-.96 0-1.98.12t-2.22.54l-1.32 4.44q-.72 2.64-2.94 2.64-1.14 0-1.83-.6-.69-.6-.81-1.68.96-3.72 4.26-5.79t8.04-2.07q4.98 0 7.44 2.46t2.46 8.34v14.22q0 2.58.69 3.57.69.99 1.89.99.84 0 1.44-.36t1.26-1.08zm12.42-28.08l.84.6.6 7.86q1.62-3.96 4.29-6.24 2.67-2.28 5.49-2.28 1.44 0 2.76.57 1.32.57 1.8 1.59 0 1.92-.81 3t-2.55 1.08q-1.14 0-2.04-.48-.9-.48-1.8-1.26l-.84-.72q-2.1 1.38-3.6 3.51t-2.64 5.25v5.46q0 2.28.03 5.37.03 3.09.09 5.61l5.52.78V56h-15.3v-1.92l4.92-.72q.12-2.52.15-5.64.03-3.12.03-5.4v-3.3q0-2.88-.06-4.95-.06-2.07-.18-4.17l-5.34-.42v-1.92l8.64-3.18z"/></svg>