<svg viewBox="0 0 437 80" xmlns="http://www.w3.org/2000/svg"><path d="M17.56 55.42q-2.34 0-2.34-2.46V14.8q0-2.52 2.16-2.52.9 0 1.38.33.48.33 1.08 1.17l24.72 32.94V14.68q0-2.4 2.34-2.4 2.22 0 2.22 2.4v38.34q0 2.4-1.98 2.4-.9 0-1.44-.36-.54-.36-1.14-1.14L19.84 20.86v32.1q0 2.46-2.28 2.46zm51.72.12q-10.5 0-10.5-11.58V27.88q0-2.46 2.4-2.46 2.46 0 2.46 2.46V43.9q0 3.9 1.59 5.76 1.59 1.86 5.01 1.86 3.72 0 6.06-2.49 2.34-2.49 2.34-6.63V27.88q0-2.46 2.46-2.46 2.4 0 2.4 2.46V52.9q0 2.52-2.34 2.52-2.4 0-2.4-2.52v-2.82q-1.38 2.64-3.87 4.05-2.49 1.41-5.61 1.41zm25.74-.12q-2.4 0-2.4-2.52V27.88q0-2.46 2.34-2.46 2.4 0 2.4 2.46v2.94q1.44-2.76 4.08-4.14t5.94-1.38q10.38 0 10.38 11.52V52.9q0 2.52-2.4 2.52-2.46 0-2.46-2.52V37.12q0-4.08-1.59-5.97-1.59-1.89-5.07-1.89-4.02 0-6.39 2.49t-2.37 6.63V52.9q0 2.52-2.46 2.52zm34.08-36.6q-3.18 0-3.18-3 0-2.94 3.18-2.94t3.18 2.94q0 3-3.18 3zm0 36.48q-2.4 0-2.4-2.64V28.12q0-2.58 2.4-2.58 2.46 0 2.46 2.58v24.54q0 2.64-2.46 2.64zm23.22.24q-5.16 0-7.74-2.73T142 44.92v-15.3h-4.02q-2.1 0-2.1-1.92 0-1.86 2.1-1.86H142v-6.9q0-2.46 2.46-2.46 2.4 0 2.4 2.46v6.9h7.56q2.1 0 2.1 1.86 0 1.92-2.1 1.92h-7.56v14.82q0 3.42 1.44 5.19 1.44 1.77 4.68 1.77 1.14 0 1.92-.24t1.38-.24q.54-.06.9.36t.36 1.44q0 .72-.27 1.32-.27.6-.93.84-.72.24-1.89.45-1.17.21-2.13.21zm21.12 0q-4.26 0-7.38-1.86t-4.83-5.25q-1.71-3.39-1.71-8.01 0-4.62 1.71-8.01 1.71-3.39 4.83-5.25 3.12-1.86 7.38-1.86 4.2 0 7.35 1.86 3.15 1.86 4.86 5.25 1.71 3.39 1.71 8.01 0 4.62-1.71 8.01-1.71 3.39-4.86 5.25-3.15 1.86-7.35 1.86zm0-3.9q4.08 0 6.54-2.91t2.46-8.31q0-5.46-2.46-8.34t-6.54-2.88q-4.14 0-6.57 2.88-2.43 2.88-2.43 8.34 0 5.4 2.43 8.31t6.57 2.91zm39.84 3.78q-2.46 0-2.46-2.58V15.22q0-2.52 2.52-2.52h14.22q6.84 0 10.47 3.18 3.63 3.18 3.63 9.06 0 4.68-2.55 7.68t-7.23 3.9q2.76.96 4.74 4.68l5.76 10.74q.66 1.26.24 2.37-.42 1.11-1.92 1.11-1.02 0-1.68-.45-.66-.45-1.14-1.41l-6.54-12.12q-1.38-2.58-3.18-3.45-1.8-.87-4.74-.87h-7.68v15.72q0 2.58-2.46 2.58zm2.46-38.64v16.44h11.1q9.96 0 9.96-8.28 0-8.16-9.96-8.16h-11.1zm47.04 38.76q-6.9 0-10.92-4.05t-4.02-11.01q0-4.5 1.8-7.95t4.95-5.34q3.15-1.89 7.29-1.89 5.94 0 9.3 3.81 3.36 3.81 3.36 10.47 0 1.86-2.1 1.86h-19.86q.24 4.98 2.88 7.59 2.64 2.61 7.32 2.61 1.98 0 4.02-.51 2.04-.51 3.96-1.83 1.38-.9 2.31-.36.93.54.96 1.65.03 1.11-1.23 1.95-1.98 1.44-4.71 2.22-2.73.78-5.31.78zM262 28.9q-4.14 0-6.54 2.58-2.4 2.58-2.82 6.78h17.7q-.18-4.44-2.31-6.9T262 28.9zm32.46 37.44q-3.18 0-6.21-.75t-5.49-2.37q-.9-.54-1.05-1.29-.15-.75.21-1.44t1.05-.99q.69-.3 1.47.12 2.64 1.62 5.04 2.22 2.4.6 4.74.6 8.64 0 8.64-8.88V48.4q-1.26 2.76-3.93 4.35-2.67 1.59-6.09 1.59-4.02 0-6.96-1.86-2.94-1.86-4.53-5.13-1.59-3.27-1.59-7.59t1.59-7.59q1.59-3.27 4.53-5.07 2.94-1.8 6.96-1.8 3.42 0 6.06 1.5 2.64 1.5 3.9 4.2v-3.12q0-2.46 2.4-2.46t2.4 2.46V52.9q0 6.72-3.33 10.08-3.33 3.36-9.81 3.36zm-.72-15.96q4.2 0 6.66-2.88t2.46-7.74q0-4.86-2.46-7.71-2.46-2.85-6.66-2.85-4.14 0-6.6 2.85t-2.46 7.71q0 4.86 2.46 7.74t6.6 2.88zm33.3 5.16q-10.5 0-10.5-11.58V27.88q0-2.46 2.4-2.46 2.46 0 2.46 2.46V43.9q0 3.9 1.59 5.76 1.59 1.86 5.01 1.86 3.72 0 6.06-2.49 2.34-2.49 2.34-6.63V27.88q0-2.46 2.46-2.46 2.4 0 2.4 2.46V52.9q0 2.52-2.34 2.52-2.4 0-2.4-2.52v-2.82q-1.38 2.64-3.87 4.05-2.49 1.41-5.61 1.41zm32.22 0q-4.32 0-6.6-2.61-2.28-2.61-2.28-7.59v-30.6q0-2.46 2.4-2.46 2.46 0 2.46 2.46v30.24q0 6.42 5.1 6.42.54 0 .96-.06.42-.06.84-.06.66-.06.93.3t.27 1.44q0 2.04-2.04 2.34-.48.12-1.02.15t-1.02.03zm18.06 0q-3 0-5.37-1.17t-3.75-3.21q-1.38-2.04-1.38-4.56 0-3.18 1.65-5.04 1.65-1.86 5.46-2.67 3.81-.81 10.41-.81h1.92v-1.86q0-3.72-1.53-5.37t-4.89-1.65q-2.1 0-4.23.54-2.13.54-4.41 1.74-1.02.54-1.71.21-.69-.33-.96-1.08t0-1.56q.27-.81 1.17-1.23 2.58-1.32 5.19-1.92 2.61-.6 4.95-.6 5.64 0 8.37 2.76 2.73 2.76 2.73 8.58V52.9q0 2.52-2.22 2.52-2.34 0-2.34-2.52v-2.94q-1.14 2.58-3.51 4.08t-5.55 1.5zm.78-3.66q3.6 0 5.88-2.49t2.28-6.33v-1.8h-1.86q-4.86 0-7.65.45t-3.9 1.56q-1.11 1.11-1.11 3.03 0 2.46 1.71 4.02 1.71 1.56 4.65 1.56zm24.3 3.54q-2.46 0-2.46-2.52V27.88q0-2.46 2.34-2.46 2.4 0 2.4 2.46v3.18q1.2-2.76 3.72-4.23 2.52-1.47 6-1.59 1.92-.18 2.04 1.92.18 2.1-2.16 2.34l-.96.12q-4.14.36-6.3 2.61t-2.16 6.15V52.9q0 2.52-2.46 2.52z"/></svg>