<svg viewBox="0 0 483 80" xmlns="http://www.w3.org/2000/svg"><path d="M46.71 17.68q1.59 2.4 2.37 5.07.78 2.67.78 5.91t-.72 6.9q-.72 3.66-2.4 7.32t-4.08 6.48q-2.4 2.82-6.06 4.59-3.66 1.77-8.04 1.77-6.42 0-9.96-4.59-3.54-4.59-3.54-11.82t2.55-13.26q2.55-6.03 7.32-9.84 4.77-3.81 10.59-3.81 3.84 0 6.72 1.44t4.47 3.84zM30.39 51.64q2.79 0 4.74-2.46 1.95-2.46 2.97-6.42 2.04-7.8 2.04-16.02 0-10.26-5.52-10.26-3.12 0-5.46 3.72-4.38 7.02-4.38 19.44 0 6.78.78 8.4.36.9.96 1.86 1.08 1.74 3.87 1.74zm26.22 4.08q-2.07 0-3.42-1.38t-1.35-3.87q0-2.49 2.97-15.9t2.97-19.35l-.36-2.64q4.68-1.62 8.76-1.62.6.84.6 2.94 0 4.8-3.03 18.57t-3.03 16.02q0 2.25.54 2.25l4.2-1.5 1.08 2.1q-2.04 1.62-4.95 3t-4.98 1.38zm11.07-11.1q0-7.5 4.53-11.85t10.29-4.35q3.54 0 5.82 1.74 2.28 1.74 2.28 4.65t-1.47 4.89q-1.47 1.98-3.57 3.06-4.26 2.1-7.8 2.64l-1.44.18q.42 5.64 4.62 5.64 1.44 0 3.06-.72t2.52-1.44l.9-.72 1.44 1.92q-.48.66-1.92 1.74t-2.7 1.8q-3.48 1.92-7.62 1.92-4.14 0-6.54-2.94-2.4-2.94-2.4-8.16zm8.58-1.98q3.06-.54 4.86-2.58 1.8-2.04 1.8-5.28T81 31.54q-2.28 0-3.51 3.87t-1.23 7.23zm24 13.08q-4.14 0-6.48-2.91-2.34-2.91-2.34-8.13 0-6.66 3.57-11.46 3.57-4.8 9.87-4.8l2.16.12q1.02-.54 2.28-.54 4.74 0 4.74 8.94 2.46-.12 4.98-.66l.96-.24.36 2.34q-1.98.84-5.34 1.5l-1.2.24q-1.14 6.3-4.62 10.95-3.48 4.65-8.94 4.65zm3.24-5.16q2.52 0 4.53-3.24 2.01-3.24 2.79-6.84-6.42 0-6.42-4.8 0-1.92.78-3.6l.3-.6q-.24-.12-.6-.12t-.54.12q-1.5.96-2.82 4.5-1.32 3.54-1.32 8.1 0 6.48 3.3 6.48zm49.02-7.32q0 5.76-4.38 9.12-4.38 3.36-10.62 3.36-4.2 0-6.93-2.13-2.73-2.13-3.03-3.63.66-1.98 2.82-4.44 2.16-2.46 3.9-3 3.06 1.98 5.7 8.82 3.9-.12 3.9-4.26 0-2.28-1.83-5.61-1.83-3.33-3.99-6.24t-3.99-6.54q-1.83-3.63-1.83-6.45 0-4.56 3.69-7.2 3.69-2.64 8.31-2.64 4.62 0 7.17 1.98t2.55 4.5q0 2.52-1.92 5.16t-3.84 4.2l-1.92 1.56q.72.96 1.74 2.46t2.76 5.1q1.74 3.6 1.74 5.88zm-4.59-19.68q.81-.78 1.47-1.89.66-1.11.66-2.34 0-1.23-1.44-2.07-1.44-.84-3.45-.84-2.01 0-3.36.93t-1.35 2.22q0 1.29.87 3t1.71 2.85l.9 1.14q.6-.3 1.89-1.26t2.1-1.74zm22.05 7.86q-2.4 0-3.84 3.99t-1.44 8.55q0 7.2 4.44 7.2 1.44 0 3.06-.69t2.58-1.35l.9-.72 1.38 1.86q-.48.66-1.92 1.74t-2.7 1.8q-1.26.72-3.24 1.32-1.98.6-3.9.6-4.68 0-7.02-3.06t-2.34-8.22q0-7.14 3.93-11.58t10.11-4.44q4.02 0 6.39 1.83t2.37 4.5q0 2.67-1.68 4.59-1.5 0-3.48-.66t-3-1.62l.9-5.28q-.54-.36-1.5-.36zm11.22 23.76h-.42q-.12-.48-.12-2.19t1.62-9.21q1.62-7.5 1.62-8.58 0-1.86-1.68-4.08l-.54-.72.06-.78q3.24-.9 10.38-.9.72 1.56.72 4.38.66-1.08 2.76-2.88 2.1-1.8 4.32-1.8 3.24 0 3.24 5.64-.3.36-.81.93-.51.57-2.04 1.59t-2.97 1.26q-.06 0-1.02-1.62t-1.44-1.62q-1.5.54-2.64 1.8-2.76 12.42-2.76 16.08 0 1.32.06 1.86-2.1.84-8.34.84zm33.06-23.04q0 2.52-1.62 8.67t-1.62 8.04q0 1.89.54 1.89.36 0 2.76-1.14l.72-.36 1.02 2.1q-.54.48-1.44 1.2-.9.72-3.36 1.95t-4.56 1.23q-2.1 0-3.3-1.29-1.2-1.29-1.2-3.48t1.5-7.8q1.5-5.61 1.5-7.29 0-2.52-1.56-4.74l-.54-.72.06-.78q3.18-.9 10.32-.9.78.9.78 3.42zm-6.84-9.99q-1.2-1.17-1.2-3.15t1.65-3.48q1.65-1.5 3.81-1.5t3.36 1.2q1.2 1.2 1.2 3.15t-1.71 3.45q-1.71 1.5-3.81 1.5t-3.3-1.17zm9 46.29q-.3-.72-.3-3.18t2.34-13.23q2.34-10.77 2.34-16.59 0-1.14-.54-2.43-.54-1.29-1.14-2.01l-.54-.66.06-.78q2.82-.9 9.96-.9.66 1.26.84 3.54 4.62-3.78 7.71-3.78t4.98 2.58q1.89 2.58 1.89 7.56 0 8.7-3.18 12.93t-8.04 4.23q-2.52 0-4.2-.72l-.6-.24.42-2.34q.54.12 1.26.12 1.56 0 2.73-1.44t1.77-3.66q1.2-4.44 1.2-8.22 0-5.4-2.22-5.4-1.74 0-3.72 1.38-.24 4.2-2.46 14.7-2.22 10.5-2.22 16.92-3.24 1.32-8.34 1.62zm43.32-39.3h5.82q-.12 1.5-1.02 3.48-2.28-.24-4.32-.24h-1.08q-2.76 13.38-2.76 16.68 0 1.74.75 1.74t3.99-1.5l1.08 1.98q-5.34 4.44-9.9 4.44-2.1 0-3.45-1.32t-1.35-3.51q0-2.19.51-4.95.51-2.76 1.41-6.75.9-3.99 1.32-6.45-2.22.18-3.3.36-.12-.72-.12-1.95t.18-2.01h3.78q.48-3.24.48-6.12l-.06-1.86v-.18q4.68-1.62 8.82-1.62.24 1.2.24 3t-1.02 6.78zm19.14 26.16q-1.14 0-1.56-.06.42-3.48 3.69-17.67 3.27-14.19 3.27-17.97 0-.72-.84-1.89t-1.68-1.95l-.78-.84.18-.96q8.22-1.56 17.4-1.56 11.04 0 11.04 8.7 0 4.26-2.13 7.77t-6.63 5.49q3.36 11.22 5.76 14.52 1.08 1.38 1.68 1.38 1.08 0 3.36-1.08l.72-.36 1.38 2.22q-2.22 2.04-5.13 3.36-2.91 1.32-5.46 1.32t-4.2-2.19q-1.65-2.19-3-6.45t-2.73-10.92q-1.92.12-2.94.12-3.06 13.14-3.36 17.76-2.58 1.26-8.04 1.26zm12.3-23.1h1.44q3.6 0 5.67-3.21t2.07-7.65q0-2.34-.84-3.78T297 16.12q-.72 0-1.71.21t-.99.27q-.96 6.18-3.12 15.6zm23.04 12.42q0-7.5 4.53-11.85t10.29-4.35q3.54 0 5.82 1.74 2.28 1.74 2.28 4.65t-1.47 4.89q-1.47 1.98-3.57 3.06-4.26 2.1-7.8 2.64l-1.44.18q.42 5.64 4.62 5.64 1.44 0 3.06-.72t2.52-1.44l.9-.72 1.44 1.92q-.48.66-1.92 1.74t-2.7 1.8q-3.48 1.92-7.62 1.92-4.14 0-6.54-2.94-2.4-2.94-2.4-8.16zm8.58-1.98q3.06-.54 4.86-2.58 1.8-2.04 1.8-5.28t-1.92-3.24q-2.28 0-3.51 3.87t-1.23 7.23zm23.19 18.84q-2.01 1.2-2.01 2.34t1.29 1.14q1.29 0 2.91-1.23t2.7-3.99q-2.88.54-4.89 1.74zm16.53-32.7l1.26.06q.24.24.24 1.05t-.12 1.74q-.12.93-.42 4.17-.3 3.24-.6 5.64-3.06 27-16.44 27-2.16 0-3.93-1.14t-1.77-2.94q0-2.4 2.94-4.38t7.92-3.06q0-.06.36-1.68.36-1.62.48-2.64-3.6 2.64-6.75 2.64t-5.16-2.46q-2.01-2.46-2.01-7.86 0-7.08 3.18-11.79 3.18-4.71 8.4-4.71 2.94 0 5.82 1.44 3.06-1.08 6.6-1.08zm-9.72 3.18q-2.58 0-4.08 4.17t-1.5 9.24q0 5.07 2.28 5.07 1.5 0 3.54-1.14 1.68-10.08 2.4-16.62-1.68-.72-2.64-.72zm13.86 18.51q0-2.55 1.56-8.76t1.56-7.62q0-1.41-2.16-3.75l.06-.78q4.08-.84 10.74-.84.3.78.3 2.82t-1.68 8.7q-1.68 6.66-1.68 8.28 0 1.62 1.2 1.62 1.74 0 4.02-1.26.24-1.44 1.2-5.52 2.16-9.6 2.16-13.74 2.1-.84 7.56-.84h1.14q0 2.82-1.68 11.01t-1.68 9.6q0 1.41.6 1.41.36 0 3.42-1.44l1.14 1.92q-5.34 4.44-9.36 4.44-1.92 0-3.27-1.08t-1.53-2.82q-4.86 3.96-8.82 3.96-2.1 0-3.45-1.38t-1.35-3.93zm34.11 5.25q-2.07 0-3.42-1.38T396 50.47q0-2.49 2.97-15.9t2.97-19.35l-.36-2.64q4.68-1.62 8.76-1.62.6.84.6 2.94 0 4.8-3.03 18.57t-3.03 16.02q0 2.25.54 2.25l4.2-1.5 1.08 2.1q-2.04 1.62-4.95 3t-4.98 1.38zm29.19-25.56q.12-.12.66-1.56 2.82 0 7.56 1.68-1.5 4.98-2.4 10.41-.9 5.43-.9 7.74 0 2.31.48 2.31.36 0 2.64-1.14l.72-.36 1.08 2.1q-.54.48-1.41 1.2-.87.72-3.27 1.95t-4.32 1.23q-3.72 0-4.32-3.36-3.84 3.36-6.93 3.36t-5.22-2.4q-2.13-2.4-2.13-7.56 0-8.04 3.3-12.69t7.98-4.65q3.36 0 6.48 1.74zm-6.84 20.46q1.44 0 3.24-1.14.42-8.46 2.82-16.74-1.8-.78-3.06-.78-2.16 0-3.69 4.23-1.53 4.23-1.53 9.33t2.22 5.1zm18.96 4.56h-.42q-.12-.48-.12-2.19t1.62-9.21q1.62-7.5 1.62-8.58 0-1.86-1.68-4.08l-.54-.72.06-.78q3.24-.9 10.38-.9.72 1.56.72 4.38.66-1.08 2.76-2.88 2.1-1.8 4.32-1.8 3.24 0 3.24 5.64-.3.36-.81.93-.51.57-2.04 1.59t-2.97 1.26q-.06 0-1.02-1.62t-1.44-1.62q-1.5.54-2.64 1.8-2.76 12.42-2.76 16.08 0 1.32.06 1.86-2.1.84-8.34.84z"/></svg>