<svg viewBox="0 0 666 80" xmlns="http://www.w3.org/2000/svg"><path d="M56.71 33.53q0 10.81-5.31 16.43-5.3 5.63-15.52 5.63-10.08 0-15.46-5.66-5.37-5.65-5.37-16.46 0-10.7 5.34-16.34 5.35-5.64 15.55-5.64 10.22 0 15.49 5.6 5.28 5.6 5.28 16.44zm-29.48 0q0 12.42 8.65 12.42 4.39 0 6.52-3.02 2.12-3.02 2.12-9.4 0-6.42-2.15-9.48-2.16-3.06-6.43-3.06-8.71 0-8.71 12.54zm56.46 22.06q-2.52 0-4.51-.84-1.99-.83-3.96-3h-.52q.52 3.48.52 4.33v13.33H63.77v-47.6h9.31l1.62 4.22h.52q3.2-4.81 8.82-4.81 5.51 0 8.64 4.57 3.14 4.57 3.14 12.54 0 8.03-3.27 12.64-3.26 4.62-8.86 4.62zm-3.84-25.38q-2.52 0-3.53 1.81-1.01 1.8-1.1 5.34v.91q0 4.28 1.15 6.18 1.14 1.91 3.6 1.91 2.2 0 3.19-1.89 1-1.89 1-6.26 0-4.27-1-6.13-.99-1.87-3.31-1.87zm38.53 25.38q-8.29 0-12.88-4.41-4.58-4.41-4.58-12.56 0-8.41 4.24-12.9 4.25-4.5 12.13-4.5 7.5 0 11.59 3.91t4.09 11.27v5.09h-20.48q.12 2.79 2.03 4.37 1.92 1.58 5.23 1.58 3.02 0 5.56-.57 2.53-.57 5.49-1.95v8.23q-2.7 1.38-5.57 1.91t-6.85.53zm-.68-26.58q-2.02 0-3.38 1.28-1.36 1.27-1.6 4h9.85q-.06-2.41-1.37-3.84-1.3-1.44-3.5-1.44zM171.84 55h-11.45V36.89q0-3.31-.95-4.99-.96-1.69-3.06-1.69-2.91 0-4.19 2.32-1.29 2.31-1.29 7.94V55h-11.46V21.81h8.64l1.44 4.1h.67q1.47-2.35 4.06-3.52t5.96-1.17q5.51 0 8.57 3.19 3.06 3.2 3.06 9V55zm52.06-13.01q0 3.99-2.02 7.08t-5.83 4.8q-3.81 1.72-8.93 1.72-4.28 0-7.18-.6-2.9-.61-6.04-2.1V42.58q3.31 1.7 6.89 2.65 3.57.95 6.56.95 2.58 0 3.78-.89 1.2-.9 1.2-2.3 0-.88-.48-1.54t-1.55-1.33q-1.07-.68-5.7-2.76-4.19-1.9-6.29-3.69-2.09-1.79-3.1-4.1-1.01-2.31-1.01-5.48 0-5.92 4.3-9.23 4.31-3.31 11.84-3.31 6.65 0 13.56 3.08l-3.54 8.93q-6.01-2.75-10.37-2.75-2.26 0-3.28.79-1.03.79-1.03 1.96 0 1.26 1.31 2.26 1.3 1 7.07 3.63 5.54 2.49 7.69 5.35 2.15 2.86 2.15 7.19zM259.44 55h-7.94l-2.2-4.39h-.23q-2.31 2.87-4.72 3.92-2.4 1.06-6.21 1.06-4.68 0-7.38-2.82-2.7-2.81-2.7-7.91 0-5.3 3.7-7.89 3.69-2.59 10.69-2.92l5.54-.17v-.47q0-4.1-4.05-4.1-3.63 0-9.23 2.46l-3.31-7.56q5.81-2.99 14.65-2.99 6.39 0 9.89 3.16 3.5 3.17 3.5 8.85V55zm-16.43-7.5q2.08 0 3.56-1.32 1.47-1.32 1.47-3.43v-2.57l-2.63.11q-5.66.21-5.66 4.16 0 3.05 3.26 3.05zm56.63 7.5h-11.46V36.89q0-3.31-.95-4.99-.95-1.69-3.06-1.69-2.9 0-4.19 2.32-1.29 2.31-1.29 7.94V55h-11.46V21.81h8.65l1.43 4.1h.68q1.46-2.35 4.05-3.52 2.6-1.17 5.97-1.17 5.5 0 8.57 3.19 3.06 3.2 3.06 9V55zm33.42-10.2q0 5.34-3.63 8.06-3.63 2.73-10.43 2.73-3.69 0-6.41-.4-2.73-.4-5.57-1.45v-9.17q2.67 1.17 5.84 1.93 3.18.77 5.67.77 3.72 0 3.72-1.7 0-.88-1.04-1.57-1.04-.69-6.05-2.68-4.57-1.88-6.38-4.26-1.82-2.39-1.82-6.05 0-4.63 3.58-7.21 3.57-2.58 10.1-2.58 3.28 0 6.17.72t5.99 2.09l-3.1 7.39q-2.29-1.03-4.84-1.75-2.55-.71-4.16-.71-2.81 0-2.81 1.37 0 .85.98 1.45t5.67 2.45q3.49 1.43 5.2 2.81 1.71 1.38 2.52 3.24.8 1.86.8 4.52zm48.05.77V55h-25.43V12.17h25.43v9.29h-13.86v6.73h12.84v9.29h-12.84v8.09h13.86zm3.17 9.43l10.69-16.93-10.14-16.26h13.01l5.04 9.31 5.16-9.31h13.03l-10.4 16.26L421.48 55h-13.01l-5.59-10.08L397.31 55h-13.03zm57.71-8.47q2.31 0 5.54-1.14v8.35q-2.32 1-4.41 1.42-2.1.43-4.91.43-5.77 0-8.32-2.83-2.55-2.83-2.55-8.69V30.39h-4.01v-4.66l5.1-3.6 2.95-6.97h7.5v6.65h8.15v8.58h-8.15v12.92q0 3.22 3.11 3.22zm31.38-25.31q1.49 0 2.84.24l.64.11-1.02 10.81q-1.41-.35-3.9-.35-3.75 0-5.45 1.72-1.7 1.71-1.7 4.93V55h-11.45V21.81h8.52l1.79 5.3h.56q1.43-2.64 4-4.26 2.56-1.63 5.17-1.63zM511.07 55h-7.94l-2.19-4.39h-.24q-2.31 2.87-4.72 3.92-2.4 1.06-6.21 1.06-4.68 0-7.38-2.82-2.69-2.81-2.69-7.91 0-5.3 3.69-7.89t10.69-2.92l5.54-.17v-.47q0-4.1-4.05-4.1-3.63 0-9.22 2.46l-3.31-7.56q5.8-2.99 14.64-2.99 6.39 0 9.89 3.16 3.5 3.17 3.5 8.85V55zm-16.43-7.5q2.08 0 3.56-1.32t1.48-3.43v-2.57l-2.64.11q-5.66.21-5.66 4.16 0 3.05 3.26 3.05zm24.9 7.5V12.17h14.94q8.73 0 12.96 2.59 4.24 2.59 4.24 8.07 0 3.61-1.85 6.15-1.84 2.55-4.86 3.29v.29q3.98 1.05 5.77 3.51 1.79 2.47 1.79 6.39 0 5.83-4.38 9.19Q543.77 55 536.21 55h-16.67zm11.57-34.07v7.67h3.49q2.49 0 3.85-1.02 1.36-1.03 1.36-3.05 0-3.6-5.45-3.6h-3.25zm3.84 16.14h-3.84v8.99h4.07q5.42 0 5.42-4.57 0-2.13-1.45-3.28-1.45-1.14-4.2-1.14zm56.04 1.26q0 8.14-4.38 12.7-4.38 4.56-12.26 4.56-7.56 0-12.02-4.66-4.47-4.66-4.47-12.6 0-8.12 4.38-12.61 4.38-4.5 12.29-4.5 4.89 0 8.64 2.08 3.75 2.08 5.79 5.96 2.03 3.88 2.03 9.07zm-21.5 0q0 4.28 1.14 6.52 1.15 2.24 3.84 2.24 2.67 0 3.77-2.24 1.09-2.24 1.09-6.52 0-4.25-1.11-6.42-1.11-2.16-3.81-2.16-2.63 0-3.78 2.15-1.14 2.15-1.14 6.43zm39.49-28.92V55h-11.45V9.41h11.45zm18.25 46.18q-3.54 0-6.19-2.03-2.65-2.02-4.1-5.94-1.45-3.93-1.45-9.17 0-8.09 3.25-12.66t8.93-4.57q2.79 0 4.88 1.11 2.1 1.12 3.83 3.75h.23q-.56-3.89-.56-7.79V9.41h11.55V55h-8.65l-2.46-4.19h-.44q-2.96 4.78-8.82 4.78zm4.69-9.06q2.76 0 3.88-1.73 1.13-1.72 1.22-5.33v-.91q0-4.39-1.26-6.25-1.26-1.86-3.96-1.86-2.25 0-3.5 2.12-1.24 2.13-1.24 6.05 0 3.87 1.26 5.89 1.26 2.02 3.6 2.02z"/></svg>