<svg viewBox="0 0 490 80" xmlns="http://www.w3.org/2000/svg"><path d="M56.27 33.53q0 10.63-5.28 16.34-5.27 5.72-15.11 5.72-9.85 0-15.12-5.72-5.27-5.71-5.27-16.4 0-10.7 5.28-16.34 5.29-5.64 15.17-5.64 9.87 0 15.1 5.69 5.23 5.68 5.23 16.35zm-31.26 0q0 7.17 2.72 10.81 2.73 3.63 8.15 3.63 10.87 0 10.87-14.44 0-14.48-10.81-14.48-5.42 0-8.18 3.65-2.75 3.65-2.75 10.83zm57.42 22.06q-5.77 0-9.05-4.19h-.47q.47 4.1.47 4.74v13.27h-8.94V22.25h7.27l1.26 4.24h.41q3.13-4.86 9.28-4.86 5.8 0 9.09 4.48 3.28 4.49 3.28 12.45 0 5.25-1.54 9.12-1.54 3.86-4.38 5.88-2.84 2.03-6.68 2.03zm-2.64-26.81q-3.31 0-4.83 2.04-1.52 2.03-1.58 6.72v.97q0 5.27 1.56 7.55 1.57 2.29 4.97 2.29 6.01 0 6.01-9.9 0-4.84-1.48-7.25-1.48-2.42-4.65-2.42zm36.18-.79q-2.84 0-4.45 1.8-1.61 1.8-1.84 5.11h12.53q-.05-3.31-1.72-5.11-1.67-1.8-4.52-1.8zm1.26 27.6q-7.91 0-12.36-4.37-4.45-4.36-4.45-12.36 0-8.23 4.11-12.73 4.12-4.5 11.39-4.5 6.94 0 10.81 3.96 3.86 3.95 3.86 10.92v4.34h-21.12q.15 3.81 2.26 5.95t5.91 2.14q2.96 0 5.6-.62 2.64-.61 5.51-1.96v6.91q-2.35 1.17-5.01 1.74-2.67.58-6.51.58zm50.86-21.95V55h-8.93V35.87q0-3.55-1.26-5.32-1.26-1.77-4.02-1.77-3.75 0-5.42 2.5-1.67 2.51-1.67 8.31V55h-8.93V22.25h6.83l1.2 4.19h.49q1.5-2.38 4.12-3.59 2.62-1.22 5.96-1.22 5.72 0 8.67 3.09 2.96 3.09 2.96 8.92zm50.78 9.47q0 5.8-4.18 9.14-4.17 3.34-11.62 3.34-6.85 0-12.12-2.58v-8.44q4.33 1.93 7.33 2.72 3.01.8 5.5.8 2.99 0 4.58-1.15 1.6-1.14 1.6-3.4 0-1.25-.7-2.24-.71-.98-2.07-1.89-1.36-.9-5.55-2.9-3.93-1.84-5.89-3.54-1.96-1.7-3.13-3.96-1.18-2.25-1.18-5.27 0-5.68 3.86-8.94 3.85-3.25 10.65-3.25 3.34 0 6.37.79 3.03.79 6.34 2.23l-2.93 7.06q-3.43-1.41-5.67-1.96-2.24-.56-4.41-.56-2.58 0-3.95 1.2-1.38 1.2-1.38 3.14 0 1.2.56 2.09.55.9 1.77 1.73 1.22.84 5.76 3 6 2.87 8.23 5.76 2.23 2.89 2.23 7.08zM252.97 55h-6.24L245 50.55h-.24q-2.25 2.84-4.64 3.94-2.39 1.1-6.23 1.1-4.71 0-7.42-2.7-2.71-2.69-2.71-7.68 0-5.21 3.65-7.69 3.64-2.47 11-2.73l5.68-.18v-1.44q0-4.98-5.1-4.98-3.92 0-9.23 2.38l-2.96-6.04q5.66-2.96 12.54-2.96 6.6 0 10.11 2.87 3.52 2.87 3.52 8.73V55zm-8.88-12.48v-2.7l-3.46.12q-3.89.12-5.8 1.41-1.9 1.29-1.9 3.92 0 3.78 4.33 3.78 3.11 0 4.97-1.78 1.86-1.79 1.86-4.75zm48.31-8.88V55h-8.94V35.87q0-3.55-1.25-5.32-1.26-1.77-4.02-1.77-3.75 0-5.42 2.5-1.67 2.51-1.67 8.31V55h-8.93V22.25h6.82l1.2 4.19h.5q1.5-2.38 4.12-3.59 2.62-1.22 5.96-1.22 5.71 0 8.67 3.09t2.96 8.92zm32.05 11.63q0 5.04-3.5 7.68-3.5 2.64-10.47 2.64-3.58 0-6.1-.49-2.52-.48-4.71-1.42V46.3q2.49 1.17 5.61 1.96t5.49.79q4.86 0 4.86-2.81 0-1.05-.64-1.71-.65-.66-2.23-1.5-1.58-.83-4.22-1.95-3.78-1.58-5.55-2.93-1.77-1.34-2.58-3.09-.8-1.74-.8-4.29 0-4.36 3.38-6.75 3.39-2.39 9.6-2.39 5.91 0 11.51 2.58l-2.7 6.44q-2.46-1.05-4.6-1.72-2.13-.68-4.36-.68-3.96 0-3.96 2.14 0 1.2 1.28 2.08 1.27.88 5.58 2.61 3.84 1.55 5.62 2.9 1.79 1.35 2.64 3.1.85 1.76.85 4.19zM347.71 55V12.17h13.33q9.11 0 13.23 2.59 4.12 2.59 4.12 8.25 0 3.84-1.81 6.3-1.8 2.46-4.79 2.96v.29q4.08.91 5.88 3.4 1.8 2.49 1.8 6.62 0 5.86-4.23 9.14Q371 55 363.74 55h-16.03zm9.08-35.39v9.52h5.28q3.69 0 5.35-1.14 1.65-1.14 1.65-3.78 0-2.46-1.8-3.53-1.8-1.07-5.7-1.07h-4.78zm5.63 16.73h-5.63V47.5h5.92q3.75 0 5.54-1.44 1.79-1.43 1.79-4.39 0-5.33-7.62-5.33zm32.02 2.22q0 4.87 1.6 7.36 1.59 2.49 5.2 2.49 3.57 0 5.14-2.48 1.57-2.47 1.57-7.37 0-4.86-1.58-7.29-1.59-2.43-5.19-2.43-3.57 0-5.16 2.41-1.58 2.42-1.58 7.31zm22.65 0q0 8-4.22 12.51-4.22 4.52-11.75 4.52-4.72 0-8.32-2.07-3.6-2.06-5.54-5.93-1.93-3.87-1.93-9.03 0-8.02 4.19-12.48 4.19-4.45 11.78-4.45 4.71 0 8.32 2.05 3.6 2.05 5.53 5.89 1.94 3.84 1.94 8.99zm16.32-29.15V55h-8.94V9.41h8.94zm19.74 46.18q-5.77 0-9.07-4.49-3.29-4.48-3.29-12.42 0-8.05 3.35-12.55 3.36-4.5 9.25-4.5 6.18 0 9.43 4.81h.29q-.67-3.67-.67-6.54V9.41h8.96V55h-6.85l-1.73-4.25h-.38q-3.05 4.84-9.29 4.84zm3.14-7.12q3.42 0 5.02-2 1.6-1.99 1.74-6.76v-.97q0-5.27-1.62-7.56-1.63-2.28-5.29-2.28-2.99 0-4.64 2.53-1.66 2.53-1.66 7.37 0 4.83 1.67 7.25t4.78 2.42z"/></svg>