<svg viewBox="0 0 560 80" xmlns="http://www.w3.org/2000/svg"><path d="M55.07 33.53q0 10.28-5.2 16.17-5.2 5.89-14.46 5.89-9.46 0-14.61-5.79-5.14-5.79-5.14-16.33 0-10.46 5.16-16.22 5.15-5.76 14.65-5.76 9.23 0 14.41 5.86 5.19 5.86 5.19 16.18zm-34.13 0q0 8.7 3.7 13.19 3.71 4.5 10.77 4.5 7.12 0 10.75-4.48t3.63-13.21q0-8.65-3.62-13.11-3.61-4.47-10.7-4.47-7.12 0-10.83 4.49-3.7 4.5-3.7 13.09zm57.89 22.06q-3.14 0-5.73-1.16-2.59-1.16-4.35-3.56h-.35q.35 2.81.35 5.33v13.21h-4.87V22.89h3.96l.67 4.4h.24q1.87-2.64 4.36-3.81 2.49-1.18 5.72-1.18 6.38 0 9.85 4.37 3.48 4.37 3.48 12.25 0 7.91-3.53 12.29-3.53 4.38-9.8 4.38zm-.71-29.15q-4.92 0-7.12 2.72-2.19 2.72-2.25 8.67v1.09q0 6.76 2.25 9.68 2.26 2.91 7.24 2.91 4.16 0 6.52-3.37 2.36-3.36 2.36-9.28 0-6.01-2.36-9.22-2.36-3.2-6.64-3.2zm36.1 29.15q-7.12 0-11.24-4.34-4.11-4.34-4.11-12.04 0-7.76 3.82-12.33 3.82-4.58 10.27-4.58 6.03 0 9.55 3.97 3.51 3.97 3.51 10.48v3.07H103.9q.15 5.66 2.86 8.59 2.71 2.93 7.63 2.93 5.19 0 10.26-2.17v4.34q-2.58 1.11-4.88 1.59-2.3.49-5.55.49zm-1.32-29.21q-3.87 0-6.17 2.52t-2.71 6.97h16.79q0-4.6-2.05-7.05-2.05-2.44-5.86-2.44zM161.15 55h-4.86V34.23q0-3.93-1.79-5.86-1.79-1.93-5.6-1.93-5.03 0-7.38 2.72-2.34 2.72-2.34 8.99V55h-4.87V22.89h3.96l.79 4.4h.23q1.5-2.38 4.19-3.68 2.7-1.31 6.01-1.31 5.8 0 8.73 2.8 2.93 2.8 2.93 8.95V55zm50.48-11.4q0 5.66-4.1 8.82-4.1 3.17-11.14 3.17-7.61 0-11.71-1.97v-4.8q2.63 1.11 5.74 1.76 3.1.64 6.15.64 4.98 0 7.5-1.89 2.52-1.89 2.52-5.26 0-2.22-.89-3.65-.9-1.42-2.99-2.62-2.1-1.2-6.37-2.72-5.98-2.14-8.54-5.07-2.57-2.93-2.57-7.65 0-4.95 3.72-7.88 3.72-2.93 9.85-2.93 6.38 0 11.74 2.35l-1.55 4.33q-5.3-2.22-10.31-2.22-3.96 0-6.18 1.7-2.23 1.69-2.23 4.71 0 2.23.82 3.65t2.77 2.61q1.95 1.18 5.96 2.62 6.74 2.4 9.27 5.16 2.54 2.75 2.54 7.14zM243.01 55h-3.61l-.96-4.57h-.24q-2.4 3.02-4.79 4.09-2.39 1.07-5.96 1.07-4.78 0-7.49-2.46-2.71-2.47-2.71-7.01 0-9.72 15.56-10.19l5.45-.18v-1.99q0-3.78-1.63-5.58-1.62-1.8-5.2-1.8-4.01 0-9.08 2.46l-1.49-3.72q2.37-1.29 5.2-2.02 2.82-.74 5.67-.74 5.74 0 8.51 2.55 2.77 2.55 2.77 8.18V55zm-14.59-3.43q4.54 0 7.13-2.49t2.59-6.97v-2.9l-4.86.2q-5.8.21-8.36 1.81-2.57 1.59-2.57 4.96 0 2.64 1.6 4.02 1.59 1.37 4.47 1.37zM279.86 55H275V34.23q0-3.93-1.79-5.86-1.79-1.93-5.59-1.93-5.04 0-7.39 2.72-2.34 2.72-2.34 8.99V55h-4.86V22.89h3.95l.79 4.4h.24q1.49-2.38 4.19-3.68 2.69-1.31 6-1.31 5.8 0 8.73 2.8 2.93 2.8 2.93 8.95V55zm30.7-8.76q0 4.48-3.34 6.91-3.34 2.44-9.37 2.44-6.39 0-9.96-2.03v-4.51q2.31 1.17 4.96 1.85 2.66.67 5.12.67 3.81 0 5.86-1.21 2.05-1.22 2.05-3.71 0-1.87-1.63-3.21-1.62-1.33-6.34-3.15-4.48-1.67-6.37-2.91-1.89-1.25-2.82-2.83-.92-1.58-.92-3.78 0-3.92 3.19-6.19 3.2-2.28 8.76-2.28 5.19 0 10.14 2.11l-1.73 3.96q-4.83-1.99-8.76-1.99-3.45 0-5.21 1.08-1.76 1.08-1.76 2.99 0 1.29.66 2.2.66.9 2.12 1.73 1.47.82 5.63 2.37 5.71 2.08 7.72 4.19 2 2.11 2 5.3zm38.15-9.05h-8.94V55h-4.98V12.17h11.75q7.88 0 11.65 3.02 3.76 3.01 3.76 9.08 0 8.49-8.61 11.48L364.97 55h-5.89l-10.37-17.81zm-8.94-20.66v16.38h6.83q5.27 0 7.73-2.09 2.46-2.1 2.46-6.29 0-4.25-2.5-6.12-2.5-1.88-8.04-1.88h-6.48zm44.94 39.06q-7.11 0-11.23-4.34t-4.12-12.04q0-7.76 3.83-12.33 3.82-4.58 10.27-4.58 6.03 0 9.55 3.97 3.51 3.97 3.51 10.48v3.07H374.4q.15 5.66 2.86 8.59 2.71 2.93 7.63 2.93 5.19 0 10.25-2.17v4.34q-2.57 1.11-4.87 1.59-2.3.49-5.56.49zm-1.31-29.21q-3.87 0-6.17 2.52t-2.71 6.97h16.79q0-4.6-2.05-7.05-2.05-2.44-5.86-2.44zm36.59-3.49h11.1v3.08l-5.95.7q.82 1.03 1.47 2.68.64 1.66.64 3.74 0 4.71-3.22 7.53-3.22 2.81-8.85 2.81-1.43 0-2.69-.24-3.11 1.64-3.11 4.13 0 1.32 1.09 1.95 1.08.63 3.72.63h5.68q5.22 0 8.01 2.2 2.8 2.2 2.8 6.39 0 5.33-4.28 8.13-4.27 2.79-12.48 2.79-6.29 0-9.71-2.34-3.41-2.34-3.41-6.62 0-2.93 1.87-5.07 1.88-2.14 5.28-2.9-1.23-.56-2.07-1.73-.83-1.17-.83-2.72 0-1.76.93-3.08.94-1.32 2.96-2.55-2.49-1.02-4.05-3.48-1.57-2.46-1.57-5.63 0-5.27 3.16-8.13 3.17-2.86 8.97-2.86 2.52 0 4.54.59zm-14.5 37.5q0 2.61 2.19 3.96 2.2 1.34 6.3 1.34 6.13 0 9.07-1.83 2.94-1.83 2.94-4.96 0-2.61-1.61-3.62-1.61-1.01-6.06-1.01h-5.83q-3.31 0-5.16 1.58-1.84 1.58-1.84 4.54zm2.63-27.22q0 3.37 1.91 5.1 1.9 1.73 5.3 1.73 7.12 0 7.12-6.91 0-7.24-7.21-7.24-3.43 0-5.27 1.85-1.85 1.84-1.85 5.47zm29.21-10.28h4.92v20.83q0 3.93 1.79 5.86 1.79 1.93 5.6 1.93 5.04 0 7.36-2.75 2.33-2.75 2.33-8.99V22.89h4.87V55h-4.02l-.7-4.31h-.26q-1.5 2.38-4.15 3.64-2.65 1.26-6.05 1.26-5.86 0-8.77-2.79-2.92-2.78-2.92-8.9V22.89zm42.04-13.48V55h-4.86V9.41h4.86zM513.04 55h-3.61l-.97-4.57h-.23q-2.4 3.02-4.79 4.09-2.39 1.07-5.96 1.07-4.78 0-7.49-2.46-2.71-2.47-2.71-7.01 0-9.72 15.56-10.19l5.45-.18v-1.99q0-3.78-1.63-5.58-1.62-1.8-5.2-1.8-4.01 0-9.08 2.46l-1.49-3.72q2.37-1.29 5.2-2.02 2.82-.74 5.67-.74 5.74 0 8.51 2.55 2.77 2.55 2.77 8.18V55zm-14.59-3.43q4.54 0 7.13-2.49t2.59-6.97v-2.9l-4.86.2q-5.8.21-8.37 1.81-2.56 1.59-2.56 4.96 0 2.64 1.6 4.02 1.59 1.37 4.47 1.37zM537.7 22.3q2.14 0 3.84.36l-.67 4.51q-1.99-.44-3.52-.44-3.89 0-6.66 3.16-2.77 3.17-2.77 7.88V55h-4.87V22.89h4.02l.56 5.95h.23q1.79-3.14 4.31-4.84 2.52-1.7 5.53-1.7z"/></svg>