<svg viewBox="0 0 362 80" xmlns="http://www.w3.org/2000/svg"><path d="M33.72 63.3q-5.4 0-9.57-3.06t-6.51-8.49q-2.34-5.43-2.34-12.21 0-6.78 2.34-12.21 2.34-5.43 6.54-8.52t9.54-3.09q5.34 0 9.54 3.09 4.2 3.09 6.54 8.52t2.34 12.21q0 6.78-2.34 12.21-2.34 5.43-6.51 8.49-4.17 3.06-9.57 3.06zm0-2.52q4.62 0 8.22-2.67 3.6-2.67 5.58-7.5t1.98-11.07q0-6.24-1.98-11.07t-5.58-7.5q-3.6-2.67-8.22-2.67-4.62 0-8.19 2.67-3.57 2.67-5.55 7.5T18 39.54q0 6.24 1.98 11.07t5.55 7.5q3.57 2.67 8.19 2.67zm52.44-30.6q0 4.2-1.68 7.32t-4.77 4.8q-3.09 1.68-7.23 1.68h-9.6V62.7h-2.64V16.38h12.24q4.14 0 7.23 1.68 3.09 1.68 4.77 4.8 1.68 3.12 1.68 7.32zm-2.7 0q0-5.16-2.97-8.19-2.97-3.03-8.07-3.03h-9.54V41.4h9.54q5.1 0 8.07-3 2.97-3 2.97-8.22zm36.12 0q0 4.2-1.68 7.32t-4.77 4.8q-3.09 1.68-7.23 1.68h-9.6V62.7h-2.64V16.38h12.24q4.14 0 7.23 1.68 3.09 1.68 4.77 4.8 1.68 3.12 1.68 7.32zm-2.7 0q0-5.16-2.97-8.19-2.97-3.03-8.07-3.03H96.3V41.4h9.54q5.1 0 8.07-3 2.97-3 2.97-8.22zM144 63.3q-5.4 0-9.57-3.06t-6.51-8.49q-2.34-5.43-2.34-12.21 0-6.78 2.34-12.21 2.34-5.43 6.54-8.52t9.54-3.09q5.34 0 9.54 3.09 4.2 3.09 6.54 8.52t2.34 12.21q0 6.78-2.34 12.21-2.34 5.43-6.51 8.49-4.17 3.06-9.57 3.06zm0-2.52q4.62 0 8.22-2.67 3.6-2.67 5.58-7.5t1.98-11.07q0-6.24-1.98-11.07t-5.58-7.5q-3.6-2.67-8.22-2.67-4.62 0-8.19 2.67-3.57 2.67-5.55 7.5t-1.98 11.07q0 6.24 1.98 11.07t5.55 7.5q3.57 2.67 8.19 2.67zm26.04-33.36q0-5.4 3.57-8.55 3.57-3.15 9.75-3.15 4.68 0 8.16 2.22 3.48 2.22 4.8 6.06l-2.46 1.08q-2.16-6.78-10.5-6.78-5.22 0-7.89 2.31t-2.67 6.75q0 2.64 1.02 4.38 1.02 1.74 3.36 2.94t6.54 2.28q5.04 1.32 8.01 3.06 2.97 1.74 4.32 4.2t1.35 6.06q0 3.9-1.77 6.84t-5.04 4.56q-3.27 1.62-7.53 1.62-5.28 0-9.09-2.49-3.81-2.49-5.49-7.11l2.4-1.14q1.38 4.02 4.47 6.12 3.09 2.1 7.71 2.1 5.4 0 8.55-2.82 3.15-2.82 3.15-7.68 0-2.94-1.11-4.89-1.11-1.95-3.63-3.33-2.52-1.38-6.96-2.46-6.96-1.74-9.99-4.59-3.03-2.85-3.03-7.59zm59.82 9.78v17.46q0 5.04.18 8.04h-2.22q-.24-2.1-.36-7.98-1.5 4.08-4.44 6.33-2.94 2.25-7.02 2.25-3.96 0-6.99-2.19-3.03-2.19-4.71-6.12-1.68-3.93-1.68-9.03t1.68-9.06q1.68-3.96 4.71-6.15 3.03-2.19 6.99-2.19 4.08 0 7.02 2.28 2.94 2.28 4.44 6.3.12-5.88.36-7.98h2.22q-.18 2.94-.18 8.04zm-2.46 8.76q0-4.44-1.41-7.86t-3.93-5.28q-2.52-1.86-5.76-1.86-3.24 0-5.73 1.89t-3.9 5.28q-1.41 3.39-1.41 7.83 0 4.38 1.41 7.77 1.41 3.39 3.93 5.28 2.52 1.89 5.7 1.89 3.24 0 5.76-1.89 2.52-1.89 3.93-5.28 1.41-3.39 1.41-7.77zm37.26-5.76v22.5h-2.46V40.56q0-4.92-2.22-7.26t-6.9-2.34q-3.36 0-6 1.68t-4.11 4.74q-1.47 3.06-1.47 6.96V62.7h-2.58V37.2q0-5.1-.18-8.04h2.16q.24 1.98.36 7.56 1.68-4.02 4.77-6.09 3.09-2.07 7.53-2.07 5.28 0 8.19 3.06 2.91 3.06 2.91 8.58zm8.34-2.94q0-3.84 2.82-6.27 2.82-2.43 7.26-2.43 3.96 0 6.63 1.77t3.21 4.83l-2.22 1.02q-.66-2.76-2.46-3.99-1.8-1.23-5.16-1.23-3.48 0-5.46 1.65t-1.98 4.65q0 2.7 1.8 4.08t6.36 2.22q5.4.96 7.86 3.42t2.46 6.78q0 4.26-3.03 6.9-3.03 2.64-7.89 2.64-4.68 0-7.68-2.07t-3.96-5.91l2.22-.96q.96 3.42 3.24 4.98 2.28 1.56 6.18 1.56 3.78 0 6.06-1.95t2.28-5.19q0-3.36-1.89-5.07-1.89-1.71-6.51-2.61-5.28-1.02-7.71-3.15Q273 40.8 273 37.26zm49.08 22.86h21.3v2.58h-23.94V16.38h2.64v43.74z"/></svg>