<svg viewBox="0 0 440 80" xmlns="http://www.w3.org/2000/svg"><path d="M37.92 65.64q-6.66 0-11.82-3.24t-8.04-9.06q-2.88-5.82-2.88-13.38 0-7.56 2.88-13.38 2.88-5.82 8.04-9.06 5.16-3.24 11.82-3.24t11.85 3.24q5.19 3.24 8.04 9.06 2.85 5.82 2.85 13.38 0 7.56-2.85 13.38-2.85 5.82-8.04 9.06-5.19 3.24-11.85 3.24zm0-7.68q3.9 0 6.96-2.25t4.74-6.36q1.68-4.11 1.68-9.39 0-5.34-1.68-9.42t-4.74-6.33q-3.06-2.25-6.96-2.25t-6.93 2.25q-3.03 2.25-4.71 6.33-1.68 4.08-1.68 9.42 0 5.28 1.68 9.39t4.71 6.36q3.03 2.25 6.93 2.25zm65.1-26.7q0 4.8-2.04 8.46-2.04 3.66-5.73 5.7-3.69 2.04-8.55 2.04h-8.82V64.8h-9.42V15.06H86.7q4.86 0 8.55 2.04 3.69 2.04 5.73 5.7 2.04 3.66 2.04 8.46zm-9.42 0q0-4.26-2.34-6.54-2.34-2.28-6.66-2.28h-6.72v17.64h6.72q4.32 0 6.66-2.28t2.34-6.54zm51.12 0q0 4.8-2.04 8.46-2.04 3.66-5.73 5.7-3.69 2.04-8.55 2.04h-8.82V64.8h-9.42V15.06h18.24q4.86 0 8.55 2.04 3.69 2.04 5.73 5.7 2.04 3.66 2.04 8.46zm-9.42 0q0-4.26-2.34-6.54-2.34-2.28-6.66-2.28h-6.72v17.64h6.72q4.32 0 6.66-2.28t2.34-6.54zm37.86 34.38q-6.66 0-11.82-3.24t-8.04-9.06q-2.88-5.82-2.88-13.38 0-7.56 2.88-13.38 2.88-5.82 8.04-9.06 5.16-3.24 11.82-3.24t11.85 3.24q5.19 3.24 8.04 9.06 2.85 5.82 2.85 13.38 0 7.56-2.85 13.38-2.85 5.82-8.04 9.06-5.19 3.24-11.85 3.24zm0-7.68q3.9 0 6.96-2.25t4.74-6.36q1.68-4.11 1.68-9.39 0-5.34-1.68-9.42t-4.74-6.33q-3.06-2.25-6.96-2.25t-6.93 2.25q-3.03 2.25-4.71 6.33-1.68 4.08-1.68 9.42 0 5.28 1.68 9.39t4.71 6.36q3.03 2.25 6.93 2.25zm30.06-29.28q0-4.2 2.07-7.47 2.07-3.27 5.97-5.1 3.9-1.83 9.18-1.83 6.72 0 11.04 2.67 4.32 2.67 5.94 7.77l-7.5 3.48q-1.14-2.94-3.33-4.44-2.19-1.5-5.91-1.5-4.02 0-6.03 1.53-2.01 1.53-2.01 4.47 0 2.82 2.1 4.32 2.1 1.5 7.38 2.46 8.46 1.5 12.3 5.22 3.84 3.72 3.84 10.32 0 4.32-2.31 7.77-2.31 3.45-6.48 5.37t-9.45 1.92q-7.32 0-12.18-3-4.86-3-6.48-8.52l7.56-3.54q1.08 3.48 3.9 5.28 2.82 1.8 7.14 1.8t6.57-1.77q2.25-1.77 2.25-5.07 0-3.12-2.37-4.92-2.37-1.8-8.19-2.88-7.68-1.38-11.34-4.92t-3.66-9.42zm75.12 7.68v19.98q0 5.82.24 8.46h-7.8q0-.24-.15-1.71t-.21-3.75q-1.98 3.06-5.07 4.68-3.09 1.62-6.99 1.62-4.32 0-7.92-2.43-3.6-2.43-5.7-6.81-2.1-4.38-2.1-10.02t2.1-10.05q2.1-4.41 5.7-6.84 3.6-2.43 7.92-2.43 3.9 0 6.96 1.65t5.1 4.65q.06-2.16.21-3.66t.15-1.8h7.8q-.24 2.64-.24 8.46zm-8.76 10.02q0-5.64-2.52-9.03-2.52-3.39-6.6-3.39-2.64 0-4.71 1.53t-3.21 4.35q-1.14 2.82-1.14 6.54 0 3.66 1.14 6.48 1.14 2.82 3.21 4.35 2.07 1.53 4.71 1.53 4.08 0 6.6-3.39 2.52-3.39 2.52-8.97zm50.64-5.82V64.8h-8.7V41.94q0-7.56-7.14-7.56-4.08 0-6.39 2.64-2.31 2.64-2.31 7.26V64.8h-8.7V36.36q0-5.16-.3-8.46h7.74q.36 2.28.42 5.52 4.08-6.36 12.78-6.36 5.88 0 9.24 3.54 3.36 3.54 3.36 9.96zm7.56-2.52q0-3.18 1.77-5.7t4.95-3.9q3.18-1.38 7.2-1.38 5.64 0 9.36 2.13 3.72 2.13 4.92 5.97l-6.6 3.06q-1.5-4.56-7.32-4.56-2.64 0-4.17 1.05-1.53 1.05-1.53 3.03 0 1.92 1.65 2.94t5.85 1.62q6.6.9 9.75 3.72 3.15 2.82 3.15 7.8 0 3.54-1.86 6.21t-5.19 4.14q-3.33 1.47-7.59 1.47-6.18 0-10.2-2.34t-5.4-6.66l6.6-3.06q.9 2.58 3.03 4.02 2.13 1.44 5.49 1.44 3.12 0 4.86-1.17 1.74-1.17 1.74-3.45 0-2.4-1.74-3.57t-6.42-1.77q-6.18-.84-9.24-3.66-3.06-2.82-3.06-7.38zm84.78-22.98h9.42V64.8h-9.42V42.66h-21.78V64.8h-9.42V15.06h9.42V34.8h21.78V15.06z"/></svg>