<svg viewBox="0 0 421 80" xmlns="http://www.w3.org/2000/svg"><path d="M36.96 65.1q-6.36 0-11.31-3.21t-7.71-8.94q-2.76-5.73-2.76-13.11 0-7.38 2.76-13.11 2.76-5.73 7.71-8.94 4.95-3.21 11.31-3.21 6.42 0 11.37 3.18 4.95 3.18 7.71 8.94t2.76 13.14q0 7.38-2.76 13.14-2.76 5.76-7.71 8.94-4.95 3.18-11.37 3.18zm0-6.54q4.08 0 7.26-2.34 3.18-2.34 4.92-6.6 1.74-4.26 1.74-9.78t-1.74-9.78q-1.74-4.26-4.92-6.6-3.18-2.34-7.26-2.34t-7.23 2.34q-3.15 2.34-4.89 6.6-1.74 4.26-1.74 9.78t1.74 9.78q1.74 4.26 4.89 6.6 3.15 2.34 7.23 2.34zM99.3 31.02q0 4.62-1.98 8.19-1.98 3.57-5.55 5.52-3.57 1.95-8.25 1.95h-9v17.64h-7.86V15.36h16.86q4.68 0 8.25 1.95 3.57 1.95 5.55 5.49t1.98 8.22zm-7.98 0q0-4.5-2.46-6.93-2.46-2.43-6.96-2.43h-7.38v18.72h7.38q4.5 0 6.96-2.43t2.46-6.93zm47.82 0q0 4.62-1.98 8.19-1.98 3.57-5.55 5.52-3.57 1.95-8.25 1.95h-9v17.64h-7.86V15.36h16.86q4.68 0 8.25 1.95 3.57 1.95 5.55 5.49t1.98 8.22zm-7.98 0q0-4.5-2.46-6.93-2.46-2.43-6.96-2.43h-7.38v18.72h7.38q4.5 0 6.96-2.43t2.46-6.93zm35.46 34.08q-6.36 0-11.31-3.21t-7.71-8.94q-2.76-5.73-2.76-13.11 0-7.38 2.76-13.11 2.76-5.73 7.71-8.94 4.95-3.21 11.31-3.21 6.42 0 11.37 3.18 4.95 3.18 7.71 8.94t2.76 13.14q0 7.38-2.76 13.14-2.76 5.76-7.71 8.94-4.95 3.18-11.37 3.18zm0-6.54q4.08 0 7.26-2.34 3.18-2.34 4.92-6.6 1.74-4.26 1.74-9.78t-1.74-9.78q-1.74-4.26-4.92-6.6-3.18-2.34-7.26-2.34t-7.23 2.34q-3.15 2.34-4.89 6.6-1.74 4.26-1.74 9.78t1.74 9.78q1.74 4.26 4.89 6.6 3.15 2.34 7.23 2.34zm29.22-30.18q0-4.08 1.95-7.2t5.67-4.86q3.72-1.74 8.7-1.74 6.24 0 10.38 2.58 4.14 2.58 5.7 7.38l-6.36 3q-1.14-3.06-3.42-4.62-2.28-1.56-6.12-1.56-4.26 0-6.42 1.74t-2.16 4.98q0 2.1.93 3.45t3.03 2.28q2.1.93 5.82 1.65 8.28 1.56 11.94 5.16t3.66 9.9q0 4.2-2.19 7.53t-6.15 5.19q-3.96 1.86-9 1.86-6.9 0-11.52-2.88-4.62-2.88-6.24-8.22l6.42-3q1.14 3.6 4.02 5.46 2.88 1.86 7.26 1.86 4.56 0 7.02-1.98t2.46-5.64q0-3.36-2.43-5.31-2.43-1.95-8.43-3.15-7.5-1.44-11.01-4.83t-3.51-9.03zm71.7 8.16v19.44q0 5.46.24 8.34h-6.6q-.18-1.2-.3-5.94-1.98 3.24-5.01 4.98-3.03 1.74-6.99 1.74-4.2 0-7.68-2.37-3.48-2.37-5.49-6.66-2.01-4.29-2.01-9.81 0-5.52 2.01-9.81 2.01-4.29 5.49-6.66 3.48-2.37 7.68-2.37 3.96 0 6.99 1.74 3.03 1.74 5.01 4.98.12-4.62.3-5.94h6.6q-.24 2.88-.24 8.34zm-7.38 9.72q0-3.84-1.2-6.78-1.2-2.94-3.36-4.56-2.16-1.62-4.98-1.62-2.76 0-4.92 1.62t-3.39 4.56q-1.23 2.94-1.23 6.78 0 3.84 1.23 6.78 1.23 2.94 3.39 4.56 2.16 1.62 4.92 1.62 2.82 0 4.98-1.62 2.16-1.62 3.36-4.56 1.2-2.94 1.2-6.78zm47.7-5.76v23.82h-7.32V41.64q0-8.04-7.56-8.04-4.32 0-6.84 2.88-2.52 2.88-2.52 7.8v20.04h-7.38V36.54q0-5.46-.24-8.34h6.48q.36 2.22.42 5.88 3.96-6.66 12.66-6.66 5.76 0 9.03 3.42 3.27 3.42 3.27 9.66zm7.68-2.64q0-3.06 1.65-5.43 1.65-2.37 4.65-3.69 3-1.32 6.78-1.32 5.28 0 8.79 2.07 3.51 2.07 4.53 5.67l-5.64 2.58q-1.44-4.68-7.38-4.68-2.88 0-4.5 1.2t-1.62 3.36q0 2.1 1.68 3.21 1.68 1.11 6 1.77 6.3.9 9.3 3.63 3 2.73 3 7.59 0 3.36-1.77 5.91-1.77 2.55-4.89 3.96-3.12 1.41-7.14 1.41-5.88 0-9.66-2.28-3.78-2.28-5.04-6.48l5.58-2.58q1.92 5.7 8.76 5.7 3.24 0 5.1-1.35 1.86-1.35 1.86-3.81 0-2.64-1.77-3.93t-6.45-1.95q-11.82-1.8-11.82-10.56zm87 12.66q0 4.14-1.74 7.26t-4.89 4.83q-3.15 1.71-7.29 1.71h-21.06V15.36h20.22q3.78 0 6.69 1.59 2.91 1.59 4.53 4.47t1.62 6.66q0 3.96-2.01 6.63t-5.49 3.81q4.32 1.14 6.87 4.26t2.55 7.74zm-17.1-28.86h-10.02V35.7h10.02q3.36 0 5.28-1.83 1.92-1.83 1.92-5.13 0-3.36-1.95-5.22-1.95-1.86-5.25-1.86zm9.18 28.38q0-3.84-2.22-5.94-2.22-2.1-6.12-2.1h-10.86v16.08h10.86q3.9 0 6.12-2.13t2.22-5.91z"/></svg>