<svg viewBox="0 0 448 80" xmlns="http://www.w3.org/2000/svg"><path d="M53.42 65.98l.18-.12.18.12q-.06.06-.36 0zm2.04-.42q0-.24.48-.3t.69-.09q.21-.03.03.27-.06.24-.18.24-1.02.3-1.02-.12zm1.8-.48v-.12q.06.12.12.18.36.18.06.42-.3.18-.36.06-.06 0 .06-.24.18-.18.12-.3zm-31.8-7.17q-.18.09-.18-.06t.18-.15q.18 0 .18.06t-.18.15zm21.96-28.89q1.62-.06 3.78.24 1.38.18 1.92.36t1.14.72q.24.24.6.72t.6.84q.24.36.18.36t.12.48q.18.48.24 1.29t-.12.9q-.18.09.03.33.21.24.15.54-.12.42.42 2.76.12.54.06.78 0 .06-.12-.24-.06-.06-.06-.12-.24-.42-.9-.78-.66-.36-1.14-.66-.48-.3-.66-.18-.18.12-.54-.48-.36-.6-.96-.84t-.72-.54q-.36-.96-2.01-2.43-1.65-1.47-3.33-2.37-.42-.36-.48-.48.24-.12.18-.42-.18-.42.15-.6.33-.18 1.47-.18zm-26.58-.42q-.6-.54-.48-.84.12-.3.57-.21.45.09 1.2.27.75.18.99.39.24.21.36.15.54-.18 2.34 1.62 1.14 1.14 1.62 2.34.3.9.39 1.41.09.51.03 2.01-.12 2.1-.42 4.26-.3 2.16-.18 2.25.12.09 1.29-.27t1.35-.6q.12-.12.54-.12.42 0 .42-.15t.3-.27l1.44-.78q1.02-.54 1.26-.54t.36-.27q.12-.27.42-.27.54 0 .9-2.76.18-.96.21-2.61t-.03-1.95q-.18-.18-.24-.84-.12-.48-.39-.87t-.57-.39q-.18 0-.09-.36t.21-.51q.12-.15 1.92.09 1.44.12 2.1.42.66.3 1.14 1.08.36.6.48 3.3 0 .72.03 1.32.03.6.06.96t.03.3q.12-.06.69-.27.57-.21.57-.39 0-.18.21-.18t.39-.18q.18-.18.75-.51.57-.33.51-.57-.18-.06.3-.06h.66q1.08.12 1.86.12.48-.06.6.03t.06.24q-.06.15.06.18t.54.03q1.56.12 1.56.48 0 .24-.3.54-.48.48-.24.6t.03.12q-.21 0-.21.18t.27.12q.27-.06.27.18t.6.48q.6.24.6.3 0 .12-3.66 1.5-1.14.42-1.8.78-.66.36-.72.24-.06 0 0-.06t.18-.12q.12-.06.3-.12.6-.3.72-.48.18-.18 0-.15t-1.08.45q-.9.48-.9.6t.27.06q.27-.06.27.09t-.3.27q-.3.12-.57.3-.27.18-.81.36t-1.05.63q-.51.45-.93.66-.42.21-.66.87l-.24.6.78.84q.78.84 1.05 2.16.27 1.32.45 1.23.18-.09 1.14-1.44.96-1.35 1.14-1.89.3-.48.51-1.59.21-1.11.3-1.08.09.03.54.27.45.24 1.11.24.54 0 1.08.42t.78.96q.12.42.24 1.83.12 1.41.24 1.83l.12 1.26q.36 2.04-1.26 4.02-.84 1.08-1.2 1.47-.36.39-.36.48 0 .09-.42.57-2.1 2.28-2.1 2.76 0 .24.81.54.81.3 1.05.18.3-.06.48.06.42.24 2.4.24t3.06-.18q2.58-.6 3.12-1.38.84-1.08 1.02-2.76.18-.78.36-.72.12.12.24-.09t.18-.6q.06-.39.06-.87 0-.6.18-.6t.18.72l.06.66q.18-.24.3-3.36 0-1.14.12-1.14t.33.78q.21.78.15 1.14-.12.48.09.6t.21-.18q0-.3.18-.3.54 0 .42 3.18 0 1.2.09 1.53.09.33.51.33.24 0 .18-1.26 0-.24.15-.24t.15-.66l.3 2.52q.06 1.02.06 1.74 0 1.56.24 1.56t.36.87q.12.87.24.99.36.24.06 1.11-.3.87-.9 1.41-.18.18-.18.42 0 .06-.06.09t-.12.03q-.12 0-.33.03-.21.03-.33.15-.12.12-.06.18.06.18-.18.18-.48 0-.96-.48l-.42-.48-1.02.36q-.9.18-3.6.3t-3.96-.12q-1.08-.12-1.74-.18-1.14-.12-2.82-.99t-2.82-2.07q-.72-.54-1.08-.12-.18.3-.63.39-.45.09-.45.27 0 .18-.42.18-.3 0-.36.03t0 .21q.06.3-.3.66-.78.6-.84-.06-.06-1.26-.3-1.32-.18-.06-.18-.36t-.3-.06q-.12.12-.15.06t-.03-.36q0-.36-.24-.66-.24-.3-.54-.24-.12 0-.21-.21t-.09-.75q0-.96-.21-1.23t.09-.69q.3-.42.09-.6t.45-.48q.66-.3 1.2-.9l.54-.72-.06-1.98q-.06-1.92-.24-2.1-.06-.06-.24.36-.36.54-1.32 2.58-.72 1.56-.84 1.86-.18.24-.96 1.92-.18.48-.33.48-.15 0-.15.27t-.51.99q-.51.72-.51.93 0 .21-.51.81-.51.6-.51.78 0 .24-1.23 1.47t-1.35 1.23q-.18 0-.42.18-.36.48-.48.24v-.3q.12-.36-.15-.45-.27-.09-.15-.21.12-.18-.03-.45t-.27-.27q-.3 0-.6-1.2-.12-.66-.42-1.11-.3-.45-.21-.72.09-.27-.09-.63-.24-.3-.03-1.11t.54-.96q.33-.15.6-.42.27-.27.27-.45 0-.24.36-.54.24-.3 1.2-2.19t1.14-2.43q.12-.42.27-.42.15 0 .27-.48.12-.48.66-1.68 1.14-2.4 1.14-2.76 0-.12-.6-.12t-.69-.18q-.09-.18-.72-.18t-1.17-.45q-.54-.45-.96-.45-.9 0-.9-.48l-.06-.12q-.18.12-1.08 4.86-.48 2.34-1.2 4.86-.72 2.52-1.08 2.82-.3.36-1.56 3.3-1.02 2.82-1.68 3.48-.48.48-.57.96-.09.48-.78 1.41-.69.93-.6 1.23.09.3-.21.54-.36.12-.48.03t-.18-.69q-.12-.54-.99-1.47-.87-.93-.81-1.35.12-.36 0-.63t-.36-.27q-.24 0-.15-.75t.09-.96q0-.21.51-.21t.81-.78q.96-1.86 2.49-5.58 1.53-3.72 2.01-5.34.54-1.68 1.44-6.57.9-4.89.96-6.39.06-1.02.06-2.58-.06-1.74-.57-2.82-.51-1.08-2.19-2.46zM38 62.95q.18-.09.18-.18t-.18-.09q-.18 0-.18.18t.18.09zM32.72 12.7q.24-.24 1.47-.12t2.91.42q1.68.3 2.34.66.54.24.66.24.72 0 .84 1.5.12 1.2.3 1.23.18.03.12 1.05-.06.78.15.93.21.15.87-.27.48-.3.78-.3.36 0 .3-.54-.12-.18.6-.06.24.06.66.24l1.98.33q.9.15.9.39 0 .24.3.24t1.14.6q.72.66.54.78-.78.24-.48.72.24.42.39.93.15.51-.03.63-.24.12-.36.06t-.12.06q0 .12.6.48l.6.3-.6.24q-.72.24-1.35.33-.63.09-.75.27-.12.18-.6.18t-.57.12q-.09.12-.87.27-.78.15-1.65.45-.87.3-1.83.51-.96.21-1.74.45-.78.24-1.02.33-.24.09-.75.27-.51.18-1.32.48t-.93.42l-1.86.63q-1.68.57-2.16.69-1.08.24-1.47.15-.39-.09-1.29-.69-1.08-.84-1.74-1.02-.66-.18-.96-.66-.42-.78-1.44-1.38-1.32-.78-1.5-1.05-.18-.27.36-.75.48-.48 1.62-.48 1.74 0 6.12-1.44 2.4-.78 3.36-1.02l.96-.24-.24-.66q-.24-.72-.54-.96-.54-.6-1.02-3.24-.24-1.02-.96-1.77t-.72-.93zm11.19 11.7q.33.06.33.03t-.33-.24q-.33-.21-.33-.03t.33.24zm-1.05.6q.18-.12.18-.21t-.18-.09q-.18 0-.18.21t.18.09zm38.1.42q.42-.6 2.52.54.3.18 1.44.75 1.14.57 1.62 1.05 1.26 1.2 1.08 3.54-.12 1.08-.18 2.55-.06 1.47-.36 3.33Q86.24 43 86 45.22q-.3 3.72-.78 5.88-1.02 4.56-1.2 4.56-.06 0-.81-.96t-.93-1.38q-.78-1.56-1.02-1.56-.18 0-.27-.48-.09-.48-.45-.72-.54-.42-.18-1.86.24-1.08.42-3.24.06-1.08.24-2.1.54-2.94.72-5.58.06-1.92.24-2.61t.27-3.45q.09-2.76-.03-3.54-.12-.78-.78-1.59t-.48-1.17zm12.06-5.58l1.08-.96-.06.63q-.06.63-.3.87-.54.72-.3.72h.3q.54-.12.78-.24.12-.06.12.36.06.18.06.42 0 .6-.18.96t-1.02 1.32q-1.08 1.44-1.08 1.68t-.48.6l-.48.24-.84-.48q-.78-.48-1.08-.84-1.74-1.5-2.94-1.92-.54-.12-.72-.42-.18-.3-.24-1.2 0-.78.09-1.02t.51-.42q.3-.18 1.38.09 1.08.27 1.62.69.48.36.84.36 1.38 0 2.94-1.44zm14.94-2.82q.12-.18.81-.12.69.06 1.29.18.9.3 3.66 2.34 2.1 1.56 1.5 2.22-.24.18.24 1.23t.24 1.38q-.24.33-.36.27-.66-.18-.84 1.02-.12.84-.33.99-.21.15-.24.96-.03.81-.21 1.95t-.09 2.55q.09 1.41.06 2.79-.03 1.38.21 4.26t.24 3.15q0 .27.12 1.59t.21 3.39q.09 2.07.15 2.91.36 4.56.06 5.4-.18.78-.33 2.07-.15 1.29-.69 1.71-.42.3-.93 1.44t-.51 1.86q-.06.54-.18.54t-.6-.96q-.48-.96-.69-.96-.21 0-.12-.6t-.27-.84q-.36-.24-.36-.51t-.81-1.14q-.81-.87-.78-1.14.03-.27-.15-.36-.18-.09-.18-.42 0-.33-.15-.39t-.78-.81q-.63-.75-.63-1.35 0-.6-.18-.99t-.09-.63q.09-.24.75.18 1.14.84 1.32-.18.06-.48.03-3.06t-.21-2.88q-.06-.24-.15-3.39-.09-3.15-.21-3.45-.12-.3-.3-12.12-.06-4.2-.72-4.2-.24 0-2.22.42-1.98.42-2.73.36t-1.8-.42q-1.05-.36-1.53-.78-.48-.42-1.29-.75t-1.11-.57q-.3-.24.09-.57.39-.33 1.89-.57 1.8-.18 4.77-.99 2.97-.81 3.09-1.11.12-.3.45-.3t.6-.24.6-.24q.33 0 .39-.12zm55.62 38.94q0-.06.24-.06t.24.06q-.18.18-.48 0zm1.02-.12q-.18-.06 0-.06.12-.06.24-.06.36.06.3.12-.24.06-.54 0zm-4.02-35.76q.72-.3.99-.45.27-.15.87-.09 2.16.36 2.28.66.06.12.18.06.24-.18.84.27t1.02 1.05q.48.66.72.75.24.09.12.27-.12.18.12.36.24.12.27 1.14.03 1.02-.27 1.26-.18.24.18.57.36.33.69.6.33.27.57.27.72 0-.12.18-.48.18-1.14.24-2.16.42-4.14 1.14-.66.3-.78.45-.12.15-.12.45 0 .6-.12 3.72l-.12 3.18.48-.12q1.2-.36 1.32-.66.06-.24 1.89-.33 1.83-.09 2.4.18.57.27.57.48 0 .21.84.93 1.38 1.26.9 1.86-.18.3-.18.9.06.48 0 .6t-.48.12q-1.38.06-5.16 1.62-1.26.54-2.04.78l-.78.36-.18 1.62q-.06 1.68-.45 2.07-.39.39-.39 1.05 0 .54.24.54.36.18 4.98-.12 3.9-.24 3.9-.42 0-.36 2.16.42 1.5.48 1.74.48.18 0 .93.57t.63.69q-.06.18.78 1.05.84.87.63 1.11-.21.24.09 1.08.48 1.08-.06 1.08-.42 0-.06.6.12.3 0 .54-.12.24-.48.18-.42-.12-.42.06t.42.36q.3.12 0 .12-.12 0-.6-.06-2.1-.18-8.22-.18-2.22-.06-2.22-.24.12-.06-.18-.06-.72 0-2.64.36l-.84.3h.42q.48 0 .48.03t-.66.15q-1.02.12-1.08.06l.24-.06q.24 0 .24-.21t-.27-.09q-.27.12-1.05.12t-.75.12q.03.12.03.54l-.06.36-.18-.3q-.12-.36-.3-.48-.66-.42-4.38.48l-4.14.96q-1.5.36-3.78 1.14-2.28.78-2.76 1.14-.48.36-.6.36t-1.08-.69q-.96-.69-1.17-.69-.21 0-.75-.63t-.81-1.17q-.27-.54-.69-.9-.36-.24-.57-1.02-.21-.78.03-.9.12-.12.06-.42-.36-1.38-.18-1.74.18-.24 1.08.18 1.38.66 3.42 0 1.02-.36 2.34-.66 1.56-.24 1.56-.6 0-.06-.18-.24-.3-.48.96-2.46.6-.9.72-1.86.12-.96.18-4.32 0-1.98-.12-2.49-.12-.51-.66-.69-.3-.12.12-.24.36-.06.39-.39.03-.33-.33-.57-.66-.48-.27-.9.39-.42 1.95.03 1.56.45 2.58 1.29.9.66 1.08 1.5.12.72.12 4.17t-.06 4.53l-.06.96h.96q.96 0 1.2-.06.66 0 .66-3.24.06-2.04.24-3.84.48-3.66.3-3.84-.24-.12-.12-2.82.12-2.7-.18-3.15-.3-.45-.36-.51t-1.56.66q-1.5.72-1.83.72-.33 0-1.38-.99-1.05-.99-1.8-1.29-.75-.3-.9-.51-.15-.21-.66-.54-.51-.33-.69-.87-.18-.54-.9-1.02-.36-.3-.48-.45-.12-.15-.06-.75.18-.72-.06-1.02-.18-.42.06-.6t.84-.18q1.32 0 2.1-.18t2.34-.9l4.68-2.22q1.56-.66 3.18-1.2.6-.24.75 0 .15.24.24-.03t.81-.57zm67.83 48.66q-.15 0-.39-.18-.24-.18-.09-.18t.39.18q.24.18.09.18zm-3.09-.66q-.12-.18 0-.18.06 0 .24.06.18.18.18.24-.18.06-.42-.12zM197.78 32.2l-.12-.18.12-.18q.12.12 0 .36zm-2.04-10.74q.36-.48 2.76.66 1.56.72 3 2.07 1.44 1.35 1.62 2.31.12.42-.09 1.11-.21.69-.51 1.11-.42.48-.66.96-.06.24-.18.36t-.18.09q-.06-.03-.27.24-.21.27-.39.69-.48 1.02-.66 1.02-.18 0-.3.3l-.06-.06q0-.12.06-.3.06-.6-.15-.6t-.48-.03q-.27-.03-.48.09-.21.12-.39-.18-.18-.3-.36 0-.12.18-.12-.12 0-.12.06-.36.06-.48.03-.54-.03-.06-.21.24-.24.36-.48 1.02l-.12.42v-.12q0-.36.36-1.92t.24-3.24l-.06-1.74-.9-1.5q-.96-1.5-1.14-1.62-.18-.12.06-.36zm26.1-8.43q.66-1.53.93-1.86.27-.33.6-.24.33.09 1.05.63.96.84 1.29 1.17.33.33.81 1.23.6 1.08.51 1.92-.09.84-.72 2.13t-.33 1.41q.42.24 1.02.18.18-.06 1.11.24.93.3 1.05.48.06.12.36.12t1.08.75q.78.75 1.14 1.35.36.54.51.54.15 0 .15.33t.12.51q.24.12.12.36t-.54.36q-.54.18-1.5.3-3.36.36-6.12.72l-1.14.24.06.54q.06.54.6 1.26l.6.6-.78 1.26q-.78 1.14-1.32 1.56-.48.3-.81.75-.33.45-.21.57.06.06 1.14-.36 2.1-.72 3.24 0 .66.36.96.36.3 0 .66.36.36.36.54.48.3.18.9 1.2.6 1.02.72 1.44.12.48-.09 1.44t-.24 6.72q-.03 5.76-.24 8.46-.21 2.7-.33 4.62l-.12 1.98-.3-.36-1.08-.96q-.66-.6-.66-.78 0-.18-.36-.36-.42-.24-.87-.72t-.33-.6q.06-.12-.18-.36-.42-.36-6.6.96l-3.24.66-.24.72q-.18.84-.06.96.3.24 6 1.74 1.62.48 3.21.72 1.59.24 3.06.51t5.49.81q7.56.78 8.88 1.2.36.06.57.39.21.33 1.05.63l.72.36-.36.42q-.3.42 0 .78.3.36.36.45.06.09.21.36t.63.33q.36.06.12.06-.06 0-.3.12-2.04.06-6.06.78-1.5.3-2.52.45-1.02.15-1.71.27-.69.12-1.32.09-.63-.03-1.02.18t-1.47-.15q-1.08-.36-1.26-.45-.18-.09-1.92-.63-4.32-1.38-5.1-1.86-.36-.24-1.11-.51-.75-.27-1.11-.45-.36-.18-3.12-1.26-6.42-2.7-9.87-3.48-3.45-.78-6.03-.24-3.24.78-3.9 1.14-.18.24-.87.09t-1.17-.45l-1.02-.72q-.6-.36-.6-.51 0-.15-.3-.15-.36 0-.72-.42t-.24-.72q.06-.36 1.23-.57 1.17-.21 3.69-.75t4.95-.6q2.43-.06 2.52-.15.09-.09-.45-.78-.54-.69-.78-1.68t-.36-1.05q-.12-.06-.12-.33t-.51-1.38q-.51-1.11-.51-1.35t-.12-.36q-.12-.12-.54-1.29-.42-1.17-.42-1.29.06-.12-.27-1.86-.33-1.74-.39-1.86-.18-.06-1.23.63t-1.77.81q-.54.06-1.74-.15t-1.2-.33q0-.12-.6-.24t-1.11-.57q-.51-.45-.63-.45-.36 0-.06-.54.06-.18.24-.3 1.26-.3 3.06-1.62.66-.48 2.82-2.58 2.16-2.1 2.16-2.28 0-.18.57-.69t.81-.51q.3 0 .39-.21.09-.21.39.03.9.72 1.38.72.18 0 .87.69t.99 1.23q.36.42.84 1.08.54.84.6 1.11.06.27-.36.45-.48.12-.66.6-.18.48-.48.78-.3.3-.81 2.25t-.39 3.57q.18 3.12 1.8 6.78.66 1.5 1.02 2.4.24.78.66.96.42.18 3.6.9 2.46.6 2.7.66l-.24-.36-.12-.12q-.66-.54-.66-.78 0-.54-1.44-1.38-.9-.54-1.14-.78-.18-.18-.15-.48t.15-.48q.24-.06.18-1.62t.24-1.86q.3-.3.18-.93-.12-.63 0-.87.3-.48.54-4.8.06-1.26.18-3.06.36-4.32-.42-5.94-.42-.9-.3-1.26t.78-.24q1.38.18 2.16 1.02.36.36.48.24t.18-.96q.06-.66.24-.99.18-.33.9-1.05 1.92-1.92 2.88-3.9.18-.42.18-.48t-.18-.06q-.36 0-1.74.33t-2.19.45q-.81.12-.96.36-.15.24-.78-.03t-1.35-.33q-.72-.06-.99-.36t-.51-.3q-.24 0-.9-.33t-.84-.33q-.18 0-.9-.66t-.6-1.2q.12-.36.27-.42.15-.06 1.05-.18 1.2-.18 3.66-.78 2.16-.54 2.25-.78.09-.24-.99-1.44-.96-1.02-1.23-1.59-.27-.57-.69-2.01-.42-1.56-.72-2.04-.72-1.14-.42-1.62.18-.24 1.68.36 3.06 1.14 4.56 2.58 1.02 1.02 1.08 1.56l.3 1.8q.12 1.08.3 1.29.18.21.72.15 1.14-.18 1.2-.24 0-.12-.3-.3-.96-.72.54-3.12 1.74-2.58 1.44-3-.06-.18.6-1.71zm2.04 23.19q-.24-.6-4.26.78-2.04.72-2.7.9l-.78.18v1.14q0 1.08.15 1.08t2.55-.9q2.4-.9 3.45-.9 1.05 0 1.11.21.06.21.48.21.24 0 .27-.15.03-.15-.03-.99-.12-1.2-.24-1.56zm.84 8.76l-.06-1.74q0-1.86-.12-1.86t-2.1.72q-5.88 2.1-6.24 2.1-.12 0-.24.75t-.06.93q.06.18 1.86-.42t2.82-.84q.54-.18 1.2-.24.66-.06 1.08-.03.42.03.42.09 0 .24.72.36l.72.18zm0 .54q0-.18-.24-.18-.12 0-.21.18t.03.24q.12.12.27.03.15-.09.15-.27zm-.06 3.06q.06-.96 0-1.14-.06-.18-.36-.18-.6.12-2.82 1.02-3.6 1.44-5.34 1.68-.54.18-.72.45-.18.27-.18 1.29 0 .84.33.84t3.21-.66q4.14-.84 5.4-.48.12 0 .18-.09t.15-.45q.09-.36.12-.9t.03-1.38zm64.32-22.38q.24-.24.72-.18.42.06 2.04.84t2.04 1.14q1.5 1.2 1.95 1.65.45.45.39.51-.06.18-.06 3.93t.12 5.67q.06 1.56.18 4.14.18 4.68.36 6 .18.66.6.84 1.2.3 1.98-.12.54-.24.96-.18.42.06 1.32.78 1.86 1.5 2.82 3.54l.24.72q.12.36.09.57-.03.21-.09.21-.18 0-.18.24 0 .36-1.02.51-1.02.15-4.26.27-4.32.06-4.44.27-.12.21-.24.75l-.24.54-1.02-.72-1.02-.84-1.26.12q-1.26.12-4.38.48t-5.88.6q-2.76.24-3.9.6l-1.08.24-.9-.42q-.9-.36-1.35-.36-.45 0-.63-.39t-.78-.63q-1.26-.3-1.86-1.5-.3-.48-.06-.9.18-.24.39-.33.21-.09 1.17-.09.9 0 3.72-.48 2.82-.48 3-.6.12-.12-.09-.54-.21-.42-.21-.84.12-1.02-.18-1.02t-.21-.75q.09-.75.24-.9.15-.15.36-5.22.21-5.07.27-6.03.06-1.14-.12-4.35t-.3-3.33q-.18-.24-.18-.54 0-.3-.3-.3t-.3-.06q0-.54.72-.9.48-.3 1.5 0 .78.12 1.2.06.42-.06 2.04-.6 2.22-.78 3.6-1.02 1.98-.48 2.52-1.08zm.18 5.34q-.06-.6-.3-.66-.24-.06-1.26.3-1.02.3-2.28.42l-1.38.12v3.18q0 2.28.03 2.76t.27.48q.3 0 .45-.12.15-.12 2.49-1.08l2.4-1.02v-.6q0-1.62-.42-3.78zm-2.1 9.18q1.38-.72 1.38-.78 0-.06-1.56.66-1.5.6-2.22.6-.72 0-.78.27-.06.27-.12 1.65 0 .42-.03.75t-.03.51q0 .18.06.18t2.55-.75q2.49-.75 3.03-.75.42 0 .54-.12.12-.12.12-.48 0-.6-.18-1.5-.06-.6-.12-.75-.06-.15-.18-.15-.3.18-1.68.66-1.74.66-1.8.6-.12-.06 1.02-.6zm3.03 10.95q.03-.03.09-2.22.06-2.19-.03-2.46t-1.53.33q-2.28.84-3.42.72-.24 0 .18-.24l.54-.18-.9-.06q-.9 0-1.02-.18-.36-.54-.42.36v.54q-.06 3.12-.66 4.08-.18.3-.18.36t.36.06q.48 0 2.91-.45t3.24-.54q.81-.09.84-.12zm-27.15-39.51q.48-.48.84-.48.6 0 3.3 1.8.6.48.9 1.02.3.54.48 1.02.18.36.24.84t-.18.6q-.12.06-.06 1.08t.3 1.86q.18.72.06 1.86-.36 4.68-.24 5.58l.06.84.36-.72q.48-.96.9-2.37.42-1.41.36-1.89-.12-.66.18-.87.3-.21.84-.21t.84.24q.36.18.84.36 1.02.3 1.68 1.23.66.93.42 2.01-.06.54-.81 2.13-.75 1.59-1.59 2.73l-1.14 2.04-.72.72q0-.24-.21.06t-.45.3q-.18 0-.51.57t-.33.75q0 .48.72-.36.42-.42 1.08-.54l.54-.18q-.06-.12.06-.24t.36-.24q.24-.12.48-.12.48 0 1.74.69t1.86 1.17q.96 1.02.48 1.38-.06.12-.3.12-.3 0-.18.45t-.15.45q-.27 0-.27.33t-.48.54q-.48.21-.72.42t-2.25 1.2q-2.01.99-2.31 1.26-.3.27-.3 1.53v1.32l.72.48q1.68 1.02 2.4 3.42.72 2.04.24 2.22-.24.06-.36.66l-.12.54-.48-.36q-.54-.3-1.41-.93-.87-.63-.93-.63-.06 0-.06.12v.36q0 .24.06.48.06 1.02.06 5.1 0 5.76-.24 5.88-.12.12-.12.78 0 .96-.3 2.67t-.54 1.71q-.18 0-.18.6 0 .84-.3.84-.06 0-.24-.18-.24-.36-1.08-1.26-1.56-1.86-1.8-2.31-.24-.45-.3-1.35-.06-.78-.27-.99-.21-.21-.09-.33.06-.06.24-1.68.18-1.62.18-2.16-.06-2.58 0-4.38.06-1.5-.06-1.56 0-.06-.18.12t-.42.63q-.24.45-.6 1.11-.36.66-.75 1.5t-.87 1.8q-1.8 3.72-2.16 4.26-.36.54-.72.54-.48 0-.66.24-.36.18-.63-.12t-.27-.78q0-.72-.42-1.38-.54-1.08-.78-2.88-.06-.72.42-1.29.48-.57 2.07-3.72 1.59-3.15 2.37-4.53.12-.36.3-.66.18-.3.24-.48l.06-.18q-.18 0-1.38.69t-1.56.99q-.48.48-1.5.48-1.02-.06-1.77-.27-.75-.21-.75-.51.06-.06 0-.09t-.18.03q-.3.06-.3-.12t-.93-.45q-.93-.27-.93-.51t-.27-.45q-.27-.21-.18-.48.09-.27-.21-.33-.72-.12-.24-.48.24-.12 1.29-.18t2.82-1.05q1.77-.99 2.34-1.38.57-.39 2.34-1.41t2.61-1.59q.84-.57 1.53-.87.69-.3.69-.72 0-.18-.12-.36t-.21-.18q-.09 0-.27.12-.12.3-.09.06t.27-1.02q.24-.84.12-2.4t-.12-2.37q0-.81-.18-.93-.12-.18-.12.06-.06.3-.06 1.74-.06 1.44-.39 1.74-.33.3-.36.54-.03.24-.18.6t-.09.63q.06.27-.54.96-.6.69-1.08 1.59-.48.84-.84.9-.36.06-1.2-.54-.84-.66-.96-.66-.18 0-.54-.51-.36-.51-.36-.69 0-.18-.42-.3-1.5-.42-1.5-.9 0-.36-.27-.69-.27-.33-.3-.96-.03-.63.21-.93.36-.36 1.86.42 1.14.66 2.52.06 1.38-.6 3.66-2.7l1.14-1.08-.18-2.04q-.48-8.58-.66-10.08-.24-1.14-.3-1.86-.18-2.34-.72-2.88-.24-.3-.24-.42t.36-.42zm82.38 5.16l.72-.3q.78-.24.96.12.06.12.6.12 1.26 0 2.58.9.96.6 2.37 1.35 1.41.75 1.35.96-.06.21.24.36t.42.18q.12.03.48.18t.48.84q.12.69.36 1.17t.33 1.23q.09.75.24.87t.33.48q.18.24.18.3t-.24.06q-.24-.06-.3.15t.12.69q.12.42-.15.42t-.15.36q.06.24-.06.33-.12.09-.36-.21-.12-.24-.24.18-.18.36-.33.36-.15 0-.27-.36-.06-.24-.51-.63t-.75-.45q-.3-.06-.72-.54-.42-.48-1.32-1.2-1.56-1.14-3.18-3.18-.84-1.08-1.38-1.5-.6-.48-1.2-1.8-.48-.9-.78-1.11-.3-.21.18-.33zm-14.28-4.86q.18-.12.18-.42t.48-.33q.48-.03.78.21.36.3.72.3.54 0 1.38.78.36.24.84.48.42.18 1.2.81.78.63 1.35 1.23.57.6.45.78-.12.06-.15.81t-.15 1.2q-.12.45-.21 1.8t-.33 2.34q-.24.99-.36 1.89l-.06.9.72-.18q1.2-.42 1.62-.66.42-.24.3-.54-.06-.18-.03-.27.03-.09.27.03.24.12.9-.36l.54-.42.96.6q.96.72 1.86.78.9.06 1.35.36.45.3.99.42t.51.36q-.03.24.93 1.2.72.6.84.84t.12.84l-.12.6q-.12-.06-.57.51-.45.57-.81 1.47-.54 1.08-.63.99-.09-.09-.39.21l-.72.9q-.54.66-.42.81.12.15 1.02.15 1.02-.06 1.35-.18.33-.12.69.18.54.54 2.7.78 1.26.06 2.04.54.78.48 1.2.66 1.44.78 1.86 1.14l.84.72q.48.48.3.57-.18.09-.18.42 0 .33.18.36.18.03.06.51t-.39.78q-.27.3-.21.84 0 .54-.09.75-.09.21-.45.15-.18-.06-.51.42t-1.29 2.52q-.66 1.56-1.44 1.74-.42.12-1.32 1.68-.42.66-.51.78-.09.12-.21-.06-.18-.12-.27.03-.09.15-.39.63-.9 1.92-1.5 2.58-.42.48-1.08 1.68-1.68 2.88-2.58 2.88-.3 0-.36-.09t-.06-.45q0-.6-.63-1.2t-.63-.78q0-.18-.51-.78-.51-.6-.51-.81 0-.21-.42-1.35-1.44-3.78-.78-4.8l.24-.48.9.9q.9.96 1.08.96.78 0 2.04-5.16.42-1.68.6-2.16.12-.36.09-.42t-.51-.06q-.6 0-2.7.33t-3.12.69l-2.1.54-.96.3-.12 5.58q-.12 5.52-.3 7.44-.3 3.18-.36 6-.06.72-.12.72-.3-.36-.42-.06-.06.18.06.54.18.48 0 2.04-.06 1.56-.24 1.56-.12.06-.18 0-.3-.06-.3.18 0 .54-.3 1.62l-.12.6-.36-.48q-.3-.42-.3-.6t-.18-.18q-.24 0-1.05-.84t-.81-1.14q0-.12-.3-.06-.18.06-.21.03t.03-.27q.06-.42-.33-.78-.39-.36-.39-.72t-.06-.51q-.06-.15.09-.75t-.03-.81q-.18-.21-.12-.33.06-.06-.06-.18-.06-.06-.12-.06-.3-.06-.36-.15t.06-.24q.12-.15.42-.21.36-.06.45-.66.09-.6.27-3.12.12-1.68.18-2.31.06-.63.36-4.08t.39-3.57q.09-.12.15-1.56.12-1.32-.06-1.32h-.18q-.42.18-5.52 1.44-1.02.3-2.25-.03-1.23-.33-1.53-.51-.18-.24-1.32-.51-1.14-.27-1.62-.27-.66 0-.72-.84 0-.12-.24-.54-.24-.42-.24-.9.06-.36.24-.42t1.08-.18q1.98-.24 8.34-2.28 3.48-1.14 3.96-1.26l.48-.06v-4.14l-.48-.12q-.48-.18-1.38-.72-.9-.54-2.28-1.2-1.8-1.02-1.74-1.56.18-.06-.06-.33t0-.69q.12-.36.33-.42.21-.06 1.05-.06 1.68 0 3.9-.78l.84-.3-.06-4.32q-.06-4.62-.39-6.48-.33-1.86-1.11-2.52-.24-.18-.27-.54-.03-.36.09-.48zm8.22 21.96q-.06-.9.15-1.83t.15-1.29q-.06-.36-1.44.18l-1.38.54-.18 1.98q-.12 2.04-.06 2.04.06.12 2.28-.48l.6-.18-.12-.96zm42.6-16.38q0-.36 1.26.06.36.06.84.24 2.4.66 4.92 2.64.24.24.87 1.44t.63 1.5q0 .3-.27.84t-.42.54q-.15 0-.15.3 0 .78-1.92 3.42-.9 1.08-.9 1.29 0 .21-.18.21t-.18.24q0 .24-.51.81-.51.57-.51.81 0 .24-.24.24-.06 0-.09.03t-.03.09q.06.18-.78 1.44-.84 1.26-1.14 1.32-.72.12.42.48.18.06.48.18 1.08.36 1.95.93.87.57.99 1.05.18.48.09 2.37-.09 1.89-.21 2.85-.18.84-.42 3.96-.42 7.08-.66 7.98-.18.6-.18 1.56 0 .96-.24 1.32-.42.54-.54 2.82-.18 1.14-.27 1.47-.09.33-.57-.36t-1.47-1.35q-.99-.66-.99-.99 0-.33-.39-.51t-.39-.84q0-.66-.3-.99-.3-.33-.18-1.05t.18-1.38q.06-.66.27-1.32.21-.66.12-.93t.09-.75q.3-.48.39-1.2.09-.72-.09-.84-.24-.06-.06-.24.18-.3.3-4.86.06-2.22.24-3.78.18-2.88-.3-2.88-.12 0-1.32 1.5-1.2 1.5-1.38 1.74-1.02 1.08-1.08 1.56 0 .3-.3.54-1.02 1.26-2.94 5.46-.24.42-.36.54-.18.18-.51-.09t-.33-.63q0-.42-.66-.93t-.54-.75q.06-.12-.21-.42t-.51-.3q-.18 0-.09-.3t-.09-.3q-.18 0-.18-.39t-.15-.51q-.15-.12-.06-.3t-.03-.42q-.36-.66.6-1.86.36-.36.63-1.02t.45-.66q.18 0 .27-.39.09-.39.63-.99.54-.48 1.5-1.89t.96-1.53q0-.18.66-1.08l.84-1.02q.12-.18.15-.48t1.05-1.83q1.02-1.53 1.53-2.46.51-.93.78-1.38.27-.45 1.38-2.55 1.11-2.1 1.23-2.4.9-1.5.84-2.28 0-.42-1.11-1.23t-1.11-1.11zm17.4-2.88q0-.42.06-.54.06-.12.42-.12.42 0 1.23.27t1.11.57q.3.24.54.24.24 0 .57.36.33.36 1.23.9 1.62 1.14 1.62 2.1 0 .66.18.84.24.24.21.84t-.33.84q-.42.36-.3.6t-.18 2.46q-.3 2.22-.18 2.31.12.09.57-.21.45-.3 1.02-.21.57.09 2.13-.42t2.4-.57q.6-.12.84-.03t.9.63q.78.78.78 1.2 0 .42.45.84t.18.51q-.27.09-.27.63.06.48.12.48.12 0 .24-.06v.06q-.24.3-.3 1.08l-.06.72h-.72q-1.5.06-3.93.69-2.43.63-4.17 1.41-.48.18-.63.42-.15.24-.21 1.38-.12 1.14.06 1.44.18.3 1.26.9 1.68.78 3.66 2.52.54.54 1.68 1.38 1.14.84 2.13 1.62.99.78 2.43 1.47 1.44.69 1.44.84 0 .15.75.51t.93.36q.42 0 1.74 1.14t2.76 2.64q1.92 2.04 1.92 2.19 0 .15-.27.12t-.75.03q-.36.12-.39.21-.03.09.09.39.24.48.54.96.36.48.27.6-.09.12-.69-.24-1.38-.78-1.38-.18 0 .18-.3.06-.12-.06-.15-.03t.03.21q.06.18 0 .21t-.3-.03q-.42-.18-1.74-.36-1.56-.3-3.24-.96-.24-.06-.45-.15-.21-.09-.33-.09h-.12q-.12.48-1.38-.66-.72-.72-1.38-1.14-.66-.42-1.08-.84-.42-.42-.72-.15t-.24 1.17l.12.78h-.6q-.54 0-1.11.3-.57.3-.63.54-.12.36-1.02.36-.66 0-2.13.3-1.47.3-1.59.48 0 .06-.15 2.46t-.24 2.58q-.09.18-.09.96 0 .66-.18.66-.06-.06-.12.09t-.12.27q-.06.48-.3 1.26t-.42 1.86l-.18 1.02-.12-.78q-.18-.72-.6-.87-.42-.15-.42-.33 0-.18-.36-.18t-.69-.75q-.33-.75-.33-.96 0-.21-.6-.84t-.48-.75q.12-.24.15-.81.03-.57-.03-.75-.12-.3-.12-1.32 0-.96-.33-1.41-.33-.45-1.23-.93-.78-.36-.78-.54 0-.18-.72-.36t-.84-.69q-.12-.51-.24-.51-.3 0-2.34 3.06-1.02 1.56-1.86 2.1-.84.54-.84.72 0 .18-.24.18t-.12-.54q.06-.42-.09-.96t-.39-.54q-.12 0-.21-.51t-.39-.81q-.3-.3-.24-1.44.18-1.8.9-2.1.3-.06.3-.39t.54-.39q1.02-.24 3.24-3.6 1.14-1.68 2.85-5.13 1.71-3.45 2.07-4.65.48-1.74.18-1.8-.06 0-.24.06-.36.12-1.11.36-.75.24-.75.42t-.3.06q-1.38-.66-2.76-.72-.6-.06-1.89-.96-1.29-.9-1.95-.9-.42 0-.54-.06-.12-.06 0-.3.12-.3-.24-.42t-.27-.39q.09-.27.09-.39t.3-.45q.3-.33 1.59-.48 1.29-.15 2.13-.39.72-.24 4.02-1.47t3.48-1.29q.24-.3.42-7.44 0-2.58-.06-3.18-.06-.6-.36-1.2-.36-.84-.54-.93-.18-.09-.18-.63zm6.96 28.74q-.42-.48-.96-.81-.54-.33-.6-.33-.3 0-.06 3.48l.12 1.86.9-.06q.9-.12 1.5-.24.54-.18.87-.24.33-.06.54-.06.21 0 .27.06.06.06.06.12 0 .6.72.12.06 0 .03-.12t-.21-.36q-.18-.24-.45-.54-.27-.3-.69-.72-1.62-1.68-2.04-2.16zm-6.66 5.64v-1.92q.06-.54.06-.99v-.93q-.3 0-1.71 2.25t-1.17 2.37q.06.06 1.44-.36l1.38-.42zm21.72 1.38q-.06-.06-.36-.09t-.6 0q-.3.03-.3.09 0 .18.24.3.6.12 1.02-.3z"/></svg>