<svg viewBox="0 0 446 80" xmlns="http://www.w3.org/2000/svg"><path d="M46.1 35.98l1.92-2.04 2.7 2.22-2.28 2.4-2.34-2.58zm-4.68 3.36h13.2v1.44h-14.1l-8.7 14.34-2.1-1.32 7.98-13.02h-4.56v-1.44h5.4l3.24-5.28 2.04 1.26-2.4 4.02zm12.24 5.1l-3.48 3.42q.54.78 1.56 1.38 1.02.6 2.88 1.14l-3.36 6.12q-2.46-.42-4.11-1.14-1.65-.72-2.79-1.68l-2.28 2.34-1.74-1.68 2.52-2.52q-1.2-2.1-1.23-4.62-.03-2.52-.03-4.98h7.86v2.94l2.52-2.46 1.68 1.74zM40.82 26.26l-2.76 3-2.94-3.18 2.4-2.52 3.3 2.7zm-10.44 6.3v1.92q0 1.8.03 4.05t-.84 4.56q-.87 2.31-3.06 4.44-2.19 2.13-6.63 3.63l-4.5-6.9q1.92-.78 2.97-1.74 1.05-.96 1.53-2.13t.54-2.67q.06-1.5.06-3.24v-3.3h28.38v1.38H30.38zM90.86 31h17.46L110 52.9H97.82l1.56-20.46h-8.52V31zM80.48 52.9L80 33.46h3.12l-.6 19.44h-2.04zm2.22-23.28l2.34-2.46 3.3 2.7-2.7 2.94-2.94-3.18zm77.4 20.7h8.58v1.38h-27.36v-1.38h3.84l-.54-13.2h3.36l-.36 13.2h4.68l-1.32-20.64h-8.64V28.3h25.86v1.38h-7.02l-.48 9.48h6.96v1.44h-7.08l-.48 9.72zm74.76-15.66H224.3l-1.08 4.02h8.94l-1.14 14.94h-19.44v-1.38l-.42-13.56h5.7l-.48-4.02h-8.76v-1.38h27.24v1.38zm-37.14 22.38l.3-17.64h-2.88v-1.38h12.72l-3.78 17.64h20.1v1.38h-26.46zm17.04-33.96l3.96 6.42-3.66 2.46-4.92-5.4 4.62-3.48zm8.46 25.98h-9.36l-.12 3.18h9.78l-.3-3.18zm-9.12-4.5l-.18 3.12h9.24l-.24-3.12h-8.82zm.18-4.5l-.12 3.12h8.64l-.24-3.12h-8.28zm13.92-17.1l2.22 1.8-6.96 7.26-1.74-1.32 6.48-7.74zm-25.32 13.5l-2.94-3.18 2.34-2.58 3.3 2.76-2.7 3zm67.14 5.46l-.12 4.2h3.78v1.38h-3.84l-.18 5.52-1.62.06-.18-5.58h-8.1v-1.38h8.04l-.12-4.2h-3.36q-.48.54-.81.84-.33.3-.57.54l-.6.48-3.6-4.68q1.74-1.5 2.67-3.39.93-1.89 1.29-3.69h-2.94v-1.38h3.3q.18-1.62.18-2.64v-1.08h5.82q.06 1.02.06 1.95 0 .93-.12 1.77h4.68v1.38h-4.8q-.48 2.82-1.44 4.95-.96 2.13-2.04 3.57h2.22l-.12-3.42 2.7-.06-.06 3.48h2.64v1.38h-2.76zm4.26-14.52h14.22q-.12 1.08-.36 2.22-.3 1.08-.78 2.4-.48 1.32-1.38 2.7l5.28 5.28-1.98 1.98-5.04-5.04q-1.44 1.56-3.6 2.91t-5.1 2.13l-3.36-4.2q2.16-.48 3.96-1.68 1.5-.96 2.88-2.73t1.8-4.59h-6.54V27.4zm10.5 17.1l-.96 6.66h5.94v1.38h-15.48v-1.38h5.94l-.96-6.66h-4.38v-1.38h14.28v1.38h-4.38zm64.32.9l3.48-1.32 3.84 7.38-4.74 1.98-.72-2.22-13.32 1.2-1.32-1.38q2.4-1.92 3.93-4.08 1.53-2.16 2.49-3.96 1.02-2.22 1.62-4.26l2.16 1.08q-.42 1.98-1.26 3.66-.84 1.68-1.83 3.06-.99 1.38-1.98 2.46t-1.83 1.8l10.98-.96-1.5-4.44zm10.56-7.92l-3.42 4.26-7.62-7.92 2.16-2.64 8.88 6.3zM341.18 26.5l7.14 3.42q-.78 3.24-2.55 5.55-1.77 2.31-3.63 3.81-2.22 1.8-4.62 2.94l-5.64-4.92q2.52-1.5 4.29-3.33t2.91-3.51q1.26-1.92 2.1-3.96zm-14.34 14.7l2.34-2.58 3.24 2.7-2.7 3-2.88-3.12zm4.62-6.48h-4.74l-1.38 17.76h-4.14l-1.38-17.76h-5.94v-1.38h5.82l-.42-5.22h7.98l-.42 5.22h4.62v1.38zm-15.42 6.42v-3.18h2.58v3.18q0 3.18-.99 5.52-.99 2.34-2.13 3.84-1.32 1.8-3 3.06l-2.16-1.14q1.56-1.14 2.82-2.76 1.14-1.38 2.01-3.51.87-2.13.87-5.01zm64.26-14.28l7.86 3.84q-.9 3.54-2.88 6.12t-4.08 4.32h2.58l-.18 8.16h-4.2l-.3-6.66q-1.2.84-2.04 1.26-.48.24-.9.42l-6.18-5.52q2.82-1.62 4.77-3.66 1.95-2.04 3.21-3.9 1.44-2.22 2.34-4.38zm31.74 9.72l7.98 10.02-5.16 3.96-6-11.64 3.18-2.34zm-4.26-1.74l-1.02 12.48h4.14v1.38h-4.26l-.42 4.68-6.66.06-.42-4.74h-4.26v-1.38h4.14l-1.08-12.48h-9.9V33.4h9.78l-.6-7.08 11.22-.06-.6 7.14H416v1.44h-8.22zm-16.26 6.48v-3.6h2.58v3.6q0 3.18-.99 5.52-.99 2.34-2.13 3.84-1.32 1.8-3.06 3.06l-2.16-1.14q1.56-1.14 2.82-2.76 1.14-1.38 2.04-3.51.9-2.13.9-5.01z"/></svg>