<svg viewBox="0 0 421 80" xmlns="http://www.w3.org/2000/svg"><path d="M26.36 54.58l-2.94 6.54h-8.28l2.88-6.54v-34.8h21.54l-.96-2.1h9.84l.9 2.1h18.72v5.94h-41.7v28.86zm9.66 6.36h-7.98l7.44-23.28h-6.9v-5.88h8.82l1.5-4.68h8.34l-1.56 4.68h12.48l-1.44-3.54h7.38l3.84 9.42h-9.78v4.2l1.26-1.26h8.34l-9.6 9.96v2.7q0 .78.54 1.32t1.32.54h7.74l-2.58 5.82h-7.92q-1.92 0-3.42-.93t-2.34-2.49l-2.4 2.46h-8.52L50.72 49.6V37.66H43.7l-7.68 23.28zm56.58-34.5h-9.78l-3.84-8.64h9.84l3.78 8.64zm2.04-1.68v-5.94h28.32v35.52q0 1.38-.51 2.58-.51 1.2-1.41 2.1-.9.9-2.1 1.41-1.2.51-2.58.51h-7.8l2.28-5.16h1.92q.78 0 1.32-.54t.54-1.32V24.76H94.64zm-15.72-1.98V61h-8.34V22.78h8.34zm51.96 6.66h8.04v25.32h9.24V24.04h-22.44v-6.18h52.5v6.18h-21.3v11.7h21.3v6.18h-21.3v12.84h21.3v6.18h-52.5v-6.18h5.16V29.44zm99.6-11.7l-1.98 3.42h5.04v4.86h-17.28l-2.22 2.46h18.6v18.9q0 1.38-.54 2.58-.54 1.2-1.44 2.1-.9.9-2.1 1.41-1.2.51-2.52.51h-30.18v-25.5h8.94l2.16-2.46h-12.3v-4.86h5.04l-1.98-3.42h8.34l1.98 3.42h12.12l2.04-3.42h8.28zm-26.28 24h20.1v-1.8h-20.1v1.8zm0 6.84h18.24q.78 0 1.32-.54t.54-1.38h-20.1v1.92zm20.1-13.56V33.4h-20.1v1.62h20.1zm-43.38-17.28h7.92l4.14 7.32h-7.92l-4.14-7.32zm10.74 32.16l4.38 5.64h37.38l-1.74 5.52h-39.9l-2.4-2.94-.78 2.94h-7.74l5.04-15.48h-5.04l.12-.24 5.04-13.02h-5.16v-5.46h14.58l-5.1 13.2h4.08l-2.76 9.84zm67.26-32.04h28.74v5.94h-28.74v-5.94zm-.96 15.3v-5.88h30.66v5.88h-11.04v21q0 1.38-.54 2.61t-1.47 2.16q-.93.93-2.16 1.47-1.23.54-2.61.54h-5.88l2.34-5.34h1.08q.84 0 1.38-.54.54-.54.54-1.38V33.16h-12.3zm6.06 26.76h-6.66l2.52-24.72h6.72l-2.58 24.72zm15.42-24.72h6.72l2.52 24.72h-6.66l-2.58-24.72zM243.2 17.8h5.88v2.94h6.54v5.88h-6.54V61h-5.88V26.62h-7.14v-5.88h7.14V17.8zm-.9 10.68l-1.5 32.4h-4.62l1.5-32.4h4.62zm7.74 0h4.68l1.5 32.4h-4.68l-1.5-32.4zm96.42-6.84h-8.22l-.96 2.94h1.86q1.26 0 2.7.54 1.2.48 2.28 1.44.54.42.96.96.42.54.78 1.08.3.66.45 1.29.15.63.15 1.35v13.98h-7.32V30.46q0-.78-.48-1.32-.54-.54-1.44-.54h-7.5v16.26l1.14-1.56v-9.84h7.08v11.76l-1.68 2.22h4.2l5.94 7.68h-8.16l-4.02-5.16-4.02 5.16h-8.52l7.68-9.9h-6.96V24.58h7.8l.96-2.94h-8.76v-4.02h24.06v4.02zM311.9 52.72v3.48h34.56V61h-41.64l-3-2.16-.18 2.28h-8.1l1.62-14.46h8.04l-.72 6.54 2.22 2.04V44.38h-11.16v-4.5h27.42v4.5h-9.06v3.9h9.06v4.44h-9.06zm3.42-15.78h-21.78V17.62h27.42v13.62q0 1.26-.48 2.22-.42 1.14-1.14 1.74-.78.78-1.8 1.26t-2.22.48zm-13.62-7.32v2.82h10.2q.96 0 .96-.96v-1.86H301.7zm0-6.96v2.52h11.16v-2.52H301.7zm87.84-4.92v4.02h14.34v5.88h-14.34v21.54h4.2v5.88h-4.2v6h-8.16v-6h-4.2v-5.88h4.2V27.64h-14.34v-5.88h14.34v-4.02h8.16zm-12.12 12.78l-2.88 30.54h-7.5l2.94-30.54h7.44zm23.76 0l2.88 30.54h-7.44l-2.94-30.54h7.5zM356.24 61V33.94h-5.1l6.72-16.26h8.04l-4.14 10.08h2.22V61h-7.74z"/></svg>