<svg viewBox="0 0 320 80" xmlns="http://www.w3.org/2000/svg"><path d="M41.88 37.36l.24-.21q.24-.21.27-.51.03-.3 0-.66-.03-.36-.36-.72-.33-.36-.36-.69-.03-.33-.39-.72-.36-.39-.69-.57-.33-.18-.72-.84-.39-.66-.93-2.16t-.87-2.13q-.33-.63-.57-1.5-.24-.87-.45-1.32-.21-.45-.39-1.26-.18-.81-.24-1.59T36 21.31q-.36-.39-.69-.57-.33-.18-.57-.27-.24-.09-.72-.12t-.45.69q.03.72.27 1.68.24.96.6 1.86.36.9.54 1.44.18.54.51 1.17.33.63.57 1.38.24.75.72 1.74t1.29 2.34q.81 1.35 1.44 2.37.63 1.02 1.29 1.65.66.63.87.66l.21.03zm5.82-4.56l.54-.3q.54-.3.66-.3t.21.12q.09.12.39.12.3 0 .96-.42.66-.42.87-.81.21-.39.21-.93t-.27-.9q-.27-.36-.63-.6t-.69-.36q-.33-.12-.84-.12t-.69.21q-.18.21-.27.18-.09-.03.42-.51t1.26-1.26q.75-.78.81-.78.06 0 .66-.54.6-.54.66-.54.06 0 .27-.21.21-.21.27-.21.06 0 .69-.66.63-.66.96-1.02.33-.36.39-.36t.21-.24q.15-.24.15-1.59t-.27-1.71q-.27-.36-.63-.6t-.69-.36q-.33-.12-1.53-.12t-1.74.21q-.54.21-1.92.24t-2.67.27q-1.29.24-4.86 1.65-3.57 1.41-4.26 1.68t-.78.51q-.09.24.21.57.3.33.63.9.33.57.54 1.05.21.48.48.54.27.06.42 0 .15-.06.33-.36.18-.3.21-.3t.57-.3q.54-.3.6-.39.06-.09.12-.09t.54-.3q.48-.3.54-.39.06-.09.12-.09t1.05-.75q.99-.75 1.08-.75.09 0 1.38-.54 1.29-.54 1.44-.54.15 0 .66-.18t.69-.18q.18 0 .51-.12t.48-.12q.15 0 .24-.03t1.44.15q1.35.18.78.87-.57.69-1.29 1.41-.72.72-1.29 1.41-.57.69-1.44 1.53-.87.84-1.5 1.35-.63.51-1.08 1.11-.45.6-.54.87-.09.27-.06.6.03.33.45.84.42.51.84 1.41.42.9.6.99.18.09 1.29.09h1.11zM32.04 56.32l.24-.21q.24-.21.3-.45.06-.24.03-2.13t-.3-2.25q-.27-.36-.45-.45-.18-.09-.24-.57t-.42-.87q-.36-.39-.69-.57-.33-.18-.57-.27-.24-.09-.72-.12t-.45.6q.03.63.12.81.09.18.12.9t.24.99q.21.27.24.66t.18.69q.15.3.54.78.39.48.81 1.38.42.9.72.99l.3.09zM39 54.4l.24-.21q.24-.21.45-.81.21-.6.24-.6t.09-.21.09-.21q.03 0 .3-.75t.3-.75q.03 0 .18-.45t.18-.45q.03 0 .12-.27t.12-.27q.03 0 .12-.3t.12-.3q.03 0 .21-.48t.21-.48q.03 0 .72-.81t.75-.81q.06 0 .63-.66.57-.66.63-.66.06 0 .12-.09t.15-.09q.09 0 1.08-.75.99-.75 1.05-.75.06 0 .3-.21t.3-.21q.06 0 .21-.15t.24-.15q.09 0 .42-.15.33-.15.45-.03t.15.39q.03.27.45.78.42.51.87 1.44.45.93.63 1.08.18.15.57.15.39 0 .72-.15.33-.15.75-.48.42-.33.48-.33t1.02-1.2 1.02-1.2q.06 0 .18-.21t.18-.21q.06 0 .27-.24.21-.24.27-.24.06 0 1.02-.66t1.02-.66q.06 0 .39-.24t.39-.24.39-.24q.33-.24.42-.24.09 0 .75-.24t1.32-.24q.66 0 .69-.03.03-.03.27-.03.24 0 .12.27t-.48.63q-.36.36-.6.84t-.6.84q-.36.36-.57.78-.21.42-.18 1.08.03.66.45 1.17.42.51.84 1.41.42.9.6.99.18.09.75.12.57.03.48.15-.09.12-.27.21-.18.09-.45.09t-.27.12q0 .12-.06.15t.39.63q.45.6.84 1.44.39.84.57.93.18.09.39.09.21 0 .87-.36t.96-.78q.3-.42.33-.42.03 0 .6-.48t.93-.87q.36-.39.42-1.17.06-.78 0-1.14-.06-.36-.42-.75t-.69-.57q-.33-.18-.57-.27-.24-.09-1.5-.15t-.96-.63q.3-.57.33-.57.03 0 .36-.36.33-.36.6-.96.27-.6.39-1.02.12-.42.09-1.53t-.3-1.47q-.27-.36-.63-.6t-.69-.36q-.33-.12-2.04-.12t-2.55.27q-.84.27-2.67 1.17-1.83.9-3.6 2.13t-2.31 1.68q-.54.45-.6.06-.06-.39-.15-.51t-.12-.48q-.03-.36-.42-.78-.39-.42-.9-.69-.51-.27-.75-.36-.24-.09-.99-.12t-.75.21q0 .24-.27.33-.27.09-.78.42-.51.33-1.44 1.11-.93.78-1.71 1.35-.78.57-2.16 2.19-1.38 1.62-1.44 1.71-.06.09-.12-.54t-.57-1.32q-.51-.69-1.02-1.14-.51-.45-.99-.78t-1.2-.6q-.72-.27-2.16-.27-1.44 0-2.13.33t-.99.51q-.3.18-.54.27-.24.09.15.54.39.45.75 1.14t.48.99q.12.3.45.39.33.09.96-.21.63-.3.93-.48.3-.18.39-.18.09 0 .3-.12t1.14-.09q.93.03 1.05.09t.09 2.76q-.03 2.7-.12 2.88-.09.18-.06.63t.45.96q.42.51.84 1.41.42.9.6.99.18.09.42.09H39zM15 52zm88.56.72l.24-.21q.24-.21.3-.9.06-.69-.03-1.17t-.42-1.29q-.33-.81-.42-1.32-.09-.51-.36-.87t-.63-.6q-.36-.24-.69-.36-.33-.12-.81-.15-.48-.03-.33.66.15.69.48 1.5.33.81.33 1.11 0 .3-.33.27-.33-.03-.75-.27-.42-.24-.66-.33-.24-.09-.99-.15t-1.41-.36q-.66-.3-1.65-.36-.99-.06-1.56-.3-.57-.24-1.05-.75-.48-.51-.69-.84-.21-.33-.27-1.41-.06-1.08-.27-2.67-.21-1.59-.21-1.92 0-.33.03-.33t.09-.42q.06-.42.09-1.68t.06-1.26q.03 0 .42-1.05t.54-1.77q.15-.72.18-.72t.36-1.02q.33-1.02.45-2.49.12-1.47.15-1.47t.03-1.2q0-1.2-.27-1.56-.27-.36-.63-.6t-.69-.36q-.33-.12-.81-.15-.48-.03-.51 2.58-.03 2.61-.24 3.42t-.24 1.95q-.03 1.14-.48 2.07-.45.93-.48 2.1-.03 1.17-.24 1.8-.21.63-.18 3.51t.63 3.69q.6.81.84 1.38.24.57.9 1.47t1.32 1.5q.66.6 1.26.84t1.26.42q.66.18.96.18.3 0 .81-.03t1.23.3q.72.33 1.41.36.69.03 1.17.36.48.33 1.35.6.87.27 1.14.27h.27zM120 43.78h-.06q-.06 0-.06-.03t.06-.03q.06 0 .06.03v.03zm-30.96 8.46l-.39-.03q-.39-.03-.81-.45-.42-.42-.72-.6t-1.05-1.2q-.75-1.02-.96-1.2-.21-.18-.24-.42t-.21-.42q-.18-.18-.15-.51t.06-.33q.03 0 .9-.87t.93-.87q.06 0 .12-.09t.12-.09.12-.09.12-.09.12-.09.12-.09q.06 0 .81-.84t.84-.96q.09-.12.15-.12t.42-.27.42-.27q.06 0 .21-.15t.21-.15q.06 0 .75-.45t.75-.54q.06-.09.12-.09t1.86-1.44l2.25-1.8q.45-.36.51-.36t.21-.09q.15-.09.3-.09t.72-.24q.57-.24-.03 1.47t-1.17 2.88q-.57 1.17-1.08 1.98-.51.81-1.11 2.01-.6 1.2-1.32 2.13-.72.93-1.17 1.74-.45.81-1.08 1.56-.63.75-.96 1.05-.33.3-.51.39l-.18.09zm2.28 3.12l.42-.24q.42-.24.87-1.26t.48-1.02q.03 0 .33-.57.3-.57.54-1.2.24-.63.27-.63.03 0 .09-.21t.09-.21q.03 0 .15-.27t.15-.27q.03 0 .3-.51t.3-.51q.03 0 .9-1.65t.9-1.65q.03 0 .57-.9.54-.9 1.02-2.07t.75-1.98q.27-.81.3-.81.03 0 .3-.39t.33-.39q.06 0 .3-.36t.63-1.62q.39-1.26.48-1.26.09 0 2.52-.96t2.55-.96q.12 0 1.77-.12t3.12-.03q1.47.09 1.83.18.36.09.33.72-.03.63-.51 1.11-.48.48-.69.99-.21.51-.18 1.95t.15 1.77q.12.33.54.84.42.51.84 1.41.42.9.6.99.18.09.69.12t.75.03q.24 0 .54-.03.3-.03.99.24t.99.27q.3 0 .78-.06.48-.06.18.15t-1.35.72q-1.05.51-2.49 1.02-1.44.51-1.92.54-.48.03.03.72t.84 1.41q.33.72.45.81.12.09.3.09t.57-.27q.39-.27.48-.27.09 0 .6-.24t.6-.24q.09 0 1.08-.27.99-.27 2.94-1.26t2.04-.99q.09 0 .69-.3t.9-.57q.3-.27.36-.81t0-.9q-.06-.36-.42-.75t-.93-.69q-.57-.3-.84-.39-.27-.09-3.3-.15t-3.42-.27q-.39-.21-.87-.3t-.45-.84q.03-.75.06-.75t.15-.33.15-.33q.03 0 .48-.48.45-.48.51-.72t.09-.99q.03-.75.06-.75t.09-.27q.06-.27.03-1.41t-.3-1.5q-.27-.36-.63-.6t-.69-.36q-.33-.12-2.46-.12t-4.65.6q-2.52.6-4.41 1.32-1.89.72-1.8.12.09-.6.03-1.68t-.15-1.26q-.09-.18-.12-.54-.03-.36-.39-.75t-.69-.57q-.33-.18-.57-.27-.24-.09-.72-.12t-.45.36q.03.39.12.57.09.18.06 1.98t-.27 3q-.24 1.2-1.95 1.86-1.71.66-4.56 2.16-2.85 1.5-4.35 2.19-1.5.69-2.22 1.23-.72.54-1.62.93-.9.39-1.83 1.32t-.9 1.95q.03 1.02.24 1.23.21.21.24.36t.33.51q.3.36.57.99.27.63.42.75.15.12.3.45t.75.93q.6.6 1.23 1.47t1.17 1.26q.54.39 1.23 1.08.69.69 1.98.72l1.29.03zM75 52zm80.82-21.72l.51-.48q.51-.48.87-.87t.42-.39q.06 0 .6-.54t.6-.54q.06 0 .21-.18t.21-.18q.06 0 .36-.3t.36-.3q.06 0 .39-.24t.39-.24q.06 0 .21-.15t.24-.15q.09 0 .42-.24.33-.24.39-.24t.24-.15.24-.15q.06 0 .57-.36t.57-.36q.06 0 .6-.39t.63-.39q.09 0 .69-.24t.75-.24q.15 0 .63-.18t1.41-.69q.93-.51 1.62-.99.69-.48 1.11-.96.42-.48.48-.72t.03-1.44q-.03-1.2-.33-1.68-.3-.48-.78-.96-.48-.48-1.05-.84-.57-.36-.9-.48-.33-.12-.78-.12t0 .6q.45.6.69 1.08.24.48.21 1.02t-.39.99q-.36.45-1.32 1.2-.96.75-1.35 1.08-.39.33-1.5.93-1.11.6-2.4 1.53-1.29.93-2.37 1.8t-2.34 1.65q-1.26.78-1.74 1.14-.48.36-.78.72-.3.36.06.87t.66 1.11q.3.6.48.63l.18.03zm-7.98 19.8l.81-.06q.81-.06 1.56-.51t.9-.45q.15 0 .27-.09.12-.09.27-.09.15 0 .69-.24.54-.24.66-.24t.6-.21q.48-.21.63-.21.15 0 .9-.33t1.77-.87q1.02-.54 1.11-.54.09 0 1.35-.42t2.37-.78q1.11-.36 1.5-.48.39-.12 2.46-.75t2.28-.63q.21 0 1.23-.27t1.17-.27q.15 0 .93-.18t1.47-.18q.69 0 .72-.03.03-.03 1.02 0t1.17.18q.18.15 1.08.18.9.03 1.26.06t.54.21q.18.18.45.18t.45-.18q.18-.18.21-.51t0-.69q-.03-.36-.39-.87t-.72-.75q-.36-.24-.69-.36-.33-.12-1.41-.18-1.08-.06-1.41-.21-.33-.15-.81-.18-.48-.03-.33.27.15.3.45.69.3.39-.48.45t-3.24.54q-2.46.48-5.13 1.26t-4.86 1.32q-2.19.54-3.84 1.02t-3.42.84q-1.77.36-1.26-.18t.57-.54q.06 0 .45-.42t.45-.42q.06 0 .45-.39t.45-.39q.06 0 .39-.27t.39-.27q.06 0 .24-.18t.24-.18q.06 0 .18-.15t.18-.15q.06 0 .51-.3t.54-.3q.09 0 .42-.24.33-.24.42-.24.09 0 1.02-.54t1.68-1.02q.75-.48.84-.48.09 0 .27-.15.18-.15.3-.15t.81-.33.81-.33q.12 0 .3-.12t.27-.12q.09 0 .33-.15.24-.15.36-.15t.27-.12.27-.12q.12 0 .57-.24.45-.24.54-.24.09 0 1.38-.69 1.29-.69 1.86-1.05.57-.36.84-.63t.39-.27q.12 0 .51-.36t.48-.36q.09 0 .33-.21.24-.21.27-.51.03-.3 0-.66-.03-.36-.39-.75t-.69-.57q-.33-.18-.57-.27-.24-.09-1.29-.09t-1.5.21q-.45.21-1.26.24t-1.56.27q-.75.24-2.01.48-1.26.24-2.58.66-1.32.42-2.22.81-.9.39-3.81.42-2.91.03-2.46.63.45.6.84 1.44.39.84.57.93.18.09 1.5.09t2.13-.18q.81-.18 1.02-.18.21 0 .69-.09t.84-.27q.36-.18 1.62-.87 1.26-.69 1.56-.9.3-.21.39-.21.09 0 .27-.12.18-.12.51-.12t.84-.03q.51-.03-.21.48t-5.46 3.51q-4.74 3-5.94 3.66-1.2.66-2.85 1.74-1.65 1.08-2.31 1.44-.66.36-.9.6t-.48.36q-.24.12-.93.81-.69.69-.66.87.03.18.45.69.42.51.84 1.41.42.9.6.99.18.09.36.09h.18zm19.8 11.04l.24-.21q.24-.21.3-.3t.12-.09q.06 0 .3-.39t.27-.39q.03 0 .21-.42t.24-.42q.06 0 .39-.3t.45-.96q.12-.66.15-.66t.09-.39.09-.39q.03 0 .09-.69t-.06-1.29q-.12-.6-.36-2.49-.24-1.89-.3-2.28-.06-.39-.06-3.66t.03-3.27q.03 0-.03-.66t-.18-1.35q-.12-.69.09-2.55.21-1.86.03-2.7-.18-.84-.12-2.28t0-1.8q-.06-.36-.24-.66-.18-.3-.21-2.58-.03-2.28-.3-2.64-.27-.36-.63-.6t-.69-.36q-.33-.12-1.32-.12t-1.08.21q-.09.21-.3.24t.24.63q.45.6.81 1.35.36.75.39 1.41.03.66.24 1.02t.24 2.01q.03 1.65.24 2.37.21.72.24 3 .03 2.28.24 3.09t.18 7.47q-.03 6.66-.12 6.78-.09.12-.12.51t-.12.57q-.09.18-.09.48t-.36.51q-.36.21-.51.63-.15.42-.3.51-.15.09-.69-.45-.54-.54-.87-.72-.33-.18-.57-.27-.24-.09-.69-.09-.45 0 0 .6t.87 1.47q.42.87.78 1.23.36.36.57.81.21.45.45.69.24.24.33.45.09.21.27.3.18.09.66.09h.48zM135 52zm72.72-21.84l.24-.21q.24-.21.39-.96.15-.75.24-1.14.09-.39.12-.39t.33-.39q.3-.39.36-.39t.9-1.29q.84-1.29.87-1.29.03 0 .54-.72t.63-1.2q.12-.48.15-.48t.09-.3q.06-.3.03-2.22-.03-1.92-.3-2.28-.27-.36-.63-.6t-.69-.36q-.33-.12-.9-.12-.57 0-.48.12.09.12.06 1.83t-.15 2.22q-.12.51-1.23 2.34-1.11 1.83-1.56 2.49-.45.66-.6.99-.15.33-.36.36-.21.03-.3.48-.09.45.3.9t.75 1.14q.36.69.48.99.12.3.42.39l.3.09zm7.68-6.24l.51-.36q.51-.36.6-.36.09 0 .33-.15.24-.15.24-.21t.09-.06q.09 0 .45-.21t.51-.21q.15 0 .27-.09.12-.09.27-.09.15 0 1.23-.51t1.2-.51q.12 0 .42-.18t.39-.18q.09 0 .9-.45t.87-.45q.06 0 .45-.24t.51-.24q.12 0 2.13-.3t3.36-.63q1.35-.33 1.62-.33t.36-.03q.09-.03.39-.03.3 0 .33-.03.03-.03.57-.03.54 0 .93-.03t2.31.3q1.92.33 1.38.66t-1.8.81q-1.26.48-2.43.87-1.17.39-1.41.51t-1.92.15q-1.68.03-1.32.54.36.51.6.99t.36.57q.12.09 1.95.15t1.89.06q.06 0 .63-.24.57-.24.75-.24.18 0 .36-.09t.36-.09q.18 0 .78-.15.6-.15.81-.15.21 0 1.38-.36t1.92-.75q.75-.39 1.08-.69.33-.3.48-.72.15-.42.09-1.23t-.15-.87q-.09-.06-.15-.27-.06-.21-.39-.57t-.66-.54q-.33-.18-.57-.27-.24-.09-4.08-.09t-6.06.42q-2.22.42-2.97.6t-2.64.42q-1.89.24-4.95 1.02-3.06.78-4.02.96-.96.18-1.65.45t-.93.45q-.24.18-.96.21t-.27.63q.45.6.84 1.44.39.84.57.93.18.09 1.02.09h.84zm5.28 10.8l.57-.18q.57-.18.66-.3.09-.12.15-.12t.15-.12.15-.12q.06 0 .21-.15t.21-.15q.06 0 .12-.09t.12-.09q.06 0 .24-.12t.27-.12q.09 0 .33-.15.24-.15.33-.15.09 0 .57-.3t1.14-.87q.66-.57.78-.57t.51-.15q.39-.15.51.15t.42.39q.3.09 1.65-.48 1.35-.57 1.8-.87.45-.3.57-.3.12 0 .24-.03t.33.03q.21.06.45-.15.24-.21.3-.63.06-.42 0-.78-.06-.36-.42-.75t-.69-.57q-.33-.18-.57-.27-.24-.09-.9-.09t-1.11.18q-.45.18-.99.51t-1.62.75q-1.08.42-1.05.48.03.06-1.62.87-1.65.81-2.76 1.17-1.11.36-1.71.69-.6.33-1.47.36-.87.03-.42.63t.84 1.44q.39.84.57.93.18.09.66.09h.48zm8.88 24.72l.36-.24q.36-.24.96-.24t1.65-.57q1.05-.57 1.89-1.23.84-.66 1.59-1.44.75-.78 1.53-1.83t1.44-2.16q.66-1.11.81-1.8.15-.69.18-.69t.24-.45q.21-.45.36-1.17t.12-2.34q-.03-1.62-.27-2.04-.24-.42-.27-.78-.03-.36-.42-.78-.39-.42-.54-.54-.15-.12-.33-.33-.18-.21-.48-.48t-.48-.48q-.18-.21-.51-.42t-.6-.48q-.27-.27-.6-.45-.33-.18-.66-.33-.33-.15-.72-.33-.39-.18-2.67-.18t-3.3.33q-1.02.33-2.25.36-1.23.03-2.91.42-1.68.39-3.66.99-1.98.6-2.19.69-.21.09.06-.75t.3-.84q.03 0 .12-.33t.12-.33q.03 0 .15-.33t.15-.33q.03 0 .21-.33t.21-.33q.03 0 .27-.42.24-.42.27-.42.03 0 .42-.96t.42-.96q.03 0 .18-.39t.18-.39q.03 0 .3-.69t.27-2.76q0-2.07-.27-2.43-.27-.36-.54-.75t-.81-.72q-.54-.33-.87-.45-.33-.12-1.17-.12-.84 0-.39.6.45.6.81 1.35.36.75.33 1.62-.03.87-.42 2.04t-1.17 2.85q-.78 1.68-1.56 3.18-.78 1.5-1.11 1.92-.33.42-.63 1.08l-.45.99q-.15.33-.27.48-.12.15-.15.33-.03.18-.12.24t-.09.3q0 .24-.21.27-.21.03.24.63.45.6.84 1.44.39.84.57.93.18.09.69.09t1.11-.33q.6-.33 1.02-.72.42-.39.48-.39t.66-.36q.6-.36 2.16-1.35 1.56-.99 1.62-.99.06 0 .24-.15t.3-.15q.12 0 .6-.15t.69-.15q.21 0 .96-.21t.9-.21q.15 0 .18-.03t.3-.03q.27 0 .84-.12t1.62 0q1.05.12 2.34-.06 1.29-.18 2.31-.09t1.29.18q.27.09.69.15.42.06.63.3.21.24.51.3.3.06.51.42.21.36.45.45.24.09.36.36t.21.3q.09.03.06 1.17t-.18 1.68q-.15.54-.36.93t-.33.99q-.12.6-.9 1.86-.78 1.26-1.62 2.31-.84 1.05-1.53 1.71-.69.66-1.32 1.11-.63.45-1.47.9t-1.53.48q-.69.03-.84.12-.15.09-.54-.3t-.99-.84q-.6-.45-1.05-.63-.45-.18-.9-.18t0 .6q.45.6.87 1.47t1.08 1.38q.66.51 1.02.87t.9.69q.54.33 1.02.36l.48.03zm-17.04-5.52l1.71-.84q1.71-.84 1.8-.84.09 0 .36-.15t.39-.15q.12 0 .3-.12t.3-.12q.12 0 .66-.27t.63-.27q.09 0 .66-.27.57-.27.72-.27.15 0 1.29-.12 1.14-.12 2.04.06.9.18 1.44.24.54.06 1.08.27.54.21 1.26.21t1.14-.24q.42-.24.6-.6t.18-.9q0-.54-.27-.9t-.63-.6q-.36-.24-.69-.36-.33-.12-.81-.15-.48-.03-.57.18-.09.21-.33.21-.24 0-.24.12t-2.58.15q-2.58.03-3.87.33-1.29.3-2.34.48-1.05.18-3.75.99t-4.77.84q-2.07.03-1.62.63.45.6.84 1.44.39.84.57.93.18.09 2.34.09h2.16zM195 52zm68.4-7.2l.24-.21q.24-.21.33-.54.09-.33.12-.33t.15-.18q.12-.18.27-1.05.15-.87.18-.87t.81-1.05q.78-1.05.84-1.05.06 0 .42-.51t.39-.51q.03 0 .09-.15t.12-.15q.06 0 .36-.42t.66-1.38q.36-.96.39-.96.03 0 .3-.72t.3-.72q.03 0 .63-1.14t.63-1.14q.03 0 .33-.54.3-.54.33-.54.03 0 .72-1.11t.72-1.11q.03 0 .57-1.5.54-1.5.57-1.5.03 0 .24-.3t.27-.45q.06-.15.09-.15t.33-.48.33-.48q.03 0 .42-.51t.45-.51q.06 0 .24-.33t.3-1.44q.12-1.11.15-1.11t-.03-.9q-.06-.9-.42-1.29t-.69-.57q-.33-.18-.57-.27-.24-.09-.72-.12t-.51 1.62q-.03 1.65-.54 2.52-.51.87-1.5 3.51-.99 2.64-2.04 4.77-1.05 2.13-1.92 3.75-.87 1.62-.93 1.62-.06 0-.12-.24t-.3-.48q-.24-.24-.78-.36t-1.17.66q-.63.78-1.41 2.28-.78 1.5-1.38 2.88-.6 1.38-.57 2.07.03.69.45 1.2.42.51.84 1.41.42.9.72.99l.3.09zm7.14 4.62h-.03q-.03 0-.03-.06t.03-.06q.03 0 .03.06v.06zm-.48 7.74l.18-.09q.18-.09.6-.75t.72-1.26q.3-.6.39-.9.09-.3.12-.3t.33-.75.33-.75q.03 0 .72-1.47t.69-2.01q0-.54-.27-.9t-.63-.57q-.36-.21-.99-.3t-1.17 1.02q-.54 1.11.12-1.26t.93-4.32q.27-1.95.39-3.39.12-1.44.15-1.44t.27-1.71q.24-1.71-.06-2.43-.3-.72-.27-.72.03 0-.03-.42t-.54-.93q-.48-.51-.81-.69-.33-.18-.57-.27-.24-.09-1.38-.09t-1.44.24q-.3.24.09.69.39.45.75 1.14t.48.99q.12.3.42.39.3.09.57-.06.27-.15.24 4.74-.03 4.89-.84 7.68-.81 2.79-1.05 3.96t-.27 2.16q-.03.99-.24 1.26t-.18.45q.03.18.45.69.42.51.66.96.24.45.39.84.15.39.3.48.15.09.3.09h.15zm11.82-25.56l1.08-.27q1.08-.27 1.29-.27.21 0 1.2-.15t2.19-.69q1.2-.54 1.32-.54.12 0 .6-.18t1.35-.48q.87-.3.99-.3t1.2-.3q1.08-.3 1.32-.3t1.11-.18 1.11-.18q.24 0 .33-.06.09-.06.36-.06t.81-.03q.54-.03.72.06.18.09.6.09t.66-.21q.24-.21.3-.75t0-.9q-.06-.36-.42-.75t-.69-.57q-.33-.18-.57-.27-.24-.09-1.08-.15-.84-.06-.93-.12-.09-.06-.69-.12t-.99-.24q-.39-.18-1.05-.18t-.21.6q.45.6.72 1.2.27.6-2.46 1.32-2.73.72-3.84 1.08-1.11.36-2.28.57-1.17.21-3.57.18t-2.49-.09q-.09-.06-.57-.09t-.45.15q.03.18.45.69.42.51.84 1.41.42.9.6.99.18.09.66.09h.48zm-1.38 15.48l-.33-.84q-.33-.84-.3-2.28.03-1.44.09-1.44t.36-.18q.3-.18.54-.48.24-.3.39-.3.15 0 .78-.15t1.32-.57q.69-.42.75-.51.06-.09.12-.09t.33-.18q.27-.18-.45 1.23t-1.02 2.1q-.3.69-.87 1.53-.57.84-.81 1.26-.24.42-.48.63-.24.21-.33.24l-.09.03zm4.62 7.56l.96-.09q.96-.09 2.07-.3 1.11-.21 1.62-.51.51-.3.57-.39.06-.09.12-.09t.12-.09q.06-.09.15-.09t.42-.15q.33-.15.48-.15.15 0 .27-.09.12-.09.27-.09.15 0 .39-.12.24-.12.33-.12.09 0 .21-.09t.21-.09q.09 0 .51-.21.42-.21.54-.21.12 0 .3-.12t.3-.12q.12 0 1.14-.66t1.11-.66q.09 0 1.32-.24t2.07-.09q.84.15 1.2.06t.57.12q.21.21.48.21t.45-.18q.18-.18.24-.72t0-.9q-.06-.36-.42-.75t-.69-.57q-.33-.18-.57-.27-.24-.09-1.68-.15t-2.13-.15q-.69-.09-.24.51.45.6-2.43 1.47-2.88.87-4.29 1.2-1.41.33-.63-.45.78-.78.84-.78.06 0 .42-.33t.42-.33q.06 0 .66-.45.6-.45.72-.6.12-.15.18-.15t.36-.3.36-.3q.06 0 1.02-.84t1.29-1.14q.33-.3.39-.3t.78-.48q.72-.48 1.35-1.14.63-.66.69-.66.06 0 .3-.21t.3-.21q.06 0 .21-.15t.21-.15q.06 0 .84-.48t1.38-.96q.6-.48.93-.84.33-.36.39-.9t0-.9q-.06-.36-.42-.75t-.69-.57q-.33-.18-.57-.27-.24-.09-3.45-.09t-4.95.24q-1.74.24-3.84.78-2.1.54-1.41-.87.69-1.41.96-2.16.27-.75.3-.75.03 0 .09-.21t.09-.21q.03 0 .63-1.77t.93-3.45q.33-1.68.36-1.68.03 0 .45-.69.42-.69.75-2.97.33-2.28.36-2.28.03 0 .09-.69t0-1.05q-.06-.36-.42-.75t-.69-.57q-.33-.18-.57-.27-.24-.09-.72-.12t-.51 3.18q-.03 3.21-.27 4.2-.24.99-.51 2.76-.27 1.77-.6 3-.33 1.23-.99 2.91-.66 1.68-1.59 3.6-.93 1.92-2.76 2.31-1.83.39-2.88.84-1.05.45-2.01.48-.96.03-1.68.42t-.9.57q-.18.18-.15 2.13t.51 3.18q.48 1.23.9 1.74.42.51.87 1.44.45.93.9 1.35.45.42.72.54.27.12.93.12t1.17-.24q.51-.24.63-.57.12-.33.15-.69.03-.36.06-.36t.48-1.38q.45-1.38.78-2.73t.36-1.35q.03 0 .36-.75.33-.75.36-.75.03 0 .27-.57.24-.57.27-.57.03 0 .39-.81t.39-.81q.03 0 .06-.09t.15-.09q.12 0 1.41-.39t1.41-.39q.12 0 .36-.12t.36-.12q.12 0 .57-.18.45-.18.57-.18.12 0 .69-.21t.69-.21q.12 0 .42-.03t.45-.03q.15 0 1.89-.06t2.61.09q.87.15-.03.81t-1.53 1.32q-.63.66-1.11 1.26-.48.6-2.01 2.1-1.53 1.5-2.43 2.25-.9.75-1.68 1.32-.78.57-1.77 1.56-.99.99-1.53 1.41-.54.42-1.32.81-.78.39-1.2.72-.42.33-.84.48-.42.15-.81.48-.39.33 0 .78t.75 1.14q.36.69.48.99.12.3.3.39.18.09.48.09h.3zm9.96 10.32l.24-.21q.24-.21.3-.36t.12-.15q.06 0 .3-.21t.3-.45q.06-.24.03-1.44t-.12-1.5q-.09-.3-.15-1.02t-.24-1.23q-.18-.51-.36-2.43-.18-1.92-.27-4.11-.09-2.19-.06-2.19t.03-1.77.03-1.77q.03 0 .42-3.54t.45-4.74q.06-1.2.12-1.2t.3-.21q.24-.21.3-.63.06-.42 0-.78-.06-.36-.42-.75t-.69-.57q-.33-.18-.57-.27-.24-.09-.96-.12t-.84.21q-.12.24-.09 7.47.03 7.23.12 7.89.09.66.06 6.48t-.48 5.94q-.45.12-.42.39.03.27.45.78.42.51.84 1.41.42.9.6.99.18.09.42.09h.24zM255 52z"/></svg>