<svg viewBox="0 0 345 80" xmlns="http://www.w3.org/2000/svg"><path d="M43.8 31.95Q31.05 49.06 21.59 49.06q-4.6 0-5.86-2.46-.35-.71-.35-1.45 0-.75.26-1.22.27-.47.68-.76.73-.56 1.81-.56.44 0 .95.33.52.32.52.96 0 .65-.5 1.09-.5.44-1.27.44-.78 0-1.28-.3v.15q0 1.32 1.25 2.14 1.24.82 2.95.82 1.72 0 2.86-.25t2.36-.94q1.22-.69 2.61-1.92t3.1-3.18q1.72-1.94 3.86-4.73l4.89-6.56q-1.64-1.08-1.64-2.58 0-1.26 1.14-2.17 1.05-.85 2.09-.85 1.04 0 1.04.3 0 .14-.35.23-1.37.24-2.06 1.07-.69.84-.69 1.74 0 .91.97 1.56l.41-.56q4.8-6.47 7.91-9.64 5.01-5.15 9.78-8.44l1.2-.79q-3.4-2.08-10.46-2.08-7.09 0-13.77 2.76-6.09 2.49-9.93 6.59-3.78 4.01-3.66 7.91.06 2.2 1.41 3.34 1.11.94 2.72.94t3.41-.94q1.81-.94 3.48-2.42t3.15-3.31q1.47-1.83 2.59-3.65 2.4-3.86 2.66-6.03.09-1 .37-1t.31.22q.03.22.06 1.31.03 1.08-.44 3.01-.47 1.94-1.42 3.86-.96 1.92-2.38 3.67-1.42 1.76-3.23 3.11-3.99 2.96-8.79 2.96-1.79 0-3.2-1.35-1.55-1.49-1.62-3.72-.08-2.23 1.04-4.48 1.11-2.26 3.12-4.27 2-2 4.74-3.69 2.74-1.68 5.91-2.88 6.68-2.58 13.61-2.58 6.92 0 11.32 2.14 3.54-1.97 5.3-1.97.56 0 .57.24.02.23-.11.35-.14.12-.87.23-1.73.33-3.84 1.7Q67 13.29 67 18.12q0 3.58-2.75 6.94-2.67 3.23-7.01 5.25-4.45 2.05-9.17 2.05-2.31 0-4.27-.41zm4.92-6.83l-4.37 6.1q1.85.38 3.5.38 1.66 0 3.43-.44 1.77-.44 3.49-1.31 1.71-.86 3.29-2.15 1.59-1.29 2.79-3.02 2.63-3.75 2.63-8.46 0-3.11-2.25-4.98-3.22 2.34-6.71 6.47-3.49 4.13-5.8 7.41zm26.18-2.6q-.43.38-.96.6-.52.22-1.2.22-.67 0-1.16-.52-.48-.51-.48-1.15 0-.65.24-1.15.23-.49.64-.88.85-.87 1.86-.87 1.01 0 1.49.54.49.54.49 1.18 0 .65-.25 1.15-.25.49-.67.88zm-18.62 24.8q0 .92 1.73.92 1.72 0 3.26-.79 1.54-.79 3.11-1.98 1.57-1.19 3.03-2.59l2.64-2.64q1.17-1.23 1.93-2.12.76-.9.91-1.04l.58.52q-.29.3-1.09 1.25-.81.95-2.01 2.23-1.2 1.27-2.7 2.68-1.49 1.4-3.13 2.57-3.78 2.73-6.62 2.73-1.82 0-2.9-.66-1.09-.66-1.09-1.51t.18-1.52q.18-.68.64-1.61.47-.94 1.31-2.2.83-1.26 2.17-3.02 1.33-1.76 3.23-4.07l4.51-5.33q.36.08 1.44.08h1.38q.76 0 1.23-.05-9.7 11.57-10.92 13.16-1.21 1.6-1.8 2.51-1.02 1.55-1.02 2.48zm20.15-2.45l-2.72 3.57q-.79-.14-1.76-.14-1.55 0-2.72.29l10.16-14.53q1.91-2.67 1.97-3.17.11-.96-.62-.96-1.08 0-5.39 5.36l-1.88 2.31q-.23.12-.48-.13-.25-.25-.13-.36.85-.91 1.92-2.3 1.07-1.4 2.24-2.68 2.87-3.2 4.77-3.2 3.23 0 2.06 3.31-.24.71-1.03 1.82l-6.15 8.55.14.33q7.39-8.09 10.49-10.7 2.96-2.46 4.41-2.88 1.45-.43 2.37-.43.93 0 1.59.27.66.26 1.07.67.76.76.74 1.83-.01 1.07-.41 2.18-.39 1.12-1.33 2.64-1.96 3.13-6.62 8.17-1.93 2.02-2.02 2.36-.09.34-.09.51 0 .68 1.8.68t3.37-.75q1.57-.75 3.08-1.89t2.87-2.5q1.36-1.37 2.44-2.61 1.09-1.25 1.82-2.17.73-.92 1-1.21l.61.49q-.29.33-1.05 1.29-.76.97-1.89 2.23t-2.55 2.67q-1.42 1.4-3 2.57-3.7 2.7-6.68 2.7-2.64 0-3.67-1.32-.32-.41-.32-.97 0-.55.16-1.27t.78-1.83q1.38-2.38 3.91-5.22 2.53-2.84 3.33-3.83.79-1 1.26-1.73.87-1.41.87-2.17 0-1.06-1.4-1.06-2.9 0-9.58 6.57-3.37 3.28-7.74 8.64zm24.09 2.08q0 1.35 1.72 1.35 1.73 0 3.83-.9 2.09-.89 4.11-2.33 3.9-2.72 7.18-6.79 5.16-5.89 6.18-7.12l1.59-1.96q1.14.2 1.66.2 1.5 0 2.26-.12l-10.19 12.57-5.19 6.94-4.45 5.81q7.56-3.64 11.6-7.24 2.64-2.34 4.95-5.16l4.22-5.09.61.49-3.69 4.37q-3.28 3.87-5.48 5.77-2.19 1.9-4.01 3.14-3.46 2.28-9.23 5-5.45 6.83-8.22 9.5-2.76 2.66-4.38 3.79-1.61 1.13-3.13 1.77-2.58 1.12-6.12 1.12-1.79 0-2.38-1.26-.17-.35-.17-1.12 0-.76.98-2.12t3.35-3.03q4.75-3.34 16.41-8.26l11.92-15.12-.32-.12q-2.78 2.99-5.68 4.75-5.42 3.28-8.67 3.28-1.65 0-2.47-.66-.82-.66-.82-1.61 0-.95.18-1.73t.7-1.86q1.09-2.08 4.13-6.36 1.35-1.67 3.26-3.6l4.07-4.13 1.38.14q.46.03 1.45.03.98 0 1.77-.08-2.61 2.34-3.9 3.8l-2.08 2.35q-6.47 7.18-7.29 8.38-1.64 2.34-1.64 3.22zm2.98 10.58q-14.73 6.29-17.72 10.01-1.06 1.32-1.06 2.55 0 .33.4.75.4.43 1.68.43 1.29 0 2.86-.58 1.57-.57 3.5-2.06 3.55-2.81 10.34-11.1zM143 44.28q-1.09 0-1.59-.88-3.48 3.96-7.53 5.25-1.34.41-2.62.41-1.27 0-2.18-.29-.91-.3-1.49-.82-2.38-2.06-.47-7.07.73-1.96 1.89-3.66 1.15-1.7 2.6-3.15 1.45-1.45 3.12-2.59 3.78-2.55 7.39-2.55 1.55 0 2.68.81 1.13.8 1.21 2.31.09 1.51-.17 2.83-.27 1.32-.79 2.64-1.06 2.69-2.99 5.09.2.85 1.13.85.92 0 1.75-.42.84-.43 1.67-1.06.84-.63 1.64-1.4.81-.78 1.48-1.48l1.12-1.23q.47-.56.67-.76l.65.49q-.38.36-.97 1t-1.32 1.38l-1.55 1.52q-3.02 2.78-5.33 2.78zm-12.16 3.67q.47.23 1.32.23 1.9 0 4.89-2.14 2.28-1.64 4.07-3.78v-.12q0-2.49 1.88-3.75.49-.35.93-.49 1.41-2.99 1.32-4.9-.17-3.01-2.22-3.01-3.46 0-9.7 7.79-4.02 5.04-3.78 7.85 0 1.61 1.29 2.32zm24.26-3.08l-2.73 3.57q-.79-.14-1.76-.14-1.55 0-2.72.29l10.16-14.53q1.91-2.67 1.97-3.17.11-.96-.62-.96-1.08 0-5.39 5.36l-1.87 2.31q-.24.12-.49-.13t-.13-.36q.85-.91 1.92-2.3 1.07-1.4 2.24-2.68 2.87-3.2 4.78-3.2 3.22 0 2.05 3.31-.24.71-1.03 1.82l-6.15 8.55.15.33q7.38-8.09 10.48-10.7 2.96-2.46 4.41-2.88 1.45-.43 2.38-.43.92 0 1.58.27.66.26 1.07.67.76.76.75 1.83-.02 1.07-.41 2.18-.4 1.12-1.34 2.64-1.96 3.13-6.62 8.17-1.93 2.02-2.02 2.36-.09.34-.09.51 0 .68 1.8.68 1.81 0 3.37-.75 1.57-.75 3.08-1.89t2.87-2.5q1.36-1.37 2.45-2.61 1.08-1.25 1.81-2.17.74-.92 1-1.21l.61.49q-.29.33-1.05 1.29-.76.97-1.89 2.23t-2.55 2.67q-1.42 1.4-3 2.57-3.69 2.7-6.68 2.7-2.64 0-3.66-1.32-.33-.41-.33-.97 0-.55.17-1.27.16-.72.77-1.83 1.38-2.38 3.91-5.22 2.54-2.84 3.33-3.83.79-1 1.26-1.73.88-1.41.88-2.17 0-1.06-1.41-1.06-2.9 0-9.58 6.57-3.37 3.28-7.73 8.64zm48.13-.97q0 .65-.5 1.09-.5.44-1.26.44t-1.26-.3v.15q0 1.26 1.47 2.2 1.46.88 3.59.88 2.12 0 3.92-.74 1.8-.73 3.39-2 1.58-1.28 3-3.01 1.42-1.73 2.74-3.69 1.32-1.96 2.58-4.1l3.19-5.16q-7.12-.23-11.51-2.81-4.6-2.69-4.31-6.8.15-2.6 1.9-4.81 1.76-2.22 4.57-3.86 6.01-3.42 14.21-3.42 3.37 0 4.98.79.44.23.44.39t-.28.16q-.27 0-.46-.04-.19-.05-.78-.16-2.02-.47-4.1-.47-2.08 0-4.32.39-2.24.4-4.3 1.13-2.05.73-3.82 1.79-1.77 1.05-3.09 2.37-2.81 2.87-2.99 6.3-.2 2.99 3.34 5.36 4.07 2.76 10.99 2.96 10.16-16.05 18.6-19.77 2.76-1.2 4.95-1.2 4.34 0 4.16 3.63-.17 3.1-3.37 6.94-5.3 6.36-13.82 9.43-2.96 1.09-6.13 1.5l-3.37 5.01q-7.88 11.42-15.17 13.86-2.2.73-4.22.73-2.02 0-3.27-.31-1.24-.31-2.12-.86-1.76-1.15-1.76-2.85 0-1.81 1.82-2.31.47-.12.93-.12.47 0 .96.33.48.32.48.96zm26.28-15.26q8.2-1.38 14.71-7.09 3.89-3.43 5.56-6.89 1.85-3.83.3-5.39-.59-.58-1.98-.55-1.39.03-3.3 1.14-1.9 1.11-3.98 3.22-3.96 3.96-9.23 12.34-1.7 2.6-2.08 3.22zm22.09 2.87v-.12q-.06-1.7-2.14-1.7-4.25 0-10.99 8.85-2.78 3.69-2.78 6.68 0 1.29.7 1.96 1.24 1.15 3.15 1.15 1.92 0 4.08-.79 2.15-.8 4-2 1.84-1.2 3.36-2.62 1.53-1.42 2.64-2.67 1.11-1.24 1.76-2.12.64-.88.76-1.02l.65.49-.8 1.06q-5.5 7.23-12.3 9.7-2.29.82-4.31.82-2.02 0-3.16-.41-1.14-.41-1.91-1.12-1.46-1.43-1.46-3.57 0-4.19 3.63-8.53 2.84-3.4 6.74-5.21 3.16-1.47 6.15-1.41 2.64.09 3.34 1.79.71 1.73-.76 3.16-.97 1-1.87 1-2.11 0-2.17-1.73-.03-.82.63-1.36.66-.54 1.3-.6.94-.06 1.76.32zm9.43 15.19q0 1.36 1.16 1.36t2.55-.7q1.39-.7 2.84-1.79 1.45-1.08 2.86-2.4l2.55-2.55q1.17-1.2 2.02-2.17l1.2-1.34.58.49q-.55.5-1.49 1.56l-2.11 2.34q-7.15 7.56-12.3 7.56-1.67 0-2.68-.82-1.01-.82-1.01-2.2 0-4.36 12.71-12.89-6.21-1.02-8.58-2.08-1.94 3.98-5.95 8.12-.94.96-1.16 1.05-.22.09-.28.13-.06.05-.08-.16-.03-.2 0-.31.02-.1.11-.22 1.38-1.55 2.55-2.98 2.73-3.4 4.02-6.04-1.06-.67-1.21-1.44-.14-.76.02-1.42.16-.66.51-1.18.76-1.15 1.76-1.15 1.84 0 1.84 1.35 0 .68-.26 1.14l-.53.91q-.52.68-.52 1.56 0 .52 2.24.99t3.18.65q2.05.38 3.25.44.82.03.82.44 0 .26-.95 1.02-.96.76-2.1 1.85-1.14 1.08-2.22 2.27-1.09 1.18-2.06 2.41-.96 1.23-1.69 2.38-1.59 2.46-1.59 3.82zm30.49-24.18q-.43.38-.96.6-.52.22-1.2.22-.67 0-1.15-.52-.49-.51-.49-1.15 0-.65.24-1.15.23-.49.64-.88.85-.87 1.86-.87 1.01 0 1.5.54.48.54.48 1.18 0 .65-.25 1.15-.25.49-.67.88zm-18.62 24.8q0 .92 1.73.92t3.26-.79q1.54-.79 3.11-1.98 1.57-1.19 3.03-2.59l2.64-2.64q1.17-1.23 1.93-2.12.76-.9.91-1.04l.59.52q-.3.3-1.1 1.25-.81.95-2.01 2.23-1.2 1.27-2.7 2.68-1.49 1.4-3.13 2.57-3.78 2.73-6.62 2.73-1.82 0-2.9-.66-1.09-.66-1.09-1.51t.18-1.52q.18-.68.65-1.61.46-.94 1.3-2.2.83-1.26 2.17-3.02 1.33-1.76 3.23-4.07l4.52-5.33q.35.08 1.43.08h1.38q.76 0 1.23-.05-9.7 11.57-10.91 13.16-1.22 1.6-1.81 2.51-1.02 1.55-1.02 2.48zm27.13 1.74q-3.4 0-3.4-2.9 0-4.4 9.64-11.46 3.34-2.43 3.69-3.51.09-.32.09-.63t-.31-.6q-.31-.3-1.3-.3-4.6 0-14.27 9-4.51 4.33-6.27 6.27l-3.11 3.51q-1.23 1.61-2.72 3.75l-5.98 8.94-4.45 7.03q-.76 1.17-.88 1.38-.85.23-1.89.23t-1.32-.01q-.28-.02-.6-.05-.56-.06-1.08-.2l14.97-20.33 9.49-13.36 11.54-15.44q1.59.17 2.38.17 1.46 0 2.05-.2l-9.44 11.54-6.97 9.32.21.23q9.11-8.76 13.44-11.01 2.23-1.18 3.33-1.34 1.1-.16 1.98-.16 2.78 0 2.78 2.43 0 4.81-8.82 10.99-3.95 2.84-4.51 3.9-.18.35-.18.67 0 1.32 2.08 1.32 5.04 0 12.86-9.32l1.56-1.81.64.49-1.52 1.76q-8.18 9.7-13.71 9.7zm11.45-1.76q0 .88 1.41.91 1.4.03 2.83-.62 1.42-.64 2.82-1.64 1.41-.99 2.73-2.24 1.32-1.24 2.46-2.47 1.14-1.23 2.05-2.32l1.52-1.81.65.49-1.53 1.76q-8.17 9.7-13.74 9.7-1.61 0-2.41-.65-.81-.64-.81-1.4 0-.76.07-1.26.08-.5.31-1.1.24-.6.69-1.42.45-.82 1.22-1.99l4.57-6.6 7.56-10.63h-2.32q-.88 0-.88-.43 0-.42 1.11-.42h2.67l5.42-7.62q2.05.33 4.07 0l-5.65 7.62h7.56q.82 0 .82.42 0 .43-.73.43h-8.3L315.53 40.5q-3.14 4.43-3.59 5.45-.46 1.03-.46 1.35z"/></svg>