<svg viewBox="0 0 817 80" xmlns="http://www.w3.org/2000/svg"><path d="M36.48 40.96l-2.82 10.68q-.42 1.56-.42 2.4 0 1.32.9 1.98.9.66 3.06.78l-.24 1.2q-4.14-.18-10.44-.18-7.8 0-11.4.18l.24-1.2q2.16-.12 3.24-.48t1.71-1.38q.63-1.02 1.23-3.3l7.92-29.76q.42-1.98.42-2.76 0-1.2-.84-1.74t-3.12-.66l.3-1.2q3.48.18 10.98.18 2.88 0 4.32-.06l4.44-.06q7.92 0 11.73 2.22 3.81 2.22 3.81 6.84 0 4.56-3.15 8.22-3.15 3.66-8.82 5.79t-13.05 2.31zm5.1-19.08L36.84 39.7q4.2-.3 6.9-2.91 2.7-2.61 3.9-6.33 1.2-3.72 1.2-7.44 0-3.12-1.11-4.71-1.11-1.59-3.51-1.59-.96 0-1.32.57-.36.57-.78 2.49-.12.42-.24.96t-.3 1.14zm27.3 31.02q-.18.6-.18 1.14 0 .72.33 1.05.33.33.81.33.6 0 1.41-.75.81-.75 1.65-3.03l1.26-3.36h1.14l-1.5 4.38q-1.2 3.48-3.54 4.83t-4.98 1.35q-3 0-4.68-1.56-1.68-1.56-1.68-4.5 0-1.86.72-4.26l9.18-30.54q.3-1.08.3-1.68 0-1.2-.93-1.74t-3.15-.54l.42-1.26q4.74-.06 8.58-.66 3.84-.6 7.5-1.8L68.88 52.9zm38.82-1.26l1.26-3.36h1.14l-1.5 4.38q-2.16 6.18-8.58 6.18-3.66 0-5.22-2.1-1.02-1.5-1.02-3.66 0-.66.06-1.02-1.44 3.66-3.72 5.22-2.28 1.56-5.4 1.56-3.72 0-5.58-1.92-1.86-1.92-1.86-5.58 0-5.64 3.03-11.58t7.56-9.84q4.53-3.9 8.67-3.9 3.42 0 3.72 3.42l.78-2.52q5.82-.06 10.86-.9l-8.1 26.88q-.24.78-.24 1.44 0 1.08.96 1.08 1.74 0 3.18-3.78zm-17.76 3.12q1.26 0 2.52-1.92t2.88-6.9l4.32-14.4q.06-.3.06-.9 0-1.68-1.14-1.68-1.68 0-4.11 3.48-2.43 3.48-4.17 8.76-1.74 5.28-1.74 10.38 0 1.74.3 2.46t1.08.72zm46.62-28.74q4.56 0 4.56 5.82 0 5.22-3.45 12.63-3.45 7.41-8.37 13.29-3.78 4.5-7.89 7.29-4.11 2.79-8.19 3.75-2.04.48-3.54.48-2.4 0-3.69-1.05t-1.29-2.91q0-1.8 1.32-3.09 1.32-1.29 3.48-1.29 4.32 0 7.38 5.28 3.9-1.74 6.96-4.5l-4.86-29.7q-.3-1.56-.51-2.07-.21-.51-.75-.51-.6 0-1.05.72-.45.72-1.35 3.06l-1.26 3.36h-1.14l1.5-4.38q1.2-3.42 3.09-4.8t4.65-1.38q3 0 4.74 1.59 1.74 1.59 2.34 5.55l2.58 19.2q3.96-5.76 6.3-12.36-2.82-1.56-4.53-3.96-1.71-2.4-1.71-5.1 0-2.28 1.23-3.6 1.23-1.32 3.45-1.32zm29.52-14.94q4.38 0 6.9 1.8 2.52 1.8 2.52 4.92 0 1.44-.84 2.82t-2.31 2.28q-1.47.9-3.33.9-2.22 0-3.51-1.05-1.29-1.05-1.29-3.03 0-2.34 1.41-4.23 1.41-1.89 3.93-2.85-.84-.36-1.56-.36-1.8 0-2.94.96-1.68 1.44-2.88 5.94l-2.04 7.68h5.94l-.36 1.2h-5.94l-10.8 40.38q-6.18.06-10.86.84l11.1-41.22h-4.8l.36-1.2h4.74q2.7-9.66 7.5-13.14 3.6-2.64 9.06-2.64zm26.82 40.56l1.26-3.36h1.14l-1.5 4.38q-2.16 6.18-8.58 6.18-3.66 0-5.22-2.1-1.02-1.5-1.02-3.66 0-.66.06-1.02-1.44 3.66-3.72 5.22-2.28 1.56-5.4 1.56-3.72 0-5.58-1.92-1.86-1.92-1.86-5.58 0-5.64 3.03-11.58t7.56-9.84q4.53-3.9 8.67-3.9 3.42 0 3.72 3.42l.78-2.52q5.82-.06 10.86-.9L189 52.9q-.24.78-.24 1.44 0 1.08.96 1.08 1.74 0 3.18-3.78zm-17.76 3.12q1.26 0 2.52-1.92t2.88-6.9l4.32-14.4q.06-.3.06-.9 0-1.68-1.14-1.68-1.68 0-4.11 3.48-2.43 3.48-4.17 8.76-1.74 5.28-1.74 10.38 0 1.74.3 2.46t1.08.72zm32.82-37.32q0-3.12 2.01-4.74t5.31-1.62q2.64 0 3.99 1.02t1.35 3.06q0 2.76-2.1 4.5-2.1 1.74-5.28 1.74-2.58 0-3.93-1.02t-1.35-2.94zm-2.52 14.52q.3-.78.3-1.5 0-1.02-.84-1.02-.96 0-1.74.84t-1.56 2.94l-1.38 3.66h-1.14l1.68-4.68q2.22-6.18 8.94-6.18 3.24 0 4.74 1.56t1.5 3.96q0 1.32-.48 2.88l-6.24 18.48q-.3 1.02-.3 1.44 0 1.08 1.02 1.08 1.74 0 3.18-3.78l1.26-3.36h1.14l-1.5 4.38q-2.16 6.18-8.58 6.18-3.06 0-4.74-1.44-1.68-1.44-1.68-4.26 0-1.92.9-4.62l5.52-16.56zm38.4-5.94q2.7 0 4.26 1.65 1.56 1.65 1.56 4.17 0 3.06-1.92 5.28t-4.86 2.22q-2.22 0-3.36-1.14-1.14-1.14-1.14-3.36 0-2.64 1.92-4.8 1.92-2.16 4.62-2.64-.72-.18-.84-.18-1.92 0-3.48.78t-3.45 3.84q-1.89 3.06-3.99 9.36L228.78 58h-10.62l7.32-26.04q.24-.9.24-1.56 0-.96-.78-.96-.96 0-1.74.84t-1.56 2.94l-1.38 3.66h-1.14l1.68-4.68q2.22-6.18 8.94-6.18 2.88 0 4.2 1.56 1.32 1.56 1.32 4.02 0 .84-.06 1.26 1.74-3.78 3.75-5.31 2.01-1.53 4.89-1.53zm66.96 4.56q0 6.48-3.12 12.78-3.12 6.3-9.96 10.47Q290.88 58 280.44 58q-1.62 0-2.7-.06-3.36-.12-6.78-.12-6.6 0-10.2.18l.18-1.2q2.04-.12 3.09-.48 1.05-.36 1.68-1.41.63-1.05 1.23-3.27l7.86-29.76q.36-1.38.36-2.34 0-1.32-.87-2.01-.87-.69-2.97-.81l.18-1.2q3.06.18 9.3.18h2.22q5.04-.18 8.88-.18 9 0 13.95 3.81 4.95 3.81 4.95 11.25zm-29.88 26.34q5.28 0 9.27-4.38 3.99-4.38 6.12-11.01t2.13-13.11q0-11.82-7.62-11.82-1.32 0-1.92.36-.6.36-.9 1.2-.3.84-1.02 3.6l-7.86 30q-.72 2.76-.72 3.6 0 .9.54 1.23.54.33 1.98.33zm40.68-39.48q0-3.12 2.01-4.74t5.31-1.62q2.64 0 3.99 1.02t1.35 3.06q0 2.76-2.1 4.5-2.1 1.74-5.28 1.74-2.58 0-3.93-1.02t-1.35-2.94zm-2.52 14.52q.3-.78.3-1.5 0-1.02-.84-1.02-.96 0-1.74.84t-1.56 2.94l-1.38 3.66h-1.14l1.68-4.68q2.22-6.18 8.94-6.18 3.24 0 4.74 1.56t1.5 3.96q0 1.32-.48 2.88l-6.24 18.48q-.3 1.02-.3 1.44 0 1.08 1.02 1.08 1.74 0 3.18-3.78l1.26-3.36h1.14l-1.5 4.38q-2.16 6.18-8.58 6.18-3.06 0-4.74-1.44-1.68-1.44-1.68-4.26 0-1.92.9-4.62l5.52-16.56zm17.58 25.2q.9.42 2.1.42 1.86 0 3.09-1.23 1.23-1.23 1.23-3.33 0-1.92-.9-4.05t-2.58-4.89q-1.98-3.18-2.79-4.98-.81-1.8-.81-4.02 0-4.02 3.06-6.54 3.06-2.52 8.88-2.52 4.44 0 7.38 1.59 2.94 1.59 2.94 5.31 0 2.04-1.14 3.69T354 38.26q-1.8 0-2.82-1.41-1.02-1.41-1.02-3.63 0-1.74.57-3.27t1.35-2.37q-.48-.24-1.5-.24-2.1 0-3.18 1.23t-1.08 3.57q0 1.5.66 2.91.66 1.41 2.16 3.93l.72 1.2q1.98 3.42 2.79 5.55t.81 4.11q0 2.52-1.38 4.56-1.38 2.04-4.08 3.24-2.7 1.2-6.54 1.2-4.86 0-7.98-1.77t-3.12-5.91q0-2.28 1.11-3.81 1.11-1.53 2.97-1.53 1.74 0 2.82 1.44 1.08 1.44 1.08 3.84 0 1.68-.45 3t-1.23 3.06zm48.3-31.14q4.14 0 6.18 2.52t2.04 7.26q0 4.92-2.22 10.32t-6.36 9.06q-4.14 3.66-9.6 3.66-1.62 0-3.12-.33t-2.58-.87l-1.26 4.38q-.48 1.74-.48 2.64 0 1.68 1.17 2.28 1.17.6 3.81.66l-.36 1.26-1.62-.06q-6.84-.18-8.82-.18-2.04 0-8.34.18-.54.06-1.32.06l.36-1.26q2.16 0 3.12-.78t1.56-2.94l10.68-38.52q-1.56 3.66-3.63 6.6-2.07 2.94-4.95 6.06l-.66-.78q2.58-2.88 4.23-5.1 1.65-2.22 3.39-5.43 1.74-3.21 3.42-7.83 5.76-.48 11.22-2.28l-4.56 16.2q1.8-3.48 3.93-5.13t4.77-1.65zM371.1 56.86q2.58 0 5.13-3.39t4.17-8.55q1.62-5.16 1.62-10.02 0-2.94-.36-3.9t-1.08-.96q-1.32 0-2.79 2.01t-2.85 5.43l-5.4 19.14q.96.24 1.56.24zm33.72-3.96q-.18.6-.18 1.14 0 .72.33 1.05.33.33.81.33.6 0 1.41-.75.81-.75 1.65-3.03l1.26-3.36h1.14l-1.5 4.38q-1.2 3.48-3.54 4.83t-4.98 1.35q-3 0-4.68-1.56-1.68-1.56-1.68-4.5 0-1.86.72-4.26l9.18-30.54q.3-1.08.3-1.68 0-1.2-.93-1.74t-3.15-.54l.42-1.26q4.74-.06 8.58-.66 3.84-.6 7.5-1.8l-12.66 42.6zm38.82-1.26l1.26-3.36h1.14l-1.5 4.38q-2.16 6.18-8.58 6.18-3.66 0-5.22-2.1-1.02-1.5-1.02-3.66 0-.66.06-1.02-1.44 3.66-3.72 5.22-2.28 1.56-5.4 1.56-3.72 0-5.58-1.92-1.86-1.92-1.86-5.58 0-5.64 3.03-11.58t7.56-9.84q4.53-3.9 8.67-3.9 3.42 0 3.72 3.42l.78-2.52q5.82-.06 10.86-.9l-8.1 26.88q-.24.78-.24 1.44 0 1.08.96 1.08 1.74 0 3.18-3.78zm-17.76 3.12q1.26 0 2.52-1.92t2.88-6.9l4.32-14.4q.06-.3.06-.9 0-1.68-1.14-1.68-1.68 0-4.11 3.48-2.43 3.48-4.17 8.76-1.74 5.28-1.74 10.38 0 1.74.3 2.46t1.08.72zm46.62-28.74q4.56 0 4.56 5.82 0 5.22-3.45 12.63-3.45 7.41-8.37 13.29-3.78 4.5-7.89 7.29-4.11 2.79-8.19 3.75-2.04.48-3.54.48-2.4 0-3.69-1.05t-1.29-2.91q0-1.8 1.32-3.09 1.32-1.29 3.48-1.29 4.32 0 7.38 5.28 3.9-1.74 6.96-4.5l-4.86-29.7q-.3-1.56-.51-2.07-.21-.51-.75-.51-.6 0-1.05.72-.45.72-1.35 3.06L450 36.58h-1.14l1.5-4.38q1.2-3.42 3.09-4.8t4.65-1.38q3 0 4.74 1.59 1.74 1.59 2.34 5.55l2.58 19.2q3.96-5.76 6.3-12.36-2.82-1.56-4.53-3.96-1.71-2.4-1.71-5.1 0-2.28 1.23-3.6 1.23-1.32 3.45-1.32zm43.86 9.78q4.98-.06 8.58 1.08 3.6 1.14 5.49 3.21 1.89 2.07 1.89 4.71 0 6.3-5.55 9.75T511.32 58q-1.74 0-2.94-.06-3.6-.12-7.68-.12-6.84 0-10.62.18l.24-1.2q2.16-.12 3.24-.48t1.71-1.38q.63-1.02 1.23-3.3l7.92-29.76q.54-2.16.54-2.88 0-1.2-.9-1.71t-3.18-.57l.3-1.2q3.66.18 10.44.18l5.7-.06q1.14-.06 3.24-.06 14.52 0 14.52 8.1 0 3.24-2.19 5.94t-6.45 4.35q-4.26 1.65-10.08 1.83zm3.6-19.08q-1.26 0-1.89.84-.63.84-1.29 3.42l-3.84 14.46h.9q3 0 5.16-1.92t3.24-5.04q1.08-3.12 1.08-6.66 0-2.4-.72-3.75t-2.64-1.35zm-9.36 39.9q2.52 0 4.59-1.89t3.24-4.92q1.17-3.03 1.17-6.21t-1.35-5.16q-1.35-1.98-4.41-1.98h-1.14l-4.02 15.18q-.48 1.68-.48 2.7 0 2.28 2.4 2.28zm35.1-3.72q-.18.6-.18 1.14 0 .72.33 1.05.33.33.81.33.6 0 1.41-.75.81-.75 1.65-3.03l1.26-3.36h1.14l-1.5 4.38q-1.2 3.48-3.54 4.83t-4.98 1.35q-3 0-4.68-1.56-1.68-1.56-1.68-4.5 0-1.86.72-4.26l9.18-30.54q.3-1.08.3-1.68 0-1.2-.93-1.74t-3.15-.54l.42-1.26q4.74-.06 8.58-.66 3.84-.6 7.5-1.8L545.7 52.9zm38.82-1.26l1.26-3.36h1.14l-1.5 4.38q-2.16 6.18-8.58 6.18-3.66 0-5.22-2.1-1.02-1.5-1.02-3.66 0-.66.06-1.02-1.44 3.66-3.72 5.22-2.28 1.56-5.4 1.56-3.72 0-5.58-1.92-1.86-1.92-1.86-5.58 0-5.64 3.03-11.58t7.56-9.84q4.53-3.9 8.67-3.9 3.42 0 3.72 3.42l.78-2.52q5.82-.06 10.86-.9l-8.1 26.88q-.24.78-.24 1.44 0 1.08.96 1.08 1.74 0 3.18-3.78zm-17.76 3.12q1.26 0 2.52-1.92t2.88-6.9l4.32-14.4q.06-.3.06-.9 0-1.68-1.14-1.68-1.68 0-4.11 3.48-2.43 3.48-4.17 8.76-1.74 5.28-1.74 10.38 0 1.74.3 2.46t1.08.72zm45.6-27.54q-2.94 0-5.61 3.21-2.67 3.21-4.32 8.28-1.65 5.07-1.65 10.29 0 3.12 1.26 4.62t3.54 1.5q1.92 0 3.66-1.08 1.74-1.08 3.54-3.72l1.2.48q-5.16 8.04-13.74 8.04-4.8 0-7.74-2.37-2.94-2.37-2.94-7.11 0-5.34 2.76-10.77t7.8-9q5.04-3.57 11.46-3.57 3.6 0 5.7 1.8t2.1 4.44q0 1.92-.96 3.75t-2.58 2.97q-1.62 1.14-3.48 1.14-1.68 0-2.88-1.11t-1.2-3.09q0-2.82 1.8-5.01t4.32-2.97q-.78-.72-2.04-.72zm29.34 7.56q0-2.34 1.53-4.08 1.53-1.74 3.81-2.76-.24-.36-.66-.57-.42-.21-.84-.21-1.62 0-2.76.96-.78.66-1.29 1.71-.51 1.05-1.23 3.03-1.14 3.24-2.31 5.1-1.17 1.86-3.57 2.52 10.98.12 10.98 6.78 0 1.14-.24 2.16l-.72 3.48q-.18.78-.18 1.32 0 1.2.9 1.2 1.74 0 3.18-3.78l1.26-3.36h1.14l-1.5 4.38q-2.28 6.18-9.6 6.18-2.94 0-4.38-1.35t-1.44-3.87q0-1.02.3-2.52l1.02-4.26q.42-1.44.42-2.58 0-1.32-.69-2.07-.69-.75-2.19-1.11L627.66 58h-10.62l11.88-40.02q.3-1.08.3-1.68 0-1.2-.93-1.74t-3.15-.54l.42-1.26q4.74-.06 8.58-.66 3.84-.6 7.5-1.8l-8.7 29.64q1.86-.42 3.06-1.53t1.83-2.43q.63-1.32 1.35-3.48.66-1.92 1.23-3.12.57-1.2 1.47-1.98.84-.72 1.89-1.05 1.05-.33 1.95-.33 3.3 0 5.1 1.95 1.8 1.95 1.8 4.89 0 2.82-1.71 4.44-1.71 1.62-4.35 1.62-2.28 0-3.57-1.17t-1.29-2.97zm27.12 16.86q-.54 2.28-.54 2.94 0 1.26.87 1.68.87.42 3.21.54l-.24 1.2q-3.84-.18-11.22-.18-7.08 0-10.62.18l.3-1.2q2.1-.12 3.15-.48 1.05-.36 1.68-1.41.63-1.05 1.23-3.27l7.92-29.76q.48-2.04.48-2.88 0-1.32-.87-1.74-.87-.42-3.15-.54l.3-1.2q3.36.18 10.62.18 6.78 0 11.28-.18l-.3 1.2q-2.22.12-3.27.48-1.05.36-1.68 1.38-.63 1.02-1.23 3.3l-7.92 29.76zm28.44-23.58L690 52.9q-.18.6-.18 1.14 0 1.38 1.26 1.38 1.2 0 2.4-1.29t1.92-3.27l.96-2.58h1.14l-1.14 3.3q-1.2 3.48-3.66 5.37-2.46 1.89-5.88 1.89-3.36 0-5.01-1.74t-1.65-4.74q0-1.56.6-3.84l5.88-20.46h-5.46l.3-1.2H687l2.52-8.82q6.3-.06 10.92-.84l-2.82 9.66h6l-.18 1.2h-6.18zm33.06 23.58l1.26-3.36h1.14l-1.5 4.38q-2.16 6.18-8.58 6.18-3.66 0-5.22-2.1-1.02-1.5-1.02-3.66 0-.66.06-1.02-1.44 3.66-3.72 5.22-2.28 1.56-5.4 1.56-3.72 0-5.58-1.92-1.86-1.92-1.86-5.58 0-5.64 3.03-11.58t7.56-9.84q4.53-3.9 8.67-3.9 3.42 0 3.72 3.42l.78-2.52q5.82-.06 10.86-.9l-8.1 26.88q-.24.78-.24 1.44 0 1.08.96 1.08 1.74 0 3.18-3.78zm-17.76 3.12q1.26 0 2.52-1.92t2.88-6.9l4.32-14.4q.06-.3.06-.9 0-1.68-1.14-1.68-1.68 0-4.11 3.48-2.43 3.48-4.17 8.76-1.74 5.28-1.74 10.38 0 1.74.3 2.46t1.08.72zm32.82-1.86q-.18.6-.18 1.14 0 .72.33 1.05.33.33.81.33.6 0 1.41-.75.81-.75 1.65-3.03l1.26-3.36h1.14l-1.5 4.38q-1.2 3.48-3.54 4.83t-4.98 1.35q-3 0-4.68-1.56-1.68-1.56-1.68-4.5 0-1.86.72-4.26l9.18-30.54q.3-1.08.3-1.68 0-1.2-.93-1.74t-3.15-.54l.42-1.26q4.74-.06 8.58-.66 3.84-.6 7.5-1.8l-12.66 42.6zm18.96-35.46q0-3.12 2.01-4.74t5.31-1.62q2.64 0 3.99 1.02t1.35 3.06q0 2.76-2.1 4.5-2.1 1.74-5.28 1.74-2.58 0-3.93-1.02t-1.35-2.94zm-2.52 14.52q.3-.78.3-1.5 0-1.02-.84-1.02-.96 0-1.74.84t-1.56 2.94l-1.38 3.66h-1.14l1.68-4.68q2.22-6.18 8.94-6.18 3.24 0 4.74 1.56t1.5 3.96q0 1.32-.48 2.88L765.6 52.9q-.3 1.02-.3 1.44 0 1.08 1.02 1.08 1.74 0 3.18-3.78l1.26-3.36h1.14l-1.5 4.38q-2.16 6.18-8.58 6.18-3.06 0-4.74-1.44-1.68-1.44-1.68-4.26 0-1.92.9-4.62l5.52-16.56zm35.46-4.74q-2.94 0-5.61 3.21-2.67 3.21-4.32 8.28-1.65 5.07-1.65 10.29 0 3.12 1.26 4.62t3.54 1.5q1.92 0 3.66-1.08 1.74-1.08 3.54-3.72l1.2.48q-5.16 8.04-13.74 8.04-4.8 0-7.74-2.37-2.94-2.37-2.94-7.11 0-5.34 2.76-10.77t7.8-9q5.04-3.57 11.46-3.57 3.6 0 5.7 1.8t2.1 4.44q0 1.92-.96 3.75t-2.58 2.97q-1.62 1.14-3.48 1.14-1.68 0-2.88-1.11t-1.2-3.09q0-2.82 1.8-5.01t4.32-2.97q-.78-.72-2.04-.72z"/></svg>