<svg viewBox="0 0 661 80" xmlns="http://www.w3.org/2000/svg"><path d="M34.34 39.84h-2.22v10.2q0 2.52.51 3.66.51 1.14 1.86 1.53 1.35.39 4.29.39V57q-8.1-.18-12.36-.18-2.82 0-7.86.12l-2.88.06v-1.2q1.92-.12 2.79-.48.87-.36 1.17-1.38.3-1.02.3-3.3V20.88q0-2.28-.33-3.3t-1.17-1.38q-.84-.36-2.76-.48v-1.2q3.42.18 10.32.18l6.9-.06q1.2-.06 2.76-.06 8.88 0 13.47 3.21t4.59 8.61q0 3.3-1.8 6.33-1.8 3.03-6.12 5.07-4.32 2.04-11.46 2.04zm1.02-24.12q-1.38 0-2.07.42t-.93 1.5q-.24 1.08-.24 3.24v17.76h1.62q4.2 0 5.79-3.12 1.59-3.12 1.59-8.46 0-5.82-1.32-8.58t-4.44-2.76zm34.56-5.64v41.34q0 2.46.75 3.39.75.93 2.61.93V57q-6.48-.24-8.52-.24-2.04 0-9 .24v-1.26q1.86 0 2.61-.93.75-.93.75-3.39V17.28q0-2.76-.75-4.02Q57.62 12 55.76 12v-1.26q1.86.18 3.72.18 6.24 0 10.44-.84zm13.5 47.34q-3.84 0-5.79-2.07-1.95-2.07-1.95-5.19 0-2.7 1.41-4.47 1.41-1.77 3.33-2.73 1.92-.96 4.98-1.98 3.24-1.08 4.74-1.98 1.5-.9 1.5-2.52v-5.34q0-1.92-.96-3.42t-3.3-1.5q-1.86 0-3.36 1.02 2.04.72 3.03 2.13.99 1.41.99 3.15 0 2.34-1.65 3.75-1.65 1.41-3.99 1.41-2.34 0-3.69-1.47t-1.35-3.75q0-1.8.9-3.12t2.82-2.4q3.36-1.92 9.6-1.92 3.3 0 5.7.63 2.4.63 4.08 2.37 1.2 1.26 1.59 3.15.39 1.89.39 5.25V52.5q0 1.5.21 2.04t.75.54q.42 0 .9-.27.48-.27.9-.63l.6 1.02q-2.58 2.22-7.38 2.22-3.6 0-5.04-1.23t-1.56-3.33q-2.82 4.56-8.4 4.56zm6-4.8q1.26 0 2.22-1.02V38.94q-.54.9-1.98 2.34-1.62 1.56-2.46 3.03-.84 1.47-.84 3.99 0 4.32 3.06 4.32zM133.1 26.1q3.42 0 4.62-.24v1.26q-1.26.42-2.31 1.74t-1.95 4.08l-7.5 22.32-2.52 7.26q-1.08 3.12-2.64 4.32-1.86 1.44-5.58 1.44-3 0-5.58-1.41t-2.58-4.23q0-2.1 1.62-3.36 1.62-1.26 4.26-1.26 2.52 0 3.96 1.14t1.44 3.3q0 1.44-.99 2.73t-2.91 1.89q.6.12 2.04.12 4.14 0 5.7-4.8l.3-1.02-13.98-30.9q-.9-2.04-1.77-2.7-.87-.66-1.71-.66v-1.26q4.8.36 9.78.36 3.9 0 8.7-.36v1.26q-1.74 0-2.67.24-.93.24-.93 1.08 0 .48.24.96l7.38 17.58 2.52-7.68q1.14-3.48 1.14-6.12 0-2.82-1.2-4.38t-3.18-1.68v-1.26q2.22.24 6.3.24zm22.62-16.02q4.32 0 7.2 2.22.96.72 1.59 2.04.63 1.32.63 2.94 0 1.92-1.41 3.39-1.41 1.47-3.57 1.47-2.52 0-3.96-1.32t-1.44-3.66q0-1.8 1.05-3.24 1.05-1.44 3.09-2.1-.42-.54-1.62-.54-1.86 0-2.82 1.14-.6.72-.87 1.95t-.27 3.51v8.04h6.42v1.2h-6.42v23.7q0 2.76 1.29 3.84t3.87 1.08V57l-1.74-.06q-7.2-.18-9.3-.18-1.8 0-8.28.24v-1.26q1.86 0 2.61-.93.75-.93.75-3.39v-24.3h-3.6v-1.2h3.6q0-5.22.93-8.01t3.33-4.83q1.5-1.26 3.9-2.13 2.4-.87 5.04-.87zm13.2 47.34q-3.84 0-5.79-2.07-1.95-2.07-1.95-5.19 0-2.7 1.41-4.47 1.41-1.77 3.33-2.73 1.92-.96 4.98-1.98 3.24-1.08 4.74-1.98 1.5-.9 1.5-2.52v-5.34q0-1.92-.96-3.42t-3.3-1.5q-1.86 0-3.36 1.02 2.04.72 3.03 2.13.99 1.41.99 3.15 0 2.34-1.65 3.75-1.65 1.41-3.99 1.41-2.34 0-3.69-1.47t-1.35-3.75q0-1.8.9-3.12t2.82-2.4q3.36-1.92 9.6-1.92 3.3 0 5.7.63 2.4.63 4.08 2.37 1.2 1.26 1.59 3.15.39 1.89.39 5.25V52.5q0 1.5.21 2.04t.75.54q.42 0 .9-.27.48-.27.9-.63l.6 1.02q-2.58 2.22-7.38 2.22-3.6 0-5.04-1.23t-1.56-3.33q-2.82 4.56-8.4 4.56zm6-4.8q1.26 0 2.22-1.02V38.94q-.54.9-1.98 2.34-1.62 1.56-2.46 3.03-.84 1.47-.84 3.99 0 4.32 3.06 4.32zm26.46-42.54q3.12 0 4.83 1.32t1.71 3.84q0 2.52-1.71 3.84-1.71 1.32-4.83 1.32-3.18 0-4.86-1.32-1.68-1.32-1.68-3.84 0-2.52 1.68-3.84 1.68-1.32 4.86-1.32zm5.76 15.12v26.22q0 2.46.75 3.39.75.93 2.61.93V57q-6.48-.24-8.52-.24-2.04 0-9 .24v-1.26q1.86 0 2.61-.93.75-.93.75-3.39V32.4q0-2.76-.75-4.02-.75-1.26-2.61-1.26v-1.26q1.92.18 3.72.18 6.24 0 10.44-.84zm27.54-.18q2.94 0 4.23 1.8 1.29 1.8 1.29 4.26 0 2.7-1.53 4.29-1.53 1.59-3.99 1.59-2.58 0-3.96-1.17t-1.38-3.15q0-3.54 3.06-5.58-1.08 0-1.92.42-1.5.66-2.52 2.13-1.02 1.47-1.02 3.21v18q0 2.82 1.17 3.87 1.17 1.05 3.99 1.05V57q-.78 0-1.32-.06-6.3-.18-8.4-.18-1.86 0-8.34.18-.48.06-1.26.06v-1.26q1.86 0 2.61-.93.75-.93.75-3.39V32.4q0-2.76-.75-4.02-.75-1.26-2.61-1.26v-1.26q1.92.18 3.72.18 6.24 0 10.44-.84v4.32q2.28-4.5 7.74-4.5zm40.74-10.5q12.42 0 18.6 5.31 6.18 5.31 6.18 15.45 0 6.54-3.03 11.43t-8.73 7.59q-5.7 2.7-13.56 2.7l-3.72-.06q-3.6-.12-5.28-.12-7.02 0-10.44.18v-1.2q1.92-.12 2.79-.48.87-.36 1.17-1.38.3-1.02.3-3.3V20.88q0-2.28-.33-3.3t-1.17-1.38q-.84-.36-2.76-.48v-1.2q2.76.18 8.16.18h2.16l2.64-.06q5.04-.12 7.02-.12zm.9 1.08q-1.86 0-2.79.42-.93.42-1.29 1.5t-.36 3.24v30q0 2.16.36 3.24t1.29 1.5q.93.42 2.85.42 5.94 0 8.58-5.13 2.64-5.13 2.64-15.27t-2.73-15.03q-2.73-4.89-8.55-4.89zm35.76-5.52q3.12 0 4.83 1.32t1.71 3.84q0 2.52-1.71 3.84-1.71 1.32-4.83 1.32-3.18 0-4.86-1.32-1.68-1.32-1.68-3.84 0-2.52 1.68-3.84 1.68-1.32 4.86-1.32zm5.76 15.12v26.22q0 2.46.75 3.39.75.93 2.61.93V57q-6.48-.24-8.52-.24-2.04 0-9 .24v-1.26q1.86 0 2.61-.93.75-.93.75-3.39V32.4q0-2.76-.75-4.02-.75-1.26-2.61-1.26v-1.26q1.92.18 3.72.18 6.24 0 10.44-.84zm18.24-.18q2.34 0 4.41.51 2.07.51 3.15 1.11.66.36 1.08.36 1.26 0 1.5-1.92h1.2q-.24 3.12-.24 10.8h-1.2q-.48-3.96-2.25-6.69-1.77-2.73-5.13-2.73-1.5 0-2.52.9t-1.02 2.46q0 1.98 1.32 3.51 1.32 1.53 4.14 3.75.12.06 1.74 1.38 3.36 2.76 4.92 4.89t1.56 5.25q0 2.64-1.62 4.77-1.62 2.13-4.41 3.3t-6.09 1.17q-3.78 0-6.18-1.5-1.02-.54-1.68-.78-.66-.24-1.32-.24-1.14 0-1.68 2.1h-1.2q.24-3.42.24-12h1.2q.54 4.92 2.64 7.92t5.28 3q1.5 0 2.49-.84.99-.84.99-2.46 0-1.68-.69-3t-1.68-2.37q-.99-1.05-3.21-3.03-2.52-2.34-3.84-3.72-1.32-1.38-2.25-3.21-.93-1.83-.93-4.05 0-2.58 1.56-4.56 1.56-1.98 4.14-3.03 2.58-1.05 5.58-1.05zm38.82 0q4.68 0 7.56 3.84t2.88 11.22q0 9.54-3.84 13.65-3.84 4.11-10.14 4.11-3.48 0-5.58-1.14v4.98q0 2.76 1.29 3.84t3.87 1.08v1.26l-1.74-.06q-7.2-.18-9.3-.18-1.8 0-8.28.24V66.6q1.86 0 2.61-.93.75-.93.75-3.39V32.46q0-2.76-.75-4.02-.75-1.26-2.61-1.26v-1.26q1.86.18 3.72.18 6.24 0 10.44-.84v4.26q2.76-4.5 9.12-4.5zm-7.02 31.02q3.3 0 4.77-3.57 1.47-3.57 1.47-11.01 0-7.38-1.08-10.35-1.08-2.97-2.94-2.97-1.74 0-3.03 1.23-1.29 1.23-1.29 3.09v23.1q.78.48 2.1.48zm34.62-45.96v41.34q0 2.46.75 3.39.75.93 2.61.93V57q-6.48-.24-8.52-.24-2.04 0-9 .24v-1.26q1.86 0 2.61-.93.75-.93.75-3.39V17.28q0-2.76-.75-4.02-.75-1.26-2.61-1.26v-1.26q1.86.18 3.72.18 6.24 0 10.44-.84zM416 57.42q-3.84 0-5.79-2.07-1.95-2.07-1.95-5.19 0-2.7 1.41-4.47 1.41-1.77 3.33-2.73 1.92-.96 4.98-1.98 3.24-1.08 4.74-1.98 1.5-.9 1.5-2.52v-5.34q0-1.92-.96-3.42t-3.3-1.5q-1.86 0-3.36 1.02 2.04.72 3.03 2.13.99 1.41.99 3.15 0 2.34-1.65 3.75-1.65 1.41-3.99 1.41-2.34 0-3.69-1.47t-1.35-3.75q0-1.8.9-3.12t2.82-2.4q3.36-1.92 9.6-1.92 3.3 0 5.7.63 2.4.63 4.08 2.37 1.2 1.26 1.59 3.15.39 1.89.39 5.25V52.5q0 1.5.21 2.04t.75.54q.42 0 .9-.27.48-.27.9-.63l.6 1.02q-2.58 2.22-7.38 2.22-3.6 0-5.04-1.23t-1.56-3.33q-2.82 4.56-8.4 4.56zm6-4.8q1.26 0 2.22-1.02V38.94q-.54.9-1.98 2.34-1.62 1.56-2.46 3.03-.84 1.47-.84 3.99 0 4.32 3.06 4.32zm43.68-26.52q3.42 0 4.62-.24v1.26q-1.26.42-2.31 1.74t-1.95 4.08l-7.5 22.32-2.52 7.26q-1.08 3.12-2.64 4.32-1.86 1.44-5.58 1.44-3 0-5.58-1.41t-2.58-4.23q0-2.1 1.62-3.36 1.62-1.26 4.26-1.26 2.52 0 3.96 1.14t1.44 3.3q0 1.44-.99 2.73t-2.91 1.89q.6.12 2.04.12 4.14 0 5.7-4.8l.3-1.02-13.98-30.9q-.9-2.04-1.77-2.7-.87-.66-1.71-.66v-1.26q4.8.36 9.78.36 3.9 0 8.7-.36v1.26q-1.74 0-2.67.24-.93.24-.93 1.08 0 .48.24.96l7.38 17.58 2.52-7.68q1.14-3.48 1.14-6.12 0-2.82-1.2-4.38t-3.18-1.68v-1.26q2.22.24 6.3.24zm42.3 8.64q5.88.3 9.69 1.86 3.81 1.56 5.55 3.87 1.74 2.31 1.74 4.89 0 5.88-4.68 8.76T506.96 57q-1.74 0-2.94-.06-4.08-.12-7.98-.12-7.02 0-10.44.18v-1.2q1.92-.12 2.79-.48.87-.36 1.17-1.38.3-1.02.3-3.3V20.88q0-2.28-.33-3.3t-1.17-1.38q-.84-.36-2.76-.48v-1.2q3.42.18 10.32.18l6.9-.06q1.2-.06 2.76-.06 7.92 0 12.09 2.55t4.17 6.87q0 2.22-1.56 4.47-1.56 2.25-4.68 3.93-3.12 1.68-7.62 2.22v.12zm-2.7-19.02q-1.38 0-2.07.42t-.93 1.5q-.24 1.08-.24 3.24v13.56h1.62q3.24 0 4.53-2.67t1.29-7.11q0-4.56-.99-6.75-.99-2.19-3.21-2.19zm.66 39.9q6.42 0 6.42-10.5 0-4.74-2.28-7.2t-7.2-2.46h-.84v15.18q0 2.16.3 3.18t1.11 1.41q.81.39 2.49.39zm35.46-45.54v41.34q0 2.46.75 3.39.75.93 2.61.93V57q-6.48-.24-8.52-.24-2.04 0-9 .24v-1.26q1.86 0 2.61-.93.75-.93.75-3.39V17.28q0-2.76-.75-4.02-.75-1.26-2.61-1.26v-1.26q1.86.18 3.72.18 6.24 0 10.44-.84zm13.5 47.34q-3.84 0-5.79-2.07-1.95-2.07-1.95-5.19 0-2.7 1.41-4.47 1.41-1.77 3.33-2.73 1.92-.96 4.98-1.98 3.24-1.08 4.74-1.98 1.5-.9 1.5-2.52v-5.34q0-1.92-.96-3.42t-3.3-1.5q-1.86 0-3.36 1.02 2.04.72 3.03 2.13.99 1.41.99 3.15 0 2.34-1.65 3.75-1.65 1.41-3.99 1.41-2.34 0-3.69-1.47t-1.35-3.75q0-1.8.9-3.12t2.82-2.4q3.36-1.92 9.6-1.92 3.3 0 5.7.63 2.4.63 4.08 2.37 1.2 1.26 1.59 3.15.39 1.89.39 5.25V52.5q0 1.5.21 2.04t.75.54q.42 0 .9-.27.48-.27.9-.63l.6 1.02q-2.58 2.22-7.38 2.22-3.6 0-5.04-1.23t-1.56-3.33q-2.82 4.56-8.4 4.56zm6-4.8q1.26 0 2.22-1.02V38.94q-.54.9-1.98 2.34-1.62 1.56-2.46 3.03-.84 1.47-.84 3.99 0 4.32 3.06 4.32zm34.02-27.6q2.46 0 4.53.51 2.07.51 3.39 1.29 1.68.96 2.64 2.58.96 1.62.96 3.66 0 2.52-1.62 4.17t-4.14 1.65q-2.58 0-4.05-1.47-1.47-1.47-1.47-3.93 0-2.16 1.41-3.81t3.51-2.19q-.9-.72-2.4-.72-3.84 0-5.4 4.11-1.56 4.11-1.56 9.75 0 5.76 2.16 8.22 2.16 2.46 5.34 2.46 4.38 0 7.26-4.02l1.02.36q-1.32 4.2-4.47 7.2-3.15 3-8.07 3-6.54 0-10.5-3.9t-3.96-12.48q0-8.22 4.23-12.33 4.23-4.11 11.19-4.11zm47.22 27.6q.12.24.54 1.02.42.78.87 1.29t.99.81V57q-5.52-.24-7.26-.24-1.98 0-8.46.24v-1.26q1.74 0 1.74-1.14 0-.42-.24-.9l-5.28-11.16q-.36-.66-.81-.96-.45-.3-1.11-.36v10.2q0 2.46.75 3.39.75.93 2.61.93V57q-6.48-.24-8.52-.24-2.04 0-9 .24v-1.26q1.86 0 2.61-.93.75-.93.75-3.39V17.28q0-2.76-.75-4.02-.75-1.26-2.61-1.26v-1.26q1.86.18 3.72.18 6.24 0 10.44-.84v30q1.68 0 2.58-.9l4.62-4.32q2.1-1.92 2.1-3.9 0-1.56-1.35-2.64t-3.45-1.26v-1.2q3.42.18 7.2.18 5.88 0 8.22-.18v1.2q-4.14 1.14-8.88 5.88l-1.56 1.56 9.54 18.12z"/></svg>