<svg viewBox="0 0 671 80" xmlns="http://www.w3.org/2000/svg"><path d="M30.58 39.84h-4.62v10.8q0 2.28.48 3.3t1.68 1.38q1.2.36 3.9.48V57q-3.12-.18-8.82-.18-5.16 0-7.68.18v-1.2q2.16-.12 3.15-.48.99-.36 1.35-1.38.36-1.02.36-3.3V20.88q0-2.28-.36-3.3t-1.35-1.38q-.99-.36-3.15-.48v-1.2q2.52.18 7.32.18l6.48-.06q1.14-.06 2.58-.06 7.02 0 10.74 3.21 3.72 3.21 3.72 8.61 0 3.3-1.47 6.33-1.47 3.03-4.98 5.07-3.51 2.04-9.33 2.04zm-.18-24.12q-1.86 0-2.79.42-.93.42-1.29 1.5t-.36 3.24v17.76h4.02q5.88 0 8.13-3.15 2.25-3.15 2.25-8.43 0-5.82-2.31-8.58t-7.65-2.76zm28.44-5.76v41.46q0 2.46 1.02 3.39 1.02.93 3.54.93V57q-5.52-.24-7.26-.24-1.74 0-7.26.24v-1.26q2.52 0 3.54-.93t1.02-3.39V17.16q0-2.76-1.02-4.02-1.02-1.26-3.54-1.26v-1.26q1.86.18 3.72.18 3.78 0 6.24-.84zM74.5 57.42q-3.78 0-5.61-1.89-1.83-1.89-1.83-5.25 0-2.7 1.47-4.44 1.47-1.74 3.48-2.76 2.01-1.02 5.31-2.16 3.36-1.14 4.98-2.1 1.62-.96 1.62-2.58v-3.72q0-3.48-1.47-4.77-1.47-1.29-4.11-1.29-4.2 0-5.94 2.16 1.2.3 2.01 1.26.81.96.81 2.4 0 1.5-.96 2.37-.96.87-2.46.87-1.68 0-2.52-1.05-.84-1.05-.84-2.55 0-1.44.69-2.4t2.07-1.92q1.44-1.02 3.66-1.68 2.22-.66 4.86-.66 4.68 0 7.08 2.22 1.5 1.38 2.01 3.33.51 1.95.51 5.13v16.68q0 1.5.42 2.16.42.66 1.44.66.72 0 1.35-.33.63-.33 1.35-.93l.66 1.02q-1.56 1.2-2.67 1.71-1.11.51-2.79.51-2.88 0-4.02-1.44-1.14-1.44-1.14-3.9-1.8 3-4.14 4.17t-5.28 1.17zm2.64-2.4q3.96 0 6.78-4.56V38.7q-.54.84-1.5 1.38-.96.54-2.94 1.44-2.28.96-3.69 1.83-1.41.87-2.43 2.37-1.02 1.5-1.02 3.84 0 2.7 1.32 4.08t3.48 1.38zm42.18-28.74q2.64 0 4.56-.18v1.2q-1.2.12-2.13 1.08-.93.96-1.77 3.12l-9.84 25.8-2.04 5.22q-1.14 2.94-2.58 4.2-.9.84-2.16 1.2-1.26.36-2.52.36-1.8 0-2.94-.96t-1.14-2.64q0-1.44.84-2.31.84-.87 2.34-.87 1.32 0 2.19.75.87.75.87 2.07 0 1.8-1.62 2.7.12.06.36.06 3.3 0 5.1-4.68l2.1-5.46-10.86-26.22q-1.02-2.04-2.04-2.7-1.02-.66-2.04-.66V26.1q2.58.36 5.88.36 3 0 7.8-.36v1.26q-2.16 0-3.15.36-.99.36-.99 1.74 0 1.26.72 2.94l7.2 17.88 6.66-17.34q.66-1.8.66-2.76 0-1.38-1.08-2.04-1.08-.66-3.42-.84v-1.2q3.18.18 5.04.18zm21.3-16.2q3.12 0 5.22 1.62 1.86 1.5 1.86 3.72 0 1.38-.9 2.28-.9.9-2.28.9t-2.34-.87q-.96-.87-.96-2.37 0-1.26.69-2.04t1.83-1.02q-.18-.6-.96-.96t-1.98-.36q-1.32 0-2.34.6-1.02.6-1.56 1.62-.66 1.2-.87 3.54-.21 2.34-.21 7.86v1.56h6.42v1.2h-6.42v23.46q0 2.76 1.59 3.84t4.77 1.08V57l-1.44-.06q-6.12-.18-7.8-.18-1.56 0-7.08.24v-1.26q2.52 0 3.54-.93t1.02-3.39V27.36h-4.8v-1.2h4.8q0-5.28.66-8.16t2.4-4.92q1.2-1.38 3.06-2.19t4.08-.81zm13.14 47.34q-3.78 0-5.61-1.89-1.83-1.89-1.83-5.25 0-2.7 1.47-4.44 1.47-1.74 3.48-2.76 2.01-1.02 5.31-2.16 3.36-1.14 4.98-2.1 1.62-.96 1.62-2.58v-3.72q0-3.48-1.47-4.77-1.47-1.29-4.11-1.29-4.2 0-5.94 2.16 1.2.3 2.01 1.26.81.96.81 2.4 0 1.5-.96 2.37-.96.87-2.46.87-1.68 0-2.52-1.05-.84-1.05-.84-2.55 0-1.44.69-2.4t2.07-1.92q1.44-1.02 3.66-1.68 2.22-.66 4.86-.66 4.68 0 7.08 2.22 1.5 1.38 2.01 3.33.51 1.95.51 5.13v16.68q0 1.5.42 2.16.42.66 1.44.66.72 0 1.35-.33.63-.33 1.35-.93l.66 1.02q-1.56 1.2-2.67 1.71-1.11.51-2.79.51-2.88 0-4.02-1.44-1.14-1.44-1.14-3.9-1.8 3-4.14 4.17t-5.28 1.17zm2.64-2.4q3.96 0 6.78-4.56V38.7q-.54.84-1.5 1.38-.96.54-2.94 1.44-2.28.96-3.69 1.83-1.41.87-2.43 2.37-1.02 1.5-1.02 3.84 0 2.7 1.32 4.08t3.48 1.38zm26.04-43.92q1.56 0 2.7 1.14 1.14 1.14 1.14 2.7 0 1.56-1.14 2.7-1.14 1.14-2.7 1.14-1.56 0-2.7-1.14-1.14-1.14-1.14-2.7 0-1.56 1.14-2.7 1.14-1.14 2.7-1.14zm3.12 14.34v25.98q0 2.46 1.02 3.39 1.02.93 3.54.93V57q-5.52-.24-7.26-.24-1.74 0-7.26.24v-1.26q2.52 0 3.54-.93t1.02-3.39V32.64q0-2.76-1.02-4.02-1.02-1.26-3.54-1.26V26.1q1.92.18 3.72.18 3.78 0 6.24-.84zm26.28-.18q2.4 0 3.93 1.38 1.53 1.38 1.53 3.36 0 1.56-.93 2.67-.93 1.11-2.49 1.11-1.32 0-2.25-.84-.93-.84-.93-2.28 0-1.98 2.04-3.24-.42-.6-1.26-.6-2.34 0-4.26 1.83t-3 4.47q-1.08 2.64-1.08 4.98v12.72q0 2.76 1.59 3.84t4.77 1.08V57l-1.44-.06q-6.12-.18-7.8-.18-1.56 0-7.08.24v-1.26q2.52 0 3.54-.93t1.02-3.39V32.64q0-2.76-1.02-4.02-1.02-1.26-3.54-1.26V26.1q1.92.18 3.72.18 3.78 0 6.24-.84v7.5q1.08-3 3.45-5.34t5.25-2.34zm38.88-10.74q10.62 0 15.9 5.31 5.28 5.31 5.28 15.45 0 6.54-2.58 11.46-2.58 4.92-7.47 7.59T250.18 57l-3.48-.06q-3.36-.12-4.92-.12-4.92 0-7.44.18v-1.2q2.16-.12 3.15-.48.99-.36 1.35-1.38.36-1.02.36-3.3V20.88q0-2.28-.36-3.3t-1.35-1.38q-.99-.36-3.15-.48v-1.2q2.1.18 5.82.18l5.1-.06q4.08-.12 5.46-.12zm-1.5 1.08q-1.86 0-2.79.42-.93.42-1.29 1.5t-.36 3.24v30q0 2.16.36 3.24t1.29 1.5q.93.42 2.85.42 6.36 0 10.02-2.31 3.66-2.31 5.13-6.75 1.47-4.44 1.47-11.34 0-6.9-1.62-11.25t-5.25-6.51q-3.63-2.16-9.81-2.16zm34.56-4.5q1.56 0 2.7 1.14 1.14 1.14 1.14 2.7 0 1.56-1.14 2.7-1.14 1.14-2.7 1.14-1.56 0-2.7-1.14-1.14-1.14-1.14-2.7 0-1.56 1.14-2.7 1.14-1.14 2.7-1.14zm3.12 14.34v25.98q0 2.46 1.02 3.39 1.02.93 3.54.93V57q-5.52-.24-7.26-.24-1.74 0-7.26.24v-1.26q2.52 0 3.54-.93t1.02-3.39V32.64q0-2.76-1.02-4.02-1.02-1.26-3.54-1.26V26.1q1.92.18 3.72.18 3.78 0 6.24-.84zm18.36-.18q2.16 0 3.84.66 1.68.66 2.7 1.56.66.48 1.08.48 1.08 0 1.32-2.64h1.38q-.24 2.94-.24 10.2h-1.38q-.66-3.96-2.55-6.54-1.89-2.58-5.61-2.58-2.16 0-3.54 1.23t-1.38 3.39q0 2.1 1.44 3.51 1.44 1.41 4.62 3.39.54.3 1.62 1.02 2.76 1.8 4.44 3.18 1.68 1.38 2.73 3.18 1.05 1.8 1.05 4.14 0 3.96-2.97 6.18-2.97 2.22-7.29 2.22-2.7 0-4.74-.84-1.32-.66-2.46-1.62-.24-.24-.54-.24-.42 0-.75.6t-.51 1.68h-1.38q.24-3.42.24-12h1.38q.66 5.64 2.4 8.43 1.74 2.79 5.94 2.79 2.1 0 3.72-1.38t1.62-4.32q0-2.34-1.59-3.96t-5.19-3.9q-2.94-1.86-4.53-3.06-1.59-1.2-2.67-2.94-1.08-1.74-1.08-4.08 0-3.78 2.52-5.76t6.36-1.98zm35.22 0q3.18 0 5.73 1.74 2.55 1.74 3.99 5.1 1.44 3.36 1.44 8.04 0 4.62-1.47 8.64-1.47 4.02-4.56 6.54-3.09 2.52-7.71 2.52-2.28 0-4.14-.9-1.86-.9-2.88-2.34v7.68q0 2.46 1.44 3.39 1.44.93 4.32.93v1.26l-1.38-.06q-5.58-.18-7.26-.18-1.44 0-6.48.24V66.6q2.22 0 3.09-.81.87-.81.87-2.91V32.64q0-2.76-1.02-4.02-1.02-1.26-3.54-1.26V26.1q1.86.18 3.72.18 3.78 0 6.24-.84v6.36q1.32-3.12 3.84-4.83 2.52-1.71 5.76-1.71zm-3.24 31.2q8.58 0 8.58-15.48 0-13.92-6.96-13.92-2.7 0-4.86 1.95t-3.12 5.61v18q.84 1.74 2.46 2.79t3.9 1.05zm28.5-46.5v41.46q0 2.46 1.02 3.39 1.02.93 3.54.93V57q-5.52-.24-7.26-.24-1.74 0-7.26.24v-1.26q2.52 0 3.54-.93t1.02-3.39V17.16q0-2.76-1.02-4.02-1.02-1.26-3.54-1.26v-1.26q1.86.18 3.72.18 3.78 0 6.24-.84zm15.66 47.46q-3.78 0-5.61-1.89-1.83-1.89-1.83-5.25 0-2.7 1.47-4.44 1.47-1.74 3.48-2.76 2.01-1.02 5.31-2.16 3.36-1.14 4.98-2.1 1.62-.96 1.62-2.58v-3.72q0-3.48-1.47-4.77-1.47-1.29-4.11-1.29-4.2 0-5.94 2.16 1.2.3 2.01 1.26.81.96.81 2.4 0 1.5-.96 2.37-.96.87-2.46.87-1.68 0-2.52-1.05-.84-1.05-.84-2.55 0-1.44.69-2.4t2.07-1.92q1.44-1.02 3.66-1.68 2.22-.66 4.86-.66 4.68 0 7.08 2.22 1.5 1.38 2.01 3.33.51 1.95.51 5.13v16.68q0 1.5.42 2.16.42.66 1.44.66.72 0 1.35-.33.63-.33 1.35-.93l.66 1.02q-1.56 1.2-2.67 1.71-1.11.51-2.79.51-2.88 0-4.02-1.44-1.14-1.44-1.14-3.9-1.8 3-4.14 4.17t-5.28 1.17zm2.64-2.4q3.96 0 6.78-4.56V38.7q-.54.84-1.5 1.38-.96.54-2.94 1.44-2.28.96-3.69 1.83-1.41.87-2.43 2.37-1.02 1.5-1.02 3.84 0 2.7 1.32 4.08t3.48 1.38zm42.18-28.74q2.64 0 4.56-.18v1.2q-1.2.12-2.13 1.08-.93.96-1.77 3.12l-9.84 25.8-2.04 5.22q-1.14 2.94-2.58 4.2-.9.84-2.16 1.2-1.26.36-2.52.36-1.8 0-2.94-.96t-1.14-2.64q0-1.44.84-2.31.84-.87 2.34-.87 1.32 0 2.19.75.87.75.87 2.07 0 1.8-1.62 2.7.12.06.36.06 3.3 0 5.1-4.68l2.1-5.46-10.86-26.22q-1.02-2.04-2.04-2.7-1.02-.66-2.04-.66V26.1q2.58.36 5.88.36 3 0 7.8-.36v1.26q-2.16 0-3.15.36-.99.36-.99 1.74 0 1.26.72 2.94l7.2 17.88 6.66-17.34q.66-1.8.66-2.76 0-1.38-1.08-2.04-1.08-.66-3.42-.84v-1.2q3.18.18 5.04.18zm57.24 27.06l.9.66q-1.38 2.04-2.76 2.94-1.38.9-3.66.9-2.46 0-4.05-1.44-1.59-1.44-2.37-5.04l-1.32-6q-.72-3.12-1.35-4.8-.63-1.68-1.89-2.7-1.26-1.02-3.54-1.02h-5.7v13.8q0 2.28.36 3.3t1.35 1.38q.99.36 3.15.48V57q-2.76-.18-7.62-.18-5.16 0-7.68.18v-1.2q2.16-.12 3.15-.48.99-.36 1.35-1.38.36-1.02.36-3.3V20.88q0-2.28-.36-3.3t-1.35-1.38q-.99-.36-3.15-.48v-1.2q2.52.18 7.32.18l6.48-.06q1.14-.06 2.58-.06 6.96 0 10.71 2.91 3.75 2.91 3.75 7.53 0 2.34-1.11 4.71t-3.72 4.26q-2.61 1.89-6.81 2.55l.72.12q3.96.66 5.76 2.4 1.8 1.74 2.64 5.52l1.5 6.12q.6 2.76 1.26 3.84t1.8 1.08q1.02 0 1.71-.54t1.59-1.74zm-21.3-37.62q-1.86 0-2.79.42-.93.42-1.29 1.5t-.36 3.24v14.76h4.02q5.94 0 8.16-2.64 2.22-2.64 2.22-7.32 0-4.92-2.34-7.44-2.34-2.52-7.62-2.52zm48.06 33.6l1.2.48q-1.08 3.3-4.05 5.67-2.97 2.37-7.17 2.37-4.26 0-7.38-1.95t-4.77-5.46q-1.65-3.51-1.65-8.13 0-5.22 1.68-9.06 1.68-3.84 4.74-5.91 3.06-2.07 7.14-2.07 5.4 0 8.31 3.27t2.91 9.93H492.4q-.18 1.68-.18 3.84 0 3.96 1.29 6.9 1.29 2.94 3.42 4.53 2.13 1.59 4.47 1.59 2.88 0 5.1-1.38 2.22-1.38 3.72-4.62zm-10.5-22.92q-2.82 0-4.86 2.76-2.04 2.76-2.52 8.16h13.08q.12-4.68-1.35-7.8-1.47-3.12-4.35-3.12zm42.54 5.1q-1.08 0-1.83-.72t-.75-2.1q0-1.2.6-2.76-1.56.66-2.46 1.47-.9.81-1.62 2.01 1.38 2.1 1.38 5.34 0 4.74-2.88 7.11t-7.62 2.37h-.06q-1.98 1.14-3 2.1-1.02.96-1.02 2.16 0 1.92 2.88 1.92h7.5q4.08 0 6.75 1.77t2.67 5.31q0 2.88-1.86 5.34t-5.46 3.96q-3.6 1.5-8.7 1.5-5.22 0-8.73-1.59-3.51-1.59-3.51-4.71 0-2.04 1.65-3.54t4.59-2.34l.36.96q-1.32.42-2.1 1.68t-.78 2.82q0 2.76 2.49 4.23 2.49 1.47 6.69 1.47 4.62 0 7.92-1.77t3.3-5.49q0-2.16-1.53-3.36-1.53-1.2-5.43-1.2h-4.44q-3.54 0-5.67-.9t-2.13-3.6q0-1.86 1.35-3.54t4.47-3.3q-3.96-.42-6.33-2.76t-2.37-6.6q0-4.74 2.88-7.11t7.62-2.37q5.64 0 8.34 3.12 1.14-1.62 2.88-2.67 1.74-1.05 3.48-1.05 1.56 0 2.52.9t.96 2.58q0 1.68-.93 2.52-.93.84-2.07.84zm-15.18 11.64q2.4 0 3.63-1.89t1.23-6.51q0-4.62-1.23-6.51-1.23-1.89-3.63-1.89t-3.63 1.89q-1.23 1.89-1.23 6.51t1.23 6.51q1.23 1.89 3.63 1.89zm47.58-17.7v25.08q0 2.76 1.02 4.02 1.02 1.26 3.54 1.26v1.26q-1.86-.18-3.72-.18-3.78 0-6.24.84v-7.08q-1.44 3.72-4.08 5.46-2.64 1.74-5.76 1.74-4.08 0-6.24-2.28-1.08-1.2-1.53-3.06-.45-1.86-.45-4.8V32.64q0-2.76-1.02-4.02-1.02-1.26-3.54-1.26V26.1q1.86.18 3.72.18 3.78 0 6.24-.84v23.58q0 2.28.27 3.69.27 1.41 1.26 2.31.99.9 3.03.9 2.28 0 4.14-1.44 1.86-1.44 2.91-3.93t1.05-5.49V32.64q0-2.76-1.02-4.02-1.02-1.26-3.54-1.26V26.1q1.86.18 3.72.18 3.78 0 6.24-.84zm17.16-15.48v41.46q0 2.46 1.02 3.39 1.02.93 3.54.93V57q-5.52-.24-7.26-.24-1.74 0-7.26.24v-1.26q2.52 0 3.54-.93t1.02-3.39V17.16q0-2.76-1.02-4.02-1.02-1.26-3.54-1.26v-1.26q1.86.18 3.72.18 3.78 0 6.24-.84zm15.66 47.46q-3.78 0-5.61-1.89-1.83-1.89-1.83-5.25 0-2.7 1.47-4.44 1.47-1.74 3.48-2.76 2.01-1.02 5.31-2.16 3.36-1.14 4.98-2.1 1.62-.96 1.62-2.58v-3.72q0-3.48-1.47-4.77-1.47-1.29-4.11-1.29-4.2 0-5.94 2.16 1.2.3 2.01 1.26.81.96.81 2.4 0 1.5-.96 2.37-.96.87-2.46.87-1.68 0-2.52-1.05-.84-1.05-.84-2.55 0-1.44.69-2.4t2.07-1.92q1.44-1.02 3.66-1.68 2.22-.66 4.86-.66 4.68 0 7.08 2.22 1.5 1.38 2.01 3.33.51 1.95.51 5.13v16.68q0 1.5.42 2.16.42.66 1.44.66.72 0 1.35-.33.63-.33 1.35-.93l.66 1.02q-1.56 1.2-2.67 1.71-1.11.51-2.79.51-2.88 0-4.02-1.44-1.14-1.44-1.14-3.9-1.8 3-4.14 4.17t-5.28 1.17zm2.64-2.4q3.96 0 6.78-4.56V38.7q-.54.84-1.5 1.38-.96.54-2.94 1.44-2.28.96-3.69 1.83-1.41.87-2.43 2.37-1.02 1.5-1.02 3.84 0 2.7 1.32 4.08t3.48 1.38zm37.86-29.76q2.4 0 3.93 1.38 1.53 1.38 1.53 3.36 0 1.56-.93 2.67-.93 1.11-2.49 1.11-1.32 0-2.25-.84-.93-.84-.93-2.28 0-1.98 2.04-3.24-.42-.6-1.26-.6-2.34 0-4.26 1.83t-3 4.47q-1.08 2.64-1.08 4.98v12.72q0 2.76 1.59 3.84t4.77 1.08V57l-1.44-.06q-6.12-.18-7.8-.18-1.56 0-7.08.24v-1.26q2.52 0 3.54-.93t1.02-3.39V32.64q0-2.76-1.02-4.02-1.02-1.26-3.54-1.26V26.1q1.92.18 3.72.18 3.78 0 6.24-.84v7.5q1.08-3 3.45-5.34t5.25-2.34z"/></svg>