<svg viewBox="0 0 594 80" xmlns="http://www.w3.org/2000/svg"><path d="M42.26 15.58q5.88 0 8.91 2.43 3.03 2.43 3.03 6.63 0 4.68-2.85 8.4-2.85 3.72-8.01 5.82t-11.76 2.1h-1.8l-2.82 10.68q-.12.42-.36 1.41t-.24 1.59q0 1.14.9 1.62.9.48 3.24.54l-.24 1.2q-2.76-.18-7.44-.18-5.28 0-7.8.18l.24-1.2q2.16-.12 3.24-.48t1.71-1.38q.63-1.02 1.23-3.3l7.92-29.76q.54-2.16.54-2.88 0-1.2-.9-1.71t-3.18-.57l.3-1.2q2.4.18 7.38.18 2.88 0 4.32-.06l4.44-.06zM32.18 39.76q8.4 0 12.18-4.38 3.78-4.38 3.78-11.7 0-3.54-1.8-5.25t-5.82-1.71q-1.8 0-2.82.45-1.02.45-1.65 1.53-.63 1.08-1.17 3.18l-4.74 17.88h2.04zM58.46 52.9q-.36 1.26-.36 2.1 0 1.62 1.38 1.62 1.2 0 2.25-1.38t2.25-4.74l.78-2.22h1.14l-1.5 4.38q-2.1 6.18-7.2 6.18-4.14 0-4.14-3.9 0-1.5.84-4.5l9.78-32.46q.3-1.08.3-1.68 0-1.2-.93-1.74t-3.15-.54l.42-1.26q3.18-.06 5.73-.66 2.55-.6 4.95-1.8L58.46 52.9zm37.08-2.46l.72-2.22h1.14l-1.5 4.38q-1.2 3.3-3.06 4.77-1.86 1.47-3.84 1.47-1.14 0-1.98-.42-.84-.42-1.32-1.14-.54-.9-.54-2.1 0-1.26.42-2.82.42-1.56.54-1.98l1.08-4.32q-2.88 6.72-5.85 9.75-2.97 3.03-6.21 3.03-2.76 0-4.2-1.98-1.44-1.98-1.44-5.28 0-4.86 2.58-10.86 2.58-6 6.72-10.2 4.14-4.2 8.4-4.2 1.62 0 2.64 1.2t1.2 3.36l.96-3.72q3.3-.12 5.52-.84l-7.5 26.52q-.06.24-.24.93-.18.69-.18 1.29 0 1.5 1.32 1.5 2.64 0 4.62-6.12zm-18.66 6.48q1.68 0 4.02-2.58t4.59-6.87q2.25-4.29 3.69-9.15l1.08-4.26q.06-.48.06-1.32 0-2.46-.87-3.87-.87-1.41-2.43-1.41-2.58 0-5.46 3.99t-4.83 9.84q-1.95 5.85-1.95 11.01 0 2.46.54 3.54t1.56 1.08zm47.82-30.6q3.12 0 3.12 4.86 0 5.7-3.54 13.2-3.54 7.5-8.28 13.44-5.58 6.96-11.82 9.96-3.18 1.5-5.22 1.5-1.26 0-2.13-.66-.87-.66-.87-1.8 0-1.26.96-1.98t2.28-.72q1.26 0 2.43.63 1.17.63 2.55 1.71 4.68-2.52 9-7.2l-4.44-26.88q-.3-1.86-.72-2.58t-1.2-.72q-.78 0-1.59 1.17t-1.95 4.35l-.78 2.22h-1.14l1.5-4.38q2.1-6.12 6.9-6.12 1.92 0 2.91 1.2.99 1.2 1.41 4.32l3.06 22.56q3.3-4.56 5.7-9.57 2.4-5.01 3.36-9.93-1.8-.96-3.18-2.37-1.38-1.41-1.38-3.15 0-1.38.87-2.22.87-.84 2.19-.84zm27.9-15.24q2.64 0 4.17 1.2 1.53 1.2 1.53 3.06 0 1.56-1.17 2.85t-2.85 1.29q-1.14 0-1.8-.54-.66-.54-.6-1.5 0-1.44.93-2.49.93-1.05 2.49-1.53 0-.54-.81-.99-.81-.45-1.95-.45-1.8 0-3.48 1.56-1.26 1.14-2.1 3.63-.84 2.49-2.1 7.35l-.66 2.58v.06h7.08l-.36 1.2h-7.08L133.1 68.44q-3.24.12-5.4.84l10.92-40.92h-5.4l.36-1.2h5.4v-.06q1.32-4.92 2.73-8.01t3.39-5.01q1.38-1.38 3.39-2.19 2.01-.81 4.11-.81zm22.44 39.36l.72-2.22h1.14l-1.5 4.38q-1.2 3.3-3.06 4.77-1.86 1.47-3.84 1.47-1.14 0-1.98-.42-.84-.42-1.32-1.14-.54-.9-.54-2.1 0-1.26.42-2.82.42-1.56.54-1.98l1.08-4.32q-2.88 6.72-5.85 9.75-2.97 3.03-6.21 3.03-2.76 0-4.2-1.98-1.44-1.98-1.44-5.28 0-4.86 2.58-10.86 2.58-6 6.72-10.2 4.14-4.2 8.4-4.2 1.62 0 2.64 1.2t1.2 3.36l.96-3.72q3.3-.12 5.52-.84l-7.5 26.52q-.06.24-.24.93-.18.69-.18 1.29 0 1.5 1.32 1.5 2.64 0 4.62-6.12zm-18.66 6.48q1.68 0 4.02-2.58t4.59-6.87q2.25-4.29 3.69-9.15l1.08-4.26q.06-.48.06-1.32 0-2.46-.87-3.87-.87-1.41-2.43-1.41-2.58 0-5.46 3.99t-4.83 9.84q-1.95 5.85-1.95 11.01 0 2.46.54 3.54t1.56 1.08zm34.74-39.9q0-1.8 1.35-3.21t3.09-1.41q1.38 0 2.22.9.84.9.84 2.22 0 1.8-1.38 3.18-1.38 1.38-3.12 1.38-1.32 0-2.16-.87-.84-.87-.84-2.19zm-1.8 15.24q.48-1.44.48-2.22 0-1.5-1.32-1.5-1.38 0-2.46 1.44t-2.28 4.68l-.84 2.22h-1.14l1.56-4.38q1.2-3.42 3.21-4.8t4.23-1.38q3.96 0 3.96 3.78 0 1.98-.96 4.62l-6.42 18.18q-.48 1.44-.48 2.22 0 1.5 1.44 1.5 1.26 0 2.34-1.38 1.08-1.38 2.34-4.74l.84-2.22h1.14l-1.56 4.38q-1.2 3.3-3.15 4.74-1.95 1.44-4.23 1.44-4.2 0-4.2-3.66 0-1.74 1.08-4.74l6.42-18.18zm32.34-5.94q1.62 0 2.58.96t.96 2.46q0 1.8-1.26 3.06T221 34.06q-1.08 0-1.74-.57-.66-.57-.66-1.59 0-1.38.72-2.34t1.98-1.5q-.24-.24-.66-.24-3.24 0-7.05 6.99-3.81 6.99-7.17 18.45l-1.2 4.74H200l7.2-25.74q.42-1.32.42-2.34 0-1.38-1.26-1.38-1.32 0-2.43 1.41t-2.25 4.71l-.78 2.22h-1.14l1.5-4.38q2.16-6.18 7.26-6.18 3.42 0 3.42 3.48 0 1.68-.84 4.92l-1.92 7.56q3.24-8.7 6.09-12.33 2.85-3.63 6.39-3.63zm59.28 2.46q0 7.5-3.72 14.25t-10.23 10.86Q260.48 58 252.5 58l-3.48-.06q-3.36-.12-4.92-.12-4.86 0-7.2.18l.18-1.2q2.04-.12 3.09-.48 1.05-.36 1.68-1.41.63-1.05 1.23-3.27l7.86-29.76q.54-2.28.54-2.94 0-1.2-.87-1.68t-3.15-.54l.18-1.2q2.04.18 5.82.18l5.1-.06q4.08-.12 5.46-.12 8.46 0 12.69 3.36 4.23 3.36 4.23 9.9zm-29.16 28.14q7.44 0 12.72-4.05t7.98-10.83q2.7-6.78 2.7-14.76 0-5.46-3.06-8.07-3.06-2.61-9.78-2.61-1.86 0-2.91.42t-1.71 1.5q-.66 1.08-1.2 3.24l-7.86 30q-.54 2.16-.54 2.94 0 1.14.81 1.68t2.85.54zm41.7-39.9q0-1.8 1.35-3.21t3.09-1.41q1.38 0 2.22.9.84.9.84 2.22 0 1.8-1.38 3.18-1.38 1.38-3.12 1.38-1.32 0-2.16-.87-.84-.87-.84-2.19zm-1.8 15.24q.48-1.44.48-2.22 0-1.5-1.32-1.5-1.38 0-2.46 1.44t-2.28 4.68l-.84 2.22h-1.14l1.56-4.38q1.2-3.42 3.21-4.8t4.23-1.38q3.96 0 3.96 3.78 0 1.98-.96 4.62L289.7 52.9q-.48 1.44-.48 2.22 0 1.5 1.44 1.5 1.26 0 2.34-1.38 1.08-1.38 2.34-4.74l.84-2.22h1.14l-1.56 4.38q-1.2 3.3-3.15 4.74-1.95 1.44-4.23 1.44-4.2 0-4.2-3.66 0-1.74 1.08-4.74l6.42-18.18zm12.18 24.84q.6.3 1.17.42t1.59.12q2.7 0 4.38-1.62 1.68-1.62 1.68-4.56 0-1.92-.72-3.75t-2.4-4.17q-2.04-2.76-2.97-4.53-.93-1.77-.93-4.17 0-2.46 1.26-4.41 1.26-1.95 3.39-3.03 2.13-1.08 4.65-1.08 3.12 0 5.22 1.17 2.1 1.17 2.1 4.05 0 1.08-.69 2.1t-2.07 1.02q-1.02 0-1.71-.72t-.69-1.8q0-1.92 1.68-4.02-1.14-.72-3-.72-2.28 0-3.75 1.53-1.47 1.53-1.47 4.17 0 1.56.54 2.67.54 1.11 1.98 3.27l1.08 1.56q1.8 2.76 2.67 4.74.87 1.98.87 4.08 0 2.7-1.41 4.86t-3.78 3.36q-2.37 1.2-5.13 1.2-3.42 0-5.76-1.47t-2.34-4.47q0-1.02.57-1.86.57-.84 1.77-.84 1.32 0 1.98 1.08.66 1.08.66 2.7 0 1.02-.42 3.12zm43.86-30.78q2.94 0 4.59 2.13t1.65 6.33q0 4.86-2.16 10.53-2.16 5.67-6.18 9.6-4.02 3.93-9.24 3.93-1.62 0-2.94-.93-1.32-.93-1.92-2.55l-2.28 7.92q-.24.72-.24 1.44 0 1.56 1.32 2.22 1.32.66 3.78.66l-.36 1.26-1.26-.06q-5.22-.18-6.78-.18-1.62 0-6.66.24l.36-1.26q2.16 0 3.12-.78t1.56-2.94l11.22-40.02q-1.8 4.02-4.2 7.08-2.4 3.06-5.94 6.42l-.66-.78q2.82-2.76 4.71-4.92 1.89-2.16 3.78-5.25t3.75-7.59l.24-.84q3.24-.12 5.46-.84l-6.24 21.84q2.82-6.66 5.61-9.66 2.79-3 5.91-3zm-11.4 31.14q3.18 0 6.06-3.99 2.88-3.99 4.65-9.69 1.77-5.7 1.77-10.32 0-2.58-.75-3.9-.75-1.32-2.07-1.32-1.68 0-3.93 2.73t-4.53 7.35q-2.28 4.62-4.02 10.08l-1.56 5.46q.72 1.92 1.8 2.76 1.08.84 2.58.84zm26.04-4.56Q362 54.16 362 55q0 1.62 1.38 1.62 1.2 0 2.25-1.38t2.25-4.74l.78-2.22h1.14l-1.5 4.38q-2.1 6.18-7.2 6.18-4.14 0-4.14-3.9 0-1.5.84-4.5l9.78-32.46q.3-1.08.3-1.68 0-1.2-.93-1.74t-3.15-.54l.42-1.26q3.18-.06 5.73-.66 2.55-.6 4.95-1.8l-12.54 42.6zm37.08-2.46l.72-2.22h1.14l-1.5 4.38q-1.2 3.3-3.06 4.77-1.86 1.47-3.84 1.47-1.14 0-1.98-.42-.84-.42-1.32-1.14-.54-.9-.54-2.1 0-1.26.42-2.82.42-1.56.54-1.98l1.08-4.32q-2.88 6.72-5.85 9.75-2.97 3.03-6.21 3.03-2.76 0-4.2-1.98-1.44-1.98-1.44-5.28 0-4.86 2.58-10.86 2.58-6 6.72-10.2 4.14-4.2 8.4-4.2 1.62 0 2.64 1.2t1.2 3.36l.96-3.72q3.3-.12 5.52-.84l-7.5 26.52q-.06.24-.24.93-.18.69-.18 1.29 0 1.5 1.32 1.5 2.64 0 4.62-6.12zm-18.66 6.48q1.68 0 4.02-2.58t4.59-6.87q2.25-4.29 3.69-9.15l1.08-4.26q.06-.48.06-1.32 0-2.46-.87-3.87-.87-1.41-2.43-1.41-2.58 0-5.46 3.99t-4.83 9.84q-1.95 5.85-1.95 11.01 0 2.46.54 3.54t1.56 1.08zm47.82-30.6q3.12 0 3.12 4.86 0 5.7-3.54 13.2-3.54 7.5-8.28 13.44-5.58 6.96-11.82 9.96-3.18 1.5-5.22 1.5-1.26 0-2.13-.66-.87-.66-.87-1.8 0-1.26.96-1.98t2.28-.72q1.26 0 2.43.63 1.17.63 2.55 1.71 4.68-2.52 9-7.2l-4.44-26.88q-.3-1.86-.72-2.58t-1.2-.72q-.78 0-1.59 1.17t-1.95 4.35l-.78 2.22h-1.14l1.5-4.38q2.1-6.12 6.9-6.12 1.92 0 2.91 1.2.99 1.2 1.41 4.32l3.06 22.56q3.3-4.56 5.7-9.57 2.4-5.01 3.36-9.93-1.8-.96-3.18-2.37-1.38-1.41-1.38-3.15 0-1.38.87-2.22.87-.84 2.19-.84zm29.64 25.32q-.54 2.28-.54 2.94 0 1.26.87 1.68.87.42 3.21.54l-.24 1.2q-2.76-.18-7.62-.18-5.04 0-7.62.18l.3-1.2q2.1-.12 3.15-.48 1.05-.36 1.68-1.41.63-1.05 1.23-3.27l7.92-29.76q.48-2.04.48-2.88 0-1.32-.87-1.74-.87-.42-3.15-.54l.3-1.2q2.46.18 7.62.18 4.8 0 7.68-.18l-.3 1.2q-2.22.12-3.27.48-1.05.36-1.68 1.38-.63 1.02-1.23 3.3l-7.92 29.76zm24.18-23.28l-6.96 24.54q-.18.72-.18 1.32 0 1.2.72 1.8.72.6 1.86.6 1.5 0 2.79-1.29t2.55-4.71l.84-2.34h1.14l-1.26 3.78q-1.26 3.72-3.27 5.25-2.01 1.53-4.95 1.53-2.7 0-4.02-1.32-1.32-1.32-1.32-3.66 0-1.56.54-3.42l6.36-22.08h-5.4l.3-1.2h5.4l2.64-9.12q3.24-.12 5.4-.84l-2.82 9.96h7.92l-.18 1.2h-8.1zm32.52 22.08l.72-2.22h1.14l-1.5 4.38q-1.2 3.3-3.06 4.77-1.86 1.47-3.84 1.47-1.14 0-1.98-.42-.84-.42-1.32-1.14-.54-.9-.54-2.1 0-1.26.42-2.82.42-1.56.54-1.98l1.08-4.32q-2.88 6.72-5.85 9.75-2.97 3.03-6.21 3.03-2.76 0-4.2-1.98-1.44-1.98-1.44-5.28 0-4.86 2.58-10.86 2.58-6 6.72-10.2 4.14-4.2 8.4-4.2 1.62 0 2.64 1.2t1.2 3.36l.96-3.72q3.3-.12 5.52-.84l-7.5 26.52q-.06.24-.24.93-.18.69-.18 1.29 0 1.5 1.32 1.5 2.64 0 4.62-6.12zm-18.66 6.48q1.68 0 4.02-2.58t4.59-6.87q2.25-4.29 3.69-9.15l1.08-4.26q.06-.48.06-1.32 0-2.46-.87-3.87-.87-1.41-2.43-1.41-2.58 0-5.46 3.99t-4.83 9.84q-1.95 5.85-1.95 11.01 0 2.46.54 3.54t1.56 1.08zm29.58-4.02q-.36 1.26-.36 2.1 0 1.62 1.38 1.62 1.2 0 2.25-1.38t2.25-4.74l.78-2.22h1.14l-1.5 4.38q-2.1 6.18-7.2 6.18-4.14 0-4.14-3.9 0-1.5.84-4.5l9.78-32.46q.3-1.08.3-1.68 0-1.2-.93-1.74t-3.15-.54l.42-1.26q3.18-.06 5.73-.66 2.55-.6 4.95-1.8l-12.54 42.6zm21.78-35.88q0-1.8 1.35-3.21t3.09-1.41q1.38 0 2.22.9.84.9.84 2.22 0 1.8-1.38 3.18-1.38 1.38-3.12 1.38-1.32 0-2.16-.87-.84-.87-.84-2.19zm-1.8 15.24q.48-1.44.48-2.22 0-1.5-1.32-1.5-1.38 0-2.46 1.44t-2.28 4.68l-.84 2.22h-1.14l1.56-4.38q1.2-3.42 3.21-4.8t4.23-1.38q3.96 0 3.96 3.78 0 1.98-.96 4.62l-6.42 18.18q-.48 1.44-.48 2.22 0 1.5 1.44 1.5 1.26 0 2.34-1.38 1.08-1.38 2.34-4.74l.84-2.22h1.14l-1.56 4.38q-1.2 3.3-3.15 4.74-1.95 1.44-4.23 1.44-4.2 0-4.2-3.66 0-1.74 1.08-4.74l6.42-18.18zm28.02-4.74q-3 0-5.97 3.24-2.97 3.24-4.86 8.58-1.89 5.34-1.89 11.22 0 2.94 1.11 4.35 1.11 1.41 3.09 1.41 4.92 0 9-6l1.2.48q-1.92 3.3-5.19 5.67-3.27 2.37-6.87 2.37-3.66 0-5.79-2.25t-2.13-6.57q0-4.86 2.28-10.44 2.28-5.58 6.42-9.42 4.14-3.84 9.42-3.84 2.76 0 4.62 1.38 1.86 1.38 1.86 3.72 0 1.86-1.2 3.33t-3.06 1.47q-1.2 0-1.83-.66-.63-.66-.63-1.68 0-1.68 1.32-2.91 1.32-1.23 3.18-1.59-1.26-1.86-4.08-1.86z"/></svg>