<svg viewBox="0 0 756 80" xmlns="http://www.w3.org/2000/svg"><path d="M34.2 40.96l-2.82 10.68q-.42 1.44-.42 2.64 0 1.26.87 1.86.87.6 3.09.66l-.24 1.2q-3.6-.18-9.24-.18-6.78 0-9.96.18l.24-1.2q2.16-.12 3.24-.48t1.71-1.38q.63-1.02 1.23-3.3l7.92-29.76q.42-1.98.42-2.82 0-1.2-.87-1.74t-3.09-.6l.3-1.2q3.06.18 9.54.18 2.88 0 4.32-.06l4.44-.06q14.1 0 14.1 9.06 0 4.68-3.12 8.4-3.12 3.72-8.76 5.82t-12.9 2.1zm5.1-19.08l-4.74 17.88h.24q4.98 0 8.16-2.4 3.18-2.4 4.59-6.15 1.41-3.75 1.41-7.95 0-3.3-1.38-4.92t-4.44-1.62q-1.26 0-1.86.42-.6.42-.99 1.38t-.99 3.36zM65.1 52.9q-.24.78-.24 1.5 0 1.5 1.26 1.5 1.86 0 3.6-4.74l1.08-2.88h1.14l-1.5 4.38q-1.14 3.36-3.3 4.77-2.16 1.41-4.68 1.41-2.7 0-4.08-1.41T57 53.5q0-1.86.72-4.2l9.42-31.32q.3-1.08.3-1.68 0-1.2-.93-1.74t-3.15-.54l.42-1.26q4.14-.06 7.44-.66 3.3-.6 6.48-1.8L65.1 52.9zm38.1-1.74l1.08-2.88h1.14l-1.5 4.38q-1.2 3.36-3.33 4.77-2.13 1.41-4.59 1.41-3.12 0-4.44-1.86-.84-1.08-.84-3 0-1.56.54-3.54-2.04 4.44-4.53 6.42-2.49 1.98-5.49 1.98-3.3 0-5.01-1.95t-1.71-5.43q0-5.34 2.85-11.31 2.85-5.97 7.23-9.99 4.38-4.02 8.58-4.02 1.62 0 2.61.96.99.96 1.17 2.88l.84-2.94q4.8-.06 8.7-.9L98.64 52.9q-.3 1.02-.3 1.68 0 1.32 1.14 1.32 2.1 0 3.72-4.74zm-9.54-9.42l2.64-9.42q.06-.3.06-.9 0-1.5-.51-2.28-.51-.78-1.53-.78-2.04 0-4.65 3.66-2.61 3.66-4.44 9.18-1.83 5.52-1.83 10.68 0 1.98.39 2.85.39.87 1.29.87 1.32 0 2.91-1.83t3.18-5.28q1.59-3.45 2.79-8.19l-.3 1.44zm38.52-15.6q3.96 0 3.96 5.46 0 5.4-3.48 12.87-3.48 7.47-8.34 13.29-3.06 3.66-6.75 6.48-3.69 2.82-7.59 4.14-2.4.9-4.26.9-1.92 0-3.03-.9-1.11-.9-1.11-2.46 0-1.62 1.17-2.67 1.17-1.05 2.97-1.05 3.54 0 6.42 4.14 4.32-2.1 7.8-5.52l-4.68-28.68q-.3-1.68-.63-2.25-.33-.57-.93-.57-.66 0-1.26.9t-1.56 3.54l-1.08 2.94h-1.14l1.5-4.38q1.2-3.42 3.03-4.8 1.83-1.38 4.35-1.38 2.58 0 4.02 1.44 1.44 1.44 1.98 5.04l2.76 20.58q2.64-3.78 4.56-7.71 1.92-3.93 2.82-7.53-2.46-1.32-4.02-3.36-1.56-2.04-1.5-4.38 0-1.86 1.08-2.97t2.94-1.11zm28.86-15.06q3.72 0 5.82 1.56t2.1 4.2q0 1.98-1.59 3.6t-3.93 1.62q-1.8 0-2.82-.84-1.02-.84-1.02-2.4 0-1.98 1.26-3.54t3.36-2.34q-.3-.36-.84-.57-.54-.21-1.2-.21-1.8 0-3.18 1.2-1.08.96-1.86 3.06t-1.8 5.94l-1.26 4.62h6.42l-.36 1.2h-6.36l-10.8 40.26q-5.04.06-8.7.84l11.04-41.1h-5.04l.36-1.2h4.98q1.32-4.86 3-8.07t3.96-5.07q3.36-2.76 8.46-2.76zm25.02 40.08l1.08-2.88h1.14l-1.5 4.38q-1.2 3.36-3.33 4.77-2.13 1.41-4.59 1.41-3.12 0-4.44-1.86-.84-1.08-.84-3 0-1.56.54-3.54-2.04 4.44-4.53 6.42-2.49 1.98-5.49 1.98-3.3 0-5.01-1.95t-1.71-5.43q0-5.34 2.85-11.31 2.85-5.97 7.23-9.99 4.38-4.02 8.58-4.02 1.62 0 2.61.96.99.96 1.17 2.88l.84-2.94q4.8-.06 8.7-.9L181.5 52.9q-.3 1.02-.3 1.68 0 1.32 1.14 1.32 2.1 0 3.72-4.74zm-9.54-9.42l2.64-9.42q.06-.3.06-.9 0-1.5-.51-2.28-.51-.78-1.53-.78-2.04 0-4.65 3.66-2.61 3.66-4.44 9.18-1.83 5.52-1.83 10.68 0 1.98.39 2.85.39.87 1.29.87 1.32 0 2.91-1.83t3.18-5.28q1.59-3.45 2.79-8.19l-.3 1.44zm25.02-24.78q.06-2.46 1.8-3.9t4.32-1.44q2.1 0 3.27.99t1.17 2.73q0 2.4-1.8 3.96t-4.44 1.56q-2.16 0-3.3-1.05-1.14-1.05-1.02-2.85zm-2.28 15.12q.42-1.38.42-1.8 0-1.2-1.08-1.2t-1.98 1.11q-.9 1.11-1.86 3.63l-1.2 3.06h-1.14l1.68-4.56q2.22-6.18 8.34-6.18 2.76 0 4.02 1.35 1.26 1.35 1.26 3.51 0 1.74-.66 3.54l-6.3 18.36q-.36 1.08-.36 1.74 0 1.26 1.2 1.26.9 0 1.83-1.02t1.95-3.72l1.08-2.88h1.14l-1.56 4.38q-2.1 6.18-8.1 6.18-5.46 0-5.46-4.98 0-1.98.9-4.56l5.88-17.22zm36-5.94q2.28 0 3.57 1.35t1.29 3.51q0 2.58-1.65 4.41t-4.05 1.83q-1.74 0-2.7-.93-.96-.93-.96-2.67 0-2.1 1.44-3.81t3.54-2.19q-.12 0-.36-.09t-.42-.09q-3.06 0-6.24 4.44t-6.48 15.84L219.6 58h-8.46l7.32-25.92q.3-.96.3-1.86 0-1.14-.96-1.14-1.14 0-2.04 1.08-.9 1.08-1.86 3.66l-1.14 3.06h-1.14l1.62-4.56q2.22-6.18 8.28-6.18 4.62 0 4.62 4.86 0 1.74-.48 3.54l-.48 1.92q2.22-5.7 4.53-8.01 2.31-2.31 5.55-2.31zm63.84 3.72q0 6.9-3.36 13.38t-10.05 10.62Q279 58 269.52 58l-2.94-.06q-3.48-.12-6.12-.12-5.82 0-9 .18l.18-1.2q2.04-.12 3.09-.48 1.05-.36 1.68-1.41.63-1.05 1.23-3.27l7.86-29.76q.48-1.62.48-2.58 0-1.32-.87-1.92-.87-.6-3.09-.66l.18-1.2q2.7.18 7.92.18h1.92q6.3-.18 8.94-.18 8.82 0 13.47 3.63t4.65 10.71zm-29.58 27.06q6.12 0 10.62-4.26 4.5-4.26 6.87-10.95 2.37-6.69 2.37-13.77 0-5.64-2.34-8.49-2.34-2.85-7.38-2.85-1.56 0-2.31.39t-1.23 1.41q-.48 1.02-1.08 3.36l-7.86 30q-.66 2.64-.66 3.3 0 1.02.69 1.44.69.42 2.31.42zm41.1-39.96q.06-2.46 1.8-3.9t4.32-1.44q2.1 0 3.27.99t1.17 2.73q0 2.4-1.8 3.96t-4.44 1.56q-2.16 0-3.3-1.05-1.14-1.05-1.02-2.85zm-2.28 15.12q.42-1.38.42-1.8 0-1.2-1.08-1.2t-1.98 1.11q-.9 1.11-1.86 3.63l-1.2 3.06h-1.14l1.68-4.56q2.22-6.18 8.34-6.18 2.76 0 4.02 1.35 1.26 1.35 1.26 3.51 0 1.74-.66 3.54l-6.3 18.36q-.36 1.08-.36 1.74 0 1.26 1.2 1.26.9 0 1.83-1.02t1.95-3.72l1.08-2.88h1.14l-1.56 4.38q-2.1 6.18-8.1 6.18-5.46 0-5.46-4.98 0-1.98.9-4.56l5.88-17.22zm15.42 25.08q.9.42 2.34.42 2.28 0 3.66-1.38 1.38-1.38 1.38-3.78 0-1.92-.84-3.96t-2.52-4.62q-.24-.36-1.41-2.16-1.17-1.8-1.74-3.45-.57-1.65-.57-3.27 0-3.9 2.91-6.36 2.91-2.46 8.01-2.46 3.9 0 6.51 1.41t2.61 4.83q0 1.68-.96 3.06-.96 1.38-2.7 1.38-1.5 0-2.4-1.14-.9-1.14-.9-2.88 0-1.5.54-2.79t1.32-2.19q-.78-.48-2.1-.48-2.16 0-3.39 1.35t-1.29 3.75q0 1.62.63 2.94.63 1.32 2.13 3.72l.84 1.26q1.92 3.18 2.73 5.22.81 2.04.81 4.08 0 2.64-1.38 4.71t-3.93 3.27q-2.55 1.2-5.97 1.2-4.26 0-7.08-1.65-2.82-1.65-2.82-5.31 0-1.8.9-3.06t2.46-1.26q1.56 0 2.49 1.32.93 1.32.93 3.36 0 1.32-.3 2.37t-.9 2.55zm46.5-31.02q3.66 0 5.55 2.37 1.89 2.37 1.89 6.87 0 4.92-2.19 10.41t-6.27 9.27q-4.08 3.78-9.48 3.78-1.68 0-3.12-.54-1.44-.54-2.28-1.56l-1.62 5.76q-.36 1.26-.36 2.16 0 1.68 1.2 2.28 1.2.6 3.78.66l-.36 1.26-1.38-.06q-6.12-.18-8.1-.18-1.98 0-8.46.24l.36-1.26q2.16 0 3.12-.78t1.56-2.94l10.86-38.94q-1.68 3.72-3.84 6.69t-5.28 6.15l-.66-.78q2.64-2.88 4.38-5.01 1.74-2.13 3.51-5.22 1.77-3.09 3.51-7.53l.18-.72q4.86-.36 8.94-1.68l-5.16 18.3q2.16-4.68 4.56-6.84 2.4-2.16 5.16-2.16zM357.42 57.1q2.82 0 5.49-3.63 2.67-3.63 4.35-9 1.68-5.37 1.68-10.17 0-2.82-.51-3.9t-1.47-1.08q-1.8 0-4.08 3.48-2.28 3.48-4.2 8.82l-4.02 14.1q1.14 1.38 2.76 1.38zm30.6-4.2q-.24.78-.24 1.5 0 1.5 1.26 1.5 1.86 0 3.6-4.74l1.08-2.88h1.14l-1.5 4.38q-1.14 3.36-3.3 4.77-2.16 1.41-4.68 1.41-2.7 0-4.08-1.41t-1.38-3.93q0-1.86.72-4.2l9.42-31.32q.3-1.08.3-1.68 0-1.2-.93-1.74t-3.15-.54l.42-1.26q4.14-.06 7.44-.66 3.3-.6 6.48-1.8l-12.6 42.6zm38.1-1.74l1.08-2.88h1.14l-1.5 4.38q-1.2 3.36-3.33 4.77-2.13 1.41-4.59 1.41-3.12 0-4.44-1.86-.84-1.08-.84-3 0-1.56.54-3.54-2.04 4.44-4.53 6.42-2.49 1.98-5.49 1.98-3.3 0-5.01-1.95t-1.71-5.43q0-5.34 2.85-11.31 2.85-5.97 7.23-9.99 4.38-4.02 8.58-4.02 1.62 0 2.61.96.99.96 1.17 2.88l.84-2.94q4.8-.06 8.7-.9l-7.86 26.76q-.3 1.02-.3 1.68 0 1.32 1.14 1.32 2.1 0 3.72-4.74zm-9.54-9.42l2.64-9.42q.06-.3.06-.9 0-1.5-.51-2.28-.51-.78-1.53-.78-2.04 0-4.65 3.66-2.61 3.66-4.44 9.18-1.83 5.52-1.83 10.68 0 1.98.39 2.85.39.87 1.29.87 1.32 0 2.91-1.83t3.18-5.28q1.59-3.45 2.79-8.19l-.3 1.44zm38.52-15.6q3.96 0 3.96 5.46 0 5.4-3.48 12.87-3.48 7.47-8.34 13.29-3.06 3.66-6.75 6.48-3.69 2.82-7.59 4.14-2.4.9-4.26.9-1.92 0-3.03-.9-1.11-.9-1.11-2.46 0-1.62 1.17-2.67 1.17-1.05 2.97-1.05 3.54 0 6.42 4.14 4.32-2.1 7.8-5.52l-4.68-28.68q-.3-1.68-.63-2.25-.33-.57-.93-.57-.66 0-1.26.9t-1.56 3.54l-1.08 2.94h-1.14l1.5-4.38q1.2-3.42 3.03-4.8 1.83-1.38 4.35-1.38 2.58 0 4.02 1.44 1.44 1.44 1.98 5.04l2.76 20.58q2.64-3.78 4.56-7.71 1.92-3.93 2.82-7.53-2.46-1.32-4.02-3.36-1.56-2.04-1.5-4.38 0-1.86 1.08-2.97t2.94-1.11zm43.62 9.54q6.54.3 10.02 2.88 3.48 2.58 3.48 6.48 0 4.14-2.52 7.05t-6.99 4.41q-4.47 1.5-10.23 1.5l-3.48-.06q-3.72-.12-7.02-.12-6.06 0-9.3.18l.24-1.2q2.16-.12 3.24-.48t1.71-1.38q.63-1.02 1.23-3.3l7.92-29.76q.48-1.92.48-2.88 0-1.14-.87-1.68t-3.15-.6l.3-1.2q3.18.18 9.12.18l5.1-.06q1.26-.06 3.66-.06 6.72 0 9.96 2.07 3.24 2.07 3.24 5.85 0 3.12-2.01 5.73-2.01 2.61-5.67 4.29-3.66 1.68-8.46 2.16zm2.1-18.96q-1.8 0-2.61.84-.81.84-1.47 3.42l-3.84 14.46h2.1q3.24 0 5.61-1.8t3.6-4.77q1.23-2.97 1.23-6.33 0-2.82-1.05-4.32-1.05-1.5-3.57-1.5zm-9.78 39.9q3.54 0 6.06-1.68 2.52-1.68 3.81-4.56t1.29-6.42q0-3.42-1.65-5.46t-5.25-2.04h-2.64l-4.02 15.18q-.48 2.04-.48 2.7 0 1.14.66 1.71.66.57 2.22.57zm25.62-7.68q0-4.92 2.25-10.26t6.66-8.94q4.41-3.6 10.53-3.6 4.68 0 7.2 2.55 2.52 2.55 2.52 7.35 0 4.92-2.25 10.26t-6.66 8.94q-4.41 3.6-10.53 3.6-4.68 0-7.2-2.55-2.52-2.55-2.52-7.35zm19.14-21.6q-2.22 0-4.86 4.26t-4.44 10.44q-1.8 6.18-1.8 11.52 0 2.16.48 3.12t1.56.96q2.22 0 4.83-4.14t4.41-10.29q1.8-6.15 1.8-11.67 0-2.34-.48-3.27-.48-.93-1.5-.93zm20.4 25.56q-.24.78-.24 1.5 0 1.5 1.26 1.5 1.86 0 3.6-4.74l1.08-2.88h1.14l-1.5 4.38q-1.14 3.36-3.3 4.77-2.16 1.41-4.68 1.41-2.7 0-4.08-1.41t-1.38-3.93q0-1.86.72-4.2l9.42-31.32q.3-1.08.3-1.68 0-1.2-.93-1.74t-3.15-.54l.42-1.26q4.14-.06 7.44-.66 3.3-.6 6.48-1.8l-12.6 42.6zm39.42-1.74l1.02-2.88h1.14l-1.44 4.38q-1.08 3.42-3.21 4.8t-4.71 1.38q-3.72 0-4.74-2.76-.48-1.08-.48-2.52 0-1.74.72-4.26l.06-.24q-2.28 5.1-4.83 7.44-2.55 2.34-6.09 2.34-3.18 0-5.16-2.1t-1.98-6.3q0-4.86 2.52-10.59 2.52-5.73 7.08-9.72 4.56-3.99 10.38-3.99 2.82 0 3.66 2.04l2.7-10.2q.3-1.08.3-1.68 0-1.2-.93-1.74t-3.15-.54l.36-1.26q4.14-.06 7.53-.66 3.39-.6 6.51-1.8l-11.76 42.6q-.3.84-.3 1.62 0 1.38 1.14 1.38.9 0 1.8-1.05t1.86-3.69zm-9.48-10.2l3-11.34q-.66-2.1-2.4-2.1-2.58 0-5.37 3.69t-4.68 9.33q-1.89 5.64-1.89 11.16 0 2.1.45 3.12t1.47 1.02q1.2 0 2.82-1.77 1.62-1.77 3.39-5.13t3.21-7.98zm27.72 10.68q-.54 2.28-.54 2.94 0 1.26.87 1.68.87.42 3.21.54l-.24 1.2q-3.48-.18-9.78-.18-6.3 0-9.42.18l.3-1.2q2.1-.12 3.15-.48 1.05-.36 1.68-1.41.63-1.05 1.23-3.27l7.92-29.76q.48-2.04.48-2.88 0-1.32-.87-1.74-.87-.42-3.15-.54l.3-1.2q2.94.18 9.42.18 5.94 0 9.84-.18l-.3 1.2q-2.22.12-3.27.48-1.05.36-1.68 1.38-.63 1.02-1.23 3.3l-7.92 29.76zm26.7-23.46l-7.14 24.72q-.18.6-.18 1.2 0 .9.48 1.35.48.45 1.32.45 1.32 0 2.55-1.29 1.23-1.29 2.19-3.87l.9-2.46h1.14l-1.2 3.48q-2.34 7.08-9 7.08-3.06 0-4.59-1.59-1.53-1.59-1.53-4.35 0-1.74.54-3.6l6.06-21.12h-5.4l.3-1.2h5.46l2.58-8.94q5.1-.06 8.7-.84l-2.82 9.78h6.78l-.18 1.2h-6.96zm32.82 22.98l1.08-2.88h1.14l-1.5 4.38q-1.2 3.36-3.33 4.77-2.13 1.41-4.59 1.41-3.12 0-4.44-1.86-.84-1.08-.84-3 0-1.56.54-3.54-2.04 4.44-4.53 6.42-2.49 1.98-5.49 1.98-3.3 0-5.01-1.95t-1.71-5.43q0-5.34 2.85-11.31 2.85-5.97 7.23-9.99 4.38-4.02 8.58-4.02 1.62 0 2.61.96.99.96 1.17 2.88l.84-2.94q4.8-.06 8.7-.9l-7.86 26.76q-.3 1.02-.3 1.68 0 1.32 1.14 1.32 2.1 0 3.72-4.74zm-9.54-9.42l2.64-9.42q.06-.3.06-.9 0-1.5-.51-2.28-.51-.78-1.53-.78-2.04 0-4.65 3.66-2.61 3.66-4.44 9.18-1.83 5.52-1.83 10.68 0 1.98.39 2.85.39.87 1.29.87 1.32 0 2.91-1.83t3.18-5.28q1.59-3.45 2.79-8.19l-.3 1.44zm22.92 11.16q-.24.78-.24 1.5 0 1.5 1.26 1.5 1.86 0 3.6-4.74l1.08-2.88h1.14l-1.5 4.38q-1.14 3.36-3.3 4.77-2.16 1.41-4.68 1.41-2.7 0-4.08-1.41t-1.38-3.93q0-1.86.72-4.2l9.42-31.32q.3-1.08.3-1.68 0-1.2-.93-1.74t-3.15-.54l.42-1.26q4.14-.06 7.44-.66 3.3-.6 6.48-1.8l-12.6 42.6zm20.1-35.94q.06-2.46 1.8-3.9t4.32-1.44q2.1 0 3.27.99t1.17 2.73q0 2.4-1.8 3.96t-4.44 1.56q-2.16 0-3.3-1.05-1.14-1.05-1.02-2.85zm-2.28 15.12q.42-1.38.42-1.8 0-1.2-1.08-1.2t-1.98 1.11q-.9 1.11-1.86 3.63l-1.2 3.06h-1.14l1.68-4.56q2.22-6.18 8.34-6.18 2.76 0 4.02 1.35 1.26 1.35 1.26 3.51 0 1.74-.66 3.54l-6.3 18.36q-.36 1.08-.36 1.74 0 1.26 1.2 1.26.9 0 1.83-1.02t1.95-3.72l1.08-2.88h1.14l-1.56 4.38q-2.1 6.18-8.1 6.18-5.46 0-5.46-4.98 0-1.98.9-4.56l5.88-17.22zm32.46-4.74q-2.94 0-5.73 3.21-2.79 3.21-4.53 8.4-1.74 5.19-1.74 10.65 0 6 4.56 6 4.32 0 7.92-5.28l1.2.48q-2.16 3.48-5.49 5.76t-7.59 2.28q-4.38 0-6.99-2.34-2.61-2.34-2.61-6.9 0-5.16 2.58-10.65t7.26-9.15q4.68-3.66 10.62-3.66 3.3 0 5.31 1.65t2.01 4.11q0 1.62-.78 3.18t-2.16 2.52q-1.38.96-3 .96-1.5 0-2.46-.96t-.96-2.52q0-2.34 1.62-4.17t3.84-2.37q-1.02-1.2-2.88-1.2z"/></svg>