<svg viewBox="0 0 517 80" xmlns="http://www.w3.org/2000/svg"><path d="M25.88 60.28q-2.88 0-5.28-1.44-2.4-1.44-3.84-3.84t-1.44-5.28V30.28q0-2.94 1.44-5.31 1.44-2.37 3.84-3.81t5.28-1.44h13.98q3.3 0 6.21 1.26t5.1 3.45q2.19 2.19 3.45 5.1 1.26 2.91 1.26 6.21t-1.23 6.18q-1.23 2.88-3.42 5.1-2.19 2.22-5.07 3.48-2.88 1.26-6.18 1.26h-5.22q-.3 0-.42.06-1.44.3-1.44 1.8 0 .78.54 1.29t1.26.57q-1.38 2.16-3.69 3.48-2.31 1.32-5.13 1.32zM35 38.86q.72 0 1.44-.24.9-.18 1.86-.9.18-.12.36-.27.18-.15.36-.33.6-.54.63-1.29.03-.75-.51-1.35-.36-.36-.84-.54-.9-.3-1.8.42 0 .06-.03.06t-.03.06q-.96.78-1.62.6-.66-.18-1.08-.6-.48-.54-1.23-.6-.75-.06-1.35.42-.6.54-.66 1.29-.06.75.42 1.35.12.12 1.14.93t2.7.93q.06.06.24.06zm46.08 21.42q-2.88 0-5.28-1.44-2.4-1.44-3.84-3.84t-1.44-5.28V30.28q0-2.94 1.44-5.31 1.44-2.37 3.84-3.81t5.28-1.44h13.98q3.3 0 6.21 1.26t5.1 3.45q2.19 2.19 3.45 5.1 1.26 2.91 1.26 6.21t-1.23 6.18q-1.23 2.88-3.42 5.1-2.19 2.22-5.07 3.48-2.88 1.26-6.18 1.26h-5.22q-.3 0-.42.06-1.44.3-1.44 1.8 0 .78.54 1.29t1.26.57q-1.38 2.16-3.69 3.48-2.31 1.32-5.13 1.32zm9.12-21.42q.72 0 1.44-.24.9-.18 1.86-.9.18-.12.36-.27.18-.15.36-.33.6-.54.63-1.29.03-.75-.51-1.35-.36-.36-.84-.54-.9-.3-1.8.42 0 .06-.03.06t-.03.06q-.96.78-1.62.6-.66-.18-1.08-.6-.48-.54-1.23-.6-.75-.06-1.35.42-.6.54-.66 1.29-.06.75.42 1.35.12.12 1.14.93t2.7.93q.06.06.24.06zM146 60.28q-2.88 0-5.28-1.44-2.4-1.44-3.84-3.84t-1.44-5.28V35.68q0-.78-.54-1.32t-1.32-.54q-.78 0-1.32.54t-.54 1.32v4.14q-2.7-1.32-4.35-3.87-1.65-2.55-1.65-5.67 0-2.94 1.44-5.31 1.44-2.37 3.84-3.81t5.28-1.44h19.44q2.94 0 5.31 1.44 2.37 1.44 3.81 3.81t1.44 5.31q0 3.12-1.68 5.67t-4.32 3.81q-.96.48-1.86.72-.42.06-.9.15-.48.09-.96.15-.24 0-.42.03t-.42.03h-3.48q-.78 0-1.29.51t-.57 1.29v.06q0 .78.54 1.32t1.32.54h3.48q.24 0 .42-.03t.42-.03v5.22q0 2.88-1.44 5.28-1.44 2.4-3.81 3.84T146 60.28zm96.06 0h-14.58q-2.88 0-5.28-1.44-2.4-1.44-3.84-3.84t-1.44-5.28q0-1.44.36-2.76.18-.54.39-1.05.21-.51.45-.99.48-.96 1.08-1.74 1.44-1.86 3.6-2.94 2.16-1.08 4.68-1.08h6.42q.78 0 1.32-.54t.54-1.32q0-1.32-1.26-1.74-.18-.06-.33-.09-.15-.03-.27-.03h-6.42q-2.88 0-5.43 1.08t-4.47 2.94q-.66-2.16-.66-4.32 0-4.26 2.07-7.77t5.58-5.58q3.51-2.07 7.77-2.07h14.58q2.94 0 5.31 1.44 2.37 1.44 3.81 3.81t1.44 5.31q0 1.38-.36 2.76-2.22-2.82-5.46-4.71-3.24-1.89-7.02-2.43-1.26-.18-2.58-.18h-4.86q-.78 0-1.32.54t-.54 1.32q0 1.32 1.26 1.74.36.12.6.12h4.86q.42 0 .81.03.39.03.75.03 3.72.42 6.72 2.37 3 1.95 4.86 4.95.54.78.9 1.8.42.84.72 1.92.66 2.16.66 4.32 0 4.26-2.1 7.77t-5.58 5.58q-3.48 2.07-7.74 2.07zm40.62 0q-2.88 0-5.28-1.44-2.4-1.44-3.84-3.84t-1.44-5.28V30.28q0-2.94 1.44-5.31 1.44-2.37 3.84-3.81t5.28-1.44q2.1 0 4.02.81 1.92.81 3.3 2.19.36.3.69.69.33.39.63.81.66.9 1.08 1.98.84 1.98.84 4.08 0 .78.54 1.32t1.32.54q.24 0 .36-.06.66-.12 1.08-.63.42-.51.42-1.17 0-4.2-2.16-7.56 1.38-1.38 3.3-2.19t4.02-.81q2.94 0 5.31 1.44 2.37 1.44 3.81 3.81t1.44 5.31v19.44q0 2.88-1.44 5.28-1.44 2.4-3.81 3.84t-5.31 1.44q-2.1 0-4.02-.81-1.92-.81-3.3-2.19.54-.84.96-1.83.42-.99.72-2.01.12-.3.3-.72t.42-.66q.6-.66 1.56-.48.78.12 1.41-.33.63-.45.75-1.23t-.3-1.41q-.42-.63-1.2-.75-.18 0-.36-.03t-.36-.03q-2.58-.12-4.2 1.68-.78.78-1.14 1.65-.36.87-.48 1.35-.06.36-.21.69-.15.33-.27.63-.42 1.08-1.08 1.98-.3.42-.63.81-.33.39-.69.69-1.44 1.38-3.33 2.19-1.89.81-3.99.81zm55.2 0q-2.88 0-5.28-1.44-2.4-1.44-3.84-3.84t-1.44-5.28V30.28q0-2.94 1.44-5.31 1.44-2.37 3.84-3.81t5.28-1.44q2.94 0 5.31 1.44 2.37 1.44 3.81 3.81t1.44 5.31v19.44q0 2.88-1.44 5.28-1.44 2.4-3.81 3.84t-5.31 1.44zm55.14 0q-4.38 0-7.5-3.12L366.2 37.84q-2.04-2.1-2.73-4.8-.69-2.7 0-5.43.69-2.73 2.73-4.77 3.12-3.12 7.5-3.12 3.96 0 6.96 2.7l-2.52 2.52q-.54.54-.54 1.32t.54 1.32q.54.54 1.32.54t1.32-.54l4.74-4.74q.3-.3.48-.42 3.06-2.7 7.02-2.7 4.26 0 7.5 3.12 3.12 3.12 3.12 7.5 0 3.96-2.7 7.02-.06.06-.18.21t-.24.27l-4.74 4.74q-.54.54-.54 1.32t.54 1.32q.54.54 1.32.54t1.32-.54l2.52-2.58q2.7 3.06 2.7 7.02 0 4.38-3.12 7.5-3.24 3.12-7.5 3.12zm-27.3-17.58l14.94 14.88q-2.04 1.86-4.68 2.43-2.64.57-5.22-.15-2.58-.72-4.56-2.7-1.98-1.98-2.7-4.56-.72-2.58-.15-5.22.57-2.64 2.37-4.68zm63.12 17.58q-2.88 0-5.28-1.44-2.4-1.44-3.84-3.84t-1.44-5.28V30.28q0-2.94 1.44-5.31 1.44-2.37 3.84-3.81t5.28-1.44q2.94 0 5.31 1.44 2.37 1.44 3.81 3.81t1.44 5.31v19.44q0 2.88-1.44 5.28-1.44 2.4-3.81 3.84t-5.31 1.44zm35.82 0q-2.88 0-5.31-1.44-2.43-1.44-3.87-3.87t-1.44-5.31V30.34q0-2.1.75-3.93t2.07-3.21q.18-.18.3-.24.12-.18.3-.33.18-.15.36-.27 2.04-1.74 4.59-2.28 2.55-.54 5.1.12t4.47 2.58l.18.18 1.2 1.2 1.38 1.32 2.04 2.04 2.16 2.1 3.9 3.9q.54.54 1.32.54t1.32-.6q.54-.54.54-1.32t-.54-1.32l-8.46-8.28q1.44-1.32 3.27-2.07 1.83-.75 3.87-.75 2.94 0 5.34 1.44t3.84 3.84q1.44 2.4 1.44 5.34v19.32q0 2.88-1.44 5.31-1.44 2.43-3.84 3.87t-5.34 1.44q-2.04 0-3.93-.78-1.89-.78-3.27-2.1l-.12-.12h-.06q-.06-.12-.18-.24l-1.2-1.14-3.3-3.3-2.22-2.16-1.8-1.8q-.54-.54-1.32-.51-.78.03-1.32.57-.54.54-.54 1.32t.54 1.32l6.3 6.18q-1.38 1.26-3.21 2.01-1.83.75-3.87.75z"/></svg>