<svg viewBox="0 0 863 80" xmlns="http://www.w3.org/2000/svg"><path d="M30 65.5H15V13h45v7.5h7.5V43H60v7.5H30v15zm0-45V43h22.5V20.5H30zM97.5 28v7.5h7.5V43h-7.5v22.5h-15V28h15zm7.5 0h22.5v7.5H105V28zm75 37.5h-37.5V58H135V35.5h7.5V28H180v7.5h7.5v15H150V58h30v7.5zm-30-30V43h22.5v-7.5H150zm90 30h-45V58h37.5v-7.5h-30V43H195v-7.5h7.5V28H240v7.5h-30V43h30v7.5h7.5V58H240v7.5zm60 0h-45V58h37.5v-7.5h-30V43H255v-7.5h7.5V28H300v7.5h-30V43h30v7.5h7.5V58H300v7.5zm120 0h-37.5V58H375v-7.5h15V58h22.5V43h-30v-7.5H375v-15h7.5V13H420v7.5h7.5V28h-15v-7.5H390v15h30V43h7.5v15H420v7.5zm52.5 0h-15v-30h-15V28h15V13h15v15h15v7.5h-15v30zm75 0h-45V58H495v-7.5h7.5V43h30v-7.5h-30V28H540v7.5h7.5v30zm-37.5-15V58h22.5v-7.5H510zM577.5 28v7.5h7.5V43h-7.5v22.5h-15V28h15zm7.5 0h22.5v7.5H585V28zm67.5 37.5h-15v-30h-15V28h15V13h15v15h15v7.5h-15v30zm135 0H735v-15h7.5V43h7.5v-7.5h15V28h7.5v-7.5H750V28h-15v-7.5h7.5V13H780v7.5h7.5v15H780V43h-7.5v7.5h-15V58h30v7.5zm22.5 0h-15V13h45v7.5h7.5V43H840v7.5h-30v15zm0-45V43h22.5V20.5H810z"/></svg>