<svg viewBox="0 0 512 80" xmlns="http://www.w3.org/2000/svg"><path d="M40.9 18.1H21.4v31.8h19.5V18.1zM40.06 67l-6.6-11.7h-11.1l-6.96-4.02V16.72l6.96-4.02h17.58l6.96 4.02v34.56l-6.96 4.02L46.72 67h-6.66zm24-11.7l-6.96-4.02V25h5.82v25.08h13.86V25h5.82v30.3h-4.38l-1.44-2.46-4.26 2.46h-8.46zm44.82-12.6H96.82v7.38h12.06V42.7zm-4.26 12.6h-6.66L91 51.28V41.5l6.96-4.02h10.92v-7.26H94V25h13.74l6.96 4.02V55.3h-1.56l-4.26-2.46-4.26 2.46zm38.22-30.6l6.96 4.02V55h-5.82V29.92h-13.86V55h-5.82V24.7h4.38l1.44 2.46 4.26-2.46h8.46zm19.68 5.52H157V25h5.52v-5.04l5.82-3.36V25h7.2v5.22h-7.2v19.56h7.2V55h-6.06l-6.96-4.02V30.22zM183.94 25h5.82v30h-5.82V25zm6.12-7.38h-6.42V11.2h6.42v6.42zm31.8 12.6h-16.68v19.56h16.68V55h-15.54l-6.96-4.02V29.02l6.96-4.02h15.54v5.22zm33.9-1.5v22.56l-6.96 4.02h-11.58l-6.96-4.02V28.72l6.96-4.02h11.58l6.96 4.02zm-5.82 1.2h-13.86v20.16h13.86V29.92zM306.1 55l-9.48-16.74h-9.06V55h-6V13h21.54l6.96 4.02v17.22l-6.96 4.02L312.76 55h-6.66zm-2.04-36.6h-16.5v14.46h16.5V18.4zm22.02 31.38h17.88V55h-16.74l-6.96-4.02V28.72l6.96-4.02H337l6.96 4.02v13.32h-17.88v7.74zm12.06-19.86h-12.06v6.9h12.06v-6.9zM373.84 55h-14.46l-5.82-3.36v-5.4l4.26-2.46-4.26-2.46v-12.3l6.96-4.02h19.14v2.04l-5.46 3.18 3.66 2.16v8.28l-6.96 4.02h-11.52v5.1h13.32l6.96 4.02v9.48l-6.96 4.02h-13.38l-6.96-4.02v-3.72l5.82-3.36v6h15.66V55zm-1.8-24.9h-12.66v9.48h12.66V30.1zm22.98 25.2l-6.96-4.02V25h5.82v25.08h13.86V25h5.82v30.3h-4.38l-1.44-2.46-4.26 2.46h-8.46zm41.16-.3h-6.06l-6.96-4.02V11.2h5.82v38.58h7.2V55zm22.68-12.3H446.8v7.38h12.06V42.7zm-4.26 12.6h-6.66l-6.96-4.02V41.5l6.96-4.02h10.92v-7.26h-14.88V25h13.74l6.96 4.02V55.3h-1.56l-4.26-2.46-4.26 2.46zM491.02 25v5.22H480.1V55h-5.82V25h4.38l1.44 2.46 4.26-2.46h6.66z"/></svg>