<svg viewBox="0 0 585 80" xmlns="http://www.w3.org/2000/svg"><path d="M43.06 19.9h-15.9l-2.94 28.2h15.9l2.94-28.2zM37.12 67l-5.34-11.7H22l-6.54-4.02 3.66-34.56 7.38-4.02h18.78l6.54 4.02-3.66 34.56-7.38 4.02L46.3 67h-9.18zM64.3 55.3l-6.54-4.02L60.52 25h8.22l-2.46 23.28h10.26L79 25h8.22l-3.18 30.3h-6.78l-1.2-2.46-4.5 2.46H64.3zm37.68-7.02h10.26l1.74-16.56h-10.26l-1.74 16.56zm17.04-23.58h3.96l-3.24 30.6h-3.96l-4.02-2.46-4.5 2.46H100l-6.54-4.02 2.4-22.56 7.38-4.02h7.26l3.96 2.46 4.56-2.46zm32.7 0l6.54 4.02L155.5 55h-8.22l2.4-23.28h-10.26L137.02 55h-8.22l3.18-30.3h6.78l1.14 2.46 4.56-2.46h7.26zm18.3 7.32h-5.52l.72-7.02h5.52l.54-5.04 8.7-4.74-1.02 9.78h6.6l-.72 7.02h-6.6l-1.68 15.96h6.6l-.72 7.02h-7.86l-6.54-4.02 1.98-18.96zM193.36 25h8.22l-3.12 30h-8.22l3.12-30zm9.12-5.58h-8.82l.84-8.22h8.82l-.84 8.22zm30.48 12.6h-14.88l-1.68 15.96h14.88l-.72 7.02h-16.14l-6.54-4.02 2.28-21.96 7.38-4.02h16.14l-.72 7.02zm34.86-3.3l-2.4 22.56-7.38 4.02h-12.78l-6.54-4.02 2.4-22.56 7.38-4.02h12.78l6.54 4.02zm-8.58 3h-10.26l-1.74 16.56h10.26l1.74-16.56zm64.68-14.7l-1.38 13.2-5.52 3-.06.12 4.92 3-1.5 14.64L313 55h-22.74l4.38-42h22.74l6.54 4.02zm-10.5 19.86h-12.9l-1.14 10.92h12.9l1.14-10.92zm1.74-16.68h-12.9l-.96 9.48h12.9l.96-9.48zm43.86 8.52l-2.4 22.56-7.38 4.02h-12.78l-6.54-4.02 2.4-22.56 7.38-4.02h12.78l6.54 4.02zm-8.58 3h-10.26l-1.74 16.56h10.26l1.74-16.56zM379.48 55h-7.26l-6.54-4.02 4.14-39.78h8.22l-3.84 36.78h6l-.72 7.02zm8.16-26.28l7.38-4.02h7.86l3.96 2.46 1.68-15.96h8.22l-4.62 44.1h-6.78l-1.2-2.46-4.5 2.46h-7.86l-6.54-4.02 2.4-22.56zm6.12 19.56h10.86l1.74-16.56H395.5l-1.74 16.56zM430.18 55h-8.4l4.38-42h8.4l-4.38 42zm15.12-22.98h-5.52l.72-7.02h5.52l.54-5.04 8.7-4.74-1.02 9.78h6.6l-.72 7.02h-6.6l-1.68 15.96h6.6l-.72 7.02h-7.86l-6.54-4.02 1.98-18.96zm29.1 16.26h10.26l1.74-16.56h-10.26l-1.74 16.56zm17.04-23.58h3.96l-3.24 30.6h-3.96l-4.02-2.46-4.5 2.46h-7.26l-6.54-4.02 2.4-22.56 7.38-4.02h7.26l3.96 2.46 4.56-2.46zm24 30.3h-7.26l-6.54-4.02 4.14-39.78H514l-3.84 36.78h6l-.72 7.02zm8.52-30h8.22l-3.12 30h-8.22l3.12-30zm9.12-5.58h-8.82l.84-8.22h8.82l-.84 8.22zm30.48 12.6h-14.88L547 47.98h14.88l-.72 7.02h-16.14l-6.54-4.02 2.28-21.96 7.38-4.02h16.14l-.72 7.02z"/></svg>