<svg viewBox="0 0 440 80" xmlns="http://www.w3.org/2000/svg"><path d="M44.74 18.1h-19.5l-3.36 31.8h19.5l3.36-31.8zm-6 48.9L33.4 55.3H22.3l-6.54-4.02 3.66-34.56 7.38-4.02h17.58l6.54 4.02-3.66 34.56-7.38 4.02L45.4 67h-6.66zM64 55.3l-6.54-4.02L60.22 25h5.82L63.4 50.08h13.86L79.9 25h5.82l-3.18 30.3h-4.38l-1.2-2.46-4.5 2.46H64zm49.86-25.38H100.6l-2.1 20.16h13.26l2.1-20.16zm4.86-5.22h1.56l-3.24 30.6h-1.56l-4.02-2.46-4.5 2.46H99.1l-6.54-4.02 2.4-22.56 7.38-4.02h7.86l3.96 2.46 4.56-2.46zm29.7 0l6.54 4.02L152.2 55h-5.82l2.58-25.08H135.1L132.52 55h-5.82l3.18-30.3h4.38l1.14 2.46 4.56-2.46h8.46zm19.08 5.52h-5.52l.54-5.22h5.52l.54-5.04 6.18-3.36-.9 8.4h7.2l-.54 5.22h-7.2l-2.04 19.56h7.2l-.54 5.22h-6.06l-6.54-4.02 2.16-20.76zM189.46 25h5.82l-3.12 30h-5.82l3.12-30zm6.9-7.38h-6.42l.66-6.42h6.42l-.66 6.42zm30.48 12.6h-16.68l-2.04 19.56h16.68l-.54 5.22h-15.54l-6.54-4.02 2.28-21.96 7.38-4.02h15.54l-.54 5.22zm34.08-1.5l-2.4 22.56-7.38 4.02h-11.58l-6.54-4.02 2.4-22.56 7.38-4.02h11.58l6.54 4.02zm-6 1.2h-13.86l-2.1 20.16h13.86l2.1-20.16zM289.96 55h-6l4.38-42h6l-4.38 42zm15.9-24.78h-5.52l.54-5.22h5.52l.54-5.04 6.18-3.36-.9 8.4h7.2l-.54 5.22h-7.2l-2.04 19.56h7.2L316.3 55h-6.06l-6.54-4.02 2.16-20.76zm40.5-.3H333.1L331 50.08h13.26l2.1-20.16zm4.86-5.22h1.56l-3.24 30.6h-1.56l-4.02-2.46-4.5 2.46h-7.86l-6.54-4.02 2.4-22.56 7.38-4.02h7.86l3.96 2.46 4.56-2.46zm21 30.3h-6.06l-6.54-4.02 4.14-39.78h5.82l-4.02 38.58h7.2l-.54 5.22zm9.12-30h5.82l-3.12 30h-5.82l3.12-30zm6.9-7.38h-6.42l.66-6.42h6.42l-.66 6.42zm30.48 12.6h-16.68L400 49.78h16.68l-.54 5.22H400.6l-6.54-4.02 2.28-21.96 7.38-4.02h15.54l-.54 5.22z"/></svg>