<svg viewBox="0 0 511 80" xmlns="http://www.w3.org/2000/svg"><path d="M20.63 12.25q-.06 6.91-1.35 14.38-1.29 7.48-3.58 13.75l-.11.76q0 .7.46.7.36 0 .83-.29 3.57-3.64 5.85-7.74v9.96h-1.4q-3.46 0-6.21-.58L16.41 46q2.22-.35 4.45-.35h1.87v9.61q.12 2.4-1.87 3.87-.82.7-.82 1.52l.12.64 2.05 3.17q.99 1.75 2.28 3.4.65.64 1.12.64.87 0 1.99-1.82l.64-1.05q1.17-1.7 4.22-4.78 3.05-3.07 7.03-6.65.82-.82.82-1.58 0-.35-.23-.56-.24-.2-.65-.2-.58 0-.99.23-4.51 2.52-7.15 3.4v-9.84h8.2q.88-.06 1.06-.82.41.76 1.64.58 1.05 0 1.76-.23.11 7.03-2.76 12.83-2.87 5.8-8.14 8.91-.94.76-.94 1.11 0 .18.23.32.24.15.59.21 18.57-2.05 19.22-22.09l.94-.7q.58-.77.58-1.23 0-.71-1.05-1.24-3.11-.64-3.87-.82V41.2h11.72v1.99q-.06.17.12.47-3.7-.71-5.1-.71-1.53 0-1.53 1.18 0 .41.06.58.3 5.04.24 7.5v10.14q-.18 6.68 5.62 6.33h7.39q3.28.11 5.97-1.53 1.35-.88 1.35-2.22 0-1.35-1.46-3.17-1.88-2.22-1.88-5.51l.12-1.81v-.24q0-.64-.24-1.08-.23-.44-.58-.44-.71 0-1.06 1.29Q68.38 61 64.34 61q-2.35 0-2-1.87V47.29l.94-.7q1.17-1 .82-1.88 5.28-.29 5.51-3.63-.23-3.11-.23-7.97v-1.52l1.17-1.41q.52-.64.52-1.17 0-.71-.76-1.41-3.16-2.11-6.33-3.51-.76-.3-1.17-.3-.64 0-1.17.53l-1.87 2.81h-2.58q5.74-7.09 8.44-11.72l1.87-.58q.82-.47.82-1.06 0-.58-.94-1.29-2.52-.87-8.55-1.99l-.76-.06q-1.76 0-1.59 1.23.12 1.29.12 3.29 0 4.98-.94 10.78-.17 1.05-.11 1.4h-5.63q-4.57-1.99-8.55-2.69h-.18q-1.05 0-1.05 1.05l.06.47.23 4.75.12 1.81v2.58q-.12 2.52-.24 7.97v.7l-.35-.35q-1.7-1.87-3.63-3.51-.82-.47-1.35-.47-.64 0-1.23.58l-2.46 3.05v-9.14h6.56q1.06-.29 1.06-1 0-.58-.71-1.46-2.11-1.99-3.86-3.05-.82-.41-1.64-.41-.94 0-1.41.88-1.06 1.06-2.23 3.16h-5.15q1.93-3.75 3.75-8.67h12.65q.82-.29.82-.88 0-.35-.35-.87-1.93-2.11-4.57-3.87-.58-.47-1.23-.47-.64 0-1.23.47-1.52 2.28-2.34 3.75h-3.17q1.12-2.93 1.99-6.21l2-1.06q.64-.53.64-.99 0-.65-1.23-1.35-4.51-1.11-9.49-1.52-1.64-.18-1.52 1.87zm24.02 8.91q.82 3.86 3.28 3.86 1.29 0 2.55-.76 1.26-.76 1.73-1.81.47-1.12.47-2.29 0-2.11-1.12-3.57-2.99-3.29-8.55-5.04l-.35-.06q-.77 0-.77.82 0 .47.06.64 2.41 4.93 2.7 8.21zm15.82 18.16H48.75V29.01h11.72v10.31zM98.32 11.2q-1.23.17-1.23.82 0 .46.88 1.28 1.93 1.88 2.93 6.1.47 1.52.94 1.99H86.25q-.35-.88-1.64-2.69-.65-.59-1.06-.59-.46 0-.58 1.05-.24 4.4-3.99 7.5-1.81 1.64-1.81 3.23 0 1.52 1.58 3.1 1.58 1.06 3.34 1.06 1.82 0 3.22-1.06 1.41-1.05 1.99-2.93.24-.99.24-2.58 0-2.22-.59-4.21h34.81q-1.29 2.52-3.05 6.21-2.34-1.41-3.75-2.11-.47-.3-.94-.3-.7 0-1.52.88-1.23 1.23-2.46 2.82H99.02q-4.68 0-10.54-.36l1.75 2.7q3.46-.41 8.56-.47h11.84l-3.87 6.09q-3.34-.7-4.92-.7-1.64.12-1.53 1.99v5.63H87.19q-5.51 0-10.2-.35l1.99 2.69q3.87-.41 8.79-.47h12.54l.12 4.57v3.29q-.12 5.74-2.93 5.39-.53.05-2.4.05-1.99 0-2.64-.05h-.41q-.59 0-.94.17-.52.29-.52.65 0 .64 1.29.99 2.1.41 3.98 1.85 1.87 1.43 2.23 2.84.52 1.99 2.34 1.76 4.92-1.23 7.21-3.14 2.28-1.9 2.28-5.12-.41-7.45-.47-13.25h22.97q1.35-.29 1.35-1.05 0-.47-.53-1.17-3.16-3.05-6.79-5.16-1.12-.59-1.94-.59-.76 0-1.11.47-1.88 2.17-3.87 5.63h-10.08V43.3l1.29-.82q.82-.64.82-1.23 0-.93-2.11-1.7 3.05-2.1 5.6-2.92 2.55-.83 6.36-.83 2.4-.17 2.4-1.34 0-.94-1.11-2.05l-2.11-1.64q1.29-1.41 4.36-2.26 3.08-.85 6.07-.79 2.98-.18 2.98-1.52 0-.82-1.11-2.11-1.7-1.53-3.78-3.08t-3.6-2.43q-.47-.35-.94-.35-.7 0-1.41.7-.7.88-1.75 2.46H107.7q1.17-.7 1.81-1.85.65-1.14.65-2.49 0-1.46-.82-2.81-2.46-3.22-8.32-3.22-1.41 0-2.7.18zm81.91 1.64q-2.52 3.22-3.51 4.8H150q-1.58 0-4.45-.18-2.87-.17-5.04-.41l1.76 2.93q4.1-.58 7.96-.46h38.09q1.23-.12 1.23-.77 0-.41-.64-1.23-1.35-1.17-3.28-2.69-1.94-1.53-3.05-2.23-.7-.29-1.06-.29-.64 0-1.29.53zm13.36 23.32q1 0 1-.65 0-.7-1.46-2.17-3.4-3.22-5.16-3.98-.47-.29-.94-.29-.35 0-.82.29-1.58 1.58-4.22 4.92h-34.1q-7.79 0-12.3-.58l1.75 3.04q4.22-.7 8.44-.58h10.43q-2.99 10.31-8.55 17.81-1.64 1.76-5.39 2.69-1.18.12-1.18 1.35l.12.88q1.23 3.81 2.81 7.44.3.82 1.29.82 1.06 0 2.82-.82 4.8-1.58 12.56-3.57 7.77-1.99 16.26-3.75.71 2.22 1.06 4.63 1.17 4.39 4.16 4.39 1.11 0 2.4-.53 3.98-1.93 3.98-5.91 0-1.7-.58-3.29-1.58-3.98-5.66-7.52-4.07-3.55-9.93-5.95-.52-.18-.93-.18-.77 0-.77.65 0 .52.41 1.29 2.99 4.04 4.69 8.67-19.86 1.87-25.08 1.76 8.62-5.98 16.06-15.71l1.99-.7q1.7-.88 1.7-1.7t-1.47-1.58q-1.87-.76-4.92-1.17h29.53zm24.73-24.96q-1.23.17-1.23.82 0 .46.88 1.28 1.93 1.88 2.93 6.1.47 1.52.94 1.99h-15.59q-.35-.88-1.64-2.69-.65-.59-1.06-.59-.46 0-.58 1.05-.24 4.4-3.99 7.5-1.81 1.64-1.81 3.23 0 1.52 1.58 3.1 1.58 1.06 3.34 1.06 1.82 0 3.22-1.06 1.41-1.05 1.99-2.93.24-.99.24-2.58 0-2.22-.59-4.21h34.81q-1.29 2.52-3.05 6.21-2.34-1.41-3.75-2.11-.47-.3-.94-.3-.7 0-1.52.88-1.23 1.23-2.46 2.82h-11.02q-4.68 0-10.54-.36l1.75 2.7q3.46-.41 8.56-.47h11.84l-3.87 6.09q-3.34-.7-4.92-.7-1.64.12-1.53 1.99v5.63h-13.12q-5.51 0-10.2-.35l1.99 2.69q3.87-.41 8.79-.47h12.54l.12 4.57v3.29q-.12 5.74-2.93 5.39-.53.05-2.4.05-1.99 0-2.64-.05h-.41q-.59 0-.94.17-.52.29-.52.65 0 .64 1.29.99 2.1.41 3.98 1.85 1.87 1.43 2.23 2.84.52 1.99 2.34 1.76 4.92-1.23 7.21-3.14 2.28-1.9 2.28-5.12-.41-7.45-.47-13.25h22.97q1.35-.29 1.35-1.05 0-.47-.53-1.17-3.16-3.05-6.79-5.16-1.12-.59-1.94-.59-.76 0-1.11.47-1.88 2.17-3.87 5.63h-10.08V43.3l1.29-.82q.82-.64.82-1.23 0-.93-2.11-1.7 3.05-2.1 5.6-2.92 2.55-.83 6.36-.83 2.4-.17 2.4-1.34 0-.94-1.11-2.05l-2.11-1.64q1.29-1.41 4.36-2.26 3.08-.85 6.07-.79 2.98-.18 2.98-1.52 0-.82-1.11-2.11-1.7-1.53-3.78-3.08t-3.6-2.43q-.47-.35-.94-.35-.7 0-1.41.7-.7.88-1.75 2.46H227.7q1.17-.7 1.81-1.85.65-1.14.65-2.49 0-1.46-.82-2.81-2.46-3.22-8.32-3.22-1.41 0-2.7.18zm86.6 4.33q-1.76 2.35-3.16 4.92h-11.37l.7-.35q1.12-.82 1.67-2.05.56-1.23.56-2.46 0-.29-.12-.88-1.29-4.75-10.43-4.45-1.23.06-1.23.76 0 .41.41 1 2.05 2.57 2.7 5.62.23 1.93 1.4 2.81h-14.53q-1.93-1.11-4.6-2.08-2.66-.96-4.77-1.32-1.94-.29-1.76 1.53.35 5.33.35 10.08v9.25q0 11.14-1.05 17.49-1.06 6.36-3.75 11.05-.3.88-.3 1.11 0 .53.47.53t.88-.23q4.75-3.17 7.59-7.62t4.07-10.67q1.23-6.03 1.12-14.82v-3.87l1.52 2.35q5.16-.47 6.44-.47-2.1 4.8-4.57 9.02l-1.52 1.41q-.59.58-.59 1.17 0 .7.71 1.43.7.74 2.34 1.85 1.41 1 2.46 1.29.47.18.82.18.88 0 1.64-.77l2.11-2.81h6.57v8.67h-9.15q-4.92-.11-10.31-.58l1.88 2.93q4.63-.59 8.55-.47h9.03q0 6.44-.24 10.84-.23 1.99 1.88 1.87 2.75.06 4.8-.79 2.05-.85 2.34-2.61-.05-.64-.05-3.34-.06-.82-.06-5.97h16.4q1.41-.12 1.41-.94 0-.35-.47-1.17-2.69-3.05-5.27-4.45-.82-.47-1.41-.47-.99 0-1.76.93-1.4 1.82-2.81 4.22h-6.09v-8.67h12.07q1.52-.12 1.52-1.05 0-.47-.35-1.06-1.76-1.93-4.92-3.98-.88-.3-1.23-.3-.59 0-1 .41-1.29 1.47-2.69 4.11h-3.4v-3.75l1.05-.94q.59-.65.59-1.11 0-.71-1.06-1.23-1.11-.36-3.37-.77-2.25-.41-4.36-.64-1.93 0-1.76 1.87l.24 6.57h-6.22q2.47-4.57 5.63-10.9h23.44q1.4-.12 1.4-.94 0-.35-.47-1.17-2.69-3.05-5.27-4.45-.82-.47-1.41-.47-.99 0-1.75.93-1.41 1.82-2.82 4.22h-12.18q.52-.99 1.4-2.93l1.06-.35q1.11-.23 1.11-1.11 0-.29-.29-1-.76-.7-2.11-1.37-1.35-.68-3.99-1.79h27.78q1.29-.06 1.29-1 0-.58-.59-1.58-1.76-2.17-5.86-4.57-1.05-.47-1.58-.47-.88 0-1.35.82zm-22.26 6.8q0 .06-.71.23-1.11 3.17-3.4 8.32-2.4 0-4.33-.17-1.58-.18-4.45-.3V24.2q.05-1.64 1.17-1.87h11.72zm37.97-10.08q-.06 6.91-1.35 14.38-1.29 7.48-3.58 13.75l-.11.76q0 .7.46.7.36 0 .83-.29 3.57-3.64 5.85-7.74v9.96h-1.4q-3.46 0-6.21-.58l1.29 2.81q2.22-.35 4.45-.35h1.87v9.61q.12 2.4-1.87 3.87-.82.7-.82 1.52l.12.64 2.05 3.17q.99 1.75 2.28 3.4.65.64 1.12.64.87 0 1.99-1.82l.64-1.05q1.17-1.7 4.22-4.78 3.05-3.07 7.03-6.65.82-.82.82-1.58 0-.35-.23-.56-.24-.2-.65-.2-.58 0-.99.23-4.51 2.52-7.15 3.4v-9.84h8.2q.88-.06 1.06-.82.41.76 1.64.58 1.05 0 1.76-.23.11 7.03-2.76 12.83-2.87 5.8-8.14 8.91-.94.76-.94 1.11 0 .18.23.32.24.15.59.21 18.57-2.05 19.22-22.09l.94-.7q.58-.77.58-1.23 0-.71-1.05-1.24-3.11-.64-3.87-.82V41.2h11.72v1.99q-.06.17.12.47-3.7-.71-5.1-.71-1.53 0-1.53 1.18 0 .41.06.58.3 5.04.24 7.5v10.14q-.18 6.68 5.62 6.33h7.39q3.28.11 5.97-1.53 1.35-.88 1.35-2.22 0-1.35-1.46-3.17-1.88-2.22-1.88-5.51l.12-1.81v-.24q0-.64-.24-1.08-.23-.44-.58-.44-.71 0-1.06 1.29-1.11 7.03-5.15 7.03-2.35 0-2-1.87V47.29l.94-.7q1.17-1 .82-1.88 5.28-.29 5.51-3.63-.23-3.11-.23-7.97v-1.52l1.17-1.41q.52-.64.52-1.17 0-.71-.76-1.41-3.16-2.11-6.33-3.51-.76-.3-1.17-.3-.64 0-1.17.53l-1.87 2.81h-2.58q5.74-7.09 8.44-11.72l1.87-.58q.82-.47.82-1.06 0-.58-.94-1.29-2.52-.87-8.55-1.99l-.76-.06q-1.76 0-1.59 1.23.12 1.29.12 3.29 0 4.98-.94 10.78-.17 1.05-.11 1.4h-5.63q-4.57-1.99-8.55-2.69h-.18q-1.05 0-1.05 1.05l.06.47.23 4.75.12 1.81v2.58q-.12 2.52-.24 7.97v.7l-.35-.35q-1.7-1.87-3.63-3.51-.82-.47-1.35-.47-.64 0-1.23.58l-2.46 3.05v-9.14h6.56q1.06-.29 1.06-1 0-.58-.71-1.46-2.11-1.99-3.86-3.05-.82-.41-1.64-.41-.94 0-1.41.88-1.06 1.06-2.23 3.16h-5.15q1.93-3.75 3.75-8.67h12.65q.82-.29.82-.88 0-.35-.35-.87-1.93-2.11-4.57-3.87-.58-.47-1.23-.47-.64 0-1.23.47-1.52 2.28-2.34 3.75h-3.17q1.12-2.93 1.99-6.21l2-1.06q.64-.53.64-.99 0-.65-1.23-1.35-4.51-1.11-9.49-1.52-1.64-.18-1.52 1.87zm24.02 8.91q.82 3.86 3.28 3.86 1.29 0 2.55-.76 1.26-.76 1.73-1.81.47-1.12.47-2.29 0-2.11-1.12-3.57-2.99-3.29-8.55-5.04l-.35-.06q-.77 0-.77.82 0 .47.06.64 2.41 4.93 2.7 8.21zm15.82 18.16h-11.72V29.01h11.72v10.31zm38.08-28.94q-1.34.29-1.34.93 0 .59.99 1.41 1.82 2.05 2.23 5.98.47 2.98 3.34 2.98.64 0 1.35-.17 4.63-.88 4.63-4.75 0-1.29-.41-2.52-1-1.93-4.02-2.99-3.02-1.05-6.77-.87zM378.4 26.43q-1.35 1.17-1.35 2.99 0 1.87 1.35 3.22 1.46 1.29 3.22 1.29 1.52 0 2.93-.94 1.41-.94 2.29-2.46 1.11-2.28 1.11-4.8 0-1.06-.18-2h33.28q-1.34 4.98-1.87 7.39v.23q0 .47.15.76.14.3.44.3.41 0 1.17-.59 1.64-1.76 4.33-2.87 2.7-1.11 5.39-1.11 3.23-.24 3.23-1.76 0-.88-1.35-2.58-1.7-1.52-3.78-3.08-2.08-1.55-3.6-2.43-.47-.29-1-.29-.82 0-1.49.67-.68.68-1.91 2.49-.06.06-.12.15-.05.09-.11.26-.35.53-.41.59H387.3q-.35-1.29-1.52-3.52-.76-.58-1.23-.58-.59 0-.88 1.05-.76 4.16-5.27 7.62zm51.33 12.89q.99-.18.99-.88 0-.76-.76-1.7-2.75-2.58-5.86-4.45-.58-.41-1.17-.41-.64 0-1.05.41-2.35 2.52-3.87 5.16h-9.61v-7.86l1.4-.93q.77-.94.77-1.53 0-.76-1.23-1.29-4.34-.93-9.14-1.17-1.47-.06-1.29 1.64.23 2.17.35 7.5v3.64h-9.73q-5.51-.06-9.73-.36l1.76 2.58q3.64-.35 7.15-.35h6.56q-3.39 10.84-17.22 23.03-.24.64-.24.82 0 .41.47.41.29 0 .7-.18 3.52-.99 7.68-3.19t7.68-4.83q3.45-2.7 4.92-4.81v3.16q-.3 6.68-.35 12.84l-.06.64q0 2.23 2.4 1.93 7.03-.29 7.38-3.75-.23-5.85-.23-14.94V39.44q2.93 16.52 13.83 22.2 1.52.82 2.52.82.99 0 1.46-.82 2.17-3.39 5.39-5.21 1.29-.94 1.29-1.58 0-.71-1.41-1.12-3.69-.46-7.58-2.54-3.9-2.08-7.24-5.31-3.28-2.99-5.45-6.56h18.52zm59.41-17.34l1.41-1.41q.35-.35.35-.88 0-.64-.59-1.58-2.46-3.34-6.44-5.74-.71-.3-1-.3-.88 0-1.7.88l-2.58 3.17h-5.86q-3.22-1.58-8.67-2.7-.11-.06-.47-.06-1.29 0-1.17 2.05l.35 4.11q-2.4-.94-5.5-1.76l-.59-.12q-.88 0-1.05.82-.42 2.87-1.88 8.09v-10.9l1.29-.94q.7-.7.7-1.29 0-.76-1.17-1.29-3.57-.93-7.73-1.17-.12-.06-.53-.06-1.76 0-1.58 2.17.17 5.45.23 9.73v3.16q0-.7-.35-1.29-1.88-3.51-7.5-5.39l-.65-.12q-.76 0-.41.82 1.7 3.93 1.65 7.62.17 3.34 2.98 3.34.77 0 2.17-.41 1.76-.88 2.11-2.81v5.04h-3.4q-3.28-.06-6.09-.47l1.64 2.58q3.98-.24 4.92-.24h1.88q-1.94 11.37-9.67 23.09-.18.53-.18.76 0 .41.35.41.3 0 .71-.23 5.68-3.64 9.84-9.73-.06 11.25-.35 17.52-.29 2.58 2.87 2.58 6.45 0 6.5-5.51-.23-6.15-.23-18.34V41.9q1.17 2.64 1.29 5.39.12 1.52 1 2.34.87.82 2.16.82.76 0 2-.47 2.22-.99 2.46-3.39v17.28h-.94q-3.22-.06-6.68-.35l1.17 2.58q2.64-.35 4.81-.35h32.81q1.29-.18 1.29-1.06 0-.41-.35-1.05-1.23-2-3.64-3.93-.47-.29-.76-.29-.76 0-1.23 1.35V21.98zm-15.94-3.99h6.45v13.6h-7.85V19.4q.35-1.41 1.4-1.41zm-10.54 14.89q-2.82-2.64-5.16-4.11-.53-.23-.82-.23-.53 0-.94.35-.88.94-1.99 3.28v-2.93q5.04-4.86 8.2-6.91l.71-.12v10.67zm16.99.58v13.59h-7.85V33.46h7.85zm-16.99 12.19q0-.88-.71-1.99-3.04-4.22-8.2-5.16v-3.87h8.32q.29.12.59-.11v11.13zm16.99 3.28v14.94h-7.85V48.93h7.85z"/></svg>