<svg viewBox="0 0 450 80" xmlns="http://www.w3.org/2000/svg"><path d="M71.95 21.16H68.2q1.12-2.99 1.88-5.8l.7-2.64-10.55-1.17q-.76 3.04-1.99 6.5l-1.05 3.11H53.2l.94-.24q.47-.06 1.11-.23.65-.18.53-.24-3.51-9.25-3.51-8.9l-10.08 2.58q.99 2.1 1.7 4.57l.64 2.46h-3.28v22.73h3.98q-.35 5.92-2.57 8.85-1.06 1.29-1.76 2.11-.7.82-.82.76l-.47-1.88-6.09 2.35v-5.16h7.03V40.84h-7.03v-3.75h6.09v-8.9H26.72l1.17-3.05h12.19V16h-8.91l.59-1.87.58-2.11-9.61-1.64q-1.64 6.56-4.39 13.06-2.81 6.62-3.11 7.09l5.86 7.97.94-1.41h2.11v3.75h-6.8v10.08h6.8v5.16q0 .94-1.11 1.67-1.12.73-2.7 1.2-1.29.41-1.81.41l3.51 9.55q15.12-4.86 15.47-5.16l5.39 5.16q3.52-2.4 5.98-6.33 2.46-3.92 3.81-8.73 1.17-4.16 1.58-7.03l.35-2.93h1.17v17.99q-.06 4.8 2.52 5.68 2.7.88 3.11.65h4.68q5.86-.24 6.92-3.81 1.05-3.52.82-4.1v-7.03l-7.03-2.11v5.15q-.65 1.23-.94.94-.88-.18-.7-.7V43.89h6.79V21.16zM60.94 31v3.05h-8.91V31h8.91zM97.5 12.02l.7 3.04H77.34v18.99h11.02v-8.67h33.05v8.67h11.48V15.06h-20.86l-1.17-4.92-13.36 1.88zM120 27.48H89.53v10.55h16.17l-1.4 1.64h-4.22v2.11H76.17v11.49h24.14v2.34q.12 1.11-1.4 1.58-1.82.53-5.28.53-1.46 0-2.6-.09-1.15-.09-1.5-.15l3.99 10.02h8.43q7.68-.17 9.09-3.34 1.28-3.22.99-3.63v-7.26h21.33V41.78h-16.64l3.28-3.75V27.48zm68.67-13.59h-47.58v12.19h47.58V13.89zm4.46 17.34h-56.25v12.19h15.46l-3.28 6.8q-.99 1.64-2.84 2.75-1.84 1.12-3.9 1.58-1.81.41-2.16.36l2.11 11.66q17.05-.94 27.07-2.11l6.68-.76q3.45-.36 3.51-.41l2.81 4.92 11.25-6.8q-.46-.59-.7-.64-10.31-16.82-10.78-17.11h11.02V31.23zm-14.54 12.43l-7.73 3.98 3.28 5.16q-7.15 1.29-7.97 1.17-.53.06-1.4.06-2.76.23-3.87.23-.76 0-.82-.06l5.39-10.54h13.12zm38.91-31.64l.7 3.04h-20.86v18.99h11.02v-8.67h33.05v8.67h11.48V15.06h-20.86l-1.17-4.92-13.36 1.88zM240 27.48h-30.47v10.55h16.17l-1.4 1.64h-4.22v2.11h-23.91v11.49h24.14v2.34q.12 1.11-1.4 1.58-1.82.53-5.28.53-1.46 0-2.6-.09-1.15-.09-1.5-.15l3.99 10.02h8.43q7.68-.17 9.09-3.34 1.28-3.22.99-3.63v-7.26h21.33V41.78h-16.64l3.28-3.75V27.48zm41.95-15.7l.47 2.58h-20.74q-.06 17.17-.7 25.37-.65 8.2-.71 8.15-1.11 7.85-2.93 11.42-1.81 3.75-1.99 3.75l11.25 5.16q2.58-7.8 3.52-13.07.88-4.98 1.05-6.59.18-1.61.41-6.3.35-9.02.41-16.17v-3.05h10.43l-1.4 2.58h-7.97v10.55h3.04l-2.34 4.68v9.61h14.06v1.88h-15.23v8.85h15.23v6.79h11.72v-6.79h13.13v-8.85h-13.13v-1.88h11.02V40.38h-11.02v-3.52h-11.48l.7-.7h20.86V25.38h-16.52l1.17-2.35h18.4v-8.67h-18.05l-.47-3.75-12.19 1.17zm3.64 29.3l2.22-3.75v3.75h-2.22zm43-29.77v5.16h-9.37v10.08h9.37v2.11h-10.78V39.2h10.32v10.55l-1.18-.7v-7.27l-7.26-1.17q-.82 10.14-2.4 15.41-1.65 5.33-1.82 5.39l7.38 6.8q3.69-6.74 3.4-7.21 5.21 2.93 10.9 4.22l1.58.35q4.45 1 4.63 1 6.39.93 16.7.93 2.11 0 7.62-.11.35-.06 1.52-.06l2.99-.06 1.87-11.19q-11.25.7-17.75.7h-2.29q-5.33 0-8.35-.26-3.01-.27-5.3-.97-2.58-.82-2.4-.88v-3.28h5.62v-9.61h-5.62V39.2h5.62v-6.56l5.86 2.81H345v19.93h26.48V35.45h-4.92q2.4-.76 3.58-2.69.88-1.41 1.08-2.11.21-.7.26-2.17 0-.94.06-1.29.06-2.23.18-2.52l.23-6.38.06-1.41q.06-3.87.18-4.16h-28.13v3.75h-5.15v-5.16h-10.32zm32.58 12.19q-.12 3.98-1.7 4.45-1.58.47-1.81.24l.93-4.69h2.58zm-13.36.23q-.76 3.11-2.4 5.28-1.7 2.17-1.82 2.22v-2.57h-4.68v-2.11h5.62v-2.82h3.28zm6.8 11.72q.53-.88.7-1.4 1-1.7 1.17-1.88l3.29 3.28h-5.16zm6.09 9.14v2.11h-5.15v-2.11h5.15zm70.67 15.18q1.76 2.05 2.69 3.52l-10.78 4.92q.12-.06-4.22-7.21-.41-.12-1.87-2.81l4.45-1.88h-34.45l4.22 2.11-.24-.7h10.78q-.06.23.3 4.28.35 4.1.41 5.5h-10.9q-.35-5.68-.35-7.67l-3.52 5.1q-.41.52-2.46 3.51l-9.26-5.86q.06.06 4.69-5.56.12-.24.47-.71h-4.45v-8.67h22.26v-1.41h-19.69v-7.5h19.69v-1.4h-18.75V12.02h47.81v25.31h-18.28v1.4h19.92v7.5h-19.68v1.41h22.5v8.91h-3.75l.7 1.17q.06.17 1.76 2.05zM399.14 30.3v-9.85h-8.2v9.85h8.2zm10.78-9.85v9.85h7.97v-9.85h-7.97zm-16.17 8.91l-.64-1.93-1.47-4.4 4.69-1.4v.7q.29.82.94 2.4.82 1.93 1.17 3.22l-4.69 1.41zm17.4-3.75q.53-1.29 1.35-3.98l4.69 1.64-.18.58-.29 1.06-.53 1.81-.88 2.87-4.92-2.11q.06-.05.76-1.87zm4.16 32.11l.71 3.57q.64 3.64.93 6.45H405.7l-.7-7.09-.23-2.93h10.54z"/></svg>