<svg viewBox="0 0 508 80" xmlns="http://www.w3.org/2000/svg"><path d="M63.57 15.53l.94-.35q.94 0 .94-.47 0-.35-.53-.91-.53-.55-1.35-.91-2.11-.99-5.39-2.28l-.23-.06q-.36 0-.47.53-1.06 6.38-3.87 14.18h-7.03q-1.29-.65-3.25-1.23-1.97-.59-2.85-.65h-.11q-.41 0-.41.41 0 .3.17.76.24.71.35 3.64v6.79q.06.41.06 1.94 0 3.34-.41 6.38-.35 1.35 1.47 1.35.64 0 .88-.06 1.05 0 1.99-.35-.76 7.62-4.1 13.48t-8.79 8.96q-.12.36-.12.41 0 .24.24.53 6.97-1.23 11.89-6.3 4.92-5.07 6.86-13.09 1.11-.3 1.28-.24v12.78q.59 5.15 6.8 5.33h6.92q5.74-.3 6.85-2.58.59-1.11.59-2.11 0-.7-.41-1.11-1.41-1-1.59-3.11l-.05-1.29q0-1.7.46-7.79-.17-.41-.46-.41-.24 0-.47.41-2.41 8.79-3.52 10.66-.88 1.59-2.52 1.59-.58 0-.76-.06h-2.23q-3.69.06-3.69-2l.06-.46V44.71q1.35-.7 1.06-1.05-.3-.82-5.75-2.7h6.45v2.46q0 .88 1.41.88.52 0 .7-.06 4.92 0 4.57-2.69-.18-1.7-.24-3.67-.05-1.96 0-3.25v-5.5q1.53-.65 1.53-1.29 0-.41-.71-.94l-4.1-3.4q-.52-.7-1.05-.7t-.94.58l-1.99 1.88h-3.17q1.82-1.64 3.49-3.66 1.67-2.03 4.6-6.07zM39.43 42.02q.29 0 .29-.41 0-.36-.06-.53-.46-.88-2.05-2.35-1.58-1.46-2.28-1.64h-.24q-.58 0-.93.82l-2 2.82h-1.75v-6.57q.52-.29.82-.58l.35-.24h6.68q.41-.05.41-.35 0-.35-.53-.94-1.17-1.34-3.51-3.16l-.36-.12q-.35 0-.7.47l-2.11 3.05h-8.2q-1.29-.12-1.88-.35 2.58-3.58 5.04-7.62h12.54q.53-.18.53-.59 0-.23-.18-.46-.99-1.18-3.51-3.17l-.47-.12q-.41 0-.7.47l-2 2.7h-5.5q1.81-2.76 3.16-6.21.12-.59.94-.82.99-.18 1.17-1.06.06 0 .06-.06 0-.35-1.06-.93-1.35-.88-6.85-3.23-.18-.17-.3-.17-.23 0-.29.41-2.52 13.3-8.32 26.13l-.12.47q0 .29.3.29.06 0 .76-.29 1.52-1.52 3.87-4.34h4.1v7.39h-4.92q-2.47 0-4.11-.24l1.29 1.53h7.74v11.83q0 1-.35 1.64-.36.82-2.7 3.17-.29.17-.23.35l5.03 7.44q.12.23.3.23.17 0 .29-.23 2.17-3.52 5.27-7.38 4.52-5.75 7.62-9.91.29-.7.29-.82 0-.23-.23-.23t-.64.23l-8.79 5.51V42.02h9.02zm8.2-18.17q2-.47 3.05-1.58 1.05-1.11 1.05-2.64 0-1.29-.73-2.63-.73-1.35-1.96-2.41-2.64-2.11-6.91-3.16-.71.18-.71.59 0 .35.24.58 2.69 1.64 2.57 6.1-.05.29-.05 1.17 0 3.69 3.45 3.98zm-1.29 16.06V27.48q1.23-.64 1.06-1.05h12.07v13.48H46.34zm5.39 6.32q-.87-.87-6.09-2.46.7-.47.7-1.05v-1.76h5.39v5.27zM97.44 12.6q2.99 1.82 3.16 5.16-.29 3.57 2.46 4.22h-15.7q-.76-1.82-1.99-3.64-.47-.29-.59-.29-.35 0-.47.65.18 3.92-3.16 7.03-2.87 2.34-2.87 3.98 0 .47.29.94.64 2.75 3.75 2.81 5.45-.88 5.86-6.91 0-1.7-.47-3.28h32.93l-2.93 6.32-.06.3q0 .41.41.41t.82-.24q2.17-1.29 4.6-2.08 2.43-.79 4.25-.79 1.11 0 1.82.29.47.24 1.05.24 1 0 .94-1.29-.65-1.11-3.81-4.04-3.16-2.93-4.16-3.34-.06-.06-.23-.06-.41 0-1.06.64l-2.46 2.35h-13.94q3.22-.82 3.28-3.87-.18-3.28-3.4-5.07-3.22-1.79-8.44-1.84-.47.17-.47.52t.59.88zm19.57 22.03q.58.18 1.05.18 1 0 1.17-1-.23-.64-1.81-2.05-1.58-1.4-3.58-2.75-1.93-1.23-2.69-1.41-.06-.06-.29-.06-.53 0-.88.65l-1.88 2.22h-15q-2.64 0-4.33-.23l1.28 1.52h18.4l-1.64 6.57q-1.7-.65-3.48-1.18-1.79-.52-2.49-.58h-.06q-.35 0-.35.41 0 .29.17.76.18 1.29.24 3.63v3.87H83.96q-4.51 0-7.03-.23l.94 1.52h22.97v11.95q.17 1.06-2.17 1.06-2.11 0-7.56-1.06-.76.18-.76.47 0 .24.53.7 8.02 3.34 8.2 6.62.23.71 1.17.94 3.34-.06 5.63-1.32 2.28-1.26 2.34-3.25-.12-5.62-.12-8.61v-7.5h23.67l.24.06q.47 0 .35-.65-.35-.76-2.87-2.93-2.52-2.16-3.34-2.46-.06-.06-.24-.06-.7 0-1.28 1.12l-2.93 3.63h-13.6v-3.75q1.88-1 1.53-1.41-.18-.47-1.53-1.17 2.17-1.99 4.34-3.16 2.17-1.17 3.69-1.17.29 0 .88.11zm65.97-15l.3.06q.47 0 .29-.64-.53-.94-3.4-3.4t-3.75-2.7q-.06-.06-.17-.06-.53 0-1.23 1l-3.52 4.45h-21.56q-4.51 0-7.27-.23l1.29 1.52h39.02zm-39.02 46.35q.29.35.7.35t.82-.23q5.16-2.7 10.93-4.19 5.77-1.5 15.62-3.02l5.1-.82q.17 3.05.46 5.04.36 1.76 1.35 2.67 1 .9 2.99.9 4.69-.05 4.8-6.27-.64-5.09-4.89-8.87-4.25-3.78-10.22-5.89-.12-.06-.41-.06-.47 0-.47.35 0 .18.29.65l2.52 2.69q1.76 2.05 2.99 6.1l-26.72.23q10.14-8.44 16.17-14.77h.59q1.93-.17 1.93-.99t-2.28-2.11q-2.17-1.23-5.16-2.64h30.59l.23.06q.47 0 .35-.64-.47-.71-3.51-3.26-3.05-2.55-3.99-3.07l-.47-.12q-.64 0-1.29 1.06l-3.86 4.8h-36.8q-4.57 0-7.15-.23l1.29 1.4h22.03q-1.29 3.75-4.28 8.26-2.98 4.52-6.67 8.15-3.75 3.75-7.33 5.15h-.06q-.35 0-.35.36 0 .17.29 1.05l3.87 7.91zm73.48-53.38q2.99 1.82 3.16 5.16-.29 3.57 2.46 4.22h-15.7q-.76-1.82-1.99-3.64-.47-.29-.59-.29-.35 0-.47.65.18 3.92-3.16 7.03-2.87 2.34-2.87 3.98 0 .47.29.94.64 2.75 3.75 2.81 5.45-.88 5.86-6.91 0-1.7-.47-3.28h32.93l-2.93 6.32-.06.3q0 .41.41.41t.82-.24q2.17-1.29 4.6-2.08 2.43-.79 4.25-.79 1.11 0 1.82.29.47.24 1.05.24 1 0 .94-1.29-.65-1.11-3.81-4.04-3.16-2.93-4.16-3.34-.06-.06-.23-.06-.41 0-1.06.64l-2.46 2.35h-13.94q3.22-.82 3.28-3.87-.18-3.28-3.4-5.07-3.22-1.79-8.44-1.84-.47.17-.47.52t.59.88zm19.57 22.03q.58.18 1.05.18 1 0 1.17-1-.23-.64-1.81-2.05-1.58-1.4-3.58-2.75-1.93-1.23-2.69-1.41-.06-.06-.29-.06-.53 0-.88.65l-1.88 2.22h-15q-2.64 0-4.33-.23l1.28 1.52h18.4l-1.64 6.57q-1.7-.65-3.48-1.18-1.79-.52-2.49-.58h-.06q-.35 0-.35.41 0 .29.17.76.18 1.29.24 3.63v3.87h-16.88q-4.51 0-7.03-.23l.94 1.52h22.97v11.95q.17 1.06-2.17 1.06-2.11 0-7.56-1.06-.76.18-.76.47 0 .24.53.7 8.02 3.34 8.2 6.62.23.71 1.17.94 3.34-.06 5.63-1.32 2.28-1.26 2.34-3.25-.12-5.62-.12-8.61v-7.5h23.67l.24.06q.47 0 .35-.65-.35-.76-2.87-2.93-2.52-2.16-3.34-2.46-.06-.06-.24-.06-.7 0-1.28 1.12l-2.93 3.63h-13.6v-3.75q1.88-1 1.53-1.41-.18-.47-1.53-1.17 2.17-1.99 4.34-3.16 2.17-1.17 3.69-1.17.29 0 .88.11zm50.27-13.24q3.11-1.17 3.17-3.98-.18-3.11-3.23-4.63-3.04-1.53-8.02-1.47-.24.24-.24.59 0 .29.24.47 1.87 1.17 2.6 2.25.74 1.09.56 2.79-.06.17-.06.88 0 2.34 2.52 3.1H269q-1.35-.94-3.81-1.85-2.46-.9-3.57-.96h-.06q-.35 0-.35.47 0 .29.17.82.18 1.11.24 3.51v21.68q-.06 5.74-1.38 11.49-1.32 5.74-3.78 10.6.12.71.82.35 5.22-3.63 8.09-9.52t2.93-12.92V31.7h9.25l-4.1 9.38-1.64 1.29q-.99.35-.99.93 0 .41.52 1.06 2.05 1.87 2.87 2.4 1 .76 1.94.76.82 0 1.58-.55.76-.56 1.93-1.91h6.45v9.61h-11.02q-4.63 0-7.26-.23l1.17 1.52h17.11v10.72q0 1 2.11.82 5.1.06 4.8-2.69-.17-1.7-.23-3.58-.06-1.87 0-3.04v-2.23h18.92q.53 0 .42-.47-.36-.76-2.73-2.93t-3.25-2.46q-.06-.06-.18-.06-.35 0-1.11 1.12l-2.46 3.51h-9.61v-9.61h13.36l.23.06q.35 0 .24-.64-.35-.71-2.41-2.61-2.05-1.91-2.87-2.2h-.17q-.47 0-1 .82l-2.46 3.28h-4.92v-6.32q1.87-1 1.52-1.41-.35-.7-3.28-1.44-2.93-.73-4.92-.79h-.06q-.35 0-.35.47 0 .29.18.82.17 1.11.23 3.63v5.04h-6.56l5.62-12.07h22.74l.23.06q.47 0 .35-.64-.35-.76-2.78-2.76-2.43-1.99-3.31-2.28-.06-.06-.24-.06-.41 0-1.05 1l-2.46 3.39h-12.89l.94-2.11.35-.11q1.64-.94 1.4-1.17v-.12q0-.29-.82-.94-.93-.58-5.74-2.11l-.47-.12q-.53 0-.82.82l-2.34 5.86h-9.96v-7.14q.88-.53 1.05-.71h40.78l.24.06q.47 0 .35-.64-.35-.71-2.76-2.85-2.4-2.13-3.22-2.43-.06-.06-.17-.06-.53 0-1.23 1l-2.58 3.75h-13.48zm59.88-2.11v-2.69q1.76-1.64 1.53-1.88-.47-.64-3.78-1.41-3.31-.76-5.13-.82h-.12q-.41 0-.41.47 0 .3.18.82.35.59.35 3.4v4.04q0 4.87-.35 9.56h-14.3q-4.51 0-6.91-.24l.94 1.52h20.15q-.52 11.78-5.74 19.87-5.21 8.08-16.05 12.77-.77.41-.77.7 0 .3 1.12.47 14.47-3.1 21.5-11.57 7.03-8.47 7.56-22.12.47 10.43 4.69 19.22 4.22 8.79 11.13 13.65.29.3.76.3.59 0 1-.77 2.69-3.8 7.03-4.62.64-.36.64-.71 0-.41-.64-.7-5.51-2.11-10.4-6.09-4.89-3.99-8.41-9.2-3.52-5.28-4.75-11.2h22.97q.71-.11.71-.58 0-.24-.12-.47-.59-.76-3.28-2.93-2.7-2.17-3.52-2.46-.35-.23-1.52 1.29l-2.81 3.87h-13.48q0-1.12.06-1.82l.17-9.67zM389.7 33.7q1.53 2.57 1.53 6.44.35 1.17 1.08 1.79.73.61 1.67.61 1.29 0 2.17-.99.88-1 .88-2.58 0-1.11-.41-2.11-2.17-3.46-6.92-4.45v-6.45h7.5q.59-.06.35-.82-1.69-2.05-3.86-4.22-.24-.17-.59-.17-.23 0-.58.17-1.06 1.64-2.82 3.63v-9.72l1.41-1.17q.23-.18.23-.47l-.11-.47q-3.93-.88-7.03-1.29-.59 0-.47.47l.11 1.81q.18 3.46.12 3.7v7.14h-6.39q-.52 0-1.69-.23l1.05 1.88q2.87-.3 3.87-.24h1.87q-1.81 13.71-6.68 26.84v.17q0 .53.3.53.11 0 .52-.23 2.11-2.58 3.66-5.22 1.56-2.64 3.49-6.85v15.82q0 4.86-.35 9.78.29.53 1.58.53 1.47 0 2.93-.56 1.47-.56 1.7-1.26l-.12-7.38V33.7zm37.74-14.42l.23.06q.47 0 .35-.64-.35-.65-2.93-2.7-2.57-2.05-3.39-2.34-.59-.24-1.53 1.17l-2.34 3.28h-15.35q-2.7 0-4.34-.23l1.29 1.4h28.01zm-10.9 14.77l1.17-.71h14.53l.24.06q.47 0 .35-.64-.35-.71-2.96-2.9-2.61-2.2-3.49-2.49-.06-.06-.23-.06-.41 0-1.06.99l-3.16 3.87H401.3q-4.51 0-7.26-.23l1.29 1.4h14.65v25.67q0 .94-1.64.94-1.88 0-6.33-1.53-.71.06-.71.47 0 .35.24.59 2.4 1.46 4.13 3.4 1.73 1.93 1.85 3.45.17 1.06 1.28 1.06 3.46-.06 5.75-1.32 2.28-1.26 2.34-3.37-.35-4.22-.35-13.3V34.05zm-9.14 8.55q1.93-.29 1.93-.99 0-.53-1.29-1.29-1.34-.77-6.27-2.87l-.47-.12q-.35 0-.46.47-2.76 13.71-10.2 23.96-.06.06-.06.35 0 .53.76.47 10.55-8.2 16.06-19.98zm10.78-1.64q4.69 4.69 4.69 10.84 0 1.52-.06 2.34-.06.82-.06 1.18 0 2.87.79 4.1.79 1.23 2.84 1.23t3.31-1.76q1.26-1.76 1.26-4.57l-.11-1.76q-.77-7.73-12.43-12.89-.52.18-.52.53 0 .29.29.76zm45.94-19.22q.64.18 1.17.18.7 0 1.29-.18 2.75-1.17 2.81-4.22-.23-3.04-3.13-4.51-2.9-1.46-7.53-1.35-.53.06-.53.47 0 .3.53.82 2.05.82 3.04 4.46.18 3.75 2.35 4.33zm-15.94.59q-.53-2.46-1.88-5.28-.52-.52-.82-.52-.41 0-.46.76.35 3.69-3.29 7.03-1.34.88-2.05 2.05-.7 1.17-.7 2.34 0 1.41.97 2.38.96.96 2.43.96 2.64 0 4.22-1.78 1.58-1.79 1.81-4.66.12-.59.12-1.11 0-.53-.12-.88h33.29l-3.87 7.73v.24q0 .29.29.29.06 0 .76-.29 2.7-1.94 5.19-3.08 2.49-1.14 4.19-1.14l.94.11q.17.06.7.06 1.35 0 1.52-.88-.35-.93-3.07-3.78-2.73-2.84-3.72-3.25h-.18q-.88 0-1.35.82l-1.64 1.88h-33.28zm43.01 16.29h.11q.12.06.18 0 .59 0 .41-.71-.41-.82-2.99-3.22-2.58-2.4-3.45-2.75-.06-.06-.18-.06-.59 0-1.35 1.11l-3.28 4.34h-13.36v-8.91q1.88-.99 1.52-1.4-.35-.88-3.31-1.82-2.95-.94-4.89-1h-.06q-.35 0-.35.41 0 .3.18.77.17.93.23 3.51v8.44h-15.47q-4.57 0-7.15-.24l1.18 1.53h18.63q-2.99 6.85-8.35 13.59-5.36 6.74-11.69 11.54-.7.71-.7 1 0 .23.41.23t.52-.05q5.98-2.47 11.87-7.36 5.89-4.89 10.75-11.57v11.84q0 5.27-.23 7.79-.06.12-.06.53 0 1.17 1.76 1.17.76 0 .99-.06 4.69 0 4.57-2.81-.23-2-.35-4.22l-.06-1.7q0-.41.06-.53V38.62h.47q1.05 8.38 4.92 14.82 3.87 6.45 10.67 10.2.46.35.76.35.53 0 .88-.82 1.64-3.75 6.44-4.87.53-.35.53-.64 0-.29-.41-.53-7.56-1.81-13.68-6.74-6.13-4.92-8.94-11.77h22.27z"/></svg>