<svg viewBox="0 0 445 80" xmlns="http://www.w3.org/2000/svg"><path d="M70.6 55.31q.12.41 1.53 2.58-4.46 4.04-13.31 4.04-3.92 0-6.24-1.43-2.31-1.44-2.49-4.48.12-2.29.71-3.87 1.4-2.99 3.16-6.1-1.46-.29-3.34 1.35-1.87 1.64-4.16 4.87l-6.56 7.14q-.18.3-.59.3-.11 0-.82-.3l-.06-1.46q0-1.88.41-3.69l1.06.94q2.52-1.82 4.16-4.75 1.82-3.22 3.46-5.22-.65.18-2 1.18-1.87 1.11-3.28 1.11-.82 0-1.87-.53-.41-.7-.47-1.29.06-.76.47-1.05l.58.23q1.7-1.05 3.05-2.69l-.59-3.4q-.58-2.17-1.52-3.28.29-1.06 1.52-1.06.06-.06.3-.06.35 0 1.23.3 2.46-2.87 6.21-5.16 3.81-6.5 4.69-9.49 0-1.82-1.82-3.34-.88-.65-1.23-1 2.81 0 4.95 1.09 2.14 1.08 2.78 3.25-.06.76-1.05 1.29-1.82 2.46-2.64 3.75-.82 1.29-1.46 2.81.64-.47 1.34-.47l.65.12q1.58.17 2.99 1.35 1.4 1.17 1.93 2.75v.18q0 .41-.23.52-.65.41-1.06.82-.94 1.23-2.11 3.64l1.06-.06q.88 0 1.76.17v.06q0 .3.35 1.35.06.12.06.41 0 .65-.41 1.11-1.7.41-4.57.94-.3.06-3.64 1.88-1.29.52-1.17 1.52l.23.18q2.17-.82 3.29-1.47l.82.24q1.05.35 1.52 2.57v.24q0 .7-.59.94-2.87 2.81-4.57 6.79-.29 1.76-.23 3.05 2.17 1.64 5.74 1.64 4.57 0 6.83-1.26 2.25-1.26 1.96-4.6l.35-6.45q-.06-.58.29-.58l.3.12q.35 5.04 2.34 9.72zM24.66 37.38q-3.22 4.81-9.02 5.28l-.35-.47q4.39-3.46 8.09-7.85 3.63-4.34 5.91-8.62 2.29-4.27 2.87-7.67 0-.76-.82-2.11.88-.18 1.64-.18 1.35 0 2.23.41.7.18 1.41 1.06 1.05.41 1.4 2.34-.17 1.76-1.87 3.28l-1.23 1.11-1.94 1.82 1.76-.47q1.12-.23 1.88-.76.52-.53 1.4-.64 1.23.05 2.02.67.8.62.8 1.55 0 .12-.12.59-.94 2.28-3.81 2.46l-6.27.47q-4.22 4.92-5.98 7.73zm20.16-11.01q-.29-3.17-1.64-4.46.64-.29 1.17-.46 1.76.05 3.17 1.4 1.81-1.64 2.93-3.28-.06 5.16-1.53 10.66l-1.05.36q-2.87-1.82-3.05-4.22zm-5.86 19.8l-.12.82q-1.58 5.51-4.57 9.85-.17.58-1.29 2.11l-.52 1.81-.3 1.17h-.58q-2.93-3.63-3.52-7.44.12-.82.47-1.29l.24-.58q.29-1.53.35-2.7-1.82 1.82-4.1 2.46-.94-.11-1.64-.58-.83-1.82-.83-3.05 0-1.17.47-1.76h2.35q3.22-.47 4.68-3.16.71-1.58.71-3.05-1.35.35-2.7.47-1.76-.64-2.58-1.99-.29-.47-.29-.71 0-.23.24-.46.23-.24.41.23 1.7-.29 3.1-1.2 1.41-.91 4.1-3.19 1.59-1.41 3.23-1.7 1.69.11 2.22 2.22-.82 2.05-2.75 3.93-1.99 1.82-2.76 4.75 3.29-1 3.87-2.35l.47-.06q.47 0 .82.18 1.23.58 3.05.94-.76 2.16-2.35 2.69-.88.35-1.81.65-1.82.64-3.05 1.46-1.23.82-1.58 2.11-.47 1.05-.59 1.64-.35 2.29-.47 4.81 3.93-3.93 7.5-9.15l.12.12zm7.62-4.92q3.1-1.7 6.68-3.52.99-.46 1.52-1.49t.53-2.37q0-.53-.06-.82-1.64 1.05-3.28 1.4-.53 0-1.88.24-1.4 0-2.46-.35l-.52-.12q-.65 0-1.47.7 1.17.47 1.64 1.99-.12 1.64-.7 4.34zm62.46-13.59q-5.22 2.46-8.61 3.22-3.4.76-3.93 5.68l-.06.18q0 .29.65.76 1.58-.12 3.28-1.29 2.69-.88 5.21-2.58 1.88-1.34 4.51-2.93l-1.05 2q-1.7 3.28-3.87 3.86-2.46.18-2.22 3.17.29 1.87 1.52 3.63-1.11.94-2.58 1.73-1.46.79-4.34 2.02-4.57 1.23-4.92 5.62.3 2.88 2.58 5.51.88.88 1.99 2.17 2.23 2.23 4.9 3.75 2.66 1.52 4.65 1.52l.88-.11q2.64-.94 4.49-3.52 1.84-2.58 2.19-5.8 1.06-4.16 1.29-6.68 1.94-.88 2.7-.94 1.52-.17 2.81-1.99.18-1.11-.85-2.46-1.03-1.35-2.9-2.23-1.93-.88-4.22-.88-1 0-1.29.06-.58-.88-2.22-1.64 2.75-3.63 5.39-6.79-.18-2.58-1.88-3.75 2.75-1.12 4.1-1.53 2.4-1.4 5.51-1.87 1.29 0 2.52-.59 1.23-.58 1.35-1.41-.65-3.8-3.69-5.33-3.05-1.52-8.03-1.34l-2.93.35q-2.17-.18-3.17-1.41-3.1-2.58-9.72-3.4.82 1.7 1.87 2.7.35.82.62 1.67.26.85.09 1.14-1.59 1.52-4.57 3.05-3.17 1.7-5.63 3.4-.23.11-.47-.94-.58-1.47-2.22-3.28-.24-.18-.47 0l.11 1.7q0 5.91-3.28 11.3-.58.71-.7 1.88.47 3.28 2.58 5.86.23.17.47 0 1.64-3.05 2.63-6.62.94-3.69 2.05-6.86l-.11-1.29q.06-.41.64-.96.59-.56 1.41-.91.76-.35 1.58-.24l1.46.3q2.76.58 3.23.64 1.64-.53 3.86-1.41 1.23 1.29 1.97 1.88.73.59 1.37.59.18 0 .53-.12 3.46-1.06 4.34-5.16 1.46-1.05 3.86-1.76.47-.29 1.18-.29.93 0 1.73.47.79.47.96 1.23-3.98 4.51-11.13 7.27zm1.05 18.39q.65.3.47 1.06-1.52 2.11-3.75 2.81 1.23.24 1.99.24l1.24-.12.52-.06q.88 0 .59.53-.41 2.4-.82 3.72-.41 1.32-1.29 2.84-1.64 2.7-4.22 2.81-2.64-.11-5.27-1.64-2.64-1.52-3.87-3.4.41-1.29 1.76-1.99l2.46-1.52q.88-.29 1.99-1.06 3.34-1.81 8.2-4.22zm37.62-7.73v.12q0 .23.47.23 4.22-2.17 6.45-3.16.82-.3 1.87-1.06 4.98-2.34 8.61-4.68 3.99-2.58 8.97-5.04 1.81-.77 1.81-2.7 0-.94-.55-1.93-.56-1-1.55-1.64-1.82-1.29-3.7-1.35l-.82.23q-4.68 2.05-9.49 2.35l-1.4-.24q-1.24-.52-1.53-.35.24 1.64 1.53 3.75 0 .41.58.82.65.65.94 1.76.88 1 2.46 2.23-.06.7-1.29 1.52-4.22 3.16-9.84 7.03-2 1.23-2.23 1.29-.59.53-1.29.82zm11.25 14.3q-1.52-.12-1.52-.47 0-.18.47-.47 5.97-5.22 11.83-9.26 1.41-.88 2.35-1.64l2.22-.94q2.05-.99 4.28-1.4 2.17-.47 3.93-1.64.93-.53 1.05-1.41-.18-1.82-1.7-3.05-1.52-1.23-3.34-1.29-1.35.36-2.69 1.18l-2.82.82q-1.7.47-12.07 3.98-5.45 1.47-8.2 2.35-5.8 1.4-10.55 2.92.59-1.52.59-1.87 0-.23-.12-.23-.23 0-.58.35-.71 1.17-1.29 2.81 0 3.34 3.16 4.92 2.64-.64 4.92-1.76 5.8-3.04 10.32-4.45 2.4-1.7 4.68-1.87-5.92 5.21-11.95 9.84-2.23 1.87-2.23 4.8 0 2.23.91 4.16.91 1.94 3.43 2.58.35 0 1.08-.29.74-.29 1.03-.65 5.92-4.68 12.42-6.97.35 0 .59-.06.23-.06.7-.06 1.29 0 2.58.71 1.17 1.35 1.64 3.87.35 1.52 1.17 2.4.82.88 2.58 1.52 2.58-.35 2.58-4.22 0-5.51-2.96-8.9-2.96-3.4-8.06-4.28-.59.06-.59.47.18.7 1.18 3.28.11.35.47.7-7.09-.35-11.49 3.52zm70.08-24.96q-5.22 2.46-8.61 3.22-3.4.76-3.93 5.68l-.06.18q0 .29.65.76 1.58-.12 3.28-1.29 2.69-.88 5.21-2.58 1.88-1.34 4.51-2.93l-1.05 2q-1.7 3.28-3.87 3.86-2.46.18-2.22 3.17.29 1.87 1.52 3.63-1.11.94-2.58 1.73-1.46.79-4.34 2.02-4.57 1.23-4.92 5.62.3 2.88 2.58 5.51.88.88 1.99 2.17 2.23 2.23 4.9 3.75 2.66 1.52 4.65 1.52l.88-.11q2.64-.94 4.49-3.52 1.84-2.58 2.19-5.8 1.06-4.16 1.29-6.68 1.94-.88 2.7-.94 1.52-.17 2.81-1.99.18-1.11-.85-2.46-1.03-1.35-2.9-2.23-1.93-.88-4.22-.88-1 0-1.29.06-.58-.88-2.22-1.64 2.75-3.63 5.39-6.79-.18-2.58-1.88-3.75 2.75-1.12 4.1-1.53 2.4-1.4 5.51-1.87 1.29 0 2.52-.59 1.23-.58 1.35-1.41-.65-3.8-3.69-5.33-3.05-1.52-8.03-1.34l-2.93.35q-2.17-.18-3.17-1.41-3.1-2.58-9.72-3.4.82 1.7 1.87 2.7.35.82.62 1.67.26.85.09 1.14-1.59 1.52-4.57 3.05-3.17 1.7-5.63 3.4-.23.11-.47-.94-.58-1.47-2.22-3.28-.24-.18-.47 0l.11 1.7q0 5.91-3.28 11.3-.58.71-.7 1.88.47 3.28 2.58 5.86.23.17.47 0 1.64-3.05 2.63-6.62.94-3.69 2.05-6.86l-.11-1.29q.06-.41.64-.96.59-.56 1.41-.91.76-.35 1.58-.24l1.46.3q2.76.58 3.23.64 1.64-.53 3.86-1.41 1.23 1.29 1.97 1.88.73.59 1.37.59.18 0 .53-.12 3.46-1.06 4.34-5.16 1.46-1.05 3.86-1.76.47-.29 1.18-.29.93 0 1.73.47.79.47.96 1.23-3.98 4.51-11.13 7.27zm1.05 18.39q.65.3.47 1.06-1.52 2.11-3.75 2.81 1.23.24 1.99.24l1.24-.12.52-.06q.88 0 .59.53-.41 2.4-.82 3.72-.41 1.32-1.29 2.84-1.64 2.7-4.22 2.81-2.64-.11-5.27-1.64-2.64-1.52-3.87-3.4.41-1.29 1.76-1.99l2.46-1.52q.88-.29 1.99-1.06 3.34-1.81 8.2-4.22zm53.21-33.39q-.35 0-.47.11.58 1.64 2.46 3.75-5.86 3.64-12.54 4.81-3.4 2.05-3.28 5.51-.24 4.62 5.39 4.8 1.58-.29 3.63-.94-4.22 3.87-7.03 10.2-4.28 9.26-9.14 16.99l-.82 1.64-.23 3.11v.29q0 1.52.93 1l2.11-1.76 1.29-1.88q4.4-8.79 9.14-17.52.3-.76 2.23-4.1 1.64 1.82 4.45 2.35-2.52 2.69-3.87 5.39.06 3.22 3.87 3.51 3.17-.41 6.45-3.28l-.24 2.93q-3.98 1.82-6.62 2.52-3.28 1.05-6.38 2.64-.65-.47-1.29-.47-.65.82-.65 1.87 0 .76.44 1.58.44.83 1.26 1.35.82-.29 1.76-.82l6.09-2.34q2.87-1.29 5.39-2.11-.17 2.75-.11 3.75-.06 2.28.44 5.01.49 2.72 1.67 5.24.58-1.4.7-2.58 1.17-2.92 2.22-12.01 1.41-.11 1.88-.11 2.46 0 6.8.58.47.12.99.12 1.7 0 2.76-1.64.11-1.06-.53-1.99-.65-.94-1.82-1.47-1.11-.53-2.34-.41-.65-.06-2.4.12l-5.22.82q.29-2.11.35-3.87 2-.53 3.99-1.29 1.58-.64 1.76-1.4.05-.18.05-.65 0-1.87-2.63-2.28-.76.06-3.4.93-1.88-3.28-2.7-2.81-2.16-.06-3.28 1.99 1.12 1.18 1.17 2.46-1.34.71-3.75 1.18 1.7-3.75 3.23-5.1 1.17-1 2.99-1.47l3.16-.93q1.58-.59 3.05-.94 1.58-.12 1.99-1.29v-.35q0-.7-.24-.94-.17-.64-1.14-1.23-.97-.59-2.2-.59l-.64.06q-2.64 1.06-5.27 1.64l.47-2.11q-.36-1.64-2.11-2.22 1.99-1.06 4.57-1.99 2.52-.88 3.28-2.82-.18-1.17-1.58-1.75-1.41-.59-3.46-.59-1.82.35-3.52 1.41l-2.34 1.52q-1.11.35-1.99.94-3.52 1.46-7.15 2.11-3.22-.53-3.17-2.82-.05-.11-.05-.52 0-.88.64-1.35 1.05-.47 1.88-.59 3.98-.47 7.38-.64l1.99-.18 2.58-.11q2.4-.24 4.92-.36.64-.11.64-.7 0-.53-.2-1.64-.21-1.11-.67-1.99-1.47-1.76-3.29-2.43-1.81-.68-4.68-.85zm.93 17.34q.06-.06.24-.06.29 0 .58.47.36.82-1.28 4.04-2.17.94-4.34 2l-.7-.24q.41-.53 1.46-1.82.94-1.23 4.04-4.39zm51.68-5.51q2.58-1.17 5.51-1.76 1-.64 1-1.75 0-.41-.06-.59-1.35-4.57-5.16-6.56-.17-.06-.7-.06-.76 0-.94.53-.11 2.11-1.58 3.81-1.46 1.69-3.46 2.16-2.63.94-2.63 4.16 0 1.18.26 2.46.26 1.29.26 1.47.82 0 1.41-.59 1.41-.88 3.16-1.4h.18q1.05 0 1.23.93-2.28 7.62-11.84 15.94-.17-1.87-.46-1.87-.18 0-.82 1.87-.88 2.52-1.06 5.16.12.47.7.47l.82-.12q4.69-2.99 8.79-7.5l-.17 3.34q-.12 1.58-.27 3.98-.14 2.41-.38 5.92-.29 1.17 1.18 4.92.64 1 1.17 1 .35 0 .7-.35 1.11-1.99 1.17-4.98.53-7.09 1.99-12.78-1.87 4.75-2.93 10.43-.11.12-.17.12-.18 0-.29-.64-.24-.65-.12-1.7.47-4.05.94-6.21.29-2.05.35-4.1-.06-2.29 1.46-4.11l3.11-3.28q.64-.93.58-1.87-.35-3.69-2.93-6.45zm19.22 39.9q.47.3.71.3.35 0 .82-.3 1.87-1.75 1.87-6.03V46.41l.47-9.38q-.06-1.7-1.29-2.93.59-.58 1.76-.47h3.51q1.88.53 4.69 1.06.94-.12 1.17-1.06-.29-4.22-4.21-5.5-8.85 2.05-15.94 3.98 2.05-1.82 3.86-3.87 1.18-1.29 2.58-2.34 2.46-2.4 4.92-5.63-.11-1.4-1.31-2.46-1.2-1.05-2.32-.82-1.7.47-4.33.94-4.63.82-7.86 5.27 2.06-1.46 4.46-2.69.76-.12 1.67.47.91.58 1.43 1.46.53.94.3 1.58-.94 1.7-4.11 5.28-2.57 2.34-5.03 3.51-1.53.88-2.7 1.88-.23.52-.23 1.05 0 .41.23 1.29.18 2.05 2.11 3.05l5.62-2.81q1.53-.94 3.52-1.41l.76-.12q.65 0 1.2.24.56.23.74.58.46 4.51.46 8.67 0 4.46-.46 9.97-.53 1.46-1.65 1.46-.35 0-.46-.06l-3.46-1.64q-1.7-.7-5.45-2.69-.41-.24-.82-.24-.12 0-.12.12 0 .17.59.94 3.34 3.98 5.8 6.24 2.46 2.25 6.5 5.06zm62-22.91q-1.18-.41-1.88-.46-.35-.18-.7-.18-.94 0-1.7 1.11-.76 1.06-1.94 3.64-1.28 2.28-1.52 2.69-1.41 1.64-2.11 2.81 0-3.75 2.05-7.03 2.05-3.28 5.57-5.62l1.29-.59h.35q.64 0 1.29.24 4.69-1.06 9.72-2.46.47-.24.71-.74.23-.5.23-1.08 0-.65-.23-.88-.94-1.93-2.58-2.11h-.94q-3.28.35-6.68 1.29 2.23-4.51 4.92-8.2 1-1.47.94-2.35-.53-2.11-1.76-3.16-.64-1-1.28-1.29-.42-.53-.88-.53-.41 0-.65.41-.94.88-.94 2.46 0 .82 1.41.94.59.18.59.76l-.12.53q-1.64 3.75-4.22 6.33.12-2.87 1.17-4.92.35-1 .24-2.58.23-3.63-.94-6.18t-3.63-2.49h-.24q-.58 0-1.05.35l-.06 1.17.06 1.17q.17.94.17 2.35l-.06 1.75q.12 4.87.82 9.26-5.39 5.33-9.96 11.13 0-5.21 1.29-8.2 1.47-.88 3.4-2.23 1.11-.41 3.17-1.64.7-.47.7-1.7 0-.64-.24-.87-.11-1.12-1.75-1.18-1.64-.17-3.28.74-1.65.9-2.47 1.96-.7-1.52-1.87-3.05h-.12q-.47 0-.7.59-.53 6.5-1.76 12.65-1.93 2.23-3.28 4.46-.29-2.17-.7-3.28v-2.58q0-1.58.88-2.7.76-.94 1.58-2.34 1.64-1.47 1.52-3.17-.64-1.11-1.05-1.17-1-1.17-1.06-1.87.47-1.7.47-2.93-.29-2.29-2.05-3.55-1.76-1.26-3.93-1.02v.17q0 .53.47 1.35.53 1 .71 2.34.17 3.4-1.53 6.07-1.7 2.67-4.51 4.42-2.69 1.64-6.74 3.69-1.64-.46-2.22-1.05.05 2.28 2.11 4.66 2.05 2.37 5.03 3.43 1.64-.59 2.9-1.88t3.78-4.69q.3 3.99-1.64 7.47-1.93 3.49-6.09 7.42-.18.58-.18 1.52 0 .88.18 2.11.64 1.58 1.99 2.23 3.11-2.52 4.92-4.11-.64 1.82-.64 3.52 0 2.34 1.05 4.86 1 2.64 2.41 3.75.05.06.29.06.41 0 .88-.64-.24-4.16-1.17-6.27-.24-2.11-.24-3.23 0-.41.12-1.81 0-2.93 1.64-5.51 1.64-2.58 5.39-6.33 1 3.58 4.45 4.69 1.35-.64 1.29-2.11 2.58-5.62 6.8-11.13.17 2.4 1.05 4.1-2.46 1.41-4.57 3.75-4.98 6.09-4.68 12.07 0 3.16 1.29 6.09 1.28 2.93 3.57 4.87 2.23 1.99 5.1 2.46 3.04-1.23 4.42-4.49 1.38-3.25 1.44-8.7-.12-3.75-1.06-7.14-.94-2-2.22-2.47zm-3.99-27.18q.7 2.52 1.06 5.74-.36 3.05-1.06 5.86-.94-2.99-.94-6.33.18-3.11.94-5.27zm2.34 37.97q-.11.29-.58.29-.7 0-1.55-.85-.85-.85-.85-1.67 0-.35.17-.59 1.41-1.4 3.4-1.4.06.17.06.76 0 1.23-.65 3.46zm-3.28 7.5q-1.4.17-1.87-1.41l-.06-1.11q0-1.41.41-2.99 1.11.53 2.46 1.4 1.64 1.29 1.76 2.7l-2.7 1.41z"/></svg>