<svg viewBox="0 0 439 80" xmlns="http://www.w3.org/2000/svg"><path d="M40.74 11.46l2.4-2.34.42-.42v-.84q0-.36-.27-.69-.27-.33-.63-.33-.66 0-.96.9l-2.82 3.72-.06.12q0 .12.54.12.84 0 1.38-.24zM21.78 24.84q-.48 0-.48.6t.72.6h3.54q.42 0 .42-.6t-.66-.6q-.72 0-.72-.24v-7.26q.24-1.56.78-2.31t1.32-.75q.66 0 1.08.39.42.39.42 1.17 0 .36-.06.54v8.22q0 .24-.6.24t-.6.6q0 .6.72.6h3.96q.24 0 .24-.6t-.66-.6q-.72 0-.72-.24v-8.64q0-1.08-.27-1.74-.27-.66-1.11-1.2-.54-.36-1.32-.36-.84 0-1.68.42t-1.5 1.2q0 .3-.48 0-.3-.72-.99-1.14-.69-.42-1.53-.42-1.32 0-2.4 1.08-.72.42-.72 0v-.18q0-.48-.42-.48h-2.34q-.72 0-.72.54 0 .6.72.6.66 0 .66.24V24.6q0 .24-.66.24-.72 0-.72.6t.9.6h3.78q.72 0 .72-.6t-.72-.6q-.72 0-.72-.24v-7.26q0-1.2.42-2.13.42-.93 1.38-.93 1.02 0 1.26.24l.24 1.2v8.88q0 .24-.48.24zm13.86-9.6q-1.08 2.34-1.08 4.5 0 2.58 1.44 4.5 1.26 1.8 3.36 1.98h1.38q1.5-.18 2.52-1.62 1.02-1.44 1.02-3.48 0-.24-.54-.24-.6 0-.6.24 0 1.56-.96 2.79t-2.34 1.23q-1.02 0-1.74-1.38-.84-1.56-.84-4.8 0-.24.24-.24h6.06q.24 0 .24-.42.12-.72.12-1.02 0-1.62-1.08-2.91t-2.52-1.47q-.3-.06-.84-.06-2.52 0-3.84 2.4zm17.76 9.6q-.66 0-.66.6t.66.6h3.54q.72 0 .72-.6t-.72-.6q-.72 0-.72-.24v-7.5q0-2.04-.33-2.76-.33-.72-1.29-1.08-.96-.36-2.1-.36-1.2 0-1.74.66-.6.66-.6.24v-.18q0-.48-.72-.48h-2.1q-.72 0-.72.54 0 .6.72.6t.72.24V24.6q0 .24-.72.24-.48 0-.48.42 0 .24.18.51t.3.27h3.48q.72 0 .72-.6t-.42-.6q-.48 0-.48-.24v-7.26q0-1.62.66-2.82.18-.18.63-.36t.87-.18q.36 0 .54.18.54.6.54 2.22v8.22q0 .24-.48.24zM68.88 13.8v-.18q0-.48-.66-.48h-2.4q-.24-.06-.84-.06-1.14 0-2.34.39t-1.74 1.05q-.72 1.26-.72 2.64 0 .78.3 1.8.18.18.18.3 0 .18-.42.42-1.5 1.74-1.5 3.3 0 .84.54 1.38l.72.48q.18.18.18.42 0 .36-.42.72-.48.48-.48 1.2 0 .66.33 1.35.33.69.87 1.23 1.8.66 3.36.66 2.52 0 4.14-1.86.9-1.08.9-2.16 0-1.02-.69-1.8t-1.65-.9l-3.3-.48q-1.02 0-1.89-.39-.87-.39-.99-1.05v-.12q0-.66.78-1.26l.72.48q1.2.66 2.34.66 2.04 0 3.42-1.86 1.02-1.38 1.02-2.7 0-1.26-.54-1.86-.6-.6.12-.6.66 0 .66-.72zm-30.24.72q.3-.72.96-.72.66 0 1.29.9t.63 2.04q0 .42-.06.6 0 .48-.48.48H37.5q-.24 0-.24-.48.3-1.5 1.38-2.82zm26.76 5.64q-.42.24-1.2.24-.72 0-.96-.72l-.42-.96q-.06-.48-.06-1.38 0-1.26.3-2.28.48-1.26 1.38-1.26.84 0 1.11.93.27.93.27 2.73 0 1.62-.42 2.7zm-3.78 5.88q.72-.42.96 0h2.34q.84 0 1.41.39t.57.99q0 .42-.36.96-1.38 1.2-2.76 1.2l-.54-.06h-.66l-.96-.72q-.6-.78-.6-1.38 0-.66.6-1.38zm-14.76 9.6q-.42.18-.42.42t.27.6q.27.36.39.48.3.42.84.96l.3.36v.3q0 .42-.06.48-.18.18-.24.48-.3.72-.48 1.08-.06.18-.36.3-.54.18-1.68.39-1.14.21-1.62.21-.54 0-.78.24-.3.24-.6.24-.24 0-.36.12t-.78.12q-1.2 0-2.94.48-.78.24-1.56.36l-.84.12h-.3v-.12q0-.18-.12-.39-.12-.21-.24-.21h-.12q-.24-.18-.24-.36v-.36q0-.3-.39-.96-.39-.66-.69-.78-.12-.06-.54-.24-.06-.06-.36-.06-.36 0-.69.09-.33.09-.51.21l-.12.24.12.24.24.24.36.66q.72 1.86.72 2.22 0 .24-.12.24h-1.08q-.3 0-.6.09t-.54.27q-.36.12-.48.12t-.6.12q-.96.36-1.2.36h-.42q-.24 0-.6.12-.24.12-.84.27-.6.15-.9.21-.84.12-1.2.12h-1.02q-.48 0-.6.12-.06.06 0 .12t.24.12l.3.12.48.06q.6.12 1.08.12.24 0 1.56.12l1.02.12q.18 0 1.08-.24l4.2-.9.24.12q.18.12.3.33.12.21.12.33v.24q0 .12.48.48t.84.48q.48.12.72.12.48 0 .99-.15t.51-.45q0-.36.12-.48t.12-.36q0-.18.12-.3l.12-.24v-.24q0-.12-.21-.24T36.9 45h-.12v.12q0 .18-.15.39-.15.21-.45.21-.36 0-.36-.24v-.36q0-.12.6-.36t.96-.24h1.2q.6 0 1.02-.24.78-.36 5.4-1.26 1.86-.36 1.86-.24v.54q0 .36-.12.84l-.36 1.38-.36 1.44v.18q0 .24.24.42.42.3.48.48l.12.24h-.6l-.24.12q-.3.3-.66.3l-.6.12-.72.12q-.36 0-.87.12t-.63.24l-.12.24v.24l.12.36q.12.24.54.36.42.12.84.12.24 0 .84-.12l1.8-.6q1.32-.48 1.5-.48l.66-.12.96-.24q.6-.12 1.32-.36l.9-.18q.42 0 1.2.3.3.12.3 0l-.06 2.1q-.06 1.32-.24 3.18-.12 1.32-.12 2.1v1.8l-.12 4.92-.12 5.1q0 .72-.12 1.08l-.24.48-.12.24h-1.38q-.66 0-1.14-.24-.48-.24-1.08-.72-1.08-.84-2.28-1.38-.48-.3-.48 0v.36q0 .24 1.08 1.74l.6.84q.24.36.48.51.24.15.66.27.42.24.96.36.3.06.84.21t.78.27l.36.12h.6q.48 0 .48.12t.3.24q.3.12.48.12t.48-.24q.36-.3.6-.36t.36-.84q.12-.84.12-3v-7.56q0-2.22.6-7.62.12-1.32.42-2.22l.48-1.5.12-.36-.12-.36q-.12-.3-1.02-.78-.9-.48-1.56-.6-.3-.06-.9-.24-.48-.12-.6-.12-.3 0-1.02.24-.78.3-1.44.36-.36.06-.63.12t-.45.12l-.6.12h-.78l.12-.24q.12-.36.12-.6t.12-.6q.12-.18.24-.18t.18-.24l.72-1.44q.6-1.14.6-1.26v-.36q0-.24.36-.24l1.32-.12q1.2-.12 1.98-.12h1.62q.6 0 .84-.36.18-.36.42-.36h3.06q.84 0 1.2-.12.24-.06-.12-.36-.36-.18-.6-.42t-.36-.24h-.9q-1.08 0-3.18.24t-3.3.24h-1.08q-.18 0-.36-.12t-.18-.24q0-.18.24-.48.18-.36.18-.6 0-.12.12-.6l.12-.42v-.36q0-.24-.45-.72t-.93-.84l-.84-.6-.48-.3q-.12-.12-.18-.12-.12 0-.6-.24l-.12-.12q-.12-.12-.24 0l-.24.24-.12.12zM35.64 49.2q-.48 0-.48.12 0 .18-.24-.12l-.6.12q-.24.06-.96.21t-1.26.39q-.54.24-1.47.48-.93.24-1.47.24-.42 0-1.02.12l-.96.24-.48.12h-.12q-.12 0-.12.06v.72q0 .36.36.6t.96.24h.9q.36 0 1.95-.42 1.59-.42 2.55-.78.18-.06.57-.24.39-.18.93-.18h1.5q.12 0 .12.18 0 .12.12.6.06.24.18 2.82t.12 4.74q0 1.32-.06 1.38l-.24.12-.36.12q-.36.12-.42.12h-.36l-.84.18q-.42.12-2.46.6-.54.06-1.02.36-.18.12-.33.15-.15.03-.15-.03 0-.12-.12-.12t-.12-.36v-3.6l1.62-.24q1.08-.3 1.56-.36l.78-.12q.12 0 .6-.12t.6-.12q.42 0 .42-.48v-.48q0-.42-1.02-.78l-.48-.12q-.24 0-1.02.24-.6.18-1.56.3-.36.06-.6.12t-.42.12l-.48.12h-.12q-.12 0-.12-.12v-.66q0-.48-.12-1.17t-.24-.87q-.06-.06-.15-.21t-.69-.33q-.18-.06-.42-.06-.3 0-.6.3-.12.12-.12 1.02 0 1.14.24 2.34.24 1.26.24 1.74l.12 1.2q.06.54.06 1.26v2.52q0 .12-.18.12-.3 0-.36.06l-.24.12-.24-.12-.36-.18q-.24-.06-.24 0 0 .18-.36.42-.3.3-.6 1.08l.24.48q.78.48 1.32.48.96 0 1.98-.6l.48-.24.24-.12h.12l.48-.12.66-.24q.24-.06 1.08-.48 1.62-.84 2.82-1.14.3-.06 1.38-.6v.72q0 .42-.12.54l-.24.12q-.12 0-.3.24-.24.24-.24.84t.09.84q.09.24.45.36.9.36 1.32.18.18-.06.48-.06t.36-.24q.06-.18.06-1.2v-2.1q0-.48.12-.6t.12-.72v-8.1q0-.78.12-1.26t.12-1.08q0-.72-.12-.93-.12-.21-.54-.33-.42-.06-.72-.36-.24-.24-.84-.24-.54 0-.78.12l-.24.12zm8.4 2.34q-.72.24-.72.48v3.48q0 1.68-.69 4.62-.69 2.94-1.47 4.44l-.84 1.56-.12.3q-.12.48-.12.6 0 .36-.36.96l-.12.24h-.12q-.12 0-.12.3 0 .36.12.48l.12.24q0 .12.48.24t.72 0q.18-.06.18-.24l.36-.72q.42-.6.48-.9l.12-.36.24-.6q.12-.24.21-.48t.27-.54l1.14-2.1h.96q.36 0 .84-.12l.66-.24q.18-.06.33-.12.15-.06.27-.12.24-.12.69-.24.45-.12.75-.12.24 0 .66-.24.12-.06 1.32-.48.84-.3 1.02-.48.18-.12.33-.3.15-.18.27-.48.06-.12.06-.3 0-.3-.42-.3-.06 0-.66.12l-2.22.6-2.28.54-.9.24-.6.12q-.12 0-.24-.12t-.12-.24q0-.12.24-.42t.24-.6q0-.12.12-.6t.12-.6v-.66q0-.24.12-.24l.24-.12q.06-.06.96-.36.84-.3 1.74-.36.96-.12 1.86-.36.9-.24 1.14-.36.24-.06.24-.48v-.54q0-.24-.24-.36t-.54-.12h-.48q-.54.06-1.92.3t-1.86.42l-.66.24q-.12 0-.12-.12v-3.54q0-.18-.15-.39-.15-.21-.33-.33l-.48-.24q-.24-.06-.48 0l-.24.12zm68.52-42.66l.48-.42q.18-.18.18-.36 0-.54-.78-.96-.24-.12-.36-.12-.48 0-1.2.72l-2.34 3.48q-.42.72.18.72.54 0 1.26-.72 1.8-1.56 2.58-2.34zm-4.02 9.84q-.48.18-1.62.54-1.14.36-1.8.9-.66.54-.78 1.38l-.24.72v2.1q.54.9 1.44 1.41.9.51 1.92.51 1.5 0 2.76-.96.48-.78.48 0v.48q0 .24.66.24h2.58q.48 0 .48-.48t-.66-.48q-.72 0-.72-.48v-7.98q0-1.62-.72-2.34-1.02-1.38-2.94-1.38-1.98 0-3.6.72-.72.6-.72 1.14v3.06q0 .24.48.24t.9-.24q.24-1.68 1.17-2.94.93-1.26 1.77-.96.9.42 1.32 1.8v2.1q-1.14.9-2.16.9zM89.1 14.28h.48q.24 0 .24-.48 0-.42-.24-.42h-4.2q-.72 0-.72.42 0 .48.48.48.42 0 .9.48l3.54 11.04q0 .66.72.66h.24q.24 0 .24-.66l2.1-5.64q0-.66.42-.24l1.68 6.12q0 .42.72.42.66 0 1.14-.66L99.9 15q.3-.72.84-.72t.54-.48q0-.42-.66-.42H97.8q-.24 0-.24.42 0 .48.24.48h.66q.72 0 .24.48l-1.86 7.26q-.48.78-.48 0L94.26 15q-.06-.12-.06-.3 0-.42.54-.42h.72q.24 0 .24-.48 0-.42-.24-.42h-4.68q-.24 0-.24.42 0 .48.36.48.3 0 .3.48l.96 2.58v.72l-.96 4.2q-.42.42-.42 0l-1.92-7.5q0-.48.24-.48zm21.6 5.16v2.1q0 1.56-.66 2.67-.66 1.11-1.5 1.11-.36 0-.66-.24l-.72-.72q-.36-1.08-.36-1.92 0-.96.36-1.56.3-.3.96-.72l1.86-.72q.72-.3.72 0zm-4.92 16.68q-.3.18-.36.42l-.12.24.36.36q.18.24.78.84l1.98 1.98q.12.12.12.48v2.76q0 1.2-.12 1.56l-.18.6q-.12.36-.24.48t-.84.3q-.78.3-1.14.36-.36.06-1.08.48l-.72.36h-.78q-.24 0-.36.12-.18.18-.72.24-.6.06-1.5.36-.9.24-1.08.24h-.48q-.12 0-.12-.12t-.12-.24q-.12-.12-.24-.12h-.3q-.84 0-1.2.66-.48.96-.48 2.7v.96h-.06q-.3 0-1.2.24-.6.18-2.82.72l-.72.12h-.36v-.48q0-.48.36-2.04l.36-2.34.36-1.98.36-.54q.42-.84.42-1.8 0-.6.21-1.92.21-1.32.39-2.16l.12-.84q0-.3-.24-.6-.24-.24-.36-.78-.12-.48-.45-.72t-.57-.24h-.6q-.36 0-.36.12v2.94q0 1.44-.27 4.26t-.75 5.22q-.6 2.7-.72 3.42-.06.48-.24 1.02-.06.36-.24.36h-.12l-.24.12q-.6.36-.9.36-.24 0-.36.12l-.24.12h-.24l-.48.12q-.3.06-.72.48-.3.3-.66.54l-.72.48q-.3.24-.48.24h-.12q-.18.24-.36.24l-.24.12q-.12.12-.3.12h-.6l-.24.12-.48.48-.12.24q0 .12.24.36l.48.54q.3.48 1.02.48.54 0 .84-.24.54-.42 1.44-.84 1.62-.78 1.98-1.02.96-.6 1.14-.6h.24q.12 0 .12.12v2.7q0 .24.36.24h.48q.06 0 .36-.48.24-.42.24-1.08 0-.3.12-1.26l.06-.84q0-.12.36-.33.36-.21.6-.21.12 0 .48-.12.12-.06.27-.12.15-.06.33-.12l1.14-.36q1.2-.36 1.32-.48l.42-.24.12.12q.12.12-.48 2.28-.6 2.16-1.02 3.36-.3.66-.6 1.14l-.36.6h-.78q-.3 0-1.47-.48t-1.71-.78q-.24-.06-.36-.48-.12-.3-.24-.3-.3 0-.48.66l-.18.72q-.06.06-.06.36t.09.54q.09.24.15.24h.12l.36.12q.36.12.96.72l.6.36.54.3q.12.12.36.12h.24v.48q0 .24-.69 1.41t-.93 1.41q-.96.96-1.2.96t-.36-.36q-.12-.36-.33-.6-.21-.24-.33-.24h-.24q-.12 0-.24.12t-.12.24q0 .18.24.6.18.3.27.6.09.3.21.54.12.42.21.66.09.24.21.24t.48-.18q.42-.24.96-.36 1.2-.36 2.1-1.38.6-.84.84-1.32.42-.72.72-1.02.24-.36.54-.36h.36q.12 0 .36.24.3.3.48.36l.78.42.24.12h.12l.24.24.12.12q.18.18 2.7 1.68.36.12.72.12.18 0 .27.03.09.03-.03.09-.3.12-.72 0-.6-.12-1.26-.12-.72 0-1.08.12-.24.06-.24.42v.6q0 .48.96.48h.54l.36.12.36.12q.12 0 .12.12t.24.12q.54 0 1.5-.36.48-.12.84-.12h.6l.36-.12q.3-.18.99-.39.69-.21 1.35-.21h.78q.48 0 1.44-.36.24-.12 1.98-.42l1.08-.12h.78q.48 0 .96-.12t.6-.24q.18-.18.48-.24.36-.12 1.14-.12l3.06-.12 3.3-.12q.78 0 1.86-.12l.9-.12q.3 0 .54-.18.24-.18-.18-.54-.42-.42-.9-.42-.36 0-.72-.12-.24-.12-.84-.24t-1.26-.12q-.42 0-1.62-.12l-1.2-.12-.72.12-.72.12h-.66q-.36 0-.72.12t-.48.12h-.78q-.48 0-1.08.12-.6.12-.84.12h-1.26v-.6l.12-.24q.18-.18.36-.63t.18-.81q0-.42.12-1.05.12-.63.24-1.17.18-.48.42-.72l.3-.3.72-.36q.6-.24 1.62-.39 1.02-.15 1.44-.21.78-.12 1.02-.48t0-.84l-.36-.54-.24-.12h-.54q-.36 0-.84.12t-.84.12q-.78 0-1.38.36-.36.12-.48.12h-.24l-.12-.24q-.06-.18-.24-.36t-.24-.84q-.12-.72-.54-1.29-.42-.57-.96-.81l-.72-.36-.24-.12.48-.24.24-.12q.36-.12.48-.12t.48-.12l.84-.3q.48-.24 1.26-.24 2.4 0 4.44-.6 1.2-.36 1.32-.48l.18-.24.12-.24-.12-.24q-.12-.12-.3-.54l-1.92.24h-4.56q-.72 0-1.02.06l-.48.12-.12-.12q-.06 0-.06-.48 0-.78.12-1.77t.3-1.23q.3-.36.36-.36t.18-.12l.24-.12.24-.12.21-.21q.15-.15.39-.15l.72-.12q1.08-.3 1.74-.3.36 0 .48-.12.18-.18 1.02-.36l.48-.24q.48-.18 1.08-.78.6-.6.6-.78v-.36q0-.12-.72-.12-.78 0-1.83.12t-1.53.36l-1.08.48-.72.24q-.42.12-.6.24-.12.12-.6.12v-5.64l-.42-.36q-.54-.3-1.32-1.02-2.52-2.1-3.06-2.1h-.36l-.18.24zm2.1 13.32q0 .36.12.84t.12.6q0 .3.24.78l.12.54q0 .18-.21.27-.21.09-.51.15l-.72.12q-.24 0-.66.12-.42.12-.48.24-.12.12-.36.12-.3 0-.75.12t-.57.24q-.12.12-.36.12-.66 0-1.14.3-.3.18-.9.39-.6.21-1.08.21h-2.28V54q0-.12.24-.45t.48-.45q.3-.06.36-.36.12-.24.36-.36l.24-.12v-.12l-.12-.24-.24-.24q-.18-.18-.36-.24-.24-.06-.24-.24v-1.74h4.32q.36-.06.99-.24t1.17-.36q.42-.12.78-.36.48-.18.72-.18h.72v1.14zm.24 5.64q0 .48.12.6.3.42.3.78 0 .12.12.48t.12.72q0 .6.24 1.62l-1.38.48q-1.38.36-2.58.84-.96.36-1.32.36-.72 0-2.37.42-1.65.42-1.65.9 0 .3.6.45.6.15 1.35.27.75.12 1.05.18l.66.12q2.46-.9 3.06-1.08l.84-.24.48-.12q.24 0 .78-.24v4.68q0 .24-.81.6t-1.47.36q-.6 0-1.08.12-.84.24-1.08.24-.48.06-1.02.24t-1.17.36q-.63.18-.99.24-.12 0 0-.12l.36-.36q.24-.24 0-.6-.48-.72-2.28-1.74-.9-.48-2.22-1.5-1.32-1.02-1.32-1.2v-.24q0-.18.24-.6.24-.54.3-1.08.3-1.08 1.2-2.94.36-.66.36-1.14V55.8l.24.18q.24.24.36.24l.36.12q.24.12.54.12l.96.12.84.12q.36-.06.9-.24t.84-.36q.24-.12.57-.21.33-.09.57-.21.48-.12.72-.12.36 0 .72-.12t.48-.24q.12-.12.36-.12l.54-.12q.42-.12.93-.24t.75-.12q.06 0 .06.12 0 .18-.18.36zM147 22.26q0 1.44.72 2.1l.66.72q.24.48-.42 1.14-.72.72-.36 1.89t1.5 1.89q1.74.78 3.87.45t3.57-1.77q.96-.96.99-2.01.03-1.05-.66-1.86-.69-.81-1.65-1.11l-3.54-.24q-1.44 0-2.25-.36t-.81-1.08q0-.72 1.2-1.38l.48.24q1.38 1.08 3.15.78 1.77-.3 2.85-1.74.9-1.26.9-2.64 0-1.38-.48-2.04-.36-.48.24-.48t.6-.72v-.42q0-.24-.48-.24h-2.82q-1.32-.24-2.79.06t-2.13 1.32q-1.38 2.16-.24 4.44 0 .72-.48.72-1.62.96-1.62 2.34zm3.06 3.96q.3-.42.72 0h2.76q1.14 0 1.71.66.57.66-.27 1.74-1.44 1.38-3.54.9h-.66l-.96-.72q-.78-1.38.24-2.58zM151.44 15v-.24q.3-.72 1.2-.72.9 0 1.38 1.08.48 1.08.36 2.58-.06 1.44-.66 2.22-.6.72-1.08.72-.48 0-1.2-.96v-.72q-.48-2.58 0-3.96zm14.1 10.56q.42-.42.42 0v.24q0 .42.72.42h2.34q.72 0 .72-.6 0-.54-.72-.54t-.72-.24V13.62q0-.24-.18-.24h-3.3q-.72 0-.72.42 0 .48.72.48h.48q.24 0 .24.48.42 3.78 0 7.26 0 1.38-.48 2.46-.42.96-.84.87-.42-.09-.9-.63-.36-.36-.36-1.26v-9.84q0-.24-.72-.24h-2.82q-.72 0-.72.42 0 .48.72.48t.72.48v7.98q0 1.68.81 2.7.81 1.02 2.25 1.02 1.38 0 2.34-.9zm6.3-.48q-.72 0-.72.54 0 .6.24.6h4.26q.66 0 .66-.6 0-.54-.66-.54-.72 0-.72-.24V13.62q0-.24-.72-.24h-2.34q-.72 0-.72.42 0 .48.48.48t.48.48v10.08q0 .24-.24.24zm4.92-16.86v-1.2q0-.24-.72-.24h-4.68q-.48 0-.48.24v1.2q0 .24.48.24h4.68q.3 0 .72-.24zm-23.64 28.32q-.48.3-.48.36v.48q0 .36.12.48t.24.42q.12.3.12.48l.12.36q.06.18.06 1.38t-.18 3.18q-.24 1.86-.24 3.42l-.48.24q-.9 0-1.38.36-.24.12-.6.24l-.72.24q-.48.12-.72.12h-.9q-.24 0-.6.12l-.48.18q-.48.18-.48.48v.24l.12.36.12.24.72.48.48-.48.42-.24.36.12.48.12h1.2q.36 0 .48-.12t.3-.12q.24 0 .36-.12l.24-.12q.18 0 .48-.24.36-.3.36 0-.06.36-.24.96t-.36 1.02q-.06.3-.24.48-.12.12-.24.78t-.12 1.2q0 .54-.24.84-.24.3-.24.48v.12l-.42.24q-1.2.6-2.34.9l-1.08.36q-.48.12-.84.12-.6 0-1.35.12-.75.12-.87.24t-.03.48q.09.36.27.6.06.24.48.36.48.12 1.08.12h1.86l1.08-.48q1.02-.42 1.14-.6l.12-.12h.12q.12 0 .12.12 0 .3-.15.93-.15.63-.33.93l-.36.48q-.18.18-.24.48-.12.42-.36.66-.24.36-.36.72l-.42 1.14-.6 1.44q-.42 1.14-1.08 2.1l-.36.72v.72q0 .6.96-.36.9-.9 1.56-2.04.66-1.26.78-1.38.18-.24.48-.96.36-.84.6-1.26.06-.18.36-.48.18-.18.18-.3l.12-.24q.36-.36.36-.72v-.24l.12-.36.12-.36.12-.24q.12-.12.24-.33.12-.21.24-.45.12-.24.24-.57.12-.33.12-.51v-.24q0-.12.12-.12l.48-.12q.36-.12.54-.12.3 0 1.2-.36l.48-.18q.12-.06.27-.12.15-.06.33-.12.3-.12.66-.36.3-.24.6-.24h1.08q.06 0 .06-.12t1.17-.36q1.17-.24 1.29-.12l.12.12v.36q0 .18.12.39.12.21.24.21l.24.12q.18.18.63.24t.45-.12v-4.26l.12-1.74.12-1.68q0-.42.12-1.02.3-1.08.3-2.22v-1.5l.96-.48.96-.36.24-.12h.48q.24 0 .6-.15t.54-.33q.24-.24.72-.24.42 0 .54-.12.24-.24 1.2-.48l.6-.18q.6-.36 1.14-.36h.24q.24.18.24.36l.12.3q.12.36.12.48l-.12 1.26-.12 1.68q0 .72-.09 1.53t-.27 1.41q-.12.6-.12 1.02 0 .3-.12 1.62-.12 1.44-.12 2.04 0 .66-.12 1.86-.12 1.32-.12 1.74 0 .9-.06 1.08-.12.36-.12.48v.36q0 .12.24.12.18 0 .78.36.6.36.96-1.08.3-1.2.51-4.62.21-3.42.27-4.86v-.72q0-.54.36-.9.12-.12.12-.84v-4.56q0-.12-.24-.36-.18-.18-.3-.72-.06-.42-.54-.78-.48-.36-.78-.36h-.36l-.48.18q-.3.24-.54.24-.24 0-.48.24-.18.18-.75.42-.57.24-.99.42-.78.18-1.32.24-.9.06-1.62.48-.6.3-1.08.42-.36.06-.72.36l-.36.24-.3-.12-1.08-.36-.72-.18v1.14q0 1.02-.12 1.86-.12.96-.12 1.98v2.1q0 1.26-.24 4.38h-.66q-.72 0-2.1.36-1.38.36-2.1.66-1.08.54-1.56.84-.3.24-.6.24h-.48l.12-.24q.18-.54.24-1.2.06-.48.6-2.58l.48-1.74.12-.24q.18-.12 1.32-.21 1.14-.09 1.26.03l.24.12q.12 0 .45-.24t.33-.36v-.36q0-.3-.06-.36l-.84-.84-1.2.24h-1.38v-2.7q0-.54.12-1.38.12-.84.12-1.8v-1.26q0-.18-.12-.42t-.24-.3q-.36-.24-.36-.9v-1.08q0-.66-.33-.81-.33-.15-.69.21l-.36.36zm13.08 10.32q-.18.42-.12.54.06.12.36.3t.63.63q.33.45.33.75 0 .36-.24 1.2t-.36 1.02q-.3.48-.72 2.22-.72 3-1.26 4.2-1.26 2.7-1.74 3.42-.12.12-.6.96l-.6 1.2-.36.78q-.3.72-.48.96-.66 1.08-.9 1.62t-.24.84q0 .3-.48 1.86h.84q.12 0 .12-.36t.15-.81q.15-.45.33-.57.06-.06.78-.84l.84-.9q.3-.3.36-.48l.12-.24v-.12q0-.12.24-.36.18-.24.18-.6 0-.42.24-.48t.48-.42q.24-.36.24-.48v-.24q0-.18.15-.39.15-.21.33-.33.24-.06.72-.84.48-.72 1.29-2.34.81-1.62.81-1.98v-.6q0-.24.24-.66.06-.12.48-1.08.24-.84.54-2.04.3-1.2.36-1.8v-1.8q0-.3-.12-.42l-1.14-1.2q-.36-.36-.48-.36h-1.2q-.12 0-.12.12v.12zm1.44 10.32q-.24.72-.6 3.63t-.36 4.11v2.1q0 .78.12 1.38.12.48.36.48h.6l.24.12q.12.12.33.24.21.12.45.24.3.18.72.27.42.09.84.09h4.8q1.74 0 2.4-.12.66-.12 1.5-.48.96-.42 1.74-.66.24-.06.42-.12l.36-.12.84-.24q.54-.18.72-.27.18-.09.18-.45v-.84q0-.3-.06-.36l-.12-.06-.12-.48q-.12-.6-.12-1.08 0-.66-.72-4.56-.3-1.2-.48-1.2h-.48v1.08q0 .54-.12 1.86-.12 1.44-.12 2.1v1.86q0 .84-.06.84l-.24.12-.24.12q-.18 0-.51.12t-.45.24q-.12.12-.48.12t-.48.12q-.18.18-.42.24-.48.18-2.7.36t-3.06 0q-.9-.24-1.86-.24-1.02 0-1.32-.24-.6-.36-.6-.96 0-.78.15-2.58t.33-2.82q.3-1.14.36-1.98l.12-.9-.12-.36-.24-.48q-.06-.24-.24-.24h-1.26zm-13.38 2.34q-.42.66-.27.9.15.24.75.54.42.24.6.24.24 0 .66.66.96 1.56 1.8 2.22.6.6 1.02.6h.48q.12 0 .12-.12t.12-.12q.18 0 .24-.36.12-.36-1.41-2.22Q156.84 60 156.6 60h-.36l-.24-.12-.3-.24q-.3-.18-.69-.27-.39-.09-.63-.09-.12 0-.12.12v.12zm54.54-49.2h.24q0-.42.48-.72h.24v.24q.66 1.08.96 1.98.18.84.66.84.48 0 .48-.72V9.6q0-.48-.72-.72-1.32-.66-2.73-.03t-1.95 1.89q-.48 1.26-.24 2.4 0 .24-.66.24-.72 0-.72.42 0 .48.72.48.66 0 .66.48v10.08q0 .24-.66.24-.72 0-.72.54 0 .6.72.6h4.2q.72 0 .72-.6 0-.54-.72-.54h-.24q-.48 0-.72-.24V14.76q0-.48.72-.48h1.38q.72 0 .72-.48 0-.42-.72-.42h-1.38q-.72 0-.72-.24v-2.82zm10.56 8.64q-1.44.3-2.61.93-1.17.63-1.35 1.65l-.48.72v2.1q1.08 1.74 2.91 1.95 1.83.21 3.39-.75.24-.66.24 0v.24q0 .42.48.42h2.82q.72 0 .72-.6 0-.54-.72-.54t-.72-.24v-7.98q0-1.86-.72-2.58-1.32-1.14-3.12-1.14-1.68 0-3.42.48-.72.6-.72 1.14v3.06q0 .48.48.48t.96-.48q.24-1.68.99-2.94t1.71-.96q1.02.36 1.02 1.8v2.1q-.6 1.14-1.86 1.14zm1.86 2.58h.24q-.3 1.92-1.14 3.06-1.02 1.2-1.44.48l-1.14-.72q-.3-2.1.48-3.48.18-.48.9-.48l1.62-.72q.78-.48.48 0v1.86zM218.4 9.12l2.82 2.1q.24.72.96.72.78 0 .48-.72l-2.82-3.48q-.42-.6-.9-.63-.48-.03-.84.24t-.36.51q0 .3.48.6l.18.66zm19.02 5.16q-.36-1.14-3.24-1.14-1.2 0-1.68.54-.48.66-.48.36v-.42q0-.24-.72-.24h-2.58q-.66 0-.66.42 0 .48.6.48.54 0 .54.48v10.08q0 .24-.54.24-.6 0-.6.54 0 .6.66.6h4.02q.24 0 .24-.6 0-.54-.48-.54t-.48-.24v-7.26q0-1.86.96-2.82.24-.48.81-.6.57-.12 1.05.24.48.36.48.84v9.6q0 .24-.72.24t-.72.54q0 .6 1.2.6h3.48q.72 0 .72-.6 0-.54-.54-.54-.6 0-.6-.24V17.1q0-2.1-.72-2.82zm-11.04 22.5l-.48.24.6.6q.18.18.24.48.18.48.48.66.12.06.24.3t.12.42l.12.36q.12.24-.12.93-.24.69-.48.93-.24.24-.24.36 0 .18-.78.24l-1.8.24q-.9.12-1.38.12-.6 0-1.56.36-.84.18-1.14.24-.24.06-2.22.42-1.44.36-1.68.36h-.36q-.12 0-.12-.12v-.3l-.18-.24h-.12q-.12 0-.24-.21t-.12-.39q0-.24-.15-.69-.15-.45-.33-.75-.18-.3-.45-.42t-.63-.24l-.54-.12q-.24 0-.36.12-.18.18-.6.36l.24.18q.3.24.36.72.06.3.48 1.26.3.9.3 1.08 0 .24-.12.24h-1.02q-.12 0-.48.12-.48.3-1.26.48l-1.86.36-1.8.36-.72.12h-1.14l-1.14.12q-.48.06-.57.12-.09.06.21.18.48.24 1.74.24.9 0 1.86.12l.96.12 1.02-.12q1.14-.18 2.46-.42t1.74-.36q-.12 0 0 .12l.24.18q.36.24.36.48v.6q0 .48.9.72t1.44 0l.6-.36.24-.24q.12-.12.12-.48 0-.24.12-.84.12-.42 0-.54-.12-.12-.36 0-.24.06-.24.36 0 .24-.12.24h-.24q-.18 0-.36-.24t.12-.36q.78-.18 1.32-.24.48-.06 1.26-.24.84-.24 1.08-.24l1.2-.24q1.14-.24 1.26-.24l2.34-.36q1.5-.24 1.62-.12l.12.12v.24q0 .12-.12.48-.18.6-.24.84-.12.84-.12 1.5v1.2q0 .66.6.66.36 0 .48-.12l.12-.24q0-.06.12-.18.36-.36.36-.72 0-.24.15-.72t.45-.84q.36-.66.42-.78l.6-1.32v-.24q0-.18.24-.18l1.56-.12q1.68-.12 2.22-.12h1.26q.36 0 .48-.12.6-.6.84-.6h.66q.24 0 1.08.12.6.06.84 0l.3-.12.24-.12.12-.12-.24-.12q-.24-.12-.36-.36-.06-.24-.18-.24l-2.1.12q-2.76.12-3.66.12h-2.1q-.48 0-.48-.12v-.12l.12-.36q.12-.36.12-.54 0-.12.12-.6t.12-.6q0-.24-.12-.36-.18-.18-.24-.48-.12-.3-1.05-1.02t-1.41-1.08q-.12-.06-.27-.12-.15-.06-.33-.12-.12-.06-.21-.09t-.03-.03q.18 0-.36.48zm-17.82 11.94q-.48.3-.54.48-.06.24 0 .36l.12.24q0 .12.6.48.42.3 1.38.6.72.18 1.74.66.42.24.84.36t1.56.72q1.14.6 1.74.6.6 0 .66-.36.06-.3.24-.48.12-.12-1.29-1.05-1.41-.93-2.31-1.29l-1.2-.48-.72-.24q-.3-.06-.66-.24-.6-.36-1.08-.48l-.36-.06-.12.06q-.12.12-.36.12h-.24zm19.68 2.82q-1.32.72-1.62.72-.24 0-1.26.36-1.26.42-1.56.48-1.08.3-1.38.54-.18.18-.75.42-.57.24-.99.42-.48.12-1.08.12h-1.5q-.12 0-.12.24v.48q0 .24.24.48.18.24.9.24t1.86.18v4.14q0 1.8-.18 2.76-.24.96-.24 1.2v4.02q0 .12.24.3l.78 1.08q.54.78 1.38 1.14.84.36 2.4.6 1.14.24 1.86.24h1.8q1.14 0 1.14-.12t.12-.12h2.34q1.14 0 2.52-.12 1.38-.12 2.28-.24.54-.12.72-.3l.3-.36.12-.12h.36l1.08.12q.72.12.93-.24.21-.36-.09-.96-.42-.6-.48-.9-.06-.3-.24-.48-.12-.12-.12-.6v-1.2q0-.66-.24-1.59t-.36-.93h-.24q-.12 0-.45 1.14t-.45 1.86l-.12 1.08v1.26q0 .24-2.04.6t-2.88.24l-1.2-.12h-6.78l-1.74-.6q-.36-.12-.6-.33-.24-.21-.24-.33l-.12-.36q-.12-.36-.12-2.94t.12-3.18q.12-.6.12-.96l.12-2.64q.06-2.22 0-2.46l-.12-.36v-.24q0-.18.36-.24.3-.12.66-.24l.72-.24q.48-.12.6-.12.24 0 .36-.12t.36-.12q.18 0 .3-.12l.24-.12.36-.12q.78-.3 1.2-.3.54 0 1.14-.36.24-.12.57-.24.33-.12.63-.12.12 0 .6.12l.42.12q.12 0 .12.12v.9q0 3.78-.66 6.48-.42 1.8-.72 2.1-.24.24-.36.24h-.24q-.12 0-.78-.36-.48-.24-1.56-.6-.42-.12-.78-.24l-.72-.24-.84-.18q-.18 0-.24.24t.12.42l1.32 1.32q.3.3 1.32.9 1.02.6 1.2.6h.48q.12 0 .24.12t.12.24q0 .12.36.12.72 0 1.32-.36.18-.06.18-.24.06-.36.39-1.05.33-.69.45-.69t.12-.36v-.72l.12-.48q.12-.36.12-.54 0-.3.24-.6t.24-.84v-1.56q0-.9.12-1.26t.12-.72q0-.3.12-.78.3-.78.3-2.1 0-.6-.18-.96-.24-.36-.36-.36l-.24-.12q-.18-.18-.36-.24-.3-.12-.99-.21t-1.11.03l-1.2.3-.72.24zm-24.12 5.64q-.42.42-.36.78.06.36.36.54l.36.12q.18 0 .24.06l.24.12h.12l.84.24q.84.24 1.62.36 1.56.24 3.06.84.48.24.78.24.3 0 .48.48.66-.48.84-.48l.24-.12.12-.12v-.12q0-.18-.51-.78-.51-.6-.81-.66-.78-.18-1.02-.3-.96-.3-2.43-.75-1.47-.45-1.95-.45h-1.14l-.24-.12-.24-.12-.24.12-.24.12h-.12zm11.94 4.44l-.66.72q-.42.42-1.08.9.06-.06-1.14.96l-1.2.96-.6.48-.24.24q-.24.24-.66.42-.24.12-.45.24-.21.12-.39.24l-.72.48-.48.36-.18.24q-.24.36-.48.36h-.96q-.12 0-.12.12V69l-.12.24q-.18.18-.48.24-.42.12 0 .6.36.48.96.48.48 0 .84.12.24.12.69 0 .45-.12.57-.36.06-.18.24-.36l.84-.84 1.5-1.38q3.18-2.64 4.38-4.26.66-.96.66-1.26v-.6q0-.24-.12-.33-.12-.09-.36.09l-.24.24zm61.98-46.86l-5.16 11.04q-.42.24.24.24h7.68q.24 0 .24-.24v-4.5q0-.42-.42-.42-.48 0-.48.42l-.48 1.2q-.3 1.44-.6 1.98-.36.6-.6.6h-2.1q-.48 0-.48-.48l5.64-10.98q.24-.24-.48-.24h-7.26q-.66 0-.66.24v3.72q0 .72.6.72.54 0 .9-.84l1.08-2.46.18-.48h1.92q.3 0 .39.12.09.12-.15.36zm10.08-3.96l-2.82-3.78q-.42-.54-.93-.6-.51-.06-.84.21-.33.27-.33.63v.96l.42.24 2.58 2.34q.66.42 1.44.42.66 0 .48-.42zm.18 14.28q-.18 0-.18-.48V13.62q0-.24-.72-.24h-2.82q-.72 0-.72.42 0 .48.72.48t.72.48v9.84q0 .48-.72.48t-.72.48q0 .48.72.48h3.72q.72 0 .72-.48t-.72-.48zm-8.88 10.32q-.42.24-.36.54.06.24.6 1.2l.84 1.5.3.84v2.94h-1.98q-.9 0-1.74.6-.42.36-.84.36h-2.58q-.12 0-.3.18-.48.48-.84.48l-.36.12q-.36.12-.72.12-.48 0-.48.12v.48q0 .72.96.96.54.12.84-.12.72-.42 1.14-.6.48-.12.96-.12h1.32q.54 0 .9-.12.6-.18.84-.24.54-.12.9-.36.78-.48 1.2-.48h.6l-.12.12q-.18.18-.24.51t.36.33q.42 0 .78-.36.42-.42.6-.48.24-.06.6-.36.36-.18.6-.18.06 0 .42-.12.12-.06.27-.12.15-.06.33-.12.3-.06.48-.24l.24-.12h1.38q.24 0 .84-.12t1.08-.12q.6 0 1.02-.24.48-.18 1.11-.33.63-.15 1.11-.15h1.68l.36.12q.12.06.21.12t.21.12q.18.06.36.24l.12.12v.12q0 .12-.84.93t-1.38 1.17q-.78.48-1.89 1.26-1.11.78-1.41 1.08-.36.36.12.36h.72q.24 0 1.44-.57t2.1-1.17q.12-.06 1.38-.84l.96-.48q.42-.24.66-.24h.72q.42 0 .81-.3.39-.3.51-.6l.18-.48.12-.24-.3-.36q-.3-.36-.6-.63t-.48-.33q-.78-.3-.96-.42-.36-.12-.66-.12-.36 0-.72-.12-.24-.12-.57-.24-.33-.12-.63-.12h-2.64q-.6 0-1.2.12t-.84.24q-.66.24-.78.24-.3.06-.57.12-.27.06-.51.12-.6.12-.84.12h-.78q-.48 0-1.32.21-.84.21-.9.33l-.24.12q-.12 0-.12-.36v-1.62q0-.9-.48-2.16-.48-1.26-.96-1.62-.48-.3-.66-.54-.24-.24-.63-.33-.39-.09-.57.09l-.24.24zm-11.04 5.82q-.66.48-1.26 2.13t-.6 3.03v1.86q0 .42.36 1.02.36.6.6.78 1.26.72 1.74.24.36-.36 0-.84l-.6-.84q-.24-.24-.24-.42l.12-.48q.12-.48.12-.72t.12-.72l.12-.42q0-.12.12-.12t.12-.24v-.6q0-.18.15-.54.15-.36.33-.54.24-.18.6-.78.36-.6.36-.96 0-.42-.36-.48-.3-.06-.6-.36-.24-.18-.48-.18-.3 0-.48.06l-.24.12zm19.5 6.6q0 .24-.12.24h-.72q-1.32 0-2.34.54-.54.36-1.11.51-.57.15-1.59.33l-1.86.36-1.08.12h-.66l-.24.12q-.36.36-.48.36h-.24l-.36.12q-.36.12-.72.12-.48 0-.66.24-.24.24-.72.24h-.6l-.36.06-.36.12q-.12 0-.12.12 0 .18-.24.84l.24.12q.18.06.6.48.36.36.6.36.36 0 1.8-.6 1.56-.66 1.98-.72l.48-.12q.24-.06.54-.12.54-.06.72-.24.12-.12.36-.12l.54-.12.48-.06.36-.12q.6-.18.84-.24-.18 0 .9-.24 1.62-.6 2.16-.6.3 0 .3.12v.36q0 .24-.93 1.32t-1.71 1.56q-1.32.96-2.94 2.82-.96 1.02-.96 1.44v.36h1.2q.6 0 2.1-.24l.24.48.18.36q0 .3-.3.3-.18 0-.84.24-.66.18-1.53.33-.87.15-1.41.15h-.66q-.36 0-.36.12t-.12.12l-.36.12-.36.12h-.84q-.12 0-.48.12t-.42.12q-.12 0-.6.12t-.6.12h-.72q-.48 0-1.29.24t-.93.36q-.12.12-.36.12t-.3.06q-.12.12-1.2.12h-1.98l-.24.12q-.18.06-.48.36l-.24.24.24.36q.3.42.48.48l.24.12h.84q.66 0 1.14-.12.48-.12 1.08-.12 1.14 0 2.34-.36 1.14-.24 1.26-.24.24 0 1.32-.24.78-.24 2.1-.48l1.14-.24q.3-.06.72-.06.36 0 .84-.12t.9-.24q.48-.12 1.98-.12v2.58q0 3.3-.06 3.84-.12.84-.36 1.41t-.96 1.53l-.96-.24q-1.08 0-2.88-.48l-2.22-.6-.84-.18-.36-.12V69q0 .36 1.44 1.2t2.58 1.14l1.98.6.78.24.48-.24q.48-.24 1.08-.36 1.08-.24 1.38-1.62.24-.9.6-2.1.36-1.2.6-1.92.18-.48.24-1.74.06-.9.06-3.96l2.16-.24q2.4-.48 3.6-.48.6 0 2.28-.21 1.68-.21 2.64-.39l.72-.12h.12v-.12q0-.12-.12-.21t-.24-.09q-.12 0-.12-.12t-.48-.12l-1.26-.12q-1.08-.12-3.42-.12-2.64 0-3.06.24-.48.24-1.29.36t-1.05 0q-.24-.12-.36-.36-.06-.24-.18-.24t-.48-.36q-.42-.42-.72-.48-.36-.12-.72-.36-.3-.24-.48-.24h-.3q-.24 0-.36.12t-.36.12q-.24 0-.24-.12v-.24q0-.12 1.41-1.32 1.41-1.2 2.13-1.62.78-.48 1.83-1.26t1.65-1.56q.72-.9.72-1.26v-.72q0-.3-.12-.3l-.36-.12q-.36-.12-.6-.12-.36 0-.48-.12t-.18-.12h-.36zM343.8 6.54h-4.44q-.72 0-.72.48v.96q0 .48.72.48h4.44q.24 0 .24-.48v-.96q0-.48-.24-.48zm-13.08 19.02l.9.66q.66.18 1.2.18 2.04 0 3.48-2.04 1.08-2.52 1.08-5.22 0-1.56-.36-3.18-.84-1.62-2.58-2.82-.72-.24-1.5-.24-1.26 0-2.22.72-.48.66-.48.06 0-.54-.48-.54h-2.82q-.48 0-.48.54 0 .6.6.6t.6.24V28.8q0 .24-.6.24t-.6.6q0 .6.48.6h4.44q.24 0 .24-.6t-.24-.6h-.66q-.48 0-.48-.24v-3.24q0-.3.48 0zm15.18-.48q-.42 0-.42.48t.42.48h3.78q.72 0 .72-.48t-.48-.48-.48-.48v-7.26q0-1.68.96-2.82 0-.18.39-.36t.81-.18q.36 0 .54.18.6.6.6 2.22v8.22q0 .48-.72.48t-.72.48q0 .48.72.48h3.96q.72 0 .72-.48t-.66-.48q-.72 0-.72-.48v-7.5q.06-.42.06-1.08 0-1.2-.45-1.8-.45-.6-1.35-.96-1.08-.36-2.1-.36t-1.8.66q-.72.72-.72.24v-.18q.48-.48-.24-.48h-2.82q-.42 0-.42.54 0 .6.6.6.54 0 .54.24V24.6q0 .48-.72.48zm-6.54 0q-.48 0-.48.48t.48.48h4.2q.48 0 .48-.48t-.54-.48q-.6 0-.6-.48V13.62q0-.48-.72-.48h-2.82q-.48 0-.48.54 0 .6.6.6t.6.24V24.6q0 .48-.72.48zm-9.12-7.98h.48q0-1.14.45-1.98.45-.84 1.17-1.08.12-.06.3-.06.6 0 1.14.78.42.66.72 2.22t.3 3.12q0 1.08-.24 2.28-.36 1.5-1.08 2.22l-.66.48q-2.1.36-2.1-2.58-.48-2.22-.48-5.4zm22.5 18.78q-.96.6-.96.9 0 .24.24.24h.48q.24 0 .24.12t.12.12q.18 0 .24.24.12.18-.87 1.89t-1.59 2.43q-.3.42-.72.84-.18.18-.72 1.32-.54 1.14-.72 1.62v.36q0 .24-.18.24-.12 0-2.22.66-2.22.78-3.3 1.08-1.32.36-1.56.36h-.36l-.42-.12q-.12-.06-.42-.06-.66 0-1.14.36l-.21.21q-.15.15-.15.27 0 .12.12.36.3.36.84.36l1.8.12 1.26.12q.18 0 .48-.12t.54-.24q.66-.24.84-.24 1.02-.24 1.68-.48.42-.12.78-.36.48-.18.72-.18.3 0 .6-.24.18-.18 1.5-.48l2.46-.6q1.26-.36 1.5-.36.12 0 .48-.12l.36-.12h.24l.24-.12q.06-.06.48-.06.48 0 .96-.27t.3-.81q-.24-.6-1.14-.6h-1.44q-.48 0-1.98.36t-1.98.6l-.6.36-.24.12h-.12v-.12q0-.12 1.92-1.68.48-.36.54-.6.06-.12.48-.54.42-.42.48-.72t.36-.6q.42-.42.42-.78l.12-.24.48-.48q.24-.24.6-.84.12-.18 1.14-2.34l-.9-.9q-.54-.54-.84-.6l-.36-.12h-.12q-.06 0-.18.12-.12.18-.6.36zm-20.88 1.86q-.24 0-.24.24t-.15.39l-.21.21q-.12.12-.12.18 0 .18.24.24.3.18.63.66.33.48.45 1.08.12.96.12 2.34v5.22l-.12.12q-.48.48-.96.66-1.02.42-1.38.6-.36.3-.6.36t-.6.36q-.3.18-1.83.6t-2.25.54h-.6q-.12 0-.12.12v.24q0 .12-.12.12l-.36.12-.24.12-.06.24q-.06.24-.36.36-.24.06-.24.24t.24.24q.24.06.36.3t.57.36q.45.12.93 0 .78-.24 1.14-.42l.24-.12v.12q0 .12.12 0l.24-.24.12-.12h.72q.24 0 .24-.12t.24-.12h.36q.06 0 .18-.12l.24-.12.24-.12q.18-.18.48-.24.36-.06.84-.48.72-.54 1.5-.72l.36-.06h.12q.06 0 .06.84 0 1.32-.12 2.97-.12 1.65-.18 1.89l-.21.63q-.15.45-.39.69-.78.6-2.61 1.83-1.83 1.23-2.31 1.41-1.26.6-1.5.96-.18.3-.84.72l.12.24q.48.78.84 1.02.36.12.48.12.18 0 .3-.12l1.08-.72q.9-.48 1.68-1.26.66-.72 1.26-1.08.18-.06 1.2-.66.54-.36.54-.24v8.1h-.78q-.36 0-1.44-.6t-1.08-.84q0-.36-.06-.6-.06-.3-.81-.66-.75-.36-.87-.24l-.36.36q-.24.24 1.05 2.22 1.29 1.98 1.65 1.98h.96l.24.12q.18.18.45.27.27.09.45.09h1.08q.3 0 .6.24l.3.12q.24 0 .36-.21t.12-.51v-4.74l.12-3.96.12-2.94q0-.18.6-.42.66-.24.96-.6l.36-.36v.6q0 .12.12.12h.18q.12 0 .12.12v.24q0 .12.72.12.78 0 1.2-.24.6-.3 1.41-.6.81-.3 1.53-.48l.78-.12h.96l-.12.36q-.12.48-.12.6 0 .36-.24.9-.3.72-.36 1.32-.06.36-.48 1.86l-.36 1.5q0 .36.48 1.44.18.36.54.36.66 0 .66-.72v-.72l.12-.24q.12-.12.12-.18 0-.18.24-.6.96-2.58 1.02-2.94.6-2.7.84-3.18.36-.54.48-.6l.48-.18q.18-.12 3.84-.72l1.26-.12v1.38q.24.66.24 2.46 0 1.14.12 3.66.12 2.52.12 3.6 0 1.26.12 3.42l.12 1.74v.24q0 .18.48.27.48.09.48-.15 0-.3.24-.6.18-.3.45-2.55t.27-3.51q0-.66-.06-.72-.24-.3-.24-.48V62.7l.12-1.2q.06-.3.06-1.02t-.06-1.08q-.12-1.32-.12-5.04h.96q.3-.3.96-.36.6-.06 1.38-.48.96-.36 1.56-.42.12 0 1.26-.24.48-.12.48 0t.12.12h.96q.54 0 1.47-.24.93-.24 1.17-.48.06-.06.06-.18 0-.18-.36-.42l-1.08-.6q-.36-.12-1.14-.12-2.28 0-4.02.48-1.2.36-1.32.48-.36.36-1.14.36h-1.32v-3.3l-.18-.36q-.54-.78-.84-.78-.18 0-.39.12-.21.12-.21.24l-.12.42q-.12.48-.12 1.08 0 .54-.12 1.14-.12.6-.12.96t-.12.72l-.12.36q0 .12-.12.12l-.54.12q-.96.18-1.5.24-.72.06-2.04.3-.9.24-1.02.36t-.36.12h-.24v-.66q0-.48-.15-1.23t-.45-.93q-.42-.18-.48-.42t-.48-.24q-.36 0-.42.24t-.24.24q-.12 0-.12.06v.24q0 .12.12.12t.12.36v1.86q0 .72-.12 1.08-.06.24-.24.12l-.24-.12q-.42.06-1.5.3t-1.56.54q-.48.3-.78.42-.3.12-.6.12h-.6l.12-.12q.18-.12.84-.78.3-.42.3-.48.06-.24-.12-.24h-.24l-.54.24-1.2.48q-.78.36-1.02.48-.3.18-.96.3l-.48.12h-.12q-.12 0 .12-3.03t.36-3.15q.18-.18.36-.24.6-.3 1.8-.81 1.2-.51 1.98-.81.36-.06.54-.24l.12-.24v-.36q0-.3-.24-.69-.24-.39-.66-.39-.48 0-1.68.6l-1.26.6q-.18.06-.33.12-.15.06-.27.12l-.24.12h-.12q-.12 0-.12-.6v-4.14q0-2.04-.24-3.24-.3-1.44-.6-1.74-.36-.36-.66-.48l-.48-.12-.36.12-.24.12zm9.36.96q-.6.36-.6.84 0 .36.6 1.44 1.32 2.52 1.8 2.94.3.36.78.36h.96q.96 0 .96-.96v-.9h-.96q-.48 0-.6-.36-.12-.42-.54-1.2l-.84-1.5q-.36-.66-.6-.78t-.6 0l-.36.12zm58.62-30.24q-.24 0-.24-.24v-1.2q0-.24.24-.24h4.92q.48 0 .48.24v1.2q0 .24-.48.24h-4.92zm7.02 16.62q.72 0 .72-.48v-9.84q0-.48-.6-.48t-.6-.48q0-.42.48-.42h2.34q.72 0 .72.24v.42q0 .06.06.06.12 0 .66-.54.66-.66 1.74-.66 1.02 0 2.1.36t1.41 1.05q.33.69.33 2.79v7.5q0 .48.72.48t.72.48q0 .48-.72.48h-3.96q-.48 0-.48-.48t.6-.48q.6 0 .3-.48v-9.36q0-.42-.3-.84-.3-.3-.78-.3-.42 0-.78.18-.36.18-.48.48-.78 1.2-1.14 2.58v7.26q0 .48.72.48.66 0 .66.48t-.66.48h-3.78q-.48 0-.48-.48t.48-.48zm-18.84-10.8q-.6 0-.6-.48 0-.42.72-.42h4.2q.24 0 .24.42 0 .48-.24.48h-.72q-.3 0 0 .48l2.34 6.78 2.1-6.78q0-.48-.24-.48h-.42q-.72 0-.72-.48 0-.42.72-.42h2.58q.66 0 .66.42 0 .48-.54.48-.6 0-.6.48l-3.78 11.7q-.6 2.1-1.02 2.7-.36.6-1.08 1.08-1.02.42-1.56.42-.48 0-.96-.3-.96-.6-.96-1.08V25.8q0-.48.72-.48.66 0 .66.48.48 2.1.84 2.76.36.72.84.72.72 0 1.38-2.82v-.66l-4.02-11.04q0-.48-.54-.48zm12.3 10.8q.66 0 .66-.48v-9.84q0-.48-.66-.48-.72 0-.72-.48 0-.42.72-.42h2.82q.66 0 .66.24V24.6q0 .48.48.48t.48.48q0 .48-.72.48h-3.72q-.72 0-.72-.48t.72-.48zm19.8 24.84q.12 0 .12.36v.84l-.12.06-.24.12-.72.12q-.84.12-1.02.12h-1.2q-1.5 0-2.46.36l-1.86.48q-1.8.42-3.6.81-1.8.39-2.64.51h-.54q-1.14 0-2.04.42-1.44.66-2.22.84-.36.06-.6.12t-.42.12q-.9.18-1.74.24-1.2.12-2.79.42t-2.61.6q-.72.24-1.32.24l-3.42.12-2.22.06q-.42 0-.57-.03-.15-.03-.21-.03l-.24-.24q-.06-.06-.06-.18 0-.24.09-.54.09-.3.21-.42.24-.36.54-.36.3 0 .36.24t.36.24h.36q.36 0 1.08-.09.72-.09 1.38-.27l1.2-.24 1.14-.24.72-.12q.12 0 .6-.12l.42-.12h.24q.24 0 1.2-.36.36-.12 1.38-.3t1.56-.24l.54-.12q.48-.12.96-.12.72 0 1.44-.24.78-.24 1.14-.48.36-.24.72-.84l1.38-2.34q1.08-1.74 1.2-2.22l.24-.72q.06-.12.06-.42 0-.24.12-.36.18-.18.36-.84h-.54l-.36-.12-.24-.12-.12-.12q-.12-.12-.48 0-.9.3-2.82.84t-3 .72q-1.32.24-1.32.3 0 .18.12.51t.24.45q.18.18.24.36l.12.24v.24q0 .24.45 1.05t.57.81l.48.12q.36.06.36.78t-.36.72q-.36 0-1.02.36-.12.06-.36.06-.48 0-1.32-.9-.78-.96-1.08-2.25-.3-1.29-.3-1.95 0-.12-.12-.48l-.12-.18-.48.06-.96.24-1.74.48q-.9.24-1.56.24-.9 0-.9-.72v-1.02q1.32.24 1.62.24h.48q.54 0 1.32-.48.24-.24 1.14-.36.3-.06 1.32-.24 1.14-.24 1.26-.24.84-.12 3.3-.81 2.46-.69 2.58-.81l.12-.12-.12-.12q-.12-.12-.12-.36 0-.48-.6-1.2-1.02-1.32-1.98-1.98-.42-.24-.84-.78l-.48-.6-.24-.24q-.12-.12-.12-.36t-.18-.24q-.3 0-.63-.15t-.45-.33q-.06-.18.12-.18.24 0 .24-.12t.24-.12q.24 0 .66-.24h.84q.18 0 .66.24.48.24.66.54.18.36.3.36t.48.48q.6.84 1.8 1.74.72.72.9.96.66 1.02.96 1.86l.24.6q2.76-.6 3.84-1.08.9-.3 1.44-.3.48 0 .87.3t.39.48q0 .18.24.6v.12q0 .06-.36.36-.78.48-1.86.48h-.6v.3q0 .36.24.6.24.18.12.48-.06.18-.24.42t-.36.6q-.96 1.5-1.26 2.4l-.12.36-.24.18-.48.48q-.9.9-1.02 1.2l-.12.24v.24q0 .24-.12.24t-.24.18q-.06.18 1.08.12 1.86-.24 3.48-.66 1.32-.36 1.74-.36h.36q.6 0 1.56-.36.42-.18.9-.27.48-.09.84-.09l1.2.12q1.2.12 2.22.12h1.38zm-7.26 6.78q.12 0 .12.24v.6q0 .24-.12.6t-.12.54v1.2q0 .78-.36 1.26l-.12.36q0 .54-.36 1.74-.12.6-.12 1.2t-.12 1.2q-.3 1.08-.48 1.38-.12.36-.12.72 0 .42-.12.78-.24.6-.48 1.5t-.3 1.44q0 .3-.36.36-.3.06-.48.24t-.36.6v.12q0 .06-.18.06-.36 0-.84-.12t-.72-.3q-.3-.24-.48-.24-.12 0-.12-.12V70.8l.24-1.44q.42.24.72.24h.24V69l.12-.24q.12-.12.12-.18 0-.18.24-.24l.09-.09q.03-.03-.03-.03-.3 0-.93.12-.63.12-.93.3-.3.24-.9.24h-1.08q-.66 0-1.65.15-.99.15-1.83.33-1.02.3-1.08.48-.12.36-.12.48 0 .24-.36.24h-.72q-.42 0-.66-.24-.72-.42-.96-2.52l-.48-4.44q-.36-3.18-.48-3.6l-.78-1.32q-.24-.24-.24-.42 0-.12.6-.24t.9-.12l.24.12q.12.12.36.12t.48.24q.24.24.36.24.42 0 1.74-.36.6-.12.84-.12h.54q.3 0 .36-.24t1.44-.6q1.62-.48 4.56-1.02l.48-.24q.42-.24.9-.24h1.8l.42.12q.12.06.84.3t.72.48q0 .24.12.24zm-2.82 2.94l.12-.24q0-.12-.12-.12t-.24-.12q-.12-.12-.12-.24v-.54l-.12-.24q-.06-.24 0-.24h-.78q-.84 0-1.44.12-1.14.24-1.26.24-.66.06-1.44.3-2.16.84-3.84 1.08-.96.06-1.2 0-.18-.06-.48-.36-.24-.3-.36 0-.06.06-.06.24 0 .54.3.84.12.12.12.48v.66l.12.36q.12.36.12.72v.48q2.04-.42 2.34-.6.24-.12.69-.24.45-.12.75-.12t.9-.36l.24-.12h.48q.36 0 .84-.12.36-.12 1.14-.12.96 0 1.23.15t.27.81v.72q-1.74.48-2.04.48-.72 0-1.2.06-1.2.18-1.98.48-.96.36-1.68.36-.36 0-.48.12-.18.18-.42.24-.3.06-.48.24t-.36.24l-.24.12v.42q0 .36.12.84t.12.6v.24h.48q.12 0 .6-.12.36-.12.66-.12h1.2q.66 0 1.26-.12t1.08-.12h1.86l.24-.12q.06-.06.18-.06t.27.09q.15.09.15.21t.36.36q.54.36.54-.24l.12-.84.36-1.62q.48-2.28.48-3.18 0-.48.24-1.02t.24-.72l.12-.24z"/></svg>