<svg viewBox="0 0 447 80" xmlns="http://www.w3.org/2000/svg"><path d="M43.59 28.42l-2.35-3.04-.58.58q.82 2.58.82 4.92v7.03q0 2-.82 4.34.52 1.46 1.17 2.52.53.94 1.17.76.53-.7.7-3.05h.35l1.18-.11Q42.41 60.65 26.95 67.5l.23.71q6.56-2 11.84-7.03 5.27-5.04 7.85-12.37.47-2.28 2.11-3.4l-2.58-3.04 4.22-.35q.52 1.11.73 2.43.2 1.32.2 3.89v12.31q.06 2.93 1.85 4.54 1.79 1.61 4.72 1.61h5.39q2.58 0 4.8-1.17-2.17-7.21-2.34-13.18h-.94v11.19q-.41 1.11-1.93 1.11-.47 0-.65-.06h-4.1q-1.87 0-3.19-1.05-1.32-1.06-1.38-2.87V47.88q.12-2.88.82-3.75l-3.05-2.23q2-.06 6.16-.47l3.81-.35-2.7-2.23.82-9.96 1.88-1.41-2.82-2.81-1.75 2.35-3.99.46q3.34-5.15 5.04-9.14 1.11-2.63 2.23-3.04l-2.7-4.81-.58.24q-.94 8.67-5.4 16.75l-7.96.94zM26.95 56.78q0 2.76-.82 4.28l2.22 2.46q.94-1.47 3.08-3.28 2.14-1.82 6.65-5.22l1.4-1.05-.46-.7-9.73 5.5V44.48q4.45-.41 9.02-1.06l-3.28-1.87q-1.7.47-5.74.93v-7.73l8.2-1.05-3.4-2.11q-1.29.64-4.04.99-1.7.24-8.5 1 2.93-3.63 5.51-8.56l11.84-1.4-3.05-2.11q-1.52.99-7.73 1.52 1.05-2.58 2.46-5.62.47-1.41 1.76-2.35l-2.93-4.33-.71.23q.12 2.99-.58 5.27-1.76 6.22-5.1 12.4-3.34 6.18-7.44 10.81l.35.35q2.81-2.58 5.27-5.63l2.11 1.76q1.29-.94 3.64-1.05v7.97q-1.82.23-2.52.29-4.05.53-5.69.64l3.05 2.11q1.64-1.17 5.16-1.29v12.19zm19.1-31.17q1.29-2.64 1.87-5.04-2.99-4.51-6.68-8.2l-.58.58q3.04 5.8 5.39 12.66zm-2.35 4.57q8.03-.76 13.71-1.52l-.7 10.78q-2.52.47-6.47.85-3.96.38-6.54.44V30.18zm61.29-9.14q1.35-2.05 2.11-4.69-3.63-3.75-6.44-5.74l-.59.47q1.52 2.11 2.87 4.86 1.35 2.76 2.05 5.1zm-19.92-2.7q.29 8.62-3.4 12.54l2.23 3.64q2.69-4.05 2.58-9.38l34.68-3.16-3.28 6.91.59.7q3.63-5.39 7.97-8.67l-3.52-3.16-1.76 2.46-34.68 3.05q-.24-2.82-.59-4.93h-.82zm18.75 27.54q.64 3.11.59 5.39v3.75l.05 3.28q0 4.87-1.58 4.52l-8.9-4.28-.59.82q5.27 3.69 10.31 8.26 2.87-5.68 2.82-12.36v-3.75q0-2.76-.47-5.86l22.85-1.88-3.75-2.57q-1.94 1.58-19.45 2.93-.47-1.65-1.06-2.58 3.99-4.16 9.26-9.14 1.05-1.23 3.16-2l-3.4-3.51-1.99 2.34q-10.49.94-23.2 2.58l2.93 2.11q.12-.41 1.99-.82 11.43-1.35 18.28-1.99l-7.5 9.37q-1.35-2.46-3.51-4.57l-.94.59q2.34 3.28 3.75 7.85-8.32.41-24.73 1.87l3.28 2.35q1.53-1.17 21.8-2.7zm45.94-23.32q1.52-.82 10.78-1.58 6.56-.53 16.64-1.52l2.93-.3-3.63-2.57q-2.41 1.99-29.89 3.63l3.17 2.34zm29.65 42.48q1.34-2.75 2.11-5.33-6.27-7.97-12.54-14.06l-.59.58q2.99 4.34 6.56 10.08l-25.54 2.35q4.16-4.16 11.48-15 1.7-2.82 3.87-4.11l-2.7-3.28 26.72-2.57-3.75-2.58q-1.17.88-7.47 1.64-6.3.76-17.49 1.76l-3.11.29-18.22 1.7 3.28 2.34q1.29-.94 19.22-2.58.12 1.18-1.17 3.64-1.46 2.87-3.54 6.27-2.08 3.39-4.19 6.21-2.17 3.04-3.87 4.74-2.99 2.35-5.27 2.11l2.81 3.22q7.56-1.81 14.41-2.75 6.97-.94 14.88-2.34 2.29 3.81 4.11 7.67zm45.58-44q1.35-2.05 2.11-4.69-3.63-3.75-6.44-5.74l-.59.47q1.52 2.11 2.87 4.86 1.35 2.76 2.05 5.1zm-19.92-2.7q.29 8.62-3.4 12.54l2.23 3.64q2.69-4.05 2.58-9.38l34.68-3.16-3.28 6.91.59.7q3.63-5.39 7.97-8.67l-3.52-3.16-1.76 2.46-34.68 3.05q-.24-2.82-.59-4.93h-.82zm18.75 27.54q.64 3.11.59 5.39v3.75l.05 3.28q0 4.87-1.58 4.52l-8.9-4.28-.59.82q5.27 3.69 10.31 8.26 2.87-5.68 2.82-12.36v-3.75q0-2.76-.47-5.86l22.85-1.88-3.75-2.57q-1.94 1.58-19.45 2.93-.47-1.65-1.06-2.58 3.99-4.16 9.26-9.14 1.05-1.23 3.16-2l-3.4-3.51-1.99 2.34q-10.49.94-23.2 2.58l2.93 2.11q.12-.41 1.99-.82 11.43-1.35 18.28-1.99l-7.5 9.37q-1.35-2.46-3.51-4.57l-.94.59q2.34 3.28 3.75 7.85-8.32.41-24.73 1.87l3.28 2.35q1.53-1.17 21.8-2.7zm62.46-26.83q1-1.12 2.58-3.17-2.58-2.99-5.51-5.04l-.58.71q2.63 3.75 3.51 7.5zm-28.94 47.63q6.27-7.44 9.05-16.61 2.78-9.17 2.66-20.24v-6.8l6.04-.53 11.19-1.11q14.42-1.35 18.87-1.64l-4.45-2.58q-2 1.29-10.32 2.05l-21.33 1.94-.52-1.06q-.88-1.76-1.7-3.16l-.47.58.47 6.1v4.92q.06 10.9-2.4 20.18-2.47 9.29-7.91 17.49l.82.47zm19.57-20.45l9.61-1.28v6.91q-8.03 1-19.57 2.11l3.04 2.34q1.06-1.05 16.53-2.46v1.88q0 3.4-.15 4.86-.15 1.46-.79 2.93.76 1.76 1.46 2.81.82 1.35 1.12 1.41.35-.18.52-2.46.18-2.29.18-5.33v-6.33l18.28-1.76-3.75-2.58q-1.7 1.35-14.53 2.35v-7.04q6.03-.46 11.6-1.17l-3.51-1.99q-2.7.88-8.09 1.52V41.9q-.18-3.11.7-5.04l-3.28-3.16-.7.58q.88 2.87.94 7.74v1.17q-4.93.35-9.26 1.05 3.57-6.09 6.09-11.36 9.67-1.35 20.28-2.35l-3.64-2.34q-.58 1.46-15.94 2.69 1.47-3.75 3.64-5.62l-2.93-2.93-.94.35q.23.47.23 1.29 0 .7-.23 1.17-.76 3.22-2.11 5.98l-11.72 1.29 3.52 1.75q.47-.41 7.38-1.17-1.93 4.63-3.93 7.5-1.99 2.87-4.51 4.1l.24.94 1.99 1.76q.64-.65 2.23-1.06zm56.25-28q.82-1.64 2.11-2.58l-3.05-5.16-.7.47.05.65q0 2.4-1.93 6.97t-5.27 10.08q-3.75 6.09-8.44 11.36l.47.71q3.22-2.93 5.65-5.86t5.01-6.8v27.66q0 3.1-.2 4.68-.21 1.59-.85 3.11 1.93 3.93 2.58 4.22.41-.18.64-2.46.18-2.29.18-5.33V24.91l3.75-6.68zm18.28 6.68q1.4-2.35 2.11-5.04-3.87-5.33-7.39-8.79l-.58.7q3.16 5.27 5.86 13.13zm11.48 14.88q.12-1.52 1.88-2.11l-3.17-2.46-1.4 1.87-11.84 1.29.41-2.58q.24-1.81.47-2.6.23-.79 1-1.97l-3.05-2.57q5.68-.53 23.2-2.7l-3.87-2.34q-.93 1.11-7.96 1.93l-26.14 3.22 3.52 2.11q.88-.82 9.84-2.11.59 1.41.59 3.87 0 3.69-1.17 8.61-1.18 4.93-3.34 9.91-2.23 5.09-5.45 9.37-2.35 2.76-5.86 6.27l.58.7q13.42-10.48 17-27.24l12.54-1.41q-.59 5.69-2.14 12.07-1.56 6.39-3.37 10.37-4.1-3.86-6.68-6.03l-.59.35q3.99 5.04 7.27 11.19 2.46-3.87 4.63-11.51 2.16-7.65 3.1-15.5zm41.6-19.92q1.41-1.99 2-3.99-3.29-3.86-6.33-5.86l-.71.59q2.47 3.46 5.04 9.26zm-21.79 10.08q.99 2.16 2.34 3.86 2.29-4.04 2.11-9.14l33.28-2.46-3.05 7.27.71.47q2.93-4.4 4.39-6.22 1.64-1.99 3.11-2.34l-3.64-3.63-1.52 2.69-33.28 2.58-.35-5.39h-.94q.06 4.63-.61 7.38-.68 2.76-2.55 4.93zm21.32 37.44q.53-.18.65-2.64.06-1.05.06-5.62v-20.4h.47l13.36 20.63 11.36-.94v-.94q-4.39-.35-7.32-1.55-2.93-1.2-5.68-4.3-2.41-2.88-4.46-5.69l-5.27-7.21q7.73-.93 16.76-1.52l-3.52-2.23q-2.34 1.06-15.7 1.88V33.7q-.06-.24-.06-1 0-2.29 1.11-3.22l-4.1-4.1-.7.58q1.4 2.93 1.64 7.74v3.28l-4.22.35q-.88.12-2.52.23l-5.86.53-5.45.53 3.4 2.22q1.35-1.17 11.95-1.87-3.45 6.09-9.55 12.33-6.09 6.24-13.42 11.28l.36.82q7.73-4.27 14.64-10.9 6.92-6.62 10.67-13.53v16.87q.06.3.06 1.41 0 3.46-1.12 5.92.53 1.4 1.32 2.75t1.14 1.47z"/></svg>