<svg viewBox="0 0 509 80" xmlns="http://www.w3.org/2000/svg"><path d="M17.48 56.68L20 55.54v-8.46h-3.72v-8.7H20V36.7h-4.92l5.1-23.4h10.08l-.96 4.5h7.08v8.82h-9l-.36 1.62h8.1v8.46h-5.28v1.68h6.42v8.7h-6.42v4.02l5.94-2.7v10.26l-18.3 8.1V56.68zm48.12-3.96h7.92l-1.38 12.66H54.38v-17.7h-1.56l-7.38 17.7h-9.78l7.38-17.7h-5.1V18.64h4.92l-2.04-5.34H51.2l2.04 5.34h2.64l2.16-5.34h10.2l-2.04 5.34h4.56v29.04h-7.14v8.94h1.5l.48-3.9zM47.78 27.28V38.8h13.14V27.28H47.78zm39.66-2.76v3.42h-9.66v-12.3h21.54l-.84-2.94h11.04l.9 2.94h20.16v12.3h-9.66v-3.42H87.44zm43.74 18.72v9.18h-19.14v12.96H86.36v-8.34h15.54v-4.62H77.66v-9.18h24.24v-1.08l5.4-3.96H82.58v-8.64h42.06v6l-10.32 7.68h16.86zm6.3 13.44l2.52-1.14v-8.46h-3.72v-8.7H140V36.7h-4.92l5.1-23.4h10.08l-.96 4.5h7.08v8.82h-9l-.36 1.62h8.1v8.46h-5.28v1.68h6.42v8.7h-6.42v4.02l5.94-2.7v10.26l-18.3 8.1V56.68zm48.12-3.96h7.92l-1.38 12.66h-17.76v-17.7h-1.56l-7.38 17.7h-9.78l7.38-17.7h-5.1V18.64h4.92l-2.04-5.34h10.38l2.04 5.34h2.64l2.16-5.34h10.2l-2.04 5.34h4.56v29.04h-7.14v8.94h1.5l.48-3.9zm-17.82-25.44V38.8h13.14V27.28h-13.14zm76.14 28.02l1.32-4.8h7.56l-3 14.94h-7.56l-10.5-8.04-14.52 8.94V56.26l9.6-5.94-.36-9.06-8.58 1.98v-9.3l8.28-1.8-.18-5.04-7.02.66v-8.94l6.66-.6-.18-5.34h10.02l.12 4.44 5.82-.54v8.88l-5.52.54.12 3.78 15.24-3.36v8.94l-14.94 3.42.12 5.4 12.3-7.62V46.9l-8.58 5.34 3.78 3.06zm-25.44-31.44l-8.28 16.62h6.24v8.76h-20.82l7.26-13.62h-8.34l8.34-22.44H212l-5.28 13.62h1.8l1.5-2.94h8.46zm34.68.66h-8.64l-3.48-10.74h8.64l3.48 10.74zM196.1 65.68v-9.24l19.62-5.28v9.3l-19.62 5.22zm71.64-21.84h-11.88l9.6-9.54-7.74-3.72 2.88-7.62h-3.3V15.1h6.24l.78-2.16h9.78l-.72 2.16h11.46v11.58l-4.86 4.86 4.62 2.28v9.66l-11.16-5.34-5.7 5.7zm43.56.84l-14.34-7.32-10.62 7.2v-9.9l2.34-1.56-1.68-.84v-8.82l9.24 4.68 5.4-3.6v-1.68h-15v-7.92H311v12.9l-6.54 4.44 6.84 3.42v9zm-41.82-18.3l2.64 1.32 3.78-3.78v-.96h-5.22l-1.2 3.42zm11.82 28.26l-2.1-9.06h8.76l2.22 9.06h-8.88zm9.72 2.04v-7.26h9.42v15.9h-31.68v-17.4h10.14v8.76h12.12zm-35.7 7.86l3.66-16.14h9.06l-3.54 16.14h-9.18zm54.48-16.08l2.82 16.08h-9.12l-2.82-16.08h9.12zm19.26-22.2l-.06 4.02h13.98l-.6 35.1h-13.92v-9.3h4.32l.66-16.62h-4.92l-3.36 25.92h-9.84l4.02-30.3v-8.82h-3.42v-9.12h8.82l-1.08-3.9h10.74l1.08 3.9h9.06v9.12h-15.48zm43.92 39.12h-11.46l-3.72-6.42-3.06 6.42h-10.92l7.98-16.68-4.68-8.1h8.58l4.32-9v-5.76h-4.8l-1.32 12.24h-9.48l2.76-24.72h9.42l-.36 3.24h16.32v9.24h-2.52v7.44l-7.02 14.76 9.96 17.34zm58.74 0h-12.6l-15.18-19.14-15.42 19.14h-12.48l22.68-28.5V32.2h-20.58v-9.48h20.58V13.3h10.44v9.42h20.7v9.48h-20.7v4.92l22.56 28.26zM491 48.64v7.5h-54.3v-7.5h22.08v-1.8h-20.4v-7.38h20.4v-1.8h-20.52V14.2h51.42v23.46h-20.52v1.8h20.34v7.38h-20.34v1.8H491zM447.38 22v7.92h12.24V22h-12.24zm33.18 7.92V22h-12.18v7.92h12.18zM479.18 28l-9.42 1.32v-5.34l9.42-1.38V28zm-30.42-5.34l9.42 1.32v5.4l-9.42-1.32v-5.4zm-13.02 42.72l3.72-7.68h10.56l-3.78 7.68h-10.5zm15.3-7.68h10.8l4.02 7.68H455l-3.96-7.68zm13.32 0h10.92l4.02 7.68h-10.86l-4.08-7.68zm24.36 0l4.02 7.68h-10.8l-4.02-7.68h10.8z"/></svg>