<svg viewBox="0 0 441 80" xmlns="http://www.w3.org/2000/svg"><path d="M16.08 30.77q4.57-3.23 7.15-7.97h9.61v-3.75h-7.86q1.59-3.64 2.35-7.5H20.3q-.35 10.37-4.57 18.75l.35.47zm29.53-6.1q6.09-5.56 8.91-13.12h-7.5q-.53 5.97-1.88 12.65l.47.47zm-5.63-1.4q1.35-.18 2.08-1.06.74-.88.74-2.17 0-1.4-.74-2.72-.73-1.32-1.96-2.26-2.58-1.87-5.74-2.93l-.47.35q2.05 2.52 2.7 5.63.52 2.28 1.37 3.69.85 1.41 2.02 1.47zm-6.09 20.62h6.09v-2.34h8.44v2.34h6.1v-15.7q.46-1.06 1.87-2.11l-6.68-2.35-2.23 2.35h-7.5v-1.41h-6.09v19.22zm6.09-6.09v-7.97h8.44v7.97h-8.44zM21.7 66.33q5.92-5.27 11.72-12.24l-.58-.47q-3.17 1.93-5.51 3.04V45.77h5.15v-3.75h-5.15v-7.5h4.69v-3.75H17.95v3.75h3.28v7.5h-5.15v3.75h5.15v13.36l-1.87.58 2.34 6.62zm7.03 2.11q6.86-2.11 10.2-7.67 3.34-5.57 3.34-13.72l-.06-1.75h-5.62q-.24 8.26-2.08 13.62-1.85 5.36-6.24 9.17l.46.35zm20.98 0q6.45-.35 7.15-7.38-2.29-1-2.29-3.99 0-1.81.77-4.04l-.36-.23q-.05.23-1.11 3.16-.41.94-.88 2.4-.99 2.64-1.76 2.7-.82 0-.93-.29V45.3h-6.21v17.87q.17 4.86 5.62 5.27zm40.67-.47q4.04.06 6.73-1.05 2.7-1.12 2.99-3.52V48.58h16.99v-4.34H100.1v-3.16h-1.64q6.68-3.52 10.43-7.97l2.46-2.34-2.58-.94q2.41-1.58 3.93-3.72t2.99-5.77l1.76-1.29-7.5-2.82-2.35 3.17h-8.9q1.11-.47 1.17-2.23-.18-1.93-1.47-3.16-1.29-1.23-3.22-1.88-1.58-.47-4.45-1.05l-.35.47q1.69 1.7 2.22 4.33l.47 2.41v.05q0 .3.82 1.29H82.05q-1.11-2.4-2.57-4.33h-.35v2.58q-.18 2.46-.97 4.57-.79 2.1-1.85 3.63-.29.88-.29 1.7 0 2.05 2.17 2.75 1.93.12 3.22-1.32 1.29-1.43 1.35-3.6v-2.34h25.78q-.41 3.34-1.64 5.97l-3.4-1.29q-.88.65-1.76 1.41-.88.88-1.4.94H83.81v4.22h15.47q-1.4 3.28-3.98 6.56h-1.64v3.16H76.31v4.34h17.35v11.83q-.12.71-.82 1.15-.71.44-1.29.44h-7.74v.46q5.04 1.47 5.51 3.34.47 1.94 1.06 2.17zm48.16-49.98h35.62v-3.75h-35.62v3.75zm34.22 49.51q3.28-.64 3.28-4.92-.53-5.62-4.37-11.6-3.83-5.98-10.63-12.48l-.47 1.05 1.29 2.7q3.93 8.73 5.16 14.3-8.32.88-15.24.88-3.22 0-6.09-.18h-.35q3.39-2.52 6.27-6.65 2.87-4.13 4.86-9.05 1.87-4.63 2.69-9.03h17.7v-3.75H136.2v3.75h15.11q-2.52 13.42-10.08 24.61l-3.16-.23q1.29 3.63 1.88 8.03 3.39.11 8.4-.62t10.11-2.2q5.39-1.58 8.91-3.45.7 3.57 1.26 5.24.55 1.67 1.49 2.61 1 .99 2.64.99zm37.62.47q4.04.06 6.73-1.05 2.7-1.12 2.99-3.52V48.58h16.99v-4.34H220.1v-3.16h-1.64q6.68-3.52 10.43-7.97l2.46-2.34-2.58-.94q2.41-1.58 3.93-3.72t2.99-5.77l1.76-1.29-7.5-2.82-2.35 3.17h-8.9q1.11-.47 1.17-2.23-.18-1.93-1.47-3.16-1.29-1.23-3.22-1.88-1.58-.47-4.45-1.05l-.35.47q1.69 1.7 2.22 4.33l.47 2.41v.05q0 .3.82 1.29h-11.84q-1.11-2.4-2.57-4.33h-.35v2.58q-.18 2.46-.97 4.57-.79 2.1-1.85 3.63-.29.88-.29 1.7 0 2.05 2.17 2.75 1.93.12 3.22-1.32 1.29-1.43 1.35-3.6v-2.34h25.78q-.41 3.34-1.64 5.97l-3.4-1.29q-.88.65-1.76 1.41-.88.88-1.4.94h-16.53v4.22h15.47q-1.4 3.28-3.98 6.56h-1.64v3.16h-17.35v4.34h17.35v11.83q-.12.71-.82 1.15-.71.44-1.29.44h-7.74v.46q5.04 1.47 5.51 3.34.47 1.94 1.06 2.17zm45.82-.35q8.61-7.97 8.32-21.62V22.45h32.69V18.7h-16.52q1.52-.82 1.52-3.29-.29-1.99-3.05-3.25-2.75-1.26-6.32-1.43l-.24.47q2.05 1.87 2.46 4.1.41 2.22 1.29 3.4h-11.83v-2.82h-6.57v34.57q.06 10.84-2.34 17.05l.59.12zm22.26.47h6.68v-9.55h12.07v-4.22h-12.07v-8.55h9.38v-3.75h-9.38v-4.57h-6.68v4.57h-4.1q1.87-3.87 3.75-8.79h18.75v-3.75h-17.34q.58-1.82 1.87-5.16l-6.68-.47-1.41 5.63h-7.38v3.75h6.33q-1.87 5.97-4.34 10.19l-1.99 1.99 6.1 2.23q.52-.29 2.11-1.87h4.33v8.55h-13.48v4.22h13.48v9.55zm39.02-27.95h39.03v-3.75h-16.06v-5.16h15.59v-3.75h-15.59v-4.1h16.06v-3.75h-14.06q3.1-1.23 5.97-3.54 2.87-2.32 4.69-5.01h-9.38q-.46 2.17-1.96 4.63-1.49 2.46-3.31 4.04h-8.32q1.47-1.23 1.47-3.05 0-.7-.06-.93-.65-2.41-3.34-3.58-2.7-1.17-6.57-1.17-1.34 0-1.69.06l-.24.82q3.87 1.99 4.75 4.33.76 2.35 2.28 3.4h-9.61v3.75h15.94v4.1h-15v3.75h15v5.16h-15.59v3.75zm-.82 28.3q7.15-.82 13.01-5.21 5.86-4.4 8.91-11.14 1.93 6.04 6.24 10.52 4.31 4.48 9.81 5.83-.64-1.4-.64-2.46 0-2.75 3.34-5.21-9.85-1.7-16.53-9.85h16.06v-3.75h-16.88q.47-2.81.47-5.15h-7.97q0 2.69-.35 5.15H316.2v3.75h15.11q-1.99 5.86-5.94 10.37-3.96 4.51-9.17 6.8l.46.35zm61.18-16.23h37.85v-3.75h-16.41v-4.57h13.13v-3.4h-13.13v-5.97h6.68v2.22h6.56V16.47q.65-1.35 2.23-3.05l-7.5-1.87-2.34 2.69h-18.17v-1.87h-6.68v24.37h6.68v-2.22h6.45v5.97h-13.13v3.4h13.13v4.57h-15.35v3.75zm8.9-21.44V17.99h6.45v12.78h-6.45zm12.54-2.82v-9.96h6.68v2.35l-4.33-.47q-.42 4.04-2.35 8.08zm-9.96.94q.76.59 1.41.59.7 0 1.11-.68.41-.67.41-1.78 0-1-.23-1.76-.82-2.64-4.46-5.39l-.35.58q.82 2.23.94 3.4.06 3.75 1.17 5.04zm9.96 1.88v-.36q4.34-3.16 6.68-8.08v8.44h-6.68zm13.83 36.38q2.93-.35 2.93-3.28 0-.94-.47-2.69-1.29-3.87-7.73-7.56l-.59.47q2.46 3.45 3.05 6.97 0 1.46.08 2.55.09 1.08.68 2.14.7 1.23 2.05 1.4zm-33.28.35q1.99-.11 3.31-1.81t1.32-4.28q0-.76-.3-2.4-.35-2.17-1.28-4.92h-.59q-.41 3.22-1.88 5.39-1.75 2.63-2.34 3.69-.53 1.35-.53 2.22 0 1.88 2.29 2.11zm23.08-.35q.94-.11 1.59-1.2.64-1.08.64-2.66 0-1.12-.23-1.88-1.23-3.34-6.45-7.32l-.58.46q1.58 3.11 1.87 6.74-.06.3-.06 1.29 0 4.34 3.22 4.57zm-10.31.35q1.35-.05 2.08-1.08t.73-2.61l-.11-1.23q-.47-1.7-1.79-3.19-1.32-1.5-4.66-4.25l-.58.35q1.58 3.11 1.4 7.33-.17 4.22 2.93 4.68z"/></svg>