<svg viewBox="0 0 621 80" xmlns="http://www.w3.org/2000/svg"><path d="M27.96 52.58q0 1.2 1.11 2.37 1.11 1.17 2.64 1.98t2.73.99l.54-.48.06-1.44q0-1.98-.27-4.23-.27-2.25-.57-4.41-.9-5.28-.9-8.58 0-2.28.36-6.6.36-4.44.36-6.6 0-2.22-.69-3.45t-2.79-1.23q-.48 0-1.14.6-.66.6-.66 1.08 0 .66.84 1.95t1.44 1.83q.36-.12.6-.51t.3-.81q.06 2.4.3 7.5.48 13.44.48 20.04 0 1.62-.72 2.1-.12-.06-1.2-.84-1.56-1.32-2.64-1.5l-.18.24zM51.6 48.2q.96-.78 1.35-2.31.39-1.53.39-3.21t-1.02-2.94q-1.02-1.26-2.7-1.32l-.18.24q.06.24.39.81.33.57.33.99l-.06.3q-.24-.06-.45-.45-.21-.39-.33-.72-.12-.33-.18-.51-.6-1.56-1.29-2.58-.69-1.02-1.71-1.2.9 3.06 2.79 7.95 1.89 4.89 2.67 4.95zM18.54 53q.66 0 1.35-.96.69-.96.69-1.62 0-.66-.24-.93t-.84-.69q-.72-.36-1.11-.9-.39-.54-.39-1.8 0-1.08.48-3.12.6-.42 1.14-.78.54-.36.96-.6l.06-.9q0-1.02-.78-1.68-.78-.66-1.8-.66l-.48.12q-.48.6-.93.87-.45.27-.51.33-.54.3-.75.75-.21.45-.21 2.01 0 3.12.66 5.64.66 2.52 2.34 4.8l.36.12zm77.58-31.14q.54 0 2.04-.54t2.73-1.23q1.23-.69 1.23-1.17 0-2.34-4.26-2.34-2.04 0-4.44.27-2.4.27-4.68.57-5.28.72-7.98.78-.72 0-1.8.15t-1.08.45q0 .96.99 1.71t1.95.75l.48-.06.24-.3 12.36-1.56q.42-.06.78.39.36.45.66 1.08.3.63.48.93.12.12.3.12zm-13.8 26.82q.48-.42.63-1.05.15-.63.21-1.59 7.02-4.8 12.48-7.08.3 0 .6.3t.48.6q.48-.12 1.92-.45t2.46-.87q.12-.36.12-.66 0-.84-.63-1.47t-1.47-.63q-.06 0-.78.18.3-.24 1.44-1.08.9-.66 1.47-1.2.57-.54 1.23-1.62 0-3.18-4.26-3.18-3.3 0-6.48.54-3.18.54-7.92 1.62l-3.54.78.06-2.1q0-2.4-.6-4.02-.6-1.62-2.4-1.74l-.3.54q0 1.38.3 3 .24 2.04.24 3.06 0 1.32-.3 1.89-.3.57-.81.96t-.51.93q0 .72.3 1.53t.96 2.07q.84 1.74 1.26 2.94.42 1.2.42 2.52 0 1.62.3 2.22.3.6 1.56 1.5.48 1.08 1.56 1.56zM99.54 30.8q-.18 1.8-4.05 4.14-3.87 2.34-9.87 5.22-3.78 1.98-4.02 2.1-.12-.18-.51-.9t-.63-1.41q-.24-.69-.24-1.29 0-.66.12-1.98l.06-1.92q8.88-4.14 16.44-4.14h1.98q.18 0 .72.18zm-8.16 8.22l3.66-1.8.06.06-.12.24-3.6 1.56v-.06zm9 26.52q1.02 0 2.55-.69 1.53-.69 1.53-1.53 0-1.98-1.5-2.76-1.5-.78-3.66-.78-2.22 0-6.66.6l-2.67.3q-2.13.24-4.05.24l-.42-.06q1.44-.78 4.56-2.1 2.7-1.2 4.32-2.01 1.62-.81 3-1.89.48-.36 1.2-1.32.72-.78 1.08-1.14.06-.42.24-1.65t.18-2.25q0-.66-1.17-1.44-1.17-.78-2.7-1.32-1.53-.54-2.19-.6l-.3.18q0 .9.63 1.53t1.77 1.29q.54.36.96.72.42.36.42.66 0 2.22-4.38 4.92-4.38 2.7-10.98 5.76-3.36 1.62-3.78 1.86l1.86 3.06.48.12q5.28-2.16 8.52-3.15 3.24-.99 6.78-.99 1.68 0 2.85.09 1.17.09 1.77.57v.06q-1.08.72-2.4.93-1.32.21-3.06.21-1.2 0-3.6-.6.18 1.98 2.94 2.58 2.76.6 5.88.6zm-13.74-9.66q.54-.54.69-1.2.15-.66.21-1.68 0-1.02.15-1.68.15-.66.69-1.2-.06-1.2-.87-2.13-.81-.93-2.01-.93l-.6.06q-.78 3.24-.78 5.34l1.86 3.3q.24.12.42.12h.24zm74.16-17.7q4.86 0 8.1 2.16 3.24 2.16 3.24 6.78 0 3.18-1.2 6.72-1.2 3.54-3.57 5.97-2.37 2.43-5.67 2.43-1.86 0-3.15-1.95-1.29-1.95-2.31-4.59-1.02.48-1.86.48-.78 0-1.23-.36-.45-.36-.93-1.08-.54-.66-.87-.93-.33-.27-.87-.27-1.38 0-3.63 1.11t-5.01 2.67l-1.08-.24q-.96-1.38-1.44-2.28-.48-.9-.48-1.92 0-1.26 1.08-3.6t1.26-2.76q.84 0 1.62.6.78.6.78 1.44t-.6 2.28-.6 2.28l.36.48q1.02 0 1.95-.24.93-.24 2.31-.72.42-.12 1.41-.42t1.83-.42l-.84-1.56q.54-.72.69-1.56.15-.84.27-2.34 0-1.02.18-1.92-2.76 2.34-5.4 2.34-3.9 0-3.9-8.22 0-2.16.39-4.29t1.11-5.07l.36-1.56-1.62-2.7 1.38-.12q1.38 0 2.88.3t1.74.36q3.12.72 4.62.72 2.22 0 2.22-7.62v-.66l-.54-.24q-1.26 0-2.52.42t-3.12 1.2q-1.56.66-2.46.99-.9.33-1.74.33l-.36-.12-1.86-3.06q.12-.66 2.1-2.64t4.14-3.69q2.16-1.71 2.82-1.71 1.26 0 2.43.69 1.17.69 1.17 1.89l-.66.96q-.9-.18-2.25.48-1.35.66-1.47 1.5.42-.06 1.2-.06 2.52 0 4.05 1.2 1.53 1.2 1.53 3.9 0 1.2-.27 2.28-.27 1.08-.87 3.06l-.48 1.5q1.62.72 1.62 1.92-.06.24-.27.63-.21.39-.39.63-.54-.18-.96-.18-1.32 0-1.83 1.32t-.81 3.72q-.24 1.62-.48 2.4-.24.78-.78.78h-.12q-.36-.36-2.04-3-1.32-2.22-2.25-3.48-.93-1.26-1.47-1.32-.18.36-1.35 3.09-1.17 2.73-1.17 3.99 0 2.52.54 6.18 1.2 0 2.7-.54 1.5-.54 3.9-1.62 3.54-1.56 5.91-2.34 2.37-.78 4.89-.78zm-13.38-9.48q-.24 0-.6.15t-.54.21q1.14 1.92 3.72 4.44.12-.36.72-1.56.12-.24.51-1.11.39-.87.39-1.29 0-.36-1.65-.6t-2.55-.24zm13.68 31.26q2.94 0 5.1-2.07 2.16-2.07 3.3-5.13 1.14-3.06 1.14-5.88 0-3.96-2.22-5.61-2.22-1.65-6.3-1.65-2.28 0-3.36.36-2.64.84-6.72 3.54l-.18.12h.06q1.26.6 1.26 1.62 0 1.92-.36 5.88.6-.06 1.38-.3 1.56-.42 2.7-.42 1.08 0 1.68.84.6.84.6 1.98 0 .84-1.74 1.98.48.54 1.02 1.98.54 1.38 1.08 2.07t1.56.69zm49.14-13.2l-1.62-2.46q-1.62 0-3.69 1.2t-5.61 3.6q-.3.24-2.07 1.41-1.77 1.17-2.97 1.77l-1.92-2.7q0-.78.84-1.47t2.64-1.71q2.7-1.62 4.11-2.88 1.41-1.26 1.53-3.18-.36.18-2.28 1.38-3.06 1.92-3.54 1.92l-.48-.12-1.86-3.06q.78-1.38 1.98-2.58-.06-.78-1.05-2.01-.99-1.23-3.09-3.39-2.82-2.94-4.29-4.86-1.47-1.92-1.47-3.48 0-.9.36-1.32.36-.42 1.08-.9.72-.42 1.08-.87.36-.45.36-1.23 0-.36-.12-1.11-.12-.75-.12-1.29 0-1.62.9-1.62.78 0 2.07.96 1.29.96 1.29 1.74-.06.24-.27.66-.21.42-.39.66l-1.26-.72-.18.36.66.96q2.46 0 6.54-1.02.48-.12 1.8-.42t2.4-.42l.3-.36q1.2.12 1.74.12 1.68 0 3.9-.3 2.52-.24 3.78-.24 3 0 5.61.66 2.61.66 2.61 2.82 0 1.92-.99 3.09t-2.37 1.8q-1.38.63-3.78 1.35-1.8.48-3 .99t-2.04 1.17l-.42-.24-.48-.84.06-.48q-1.26 0-2.46.78l-.12 1.08q0 .54.33.75.33.21 1.05.39.9.24 1.38.63.48.39.48 1.35-.78 1.08-1.44 2.46l.06.12q.48 0 .96-.18t.66-.24q.96-.42 1.62-.42.78 0 1.5.36t.72 1.08q0 .36-.09.93-.09.57-.15.93-1.2.48-2.22 1.17-1.02.69-2.7 1.95-1.2.96-1.86 1.38l-.12.78.36.66q.9-.06 1.74-.42t1.92-1.02q1.26-.78 2.16-1.14.9-.36 1.92-.36 1.62 0 1.74 2.82-.84 1.44-3.3 2.94l-.42-.12zm-2.58-27.66q-.9 0-1.98.12t-1.56.18q.54 1.32.66 1.5.06.12.54.42.6 0 1.47-.78t1.35-1.44h-.48zm9 .96q-1.14-.6-2.52-.78-1.38-.18-3.18-.18l.18.72q.12.48.12.84 0 .78-.3 1.08-.3.3-.78.48-.48.18-.66.24-.42.18-1.5 1.17t-1.68 1.65l.3.18q.54 0 1.74-.36 1.08-.36 1.68-.36.9 0 1.32.36l1.65-.99q1.35-.81 2.31-1.71.96-.9 1.44-1.92l-.12-.42zm-18.96 4.98q.78.18 1.38.6.6.42.6 1.08l-.06.54q1.98-1.5 1.98-3.18 0-1.44-.06-2.16l-.06-2.1q-1.68.42-3.66.72.48.42.48 1.26 0 .9-.6 1.14v2.1zm-7.68-1.68q.6 2.64 2.1 6.36t2.88 4.74q-.18-.24-.78-1.2-.6-.96-.6-1.14 0-.72 1.68-1.92t1.8-1.26l-.54.3-.72-.48q-.12-.36-.6-1.08-.9-1.26-.9-2.16 0-2.16.18-4.32-.6.18-2.4.99-1.8.81-2.1 1.17zm-2.52 3.06q0 .6 1.62 2.34 1.62 1.74 2.58 2.46l-.36-1.2q-1.74-5.58-2.4-6.3-.36.12-1.2.96-.24 1.2-.24 1.74zm46.08 7.32q-.72-.12-1.74-.6-1.68-.78-2.82-.78-.96 0-1.83-.9-.87-.9-.87-1.86.18-.06.48-.18t.48-.12q2.1 0 4.56.81 2.46.81 2.46 2.43 0 .6-.72 1.2zm-37.2 3.18q1.68-1.68 2.85-2.7 1.17-1.02 2.55-1.8.36-.72.36-1.2 0-.18-.09-.45t-.15-.39q-.66 0-1.47.66-.81.66-2.01 1.92-.96 1.02-1.56 1.56-.6.54-1.14.66.66.96.66 1.74zm36.66-.66q1.56 0 2.73.48t1.17 1.8q0 1.32-1.62 1.8t-3.3.48q-.24-.06-1.47-.51t-1.89-.45q-1.98 0-3.3 3.09-1.32 3.09-1.89 6.87-.57 3.78-.69 6.3l-.66.66-.54-.24q-.54-.78-1.74-3.06.78-.42 1.53-2.22.75-1.8 1.2-3.9.45-2.1.45-3.18V44q-2.28 4.08-5.52 8.76-3.24 4.68-4.92 4.68-1.26 0-2.34-1.35-1.08-1.35-1.08-2.61 0-1.08.3-2.61.3-1.53.84-1.95.96.12 1.68.69t.72 1.47q0 1.14-.78 1.62l-.12.72.12.3q1.86-.18 10.44-11.52 1.14-1.5 1.14-3.9 0-.54-.06-1.29t-.12-1.11q-.24-1.56-.24-2.4l.42-.42q1.08 0 1.62.63t1.02 1.83q.36.96.72 1.44t1.02.48q.9 0 2.58-.6 1.68-.6 2.58-.6zM198 39.02v.06q4.14-1.62 4.14-2.46l-.24-.54q-3 2.16-3.78 2.64l-.12.3zm8.52-1.74q-.54 0-.93.24t-.93.78l-.24 1.56q.66-.48 1.41-1.29.75-.81.75-1.23l-.06-.06zm19.44 1.56l.24-.18-.06-.48-.12-.12q-.12.36-.12.54v.24h.06zm-28.74 9.06q.72-.18 2.61-1.35 1.89-1.17 2.07-1.71l-.42-.54-4.26 3.54v.06zm32.28-.78q2.46 0 3.66 1.38 1.2 1.38 1.5 3.3.3 1.92.36 4.62l-.54.66q-.72-.06-2.28-2.28-1.56-2.22-1.62-3l.3-.42.45.15q.27.09.45.09.3 0 .3-.42 0-.24-.09-.51t-.15-.51q-.24.06-.51.12t-.69.06l-.42-.12-1.74-3 .06-.12h.96zm-26.16 2.52q1.08 0 1.74.99.66.99 1.44 2.91.6 1.5.84 1.92 0 .9-.54 1.38l-1.02-.24q-.96-1.32-1.95-3.18t-.99-2.88q0-.24.12-.57.12-.33.36-.33zM188.7 52.4l.54.3q.54.3.78.81t.48 1.35q.18.6.39 1.14.21.54.63.84.3.24.75.48t.69.54q.24.3.24.9 0 .72-.96 1.44-.24-.06-.51-.09t-.45-.21q-.18-.18-.36-.48l-1.38-2.22q-.12-.24-1.08-1.71-.96-1.47-1.5-2.97l.06-.12h1.68zm7.56.12q.24.12.48.66t.42.78q.3.36 1.62 1.08 1.02.48 1.62.96.6.48.6 1.26 0 .6-.33 1.02-.33.42-.99.9-1.02 0-1.92-.9-.9-.9-1.47-2.19t-.57-2.25q0-.9.54-1.32zM257.7 66.2l.3-.06.48-1.2q-.66-1.26-.9-3.36-.24-2.1-.24-4.86v-6.84q0-7.26.9-9.36l.9 1.26.42.18 8.16-9.84q0-2.04-1.35-2.79t-3.57-.75l-1.38.06q-1.86 0-1.86-.84 0-1.38.63-2.46t1.83-2.46q1.2-1.56 1.77-2.52.57-.96.57-2.22 0-3-2.28-3-1.68 0-7.65 2.01-5.97 2.01-8.25 3.15.84 2.28 2.67 3.21 1.83.93 4.47.93l1.14-.96q0-.72-.48-1.26t-1.2-.78l-.06-.18q0-.36 1.8-1.29t3.93-1.74q2.13-.81 2.67-.81.12 0 .33.09.21.09.33.15-.06.72-.69 1.86-.63 1.14-1.95 3.36-.3.54-.93 1.59-.63 1.05-.87 1.65h-.24q-.9 0-.9 1.44 0 3.24.06 5.67.06 2.43.12 4.05.18 4.86.18 9.72 0 2.64-.48 7.92-.06.78-.24 3.24t-.18 4.5l1.74 3.42.3.12zm19.26-14.94q.84 1.5 1.83 2.31.99.81 2.61 1.17 2.28-1.02 3.24-2.46.96-1.44 1.62-3.6.42-1.26.72-1.95t.84-1.23l-.36-2.46q-.36-2.88-.84-4.77-.48-1.89-1.65-3.27-1.17-1.38-3.33-1.38-1.8 0-3.06 2.52T276 42.92q-.72 2.46-.96 2.94-.06-.3-.15-.81t-.09-.81q0-3.84.9-7.98.9-4.14 2.76-6.66.54-.72 1.53-1.29.99-.57 2.49-1.17 2.28-.96 3.45-1.86 1.17-.9 1.17-2.4 0-1.8-1.77-2.49-1.77-.69-3.93-.69-1.26 0-4.11.3-2.85.3-5.22.9-2.37.6-2.43 1.44.6.9.72 1.26.66 1.14 1.23 1.71.57.57 1.89 1.05l.66-.96q0-.96-.9-1.68v-.06q5.16-1.98 9.42-1.98l.54.36q-.06.42-.57.75t-1.83.99q-1.92.96-3.21 1.89-1.29.93-1.95 2.25-1.08 2.1-1.86 9.42T273 48.68q0 1.14.75 2.76.75 1.62 1.65 1.98.6-.36.93-1.26.33-.9.51-.9h.12zM259.68 37.1l-.18-1.2q-.06-.42-.12-.99-.06-.57-.06-1.35 0-1.44.42-1.98.42.12 1.26.12.54 0 1.38-.09.84-.09 1.38-.15l.3.18q0 .96-1.59 2.82-1.59 1.86-2.73 2.64h-.06zm18.24 7.2q0-1.2.06-1.8.06-.3 1.5-2.79t1.74-2.73q.24-.18.81-.33.57-.15.99-.15.24 0 .42.06t.3.12q.6.9 1.02 2.73.42 1.83.42 3.09 0 .3-.15.6t-.39.42q-1.26-.12-3.54.09-2.28.21-3.12.69h-.06zm2.34 8.1q-1.2 0-1.68-.96t-.48-2.28v-.6q0-.36.06-.54.36-1.2 1.83-1.68 1.47-.48 3.75-.66.6 0 1.32-.12-.66 2.64-1.26 4.02-.6 1.38-2.16 2.28-.9.54-1.38.54zm35.64 6.12q.96-1.74 2.34-3.78 2.1-3.3 3.03-5.58.93-2.28.99-5.76l-.42-.12q-.54.84-1.38 2.64-.18.36-1.11 2.19-.93 1.83-1.41 2.13l-.18-.36q0-.72.36-2.28.3-1.8.3-2.22 0-1.74-1.11-3.24-1.11-1.5-2.73-1.92.3-1.26 1.02-2.76.6-1.2.9-2.13.3-.93.3-1.89l-.06-1.38q-.6-.78-2.16-1.98 2.46-2.34 6.9-7.5 2.1-2.46 2.22-2.58l.06-.78q0-1.14-1.05-1.77-1.05-.63-2.25-.63l-.96.78q.12.24.12.78 0 2.04-2.82 4.98-2.82 2.94-7.02 6.54-1.68 1.44-1.98 1.74l1.68 2.76q1.08 0 2.64-.9 1.56-.78 2.34-.84.06 1.14-.54 2.25-.6 1.11-1.68 2.73-.6.84-1.05 1.65-.45.81-.51 1.35l1.74 3.24.36.12q.84-.18 2.82-1.14.42 1.02.42 1.26 0 1.8-.39 3.54t-1.17 4.32q-.12.48-.42 1.5t-.48 1.8q.42 1.02 1.26 2.01.84.99 1.08 1.23zm37.38-.36l.18-.12.12-1.08q0-2.46-.45-4.23-.45-1.77-2.07-2.01l-.36.54q.12.6.12 1.02 0 .6-.24.9-.66-.12-2.82-2.55-2.16-2.43-4.05-5.1-1.89-2.67-1.89-3.33v-.12l1.02-1.08q.3-.3 1.53-1.62t1.77-1.56q.36-.12 1.11-.3.75-.18 1.2-.48.45-.3.45-.84 0-.78-1.11-2.16-1.11-1.38-1.89-1.38-1.26 0-3.66.6-2.4.6-3.66.6-.84 0-1.35-.24-.51-.24-1.11-.72-.54-.42-.9-.6t-.84-.18q-.18.06-.3.12t-.18.12l2.7 3.84-3.51 1.77q-3.27 1.65-4.41 1.77-.48-.84-.6-1.62-.12-.78-.09-1.56t.03-1.14q0-4.44 1.44-6.75 1.44-2.31 3.63-3.21 2.19-.9 6.27-1.74 2.64-.54 4.32-.93 1.68-.39 3.42-1.17l.06-.72q0-2.46-8.16-2.46h-1.92q-2.82 0-4.92.39t-3.78 1.59l-.06.36 1.98 3.18q1.32-.42 1.8-1.38 3.3-1.74 7.44-1.74h.78q-2.94 1.56-7.08 3-3.24 1.14-4.59 2.16-1.35 1.02-1.98 3.63-.63 2.61-.63 8.31 0 2.22.45 6.84.45 4.62 1.47 8.37 1.02 3.75 2.58 3.75h.06q6.3-8.88 10.32-13.98 1.14.78 2.52 2.52 1.38 1.74 3.6 4.92 2.28 3.24 3.63 4.98 1.35 1.74 2.61 2.82zm-12.3-17.82l-.72-1.44q.36-.12 1.08-.48.72-.36 1.38-.36l.06.06q-.36.42-.87 1.11-.51.69-.93 1.11zm-1.02.6q0 .54-2.1 3.15t-4.62 5.4q-2.52 2.79-3.3 3.45l-.42-1.86q-1.14-4.56-1.14-7.2 0-.24.06-.42t.12-.3q.42 0 .84-.3t.66-.42q.72-.3 4.62-1.47 3.9-1.17 4.38-1.17.3 0 .6.42t.3.72zm68.34-27q-.66-.54-1.95-2.13-1.29-1.59-1.29-2.07v-.3l.3-.06q.66 0 1.95.48t2.28 1.2q.99.72.99 1.44 0 .9-1.14 1.56l-1.14-.12zm.48 25.26q1.5.24 2.25 1.56t.75 2.94q0 .24-.36 1.14l-.18.06q-1.08 0-3.78-3.36-2.7-3.36-6.24-8.28l-1.62-2.16q.06.3.06.9 0 .72-.42 2.94-.48 1.92-.48 3v.84q0 .36-.06.48t-.36.27q-.3.15-.6.51-.66.84-1.38 5.22-.48 2.64-.72 3.36.96 0 1.98-.3t1.26-.36q1.98-.66 3.24-.66 1.86 0 3.15.84 1.29.84 1.29 2.58 0 3.06-2.16 7.08t-5.43 6.87q-3.27 2.85-6.45 2.85-1.2 0-2.43-.81-1.23-.81-3.03-2.37-1.2-1.02-1.77-1.47-.57-.45-.99-.45-.6 0-1.32.18l-.96.24q-1.2.36-1.92.42l-.54-.6q.48-.66 1.29-.93t2.25-.57q-.06-.78-.93-1.38-.87-.6-2.73-1.56-1.92-.9-2.94-1.62-1.02-.72-1.08-1.68l.3-.18q2.4 0 5.64.42.54.06 2.31.24t3.27.18q1.68 0 2.58-.42-2.28.06-3.15-5.25-.87-5.31-.87-9.63 0-2.82.42-4.56 1.2 0 3.18.66.18.06 1.17.36t1.95.3l2.94-.18q.66-1.2.96-1.98.3-.78.3-1.68l-.24-.66q-.9.06-1.71.39-.81.33-2.13.93-1.32.66-2.28 1.02-.96.36-1.98.36l-2.22-3.12q.12-.66 1.41-2.25 1.29-1.59 2.73-2.88 1.44-1.29 2.04-1.29 1.02 0 1.95.63.93.63.93 1.65l-.72 1.2-.6-.3-1.5 1.44.24.18q.84 0 2.28-.6t2.22-.6q.36 0 .93.15.57.15.81.21-2.04-3-4.44-6.24l-1.68-2.28-2.88 1.26q-4.14 1.74-7.08 3.21-2.94 1.47-5.34 3.33l-2.1-3.24 2.94-2.4q.66 0 1.29.33t.99.93l.54.06q1.5 0 5.61-1.92t5.31-3.12q-.48-.84-1.23-1.89-.75-1.05-1.05-1.53-.24-.3-1.23-1.77t-1.71-2.91l.42-.24q.78.12 1.44.54.66.42 1.08 1.08 1.02.3 1.44.3 1.74 0 5.34-.6 3.48-.6 5.28-.6 1.68 0 2.82.36t1.14 1.62l-.9.9q-.96.06-3 1.11t-5.22 2.97l-2.94 1.68q.72 1.14 1.56 2.34 5.04 7.62 8.85 12.9 3.81 5.28 5.01 5.28h.18l-.42-1.5.18-.42zm-15.96-19.68q6.48-3.24 7.44-4.8l-.48-.18q-1.68 0-4.47.51t-4.35 1.11q-.06.54.63 1.68t1.23 1.68zm-3.48 22.5l-.06.18q.36 1.14 1.23 2.25t1.89 1.77q.72-.6 1.14-1.98.42-1.38.42-2.46 0-.18-.18-.45t-.42-.27q-.84 0-2.1.3-1.26.3-1.92.66zm-.48 9.36q.72-.36 2.07-.93 1.35-.57 2.25-.87l.06-.36q-1.26-.72-2.16-1.74-.9-1.02-2.28-2.94-.3 2.52-.3 4.44 0 1.44.36 2.4zM402 49.76q-1.92 0-4.14 1.02-2.22 1.02-5.34 2.88l-2.1 1.2.3.06q1.2 0 3.48-.48.3-.06 1.41-.24 1.11-.18 2.07-.18.54 0 1.29.42t.75.9q-.06.18-.18.51t-.18.51q-4.74 2.34-7.56 3.6-2.82 1.26-5.88 2.16.3.24 1.47 1.23t2.31 1.53q1.14.54 2.16.54 3.12 0 5.85-2.46 2.73-2.46 4.32-6.06 1.59-3.6 1.59-6.66 0-.18-.63-.33-.63-.15-.99-.15zm-17.4 11.16q7.44-2.94 8.04-3.78-1.68 0-3.33.24-1.65.24-4.11.72l-3.12.54 2.52 2.28zm66.48-12.84q1.2 0 2.16-.54.96-.54 2.16-1.56 1.44-1.08 2.22-1.5l1.14 1.2.66-.66q-.12-.6-.12-.9 0-1.02.48-1.74t1.44-1.62q.9-.78 1.38-1.47.48-.69.48-1.65 0-1.92-1.08-3.12-1.08-1.2-3-1.2-2.4 0-6.36 1.8-.36.12-1.41.54-1.05.42-1.59.42l-.12-.06q.3-.66.9-1.11.6-.45.72-.51 1.74-1.26 3.09-2.58 1.35-1.32 1.59-1.5 1.98-1.92 3.39-2.97 1.41-1.05 3.6-1.68 2.19-.63 5.49-.63h.81q.69 0 1.14-.27.45-.27.45-.87 0-.9-.66-1.59-.66-.69-1.56-.69-1.56 0-3.06.36t-3.72 1.08-3.72 1.08q-1.5.36-3.06.36l-.24-.12q.12-.42.9-1.08.78-.66 2.4-1.8 3.48-2.52 5.52-4.47 2.04-1.95 2.04-3.99 0-1.2-.87-2.07-.87-.87-2.07-.87-1.74 0-3.54.6t-4.14 1.74q-2.04.96-3.24 1.41-1.2.45-2.28.45h-.18q.18-.18.81-.6.63-.42 1.05-.87.42-.45.42-.87 0-.9-.75-1.5t-1.65-.6q-.54 0-1.53 1.11t-1.83 2.46q-.84 1.35-.96 1.95l2.46 3q.66-.06 1.83-.57t2.07-.93q.9-.42 1.38-.66 3.12-1.62 5.49-2.58t4.53-1.26q-.18 1.2-.87 2.19t-2.01 2.55q-3.36 3.84-6.24 5.88-2.88 2.04-5.43 2.85t-6.81 1.59q-5.82 1.14-9.54 2.28l-.18.54 1.14 2.04.24.12q1.26-.78 2.82-1.11 1.56-.33 4.14-.63 3.42-.36 4.86-.84 1.02-.36 2.94-1.44.3-.18 1.38-.75 1.08-.57 2.04-.81.66-.18 1.92-.3 1.32-.12 2.4-.42-.72 2.1-2.16 3.63-1.44 1.53-3.96 3.51-2.28 1.8-3.6 3.12-1.32 1.32-2.16 3.06l1.68 3 .36.12 1.26-1.08q.54.72.96 2.52.6 2.04 1.26 3.06t2.1 1.02zm-7.74-19.44l-.06-.06q.18-.06.6-.27.42-.21.78-.21h.06l-.06.12q-.84.36-1.32.42zm14.1 12.78q-1.68-1.2-3.69-1.86-2.01-.66-4.05-.66 2.34-1.92 4.08-2.91 1.74-.99 3.78-.99 1.08 0 1.83.12t1.17.66q-.12 1.44-.99 2.91-.87 1.47-2.13 2.73zm-6.96 4.38l-.24-.06q-.66-1.08-.66-1.98 0-1.8 2.28-1.8.84 0 2.25.36 1.41.36 1.41.9 0 .42-1.02 1.02-1.02.6-2.31 1.08-1.29.48-1.71.48zm3.78 22.86l.18-.54q.12-.36.18-.72 0-1.74-.18-3.36-.06-.6-.12-1.44t-.06-1.98q0-.84.42-3.45.42-2.61.72-2.79.48-.24 1.74-.24.72 0 1.92.24 1.32.24 1.92.24 1.5 0 1.5-1.32 0-.84-1.2-1.5-.54-.3-1.23-.36t-.87-.06q-1.56-.12-2.34-.54-.54-.3-1.38-1.26-.72-.78-1.26-1.17-.54-.39-1.32-.39l-.42.3q0 .54.3 1.14.24.84.24 1.2 0 2.4-1.38 2.94-1.5.66-3.3 1.2-1.8.54-2.34.72-2.46.6-4.26 1.32l1.62 3q.36.12.54.12.6 0 1.02-.45.42-.45.42-1.05.24-.12 1.98-1.08 4.02-2.22 4.86-2.22.36 0 .51.84.15.84.15 1.56 0 3-.78 5.1-.48-.24-.72-.24-.36 0-.36.6 0 .84.48 2.16.48 1.32 1.26 2.34.78 1.02 1.56 1.14zm1.02-16.02l-.06-.24.06-.12.24.18-.24.18zm56.82-9.36q6.9-1.38 12.78-1.38 3.24 0 3.24 1.26 0 2.1-2.31 5.04t-5.34 5.1q-3.03 2.16-4.95 2.16-.6 0-1.17-1.02t-.96-2.34q-.39-1.32-.39-1.92 0-.54.24-1.32t.66-.78q.72 0 1.35.6.63.6.63 1.32 0 .18-.84 1.86 1.08-.06 3.3-1.5 2.22-1.44 4.38-3.27 2.16-1.83 2.94-2.85-.36-.06-1.11-.21-.75-.15-1.29-.15-1.8 0-5.64.51t-5.46.99l.36 4.14q.72 7.68.72 11.58 0 .24-.09.66-.09.42-.15.66l-.24.18-.6-.3q-.84-1.32-1.29-2.43-.45-1.11-.45-2.31 0-1.5.12-3.36.12-1.86.18-2.58.3-3.18.3-5.88-1.62.6-4.74 1.92-5.4 2.16-8.22 3.06l-2.4-3.42q.06-.9 4.8-4.29t10.38-7.29v-4.2h-1.38q-2.16 0-3.6.18t-2.4.96q-1.5-.6-2.76-.72-.72-.12-1.02-.3-.3-.18-.75-.96t-1.17-2.1l.12-.24 2.16.24q2.52.36 3.84.36 2.34 0 6.9-.6-.06-1.74-.78-4.98-.06-.42-.36-1.89t-.36-2.79l.3-.48q.96.06 2.07 1.29 1.11 1.23 1.92 2.85.81 1.62.87 2.58l-.72 1.02-.84-.6q-.18.6-.24 1.44t-.12 1.32q1.02-.06 2.64-.3l2.19-.24q1.65-.18 3.03-.18 1.32 0 2.22.69.9.69.9 2.01l-.12.78q-.84.96-2.7 2.04-1.86 1.08-5.28 2.88-2.52 1.26-3.72 1.98.12.96.21 2.25t.15 1.95l.06 1.32zm11.88-23.34q1.2 0 2.91.36 1.71.36 3.03 1.11 1.32.75 1.32 1.89 0 .48-.48.96-1.14-.24-5.76-.36-.6 0-2.13-.06-1.53-.06-1.89-.18-.9-.42-1.14-1.14.24-.3.75-.42t1.41-.18q1.08-.12 1.44-.24-.18-.3-.42-.66-.24-.36-.54-.84l.75-.15q.45-.09.75-.09zm-7.56 11.46q-1.44 0-4.2.12l-.36 3.48q.24-.12 2.46-1.53 2.22-1.41 2.4-1.95l-.3-.12zm-15.84 14.94q1.44-.06 2.88-.45t3.36-1.11q2.76-.96 4.2-1.26 0-1.8-.06-2.7l-.06-2.64q-.24.18-2.4 1.5-3.84 2.4-5.97 3.93-2.13 1.53-2.19 2.55l.24.18zm65.64-16.5l5.34-2.16q4.56-1.86 5.28-2.16.72-.3 3.66-1.02 4.26-1.14 6.78-1.95 2.52-.81 2.76-1.47.06-.12.15-.45t.09-.51q0-1.44-1.98-1.89-1.98-.45-4.14-.45-4.14 0-10.8.15-6.66.15-7.38.45-.78.36-3.06 3.36-.84 1.02-1.56 1.89-.72.87-1.02.87-.66 0-1.23-.39t-1.53-1.29q-1.02-.96-1.74-1.44t-1.62-.48q-.12 0-.33.09-.21.09-.33.15.42 1.86 1.98 3.66l.84-.36q.84.42 1.98 1.44 1.14.96 1.98 1.44.84.48 1.86.48.84 0 1.56-.81.72-.81 1.98-2.61 1.32-2.04 2.1-2.64.9-.66 5.55-1.17 4.65-.51 6.81-.51 1.5 0 4.5.12-1.86 1.26-3.99 2.1-2.13.84-5.19 1.8-3.48 1.02-5.82 2.01-2.34.99-4.32 2.61l.84 1.14zm18.66 34.92q.9-.9.9-2.64l-.06-6.9q-.12-4.56-.12-6.84 0-4.98.3-8.52.06-.9.3-1.98t.3-1.5q.6-2.76.6-4.26 0-1.98-.9-2.91-.9-.93-2.25-1.14-1.35-.21-3.57-.21-6.78 0-8.1 1.08.12.54.63 1.32t.69 1.14l.48.36q1.32 0 2.79-.18l1.95-.24q2.76-.42 4.68-.42.36 0 .57.96.21.96.21 1.62.18 4.32.18 12.96 0 12.72-1.68 14.94-.6-.24-1.32-.96-.6-.54-1.05-.81-.45-.27-.99-.27l-.12.18q.06.96 1.05 2.1.99 1.14 2.28 2.01 1.29.87 2.25 1.11zm-24.3-35.22q.12.66 1.41 2.61 1.29 1.95 1.83 2.37.24-.06 1.11-.24.87-.18 1.44-.54.57-.36.57-.9 0-.96-1.02-1.77t-2.43-1.29q-1.41-.48-2.37-.48l-.54.24zm-2.34 31.14q.48-.48.63-1.11.15-.63.15-1.53 0-1.2-.33-2.4t-.93-2.76q-.66-1.86-.96-2.91-.3-1.05-.3-2.25 0-1.8.6-5.28l.3-2.1q.24-1.68.24-3.12 0-.48-.51-.81-.51-.33-1.05-.33t-.72 1.44q-.18 1.44-.18 2.7v7.62q0 11.7 3.06 12.84zM573.96 56q1.5 0 2.1-1.59.6-1.59 1.02-4.35.12-1.26.24-1.68l.24-.18q.12-.54.12-1.62 0-3.66-.87-5.91t-3.93-2.25q-1.08 0-1.65.33-.57.33-1.05.84-.48.51-.72.51-.66-.96-2.4-.96l-.96.06-.06 9.06q0 2.1.57 3.84.57 1.74 1.83 3.54l.48.18q.54-.24.69-.6.15-.36.18-1.02t.21-1.02q.78 1.08 1.86 1.95 1.08.87 2.1.87zm1.8-10.2l-1.5-.18q-2.28-.24-3.36-.6-.12 0-.27-.09-.15-.09-.15-.15 0-.66 1.05-2.13 1.05-1.47 1.65-1.47h.66q1.14 0 1.56 1.44.42 1.44.42 3l-.06.18zm-7.68-2.1q0-1.14.72-1.5 0 1.38-.6 4.14l-.12.12V43.7zm4.38 9.48q-.84-.48-1.53-1.29-.69-.81-.69-1.59 0-.6.12-1.92.24-.06 1.47-.42t2.37-.36q.48 0 .81.27.33.27.33.75 0 1.26-.87 2.76-.87 1.5-2.01 1.8z"/></svg>