<svg viewBox="0 0 447 80" xmlns="http://www.w3.org/2000/svg"><path d="M29.47 67.15q4.86-4.16 7.97-9.67.41-.76.41-1.69 0-1.24-.88-2.11-.88-.88-2.11-.88-1.29 0-2.34 1.05-.65 1-2.93 3.99-.24.17-.36 0v-9.85h3.99q2.52-.41 2.52-3.28 0-2.87-2.52-3.28h-3.99v-6.56h3.17q2.52-.35 2.52-3.23 0-2.81-2.52-3.22h-7.38q1.28-2.63 2.11-5.15h6.67q2.47-.47 2.47-3.29 0-2.87-2.47-3.28h-4.68l.35-1.4q.06-.18.06-.71 0-1.34-1-2.25-.99-.91-2.34-.91-1.06 0-1.85.5t-1.2 1.49q-2.46 9.96-7.03 18.52-.29.76-.29 1.64 0 1.4.9 2.34.91.94 2.2.94.76 0 1.58-.41.82-.41 1.35-1.23.06-.24.47-.35h.82v6.56H18.1q-2.4.47-2.4 3.28 0 2.81 2.4 3.28h5.04v16.58q.06 1.53 1.08 2.49 1.03.97 2.49.97 1.35 0 2.76-.88zm36.21-14.24q.06 2.76-.59 4.93-.64 2.16-2.22 2.46l-.76.11q-1.53 0-1.47-2.34V43.89h4.81q3.51.06 3.51-3.51V25.73q0-3.52-3.51-3.4h-2.11q1.87-3.52 3.16-6.56l.12-.88q0-1.53-1.06-2.49-1.05-.97-2.52-.97-1.75 0-2.75 1.52-1.76 4.98-4.34 9.38h-5.97l.11-.82q0-.65-.23-1.06-2.52-4.8-4.45-7.5-1.41-1.46-2.93-1.46-1.29 0-2.2.91-.91.9-.91 2.25 0 .47.18 1.12 2.52 4.39 3.98 6.56H40.6q-3.57-.06-3.51 3.4v14.65q-.12 3.57 3.51 3.51h3.17v3.87q-.18 4.51-2.35 8.44-2.17 3.92-5.27 6.15-1.58 1.35-1.58 2.93 0 1.4 1.14 2.4t2.67 1q.76 0 1.64-.36 4.92-3.34 7.67-8.93 2.76-5.6 2.87-12.57v-2.93h3.4v16.88q.47 6.15 5.51 6.27h4.69q3.92.05 5.86-3.2 1.93-3.25 1.99-10.46v-.47q-.41-2.52-3.17-2.52-2.81 0-3.16 2.52zM45.52 28.89h14.65q1.88-.12 1.76 1.76v4.92q.06 1.82-1.76 1.64H45.52q-1.93.18-1.75-1.64v-4.92q-.18-1.88 1.75-1.76zm61.64-16.17q-1.11-1.93-3.34-1.93-1.4 0-2.4.9-.99.91-.99 2.26 0 .47.17 1.11l1.06 2.35H83.38q-2.58-.24-3.75.93-1.18 1.18-.94 3.75v7.74q.47 2.58 3.28 2.58 2.81 0 3.28-2.58v-3.87q-.18-2.05 1.99-1.99h35.28q.76.06.82.47v.94q-.36 2.63-1.06 4.68-.17 1.82.68 2.9.84 1.09 2.25 1.09 1.06 0 2.02-.68.97-.67 1.61-1.9 1-2.29 1.29-8.91v-1.05q.06-2.35-.91-3.22-.96-.88-3.77-.88h-16.06l-2.23-4.69zm1.53 29.53q-.18-.18-.27-.35-.08-.18.03-.24 1.53-1.11 6.68-4.33 3.4-2.17 4.57-3.52.53-.82.53-1.76 0-1.11-.82-1.96-.82-.85-2.17-.96H89.47q-2.46.41-2.46 3.04 0 2.7 2.46 3.05h15.94q.64.12.58.35-1.93.88-4.45 2.93-1.58 1.11-1.58 2.46 0 .76.64 1.76l.7.82H80.68q-2.58.47-2.58 3.05 0 2.69 2.58 3.04h24.73q.35 1.06.58 2.55.24 1.5.24 2.37v1.53q.06 1.99-1.29 3.75-1.12 1.11-3.34 1.11-1.53 0-5.8-.99l-1.53-.36q-.17-.05-.82-.05-1.64 0-2.66.9-1.03.91-1.03 2.26 0 1.05.7 1.99.71.94 1.94 1.52 1.7.71 4.86 1.18 3.17.47 6.27.47 3.75 0 6.45-2.7 2.75-3.22 2.69-8.03V52.8q0-1.17-.47-3.17h15.82q2.52-.35 2.52-3.04 0-2.64-2.52-3.05h-18.28l-1.05-1.29zm74.65-20.74q2.52-.41 2.52-3.52 0-3.1-2.52-3.51h-37.62q-2.46.41-2.46 3.51 0 3.05 2.46 3.52h37.62zm-4.11 35.62q-9.84.71-20.03.71h-7.74q-1-.18-1-.71 0-.23.18-.47 2.75-2.98 5.83-6.82 3.08-3.84 5.19-7 1.11-1.47 1.11-2.82 0-1.64-1.82-2.57h27.07q2.52-.41 2.52-3.58 0-3.16-2.52-3.57h-47.34q-2.58.47-2.58 3.57 0 3.11 2.58 3.58h15.94q.11 0-.71 1.05-5.09 6.68-14.29 18.4-1.58 2.17-1.58 3.69 0 1.93 2.4 2.93 2.28.94 6.44.94h7.03q9.09-.06 24.09-.71l2.28-.11q.76 1.17 1.06 1.99 1.11 1.93 3.1 1.93 1.47 0 2.43-1.02.97-1.03.97-2.73 0-.64-.18-1.35-3.28-8.08-10.31-19.27-1.52-1.76-3.34-1.76-1.4 0-2.4 1.03-1 1.02-1 2.54 0 1 .53 2.17l4.4 7.21 1.69 2.75zm47.93-44.41q-1.11-1.93-3.34-1.93-1.4 0-2.4.9-.99.91-.99 2.26 0 .47.17 1.11l1.06 2.35h-18.28q-2.58-.24-3.75.93-1.18 1.18-.94 3.75v7.74q.47 2.58 3.28 2.58 2.81 0 3.28-2.58v-3.87q-.18-2.05 1.99-1.99h35.28q.76.06.82.47v.94q-.36 2.63-1.06 4.68-.17 1.82.68 2.9.84 1.09 2.25 1.09 1.06 0 2.02-.68.97-.67 1.61-1.9 1-2.29 1.29-8.91v-1.05q.06-2.35-.91-3.22-.96-.88-3.77-.88h-16.06l-2.23-4.69zm1.53 29.53q-.18-.18-.27-.35-.08-.18.03-.24 1.53-1.11 6.68-4.33 3.4-2.17 4.57-3.52.53-.82.53-1.76 0-1.11-.82-1.96-.82-.85-2.17-.96h-27.77q-2.46.41-2.46 3.04 0 2.7 2.46 3.05h15.94q.64.12.58.35-1.93.88-4.45 2.93-1.58 1.11-1.58 2.46 0 .76.64 1.76l.7.82h-20.62q-2.58.47-2.58 3.05 0 2.69 2.58 3.04h24.73q.35 1.06.58 2.55.24 1.5.24 2.37v1.53q.06 1.99-1.29 3.75-1.12 1.11-3.34 1.11-1.53 0-5.8-.99l-1.53-.36q-.17-.05-.82-.05-1.64 0-2.66.9-1.03.91-1.03 2.26 0 1.05.7 1.99.71.94 1.94 1.52 1.7.71 4.86 1.18 3.17.47 6.27.47 3.75 0 6.45-2.7 2.75-3.22 2.69-8.03V52.8q0-1.17-.47-3.17h15.82q2.52-.35 2.52-3.04 0-2.64-2.52-3.05h-18.28l-1.05-1.29zm47.58-8.55q-3.75 5.39-6.22 9.72-.58 1.17-.58 2.29 0 2.28 3.28 2.75h15v5.16h-20.27q-2.58.47-2.58 3.04 0 2.7 2.58 3.05h20.27v6.15q.47 2.46 3.28 2.46 2.87 0 3.28-2.46v-6.15h15.59q2.52-.35 2.52-3.05 0-2.63-2.52-3.04h-15.59v-5.16h13.6q2.52-.35 2.52-3.22 0-2.81-2.52-3.22h-13.6v-4.93q-.47-2.46-3.28-2.46-2.81 0-3.28 2.46v4.93h-8.09q-.41-.06-.35-.47 2.52-4.16 4.92-7.85h24.61q2.46-.36 2.46-3.05 0-2.64-2.46-3.05H287.4q.88-1.23.88-2.28 0-1.18-1.23-2.05h22.61q2.52-.41 2.52-3.29 0-2.87-2.52-3.28h-20.15q-.71-1.7-2.7-4.8-1.29-1.29-2.93-1.29-1.4 0-2.43.85-1.02.85-1.02 2.14 0 .64.29 1.35.7 1.17.94 1.75h-17.58q-2.58-.23-3.75.94t-.94 3.75V42.6q-.06 10.55-3.28 20.33-.23.71-.23 1.7 0 1.53.82 2.41.82.87 2.1.87.88 0 1.73-.49.85-.5 1.44-1.44 1.7-4.22 2.75-10.46 1.06-6.24 1.12-12.68V31.12q.35 2.34 2.46 2.58h7.97zm5.5-10.43q-.88 1.4-2.22 4.33H268.3q-2.17.24-2.46 2.46v-4.8q-.18-2.05 1.99-1.99h13.94zm53.32 18.04q-.58-.58-1.46-.58-.47 0-1.11.35v-2.93h7.03q2.52-.35 2.52-2.93 0-2.52-2.52-2.93h-7.03v-18.4q-.41-2.52-3.23-2.52-2.87 0-3.22 2.52v18.4h-7.15q-2.4.47-2.4 2.93 0 2.58 2.4 2.93h5.63q-2.52 8.79-8.21 16.52-.58 1.12-.58 2.17 0 1.29.85 2.14.85.85 2.08.85 1.58 0 3.04-1.29 2.64-3.22 4.34-7.03v14.35q.35 2.46 3.22 2.46 2.82 0 3.23-2.46v-18.1l3.16 4.92q1.05 1.23 2.4 1.23 1.23 0 2.11-.97.88-.96.88-2.37 0-.94-.47-1.99-2.52-3.99-5.51-7.27zm35.51 24.67q2.52-.41 2.52-3.28 0-2.81-2.52-3.22h-1.87V17.64q-.18-3.63-3.99-3.51h-17.93q-3.98-.06-3.75 3.51v41.84h-2.93q-2.46.41-2.46 3.22 0 2.87 2.46 3.28h30.47zm-31.87-36.62q2.28-6.21 3.16-11.02.06-1.58-.73-2.52-.79-.93-2.02-.93-.76 0-1.41.41-.64.41-1 1.17-1.69 7.15-3.16 11.48l-.12.82q0 1.06.71 1.76.7.7 1.75.7 1.76 0 2.82-1.87zm-13.83-2.81q-.53-3.34-2.46-9.14-.53-1.06-1.32-1.62-.79-.55-1.67-.55-1.11 0-1.88.79-.76.79-.76 2.14l.12.99q1.64 5.16 2.58 9.61.35 1.18 1.08 1.79.73.62 1.61.62 1.18 0 1.97-1.06.79-1.05.79-2.81l-.06-.76zm37.26 1.99h-13v-6.09q-.18-1.76 1.75-1.76h9.5q1.75 0 1.75 1.76v6.09zm0 15.23h-13v-8.55h13v8.55zm-13 6.57h13v9.14h-13v-9.14zm77.93-37.15H382.2q-3.57-.12-3.51 3.51v45.88q-.12 3.52 3.51 3.4h44.89q3.63.12 3.51-3.4V16.7q.06-3.63-3.51-3.51zm-40.67 6.09h36.33q1.88-.12 1.76 1.76v37.15q.12 1.93-1.76 1.76h-36.33q-1.81.17-1.76-1.76V21.04q-.05-1.88 1.76-1.76zm30.35 2.46H392.4q-3.58 0-3.4 3.52v4.22q-.18 3.75 3.4 3.75h24.37q3.52.06 3.52-3.99v-3.98q0-3.52-3.52-3.52zm-20.74 4.46h17.35q1.17.11 1.17.7v.82q0 1.29-1.17 1.17h-17.52q-.94 0-.88-1.05v-.94q0-.65 1.05-.7zm-4.45 9.02q-3.58-.18-3.52 3.51v9.15q.18 1.05.97 1.69.79.65 1.85.65 1.17 0 2.05-.7.87-.71 1.11-1.88v-5.98q-.18-2.05 1.99-1.99h17.11q1-.06 1.52.47.53.53.47 1.52v5.75q.18 1.11 1 1.78.82.68 1.87.68 1.23 0 2.11-.82.88-.82 1.12-2.23v-8.09q.11-3.69-3.4-3.51h-26.25zm30.58 17.93q-6.15-3.4-13.12-5.39l-.94-.12q-1.17 0-1.99.82 1-2.64 1.17-4.92-.12-1.41-.99-2.23-.88-.82-2.11-.82-1.12 0-1.94.71-.82.7-1.05 1.87-.53 4.22-3.84 6.5-3.31 2.29-9.52 3.34-.94.36-1.47 1.12-.52.76-.52 1.64 0 1.46 1.11 2.43 1.11.97 2.87.91 10.02-1.7 15.12-8.09-.06.18-.06.59 0 1.52 1.93 2.34 6.8 2.64 13.13 5.39l.76.12q1.23 0 2.11-1 .88-.99.88-2.34 0-1.82-1.53-2.87z"/></svg>