<svg viewBox="0 0 506 80" xmlns="http://www.w3.org/2000/svg"><path d="M42.35 14.71h-1.4l3.63 6.68h1.4l-3.63-6.68zm-17.81 0h-1.29l-8.2 19.22h1.17l4.69-10.66h12.18v-1.18H21.38l3.16-7.38zM19.5 62.82v1.52l15.47-11.19v-1.41l-10.78 7.74V43.66h9.61v-1.18h-9.61v-9.37h8.9v-1.17H19.27v1.17h3.75v9.37h-7.04v1.18h7.04V60.3l-3.52 2.52zm19.1-20.57v-18.4h25.55v18.4H38.6zm23.67-27.54h-1.4l-4.46 7.97H37.43v20.74h8.32L35.32 64.11h1.41l10.43-20.69h8.9v19.75h11.25l.59-11.43h-1.17L66.26 62h-9.03V43.42h8.09V22.68h-7.5l4.45-7.97zm39.14.24h-1.28l2.46 4.57H77.63v11.95h1.17V20.69h45.93v10.78h1.18V19.52h-22.03l-2.47-4.57zM75.98 45.88v1.17h27.43v15.06H87.94v1.18h16.64V47.05h23.44v-1.17h-23.44v-3.86l14.88-11.96H83.25v1.17h33.05l-12.89 10.32v4.33H75.98zm86.37-31.17h-1.4l3.63 6.68h1.4l-3.63-6.68zm-17.81 0h-1.29l-8.2 19.22h1.17l4.69-10.66h12.18v-1.18h-11.71l3.16-7.38zm-5.04 48.11v1.52l15.47-11.19v-1.41l-10.78 7.74V43.66h9.61v-1.18h-9.61v-9.37h8.9v-1.17h-13.82v1.17h3.75v9.37h-7.04v1.18h7.04V60.3l-3.52 2.52zm19.1-20.57v-18.4h25.55v18.4H158.6zm23.67-27.54h-1.4l-4.46 7.97h-18.98v20.74h8.32l-10.43 20.69h1.41l10.43-20.69h8.9v19.75h11.25l.59-11.43h-1.17L186.26 62h-9.03V43.42h8.09V22.68h-7.5l4.45-7.97zm65.16 4.34v-1.29l-12.42-2.11v1.29l12.42 2.11zM195.52 60.3v1.23l18.28-6.27v-1.29l-18.28 6.33zm18.75-32.58h-1.53l-3.28 4.1h-11.37l9.61-16.29h-1.29L196.1 32.99h12.42l-11.83 14.53h17.11v-1.17h-14.53l15-18.63zm1.17 10.78v1.17l11.95-1.4 2.11 14.29-10.08 8.97v1.52l11.02-9.55 16.76 9.9.82-14h-1.18l-.7 11.89-14.76-8.73 12.65-11.72v-1.52l-13.36 12.07-1.99-13.24 19.57-2.35v-1.17l-19.8 2.35-1.41-10.32 20.62-1.87v-1.17l-20.86 1.87-1.28-10.08h-1.29l1.29 10.2-8.68.82v1.17l8.91-.82 1.41 10.31-11.72 1.41zm53.9-6.21h-1.17L273.45 46h1.28l-5.39-13.71zm-2.81-17.58h-1.17v10.9h-9.49v1.17h7.15l-6.22 25.9h1.29l6.1-25.9h1.17v37.33h1.17V26.78h9.02v-1.17h-9.02v-10.9zm19.92 23.44h-1.4l8.79 11.13-11.25 14.83h1.52l10.55-13.89 11.25 13.89h1.52l-11.95-14.95 10.31-13.36v-2.57h-9.49l7.26-15.24h-27.42v1.17h3.52V49.4l-4.46 14.71h1.41l4.22-14.13V19.16h20.86l-7.27 15.24h10.2v.94l-9.96 13-8.21-10.19zm36.1 19.92v1.17h8.43V34.87h-5.03l6.44-17.46h-14.3v46.81h1.18V18.58h11.36l-6.44 17.46h5.39v22.03h-7.03zm33.63-7.5l-6.8-7.62h-1.64l18.05 20.45h1.64l-10.55-11.89 9.96-7.03v-1.53l-10.66 7.62zm-17.7-22.62v-9.37h25.79v9.37h-25.79zm25.79 1.18v10.42h-25.79V29.13h25.79zM334.5 61.88v1.41l14.06-7.45v-1.4l-10.08 5.39v-19.1h26.96V17.41h-28.13v43l-2.81 1.47zm50.16-6.97h-1.41l-5.62 9.08h1.4l5.63-9.08zm37.03 0h-1.41l5.63 9.08h1.4l-5.62-9.08zm-27.54 0h-1.41l4.92 8.49h1.41l-4.92-8.49zm13.12 0h-1.4l5.51 8.49h1.52l-5.63-8.49zm12.19-31.41v-1.29l-12.54 7.15v1.29l12.54-7.15zm-34.69-1.41v1.41l12.07 7.03v-1.4l-12.07-7.04zm16.64 12.19h-20.86V18.11h20.86v16.17zm1.18-16.17h20.86v16.17h-20.86V18.11zM376.1 50.92v1.17h51.92v-1.17h-25.43v-7.5h22.14v-1.17h-22.14v-6.8h22.03V16.94h-45.24v18.51h22.03v6.8h-22.14v1.17h22.14v7.5H376.1zm68.2-25.19h-1.28l4.8 8.67h1.29l-4.81-8.67zm-3.98 6.56h-1.17v31.82h1.17V32.29zm33.4-13.13h13.36v-1.17h-19.69l1.64-3.28h-1.29l-6.09 11.25h1.29l3.75-6.8h5.74l3.87 7.04h1.29l-3.87-7.04zm-23.2 0h11.95v-1.17h-18.63l1.99-3.28h-1.29l-7.03 11.37h1.29l4.45-6.92h5.98l3.51 6.57h1.29l-3.51-6.57zm1.28 28.25v-8.68h19.93v8.68H451.8zm19.93 1.17v9.37H451.8v-9.37h19.93zm-17.46-19.34v1.17h29.64v31.82h-10.66v1.17h11.84V29.24h-30.82zm-3.64 29.89h22.27V37.56h-22.27v21.57z"/></svg>