<svg viewBox="0 0 448 80" xmlns="http://www.w3.org/2000/svg"><path d="M57.83 42.89q.17-.47.58-.47 2.47 1.12 4.34 1.12 1.99 0 2.81-1.76.82-1.76.94-5.1.41-1.41.41-2.81 0-3.28-2.75-4.1-2.11 0-2.93 1.17h-2q1.59-2.17 2.38-3.69.79-1.53.79-3.05 0-1.35-.82-2.64-.76-.41-1.7-.41t-1.7.41q-.64 1-.64 2.23 0 .64.05.82-.11 3.34-1.64 6.33h-4.33q-2.46-3.17-2.93-7.62-1.06-1.23-2.11-1.23-.82 0-1.64.76-.47.94-.47 1.88 0 1.58 1.08 3.01 1.09 1.44 3.25 3.2-.52.23-1.34.23-1.12 0-2.17-.7-.53-.18-1.11-.18-1.23 0-2.14.82-.91.82-.91 2 0 .41.06.52l.64 3.52q.47 3.05 1.64 4.8 1.17 1.76 2.76 1.76 1.11 0 2.57-.82.24.47.24 1.29 0 1.41-.85 2.96t-2.2 2.78q-4.33 4.04-10.08 4.69-.58.23-.58.76 0 .35.58 1.11 2 1.29 4.34 1.29 2.46 0 5.01-1.34 2.55-1.35 4.48-3.7 2.87-4.45 2.93-9.84.35-.41.76-.41.47 0 1.12.65l-.35 2.28-.24 1.76q-.17 1.29-.17 2.22 0 2.35 1.14 4.08t3.84 3.13q3.34 1.76 6.38 1.76 5.04 0 7.56-4.57.7-1.82.94-4.45-.35-.47-.7-.47-.3 0-.59.29l-1.29 1.11q-3.4 1.76-6.91 1.76-2.41 0-4.16-.97-1.76-.96-2.64-2.9-.06-.29-.06-1.46 0-1.88.53-3.81zm-25.78-15q-.59-.06-.47-.47.82-1.35.82-2.63 0-1.88-1.76-2.64-1.7 0-2.58 1.23-.76 1.17-1.76 2.17-4.8 5.15-10.42 7.38-.59.41-.59 1 0 .64 1.17 1.34.88.41 2.11.41 1.58 0 3.08-.7 1.49-.7 4.24-2.52l1-.7q4.75-.82 9.38-.82 1.4.11 2.34-1.17-.18-1.76-2.17-1.76-.88 0-1.38.06-.49.06-.73.06-1.05 0-2.28-.24zm29.18 10.66q-.24.59-.94.47H48.34q-1.88-.99-1.88-3.04l.12-1.18q3.16-1.17 6.85-1.17 3.81 0 7.8 1.17.29 1.06.29 1.88 0 .7-.29 1.87zM33.1 50.39q-.47-.41-.58-1.05V44.3q1.05-.47 2.34-.47 1.29.06 2.93-.47 1.29 0 1.29-1.17l-.12-.82q-1-.71-2.4-.71l-1.35.06-2.34.18q-.53-.65-.53-1.64 0-.59.18-1.29 1.75-.76 4.33-.82 1.06-.18 1.06-1.47l-.12-.88q-1.17-.17-3.75-.17-2.52 0-9.84.29-1.76.59-1.88 2.23.76 1.05 2.34 1.05.77 0 1.64-.23l1.53-.24q.17.53.17 1.35 0 .71-.17 1.7-1 .29-1.58.29-.94 0-1.94-.52-3.69-.24-5.15 2.69-.06.12-.06.53 0 1.17 1.05 1.17.41 0 1-.17 3.28-.47 6.56-.47.06.23.06 1.05 0 2.17-.73 4.1-.74 1.94-2.02 2.93-.65.94-.65 1.88 0 1.05.7 1.84.71.79 1.82 1.09 3.34-.3 6.68-2.61t5.98-5.83q.29-.76.29-1 0-.7-.88-.41l-3.51 2q-1.47 1.05-2.35 1.05zm50.63-13.48q.93.12 1.26-.61.32-.73.32-2.08l-.06-1.41Q85.6 30 87.83 29q2.22-.99 6.5-.99h2.4q2.93-.12 6.57-.12 7.44 0 14.88.7 1.82.3 2.4 1.91.59 1.61.53 4.66.35 1.93 1.23 1.93.53 0 1.11-.53.76-1.23 1.32-3.13.56-1.91.56-3.72 0-2.99-1.53-4.51-.87-.53-1.64-.53-.64 0-1.11.35-1.05.88-1.93 1l-11.14-.82q-.64-.65-.58-1.88-.59-1.35-2.02-2.26-1.44-.9-2.9-.9-1.18 0-1.88.7-.88 1.41-.7 2.81-.7 1.88-3.28 1.88l-1.29-.12q-4.34.23-5.51.29-2.64.18-5.04-.99-.53-.24-1.23-.24-1.35 0-2.05 1.53-.64 2.11-.64 4.39 0 2.52.76 4.31.76 1.78 2.11 2.19zm26.95-6.44q-.12.06-.59.06-.35 0-.46-.06-3.17-.82-6.16-.82-3.98 0-7.79 1.29-1.58.29-2.34.23-1.12 0-2.11.82-1 1-1 1.99 0 .53.41.94.76.76 1.99.76.82 0 1.85-.35 1.02-.35 2.49-1.17l1.05-.53q3.05-1.17 5.86-1.17 1.64 0 3.4.35.35.24.35.76 0 .47-.23.91-.24.44-.59.68-.93.58-2.17.58-1.34 0-3.57-.94l-.88-.11q-.76 0-.76.64 0 .3.12.65l2.34 3.04v.36q-9.43.46-17.69 1.17-4.22.06-6.45 1.11-2.23 1.05-2.7 3.57 0 1.41 1.24 1.41 1.23 0 4.04-1.41 7.67-2.1 15.88-2.1h1.81l4.46-.12q.64.17.64 1.52 0 1.58-.82 3.58-.82 1.99-2.05 3.22-1.99 1.64-4.92 1.64-3.69 0-8.09-2.46-.17-.06-.76-.06-1.11 0-.76.88 2.23 3.1 6.18 4.57 3.96 1.46 8.7 1.29 4.22-.3 6.42-3.55 2.19-3.25 2.19-8.29 0-1.35-.05-1.76.17-.93 1.93-.93.7 0 2.58.29 4.22.88 7.56 2.64 2.22 1.17 4.39 1.17 2.17 0 4.01-1.12 1.85-1.11 2.96-2.98.65-1.47.65-2.05 0-.65-.65-.77-4.1.18-8.26.18-7.15 0-15.64-.64h-.71q-.29-.06-.55-.56-.27-.5-.27-1.03 0-.41.24-.64 3.1-1.58 6.33-1.64 1.58-.65 1.58-2.05 0-.88-.41-1.7-1.35-1.7-2.81-1.7-.82 0-1.41.41zm46.41-6.8h-.41l-1.23-.12q-1.18-.17-2.11-.17-4.75 0-6.33 3.92-.18.41-.18.71 0 .76 1.17.76 1.41.06 3.11-.29 4.86-1.47 10.55-1.53h15.7q.64-.06 1.14-.58.5-.53.5-1.12 0-.41-.23-.64-3.29-1.64-8.79-1.64-1.94 0-2.46.06l-10.43.64zm24.37 15.59q.76.06 1.76.58 1.11.59 2.46.59 1.7 0 3.31-1 1.61-.99 2.78-2.75 1-1.52 1.29-3.28l.12-.35q0-.3-.35-.35-2.58-.06-11.66-.06-9.26 0-11.9.06-9.49.41-14.85.87-5.36.47-9.29 1.35l-1.58.12q-1 0-1.76-.29-.82-.36-1.52-.36-1.06 0-2.64 1.06-1.34.94-2.08 2.28-.73 1.35-.61 2.7.47 1.87 2.28 1.87 1.76 0 3.93-1.52 8.08-3.46 15.94-3.46 1.64 0 2.11.06.52.12.46.82-1.99 3.99-5.09 6.62-3.11 2.64-6.39 2.76-.35.06-.94.23-1.93 1.12-1.93 3.28 0 1.18.41 2.23.76.94 2.05.94 1.05 0 2.17-.59.17-.06.64-.06.53 0 .65.06 3.98.24 9.49 1.88 2.05.52 3.98.52 5.75 0 10.67-4.39.76-.76 1.81-.76.77 0 1.53.41 1.99 1.17 3.57 1.76.7.7 1.7.7.76 0 1.23-.24.29-.29.29-.82 0-.64-.38-1.43-.38-.79-.96-1.38-3.87-2.87-9.14-6.44-2.17-1.64-3.75-2.46-1.59-.82-2.93-.82-1.12 0-1.88.58-.76.24-.58.94.87 2.05 2.75 3.22l3.57 2.52q.3.7.3.88 0 .64-.88 1-1.7 1.23-3.72 1.84-2.02.62-4.13.62-1.94 0-3.58-.59-1.64-.58-2.64-1.64-.52-.82-.52-1.46 0-1.35 1.81-2.64 2.64-1.76 4.57-3.75 2.17-1.99 3.99-4.69.06-.06.35-.06.59 0 .82.06 5.63-.17 12.89 2.23zm22.27-2.35q.93.12 1.26-.61.32-.73.32-2.08l-.06-1.41q.35-2.81 2.58-3.81 2.22-.99 6.5-.99h2.4q2.93-.12 6.57-.12 7.44 0 14.88.7 1.82.3 2.4 1.91.59 1.61.53 4.66.35 1.93 1.23 1.93.53 0 1.11-.53.76-1.23 1.32-3.13.56-1.91.56-3.72 0-2.99-1.53-4.51-.87-.53-1.64-.53-.64 0-1.11.35-1.05.88-1.93 1l-11.14-.82q-.64-.65-.58-1.88-.59-1.35-2.02-2.26-1.44-.9-2.9-.9-1.18 0-1.88.7-.88 1.41-.7 2.81-.7 1.88-3.28 1.88l-1.29-.12q-4.34.23-5.51.29-2.64.18-5.04-.99-.53-.24-1.23-.24-1.35 0-2.05 1.53-.64 2.11-.64 4.39 0 2.52.76 4.31.76 1.78 2.11 2.19zm26.95-6.44q-.12.06-.59.06-.35 0-.46-.06-3.17-.82-6.16-.82-3.98 0-7.79 1.29-1.58.29-2.34.23-1.12 0-2.11.82-1 1-1 1.99 0 .53.41.94.76.76 1.99.76.82 0 1.85-.35 1.02-.35 2.49-1.17l1.05-.53q3.05-1.17 5.86-1.17 1.64 0 3.4.35.35.24.35.76 0 .47-.23.91-.24.44-.59.68-.93.58-2.17.58-1.34 0-3.57-.94l-.88-.11q-.76 0-.76.64 0 .3.12.65l2.34 3.04v.36q-9.43.46-17.69 1.17-4.22.06-6.45 1.11-2.23 1.05-2.7 3.57 0 1.41 1.24 1.41 1.23 0 4.04-1.41 7.67-2.1 15.88-2.1h1.81l4.46-.12q.64.17.64 1.52 0 1.58-.82 3.58-.82 1.99-2.05 3.22-1.99 1.64-4.92 1.64-3.69 0-8.09-2.46-.17-.06-.76-.06-1.11 0-.76.88 2.23 3.1 6.18 4.57 3.96 1.46 8.7 1.29 4.22-.3 6.42-3.55 2.19-3.25 2.19-8.29 0-1.35-.05-1.76.17-.93 1.93-.93.7 0 2.58.29 4.22.88 7.56 2.64 2.22 1.17 4.39 1.17 2.17 0 4.01-1.12 1.85-1.11 2.96-2.98.65-1.47.65-2.05 0-.65-.65-.77-4.1.18-8.26.18-7.15 0-15.64-.64h-.71q-.29-.06-.55-.56-.27-.5-.27-1.03 0-.41.24-.64 3.1-1.58 6.33-1.64 1.58-.65 1.58-2.05 0-.88-.41-1.7-1.35-1.7-2.81-1.7-.82 0-1.41.41zm53.2-3.05q.53.18.35.71-.82 2.05-1.61 2.9-.79.85-2.6.85-1.53 0-4.11-.83-1.17-.11-2.28.27-1.11.38-1.93 1.08-.71.59-.71 1.58 0 1.29 1.53 1.29l.87-.11 4.28-.71h2.11q.53.06.35.47-2.69 3.52-5.62 6.1-.71.93-.71 1.52 0 1 1.65 1.17 4.39-.58 7.61-.82h2.23q.29.18.29 1.29 0 .88-.29 1.17-4.22.7-8.2.7-2.76 0-5.39-.35-1.06-.11-2.08.5-1.03.62-1.62 1.67-.52.94-.64 2.05.12 1.35 1.05 1.35.41 0 .53-.06 1.47-.35 3.34-1.05 5.8-1.53 12.66-1.53.47 0 .47.35l-.12 5.1q0 2.23 1.64 4.05.53.52 1.64.52 1.29 0 2.34-.76 1.06-.76 1.18-1.99v-6.51q0-.29.82-.41 4.33.24 8.67 1.53 3.1.99 4.98.99 4.92 0 6.5-6.03l.06-.35q0-.71-.53-.59-6.62 1-14 1-3.22 0-6.5-.18-.12-.06-.21-.47t-.09-.88q0-.93.3-1.11h8.67q2.05-.41 2.34-2.46-.12-1.05-.47-.94h-9.96q-.76-.41-.76-1.52 0-.65.06-.82-.18-1.06-1.14-1.73-.97-.67-2.26-.67-1.05 0-1.64.41-1.35 1.46-1.35 2.98 0 .47.06.65 0 .53-.47.82-.29-.06-1.58-.06l-1.58-.06h-.06q-.12 0-.12-.17 0-.3.3-.77l3.63-4.21q.35-.53 1.29-.59h14.53q1.46.18 2.93-.59.58-.41.58-.82t-.46-.7q-1.12-.59-2.82-.59l-1.29.06-2.69.18h-9.26q-.23 0-.23-.12 0-.17.23-.41.88-.88.88-1.7 0-.99-1.11-1.17-.24-.23.11-.47h17.11q.88-.06 1.5-.53.61-.46.61-.99t-.82-.82q-3.05-.35-6.09-.35h-10.55q-.41-.06-.41-.82 0-1.7-.06-2.11-.35-.88-1.29-1.38-.93-.5-2.16-.5-1.82 0-2.76.94-.76 1.64-1.05 3.4-.41 1.29-1.18 1.05l-4.1.12-4.63.06q-2.98 0-5.09-.88-1-.23-1.59-.23-1.28 0-1.93.82-.53 1.4-.53 2.63 0 1 .41 2.05.18 1.82.18 3.58 0 11.48-8.85 15.52-.82 1-.82 1.76 0 .94 1.17 1.76 1.23.7 2.58.7 1.82 0 3.61-1.17 1.78-1.17 3.07-3.05 1.82-3.16 2.52-7.29t.88-10.75q-.23-1.94 1.99-2.81 2.35-.47 5.16-.47 4.86 0 8.55-.24zm48.64-.7l7.73-.12q.23.18.23 1.23 0 1.17-.23 1.23h-1.05q-5.22.18-10.73.41l-2.87.12q-2.64.06-3.92.67-1.29.62-2.05 2.55v.3q0 .99 1.11.99.47 0 1.05-.17 3.69-.82 4.75-1.12 7.44-.99 13.71-.93.23.17.23 1.23 0 1.17-.23 1.23-3.34.23-5.45.23-2.23 0-5.1-.23-2.81 0-3.86 1.17-.59.82-.59 1.4 0 .65.59 1.06 2.4-.59 5.27-.82h7.85l.35-.06q.59 0 .82.38.24.38.12 1.08v4.34q-3.63 2.23-8.88 3.46-5.24 1.23-10.63 1.23-5.51 0-5.51 3.1 0 .47.18 1.12.58 1.75 3.1 1.75 1.41 0 3.08-.41 1.67-.41 4.77-1.46l1.82-.59q6.45-1.87 12.3-5.39.06.18.06 1.06 0 1.58-.41 2.99-.41 1.4-1.17 2.05-.94.76-2.58.76-2.17 0-3.63-1.11-.12-.06-.41-.06-.82 0-.64.99 1.11 2.29 3.22 3.61 2.11 1.31 4.74 1.31 1.94 0 3.87-.7 3.4-1.52 3.46-5.04l.17-6.79q0-.65.59-.24 6.04 2.93 11.25 7.15 2.23 1.82 3.93 2.72 1.7.91 3.28.91 2.52 0 4.51-2.46.94-1.23 1.46-2.46.65-1.35.3-1.52-.88.06-5.39-.59-7.09-1.35-14.42-4.69-.35-.11 0-.35.65-.11 1.14-.23.5-.12.91-.18l3.81-.76q.7-.35.7-1.29 0-.53-.2-1.05-.21-.53-.5-.82-.94-.77-1.93-.77-.88 0-1.7.56t-1.41 1.38q-1.7 1.23-2.69 2.11-.53.17-2-.53-1.46-.7-1.64-1.11V37.5q.12-.35.36-.35.52-.06 2.28-.06 3.99 0 7.09.41l.88.12q1.64 0 2.61-1.44.96-1.43.85-3.37.06-.64.47-.93l3.1.05 2.87-.05q.41-.12.65-.53.23-.41.23-.82 0-1.12-.88-1.35-4.33-.12-5.97-.12-.24-.47-.24-2.93-.23-1.05-1.08-1.64-.85-.58-1.97-.58-.82 0-1.52.35-.35.17-.47.47-3.98-.41-8.67-.47-.76-.76-.59-1.88-.41-1.05-1.64-1.73-1.23-.67-2.52-.67-1.23 0-1.99.67-.76.68-.7 1.5 0 1.23-.06 1.52-.06.41-.59.59-5.45 0-10.66-.59-1.41.18-2.61 1.2-1.2 1.03-1.2 1.97 0 .7.76 1.05 1.29.12 2.82-.47 1.75-.64 3.75-.7zm15.23-.12q4.51.06 8.2.47.41.18.41 1 0 .93-.41.99h-8.2q-.29-.06-.47-.41-.17-.35-.17-.88 0-.41.17-.76.18-.35.47-.41zm7.73 5.28q.77.17.77 1.23 0 1.17-.77 1.23h-7.73q-.29-.06-.47-.41-.17-.36-.17-.88 0-.41.17-.76.18-.36.47-.41h7.73zm-16.99 9.96q-3.57-1.53-6.33-3.4-.99-.3-1.46-.3-1.17 0-1.96.62t-.79 1.49q0 .94.93 1.35 4.81 1.88 8.91 1.64 1-.29 1-.76 0-.35-.3-.64zm85.31 2.46q-1.75 7.85-9.55 7.85-2.46 0-4.86-.59h-.18q-.46 0-.46.3 0 .35.29.64 4.8 3.4 9.14 3.4 3.75 0 6.74-2.35 2.99-2.34 4.98-5.97 1.7-3.22 1.7-5.92 0-1.52-.53-2.64-1.11-1.46-3.46-1.46-1.17 0-3.22.41-1.11.17-2.28.17-1.59 0-2.82-.26-1.23-.26-1.7-.73-.41-1.17-.41-2.17 0-1.17.65-2.64l.12-.88q0-1.17-.88-1.84-.88-.67-2.23-.67-.18 0-1.11.11-3.46.88-5.1.88-1.7 0-2.17-.88-.58-1.7-.58-4.33-.36-1.47-1.73-2.44-1.38-.96-2.96-.96-1.17 0-2.11.58-.7.88-.7 1.94 0 .47.05.58.18 1.12.3 3.23-.06 1.75-1.29 1.75-2.52.47-4.16.47-2.4 0-4.75-.82-.99-.23-2.17.65-1.17.88-1.58 2.05-.06.17-.06.7 0 1.93 2.11 1.93.59 0 .76-.05 5.45-1.7 11.14-1.53.47.18.47 1.7 0 1.41-.24 2.87-.47.35-4.19.68-3.72.32-7.29.38-.41.06-1.82.06-2.34 0-5.1-.53-1.58-.06-2.87 1.41-1.29 1.46-1.29 3.33 0 .59.3 1.47.41.41 1.28.41 1.23 0 3.05-.88 6.56-1.93 14.65-1.93 2.34 0 3.05.06h.06q.35 0 .29.58-.06 6.8-.35 13.24-.06.24-.06 1.06 0 1.99 1.46 2.34.18.06.76.06 2.06 0 3.46-1.52 1.41-1.53 1.53-3.81l-.24-8.56q-.12-.93-.12-1.23 0-1.93 1.29-2.16 2.99-.36 6.15-.36 3.17 0 6.51.36 4.8.05 4.33 2.46zm-.35-14.07h.12q.94 0 .94-.76l-.12-.52q-2.4-2.58-5.1-4.4-2.69-1.82-4.39-1.82-.76 0-1.29.36-.59.76-.59 1.58 0 1.46 1.76 1.93 3.87 1.11 8.67 3.63zm-17.34 6.92q-.41-.06-.47-.47-.18-.64-.18-1.23 0-1.06.65-2.05 1.76-.53 3.4-.53.99 0 1.87.18 1.12.41 1.12 2.05 0 1.23-.65 1.58-1.93.59-3.98.59-.94 0-1.76-.12z"/></svg>