<svg viewBox="0 0 447 80" xmlns="http://www.w3.org/2000/svg"><path d="M65 42.22q3.18-.24 3.18-3.84V16.12q0-.42-.36-.48h-1.38q-.36.12-.48-.24l.36-2.94q-.06-.36-.48-.42h-6.42q-.24 0-.36.42l-.72 2.58q-.3.66-.72.6h-7.74q-.36-.24-.42-.84l-.84-2.58q-.36-.24-.48-.18h-6.3q-.6-.06-.6.18l.6 2.82q-.06.6-.6.6H39.5q-.36.06-.36.48v25.56q0 .54.36.54H56q.36 0 .36.36v19.2q.12 2.16 1.11 3.3.99 1.14 2.85 1.38h7.62q.36.12.48-.24V60.4q-.06-.42-.48-.48h-3.18q-.72-.12-.78-1.02V42.94q0-.66.36-.72H65zm-40.5-18.6q.12-.48.42-.6h10.8q.54-.12.6-.6v-5.94q-.06-.36-.6-.36H26.6q-.72-.12-.6-.48l.6-2.94q.06-.06.06-.18 0-.24-.42-.3h-6.36q-.36.06-.42.48l-1.44 6q-.36.96-1.14.96h-1.2q-.42.06-.48.42v5.76q0 .36.24.36h6.12q1.32.3 2.22-1.08l.72-1.5zm22.8-.36q.12-.48.6-.6h12.3q.42.12.48.6v11.16q-.12.48-.6.66H47.9q-.48-.06-.6-.42v-11.4zM28.7 37.12q.06-.48.48-.6h6.54q.54-.12.6-.6V29.8q-.06-.36-.6-.42H16.16q-.36 0-.48.36v5.94q0 .36.36.48h3.84q.42.12.48.6v5.46q-.06.36-.48.36H15.8q-.36.06-.36.48v6.24q0 .36.36.36h4.08q.42.12.48.54v12.48q-.12 1.8.66 2.76.78.96 2.4 1.02h10.44q.54 0 .6-.36v-6.18q-.06-.36-.6-.42H29.3q-.48-.18-.6-.72v-8.52q0-.42.48-.6h6.54q.54 0 .6-.36v-6.24q-.06-.42-.6-.48h-6.54q-.36 0-.48-.36v-5.1zm16.5 29.34q3.3.12 4.02-2.94l3.12-18.72q-.06-.36-.42-.42H45.2q-.42.06-.42.42l-2.16 14.1q-.24.96-1.14 1.02h-2.22q-.6.06-.6.72v5.34q.06.42.48.48h6.06zm29.64-42.48q.06.42.48.48h7.02q.72-.12.72-.48v-2.46q.06-.42.48-.48h33.84q.42.06.48.48v2.1q.12.36.6.36h7.86l.18.06q.36 0 .54-.66v-8.76q0-.48-.48-.6h-19.92q-.54-.06-.72-.48v-2.1q-.12-.36-.48-.24h-8.1q-.42.12-.54.6v1.74q-.06.42-.6.48H75.32q-.42.12-.48.6v9.36zm51 4.68q-.12-.78-.6-.84H76.16q-.48.06-.6.48v5.52q.06.6.6.6h33.42q.42.18.18.66l-4.56 4.26q-.3.6-.24 1.02v1.86q-.06.42-.42.48H75.08q-.3 0-.42.36v5.4q.06.42.42.48h29.46q.36.06.42.6v9.84q-.18.48-.78.42H82.7q-.54.06-.54.6v5.46q0 .54.54.72h27.66q1.74-.12 2.7-1.2.96-1.08 1.08-2.94V49.6q0-.36.48-.66h13.32q.42-.06.48-.48v-5.4q-.06-.36-.48-.36h-13.32q-.42-.06-.48-.48v-1.14q0-.3.48-.6l10.98-7.98q.3-.3.24-.66v-3.18zm8.7-7.62q0 .24.42.36h52.32q.36 0 .42-.36v-6.66q-.12-.48-.42-.48h-52.2q-.42 0-.54.48v6.66zm16.14 19.92q.12-.72.84-.96h35.76q.36-.06.42-.42v-6.6q-.06-.36-.42-.36h-52.2q-.42 0-.54.36v6.72q0 .18.3.3h7.32q.36.12.3.36l-7.26 18.9q-.42.6-.66 1.38v4.98q.12.54.54.6h47.34q5.4-.36 5.04-6.42V49.54q-.06-.42-.42-.48h-7.26q-.36.12-.48.66v8.34q-.18.96-1.08.96h-33.96q-.42-.06-.36-.48l6.78-17.58zm44.16-16.98q.06.42.48.48h7.02q.72-.12.72-.48v-2.46q.06-.42.48-.48h33.84q.42.06.48.48v2.1q.12.36.6.36h7.86l.18.06q.36 0 .54-.66v-8.76q0-.48-.48-.6h-19.92q-.54-.06-.72-.48v-2.1q-.12-.36-.48-.24h-8.1q-.42.12-.54.6v1.74q-.06.42-.6.48h-20.88q-.42.12-.48.6v9.36zm51 4.68q-.12-.78-.6-.84h-49.08q-.48.06-.6.48v5.52q.06.6.6.6h33.42q.42.18.18.66l-4.56 4.26q-.3.6-.24 1.02v1.86q-.06.42-.42.48h-29.46q-.3 0-.42.36v5.4q.06.42.42.48h29.46q.36.06.42.6v9.84q-.18.48-.78.42H202.7q-.54.06-.54.6v5.46q0 .54.54.72h27.66q1.74-.12 2.7-1.2.96-1.08 1.08-2.94V49.6q0-.36.48-.66h13.32q.42-.06.48-.48v-5.4q-.06-.36-.48-.36h-13.32q-.42-.06-.48-.48v-1.14q0-.3.48-.6l10.98-7.98q.3-.3.24-.66v-3.18zm60.36-7.26q.48-.12.6-.6v-6.18q-.06-.36-.6-.36h-17.22q-.42-.06-.48-.48v-1.56q-.06-.36-.48-.42h-8.88q-.48.06-.6.42v1.32q0 .54-.48.72H256.4q-.36 0-.36.36v43.92q-.06.42-.48.48h-1.26q-.36 0-.48.36v6.48q.06.42.48.48h6.42q3.72-.48 3.54-4.56V22q.06-.48.48-.6h41.46zm-19.56 2.46l.12-.42q0-.48-.72-.54h-7.14q-.96 0-1.32.72l-1.5 1.98q-.18.24-.72.36h-7.74q-.36.06-.42.48v6.54q.06.54.42.6h3.9q.06.06.06.18 0 .36-.42.78l-3.96 5.82q-.42.78-.24 1.44v6.06q.06.48.42.6h17.46q.42.06.48.48v3.72q-.06.42-.48.48h-17.46q-.36.06-.42.48v6q.12.54.42.42h17.46q.42.06.48.48v6.3q0 .42.6.42h7.86q.36 0 .36-.42v-6.3q.06-.42.48-.48h12.66q.3 0 .42-.42v-6q-.06-.36-.54-.48h-12.54q-.42-.06-.48-.48v-3.72q.06-.42.48-.48h12.42q.36-.06.42-.6v-6.3q-.06-.42-.42-.48H294.5q-.24 0-.36-.48v-4.56q0-.36-.36-.36h-7.86q-.6.06-.6.6v4.32q-.12.6-.48.48h-7.92q-.54-.18-.54-.48 0-.12.3-.6l3.84-5.7q.24-.6.84-.72h24.72q.48-.12.6-.6v-6.54q-.12-.42-.6-.48h-20.4q-.36-.18-.12-.6l1.08-1.5zm81.06 1.5q.72-.12.72-.48v-9.24q-.12-.54-.6-.6h-10.86q-.36 0-.6-.42v-1.44q-.06-.42-.48-.48h-7.98q-.48.06-.6.48v1.32q-.06.54-.66.54h-10.32q-.42.06-.48.6v9.48q.06.42.48.48h7.14q.42-.06.48-.48v-2.34q.06-.42.48-.48h15.54q.48.12.48.48v2.1q0 .36.36.48h6.9zM332.54 54.7q.48-.06.6-.48v-6.36q-.12-.54-.6-.6h-9q-.3-.12 0-.66l4.92-8.82 6.54-12.3q.06-.36-.24-.48h-7.5q-.42 0-.66.24l-1.98 3.54q-.48.42-.72.36h-2.7q-.42-.06-.24-.6l1.86-3.3 6.36-11.82q0-.36-.48-.48h-7.14q-.9 0-1.2.48l-6.78 13.02q-.84 1.38-.96 2.82v6.66q.06.42.48.48h6.66q.48-.12.48.24l-6.42 11.22q-.3.84-.24 1.32v5.04q.06.42.48.48h18.48zm34.26-19.38q.48 0 .48-.6v-6.06q0-.48-.48-.6h-30.12q-.42.06-.48.6v6.06q.06.6.48.6h30.12zm1.74 10.8q.36-.12.36-.48v-6.3q0-.42-.36-.48h-33.18q-.42.06-.48.48v6.3q.06.42.48.48h12.42q.42.12.48.6v13.32q-.06.42-.48.48h-1.86q-.36 0-.48.54v5.04q.12.36.48.36h6.9q3.12-.18 3.3-2.94v-16.8q0-.54.6-.6h11.82zm-28.26 20.34q2.4-.06 3.06-2.34l2.34-14.82q-.06-.42-.48-.48h-5.94q-.42.06-.48.48l-1.86 10.62q-.06.42-.48.48h-2.1q-.42.06-.48.48v5.1q.06.42.48.48h5.94zm27-5.7q-.54-.18-.48-.72L365 49.3q-.06-.42-.42-.48h-5.88q-.42.18-.24.72l2.34 15.24q.48 1.56 2.1 1.68h6.24q1.02-.12.9-.48v-4.8q-.06-.3-.42-.42h-2.34zm-35.64 5.7q.36 0 .36-.72v-6q-.12-.54-.6-.6h-17.58q-.42.06-.48.6v6.24q.06.42.48.48h17.82zm80.82-43.2q.54 0 .6.36v3.42q.06.36.48.42h7.26q.36 0 .36-.3v-3.54q0-.36.36-.36h5.52q.36 0 .42-.6v-6.54q-.06-.42-.42-.48h-5.4q-.42 0-.48-.6v-2.46q-.06-.36-.48-.36h-7.26q-.36 0-.36.36v2.46q-.06.6-.6.6h-21.78q-.36 0-.36-.36v-2.22q0-.36-.36-.36h-7.26q-.42.06-.42.6v1.98q0 .36-.36.36h-5.76q-.6 0-.6.36v6.9q0 .36.6.36h5.52q.54.06.6.48v3.48q0 .42.42.48h7.26q.36 0 .36-.36v-3.6q0-.42.36-.48h21.78zM376.4 59.92q-.78.36-.84 1.08v5.22q0 .42.6.48h51.12q.12 0 .18-.36V59.5q0-.24-.3-.36h-36.6q-.18-.12 0-.48l36-21.9q.72-.66.72-2.04v-4.68q0-.18-.36-.24h-50.76q-.6 0-.6.36V37q0 .36.6.42h34.56q.36.24 0 .6l-34.32 21.9z"/></svg>