<svg viewBox="0 0 380 80" xmlns="http://www.w3.org/2000/svg"><path d="M72.38 24.04l-.06.48.3.36-.24.3-.12-.06-.42.42v.78q-.48.6-.9 1.98-.42 1.38-.54 2.28.06.06.03.18t-.09.12l.3.96-.12.36-.18-.06-.06.18h.06q-.12.72-.48 1.26l.24.18v.36l-.3.3h.3q-.06.18-.24.57-.18.39-.12.45l.15.09q.15.09.03.21l-.24.3.12.18-.06.36q-.78 1.14-.18 1.02l-.36.48v.06l.3.18-.24.78.18.54h-.18l.18.24.06.48q0 .42-.12.66l.06.3-.3.06.24.42-.12.18v.06h-.06l.18.42-.18.24.24.36-.06.6q-.06-.06-.15 0t-.03.18l.42.42-.18.9.24.18-.18.48.24.36-.12.18q.06.3.18.75t.06.69h-.06q.06.72.48 1.56l-.18.36q.36.36.57 1.2.21.84.39 1.26l-.12 1.32-.6.12.06.18-.06.12.06.78q-.06.12-.54 1.02v.24l-.24.48-.24.18v.84l-.18.3.06.36-.24.42-.3-.12-.18.18.06.18-.48.84v.36l-1.44.6q0 .06.12.12t.06.18l-.36.36v.42h-.24l-.3-.48q-.54 0-.72.54-.42-.3-.99-.48-.57-.18-.99-.12l-.18-.18-.9-.06q-.24-.42-1.02-.9l-.54-.72v-.48l-.3-.12q.06-.12.06-.36 0-.3-.18-.54l.12.06v-.06l-.18-.06-.18-.24-2.22-2.76-.24-.18v-.18h.12v-.06l-.66-.78.48.12-.12-.42-.18.06q-.18-.18-.66-.48-.48-.3-.66-.66-.06-.12.3-.18.06 0 .06.06v.06l.24-.36-.6-.42.18-.3q-.12-.06-.09-.18t.15 0l.66.66.12-.12v-.36h.06q0-.06.03-.15t-.03-.15h.42l.24.3.36-.36q.24.72 1.47 1.71t2.07 1.05l.24.12 1.08-.48q.12-.12.39-.48t.33-.78h-.12q0-.12.09-.24t-.03-.24l.42-.6.06.06-.06-.24.12-.36-.12-.12h.18v-.24h-.12l.06-.36q-.12-.24-.09-.78t.03-.72l-.12-.06.06-.3v-.24l.12-.12-.12-.06.24-.6q.06-.12-.12-.12l-.15.03q-.15.03-.09-.09v-.54h.12l-.03-.21q-.03-.21.21-.21.06 0 .18.18t.12 0v-.18l-.24-.36q0 .06-.3.06-.18-.54-.18-.6v-.54l.3-.3.12.18h.06l.06-.18-.3-.3v-.12h.24q-.36-.6-.66-.87-.3-.27-.78-.27-.42 0-.66.24l-.42-.18-.18.06h-.48l-.06-.06q-.42.12-1.8.96-1.68.96-2.4 1.14l-.84-.18-.18.18-.18-.12q0 .42-.6.6v.12l.3-.12v.48l-.42-.18h.12l-.36-.36.36-.24-.3-.06.12.18-.42.12h-.06l.24.54.24-.18.3.24-.12.36h-.54l.03.18q.03.18-.09.18l-.18-.18-.48.36q-.12.06-.03.24t.21.18q.12 0 .15-.06t.03 0v.12h-.42l.12.24q.06 0 .15-.06t.15 0l-.42.36-.12.3.12.18v-.06q.24.06.18.12-.36.48-.48.96l.24.18-.6.36-.24.36.24.18-.42.48h.06v.24l-.66.54-.36.96-.18.24-.18-.06-.12.36.06.42h-.24l-.24.24v.12l.36-.12-.12.24q-.18.36-.3 0l.06.18h-.54v.24l.3.3v.06l-.12-.12-.42.12-.18-.12q-.06.06-.09.24t.03.24l-.42.36q.06.06.03.21t-.09.09l-.48-.06-.06.06q.06.06.21.06t.03.06l-.3.18-.12-.24-.3.3-.24-.06q-1.38 1.44-2.16 2.13-.78.69-1.86 1.05l-.36.36-.06.18-.36-.06q-1.14.36-2.73 1.41-1.59 1.05-1.83 1.95-.6.06-.6.66h-.12v-.06l.18-.42v-.12q-.3.36-.57.69-.27.33-.51.63l.12.3-.3-.42h-.06v.12q-.06.06-.12.09t-.06-.09v-.24l.42-.18-.24-.48h-.06l-.12.36-.06-.3.18-.18.12.12.18-.78h-.06l-.3.36.12-.72q-.06-.12.03-.39t-.03-.27l.06-1.5.18-.12L36.8 58l-.18-.12.12-.48q0-.18-.09-.42t-.09-.36q.12-.12 0-.36l.12-.3-.06-.12q.18-.48.18-1.02 0-.36-.12-.72l.24-.3-.12-.12h-.12q-.96.6-1.02 1.26l-.24-.06v.42l-.48.12-.06.42-.42-.12-1.02.66q-.48-.42-.9-.78-.42-.36-.75-.54-.33-.18-1.23-.42l-.54.12q-.6-.18-.87-.36t-.33-.72l-.48-.42h.06l-.06-.18.06-.3-.3-.48.48-.24v-.78l-.24-.3.36-.18q-.06-.12 0-.36l.78-.36-.06-.36.78-.66v-.18q.18-.06.75-.18.57-.12.81-.24l.36.24-.36.3.12.18.6-.24.24.18 1.08-.3h.42q.24-.12 1.47-.63t1.23-.93l.36-.42h-.06q-.48.24-1.2.66-.72.42-1.32.66v-.24q.78-.24 1.5-.84t1.08-.84v-.12l-.12-.3h.06l-.3-.66-.96.48-.36-.06q-.72 0-1.32.24l-.66-.42-.12-.78h.24l-.06-.3.36-.48-.12-.24q-.12-.12-.66-.72t-.54-1.14l-.3-1.32q.12-.78.06-1.08l.12-.36q-.12-.06-.15-.15t.03-.21q-.12-.54-.21-1.5t-.45-1.68l-.3-.12q0-.66.24-1.14h-.18l.48-.36-.06-.24.48-.18.24.12.36-.06.42.3.24-.12-.24-1.38.24-.06-.06.12h.06l.12-.24-.12-1.08.18-.18-.06-.18.78-.66q.36 0 1.2.12.66.18 1.2.18.42-.24.6-.81.18-.57.18-.69v-.24l.24-.54h-.12q-.3.3-1.17.6-.87.3-1.47.42H35q-.78 0-1.02-.36-.48-.24-.78-.78-.3-.54-.42-.78.06-.06.06-.15t-.06-.15q.12-.18.36-.51t.36-.6q.12-.27 0-.57l.18-.42q-.3-.54-.3-1.44l.84-.36-.12.06.9-.12.6.12q1.32-.12 2.04-.78.36.06.93-.57.57-.63.81-.81l-.12-.6q.12-.06.06-.24t-.12-.24l.15-.45q.09-.27.09-.45 0-.3-.24-.48l.06-.54q-.12-.18-.45-.57-.33-.39-.33-.81h.06L38.3 16q0-.06.06-.18t-.12-.18v-.48l.12-.18.06-.66h.54l.66-.24 1.26.24.3-.12 1.26-.12.42-.3q0-.3.36-.42t.72-.12q1.2 0 1.53.33.33.33.45 1.05t.54.96q.12.3.24 1.26l-.18.72.18.72.72-.12 1.5.54.06-.12q.36.18.96.42t.9.6q0 .48.09.69.09.21.45.39.24.3 2.04 1.92h-.18q.06.3.06.84 0 .6-1.26 1.02-1.26.42-3.12.9l-1.8-.18-.72.24q-.78-.24-1.59.39t-1.47 1.47l.06.36-.48.42.42-.3.18.06 1.8-1.38.3.12q.96-.48 1.08-.6l1.2.24.6-.18q.48.24 1.38 1.14.42.42.87.78.45.36.81.42.36.3.9.42l.12.36q0-.06.48-.36l-.48-1.38.48-.3.06-.36.18-.06-.06-.18.42-.3-.12-.36q.06-.06.24.12l.36-.42.42.18q.9-.42 1.26-.96l.42-.12.18.24h.18l-.18-.36q-.06.06-.18-.06l.54-.3.72.9.12-.12.24.3.9-.06q1.14-1.26 2.04-1.62l1.26-1.32.06-.18-.06-.18.66-.42.06-.54.48-.24v-.48l.42-.18.24.06.36-.48.54.18.36-.18-.06-.12.54-.18.06.12.3-.06.3.06q.18-.06.6-.15t.66-.09q.48 0 .87.51t.51.63h.06l.06-.48h.12l.42.9q.06.06.12-.15t.18-.09q.24.24.75.6t.69.78l.24.24h-.12l.24.18.12-.06v.06l.48-.12.36.96-.06.3.12.42-.36.18zm-.6-1.8q-.18 0-.18-.12h.06l.12.12zM19.22 32.86q-.66 0-.96-.48-.3-.48-.54-1.35-.24-.87-.42-1.05l.12-.42-.06-.12q0-.18.18-.54l.24-.48.06-.36h-.06l-.06-.6.42-.66.84-.24q.24.12.42.12.54 0 1.2-.66l.48.36q.18-.12 1.08-.36.6-.72 1.38-1.38l.48-.12.24.06q0-.24.27-.36t.57-.12q.24 0 .6.06t.6 0l.42.12h.18q.72.18 1.14.36.42.18.72.6l.18.06.18-.06q-.06.78.18 1.2.24.42.84.84.42.36.63.66.21.3.15.72-.36.48-1.62 1.26-1.26.78-1.86.9v-.12q-1.8.36-3.21 1.11-1.41.75-3.27 2.07h-.12l.06-.06q.3-.42 1.02-1.35.72-.93.9-1.47-2.28 1.44-3.48 1.86v-.06l-.12.06zm45.3-5.76l-.06-.48q.12-.36.18-.87t.12-.87l-.18-.24q-.48.36-1.5 1.05-1.02.69-1.8 1.32-.78.63-1.44 1.35l-.36.78.06.12v.6l.06.12-.54 1.2.36.12q.48-.06 1.32-.42l.06-.24h.36l-.18-.3.18-.12.66.18v-.18l.36.06q.78-.54 1.98-.54l.36-1.2q-.06-.06.03-.27.09-.21-.03-.27l.06-.24-.18-.48.12-.18zm-29.28 7.98q.66.42 1.44.6 1.26-.24 3.24-1.02.42-.12 1.29-.48.87-.36 1.53-.42v-.18l-.3.06 1.56-.42 1.08.18q.42-.66.66-1.92h.06l-.06-.18.36-.48v-.12q0-.6-.54-.9-6.12 3.72-9.06 4.5l-.12-.06-.24.06q-.36-.24-.81-.51-.45-.27-.75-.87h-.24l.06.3q-.06 0-.06.3l.06.12-.06.6q.18.06.39.42.21.36.39.48l.12-.06zm17.82-1.26l.06-.66q0-.36-.12-.96.12-.06.15-.18t-.03-.24q-.12.12-.48.42t-.42.72q-1.68 2.16-1.08 1.56.06-.06.12.03t0 .15h-.36q-.06.06 0 .12t.12.06l-.3.3q0 .12-.03.18t-.03.12l.06.18-.48.06v.12l.3.18-.48.72.06.3-.18.06.06.18-.36.66h-.3l-.12.06.12.24-.36-.06.18-.72q-.06.06-.27.39-.21.33-.21.75l.06.18-.12.36q.06.24.18.18v.06l.3-.06v-.06l-.36-.06.06-.6.3.06q.06-.06.18-.03t.12.09l-.18.6.06.12-.06.36.18.06-.06.12q-.36-.36-.54-.36l.18.6-.06.42q-.3-.18-.3 0l.12.18q0 .36-.18.81-.18.45-.48.45l.06.6-.48.72-.42-.3h-.06l-.66.6-.24-.54q-.6.24-1.02.06l-1.02.3-.18-.06-1.62.42.18.54-.18.36h-.06v.12l.24.42.48.12.18.06q.18 0 .45-.09t.39-.15l-.3.3v.12l.54-.12.12.18-.12.06.18.06.3-.12q1.02 0 1.8.24l.48-.06-.06.12.84-.42h.06v.24l-.54.78.36.42-.06.24-.36.06-.18-.06q-.18.24-.45.51t-.33.57l-.84.48-.06.18h.06v.42l-.84.66-.42-.06-1.02.18q.06-.06-.03-.09t-.15.03l-.48.3.18.3-.06.12.18.06-.24.06-.12-.12q-.06 0-.09-.03t-.03.03v.18q.06.06.15.03l.09-.03q.06 0 .06.06t-.06.06q-.06 0-.24-.03t-.12.15l.06.3h-.12v.54h-.18l.06.54h-.06l.12.42-.18.18q0 .6-.18 1.62 0 .36-.09 1.05-.09.69-.03.93l-.3.42.06.12v.36l-.3.06-.54 1.8v.12q.24-.3.66-.66.42-.36.66-.66.6-.42 2.01-1.95 1.41-1.53 1.89-2.25-.06-.06 0-.18t.12-.06v-.36l.48-.54-.06-.24-.24.12.06-.18.78-.06q0-.84.3-1.08l.12-.24v-.36q.18-.3.39-.63.21-.33.51-.75h.06l-.18-.42.24-.18q.06-.12.03-.18t-.03-.18l.54-.3-.18-.12.36-.78-.06-.3.36-.18-.06-.48.18.06q.18-.24.45-.72t.51-.78v-.48l.3-.18-.3-.12v-.24q.3 0 .45-.27.15-.27.3-.78t.27-.63l.06-.06-.06-.12q0-.9.48-2.58.48-1.8.48-2.76 0-.12-.18-.3l.3-.48-.06-.72.3-.48q-.06-.06-.03-.21t.09-.15v-.72h.12zm-36.54 5.82l-.12-.24.36-1.2-.06-.12q.36-.9.78-1.08.42-.18 1.5-.18.3 0 .78.24 0-.3.6-.27.6.03.84.03l-.12-.42q.36-.18.84-.51t.72-.45q.6-.06 1.11-.54.51-.48.75-.66.66.24 1.5.24l.48.42h.3q.78.24 1.35.78.57.54 1.14 1.2.57.66.93 1.08v.6q-.42.6-1.08.84-.42.36-.96.6t-.72.3q-.6.66-2.28 1.62-.72.42-1.47.96t-1.23 1.14h-.18l.06.24q-.12.06-1.5 1.44h-.18l-.24-.48.12-.18.3.24h.18v-.18l-.3-.24.42-.54-.06-.24.24-.18-.12-.24.9-1.62h-.18l-.66.42q0 .3-1.41.81t-1.89.51q-.18-.12-.57-.39-.39-.27-.6-.57-.21-.3-.21-.72l-.12-.12.12-.84-.06-.24-.06-1.08.06-.18zm42.96-1.92q.42 0 1.44-1.11t1.32-1.71l-.06-.12.36-.42-4.8 2.4.12.3-.48.96-.06.06h.06v.06l-.36.6q.18.12.06.21t-.12.15l.3.12.24-.3q.06-.06.09.06t.09.12q.9-.48 1.8-1.38zm4.44-1.5v-.24q0-.42.18-.6l-.24-.12q-.42.48-1.62 1.44-1.44 1.26-1.5 1.32l-.06.06-.06.18h.06l.6-.42.3.06.6-.24q.24-.3.69-.51.45-.21.87-.15l.06-.36q-.12-.18.12-.42zm-26.76 4.86q2.16-1.2 3.72-2.7v-.06h-.06l-.36.3v-.12q-.6.18-2.16.96-.72.42-1.38.66l-.3.3v.3l.54.36zm19.2-2.28h.3l-.06-.18h-.12l-.12.12v.06zM38.9 41.26q1.02-.42 1.86-.66l1.86-.66q.3-.24.42-.48l.18-.36q-.18-.18.06-.42h-.06l-4.32 2.58zm9.54-1.62l-.06.24.3.06.06-.06q-.12-.24-.3-.24zm-.24.3l-.06.3h.24l.12-.12-.3-.18zm21.24 2.04h-.06.06zm-.18.06l.12-.06-.12.06zm-40.86 1.8q0 .12.03.21t-.06.09q-.09 0-.27-.06l-.12.54v.12q-.06.18-.21.45t-.21.51l-.06-.06h-.06q0 .12.12.24l-.36.72q.12 0-.12.24v.12q-.18.12-.48.72.12 0 .12.09t-.12.09h-.12l-.06-.06.06.24-.96 1.8-.18.12-.3.36v.36l-.06.06-.06-.06h-.06v.24h.12l-.12.36-.36-.24-.42 1.14q-.06.36-.36.9t-.3.78v.24l-.06.18q-.24.3-.54.96-.3.66-.48.9l.42 1.02q-.06.54-.75.96-.69.42-1.71.78-1.02.36-1.26.48l-1.02-.42q-.42-.06-.69-.39-.27-.33-.51-.93-.36-.96-.78-.96-.06-.12.12-.3-.42-.6-.72-1.38.24-.42.24-1.14 0-.66-.18-1.08.42-.54.81-.72.39-.18.99-.27.6-.09.78-.51l-.06-.3q.78-.78 1.26-.9 1.08 0 1.44.72l.24.06q.24-.3.63-.63t.57-.57l.12.06.18-.24-.06-.24v-.06l.24.06q.42-.72 2.52-2.46 1.44-1.26 2.1-1.92.66-.66.84-1.2h.18l.36-.18q-.06-.06-.06-.18t.12-.18l.3.24-.36.42q-.06-.06-.15-.06t-.09.12zm26.64.42v-.12l-.12-.12h-.06v.3l.18-.06zm-1.38 3.3l.12-.06.06.12v.06l-.18-.12zm6.42 10.14h.06l.03.03.03.03-.12-.06zm63.78-29.88l-1.14-.24v-.06h-.42q-.54 0-.84.24-.12-.12-.24-.09t-.18.03l-.06-.06h-.06l.06.12-.54.18-.36-.06-.3.12-.18-.12-.54.12v-.06l-.12.06-.48-.06-.42.12-.18-.06-.66.12V28l-.36.06-.06-.06v.12h-.06l-.18-.24-.18.18h-.6v-.18l-.96.18-.06-.06v.36l-.3.3q-.06.06-.15-.03t-.09-.03h-.6l-.18-.18-.3.3-.42-.24-.18.3h-.6l.06-.18q-.36 0-.84.21t-.78.27q-.06-.06-.15-.03t-.09.09v.12q.54.42.84 1.02l-.06.3q.36.54.93 1.17.57.63.99.81v.24l-.3.54.06.42q-1.86 1.74-4.92 3.24l-.12-.06q-.48.18-1.32.36-.84.18-1.41.45t-.93.81l-.18-.12q-.12.36-.45.75t-.75.51q.3.42.81.69.51.27.69.39l1.5-.48.24.06 1.62-.84h.06l-.06.24q.66-.84 1.62-1.14l.12.18.48-.18-.12-.06.24-.42q.06.06.15.03t.15-.03q.54 0 .54.18l.6-.6.54-.18.12.36h.12l.36-.24v-.48l.3-.06.12.24 1.56-.78h.18l.12.18q-.06-.12.06-.24t.18 0l.12-.3.42.06q.48-.18 1.02-.48t1.2-.36l.78-.54.48.24.48-.3.84.42.18-.24q.24.12.78.12t.81.15q.27.15.27.69l.66 1.44q.06.12.03.24t.03.12l.24-.06-.06.36q.24.3.78 1.23.54.93.9 1.05v.12l-.3.48.18.36-.54.24.06.06q0 .48-.42 1.62l.06.18h-.06l.06.12q0 .48-.21.63-.21.15-.66.27-.45.12-.45.36l-.84-.06-.6.06.06-.3q-.72 0-1.14-.12l-.9.12q0-.06-.09-.15t-.15-.03l-.42.24-.36-.3-.36.06-.06-.06q-.06 0-.18.06t-.24 0l-.42.24.06.12-.72.12-.12-.06v.3h-.42l-.3.18h-.48v-.18l.3-.36h.48l.06-.18-.54-.24q-.72.42-.84.48l.12.12-.54-.12-1.32.54-.24-.6-.3.54.06.12-.18.36v-.06l-1.08.42v-.18l.24-.24-.12-.12.36-.3v-.18h-.12l-.36.24v.24h.12l-.6.24-.06-.06h-.06q0 .06.09.12t.03.24h-.48v-.24h-.18v.06l.18.18.54 1.92q.54.66.87 2.01.33 1.35.33 2.61 0 .72-.06 1.02.12.18 0 .36l.18.54-.06.12.06.24q-1.32 3.3-4.8 7.14-.36.24-.93.72-.57.48-.99.84-.18.3-.45.39-.27.09-.42.21-.15.12-.21.54l-.66.66-.3-.12.18-.48-.24-.12-.12.12-.42-.06-.24.06-.54-.54-.48.3q-.54 0-.78-.54t-.24-1.08q0-.06.09-.15t.03-.15l-.24-.3.12-.3-.96-.72-.24.12-.3-.72h-.42q-.06-.54-.3-1.35t-.48-.81l-.54-.3-1.08-1.38.18-.06.36.42.24.06-.3-.42v-.12l-.54-.36.24.06v-.06l-.18-.18.12-.12 1.44.66v-.06q-.42-1.2-1.2-1.68-.06-.36-.66-1.2l.06-.24q-.42 0-.75-.33t-.45-.39v-.18h.3l.84.6-.06-.18.3.3h.3l-.6-.48v.12q-.42-.3-.69-.57l-.51-.51.24-.12.96.78q.06-.06.12-.09l.06-.03v.18h.24v-.36l-.18-.06.06-.42-.24-.6h-.06l.06-.3-.18-.36q-.66.18-1.2.54l.36.48h-.24l-.18-.36h-.12l.12.24-.78.36-.66.78-.6-.12-.84.84-.48.12q-.36-.12-.48.06h-.3l-.36-.18-.18.12q-.36 0-1.17-.75-.81-.75-1.05-.93l.18-.3-.72-.48.06-.12q-.24-.12-.66-.42-.42-.3-.42-.42 0-.06.24 0t.24-.18v-.12l-.12.12q-.24-.06-.06-.24t.12-.24l-.66-.24v-.06l.72-.18v-.12l-.3-.18q-.06-.12.18-.12t.24-.06l-.36-.78.54-.84.78-.48q.9.24 1.26.12l.12.18q1.02-.06 7.68-2.82l2.22-.9.06-.3h.18l-.06.18.9-.24.18-.36h.18l-.36-.96q0-.54.75-1.53t2.19-2.73q1.68-1.92 2.1-2.58l-.18-.12.36-.18v-.12q-.42.12-.9.6-.48.48-.66.9l-.3-.12-.18.3q-.96.54-2.16 1.56-1.2 1.02-1.68 1.86-.36.24-1.44.48l-.42-.42q-.06.12-.21.12t-.21-.12h-1.14q-.3-.18.24-.18v-.12l-.78-.36-.18.3.06.12v.06h-.24q0-1.98-.36-2.94.18-.3.51-.66.33-.36.45-.72h-.12q0-.06.03-.18t-.03-.18q.54-.36.84-.72.3-.36.54-.96l.18-.18q.06 0 .21.03t.21-.09v-.36q.12-.06.24-.03t.18.15l.78-.18.54.12.96-.36.18-.48.36.06q-.12-.06-.12-.15t.18-.09l.12.12 1.92-.9.48.06 1.44-.66.12-.12-.06-.24q.48 0 1.02-.24t.54-.66l.54-.54.06.06.36-.24.06.24.72-.18.3.18h.06l.18-.3.66.06q1.14-.78 2.31-2.13 1.17-1.35 1.53-1.71-.72.42-1.68.81-.96.39-1.44.57v-.12q-.96.36-1.98.66-.84.24-1.68.54-.84.3-1.5.78-1.2.12-4.2 1.8-2.1 1.08-2.64 1.26l-.24-.06q-.84.42-1.44.42l-1.2-.96-.48-.12-.6.12-.42-.24-.3.12q-.6-.18-.93.06-.33.24-.75.81-.42.57-.66.75-.06.06.03.12t.15.06q-.18.48-.48 1.26t-.6 1.26q.12.06.18-.09t.12-.09Q88.4 37 86.96 39.1l.18.6-.3.48q-.06.42-.06 1.44l-.12.36.06.18q-.6.78-.87 1.02t-1.05.42q-1.56-.18-2.22-1.5-.66-1.32-.66-3.18-.84-.72-.84-1.38 0-.24.18-.42l-.06-.18.42-.96-.06-.06q.36-.36.66-1.38l.9-.84q.54-.36 1.32-2.07t.9-2.49h.06l-.06-1.08.06-.42-.06-.18.3-.36-.12-.24.18-.42-.06-.24.72-.54q.96 1.2 1.86 1.68.42.48 1.08 1.92.42-.12.69-.6.27-.48.45-.72.42-.36 1.02-.84.6-.48 1.02-.9.36 0 1.05-.27.69-.27 1.05-.27.12-.06-.12-.12t-.06-.24l4.74-1.8q.48-.48 2.34-.9 1.5-.48 2.46-.87t1.62-1.05l.42.06.9-.24-.9-.24-.12.06q-1.5-.6-1.86-.84-.78 0-1.08-.24-.06-.06-.18.03t-.12.15l-1.08-.12-.66.18-.12-.06q-.18 0-.9.12t-1.26.42h-.36q-.48 0-.75.12t-.57.48l-.24.06v-.12l-.72.36.24-.3-.48.06v-.06q.18-.18.63-.6t.93-.66v-.06q.24-.12 1.08-.66.84-.54 1.26-1.14v-.36q-.66-.6-1.2-1.74l-.36-.06v-.48h-.12l.06-.3q-.12-.6.15-1.47t.87-.87l.18.12q1.68-.12 2.34-.54.48-.06 1.2-.24t1.14-.12q0 .06.09.06t.09-.06l.36.12.66-.12q0 .06.09.06t.09-.06q.78 0 1.5.3l.78-.24.66.18.3-.12q1.38.36 1.68.63.3.27.48.96t.3.99q.18.24.42.48t.48.54q-.12.36-.33.69-.21.33-.33.69 0 .48-.21.87t-.63.39q-.36.3-.66.45-.3.15-.42.42t-.3.87l-.24.18h.36l.12-.06-.06-.18h.48q.18-.06.51-.3t.63-.18l.54.06q.06-.12-.18-.36 1.68-.48 1.8-.48l.12.06.48-.42q.72 0 1.14-.9.06-.12.21-.12t.21.12l.3-.18.18.06q.84-.06 1.8-.9l.12.06.54-.24.18.12.84-.3 1.38.6.66 1.38-.12.6h.36q.72.42 1.68 1.74 1.14 1.44 2.04 1.92.18.48.66 1.32.66 1.44.66 1.5-.06.6-.06 1.62l.18.24-.36.18.12.48q-.72.54-1.8.72l-.3-.06-.3.06zm-15.96-7.8v-.06h-.36v.12l.36-.06zm4.8 3.66l.24-.24h-.24l-.9.54.9-.36v.06zm4.5 4.14v-.06h-.18l-.24.18h.24l.18-.12zm-3.36.6l.18-.24h-.18l-.24.18v.06h.24zm2.28 16.02l-.3.24q.06 0 .3-.12t.24.12l.48-.3v-.06l-.12-.06-.18.06-.36-.06-.06.18zm-5.76 0v.24h.18l.18-.12-.36-.12zm7.14.24h.06l.12.18h-.18v-.18zm-8.34.06l-.12.12.6.78.18-.36.18.24q0 .12-.06.15t0 .03h.18l.18-.42-.12-.06.18-.3h-.18l-.18.36q-.06-.06-.36-.3t-.48-.24zm7.68 0h.06l.24.18-.18.12-.12-.24v-.06zm-3.54.78l.06-.24h.12v.42h-.12l-.06-.18zm1.14-.18l.12-.06h.06l-.18.36-.18-.3.12-.06.06.06zm-2.28.42l.12-.24.42.12-.42.24-.12-.12zm-9.42 1.14l-.42.24-.6-.06.06.12-.6.3q-.12.06-.18-.12l-.06.24h-.12q-.36 0-1.44.42-.06.12-.21.21t-.27.03l-.78.48h-.18l-.48.6-.12-.06q-.48.48-1.68.9l-.06.18q-.12 0-.15-.06t-.03 0q0 .24.12.6h.12v-.24q.54.72.66 1.38l.9 1.2q.06.06.09-.06l.03-.12q-.18.48.6.96t.9.54h.18l-.54-.54v-.12l.9.06.54.42.24-.18q.54.18.72.18.24 0 .54-.36.3-.36.42-.66h.3l.54-1.14q.48-.96.72-1.53.24-.57.24-1.29l-.06-.84q0-.42.06-.48l-.36-.96-.18.06v-.06q-.06 0-.21.06t-.15 0v-.06l.36-.24.12.12.06-.24-.3-.06q.18.12.12.18l-.36.12v-.12zm-.48.6v-.06q0-.18.12-.18h.06v.24h-.18zm-4.62 5.88l.36.12-.12.18q-.24 0-.24-.3zm.3.54l.18-.18h.24v.18h-.42zM95 55.54l.12.18h-.24v.06l-.18-.12.18-.12H95zm.42.18l.12.3-.18-.12v-.18h.06zm-.48.12H95l.36.3v.12l-.12.12-.3-.36v-.18zm.84.18q.06 0 .06.06l-.06-.06zm-.24.36q-.12 0-.12-.24l.24.24h-.12zm1.26.48v-.06l-.6-.36h-.18q0 .12.18.3l.6.12zm1.98 5.04q.12 0 .12.18h-.24v-.18h.12zm1.74 3.06q-.18 0-.18-.18h.42q0 .18-.24.18zM146.9 26.8q-.84-.84-.84-2.1 0-.54.06-.84l-.18-.6h.06v-.12q0-.36.27-.9t.57-.54q-.12-.18-.06-.24.3-.3.6-.63t.51-.48q.21-.15.57-.15t.54.06l.54-.24.78.12 1.02-.54v-.3l.12-.12h.96l.84-.6.36.06.96-.36.96.3.12-.06.3.06q.06-.12.24-.06t.24 0q.48.12.93.39.45.27.45.57l.18.54q-.12.18-.03.27.09.09.09.15l-.12.3q-.06.48.36 1.08.42.6.54.84l.36.42-.12.36.06.3q0 .48-.3.69-.3.21-1.08.57l-.12-.06-.24.36h-.3l-.66.36q-.12-.06-.54-.06-.54 0-1.17.12-.63.12-.81.3l-.12-.06q-.78.24-3.12 1.47t-2.82 1.65v-.06q-.6.24-1.02.78h-.12l.48-.54v-.3l.18-.06q.6-1.2 1.32-1.92l-.12-.06-.66.12-.24-.12-.3.12-.48-.24zm44.52 26.34l-.18.12.12.12-.54.36q0 .6-.48.99t-1.02.51q-.54.12-.66 0l-.54.12-.06-.12-.12.06h-.06l.06-.06-.84.6-.42-.06-.18.18h-.48l-.42.36-1.02-.24-.12.06-.78-.24-.36.24q-.42 0-1.02-.27-.6-.27-.96-.27l-.12-.18h-.42q-1.2 0-1.56-.3-.06.06-.21.06t-.21-.06l.06-.12-.3-.06q-.48.12-.84.12-.3 0-.78-.12-.12.06.12.12l-.36.06V55l-.36-.06V55l.18.06-.12.18h-.48l-.18-.3-.48.12q0-.06.03-.15t-.03-.09q-.06 0-.12-.03t-.06.03l.06.12V55q-.06 0-.12-.12t-.18-.06l-.3.36v-.24l-1.5.24-.36-.36-.06.12h.12v.3l-.78-.12v.18h-.24l.06-.18-2.22.72-.06-.12.06-.06q.6-.3.96-.24l1.02-.6v-.12l.48-.06.3.06.84-.24-.06-.24.3.06v.12q1.14-.24 1.56-.54v-.06l-.24.06-.54-.3-.06.06-.24-.06-.24.12-.06-.06-1.08.3q-.18-.06-.6-.06t-.6.06l.06.12q-.36 0-.75.12t-.39.42h-.12l-.3-.3h-.06v.12l-.24-.06q-.48.24-1.2.24l-.06.12-.3-.06q-.06.3-3.06 1.2-4.2 1.26-4.26 1.8-.12.06-.39.27-.27.21-.57.27l-1.02-.3-.24.24q-.78-.18-1.68-.54-.9-.36-1.38-.54l-.66-.48-.12-.48q.9-1.8 1.26-2.1l-.12-.12q0-.54.42-1.14h-.12v-.24l.42.06v-.06h.36l.18-.18-.3-.3.48.18q.12.12.24.03t.18-.27l-.12-.12.06-.36q-.06.06-.18-.06t-.06-.18l.3.24.24-.72.54-.3h.12l.06.42.36-.06q-.06-.06-.06-.27 0-.21.12-.21.36 0 .18.24.12.06.57.18.45.12.81 0l.3.06.18-.12 1.56.06.6-.24.3.12q.78-.12 1.71-.36.93-.24 1.41-.36v-.12q.18 0 .3.12 0-.84.72-.78l.48-.3q.06-.3.12-.93.06-.63.3-1.05v-.12l-.24-.18.3-.54-.12-.84q.24-.72.24-1.08-.12 0-.12-.18t.12-.18q0-.12.06-.78t0-.72l.12-.6-.06-.18.12-.78-.3-.18-.36-.06-.12-.18h-.18q-.18.18-.39.36-.21.18-.39.42-.6.24-.9.48l.12.12-1.74.6.06.24-.84.24-.18.18q-.84 0-1.56.18l-.24-.24-.42.18h-.06q-.66-.96-1.26-1.5l.12-.18q0-.66-.6-1.5l.24-.12-.54-.54q.06-.06.03-.18t-.09-.12l.18-.66v-.18l.78-.3.18-.72-.06-.24.48-.12.12.12.9-.18q.54-.66 1.2-.66.06-.42.57-.54.51-.12 1.11-.06l-.12.48h.24l.6-.48.36.06q-.06-.18.18-.42l-.12-.3.24-.18.9.3.42-.6q0-.3.27-.42t.51-.06l.42.06.48-.3.12-.24-.12-.6.12-.12-.3-.24.36-.36-.42-.24.24-1.14.12.06q.12-.48.12-1.44l.18-.36-.18-.18.18-.9-.12-.18.12-.42-.18-.24q.12-.48.12-.66 0-.3-.12-.78-.3-.3-.45-.75-.15-.45-.15-.51l.24-.18.36-1.14.12.06h.06l-.06-.24.24-.54v-.36l.18-.06.36-.72.48.24.72-.42.18.24 1.5-.72v.36l.42-.42q.18.06.3.03t.18-.03v.06l.12-.06h.24q.6.36.9 1.05.3.69.42.93l.36.18.18.24-.06.3.42.18v.06q0 .36.39.63t.57.39l-.06.18q.24.48.42.66l.18-.06q.48.96.48 1.38-.12.06.06.42l-.6.36-.06.6q-.36.54-1.2.84l-.06.42.24.12-.24.42v.54l.66.72.66-.06.3-.42.66.18.6-.24.3.06.18-.3.6.12.06-.42.66.18q.36-.12.81-.21.45-.09.75-.09.84 0 1.14.33.3.33.3.93v.78q0 .78.42 1.08l-.06.3q.3 1.14 1.32 2.52l.36.18v.24l-.72.72-.12.3.24.42-.36.42-.66-.3-.54.3-.06.12-.12-.12-.36.42-1.08-.06-.12.12.12.12-.96.24v.12l-.36-.06-.54.36-.36-.3h-.54l-.84.48-.36-.12-.48.36-.36-.18-.42.42-.84-.24-.3.3.18.42-.66.72.06.78-.12.3v.9l.06.06-.18.48.12.78-.06.12.06.42h-.12l.06.6-.36.42.12.24v.3q0 .6-.36.9l.6.66.12-.12.36.12q.3-.18.87-.33.57-.15.87-.21l.72.18.6-.84.24.18.9-.36.48.24q.66-.24.84-.72.18-.06.36.12l.36-.06.24.12h.3l-.12-.3q.6 0 1.32.36.06-.18.3.06l.54-.06q.3.18.78.3.48.12.78.18l.54-.18.18.54q.12-.3.3-.18l1.08.6.42.84v.12q0 .72 1.02 1.26.42.54.6 1.08l-.3.78.66.42-.06.6.36.48zm-15.9-32.52q.06.06.06.18h-.18v-.18h.12zM154.7 48.4q-.54 0-1.35-1.32t-1.23-2.4l-.36.3q.36.9.36 1.86l-.12.48q.18.36.18.54v.48l-.18.18.06.36v.24l-.24.36q.24.06.12.24t-.06.18q-.06.18-.06.54l.06.96q0 .42-.12.6l.12.36v.06l-.18.24q.24.12.21.33-.03.21-.27.09l.06 1.32-.12.12.42.96-.12.12.12.3-.18.42v.24l-.24.48.18.18-.24.24q.06.12.06.42t-.12.66l.12.3v.18l.12.36q-.18-.06-.18.12t.12.12v.3l-.3.42q-.42 0-.72.21t-.66.66q-.36.45-.6.57l-.36-.06-.12-.18-.72.06q-.36-.24-.66-.48-.3-.24-.54-.42l.06-.3q-.48-.48-.42-1.02l.12-.18-.42-.66.12-.36-.66-.9-.12-.72.24-.54q-.06-.06-.03-.18t.15-.12l-.12-.3.36-.72-.06-.12.72-2.7-.12-.48.36-.84-.06-.3q0-.06.09-.21t-.03-.21l.18-.6-.12-.42q.12 0 .06-.12t-.06-.18l.18-.54-.06-.36q.12-.12.12-.39t.12-.33l-.18-.6.18-.9-.12-.18-.6.18-.06.18-.18-.24-.18.36v.06h.12v.12l-1.8.48-.06-.06-.66.3-.24-.06q-.6.3-2.52.96-1.08.36-1.62.6v.3l-.48.3q-.06 0-.09-.03t-.03-.09q-1.68.66-3.06 1.86l-.12-.18.36-.6h-.12q1.86-1.5 3.72-3.36.24-.24 1.53-1.47t2.49-2.07l.06-.42q.18-.06.57-.48.39-.42.63-.66.78-1.02 1.08-1.02v-.3l-.12-.18.3-.54h.3q-.06.06 0 .15t.18.03l.3-.54q0-.06-.03-.18t.09-.18l.12-.48q.72-.72 1.62-1.26l-.06-.12.72-.72-.06-.24.72-.72.18-.72-.18-.06q-1.8 1.26-4.2 4.02l-1.2.42-.24.24-.54-.12-.18.06-1.44-.36-.24.06q-.36-.72-1.02-.72-.6-.6-.6-1.08-.54-.3-.84-.9-.3-.6-.24-1.14.06-.78 1.05-1.47t1.71-.63l.48-.18.12-.18.66.12.66-.18.42.12.84-.3.18-.24q1.44-.36 4.68-2.4l.72-1.14q.24-.06 1.11-.45.87-.39 1.41-.45l.36.06-.06-.12q.72 0 1.08-.3h.18l.9.36.66-.12.48.18.24-.12q.12.06.66.3t1.02.3l.06.12-.06.12 1.02 1.02.12.3h.36q.84.54 1.86 1.56-.06 0-.03.15t-.03.21l.12.42h-.06l.06.18q-.18.3-1.05.93-.87.63-1.17.87-.18.36-.66.63-.48.27-.54.33v.06l-.06-.06q-1.56 1.56-3.54 2.94l-.12.3-.48-.06-.6.48.3-.06h.24v.42l-.33.33q-.21.21-.33.69l-.9.48-.24-.18-.66.36v.3l-1.26 1.2-.3.12.18.36-.36.9.3.6.18-.06-.18-.36q.6-.36.78-1.02.42-.12.99-.36.57-.24.99-.36l.96.12.18-.12.78.24.84-.84h.42l.06.3-.54.78.84.48q.3.66.72.78.6.96 1.05 2.13.45 1.17.63 1.71l.36.36v.18q-.12.36-1.77.81-1.65.45-2.07.57-.84-.24-1.44-.72zm-1.32-8.94q-.12.06-.24.3.12-.06.24-.3zm-.48.9h-.06v-.24h.18l-.12.24zm-1.38 1.44v-.18h.06l.12.24-.18-.06zm-12.72 7.26v-.18h.18l-.12.18h-.06zm21.66 1.5l.12.12q-.24 0-.24-.12h.12zm58.92 12.66l-.48-.72v-.78q0-.24-.09-.36t-.27-.3l-.48-.48q0-.48-.12-.78-.12-.3-.3-.6.06-.06.06-.24t-.12-.3l-.3.06q-.12 0-.15-.09t.03-.09l-.36-.66.12-.12q-.54-.84-.72-1.44v-.3l-.3-.18.06-.12q-.18-.78-.48-.9l-.12-.36h-.42l-.06-.36.12-.42-.42-.84-.84-.72q0-.3-.54-.6t-.54-.66q-.12-.12-.42-.36t-.78-.72q-2.64-2.1-2.82-2.4l.3-.24h.6l.66.42.12-.18q.72.6 1.59 1.05.87.45 1.05.57 1.56.78 2.34 1.44l.18-.06.12.3h.12l.18-.3h.24l.18.42h.12q.24 0 .96.18l.18.24q.24 0 .24-.24v-.06l-.06-.12h.06q.6.6 1.38.6v-.12l-.54-.48.06-.96.84-1.32-.12-.48h.12l-.54-.48-.06-.36.24-.24-.48-.3q0-.54.24-.96l-.12-.48.3-.3-.54-.42 1.14-1.8q-.18-.3-.42-.57-.24-.27-.48-.57l-.12-.48q.12-.24.42-.54l.48-.48-.06-.12.18-.36-.9-1.08v-.24l.3-.3-.42-1.2.42-.48.24.06.18-.48-.54-.42-.12-.42.54-.78q.12-.12-.24-.18l.18-.18-.36-.42v-.12q0-.42.36-1.26-.3-.24-.3-.9l.06-.54h-.18l.18-.9-.42-.6.42-.9v-.06l-.3-.42-.18-.12.18-.48q0-.6-.18-1.2l.06-.54-.36-.36.24-.12-.36-.48-.12-.24-.3.06q-.3.06-.12-.24l.3-.9-.06-.24-.3.06-.06-.3.12-.18-.06-.66q.12.06.15-.03t-.09-.15l.18-.6h-.06l.42-.78-.06-.18q.96-1.38 1.56-1.8l-.12-.36.66.06.36-.36v.12l.36-.12.3-.3q.18.18.24.12.18-.18.54-.57.36-.39.78-.45.06-.12.27-.39.21-.27.45-.33.24-.06.6.06l.18-.18.18.42.36-.12.12.24.3-.06.54.48q.36.9 1.62 2.16 1.2 1.38 1.14 1.32l.06.36q-.18.36-.39 1.14-.21.78-.51 1.08l.06.54-.24.54.18.24v.18l-.24.3-.3.06.24.24v.06l-.24.18.48.66v.24l-.48.06v.66l-.24.24v.6l-.18.48.06.12q-.06.18-.06.48 0 .18.3.66l-.12.6.24.42-.42.54v.3l.18.24-.12.18.12.42h-.18v.48l-.3.12.18.36-.24.66.06.42-.12.36.3.12q-.24.54-.18.72l.18.3-.18.3.12.36-.12.3.18.66-.18.54v.06q0 .18.12.54l.18.54-.18.12.36.48v.18l-.3.36v.78l-.06.06v1.5l.36.24-.18.48.3.48-.24.36q.06.36.36 1.05.3.69.36 1.11l-.48.3h.3l-.18.18.3.6-.06.12q.12.18.33.39.21.21.39.45l-.06.24.54.9-.12.84.06.18.18-.12.24.18-.42 1.08q.12.06.09.18t-.15.18l.12.72-.18.18.36.12-.18.96.18.18v.12q0 .42-.18.72.18.12.09.33-.09.21.03.27l-.66.42q.12.06.03.21t-.09.21l.06.12q0 .48-.66 1.02v.42q-.78.78-.84 1.8-.6.54-1.05 1.2-.45.66-.57.9l-.18.12-.36-.12q-1.14 1.02-2.64 1.38l-.12-.06-.6.18-.12-.06-.12.06h-.72l-.36-.12-.18.36h-.24zm10.74-15.3q-.06.06-.09-.06t-.09-.12q-.06 0-.06.09t-.06.09l-.18-.18v-.18q.6 0 2.1-1.29t2.64-2.43q.42 0 1.14-1.26t.72-1.74l-.12-.72.36-.54q.12-1.2.12-1.86 0-.78-.48-1.98l.06-.3-.12-.36h.06l-.24-.36.06-.24-.6-.6q-.54 0-1.14-.39-.6-.39-.96-.51l-.06-.12q0-.96.54-1.92t1.14-1.74q.6-.78.78-1.08l.24.06q.48 0 .75-.51t.33-.63l.48-.12q.12.42.57.66.45.24 1.35.54 1.2.48 1.5.72l.18-.12q.9.42 1.68 1.32l.36-.12.12.36-.06.18.72.9.18-.06.36.66-.06.24.06-.06q.24.72.48.96l-.18.36v.24q.06.06.09.03t.09-.03q.06 0 .09.09t-.03.09l-.18-.06v.48h.12q0 .78.12 1.14l-.06.36q0 .36.09.69.09.33.09.69l-.12.18h-.24l-.24-.84.18-.12-.18-.3-.12.06q.06.24.09.63t-.21.39l.12.72q-.06.06 0 .12t0 .12l-.06.18q-.3 0-.42-.06l.06-.3-.12-.24-.12.54.12.6-.12.06-.12-.42h-.06l-.3.6.06.12q-.12.48-.9 1.26v.12l-.24-.24q-.18.42-.45.72t-.69.48l-.84.9q-.06.42-4.74 3l-.12-.06q-1.08.72-1.8.84l-.12.12-.18-.06-.42.42h-.18l-.9.42v-.06q-.24.18-.81.39-.57.21-.81.45zm-12.06-12.66q.06-.18.24-.24h.06v.12l-.12.12h-.18zm-11.76 12.6q-.84-.66-.84-1.62-.3-.42-.66-.75-.36-.33-.84-.51l-.72.12-.36-.78q.12-.06.15-.18t-.03-.18q0-.48.69-1.56t2.07-2.94l.96-1.38 1.02-.72.06-.42-.06-.18q.18-.12.48-.72t.48-.78h.18q.18.6.54 1.23l.6 1.05q-.06.24-.39.84t-.15.42q.06-.06.12.12h.36l.72-.42.12.18q.78-.96 2.22-1.86.66 0 1.26-1.08v.12l-.18.36h.3l-.12.12-.12-.03q-.12-.03-.12.21l.24.3.24-.24q-.06-.06-.09-.06h-.03q.36-.36.84-.63t.66-.33h.06l-.84.6v.12l.36-.06-.3.3H215l.06-.24-.18.06.06.12-.24.48h.06l-.06.36.06-.12.12.12q.96-.72 3-1.92h.12q-.18.3-2.1 2.01-1.92 1.71-2.88 2.43 0 .36-.48.75t-.54.69q-.78.66-.78 1.2l-.24.3.12.66-.6.9q0 .3-.18.48t-.42.18q0 .42-.18.57-.18.15-.66.15-.48.48-.48.9v.42l-.12-.06q-.3 0-.63.15t-.33.45l-.48.18v-.12l-.72.24zm8.64-12l.12-.24h.12l-.12.24h-.12zm27.36 4.44l.48-.9-.06-.18h-.12l-.3.9v.18zm61.92 1.56l.12.36-.12.54q.12.24.03.33l-.09.09.06.24q-.54.78-1.68 1.98-.36.18-1.02 1.11-.66.93-1.02 1.29-.3.18-.54.42-.24.24-.42.54.24-.06.27.03.03.09-.21.15l-.3-.18-.48.66-.03-.09q-.03-.09-.09-.03v.54l-.36.3v.12q.6.84.72 1.2 0 .24-.03.75t-.15.81q.54.96.48 1.5l-.06.6-.78-.06-.54.66-.6-.06q-.3.72-1.02.72-1.14.84-1.74.78l-.96-.42-.12.06q-.36 0-1.5-.42l-.96.24v-.06q-.96 0-1.32.24-.3-.06-.84-.06l-1.62.06-.78.72-.24-.06-.3.18-.12-.12q-.78.72-2.19 1.35-1.41.63-1.83.81l-.3.54-.18-.18q-.48.48-.96.72l-.9.18h-.06q-.66-.9-1.26-1.2-.18-.36-.96-.6l-.36-.72.06-.12q-.42-1.14-.42-2.04 0-.24.06-.3l-.18-.36.06-.36-.18-1.02.06-.24-.18-.42.3-.12-.48-.3.42-.72-.42-.78.3-.72v-.42l-.24-.12-.12-.96h.06l-.54-.48v-.36q-.36.12-.87.48t-.63.66l-.6.48q-1.2.3-1.56.3l-.9.48v-.36h-.12q-.36.3-1.14.84-.78.54-1.26 1.02.06.06.06.18t-.06.18l-.48-.06q-.6.48-.96.6-.12.3-.87.6t-.87.54l-1.56.42-.06.12h-.42q-.12-.3-.18-.24l-.24.18-.18-.06V55l-.54.12h.24q.06.06 0 .12t0 .12l-.6.3-.12.12q-.18-.06-.42-.06t-.42.12q-.18.12-.36.12v.06l.36.06-.72.24-.3.3-.18-.06-.12.06-.3-.24.06-.18h.36v.12q.12.06.24 0t.18-.18h-.6q.66-.66 1.86-1.62 1.32-.06 3.39-2.4 2.07-2.34 5.55-6.9 3.36-4.38 4.26-5.16l-.18-.06q.12-.12.69-.72t.57-1.14l.18-.12q0-.3.24-.57.24-.27.54-.51 0-.24.72-1.44t.96-1.56l.78-1.32-.06-.18.54-.9v-.24h-.18l-1.44.84-.18-.12q-.66.48-1.56.9-1.68.78-2.4 1.68l-.24.66-.54.12q-.12-.06-.36-.06l-.12.06-.54-.06-.12.06q-.84-.54-1.74-.78l-.96-.9q-.18-.78-.48-1.2l.06-.12-.06-.48q.06-.06.03-.24t.09-.24q-.06-.24-.15-.66-.09-.42-.15-.84 0-.96.42-1.32.42-.36 1.38-.66 1.14-.36 1.56-.78.24.06.69.21.45.15.81.15l.78-.36.12-.24q.66.12 4.86-1.44l1.2-.42.36-.42.48.12.9-.54.42.12q.66-.84 1.86-1.02.06 0 .42.12t.54.06q.72-.36 1.44-.36l2.94-1.08q.3-.48.75-.69.45-.21 1.2-.39.75-.18 1.05-.3l.3.06.54-.06q.18.18.3.12l.3-.18.42.06q.48-.24 1.26-.24.66 0 .84-.06l.54.18.12-.12q1.26 0 2.07.21.81.21 1.53.93l-.06.36.06.48h-.06q0 .48.6 1.08.72.6.72 1.26 0 .36-.09.69-.09.33-.15.57l.24.48v.12l.3.72q-.6.54-2.28 1.44v-.12l-.42.24-.9-.06-.84.6q-.24-.06-.84-.06h-.66q-1.08 0-1.32-.24l-.6.12v-.12l-.84.12-.06-.18q0-.06.06-.15t.06-.15q-.42.12-1.38.12v.18h-.42l-.18.18v.42q-.18.24-.75.9-.57.66-1.23.96l-.24.36q-.54 0-1.44 1.11-.9 1.11-2.34 3.09-.24.36-1.23 1.65t-1.53 1.77q-.12.9-.54 1.02-.42.42-.54.66l.06.12-.48.36h-.06q0 .24.12.12l-.06.36.66-.42q.54-.06 1.2-.6 1.26 0 1.86-.06l.18.06.3-.06v.06l.24-.18.3.12.6-.06.6-.3v.06q.66-.18 1.95-.99t1.83-1.35l-.12-.3q.36-1.02 1.08-1.02.36-.24.9-.9l1.26-.48.84.24.9-.3.9.12 1.14-.24 1.8.6q.6.9.72 1.14.78.3 1.32 1.38l1.2.66h.48l.78.66-.06.36.6 1.02-.6.48zm-2.52-13.5l.36-.48h.24l-.42.48h-.18zm-8.88 14.7l.48-.72-.54-.18v-.12h-.12q-1.62 1.14-4.62 2.76-.12.12-1.11.51-.99.39-1.23.39h-.54q-.24-.12-.78-.48t-1.05-.54q-.51-.18-.99-.18t-.78.42q-.3.42-.51.9-.21.48-.27.66v.18l-.36.72.24.12.12.72q-.36.12-.3.18l.54 1.14-.06.12.24.66-.12.24.12.12-.24.24.06.24-.18.3.24.36H281l.18.36v.66l.54-.24q.84 0 .9.06l.42-.06.12.24.96-.66.24.12h.3q.24-.66 1.32-.66l.12-.18h.24v.06l.66-.78q.48 0 1.08-.6.6-.6.9-.78l-.06-.18q.18-.18.45-.54.27-.36.39-.42l1.02-.84-.06-.36.6-1.14q.42-.24.93-1.26t.57-1.56zm-11.88-.42v.12l.12.06.3-.54h-.06l-.36.36zm-1.38 3.78q.24-.66.63-1.47.39-.81.57-1.29h.06l.12-.6h-.12q-.18.42-.84 1.02-.66.6-.84.9v.06h.18l-.09.06q-.09.06-.03.12l.18.48-.06.18.24.54zm19.74 4.32l.06-.3h.18l-.06.3h-.18zm-36.9 4.56q0-.18.18-.18l.12.12-.12.06h-.18zm-1.68.78v-.24l.3.06-.3.18zm-2.58.84q.06-.24.6-.24h.06v.18l-.48.3-.18-.24zm-.36.6l.18-.3.18.24-.36.06zm68.34-33.24q-.3-.12-.45-.45-.15-.33-.27-.99-.12-.66-.3-.84l.12-.24-.12-.78.3-.12-.06-.12.48-.48-.06-.18.3-.36v-.3h.48q1.14-1.44 3.18-3.72.06.06.12-.06t0-.12l.3-.42-.06-.12.42-.84v-.66l.48-.66q.66-.48 1.56-.6l.24-.24q.72.12 1.02.12l1.08-.06q.9 0 .84.66l.72.54.42.78q-.12.6-.66 1.56.06 0 .06.12t-.09.27q-.09.15-.15.15l-.06-.06-.3.42-.06-.06v.24l1.62-.96q.18-.06.57-.18.39-.12.81-.18l-.06.06.42-.12.3.12.24-.12q.18.06 1.05.3.87.24.87.54.36.3.84.75t.42.81l.24.66h.06l.96-.42q.12-.48.51-.87t.81-.51q.54-.36 1.29-1.35.75-.99.75-1.53l-.42-.54v-.54l.48-.6q.06-.96 1.38-1.74.06 0 .63.15.57.15.87.45l.42-.12.36.12.12-.06q1.44.72 2.1 1.2l-.06.18q.18.9.18 1.08v.6l-.3.78.12.24-.18.18-.18-.12q-.12.24-.78.78v.18l.42.06q.06.06-.06.18l-.12.12q.36 0 .9-.18t.9-.24l.36-.24.12.12q.72-.72 1.62-.9l-.06-.3.24.12.84-.18v.06l.24-.24q.18.06.6.06l1.26-.06.42.48.12.06.06-.06.84.3-.06.3q.3.24.66.9.36.66.48.9l-.12.96v.12l-.12.66.06.18-.3.66q-.72.78-1.38.96-1.14 0-1.68.06v-.12l-.36.12-.48-.12-.3.42q-.18-.06-.48-.15t-.3.03l-1.02-.24-.6.12v-.18l-.48.24q-.18-.18-.54-.06 0 .18.18.18l.42-.06.3.06-.84.18v-.06l-.48.3-.3-.06q-.06.36-.27.21-.21-.15-.27-.15l-.6.18v.12l-.18-.12.12-.06-.06-.3q-.72.3-1.2.72l-.48-.3v.42q.12.06.21 0t.09 0q-.36.36-1.32.84l-.06.24-.24-.12.24-.24q-.06-.06-.06-.15t.06-.09l.12.06.36-.36-.72.42q-.24 0-.57.54-.33.54-.51.72-.18.06-.66.06-.42 0-1.14-.36t-.96-.36l-.54.06q-.36-.36-1.08-.84l.06-.24q-.54-.42-.9-1.08l.06-.54-.12-.6-.78.72q-.66.18-2.58.6-1.44.24-2.16.42v.06h-.18q-.54 0-1.26.24l-.24-.06-.72.42q-.06.12.12.21t.24-.09l.66.18.48-.18h.18l.6.42q1.02-.42 1.8-.96l.18.06.54-.48h.12q-.84 1.02-.9 2.22.18.24.18.54l-.06.48.48.54q0 .18-.06.18 0 .48.48 1.32-.06.06-.06.18t.06.12l-.42.6h-.48l.12.12q-.06.3-.36.45-.3.15-.6.15l-1.2.72-.12-.06-.18.06-1.32-.66q-.3-.9-.78-1.38l.18-.06-.12-.36-.18.06q0-.54-.78-.9l-.18.06-.54-.42h-.3q-.42-.36-.54-.9l.24-.18q.06-.06-.24-.18h-.18q-.36.24-1.08 1.2l-.78.06q-1.14-.12-1.5-.78l-.12-.18-.84.18q-.24-.24-.6-.33-.36-.09-.48-.15zm26.52-8.7q.06-.18.3-.42h.12q-.12.12-.24.42h-.18zm-.42.54h-.24l.06.18.18-.18zm-.48.18l-.06.12h.3v-.06l-.24-.06zm3.6 4.74v.18l-.72-.24h.36l.36.06zm-4.08 1.02l-.48-.06.42-.3.12.36h-.06zm11.94 35.1l.3.12q-.06.3-.72 1.26l.06.3-.42.18.18 1.08-.36.18h-.42l.18.36-.6.9v.36l-.36.12h-.06l.06.6.18-.06-.48 1.14-.48.48-.18-.12q.12.12.3.33.18.21.24.39l-.96.48.12.36q-.42.42-1.26 1.02l.18.18-.84.9-.18-.06q-.18.06-.66.42-.48.36-.78.36l-.18-.06q-.48.06-1.05.36-.57.3-.99.66l-1.2-.3q-.12.24-.3.12l-.24-.66-.12-.06.06-.12q-.18-1.02-1.29-1.74t-3.21-1.68q-2.16-.9-2.88-1.5l.42-.06.36.3.12-.12.48.3h.12q-1.02-.6-1.2-.66-.06.06-.15.03t-.09-.09h.24l.12-.12v-.06l-.06-.12h.06q1.8.78 3.6 1.32 0-.48-1.38-1.11-1.38-.63-2.88-1.14-1.5-.51-1.98-.63l-.48.06-.12-.3v-.12h.12l.78.42.06-.12.36.06v-.06l-.36-.3-.18.18-.12-.48-.36.06-1.08-.3q-.06-.18.15-.15t.27.03v-.12q.42.24 1.32.36v.12l.24-.06.96.18v-.06l-.18-.42-.12-.06v.12h-.3l.06-.24h.06q-.24-.12-.72-.48 2.88 1.2 4.44 1.5l.12-.18 1.08-.12v.12l.09-.03q.09-.03.21.03.9-.12 1.56-.27.66-.15 1.14-.27.06-.12-.12-.42l.24-.18.12.06q.12 0 .36.03t.24-.21l.06-.24-.24-.36q.24-.12.39-.48.15-.36.33-.54.06-.06-.03-.15t-.15-.09q.54-.78.66-1.14h.24q0-.06-.06-.15t-.06-.15v-.3h.12l.06-.72.54-.24v-.36h-.12v-.3l-.12-.3.12-.3.06-.42.24-.48-.06-.12v-.42q0-.24-.18-.3l.06-.42.12-.12-.6-1.92-.18-.06q0-.06.15-.21t-.03-.21l.24-.3-.18-.18.48-.36h.12l-.18-.42v-.3l-.06-.12v-.48l-.3-.48.24-.42-.36-.42.12-.24-.12-.66h.06l-.06-.36.06-.12q.12-.24.12-.42 0-.36-.3-.96.24 0 0-.3l.18-.06-.12-.36.12-.3q-.18-.42-.21-1.17t-.15-1.05l.06-.12-.18-.66.18-.72q-.06-.12-.09-.33-.03-.21.03-.33l-.24-.42q-.06-.06.18-.3v-.48l-.18-.24v-.12l.12-.24-.12-.42.12-.18-.6-.42q0-.54-.51-1.02t-.99-.81q-.48-.33-.6-.39-1.56 1.26-2.79 2.16-1.23.9-1.89.9-.6 0-1.02-.18l-.12.06-.54-.06h-.12l-2.22-.54-.06-.06q-.48.06-1.2 0t-1.2-.06l-.66-.54.36-.6-.12-.18.3-.42q0-.06-.09-.09t-.03-.15q.54-.3 1.62-.54.18-.3.54-.51.36-.21.72-.21v.06l.72-.6q1.26.18 3.21-.75 1.95-.93 3.15-1.89v-.12l1.74-.42q.48.06 1.17.27.69.21 1.17.21v-.06q0-.3-.39-.45-.39-.15-.75-.15l-.66-.42-.12.06-.3-.24h-.06v.12l-.24-.12-.24.18-.48-.12.18.24v.12l-.9-.3v-.06h-.12q-.18 0-.33.03-.15.03-.21.09l-.66-.06-.12.12.06.24-.3-.18q-.06-.06-.12.12l-.6-.06v-.12l-.18.18-1.08-.06v-.06l.78-.3v-.18h.3q.6-.66 1.68-.9.18-.42.72-.63.54-.21.6-.57l.12-.06v-.12l-.66-.3h-.06v-.18l.3-.24v-.06l-.48-.18q-.06-.06.06-.18t.18-.12l.3.06.3-.12-.36-.42q0-.06.54.12t.6.06l-.24-.3v-.06l.54.06.96-.48q0 .06.12.12t.18 0l.54.12.72-.18.24.06h.18q.42 0 1.26.66l.18-.12.72.36q.18.24.39.66.21.42.45.72l-.06.06q.12.42.36.87t.3.63q-.36.6-.48 1.5-.3.42-.66.75-.36.33-.84.57l-.78-.12q.42.54 1.02.72l.66-.06.66.6h.3v-.06l-.78-1.08.48-.06v.18q.3.3 1.17 1.08.87.78 1.89 1.32l.24.42.24-.18q.36.06.72.87t.66.81l-.12.54q0 .24.24.45.24.21.3.45l-.12.36.12.18-.06.9.06.24-.42.18.06.48h-.06q0 .06.03.24t-.09.24l.24.18q-.66.6-.78 1.44l.18.36q-.48.48-.48.6l.18.12-.06.18q-.06 0-.24-.03t-.12.27q.12.6.12 1.2 0 .72-.24 1.14l.18.18-.24.72.18.24-.12.18.18.66-.06.36q.24.72.24 1.02v.12l-.3.6.36.12q-.24.66-.18 1.02h.3l-.24.3v.3q.06.06.09-.03t.09-.15l.3-.12-.06.42q.06-.12.24 0t.06.18h-.3l-.06-.12-.24.72.36.54-.06.18v.06h.24v-.3l-.3-.48-.18-.06.24-.12-.06-.24h.3q.06 0 .06.09t-.06.09l.06.48-.12.12.42.12v.48h-.84q-.06.06.24.18l-.12.36.54 1.08q.06.06-.06.15t-.18.09l.36.06-.24.42.36.24-.12.3h.18l-.06.54.48.48h-.18l.36.36-.36.24q.54 0 .69.12.15.12.21.48t.24.6l-.3.66zm-31.32-33.12v.12l.96-.54.48-.54-.12.06h-.06l-.18-.06q-.18.12-.51.48t-.57.48zm17.82.06v-.12h-.12l-.12.06h-.06v.06h.3zm0 3.06h.3l-.12-.12-.18.12zm-13.32 6.36q-.12.12-.45.63t-.81.63l-1.2-.36-.18.06-.3-.15q-.18-.09-.3-.09-.84 0-2.01.6t-1.53.78q-.48.6-1.32 1.2h-.18q.06-.48 1.92-2.46 1.08-1.14.72-.96l-.12.06v-.18l.48-.36-1.14-1.38-.12-.54.3-.24q.06-.72.27-.96.21-.24.81-.42.66-.12 1.2-.48l.36.06q.72-.24 1.2-.18l.12-.06q.78 0 1.44 1.14.66.54.66 1.02l.48.6-.06.3.24.54-.54.78.06.42zm25.02-1.08l.12-.18.12.12-.18.18-.06-.12zm.6.06v.18l-.42.06.24-.24h.18zm-21.06 21.9l-.42.42h-.18l-.18-.36h-.3l-.36.36-.42-.06q-.72 0-1.56.36l-.3.3q-.96-.3-1.56-1.08l-.12.06-.36-.48-.48.06q-.06-.06 0-.12t.12-.06h-.3l-.24-.3.06-.24-.18-.3.18-.36-.12-.42.12-.06q-.12-.12-.12-.42 0-.18.09-.51t.15-.45q-.06-.12-.06-.36 0-.42.06-.6l-.06-.12.48-.78q-.06-.06-.03-.3t.03-.3l.12-.12-.12-.42.06-.24-.06-.36h.18q-.24-.36 0-.36l.06-.9.42-.48-.18-.48.24-.36-.18-.9.12-.42-.18-1.02-.48-.72.48-.36.42.06q.6.3.6 1.02l.54.6.12.42q.3 0 .45-1.14.15-1.14.15-1.86 0-.18-.12-.54l.6-.72q.84-.3 2.04-.42 1.62-.3 2.04-.42.3-.36.96-.48.48-.54.75-.78t.81-.3q.24-.18.66-.18h1.08v-.36l.36-.18.24.06q.36 0 .66-.3.3-.3.42-.36l.84-.06h.12q.54 0 .99.24.45.24.45.66l-.12.06.12.48-.06.06.3.84q.3.06.72.6t.6.72l.06.36-.3.42-.06.06.72.84-.06.24.06.36q-.12 0-.06.09t.06.15l-.06.06v.06q.06 0 .24-.06t.18.06l-.72.78.06.18-.6.54.06.12-.36.66h.12v.3l-.18.18.18.42-.54.78.12.36-.42.3v.18l-.12.3.18.42v.36h-.18l.48.96-.3.72.3.54v.93q0 .81.36 1.53l-.3.3.3.6-.18.36.18.12.24.78h-.12l.12.12q-.06.06-.45.36t-.39.72l-.48.54.06.42h-.36l-1.68.96-.78.06-.12-.12-.42.3q-.66 0-.9-.42-.6-.06-.84-.21t-.48-.51q-.24-.36-.42-.6l-.42-.18q-.06-.18.12-.36l-.42-.6-.9-.48-.42.24h-.06q-.06 0-.21-.15t-.27-.09l-.42.24q-.3 0-.36-.06zm21.24-16.86l-.06-.24.36-.18.18.18-.54.36.06-.12zm-29.88 8.34q-.24.12-.24.36h.24l-.24.66q.06-.06.15 0t.03.12l-.24.24q.12.12 0 .24l.18.42-.3.24.12.6-.06.18.54.42-.84.36.3.42-.12.36-.3.36.06.24q0 .06-.06.18t.06.18q-.42.54-.54 1.62-.12.9-.36 1.32.06.06.03.21t-.03.27l.06.12-.12.66.06.24q-.42.48-.42 1.56l.12.24-.18.42.18.6-.24.12.18.36v.06l-.3.66.12.3q-.06.12-.03.24t.09.18l-.3.42.12.12-.24.54.06.12-.54.72-.72-.36h-.06l-1.56-1.26q-.36-.12-.96-.21t-.96-.15l-.9-.84.06-.84.48-.78-.06-.12.03-.12q.03-.12-.03-.18l.48-.9-.06-.12.06-.36q.24-.36.24-1.26l-.06-.24.3-.3-.06-.54-.18-.18.36-.54-.06-.12q0-.06.03-.15t-.03-.15l.6-.84v-.6l.24-.12q0-.06-.09-.15t-.03-.21l.6-.48-.18-.66q.12-.78.3-1.14l-.06-.06.18-.3-.18-.78.54-1.08-.42-.42.12-.06q0-.06-.09-.15t-.03-.27l.42-.12q0-.12-.15-.45t-.09-.45l.36-.6h-.12l.06-.54q0-.48-.36-.84l.12-.3-.18-.3.42-.72q0-.36.3-.57.3-.21.72-.15l.66.06.18-.06q.72.72 1.26 1.92t.6 2.16l.18.18-.06.12.18.6q.06.06.12 0t.06-.12l-.06-.24q.18-.3.48-.72t.42-.72l.12.12q-.06.24-.27.87-.21.63-.21 1.23zm6.24-4.5l-.12.48q.06.18.18 1.08.12.9.3 1.44.18.54.48.54l1.08-.6q.72-.54 1.35-.81.63-.27 1.29-.27.06 0 .18.12l.36-.36.54-.24.36.12.78-.3v-.48q.12 0 .15-.12t-.03-.18l.24-.36-.06-.18q-.6.24-.96.54-.6.3-1.92.78l-.12-.06q-.24.06-.69.06-.45 0-.75.06v-.06l-.12.06-1.2-.24-1.32-1.02zm1.44 9.24q.3-.48.87-.9.57-.42 1.11-.78 1.2-.78 1.74-1.38v-.3l-.54-.18-2.76.96q-.06.54-1.62.54l-.54.78.24.42q.06.06-.24.36v.42h-.12v.24l.72.48 1.14-.66zm4.56-1.2v-.12l-.54-.24h-.06l-1.08.42.24.36.6-.3.66.06.18-.18zm-2.7.9v-.06h-.18l-.06.18h.06l.18-.12zm20.34.78l-.18.18-.36-.18.36-.18h.06l.12.18zm0 .66l-.24.12-.24-.24v-.06l.42.06.06.12zm.12.42v.36l-.36-.12.18-.24h.18zm-20.64 6.54l.18.12v.12q-.18 0-.18-.24zm.72.66v.12l-.6-.24.3-.06.3.18zm-1.62.36l-.12.06h-.12v-.18l.12-.06.12.18zm.84 1.02q0-.12.18-.12h.12l-.12.18q-.84 0-1.2-.06v-.24h.12l.9.24zm1.62.3h.24l-.24-.12v.12zm.54.24l.3.06-.18-.18-.12.12zm17.76.72l.06-.3h.24q-.12.06-.24.3h-.06zm-17.58.6v-.12h.3l-.06.12h-.24zm.36.06l.18-.12.06.18-.18.06-.06-.12zm4.56 1.02q.06.12.3.24-.06-.12-.3-.24zm.6.54v-.06h-.24v.06l.18.06.06-.06z"/></svg>