<svg viewBox="0 0 445 80" xmlns="http://www.w3.org/2000/svg"><path d="M23.43 21.57h10.31q1.47-.06 1.47-1.11 0-.94-1.47-1.12h-9.26q1-2.28 1.12-2.52l.53-1.23.46-1.17q.12-.35.12-.82 0-.58-.26-.91-.27-.32-.68-.32-.88 0-1.64 1.47l-.23.64-.35.82q-1.94 4.51-3.64 7.85-1.7 3.34-4.33 7.44-.24.53-.24.88 0 .47.3.76.29.3.7.3.59 0 1-.53 3.63-5.1 6.09-10.43zm45.23 33.75q.06 4.63-.7 6.8-.82 2.22-3.05 2.28h-5.15q-1.88-.06-1.99-2.22V44.66h3.98q2.93-.41 3.4-3.28V28.72q-.47-2.99-3.4-3.4H57.3q3.69-5.62 5.86-9.61.35-.7.35-1.23 0-.47-.24-.76-.23-.29-.64-.29-.82 0-1.47.99-2.46 4.51-6.56 10.9H41.95q-2.99.41-3.29 3.4v12.66q.3 2.87 3.29 3.28h3.28v5.5q-.12 5.28-3.2 8.88-3.07 3.6-8.52 5.25-.65.23-.97.61-.32.38-.32.79 0 1 1.35 1 .47 0 .64-.06 13.01-4.16 13.24-16.93v-5.04h8.09v17.11q-.24 4.92 5.04 4.98h3.98q3.69-.06 5.1-2.14 1.41-2.08 1.41-7.12 0-1.99-.18-2.76-.18-.76-1.05-.76-1.06 0-1.18 1.35zM47.69 21.57q-3.58-4.92-6.33-7.38-.41-.41-1.11-.41-.47 0-.79.29-.33.29-.33.76 0 .41.35.88l3.23 3.87q.93 1.29 2.99 3.75.7.76 1.34.76 1 0 1-1.23 0-.59-.35-1.29zm-6.8 18.87v-10.9q.18-1.76 1.99-1.99h17.93q1.7.29 1.88 1.99v10.9q-.18 1.81-1.88 1.99H42.88q-1.81-.18-1.99-1.99zM26.83 61.77q-.06.05-.29.05-.47 0-.53-.76V42.55h8.08q1.59-.12 1.59-1.17 0-1-1.59-1.18h-8.08v-8.79h6.91q1.47-.05 1.47-1.17 0-.99-1.47-1.17H21.09q-1.59.18-1.59 1.17 0 1.06 1.59 1.17h2.57v8.79h-5.74q-1.58.18-1.58 1.18 0 1.05 1.58 1.17h5.74v19.33q0 1.41.53 2.26.53.85 1.47.85.82 0 1.87-.7 2.58-1.82 6.92-7.09.52-.71.52-1.41 0-.47-.26-.76-.26-.3-.62-.3-.58 0-1.17.59-1.93 2.29-3.87 4.45-1.11 1.29-2.22 2zm98.08-41.49q2.05.18 2.05 2.64t-1.93 6.5q-.23.53-.23 1.17 0 .53.23.82.24.3.59.3.82 0 1.52-1.23 2.11-4.75 2.11-7.8 0-4.51-4.1-4.74h-20.51l-2.46-4.57q-.82-1.23-1.64-1.23-.41 0-.65.29-.23.29-.23.82 0 .41.29 1.29l1.88 3.4H81.44q-3.11.47-3.52 3.4v7.03q.12 1.58 1.12 1.58.93 0 1.11-1.58v-6.21q.29-1.64 1.99-1.88h42.77zm-7.85 9.49q.24.06.24.36 0 .35-.24.58-6.85 3.75-17.58 8.09-1.4.88-1.4 1.75 0 .77.82 1.41 2.99 2.52 5.51 5.16H77.57q-1.52.17-1.52 1.17 0 1.05 1.52 1.17h28.36q1.93 3.93 1.93 7.5 0 3.4-1.93 5.36-1.93 1.97-5.86 2.2-7.09-.18-12.77-1.76-.18-.06-.65-.06-.7 0-1.14.3-.44.29-.44.76 0 1.05 1.41 1.46 2.46.71 6.12 1.09 3.66.38 7.47.44 5.04-.36 7.59-2.96 2.55-2.61 2.55-6.89 0-3.86-1.82-7.44h20.16q1.58-.12 1.58-1.17 0-1-1.58-1.17h-21.33q-1.58-2.29-4.92-5.51-.53-.35-.53-.7 0-.41.76-.82 7.85-2.99 17.7-8.68 1.34-.99 1.34-2.05 0-.76-.76-1.32-.76-.55-1.99-.61H85.77q-1.58.18-1.58 1.17 0 1.06 1.58 1.17h31.29zm25.55-12.42h40.9q1.64-.06 1.64-1.11 0-.94-1.64-1.11h-40.9q-1.52.17-1.52 1.11 0 .99 1.52 1.11zm.94 44.42q-1.7-.18-1.7-1.06 0-.53.41-.94 11.25-14.23 18.4-24.84h27.65q1.47-.06 1.47-1.23 0-1.06-1.47-1.23h-50.74q-1.52.17-1.52 1.23 0 1.11 1.52 1.23h20.27q-3.34 4.86-8.58 11.86-5.24 7.01-9.93 12.87-1 1.17-1 2.28 0 .94.85 1.55.85.62 2.26.68 18.57-.35 41.95-2.64 1.23 1.88 2.81 4.86.82 1.24 1.59 1.24.41 0 .64-.33.23-.32.23-.85 0-.52-.35-1.34-6.74-12.6-13.59-23.38-.76-1.06-1.58-1.06-.82 0-.82 1.06 0 .88.52 1.75l1.23 2.11 8.38 13.83q-17.11 1.88-38.9 2.35zm101.36-41.49q2.05.18 2.05 2.64t-1.93 6.5q-.23.53-.23 1.17 0 .53.23.82.24.3.59.3.82 0 1.52-1.23 2.11-4.75 2.11-7.8 0-4.51-4.1-4.74h-20.51l-2.46-4.57q-.82-1.23-1.64-1.23-.41 0-.65.29-.23.29-.23.82 0 .41.29 1.29l1.88 3.4h-20.39q-3.11.47-3.52 3.4v7.03q.12 1.58 1.12 1.58.93 0 1.11-1.58v-6.21q.29-1.64 1.99-1.88h42.77zm-7.85 9.49q.24.06.24.36 0 .35-.24.58-6.85 3.75-17.58 8.09-1.4.88-1.4 1.75 0 .77.82 1.41 2.99 2.52 5.51 5.16h-26.84q-1.52.17-1.52 1.17 0 1.05 1.52 1.17h28.36q1.93 3.93 1.93 7.5 0 3.4-1.93 5.36-1.93 1.97-5.86 2.2-7.09-.18-12.77-1.76-.18-.06-.65-.06-.7 0-1.14.3-.44.29-.44.76 0 1.05 1.41 1.46 2.46.71 6.12 1.09 3.66.38 7.47.44 5.04-.36 7.59-2.96 2.55-2.61 2.55-6.89 0-3.86-1.82-7.44h20.16q1.58-.12 1.58-1.17 0-1-1.58-1.17h-21.33q-1.58-2.29-4.92-5.51-.53-.35-.53-.7 0-.41.76-.82 7.85-2.99 17.7-8.68 1.34-.99 1.34-2.05 0-.76-.76-1.32-.76-.55-1.99-.61h-33.05q-1.58.18-1.58 1.17 0 1.06 1.58 1.17h31.29zm49.46-12.3l-1.88-4.1q-.7-1.12-1.46-1.12-.41 0-.68.33-.26.32-.26.9 0 .41.29 1.29l1.29 2.7H263.9q-2.93.47-3.4 3.4V41.2q0 6.74-1.08 11.6-1.09 4.86-3.96 9.96-.53 1.06-.53 1.76 0 .47.21.76.2.29.56.29.7 0 1.4-.93 3.17-5.22 4.4-10.7 1.23-5.48 1.23-12.56V21.69q.29-1.53 1.99-1.88h41.48q1.59-.11 1.59-1.17 0-1-1.59-1.17h-19.68zm-.12 37.97h-21.45q-1.52.17-1.52 1.23 0 1.11 1.52 1.23h21.45v8.38q.12 1.4 1.17 1.4 1 0 1.17-1.4V57.9h19.57q1.58-.12 1.58-1.23 0-1.06-1.58-1.23h-19.57v-8.56h15.59q1.58-.11 1.58-1.23 0-1.05-1.58-1.23h-15.59V36.1q-.17-1.58-1.17-1.58-1.05 0-1.17 1.58v8.32h-12.89q-.88-.17-.88-.64 0-.3.17-.53l7.74-12.42h25.43q1.58-.12 1.58-1.17 0-1-1.58-1.18h-24.14l2.93-4.68q.35-.71.35-1.17 0-.88-.82-.88t-1.76 1.11l-3.4 5.62H267.3q-1.59.18-1.59 1.18 0 1.05 1.59 1.17h10.43l-8.32 13.12q-.3.71-.3 1.35 0 1.29 1.7 1.58h15.59v8.56zm48.63-7.62q1.52-.53 1.52-1.35 0-.41-.43-.67-.44-.26-1.21-.26-.64 0-.82.05-6.73 2-10.89 3.17l-.3.06q-.41 0-.41-.47 0-.35.35-1.12 9.5-15 13.36-22.5.24-.41.24-.93 0-.47-.27-.76-.26-.3-.67-.3-.76 0-1.52.94-1.94 3.81-4.34 7.73l-8.67.47q-.94-.06-.94-.64 0-.35.35-.88 5.57-8.03 9.5-15 .41-.76.41-1.35 0-.47-.24-.76-.23-.29-.64-.29-.77 0-1.64 1.11-5.16 8.5-10.32 16.41-.47 1.23-.47 1.75 0 1.65 2.35 2l8.9-.47q-4.62 7.97-9.84 15.47-.53.7-.53 1.46 0 .59.44 1 .44.41 1.15.41.41 0 .93-.18l13.19-3.69 1.46-.41zm4.34 13.48q.29 3.63 3.63 3.92h22.03q3.63-.35 3.87-3.69V19.58q-.29-3.34-3.75-3.75h-21.8q-3.75.41-3.98 3.75V61.3zm13.59-43.13v20.39h-11.37v-18.4q.3-1.7 2-1.99h9.37zm2.34 20.39V18.17h9.26q1.76.29 1.99 1.99v18.4H355.3zm-2.34 24.32h-9.37q-1.7-.24-2-1.82V40.91h11.37v21.97zm2.34 0V40.91h11.25v20.15q-.23 1.58-1.99 1.82h-9.26zm-36.91 1.76q9.79-2.7 17.46-5.45.7-.35 1.09-.79.38-.44.38-.85 0-.47-.36-.74-.35-.26-.93-.26-.47 0-1 .18-4.1 1.58-8.76 3.04-4.66 1.47-8.58 2.41-.65.23-1.03.64-.38.41-.38.82 0 .47.44.76.44.3 1.14.3l.53-.06zm60.47-46v43.01q.41 2.99 3.52 3.46h41.25q3.33-.36 3.75-4.05V18.29q-.47-2.99-3.52-3.4h-40.78q-3.99.29-4.22 3.75zm44.18-1.52q1.7.29 1.99 1.99v41.84q-.29 1.58-1.99 1.81h-39.96q-1.64-.23-1.88-1.81V19.11q.24-1.7 1.88-1.99h39.96zm-33.87 7.26v4.1q.24 2.99 3.52 3.29h21.21q3.1-.36 3.4-3.52v-3.87q-.18-3.1-3.52-3.4h-21.09q-3.11.47-3.52 3.4zm2.35.59q0-1.58 1.99-1.64h19.57q1.93.12 1.99 1.4v3.05q-.06 1.52-2.11 1.64h-19.45q-1.94-.17-1.99-1.64v-2.81zm-3.75 14.3v10.89q.11 1.59 1.11 1.59.94 0 1.11-1.59V40.2q.3-1.7 1.99-1.99h21.92q1.76.29 1.99 1.99v9.96q.12 1.59 1.11 1.59.94 0 1.12-1.59V39.38q-.41-2.93-3.28-3.4H391.4q-3.34.53-3.63 3.29zm16.17 3.63q.06-.94-.24-1.47-.29-.52-.76-.52-.88 0-1.35 1.52-2.16 11.66-14.29 14.77-.71.29-1.09.73-.38.44-.38.85t.35.67q.36.26 1 .26.53 0 .7-.05 13.48-3.81 16.06-16.76zm15 16.17q.47.23.99.23.53 0 .79-.26.27-.26.27-.61 0-.94-1.23-1.7-5.51-2.52-12.78-5.51-.35-.12-.82-.12-.52 0-.85.27-.32.26-.32.67 0 .88 1.17 1.52 5.57 2.29 12.78 5.51z"/></svg>