<svg viewBox="0 0 447 80" xmlns="http://www.w3.org/2000/svg"><path d="M46.34 26.46h11.94q1.08-.36 2.58-1.62 1.38-1.38 1.68-2.58.48 1.38 1.35 2.43.87 1.05 1.89 1.53 1.92.96 2.34.96l-1.14.48q-.72.36-1.08.9-.36.54-.36 1.44v7.02q.36 1.68 1.44 1.68.18 0 1.62-.48-2.34 2.34-4.14 4.26-1.02 1.14-1.26 1.32l-.24.24h-.18q-.84 0-2.16-1.62-.9-1.32-.9-2.1H47.54q-.48 0-.96.24 1.5 1.38 3.54 1.38h.9q1.2 0 1.2 1.68-.24 5.4-.96 8.88 0 .36-.48 1.8l-.66 1.92q-2.1 4.86-7.32 7.32-1.38 1.02-4.2 1.38-3.42.96-6.54.96v-.24q2.64-1.02 4.2-2.1.96-1.62.96-2.82 0-.9-.54-1.53t-1.56-.81h-.48q-1.26 0-2.19.69-.93.69-1.83 2.31-.66 1.5-.66 2.4-.24 0-.24-.48-.3-.9-2.58-1.68-1.62-.48-2.46-1.56-.84-1.08-.84-2.64v-15h-8.46v-1.38h8.46v-9.42H22.7q-4.02 6.48-7.08 7.5 2.52-5.46 3.78-9.12 1.44-5.22 2.34-10.08l1.38-9.6h.24q0 1.38 1.2 2.58 1.2.96 2.82 1.38 2.04.42 2.34.72.24.24.24.96v.24q0 .6-.42 1.95t-1.26 3.15h1.92q1.38 0 2.76-1.86 1.5-1.74 2.16-3.72.54 1.86 2.58 4.68 1.74 1.74 2.76 2.1h.48v.24H27.8q-1.44 3.24-4.2 7.5h5.64q1.26 0 2.82-1.86 1.32-1.8 1.62-2.82l.24-.72q.84 2.76 3.06 4.92 1.02 1.08 2.58 1.86h-9.6l.24 4.5v4.92q.42 0 1.38-.96 1.74-1.74 2.82-4.2v-.48q.18 0 .27.42.09.42.21.72 2.4 4.56 5.58 5.64v.24H30.2V53.7q2.46-1.44 4.44-1.44 2.52 0 4.44 2.58.72 1.8.72 2.82 0 2.7-1.92 4.92 1.62-.78 3.78-3.06 2.76-3.54 3.06-6.3.9-3.18.9-11.52v-.48q-1.5 1.62-1.86 2.58l-.48.72q-.3-1.5-1.62-2.82-1.8-1.68-3.78-2.1h-.18v-.24q1.56-.42 2.34-1.14.42-.84.42-1.92v-6.78q0-.84-.9-1.14l-.48-.24h-.48q-.18 0-.63.18l-.75.3q2.7-2.7 3.99-4.11 1.29-1.41 1.41-1.53.12-.12.21-.18t.21-.06q1.5.48 2.34 1.62.36.72.57 1.23.21.51.39.87zM58.76 12.9q.48.48 1.62 1.08 1.14.6 2.58 1.26 2.64 1.14 3.06 1.14-2.94 1.68-6.78 5.16-2.22 2.94-5.88 4.92 1.32-2.52 1.92-4.92 1.86-7.62 1.86-10.32.36.72.72 1.11.36.39.9.57zm-11.7-.48l.24-.96.48 1.68q.48 1.02 2.1 3.06 1.86 1.2 3.96 2.1-3.66 1.62-5.64 5.16-.66 1.2-.9 1.86-.84-2.16-2.34-4.02-1.86-1.8-4.02-2.76l-.48-.24q1.98-.42 4.26-2.58 1.02-1.08 2.34-3.3zM58.28 27.9H46.34l.24 8.4v.24q0 .9.36 1.56t1.02.78h11.52v-8.64q0-.9-.33-1.53t-.87-.81zm-3.24 15.48l-.24-2.82h.24q.18.9 1.26 1.89 1.08.99 2.94 1.83 3.12 1.2 3.54 1.2.12.18.6.21t1.26.03v.24q-1.08 0-2.1 1.14-1.2 1.98-1.2 3.54v6.06q2.88-1.38 5.16-1.38 1.92 0 3.21.72t2.19 2.34q.48 1.8.48 2.58 0 1.5-.81 2.79t-2.49 2.55q1.2-1.92 1.2-2.76 0-.9-.54-1.59-.54-.69-1.62-.99-.24-.24-1.14-.24-2.76 0-4.44 2.1-.18.3-.48.81t-.72 1.29l-.24.96q0-.54-.54-.96-.54-.42-1.8-.96-3.72-1.32-3.72-3.72V43.38zm48.72-31.68q1.08 2.52 2.82 4.26 1.5.66 2.58 1.38l1.14.24v.24l-.66.24q-.72.18-1.23.63t-.63.99q-.48 1.44-.48 2.82v.48h10.5q.48-.24 1.92-1.2 1.02-.78 1.62-1.62.24-.36.96-1.62.18-.3.21-.48t.03-.24q.66 2.46 2.34 3.72.96 1.08 2.1 1.44 1.08.54 1.62.72-1.38.24-2.34 1.62-.18.18-.96 2.1-.12.66-.6 1.38-.48.72-1.02 1.44-.42.42-1.38 1.14-.96.48-1.68.72-.24.12-.81.24-.57.12-1.05.24 1.44.96 2.1 1.14l.24.24q-.96 0-4.44 1.2-1.5.36-2.58 1.38-3.78 2.94-6.3 3.78-.72 0-1.2.24.48 1.32.48 2.1v2.58h11.46q1.08 0 2.13-.87 1.05-.87 2.31-2.67.54-1.44.72-1.62 0 .06.03.24t.21.48q.24.72 1.38 2.34 1.8 2.04 4.5 2.82-.36.12-.96.45t-.96.45q-3 1.74-4.2 5.16-1.02-2.46-2.1-3.72-1.02-1.02-1.86-1.44-.24-.24-1.44-.24h-11.22V61.2q0 1.14-.96 2.1-.9.9-1.62 1.14-.9.48-1.71.78-.81.3-1.11.42-.36.18-.6.48t-.36.42v.48q-.42-2.1-1.38-3.06-1.32-1.2-1.62-1.38-1.44-.72-3.06-.72t-2.82 1.2q-.48.96-.48 1.38 0 .66.3 1.35.3.69.9 1.71-.36-.18-1.68-1.38Q89 63.78 89 62.1v-.48q0-.78.3-1.53t.9-1.71q1.74-2.16 4.92-2.16h.18q2.46 0 4.98 1.44V46.62H78.2v-1.38h22.08V45q0-.24-.48-1.2-.48-.18-1.2-.18-.36 0-1.62.42l4.44-5.16q.6-.72 1.02-1.17.42-.45.6-.45h.24q.72 0 1.92 1.2l.45.63q.15.21.21.27 1.74-.96 2.1-1.86 1.92-2.58 1.92-3.78v-.18q0-.48-.24-.72H89v-1.44h21.78q1.26-.3 2.82-1.62 1.14-1.56 1.44-2.1.12 0 .18-.06t.06-.18q0 .06.03.24t.15.48q.36.9.96 1.86.24.48 1.38 1.62l.48-.42q.6-1.02.9-1.77.3-.75.3-1.53v-.24q0-1.56-.96-2.82-.36-.72-.72-.72H88.28q0 .84-.66 3.78-.12.48-.3 1.29t-.18 1.29q0 .9.48 1.38-1.62 0-4.5 1.44-1.86.9-2.58.9.24-.48.24-1.38v-.24q0-2.04-1.86-4.2l-.24-.48q1.92-.36 3.78-1.86.9-1.02 1.38-1.92 2.1-3.42 2.1-5.82v-.72q1.08 1.08 1.68 2.58.06.54.24 1.44.18.9.18 1.38h12.42v-.48q0-1.5-.18-2.37-.18-.87-.72-1.41-.48-.18-1.44-.66l-.66-.24v-.24l2.1-.72Q101 15.9 101.9 15q.9-1.2 1.29-1.86.39-.66.57-1.44zm56.52-1.38q.24.66 1.86 1.62 1.14.9 3.72 1.68 3.3.66 4.92.66-.48.18-1.11.51-.63.33-.99.45-1.38 1.74-1.38 3.72v.96h10.5q1.74 0 4.02-3.3.36-.48.6-1.05.24-.57.36-.81 0 .06.03.24t.15.48q.48 1.32 1.44 2.34.36.36.84.9t.78.72q1.44.96 2.1 1.2h.24q-1.32.54-3.06 1.86-.72.78-1.08 1.23-.36.45-.54.63-.18.54-.48 1.14-.3.6-.42.96v.24q-.9-2.52-2.4-3.96-1.32-1.44-2.76-1.44h-8.22q3.6 6.18 12.66 9.66 4.86 1.68 9.12 2.58-1.8.36-3.3 1.86-1.44 1.62-2.58 3.48-.12.48-.42.84t-.48.36q-3.3-1.14-6.78-3.96-2.46-2.1-3.54-3.54-1.08-1.2-1.77-2.37-.69-1.17-.81-1.41-2.94-4.68-3.54-7.5h-.66v8.46q0 1.38.9 2.34.96.48 1.2.72l.9.24q-2.04.42-3 1.14-2.4 1.38-3.54 4.02h3.78q1.14 0 2.1-.48 2.04-1.26 3.24-3.54 0 1.14.96 2.34 1.44 1.44 1.86 1.92.12.06 1.56.96.9.6 1.5.9.54.18 1.14.48.6.3.96.42h-.9q-.78.18-1.86.48l-1.92.48q-4.02 1.26-6.3 2.34l-1.92.72v3.48h11.28q1.14 0 2.1-.66 2.34-1.92 3.3-4.44 0 .18.24.69t.66 1.17q.42.84 1.44 1.86 1.26 1.26 2.34 1.62.96.48 1.14.48v.24q-.42 0-1.86.72-.48.24-2.1 1.86-.84 1.08-1.26 1.77-.42.69-.6 1.53-1.38-2.76-2.58-4.02-.72-.66-1.68-1.14-.12-.18-.51-.21t-.87-.03h-11.04v10.08q0 1.44-.69 2.46t-2.07 1.5l-2.4.96q-.66.24-1.38.96l-.3.45q-.18.27-.18.45-.42-2.04-1.14-3.06-.18-.18-.48-.57-.3-.39-.72-.81-1.98-1.38-3.96-1.38h-.24q-2.34 0-3.3 1.62-.24.48-.24 1.14v.24q0 1.32 1.2 3.3-.18-.06-1.02-.78-.36-.24-1.08-.84-1.92-2.28-1.92-4.68 0-3.18 2.82-4.98 1.86-1.38 4.26-1.38 2.58 0 5.58 1.62v-6.3h-24.12v-1.44h23.88q-.36-.84-.66-1.14-.24-.24-.96-.24-1.02 0-2.1.72l6.54-7.26q.12-.12.24-.18t.24-.06q.54 0 2.1 1.14.48.48.78.87.3.39.42.57.48-.78.81-1.44.33-.66.33-1.14 0-.96-1.14-.96l-.48-.24h-19.2v-1.14h16.14q-1.08-2.88-3.72-4.26-.66-.24-1.29-.48t-1.05-.42h-.24q.9-.24 2.34-1.2.42-.84.72-1.14v-3.3l-2.46 2.22q-1.56 1.44-2.28 1.98-1.26.96-3.18 2.22l-2.16 1.56q-4.02 2.1-6.6 3.3-1.32.54-3.18 1.02l-2.64.84-1.2.24q3.12-2.16 7.5-5.4 1.2-.72 3.54-3.06 1.02-1.02 2.22-2.34.78-1.02 1.26-1.38 1.32-1.74 2.19-3.15.87-1.41 1.11-1.77.12-.18.48-.84.36-.66.66-1.56h-16.86l-.24-.18v-1.2h21.84v-9.6zm56.22 0q1.38 1.02 2.1 2.82.24.66.24 1.62 0 1.68-1.14 3.78-1.26 1.14-2.82 1.14-2.1 0-3.78-1.62-1.5-1.2-2.34-1.2-.36 0-.54.15-.18.15-.18.33 0 .78 1.2 1.86.3.18.75.51t.87.45l1.32.54q.96.42 1.26.6.48.48.48 1.92v2.1q.66 0 1.62-.72 1.02-1.02 1.2-1.38.96-.96 1.38-2.1l.48-.96q.36 1.68 2.1 3.54.12.12.81.75.69.63 1.29.87.18.18.48.36t.48.36v-.48h6.12V19.2q0-5.04.66-6.06 0-.24.72-.96.96-.96 2.1-.96h.24q.9 0 1.65.39.75.39 1.65 1.29.9.9 1.86.9h.24q.66 0 .96-.66v-.72q0-1.26-.72-1.62 1.32.54 2.1 2.58.48.84.48 1.62v.24q0 .78-.3 1.53t-.9 1.77q-.48.66-1.29 1.02t-1.71.36q-2.1 0-3.78-1.62-.66-.48-1.23-.84t-.87-.36h-.24q-.18 0-.33.15-.15.15-.15.33v.24q0 .78 1.68 2.1.12.06 1.38.6l1.38.6q.54.12.87.6.33.48.33 1.02v2.82h3.54q.9 0 1.89-.78.99-.78 1.83-2.28.84-.84 1.2-1.86v-.24q.12.54.45 1.08t.45.78q.36 1.14 1.44 2.1 1.44 1.14 2.34 1.44.18.18 1.14.66-1.8.36-3.48 2.16-1.5 1.8-2.16 3l-.18.96q-.18-.54-1.2-2.58-1.02-1.5-2.04-2.28-1.02-.78-1.92-.78h-.72q0 1.74.72 5.64.42 2.64 1.38 4.2 1.38 3.18 2.58 5.16.3.36.69.9.39.54.99 1.26 1.02 1.44 1.86 2.52 2.76 2.88 4.2 4.02.48.48.72.48-.66.12-1.47.69-.81.57-2.31 1.89-.6.6-1.05 1.14-.45.54-.57.72-.84 1.14-1.2 1.14-1.08 0-2.82-2.82-.24-.42-1.02-1.71t-1.32-2.49q-.6-1.5-1.32-4.68l-.54-2.1-.24-1.26q-.54-3-.72-4.86-.48-4.92-.66-7.26l-.24-2.58h-.24l.24 29.1q0 3.42.9 3.72.48.48 1.44.48-2.64 1.2-4.2 3.72-.96 1.92-1.2 2.58-.18 1.02-.33 1.65-.15.63-.15.93h-.24q-.36-1.62-.66-2.58-.54-1.32-1.92-3.48-1.26-1.98-3.24-2.82h.24q.84 0 1.38-.48.54-.48.72-1.38.24-.96.24-2.58V41.46q-1.8 3.18-3.54 5.4-.72 1.2-3.06 3.54-2.4 2.4-3.96 3.48-1.8 1.44-3.78 2.34l-.66.48q1.98-2.52 4.44-6.3 2.28-3.6 4.44-9.18 1.56-3.36 2.58-8.4.48-1.38.75-2.91.27-1.53.45-2.97h-3.78v-.48q-.18.12-.75.36-.57.24-1.11.6-2.1 1.56-3.3 4.68l-.48-.72q-.48-1.26-1.86-3-.66-.6-1.05-.93-.39-.33-.57-.51-.48 0-.72-.24v5.16q.96 0 2.58.96.66.24 2.34 1.38.72.72 1.62 1.92.3.42.66.84.36.42.78 1.02 1.14 1.14 1.86 1.14h.24q-.96.96-1.62 2.1-.12.36-1.02 1.8-.6 1.02-.9 1.5-.12.12-.21.36t-.21.36q-.12-.12-.24-.48t-.24-.48q-1.38-1.26-3.06-1.62-.18-.18-.45-.21t-.75-.03h-.42q.66-.36.66-2.82 0-3.78-1.38-6.78l-.24-.72v24.12q0 2.76 1.2 3.54.42.24 1.38.24-2.16.72-3.72 3.06-1.44 2.22-1.68 3.48-.18.48-.36 1.11-.18.63-.36 1.23-.36-1.74-.9-2.76-.36-1.68-1.44-3.06-1.56-2.34-3.72-3.06h.24q1.2 0 1.77-1.02.57-1.02.57-3.18V42.18q-.42.84-1.17 1.83-.75.99-.93 1.23l-.96 1.02-.96 1.08q-1.86 2.28-2.76 2.58-.78.78-2.58 1.62-1.26.96-1.68.96 3.18-4.44 4.44-7.02 2.46-4.14 4.26-10.08.6-1.56 1.05-3.57l.57-2.55.48-2.58h-9.36v-1.38h9.6v-7.26q0-4.44.9-5.4.96-1.62 2.82-1.62h.24q.9 0 1.65.36.75.36 1.65 1.26.96.96 1.86.96.9 0 1.2-.96v-.48q0-1.14-.72-1.86zm77.1 6.78h-33.48v-1.38h38.4q1.56 0 3.3-2.34 1.2-1.8 1.62-3.06 0 .06.06.18t.18.3q.24.42.96 1.62.72 1.2 1.62 2.1.66.66 1.26 1.2.6.54 1.08.66l1.44.72h-9.42v16.44q0 2.16-5.16 2.76h-.42q-.48 0-.75-.03t-.45-.15q-.24-.24-.24-1.2V17.1zm18.3 21.36h-11.28l.24 7.92v12.9q0 2.76-2.34 3.78-.24.24-1.29.54-1.05.3-1.29.36-.84.42-1.38.96-.18.18-.33.45-.15.27-.15.51l-.72-2.1q-.9-2.04-3.48-3.06-.24-.06-.81-.27-.57-.21-1.11-.21h-.18q-1.68 0-2.82 1.14-.48.96-.48 1.68 0 1.26 1.14 3.24-.42-.18-1.86-1.62-1.86-2.28-1.86-4.2v-.24q0-2.34 1.86-4.2-1.2-1.2-1.62-2.34v-.72h-7.74q-1.08.36-2.58 1.86-1.38 1.38-1.62 2.82-.12.12-.18.27-.06.15-.06.21-.78-2.82-2.34-3.78-1.62-1.08-2.16-1.38-.42-.12-.9-.24-.48-.12-.72-.24v-.24q1.14-.3 2.1-1.14.18-.18.24-.36t.24-.36q.24-.72.24-3.54 0-.66-.48-1.14-.48-.48-1.14-.48-.36 0-.87.18t-.81.3l5.64-6.36q.12-.12.24-.18t.24-.06q.66 0 1.86 1.2.6.6.87 1.17t.33.69q.18.18.27.66.09.48.15.78h7.5q1.08-.72 2.58-1.92.96-.84 1.44-1.86l.72-1.38q.18.54.36.99.18.45.3.87 2.16 2.88 5.4 3.72-1.02.36-1.86 1.2-.96.66-.96 3.3v1.14q0 .24.48 1.2.24.24 1.2.24.3 0 .81-.18t.81-.3l-3.3 3.72q2.28 0 5.4 1.44V38.46h-35.4v-1.44h11.94q-.72-1.92-1.62-2.82-.48-.3-1.17-.9-.69-.6-.93-.72-.42-.18-1.11-.51-.69-.33-1.23-.45 2.04-.78 2.34-1.62.48-1.44.48-3.3v-.66q0-.24-.48-1.2-.48-.48-1.2-.48-.54 0-1.62.72 4.98-5.7 5.64-6.36.12-.12.24-.27.12-.15.24-.15.36 0 1.86 1.14.96.96 1.38 2.1.24.48.24 1.2h7.5q.66-.24 2.58-1.62 1.08-1.08 1.44-2.16.42-1.14.42-1.38h.24q.72 2.52 2.58 3.96 1.44.96 2.1 1.2l1.44.48q-1.44.36-2.1 1.38-.18.18-.72 1.62v2.4q0 .9.72 1.62.24.24.66.24.48 0 1.92-.48l-3.42 3.84-2.22 2.46q-.12.12-.27.18-.15.06-.21.06h-.24q-.96-.36-2.1-1.86-.54-.54-.78-.93t-.36-.93q0-.48-.24-.48h-7.5q-.12.12-.75.42t-1.17.54q-1.62 1.26-2.34 3.72h29.58q2.16 0 4.68-4.2.12-.24.21-.66.09-.42.21-.54 0 .06.06.18t.18.3q.3.84 1.2 2.1.24.48 1.86 2.1 1.8 1.8 3.3 2.16zm-38.22-14.34v3.78q0 1.98 1.44 3.06h7.26v-4.02q0-2.04-1.2-2.82h-7.5zm8.22 27.66v-3.72q0-2.1-1.2-3.3h-7.5v3.78q0 2.28 1.2 3 0 .12.06.18t.18.06h7.26zm89.28-10.32q.24.24.72.24-.06.06-.24.18t-.48.3q-.6.18-2.1 1.2-1.08.72-1.62 1.86-.24.36-.63.87t-.57.99l-.24.72q-.42-2.1-2.1-3.78-1.08-1.02-1.86-1.38V60q0 1.74-1.44 2.82-.66.48-3.48 1.62-.36.18-.72.48t-.72.48q-.12.24-.27.51-.15.27-.15.39 0-.66-.72-2.1-.18-.42-.57-.9-.39-.48-.87-.96-1.62-1.62-3.96-1.62-1.2 0-1.98.39t-1.32 1.23q-.24.24-.24 1.2 0 1.32 1.2 3.24-1.08-.54-1.86-1.38-1.92-2.28-1.92-4.68 0-3.06 2.34-4.68 1.98-1.2 4.26-1.2 2.46 0 5.4 1.38v-13.8h-18.3l-1.44.72-.66.48v12.6q0 3 .9 3.3.48.48 1.2.48-2.1.72-3.78 3.06-.36.6-.6 1.35-.24.75-.3.99l-.72 2.1v.48h-.24q0-.36-.72-2.82-.66-1.5-1.38-2.58-1.08-1.2-1.77-1.8-.69-.6-1.53-.78.9 0 1.44-.48.54-.48.66-1.38.18-.18.21-1.74t.03-3.9v-5.88q-2.22.78-3.48 1.44-1.26.84-1.92 1.71-.66.87-.66 1.53 0 .96 1.86 2.16-2.22 0-3.96-1.44-2.34-1.56-2.34-4.44 0-3 2.34-4.92.84-.9 4.2-2.34 1.44-.96 3.96-1.86v-9.42h-3.96l-.96 1.68q-.9 2.28-2.82 4.92-1.38 2.1-3.48 3.48l-.72.48q1.32-2.94 1.86-6.3.9-3.18 1.2-6.84l.48-4.92q.18-1.62.48-4.2l.18-.72q0 .6.72 1.68 1.44 1.32 2.82 1.62.48.24 1.44.24.9.3.9 1.38 0 1.44-1.62 6.12h3.48V18.3q0-2.22.21-3.45t.75-1.71q.18-.48.48-.75t.9-.45q.24-.24 1.2-.24 1.62 0 3.06 1.44.9.9 1.86.9.6 0 .96-.66.12-.12.18-.24t.06-.24v-.24q0-1.02-.66-1.38 1.38.72 2.04 2.34.24.42.24 1.38v.24q0 1.86-1.44 3.3-.48.48-1.08.69-.6.21-1.5.21-1.86 0-3.48-1.62-1.26-.96-2.1-.96-.18 0-.33.15-.15.15-.15.33v.24q0 .6 1.38 1.62.9.9 2.34 1.2.72.18 1.08.63.36.45.36.99l.24.72v4.68q1.74-.9 3.24-3.72.72-1.44.72-1.68.72 2.46 2.34 4.44.54.54 1.11 1.02.57.48.75.66.96.48 1.68.66v.24h-9.84v6.12q.9-.78 1.38-1.5.48-.72.48-1.56v-.24q0-.54-.36-1.17-.36-.63-1.02-1.17 1.62.36 3 1.44l.96.9h9.84v-8.4h-8.46v-1.44h8.46v-4.2q0-3.96.48-5.4 1.08-2.1 2.82-2.1h.24q1.74 0 3 1.62.48.48.96.72t.72.24h.24q.3 0 .51-.21.21-.21.39-.75v-.48q0-.84-.66-1.62h.18q1.2.78 1.92 2.58.24.72.24 1.62 0 1.68-1.2 3.3-.54.72-1.11 1.05-.57.33-1.47.33-1.92 0-3.3-1.38-1.62-1.38-2.34-1.38-.3 0-.48.12t-.18.3v.24q0 1.02 2.1 2.34.18.06.78.42.6.36 1.56.54.78.24 1.14 1.2.24.18.24.9h3.78q1.62 0 3.72-3.3.48-.42.72-.9.24-.48.48-1.2 0 .36.9 1.68.36 1.02 1.44 2.1.48.48.96.84t.66.54q1.68 1.38 2.58 1.68H355.7v8.4h4.68q1.8 0 4.02-3.24.6-.84.9-2.16 1.32 3.54 4.74 6.12.48.3.93.51.45.21.69.21h-9.6v7.5q2.04-1.08 3.72-4.26l.24-.66q.12.3.48.9.36.6.48.96.18.54.75 1.05.57.51.87.81 1.5 1.5 2.58 1.86zm-34.14-30.18q0-.06-.03-.06h-.03.03q.03 0 .03.06zm18 22.02h-15q.66 1.02.66 2.34v.24q0 2.82-2.34 5.16h16.68V33.3zm-10.32 20.16q-.48-.96-1.44-1.92-1.8-1.44-3.72-2.1v-.24q1.56-.42 2.1-.9.84-.42 1.86-1.44 1.68-1.62 2.1-3.48 0 .06.03.21t.21.45q.24.72 1.2 2.16 1.62 2.28 4.44 3v.24q-.36.12-1.05.48-.69.36-1.05.48-.72.36-1.86 1.62-.48.48-.96 1.44-.6.84-.96 1.86-.12-.36-.42-.87t-.48-.99zM386.9 12.9l.9-3.06q0 3.18 4.98 4.2 1.86.42 1.86 1.68v.24q0 1.56-4.02 10.26l-1.14 2.4h.24q1.62 0 1.62.42 0 .24-.15.63t-.33 1.05V53.7q3.84-4.92 5.16-7.98 2.22-3.42 4.26-9.42.6-2.22.78-2.82 1.2-4.38 1.74-6.78v-.24h-10.98v-1.14l.24-.24h13.56v-5.16q0-5.94.72-6.54 1.02-1.68 2.82-1.68h.24q1.68 0 3.48 1.92 1.14.66 1.68.66.6 0 .9-.66v-.72q0-.84-.42-1.68 2.34 1.38 2.34 4.26 0 1.2-.51 2.25t-1.41 1.71q-.96.72-2.1.72-2.1 0-3.96-1.86-1.26-.96-2.1-.96-.36 0-.54.15-.18.15-.18.33 0 1.08 2.58 2.58 2.58 1.14 2.82 1.38.48.48.48 1.92v1.38h5.34q1.74 0 3.78-3.06.12-.36.48-1.05.36-.69.48-1.05.9 2.94 3.72 4.92.96.6 1.86.96v.24q-1.56.3-3.24 2.1-.9.84-1.53 1.86t-.81 1.86q-.18-.78-.63-1.5t-1.29-1.74q-1.68-2.16-3.48-2.16h-2.82q1.38 7.2 6.06 14.1.48.78 1.65 2.01 1.17 1.23 2.61 2.67l2.1 1.62q1.92 1.62 3.96 2.82h.24q-2.1.6-3.45 1.2t-2.19 1.38q-1.56 1.32-2.52 3.06-1.56-.9-2.58-2.82h-7.74q0 10.26-3.54 17.34-3.3-6.24-3.3-17.34H394.4q-2.1 1.26-3.3 1.86-.24 0-.24.48v1.86q0 2.76.96 3.06.36.36 1.38.72v.24q-2.46.72-3.72 3.06-1.2 1.92-2.1 5.1-.84-2.94-2.34-5.58-1.44-1.8-3.3-2.58v-.24q1.38-.48 1.62-.96.72-.36.72-3.96v-18.3L383 38.4q-.72.9-1.74 1.92-2.7 2.34-5.16 3.06l-.72.24q3.72-5.28 5.16-9.42 3.06-6.96 6.36-21.3zm25.8 16.14h-.24v22.08q.54 0 2.34-2.16 1.26-2.28 1.62-3.24.6 2.1 2.58 4.44-2.16-4.26-3.72-9.6-1.68-5.04-2.58-11.52zm-7.08 10.08h-.24q-.12.84-1.14 2.4t-3.06 4.2q-1.86 2.28-4.44 4.92l-.72.48h9.6v-12z"/></svg>