<svg viewBox="0 0 505 80" xmlns="http://www.w3.org/2000/svg"><path d="M26.64 57.76q3.84 0 6.15-2.85 2.31-2.85 3.27-6.87t.96-7.86q0-4.32-.3-6.42-.24-1.62-2.13-7.59t-2.43-6.15q-.24-.06-.66-.18-.42-.12-.66-.12-1.02 0-1.56.66t-.54 1.68q0 1.8.45 3.6t1.35 4.5q.96 2.7 1.47 4.77.51 2.07.51 4.17 0 10.02-3.72 13.14-.6.48-1.92.9-1.26.42-1.86.87-.6.45-.6 1.47 0 .96.63 1.62.63.66 1.59.66zm-8.88-9.84h.48q1.44-.72 2.13-2.67t1.41-5.37q.12-.42.42-1.83.3-1.41.66-2.25.96-.84.96-1.92 0-.96-.69-1.59-.69-.63-1.65-.63-1.74 0-2.67 1.98-.93 1.98-1.77 5.7-.78 3.6-1.44 4.56-.12.6-.12.96 0 3.06 2.28 3.06zm31.26-2.58q3.3-1.2 3.3-5.16 0-.66-.87-1.74t-1.98-1.89q-1.11-.81-1.83-.81-1.08 0-2.13 1.2-1.05 1.2-1.71 2.85-.66 1.65-.66 2.67 0 1.8.96 2.25.96.45 2.94.51 1.38 0 1.98.12zm56.4-21.12q-1.8-1.26-5.67-1.74T89.1 21.7q-5.4-.24-8.58-.54-3.18-.3-5.37-1.11t-2.19-2.37v-.6q.66-1.44 2.22-1.44.96 0 3.12.36l1.74.24q2.1.24 6.9.54 8.52.6 13.95 1.2t7.59 1.62q1.74.84 1.74 2.4 0 .9-.51 1.38-.51.48-1.65 1.02h-.9q-1.14 0-1.74-.18zm-24.66 6.72l4.32-.96q7.32-1.68 12.33-2.52 5.01-.84 9.99-.84 1.98 0 3.15.21t1.95 1.08q.78.87.78 2.73 0 3.18-2.94 6.09-2.94 2.91-7.56 6.21-.3.24-.63.45-.33.21-.63.45-1.5 1.08-4.98 2.76-1.98.9-3.33 1.65-1.35.75-2.43 1.65 0 .42-.06.84t-.06.84q0 .54.06.93t.12.69q.18.72.18 1.5 0 1.2-.45 1.98T89.04 58q-1.8 0-2.37-1.17-.57-1.17-.57-3.21v-1.98q-1.98.54-5.22.9-1.38-.36-1.92-1.11-.54-.75-.9-2.37-.84-.6-1.62-2.67-.78-2.07-1.23-4.44-.45-2.37-.45-3.63 0-.84.36-2.28.06-.3.18-1.02t.12-1.26q0-1.32-.18-2.64-.06-.42-.12-1.05-.06-.63-.06-1.53t.66-1.5q.66-.6 1.56-.6 1.26 0 2.46.99t1.2 2.19q0 .3-.12.66-.12.36-.06.66zm2.22 16.8q2.58.18 8.16-2.88t10.83-7.11q5.25-4.05 6.63-6.39-.12-.06-.42-.15t-.48-.09q-5.64 0-13.92 1.5-8.28 1.5-13.38 3.48v1.08q0 2.88.15 5.04t.81 3.18q1.32.66 1.62 2.34zm20.82-3.84q1.14 0 2.25 1.02t1.8 2.43q.69 1.41.69 2.55 0 1.86-1.02 3.21-1.02 1.35-2.82 1.35-4.68 0-4.68-6.18v-.66q.72-1.38 1.71-2.55t2.07-1.17zm10.44 13.74q1.44.84 1.44 2.28 0 .72-.39 1.29-.39.57-1.05.87l-6.96.36q-11.76.6-17.64.6-2.58 0-6.48.54-4.32.48-6.54.48-3 0-3-2.4 0-1.86 2.22-2.16 14.94-1.86 35.88-1.86h2.52zm52.98-20.46q3.66 0 6.15.54t4.08 2.37q1.59 1.83 1.59 5.37 0 5.28-4.83 10.38-4.83 5.1-11.58 8.34t-11.85 3.24q-1.02 0-2.31-.57t-1.89-1.35q-.18-.6-.18-1.26v-.6q.78-1.5 2.1-1.5.66 0 1.56.3.96.24 1.5.24 3.48 0 9.06-2.7t9.72-6.63q4.14-3.93 4.14-7.53 0-2.58-1.47-3.36-1.47-.78-4.35-.78-4.14 0-8.1.78t-8.52 2.28q0 3.3-.09 5.4-.09 2.1-.51 3.6.78 0 2.97-.48 2.19-.48 2.19-.9 0-.54-.06-.9t-.06-.66q0-.36.18-.69.18-.33.66-.93l.18-1.32q.12-1.74.54-2.61.42-.87 1.8-.87 2.28 0 2.82 2.1t.54 5.28q0 2.52-1.83 3.9t-4.41 1.89q-2.58.51-6.84.93-3.96.42-6.06.84-2.1.42-3.36 1.32l-3.18.06q-2.46 0-3.42-.99t-.96-3.51q0-2.88.75-4.8t3.15-1.92h.48q1.5.9 1.5 2.34 0 .6-.54 1.44-.84 1.2-.84 2.46 0 .24.36.33.36.09.6.09 1.5 0 3-.33t3.84-1.05l1.56-.48q-.06-.48-.06-1.44 0-1.68.3-3.9.12-.84.24-2.64-.54.12-2.34.63-1.8.51-3.42.51-3.12 0-3.12-8.46 0-3.18.06-5.55.06-2.37.12-3.99.12-2.16.12-3.12-1.92 0-2.76-.48-.84-.48-.84-2.22 0-.96 2.01-4.08t4.32-5.82q2.31-2.7 3.21-2.7.96 0 1.65.63t.69 1.53q0 .96-.66 1.77t-1.44 1.41q-.78.6-1.02.84-1.02 1.98-1.5 3.36l.06.18q1.8-.36 2.7-.6 2.52-.6 4.32-.9 1.8-.3 3.6-.3 4.32 0 7.41 2.19t3.09 6.33q0 6.42-6.48 11.04l1.38-.24q2.94-.54 4.8-.81 1.86-.27 3.78-.27zM142.2 20.86h-.06q0 .06.06.06v-.06zm11.46 2.58q-5.1 0-10.5 1.92.12 1.38.12 4.2.48-.9 1.02-1.17.54-.27 1.62-.27.54 0 1.17.18.63.18.81.24 1.08.36 1.68.42.42.06 1.89.18t2.31.78q.84.66.84 1.98 0 1.38-1.08 1.77-1.08.39-2.76.39-1.68 0-4.29-.93-2.61-.93-3.21-2.13.06.84.06 2.52v2.52q.6.06.96.48t.72 1.2q.48 1.02.84 1.02 2.4 0 5.58-1.71t5.49-4.26q2.31-2.55 2.31-5.01 0-2.16-1.62-3.24t-3.96-1.08zm84.54 25.98q.96 0 1.65.63t.69 1.53q0 1.2-1.08 2.37-1.08 1.17-2.28 1.17-4.44 0-7.56-3.39-3.12-3.39-5.52-8.55l-.24 1.92q-.48 4.26-1.41 7.05-.93 2.79-3.33 3.27-1.2-.36-1.98-1.14-.78-.78-.78-1.92 0-.66.27-1.05t.81-.75q.3-.24.57-.51.27-.27.45-.69.66-1.74.99-4.41.33-2.67.51-6.15l.12-1.62q-4.92 0-7.38-.24l-.78-.48q.12.36.12.54 0 1.32-2.04 1.98-2.04.66-5.04 1.08l-1.32.24.18 1.32q.3 1.2.36 2.4.36-.12 1.62-.48 1.26-.36 2.4-.36t1.86.54q.72.54.72 1.62 0 1.44-1.35 2.04-1.35.6-3.87 1.02-.3.06-1.26.27-.96.21-1.5.45-1.14.24-3.12.66-1.98.42-2.94.72-.42.24-1.08.69-.66.45-1.2.63-1.02-.12-1.65-.72-.63-.6-.63-1.62 0-1.5 1.56-2.7 4.62-1.38 6.06-1.74-.48-2.58-.6-3.72-1.68.42-2.22.6-3.36.96-5.16.96-2.76 0-2.76-2.28 0-1.56 2.58-2.37t4.62-1.14q2.04-.33 2.46-.39h.06v-.18q-.54.12-1.62.24l-1.2.18-.12-.06q-3.3 0-5.37-.33-2.07-.33-3.54-1.74-1.47-1.41-1.47-4.41 0-1.92 1.89-5.73 1.89-3.81 4.41-6.81 2.52-3 4.44-3 2.64 0 7.89 1.8t9.33 4.5q4.08 2.7 4.08 5.34 0 3.3-4.32 5.37-4.32 2.07-9.9 3.63v.24q1.02-.18 2.28-.54.3-.06 1.56-.36t2.4-.3q.66 0 1.08.15.42.15.78.57-.12-.78.21-1.41.33-.63.99-.99 2.28-.18 4.38-.18 1.26 0 3.66-.12.24-.96.36-3.66.18-3.72.78-5.73.6-2.01 2.52-2.01h.36q.9.54 1.2 1.29.3.75.3 1.95 0 2.04-.6 6.36-.12.48-.24 1.56 3.24-.36 4.8-.36h1.02q1.5.9 1.5 2.1 0 1.62-1.41 2.07-1.41.45-2.85.51-1.44.06-1.92.12.78 2.28 2.31 5.46t3.51 5.7q1.98 2.52 3.78 2.52.24 0 .87-.51t1.29-.51zm-43.08-17.04q.66 0 1.11-.06.45-.06.81-.12.24-.06.6-.12t.84-.06l-.18-2.64q-.24-3.36-.24-4.98 0-2.52.42-4.44l-.96-.18q-.84.54-1.26.54-1.68 1.2-2.16 2.04.6.48.84 1.05.24.57.24 1.41t-.57 1.53q-.57.69-1.41.69-.96 0-1.8-.6-.12.3-.57 1.26-.45.96-.66 1.77-.21.81-.21 1.59 0 1.32 5.16 1.32zm9.06-10.62l-1.38-.48v2.52q0 2.4.24 7.08 2.88-.96 6.06-2.25 3.18-1.29 3.66-2.13-.06-.66-3.42-2.52 0 .42.03 1.68t-.45 2.13q-.48.87-1.56 1.41-1.38 0-2.16-.48-.78-.48-.78-1.8 0-.96.18-1.86.12-1.2.12-1.86-.42-.6-.54-1.44zm31.26 6q-1.08 0-1.77-.63t-.69-1.71q0-1.2.81-1.65.81-.45 2.19-.45h.42q1.5.9 1.5 2.34 0 .78-.42 1.2-.42.42-1.32.9h-.72zm-24.48 22.2q1.5.9 1.5 2.34 0 1.38-1.08 1.77-1.08.39-2.76.39-.96 0-1.62-.72-.66-.72-.66-1.68 0-1.08.84-1.71.84-.63 1.98-.63.36 0 .9.09l.9.15zm-5.76 2.64q1.5.9 1.5 2.34 0 .84-.42 1.26-.42.42-1.32.84h-.72q-1.08 0-1.77-.63t-.69-1.71q0-1.2.81-1.65.81-.45 2.19-.45h.42zm-12.96.72q.78.48 1.11 1.02.33.54.33 1.44 0 1.02-.75 1.77t-1.71.75q-.96 0-1.56-.75-.6-.75-.6-1.77 0-1.14.81-1.8.81-.66 2.01-.66h.36zm7.68.72q1.5.9 1.5 2.34 0 .84-.42 1.26-.42.42-1.32.84h-.72q-1.08 0-1.77-.63t-.69-1.71q0-1.2.81-1.65.81-.45 2.19-.45h.42zm70.98-35.82q8.28 0 20.4 1.62 1.08.12 1.92.9.84.78.84 1.86 0 1.02-.51 1.5t-1.65.84q-6.36-.96-9.54-1.38-.9 1.02-1.71 2.4-.81 1.38-1.53 2.76-1.2 2.28-1.92 3.36 2.28-.66 4.38-.66 3.24 0 5.58 1.62t3.51 4.35q1.17 2.73 1.17 5.91 0 3.06-1.41 6.78t-3.87 6.57q-2.46 2.85-5.46 3.57-1.02-.18-1.74-.42-1.92-.48-3.06-.48h-2.04q-2.16 0-3.81-.21t-3.15-.87l-.12.06q-2.34-.48-3.03-2.43-.69-1.95-.69-4.95 0-3.06.54-6.06.54-3 1.56-6.78-4.86 6.84-13.68 7.68-.48 4.92-.48 9.24l.06 1.44q.12 1.08.12 1.68 0 1.5-.51 2.46t-1.89 1.32q-1.5-.18-1.98-1.47t-.48-3.09q0-8.04.81-18.78.81-10.74 2.25-16.26.3-1.2 1.32-1.74-1.08 0-1.68-.69-.6-.69-.6-1.77 0-2.58 7.38-2.58l3.12.06q3 0 4.95.81 1.95.81 1.95 3.39 0 1.62-.75 2.58t-2.37 2.1q-1.8 1.2-2.46 2.1 3.12.66 4.62 2.13 1.5 1.47 1.5 4.47 0 .96-.18 1.86 1.8-4.32 3.78-4.32 1.2 0 1.74.66 3.6-5.52 5.22-8.4-2.64-.24-3.96-.24-1.38 0-2.04.12-.84.6-1.56.6-1.38 0-2.43-.78-1.05-.78-1.05-2.1 0-1.5 1.35-1.92 1.35-.42 3.27-.42zm-12.72 1.98h-2.52q-2.16 0-3.18.24.78.24 1.26.81.48.57.48 1.35 0 .42-.12 1.26-.12.84-.12 1.26 1.92-1.08 4.32-2.58 2.4-1.5 2.4-1.98 0-.36-2.52-.36zm-5.28 20.88q3.84-.78 6.54-2.91t2.7-5.61v-.36q-.72-.84-3.51-1.2t-4.89-.36h-.36q-.06 1.14-.18 1.98-.12.84-.18 1.44-.48 3.84-.48 5.76.06.36.18.72l.18.54zm28.38-5.16q-2.34 0-4.38.87t-4.98 2.67l-1.38.84q-.24.78-1.14 1.32l-.18.84q1.86 0 3.84.42 1.98.42 2.34.48 2.04.48 3.42.72t2.76.24q.54 0 1.62-.24 1.44-.18 1.56-.18.84 0 1.44.45t.84 1.29q.24-1.68.24-2.46 0-3.12-1.5-5.19-1.5-2.07-4.5-2.07zm-5.7 18.9q2.34 0 4.02-.21 1.68-.21 3.24-.93 1.68-2.16 2.46-3.33t1.26-2.67q-.48.48-1.08.81-.6.33-.78.39h-2.82q-2.1 0-5.46-.78-3.72-.72-5.52-.72-.48 0-.93.09-.45.09-.87.09t-.9-.18q-.24 2.4-.24 3.6 0 .84.3 1.38.6.18.96.69t.48 1.17q2.76.6 5.88.6zm69.06-21.18q1.14 0 2.73.78t2.7 1.95q1.11 1.17 1.11 2.37 0 2.94-5.07 3.96t-9.99 1.02h-1.32v1.98q0 8.94-2.64 10.14-1.68 0-2.43-1.14-.75-1.14-.75-2.88 0-.54.36-1.17.36-.63.54-1.05.36-.96.36-5.28v-.3q-.6.06-1.86.06h-1.86l-.72.72q-.36 1.08-.72 2.52-.9 3.6-1.89 5.94-.99 2.34-2.79 3.3-1.38 0-2.04-.57-.66-.57-.66-1.89 0-1.14.66-2.16.96-1.44 1.44-2.82t1.02-3.54l.42-1.62q-2.82.06-5.46-.84-2.64-.9-4.32-2.85-1.68-1.95-1.68-4.89 0-3.66 4.68-8.01t10.89-7.41q6.21-3.06 9.99-3.06 2.76 0 5.22.72t2.46 2.82q0 .84-.57 1.56-.57.72-1.35.72-1.02 0-2.94-.6-2.04-.6-3-.6-1.8 0-4.56.78-1.74.48-5.82 3.09t-7.29 5.52q-3.21 2.91-3.21 4.53 0 2.64 3.12 3.36 3.12.72 7.02.72 1.86 0 5.58-.12-.06-.9-.24-2.01-.18-1.11-.24-1.59-.48-3-.48-4.62 0-1.5.15-2.34.15-.84.75-1.38.6-.54 1.98-.54h.48q.78.48 1.14 1.05.36.57.36 1.47 0 .3-.15.93-.15.63-.15.99 0 1.92.54 4.74.18 1.02.42 3.06 9-.42 9.36-1.14-1.5-.78-1.5-2.28 0-.96.63-1.53.63-.57 1.59-.57zm.48 13.68q1.02.6 2.13 2.07 1.11 1.47 1.11 2.55 0 1.8-1.74 2.52t-3.84.72q-1.32 0-2.52-.93t-1.2-2.25q0-2.04 1.74-3.36 1.74-1.32 3.78-1.32h.54zm48.3-29.58q-1.74-.3-3.09-1.17-1.35-.87-1.35-2.43 0-1.08.93-1.74.93-.66 2.01-.66 1.2 0 2.28 1.2 1.08 1.2 1.38 2.46-.24 1.14-.6 1.53-.36.39-1.56.81zm17.52 14.16q1.2 0 1.89.57t.69 1.77q0 .96-.72 1.83-.72.87-1.68.87-2.1 0-11.61-.9t-18.21-1.95q-8.7-1.05-9.66-1.47-1.74-.9-1.74-2.34 0-.96.72-1.59.72-.63 1.68-.63 1.98 0 4.05.33t3.84.69q1.77.36 2.31.48-.42-4.14-.48-7.32-.78 0-1.26.06l-2.16.06q-2.04 0-3.27-.51t-1.23-1.95q0-.6.33-1.11.33-.51.87-.81 2.4-.24 5.4-.24 7.14 0 16.26.33 9.12.33 9.96 1.23.66.78.66 1.68 0 .96-.57 1.47t-1.59.81q-3.12-.6-6.33-.75-3.21-.15-8.07-.15-1.5-.06-4.44-.06.6 3.24.6 6.96 0 .24-.12.72l7.2.84q-.66-.66-.81-1.14-.15-.48-.15-1.56 0-1.5 1.11-2.22 1.11-.72 2.67-.72 2.58 0 2.58 2.58 0 1.2-.12 1.77-.12.57-.57.93-.45.36-1.53.78l3.54.42q4.26.66 7.02.66.54 0 1.5-.24.24-.06.6-.12t.84-.06zm-18.78 4.74q6.9 0 11.4 1.89t4.5 7.77q0 4.56-3.93 6.93t-9.39 3.33l-.12.96q.9 0 2.58-.12l1.26-.06q.78.48 1.14 1.05.36.57.36 1.47 0 2.22-3.96 2.22l-2.4-.06-.3 1.26q.3 0 2.67-.03t4.14.69q1.77.72 1.77 2.22 0 .9-.63 1.62-.63.72-1.53.72-.84 0-2.52-.36-1.44-.42-2.52-.42-1.68 0-4.8.36-3.24.36-4.86.36-1.56 0-2.37-.48t-.81-1.86q0-1.68 2.43-2.13 2.43-.45 4.95-.39l-.24-1.32-1.5.06q-4.44 0-4.44-2.7 0-.9.66-1.5t1.56-.6q.66 0 2.1.12 1.74.12 2.58.06l.12-.84q-3.78.06-6-1.26t-3.6-4.74q-1.14-.3-1.47-1.38-.33-1.08-.33-2.58l-.06-3.48q0-8.76 2.7-8.76 1.02 0 1.68.6.66.6.66 1.62l-.06.78q5.34-1.02 8.58-1.02zm11.22 8.94q-.42-4.38-9.24-4.38.24.48.24 1.14 0 .6-.09 1.17t-.09 1.11l2.22.06q1.44.12 2.22.12.42 0 1.02-.06.6-.06 1.26-.06 1.86 0 2.46.9zm-13.2-4.32q-4.5.36-6.96 1.14v1.68q1.08-.18 2.1-.18 1.5 0 4.38.48 0-.3.03-1.29t.45-1.83zm-5.88 7.2q.3.48 1.11 1.86.81 1.38 1.74 1.65.93.27 3.15.39 0-1.86-.24-3.36-1.32-.12-1.86-.24-.42-.06-1.56-.18-1.14-.12-2.1-.12h-.24zm10.5 3.48q4.2-.66 6.6-2.46-1.14-.3-3.78-.3h-2.94q.12 1.8.12 2.76zm50.7-17.7h-.48q-1.74 0-2.85-3.3t-1.53-6.3l-.84 1.44q-1.02 1.86-1.8 2.97t-1.68 1.59q-1.56 0-2.13-.69-.57-.69-.57-2.25 0-1.2 1.86-3.96t4.2-4.98q2.34-2.22 3.6-2.22 1.98 0 2.4 1.86 3.3.84 5.43 1.74t2.49 2.7q.96-.84 3.18-4.92 1.62-3.06 2.85-4.74 1.23-1.68 2.25-1.68.9 0 1.62.57.72.57.72 1.41 0 1.38-.78 2.34l.78.6q.36.12 2.7.81 2.34.69 4.14 1.74 1.8 1.05 1.8 2.13 0 1.14-.42 1.53-.42.39-1.08.6-.66.21-.9.27-1.38-.3-4.32-1.5-1.68-.72-2.52-1.02l-.06 1.32q0 .96.06 1.68t.12 1.2q.18 1.5.18 2.94 0 1.14-.45 1.53-.45.39-1.65.81-1.74-.3-2.25-1.77t-.51-3.69v-2.04l-.06.12-.6 1.02q-.6 1.14-1.17 1.65t-1.65.87q-1.14-.24-1.71-.72-.57-.48-.57-1.5-.24.36-.6.54-.36.18-.78.3-.42.12-.66.18-.66-.12-1.38-.45-.72-.33-1.38-.69-1.56-.84-2.4-1.08l-.72 1.14q.24 1.02.78 2.76.06.3.39 1.35t.48 1.98q.15.93.15 1.71 0 1.32-1.68 2.1zM467.28 31q4.32 0 6.51 3.45 2.19 3.45 2.79 8.07.6 4.62.6 10.14v2.52q0 3.3-.63 5.64t-2.79 3.42q-2.7 0-2.7-2.4 0-.42.54-1.92.54-1.56.84-2.76.3-1.2.3-2.64v-2.7q0-6.6-1.17-11.43t-4.83-4.83q-1.92 0-4.23.33-2.31.33-4.47.69-.9.78-1.8.78-1.14 0-1.68-.72t-.54-1.86q0-2.22 4.56-3 4.56-.78 8.7-.78zm-17.7 8.52q0 1.08-.93 1.86t-2.19 1.08q-1.38-.24-1.95-.75-.57-.51-.57-1.89 0-2.16.42-3.72t1.92-1.56q.9 0 1.65.87.75.87 1.2 2.07.45 1.2.45 2.04zm-10.26-1.86q1.02 0 1.68.87.66.87.66 1.95 0 .54-.3 1.11-.3.57-.36.69-.48.84-.6 1.2-1.02 3.18-1.53 7.65-.51 4.47-.51 8.61 0 .48.09 1.05.09.57.09.87.18 1.02.18 1.92 0 1.38-.54 2.22-.54.84-1.8 1.14-1.5-.3-2.04-1.41-.54-1.11-.54-2.91 0-4.74.78-12.39t1.98-10.59q.36-.9 1.11-1.44.75-.54 1.65-.54zm14.7 3.18q2.94 0 5.67 1.41t4.47 3.87q1.74 2.46 1.74 5.46 0 3.36-1.98 5.19-1.98 1.83-5.7 3.39-4.32 0-6.63-1.32-2.31-1.32-3.15-3.93-.84-2.61-.84-6.93 0-1.44.99-3.15t2.49-2.85q1.5-1.14 2.94-1.14zm-1.86 8.04v1.02l1.44-.36q.36-.06 2.49-.54 2.13-.48 4.11-.66-2.94-2.64-4.8-2.64l-.48.06q-1.14 1.32-2.64 1.74-.12.96-.12 1.38zm5.1 6.78q1.38-.54 2.34-1.14.96-.6 1.44-1.56-1.8 0-3.75.42t-2.25.48q-.6.18-1.8.42.66.84 1.5 1.11.84.27 2.1.27h.42z"/></svg>