<svg viewBox="0 0 387 80" xmlns="http://www.w3.org/2000/svg"><path d="M15.24 26l4.5-12.36 8.04 2.94-1.92 5.22h9.48V26h-20.1zm27.78 39.78l-7.56-4.74 5.28-8.52v-6.96h-3.06V22.1h2.46l-1.68-5.82 9-2.58 2.4 8.4h5.1l2.34-8.4 9 2.58-1.68 5.82h2.4v23.46h-3.24v15.3h4.74v4.2h-14.1v-19.5h-4.5v9.12l-6.9 11.1zm4.02-24.42h10.68V26.24H47.04v15.12zM21.42 65.78V47.72h-4.98v-4.2h4.98v-8.76h-4.98v-4.2h18.48v4.2h-4.98v8.76h4.98v4.2h-4.98V56l3.3-1.92 2.1 3.66-13.92 8.04zM86.1 23v6.78h-9.36V18.8H97.8v-5.1h9.36v5.1h21.12v10.98h-9.36V23H86.1zm42.42 22.56v4.2H107.1v16.02H88.98v-4.2h8.94V49.76H76.44v-4.2h21.48v-2.1l7.32-7.32H81.9V32h39.3l-13.68 13.56h21zM135.3 26l4.5-12.36 7.98 2.88-1.92 5.28h9.48V26H135.3zm35.1 39.36v-4.14h8.34V26h-21.6l2.94-12.36 8.34 2.04-1.5 6.18h21.06v43.5H170.4zm2.7-22.86l-14.34-5.94 2.52-6.06 14.34 6-2.52 6zm-31.62 5.22h-4.98v-4.2h4.98v-8.76h-4.98v-4.2h18.42v4.2h-4.98v8.76h4.98v4.2h-4.98V56l3.3-1.92 2.1 3.66-13.86 7.92V47.72zm18.72 12.66l-3.36-5.58 18-10.8 3.36 5.58-18 10.8zm36.24-5.76l7.68-17.4h-9.48l8.58-23.52 8.1 2.94-5.94 16.38h9.66l-7.68 17.4h7.8v4.2h-18.72zM246.3 44.6l2.22 3.72-6.36 3.9 2.34 9.36h4.02v4.2h-11.76l-2.22-8.94-13.92 8.52-2.22-3.72 15.06-9.18-2.4-9.6-12.72 1.74-.54-4.14 12.24-1.68-1.62-6.66-10.14 1.38-.54-4.14 9.66-1.32-3.06-12.3 8.22-2.04 3.3 13.2 12.06-1.68.54 4.14-11.58 1.62 1.62 6.66 9.48-1.32.54 4.14-9 1.26 1.56 6.06 5.22-3.18zm.42-22.32l-7.08 1.74-2.04-8.28 7.02-1.74 2.1 8.28zm-50.28 38.76l18.36-3.3.72 4.14-18.3 3.24-.78-4.08zm65.4 4.74l-5.94-5.82 21.96-22.38v-3.66h-20.82v-4.14h20.82V14.3h9.36v15.48h20.82v4.14h-20.82v3.66l21.96 22.38-5.94 5.82-20.7-21.12-20.7 21.12zm54.66-13.2v-4.2h21.42v-3.6H318.3v-4.2h19.62v-3.72H318.3V14.24h48.48v22.62h-19.62v3.72h19.62v4.2h-19.62v3.6h21.42v4.2H316.5zm11.16-19.92h10.26V18.44h-10.26v14.22zm19.5 0h10.26V18.44h-10.26v14.22zm-16.92-1.62l-1.38-10.08 6.48-.9 1.38 10.08-6.48.9zm24.6 0l-6.54-.9 1.38-10.08 6.54.9-1.38 10.08zm-31.2 34.74l-7.14-3.12 3.66-8.46 7.14 3.12-3.66 8.46zm10.56 0l-3.66-8.46 7.14-3.12 3.66 8.46-7.14 3.12zm13.62 0l-3.66-8.46 7.14-3.12 3.66 8.46-7.14 3.12zm13.62 0l-3.72-8.46 7.2-3.12 3.66 8.46-7.14 3.12z"/></svg>