<svg viewBox="0 0 451 80" xmlns="http://www.w3.org/2000/svg"><path d="M38.2 47.88q.47 0 .47.46-1.64 6.21-7.03 10.79-.94 1.75-2.46 1.93-1.99-1.76-1.99-4.86 0-1.94.88-5.51l.52-2.58q-1.99-.12-2.93.47-2.05 1.23-3.39 1.4-2.11-1.17-2.11-2.52 0-.76.58-1.34 8.44-.88 7.97-3.99-.64.47-1.35.47h-.17q-1.23-.76-1.53-2.46h-.23q-.76 0-1.11.53-.12.23-1.12.99-1.93 1.47-3.31 2.2-1.37.73-2.66.73-1.06 0-1.88-.46 0-.71.59-1.06 1.93-1.93 7.85-8.32 4.98-6.56 8.79-14.65.41-.58.94-1.99.35-1.17 1.64-1.76 1.05.88 2.63 1.7 1.47.76 1.82 2.05-2.23 2.05-3.05 4.1 1.35.53 2.52.53 1.29 0 2.52-.53 1.7-.11 1.41 1.53-2.46 3.98-4.57 3.98-.59 0-1.41-.47-1.11-1.52-2.81-1.99-5.27 3.46-7.5 9.02.17.65.82.65.35 0 .82-.18 2.17-.94 5.16-2.63 1.99-1.12 3.34-1.12.58 0 .99.24.35.76.35 1.4 0 1.94-3.04 4.1-3.46 1.7-3.46 3.7 0 .41.06.52 4.1-2.11 5.27-1.99.18 1.41.18 1.64 0 .94-.44 1.55-.44.62-1.61 1.15-1.76.82-2.58 1.34-.76.47-1.2 1.76-.44 1.29-.44 2.76 0 1.34.47 2.46 2.16-.47 3.75-2.58.76-.59 1.46-1.64.59-1.06 1.58-1.52zm36.33 12.83q.06.11.06.58 0 1.17-.76 2.11-2.99.59-7.15.82-1.76-.17-3.52-.17l-3.04.11q-.18.06-.82.06-2.82 0-4.69-2.11-2.7-3.4-2.7-8.73 0-2.99 1.18-8.55l-2 .23q-2.46 3.34-3.98 6.45-2.29 2.93-2.11 6.56-2.17 1.76-4.92 2.81-2.76 1.06-5.39 1-.59-.24-.59-.59 0-.29.47-.76l.59-.47q4.63-3.34 7.64-7.03 3.02-3.69 4.31-7.97-2.52-1.05-2.93-3.4l-.53-1.23q-1.17-2.75-1.17-4.27 0-1.94 1.7-2.93 2.81-.71 5.86-2 6.56-4.57 11.01-11.48.41-.47.71-1.11.35-.65 1.11-.65h.18q2.11.71 3.04 2.46-.58 1.47-1.17 1.64-1.7 1.59-5.15 4.4-2.64 1.99-3.87 4.74h2.23q2.16 0 3.63.3 1.46.29 2.81 1.11-.41 1.58-1.05 2.58-3.75 3.34-4.57 7.85-.36 1.23-1.18 1.23-.23 0-.7-.17-2.28 3.98-2.46 8.43l-.12 1.47q0 5.74 7.62 5.74 1.46 0 3.05-.18 3.45 0 4.74-2.02t1.29-6.53q0-2.64-.06-3.4.06-.41.06-1.17-.06-.41-.06-1.11 0-.65.35-.65l.36.12q1.17 2.28 1.58 4.71.41 2.44.58 6.89l.06 1.64.47 2.64zM47.46 28.77q-2.23-1.52-2.81-3.98 1.58-1 3.28-.94 1.35-.12 2.93-.7.88-.29 1.41-.29.76 0 1.64.41-.71 2.11-2.64 3.77-1.93 1.67-3.81 1.73zm3.63 12.13q1.7 0 3.52-1.23.76-1.58.82-3.98-1.05-1.29-2.75-1.29-1.23 0-2.52.64-1.29.65-2.23 1.7.18.24.18.59t-.18.82q.23 1.35 1.05 2.05.82.7 2.11.7zm58.83-19.98q.29-.76.29-1.35 0-1.28-.82-2.81-.82-1.52-2.05-2.75l-1.46-1.58q-.82-.82-1.93-.77-2.52 2.7-2.52 4.81 0 2.05 2.52 3.16 2.51 1.47 5.97 1.29zm1.41 28.48q.23-.53.82-.59 5.51 0 8.58.35 3.08.36 6.07 1.64.52.18.93 0 .24-.52.24-1.52 0-1.7-.97-3.81-.96-2.11-1.84-2.63l-3.4.35-10.67 1.4q0-1.64-.7-2.93l-.47-.7q3.17-2.58 5.86-6.56.82-.47 1.76-.47l.7.06 1.23.12q.94 0 1.82-.18 2.64.23 5.51-1.64-1.35-4.04-5.16-6.5-3.81-2.47-8.79-2.88-2.52-.05-4.83.59-2.32.64-6.42 2.23l-1.52.58q-3.05 1.29-5.51 1.64l-2.58.94q.12 2.11 1.64 2.46.24.12.47.12.53 0 .94-.59 2.75-.88 6.44-1.4 4.34-1 8.91-3.17 1.76-.76 3.75-.76 3.57 0 5.16 2.4.41 1.47.47 2.93-2.7 1.47-5.45 1.47-1.35 0-2.99-.41-3.63.29-7.56 1.46-4.98 1.47-7.32 2.05-2 .65-2.93 1.41.46 1.52 1.69 2.4l2.29 2.05.47.12q.76 0 1.17-.76.47-.82 1.29-1.94 3.81-4.16 6.5-4.16 1.35 0 2.41.88-.3 2.17-2.17 3.58-1.88 1.4-4.28 1.46-.35.35 0 .82 1.47.59 1.88 1.29 1.17 1.17 1.52 3.17-4.4 1.05-8.79 1.52-5.68 1.11-11.25 2.11-2.23 0-2.23 1.17l.12.59q.53 2.69 2.34 3.98 1.23-.12 2.58-1.29 3.93-2.28 8.44-2.87l1.82-.23 7.67-1.12q.3 1.06.3 2.87 0 2.23-.47 4.28-.47 2.05-1.35 3.4-2.11 1-4.45 1-3.17 0-7.5-1.94-.53-.17-.47.35 1.34 3.17 4.83 4.78 3.49 1.61 9.11 2.2 1.17.64 2.93.58.65-1.35.47-2.93 1.35-5.86 1.35-10.25 0-2.7-.41-4.57zM90.94 39.32q.47-.64.47-1.35 0-.82-.47-1.46-.65-1.76-.65-3.34 0-.88.18-1.82-.12-.47-.35-.47-4.75 2.82-5.63 7.5.65.53 1.91.79 1.26.27 2.78.27l1.76-.12zm65.74-10.78l1.76.12 1.76-.12q7.55-1 15.35-3.4.58-.76.58-2.05 0-1.29-.58-2.52v-.18q0-.64-.47-1.11-3.93.7-7.97.82-5.1.29-7.85.29-2.76 0-3.52-.05-.64.99-.64 2.34 0 1.64 1.17 4.63l.41 1.23zm-15.35 9.96q-1.41 0-1.88.82-.06 3.34 2 5.98.99-.06 1.99-1.06 4.51-1.76 10.43-2.11 1.46-.35 4.57-.35.17 1.64-.76 3.25-.94 1.61-3.11 4.02-4.69 3.92-8.67 3.63-.65.64-.65 1.17 0 .41.24.65.58.88.88 1.7 1.76 2.75 3.04 4.21 4.05-2.05 8.71-2.93 4.65-.87 12.15-1.28.88-1.65.94-3.99.12-1.58 1.99-2.34 1.59-.24 2.82.82 1.23 1.05 1.17 2.46-.41 1.58-1.99 2.05l-2.93 1q3.92 4.57 9.84 4.86.35-1 .35-1.99 0-1.82-.97-3.93-.96-2.11-2.66-4.1-2.29-2.64-5.63-3.4-1.99-.12-3.51 1.06-1.94 1.4-4.13 1.84-2.2.44-6.18.5 2.22-4.16 5.21-7 2.99-2.84 6.62-3.55.47-.06 2.17-.06 7.67 0 14.71 2.76h.17q1 0 1-1 0-.41-.12-.88-.7-3.63-3.51-6.21-2.64-.12-5.98.35-19.98.82-38.32 3.05zm88.59-17.58q.29-.76.29-1.35 0-1.28-.82-2.81-.82-1.52-2.05-2.75l-1.46-1.58q-.82-.82-1.93-.77-2.52 2.7-2.52 4.81 0 2.05 2.52 3.16 2.51 1.47 5.97 1.29zm1.41 28.48q.23-.53.82-.59 5.51 0 8.58.35 3.08.36 6.07 1.64.52.18.93 0 .24-.52.24-1.52 0-1.7-.97-3.81-.96-2.11-1.84-2.63l-3.4.35-10.67 1.4q0-1.64-.7-2.93l-.47-.7q3.17-2.58 5.86-6.56.82-.47 1.76-.47l.7.06 1.23.12q.94 0 1.82-.18 2.64.23 5.51-1.64-1.35-4.04-5.16-6.5-3.81-2.47-8.79-2.88-2.52-.05-4.83.59-2.32.64-6.42 2.23l-1.52.58q-3.05 1.29-5.51 1.64l-2.58.94q.12 2.11 1.64 2.46.24.12.47.12.53 0 .94-.59 2.75-.88 6.44-1.4 4.34-1 8.91-3.17 1.76-.76 3.75-.76 3.57 0 5.16 2.4.41 1.47.47 2.93-2.7 1.47-5.45 1.47-1.35 0-2.99-.41-3.63.29-7.56 1.46-4.98 1.47-7.32 2.05-2 .65-2.93 1.41.46 1.52 1.69 2.4l2.29 2.05.47.12q.76 0 1.17-.76.47-.82 1.29-1.94 3.81-4.16 6.5-4.16 1.35 0 2.41.88-.3 2.17-2.17 3.58-1.88 1.4-4.28 1.46-.35.35 0 .82 1.47.59 1.88 1.29 1.17 1.17 1.52 3.17-4.4 1.05-8.79 1.52-5.68 1.11-11.25 2.11-2.23 0-2.23 1.17l.12.59q.53 2.69 2.34 3.98 1.23-.12 2.58-1.29 3.93-2.28 8.44-2.87l1.82-.23 7.67-1.12q.3 1.06.3 2.87 0 2.23-.47 4.28-.47 2.05-1.35 3.4-2.11 1-4.45 1-3.17 0-7.5-1.94-.53-.17-.47.35 1.34 3.17 4.83 4.78 3.49 1.61 9.11 2.2 1.17.64 2.93.58.65-1.35.47-2.93 1.35-5.86 1.35-10.25 0-2.7-.41-4.57zm-20.39-10.08q.47-.64.47-1.35 0-.82-.47-1.46-.65-1.76-.65-3.34 0-.88.18-1.82-.12-.47-.35-.47-4.75 2.82-5.63 7.5.65.53 1.91.79 1.26.27 2.78.27l1.76-.12zm76.4-27.42q-.11-.65-.52-.65-.18 0-.53.18-1.17.88-1.82 2.26-.64 1.37-.64 2.84 0 1.23.47 2.28 2.52 1.64 5.68 1.64 1 0 1.82-.11.47-.65.47-1.47 0-2.05-2.58-4.16-1.29-.64-1.85-1.23-.55-.59-.5-1.58zm1.18 28.24q0 1.23-.36 2.58-1.05.53-2.34.53-.76 0-1.52-.18.17-1.35 1.05-3.52 1-.17 2.81-.93 3.52-1.06 6.51-1.82 3.28-.82 5.8-2.87.12-.29 0-.59-.76-2.46-2.7-2.46l-5.62 1.47-2.81.76h-.12q-.24 0-.35-.35.7-3.28 3.07-4.87 2.38-1.58 6.01-1.58 1.82 0 4.16.47l.35.06q.65 0 .82-.64-.64-2.82-2.69-5.86-.18-.24-.47-.24-.24 0-.47.24l-3.28.76q-7.62 1.81-11.46 2.49-3.84.67-7.12.67-2.52 0-4.39-.41-.76.59-.76 1.64 0 .35.29 1.64-.29 4.63-1.73 9.17-1.43 4.54-4.25 10.4-2.34 4.22-5.5 7.85-1.35 1.88-4.69 5.75-.06.58.23.58 7.09-.47 11.96-6.79-.06-1.06-.36-2.46 1.12-5.86 4.81-12.08 1.81-5.03 2.93-10.42 1.7-1 3.69-1 2.99 0 4.86-.41.41.06.47.58l-.76 2.99-.76 2.99q-1.29.41-2.93.41-1.52 0-2.58-.41-.82.47-.82 1.93 0 1 .41 2.08.41 1.09 1 1.85.47.12.58.12.82 0 1.88-.71-1.53 3.64-4.46 5.63-.05.76.71 2.14.76 1.38 1.76 2.2 1.05.05 2.34-.94 2.69-.88 5.98-1.41.64.29.64 1.53 0 .64-.18 1.52-6.27 1.7-12.3 2.34-2.46.53-3.98 1.53-.36.52-.36 1.23 0 .58.24 1.08.23.5.7.62 1 .05 2.93-.94 5.86-.76 12.77-1.99.82 5.56 1.06 10.95-.24.88-.24 1.64 0 .24.12.59.76.41 1.76.41.64 0 1.41-.18.46-.29.58-.93l-.23-2.17q-.47-4.86-.47-6.33 0-1.87.35-3.28.35-1.11.59-1.17 1.99-.47 3.86-.47 2.23 0 4.54.38 2.32.38 7.18 1.38h.12q.47 0 .47-.65 0-.64-.35-1.58-.24-.76-1.64-4.1-.3-.41-.71-.47-7.15 1.52-13.71 1.64v-2.58q1.06-.7 2.81-1.05 1.88-.47 3.64-1.53.17-.29.17-.76 0-.64-.64-2.28-.24-.35-.59-.35l-5.39.93h-.12q-.23 0-.23-.17 0-.18.18-.53l.64-1.29q.18-.18 0-.59l-3.98-.93q-.88.06-.88.99 0 .35.06.53zm57.65-14.88v.12q0 .23.12.29.12.06.35-.06 2.64-1.41 5.63-3.87 1.64-1.35 3.86-1.99.47-1.05.47-1.7 0-1.64-1.99-2.75-1.41-.59-2.52-.59l-1 .12q-1.29 1.46-1.75 2.93-1.76 4.45-3.17 7.5zm14.3 14.76q.64 0 .7-.58-.06-1.17.59-5.86.88-3.22 3.4-7.5.29-.18.29-.35 0-.24-.53-.47-2.58-.94-5.62-.94-3.05 0-6.68 1.17-4.4 1.23-8.44 1.76-1.29.35-1.52.35-1.12-.88-2.7-.88-.64.06-3.4-.06-.11-1.4-1.29-1.99.18-.58 0-.47 2.64-2.57 6.33-3.51.47-.47.47-1.06 0-.7-.82-2.22-.18-.06-.64-.06-1.06 0-1.82.58-1.23.82-2.11 1.12-5.63 3.45-11.48 5.86-.77.52-.47.7 1.52.41 3.63.47.94.23 1.52.23 1.41 0 2.7-.7.29 1 .29 1.46 0 .41-.29 1.12-5.45 3.4-12.78 4.57l-.05.53q0 1.34.85 2.37.85 1.02 2.08 1.02.41 0 .52-.05 3.28-3.11 9.03-3.75-1.41 2.51-3.52 4.04-.82.53-3.98 2.87-1.64 1.52-2.23 3.16.41.24 1.05.24 1.12 0 2.47-1.17 2.16-2 3.51-2.82 1.35-.82 3.17-1.17.17 3.4-1.41 5.51-1.58 1.58-3.99 1.87-1.93.59-6.26 2.05l-3.11 1q-1.76.06-2.7 1.64.36 1.64.59 2.35.18.58.59 1.05 1.17.06 2.46-1.05 3.57-1.94 9.96-3.64-1.64 2.35-1.88 3.64.82.87 1.88.87.35 0 .47-.05.7.05 1.87.41.82.41.71.41-5.1 3.92-11.02 4.21 2.4 1.88 5.45 1.88 1.93 0 3.92-.7.53-2.76 3.87-4.46 3.52 2.52 6.1 5.86.23.41 1.17.41 1.05-.47 1.05-1.87 0-1.64-1.29-4.28 4.87-1.35 6.57-3.75 1.17-4.28 4.57-9.96 2.75-.47 5.27-.82 1-.12 2.93-.59zm-6.21-9.14q.29-1.17.35-2.46.76-.41 1.76-.41.99 0 1.76.29.76 1.7.76 3.75 0 2-.76 3.75-1.06 1.94-4.69 2.11.11-1.52.47-2.81 1.11-.23 2.22-.94.76-.76.76-1.93 0-.47-.05-.64l-.24-.94q-1.29-.12-2.34.23zm-3.87 5.28q.06.11.06.47 0 1.11-.76 1.87-.76.59-1.41.59-.64 0-1.29-.71-.94-2.46-.94-4.74 0-1.76.59-3.11.76-.76 4.22-1.52 0 1.87-.12 2.46-1.76.29-2.69.58-.53 1.59-.47 2.58.53 1.64 1.93 1.64.53 0 .88-.11zm-7.73-6.45q.82 5.92 1.99 10.9.41 1.64 2.46 1.64 1 0 1.76-.23-3.23 7.73-9.14 12.07-1.88-.24-3.05-1.06.47-1.7 1.99-3.63 3.81-4.69 3.52-8.79-.94-.47-1.82-.47-.82 0-1.46.47l-.36 1.52q-1.28.06-1.87.47-.82-.7-.64-1.99.05-.23.29-2.58.29-.23.7-.35l3.75 1.41q.76.35.82 0 .41-.77.41-1.76 0-.53-.29-1.53-.41-.82-1.52-.93-1.76-.53-3.64-1.76-.47-1.88 3.64-2.46.93-.29 1.99-1.52.06-.06.17-.06.18 0 .3.64zm27.07 13.13q-.06-.06-.3-.06-.29 0-.41.29.59 2.11.82 4.81.36 2.1.36 3.75 0 4.04-2.32 5.8-2.31 1.75-7.65 1.75-6.68 0-7.14-5.09 4.04-1.94 8.9-3.17l1.53 2.58q.46.47 1.05.59 1.88-.82 2.23-3.64-1.59-2.4-4.22-3.86-.47-.18-.82-.18-.59 0-.71.64.06 1.12.47 1.88l-2.93.47q1.23-3.75 4.46-6.8.29-.53-.12-.7-1.17-.82-2.17-.82l-.76.12q-.23 1.23-1.49 3.39-1.26 2.17-2.61 3.7-1.47 1.52-2.35 1.11.36-2.81 2.35-5.86-.88-1.06-1.76-1.06-.12 0-.59.12-.93 1.23-1.87 2.93-1.76 3.58-1.76 6.86 0 4.22 2.7 7.79 1.52 1.82 3.54 2.49 2.02.67 5.01.67l2.64-.11 2.4-.06q3.11-.18 6.56-.71.71-.17.59-1.17.06-3.51-.15-5.68-.2-2.17-.67-4.81-.41-3.8-2.81-7.96zm-33.05 3.51q.47.12.47.59-1.06 2.05-2.93 4.57-2.11-.24-2.93-1.41.12-1.35.94-1.99l4.45-1.76zm56.48-28.01q-.29-.17-.58 0-3.99 8.62-8.79 15.94-3.52 4.57-7.97 9.26-.53.64-.35 1.29.64.82 1.7.82.82 0 1.73-.5.9-.5 2.43-1.61l3.87-2.93q1.4 3.4 1.4 8.32 0 1.35-.23 4.57l-.06 1.23-.18 1.93-.93 5.22v.7q1.17.65 2.63.65 1.76 0 2.05-1.35v-6.39q.53-.53 2.23-.94 2.75-.52 4.92-2.34.41-.35.7 0 .36 1.76 2 2.81.06.06.41.06.58 0 1.46-.53 2.23-.35 4.92-.35.53 0 .59.35v6.86q-.82 1.76-2.11 1.99-.18.24 0 .47 1.82 1.29 3.93 1.29 1.34 0 1.93-.59-.12-1.52-.12-3.45 0-4.05.59-7.5.35-.76 1.64-.82.64-.06 2.46-.24l2.7-.35q-.12-1.05-.71-1.99-.17-1-.73-1.44-.56-.44-1.61-.44-.35 0-1.53.12l-1.4.24q-.47-.06-.59-.47v-7.62q0-.59.71-.59.46 0 1.17.36.7.35 1.17.82l1.82 1.93q1.52 1.64 2.37 3.28.85 1.64.85 3.11 0 .87-.24 1.52.06.59.59.7l2.81.71q5.57 1.64 8.44 1.75.23.06.94.06 1.64 0 2.81-.64.29-.12.29-.3 0-.41-1.11-1.11l-2.58-1.41q-5.04-2.87-7.59-4.59-2.55-1.73-5.12-4.49-2.76-2.75-4.87-6.97l-.93-2.58q1.11-.76 2.87-.76 1.05 0 2.81.29 1.99.47 2.17.47.52.18.82.18 1.11 0 1.17-1.58-.88-1.82-2.46-3.75 0-.82-.47-.94-2.34.23-5.04.94-.53 0-.82.05-.29.06-.82.06-1 0-1.17-.58 0-4.05.53-6.27.46-1.94 1.34-3.46.18-.29 0-.47-3.04-1.58-6.56-2.11-.35.06-.35.59.35 1.4.35 2.46l-.35 10.08q-.29 1.46-4.92 1.87-3.75 1.12-7.03 1.06-.24 3.69 1.87 6.44 1.17-.29 2.11-1.4 1.29-.41 3.28-1.23.88-.36 1.29-.36.59 0 .47.53-3.81 8.67-10.43 14.77l-3.63 3.16h-.24q.12-3.51.71-7.62.23-2.52 1.17-5.5-.12-.82-.82-1.47-.76-.64-1.03-1.14-.26-.5-.26-1.2 0-1.53 1.23-3.99t3.05-4.86q1.7-2.17 3.1-3.16-1.11-2.64-3.87-4.93zm4.57 32.7v-.35l7.97-9.49q.18-.36.74-.62.55-.26.67.03v8.09q-.23 1.11-2.75 1.58-3.11.52-6.63.76z"/></svg>