<svg viewBox="0 0 624 80" xmlns="http://www.w3.org/2000/svg"><path d="M29.08 20.46q.72 0 1.77.93t2.67 2.55q.6 1.86 1.23 4.29.63 2.43.63 3.69v8.46q0 2.16-.63 6.51t-1.89 7.8q-1.26 3.45-3.06 3.45-3.42 0-4.02-2.28.36-.9 1.26-.9.54 0 1.08.18 2.52-1.38 3.6-5.97t1.08-8.79v-4.26q0-4.44-1.05-7.53t-4.11-5.37l-.42-1.14q0-.72.57-1.17.57-.45 1.29-.45zm-9.66 13.08q2.1 0 2.94 3.63.84 3.63.84 6.93 0 1.14-.93 1.74-.93.6-2.13.6-1.86 0-3.03-1.53-1.17-1.53-1.17-3.39 0-2.82.69-5.4.69-2.58 2.79-2.58zm25.8 1.44q1.74 0 3.36 1.68 1.62 1.68 2.64 3.99 1.02 2.31 1.02 3.93 0 1.2-1.14 2.25t-2.34 1.05q-2.64 0-3.78-4.5-.96-1.68-1.65-3.09t-.69-2.31q0-1.32.63-2.16.63-.84 1.95-.84zm33.3-10.32q-1.32-.78-2.16-1.95-.84-1.17-.84-2.55 0-1.2.87-1.98t2.13-.78q.84 0 1.65.48.81.48 1.41 1.14.48 0 1.98 1.26t2.28 2.04q4.08 1.2 11.4 1.2l6.6-.06q.18 0 .33.27.15.27.15.45 0 .42-1.65.81-1.65.39-2.31.39-.9.06-2.58.42-2.16.48-3.3.48-5.64 0-8.16.48l-1.26-.24q-3.12-.66-4.83-1.08-1.71-.42-1.71-.78zm22.74 12.66q0 2.82-1.62 2.82 0 1.32-2.1 1.86-1.08.6-6.69 1.71-5.61 1.11-6.45 1.11-2.88 0-3.66-2.94-.78-2.94-.78-6.9 0-2.28.87-4.44.87-2.16 2.91-2.16 1.92 0 2.76 2.16 3.48 0 6 .24t4.89 1.32q2.37 1.08 3.69 3.3 0 .48.09.96t.09.96zm-4.68 2.1h1.92q0-.78-1.02-1.89-1.02-1.11-2.04-1.89-1.86-.42-6.12-.42-.6 0-1.56.27-.96.27-1.44.63 0 2.1-.3 2.82 1.74 0 5.34.24 3.48.24 5.22.24zm.48 6.78q1.74 0 2.52 1.65t.78 3.51q0 1.38-1.08 2.46t-2.46 1.08q-1.26 0-2.07-.93-.81-.93-1.17-2.37.54-2.34 1.26-3.87.72-1.53 2.22-1.53zm14.76 10.08l.72.72q0 .72-1.38.72-2.7 0-7.62.48-.72.12-2.28.24-1.38.18-2.43.24-1.05.06-1.71.12-.54.06-2.82.21t-4.26.57q-.6 0-2.07.33-1.47.33-1.47.63l-2.76.66q-2.28-.48-4.92-1.35-2.64-.87-2.64-1.89-.24-.48-.24-1.2 0-1.2.93-2.13.93-.93 2.19-.93.84 0 1.56.3.72.3 1.68.84-.3-.24-.51-.72-.21-.48-.21-.9 0-2.04.27-4.17t1.17-2.13q.96-.48 1.62-.48 1.5 0 2.16 1.2.66 1.2.78 2.49.12 1.29.12 3.33 0 .6-.57 1.05-.57.45-1.53 1.05v.3l1.74.12q3.18.3 5.76.3 1.5 0 4.5-.24.72-.06 2.04-.12t2.34-.06q1.14 0 2.64.06 1.5.06 2.28.12 3.24.24 4.92.24zm56.1-16.62q4.44 0 4.44 5.16 0 2.7-.87 5.55-.87 2.85-2.49 6.63-.96 2.4-1.8 4.68h-.96q-.24-.24-.24-.72l.96-5.58-.24-.48q1.38-4.74 1.38-9.6 0-1.08-.42-1.92-2.4 0-4.86 1.11-2.46 1.11-5.88 3.27-3.54 2.22-5.7 3.12.54.84.69 1.71.15.87.21 2.43 0 1.92.3 2.7l1.5-.66q1.92-.84 2.94-1.02 0-2.46.48-4.02.48-1.56 2.34-1.56 1.5 0 2.4 1.74.9 1.74 1.26 3.93.36 2.19.36 3.69t-.9 2.73q-.9 1.23-2.4 1.23-1.62 0-2.46-1.14-.84-1.14-1.08-2.82-.42.24-.84.45-.42.21-.72.39-3.9 2.1-6.6 3.21-2.7 1.11-5.46 1.11-.84 0-2.85-.54-2.01-.54-2.01-1.14-2.16-1.8-2.16-5.34 0-1.2.72-2.37.72-1.17 1.86-1.17 1.08 0 1.65 1.35.57 1.35.93 3.09 1.98 1.02 2.82 1.2l2.34-.24v-.24q-.48 0-.69-2.13-.21-2.13-.21-3.27v-2.34q-1.68 0-3.03-1.26-1.35-1.26-2.1-3.06t-.75-3.42q0-5.1.9-8.88l-.42.18q-3.3-.48-3.3-2.28 0-.42.51-.99.51-.57 1.71-1.65 2.04-1.86 3.45-3.45 1.41-1.59 2.31-3.81.12-.3.42-.96.3-.66.3-1.14 0-.9-.36-2.46t-.36-2.22q0-1.2.78-2.01.78-.81 2.04-.81 1.02 0 1.92.99.9.99.9 2.07 0 3.12-.45 5.07-.45 1.95-1.95 4.29h.3q3.48-1.62 7.92-1.62.78 0 2.4.51 1.62.51 1.62 1.11 1.86 1.62 1.86 4.92 0 3.12-1.74 5.67t-4.86 5.67l-.9.9h-.48l-.48-.72q.42-.6.78-1.02.36-.42.66-.84-.48.18-1.44.18-.72 0-2.22-1.08-1.5-1.08-1.74-1.26-.9 0-1.86-1.08-.96-1.08-.96-1.98 0-2.52 3.72-3 .3-.24.96-.24 1.14 0 2.28.78t1.92 1.8l.72 2.76h.24l.42-1.32q.6-1.86.9-3.03.3-1.17.3-2.43 0-2.1-1.05-2.58t-2.37-.45q-1.32.03-1.74.03-1.92 0-5.31 2.28-3.39 2.28-5.91 4.5 1.56.06 2.25 1.77t1.23 4.89q.42 2.4.78 3.51.36 1.11 1.14 1.11.48.18 1.14.18 1.8 0 7.59-2.13t10.23-3.93q.96 0 1.44-.24zm41.46-20.16q2.4 0 3.6 1.23 1.2 1.23 1.53 2.94.33 1.71.51 4.47-.48 1.08-.69 2.31-.21 1.23-.51 3.57l-.48.24h-.66q-.36-.6-.51-1.26-.15-.66-.27-1.44-.12-.78-.18-1.32-3.06 1.56-7.74 2.88v3.24h3.06q1.14 0 3.06-.48.18.18.33.45.15.27.15.51 0 .72-2.58 1.86-2.58 1.14-4.26 1.68-.24 1.14-.24 3.24h.24q.78 0 3.81-.93 3.03-.93 4.17-1.41h.48l.48.24v.72q-3.12 2.34-5.82 4.02-2.7 1.68-5.22 2.28 0 .42-1.38.87t-3.06.75q-1.68.3-2.1.3-1.44 0-2.37-.84-.93-.84-.93-2.28 0-1.56 1.35-2.34 1.35-.78 3.27-.78 1.08 0 2.4.36.54-.12 1.59-.27 1.05-.15 1.71-.45V40.8q-1.44.3-2.76.72-1.44.42-2.97.78-1.53.36-2.49.36-1.5 0-2.31-.87t-.93-2.37q.18-.48.18-1.62-1.44 0-2.01-.99-.57-.99-.75-2.55-.48-.48-.72-3.99-.24-3.51-.24-5.43 0-1.44.21-2.91.21-1.47.93-1.47.24-.3 1.2-.3.84 0 1.5.54t1.08 1.38q0-.3 1.11-.57 1.11-.27 1.47-.39 4.2-.78 8.22-1.38.66-.24 2.1-.24h4.44zm26.94 2.82q1.62 0 3.03 1.32 1.41 1.32 1.41 2.88 0 1.38-.93 2.34t-2.31.96q-1.8 0-3-1.74t-1.2-3.66q0-.96.99-1.53.99-.57 2.01-.57zm-34.44.9l.72 3.06h.24q.48-1.38 1.32-2.46.84-1.08 1.92-1.08 1.44 0 2.1 1.23.66 1.23.66 2.91 0 1.02-.18 1.74 1.92 0 2.58-.24 0-1.74-.39-3.36-.39-1.62-1.47-2.28h-4.92q-.96 0-1.53.09-.57.09-1.05.39zm26.04 0q2.1 0 2.1 5.88 0 .84-.36 2.88-.36 2.16-.36 3.24 1.32 0 6.84-1.38 4.44-1.14 4.86-1.02l.48.48v.48q-2.82 1.86-5.73 3.06-2.91 1.2-6.45 2.1v.24q0 .3.33 1.71t.39 1.77q0 2.34-.72 5.94-.72 3.6-2.07 6.69-1.35 3.09-3.09 4.05h-.72q-.84 0-1.8-.54-.96-.54-.96-1.32-.18-.18-.33-.45-.15-.27-.15-.51 0-.84.3-1.02.3-.18 1.08-.18l.96.48q1.8-.72 2.79-2.91.99-2.19 1.35-4.71.36-2.52.6-6.12l.18-2.64q-1.68.72-4.17 1.17-2.49.45-4.29.45-1.32 0-2.16-1.08-.84-1.08-.84-2.46 0-1.2.99-2.1.99-.9 2.25-.9l1.62.36q2.46.54 2.58.54.24.12.66.12 1.02 0 1.92-.3l.72.18.48-.42q0-1.32-.3-2.82-.3-1.5-.36-1.92-.72-3.12-.72-4.68 0-1.08.54-1.71.54-.63 1.56-.63zm-35.64 4.68q0 .72.09 1.17.09.45.39.75h.48q0-1.68.78-3.09t2.22-1.41q1.44 0 2.25 1.59t.81 3.09h1.2q-.12-.78-1.02-3-.12-.36-.51-1.41-.39-1.05-.39-1.65-2.4.84-4.35 1.8-1.95.96-1.95 2.16zm.96 8.46q.9 0 2.82.24 1.8.24 2.76.24.6 0 1.68-.12.96-.12 1.62-.12-.06-.18-.3-1.17t-.66-1.65q-2.04.96-3.75 1.41-1.71.45-3.75.45l-.42.72zm41.94 5.88q1.62 0 3.27 1.59t2.7 3.78q1.05 2.19 1.05 3.75t-1.05 2.55q-1.05.99-2.67.99-3.06 0-3.54-4.44-1.08-1.92-1.71-3.3-.63-1.38-.63-2.58 0-.9.84-1.62.84-.72 1.74-.72zm-22.02 5.1q1.68 0 3.09 1.5t2.31 3.48v.72q0 1.2-1.02 2.1-1.02.9-2.28.9-1.92 0-2.97-2.04-1.05-2.04-1.05-4.02 0-.84.54-1.74t1.38-.9zm-6.6 1.92q1.38 0 2.58 1.17 1.2 1.17 1.2 2.61 0 1.02-.9 1.89-.9.87-1.92.87-1.38 0-2.22-1.08-.84-1.08-.84-2.4 0-1.38.42-2.22.42-.84 1.68-.84zm-15.9 1.86q1.32 0 2.76 1.08 1.44 1.08 1.44 2.46 0 1.02-.87 1.8t-1.95.78q-1.56 0-2.55-1.2-.99-1.2-.99-2.82 0-.84.63-1.47t1.53-.63zm9.54 0q1.44 0 2.28.93.84.93.84 2.37 0 1.02-.87 1.8t-1.95.78q-1.2 0-2.01-.9-.81-.9-.81-2.16 0-1.26.66-2.04t1.86-.78zm63.12-31.44q5.64 0 5.64 4.5 0 2.22-1.17 4.11-1.17 1.89-3.33 4.41l-1.14 1.32q.3 0 1.38-.33 1.08-.33 1.44-.39 3.72 0 3.72 3.06 0 2.58-2.01 5.07t-5.49 5.61l-1.14 1.02q.24 1.14.24 3.54 0 2.82-.84 5.16-.84 2.34-3.18 2.34-1.32 0-2.16-1.11-.84-1.11-.84-2.43 0-.54.66-1.86-.12-2.28-.12-3.84-.12-5.04-.54-7.2-.3-1.44-1.38-4.44-.84-2.22-1.26-3.69-.42-1.47-.42-2.85 0-.9.63-1.5t1.47-.6q1.56 0 2.61 1.23 1.05 1.23 2.07 3.21h.24q1.2 0 2.67-1.86t2.55-4.26q1.08-2.4 1.08-3.72-.18-.24-.69-.48t-.69-.24q-3 0-7.26 3.3-1.44 2.1-3.72 2.1-1.44 0-2.49-.96-1.05-.96-1.05-2.34 0-1.62 2.79-2.97t6.36-2.13q3.57-.78 5.37-.78zm10.32.72q.96 0 3 1.08 1.2.6 1.68.78 1.44.54 3.96.54l2.64-.06q3.18 0 8.01-.33t6.03-1.05h.72l.42.66q0 .6-2.97 1.44t-3.33.96l-3 .54q-2.46.36-4.05.75-1.59.39-2.55 1.05 0 .42-.51 1.14t-1.11 1.5q-1.02 1.2-1.59 2.16-.57.96-.57 1.74.3 0 1.02-.09t1.32-.15q.48 0 2.28.3 1.8.3 3.27.72t1.47.84q1.74.54 3.12 2.76 1.38 2.22 1.38 4.08 0 3.72-.72 7.26l.24.66q-.06.12-.45 1.02t-.99.9l-.18-.24q-2.94 2.04-6.99 3.48-4.05 1.44-7.11 1.44-1.5 0-2.7-.9-1.2-.9-1.98-2.4 0-.66-.42-1.32t-1.02-1.02q-.18-.48-.18-1.44l.66-6.06-.18-.48q.06-.36.27-3.21.21-2.85 1.08-5.31.87-2.46 2.37-2.46.84 0 1.14.48.96-.42 1.38-1.17.42-.75.96-2.19.3-1.02.72-1.8-3.96 0-6.06.18-4.26-.96-4.26-3.72 0-1.32 1.14-2.19 1.14-.87 2.64-.87zm3.96 20.64q1.5 0 2.46.15t1.74.75q4.2 0 7.08-.66l.72.48v.9q-1.62 1.32-3.78 2.16 0 .42-1.8.84t-3.78.69q-1.98.27-2.88.33v2.34q2.1.84 3.06.84.54 0 .96-.18.18.18.63.33.45.15.75.15 1.38 0 4.38-.84.9-.3 1.98-.54.48.24 1.38.24.12 0 .36-.12t.36-.12v-.48q0-1.38-.3-3.48t-.66-3.54q-.42-2.34-2.73-3.18-2.31-.84-5.19-.84-1.74 0-3.24 1.05-1.5 1.05-1.5 2.73zm-17.34-.48q.72 1.8.72 3.54.36-.42 1.5-1.77 1.14-1.35 1.92-2.67.78-1.32.78-2.16-1.8.6-3.12 1.26t-1.8 1.56v.24zm77.4-25.26q2.46 0 5.91 1.32t5.94 3.48q2.49 2.16 2.49 4.56 0 .66-.48 2.67t-.96 2.01l-.48.24q-.72 0-1.05-1.35-.33-1.35-.33-2.37-1.62-3.18-4.41-5.1-2.79-1.92-6.15-1.92h-5.16q-3.36 0-7.98 1.62-2.82 5.22-2.82 7.98l-.18.9.18.48q-.18 1.26-.81 2.16-.63.9-1.77.9-1.08 0-1.59-1.26t-.51-2.52q0-.84 1.8-5.1.36-.78 1.02-2.58.9-2.22 1.86-3.27.96-1.05 2.01-1.44 1.05-.39 3.09-.69 1.68-.24 2.7-.48.66-.24 2.28-.24h5.4zm-6.78 7.5q.9 0 1.62.84.72.84.72 1.74 0 .72-.36 2.28-.3 1.8-.3 2.16.36 0 .78-.12.42-.12.84-.12 1.56 0 4.17.33t2.61 1.11q.84 0 1.47.72t.63 1.62q0 .66-.66 1.14-.66.48-1.44.72-.72 1.2-5.88 1.2-.3 0-1.08-.24t-1.26-.48v4.68q.42 1.2 1.17 2.01.75.81 1.89.81 0 .12.3.24t.42.24q1.62.36 5.04.6 2.46.12 3.66.3 2.58.54 4.56 2.94 1.98 2.4 1.98 5.04 0 2.28-1.23 4.95-1.23 2.67-3.3 4.5t-4.41 1.83h-2.1q-.36-.18-.54-.6-.18-.42-.18-.84 0-.48.6-1.05.6-.57 1.08-.81.54-.84 1.62-1.92 1.32-1.38 1.95-2.37.63-.99.63-2.25 0-1.32-.9-2.01-.9-.69-2.28-.99-1.38-.3-3.9-.6-3.9-.48-6.42-1.2t-4.35-2.85q-1.83-2.13-1.83-6.21 0-2.1.24-3.06l-.24-.48q0-4.38.78-8.4.78-4.02 3.18-5.4h.72zm-7.5 30.96q2.16 0 5.28.36 3.24.36 5.16.36l1.74-.06q1.44 0 1.86.24.12 0 .36-.12t.36-.12q.72 0 1.2.6t.48 1.32q0 1.2-1.95 2.31t-4.47 1.86q-2.52.75-3.72.75-.78 0-4.95-.96t-5.31-1.38q-.12-.12-.42-.33-.3-.21-.3-.39-.96-.96-.96-1.86 0-1.08 1.35-1.83t2.73-.75q.48 0 1.08.24l.48-.24zm66.78-43.92q.9 0 2.07.75t2.01 1.83q.84 1.08.84 2.1 0 1.26-1.02 2.16-1.02.9-2.28.9-1.56 0-2.88-1.53-1.32-1.53-1.32-3.15 0-1.14.72-2.1.72-.96 1.86-.96zm-8.94 6.6q7.5 2.46 11.49 3.24 3.99.78 10.11.78l3.54-.06.42.72q0 .42-1.74.78-1.74.36-2.46.36-.6.54-2.64.75-2.04.21-5.22.33-.66.06-2.16.15t-2.16.21v.18q.78 1.02 1.2 1.77.42.75.42 1.53-.12.42-.51 1.71t-.39 1.59q.78.3 2.94.3l3.12-.06v-.24q-1.2 0-1.89-.87t-.69-2.19q0-1.32 1.08-2.07 1.08-.75 2.46-.75 2.4 0 2.82 2.82-.24 1.08-.84 1.95-.6.87-1.56.87v.24l2.4.06q1.44 0 2.34-.3.12 0 .69.24t.69.24q1.14 0 2.61-.18t1.89-.24q1.5-.24 2.04-.3 0 .12.15.36t.15.36q0 .48-1.8.96t-2.46.48l-1.44.24q-4.38.78-7.53 1.2-3.15.42-6.27.42-.66-.24-2.52-.24-1.5 0-4.02.12l-2.16.12q-2.58 0-5.13-.93T375.64 30q0-.78.72-1.32t1.62-.78q3.36 1.2 5.52 1.65 2.16.45 5.22.45-.12-1.5-.93-2.85t-2.55-3.69q-.24-.06-1.98-.36t-3.18-.96q-1.44-.66-1.44-1.5-.18-.24-.3-.57-.12-.33-.12-.57 0-1.32.78-1.98.78-.66 2.22-1.08zm6.84 19.68q1.08 0 1.62 1.62 1.26-1.08 3-1.35t4.26-.27q3.6 0 4.92 1.62 1.68.96 2.61 2.97.93 2.01.93 4.11 0 .3-.54 2.01-.54 1.71-.9 2.67l-.42.18q0 2.16-1.2 3.09-1.2.93-3.48.93-2.22 0-5.4-.39t-5.76-1.44q-2.58-1.05-2.7-2.85 0-.6-.72-2.58.12-.36.48-2.82.36-3.42 1.05-5.46.69-2.04 2.25-2.04zm3.72 6.12q3.78 0 8.7.42 0-.6-.78-1.11-.78-.51-1.56-.75h-1.44q-3.12 0-4.92 1.14v.3zm.24 4.2q-.66 0-2.1-.48v1.14q1.44.48 2.58.48l7.98-.9q.36.18.81.33.45.15.81.33h.24q-.3-.48-.66-1.11-.36-.63-.72-1.41-1.5.3-2.4.6-.36.06-1.68.39-1.32.33-2.55.48-1.23.15-2.31.15zm-5.82 8.64q1.26 0 1.86.96.6.96 1.2 2.94.6 1.8 1.11 2.85.51 1.05 1.53 1.83t2.7.78q.3.18.72.27.42.09.66.21l3.3-.42q.36-.06 1.8-.21t2.88-.51q.72.36.72.96-.36.72-2.37 1.65-2.01.93-2.31 1.11 0 .48-1.77.96t-2.43.48h-2.1q-4.08 0-6.57-3.12t-3.33-7.68v-.48q0-1.08.66-1.83t1.74-.75zm24.36.24q1.44 0 2.46.96t1.02 2.34q0 1.38-.93 2.31-.93.93-2.31.93-1.92 0-3.18-1.23-1.26-1.23-1.26-3.15 0-1.08 1.44-1.62t2.76-.54zm-32.1.48q1.26 0 1.92 1.53.66 1.53.66 2.91.18.48.18 1.62 0 1.08-.75 1.83t-1.83.75q-1.2 0-1.98-.78t-.78-1.98q0-1.8.6-3.84t1.98-2.04zm15.24.48q.36.12 2.58.66t4.14 1.26q1.92.72 1.92 1.38 0 .9-1.86 1.59-1.86.69-3.06.69-1.74 0-3.57-1.17-1.83-1.17-1.83-2.79 0-.6.51-1.2t1.17-.42zm56.7-35.64q1.02 0 1.8.45t.78 1.41q.3.72.81 1.47t1.05 1.47l1.14 1.56q.72 7.02.72 14.04 0 2.46-.9 6.6t-2.64 7.32q-1.74 3.18-4.2 3.18-1.26 0-1.68-.51-.42-.51-.6-1.29t-.3-1.26q.18-.36.51-.63t.69-.27q.12 0 .57.21.45.21.57.21 3.12-1.2 4.26-6.18 1.14-4.98 1.14-9.96 0-5.16-.99-8.31-.99-3.15-4.17-6.45-.24-.24-.45-.63-.21-.39-.21-.57 0-.84.6-1.35.6-.51 1.5-.51zM470.56 27q1.08 0 1.83 1.2t.99 2.52q-1.26 5.88-8.22 9.12v.24q1.86 3.12 4.23 4.92 2.37 1.8 5.61 2.1 3.3.36 3.3 3.78 0 1.2-.93 2.13-.93.93-2.13.93-.48.24-1.62.24-3.6 0-7.44-3.06-3.84-3.06-6.42-7.41t-2.58-7.83q0-.72.48-1.29.48-.57 1.2-.57 1.2 0 4.44 3.24 2.52-1.86 3.93-3.3 1.41-1.44 1.41-3.24-.36-.24-.9-1.14.36-2.58 2.82-2.58zm-31.68 6.06q4.68 0 7.86 1.23 3.18 1.23 3.18 5.13 0 1.38-1.05 3.27-1.05 1.89-2.61 3.27-1.56 1.38-2.94 1.38-1.32 1.62-5.58 3.54l-.48-.72 1.68-1.98q2.46-2.88 3.78-4.65 1.32-1.77 1.56-3.21-.78-.18-2.88-.33-2.1-.15-3.42-.15-1.92.48-2.82.48-1.74 0-2.64-.84-.9-.84-.9-2.46 0-2.16 2.31-3.06 2.31-.9 4.95-.9zm57.42-22.44q1.26 0 1.95 1.26t1.35 3.18q1.2-1.2 5.67-2.04 4.47-.84 9.63-1.29 5.16-.45 7.92-.45 7.26 0 7.74 2.58.3.48.36 1.17t.06 1.41q0 1.08-1.29 2.43t-2.34 2.19q-1.05.84-1.23 1.02h-.24l-.72-.72q-.84 0-1.92.84-.72.66-1.38.78-1.14.42-3.66 1.02l-2.88.84q-.24.72-.24 1.92.48-.24 1.14-.24.24 0 .6.12t.6.12l3.3-.72h.24q.42 0 .54.36.12.36.12 1.08-1.08.9-3.6 2.22l-1.08.54q-1.98.24-2.73.93-.75.69-1.53 2.43l-.9 1.8-.24.48q1.56-.36 2.34-.48 4.8-1.14 7.56-1.14.84 0 1.35.51.51.51.51 1.35 0 1.2-1.44 2.4t-3.36 2.07q-1.92.87-3.18 1.17l-.24-.24q-.54.12-1.53.3t-2.01.18q-3.12 0-6.09-.72-2.97-.72-4.23-2.58v-.9q0-.6 1.05-.99t2.19-.39q.78 0 1.02.18 2.22 0 3.06-.24.84-.24 1.11-.9.27-.66.57-2.52l.18-1.26q-1.2.72-4.44.72-1.02 0-1.8-.93t-.78-1.89q0-1.08.93-1.59t2.31-.75q.36-.18.84-.18t.84.18l.18-.24q.18 0 .78.21.6.21.9.27 1.2 0 1.53-.3.33-.3.33-1.32-1.02.12-3.06.6l-2.13.42q-1.83.36-3.45.36-.84 0-1.83-.3-.99-.3-.99-.9h-.24q-.3 1.08-.96 2.31-.66 1.23-1.38 1.23-.36 0-.69-.3-.33-.3-.51-.66l.24-1.38q-.12-.6-.24-1.23t-.24-1.29q-.66-3.6-1.23-5.94-.57-2.34-1.59-4.92v-.24q0-1.14.72-2.07.72-.93 1.86-.93zm18.3 3.72q1.14 3.72 1.14 7.26h.3l.42-.24q-.42-1.26-.42-2.1 0-.48.33-1.68t.57-1.62q0-1.44.96-2.1-.42.12-1.62.24-1.2.12-1.68.24zm5.4-.48q1.62 1.32 1.62 2.82 0 1.68-.48 3.48h.3q3.12 0 4.47-1.02 1.35-1.02 1.35-3.84 0-.6-1.53-1.02-1.53-.42-2.43-.42H520zm-12.66 2.1q.12.3.6 1.35t.75 2.01q.27.96.27 1.8 0 .96-.48 1.62h.3q2.28 0 3.48-.42 0-3.42-1.86-6.84v-.42q-.36.06-1.35.3-.99.24-1.71.6zm-7.5 2.34q.48.96.6 2.28.12 1.32.12 3.12.42-.66 1.11-.81.69-.15 1.71-.15-.3-.42-.3-1.62 0-.48.27-1.86.27-1.38.45-1.86l-.24-.24q-.3.06-1.53.3t-2.19.84zm28.56 21.84q2.64 0 4.86 1.11t2.22 3.33q0 1.5-.9 2.31t-2.4.99q-2.76-.54-5.37-1.86-2.61-1.32-2.61-3.3 0-1.38 1.29-1.98 1.29-.6 2.91-.6zm-12.36 2.34q1.56 0 2.52.51t1.44 1.83v1.14q0 1.2-.78 1.89t-2.04.69q-1.5 0-2.4-1.32-.9-1.32-.9-2.88 0-.72.72-1.29.72-.57 1.44-.57zm-9.66.72q1.86 0 3.06.72t1.2 2.52q0 1.2-1.02 2.01-1.02.81-2.28.81-1.32 0-2.64-1.05t-1.32-2.25q0-.96.84-1.65t1.92-1.11h.24zm-10.98 1.38q1.74.84 3 1.77t1.92 2.19v.48q0 .54-.45.99-.45.45-.99.45-1.62 0-3.15-1.26-1.53-1.26-1.53-2.76v-.96q0-.3.42-.6t.78-.3zm17.82 2.82q1.08 0 2.04 1.35t1.56 3.12q.6 1.77.6 2.79l.48.24q1.38 0 3.18-.54 1.8-.54 2.22-.66l.72.72q-.48.48-1.5.99t-2.04.93q-1.38.6-2.13.99t-.93.81v3.3h1.2l2.16-.36q3.84-.54 4.14-.78 1.02.18 1.32.54.3.36.3 1.32-.66 1.44-2.67 2.79t-4.44 2.19q-2.43.84-4.11.84h-3.78q-1.92 0-3.66-1.2-1.74-1.2-1.74-3 0-.6.78-.99t1.53-.6q.75-.21.99-.27l.54.18q.36.12.54.12.36 0 .84-.3l.66.24 1.44-.24q-.24-.72-.24-3.48-1.2 0-1.86.18-.36 0-2.55-.15t-3.72-.93q-1.53-.78-1.53-2.16 0-.9.51-1.53t1.41-.63q1.08 0 3.48.72 1.38.42 2.28.6.9.18 1.74.12-.24-.66-.54-1.14-1.38-3.18-1.38-4.02 0-.9.63-1.5t1.53-.6zm63.96-36.36q1.32 0 1.59 1.65t.27 4.23l.48.18 1.2-.18q1.32.54 2.52.72 1.2.18 2.7.18h2.46q.6 0 1.68.12t1.68.12q1.02 0 1.8-.24l.72.48v.72q-1.92 1.14-3.57 1.56-1.65.42-4.23.78-3 .36-4.62.9-.96-.24-3.06-.24h-.66q0 3.54-4.26 5.64h-1.14q-1.62 0-2.82-.3-1.2-.3-1.2-1.32 0-.6.99-.9.99-.3 1.83-.3 1.02-.42 2.16-1.35 1.14-.93 1.14-1.71-1.08 0-1.83-.84t-.75-1.92q0-1.32.81-1.86t2.25-.72q0-2.28.27-3.84t1.59-1.56zm-15.24.9q1.2 0 1.95 1.11t.75 2.49q0 .9-.36 1.56l3.96 1.68q.24 0 1.02-.03t1.08.3q.3.33.3 1.11 0 .66-1.29 1.2-1.29.54-2.88.84-1.59.3-2.19.3-.72-.24-2.1-.24-.6 1.98-2.34 3.93-1.74 1.95-3.54 1.95-1.08 0-2.19-1.14-1.11-1.14-1.77-2.4v-.18q0-.54.42-.99.42-.45.96-.45.18.18.84.45.66.27.84.27 1.08 0 1.83-.99t1.17-2.31q-.24-.48-.24-1.62 0-.18.27-.84.27-.66.45-.84-.24-.66-.24-2.34 0-1.2.99-2.01.99-.81 2.31-.81zm19.92 11.28q4.92 0 4.92 2.82 0 .78-.36 1.5t-1.02 1.08q4.08 2.16 6.12 4.26 2.04 2.1 3 6.06 2.58 9.72 2.58 21.54 0 1.44-.87 3.24-.87 1.8-1.95 3.3-.36.12-.99.42t-1.11.3q-1.26 0-2.4-1.02t-1.14-2.28q0-.6.24-1.14.24-.54.54-1.05.3-.51.42-.81.48-1.44.48-10.56 0-2.04-1.05-6.66t-2.01-6.48q-.84-1.5-2.19-2.1-1.35-.6-3.15-.6-.96 0-3 .24-.48.06-1.2.12t-1.68.06q-1.74 0-2.82-.54-.72.24-2.4.24-.48 0-.81-.48-.33-.48-.33-.9 0-1.92 2.16-3.06 2.16-1.14 4.89-1.62 2.73-.48 4.65-.48-.66-.54-1.14-1.56-.48-1.02-.48-1.74 0-.66.69-1.38.69-.72 1.41-.72zM567.1 24.6q1.14 1.14 1.14 2.58 0 1.26-.9 2.16-.9.9-2.1.9-.9 0-1.83-.75t-1.56-1.83q-.63-1.08-.63-1.86 0-.9.84-1.41.84-.51 1.98-.69l3.06.9zm-6.54 6.12q1.08 0 2.28.63 1.2.63 2.01 1.65.81 1.02.81 2.16 0 1.38-.9 2.22-.9.84-2.34.84-1.08 0-2.19-.96-1.11-.96-1.8-2.28-.69-1.32-.69-2.4 0-.9.93-1.38.93-.48 1.89-.48zm-2.58 8.22q1.02 0 1.68 1.11.66 1.11.66 2.37 0 .78-.24 1.2 0 .96.6 5.7t.78 5.04l-.24.24q.24 1.68.24 4.98 0 1.38-.9 2.79-.9 1.41-2.16 1.41-2.58 0-2.58-3.78 0-.84 1.2-.84.72 0 1.14.18 0-.54.12-1.38.12-.96.12-1.44 0-.96-.36-3-.3-2.4-.3-2.88t.18-1.02q.18-.54.24-.84-.66-2.82-2.1-5.64 0-1.62-.24-2.58.36-1.62 2.16-1.62zm13.08 3.3q6.66 0 9.9 3.75t3.24 10.53q0 .96-.54 2.46t-1.32 1.5q-.96 0-1.29-1.83-.33-1.83-.45-4.71-.12-1.74-.12-1.68H580q-.36.54-1.53.87-1.17.33-3.09.63-2.7.48-3.36.84 0 .9.39 1.29t1.23.39l.6.36.6.36q1.8-.48 2.82-.48.9 0 1.38 1.38-.54 1.56-1.68 2.46-1.14.9-2.76 1.08 0 .48-1.53.6t-2.91.12q-1.62 0-2.58-.87t-.96-2.43q0-1.44.96-2.34 0-.6-.24-1.47t-.72-.87q-1.14-1.26-1.14-2.4 0-.66.42-1.32t.96-.96l-.24-.72q.24-3.06 1.11-4.8.87-1.74 3.33-1.74zm.72 7.26q.36 0 .72.09t.72.09q.9 0 2.94-.24 1.92-.24 2.88-.24-.78-1.08-1.86-1.8t-3.06-1.68h-.9q-.78 0-.99.69-.21.69-.21 1.65-.24.24-.24.72v.72z"/></svg>