<svg viewBox="0 0 342 80" xmlns="http://www.w3.org/2000/svg"><path d="M43.43 62L32.09 43.75h-14.8V62h-1.58V19.34h13.6q6.41 0 10.21 3.31 3.79 3.31 3.79 9 0 4.36-2.71 7.63-2.71 3.27-6.9 4.06l11.4 18.25V62h-1.67zM17.29 20.93v21.24h13.45q4.92 0 7.96-2.99 3.03-2.99 3.03-7.53 0-4.98-3.36-7.85-3.35-2.87-9.18-2.87h-11.9zm34.6 26.01v-1.4q0-4.55 1.75-8.16 1.74-3.62 4.92-5.64 3.18-2.03 7.19-2.03 3.99 0 7.15 1.97 3.16 1.96 4.94 5.56 1.77 3.61 1.8 8.12v1.41q0 4.57-1.73 8.17-1.73 3.6-4.91 5.62-3.18 2.03-7.19 2.03t-7.19-2q-3.18-1.99-4.94-5.58-1.76-3.59-1.79-8.07zm1.59-1.11v.94q0 3.95 1.56 7.25 1.57 3.29 4.37 5.14 2.8 1.84 6.4 1.84 5.42 0 8.83-4.07 3.42-4.07 3.42-10.49v-.9q0-3.9-1.59-7.21-1.58-3.31-4.38-5.17-2.79-1.86-6.34-1.86-5.42 0-8.85 4.13-3.42 4.13-3.42 10.4zm58.06.12v.49q0 7.42-3.19 11.78-3.19 4.37-8.7 4.37-3.58 0-6.39-1.48-2.81-1.48-4.42-4.12V62h-1.58V17h1.58v19.07q1.67-3.13 4.41-4.74 2.74-1.62 6.34-1.62 5.57 0 8.76 4.27 3.19 4.26 3.19 11.97zm-1.64-.12q0-6.83-2.71-10.68-2.71-3.85-7.57-3.85-3.99 0-6.75 2.05-2.77 2.05-4.03 6.09v14.53q1.26 3.37 4.03 5.2Q95.63 61 99.68 61q4.89 0 7.56-3.89 2.66-3.9 2.66-11.28zm7.85 1.11v-1.4q0-4.55 1.75-8.16 1.74-3.62 4.92-5.64 3.18-2.03 7.19-2.03 3.99 0 7.15 1.97 3.16 1.96 4.94 5.56 1.77 3.61 1.8 8.12v1.41q0 4.57-1.73 8.17-1.73 3.6-4.91 5.62-3.18 2.03-7.19 2.03t-7.19-2q-3.18-1.99-4.94-5.58-1.76-3.59-1.79-8.07zm1.59-1.11v.94q0 3.95 1.56 7.25 1.57 3.29 4.37 5.14 2.8 1.84 6.4 1.84 5.42 0 8.83-4.07 3.42-4.07 3.42-10.49v-.9q0-3.9-1.59-7.21-1.58-3.31-4.38-5.17-2.79-1.86-6.34-1.86-5.42 0-8.85 4.13-3.42 4.13-3.42 10.4zm35.77-24.08h1.61v8.55h7.21v1.61h-7.21v22.5q0 3.37 1.1 4.98 1.1 1.61 3.67 1.61 1.29 0 3.14-.26l.26 1.49q-.96.36-3.31.36-3.45 0-4.95-1.92-1.49-1.92-1.52-6.05V31.91h-5.86V30.3h5.86v-8.55zm14.06 25.19v-1.4q0-4.55 1.74-8.16 1.75-3.62 4.92-5.64 3.18-2.03 7.2-2.03 3.98 0 7.15 1.97 3.16 1.96 4.93 5.56 1.77 3.61 1.8 8.12v1.41q0 4.57-1.72 8.17-1.73 3.6-4.91 5.62-3.18 2.03-7.19 2.03-4.02 0-7.2-2-3.18-1.99-4.93-5.58-1.76-3.59-1.79-8.07zm1.58-1.11v.94q0 3.95 1.57 7.25 1.57 3.29 4.36 5.14 2.8 1.84 6.41 1.84 5.42 0 8.83-4.07t3.41-10.49v-.9q0-3.9-1.58-7.21t-4.38-5.17q-2.8-1.86-6.34-1.86-5.42 0-8.85 4.13-3.43 4.13-3.43 10.4zm76.23-26.49v1.59h-15.52V62h-1.59V20.93h-15.52v-1.59h32.63zm8.23-2.34v20.68q1.56-3.69 4.58-5.83 3.01-2.14 6.67-2.14 5.1 0 7.58 2.89 2.47 2.89 2.5 8.72V62h-1.58V41.26q-.03-5.1-2.08-7.55-2.05-2.44-6.5-2.44-4.1 0-7.11 2.91-3 2.92-4.06 7.52V62h-1.58V17h1.58zm33.23 13.3V62h-1.58V30.3h1.58zm-2.4-9.9q0-.68.46-1.16.47-.48 1.15-.48.67 0 1.15.48.49.48.49 1.16 0 .67-.49 1.14-.48.47-1.15.47-.68 0-1.15-.47-.46-.47-.46-1.14zm14.38 9.9v7.38q1.55-3.69 4.57-5.83 3.02-2.14 6.68-2.14 5.1 0 7.57 2.89 2.48 2.89 2.51 8.72V62h-1.58V41.26q-.03-5.1-2.08-7.55-2.05-2.44-6.51-2.44-4.1 0-7.1 2.91-3.01 2.92-4.06 7.52V62h-1.58V30.3h1.58z"/></svg>