<svg viewBox="0 0 458 80" xmlns="http://www.w3.org/2000/svg"><path d="M42.44 62l-7.85-18.25H20.24L17.07 62h-1.55l7.35-42.66h13.07q3.87.03 6.75 1.6 2.89 1.57 4.18 4.35 1.29 2.78.7 6.36-.73 4.33-3.85 7.54t-7.49 4.18l7.88 18.22-.06.41h-1.61zM24.19 20.93L20.5 42.17h12.54q4.83 0 8.45-2.96 3.62-2.96 4.5-7.56.88-4.84-2.02-7.78-2.9-2.94-8.5-2.94H24.19zm29.53 24.61q.74-4.43 2.96-8.06 2.23-3.63 5.57-5.7 3.34-2.07 7.29-2.07 3.23 0 5.72 1.44 2.49 1.44 3.95 4.26 1.47 2.83 1.67 6.26.09 1.99-.35 5.1-.73 4.42-2.97 8.08-2.25 3.66-5.57 5.7-3.33 2.04-7.25 2.04-3.25 0-5.73-1.45-2.47-1.45-3.95-4.25T53.4 50.6q-.12-1.96.32-5.06zm1.38 6.26q.59 4.25 3.13 6.73Q60.78 61 64.71 61q4.6 0 8.3-3.22 3.71-3.22 5.35-8.7 1.35-4.54.79-8.58-.64-4.25-3.18-6.73-2.53-2.47-6.4-2.47-4.6 0-8.32 3.26-3.72 3.27-5.36 8.66-1.35 4.48-.79 8.58zm42.45 10.79q-3.28 0-5.81-1.44-2.54-1.44-3.77-4.16L87.06 62h-1.58l7.76-45h1.59l-3.4 19.07q2.2-3.07 5.14-4.71 2.94-1.65 6.34-1.65 3.08 0 5.25 1.53 2.16 1.52 3.17 4.47 1.02 2.94.9 6.51-.09 1.88-.35 3.61l-.38 1.93q-1.53 6.89-5.22 10.86-3.69 3.97-8.73 3.97zm12.57-16.15l.12-.61.35-3.14q.23-3.19-.54-5.91-.78-2.73-2.61-4.11-1.83-1.37-4.5-1.37-3.9 0-7.34 2.34t-4.61 5.8l-2.61 14.53q.7 3.4 3.15 5.22Q93.98 61 97.55 61q4.72 0 8-3.88 3.28-3.88 4.57-10.68zm8.06-.9q.73-4.43 2.95-8.06 2.23-3.63 5.57-5.7 3.34-2.07 7.3-2.07 3.22 0 5.71 1.44 2.49 1.44 3.95 4.26 1.47 2.83 1.67 6.26.09 1.99-.35 5.1-.73 4.42-2.97 8.08t-5.57 5.7q-3.32 2.04-7.25 2.04-3.25 0-5.73-1.45-2.47-1.45-3.95-4.25t-1.66-6.29q-.11-1.96.33-5.06zm1.37 6.26q.59 4.25 3.14 6.73 2.55 2.47 6.47 2.47 4.6 0 8.31-3.22 3.7-3.22 5.34-8.7 1.35-4.54.8-8.58-.65-4.25-3.18-6.73-2.54-2.47-6.4-2.47-4.6 0-8.32 3.26-3.73 3.27-5.37 8.66-1.34 4.48-.79 8.58zm39.26-30.05h1.61l-1.46 8.55h6.94l-.2 1.61h-7.04l-4.01 23.21-.12 1.61q-.08 1.99.82 3.12.91 1.12 2.76 1.15.82 0 3.19-.26l.06 1.49q-1.35.36-3.19.36-4.98 0-5.19-5.13-.06-1.5.21-3.05l3.86-22.5h-5.65l.23-1.61h5.72l1.46-8.55zm9.82 23.79q.73-4.43 2.95-8.06 2.23-3.63 5.57-5.7 3.34-2.07 7.3-2.07 3.22 0 5.71 1.44 2.49 1.44 3.95 4.26 1.47 2.83 1.67 6.26.09 1.99-.35 5.1-.73 4.42-2.97 8.08t-5.57 5.7q-3.32 2.04-7.25 2.04-3.25 0-5.73-1.45-2.47-1.45-3.95-4.25t-1.66-6.29q-.11-1.96.33-5.06zM170 51.8q.59 4.25 3.14 6.73 2.55 2.47 6.47 2.47 4.6 0 8.31-3.22 3.7-3.22 5.34-8.7 1.35-4.54.79-8.58-.64-4.25-3.17-6.73-2.54-2.47-6.41-2.47-4.59 0-8.32 3.26-3.72 3.27-5.36 8.66-1.34 4.48-.79 8.58zm79.19-32.46l-.2 1.59H233.9L226.81 62h-1.58l7.09-41.07h-15.03l.2-1.59h31.7zm8.7-2.34l-3.69 20.68q2.37-3.83 5.6-5.9 3.22-2.07 6.65-2.07 3.63 0 5.71 1.88 2.08 1.87 2.4 5.42.18 2.23-.23 4.66L270.81 62h-1.58l3.52-20.33q.35-2.05.29-4.04-.15-3.11-1.83-4.75-1.69-1.64-4.82-1.61-4.01.06-7.72 3.12t-5.03 7.31L250.13 62h-1.58l7.76-45h1.58zm30.21 13.3L282.65 62h-1.58l5.45-31.7h1.58zm-.65-9.96q.09-.59.63-1.08.55-.5 1.16-.5.67 0 1.1.53.42.52.31 1.17-.09.58-.65 1.07-.55.48-1.17.48-.67-.03-1.08-.53-.41-.5-.3-1.14zm12.54 9.96l-1.37 7.38q2.37-3.83 5.59-5.9 3.22-2.07 6.65-2.07 3.63 0 5.71 1.88 2.08 1.87 2.41 5.42.17 2.23-.24 4.66L315.23 62h-1.59l3.52-20.33q.35-2.05.29-4.04-.14-3.11-1.83-4.75-1.68-1.64-4.82-1.61-4.01.06-7.72 3.12-3.7 3.06-5.02 7.31L294.54 62h-1.58l5.45-31.7h1.58zm35.98-10.96L328.62 62h-1.59l7.36-42.66h1.58zm13.42 2.41H351l-1.47 8.55h6.95l-.21 1.61h-7.03l-4.01 23.21-.12 1.61q-.09 1.99.82 3.12.91 1.12 2.75 1.15.82 0 3.2-.26l.06 1.49q-1.35.36-3.2.36-4.98 0-5.18-5.13-.06-1.5.2-3.05l3.87-22.5h-5.66l.24-1.61h5.71l1.47-8.55zM381.23 62h-1.81q-.09-2.58.55-5.8-2.46 3.02-5.84 4.72-3.39 1.7-7.34 1.67-3.99 0-6.36-2.46-2.37-2.47-1.79-6.16.74-4.48 4.97-7 4.23-2.52 10.74-2.67h7.53l.85-4.62q.61-3.9-1.56-6.14-2.16-2.24-6.24-2.24-3.98 0-7.2 2.12-3.23 2.12-4.05 5.58l-1.58-.06q.82-4.07 4.51-6.65t8.32-2.58q4.84 0 7.42 2.74 2.57 2.74 1.9 7.28l-2.9 16.94-.21 1.99q-.14 1.55.12 3.08l-.03.26zm-14.47-.97q3.93.06 7.47-1.89 3.55-1.94 6.04-5.69l1.34-7.53h-7.09q-5.91.11-9.77 2.27-3.85 2.15-4.55 5.9-.53 2.9 1.39 4.89 1.92 1.99 5.17 2.05zM400.01 17l-7.73 45h-1.58l7.73-45h1.58zM410 30.3L404.55 62h-1.58l5.45-31.7H410zm-.64-9.96q.09-.59.63-1.08.54-.5 1.15-.5.68 0 1.1.53.43.52.31 1.17-.09.58-.64 1.07-.56.48-1.18.48-.67-.03-1.08-.53-.41-.5-.29-1.14zM425.62 61q4.16 0 7.22-2.37 3.06-2.37 4.09-6.21h1.58q-1.06 4.54-4.6 7.35-3.55 2.82-8.26 2.82-4.37 0-7.08-2.71t-3.27-7.52q-.32-2.78.09-5.59l.18-1.23q.76-4.66 2.91-8.35 2.16-3.7 5.22-5.59 3.06-1.89 6.75-1.89 4.78 0 7.52 3.11 2.74 3.11 2.38 7.94h-1.58q.38-4.22-1.95-6.84t-6.34-2.62q-5.54 0-9.2 4.52-3.66 4.53-4.45 12.12l-.12 2.14q0 5.15 2.32 8.04 2.31 2.88 6.59 2.88z"/></svg>