<svg viewBox="0 0 391 80" xmlns="http://www.w3.org/2000/svg"><path d="M38.6 62l-7.53-15.06h-5.56V62H15.22V19.34h16.79q7.59 0 11.87 3.37 4.27 3.37 4.27 9.52 0 4.46-1.8 7.39-1.8 2.93-5.64 4.74l8.91 17.2V62H38.6zM25.51 27.28V39h6.5q2.93 0 4.41-1.54 1.48-1.53 1.48-4.29 0-2.75-1.5-4.32-1.49-1.57-4.39-1.57h-6.5zm27.18 20.25l-.03-1.67q0-4.75 1.85-8.45 1.85-3.71 5.3-5.7 3.46-2 8.12-2 7.12 0 11.22 4.41 4.1 4.41 4.1 12v.35q0 7.41-4.12 11.77-4.11 4.35-11.14 4.35-6.77 0-10.87-4.06t-4.43-11zm9.88-2.84l-.03 1.78q0 4.4 1.37 6.45 1.38 2.05 4.08 2.05 5.27 0 5.39-8.12v-.99q0-8.53-5.45-8.53-4.95 0-5.36 7.36zm54.46 1.23v.49q0 7.8-3.22 11.99-3.23 4.19-9.09 4.19-4.83 0-7.79-3.84L96.52 62h-8.85V17h9.88v15.85q2.75-3.14 7.12-3.14 5.91 0 9.14 4.25 3.22 4.25 3.22 11.96zm-9.9-.12q0-4.57-1.22-6.52-1.21-1.95-3.73-1.95-3.34 0-4.63 2.55v12.6Q98.81 55 102.23 55q3.49 0 4.43-3.4.47-1.67.47-5.8zm13.03 1.73l-.03-1.67q0-4.75 1.85-8.45 1.85-3.71 5.3-5.7 3.46-2 8.12-2 7.12 0 11.22 4.41 4.1 4.41 4.1 12v.35q0 7.41-4.12 11.77-4.11 4.35-11.14 4.35-6.77 0-10.87-4.06t-4.43-11zm9.88-2.84l-.03 1.78q0 4.4 1.37 6.45 1.38 2.05 4.08 2.05 5.27 0 5.39-8.12v-.99q0-8.53-5.45-8.53-4.95 0-5.36 7.36zm26.66-22.27h9.87v7.88h5.22v6.86h-5.22v14.5q0 1.79.64 2.49.65.7 2.55.7 1.47 0 2.46-.17v7.06q-2.66.85-5.56.85-5.1 0-7.53-2.41-2.43-2.4-2.43-7.29V37.16h-4.05V30.3h4.05v-7.88zm16.87 25.11l-.03-1.67q0-4.75 1.85-8.45 1.84-3.71 5.3-5.7 3.46-2 8.12-2 7.12 0 11.22 4.41 4.1 4.41 4.1 12v.35q0 7.41-4.12 11.77-4.11 4.35-11.14 4.35-6.77 0-10.87-4.06-4.11-4.06-4.43-11zm9.88-2.84l-.03 1.78q0 4.4 1.37 6.45 1.38 2.05 4.08 2.05 5.27 0 5.39-8.12v-.99q0-8.53-5.45-8.53-4.95 0-5.36 7.36zM241.19 62h-17.31V19.34h15.32q8.23 0 12.52 3.02 4.29 3.02 4.29 8.76 0 3.31-1.52 5.66-1.52 2.34-4.48 3.45 3.34.88 5.12 3.28 1.79 2.41 1.79 5.86 0 6.27-3.97 9.42-3.97 3.15-11.76 3.21zm.18-18.13h-7.21v10.22h6.74q2.78 0 4.27-1.27 1.5-1.28 1.5-3.59 0-5.34-5.3-5.36zm-7.21-16.59v9.85h5.36q3.37-.03 4.8-1.23 1.44-1.2 1.44-3.55 0-2.69-1.55-3.88-1.56-1.19-5.01-1.19h-5.04zM272.54 17v45h-9.91V17h9.91zm33.81 45h-9.88q-.52-.97-.93-2.84-2.73 3.43-7.62 3.43-4.48 0-7.62-2.71-3.13-2.71-3.13-6.82 0-5.15 3.8-7.79 3.81-2.64 11.08-2.64h3.05v-1.67q0-4.36-3.78-4.36-3.52 0-3.52 3.46h-9.87q0-4.6 3.91-7.47 3.91-2.88 9.97-2.88 6.07 0 9.58 2.96 3.52 2.96 3.61 8.12v14.03q.06 4.37 1.35 6.68v.5zm-16.06-6.45q1.85 0 3.06-.79 1.22-.79 1.75-1.78v-5.07h-2.88q-5.15 0-5.15 4.63 0 1.34.91 2.18.9.83 2.31.83zm33.58-.58q2.08 0 3.22-1.13 1.14-1.13 1.11-3.15h9.26q0 5.22-3.74 8.56-3.73 3.34-9.62 3.34-6.91 0-10.9-4.34-3.98-4.34-3.98-12.01v-.41q0-4.81 1.77-8.48 1.77-3.68 5.11-5.66 3.34-1.98 7.91-1.98 6.18 0 9.82 3.43 3.63 3.43 3.63 9.29h-9.26q0-2.46-1.2-3.78-1.2-1.32-3.22-1.32-3.84 0-4.49 4.89-.2 1.56-.2 4.28 0 4.78 1.14 6.62 1.15 1.85 3.64 1.85zM361.28 62l-6.92-11.81-2.78 2.79V62h-9.87V16.97h9.87v23.91l1-1.32 7.44-9.26h11.83l-11.1 13.04L372.59 62h-11.31z"/></svg>