<svg viewBox="0 0 481 80" xmlns="http://www.w3.org/2000/svg"><path d="M40.69 56L33.8 38.25H21.76L18.65 56h-3.6l7.41-42.66 12.63.03q6.39 0 9.84 3.33 3.46 3.32 2.9 8.98-.44 4.28-3.2 7.38-2.77 3.11-7.37 4.51l7.26 18.02-.03.41h-3.8zM25.54 16.42l-3.25 18.75 10.54.03q4.52 0 7.72-2.65 3.21-2.65 3.71-6.9.5-4.1-1.82-6.59-2.31-2.49-6.82-2.61l-10.08-.03zm26.81 24.43l.08-.99q.53-4.6 2.82-8.43 2.28-3.82 5.69-5.81 3.42-1.99 7.4-1.91 3.93.06 6.7 2.16 2.76 2.09 4.04 5.71 1.27 3.62.86 8.01l-.06.56q-.87 7.5-5.31 12.04-4.44 4.54-10.65 4.4-5.33-.09-8.53-3.93-3.19-3.84-3.13-10.14l.09-1.67zm3.54-.52l-.06.52q-.38 3.49.51 6.43.9 2.95 2.86 4.62t4.89 1.76q3.17.05 5.79-1.62 2.62-1.66 4.32-4.71 1.7-3.05 2.2-6.74l.09-.97q.52-5.65-1.75-9.24t-6.57-3.68q-4.69-.14-8.1 3.62-3.42 3.77-4.18 10.01zm56.19-.65l-.06.62q-1.02 7.56-4.82 12.01-3.79 4.45-9.39 4.31-3.1-.06-5.46-1.38-2.36-1.32-3.62-3.58L87.74 56h-3.28l7.82-45h3.45l-3.31 17.9q4.08-5.36 10.29-5.19 4.54.12 7 3.37 2.46 3.26 2.55 9 .03 1.87-.18 3.6zm-3.48-.06l.2-2.78q.09-4.78-1.67-7.38-1.76-2.61-5.24-2.73-6.42-.11-10.05 6.51l-2.4 14.35q.85 2.84 2.91 4.38 2.07 1.54 5.03 1.63 4.36.09 7.3-3.39 2.95-3.47 3.92-10.59zm9.19 1.23l.09-.99q.53-4.6 2.82-8.43 2.28-3.82 5.69-5.81 3.42-1.99 7.4-1.91 3.93.06 6.7 2.16 2.76 2.09 4.04 5.71 1.27 3.62.86 8.01l-.06.56q-.87 7.5-5.31 12.04-4.44 4.54-10.65 4.4-5.33-.09-8.53-3.93-3.19-3.84-3.13-10.14l.08-1.67zm3.55-.52l-.06.52q-.38 3.49.51 6.43.9 2.95 2.86 4.62t4.89 1.76q3.17.05 5.79-1.62 2.62-1.66 4.32-4.71 1.7-3.05 2.2-6.74l.09-.97q.52-5.65-1.75-9.24t-6.57-3.68q-4.69-.14-8.11 3.62-3.41 3.77-4.17 10.01zm37.38-24.14h3.49l-1.41 8.11h6.36l-.5 2.87h-6.36l-3.51 21.15-.06 1.82q0 3.19 2.93 3.28.91.03 2.84-.2l-.14 2.87q-1.73.5-3.52.44-3.08-.06-4.48-2.16-1.41-2.09-1.03-6.08l3.49-21.12h-5.69l.53-2.87h5.63l1.43-8.11zm10.37 24.66l.09-.99q.53-4.6 2.81-8.43 2.29-3.82 5.7-5.81 3.42-1.99 7.4-1.91 3.93.06 6.69 2.16 2.77 2.09 4.05 5.71 1.27 3.62.86 8.01l-.06.56q-.88 7.5-5.31 12.04-4.44 4.54-10.65 4.4-5.34-.09-8.53-3.93-3.19-3.84-3.13-10.14l.08-1.67zm3.55-.52l-.06.52q-.38 3.49.51 6.43.9 2.95 2.86 4.62t4.89 1.76q3.17.05 5.79-1.62 2.62-1.66 4.32-4.71 1.7-3.05 2.2-6.74l.08-.97q.53-5.65-1.74-9.24t-6.58-3.68q-4.68-.14-8.1 3.62-3.41 3.77-4.17 10.01zm54.84-26.99l-6.88 39.61h20.45l-.53 3.05h-24.05l7.41-42.66h3.6zm28.57 10.96L250.54 56h-3.52l5.54-31.7h3.49zm-2.52-9.17q.14-1.9 2.52-2.4 1.14.2 1.62.72.49.51.63 1.68-.29 1.11-.85 1.63-.55.51-1.67.74-2.37-.35-2.25-2.37zm22.23 8.56q2.85.08 5.19 1.34 2.34 1.26 3.69 3.84l1.08-4.57h3.26l-5.34 31.14q-.55 3.99-2.51 7.03-1.97 3.05-5.03 4.68-3.06 1.62-6.81 1.51-2.99-.06-5.71-1.5-2.76-1.46-4.43-4.07l2.17-2.05q3.02 4.54 7.88 4.66 4.34.11 7.25-2.62 2.92-2.74 3.68-7.46l.76-3.69q-4.22 4.83-10.17 4.66-4.45-.12-6.92-3.42-2.48-3.29-2.6-8.98-.17-5.24 1.76-10.37 1.93-5.12 5.26-7.69 3.32-2.56 7.54-2.44zm-10.89 16.99l-.18 2.72q-.09 4.81 1.67 7.43t5.18 2.74q2.93.12 5.48-1.38 2.55-1.49 4.4-4.42l2.49-14.8q-.79-2.84-2.74-4.49-1.95-1.66-5-1.75-4.48-.14-7.42 3.46-2.95 3.6-3.88 10.49zM303.83 11l-3.46 18.66q4.57-6.06 10.78-5.95 4.57.12 6.65 3.2 2.08 3.07 1.47 8.47L315.81 56h-3.45l3.45-20.68q.18-1.67.06-3.23-.5-5.21-5.68-5.36-3.08-.06-5.74 1.83-2.67 1.89-4.69 5.7L296.01 56h-3.46l7.82-45h3.46zm29.74 5.19h3.48l-1.4 8.11H342l-.49 2.87h-6.36l-3.52 21.15-.06 1.82q0 3.19 2.93 3.28.91.03 2.85-.2l-.15 2.87q-1.73.5-3.52.44-3.07-.06-4.48-2.16-1.41-2.09-1.02-6.08l3.48-21.12h-5.68l.53-2.87h5.62l1.44-8.11zm22.73-2.85L348.89 56h-3.58l7.42-42.66h3.57zm12.04 2.85h3.49l-1.41 8.11h6.36l-.5 2.87h-6.36l-3.51 21.15-.06 1.82q0 3.19 2.93 3.28.91.03 2.84-.2l-.15 2.87q-1.72.5-3.51.44-3.08-.06-4.48-2.16-1.41-2.09-1.03-6.08l3.49-21.12h-5.69l.53-2.87h5.63l1.43-8.11zM401.86 56h-3.61q-.14-1.11-.08-2.23l.26-2.19q-2.2 2.37-5.02 3.72-2.83 1.34-6.11 1.29-4.02-.06-6.52-2.54-2.51-2.47-2.24-6.22.23-3.14 2.15-5.44 1.92-2.3 5.46-3.57 3.55-1.28 7.94-1.28l6.48.03.53-3.63q.35-3.25-1.41-5.22-1.76-1.96-5.19-2.08-3.45-.05-6.02 1.72-2.56 1.77-3.2 4.67h-3.43q.58-4.16 4.28-6.78 3.69-2.62 8.73-2.56 4.89.11 7.54 2.95 2.65 2.85 2.15 7.39l-2.63 15.93-.24 2.55q-.09 1.59.24 3.14l-.06.35zm-13.98-2.49q3.23.12 6.17-1.54 2.94-1.65 4.88-4.7l1.2-7-5.6-.03q-5.33 0-8.7 1.89-3.37 1.89-3.72 5.4-.26 2.58 1.36 4.25 1.63 1.67 4.41 1.73zM421.72 11l-7.82 45h-3.52l7.83-45h3.51zm11.02 13.3L427.23 56h-3.52l5.54-31.7h3.49zm-2.52-9.17q.14-1.9 2.52-2.4 1.14.2 1.62.72.49.51.63 1.68-.29 1.11-.85 1.63-.55.51-1.67.74-2.37-.35-2.25-2.37zm18.72 38.53q3.45.11 6.11-1.92 2.65-2.04 3.53-5.5h3.31q-.88 4.72-4.62 7.61-3.73 2.88-8.51 2.77-3.84-.09-6.44-2.11-2.61-2.03-3.77-5.6-1.16-3.57-.75-8.06l.12-1.26q.35-3.07 1.51-5.97 1.16-2.9 3.09-5.14 1.94-2.25 4.62-3.55 2.68-1.3 6.05-1.22 4.86.12 7.73 3.29 2.87 3.16 2.7 8.02l-3.32-.03q.06-3.66-1.9-5.91-1.96-2.26-5.36-2.38-3.63-.11-6.42 2.11-2.78 2.23-4.19 6.3-1.4 4.07-1.31 8.64.08 4.72 2.1 7.25 2.03 2.54 5.72 2.66z"/></svg>