<svg viewBox="0 0 514 80" xmlns="http://www.w3.org/2000/svg"><path d="M37.97 62l-4.69-15.06h-5.57L25.08 62H15.06l7.38-42.66 15.06.03q7.24 0 11.15 3.39 3.91 3.38 3.5 9.24-.32 4.63-2.67 7.66-2.34 3.03-6.56 4.79l5.74 17.05v.5H37.97zm-6.86-34.72L29.06 39l5.86.06q2.4 0 4.18-1.17 1.77-1.17 2.53-3.21.76-2.04.44-3.94-.59-3.25-4.16-3.43l-6.8-.03zm40.26 2.43q4.25.06 7.35 2.13 3.11 2.06 4.56 5.76 1.45 3.69 1.04 8.2l-.06.64q-.82 7.3-5.42 11.78-4.6 4.48-11.37 4.37-4.22-.06-7.29-2.1-3.08-2.03-4.56-5.7-1.48-3.66-1.07-8.14.73-7.79 5.35-12.42 4.61-4.63 11.47-4.52zm-7.18 16.94l-.09 1.73q-.41 6.53 3.99 6.65 5.68.17 6.59-9.23l.11-2.67q.06-2.63-.98-4.2-1.04-1.57-3.06-1.63-2.66-.09-4.38 2.19-1.71 2.27-2.18 7.16zm53.06-1.06l-.09.62q-.91 7.7-4.54 12.13-3.64 4.42-9.55 4.28-4.69-.12-7.21-3.93L94.66 62h-8.73l7.82-45h9.64l-3.14 15.91q3.2-3.25 7.12-3.2 4.66.06 7.27 3.33 2.61 3.27 2.75 8.89.03 1.88-.14 3.66zm-9.73.65l.06-.62q.23-1.78.26-3.4 0-4.71-3.37-4.92-2.99-.11-5.01 2.55l-2.28 12.66q.91 2.43 3.98 2.49 4.72.14 5.95-6.15l.41-2.61zm29.88-16.53q4.25.06 7.36 2.13 3.1 2.06 4.55 5.76 1.45 3.69 1.04 8.2l-.06.64q-.82 7.3-5.42 11.78-4.6 4.48-11.36 4.37-4.22-.06-7.3-2.1-3.08-2.03-4.55-5.7-1.48-3.66-1.07-8.14.73-7.79 5.34-12.42 4.62-4.63 11.47-4.52zm-7.18 16.94l-.08 1.73q-.41 6.53 3.98 6.65 5.68.17 6.59-9.23l.12-2.67q.06-2.63-.98-4.2-1.04-1.57-3.06-1.63-2.67-.09-4.38 2.19-1.72 2.27-2.19 7.16zm30.12-24.23h9.64l-1.38 7.88h5.07l-1.2 6.86h-5.07l-2.46 14.56q-.2 1.49.19 2.25.4.76 1.98.82.61.03 2.52-.14l-.7 7.14q-2.44.8-5.19.74-4.48-.06-6.71-2.64-2.23-2.58-1.82-7l2.58-15.73h-3.92l1.17-6.86h3.92l1.38-7.88zm29.45 7.29q4.24.06 7.35 2.13 3.1 2.06 4.55 5.76 1.45 3.69 1.04 8.2l-.05.64q-.82 7.3-5.42 11.78-4.6 4.48-11.37 4.37-4.22-.06-7.3-2.1-3.07-2.03-4.55-5.7-1.48-3.66-1.07-8.14.73-7.79 5.35-12.42 4.61-4.63 11.47-4.52zm-7.18 16.94l-.09 1.73q-.41 6.53 3.98 6.65 5.69.17 6.6-9.23l.11-2.67q.06-2.63-.98-4.2-1.04-1.57-3.06-1.63-2.67-.09-4.38 2.19-1.71 2.27-2.18 7.16zM236.63 62h-17.11l7.38-42.66 13.57.03q8.03.03 11.98 3.05 3.96 3.02 3.6 8.47-.43 6.74-7.38 9.55 2.49.88 3.88 3.18 1.4 2.3 1.19 5.52-.41 6.18-4.88 9.52T236.63 62zm3.46-18.11l-7.38-.02-1.79 10.22 6 .03q2.82 0 4.69-1.39 1.88-1.39 2.23-3.71.82-4.89-3.75-5.13zm-4.51-16.61l-1.73 9.85 4.71.03q6.54-.15 7.33-5.01.7-4.81-4.98-4.84l-5.33-.03zM274.86 17l-7.79 45h-9.67l7.8-45h9.66zm25.58 45h-9.38q-.41-1.14-.41-2.87-3.25 3.57-7.76 3.46-4.13-.06-6.85-2.76-2.73-2.69-2.55-6.53.14-5.16 4.3-7.93 4.16-2.76 11.37-2.76l3.22.05.35-1.78.12-1.56q-.12-2.66-2.66-2.75-3.17-.06-3.9 3.49l-9.67.03q.15-3.2 2.08-5.56 1.93-2.35 5.26-3.63 3.33-1.27 7.08-1.19 3.6.09 6.31 1.51 2.71 1.42 4.06 3.96 1.34 2.53 1.02 5.84l-2.37 14.92-.15 1.81q-.12 2.17.56 3.69l-.03.56zm-14.88-6.39q2.96.12 5.18-2.6l.97-5.1-2.49-.03q-2.32.06-3.99 1.36-1.67 1.3-1.96 3.56-.14 1.2.46 1.98.6.77 1.83.83zm33.48-.61q2.08.06 3.25-1.16 1.18-1.21 1.5-3.15l9.02-.03q-.17 3.49-2.06 6.24-1.89 2.76-5.1 4.27-3.21 1.5-6.87 1.42-6.33-.12-9.76-4.56-3.42-4.44-2.78-11.47l.09-.7q.53-4.81 2.69-8.51 2.17-3.71 5.7-5.73 3.53-2.02 7.9-1.91 5.53.12 8.74 3.54 3.21 3.41 3.09 9.21l-9.02-.03q.15-5.04-3.6-5.13-5.1-.17-5.86 8.59l-.27 2.99-.03 1.11q0 4.92 3.37 5.01zm35.19 7l-4.63-11.69-3.52 3.05-1.49 8.64h-9.64l7.82-45.03h9.64l-4.45 24.02 1.17-1.4 8.76-9.29h12.22l-13.48 13.48L364.8 62h-10.57zm31.29-42.66L378.13 62h-10.01l7.41-42.66h9.99zm7.76 3.08h9.64l-1.38 7.88h5.07l-1.2 6.86h-5.07l-2.46 14.56q-.2 1.49.19 2.25.4.76 1.98.82.61.03 2.52-.14l-.7 7.14q-2.44.8-5.19.74-4.48-.06-6.71-2.64-2.23-2.58-1.82-7l2.58-15.73h-3.92l1.17-6.86h3.92l1.38-7.88zM432.36 62h-9.37q-.41-1.14-.41-2.87-3.25 3.57-7.77 3.46-4.13-.06-6.85-2.76-2.73-2.69-2.55-6.53.15-5.16 4.31-7.93 4.16-2.76 11.36-2.76l3.23.05.35-1.78.12-1.56q-.12-2.66-2.67-2.75-3.16-.06-3.9 3.49l-9.67.03q.15-3.2 2.09-5.56 1.93-2.35 5.25-3.63 3.33-1.27 7.08-1.19 3.6.09 6.31 1.51 2.71 1.42 4.06 3.96 1.35 2.53 1.03 5.84l-2.38 14.92-.14 1.81q-.12 2.17.55 3.69l-.03.56zm-14.88-6.39q2.96.12 5.19-2.6l.96-5.1-2.49-.03q-2.31.06-3.98 1.36t-1.96 3.56q-.15 1.2.45 1.98.6.77 1.83.83zM454.25 17l-7.79 45h-9.67l7.79-45h9.67zm14 13.3L462.74 62h-9.66l5.5-31.7h9.67zm-8.82-8q-.05-2.14 1.51-3.57 1.57-1.44 3.8-1.44 2.25 0 3.76 1.29 1.51 1.29 1.57 3.37.06 2.17-1.5 3.59-1.55 1.42-3.8 1.42-2.2 0-3.74-1.27-1.54-1.28-1.6-3.39zM483.54 55q2.09.06 3.26-1.16 1.17-1.21 1.49-3.15l9.02-.03q-.17 3.49-2.06 6.24-1.89 2.76-5.1 4.27-3.21 1.5-6.87 1.42-6.33-.12-9.75-4.56-3.43-4.44-2.79-11.47l.09-.7q.53-4.81 2.7-8.51 2.16-3.71 5.69-5.73 3.53-2.02 7.9-1.91 5.54.12 8.74 3.54 3.21 3.41 3.1 9.21l-9.03-.03q.15-5.04-3.6-5.13-5.1-.17-5.86 8.59l-.26 2.99-.03 1.11q0 4.92 3.36 5.01z"/></svg>