<svg viewBox="0 0 357 80" xmlns="http://www.w3.org/2000/svg"><path d="M39.6 62l-8-15.62h-7V62h-8.79V19.34h15.85q7.56 0 11.66 3.37 4.1 3.37 4.1 9.52 0 4.37-1.89 7.28-1.89 2.92-5.73 4.65l9.23 17.43V62H39.6zm-15-35.54v12.81h7.09q3.31 0 5.12-1.69 1.82-1.68 1.82-4.64 0-3.02-1.71-4.75-1.72-1.73-5.26-1.73H24.6zm27.62 19.78v-.38q0-4.72 1.82-8.41 1.82-3.69 5.23-5.71 3.41-2.03 7.93-2.03 6.41 0 10.47 3.93 4.06 3.93 4.53 10.66l.05 2.17q0 7.3-4.07 11.71-4.07 4.41-10.93 4.41-6.85 0-10.94-4.4-4.09-4.39-4.09-11.95zm8.47.23q0 4.51 1.7 6.9 1.7 2.39 4.86 2.39 3.08 0 4.81-2.36 1.73-2.36 1.73-7.54 0-4.43-1.73-6.86-1.73-2.43-4.86-2.43-3.11 0-4.81 2.42-1.7 2.41-1.7 7.48zm55.34-.5v.47q0 7.62-3.25 11.88-3.25 4.27-9.08 4.27-5.16 0-8.23-3.96L95.09 62h-7.62V17h8.47v16.14q2.93-3.43 7.7-3.43 5.8 0 9.1 4.27 3.29 4.26 3.29 11.99zm-8.46-.14q0-4.81-1.53-7.02-1.52-2.21-4.54-2.21-4.04 0-5.56 3.31v12.51q1.55 3.34 5.62 3.34 4.1 0 5.39-4.04.62-1.94.62-5.89zm12.36.41v-.38q0-4.72 1.82-8.41 1.81-3.69 5.23-5.71 3.41-2.03 7.92-2.03 6.42 0 10.47 3.93 4.06 3.93 4.53 10.66l.06 2.17q0 7.3-4.07 11.71-4.08 4.41-10.93 4.41-6.86 0-10.94-4.4-4.09-4.39-4.09-11.95zm8.47.23q0 4.51 1.7 6.9 1.69 2.39 4.86 2.39 3.08 0 4.8-2.36 1.73-2.36 1.73-7.54 0-4.43-1.73-6.86-1.72-2.43-4.86-2.43-3.11 0-4.8 2.42-1.7 2.41-1.7 7.48zm28.44-23.96h8.47v7.79h5.42v6.21h-5.42v15.82q0 1.76.67 2.52.68.76 2.58.76 1.41 0 2.49-.2v6.41q-2.49.77-5.12.77-8.91 0-9.09-9V36.51h-4.63V30.3h4.63v-7.79zm16.41 23.73v-.38q0-4.72 1.82-8.41 1.81-3.69 5.23-5.71 3.41-2.03 7.92-2.03 6.42 0 10.47 3.93 4.06 3.93 4.53 10.66l.06 2.17q0 7.3-4.07 11.71-4.08 4.41-10.93 4.41-6.86 0-10.94-4.4-4.09-4.39-4.09-11.95zm8.47.23q0 4.51 1.7 6.9 1.7 2.39 4.86 2.39 3.08 0 4.8-2.36 1.73-2.36 1.73-7.54 0-4.43-1.73-6.86-1.72-2.43-4.86-2.43-3.1 0-4.8 2.42-1.7 2.41-1.7 7.48zM240.57 62h-16.58V19.34h14.94q7.77 0 11.78 2.98 4.01 2.97 4.01 8.71 0 3.14-1.61 5.53-1.61 2.38-4.48 3.5 3.28.82 5.17 3.31 1.89 2.49 1.89 6.09 0 6.15-3.92 9.32-3.93 3.16-11.2 3.22zm.27-18.57h-8.06v11.51h7.53q3.11 0 4.85-1.48 1.74-1.48 1.74-4.09 0-5.86-6.06-5.94zm-8.06-16.97v10.75h6.51q6.65-.11 6.65-5.3 0-2.9-1.69-4.17-1.68-1.28-5.32-1.28h-6.15zm27.63 19.78v-.38q0-4.72 1.81-8.41 1.82-3.69 5.23-5.71 3.42-2.03 7.93-2.03 6.41 0 10.47 3.93 4.06 3.93 4.53 10.66l.06 2.17q0 7.3-4.07 11.71-4.08 4.41-10.93 4.41-6.86 0-10.94-4.4-4.09-4.39-4.09-11.95zm8.47.23q0 4.51 1.69 6.9 1.7 2.39 4.87 2.39 3.07 0 4.8-2.36t1.73-7.54q0-4.43-1.73-6.86-1.73-2.43-4.86-2.43-3.11 0-4.81 2.42-1.69 2.41-1.69 7.48zM304.59 17v45h-8.5V17h8.5zm5.65 28.92q0-7.42 3.33-11.81 3.32-4.4 9.09-4.4 4.63 0 7.65 3.46V17h8.5v45h-7.65l-.41-3.37q-3.16 3.96-8.14 3.96-5.6 0-8.98-4.41-3.39-4.41-3.39-12.26zm8.47.61q0 4.45 1.55 6.83 1.55 2.37 4.51 2.37 3.93 0 5.54-3.31V39.91q-1.58-3.31-5.48-3.31-6.12 0-6.12 9.93z"/></svg>