<svg viewBox="0 0 400 80" xmlns="http://www.w3.org/2000/svg"><path d="M104.72 63.4q-.11 1.17-.82 1.85-.7.67-1.81.67-.59 0-1.12-.17-1.11.88-2.63 1.34-1.53.47-2.88.94-1.64-.06-3.22-.29-1.58-.24-3.28-.12-.58-.41-1.23-.53-.64-.11-1.32-.14-.67-.03-1.29-.21-.61-.17-1.2-.82h-2.93q-.41 0-1.2-.38t-1.76-.79q-.96-.41-2.05-.76-1.08-.35-2.02-.35h-.35q-.65-.53-1.49-.79-.85-.27-1.73-.47-.88-.21-1.7-.44-.82-.24-1.41-.65-.58-.41-1.35-.85-.76-.44-1.58-.38-1.11-.64-2.31-1.11-1.2-.47-2.43-.88l-2.41-.88q-1.17-.47-2.34-1.11-.18.06-.41 0-.24-.06-.41-.06-.35 0-.41.23-.41-.41-.91-.7t-.97-.7q-.23.06-.44.09-.2.02-.49.02-.53 0-1.03-.11-.5-.12-.97-.3-.52 1.18-.7 2.64-.17 1.47-.26 3.02t-.21 3.1q-.11 1.56-.52 2.85.11.47.11.93v1q0 1 .3 1.58-.12.53-.21 1t-.2.94q.05.64.08 1.2.03.55.03 1.2V75q0 .53-.11 1.06-.59.35-1.18.67-.58.32-1.17.79-.41-.76-1.4-.88-.24.3-.33.8-.09.49-.55.49-.82-.64-1.35-1.05-.53-.41-1.17-1.23-.06-.12-.06-.29 0-.3.12-.53.11-.24.11-.47 0-.7-.17-1.23-.12-.76-.18-1.5-.06-.73-.06-1.43 0-1 .15-1.93.15-.94.56-1.94.64-1.7.9-3.57.27-1.88.38-3.78.12-1.91.15-3.84t.21-3.69q-.41-.94-.97-1.49-.56-.56-.56-1.79 0-1.12.71-1.73.7-.62 1.23-1.49-.12-.36.17-.47l.71-6.16q.05-.64.2-1.4.15-.76.21-1.41.11-1.35.11-2.63 0-1.29.12-2.58.29-2.87.56-5.69.26-2.81.26-5.62 0-1.35-.09-2.7-.09-1.34-.38-2.69-.99.29-2.2.61-1.2.33-2.02 1.09h-.47q-1.52 0-2.84.58-1.32.59-2.66 1.12-.59.29-1.18.38-.58.08-1.23.26-.29.06-.64.35-.35.3-.65.41l-.99.24q-.41.11-.35.52.06.41-.3.53-.29.29-.82.27-.52-.03-.82-.03h-.23q-1.47 1.05-2.84 1.78-1.38.74-3.25.97l-1.29.82q-.65.41-1.47.41-.64 0-1.05-.23-.47-.71-.74-1.59-.26-.88-.9-1.52.29-.29.38-.79.08-.5.2-.91 1.76-.76 3.55-1.46 1.78-.71 3.42-1.7.18.06.53.06.59 0 1.06-.18.47-.18.93-.41.47-.23.94-.41.47-.18 1.11-.12 2-1.11 4.22-1.81 2.23-.71 4.22-1.94.3 0 .5.12.21.12.44.12t.29-.06q.35-.47.94-.68.59-.2 1.2-.35.62-.14 1.17-.41.56-.26.74-.85.29.24.87.24 1 0 1.85-.41.85-.41 1.85-.41.23 0 .44.08.2.09.43.09.47 0 .5-.29.03-.29.33-.53 3.57-.64 7.11-1.17 3.55-.53 7.18-.53.53-.35 1.17-.35.65 0 1.18.35.99-.11 1.99-.17.99-.06 1.99-.06 2.29 0 4.69.29 2.4.29 4.77.91 2.38.62 4.54 1.64 2.17 1.03 4.05 2.43.17.53.47 1.06.29.52.76.82 0 .11-.03.17-.03.06-.03.18 0 .64.38 1.23t.38 1.41q0 .82-.26 1.64-.27.82-.21 1.64-.64.93-1.08 1.7-.44.76-.56 1.93-1.05 1.05-1.87 2.31-.82 1.26-1.67 2.47-.85 1.2-1.91 2.19-1.05 1-2.52 1.58-.06.59-.47 1.29h-1.23q-.17.47-.58.71l-.82.47q-.41.23-.68.58-.26.35-.26 1-.12-.06-.29-.06-.59 0-1.38.58l-1.26.94q-1 .71-2.02 1.29-1.03.59-1.79 1.64-2.34 1-4.45 2.32-2.11 1.31-4.57 2.08-.94.99-2.2 1.55-1.26.56-2.43 1.2V47q0 .46.35.9t.82.77q.47.32 1.03.44.55.11.96 0 1.17 1.05 2.7 1.69 1.52.65 3.16 1.18 1.64.52 3.23 1.11 1.58.59 2.92 1.46h1.41q1.35 1.18 3.19 1.76 1.85.59 3.55 1.06.7.64 1.79.96 1.08.33 2.08.33h.35q.23 0 .41-.06v.11q0 .3.17.39.18.08.38.11.21.03.41.12.21.09.33.26h.58q1.23 0 2.35.5 1.11.5 2.34.5.53 0 .82-.12.35.12.53.47.17.35.47.59.41-.06.76-.09.35-.03.7-.03 1.29 0 2.4.29 1.12.3 2.29.88 1.87-.82 3.69-1.35 1.82-.52 3.87-.52v.11q0 .71.38 1.32.38.62.67 1.26zM82.28 16.64q0-.7-.26-1.11-.27-.41-.68-.73-.41-.32-.85-.62-.44-.29-.79-.76-1.52-.47-2.99-1.05-1.46-.59-2.98-1-.77-.17-1.53-.32t-1.52-.15h-1.29q-.35-.06-.73-.14-.38-.09-.73-.15-.82-.12-1.62-.18-.79-.05-1.61-.05-1.52 0-3.04.11l-3.05.24q-.65.06-1.35.06-.7 0-1.29.11-.29.06-.82.27-.52.2-1.11.41-.59.2-1.14.44-.56.23-.97.35.06.41.06.82v.76q0 .88-.06 1.76t-.23 1.75q-.06.36-.18.71t-.18.7q-.11.53-.11 1.17v1.12q-.12 1.34-.18 2.63-.06 1.29-.17 2.64-.36 3.87-.74 7.68-.38 3.8-.5 7.67 1.94-.41 3.7-1.23 1.75-.82 3.45-1.79 1.7-.96 3.4-1.9t3.58-1.58q.46-.65 1.14-1.06.67-.41 1.14-1.05.59 0 .88-.27.29-.26.76-.38 2.81-2.46 5.74-4.63 2.93-2.16 5.63-4.62.23-.82.79-1.62.56-.79 1.08-1.61.53-.82.94-1.64.41-.82.41-1.76zm41.13 10.43q-.35.53-.41 1.18-.05.64-.05 1.17 0 .7.02 1.37.03.68.03 1.32v.88q-.11.41-.35.82-.23.41-.35.82-.82 2.17-.82 4.34v.12q-.29.7-.56 1.29-.26.58-.49 1.14-.24.55-.36 1.17-.11.61-.05 1.44-.82 2.05-2.17 3.72-1.35 1.67-2.64 3.42-1.23.47-2.25 1.23-1.03.77-1.97 1.7-1.81.59-3.57 1.35-1.76.76-3.17 2.05-1.11.12-2.22.35-1.12.24-2.17.71h-.7q-.53 0-.77-.24-.76.41-1.58.56-.82.15-1.64.15-1.05 0-2.08-.15-1.02-.15-2.08-.32-.58-.82-1.64-1.26-1.05-.44-1.87-.85-1.7-2.35-2.46-4.54-.77-2.2-1.59-4.96.12-.82.41-1.61.3-.79.24-1.73 1.05-3.04 2.78-5.53 1.73-2.49 3.96-4.78 0-.35.14-.58.15-.24.03-.71.06.06.24.06.46 0 .58-.26.12-.27.06-.62 2.11-1.34 3.84-3.1t3.95-2.93q.18-.53.59-.88t.64-.82q1.88-.53 3.4-1.58 1.53-1.06 3.23-1.88.93-.53 1.78-.73.85-.21 1.85-.44.35-.12.64-.18.3-.05.65-.05 1.05 0 2.05.38.99.38 2.05.38.29 0 .5-.03.2-.03.44-.09.99 1.23 2.52 1.87.35.88.85 1.53.49.64 1.02 1.26.53.61.97 1.35.44.73.55 1.72zm-5.86 3.05q0-.29-.05-.53-.59-.17-1.12-.46-.52-.3-1.17-.3-.41 0-.82.18-.06-.41-.32-.59-.27-.17-.59-.32-.32-.15-.64-.23-.32-.09-.56-.33-.17-.47-.38-.96-.2-.5-.73-.74-.53.53-1.23.85-.71.33-1.44.62t-1.4.7q-.68.41-1.15 1h-1.05q-.35.64-1 .96-.64.33-1.11.91-.94.47-1.73 1.15-.79.67-1.55 1.4-.76.73-1.5 1.5-.73.76-1.55 1.4-.76 1.64-1.67 2.84-.91 1.21-1.7 2.44-.79 1.23-1.35 2.66-.55 1.44-.55 3.55v.58q0 .3.06.59.76.82 1.26 1.76.49.93 1.67 1.34 1.17.47 2.49.41 1.31-.05 2.54.3 2.82-.53 5.42-1.73 2.61-1.2 4.96-2.9.35-.29.82-.62.47-.32.76-.67.29-.29.5-.65.2-.35.44-.64.46-.76 1.05-1.52.59-.77 1.23-1.41.29-1.29.76-2.49.47-1.2.94-2.37.47-1.17.79-2.41.32-1.23.32-2.57 0-.3-.03-.65-.03-.35-.08-.64.46-.65.46-1.41zm53.56 20.33h.29q0 .59-.32.97t-.76.67q-.44.3-.88.53-.44.24-.79.59-.24.23-.32.55-.09.33-.33.44-.35.3-.76.35-.41.06-.85.15t-.85.24q-.41.14-.7.55-2.75.3-5.42.76-2.67.47-5.48.47-.53 0-1.14.09-.62.09-1.14.15-1.23.11-2.44.17-1.2.06-2.43.06-1.7 0-3.4-.15-1.69-.14-3.34-.49-.41-.3-.93-.47-.53-.18-1.09-.35-.55-.18-1.02-.41-.47-.24-.71-.71-.87-.06-1.55-.35-.67-.29-1.23-.67-.56-.38-1.14-.79-.59-.41-1.35-.71-.58-.82-1.2-1.61-.62-.79-1.49-1.32-.18-1.11-.56-2.22-.38-1.12-.76-2.2t-.65-2.2q-.26-1.11-.26-2.28 0-.82.23-1.99.24-1.18.62-2.38t.91-2.25q.52-1.06 1.05-1.7.18-.18.41-.3.24-.11.41-.35.53-.58 1.12-.96.58-.38 1.23-.91.23-.24.38-.53.14-.29.44-.53.17-.11.49-.06.33.06.56-.11.24-.18.24-.41 0-.24.17-.41.06-.06.35-.03.3.03.35.03.41 0 .94-.56t.88-.73q.41-.24.82-.32.41-.09.88-.33.64-.35 1.26-.55.61-.21 1.26-.5.35-.12.64-.41.3-.29.59-.41.53-.18 1.14-.27.62-.08 1.17-.17.56-.09 1.12-.24.55-.14 1.02-.55h.47q1.06 0 2.05-.29 1-.3 2.05-.3.3 0 .88.12.47-.29 1.06-.29.99 0 1.99.49 1 .5 2.05.5h.35q.24 0 .47-.06.64.65 1.55.71.91.06 1.56.52.41.36.67.82.26.47.44 1l.35 1.06q.18.52.47.93-.29 2.11-1.73 3.37-1.43 1.26-3.6 1.26-.82 0-1.38-.2-.56-.21-1-.44-.44-.24-.9-.47-.47-.24-1.06-.35.65-1.17.82-2.52-.64-.3-1.29-.41-.64-.12-1.23-.41-1.58.41-3.07.55-1.5.15-2.79 1.26-.29-.05-.61-.11t-.62-.06q-.35 0-1.4.5-1.06.49-2.26 1.14-1.2.64-2.29 1.29-1.08.64-1.49.88-.47.29-.82.7t-.7.85q-.35.44-.71.82-.35.38-.87.56-.12.64-.41 1.11-.3.47-.65 1-.06 1.05-.2 2.1-.15 1.06-.15 2.11v.77q0 .35.12.64.58.76.96 1.7t1.32 1.29q.06.23-.03.29-.09.06-.14.29.35.65.9 1.03.56.38 1.15.76.58.38 1.11.79.53.41.82 1.06.88 0 1.67.29.79.29 1.52.65.74.35 1.41.64.67.29 1.38.29.64 0 1.17-.17 1.52.47 3.07.67 1.56.21 3.14.21 1.93 0 3.87-.24 1.93-.23 3.86-.41.71-.12 1.35-.12.65 0 1.29-.11.82-.12 1.55-.76.74-.65 1.44-.94.64.41 1.52.41 1 0 1.94-.32.93-.33 1.93-.33zm46.17 7.56q0 .47-.41.76-.41.3-.94.59l-1.05.53q-.53.23-.7.64-.65-.17-1.26-.23-.62-.06-1.21-.06-.76 0-1.58.14-.82.15-1.29.8-.29-.12-.52-.12h-.47q-.88 0-1.79.15-.91.14-1.79.14-.47 0-.9-.06-.44-.06-.8-.35-.52.18-1.11.18-.76 0-1.46-.24-.71-.23-1.38-.55-.67-.33-1.38-.62-.7-.29-1.4-.47l-.41-.82q-.94-.17-1.73-.55-.79-.39-1.56-.85-.76-.47-1.49-.91-.73-.44-1.49-.62-.3-.23-.53-.44-.24-.2-.35-.61-.76-.18-1.41-.47l-1.23-.65q-.59-.35-1.32-.61-.73-.26-1.73-.32-.35-.53-.99-1-.65-.47-1.29-.47-.41 0-.65.18v.29q0 .7.41 1.41.41.7 1.06.99-.06.12-.06.35 0 .36.15.71.14.35.55.47-.23.64-.58 1.31-.35.68-.88 1.26-.53.59-1.14.97-.62.38-1.38.38-.24.12-.32.35-.09.24-.12.5-.03.27-.12.5-.09.23-.26.35-.24.06-.65.06-.58 0-.99-.18-.41-.17-.88-.46v-.24q0-.7-.26-1.11-.27-.41-.59-.79-.32-.38-.59-.79-.26-.41-.26-1.12-.18.12-.38.18-.21.06-.26.23-.12-.58-.12-.99 0-1.18.38-2.23t.38-2.23v-.88q0-1.34-.06-2.63-.06-1.29-.06-2.58 0-1.11.06-2.2.06-1.08.24-2.19.64-3.87 1.08-7.71.44-3.84 1.44-7.65-.06-.29-.15-.58-.09-.3-.09-.59 0-.23.06-.29.23-1.17 1.05-1.96.82-.8 2.11-.8h.18q.7.3 1.08.85.38.56 1.2.44 0 .12-.02.24-.03.12-.03.23 0 .65.35.94.35.29.82.64-.3.59-.38 1.35-.09.76-.15 1.53-.06.76-.2 1.46-.15.7-.56 1.17.23.59.29 1.17.06.59.06 1.23 0 .65-.06 1.32-.06.68-.06 1.38 0 .64.18 1.17 1.29 0 1.46-1.23 1.53-.41 2.73-1.14t2.31-1.55q1.12-.82 2.2-1.7t2.43-1.53v-.11q0-.3.18-.38.17-.09.06-.5.88-.3 1.49-.79.62-.5 1.14-1.09l1.12-1.23q.58-.64 1.29-1.11.46-1 .84-2.11.39-1.11 1.03-2.05 1.11 0 2.43.17 1.32.18 2.26.82-.12.47.41.65-.65 2.46-1.94 4.42-1.28 1.97-3.34 3.31-.29.65-.76 1.12-.47.47-.93.91-.47.43-.94.9-.47.47-.76 1.12-.71.11-1.21.41-.49.29-.93.67-.44.38-.94.7-.5.33-1.08.5-.47.59-1.09 1-.61.41-1.23.79-.61.38-1.14.82-.53.44-.76 1.14h-1.53q-.64 1.12-1.67 1.85-1.02.73-2.08 1.37.18.71.65 1.15.47.44 1.02.79.56.35 1.12.73.55.38.96.91 2.46.94 4.75 2.14 2.28 1.2 4.34 2.9.11-.06.29-.06.47 0 .76.26.29.27.82.21.24.58.65.79.41.2.84.32.44.12.85.35.41.24.59.82.88.06 1.61.35.73.3 1.32.94h.7q1.88 0 3.64.35 1.75.36 3.57.36.94 0 1.82-.15.88-.15 1.7-.56.29.18.64.35.35.18.76.18.3 0 .88-.12.06.65.44 1.23.38.59.38 1.29zm63.11.82q0 .59-.06.88-.29.12-.47.32-.18.21-.59.15-.11.88-.58 1.46-.47.59-.97 1.09-.5.5-.97 1.05-.46.56-.58 1.44-.88.47-1.73 1.26t-1.49 1.08q-.47.24-1 .38-.53.15-1.06.38-1.69.77-3.48 1.59-1.79.82-3.72.82h-.41q-.24.23-.59.32t-.7.15q-.35.05-.7.17-.36.12-.53.35-.65-.23-1.41-.23h-.41q-.99.23-1.87.35-.88.12-1.88.12-1.76 0-3.51-.24-1.76-.23-3.52-.41-1.11-.88-1.82-2.19-.7-1.32-.7-2.79 0-1.11.47-2.08.47-.96 1.23-1.73h.18q.52 0 1.08-.23.56-.24 1.08-.24.59 0 .97.47t.59 1.12q.2.64.26 1.32.06.67.06 1.08.64.29 1.38.35.73.06 1.49.06t1.7-.09q.94-.09 1.9-.29.97-.21 1.88-.5.91-.29 1.55-.76 3.22-.29 5.68-1.47 2.47-1.17 5.22-2.75.12-.64.5-1.03.38-.38.38-1.14 0-.12-.03-.26-.03-.15-.03-.27-1.17-1.46-2.43-2.57-1.26-1.12-3.25-1.47-.24-.53-.77-.79-.52-.26-1.11-.5-.58-.23-1.11-.5-.53-.26-.76-.9-1.59-.3-3.26-.74-1.67-.44-2.84-1.61-.94-.06-1.78-.38-.85-.32-1.67-.64-.82-.33-1.7-.59-.88-.26-1.82-.26-.23-.41-.64-.65-.41-.23-.91-.41-.5-.17-.94-.38-.44-.2-.67-.61-.24.06-.36.23-.11.18-.41.18h-.23q-.12-.35-.47-.5-.35-.15-.41-.62-1.05-.05-1.9-.41-.85-.35-1.59-.79-.73-.44-1.49-.85t-1.7-.64q-.58-.47-1.08-1.03-.5-.55-1.26-.55-.18 0-.65.11-.11-1.05-.88-1.49-.76-.44-1.64-.79-.58-1.53-1.58-2.7-.99-1.17-2.17-2.16.12-.36.12-.53 0-.59-.29-1.03-.3-.44-.65-.73-.82-2.64-.82-5.16 0-3.51 1.56-6.53 1.55-3.02 4.89-4.54.06-.47.32-.82t.32-.82q.53 0 .82-.24.3-.23.56-.49.26-.27.56-.5.29-.24.76-.29 2.22-1.94 4.74-3.14 2.52-1.2 5.16-2.49.53-.23.88-.88h.35q.59 0 .91-.26.32-.27.97-.15.23-.35.61-.47.38-.11.76-.2.38-.09.73-.27.36-.17.47-.52h.41q1 0 1.94-.33.93-.32 1.87-.73h.41q1.17 0 2.2-.44 1.03-.44 2.2-.61.47-.12.93-.06.47.06.94.06.3 0 .71-.06t.58-.35h.12q.35 0 .41.23.06.24.35.24.41 0 .82-.12t.82-.12q1.76 0 3.49.35 1.73.35 3.42.65.12.7.62.99.5.3 1.08.53v.24q0 .46.24.76-.24.82-.82 1.23-.59.41-1.29.7.29.23.35.65.06.41.06.76v.7l-.29-.06q-.94 0-.94.88-.76-.47-1.67-.59-.91-.11-1.79-.11-1.17 0-2.46.08-1.29.09-2.52-.02-.47.58-1.17.85-.7.26-1.41.26-.76 0-1.46-.32-.7-.33-1-.97-.29-.12-.53-.12h-.52q-.94 0-1.85.21-.91.2-1.84.47-.94.26-1.85.52-.91.27-1.85.33-.35.46-.93.64-.59.18-.94.65-1.23.23-2.23.79-.99.55-1.93 1.2l-1.82 1.23q-.88.58-1.99.99-.82.88-1.52 1.41-.71.53-1.82.94-.7.23-.79.7-.09.47-.5.94-.35.41-.85.61-.5.21-.85.68-.29.41-.44.96-.14.56-.32 1.09-.17.53-.41 1.02-.23.5-.7.85 0 .24-.03.47-.03.24-.03.41 0 .82.2 1.67.21.85.27 1.67 1.17 2.05 2.75 3.72 1.58 1.67 3.4 3.08 1.82 1.41 3.78 2.64 1.96 1.23 3.9 2.4.7-.06 1.29.14.58.21 1.23.27.7.53 1.64.82l1.87.58q.94.3 1.82.68.88.38 1.46 1.02.3.06.53.15.23.09.53.09.35 0 .41-.24 2.63 1 5.15 2.2 2.52 1.2 5.34 1.85 1.11.93 2.46 1.64 1.34.7 2.69 1.43 1.35.74 2.58 1.58 1.23.85 2.17 2.03.12 1.11.5 2.13.38 1.03.38 2.2zm46.75-2.11q-.17.82-.73 1.32-.55.5-1.32.79-.76.3-1.55.38-.79.09-1.43.09-.3 0-.56-.03-.26-.03-.56-.03-.29 0-.29.3 0 .29-.29.41-.3-.12-.59-.18t-.59-.06q-.41 0-.79.06-.38.06-.73.06-.47 0-.67-.12-.21-.12-.35-.26-.15-.15-.3-.32-.14-.18-.44-.3-.41-.17-.67-.06-.26.12-.79-.35-.7-.58-1.2-1.43t-.97-1.79q-.47-.94-1-1.88-.52-.93-1.23-1.64h-.46q-1.06 0-1.47.88-.29-.17-.59-.44-.29-.26-.64-.44-1.35.41-2.81.71-1.47.29-2.93.29h-.82q-.35 0-.76-.12-.59.24-1.06.56-.47.32-1.05.32-.36 0-.82-.23-.36 0-.33.29.03.29-.38.29h-.52q-.82 0-1.62.06-.79.06-1.61.06-1.11 0-2.28-.29-.3.17-.65.17-.23.12-.35.38-.12.27-.23.47-.12.21-.33.35-.2.15-.55.09-.12.71-.59 1.12-.47.41-.47 1.23-.64.35-1.05.87-.41.53-.82 1.12-.41.58-.85 1.11-.44.53-1.09.82-.29.35-.17 1.11-.65.53-1.58.94-.94.41-1.76.41-1.7 0-2.34-1.81 0-.59.08-1.26.09-.68.27-1.29.17-.62.52-1.12.36-.49 1-.73 0-.53-.35-.73-.35-.21-.29-.73 1.58-.76 2.75-2 1.17-1.23 2.14-2.6l1.96-2.79q1-1.4 2.23-2.52V45q1.76-1.87 2.28-4.21.65-.12.85-.59.21-.47.21-1.11.29 0 .38-.27.09-.26.5-.14.52-1.41 1.17-2.58.64-1.17 1.29-2.38.64-1.2 1.14-2.49.5-1.28.73-2.87.82-.06.91-.79.09-.73.21-1.32.87-.82 1.31-1.93.44-1.11.8-2.31.35-1.21.79-2.41.44-1.2 1.26-2.14v-.17q0-.29-.24-.38-.23-.09-.23-.38.06-.06.06-.12.7-.29 1.05-.97.35-.67 1.06-.96 1.23.99 2.16 1.2.94.2 2.46.32.77.82.85 1.96.09 1.15.38 2.26.47 1.87 1.03 3.66t.85 3.66q.18 1.12.64 2.11.47 1 .65 2.05.12.82 0 1.85-.12 1.02.23 1.79l.41.93q.3.65.5 1.35.21.7.38 1.41.47 1.76.85 3.78.38 2.02 1.2 3.66.3.58.91.82.62.23 1.38.32.76.09 1.49.06t1.26-.03h.59q.35 0 .7.12.24.47.24.82 0 .7-.47 1.11-.47.41-.47.94 0 .29.23.64-.23-.06-.7-.06-1.35 0-2.64.47.47 1 1.26 1.67.79.68 1.67 1.26.59-.47 1.23-.47.71 0 1.32.33.62.32 1.32.32.53 0 .76-.18.47.53.76 1.09.3.55.76 1.02zm-18.34-9.37q-.11-1-.38-1.44-.26-.44-.44-1.08-.23-.82-.32-1.76-.09-.94-.26-1.82-.41-1.99-.91-3.98t-1.26-3.87q.23-.35.23-.64v-.18q-.52-.58-.76-1.43-.23-.85-.44-1.7-.2-.85-.52-1.58-.33-.74-1.03-1.21-.17.36-.17.82 0 .41.08.77.09.35.09.76-.58.29-.85.91-.26.61-.85.96-.47 1.88-1.35 3.55-.87 1.67-1.84 3.31-.97 1.64-1.85 3.31-.88 1.67-1.4 3.49-.77.52-1.03 1.34-.26.82-.26 1.64.52.3 1.2.33.67.03 1.32.03.64 0 1.23.11.58.12 1.05.59.76-.24 1.67-.32.91-.09 1.5-.5 1.17.41 2.52.41.7 0 1.37-.12.68-.12 1.32-.29.53.12.82.38.29.26.88.2.29-.23.35-.49.06-.27.29-.5zm49.81-1.41q0 .65-.47.97-.47.32-.47.85 0 .23.24.58-.82 0-1.12.53-.29.53-.58 1.17h-.76q-.3 0-.47.12-.18.12-.33.32-.14.21-.38.62-1.11.23-2.14.73-1.02.5-1.99 1.05-.96.56-1.96 1.12-1 .55-2.05.91-.53.88-1.52 1.4h-.18q-.29.06-.5-.09-.2-.14-.5-.14-.17 0-.23.06-1.76 1.17-3.93 1.17-.58 0-1.11-.09-.53-.09-1.11-.09-.18 0-.24.12l-.11.23q-.06.12-.15.24t-.44.12q-.65 0-1.29-.18t-1.35-.06q-1.34-.76-2.11-1.46-.76-.71-1.4-2.11-.3-.65-.79-1.23-.5-.59-.74-1.29-.05-.24-.17-.85-.12-.62-.24-1.32-.11-.7-.2-1.35-.09-.64-.09-.88 0-.7.09-1.37.09-.68.2-1.38.36-2.23.5-4.48.15-2.26.97-4.37-.12-.64-.12-1.23v-1.29q0-1.11-.29-1.87.47-.76.47-1.7 0-1.06-.88-1.23v-.18q0-1.23-.82-1.93 0-2.05 1.02-3.08 1.03-1.02 2.73-1.79.23-.35.17-.58.41.12.77.23.35.12.7.12.58 0 1.05-.18.18.71.91.85.73.15 1.2.39v.76q0 1.81.88 3.45-.23.47-.29 1-.06.53-.06 1 0 .7.06 1.4.06.71.06 1.35 0 .7-.15 1.41-.15.7-.67 1.23-.06.76-.09 1.73-.03.96-.12 1.96-.09.99-.32 1.93-.24.94-.7 1.53-.06.87-.09 1.78t-.03 1.73q0 1.29.15 3.05.14 1.76.79 2.93.29.47 1.14.7.85.23 1.38.23.64 0 1.31-.2.68-.21.97-.73.35.06.47.35t.41.47q3.34-1.41 6.68-2.7 3.34-1.29 6.56-2.99.47.24 1 .24.58 0 1.17-.12t1.17-.12h.41q.12.36.12.53zm45.06-22.62h.17q-.23.77-.76 1.41l-.99 1.23q-.47.59-.8 1.26-.32.67-.2 1.55-.12 0-.29-.03-.18-.03-.3-.03-.93 0-1.43.44-.5.44-1.32.74-.12-.35-.29-.68-.18-.32-.53-.44-1.41.3-2.81.44-1.41.15-2.82.38-.64.12-1.28.33-.65.2-1.35.38-.35.11-.76.08-.41-.02-.82.03-1.41.06-3.05.21t-2.93.91q-.59-.12-1.23-.18-.65-.06-1.29-.06-1.41 0-3.08.27-1.67.26-2.96 1.02-.29-.12-.61-.17-.32-.06-.73-.06-.12 0-.18.03t-.17.03q-.06.52.14 1.02.21.5.73.79-.23.65-.23 1.41 0 1 .15 1.99.14 1 .14 1.99 0 1.12-.29 1.76.59 1.76.59 3.75 0 .7-.09 1.38-.09.67-.09 1.43 0 .65.47 1.03t.47 1.02q0 .24-.12.47.82-.17 1.58-.49.76-.33 1.58-.33.47 0 .91.18.44.17.79.47-.05.29-.08.64-.03.35-.03.71 0 .64.03 1.2.03.55.08 1.2-.46.82-1.08 1.46-.62.65-.85 1.64-.88 0-1.55.38-.68.38-1.26.82-.59.44-1.17.82-.59.39-1.29.39-.88 0-1.23-.27-.36-.26-.53-.56-.18-.29-.32-.52-.15-.24-.62-.18-.12-.76-.47-1.43-.35-.68-.73-1.32-.38-.65-.76-1.32t-.56-1.38q-.35-1.52-.29-3.16.06-1.64-.53-3.17.12-.82.18-1.67t.06-1.67q0-1.64-.09-3.25t-.15-3.31q-.41-.53-.5-1.2-.08-.67-.14-1.32-.18-.17-.38-.35-.21-.17-.27-.47-.47-.11-.7-.11-.82 0-1.38.38-.55.38-1.02.38t-.88-.12q-.41-.12-.82-.12-.35 0-.38.15-.03.15-.27.26-.17.12-.82.24-.64.11-1.43.2-.79.09-1.53.15-.73.06-.96.06-.94 0-1.44-.38t-1.2-.85q.12-.35.12-.47 0-.59-.35-.97-.36-.38-.36-.67 0-.65.5-1t.56-1.11q1.35-.59 2.75-.88 1.41-.29 2.87-.47 1.47-.18 2.9-.41 1.44-.23 2.85-.76.41.06.79.09.38.03.79.03 1.76 0 3.48-.39 1.73-.38 3.55-.38.47 0 .94.06t.93.18q2.35-.35 4.66-.76 2.32-.41 4.78-.71 1.17-.11 2.31-.2 1.15-.09 2.32-.27.41-.05.61-.2.21-.15.21-.62.52.24 1.17.24 1 0 1.93-.35.94-.35 1.94-.35.23 0 .41.02.17.03.35.03.41 0 .44-.38.03-.38.55-.49.41-.12 1.18-.18.76-.06 1.61-.15.85-.08 1.58-.23.73-.15 1.08-.44l.41-.65q1.06.06 1.56.91.49.85.55 1.85.24.23.68.2.44-.03.79-.03z"/></svg>