<svg viewBox="0 0 300 80" xmlns="http://www.w3.org/2000/svg"><path d="M66.14 30.24q-.08.41-.38.64-.29.24-.64.24-.53 0-.85-.34-.32-.34-.32-.78t.09-.86q.08-.43.08-.84 0-2.13-1.32-3.83-1.31-1.7-3.73-2.86t-5.87-1.77q-3.46-.62-7.71-.62-3.25 0-6.55.43-3.29.42-6.33 1.23-3.03.8-5.66 2.02-2.64 1.22-4.59 2.81-1.95 1.6-3.06 3.55-1.11 1.95-1.11 4.26 0 1.79.77 3.15.78 1.36 2.13 2.37 1.34 1.01 3.17 1.73 1.84.72 3.97 1.2 2.14.49 4.46.79 2.31.31 4.66.52l4.51.38q3.37.29 6.03.61 2.67.32 4.69.82 3.37.85 4.98 2.43 1.61 1.59 1.61 4.22 0 2.55-1.4 4.48-1.41 1.94-3.84 3.26-2.43 1.31-5.69 1.99-3.25.67-6.97.67-4.04 0-7.1-.54-3.06-.54-5.13-1.2-2.07-.66-3.15-1.22-1.08-.55-1.17-.61-.53-.29-.53-.94 0-.5.35-.8.35-.31.76-.31.33 0 .59.17.03 0 1.01.52.98.51 2.93 1.12 1.95.62 4.82 1.12 2.87.5 6.68.5 3.78 0 6.68-.62t4.88-1.71q1.98-1.1 2.99-2.58 1.01-1.48 1.01-3.21 0-1.03-.37-1.77-.37-.75-1.01-1.29t-1.54-.92q-.89-.39-1.95-.65-1.11-.29-2.38-.5-1.28-.2-2.63-.35-1.34-.14-2.71-.26-1.36-.12-2.68-.24l-4.51-.38q-5.33-.44-9.3-1.36-3.97-.92-6.61-2.37-2.63-1.45-3.95-3.47-1.32-2.03-1.32-4.72 0-2.76 1.24-5.05 1.25-2.3 3.4-4.15 2.16-1.85 5.04-3.21 2.89-1.36 6.17-2.27 3.28-.91 6.8-1.36 3.51-.46 6.91-.46 4.25 0 7.4.52 3.15.51 5.39 1.32 2.24.8 3.68 1.83 1.43 1.02 2.31 2.02 2.08 2.43 2.08 5.54 0 1.02-.21 1.96zm19.87 22.59q-.12.23-.49.98-.36.74-.93 1.71-.57.97-1.34 2.02-.76 1.06-1.7 1.94-.93.88-2.02 1.45-1.08.57-2.28.57-1.7 0-2.86-1.09-1.16-1.08-1.68-2.72-1 1.67-2.38 2.65-1.37.98-2.75.98-1.08 0-1.96-.39-.88-.4-1.5-1.12-.61-.71-.95-1.68-.34-.97-.34-2.11 0-2.29.78-4.03.78-1.74 1.98-2.91 1.2-1.18 2.65-1.76 1.45-.59 2.8-.59.91 0 1.67.25.76.25 1.3.54.54.3.84.55.29.24.32.27.32.38.32.79 0 .44-.32.78t-.76.34q-.47 0-.79-.32-.06-.06-.27-.22-.2-.17-.56-.34-.35-.18-.83-.31t-1.1-.13q-.91 0-1.93.41-1.03.41-1.88 1.27-.85.87-1.42 2.17-.57 1.31-.57 3.09 0 .56.12 1.13.11.57.41 1.04.29.47.79.76.5.3 1.23.3.53 0 1.22-.36.68-.35 1.31-1.08.63-.73 1.15-1.85.51-1.11.71-2.63.06-.41.38-.69.33-.28.77-.28.41 0 .71.32.31.33.34.74.03.55.12 1.56t.39 2.01q.31 1 .93 1.73.61.73 1.7.73.7 0 1.39-.38t1.35-1.01q.65-.63 1.25-1.44.61-.8 1.1-1.62.5-.82.88-1.58l.65-1.32q.14-.32.42-.5.28-.18.6-.18.5 0 .81.37.31.37.31.78 0 .2-.09.41zm17.14.05q-.18.33-.6 1.18-.43.85-1.15 1.92-.71 1.06-1.71 2.21-1 1.14-2.29 2.09-1.28.95-2.88 1.57-1.6.61-3.47.61-1.67 0-2.96-.6t-2.2-1.69q-.91-1.1-1.38-2.6-.47-1.49-.47-3.31 0-1.76.5-3.29.5-1.54 1.37-2.68.86-1.15 2-1.81 1.14-.66 2.43-.66.97 0 1.76.34t1.33.89q.55.56.85 1.24.31.67.31 1.34 0 .65-.16 1.2-.16.56-.41.99-.25.42-.57.67-.32.25-.65.25-.49 0-.8-.32-.31-.33-.31-.79 0-.24.1-.42.11-.17.24-.36.13-.19.23-.47.11-.28.11-.72 0-.61-.58-1.11-.57-.5-1.45-.5-.82 0-1.56.5-.75.5-1.31 1.33-.55.84-.89 1.96-.34 1.13-.34 2.39 0 1.2.3 2.29.29 1.08.87 1.92.59.83 1.48 1.33.9.5 2.13.5 1.58 0 2.93-.57 1.34-.57 2.46-1.45 1.11-.88 1.96-1.92.85-1.04 1.45-1.97.6-.92.94-1.61.34-.69.39-.86.12-.29.4-.46.28-.16.6-.16.5 0 .81.36.3.35.3.79 0 .17-.11.46zm1.08-3.92q-.12.79-.29 1.48-.18.69-.34 1.2-.16.51-.28.83-.11.33-.14.36-.3.67-1.03.67-.41 0-.76-.31-.35-.31-.35-.77 0-.18.06-.27.05-.09.17-.35.12-.26.29-.88.18-.61.44-1.9-.49 0-1.02-.03t-.98-.21q-.46-.17-.75-.55t-.29-1.06q0-.5.28-1.35.27-.85.74-1.67t1.06-1.42q.58-.6 1.17-.6.67 0 1.1.5.42.5.66 1.22.23.71.33 1.51.11.79.11 1.37.49 0 .98-.01.48-.02.92-.02 1.67 0 2.55.74.88.73.88 2.4 0 .67-.09 1.4-.09.74-.2 1.51-.12.78-.21 1.54t-.09 1.5q0 1.05.3 1.74.29.69.73 1.1.44.41.94.57.49.16.9.16 1.26 0 2.38-.82 1.11-.82 2.05-1.98.93-1.16 1.68-2.44.75-1.29 1.25-2.26.14-.26.41-.41.26-.15.55-.15.53 0 .82.34.3.34.3.75 0 .29-.12.52-.67 1.21-1.57 2.71-.89 1.51-2.03 2.83-1.15 1.32-2.57 2.23-1.42.91-3.12.91-1.05 0-1.99-.4t-1.63-1.14q-.68-.75-1.09-1.85-.41-1.1-.41-2.47 0-1.47.29-2.92t.29-2.77q0-.55-.25-.83-.25-.28-1.1-.28h-.89q-.48 0-1.04.03zm-3.25-2.17h1.29q0-.2-.02-.54-.01-.34-.06-.66-.04-.32-.11-.56-.08-.23-.16-.23-.09 0-.22.22-.14.22-.28.53-.15.3-.27.66-.11.35-.17.58zm41.01 6.04q-.11.23-.48.98-.37.74-.94 1.71t-1.33 2.02q-.76 1.06-1.7 1.94-.94.88-2.02 1.45t-2.29.57q-1.69 0-2.85-1.09-1.16-1.08-1.69-2.72-.99 1.67-2.37 2.65-1.38.98-2.75.98-1.09 0-1.97-.39-.88-.4-1.49-1.12-.62-.71-.95-1.68-.34-.97-.34-2.11 0-2.29.78-4.03.77-1.74 1.97-2.91 1.21-1.18 2.66-1.76 1.45-.59 2.79-.59.91 0 1.67.25.77.25 1.31.54.54.3.83.55.3.24.32.27.33.38.33.79 0 .44-.33.78-.32.34-.76.34-.47 0-.79-.32-.06-.06-.26-.22-.21-.17-.56-.34-.35-.18-.83-.31-.49-.13-1.1-.13-.91 0-1.94.41-1.02.41-1.87 1.27-.85.87-1.42 2.17-.57 1.31-.57 3.09 0 .56.11 1.13.12.57.41 1.04.3.47.8.76.49.3 1.23.3.52 0 1.21-.36.69-.35 1.32-1.08.63-.73 1.14-1.85.52-1.11.72-2.63.06-.41.38-.69.32-.28.76-.28.41 0 .72.32.31.33.34.74.03.55.11 1.56.09 1.01.4 2.01.31 1 .92 1.73.62.73 1.7.73.71 0 1.39-.38.69-.38 1.35-1.01.66-.63 1.26-1.44.6-.8 1.1-1.62.5-.82.88-1.58.38-.77.64-1.32.15-.32.43-.5t.6-.18q.5 0 .8.37.31.37.31.78 0 .2-.09.41zm4.75 5.56q.44-.88 1.13-2.18.69-1.3 1.43-2.62.75-1.32 1.47-2.49.72-1.17 1.21-1.79.85-1.02 1.76-1.46.91-.44 1.67-.44.76 0 1.31.32.54.32.89.86t.53 1.26q.17.72.17 1.54 0 .47-.04 1.23-.05.76-.09 1.64-.04.88-.09 1.82-.04.94-.07 1.76.44-.88 1-1.95.55-1.07 1.12-2.13.57-1.05 1.1-1.97.53-.93.97-1.51 1.26-1.73 2.36-2.32 1.1-.58 1.95-.58.99 0 1.64.36.64.37 1.01.94.36.57.51 1.28.15.7.15 1.34 0 1-.15 2.08-.15 1.09-.15 2.58 0 .62.06 1.23.06.62.25 1.09.19.46.6.76.41.29 1.11.29.77 0 1.5-.4.73-.39 1.41-1.04.67-.64 1.27-1.46t1.1-1.64q.5-.82.88-1.57.38-.75.61-1.27.15-.32.41-.5.27-.18.59-.18.5 0 .8.37.31.37.31.78 0 .2-.09.41-.11.23-.46.98-.36.74-.94 1.7-.59.95-1.36 2-.78 1.06-1.72 1.95-.94.9-2.02 1.47t-2.29.57q-1.28 0-2.09-.46-.81-.45-1.29-1.21t-.66-1.76q-.17-1-.17-2.08 0-1.44.14-2.65.15-1.22.15-1.89 0-.73-.13-1.11-.13-.38-.33-.55-.19-.16-.36-.17-.18-.02-.27-.02-.7 0-1.47.78-.78.78-1.6 2.07-.82 1.28-1.69 2.93-.86 1.64-1.74 3.33l-.83 1.56q-.34.61-.65.96-.31.36-.6.5-.29.15-.64.15-.77 0-1.16-.53-.4-.53-.4-1.38 0-.43.03-1.17.03-.73.06-1.61.03-.88.09-1.81.06-.94.09-1.81.03-.86.06-1.53.03-.68.03-1.03 0-.76-.27-1.1-.26-.34-.61-.34-.33 0-.72.24-.4.23-.92.91-.41.52-1.04 1.53-.63 1.02-1.34 2.25-.7 1.23-1.39 2.52-.69 1.28-1.19 2.31-.61 1.23-1.23 1.68-.61.46-1.2.46-.85 0-1.26-.51-.41-.52-.41-1.37 0-.08.05-1.05.04-.97.1-2.36l.13-2.97.13-2.96q.03-.73-.06-1.35-.08-.61-.23-.73-.23.06-.92 1.08-.69 1.03-1.75 3.58-.14.32-.44.49-.29.18-.61.18-.5 0-.79-.34-.29-.33-.29-.77 0-.21.08-.44 1.32-3.14 2.52-4.62t2.35-1.48q.67 0 1.12.31.46.31.72.79.27.49.38 1.1.12.62.12 1.2 0 2.61-.13 4.78-.13 2.17-.28 4.36zm35.1-.61q.61.85 1.58 1.36.97.51 2.37.51 1.44 0 2.61-.69 1.17-.68 2.14-1.8.97-1.11 1.73-2.49.76-1.38 1.37-2.75.15-.32.41-.49.27-.16.59-.16.5 0 .81.36.3.35.3.76 0 .14-.03.25-.02.1-.08.22-2.02 4.45-4.41 6.7-2.39 2.26-5.41 2.32-1.93 0-3.34-.75-1.4-.75-2.31-1.93-.91-1.19-1.35-2.68-.44-1.5-.44-2.99 0-1.49.37-2.75.36-1.26 1.05-2.2.69-.94 1.64-1.47.95-.52 2.1-.52.67 0 1.33.27.66.28 1.19.8.52.51.85 1.24.32.73.32 1.67 0 1.2-.41 2.26-.41 1.05-1.13 1.96-.72.91-1.71 1.67-1 .76-2.14 1.32zm-.88-1.91q.91-.38 1.65-.96.75-.59 1.28-1.29.53-.71.82-1.48.29-.78.29-1.57 0-.88-.44-1.33-.44-.46-1.02-.46-.79 0-1.35.44t-.91 1.15q-.35.7-.51 1.56-.16.87-.16 1.72 0 .52.1 1.11.1.59.25 1.11zm19.19 2.49q.47-.96 1.08-2.12.62-1.16 1.32-2.34.7-1.19 1.48-2.36t1.63-2.23q.85-1.02 1.71-1.48.86-.45 1.63-.45 1.52 0 2.25 1.11t.73 2.75q0 .39-.04.93t-.09 1.15q-.04.62-.09 1.25-.04.63-.04 1.19 0 .7.07 1.34.08.65.28 1.13.21.48.59.76t.99.28q1.12 0 2.17-.86 1.06-.87 1.95-2.05.89-1.19 1.55-2.42t.98-1.99q.15-.32.43-.5t.6-.18q.5 0 .81.37.3.37.3.78 0 .2-.08.41-.12.23-.47.96-.35.74-.93 1.69-.57.95-1.33 2.02-.76 1.07-1.68 1.95-.93.88-2 1.46-1.07.59-2.24.59-1.32 0-2.14-.51-.82-.52-1.28-1.35-.47-.84-.63-1.85-.17-1.01-.17-2.03 0-.44.05-1 .04-.56.12-1.17.07-.62.11-1.23.05-.62.05-1.17 0-.94-.3-1.28-.29-.34-.52-.34-.47 0-1.07.55-.6.54-1.26 1.42-.66.88-1.35 1.97-.69 1.1-1.29 2.19-.6 1.08-1.11 2.06-.52.98-.81 1.63-.58 1.23-1.17 1.65-.59.43-1.2.43-.85 0-1.36-.51-.52-.52-.52-1.45 0-.21.06-.81.06-.6.15-1.44.09-.83.17-1.8l.18-1.92q.09-.95.15-1.77.06-.82.06-1.38 0-.73-.06-1.4-.06-.68-.24-.82-.26.09-.94 1.1-.67 1.01-1.72 3.56-.15.32-.44.49-.3.18-.62.18-.5 0-.79-.34-.29-.33-.29-.77 0-.21.09-.44 1.31-3.14 2.47-4.62 1.16-1.48 2.3-1.48.67 0 1.14.34.47.34.75.89.28.56.41 1.23.13.68.13 1.38 0 .53-.07 1.64-.07 1.12-.19 2.39t-.22 2.53q-.1 1.26-.19 2.11zm43.91-26.69q0 .47-.32.75t-.79.28H228.1v.32q0 1.79-.27 3.81-.26 2.02-.71 4.03-.46 2.01-1.03 3.91-.57 1.9-1.17 3.52-.6 1.61-1.19 2.79-.58 1.19-1.05 1.78.38 1.34.91 2.5.52 1.16 1.18 2.02.66.87 1.42 1.36.77.5 1.64.5 1.03 0 2.04-.86 1.01-.87 1.88-2.05.86-1.19 1.52-2.41.66-1.21.95-1.94.29-.71 1.03-.71.49 0 .8.36.31.35.31.76 0 .2-.09.41l-.42.93q-.34.74-.88 1.7-.54.97-1.26 2.04t-1.61 1.95q-.9.88-1.92 1.46-1.03.59-2.17.59-2.02 0-3.63-1.32-1.61-1.32-2.74-3.69-1.13-2.37-1.72-5.63-.58-3.25-.58-7.12 0-.96.03-2.27.03-1.3.11-2.75.09-1.45.27-2.99.17-1.54.47-3H209.7q-.47 0-.79-.28-.32-.28-.32-.75 0-.46.32-.74.32-.28.79-.28h11.01q.3-1.06.69-1.94.4-.87.91-1.52.51-.64 1.14-1.01.63-.37 1.4-.37.73 0 1.27.37t.92 1.01q.38.65.6 1.52.22.88.34 1.94h14.97q.47 0 .79.28.32.28.32.74zM222 49.93q.88-1.94 1.6-4.18.72-2.24 1.23-4.53.51-2.28.79-4.48.28-2.2.28-4.04h-3.46q-.41 1.82-.66 4.5-.24 2.68-.24 6.51 0 2.14.11 3.59.12 1.45.35 2.63zm2.73-21.92q-.27 0-.76.57-.5.57-1 2.07h2.81q-.14-1.23-.42-1.94-.28-.7-.63-.7zm-2.26 24.05v-.02.02zm25.37 5.72q-.73 0-1.29-.12-.43.88-1.05 1.63-.62.74-1.42 1.3-.81.56-1.8.88-1 .32-2.17.32-1.38 0-2.52-.48-1.14-.49-1.99-1.35-.85-.86-1.32-2.08-.47-1.22-.47-2.68 0-1.88.67-3.27.68-1.39 1.56-2.31.88-.92 1.75-1.38.88-.45 1.32-.45.5 0 .75.26t.25.7q0 .5-.31.75t-.77.48q-.47.24-1 .66-.53.43-.98 1.07-.46.65-.75 1.53t-.29 1.96q0 .97.29 1.8.29.84.85 1.44t1.32.93q.76.34 1.7.34 1.67 0 2.77-.78 1.1-.77 1.68-1.97-1.73-.91-2.84-2.58-1.11-1.67-1.11-3.75 0-1.67.8-2.73.81-1.05 2.13-1.05.79 0 1.49.38t1.24 1.2q.55.82.87 2.11.32 1.29.32 3.08 0 .93-.23 1.96.17.03.35.03h.38q1 0 1.79-.23.79-.24 1.43-.71.65-.47 1.16-1.2.51-.73.98-1.7.09-.17.38-.34.29-.16.59-.16.38 0 .72.31.33.31.33.81 0 .23-.11.51-.12.28-.24.51-.5.88-1.16 1.69-.66.8-1.55 1.4-.89.6-2.01.96-1.11.35-2.49.32zm-5.01-7.39q0 .56.15 1.18.15.61.45 1.21.31.6.77 1.14.45.55 1.07.93.08-.62.08-1.2 0-.79-.11-1.61-.12-.83-.34-1.51-.22-.69-.54-1.12-.32-.42-.76-.42-.18 0-.47.26-.3.27-.3 1.14z"/></svg>