<svg viewBox="0 0 510 80" xmlns="http://www.w3.org/2000/svg"><path d="M45.34 30.2q-1.98-.24-6.96-.66-2.76-.12-4.44-.12-2.16 0-4.08.12v-9.3h1.5q4.92 0 10.2.66 1.68.24 3.78.66v8.64zm-9.9 32.22v-12.6q0-1.26-.18-1.83-.18-.57-.6-.78-.42-.21-1.44-.33l-7.38-.9q-6.54-.72-8.82-4.26-1.02-1.5-1.38-3.66-.36-2.16-.36-5.28 0-6.66 3.42-9.6 2.76-2.4 8.64-2.82v12.06q0 .78.06 1.32t.24.84q.18.36.6.51.42.15 1.26.21l8.28 1.02q2.58.36 4.2.9t2.76 1.68q2.7 2.82 2.7 10.02 0 7.62-3.36 10.68-1.5 1.38-3.63 2.01-2.13.63-5.01.81zm-3.18.06q-6 0-11.16-.54-3.06-.3-4.62-.6v-8.76q3.54.3 8.1.6 2.88.12 4.08.12 3.24 0 4.26-.18v9.36h-.66zM68.8 62V43.04q0-1.56-.12-2.22-.12-.66-.72-.96-.54-.3-2.04-.42-.9-.06-3.9-.06-2.88 0-5.34.24l-3.18.18V32q5.64-1.08 12.18-1.08 5.04 0 7.89.72 2.85.72 4.29 2.28 1.26 1.44 1.65 3.66.39 2.22.39 6.18V62H68.8zm-8.88.42q-4.14 0-6.12-2.31-1.98-2.31-1.98-6.99 0-2.88.42-4.65.42-1.77 1.44-2.79 1.02-1.08 2.82-1.53 1.8-.45 4.74-.45l5.04.12v5.34h-.6q-1.38 0-1.8.06-1.2.06-1.26 1.14-.06.36-.06 1.5 0 .9.09 1.38.09.48.33.78.3.42.9.48.84.12 1.8.12h.6v6.12q-1.32 1.02-2.79 1.35-1.47.33-3.57.33zm26.7-36.36v-8.64h11.1v8.64h-11.1zm0 35.94V31.4h11.1V62h-11.1zm31.56-19.44v-9.42q1.26-1.2 2.97-1.71 1.71-.51 4.23-.51v10.02q-2.7 0-4.41.36t-2.79 1.26zM104.56 62V31.4h11.1V62h-11.1zm40.56 0V43.04q0-1.56-.12-2.22-.12-.66-.72-.96-.54-.3-2.04-.42-.9-.06-3.9-.06-2.88 0-5.34.24l-3.18.18V32q5.64-1.08 12.18-1.08 5.04 0 7.89.72 2.85.72 4.29 2.28 1.26 1.44 1.65 3.66.39 2.22.39 6.18V62h-11.1zm-8.88.42q-4.14 0-6.12-2.31-1.98-2.31-1.98-6.99 0-2.88.42-4.65.42-1.77 1.44-2.79 1.02-1.08 2.82-1.53 1.8-.45 4.74-.45l5.04.12v5.34h-.6q-1.38 0-1.8.06-1.2.06-1.26 1.14-.06.36-.06 1.5 0 .9.09 1.38.09.48.33.78.3.42.9.48.84.12 1.8.12h.6v6.12q-1.32 1.02-2.79 1.35-1.47.33-3.57.33zm71.22-32.22q-1.98-.24-6.96-.66-2.76-.12-4.44-.12-2.16 0-4.08.12v-9.3h1.5q4.92 0 10.2.66 1.68.24 3.78.66v8.64zm-9.9 32.22v-12.6q0-1.26-.18-1.83-.18-.57-.6-.78-.42-.21-1.44-.33l-7.38-.9q-6.54-.72-8.82-4.26-1.02-1.5-1.38-3.66-.36-2.16-.36-5.28 0-6.66 3.42-9.6 2.76-2.4 8.64-2.82v12.06q0 .78.06 1.32t.24.84q.18.36.6.51.42.15 1.26.21l8.28 1.02q2.58.36 4.2.9t2.76 1.68q2.7 2.82 2.7 10.02 0 7.62-3.36 10.68-1.5 1.38-3.63 2.01-2.13.63-5.01.81zm-3.18.06q-6 0-11.16-.54-3.06-.3-4.62-.6v-8.76q3.54.3 8.1.6 2.88.12 4.08.12 3.24 0 4.26-.18v9.36h-.66zm17.94-22.62V31.4h5.64v-8.88h11.1v8.88h6.72v8.46h-23.46zM217.96 62V42.26h11.1V62h-11.1zm34.68-12.84V43.7h4.2q0-3.36-.66-4.32-.36-.54-.96-.69-.6-.15-1.74-.15h-.84v-7.62h.84q5.16 0 7.95.84t4.11 2.76q1.2 1.68 1.47 4.32.27 2.64.27 7.92v2.4h-14.64zm2.04 13.32q-5.52 0-8.67-.93-3.15-.93-4.71-2.97-1.38-1.8-1.8-4.47-.42-2.67-.42-7.35 0-4.32.3-6.87t1.26-4.35q1.08-1.98 3.33-3.09 2.25-1.11 6.15-1.41v18.12q0 2.04.18 2.91.18.87.84 1.29.72.48 2.22.54 1.92.12 4.08.12 3.84 0 5.58-.18l3.06-.24v7.74q-2.4.72-6.6.96-2.04.18-4.8.18zm36.06-.48V47.54q0-3.18-.06-4.2-.12-1.68-.3-2.22-.24-.6-.84-.75-.6-.15-1.92-.15h-.6v-7.5q2.34-1.74 6.12-1.74 5.4 0 7.26 3.3.84 1.44 1.14 3.51.3 2.07.3 5.07V62h-11.1zm-17.34 0V31.4h11.1V62h-11.1zm57-22.2l-1.86-.18q-1.5-.24-4.32-.24-1.86 0-2.64.24v-8.7q4.26.06 8.82 1.08v7.8zm-9.24 22.68q-4.68 0-7.44-1.14-2.76-1.14-4.08-3.36-1.2-1.92-1.53-4.5-.33-2.58-.33-6.72 0-3.78.3-6.3t1.26-4.44q1.14-2.22 3.45-3.45 2.31-1.23 6.27-1.53V46.7q0 2.64.15 3.96.15 1.32.63 2.04.54.72 1.53 1.02.99.3 2.85.3 3.18 0 4.38-.18l2.04-.24v7.8q-4.44 1.08-9.48 1.08zm15.42-36.42v-8.64h11.1v8.64h-11.1zm0 35.94V31.4h11.1V62h-11.1zm17.94 0V17.42h11.1V62h-11.1zm56.94.24V41.36q0-5.22-.06-6.84-.12-2.46-.66-3.57-.54-1.11-1.74-1.35-1.2-.18-3.42-.18-2.58 0-3.36.24V20.3q.54-.06 1.62-.06h1.74q6.72 0 10.41 1.05 3.69 1.05 5.37 3.45 1.56 2.22 1.95 5.82.39 3.6.39 10.8 0 6.3-.27 9.69-.27 3.39-1.35 5.61-1.2 2.52-3.69 3.84-2.49 1.32-6.93 1.74zm-5.88.24q-8.76 0-12.6-1.92-1.98-.96-3.12-2.58-1.14-1.62-1.68-4.02-.48-2.1-.6-4.83t-.12-7.77q0-6.3.27-9.66.27-3.36 1.35-5.64 1.2-2.46 3.66-3.78 2.46-1.32 6.96-1.8v20.88q0 3.54.12 6.78.12 2.46.63 3.6.51 1.14 1.71 1.32 1.02.24 3.42.24 2.46 0 3.36-.18v9.3q-.54.06-1.62.06h-1.74zm41.7-.48V47.54q0-3.18-.06-4.2-.12-1.68-.3-2.22-.24-.6-.84-.75-.6-.15-1.92-.15h-.6v-7.5q2.34-1.74 6.12-1.74 5.4 0 7.26 3.3.84 1.44 1.14 3.51.3 2.07.3 5.07V62h-11.1zm-17.34 0V31.4h11.1V62h-11.1zm47.94-12.84V43.7h4.2q0-3.36-.66-4.32-.36-.54-.96-.69-.6-.15-1.74-.15h-.84v-7.62h.84q5.16 0 7.95.84t4.11 2.76q1.2 1.68 1.47 4.32.27 2.64.27 7.92v2.4h-14.64zm2.04 13.32q-5.52 0-8.67-.93-3.15-.93-4.71-2.97-1.38-1.8-1.8-4.47-.42-2.67-.42-7.35 0-4.32.3-6.87t1.26-4.35q1.08-1.98 3.33-3.09 2.25-1.11 6.15-1.41v18.12q0 2.04.18 2.91.18.87.84 1.29.72.48 2.22.54 1.92.12 4.08.12 3.84 0 5.58-.18l3.06-.24v7.74q-2.4.72-6.6.96-2.04.18-4.8.18z"/></svg>