<svg viewBox="0 0 300 80" xmlns="http://www.w3.org/2000/svg"><path d="M52.61 65.8l-1.18.36-1.29-.71q-.46-.58-.35-1.52 3.64-2.58 5.77-5.16 2.14-2.57 2.9-6.18.77-3.6.77-14.27.35-.82 1.17-1.17h1.05q.82.35 1.18 1.17l.23 1.41q-.12 8.09-.47 10.61-.35 2.52-.94 5.04 1.64 2.22 3.64 4.16 1.99 1.93 3.98 3.69v.93q-.35.82-1.17 1.18h-1.17q-1.88-1.29-3.58-2.93-1.7-1.64-3.1-3.52-1.53 2.11-3.43 3.87-1.91 1.76-4.01 3.04zm-11.84.24l-1.17-.59q-.59-.7-.71-1.64l-.35-12.36q-1.75 2.46-2.99 5.01-1.23 2.55-2.51 5.01-.94.82-2.23.7l-1.17-.58q-.71-.82-.59-2.11 1.52-3.52 3.34-7.01 1.82-3.48 4.04-6.76l-3.16.23q-1.64.29-1.76-2.69l-.58-11.02q.11-2.11 1.11-2.23 1-.11 6.62-.23l-.12-5.22-4.8.3q-.94-.12-1.64-.76-.71-.82-.59-2.11l.59-1.18q1.29-.82 2.93-.76 1.64.06 3.28-.06l-.12-5.39.59-1.17q.82-.7 2.11-.58l1.17.58q.82 1.29.82 2.99v3.34h5.16l1.17.59q.7.82.58 2.11l-.58 1.17q-1.29.82-2.93.76-1.64-.06-3.17-.06l.12 5.33q2.93-.35 4.83-.11 1.91.23 1.88 2.05-.03 1.81.32 12.12-.29 1.88-1.61 2.06-1.32.17-4.36-.18l4.33 4.1.12 1.41-.59 1.17q-.94.7-2.22.59l-2.82-2 .35 13.42-.58 1.17q-.82.71-2.11.59zm-23.14-.12q-.94-.12-1.65-.7-.7-.94-.58-2.23l.82-1.4q1.99-1.29 3.98-2.76 2-1.46 4.22-2.17l1.17.59q.71.82.59 2.11l-.94 1.41-5.86 4.45q-.82.58-1.75.7zm36.73-8.79q-.93-.11-1.64-.7-1.05-1.93-1.34-26.37-.18-2.75 1.23-2.75 1.4 0 7.55-.12.59-2.34 3.52-9.08l-6.33.12-2.4 5.39q-.59.47-1.52.35-.82-.35-1.18-1.17l-.11-.71q1.87-5.27 2.28-6.38.41-1.12 2.81-1 9.5-.12 10.52.15 1.03.26.15 2.08-3.05 7.79-4.22 10.25l4.1-.12q1.7-.23 1.76 1.76-.24 18.99-.24 21.21 0 2.23-.7 4.1-.82.77-2.11.65l-1.17-.65q-1.05-1.75-.7-3.98l.35-18.4-8.85.12.65 23.38-.65 1.17q-.82.59-1.76.7zM34.91 41.25l3.75-.23v-6.68l-4.22.12.47 6.79zm8.32-.23h3.52l-.24-6.8h-3.28v6.8zm-18.34-7.03q-2.11-.59-4.28-1-2.16-.41-4.27-1.11-.71-.82-.59-2.11l.59-1.17q1.29-.82 3.04-.59 1.88.47 3.75.82 1.88.35 3.69 1.17.71.82.59 2.11l-.59 1.18q-.87.58-1.93.7zm2.4-11.66q-2.4-.7-4.86-1.35-2.46-.64-4.8-1.35-.83-.93-.71-2.22l.59-1.18q1.05-.82 2.58-.58l4.48 1.17q2.25.59 4.36 1.41.82.93.71 2.22l-.59 1.18q-.82.58-1.76.7zM80.32 65.8l-1.17-.58q-.7-.94-.59-2.23 4.1-8.08 5.28-16.96 1.17-8.88 1.05-18.6.12-2.64 1.96-2.88 1.85-.23 5.07-.29 3.22-.06 16.96-.23 13.75-.18 15.5.41 1.76.58 1.53 2.66-.24 2.08-.88 6.07-.65 3.98-1.17 5.97-.53 2-3.81 1.53l-30.88.12q-.82 6.32-2.11 12.56t-4.63 11.87q-.82.7-2.11.58zm9.08-29.59l30.41-.11.94-7.27-31.11.24q.11 1.87-.24 7.14zm19.22-13.3q-2.69-1.52-5.51-2.87-2.81-1.34-5.62-2.63-.7-.94-.59-2.23l.59-1.17q1.05-.82 2.58-.59 2.57 1.41 5.27 2.64 2.7 1.23 5.27 2.75.82.94.71 2.35l-.59 1.17q-.82.7-2.11.58zM163 66.1q-1.64-.35-2.82-1.58-1.17-1.23-2.05-2.52-.88-1.29-.99-2.82l.58-1.17q.82-.7 2.11-.58l1.29.82 1.52 1.75q.59-2.46 1.06-4.21.47-1.76.59-4.46l-20.22.12q-.94-.12-1.64-.7-.7-.82-.59-2.11l.59-1.18q.82-.58 1.76-.7h19.86q-.47-2.93-3.75-4.92-1.99-1.99 0-3.4 1.52-1.05 3.05-2.34 1.52-1.29 2.81-2.7h-12.77q-.94-.11-1.64-.7-.71-.82-.59-2.11l.59-1.17 1.17-.59q20.74-.7 22.38.38 1.64 1.09-1.11 3.43l-8.5 7.68q1.41 1.64 2.11 3.04.7 1.41.82 3.4 11.9.12 13.54.12 1.64 0 3.04.7.71.82.59 2.11l-.59 1.17q-1.29.94-3.04.71l-13.3-.24q-.24 4.1-1 7.33-.76 3.22-2.23 5.27-1.46 2.05-2.63 2.17zm-23.03-33.05l-1.17-.59q-1.06-2.57-1-5.53.06-2.96-.29-5.77-.12-1.88 3.04-2l19.28.59-.23-4.57.58-1.17q.94-.71 2.23-.59l1.17.59q.94 2.69.82 5.74 17.87.35 19.63.29 1.76-.06 3.08.3 1.32.35.76 2.72t-.79 4.78q-.24 2.4-.94 4.51-.82.7-2.11.58l-1.17-.58q-.82-1.06-.7-2.46l.82-5.28-40.67-.64.35 7.32-.58 1.17q-.82.71-2.11.59zm68.49 32.52q-.93-.12-1.64-.7-.93-3.64-1.02-6.92-.09-3.28-1.03-24.2l-5.5 10.32q-.82.7-2.11.58l-1.18-.58q-.82-.94-.58-2.35 3.05-6.91 7.06-13.44 4.01-6.54 7.18-13.45.93-.82 2.22-.7l1.18.58q.82.94.58 2.34-1.29 2.23-2.23 4.58-.93 2.34-2.1 4.74l1.52 37.33-.59 1.17q-.82.58-1.76.7zm22.97.23l-1.17-.58q-.82-1.17-.82-2.58l-.23-8.73q-2.93.23-5.39-.82-.71-.82-.59-2.11l.59-1.17q1.29-.94 3.16-.59l2.11.12-.12-11.95q-3.16 3.98-5.68 8.32-2.52 4.33-5.1 8.55-.82.76-2.11.65l-1.17-.65q-.59-.82-.7-1.87 2.81-5.28 5.97-10.37 3.17-5.1 6.33-10.14l-11.01.47q-.94-.12-1.64-.71-.71-.82-.59-2.1l.59-1.18q1.05-.82 2.57-.7l12.31-.35V17.17q.12-.94.7-1.64.82-.7 2.11-.58l1.17.58.59 1.17v10.37l12.71-.35 1.18.59q.7.82.58 2.11l-.58 1.17q-1.53.94-3.52.82l-9.43.23Q243.8 42.31 247.66 45q.82.94.71 2.23l-.59 1.17q-.82.71-2.11.59-1.4-.59-2.58-1.58-1.17-1-2.63-2.52-1.47-1.53-6.92-7.27l.12 11.72 6.5-.47 1.18.59q.7.82.58 2.11l-.58 1.17q-1.64.94-3.67.94-2.02 0-3.89.23l.35 10.14-.59 1.17q-.82.7-2.11.58z"/></svg>