<svg viewBox="0 0 447 80" xmlns="http://www.w3.org/2000/svg"><path d="M70.88 42.5l-.12.42q-1.32.06-3.72.78.48 0 1.11-.06.63-.06.93-.12.24-.06.66-.12.42-.06 1.02-.06l.36-.24.36.3-.9.18-.06.06q.36.3 1.02.3.24 0 .72-.12l-.72.3-.3.36-.48.06v.18q.24 0 .27.12.03.12-.15.12v.3q-1.02.06-3 .06-.66.06-1.98.06l.12 5.52.72.12.36.24-1.08.18v.18q.36.06.81.18.45.12.69.18l-.96.12.42.36-.96.06v.36h.6l.3.54.66.18-.9.12.84.48-.6.06.3.48-.6.12h.54l-.84.18q.36.12 1.2.12l-.6.36-.48-.12-.06.3h-.3v.54h.24l.3-.24.36.18-.78.36v.06l.66.3.66-.06-.6.24-.18.3-.42.06q.18.06.24.18t.03.18q-.03.06-.15-.06v.42h-.42q-.12 3.9-1.98 5.7-1.86 1.8-4.2 2.19-2.34.39-7.2.69-.84-.36-1.38-.36l.06-.12.3-.06q-.3-.06-.9-.27-.6-.21.06-.09l.24-.24-.72-.24.84.06.06-.48-.72-.06.12-.3.78-.06h-.36l-.24-.36v-.42l-.9-.12.06-.3h.42l.18-.12h-.48l-.24-.36-1.44-.12q.36-.06 1.08-.39.72-.33 1.14-.39l-.24-.12-.36.12-.12-.24h-.36l-.24-.06v-.06l.48-.12-.24-.24-.3-.06.84-.12-.06-.12h-.66l-.06-.06q0-.06.06-.09t.18-.03h.24l1.02-.18-.72-.06-.12-.06h-.42l.12-.06.42-.6-1.32-.06.9-.12.18-.42-.6-.24q.6-.12 2.07-.36 1.47-.24 2.61-.24l.36.18 1.56-.3q-1.74 0-5.22-.24-3.48-.24-5.16-.24-3.12 0-5.46.54l-.84-.18-.18.06.06-.06v-.12h-.36l-.06.12-.3-.06-.3.12v-.24l-1.38-.24q.54-.06 1.5-.54l-1.62.24-.06-.3h.54l-.06-.06-.12-.42-.36.42-.48.12v.36l-.06-.06v-.48l-.18-.3q-.12.24-.36.45-.24.21-.24.03l.18-.24-.6-.06.48-.42h-.06l-.42.18v-.24l-.36.18.06-.48-.24.48-.24-.3.24-.24-.54.48q.24-1.38.66-3.48.9-4.32.84-6.84-1.62 5.28-1.98 10.86l-.48.12-.12-.18v-.42l.24-.42-.24-.36h-.12v.3l-.3.24-.18.36-.18-.24-.24.12-.18-.42h.36q-.12-.12-.12-.6 0-1.62 1.26-7.74l.36-1.8-6.54 16.56-.96-.24q-.42.54-1.08.9l-.06-.18q.06-.36.27-1.08.21-.72.21-1.26-.18.42-.3 1.38h-.18q-.36 1.08-.72 1.5l-.78-.18q-.54.24-.99-.03-.45-.27-.78-.6l-.45-.45v-.24q0-.36-.09-.57-.09-.21-.27.21l-.24-.3-.3.3-.6-.54.06-.3-.72.06-.18-.3-.24.18-.3.72v-.3q0 .06-.06-.15t-.18-.39l-.06.18v-.48l-.18.54q-.42-.12-.84-.51t-.54-.51l7.8-18.24 1.14-.12v.18q0 .6-.36 1.56.36-.48.6-1.2t.3-.96v1.02l.18.48q.06-.24.06-.78t.3-.72l.6 1.26q.66-.96.72-1.14l.06 1.02.42-.66.18.18.9-.24-.6-.18v-.06l-.3-.06.18-.24.42.18-.3-.24.3-.18.42.18.18-.18-.24-.3h.42l-.42-.18.3-.18-.66-.12q2.82-.18 5.58-.18v-.24h-5.1l-.12-.06q-.84 0-1.68.96l-1.26-.42-.06.06.24.18.24.48q-5.16-3.24-9.78-8.52l-.36-.12-.42-.66 1.14-1.14.36 1.2.06-.6q0-.6-.3-.9l.3-.06-.3-.18-.18-.3h.54l.12.12.54-.3-.06-.48h.12v-.42l-.12-.06-.18-.54 1.32.6v-.6h-.18l.48-.18q-.24-.18-.24-.3 0-.06.18-.06.48 0 .6.12.42-.18.42-.72 0-.66-.66-1.98l.12-.06 1.2.78-.24-.54q-.3-.12-.66-.39-.36-.27-.6-.39.6.12 1.38.54.78.42 1.32.66-.24-.18-.72-.48t-.72-.6q4.32 2.1 9.18 6.96l.78-1.08q0-.18-.09-.48t-.27-.12l.36-.96h-.12l1.38-1.98-1.56 2.1-.3.18v-.3l.12-.24-.48-.24h-.12v-.48l2.22-3.36-.3.12q-.18-.12-.54-.18-.36-.06-.12.3l-.3.06.18.36-.84.42-.24-.24.06.3-.3.48-.36.06.72.84q-.84-.12-1.26-.24l.06.12.42.36h-.18l-1.14.54-8.28-7.68.24-1.02h.24q.84.72 1.32.96-.42-.54-1.44-1.38l.96.18.12-.06-1.14-.96 1.02.12.36-.18-.72-.96.54.12.36.24-.42-.54h.36l.48-.3-1.14-1.26 1.08-.24.18-.18q.72 0 .72-.48l-.24-.24-.06-.12.03-.03.03-.03q.18 0 .6.18l.12-.06 1.26.42q-.18-.6-.54-1.14v-.12l.24-.18.06.18 1.02.36.72-.72 7.98 6.9-.54.9.42 1.14h-.06l-1.02-.6q-.36-.24-1.08-.6.3.3 1.02.66l-.06.12q.6.36.96.96l6.6-10.08q.48-.18 1.14-1.08l.06.06-.54 1.26.6-.6v-.12h.18v.06q.54.78 1.2.9l-.42-.06v.36q-.3.12-.3.27 0 .15.15.18t.21-.21l.9-.66.06.48 1.14-.78.18 1.26.3-.18.06.12.42-.12-.42.9.24-.48.18.48.12-.18-.18.48.3-.12.42.18.12.3.54.12.48-.54v.06q-.12.18-.33.6-.21.42.09.06l.66-.84q-.24.54-.54 1.05-.3.51-.54 1.05.18-.18.45-.63t.51-.63q0 .66-.72 1.38h20.52l.18.24.42.24-.36.06-.24.18h-.12l-.18.18.36.18h.96l-.18.36q-.96-.24-3.06-.24-1.5 0-4.26.12-2.28.12-2.94.12 1.38.12 4.2.12 3.72 0 5.58.24l-.06.12h-.3v.06l.36.12-.36.18.36.06-.3.3h.3l-.3.18h.06l.48-.18-.06.12.3.12-.24.18.3-.12-.06.48H68q.06.06.27.12.21.06.39.06l.06.06h-.36l-.24.3-.42.12v.06l.42.18h.06l.12.3-.18.12.3.12h-1.26q-.42.3-.42.42l.03.03.03.03q.18 0 .66-.24l.06.72.54.06-.06.12q-.48-.06-1.5-.06l-.06.12q0 .18.6.3t.9.12l-1.44.18v.24l-.36-.06-.06-.12h-.36V23l-.06-.06q-4.68.36-9.42.36-2.28 0-6.84-.12l-6.84-.06-1.08 1.62q3.78 0 7.56-.18 4.92-.12 7.44-.12 4.92 0 8.16.36h.06l.42.18-1.2.36q.48.06.87.18t.69.18l-.9.24.42.3-6.66.24q1.38.12 4.2.12.72.06 2.1.06l.3.3.66.24-.9.06.78.42-.54.06.24.48q-.24-.24-.24-.06t.24.3l-.78.18 1.14.06-.6.42h-.06l-.42-.24-.06.36h-2.34q-3 0-5.4.24.84 0 2.52.12 1.8.12 2.64.12 1.68 0 2.88-.3l.18.12.18-.24.18.78h.24l-.3.3v.18l.54.24-.12.12q0 1.38.12 4.26.12 1.92.12 2.82.54 0 1.74-.12l1.68-.06q1.44 0 2.58.48l-1.68.24q.66.18 1.17.24.51.06.81.12l-.9.3.48.3-2.34.12q.42.42 1.74.42l.48.48.78.24-1.14.06.9.42-.06.06-.36-.12-.24.06.42.42-.78.24h.6l.12.12q-.36.12-1.08.12l1.5.18-.72.42h-.18l-.48-.24zm-4.74-25.74l-4.8.18q.42.06 1.32.06l1.8-.06q.54-.06 1.74-.06l-.06-.12zm-20.16 1.02l-.18.3q.72 0 1.23-.06t.81-.12l-1.86-.12zm21.96.3v-.06l-.06-.06.24.06q-.06.06-.18.06zm-47.88.3l-.24-.24.24.24zm.72 1.5v-.12l-.54-.3q.06.24.54.42zm47.34-.06v.12q.06-.06 0-.12zm-47.16.24h.18l-.3-.18.12.18zm23.1.72l-.24.36q3.66 0 5.52-.12-2.34-.24-5.28-.24zm23.52.42l-.06.06q0-.06.06-.06zM41 25.46l-.06.12q.96.06 2.82.06L41 25.46zm-.54.84l-.12.18q4.56 0 6.84-.18h-6.72zm-1.92 3.6l.06-.24-.24-.12-.12.24.12.12h.18zm26.16.18l.12-.3-.54.18.36.18.06-.12v.06zm-30.06 7.5l3.24-.06q-1.08-.12-3.18-.12l.6-3.48-.12-.06-.72.12-.42.36v-.3l.66-.66-.6-.36-.36.3.24-.6-.54-.06-.48-.42q.3-.48.84-1.14.54-.66.84-1.14-1.02.72-2.1 2.22v.06q-.36-.18-1.2-.42.06-.18.18-.36t.18-.48q.06-.3-.18-.06l.12-.6q-.24.12-.63.48t-.63.48q.24.24 1.32 1.17 1.08.93 1.14 1.41l-.42-.06.3.12.3.78-.9-.42.12.42-.12.42-.42-.12.18.3v.12q-.54.24-.54.96 0 .42.24.9-.78 0-1.14-.12v.18h-.3l-.12.06.6.54-.18.12 4.14.06.06-.54zm3.72-6.72l.06-.36h-.36l-.06.42.36-.06zm-.72 3.06q.42-.84.66-2.7l-.36-.06-.3 2.76zm3.84 2.04q.48-1.14.63-2.58.15-1.44.21-1.86h-.3q-.12 1.08-.24 1.5-.06.36-.18 1.26t-.12 1.68zm7.98-3.36l.12-.12-.3-.96H44.9l-1.14 6.54h3.36l-1.02-1.44h-.06q-.18-.42-.54-1.29-.36-.87-.78-1.41l.12-.42q.18-.12.42-.12.18 0 .3.18t.12.48l.18-.66-.12-.9q.3.54.96 1.08l-.18-1.38.9.96.3-.24.06-.42-.18-.48.42.54-.24-.84 1.02.9-.06-.06.48.06-.24-.66.48.66zm6.3-1.02h-3.18q-2.16 0-3.24-.06.18.42.66.96l-.18-.36q.96.84 1.32 1.68l-.12-.78.06-.3-.06-.06v.18h-.18v.06l-.48-.54v-.3l-.3-.24-.06-.12q0-.18 1.2.96v-.36h.24q.54 1.68 1.62 2.52l.06-.06q-.36-.3-.6-.96l.06-.36-.12-.24q-.06-.06-.06-.18t.6.48v.18l.66.24q.36 1.32 1.92 3.18l.18.66v-6.18zm1.44.06l.06-.06h-.3v.06h.24zm.42.06l.12-.12h-.18v.12h.06zm3.24-.12q.06.24.12.24t.12-.24h-.24zm1.44 0q0 .06.06 0h-.06zm-13.74.72h.06l.06.12-.12-.12zm6.78 5.4q-.24-.06-.45-.18-.21-.12-.33-.36l.18-.06-.3-.3-.54-.12q.3.6.96 1.38h.72l-.24-.36zm-24.12-.3h3.48l-.06.18h-3.48l.06-.18zm22.68.66l-.12-.18-.12.18h.24zm-24.06.9l-.6.06.66-.3-.48.12-.3.24.18.18.54-.3zm-5.4 3.78l.12-.84q-.12.18-.18.45t-.06.39h.12zm4.08-.42l.18-.12h-.06l-.24-.3h-.3l.42.42zm-4.2.78q0-.18.06-.3l-.12.12v.12l.06.06zm21.48 3.12l-.18-.18v-.72h-3.18l-.84 4.62 2.1.12-2.1-.06-.18.9h5.22l-.78-1.44h-.06q-.12-.36-.42-1.17-.3-.81-.72-1.41l.06-.54q.12-.06.3-.06.48 0 .48.6l.3-.66zm0-.9l.66 1.08.06-.18-.12-.9h-.6zm1.62.42l.12-.42h-.9l.42.6.36-.18zm1.38-.24v-.18h-.66q.54.18.66.18zm.42-.12v-.06h-.06l.06.06zm1.38 1.32l-.24-.78.24-.36-.36.12-.48-.36.24.3q.3.84.6 1.08zm.18-1.14l.12-.24h-.36v.06l.24.18zm3.6 4.32v.24q0 .6.42.72t1.14.06l-.06-5.52q-3.24 0-4.86-.06l.45.9q.33.66.69 1.2v-.12l-.24-.66.06-.84h.24q0 .12.12.51t.42.63q0 .66.72 1.68t.9 1.26zm-21.96 4.74l1.2-5.1-1.26 5.04.06.06zM53.6 50.9h.72l-.54-.42-.12-.54-.84-.42q.48.96.78 1.38zm-1.02 0h.12l-.06-.18q-.06.06-.06.18zm-11.46 1.74l6.12-.12q-2.04-.06-6.12-.06v.18zm-7.5 4.2v-.3l.18.06-.18.24zm94.74-37.92q-3.6 1.98-8.94 3.27T105.5 25.1q-3.12.54-4.86.9l.18 4.26q.24 6 .24 9.42 0 8.88-1.86 15.66-1.86 6.78-6.96 10.92 1.68-2.58 2.1-4.2-.24.42-.75 1.41t-1.08 1.68q-.57.69-1.29.87.84-1.14 1.32-2.1.48-.96.54-1.98-.18.3-.6 1.11t-.84 1.41q-.42.6-.96.96.18-.3.66-1.02.48-.72.66-1.38l-.3.06q-.24.3-.66 1.08-.42.78-.72 1.08l-.18-.06-.12.3-.48.42.3-.84q-.54.48-1.5 1.56l1.92-3.48-.9 1.32.18-.72h-.06q-.48.6-.72 1.14-.06.12-.48.78t-1.02.96l1.68-2.16.12-.24-.18.18v-.48l.54-1.02q-.66.6-.96 1.44l.36-.18-.36.54-.3-.06q.12-.3.21-.57.09-.27.21-.57-.24.42-.84 1.14l.6-1.38q-.24.3-1.47 1.74t-2.01 1.56q.3-.48.96-1.38.66-.9.84-1.68-.66.24-1.2.9-.54.66-.84.96l.42-.72q-.84.18-1.98.84l.3-.36-.24-1.08-.24-.3-.54.54-.24-.48-.12.36-.84-.6-.12.3-.18-.6-.36.42v-.06q0-.06-.06-.06t-.36.3q.06-.06.06-.18 0-.06-.06-.06-.24 0-.54.72l-.3.06q.3-.78.3-1.5l-.3.66h-.3l-.24.72-.24-.48v-.18q0-.3.06-.63t.06-.63q0-.3-.06-.48l-.9 1.26.48-2.64q-.3.6-1.32 2.16l-.18-.24q.12-.54.42-2.04l-.06-.12q-.6.66-1.08 2.22l-.18.18q.24-2.1 1.56-5.52 1.32-3.42 3.78-9.24 2.1-4.8 2.4-5.7v-.24l.42.18-.06.42-.12.12-.18.6q0 .12.24-.18t.36-.48h.3l.06-.3.66-.18-.12.54.06.06-.06.42h-.24l.24.18.18-.48.48-.06.3.24-.6.12.3.06v.72l.48-1.02h.18l.66.42.36-.6q.24.72.54 1.08l.72-.78.24.78.54-.3.18.84.66-1.32-.18 1.32.48.66.66-.12.36 1.14.12.12q-.48 1.44-.6 2.16.3-.48.54-1.56.24-1.44.72-1.74.12-2.16.12-3.24 0-1.98-.06-3.45-.06-1.47-.12-2.49Q92 31.88 92 29.9h-.06l.06-2.4-1.14-.12-.06.3q-.84.48-1.14.9v.12q.3.18.3.3 0 .24-.3.24t-.36-.42l-.24.18q-.54-.72-1.2-1.08l1.26 1.62-.54.6-.12-.24-.54-.3-.18-.3-.3-.06-.12.48-8.34-7.08.12-.42.42.06q-.42-.84-.42-1.2.42-.18.81.09.39.27.78.66t.63.57q-.48-.66-1.08-1.08l.06-.12q-.24-.24-.24-.72 0-.3.06-.48l.3-.06.42-.48-.48-.78.78.66-.06-.54h.48q-.12-.3-.21-.72t-.15-.66l1.02.66.54-.36h.3l.24.24v-.3l.6-.48.42.06v-.36l-.24-.24v-.06l-.18-.24-.06-.3.66.36.3-.06.36.3.06-.12-.18-.24-.06-.48.12.24q1.62.9 3.15 2.22 1.53 1.32 1.89 1.62l1.8 1.62q0-.36.06-.72t.06-.72q0-.3-.06-.48l-.06-.06.18-.54.66-.06.18 1.32v-.72q0-.72.12-1.02.3.36.48.36.48 0 .9-.84l.18.24.42-.72q0 .24.06 1.14.06.9.3 1.62.06-.36.06-1.02 0-.72-.06-1.02l.3.9v-.66l.18-.48.18.24v.12l.54.36.06-.3q0-.3-.18-.54-.18-.24-.54-.24l-.06-.12-.24.12h-.3l.18-.3-.24-.24.24-.24.12.24.3-.18q4.74 0 9.48-.84t11.58-2.52q1.08-.24 2.91-.69 1.83-.45 3.15-.75-.72.66-1.68 1.02l1.32-.36q-.48.36-1.68.72l1.26-.24q.42-.12 1.26-.24l-.66.78.12.06 1.44-.36q-1.32 1.08-3.3 1.68l.54.24-.54.36 3.42-.6q-1.62.48-1.62 1.02l1.02.06q-.3.3-.3.54 0 .3.66.3t1.2-.18q-.3.18-1.08.48t-1.14.6q1.62 0 3.54-.6-.6.48-1.32.78-.72.3-1.53.54-.81.24-1.29.42 1.2.06 2.94-.48-.42.18-1.44.51t-1.38.63v.06h.36l1.02-.18 2.94-.78-5.22 1.92q1.2-.06 2.25-.39t3.03-1.11l1.14-.42zm-34.32 3.84h.12q-.06-.18-.48-.6l-.06.06.42.54zm36.36 38.52q-.42-.54-1.44-1.38.36.54.78.96l-.06-.06.12.24 1.44 1.68q-.36-.18-.93-.48-.57-.3-.99-.36.6.6 1.02 1.26-1.32-.78-1.62-.78-.18 0-.18.12 0 .3.42.78l-.66-.66q-.42-.42-.78-.66v.12l.66.96-.24.24-.42-.48h-.3l.3.3-.24.06.48.54-.18-.18q-.12 0 .21.57.33.57.39.63l-1.38-1.14.78.9-1.26-.9-.12.12.54.66-.3-.18v.06l.24.24-.54-.3v.06h-.18l.3.12v.12l.24.36-.78-.54-.36.36.78.96q-1.56-1.32-1.98-1.56.36.54.72.96.36.42.66.84-3.48-1.92-6.51-5.76t-5.13-8.43q-2.1-4.59-3-8.79v13.8l4.08-.12.54.42h-.48l-.12.12q.42.18.84.3t.84.3q-.42.42-1.62.42v.18q.96.18 1.62 1.2h.06q-.72.36-.72.6t.75.27q.75.03.99.03l-1.68.12.66.36-.48.24q1.08.48 1.62.78-.18 0-.48-.06t-.66-.06q-1.32 0-1.02.84l-.12.12-.6-.06.24.3h.42l-.54.24.06.36-.72.24q.24.06.66.21.42.15.72.15l.42.18-.54.06-.12.18-.54-.12-.06.18q-.72 0-1.08.12l.12.06.54.06.24-.06.3.06q-.72.3-1.5.36t-1.59.03q-.81-.03-1.23-.03l-.24.12.36.12-.36.24-.06.24-.18-.72h-.36l-.24 1.02-.06-1.02-1.62.06q-1.2.12-1.74.12-1.08 0-1.86-.24.36-.06 1.14-.09.78-.03 1.14-.15-2.04-.12-3.06-.3.42-.06 1.2-.09t1.32-.33l-1.86-.24q-.54.36-.72.75-.18.39-.24 1.11l-.18-.78h-.18l-.18.3-.42-.54q0-3 .18-7.86.3-10.98.3-13.92 0-7.2-.6-9.78h.06l.36-1.38-.6.06.54-.42.06-.18-.06-.3.3-.12.12.12.3-.06-.24-.24.06-.24q-.72-.6-.78-.96h-.18l-.66-.3.9-.12.12-.18q.6 0 1.8-.36h-2.46l-.12-.06v-.54q.96-.42 1.74-.42l-.48-.42 20.46-4.56.42.3h-.3l-.12.24q1.08.12 1.56.36-.36.48-1.47.78-1.11.3-1.53.42l.18.06 1.44-.06q1.2 0 1.2.3 0 .12-.54.48l.3.54 1.14-.06q-.66.06-1.32.36l.6.18-.48.3q.48.24 1.56.48l-.42.18.3.78-.66.3.54.12-.24.36.06.24-.42.42q.36.06.84.06t.72.12l-.54.12-.06.18-.42.06-.12.24-.9.3q.12.06.42.06.18 0 .66-.12v.3l-.12-.06q-1.56.6-4.68 1.08-1.44.24-2.16.42.24 2.88 1.02 6.18l7.02-4.08q-.24.36-.72.69-.48.33-.66.45-.72.42-1.2.9l1.92-1.14q1.62-.96 1.86-1.08-.3.24-1.29.93-.99.69-1.53 1.47l3.24-1.86q-.3.3-.96.81-.66.51-.9.99 1.44-.54 2.46-1.14l.42-.06-.96.6-.12.36-.96.54q.54-.24 1.05-.51t1.05-.51l-.18.12v.3l-.3.12-.54.54q-.36.36-.48.78.84-.06 1.8-.6.96-.54 1.38-.72l-1.2 1.26-.3.12.42-.06-.78.66h.36l-.12.78.36.66q.24 0 .63-.3t.63-.24l.12.24-.48.36-.24.12h.06l-.72.42-.06.3q-1.62.84-2.94 1.92l4.14-2.22h.12l.18.54q-.84.3-1.38 1.02l-.42.18q-.12.12-.36.33-.24.21-.33.3-.09.09.27.03l.42-.06-6.9 4.14q2.76 5.88 6.3 9.6l1.08 1.02q.24.24.84.81.6.57 1.02 1.23-.06.06-.51.78t-.45-.06l-.06.36-.24.06 1.2 1.44q-.72-.72-1.56-.96zm-29.82-36.66v.3q1.56-.18 2.64-.6-.66 0-1.47.12-.81.12-1.17.18zm-9 1.8l.42.72-.06-1.14-.3.24-.06.18zm-6.84 15.66h-.24l-.06.24-.18.06v-.36l-.06.06-8.88-6.72-.12-.24.48-.48-.12-.36.36.18v.06l.6.36.12-.06-.72-.6.06-.3-.3-.18-.18-.9h.06l.24.48.24-.36.06.6.42-.42.06.06.12.54.72-.24.12-.12-.36-.42.48-.36-.12-.18-.06-.3.24.24h.48l-.48-.36v-.3l.54-.48q0-.48-1.5-1.14l.12-.06q1.2.36 1.92.36l-.12-.48.78.12-1.2-.96q.96.48 1.56.48.48 0 .24-.6.36.12.9.27.54.15 1.26.45l.3-.12q-1.5-.84-1.56-1.44.66.24 1.02.6l.3-.24 6.66 4.92-.06.42q.18.18.66.54.48.36.66.6l.36.06v.36l-.3.06q-.06 0-.6-.24t-.12.24l.36.36v.18l.78.72q-.78 0-1.14-.12l-.42.36.42 1.02-.24.18.18.18.12.3-.18-.12-.03.03-.03.03q.06.24.24.57.18.33.3.51-.12-.06-.66-.39t-1.05-.48q-.51-.15-.93-.09l-.06.3q.24.72.54 1.08-.3-.24-.78-.33-.48-.09-.66-.15l.72.42-.12.18.24.24.3.12h-.3q-.54-.24-1.2-.36l-.18.12.48.9q-.12-.06-.78-.27-.66-.21-1.02-.09l.3.12.84.84h-.06q-1.32-.6-1.92-.96l.12.3.66.48-.06.36.42.12zm-2.1-12.42q.42.3.84.48l-.84-.48zm21.06 2.76v-.48l-.66-.12v.12l.18.42.24-.12v.36l-.18.18.42-.36zm14.22 3.42l.54-3.3-1.26.3.72 3zm-1.44-2.88l.54 1.74-.24-1.8-.3.06zm-13.32.54l.24-.24h.18l.06-.18-.42-.06v.36l-.06.12zm12.36-.3l.72 2.04-.24-2.16-.48.12zm-1.08.18l.84 2.7-.36-2.76-.48.06zm-11.4.12h.06l-.12-.12.06.12zm10.08.18l1.08 3.54-.3-3.72-.78.18zm-9.42.42v-.42h-.48v.06l.36.48.12-.12zm8.58-.24l.96 3.36-.48-3.42-.48.06zm-1.08.24l1.26 5.82-.54-6-.72.18zm-.3.06q-.06.66-.06 1.98 0 3.66 1.08 7.68l-.9-9.66h-.12zm-3.3 1.44l.36-.18-.18-.06q-.24.12-.84.24h.66zm-1.56.18q.36-.12.6-.12l-.66.06.06.06zm-.72.18l.06-.06.24-.06-.24.06h-.18q-.06.06.12.06zm-1.14 0h.9v-.06l-.9.06zm-11.7 3.78l.54 1.2-.48-1.32-.06.12zm29.64 5.82l.06.12 1.98-1.38q-.3.12-2.04 1.26zm-35.88 16.2q4.98-6.42 5.94-15.6-1.2 2.16-2.01 4.32-.81 2.16-2.13 6.06-.78 2.58-1.8 5.22zm42.96-3.84v-.12l-.84-.9.84 1.02zm-15.66.12h-.36.36zm-20.28 3.84l.24-.3h-.18l-.24.3h.18zm-8.58 1.74q.18-.84.12-1.5-.54 1.14-.6 2.04l.48-.54zm20.1-.78q.24 0 .12-.06h-.06l-.06.06zm-.24.9l.84-.18-.72-.24-.12.42zm-24.06-.06q.06.06 0 .09t-.12.03l.12-.12zm4.62.84l.36-.72-.3.24-.06.48zm40.86-.42h.18q-.06-.06-.09-.03t-.09.03zm-42.06.42l.24-.24h-.24v.24zm5.16.36v-.06l.24-.3-.24.36zm12.3.84h1.8l.12.12q-.36-.06-.93-.06-.57 0-.99-.06zm7.2.18q-.9.18-1.92.18-1.38 0-3.18-.3 1.74 0 5.1.12zm-19.14.36l.06-.3.06-.06-.12.36zm79.56-51.54q.24-.48 1.08-.6l-.9-.42 1.32-.18-.54-.36-.84-.06.66-.36 1.14.06q-.84-.36-1.32-.3l-.06-.12q1.44-.24 3.3-.24 1.92 0 3.9.18 1.92.12 2.94.12l.12-.12.06.36-.24-.12-.3.12.42.24h.3l.06.36-.18-.12.3.3h-.6l.36.24v.24l-.24-.18-.3.36h.36l.12.12-.06.42.36.42.66-.12-.3.54.48.36-.36.18.3.36-.24.36.72.12-.6.12-.12.3.24.48-.42.42v.18l-1.14.12q.18.06.54.06.3 0 .9-.12l.36.24q-.66.24-3.48.24l-4.2-.06q-.84-.06-1.92-.06l-.24.12-.48-.18-.18-.24q.6-.18 1.14-.54l-.42-.06-.78.18-.06-.24h-.66v-.24h.06l.3-.12h.12v-.24l-.36-.24.18-.24-.24-.06v-.78l.06-.12q-.72-.42-.9-.66-.06-.06.03-.09t.15.03l.3-.18-.66-.18zm22.8 49.02l.84.18-.66.24-.06.06-.6.12-.36-.12q-.78.24-.78.48 0 .18.48.27.48.09.84.09l-.24.18.12.36-.36.18-.06-.36-.24.3q-1.08-.06-3.48-.06-3.72 0-7.86.18-1.44.06-3.6.12t-4.98.06q-5.94 0-9.3-.66h-.06l-.48-.24 1.44-.42q-.54-.06-.99-.18-.45-.12-.75-.18-.6.66-1.56.96-2.22-.18-4.38-.18-1.26 0-3.66-.12l-.3-.18-.18-.24.78-.24-.9-.6q.42-.18 1.02-.36.6-.18.96-.42-.72.12-1.14.12-.96 0-1.62-.42l2.22-.12-1.8-.24q2.04 0 3.06-.24v-.24q-.54 0-1.86-.06t-2.4-.18l3.18-.66q-.96-.12-1.65-.15t-1.17-.03l1.92-.54q-.9-.42-2.52-.3.54-.6 1.44-.75.9-.15 1.2-.33-1.2 0-1.74-.18 1.02-.36 2.16-.54l1.26-.3.06-.06q0-.42-.42-.57-.42-.15-.9-.15l.3-.12.3-.54q.24 0 .48.06t.48.06q.48 0 .84-.36l.06-4.92q-.3 0-1.2.09-.9.09-1.62.09-1.8 0-1.8-.6 0-.36.54-.9l-.66.12-.48-.36.06-.42.3-.18.06-.24-.24-.48.12-.3-.18-.06.18-1.08v-.36l-.3-.36-.18-.78.3-.3-.18.06-.06-.3h-.18q-.6 7.26-1.62 12.84t-3.6 7.74q1.68-2.82 2.76-6.36-.3.42-.51 1.02-.21.6-.27.84-.48 1.2-.78 1.8-.3.6-.9 1.02 1.2-2.1 1.92-5.04-.12.24-.51 1.23t-.87 1.74q-.48.75-1.08 1.23.12-.24.63-1.14.51-.9.69-1.74l-.3.12q-.18.18-.39.63-.21.45-.39.63v.12l-.6 1.2-.18-.06-.84 1.26q.36-.66.54-1.32l-.6.36q-.36.72-.9 1.44.54-1.62 1.92-4.14l-1.26 1.92q.12-.24.27-.63.15-.39.33-.63h-.12q-.36.42-.84 1.5-.36.78-.66 1.26-.3.48-.78.78 1.2-1.56 2.34-4.08l-.72.84.72-1.5q-.84.96-1.08 1.92l.24-.18-.24.66-.12-.18q-.06 0-.06.09t-.06.09l-.06-.18.42-1.38q-.12.3-.39.72t-.45.78q.06-.3.3-.84t.3-.84q-.24.36-1.02 1.44t-1.5 1.86q-.72.78-1.14.66.18-.36.66-1.08 1.02-1.74 1.26-2.52-.9.72-2.04 2.16.06-.3.45-.87.39-.57.45-.99-.48.48-.84 1.02l-.24-.3q-.24.42-.75.78-.51.36-.63.48 5.82-8.64 5.82-31.02 0-4.08-.24-9.72l.24 1.2v-.06l.3-.24v-.36l-.24-.24.12-.42-.12-.06.06-1.5-.36-.36v-.12l-.18-.42.12-.36-.06-.3-.3-.12.12-.36.9-.48-.78-.54.48-.42.6.06.12-.06-.42-.42-.78-.24.66-.48 1.08.12-.84-.42h-.42l-.06-.18q2.46-.6 6.3-.6 2.34 0 7.02.36.96.06 3 .18t3.54.12l.12-.12v.42l-.54.06v.18l.42.18.36.84-.42.18.12.24v.54l-.12-.3-.18.06-.18.36h.36l.06.18-.06.54q0 .6.36.72l.6-.12-.3 1.02.36.12q3.18-1.02 14.46-1.02l8.52.06.06-.12.54-.18 1.2.3.3.42.24-.12q.96.24 1.5.24l.12-.72.54.78-.06-.48 1.02.42v7.32l.48.06-.36.12-.12.18-.12 3.06-.66.24-.18-.3-.06-.84-.06 1.56v-.3l-.12-.24-.36-.3.12.96-.66-.66-.42.84-.24-.54-.12.42-.48-.24-.12.42.06.6q-.24-.06-.81-.39-.57-.33-.87-.15l-.18.36-.12-.36h-.06l-.24-.9-.54.72q1.38 1.5 3.72 3.54 2.4 2.16 3.48 3.36l-.36.3.06.18h-.3v-.12l-.12.12.24.66-.96-.6q0 .36.3.96t.3.96q-.36-.06-.9-.45t-.84-.45q-.06.36.21.99t.27.99l-1.2-1.5-.18-.06q-.06.48.18 1.08.24.6.3.84h-.24q-.48 0-1.02.18l-.24.36-.54-.06.42.3h.36l.96.6v.36q-1.2 0-1.92.36l.96.12v.12l.18.24.78-.24.12.54-.18.24-.6.12.78.06v.3l-.18.18.18.3-.3.06.12.18-.3.06-.84.72-.54.06 1.26.48.06.06.54-.12.06-.06v.24l.72.36q-.96.36-1.44.18-.66.36-.48.84l.18.06.42-.06.36.12-.3.18.12.3-.24.18-.18-.18-.48.06q-.54-.24-2.4-.24l-2.64.06q-.54.06-1.38.06l-.06 6.06 1.2-.06q3.78-.18 4.32-.18 2.52 0 3.6.42l.12.12h.36l.12-.12.3.12.3-.18.12.36-1.44.54h-1.02v-.18l-.36.18q-.72-.18-1.5-.18-.9 0-1.56.06t-1.14.12l2.64.12.06.24q.96 0 1.44.06l.3-.12q.48.06 1.44.06.9 0 1.38-.06l.06.12-.54.18.18.24-.84.36-.54.12-.18.12q.66 0 .96.06l.06.06.3-.12.24.3h.36l.18.42-.12.3h-.6q-.96 0-1.38.24l.96.18v.12l.36.18.78-.18.12.42-.18.24-.66.06.54.24h.3l-.18.36.18.24-.24.18.06.06q-.18.12-.75.48-.57.36-1.17.42.96.48 1.56.48.3 0 .66-.18v.3zM161.24 16.4l.24-.3v.36h-.18l-.06-.06zm1.56 4.5l-.6-.06.18.42h.24l.18-.24v-.12zm-21.36 3.72l.24-.12-.06-.6-.24.06q0 .42.06.66zm1.26-.3l.12-.3-.9.18v.6l.36-.24h.06l.36-.24zm17.16.66l.3-.54-.72.06.42.48zm1.2-.54v3.48q.12-1.08.24-3.48h-.24zm-4.38.6q.06-.18.06-.54h-.18l.12.54zm2.28 2.94q.06-1.14.06-3.48h-.36l.3 3.48zm-11.52-2.34l.06-.18-.06-.9h-.18l.18 1.08zm6.96 3.12l.06-4.2H149l.06 4.14q.48-.12 1.5-.12.78 0 2.1.12l1.74.06zm.66-3.84l.12-.36h-.24l.12.36zm1.02-.24q-.06-.06 0-.12h-.12q0 .06.03.12t.09 0zm-15.06.12q0-.06.06-.06l-.06.06zm.96.48l.18 1.62q0-.54-.12-1.62h-.06zm19.74 5.34l-.12.06.06 6.9 7.68-7.74 1.26.3.42-.36-.12.3q-.84.84-1.2 1.32.48-.36 1.02-.96l.12.06q.54-.54 1.14-.78l-.06.18q0 .12.12.12.24 0 .66-.24.42-.24.48-.3l-.54.72.48-.18v.3l.42-.18.18.06.6-.3-.72.84.42.24-.12.3.36-.12.3.3-.06.36.54.06v-.36l.24.18-.06-.42.3.24.06-.3q.06.66.36.93t.3.39l.36.6q.24.18.63.33.39.15.03-.39v-1.62h.3l-.3-.18v-.06l.78.06-.66-.78v-.06l.66.66-.18-.42.06-.12.24.3.24-.12-.78-.48.3-.24.24.12q.78.78.66.18l.18-.24.18.06q.12 0-.36-.48l.06-.12.36.24.24.48.36-.12.12.3.84.84q-.06-.18-.27-.63-.21-.45-.21-.87h-.06v.3l-.78-.3.12-.36-.24-.24-.36-.06.12-.24.12.18.36.12.18.3h.3l.36.24-.12-.48.12-.06q.36 1.14 1.5 1.98l.36-.42-.24.12-.24-.18.3-.12q-.66-1.38-.18-1.26l.12.36.24.06-.06.12.18.18.12-.06v.06l.36.42v-2.22q-6.84 0-15.36.3v.42q.54 0 1.62-.12 1.56-.12 2.28-.12.54 0 1.62.12-1.56-.06-3.48.12-1.32.12-2.04.12 0 .72-.06 1.23t-.12.81q-.24-.54-.66-1.02l-.18.6-.6-.3-.48.3-.3.66q-.06-.24-.18-.66-.12-.42-.18-.42-.18 0-.6.9l-.24-1.62-.42 1.38h-.06l-.72-.36-.48.6-.54-.54zm11.34-1.86q.42-.12 1.2-.12-.42.12-1.2.12zm-24 .54l.78-.06-.48-.42h-.3v.48zm0 1.02l.18.06q.18 0 .18-.12 0-.3-.36-.54v.6zm40.8-.24v.18l.12.06v-.06l-.12-.18zm-28.26.18v.36l.12-.12-.12-.24zm28.38.12l-.12.06.12.48h.06q0-.36-.06-.54zm-40.98.48v.48q.42-.3 0-.48zm34.8.36l-.12-.06.12.12v-.06zm-8.58 1.32l.18-.06.06-.06-.06-.18-.18.18v.12zm-20.94 8.82v-3.54q-.9 0-1.38.06l-1.5.06q-1.2 0-1.98-.24l-.06.12-.06-.54.6-.66-.6.12-.36-.24v-.42l.3-.24.06-.36-.24-.3q.12-.42.09-.93t-.03-.69l-.12-.3-.06 2.82-.06 2.1q0 1.38-.12 4.14l.54-.48.66.12-.48-.48h-.36l-.12-.12q.66-.18 1.62-.18.66 0 2.1.12l1.56.06zm21.84-7.08q.12.12.12-.12l-.12.12zm.12.48q.06.06 0-.06v.06zm-6.48 6.18l11.7-.18-5.7-5.46-.12-.48-5.88 6.12zm-8.1-1.68l.48-.42-.48-.36v.78zm1.08-.18q-.36.18-1.08.66v.54l.06-.18 1.02-.96v-.06zm-.6 1.32l-.48.24v5.16q.18 0 .99-.12t1.35-.54l-.18-.18h-.42l-1.68.06q.12-.12 1.05-.48t.81-.6q-.24-.12-.9-.33-.66-.21-.9-.51l1.62-.9-.54-.3-.36.3v-.36l-.72-.12.84-.06.06-.12-.3-.24.06-.3q0-.48-.3-.6zm19.38 1.44q.24.06.63.12t.57.06l-.18-.3-1.02.12zm-31.98 1.2l.06-.06-.24-.42-.36-.24h-.24l-.12 2.34.66-.72-.54-.6.3-.36.48.06zm4.68.96v-.18q-.12 0-.21.09t.03.21l.18-.12zm33.96 2.28v.06h.06q.06-.12 0-.06h-.06zm-15.78 4.44v-.36l-2.1.06q-1.86.18-4.08.18-2.64 0-3.3-.42l.06-.06-.48-.12q.72-.24 1.14-.48l-1.38-.54q.72-.24 1.62-.24.48 0 1.68.12 1.08.12 1.62.12.42 0 1.14-.12-.72-.06-2.16-.06-.84 0-2.1-.15-1.26-.15-1.2-.51l1.02-.3q-.12 0-.99-.24t-.63-.84l-.6-.36v10.2q2.94-.12 8.88-.12 0-1.74.06-2.64 0-.48.03-1.14.03-.66-.03-1.5l.12-.24q.54-.18 1.14-.18-.6 1.08-.54 1.8.06-.12.57-.66t.33-1.08l.18-.12zm-23.34-3.3l.06-.6.12.06-.18.54zm37.26 2.46q-.3-.18-.18-.06l.06.06h.12zm-13.02.84l.6-.36h-1.08l.12.3.36.06zm2.52 0l.42-.36h-.72l.24.36h.06zm.96.18q.06-.18.03-.3t-.03-.24h-.18l.18.54zm-4.68 5.58h.3q0-2.16-.18-4.2l-.12 4.2zm-10.44 1.44l.36-.18-.36-.24v.42zm-.9-.18v.3l.06-.06.06.06v-.18l-.12-.12zm-15.18.9q.42 0 .42-.24h-.18l-.24.24zm15.9.42l-.06.6q.18-.12.3-.54l-.24-.06zm.24.72l.6-.36-.54-.24-.06.6zm-1.08-.48v.72h.3l-.18-.78-.12.06zm1.86 1.08h-.78l-.06.36.96-.3-.12-.06zm-1.92.6l.36-.06v-.48h-.3l-.06.54zm-19.08 1.26l-.06.06.06-.12v.06zm19.26 1.98q.6-.12 1.8-.12 1.02 0 1.5.06l1.62.06q.96 0 1.92-.18-.84-.12-1.26-.12l-1.68.06q-3.42 0-3.24-.6.18-.06.45-.12t.63-.24l-1.08-.24q-.42 1.08-.66 1.44zm45.78-37.86l-1.38.18-4.02-9 .48-.66.96 1.2q-.06-.3-.45-.84t-.45-.9q.3.36 1.02.72l-.66-1.14 1.02.42.18-.18-.18-.9.12.3.12-.06.24.36-.3-.78.24.18h.6l.06-.12-.48-1.08.66.12.06-.12.36.24.06-.24.78-.12v-.6l.06.24.24.24.12-.06.6.9q.12-.36.12-.78v-.54l.06-.06.84.78 1.02-.3 4.08 8.1-.72.48-.12.42.06.66q-1.02-1.32-1.32-1.62l.66.9-.12.06q.3.48.54 1.26-.66.36-1.02 1.02l-1.38.06q-.12-.12-.33-.24-.21-.12-.15.12l-.42-.06.12.48h-.78l-.18-.36v.36l-.36.3-.36-.12v.18l.3.48.06.3-.3-.24-.36-.12-.18-.12q-.06-.06-.12-.09t-.06.03l.36.36zm44.1-9.3l-.66-.36.24-.18h-.12l-.24.18q-.12.3-.72.18.72.24 1.08.42h.54l.3.12-.06.06-.42-.06q.48.6-.72.72t-1.32.12q.36.12.6.12t.72-.12l.36.3-.24-.42.6.24.06.36h.24l-.06.12-.78.12q.84.3.66.78l-.3-.18.18.24q-.54.9-1.38.9l.06.24.84.3.48-.06.06-.06.18.36.36.06-.9.3-.24-.06-.78.48.96.42h.3q.18 6 .18 12 0 8.46-.42 20.34l.12.3-.06 1.32q-.18.36-.21.87t-.03.75l-.12.18.18.36v.24q-.42-.18-.66-.18-.12 0-.12.06 0 .24.72.66l.12.42q-.18.96-.18 1.98 0 .9-.06 1.32l-.24.18h.06q.12 0-.09.27t-.39.33q-.18.36-.18.84v.6h.06l.78-1.56q0 .66-.27 1.41-.27.75-.81.93l.24-.6-.78.96q-3.36.72-6.96.72-3.24 0-4.86-.72l.06-.78-.6-.06.12-.24q.3-.12.75-.18t.63-.06l-1.02.06q-.96-.48-.96-.78 0-.18.36-.3t.9-.24h-.48l.18-.12-.18-.24.3.12.06-.3h-.48l.66-.24q-1.08 0-1.56-.24l1.26-.78q-.18-.12-.18-.24t.24.12l.06-.36h-.6l.54-.18v-.66l.24-.18 2.04-.18q-.84 0-1.26-.06-1.26 0-1.86-.06.3-.18 1.02-.33.72-.15 1.02-.33-.42-.12-1.38-.12t-1.44-.06q2.1-.6 5.76-.84-2.04-.36-4.14-.36l-.06-.12h-.3l.18-.18-.24-.18 1.32.06q1.8.12 2.7.12-.72-.18-2.1-.18-.3 0-.87-.06-.57-.06-.99-.12h.06l-6.96-.12v.9l-.18.36-.24.18-.24-.66-.6.96-.42-.9-.24.54-.18-.72-.06.24q-.66.66-1.26 1.56l-.6-1.74-.06.6.06.66-.66-1.2-.12.3.06 1.08-.6-1.26-.3.84-.24-.42-.54-.06q-.18-4.38-.18-13.08-.78 5.94-2.82 11.94-2.04 6-5.58 6.72 1.5-1.08 2.64-3.72-.3.36-.87 1.08-.57.72-1.11 1.2-.54.48-1.14.78.36-.42.96-1.02.6-.6.9-1.08h-.36l-.42.3-.24.36q-.6.24-.9.96l-.36.18-.18-.06q-.18.24-.48.48t-.48.42q.42-.48.66-1.02-.96.24-1.8 1.2.6-1.14 2.34-2.76l-1.38 1.26.72-1.02q-.84 1.02-1.5 1.65-.66.63-1.38.81.24-.24.93-.99.69-.75 1.41-1.11l.06-.24-.36.06.12-.36-.12-.06-.36.66.24-.12-.3.48-.06-.24-.24.18.42-.84q-.24.12-.9.78l.78-1.32-1.02.84q-1.08.9-1.83 1.38-.75.48-1.47.42.36-.42 1.29-1.2t1.17-1.44q-1.08.36-2.46 1.5.12-.42.57-.78.45-.36.57-.48-.54.18-1.08.6l-.06-.36-.24.3-.24.06-.54.48q2.1-2.82 4.2-7.38l-6.6 5.7-.42-.06-.3.12.42-.42-.72-.72h-.06l-.72-.66-.3.12.24-.36.72.66q-.48-1.02-1.02-1.32l.06.24h-.06q-.18-.24-.42-.57-.24-.33-.51-.48-.27-.15-.87-.27.06-.3.09-.72t-.27.06l.12-.84-.12-.18.3-.78v-.06l.6-.54-.78.66-.36.06.3-.06 2.88-2.58v-1.02l-.3-.54-.54.42.12.06-.12 1.14-.12-.06-.12-.48-.18.3-.24-.54.06-.06.3-.06-.3-.6q.18-1.38.18-2.64 0-1.38-.24-4.26-.24-2.76-.24-4.14 0-2.1.42-3.96h.18l-.18-.24.18-.66q-1.56.12-2.28.12-.48 0-1.44-.12l-.06-.42h-.18l.3-.18-.06-.3-.84-.12 1.32-.36q-.42-.12-1.14-.27-.72-.15-1.2-.45.66-.24 1.92-.36 1.32-.12 1.92-.3-.66-.3-2.1-.54-1.08-.12-1.86-.42h1.5q1.08 0 1.08-.12 0-.18-2.28-.84l.36-.3-.06-.12q0-.36.33-.54.33-.18.78-.27.45-.09.63-.15l-1.02-.3.72-.24-1.32-.48-.06-.06 1.56-.42-1.26-.3.48-.18v-.12q1.8-.24 6.54-.24 4.5 0 5.58.3l.12-.06.54.06.12.18.3.12-.18.18q-.9 0-1.26.24.18.06.66.33.48.27.84.09.72.12 1.08.42-.3.3-.78.3-.18 0-.54-.12l-1.56.36.84.12.36.36q.48.18 1.2.9l-.42.3h-.12l.84.12.06.06h-.72l.66.18.12.12h-.36l-.72.54.42.3.12.3-.66.48-.66.06q1.14.66 1.14.96 0 .12-.24.12-.18 0-.84-.18v.72q.3 0 .42.15t0 .24q-.12.09-.3-.03.24 4.86.24 10.92l.24-.12.36.36-.66.42.78-.3.06.06.36-.24-.12.48 1.08.24.18.12.42-.06-.54.84.54-.06-.24.3.36-.12-.12.18.06.54q1.38-4.86 1.86-10.14.48-5.28.48-11.64 0-.78-.12-2.7-.12-2.04-.12-3.12 0-2.52.6-4.32.06.3.12.93.06.63.12.93l.3-.06q.06-.42.03-1.05-.03-.63.03-1.11.12.78.24 2.34 0 .66.12 1.86 0-.48-.12-1.56l.12.12v-.42l.12.36.18-.54q.6-.06.78-1.26v.12l.3-.96v.18l1.14-.54-.96-.36h.36l.3-.12v-.3l-.24-.06.12-.12q.3.06.96.06l1.92-.06.24-.54.24.54q10.8-.3 17.46-.3 8.82 0 9.72.54l.48-.12-.36.48-.42.18-2.1-.06q-.72 0-1.08.06.6.18 1.92.3l.06.18q.18-.06.54-.06.36 0 .96.12.24-.06.72-.06.42 0 .66-.06l.06.18-.42.18 1.2.48h.12l-.12.24q-.48-.48-.72-.06zm-32.52.66l.06-.84-.24-.18v1.08l.18-.06zm.48-.18l-.06-.48h.12l-.3-.12.06.66.18-.06zm-17.04-.24q.06.3.36.6l.06-.06-.42-.54zm.48.84h.12l-.12-.06-.06-.18.06.24zm15.96.06l.06-.06h-.18l.06.12v-.06h.06zm9.78 4.56L224 22.7l-.18 2.22.24-.12.06-.36.12.12.42-.06.12.06 3-.06v-1.74q.06.12.12.15t.06-.15h-.18zm.9 0q-.18.18-.18.72l.06 1.02h.3l.06-1.02.18-.06v-.66h-.42zm6.6 8.7v2.1l1.38-.06q1.2-.12 1.92-.12 1.26 0 1.86.3h.9l.06-10.8-6.06-.06v1.56q.42 0 .87-.06t.93-.06q.84 0 1.38.3l1.98.12-.78.6.3.18h.12l.6.54-.78.42.48.42q-.06.06-.42.66-.36.6-.3 0l-.3-.18q-.42.18-.42.24 0 .18.9.33.9.15 1.32.15l-1.56.48-.12.12q.54.24 1.2.36l-.72.42-.36.54v.06l.3.6-.54.24.12.12.84.18q-1.62.18-5.1.3zm-11.46-6.54v.72h.3q.72-.24.72-.42t-1.02-.3zm0 1.2v1.08l.48-.42-.24-.12.3-.06-.48-.24.18-.24h-.24zm-.06 1.74v.18l.42-.06q0-.12-.12-.12t-.18.06l-.12-.06zm0 .66v.42h.42l.18-.3-.18-.24-.06.12-.06-.06.12.36-.18-.06-.24-.24zm1.56 1.26q-.48 0-1.56-.24l.06.36h.24v.24q.36-.24.63-.3t.63-.06zm-10.08.24l-.06.12.12 1.5q0-1.08-.06-1.62zm8.52.42l-.06.06.36-.18-.18-.18-.12.06v.24zm1.38.18q-.36-.18-.66-.18-.78 0-.78 1.56l.06 1.56h.06v.18q.48-.18 1.68-.18l2.28.06v-2.1h-1.86l-.54-.24-.12-.12h-.42l-.18.24q0-.48.09-.42t.33-.12l.06-.24zm15.54 3.6h.66v-.24q-.48.12-.66.24zm-16.86.36l.96-.42-1.02-.12v.42l.06.12zm-8.7-.42l.48 1.38-.42-1.44-.06.06zm8.58.9q.3 0 .06-.18h-.06v.18zm17.28.12q.12.12.42.12v-.18l-.42.06zm-16.86.18q.24-.18 0-.15t-.3.03l-.12-.06v.24l.42-.06zm-.06.24l-.36-.12v.24l.36-.12zm16.14.66q.24.18.66.18l.54-.06v-.3h-.24q-.48 0-.96.18zm-16.56.96v.18h.24l.18-.3v-.06l-.18-.12-.18.06.18.36-.24-.12zm16.86 0q.24.18.9.18v-.36q-.42 0-.9.18zm.06 19.26q.84-1.02.84-17.64-4.86.36-10.32.36-5.1 0-6.24-.48v.12l-.18-.06-.3.18-.06-.36.36-.06.3.06.06-.3-.06-.06h-.54l.78-.06-.96-.06v.06h-.06v-.06h-.42l-.18-.18v.3h.36l-.06.06.12-.06h.06l-.3.24v-.06l-.06.06h.06l-.06.18-.12-.12q-.06.06-.06.18.12 0 .18-.06l-.06.18h-.12q0 .96-.24 2.88 0 .48-.12 1.44.24-.06.6-.21t-.12-.27l1.26-.24v-.06h-.24l-.48-.06.66-.12.42-.84 10.14-.06.24.24-.06.3.18.06v-.3l.72.06.24.24v-.24l-.06-.12q.12-.06.42-.06.36 0 .6.06t.42.12l.12.12q-.06.06-.12.03t-.12-.03v.12l.36-.06.42.36.18-.18.06 1.02.18.06H239l-.24.6.66.78.06 7.14.48.66-.3.12q-.06 1.2 0 1.86.06.66.48 1.44l-.42.6.24.3-.42.24-.12.42h.54v-.06h.3l.3-.72zm-16.44-18.3v.06h-.06l.06-.06zm.24.06l-.06.36-.06-.42.12.06zm17.04.3l-.06-.06q-.12.12-.06.12t.12-.06zm-32.28 8.04l-.06-.84h.3l-.24-.54q.18-.66.18-1.68 0-.66-.18-2.64-.3 1.32-.3 3.24l-.12-.06q-.12 0-.12.18 0 .24.12.63t.12.45v.24q0 .3-.12.72t-.06.66l.48-.36zm27.48-5.04l-.06-.3.12.3h-.06zm1.02.42l.24-.12h-.24v-.06l-.18-.12.18.18v.12zm-12.54.42l1.26-.06q-.18-.06-.54-.06-.48 0-.72.06v.06zm11.76.78h.42l-.24-.42-.18.12v.3zm-13.56.06l.12.3q.36-.3-.12-.3zm.12.36v.12h.06q.06-.06.03-.09t-.09-.03zm.18 1.08l.42-.18h-.36v-.3q-.12-.06-.18.12t.06.18l-.06.96h.06v-.18l.24.12v-.42h-.06l.06-.06v-.12h.06l-.24-.12zm0 2.4l.12-.9-.24-.42.12 1.32zm4.38 4.44v-4.38h-.18v4.38h.18zm4.56.06q.12-2.88.12-4.38l-3.24-.06v4.44h3.12zm6.36.06l.06-1.5q0-.84-.24-1.5l-.06 3h.24zm5.16 2.04l.18.06q-.12-.9-.12-2.64l-.12-2.22-.06 1.56q-.06.48-.06 1.44 0 .9.18 1.8zm-.12 2.4l.18-.48-.48.42-1.44.24 1.44.06-.06.06-1.32.12-.06.24q.24.48.78.48.18 0 .54-.12l.42-.72v-.3zM217.1 60.8l.3-.18h-.12l-.3.12.12.06zm-1.02 3.36q1.14-1.08 2.22-3h.06q-.9 1.74-2.28 3zm33.42-2.46q-.06.54-.06 1.68l.12-1.74-.06.06zm-12.96 4.86q-.06.06 0 .12l-.12-.06.12-.06zm74.28-47.82l-.72.42h-.24l.24.18-.54.12.12.3q-.36.6-.3 1.2l.48.18h.12v.24h-.78l-.06.06.12.48.36.06.06.12-.06.48-.36-.06v30.6q0 5.34-.39 7.35t-2.37 2.94q-1.98.93-6.96.93l-2.22.06q-1.2 0-2.16-.24l.3-.06-1.32-.42h.54l.18-.18-.66-.36.84.12.06-.42-.9-.18.3-.36.78-.06h-.3l-.3-.3v-.9l-.84-.06.24-.12-.36-.12.54-.06.24-.24-.54-.06-.24-.24-1.32-.12-.06-.06q.36-.18 1.14-.3l.54-.54.54-.06-.3-.06-.3.06-.66-.18.06-.18.3-.06-.18-.3h-.12l-.3-.12.12-.06h.48l.3-.24-.96-.06 1.68-.42h-.66l-.12-.12h-.42l.6-.66q-.42-.18-1.38-.18l.84-.06.18-.54-.42-.24.9-.12.06-.12q.6-.06 2.07-.27 1.47-.21 2.61-.15.9.6.9-1.98 0-1.08-.06-1.62t-.06-.72v-2.94l-.66.12-.6-.12.24.54-4.62-.12q-.9 4.38-3.12 9.87-2.22 5.49-4.62 7.11l-.06-.06.48-1.26q-.48.66-1.26 1.35-.78.69-1.08.93l.6-1.02-.24-.24-.06-.18-.84.72.24-.42v-.18l.96-.78-.12-.24-1.32 1.2.3-.3v-.06l-.36.12 1.32-1.32-.12-.42-.6.6.72-.9-.36.18-.6.72.6-.96v-.18q-.36.24-.84.75t-.84.81l.72-1.56.36-.36-.72.6-.18.06-.12-.3h.06l.36-.84-.06-.06-.06.06h.06l-.06.12-.06-.06q-.96.96-1.38 1.5l-.78.9q.3-.48.84-1.17t.9-1.17v-.18l-.18-.24-.72.18.3.12h-.3l-.6.72.06.36-.06.3.72-1.2q-.24 1.38-.96 1.74l.24-.48-.78.66q-.3.06-2.55.33t-4.41.27q-2.22 0-3.12-.48l-.48-.06v-.06l-.06.12-.12-.12.18-.42-.6-.06.12-.18q.66-.06 2.04-.06h-1.62q-.12-.06-.45-.24t-.69-.18l-.06-.12 1.5-.42-.54-.06.24-.06-.3-.12h.36v-.18h-.42l.66-.12h-.24q-.48 0-.81-.06-.33-.06-.57-.12.84-.48 1.32-.66h-.36l.06-.06h.36l.24-.18-.72-.12.12-.06h.42l.06-.66-.96-.18q.36-.12 1.08-.18.72-.06 1.08-.24-.84-.12-1.26-.12l-1.68.06q.54-.48 1.74-.84l-.18-.18h-.3l-.24-.24.3-.18 1.08-.18-.78-.06q.6-.18 1.35-.18h.93q.6-1.56.75-3.21.15-1.65.15-4.11l.06-2.16h-.78l.24.54-2.22-.06q-.72 6.06-1.98 10.2t-4.38 7.08q1.86-2.64 2.52-4.68-.18.3-.78 1.44-.6 1.14-1.32 1.92-.72.78-1.5.96 1.5-1.74 2.34-4.56h.12l.24-.24h-.06l-.3.18v.06q-.18.36-.66 1.23-.48.87-.99 1.53t-1.17 1.08q.12-.18.72-.99t.9-1.65h-.36q-.42.48-.78 1.14-.42.84-.9 1.32l-.18-.12-.9 1.2q.48-.84.66-1.32l-.66.36q-.24.48-1.02 1.26l.96-1.56q.42-.66 1.14-1.98-.3.36-.69.9-.39.54-.63.78l.72-1.26h-.12q-.12.06-.54.6l-.18.06v-.42q.06-.06.48-.54.42-.48.54-1.02-.96.9-1.38 1.92l.3-.24-.3.6-.3-.12q.24-.42.33-.75.09-.33.21-.57-.6.96-.96 1.44l.66-1.68q-.84 1.02-2.04 2.25-1.2 1.23-1.86 1.29.24-.3.78-.93.54-.63.9-1.2t.54-1.17q-.6.3-1.2.87-.6.57-1.08 1.11l1.08-1.74-1.02.9-.06-.3q-.18.18-.6.57-.42.39-.84.57l-.18-.06q3.36-4.38 4.95-8.28 1.59-3.9 2.04-7.65.45-3.75.45-9.51v-4.62h-.06l-.3-.18-.18-.24.48-.36h.06v-.18l-.48-.72v-.06q.24 0 .24-.12 0-.18-.3-.39-.3-.21-.48-.33.3-.06.78-.27.48-.21-.3-.15l.18-.24-.48-.6q.06.06.24.06.3 0 .42-.21t.06-.51q.24-.6.12-1.44l-.42-.18h.36l.06-3.96q0-1.32-.06-1.98h-.18l-.24-.24.42-.36v-.48l-.42-.48.18-.66-.84-.18q1.14-.18 1.14-.36 0-.06-.48-.06l.24-.24-1.02-.78.54.18.18-.78.06-.06h.48l-.24-.18-.24-.06.66-.78-.12-.12-.66-.12-.3-.24.42-.06.06-.06h.3l.12-.18.42.06h.06q0-.06-.27-.15t-.33-.15l.18-.18q4.38-.66 9.96-.66 5.22 0 11.04.6l-.36.18-.6-.06-.3.12q.3.12.9.18.6.06.9.18h-.24q-.6 0-1.2.18h.42v.3l.96.06-.96.36v.12q.18.06.57.12.39.06.63.36l-.6.18-.42-.06.96.24-.42.18-.54.6 1.32.48-.66.3h-.12l.12.24-.36.3q-.18.36-.18 1.2l.48.48h-.66l-.12.06v.3l.42.12.06.12-.06.48h-.42v30.42l.06-.06-.06-.06q1.5-2.04 2.16-8.52.66-6.48.72-12.18l-.48-.06.48-.06.06-1.02-.6-.3.12-.06.48.06q0-2.82-.12-8.34l-.36-.24.36-.3q-.12-1.2-.12-1.74l-.96-.3h.9q.06-.06.06-.24 0-.42-.48-.72t-.54-.36l.96-.06q-.06-.54-.06-1.62 0-.9.12-1.32h.24l-.3-.12.3-.48.24 1.08h.3l.12-.18q.6-.06.6-.12t-.72-.06l.06-.36.12.12q.72-.12 1.5-.12 1.32 0 1.98.06l2.22.06q2.16 0 2.64-.48l.06-.42.12.78 3.78-.12q4.08-.12 6.54-.12 3.54 0 4.62.3-.24.06-.78.09t-.78.15q.36.12.99.18t1.11.18h-.36q-1.14 0-1.38.42l1.74.18q-.42.18-.75.24t-.51.12l1.38.66h-1.14l.96.54h-.3l-.66.54 1.56.54zm-31.26-4.56q.12-.06.42-.06.36 0 .6.06t.42.12l-1.44-.12zm2.1.12h-.54l.42-.06.12.06zm.78.12l-.72-.06-.06-.12.78.18zm-1.32-.12H281h.12zm27.9 7.44l.12-.12q0-.24-.78-.21t-.84.03l1.5.3zM272 26.12l.06.06q-.18.06-.48.06-.36 0-.84-.12v.54l1.2-.06q.66 0 1.2.18l-.96.24.96.12v-4.62h-2.52q0 1.2.12 3.48l.84.18.42-.06zm36.48-3.6q.12.42.18 0h-.18zm-13.14.36v4.26q.48 0 1.26-.06t1.68-.06q1.08 0 1.38.18l.06-2.82q0-.96-.06-1.44l-4.32-.06zm8.22.84l.6-.78h-3.48l.12 1.62.36.06.18-.66.42-.06-.3.42.06.42.36-.72.3.36q.12-.12.72-1.02l.66.36zm1.14.06q.06-.18.12-.45t.06-.39h-.3q0 .6.12.84zm.54-.3l.12-.54h-.18l.06.54zm.66-.54q0 .12.06.15t.06-.15h-.12zm-33.78 3.18l.48.18-.48-.06v-.12zm1.02 1.2l-.48.06-.3.3.78.18v-.54zm25.5.12q1.38 0 .84-.06l-.54-.06-.3.12zm.3.72l.72.12v-.48h-.24l-.48.36zm-26.28.12l.54.36-.06-.54-.48.18zm27 .72v-.3q-.54.06 0 .3zm-26.46.18V29l-.18-.06q-.18-.06-.06.06t.24.18zm0 1.02v-.72l-.42.48.42.24zm26.34.3l.12.18v-.48l-.12.3zm-26.34 2.1v-1.56q-.06.24-.21.69-.15.45-.15.81l.36.06zm0 6.84V32.9h-.42l-.06.12-1.02-.12 1.38.54.06.12-.06.54-.96-.06.18.42h-1.32q0 2.82-.06 4.26l.9.18.36-.06-.48.12-.78-.12v.6h2.28zm26.46-5.7l-.24.12q-.96-.12-1.38-.12l1.62.48v-.48zm-3.3 5.76l1.8-.06q1.2 0 1.56.18l-.06-4.8-1.08.06.3.48-3.54-.12q0 2.16-.18 4.32.72 0 1.2-.06zm-24.06-.6l-.12-.06h.06l.06.06zm.3-.06l.18.12h.18l-.06.06-.54-.06-.06-.12h.3zm.6 1.02v-.18q-.06 0-.33-.03t-.45.09q.24.12.78.12zm26.52.18v-.3l-1.2.18q.24.06.6.06t.6.06zm-26.52.66v-.54l-.54.42.54.12zm26.52.06v-.48l-.18.12h-.3l-.36.3.84.06zm-26.52.6v-.3q-.36.06 0 .3zm26.52.24v-.48l-.42.18.42.3zm0 .6v-.12q-.48 0 0 .12zm0 1.2v-.6l-.24.48.24.12zm0 2.64v-1.08l-.12.96.12.12zm-26.58.78v-.36l-1.14-.12 1.14.48zm26.58.3v-.54l-.3-.12-.12.18q-.66-.18-1.38-.18l1.8.66zm-23.76 7.38l.24.12q-.12-1.2-.12-1.86 0-.3-.06-1.23-.06-.93-.24-1.71.06.54.03.96-.03.42-.03.72-.06.42-.06 1.26 0 1.02.24 1.74zm25.62-2.88q-.06.24-.15.84t-.09 1.26q0 1.2.54.48-.18-.48-.18-.9l.06-.84q0-.48-.18-.84zm-25.98 5.1l.42-.84h-.24v.06l-.24.3-1.56.18h1.5l-1.5.06.36.42q.36.12.48.12.36 0 .78-.3zm6.54 1.92l.06-.18-.3.12.24.06zm-19.98 3.12l.06-.06q-.06 0-.06.06zm-1.44 1.2l.06-.06-.06.06zm-1.8 2.46l1.74-2.4.06-.06q-.24.36-.69 1.23-.45.87-1.11 1.23zm1.74-1.68l.06-.18q0 .12-.06.18zM366.2 18.92q.48.06 1.23-.03t1.23-.09q.36 0 .96.12l-1.68.24 1.02.6-.9.6-.12.42q-.9.12-1.32.36l.96.3.18-.06-.18-.36.42.18.06.42h.24v.12l-.66.18.54.42v.18q-.06 0-.09-.06t-.09-.06l.06.18-.24.78-.42.42.96.18-1.02.42q.36-.12.6-.12.36 0 .54.24l-.6.54 1.32.12-1.08.42-.12.66-.12.18v-.3l-.12.12q-4.44.18-8.7.18l-10.5-.06v.42q0 .9-.3 1.44l-.3-.54v-1.32h-.24l.06.96-.24.06-.18.96h4.8l.12-.18.06.18h.54l-.12-.78.42.78 1.2-.06q2.46-.12 3.66-.06l-.36.24v.12q0 .36.18.57.18.21.54.15l-.06-.18.18-.24-.12-.3.6-.06.3.54.66-.06-.06-.36.12.06h.36l.24.18h-.18l.6.36-.06 11.04.18.06-.18.18-.18 1.08.36.66.96.48q-.84.36-1.32.48v.24l.72.06-.72.78v.48l.72.42-.78.36v.54l-.36-.48-.24.06-.12.42 1.02.18-.42.06-.18.48-2.76.06-.3.24-.48-.24h-.72l-.12.12v-.12h-.36l-.06.12-.54-.12.24.42v.06l-1.02-.48v8.52h3.12q2.1 0 3.12-.06.06-.42.03-.72t-.03-.48q0-.48.12-1.2.12.54.6 1.08l.24-.06q0-.18.06-.63t.18-.81l.54.36.42-.42.18-1.08.24 1.2.3-.54.42.36q.3-.42.78-1.38v.48q0 .84.48 1.02l.48-.12.12.06v.48l.3-.18.06-.36.3.36.12-.12.3-.06.48.48.12-.3v-.48h.06v-.36l.3-.36.12.42h.12v.42l.3.06v.18q0 .6.18.6.12 0 .3-.54-.12.06-.24 0t-.12-.18q0-.24.66-.06l.48.96q.06.9.06 2.64 0 2.04-.06 3.06l-.06 3.06.06 2.04-.12-.06-.12-.72-.18-.3q-.06.3-.09.93-.03.63-.15.93l-.12-.42-.24-.3-.48.9-.36-.72-.36.9-.24-.36-.06.24-.24-.24-.18-.06v-.36l-.6.84-.3-.66-.42-.18-.06.18.3.24.18.36-.42-.06-.6.6-.06-.06-11.28.06-.12.18-.06-.18h-1.74l-.06.6-.96-.6h-.06l-1.02 1.02-.42-1.02h-.24l-.18.54-.36-.6-.6-.18-.18.72q-.3-.3-.87-.93-.57-.63-1.11-.99-1.26-2.52-1.26-8.52 0-1.92.12-5.16.12-2.88.12-3.78h-.96q.06.78-.15 1.5t-.45 1.38q-.24.66-.3.9-2.1 6.48-6.15 9.57-4.05 3.09-11.13 4.41-.72.12-1.32.12-2.16 0-3.54-.72.6.06 1.44.15t1.38.09q.84 0 1.2-.12-2.64.12-4.74-1.26.84 0 2.4.24l.3-.24-.3-.36-.96-.66q.36.12 1.32.24l-.36-.3.12-.12.42.06.24-.12-.66-.84.36.3.54.12-.42-.24.78.06-.06-.48q-.66.3-1.74.18.96-.18 1.8-1.02l-1.02-.18 1.02-.54q-.54-.24-1.38-.24-.72 0-1.56.18-.84.18-1.14.24 5.16-1.86 8.49-3.9t4.53-5.52q.3-.24.42-.57.12-.33.15-.63t.03-.42q0-.78.24-1.26h-1.08l-.36.24-.18-.24-1.2-.06q-.6 0-.84.18l-.3-.3-.84-.24-.42-.78h-.3l-.3.84-.24-.36h-.3q-.3-.66-.3-2.76l.06-2.94-.3-.12.3-.12q-.06-3.48-.06-10.44.24-.48.54-.78l.3.42-.12.54h.66q0-.24.09-.72t-.03-.78h.18l.18 1.02.42-.36.12-.12-.24-.12.9-.12-.06-.3-.3-.24.18-.06q.78.24 3.3.24l3.66-.06q.84-.06 2.1-.06l-.06-2.04q-3.06.06-9.12.06h-9.18l-.12-.12v.36l-.12-.24.06-.42-.24-.24-1.08-.42q.24 0 .69-.03.45-.03.69-.15h-.12l-.3-.12-.24-.3.6-.24.54.06-1.08-.42.96-.12-.54-.72v-.72l-.24-.06.54-.36-.66-.36h.3l.06-.36.3-.24-.12.42.12.06 1.02-.36q-.18-.06-.57-.21-.39-.15-.75-.09l-.06-.42-.96-.6 1.02-.66-1.74-.3q.3-.06.9-.06.84 0 1.47.06t1.05.12l.24-.42-.12-.24-.48.36h-.06l-.66-.66q1.08-.48 17.76-.48-.06-1.62-.06-4.86l.3.24v.6l.12.3.42-1.68h.06l.12.36.12.12.3.06.12-.06q-.18-.18-.18-.3 0-.24.66-.24l.66.06v-.24l.24-.18.3.6.24-.3v-.18q.24.42.78.42.66 0 .9-.54.54.18 1.08.6l.36-.18.6.3.84-.24v-.12l.24-.48h.3l.06.6.54.42.06.18.36-.48.24-.12.24.18-.06.18q.3.96.3 2.28 0 .54-.06 1.35t0 1.29q2.88-.12 4.44-.24 4.56-.24 6.84-.24 4.38 0 7.74.78l-.72.6-.42-.06v-.18l-.06.06-.06.12-.18-.06.3.48zm-28.86-5.1v.66h-.06l.06-.66zm0 .96l.06.72q0 .36-.18.72v-.72q0-.48.06-.72h.06zm0 2.52q-.18-.48-.06-1.02.06.36.06 1.02zm2.16 10.74h-.3q-.18 0-.24.06t-.06.3h.84l-.24-.36zm-12.42 1.08zm2.16.6l.06-.18-.18-.24-.3.36-.3-.12-.06.06.6.18-.12.3.3-.36zm29.82 3.48q-.24-.06-.24.06t.12.24l.3-.06-.18-.12v-.12zm.12.42q-.42-.24-.42 1.02l.06 1.02h.24l.12-2.04zm-8.4 3.3l-14.52.12v2.22l14.58-.06-.06-2.28zm-19.8 9.54h.18q-.06-.06-.12-.09t-.06.09zm19.62.54q.24.42.24-.12l-.24.12zm1.02-.12h-.54q.12.42.15 1.14t.09 1.2q.06-.42.09-1.14t.21-1.2zm1.08 0h-.42q0 .06.06.24t.24.12l.12-.36zm.54 0q-.06 1.74.12 3.84l.06 1.92.06-1.92q.06-.66.06-1.92 0-1.26-.12-1.92h-.18zm-18.72.36l.06-.24h-.48l.12.24h.3zm.54.48l.3-.72h-.3v.72zm1.02-.24l.18-.48h-.12q-.06.18-.06.48zm1.38-.3q.06 0 .15-.03t.21-.15h-.42l.06.18zm.9-.18h-.18q.06.06.12.27.06.21.06-.09V47zm3.18.84q.06-.18.12-.45t.06-.39h-.24q0 .06-.03.36t.09.48zm3.12-.84q.36.36.96.36t1.14-.36h-2.1zm3.3 0q.36.18.72 0h-.72zm1.86 0q.12.3.27.42.15.12.21-.3l-.06-.12h-.42zm10.74 9.48q-.48 0-.48.36l.48-.06v-.3zm9.84 2.76l-.06.42q-.12-.3-.12-.66v-.48l.18.72zm-44.46.42l-.12.18q.18-.12.78-.72l-.6.54h-.06zm44.34 1.5q-.06-.18-.06-.54 0-.36.12-.96.06.18.06.54 0 .36-.12.96zm-45.96-.3l-.06.06.3-.06.24-.36-.42.3h.18l-.12.06h-.12zm-.48 1.14l-.6-.06.72.24-.3.24.54.12.42-.84q1.2-.78 1.38-.9l-1.02.42.24-.48-.48.18.06.06-.48.36.12-.3-.24.42-.48.36q.18-.12.72-.12l-.6.3zm2.64-.42l.24-.06.3-.6q-.18.42-.54.66zm43.62 1.98l.12-1.98.12-.06q0 .36-.03.87t-.15 1.23l-.06-.06zm-45.66-1.86h.12-.12zm22.68.66h.12l-.12-.36v.36zm-23.88-.06q-.36-.24-.24-.12l.06.06.18.06zm1.8 1.02l-.84.12.36-.36 1.38-.6.06-.24-.78.48.48-.36.06-.18q-1.08.78-2.22.78-.96 0-1.68-.72.36.36.78.54.42.18.9.3.48.12.78.18l-.3.06.24.3q-.36.06-1.14.06-1.02 0-2.04-.18 1.02.36 2.1.36.54 0 1.74-.24l.12-.3zm-1.08-.78q-.42 0-1.38-.12l.12.24q0-.06-.03-.09t.03-.03h.18v.06l.78.18.3-.12-.18-.06h.24v.06l.12-.12h-.18zm2.58.66l.18-.24-.18.12-.78-.06-.3.24.06.06.42-.24.6.12zm103.14-43.74q-.24.12-.63.39t.27-.03l-.24.18.42.06-.36.6-.3.06.48.06-.06.42-.24.24 1.02.06-.54.24v.12l-.48.12-.06.06h.48l.12.06v.06l-.48.9h-7.86q.18.78 1.02 3.36l.96 3.36.6-1.68 1.26 1.26.9-.72.24 1.26h.24q.12-.48.18-1.11.06-.63.18-1.05.6 12.12.6 29.16l-.12.3q0 .3-.06.72t0 .72l-.18-.12-.12.48.24.12-.06.42.12.36h-.36l-.06.3q-.24-1.32-.54-2.04l-.18.06v-.3h.18v-1.26l.06-.12.24.12-.3-.42q.18-.84.18-1.62 0-1.08-.18-2.04-.12-1.08-.12-1.5-.12 2.04-.12 2.94l-.06 1.5-.3.18q.12.84.12 1.26 0 .54-.12.78l.12.42q-.3 1.08-.3 1.2 0 .18.27.45t.51.57q0 .54-.18 1.38-.06.3-.12.69-.06.39-.06.93 0 .66.24 1.08.3-.6.51-1.38.21-.78.27-1.08l.24.3.42-.66q-.24 3.36-.72 4.56-.48 1.2-1.65 1.47t-4.71.33l-3.48.06q-2.58 0-3.24-.36h-.12l-.12-.36h-.06l.96-.18-1.14-.66q.42-.12 1.23-.3t1.35-.42q-.72.12-1.44.12-1.62 0-2.16-.54l2.94-.06-2.34-.24q.42-.06 1.32-.06.24 0 1.23-.06t1.77-.3q-3.9-.12-5.82-.3 1.56-.36 2.64-.48l1.38-.24q-.84-.12-1.26-.12h-.96q-.9 0-1.38-.12 1.38-.24 2.28-.42l.12-.12q-1.32-.3-3.3-.18.48-.24 1.56-.48.24-.06.78-.21t.96-.39q-.42-.24-.93-.18t-.75.06q-.36 0-.54-.06.66-.3 1.98-.54 1.2-.24 1.74-.48l.06-.06-.72-.3v-.06l-1.32-.24.66-.18.06-.3-.12-.18.6.06-.24-.06 1.14.06q.78 0 1.2-.27.42-.27.42-.99l-.24-21.72h-16.44l-.72-1.56-.12.12v-.24h.78l-.6-.12-.12-.12-.36.06-.06-.12-.54-.36.42.12.06-.18.36.12.06-.18.36.12.42-.3-.54-.18-.24-.48.66-.18h-.66l.18-.36-.54-.3-.66.12.24.54-.78.72.12.42q0 .12-.15-.12t-.27-.54l.12.24-.12.18.12.96q0-.12-.24-.12-.12.12-.12.96l-.48-.24h-.12l-.12.9q-.12-.3-.39-.66-.27-.36-.45.12l-.24-.06-.6.12-.3.36.3.12-.3.06.36.06-.3.06.24.24-.78-.3-.18-.24.06.36q.06.06-.03.09t-.15-.03q-.06-.06.06-.12l-1.5.36-.96-2.1.06 17.52q0 12.66-.3 13.32V65q0-.36-.06-.36t-.27.57q-.21.57-.33.81l-.12-.66-.06-.06V65l-.24-.24-.24.3-.6.24-.06-.24-.18-.24v.42l-.12.06q-.24-.06-.72-.06-1.68 0-3.24 1.56l-.66-1.38-.3.36-.24-.48-.12 1.08q-.66-1.2-.66-4.92l.06-4.92-.18 3.24q0 3.42-.42 5.52-.24-.72-.66-1.56l-.18-.06-.06-.84q.54-3.42.54-8.04 0-3.48-.48-10.44-.42-4.98-.48-8.94l.12-.3-.12-.72.18-.6-.12-.12 1.38-.3q-.66 1.2-.54 1.86 1.08-1.08 1.02-1.86l.12-.06q-.06-.18-.06-.42 0-.3.12-.3.24 0 .42.66l.24.06q.36 0 .63-.27t.45-.63l.3.18.12-.48.18.18v-.18l.36-.54.6 1.74.48-.6.18-.06.3.78.12-1.02.24.3 1.8-1.62.66 1.2.06-.18-1.56-3.06.54-.27q.3-.15.72-.27l.24.36.18.84q-.12-1.2-.3-1.8l.36.6.3.24-.3-1.14.12.06L389.3 23l.54-.36h.06l.54.72q-.3-.54-.48-1.02l.06.12.24.18h.06l.36.18-.42-.72.96.3-.24-.42.18-.24.06.12h.3v-.12h-1.14q.84-.24 1.26-.48l-1.5.06q.3-.12.75-.6t-.21-.3l-6.78 10.5h-.3l-.36.24h-.06l.06-.12.3-.18.12-.3h-.06l-.96-.54-.18.06-.9-.42-.18.18.06-.42.96.42-.84-.72-.66-.24v.06l-.06-.3-.18.24q-.48-.6-1.86-.6l-.12-1.02-.24.48q0-.3-.15-.75t-.21-.21l.12-.96.06-.12q1.5-1.62 2.82-3.69 1.32-2.07 3-5.25 2.22-4.2 3.48-6l.54.3-.66.6q.78-.36 1.14-.84v.48l.54.18.72-.18.06.18q.06 0 .06-.09t.06-.09v.12l.06-.06.36-.18-.36.9.54-.06.06.3.24-.3-.12.6.3.3q.48 0 1.44-.54.12.66.51 1.56t.75.54h.12l-.24.66h.06l.42-.72.06.54-.06.06v-.24l-.18.36q1.5.06 3.36-.03 1.86-.09 2.58-.09 2.4-.12 3.6-.12l.12.72 1.32.48-1.26.18v.12l1.74.06.12.66.48.6-.72 1.26-.54.24h.18l-.24.24.42.12q-.06.12-.24.54-.18.42-.18.66 0 .3.3.3.24 0 .6-.18.84-2.16 1.2-3.3.84-2.46 1.5-3.99.66-1.53 1.62-2.85l.54.24-.54.66.78-.54h.06l.06-.36.06.42.3.06.9-.3v.18l.18-.12.06-.06v.12l.06-.12.24-.24-.06.96.78-.06-.06.3.3.3q.96-.36 1.38-.66.18.6.84 1.71.66 1.11.72.21h.12l-.12.84.18-.66.24-.3.12.3.06.18-.84 2.04 11.58-.24.24.6q.3.3 1.14.54-.96.18-2.46.42l1.32-.18v.18q.3-.06.84-.06.6 0 .84.06-.24.06-.24.18t.39.45q.39.33.33.51l-.6 1.14zm-26.1-3.18q-.84.12-1.14.24l1.14-.24zm10.5 4.62l-.24.54q.18-.06.33-.27.15-.21-.09-.27zm-11.76 7.62l5.88-.06-.3-.3-.6-.12.12.18-.3-.18v-.24l-.18.3h-.06q-.42-.42-1.02-.42-.36 0-.84.12l-.3-.9-.24.48q0-.3-.15-.81t-.33-.15v-.9l-.06-.06.3-.78-.42 1.02-.24.24v-.18l.12-.3.12-.12q.24-.66.66-1.38.84-1.74 1.02-2.82l-.36.12v.18l-.48.12h.6l.06.18h-.18v.06l-.42.84h-7.8l1.8 3.84-.66.3-.18.72-.66-.6.36 1.02-.42.12L398.9 32l.54-.3.48-.06-.3-.18.54-.3-1.26-.06q.42 0 1.14-.24t-.06-.42q.9-.42 1.92-.54-.6 0-1.14-.18l1.02-.12.54-1.08zm12.48-6.84l-1.14.18-.06.36 1.2-.54zm-22.68.12v-.06h-.48l.12.06h.36zm22.5 2.82q-.06-.54-.3-1.62.12.3.39.51.27.21.33.27l-.36-.72h-.12l-.42-.6q.42-.24.99-.24h.69q-.24-.06-.72-.06l-1.5.06q-.3 1.26-2.1 4.68l-.66 1.44 3.6-.06-.84-4.5.6-.3h.06q.12.24.21.6t.15.54zm.06-1.98h.72l-.06-.06-.66.06zm-24.78.78l.06.06v-.06l-.24-.42.18.42zm25.86-.36h-.78q.18.12.48.21t.3-.21zm-1.62 1.38l.06-.06q0-.36-.18-.6l.12.66zm.06 0v.12q0-.06.03-.09t-.03-.03zm-33.18 4.68l-.06-.12.12.12h-.06zm41.16.3l-.36.96q.06.3.15.84t.15 0l.12-1.8h-.06zm-18.36.3q-.48 0-.72.06l.72-.06zm13.38 4.56v-.18h-.6l.6.18zm0 .48v-.24q-.3.06-.9.15-.6.09-1.02.21h.24q.36 0 .84-.09t.84-.03zm-6.3 25.44l.12.9q0 .24-.06.24-.12 0-.3-1.08l-.18 1.02-.18.18-.12-.48-.24.3v-.36l-.18.06-.3-1.08h-.48l-.24.42.06.54.12.12h-.24v.18q0 .12-.03.18t-.03.12q-.06 0-.24-.3t-.24-.6l.06-.3-.06-.36-5.46.06q-2.22 0-4.5-.18v-.12l-.18.12-.3-.18.84-.18q-.54-.12-1.05.18t-1.23.84l-.54-.84-.18.18-.12-.36-.18.78-.36-.78q0-1.44-.06-2.16 0-2.88-.12-4.32 0 4.32-.36 6.48l-.42-1.14h-.12l-.06-1.2v.48q0 1.02-.12 1.5 0-6.36-.12-19.08l.12-.3-.12-.48.18-.72.78-.12q-.06.12-.24.6t-.18.9q.48-.6.84-1.98l.6.48.78-.66.06.12.06-.3.18.12v-.12l.3-.48.42 1.26.42-.54.18.36.12-.42.18.3 1.2-1.26.3.78h.06l.12-.36-.18-1.02q.24.54.24 1.38 1.5-.3 3.66-.3 1.62 0 2.46.06l2.4.06.24-.36v-.18l.24.48h.54l.06.6.54-.48.18.72.06.06.12-.54.48.9.48-1.26.18.42.6.6.66-.6.18 1.02h.24l-.06-.06v-.3h.06l.12-1.26.36 5.28q.48 5.76.48 8.76 0 4.08-.66 7.44l.12.06-.06.36.12.3h-.18l-.18.24-.18-1.5h-.3l.06-.3.12-.12v-.72h.18q-.12-.66-.12-2.04t-.12-2.04q-.18 1.62-.18 3.24-.24.18-.24.6 0 .36.12.72-.24.42-.24 1.2 0 1.02.36 1.74l-.24-.06-.6-.48q0-.3.06-.78.06-.48 0-.78-.24.72-.24 1.74l.36.36-.24.24.06.36q-.48.06-.63-.33-.15-.39-.15-.87t-.06-.72l-.42.06-.06.84.24.3zm-.6-21.9q-.18.06-.06.06v.12l.06-.18zm-3 7.14v-2.4h-7.14v2.28l7.14.12zm-7.14.24v.12q.06 0 .03-.03t-.03-.09zm0 5.22v.36q.18-.12.27-.24.09-.12-.27-.12zm7.14 2.52V51.8q-1.02.06-2.94-.06l-2.22-.06q-1.32 0-1.98.12v1.68l7.14-.06zm0 1.08v-.42l-.06-.06q-2.1 0-3.12.12l1.62.18q.24 0 .63.03t.93.15zm3.6 3.3l-.18.78.3-.06-.12-.72zm12.3.18q-.3.42-.3 1.32l.54.24q0-.18-.06-.69t-.18-.87zm1.62.54l-.24 1.26.24.06v-1.32zm-14.58 2.52q.12.06.06 0v-.06l-.06.06zm-28.26 2.4q0-.9.06-1.38v.78q0 .42-.06.6z"/></svg>