<svg viewBox="0 0 380 80" xmlns="http://www.w3.org/2000/svg"><path d="M38.44 21.68q3.36 0 6.21.81t5.79 2.55l1.38-1.14q1.44-1.14 2.37-1.56.93-.42 2.13-.42 1.44 0 2.28.63.84.63.84 1.83 0 .48-.18 1.02l-2.52 8.28q-.42 1.44-1.05 2.04-.63.6-1.89.6-1.32 0-2.31-.81t-3.09-3.33q-2.1-2.4-3.81-3.39-1.71-.99-3.51-.99-1.32 0-2.22.87-.9.87-.9 2.13 0 1.44 1.44 2.67t4.5 3.09q3.12 1.86 5.16 3.36 2.04 1.5 3.48 3.72t1.44 5.1q0 1.86-.6 3.72-1.44 4.8-5.58 7.29-4.14 2.49-9.66 2.49-4.14 0-6.96-.96-2.82-.96-5.76-3.24l-2.16 1.8q-1.5 1.26-2.46 1.71-.96.45-2.16.45-1.38 0-2.19-.66t-.81-1.8q0-.6.24-1.26l2.94-8.94q.48-1.56 1.32-2.22.84-.66 2.16-.66 1.38 0 2.49.96 1.11.96 2.91 3.48 1.92 2.76 3.57 3.84t3.93 1.08q1.62 0 2.49-.51.87-.51 1.23-1.65.12-.3.12-.9 0-1.44-1.38-2.64-1.38-1.2-4.26-2.88-3.06-1.86-4.98-3.33-1.92-1.47-3.33-3.69Q23.68 38 23.68 35q0-2.1.66-4.14 1.26-4.14 5.16-6.66 3.9-2.52 8.94-2.52zM97.78 41.9l-3.66 11.82q-.12.24-.12.72 0 .42.21.66.21.24.57.24.72 0 1.23-.63t.69-.63q.3 0 .48.39t.18.93q.06 1.74-1.14 3.39-1.2 1.65-3.51 2.7-2.31 1.05-5.55 1.05-3.96 0-6.3-1.83t-2.4-4.89q0-2.22 1.08-4.98l3.3-8.64q.3-.78.3-1.26 0-.78-.51-1.23-.51-.45-1.23-.45-1.14 0-2.31 1.05-1.17 1.05-1.89 3.39v-.12l-3.78 12.18q-.18.72-.18 1.26 0 .78.3 1.23.3.45.84.87.42.42.6.69.18.27.06.69-.3.78-1.2 1.14-.9.36-2.76.36H57.4q-1.56 0-2.28-.51-.72-.51-.48-1.35.24-.72 1.26-1.26.9-.48 1.5-1.14.6-.66 1.02-2.1l9.12-29.94q.18-.54.18-.9 0-.66-.33-1.08-.33-.42-.87-.84-.6-.48-.87-.84t-.09-.96q.36-1.38 3.78-2.4t7.14-1.02q3.48 0 5.13 1.32t1.65 3.6q0 1.32-.42 2.58L79.6 35.72q2.34-3.06 4.95-4.26 2.61-1.2 5.67-1.2 3.66 0 5.91 2.22t2.25 5.76q0 1.86-.6 3.66zm31.62-11.64q3.36 0 5.37 2.04 2.01 2.04 2.01 5.04 0 1.14-.24 2.1-.6 2.46-2.28 3.78-1.68 1.32-4.02 1.32-2.28 0-3.45-1.08-1.17-1.08-2.07-2.88-.48-1.02-.9-1.5-.42-.48-.96-.48-.6 0-1.05.48-.45.48-.81 1.68l-4.62 15q-.12.3-.12.9 0 .78.45 1.29t1.23.99q.72.48.96.78.24.3.18.78-.12.78-.87 1.14-.75.36-2.55.36H100.3q-1.56 0-2.25-.51t-.51-1.35q.24-.72 1.26-1.26.9-.48 1.5-1.14.6-.66 1.02-2.1l5.34-17.34q.12-.3.12-.84 0-.66-.27-1.02t-.87-.9q-.6-.48-.84-.84t-.06-.96q.36-1.38 3.78-2.43 3.42-1.05 7.14-1.05 2.46 0 4.08 1.11t2.1 3.15q2.88-4.26 7.56-4.26zm20.88 0q3.48 0 5.1 1.32 1.62 1.32 1.62 3.6 0 1.38-.42 2.64l-5.52 17.94q-.18.72-.18 1.26 0 .78.3 1.23.3.45.84.87.42.42.6.69.18.27.06.69-.3.78-1.2 1.14-.9.36-2.76.36h-13.68q-1.56 0-2.28-.51-.72-.51-.48-1.35.24-.72 1.26-1.26.9-.48 1.5-1.14.6-.66 1.02-2.1l5.22-17.34q.18-.54.18-.9 0-.66-.3-1.05t-.9-.81q-.6-.48-.84-.84t-.06-.96q.36-1.38 3.78-2.43 3.42-1.05 7.14-1.05zM154.3 17q2.34 0 3.9 1.53t1.56 3.75q0 1.56-.81 3.06t-2.28 2.43q-1.47.93-3.27.93-2.28 0-3.81-1.53-1.53-1.53-1.59-3.81 0-1.5.78-2.97.78-1.47 2.22-2.43 1.44-.96 3.3-.96zm37.92 13.26q3.42 0 5.49 1.89 2.07 1.89 2.07 4.59 0 2.88-1.74 4.5t-4.56 1.62q-2.52 0-3.9-1.29t-1.32-2.91q-.6-.12-1.02.48-.42.6-.9 2.34-.3 1.14-1.14 2.1 4.08.3 6.06 1.86 1.98 1.56 1.98 4.02 0 1.2-.42 2.4l-.48 1.86q-.12.3-.12.78 0 .84.78.84.72 0 1.23-.63t.69-.63q.3 0 .48.39t.18.93q.06 1.74-1.05 3.39-1.11 1.65-3.36 2.7-2.25 1.05-5.43 1.05-3.84 0-6.39-1.92t-2.55-5.04q0-1.14.48-2.58l1.14-3q.3-1.08.3-1.56 0-.78-.51-1.14-.51-.36-1.59-.36h-1.2l-2.7 8.82q-.18.72-.18 1.26 0 .78.3 1.23.3.45.84.87.42.42.6.69.18.27.06.69-.3.78-1.2 1.14-.9.36-2.76.36H156.7q-1.56 0-2.28-.51-.72-.51-.48-1.35.24-.72 1.26-1.26.9-.48 1.5-1.14.6-.66 1.02-2.1l9.12-29.94q.18-.54.18-.9 0-.66-.33-1.08-.33-.42-.87-.84-.6-.48-.87-.84t-.09-.96q.36-1.38 3.78-2.4t7.14-1.02q3.48 0 5.1 1.29 1.62 1.29 1.62 3.57 0 1.38-.42 2.64l-5.22 17.04h1.98q1.2 0 1.95-.72t1.17-2.1q1.5-4.44 3.9-6.78t6.36-2.34zm46.8 11.64l-3.66 11.82q-.12.24-.12.72 0 .42.21.66.21.24.57.24.72 0 1.23-.63t.69-.63q.3 0 .48.39t.18.93q.06 1.74-1.14 3.39-1.2 1.65-3.51 2.7-2.31 1.05-5.55 1.05-3.96 0-6.3-1.83t-2.4-4.89q0-2.22 1.08-4.98l3.3-8.64q.3-.78.3-1.26 0-.78-.51-1.23-.51-.45-1.23-.45-1.14 0-2.31 1.05-1.17 1.05-1.89 3.39v-.12l-3.78 12.18q-.18.72-.18 1.26 0 .78.3 1.23.3.45.84.87.42.42.6.69.18.27.06.69-.3.78-1.2 1.14-.9.36-2.76.36h-13.68q-1.56 0-2.28-.51-.72-.51-.48-1.35.24-.72 1.26-1.26.9-.48 1.5-1.14.6-.66 1.02-2.1l9.12-29.94q.18-.54.18-.9 0-.66-.33-1.08-.33-.42-.87-.84-.6-.48-.87-.84t-.09-.96q.36-1.38 3.78-2.4t7.14-1.02q3.48 0 5.13 1.32t1.65 3.6q0 1.32-.42 2.58l-3.24 10.56q2.34-3.06 4.95-4.26 2.61-1.2 5.67-1.2 3.66 0 5.91 2.22t2.25 5.76q0 1.86-.6 3.66zm23.58-11.64q6.9 0 11.04 2.55 4.14 2.55 4.14 7.77 0 1.98-.72 4.5l-2.46 8.28q-.06.24-.06.6 0 .96.78.96.72 0 1.23-.63t.69-.63q.3 0 .51.42.21.42.21.96.06 1.62-1.23 3.3-1.29 1.68-3.45 2.76-2.16 1.08-4.74 1.08-3.12 0-5.34-1.14-2.22-1.14-3.06-3.36-1.8 2.16-4.26 3.33t-5.28 1.17q-3.18 0-5.34-1.23-2.16-1.23-3.21-3.18-1.05-1.95-1.05-4.11 0-.96.18-1.86.96-4.14 4.17-6.24 3.21-2.1 7.65-2.1 4.98 0 9.78 1.56l1.5-3.96q.78-2.52.78-3.9-.06-1.44-.96-2.16-.9-.72-2.76-.72.36.96.36 1.98 0 2.22-1.68 3.84-1.68 1.62-4.8 1.62-2.94 0-4.59-1.29t-1.65-3.21q0-3 3.36-4.98 3.36-1.98 10.26-1.98zm-3.36 18.18q-1.68 0-2.73 1.29t-1.05 2.79q0 .96.45 1.56.45.6 1.29.6.78 0 1.71-.63.93-.63 1.35-1.89l1.26-3.54q-1.02-.18-2.28-.18zm61.98-6.54l-3.66 11.82q-.12.24-.12.72 0 .42.21.66.21.24.57.24.72 0 1.23-.63t.69-.63q.3 0 .48.39t.18.93q.06 1.74-1.14 3.39-1.2 1.65-3.51 2.7-2.31 1.05-5.55 1.05-3.96 0-6.3-1.83t-2.4-4.89q0-2.22 1.08-4.98l3.3-8.64q.3-.78.3-1.26 0-.78-.51-1.23-.51-.45-1.23-.45-1.32 0-2.52 1.23t-1.74 3.03l-3.72 12.24q-.24.66-.24 1.26 0 .72.3 1.17.3.45.84.93.42.36.6.66.18.3.06.72-.24.78-1.14 1.14-.9.36-2.82.36h-13.68q-1.56 0-2.25-.51t-.51-1.35q.24-.72 1.26-1.26.9-.48 1.5-1.14.6-.66 1.02-2.1l5.34-17.34q.12-.3.12-.84 0-.66-.27-1.02t-.87-.9q-.6-.48-.84-.84t-.06-.96q.36-1.38 3.78-2.43 3.42-1.05 7.14-1.05 3 0 4.74 1.65 1.74 1.65 1.56 4.59 2.46-3.54 5.22-4.89 2.76-1.35 6-1.35 3.66 0 5.91 2.22t2.25 5.76q0 1.86-.6 3.66zm35.7 11.46q-.12.48-.12.66 0 .42.24.66.24.24.6.24.72 0 1.23-.63t.69-.63q.3 0 .48.42t.18.96q.06 1.62-1.23 3.3-1.29 1.68-3.45 2.76-2.16 1.08-4.68 1.08-3 0-5.22-1.14-2.22-1.14-3.06-3-1.62 2.1-3.72 3.12t-4.44 1.02q-2.76 0-5.13-1.38t-3.78-3.93q-1.41-2.55-1.41-5.79 0-5.46 2.07-10.29 2.07-4.83 5.79-7.8 3.72-2.97 8.46-2.97 2.58 0 4.41.6t3.33 1.8l2.04-6.72q.18-.54.18-.9 0-.66-.33-1.08-.33-.42-.87-.84-.6-.48-.87-.84t-.09-.96q.36-1.38 3.78-2.4t7.14-1.02q3.48 0 5.13 1.32t1.65 3.6q0 1.32-.42 2.58l-8.58 28.2zM346.9 36.5q-.96-.84-2.1-.84-1.74 0-3.42 2.58t-2.7 6.24q-1.02 3.66-.96 6.6 0 3.3 2.16 3.3.78 0 1.32-.63t1.02-2.07l4.68-15.18z"/></svg>