<svg viewBox="0 0 389 80" xmlns="http://www.w3.org/2000/svg"><path d="M18.84 19.6h40.02l2.94-2.46 3.6 2.76q.3.3.3.72 0 .48-.54.48H20.58l-1.74-1.5zm2.88 19.02h34.26l2.94-2.46 3.6 2.76q.3.3.3.72 0 .48-.54.48H23.46l-1.74-1.5zm-6.24 21.9h46.74l2.94-2.46 3.6 2.76q.3.3.3.72 0 .48-.54.48h-51.3l-1.74-1.5zM90.72 41.8q-1.08-2.94-2.04-4.77-.96-1.83-2.1-3.21v32.1q0 .6-.6.6h-1.2q-.6 0-.6-.6V33.88q-1.56 4.98-3.87 9.18-2.31 4.2-5.85 8.58l-.3-.24q3.3-5.16 5.64-11.28 2.34-6.12 3.42-12.9h-5.76l-1.74-1.5h8.46v-9.66l-.3-2.04v-.18q0-.42.3-.57.3-.15.72.03l2.94 2.4-1.26 1.62v8.4h1.8l2.94-2.46 3.6 2.76q.3.3.3.72 0 .48-.54.48h-8.1v5.16q3.06 1.86 5.61 4.53 2.55 2.67 2.55 4.89 0 .96-.51 1.59-.51.63-1.23.63-.66 0-1.29-.57t-.99-1.65zm24.3 11.16q6.48 6.66 15.6 11.1l-.18.54q-1.08-.12-1.44-.12-2.4 0-3.36.96-.54.54-.72.48-6.54-4.38-11.88-10.92-7.68 7.5-19.26 11.58l-.24-.54q10.62-4.68 18.06-12.9-3.6-4.8-6.15-10.14-2.55-5.34-3.75-10.74-.84 10.26-3.81 17.67-2.97 7.41-8.91 14.67l-.42-.66q4.5-6.6 6.81-12.72 2.31-6.12 3.18-13.32.87-7.2 1.11-18.6H94.5l-1.8-1.5h27.06l.3-1.44q.06-.24.24-.42t.42-.18q.3 0 .54.24l1.02 1.8h.06v.06l.84 1.44-1.74 1.02-5.22 12.36h6.6l.18-.84q.3-.48.78-.48.36 0 .72.36l3.42 1.74-2.16.48q-3.42 11.04-10.74 19.02zM102 27.64q1.26 6.6 4.14 12.57 2.88 5.97 7.2 10.95 6.42-7.8 9.06-16.98h-6.84l-.54 1.26q-.12.24-.36.33-.24.09-.42-.03l-1.14-.42q-.6-.24-.36-.78l6.48-15.24h-17.1v2.34q0 2.28-.12 6zm87.06 22.98q.3.3.3.72 0 .48-.54.48h-52.38l-1.74-1.5h6.78v-29.4l2.1 1.14h10.74v-5.34l-.3-2.04v-.18q0-.42.3-.57.3-.15.72.03l2.94 2.4-1.26 1.62v4.08h10.62v-5.34l-.3-2.04v-.18q0-.42.3-.57.3-.15.72.03l2.94 2.4-1.26 1.62v4.08h9.36l1.86-1.68q.3-.24.93.12.63.36 1.11.96.48.6.36.84l-.72 3.12V50.2l2.82-2.34 3.6 2.76zm-34.74-27.06h-10.44v12.48h10.44V23.56zm13.02 0h-10.62v12.48h10.62V23.56zm12.9 0h-10.5v12.48h10.5V23.56zm-36.36 13.98v12.78h10.44V37.54h-10.44zm23.46 12.78V37.54h-10.62v12.78h10.62zm2.4-12.78v12.78h10.5V37.54h-10.5zm-16.2 17.1q.12-.06.36-.06.84 0 1.02.84l1.74 3.42-1.98-.78q-3.18 2.16-9.09 4.95t-9.33 3.57l-.24-.6q3.84-1.62 9.39-5.1 5.55-3.48 8.13-6.24zm14.64 1.62q5.94 1.38 9.78 2.82 3.84 1.44 5.64 3.3 1.5 1.5 1.5 2.88 0 .72-.42 1.14-.42.42-1.14.42-1.38 0-2.94-1.62-.36-.42-2.31-2.49-1.95-2.07-4.35-3.36-2.4-1.29-6.06-2.49l.3-.6zm52.98-37.2q-.24-.6-.39-1.11-.15-.51-.33-.99-.42-1.38-.75-2.13t-1.17-1.41l.18-.12q2.34.48 3.81 1.35 1.47.87 2.25 2.49.42.84.42 1.68 0 .96-.54 1.59-.54.63-1.32.63-.6 0-1.2-.51t-.96-1.47zm-20.1 8.46q-.54.9-1.23 1.35-.69.45-1.35.45-.72 0-1.23-.48t-.51-1.32q0-.84.6-1.86.06-.12 1.56-2.46 1.14-1.86 1.44-2.73.3-.87.3-3.15l.66.06.36 1.98.36 2.16h42.18l.96-1.74q.3-.36.72-.36.54 0 .96.6l3.36 2.46-2.4.06-7.68 7.68-.54-.24 3.78-6.96h-41.28q.12 2.58-1.02 4.5zm22.14 11.82q4.32 6.18 11.13 11.49 6.81 5.31 15.87 9.39l-.06.6q-1.86-.12-3.15.24-1.29.36-1.59 1.02-.3.66-.66.54-6.36-3.66-12.03-9.21-5.67-5.55-9.51-11.55v24.18q0 .6-.6.6h-1.2q-.6 0-.6-.6v-23.1q-3.9 5.04-10.98 10.44-7.08 5.4-14.7 9.06l-.36-.78q7.92-4.68 14.61-10.53 6.69-5.85 11.07-12.09H198.6l-1.74-1.5h23.94v-7.5l-.3-2.04v-.18q0-.42.3-.57.3-.15.72.03l2.94 2.4-1.26 1.62v6.24h17.22l2.94-2.46 3.6 2.76q.3.3.3.72 0 .48-.54.48H223.2v.3zm85.2-19.92q.3.3.3.72 0 .48-.54.48H294.3q1.68.9 2.73 1.8t1.65 2.28q.36.9.36 1.56 0 .9-.45 1.44-.45.54-1.11.54-.6 0-1.17-.42t-.93-1.32q-.42-.84-.66-1.47-.24-.63-.42-1.05-.54-1.38-.93-2.01-.39-.63-1.23-1.35h-3.9q-3.6 4.62-7.2 6.9l-.42-.3q1.92-1.68 3.75-4.83 1.83-3.15 4.17-7.83l.84-1.68q.3-.42.72-.42t.9.48l2.94 2.52-2.22-.12q-.72 1.26-2.4 3.78h12.54l2.94-2.46 3.6 2.76zm-43.38 1.32q-4.44 5.76-9.36 8.94l-.42-.3q2.64-2.34 5.64-7.05 3-4.71 5.28-9.27.3-.42.72-.42t.9.48l2.94 2.52-2.22-.12q-.84 1.56-2.4 3.72h10.08l2.94-2.46 3.6 2.76q.3.3.3.72 0 .48-.54.48h-12.72q2.16 1.02 3.39 1.98t1.89 2.52q.36.9.36 1.56 0 .9-.45 1.44-.45.54-1.11.54-.6 0-1.17-.42t-.93-1.32q-.78-1.74-1.08-2.58-.66-1.56-1.08-2.19-.42-.63-1.62-1.53h-2.94zm-2.28 6.42q2.22.48 4.02 1.62 1.8 1.14 2.58 2.82.42.84.42 1.68 0 .96-.54 1.59-.54.63-1.32.63-.6 0-1.2-.51t-.96-1.47q-.12-.36-.24-.63t-.18-.51q-.72-1.98-1.29-3.06-.57-1.08-1.53-1.86l.24-.3zm39.78 1.68q.3-.24.93.12.63.36 1.11.96.48.6.36.84l-.72 3.12v28.68q0 1.32-.48 2.01-.48.69-1.98.93l-5.22.78q0-1.44-1.02-2.28-1.02-.84-3.24-1.2v-.72l3 .36q1.98.24 3.42.24 1.56 0 2.22-.33.66-.33.78-.81.12-.48.12-1.56V32.02h-25.86l-1.8-1.5h26.52l1.86-1.68zm-43.14 6.54v-.18q0-.42.3-.57.3-.15.72.03l2.94 2.4-1.26 1.62v26.58q0 .6-.6.6h-1.2q-.6 0-.6-.6V37.42l-.3-2.04zm33.06 24.3q0 .6-.6.6h-1.2q-.6 0-.6-.6v-1.02H273.9v1.2q0 .6-.6.6h-1.2q-.6 0-.6-.6V38.08l2.1 1.14h15.3l1.86-1.68q.3-.24.93.12.63.36 1.11.96.48.6.36.84l-.72 3.12v17.1zm-2.4-18.96H273.9v7.56h16.14v-7.56zM273.9 57.16h16.14v-7.38H273.9v7.38zm75.78-30.36q3.72 8.1 9.09 14.82 5.37 6.72 12.03 11.7l-.24.48q-1.08-.18-1.98-.18-1.98 0-2.88.78-.12.12-.36.33-.24.21-.36.15-10.32-11.28-15.96-25.86v24.84h4.14l2.94-2.46 3.6 2.76q.3.3.3.72 0 .48-.54.48h-10.44v10.62q0 .6-.6.6h-1.2q-.6 0-.6-.6V55.36h-9l-1.74-1.5h10.74V29.8q-2.58 6.54-7.86 14.04-5.28 7.5-11.4 12.3l-.6-.54q5.34-5.22 10.17-12.69t7.95-16.11h-13.74l-1.74-1.5h17.22v-8.94l-.3-2.04v-.18q0-.42.3-.57.3-.15.72.03l2.94 2.4-1.26 1.62v7.68h11.52l2.94-2.46 3.6 2.76q.3.3.3.72 0 .48-.54.48h-17.16zM330 16.72q-2.16 5.76-5.58 12l2.1 1.68-1.26 1.62v34.02q0 .6-.6.6h-1.2q-.6 0-.6-.6V31.48q-3.96 6.6-8.46 11.58l-.3-.54q3.78-5.82 7.56-13.77 3.78-7.95 5.4-13.95.3-.66.84-.66.36 0 .72.36l3.42 1.62-2.04.6z"/></svg>