<svg viewBox="0 0 300 80" xmlns="http://www.w3.org/2000/svg"><path d="M16.82 19.8v-3.6h29.7v3.6h-29.7zm1.2 20.28v-3.6h27.3v3.6h-27.3zm-2.58 21.96v-3.66H47.9v3.66H15.44zm55.8-10.38L69.8 55.2q-1.62-.66-2.37-1.92-.75-1.26-.93-2.79-.18-1.53-.18-4.05l-.06-2.28V35.4q0-3.18-1.38-4.5v33.9h-3.36V30.9q-1.32 1.32-1.32 4.44v11.04q-.12 3.66-.33 5.4-.21 1.74-1.23 3.42t-3.24 2.58l-1.38-3.54q1.56-.54 2.19-1.95.63-1.41.69-3.45V37.8q.06-3.54.27-5.31.21-1.77 1.2-3.45.99-1.68 3.15-2.58v-1.98h-4.8v-3.6h4.8v-8.04h3.36v8.04h4.8v3.6h-4.8v1.98q2.22.9 3.21 2.58.99 1.68 1.2 3.45.21 1.77.27 5.37v8.76q.06 2.4.33 3.54.27 1.14 1.35 1.5zm13.26 4.86q1.68 3.66 4.68 5.7l-1.38 3.24q-1.56-1.2-2.85-2.52t-2.37-3.18q-1.26 1.8-2.73 3.09-1.47 1.29-3.33 2.61l-1.38-3.24q3.54-2.52 5.64-6.36-2.64-7.02-2.94-19.26l-.06-2.04h3.6v1.62q0 9.06 1.32 14.88 2.04-6.78 2.04-17.28v-3h-5.4v-3.6q2.22-.72 2.85-2.55.63-1.83.63-5.73v-1.44h-6.78v36q0 2.88-.36 4.89t-1.62 3.6q-1.26 1.59-3.72 2.43l-1.38-3.06q2.22-.72 2.85-2.55.63-1.83.63-5.73V17.46h-1.8v-3.6h15.78v5.46q0 2.64-.3 4.53-.3 1.89-1.26 3.33h3.42v.06h.06l-.06 6.96q-.18 14.58-3.78 22.32zm23.58-43.74v4.14h6.78v3.6h-6.78v4.74h5.64v18.12q0 .78-.54 1.32t-1.32.54h-3.78v5.64h6.78v3.6h-6.78v9.96h-3.6v-9.96h-6.84v-3.6h6.84v-5.64H98.9v-8.22h-2.34v-3.6h2.34v-8.16h5.58v-4.74h-6.84v-3.6h6.84v-4.14h3.6zm16.8 0v11.46h6.06v3.6h-6.06v16.32q1.86-2.94 1.86-8.28v-4.26h3.6l-.06 4.68q-.06 4.14-.99 7.02-.93 2.88-3.63 5.34l-.78.66v7.56q0 4.44 3.06 5.4l-1.5 3.54q-2.4-.9-3.51-2.58-1.11-1.68-1.35-3.63t-.24-5.19V51.6q-1.68.9-3.9 1.62l-1.38-3.06q2.04-.78 3.21-1.35 1.17-.57 2.07-1.29l-.06-19.68h-4.74v-3.6h4.74V12.78h3.6zm4.92 9.84q-1.8-.78-2.61-1.92-.81-1.14-.96-2.16-.15-1.02-.27-3.06l-.06-1.2h2.7v1.08q0 3.9 2.34 4.74l-1.14 2.52zm-19.68 8.04q0-1.8-1.5-1.8H104q-1.5 0-1.5 1.8v2.76h5.1v3.6h-5.1v2.82q0 1.8 1.26 1.8h5.1q1.26 0 1.26-1.8v-9.18zm62.04 16.14v3.6h-32.4v-3.6h14.34v-4.5h-12.6v-3.6h12.6v-4.02h-12.24V14.52h28.2v18.3q0 .78-.54 1.32t-1.32.54h-10.5v4.02h12v3.6h-12v4.5h14.46zm-25.32-15.72h7.26v-5.7L148.16 27l-.96-3.48 6.9-1.92v-3.48h-7.26q-.78 0-1.08.39-.3.39-.3 2.07v8.04q0 1.68.3 2.07.3.39 1.08.39zm19.62-11.16q0-.18.03-.69t-.3-.81q-.33-.3-1.23-.3h-7.26v4.74l5.82-1.56.9 3.48-6.72 1.86v4.44h7.5q1.26 0 1.26-1.8v-9.36zm.42 33.12l7.62 8.94-2.4 2.76-5.34-6.48-4.98 5.34-5.7-6.24-5.34 6.54-5.64-5.58-4.5 6.9-2.94-2.04 6.96-9.96 5.76 5.64 5.76-6.48 5.58 6.3 5.16-5.64zm18.66-34.14v4.92h-3.6V12.9h3.6v2.4h12.06v3.6h-3.3v4.92h-3.6V18.9h-5.16zm17.58-3.6h10.32v3.6h-2.16v4.92h-3.6V18.9h-4.56v4.92h-3.6V12.9h3.6v2.4zm-20.58 9.6h3.6v.48q0 3.36.93 4.83.93 1.47 3.39 2.31l-1.38 3.06q-3.66-1.26-5.1-3.72-1.44-2.46-1.44-6.06v-.9zm9.06 5.52v-3.6h20.94v3.6l-.06 23.4q0 3.24-.24 5.19-.24 1.95-1.35 3.63t-3.51 2.58l-1.5-3.54q3.06-.96 3.06-5.4V30.42H191.6zm-9.9 34.44V35.58h3.6v29.28h-3.6zm8.22-20.34v-8.76h14.94v18.66q0 .78-.54 1.32t-1.32.54h-13.08v-8.16h-1.5v-3.6h1.5zm5.34-5.16q-.84 0-1.29.42-.45.42-.45 2.04v2.7h5.7v3.6h-5.7q0 2.16.15 3.15.15.99.42 1.2.27.21.81.21h5.1q1.26 0 1.26-1.8v-9.72q0-1.8-1.5-1.8h-4.5zM227 14.88v-2.22h3.6l-.06 3.36q-.06 3.36-.84 6.45-.78 3.09-2.22 5.49h1.8v37.02h-3.6V30.36q-1.8 1.92-3.84 2.58l-1.38-3.06q1.68-.54 3.18-2.55 1.5-2.01 2.43-5.25.93-3.24.93-7.2zm18.48 9.18v25.5h2.94v3.6h-2.94V64.8h-3.6V53.16H239v-3.6h2.88v-25.5h-9.72v-3.6h9.72V12.9h3.6v7.56h9.66v3.6h-9.66zM239 27.48l1.5 3.54q-3.06.96-3.06 5.4v14.64q-.12 3.66-.36 5.4-.24 1.74-1.32 3.42t-3.48 2.58l-1.5-3.54q1.68-.54 2.37-1.95.69-1.41.75-3.45V38.88q.06-3.54.3-5.34.24-1.8 1.32-3.48t3.48-2.58zm14.76 26.04q.06 2.04.75 3.45.69 1.41 2.37 1.95l-1.5 3.54q-2.4-.9-3.48-2.58-1.08-1.68-1.32-3.42t-.36-5.4V36.42q0-4.44-3.06-5.4l1.5-3.54q2.4.9 3.48 2.58 1.08 1.68 1.32 3.48t.3 5.34v14.64z"/></svg>