<svg viewBox="0 0 387 80" xmlns="http://www.w3.org/2000/svg"><path d="M24.78 21.1q-2.64 0-4.38-.42-1.74-.42-1.74-1.08 0-.66 1.74-1.08 1.74-.42 4.38-.42h34.38q2.64 0 4.38.42 1.74.42 1.74 1.08 0 .66-1.74 1.08-1.74.42-4.38.42H24.78zm2.76 19.68q-2.64 0-4.38-.42-1.74-.42-1.74-1.08 0-.66 1.74-1.08 1.74-.42 4.38-.42h28.92q2.64 0 4.38.42 1.74.42 1.74 1.08 0 .66-1.74 1.08-1.74.42-4.38.42H27.54zm-6.24 21.9q-2.64 0-4.38-.42-1.74-.42-1.74-1.08 0-.66 1.74-1.08 1.74-.42 4.38-.42h41.4q2.64 0 4.38.42 1.74.42 1.74 1.08 0 .66-1.74 1.08-1.74.42-4.38.42H21.3zm72.54-18.12q-.72 0-.99-.39t-.51-1.47q-.06-.24-.33-1.11-.27-.87-.75-1.71-.18-.36-.36-.36-.6 0-.9 3.87-.3 3.87-.3 8.19V61q0 2.94-.93 4.47Q87.84 67 86.1 67q-1.74 0-2.67-1.53-.93-1.53-.93-4.47V33.52q0-2.94-.84-4.47-.84-1.53-2.4-1.53t-2.4-.39q-.84-.39-.84-1.11 0-.72.84-1.11.84-.39 2.4-.39t2.4-1.47q.84-1.47.84-4.17t.93-4.14q.93-1.44 2.67-1.44 1.74 0 2.67 1.44.93 1.44.93 4.14 0 2.7.72 4.17.72 1.47 2.04 1.47t2.01.39q.69.39.69 1.11 0 .72-.69 1.11-.69.39-2.01.39-1.32 0-2.04.75t-.72 2.07q0 .78.42 1.26t1.44 1.2q1.44 1.08 2.46 2.16 1.08 1.14 1.8 3.3.42 1.44.42 2.7 0 1.68-.69 2.64-.69.96-1.71.96zm30.06 16.5l2.4 1.32q1.26.6 1.77.99t.51.87q0 .42-.63.69-.63.27-1.71.27-1.86 0-4.14-.9-2.58-1.02-5.16-2.7-2.16-1.44-4.08-1.44-2.04 0-4.44 1.74-2.64 1.92-5.16 3.12-2.64 1.32-4.68 1.32-.9 0-1.41-.24-.51-.24-.51-.6 0-.6.66-1.14.66-.54 2.46-1.56l1.32-.78q2.16-1.32 3.96-2.7 2.34-1.92 2.34-4.32 0-2.1-1.68-4.14-.66-.78-1.5-.78-1.02 0-2.07 1.17-1.05 1.17-1.89 3.57-1.44 4.08-3.42 6.54-1.14 1.32-2.37 1.92-1.23.6-2.37.6-.72 0-1.2-.24t-.48-.54q0-.3.27-.69.27-.39.63-.81 1.32-1.32 2.1-2.76 2.04-3.72 3.54-12.21T98.82 25q.06-3.06-.72-4.68-.78-1.62-2.22-1.62-1.5 0-2.28-.39-.78-.39-.78-1.11 0-.72 1.53-1.11 1.53-.39 4.47-.39h17.76q2.94 0 4.47.75 1.53.75 1.53 2.25-.3 3.24-1.62 6.66-.18.48-.69 1.86-.51 1.38-.72 2.22-.21.84-.21 1.32 0 1.14 1.14 1.14 1.56 0 2.43.75.87.75.87 2.25 0 7.92-4.44 15.3-1.26 2.04-1.26 3.96 0 2.76 2.82 4.92 1.44 1.08 3 1.98zm-19.8-31.38q0 7.2 4.2 14.82.78 1.5 1.92 2.28 1.14.78 2.4.78t2.37-.87q1.11-.87 1.71-2.55.54-1.5.9-2.94.3-1.32.3-2.16 0-1.92-1.02-3.03-1.02-1.11-2.58-1.11-1.98 0-3.03-.39-1.05-.39-1.05-1.11 0-1.5.54-1.5 1.14 0 2.4-1.83t2.34-4.65q.48-1.32.48-2.4 0-1.98-1.44-3.15t-3.78-1.17h-.54q-2.88 0-4.41 1.41-1.53 1.41-1.59 4.11v1.86q-.06 1.8-.12 2.61-.06.81 0 .99zM74.28 50.56q0-.54.42-1.56l.36-1.08q.3-.9.48-2.16.42-3 .54-9.54.12-6 2.7-6 1.14 0 1.77 1.2.63 1.2.63 3.36 0 4.92-1.38 10.44-.6 2.22-1.86 3.6-1.26 1.38-2.46 1.8-1.2.42-1.2-.06zm98.16-31.38q0 .36-.69.66-.69.3-1.65.3-1.98 0-3.42-1.26-.96-.78-.96-2.58 0-1.14.45-2.1.45-.96 1.05-.96.78 0 1.17.39.39.39.81 1.29.06.18.33.63t.57.81q.42.54 1.08 1.08.66.6.96.96.3.36.3.78zm-24.66 5.22q0 .36-.93.72t-2.25.36q-2.28 0-4.32-1.02-1.56-.72-2.52-1.8-1.74-1.74-1.74-3.96 0-1.5.75-2.61.75-1.11 1.65-1.11 1.56 0 2.64.96t1.92 2.82q1.08 2.28 2.52 3.3.42.3 1.08.75.66.45.93.81.27.36.27.78zm3.3-1.74q0-.66 1.74-1.08 1.74-.42 4.38-.42h23.76q2.64 0 4.38.42 1.74.42 1.74 1.08 0 .66-1.74 1.08-1.74.42-4.38.42h-9.78q-1.74 0-2.97 1.08-1.23 1.08-2.25 2.88-1.74 3-1.74 4.5 0 1.08.81 1.35t2.61.27q3.72 0 5.16-.33t1.44-1.65q0-.18-.24-1.14-.12-.36-.12-.66 0-1.02.69-1.98t1.59-.96q1.14 0 1.92 1.05t1.62 3.15q.6 1.44 1.47 2.7.87 1.26 1.89 2.04.36.3.99.78.63.48.9.87t.27.81q0 .42-.57.72t-1.35.3q-.96 0-1.8-.42-1.02-.54-1.92-1.08-1.44-.96-2.94-.96h-4.02q-15.9 0-18.18 1.8-.12.12-.42.39t-.72.27q-1.14 0-2.13-.84t-.99-1.68q0-.54.48-.84.96-.66 2.88-1.26 1.02-.3 1.74-.84.78-.6 1.38-1.26 2.34-2.34 2.34-5.28 0-1.62-.75-2.7t-1.89-1.08q-2.34 0-3.81-.42-1.47-.42-1.47-1.08zm-3.3 15.84q0 .36-.93.72t-2.25.36q-2.28 0-4.32-1.02-1.5-.72-2.52-1.8-1.74-1.74-1.74-3.96 0-1.5.75-2.61.75-1.11 1.65-1.11 1.56 0 2.64.99t1.86 2.85q.96 2.16 2.46 3.3.36.24 1.08.69.72.45 1.02.81.3.36.3.78zm5.46 8.88q0-2.46.78-4.05.78-1.59 1.92-1.59 1.2 0 1.95.81t.75 2.07v2.94q0 6.66-.99 10.86-.99 4.2-3.63 6.36-2.1 1.68-4.68 1.68-1.14 0-1.98-.3-.84-.3-.84-.66 0-1.26 1.56-1.68 2.94-.84 4.05-4.89 1.11-4.05 1.11-11.55zm27.24 15.48q.84 0 1.44-1.02t.6-2.52q0-1.5.51-2.49.51-.99 1.29-.99t1.29 1.41q.51 1.41.51 3.57t-1.62 3.6q-1.62 1.44-4.02 1.44-2.46 0-4.05-1.74-1.59-1.74-1.59-4.38V47.86q0-2.64.51-4.38.51-1.74 1.29-1.74t1.29 1.74q.51 1.74.51 4.38v8.88q0 2.64.57 4.38.57 1.74 1.47 1.74zm-13.74 3q-1.2 0-1.95-1.74t-.75-4.38V48.46q0-2.64.75-4.38.75-1.74 1.95-1.74t1.95 1.74q.75 1.74.75 4.38v11.28q0 2.64-.75 4.38-.75 1.74-1.95 1.74zM139.8 50.08q.18-2.64 1.2-4.32 1.02-1.68 2.58-1.68t2.55 1.89q.99 1.89.75 4.65-1.02 9.96-5.58 13.86-1.2 1.02-2.58 1.47-1.38.45-2.58.45-1.08 0-1.8-.27t-.72-.57q0-1.26 1.08-1.68 2.16-.78 3.42-4.44 1.26-3.66 1.68-9.36zm86.04-35.4q0 .24-.09.63t-.09.63q0 .96.6 1.92 2.1 3.06 8.22 7.05 6.12 3.99 11.16 6.15 1.92.84 2.82 1.44.9.6.9 1.2 0 .3-.66.51-.66.21-1.8.21-2.64 0-5.22-1.02-4.02-1.56-8.28-4.02-4.26-2.46-7.5-5.16-1.86-1.62-4.02-1.62-1.92 0-3.72 1.44-3.6 2.94-7.89 5.46-4.29 2.52-8.31 4.02-2.46.96-4.98.96-1.14 0-1.86-.24-.72-.24-.72-.54 0-.6.9-1.17t2.94-1.41q3.18-1.32 7.17-3.75 3.99-2.43 7.41-5.31 3.42-2.88 4.98-5.4.84-1.5 1.83-2.28.99-.78 2.49-.78 1.56 0 2.64.33t1.08.75zm5.88 31.2q-2.64 0-4.38 1.74-1.74 1.74-1.74 4.38v3.3q0 2.64 1.74 4.38 1.74 1.74 4.38 1.74h10.14q2.64 0 4.38.42 1.74.42 1.74 1.08 0 .66-1.74 1.08-1.74.42-4.38.42h-39.72q-2.64 0-4.38-.42-1.74-.42-1.74-1.08 0-.66 1.74-1.08 1.74-.42 4.38-.42h10.14q2.64 0 4.38-1.74 1.74-1.74 1.74-4.38V52q0-2.64-1.74-4.38-1.74-1.74-4.38-1.74h-6.84q-2.64 0-4.38-.42-1.74-.42-1.74-1.08 0-.66 1.74-1.08 1.74-.42 4.38-.42h6.84q2.64 0 4.38-1.14 1.74-1.14 1.74-2.88 0-1.68-1.71-2.82t-4.35-1.14q-2.58 0-4.32-.42-1.74-.42-1.74-1.08 0-.66 1.74-1.08 1.74-.42 4.38-.42h19.14q2.64 0 4.38.42 1.74.42 1.74 1.08 0 .66-1.71 1.08-1.71.42-4.29.42-2.64 0-4.35 1.14-1.71 1.14-1.71 2.82 0 1.74 1.74 2.88t4.38 1.14h6.9q2.64 0 4.38.42 1.74.42 1.74 1.08 0 .66-1.74 1.08-1.74.42-4.38.42h-6.9zm-20.94 9.6l1.32.6q1.02.42 1.41.72.39.3.39.72 0 .36-.9.72t-2.1.36q-2.34 0-4.38-1.32-.72-.48-1.44-1.2-1.62-1.8-1.62-4.08 0-1.44.6-2.46t1.32-1.02q.66 0 1.02.48t1.08 1.86q.96 2.1 2.04 3.54.54.72 1.26 1.08zm19.32 2.04q0-.42.51-.72t1.65-.66l1.92-.78q1.86-.84 2.76-2.76l.6-1.38q.6-1.44.99-2.07.39-.63.99-.63.48 0 .93.96.45.96.45 2.28 0 2.16-1.32 3.96-.96 1.26-2.22 1.92-1.98 1.08-4.08 1.08-1.32 0-2.25-.39-.93-.39-.93-.81zm40.68-36.18q-2.52 0-4.26 2.34-1.14 1.56-2.88 2.76-2.28 1.5-4.92 1.5-1.14 0-1.92-.27t-.78-.63q0-.48.33-.78.33-.3 1.23-.78.66-.3 1.2-.72 2.46-1.5 3.3-5.94.48-2.4 1.53-3.84t2.55-1.44q1.5 0 2.58.75t.84 1.65q-.42 1.44 1.35 1.92t5.19.48h.84q2.64 0 4.38.42 1.74.42 1.74 1.08 0 .66-1.74 1.08-1.74.42-4.38.42h-6.18zm22.02-5.4q-.06 1.02 1.77 1.71t4.71.69H303q2.64 0 4.38.42 1.74.42 1.74 1.08 0 .66-1.74 1.08-1.74.42-4.38.42h-8.28q-1.38 0-2.4.69t-1.98 1.95q-.66.96-1.44 1.56-2.1 1.8-4.8 1.8-1.14 0-1.95-.3t-.81-.66q0-.48.36-.75t1.26-.75q.36-.18.66-.36.3-.18.6-.3 2.1-1.2 2.82-5.04 1.02-5.64 3.12-5.64 1.2 0 1.95.69t.69 1.71zm-21.72 11.58q-1.08-.84-1.08-2.04 0-1.02.6-1.86.6-.84 1.26-.84 2.22 0 3 1.98.36.84 1.38.84 0 .9-.99 1.71-.99.81-2.25.81-.96 0-1.92-.6zm27.36-2.64q.48.3 1.17.66.69.36.99.66.3.3.3.72t-.75.81q-.75.39-1.83.39-1.38 0-2.58-.72-1.44-.9-1.44-2.34 0-.84.45-1.56.45-.72.87-.72t.78.24q.36.24.78.72.9.9 1.26 1.14zm-33.3 3.3q1.62 0 2.52.9.9.9 1.32 2.64.12.48.36.84.48.78 1.38 1.44.42.3.63.57.21.27.21.57 0 .42-1.11.93t-2.43.51q-2.34 0-3.84-1.74-1.32-1.5-1.32-3.36 0-1.38.69-2.34t1.59-.96zm33.78 1.92q2.64 0 4.38 1.74 1.74 1.74 1.74 4.38v23.76q0 2.64-1.74 4.38-1.74 1.74-4.38 1.74h-1.14q-2.64 0-4.38-.42-1.74-.42-1.74-1.08 0-.66 1.41-1.08 1.41-.42 3.51-.42 2.1 0 3.48-1.74t1.38-4.38V39.22q0-2.64-1.74-4.38-1.74-1.74-4.38-1.74h-15.36q-2.64 0-4.38-.42-1.74-.42-1.74-1.08 0-.66 1.74-1.08 1.74-.42 4.38-.42h18.96zm-35.7 36.78q-1.56 0-2.58-1.74t-1.02-4.38V42.4q0-2.64 1.02-4.38 1.02-1.74 2.58-1.74t2.58 1.74q1.02 1.74 1.02 4.38v18.36q0 2.64-1.02 4.38-1.02 1.74-2.58 1.74zm24.84-10.14q2.64 0 4.38.42 1.74.42 1.74 1.08 0 .66-1.74 1.08-1.74.42-4.38.42h-9.42q-2.64 0-4.38-1.74-1.74-1.74-1.74-4.38v-3.84q0-2.64.75-4.38.75-1.74 1.95-1.74 1.14 0 1.92.6t.78 1.44q0 .84 1.74 1.44t4.38.6h.42q2.64 0 4.38-.84 1.74-.84 1.74-2.1 0-1.26-1.74-2.1-1.74-.84-4.38-.84h-5.82q-2.64 0-4.38-.42-1.74-.42-1.74-1.08 0-.66 1.74-1.08 1.74-.42 4.38-.42h9.42q2.64 0 4.38 1.74 1.74 1.74 1.74 4.38v3.84q0 2.64-.51 4.38-.51 1.74-1.29 1.74t-1.29-.6q-.51-.6-.51-1.5t-1.74-1.5q-1.74-.6-4.38-.6h-.42q-2.64 0-4.38.84-1.74.84-1.74 2.16 0 1.32 1.74 2.16 1.74.84 4.38.84h4.02zm70.08-32.1q-2.94 0-4.47 1.53-1.53 1.53-1.53 4.47v18.6q0 2.88 1.08 4.44 1.08 1.56 3 1.56t2.97.39q1.05.39 1.05 1.11 0 .72-1.05 1.11-1.05.39-2.97.39-1.98 0-3.03 1.14-1.05 1.14-1.05 3.24 0 2.1-.69 3.24-.69 1.14-2.01 1.14-1.32 0-2.01-1.14-.69-1.14-.69-3.24 0-2.1-1.23-3.24-1.23-1.14-3.51-1.14t-3.51-.39q-1.23-.39-1.23-1.11 0-.72 1.23-1.11 1.23-.39 3.51-.39t3.51-1.53q1.23-1.53 1.23-4.47v-18.6q0-2.94-1.53-4.47-1.53-1.53-4.47-1.53h-2.4q-2.94 0-4.47-.39-1.53-.39-1.53-1.11 0-.72 1.53-1.11 1.53-.39 4.47-.39h2.4q2.94 0 4.47-1.11 1.53-1.11 1.53-3.21 0-2.1.69-3.21.69-1.11 2.01-1.11 1.32 0 2.01 1.11.69 1.11.69 3.21 0 2.1 1.53 3.21 1.53 1.11 4.47 1.11h3.84q2.94 0 4.47.39 1.53.39 1.53 1.11 0 .72-1.53 1.11-1.53.39-4.47.39h-3.84zM328.2 13.6q1.44 0 2.34 1.17.9 1.17.9 3.21 0 .84-.18 1.92-.78 4.68-2.64 8.52-.18.42-.96 2.1-.78 1.68-1.11 2.58-.33.9-.33 1.38 0 .66.6.66 1.2 0 1.83 1.56.63 1.56.63 4.44V61q0 2.94-.93 4.47-.93 1.53-2.67 1.53-1.74 0-2.67-1.53-.93-1.53-.93-4.47V45.04q0-2.76-.63-4.2-.63-1.44-1.77-1.44-.54 0-1.26.36-1.14.12-2.16.12-1.98 0-1.98-.54 0-.42.27-.78.27-.36.99-1.08 1.32-1.32 2.1-2.34 2.04-2.64 3.87-6.84 1.83-4.2 2.61-8.94.48-2.94 1.41-4.35.93-1.41 2.67-1.41zm10.86 19.26q.42-2.94 1.17-4.35.75-1.41 2.07-1.41 1.08 0 1.71 1.02.63 1.02.63 2.94 0 1.2-.24 2.34-.96 5.04-3 10.2-2.04 5.16-4.5 8.58-1.32 1.86-2.85 2.7-1.53.84-2.67.84-.42 0-.66-.12-.24-.12-.24-.3 0-.66.27-1.05t1.05-1.11q1.98-1.92 4.14-8.04 2.16-6.12 3.12-12.24zm17.22-5.76q1.32 0 2.07 1.41.75 1.41 1.23 4.29.84 4.86 2.61 9.99t3.63 8.13q.66 1.14 1.98 2.58.42.48.72.93.3.45.3.81 0 .42-.96.42-1.14 0-2.64-.81-1.5-.81-2.88-2.55-2.64-3.48-4.83-8.67-2.19-5.19-3.27-10.23-.24-1.2-.24-2.46 0-1.8.63-2.82.63-1.02 1.65-1.02z"/></svg>