<svg viewBox="0 0 319 80" xmlns="http://www.w3.org/2000/svg"><path d="M37.72 32.08q-1.38.24-3 .66-2.64.66-3.72.66-1.32 0-2.01-.84-.69-.84-.69-2.88 0-.48.12-1.68 7.26-1.02 13.68-2.46 3.6-.78 4.74-.78 1.2 0 2.01.66.81.66 2.37 2.64-1.62 1.38-4.44 2.16-2.82.78-7.08 1.5l-1.98.36zm12.96 10.86l-20.82 4.62q-.12-.24-.9-1.14-1.02-.9-1.02-1.5 0-.42.54-.84L47.5 39.1q.84-.06 1.44.06t1.32.48q2.1.78 2.1 1.68 0 .24-.24.6-.36.36-.45.51-.09.15-.27.21-.18.06-.72.3zm-35.04 15l42.18-6.3q1.44-.3 2.88-.3 2.64 0 3.63 1.11.99 1.11 1.35 2.43.36 1.32.48 1.56-.3 1.2-1.32 1.2-.6 0-1.74-.42-.9-.36-1.86-.54-1.5-.3-4.74-.3-4.02 0-9.18.48t-9 1.02q-7.38 1.02-14.04 2.4-4.5.9-5.7.9-1.38 0-1.95-.69-.57-.69-.99-2.55zm70.92 7.14h-.18q-1.2 0-1.68-.87t-.48-2.67q0-1.56.42-5.16.66-6.06.66-9.54 0-2.04-.18-4.2l-1.92 2.22q-3.6 4.26-6.3 6.72-2.7 2.46-6 3.6 1.2-1.62 3.78-4.8l1.56-1.68q.18-.18.93-1.05.75-.87 1.77-2.43.78-1.32 2.04-3.12 1.98-2.88 3.06-4.92t1.26-4.14q-1.62.36-3.9 1.38t-3.93 2.1q-1.65 1.08-1.65 1.62-1.14-.66-2.22-1.98-1.08-1.32-1.08-2.34 0-.42.18-.66 2.46-.78 3.78-1.08l3.3-.96 2.04-.6q1.8-.48 2.46-.84.66-.36.87-1.2.21-.84.21-2.94l-.06-4.62q0-1.98-.72-4.74l-.36-1.44q.18-.06.66-.06.96 0 2.07.48 1.11.48 1.11.84.96.9.96 3.84 0 1.14-.06 2.13t-.12 1.77q-.24 2.64-.24 4.26.66-.18 2.1-.78.24-.12 1.05-.42t1.35-.3q.72 0 1.23.51t.87 1.83l-6.06 2.4q.12.72.48 1.8.42 1.14.42 1.92 0 .48-.06.72-.3 1.32-.78 1.62-.36.42-.54.93-.18.51-.24 2.07.12.3 1.38 1.02 1.5.84 2.43 1.71.93.87.93 2.07 0 1.2-1.26 2.82-.66-.36-1.62-1.32-.9-1.02-2.16-1.74 0 6.96-.27 12.75t-1.29 7.47zm11.16-3.54q.9-1.2 3-2.7 2.34-1.62 4.14-3.57 1.8-1.95 3.6-5.67-.66-1.56-3.48-5.52-.42-.6-1.23-1.74-.81-1.14-1.23-1.92-.84.96-1.41 1.95t-1.53 2.85q-.6 1.14-1.26 2.34t-1.38 2.1q-1.38 2.22-3.9 4.53t-3.72 3.03l1.14-1.74q1.98-3 3.3-5.19 1.32-2.19 2.88-5.25l5.76-14.4.18-.54q1.44.54 2.07 1.17.63.63.63 1.41 0 1.08-1.32 3.48l-.66 1.26.72.78q-.12-.12 1.74 2.1 1.44 1.86 2.46 2.97t2.28 1.77q.66-1.32 1.17-3.09.51-1.77.33-3.09-.18-1.5-.57-1.95-.39-.45-1.35-.75-1.26-.36-2.22-1.08l4.26-11.28q-1.98.6-5.07 1.89-3.09 1.29-5.13 2.31.12-.06-2.04 1.14-1.38.9-1.92.9-.42 0-.84-.45t-.9-1.47q0-.24 1.08-.72t1.26-.54l1.92-.84 9.42-3.48q1.26-.54 2.4-1.26.84-.6 1.74-.96.84 0 1.98.81 1.14.81 1.8 1.8.66.99.3 1.59-1.26 1.74-3.57 4.44-2.31 2.7-3.87 4.26.78.6 2.28 1.08 1.08.36 1.71.72.63.36.96 1.23.33.87.21 2.49-.06.66-.57 2.28-.51 1.62-.69 2.1-1.08 3.18-1.5 5.28 1.56.84 3.36 2.16 2.16 1.5 4.08 2.58 1.08.6 4.08 1.92.36.18 2.01.9t2.73 1.5q-4.8.54-8.22 1.5-1.32.36-1.92.36-.6 0-1.08-.36-.48-.36-1.62-1.5-2.04-2.04-3.78-3.6-.6-.54-1.2-1.32t-.84-.78q-.24 0-.48.42-1.8 3.6-4.65 5.85-2.85 2.25-7.83 3.51zm48.84 1.2q-.12-.42-.48-1.26-.42-1.14-.63-1.89-.21-.75-.15-1.47.3-4.8 1.02-12.24l.54-5.46q-1.8 1.74-4.14 4.2-2.16 2.16-3.48 3.42-1.32 1.26-3.12 2.7-1.98 1.5-3.42 1.5l1.98-2.46q4.5-5.58 7.26-9.6t4.5-8.58q-.12-.24-.3-.45-.18-.21-.36-.45-6.36 3.48-9.84 5.46-.3-.6-1.14-1.44-.78-.9-1.11-1.38-.33-.48-.33-1.02 0-.48.42-.9l3.96-1.32q4.92-1.62 6.72-2.34.6-.24 1.2-.9t.54-1.14q-.06-.9-.06-2.88-.06-3.84-.3-6t-1.14-3.48q1.14-.06 2.4.54 1.26.6 2.07 1.65.81 1.05.75 2.19-.18 3.48-.54 7.92.72-.18 1.68-.54.18-.06.93-.3t1.35-.24q1.62 0 2.52 2.46l-5.88 2.52.96.42-.54 2.28q-.48 2.4-.84 3.6-.06.3-.18.87-.12.57-.12.93 0 1.32 1.8 1.86 2.82.9 2.82 3.3 0 1.38-.78 3-1.38-.9-1.74-1.2-.36-.24-.96-.96t-1.02-1.14l-.66 11.7q-.24 5.46-.42 8.34-.24.42-.51.75t-.51.33q-.42 0-.72-.9zm12.36-36.36q.54-.78 1.44-1.32.9-.54 2.22-1.14 1.98-.84 2.97-1.71.99-.87.99-2.61 0-.72-.18-1.5 2.4.12 3.66 1.38 1.26 1.26 1.26 2.94 0 .54-.06.84.06.42-.42 1.23t-.84.93q-1.68.24-8.22.78l-2.82.18zm21.6 18.6q-.6-.06-.78-.51-.18-.45-.24-1.41-.12-1.44-.45-2.37-.33-.93-1.41-1.65 3.24-.66 4.8-2.43Q184 34.84 184 31.9q0-1.74-.45-2.55-.45-.81-1.41-.81-.6 0-1.74.42-2.22.72-3.84 1.68-1.02.78-1.74.78t-1.11-.66q-.39-.66-.69-2.04l2.04-.72q4.02-1.62 7.02-2.34.72-.12.96-.12 1.44 0 2.46.96t1.38 2.46q.3 1.38.3 2.88 0 3.9-1.68 7.68t-4.98 5.46zm-23.1 13.8q3.84-5.46 5.91-10.56 2.07-5.1 2.43-11.04l-7.98 9.96q-1.26 0-1.26-2.94 0-1.32.06-1.68.36-3.48 1.44-11.28l.36-2.82q2.34 1.32 2.34 3.84 0 1.14-.42 2.82-.36 1.8-.36 2.7 0 .84.24 1.5 2.64-1.56 3.69-2.34 1.05-.78 1.5-1.89.45-1.11.45-3.21 0-1.5-.18-3.54l-.06-1.44q1.62.42 2.22 1.32.6.9.96 2.28.54 1.8.54 4.14 0 4.02-1.47 8.82-1.47 4.8-3.93 8.85t-5.22 6.03l-1.26.48zm14.4 8.04V31.54q1.44-.18 2.28.78.84.96.84 2.52v2.58q.12 8.64.12 11.34 0 8.4-.63 12.39t-2.61 5.67zm43.74-.06q-.3.48-1.02-.15t-1.32-1.95q-.6-1.32-.6-2.64l.3-19.38-16.5 3.84-.48-1.2q-.36-.9-.36-1.68 0-.9.66-1.56.54.54 1.8.54 3.12 0 14.4-3 .48-1.2.48-3.42 0-1.26-.06-2.19-.06-.93-.12-1.59-.06-.54-.12-1.29t-.06-1.71q-.72.12-2.4.6-1.68.42-2.28.42-.9 0-1.35-.75-.45-.75-.69-2.79 1.26-.6 3.06-.96 1.32-.3 2.13-.66.81-.36 1.53-1.32.18-1.02.18-1.86 0-2.52-.84-4.5t-2.22-4.14q-.12-.12-.48-.69t-.3-.75q.66 0 1.17-.09.51-.09.99-.09 1.26 0 2.94.9 1.62.84 2.19 2.64.57 1.8.57 4.38 0 1.26-.06 1.86 0 .42-.03 1.05-.03.63.03 1.41 2.76-.66 5.46-1.44 3.36-.96 4.44-.96 1.32 0 2.13.9.81.9 2.43 3.72-2.04 3.6-3.24 5.85-1.2 2.25-2.04 4.95 1.32.06 2.43-.21t2.61-.75q.84-.3 1.68-.51.84-.21 1.5-.21.9 0 1.68.42 1.5.72 2.25 2.46t.75 4.2q0 3.84-1.65 8.16t-4.38 7.29q-2.73 2.97-5.85 2.97-.54-.18-.72-.81-.18-.63-.36-2.07-.18-2.1-.69-3.75t-1.89-2.97l2.28.72q.24.06 1.35.45t2.01.39q1.44 0 2.43-1.35.99-1.35 1.65-4.77.66-3.72.66-5.64 0-1.5-.12-2.34-1.56-.06-3.15.21-1.59.27-4.23.93-.78.24-2.34.6-2.1.42-3.18.48-1.62.18-2.31.45t-1.05 1.08q-.36.81-.48 2.67-.18 2.76-.18 8.16-.06 4.92-.21 7.74-.15 2.82-.81 5.7zm22.74-38.34q-.24.24-.66.24-1.32 0-2.79-2.43t-3.21-6.03q1.2-.36 2.22-.36 2.34 0 3.66 1.53 1.32 1.53 1.32 3.93 0 1.5-.54 3.12zm-21.66.66v9.78l5.34-.66 1.56-6.06.42-1.38q.48-1.68.69-2.76.21-1.08.27-2.58-.3.06-.63.12t-.63.18q-3.24.78-4.74 1.41-1.5.63-2.28 1.95zm68.04.84q-.36.18-.72.18-.42 0-.48-.24 1.98-2.7 2.88-4.02.9-1.32 1.44-2.94l.06-.36q0-.3-.12-.42t-.36-.18q-3 2.7-7.08 3.3 2.28-2.4 4.14-5.07 1.86-2.67 1.86-5.55.78-.18 1.68.36.9.54 1.5 1.44.6.9.6 1.68 0 .72-.66 1.08.54.3 1.26.3.54 0 1.23-.18t.99-.24q1.44-.48 2.28-.48 1.92 0 3.24 2.28-2.52.18-4.2.42-.48.06-3.18.3.42 1.14.42 1.86 0 1.86-1.68 3.39t-5.1 3.09zm-10.62 1.62q-.12-.36-.72-1.38-.78-1.44-.96-1.92-.6-1.8-1.32-2.64-.72-.84-1.68-.84-1.26 0-3.3 1.38-2.22 1.56-6.78 4.32 1.32-2.22 4.5-5.52 2.7-2.88 4.26-5.1 1.56-2.22 2.22-5.28.3.18.93.45.63.27 1.05.57.42.3.54.66.6 1.8.6 2.94 0 1.44-.78 2.76.48.12 1.92-.54 1.56-.78 2.4-.78 1.86 0 3 2.7-1.8.36-3 .54-1.8.24-3.06.54.48.84.78 1.65.3.81.57 1.8.27.99.39 1.53 0 1.02-.45 1.8t-1.11.36zm16.98 35.88q-.48-.18-.63-.66-.15-.48-.21-1.38-.18-1.74-.75-2.94-.57-1.2-2.49-2.16.54-.12.96-.21.42-.09.72-.15 1.32-.3 1.83-.51.51-.21.72-.87.21-.66.21-2.16 0-5.16-.3-9.57t-.36-5.25l-.3-3.9q-.12-1.5-.78-2.4-.66-.9-1.98-.9-.72 0-1.74.36-1.8.6-5.82 1.5l-2.94.66q-.12-.12-.9-.78t-.78-1.38q0-.48.48-.78 2.34-.54 6.24-1.68 4.32-1.32 7.14-1.86.9-.18 2.16.57 1.26.75 2.13 2.28.87 1.53.81 3.45l.3 4.8q.6 11.22.66 16.8 0 1.86-.54 4.02-.54 2.16-1.53 3.63-.99 1.47-2.31 1.47zm-19.5-28.5q-.84-1.2-2.16-2.7-1.44-1.68-2.13-2.7-.69-1.02-.69-1.86 1.5-.66 2.58-.66 1.8 0 3 1.98.84 1.56.84 3.66 0 .96-.18 1.8-.3.66-.78.66-.24 0-.48-.18zm-6.24 25.62q-1.62-.36-2.22-1.14-.6-.78-.6-1.92 0-.66.06-1.2.06-.54.12-.9.24-2.82.24-8.4 0-5.64.12-8.46.06-1.14-.18-3.66l-.18-1.86q0-.9.96-.54 1.02.3 1.56 1.35t.54 2.07v2.16q0 7.44-.3 17.22l-.12 5.28zm16.8-3.9q-.48-.6-.57-1.5-.09-.9-.09-2.46.12-2.88.24-4.38.24-4.32.24-6.12 0-2.46-.3-3.66-.48-.36-1.32-.36-.6 0-2.22.54-1.44.48-1.98.48-1.2 0-1.92-1.5l6-2.1q.48-.12 1.44-.48 1.44.18 2.19.69t1.08 1.74q.33 1.23.33 3.57 0 2.94-.48 6.48-.48 3.54-1.2 6.12t-1.44 2.94zm-10.2-3.42q.18-4.14.18-4.86 0-6.84-1.38-9.6 2.04-.18 2.73.96t1.05 3.48q.6 0 1.92-.48 1.38-.42 1.86-.42.72 0 1.26.48.18.06.18.42 0 .42-.3.84-2.28 1.02-4.8 1.86v3.6q.48.3.9.3.48 0 1.68-.48 1.08-.48 1.62-.48 1.14 0 1.92 1.56-2.28.72-5.28 2.22-.72.36-1.35.63-.63.27-1.11.27-.48 0-1.08-.3z"/></svg>