<svg viewBox="0 0 389 80" xmlns="http://www.w3.org/2000/svg"><path d="M22.18 29.84q0-.72.42-1.2 1.38-1.56 2.55-2.13 1.17-.57 3.03-.57.9.78 4.26.78L58 26.66q1.8 0 2.52.27t.72 1.17q0 .36-.06.6-.36 1.44-.99 1.86-.63.42-2.19.54-11.4-.42-19.02-.6-10.68-.24-13.5 1.02-.54.24-1.2.24-.9 0-1.5-.57t-.6-1.35zm2.4 11.46q0-.72.42-1.2 1.38-1.56 2.55-2.13 1.17-.57 3.03-.57.9.78 4.26.78l20.76-.06q1.8 0 2.52.27t.72 1.17q0 .36-.06.6-.36 1.44-.99 1.86-.63.42-2.19.54l-1.32-.06q-9.18-.42-14.76-.54-8.82-.3-11.64 1.02-.54.24-1.2.24-.9 0-1.5-.57t-.6-1.35zm-1.2 9q.6-.06 1.8-.12 4.02-.18 12.84-.6t17.22-.18q8.34.24 13.38.24h.48q.48 0 .48.36 0 .24-.18.9-1.14 2.28-2.46 3.27-1.32.99-2.64.99-.9 0-1.5-.36-4.02-1.56-17.34-1.56-8.28 0-16.08.63-7.8.63-10.5 1.53-.72.24-1.26.3-.72.06-1.14-.48-.6-.72-.6-1.38 0-.48.36-1.02 1.2-1.8 2.28-2.4 1.08-.6 2.82-.6.54.6 2.04.48zM91.9 38.96q-.06 1.98-.06 5.88 0 6.54.24 9.36.12 1.5-.48 2.22-.6.72-2.4 1.14-.3.06-.72.06-1.02 0-1.32-.72-.3-.72-.3-2.1l.06-13.62Q85 44.3 82.78 46.1q-.6.48-1.77.72t-2.37.24q-1.2 0-1.92-.18-1.2-.24-1.2-1.02t1.38-1.92q3.24-2.76 4.98-4.35 1.74-1.59 3.09-3.45 1.35-1.86 1.77-3.9 0-.12.06-.12-3.84 0-5.88.78-.42.18-.84.18-.72 0-1.2-.45t-.48-1.05q0-.42.3-.84.96-1.26 1.92-1.68.96-.42 2.28-.42.72.6 3.3.6h.72v-4.38q.24-1.74.84-2.31.6-.57 2.04-.57t2.19.48q.75.48.75 2.04 0 .36-.12 1.44l-.36 3.3h2.88q1.44-.06 1.95.24t.39 1.26q-.24 1.08-.72 1.41-.48.33-1.62.39l-3.06-.24v.42q.66 1.14 2.67 3.54 2.01 2.4 3.51 3.48.66.54.66 1.2 0 .84-.9.84-.3 0-.48-.06-1.26-.3-2.79-1.05t-2.85-1.71zm38.4 14.52q1.02.3 1.02.78 0 .36-.3.72-1.8 2.82-4.56 2.82-1.44 0-3.42-.84-1.74-.78-3.99-2.73t-5.31-4.95q-4.44 3.9-9.48 5.34-1.08.3-1.8.3-1.38 0-2.82-1.02-1.14-.78-1.14-1.32 0-.42.66-.6 7.74-1.92 12-5.28-2.88-2.82-3.84-3.42-.96-.66-1.86-1.14-2.16 6-7.02 8.1-.54.24-1.44.24-1.08 0-2.19-.36-1.11-.36-1.65-.84-.6-.6-.6-.96 0-.48.78-.72 4.2-1.32 6.24-4.08t2.61-5.85q.57-3.09.75-7.95-1.08.24-1.62.42-.72.24-.96.24-.72 0-1.23-.48t-.51-1.14q0-.6.36-1.02.96-1.32 2.01-1.77 1.05-.45 2.55-.45.48.36 1.29.48t2.31.12h7.68L115 26q.72-.48 1.5-.48 1.44 0 2.1 1.86.12.24.12.84 0 1.26-.99 3.03-.99 1.77-2.49 3.33.42.06 1.26.06h1.38q.48-.3 1.08-.12 1.14.36 1.47.81.33.45.33 1.29v.72q-.18 2.1-1.26 4.41t-2.88 4.53q8.64 5.64 13.68 7.2zm-23.04-14.04q.18.3 2.04 1.71t4.32 3.09q2.28-2.76 3.12-7.02-3.3.12-4.98.72-.24.12-.72.12-.66 0-1.11-.42-.45-.42-.45-.96 0-.48.3-.78.96-1.2 2.16-1.62.6-1.44 1.08-3.78l.36-1.62q-2.76-.12-5.88.18-.18 5.88-1.08 9.84.42.24.84.54zm82.62 10.08q.54.12.81.27.27.15.27.45 0 .24-.18.6-1.68 3.36-4.92 3.36-1.38 0-3.06-.6-3.78-1.32-13.5-6.9l-2.7-1.5q-.06 1.44-.06 3.12 0 5.1-1.56 7.38-.84 1.26-2.16 1.92-1.32.66-3.42.66-2.58 0-4.98-.99-2.4-.99-3.72-2.61-.96-1.26-.96-2.1 0-.66.72-.66.6 0 2.04.72 1.44.48 2.52.48 1.92 0 3.09-1.41t1.35-4.29v-.48q-2.22.96-7.2 2.64-4.98 1.68-9 3-1.02.36-1.8.6t-1.26.42q-.54.18-1.14.18-.96 0-1.8-.45-.84-.45-1.26-1.29-.42-.78-.42-1.38 0-1.44 2.46-1.56 4.5-.12 10.8-1.53 6.3-1.41 10.68-2.79 0-4.2-.06-6.6-10.98 0-13.14.78-.48.24-1.02.24-.72 0-1.17-.45-.45-.45-.45-1.05 0-.54.36-.96.96-1.26 1.92-1.71.96-.45 2.46-.45.66.66 3.3.66 3.18 0 7.74.18v-2.28l-10.98-.06q-5.64 0-7.5.66-.36.18-.78.18-.54 0-.93-.39t-.39-.87q0-.48.24-.78.78-1.02 1.59-1.38.81-.36 2.01-.36.54.48 2.76.48h13.98q-.06-.9-.06-2.4-9.6 0-11.94.78-.54.18-1.02.18-.72 0-1.17-.42-.45-.42-.45-1.02 0-.48.36-1.02.9-1.26 1.89-1.68.99-.42 2.49-.42.72.6 3.3.6 3.9 0 6.6-.06.18-1.74.81-2.76.63-1.02 2.01-1.02.42 0 1.08.18 1.62.36 2.43.99t.99 2.55q7.44-.12 12.96-.3 1.14-.06 1.77.45.63.51.63 1.95 0 .66-.18 1.68-.24 1.62-.24 1.74h4.92q.6 0 .84.12.42.24.42.84v.36q-.18.84-.6 1.14-.42.3-1.44.42l-.9-.06q-.36-.06-1.74-.06l-1.8-.06-.06 1.14.06.84.06.72q0 1.26-.57 2.13-.57.87-1.65.87-.54 0-.9-.12-.72-.18-4.08-.39-3.36-.21-7.62-.27-.06 1.26-.06 3.6 1.8.9 3.12 1.44.06-.06.54-.3 1.62-.72 2.64-2.46.54-.78.93-1.11.39-.33 1.05-.33 2.34 0 2.34 1.92 0 1.56-1.35 2.46-1.35.9-3.21 1.08 9.54 3.84 17.22 4.98zm-23.1-21.24q0 1.44-.06 2.34h10.62q-.06-1.08-.3-1.56t-.84-.54q-5.76-.18-9.42-.24zm-.06 4.92q-.06.72-.06 2.34H169q7.98 0 8.16-.78.06-.54.06-1.5l-10.5-.06zM155.5 43.76q-1.44.72-3.42.72-1.5 0-2.7-.48-1.2-.48-1.74-1.5-.36-.72-.36-1.26 0-1.5 1.8-2.04.48-.12.66-.12.66 0 1.05.3t.99.96q.66.78 1.35 1.29.69.51 1.77.81.96.18.96.84 0 .3-.36.48zm88.2-13.8q-2.16-1.26-4.2-2.1-2.04-.84-4.32-1.02-.9-.06-1.47-.75t-.57-1.59q0-.78.36-1.38.78-1.38 2.28-1.38 1.14 0 2.7.96.84.36 3.12 2.37 2.28 2.01 3.6 3.33.3.42.3.72 0 .42-.3.72t-.78.3q-.36 0-.72-.18zm-6.06 7.08l7.86-.06q2.94 0 4.23.87 1.29.87 1.29 3.15 0 1.74-.72 4.56-.9 3.66-3.36 6.24t-6.12 3.48q-.9.24-2.1.24-2.7 0-5.49-1.23t-4.11-2.55q-.54-.54-.54-1.02 0-.42.42-.66.42-.24 1.02-.24.54 0 1.08.18 2.1.78 4.44.78 2.28 0 4.17-.84 1.89-.84 3.09-2.4 1.74-2.34 1.74-3.96 0-2.22-3.42-2.22l-15.18-.06v2.46q0 4.5.24 10.38.06.3.06.84 0 1.32-.81 2.07-.81.75-2.73 1.17-.6.12-.9.12-1.86 0-1.86-2.58 0-.6.06-.9V41.24l-10.14-.06q-4.26.24-9.3 1.98-.78.3-1.32.3-.78 0-1.32-.54-.6-.78-.6-1.5 0-.54.36-1.14 1.26-2.04 2.49-2.67 1.23-.63 3.09-.63.84.48 2.34.48l1.92-.06 12.54-.12v-4.62q-7.74.42-10.74 1.44-.54.24-1.2.24-.9 0-1.5-.57t-.6-1.35q0-.72.42-1.2 1.26-1.62 2.49-2.16 1.23-.54 3.09-.54.54.48 2.67.63 2.13.15 1.59.15h3.78v-3.48q.12-1.62.57-2.28.45-.66 1.11-.84.66-.18 2.52-.42 1.32 0 2.04.63t.72 2.31q0 .72-.18 1.8l-.3 2.28q4.2 0 6.06-.06.3-.54.81-.72.51-.18 1.26-.27.75-.09 1.05-.15 1.32 0 2.04.63t.72 2.31q0 .72-.18 1.8-.48 1.2-.6 1.95t-.06 2.19v.06zm-5.52-4.44q-1.8-.06-5.82-.06-.12 1.56-.24 4.68l6-.12q0-2.22.06-2.64V32.6zm79.14 1.56q.12.12.54.57.42.45.36.93 0 .24-.24.72-.66.54-1.32.54-.84 0-1.8-.6-.78-.54-3.3-2.94-2.76-2.64-4.2-3.84l-1.62-1.44-1.32-1.2v.12q.18 1.26.18 2.22 0 1.74-1.44 1.74-.66 0-1.86-.36-1.74-.66-2.4-1.38-.66-.72-.66-1.92 0-.3.12-1.26.06-.36.3-1.08-3.78.36-7.56 1.26-.66.06-.99-.15-.33-.21-.33-.63 0-.42.39-.96t1.05-1.02q.78-.54 1.8-1.02t1.38-.66q2.04-1.02 3.24-1.74 1.2-.72 2.34-1.8.48-.48 1.14-.48 1.02 0 2.19.93t1.71 2.07q.3.66.36 1.14l.36.48q3.84 4.86 11.58 11.76zm-32.88.36q.66.36.66.84t-.75.81q-.75.33-2.19.33-.96 0-1.77-.27t-1.71-.93q-.96-.66-.96-1.86 0-1.14 1.08-2.58.42-.42.72-.6-.6-.36-.6-1.62 0-.78.06-1.26l.18-.84h-.06l-2.4 2.34q-2.4 2.28-3.48 3.42-4.38 4.26-5.4 4.92-.78.42-1.44.42-.48 0-1.56-.36-.3-.12-.3-.6.12-.6.72-1.32l1.32-1.32q3.18-3.42 6.18-6.3l1.98-2.04q3.3-3.3 4.26-4.5 1.2-1.5 2.49-2.55 1.29-1.05 2.01-.63 1.14.66 1.14 1.62 0 .54-.36 1.38l-.06.18q1.74-.36 3.42-.54.54-.06 1.38-.06 1.08 0 1.59.3t.51 1.08q0 .36-.06.54-.36 1.38-1.02 1.83-.66.45-2.4.75l-2.52.18q.06.36.12.81.06.45.06 1.05 0 1.2-.72 2.01-.72.81-2.58 1.29.12.42.33 1.2.21.78.66 1.47.45.69 1.47 1.41zm26.7.66q.36.18.99 1.11.63.93 1.08 2.16.45 1.23.45 2.37 0 .42-.06.66-.72 3.84-.72 11.16 0 2.4.06 3.54.06.36.06.96 0 .84-.3 1.2t-.96.36q-.66 0-2.1-.48-2.76-.78-2.76-3.84l.06-.84q.06-5.34.06-16.08-2.64-1.32-5.52-2.01-2.88-.69-5.52-.69-3.06 0-5.52.9-.66.3-1.44.3-.96 0-1.56-.51-.6-.51-.6-1.23 0-.6.48-1.26 1.38-1.74 2.76-2.37 1.38-.63 3.3-.51 1.2 1.02 4.62 1.32 8.7 1.26 13.14 3.78zm-35.46.36q.72-.12.9-.12 1.02 0 1.29.6t.27 1.74q.12 5.82-1.05 11.61-1.17 5.79-4.41 8.85-1.26 1.2-3.06 2.25t-2.58.99q-.66 0-.66-.48 0-.3.66-1.38 4.2-5.64 5.04-10.44.36-1.8.36-4.2l-.06-3.78q.06-2.16.69-3.63.63-1.47 2.61-2.01zm26.16 2.58q1.44.36 1.44 1.98 0 .72-.42 1.98-.12.72-.3 6.6-.06.72-.06 1.74-.06.78-.36 1.14-.3.36-.96.36-.54 0-1.56-.3t-2.22-.66q-.72-.3-2.55-.57-1.83-.27-3.75-.27-2.1 0-4.17.3t-2.73.66q-.48.24-.84.24-.54 0-.66-.54t-.09-1.32q.03-.78.03-1.14l.06-3.66q0-2.1-.18-3.06-.24-1.68.99-3.12 1.23-1.44 3.33-1.5.9-.06 2.82-.06 2.88 0 6 .3 3.24.3 6.18.9zm-13.08 1.62q-.78.3-1.02 2.76 1.86-.18 3.84-.18 3.24 0 6.48.54 0-2.4-1.44-2.94-1.38-.54-4.5-.54-2.7 0-3.36.36zm7.2 7.86q.84-.06 1.17-.24.33-.18.45-.78.18-.54.3-1.14-3.9-.72-7.38-.72-.96 0-2.88.12 0 1.8.12 1.92-.06.54.75.72.81.18 2.61.24l4.86-.12zm63.18-15.48q2.64 3.3 7.38 7.62t9.78 7.02q.78.48.78.84t-.42.78q-1.86 1.68-3.9 1.68t-4.44-1.86q-1.5-1.32-3.09-3.21-1.59-1.89-3.93-4.89-1.92-2.52-3.18-4.02-.12 3.72-.12 11.04h4.56q1.32 0 1.83.27t.33 1.11q-.18 1.02-.66 1.32-.48.3-1.5.36-2.82-.18-4.5-.24l.18 4.32q.06.3.06.84 0 1.32-.81 2.07-.81.75-2.73 1.17-.6.12-.9.12-1.86 0-1.86-2.58 0-.6.06-.9v-5.16q-3.66.12-5.22.66-.42.18-.84.18-.6 0-1.02-.39-.42-.39-.42-.93 0-.36.3-.84.84-1.08 1.71-1.47.87-.39 2.13-.39.6.54 2.88.54h.48q0-6.96.06-10.44l-1.68 2.52q-3.24 5.1-5.64 7.56-2.52 2.28-4.68 2.28-1.8 0-3.6-1.38-.48-.42-.48-.78 0-.36.66-.9 4.74-3.06 8.64-7.02 3.9-3.96 6.06-7.02-6.36.12-8.28.78-.72.24-1.02.24-.78 0-1.26-.48t-.48-1.08q0-.6.36-1.02 1.08-1.32 2.13-1.8 1.05-.48 2.55-.48.72.66 3.48.66h3.24v-3.96q.12-1.62.57-2.28.45-.66 1.11-.84.66-.18 2.52-.42 1.32 0 2.04.63t.72 2.31q0 .72-.18 1.8-.24 1.62-.3 2.7h8.64q1.62 0 2.22.33.6.33.42 1.35-.24 1.2-.81 1.56-.57.36-1.83.48-6.36-.3-8.1-.36zm-18.54-5.04q-1.44 1.38-4.44 2.82-.3 4.32-.3 12.42 0 7.2.18 11.16.06.3.06.78 0 1.14-.72 1.8-.72.66-2.46 1.08-.6.12-.78.12-1.74 0-1.74-2.34 0-.54.06-.84 0-15.48.06-22.2-2.52.6-3.78.6-.48 0-.72-.06-1.14-.12-2.55-1.14t-2.25-2.46q-.18-.3-.18-.6 0-.48.51-.87t1.41-.39q.42 0 .66.06 1.44.12 2.34.12 3.78 0 7.86-1.05t6.54-2.55q.24-.24.66-.24.9 0 .9 1.5 0 1.44-1.32 2.28z"/></svg>