<svg viewBox="0 0 388 80" xmlns="http://www.w3.org/2000/svg"><path d="M32.18 28.6q-.72.24-1.44-.87-.72-1.11-1.17-2.7-.45-1.59-.45-2.61 0-.72.24-.72 7.08-.42 17.82-2.04 1.02-.18 1.68.48.66.66.66 1.68 0 .84-.48 1.71T47.66 25q-4.38 2.94-8.94 2.94-2.22 0-4.17.3-1.95.3-2.37.36zm-2.7 8.16q1.26-.12 7.2-1.08 5.94-.96 8.76-1.5.18-.06.6-.06.96 0 1.53.63.57.63.57 1.59 0 1.86-1.86 3.12-2.1 1.2-4.41 1.77-2.31.57-6.21 1.23-1.8.24-3.66.66-.66.24-1.35-.69-.69-.93-1.14-2.34-.45-1.41-.45-2.37 0-.9.42-.96zM58.46 48.7q.72-.06 1.29.81.57.87 1.17 2.85.72 2.22.72 3.84 0 2.04-1.32 2.04-.12 0-.6-.12-2.04-.78-2.16-.84-2.34-.9-4.11-1.38-1.77-.48-4.59-.66-.48-.06-3.6-.06-2.76 0-3.72.12l-8.22.9q-6.6.66-9.75 1.11-3.15.45-5.43 1.23-.9-.54-1.53-1.98t-.81-3.78q0-.66 1.26-.84 3.3-.24 5.82-.33 2.52-.09 4.2-.21 9.6-.48 16.41-1.02 6.81-.54 14.97-1.68zm64.8 9.3q2.82 1.32 4.41 2.4 1.59 1.08 1.53 2.22.06.9-1.92.72-7.62.06-12.84-1.14-.66-.06-.93-.63-.27-.57-.51-1.83-.36-1.56-.72-2.55-.36-.99-1.32-1.95-.3-.3-2.46-1.92-.42.6-1.2 1.5-.6.66-.9 1.5-.12.42-.36.69-.24.27-1.08.63-1.8.84-3.45 1.32-1.65.48-3.45.48-2.58 0-4.26-.78-2.16 1.92-4.44 2.34 0 3.06.06 3.42.06.78-.66.78-.6 0-1.5-.24t-1.77-.9q-.87-.66-.69-1.08.96-3.12.96-4.86 0-5.76.06-10.26-1.86 1.38-2.34 2.34-.3.66-.54 1.5-.36 1.32-.78 1.8-.9 1.2-2.52 1.98t-3.78.9h-.18q-.54 0-.93-.21t-.39-.57q0-.18.18-.54.78-1.08 2.76-3.42 2.58-3.18 3.99-5.04 1.41-1.86 2.61-4.02 1.02-1.86 1.02-3.06-1.62.66-2.61 1.26-.99.6-2.43 1.56l-1.32.9q-.48.24-1.35-.72-.87-.96-1.53-2.58t-.66-3.24q0-.6.27-.75.27-.15.99-.21 5.1-1.2 9.72-3.18.06-10.68.12-13.92t.06-3.36q0-1.02.12-1.38.12-.36.48-.42 1.02-.12 2.16.24 1.14.36 2.01.9.87.54.99.84l.06.12q0 .18-.24.45t-.54.39q-.24.18-.36.78-.12.6-.12.96-.3 2.22-.6 12.3l.84-.48q.3-.18.66-.18.9 0 1.68 1.5.66 1.14.66 1.92 0 1.02-1.2 1.74l-1.44.9q-.6 1.44-.6 1.98 0 .6.42.84 1.14.72 1.62 1.23.48.51.81.99.33.48.57.78.24.36-.24 1.35-.48.99-1.23 1.74t-1.17.57q-1.02-.42-1.8-1.38l-.3 14.1q3.24-3.72 5.52-8.55 2.28-4.83 3.39-9.42 1.11-4.59 1.05-7.71l-.66.42q-.18.12-.81.57-.63.45-1.11.45-.42 0-.72-.3-.78-.66-1.41-1.62-.63-.96-.69-1.8v-.12q0-.3.12-.36t.36-.03q.24.03.42.03 1.38-.12 7.44-2.94 1.02-.42 3.42-1.5t4.02-1.62q1.14-.48 1.74-.48.6 0 1.38.36.78.36 1.14.54 1.5.6 2.13 1.02.63.42.63.78 0 .3-.42.72-.6.6-1.56 2.34-1.02 1.98-1.95 3.99-.93 2.01-1.23 2.67l-.9 1.98q1.32 0 1.8-.06 1.38 0 2.28.06 1.14.06 1.14 1.08 0 .84-1.14 3.12l-.72 1.56q-2.46 5.1-3.24 6.54l.54.48q2.46 1.92 5.61 3.99 3.15 2.07 6.27 3.75zm-15.54-29.46l-2.16.96q-1.26 2.34-1.98 5.58-.36 1.44-.48 2.1-.6 2.64-1.14 4.38 1.56 1.92 3.84 3.36.12.18.78.69t.96.81q1.38-2.4 1.68-3.06.48-.84.48-1.32 0-.66-1.2-.9-.54-.12-1.38-.12l-1.26.06q-.6 0-.9-.36-.18-.3-.18-.54 0-.48.72-1.68 1.86-3.36 3.12-7.14.06-.24.27-.93.21-.69.21-1.23 0-.84-.66-.84-.24 0-.72.18zm-4.44 24.06q.6-.54 1.92-2.22-.36-.42-.57-.69-.21-.27-.39-.45-1.68-2.1-4.26-2.64-.48 1.02-1.68 2.82l-.72 1.2q-.24.54-.63 1.29t-.54 1.2q-.15.45.03.81.18.36-.03 1.08-.21.72-.75 1.56 2.16-.48 3.9-1.38 1.74-.9 3.72-2.58zm62.76-7.08q-.36.66-.84 1.74t-.78 1.68q-.66 1.56-1.02 2.28-.3.54-.3 1.02 0 .3.06.51.06.21.06.45 0 .48-.48.96-1.26 1.26-3.36 2.22.12.06.24.36.3.66.3 1.98 0 1.14-.27 2.37-.27 1.23-.57 1.71-.24.42-.54.42-.3 0-.66-.42-.36-.42-.6-.84-.06-.12-1.14-1.53-1.08-1.41-4.44-3.63l-.78 1.2q-.66 1.26-.66 2.4 0 .66-.3.9t-1.68.42q-1.98.18-3.3.18-2.28 0-3.36-.39t-1.08-.87q0-.36.66-.48 4.92-1.2 8.1-3.66l.66-.78q-1.14-.72-2.7-1.44-.96-.3-1.35-.66-.39-.36-.39-.84 0-.6.78-2.16l.42-.84q-6.06 2.76-8.76 4.5-.84.3-1.56-.63-.72-.93-1.2-2.61l-.06-.3q0-.66 1.2-.66 7.26-2.94 12.72-5.28.9-2.04 1.38-3.72-.42-.54-.36-1.14.3-2.22.3-3.3-.78.9-1.26 1.68-.3.48-.57 1.14-.27.66-.6 1.11-.33.45-.93.69-1.5.6-2.49.87-.99.27-2.31.27-1.2 0-1.41-.24-.21-.24-.09-.72.24-.24 1.2-.96 1.44-1.08 2.34-1.98 2.22-2.1 2.91-2.91t.69-1.59q0-.42-.18-.84-3.06 1.5-5.22 2.82-.84.3-1.59-.63-.75-.93-1.17-2.61l-.06-.3q0-.66 1.2-.66 3.42-1.38 5.88-2.52.84-.36 1.77-.75l2.07-.87-.12-1.92q-.18-.54-.18-.9 0-.54.27-.87.27-.33.51-.27 1.14.18 2.28.84 1.14.66 1.86 1.38l1.56-.54q.12-.06.48-.06.54 0 .96.42.3-.48 1.2-.48.96 0 1.32.06l.84-.36q.84-2.28 3-6.84l.66-1.5q.12-.3.69-1.59t.87-2.25l.15-.45q.09-.27.15-.33t.18-.06q.66-.12 1.74.75t1.98 2.13l.12.36q0 .3-.42.42-.48.18-.63.33-.15.15-.21.45-.06.3-.36.66-1.14 1.32-3.42 5.22l-.66 1.02-.24.36q2.22-.6 6.42-1.26 3-.18 4.77.39 1.77.57 3.57 1.71.36.24.36.48 0 .3-.3.6-1.5 1.68-1.98 3.12-1.14 3.78-2.28 7.98-.24.9-.3 1.14-.48 1.74-.87 2.4-.39.66-1.23.36l-1.02-.42-1.26.24q-.72.18-3.3.84-.9 2.82-1.68 4.32zm-22.08-21.24q-.54 0-.69-.15-.15-.15.21-.45 1.74-.96 3.3-2.04 1.56-1.08 2.88-2.1.36-.24.87-.63t1.17-.87l3.06-1.98q.3-.24.57-.39.27-.15.45-.27.72-.6 1.32-.6.3 0 .54.18 2.16 1.98 2.16 3 0 .54-.54.9-.48.3-1.38.6-.9.3-2.28.66-1.5.48-2.25.87t-1.77 1.23q-.24.18-.69.78-.45.6-.93.66-.78.24-3.6.54-1.26.18-2.4.06zm29.16 3.6l.06-.9q0-1.14-.6-1.59-.6-.45-2.34-.33-.3 1.32-.72 4.08l1.02-.24h.18q.66 0 .9.78.66 1.38.66 2.1 0 .54-.33.66t-.87.06h-.3q-.42 0-1.74.24-.24 3.12-.24 4.26l1.68-.36q.42-.12.78 0 .18-.18.3-.66.12-.42.63-2.28.51-1.86.93-5.82zm-7.38 2.04q0-2.64-.18-3.72-.96.36-1.68.69-.72.33-1.2.57-.12.6-.12 1.02v.54q0 .9.06 1.5 2.28-.42 3.12-.6zm-6.3 22.74q4.02-5.4 4.8-10.44-.06.06-1.8.66-.24.18-.72-.15-.48-.33-.93-.99-.45-.66-.63-1.44v-.06q0-.36 1.08-.6l.48-.18q-.96-2.04-1.53-4.23-.57-2.19-1.47-6.33-.18.06-.36 0-2.28.78-4.02 1.44l-.24 2.28q2.04.42 2.28.48.18.06.81.15.63.09 1.05.63.42.54.48 1.62.18 3.12-1.2 3.12-.36 0-1.08-.3l-2.46-1.08q0 1.86.18 3.96 0 .48-.06.66.3.42.3.48l.03.03.03.03q.18-.06.42-.18t.54-.24q.06-.06.24-.06 0-.66.06-1.08.06-.36.18-.57.12-.21.3-.15 1.26.48 1.89.84.63.36 1.23.96.24.24.24.42t-.24.54q-.36.48-1.02 2.19t-.9 2.61q-1.32 3.36-3.36 6.06l3.18 1.38q.96-.96 2.22-2.46zm3.6-18.42q.48 2.64 1.26 4.26l.84-.3q.36-3.42.42-4.56-2.1.54-2.52.6zm23.64 26.28q.18 1.2.18 1.92 0 1.2-.57 1.59-.57.39-2.31.51-5.34.48-11.34.48-1.68 0-3.33-1.5-1.65-1.5-2.58-4.05-.93-2.55-.75-5.49.24-2.76 1.14-6.48.72-2.58.72-4.08 0-.84.42-.84.9 0 1.77.48t1.41 1.26q.18.24.15.42t-.15.24q-.36.12-.66 1.14-.48 1.2-1.08 3.66h.84q.9-1.8 1.68-3.66.78-1.86.96-2.22.6-1.38.6-2.46 0-.36.09-.48t.45.06q1.62.72 2.7 1.8.3.3.3.48 0 .12-.27.3t-.39.24q-.12.06-.63.99-.51.93-.57.99l-.6 1.14q-.54.96-1.32 2.58 1.08-.18 1.98-.18.06-1.02.48-2.46.36-1.08.72-1.26h.12q.3 0 1.02.9 1.38 1.86 2.07 2.97t1.17 2.25q.24.54.24.96 0 .3-.18.48l-.24.27q-.24.27-1.08.15-1.86-.24-2.67-.48-.81-.24-1.17-.72-3.84.84-6 1.8-.06.06-.24.06-.36 0-.78-.6-.06.48-.06 1.32 0 2.82 1.38 4.29 1.38 1.47 4.02 1.47 2.16 0 3.51-.12 1.35-.12 1.77-.18 1.62-.12 2.25-.45.63-.33.81-.9.18-.57.3-2.31.12-1.2.12-4.38 0-3.36-.12-4.86-.12-.48-.12-1.14 0-.66.24-.66.36 0 .93 1.02.57 1.02 1.11 2.64.6 2.58 1.26 8.76l.3 2.34zm-36.42-8.58q.9.54 1.5.78l.54-.9q1.44-2.4 2.34-5.46l-2.94 1.2-1.44 2.1q-.66.96-.66 1.44t.66.84zm90.78-7.56q1.5 3.18 1.5 4.44 0 .6-.42.54-2.28-.78-5.94-.78-2.16 0-5.16.3-.42 7.44-.42 11.1 0 3.06.18 6.48v.42q0 .72-.24.9-.24.18-1.02.06-1.56-.12-2.07-.36-.51-.24-.51-.78t.18-1.26q.42-2.1.42-4.5 0-5.7-.36-11.58-6.84 1.14-12.78 3.06-.36.12-.72-.75t-.66-1.89q-.3-1.02-.42-1.44v-.12q0-.3.9-.3l3.72-.78q1.62-1.92 2.58-3.45.96-1.53 1.68-3.21-.12.06-.36.06-.6.48-.87.6t-.45-.18q-1.56-2.04-2.52-5.04t-2.04-7.56l-.54-2.28q-.18-.36-.18-.54 0-.66 1.2-.84.96-.12 1.38-.12 1.68-2.58 3.66-5.1l2.04-2.88q.3-.42 1.29-1.65t1.17-1.95q.12-.42.24-.63.12-.21.3-.21.6 0 2.04 1.38t1.98 2.7l.06.36q0 .24-.21.3t-.27.06q-.54.12-.72.24-.18.12-.33.42-.15.3-.57.6-1.62 1.14-5.46 4.98 2.88-.78 5.4-1.2 2.52-.42 5.46-.54 2.4 0 3.9.48t3 1.26q1.32.72 1.32 1.32 0 .18-.3.48-.48.42-1.08 1.23-.6.81-1.02 1.77-.6 1.44-.99 2.91-.39 1.47-.63 2.79-.3 1.62-.6 2.58-.84 2.64-1.2 3.36-.36.72-1.14.42l-2.34-1.08q-2.16.18-6.66.84-1.38 3.36-3.54 6.3l4.92-1.02q-.12-1.08-.21-1.74-.09-.66-.15-1.08-.18-1.08-.18-1.56 0-.3.09-.39.09-.09.45-.09.96 0 3.03.51t2.19.87l.06.18q0 .24-.24.69-.24.45-.36.75-.18.36-.18.96 4.14-.78 7.68-1.26.6-.06 1.02.12.42.18 1.02 1.32zM213.08 37q1.26.72 1.65 1.14.39.42.03.9-.96 1.92-1.59 3.51-.63 1.59-.81 3.27-.06 1.32-.42 1.8t-1.14.54q-.6.12-1.35.39-.75.27-.99.39-1.32.6-2.4.84-.42.42-1.32 1.02-.24.12-.42.12-.42 0-.84-.27t-.54-.63l-.72-1.8q-1.02-2.22-1.26-3.3-.42.6-.72 1.32-.3.72-.54 1.02-.24.48-1.8.87t-2.82.51l-.78.06q-1.56 0-1.56-.54 0-.3.54-.84 4.08-4.2 7.02-8.22 2.94-4.02 3.48-6.42-1.32.54-1.92.66-.54.06-1.2-.63-.66-.69-1.11-1.95-.45-1.26-.45-2.82 0-.36.27-.63t.75-.33q3-.3 5.07-.81 2.07-.51 4.53-1.41l1.38-.48q1.02-.36 1.38-.36.42 0 .57.3.15.3.33.93.18.63.24.87.48 1.44.48 2.1 0 1.02-.9 1.32-1.44.3-1.92.42-.12.24-.36.42-1.32 1.32-3.36 4.38l-1.32 1.92q2.58-.6 3.54-.9.42-.12 1.68.51l1.62.81zm19.8-10.14q.12-1.08-.66-1.44-.78-.36-2.4-.24l-.78.06q-.36.66-.48 1.5l-.18 1.92 2.46-.6h.18q.6 0 .84.72.36 1.14.36 1.74 0 1.02-.96.9-.72-.06-3.12.48l-.18 2.4q-.06.54-.3 1.62 2.52-.36 3.48-.6 1.2-4.2 1.74-8.46zm-13.08 3.78q.06.42.42 2.34t1.14 3.66l1.8-.18q.3-1.44.42-3.3-.9.24-1.56.36-.42.06-.99-1.14-.57-1.2-.57-1.74 0-.3.09-.36t.27-.06q.18 0 .36-.06l2.58-.54q.06-2.04-.54-3.36-1.98.6-2.46.78-.6.3-1.08.66-.12 1.2.12 2.94zm-16.5-.24zm5.4 10.2v-.18q0-.36-.3-.6t-.72-.24q-.48 0-.96.27t-.99.63q-.51.36-.69.48-.06.3-.06 1.02 0 1.44.48 3.06 1.62-.3 2.34-.78.3-.12.36-.3t.09-.51q.03-.33.03-.51.06-.84.42-2.34zm70.38-13.56l-.36.06q-.48 0-.48-.3 0-.36.42-.84 4.98-5.82 10.32-14.52.42-1.2 1.38-.96.48.12 1.5.99t1.44 1.59q.18.24.18.54 0 .42-.42.48-.72.06-1.17.66-.45.6-1.83 2.88-.3.54-.78 1.02l1.98-.6q1.32-.36 3.96-1.2.72-.18.9-.18 1.38 0 2.52 1.8.78 1.32.78 1.98 0 .6-.45.81-.45.21-1.29.21-3.18 0-9.18 1.2.54.36.66.48.54.54 1.62.96 1.08.42 1.62.6l1.5.6q1.38.6 1.14 1.5-.24.72-.57 1.08-.33.36-1.05.54-2.16.54-3.54.54-3.06 0-3.06-2.82 0-.66.18-1.44.18-1.2.48-1.8-.6.06-1.08.24-.6 1.56-2.79 2.49-2.19.93-4.53 1.41zm-10.98.12q-.72 1.38-3.42 2.52-2.7 1.14-4.62 1.14-.9 0-.9-.36 0-.18.54-.72 4.08-3.96 6.57-7.41t4.89-7.53l1.02-1.68q.42-1.02 1.14-.72.42.18 1.41 1.26t1.47 1.86q.12.36.12.48 0 .42-.48.48-.84 0-1.59.66-.75.66-2.07 2.94-.36.6-.96 1.32 1.5-.3 3.42-1.32.66-.3 1.74-.72l1.68-.72q.36-.12.54-.12.9 0 1.5.96.84 1.44.84 2.16 0 .78-1.32 1.14-1.14.3-3.18 1.38l-1.86.84q.3.42 1.02 1.05.72.63 1.08.99l1.2 1.14q.72.72.72 1.32 0 .42-.24.66-.42.54-.9.69-.48.15-1.38.03-5.16-.66-5.16-3.6 0-.72.24-1.38-1.14.06-2.4-.24-.36.96-.66 1.5zm29.4 3.24q.78.3 1.26.84t.48 1.2q0 .66-.42 1.26-.54.84-.69 1.44-.15.6-.15 1.32 0-.24.03 1.59t.03 5.07q.06 4.74.15 10.65t.15 9.33q.12 2.22.78 4.5.3 1.08-1.44 1.08-.54 0-1.62-.12-4.44-1.5-6.42-2.64-1.98-1.14-3.72-2.7l-.96-.84q-.66-.54-.66-1.02 0-.24.3-.24.36 0 .6.12 1.62.6 3.24.93 1.62.33 3.96.51 1.02.06 1.29-.24t.39-1.56q.06-.78-.24-7.11t-.66-11.97l-.24-4.86q-.12-1.86-.78-2.7-.66-.84-2.4-.84-.84 0-2.46.3-1.98.36-3.03.87-1.05.51-1.29.63l-1.44.54q-1.44.48-1.98.78-.36.12-.48.12-.72 0-1.29-.99-.57-.99-.87-2.37l-.06-.36q0-.42.36-.48l1.74-.24q.66-.12 1.38-.3.72-.18 1.38-.3 4.44-1.08 8.94-1.86 1.92-.3 2.7-.3.96 0 1.77.21t2.37.75zm-24.84 1.02q.12.48.39.93.27.45.45.63 1.14 1.56 2.01 3.09.87 1.53.93 2.07.12.6-.36.9-.48.3-1.32.3-1.2 0-2.61-.51t-2.19-1.23q-1.02-.66-1.02-1.98 0-1.32.96-2.82.96-1.5 1.8-2.04.48-.3.66-.3.18 0 .21.36t.09.6zm12.6 28.14q-.42-.36-3-2.76-.12 0-.36-.12-.18-.06-1.26.09t-2.34.39l-.96.66q-1.2.9-1.8.9-.36 0-.54-.3-.18-.3-.36-.9-.6-2.4-.78-4.32-.12-3.36-.12-6 0-3.84-.12-4.02-.3-.48-.3-.9 0-.36.21-.54.21-.18.51-.18.84 0 1.2.06 4.2-1.74 8.58-2.34.48-.06 1.32-.06.96 0 1.68.3t1.74 1.14q.36.36.39.63.03.27-.09.57-.48.66-.63 1.77-.15 1.11-.15 2.85v2.04q0 1.08-.12 3.84-.18 3.12-.12 4.56.06.78.06 1.98 0 1.74-.66 1.74-.3 0-.81-.3t-1.17-.78zm-19.02-19.74q.48-.24 1.71.27t2.34 1.23q1.11.72 1.17 1.08v.18q0 .3-.3.48t-.42.24q-.18.12-.33.66-.15.54-.15.84-.12.54-.72 2.97t-.87 5.91q-.27 3.48-.27 8.28 0 .9-1.02.9-.24 0-.84-.12-.96-.24-1.56-.72-.6-.48-.54-1.14.06-.48.06-1.5 0-1.08-.06-1.62 0-.42-.03-1.02-.03-.6.03-1.26.12-3.3.45-6.48.33-3.18.39-4.08l.36-3.54q.12-.9.18-1.17.06-.27.42-.39zm16.98 6.06q-.06-1.68-.15-2.28-.09-.6-.48-.87t-1.35-.15l-2.22.72q-.18.18-.78.54-.18.12-.33.78-.15.66-.15 1.08l-.06.72q2.04-.54 2.7-.9.24-.12.42-.12.66 0 .96 1.14.36 1.32.36 2.16 0 1.38-1.26 1.14-.6-.12-3.36.6l.18 2.58 3.9-.9.24-.06q.6 0 1.02 1.38l.06.18q.48-.12.54-1.08.06-.54.06-1.5 0-1.02-.18-3.06 0-.42-.12-2.1zm85.14 4.02q.18.12.36.54.18.42.18.84 0 .72-.72.9-2.16.36-3.9.36-3.78 0-6.78-1.14-1.32-.54-1.83-1.44-.51-.9-.99-2.64-.84-3.06-1.86-4.38-.6-.72-2.34-1.86-1.74-1.14-2.04-1.32l-1.68-1.08v8.94q3.24-.66 4.68-1.32.12-.06.36-.06.66 0 1.02 1.02.48 1.2.48 2.46 0 .9-.3 1.44-.3.54-.78.6-1.74.12-5.46.84 0 9.48.18 11.1.06 1.14-1.02 1.14-.18 0-.78-.12-1.74-.54-2.82-.96-1.08-.42-1.02-1.14.12-2.04.36-4.86.24-2.82.24-1.62l.06-2.64q-3.66.72-5.46 1.44-.42.24-1.08-.87-.66-1.11-.78-2.61-.06.12-.3.24-2.16 1.38-3.39 1.92t-3.27.72h-.24q-1.08 0-1.2-.54-.12 6.6.54 8.46.18.78-.09.9t-1.47.12q-1.5 0-2.31-.24t-.69-1.02q.18-1.14.24-2.7.06-1.56.06-2.04v-1.56q.06-.9-.09-6.54t-.33-9.84q-.96 1.14-2.76 2.4-1.86.96-3.84 1.74-1.98.78-2.7.78-.48 0-.18-.48 4.2-5.1 7.26-10.38 3.06-5.28 6.12-12.42l.48-1.2q.66-1.86 1.02-2.52.12-.24.24-.54.12-.3.24-.45.12-.15.3-.21.42-.12 1.41.42t1.89 1.41q.9.87 1.14 1.71l.06.24q0 .36-.48.24-.42-.06-1.14 1.11-.72 1.17-1.68 2.97-.48 1.02-.6 1.14-.72 1.44-2.34 4.08l-1.8 3.18q-.72 1.14-.9 1.68-.18.54-.24.99-.06.45-.06.69v.18q1.56.3 2.94.84t1.5.9q.06.06.06.24 0 .42-.72.78-.24.12-.3.72t0 .9q-.18 1.86-.45 5.73t-.33 7.41q0-.18.12-.3.54-.72 1.62-1.8.42-.48 1.05-1.17.63-.69 1.35-1.59 3.24-4.08 4.89-7.68 1.65-3.6 1.65-6.36 0-.84-.06-1.2-2.46.84-4.14 1.62-.96.24-1.74-1.56t-.78-3.54q0-.54.06-.78.18-.6.36-.72t.45-.12h.51q5.82-.6 10.62-1.74 0-11.94-.48-12.9-.18-.48-.18-.66 0-.42.27-.6t.57-.18q1.62 0 3.63.78t2.19 1.32q.06.06.06.24 0 .42-.6.78-.24.18-.33.78-.09.6-.09.96-.18 1.62-.3 8.16 3.3-1.02 6.36-2.34.36-.18.6-.18.3 0 .75.54t1.35 2.04q.42.66.78 1.74.36 1.08.36 1.92 0 1.44-1.2 1.44-.66-.06-2.04-.06-2.4 0-6.06.42 1.62 3.18 4.26 6.72 2.64 3.54 4.74 5.52.6.48 2.55 1.59 1.95 1.11 2.97 1.71 4.26 2.28 6 3.48zm-22.2-24.48l-.06.18.06-.18zm-10.44 24.06q2.16-.24 6.3-.96l.18-12.42-2.04 3.54q-.48.66-1.32 2.1-1.68 2.58-2.43 3.93-.75 1.35-.75 2.07 0 .36.06.9t0 .84z"/></svg>