<svg viewBox="0 0 389 80" xmlns="http://www.w3.org/2000/svg"><path d="M51.22 24l-32.1.3q-1.14 0-1.26-1.2v-.12q0-.48.33-.78.33-.3.87-.3l32.1-.3q.54 0 .87.3.33.3.33.9 0 1.2-1.14 1.2zm-5.4 15.9l-23.7-.54q-.54 0-.87-.33-.33-.33-.33-.93 0-.54.33-.84.33-.3.93-.3l23.7.54q.54 0 .84.33.3.33.3.93 0 1.14-1.2 1.14zM15.28 56.1q0-1.44.9-2.31.9-.87 2.58-.93l32.34-1.5q1.8-.06 2.76.81.96.87.96 2.55 0 1.44-.9 2.31-.9.87-2.58.93L19 59.46q-1.8.06-2.76-.81-.96-.87-.96-2.55zm75.42-6.84q.3.6.3.96 0 .42-.6.78-.36.18-.66.18-.72 0-1.08-.72L84.4 42l.6 19.32q0 1.26-1.14 1.26-.6 0-.93-.3-.33-.3-.33-.84l-.78-26.28-6.18.36q-1.86.06-2.85-.84-.99-.9-.99-2.64 0-1.38.87-2.22.87-.84 2.49-.9l6.42-.42-.3-10.2q0-1.26 1.14-1.26.6 0 .93.3.33.3.33.84l.3 10.2 3.54-.24q1.68-.12 2.67.51t1.17 2.55q.12 1.56-.75 2.52T88 34.74l-3.78.24.12 5.16.3-.18q.36-.18.66-.18.6 0 1.08.84l4.32 8.64zm30 9.72q.6.48.6 1.08 0 .24-.3.66-.36.42-.84.42-.54 0-.9-.36l-6.12-5.76q-2.16 2.28-4.74 4.11-2.58 1.83-5.22 2.91-.36.12-.6.12-.84 0-1.08-.78-.06-.18-.06-.48 0-.72.72-1.02 4.92-1.92 9.3-6.42l-9.12-8.52q-.6-.48-.6-.9 0-.24.3-.66.48-.54 1.02-.54.36 0 .78.3l9.18 8.64q1.74-2.16 2.76-4.2 1.02-2.04 1.02-3.72 0-1.92-1.5-3.03-1.5-1.11-4.62-1.11-1.56 0-3.18.24h-.18q-.48 0-.78-.33-.3-.33-.3-.81 0-.78.39-1.02t1.23-.3l.78-.06q6.36-7.2 6.36-11.58 0-2.4-2.04-3.69t-6.12-1.29q-2.58 0-6.12.54.24 0 .84.12 2.58.66 2.58 3.24 0 .36-.12 1.08l-6.78 35.22q-.24 1.38-1.08 2.13-.84.75-1.98.75-.24 0-.96-.12-2.58-.66-2.58-3.24 0-.36.12-1.08l6.78-35.22q.36-2.04 1.86-2.64-2.4.42-4.5.96-.18.06-.42.06-.96 0-1.14-1.08v-.3q0-.54.33-.78t.99-.42q6.96-1.44 11.64-1.44 5.46 0 8.22 1.77 2.76 1.77 2.76 5.07 0 4.74-5.7 12 3.9.24 5.76 1.86 1.86 1.62 1.86 4.2 0 2.1-1.2 4.65-1.2 2.55-3.3 5.13l6 5.64zM79.18 37.74q.66 0 1.05.42t.15 1.08l-3.54 13.32q-.36 1.38-1.5 1.08-.9-.18-.9-.96 0-.36.06-.6l3.54-13.14q.18-.66.45-.93t.69-.27zm94.62 23.88q.6.36.6.9 0 .42-.3.84-.36.42-.84.42t-.96-.3l-9.24-5.28q.72 2.64.72 4.86 0 3-1.29 4.77-1.29 1.77-3.57 1.77-2.16 0-4.62-1.44-1.02-.54-1.02-1.2 0-.3.36-.78.24-.3.66-.3.3 0 1.38.48 1.56.78 2.76.78 1.44 0 2.16-1.17.72-1.17.72-3.15 0-2.34-.99-5.49-.99-3.15-2.79-6.15-.24.42-.6.66l-12.84 7.92q-.48.3-.9.3-.54 0-.9-.54-.24-.48-.24-.72 0-.6.66-1.02l12.9-8.04q.42-.24.9-.18-1.38-1.98-2.52-3.3-.78-.84-.3-1.32-1.08-.06-2.88-.42-3.6 5.04-8.16 9.24-.54.54-1.02.54-.3 0-.72-.3-.54-.42-.54-.96 0-.42.36-.78 4.44-4.14 7.56-8.46-2.88-1.08-4.41-3.06-1.53-1.98-1.53-4.5 0-2.28 1.59-4.35t4.59-3.33q3-1.26 7.02-1.26 2.94 0 5.58.78v-.06q1.74-2.94 1.74-5.28 0-3.6-4.2-3.6-2.58 0-6.3 1.32l-1.98 4.56q-1.14 2.58-3.12 2.58-.54 0-1.08-.18-1.14-.3-1.8-1.05-.66-.75-.66-1.83 0-.72.36-1.62l4.38-10.44q1.08-2.52 3.12-2.52 1.56 0 2.61.9 1.05.9 1.05 2.28 0 .78-.3 1.38l-1.32 3.06q2.46-.66 4.68-.66 3.36 0 5.01 1.68t1.65 4.32q0 2.94-1.68 5.94 2.64 1.26 4.11 3.21 1.47 1.95 1.47 4.17 0 3.84-3.54 6.27-3.54 2.43-9.66 2.49l.66.78q2.58 3.18 4.14 6.18l7.68-6.6q.54-.42.96-.42.42 0 .84.36.48.36.48.84t-.48.84l-7.62 6.48q-.54.42-.84.48l.42 1.02q.42 0 .9.3l10.98 6.36zm-29.04-25.44q0 1.86 1.29 3.33t3.75 2.25q3.78-5.64 6.3-12.06h-.48q-3.3 0-5.76.96t-3.78 2.46q-1.32 1.5-1.32 3.06zm13.44-5.34q-2.28 5.94-5.88 11.52 1.38.24 3.3.24 5.1 0 7.98-1.8 2.88-1.8 2.88-4.62 0-2.04-2.13-3.87t-5.85-2.43q0 .12-.3.96zm1.86 26.4q.24.48.24.66 0 .6-.72.96l-14.4 7.26q-.48.24-.84.24-.6 0-.96-.6-.18-.36-.18-.66 0-.66.66-1.02l14.52-7.38q.3-.18.54-.18.72 0 1.14.72zm57.84-20.52h.12q.48 0 .81.3.33.3.33.84 0 1.08-1.14 1.14l-4.5.3.6 18.96q0 .6-.21.87t-.81.33h-.12q-.54 0-.9-.36t-.36-.84l-.6-18.84-9.6.6-.84 18.36q-.06.6-.3.9-.24.3-.78.36h-.12q-.6 0-.9-.39-.3-.39-.24-.99l.84-18.06-6.84.42h-.12q-.48 0-.78-.33-.3-.33-.36-.81v-.12q0-.42.3-.69.3-.27.84-.33l7.08-.42.66-14.46-2.64.24q-1.92.18-2.94-.72-1.02-.9-1.02-2.64 0-1.44.93-2.19t2.79-.93l17.28-1.62q1.92-.18 2.94.75 1.02.93 1.02 2.67 0 1.44-.93 2.19t-2.79.93l-1.62.12.48 14.76 4.44-.3zm15.54-16.32q.3.3.3.78 0 .48-.42.84l-10.08 9.72q-.36.36-.78.36-.48 0-.96-.42-.42-.42-.42-.78 0-.54.54-.96l10.08-9.6q.42-.42.9-.42.48 0 .84.48zm-31.8 17.34l9.42-.6-.48-14.64-8.28.78v.3l-.66 14.16zm22.02 6.48q-.36-.36-.36-.72 0-.48.66-1.02l10.98-8.46q.42-.3.84-.3.54 0 .9.54.24.3.24.72 0 .54-.48.9l-11.04 8.58q-.48.3-.78.3-.42 0-.96-.54zm16.68 4.2q.3.6.3 1.14 0 .9-.66 1.77t-1.86 1.47l-9.96 5.46q-.96.54-1.86.54-.9 0-1.59-.48-.69-.48-1.11-1.38-.3-.48-.3-1.2 0-.84.6-1.68t1.74-1.44l9.9-5.46q1.02-.6 2.04-.6 1.8 0 2.76 1.86zm26.64-27.78l-3 .24-1.68 5.52q-.42 1.44-1.11 2.1-.69.66-1.83.66-1.56 0-2.43-.78-.87-.78-.87-2.16 0-.42.24-1.38l3.42-11.46q.42-1.44 1.14-2.1.72-.66 1.92-.66 1.5 0 2.37.78.87.78.87 2.16 0 .42-.24 1.38l-1.08 3.54 10.5-.96h.18q.54 0 .87.27.33.27.33.81 0 1.14-1.2 1.26l-6.18.54.18.48 1.62 5.4q.12.48.12.66 0 .66-.84.9-.12.06-.42.06-.84 0-1.14-1.02l-1.68-5.58q-.06-.24-.06-.66zm12.24 8.28q-1.62 0-2.52-.81-.9-.81-.9-2.07 0-.9.42-1.8l4.8-10.92q.54-1.32 1.23-1.89.69-.57 1.71-.57 1.62 0 2.52.81.9.81.9 2.07 0 .96-.42 1.8l-1.2 2.64 10.2-.48h.12q.54 0 .87.3.33.3.33.84 0 1.2-1.14 1.26l-6 .3.24.48 1.98 5.28q.18.42.18.72 0 .6-.78.84-.36.12-.54.12-.72 0-1.08-.96l-2.1-5.46q-.18-.6 0-.96l-3.36.18-2.58 5.82q-1.08 2.46-2.88 2.46zm-14.04 1.32l2.04 4.62q.18.36.18.6 0 .72-.84 1.02-.18.06-.48.06-.78 0-1.08-.78l-2.04-4.68q-.12-.36-.12-.54 0-.72.78-.96.36-.12.54-.12.66 0 1.02.78zm7.02 2.88q6.6-1.44 11.7-1.44 7.38 0 10.47 3.18 3.09 3.18 3.09 9.12 0 3.42-.81 7.53t-2.37 10.23q-.6 2.16-1.77 3.27-1.17 1.11-2.79 1.11-2.22 0-4.98-2.04-.72-.54-.72-1.08 0-.42.48-.9.24-.24.6-.24.42 0 1.38.66 1.92 1.26 3.06 1.26 1.92 0 2.7-3 1.68-6.48 2.43-10.02.75-3.54.75-6.54 0-4.8-2.64-7.35t-8.94-2.55q-4.92 0-11.52 1.44l-.3.06q-.84 0-.96-1.2v-.18q0-.66.27-.93t.87-.39zm-11.04 4.86l1.02 23.82v.18q0 1.08-1.08 1.14h-.12q-.54 0-.84-.3-.3-.3-.36-.84l-1.02-23.82v-.12q0-.48.3-.81.3-.33.84-.33.6 0 .93.3.33.3.33.78zm25.68 11.34q0 4.38-2.37 6.69-2.37 2.31-6.99 2.31-4.74 0-7.32-2.34t-2.58-6.66q0-4.2 2.58-6.51 2.58-2.31 7.32-2.31 4.56 0 6.96 2.28 2.4 2.28 2.4 6.54zm-9.3 6.6q3.42 0 5.16-1.47 1.74-1.47 1.74-5.13 0-3.48-1.77-4.95-1.77-1.47-5.13-1.47-3.18 0-5.37 1.53t-2.19 4.89q0 3.54 2.19 5.07 2.19 1.53 5.37 1.53zm4.44-7.86h.12q.48 0 .81.33.33.33.33.87 0 1.14-1.14 1.2l-9.78.42h-.12q-.48 0-.81-.33-.33-.33-.39-.87v-.12q0-.96 1.2-1.08l9.78-.42zm73.38 3.9h.12q.48 0 .81.33.33.33.33.87 0 1.14-1.14 1.2l-9.18.36.3 10.74q0 1.26-1.14 1.26-.6 0-.93-.3-.33-.3-.33-.84l-.3-10.74-6.78.3H337q-.48 0-.81-.33-.33-.33-.39-.87v-.12q0-.96 1.2-1.08l6.84-.3-.42-15.96-8.88-.36q-1.74-.06-2.61-.93-.87-.87-.87-2.43t.99-2.43q.99-.87 2.73-.81l8.46.3-.36-13.32q0-1.26 1.14-1.26.6 0 .93.3.33.3.33.84l.36 13.56 9.96.36q1.74.06 2.61.93.87.87.87 2.43t-.99 2.43q-.99.87-2.73.81l-9.54-.36.42 15.78 9.12-.36zm-28.02-24.9q1.62.9 1.62 2.52 0 1.02-.72 2.22l-5.1 8.46q.36.24.36.72l2.88 23.7v.3q0 .48-.27.78-.27.3-.75.3-1.26 0-1.38-1.08l-2.64-21.72-1.86 3.06q-1.02 1.74-2.82 1.74-1.02 0-1.8-.48-1.68-.9-1.68-2.52 0-1.14.72-2.28l8.7-14.46q1.08-1.8 2.82-1.8.9 0 1.92.54zm13.08 10.56q.84.36.84 1.02 0 .24-.18.54L331.6 57.6q-.36.84-1.02.84-.36 0-.6-.18-.78-.42-.78-1.02 0-.3.18-.54l9.48-18.42q.42-.78 1.08-.78.3 0 .48.12zM362.68 57q.18.24.18.6 0 .54-.72 1.02-.24.18-.54.18-.6 0-1.08-.78L348.7 40.08q-.18-.3-.18-.6 0-.6.72-1.02.18-.12.54-.12.54 0 1.08.72L362.68 57z"/></svg>