<svg viewBox="0 0 389 80" xmlns="http://www.w3.org/2000/svg"><path d="M65.98 20.86q0 1.2-1.2 1.2h-44.1q-1.2 0-1.2-1.2v-.6q0-1.2 1.2-1.2h44.1q1.2 0 1.2 1.2v.6zm-2.7 18.84q0 1.2-1.2 1.2h-38.7q-1.2 0-1.2-1.2v-.6q0-1.2 1.2-1.2h38.7q1.2 0 1.2 1.2v.6zm6.3 21.06q0 1.2-1.2 1.2h-51.3q-1.2 0-1.2-1.2v-.6q0-1.2 1.2-1.2h51.3q1.2 0 1.2 1.2v.6zm25.32-33h-7.56V65.5q0 1.2-1.2 1.2h-.6q-1.2 0-1.2-1.2V27.76H77.5q-1.2 0-1.2-1.2v-.6q0-1.2 1.2-1.2h6.84V14.38q0-1.2 1.2-1.2h.6q1.2 0 1.2 1.2v10.38h7.56q1.2 0 1.2 1.2v.6q0 1.2-1.2 1.2zm27.12 31.38q1.14 1.62 3.03 2.55 1.89.93 3.87.93.72 0 1.08-.06l-1.2 2.88-.96.06q-5.22 0-8.34-4.56l-4.2-6.18-3.48 6q-1.38 2.4-3.81 3.54-2.43 1.14-4.83.96l-1.2-2.88q.36.06 1.08.06 1.98 0 3.66-.93 1.68-.93 2.64-2.55l4.02-6.96-10.62-15.54-.96 20.28q-.12 2.7-1.68 4.89-1.56 2.19-3.72 3.45l-1.08-.72-.96.6q-3.42-2.04-3.42-8.58V32.74q0-1.2 1.2-1.2h.6q1.2 0 1.2 1.2v23.64q0 2.1.36 3.51.36 1.41 1.26 2.43 3.06-2.28 3.24-5.58l1.68-36.48H94.3q-1.2 0-1.2-1.2v-.6q0-1.2 1.2-1.2h26.34q1.2 0 1.2 1.2v.24l.06.3q0 .18-.12.54l-4.74 12.54h7.86l.3-.48q.3-.54.9-.54.36 0 .78.3l.48.36q.48.42.48.9 0 .36-.24.78l-10.62 18.42 5.04 7.32zm-18.96-27.66l12.06 17.58 8.04-13.98h-9.78q-1.2 0-1.2-1.2v-.6q0-1.2 1.2-1.2h.42l4.5-11.82h-14.76L103 31.42l.03.03.03.03zm-23.52.06q1.2 0 1.2 1.2v23.64q0 6.54-3.42 8.58l-2.64-1.62q1.8-.96 2.43-2.61.63-1.65.63-4.35V32.74q0-1.2 1.2-1.2h.6zm83.22-12.96q-1.2 0-1.2-1.2v-4.56q0-1.2 1.2-1.2h.6q1.2 0 1.2 1.2v4.56q0 1.2-1.2 1.2h-.6zm-23.4 3.18q0-1.56-.42-2.25t-2.04-1.53l2.52-1.38q1.2.72 1.83 1.41.63.69.87 1.65h41.94q.48-1.62 2.64-2.88l2.52 1.38q-1.62.84-2.04 1.53-.42.69-.42 2.25v7.98q0 1.2-1.2 1.2h-.6q-1.2 0-1.2-1.2v-7.26h-41.4v7.32q0 1.2-1.2 1.2h-.6q-1.2 0-1.2-1.2v-8.22zM188.86 61q1.2 0 1.2 1.2v.6q0 1.2-1.2 1.2H137.5q-1.2 0-1.2-1.2v-.6q0-1.2 1.2-1.2h8.88V31.54q0-1.56-.42-2.25t-2.04-1.53l2.52-1.38q1.2.72 1.83 1.41.63.69.87 1.65h27.78q.48-1.62 2.64-2.88l2.52 1.38q-1.62.84-2.04 1.53-.42.69-.42 2.25V61h9.24zm-12.24-21.6v-6.96h-27.24v6.96h27.24zm-27.24 3v7.92h27.24V42.4h-27.24zm0 10.92V61h27.24v-7.68h-27.24zM244 35.2q1.8 1.08 2.79 1.53.99.45 2.01.45 1.02 0 2.28-.54l-.36 3.12q-1.08.36-2.1.36-1.38 0-2.94-.63t-3.54-1.89l-9.84-6.3-7.5 5.7q-4.32 3.3-7.62 3.3-.72 0-1.44-.18l-.72-3.06q.84.3 1.86.3 1.38 0 2.76-.66t3.06-1.92l6.9-5.22-6.78-4.32-.42.66q-1.5 2.34-2.94 3.36t-3.54 1.08l-1.44-2.64v28.14q0 1.2-1.2 1.2h-.6q-1.2 0-1.2-1.2V22.6q0-1.2 1.2-1.2h.6q1.2 0 1.2 1.2v4.98q2.04.06 3-.54.96-.6 2.28-2.64l7.32-11.16q.48-.72 1.02-.72.18 0 .66.24l.48.3q.72.42.72.96 0 .42-.24.72l-2.34 3.6h17.46q1.2 0 1.2 1.2v.6q0 .36-.18.66-.06.18-.3.42l-10.74 8.16L244 35.2zm-34.38-21.78q.78.24.78.96l-.12.54-5.22 13.92V66.1q0 1.2-1.2 1.2h-.6q-1.2 0-1.2-1.2V36.58q-1.2 2.28-3 3.93-1.8 1.65-3.54 2.01l-1.98-2.4q2.46-.36 3.99-1.98 1.53-1.62 2.49-4.2l7.44-20.04q.18-.48.6-.69.42-.21.9-.03l.66.24zm14.82 9.36l7.68 4.86 8.4-6.3h-14.7q-.3 0-.42-.06l-.96 1.5zm3.96 23.46q-4.08 2.28-7.08 2.28-1.32 0-2.34-.42l-.3-3.18q1.26.66 2.64.66 2.1 0 5.28-1.8l10.5-5.7q.6-.24.78-.24.6 0 .9.54l.3.42q.3.48.3.9 0 .54-.54.84l-10.44 5.7zm-10.38 10.44l-.3-3.18q1.26.6 2.52.6 1.2 0 2.46-.45t2.94-1.29l16.14-8.1q.6-.24.78-.24.6 0 .9.54l.3.42q.3.48.3.9 0 .54-.54.84l-16.08 8.1q-2.16 1.08-3.9 1.68-1.74.6-3.3.6-1.2 0-2.22-.42zm30.36-5.7l.3.42q.3.48.3.9 0 .54-.54.84l-24.3 11.22q-2.4 1.08-4.11 1.68-1.71.6-3.21.6-1.2 0-2.1-.42l-.3-3.18q1.2.6 2.46.6 1.14 0 2.28-.42t3.18-1.32l24.36-11.22q.6-.24.78-.24.6 0 .9.54zm60.66-32.76q1.2 0 1.2 1.2v.6q0 1.2-1.2 1.2H289.6l-.06.12q-.66 2.64-1.83 4.68-1.17 2.04-3.03 2.76l-2.34-1.98q2.94-.84 4.26-5.94l1.92-7.56q.3-1.26 1.44-1.02l.6.12q1.2.18.9 1.38l-1.14 4.44h18.72zm-45 4.62q-.54 2.52-1.77 4.62t-3.09 2.82l-2.34-1.98q1.68-.48 2.73-2.13t1.53-3.81l1.92-8.76q.3-1.26 1.44-1.02l.6.12q1.2.18.9 1.38l-.9 4.14h17.16q1.2 0 1.2 1.2v.6q0 1.2-1.2 1.2H264.4l-.36 1.62zm3.06 1.74h8.58q1.2 0 1.2 1.2v.6q0 1.2-1.2 1.2h-8.58q-1.2 0-1.2-1.2v-.6q0-1.2 1.2-1.2zm36 3h-8.58q-1.2 0-1.2-1.2v-.6q0-1.2 1.2-1.2h8.58q1.2 0 1.2 1.2v.6q0 1.2-1.2 1.2zm-32.4 7.32q-.36.36-.84.36-.42 0-.84-.42l-5.4-5.16q-.48-.42-.48-.84 0-.48.48-.84l.48-.42q.48-.42.84-.42.42 0 .84.42l5.4 5.16q.42.42.42.84 0 .48-.48.84l-.42.48zm33.24-4.98q1.2 0 1.2 1.2v27.96q0 3-2.01 5.58t-5.37 3.12l-2.34-1.74q2.7-.48 4.71-2.28 2.01-1.8 2.01-4.68V32.92h-27q-1.2 0-1.2-1.2v-.6q0-1.2 1.2-1.2h28.8zm-41.34 5.64q1.2 0 1.2 1.2v27.78q0 1.2-1.2 1.2h-.6q-1.2 0-1.2-1.2V36.76q0-1.2 1.2-1.2h.6zm30.84 22.92v1.14q0 .9.36 1.35.36.45 1.26.93l-2.52 1.38q-.96-.54-1.44-1.41-.48-.87-.6-2.25h-15.42q-.12 1.38-.6 2.25-.48.87-1.44 1.41l-2.52-1.38q.9-.48 1.23-.87.33-.39.36-1.02.03-.63.03-1.53v-16.8q0-1.56-.42-2.25t-2.04-1.53l2.52-1.38q1.86 1.08 2.52 2.46h16.44q.66-1.02 2.22-1.92l2.52 1.38q-1.62.84-2.04 1.53-.42.69-.42 2.25v16.26zm-3-16.26v-.24h-15.3v5.88h15.3v-5.64zm-15.3 8.64v5.76h15.3v-5.76h-15.3zm85.92 2.52q1.2 0 1.2 1.2v.6q0 1.2-1.2 1.2h-9.48v9.6q0 1.2-1.2 1.2h-.6q-1.2 0-1.2-1.2v-9.6h-10.26q-1.2 0-1.2-1.2v-.6q0-1.2 1.2-1.2h10.26V27.16h-16.62q-1.2 0-1.2-1.2v-.6q0-1.2 1.2-1.2h16.62V14.5q0-1.2 1.2-1.2h.6q1.2 0 1.2 1.2v9.66h16.62q1.2 0 1.2 1.2v.6q0 1.2-1.2 1.2h-16.62v26.22h9.48zm-29.7-38.04l-4.92 11.34q.06.12.06.42v39q0 1.2-1.2 1.2h-.6q-1.2 0-1.2-1.2V33.46l-.66 1.5q-1.14 2.64-3.36 4.77-2.22 2.13-4.32 2.37l-1.86-2.52q2.52-.24 4.11-1.77 1.59-1.53 2.73-4.05l8.46-19.62q.42-.78 1.08-.78l.48.12.6.3q.72.24.72.96 0 .36-.12.6zM367.18 58q0 2.28 1.35 4.05t3.45 2.91l-2.64 1.62q-2.1-1.26-3.63-3.6-1.53-2.34-1.53-4.98V31.18q0-1.2 1.2-1.2h.6q1.2 0 1.2 1.2V58zm-32.4-27.3q1.2 0 1.2 1.2v26.82q0 2.64-1.53 4.98-1.53 2.34-3.63 3.6l-2.64-1.62q2.1-1.14 3.45-2.91 1.35-1.77 1.35-4.05V31.9q0-1.2 1.2-1.2h.6z"/></svg>