<svg viewBox="0 0 388 80" xmlns="http://www.w3.org/2000/svg"><path d="M17.02 16.78v4.2h47.04v-4.2H17.02zm2.4 20.52v4.2h42.24v-4.2H19.42zm-4.2 22.92v4.2h51.84v-4.2H15.22zM96.4 23.86h-7.98v38.7l-2.7 2.7h-3.9v-41.4h-9v-4.2h9v-4.5l2.7-2.7h3.9v7.2h7.98v4.2zm31.62 41.22h-7.26l-4.38-7.02-3.36 7.02h-7.26l6.6-13.62-7.38-11.88-1.8 25.44h-6.6l3.3-46.8h-3.3v-4.2h28.32v4.2l-4.74 13.08h7.14v4.2h-.06l-7.68 15.96 8.46 13.62zm-18.9-30.42l6.36 10.26 4.56-9.42h-6.54v-4.2l4.8-13.08h-11.88l-1.14 16.44h3.84zM71.86 56.98l2.52-29.28h6.6l-2.52 29.28h-6.6zM95.92 27.7l.72 22.86h-6.6l-.72-22.86h6.6zm86.22-15.06h3.9v49.68l-2.7 2.7h-13.86v-4.2h9.96V15.34l2.7-2.7zm-40.5 35.88l-2.7 2.7h-3.9V16.54l2.7-2.7h18.78v4.2h-14.88v30.48zm15.9 2.7V13.84h6.6v34.68l-2.7 2.7h-3.9zm17.46.24l-2.7 2.7h-3.9V20.62l2.7-2.7h3.9v33.54zm-22.56-27.42v23.58l11.52 10.02v7.8l-14.52-12.6-15.24 13.14v-7.8l11.64-10.02V26.74l2.7-2.7h3.9zm71.4-2.88h22.14v4.2h-22.14V62.5l-2.7 2.7h-3.9V25.36h-22.2v-4.2h22.2v-6l2.7-2.7h3.9v8.7zm-28.32 41.46l6.18-33.42h6.6l-6.18 33.42h-6.6zm37.26-33.42h6.6l6.42 33.42h-6.6l-6.42-33.42zm22.38-4.8v-9.42l2.7-2.7h20.94v4.2h-17.04v3.72h17.04v4.2h-23.64zm51.48-7.92h-19.2v3.72h19.2v4.2h-25.8v-9.42l2.7-2.7h23.1v4.2zm-52.5 10.74h6.6l1.32 6.12h-6.6l-1.32-6.12zm10.62.66h41.52V62.5l-2.7 2.7h-9.6V61h5.7V32.08h-34.92v-4.2zm-9.84 10.02l2.7-2.7h3.9v27.06l-2.7 2.7h-3.9V37.9zm29.58 13.62h-9.66v8.58l-3.3 2.7h-3.3V38.56l2.7-2.7h13.56v4.2h-9.66v7.26h9.66v4.2zm1.5 7.32V35.86h6.6v24.48l-2.7 2.7h-12.54v-4.2H286zm64.74-35.82v26.94h6.66v4.2h-6.66v8.34l-2.7 2.7h-3.9V54.16h-6.66v-4.2h6.66V23.02h-16.26v-4.2h16.26v-3.66l2.7-2.7h3.9v6.36H367v4.2h-16.26zM320.98 12.7h6.6l-6.06 20.52h2.82v29.34l-2.7 2.7h-3.9V36.28h-3.72l6.96-23.58zm6.72 49.92l2.82-34.86h6.6l-2.82 34.86h-6.6zm36.66-34.86l2.82 34.86h-6.6l-2.82-34.86h6.6z"/></svg>