<svg viewBox="0 0 390 80" xmlns="http://www.w3.org/2000/svg"><path d="M28.48 29.22q-1.5.24-2.7-1.59-1.2-1.83-1.56-3.09 4.02 0 8.67-.81t11.49-2.37q5.16-1.2 7.56-1.62 1.5-.18 2.88.57t2.25 1.95q.87 1.2.87 2.16 0 1.2-1.32 1.2-1.92-.3-4.08-.3-5.7 0-13.38 1.32-7.68 1.32-10.68 2.58zm1.8 13.92q-1.5.24-2.7-1.59-1.2-1.83-1.56-3.09 4.68.06 9.45-.6 4.77-.66 10.77-1.86l4.38-.78q1.5-.18 2.88.57t2.25 1.95q.87 1.2.87 2.16 0 1.2-1.32 1.2-2.58-.42-6.48-.42-5.22 0-10.65.72-5.43.72-7.89 1.74zm-10.5 17.58q-1.5.24-2.7-1.59-1.2-1.83-1.56-3.09 7.32-.6 25.32-2.28 10.44-1.02 23.16-2.1 1.5-.18 2.88.66 1.38.84 2.25 2.16.87 1.32.87 2.34 0 1.32-1.32 1.32-3.18-.6-10.32-.6-6.78 0-15.27.51-8.49.51-15.09 1.26t-8.22 1.41zm78.18-21.18q-.36 5.28-1.56 5.28-.42 0-.96-.6l-5.16-5.64v28.38q0 .72-.48.72-.24 0-.72-.24t-.66-.36q-1.56-.84-2.94-2.07t-1.2-2.55q1.2-6.18 1.2-15v-5.94q-1.14 2.34-3.96 6.12-1.2 1.62-2.94 3.12t-3.18 2.4q-1.2.72-1.62.72-.3 0-.09-.42t.87-1.26q2.76-3.36 5.82-9.33 3.06-5.97 5.04-11.43-4.5.9-7.02 1.92-1.08.18-1.98-.51-.9-.69-1.53-1.59-.63-.9-.75-1.38 4.68-.66 11.34-2.34v-11.7q0-1.14-.42-2.52-.42-1.38-.9-1.8.24-.06.72-.06 1.74 0 3.66.93 1.92.93 2.7 2.13-.24 2.7-.42 4.26-.48 5.04-.54 7.5.84-.24 1.68-.42t1.56-.18q1.38 0 2.61.63t1.98 1.53q.75.9.75 1.62 0 .42-.33.69-.33.27-.99.27-.54-.06-1.74-.06-2.64 0-5.52.36v4.62l6.18 2.64q.84.36 1.17.63.33.27.33.93zM130 59.64q1.56.96 2.58 1.65t1.02.99q0 .24-.87.42t-1.74.3q-.87.12-1.35.18l-5.34.66q-1.08.12-2.04-.54t-1.47-1.32q-.51-.66-1.59-2.28l-3.72-5.34q-2.82 2.52-5.82 4.32-2.4 1.44-5.31 2.7-2.91 1.26-4.59 1.26-.36 0-.36-.18 0-.12.33-.42t.39-.42q-.06.12-.33.27-.27.15-.39.21t.18-.12q3.42-2.28 7.14-5.55 3.72-3.27 5.82-6.15-.9-1.26-2.64-3.78-.66-1.02-1.62-2.28-.96-1.26-1.38-1.62l-1.14-.9-.24-.18q-4.68 14.88-12.18 20.46-.9.72-1.44.72-.24 0-.24-.24 0-.42.66-1.32 2.58-3.72 4.95-10.65T103 31.62q.96-3.6 1.5-5.4.24-.78.3-1.5-.42.12-.81.24-.39.12-.75.24-.54.18-1.08.18-1.68 0-2.67-1.68t-.99-3.18q0-.42.06-.54 1.26.3 4.2.3 2.64 0 8.34-1.23 5.7-1.23 7.14-1.77 1.08-.6 1.44-.66l5.52 5.7q-3.9 3.12-9.3 11.34 1.98-.42 2.76-.78.3-.18.57-.33.27-.15.45-.21l5.76 3.42q-.84 1.14-1.2 3.3-1.02 6.3-5.34 11.58 2.34 2.46 4.86 4.59 2.52 2.13 6.24 4.41zm-14.94-13.2q1.5-2.64 2.49-4.89.99-2.25 1.35-4.53v-.06q0-.3-.24-.45-.24-.15-.54-.09-.84.24-1.05.33-.21.09-.33.09-.6.3-2.04.78-.3.12-.78.12-.96 0-1.68-.72t-1.11-1.65q-.39-.93-.27-1.35 1.2.12 1.92.12l5.7-14.04q-4.2 1.68-9.78 3.42l.18.18q.3.6.3 1.44 0 .54-.12 1.14l-.48 2.52q-1.56 7.68-2.7 11.52l.66.06q1.26 0 2.1.45.84.45 1.5 1.02.66.57.9.75 1.62 1.32 4.02 3.84zm-14.94 15.18zm56.04-24.06l-5.88 4.32v17.16q0 3.42-1.08 5.52-1.08 2.1-2.46 2.1-.66 0-1.32-.72-.72-.78-1.44-1.8-1.38-1.8-2.43-2.85-1.05-1.05-2.55-1.65-.78-.24-.78-.48 0-.18 1.32-.12.72.06 1.98.06 1.98 0 2.97-.66.99-.66.99-2.46V45.42q-3.84 2.76-4.92 3.42-.9.54-1.74.54-1.14 0-2.1-.81-.96-.81-1.56-1.83-.6-1.02-.54-1.56-.12-.12.3-.12h.66q1.86 0 3.24-.72 2.64-1.38 6.66-3.24v-9.9q-2.04.84-3.48 1.8-.18.06-.54.06-1.32 0-2.43-1.2t-1.53-2.1q3.3-.48 5.01-.9 1.71-.42 2.97-.96V16.74q0-1.14-.42-2.52-.42-1.38-.9-1.8.24-.06.72-.06 1.74 0 3.66.93 1.92.93 2.7 2.13l-.36 4.2q-.36 3-.54 6.42.72-.18 1.32-.18 1.2 0 2.28.51 1.08.51 1.74 1.23.66.72.66 1.32 0 .9-1.26.96-2.88 0-4.8.24v8.76q4.14-1.92 5.16-2.34.54-.18.9-.18.54 0 .54.3 0 .42-.72.9zm31.92 25.68q0 .9-.54.9-.36 0-.78-.27-.42-.27-.54-.33l-1.44-1.08q-1.2-.9-1.86-1.98-2.94-.72-7.02-.72-3 0-5.82.36l-.6.06q-3.36.48-6.33 1.23t-4.65 1.47q-1.5.24-2.7-1.59-1.2-1.83-1.56-3.09h.66q1.14-.12 1.35-.9.21-.78.21-1.86l.06-6.06q0-1.14-.48-2.46t-1.02-1.8q.6-.12.96-.12 1.68 0 3.57.9t2.61 2.04l-.12 8.52q0 .54.42.93t.96.27q2.58-.6 5.46-1.14.42-1.98.54-3.45.12-1.47.12-4.29v-9.3q-1.98.42-3.63 1.08-1.65.66-3.93 1.74l-1.74.84q-1.5.24-2.7-1.59-1.2-1.83-1.56-3.09h.66q1.14-.12 1.35-.9.21-.78.21-1.86l.06-6.06q0-1.14-.48-2.46t-1.02-1.8q.6-.12.96-.12 1.68 0 3.57.9t2.61 2.04l-.12 8.52q0 1.56.9 1.2 1.68-.72 4.86-1.38V18.36q0-1.14-.42-2.52-.42-1.38-.9-1.8.24-.06.72-.06 1.74 0 3.66.93 1.92.93 2.7 2.13-.24 2.88-.42 4.32-.06.72-.3 3.21t-.24 4.65v6.54q1.74-.18 5.1-.18.78 0 .93-.3.15-.3.15-.9l.12-5.04q.06-1.14-.39-2.49-.45-1.35-.99-1.83.24-.06.84-.06 1.74 0 3.63.87t2.61 2.07l-.24 7.92.12 6.48q0 .96-.6.96-.48 0-1.26-.66l-1.44-1.08q-1.2-.9-1.86-1.98-1.2-.3-3.24-.45-2.04-.15-3.48-.15v16.8q3.42-.42 6.96-.42.48 0 .78-.36.3-.36.3-.84l.12-3.84q.06-1.14-.39-2.49-.45-1.35-.99-1.83.24-.06.84-.06 1.74 0 3.63.87t2.61 2.07l-.24 7.92.12 6.48zm61.62-29.76q.54.96.54 1.68 0 1.32-1.14 2.1t-2.16 1.08q-2.04.6-3.24.72-1.2.12-3.54.12-4.5 0-6.42-1.26t-2.28-3.09q-.36-1.83-.36-5.79v-12q0-1.02-.39-2.25t-.81-1.65q.24-.12 1.68.24t2.85 1.05q1.41.69 1.89 1.41-.3 1.02-.51 3.45-.21 2.43-.27 5.07.48-.36 1.32-1.2.84-.84 2.58-2.34.9-.84 1.65-1.89.75-1.05.81-1.89 2.34 2.04 2.34 3.9 0 1.32-1.14 2.52-2.82 2.46-7.62 3.24 0 4.2.33 5.67.33 1.47 1.32 1.8.99.33 3.93.33 1.86 0 2.79-.48.93-.48 1.23-1.41.3-.93.3-2.67l-.06-3.3q0-.66.18-1.05t.42-.39q.24 0 .51.39t.39 1.11q.42 1.86.96 3.12t1.92 3.66zm-34.44 5.34q.12.06.51.21t.57.39q.18.24.18.66-.12 1.92-.39 3.12-.27 1.2-.87 1.2-.42 0-.84-.48l-2.1-2.4q-1.44-1.56-2.04-2.28v26.52q0 .72-.48.72-.24 0-.72-.24t-.66-.36q-1.56-.84-2.94-2.07t-1.2-2.55q1.2-6.18 1.2-15v-4.5q-1.68 3.06-3.84 5.43-2.16 2.37-5.82 4.95-1.14.78-1.56.78-.36 0-.15-.48t.87-1.26q2.46-2.94 5.37-7.92t5.13-9.9v-.42q-3.36.72-5.22 1.56-1.08.18-1.98-.51-.9-.69-1.53-1.59-.63-.9-.75-1.38 4.86-.66 9.48-2.1V17.88q0-1.14-.42-2.52-.42-1.38-.9-1.8.24-.06.72-.06 1.74 0 3.66.93 1.92.93 2.7 2.13-.24 2.58-.42 4.08-.48 4.68-.54 6.96 1.2-.24 1.8-.3l.66-.06q1.38 0 2.61.63t1.98 1.53q.75.9.75 1.62 0 .42-.33.69-.33.27-.99.27-.72-.06-2.16-.06-2.4 0-4.32.24v4.56l4.98 2.1zm5.82 1.08q-.84.66-1.68.66-1.08 0-1.98-.93-.9-.93-1.44-2.13-.54-1.2-.48-1.74.18-.06 1.17-.36t1.65-1.05q.66-.75.66-1.95V21.72q0-1.14-.42-2.52-.42-1.38-.9-1.8.24-.06.72-.06 1.74 0 3.66.93 1.92.93 2.7 2.13-.12 1.68-.36 2.94t-.3 1.8q1.2-.48 2.1-.9.72-.12 1.02-.12 1.38 0 2.4.78t1.02 1.62q0 .9-1.2.96-.42.06-1.41.12t-2.01.36q-1.02.3-2.22.9-.06.96-.06 3.54 0 .18.12.3t.36.06q1.8-.72 3.18-1.5 1.2-.54 1.56-.54.84 0-.42 1.71t-3.54 3.93q-2.28 2.22-3.9 3.54zm15.48 1.5q.3-.06.63-.33t.39-.33l6.6 3.42q-.84 1.38-.96 3.36l-.48 11.34q-.06 2.34-.81 4.53-.75 2.19-1.71 3.54t-1.68 1.35q-.54 0-.78-.66l-.84-2.46q-.06-.24-.39-1.14-.33-.9-.6-1.44-.27-.54-.57-.78-4.62-.06-10.2.6.12 1.8.12 3 0 .6-.48.6-.3 0-.75-.21t-.57-.27q-1.92-1.02-3.24-2.01-1.32-.99-1.26-2.31l.36-3.24q.42-3.36.42-4.98 0-1.68-.36-3.9-.18-1.26-.69-2.55-.51-1.29-.99-1.59.66-.18 1.26-.18 1.38 0 3.24.72 1.08-2.34 2.88-5.1.9-1.38.96-2.58.06-.9.72-.9.48 0 1.56.54.18.06.87.36t1.23.36q.54.06.87.21.33.15.33.57 0 .3-.3.9-.9 1.62-2.52 3.06h.24q1.68 0 2.52-.15.84-.15 3.06-.81.6-.12 1.92-.54zM225.04 54q0 3.3.06 5.22 3.24-.12 6.51-.39 3.27-.27 5.43-.69.12-.96.12-1.74V45.42q0-.24-.27-.42t-.57-.12q-3.06.6-6.72 1.68-.48.12-.66.12-.78 0-1.44-.54-.66-.54-1.08-1.38l-1.02.72-1.32.96q.72.6.96.96V51q2.1-.24 3.84-.72 1.74-.48 2.22-.6 1.26-.12 2.34.42 1.08.54 1.74 1.38.66.84.66 1.56 0 .78-.9.78-1.2-.3-3.18-.3-3.06 0-5.46.96h-.12q-.54 0-1.14-.48zm75.36-37.14l.66-.06q1.08 0 2.07.45.99.45 1.56 1.08.57.63.57 1.11 0 .36-.3.51-.3.15-1.02.15-2.46 0-4.53.39-2.07.39-5.01 1.11-1.68.48-1.8.48h-.24q-.66 0-1.2-.36-.12.24-1.08 1.68.6.06 2.46.48l2.76.54q.6.12.87.33.27.21.33.81 0 2.22-.48 3.36.54-.12.6-.18.3-.18.57-.33.27-.15.45-.21l5.76 3.42q-.54.72-.87 1.62-.33.9-.33 1.68V60.3q0 3.42-1.08 5.52-1.08 2.1-2.46 2.1-.66 0-1.32-.72-.72-.78-1.44-1.8-1.38-1.8-2.43-2.85-1.05-1.05-2.55-1.65-.78-.24-.78-.48 0-.18 1.32-.12.72.06 1.98.06 1.98 0 2.97-.66.99-.66.99-2.46V45.72l-.54-12.84q0-.3-.24-.48t-.54-.12q-3.12.42-4.98.96-1.86.54-4.56 1.56l-2.7 1.02q-.3.12-.78.12-.96 0-1.68-.72t-1.11-1.65q-.39-.93-.27-1.35 1.08.12 1.8.12.54 0 1.5-.12 1.44-.24 5.13-1.2t6.51-1.74l-.18-.18-.96-.96q-3.72-3.6-4.14-4.2-3.3 4.14-7.02 5.82-1.26.54-1.5.54-.12 0-.12-.06 0-.18.45-.75.45-.57.57-.75 1.56-1.98 3.24-5.28 1.68-3.3 2.58-6.18.78-2.04.78-3.78 0-.84-.18-1.44 2.16.48 3.51 1.68 1.35 1.2 1.35 3 0 .54-.18 1.26l-.18.48q2.1-.42 7.44-1.62zm-28.68 8.16q-2.4 2.7-5.28 4.8-2.88 2.1-5.4 3-1.08.42-1.62.42-.18 0-.18-.12 0-.36 1.14-1.32 2.4-2.16 5.34-6.18t4.62-7.44q.54-.84.87-1.98.33-1.14.33-2.1 0-.42-.12-1.02 1.98.66 3.18 1.83 1.2 1.17 1.2 2.79 0 .78-.36 1.8l-.36.78 3.18-.78q1.68-.48 2.52-.66 1.26-.12 2.37.3t1.83 1.08q.72.66.72 1.2 0 .66-1.44.66-2.16 0-3.66.3t-3.3.84q-1.44.48-2.28.66h-.18q-.84 0-1.62-.66l-.66.84q.96.18 2.64.72l1.74.54q.78.24 1.08.45.3.21.36.87 0 1.68-.27 3.12-.27 1.44-.99 1.44-.36 0-.78-.48-3.96-4.5-4.62-5.7zm4.68 6.48q.6.24.81.54.21.3.09.9-.24 1.5-.72 2.79t-1.14 1.29q-.36 0-.78-.6-2.4-3.48-3.39-5.04-.99-1.56-.99-2.04 0-.3.3-.3t.9.3l4.92 2.16zm-12.9 1.98q.24-.06.72-.06 1.74 0 3.66.93 1.92.93 2.7 2.13-.24 2.88-.42 4.32-.06.72-.3 3.21t-.24 4.65v15.6q0 .78-.54.78t-1.32-.66q-.36-.3-1.59-1.26t-2.01-1.86q-.78-.9-.54-1.5.78-1.86.99-4.5.21-2.64.21-6.72V37.8q0-1.14-.42-2.52-.42-1.38-.9-1.8zm29.1 17.46q-.36 3.36-1.47 5.55-1.11 2.19-2.25 2.19-.72 0-1.14-.84-.54-1.02-.84-2.1-.3-.84-.54-1.29-.24-.45-.84-.87-2.64.18-5.4 1.08l.06 2.64q0 .72-.42.72-.36 0-.81-.27-.45-.27-.57-.33-1.98-1.2-3.18-2.22-1.2-1.02-1.02-2.34.42-2.34.42-4.26 0-1.56-.18-3.36-.12-1.2-.24-3.48-.06-1.14-.51-2.49-.45-1.35-.93-1.77.24-.06.84-.06 1.26 0 2.64.45 1.38.45 2.4 1.23-.36-.78-.24-1.26.54.06 1.62.06 1.14 0 1.68-.06 1.68-.18 2.61-.48.93-.3 2.37-1.14.42-.24.63-.42.21-.18.33-.24l6.72 3.24q-.66 1.02-.9 3.42l-.84 8.7zm-12.54.42q.42-.06.9-.12.48-.06.96-.18 3.42-.48 5.04-.54.24-.9.24-2.64l.12-7.14q0-.3-.24-.48t-.6-.06q-1.5.6-1.86.78-1.74.72-2.4.9-.18.06-.6.06-.9 0-1.8-.78-.06.84-.09 1.05-.03.21-.03.27 0 .06.06.24t.12 2.04v.54q.42-.12 1.35-.36.93-.24 2.01-.36.9-.12 1.68.33.78.45 1.29 1.17t.51 1.26q0 .66-.72.66-1.44-.42-2.34-.42-.78 0-1.98.3l-1.74.36.12 3.12zm89.52-2.22q1.92 1.38 2.67 2.01.75.63.75.99 0 .3-.51.51-.51.21-1.83.57l-4.26 1.14q-.6.12-.9.12-1.08 0-2.28-.87-1.2-.87-2.64-2.91-1.68-2.34-5.88-9.42-3.36-5.64-3.78-6.3V48l2.16-.36q1.5-.18 2.88.57t2.25 1.95q.87 1.2.87 2.16 0 1.2-1.32 1.2-3.84-1.44-6.84-1.44v14.7q0 .72-.48.72-.24 0-.72-.24t-.66-.36q-1.56-.84-2.94-2.07t-1.2-2.55q.78-3.96 1.08-9.54-.9.24-1.2.3-1.92.54-3.72.9-1.32.18-2.43-1.29t-1.71-3.03q-3 2.34-6.36 4.02-.9.42-1.44.54v10.98q0 .78-.54.78t-1.32-.66q-.36-.3-1.56-1.23-1.2-.93-1.98-1.83t-.6-1.56q.6-2.58.9-6.75.3-4.17.3-8.25v-8.88q-3.48 3.9-7.5 7.02-1.62 1.26-1.98 1.26-.42 0 .84-1.86l1.68-2.46q2.64-3.96 4.17-6.54 1.53-2.58 3.24-6.27 1.71-3.69 3.51-8.97.72-2.04.72-4.08 0-1.02-.3-1.8 2.58.48 4.17 1.71 1.59 1.23 1.59 3.21 0 .66-.3 1.68-1.98 6.54-6.18 12.48 1.44.78 2.1 1.8-.24 2.88-.42 4.32-.06.72-.3 3.21t-.24 4.65v6.3l.66-.72q8.76-8.1 15.06-20.04-2.58.36-4.41.69-1.83.33-2.97.51-1.2.3-1.92.36-1.5.24-2.7-1.59-1.2-1.83-1.56-3.09 5.76-.06 14.82-.9V17.28q0-1.14-.42-2.52-.42-1.38-.9-1.8.24-.06.72-.06 1.74 0 3.66.93 1.92.93 2.7 2.13-.24 2.76-.42 4.14-.48 4.8-.54 7.14 6.6-.66 10.68-1.38 1.5-.18 2.88.57t2.25 1.95q.87 1.2.87 2.16 0 1.2-1.32 1.2-3.12-1.2-8.64-1.2-2.82 0-6.3.3 3.66 4.86 8.61 9.9 4.95 5.04 9.63 8.4zm-32.16.12q5.76-.18 8.7-.48v-10.8q-3.18 6.78-8.7 11.28z"/></svg>