<svg viewBox="0 0 448 80" xmlns="http://www.w3.org/2000/svg"><path d="M18.66 18.16h46.8v3q0 .36-.27.63t-.63.27h-45.9v-3.9zm2.76 19.32h40.92v3q0 .36-.27.63t-.63.27H21.42v-3.9zM15.6 58.6h52.86v3q0 .36-.27.63t-.63.27H15.6v-3.9zm79.32-14.1q-4.08-3.06-6.42-6.36v28.2q0 .36-.27.63t-.63.27h-5.7V43.72q-2.88 4.74-7.74 8.34v-3.9q2.34-3.06 3.93-7.38 1.59-4.32 2.37-12.12h-5.7v-3.9h7.14V13.12h6.6v11.64h6.78v3q0 .36-.27.63t-.63.27h-4.62q.9 4.26 2.19 6.99 1.29 2.73 2.97 4.95v3.9zM129 62.86v3.9q-3.18-1.02-7.56-3.57-4.38-2.55-8.64-6.33-4.08 3.66-8.46 6.24-4.38 2.58-7.5 3.66v-3.9q7.26-4.14 12.48-9.36-3.6-3.9-6.36-8.46-1.68 8.52-5.16 13.65-3.48 5.13-8.22 8.61v-3.9q2.22-2.94 3.96-6.75 1.74-3.81 2.94-10.74t1.2-17.43v-8.64h-5.76v-3.9h30v3.18q-.36 3.3-1.35 6.66-.99 3.36-2.19 6h7.44v3.9q-1.98 9.48-9.36 17.58 3.3 3.3 6.66 5.73 3.36 2.43 5.88 3.87zM104.28 31q1.68 9.84 8.7 18.42 5.04-6.6 6.24-13.74h-7.8v-3.9h2.04q1.14-4.26 1.8-11.94h-10.98V31zm63 30.06h22.08v3q0 .36-.27.63t-.63.27h-53.82v-3.9h9V29.98h6.6v31.08h10.44V20.08h-23.7v-3.9h50.04v3q0 .36-.27.63t-.63.27h-18.84v17.16h18.24v3q0 .36-.27.63t-.63.27h-17.34v19.92zm47.64-16.56q-4.08-3.06-6.42-6.36v28.2q0 .36-.27.63t-.63.27h-5.7V43.72q-2.88 4.74-7.74 8.34v-3.9q2.34-3.06 3.93-7.38 1.59-4.32 2.37-12.12h-5.7v-3.9h7.14V13.12h6.6v11.64h6.78v3q0 .36-.27.63t-.63.27h-4.62q.9 4.26 2.19 6.99 1.29 2.73 2.97 4.95v3.9zM249 62.86v3.9q-3.18-1.02-7.56-3.57-4.38-2.55-8.64-6.33-4.08 3.66-8.46 6.24-4.38 2.58-7.5 3.66v-3.9q7.26-4.14 12.48-9.36-3.6-3.9-6.36-8.46-1.68 8.52-5.16 13.65-3.48 5.13-8.22 8.61v-3.9q2.22-2.94 3.96-6.75 1.74-3.81 2.94-10.74t1.2-17.43v-8.64h-5.76v-3.9h30v3.18q-.36 3.3-1.35 6.66-.99 3.36-2.19 6h7.44v3.9q-1.98 9.48-9.36 17.58 3.3 3.3 6.66 5.73 3.36 2.43 5.88 3.87zM224.28 31q1.68 9.84 8.7 18.42 5.04-6.6 6.24-13.74h-7.8v-3.9h2.04q1.14-4.26 1.8-11.94h-10.98V31zm61.02 19.5h23.16v3q0 .36-.27.63t-.63.27H255.6v-3.9h23.1v-4.8h-19.98v-3.9h19.98v-5.1h-19.38V15.28h45.42V31q0 3.06-1.53 4.38-1.53 1.32-4.77 1.32H285.3v5.1h20.04v3q0 .36-.27.63t-.63.27H285.3v4.8zm-19.38-17.7h12.78V19.18h-12.78V32.8zm32.22-2.1V19.18H285.3V32.8h10.74q2.1 0 2.1-2.1zm-24.9-9.3q3.24 5.16 5.22 9.6h-5.1q-2.7-5.1-6.72-9.6h6.6zm17.4 9.6h-5.1q1.98-4.44 5.22-9.6h6.6q-4.02 4.5-6.72 9.6zm5.16 25.2h6.6q1.56 1.92 2.61 3.99 1.05 2.07 2.31 4.95.12.36.3.75t.36.81h-5.1q-.18-.3-1.02-2.1-.84-1.8-2.46-4.14t-3.6-4.26zm-40.08 10.56q1.8-2.22 3.54-5.04t2.04-5.46h6.6q-1.2 3.24-3 5.73t-4.08 4.77h-5.1zm26.88-10.5h6.6q1.56 1.92 2.61 3.99 1.05 2.07 2.31 4.95.12.36.3.75t.36.81h-5.1q-.18-.3-1.02-2.1-.84-1.8-2.46-4.14t-3.6-4.26zm-12.6.3h6.6q1.56 1.92 2.61 3.99 1.05 2.07 2.31 4.95.12.36.3.75t.36.81h-5.1q-.18-.3-1.02-2.1-.84-1.8-2.46-4.14t-3.6-4.26zm56.1-34.68q-2.34 3.18-5.16 5.04-2.82 1.86-6.18 3.24v-4.2q3.48-2.22 5.43-5.13 1.95-2.91 3.39-8.13h6.6q-.72 2.88-1.8 5.28h14.04v3q0 .36-.27.63t-.63.27h-8.22q1.26 1.68 1.83 2.79.57 1.11 1.65 3.51h-5.1q-.12-.18-.63-1.14t-1.53-2.31q-1.02-1.35-2.46-2.85h-.96zm26.34-3.9h16.44v3q0 .36-.27.63t-.63.27h-10.02q1.26 1.68 1.83 2.79.57 1.11 1.65 3.51h-5.1q-.12-.18-.63-1.14t-1.53-2.31q-1.02-1.35-2.46-2.85h-1.74q-1.86 2.28-4.05 3.57-2.19 1.29-5.19 2.49l-1.32.54v-4.2q3-1.32 4.92-3.9t3.3-7.68h6.6q-.72 3-1.8 5.28zm-25.56 9.84q1.92 2.4 2.67 3.75t1.95 4.05h-5.1q-.9-1.74-2.07-3.39-1.17-1.65-4.05-4.41h6.6zm6 5.28v-3.9h31.98v31.38q0 6.3-6.3 6.3h-8.94v-3.9h6.54q2.1 0 2.1-2.1V33.1h-25.38zM319.2 67.24V35.5h6.6v30.84q0 .36-.27.63t-.63.27h-5.7zm34.74-13.5q0 6.3-6.3 6.3h-17.1V37.66h23.4v16.08zm-6.6-12.18h-10.2v5.34h10.2v-5.34zm-2.1 14.58q2.1 0 2.1-2.1V50.8h-10.2v5.34h8.1zm70.92-28.8q2.22 9.06 6.03 16.47 3.81 7.41 7.53 11.31v3.9q-4.8-3.18-9.93-9.45t-8.25-14.91v18.66h10.38v3q0 .36-.27.63t-.63.27h-9.48v9.12q0 .36-.27.63t-.63.27h-5.7V57.22h-10.62v-3.9q-2.94 3.3-6.48 5.7v-3.9q7.92-7.98 12.36-27.78h-10.62v-3.9h15.36V13.12h6.6v10.32h16.5v3q0 .36-.27.63t-.63.27h-10.98zM391.08 13.3q-1.2 9.24-4.08 15.24v37.68q0 .36-.27.63t-.63.27h-5.7V37.24q-2.64 2.16-5.64 3.48v-4.5q3.6-3.06 6.21-9.27 2.61-6.21 3.51-13.65h6.6zm3.24 40.02h10.62V34.9q-3.54 10.86-10.62 18.42z"/></svg>