<svg viewBox="0 0 326 80" xmlns="http://www.w3.org/2000/svg"><path d="M58.7 27.16q-.3 1.14-.3 1.26-.18.78-1.02 1.86-.3.42-.3.78 0 .48.36.84l.39.39q.21.21.39.33.3.3.6.3.48-.06 1.62-.3h.12q.06.06.18.06.3 0 .54-.36.36-.18 1.5-.96l.24-.12h.12q.24-.42.81-.72.57-.3.75-.48l.24-.12q1.02-.24 1.32-.96.3-.72.3-1.14 0-.6-.36-1.02-.84-.96-2.46-1.74l-.24-.12-.24-.12-.84-.84h-.18q-.36 0-.6-.36-.36-.78-1.2-.78-.24 0-.3-.06l-.24-.06q-.24 0-.42.12t-.3.18q-.18.06-.36.24t-.3.18q-1.02.42-2.28.72-.54.12-1.05.21t-1.05.21q-1.44.42-1.92.48l-2.82.66q-.18.06-.6.06.06-.48.33-.72t.33-.3q.54-.66.6-1.2 0-.6.48-1.38.48-.66.48-1.56 0-1.2-.9-1.8-.42-.36-1.14-.72-.48-.3-1.2-.63t-1.08-.63q-.24-.3-.84-.3-.12.06-.42.06t-.54-.06q-.24-.06-.42-.12-.12-.06-.3 0t-.24.12q-.06.12.06.6.18.18.18.24.6 1.14.6 2.52 0 1.08.06 1.62 0 .42.06.9.06.48.06.96 0 .96-.06 1.68t-.12 1.2l.06.18.06.36q0 .24-.48.3-2.4.78-4.98 1.44-.48.12-.72.12-.54 0-.96-.48-.24-.36-.48-.42-.24-.12-1.68-.54h-.24q.24 1.2.24 1.56 0 2.46-.54 3.84-.42.96-.78 1.68-.06.18-.15.39-.09.21-.03.39.12.72.48 2.64.06.3.18.78.12.48.12.78.12.66.66.78h.18q.48 0 .66-.18.48-.42.9-1.02.66-1.26.78-1.8.54-1.32.84-3.24.06-.18-.06-.54l-.06-.36q0-1.38-.06-2.16 0-.36.3-.24.48 0 .66.12.42.3 1.02.3l.96-.06q.36 0 .69-.06.33-.06.57-.12l.78-.12 1.02-.24q.3-.06.63-.12t.69-.12q.24-.12.81-.36.57-.24 1.05-.36l.66-.12.96-.12q1.5-.54 1.92-.66.42-.06 1.17-.27.75-.21 1.41-.15h.12q1.2-.54 1.5-.6.84-.24 1.56-.3.48-.06.84-.03t.66.03zm-36.72-3.42q.42.18.69.54.27.36.57.96.12.3.24.54.12.24.24.54.18.3.42.6t.42.66l.54 1.08q.24.36.9 1.2l1.08 1.38q.24.3.63.42t.63-.12q.6-.6 1.02-1.26.36-.72.66-2.04 0-.18.21-.6t.21-.72q0-.3-.12-.48.12-.3-.18-.42-1.2-.84-1.32-.96l-.27-.27q-.15-.15-.39-.27-1.32-.48-1.5-.54-.36-.12-1.2-.39t-1.5-.57q-.36-.12-.48-.12-.24 0-.54.09-.3.09-.42.09-.24 0-.42.18t-.12.48zm20.58 18.72l.6.48q1.08 1.08 2.16.96.18 0 .18.18.12 1.32.12 1.98 0 .24-.24.24-.24.12-.63.24t-.63.24l-1.44.36q-.36.12-.36-.36.06-.24.03-.45-.03-.21-.03-.39 0-.18-.06-.39-.06-.21 0-.33.06-.12.06-.36 0-.18-.24-.66l-.24-.3q-.36-.72-.9-.72l-.24-.12q-.6-.36-.9-.48-.18 0-.48-.06t-.48-.12l-.45-.15q-.27-.09-.45-.09-.06-.06-.18 0-.24.18-.6.18-.3 0-.66-.18h-.3q0 .24.06.36.06.18.54 1.14.12.24.42.72t.66.72q.24.12.24.48.48 3.78.54 4.38.12 1.44.48 2.4l.18.54q0 .18-.06.27-.06.09-.18.09l-1.08.36-1.08.36q.18.12.36.27.18.15.36.27 1.14 1.02 2.04 1.2.12 0 .18.09t0 .21q-.24 1.26-1.2 2.4-.48.6-1.17 1.26t-1.05 1.02q-.12.12-.84.72-.12.12-.21.27-.09.15-.27.27-.24.12-1.08.42-.48.24-.3.66v.06q-.18.18-.06.24l.24.12q.6.24 1.32.36h.18q.3 0 .54-.06.24-.06.54-.06.18-.06.36-.15t.36-.15q.12 0 .63-.06t.93-.36q.54-.36 1.14-.54.18-.06.57-.18.39-.12.57-.48.12-.12.18-.12.36-.3.78-.6.42-.3.78-.6l1.14-.66q.12-.06.3-.21t.24-.33q.36-.54.24-1.44-.12-.66-.6-.96-.24-.24-.69-.54-.45-.3-.75-.48-.18 0-.3-.18l1.08-.48h.18l.42.06q.54 0 1.26-.42.36-.24.72-.24.12.06.3.06.3 0 .66-.18.36-.18.6-.24.54-.06 1.26-.27.72-.21 1.08-.33l1.02-.3.9-.42.24-.06q.42 0 .42.6 0 .24.18.54.18.3.42.42t.6.12q.6 0 1.02-.66.18-.24.42-.66.24-.42.42-.66l.36-.36q.24-.24.36-.6t.42-.81q.3-.45.48-.75.18-.18.33-.54.15-.36.21-.54.12-.6.24-1.02.24-.54.42-1.2.06-.18.15-.66.09-.48.27-.78.48-.6.66-1.26.18-.3.18-.6t-.18-.54q-.06-.24-.21-.48t-.21-.48q-.06-.3-.27-.54-.21-.24-.33-.36-.12-.12-.57-.45-.45-.33-.45-.81h-.12L56 38.74q-.06-.06-.3-.18t-.54 0l-.18-.06q-.12.36-.66.6l-2.7.72q-.18.06-.45.18t-.63.18q-.42.24-.54-.24 0-.42-.18-.66 0-.18-.18-.18l-1.08-1.02q.48-.12.54-.12 1.56-.36 1.68-.36.12 0 .63-.12t.87-.42l.3-.3q1.02-.42 1.02-1.26v-.54q0-.6-.24-.72-.24-.3-.72-.54l-.72-.36q-.36-.12-1.08-.24-.54-.12-.54 0-.18.3-.45.24t-.33-.06q-.42 0-.6.06-.36.12-1.08.48-.48.3-1.11.45-.63.15-.87.21-.42.06-1.26.3l-1.5.36q-1.26.42-1.8.42-.48 0-.96-.24.6 1.14.78 1.56.18.36.6.6t.6.42q.66.54 1.86.84.24 0 .42.06t.3.06q.48 0 .48.42.06.42.12.99.06.57.06.87v.3q0 .18-.12.24t-.36.12q-.18 0-.42.12-.48.24-1.14.36-.66.12-.96.18zm-26.64-7.14q.18.36.54.84.18.24.39.45.21.21.33.45l1.44 2.16q.3.36.75 1.02t.81 1.08q.72.72 2.04 1.56.18.18.54.18.36 0 .69-.18.33-.18.45-.42.18-.54.33-.93.15-.39.27-.75.12-.6.12-.9 0-.66-.3-1.44-.06-.06-.12-.21t-.18-.21q-.3-.54-.72-.78-.06-.12-.24-.18t-.3-.12q-.18-.18-.36-.24t-.66-.15q-.48-.09-.78-.27-.36-.18-.96-.39-.6-.21-.96-.33-.84-.3-1.83-.27-.99.03-1.29.03zm37.5 7.32v1.26l-.24 1.14q-.06.42-.48.18-.66-.42-1.74-.3-.36 0-.48.06-.36.3-.48-.24-.06-.18-.06-.42 0-.54.42-.9.12-.12.18-.12l2.88-.66zM22.7 59.26l.3.48q.36.12.54.24.18.12.42.42.48.96 1.14 1.44.48.36.78.36.42 0 .78-.54.78-1.14.6-2.04l.06-.24v-1.02q0-.6.06-.84t.27-.78q.21-.54.15-.9v-.24q0-.54.3-1.14.06 0 .06-.24t.03-.6q.03-.36.15-.84.06-.36.21-1.14.15-.78.09-1.38 0-.18.06-.24.18-.18.18-.66l-.06-1.02q-.06-.66-.42-1.74 0-.3-.18-.36l-.36.12q-.24.12-.27.42-.03.3-.09.42l-1.26 2.52-1.74 3.48q-.12.3-.51 1.17-.39.87-.93 1.47-.24.3-.96.3l-.78-.06v.12l.18.18q.12.24.33.54.21.3.39.66.12.12-.06.42-.06.12-.06.3 0 .36.3.54.12.06.24.18t.06.24zm29.94-12q-.24 1.74-.3 2.4-.06.3-.3.33-.24.03-.3.03-1.02 0-1.44.06h-.24q-.66 0-.66-.54 0-.66.36-1.2.12-.3.39-.45.27-.15.57-.21.18-.06.54-.06l1.38-.36zm-10.2 1.68q.12-.06.3-.06t.66.24q.6.48 1.38.3h.24q.24 0 .33.12.09.12.15.48.06.3.18.6t.18.6l-1.38.36q-.48.18-.87.24t-.63.12q-.18.06-.3.03t-.24-.03q.06-.18.06-.54l.12-.48q0-.6-.06-1.11-.06-.51-.12-.87zm9.42 6.54q.36.36.42.36.36.18.69.69.33.51.51.69v.06q.3.42.3.48l1.32 1.56q1.2 1.5 1.38 1.68.48.6 1.5 1.62l.96.66q.18.12.39.06.21-.06.27-.24.18-.36.42-1.08l.18-1.08.06-.66q.06-.42.03-.99-.03-.57-.03-.81 0-.48-.06-.66l-.21-.42q-.15-.3-.36-.42t-.51-.12q-.3 0-.3-.12-.24-.3-.6-.42t-.42-.12q-1.32-.3-1.74-.48-.9-.54-1.86-.54H53q.18-.06-1.14.3zM93.02 25q0 .12-.09.21t-.09.27q0 .24.12.24.3.18.54.54.24.36.42.6.12.12.3.39t.24.51q.36.78.78.96.3.18.57.3.27.12.45.24.24.06.45.06h.33q.84 0 1.2-.24.84-.12 1.14-.12.24 0 .6-.12.36-.18.48-.18.24-.06.63-.15t.63-.21l1.08-.36q.24-.12.96-.24 2.04-.78 2.16-.78.12 0 .63-.12t.9-.33q.39-.21.69-.51l.18-.06q.66 0 .84-.84 0-.06.12-.3l.18-.42q0-.54-.12-1.38 0-.48-.21-.9-.21-.42-.51-.84-.12-.24-.48-.54-.36-.3-.6-.48h-.06l-.96-.18q-.06-.06-.24-.06t-.42.24q-.3.3-.42.36-.42.18-1.5.42l-1.8.78q-.3.12-.66.21-.36.09-.72.27-1.68.6-2.52.84l-2.82 1.08q-.54.18-1.02.39-.48.21-.84.33-.18.12-.54.12zM84.2 39.16h.06l.24.54q.12.48.36.66.3.12.69.36.39.24.51.36.54.36.66.42.06.18.66.6l.24.18 1.14.36h.18q.66.06 1.38-.15.72-.21 1.08-.27.54-.06 1.32-.3 1.2-.18 1.98-.48.66-.12 1.32-.48h.54q.84-.54 1.62-.6.06-.12.42-.3.48-.36.6-.36.42-.12 1.14-.24h.3q.18 0 .21.12t-.03.36V40l-.12.96q0 .12-.03.27-.03.15.03.21.12.6.12 1.44v5.04l.06 2.1q.12 1.56.24 2.34l.06 1.98v1.5q0 .42-.48.54l-2.82.54q-.18.12-.27.36-.09.24.09.36 1.2 1.2 1.56 1.44.3.24.78.51.48.27.72.51.6.3 1.08.96.12.3.42.3h1.32q.42 0 .84-.33t.6-.75q.06-.24.21-.63t.27-.69q.18-.6.06-1.68l-.06-.18-.06-.24q0-.3-.06-.99t-.18-1.29l-.06-.96.06-1.38q-.12-.72-.12-1.02.06-.48.03-.9-.03-.42-.03-.72-.06-.66-.06-1.92 0-.84.12-2.64 0-.6-.06-.84l-.06-.36q0-.3.09-.69.09-.39.15-.63v-1.08q0-.06-.06-.27-.06-.21 0-.27.12-.24.12-.72 0-.42-.12-1.14v-.12q0-.54.66-.9l.78-.18q.18-.06.69-.3t.99-.18l.18-.06q.6-.24.9-.3.48-.12 1.17-.3t1.17-.36l1.38-.24q.36-.06.9-.12t.84-.06l.36-.12q.18-.06.48-.06.3-.06.6-.03t.6-.03q.6-.12 1.68-.24.96-.12 1.08-.84.36-.84.36-1.14.06-.24.06-.72 0-.6-.12-.84-.54-1.08-2.04-1.62-.42-.12-1.02-.42-.18-.06-.48-.21t-.54-.09q-.18.12-.54.21-.36.09-.54.15L111.5 31l-4.8 1.5q-1.56.48-2.34.66-1.74.6-2.28.66-.78.3-2.46.78l-2.34.72q-.66.24-2.1.6-.42.18-1.38.42-.78.24-2.34.84l-1.8.66q-.48.18-1.14.39-.66.21-1.38.51-.12 0-.24.03t-.24-.03q-.18-.06-.54-.06-.42 0-.93.15t-.75.21q-.12 0-.24.12zm26.28 3.96v.66q0 .9.48 1.44l.78 1.02q.48.84.9 1.26.06.12.27.21.21.09.33.21l.9 1.08q1.08 1.68 2.58 3.36.3.48 1.14.72h.24q.42 0 .81-.21.39-.21.51-.51.12-.36.15-.63t.03-.45q.18-.66.18-1.14 0-.72-.24-1.26-.06-.3-.18-.57-.12-.27-.18-.45l-.15-.3q-.09-.18-.21-.36l-.21-.42q-.15-.3-.33-.42-1.44-1.08-3-1.68l-1.38-.66q-.66-.12-.84-.48-.18 0-.24-.06-.06 0-.27-.06-.21-.06-.33-.24-.84-.42-1.5-.24-.24 0-.24.18zM92.12 45.7l.03-.03.03-.03v-.36q-.12-.48-.84-.72-.18-.06-.42-.06-.18 0-.36.15t-.3.45q-.06.06-.15.33t-.39.27l-.12.12q-.12.12-.18.24t-.12.18q-.48.66-1.56 1.98-.42.36-.78.81-.36.45-.78.81-.66.54-1.08 1.44-.06.06-.18.6 0 .3-.06.48l-.06.18q0 1.2.54 1.68.42.48.9.42.06-.06.12 0 .6.12.96.24.18.12.3-.12 1.08-.96 1.32-1.08l.36-.36.48-.48q.24-.24.42-.48.24-.48.54-1.02.3-.54.66-1.14.12-.3.15-.48t.03-.3l.42-.84q.06-.24.24-.6t.18-.66q0-.3-.12-1.14 0-.12-.18-.48zm55.02-3.78l.12.06q-.18.18-.42.54l-.78 1.2-1.08 1.5-1.08 1.62q-.48.78-1.26 1.62-.18.24-1.38 1.26l-2.82 2.16-2.52 1.8q-.72.54-.78.6-.12.12-.12.3 0 .06.09.09t.15.03q.18.06.48.06.84-.12 1.92-.48.66-.06 1.2-.36.3-.12.66-.24.36-.12.66-.24l.96-.36q.3-.12 1.02-.54.72-.24 1.02-.48.36-.24 1.56-1.26l1.14-1.14q.24-.24 1.68-1.56.36-.42.66-.84.3-.42.66-.84.12-.24.36-.36 0-.06.3-.18l.06.3v1.14q0 1.86-.06 2.82l-.06 2.28q-.06.42-.03.96t.03.78l.06 2.52.06.18q.06.12.18.39t-.06.51l.06.18q.06.12.18.21t.18.27q.18.24.33.51.15.27.33.51.18.18.6.24t.54-.12q.48-.6.48-1.14 0-.3.06-.48l.18-1.02.18-.18q.48-.66.78-1.68.18-.54.18-1.68 0-.54.06-.78v-.36q0-.48-.06-.78l-.18-1.86q0-.36.06-.6t.12-.42l.06-1.68v-.48q0-.78-.06-1.14 0-.18-.06-.27-.06-.09-.06-.21-.06-.24-.06-.72.06-.18.18-.24t.3.12q.18.18.57.42.39.24.51.54l.12.12q.24.12.57.27.33.15.75.33.24.12.36.12.36 0 .6-.48.12-.3.21-.57l.15-.45q.24-.9.3-1.2.06-.06.06-.15t-.06-.15q-.6-.48-.9-.78l-.24-.18q-.6-.54-1.68-.84-.24-.12-.84-.24-.6-.18-.18-.6.18-.18.84-.48l1.38-.3q.24-.06.36-.42.06-.06.06-.21t.06-.21v-.72q0-.18-.06-.48t-.12-.48q-.24-1.08-.9-1.26-.18-.06-.72-.27-.54-.21-1.02-.21-.12 0-.24-.09t-.12-.21V33.4q0-.06.03-.3t-.09-.48q-.12-.3.06-.54.18-.48.12-.6-.12-.54-.48-.9t-1.02-.78q-.12-.06-.3-.09t-.36-.09q-1.26-.54-1.68-.84-.12-.12-.12-.3.06-.3.48-.42 1.02 0 1.74-.54l1.44-.9q1.08-.72 1.68-1.26.24-.24.36-.3.66-.12.78-.54.12-.24.18-.51t.12-.51q.12-.48-.06-.72-.24-.66-.36-.78-.06-.18-.3-.42-.06-.06-.96-.78-.12-.12-.33-.36-.21-.24-.45-.3-.42-.12-.93-.48t-.81-.54q-.36-.18-.72-.33-.36-.15-.78-.09.12 1.02.42 1.62.24.3 0 .54-.18.18-.39.42-.21.24-.51.54-1.2 1.44-1.92 2.16-.24.24-.81.87-.57.63-1.11.99-.48.42-.93.78-.45.36-.87.66-.42.3-1.2.84t-1.32.96l-1.98 1.32q-.12.12-.18.27-.06.15.12.33.3.3.54.24h.18l1.02.06q.6 0 1.02-.24.12-.06.45-.24t.57-.12l.24-.06.72-.24 1.8-.54q.24-.06.51-.18t.39-.18q.36-.12.54.24l.78 1.38.18.42v1.32q.06 1.02.06 3 .06.06 0 .15t-.12.09l-1.74.72q-1.98.66-4.38 1.56-.42.18-1.26.42-.42.18-1.29.48-.87.3-1.53.6-1.14.54-3.06.9-.78.12-1.08.36 0 .48.54.78 2.58 1.44 3.18 1.8.66.48 1.32.48.6 0 1.2-.48.54-.36 1.2-.57.66-.21 1.32-.39.24-.06.42-.12t.42-.12q.18-.06.72-.27.54-.21 1.08-.09.12 0 .21-.09t.21-.09q.12-.06.3-.06zm8.28 16.2q.66.18 1.2.18.72 0 1.32-.18 1.74-.54 2.94-.96.24-.12 1.56-.84l.18-.18q.12-.12.18-.12.3 0 .72-.42.54-.36 1.38-1.2.3-.3.78-.9.12-.12.24-.33.12-.21.24-.33.36-.36.42-.54l.24-.3q.18-.36.24-.42l.18-.36q.12-.12.42-.57.3-.45.42-.81.36-1.26.78-1.68l.18-.24q.18-.48.78-1.38l.18-.72q0-.42.3-.24.18.06.3.36l.36.72q.18.36.3.66l.6 1.08q.54.9 1.14 2.04.12.24.24.54.12.3.3.66.18.36.45.81.27.45.51.99.18.3.75 1.35.57 1.05 1.23 1.83.78.96 2.04 1.14l.54.06h.72q.6 0 .84.18h.06l.96.18q.18 0 .6.09t.72.09h.18q.66 0 1.5.12t1.44.18h.48q.72 0 1.14-.36.24-.24.24-.6t-.36-.6l-1.44-.9q-1.2-.9-1.5-1.2-.3-.18-.57-.51-.27-.33-.45-.51l-1.8-1.68-1.98-1.68q-.66-.48-2.46-2.28-.96-1.08-2.28-2.34-1.74-1.86-2.4-3.24-.6-1.14-1.44-2.04-.84-.84-.66-1.68l-.06-.36q-.06-.18-.06-.54 0-.3.12-.9l.06-1.2q0-.06.12-.18l.96-.36q.42-.24.84-.39.42-.15.84-.39l.48-.48.48-.48 1.2-.9.96-.84q.12-.12.36-.39t.6-.33q.24-.12.3-.24.12-.18.36-.51t.48-.45q.12-.12.12-.3.06-.06.06-.15t.06-.15q.18-.3.18-.66 0-.66-.42-1.02-1.56-.96-1.98-1.2-.18-.12-.57-.27-.39-.15-.57-.39-.06-.06-.48-.18l-.78-.18-.42-.12q.18.6.12.54.12.72.12 1.02 0 .48-.12.72l-1.2 2.22q-.18.3-.42.81t-.66 1.17l-.9 1.32q-.12-.72-.12-.9 0-.36.12-.84.06-.3.12-.69.06-.39.06-.63.06-.6.3-1.8 0-.12.09-.39t-.03-.57q-.12-.54 0-1.02 0-.12.12-.36t.18-.42l.18-1.56q0-.06.03-.12t-.03-.12q-.18-1.44-1.32-2.22-.3-.24-.72-.45l-.66-.33q-.24-.12-.69-.39-.45-.27-.75-.51-.48-.6-1.32-.72 0 .48-.12 1.56 0 .18.12.42.12.3.45 1.14.33.84.39 1.68 0 .72.12 1.92.18 1.32.18 2.64 0 1.26-.12 3.9l-.12 2.88-.12.36h-.06q-.72-.96-2.52-2.04-.3-.18-.81-.39-.51-.21-.81-.33-.96-.54-2.1-.42-.06.06-.21.09t-.21.09l.18.42q.12.18.33.45.21.27.39.57.18.36.24.66.06.3.12.54.3.72.36.84.18.3.36.57.18.27.36.57.12.18.21.45t.27.57q.54.9 1.26 1.32.48.3.72.3.42 0 .9-.42l.6-.6.03.03.03.03v.24q-.18 2.28-.78 4.14-.12.3-.21.66-.09.36-.21.66-.6 1.68-1.44 3.48-.3.48-.93 1.56-.63 1.08-1.29 1.86l-1.02 1.5q-2.04 2.58-4.5 4.44l-.96.54zm74.76-41.34q0-.06.3.06.24 0 .51.09t.51.15l.48.12q.24.06.36.12.06.06.24.06.12 0 .21.06t.15.12q.06.24.54.36.18.06.66.33.48.27.6.33 0 .06.36.3.18.18.36.33.18.15.3.27.06.06.21.27.15.21.03.51-.06.48-.21.87t-.33.45q-.18 0-.27.15-.09.15-.15.45-.24.78-.54 1.14-1.26 1.68-1.68 2.16-.24.18-.54.78l-.48.48q-.18.18-.12.36 0 .12.06.12.12 0 .48-.3.48-.36.66-.36.24 0 .54-.3.3-.36.72-.36t.6.12q.3.18.84.3l.66.24q.12.06.33.12.21.06.39.06.54 0 1.2.54.66.54.84 1.08.06.36.09.66.03.3-.09.3t-.3 1.98l-.12 1.08q-.12.12-.3 2.4 0 .12-.06.39t-.12.33l-.12 1.44q-.12 1.8-.27 2.55-.15.75-.45 1.41l-.36.72.42-.06q.9-.18 1.44-.36.78-.18 1.38-.36l.54-.12.6.18q.24 0 .45.06.21.06.33.12.12.12.54.12h.12q.3 0 .72.24l.54.18q0-.12.3.24t.42.6q.12.3.48.54.48.36.63.69.15.33.21 1.05 0 .78-.18 1.08-.18.18-.18.48t-.12.63q-.12.33-.24.39-.12 0-.12.42 0 .18-.3.96l-.18.72-.12.54q-.18.36-.66 1.8l-.3.48-.42 1.32q-.18.42-.36.87t-.24.51l-.18.6q-.12.36-.54 1.14-.42.78-.66 1.02l-.36.48q-.12.36-1.44 1.32-.72.36-1.14.78-.6.6-.99.9-.39.3-.69.3-.42 0-.66.06-.36.12-.6 0-.18-.06-.42 0-.06.06-.24.06t-.36-.72q-.12-.6-.24-.6-.24-.12-.24-.48-.06-.3-.33-.75t-.45-.63q-.12-.06-.12-.24t-.42-.6q-.42-.48-.63-.78-.21-.3-.18-.39.03-.09.27-.21.36-.12.42-.12l.6.12.9.18q.24.12.48.12.3 0 .66-.18.12-.12.42-.24.18 0 .36-.3.06-.12.42-.48.12-.06.18-.15t.06-.15l.54-.78q.6-.84 1.41-2.52.81-1.68 1.23-3.06.78-2.64.84-3.48l.06-.42-.66-.12q-.36 0-.63.06t-.63.3q-.6.36-.9.24h-.18q-.24 0-.66.24-.66.24-1.02.18l-.66.06q0 .06-.78.18-.66.12-1.5.6-1.14.48-1.32.48l-.72.3q-.72.36-2.22.78-.42.06-1.38.54-.6.36-.72.36l-.18.06q-.06.06-.21.15t-.45.21q-.6.42-.72.3-.36-.18-.42-.18-.96 0-2.88-1.68-.6-.48-.66-.48-.12 0-.12-.15t.12-.21q.24-.12.3-.24.42-.18 1.68-.54.84-.3 1.2-.87.36-.57.48-1.89 0-.48.18-1.92.24-.54.24-1.32l.18-1.2q.12-.24.24-1.62l.12-.96q0-.42-.3-1.26l-.3-1.2q.18 0 .36.12.48.24 1.02.6t.78.6q0 .06.18.15l.3.15.84.54.66.54q.3.3.42.66.18.3.24.63t0 .99q-.18 1.56-.36 2.04l-.18.78v.06q0 .18-.24.66-.12.48-.18 1.05-.06.57 0 .57.24 0 1.92-.57t2.28-.81q0-.18-.84-1.02l-1.32-1.32q-.48-.54-.48-.9 0-.42.12-.48l.42.12q.54.24 1.26.36t.84 0q.06-.12.12-.39t.12-.51l.54-5.22q.12-.96.12-3 0-1.2-.12-1.32l-.72.3q-.24.18-.45.27-.21.09-.33.09-.24 0-.54.24l-.42.24-.96.42q-.78.48-1.44.48-.54 0-1.02.24-.24.06-.42.18t-.36.12l-.3.06q-.12.12-.18.12-.3 0-.9.3-.78.3-.96.3-.18 0-.21-.24t.09-.36q.24-.3 1.86-2.82.9-1.68 1.83-3.57t1.29-2.79l.42-1.08q.3-.54.63-1.65.33-1.11.33-1.35-.06-.24-.36-.78t-.48-.72l-.12-.24zm-27.3 3.9q.06-.06.15-.06t.21.12q.42.12.48.06.18 0 .24.18.18.18.3.18.24 0 1.02.3.3.12.63.24t.57.18l.36.12q.18.12 1.62.6.96.24 1.32.87.36.63.42 2.07 0 1.38.06 1.5.06.24-.12.54-.18.06-.18.3 0 .18-.3.48-.24.24-.24.48 0 .12-.24.12t-.66-.18q-.78-.3-1.02-.45-.24-.15-.36-.45-.24-.24-.42-.6l-.6-.78-.72-1.02q-.66-1.08-.78-1.44-.48-.96-.72-1.2-.24-.3-.51-.78-.27-.48-.27-.6 0-.06-.06-.15t-.12-.15q-.06-.12-.12-.27-.06-.15.06-.21zm15.9 6.78q0-.12.21-.15t.63-.03q.78 0 1.2.21.42.21 1.02.81.24.24.48.39.24.15.42.21.36 0 .36.72l-.06 1.38q-.06.24-.6.69-.54.45-1.26.81-.72.36-.96.66-.24.3-.24.96v3.12l-.06 1.68q0 .42.03.54.03.12.21.06t.54-.72q.42-.6.66-.6.24 0 .42.84.24.84.36.96l.24.3q-.06.24-.33.6t-.51.6q-.24.06-.24.3 0 .12-.36.6-.18.12-.3.3t-.12.24q0 .18-.48.54-.96 1.2-1.26 1.86-.36.72-.9 1.38-.42.54-.48.54-.12 0-.3.36l-.18.3-.78.66q-.66.66-.84.66-.3 0-.6.42-.24.24-.42.36t-.54.18q-.36 0-.75-.27t-1.65-1.41q-.9-.78-1.02-.78-.06 0-.21.51t-.21 1.05q0 .24-.09.48t-.15.3q-.06.12-.06.36t-.06.42q-.06 2.64-.24 3.06-.12.24-.12.78 0 .42-.12.66-.12.12-.12.6 0 .24-.18.72-.18.36-.12.9v.36q0 .36-.18.42-.06.06-.12.18t-.12.3q0 .06-.06.15t-.18.15q-.06.24-.24.27-.18.03-.54.03-.36-.06-.78-.06-.12 0-.78-.66-.36-.36-.96-.66-.12 0-.18-.09t0-.15q0-.18-.54-.54-.24-.36-.54-.6 0-.12-.6-.48-.36-.18-.6-.48 0-.06-.3-.24l-.3-.18q0-.24.84-.42.42 0 .96-.84l1.2-1.5q.6-.78.6-.84 0-.06.54-.84.84-1.2 1.5-2.4.84-1.5 1.47-2.82.63-1.32.87-1.98.06-.24.15-.39.09-.15.09-.21.18 0 .36.36.18.18.27.36.09.18.09.54 0 .72-.12.96-.24.66-.3.93t.06.39q.18.36.24.42.12.24.21.21t.33-.27q.36-.36.96-.72.18-.18.63-.57.45-.39 1.05-.93l1.86-1.62q.12-.12.57-.42.45-.3.48-1.41.03-1.11.03-2.91 0-3.84-.06-3.9l-.12-.06-.48.12q-.18.06-.42.06t-.48-.12q-.24-.06-.78-.42l-.72-.54q-.42-.36-.96-.9t-.54-.6q0-.12-.18-.3-.3-.18-.3-.36l.48-.06q.54 0 1.08-.24 2.16-1.02 3.6-1.92l.9-.48q.12 0 .12-.18.18-.18.3-.18.18 0 .51-.36t.27-.48zm9.12 4.56q0-.12.12-.12t1.26.48q.66.36.96.36.12 0 .36.24l.24.12q.24 0 .48.18.06.06.27.21.21.15.39.15.3.12.84.6.12.12.27.36.15.24.18.36t-.03.3q-.12.6-.54.96-.54.54-.9.54-.18 0-.3.12t-.18.12l-.42-.3q-.96-.96-2.07-2.67-1.11-1.71-.93-2.01zm-31.68 2.1l-.06-.06q.3.12 1.11.21t1.89.15l.6.06q.12.12.54.12.42 0 1.2.3.84.3 1.56.48.72 0 1.32.6.12.12.18.12.12.12.36.54.24.42.48 1.02l.96 1.74q.06.12.06 1.68-.12 1.08-.24 1.2-.06.24-.54.75-.48.51-.6.51-.24 0-.42-.18-.06-.06-.96-.66-.6-.36-1.23-.93-.63-.57-.93-1.11l-.66-.96q-.48-.48-.78-.96-.24-.24-.72-1.02-.12-.12-.39-.45t-.51-.51q-.36-.36-.36-.54l-.78-.72q-.36-.36-.57-.63-.21-.27-.33-.39-.06-.06-.09-.18t-.09-.18zm36.48 15.3q.24-.12.72-.12.42 0 .48.12.06.06.15.06t.15-.06q.24 0 .3.24.24.24.36.24.18 0 .18.12.06.06.54.18.36.12.63.36t.27.54q0 .42-.3.9-.18.36-.3.51-.12.15-.36.21-.48.12-1.02.12-.66 0-.72.06-.18.24-2.22.42-.78 0-1.08.18-.24.12-.9.12-.66.06-1.26.18t-.9.24l-.54.06q-.18 0-.66.12-.36.12-.6.12-.3.06-1.11.21t-2.25.51q-.72.18-.96.18-.36 0-.6-.06-1.14-.24-1.86-.6-.72-.36-1.62-1.08l-.42-.24q-.06 0-.15-.09t-.15-.27q-.06-.12 0-.18t.18-.06q.18.06 1.98-.36l1.74-.36 2.1-.48 1.5-.3 1.62-.42q.84-.12 2.04-.36.9-.3 1.44-.3 1.32-.18 1.86-.48.06-.12.66-.12l.48.12q.36 0 .6-.18zm37.2-4.5l.06.18-.06 1.38q0 1.02-.12 2.82-.12 1.8-.24 2.64-.24 2.52-.24 3.84 0 1.68.06 2.52v.18q-.06.12-.06.36 0 .36.3.78l.36.72q.12.18.21.42t.21.42q.66.9 1.44.84.42-.12.48-.42.06-.18.15-.57.09-.39-.03-.75-.06-.06 0-.15t.06-.15q.24-.42.3-.78l.36-1.26v-.06q.18-.18.3-.66.06-.18.06-.42 0-.42.21-.96t.21-.84l.06-.66q0-.36-.18-.72v-.36q.3-.3.3-.9 0-.36-.06-.54-.06-.06-.03-.18t.03-.18l.06-.48q.12-.48.12-.72v-.72q0-.66-.12-1.98v-.96q-.12-.66-.06-.96.12-.48.09-1.14-.03-.66-.03-.96.06-.3.03-.78-.03-.48-.03-.72 0-.66.36-1.02l.9.72q.06.06.66.36.48.36.78.42.3.06.66.03.36-.03.72.03h.12q.66 0 .96-.72.18-.36.18-.6 0-.36-.24-.54-.06-.06-.06-.3-.06-.18-.24-.66-.18-.48-.66-.66-.36-.3-1.98-1.2-.42-.24-1.08-.24-.24 0-.42-.06l.24-.9v-1.86q0-.12.09-.27.09-.15.15-.15.18-.06.45-.21t.45-.21q.3-.12.42-.33.12-.21.18-.63 0-.72-.06-1.08-.18-.48-.39-.87-.21-.39-.33-.69l-.3-.48q-.72-.6-.78-1.08 0-.54.06-.78l.18-.96.24-.96q.12-.96.24-1.44.06-.18.21-.69t-.03-.93l-.06-.24q0-.3.36-.54.06-.12.21-.36t.21-.42q.18-.78-.24-1.68-.42-.9-1.26-1.26-.9-.36-1.5-.78-.6-.3-1.8-1.02l-1.02-.42-.42-.36q0 .96.06 1.32.12.6.27 1.14.15.54.27 1.14.06.66.06 2.1l-.24 5.1q0 .36-.03.81-.03.45.03.99v.18q0 .84-.96 1.08-.3.12-2.04.9-3.9 1.44-4.92 1.86l-2.16.84q-.72.24-1.08.24h-.24q-.24 0-.54.18l-.3.3q-.12.18-.12.42.12.12.3.24t.12.36l.12.18 2.1 1.62q.84.48 1.26.78.48.36.96.36.54 0 1.08-.36.06-.06.24-.06 1.02-.18 1.74-.42.24-.06.72-.21t.78-.39q.18-.12.78-.24.12 0 .18-.06l.12-.12 1.14-.36q.54-.18.3.36l-2.64 4.68q-.72 1.38-2.04 3.24-.72 1.2-1.74 2.52-1.92 2.64-3.42 3.9-1.92 1.8-2.76 2.52-.18.18-.72.75-.54.57-1.14.87-.12.06-.18.18t-.12.18l1.44.18q.18.12.48 0 .84-.18 1.62-.54l.66-.18q.42-.12.54-.3l.54-.24q.78-.36 1.65-1.05.87-.69 1.23-.93.06 0 .09-.03t.09-.03l.6-.66q.3-.3.9-.96.12-.18.27-.48.15-.3.45-.42l.12-.12q.72-.84 1.14-1.56.36-.42.9-1.11.54-.69.9-1.17.42-.54.78-.6zm23.04-15.6q-.12.6-.12.84 0 1.44-.12 2.28v.84q0 .96.66 1.8.18.3.57.81.39.51.69.81.42.42 1.26.78.78.12 1.35.15.57.03.93.03h.6q.96 0 1.62-.3.12-.06.33-.06h.33q.54 0 1.08-.21t.66-.27l.12-.06q.24-.18.9-.18.78 0 1.2-.24.48-.18.9-.66.42-.48.78-.96.12-.3.06-.36-.18-.66-.54-.96-.84-.84-1.32-1.2-.42-.3-.78-.3-.6 0-.96.48-.24.36-.42.36l-1.26.24q-.54.12-1.35.27-.81.15-1.83.27-.36.06-1.08.06-.36 0-.36-.42.24-1.2.3-1.8.12-.24 0-.42-.06-.06-.06-.24t.12-.42q.12-.24.18-.48 0-.06.09-.06t.15-.06q.12-.12.39-.27.27-.15.45-.27.42-.42.72-.54.42-.36.78-.66.36-.3.6-.48.84-.96 2.64-1.86.24-.12.57-.21.33-.09.45-.21.9-.72.9-1.8 0-.78-.36-1.02-.24-.18-.6-.66-.36-.54-1.02-.72l-1.26-.36q-.18 0-.51-.06t-.51-.12l.3.72q.12.18.12.42 0 .18-.36.48l-2.52 2.4-.96.9h-.12q.06-.24.15-.57.09-.33.03-.63v-.12q0-.18.3-.78l.18-.66q.12-.48.42-1.86.06-.18.06-.48-.54-1.44-1.62-1.98-.3-.12-.63-.33-.33-.21-.63-.39-.6-.42-1.02-.48l-1.62-.3q-.06 0-.15.09t-.09.15v.3q0 .48.18.72.12.12.18.51t.12.57q.3.3.42 1.2 0 .18.09.6t.09.72l-.18 2.46q-.12.84-.24 2.28-.18.6-.3 1.26h-.12q-.3-.12-.69-.33-.39-.21-.63-.27-.24-.06-.69-.18-.45-.12-.75-.06-.12.06-.24.03t-.18-.03h-.18q-.24 0-.45.12-.21.12-.33.3-.18.3-.3.36l-.36.18q-1.68.96-2.4 1.32-.12.06-.48.06v-.48l.06-.24q.24-.36.24-.66 0-.84.12-1.2.06-.24.27-.57.21-.33.27-.51.12-.72.12-1.02 0-.24-.24-.6l-.66-.78q-.18-.12-.45-.18t-.39-.06q-.66-.18-1.32-.39-.66-.21-1.2-.57-.3-.18-.84-.72-.12-.06-.21-.12t-.21-.06q-.12.24-.12.3 0 .84.3 2.04.18.48.84 1.26.06.06.3.33t.24.69l-.36 4.2q0 .42-.12.48-.3.12-.15.33.15.21.15.27 0 .06.06.24t0 .24l-.18 2.34q-.18.84-.24 1.5t-.12 1.14q-.12.3-.24.36l-.9.3q.12.12.18.24l.12.24q.36.66 1.26.78.18.06.6.06.9 0 2.7-.6.3-.06.72-.24t.66-.3q.6-.12.78-.3.42-.12.81-.27.39-.15.69-.27 1.08-.18 1.5-1.14.12-.24.12-.54 0-.36-.6-.66-.18-.06-.69-.24t-.93-.18h-.36q-.6 0-.96-.06-.06.24-.12.27-.06.03-.3.03t-.24.12q-.24.36-.6.51-.36.15-.96.27l.12-1.2.3-1.08q.12-.42.36-.48 1.26-.54 2.52-.66.66 0 1.26-.3.54-.18 1.62-.78l1.2-.54.9-.36zm-7.98 28.44l-.3.18q.06.18.24.36l.3.24q.48.54 1.14.54.48-.06 1.44-.06 1.02 0 1.44-.12.24-.06.75-.18t.93-.06q.12 0 .48-.18.48-.12.78-.12h.72q.42 0 .66-.06.3-.06.6-.03t.66-.03h.12q.36 0 .36.54v.66q.12 1.86 1.08 2.52 0 .12.06.18.18.06.36.24l.48.12h.12q.36 0 .78-.21.42-.21.54-.45l.12-.72q.06-.12.15-.33.09-.21.09-.33v-.18q0-.36.3-.96.12-.42.12-1.38 0-.24.09-.63t.03-.75q-.06-.48.09-1.11.15-.63.21-.93l-.06-.48q.06-.36.06-1.08l.06-.24v-1.38q0-.24.06-.57.06-.33-.06-.57 0-.24.06-.3.12-.24.12-.66 0-.36-.12-.96-.12-.42.06-.6.3-.48.3-.84.24-2.28.42-3.36 0-.12.06-.12.24-.24.33-.72.09-.48.21-.66.06-.12.06-.36 0-.48-.36-.96-.06-.18-.3-.36t-.36-.3q-.12-.06-.3-.09t-.3-.09q-1.2-.78-2.1-1.14-.42-.24-.96-.24-.3 0-.9.12-.12 0-.3.09t-.36.09q-.24 0-.42.24-.18.48-.6.3 0-.6.12-.96l.06-.18q0-.24-.3-.66-.18-.18-.39-.45-.21-.27-.33-.33-.54-.24-2.28-.78-.06-.06-.66-.24-.78.96-1.56 2.28-.78 1.32-1.44 2.52l-.72 1.32-.96-.24q-.3-.06-.93-.36-.63-.3-1.29-.12l.18.78q.12.12.12.3 0 .6.42.96.48.48.72 1.02.12.42.12 1.32-.12 3.36-.12 4.98-.06.48-.03.96t-.03.96q-.3 1.56-.3 3.9 0 .54.36 1.5zm10.38-13.38v3.24l-.18-.06q-.36-.48-.87-.63-.51-.15-1.02-.18t-.69-.03q-.9-.12-1.89.27-.99.39-1.23.45l-.3.12q-.18 0-.18-.48-.12-.6-.12-.9l.18-1.02q0-.12.06-.3t.06-.36q-.18-.54-.18-1.08 0-.24.18-.3.18-.12.54-.24.36-.12.6-.3.48-.24 1.38-.3.9-.06 1.26-.18l1.2-.12.54-.18q.12-.06.3-.06.42 0 .3.42-.06.24-.06.6 0 .42.06.81.06.39.06.81zm-6.9 11.76h-.18v-1.32q.24-.36.24-1.08 0-.72.12-1.08v-.06q0-.18-.06-.39-.06-.21-.06-.33-.06-.18-.03-.3t.27-.18q.3-.12.6-.27.3-.15.6-.27 1.02-.54 2.34-.54.18 0 .3-.06.42-.18 1.02-.42.6-.24.96-.42.24-.12.72-.72.06.18.06.42-.12 1.92-.12 3.06-.12 1.56-.12 2.22-.06.24-.36.3-1.14.12-1.98.27-.84.15-1.44.27-.3.06-.72.21t-.72.21l-.72.24-.72.24z"/></svg>