<svg viewBox="0 0 339 80" xmlns="http://www.w3.org/2000/svg"><path d="M34.3 24.86q.06 0 .15.09t.21.09q.42.12.72 0 1.14-.24 2.82-.66l.18-.06q.3-.24.75-.57.45-.33.69-.63.72-.6.72-1.02 0-.36-.12-.54-.12-.18-.48-.24-.3-.06-.96-.06-.48 0-.72.06-.12.06-1.14.18l-.42-.12q-.42-.3-.75-.57-.33-.27-.63-.51l-.24-.06v.18q0 .12.06.21t.12.15l-.18.18q.12.18.06.36t-.06.24v.24q0 .42.48 1.26l.6.78q-.66.3-1.86 1.02zm-3.78 31.38q.6-.12 1.14-.66l2.1-1.98q.3-.3.9-1.02l1.38-1.56.87-.87q.51-.51.87-.81.48-.54 1.56-1.08l1.14-.48.12.06q.12.12.3.33.18.21.36.45.24.24.72.24.24 0 .3-.06.12-.06.33-.18.21-.12.45-.24l.24.06q.12-.24.36-.24.06-.12.3-.12.12-.06.21-.18t.15-.12h.12q.12 0 .24-.09t.18-.15q.3-.12.57-.45.27-.33.51-.51.3-.12.6-.72l.9-1.74q.18-.36.48-1.32.12-.36.24-1.08.24-1.26.3-1.74.06-.06 0-.18-.24 0-.24-.3v-.12q0-.24-.24-.48l-.66-.6q-.06-.06-.96-.78-.18-.18-.36-.27-.18-.09-.36-.21-1.14-.6-1.56-.72l-.24-.12q-.06-.18-.3-.18-.36 0-1.56.3-1.32.42-2.22.78-.42-.72-.48-.84-.06-.06-.03-.15t.03-.15q0-.12-.12-.18l-.3-.45q-.18-.27-.48-.57-.12-.12-.06-.21t.24-.15q.3-.12.63-.33.33-.21.63-.33.12-.06.57-.33.45-.27.99-.15.3-.12.66-.21.36-.09.72-.27.36-.12.63-.27.27-.15.57-.21.48-.18.9-.48l.24-.12 1.38-.6q.36-.18.93-.39.57-.21 1.23-.57.06-.06.21-.12t.33-.06q.66-.12 1.08-.36.3-.12.33-.21.03-.09-.15-.39v-.06q0-.06-.03-.09t.03-.03q.06-.3-.18-.48-.72-.84-1.74-1.56-.18-.12-.57-.36-.39-.24-.69-.36-.18-.06-.51-.18t-.39-.36l-.18-.06q-.36-.06-.9-.06-.9 0-2.7.6-3.12.96-5.28 1.68-.66.18-1.53.57-.87.39-1.41.57l-2.04.9-.96.36q-.54.06-1.08.3l-.6.3-.03-.03-.03-.03q.42-.84.66-1.56.42-.72.48-1.26.06-.24.06-.72l-.06-.48-.18.06-2.16 2.52-1.08 1.38-.54.9q-.84 1.56-.96 2.4-.12.36-.24.54-.06.12-.03.3t.03.3q.12.06.12.36 0 .36.06.6 0 .06.18.18.12.12.27.21.15.09.27.21.06.06.27.24.21.18.51.24.18-.18.3-.24t.42.12l.12-.12q.06-.06.06-.12l.24-.78q.12-.84.24-1.2.12-.48.36-1.05.24-.57.36-.81.24-.6.48-.9.42-.42.6-.48h.3q.54 0 .84.06.48.12.66.12.72 0 1.14-.06.66-.12.96-.48.06-.06.42-.24l2.52-.78 2.22-.72 2.82-.96 1.98-.6q.36-.06.48.06l1.8 1.38q.12.12 0 .24l-.6.48-1.86 1.2-1.2.9q-.6-.3-.78-.48l-.18-.06q-.18-.06 0-.24-.12 0-.54-.03-.42-.03-.54-.39-.06 0-.12-.03t-.12.03q-.6 0-1.08.18-.3.12-.57.24-.27.12-.57.24-.78.36-4.02 1.68l-1.8.78q-.06.06-.15.06t-.15-.06q-.24-.06-.36-.3 0-.06.18-.24-.12 0-.24.06t-.24.06q-.18.06-.21.15t.03.21q.18.18.18.24-.06.06-.15.06t-.15.06v.18l.24.3h.12q.3 0 .6.42.24.3 1.08.42h1.08l.06.12q-.36.24-.84.72.12-.06.39-.09t.45-.09l2.16-.96q.18-.06.3-.03t.12.21v.48L36.94 38q0 .24-.3.3l-2.76 1.2-1.56.66q0-.12-.18-.12-.06-.12-.54-.6-.24-.24.06-.54.06-.18.06-.48-.06-.12-.3-.54-.78.78-.9.96-.18.18-.27.54-.09.36-.15.48-.24.96-.24 1.44.12 1.56.24 2.22.3 1.5.96 2.7.06.06.33.42t.69.54q.12.06.84.48l.48.24h.12q.54 0 .6-.18.18-.24.18-.84 0-.18-.3-.78-.12-.12-.12-.3.9.12 2.22-.42v.18l.12 1.14q.06.18-.03.3t-.27.18l-1.62.66-.9.36q0-.12-.12-.24-.06.18-.48.27-.42.09-.48.33.48.24.6.36t.27.36q.15.24.33.36.12.06.21.12t.21.06l.42.12q-.06.06-.06.12t-.12.12l-.42.36-1.02 1.02q-.72.6-2.28 1.98-.12.12-.33.24-.21.12-.33.24-.18.06-.3.18l-.18.78.06.42q.24.36.24.54.18.36.18.42l.6-.36.12.24zM19.3 29.3q.06.18.12.57.06.39.3.69.06.12.18.21t.18.27q.06.12.12.36t.24.42l.06.06q0 .06.18.24l.18.12q.6.36.84.3l.48-.12q0-.12.27-.21t.45-.03l-.18.78q-.06.3-.3.78-.12.42-.3.72l.42-.42q.66-.48.9-.78l.78-1.14q.12-.18.33-.39.21-.21.39-.45.06-.18.3-.48t.18-.66l.12-.06q.24-.24-.06-.6t-.24-.78q.12-.36-.24-.36-.24 0-.36-.06-.3-.24-.96-.24-.12 0-.3.03t-.42-.03q-.42 0-.84.18t-.6.24l-1.08.54q-.12.06-.27.03-.15-.03-.27-.15-.9-.72-.84-.66l.06.24q.18.72.18.84zm1.26 12.42q0 .12-.03.24t-.09.18q-.06.06-.06.18 0 .18.36.42.42.24.66 0 .18-.18.39-.51.21-.33.33-.51l.54-.84.72-.84q.18-.18-.06-.3-.36-.3-.06-.42.18-.12.21-.24t-.21-.36q-.06-.18 0-.54 0-.06.09-.12t.09-.12l-.84-.54q-.06-.06-.15-.12t-.15-.06q-1.44 0-2.28.42l-2.58 1.02q-.24.12-.42.12-.48 0-1.02-.54l-.54-.66v.3q0 .54.24.84.48.6.54.9.06.48.54.84.6.48 1.8 1.02.96.36 1.38.36.12 0 .6-.12zm19.5-.84q0-.84.06-1.2 0-.12.06-.18t.12-.06l1.74-.66q.72-.36 1.14-.48l1.14-.54h.12q.42.3.36.54-.12.42-.18.87t-.18.87q-.12.48-.12.66l-.24.18-.18-.06q-.06-.24-.3-.33-.24-.09-.42-.12t-.24-.03q-.54 0-1.5.24-.36.06-1.38.3zm-12.96.78l-1.8 3.18q-1.08 1.86-2.4 3.48l-1.74 2.22q-.36.48-.78.72-.24.24-.54 0l-.54-.36v.24q0 .18-.42.42-.24.12-.36.24-.24.18-.24.3t.36.42q.3.18.3.42.12.3.42.63t.54.39q.36.12.54.3.24.3.63.54.39.24.63.36.36.18.78.18.18 0 .66-.12l.36-.36.12-.24.24-.12q.54-.66.9-1.44l.66-2.16q.06-.06.18-.6.06-.18.03-.3t-.03-.24q0-.06.06-.12t.06-.18l.42-1.26v-.48q0-.24.15-.69.15-.45.21-.75.72-2.28 1.02-3.48.12-.36.39-1.02t.27-1.2v-.18l.06-.66-1.14 1.92zm9.48-.78l-.06.84q0 .24-.06.3-.18.18-.24.18l-2.7 1.26-.12.06-.54-1.74 1.02.06q.48-.12.78-.24.3-.06.72-.24t.72-.3l.48-.18zm7.14 1.62l-.54 1.32-.9 1.5q0 .12-.12.12h-.36q-.24-.12-.48-.18t-.54.06l-.3-.06h-.3q-.12 0-.36-.12l-.18.09q-.06.03-.12.03l-.12-.12q-.06-.06-.06-.12 0-.48.12-.6.18-.3.54-.3 1.14-.3 1.86-.9.84-.66 1.86-.72zm4.98 13.38q0-.18.12-.24 0-.12.24-.33.24-.21.24-.39l.12-.12.18-.18q0-.78-.06-1.2 0-.06-.24-.3-.06-.06-.15-.27-.09-.21-.27-.27-.24-.3-.78-.54l-1.92-.78q-.36-.12-1.11-.39-.75-.27-1.41-.33l-1.74-.18 1.02.42q1.08.72 1.26.96.18.12.9.84l.6.66q.24.42.3.84t.06.54q.06.12.18 1.26.06.18.21.6t-.03.72q-.06.06 0 .09t.12.03q.18.06.3-.06.48-.48.54-.6.24-.42.72-.66.12-.12.48-.24.06 0 .12.12zm31.38-26.76h-.06q.12.24.36.78v.24q-.12.12-.12.33v.27l-.12.48v.12q0 .3.3.42.24 0 .3.18t.06.24q.24.42.6.54.42.12.81.24.39.12.69.18.36.12.48.12l.96-.24v.06q-.9 1.14-2.04 2.22l.42-.18q.6-.24.96-.48.36-.12.42-.18.36-.24.54-.42.24-.24.51-.48t.57-.54l.48-.24q.06-.06.21-.27.15-.21.39-.33l.3-.3.78-.42q.12-.06 1.2-.84.36-.12.54-.24l2.16-1.56 1.62-.9q.12-.06.24-.18t.3-.24q.48-.3.72-.6.06-.06.24-.36t.18-.66q0-.42-.36-.72-.12-.12-.12-.24-.06-.12-.24-.6L94 24.2q-.12-.06-.3-.06h-.72q-.06 0-.3.03t-.36-.15l-.18.06-.18.06q-.36.12-.42.18-.12.06-.3.18t-.24.36h-.06q-.72.3-1.92 1.02-.9.54-2.7 1.5-.42.24-.81.48-.39.24-.81.48l-1.8 1.14-.6.36q-.18.18-.18 0-.3-.66-1.26-.96l-.54-.12q.12.36.12.42l-.06.06q-.12-.12-.3-.12zm10.2 9.48l.24-.12.24-.12q.12-.06.24-.06.48-.36 1.26-.66l.96-.48.84-.42q.84-.3 1.26-.6.48-.18.81-.36.33-.18.63-.3.36-.18 1.32-.54.36-.24.63-.36t.45-.18q.42-.12.6-.3.42-.12.48-.3.06-.24.36-.45.3-.21.42-.33.36-.36.42-.6.18-.3.24-.72 0-.12-.06-.18-.12-.3-.6-.78-.18-.18-.24-.36-.06-.06-.15-.12t-.21-.06q-.18 0-.36-.18-.12-.06-.42-.06-.48-.12-.84-.06-.12 0-.36.12-.12.12-.36.24l-.18.06q-.18.18-.72.66l-1.5.6q-.36.18-1.11.54-.75.36-1.23.66-.3.06-.45.15-.15.09-.27.15-.36.24-.66.33-.3.09-.48.21l-3.12 1.44-4.02 1.92q-.48.24-1.44.84l-1.5.84q-1.62.9-2.76 1.62-.36.18-.78.42l-.42.18-.06-.06q.12-.12.18-.12.18-.18 0-.3-.12-.06-.12-.24v-.24l-.48.42-.66.36q-.12.06-.6.24-.48.06-.78.54-.24.3-.06.72l.06.12v.72l.03.03.03.03q.24.06.42.27.18.21.3.27.06.06.24.21t.42.15q.3 0 .6.36l.03.03.03.03.9.18q.18.06.36 0l2.58-1.08 2.22-1.2q.48-.3 1.11-.63.63-.33 1.35-.75l.6-.3q.18-.12.42-.24t.42-.24l.9-.42v.24l.42 1.62q.06.24.15.45.09.21.15.45l.18 1.38.24 2.46.12 1.92q0 2.4-.12 3.54 0 .24-.24.24-.96-.18-1.62-.48-1.02-.72-1.44-.96l-1.68-1.44q-.3-.18-.54-.36-.24-.18-.42-.3-.36-.24-.12-.54l.42-.36 1.2-1.14q.42-.36.18-.78-.54.3-.84.42l-1.5.84-.96.54q-.72.3-1.32.48l-.54.06h-.18q-.18 0-.24-.18 0-.72.24-.96v-.3l.06-.36q0-.12-.12-.12-.42-.12-.6.06 0 .06-.36.42-.36.24-.96.84-.3.3-.48.3h-.18q-.24.12-.42.42t-.18.6q0 .36-.24.48-.36.24-.24.54v.18q0 .12-.06.36t0 .42q0 .06.03.15t.15.21q.12.12.12.36.06.18.12.54.06.36.3.6.12.48.48.54.12.06.42.06.06 0 .42-.12.3 0 1.14-.24.3-.18.24-.42 0-.18.06-.24.06-.18.36-.48.06-.06.21-.15t.27-.27l.48-.6.84-.9.24-.24q.24-.42.48-.54l.24-.24q.12.24.18.24v.12q.48.6.66.9 0 .12.12.24l.66.66 2.16 2.04q.18.18.42.48t.48.48q.84.84 1.56 1.74.06 0 .06.03v.09q.06.24.36.36t.54 0q.06 0 .3-.12t.6 0q.06.06.18.06t.18-.06q.66-.36.78-.72 0-.06.03-.09l.09-.09q.18-.18.18-.24.06-.12.3-.12h.18q.06-.06.15-.27.09-.21.21-.27.18-.12.24-.42l.18-.72q.12 0 .12-.18l.24-.96.06-.54v-.33q0-.21.06-.27v-2.82q0-.36-.12-1.08 0-.18-.09-.39-.09-.21-.09-.45 0-.3-.09-.69-.09-.39-.03-.69v-.12q-.12-.54-.3-1.02l-.18-.96-.18-.18q0-.06-.12-.18-.06-.54-.54-1.5l-.36-.54-.24-.36q-.06-.48-.6-.9-.12-.06-.3-.3zm12.78 10.44q-.06-.3-.18-.78-.12-.48-.3-.84-.12-.24-.54-.84-.36-.66-.84-.96l-.36-.24q-.84-.6-1.44-.72-.36-.06-.69-.15-.33-.09-.63-.15-.06-.06-.18-.03t-.18.09q-.12.12-.42.24-.12.06-.06.12l.24.36.24.36q0 .12.12.12l.9 2.34q.06.18.12.42l.12.48q.12.48.24 1.68.06.24.06.72v.42l.18.6q.06.06.06.15t.06.15q.18.12.18.6l.06.24.18.18q.12.12.24.06.3-.18.54-.24.24-.06.36-.12.12 0 .12-.12.06-.12.24-.27.18-.15.24-.27.3-.18.3-.42v-.12q0-.18.15-.36t.21-.36l.42-1.14q.06-.18.06-.6 0-.18.09-.36t.09-.24zm33.54-16.38q.12-.24.48-.12h1.5l.12.06q.18.18.78.3.54.18.66.48l-.12.36-.06.24-.06.06q-.3.12-.33.36-.03.24-.03.3l.06 1.14q0 .3-.06.51-.06.21-.06.45l.06.72q.06.18.06.54-.06.24-.03.39.03.15.03.21.24-.12.3-.24.3-.42.51-.75.21-.33.39-.57.06-.06.84-1.02.12-.18.18-.18v.12l-.36.66q-.06.06-.24.42l-.42.9q-.12.24-.21.51t-.21.51q0 .06-.18.42-.18.18-.18.42l-.24.48q-.06.24-.3.72v.3q.42.24.84.36.48.24.72.24l.48-.12q.12-.06 1.14-.54.54-.36 1.02-.84 1.02-.72 1.86-1.56-1.2-.3-2.34-.99t-1.38-.87l.12-.06 2.1-.06q1.5 0 2.94.18.18 0 .24-.12l.54-.6.9-1.38q.18-.24.42-.84.06-.12-.12-.42-.18-.66-.6-1.44-.36.24-.48.24l-.66.36h-.6q-.06 0-.21-.03t-.27.03q-.78 0-1.5-.18h-.24q-.18 0-.36.3-.06.3-.36.9-.06.06-.15.27-.09.21-.27.27-.06 0 0 .09t0 .15l-.12.24-.36-.18q-.6-.48-.78-1.08l-.12-.24q.24-.24.06-.6-.06-.12 0-.3t.18-.24l.12-.18.96-4.38q.18-.84.66-2.52.24-1.02.3-1.38.06-.12 0-.24t-.24-.18q-.42-.24-.42-.48-.18-.48-.78-.24l-.06-.24q0-.24.36-.48.36-.12.54-.12.3 0 .9.12.3 0 .48.06l.6.12q.36.18.63.33.27.15.51.27.72.3.42 1.08l-.18.42-.54 2.16-.84 2.82-.3 1.08-.18.54v.06l.48-.18q.6-.3 1.8-1.02l2.82-1.5q.12-.12.78-.42.18-.18.06-.24 0-.24.3-.24t.42-.24q.06-.18.42-.42.3-.12.42.18.3.36.72.24.54 0 .9.36h.06v.06q0 .12.12.33.12.21 0 .39-.36.72-.6 1.08-.12.12-.42.24-.3.18-.9.42l-1.8 1.02-1.14.66q-.06.06-.06.3l.48.78.18.42q.18.18.36.48t.42.42q.06.06.15.21t.27.27l.06.18-.06.24q.06.06.06.18 0 .18-.15.36t-.21.24q-.42 1.26-1.08 1.98l1.02.42q.42.24.9.39.48.15.9.39.18.06.63.27.45.21.75.57.06.06.12.06t.12.12q.48.3.3.66-.06.24-.03.42t.03.36q-.06 0 .06.12l.06.42q-.06.12-.06.27 0 .15-.12.33l-.15.3q-.09.18-.21.36h-.12l-.54-.06h-.54q-.18-.12-.6-.12-.36 0-1.08.12h-1.8q-.12 0-.18-.06t-.12-.06l-.12-.12q-.3 0-.9-.12-.24 0-1.08-.12l.84-.36q.72-.3 2.28-.78.54-.18.66-.24l-.42-.3q-.06 0-2.22-1.02-.12-.18-.36.06t-1.32 1.08q-.12.18-.9.6-.36.18-.78.33-.42.15-.84.33-.48.18-.72.42-.12.06-.72.3t-1.2.24l-.36.06q-.18 0-.39-.15-.21-.15-.27-.33-.12 0-.27-.21-.15-.21-.45-.45l-.12-.18v.06l-.18.78h-.06l-.24.12q-.12.06-.3.12-.12 0-.12.06-.18.3-.24.36t-.18.09q-.12.03-.24-.03-.3-.06-.78-.3-.18-.06-.3-.21t-.18-.21q-.06-.06-.09-.15t-.09-.15q-.06-.06 0-.12l.03-.03.03-.03v-.18q0-.18.12-.66.06-.36.03-.63t-.03-.45l.06-.24q.12-1.32.12-1.92.12-1.32.12-1.86 0-.3.06-.54.06-.24.06-.54l.12-.9q0-.24.12-.84-.06-.06-.03-.15t-.03-.15q-.12-.12-.27-.15-.15-.03-.27-.09-.36-.18-.3-.3l.06-.12zm-2.94 2.16q0 .12.06.12.12-.12.18-.12l-.12.84q-.18.6-.12 1.08l.06 2.4v.66q0 1.02-.06 1.56 0 .72.06 1.14 0 .24-.06.51t-.12.45q-.36.72-.48 1.08 0 .06-.03.09t-.09.03q-.18.06-.33.3-.15.24-.21.36-.12.24-.42.12-.54-.3-.78-.96-.18-.36-.24-.63t-.12-.45l-.06-.18q-.36-.36-.12-.84.18-.54.21-1.23t.03-.99q.12-.78.12-2.34.06-.42.03-.78-.03-.36.03-.78 0-.3.12-1.02V33.8l-.12-.36q-.48.6-.54.72l-1.08 1.2-.84 1.26-.6.84-.6.66-.48.42q-.24.24-.54.12l-.48.12-.6.54-.66.36q-.24 0-.3-.12-.3-.3-.3-.78 0-.42.12-1.26 0-.06.12-.42l.12-.36q.06 0 .21-.12t.15-.24q.06-.24.27-.45.21-.21.27-.33.3-.42 1.56-2.16l2.1-2.94 2.28-3.12 1.32-1.74.84-1.26q.06-.18-.06-.42-.12-.6-.36-1.02-.06-.12-.6-.84h.54q.78 0 1.08.18l.24.06q.24.18.96.48.48.24.78.78.12.3.54.78.12 0 .12.12.24.72.24 1.14l-.18.9q-.06.12-.42.36-.18.18-.42.39-.24.21-.36.39-.18.18-.39.48-.21.3-.33.48l-1.08 1.38-.12.12q-.06.06-.06.12l-1.44 1.86.12.12q.42.36.72.84.06.12.6.66.12.12.12.3.06.3.03.48t-.03.3zm29.04 11.82q.36.42.36 1.14v.36l-.3 1.02q-.06.12-.06.36 0 .3-.3.3-.12.06-.42.48-.12.36-.36.42-.24.12-.33.42-.09.3-.15.36-.06.18-.3.12l-.06.3-.06-.12h-.18q-.18 0-.33-.21-.15-.21-.27-.33l-.36-.36q-.06-.12-.12-.36t-.18-.36q-.18-.24-.21-.63t-.09-.63q0-.24-.06-.36l-.36-.66q.36-.48.36-1.32 0-.9-.36-1.68.12 0 .27.06.15.06.27.06.18 0 .27-.06.09-.06.21-.06.3 0 .66.12 1.14.42 1.56.78.54.24.9.84zm-7.32 6.66q-.24.24-.09.42t.15.24q.18.48.12.78 0 .24-.12.48-.12.36-.48.42-.36 0-.06.24-1.74 1.26-3.48 1.92v-.12l-.78.24-.54.18q-.36.12-.66.12-.3 0-.9.12-.36.18-.84.18h-.12q0 .3-.42.3h-1.08q.12-.12.12-.18h-.72q-1.32-.12-1.98-.24-.84-.12-1.74-.48t-1.74-.78q-1.74-.9-2.52-1.92-.18-.12-.45-.39t-.45-.51q-.12-.12-.3-.45t-.3-.51q-.36-.36-.6-1.02t-.36-.96q-.12-.24-.27-.6-.15-.36-.27-.78v-.12q0-.3.12-.78h.06l.06.24q.24.66.36.78.72.9 1.2 1.26.96.84 1.44 1.2.36.3.69.54.33.24.57.48 2.46 1.62 5.34 1.62.96 0 2.76-.24.78-.12 2.34-.84.54-.24 1.62-.84.24-.12.36-.24l-.18-.54q-.06-.12-.48-.84l-.84-1.14q-.24-.36-.6-.6 0-.06-.12-.18 0-.06-.06-.15t-.18-.09q-.12 0-.12-.12-.12-.3-.42-.6t-.42-.48q-.18-.18-.27-.18-.09 0-.33.18-.24.24-.51.42t-.51.42q-.54.54-.66.96-.18.36-.18.48-.18.18-.12.24l.06.18q0 .12-.15.24t-.21.18q-.18.12-.66.12-.54 0-.99-.21-.45-.21-1.05-.63-.12-.06-.21-.12t-.27-.06q-.24-.12-.42-.45t-.18-.63v-.12q0-.18-.24-.54-.54-.66-.48-1.08l.06-.6q0-.18-.12-.42-.06-.12-.03-.21t.21-.15q.3.66 1.02 1.14l.72.66q.18.18.42.06l1.08-.6q1.02-.6 1.74-.9h.12q-.18-.12-.39-.21-.21-.09-.45-.27v-.06q.18.06.42.12t.42.18q.24.18.66.06.9-.24 2.82-.6.96-.12 1.56-.12 1.08-.24 1.68-.3.24-.06.84-.06-.12.12-.18.12-.3.18-.57.3-.27.12-.57.3-.48.3-1.23.6t-1.29.54q-.12.06-.21.15t-.21.15q-.12.12 0 .36.36.18.6.54.24.3.78.42.3.12.51.39.21.27.27.33.6.84 1.32 1.44l.9.72q.3.3.78.12.3.42 1.02 1.26.06 0 .06.03v.09zm-22.98-6.36q.18 0 .18-.12.06 0 .3-.12v.12l-.24.6q-.06.24-.15.66-.09.42-.09.66-.18.96-.66 1.5l-.36.78q-.18.36-.66 1.08-.3.36-.66 1.08-.12.36-.42.81l-.42.63q-.06.06-.06.18-.06.12-.15.18t-.15.12q-.24 0-.48.24-.24.12-.42.54-.06.06-.18.03t-.24-.15q-.6-.66-.6-2.04 0-.18-.12-.42v-.12q.06-.18.09-.48t.21-.48l.36-.6.72-.78q1.08-1.2 1.56-1.86l.66-.72.12-.12q.48-.06.78-.6l.36-.24.06-.06q.12-.24.33-.27.21-.03.33-.03zm18.9 11.58l-.06-.12q.96-.24 1.44-.42v.06l-1.38.48zm26.58-9.9q0 .06-.06.06.48.36.78.42.3.06.96.06.48 0 .66-.06.18-.06.39-.12.21-.06.51-.06 1.02 0 2.1-.6l.66-.33q.3-.15.6-.27 1.14-.6 2.58-1.98.18-.18.39-.45.21-.27.33-.45.42-.48 1.14-1.44l.84-1.32.84-1.26q.36-.54.66-.96.3-.42.54-.78l.48-.78q.18-.3.39-.75.21-.45.45-.69.18-.24.42-.66.24-.42.42-.66.18-.18.36-.48t.3-.48l.6-1.38q.18-.3.27-.57.09-.27.21-.45.06-.18.18-.3.42-.54.06-.9l-.42-.48q.42.12 1.14.48.6.18 1.8.66.18.06.12.24l-.48 1.26q-.12.36-.84 2.4-.18.42-.36 1.05l-.3 1.05q-.12.24-.3.36-.96.48-1.38.78h-.3q-.36-.12-.54-.24-.72-.24-1.14-.24l.24.24q.36.24.36.48.12.48.24.54.06 0 .03.03t-.03.09q.06.18.48.48.6.3 1.14.3v.12l-.72 1.62-.72 1.38q-1.08 2.34-1.44 2.94-.24.78-.96.78l-.66 1.02q.84-.24 1.08-.48l1.08-.9q.18-.18.42-.36t.48-.42q.6-.42 1.14-1.14 1.26-1.14 1.68-1.8 1.32-1.8 2.16-3.48 0-.3.3-.48.12-.12.33-.24.21-.12.33-.24.42-.24.9-.48.48-.24 1.02-.54 2.52-1.44 2.64-1.5.42-.3.75-.48t.63-.36q.12-.06.24-.18t.3-.24l.42-.3q.42-.12.54-.48.06-.06.06-.18.3-.12.54-.72.06-.06 0-.18t-.12-.12q-.48-.24-.72-.24-.3-.12-.3-.24h-1.2q-.18 0-.36-.06t-.36-.06q-1.44-.18-3.12-.66-.12-.12-.12-.18 0-.36.24-.84.12-.84.24-1.2 0-.12.03-.48t.27-.6l.06-.12q-.3-.48-.36-.48-.3-.3-.66-.48-1.2-.48-1.38-.54l-1.98-.78q-.42-.12-.66.06-.12.06-.15.33t.09.39l.42.48 1.32 1.02q.24.12.24.42-.06.24-.06.72-.06.12-.36 1.38-.24-.06-.51-.12t-.51-.18q-.54-.12-2.04-.42l-.96-.18q-.12 0-.3-.18l-.06-.12q0-.24-.36-.42-.36-.12-.6-.24-.9-.12-1.26-.06-.54.18-1.5.66l-1.08.54q.12-.42.24-.54l1.32-2.1q.12-.12.18-.36t.12-.36q.24-.3.33-.66.09-.36.15-.48.12-.12 0-.12-.12-.48-.48-.6l-.12-.06q-.18-.42-.54-.48-.24-.06-.48-.27-.24-.21-.36-.27l-.03-.03-.03-.03-.54-.18-.66-.24h-.3q-.18 0-.24-.18 0 .12-.03.27-.03.15.03.27l.48.6q.18.24.36.36t.3.24q.18.3.06.48l-.72 1.08q-.3.54-.57.96-.27.42-.51.78-.3.36-.63.93-.33.57-.57.93-.66 1.26-1.44 2.28 0 .06-.09.15l-.15.15-1.02.36q-.12.12-.18.27-.06.15 0 .21.24.3 0 .6-.24.42 0 .48.42.18.3.72l.12.12q.12.36.42.3h1.02q.18 0 .51-.12t.63-.18l.03-.03.03-.03q.06-.24.15-.39.09-.15.15-.27.06-.06.12-.18t.12-.18q.42-.42.9-.66 1.32-.96 2.4-1.56.6-.36 1.8-.96h.24v.18l-.24.48q-.36.48-.84 1.44-1.32 1.92-1.92 2.88-.78 1.32-.9 1.5l-.3-.06q-.9-.3-1.14-.3-.06-.06-.96-.18l-1.68-.36q-1.32-.12-1.98-.12l-.36.06v.06q.36.12.6.24.12.06.36.15t.42.27q.36.18.78.54.42.36.66.54l.42.3-.06.06h-.12l.24.3q.12.48.42.48.24-.06.45-.03.21.03.39-.03.3-.18.48 0l-.12.24q-.6.9-1.5 2.04-.12.3-.42.12l-1.62-.48q-.18-.06-.36-.18t-.42-.24l-.96-.72h-.12q-.12 0-.48-.12v.06q0 .06.06.24t-.24.3q.12.42.36.66.06.18.78 1.14.24.3.84.78.3.3.66.3.24 0 .48-.18h.24q-.78.96-.9 1.14l-.54.48q-.42.6-.96 1.14l-1.44 1.38q-.06.06-.3.24t-.54.24q-.48 0-.96-.18l-.66-.36q-.06-.06-.18-.03t-.12.15q-.12.42 0 .66.06.06.03.15l-.03.09zm28.5-20.7q.12.3.36.42.42.24.48.63t.06.45l-.06.42q.12.12.21.3t.21.24v.06q.18.18.3.36t.3.36q.18.18.42 0l.3-.54q.06-.06.12-.18t.18-.18q.42-.12.48-.42.06-.12.06-.42 0-.36-.24-.6-.12-.12-.12-.3 0-.12-.15-.3t-.21-.3q-.36-.18-.42-.24-.06 0-.09-.06t-.09-.06l-1.5-.18q-.18-.06-.24.03t0 .21q0 .18-.12.18l-.24.12zm-6.06 7.62q.36-1.2 1.02-2.64.6.36 1.92 1.02l-2.88 1.68-.03-.03-.03-.03zm-.96 5.4l.48.3q.24.18.54.42.3.24.78.54.3.24.72.6t1.02.78q2.1 1.68 3.54 3.3.48.6.48.66l.6.54.36.12q.18 0 .42-.03t.42.03q.12 0 .12-.06.06-.06.21-.15t.09-.27v-.12q.3-.54.3-.66l.06-.12q.18-.18.54-.66.06-.06.03-.12t-.03-.12l-.42-.72q-.36-.48-.6-.66-1.2-.96-1.8-1.38l-1.68-1.08q-2.76-1.26-4.86-1.56-.72-.12-1.2-.12t-.78.06q.3.12.9.48h-.24zm13.14 12.54q.18.36.06.96v.12q0 .36-.3.66 0 .18-.09.36t-.09.24q0 .24-.3.42-.24.12-.36.24t-.3 0l-.42-.3q-.12-.12-.36-.21t-.36-.15q-.18-.12-.24-.18-.06-.24-.3-.72 0-.12-.06-.33-.06-.21 0-.33.06-.06-.03-.15t-.09-.15q0-.06-.06-.09t.06-.15v-.12q-.06-.18-.15-.6t-.27-.72q-.12-.48-.54-1.02-.42-.54-.54-.72l-1.32-1.56-.48-.36q-.06 0-.18-.3h.06q.18.24.57.27.39.03.63.15.12.06.33.15.21.09.45.09.36.12 1.38.72l.84.54q.66.54 1.44 1.08l.48.78q.36.66.54 1.38zm-11.82-3.66q-.18.12-.06.36.18.12.06.24-.72.66-.54 1.26l-.06.24q0 .06-.03.15t-.09.09l-.36-.12q-.48-.3-.78-.24l-.3-.24-.6-1.02v-.3q0-.3-.48-.66l-.06-.06q.36.18.9.36t.84.36l.3.06q.6-.18.9-.42l.3-.06h.06zm-7.5 1.26q.78.3 1.08.96.24.3.24.72 0 .3-.18.66-.06.24-.48.24-.24-.06-.63-.24t-.69-.24q-.12 0-.24-.24l-.48-.54q-.18-.3-.06-.78l-.24-.84q-.12 0-.12-.12h.06q.24.12.84.12l.9.3zm-7.32.24l.3.36q.06 0 .06.06t-.06.06q-.18.48-.42.9 0 .12-.06.21t-.12.15l-.78 1.56q-.18.18-.18.3 0 .54.3.84.3.12.18.24-.06.12-.21.12h-.21q-.6 0-.9.24h-.12q-.36 0-.6.06-.12-.06-.48-.06-.72-.12-.96-.24-.12 0-.3-.18-.42-.24-.78-.6-.12-.06-.06-.24t.06-.3q.12-.24.3-.81.18-.57.48-.99l.3-.84q.06-.12.42-.78.06-.06.06-.18.48.12.66.24.24.24.42.6l.18.54q.24.18.36.48.36-.3.96-.87.6-.57 1.2-.87zm60.48-24l.72-.12q.36.12.69.27.33.15.63.21.18.06.18.24l-.06.72v2.64l-.06 1.8.06 2.58v3l-.06 1.5q.06.9.06 2.76 0 .42.03 1.05.03.63-.03 1.47l.06 1.14q0 .48-.18 1.14.06.06.06.18 0 .48-.27.78-.27.3-.63.36l-1.2.06q-.6 0-1.68-.12-1.08-.18-1.86-.48l-1.38-.6-.48-.18-1.5-1.02q-.06 0-.12-.03t-.06.03q-.18.18-.12.36l.3.6q.12.12.3.33.18.21.42.45l1.32 1.2.42.48q.24.24.36.3.36.24 1.08.6.3.12.3.54l.6.3.18.06q0 .24.3.42.96.24 1.38.42l2.16.84.48.18.06.06q.18.06.33.12.15.06.27.12.18.06.3.03t.18-.03q.18.12.3 0t.18-.12l.3-.3q.12-.18.24-.18.06 0 .15-.06t.09-.24l.06-.3q.06-.18.15-.24t.27-.06h.09q.03 0 .03-.06.06-.12.18-.12.24 0 .27-.15.03-.15.03-.21 0-.18.18-.36.06 0 .12-.06t.06-.12q.06-.3.09-.63t.09-.63v-.12q0-.84.06-1.26v-.66q0-.06-.03-.12t.03-.12q.12-.24.09-.57-.03-.33-.03-.51.06-.24.03-.39-.03-.15-.03-.33 0-.18.06-.36t.06-.42l-.06-1.02-.06-.36v-1.92l.06-1.86-.06-.66v-3q-.12-.36-.12-.48-.06-.3-.06-.84l.06-.78-.06-.78q0-.24-.03-.6t.03-.84v-1.38q0-.12-.03-.24t.03-.3q0-.36.06-.48.12-.18.84-.9.06 0 .06-.03v-.09q-.12-.18-.3-.3-.36-.12-.24-.42l.06-.24q0-.3-.3-.42l-.18-.09q-.06-.03-.12-.09-.36-.12-.36-.3t-.06-.24q-.12-.06-.39-.15t-.33-.33l-.12-.06-.18-.12q-.24-.3-.6-.24l-.36-.06q-.12-.12-.18 0h-.72l-.3-.24q-.18-.12-.48-.12t-.6.36l-.18.36-.18.18q-.72.24-1.08.42 0 .06-.06.09t-.06.09v.42zm21.24 19.98v-.9q0-.12.06-.18t.06-.18q0-.12-.06-.24l-.12-.24q-.06-.24-.24-.57-.18-.33-.18-.57-.6-.9-.66-1.02 0-.06-.48-.66-.06-.06-.12-.18t-.24-.06l-.03-.03-.03-.03-.54-.66-.84-.84q-.36-.48-1.08-.66-.48-.24-1.68-.48l-.6-.12q-.18 0-.78-.12h-1.98q-.18-.06-.45-.03t-.39.03l.24.24q.18 0 .3.12.42.18 1.38.9 1.02.42 1.38 1.14.12.12.42.78l.84 1.68q.06.18.21.69t.45.87q.18.18.33.63.15.45.27.69.12.06.24.3.48 1.02 1.14 1.14l.12.12q.48.6.84.84.12.06.21.12t.27.06q.12.06.24-.12.06-.06.12-.15t.12-.27l.36-.66.18-.42q0-.12.12-.36v-.18q.06-.6.6-.42zm-25.14-7.74h-.24q-1.26.6-1.5.78-.24.12-.51.24t-.51.24l-1.2.54q-1.44.72-1.74.84-.06.06-.15.06t-.09-.12q0-.42.06-.6v-.39q0-.27.06-.45.06-.12.06-.3 0-.24-.24-.48 0-.12-.24-.12-.18 0-.18.12-.12.54-.84 1.26-.54.72-.84 1.44-.12.24-.36.24l-.96.36q-.24.12-.33.42-.09.3.03.48l.36.54q.36.24.6.72t.36.66q.06 0 .06.03v.09q-.06.06-.06.18v.36q0 .48.18.72.24.6.42.9l.12.12q.12.06.3.06.24 0 .6-.12l.48-.18q.3-.06.48.24.06-.18 0-.24 0-.42.36-1.14.18-.18.33-.45.15-.27.39-.57.18-.24.3-.66.12-.42.3-.66.18-.18.24-.33.06-.15.12-.27.48-.48.6-.72.12-.12.27-.36.15-.24.39-.42-.06.06.84-.66.06-.06.15-.12t.09-.24v-.12l.6-.66q0-.3.18-.36.6-.36.66-.9zm59.46 2.64l.12.12-.18.12h.06l-.06.18q-.06.12-.06.3.06.06.06.18 0 .18-.24.54l-.12.48H301q-.18 0-.24.06-.18.06-.54.06-.84-.12-3.12-.48-.24-.12-.24.12 0 .48.12 1.44.12.72.12 1.14.12.96.24 2.4l-.06.54q0 .24.06.45.06.21.06.51v3.3q-.12-.06-.21-.03t-.09.21l-.18.66v.36q0 .42-.66.54-.06 0-.27.06-.21.06-.33.18-.06.18-.42.18h-.3q-.6 0-.84-.12-.96-.48-1.26-.78-.84-.78-1.62-1.62-.12-.12-.72-1.02l-.9-1.5q-.3-.42-.66-1.26-.12-.18-.78-1.32 0-.24-.06-.39-.06-.15-.12-.27l-.54.42q-.18.3-1.44 1.68l-1.32 1.26q-.06.06-.18.06-.24.12-.36.12l.3-.6q.12-.36.42-.96.36-.84.6-1.26l.54-.78 1.02-1.68.54-.9.84-1.26q.54-.78.72-1.02l.6-.84.66-.96q.48-.54.9-1.26l.6-.84q.12-.06.24-.3l.72-.9q0-.06-.12-.06l-.3.18q-.24.24-.36.3-.72.36-1.08.6-.48.18-.9 0h-.6q-.72 0-1.5-.3-.3-.12-.48-.36t-.18-.48q0-.42-.24-.66-.06 0-.12-.12t-.06-.18q.3.06.63.12t.69.18q.18.06.42-.06l1.56-1.08q.48-.48.78-.66l1.14-.84 1.2-.9.06-.3v-.18q0-.36.12-.6V32l-.06-.54-.06-1.26q0-.96-.06-1.5 0-.06-.12-.18-.36-.3-.69-.54-.33-.24-.63-.42.24-.06.48 0 .3.18 1.02.42v-.54q.06-.24.03-.63t-.03-.57q0-.36.06-.75t.06-.75v-1.26q0-.24-.12-.24-.48-.48-1.02-.84-.3-.24-.18-.42.36-.12.6-.12.48 0 1.56.36l.72.24q.6.36.78.54.06 0 .09.06l.03.06q0 .06.12.27.12.21.36.27.06-.06.09-.03t.03.09l-.06 1.56q-.06.36-.06 1.08 0 1.02.12 2.94 0 .3.24.3.18.06.45.12t.39.06q.06.06.18.06.84.18 1.62.48.36.12.51.45.15.33-.03.57-.12.3-.24.66-.12.18.06.18h.24q-.18.12-.39.36-.21.24-.45.3l-.3.24-.06.18q-.96.54-1.2.72-.18.18-.36.27-.18.09-.3.21l-.06.18v4.92q0 .36.06.6 0 .12-.06.24t-.06.18q-.06.06-.03.24t.03.3h.42q.24 0 .63.03t.93.15q.24 0 1.74.3.48.12.84.24l.12.06.42.3zm19.2-7.86q0 .24.06.42v.18q-.06.42-.36 1.02 0 .12-.3.42l-1.08.72q-.3.24-.9.48-.36.12-.84.33-.48.21-1.08.39-.18.06-1.32.36l-1.68.3q-.42.06-.78 0h-.3q-.48 0-1.2.12l-1.02.12-.9.18h-.12v-.24q-.24 0-.6-.12h-.48l.42.3q.48.24.66.48l.48.54-.42.63q-.3.45-.78.57-.18.06-.78.48-.12.12-.21.12t-.21-.12l-.96.48-.3.12q-.3.12-.42.24l-.6.54-.54.48q-.18.12-.33.24-.15.12-.33.24l-.42.42q.24.12.42.12.06.06.15.12t.09.24q0 .06.12.42.06.18.18.39.12.21.18.51.12.24.12.78 0 .72.54 1.08.06.06.24.06.24-.12.45-.21.21-.09.33-.15 1.56-.84 2.88-1.14l1.44-.36q.36-.12.54-.36.18-.18.27-.18.09 0 .27.12.36.3.84.18h.36q.3 0 .6.42l.06.24q0 .24-.24.48l-.18.42q-.06.06-.12.15t-.18.15q-.48.24-.72.3l-.24.06q-.36.24-.6.24l-.42.42-.54.48-.9.78-.66.72q.3.42 1.14.9.36.3 1.02.12 1.32-.12 1.92-.24.24 0 .72-.12.12 0 .12-.12l.3-1.56q.24-1.62.3-2.28.12-1.08.24-1.5.24-1.44.24-2.22 0-.42-.06-.6-.6.12-.84.12-.18.06-.75.3-.57.24-1.17.36-.18.06-.57.15-.39.09-.63.09-.18.06-.6.06-.48 0-.72-.12-.12-.06-.39-.06t-.45-.06q-.24 0-.3.06-.42 0-.54.12l-.78.36q-.12-.3.12-.54.18-.12.39-.21.21-.09.39-.21.3-.18.3-.3.18-.24.42-.36 1.08-.84 3.24-1.38.48-.12.96-.27.48-.15 1.02-.27.36-.12 1.08-.12l.48.24q.18.3.78.72.3.18.54.33.24.15.42.27l.24.06q.18.12.39.21.21.09.27.21.66.54.72 1.44v1.08l.12.66-.06.24v.12q.06.12.06.36 0 .3-.12.9-.06.18-.06.66 0 .72-.06 1.08 0 .06-.06.06t-.06.06q.12.18 0 .6-.06.12-.03.33.03.21-.03.33l-.18.9q0 .06-.03.3t.09.42v.12q0 .12-.06.33-.06.21-.06.39l-.24.9-.24.54q-.12 0-.12.18-.06-.06-.18-.06-.06.3-.18.48t-.42.24l-.42-.18-.78.42-.06.06q-.12.24-.39.3t-.33.06l-.24.06v.06l-.78-.06q-.48-.06-.93-.45-.45-.39-.69-.57-1.08-.72-1.56-1.26-.24 0-.3.24-.06.12-.21.21t-.21.15q-1.08.48-2.52.78-.12.06-.42.06-.54 0-.96-.42-.24-.36-.66-.54h-.06l.06.18v.18q-.06.24-.36.24t-.48-.12q-.6-.54-.96-1.2l-.54-1.26q-.36-1.8-.48-2.7-.24-1.5-.12-3.72.06-.3.03-.51-.03-.21-.03-.39l-.18.12v-.18q-.18-.3.12-.6.06-.06.12-.18t.18-.18q.48-.3.72-.81t.36-.69l1.26-1.86.84-1.38q.12-.12 0-.36l-.54-.78q-.9.6-1.68.84-.24.06-.72.06-.6-.06-.96-.66 0-.06-.06-.09t-.06-.09q-.24-.12-.3-.42t-.12-.42q-.06-.12-.06-.36 0-.18.12-.54v-.48l-.06-1.98.06-3.9v-1.32l.06-1.5q0-1.14-.06-1.68 0-.18-.06-.24l-.36-.48q-.18-.36-.54-.36-.12 0-.18-.06.06-.18.36-.06.36.18.36-.18.54-.18.96 0 .42.3.78.3.12 0 .42.3.72.36 1.02.6.24.18.36.6 0 .24.3.3l.3.12-.12-.54.6.18q1.92 1.02 2.28 1.2.6.24 1.38.36.12 0 .27.06.15.06.33 0 .18-.36.18-.96l.48-2.64q.06-.18.06-.48 0-.42-.3-.72-.24-.24-.6-.84.48.18.66.3 0-.06.12-.3.12.06.27.12.15.06.33.12.12.06.27.06.15 0 .33.12.24 0 .36.24.06 0 .48.3l.6.54.24.3.06.24q0 .06-.03.18t.03.18q.12.24.12.36 0 .18-.12.66l-.18 1.44v.36l.03.03.03.03 1.74-1.92q-.78-.48-.96-.54l.66-.36q.12-.06.42-.06.12 0 .36.09t.48.09q.3.12.42.06.06 0 .21-.03t.18.03l.09.18q.18.24.48.36.6.24.78.72.06.06.06.24-.42.9-1.02 1.38l-1.26.84q-.42.24-1.02.39-.6.15-.9.21l-.78.3q-.12 0-.12.12-.24.54-.3.96-.06.3-.12.78-.06.48-.06.72-.06.12-.03.3t-.03.36l-.18.66v.12q0 .36-.06.54 0 .06-.24.3.24.12.24.36v.3q.06.12.06.48.12.3.36.3.78 0 1.2-.12.54-.12 1.02-.27.48-.15.84-.27.18-.12.18-.24.12-.6.54-.72l.12.12q.12.18.3.18t.24-.18q.12-.12.3-.36t.36-.36l.48-.12h.18q.48-.24 1.14-.24l1.02.12q.18 0 .24.24 0 .12.18.3zm-16.38-5.76q.06.6.06 1.68v.6q.78-.48 2.22-1.56.18-.12.06-.36l-.96-.9q-.12-.12-1.02-.72l-.54-.42v.66q.06.18.12.45t.06.57zm.3 7.5h.18l.54-.36q.66-.6 1.98-1.68.6-.42 1.56-1.5.12-.06.12-.12t.06-.12q0-.18.03-.39.03-.21-.03-.45 0-.06-.12-.3-.12.06-.24.24t-.3.12q0 .3-.51.69-.51.39-.75.33-.12.42-.51.63-.39.21-.51.27-.18.18-.54.27-.36.09-.48.15-.3.06-.42.36v.24l-.18 1.26q0 .12.12.36zm3.12 2.88q.24-.06 1.11-.21.87-.15 1.59-.63-.84-.72-1.14-1.5l-.42-1.68q-.18.12-.42.48-.48.78-.96 1.08-.06.06-.15.24t-.21.24l-1.08.96-.21.21q-.09.09-.21.15l-.42.3q.3.12.48-.12.06-.06.18-.06.24 0 .63.06t.63 0q.3 0 .48.24l.12.24zm-14.82 1.38q-.36.3-1.5 1.56.06 0 .12.03t.12-.03l1.2-.3q.12 0 .12-.18v-.39q0-.27.06-.45l-.06-.24h-.06zm.24 12.06q0-.84-.06-1.2l.06-.24q-.06-1.32-.06-3.9v-3.9q-.3-.06-.78-.06h-.78q-.48.12-.6.12h-.12q-.36 0-.66.42-.42.6-.54.78-.3.36-1.38 1.92-.3.3-.18.6.18.12.3.54l.12.06q.12.06.21.21t.03.27q.3-.12.3.12.12.18.24.54l.24.24.78.96q.06.12.18.24t.24.36q.42.42.48.54l.36.36q.12.12.27.21.15.09.21.21.36.24.72.78l.36.12q.06-.12.06-.3zm11.94-2.22q-.18 0-.18.3 0 .24.06.42t.12.3q.06.18.36 1.68.72-.12 1.02-.24.24-.06.42-.3t.24-.3q.24-.36 0-.48-.06 0-.06-.18h.24q0-.48-.6-1.08l-.18-.18q.48.12.87.45t.45.39q.54-.96.9-1.86l-1.2.3q-1.68.48-2.46.78zm6.78 3.24q-.06.06 0 .12l.12.12.48.18q.36.18.48-.24.12-.6.12-.9.12-.36.12-.54h-.06q-.36.12-.42.3-.06.3-.42.48-.18.12-.27.27-.09.15-.15.21zM307 53.3q.96-.24 1.5-.48-.18-.18-.42-.54-.12-.18-.36-.06-.12.12-.36.42t-.36.66z"/></svg>