<svg viewBox="0 0 363 80" xmlns="http://www.w3.org/2000/svg"><path d="M44.02 16.44q.12-.06.48-.06.9 0 2.46.3t2.58.66q1.14.42 1.83 1.29.69.87.81 1.89 0 .66.12.9 0 .3-.12.36-.12 0-.27.21-.15.21-.21.33-.06.12-.96 1.44-.36.3-.63.66-.27.36-.33.54-.06.3-.42.3-.24 0-.72.3-.12.18 0 .12 1.5-.36 6.12-.96t6.66-.6q1.98 0 3.78.9.72.24 1.65 1.11.93.87.81 1.17-.06.12.06.54.12.42-.06.6-.12.12-.12.66v.18q0 .18-.27.3t-.87.24q-.9.18-1.38.42l-.96.36q-.54.18-.9.18-.6 0-1.8.36-1.68.36-1.86.36-.72.18-1.38.42-.78.42-.9.24-.12-.12-.18-.12-.12 0-.6.48-1.14 1.08-1.8 1.08-.24 0-2.16.36l-1.2.3q-.96.24-1.38.18-.72.12-.78.18 0 .3.42.78.6.66.6 1.08 0 .6.18.72.36 0 1.68-.48 1.26-.54 1.92-.66.66-.18 1.56-.18 1.56 0 3.27.48t2.55 1.2q.3.18.72 1.98 0 .72-.21 1.65-.21.93-.57 1.53-.3.72-.3.9 0 .3-.12.42-.06 0-.42.84l-.36.84-.72.9q-.3.66-1.44 1.77-1.14 1.11-1.62 1.23-.12.06-.78.42-1.56.84-1.92.84-.18-.06-.84.12-.66.18-1.26.42-.6.3-.84.3-.18 0-.42-.24-.18-.18-.48-.18-.42 0-.78.06-1.14.24-2.16.24-.78 0-1.26-.06-.66-.12-1.08-.24-.42-.12-.78-.36-.84-.48-1.02-.48h-.06q-.24 0-.48-.24-.6-.3-.72-.3-.24 0-1.26-.9-.72-.9-.96-1.35-.24-.45-.3-1.23 0-.24-.15-.87t-.21-.87q-.48-1.38-.54-2.58-.12-.78-.27-1.26-.15-.48-.33-.54-.24-.24-.54-.36-.24-.18-.24-.3 0-.3 1.44-.18.9.12 1.14.24.24.12.78.72l.9.72.36-.54q.18-.3.42-.42t.72-.18q2.1-.3 4.02-1.14l1.14-.42-.12-1.5q0-.96-.03-1.32-.03-.36-.03-.42-.06-.18-.36-.27-.3-.09-.78-.15-.48 0-.9-.09-.42-.09-.54-.21-.3-.06-1.32-1.02T42.4 32.4q.06-.06.24-.12t.42-.06q.9-.12 1.53-.3t1.77-.72l2.58-1.08q1.26-.42 1.44-.6.3-.3.54-.18.12.12 1.62.24 1.2 0 1.74.18.12.24.24.12t.36.12l.66.3q.24 0 .3.09t.12.39q.12.54.54.54.18 0 .48-.18.66-.36 1.71-1.89 1.05-1.53 1.29-2.43l.06-.42-1.62-.18-1.44-.06q-.84 0-2.04.12l-3.42.18-1.2.18q-1.08.12-1.68.3-1.32.36-2.16.36-.84.06-2.1.72-1.5.66-1.62.66-.48.06-1.35.6-.87.54-.99.84-.6 1.2-.78 1.44-1.2 2.58-1.62 3.12l-.48.36-.3-.3q-.12-.06-.27-.18-.15-.12-.39-.18-.3-.24-.87-1.14-.57-.9-.63-1.38-.06-.3.15-1.11t.45-1.11q.18-.18.48-.87t.36-1.23q.24-.78.24-1.44 0-.48-.18-.66l-.42-.54v-.06q0-.18.36-.18l1.08.12q.78.18 1.53.6t.87.84q.12.3.36.66.06.12.18.33.12.21.12.33 0 .3.3.3.36 0 1.62-.54 1.98-.6 2.4-.66.84-.12 1.14-.36.3-.24.48-1.02.06-.18.06-.6 0-1.14-.6-2.82-1.08-2.88-1.41-3.6-.33-.72-.75-1.02-.36-.3-.36-.48 0-.12.48-.3zm-22.8 8.94q.84-.12 1.74-.12 1.62 0 2.82.24 1.08.36 1.98.54 1.02.24 1.53.6t1.05 1.26q.84 1.44.84 2.34 0 .3-.12.42t-.36.06q-.06-.06-.27.09-.21.15-.39.33-.6.48-1.02.48-.36 0-.48.12-.18.18-.96.18-.6 0-.75.06-.15.06-.21.3-.12.18-.42.33-.3.15-.54.15-.12 0-.12-.54t-.42-1.38q-.96-1.74-1.26-2.34-.54-1.08-2.58-2.1-.9-.54-.9-.72 0-.18.84-.3zm-1.56 11.4q1.44-.12 2.16-.12 1.74 0 3 .24t1.26.54q0 .18.48.66.48.48.48.78 0 .3-.3.87-.3.57-.66.87-.42.3-1.44.3-1.2 0-4.56-.54-1.32-.36-1.56-.36-.72-.24-1.71-.72t-.99-.66q0-.12-.18-.18-.12 0-.12-.18 0-.12.12-.12.18.12 1.5-.66.84-.42 1.35-.57.51-.15 1.17-.15zm10.2 3.18q.18-.24.36-.57.18-.33.18-.27l.03.03.03.03q0 .12-.36 1.08-.42.9-.54 1.98l-.54 2.04q-.48.84-.66 1.8 0 .18-.6 1.5-.12.24-.51 1.2t-.27 1.14q0 .3-.18.87-.18.57-.42.81-.24.42-.51 1.98t-.21 1.92q0 .42-.06.48-.12 0-.12.3 0 .48-.96.48-.6 0-1.8-.45-1.2-.45-1.56-.75-.18-.06-.33-.18-.15-.12-.27-.12-.12 0-.54-.63-.42-.63-.36-.75 0-.18-.24-.36-.3-.36-.42-.78-.06-.66-.72-2.58v-.12q0-.06.06-.06.24 0 .72.48l1.14.72.66.3.48-.6q1.32-1.32 2.16-2.28 3.36-3.42 6.36-8.64zm25.32.9v-.6q0-.84-.24-.6-.06 0-.33.03t-1.05.03q-3 .24-3.3.36-.12.12-.12 1.2 0 .54.06.6.24 0 .36-.12t.6-.12q.66 0 1.74.18t1.38.3l.36.12q.24 0 .33-.3.09-.3.21-1.08zm-11.7-.24l-1.44-.24q-.42 0-.48 1.26 0 .72.06 1.05.06.33.3.81.36.72.54.9.18.12.9 1.44.78 1.32.78 2.58 0 .54-.18 1.02l-.12.24q-.06.12 0 .18.48-.06 1.26-.21t1.2-.33l.72-.12v-2.28q0-.9-.12-1.02-.06 0-.33-.09t-.81-.15q-.72-.06-1.5-.33t-.72-.51q0-.06 1.92-1.02l1.86-.9v-1.14l.12-1.08-.48.18q-.24.06-.96.06-1.14 0-2.52-.3zm10.38 4.32q0-.18-.78-.18-.42 0-.54.12l-1.08.18-.96.24-.12.48q-.12.66 0 1.32v.72h1.08q.48 0 .54-.06.3-.18 1.08-1.38t.78-1.44zm-15.6 7.08l-.06-.48.6.06q.9.18 1.5.33.6.15.84.39.36.24.36.3l.36.72q.18.54.18.72 0 .18-.18.66-.36.78-1.62 2.28-1.26 1.5-1.92 1.98-.72.42-1.08.72-.54.42-.72.42l-.42.06q-.24.24-.54.24-.36 0-.36.18-.06.18-.24 0t-.48 0q-.12.12-.36.12t-.6-.12l-.72-.06 1.14-.84q1.68-1.44 3.12-3.93 1.44-2.49 1.2-3.75zm19.68-.24q.18-.3.48-.12.06.06.54.21.48.15.9.27 1.2.3 1.98.66 2.94 1.5 3.54 2.04.54.36 1.02 1.38t.72 2.04q.06.36.06.9 0 .24-.12 1.08-.24.72-.39.93-.15.21-.45.21-.12 0-.48.24-.18.18-.6.18-.36 0-.96-.27t-.84-.57q-.12-.06-.24-.15t-.3-.15q-.12 0-.36-.27t-.48-.63q-.54-.78-.81-.96-.27-.18-.51 0-.3.06-1.17-.09-.87-.15-.87-.27 0-.18.72-.54.78-.78 1.02-1.2.36-.42.39-.6.03-.18-.15-.48-.24-.54-1.26-1.92t-1.26-1.5q-.18-.12-.21-.21t.09-.21zm52.2-27.42l1.74-.3q.84-.12 1.2 0 .24.12.66.12l1.14.42q.36.12.78.24.42.12.84.3.54.12.78.24l-.06.12q0 .24.36.48.36.36.36.72v.36q0 .3-.06.36t-.36.06q-.18 0-.72.18-.48.36-5.04.9l-.9.12q-.06 0-.24.06t-.54.06q-.24.06-1.02.3-.36.12-.9.12l-1.08.12q-.96.24-1.26.24-.84 0-.96.06-.24.12-2.91-.27t-3.45-.63q-.6-.12-1.29-.51-.69-.39-.69-.63 0-.12 1.2-.12.6-.06 1.56-.3.96-.24 1.5-.36 2.04-.6 2.22-.6 3.24-1.08 7.14-1.86zM120.22 33q.48-.06 1.14-.12.66-.06.78-.12.54 0 1.62.33t1.5.63q.36.42.72.42.3 0 .48.18.24.18.3.36t.06.6v.36q0 .3-.18.42t-.96.3q-.96.18-1.56.18-.48 0-.66-.06-.96-.12-2.73-.21t-3.75-.09l-1.92.06q-3.18.18-9.18 1.38-.78.12-2.55.66-1.77.54-2.49.84l-.84.24q-.24 0-.9.36l-1.32.6q-.54.18-.48.42.12.12-1.2.6-.3.12-.78.3-.48.18-.72.18-.06 0-.54-.12-.78-.06-1.29-.18t-1.11-.42q-.6-.24-1.62-1.02t-1.02-.96l.42-.06q.54 0 1.62-.36.9-.36 5.22-1.26 1.26-.18 3.84-.84 7.08-1.74 10.26-2.28 5.7-1.02 7.32-1.08.84 0 2.52-.24zm-13.32 4.92q.12-.12.36-.12t1.47.51q1.23.51 1.53.81.24.12 1.14.54.66.24.81.48.15.24.39 1.44.24 1.02.24 4.74 0 5.76-.42 7.38-.18.72-.18 1.14 0 .06-.24.54-.24.36-.24.72-.54 1.08-.78 1.5-.18.3-.75.75-.57.45-.75.45-.3 0-.6.3-.24.12-.72.12t-.84-.3q-.18-.18-.48-.18-.18-.12-.69-.51t-1.17-.99q-.48-.48-.78-.6-1.62-1.2-2.1-1.68t-.18-.66q.42 0 1.26.09.84.09 1.5.27.48.12.84 0 .3-.12.45-.27.15-.15.33-.51.9-1.86 1.44-4.65.54-2.79.54-5.49 0-1.56-.18-2.88-.18-1.2-.36-1.71t-.48-.81q-.18-.12-.3-.24t-.06-.18zm12.84 5.58l-.24-.24h.72q.84.06 1.62.3.78.24 1.74.6l1.74.6q.66.18 2.34 1.38.42.3.78.81.36.51.36.75 0 .18.48.9.36.48.42.66.06.18-.06.42-.24.72-.54.72-.24 0-.24.24-.12.36-.24.36-.3 0-.3.12-.06.24-.78.24-.54 0-1.26-.18-1.26-.3-1.56-.51-.3-.21-.84-1.29-1.44-3.3-3.48-5.1-.78-.72-.6-.6.12 0-.06-.18zm-23.82 1.2h.78q.84.06 1.35.21.51.15 1.47.69.9.6 1.05.78.15.18.15.54 0 .78.06 1.08 0 .72-.18.9-.06.18-.15.3t-.15.18q0 .12-.3.3-.24.06-.48.3-.06.18-.15.27-.09.09-.15.09l-.3.12q-.06.12-.84.66l-.72.48q-.12.06-1.02.33t-1.26.33q-.3.06-.72.36-.18.12-.3.12t-.18-.06q-.06-.18-.36 0-.12.06-.24.15t-.24.15q-.6.3-1.08.66-.84.48-1.14.48h-.48q-.06 0 .54-.63.6-.63.96-.93.06 0 1.68-1.98 2.46-3 2.76-4.2v-.3q0-.3-.36-.6-.18-.18-.24-.33-.06-.15.06-.15.18 0 .12-.06-.12-.12-.09-.18t.15-.06zM172 15.12q.42-.42.96-.42.48 0 1.26.36l1.62.54q.96.36 1.92 1.14.96.78 1.26 1.5 0 .24-.18.6-.3.54-.54 1.17-.24.63-.3.87.06.06.72-.06.66-.12 1.14-.3.36-.18.72-.18.6 0 1.86.42.06.06.33.15t.45.21q.66.12 1.44.6.78.66.84.66.18 0 .48.6t.3.84q0 .36-.18.51-.18.15-.66.15-.36 0-.42.06t-1.2.06q-1.26 0-1.68-.06-.6-.12-3 .24-1.44.18-2.28.33-.84.15-1.05.33-.21.18-.51.72-.42.78-.42 1.02 0 .18-.36.66-.06.12-.15.24t-.09.24q0 .3.54.24.18-.12.36-.15t.36-.15q.6-.24 1.35-.45.75-.21 1.05-.21.36 0 .6-.18.3-.24.48-.24.24 0 .66.24.84.18 1.5.48.36.12.78.12.36 0 .9.42l.78.54q.42.12.6.66l.54.66q.3.48 0 .78-.42.24-.96.3-.72.12-1.98.12-1.08 0-1.68-.06l-1.92-.06q-1.32 0-3.12.27t-2.16.51q-.06.06-.21.42t-.33.72l-.6 1.2-.18.36q-.12.24-.24.54-.12.36-.66 1.08-.3.42-.3.63 0 .21.24.15l1.98-.42q1.14-.42 2.28-.66 1.02-.36 1.98-.48.36-.12.87-.33.51-.21.51-.27-.06-.06-.21-.15t-.51-.27q-.54-.42-.54-.48 0-.12.84-.03t1.68.33q.72.3 1.02.3.3 0 2.34-.48 1.74-.24 2.52-.48l1.86-.42q.66-.18 1.08-.06.12.06.51.12t.75.24q1.08.12 1.38.36.48.24.84.24.72.36 1.02.6l.72.48.54.96.48.84-.3.42q-.12.36-.24.45-.12.09-.48.15-.72.12-1.5.12-1.44 0-1.92-.24-.3-.12-2.91-.36-2.61-.24-2.67-.12-.06.12.3.45t1.02.75q.9.54 1.26 1.02.36.42 1.2 1.14.78.54 1.32 1.14l1.32 1.08 1.74 1.26q1.14.9 5.1 2.58.42.18.75.33.33.15.57.27 3.42 1.5 3.66 1.74.42.3.6.69.18.39.06.69-.06.24-.21.27-.15.03-.39-.03-.54 0-.72.06-.78.3-5.16.3-1.26 0-1.89-.21-.63-.21-1.65-.99-1.38-.9-3.72-3.36-2.34-2.46-2.94-3.54-.24-.48-1.71-2.07-1.47-1.59-2.61-2.61l-1.26-1.02-1.02.06-1.38.12q-1.08.12-1.62.12-4.44.36-6 1.02-.42.06-.78.21-.36.15-.6.21-.36.06-.54.21-.18.15-.42.57-.24.42-.48.66-.12.12-.21.33-.09.21-.15.45-.3.66-.96 1.32-.12.18-.39.54-.27.36-.27.42 0 .12-.3.54l-.54.54q-.12.3-.21.45-.09.15-.15.21-.12.12-.24.33-.12.21-.36.51-.54.6-.72 1.02-.18.12-.3.3t-.12.3q-.18.36-1.8 1.77-1.62 1.41-2.22 1.77-1.02.3-2.07.72-1.05.42-1.59.66l-1.8.06-1.74.12q-.24 0-.24-.06 0-.18.66-.54.18-.18.78-.57.6-.39.96-.69 1.26-.84 3.9-3.18 2.64-2.34 3.42-3.3l1.2-1.32q1.86-2.28 1.8-2.46-.12-.06-1.62.39t-2.1.75q-.18.12-.51.33-.33.21-.39.33-.42.54-1.68.54-.3 0-1.68-.9t-1.86-1.44l-.48-.48 1.56-.06q1.98-.12 2.34-.3 5.58-.96 6-1.2.78-.3 1.44-.48.54-.06 1.02-.3l2.22-4.38q.06-.3.09-.42t-.09-.12q-.24 0-1.11.36-.87.36-1.35.72-.6.42-.96.42-.42 0-1.26-.66-.54-.36-1.5-1.32-.48-.48-.48-.6 0-.18.9-.18.42 0 1.47-.3t3.27-1.02q1.32-.48 1.8-.48.6-.12.78-.39.18-.27.48-1.41.36-1.2.42-1.56.06-.36-.18-.36-.36 0-1.35.45-.99.45-1.41.87-.84.36-1.2.42-.18.06-.48.06-.42 0-1.29-.27-.87-.27-2.25-.81-.72-.24-2.07-.99-1.35-.75-1.23-.87 0-.12.48-.12 2.22 0 7.02-1.38l1.86-.54q1.44-.48 1.68-.48.36 0 .84-.24.42-.12.54-.24.12-.12.18-.54.3-.78.42-1.77t.06-1.53l.06-.72-.72-.36q-.48-.12-1.08-.54-.36-.3-.6-.3-.12 0-.12-.12 0-.36.42-.6.6-.36.96-.72zm9.36 26.82q.3-.18.66-.18.54 0 1.2.36 1.38.54 2.1.72.42.3.78.72.24.24.36.45.12.21.12.51 0 .3-.18 1.5-.12.9 0 1.92.06.3.06 1.74 0 2.64-.06 4.5-.18 4.56-.48 6.66-.18 1.02-.3 1.26t-.66.72q-.54.48-1.08.6-.42 0-.78.24l-.42.12q-.06 0-.6-.66-.18-.42-.45-.81-.27-.39-.45-.75-.54-.54-1.08-1.74-.72-1.2-.9-1.38-.3-.24-.57-.3-.27-.06-1.65 0-2.64 0-3.54-.06-1.74-.12-1.86 0-.12.12-.12 1.92 0 1.14-.09 1.53-.09.39-.36.48-.27.09-1.05.15l-.78.06-.42-.54q-.12-.18-.33-.45-.21-.27-.39-.63-.36-.48-.54-1.26l-.36-1.14q-.06-.36 0-.54.24-.72.42-2.4.06-.78.48-3.6.24-1.92.24-2.4 0-.42-.12-1.74-.12-.78-.39-1.17-.27-.39-1.29-1.47-.18-.18-.21-.27-.03-.09.09-.21.42-.24.72-.24.24 0 1.02.3.96.48 1.56 1.11.6.63 1.14 1.71.66 1.26.81 1.68.15.42.21 1.74.06.48.06 1.44 0 1.56-.24 3.12-.12.6-.12 1.2 0 .78.18.9.18.18 1.95-.42t2.01-.84q.12-.12.48-.12t.48-.12q.18-.18 1.29-.3t1.59 0q.24 0 .54.09.3.09.54.27.36.18.66.24.12-.12.27-1.29.15-1.17.21-2.67l.12-1.38q0-.42-.18-.42t-.42.24q-.48.3-1.44.36-1.26.18-1.74.36-1.08.3-2.7.3l-1.2.06q-.54 0-1.02-.18-1.2-.66-1.08-.84 0-.06.9-.3.72-.24 2.01-.87 1.29-.63 1.77-1.05.36-.3 1.17-.48.81-.18 1.77-.18.72 0 1.08.09.36.09.66.39.3.24.39-.03.09-.27.09-1.65v-1.2q0-.96-.09-1.2t-.39-.36q-.96-.12-2.64 1.02-.66.42-2.16 1.08l-1.68.84q-.24.12-.54.12-.78 0-1.5-.36-.6-.3-1.5-1.32-1.32-1.56-.66-1.2.36.12 1.02.12 1.86 0 3.18-.42l3.36-.72q2.1-.48 2.28-.66l.78-.42zm-.3 16.02q0-.24-.12-.24t-.3.18q-.18.18-.06.3t.3.06q.18-.06.18-.3zm70.92-36.84l.9-.12 1.14.36 1.14.36q.3 0 1.32.42t1.44.72q.18.18 1.32.9.66.36.78.51.12.15.24.63.12.54.18.6.24.24.24.42 0 .24-.36.54-.9.78-1.44 1.5l-.42 1.98q-.18 1.38-.48 2.76-.3 1.26-.3 1.32-.36 1.5-.48 2.82-.06.6-.27 2.07-.21 1.47-.39 2.01l-.24 1.2q-.18.42-.3 1.38-.12.84-.06.9l.12 2.94q0 2.76.12 2.88.12.3.96.75t1.8.75q1.08.36 2.7.63t2.76.27q.6 0 .9-.06.3-.06.6-.3.6-.42.87-1.2t.93-3.78q.12-.3.3-.33.18-.03.3.21 0 .06.42.66.36.36.36.54 0 .06.18.6.6 1.02.6 2.1 0 .36.03.57.03.21.21.33.42.42.72 1.2.54 1.08.6 1.14.12.12.12.3 0 .54-1.08.9-.6.24-1.17.27-.57.03-1.77.03-2.28 0-3.12-.18l-1.68-.24q-2.1-.24-2.7-.48l-1.62-.6q-.9-.3-1.68-.78-.78-.48-2.16-1.56-.78-.66-1.14-1.05-.36-.39-.84-1.11-.72-1.32-.93-2.31-.21-.99-.09-2.97v-1.08q0-1.08-.18-1.08t-.42.42q-.24.42-.72.96t-.6.54q-.06 0-.66-.72-.48-.72-.96-1.02-.3-.18-.87-.6-.57-.42-1.35-.9-1.62-1.2-1.74-1.2-.06 0-1.32 1.14t-1.38 1.14q-.24 0-.54.3l-.84.42q-.48.18-.78.36-.42.3-.66.3-.18 0-.66.24-.24.18-.9.36t-1.08.24q-.12 0 0-.12t.18-.12q.18-.12.18-.36 0-.18.36-.42.3-.24.78-.9 1.02-1.26 1.98-2.1.84-.66 1.2-1.44l.6-.96-.84-.6q-.84-.48-1.44-1.08-.9-.6-1.32-.78-.6-.3-1.17-.75t-.57-.69q0-.18.48-.18.24 0 .6.12l1.68.42q.78.12 2.7.72 1.2.42 1.44.3.24-.24 1.02-2.1t1.02-2.7q.06-.36.06-.57 0-.21-.12-.27l-.24-.12q-.12-.06-.3-.06-.3 0-.75-.15t-.45-.27q0-.12.54-.24.48 0 .84-.24.18-.18.54-.18.36 0 .54.18.3.12.96.24 2.52.66 2.76 1.02.12.24.48.42.24.06.3.18t.06.3v.18q0 .18.18.66.42.42.24.78-.06.36-.3.75t-.48.51q-.24.24-.54.72l-.72.9q-.42.3-.42.54 0 .18-.54.72l-.48.54 1.2.72q1.68.9 1.92 1.02.72.24.72.54.06.3.3.9.24.6.54 1.14.12.18.06-.06-.06-.18.06-.48.12-.18.21-.93t.21-2.25l.24-2.1q.12-.6.12-1.38l.18-1.02q.18-.3.24-2.16.42-4.26.6-4.38.12-.12.12-1.02 0-.48-.06-.78-.06-.3-.3-.54-.36-.42-.63-.57-.27-.15-.87-.15-.78 0-1.38.06-2.64.18-3.75.36-1.11.18-3.39.78-.42.12-3.84 1.14-1.2.42-2.22.42-.42 0-1.02-.12-.48-.12-.63-.15-.15-.03-.09.15l.06.12q0 .18-.06.36t-.12.3q-.48 2.28-.42 2.04l-.3 1.44q-.06.06-.48 2.46-.18 1.08-.06 2.7.06 1.44.06 5.16 0 4.08-.12 4.32l-.54 1.5q-.06.42-.24.9-.18.48-.24.66-.12.24-.12.6.12.06-.06.24t-.3.6q-.24.54-.51.96-.27.42-.39.42t-.66.66q-.48.72-1.41 1.5-.93.78-1.41.84-.72.12-1.14.36-.72.3-1.32.3-.36 0-1.2-.24-.6-.24-1.41-.84-.81-.6-.81-.84t-.18-.42q-.24-.24-.21-.33.03-.09.33-.21.18-.12.39-.12.21 0 .45.06.48.12.78.12.6 0 1.2-.21t1.02-.51q.84-.72 1.68-2.04t1.2-2.46q.3-1.32.72-2.34.48-2.16.54-2.7.18-1.74.18-7.92 0-6.3-.18-6.66-.06-.12-.66-.33-.6-.21-1.02-.21-.3 0-.54-.18-.24-.18-.24-.42 0-.18.36-.36t.54-.36q.3-.3 1.44-.42l1.92-.12q.72 0 1.44.12t1.08.24q.18.18.48 0l2.34-.78q3.12-1.08 5.34-1.56 2.22-.48 4.92-.78 1.98-.24 2.76-.42l1.62-.36zm46.26-4.08v-.12q0-.06.06-.06l.48.18q.6.24.72.24.06 0 1.26 1.08 1.68 1.56 3.12 2.22.42.24.93.84t.51.9q0 .3.54.78.3.48.36.66.06.18 0 .54-.12.66-.6 1.32-.48 1.14-.54 1.5l-.12.72h.6q.66.12.9 0 .12 0 .36.12.48.24.78.3.72.24 1.74.78t1.56 1.08l1.2.96.36.24-.36.54q-.18.42-.6.54-.36.18-.42.42-.06.18-.39.33-.33.15-.93.33-1.68.42-2.1.66l-2.04.72q-.42.06-.81.21-.39.15-.51.27 0 .42.18.78.24.48.24 1.14-.06.24-.03.45l.03.21q.12.12.51.27.39.15.87.27.9.3 1.92.81t1.44.81q.3.12 1.08 1.86.06.18-.54.78-.42.42-.57.51-.15.09-.63.03l-.96-.24q-.36-.24-1.2-1.05t-1.08-1.17q-.18-.42-.48-.72-.12-.06-.18-.18t-.06-.18q0-.24-.24-.51t-.48-.27q-.3 0-.39.54-.09.54-.09 2.04.06 1.14.06 2.7v3.12q0 4.2.24 9.06l.06 2.16-.48.42q-.6.6-1.5.6-.48 0-.93-.21-.45-.21-.69-.63l-.72-1.62q-.12-.48-.24-.54-.24-.42-.63-1.38t-.33-1.02q.6-.18.78-1.44.24-.9.57-4.05.33-3.15.21-3.21-.06-.12-.48.21-.42.33-.42.51 0 .06-.6.66-.48.48-.48.72t-1.89 2.01q-1.89 1.77-2.61 2.25-1.74.96-2.16 1.14-.66.3-1.14.48-.48.18-.96.18-.66 0-.99-.15-.33-.15-.57-.57-.06-.24.03-.39.09-.15.9-.99t2.31-2.34l1.08-1.14q.72-.66.9-.9.42-.3 1.32-1.68l1.32-1.74q1.14-1.14 2.1-2.94.18-.24.39-.63.21-.39.27-.39.12 0 .12-.36 0-.42.3-1.14.24-.9.12-.9-.06-.12-.9-.24-1.26-.24-3.54-1.44-2.28-1.2-2.28-1.68 0-.12-.24-.33-.24-.21-.36-.27l-.48-.48q0-.12.84-.24.84 0 1.8-.48 2.64-1.02 3.66-1.62l1.74-.66q.78-.3.93-.45.15-.15.15-.63 0-.6-.06-1.08-.18-1.5-.6-3.81t-.78-3.63q-.3-1.68-.3-1.92-.12-1.32-.24-1.38zm27.66 2.04q.12-.06.72-.06l1.38.24q.66.12 1.02.27.36.15.96.57 1.2.72 1.2 2.28 0 .84-.21 1.86t-.45 1.56q-.24.36-.33.9-.09.54-.09 1.32l-.12 1.62.9-.9q.42-.42.72-.78.3-.36.48-.54.3-.54.48-.66.24-.18.99-1.71t.69-1.71v-.12q0-.18.24-.18t.6.18q.24.12.48.27.24.15.54.27.48.24 1.53 1.2t1.11 1.2q.12.48.42.66.24.3.24.54 0 .36-.42.54-.48.18-.72.42-.06.24-.36.24t-1.02.72l-.84.72q-.12 0-.39.15t-.57.39q-.84.72-1.2.78l-1.38.84q-1.2.54-1.26.54-.3.06-.99.39t-.81.45q-.06.54-.06 1.41 0 .87.06 1.35.06.06.36.06.84 0 1.74-.36.54-.3.78-.12.36.12.6.12.6 0 2.01.39 1.41.39 1.89.69.66.3.66.48l.54.78q.3.3.39.54.09.24-.03.42-.18.66-2.28.66-2.16 0-3.6.12-2.64.12-2.7.24-.84 0-1.41-.33t-.99-1.11q-.3-.78-.96-1.5-.42-.66-.51-.93-.09-.27-.09-1.05 0-.96-.06-1.02-.18 0-1.62.96-1.44.96-3.3 2.4-1.32.96-2.22 1.44-1.44.6-3.12 1.62-.54.36-1.08.48t-.84-.06q-.3-.12-.69-1.59-.39-1.47-.39-2.37 0-.36.12-.48t.6-.36q1.2-.6 1.38-.72.48-.36.63-.54.15-.18.21-.66.24-1.02.24-4.68 0-4.8-.36-5.52-.18-.36-.84-.87-.66-.51-1.26-.75l-.66-.3h.66q.6 0 .84-.12l.3-.06q.06 0 .54.12.18.06.39.15.21.09.39.09.3 0 1.35.48t1.35.72q.42.42.96 1.14l.6.84-.12 1.26q-.12 1.14 0 1.14.18 0 1.62-.9 1.44-.9 2.04-1.32.06-.24.42-.27.36-.03 1.02-.03t.96.03q.3.03.36.27.12.18.36.24t.3-.18q.06-.96 0-3.03t-.12-2.13q-.12-.12-.72-.24h-.3q-.3 0-.6.3-.24.36-.48.36-.06 0-.06-.12 0-.3.18-.48.12-.06.3-.36t.3-.48q.18-.6.48-.72zm.54 9.96q0-.9-.24-.9l-.3.06q0 .06-1.92.72-2.04.66-2.88.66-.9 0-1.5.12l-.42.12v1.38q0 1.2.24 1.38.06.06.45-.09t.75-.27q.48-.18.75-.33.27-.15.27-.39v-.12q0-.18.72-.18.3 0 1.05.18t1.17.24q.72.3 1.5.42.12-.12.24-1.17.12-1.05.12-1.83zm-5.7 9.84q.3-.54.45-.69.15-.15.27.09.12.06.72.06 1.86 0 3.18 1.8.54.9.42 1.08-.36.96-2.64 2.04-1.38.66-2.19 1.02t-.99.36q-.18 0-.48-.12-.48-.24-.72-.12l-.3.06q-.6 0-.84-.42 0-.24.3-.54.3-.18.72-.84.18-.42 1.08-1.44.6-.96.6-1.26 0-.12.42-1.08zm6.84 3.66q.6-.3.84-.3.06 0 .66.12.42.18 1.5.36.78.18 1.71.78.93.6 1.35 1.26.36.42.84 1.59.48 1.17.48 1.65l.06 2.04q0 1.38-.12 3.3-.24 2.34-.54 3.48-.3 1.14-.81 1.71-.51.57-1.59.99-1.02.3-1.32.3-.6 0-1.2-.66l-.84-1.08q-.42-.42-.66-.84l-.72-1.26-.72-1.14q-.12-.12-.6-.12l-1.92.12-1.8.06q-.54 0-1.08-.18-.18-.12-.51-.21t-.63-.09q-.24 0-.39-.03l-.15-.03 1.62-.78q1.68-.9 2.04-1.26.24-.24.54-.24l.72.12q.48.06 1.68.06h.48q.24 0 .45.09.21.09.45.33.36.24.57.33.21.09.33-.03.24-.18.51-1.11.27-.93.27-1.35 0-.24-.06-.3t-.36.06l-1.62.18q-.6.06-1.11.21-.51.15-.87.21-.66.24-2.82.48-1.74.12-1.86.18-.12.06-.72-.21t-.9-.51q-.3-.48-.3-.72 0-.3.09-.39.09-.09.63-.15.9-.24 2.04-.78 1.14-.54 1.68-1.08.36-.36.57-.45.21-.09.45-.03.3.24 1.8.24l1.44-.06.96.9q1.02.9 1.2.84.06-.24.12-.87t.06-1.35q0-.9-.12-1.02-.06-.24-1.14-.24-1.08 0-1.8.24-2.22.42-4.38.42-.84 0-1.44-.12-.24-.06-.39-.03-.15.03-.27.15-.12.24-.48.21t-.3-.27q.12-.24 3.36-1.74 3.24-1.5 3.84-1.56.36 0 1.2-.42zm-15.24 3l-1.2-.72 1.08.06q.36.06 1.68.3.54.12 1.53.99t1.47 1.65l.54.78.18 2.94q.12 3.42.36 4.68.36 1.86.36 2.46 0 .54-.42.6h-.12q-.36 0-.96-.24t-.6-.42q0-.06-.66-.84-1.74-2.1-1.56-2.34.12-.18.21-1.26t.09-2.04v-1.26q0-.48-.18-1.47t-.48-1.95l-.18-1.08q-.12-.12-.45-.33-.33-.21-.69-.51z"/></svg>