<svg viewBox="0 0 404 80" xmlns="http://www.w3.org/2000/svg"><path d="M22.72 47.06c-.06 4.86-2.76 9.24-5.4 10.92-1.2.9-2.04 2.1-1.38 3.36.72 1.32 2.94 1.02 4.44-.18 2.4-1.86 5.16-6.72 3.42-14.04zm18.36-29.88v9.54H27.82v-9.54zm17.1 0v9.54H44.92v-9.54zM44.92 38.24v-9.78h13.26v9.78zm-17.1 0v-9.78h13.26v9.78zm30.36 1.8v3h.6c1.32 0 3.24-.96 3.3-1.32V17.96c1.2-.24 2.16-.72 2.52-1.2l-4.8-3.72-2.22 2.4h-29.4l-4.26-1.92v30.54h.66c1.62 0 3.24-1.02 3.24-1.44v-2.58zM39.1 43.46c2.82 2.64 5.88 7.2 6.18 10.98 3.96 3.24 7.44-6.18-5.52-11.46zm18.9 9.6h-.78c-.66 3.48-1.38 6.24-1.86 7.26-.24.66-.48.84-1.44.9-1.08.06-4.02.06-7.86.06h-8.58c-3 0-3.3-.24-3.3-1.2V47.54c1.2-.18 1.74-.72 1.86-1.5l-5.76-.6V60.8c0 3.24 1.14 4.08 6.72 4.08h8.88c12.06 0 14.22-.6 14.22-2.58 0-.78-.42-1.26-1.92-1.68zm.78-5.82c3.24 3.18 6.96 8.52 7.56 12.84 4.5 3.48 7.92-6.9-6.9-13.32zm20.28-34.5c2.64 1.68 5.76 4.74 6.78 7.44 4.38 2.46 6.78-6.18-6.24-8.04zm-3.78 13.74c2.46 1.56 5.22 4.38 6.12 6.78 4.26 2.46 6.72-6-5.58-7.32zm15.66-3.9c-9.42 23.88-9.42 23.88-10.38 25.98-.6 1.2-.78 1.26-1.5 1.26h-2.52v1.32c1.26.12 2.04.24 2.82.84 1.32.9 1.62 5.64.78 11.7.12 1.92.9 3 1.98 3 1.98 0 3.12-1.56 3.24-4.14.24-4.92-1.44-7.68-1.5-10.38-.06-1.44.3-3.36.84-5.28.72-2.82 5.04-16.68 7.26-24zm13.02 25.74c-1.74 4.38-5.58 10.62-9.78 14.52l.72.84c5.04-3.24 9.66-8.34 12.18-12.24 1.32.18 1.86-.06 2.16-.6zm14.28 1.2c3.3 3.18 7.44 8.46 8.52 12.54 4.26 3.12 7.08-6.3-7.8-13.02zm4.44-22.38v6.9h-17.82v-6.9zm-17.82 15.3v-6.6h17.82v6.6zm18-26.04H97.78l-4.5-1.92v15.96c0 11.94-.84 24.9-7.32 35.34l.84.66c9.48-10.38 10.26-25.2 10.26-36.06V18.2h14.04c-.48 2.52-.96 5.22-1.56 7.14h-4.38l-3.9-1.74V47h.6c1.44 0 3-.9 3-1.14v-1.68h7.08V60.8c0 .78-.24 1.08-1.26 1.08-1.14 0-6.36-.36-6.36-.36v.9c2.4.3 3.78.78 4.56 1.44.6.6.96 1.56 1.02 2.7 5.04-.54 5.82-2.58 5.82-5.64V44.18h6.96v2.34h.6c1.2 0 3.06-.9 3.12-1.26V27.8c1.14-.24 2.1-.66 2.46-1.14l-4.62-3.54-2.1 2.22h-10.68c1.32-1.32 2.58-2.88 3.54-4.5 1.14-.06 1.86-.6 2.1-1.2l-5.34-1.44h17.46c.84 0 1.38-.3 1.56-.96-1.92-1.86-5.16-4.32-5.16-4.32zm35.76-4.38c2.16 1.86 4.26 5.22 4.62 7.86 4.14 3.12 7.8-5.58-3.96-8.28zM187.54 38c.84 0 1.44-.3 1.62-.96-2.04-1.92-5.28-4.38-5.28-4.38l-2.82 3.54h-16.14v-8.94c1.5-.24 2.04-.84 2.16-1.62l-6.06-.72V36.2h-23.7l.54 1.8h21c-4.44 10.14-12.72 19.56-23.64 25.68l.6.96c11.22-5.04 19.74-12.48 25.2-21.54v23.52h.78c1.44 0 3.12-.9 3.12-1.44V38h.06c4.62 11.64 12.6 20.82 21.72 25.86.6-1.8 1.98-2.94 3.66-3.12l.12-.6c-9.36-3.84-18.9-12.36-24.12-22.14zm-1.74-19.5l-2.7 2.64h-39.24c-.12-.96-.36-2.04-.72-3.12l-1.02.06c.3 3.9-2.04 7.32-4.38 8.64-1.26.78-2.16 2.04-1.62 3.42.66 1.5 2.94 1.56 4.5.42 1.74-1.14 3.42-3.72 3.36-7.62h39.18c-.78 2.28-1.98 5.22-2.94 6.96l.78.48c2.34-1.62 5.52-4.62 7.2-6.72 1.2-.06 1.92-.12 2.34-.6zm20.4 9.18c2.04-4.08 3.72-8.34 5.22-12.78 1.38 0 2.1-.54 2.34-1.26l-6.36-1.92c-2.64 11.46-7.44 23.1-12.18 30.54l.84.6c2.46-2.58 4.74-5.76 6.9-9.24v33.12h.72c1.5 0 3.12-1.02 3.18-1.32V29.66c1.08-.18 1.68-.54 1.92-1.08zm41.94-1.74c.78 0 1.32-.3 1.5-.96-1.92-1.86-5.1-4.38-5.1-4.38l-2.76 3.54h-10.44v-9.9c1.44-.24 1.98-.84 2.16-1.74l-6.06-.66v12.3h-17.28l.48 1.8h14.22c-3 10.92-8.76 21.84-16.62 29.64l.84.84c8.4-6.78 14.58-15.66 18.36-25.68v21.84h-10.38l.48 1.74h9.9v12.36h.78c1.44 0 3.12-.84 3.12-1.38V54.32h9.72c.78 0 1.38-.3 1.56-.96-1.74-1.74-4.5-4.02-4.5-4.02l-2.46 3.24h-4.32V25.94h.18c3.24 12.9 8.94 23.52 16.14 29.82.66-1.92 2.04-3 3.66-3.18l.18-.6c-7.56-4.86-14.82-15-18.72-26.04zm33.06-12.96c2.46 1.98 4.98 5.7 5.28 8.7 4.02 2.94 7.38-5.7-4.62-9.18zm6.36 18.6h21.96v7.62h-21.96zm25.98 15.54h-13.26v-6.24h9.24v2.34h.6c1.2 0 3.24-.9 3.3-1.26v-9.78c1.02-.18 1.92-.66 2.28-1.08l-4.68-3.48-2.04 2.22h-21.12l-4.14-1.86v15.9h.6c1.56 0 3.24-.9 3.24-1.26v-1.74h8.82v6.24H283.3l-4.2-1.92v18.9h.6c1.56 0 3.24-.9 3.24-1.26V48.92h13.44v17.64h.6c2.04 0 3.3-1.26 3.3-1.56V48.92h13.86v9.18c0 .78-.3 1.14-1.38 1.14-1.44 0-7.38-.42-7.38-.42v.9c2.7.3 4.2.9 5.1 1.5.78.6 1.08 1.62 1.2 2.82 5.64-.54 6.3-2.52 6.3-5.52v-8.88c1.26-.24 2.28-.72 2.64-1.14l-5.1-3.72zm7.8-26.94l-2.52 2.64h-11.76c2.88-2.22 5.76-5.04 7.68-7.2 1.14.24 2.04-.24 2.34-.84l-6-2.46c-1.44 3.12-3.78 7.38-5.7 10.5h-4.98v-8.76c1.38-.18 1.98-.78 2.1-1.62l-6.06-.66v11.04h-16.86c-.12-.9-.3-1.86-.54-2.88h-1.08c.12 4.08-2.16 7.86-4.56 9.3-1.26.72-2.04 1.98-1.44 3.24.72 1.38 2.88 1.26 4.32.12 1.68-1.2 3.36-3.96 3.36-8.04h39.24c-.72 2.04-1.74 4.56-2.58 6.18l.84.48c2.16-1.5 5.04-4.08 6.6-6 1.2-.06 1.86-.12 2.28-.6zm39.12-2.22h16.92V46.4h.6c1.32 0 3.12-1.02 3.18-1.38V18.44c1.02-.18 1.8-.66 2.1-1.02l-4.32-3.48-2.1 2.22h-16.02l-4.08-1.86v32.22h.66c1.62 0 3.06-.9 3.06-1.32zm-6.42 21.18c.84 0 1.38-.3 1.5-.96-1.74-1.68-4.62-3.9-4.62-3.9l-2.52 3.12h-4.8c.18-2.4.24-4.86.24-7.2v-3.9h9c.84 0 1.38-.3 1.56-.96-1.74-1.68-4.5-3.84-4.5-3.84l-2.46 3h-3.6V14c1.5-.24 1.98-.84 2.1-1.68l-5.88-.66V24.5h-8.82l.48 1.8h8.34v3.84c0 2.4-.06 4.86-.18 7.26h-9.78l.48 1.74h9.18c-.72 9.78-2.94 19.5-9.48 26.76l.9.66c6.72-5.52 9.96-13.26 11.46-21.36 3.36 3.3 6.48 8.22 6.72 12.42 4.14 3.48 7.44-6.96-6.48-13.86.24-1.56.42-3.06.54-4.62zm12.72-16.98c-.06 18.78.48 33.42-19.68 43.5l.78 1.08c22.44-9.54 22.08-24.42 22.44-42.36 1.38-.18 1.92-.84 2.04-1.62zM385 52.94h-.9c-.48 3.36-1.14 7.02-1.5 7.92-.12.54-.24.66-.78.72-.48.06-1.8.06-3.42.06h-3.54c-1.44 0-1.62-.24-1.62-1.02V43.34c1.08-.18 1.68-.72 1.74-1.44l-4.98-.66v20.28c0 2.4.6 3.3 4.26 3.3h4.2c6.54 0 8.04-.84 8.04-2.22 0-.72-.24-1.08-1.38-1.5z"/></svg>