<svg viewBox="0 0 405 80" xmlns="http://www.w3.org/2000/svg"><path d="M40.04 17.42v9.3h-7.98v-9.3zm16.08 0v9.3h-7.86v-9.3zM48.26 38.3v-9.9h7.86v9.9zm-16.2 0v-9.9h7.98v9.9zm0 1.68h24.06v3.3h1.5c2.88 0 7.14-1.56 7.2-2.04V18.8c1.26-.24 2.04-.84 2.4-1.32l-7.86-6-3.84 4.26H32.66l-9.3-3.54v32.22h1.26c3.66 0 7.44-1.92 7.44-2.82zm7.98 1.8c2.04 2.94 3.72 7.14 3.9 11.1 7.62 6.24 15.78-8.58-3.48-11.4zM23 45.44c.42 3.48-1.92 6.42-3.96 7.62-2.52 1.14-4.32 3.3-3.48 6.36.96 3.12 4.44 4.32 7.08 2.82 3.72-1.98 5.58-8.28.96-16.86zm35.64 4.86h-.6c-1.5 3.66-2.58 5.94-3.42 6.96-.54.66-.96.84-2.04.9-.96.06-3.06.06-4.98.06h-6.9c-1.92 0-2.22-.24-2.22-1.08V47.12c1.26-.24 1.8-.72 1.92-1.56l-10.62-.78v14.1c0 5.64 1.92 6.84 9.42 6.84h7.32c12.06 0 15.36-1.2 15.36-4.86 0-1.5-.6-2.46-3.06-3.36zm-1.08-4.92c3.24 3.9 5.64 9.54 5.88 14.88 8.52 7.08 16.68-10.56-5.4-15.24zm21.3-33.72c1.62 2.46 3.42 6 3.9 9.42 7.26 5.28 14.52-8.28-3.48-9.72zM75.14 25.7c1.56 2.16 3.24 5.46 3.6 8.58 6.84 4.92 13.74-7.86-3.18-8.88zm16.8-5.94C82.1 45.38 82.1 45.38 80.9 47.72c-.6 1.26-.9 1.26-1.8 1.26h-2.64v1.08c1.26.12 2.28.42 3.12 1.02 1.44.96 1.68 7.2.42 13.5.6 2.46 2.28 3.18 3.78 3.18 3.24 0 5.52-2.22 5.64-5.4.18-5.7-2.58-7.62-2.7-11.16-.06-1.56.24-3.84.66-6 .6-3.6 3.66-17.64 5.46-25.26zm11.82 27.3c-.9 4.92-3.36 12.3-6.78 17.1l.54.6c5.58-3.18 9.96-8.34 12.72-12.72 1.44.12 1.98-.24 2.22-.9zm16.92 1.56c2.04 3.72 4.32 8.82 4.86 13.32 6.48 5.4 12.84-7.56-4.26-13.62zm1.08-21.6v7.14h-10.74v-7.14zm-10.74 15.42v-6.6h10.74v6.6zm10.2-26.22h-18.9l-9.24-3.18v17.82c0 11.58-.18 25.44-4.86 36.36l.6.36c11.82-10.02 12.3-25.68 12.3-36.72V17.9h10.74c0 2.64-.12 5.46-.24 7.44h-.3l-7.8-3.06V47h1.08c3.18 0 6.42-1.68 6.42-2.34v-.54h1.62v13.62c0 .6-.24.96-1.02.96-1.08 0-5.76-.24-5.76-.24v.72c2.64.54 3.72 1.44 4.38 2.64.72 1.26.96 3.24 1.02 5.94 8.16-.66 9.36-4.5 9.36-9.84v-13.8h1.14v2.16h1.32c2.52 0 6.36-1.38 6.42-1.8V28.04c1.02-.24 1.74-.66 2.04-1.08l-6.96-5.22-3.36 3.6h-7.08a36.37 36.37 0 0 0 5.58-4.56c1.32-.12 2.1-.66 2.34-1.5l-6.36-1.38h15.42c.84 0 1.56-.3 1.68-.96-2.76-2.52-7.44-6.24-7.44-6.24zm60.06 6.66c-.24 2.4-.66 5.52-1.14 7.68l.36.36c3.24-1.5 7.26-4.14 9.72-6.24 1.26-.06 1.86-.24 2.34-.78l-7.44-7.02-4.32 4.32h-13.98c5.4-1.62 6.78-11.22-9-10.32l-.3.3c2.34 1.98 3.78 5.46 3.72 8.82.78.6 1.62.96 2.4 1.2h-18.06c-.3-1.2-.72-2.46-1.32-3.78h-.66c.06 2.58-2.64 5.04-4.56 6-2.46 1.14-4.2 3.36-3.42 6.36 1.02 3.18 4.92 4.26 7.26 2.76 2.4-1.5 3.78-4.92 3.06-9.66zm7.86 14.82c.84 0 1.5-.3 1.68-.96-2.82-2.52-7.62-6.24-7.62-6.24l-4.2 5.52h-10.74v-9.78c1.44-.24 1.86-.78 1.92-1.56l-10.62-.96v12.3H137.9l.48 1.68h16.44c-3.36 9.78-10.2 20.22-19.38 26.82l.48.6c10.08-4.14 18.06-10.08 23.64-17.34V67.7h1.62c3.24 0 7.08-1.8 7.08-2.58V39.68c3.48 11.16 9.06 19.44 17.46 24.72 1.2-3.96 3.72-6.6 6.96-7.26l.18-.72c-9.12-3.12-18.84-9.78-24.06-18.72zm19.74-10.32c2.1-3.6 3.9-7.56 5.52-12 1.44 0 2.22-.48 2.46-1.26l-11.7-3.48c-1.8 11.58-6.06 23.76-10.32 31.5l.6.42c2.1-1.56 4.08-3.3 5.94-5.22v30.3h1.56c3.3 0 6.84-1.74 6.9-2.34V29.6c1.2-.24 1.68-.6 1.92-1.2zM249.86 26c.84 0 1.5-.3 1.68-.96-2.64-2.64-7.32-6.6-7.32-6.6l-4.14 5.88h-5.04V13.58c1.68-.24 2.1-.84 2.22-1.74l-10.86-1.02v13.5h-14.52l.48 1.68h10.26c-1.98 10.74-6.3 22.56-12.6 30.42l.6.54c6.72-4.62 12-10.38 15.78-17.1v13.98h-8.22l.48 1.68h7.74v12.54h1.62c3.3 0 7.02-2.16 7.02-3v-9.54h7.74c.84 0 1.44-.3 1.62-.96-2.22-2.46-6.24-6.18-6.24-6.18l-3.12 4.74V26c1.86 13.68 4.92 23.76 11.1 30.6 1.32-4.08 3.9-6.6 7.02-7.26l.24-.66c-7.14-4.26-13.86-12.36-17.34-22.68zm44.76-4.38h9.18v9.48h-13.08l.48 1.68h34.86c.84 0 1.5-.3 1.68-.96-2.58-2.7-7.26-6.84-7.26-6.84l-4.08 6.12h-4.14v-9.48h11.7c.84 0 1.5-.3 1.68-.96-2.46-2.52-6.78-6.36-6.78-6.36l-3.84 5.64h-2.76v-6.66c1.68-.3 2.1-.9 2.22-1.74l-10.68-.84v9.24h-9.66zm-16.92 4.44c.84-2.34 1.56-4.86 2.16-7.44h.24v7.44zm19.26 9.6c-3 .66-6.06 1.32-9 1.86v-9.78h7.92c.84 0 1.44-.3 1.62-.96-2.22-2.64-6.42-6.78-6.42-6.78l-3.12 5.16v-11.7c1.68-.24 2.1-.84 2.22-1.74l-10.08-.96v6l-7.26-1.62c0 7.5-.84 15.9-2.34 21.9l.84.42c2.4-2.64 4.26-5.94 5.76-9.72h3v11.34c-4.38.78-7.98 1.44-10.08 1.74l3.66 9.72c.78-.24 1.44-.9 1.8-1.68 1.62-.84 3.18-1.62 4.62-2.4V67.7h1.5c3 0 6.36-1.92 6.36-2.76V42.02c3.84-2.22 6.84-4.2 9.12-5.76zm-3.54 7.86c1.8 2.76 3.72 6.72 4.26 10.44 7.26 5.46 14.52-8.28-3.78-10.74zm25.5-2.82v-5.1c1.38-.18 1.98-.66 2.1-1.56l-10.5-.9v7.68H291.2l.48 1.68h18.84v15.42c0 .72-.36 1.08-1.32 1.08-1.56 0-10.2-.54-10.2-.54v.78c3.9.66 5.46 1.56 6.78 2.76 1.26 1.26 1.68 3.12 1.98 5.76 9.78-.84 11.16-3.9 11.16-9.42V42.5h7.62c.84 0 1.44-.3 1.62-.96-2.04-2.4-5.94-6.18-5.94-6.18zm12.3-25.26c.9 3.72 1.56 8.58 1.08 12.84 4.86 5.7 12-4.8-.36-13.08zm33.72 33.66h8.82v15.3h-8.82zm8.82-30.96v13.44h-8.82V18.14zm0 29.28h-8.82V33.26h8.82zm8.28 16.44V18.98c1.56-.24 2.28-.6 2.7-1.26l-8.16-5.7-3.42 4.44h-7.74l-8.4-3.18v3.78l-7.26-2.46c-.66 5.04-1.62 10.98-2.46 14.7l.9.36c2.88-2.88 5.7-6.96 7.98-10.92.3 0 .6 0 .84-.06v14.94c-2.34-2.22-6.06-5.22-6.06-5.22l-3.48 4.74h-.3V13.4c1.68-.18 2.1-.84 2.22-1.68l-10.32-1.02v22.44h-8.82l.48 1.68h7.08c-1.62 7.8-4.5 16.62-8.58 22.68l.66.6c3.42-2.52 6.54-5.46 9.18-8.64v18.18h1.62c3.12 0 6.48-1.56 6.48-2.22V39.56c.96 2.88 1.74 6.18 1.74 9.18 5.94 5.7 13.32-5.94-1.74-11.94v-1.98h8.46c.6 0 1.08-.18 1.38-.48V64.4h-6.54l.48 1.68h36.24c.84 0 1.38-.3 1.5-.96-1.38-2.1-4.38-5.58-4.38-5.58z"/></svg>