<svg viewBox="0 0 405 80" xmlns="http://www.w3.org/2000/svg"><path d="M40.7 17.3v9.36h-9.72V17.3zm16.44 0v9.36h-9.66V17.3zm-9.66 20.88v-9.84h9.66v9.84zm-16.5 0v-9.84h9.72v9.84zm0 1.74h26.16v3.24h1.2c2.34 0 5.82-1.38 5.88-1.8V18.5c1.26-.24 2.1-.84 2.46-1.32l-6.84-5.22-3.3 3.6H31.46l-7.56-3v31.68h1.02c3 0 6.06-1.62 6.06-2.34zm9.06 2.4c2.34 2.82 4.5 7.2 4.68 11.1 6.42 5.16 13.02-7.8-4.2-11.46zm-16.8 3.66c.24 3.96-2.22 7.38-4.5 8.7-1.98 1.08-3.48 2.88-2.7 5.34.84 2.52 3.9 3.24 6.12 1.8 3.3-1.92 5.46-7.74 1.8-15.9zm35.52 5.22h-.66c-1.2 3.6-2.16 6.06-2.88 7.08-.48.66-.84.84-1.86.9-.96.06-3.36.06-5.94.06h-7.44c-2.28 0-2.58-.24-2.58-1.14V47.24c1.2-.24 1.74-.72 1.86-1.56l-8.94-.72v14.52c0 4.86 1.62 5.94 8.52 5.94h7.8c12.06 0 14.94-1.02 14.94-4.08 0-1.26-.48-2.1-2.64-2.82zm-.42-5.22c3.24 3.66 6.06 9.18 6.42 14.16 7.14 5.88 13.74-9.24-5.88-14.58zm20.88-33.96c1.98 2.22 4.26 5.64 4.92 8.82 6.24 4.26 11.82-7.62-4.44-9.18zM75.44 26c1.86 1.92 3.96 5.1 4.5 7.92 6 4.08 11.4-7.2-4.02-8.34zm16.5-5.28c-9.72 24.96-9.72 24.96-10.86 27.24-.6 1.26-.84 1.26-1.68 1.26h-2.64v1.2c1.26.12 2.22.36 3.06.96 1.38.9 1.62 6.66.54 12.84.42 2.34 1.8 3.18 3.18 3.18 2.82 0 4.68-2.04 4.8-5.04.24-5.34-2.16-7.56-2.28-10.86-.06-1.44.24-3.6.72-5.7.66-3.36 4.08-17.28 6.06-24.78zm12.24 26.82c-1.2 4.68-4.14 11.7-7.86 16.2l.6.66c5.46-3.18 9.9-8.34 12.6-12.54 1.38.12 1.92-.18 2.16-.84zm16.02 1.44c2.46 3.48 5.4 8.7 6.12 13.02 5.76 4.56 10.86-7.14-5.46-13.38zm2.22-21.9v7.02h-13.14v-7.02zm-13.14 15.36v-6.6h13.14v6.6zm12.84-26.1h-21.06l-7.62-2.82v17.16c0 11.76-.42 25.26-5.7 36.06l.72.42c11.04-10.08 11.58-25.5 11.58-36.48V18.02h11.82c-.12 2.64-.36 5.34-.66 7.32h-1.62l-6.48-2.64v24.36h.9c2.64 0 5.28-1.44 5.28-1.98v-.9h3.42v14.64c0 .66-.24 1.02-1.08 1.02-1.08 0-6-.3-6-.3v.78c2.58.48 3.78 1.2 4.44 2.22.72 1.02 1.02 2.64 1.08 4.8 7.08-.6 8.16-3.78 8.16-8.34V44.18h3.12v2.22h1.08c2.1 0 5.28-1.2 5.34-1.62v-16.8c1.08-.24 1.86-.66 2.16-1.08l-6.18-4.68-2.94 3.12h-8.34c1.74-1.26 3.48-2.94 4.92-4.5 1.26-.06 1.98-.6 2.22-1.38l-6.18-1.44h16.32c.84 0 1.5-.3 1.62-.96-2.46-2.28-6.66-5.58-6.66-5.58zm36.12-4.86c2.28 1.98 3.96 5.4 4.02 8.46 7.08 5.22 13.98-8.58-3.6-8.82zm24.06 11.4c-.42 2.4-1.14 5.46-1.8 7.44l.48.36c3-1.5 6.72-4.2 8.94-6.36 1.2-.06 1.8-.18 2.28-.72l-6.48-6.18-3.78 3.78h-36.66c-.24-1.14-.6-2.34-1.08-3.6h-.78c.12 3.06-2.46 5.88-4.56 6.96-1.98 1.02-3.42 2.88-2.76 5.34.96 2.58 4.26 3.3 6.3 1.92 2.22-1.38 3.72-4.44 3.18-8.94zm6.66 14.94c.84 0 1.44-.3 1.62-.96-2.52-2.34-6.78-5.64-6.78-5.64l-3.72 4.86h-12.6V26.6c1.44-.24 1.92-.78 1.98-1.62l-9.06-.84v11.94h-22.38l.48 1.74h18.06c-3.72 9.9-11.1 19.98-20.82 26.4l.54.72c10.44-4.5 18.6-10.8 24.12-18.72v21.12h1.32c2.64 0 5.76-1.5 5.76-2.22V38.9c3.9 11.46 10.2 20.1 18.96 25.32.96-3.24 3.12-5.34 5.76-5.82l.18-.72c-9.18-3.36-18.84-10.68-24.06-19.86zm19.32-10.38c2.04-3.72 3.9-7.86 5.46-12.24 1.44 0 2.16-.48 2.4-1.26l-9.9-2.94c-2.1 11.52-6.54 23.52-10.98 31.2l.72.48a47.67 47.67 0 0 0 6.24-6.3v30.96h1.32c2.7 0 5.58-1.5 5.64-2.04V29.66c1.14-.24 1.68-.6 1.92-1.2zm41.4-1.44c.84 0 1.44-.3 1.62-.96-2.4-2.4-6.6-5.88-6.6-5.88l-3.6 5.1h-6.96V13.82c1.62-.24 2.1-.84 2.22-1.74l-9.24-.9v13.08h-15.48l.48 1.74h11.64c-2.4 10.8-7.14 22.26-13.98 30.12l.66.66c7.26-5.28 12.84-11.94 16.68-19.68v16.32h-8.94l.42 1.68h8.52v12.48h1.32c2.7 0 5.7-1.74 5.7-2.46V55.1h8.4c.84 0 1.44-.3 1.62-.96-2.04-2.22-5.64-5.46-5.64-5.46l-3.18 4.74h-1.2V26h.12c2.34 13.38 6.3 23.64 12.78 30.3 1.08-3.3 3.3-5.34 5.88-5.88l.24-.6C245.84 45.38 239 36.56 235.34 26zm22.14-10.14c1.02 3.6 1.98 8.52 1.62 12.6 4.26 4.92 10.26-4.56-.84-12.84zm14.88 18.96h8.76c.84 0 1.38-.3 1.56-.96-2.16-2.1-5.7-5.04-5.7-5.04l-3.24 4.26h-1.38v-19.5c1.68-.18 2.1-.84 2.22-1.68l-8.82-.9v22.08h-9.24l.48 1.74h7.38c-1.68 7.86-4.62 16.5-8.76 22.56l.72.66a49.08 49.08 0 0 0 9.42-10.2v19.5h1.32c2.52 0 5.28-1.32 5.28-1.98V39.38c1.44 2.82 2.76 6.3 3 9.24 5.16 4.74 11.1-5.58-3-11.34zm17.52 14.16h10.98v14.94h-10.98zM315.2 18.2v13.32h-10.98V18.2zm0 29.04h-10.98V33.2h10.98zm6.72 16.44v-44.7c1.56-.24 2.28-.54 2.7-1.2l-7.08-5.16-2.94 3.9h-9.84l-7.08-2.76v3.66l-7.38-2.46c-.84 4.98-2.04 10.74-3.06 14.4l.96.42c2.7-2.94 5.34-7.08 7.5-11.1.96.06 1.62-.24 1.98-.66v45.9h-6.9l.48 1.74h35.94c.84 0 1.38-.3 1.5-.96-1.44-2.04-4.38-5.28-4.38-5.28zm21.42-36.24c2.04-3.72 3.9-7.86 5.46-12.24 1.44 0 2.16-.48 2.4-1.26L341.3 11c-2.1 11.52-6.54 23.52-10.98 31.2l.72.48a47.67 47.67 0 0 0 6.24-6.3v30.96h1.32c2.7 0 5.58-1.5 5.64-2.04V29.66c1.14-.24 1.68-.6 1.92-1.2zm41.4-1.44c.84 0 1.44-.3 1.62-.96-2.4-2.4-6.6-5.88-6.6-5.88l-3.6 5.1h-6.96V13.82c1.62-.24 2.1-.84 2.22-1.74l-9.24-.9v13.08H346.7l.48 1.74h11.64c-2.4 10.8-7.14 22.26-13.98 30.12l.66.66c7.26-5.28 12.84-11.94 16.68-19.68v16.32h-8.94l.42 1.68h8.52v12.48h1.32c2.7 0 5.7-1.74 5.7-2.46V55.1h8.4c.84 0 1.44-.3 1.62-.96-2.04-2.22-5.64-5.46-5.64-5.46l-3.18 4.74h-1.2V26h.12c2.34 13.38 6.3 23.64 12.78 30.3 1.08-3.3 3.3-5.34 5.88-5.88l.24-.6C380.9 45.38 374.06 36.56 370.4 26z"/></svg>