<svg viewBox="0 0 403 80" xmlns="http://www.w3.org/2000/svg"><path d="M21.9 47.48c-.18 5.22-3 9.9-5.76 11.76-.84.78-1.38 1.8-.78 2.52.6.84 2.46.18 3.72-.9 2.04-1.86 4.98-6.36 4.02-13.32zm18.72-30.36v9.54H25.98v-9.54zm17.34 0v9.54h-14.7v-9.54zm-14.7 21.06v-9.72h14.7v9.72zm-17.28 0v-9.72h14.64v9.72zm31.98 1.8v2.94h.36c.9 0 2.22-.78 2.28-1.14V17.72c1.2-.24 2.16-.72 2.58-1.2l-4.02-3.12-1.8 1.92H26.28l-2.94-1.5v30.06h.48c1.08 0 2.16-.72 2.16-1.02v-2.88zm-19.8 3.9c2.94 2.58 6.36 7.2 6.66 10.92 3.06 2.46 5.28-5.52-6.06-11.46zm18.96 9.84h-.84c-.48 3.42-1.08 6.42-1.5 7.38-.24.6-.42.78-1.26.84-1.14.12-4.26.12-8.7.12h-8.94c-3.3 0-3.6-.24-3.6-1.26V47.6c1.14-.18 1.68-.72 1.8-1.44l-4.44-.6v15.72c0 2.58.96 3.3 6.06 3.3h9.24c12.06 0 13.92-.42 13.92-1.92 0-.6-.36-.96-1.56-1.26zm1.2-6c3.3 2.94 7.38 8.22 8.1 12.3 3.42 2.58 5.58-6-7.38-12.84zm20.04-34.68c2.88 1.5 6.42 4.44 7.5 6.96 3.66 1.74 4.8-5.64-6.9-7.62zm-3.84 13.68c2.7 1.38 5.82 4.08 6.78 6.36 3.66 1.74 4.92-5.58-6.18-6.96zm15.42-3.36C80.58 46.7 80.58 46.7 79.68 48.74c-.54 1.2-.72 1.26-1.38 1.26h-2.52v1.38c1.26.12 2.04.24 2.76.84 1.26.84 1.62 5.22.9 11.22 0 1.74.48 2.94 1.5 2.94 1.68 0 2.52-1.38 2.64-3.84.24-4.68-1.2-7.68-1.2-10.08-.06-1.5.3-3.3.84-5.1.78-2.64 5.46-16.38 7.8-23.7zm13.44 25.26c-2.04 4.32-6.24 10.2-10.62 13.92l.72.84c4.98-3.24 9.66-8.34 12.06-12.06 1.38.24 1.86 0 2.22-.6zm13.5 1.14c3.6 3.06 8.28 8.4 9.48 12.36 3.72 2.52 5.58-6-8.76-12.9zm5.34-22.56v6.9H102.6v-6.9zm0 15.24H102.6V35.9h19.62zM102.9 25.4l-2.94-1.44V47h.48c1.02 0 2.16-.66 2.16-.9v-1.86h8.46v17.4c0 .84-.24 1.14-1.32 1.14-1.14 0-6.6-.42-6.6-.42v.96c2.4.24 3.84.6 4.68 1.08.66.36 1.02 1.14 1.08 1.86 4.2-.48 4.8-2.1 4.8-4.56V44.24h8.52v2.34h.36c.9 0 2.22-.78 2.28-1.08V27.8c1.2-.24 2.16-.72 2.58-1.2l-4.02-3.12-1.8 1.92h-11.58c1.08-1.26 2.16-2.94 3-4.5 1.14 0 1.8-.54 2.04-1.2l-4.92-1.38c-.48 2.52-1.08 5.16-1.86 7.08zm19.68-8.88h-26.7l-3.24-1.62v15.54c0 12-1.02 24.66-8.04 35.04l1.02.72c8.82-10.5 9.66-25.08 9.66-35.82V18.32h32.7c.84 0 1.38-.3 1.56-.96-1.8-1.68-4.56-3.84-4.56-3.84zm35.58-4.26c2.1 1.86 4.38 5.1 4.86 7.62 3 2.28 5.4-4.38-4.14-8.1zm24.78 10.68c-.96 2.22-2.4 5.16-3.48 6.84l.84.48c2.22-1.68 5.1-4.74 6.66-6.84 1.14-.06 1.86-.12 2.28-.54l-4.08-3.96-2.16 2.22h-40.32c-.06-.96-.24-1.92-.54-2.94l-1.14.06c.36 4.26-1.86 7.98-4.38 9.36-1.02.66-1.62 1.68-1.2 2.64.66 1.08 2.52.84 3.84-.18 1.62-1.02 3.3-3.42 3.48-7.14zm3.48 15.18c.84 0 1.44-.3 1.56-.96-1.8-1.74-4.62-3.9-4.62-3.9l-2.46 3.06h-17.58V27.5c1.5-.24 1.98-.84 2.16-1.68l-4.8-.6v11.1h-24.24l.54 1.8h22.26c-4.8 10.2-13.44 19.38-24.78 25.38l.6 1.02c11.52-5.28 20.22-13.14 25.62-22.86v24.78h.54c.96 0 2.1-.66 2.1-1.14V38.12h.24c4.86 11.4 13.5 20.76 22.62 25.62.48-1.2 1.62-1.92 2.76-1.98l.12-.66c-9.36-3.96-18.9-13.02-24.06-22.98zm18.42-10.44c1.98-4.14 3.66-8.46 5.1-12.9 1.38 0 1.98-.54 2.22-1.26l-4.92-1.5c-2.94 11.4-7.8 22.92-12.66 30.3l.96.6c2.46-3 4.92-6.66 7.08-10.8V66.5h.54c1.02 0 2.16-.84 2.22-1.08v-35.7c1.02-.18 1.62-.54 1.86-1.08zm42.12-1.74c.78 0 1.32-.3 1.5-.96-1.74-1.68-4.56-3.84-4.56-3.84l-2.4 3h-11.88v-9.72c1.44-.24 1.98-.84 2.1-1.68l-4.74-.6v12h-18l.48 1.8h15.3c-3.36 10.98-9.48 21.6-17.7 29.4l.84.84c8.88-7.38 15.36-17.28 19.08-28.26v24.3h-10.92l.42 1.8h10.5v12.3h.6c.9 0 2.04-.54 2.04-.96V54.02h10.26c.78 0 1.38-.3 1.5-.96-1.56-1.56-4.02-3.48-4.02-3.48l-2.1 2.64h-5.64V25.94h.3c3.6 12.66 9.96 23.4 17.4 29.58a3.127 3.127 0 0 1 2.82-2.1l.18-.6c-7.68-5.04-15.06-15.66-19.02-26.88zm36.24 1.5h8.7c.78 0 1.38-.3 1.56-.96-1.8-1.68-4.56-3.84-4.56-3.84l-2.46 3h-3.24v-11.7c1.5-.24 1.98-.78 2.16-1.68l-4.8-.6v13.98h-10.2l.42 1.8h8.82c-1.86 9.18-5.22 18.24-10.32 25.26l.96.84c4.56-5.34 7.98-11.58 10.32-18.48V66.5h.6c.9 0 2.04-.72 2.04-1.26V34.7c2.28 2.46 5.16 6.12 6 8.88 3.36 2.16 5.46-4.74-6-10.08zm31.44-10.26c-1.56 4.32-4.38 10.74-6.3 14.64-.78.24-1.68.6-2.22.9l3 2.76 1.44-1.32h8.46c-1.74 6.84-4.56 13.08-8.82 18.24-5.88-7.56-9.18-17.7-10.92-28.62.06-2.22.06-4.38.12-6.6zm6.24 13.32l-2.04 1.86h-7.86c2.16-4.44 5.04-10.86 6.48-14.7 1.08-.06 2.04-.36 2.52-.84l-3.66-3.24-1.68 1.8h-25.2l.48 1.8h6.6c-.06 18.72.18 35.94-11.1 48.24l1.02 1.08c9.72-9.3 11.94-21.54 12.6-35.52 1.8 9.42 4.62 17.34 9.24 23.7-4.14 4.38-9.54 8.04-16.32 10.74l.6 1.02c7.2-2.46 12.72-5.94 17.1-10.08 3.42 4.14 7.74 7.5 13.14 9.84.48-1.26 1.56-2.04 2.58-2.16l.12-.6c-5.58-1.98-10.08-5.1-13.74-9.18 4.98-5.64 8.1-12.3 10.2-19.8 1.32-.06 1.92-.18 2.4-.72zm12.9 32.82c.48-.24.96-.72 1.08-1.44 7.14-3.12 12.72-5.94 16.86-8.16l-.36-.84c-7.98 2.82-16.2 5.46-20.04 6.42zm8.1-50.28c-1.8 4.44-6.24 12.84-9.96 16.62-.3.24-1.38.48-1.38.48l1.68 4.44c.36-.12.78-.42 1.08-.84 3.48-.66 7.02-1.44 9.72-2.04-3.3 4.92-7.38 10.14-10.86 13.32-.36.36-1.5.54-1.5.54l1.68 4.44c.48-.12.96-.54 1.32-1.08 6.9-1.86 13.5-3.96 17.16-4.98l-.12-1.02c-6.24 1.08-12.36 2.04-16.32 2.58 5.94-5.58 12.42-13.56 15.72-18.96 1.2.3 1.98-.12 2.28-.66l-4.32-2.76c-.9 1.92-2.34 4.38-4.08 7.02-3.96.24-7.8.42-10.5.48 4.02-4.14 8.34-10.14 10.68-14.4 1.26.18 1.98-.36 2.22-.9zm27 45.96V38.84h10.2V59zm-12.6-20.16h10.14V59h-10.14zm10.14-20.1v18.3h-10.14v-18.3zm12.66 0v18.3h-10.2v-18.3zm1.32-3.78l-1.62 1.98H357l-3.3-1.56V66.2h.36c1.32 0 2.22-.78 2.22-1.08V60.8h22.8v4.68h.36c1.08 0 2.22-.78 2.22-1.08V19.1c1.44-.18 2.16-.54 2.64-1.02z"/></svg>