<svg viewBox="0 0 403 80" xmlns="http://www.w3.org/2000/svg"><path d="M22.84 47.3c-.12 5.04-2.88 9.6-5.58 11.4-1.02.78-1.68 1.86-1.02 2.88.6 1.02 2.64.54 4.02-.6 2.22-1.8 5.04-6.48 3.72-13.68zm18.54-30.12v9.48H27.4v-9.48zm17.22 0v9.48H44.56v-9.48zm-14.04 21v-9.72H58.6v9.72zm-17.16 0v-9.72h13.98v9.72zm31.2 1.8v2.94h.42c1.08 0 2.7-.84 2.76-1.2V17.84c1.2-.24 2.16-.72 2.58-1.2l-4.38-3.36-1.98 2.1H27.7l-3.54-1.68v30.24h.6c1.32 0 2.64-.84 2.64-1.2v-2.76zM39.1 43.7c2.94 2.58 6.24 7.14 6.48 10.98 3.48 2.76 6.3-5.88-5.76-11.52zm19.02 9.72h-.84c-.54 3.42-1.2 6.3-1.68 7.32-.24.6-.48.78-1.32.84-1.14.12-4.14.12-8.34.12h-8.76c-3.18 0-3.48-.24-3.48-1.2V47.54c1.14-.18 1.68-.72 1.8-1.44l-5.04-.6v15.6c0 2.82 1.08 3.6 6.36 3.6h9.12c12.06 0 14.04-.48 14.04-2.16 0-.72-.36-1.14-1.68-1.5zm.96-5.94c3.3 3.06 7.2 8.34 7.92 12.54 3.9 3.06 6.6-6.36-7.2-13.08zm20.1-34.62c2.82 1.62 6.12 4.62 7.14 7.2 4.02 2.1 5.76-5.88-6.54-7.8zm-3.84 13.8c2.64 1.44 5.58 4.2 6.54 6.54 3.9 2.04 5.7-5.76-5.94-7.14zm15.54-3.6c-9.36 23.52-9.36 23.52-10.32 25.56-.54 1.2-.72 1.26-1.38 1.26h-2.52v1.38c1.26.12 1.98.24 2.76.84 1.26.84 1.62 5.4.84 11.4.06 1.8.66 3 1.74 3 1.8 0 2.82-1.56 2.94-4.02.18-4.74-1.38-7.68-1.38-10.14-.06-1.5.3-3.36.84-5.22.78-2.7 5.28-16.44 7.56-23.82zm13.32 25.38c-1.86 4.38-6 10.38-10.26 14.22l.72.84c5.04-3.24 9.72-8.34 12.12-12.12 1.38.24 1.86-.06 2.22-.66zm13.8 1.2c3.48 3.12 7.92 8.4 9.06 12.42 3.96 2.76 6.24-6.12-8.34-12.96zm4.98-22.44v6.9H104.2v-6.9zM104.2 42.44V35.9h18.78v6.54zm19.02-25.98H97.24l-3.78-1.74v15.72c0 11.94-.96 24.72-7.74 35.1l.9.72c9.18-10.38 9.96-25.14 9.96-35.88V18.26h14.52c-.42 2.52-1.02 5.22-1.68 7.14h-4.92l-3.36-1.56V47h.54c1.2 0 2.52-.78 2.52-1.02v-1.74h7.8v16.98c0 .84-.24 1.14-1.26 1.14-1.14 0-6.54-.42-6.54-.42v.96c2.4.24 3.84.66 4.68 1.2.66.54.96 1.38 1.02 2.28 4.62-.54 5.28-2.34 5.28-5.1V44.24h7.8v2.28h.42c1.08 0 2.64-.84 2.7-1.2V27.86c1.14-.24 2.1-.72 2.52-1.2l-4.32-3.3-1.92 2.04h-11.16c1.2-1.32 2.34-2.94 3.24-4.56 1.14 0 1.86-.54 2.1-1.14l-5.22-1.44h17.7c.84 0 1.38-.3 1.56-.96-1.86-1.74-4.8-4.08-4.8-4.08zm35.7-4.26c2.1 1.86 4.32 5.1 4.74 7.74 3.54 2.64 6.48-4.98-4.08-8.22zm24.66 10.74c-.9 2.28-2.22 5.1-3.24 6.9l.84.48c2.22-1.68 5.22-4.68 6.84-6.78 1.26-.06 1.92-.12 2.28-.54l-4.38-4.26-2.34 2.4H143.8c-.12-.96-.3-1.98-.6-3l-1.14.06c.36 4.08-1.92 7.68-4.38 9.06-1.14.66-1.92 1.8-1.38 2.94.66 1.32 2.76 1.2 4.14.12 1.68-1.14 3.36-3.54 3.42-7.38zM187.54 38c.78 0 1.38-.3 1.5-.96-1.86-1.8-4.92-4.08-4.92-4.08l-2.64 3.3h-16.86v-8.88c1.5-.24 1.98-.84 2.1-1.68l-5.34-.6v11.16h-23.94l.54 1.74h21.66c-4.62 10.2-13.14 19.44-24.24 25.5l.6 1.02c11.34-5.16 19.98-12.84 25.38-22.2v24.12h.66c1.14 0 2.58-.72 2.58-1.2V38h.12c4.74 11.46 13.08 20.82 22.26 25.74.54-1.5 1.74-2.4 3.12-2.46l.12-.66c-9.36-3.84-18.9-12.72-24.12-22.62zm18.48-10.32c1.98-4.08 3.72-8.46 5.16-12.84 1.38 0 1.98-.54 2.22-1.26l-5.52-1.74c-2.82 11.4-7.62 23.04-12.42 30.48l.9.54c2.46-2.76 4.8-6.18 6.96-10.02v33.78h.66c1.2 0 2.58-.9 2.64-1.2V29.66c1.08-.18 1.62-.54 1.86-1.08zm42-1.8c.84 0 1.38-.3 1.56-.96-1.86-1.74-4.8-4.08-4.8-4.08l-2.64 3.3h-11.22V14.3c1.5-.24 1.98-.84 2.1-1.68l-5.28-.6v12.12H210.1l.48 1.74h14.82c-3.24 10.98-9.18 21.78-17.22 29.58l.78.84c8.7-7.14 15.06-16.56 18.78-27.12V52.4h-10.68l.42 1.8h10.26v12.3h.66c1.14 0 2.52-.66 2.52-1.14V54.2H241c.72 0 1.32-.3 1.44-.96-1.56-1.62-4.2-3.72-4.2-3.72l-2.28 2.88h-5.04V25.88h.24c3.42 12.84 9.54 23.52 16.8 29.76.66-1.56 1.92-2.46 3.24-2.58l.18-.6c-7.62-4.98-14.94-15.42-18.9-26.58zm25.38 24.06c.48-.18.9-.54 1.32-1.02 8.22-2.16 15.48-4.5 19.5-5.7l-.18-1.08c-6.84 1.14-13.68 2.22-18.36 2.82 6.66-5.4 13.86-13.2 17.64-18.48 1.14.24 1.98-.12 2.28-.6l-4.74-3.24c-1.02 1.86-2.52 4.2-4.26 6.66-4.44.24-8.7.42-11.76.48 4.44-4.02 9.3-9.9 12.06-14.04 1.26.24 1.98-.3 2.28-.84l-5.1-2.58c-1.98 4.5-7.14 12.96-11.28 16.56-.36.36-1.44.54-1.44.54l1.92 4.92c.42-.12.84-.48 1.2-.96 4.08-.84 8.04-1.74 10.92-2.46-3.72 5.04-8.34 10.44-12.24 13.62-.42.3-1.62.54-1.62.54zm.84 12.9c.54-.18 1.08-.78 1.26-1.44 8.58-3.18 15.12-6.06 19.98-8.28l-.3-.9c-9.36 2.64-18.96 5.1-23.34 5.82zM319 36.98h-8.58V18.62c3.66-.84 6.96-1.74 9.72-2.58 1.32.54 2.34.54 2.88 0l-4.2-3.54c-5.58 2.58-16.38 6.12-25.14 7.92l.36 1.08c4.26-.48 8.88-1.26 13.2-2.22v17.7H292l.42 1.8h14.82v27.54h.48c1.62 0 2.7-.78 2.7-1.08V38.78h14.34c.78 0 1.38-.3 1.56-.96-1.86-1.8-4.8-4.14-4.8-4.14zm15.72 26.58c.48-.24.96-.72 1.08-1.44 7.26-3.3 12.78-6.24 16.8-8.52l-.24-.84c-8.1 2.76-16.44 5.34-20.28 6.24zm7.8-50.64c-1.68 4.5-6.12 12.9-9.72 16.56-.36.24-1.44.54-1.44.54l1.92 4.8c.36-.12.78-.42 1.08-.84 3.36-.78 6.72-1.62 9.3-2.28-3.24 4.86-7.26 10.02-10.56 13.08-.48.36-1.68.54-1.68.54l1.92 4.8c.48-.12.9-.48 1.32-1.08 6.96-1.92 13.5-4.14 17.16-5.28l-.12-1.02c-6.24 1.08-12.3 2.04-16.32 2.52 5.94-5.4 12.42-13.26 15.84-18.6 1.14.3 1.86-.12 2.16-.66l-4.74-2.94c-.84 1.86-2.22 4.32-3.9 6.84-3.84.3-7.56.48-10.2.54 4.02-4.02 8.4-9.96 10.8-14.22 1.26.18 1.98-.36 2.22-.9zM370.06 59V38.84h9.6V59zm-12.48-20.16h9.6V59h-9.6zm9.6-20.04v18.24h-9.6V18.8zm12.48 0v18.24h-9.6V18.8zm1.56-4.02L379.36 17H358.3l-3.78-1.74v51h.48c1.56 0 2.58-.84 2.58-1.14V60.8h22.08v4.74h.48c1.32 0 2.64-.9 2.64-1.2V19.16c1.44-.18 2.16-.54 2.64-1.02z"/></svg>