<svg viewBox="0 0 405 80" xmlns="http://www.w3.org/2000/svg"><path d="M22.42 46.52c.12 4.26-2.46 8.16-4.8 9.66-1.74.9-2.94 2.52-2.22 4.44.84 1.98 3.54 2.28 5.4.96 2.94-1.92 5.34-7.32 2.52-15.06zM40.3 17.3v9.42H29.02V17.3zm16.74 0v9.42H45.76V17.3zm-11.28 21v-9.84h11.28v9.84zm-16.74 0v-9.84H40.3v9.84zm28.02 1.74v3.18H58c1.86 0 4.68-1.2 4.74-1.62V18.26c1.26-.24 2.16-.78 2.52-1.26l-5.94-4.62-2.88 3.18h-27l-6.12-2.58v31.2h.84c2.4 0 4.86-1.26 4.86-1.86v-2.28zM39.1 42.8c2.46 2.76 5.04 7.2 5.28 11.1 5.34 4.32 10.56-7.14-4.74-11.52zm18.78 9.24h-.72c-1.02 3.48-1.86 6.12-2.46 7.14-.42.66-.72.84-1.68.9-1.02.06-3.66.06-6.78.06h-7.92c-2.58 0-2.88-.24-2.88-1.14V47.36c1.2-.24 1.74-.72 1.86-1.5l-7.56-.72v15c0 4.08 1.44 5.04 7.74 5.04h8.28c12 0 14.64-.84 14.64-3.36 0-1.08-.48-1.74-2.34-2.34zm.06-5.52c3.24 3.48 6.54 8.88 7.02 13.62C70.9 65 76.12 51.86 58.48 46.1zm20.64-34.14c2.28 1.92 4.86 5.22 5.7 8.22 5.4 3.48 9.72-7.08-5.16-8.7zm-3.72 13.86c2.04 1.74 4.44 4.74 5.16 7.5 5.22 3.36 9.3-6.78-4.68-7.98zm16.02-4.68c-9.54 24.54-9.54 24.54-10.62 26.7-.54 1.2-.78 1.26-1.56 1.26h-2.64v1.2c1.26.12 2.16.36 3 .96 1.32.9 1.62 6.24.66 12.42.3 2.04 1.38 3 2.64 3 2.46 0 4.02-1.8 4.14-4.62.24-5.22-1.92-7.62-1.98-10.62-.06-1.56.3-3.6.78-5.52.66-3.18 4.5-17.04 6.6-24.6zm12.66 26.28c-1.44 4.62-4.8 11.28-8.7 15.6l.66.72c5.28-3.24 9.78-8.34 12.36-12.42 1.44.18 1.92-.12 2.22-.78zm15.24 1.38c2.82 3.36 6.3 8.58 7.14 12.84 5.16 3.96 9.3-6.78-6.48-13.26zm3.24-22.08v7.02h-15.18v-7.02zm-15.18 15.3V35.9h15.18v6.54zM121.9 16.4H99.1l-6.3-2.46v16.74c0 11.76-.6 25.08-6.42 35.7l.84.54C97.54 56.72 98.2 41.54 98.2 30.68v-12.6h12.72c-.18 2.64-.54 5.28-.96 7.32h-2.82l-5.4-2.28v23.94h.78c2.1 0 4.32-1.2 4.32-1.62v-1.26h4.98v15.54c0 .72-.24 1.02-1.14 1.02-1.14 0-6.24-.3-6.24-.3v.84c2.58.36 3.84 1.02 4.56 1.86.72.84 1.02 2.16 1.08 3.9 6.18-.54 7.08-3.3 7.08-7.2V44.18h4.86v2.28h.84c1.68 0 4.26-1.08 4.32-1.44V27.98c1.14-.24 1.98-.72 2.34-1.14L124 22.58l-2.58 2.82h-9.3c1.5-1.26 3-2.94 4.26-4.5 1.26-.06 1.98-.6 2.22-1.38l-5.88-1.44h16.86c.84 0 1.5-.3 1.62-.96-2.28-2.1-6.06-4.98-6.06-4.98zm35.88-4.68c2.22 1.92 4.08 5.22 4.32 8.22 5.82 4.32 11.28-7.32-3.78-8.64zm24.3 11.22c-.6 2.34-1.5 5.28-2.28 7.26l.6.42c2.7-1.62 6.18-4.44 8.22-6.54 1.14-.06 1.8-.18 2.28-.66l-5.76-5.58-3.3 3.36H144.1c-.18-1.08-.48-2.22-.9-3.42h-.9c.18 3.48-2.28 6.54-4.44 7.74-1.8.9-3 2.52-2.34 4.5.84 2.16 3.72 2.58 5.52 1.32 2.04-1.32 3.6-4.14 3.3-8.4zm5.7 14.94c.84 0 1.5-.3 1.62-.96-2.34-2.16-6.12-5.04-6.12-5.04l-3.36 4.26h-14.1V26.9c1.44-.24 1.92-.84 2.04-1.62l-7.74-.78v11.64h-22.98l.54 1.74H157c-4.08 10.02-11.82 19.86-22.08 26.1l.54.84c10.8-4.74 19.14-11.46 24.66-19.86V67.1h1.08c2.1 0 4.62-1.26 4.62-1.92v-26.7C170.08 50 177.1 58.94 185.98 64.1c.84-2.64 2.64-4.38 4.86-4.74l.18-.6c-9.3-3.54-18.96-11.4-24.12-20.88zm19.02-10.32c2.04-3.9 3.84-8.1 5.4-12.48 1.38 0 2.1-.54 2.34-1.26l-8.4-2.52c-2.28 11.52-6.9 23.4-11.4 30.96l.78.48c2.28-2.16 4.44-4.68 6.48-7.38V67.1h1.08c2.16 0 4.5-1.32 4.56-1.74v-35.7c1.08-.24 1.62-.54 1.86-1.14zM248.44 26c.84 0 1.44-.3 1.62-.96-2.28-2.22-5.94-5.28-5.94-5.28l-3.36 4.5h-8.4V13.94c1.56-.24 2.04-.84 2.22-1.68l-7.86-.84v12.84h-16.26l.48 1.74h12.72c-2.58 10.74-7.86 22.08-15.12 29.88l.78.72c7.68-5.88 13.5-13.44 17.4-22.02v18.48h-9.6l.48 1.74h9.12v12.42h1.08c2.1 0 4.56-1.38 4.56-1.98V54.8h9c.84 0 1.44-.3 1.56-.96-1.86-2.04-5.16-4.86-5.16-4.86l-2.82 4.08h-2.58V26h.18c2.7 13.2 7.38 23.64 14.16 30.06.96-2.7 2.82-4.38 4.98-4.74l.24-.6C244.48 46.1 237.4 36.68 233.68 26zm52.68 16.02V26.06h15.18v15.96zm-21.18 0V26.06h15.18v15.96zm38.7-20.94l-2.94 3.24h-14.58V13.88c1.62-.24 2.04-.9 2.22-1.74l-8.22-.84v13.02h-14.64l-6.42-2.7v27.96h.9c2.4 0 4.98-1.38 4.98-1.92v-3.9h15.18V67.1h1.14c2.28 0 4.86-1.5 4.86-2.16V43.76h15.18v4.98h1.02c1.98 0 4.92-1.08 4.98-1.5V27.08c1.26-.24 2.1-.78 2.52-1.26zm28.5 8.88c2.52-2.94 5.04-7.2 7.08-11.22 1.26.06 1.98-.42 2.28-1.14l-6.9-2.34c-.9 4.98-2.28 10.62-3.42 14.28zM331.3 16.28c1.08 3.48 2.22 8.4 1.98 12.42 3.84 4.2 8.88-4.38-1.2-12.66zm13.98 18.6h9c.84 0 1.38-.3 1.56-.96-2.04-1.92-5.4-4.62-5.4-4.62l-2.88 3.84h-2.28V13.88c1.62-.24 2.04-.84 2.16-1.68l-7.56-.84v21.78h-9.6l.48 1.74h7.8c-1.8 7.86-4.92 16.38-9.12 22.56l.78.66c3.78-3.42 7.08-7.38 9.66-11.82V67.1h1.08c2.04 0 4.32-1.08 4.32-1.68V39.56c1.74 2.76 3.54 6.24 4.02 9.12 4.62 3.84 9.3-5.22-4.02-10.86zm17.28 14.1h12.78v14.7h-12.78zm12.78-30.66v13.26h-12.78V18.32zm0 28.92h-12.78V33.26h12.78zm5.58 16.44h-.06V19.1c1.5-.24 2.28-.54 2.76-1.2l-6.36-4.62-2.52 3.36h-11.58l-5.94-2.4v49.44h-7.32l.48 1.74h35.76c.84 0 1.38-.3 1.5-.96-1.44-1.98-4.26-5.04-4.26-5.04z"/></svg>