<svg viewBox="0 0 446 80" xmlns="http://www.w3.org/2000/svg"><path d="M16.97 28.08h17.69v-3.99H16.97v3.99zm17.69-6.92v-3.98H16.15v3.98h18.51zM24.23 39.09h-6.68v3.99h41.02v-3.99h-25.9l4.22-4.1h28.24v-3.98H44.16v-2.93h19.45v-3.99H44.16v-2.93h20.27v-3.98H44.16v-2.93h-7.74v16.76H15.45v3.98h13.12l-4.34 4.1zm36.22 15.24h-7.62l3.98 9.49h7.62l-3.98-9.49zm-15.24 7.62v-2H31.15v3.99h10.19l3.87-1.99zm-17.23-7.62h-7.61l-3.99 9.49H24l3.98-9.49zm9.5-1.88v8.09h7.73v-8.09h14.88l3.87-1.99v-5.62h-7.73v3.63H36.89l5.63-5.63h-8.44l-5.74 5.63H17.09v3.98h20.39zm45.58-27.42v38.79h7.5V25.03h7.74v-3.98h-7.74v-6.92h-7.5v6.92h-7.61v3.98h7.61zm-1.4 2.81H76.5l-.94 35.98h5.28l.82-35.98zm15.58 0h-5.27l.94 35.98h5.15l-.82-35.98zm14.18.12h-7.38l-3.28 35.86h7.5l3.16-35.86zm13.71-1.99v-3.99h-2.58v-7.61h-7.73v7.61h-14.65l.12 3.99h14.53v33.75h-3.52v3.98h7.39l3.86-1.99V25.97h2.58zm59.77 23.55v-3.98h-20.39v-2.93h-7.74v2.93h-20.39v3.98h8.56l-8.32 12.78 7.26 1.29 9.03-14.07h3.86v14.3h7.74v-14.3h3.87l9.02 14.07 7.26-1.29-8.2-12.78h8.44zM144.94 37.8v-3.16h15.94v3.16h-15.94zm0-7.03v-3.16h15.94v3.16h-15.94zm0-6.91v-2.81h15.94v2.81h-15.94zm-7.39-5.51V39.8l3.75 1.87h42.78V37.8h-15.94V14.13h-7.26v3.05h-15.94v-.7l-3.64-1.88h-6.09v3.75h2.34zm46.53 16.29v-3.87H169.9v3.87h14.18zm0-7.03v-3.75H169.9v3.75h14.18zm0-6.56v-3.87H169.9v3.87h14.18zm11.37 3.4h49.68v-3.99h-49.68v3.99zm20.97-5.16h7.74l-1.53-5.04h-7.61l1.4 5.04zm14.3 37.03v3.98h8.79l3.87-1.99v-1.99h-12.66zm-25.9 3.52V33.59h11.6v30.35h7.74V33.59h11.48v23.32h7.74V31.48l-3.87-2h-15.35v-5.5h-7.74v5.5h-15.47l-3.86 2v28.36h7.73zm83.32-44.42h-6.56v9.26l3.63 1.87h4.69v9.38h7.62v-9.38h7.26V22.8h-7.26v-8.67h-7.62v8.67h-1.76v-7.38zm-6.8 20.04v3.87h23.68v-3.87h-23.68zm15.36 24.96h7.73V43.66l-3.87-1.99h-14.65l-3.86 1.99v18.17l3.86 1.99h14.65l3.87-1.99v-1.88H289.9v-.11h-.12V45.66h6.92v14.76zm-35.51-.23v-3.17h11.95v3.17h-11.95zm0-7.27v-2.58h3.04l2.35-1.29V27.26h1.17v21.79l2.34 1.29h3.05v2.58h-11.95zm0-6.56V27.14h1.05v19.22h-1.05zm5.04-22.73V18.7h1.87v4.93h-1.87zm5.86 22.73V27.14h1.05v19.22h-1.05zm-16.64-31.64v3.98h4.68v4.93h-1.87l-2.81 1.52V62.3l2.81 1.52h17.81l2.81-1.52V25.15l-2.81-1.52h-1.99V18.7h5.51v-3.98h-24.14zm67.5 8.67h41.83v-4.1h-20.86v-5.04h-7.85v5.04h-20.98v4.1h7.86zm32.1 36.45h-9.84v4.1h13.71l3.87-1.99V35.7l-3.87-2h-29.29l.82-8.43h-7.74l-3.28 34.57h-4.1v4.1h7.85l3.75-1.99 2.34-24.26h25.78v22.15zm65.86-33.4h-7.61l3.98 36.33h7.5l-3.87-36.33zm-45.82-11.6v3.98h3.64v45h7.61V16.83l-3.75-1.99h-7.5zm13.71 47.93h7.62l3.87-36.33h-7.5l-3.99 36.33zm21.92-7.97V14.48h-7.74V54.8h7.74zm4.45-.59h-16.64v3.99h4.45v5.62h7.74V58.2h4.45v-3.99zm9.61-29.88v-3.87h-14.06v-6.33h-7.74v6.33H388.8v3.87h35.98z"/></svg>