<svg viewBox="0 0 303 80" xmlns="http://www.w3.org/2000/svg"><path d="M61.56 19.78q.42.3-.06.9-.54.78-1.35 1.23-.81.45-1.29.33-.6-.18-1.17-.36t-1.23-.36q-1.5.12-2.88.93t-2.64 2.4q-1.26 1.59-2.4 4.02-1.14 2.43-2.22 5.85-3.12 10.14-8.73 15.21T24.12 55q-4.32 0-6.72-1.86-2.4-1.86-2.4-4.8 0-2.1 1.35-3.87t3.27-2.61q.24 0 .33.24.09.24-.03.42-1.02.78-1.44 1.74-.42.96-.42 2.22 0 3.06 2.31 4.74 2.31 1.68 6.51 1.68 2.88 0 5.07-.75 2.19-.75 3.93-2.61 1.74-1.86 3.21-5.01 1.47-3.15 3.03-7.95 2.16-6.78 5.28-10.71 3.12-3.93 7.2-4.83-3.96-1.02-8.22-1.62-4.26-.6-8.64-.6-3.36 0-5.88 1.05t-4.14 2.82q-1.62 1.77-2.34 4.17-.72 2.4-.36 5.1-.3.6-.66.12-.36-3 .48-5.82.84-2.82 2.82-5.04t5.13-3.54q3.15-1.32 7.53-1.32 6.36 0 11.64 1.05t9.6 2.37zm4.26 31.44q.12-.12.3 0t.12.36q-1.08 1.56-2.4 2.49-1.32.93-2.52.93-1.38 0-1.77-1.95-.39-1.95.39-4.65-1.62 2.58-3.51 4.41-1.89 1.83-3.99 2.19-1.44 0-2.22-1.32-.78-1.32-.78-3.06 0-1.98.96-3.93.96-1.95 2.55-3.51 1.59-1.56 3.54-2.55 1.95-.99 3.93-.99 2.1 0 3.3 1.02.6-.42 1.53-.72t1.65-.3q.24 0 .24.3-1.38 1.68-2.37 3.69-.99 2.01-1.53 3.84t-.66 3.27q-.12 1.44.24 1.98.3.36 1.02.21t1.98-1.71zM54.3 52.78q.72 0 1.77-.9t2.19-2.4q1.14-1.5 2.25-3.36 1.11-1.86 1.95-3.78-.24-.78-1.11-1.26-.87-.48-2.01-.48-1.38 0-2.58.69-1.2.69-2.07 1.92-.87 1.23-1.38 2.94-.51 1.71-.51 3.75 0 1.32.45 2.1t1.05.78zm31.74-1.98q.12-.12.3.03t.12.39q-1.08 1.5-2.49 2.64Q82.56 55 81.18 55q-1.02 0-1.59-.66-.57-.66-.57-1.74 0-2.1.75-4.56.75-2.46 2.01-4.98.18-.42.18-.9 0-.6-.54-.6-2.22 0-4.92 3.03-2.7 3.03-4.98 9.63-.06.18-.39.33-.33.15-.75.24t-.84.15q-.42.06-.66.06-.3 0-.45-.12-.15-.12-.03-.42 1.02-2.58 2.07-5.67 1.05-3.09 1.83-6.21.18-.6.06-.87t-.42-.27q-.66 0-1.26.57t-1.08 1.23q-.18.12-.33-.06-.15-.18-.09-.36.3-.42.81-.96t1.17-1.05q.66-.51 1.38-.84.72-.33 1.44-.33 1.02 0 1.35.63.33.63.15 1.53-.3 1.32-.63 2.49-.33 1.17-.81 2.61.72-1.32 1.77-2.61 1.05-1.29 2.34-2.34 1.29-1.05 2.79-1.68 1.5-.63 3.18-.63.72 0 1.11.36.39.36.39.84 0 .84-.42 1.5-1.26 2.28-2.13 4.71-.87 2.43-.87 4.35 0 1.56 1.02 1.56.66 0 1.32-.54t1.5-1.62zm14.94-12.06q.18-.12.36.03t.12.33q-.48.66-1.08 1.2-.6.54-1.5.66.84.96.84 2.34 0 1.5-.45 2.61-.45 1.11-1.05 2.07-.6.96-1.2 1.77t-.93 1.65q-.33.84-.24 1.83.09.99.93 2.25 1.32 2.04 1.95 3.6.63 1.56.63 3.36 0 1.5-.69 2.79t-1.95 2.28q-1.26.99-3.09 1.56-1.83.57-4.05.57-4.56 0-7.2-1.68-2.64-1.68-2.64-4.44 0-2.1 1.47-3.75t4.35-2.43q.3 0 .39.21.09.21-.03.39-1.32.48-2.1 1.44t-.78 2.52q0 3.06 2.1 4.95 2.1 1.89 5.52 1.89 2.88 0 4.26-1.5t1.38-3.78q0-1.38-.42-2.46t-1.2-2.46q-1.14-1.92-1.02-3.72.12-1.8 1.2-3.66.06-.12.09-.15t.09-.15q-.66.66-1.41 1.08-.75.42-1.47.42-1.74 0-2.67-1.02-.93-1.02-.93-3 0-1.5.66-3.06t1.71-2.82q1.05-1.26 2.37-2.04t2.7-.78q2.04 0 3.18-.15 1.14-.15 1.8-.75zm-4.8 10.02q.36-.84.6-1.74t.24-1.86q0-1.68-.57-2.7-.57-1.02-1.83-1.02-1.56 0-2.49 1.35-.93 1.35-.93 4.23 0 3.48 2.28 3.48.66 0 1.44-.51.78-.51 1.26-1.23zm18.84-6.12q0 3.42-9.06 4.68-.06.6-.09 1.2t-.03 1.26q0 1.56.72 2.4.72.84 2.28.84 1.14 0 2.34-.66t1.92-1.68q.24-.12.36.09t.06.45q-1.2 1.56-3.03 2.67-1.83 1.11-3.93 1.11t-3.03-1.05q-.93-1.05-.93-2.97 0-1.86.78-3.87t2.01-3.69q1.23-1.68 2.82-2.73 1.59-1.05 3.21-1.05 1.62 0 2.61.93.99.93.99 2.07zm-5.22-1.44q-1.38 0-2.37 1.29-.99 1.29-1.35 3.99 2.88-.3 4.26-1.11t1.38-2.01q0-.9-.54-1.53t-1.38-.63zm13.38.18q0 .9-.18 2.04-.18 1.14-.48 2.34 1.2-2.88 2.64-4.5 1.44-1.62 3.12-1.62.9 0 1.38.42.48.42.48 1.08 0 .6-.45 1.56-.45.96-.75 1.32-.12.06-.24-.03t-.12-.21q0-.42-.33-.72t-.99-.3q-2.1 0-3.81 2.85t-3.15 8.19q-.06.3-.42.51-.36.21-.81.36-.45.15-.93.24-.48.09-.84.09-.66 0-.36-.72.54-1.26 1.05-2.73t.93-2.97q.42-1.5.72-2.91.3-1.41.48-2.61.12-.9.09-1.38-.03-.48-.51-.48-.6 0-1.23.51T117.3 43q-.24.18-.45.03-.21-.15-.09-.39.36-.48.87-.99t1.14-.96q.63-.45 1.32-.75.69-.3 1.41-.3.96 0 1.32.45.36.45.36 1.29zm14.1-4.32q-.18.18-.39 0-.21-.18-.33-.51-.12-.33-.12-.72 0-.39.18-.69.66-.84 1.95-2.13t2.67-2.19q.12-.06.3.09t.12.27q-1.26 1.14-2.4 2.73t-1.98 3.15zm-6.42 6.78q-.18.12-.3-.09t-.06-.39q2.22-1.8 6.18-3.72.48 0 .48.54-.78 1.38-1.53 3t-1.32 3.21q-.57 1.59-.93 3.06-.36 1.47-.36 2.43 0 1.2.84 1.2.66 0 1.29-.57t1.47-1.47q.12-.12.3.03t.06.45q-1.32 1.56-2.61 2.52-1.29.96-2.49.96-2.1 0-2.1-1.98 0-1.08.33-2.55.33-1.47.9-3 .57-1.53 1.26-3 .69-1.47 1.41-2.55-.66.36-1.47.9-.81.54-1.35 1.02zm25.68 6.96q.12-.12.3.03t.12.39q-1.08 1.5-2.49 2.64-1.41 1.14-2.79 1.14-1.02 0-1.59-.66-.57-.66-.57-1.74 0-2.1.75-4.56.75-2.46 2.01-4.98.18-.42.18-.9 0-.6-.54-.6-2.22 0-4.92 3.03-2.7 3.03-4.98 9.63-.06.18-.39.33-.33.15-.75.24t-.84.15q-.42.06-.66.06-.3 0-.45-.12-.15-.12-.03-.42 1.02-2.58 2.07-5.67 1.05-3.09 1.83-6.21.18-.6.06-.87t-.42-.27q-.66 0-1.26.57t-1.08 1.23q-.18.12-.33-.06-.15-.18-.09-.36.3-.42.81-.96t1.17-1.05q.66-.51 1.38-.84.72-.33 1.44-.33 1.02 0 1.35.63.33.63.15 1.53-.3 1.32-.63 2.49-.33 1.17-.81 2.61.72-1.32 1.77-2.61 1.05-1.29 2.34-2.34 1.29-1.05 2.79-1.68 1.5-.63 3.18-.63.72 0 1.11.36.39.36.39.84 0 .84-.42 1.5-1.26 2.28-2.13 4.71-.87 2.43-.87 4.35 0 1.56 1.02 1.56.66 0 1.32-.54t1.5-1.62zm14.7-8.16q0 3.42-9.06 4.68-.06.6-.09 1.2t-.03 1.26q0 1.56.72 2.4.72.84 2.28.84 1.14 0 2.34-.66t1.92-1.68q.24-.12.36.09t.06.45q-1.2 1.56-3.03 2.67-1.83 1.11-3.93 1.11t-3.03-1.05q-.93-1.05-.93-2.97 0-1.86.78-3.87t2.01-3.69q1.23-1.68 2.82-2.73 1.59-1.05 3.21-1.05 1.62 0 2.61.93.99.93.99 2.07zm-5.22-1.44q-1.38 0-2.37 1.29-.99 1.29-1.35 3.99 2.88-.3 4.26-1.11t1.38-2.01q0-.9-.54-1.53t-1.38-.63zm45.78-8.04q1.8.54 3.21 1.62t2.4 2.49q.99 1.41 1.53 2.94t.54 2.97q0 2.58-.99 4.74t-3 3.75q-2.01 1.59-5.13 2.46-3.12.87-7.38.87-6.78 0-11.79-1.83-5.01-1.83-9.15-5.25-.18-.3.09-.69.27-.39.81-.69.54-.3 1.17-.42.63-.12 1.17.12 1.14 1.14 2.28 1.47 1.14.33 2.82.03 1.56-.3 2.61-1.17 1.05-.87 1.92-2.73.87-1.86 1.8-4.86t2.19-7.56q1.26-4.5 3.15-7.8t4.59-5.58q-.36 0-.75-.03t-.87-.03q-1.98 0-3.9.54t-3.63 1.62q-1.71 1.08-3.09 2.61-1.38 1.53-2.22 3.51-.18.12-.33.03-.15-.09-.09-.39.72-1.86 2.16-3.6 1.44-1.74 3.48-3.06t4.62-2.1q2.58-.78 5.46-.78h.78q.36 0 .72.06 1.26-.72 2.64-1.29 1.38-.57 2.94-.93.3 0 .3.21t-.3.33q-2.16.54-3.96 1.8 5.28.66 7.89 3 2.61 2.34 2.61 5.46 0 1.8-.72 3.3-.72 1.5-1.95 2.58t-2.94 1.68q-1.71.6-3.69.6zm-7.5 20.94q2.7 0 4.83-.75t3.57-2.04q1.44-1.29 2.19-3.03.75-1.74.75-3.78 0-7.8-9.6-10.38-.18-.18.15-.57.33-.39.87-.78t1.14-.63q.6-.24.96-.18.6.24 1.05.36.45.12 1.17.12 1.08 0 2.13-.48 1.05-.48 1.86-1.29t1.32-1.95q.51-1.14.51-2.46 0-2.88-2.16-5.1-2.16-2.22-6.48-2.88-3.84 3.96-6 12.06-1.56 5.82-3.09 9.39-1.53 3.57-3.18 5.58-1.65 2.01-3.51 2.73-1.86.72-4.2.84 3.06 2.28 7.14 3.75 4.08 1.47 8.58 1.47zm26.58-14.46q2.1 0 3.12 1.26t1.02 2.94q0 2.34-.93 4.35t-2.28 3.54q-1.35 1.53-2.91 2.4-1.56.87-2.82.87-2.04 0-3.09-1.23-1.05-1.23-1.05-3.15 0-1.74.75-3.66.75-1.92 1.98-3.54t2.85-2.7q1.62-1.08 3.36-1.08zm-3.3 13.5q1.86 0 3.15-1.95 1.29-1.95 1.29-5.37 0-1.8-.72-3t-2.1-1.2q-1.92 0-3.12 1.86-1.2 1.86-1.2 5.46 0 2.1.75 3.15.75 1.05 1.95 1.05zm35.52-42.72q.9 0 1.47.45t.78 1.2q.21.75.06 1.71t-.69 1.92q-.12.12-.3 0t-.24-.3q.12-.72-.51-1.2t-1.95-.48q-2.46 0-4.95 1.83t-4.83 4.83q-2.34 3-4.38 6.9-2.04 3.9-3.54 8.04-1.5 4.14-2.37 8.22-.87 4.08-.87 7.44 0 1.8 1.02 1.8.72 0 1.41-.6t1.59-1.8q.18-.12.33.03.15.15.09.39-1.2 1.8-2.82 3-1.62 1.2-2.94 1.2-1.14 0-1.59-.66-.45-.66-.45-1.68 0-2.82 1.2-7.05t3.21-8.94q2.01-4.71 4.65-9.39 2.64-4.68 5.49-8.43t5.73-6.09q2.88-2.34 5.4-2.34zm18.6-.78q.9 0 1.47.48t.81 1.26q.24.78.12 1.77t-.6 1.95q-.12.12-.3.09t-.24-.27q.12-.9-.48-1.35-.6-.45-1.68-.45-3.24 0-6.24 2.16t-5.67 6.63q-2.67 4.47-4.92 11.34t-4.05 16.35q-.3 1.32-.06 2.25.24.93.9.93t1.26-.54q.6-.54 1.08-1.38.12-.12.33 0 .21.12.15.36-.3.6-.87 1.26-.57.66-1.26 1.23-.69.57-1.44.93-.75.36-1.35.36-1.32 0-1.86-.96t-.42-2.16q.12-1.02.3-1.92.18-.9.42-1.92-1.2 2.58-3.36 4.47-2.16 1.89-4.26 2.49-1.38 0-2.22-1.02-.84-1.02-.84-2.64 0-2.34.84-4.47t2.28-3.75q1.44-1.62 3.42-2.58t4.26-.96q1.26 0 2.22.42 1.08-3.24 2.58-6.75t3.3-6.87q1.8-3.36 3.81-6.42t4.11-5.34q2.1-2.28 4.26-3.63 2.16-1.35 4.2-1.35zm-30.3 43.02q.66 0 1.56-.69t1.86-1.86q.96-1.17 1.8-2.7.84-1.53 1.44-3.27.24-.54.42-1.11.18-.57.3-1.11-.24-.72-.93-1.05-.69-.33-1.53-.33-1.26 0-2.46.75t-2.1 2.07q-.9 1.32-1.47 3.12t-.57 3.96q0 .96.45 1.59.45.63 1.23.63z"/></svg>