<svg viewBox="0 0 336 80" xmlns="http://www.w3.org/2000/svg"><path d="M41.9 61.56q0 .66-3.69 1.05t-7.38.39q-3.69 0-4.68-.33-.99-.33-.99-1.11v-25.8h-8.34q-.66 0-1.14-1.68-.48-1.68-.48-5.01t.72-6q.72-2.67 1.92-2.67H50.3q.9 0 1.23 1.68.33 1.68.33 4.86 0 3.18-.66 6t-1.8 2.82h-7.5v25.8zm29.76-29.58v29.58q0 .66-3.45 1.05t-7.08.39q-3.63 0-4.68-.33-1.05-.33-1.05-1.11v-28.5q0-1.32 3.39-2.61 3.39-1.29 7.41-1.29 5.46 0 5.46 2.82zM63.5 16.2q3.96 0 6.21 1.17t2.25 4.23q0 5.4-8.4 5.4t-8.4-5.4q0-5.4 8.34-5.4zm36.24 46.26q-1.08 1.02-4.92 1.02t-6.36-.51q-2.52-.51-4.8-2.01-4.38-2.94-4.38-12.24v-9.36h-3q-.66 0-1.14-1.38-.48-1.38-.48-3.78t.75-4.23q.75-1.83 1.95-1.83h1.92v-7.26q0-1.86 3.63-3t7.11-1.14q5.46 0 5.46 2.7v8.7h4.44q1.56 0 1.56 4.5 0 2.94-.69 4.83-.69 1.89-1.77 1.89h-3.54v10.98q0 1.62 1.38 2.31t2.43.69q1.05 0 1.29 1.02t.24 3.06q0 4.02-1.08 5.04zm16.74 1.08q-5.46 0-8.58-2.58-1.26-1.08-2.19-3.18-.93-2.1-.93-4.92t1.35-4.92q1.35-2.1 3.27-3.24 1.92-1.14 4.5-1.86 3.9-1.02 8.58-1.02h1.98q0-2.46-1.68-3.48-.72-.42-2.19-.42t-3.54.78q-2.07.78-3.45 1.59-1.38.81-1.86.81-1.08 0-2.94-2.85-1.86-2.85-1.86-5.19 0-.78 2.22-2.04t6.27-2.31q4.05-1.05 7.89-1.05t6.63.63q2.79.63 4.56 1.53 1.77.9 3 2.4t1.86 2.7q.63 1.2.93 3.12.42 2.22.42 5.46v18.06q0 .66-3.21 1.05t-6.36.39q-3.15 0-4.08-.18-.93-.18-1.11-.42-.18-.24-.3-.84l-.48-3.42h-.48q-1.5 5.4-8.22 5.4zm8.04-9.96v-7.02q-1.56 0-2.52 1.32t-.96 3q0 3.96 1.8 3.96.78 0 1.23-.39.45-.39.45-.87zm56.58-10.5v18.48q0 .66-3.42 1.05t-7.05.39q-3.63 0-4.68-.33-1.05-.33-1.05-1.11V42.48q0-2.7-.21-3.54-.21-.84-.39-1.5-.42-1.14-1.5-1.14-1.68 0-1.68 1.62v23.64q0 .66-3.39 1.05t-7.02.39q-3.63 0-4.71-.33t-1.08-1.11V31.98q0-1.26 3.45-2.52t7.29-1.26q3.84 0 4.32 2.22l.54 2.64h.42q1.74-3.48 6-4.86 1.74-.54 3.84-.54 6.06 0 8.19 3.63t2.13 11.79zm38.28 20.46q-4.98 0-8.55-.93-3.57-.93-6.57-3.33-6.06-4.74-6.06-18.18 0-5.64 1.65-9.84t4.59-6.66q5.76-4.8 14.94-4.8 4.74 0 8.25.84t6.63 3.06q6.3 4.56 6.3 17.4 0 11.52-5.7 16.98-5.7 5.46-15.48 5.46zm-1.98-10.29q.72.87 1.98.87t1.98-.87q.72-.87 1.2-3.72t.48-7.95q0-5.1-.48-7.86-.48-2.76-1.2-3.6-.72-.84-1.98-.84t-1.98.84q-.72.84-1.2 3.6-.48 2.76-.48 7.86 0 5.1.48 7.95.48 2.85 1.2 3.72zm62.94-10.17v18.48q0 .66-3.42 1.05t-7.05.39q-3.63 0-4.68-.33-1.05-.33-1.05-1.11V42.48q0-2.7-.21-3.54-.21-.84-.39-1.5-.42-1.14-1.5-1.14-1.68 0-1.68 1.62v23.64q0 .66-3.39 1.05t-7.02.39q-3.63 0-4.71-.33t-1.08-1.11V31.98q0-1.26 3.45-2.52t7.29-1.26q3.84 0 4.32 2.22l.54 2.64h.42q1.74-3.48 6-4.86 1.74-.54 3.84-.54 6.06 0 8.19 3.63t2.13 11.79zm21.96 6.36h-1.98q0 3.9 3.72 3.9 2.16 0 5.64-1.47 3.48-1.47 3.66-1.47 1.14 0 3 3.42t1.86 5.04q0 2.34-4.8 3.54-4.8 1.2-9.39 1.2-4.59 0-7.68-.72t-5.04-1.83q-1.95-1.11-3.42-2.73-1.47-1.62-2.19-3.09-.72-1.47-1.14-3.27-.6-2.64-.6-5.46 0-10.92 5.7-15.06 2.82-2.1 6.3-2.94 3.48-.84 8.22-.84 15.18 0 15.18 10.56 0 11.22-17.04 11.22zm-2.1-8.76v3.96q1.74 0 2.85-1.38t1.11-3.36q0-3.6-1.86-3.6-2.1 0-2.1 4.38z"/></svg>