<svg viewBox="0 0 399 80" xmlns="http://www.w3.org/2000/svg"><path d="M46.58 16.76l24.9 19.44-1.74 1.44-.84 4.56-26.58-21.06q-5.76 5.94-11.88 11.7l.54.18h24.66q1.44 0 1.32 1.5-.54 5.58-1.62 19.32l-7.86-2.82 1.68-.78q.54-6.42.9-11.52H35.72v20.7h27.72q2.58 0 4.26-1.08l-1.26 7.26h-30.9q-6.06 0-6.06-5.94V33.74q-5.88 5.58-10.32 9.48l-1.5-3.42-1.92-.9Q31.52 24.32 43.58 11l7.2 1.26-4.2 4.5zm84.48 33.9l-.84 5.82q-2.58.12-9.78.66V67.4h-6.36v-9.78q-14.4 1.14-35.04 3v-3.9l-.84-1.98 10.2-.78v-30.9q0-1.38-.06-1.98l-3.84.06q-2.58 0-3.84.06l.24-3.66-.78-2.04h48.36l-1.02 5.58-7.02-.06V51.5q3.42-.3 10.62-.84zm-17.16-29.7q-13.02 0-19.5.06v6.84h19.68v-2.94q0-2.34-.18-3.96zM94.4 33.02v6.84h19.68v-6.9q-10.98-.12-19.68.06zm0 12.18v8.28l19.68-1.5v-6.84q-10.92-.12-19.68.06zm93.36-26.94l-.9 5.76q-15.12-.24-34.98.06l-.72 9.72h32.82q1.56 0 1.44 1.68-.54 7.8-2.4 32.34l-8.34-3.24 1.92-.84 1.8-23.82h-34.14l1.8-24.6q.18-2.76-.12-4.26 4.56 1.08 6.84.72l-.48 6.48h35.46zm-12 29.88l-.9 5.58q-16.68-.24-37.98.06l.24-3.72-.66-1.92h39.3zm50.82 13.26h23.94l-.96 4.56q-24.42-.3-51.72.12l.3-3-.72-1.68h23.4v-3.54q-6.24 0-16.92.12l.24-2.88-.42-1.14q-.18.3-.84 1.14l-1.92-3.06-2.1-1.2q4.38-5.16 5.76-6.84l-6.3.06.3-2.82-.66-1.62h22.98v-3.18l-17.88.18.3-2.76-.6-1.44h18.18v-2.88h-18.06l.72-16.26 39.3.12q1.92 0 1.86 1.74-.18 5.22-.42 14.4h-17.52v2.88h18.06l-.72 4.14q-10.8-.12-17.34-.12v3.18h23.04l-.84 4.38-6.84-.06q1.38 1.56 6.36 7.44l-4.32 3.24-.12-.18-.54 3.48q-5.28-.06-16.98-.06v3.54zm-17.4-44.34v8.4h6.48l-5.1-5.64 3.18-2.58 5.28 5.82-2.82 2.4h4.86v-8.4h-11.88zm19.5 7.02l-1.32-.66q3.72-4.08 5.58-6.36h-6.72v8.4h3.3l-.84-1.38zm9.42 1.38v-8.4h-4.02l2.22 2.58q-2.4 3.06-5.28 5.82h7.08zM225.56 45.5l4.44-1.62q-7.74 0-11.58.06l2.58 5.34q3.66.54 5.58.36v3.96h16.8l-6.36-7.56 2.94-2.1q-3-.06-9.12-.06l3.48 6.6-5.16 1.98-3.6-6.96zm-21.54 8.1h16.8v-2.7l-4.14 1.62-3.54-7.38q1.92-.66 3.36-1.2-6.48 0-9.66.06l2.7 2.4-5.52 7.2zm77.64-23.94L272.72 62h-4.92q-1.74 0-2.4-.6-.72-.6-1.14-2.46-2.1-10.02-9.54-44.94h8.1l6.72 34.08 8.16-31.56h5.76q1.44 0 1.92.36t.78 1.74q.96 4.02 8.1 29.82L300.68 14h8.34L299 62h-6.06q-2.58 0-3.3-3.24-.9-3.72-7.98-29.1zm29.88 8.4q0-24.42 16.98-24.42 7.98 0 12.36 5.88 4.62 6.3 4.62 18.54 0 11.88-4.32 18.12-4.38 6.3-12.66 6.3-16.98 0-16.98-24.42zm7.56 0q0 8.82 2.64 13.32 2.46 4.14 6.78 4.14 4.2 0 6.6-4.26 2.64-4.56 2.64-13.2 0-8.52-2.7-13.2-2.52-4.26-6.54-4.26-4.2 0-6.66 4.26-2.76 4.68-2.76 13.2zm53.7-11.34q0 3.72-3.12 5.46-3.84 2.1-13.02 2.1l.42 6.66q9.48-1.02 13.68.84 3.78 1.68 3.78 5.94 0 3.54-2.4 5.52-2.4 1.92-6.66 1.92-6.48 0-11.16-4.8l-4.14 5.22q6.24 6.72 16.38 6.72 7.02 0 11.52-3.78 4.5-3.84 4.5-10.08 0-9.72-8.76-11.88 6.96-2.94 6.66-11.4-.18-5.04-4.2-8.28-4.2-3.42-10.86-3.42-9.48 0-14.64 7.56l4.5 5.1q3.54-5.58 10.08-5.58 7.44 0 7.44 6.18z"/></svg>