<svg viewBox="0 0 471 80" xmlns="http://www.w3.org/2000/svg"><path d="M30.5 33.84h25.44q-5.82-4.56-11.76-11.22Q38 28.8 30.5 33.84zm42.12-1.5l-5.34 9q-4.38-2.46-8.16-5.1.12.48.12.84v11.34q0 3.54-2.88 4.86-2.1.96-6.78.96h-8.64l-.42-3.84h8.76V38.52H36.62v24H66.8l-.42 4.08H36.92q-5.7 0-7.92-2.16-2.04-1.98-2.04-7.08v-21.3q-4.14 2.46-7.86 4.2l-3.72-5.28q15.24-9.48 24.66-23.94l11.94 2.76q-1.14 1.44-3.42 4.2 9.18 8.1 24.06 14.34zm22.74 21.78l16.68-1.14v-7.86H95.36v9zm16.68-33.66H95.36v7.5h16.68v-7.5zm-16.68 12v8.1h16.68v-8.1H95.36zm36.72 19.14l-.3 4.68-9.9.66V68.7h-9.84V57.6L76.52 60l-.66-4.56 9.6-.66V20.46h-7.62l-.36-4.62h52.38l-.6 4.62h-7.38v31.86l10.2-.72zm21.54-32.4l-4.74 8.1q-4.86-4.2-9.72-8.04l3.42-4.98q8.04 3.48 11.04 4.92zm19.8 3.54h-8.34q-2.1 2.52-5.64 6.06h11.1l2.88-6.06zm6.84 17.76v-7.62h-5.34v7.62h5.34zm-5.34 12.3h5.34v-8.52h-5.34v8.52zm-13.56-12.3h5.34v-7.62h-5.34v7.62zm0 3.78v8.52h5.34v-8.52h-5.34zm-11.16-9.6l-4.56 8.16q-3.54-2.88-11.1-8.46l3.36-5.04q10.62 4.5 12.18 5.22l-2.94-2.88q6.48-7.14 13.56-20.04l10.26 3.66q-.72 1.02-2.58 3.42h12.42q2.88 0 3.84 1.68.9 1.56-.48 3.36-2.28 2.76-4.5 5.04h3q3.36 0 4.86 1.26 1.38 1.2 1.38 3.96v22.86h-36.12V34.8l-1.32 1.08-1.26-1.2zm-4.98 9.66l6.06 3.78q-4.02 9.66-8.34 18.96l-8.46-4.56 10.74-18.18zm2.22 17.1h44.94l-.54 4.38H147.8l-.36-4.38zM197.6 14.7h18.96q2.22 0 2.94.9.72.9.12 3.18-1.68 6.78-4.32 15.06 7.32 11.34 4.08 18.42-1.98 4.38-8.58 4.38h-3.96l-.6-4.26h2.94q2.28-.06 2.76-4.26.54-5.64-4.8-13.32 1.92-7.32 3.54-15.54h-4.5v49.2h-8.58V14.7zm32.88 45.06h9.9V41.64h-9.9v18.12zm9.9-39.06h-9.9v16.38h9.9V20.7zm-18.42-4.5h19.86q4.2 0 5.76 1.32 1.44 1.32 1.44 4.62v42.18h-27.06V16.2zm73.14 35.52h7.92q-4.68-5.82-7.92-12.78v12.78zm-8.94 0V40.8q-3.36 5.64-7.74 10.92h7.74zm27.54-3.54l-6.54 8.16q-2.46-2.46-4.14-4.62l-.42 4.5h-6.84v12.24H285.5V56.22h-7.08l-.3-4.08q-1.56 1.86-4.8 5.34l-1.92-9.36q7.44-8.7 11.34-19.26h-9.36l-.24-3.06-1.8 2.64v39.84h-9.36v-28.2l-1.32 1.44q-.9 1.02-1.38 1.5l-4.62-3.9q6.6-9.12 14.88-27.66l10.56 3q-2.82 5.04-5.82 9.66h11.52V11.58h9.72v12.54h15.36l-.48 4.74h-12.84q5.28 10.92 16.14 19.32zm34.32 14.76h-4.86q-2.16 0-3.3-1.32-1.14-1.2-1.86-4.38l-8.58-39.72h9.42l7.08 32.28h.12l8.76-30.18h4.86q2.22 0 2.94 2.1l8.7 27.84h.12l7.68-32.04h5.34L374.3 62.94h-4.68q-2.58 0-3.6-3-.3-.84-9.3-30.42h-.12l-8.58 33.42zm61.86-22.8q0-7.98-1.92-12.84-1.98-5.16-5.52-5.16-3.66 0-5.52 5.1-1.8 4.74-1.8 12.9 0 8.04 1.92 13.02 1.98 5.16 5.4 5.16 3.6 0 5.58-5.16 1.86-4.92 1.86-13.02zm8.76 0q0 23.4-16.2 23.4-7.5 0-11.64-5.64-4.38-6-4.38-17.76 0-11.7 4.5-17.64 4.14-5.46 11.52-5.46 7.44 0 11.64 5.46 4.56 5.94 4.56 17.64zm14.58-17.94l-.9 12.3.12.12q4.44-2.28 8.16-1.98 5.52.42 9.42 4.38 4.2 4.32 4.2 10.74 0 7.32-4.56 11.58-4.38 4.2-11.58 4.2-11.04 0-15.42-9.96l5.28-2.58q1.86 4.26 3.9 5.82 2.04 1.5 6.06 1.5 7.98 0 7.86-10.56 0-4.08-1.92-6.9-2.22-3.18-6-3.18-4.98 0-7.56 4.14-.96 1.68-3.3 1.08-2.34-.66-2.22-3.24l1.8-22.2h25.02l-.6 4.74h-17.76z"/></svg>