<svg viewBox="0 0 405 80" xmlns="http://www.w3.org/2000/svg"><path d="M43.6 15.74q6 4.02 12.72 7.8 6.72 3.78 15.12 7.98l-3.78 7.2q-8.4-5.22-14.85-9.66-6.45-4.44-12.87-9.72-9.66 9.48-23.58 21.3l-1.02-1.2q9.06-7.92 15.99-14.43t14.49-14.13l1.86.72-4.08 4.14zm-5.58 18.54V62.9h29.4l-.48 1.62H28.12V32.54h29.22l-.42 23.7-11.46-3 2.04-1.68.36-17.28h-9.84zm92.16 18.54v1.68l-9.78.42v12.42h-9.72v-12L75.22 56.9v-1.68l12.6-.54V17.66h-9.48v-1.68h50.82l-.6 1.68h-8.16v35.58l9.78-.42zm-19.5-35.16H89.62v11.1h21.06v-11.1zM89.62 30.38V41.3h21.06V30.38H89.62zm0 24.24l21.06-.96V42.98H89.62v11.64zm100.62-4.14l-.54 1.68h-14.46v15.06h-9.66V11.66h9.66v11.16h13.5l-.54 1.68h-12.96v11.64h12.54l-.48 1.68h-12.06v12.66h15zm-36-27.12V12.02h1.8V67.4h-1.8V52.1h-16.98v-1.68h16.98v-12h-15.06v-1.68h15.06v-11.7h-15.3v-1.68h15.3zm65.94-3.24h25.14v43.44H200.8V20.12h17.7l3.66-8.46 1.74.36-3.72 8.1zm13.8 1.68h-21.96v19.08h21.96V21.8zm-21.96 39.96h21.96v-19.2h-21.96v19.2zm69.6-26.94L274.24 62h-6.54q-2.34 0-3.27-.78-.93-.78-1.41-3.3l-9.3-43.86h10.8l5.46 28.86 6.54-26.34h7.38q1.92 0 2.52.48.6.48 1.08 2.28 1.14 5.04 6.12 24.12l5.22-29.4H310L299.92 62h-7.86q-1.92 0-2.85-.9-.93-.9-1.53-3.36-1.08-4.74-6.06-22.92zm30.72 3.36q0-12.72 4.35-18.6 4.35-5.88 13.23-5.88 17.58 0 17.58 24.48 0 12.18-4.35 18.24-4.35 6.06-13.23 6.06-9.06 0-13.32-5.88t-4.26-18.42zm10.2 0q0 7.92 1.98 11.46 1.98 3.54 5.4 3.54 3.3 0 5.19-3.63Q337 45.92 337 38.18q0-7.74-1.92-11.43-1.92-3.69-5.16-3.69-3.42 0-5.4 3.69-1.98 3.69-1.98 11.43zm65.04 12.3v-9.24h-5.76v-27.3h-9.78L352.9 41.96q-1.56 2.28-1.56 4.32 0 1.86 1.32 3.03 1.32 1.17 3.6 1.17h15.54v11.4h10.02v-11.4h5.76zm-15.72-20.16l-.06 10.92h-7.5l7.56-10.92z"/></svg>