<svg viewBox="0 0 464 80" xmlns="http://www.w3.org/2000/svg"><path d="M32.14 36.44V62h33l-.36 2.28H32.56q-2.34 0-3.24-.84-.84-.84-.84-3V33.92h24.96q1.44.18 1.44 1.44v13.38q0 1.98-.96 2.64-.72.54-2.76.54h-9.3l-.54-2.1h9.72V36.44h-18.9zm9.78-25.08l4.32 1.2q-1.2 1.92-2.4 3.48Q54.52 28.7 70.9 35.66l-1.98 3.54Q53.2 31.76 42.16 18.26q-10.2 12.96-25.38 21.48L15.1 37.4q17.22-10.38 26.82-26.04zm48.66 42.9l24-1.32v-9.3h-24v10.62zm24-34.86h-24v9.54h24V19.4zm-24 12.06v9.72h24v-9.72h-24zm40.14 20.58l-.3 2.52-12 .66v11.76h-3.84V55.46l-38.76 2.1-.42-2.46 11.34-.6V19.4h-7.68l-.24-2.52h48l-.48 2.52h-7.92v33.3l12.3-.66zm44.76-31.2H161.8q-3.12 4.2-6.3 7.68h14.82q2.88-3.9 5.16-7.68zm7.2 18.66v-8.58h-11.1v8.58h11.1zm-11.1 12.24h11.1v-9.9h-11.1v9.9zM157.12 39.5h11.1v-8.58h-11.1v8.58zm0 2.34v9.9h11.1v-9.9h-11.1zm-7.8-7.2l-1.62-2.28q9-8.7 15.42-21l3.84 1.32q-2.04 3.54-3.54 5.76h15.78q1.14 0 1.56.78.3.72-.3 1.44l-6.12 7.86h8.82q3.06 0 3.06 2.82v22.74h-32.58V30.5q-2.04 2.04-4.32 4.14zm1.74-13.5l-1.92 3.18q-4.68-3.72-10.2-7.92l1.56-2.1q7.56 4.8 10.56 6.84zm-3.54 14.04l-1.86 3.24q-3.06-2.1-11.16-7.32l1.44-2.22q7.74 4.08 11.58 6.3zm-.9 8.46l2.34 1.74q-6.48 10.86-10.62 17.22l-3-2.04q1.56-2.28 11.28-16.92zm1.26 17.4h42.96l-.42 2.4h-42.3l-.24-2.4zm51.18-45.54h17.64q1.68 0 1.08 1.5-2.04 5.76-6.96 15.42 9.78 12.06 6.96 18.18-1.32 2.94-5.88 2.94h-7.26l-.42-2.34h6.9q2.82 0 3.66-2.34 1.68-4.8-7.62-16.08 3.24-6.72 6.42-14.82h-11.04v48.96h-3.48V15.5zm26.64 44.28h17.16V39.2H225.7v20.58zm17.16-40.92H225.7v17.88h17.16V18.86zm-20.64-2.46h20.82q1.98 0 2.7.72.66.6.66 2.34v42.78h-24.18V16.4zm49.08-5.04l3.96 1.08q-3.84 7.8-8.28 14.22v40.2h-3.66V31.7q-3.12 4.2-7.08 8.4l-1.74-2.16q9.9-11.46 16.8-26.58zm37.2 16.44h-14.7q6.12 14.28 17.34 24.06l-2.52 3.36q-11.16-10.74-17.52-27.06v22.62h10.8l-.36 2.46h-10.32v13.44h-3.9V53.24H277l-.18-2.46h10.68V29.66q-5.82 14.22-17.1 26.94l-1.26-3.42q10.08-11.58 15.24-25.38H271.9l-.24-2.58h15.78V11.36h3.78v13.86h17.7l-.42 2.58zM342.88 62h-2.46q-1.62 0-2.16-2.28-.12-.72-9.48-42.66h4.38l8.34 39.3h.12l10.5-36.96h2.58q1.44 0 1.92 1.8L367 56.3h.18l8.34-39.24h3.18L368.74 62h-2.52q-1.26 0-1.74-1.44l-10.8-36.78h-.12L342.88 62zm65.16-22.56q0-9.66-3.06-14.94-2.88-4.98-7.56-4.98-4.62 0-7.38 5.04-2.94 5.34-2.94 14.88 0 10.02 3 15.36 2.76 4.92 7.32 4.92 4.62 0 7.5-4.92 3.12-5.4 3.12-15.36zm3.9 0q0 23.04-14.52 23.04-6.78 0-10.44-5.52-3.96-5.94-3.96-17.52 0-11.46 4.14-17.4 3.72-5.34 10.26-5.34 6.66 0 10.44 5.34 4.08 5.88 4.08 17.4zm10.02-7.98l-3.3-.72q.9-6.36 4.2-9.96 3.66-4.02 9.78-3.96 6.18.06 10.02 3.72 3.78 3.6 3.48 8.76-.36 5.64-3.66 9.72-2.46 3.06-8.1 6.72-8.82 5.64-11.82 13.56h24.42l-.42 2.7h-26.1q-3.06 0-1.08-4.62 3.6-8.1 13.14-14.4 4.62-3.12 6.6-5.64 2.58-3.3 2.88-7.98.3-4.02-2.34-6.84-2.76-2.82-7.08-2.88-8.58 0-10.62 11.82z"/></svg>