<svg viewBox="0 0 399 80" xmlns="http://www.w3.org/2000/svg"><path d="M43.24 16.1Q55.6 24.56 70.9 32.54l-2.82 5.4q-7.86-4.74-14.43-9.27-6.57-4.53-13.17-9.81-10.14 9.96-24.12 21.78l-1.02-1.2q9.12-7.98 16.05-14.49 6.93-6.51 14.37-14.07l1.92.72-4.44 4.5zm-7.02 18.12V62.9h31.26l-.42 1.68H29.02v-32.1h27.24l-.42 23.46-8.4-2.58L49 52.28l.36-18.06H36.22zm93.96 18.6v1.68l-10.62.48v12.36h-7.08V55.28L75.22 56.9v-1.68l12.66-.54V17.66h-9.54v-1.68h50.82l-.66 1.68h-8.94V53.3l10.62-.48zm-17.7-35.16h-22.8V28.7h22.8V17.66zm-22.8 12.72V41.3h22.8V30.38h-22.8zm0 24.18l22.8-.96V42.98h-22.8v11.58zm100.26-4.08l-.54 1.68h-15.48V67.1h-7.08V11.6h7.08v11.22h14.58l-.54 1.68h-14.04v11.64h13.62l-.54 1.62h-13.08v12.72h16.02zm-35.52-27.12V12.02h1.8V67.4h-1.8V52.1h-17.16v-1.68h17.16v-12h-15.24v-1.68h15.24v-11.7h-15.48v-1.68h15.48zm64.74-2.52h25.32V63.2h-42.9V20.84h15.9l4.5-9.3 1.8.42q-3.6 7.02-4.62 8.88zm17.16 1.68h-26.64v18.6h26.64v-18.6zm-26.64 38.82h26.64V42.8h-26.64v18.54zm70.98-31.68L271.72 62h-4.92q-1.74 0-2.43-.6-.69-.6-1.11-2.46L253.72 14h8.1l6.72 34.08 8.16-31.56h5.76q1.44 0 1.92.36t.78 1.74q.9 3.84 8.1 29.82L299.68 14h8.34L298 62h-6.06q-1.5 0-2.19-.69t-1.11-2.55q-.84-3.54-7.98-29.1zm29.88 8.4q0-12.3 4.35-18.36 4.35-6.06 12.63-6.06 7.98 0 12.48 6.09t4.5 18.33q0 11.88-4.35 18.15-4.35 6.27-12.63 6.27-8.4 0-12.69-6.12-4.29-6.12-4.29-18.3zm7.56 0q0 8.82 2.55 13.14t6.87 4.32q4.2 0 6.72-4.41 2.52-4.41 2.52-13.05 0-5.76-1.23-9.69-1.23-3.93-3.3-5.85-2.07-1.92-4.71-1.92-2.7 0-4.83 1.92t-3.36 5.85q-1.23 3.93-1.23 9.69zm53.7-11.34q0 2.4-1.38 4.05t-4.92 2.58q-3.54.93-9.84.93l.42 6.66q3.42-.36 6.12-.36 6.06 0 8.7 1.83 2.64 1.83 2.64 5.31 0 3.54-2.4 5.49-2.4 1.95-6.66 1.95-3 0-5.97-1.26-2.97-1.26-5.19-3.54l-4.14 5.22q3 3.18 7.26 4.95t9.12 1.77q4.62 0 8.28-1.71 3.66-1.71 5.7-4.86 2.04-3.15 2.04-7.29 0-4.68-2.28-7.77t-6.48-4.11q3.42-1.44 5.04-4.14 1.62-2.7 1.62-6.6 0-3.42-1.83-6.24-1.83-2.82-5.25-4.47t-7.98-1.65q-4.44 0-8.28 1.92-3.84 1.92-6.36 5.64l4.5 5.1q1.86-2.94 4.35-4.26 2.49-1.32 5.73-1.32 3.54 0 5.49 1.62 1.95 1.62 1.95 4.56z"/></svg>