<svg viewBox="0 0 409 80" xmlns="http://www.w3.org/2000/svg"><path d="M39.82 34.34v28.5H67.3l-.42 1.68H27.16V32.54h29.28q-9.42-6.42-17.04-12.66-10.44 10.2-23.04 20.82l-.96-1.26q9.24-8.1 16.17-14.61 6.93-6.51 14.25-14.01l1.86.78-3.72 3.78q5.88 3.78 12.54 7.32 6.66 3.54 15.48 7.74l-4.74 9.12q-4.68-3-8.82-5.7L58 56.48l-14.46-3.42 2.52-2.16.3-16.56h-6.54zm90.3 18.48v1.68l-8.82.36v12.48h-12.36V55.4l-33.78 1.5v-1.68l12.66-.54V17.66h-9.48v-1.68h50.88l-.66 1.68h-7.26v35.52l8.82-.36zm-21.18-35.16H89.62v11.1h19.32v-11.1zM89.62 30.38V41.3h19.32V30.38H89.62zm0 24.18l19.32-.84V42.98H89.62v11.58zm100.92-4.08l-.48 1.68h-13.44v15.12h-12.36V11.66h12.36v11.22h12.36l-.54 1.68h-11.82v11.58h11.46l-.54 1.68h-10.92v12.66h13.92zM154.06 23.3V12.08h1.8V67.4h-1.8V52.1h-16.8v-1.68h16.8v-12h-14.88v-1.68h14.88V24.98h-15.18V23.3h15.18zm67.08-3.9h25.02v44.52h-46.14l-.06-44.52h19.5l2.82-7.62 1.8.3-2.94 7.32zm10.44 1.68h-17.22V40.7h17.22V21.08zm-17.22 41.1h17.22v-19.8h-17.22v19.8zm62.4-.18h-8.16q-1.98 0-3.06-.42t-1.71-1.47q-.63-1.05-1.11-3.21l-9-42.84h13.44l4.32 23.7 4.92-21.06h8.94q1.68 0 2.46.24t1.2.9q.42.66.78 2.28l4.26 18.36 4.02-24.42h13.92L301.84 62h-9.66q-2.4 0-3.57-1.14t-1.83-4.14q-1.44-5.94-4.2-16.68L276.76 62zm37.44-23.7q0-8.88 1.95-14.28 1.95-5.4 5.91-7.86t10.32-2.46q9.12 0 13.62 5.85t4.5 18.75q0 12.48-4.38 18.33-4.38 5.85-13.74 5.85-6.6 0-10.56-2.49-3.96-2.49-5.79-7.77-1.83-5.28-1.83-13.92zm12.84 0q0 7.02 1.38 9.78t3.96 2.76q2.28 0 3.57-2.85t1.29-9.69q0-7.02-1.26-9.93t-3.6-2.91q-2.58 0-3.96 2.94t-1.38 9.9zm49.74-9.54q-5.22 0-6.42.66l.3-3.48h17.04l1.38-11.7h-29.7l-2.1 27.18 10.38 2.46q.54-1.86 2.01-2.97 1.47-1.11 3.09-1.11 2.64 0 3.99 1.2t1.35 3.96q0 5.7-5.64 5.7-2.82 0-4.92-1.62t-3.72-5.34l-8.94 6.06q2.88 6.18 7.53 9.42t10.05 3.24q5.82 0 9.99-2.16t6.39-6.09q2.22-3.93 2.22-9.21 0-4.44-2.04-8.16-2.04-3.72-5.34-5.88-3.3-2.16-6.9-2.16z"/></svg>