<svg viewBox="0 0 376 80" xmlns="http://www.w3.org/2000/svg"><path d="M42.28 16.1L68.8 37.04l-.66.36-.24 1.14Q41.92 17.9 41.14 17.24 28.96 29.18 16.6 40.16l-.3-.72-1.14-.12q15.78-14.34 29.22-27.84l2.1.48-4.2 4.14zM30.64 63.02H63.1q1.92 0 3.12-.66l-.72 2.4H31.06q-2.04 0-2.04-2.04V34.16q.9.42 1.14.48h22.08q.48.12.42.6l-.96 18.3-2.34-1.74h.66q.72-12.6.84-15.42H30.64v26.64zm99.42-11.58l-.24 1.74-12.06 1.32v12.3h-1.74V54.68q-23.7 2.58-38.1 4.26l.12-1.2-.36-.54 12.24-1.32V21.44q0-2.22-.06-2.88H80.5l.3-1.14-.42-.6h46.2l-.36 1.74h-8.46v34.26q4.44-.54 12.3-1.38zM115.84 18.5H91.72v10.56h24.3v-6.72q0-2.52-.18-3.84zM91.72 30.8v10.38h24.3V30.8q-11.94-.12-24.3 0zm0 24.84l24.3-2.64V42.92q-11.94-.12-24.3 0v12.72zm91.44-35.4l-.3 1.74q-16.56-.12-33.78 0l-1.26 13.98h31.92q.6 0 .48.6-.48 6.48-2.52 30.36l-2.4-1.74h.84l2.22-27.48h-32.52L148 14.54q.12-1.98 0-2.88 1.32.42 1.98.36l-.72 8.22h33.9zm-46.5 30.06l-.42-.54h37.98l-.3 1.68q-20.88-.12-37.56.06l.3-1.2zm111.48-9.48l-.36 1.74q-27.6-.12-49.86.06l.36-1.2-.42-.6h24.36v-5.4l-18.72.06.36-1.14-.42-.6h18.78v-4.26q0-.72-.06-.96h-18.3l.54-13.5 36.78.12q.72 0 .72.66-.24 4.8-.42 12.72h-17.46v5.22h18.18l-.3 1.74-17.88-.06v5.4h24.12zm-42.06-24.06v9.96h16.02v-9.96h-16.02zm33.42 9.96v-9.96h-15.6v9.96h4.2l-.18-.54-.66-.18q4.74-5.94 6.9-8.88l1.2 1.44q-2.94 3.96-6.48 8.16h10.62zm-28.02-8.52l5.82 7.2-1.68.9-5.76-7.26 1.62-.84zm-11.4 34.26l-.6-.3 6.84-9.3 1.14 1.08-7.02 9.84-.36-1.32zm18.06.18l-4.68-8.88 1.74-.66 4.68 8.88-1.74.66zm7.56-8.1l1.74-.6 4.26 8.04-1.74.72-4.26-8.16zm18.06 9.72l-7.38-9.48 1.62-.84 7.38 9.42-1.62.9zm-19.86 8.58h24.36l-.36 1.68q-27.6-.12-49.86.06l.36-1.2-.42-.54h24.12v-6.06l-18.42.06.3-1.14-.36-.6h18.48v-4.56q0-1.02-.18-1.62.96.3 1.98.3v5.88h18.72l-.3 1.74-18.42-.06v6.06zm42.78-.84H265q-1.02 0-1.26-1.08-.72-3.6-10.02-46.98h2.76l9.06 44.46 11.4-42h2.64q.78 0 1.02.78.3 1.38 11.82 41.22l8.94-44.46h2.7L294.16 62h-2.46q-.96 0-1.2-1.14-.3-1.32-11.7-41.58L266.68 62zm40.26-24.18q0-11.4 4.44-17.88 4.26-6.3 11.34-6.3 6.78 0 11.16 6.06 4.68 6.54 4.68 18.12 0 11.28-4.32 17.94-4.26 6.72-11.52 6.72-7.02 0-11.28-6.48-4.5-6.72-4.5-18.18zm2.22.06q0 10.5 3.84 16.56 3.66 5.82 9.72 5.82 6.06 0 9.78-5.88 3.84-6.06 3.84-16.5 0-10.08-4.08-16.26-3.9-5.82-9.54-5.82-5.76 0-9.54 5.82-4.02 6.12-4.02 16.26zm49.68 24.06V14.36q-1.02.18-2.34-.3.12 1.44.12 4.08v43.8h2.22z"/></svg>