<svg viewBox="0 0 395 80" xmlns="http://www.w3.org/2000/svg"><path d="M44.9 16.46q2.28 1.74 25.74 20.16l-1.2.9-.54 2.82Q44 20.6 42.26 19.16 31.58 29.9 18.38 41.72l-.9-2.1-1.5-.48q16.26-15 28.5-27.9l4.62.9q-2.76 2.88-4.2 4.32zM33.68 61.22h30.06q2.22 0 3.72-.9l-.96 4.86H33.8q-4.08 0-4.08-3.96v-27.9l1.32.48h23.34q1.08 0 .96 1.08-.48 5.46-1.32 18.78l-5.1-2.28 1.14-.36q.6-8.94.96-13.5H33.68v23.7zm97.38-10.2l-.54 3.78-10.92.96V67.1h-4.08V56.18q-20.4 1.92-36.54 3.6l.06-2.52-.6-1.26 11.22-1.08v-32.7q0-1.8-.06-2.4-5.76 0-8.52.06l.24-2.4-.54-1.32H128l-.66 3.66-7.74-.06V52.1l11.46-1.08zM115.4 19.76H93.56v8.7h21.96V23.6q0-1.92-.12-3.84zM93.56 31.94v8.58h21.96v-8.64q-12.18-.12-21.96.06zm0 22.62l21.96-2.04V44q-10.86-.12-21.96 0v10.56zm92.4-35.34l-.6 3.78q-14.04-.18-34.38.06l-1.02 11.82h32.4q1.08 0 .96 1.14-.48 7.14-2.46 31.32l-5.4-2.46 1.38-.42 2.04-25.62h-33.36l1.98-23.94q.24-2.04 0-3.54 2.82.72 4.38.54l-.6 7.32h34.68zm-49.08 29.7h38.58l-.6 3.66q-19.98-.18-37.74.06l.3-2.46-.54-1.26zm61.56-8.7h23.64v-4.26q-12.54 0-18.3.06l.3-1.92-.48-1.02h18.48v-4.02h-18.24l.66-14.88q32.34.06 38.04.12 1.32 0 1.32 1.2-.24 4.98-.42 13.56h-17.52v4.02h18.12l-.48 2.94q-5.46-.06-17.64-.06v4.26h23.58l-.6 3.06q-20.1-.18-42 0l2.1 1.92-6.84 9.24-1.14-2.22-1.38-.72 6.54-8.22-7.56.06.3-2.04-.48-1.08zm9.72-23.34v9.24h13.92v-9.24h-13.92zm20.64 8.28l-1.02-.48q3.78-4.26 6.48-7.8h-8.7v9.24h3.72l-.48-.96zm10.5.96v-9.24h-4.86l1.86 2.22q-2.94 3.84-5.88 7.02h8.88zm-26.22-8.4l5.58 6.48-2.4 1.8-5.58-6.54 2.4-1.74zm4.86 34.86l-4.14-8.1 3.36-1.26 4.14 8.04-3.36 1.32zm26.52 1.86l-7.26-9.06 2.94-1.98 7.32 8.94-3 2.1zm-14.4-1.86l-3.9-7.56 3.42-1.26 3.96 7.5-3.48 1.32zm-4.32 9.54h24.12l-.6 3.12q-20.94-.18-50.82.06l.3-2.04-.54-1.14h23.76v-4.8q-12.12 0-17.7.06l.3-1.98-.48-1.08h17.88V50.9q0-1.26-.24-1.8 2.64.42 4.02.36v4.86h18.18l-.48 3.06q-5.52-.06-17.7-.06v4.8zm54.96-37.68L270.2 62h-3.3q-1.98 0-2.4-2.1l-9.78-45.96h5.4l7.92 39.3 9.78-36.78h4.2q1.02 0 1.32.24.3.24.54 1.2.6 2.7 9.96 35.52l7.68-39.48h5.52L297.08 62h-4.26q-1.74 0-2.28-2.16-.6-2.58-9.84-35.4zm28.98 13.5q0-11.82 4.44-18.18 4.32-6.12 12-6.12 7.38 0 11.7 5.94 4.68 6.42 4.68 18.36 0 11.52-4.32 18-4.32 6.54-12.06 6.54-7.68 0-12-6.3-4.44-6.42-4.44-18.24zm4.92.06q0 9.6 3.24 14.88 3.06 5.04 8.28 5.04 5.1 0 8.16-5.1 3.24-5.34 3.24-14.82 0-9.3-3.42-14.76-3.12-5.04-7.98-5.04-4.98 0-8.16 5.04-3.36 5.4-3.36 14.76zm47.7-24.54q-6.9 0-10.98 4.62t-4.08 12.48l4.62.6q0-12.84 10.44-12.84 4.44 0 7.08 2.28 2.58 2.22 2.58 5.82 0 6.06-8.16 14.22-7.08 7.2-15.36 16.5-1.62 1.8-1.2 3.3.42 1.5 2.58 1.5h27.48l.84-4.92h-22.86q6.42-7.5 13.26-14.16 8.58-8.28 8.58-16.44 0-5.7-4.08-9.3-4.14-3.66-10.74-3.66z"/></svg>