<svg viewBox="0 0 405 80" xmlns="http://www.w3.org/2000/svg"><path d="M48.26 17.12l24.06 18.72-2.22 1.92L68.96 44 58.4 35.66q-.66 6.36-1.74 18.36L46.04 50.6l2.16-1.14.96-9.6h-11.4v17.76h25.32q2.82 0 4.86-1.32l-1.5 9.72H37.28q-3.84 0-5.94-2.16-2.1-2.1-2.1-5.76V36.26q-3.06 2.88-9.3 8.52l-2.1-4.8-2.28-1.26q15.3-14.34 27.06-27.9l9.84 1.62q-.66.78-2.1 2.34l-2.1 2.34zM33.5 32.18h20.46q-10.2-8.04-11.4-9.06-4.5 4.56-9.06 9.06zm97.56 18.06l-1.14 7.86-8.64.42v9.18h-8.7v-8.64q-11.22.66-33.42 2.4l-.12-5.22-1.08-2.7q6.54-.42 9.12-.54V23.9q0-1.08-.06-1.56l-3.42.06q-2.22 0-3.36.06l.18-4.86-.9-2.76h49.44l-1.38 7.5q-2.04-.06-6.3-.06v28.56l9.78-.6zM112.4 22.22q-11.46 0-17.16.06v4.98h17.34v-1.02q0-2.34-.18-4.02zM95.24 34.1v5.04h17.34v-5.1q-9.6-.12-17.34.06zm0 18.36l17.34-1.08v-5.1q-9.6-.12-17.34.06v6.12zm94.32-35.22l-1.26 7.86q-15.84-.36-35.52.06l-.48 7.5h33.3q2.04 0 1.86 2.28-.54 8.52-2.34 33.3l-11.22-3.96 2.4-1.2L177.98 41h-35.04l1.68-25.32q.18-2.76-.18-4.92 6.06 1.38 9.24.9l-.36 5.58h36.24zM176 47.3l-1.14 7.5q-15.72-.3-38.28.12l.3-5.04-.84-2.58H176zm51.42 13.38h23.7l-1.2 6q-21.72-.3-52.68.12l.24-3.84-.78-2.28h22.92V58.4q-8.4 0-16.14.18l.18-2.88-2.76-3.84-2.82-1.68 4.98-5.46-5.04.06.24-3.66-.72-2.1h22.26v-2.04l-17.46.18.24-3.54-.66-1.86h17.88v-1.68h-17.94l.84-17.7q33.36.18 40.56.18 2.52 0 2.46 2.28l-.48 15.24h-17.52v1.68h18l-.9 5.34q-10.68-.12-17.1-.12v2.04h22.5l-1.08 5.64-4.74-.06 5.16 5.76-5.34 4.2-.6 3.9q-10.2-.12-16.2-.12v2.34zm-17.16-43.44v7.56h4.62l-4.44-4.62 3.36-2.94h-3.54zm9.78 7.56v-7.56h-5.22l4.62 4.62-3.3 2.94h3.9zm8.52-1.74l-1.62-.96q3.3-3.3 4.74-4.86h-4.8v7.56h2.82l-1.14-1.74zm8.28 1.74v-7.56h-3.18l2.58 2.94q-1.38 1.68-4.56 4.62h5.16zm-17.28 19.8l2.4 5.1q2.76.3 5.04.18-.96-1.86-1.98-3.96l3.9-1.38q-6.24 0-9.36.06zm7.86 8.22h14.76q-1.92-2.28-5.34-6.18l2.76-2.04q-2.34-.06-7.14-.06l2.7 5.22-6.9 2.64q-.54-1.02-.84-1.68v2.1zm-21.48 0h13.68V50.9q-1.98.72-4.14 1.56l-2.94-6.6 3.42-1.26-9.18.06 3.3 3-4.14 5.16zm76.68-18L275.24 62h-6.54q-2.34 0-3.24-.78-.96-.78-1.44-3.3-2.76-13.2-9.3-43.86h10.8l5.46 28.86 6.54-26.34h7.38q1.92 0 2.52.48.6.48 1.08 2.28 1.2 5.28 6.12 24.12l5.22-29.4H311L300.92 62h-7.86q-1.92 0-2.88-.9-.9-.9-1.5-3.36-1.14-4.98-6.06-22.92zm30.72 3.36q0-12.72 4.44-18.72 4.26-5.76 13.14-5.76 17.58 0 17.58 24.48 0 24.3-17.58 24.3-9.06 0-13.32-5.88t-4.26-18.42zm10.2 0q0 15 7.38 15 7.08 0 7.08-15 0-15.12-7.08-15.12-7.38 0-7.38 15.12zm65.04 12.3v-9.24h-5.76v-27.3h-9.78L353.9 41.96q-2.28 3.3-1.26 5.88 1.02 2.64 4.62 2.64h15.54v11.4h10.02v-11.4h5.76zm-15.72-20.16l-.06 10.92h-7.5l7.56-10.92z"/></svg>