<svg viewBox="0 0 454 80" xmlns="http://www.w3.org/2000/svg"><path d="M31 36.08v26.04h33.96l-.36 1.74H31.42q-2.1 0-2.1-2.04V34.28h23.64v.06q.78.12.78.78v14.04q0 1.56-.3 1.98-.24.36-1.44.36h-9.54l-.54-1.5h10.02V36.08H31zm11.88-24.24l1.8.66q-1.02 1.74-2.04 3.12Q53.62 29.84 70.66 37.1l-.9 1.68q-16.8-7.56-28.02-21.84Q31.6 30.92 16.36 39.92l-1.02-1.38q17.82-10.56 27.54-26.7zm46.44 42.78l26.46-1.32v-9.78H89.32v11.1zm26.46-35.22H89.32v10.26h26.46V19.4zM89.32 31.46v10.26h26.46V31.46H89.32zm41.28 21.06l-.3 1.86-12.72.66v11.7h-1.8V55.1l-39.84 1.98-.3-1.74 11.88-.6V19.4h-7.74l-.18-1.8h46.5l-.36 1.8h-8.16v33.78l13.02-.66zm46.14-32.04h-15.66q-2.76 4.2-6.42 8.28h15.84q3.48-4.26 6.24-8.28zm7.08 10.08h-12.96v8.88h12.96v-8.88zm-12.96 21.12h12.96V41.36h-12.96v10.32zm-14.82-12.24h13.02v-8.88h-13.02v8.88zm0 1.92v10.32h13.02V41.36h-13.02zm-7.14-6.78l-.66-1.68q9.9-9.18 15.96-21.3l1.8.54q-1.5 3.06-3.72 6.54h16.68q.6 0 .78.48.18.48-.18.84-1.26 1.5-3.24 4.38-2.16 2.94-3.3 4.38h10.68q1.98 0 1.98 2.04v22.68h-31.44v-24.3q-2.82 3.06-5.34 5.4zm1.68-12.48l-1.08 1.5q-7.08-5.4-10.32-7.8l.9-1.2q3.78 2.58 10.5 7.5zm-3.66 13.56l-.9 1.62-11.22-6.96.78-1.26q5.64 3.18 11.34 6.6zm.48 8.04l1.14 1.14q-7.2 10.86-11.46 16.62l-1.14-1.2q3.78-5.16 11.46-16.56zm.96 17.52h42.36l-.42 1.8h-41.76l-.18-1.8zm51.48-45.12h17.28q.72 0 .42.6-4.74 10.08-7.86 15.6 10.68 12.12 7.92 18.06-1.14 2.52-4.98 2.52h-8.4l-.36-1.74h8.22q3.12 0 3.96-1.68 2.16-4.62-8.58-17.04 3.48-5.94 7.5-14.52h-13.32v48.84h-1.8V16.1zm24.6 43.98H244V38.72h-19.56v21.36zM244 18.62h-19.56v18.3H244v-18.3zm-21.36-1.8h21.18q2.04 0 2.04 2.1v42.96h-23.22V16.82zm49.56-5.1l1.8.42q-3.6 7.62-8.16 14.34h.06v40.26h-1.8V29q-3.66 5.16-8.52 10.44l-.84-1.62q10.56-11.34 17.46-26.1zm36.06 16.02H292.9q6.24 15.3 17.7 25.74l-1.14 1.68Q297.64 44 291.22 27.74h-1.14v23.04h11.76l-.3 1.8h-11.46v13.8h-1.8v-13.8h-11.4l-.18-1.8h11.58V27.74h-.9q-6.24 15.84-17.64 28.86l-.96-1.38q11.04-12.96 16.56-27.48h-13.62l-.18-1.8h16.74V11.6h1.8v14.34h18.54l-.36 1.8zm30.42 33.18l-9.72-43.74h2.64l8.76 41.64h.18l10.98-39.12h1.8q1.14 0 1.68 1.68l10.92 37.44h.12l8.64-41.64h2.46L367.24 62h-1.8q-.9 0-1.14-.9l-11.28-38.88h-.12L341.44 62h-1.62q-.84 0-1.14-1.08zm69.06-21.36q0-10.26-3.42-15.72-3.12-4.92-8.28-4.92-4.98 0-7.98 5.04-3.3 5.46-3.3 15.6 0 10.68 3.42 16.14 2.94 4.86 7.86 4.86 4.98 0 8.1-4.86 3.6-5.58 3.6-16.14zm2.34 0q0 11.52-3.78 17.34-3.6 5.52-10.26 5.52-6.48 0-10.08-5.52-3.78-5.82-3.78-17.34 0-11.4 3.96-17.28 3.66-5.34 9.9-5.34 6.48 0 10.08 5.34 3.96 5.82 3.96 17.28zm24.6 22.38V21.08q-4.98 4.68-13.8 5.88l-.54-1.86q9.12-1.62 14.34-7.98h1.5q.78 0 .78 1.02v43.8h-2.28z"/></svg>