<svg viewBox="0 0 300 80" xmlns="http://www.w3.org/2000/svg"><path d="M15.2 16.85h26.05v10.86q-2.23 0-3.09.69-.87.69-.87 2.27v13.54q0 1.08.24 2.08.23 1 .8 1.77.57.78 1.52 1.23.96.46 2.42.46 2.81 0 4.1-1.48 1.29-1.48 1.29-4V30.79q0-1.82-1.08-2.45-1.09-.63-2.99-.63V16.85H62.9v10.86q-1.97 0-3.02.58-1.06.57-1.06 2.38v13.98q0 2.69-.68 5.61-.69 2.91-2.7 5.33-2.01 2.42-5.73 4.01-3.72 1.6-9.84 1.6-4.45 0-7.66-.8-3.21-.81-5.44-2.13-2.22-1.32-3.54-3-1.32-1.69-2.04-3.49-.72-1.8-.95-3.51-.23-1.72-.23-3.15V31.03q0-1.94-1.12-2.63-1.11-.69-3.69-.69V16.85zm51.3 0h20.45v29.12q0 1.96.97 2.56.96.6 2.46.6h.79V60H66.5V49.13h1.14q1.56 0 2.3-.98.75-.98.75-2.12v-15q0-1.7-1.07-2.51-1.07-.81-2.48-.81h-.64V16.85zm36.24 0h10.72v10.86h8.76v10.87h-8.76v9q0 1.93.54 3.16.55 1.23 2.25 1.23.93 0 1.5-.36.58-.37.91-.97.34-.6.43-1.38.09-.77.09-1.68v-4.37h3.36v4.72q0 2.84-.6 5.3t-2.05 4.25q-1.45 1.79-3.94 2.84-2.49 1.06-6.27 1.06-4.19 0-6.68-1.03-2.49-1.02-3.78-2.81-1.28-1.79-1.68-4.25-.4-2.46-.4-5.36v-9.35h-4.6v-9.66q2.2 0 4.09-.96 1.89-.95 3.25-2.63 1.37-1.69 2.11-3.86.75-2.16.75-4.62zm22.79 10.86h17.41l-.5 8.06h.5q1.02-4.63 3.41-7t6.19-2.37q2.26 0 3.89.71 1.62.72 2.62 1.92.99 1.2 1.43 2.77.44 1.57.44 3.24 0 1.38-.41 2.72-.41 1.35-1.31 2.44-.91 1.08-2.35 1.74-1.43.66-3.54.66-2.93 0-4.62-1.5-1.68-1.49-1.68-3.6 0-1.03.23-1.74.24-.72.49-1.18.24-.45.33-.65.09-.21-.2-.21-.62 0-1.34 1.41-.71 1.4-.71 4.42v6.71q0 1.55.54 2.21.54.66 2.09.66h1.76V60h-24.67V49.13h1.73q1.2 0 1.83-.78.63-.77.63-1.86v-5.56q0-1.38-.8-1.86-.81-.49-1.83-.49h-1.56V27.71zm51.83 4.08q-1.49 0-2.56.22t-1.84.51q-.76.29-1.25.66-.5.36-.88.66l.29.29q.56-.29 1.21-.59.66-.29 1.69-.29 1.73 0 2.99 1.13 1.26 1.13 1.26 3.59 0 2.34-1.92 3.76t-5.14 1.42q-3.08 0-4.91-1.77t-1.83-5.02q0-1.79.99-3.56 1-1.77 3.1-3.18 2.09-1.41 5.33-2.32 3.24-.9 7.81-.9 5.44 0 8.9 1.02 3.46 1.03 5.38 2.64t2.63 3.66q.72 2.05.72 4.13v11.46q0 2.66.18 3.61.17.96 1.32.96.9 0 1.27-.87.37-.86.37-2.97v-3.66h3.34v3.72q0 2.63-.44 4.67t-1.67 3.49q-1.23 1.45-3.34 2.19-2.11.75-5.39.75-2.96 0-4.91-.63-1.95-.63-3.09-1.57-1.14-.93-1.63-1.94-.48-1.02-.48-1.81h-.47q-.18 1.21-1.01 2.29-.84 1.08-2.31 1.92-1.48.83-3.55 1.35-2.06.51-4.7.51-2.52 0-4.59-.49-2.06-.48-3.51-1.52-1.45-1.04-2.26-2.69-.8-1.66-.8-3.94 0-2.82 1.58-4.44 1.58-1.63 3.98-2.58 2.41-.95 5.23-1.55 2.83-.6 5.23-1.45 2.4-.85 3.99-2.2 1.58-1.35 1.58-3.81 0-2.2-1.38-3.53-1.38-1.33-4.51-1.33zm5.89 17.05v-4.37q-.65.94-1.61 1.51-.97.57-1.86 1.11-.9.55-1.56 1.29-.66.75-.66 2.01 0 .97.53 1.74.53.78 2.05.78 1.38 0 2.24-1.07.87-1.07.87-3z"/></svg>