<svg viewBox="0 0 518 80" xmlns="http://www.w3.org/2000/svg"><path d="M47.78 55.41q-2.96-1.44-3.96-2.7-1.05-1.37-1.17-4.95 0-.41-.28-.49-.27-.09-.54.2-1.23 1.32-2.47 2.62-1.25 1.31-2.48 2.62-5.74 5.98-12.04-.73-2.2-2.31-4.34-3.06-2.13-.75-4.16 1.04-.52.41-.89 0t.19-.91l7.41-6.24.03-.03q3.72-3.57 2.74-6.22t-3.53-5.29q-2.17-2.2-3.66-5.35-1.5-3.15.85-7.07 1.84-3.08 4.89-4.44 3.05-1.36 5.33-1.28 4.1.18 5.16 3.36 1.05 3.18-1.76 5.32-.64.52-1.1-.02-.45-.54.25-1.13 2.38-1.84 1.16-3.91-1.22-2.06-3.68-2.21-1.78-.09-3.29 1.2t-1.57 3.11q-.12 3.4 1.27 4.69 1.4 1.28 2.33 2.19 4.81 4.95 4.18 8.62-.63 3.66-7.58 8.4-.32.21-.29.49.03.28.47.36 1.82.41 2.8 1.51.98 1.1 2.09 2.13 3.78 3.51 6.68 2.28t5.66-4.39q.11-.15.11-.33l-.17-21.15q0-2.17-1.64-2.81-1.35-.62.06-1.41 2.93-1.4 5.86-2.87l5.88-2.93q.53-.29.93.11.39.39-.22.95-2.29 1.64-3.06 4.41-.78 2.77-.75 6.46l.2 20.62q.03 4.69 4.49 3.08.58-.24.9.16.33.39-.11.8l-5.6 5.04q-.35.3-.79.33-.44.03-.79-.18zm20.68-22.65v11.66q-.03 4.72 1.76 5.45.21.15.21.4t-.21.36q-2.64 2-4.28 5.31-.17.23-.44.23-.26 0-.44-.23-1.64-3.31-4.45-5.28-.17-.11-.17-.38 0-.26.2-.41 1.9-.73 1.9-5.45V34.7q0-2.99-1.11-3.66-1.29-.85-2.11.61-.32.62-.73.29-.41-.32.03-1.02.85-1.35 1.63-2.76.77-1.4 1.59-2.81.47-.85 1.32-.35l.03.03q4.31 2.17 5.16 5.3.05.32.29.38.23.06.47-.11 1.61-1.35 3.31-2.85 1.7-1.49 2.31-2.75.32-.76 1.06.03 1.75 1.85 3 2.93t4.23 1.61q.53.12.55.45.01.34-.37.46-.76.29-1.35 1.01-.58.72-.58 2.39v12.39q0 2.99 1.11 3.66 1.29.79 2.08-.64.32-.56.75-.25.42.31-.02 1.01-.88 1.38-1.65 2.77-.78 1.39-1.57 2.77-.53.82-1.32.38-5.33-2.58-5.33-7.65l.03-15q0-.88-.44-1.14h-.03v-.06l-2.49-2.05q-.32-.24-.68-.03l-3.04 2.37q-.21.15-.21.35zm23.38 15.36l-.2-16.06q0-.56-.18-.91-.7-1.14-1.2-.55l-1.17 1.2q-.47.52-.9.11-.42-.41.14-1.14 1.29-1.61 2.31-3.22 1.03-1.61 2.11-3.19.47-.56 1.08.02 1.23 1.5 2.41 2.63 1.17 1.12 3.34 2.38.61.24.54.56-.08.32-.4.35-.76.3-1.34 1.01-.59.72-.59 2.39v12.39q0 2.99 1.11 3.67 1.29.76 2.11-.65.29-.56.72-.25.42.31-.02 1.01-.87 1.38-1.64 2.77-.76 1.39-1.55 2.77-.56.82-1.38.35-2.63-1.26-3.97-3.07-1.33-1.82-1.33-4.57zm4.25-34.78q3.25 0 2.96 3.13-.18 1.59-1.98 3.18-1.8 1.6-2.86 1.57-1.05 0-1.61-1.67-.55-1.67-.44-3.08.09-1.34 1.31-2.24 1.21-.89 2.62-.89zm16.87 12.04h5.07q.47 0 .47.47v1.82q0 .46-.47.46h-3.54q-.21 0-.37.18t-.1.35q.18 1.64-.09 4.57l-2.96 30.82q-.11 1-.58 1.01-.47.02-.59-1.07-.73-8.96-1.49-17.9-.77-8.93-1.61-17.9h-3.4q-.44 0-.46-.42-.01-.43.34-.48 1.9-.33 3.16-1.97 1.26-1.64 1.09-4.28-.21-4.16 1.08-6.98 1.29-2.83 5.16-1.57 2.14.73 3.91 1.27 1.77.55 2.5-.6.36-.61.65-.52.29.08-.09 1.14-1.05 3.34-2.74 4.5-1.68 1.15-5.23-.55-3.43-1.58-4.03 1.57-.6 3.15 1.28 4.12 1.81.99 2.37 1.64.32.32.67.32zm16.56 7.65l-.03 14.21q0 .93.47 1.2l2.11 1.23q.67.41 2.05-1.44.29-.38.73-.16t0 .75q-3.08 3.43-4.72 6.74-.5.67-1.08 0-1.64-1.91-3.06-2.9-1.42-1-4.18-1.64-.52-.15-.52-.47 0-.33.38-.47 1.96-.32 1.93-3.37V34.32q0-2.99-1.11-3.67-1.29-.85-2.11.62-.33.61-.74.29t.03-1.02q.85-1.35 1.63-2.76.78-1.4 1.6-2.81.49-.88 1.31-.32 4.31 2.08 5.16 5.27.09.29.35.37.27.07.47-.19l4.51-5.19q.18-.17.41-.16.24.02.38.25l3.08 5.89q.12.26-.06.5L135 35.61q-.21.2-.46.17t-.33-.26l-2.38-4.4q-.12-.17-.36-.22-.25-.04-.46.16l-1.38 1.67q-.11.12-.11.3zm25.93 17.84l-3.29 2.5q-1.78 1.37-3.31 2.51-.52.41-.83.35-.31-.06-.25-.53 0-.61-1.82-2.34-4.77-4.48-4.6-11.66.18-6.15 5.72-10.4 1.7-1.29 3.18-2.73 1.47-1.43 2.62-3.48.47-.91 1.29-.06 4.45 5.04 8.9 5.95 1.41.26.3 1.11-1.38 1-1.5 2.46v.06l.09 13.39q0 1.35.98 1.84.98.5 2.12-.76.44-.5.84-.25.4.25.01.9-1.05 1.58-2.03 3.1-.98 1.53-1.66 3.17l-.03.03q-.41.67-.99 0-.32-.36-.76-.47-3.34-.74-4.22-4.43-.06-.17-.3-.35-.26-.03-.46.09zm.32-17.26q-1.82-.49-4.25-2.81-1.17-1.41-1.88-.26-3.1 4.63-2.43 10.22.94 8 5.63 9.87.03 0 .06.03 1.2.38 2.9-1.43.11-.18.11-.32-.03-.44-.03-1.38l.27-13.45q0-.35-.38-.47zm12.86-3.54q.06-.41.61-.53 1.79-.44 2.51-1.51.72-1.07.63-3.73-.32-2.82-1.16-4.6-.83-1.79-2.12-3.11-.5-.5-.09-.85.41-.35.97.21.67.82 1.39 1.76.72.93 1.21 1.93.15.29.43.29t.42-.23q1.76-2.93 4.82-4.73 3.06-1.81 6.64-1.69.61.03.67.57.06.54-.67.54-2.9 0-4.64 1.67-1.75 1.67-1.75 6.42 0 .38.37.48.36.11.57-.27 1.79-3.9 5.42-4.93.61-.03.61.47v5.19q.03.61-.52.47-3.2-.41-5.54 1.84-.44.62-.38 1.26.06.65.76.65h5.04q.47 0 .47.47v1.87q0 .5-.47.5h-5.92q-.41 0-.41.53l-.03 16.52q0 .94.44 1.2l2.11 1.2q.68.32 2.02-1.4.3-.36.71-.06.41.29.05.64-3.07 3.43-4.71 6.74-.35.61-1.06 0-1.49-1.96-2.88-2.97-1.39-1.01-4.35-1.57-.47-.06-.49-.43-.01-.36.31-.51.73-.26 1.33-.98.6-.72.6-2.39l-.02-15.94q0-.58-.59-.58h-2.67q-.67 0-.64-.41zm29.5 1.05l-.03 16.41q0 .91.44 1.2l2.11 1.2q.62.53 2.05-1.4.26-.39.72-.12.45.26.04.7-3.13 3.43-4.71 6.74-.5.61-1.09 0-1.64-1.93-3.04-2.9-1.41-.97-4.19-1.64-.47-.09-.5-.44-.03-.35.35-.5 1.96-.47 1.93-3.37l-.03-15.85q.03-.52-.44-.52h-3.45q-.41 0-.53-.33-.12-.32.26-.55 3.52-2.49 7.17-6.01 3.64-3.52 6.63-6.68.38-.41.75-.16.37.25.01.72-1.34 1.67-2.71 4.33-1.36 2.67-1.65 4.87-.06.29.03.44.17.17.41.17h5.07q.2 0 .35.15.14.2.14.38l-.11 2.2q-.06.47-.5.47h-5.07q-.41 0-.41.49zm25.84 16.64l.03-12.21q0-4.92-1.79-5.45-.2-.15-.2-.37t.2-.39q2.61-1.88 4.31-5.28.12-.26.41-.26t.44.26q1.55 3.37 4.45 5.25.21.17.21.42 0 .25-.24.37-1.93.55-1.87 5.45v10.31q0 3.02 1.11 3.69 1.23.82 2.08-.64.32-.56.75-.25.42.3-.02 1.01-.88 1.35-1.65 2.75-.78 1.41-1.57 2.76-.5.85-1.38.32-4.36-2.08-5.12-5.28-.06-.23-.35-.32-.3-.09-.41.09-1.67 1.35-3.34 2.83t-2.29 2.71q-.5.7-1.08-.03-1.61-1.88-3.15-2.87-1.54-1-4.09-1.61-.56-.21-.53-.5.03-.3.38-.44.74-.27 1.34-.98.6-.72.6-2.39V34.32q0-2.99-1.12-3.67-1.31-.79-2.11.65-.32.56-.73.23-.41-.32.03-1.02.85-1.32 1.63-2.73.77-1.4 1.59-2.81.5-.88 1.32-.32h.03q5.3 2.78 5.3 7.62l-.05 15q0 .85.44 1.14l2.51 2.08q.3.26.68.06 2.37-1.88 3.07-2.41.18-.11.18-.38zm23.2-14.73l-.03 14.21q0 .93.47 1.2l2.11 1.23q.68.41 2.05-1.44.3-.38.74-.16t0 .75q-3.08 3.43-4.72 6.74-.5.67-1.08 0-1.65-1.91-3.07-2.9-1.42-1-4.17-1.64-.53-.15-.53-.47 0-.33.38-.47 1.97-.32 1.94-3.37V34.32q0-2.99-1.12-3.67-1.29-.85-2.11.62-.32.61-.73.29t.03-1.02q.85-1.35 1.63-2.76.77-1.4 1.59-2.81.5-.88 1.32-.32 4.31 2.08 5.16 5.27.09.29.35.37.26.07.47-.19l4.51-5.19q.18-.17.41-.16.23.02.38.25l3.08 5.89q.11.26-.06.5l-3.52 4.22q-.2.2-.45.17t-.34-.26l-2.37-4.4q-.12-.17-.37-.22-.25-.04-.45.16l-1.38 1.67q-.12.12-.12.3zm26.81 5.77q.06-1.64-.78-2.04-.83-.39-3.53.22-4.16 1-7.44-1.84-3.28-2.85-3.28-8.47.03-5.6 4.07-9.67 4.05-4.07 9.67-4.07 2.55 0 5.54 1.26t5.1 3.75q.17.23.38.2.2-.02.35-.26 1.29-2.11 3.32-3.54 2.04-1.44 5.41-1.35 4.36.2 7.82 5.39.18.26.44.26t.41-.29q1.23-2.29 3.11-3.75 1.87-1.47 4.68-1.47 3.61.06 5.95 2.2 2.34 2.14 3.4 7.18.64 3.49 2.69 3.69.59.03.63.5.05.47-.71.7-5.69 1.94-7.83 6.2-2.13 4.26.18 10.85 1.03 2.99 2.94 4.21 1.92 1.21 4.21-.19.85-.5 1.27.01.43.51-.16 1.01-1.99 1.58-3.94 3.15-1.95 1.57-3.91 3.12-.32.24-.61 0-6.24-5.01-7.52-11.13-1.27-6.12 8.07-14.5.21-.21.19-.41-.01-.21-.28-.35-2.05-1.38-3.01-7.07-1.03-5.62-4.57-5.68-2.52-.06-4.28 3.69-.12.21 0 .41 1.14 2.43 1.65 5.42.52 2.99.05 6.33-1.17 8.09-3.47 12.2-2.3 4.12-5.47 8.22-4.19 5.24-7.91 1.14-1.05-1.17-2.21-1.52-1.16-.35-2.65.82-.56.47-.95.1-.4-.36.04-.92 3.75-5.22 5.96-5.95 2.21-.73 4.32 1.23 1.73 1.61 3.18 1.73 1.45.12 2.27-2.17 1.59-4.39 1.13-12.29-.45-7.89-3.19-12.11-2.74-4.22-5.22-4.97-2.47-.74-4.49 1.31-.3.29-.03.61 3.48 4.84 3.75 11.19.17 5.22-2.02 10.01-2.2 4.79-5.66 9.18-3.78 4.81-7.16 5.51-3.39.7-6.2-3.43-2.46-3.69-5.01-.9-.61.52-1.1.02-.48-.49.14-1.14 7.99-8.14 12.56-2.14.74 1 1.4 1.85.65.85 1.97.79 1.7-.06 3.58-3.72 1.87-3.66 1.87-9.23-.06-7.29-3.81-12.79-3.75-5.49-8.58-6.02-4.83-.5-7.62 1.82-2.78 2.31-2.69 5.48.08 3.22 1.71 5.15 1.63 1.94 6.02.79 8.47-2.16 7.35 6.24-.11.88-.8.9-.69.01-.69-.66zm65.48 12.07q-1.5 1.14-3.28 2.5-1.79 1.37-3.31 2.51-.53.41-.84.35-.31-.06-.25-.53 0-.61-1.81-2.34-4.78-4.48-4.6-11.66.17-6.15 5.71-10.4 1.7-1.29 3.18-2.73 1.48-1.43 2.62-3.48.47-.91 1.29-.06 4.45 5.04 8.91 5.95 1.4.26.29 1.11-1.38 1-1.49 2.46v.06l.08 13.39q0 1.35.98 1.84.99.5 2.13-.76.44-.5.83-.25.4.25.02.9-1.06 1.58-2.04 3.1-.98 1.53-1.65 3.17l-.03.03q-.41.67-1 0-.32-.36-.76-.47-3.34-.74-4.22-4.43-.06-.17-.29-.35-.27-.03-.47.09zm.32-17.26q-1.82-.49-4.25-2.81-1.17-1.41-1.87-.26-3.11 4.63-2.43 10.22.93 8 5.62 9.87.03 0 .06.03 1.2.38 2.9-1.43.12-.18.12-.32-.03-.44-.03-1.38l.26-13.45q0-.35-.38-.47zm29.09 17.79q-2.11.96-5.07 2.15-2.95 1.19-4.62 2.42-.62.41-.88.32-.27-.09-.21-.5.03-.53-.45-1.79-.49-1.26-1.16-2.25-1.87-2.73-2.43-4.98-.56-2.26-.91-5.36-.32-2.99 1.33-5.66 1.66-2.66 4.35-4.74 1.7-1.29 3.2-2.73 1.49-1.43 2.61-3.49.49-.9 1.31-.05 4.4 4.98 9.38 6 1.29.32.56.94-2.7 3.95-2.41 8.07.3 4.12 1.91 8.34v.03l.03.02q2.63 9.64-1.78 13.99t-8.74 4.79q-7.5.74-9.93-3.86-.56-1.06-.02-2 .54-.93 1.6-1.11 2.08-.35 3.66 2.7 2.17 4.36 6.33 2.66 3.57-1.49 4.1-5.15.53-3.67-1.05-8.41 0-.06-.03-.09l-.03-.03q-.18-.44-.65-.23zm1.7-16.35q-1.64-.67-3.89-2.08-2.26-1.41-3.31-2.37l-.06-.03v-.06q-1.06-1.55-1.88-.27-3.1 4.63-2.46 10.23.44 3.72 1.61 6.85 1.17 3.14 3.63 4.11l.03.03h.03q1.64.43 4.25-1.24.29-.14.21-.55-1.23-3.37-.93-6.84.31-3.47 2.98-7.08.26-.47-.21-.7zm27.28 12.71l.03-12.21q0-4.92-1.79-5.45-.21-.15-.21-.37t.21-.39q2.61-1.88 4.31-5.28.11-.26.41-.26.29 0 .44.26 1.55 3.37 4.45 5.25.2.17.2.42 0 .25-.23.37-1.93.55-1.88 5.45v10.31q0 3.02 1.12 3.69 1.23.82 2.08-.64.32-.56.75-.25.42.3-.02 1.01-.88 1.35-1.65 2.75-.78 1.41-1.57 2.76-.5.85-1.38.32-4.36-2.08-5.13-5.28-.05-.23-.35-.32-.29-.09-.41.09-1.67 1.35-3.34 2.83t-2.28 2.71q-.5.7-1.09-.03-1.61-1.88-3.15-2.87-1.53-1-4.08-1.61-.56-.21-.53-.5.03-.3.38-.44.73-.27 1.33-.98.6-.72.6-2.39V34.32q0-2.99-1.11-3.67-1.32-.79-2.11.65-.32.56-.73.23-.41-.32.03-1.02.85-1.32 1.62-2.73.78-1.4 1.6-2.81.5-.88 1.32-.32h.03q5.3 2.78 5.3 7.62l-.06 15q0 .85.44 1.14l2.52 2.08q.29.26.68.06 2.37-1.88 3.07-2.41.18-.11.18-.38zm23.41-15v11.66q-.03 4.72 1.75 5.45.21.15.21.4t-.21.36q-2.63 2-4.27 5.31-.18.23-.44.23-.27 0-.44-.23-1.64-3.31-4.46-5.28-.17-.11-.17-.38 0-.26.2-.41 1.91-.73 1.91-5.45V34.7q0-2.99-1.12-3.66-1.28-.85-2.1.61-.33.62-.74.29-.41-.32.03-1.02.85-1.35 1.63-2.76.77-1.4 1.59-2.81.47-.85 1.32-.35l.03.03q4.31 2.17 5.16 5.3.06.32.29.38.24.06.47-.11 1.61-1.35 3.31-2.85 1.7-1.49 2.32-2.75.32-.76 1.05.03 1.76 1.85 3 2.93 1.25 1.08 4.24 1.61.52.12.54.45.01.34-.37.46-.76.29-1.35 1.01-.58.72-.58 2.39v12.39q0 2.99 1.11 3.66 1.29.79 2.08-.64.32-.56.75-.25.42.31-.02 1.01-.87 1.38-1.65 2.77-.78 1.39-1.57 2.77-.53.82-1.32.38-5.33-2.58-5.33-7.65l.03-15q0-.88-.44-1.14h-.03v-.06l-2.49-2.05q-.32-.24-.67-.03l-3.05 2.37q-.2.15-.2.35zm29.76-1.64l-.03 16.41q0 .91.44 1.2l2.11 1.2q.62.53 2.05-1.4.27-.39.72-.12.45.26.04.7-3.13 3.43-4.71 6.74-.5.61-1.09 0-1.64-1.93-3.04-2.9-1.41-.97-4.19-1.64-.47-.09-.5-.44-.03-.35.35-.5 1.96-.47 1.93-3.37l-.03-15.85q.03-.52-.44-.52h-3.45q-.41 0-.53-.33-.12-.32.26-.55 3.52-2.49 7.17-6.01 3.64-3.52 6.63-6.68.38-.41.75-.16.37.25.01.72-1.34 1.67-2.71 4.33-1.36 2.67-1.65 4.87-.06.29.03.44.17.17.41.17h5.07q.2 0 .35.15.15.2.15.38l-.12 2.2q-.06.47-.5.47h-5.07q-.41 0-.41.49zm12.16 17l-.21-16.06q0-.56-.17-.91-.7-1.14-1.2-.55l-1.17 1.2q-.47.52-.9.11-.42-.41.13-1.14 1.29-1.61 2.32-3.22 1.02-1.61 2.11-3.19.47-.56 1.08.02 1.23 1.5 2.4 2.63 1.18 1.12 3.34 2.38.62.24.55.56-.08.32-.4.35-.76.3-1.35 1.01-.58.72-.58 2.39v12.39q0 2.99 1.11 3.67 1.29.76 2.11-.65.29-.56.72-.25.42.31-.02 1.01-.88 1.38-1.64 2.77-.76 1.39-1.55 2.77-.56.82-1.38.35-2.63-1.26-3.97-3.07-1.33-1.82-1.33-4.57zm4.25-34.78q3.25 0 2.96 3.13-.18 1.59-1.98 3.18-1.8 1.6-2.86 1.57-1.05 0-1.61-1.67t-.44-3.08q.09-1.34 1.31-2.24 1.21-.89 2.62-.89zm22.94 37.53q-1.5 1.14-3.28 2.5-1.79 1.37-3.31 2.51-.53.41-.84.35-.31-.06-.25-.53 0-.61-1.81-2.34-4.78-4.48-4.6-11.66.17-6.15 5.71-10.4 1.7-1.29 3.18-2.73 1.48-1.43 2.62-3.48.47-.91 1.29-.06 4.45 5.04 8.9 5.95 1.41.26.3 1.11-1.38 1-1.5 2.46v.06l.09 13.39q0 1.35.98 1.84.98.5 2.13-.76.44-.5.83-.25.4.25.02.9-1.06 1.58-2.04 3.1-.98 1.53-1.66 3.17l-.02.03q-.41.67-1 0-.32-.36-.76-.47-3.34-.74-4.22-4.43-.06-.17-.29-.35-.27-.03-.47.09zm.32-17.26q-1.82-.49-4.25-2.81-1.17-1.41-1.87-.26-3.11 4.63-2.44 10.22.94 8 5.63 9.87.03 0 .06.03 1.2.38 2.9-1.43.12-.18.12-.32-.03-.44-.03-1.38l.26-13.45q0-.35-.38-.47z"/></svg>