<svg viewBox="0 0 324 80" xmlns="http://www.w3.org/2000/svg"><path d="M46.85 15.06h5.04v11.49h10.43v2.34H51.89v4.34q0 4.33-.23 5.27-.12.94-.47 1.64t-.59.94l-.23.35h5.39v-1.05h5.04v9.72q0 9.85-.12 10.67-.23.93-.47 1.52-.35.7-.82 1.17-.47.59-1.17.94t-1.52.35l-.94.12v-4.69H42.98l-.11.35-.24 1.06q-.23.7-.58 1.29-.47.58-.82.93-.35.35-1.06.71-.7.35-1.52.35h-.82l.12-12.31V40.38h5.03v1.05h3.87V15.06zm8.91 28.6h-6.33q-6.33 0-6.39.17-.06.18-.06 7.09v6.92h12.78V43.66zM27.63 15.53h2.46v2.7q0 2.69-.29 3.45-.29.77-.76 1.47-.59.47-1.29.82-.7.35-1.64.35l-1.06.12V20.1q0-4.22.06-4.39.06-.18 2.52-.18zm-9.96 10.55h17.11v2.22H17.79l-.12-1.17v-1.05zm11.49 7.03h5.27v.35q0 .35-.94 8.91l-.82 8.55-.58 1.17q-.47.94-1.18 1.94-.7.99-1.52 1.58-.94.7-1.76 1.17-.82.47-1.46.29-.65-.17-.65-.29l.59-.94q.47-.82.94-1.87.47-1.06.82-2.11.35-1.17.82-9.38.47-8.32.47-8.78v-.59zM15.68 37.8q0-.47.12-.47.11 0 1.64 1.52 1.52 1.53 2.69 2.81 1.06 1.41 2 2.7.93 1.41 1.52 2.69.7 1.29 1.05 2.47.35 1.05.59 1.99.12 1.05 0 1.17l-2.34.94q-2.23.82-2.23.7-.12 0-.47-2.23-.35-2.22-.82-4.33-.47-2.35-.82-3.52t-.82-2.46q-.35-1.17-.82-1.93t-.88-1.17q-.41-.41-.41-.88zm1.99 20.62h15.94v2.23H17.79l-.12-1.17v-1.06zm91.64-42.77h3.75v9.73h7.15v1.05l-.12 1.17h-3.51l-3.52.12v2.81q0 2.93-.11 3.87-.12.82-.47 1.64t-.35.94q-.12 0 .11.06.24.05.82.05h9.26v2.35H98.88v-2.35h10.43v-9.37h-5.86l-.35.58q-.23.47-1.29 2-.82 1.4-2.11 2.93-1.17 1.64-1.64 1.99-.35.47-.7.35l-.35-.12q0-.11.7-1.75.59-1.18 2.34-5.51 1.88-4.69 2.47-6.33l.82-2.23h1.99q1.99 0 1.99.06t-.82 2.05q-1.05 2.23-1.29 2.7-.35.82-.35.88 0 .06 2.23.06h2.22v-9.73zm-23.32 2.34h10.43v2.35h-5.15v2.93q-.12 3.04 0 3.28 0 .35.7.29t.76-.35q.06-.29 1.82-.29h1.87v16.17q0 16.05-.23 16.99-.24.94-.59 1.64-.23.7-.82 1.29-.47.47-1.17.82-.59.23-.7.23-.12 0-.12-1.52l-.12-1.64H79.31l-.11.35q-.24.59-.59 1.17-.47.59-1.11 1.06-.65.47-1 .58h-.47V26.2h1.88q1.75 0 1.81.29.06.29.88.29h.94v-6.44h-2.93l-3.05-.12v-1.99q.12-.24 10.43-.24zm1.64 2.35h-1.17q-1.17 0-1.17.11-.12 0-.12 3.05t.12 3.16q.12.24 1.17.12h1.06V23.5l.11-3.16zm-6.09 8.79h-1.88v28.71h13.13V29.13h-1.64v5.15q0 5.04-.18 5.86-.17.82-.47 1.35-.29.53-.64.99-.47.47-1.17.82-.59.36-.82.36-.24 0-.24-7.27v-7.26h-1.17l-1.17.11-.12 5.39q-.12 5.39-.29 5.92-.18.53-.41 1-.24.47-.7.99-.47.53-1.12.82-.64.3-.88.3-.23 0-.23-7.27v-7.26zm-.7 18.63h11.01v2.22H80.84v-2.22zm23.32-4.1h1.75v1.4h4.93l5.04-.11v-1.18h3.63v8.09q0 4.8-.06 6.5-.06 1.7-.18 2.17-.11.59-.47 1.41-.35.7-1.05 1.29-.7.58-1.29.82l-.58.23v-4.45H105.8l-.24.94q-.35 1.05-.82 1.75-.58.71-1.29 1.06-.7.47-1.05.47h-.24V53.97q0-10.08.12-10.2 0-.11 1.88-.11zm11.72 3.63h-9.97v10.19h4.93l5.04-.11V47.29zm39.72-32.23h5.04v22.03q0 22.04-.29 22.91-.3.88-.76 1.94-.47 1.05-.94 1.64-.35.47-.94.88-.58.41-1.29.41h-.82V15.06zm10.78 13.95l.94.47q1.06.47 2.05 1.23 1 .76 2.4 2.17 1.18 1.17 2.35 2.69 1.17 1.41 1.76 2.34.82 1.18 1.87 2.93 1.05 1.76 2.11 3.75.94 2 1.17 2.58l.24.59h-.36q-.11 0-3.63.35l-3.28.23q-.12-.11-.59-1.99-.82-2.81-1.17-3.63-.58-1.88-1.17-3.52-.82-2.11-1.76-3.86-.82-1.88-1.46-2.88-.65-.99-1.35-1.69l-.82-.82.35-.47q.24-.47.35-.47zm-23.32.23h5.04v4.57q0 4.57-.17 5.98-.18 1.41-.53 2.58-.35 1.17-.94 2.46-.7 1.4-1.29 2.34-.58 1.06-1.52 2.17-.94 1.11-1.88 1.93-1.05.71-1.87 1.29-.82.71-1.99 1.17-1.06.71-1.18.71-.11 0-.11-1.06v-.93l.7-.47q.7-.47 1.47-1.18.76-.7 1.46-1.64.7-.93 1.29-1.87.35-.94.7-1.99.47-1.17.59-2 .23-1.17.23-7.61v-6.45zm64.81-14.18h5.04v2.58h6.56l6.44-.12.12-1.17v-1.29h5.04v2.58h13.13v1.06l-.12 1.17h-6.56l-6.57.11-.23.59q-.12.59-.47 1.17-.23.47-.7 1.06-.47.58-1.17.93-.71.36-1.53.36h-.82v-4.22h-13.24l-.24.82q-.23.7-.58 1.29-.24.58-.82 1.05-.47.47-1.06.82-.58.24-1.4.24h-.82v-4.22h-13.36v-2.23h6.68l6.56-.12.12-1.17v-1.29zm-5.28 8.21h2.11q2.11 0 2.17.11.06.12-.64 1.53-.71 1.4-1.59 2.81-.87 1.41-1.34 1.99-.47.47-1.17 1.41-.71.7-2 1.87-1.29 1.06-2.46 1.88-1.29.82-2.69 1.52-1.41.7-1.53.7v-1.4l.82-.71q1.06-.82 2.11-1.99 1.29-1.29 2-2.22.82-1.18 1.64-2.35.82-1.17 1.46-2.63.65-1.47.88-2.06l.23-.46zm11.96 1.28h5.04v8.79l-.47.82q0 .24-.12.47-.12.24-.18.41-.05.18-.17.18l1.4.23h1.41v-4.1l.12-3.98 1.76-.12h1.87v3.52q0 3.51-.12 4.21-.23.82-.46 1.41-.36.82-.94 1.41-.59.58-1.17.93-.71.24-.88.24-.18 0-.18-.59v-.7h-9.84l-.71.47q-.58.47-1.05.7-.47.12-.65.12-.17 0-.17-5.74l.12-5.86 1.75-.12h1.88v4.1l-.12 4.1h1.88v-10.9zm15 .24q0-.24 2.46-.24t2.46.12l-.47 2.7q-.59 2.81-.94 3.86-.35.94-.35 1.06l6.21.12h6.33v1.75h-3.87v.36q-.11.46-.23 1.28 0 .71-.24 2-.23 1.29-.58 2.34-.24 1.29-.7 2.64-.47 1.35-.83 2.4-.58 1.29-1.52 3.4l-1.05 2.11 1.05 1.29q1.06 1.29 2.81 2.93 1.53 1.64 2.46 2.34 1.06.7 1.18.7l.23.24-.47 3.28q-.35 3.28-.41 3.34-.06.06-2.17-1.99t-3.28-3.34q-1.17-1.18-2.11-2.46-.7-.94-1.29-1.88-.35-.59-.46-.59-.12 0-.59.65-.47.64-2.11 2.28-1.52 1.65-3.05 2.7-1.17.94-1.99 1.41-.7.35-.7.93 0 .59-.06.59t-.41-.35l-.47-.24-.7.24q-.24.12-1.06.47-.35.11-.7-.12l-.35-.23.7-.71q.82-.7.82-.76 0-.06-1.17-1.41-1.17-1.34-1.88-2.52-.7-1.17-1.05-2.22-.47-.94-.7-1.99-.35-1.06-.35-3.64l-.12-2.46h-4.34v1.88q0 1.99-.23 3.16-.24.94-.59 2.11-.35.94-.99 2.23-.65 1.29-1.47 2.34-.94 1.29-2.46 2.7-1.52 1.52-1.64 1.52-.12 0-.12-.88t.47-1.23q.47-.23 1.06-1.29.46-1.05.7-1.99.23-1.06.47-2.23.11-1.17.11-5.74v-4.57h13.72v5.39q.11 5.16.35 6.39.23 1.23.58 2.17.47 1.05.59 1.05.23.12.94-.59.47-.58 1.52-1.75.82-1.06 1.99-2.7 1.29-1.76 2.11-3.16.94-1.53.82-1.76 0-.35-.82-2.11-.7-1.88-1.29-3.63-.58-2-.82-3.28l-.35-1.65-.94.83q-.82.7-1.64 1.28-.93.47-.93.71 0 .23-8.44.23h-8.44v-2.22h17.11l.82-1.76q.7-1.53 1.52-3.52.59-1.64 1.06-2.93.23-1.17.82-4.22l.47-3.16zm6.68 9.37h-4.46l-.35.71q-.35.58-1.11 1.81-.76 1.23-.76 1.41 0 .18.7 1.82.82 1.75 1.99 3.86 1.17 2.35 1.29 2.35.12 0 .47-1.06.47-1.05.94-2.81.35-1.29.7-3.05.24-1.29.35-2.69.24-1.29.24-1.76v-.59zm-32.58-.99q.12-.18 2.34-.18 2.23 0 2.29.06.06.06-.3 1.06-.35.99-.82 2.05-.46.82-1.17 2.11l-.7 1.17v9.61q0 9.61-.24 10.54-.11 1.06-.46 1.88-.47.82-.82 1.41-.47.46-1.35.87-.88.41-1.58.41l-.71-.11v-9.61l-.11-9.73-.59.47q-.7.47-1.99 1.17-1.41.7-2.81 1.17-1.18.36-1.65.47l-.46.12.11-.7q.12-.82 1.12-1.53.99-.7 2.4-2.11 1.64-1.52 2.69-2.81 1.06-1.41 2.11-2.93 1.06-1.64 1.82-3.16.76-1.53.88-1.7zm81.33-20.22l2.46.12v11.25h7.73l7.74.12v2.11h-10.32v1.4q.12 1.06.36 2.7.23 1.64.46 2.81.36 1.64.82 3.05.47 1.76 1.18 3.51.7 1.76 1.52 3.4.82 1.64 1.76 3.17 1.05 1.75 1.76 2.57.82 1.18 1.4 1.88.7.94.59 1.29-.12.35-.24.35-.11 0-1.23-.76-1.11-.76-2.52-1.94-1.52-1.17-2.93-2.57-1.4-1.41-2.57-2.93-1.18-1.53-2.11-2.93-1.06-1.53-1.64-2.82-.71-1.17-1.18-2.46l-.47-1.17-.11 6.92v6.91h7.61v2.11h-7.5l-.11 5.74q0 5.74-.24 6.45-.23.7-.47 1.29-.35.58-.7 1.05-.47.47-1.17.82t-1.64.35l-.94.12v-7.85l-.12-7.85-4.1-.12h-4.22v-2.11h4.22l4.1-.12.12-6.44q0-6.57-.12-6.57-.11 0-.35.59-.11.59-1.05 2.23-.71 1.4-1.76 3.04-.94 1.41-2.11 2.93-1.05 1.29-2.69 2.93-1.65 1.64-3.05 2.7-1.52 1.29-2.35 1.76-.93.7-1.05.7t-.29-.35q-.18-.35 1.11-1.88 1.29-1.75 1.88-2.69.82-1.06 1.52-2.35.7-1.17 1.29-2.22.58-1.17 1.29-2.81.7-1.76 1.29-3.29.58-1.64.93-3.16.47-1.64.77-3.34.29-1.7.41-2.87l.11-1.17h-10.31v-2.23h14.53V18.7q0-5.51.12-5.63.12-.12 2.58-.12zm-21.92 1.18h5.98v.35q0 .35-.35 1.52-.24 1.17-.71 2.46-.46 1.17-.93 2.23l-.59 1.17v19.8q0 19.69-.23 20.63-.24.94-.71 1.64-.47.82-1.11 1.17-.64.35-1.11.47-.47.23-1.17.23h-.71V28.77l-.94.71q-.93.82-1.87 1.4-1.17.59-2.23 1.06-.7.23-.93.29-.24.06-.24-.06-.12-.23 1.06-1.99.7-1.17 1.64-2.7.47-.82 1.64-3.04 1.17-2.35 1.75-3.87.59-1.76 1.06-3.05.35-1.4.59-2.34l.11-1.05z"/></svg>