<svg viewBox="0 0 437 80" xmlns="http://www.w3.org/2000/svg"><path d="M53.31 22.14l-.93-10.31h2.81q4.45 2.11 4.45 7.73l-1.87 6.33-.24 1.41 7.27.23 2.58 2.58v.7q-.24 1.17-9.85 2.82l-.94.46-.23 13.36.7 15.71-4.45 3.04h-.94l-1.4-3.98v-3.75l1.64-2.58-.47-16.41.7-5.15-8.91.47h-.7l-1.64-1.41v-.94q11.02-1.17 11.25-5.15l1.17-5.16zm-17.58 2.58h2.82l2.58 2.34-8.21 12.19v.94h4.46l1.87 1.64v.94l-11.72 5.86h-.94v-.94l.94-.47 1.17-1.64h-2.81l-7.03 1.4-1.64-1.4V34.56l-1.64-4.45 1.87-1.88 4.22.94q10.55-4.45 14.06-4.45zm-7.96 5.39l-2.58 2.11.94.94v.7l-1.18 3.98.94 3.05q2.34 0 6.09-10.55l-4.21-.23zm58.82-9.61l.94-8.44 2.81-.47q1.64 0 3.52 7.27l1.87 1.64-3.28 3.28 1.18.7v.94l-1.88 6.8 4.45-7.03.24 1.87-5.39 13.13-1.17 10.31-.94 10.31-.71.24-3.51-3.52.7-3.75v-.94h-1.17l-4.69 6.33-4.22-3.51-.23-1.88q10.55-15.94 9.61-22.73l-.7.23-5.39 2.35-5.63.7-2.11-1.64q5.86-2.11 15.7-12.19zm26.02-10.31l3.98 2.34.24.94q-3.99 5.16-4.45 17.81l-.47 5.86-4.46 4.69-2.81-.7-.94 1.17.71 4.68 15-4.68 4.22.7-3.99 7.03q12.42.47 12.66 3.28l-3.52 2.35-11.48-2.58q-4.92 7.97-14.77 9.14l-1.17 1.17-3.75-3.51 3.28-35.16-1.17-3.75-2.58 2.34-.23-.93q3.04-10.79 15.7-12.19zm-4.92 6.09l-4.46 1.64 2.11 4.46 3.75-.47-.46-3.75-.94-.94v-.94zm9.61 30l-6.57 1.88 5.16.93 1.41-2.81zm-14.07 5.39l.24 2.81 1.87 1.88 4.93-.7 4.45-1.41q-.24-2.58-11.49-2.58zm4.46-24.61l-3.52.94.47 10.31 1.88-.23.93-4.69.47-4.22-.23-2.11zm48.28-13.83l3.51-2.34h3.05l2.58 2.34-2.58 4.46v.7q2.58 0 4.22 3.05v3.04q0 1.65-7.27 2.35-5.85 3.05-5.85 4.45h.7l8.9-2.81 1.88 1.41q-4.22 9.6-4.22 14.06 6.33 6.79 26.02 9.84l.93 2.35q-1.17 3.04-2.57 3.04h-5.86q-11.96 0-18.52-7.5l-1.41-.7h-.93q-4.69 9.61-20.16 9.61l-5.16.94v-3.99q12.66-17.34 12.66-20.15l-.7-.71q3.28-.94 3.28-4.69l.94-.7-.94-.7q-3.05 0-4.22-4.69 12.66-3.98 12.66-10.31l-.94-2.35zm-3.28 24.15q1.17 3.04 4.22 4.45l2.57-9.85q-6.79 1.88-6.79 5.4zm-11.96 20.15q12.9-3.75 14.54-7.97v-1.64l-5.86-5.39q-8.68 12.66-8.68 15zm65.63-45.23v-.94h1.41q3.04 2.81 5.86 2.81l7.26-2.81h1.88l2.34 2.81q-3.75 5.16-5.63 5.16v4.92q3.29 0 3.29 1.88v2.1l-5.16 5.86v3.05l5.16-3.05h5.62l1.64 2.11v.94q-.23 2.58-13.83 5.86l-.93 11.02v.93q21.56-2.34 23.67-6.79 2.11-4.46 5.86-18.99h.7l.94 3.05-1.64 8.91v8.9q-3.99 11.02-17.35 11.02l-13.12 1.87q-5.16 0-6.56-8.9v-3.05l.93-4.92h-.93l-12.19 8.9h-1.64q-3.28-1.87-3.28-5.86l10.78-4.92q9.61-3.75 9.61-7.97l-.71-.93-3.28 1.87q-4.22-1.17-4.22-3.05 0-4.21 9.14-14.76-5.62 0-5.62-7.03zm1.41 15.93v.94q6.79-1.17 9.84-8.9v-.94q-8.44 4.92-9.84 8.9zm53.67-15.46h1.87q4.46 2.11 4.46 7.03h8.9q6.33-6.1 8.21-6.1 4.92 0 9.84 2.58 0 2.81-12.66 7.97l5.39-5.39v-.7l-3.51-1.88H283q-1.64 0-1.64 2.58-1.64 0-2.81 6.33h-6.33l-3.52-.94q-2.81 0-10.78 10.55h-1.87q-3.52-1.41-3.52-6.1 4.22-2.57 8.91-15.93zm18.98 11.48h-2.81 2.81zm2.58 2.58h2.81v.94l-5.86 7.26-.23 1.88 3.51-1.64.71 2.81-6.33 7.73 9.14-3.75 3.75 4.22q-4.92 1.88-10.08 3.75-3.75 2.35-3.75 4.22 1.64 4.45 4.46 4.45 18.98 0 18.98-9.61 0-5.86 2.58-6.32l.94.93 1.4 5.16-1.4 8.2q-5.86 7.03-18.75 7.03h-8.21l-4.45-4.45v-5.39l-18.05 7.97-.7-.7V58.7q0-1.4 4.45-2.57l.94.93h.7q12.89-6.09 13.6-7.97l.93-6.32h-.93l-8.91 6.32-1.87-1.87v-.94l18.75-15.94-13.36 7.27h-1.88v-1.88q14.3-8.9 17.11-8.9zm26.95 6.09l19.22-22.26q2.11 0 2.11 2.57-.94 6.57-9.84 17.11l3.04 2.58v2.58l-5.85 7.97q1.87 0 1.87 4.22l-.94 11.95 12.66 1.88q13.36-2.58 13.36-7.04l3.98-18.04h-.93q-12.43 6.09-16.41 6.09h-3.05v-2.58q0-1.64 12.66-4.45 0-2.81 17.34-5.86l1.88 1.64v.94q0 1.41-8.67 5.16l-.94 5.15v1.64l1.87 15.47q-5.15 6.09-15.47 6.09-16.87-3.51-19.21-5.15l-.94 2.58-3.75-2.58v-1.64l1.87-9.61v-1.64l-5.86 3.51-.93-.93v-.94q0-3.99 8.67-9.38 2.81-3.28 2.81-6.09v-.94h-.94l-4.68 3.52-4.93-3.52zm43.36-12.89l.94.94v.94l-4.69 4.22q-10.78-1.18-10.78-3.52 0-2.58 14.53-2.58zm30.94-10.55h.94l5.62 4.22v1.18l-3.28 7.03-.23 2.57q5.39-.7 11.48-3.98h1.17q6.8.47 6.8 2.58l-8.67 12.19 4.22-.71h4.45q7.97 0 12.42 7.5V43q-3.75 3.05-5.62 10.55-2.11 4.22-12.42 7.5h-4.46q-4.22-1.88-7.73-6.57l-.24-2.57q8.21 5.15 12.43 5.15 8.9 0 8.9-15.7l-3.28-3.28q-6.8 0-19.69 5.15v13.13l1.88 6.33q-2.35 6.33-4.69 6.33l-1.41-.94V45.81l-8.67 1.64h-1.4v-3.51q7.03-6.8 10.07-6.8v-5.62l-8.43.46q-3.99-4.68 8.67-7.03l-.24-14.53 1.41-.94zm22.73 9.61l4.46.94 4.69 3.52-.47 5.15-2.58.71q-3.52-1.64-4.92-8.44l-1.18-1.88zm-16.17 10.32l-3.75 1.17-.23 3.98.47 1.17h2.34l2.34-1.17 2.11-1.4 1.18-2.35.93-2.81-.47-.94-2.34.94-2.58 1.41z"/></svg>