<svg viewBox="0 0 380 80" xmlns="http://www.w3.org/2000/svg"><path d="M18.8 53.91l-1.88-1.18q1.41-4.21 1.17-11.48l-.23-13.59q-.23-1.18-.23-1.64-.47-.24-2.35-.47l3.52-2.82v-.93q.7.23 3.98 3.04l5.16-.46 3.28-2.35 2.34 1.88q1.64 1.4 2.35 2.11l-1.64 3.28.46 4.68h9.38q.23-3.04-.47-14.76l-3.28-.7 5.86-3.75 4.92 2.34.94 1.41-2.81 2.11.23 13.12 1.64-.47q4.69.47 9.61-3.75 2.34.7 5.63 3.75 1.17.94-.24 3.28l-.94.24h-1.17q-6.33-.47-13.36.23-.23 0-.47.24v2.81l.24 12.65v4.69q0 3.75-3.05 7.03.24 0-1.87.24l-.71-1.64.24-17.58q0-1.64-.24-8.2l-7.73 1.64-1.64-2.58h-.47q-.24 1.4-.24 2.34l.24 3.28q.23 2.11-1.17 3.75l-2.82 3.05q-1.17-.94-1.4-1.17v-2.81q-6.33.7-7.5.93-.24 5.63-3.28 8.21zm10.78-12.19l-.47-7.27-.23-6.79-7.04.47q-.23 2.81.24 14.29 3.51-.47 7.5-.7zm67.73 15.94q.47.93 1.41.47 1.64-.47 2.34-1.65l.24-.7v-7.5q-.24-4.45-.24-6.56v-.7q0-2.35-.47-5.39-.23-3.29-.23-3.99v-4.69q.23 0 .23-.7-.23-3.52-1.4-7.03.23-.47 1.17-.47v.23q.47.24.7.24.24-.24.47 0 .7.47.94.47 1.17.23 2.11.94l.23.7q.47.23.71.23h2.11l.23-.23.23-.24q2.58 0 3.99-1.4 0 .23 1.64-1.17.7-1.18.7-.94.47 0 .47.23l-.47.47h.94q.23 0 1.64.47 0 .47 1.41.94.47.23.47.7 0 .7-.24 1.17-.94 1.17-.94 1.41-.23.47-.23 1.64l.23 1.41-.23 2.81q.23-.47.23 2.34 0 .24-.23 1.17-.24 1.18-.24 2.35 0 1.87-.46 2.81-.24.23-1.88.47-4.92.94-6.8.94-1.17 0-1.4-.24l-.47.24q-2.34 0-2.34 2.34l.23.47v5.86q.23.23.23 1.17 0 .47-.7.47l.7 1.17v2.81q0 1.88.71 1.88.47 0 3.28-1.41l1.17-.23q.94-.47.94-1.41 0-.7-.94-2.11-.7-.94-.7-1.87l-1.17-4.92q.23 0-.24-1.41l.24-1.17q-.94.7.93 2.58l.94 1.4q.94.94 1.64.94t1.88-1.64q-.24 0 1.64-2.11 1.64-2.11 2.11-2.11.46 0 1.87 1.41 1.64 1.17 1.64 1.87 0 .47-.7.94l-.7.23q-.24 0-.71.24-.47.23-1.17.7-.7.7-1.17.94l-1.41.23q-1.4.24-1.4 1.41t2.11 2.11q.7.47 1.64.7.93.47 1.17.7.23 0 .47.24.23.23.47.23 1.17 0 3.28.94.7 0 1.64.47l.7.47 2.81.47q-.47.7-1.4.7-3.52.94-5.39 3.28h-.24l-1.64-.7q0-.24-.7-.24-.24-.23-.94-.7-.94 0-5.62-3.05-.24 0-1.88 1.64-.47 0-.7.47l-.94.94q-.23 0-1.17 1.17-.47.71-1.17.71-.24 0 0 .23-.47 0-1.18.94l-.7.7-.94.94q0 .23-.47.23-.7.24-.93.47 0 .47-.24.7 0 .24-.93.94-.47.47-.47.7-.71 0-.94-.46l-.24-2.58-1.17-3.28zm-8.43-16.64v10.31l.23 3.98q0 1.88.23 4.92v2.58q1.18 1.41 1.41 1.41 1.88-1.64 2.34-3.52.47-1.64.47-5.86l-.23-1.4q-.24-1.88-.24-2.35 0-.7.24-1.64v-1.87l-.47-3.52.23-.47-.23-.46v-7.04q0-.7.23-.7.71 0 1.64 3.99.24 1.87.94 2.34 0-.24.47 0h.47q.23 0 .47.47l.94.23q1.4 0 1.4-3.04 0-1.18-2.11-3.29-.23-.46-.7-.46-3.52-2.35-3.52-2.82V30.7q0-.7 2.35-.93h1.4q2.82 0 2.82-1.41 0-.7-.71-1.17-.47-.24-.47-.71-.23 0-.46-.7l-.94-.23q0-.24-.47-.24-.23 0-.94.47-.23.24-.47.24-.47.46-1.4.46-.71 0-.71-3.28v-1.4l.24-1.41q0-.23.7-.94.7-.93.7-1.17-.23-1.4-2.57-2.58l-.47-.23-.71-.47q-1.17 0-2.57.94-.24.47-.71.94l-.7.23q-.7.47-.47.94l1.88 1.87v6.33q0 .94-1.64 1.17-.47.24-1.64.24-1.41.23-2.11.23h-1.64q-.71-.23-.94 0-1.17 0-1.17.94 0 .47.23 1.64t.23 1.87q.24.71.71.71 1.17 0 3.28-.94 2.11-.7 3.28-.7.23 0 .23.23 0 1.64-2.57 6.56l-1.41 3.28q-3.52 6.8-6.56 9.38-.24.7-.47.7-.24 0-.24-.23-.46-.24-.7-.24-.47 0-.47.47t-.47 1.17q.71 0 2.11.71.47 0 3.52-3.52l3.75-3.75.94-1.4q.93-1.64 3.75-4.69.47.23.47.94zm15 9.84l-.24.47.24.47q.23 0 .23-.47t-.23-.47zm0-7.03h-.24v.47q.24 0 .24-.47zm0-3.05l-.24.47.24.47q.23 0 .23-.47t-.23-.47zm0-8.67v1.64q0 4.45.7 4.45l2.81-1.4q-4.45 1.64 1.41.93 3.28-.23 3.28-1.64v-4.45q0-1.17-.7-1.64-2.58 0-3.05.23-4.45 0-4.45 1.88zm.23-8.91l-.23 4.93q0 1.64 1.17 1.64.47 0 1.4-.47 1.18-.47 1.64-.47 3.05-.47 3.29-1.64.23-.47.23-1.64v-1.17q.23-.94.23-1.65 0-1.17-.7-1.17h-1.17q-.7.24-1.17.24t-.47.23q0-.23-.94 0-.7.24-1.17.24-1.17 0-2.11.93zm-.23 3.52q-.24 0-.24.47 0 .23.24.23.46 0 .46-.23 0-.47-.46-.47zm0-4.92q-.24 0-.24.47 0 .46.24.46.46 0 .46-.46 0-.47-.46-.47zm8.67.23zm39.14-4.92l2.34-1.88h1.88q1.4 0 5.15 4.93v.93q-3.51 4.93-3.51 7.27l2.11 1.17q0-1.4 14.53-4.69 0-.93.7-.93 3.52 1.17 5.16 4.22v.93l-.71 1.41-10.78-.7h-.93l-4.46.7v-.94l-1.87.94h-5.63q0 2.34-2.81 7.26v1.18h1.41v-1.88h4.45q3.05 0 7.97-3.51h1.87q3.28 4.21 3.28 6.56-4.92 2.58-10.07 9.84v1.17l1.87-.93q0 3.98 19.45 7.97h1.64v1.17q-6.32 1.17-11.71 5.15-9.61-4.92-15.24-10.54-11.01 9.84-18.28 11.25 12.19-9.85 15.7-15.24-2.57-4.45-2.57-9.14h-1.41q-1.64 7.27-15.47 19.45h-.47q11.95-15.7 14.53-29.06h-1.17q-2.81 0-12.66 3.75l-1.64-3.51q2.11-1.18 17.35-2.11 0-1.88 1.64-11.02-1.64 0-1.64-1.17zm9.84 22.97h-8.67q1.87 5.86 4.92 6.56 1.41 0 3.75-5.62v-.94zm57.19-25.78q6.33 3.04 6.33 3.98 0 1.41-2.58 1.41v2.81l-.7 6.09h5.86q5.15 0 11.71-2.34 3.75 2.34 4.69 2.34v1.64q0 .94-3.05 2.35-3.04-1.88-6.56-1.88h-13.59q0 1.18-2.35 10.55v2.58H222l3.75-.7v.7q1.17 0 5.16-3.28 5.62 3.98 5.62 4.92-2.34 3.98-2.34 11.01l1.64 2.58-.94 1.41-3.98-.94h-12.19q-10.31 0-10.31 2.81 0 1.18-2.11 2.35l-1.64-.94.93-3.98V49.69l-.93-5.86 1.64-.7q3.75.93 3.75 2.57 5.39 0 5.39-14.06h-4.22q-6.09 0-15 2.58l-3.05-3.99v-.7h10.55q1.87 0 3.28-.94 1.64.94 2.58.94 1.64-.94 2.11-.94v.94q5.39 0 5.39-8.67v-1.64l-.7-3.99q1.4-.93 2.34-.93zm-10.31 33.51l.93 4.46v6.09q18.52-1.41 18.52-3.52v-8.67h-.94q-8.67 0-18.51 1.64zm82.26-30.7l2.58-1.88q5.39 2.58 8.91 5.4-2.82 4.45-2.82 7.26 0 1.17.94 1.17l-.94 4.46v1.64l.94 9.14h-1.17l1.17 2.11v5.39q0 10.54-6.33 13.59-3.28-1.64-3.28-6.09 2.81 0 2.81-6.57v-4.68q0-9.61-.93-29.53-1.88 0-1.88-1.41zm-24.37-.94q6.09 1.88 6.33 1.88v1.64l-1.88 2.58v2.11h1.17l7.97-.94q.24 2.81 8.44 5.62-.94 5.86-1.88 7.97.94 1.88.94 2.58h-1.17l1.17 2.11q0 1.64-2.81 7.03h-.7q-1.65 0-1.65-1.64V30.7q0-2.57-7.5-3.98-3.51.94-8.67.94 0 3.28 2.82 3.28v1.4q-3.75 0-3.75 4.93 2.1.93 3.28.93l3.98-5.86q-1.17 0-1.17-.46l1.64-.94q1.17 0 3.52 4.22l-4.93 5.86q6.57.7 6.57 3.51-4.46 6.1-7.27 6.1v1.4q4.22 0 6.33 4.45-1.17 3.29-2.35 3.29h-1.87q-1.64 0-2.58-6.57l-14.06 8.44h-1.17q13.36-10.78 17.11-18.05v-2.11h-1.18q-.93 0-9.37 5.4h-1.41l4.69-5.4q-4.22 0-7.5-6.32v-.71l4.22.94 3.05-4.69q0-2.11-2.11-2.11-6.33 1.88-9.85 1.88l-.93-1.64v-1.64q4.45 0 13.82-.94v-6.56l-1.87-2.81q1.64-.71 2.58-.71zm71.72 39.38q-.71 0-2.11.23-1.64.24-2.35.24-1.4-.71-1.4-1.64h2.57q.24.23.71.23v-.23h3.04q0-.24.47-.47V42.89q0-1.64-.7-1.64-.23 0-.94.23-.23.71-.23 1.18-.24.7-1.17 1.64-.94 1.17-.94 1.4 0 .24-.7 1.64v.47q-1.18 1.41-1.18 1.64 0 .71-2.11 3.99 0 .23-.7.94v-.24l-1.4 1.88q-.24.7-1.41 2.11-.7 1.4-1.64 2.1-3.28 3.29-3.52 3.29l.47-.47.47-.94q-.23-.94-.94-2.58-.7-.7-.7-2.11 0-.23.23-.94v-.7l-.23-.94v-6.79q-.23-.24 0-.71V35.63q0-1.41-1.17-1.41-1.88 1.17-3.05 3.75l-3.51 4.45-2.35 2.58-.94.94-.46.7h-.47v-.47l1.4-1.64q1.88-2.34 2.58-3.51l2.81-4.69q2.11-3.28 2.11-3.75.47-.47 1.17-2.11.47-1.41 1.18-1.88 1.17-2.57 2.34-5.15 1.41-3.05 1.41-3.75l-.24-2.81q0-.24.71-.24v.47q.46.47.46.23l.47.24q.47.23.71.23l1.17 1.64q.47.47.94 2.35 0 1.17-1.65 3.04l-1.64 1.64q-1.4 1.88-1.4 3.05 0 .47.23.94.24.7.24.94 0 .47-.24 1.4v.94l.24 3.28q0 .47-.24 1.41-.23.94-.23 1.4l.23 2.11q.24 2.11.24 3.52l-.24 2.81v1.88q.24 1.64.24 1.87 0 1.41-.24 3.28-.23 1.64-.23 1.88l.7 2.11q.7.23 2.11-2.35.23-1.4 1.64-2.81.24-.7.94-2.34.7-1.17 1.17-2.35.23-.47 1.64-3.75l.47-.93q.47-.94.7-.94l.47-1.88 1.41-3.75q.94-2.11 1.17-3.51.23-1.64-1.64-1.64-3.05.93-6.33.93-.7-.46-1.41-1.4-.46-.47-.23-.47-.23-.47.23-.47h3.05q0-.23.24-.47.23-.47.7-.47l.94.71h3.28q2.58 0 2.81-1.18v-1.4l.23-1.41q0-9.37-1.4-12.42v-.47q.23 0 .23.24 0-.24.24-.24l1.64.24q.47 0 1.17.7.94.94 1.64.94.23 0 .7.7.71.47.71.94 0 .7-.71 1.4-.93.47-.93 1.41l.23 3.75v.7l-.23.24q.23 1.17.23.7v.94l.23 1.64q.24 1.17 1.18 1.4 3.28 0 5.39-.46.93-.24 1.87-1.64l.94-1.41q-.23-.47 2.58 3.05l.94.93q.23-.23-.47 1.18-10.55 0-10.55.7 0 1.87 1.17 5.39 1.41 5.62 3.99 9.14 3.75 4.45 4.45 4.45 0-.23 0 0l2.34 1.41q1.64.94 2.82 1.41.46.23 1.17.93.7.24.7.47l.47.24h-.94q-2.34 0-4.92.93-.7 0-1.88-1.17-3.75-2.34-3.28-1.64-1.17-1.17-4.92-9.84 0-1.17-.7-1.88l-.24-2.81q-.23-.7-.46-3.28-.24-.24-.24-.94v-1.41q0-1.64-.7-1.64-.71 0-.71.47 0 2.11.24 6.57.23 4.45.23 6.79l-.23 2.81q0 4.22 1.17 4.22.7 0 1.64-.93.7-.94 1.17-.94.24 0 1.18 1.87.93.94.93 1.18 0 .93-.93.93h-3.99q-.7.24-1.41.24L342 60.7l-.23.71q-.24.23-.47.47-.47.23-.71.46l-.23 1.41q-.47.7-.7.7-.24 0-.47-.47-.24-.23-.24-.46v-7.04q0-.93-.93-.93z"/></svg>