<svg viewBox="0 0 306 80" xmlns="http://www.w3.org/2000/svg"><path d="M40 18.52h12.42l-3.06 9.78h16.08l-.78 5.88h-17.1l-8.34 27.18H28l9.24-27.18h-4.32l.78-5.88h5.52l2.58-7.56-1.8-2.22zm-7.26-.06l-1.02 7.26-4.98 35.76H15.76l4.68-33.78-3.66.6 1.02-7.26 14.94-2.58zm30.3 35.04l-1.08 7.86h-17.1l3.6-25.44h10.38l-2.82 19.86h4.44l2.58-2.28zm1.68-27.18H56.2l-.84-6.72h8.58l.78 6.72zM82 61.54l12.54-8.22-7.68-6.54.42-2.88H97l5.1 4.5 6.06-3.96.24-1.74H87.46l.78-5.58h30.36l-1.5 10.86-9.06 5.58 9.24 7.98H104.2l-3.84-3.24-5.34 3.24H82zm37.68-25.98h-12.12L109 25.12h-8.22l-2.22 10.44H88.6l2.94-13.92-1.86-2.16h29.46l-1.38 10.08h1.08l1.98-2.28-1.14 8.28zM85.6 56.92l-14.82 3.54 3.54-25.02h-3.54l.78-5.7h13.56L82 52.18l4.44-1.2-.84 5.94zM74.62 19.48h9.18l1.74 7.98h-9.18l-1.74-7.98zm55.26 42.06l4.26-30.18h-6.12l.84-5.7h6.06l.78-5.46-1.44-1.74h10.5l-1.02 7.2h6l-.84 5.7h-6l-4.26 30.18h-8.76zm29.7 0H151l3.78-3.78 2.82-20.04h-9.06l.84-5.94h28.26l-.84 5.94h-10.32l-2.82 20.22q-.24 1.56-1.41 2.58t-2.67 1.02zm-6.96-41.94h24.66l-.84 6h-24.66l.84-6zm14.88 21.54h6.72l-.42 19.26h-6.36l.06-19.26zm-18.18 0h6.36l-4.92 19.26h-6.36l4.92-19.26zm-21 18.24h-4.02l4.86-26.94h4.02l-4.86 26.94zm16.86-3.42h-4.02l2.28-23.52h3.96l-2.22 23.52zm46.5-10.2l-.96 3.36h.12l1.38 1.86.9-6.42h-10.98l.84-5.7h22.8l-.84 5.7h-3.3l-.3 2.34h4.5l-.78 5.64h-4.5l-.36 2.28h29.52l-.78 5.7h-37.62l-2.88-3.78-1.08 3.72h-8.58l3.84-12.78-1.14-1.92h10.2zm17.94-26.28h23.94l-.78 5.7h-6.6l-1.14 2.88h6.66l-2.46 17.64h-5.04l-1.02-1.14 1.68-11.94H214.6l-1.68 11.94-1.26 1.14h-5.1l2.46-17.64h5.76l1.14-2.88h-7.08l.78-5.7zm-24.12 17.7l2.16-15.42-1.98-2.28h22.8l-2.46 17.7H185.5zm30-2.88h7.98l-1.44 10.26 6.72 9.12h-9.12l-2.58-4.2-4.26 4.2h-7.98l9.24-9.12 1.44-10.26zm-20.88-1.74h3.48l.3-2.28h-3.48l-.3 2.28zm1.2-8.52l-.36 2.28h3.48l.36-2.28h-3.48zm45.12 15.6h16.14l.3-1.98h-17.34L242.2 22l-1.8-2.46h47.76l-2.52 18.12h-16.32l-.3 1.98h15.12l-.78 5.58h-15.12l-.3 2.04h18.6l-.78 5.58h-50.04l.78-5.58H256l.3-2.04h-16.14l.78-5.58zm3.54 21.84h-9.9l4.5-7.44h9.66l-4.26 7.44zm39.9-.06h-9.78l-1.26-7.38h9.54l1.5 7.38zm-24.54 0h-9.6l-.42-7.38h9.36l.66 7.38zm12.24 0h-9.6l-.9-7.38h9.3l1.2 7.38zM250.6 32.56h8.64l.24-1.5h-6.96l-1.14-4.5-.78 6zm1.08-7.98l-.18 1.14h7.14l1.02 4.02.72-5.16h-8.7zm17.22 7.98h7.68l.54-4.14-1.5 2.64h-6.48l-.24 1.5zm2.88-6.84h5.7l.18-1.14h-7.62l-.78 5.52 2.52-4.38z"/></svg>