<svg viewBox="0 0 327 80" xmlns="http://www.w3.org/2000/svg"><path d="M15.2 37.62q.54-1.44 2.1-2.46t2.7-1.44q.78-.36 1.47-.57.69-.21 1.47-.45-1.02-.9-1.83-2.31-.81-1.41-1.2-2.91-.39-1.5-.18-3 .21-1.5 1.41-2.64.78-.78 1.86-1.11 1.08-.33 2.1-.27 1.44.18 2.97.78 1.53.6 2.61 1.86 1.44 1.62 1.65 3.96.21 2.34-.75 4.32.78.06 1.62.24.84.18 1.62.54 1.02.54 1.5 1.38.66.9.63 1.98-.03 1.08-1.05 2.1-1.62 1.56-3.84 1.92-2.22.36-4.2.72-2.52.48-5.16.69-2.64.21-5.22-.33-.42-.06-.96-.27-.54-.21-.9-.57t-.54-.9q-.18-.54.12-1.26zm4.68 6q.9-.66 1.95-.57 1.05.09 1.92.72.87.63 1.47 1.56t.84 1.89q.12.84-.03 1.86t-.63 1.83q-.48.81-1.29 1.29t-1.89.24q-1.92-.36-3-2.13t-.96-3.63q.18-1.92 1.62-3.06zm2.4 16.2q-.54 0-1.23-.12t-1.41-.3q-.72-.18-1.29-.51-.57-.33-.87-.81-.48-.9-.09-1.65.39-.75 1.17-1.11.96-.42 2.04-.57 1.08-.15 2.04-.27 1.08-.24 2.22-.51 1.14-.27 2.22-.63l1.08-.48q-.18-.36-.21-.63t-.09-.57q-.24-1.68.12-3.54.18-1.14.39-2.25.21-1.11.57-2.13.48-1.2 1.08-2.04.66-.78 1.68-.96 1.02-.18 1.98.42 1.02.54 1.44 1.56.42 1.02.48 2.1v1.08q-.18 2.58-1.44 5.04 1.02-.12 1.74.06.9.36 1.14 1.14.3.96-.39 2.07-.69 1.11-1.23 1.77-1.02 1.02-2.31 1.74t-2.73 1.08q-1.86.54-3.96.84-2.1.3-4.14.18zm37.08-24.66q-1.32 1.02-3.09 1.56-1.77.54-3.63.66-.48 2.52-1.62 4.86 1.02-.18 1.98-.12t1.8.18q1.62.3 2.79 1.11t1.89 2.07q1.08 1.86 1.02 4.23-.06 2.37-1.26 4.47-.42.78-1.05 1.53-.63.75-1.38 1.29-.75.54-1.56.66t-1.71-.54l-.42-.42q-.96.3-1.92.3h-1.92l-1.8-.12q-.9-.06-1.86-.18-1.08 1.08-2.94.84-1.2-.12-2.22-1.08-1.02-.96-1.62-2.16-.96-1.98-1.05-4.26-.09-2.28.93-4.26.78-1.56 2.25-2.1t2.91.42q1.2.78 1.92 2.13.72 1.35 1.14 2.61.42 1.5.42 3.42.42-.18.9-.27.48-.09.96-.27l2.01-.27q1.11-.15 2.13.21.06-.3.09-.57.03-.27.09-.57.18-1.32-.33-2.4-.51-1.08-1.77-1.56-.72-.36-1.47-.48t-1.53-.24q-.72-.06-1.02-.54-.3-.48-.12-1.08-.96-.48-1.65-1.5t-1.11-1.92q-.54-1.38-.87-2.79-.33-1.41-.57-2.85-.36-1.8-.57-3.6-.21-1.8-.09-3.66 0-.84.12-1.8.12-.96.42-1.8.48-1.68 1.86-2.46 1.38-.78 2.88-.42 1.56.36 2.64 1.68 1.08 1.32 1.68 3l.42 1.74q.06.18.24.78 1.62-.24 3.3 0 1.68.24 3.12 1.08.78.6 1.32 1.38.36.66.48 1.38.12.72-.24 1.44-.42.78-1.32 1.26zm30 17.22q-.66.06-1.92.21-1.26.15-2.52.09t-2.16-.51q-.9-.45-.72-1.59.06-.72.66-1.08.6-.36 1.2-.54.96-.24 1.89-.36.93-.12 1.83-.24.54 0 1.23-.03t1.35.06q.66.09 1.2.36.54.27.9.81l.12.12q.36.6-.06 1.2t-.96.84q-.54.3-.99.42-.45.12-1.05.24zm27.54-8.04q1.44.18 2.43.96.99.78 1.65 1.86.96 1.62.9 3.72-.06 2.1-1.02 3.96-.36.66-.96 1.38-.6.72-1.23 1.17-.63.45-1.38.54-.75.09-1.59-.51-.18-.12-.36-.36-.78.3-1.68.3-.9 0-1.68-.06-1.74 0-3.48-.24-1.08 1.02-2.64.78-1.14-.12-2.01-.99-.87-.87-1.47-1.89-.9-1.8-.93-3.81-.03-2.01.87-3.81.66-1.26 1.98-1.77 1.32-.51 2.58.33 1.02.72 1.68 1.89.66 1.17 1.02 2.37.24.66.3 1.44.06.78.06 1.56.54-.12.99-.24.45-.12.99-.24.78-.12 1.8-.24t1.8.18q.18-.54.18-1.08.18-1.14-.3-2.1-.48-.96-1.5-1.38-.6-.36-1.29-.42-.69-.06-1.41-.24-1.02-.06-1.08-.93-.06-.87.66-1.35 1.2-.78 2.94-.93 1.74-.15 3.18.15zm1.14-7.56q.78.06 1.89.24 1.11.18 1.77.9.48.48.42 1.56-.12 1.26-1.2 1.77t-2.1.75q-1.74.6-3.6.78-1.86.18-3.66.48-2.04.3-4.02.57-1.98.27-3.96.45-.84 0-1.77-.09t-1.71-.45q.48 3.24-.36 6.45t-3 5.01q.36.48.06 1.08-.24.42-.66.72-.42.3-.96.48t-1.08.27q-.54.09-.9.21-.66.06-2.34.09-1.68.03-3.72.03t-4.05-.12q-2.01-.12-3.21-.24-.6.96-1.44 1.02-1.26.12-1.92-1.35-.66-1.47-1.14-3.03-.78-2.76-1.2-5.76-.42-3-.48-6-.12-1.68.06-3.3.18-1.62 1.02-2.76.48-.54 1.08-.81.6-.27 1.2.03.72.3 1.11.87.39.57.6 1.29.21.72.33 1.47.12.75.24 1.41.36 2.22.6 4.41t.42 4.47q.36 2.7.24 5.16.3 0 .54-.03.24-.03.54-.03.84-.18 1.71-.24t1.71-.12q1.92-.06 3.78-.18 1.86-.12 3.72-.12 0-.84.3-1.74t.42-1.62q.36-1.44.57-2.97.21-1.53.15-3.09-.12-1.68-.81-3.15-.69-1.47-2.19-2.25-.18-.18-.39-.21-.21-.03-.51-.15.12 1.08.42 2.01.3.93 1.14 1.53.12.12.42.24.54.36 1.05.9t.39 1.5q-.06.78-.48 1.17-.42.39-.96.54-.54.15-1.11.06-.57-.09-.99-.27-1.44-.54-2.22-2.64-.42-1.26-.57-2.7-.15-1.44-.21-2.88-.6-.06-1.11-.12-.51-.06-.99-.24.06.54.06.99v.99q0 1.56-.12 3.39t-1.62 3.03q-.66.42-1.11.39-.45-.03-.78-.36-.33-.33-.54-.84-.21-.51-.27-.93-.24-1.68-.03-3.33.21-1.65.57-3.33.36-1.68.54-3.42.18-1.74.42-3.48-1.26-.06-2.55-.27-1.29-.21-2.37-.99-.48-.36-.87-1.08-.39-.72-.57-1.56-.18-.84-.09-1.71T76.1 24q1.08-1.44 2.82-1.83 1.74-.39 3.18-.69 1.68-.24 3.24-.42 1.56-.18 3.24-.36 1.08-.06 2.22-.03 1.14.03 2.16.39.6.18 1.38.63.78.45 1.38 1.17.36.6.54 1.32.18.72-.18 1.56-.42 1.32-1.44 2.13-1.02.81-1.98 1.35-1.26.54-2.4 1.02v4.32q1.68 0 2.28.18 2.46.54 4.17 2.1t2.61 3.9q.66-.72 1.98-1.26 1.32-.54 2.91-.9t3.12-.63q1.53-.27 2.61-.39 0-.78-.06-1.14l-.12-2.16q-.06-1.08-.06-2.1v-.36q-.48.06-.93.06h-.87q-.54 1.38-1.26 2.58-.78 1.38-2.07 2.37-1.29.99-2.97 1.11-1.98.24-3.03-1.14-1.05-1.38-.93-3.24.06-.78.3-2.22.24-1.44.63-3.03.39-1.59.99-3.18t1.47-2.73q.87-1.14 1.92-1.62 1.05-.48 2.43.12.54.18 1.08.54 1.44 1.02 1.92 2.76.48 1.74.36 3.6.3-.06.51-.12.21-.06.45-.06.06-.96.09-1.92t.03-1.92q.06-.84.21-1.59.15-.75.57-1.41.66-.78 1.32-.84.54-.06.99.27.45.33.75.81.36.42.45.93.09.51.15.99.18 1.02.27 2.04.09 1.02.27 2.04.42 0 .66-.12 1.14-.06 2.37.06 1.23.12 2.07.84.6.48.69 1.14.09.66-.57 1.14-.78.6-2.07.78-1.29.18-2.31.3-.42 0-.66.06v2.43q0 1.17-.12 2.43-.06.3-.06.78.78-.06 1.62-.06h1.62zm-33.3-5.76q0 1.02.06 2.04t.06 2.04q.42-.12.96-.24l1.08-.24q-.06-.96-.06-1.86v-1.92q-.54.12-1.02.15t-1.08.03zm70.68 8.82q-.9.54-1.68.39-.78-.15-1.44-.66-.66-.51-1.11-1.23-.45-.72-.69-1.44-.48-1.32-.39-2.88.09-1.56 1.47-2.52.12-.06.27-.15.15-.09.33-.15 1.26-.48 2.31.15t1.77 1.65q.48.96.72 1.62.36 1.44.12 2.94t-1.68 2.28zm12.06-6.48q-.84-.48-1.11-1.38-.27-.9.21-1.8.48-.96 1.38-1.92.9-.96 1.68-1.74.9-.78 1.8-1.62.9-.84 1.74-1.62.6-.48 1.26-1.11.66-.63 1.38-1.08.72-.45 1.53-.75t1.65-.06q1.02.18 1.41.72.39.54.45 1.26.18 1.02-.39 2.25-.57 1.23-1.17 2.07-1.44 1.98-3.27 3.63t-3.99 2.73q-1.02.6-2.25.87t-2.31-.45zm2.94 9.42q-.78-.12-1.5-.6t-.18-1.62q.24-.48.72-.9 1.92-2.1 3.96-3.72 1.26-1.08 2.61-2.1 1.35-1.02 2.79-1.68.84-.42 1.68-.24.48.18.78.57.3.39.3 1.17 0 1.02-.36 1.95-.36.93-.84 1.71-.78 1.32-1.86 2.31t-2.34 1.71q-1.26.84-2.73 1.26-1.47.42-3.03.18zm9.12 1.26q1.5-.06 2.25.48t1.08 1.29q.33.75.24 1.62-.09.87-.15 1.47-.42 2.28-1.83 4.2-1.41 1.92-3.39 3.36-1.02.84-2.22 1.5-1.2.66-2.7 1.02-.66.18-1.44.27-.78.09-1.62.03-.84-.06-1.56-.36-.72-.3-1.2-.9-.18-.18-.24-.33-.06-.15-.12-.27-.6-1.38.09-2.46t1.47-2.1q1.62-1.68 3.15-3.42 1.53-1.74 3.39-3.3.9-.72 2.01-1.41 1.11-.69 2.79-.69zm-39.72 11.1q-.12-1.44.27-2.88t.75-2.88q-1.2-.18-2.43-.78-1.23-.6-1.65-1.74-.3-.72.03-1.23.33-.51.93-.9.6-.39 1.35-.57.75-.18 1.35-.3.42-.06.87-.06t.81-.06q.54-2.76.42-5.52 0-1.38-.18-2.73t-.06-2.67q.18-1.26.93-2.13.75-.87 2.01-.51 1.2.36 1.98 1.2t1.35 1.92q.57 1.08.9 2.31.33 1.23.57 2.31.12 1.02.27 2.01.15.99.21 2.01v1.08q1.86-.12 3.78-.36 1.92-.24 3.78-.36.24-2.04.36-4.2t0-4.05q-.12-1.89-.63-3.42t-1.5-2.31q-.99-.78-2.52-.66t-3.75 1.38q-.54.36-1.17.48-.63.12-.99-.3-.24-.3-.24-.63t.06-.69q.3-1.32 1.23-2.25.93-.93 2.19-1.47 1.26-.54 2.64-.69 1.38-.15 2.58.09 2.76.6 4.41 2.64 1.65 2.04 2.55 4.68.9 2.64 1.32 5.46.42 2.82.66 5.1 1.02-.18 1.92.09.9.27 1.02 1.17.18 1.02-.72 1.98-.9.96-1.86 1.62.06 2.4-.18 4.71t-.9 4.35q-.42 1.44-1.32 2.61-.9 1.17-2.52 1.29-2.04.24-2.94-.84-.9-1.08-1.17-2.73-.27-1.65-.06-3.45.21-1.8.45-3.06-1.02.18-1.98.24l-1.92.12q-1.5.24-3.06.24-.3 1.74-.9 3.54-.42 1.32-1.14 2.7-.72 1.38-1.86 2.22-1.02.84-2.07.9-1.05.06-1.98-.45-.93-.51-1.53-1.44-.6-.93-.72-2.13zm75.6-15.3q-.9.54-1.68.39-.78-.15-1.44-.66-.66-.51-1.11-1.23-.45-.72-.69-1.44-.48-1.32-.39-2.88.09-1.56 1.47-2.52.12-.06.27-.15.15-.09.33-.15 1.26-.48 2.31.15t1.77 1.65q.48.96.72 1.62.36 1.44.12 2.94t-1.68 2.28zm12.06-6.48q-.84-.48-1.11-1.38-.27-.9.21-1.8.48-.96 1.38-1.92.9-.96 1.68-1.74.9-.78 1.8-1.62.9-.84 1.74-1.62.6-.48 1.26-1.11.66-.63 1.38-1.08.72-.45 1.53-.75t1.65-.06q1.02.18 1.41.72.39.54.45 1.26.18 1.02-.39 2.25-.57 1.23-1.17 2.07-1.44 1.98-3.27 3.63t-3.99 2.73q-1.02.6-2.25.87t-2.31-.45zm2.94 9.42q-.78-.12-1.5-.6t-.18-1.62q.24-.48.72-.9 1.92-2.1 3.96-3.72 1.26-1.08 2.61-2.1 1.35-1.02 2.79-1.68.84-.42 1.68-.24.48.18.78.57.3.39.3 1.17 0 1.02-.36 1.95-.36.93-.84 1.71-.78 1.32-1.86 2.31t-2.34 1.71q-1.26.84-2.73 1.26-1.47.42-3.03.18zm9.12 1.26q1.5-.06 2.25.48t1.08 1.29q.33.75.24 1.62-.09.87-.15 1.47-.42 2.28-1.83 4.2-1.41 1.92-3.39 3.36-1.02.84-2.22 1.5-1.2.66-2.7 1.02-.66.18-1.44.27-.78.09-1.62.03-.84-.06-1.56-.36-.72-.3-1.2-.9-.18-.18-.24-.33-.06-.15-.12-.27-.6-1.38.09-2.46t1.47-2.1q1.62-1.68 3.15-3.42 1.53-1.74 3.39-3.3.9-.72 2.01-1.41 1.11-.69 2.79-.69zm-39.72 11.1q-.12-1.44.27-2.88t.75-2.88q-1.2-.18-2.43-.78-1.23-.6-1.65-1.74-.3-.72.03-1.23.33-.51.93-.9.6-.39 1.35-.57.75-.18 1.35-.3.42-.06.87-.06t.81-.06q.54-2.76.42-5.52 0-1.38-.18-2.73t-.06-2.67q.18-1.26.93-2.13.75-.87 2.01-.51 1.2.36 1.98 1.2t1.35 1.92q.57 1.08.9 2.31.33 1.23.57 2.31.12 1.02.27 2.01.15.99.21 2.01v1.08q1.86-.12 3.78-.36 1.92-.24 3.78-.36.24-2.04.36-4.2t0-4.05q-.12-1.89-.63-3.42t-1.5-2.31q-.99-.78-2.52-.66t-3.75 1.38q-.54.36-1.17.48-.63.12-.99-.3-.24-.3-.24-.63t.06-.69q.3-1.32 1.23-2.25.93-.93 2.19-1.47 1.26-.54 2.64-.69 1.38-.15 2.58.09 2.76.6 4.41 2.64 1.65 2.04 2.55 4.68.9 2.64 1.32 5.46.42 2.82.66 5.1 1.02-.18 1.92.09.9.27 1.02 1.17.18 1.02-.72 1.98-.9.96-1.86 1.62.06 2.4-.18 4.71t-.9 4.35q-.42 1.44-1.32 2.61-.9 1.17-2.52 1.29-2.04.24-2.94-.84-.9-1.08-1.17-2.73-.27-1.65-.06-3.45.21-1.8.45-3.06-1.02.18-1.98.24l-1.92.12q-1.5.24-3.06.24-.3 1.74-.9 3.54-.42 1.32-1.14 2.7-.72 1.38-1.86 2.22-1.02.84-2.07.9-1.05.06-1.98-.45-.93-.51-1.53-1.44-.6-.93-.72-2.13zM299 41.88q1.2.36 2.88 1.17 1.68.81 2.4 2.07.3.54.3 1.17 0 .63-.54 1.23-.9 1.38-2.46 1.35-1.56-.03-2.94-.27-3.78-.6-7.32-2.16-.6-.24-1.23-.51t-1.35-.63v.99q0 .63-.06 1.41 1.08-.06 2.1.15t1.86.87q.84.72 1.05 1.74.21 1.02-.63 2.04-.72.78-1.71 1.23-.99.45-1.95.57-.6.24-1.26.24-.36 1.92-.87 3.18-.51 1.26-1.47.9-1.2-.42-1.65-1.62-.45-1.2-.63-2.46-.36 0-.54-.06-.6-.12-1.35-.24-.75-.12-1.47-.42t-1.29-.78q-.57-.48-.75-1.2-.18-.9.36-1.68.84-1.2 2.28-1.56.54-.12 1.11-.18.57-.06 1.17-.18-.24-3.42-.24-6.9-1.68 4.26-4.8 7.56-.36.36-1.23 1.2t-1.83 1.44q-.96.6-1.71.6t-.87-1.38q-.06-.36.06-.75t.24-.75q.9-2.28 2.25-4.26t2.61-4.08q.18-.36.36-.75t.42-.93q-.78-.12-1.56-.33-.78-.21-1.56-.75-.72-.42-1.26-1.14t-.66-1.56v-.18q-.72 1.56-1.65 2.91-.93 1.35-1.89 2.73v.84q0 .54.06 1.89.06 1.35.06 3.09 0 1.8-.09 3.75t-.45 3.54q-.36 1.59-1.02 2.49-.66.9-1.68.54-.54-.18-.93-.99t-.66-1.86q-.27-1.05-.36-2.07-.09-1.02-.09-1.5-.18-1.08-.18-2.16t.06-2.16v.06q-1.5 1.02-3.27 1.53t-3.63.27q-2.28-.18-4.2-1.71-1.92-1.53-2.82-3.69-1.32-3.18-.3-6.12t3.36-5.1q1.26-1.2 2.61-2.28 1.35-1.08 2.61-2.34 2.04-1.92 4.35-3.48 2.31-1.56 5.19-1.92 2.22-.18 3.93 1.32t2.25 3.54q.18.18.18.36t.06.42q.3 1.38.12 2.73t-.54 2.73q.54-.66 1.44-1.14 1.62-.96 3.51-1.5 1.89-.54 3.81-.84 0-1.68.12-3.39.12-1.71.9-3.33l.48-.72q.24-.36.66-.6.66-.36 1.17 0 .51.36.87.96.84 1.2.99 2.82.15 1.62.21 3.06 0 .24.03.45.03.21.03.39.18 0 .36.06t.3.06q1.08 0 2.43.18t2.61.57q1.26.39 2.28 1.11 1.02.72 1.5 1.8.6 1.56-.03 2.64t-2.04 1.8q-1.41.72-3.36 1.08-1.95.36-3.75.6v.9q.66.12 1.23.15t.93.09q2.1.36 4.08.87t3.9 1.17z"/></svg>