<svg viewBox="0 0 327 80" xmlns="http://www.w3.org/2000/svg"><path d="M56.3 37h9.6v20.7H40.58V37l6.72.06V37h2.16V21.04h6.84v6.3h9.72l-1.62 2.7h-8.1V37zm1.38 2.76H47.42v15.3h11.7v-17.1l-1.44 1.8zM36.8 53.8h-7.14l3.6-23.82h7.26L36.8 53.8zm-8.64 0h-7.14L17.3 29.98h7.26l3.6 23.82zM15.92 27.94v-2.7h9.78l-1.98-4.14h7.26l1.86 4.14h9.36l-2.28 2.7h-24zm0 29.64v-2.76h24.24l-2.28 2.76H15.92zm83.88-35.1l-1.44 2.58H92.6v5.34h7.2v4.62h11.58v-7.26h-4.68l-.9 4.32h-6v.96h-5.94V30.4h5.94v1.68l2.1-9.48h5.94l-.54 2.52h4.08v-4.08h6v4.08h8.88l-1.5 2.64h-7.38v7.26h9.66l-1.44 2.64H99.8V57.7H74.9V30.4h6.48v-5.34H74.9v-2.58h24.9zm19.86 17.7l-1.5 2.64h-10.44v12.24h11.94V40.18h5.94V57.7h-23.82V40.18h17.88zm-33.72 1.08l-1.74 4.68h-3.96v2.88h13.62v-3.78l-.6.9h-5.22v-12.9h-2.1v8.22zm-5.7 10.2v3.6h13.62v-3.6H80.24zM92.6 33.04V43.3h1.26V33.04H92.6zm-6.66-7.98v5.34h2.1v-5.34h-2.1zm-5.7 19.26l1.14-3.06v-8.22h-1.14v11.28zm55.62 13.44V39.34h49.92v18.42H174.2l-1.62-2.82h6.3V42.16H142.7v15.6h-6.84zm45.9-29.34v8.82h-41.64v-8.82h41.64zm-4.5 16.2v9.36H144.5v-9.36h32.76zm9.12-21l-1.8 2.76h-49.02v-2.76h22.26v-2.64h6.84v2.64h21.72zm-39.48 7.14v3.96h28.02v-5.76l-1.74 1.8H146.9zm23.52 20.7V45.1l-1.8 1.8h-17.16v4.56h18.96zm64.38-16.02l-1.32 3.18h12.78v19.2h-10.92l-.9-1.62h-1.26V41.44h-3.36V56.2h-4.2V41.44h-2.04v16.38h-6.84v-19.2h9.9l1.32-3.18h-11.22v-2.82h29.52l-1.62 2.82h-9.84zm9.84-14.4v9.78h-27.06v-9.78h6.84v7.02h3.42v-7.02h6.84v7.02h3.12v-7.02h6.84zm-30.48 9.54l-1.26 21.54 2.88-.48v2.82l-20.04 3.42v-2.82l10.32-1.8 1.32-22.68h6.78zm-10.26 0l1.2 20.04h-6.84l-1.14-20.04h6.78zm5.22-9.72v4.26h6.66l-1.62 2.82h-18.42v-2.82h6.6v-4.26h6.78zm30.3 34.08V38.62l-1.62 2.82h-.42v13.5h2.04zm45.96-10.08h21.96l-1.62 3.18H254.6v-3.18h23.22v-2.4h-20.7v-3.12h20.7v-1.92h-21v-16.5h41.64l-1.62 2.82h-11.46v10.74h13.14v-7.56l-3.36 5.16h-6.54l3.72-5.82h6.18v-5.34h7.08v16.5h-20.22v1.92h19.44l-1.68 3.12h-17.76v2.4zM264.2 34.48h13.62V23.74H264.2v10.74zm26.1 15.12l4.02 8.22h-7.62l-4.02-8.22h7.62zm-8.04 8.22h-7.38l-4.14-8.22h7.5l4.02 8.22zm-26.7 0l4.14-8.22h7.38L263 57.82h-7.44zm46.68-8.22l4.02 8.22h-7.38l-4.02-8.22h7.38zm-30.06-23.34l3.72 5.82h-6.84l-3.84-5.82h6.96z"/></svg>