<svg viewBox="0 0 528 80" xmlns="http://www.w3.org/2000/svg"><path d="M51.16 73.78H15.28V5.98h35.88v67.8zM17.8 58.36l.12 2.64h28.8l1.56-11.58-3.78-.54-1.68 8.28H23.98v-.18L47.14 24.4l-.12-2.4H20.14l-1.5 11.28 3.72.54 1.68-7.98h16.8v.18L17.8 58.36zm49.98 15.42H49.72V5.98h18.06v67.8zm-6.6-51.84h-4.56v5.46h4.56v-5.46zm-8.82 35.64V61h13.56v-3.42h-4.68V34.3h-9v3.42h4.8v19.86h-4.68zm31.14 16.2H66.34V5.98H83.5v67.8zm-15.36-16.2V61H81.7v-3.42h-4.68V19.72h-8.94v3.42h4.74v34.44h-4.68zm31.08 16.2H82.06V5.98h17.16v67.8zm-15.36-16.2V61h13.56v-3.42h-4.68V19.72H83.8v3.42h4.74v34.44h-4.68zm44.1 16.2H97.78V5.98h30.18v67.8zm-24.72-37.44l-.96 6.18 3.48.42 1.02-4.62q2.22-1.08 5.16-1.08 3.6 0 4.83 1.8t1.23 4.68v2.4q-1.08-.12-2.31-.18t-2.43-.06q-4.5 0-8.49 1.59t-3.99 6.63q0 4.26 2.73 5.88t5.37 1.62q3.24 0 5.55-1.68 2.31-1.68 3.57-3.84v.12q.12 5.4 4.86 5.4 1.86 0 3.48-.9l-.06-2.76q-.78.36-1.8.36-2.28 0-2.28-2.88V42.7q0-8.94-9.54-8.94-2.64 0-4.98.6-2.34.6-4.44 1.98zM118 48.94v2.04q-.24 3.3-2.67 5.22-2.43 1.92-5.19 1.92-1.74 0-3.36-.96-1.62-.96-1.62-3.54 0-3.12 2.43-4.05 2.43-.93 5.43-.93 1.32 0 2.58.12t2.4.18zm56.64 24.84h-33.18V5.98h33.18v67.8zm-3.18-23.7q0-4.44-2.13-6.69t-5.1-3.18q-2.97-.93-5.61-1.53-3.3-.78-6-2.04t-2.7-4.92q0-3.12 2.25-4.77 2.25-1.65 5.91-1.65 1.74 0 3.66.33 1.92.33 3.78 1.29l.6 5.82 3.6-.36-.36-7.74q-1.86-1.44-5.16-2.34-3.3-.9-6.54-.9-5.04 0-8.73 2.64-3.69 2.64-3.69 8.16 0 3.84 1.8 5.85t4.5 2.94q2.7.93 5.46 1.53 3.6.84 6.66 2.19t3.06 5.79q0 3.96-2.79 5.61-2.79 1.65-6.63 1.65-2.16 0-4.14-.36-1.98-.36-3.96-1.38l.24-4.92-3.6-.36-.84 7.68q4.38 3.18 12.54 3.18 5.94 0 9.93-2.94 3.99-2.94 3.99-8.58zm18.9 23.7H173.2V5.98h17.16v67.8zM175 57.58V61h13.56v-3.42h-4.68V19.72h-8.94v3.42h4.74v34.44H175zm44.1 16.2h-30.18V5.98h30.18v67.8zm-24.72-37.44l-.96 6.18 3.48.42 1.02-4.62q2.22-1.08 5.16-1.08 3.6 0 4.83 1.8t1.23 4.68v2.4q-1.08-.12-2.31-.18t-2.43-.06q-4.5 0-8.49 1.59t-3.99 6.63q0 4.26 2.73 5.88t5.37 1.62q3.24 0 5.55-1.68 2.31-1.68 3.57-3.84v.12q.12 5.4 4.86 5.4 1.86 0 3.48-.9l-.06-2.76q-.78.36-1.8.36-2.28 0-2.28-2.88V42.7q0-8.94-9.54-8.94-2.64 0-4.98.6-2.34.6-4.44 1.98zm14.76 12.6v2.04q-.24 3.3-2.67 5.22-2.43 1.92-5.19 1.92-1.74 0-3.36-.96-1.62-.96-1.62-3.54 0-3.12 2.43-4.05 2.43-.93 5.43-.93 1.32 0 2.58.12t2.4.18zm41.58 24.84h-33.06V5.98h33.06v67.8zm-2.76-26.82q0-6.36-3.24-9.78-3.24-3.42-8.22-3.42-3.84 0-6.09 1.8t-3.45 4.26v-20.1h-8.82v3.42h4.56V53.2q0 1.98-.24 4.02-.24 2.04-.54 3.78h4.2q.06-.24.3-2.22.24-1.98.24-2.22 2.7 5.04 9.36 5.04 4.26 0 6.9-2.19 2.64-2.19 3.84-5.55 1.2-3.36 1.2-6.9zm-4.44.42q0 4.14-1.95 7.38T235.18 58q-3.48 0-5.85-2.34-2.37-2.34-2.37-5.7v-4.02q.06-2.94 2.34-5.76t6.12-2.82q3.42 0 5.76 2.52t2.34 7.5zm67.26 26.4h-46.56V5.98h46.56v67.8zm-17.4-16.62V61h14.22v-3.84h-4.92V25.84h4.92V22h-14.22v3.84h4.92v13.44h-21.66V25.84h4.92V22h-14.22v3.84h4.92v31.32h-4.92V61h14.22v-3.84h-4.92V43h21.66v14.16h-4.92zm34.02 16.62h-18.06V5.98h18.06v67.8zm-6.6-51.84h-4.56v5.46h4.56v-5.46zm-8.82 35.64V61h13.56v-3.42h-4.68V34.3h-9v3.42h4.8v19.86h-4.68zm28.14 16.2h-14.16V5.98h34.14v67.8h-18.54q6-.24 9.27-3.93 3.27-3.69 3.27-9.81V37.72h4.32V34.3h-8.58v4.2q-2.7-4.74-9.06-4.74-6.18 0-9.06 4.62-2.88 4.62-2.88 9.96 0 6.3 3.36 9.66 3.36 3.36 8.1 3.36 3.78 0 6.06-1.74t3.48-4.08v4.32q0 4.98-2.43 7.62-2.43 2.64-6.27 2.64-2.7 0-5.22-1.38-2.52-1.38-3.54-4.5l-3.36 1.68q1.02 3.84 4.11 5.76 3.09 1.92 6.99 2.1zm9.72-28.92v4.62q-.12 3-2.49 5.61-2.37 2.61-6.15 2.61-3.3 0-5.58-2.37-2.28-2.37-2.28-7.29 0-4.2 2.01-7.41t6.57-3.21q3.24 0 5.58 2.04t2.34 5.4zm43.62 28.92h-34.8V5.98h34.8v67.8zm-14.7-16.2V61h13.56v-3.42h-4.62V43.9q0-5.34-2.64-7.74-2.64-2.4-6.54-2.4-6.42 0-9.36 5.34V19.72h-8.88v3.42h4.62v34.44h-4.62V61h13.5v-3.42h-4.62v-12.6q.12-2.94 2.31-5.31 2.19-2.37 5.67-2.37 2.76 0 4.53 1.77 1.77 1.77 1.77 6.09v12.42h-4.68zm30.42 16.2h-17.16V5.98h17.16v67.8zm-15.36-16.2V61h13.56v-3.42h-4.68V19.72h-8.94v3.42h4.74v34.44h-4.68zm31.98 16.2h-18.06V5.98h18.06v67.8zm-6.6-51.84h-4.56v5.46h4.56v-5.46zm-8.82 35.64V61h13.56v-3.42h-4.68V34.3h-9v3.42h4.8v19.86h-4.68zm28.14 16.2h-14.16V5.98h34.14v67.8h-18.54q6-.24 9.27-3.93 3.27-3.69 3.27-9.81V37.72h4.32V34.3h-8.58v4.2q-2.7-4.74-9.06-4.74-6.18 0-9.06 4.62-2.88 4.62-2.88 9.96 0 6.3 3.36 9.66 3.36 3.36 8.1 3.36 3.78 0 6.06-1.74t3.48-4.08v4.32q0 4.98-2.43 7.62-2.43 2.64-6.27 2.64-2.7 0-5.22-1.38-2.52-1.38-3.54-4.5l-3.36 1.68q1.02 3.84 4.11 5.76 3.09 1.92 6.99 2.1zm9.72-28.92v4.62q-.12 3-2.49 5.61-2.37 2.61-6.15 2.61-3.3 0-5.58-2.37-2.28-2.37-2.28-7.29 0-4.2 2.01-7.41t6.57-3.21q3.24 0 5.58 2.04t2.34 5.4zm43.62 28.92h-34.8V5.98h34.8v67.8zm-14.7-16.2V61h13.56v-3.42h-4.62V43.9q0-5.34-2.64-7.74-2.64-2.4-6.54-2.4-6.42 0-9.36 5.34V19.72h-8.88v3.42h4.62v34.44h-4.62V61h13.5v-3.42h-4.62v-12.6q.12-2.94 2.31-5.31 2.19-2.37 5.67-2.37 2.76 0 4.53 1.77 1.77 1.77 1.77 6.09v12.42h-4.68zm36.72 16.2h-23.46V5.98h23.46v67.8zm-1.56-19.98l-3.24-1.02q-.6 3.24-1.71 4.2-1.11.96-2.61.96-2.46 0-3.39-1.47-.93-1.47-.93-3.87V37.66h10.44V34.3h-10.44v-8.58h-4.2v8.58h-4.32v3.36h4.32v15.48q0 3.9 2.01 6.18t6.03 2.28q6.84 0 8.04-7.8z"/></svg>