<svg viewBox="0 0 447 80" xmlns="http://www.w3.org/2000/svg"><path d="M21.72 13.84q0-.72.51-1.23t1.23-.51H41.7q-.84-1.68-1.62-3.42-.9-2.04-1.92-3.96-.48-1.08.06-1.83t1.47-.84q.93-.09 1.59.81.72 1.08 1.5 2.16 1.8 2.52 3.3 5.28.48.9.18 1.8h16.32q0-.96.69-1.65t1.71-.69q.96 0 1.68.69t.72 1.71V26.8q0 1.02-.72 1.71t-1.68.69q-1.02 0-1.71-.69t-.69-1.71V15.52H21.72V26.8q0 1.02-.69 1.71t-1.65.69q-1.02 0-1.71-.69t-.69-1.71V12.82q0-1.02.69-1.71t1.71-.69q.96 0 1.65.72t.69 1.68v1.02zm45.3 35.76q.72 0 1.2.51t.48 1.17q0 .72-.48 1.23t-1.2.51H45.96v21.84q0 .96-.69 1.65t-1.71.69q-.96 0-1.62-.66h-8.28q-.66 0-1.17-.51-.51-.51-.51-1.17 0-.72.51-1.23t1.17-.51h6.72q.36 0 .6-.24t.24-.54V53.02H17.28q-.66 0-1.17-.51-.51-.51-.51-1.23 0-.66.51-1.17.51-.51 1.17-.51h23.94v-8.58q.06-.06.06-.12-.24-1.26.66-2.16l6.96-7.44H28.02q-.66 0-1.17-.51-.51-.51-.51-1.17 0-.72.51-1.23t1.17-.51h24.06l.84-.9q.78-.66 1.71-.66.93 0 1.65.72.66.78.66 1.71 0 .93-.72 1.65L45.96 41.38v8.22h21.06zm43.32 27.54q-1.02 0-1.71-.69t-.69-1.65V53.32h-6.48q-.72 0-1.23-.51t-.51-1.17q0-.72.51-1.23t1.23-.51h6.48V16.12h-3.6q0 .06-.06.06v.18l-.12 1.2q-1.38 11.52-3.51 26.01-2.13 14.49-5.07 25.29-.36 1.2-1.35 1.38-.99.18-1.74-.45t-.51-1.89q2.04-7.92 3.51-18.54 1.47-10.62 2.55-20.82.78-6.9 1.5-12.42h-4.86q-.72 0-1.23-.51t-.51-1.23q0-.66.51-1.17.51-.51 1.23-.51h13.26V4.36q0-.96.69-1.65t1.71-.69q.96 0 1.68.69t.72 1.65v8.34H126q.72 0 1.2.51t.48 1.17q0 .72-.48 1.23t-1.2.51h-13.26V49.9h6.48q.72 0 1.23.51t.51 1.23q0 .66-.51 1.17-.51.51-1.23.51h-6.48V74.8q0 .96-.72 1.65t-1.68.69zm16.56-6.9q-.96.24-1.77-.24t-1.11-1.5q-1.68-6.66-2.91-15.87-1.23-9.21-2.19-18.15-.66-6.42-1.32-11.34-.06-1.26.78-1.77.84-.51 1.77-.21.93.3 1.17 1.56.36 2.7.84 6 1.2 9.42 2.88 20.16t3.6 18.48q.18.96-.3 1.77t-1.44 1.11zm-41.28 6.9q-1.02 0-1.71-.69t-.69-1.65V30.4q-1.98 4.86-4.14 9.72-.6 1.08-1.56 1.11-.96.03-1.56-.72-.6-.75-.18-1.95 3.72-8.34 6.42-17.1Q84.9 12.7 87 3.82q.24-.96 1.05-1.47t1.77-.27q1.02.24 1.5 1.05t.3 1.77q-1.56 6.36-3.6 12.6v57.3q0 .96-.72 1.65t-1.68.69zm67.56-50.88h6.78q1.92-6.12 3.42-12.36h-8.7q-.66 0-1.17-.51-.51-.51-.51-1.23 0-.66.51-1.17.51-.51 1.17-.51h9.42q.18-.72.3-1.38.54-2.22.96-4.5.24-.96 1.02-1.5t1.8-.36q.96.24 1.5 1.02t.36 1.74q-.3 1.74-.72 3.36-.18.84-.36 1.62h16.26q.72 0 1.2.51t.48 1.17q0 .72-.48 1.23t-1.2.51h-16.98q-1.44 6.24-3.24 12.36h21.78q.66 0 1.17.51.51.51.51 1.17 0 .72-.51 1.23t-1.17.51h-22.86q-1.5 4.74-3.18 9.42h21.12q.06-.18.18-.42.06-.18.18-.42.36-1.02 1.29-1.47.93-.45 1.95-.09.96.42 1.41 1.35.45.93.09 1.95-6.12 16.14-18.54 28.08 5.22 2.22 10.38 4.56l.06.06q.06.06.12.06.24.18.42.36.12.12.24.3l.12.12.12.12v.12q0 .06.06.12l.12.36q.06.24.06.54 0 .12-.06.3 0 .3-.12.6l-.06.06v.06q0 .06-.06.12l-.06.06q-.12.24-.36.42-.12.18-.3.24-.06.06-.06.12-.06.06-.18.12h-.12q0 .06-.06.06l-.36.12q-.3.06-.54.06-.18 0-.3-.06h-.06q-.3 0-.54-.12h-.06q-.06 0-.12-.06-6.24-2.88-12.36-6.06-4.62-2.4-9.3-4.62-1.08-.6-1.11-1.56-.03-.96.69-1.59.72-.63 1.86-.15 3.84 1.68 7.68 3.3 0-.06.06-.06 0-.06.06-.12 10.5-10.02 16.26-23.52h-21.06q-.18.42-.3.78-.12.42-.3.9-.42.9-1.29 1.29-.87.39-1.77.03-1.08-.48-1.38-1.56-.48-.6-.48-1.32 0-1.32 1.14-2.04 2.1-5.4 3.84-10.92h-5.76q-.72 0-1.23-.51t-.51-1.23q0-.66.51-1.17.51-.51 1.23-.51zm-3.3-23.52q.96.3 1.44 1.11t.3 1.77q-1.56 6.36-3.6 12.54V74.8q0 .96-.72 1.65t-1.68.69q-.96 0-1.68-.69t-.72-1.65V31.12q-1.98 4.86-4.14 9.66-.6 1.14-1.56 1.17-.96.03-1.56-.72-.6-.75-.18-1.95 3.72-8.34 6.42-17.1 2.7-8.76 4.8-17.64.24-1.02 1.05-1.5t1.83-.3zm47.4 32.22q-.66 0-1.17-.48-.51-.48-.51-1.2t.51-1.2q.51-.48 1.17-.48h49.74q.72 0 1.2.48t.48 1.2q0 .72-.48 1.2t-1.2.48h-5.94V74.8q0 1.02-.69 1.71t-1.65.69q-1.02 0-1.68-.66h-8.28q-.72 0-1.2-.51t-.48-1.23q0-.66.48-1.17.48-.51 1.2-.51h6.72q.36 0 .6-.24t.24-.54V34.96h-39.06zm26.64 10.32h-19.08v19.5q0-.72.48-1.23t1.2-.51h17.4V45.28zm-21.48-5.46q1.02 0 1.71.72t.69 1.68v1.32q0-.66.48-1.17.48-.51 1.2-.51h17.4q0-.96.69-1.65t1.71-.69q.96 0 1.65.69t.69 1.65v24.6q0 .96-.69 1.68t-1.65.72q-1.02 0-1.71-.69t-.69-1.71h-19.08q-.06 1.02-.72 1.71-.66.69-1.68.69-.96 0-1.68-.72t-.72-1.68V42.22q0-1.02.72-1.71t1.68-.69zM198 25.54q5.64-1.62 11.37-4.95 5.73-3.33 8.49-8.73h-18.78q-.72 0-1.23-.51t-.51-1.23q0-.66.51-1.17.51-.51 1.23-.51h19.86q.24-1.14.24-2.4V4.42q0-.42.12-.78.66-1.62 2.22-1.62 1.02 0 1.71.69t.69 1.71V6.1q0 1.2-.18 2.34h20.16q.72 0 1.23.51t.51 1.17q0 .72-.51 1.23t-1.23.51h-20.88q-2.64 7.14-9.45 11.13-6.81 3.99-14.49 6.09-1.2.3-1.86-.45-.66-.75-.51-1.71.15-.96 1.29-1.38zm45.6 3.42q-10.32-5.22-18.42-13.62-.84-.9-.51-1.86.33-.96 1.26-1.32.93-.36 1.89.54 7.86 7.44 17.82 11.94.9.48 1.23 1.38.33.9-.09 1.8-.48.9-1.38 1.23-.9.33-1.8-.09zm40.92-15.54v8.4h17.7q.06-1.02.72-1.71.66-.69 1.68-.69.96 0 1.65.72t.69 1.68v52.92q0 1.02-.69 1.71t-1.65.69q-.96 0-1.68-.66h-7.86q-.66 0-1.17-.51-.51-.51-.51-1.23 0-.66.51-1.17.51-.51 1.17-.51h6.36q.3 0 .54-.24.24-.24.24-.6V25.24h-40.14v49.5q0 1.02-.69 1.71t-1.71.69q-.96 0-1.65-.69t-.69-1.71V22.12q0-.96.69-1.65t1.65-.69q1.02 0 1.71.69t.69 1.71v1.32q0-.66.51-1.17.51-.51 1.17-.51h16.02v-8.4h-22.5q-.66 0-1.17-.51-.51-.51-.51-1.17 0-.72.51-1.23t1.17-.51h22.5V4.3q0-.96.69-1.65t1.65-.69q1.02 0 1.71.69t.69 1.71V10h22.5q.66 0 1.17.51.51.51.51 1.23 0 .66-.51 1.17-.51.51-1.17.51h-22.5zm0 61.32q0 1.02-.69 1.71t-1.71.69q-.96 0-1.65-.69t-.69-1.71v-15.3h-14.04q-.72 0-1.23-.51T264 57.7q0-.72.51-1.2t1.23-.48h14.04V45.64h-12.36q-.72 0-1.2-.51t-.48-1.23q0-.66.48-1.17.48-.51 1.2-.51h29.46q.72 0 1.23.51t.51 1.17q0 .72-.51 1.23t-1.23.51h-12.36v10.38h14.04q.72 0 1.23.48t.51 1.2q0 .72-.51 1.23t-1.23.51h-14.04v15.3zm-9.6-34.8q-.9.36-1.8 0t-1.32-1.26q-.72-1.8-1.44-3.78-.84-2.22-1.74-4.38-.42-1.02.15-1.74t1.5-.78q.93-.06 1.59.96l.84 1.44q1.86 3.12 3.48 6.42.36.96.03 1.83-.33.87-1.29 1.29zm16.38-.72q-.6.96-1.53.93-.93-.03-1.5-.75t-.21-1.8q.96-2.1 1.74-4.38.72-1.92 1.5-3.78.42-.9 1.29-1.26.87-.36 1.83 0 .9.42 1.26 1.29.36.87 0 1.83-1.62 3.3-3.54 6.48l-.84 1.44zm52.68 19.14q8.76-9.42 11.76-22.56H335.1q-2.64 6.84-6.06 13.44 7.5 4.5 14.94 9.12zm23.04-25.98q.66 0 1.17.51.51.51.51 1.23 0 .66-.51 1.17-.51.51-1.17.51h-6.12q-3.12 14.76-13.02 25.02 9.18 5.82 18.06 12.12.84.66.96 1.62.12.96-.54 1.74-.72.78-1.74.9t-1.92-.54q-8.94-6.42-18.06-12.72-10.92 9.48-26.58 13.2-1.32.24-1.98-.54-.66-.78-.45-1.74.21-.96 1.47-1.32 14.04-3.36 23.76-12.12-6.66-4.56-13.62-8.76-.12.24-.3.48-.12.3-.3.6-.54.9-1.53 1.17-.99.27-1.95-.15-.96-.54-1.29-1.44-.33-.9.21-1.8 4.32-7.62 7.5-15.72h-10.26q-.66 0-1.17-.51-.51-.51-.51-1.17 0-.72.51-1.23t1.17-.51h11.52q1.8-4.74 3.18-9.6.3-.96 1.2-1.44.9-.48 1.98-.24t1.62 1.08q.54.84.24 1.8-1.2 4.26-2.7 8.4h30.66zm-1.38-3.12q-.96 0-1.68-.72t-.72-1.68v-11.7h-42.18v11.7q0 .96-.72 1.68t-1.68.72q-.96 0-1.68-.72t-.72-1.68V12.4q0-1.02.72-1.68.72-.66 1.68-.66t1.68.69q.72.69.72 1.65v1.02q0-.66.48-1.17.48-.51 1.2-.51h18.9q-.54-.24-.9-.72l-2.04-3.24-1.8-3q-.6-.96-.15-1.74.45-.78 1.35-.96.9-.18 1.68.6l4.74 5.52q.6.84.45 1.77-.15.93-.93 1.59-.12.06-.3.12-.06 0-.12.06h19.62q0-1.02.72-1.71t1.68-.69q.96 0 1.68.72t.72 1.68v15.12q0 .96-.72 1.68t-1.68.72zm44.7 47.88q-1.02 0-1.71-.69t-.69-1.65V53.32h-6.48q-.72 0-1.23-.51t-.51-1.17q0-.72.51-1.23t1.23-.51h6.48V16.12h-3.6q0 .06-.06.06v.18l-.12 1.2q-1.38 11.52-3.51 26.01-2.13 14.49-5.07 25.29-.36 1.2-1.35 1.38-.99.18-1.74-.45t-.51-1.89q2.04-7.92 3.51-18.54 1.47-10.62 2.55-20.82.78-6.9 1.5-12.42h-4.86q-.72 0-1.23-.51t-.51-1.23q0-.66.51-1.17.51-.51 1.23-.51h13.26V4.36q0-.96.69-1.65t1.71-.69q.96 0 1.68.69t.72 1.65v8.34H426q.72 0 1.2.51t.48 1.17q0 .72-.48 1.23t-1.2.51h-13.26V49.9h6.48q.72 0 1.23.51t.51 1.23q0 .66-.51 1.17-.51.51-1.23.51h-6.48V74.8q0 .96-.72 1.65t-1.68.69zm16.56-6.9q-.96.24-1.77-.24t-1.11-1.5q-1.68-6.66-2.91-15.87-1.23-9.21-2.19-18.15-.66-6.42-1.32-11.34-.06-1.26.78-1.77.84-.51 1.77-.21.93.3 1.17 1.56.36 2.7.84 6 1.2 9.42 2.88 20.16t3.6 18.48q.18.96-.3 1.77t-1.44 1.11zm-41.28 6.9q-1.02 0-1.71-.69t-.69-1.65V30.4q-1.98 4.86-4.14 9.72-.6 1.08-1.56 1.11-.96.03-1.56-.72-.6-.75-.18-1.95 3.72-8.34 6.42-17.1 2.7-8.76 4.8-17.64.24-.96 1.05-1.47t1.77-.27q1.02.24 1.5 1.05t.3 1.77q-1.56 6.36-3.6 12.6v57.3q0 .96-.72 1.65t-1.68.69z"/></svg>