<svg viewBox="0 0 448 80" xmlns="http://www.w3.org/2000/svg"><path d="M48 41.02h15.96l.78-1.08h4.74l-3.12 4.5H47.04V57.4q0 1.5-1.08 2.55Q44.88 61 43.32 61H31.44l1.92-3.42h4.02q1.02 0 1.74-.69t.72-1.71V44.44H15.36v-3.42H39.9l9.78-9.54H24.9v-3.42h33.42v3.42h-.06L48 41.02zM22.62 26.2l-.06-.06v5.22h-7.2V20.08h7.2v2.1q.42-.3.96-.66 1.56-.84 3-1.11 1.44-.27 2.04-.27h11.22v-2.52h8.4l-.24.27q-.24.27-.51.84t-.39 1.41H69l-.3.42q-.3.42-.6 1.32-.3.9-.3 2.28v7.2h-7.2v-7.8H28.8q-.48-.06-1.65.15t-2.61.93q-1.02.54-1.47 1.05l-.45.51zm59.94-6.6h4.38V61h-7.26V23.86l-4.86 1.38v-3.42l4.86-1.38 2.88-.84zm43.62 4.08h-13.2V39.7h5.16l-.36-12.12h7.2l.66 22.62 2.82 4.62v6.12l-10.08-12.48-.18-5.16h-5.22V61h-7.62V43.3h-5.88l-.12 5.16-10.08 12.48v-6.12l2.82-4.62.66-22.62h7.2L99.6 39.7h5.76V23.68h-15.9v-3.42h15.9v-2.7h8.7l-.21.27q-.21.27-.45.84-.24.57-.36 1.59h10.8l.6-.84h4.74l-3 4.26zm62.88 8.94v3.48h-17.64l-7.26 7.14h24.9l-.24.36q-.24.36-.48.99T188.1 46v11.28q0 1.56-1.08 2.64T184.38 61h-33.72v-3.42l3.66-6.6h6.96l-3.66 6.6h20.76q1.02 0 1.74-.72t.72-1.74v-8.46h-27.18v-1.32l9.18-9.24h-12.9v-3.48h15.48v-9.06h-14.88v-3.48h14.88v-2.46h8.1l-.21.27q-.21.27-.45.84-.24.57-.36 1.35h10.86l.66-.96h4.74l-3.06 4.44h-13.26v9.06h16.62zM147.36 61h-7.26V23.74l-5.04 1.32v-3.42l5.04-1.38 2.88-.78h4.38V61zm78.6-9.78v-5.04h-14.58l-.72.03q-.72.03-1.8.24t-2.16.81q-1.02.54-1.47 1.02-.45.48-.45.54v7.08l2.22-2.28h16.5q1.02 0 1.74-.72t.72-1.68zm7.26-5.22v7.44q0 1.5-1.11 2.55-1.11 1.05-2.61 1.05h-31.98V42.76h7.26v2.04q.42-.3.9-.66 1.56-.84 3.03-1.11 1.47-.27 2.01-.27h23.7l-.3.33q-.3.33-.6 1.02t-.3 1.89zm12.48-5.94V57.4q0 1.5-1.11 2.55-1.11 1.05-2.61 1.05h-9.72l2.22-3.42h1.5q1.02 0 1.74-.72t.72-1.68V40.06h-43.2v-3.42h53.34v3.42h-2.88zM225.3 17.5h1.32l-.27.36q-.27.36-.54.99t-.33 1.47h17.88l.78-1.14h4.68l-3.12 4.56h-20.28v1.2l23.16 5.64v5.28L225 30.34v-4.26l-29.46 9.78v-5.28l20.88-6.84h-20.88v-3.42h21.72V17.5h8.04zm46.5 28.98L271.74 61h-7.26V49.12l-9.24 3.3v-4.74l9.24-3.3V23.8h-2.4v3.78l-7.26 7.02v-4.68l.78-1.02V18.82h7.38l-.15.15q-.15.15-.33.48-.18.33-.3.93h2.28V17.8h8.64l-.24.21q-.24.21-.48.78-.24.57-.42 1.59h3.72v3.42h-3.78l-.06 17.94 3.96-1.44v4.8l-4.02 1.38zm34.74-7.2h2.88v3.42h-2.88v14.7q0 1.5-1.08 2.55-1.08 1.05-2.64 1.05h-14.04l2.16-3.42h5.88q1.02 0 1.74-.72t.72-1.68V42.7h-22.32v-3.42h22.32v-3.24h8.22l-.21.21q-.21.21-.45.75-.24.54-.3 1.5v.78zm2.82-19.92l-3.12 4.44h-9.78v6.48h12.72v3.42h-32.46v-3.42h12.48V23.8h-12v-3.42h12V17.8h8.22l-.21.27q-.21.27-.42.87t-.27 1.44h7.38l.72-1.02h4.74zM288.6 47.8l2.1 6.66h-6.78l-2.04-5.28-1.62-.36v-2.28l8.34 1.26zm55.92 4.56l8.7-7.32-4.26-20.82h-6.9v-3.48h6.24l-.66-3.06h7.26l.6 3.06h5.22l-.84-2.22h7.08l2.04 5.7h-12.78l3.24 15.6 2.64-2.22v-5.76h6.36v8.1l-7.68 6.3 2.34 11.28h6V61h-12.6l-1.98-9.6-10.02 8.22v-7.26zm-9.84 2.76V38.5h-7.92l-.48.03q-.48.03-1.2.21t-1.41.6q-.69.42-1.23 1.2v19.32l2.28-2.34h7.5q1.02 0 1.74-.69t.72-1.71zm7.08-16.8v19.02q0 1.5-1.11 2.58T338.04 61h-22.86V35.08h7.26v.96q1.02-.66 2.22-.78V17.92h8.46l-.27.3q-.27.3-.54.93-.27.63-.33 1.59h8.16v3.48h-8.22v10.86h10.62l-.18.33q-.18.33-.39 1.05-.21.72-.21 1.86zm40.8-18.72h4.38V61h-7.26V23.86l-4.86 1.38v-3.42l4.86-1.38 2.88-.84zm43.62 4.08h-13.2V39.7h5.16l-.36-12.12h7.2l.66 22.62 2.82 4.62v6.12l-10.08-12.48-.18-5.16h-5.22V61h-7.62V43.3h-5.88l-.12 5.16-10.08 12.48v-6.12l2.82-4.62.66-22.62h7.2l-.36 12.12h5.76V23.68h-15.9v-3.42h15.9v-2.7h8.7l-.21.27q-.21.27-.45.84-.24.57-.36 1.59h10.8l.6-.84h4.74l-3 4.26z"/></svg>